<svg width="258" height="42" viewBox="0 0 258 42" fill="none" xmlns="http://www.w3.org/2000/svg">
<path d="M138.933 33.0433C139.013 32.9397 139.101 32.8278 139.191 32.713C139.954 31.7503 141.083 30.4684 142.268 29.5056C142.857 29.0215 143.459 28.6212 143.992 28.3665C144.258 28.2378 144.508 28.1454 144.729 28.0867C144.95 28.0279 145.143 28.0055 145.307 28.0055H145.426V23.9109H145.307C144.488 23.9109 143.714 24.0816 143.002 24.3391C141.755 24.7953 140.669 25.509 139.69 26.2983C138.267 27.4541 137.071 28.7836 136.195 29.8583L123.873 15.9316C122.73 14.5042 121.162 12.5423 121.224 10.1662C121.224 7.23304 123.51 4.70855 127.042 4.64138H135.182V0.83226H127.006C127.006 0.83226 127.006 0.83226 127.003 0.83226C121.585 0.83226 116.952 4.63859 116.952 9.98703C116.952 13.256 118.035 15.0388 119.481 17.0007L120.323 18.1287L116.589 21.518C111.831 25.7973 111.049 32.6319 115.625 37.6864C120.564 43.0965 129.475 41.3724 133.388 38.1035L135.857 35.9624L139.71 40.3621H145.432L138.939 33.0461L138.933 33.0433ZM130.674 35.0696C127.964 37.5661 122.004 38.5765 118.752 34.8905C115.741 31.5627 116.464 27.1043 119.294 24.4875L122.846 21.2773L133.022 32.9285L130.674 35.0696Z" fill="#002E53"/>
<path d="M0 29.1922L6.60048 12.8054H9.28264L15.8831 29.1922H13.2492L11.979 25.7777H3.90415L2.63396 29.1922H0ZM11.2333 23.6646L7.93872 15.6405L4.64415 23.6646H11.2305H11.2333Z" fill="#002E53"/>
<path d="M29.6457 29.1922H18.0693V12.8054H20.5502V26.886H29.6457V29.1922Z" fill="#002E53"/>
<path d="M43.6799 29.1922H32.1035V12.8054H34.5844V26.886H43.6799V29.1922Z" fill="#002E53"/>
<path d="M46.6204 24.4007C47.3859 26.0044 48.8545 27.1519 51.0207 27.1519C52.8664 27.1519 54.3039 26.2479 54.3039 24.8121C54.3039 23.3763 53.0337 22.8334 50.6804 22.0609C47.6467 21.059 45.2566 20.0206 45.2821 17.1267C45.3048 14.1348 48.0578 12.5647 50.7173 12.5647C53.6688 12.5647 55.5514 14.1936 56.4474 15.9428L54.5307 17.317C53.8474 16.0492 52.5546 14.8681 50.7201 14.8681C49.2033 14.8681 47.7686 15.6657 47.7686 17.1127C47.7686 18.5597 49.0757 18.9459 51.3326 19.7323C54.3096 20.7707 56.7904 21.6159 56.7904 24.7869C56.7904 27.9579 53.8134 29.4329 51.0745 29.4329C47.9444 29.4329 45.6989 27.7928 44.7803 25.7161L46.626 24.4007H46.6204Z" fill="#002E53"/>
<path d="M58.8652 21.0226C58.8652 16.1107 62.4065 12.5647 67.1102 12.5647C71.8139 12.5647 75.3693 16.1135 75.3693 21.0226C75.3693 25.9316 71.8507 29.4329 67.1102 29.4329C62.3696 29.4329 58.8652 25.9708 58.8652 21.0226ZM67.113 27.0315C70.5352 27.0315 72.7835 24.605 72.7835 20.9974C72.7835 17.3898 70.538 14.9632 67.113 14.9632C63.688 14.9632 61.4538 17.4737 61.4538 20.9974C61.4538 24.521 63.7362 27.0315 67.113 27.0315Z" fill="#002E53"/>
<path d="M78.4775 29.1922V12.8194H85.0412C88.3357 12.8194 90.465 14.9073 90.465 17.9467C90.465 20.9862 88.3357 23.0881 85.0412 23.0881H80.947V29.195H78.4775V29.1922ZM80.947 20.7707H84.9334C86.8756 20.7707 87.8849 19.5168 87.8849 17.9467C87.8849 16.3766 86.8727 15.1228 84.9334 15.1228H80.947V20.7707Z" fill="#002E53"/>
<path d="M93.1807 29.1922V12.8194H99.7443C103.039 12.8194 105.168 14.9073 105.168 17.9467C105.168 20.9862 103.039 23.0881 99.7443 23.0881H95.6502V29.195H93.1807V29.1922ZM95.653 20.7707H99.6394C101.582 20.7707 102.591 19.5168 102.591 17.9467C102.591 16.3766 101.579 15.1228 99.6394 15.1228H95.653V20.7707Z" fill="#002E53"/>
<path d="M152.832 29.1922L159.433 12.8054H162.115L168.715 29.1922H166.081L164.811 25.7777H156.742L155.472 29.1922H152.838H152.832ZM164.065 23.6646L160.771 15.6405L157.476 23.6646H164.063H164.065Z" fill="#002E53"/>
<path d="M182.478 29.1922H170.901V12.8054H173.382V26.886H182.478V29.1922Z" fill="#002E53"/>
<path d="M196.512 29.1922H184.936V12.8054H187.416V26.886H196.512V29.1922Z" fill="#002E53"/>
<path d="M199.452 24.4007C200.218 26.0044 201.687 27.1519 203.853 27.1519C205.698 27.1519 207.136 26.2479 207.136 24.8121C207.136 23.3763 205.866 22.8334 203.512 22.0609C200.479 21.059 198.089 20.0206 198.114 17.1267C198.137 14.1348 200.89 12.5647 203.549 12.5647C206.501 12.5647 208.383 14.1936 209.279 15.9428L207.363 17.317C206.679 16.0492 205.387 14.8681 203.552 14.8681C202.035 14.8681 200.601 15.6657 200.601 17.1127C200.601 18.5597 201.908 18.9459 204.165 19.7323C207.142 20.7707 209.622 21.6159 209.622 24.7869C209.622 27.9579 206.645 29.4329 203.907 29.4329C200.776 29.4329 198.531 27.7928 197.612 25.7161L199.458 24.4007H199.452Z" fill="#002E53"/>
<path d="M211.697 21.0226C211.697 16.1107 215.239 12.5647 219.942 12.5647C224.646 12.5647 228.201 16.1135 228.201 21.0226C228.201 25.9316 224.683 29.4329 219.942 29.4329C215.202 29.4329 211.697 25.9708 211.697 21.0226ZM219.945 27.0315C223.367 27.0315 225.616 24.605 225.616 20.9974C225.616 17.3898 223.37 14.9632 219.945 14.9632C216.52 14.9632 214.286 17.4737 214.286 20.9974C214.286 24.521 216.568 27.0315 219.945 27.0315Z" fill="#002E53"/>
<path d="M231.31 29.1922V12.8194H237.873C241.168 12.8194 243.297 14.9073 243.297 17.9467C243.297 20.9862 241.168 23.0881 237.873 23.0881H233.779V29.195H231.31V29.1922ZM233.779 20.7707H237.765C239.708 20.7707 240.717 19.5168 240.717 17.9467C240.717 16.3766 239.705 15.1228 237.765 15.1228H233.779V20.7707Z" fill="#002E53"/>
<path d="M246.013 29.1922V12.8194H252.576C255.871 12.8194 258 14.9073 258 17.9467C258 20.9862 255.871 23.0881 252.576 23.0881H248.482V29.195H246.013V29.1922ZM248.485 20.7707H252.471C254.414 20.7707 255.423 19.5168 255.423 17.9467C255.423 16.3766 254.411 15.1228 252.471 15.1228H248.485V20.7707Z" fill="#002E53"/>
</svg>