<svg xmlns="http://www.w3.org/2000/svg" id="prefix__logo" width="70" height="70"><defs><style>.prefix__cls-1{fill:#24364b}.prefix__cls-2{fill:#fff}.prefix__cls-3{fill:#001d47}.prefix__cls-4{fill:#27c181}</style></defs><circle id="prefix__Ellipse_24" cx="35" cy="35" r="35" class="prefix__cls-1" data-name="Ellipse 24"/><circle id="prefix__Ellipse_25" cx="3.606" cy="3.606" r="3.606" class="prefix__cls-2" data-name="Ellipse 25" transform="translate(37.252 12.856)"/><path id="prefix__Path_273" d="M1050.361 96.235a3.889 3.889 0 113.888-3.889 3.893 3.893 0 01-3.888 3.889zm0-7.212a3.323 3.323 0 103.323 3.323 3.327 3.327 0 00-3.323-3.323z" class="prefix__cls-3" data-name="Path 273" transform="translate(-1009.503 -75.884)"/><path id="prefix__Path_274" d="M1019.7 140.557h4.634a.633.633 0 01.52 1L1017 152.825a1.334 1.334 0 01-1.09.576 1.366 1.366 0 01-.287-.028 1.339 1.339 0 01-.939-1.82l4.424-10.606a.633.633 0 01.592-.39z" class="prefix__cls-2" data-name="Path 274" transform="translate(-992.04 -104.415)"/><path id="prefix__Path_275" d="M1015.57 153.341a1.582 1.582 0 01-1.429-.869 1.616 1.616 0 01-.058-1.371l4.424-10.605a.913.913 0 01.845-.564h4.634a.916.916 0 01.752 1.44l-7.846 11.272a1.613 1.613 0 01-1.322.697zm3.783-12.844a.349.349 0 00-.323.216l-4.424 10.606a1.045 1.045 0 001.823 1l7.846-11.273a.351.351 0 00-.288-.551z" class="prefix__cls-3" data-name="Path 275" transform="translate(-991.697 -104.073)"/><path id="prefix__Path_276" d="M1045.363 104.323a15.113 15.113 0 01-8.974 5.263 15.33 15.33 0 01-2.695.367c-.058 0-1.575.042-2.287.062a.705.705 0 00-.565.31l-1.6 2.361a.81.81 0 00.618 1.259h5.1a.948.948 0 01.856 1.51l-6.91 9.7a1.539 1.539 0 01-1.881.494 1.581 1.581 0 01-.787-2.113l1.706-3.468c.236-.5-.128-.936-.68-.936h-7.893a.869.869 0 01-.693-1.182l4.1-9.9.348-.9c-.154 0-.312-.01-.467-.01a14.66 14.66 0 00-7.226 2.089h-3.545a15.685 15.685 0 0117.4-4.811c.224.094.451.165.681.248a15.862 15.862 0 0014.157-1.7.927.927 0 011.234 1.358z" class="prefix__cls-2" data-name="Path 276" transform="translate(-990.565 -83.742)"/><path id="prefix__Path_277" d="M1026.934 125.722a1.912 1.912 0 01-.759-.158 1.863 1.863 0 01-.931-2.493l1.707-3.472a.347.347 0 000-.337.489.489 0 00-.425-.191h-7.893a.994.994 0 01-.824-.472 1.191 1.191 0 01-.13-1.1l4.1-9.894.2-.519h-.059a14.294 14.294 0 00-7.086 2.052l-.066.037h-4.231l.4-.466a16.075 16.075 0 019.761-5.571l.168-.026a14.953 14.953 0 012.277-.23 16.028 16.028 0 015.507.933h.012c.139.058.279.107.428.158l.242.085a15.579 15.579 0 0013.9-1.673 1.212 1.212 0 01.675-.2 1.21 1.21 0 01.933 1.978 15.411 15.411 0 01-9.142 5.362c-.164.029-.329.061-.494.092a12.039 12.039 0 01-2.25.28c-.029 0-.365.008-2.28.062a.424.424 0 00-.338.186l-1.6 2.361a.535.535 0 00-.02.551.461.461 0 00.4.266h5.1a1.33 1.33 0 011.2.686 1.209 1.209 0 01-.116 1.27l-6.91 9.7a1.767 1.767 0 01-1.456.743zm-5.014-19.2c.138 0 .276 0 .409.008l.465.014-.492 1.273-4.1 9.9a.63.63 0 00.079.571.455.455 0 00.353.22h7.893a1.047 1.047 0 01.9.454.9.9 0 01.033.886l-1.707 3.472a1.3 1.3 0 00.646 1.729 1.351 1.351 0 00.535.111 1.209 1.209 0 001-.508l6.91-9.7a.644.644 0 00.075-.682.767.767 0 00-.7-.38h-5.1a1.015 1.015 0 01-.9-.57 1.092 1.092 0 01.055-1.133l1.595-2.358a.992.992 0 01.792-.434c2.228-.062 2.279-.062 2.295-.062a11.618 11.618 0 002.145-.27l.5-.093a14.846 14.846 0 008.806-5.165.645.645 0 00-.859-.943 16.145 16.145 0 01-14.411 1.734l-.233-.082c-.148-.052-.3-.1-.453-.168a15.466 15.466 0 00-5.308-.9 14.521 14.521 0 00-2.191.223l-.168.026a15.437 15.437 0 00-9 4.912h2.843a14.813 14.813 0 017.294-2.089z" class="prefix__cls-3" data-name="Path 277" transform="translate(-989.824 -83.4)"/><path id="prefix__Path_278" d="M1051.037 106.56q-.344-.126-.681-.266c.229.084.456.173.681.266z" class="prefix__cls-4" data-name="Path 278" transform="translate(-1011.63 -85.652)"/><path id="prefix__Path_279" d="M1006.252 116.383h-10.525a1.781 1.781 0 00-1.609 1.016l-2.784 5.854a1.782 1.782 0 001.609 2.546h10.526a1.781 1.781 0 001.609-1.016l2.784-5.854a1.782 1.782 0 00-1.61-2.546z" class="prefix__cls-4" data-name="Path 279" transform="translate(-979.212 -91.177)"/><path id="prefix__Path_280" d="M1003.127 125.741H992.6a2.064 2.064 0 01-1.864-2.95l2.784-5.855a2.073 2.073 0 011.864-1.178h10.526a2.064 2.064 0 011.864 2.95l-2.784 5.855a2.073 2.073 0 01-1.863 1.178zm-7.742-9.417a1.506 1.506 0 00-1.354.855l-2.784 5.855a1.5 1.5 0 001.353 2.142h10.526a1.506 1.506 0 001.354-.855l2.784-5.855a1.5 1.5 0 00-1.354-2.142z" class="prefix__cls-3" data-name="Path 280" transform="translate(-978.871 -90.835)"/><path id="prefix__Path_281" d="M1004.978 126.493a.131.131 0 01-.109-.039.076.076 0 010-.07l.341-.754a.124.124 0 00.009-.029.664.664 0 00-.142-.534.758.758 0 00-.593-.23 1.74 1.74 0 00-1.309.694.12.12 0 00-.011.018l-.342.758a.389.389 0 01-.323.186h-.979a.33.33 0 01-.288-.122.227.227 0 01-.006-.223l1.194-2.643a.094.094 0 00-.022-.108.094.094 0 00-.109-.013l-.087.049a.922.922 0 01-.417.106.41.41 0 01-.289-.089.137.137 0 01-.038-.124.493.493 0 01.274-.3l4.047-2.154a1.226 1.226 0 01.563-.145.559.559 0 01.4.128l2.177 2.251a.2.2 0 01.073.156c-.01.061-.078.128-.193.189a.9.9 0 01-.415.107.4.4 0 01-.285-.089l-.07-.07a.093.093 0 00-.066-.028h-.017a.094.094 0 00-.069.054l-1.195 2.644a.913.913 0 01-.739.422z" class="prefix__cls-1" data-name="Path 281" transform="translate(-984.713 -93.556)"/><path id="prefix__Path_282" d="M1006.23 120.707a.48.48 0 01.331.1l2.176 2.251c.042.043.049.07.048.076s-.032.061-.144.121a.8.8 0 01-.37.1.311.311 0 01-.219-.062l-.068-.068a.189.189 0 00-.133-.056.171.171 0 00-.034 0 .187.187 0 00-.138.108l-1.195 2.644a.816.816 0 01-.653.366h-.973l.315-.7.008-.017.006-.014a.206.206 0 00.015-.051.758.758 0 00-.164-.608.835.835 0 00-.664-.262 1.838 1.838 0 00-1.384.731.187.187 0 00-.023.04l-.007.014-.008.017-.327.722a.3.3 0 01-.238.131h-.979a.248.248 0 01-.209-.078.14.14 0 010-.133l1.194-2.643a.188.188 0 00-.263-.242l-.085.047a.819.819 0 01-.374.1.324.324 0 01-.22-.06.044.044 0 01-.013-.043.4.4 0 01.225-.232l4.047-2.154a1.143 1.143 0 01.519-.134m0-.189a1.317 1.317 0 00-.608.157l-4.047 2.154c-.3.158-.411.414-.259.572a.5.5 0 00.357.118 1.006 1.006 0 00.463-.118l.087-.049-1.193 2.637c-.107.237.042.477.38.477h.979a.477.477 0 00.409-.242l.327-.723.014-.031a1.656 1.656 0 011.234-.657c.47 0 .69.288.641.657l-.014.031-.327.723c-.061.133.025.242.191.242h.965a1 1 0 00.825-.477l1.195-2.644.068.068a.486.486 0 00.353.118 1 1 0 00.459-.118c.3-.158.3-.336.144-.494l-2.177-2.251a.646.646 0 00-.466-.157z" data-name="Path 282" transform="translate(-984.599 -93.441)" fill="#0f1e45"/><text id="prefix__Fanni" transform="translate(18 61.337)" font-size="14" font-family="SegoeUI,Segoe UI" fill="#fff"><tspan x="0" y="0">Fanni</tspan></text></svg>