<svg xmlns="http://www.w3.org/2000/svg" width="233" height="56" fill-rule="evenodd" xmlns:v="https://vecta.io/nano"><path d="M7.06 0v16.33c2.15-3.26 5.68-5.09 10.15-5.09 7.32 0 11.35 3.65 11.35 10.43 0 .5.06 1.51.06 3v20.51h-7.06V24.75c0-5.09-1.77-7.47-6.37-7.47s-8.14 3.14-8.14 8.29v19.6H0V0h7.06zM43 30.85c-3.28.63-4.86 2.26-4.86 5 0 3 2 4.78 5.42 4.78 5 0 9.08-3.15 9.08-7.86v-4.18c-3 1.51-6.37 1.63-9.64 2.26m-1.07 15.4c-6.81 0-10.73-3.77-10.73-9.8 0-7.86 5.24-10 14.13-11.12 5.86-.75 7.38-.82 7.38-3.89s-2.21-4.66-6.81-4.66c-4.35 0-6.68 1.89-6.68 5.22v.25h-6.7v-.57c0-6.47 5-10.68 13.62-10.68 8.83 0 13.37 3.32 13.37 9.8v16.4c0 2 .19 3.08 2 3.08.465-.017.93-.06 1.39-.13v5.15a14.05 14.05 0 0 1-3.59.5c-4.29 0-6.3-1.63-6.37-5a13.73 13.73 0 0 1-11 5.47M71.1 12.06V32.3c0 5.09 1.26 7.66 6.05 7.66 5.36 0 8.45-3.21 8.45-9.3v-18.6h7v33.12h-6.74v-4.53A11.91 11.91 0 0 1 75.58 46c-4.6 0-7.88-1.38-9.83-4.08-1.64-2.33-1.7-5.16-1.7-8.8V12.06h7.05zm96.78 16.51c-8.39 1.07-12.42 2.89-12.42 8 0 4.78 3 7.54 8.26 7.54 3.36.067 6.64-1.032 9.28-3.11 2.84-2.46 3.28-5.1 3.28-9.49v-4.89c-.88 1.19-3.72 1.38-8.45 1.95m12.74 17.09c-3.09 0-4.29-1.82-4.29-5.91-2.59 4-7.25 6.35-13.18 6.35s-9.78-3.71-9.78-9.18c0-6.16 4.23-8.61 13.05-9.86 6.68-.94 9.9-.57 9.9-3.77v-2.76c0-4.4-3.09-6.85-8.83-6.85-6.62 0-10.46 3-10.78 8.1h-1.89c.26-6 4.92-9.86 12.49-9.86 4.6 0 7.88 1.32 9.58 3.77 1.32 1.88 1.38 4 1.38 6.73v15.9c0 4 .38 5.65 2.9 5.65a9.29 9.29 0 0 0 1.2-.12v1.63c-.76.07-1.33.19-1.76.19m25.44-.39h-2v-5.09c-2 3.89-5.86 6-11 6-7.57 0-11.23-3.83-11.23-11.68V12.67h2v21.18c0 7.22 2.59 10.49 9.21 10.49 3.65 0 6.49-1.06 8.45-3.26 2.52-2.83 2.65-6.22 2.65-10.74V12.67h2L206 45.28zm15.25-1.01c5.86 0 9.64-3 9.64-7.41 0-3.26-2.08-5.09-6.49-6.28-5.29-1.39-9.39-2.26-12-4.34-1.72-1.364-2.7-3.455-2.65-5.65 0-4.9 4.35-8.61 11.23-8.61 6.24 0 10.46 3.58 11 9.36h-2c-.69-5-4-7.61-9.33-7.61s-8.89 2.83-8.89 6.6c0 5 4 5.84 10.66 7.6 7.06 1.82 10.53 3.71 10.53 9s-4.79 9.24-11.66 9.24c-7.25 0-11.85-3.89-12.55-10.55h2c1.07 5.72 4.66 8.67 10.46 8.67m-103.54.48h.08m-10.89-13.98l5 1.26.75.19a12.33 12.33 0 0 1 5-5.65c-1.377-.486-2.783-.887-4.21-1.2l-4.22-.94c-3.6-.81-5.55-1.82-5.55-4.21 0-2 1.89-3.58 5.61-3.58 3.48 0 5.75 1.13 6.61 3.26v-.7c-.094-2.305.75-4.55 2.34-6.22-2.666-1.423-5.66-2.113-8.68-2-8.2 0-13 4.14-13 10.3 0 5.4 3.4 7.79 10.34 9.49m8.28 13.1a10 10 0 0 1-2.47-3.63 12.14 12.14 0 0 1-2.33.21c-4.92 0-7.5-1.95-7.82-6h-6.93c0 7.48 5 11.81 14.12 11.81a21.36 21.36 0 0 0 7.12-1.08c-.604-.366-1.167-.795-1.68-1.28" fill="#3c3c3b"/><path d="M131.93 17.62c-2 2.27-2.37 4.89-2.43 8.7 3-2.18 4.41-4.59 4.41-7.73a8.1 8.1 0 0 0-.34-2.37c-.61.39-1.165.862-1.65 1.4M141 27.4h-6c-.103 1.997-.67 3.942-1.66 5.68l-3.8-4.68v16.35c1.282-.627 2.468-1.436 3.52-2.4l2.33 2.84h7.88L137 37.67c2.37-2.923 3.77-6.514 4-10.27m-9.22-14.1c-.666-.618-1.443-1.103-2.29-1.43v3.42a11.2 11.2 0 0 1 2.29-2m-5.99 32.48v-5.62c-.558.146-1.133.22-1.71.22a4.58 4.58 0 0 1-3.338-1.32 4.57 4.57 0 0 1-1.362-3.32 4.74 4.74 0 0 1 2.14-4.12l1.75-1.28 2.52 3.11V22.57l-.67.47-1.12-1.37a5.32 5.32 0 0 1-1.38-3c-.04-.73.244-1.44.776-1.94s1.258-.744 1.984-.66h.38v-4.91h-.34c-5.6 0-8.83 3.27-8.83 8a8.13 8.13 0 0 0 1.94 5.16l1.33 1.75c-5 2.79-7.22 5.63-7.22 10.09 0 5.72 4.37 9.94 10.74 9.94a13.85 13.85 0 0 0 2.38-.2l.03-.13z" fill="#878686"/><path d="M139.68 12c-5.17 0-9 2.13-11 6V.17h-2v45.6a13.3 13.3 0 0 0 2-.65V27.81c0-4.53.13-7.92 2.65-10.74 2-2.2 4.79-3.27 8.45-3.27 6.62 0 9.14 3.27 9.14 10.5v21h2V23.67c0-7.86-3.66-11.69-11.22-11.69" fill="#3c3c3b"/></svg>