<svg xmlns="http://www.w3.org/2000/svg" xmlns:xlink="http://www.w3.org/1999/xlink" id="Layer_1" x="0px" y="0px" viewBox="0 0 153.2 32.6" style="enable-background:new 0 0 153.2 32.6;" xml:space="preserve"><style type="text/css">	.st0{fill:#D3E3C4;}	.st1{fill:#84804E;}	.st2{fill:#2F4930;}	.st3{fill:#606060;}</style><g>	<g>		<rect x="12.7" y="13" class="st0" width="10.8" height="6.3"></rect>		<path class="st1" d="M13.4,16.1c0-3.2,1.3-6.1,3.3-8.1c-1.8-1.5-4-2.4-6.5-2.4C4.5,5.6,0,10.3,0,16.1c0,5.8,4.5,10.5,10.2,10.5   c2.5,0,4.7-0.9,6.5-2.4C14.7,22.2,13.4,19.3,13.4,16.1z"></path>		<path class="st1" d="M21.9,16.1c0-3.2-1.3-6.1-3.3-8.1c1.8-1.5,4-2.4,6.5-2.4c5.6,0,10.2,4.7,10.2,10.5c0,5.8-4.5,10.5-10.2,10.5   c-2.5,0-4.7-0.9-6.5-2.4C20.6,22.2,21.9,19.3,21.9,16.1z"></path>		<path class="st2" d="M13.6,17.1c-0.2-5.9,4.6-10.8,10.8-11c1.4,0,2.7,0.2,3.9,0.5c-1.7-4-5.8-6.8-10.7-6.7   c-6.1,0.2-11,5.1-10.8,11c0.1,4.5,3.3,8.3,7.5,9.7C13.9,19.6,13.7,18.4,13.6,17.1z"></path>		<path class="st2" d="M21.8,15.2c0,6-5,10.8-11.1,10.8c-1.4,0-2.7-0.3-3.9-0.7c1.5,4.2,5.6,7.2,10.4,7.2c6.1,0,11.1-4.9,11.1-10.8   c0-4.7-3-8.6-7.2-10.2C21.6,12.7,21.8,13.9,21.8,15.2z"></path>	</g>	<g>		<g>			<path class="st2" d="M51.9,6.7v8.3h-1.3V6.7H51.9z"></path>			<path class="st2" d="M55.2,10.1l3.2-3.3h1.7l-3.8,3.8l3.8,4.6h-1.7l-3-3.7l-0.3,0.3v3.4h-1.3V6.7h1.3V10.1z"></path>			<path class="st2" d="M63.6,6.7v8.3h-1.3V6.7H63.6z"></path>			<path class="st2" d="M69.9,10.7h3.4V11c0,0.6-0.1,1.2-0.2,1.7c-0.1,0.4-0.4,0.9-0.7,1.2c-0.8,0.9-1.8,1.3-2.9,1.3    c-1.2,0-2.2-0.4-3-1.3c-0.8-0.8-1.2-1.9-1.2-3c0-1.2,0.4-2.2,1.3-3.1c0.8-0.8,1.9-1.3,3.1-1.3c0.6,0,1.3,0.1,1.8,0.4    c0.5,0.3,1.1,0.7,1.6,1.3L72,9.1c-0.7-0.9-1.5-1.4-2.5-1.4c-0.9,0-1.6,0.3-2.2,0.9c-0.6,0.6-0.9,1.3-0.9,2.2c0,0.9,0.3,1.7,1,2.3    c0.6,0.6,1.3,0.8,2,0.8c0.6,0,1.2-0.2,1.7-0.6c0.5-0.4,0.8-0.9,0.8-1.5h-2.1V10.7z"></path>			<path class="st2" d="M78.8,13h-3.6l-0.9,2h-1.4l4.1-8.8l4,8.8h-1.4L78.8,13z M78.3,11.9L77,9l-1.3,2.8H78.3z"></path>			<path class="st2" d="M83.4,6.7v8.3h-1.3V6.7H83.4z"></path>			<path class="st2" d="M91.8,11.5l2.6,3.5h-1.5l-2.4-3.4h-0.2v3.4H89V6.7h1.5c1.1,0,1.9,0.2,2.4,0.6c0.5,0.5,0.8,1.1,0.8,1.8    c0,0.6-0.2,1.1-0.5,1.5C92.8,11.1,92.3,11.4,91.8,11.5z M90.2,10.6h0.4c1.2,0,1.8-0.5,1.8-1.4c0-0.9-0.6-1.3-1.7-1.3h-0.4V10.6z"></path>			<path class="st2" d="M100.2,7.9h-3.3v2h3.2v1.2h-3.2v2.8h3.3v1.2h-4.6V6.7h4.6V7.9z"></path>			<path class="st2" d="M106.7,13h-3.6l-0.9,2h-1.4l4.1-8.8l4,8.8h-1.4L106.7,13z M106.2,11.9L105,9l-1.3,2.8H106.2z"></path>			<path class="st2" d="M111.3,6.7v7.1h2.4v1.2H110V6.7H111.3z"></path>			<path class="st2" d="M121.8,7.9h-3.3v2h3.2v1.2h-3.2v2.8h3.3v1.2h-4.6V6.7h4.6V7.9z"></path>			<path class="st2" d="M128.1,8l-1,0.6c-0.2-0.3-0.4-0.5-0.5-0.6c-0.2-0.1-0.4-0.2-0.7-0.2c-0.3,0-0.6,0.1-0.9,0.3    c-0.2,0.2-0.3,0.4-0.3,0.7c0,0.4,0.3,0.7,0.9,1l0.8,0.3c0.7,0.3,1.2,0.6,1.5,1c0.3,0.4,0.5,0.9,0.5,1.4c0,0.8-0.3,1.4-0.8,1.9    c-0.5,0.5-1.2,0.8-1.9,0.8c-0.7,0-1.3-0.2-1.8-0.6c-0.5-0.4-0.8-1-0.9-1.8l1.3-0.3c0.1,0.5,0.2,0.8,0.3,1    c0.3,0.4,0.6,0.5,1.1,0.5c0.4,0,0.7-0.1,1-0.4c0.3-0.3,0.4-0.6,0.4-1c0-0.2,0-0.3-0.1-0.4c0-0.1-0.1-0.3-0.2-0.4    s-0.2-0.2-0.4-0.3c-0.2-0.1-0.3-0.2-0.5-0.3l-0.8-0.3c-1.1-0.5-1.7-1.2-1.7-2.1c0-0.6,0.2-1.1,0.7-1.6c0.5-0.4,1.1-0.6,1.8-0.6    C126.9,6.6,127.6,7,128.1,8z"></path>			<path class="st2" d="M132.3,7.9v7.1h-1.3V7.9h-1.9V6.7h5.1v1.2H132.3z"></path>			<path class="st2" d="M140.5,13h-3.6l-0.9,2h-1.4l4.1-8.8l4,8.8h-1.4L140.5,13z M139.9,11.9L138.7,9l-1.3,2.8H139.9z"></path>			<path class="st2" d="M145.6,7.9v7.1h-1.3V7.9h-1.9V6.7h5.1v1.2H145.6z"></path>			<path class="st2" d="M153.2,7.9h-3.3v2h3.2v1.2h-3.2v2.8h3.3v1.2h-4.6V6.7h4.6V7.9z"></path>		</g>		<rect x="71.4" y="18.8" class="st3" width="60.7" height="0.5"></rect>		<g>			<path d="M73.6,26.2v-3.5h0.7c1.1,0,1.6,0.7,1.6,1.8c0,0.2,0,0.6-0.2,1c-0.2,0.3-0.4,0.7-1.4,0.7H73.6z M74.1,23.2v2.6h0.4    c0.8,0,1-0.6,1-1.3c0-0.3-0.1-0.7-0.3-1c-0.2-0.2-0.4-0.3-0.9-0.3H74.1z"></path>			<path d="M76.8,25.9h0.3v-2.8h-0.3v-0.3h1.1v0.3h-0.3v2.8h0.3v0.3h-1.1V25.9z"></path>			<path d="M80.5,23.7c-0.2-0.3-0.3-0.6-0.7-0.6c-0.2,0-0.5,0.1-0.5,0.5c0,0.3,0.3,0.4,0.4,0.5l0.7,0.3c0.1,0.1,0.4,0.2,0.5,0.5    c0,0.1,0.1,0.2,0.1,0.5c0,0.3-0.1,0.6-0.3,0.8c-0.3,0.2-0.6,0.2-0.7,0.2c-0.2,0-0.6-0.1-0.8-0.3c-0.2-0.2-0.3-0.4-0.4-0.5    l0.4-0.3c0.1,0.3,0.3,0.6,0.8,0.6c0.3,0,0.6-0.2,0.6-0.6c0-0.2-0.1-0.4-0.4-0.5l-0.6-0.3c-0.2-0.1-0.5-0.3-0.6-0.5    c0-0.1-0.1-0.2-0.1-0.5c0-0.5,0.4-0.9,1-0.9c0.5,0,0.9,0.3,1.1,0.7L80.5,23.7z"></path>			<path d="M83.5,23.8c0-0.3-0.2-0.6-0.6-0.6c-0.3,0-0.5,0.3-0.6,0.5c-0.1,0.3-0.1,0.8-0.1,0.8c0,0.8,0.1,1.5,0.7,1.5    c0.3,0,0.4-0.2,0.5-0.3c0.1-0.2,0.1-0.4,0.1-0.5l0.5,0.1c0,0.3-0.1,0.6-0.3,0.8c-0.3,0.3-0.6,0.3-0.8,0.3c-0.3,0-1.1-0.1-1.1-1.8    c0-0.8,0.2-1.8,1.2-1.8c0.2,0,0.5,0.1,0.7,0.3c0.2,0.2,0.3,0.5,0.3,0.7L83.5,23.8z"></path>			<path d="M86.9,23.6c0.1,0.3,0.1,0.7,0.1,1c0,0.8-0.2,1.8-1.2,1.8c-0.8,0-1.2-0.9-1.2-1.8c0-0.5,0.1-1,0.3-1.3    c0.3-0.5,0.6-0.5,0.9-0.5C86.5,22.7,86.8,23.2,86.9,23.6z M85.9,23.1c-0.3,0-0.5,0.2-0.6,0.5c-0.1,0.2-0.1,0.5-0.1,0.9    c0,0.4,0.1,1.4,0.7,1.4c0.5,0,0.7-0.5,0.7-1.4C86.6,24.1,86.5,23.1,85.9,23.1z"></path>			<path d="M90.4,22.8l-1.1,3.5h-0.5l-1.1-3.5h0.5l0.9,2.7c0,0,0,0,0,0s0,0,0,0l0.8-2.7H90.4z"></path>			<path d="M91.3,22.8h2.1v0.4h-1.7v1H93v0.4h-1.2v1.2h1.7v0.4h-2.2V22.8z"></path>			<path d="M94.6,22.8h1.1c1,0,1.2,0.6,1.2,0.9c0,0.6-0.4,0.8-0.7,0.9l0.9,1.6h-0.6l-0.8-1.5h-0.5v1.5h-0.5V22.8z M95.1,23.2v1.1    c0.3,0,0.6,0,0.8,0c0.2,0,0.5-0.1,0.5-0.5c0-0.4-0.3-0.6-0.8-0.6H95.1z"></path>			<path d="M102,24.9v1.4h-0.5v-1.3l-1.2-2.1h0.6l0.7,1.4c0,0,0.1,0.2,0.1,0.2l0,0h0c0,0,0.1-0.3,0.1-0.3l0.7-1.4h0.5L102,24.9z"></path>			<path d="M105.7,23.6c0.1,0.3,0.1,0.7,0.1,1c0,0.8-0.2,1.8-1.2,1.8c-0.8,0-1.2-0.9-1.2-1.8c0-0.5,0.1-1,0.3-1.3    c0.3-0.5,0.6-0.5,0.9-0.5C105.3,22.7,105.6,23.2,105.7,23.6z M104.7,23.1c-0.3,0-0.5,0.2-0.6,0.5c-0.1,0.2-0.1,0.5-0.1,0.9    c0,0.4,0.1,1.4,0.7,1.4c0.5,0,0.7-0.5,0.7-1.4C105.4,24.1,105.3,23.1,104.7,23.1z"></path>			<path d="M107.2,22.8v2.3c0,0.4,0.1,0.8,0.6,0.8c0.2,0,0.4-0.1,0.5-0.3c0.1-0.2,0.1-0.5,0.1-0.6v-2.2h0.4v2.3    c0,0.3-0.1,0.7-0.3,0.9c-0.3,0.3-0.6,0.3-0.9,0.3c-0.2,0-0.6-0.1-0.8-0.4c-0.2-0.3-0.2-0.6-0.2-0.9v-2.3H107.2z"></path>			<path d="M109.9,22.8h1.1c1,0,1.2,0.6,1.2,0.9c0,0.6-0.4,0.8-0.7,0.9l0.9,1.6h-0.6l-0.8-1.5h-0.5v1.5h-0.5V22.8z M110.4,23.2v1.1    c0.3,0,0.6,0,0.8,0c0.2,0,0.5-0.1,0.5-0.5c0-0.4-0.3-0.6-0.8-0.6H110.4z"></path>			<path d="M117.7,23.7c-0.2-0.3-0.3-0.6-0.7-0.6c-0.2,0-0.5,0.1-0.5,0.5c0,0.3,0.3,0.4,0.4,0.5l0.7,0.3c0.1,0.1,0.4,0.2,0.5,0.5    c0,0.1,0.1,0.2,0.1,0.5c0,0.3-0.1,0.6-0.3,0.8c-0.3,0.2-0.6,0.2-0.7,0.2c-0.2,0-0.6-0.1-0.8-0.3c-0.2-0.2-0.3-0.4-0.4-0.5    l0.4-0.3c0.1,0.3,0.3,0.6,0.8,0.6c0.3,0,0.6-0.2,0.6-0.6c0-0.2-0.1-0.4-0.4-0.5l-0.6-0.3c-0.2-0.1-0.5-0.3-0.6-0.5    c0-0.1-0.1-0.2-0.1-0.5c0-0.5,0.4-0.9,1-0.9c0.5,0,0.9,0.3,1.1,0.7L117.7,23.7z"></path>			<path d="M119,22.8h0.7c0.4,0,0.8,0,1.1,0.2c0.3,0.2,0.4,0.5,0.4,0.8c0,0.4-0.2,0.7-0.4,0.8c-0.3,0.2-0.7,0.3-1,0.3h-0.4v1.4H119    V22.8z M119.5,23.2v1.3c0.1,0,0.1,0,0.2,0c0.6,0,1-0.1,1-0.6c0-0.6-0.7-0.6-0.9-0.6H119.5z"></path>			<path d="M123.4,25.5h-1.4l-0.2,0.7h-0.5l1.1-3.5h0.5l1.2,3.5h-0.5L123.4,25.5z M123.3,25.1l-0.5-1.8c0,0,0,0,0,0s0,0,0,0    l-0.5,1.8H123.3z"></path>			<path d="M126.4,23.8c0-0.3-0.2-0.6-0.6-0.6c-0.3,0-0.5,0.3-0.6,0.5c-0.1,0.3-0.1,0.8-0.1,0.8c0,0.8,0.1,1.5,0.7,1.5    c0.3,0,0.4-0.2,0.5-0.3c0.1-0.2,0.1-0.4,0.1-0.5l0.5,0.1c0,0.3-0.1,0.6-0.3,0.8c-0.3,0.3-0.6,0.3-0.8,0.3c-0.3,0-1.1-0.1-1.1-1.8    c0-0.8,0.2-1.8,1.2-1.8c0.2,0,0.5,0.1,0.7,0.3c0.2,0.2,0.3,0.5,0.3,0.7L126.4,23.8z"></path>			<path d="M127.8,22.8h2.1v0.4h-1.7v1h1.2v0.4h-1.2v1.2h1.7v0.4h-2.2V22.8z"></path>		</g>	</g></g></svg>