<svg xmlns="http://www.w3.org/2000/svg" viewBox="0 0 901 308" width="901" height="308" preserveAspectRatio="xMidYMid meet" style="width: 100%; height: 100%; transform: translate3d(0px, 0px, 0px);"><defs><clipPath id="__lottie_element_10"><rect width="901" height="308" x="0" y="0"></rect></clipPath></defs><g clip-path="url(#__lottie_element_10)"><g transform="matrix(0.8610000014305115,0,0,0.8610000014305115,239.6999969482422,243.05799865722656)" opacity="1" style="display: none;"><g opacity="1" transform="matrix(1,0,0,1,0,0)"><path fill="rgb(252,252,249)" fill-opacity="1" d=" M-71.12899780273438,-71.05899810791016 C-71.12899780273438,-71.05899810791016 -73.38800048828125,-68.87000274658203 -73.38800048828125,-68.87000274658203 C-73.38800048828125,-68.87000274658203 73.38800048828125,71.05899810791016 73.38800048828125,71.05899810791016 C73.38800048828125,71.05899810791016 62.375999450683594,46.75299835205078 62.375999450683594,46.75299835205078 C62.375999450683594,46.75299835205078 -71.12899780273438,-71.05899810791016 -71.12899780273438,-71.05899810791016z"></path></g></g><g transform="matrix(0.8610000014305115,0,0,0.8610000014305115,298.1470031738281,153.86900329589844)" opacity="1" style="display: none;"><g opacity="1" transform="matrix(1,0,0,1,0,0)"><path fill="rgb(252,252,249)" fill-opacity="1" d=" M5.34499979019165,-175.27200317382812 C5.34499979019165,-175.27200317382812 5.50600004196167,174.64700317382812 5.50600004196167,174.64700317382812 C5.50600004196167,174.64700317382812 -5.50600004196167,150.34100341796875 -5.50600004196167,150.34100341796875 C-5.50600004196167,150.34100341796875 -0.8930000066757202,-152.93899536132812 -0.8930000066757202,-152.93899536132812 C-0.8930000066757202,-152.93899536132812 5.34499979019165,-175.27200317382812 5.34499979019165,-175.27200317382812z"></path></g></g><g transform="matrix(0.8610000014305115,0,0,0.8610000014305115,152.33799743652344,153.86900329589844)" opacity="1" style="display: none;"><g opacity="1" transform="matrix(1,0,0,1,0,0)"><path fill="rgb(252,252,249)" fill-opacity="1" d=" M174.85400390625,-174.64700317382812 C174.85400390625,-174.64700317382812 -170.6280059814453,165.88800048828125 -170.6280059814453,165.88800048828125 C-170.6280059814453,165.88800048828125 -174.85400390625,174.64700317382812 -174.85400390625,174.64700317382812 C-174.85400390625,174.64700317382812 168.83099365234375,-149.56399536132812 168.83099365234375,-149.56399536132812 C168.83099365234375,-149.56399536132812 174.85400390625,-174.64700317382812 174.85400390625,-174.64700317382812z"></path></g></g><g transform="matrix(0.8610000014305115,0,0,0.8610000014305115,7.802000045776367,153.76699829101562)" opacity="1" style="display: none;"><g opacity="1" transform="matrix(1,0,0,1,0,0)"><path fill="rgb(252,252,249)" fill-opacity="1" d=" M-6.984000205993652,-174.76600646972656 C-6.984000205993652,-174.76600646972656 6.984000205993652,-165.77499389648438 6.984000205993652,-165.77499389648438 C6.984000205993652,-165.77499389648438 -2.756999969482422,166.0070037841797 -2.756999969482422,166.0070037841797 C-2.756999969482422,166.0070037841797 -6.984000205993652,174.76600646972656 -6.984000205993652,174.76600646972656 C-6.984000205993652,174.76600646972656 -6.984000205993652,-174.76600646972656 -6.984000205993652,-174.76600646972656z"></path></g></g><g transform="matrix(0.8610000014305115,0,0,0.8610000014305115,152.33799743652344,153.76699829101562)" opacity="1" style="display: block;"><g opacity="1" transform="matrix(1,0,0,1,0,0)"><path fill="rgb(252,252,249)" fill-opacity="1" d=" M-170.6280059814453,166.0070037841797 C-170.6280059814453,166.0070037841797 -160.88600158691406,-165.77499389648438 -160.88600158691406,-165.77499389648438 C-160.88600158691406,-165.77499389648438 -174.85400390625,-174.76600646972656 -174.85400390625,-174.76600646972656 C-174.85400390625,-174.76600646972656 -174.85400390625,174.76600646972656 -174.85400390625,174.76600646972656 C-174.85400390625,174.76600646972656 168.83099365234375,-149.44500732421875 168.83099365234375,-149.44500732421875 C168.83099365234375,-149.44500732421875 163.8419952392578,150.4600067138672 163.8419952392578,150.4600067138672 C163.8419952392578,150.4600067138672 30.336999893188477,32.64799880981445 30.336999893188477,32.64799880981445 C30.336999893188477,32.64799880981445 28.077999114990234,34.83700180053711 28.077999114990234,34.83700180053711 C28.077999114990234,34.83700180053711 174.85400390625,174.76600646972656 174.85400390625,174.76600646972656 C174.85400390625,174.76600646972656 174.85400390625,-174.5279998779297 174.85400390625,-174.5279998779297 C174.85400390625,-174.5279998779297 -170.6280059814453,166.0070037841797 -170.6280059814453,166.0070037841797z"></path></g></g><g transform="matrix(0.6756399869918823,0,0,0.6756399869918823,502.75799560546875,156.0260009765625)" opacity="1" style="display: block;"><g opacity="1" transform="matrix(1,0,0,1,0,0)"><path fill="rgb(251,251,248)" fill-opacity="1" d=" M-53.79199981689453,110.60900115966797 C-53.79199981689453,110.60900115966797 -53.79199981689453,4.947999954223633 -53.79199981689453,4.947999954223633 C-53.79199981689453,4.947999954223633 50.119998931884766,110.60900115966797 50.119998931884766,110.60900115966797 C50.119998931884766,110.60900115966797 77.41500091552734,110.60900115966797 77.41500091552734,110.60900115966797 C77.41500091552734,110.60900115966797 -39.744998931884766,-6.86299991607666 -39.744998931884766,-6.86299991607666 C-39.744998931884766,-6.86299991607666 58.42100143432617,-110.60900115966797 58.42100143432617,-110.60900115966797 C58.42100143432617,-110.60900115966797 48.525001525878906,-110.60900115966797 48.525001525878906,-110.60900115966797 C48.525001525878906,-110.60900115966797 -53.79199981689453,-2.553999900817871 -53.79199981689453,-2.553999900817871 C-53.79199981689453,-2.553999900817871 -53.79199981689453,-110.60900115966797 -53.79199981689453,-110.60900115966797 C-53.79199981689453,-110.60900115966797 -77.41500091552734,-110.60900115966797 -77.41500091552734,-110.60900115966797 C-77.41500091552734,-110.60900115966797 -77.41500091552734,110.60900115966797 -77.41500091552734,110.60900115966797 C-77.41500091552734,110.60900115966797 -53.79199981689453,110.60900115966797 -53.79199981689453,110.60900115966797z"></path></g></g><g transform="matrix(0.6756399869918823,0,0,0.6756399869918823,674.427978515625,-102.96499633789062)" opacity="1" style="display: block;"><g opacity="1" transform="matrix(1,0,0,1,0,0)"><path fill="rgb(251,251,248)" fill-opacity="1" d=" M-13.467000007629395,266.6520080566406 C-81.94400024414062,266.6520080566406 -135.89500427246094,318.20599365234375 -135.89500427246094,383.1669921875 C-135.89500427246094,449.88299560546875 -83.54000091552734,500 -13.786999702453613,500 C54.051998138427734,500 107.68399810791016,449.0849914550781 107.68399810791016,384.1239929199219 C107.68399810791016,317.8869934082031 54.849998474121094,266.6520080566406 -13.467000007629395,266.6520080566406z M-11.711999893188477,493.1369934082031 C-69.65299987792969,493.1369934082031 -108.44100189208984,449.2449951171875 -108.44100189208984,383.1669921875 C-108.44100189208984,319.16400146484375 -69.81300354003906,273.5150146484375 -15.383000373840332,273.5150146484375 C41.92100143432617,273.5150146484375 80.22899627685547,317.8869934082031 80.22899627685547,384.1239929199219 C80.22899627685547,447.8080139160156 41.92100143432617,493.1369934082031 -11.711999893188477,493.1369934082031z"></path></g></g><g transform="matrix(0.6756399869918823,0,0,0.6756399869918823,674.427978515625,-102.96499633789062)" opacity="1" style="display: block;"><g opacity="1" transform="matrix(1,0,0,1,0,0)"><path fill="rgb(251,251,248)" fill-opacity="1" d=" M248.7469940185547,271.4410095214844 C248.7469940185547,271.4410095214844 242.2030029296875,271.4410095214844 242.2030029296875,271.4410095214844 C242.2030029296875,271.4410095214844 162.23300170898438,493.93499755859375 162.23300170898438,493.93499755859375 C162.23300170898438,493.93499755859375 169.25599670410156,493.93499755859375 169.25599670410156,493.93499755859375 C169.25599670410156,493.93499755859375 195.4340057373047,419.7170104980469 195.4340057373047,419.7170104980469 C195.4340057373047,419.7170104980469 279.07501220703125,419.7170104980469 279.07501220703125,419.7170104980469 C279.07501220703125,419.7170104980469 305.8909912109375,493.93499755859375 305.8909912109375,493.93499755859375 C305.8909912109375,493.93499755859375 330.7909851074219,493.93499755859375 330.7909851074219,493.93499755859375 C330.7909851074219,493.93499755859375 248.7469940185547,271.4410095214844 248.7469940185547,271.4410095214844z M197.66900634765625,413.01300048828125 C197.66900634765625,413.01300048828125 236.61599731445312,304.32000732421875 236.61599731445312,304.32000732421875 C236.61599731445312,304.32000732421875 276.67999267578125,413.01300048828125 276.67999267578125,413.01300048828125 C276.67999267578125,413.01300048828125 197.66900634765625,413.01300048828125 197.66900634765625,413.01300048828125z"></path></g></g></g></svg>