<svg width="480" height="540" viewBox="0 0 480 540" fill="none" xmlns="http://www.w3.org/2000/svg">
<path d="M85 76H396C405.389 76 413 83.6112 413 93V447C413 456.389 405.389 464 396 464H85C75.6111 464 68 456.389 68 447V93C68 83.6112 75.6111 76 85 76Z" fill="#F1F5F7"/>
<path fill-rule="evenodd" clip-rule="evenodd" d="M318.732 151C317.962 149.667 316.038 149.667 315.268 151L306.608 166L129 166C123.477 166 119 170.477 119 176V367C119 372.523 123.477 377 129 377H350C355.523 377 360 372.523 360 367V176C360 170.477 355.523 166 350 166L327.392 166L318.732 151Z" fill="white"/>
<circle cx="317" cy="131" r="16" fill="#1A89FA"/>
<mask id="mask0_110_645" style="mask-type:luminance" maskUnits="userSpaceOnUse" x="307" y="119" width="20" height="23">
<path d="M327 119.491H307.43V141.856H327V119.491Z" fill="white"/>
</mask>
<g mask="url(#mask0_110_645)">
<path d="M315.004 139.104C315.091 139.069 315.183 139.053 315.276 139.056C315.369 139.059 315.461 139.081 315.544 139.122C315.628 139.162 315.703 139.219 315.763 139.29C315.824 139.361 315.869 139.443 315.896 139.532C315.997 139.81 316.182 140.049 316.426 140.216C316.669 140.383 316.959 140.469 317.254 140.463C317.537 140.457 317.811 140.364 318.04 140.198C318.268 140.031 318.441 139.799 318.534 139.532C318.561 139.443 318.606 139.361 318.667 139.29C318.727 139.219 318.802 139.162 318.886 139.122C318.97 139.081 319.061 139.059 319.154 139.056C319.247 139.053 319.34 139.069 319.426 139.104C319.6 139.166 319.743 139.295 319.823 139.462C319.903 139.629 319.914 139.821 319.854 139.996C319.661 140.541 319.304 141.013 318.831 141.347C318.359 141.681 317.794 141.861 317.216 141.861C316.637 141.861 316.072 141.681 315.6 141.347C315.127 141.013 314.77 140.541 314.577 139.996C314.517 139.821 314.528 139.629 314.608 139.462C314.688 139.295 314.83 139.167 315.004 139.104Z" fill="white"/>
<path d="M307.43 135.728C307.43 135.982 307.48 136.234 307.577 136.469C307.674 136.703 307.817 136.917 307.997 137.097C308.176 137.276 308.39 137.419 308.625 137.516C308.859 137.613 309.111 137.663 309.365 137.663H325.065C325.319 137.663 325.571 137.613 325.806 137.515C326.04 137.418 326.254 137.276 326.433 137.096C326.613 136.916 326.755 136.703 326.852 136.468C326.95 136.233 326.999 135.982 326.999 135.728C327.003 135.473 326.954 135.221 326.857 134.986C326.759 134.751 326.615 134.538 326.432 134.361L326.313 134.243C324.963 132.891 324.206 131.06 324.205 129.15V127.879C324.203 126.147 323.559 124.477 322.397 123.193C321.234 121.909 319.637 121.102 317.914 120.928L317.954 120.191C317.947 120.007 317.871 119.833 317.741 119.704C317.612 119.574 317.438 119.498 317.255 119.491C317.16 119.488 317.066 119.503 316.977 119.536C316.888 119.57 316.807 119.62 316.738 119.685C316.67 119.751 316.615 119.829 316.577 119.916C316.539 120.002 316.518 120.096 316.517 120.191V120.928C314.793 121.102 313.195 121.91 312.033 123.195C310.871 124.479 310.227 126.15 310.226 127.883V129.153C310.224 131.062 309.465 132.892 308.116 134.243L307.998 134.361C307.816 134.538 307.671 134.751 307.573 134.986C307.476 135.221 307.427 135.473 307.43 135.728Z" fill="white"/>
</g>
<path d="M134.98 188V181H135.95L140.23 186.73L140.07 186.82C140.043 186.653 140.02 186.473 140 186.28C139.98 186.08 139.96 185.87 139.94 185.65C139.927 185.423 139.913 185.187 139.9 184.94C139.893 184.687 139.887 184.423 139.88 184.15C139.873 183.877 139.87 183.593 139.87 183.3V181H140.95V188H139.96L135.75 182.48L135.86 182.34C135.893 182.747 135.92 183.093 135.94 183.38C135.967 183.66 135.987 183.9 136 184.1C136.02 184.293 136.033 184.453 136.04 184.58C136.047 184.7 136.05 184.8 136.05 184.88C136.057 184.96 136.06 185.03 136.06 185.09V188H134.98ZM145.01 188.1C144.496 188.1 144.036 187.983 143.63 187.75C143.23 187.51 142.913 187.187 142.68 186.78C142.446 186.367 142.33 185.897 142.33 185.37C142.33 184.843 142.446 184.377 142.68 183.97C142.913 183.557 143.23 183.233 143.63 183C144.036 182.76 144.496 182.64 145.01 182.64C145.516 182.64 145.97 182.76 146.37 183C146.776 183.233 147.096 183.557 147.33 183.97C147.563 184.377 147.68 184.843 147.68 185.37C147.68 185.897 147.563 186.367 147.33 186.78C147.096 187.187 146.776 187.51 146.37 187.75C145.97 187.983 145.516 188.1 145.01 188.1ZM145.01 187.16C145.323 187.16 145.603 187.083 145.85 186.93C146.096 186.77 146.29 186.557 146.43 186.29C146.57 186.017 146.636 185.71 146.63 185.37C146.636 185.023 146.57 184.717 146.43 184.45C146.29 184.177 146.096 183.963 145.85 183.81C145.603 183.657 145.323 183.58 145.01 183.58C144.696 183.58 144.413 183.66 144.16 183.82C143.913 183.973 143.72 184.187 143.58 184.46C143.44 184.727 143.373 185.03 143.38 185.37C143.373 185.71 143.44 186.017 143.58 186.29C143.72 186.557 143.913 186.77 144.16 186.93C144.413 187.083 144.696 187.16 145.01 187.16ZM149.452 188V181.41H150.482V188H149.452ZM148.362 183.75V182.75H151.702V183.75H148.362ZM152.81 188V182.75H153.84V188H152.81ZM153.31 181.59C153.09 181.59 152.92 181.533 152.8 181.42C152.68 181.307 152.62 181.147 152.62 180.94C152.62 180.747 152.68 180.59 152.8 180.47C152.927 180.35 153.097 180.29 153.31 180.29C153.53 180.29 153.7 180.347 153.82 180.46C153.94 180.573 154 180.733 154 180.94C154 181.133 153.937 181.29 153.81 181.41C153.69 181.53 153.523 181.59 153.31 181.59ZM155.993 188V182.16C155.993 181.86 156.06 181.593 156.193 181.36C156.326 181.127 156.51 180.943 156.743 180.81C156.976 180.677 157.246 180.61 157.553 180.61C157.766 180.61 157.966 180.65 158.153 180.73C158.34 180.81 158.49 180.917 158.603 181.05L158.253 181.84C158.166 181.76 158.07 181.697 157.963 181.65C157.863 181.597 157.766 181.57 157.673 181.57C157.533 181.57 157.413 181.593 157.313 181.64C157.22 181.68 157.15 181.747 157.103 181.84C157.056 181.927 157.033 182.033 157.033 182.16V188H156.513C156.426 188 156.34 188 156.253 188C156.166 188 156.08 188 155.993 188ZM155.153 183.79V182.84H158.273V183.79H155.153ZM159.523 188V182.75H160.553V188H159.523ZM160.023 181.59C159.803 181.59 159.633 181.533 159.513 181.42C159.393 181.307 159.333 181.147 159.333 180.94C159.333 180.747 159.393 180.59 159.513 180.47C159.64 180.35 159.81 180.29 160.023 180.29C160.243 180.29 160.413 180.347 160.533 180.46C160.653 180.573 160.713 180.733 160.713 180.94C160.713 181.133 160.65 181.29 160.523 181.41C160.403 181.53 160.236 181.59 160.023 181.59ZM164.362 188.1C163.875 188.1 163.439 187.98 163.052 187.74C162.672 187.5 162.369 187.173 162.142 186.76C161.922 186.347 161.812 185.883 161.812 185.37C161.812 184.857 161.922 184.393 162.142 183.98C162.369 183.567 162.672 183.24 163.052 183C163.439 182.76 163.875 182.64 164.362 182.64C164.829 182.64 165.252 182.737 165.632 182.93C166.019 183.117 166.312 183.373 166.512 183.7L165.942 184.4C165.835 184.247 165.699 184.107 165.532 183.98C165.365 183.853 165.189 183.753 165.002 183.68C164.815 183.607 164.635 183.57 164.462 183.57C164.142 183.57 163.855 183.65 163.602 183.81C163.355 183.963 163.159 184.177 163.012 184.45C162.865 184.723 162.792 185.03 162.792 185.37C162.792 185.71 162.869 186.017 163.022 186.29C163.175 186.557 163.379 186.77 163.632 186.93C163.885 187.09 164.165 187.17 164.472 187.17C164.652 187.17 164.825 187.14 164.992 187.08C165.165 187.02 165.332 186.93 165.492 186.81C165.652 186.69 165.802 186.543 165.942 186.37L166.512 187.07C166.299 187.37 165.992 187.617 165.592 187.81C165.199 188.003 164.789 188.1 164.362 188.1ZM169.504 188.1C169.07 188.1 168.674 187.98 168.314 187.74C167.96 187.5 167.677 187.173 167.464 186.76C167.25 186.347 167.144 185.88 167.144 185.36C167.144 184.833 167.25 184.367 167.464 183.96C167.684 183.547 167.977 183.223 168.344 182.99C168.717 182.757 169.134 182.64 169.594 182.64C169.867 182.64 170.117 182.68 170.344 182.76C170.57 182.84 170.767 182.953 170.934 183.1C171.107 183.24 171.247 183.403 171.354 183.59C171.467 183.777 171.537 183.977 171.564 184.19L171.334 184.11V182.75H172.374V188H171.334V186.75L171.574 186.68C171.534 186.86 171.45 187.037 171.324 187.21C171.204 187.377 171.047 187.527 170.854 187.66C170.667 187.793 170.457 187.9 170.224 187.98C169.997 188.06 169.757 188.1 169.504 188.1ZM169.774 187.15C170.087 187.15 170.364 187.073 170.604 186.92C170.844 186.767 171.03 186.557 171.164 186.29C171.304 186.017 171.374 185.707 171.374 185.36C171.374 185.02 171.304 184.717 171.164 184.45C171.03 184.183 170.844 183.973 170.604 183.82C170.364 183.667 170.087 183.59 169.774 183.59C169.467 183.59 169.194 183.667 168.954 183.82C168.72 183.973 168.534 184.183 168.394 184.45C168.26 184.717 168.194 185.02 168.194 185.36C168.194 185.707 168.26 186.017 168.394 186.29C168.534 186.557 168.72 186.767 168.954 186.92C169.194 187.073 169.467 187.15 169.774 187.15ZM174.462 188V181.41H175.492V188H174.462ZM173.372 183.75V182.75H176.712V183.75H173.372ZM177.82 188V182.75H178.85V188H177.82ZM178.32 181.59C178.1 181.59 177.93 181.533 177.81 181.42C177.69 181.307 177.63 181.147 177.63 180.94C177.63 180.747 177.69 180.59 177.81 180.47C177.936 180.35 178.106 180.29 178.32 180.29C178.54 180.29 178.71 180.347 178.83 180.46C178.95 180.573 179.01 180.733 179.01 180.94C179.01 181.133 178.946 181.29 178.82 181.41C178.7 181.53 178.533 181.59 178.32 181.59ZM182.793 188.1C182.28 188.1 181.82 187.983 181.413 187.75C181.013 187.51 180.696 187.187 180.463 186.78C180.23 186.367 180.113 185.897 180.113 185.37C180.113 184.843 180.23 184.377 180.463 183.97C180.696 183.557 181.013 183.233 181.413 183C181.82 182.76 182.28 182.64 182.793 182.64C183.3 182.64 183.753 182.76 184.153 183C184.56 183.233 184.88 183.557 185.113 183.97C185.346 184.377 185.463 184.843 185.463 185.37C185.463 185.897 185.346 186.367 185.113 186.78C184.88 187.187 184.56 187.51 184.153 187.75C183.753 187.983 183.3 188.1 182.793 188.1ZM182.793 187.16C183.106 187.16 183.386 187.083 183.633 186.93C183.88 186.77 184.073 186.557 184.213 186.29C184.353 186.017 184.42 185.71 184.413 185.37C184.42 185.023 184.353 184.717 184.213 184.45C184.073 184.177 183.88 183.963 183.633 183.81C183.386 183.657 183.106 183.58 182.793 183.58C182.48 183.58 182.196 183.66 181.943 183.82C181.696 183.973 181.503 184.187 181.363 184.46C181.223 184.727 181.156 185.03 181.163 185.37C181.156 185.71 181.223 186.017 181.363 186.29C181.503 186.557 181.696 186.77 181.943 186.93C182.196 187.083 182.48 187.16 182.793 187.16ZM186.585 188V182.75H187.615V183.83L187.435 183.95C187.502 183.717 187.632 183.503 187.825 183.31C188.019 183.11 188.249 182.95 188.515 182.83C188.782 182.703 189.055 182.64 189.335 182.64C189.735 182.64 190.069 182.72 190.335 182.88C190.602 183.033 190.802 183.27 190.935 183.59C191.069 183.91 191.135 184.313 191.135 184.8V188H190.105V184.87C190.105 184.57 190.065 184.323 189.985 184.13C189.905 183.93 189.782 183.787 189.615 183.7C189.449 183.607 189.242 183.567 188.995 183.58C188.795 183.58 188.612 183.613 188.445 183.68C188.279 183.74 188.132 183.827 188.005 183.94C187.885 184.053 187.789 184.187 187.715 184.34C187.649 184.487 187.615 184.647 187.615 184.82V188H187.105C187.019 188 186.932 188 186.845 188C186.759 188 186.672 188 186.585 188ZM194.283 188.1C193.843 188.1 193.446 188.023 193.093 187.87C192.739 187.717 192.446 187.49 192.213 187.19L192.913 186.59C193.113 186.823 193.329 186.993 193.563 187.1C193.803 187.2 194.073 187.25 194.373 187.25C194.493 187.25 194.603 187.237 194.703 187.21C194.809 187.177 194.899 187.13 194.973 187.07C195.053 187.01 195.113 186.94 195.153 186.86C195.193 186.773 195.213 186.68 195.213 186.58C195.213 186.407 195.149 186.267 195.023 186.16C194.956 186.113 194.849 186.063 194.703 186.01C194.563 185.95 194.379 185.89 194.153 185.83C193.766 185.73 193.449 185.617 193.203 185.49C192.956 185.363 192.766 185.22 192.633 185.06C192.533 184.933 192.459 184.797 192.413 184.65C192.366 184.497 192.343 184.33 192.343 184.15C192.343 183.93 192.389 183.73 192.483 183.55C192.583 183.363 192.716 183.203 192.883 183.07C193.056 182.93 193.256 182.823 193.483 182.75C193.716 182.677 193.963 182.64 194.223 182.64C194.469 182.64 194.713 182.673 194.953 182.74C195.199 182.807 195.426 182.903 195.633 183.03C195.839 183.157 196.013 183.307 196.153 183.48L195.563 184.13C195.436 184.003 195.296 183.893 195.143 183.8C194.996 183.7 194.846 183.623 194.693 183.57C194.539 183.517 194.399 183.49 194.273 183.49C194.133 183.49 194.006 183.503 193.893 183.53C193.779 183.557 193.683 183.597 193.603 183.65C193.529 183.703 193.473 183.77 193.433 183.85C193.393 183.93 193.373 184.02 193.373 184.12C193.379 184.207 193.399 184.29 193.433 184.37C193.473 184.443 193.526 184.507 193.593 184.56C193.666 184.613 193.776 184.67 193.923 184.73C194.069 184.79 194.256 184.847 194.483 184.9C194.816 184.987 195.089 185.083 195.303 185.19C195.523 185.29 195.696 185.407 195.823 185.54C195.956 185.667 196.049 185.813 196.103 185.98C196.156 186.147 196.183 186.333 196.183 186.54C196.183 186.84 196.096 187.11 195.923 187.35C195.756 187.583 195.529 187.767 195.243 187.9C194.956 188.033 194.636 188.1 194.283 188.1Z" fill="#3B3B3B"/>
<rect x="135" y="213" width="210" height="45" rx="3" fill="#1A89FA" fill-opacity="0.16"/>
<path d="M145.864 230V228.8H147.22V222.8H145.864V221.6H149.872V222.8H148.516V228.8H149.872V230H145.864ZM152.374 230V222.092H153.61V230H152.374ZM151.066 224.9V223.7H155.074V224.9H151.066ZM159.081 230.12C158.433 230.12 157.857 229.984 157.353 229.712C156.857 229.432 156.465 229.052 156.177 228.572C155.897 228.092 155.757 227.54 155.757 226.916C155.757 226.42 155.837 225.968 155.997 225.56C156.157 225.152 156.377 224.8 156.657 224.504C156.945 224.2 157.285 223.968 157.677 223.808C158.077 223.64 158.509 223.556 158.973 223.556C159.381 223.556 159.761 223.636 160.113 223.796C160.465 223.948 160.769 224.16 161.025 224.432C161.289 224.704 161.489 225.028 161.625 225.404C161.769 225.772 161.837 226.176 161.829 226.616L161.817 227.144H156.669L156.393 226.16H160.749L160.569 226.364V226.076C160.545 225.812 160.457 225.576 160.305 225.368C160.153 225.16 159.961 224.996 159.729 224.876C159.497 224.756 159.245 224.696 158.973 224.696C158.541 224.696 158.177 224.78 157.881 224.948C157.585 225.108 157.361 225.348 157.209 225.668C157.057 225.98 156.981 226.368 156.981 226.832C156.981 227.272 157.073 227.656 157.257 227.984C157.441 228.304 157.701 228.552 158.037 228.728C158.373 228.904 158.761 228.992 159.201 228.992C159.513 228.992 159.801 228.94 160.065 228.836C160.337 228.732 160.629 228.544 160.941 228.272L161.565 229.148C161.373 229.34 161.137 229.508 160.857 229.652C160.585 229.796 160.293 229.912 159.981 230C159.677 230.08 159.377 230.12 159.081 230.12ZM163.149 230V223.7H164.397V225.044L164.169 225.188C164.233 224.98 164.333 224.78 164.469 224.588C164.613 224.396 164.785 224.228 164.985 224.084C165.193 223.932 165.413 223.812 165.645 223.724C165.885 223.636 166.129 223.592 166.377 223.592C166.737 223.592 167.053 223.652 167.325 223.772C167.597 223.892 167.821 224.072 167.997 224.312C168.173 224.552 168.301 224.852 168.381 225.212L168.189 225.164L168.273 224.96C168.361 224.776 168.481 224.604 168.633 224.444C168.793 224.276 168.973 224.128 169.173 224C169.373 223.872 169.585 223.772 169.809 223.7C170.033 223.628 170.253 223.592 170.469 223.592C170.941 223.592 171.329 223.688 171.633 223.88C171.945 224.072 172.177 224.364 172.329 224.756C172.489 225.148 172.569 225.636 172.569 226.22V230H171.321V226.292C171.321 225.932 171.273 225.64 171.177 225.416C171.089 225.184 170.953 225.012 170.769 224.9C170.585 224.788 170.349 224.732 170.061 224.732C169.837 224.732 169.625 224.772 169.425 224.852C169.233 224.924 169.065 225.028 168.921 225.164C168.777 225.3 168.665 225.46 168.585 225.644C168.505 225.82 168.465 226.016 168.465 226.232V230H167.217V226.268C167.217 225.94 167.169 225.664 167.073 225.44C166.977 225.208 166.837 225.032 166.653 224.912C166.469 224.792 166.245 224.732 165.981 224.732C165.757 224.732 165.549 224.772 165.357 224.852C165.165 224.924 164.997 225.028 164.853 225.164C164.709 225.292 164.597 225.448 164.517 225.632C164.437 225.808 164.397 226 164.397 226.208V230H163.149ZM181.127 230L182.567 221.6H183.647L182.207 230H181.127ZM177.095 227.924V226.928H184.043V227.924H177.095ZM177.935 230L179.375 221.6H180.455L179.015 230H177.935ZM177.551 224.564V223.568H184.487V224.564H177.551ZM187.867 230.12C187.275 230.12 186.759 229.984 186.319 229.712C185.887 229.44 185.479 228.984 185.095 228.344L186.103 227.708C186.303 228.004 186.499 228.248 186.691 228.44C186.891 228.624 187.095 228.76 187.303 228.848C187.511 228.936 187.731 228.98 187.963 228.98C188.243 228.98 188.503 228.912 188.743 228.776C188.983 228.632 189.175 228.436 189.319 228.188C189.463 227.94 189.535 227.66 189.535 227.348C189.535 227.036 189.479 226.772 189.367 226.556C189.255 226.332 189.091 226.164 188.875 226.052C188.659 225.932 188.403 225.872 188.107 225.872C187.971 225.872 187.827 225.888 187.675 225.92C187.531 225.944 187.375 225.984 187.207 226.04C187.039 226.088 186.855 226.152 186.655 226.232L186.295 225.284L188.887 222.428L189.139 222.8H185.563V221.6H190.375L190.615 222.08L187.867 225.128L187.567 224.816C187.631 224.784 187.735 224.756 187.879 224.732C188.031 224.7 188.155 224.684 188.251 224.684C188.603 224.684 188.931 224.752 189.235 224.888C189.547 225.016 189.815 225.2 190.039 225.44C190.271 225.672 190.451 225.948 190.579 226.268C190.715 226.58 190.783 226.916 190.783 227.276C190.783 227.82 190.651 228.308 190.387 228.74C190.131 229.164 189.783 229.5 189.343 229.748C188.903 229.996 188.411 230.12 187.867 230.12ZM193.811 229.412V222.596L194.255 222.932L192.599 223.808L192.251 222.68L194.495 221.48H195.119V229.412H193.811ZM192.479 230V228.752H196.487V230H192.479ZM198.323 230L197.927 229.016L200.495 226.124C200.631 225.98 200.771 225.816 200.915 225.632C201.067 225.44 201.211 225.244 201.347 225.044C201.483 224.844 201.591 224.648 201.671 224.456C201.759 224.256 201.803 224.068 201.803 223.892C201.803 223.636 201.751 223.42 201.647 223.244C201.551 223.06 201.407 222.92 201.215 222.824C201.031 222.728 200.807 222.68 200.543 222.68C200.311 222.68 200.083 222.748 199.859 222.884C199.635 223.02 199.431 223.212 199.247 223.46C199.063 223.708 198.919 223.996 198.815 224.324L197.819 223.7C197.955 223.236 198.159 222.84 198.431 222.512C198.711 222.176 199.043 221.92 199.427 221.744C199.819 221.568 200.243 221.48 200.699 221.48C201.171 221.48 201.591 221.58 201.959 221.78C202.327 221.972 202.615 222.244 202.823 222.596C203.031 222.94 203.135 223.34 203.135 223.796C203.135 223.98 203.115 224.168 203.075 224.36C203.035 224.552 202.971 224.752 202.883 224.96C202.795 225.16 202.683 225.372 202.547 225.596C202.411 225.812 202.247 226.04 202.055 226.28C201.871 226.52 201.659 226.772 201.419 227.036L199.511 229.112L199.271 228.752H203.399V230H198.323ZM206.793 230.12C206.201 230.12 205.685 229.984 205.245 229.712C204.813 229.44 204.405 228.984 204.021 228.344L205.029 227.708C205.229 228.004 205.425 228.248 205.617 228.44C205.817 228.624 206.021 228.76 206.229 228.848C206.437 228.936 206.657 228.98 206.889 228.98C207.169 228.98 207.429 228.912 207.669 228.776C207.909 228.632 208.101 228.436 208.245 228.188C208.389 227.94 208.461 227.66 208.461 227.348C208.461 227.036 208.405 226.772 208.293 226.556C208.181 226.332 208.017 226.164 207.801 226.052C207.585 225.932 207.329 225.872 207.033 225.872C206.897 225.872 206.753 225.888 206.601 225.92C206.457 225.944 206.301 225.984 206.133 226.04C205.965 226.088 205.781 226.152 205.581 226.232L205.221 225.284L207.813 222.428L208.065 222.8H204.489V221.6H209.301L209.541 222.08L206.793 225.128L206.493 224.816C206.557 224.784 206.661 224.756 206.805 224.732C206.957 224.7 207.081 224.684 207.177 224.684C207.529 224.684 207.857 224.752 208.161 224.888C208.473 225.016 208.741 225.2 208.965 225.44C209.197 225.672 209.377 225.948 209.505 226.268C209.641 226.58 209.709 226.916 209.709 227.276C209.709 227.82 209.577 228.308 209.313 228.74C209.057 229.164 208.709 229.5 208.269 229.748C207.829 229.996 207.337 230.12 206.793 230.12ZM214.357 230V223.232L214.657 223.304L211.897 226.676L211.849 226.532H217.069V227.72H211.045L210.493 226.64L214.609 221.6H215.605V230H214.357ZM220.178 229.412V222.596L220.622 222.932L218.966 223.808L218.618 222.68L220.862 221.48H221.486V229.412H220.178ZM218.846 230V228.752H222.854V230H218.846Z" fill="#3B3B3B"/>
<path d="M148.14 247.1C147.76 247.1 147.407 247.05 147.08 246.95C146.76 246.85 146.467 246.7 146.2 246.5C145.94 246.293 145.707 246.04 145.5 245.74L146.24 244.89C146.567 245.357 146.88 245.68 147.18 245.86C147.48 246.04 147.837 246.13 148.25 246.13C148.503 246.13 148.733 246.09 148.94 246.01C149.147 245.93 149.31 245.82 149.43 245.68C149.55 245.54 149.61 245.38 149.61 245.2C149.61 245.08 149.59 244.967 149.55 244.86C149.51 244.753 149.447 244.657 149.36 244.57C149.28 244.483 149.173 244.403 149.04 244.33C148.913 244.257 148.763 244.193 148.59 244.14C148.417 244.08 148.217 244.03 147.99 243.99C147.63 243.917 147.317 243.82 147.05 243.7C146.783 243.58 146.56 243.43 146.38 243.25C146.2 243.07 146.067 242.867 145.98 242.64C145.893 242.407 145.85 242.147 145.85 241.86C145.85 241.58 145.91 241.32 146.03 241.08C146.157 240.84 146.327 240.633 146.54 240.46C146.76 240.28 147.017 240.143 147.31 240.05C147.603 239.95 147.92 239.9 148.26 239.9C148.62 239.9 148.95 239.947 149.25 240.04C149.55 240.133 149.817 240.273 150.05 240.46C150.283 240.64 150.477 240.863 150.63 241.13L149.87 241.88C149.737 241.66 149.587 241.477 149.42 241.33C149.253 241.177 149.07 241.063 148.87 240.99C148.67 240.91 148.457 240.87 148.23 240.87C147.97 240.87 147.743 240.91 147.55 240.99C147.357 241.07 147.203 241.183 147.09 241.33C146.983 241.47 146.93 241.637 146.93 241.83C146.93 241.97 146.957 242.1 147.01 242.22C147.063 242.333 147.143 242.437 147.25 242.53C147.363 242.617 147.513 242.697 147.7 242.77C147.887 242.837 148.11 242.897 148.37 242.95C148.737 243.03 149.063 243.133 149.35 243.26C149.637 243.38 149.88 243.523 150.08 243.69C150.28 243.857 150.43 244.043 150.53 244.25C150.637 244.457 150.69 244.68 150.69 244.92C150.69 245.367 150.587 245.753 150.38 246.08C150.173 246.407 149.88 246.66 149.5 246.84C149.12 247.013 148.667 247.1 148.14 247.1ZM152.61 247V240.41H153.64V247H152.61ZM151.52 242.75V241.75H154.86V242.75H151.52ZM158.109 247.1C157.596 247.1 157.136 246.983 156.729 246.75C156.329 246.51 156.013 246.187 155.779 245.78C155.546 245.367 155.429 244.897 155.429 244.37C155.429 243.843 155.546 243.377 155.779 242.97C156.013 242.557 156.329 242.233 156.729 242C157.136 241.76 157.596 241.64 158.109 241.64C158.616 241.64 159.069 241.76 159.469 242C159.876 242.233 160.196 242.557 160.429 242.97C160.663 243.377 160.779 243.843 160.779 244.37C160.779 244.897 160.663 245.367 160.429 245.78C160.196 246.187 159.876 246.51 159.469 246.75C159.069 246.983 158.616 247.1 158.109 247.1ZM158.109 246.16C158.423 246.16 158.703 246.083 158.949 245.93C159.196 245.77 159.389 245.557 159.529 245.29C159.669 245.017 159.736 244.71 159.729 244.37C159.736 244.023 159.669 243.717 159.529 243.45C159.389 243.177 159.196 242.963 158.949 242.81C158.703 242.657 158.423 242.58 158.109 242.58C157.796 242.58 157.513 242.66 157.259 242.82C157.013 242.973 156.819 243.187 156.679 243.46C156.539 243.727 156.473 244.03 156.479 244.37C156.473 244.71 156.539 245.017 156.679 245.29C156.819 245.557 157.013 245.77 157.259 245.93C157.513 246.083 157.796 246.16 158.109 246.16ZM164.132 247.1C163.645 247.1 163.208 246.98 162.822 246.74C162.442 246.5 162.138 246.173 161.912 245.76C161.692 245.347 161.582 244.883 161.582 244.37C161.582 243.857 161.692 243.393 161.912 242.98C162.138 242.567 162.442 242.24 162.822 242C163.208 241.76 163.645 241.64 164.132 241.64C164.598 241.64 165.022 241.737 165.402 241.93C165.788 242.117 166.082 242.373 166.282 242.7L165.712 243.4C165.605 243.247 165.468 243.107 165.302 242.98C165.135 242.853 164.958 242.753 164.772 242.68C164.585 242.607 164.405 242.57 164.232 242.57C163.912 242.57 163.625 242.65 163.372 242.81C163.125 242.963 162.928 243.177 162.782 243.45C162.635 243.723 162.562 244.03 162.562 244.37C162.562 244.71 162.638 245.017 162.792 245.29C162.945 245.557 163.148 245.77 163.402 245.93C163.655 246.09 163.935 246.17 164.242 246.17C164.422 246.17 164.595 246.14 164.762 246.08C164.935 246.02 165.102 245.93 165.262 245.81C165.422 245.69 165.572 245.543 165.712 245.37L166.282 246.07C166.068 246.37 165.762 246.617 165.362 246.81C164.968 247.003 164.558 247.1 164.132 247.1ZM168.193 245.36L168.143 244.24L170.653 241.75H172.043L168.193 245.36ZM167.253 247V239.6H168.283V247H167.253ZM170.793 247L168.813 244.69L169.543 244.02L172.113 247H170.793ZM175.74 247V239.6H176.77V242.83L176.59 242.95C176.656 242.717 176.786 242.503 176.98 242.31C177.173 242.11 177.403 241.95 177.67 241.83C177.936 241.703 178.21 241.64 178.49 241.64C178.89 241.64 179.223 241.72 179.49 241.88C179.756 242.033 179.956 242.27 180.09 242.59C180.223 242.91 180.29 243.313 180.29 243.8V247H179.26V243.87C179.26 243.57 179.22 243.323 179.14 243.13C179.06 242.93 178.936 242.787 178.77 242.7C178.603 242.607 178.396 242.567 178.15 242.58C177.95 242.58 177.766 242.613 177.6 242.68C177.433 242.74 177.286 242.827 177.16 242.94C177.04 243.053 176.943 243.187 176.87 243.34C176.803 243.487 176.77 243.647 176.77 243.82V247H176.26C176.173 247 176.086 247 176 247C175.913 247 175.826 247 175.74 247ZM183.707 247.1C183.273 247.1 182.877 246.98 182.517 246.74C182.163 246.5 181.88 246.173 181.667 245.76C181.453 245.347 181.347 244.88 181.347 244.36C181.347 243.833 181.453 243.367 181.667 242.96C181.887 242.547 182.18 242.223 182.547 241.99C182.92 241.757 183.337 241.64 183.797 241.64C184.07 241.64 184.32 241.68 184.547 241.76C184.773 241.84 184.97 241.953 185.137 242.1C185.31 242.24 185.45 242.403 185.557 242.59C185.67 242.777 185.74 242.977 185.767 243.19L185.537 243.11V241.75H186.577V247H185.537V245.75L185.777 245.68C185.737 245.86 185.653 246.037 185.527 246.21C185.407 246.377 185.25 246.527 185.057 246.66C184.87 246.793 184.66 246.9 184.427 246.98C184.2 247.06 183.96 247.1 183.707 247.1ZM183.977 246.15C184.29 246.15 184.567 246.073 184.807 245.92C185.047 245.767 185.233 245.557 185.367 245.29C185.507 245.017 185.577 244.707 185.577 244.36C185.577 244.02 185.507 243.717 185.367 243.45C185.233 243.183 185.047 242.973 184.807 242.82C184.567 242.667 184.29 242.59 183.977 242.59C183.67 242.59 183.397 242.667 183.157 242.82C182.923 242.973 182.737 243.183 182.597 243.45C182.463 243.717 182.397 244.02 182.397 244.36C182.397 244.707 182.463 245.017 182.597 245.29C182.737 245.557 182.923 245.767 183.157 245.92C183.397 246.073 183.67 246.15 183.977 246.15ZM189.765 247.1C189.325 247.1 188.928 247.023 188.575 246.87C188.222 246.717 187.928 246.49 187.695 246.19L188.395 245.59C188.595 245.823 188.812 245.993 189.045 246.1C189.285 246.2 189.555 246.25 189.855 246.25C189.975 246.25 190.085 246.237 190.185 246.21C190.292 246.177 190.382 246.13 190.455 246.07C190.535 246.01 190.595 245.94 190.635 245.86C190.675 245.773 190.695 245.68 190.695 245.58C190.695 245.407 190.632 245.267 190.505 245.16C190.438 245.113 190.332 245.063 190.185 245.01C190.045 244.95 189.862 244.89 189.635 244.83C189.248 244.73 188.932 244.617 188.685 244.49C188.438 244.363 188.248 244.22 188.115 244.06C188.015 243.933 187.942 243.797 187.895 243.65C187.848 243.497 187.825 243.33 187.825 243.15C187.825 242.93 187.872 242.73 187.965 242.55C188.065 242.363 188.198 242.203 188.365 242.07C188.538 241.93 188.738 241.823 188.965 241.75C189.198 241.677 189.445 241.64 189.705 241.64C189.952 241.64 190.195 241.673 190.435 241.74C190.682 241.807 190.908 241.903 191.115 242.03C191.322 242.157 191.495 242.307 191.635 242.48L191.045 243.13C190.918 243.003 190.778 242.893 190.625 242.8C190.478 242.7 190.328 242.623 190.175 242.57C190.022 242.517 189.882 242.49 189.755 242.49C189.615 242.49 189.488 242.503 189.375 242.53C189.262 242.557 189.165 242.597 189.085 242.65C189.012 242.703 188.955 242.77 188.915 242.85C188.875 242.93 188.855 243.02 188.855 243.12C188.862 243.207 188.882 243.29 188.915 243.37C188.955 243.443 189.008 243.507 189.075 243.56C189.148 243.613 189.258 243.67 189.405 243.73C189.552 243.79 189.738 243.847 189.965 243.9C190.298 243.987 190.572 244.083 190.785 244.19C191.005 244.29 191.178 244.407 191.305 244.54C191.438 244.667 191.532 244.813 191.585 244.98C191.638 245.147 191.665 245.333 191.665 245.54C191.665 245.84 191.578 246.11 191.405 246.35C191.238 246.583 191.012 246.767 190.725 246.9C190.438 247.033 190.118 247.1 189.765 247.1ZM198.363 247.1C198.136 247.1 197.909 247.063 197.683 246.99C197.463 246.917 197.259 246.82 197.073 246.7C196.893 246.573 196.739 246.437 196.613 246.29C196.493 246.137 196.413 245.983 196.373 245.83L196.633 245.69V246.97H195.603V239.6H196.633V242.95L196.473 242.86C196.506 242.707 196.579 242.56 196.693 242.42C196.806 242.273 196.949 242.143 197.123 242.03C197.303 241.91 197.496 241.817 197.703 241.75C197.909 241.677 198.119 241.64 198.333 241.64C198.806 241.64 199.226 241.757 199.593 241.99C199.959 242.223 200.249 242.547 200.463 242.96C200.676 243.367 200.783 243.833 200.783 244.36C200.783 244.887 200.676 245.357 200.463 245.77C200.256 246.183 199.969 246.51 199.603 246.75C199.236 246.983 198.823 247.1 198.363 247.1ZM198.193 246.16C198.499 246.16 198.773 246.083 199.013 245.93C199.253 245.77 199.443 245.557 199.583 245.29C199.723 245.017 199.793 244.707 199.793 244.36C199.793 244.02 199.723 243.717 199.583 243.45C199.449 243.177 199.263 242.963 199.023 242.81C198.783 242.657 198.506 242.58 198.193 242.58C197.879 242.58 197.603 242.657 197.363 242.81C197.123 242.963 196.933 243.177 196.793 243.45C196.653 243.717 196.583 244.02 196.583 244.36C196.583 244.707 196.653 245.017 196.793 245.29C196.933 245.557 197.123 245.77 197.363 245.93C197.603 246.083 197.879 246.16 198.193 246.16ZM204.352 247.1C203.812 247.1 203.332 246.987 202.912 246.76C202.498 246.527 202.172 246.21 201.932 245.81C201.698 245.41 201.582 244.95 201.582 244.43C201.582 244.017 201.648 243.64 201.782 243.3C201.915 242.96 202.098 242.667 202.332 242.42C202.572 242.167 202.855 241.973 203.182 241.84C203.515 241.7 203.875 241.63 204.262 241.63C204.602 241.63 204.918 241.697 205.212 241.83C205.505 241.957 205.758 242.133 205.972 242.36C206.192 242.587 206.358 242.857 206.472 243.17C206.592 243.477 206.648 243.813 206.642 244.18L206.632 244.62H202.342L202.112 243.8H205.742L205.592 243.97V243.73C205.572 243.51 205.498 243.313 205.372 243.14C205.245 242.967 205.085 242.83 204.892 242.73C204.698 242.63 204.488 242.58 204.262 242.58C203.902 242.58 203.598 242.65 203.352 242.79C203.105 242.923 202.918 243.123 202.792 243.39C202.665 243.65 202.602 243.973 202.602 244.36C202.602 244.727 202.678 245.047 202.832 245.32C202.985 245.587 203.202 245.793 203.482 245.94C203.762 246.087 204.085 246.16 204.452 246.16C204.712 246.16 204.952 246.117 205.172 246.03C205.398 245.943 205.642 245.787 205.902 245.56L206.422 246.29C206.262 246.45 206.065 246.59 205.832 246.71C205.605 246.83 205.362 246.927 205.102 247C204.848 247.067 204.598 247.1 204.352 247.1ZM210.211 247.1C209.671 247.1 209.191 246.987 208.771 246.76C208.358 246.527 208.031 246.21 207.791 245.81C207.558 245.41 207.441 244.95 207.441 244.43C207.441 244.017 207.508 243.64 207.641 243.3C207.774 242.96 207.958 242.667 208.191 242.42C208.431 242.167 208.714 241.973 209.041 241.84C209.374 241.7 209.734 241.63 210.121 241.63C210.461 241.63 210.778 241.697 211.071 241.83C211.364 241.957 211.618 242.133 211.831 242.36C212.051 242.587 212.218 242.857 212.331 243.17C212.451 243.477 212.508 243.813 212.501 244.18L212.491 244.62H208.201L207.971 243.8H211.601L211.451 243.97V243.73C211.431 243.51 211.358 243.313 211.231 243.14C211.104 242.967 210.944 242.83 210.751 242.73C210.558 242.63 210.348 242.58 210.121 242.58C209.761 242.58 209.458 242.65 209.211 242.79C208.964 242.923 208.778 243.123 208.651 243.39C208.524 243.65 208.461 243.973 208.461 244.36C208.461 244.727 208.538 245.047 208.691 245.32C208.844 245.587 209.061 245.793 209.341 245.94C209.621 246.087 209.944 246.16 210.311 246.16C210.571 246.16 210.811 246.117 211.031 246.03C211.258 245.943 211.501 245.787 211.761 245.56L212.281 246.29C212.121 246.45 211.924 246.59 211.691 246.71C211.464 246.83 211.221 246.927 210.961 247C210.708 247.067 210.458 247.1 210.211 247.1ZM213.62 247V241.75H214.65V242.83L214.47 242.95C214.537 242.717 214.667 242.503 214.86 242.31C215.054 242.11 215.284 241.95 215.55 241.83C215.817 241.703 216.09 241.64 216.37 241.64C216.77 241.64 217.104 241.72 217.37 241.88C217.637 242.033 217.837 242.27 217.97 242.59C218.104 242.91 218.17 243.313 218.17 243.8V247H217.14V243.87C217.14 243.57 217.1 243.323 217.02 243.13C216.94 242.93 216.817 242.787 216.65 242.7C216.484 242.607 216.277 242.567 216.03 242.58C215.83 242.58 215.647 242.613 215.48 242.68C215.314 242.74 215.167 242.827 215.04 242.94C214.92 243.053 214.824 243.187 214.75 243.34C214.684 243.487 214.65 243.647 214.65 243.82V247H214.14C214.054 247 213.967 247 213.88 247C213.794 247 213.707 247 213.62 247ZM225.35 247.06C224.81 247.06 224.327 246.943 223.9 246.71C223.474 246.47 223.137 246.143 222.89 245.73C222.65 245.31 222.53 244.837 222.53 244.31V239.99H223.61V244.22C223.61 244.56 223.69 244.867 223.85 245.14C224.01 245.407 224.22 245.62 224.48 245.78C224.747 245.94 225.037 246.02 225.35 246.02C225.684 246.02 225.984 245.94 226.25 245.78C226.524 245.62 226.74 245.407 226.9 245.14C227.06 244.867 227.14 244.56 227.14 244.22V239.99H228.17V244.31C228.17 244.837 228.047 245.31 227.8 245.73C227.56 246.143 227.227 246.47 226.8 246.71C226.374 246.943 225.89 247.06 225.35 247.06ZM229.773 249.2V241.75H230.813V242.95L230.653 242.86C230.693 242.66 230.806 242.47 230.993 242.29C231.179 242.103 231.406 241.953 231.673 241.84C231.946 241.72 232.226 241.66 232.513 241.66C232.986 241.66 233.406 241.777 233.773 242.01C234.139 242.243 234.429 242.563 234.643 242.97C234.856 243.377 234.963 243.843 234.963 244.37C234.963 244.89 234.856 245.357 234.643 245.77C234.436 246.177 234.149 246.5 233.783 246.74C233.416 246.973 233.003 247.09 232.543 247.09C232.236 247.09 231.939 247.03 231.653 246.91C231.366 246.783 231.123 246.623 230.923 246.43C230.723 246.237 230.599 246.037 230.553 245.83L230.813 245.69V249.2H229.773ZM232.373 246.14C232.679 246.14 232.953 246.063 233.193 245.91C233.433 245.757 233.623 245.547 233.763 245.28C233.903 245.013 233.973 244.71 233.973 244.37C233.973 244.03 233.903 243.73 233.763 243.47C233.629 243.203 233.443 242.993 233.203 242.84C232.963 242.687 232.686 242.61 232.373 242.61C232.059 242.61 231.783 242.687 231.543 242.84C231.303 242.987 231.113 243.193 230.973 243.46C230.833 243.727 230.763 244.03 230.763 244.37C230.763 244.71 230.833 245.013 230.973 245.28C231.113 245.547 231.303 245.757 231.543 245.91C231.783 246.063 232.059 246.14 232.373 246.14ZM238.271 247.1C237.791 247.1 237.361 246.983 236.981 246.75C236.608 246.51 236.311 246.187 236.091 245.78C235.871 245.367 235.761 244.897 235.761 244.37C235.761 243.843 235.868 243.377 236.081 242.97C236.301 242.557 236.598 242.233 236.971 242C237.345 241.76 237.768 241.64 238.241 241.64C238.501 241.64 238.751 241.683 238.991 241.77C239.238 241.85 239.458 241.963 239.651 242.11C239.845 242.25 239.995 242.407 240.101 242.58C240.215 242.747 240.271 242.917 240.271 243.09L239.971 243.11V239.6H241.001V247H239.971V245.75H240.171C240.171 245.91 240.118 246.07 240.011 246.23C239.905 246.383 239.761 246.527 239.581 246.66C239.408 246.793 239.205 246.9 238.971 246.98C238.745 247.06 238.511 247.1 238.271 247.1ZM238.411 246.21C238.725 246.21 239.001 246.13 239.241 245.97C239.481 245.81 239.668 245.593 239.801 245.32C239.941 245.04 240.011 244.723 240.011 244.37C240.011 244.017 239.941 243.703 239.801 243.43C239.668 243.15 239.481 242.93 239.241 242.77C239.001 242.61 238.725 242.53 238.411 242.53C238.098 242.53 237.821 242.61 237.581 242.77C237.341 242.93 237.151 243.15 237.011 243.43C236.878 243.703 236.811 244.017 236.811 244.37C236.811 244.723 236.878 245.04 237.011 245.32C237.151 245.593 237.341 245.81 237.581 245.97C237.821 246.13 238.098 246.21 238.411 246.21ZM244.439 247.1C244.006 247.1 243.609 246.98 243.249 246.74C242.896 246.5 242.613 246.173 242.399 245.76C242.186 245.347 242.079 244.88 242.079 244.36C242.079 243.833 242.186 243.367 242.399 242.96C242.619 242.547 242.913 242.223 243.279 241.99C243.653 241.757 244.069 241.64 244.529 241.64C244.803 241.64 245.053 241.68 245.279 241.76C245.506 241.84 245.703 241.953 245.869 242.1C246.043 242.24 246.183 242.403 246.289 242.59C246.403 242.777 246.473 242.977 246.499 243.19L246.269 243.11V241.75H247.309V247H246.269V245.75L246.509 245.68C246.469 245.86 246.386 246.037 246.259 246.21C246.139 246.377 245.983 246.527 245.789 246.66C245.603 246.793 245.393 246.9 245.159 246.98C244.933 247.06 244.693 247.1 244.439 247.1ZM244.709 246.15C245.023 246.15 245.299 246.073 245.539 245.92C245.779 245.767 245.966 245.557 246.099 245.29C246.239 245.017 246.309 244.707 246.309 244.36C246.309 244.02 246.239 243.717 246.099 243.45C245.966 243.183 245.779 242.973 245.539 242.82C245.299 242.667 245.023 242.59 244.709 242.59C244.403 242.59 244.129 242.667 243.889 242.82C243.656 242.973 243.469 243.183 243.329 243.45C243.196 243.717 243.129 244.02 243.129 244.36C243.129 244.707 243.196 245.017 243.329 245.29C243.469 245.557 243.656 245.767 243.889 245.92C244.129 246.073 244.403 246.15 244.709 246.15ZM249.397 247V240.41H250.427V247H249.397ZM248.307 242.75V241.75H251.647V242.75H248.307ZM254.986 247.1C254.446 247.1 253.966 246.987 253.546 246.76C253.133 246.527 252.806 246.21 252.566 245.81C252.333 245.41 252.216 244.95 252.216 244.43C252.216 244.017 252.283 243.64 252.416 243.3C252.55 242.96 252.733 242.667 252.966 242.42C253.206 242.167 253.49 241.973 253.816 241.84C254.15 241.7 254.51 241.63 254.896 241.63C255.236 241.63 255.553 241.697 255.846 241.83C256.14 241.957 256.393 242.133 256.606 242.36C256.826 242.587 256.993 242.857 257.106 243.17C257.226 243.477 257.283 243.813 257.276 244.18L257.266 244.62H252.976L252.746 243.8H256.376L256.226 243.97V243.73C256.206 243.51 256.133 243.313 256.006 243.14C255.88 242.967 255.72 242.83 255.526 242.73C255.333 242.63 255.123 242.58 254.896 242.58C254.536 242.58 254.233 242.65 253.986 242.79C253.74 242.923 253.553 243.123 253.426 243.39C253.3 243.65 253.236 243.973 253.236 244.36C253.236 244.727 253.313 245.047 253.466 245.32C253.62 245.587 253.836 245.793 254.116 245.94C254.396 246.087 254.72 246.16 255.086 246.16C255.346 246.16 255.586 246.117 255.806 246.03C256.033 245.943 256.276 245.787 256.536 245.56L257.056 246.29C256.896 246.45 256.7 246.59 256.466 246.71C256.24 246.83 255.996 246.927 255.736 247C255.483 247.067 255.233 247.1 254.986 247.1ZM260.586 247.1C260.106 247.1 259.676 246.983 259.296 246.75C258.922 246.51 258.626 246.187 258.406 245.78C258.186 245.367 258.076 244.897 258.076 244.37C258.076 243.843 258.182 243.377 258.396 242.97C258.616 242.557 258.912 242.233 259.286 242C259.659 241.76 260.082 241.64 260.556 241.64C260.816 241.64 261.066 241.683 261.306 241.77C261.552 241.85 261.772 241.963 261.966 242.11C262.159 242.25 262.309 242.407 262.416 242.58C262.529 242.747 262.586 242.917 262.586 243.09L262.286 243.11V239.6H263.316V247H262.286V245.75H262.486C262.486 245.91 262.432 246.07 262.326 246.23C262.219 246.383 262.076 246.527 261.896 246.66C261.722 246.793 261.519 246.9 261.286 246.98C261.059 247.06 260.826 247.1 260.586 247.1ZM260.726 246.21C261.039 246.21 261.316 246.13 261.556 245.97C261.796 245.81 261.982 245.593 262.116 245.32C262.256 245.04 262.326 244.723 262.326 244.37C262.326 244.017 262.256 243.703 262.116 243.43C261.982 243.15 261.796 242.93 261.556 242.77C261.316 242.61 261.039 242.53 260.726 242.53C260.412 242.53 260.136 242.61 259.896 242.77C259.656 242.93 259.466 243.15 259.326 243.43C259.192 243.703 259.126 244.017 259.126 244.37C259.126 244.723 259.192 245.04 259.326 245.32C259.466 245.593 259.656 245.81 259.896 245.97C260.136 246.13 260.412 246.21 260.726 246.21Z" fill="#3B3B3B"/>
<path d="M267.98 188V181H269.04L271.59 185.15L271.08 185.14L273.66 181H274.66V188H273.58V185.13C273.58 184.53 273.593 183.99 273.62 183.51C273.653 183.03 273.707 182.553 273.78 182.08L273.92 182.45L271.63 185.99H270.97L268.75 182.49L268.86 182.08C268.933 182.527 268.983 182.987 269.01 183.46C269.043 183.927 269.06 184.483 269.06 185.13V188H267.98ZM278.383 188.1C277.949 188.1 277.553 187.98 277.193 187.74C276.839 187.5 276.556 187.173 276.343 186.76C276.129 186.347 276.023 185.88 276.023 185.36C276.023 184.833 276.129 184.367 276.343 183.96C276.563 183.547 276.856 183.223 277.223 182.99C277.596 182.757 278.013 182.64 278.473 182.64C278.746 182.64 278.996 182.68 279.223 182.76C279.449 182.84 279.646 182.953 279.813 183.1C279.986 183.24 280.126 183.403 280.233 183.59C280.346 183.777 280.416 183.977 280.443 184.19L280.213 184.11V182.75H281.253V188H280.213V186.75L280.453 186.68C280.413 186.86 280.329 187.037 280.203 187.21C280.083 187.377 279.926 187.527 279.733 187.66C279.546 187.793 279.336 187.9 279.103 187.98C278.876 188.06 278.636 188.1 278.383 188.1ZM278.653 187.15C278.966 187.15 279.243 187.073 279.483 186.92C279.723 186.767 279.909 186.557 280.043 186.29C280.183 186.017 280.253 185.707 280.253 185.36C280.253 185.02 280.183 184.717 280.043 184.45C279.909 184.183 279.723 183.973 279.483 183.82C279.243 183.667 278.966 183.59 278.653 183.59C278.346 183.59 278.073 183.667 277.833 183.82C277.599 183.973 277.413 184.183 277.273 184.45C277.139 184.717 277.073 185.02 277.073 185.36C277.073 185.707 277.139 186.017 277.273 186.29C277.413 186.557 277.599 186.767 277.833 186.92C278.073 187.073 278.346 187.15 278.653 187.15ZM282.691 188V182.75H283.731V184.4L283.631 184C283.704 183.747 283.827 183.517 284.001 183.31C284.181 183.103 284.384 182.94 284.611 182.82C284.844 182.7 285.084 182.64 285.331 182.64C285.444 182.64 285.551 182.65 285.651 182.67C285.757 182.69 285.841 182.713 285.901 182.74L285.631 183.86C285.551 183.827 285.461 183.8 285.361 183.78C285.267 183.753 285.174 183.74 285.081 183.74C284.901 183.74 284.727 183.777 284.561 183.85C284.401 183.917 284.257 184.013 284.131 184.14C284.011 184.26 283.914 184.403 283.841 184.57C283.767 184.73 283.731 184.907 283.731 185.1V188H282.691ZM287.664 186.36L287.614 185.24L290.124 182.75H291.514L287.664 186.36ZM286.724 188V180.6H287.754V188H286.724ZM290.264 188L288.284 185.69L289.014 185.02L291.584 188H290.264ZM297.23 188.1C296.797 188.1 296.4 187.98 296.04 187.74C295.687 187.5 295.404 187.173 295.19 186.76C294.977 186.347 294.87 185.88 294.87 185.36C294.87 184.833 294.977 184.367 295.19 183.96C295.41 183.547 295.704 183.223 296.07 182.99C296.444 182.757 296.86 182.64 297.32 182.64C297.594 182.64 297.844 182.68 298.07 182.76C298.297 182.84 298.494 182.953 298.66 183.1C298.834 183.24 298.974 183.403 299.08 183.59C299.194 183.777 299.264 183.977 299.29 184.19L299.06 184.11V182.75H300.1V188H299.06V186.75L299.3 186.68C299.26 186.86 299.177 187.037 299.05 187.21C298.93 187.377 298.774 187.527 298.58 187.66C298.394 187.793 298.184 187.9 297.95 187.98C297.724 188.06 297.484 188.1 297.23 188.1ZM297.5 187.15C297.814 187.15 298.09 187.073 298.33 186.92C298.57 186.767 298.757 186.557 298.89 186.29C299.03 186.017 299.1 185.707 299.1 185.36C299.1 185.02 299.03 184.717 298.89 184.45C298.757 184.183 298.57 183.973 298.33 183.82C298.09 183.667 297.814 183.59 297.5 183.59C297.194 183.59 296.92 183.667 296.68 183.82C296.447 183.973 296.26 184.183 296.12 184.45C295.987 184.717 295.92 185.02 295.92 185.36C295.92 185.707 295.987 186.017 296.12 186.29C296.26 186.557 296.447 186.767 296.68 186.92C296.92 187.073 297.194 187.15 297.5 187.15ZM301.558 188V180.6H302.588V188H301.558ZM304.068 188V180.6H305.098V188H304.068ZM311.381 188.1C310.947 188.1 310.551 187.98 310.191 187.74C309.837 187.5 309.554 187.173 309.341 186.76C309.127 186.347 309.021 185.88 309.021 185.36C309.021 184.833 309.127 184.367 309.341 183.96C309.561 183.547 309.854 183.223 310.221 182.99C310.594 182.757 311.011 182.64 311.471 182.64C311.744 182.64 311.994 182.68 312.221 182.76C312.447 182.84 312.644 182.953 312.811 183.1C312.984 183.24 313.124 183.403 313.231 183.59C313.344 183.777 313.414 183.977 313.441 184.19L313.211 184.11V182.75H314.251V188H313.211V186.75L313.451 186.68C313.411 186.86 313.327 187.037 313.201 187.21C313.081 187.377 312.924 187.527 312.731 187.66C312.544 187.793 312.334 187.9 312.101 187.98C311.874 188.06 311.634 188.1 311.381 188.1ZM311.651 187.15C311.964 187.15 312.241 187.073 312.481 186.92C312.721 186.767 312.907 186.557 313.041 186.29C313.181 186.017 313.251 185.707 313.251 185.36C313.251 185.02 313.181 184.717 313.041 184.45C312.907 184.183 312.721 183.973 312.481 183.82C312.241 183.667 311.964 183.59 311.651 183.59C311.344 183.59 311.071 183.667 310.831 183.82C310.597 183.973 310.411 184.183 310.271 184.45C310.137 184.717 310.071 185.02 310.071 185.36C310.071 185.707 310.137 186.017 310.271 186.29C310.411 186.557 310.597 186.767 310.831 186.92C311.071 187.073 311.344 187.15 311.651 187.15ZM317.439 188.1C316.999 188.1 316.602 188.023 316.249 187.87C315.895 187.717 315.602 187.49 315.369 187.19L316.069 186.59C316.269 186.823 316.485 186.993 316.719 187.1C316.959 187.2 317.229 187.25 317.529 187.25C317.649 187.25 317.759 187.237 317.859 187.21C317.965 187.177 318.055 187.13 318.129 187.07C318.209 187.01 318.269 186.94 318.309 186.86C318.349 186.773 318.369 186.68 318.369 186.58C318.369 186.407 318.305 186.267 318.179 186.16C318.112 186.113 318.005 186.063 317.859 186.01C317.719 185.95 317.535 185.89 317.309 185.83C316.922 185.73 316.605 185.617 316.359 185.49C316.112 185.363 315.922 185.22 315.789 185.06C315.689 184.933 315.615 184.797 315.569 184.65C315.522 184.497 315.499 184.33 315.499 184.15C315.499 183.93 315.545 183.73 315.639 183.55C315.739 183.363 315.872 183.203 316.039 183.07C316.212 182.93 316.412 182.823 316.639 182.75C316.872 182.677 317.119 182.64 317.379 182.64C317.625 182.64 317.869 182.673 318.109 182.74C318.355 182.807 318.582 182.903 318.789 183.03C318.995 183.157 319.169 183.307 319.309 183.48L318.719 184.13C318.592 184.003 318.452 183.893 318.299 183.8C318.152 183.7 318.002 183.623 317.849 183.57C317.695 183.517 317.555 183.49 317.429 183.49C317.289 183.49 317.162 183.503 317.049 183.53C316.935 183.557 316.839 183.597 316.759 183.65C316.685 183.703 316.629 183.77 316.589 183.85C316.549 183.93 316.529 184.02 316.529 184.12C316.535 184.207 316.555 184.29 316.589 184.37C316.629 184.443 316.682 184.507 316.749 184.56C316.822 184.613 316.932 184.67 317.079 184.73C317.225 184.79 317.412 184.847 317.639 184.9C317.972 184.987 318.245 185.083 318.459 185.19C318.679 185.29 318.852 185.407 318.979 185.54C319.112 185.667 319.205 185.813 319.259 185.98C319.312 186.147 319.339 186.333 319.339 186.54C319.339 186.84 319.252 187.11 319.079 187.35C318.912 187.583 318.685 187.767 318.399 187.9C318.112 188.033 317.792 188.1 317.439 188.1ZM323.277 188V182.75H324.317V184.4L324.217 184C324.29 183.747 324.413 183.517 324.587 183.31C324.767 183.103 324.97 182.94 325.197 182.82C325.43 182.7 325.67 182.64 325.917 182.64C326.03 182.64 326.137 182.65 326.237 182.67C326.343 182.69 326.427 182.713 326.487 182.74L326.217 183.86C326.137 183.827 326.047 183.8 325.947 183.78C325.853 183.753 325.76 183.74 325.667 183.74C325.487 183.74 325.313 183.777 325.147 183.85C324.987 183.917 324.843 184.013 324.717 184.14C324.597 184.26 324.5 184.403 324.427 184.57C324.353 184.73 324.317 184.907 324.317 185.1V188H323.277ZM329.535 188.1C328.995 188.1 328.515 187.987 328.095 187.76C327.682 187.527 327.355 187.21 327.115 186.81C326.882 186.41 326.765 185.95 326.765 185.43C326.765 185.017 326.832 184.64 326.965 184.3C327.099 183.96 327.282 183.667 327.515 183.42C327.755 183.167 328.039 182.973 328.365 182.84C328.699 182.7 329.059 182.63 329.445 182.63C329.785 182.63 330.102 182.697 330.395 182.83C330.689 182.957 330.942 183.133 331.155 183.36C331.375 183.587 331.542 183.857 331.655 184.17C331.775 184.477 331.832 184.813 331.825 185.18L331.815 185.62H327.525L327.295 184.8H330.925L330.775 184.97V184.73C330.755 184.51 330.682 184.313 330.555 184.14C330.429 183.967 330.269 183.83 330.075 183.73C329.882 183.63 329.672 183.58 329.445 183.58C329.085 183.58 328.782 183.65 328.535 183.79C328.289 183.923 328.102 184.123 327.975 184.39C327.849 184.65 327.785 184.973 327.785 185.36C327.785 185.727 327.862 186.047 328.015 186.32C328.169 186.587 328.385 186.793 328.665 186.94C328.945 187.087 329.269 187.16 329.635 187.16C329.895 187.16 330.135 187.117 330.355 187.03C330.582 186.943 330.825 186.787 331.085 186.56L331.605 187.29C331.445 187.45 331.249 187.59 331.015 187.71C330.789 187.83 330.545 187.927 330.285 188C330.032 188.067 329.782 188.1 329.535 188.1ZM334.965 188.1C334.531 188.1 334.135 187.98 333.775 187.74C333.421 187.5 333.138 187.173 332.925 186.76C332.711 186.347 332.605 185.88 332.605 185.36C332.605 184.833 332.711 184.367 332.925 183.96C333.145 183.547 333.438 183.223 333.805 182.99C334.178 182.757 334.595 182.64 335.055 182.64C335.328 182.64 335.578 182.68 335.805 182.76C336.031 182.84 336.228 182.953 336.395 183.1C336.568 183.24 336.708 183.403 336.815 183.59C336.928 183.777 336.998 183.977 337.025 184.19L336.795 184.11V182.75H337.835V188H336.795V186.75L337.035 186.68C336.995 186.86 336.911 187.037 336.785 187.21C336.665 187.377 336.508 187.527 336.315 187.66C336.128 187.793 335.918 187.9 335.685 187.98C335.458 188.06 335.218 188.1 334.965 188.1ZM335.235 187.15C335.548 187.15 335.825 187.073 336.065 186.92C336.305 186.767 336.491 186.557 336.625 186.29C336.765 186.017 336.835 185.707 336.835 185.36C336.835 185.02 336.765 184.717 336.625 184.45C336.491 184.183 336.305 183.973 336.065 183.82C335.825 183.667 335.548 183.59 335.235 183.59C334.928 183.59 334.655 183.667 334.415 183.82C334.181 183.973 333.995 184.183 333.855 184.45C333.721 184.717 333.655 185.02 333.655 185.36C333.655 185.707 333.721 186.017 333.855 186.29C333.995 186.557 334.181 186.767 334.415 186.92C334.655 187.073 334.928 187.15 335.235 187.15ZM341.463 188.1C340.983 188.1 340.553 187.983 340.173 187.75C339.799 187.51 339.503 187.187 339.283 186.78C339.063 186.367 338.953 185.897 338.953 185.37C338.953 184.843 339.059 184.377 339.273 183.97C339.493 183.557 339.789 183.233 340.163 183C340.536 182.76 340.959 182.64 341.433 182.64C341.693 182.64 341.943 182.683 342.183 182.77C342.429 182.85 342.649 182.963 342.843 183.11C343.036 183.25 343.186 183.407 343.293 183.58C343.406 183.747 343.463 183.917 343.463 184.09L343.163 184.11V180.6H344.193V188H343.163V186.75H343.363C343.363 186.91 343.309 187.07 343.203 187.23C343.096 187.383 342.953 187.527 342.773 187.66C342.599 187.793 342.396 187.9 342.163 187.98C341.936 188.06 341.703 188.1 341.463 188.1ZM341.603 187.21C341.916 187.21 342.193 187.13 342.433 186.97C342.673 186.81 342.859 186.593 342.993 186.32C343.133 186.04 343.203 185.723 343.203 185.37C343.203 185.017 343.133 184.703 342.993 184.43C342.859 184.15 342.673 183.93 342.433 183.77C342.193 183.61 341.916 183.53 341.603 183.53C341.289 183.53 341.013 183.61 340.773 183.77C340.533 183.93 340.343 184.15 340.203 184.43C340.069 184.703 340.003 185.017 340.003 185.37C340.003 185.723 340.069 186.04 340.203 186.32C340.343 186.593 340.533 186.81 340.773 186.97C341.013 187.13 341.289 187.21 341.603 187.21Z" fill="#1A89FA"/>
<line x1="135" y1="201.5" x2="345" y2="201.5" stroke="#EEEEEE"/>
<circle cx="324" cy="234" r="8" fill="#35CA00" fill-opacity="0.38"/>
<path d="M327.976 233.98C327.976 236.178 326.194 237.96 323.98 237.96C321.766 237.96 320 236.178 320 233.98C320 231.782 321.798 230 323.98 230C326.162 230 327.976 231.782 327.976 233.98Z" fill="#35CA00"/>
<path d="M322.933 234.75L322.083 233.9C322.057 233.874 322.036 233.843 322.022 233.808C322.007 233.774 322 233.737 322 233.7C322 233.663 322.007 233.626 322.022 233.591C322.036 233.557 322.057 233.526 322.083 233.5C322.109 233.473 322.14 233.452 322.175 233.438C322.209 233.424 322.246 233.417 322.283 233.417C322.32 233.417 322.357 233.424 322.392 233.438C322.426 233.452 322.457 233.473 322.484 233.5L323.117 234.133L324.901 232.099C324.925 232.071 324.955 232.048 324.988 232.031C325.021 232.014 325.057 232.004 325.094 232.001C325.131 231.998 325.169 232.002 325.204 232.014C325.239 232.026 325.272 232.044 325.3 232.068C325.328 232.092 325.352 232.122 325.368 232.155C325.385 232.188 325.395 232.224 325.398 232.261C325.401 232.298 325.397 232.336 325.385 232.371C325.374 232.406 325.355 232.439 325.331 232.467L323.348 234.733C323.323 234.763 323.292 234.787 323.256 234.804C323.221 234.821 323.183 234.831 323.144 234.833C323.105 234.834 323.066 234.827 323.03 234.813C322.994 234.799 322.961 234.777 322.933 234.75Z" fill="white"/>
<rect x="135" y="268" width="210" height="45" rx="3" fill="#F5B871" fill-opacity="0.16"/>
<rect x="135" y="320" width="210" height="45" rx="3" fill="#F5B871" fill-opacity="0.16"/>
<path d="M145.864 285V283.8H147.22V277.8H145.864V276.6H149.872V277.8H148.516V283.8H149.872V285H145.864ZM152.374 285V277.092H153.61V285H152.374ZM151.066 279.9V278.7H155.074V279.9H151.066ZM159.081 285.12C158.433 285.12 157.857 284.984 157.353 284.712C156.857 284.432 156.465 284.052 156.177 283.572C155.897 283.092 155.757 282.54 155.757 281.916C155.757 281.42 155.837 280.968 155.997 280.56C156.157 280.152 156.377 279.8 156.657 279.504C156.945 279.2 157.285 278.968 157.677 278.808C158.077 278.64 158.509 278.556 158.973 278.556C159.381 278.556 159.761 278.636 160.113 278.796C160.465 278.948 160.769 279.16 161.025 279.432C161.289 279.704 161.489 280.028 161.625 280.404C161.769 280.772 161.837 281.176 161.829 281.616L161.817 282.144H156.669L156.393 281.16H160.749L160.569 281.364V281.076C160.545 280.812 160.457 280.576 160.305 280.368C160.153 280.16 159.961 279.996 159.729 279.876C159.497 279.756 159.245 279.696 158.973 279.696C158.541 279.696 158.177 279.78 157.881 279.948C157.585 280.108 157.361 280.348 157.209 280.668C157.057 280.98 156.981 281.368 156.981 281.832C156.981 282.272 157.073 282.656 157.257 282.984C157.441 283.304 157.701 283.552 158.037 283.728C158.373 283.904 158.761 283.992 159.201 283.992C159.513 283.992 159.801 283.94 160.065 283.836C160.337 283.732 160.629 283.544 160.941 283.272L161.565 284.148C161.373 284.34 161.137 284.508 160.857 284.652C160.585 284.796 160.293 284.912 159.981 285C159.677 285.08 159.377 285.12 159.081 285.12ZM163.149 285V278.7H164.397V280.044L164.169 280.188C164.233 279.98 164.333 279.78 164.469 279.588C164.613 279.396 164.785 279.228 164.985 279.084C165.193 278.932 165.413 278.812 165.645 278.724C165.885 278.636 166.129 278.592 166.377 278.592C166.737 278.592 167.053 278.652 167.325 278.772C167.597 278.892 167.821 279.072 167.997 279.312C168.173 279.552 168.301 279.852 168.381 280.212L168.189 280.164L168.273 279.96C168.361 279.776 168.481 279.604 168.633 279.444C168.793 279.276 168.973 279.128 169.173 279C169.373 278.872 169.585 278.772 169.809 278.7C170.033 278.628 170.253 278.592 170.469 278.592C170.941 278.592 171.329 278.688 171.633 278.88C171.945 279.072 172.177 279.364 172.329 279.756C172.489 280.148 172.569 280.636 172.569 281.22V285H171.321V281.292C171.321 280.932 171.273 280.64 171.177 280.416C171.089 280.184 170.953 280.012 170.769 279.9C170.585 279.788 170.349 279.732 170.061 279.732C169.837 279.732 169.625 279.772 169.425 279.852C169.233 279.924 169.065 280.028 168.921 280.164C168.777 280.3 168.665 280.46 168.585 280.644C168.505 280.82 168.465 281.016 168.465 281.232V285H167.217V281.268C167.217 280.94 167.169 280.664 167.073 280.44C166.977 280.208 166.837 280.032 166.653 279.912C166.469 279.792 166.245 279.732 165.981 279.732C165.757 279.732 165.549 279.772 165.357 279.852C165.165 279.924 164.997 280.028 164.853 280.164C164.709 280.292 164.597 280.448 164.517 280.632C164.437 280.808 164.397 281 164.397 281.208V285H163.149ZM181.127 285L182.567 276.6H183.647L182.207 285H181.127ZM177.095 282.924V281.928H184.043V282.924H177.095ZM177.935 285L179.375 276.6H180.455L179.015 285H177.935ZM177.551 279.564V278.568H184.487V279.564H177.551ZM189.079 285V278.232L189.379 278.304L186.619 281.676L186.571 281.532H191.791V282.72H185.767L185.215 281.64L189.331 276.6H190.327V285H189.079ZM195.309 285.12C194.717 285.12 194.201 284.984 193.761 284.712C193.329 284.44 192.921 283.984 192.537 283.344L193.545 282.708C193.745 283.004 193.941 283.248 194.133 283.44C194.333 283.624 194.537 283.76 194.745 283.848C194.953 283.936 195.173 283.98 195.405 283.98C195.685 283.98 195.945 283.912 196.185 283.776C196.425 283.632 196.617 283.436 196.761 283.188C196.905 282.94 196.977 282.66 196.977 282.348C196.977 282.036 196.921 281.772 196.809 281.556C196.697 281.332 196.533 281.164 196.317 281.052C196.101 280.932 195.845 280.872 195.549 280.872C195.413 280.872 195.269 280.888 195.117 280.92C194.973 280.944 194.817 280.984 194.649 281.04C194.481 281.088 194.297 281.152 194.097 281.232L193.737 280.284L196.329 277.428L196.581 277.8H193.005V276.6H197.817L198.057 277.08L195.309 280.128L195.009 279.816C195.073 279.784 195.177 279.756 195.321 279.732C195.473 279.7 195.597 279.684 195.693 279.684C196.045 279.684 196.373 279.752 196.677 279.888C196.989 280.016 197.257 280.2 197.481 280.44C197.713 280.672 197.893 280.948 198.021 281.268C198.157 281.58 198.225 281.916 198.225 282.276C198.225 282.82 198.093 283.308 197.829 283.74C197.573 284.164 197.225 284.5 196.785 284.748C196.345 284.996 195.853 285.12 195.309 285.12ZM202.872 285V278.232L203.172 278.304L200.412 281.676L200.364 281.532H205.584V282.72H199.56L199.008 281.64L203.124 276.6H204.12V285H202.872ZM208.694 284.412V277.596L209.138 277.932L207.482 278.808L207.134 277.68L209.378 276.48H210.002V284.412H208.694ZM207.362 285V283.752H211.37V285H207.362ZM214.694 284.412V277.596L215.138 277.932L213.482 278.808L213.134 277.68L215.378 276.48H216.002V284.412H214.694ZM213.362 285V283.752H217.37V285H213.362ZM222.314 285V278.232L222.614 278.304L219.854 281.676L219.806 281.532H225.026V282.72H219.002L218.45 281.64L222.566 276.6H223.562V285H222.314Z" fill="#3B3B3B"/>
<path d="M145.864 337V335.8H147.22V329.8H145.864V328.6H149.872V329.8H148.516V335.8H149.872V337H145.864ZM152.374 337V329.092H153.61V337H152.374ZM151.066 331.9V330.7H155.074V331.9H151.066ZM159.081 337.12C158.433 337.12 157.857 336.984 157.353 336.712C156.857 336.432 156.465 336.052 156.177 335.572C155.897 335.092 155.757 334.54 155.757 333.916C155.757 333.42 155.837 332.968 155.997 332.56C156.157 332.152 156.377 331.8 156.657 331.504C156.945 331.2 157.285 330.968 157.677 330.808C158.077 330.64 158.509 330.556 158.973 330.556C159.381 330.556 159.761 330.636 160.113 330.796C160.465 330.948 160.769 331.16 161.025 331.432C161.289 331.704 161.489 332.028 161.625 332.404C161.769 332.772 161.837 333.176 161.829 333.616L161.817 334.144H156.669L156.393 333.16H160.749L160.569 333.364V333.076C160.545 332.812 160.457 332.576 160.305 332.368C160.153 332.16 159.961 331.996 159.729 331.876C159.497 331.756 159.245 331.696 158.973 331.696C158.541 331.696 158.177 331.78 157.881 331.948C157.585 332.108 157.361 332.348 157.209 332.668C157.057 332.98 156.981 333.368 156.981 333.832C156.981 334.272 157.073 334.656 157.257 334.984C157.441 335.304 157.701 335.552 158.037 335.728C158.373 335.904 158.761 335.992 159.201 335.992C159.513 335.992 159.801 335.94 160.065 335.836C160.337 335.732 160.629 335.544 160.941 335.272L161.565 336.148C161.373 336.34 161.137 336.508 160.857 336.652C160.585 336.796 160.293 336.912 159.981 337C159.677 337.08 159.377 337.12 159.081 337.12ZM163.149 337V330.7H164.397V332.044L164.169 332.188C164.233 331.98 164.333 331.78 164.469 331.588C164.613 331.396 164.785 331.228 164.985 331.084C165.193 330.932 165.413 330.812 165.645 330.724C165.885 330.636 166.129 330.592 166.377 330.592C166.737 330.592 167.053 330.652 167.325 330.772C167.597 330.892 167.821 331.072 167.997 331.312C168.173 331.552 168.301 331.852 168.381 332.212L168.189 332.164L168.273 331.96C168.361 331.776 168.481 331.604 168.633 331.444C168.793 331.276 168.973 331.128 169.173 331C169.373 330.872 169.585 330.772 169.809 330.7C170.033 330.628 170.253 330.592 170.469 330.592C170.941 330.592 171.329 330.688 171.633 330.88C171.945 331.072 172.177 331.364 172.329 331.756C172.489 332.148 172.569 332.636 172.569 333.22V337H171.321V333.292C171.321 332.932 171.273 332.64 171.177 332.416C171.089 332.184 170.953 332.012 170.769 331.9C170.585 331.788 170.349 331.732 170.061 331.732C169.837 331.732 169.625 331.772 169.425 331.852C169.233 331.924 169.065 332.028 168.921 332.164C168.777 332.3 168.665 332.46 168.585 332.644C168.505 332.82 168.465 333.016 168.465 333.232V337H167.217V333.268C167.217 332.94 167.169 332.664 167.073 332.44C166.977 332.208 166.837 332.032 166.653 331.912C166.469 331.792 166.245 331.732 165.981 331.732C165.757 331.732 165.549 331.772 165.357 331.852C165.165 331.924 164.997 332.028 164.853 332.164C164.709 332.292 164.597 332.448 164.517 332.632C164.437 332.808 164.397 333 164.397 333.208V337H163.149ZM181.127 337L182.567 328.6H183.647L182.207 337H181.127ZM177.095 334.924V333.928H184.043V334.924H177.095ZM177.935 337L179.375 328.6H180.455L179.015 337H177.935ZM177.551 331.564V330.568H184.487V331.564H177.551ZM189.079 337V330.232L189.379 330.304L186.619 333.676L186.571 333.532H191.791V334.72H185.767L185.215 333.64L189.331 328.6H190.327V337H189.079ZM195.309 337.12C194.717 337.12 194.201 336.984 193.761 336.712C193.329 336.44 192.921 335.984 192.537 335.344L193.545 334.708C193.745 335.004 193.941 335.248 194.133 335.44C194.333 335.624 194.537 335.76 194.745 335.848C194.953 335.936 195.173 335.98 195.405 335.98C195.685 335.98 195.945 335.912 196.185 335.776C196.425 335.632 196.617 335.436 196.761 335.188C196.905 334.94 196.977 334.66 196.977 334.348C196.977 334.036 196.921 333.772 196.809 333.556C196.697 333.332 196.533 333.164 196.317 333.052C196.101 332.932 195.845 332.872 195.549 332.872C195.413 332.872 195.269 332.888 195.117 332.92C194.973 332.944 194.817 332.984 194.649 333.04C194.481 333.088 194.297 333.152 194.097 333.232L193.737 332.284L196.329 329.428L196.581 329.8H193.005V328.6H197.817L198.057 329.08L195.309 332.128L195.009 331.816C195.073 331.784 195.177 331.756 195.321 331.732C195.473 331.7 195.597 331.684 195.693 331.684C196.045 331.684 196.373 331.752 196.677 331.888C196.989 332.016 197.257 332.2 197.481 332.44C197.713 332.672 197.893 332.948 198.021 333.268C198.157 333.58 198.225 333.916 198.225 334.276C198.225 334.82 198.093 335.308 197.829 335.74C197.573 336.164 197.225 336.5 196.785 336.748C196.345 336.996 195.853 337.12 195.309 337.12ZM201.252 336.412V329.596L201.696 329.932L200.04 330.808L199.692 329.68L201.936 328.48H202.56V336.412H201.252ZM199.92 337V335.752H203.928V337H199.92ZM207.252 336.412V329.596L207.696 329.932L206.04 330.808L205.692 329.68L207.936 328.48H208.56V336.412H207.252ZM205.92 337V335.752H209.928V337H205.92ZM213.66 337.12C213.068 337.12 212.552 336.984 212.112 336.712C211.68 336.44 211.272 335.984 210.888 335.344L211.896 334.708C212.096 335.004 212.292 335.248 212.484 335.44C212.684 335.624 212.888 335.76 213.096 335.848C213.304 335.936 213.524 335.98 213.756 335.98C214.036 335.98 214.296 335.912 214.536 335.776C214.776 335.632 214.968 335.436 215.112 335.188C215.256 334.94 215.328 334.66 215.328 334.348C215.328 334.036 215.272 333.772 215.16 333.556C215.048 333.332 214.884 333.164 214.668 333.052C214.452 332.932 214.196 332.872 213.9 332.872C213.764 332.872 213.62 332.888 213.468 332.92C213.324 332.944 213.168 332.984 213 333.04C212.832 333.088 212.648 333.152 212.448 333.232L212.088 332.284L214.68 329.428L214.932 329.8H211.356V328.6H216.168L216.408 329.08L213.66 332.128L213.36 331.816C213.424 331.784 213.528 331.756 213.672 331.732C213.824 331.7 213.948 331.684 214.044 331.684C214.396 331.684 214.724 331.752 215.028 331.888C215.34 332.016 215.608 332.2 215.832 332.44C216.064 332.672 216.244 332.948 216.372 333.268C216.508 333.58 216.576 333.916 216.576 334.276C216.576 334.82 216.444 335.308 216.18 335.74C215.924 336.164 215.576 336.5 215.136 336.748C214.696 336.996 214.204 337.12 213.66 337.12ZM221.224 337V330.232L221.524 330.304L218.764 333.676L218.716 333.532H223.936V334.72H217.912L217.36 333.64L221.476 328.6H222.472V337H221.224Z" fill="#3B3B3B"/>
<path d="M145.72 302V301H146.85V296H145.72V295H149.06V296H147.93V301H149.06V302H145.72ZM152.245 302.1C151.805 302.1 151.409 302.023 151.055 301.87C150.702 301.717 150.409 301.49 150.175 301.19L150.875 300.59C151.075 300.823 151.292 300.993 151.525 301.1C151.765 301.2 152.035 301.25 152.335 301.25C152.455 301.25 152.565 301.237 152.665 301.21C152.772 301.177 152.862 301.13 152.935 301.07C153.015 301.01 153.075 300.94 153.115 300.86C153.155 300.773 153.175 300.68 153.175 300.58C153.175 300.407 153.112 300.267 152.985 300.16C152.919 300.113 152.812 300.063 152.665 300.01C152.525 299.95 152.342 299.89 152.115 299.83C151.729 299.73 151.412 299.617 151.165 299.49C150.919 299.363 150.729 299.22 150.595 299.06C150.495 298.933 150.422 298.797 150.375 298.65C150.329 298.497 150.305 298.33 150.305 298.15C150.305 297.93 150.352 297.73 150.445 297.55C150.545 297.363 150.679 297.203 150.845 297.07C151.019 296.93 151.219 296.823 151.445 296.75C151.679 296.677 151.925 296.64 152.185 296.64C152.432 296.64 152.675 296.673 152.915 296.74C153.162 296.807 153.389 296.903 153.595 297.03C153.802 297.157 153.975 297.307 154.115 297.48L153.525 298.13C153.399 298.003 153.259 297.893 153.105 297.8C152.959 297.7 152.809 297.623 152.655 297.57C152.502 297.517 152.362 297.49 152.235 297.49C152.095 297.49 151.969 297.503 151.855 297.53C151.742 297.557 151.645 297.597 151.565 297.65C151.492 297.703 151.435 297.77 151.395 297.85C151.355 297.93 151.335 298.02 151.335 298.12C151.342 298.207 151.362 298.29 151.395 298.37C151.435 298.443 151.489 298.507 151.555 298.56C151.629 298.613 151.739 298.67 151.885 298.73C152.032 298.79 152.219 298.847 152.445 298.9C152.779 298.987 153.052 299.083 153.265 299.19C153.485 299.29 153.659 299.407 153.785 299.54C153.919 299.667 154.012 299.813 154.065 299.98C154.119 300.147 154.145 300.333 154.145 300.54C154.145 300.84 154.059 301.11 153.885 301.35C153.719 301.583 153.492 301.767 153.205 301.9C152.919 302.033 152.599 302.1 152.245 302.1ZM158.343 302V295H162.753V296.04H159.423V300.96H162.753V302H158.343ZM158.833 298.93V297.89H162.203V298.93H158.833ZM167.716 302L166.016 299.79L165.866 299.6L163.656 296.75H164.956L166.626 298.93L166.796 299.15L168.976 302H167.716ZM163.666 302L165.736 299.3L166.346 300.03L164.886 302H163.666ZM166.856 299.46L166.286 298.74L167.576 296.75H168.796L166.856 299.46ZM169.841 304.2V296.75H170.881V297.95L170.721 297.86C170.761 297.66 170.874 297.47 171.061 297.29C171.248 297.103 171.474 296.953 171.741 296.84C172.014 296.72 172.294 296.66 172.581 296.66C173.054 296.66 173.474 296.777 173.841 297.01C174.208 297.243 174.498 297.563 174.711 297.97C174.924 298.377 175.031 298.843 175.031 299.37C175.031 299.89 174.924 300.357 174.711 300.77C174.504 301.177 174.218 301.5 173.851 301.74C173.484 301.973 173.071 302.09 172.611 302.09C172.304 302.09 172.008 302.03 171.721 301.91C171.434 301.783 171.191 301.623 170.991 301.43C170.791 301.237 170.668 301.037 170.621 300.83L170.881 300.69V304.2H169.841ZM172.441 301.14C172.748 301.14 173.021 301.063 173.261 300.91C173.501 300.757 173.691 300.547 173.831 300.28C173.971 300.013 174.041 299.71 174.041 299.37C174.041 299.03 173.971 298.73 173.831 298.47C173.698 298.203 173.511 297.993 173.271 297.84C173.031 297.687 172.754 297.61 172.441 297.61C172.128 297.61 171.851 297.687 171.611 297.84C171.371 297.987 171.181 298.193 171.041 298.46C170.901 298.727 170.831 299.03 170.831 299.37C170.831 299.71 170.901 300.013 171.041 300.28C171.181 300.547 171.371 300.757 171.611 300.91C171.851 301.063 172.128 301.14 172.441 301.14ZM176.32 302V296.75H177.35V302H176.32ZM176.82 295.59C176.6 295.59 176.43 295.533 176.31 295.42C176.19 295.307 176.13 295.147 176.13 294.94C176.13 294.747 176.19 294.59 176.31 294.47C176.436 294.35 176.606 294.29 176.82 294.29C177.04 294.29 177.21 294.347 177.33 294.46C177.45 294.573 177.51 294.733 177.51 294.94C177.51 295.133 177.446 295.29 177.32 295.41C177.2 295.53 177.033 295.59 176.82 295.59ZM178.933 302V296.75H179.973V298.4L179.873 298C179.946 297.747 180.07 297.517 180.243 297.31C180.423 297.103 180.626 296.94 180.853 296.82C181.086 296.7 181.326 296.64 181.573 296.64C181.686 296.64 181.793 296.65 181.893 296.67C182 296.69 182.083 296.713 182.143 296.74L181.873 297.86C181.793 297.827 181.703 297.8 181.603 297.78C181.51 297.753 181.416 297.74 181.323 297.74C181.143 297.74 180.97 297.777 180.803 297.85C180.643 297.917 180.5 298.013 180.373 298.14C180.253 298.26 180.156 298.403 180.083 298.57C180.01 298.73 179.973 298.907 179.973 299.1V302H178.933ZM183.136 302V296.75H184.166V302H183.136ZM183.636 295.59C183.416 295.59 183.246 295.533 183.126 295.42C183.006 295.307 182.946 295.147 182.946 294.94C182.946 294.747 183.006 294.59 183.126 294.47C183.253 294.35 183.423 294.29 183.636 294.29C183.856 294.29 184.026 294.347 184.146 294.46C184.266 294.573 184.326 294.733 184.326 294.94C184.326 295.133 184.263 295.29 184.136 295.41C184.016 295.53 183.849 295.59 183.636 295.59ZM185.749 302V296.75H186.779V297.83L186.599 297.95C186.666 297.717 186.796 297.503 186.989 297.31C187.183 297.11 187.413 296.95 187.679 296.83C187.946 296.703 188.219 296.64 188.499 296.64C188.899 296.64 189.233 296.72 189.499 296.88C189.766 297.033 189.966 297.27 190.099 297.59C190.233 297.91 190.299 298.313 190.299 298.8V302H189.269V298.87C189.269 298.57 189.229 298.323 189.149 298.13C189.069 297.93 188.946 297.787 188.779 297.7C188.613 297.607 188.406 297.567 188.159 297.58C187.959 297.58 187.776 297.613 187.609 297.68C187.443 297.74 187.296 297.827 187.169 297.94C187.049 298.053 186.953 298.187 186.879 298.34C186.813 298.487 186.779 298.647 186.779 298.82V302H186.269C186.183 302 186.096 302 186.009 302C185.923 302 185.836 302 185.749 302ZM194.047 304.3C193.673 304.3 193.3 304.24 192.927 304.12C192.56 304.007 192.263 303.857 192.037 303.67L192.417 302.87C192.55 302.97 192.707 303.057 192.887 303.13C193.067 303.21 193.257 303.27 193.457 303.31C193.657 303.357 193.853 303.38 194.047 303.38C194.413 303.38 194.72 303.32 194.967 303.2C195.213 303.08 195.4 302.903 195.527 302.67C195.653 302.437 195.717 302.147 195.717 301.8V300.79L195.827 300.86C195.793 301.067 195.683 301.267 195.497 301.46C195.317 301.647 195.09 301.8 194.817 301.92C194.543 302.04 194.263 302.1 193.977 302.1C193.477 302.1 193.03 301.983 192.637 301.75C192.25 301.51 191.943 301.187 191.717 300.78C191.49 300.367 191.377 299.897 191.377 299.37C191.377 298.843 191.487 298.377 191.707 297.97C191.933 297.557 192.24 297.233 192.627 297C193.02 296.76 193.46 296.64 193.947 296.64C194.147 296.64 194.34 296.667 194.527 296.72C194.713 296.767 194.887 296.837 195.047 296.93C195.207 297.017 195.35 297.113 195.477 297.22C195.603 297.327 195.707 297.44 195.787 297.56C195.867 297.68 195.917 297.793 195.937 297.9L195.717 297.98V296.75H196.747V301.68C196.747 302.1 196.683 302.47 196.557 302.79C196.437 303.117 196.26 303.39 196.027 303.61C195.793 303.837 195.51 304.007 195.177 304.12C194.843 304.24 194.467 304.3 194.047 304.3ZM194.087 301.15C194.413 301.15 194.703 301.073 194.957 300.92C195.21 300.767 195.407 300.557 195.547 300.29C195.687 300.023 195.757 299.717 195.757 299.37C195.757 299.023 195.683 298.717 195.537 298.45C195.397 298.177 195.2 297.963 194.947 297.81C194.7 297.657 194.413 297.58 194.087 297.58C193.767 297.58 193.48 297.66 193.227 297.82C192.98 297.973 192.783 298.187 192.637 298.46C192.497 298.727 192.427 299.03 192.427 299.37C192.427 299.71 192.497 300.017 192.637 300.29C192.783 300.557 192.98 300.767 193.227 300.92C193.48 301.073 193.767 301.15 194.087 301.15ZM201.163 302V296.75H202.193V302H201.163ZM201.663 295.59C201.443 295.59 201.273 295.533 201.153 295.42C201.033 295.307 200.973 295.147 200.973 294.94C200.973 294.747 201.033 294.59 201.153 294.47C201.28 294.35 201.45 294.29 201.663 294.29C201.883 294.29 202.053 294.347 202.173 294.46C202.293 294.573 202.353 294.733 202.353 294.94C202.353 295.133 202.29 295.29 202.163 295.41C202.043 295.53 201.877 295.59 201.663 295.59ZM203.777 302V296.75H204.807V297.83L204.627 297.95C204.693 297.717 204.823 297.503 205.017 297.31C205.21 297.11 205.44 296.95 205.707 296.83C205.973 296.703 206.247 296.64 206.527 296.64C206.927 296.64 207.26 296.72 207.527 296.88C207.793 297.033 207.993 297.27 208.127 297.59C208.26 297.91 208.327 298.313 208.327 298.8V302H207.297V298.87C207.297 298.57 207.257 298.323 207.177 298.13C207.097 297.93 206.973 297.787 206.807 297.7C206.64 297.607 206.433 297.567 206.187 297.58C205.987 297.58 205.803 297.613 205.637 297.68C205.47 297.74 205.323 297.827 205.197 297.94C205.077 298.053 204.98 298.187 204.907 298.34C204.84 298.487 204.807 298.647 204.807 298.82V302H204.297C204.21 302 204.123 302 204.037 302C203.95 302 203.863 302 203.777 302ZM212.737 302L212.407 301.18L214.547 298.77C214.66 298.65 214.777 298.513 214.897 298.36C215.023 298.2 215.143 298.037 215.257 297.87C215.37 297.703 215.46 297.54 215.527 297.38C215.6 297.213 215.637 297.057 215.637 296.91C215.637 296.697 215.593 296.517 215.507 296.37C215.427 296.217 215.307 296.1 215.147 296.02C214.993 295.94 214.807 295.9 214.587 295.9C214.393 295.9 214.203 295.957 214.017 296.07C213.83 296.183 213.66 296.343 213.507 296.55C213.353 296.757 213.233 296.997 213.147 297.27L212.317 296.75C212.43 296.363 212.6 296.033 212.827 295.76C213.06 295.48 213.337 295.267 213.657 295.12C213.983 294.973 214.337 294.9 214.717 294.9C215.11 294.9 215.46 294.983 215.767 295.15C216.073 295.31 216.313 295.537 216.487 295.83C216.66 296.117 216.747 296.45 216.747 296.83C216.747 296.983 216.73 297.14 216.697 297.3C216.663 297.46 216.61 297.627 216.537 297.8C216.463 297.967 216.37 298.143 216.257 298.33C216.143 298.51 216.007 298.7 215.847 298.9C215.693 299.1 215.517 299.31 215.317 299.53L213.727 301.26L213.527 300.96H216.967V302H212.737ZM222.998 302.1C222.518 302.1 222.088 301.983 221.708 301.75C221.335 301.51 221.038 301.187 220.818 300.78C220.598 300.367 220.488 299.897 220.488 299.37C220.488 298.843 220.595 298.377 220.808 297.97C221.028 297.557 221.325 297.233 221.698 297C222.071 296.76 222.495 296.64 222.968 296.64C223.228 296.64 223.478 296.683 223.718 296.77C223.965 296.85 224.185 296.963 224.378 297.11C224.571 297.25 224.721 297.407 224.828 297.58C224.941 297.747 224.998 297.917 224.998 298.09L224.698 298.11V294.6H225.728V302H224.698V300.75H224.898C224.898 300.91 224.845 301.07 224.738 301.23C224.631 301.383 224.488 301.527 224.308 301.66C224.135 301.793 223.931 301.9 223.698 301.98C223.471 302.06 223.238 302.1 222.998 302.1ZM223.138 301.21C223.451 301.21 223.728 301.13 223.968 300.97C224.208 300.81 224.395 300.593 224.528 300.32C224.668 300.04 224.738 299.723 224.738 299.37C224.738 299.017 224.668 298.703 224.528 298.43C224.395 298.15 224.208 297.93 223.968 297.77C223.728 297.61 223.451 297.53 223.138 297.53C222.825 297.53 222.548 297.61 222.308 297.77C222.068 297.93 221.878 298.15 221.738 298.43C221.605 298.703 221.538 299.017 221.538 299.37C221.538 299.723 221.605 300.04 221.738 300.32C221.878 300.593 222.068 300.81 222.308 300.97C222.548 301.13 222.825 301.21 223.138 301.21ZM229.166 302.1C228.732 302.1 228.336 301.98 227.976 301.74C227.622 301.5 227.339 301.173 227.126 300.76C226.912 300.347 226.806 299.88 226.806 299.36C226.806 298.833 226.912 298.367 227.126 297.96C227.346 297.547 227.639 297.223 228.006 296.99C228.379 296.757 228.796 296.64 229.256 296.64C229.529 296.64 229.779 296.68 230.006 296.76C230.232 296.84 230.429 296.953 230.596 297.1C230.769 297.24 230.909 297.403 231.016 297.59C231.129 297.777 231.199 297.977 231.226 298.19L230.996 298.11V296.75H232.036V302H230.996V300.75L231.236 300.68C231.196 300.86 231.112 301.037 230.986 301.21C230.866 301.377 230.709 301.527 230.516 301.66C230.329 301.793 230.119 301.9 229.886 301.98C229.659 302.06 229.419 302.1 229.166 302.1ZM229.436 301.15C229.749 301.15 230.026 301.073 230.266 300.92C230.506 300.767 230.692 300.557 230.826 300.29C230.966 300.017 231.036 299.707 231.036 299.36C231.036 299.02 230.966 298.717 230.826 298.45C230.692 298.183 230.506 297.973 230.266 297.82C230.026 297.667 229.749 297.59 229.436 297.59C229.129 297.59 228.856 297.667 228.616 297.82C228.382 297.973 228.196 298.183 228.056 298.45C227.922 298.717 227.856 299.02 227.856 299.36C227.856 299.707 227.922 300.017 228.056 300.29C228.196 300.557 228.382 300.767 228.616 300.92C228.856 301.073 229.129 301.15 229.436 301.15ZM234.237 304.3L235.297 301.85L235.307 302.67L232.687 296.75H233.887L235.527 300.61C235.56 300.677 235.6 300.78 235.647 300.92C235.693 301.053 235.733 301.187 235.767 301.32L235.507 301.38C235.56 301.24 235.61 301.1 235.657 300.96C235.71 300.82 235.76 300.68 235.807 300.54L237.177 296.75H238.397L236.237 302L235.347 304.3H234.237ZM240.82 302.1C240.38 302.1 239.983 302.023 239.63 301.87C239.276 301.717 238.983 301.49 238.75 301.19L239.45 300.59C239.65 300.823 239.866 300.993 240.1 301.1C240.34 301.2 240.61 301.25 240.91 301.25C241.03 301.25 241.14 301.237 241.24 301.21C241.346 301.177 241.436 301.13 241.51 301.07C241.59 301.01 241.65 300.94 241.69 300.86C241.73 300.773 241.75 300.68 241.75 300.58C241.75 300.407 241.686 300.267 241.56 300.16C241.493 300.113 241.386 300.063 241.24 300.01C241.1 299.95 240.916 299.89 240.69 299.83C240.303 299.73 239.986 299.617 239.74 299.49C239.493 299.363 239.303 299.22 239.17 299.06C239.07 298.933 238.996 298.797 238.95 298.65C238.903 298.497 238.88 298.33 238.88 298.15C238.88 297.93 238.926 297.73 239.02 297.55C239.12 297.363 239.253 297.203 239.42 297.07C239.593 296.93 239.793 296.823 240.02 296.75C240.253 296.677 240.5 296.64 240.76 296.64C241.006 296.64 241.25 296.673 241.49 296.74C241.736 296.807 241.963 296.903 242.17 297.03C242.376 297.157 242.55 297.307 242.69 297.48L242.1 298.13C241.973 298.003 241.833 297.893 241.68 297.8C241.533 297.7 241.383 297.623 241.23 297.57C241.076 297.517 240.936 297.49 240.81 297.49C240.67 297.49 240.543 297.503 240.43 297.53C240.316 297.557 240.22 297.597 240.14 297.65C240.066 297.703 240.01 297.77 239.97 297.85C239.93 297.93 239.91 298.02 239.91 298.12C239.916 298.207 239.936 298.29 239.97 298.37C240.01 298.443 240.063 298.507 240.13 298.56C240.203 298.613 240.313 298.67 240.46 298.73C240.606 298.79 240.793 298.847 241.02 298.9C241.353 298.987 241.626 299.083 241.84 299.19C242.06 299.29 242.233 299.407 242.36 299.54C242.493 299.667 242.586 299.813 242.64 299.98C242.693 300.147 242.72 300.333 242.72 300.54C242.72 300.84 242.633 301.11 242.46 301.35C242.293 301.583 242.066 301.767 241.78 301.9C241.493 302.033 241.173 302.1 240.82 302.1Z" fill="#3B3B3B"/>
<path d="M145.72 354V353H146.85V348H145.72V347H149.06V348H147.93V353H149.06V354H145.72ZM152.245 354.1C151.805 354.1 151.409 354.023 151.055 353.87C150.702 353.717 150.409 353.49 150.175 353.19L150.875 352.59C151.075 352.823 151.292 352.993 151.525 353.1C151.765 353.2 152.035 353.25 152.335 353.25C152.455 353.25 152.565 353.237 152.665 353.21C152.772 353.177 152.862 353.13 152.935 353.07C153.015 353.01 153.075 352.94 153.115 352.86C153.155 352.773 153.175 352.68 153.175 352.58C153.175 352.407 153.112 352.267 152.985 352.16C152.919 352.113 152.812 352.063 152.665 352.01C152.525 351.95 152.342 351.89 152.115 351.83C151.729 351.73 151.412 351.617 151.165 351.49C150.919 351.363 150.729 351.22 150.595 351.06C150.495 350.933 150.422 350.797 150.375 350.65C150.329 350.497 150.305 350.33 150.305 350.15C150.305 349.93 150.352 349.73 150.445 349.55C150.545 349.363 150.679 349.203 150.845 349.07C151.019 348.93 151.219 348.823 151.445 348.75C151.679 348.677 151.925 348.64 152.185 348.64C152.432 348.64 152.675 348.673 152.915 348.74C153.162 348.807 153.389 348.903 153.595 349.03C153.802 349.157 153.975 349.307 154.115 349.48L153.525 350.13C153.399 350.003 153.259 349.893 153.105 349.8C152.959 349.7 152.809 349.623 152.655 349.57C152.502 349.517 152.362 349.49 152.235 349.49C152.095 349.49 151.969 349.503 151.855 349.53C151.742 349.557 151.645 349.597 151.565 349.65C151.492 349.703 151.435 349.77 151.395 349.85C151.355 349.93 151.335 350.02 151.335 350.12C151.342 350.207 151.362 350.29 151.395 350.37C151.435 350.443 151.489 350.507 151.555 350.56C151.629 350.613 151.739 350.67 151.885 350.73C152.032 350.79 152.219 350.847 152.445 350.9C152.779 350.987 153.052 351.083 153.265 351.19C153.485 351.29 153.659 351.407 153.785 351.54C153.919 351.667 154.012 351.813 154.065 351.98C154.119 352.147 154.145 352.333 154.145 352.54C154.145 352.84 154.059 353.11 153.885 353.35C153.719 353.583 153.492 353.767 153.205 353.9C152.919 354.033 152.599 354.1 152.245 354.1ZM160.843 354.1C160.617 354.1 160.39 354.063 160.163 353.99C159.943 353.917 159.74 353.82 159.553 353.7C159.373 353.573 159.22 353.437 159.093 353.29C158.973 353.137 158.893 352.983 158.853 352.83L159.113 352.69V353.97H158.083V346.6H159.113V349.95L158.953 349.86C158.987 349.707 159.06 349.56 159.173 349.42C159.287 349.273 159.43 349.143 159.603 349.03C159.783 348.91 159.977 348.817 160.183 348.75C160.39 348.677 160.6 348.64 160.813 348.64C161.287 348.64 161.707 348.757 162.073 348.99C162.44 349.223 162.73 349.547 162.943 349.96C163.157 350.367 163.263 350.833 163.263 351.36C163.263 351.887 163.157 352.357 162.943 352.77C162.737 353.183 162.45 353.51 162.083 353.75C161.717 353.983 161.303 354.1 160.843 354.1ZM160.673 353.16C160.98 353.16 161.253 353.083 161.493 352.93C161.733 352.77 161.923 352.557 162.063 352.29C162.203 352.017 162.273 351.707 162.273 351.36C162.273 351.02 162.203 350.717 162.063 350.45C161.93 350.177 161.743 349.963 161.503 349.81C161.263 349.657 160.987 349.58 160.673 349.58C160.36 349.58 160.083 349.657 159.843 349.81C159.603 349.963 159.413 350.177 159.273 350.45C159.133 350.717 159.063 351.02 159.063 351.36C159.063 351.707 159.133 352.017 159.273 352.29C159.413 352.557 159.603 352.77 159.843 352.93C160.083 353.083 160.36 353.16 160.673 353.16ZM166.832 354.1C166.292 354.1 165.812 353.987 165.392 353.76C164.979 353.527 164.652 353.21 164.412 352.81C164.179 352.41 164.062 351.95 164.062 351.43C164.062 351.017 164.129 350.64 164.262 350.3C164.395 349.96 164.579 349.667 164.812 349.42C165.052 349.167 165.335 348.973 165.662 348.84C165.995 348.7 166.355 348.63 166.742 348.63C167.082 348.63 167.399 348.697 167.692 348.83C167.985 348.957 168.239 349.133 168.452 349.36C168.672 349.587 168.839 349.857 168.952 350.17C169.072 350.477 169.129 350.813 169.122 351.18L169.112 351.62H164.822L164.592 350.8H168.222L168.072 350.97V350.73C168.052 350.51 167.979 350.313 167.852 350.14C167.725 349.967 167.565 349.83 167.372 349.73C167.179 349.63 166.969 349.58 166.742 349.58C166.382 349.58 166.079 349.65 165.832 349.79C165.585 349.923 165.399 350.123 165.272 350.39C165.145 350.65 165.082 350.973 165.082 351.36C165.082 351.727 165.159 352.047 165.312 352.32C165.465 352.587 165.682 352.793 165.962 352.94C166.242 353.087 166.565 353.16 166.932 353.16C167.192 353.16 167.432 353.117 167.652 353.03C167.879 352.943 168.122 352.787 168.382 352.56L168.902 353.29C168.742 353.45 168.545 353.59 168.312 353.71C168.085 353.83 167.842 353.927 167.582 354C167.329 354.067 167.079 354.1 166.832 354.1ZM170.261 354V346.6H171.291V354H170.261ZM175.014 354.1C174.5 354.1 174.04 353.983 173.634 353.75C173.234 353.51 172.917 353.187 172.684 352.78C172.45 352.367 172.334 351.897 172.334 351.37C172.334 350.843 172.45 350.377 172.684 349.97C172.917 349.557 173.234 349.233 173.634 349C174.04 348.76 174.5 348.64 175.014 348.64C175.52 348.64 175.974 348.76 176.374 349C176.78 349.233 177.1 349.557 177.334 349.97C177.567 350.377 177.684 350.843 177.684 351.37C177.684 351.897 177.567 352.367 177.334 352.78C177.1 353.187 176.78 353.51 176.374 353.75C175.974 353.983 175.52 354.1 175.014 354.1ZM175.014 353.16C175.327 353.16 175.607 353.083 175.854 352.93C176.1 352.77 176.294 352.557 176.434 352.29C176.574 352.017 176.64 351.71 176.634 351.37C176.64 351.023 176.574 350.717 176.434 350.45C176.294 350.177 176.1 349.963 175.854 349.81C175.607 349.657 175.327 349.58 175.014 349.58C174.7 349.58 174.417 349.66 174.164 349.82C173.917 349.973 173.724 350.187 173.584 350.46C173.444 350.727 173.377 351.03 173.384 351.37C173.377 351.71 173.444 352.017 173.584 352.29C173.724 352.557 173.917 352.77 174.164 352.93C174.417 353.083 174.7 353.16 175.014 353.16ZM179.901 354L178.111 348.75L179.151 348.74L180.431 352.67L180.201 352.65L181.591 349.58H182.211L183.611 352.66L183.341 352.68L184.631 348.75H185.671L183.901 354H183.191L181.731 350.66L181.961 350.69L180.601 354H179.901ZM190.061 354V347.41H191.091V354H190.061ZM188.971 349.75V348.75H192.311V349.75H188.971ZM193.249 354V346.6H194.279V349.83L194.099 349.95C194.166 349.717 194.296 349.503 194.489 349.31C194.683 349.11 194.913 348.95 195.179 348.83C195.446 348.703 195.719 348.64 195.999 348.64C196.399 348.64 196.733 348.72 196.999 348.88C197.266 349.033 197.466 349.27 197.599 349.59C197.733 349.91 197.799 350.313 197.799 350.8V354H196.769V350.87C196.769 350.57 196.729 350.323 196.649 350.13C196.569 349.93 196.446 349.787 196.279 349.7C196.113 349.607 195.906 349.567 195.659 349.58C195.459 349.58 195.276 349.613 195.109 349.68C194.943 349.74 194.796 349.827 194.669 349.94C194.549 350.053 194.453 350.187 194.379 350.34C194.313 350.487 194.279 350.647 194.279 350.82V354H193.769C193.683 354 193.596 354 193.509 354C193.423 354 193.336 354 193.249 354ZM199.197 354V348.75H200.237V350.4L200.137 350C200.21 349.747 200.333 349.517 200.507 349.31C200.687 349.103 200.89 348.94 201.117 348.82C201.35 348.7 201.59 348.64 201.837 348.64C201.95 348.64 202.057 348.65 202.157 348.67C202.263 348.69 202.347 348.713 202.407 348.74L202.137 349.86C202.057 349.827 201.967 349.8 201.867 349.78C201.773 349.753 201.68 349.74 201.587 349.74C201.407 349.74 201.233 349.777 201.067 349.85C200.907 349.917 200.763 350.013 200.637 350.14C200.517 350.26 200.42 350.403 200.347 350.57C200.273 350.73 200.237 350.907 200.237 351.1V354H199.197ZM205.455 354.1C204.915 354.1 204.435 353.987 204.015 353.76C203.602 353.527 203.275 353.21 203.035 352.81C202.802 352.41 202.685 351.95 202.685 351.43C202.685 351.017 202.752 350.64 202.885 350.3C203.018 349.96 203.202 349.667 203.435 349.42C203.675 349.167 203.958 348.973 204.285 348.84C204.618 348.7 204.978 348.63 205.365 348.63C205.705 348.63 206.022 348.697 206.315 348.83C206.608 348.957 206.862 349.133 207.075 349.36C207.295 349.587 207.462 349.857 207.575 350.17C207.695 350.477 207.752 350.813 207.745 351.18L207.735 351.62H203.445L203.215 350.8H206.845L206.695 350.97V350.73C206.675 350.51 206.602 350.313 206.475 350.14C206.348 349.967 206.188 349.83 205.995 349.73C205.802 349.63 205.592 349.58 205.365 349.58C205.005 349.58 204.702 349.65 204.455 349.79C204.208 349.923 204.022 350.123 203.895 350.39C203.768 350.65 203.705 350.973 203.705 351.36C203.705 351.727 203.782 352.047 203.935 352.32C204.088 352.587 204.305 352.793 204.585 352.94C204.865 353.087 205.188 353.16 205.555 353.16C205.815 353.16 206.055 353.117 206.275 353.03C206.502 352.943 206.745 352.787 207.005 352.56L207.525 353.29C207.365 353.45 207.168 353.59 206.935 353.71C206.708 353.83 206.465 353.927 206.205 354C205.952 354.067 205.702 354.1 205.455 354.1ZM210.615 354.1C210.175 354.1 209.778 354.023 209.425 353.87C209.071 353.717 208.778 353.49 208.545 353.19L209.245 352.59C209.445 352.823 209.661 352.993 209.895 353.1C210.135 353.2 210.405 353.25 210.705 353.25C210.825 353.25 210.935 353.237 211.035 353.21C211.141 353.177 211.231 353.13 211.305 353.07C211.385 353.01 211.445 352.94 211.485 352.86C211.525 352.773 211.545 352.68 211.545 352.58C211.545 352.407 211.481 352.267 211.355 352.16C211.288 352.113 211.181 352.063 211.035 352.01C210.895 351.95 210.711 351.89 210.485 351.83C210.098 351.73 209.781 351.617 209.535 351.49C209.288 351.363 209.098 351.22 208.965 351.06C208.865 350.933 208.791 350.797 208.745 350.65C208.698 350.497 208.675 350.33 208.675 350.15C208.675 349.93 208.721 349.73 208.815 349.55C208.915 349.363 209.048 349.203 209.215 349.07C209.388 348.93 209.588 348.823 209.815 348.75C210.048 348.677 210.295 348.64 210.555 348.64C210.801 348.64 211.045 348.673 211.285 348.74C211.531 348.807 211.758 348.903 211.965 349.03C212.171 349.157 212.345 349.307 212.485 349.48L211.895 350.13C211.768 350.003 211.628 349.893 211.475 349.8C211.328 349.7 211.178 349.623 211.025 349.57C210.871 349.517 210.731 349.49 210.605 349.49C210.465 349.49 210.338 349.503 210.225 349.53C210.111 349.557 210.015 349.597 209.935 349.65C209.861 349.703 209.805 349.77 209.765 349.85C209.725 349.93 209.705 350.02 209.705 350.12C209.711 350.207 209.731 350.29 209.765 350.37C209.805 350.443 209.858 350.507 209.925 350.56C209.998 350.613 210.108 350.67 210.255 350.73C210.401 350.79 210.588 350.847 210.815 350.9C211.148 350.987 211.421 351.083 211.635 351.19C211.855 351.29 212.028 351.407 212.155 351.54C212.288 351.667 212.381 351.813 212.435 351.98C212.488 352.147 212.515 352.333 212.515 352.54C212.515 352.84 212.428 353.11 212.255 353.35C212.088 353.583 211.861 353.767 211.575 353.9C211.288 354.033 210.968 354.1 210.615 354.1ZM213.65 354V346.6H214.68V349.83L214.5 349.95C214.566 349.717 214.696 349.503 214.89 349.31C215.083 349.11 215.313 348.95 215.58 348.83C215.846 348.703 216.12 348.64 216.4 348.64C216.8 348.64 217.133 348.72 217.4 348.88C217.666 349.033 217.866 349.27 218 349.59C218.133 349.91 218.2 350.313 218.2 350.8V354H217.17V350.87C217.17 350.57 217.13 350.323 217.05 350.13C216.97 349.93 216.846 349.787 216.68 349.7C216.513 349.607 216.306 349.567 216.06 349.58C215.86 349.58 215.676 349.613 215.51 349.68C215.343 349.74 215.196 349.827 215.07 349.94C214.95 350.053 214.853 350.187 214.78 350.34C214.713 350.487 214.68 350.647 214.68 350.82V354H214.17C214.083 354 213.996 354 213.91 354C213.823 354 213.736 354 213.65 354ZM221.957 354.1C221.444 354.1 220.984 353.983 220.577 353.75C220.177 353.51 219.86 353.187 219.627 352.78C219.394 352.367 219.277 351.897 219.277 351.37C219.277 350.843 219.394 350.377 219.627 349.97C219.86 349.557 220.177 349.233 220.577 349C220.984 348.76 221.444 348.64 221.957 348.64C222.464 348.64 222.917 348.76 223.317 349C223.724 349.233 224.044 349.557 224.277 349.97C224.51 350.377 224.627 350.843 224.627 351.37C224.627 351.897 224.51 352.367 224.277 352.78C224.044 353.187 223.724 353.51 223.317 353.75C222.917 353.983 222.464 354.1 221.957 354.1ZM221.957 353.16C222.27 353.16 222.55 353.083 222.797 352.93C223.044 352.77 223.237 352.557 223.377 352.29C223.517 352.017 223.584 351.71 223.577 351.37C223.584 351.023 223.517 350.717 223.377 350.45C223.237 350.177 223.044 349.963 222.797 349.81C222.55 349.657 222.27 349.58 221.957 349.58C221.644 349.58 221.36 349.66 221.107 349.82C220.86 349.973 220.667 350.187 220.527 350.46C220.387 350.727 220.32 351.03 220.327 351.37C220.32 351.71 220.387 352.017 220.527 352.29C220.667 352.557 220.86 352.77 221.107 352.93C221.36 353.083 221.644 353.16 221.957 353.16ZM225.769 354V346.6H226.799V354H225.769ZM230.351 354.1C229.871 354.1 229.441 353.983 229.061 353.75C228.688 353.51 228.391 353.187 228.171 352.78C227.951 352.367 227.841 351.897 227.841 351.37C227.841 350.843 227.948 350.377 228.161 349.97C228.381 349.557 228.678 349.233 229.051 349C229.425 348.76 229.848 348.64 230.321 348.64C230.581 348.64 230.831 348.683 231.071 348.77C231.318 348.85 231.538 348.963 231.731 349.11C231.925 349.25 232.075 349.407 232.181 349.58C232.295 349.747 232.351 349.917 232.351 350.09L232.051 350.11V346.6H233.081V354H232.051V352.75H232.251C232.251 352.91 232.198 353.07 232.091 353.23C231.985 353.383 231.841 353.527 231.661 353.66C231.488 353.793 231.285 353.9 231.051 353.98C230.825 354.06 230.591 354.1 230.351 354.1ZM230.491 353.21C230.805 353.21 231.081 353.13 231.321 352.97C231.561 352.81 231.748 352.593 231.881 352.32C232.021 352.04 232.091 351.723 232.091 351.37C232.091 351.017 232.021 350.703 231.881 350.43C231.748 350.15 231.561 349.93 231.321 349.77C231.081 349.61 230.805 349.53 230.491 349.53C230.178 349.53 229.901 349.61 229.661 349.77C229.421 349.93 229.231 350.15 229.091 350.43C228.958 350.703 228.891 351.017 228.891 351.37C228.891 351.723 228.958 352.04 229.091 352.32C229.231 352.593 229.421 352.81 229.661 352.97C229.901 353.13 230.178 353.21 230.491 353.21ZM239.052 354.1C238.612 354.1 238.215 354.023 237.862 353.87C237.509 353.717 237.215 353.49 236.982 353.19L237.682 352.59C237.882 352.823 238.099 352.993 238.332 353.1C238.572 353.2 238.842 353.25 239.142 353.25C239.262 353.25 239.372 353.237 239.472 353.21C239.579 353.177 239.669 353.13 239.742 353.07C239.822 353.01 239.882 352.94 239.922 352.86C239.962 352.773 239.982 352.68 239.982 352.58C239.982 352.407 239.919 352.267 239.792 352.16C239.725 352.113 239.619 352.063 239.472 352.01C239.332 351.95 239.149 351.89 238.922 351.83C238.535 351.73 238.219 351.617 237.972 351.49C237.725 351.363 237.535 351.22 237.402 351.06C237.302 350.933 237.229 350.797 237.182 350.65C237.135 350.497 237.112 350.33 237.112 350.15C237.112 349.93 237.159 349.73 237.252 349.55C237.352 349.363 237.485 349.203 237.652 349.07C237.825 348.93 238.025 348.823 238.252 348.75C238.485 348.677 238.732 348.64 238.992 348.64C239.239 348.64 239.482 348.673 239.722 348.74C239.969 348.807 240.195 348.903 240.402 349.03C240.609 349.157 240.782 349.307 240.922 349.48L240.332 350.13C240.205 350.003 240.065 349.893 239.912 349.8C239.765 349.7 239.615 349.623 239.462 349.57C239.309 349.517 239.169 349.49 239.042 349.49C238.902 349.49 238.775 349.503 238.662 349.53C238.549 349.557 238.452 349.597 238.372 349.65C238.299 349.703 238.242 349.77 238.202 349.85C238.162 349.93 238.142 350.02 238.142 350.12C238.149 350.207 238.169 350.29 238.202 350.37C238.242 350.443 238.295 350.507 238.362 350.56C238.435 350.613 238.545 350.67 238.692 350.73C238.839 350.79 239.025 350.847 239.252 350.9C239.585 350.987 239.859 351.083 240.072 351.19C240.292 351.29 240.465 351.407 240.592 351.54C240.725 351.667 240.819 351.813 240.872 351.98C240.925 352.147 240.952 352.333 240.952 352.54C240.952 352.84 240.865 353.11 240.692 353.35C240.525 353.583 240.299 353.767 240.012 353.9C239.725 354.033 239.405 354.1 239.052 354.1ZM242.737 354V347.41H243.767V354H242.737ZM241.647 349.75V348.75H244.987V349.75H241.647ZM248.236 354.1C247.723 354.1 247.263 353.983 246.856 353.75C246.456 353.51 246.14 353.187 245.906 352.78C245.673 352.367 245.556 351.897 245.556 351.37C245.556 350.843 245.673 350.377 245.906 349.97C246.14 349.557 246.456 349.233 246.856 349C247.263 348.76 247.723 348.64 248.236 348.64C248.743 348.64 249.196 348.76 249.596 349C250.003 349.233 250.323 349.557 250.556 349.97C250.79 350.377 250.906 350.843 250.906 351.37C250.906 351.897 250.79 352.367 250.556 352.78C250.323 353.187 250.003 353.51 249.596 353.75C249.196 353.983 248.743 354.1 248.236 354.1ZM248.236 353.16C248.55 353.16 248.83 353.083 249.076 352.93C249.323 352.77 249.516 352.557 249.656 352.29C249.796 352.017 249.863 351.71 249.856 351.37C249.863 351.023 249.796 350.717 249.656 350.45C249.516 350.177 249.323 349.963 249.076 349.81C248.83 349.657 248.55 349.58 248.236 349.58C247.923 349.58 247.64 349.66 247.386 349.82C247.14 349.973 246.946 350.187 246.806 350.46C246.666 350.727 246.6 351.03 246.606 351.37C246.6 351.71 246.666 352.017 246.806 352.29C246.946 352.557 247.14 352.77 247.386 352.93C247.64 353.083 247.923 353.16 248.236 353.16ZM254.259 354.1C253.772 354.1 253.335 353.98 252.949 353.74C252.569 353.5 252.265 353.173 252.039 352.76C251.819 352.347 251.709 351.883 251.709 351.37C251.709 350.857 251.819 350.393 252.039 349.98C252.265 349.567 252.569 349.24 252.949 349C253.335 348.76 253.772 348.64 254.259 348.64C254.725 348.64 255.149 348.737 255.529 348.93C255.915 349.117 256.209 349.373 256.409 349.7L255.839 350.4C255.732 350.247 255.595 350.107 255.429 349.98C255.262 349.853 255.085 349.753 254.899 349.68C254.712 349.607 254.532 349.57 254.359 349.57C254.039 349.57 253.752 349.65 253.499 349.81C253.252 349.963 253.055 350.177 252.909 350.45C252.762 350.723 252.689 351.03 252.689 351.37C252.689 351.71 252.765 352.017 252.919 352.29C253.072 352.557 253.275 352.77 253.529 352.93C253.782 353.09 254.062 353.17 254.369 353.17C254.549 353.17 254.722 353.14 254.889 353.08C255.062 353.02 255.229 352.93 255.389 352.81C255.549 352.69 255.699 352.543 255.839 352.37L256.409 353.07C256.195 353.37 255.889 353.617 255.489 353.81C255.095 354.003 254.685 354.1 254.259 354.1ZM258.32 352.36L258.27 351.24L260.78 348.75H262.17L258.32 352.36ZM257.38 354V346.6H258.41V354H257.38ZM260.92 354L258.94 351.69L259.67 351.02L262.24 354H260.92Z" fill="#3B3B3B"/>
<circle cx="324" cy="289" r="8" fill="#F45757" fill-opacity="0.38"/>
<circle cx="324" cy="341" r="8" fill="#F45757" fill-opacity="0.38"/>
<path d="M324.052 293C321.831 293 320 291.209 320 289C320 286.791 321.831 285 324.052 285C326.274 285 328.121 286.791 328.121 289C328.121 291.209 326.307 293 324.052 293ZM324.052 286.857C323.828 286.857 323.618 287.048 323.618 287.286C323.618 287.523 323.828 287.714 324.052 287.714C324.309 287.714 324.503 287.523 324.503 287.286C324.503 287.048 324.309 286.857 324.052 286.857ZM324.052 291.286C324.228 291.286 324.358 291.157 324.358 291V288.714C324.358 288.557 324.228 288.429 324.052 288.429C323.91 288.429 323.763 288.557 323.763 288.714V291C323.763 291.157 323.91 291.286 324.052 291.286Z" fill="#F45757"/>
<path d="M324.052 345C321.831 345 320 343.209 320 341C320 338.791 321.831 337 324.052 337C326.274 337 328.121 338.791 328.121 341C328.121 343.209 326.307 345 324.052 345ZM324.052 338.857C323.828 338.857 323.618 339.048 323.618 339.286C323.618 339.523 323.828 339.714 324.052 339.714C324.309 339.714 324.503 339.523 324.503 339.286C324.503 339.048 324.309 338.857 324.052 338.857ZM324.052 343.286C324.228 343.286 324.358 343.157 324.358 343V340.714C324.358 340.557 324.228 340.429 324.052 340.429C323.91 340.429 323.763 340.557 323.763 340.714V343C323.763 343.157 323.91 343.286 324.052 343.286Z" fill="#F45757"/>
</svg>
