<svg width="480" height="540" viewBox="0 0 480 540" fill="none" xmlns="http://www.w3.org/2000/svg">
<path d="M396 76H85C75.6112 76 68 83.6112 68 93V447C68 456.389 75.6112 464 85 464H396C405.389 464 413 456.389 413 447V93C413 83.6112 405.389 76 396 76Z" fill="#F1F5F7"/>
<circle cx="384" cy="114" r="13" fill="black"/>
<path d="M385.273 114L389.137 110.136C389.306 109.968 389.4 109.739 389.4 109.5C389.4 109.261 389.306 109.032 389.137 108.864C388.968 108.695 388.739 108.6 388.5 108.6C388.262 108.6 388.033 108.695 387.864 108.864L384 112.727L380.137 108.864C380.053 108.78 379.954 108.714 379.845 108.669C379.736 108.623 379.619 108.6 379.5 108.6C379.382 108.6 379.265 108.623 379.156 108.669C379.047 108.714 378.948 108.78 378.864 108.864C378.781 108.947 378.714 109.046 378.669 109.156C378.624 109.265 378.601 109.382 378.601 109.5C378.601 109.618 378.624 109.735 378.669 109.844C378.714 109.954 378.781 110.053 378.864 110.136L382.728 114L378.864 117.864C378.695 118.032 378.601 118.261 378.601 118.5C378.601 118.739 378.695 118.968 378.864 119.136C379.033 119.305 379.262 119.4 379.5 119.4C379.739 119.4 379.968 119.305 380.137 119.136L384 115.273L387.864 119.136C387.948 119.22 388.047 119.287 388.156 119.332C388.265 119.378 388.382 119.401 388.5 119.401C388.619 119.401 388.736 119.378 388.845 119.332C388.954 119.287 389.053 119.22 389.137 119.136C389.22 119.053 389.287 118.954 389.332 118.844C389.377 118.735 389.401 118.618 389.401 118.5C389.401 118.382 389.377 118.265 389.332 118.156C389.287 118.046 389.22 117.947 389.137 117.864L385.273 114Z" fill="white"/>
<path d="M84.911 121V106.3H91.295C92.275 106.3 93.101 106.447 93.773 106.741C94.459 107.021 94.977 107.434 95.327 107.98C95.677 108.526 95.852 109.177 95.852 109.933C95.852 110.773 95.642 111.473 95.222 112.033C94.802 112.593 94.2 112.978 93.416 113.188L93.395 112.768C94.053 112.922 94.62 113.174 95.096 113.524C95.586 113.874 95.964 114.308 96.23 114.826C96.496 115.344 96.629 115.932 96.629 116.59C96.629 117.318 96.51 117.962 96.272 118.522C96.034 119.068 95.684 119.523 95.222 119.887C94.76 120.251 94.214 120.531 93.584 120.727C92.968 120.909 92.275 121 91.505 121H84.911ZM87.935 118.27H91.379C91.827 118.27 92.205 118.207 92.513 118.081C92.835 117.941 93.08 117.731 93.248 117.451C93.416 117.171 93.5 116.842 93.5 116.464C93.5 116.1 93.409 115.792 93.227 115.54C93.045 115.288 92.786 115.099 92.45 114.973C92.128 114.833 91.736 114.763 91.274 114.763H87.935V118.27ZM87.935 112.264H90.917C91.295 112.264 91.624 112.194 91.904 112.054C92.184 111.914 92.394 111.725 92.534 111.487C92.688 111.249 92.765 110.969 92.765 110.647C92.765 110.129 92.597 109.73 92.261 109.45C91.925 109.17 91.414 109.03 90.728 109.03H87.935V112.264ZM104.218 121.21C103.084 121.21 102.069 120.965 101.173 120.475C100.291 119.971 99.5905 119.285 99.0725 118.417C98.5685 117.549 98.3165 116.555 98.3165 115.435C98.3165 114.315 98.5685 113.321 99.0725 112.453C99.5905 111.585 100.291 110.906 101.173 110.416C102.069 109.912 103.084 109.66 104.218 109.66C105.338 109.66 106.339 109.912 107.221 110.416C108.117 110.906 108.817 111.585 109.321 112.453C109.825 113.321 110.077 114.315 110.077 115.435C110.077 116.555 109.825 117.549 109.321 118.417C108.817 119.285 108.117 119.971 107.221 120.475C106.339 120.965 105.338 121.21 104.218 121.21ZM104.218 118.606C104.764 118.606 105.254 118.473 105.688 118.207C106.122 117.927 106.458 117.549 106.696 117.073C106.948 116.583 107.067 116.037 107.053 115.435C107.067 114.819 106.948 114.273 106.696 113.797C106.458 113.307 106.122 112.929 105.688 112.663C105.254 112.383 104.764 112.243 104.218 112.243C103.658 112.243 103.161 112.383 102.727 112.663C102.293 112.943 101.95 113.321 101.698 113.797C101.446 114.273 101.327 114.819 101.341 115.435C101.327 116.037 101.446 116.583 101.698 117.073C101.95 117.549 102.293 117.927 102.727 118.207C103.161 118.473 103.658 118.606 104.218 118.606ZM116.163 121.21C115.351 121.21 114.651 121.035 114.063 120.685C113.489 120.321 113.041 119.81 112.719 119.152C112.411 118.48 112.257 117.675 112.257 116.737V109.891H115.239V116.254C115.239 116.758 115.323 117.199 115.491 117.577C115.659 117.941 115.897 118.221 116.205 118.417C116.513 118.613 116.891 118.711 117.339 118.711C117.661 118.711 117.955 118.662 118.221 118.564C118.501 118.452 118.739 118.298 118.935 118.102C119.145 117.906 119.306 117.675 119.418 117.409C119.53 117.143 119.586 116.856 119.586 116.548V109.891H122.568V121H119.733L119.628 118.711L120.174 118.459C120.006 118.977 119.726 119.446 119.334 119.866C118.942 120.286 118.473 120.615 117.927 120.853C117.381 121.091 116.793 121.21 116.163 121.21ZM125.568 121V109.891H128.424L128.508 112.159L127.92 112.411C128.074 111.907 128.347 111.452 128.739 111.046C129.145 110.626 129.628 110.29 130.188 110.038C130.748 109.786 131.336 109.66 131.952 109.66C132.792 109.66 133.492 109.828 134.052 110.164C134.626 110.5 135.053 111.011 135.333 111.697C135.627 112.369 135.774 113.202 135.774 114.196V121H132.792V114.427C132.792 113.923 132.722 113.503 132.582 113.167C132.442 112.831 132.225 112.586 131.931 112.432C131.651 112.278 131.301 112.208 130.881 112.222C130.545 112.222 130.23 112.278 129.936 112.39C129.656 112.488 129.411 112.635 129.201 112.831C129.005 113.027 128.844 113.251 128.718 113.503C128.606 113.755 128.55 114.028 128.55 114.322V121H127.08C126.758 121 126.471 121 126.219 121C125.967 121 125.75 121 125.568 121ZM143.462 121.21C142.398 121.21 141.446 120.958 140.606 120.454C139.766 119.95 139.101 119.264 138.611 118.396C138.135 117.528 137.897 116.541 137.897 115.435C137.897 114.329 138.135 113.342 138.611 112.474C139.101 111.606 139.766 110.92 140.606 110.416C141.446 109.912 142.398 109.66 143.462 109.66C144.456 109.66 145.366 109.842 146.192 110.206C147.018 110.57 147.662 111.074 148.124 111.718L146.486 113.692C146.29 113.426 146.045 113.188 145.751 112.978C145.457 112.754 145.135 112.579 144.785 112.453C144.449 112.327 144.099 112.264 143.735 112.264C143.161 112.264 142.65 112.404 142.202 112.684C141.768 112.95 141.425 113.321 141.173 113.797C140.921 114.273 140.795 114.819 140.795 115.435C140.795 116.023 140.921 116.555 141.173 117.031C141.439 117.507 141.796 117.885 142.244 118.165C142.692 118.445 143.196 118.585 143.756 118.585C144.12 118.585 144.463 118.536 144.785 118.438C145.107 118.34 145.408 118.186 145.688 117.976C145.982 117.766 146.248 117.514 146.486 117.22L148.103 119.194C147.641 119.796 146.983 120.286 146.129 120.664C145.289 121.028 144.4 121.21 143.462 121.21ZM155.284 121.21C154.08 121.21 153.023 120.965 152.113 120.475C151.217 119.985 150.517 119.313 150.013 118.459C149.523 117.605 149.278 116.625 149.278 115.519C149.278 114.651 149.418 113.86 149.698 113.146C149.978 112.432 150.37 111.816 150.874 111.298C151.378 110.766 151.973 110.36 152.659 110.08C153.359 109.786 154.115 109.639 154.927 109.639C155.683 109.639 156.383 109.779 157.027 110.059C157.671 110.339 158.224 110.731 158.686 111.235C159.162 111.725 159.526 112.313 159.778 112.999C160.03 113.671 160.142 114.399 160.114 115.183L160.093 116.107H151.168L150.685 114.28H157.636L157.3 114.658V114.196C157.272 113.818 157.146 113.482 156.922 113.188C156.712 112.88 156.439 112.642 156.103 112.474C155.767 112.292 155.389 112.201 154.969 112.201C154.353 112.201 153.828 112.32 153.394 112.558C152.974 112.796 152.652 113.146 152.428 113.608C152.204 114.07 152.092 114.63 152.092 115.288C152.092 115.96 152.232 116.541 152.512 117.031C152.806 117.521 153.212 117.906 153.73 118.186C154.262 118.452 154.885 118.585 155.599 118.585C156.089 118.585 156.537 118.508 156.943 118.354C157.349 118.2 157.783 117.934 158.245 117.556L159.673 119.551C159.267 119.915 158.819 120.223 158.329 120.475C157.839 120.713 157.335 120.895 156.817 121.021C156.299 121.147 155.788 121.21 155.284 121.21ZM175.625 121.21C174.547 121.21 173.553 121.028 172.643 120.664C171.747 120.286 170.963 119.761 170.291 119.089C169.633 118.403 169.122 117.598 168.758 116.674C168.394 115.736 168.212 114.714 168.212 113.608C168.212 112.53 168.401 111.536 168.779 110.626C169.157 109.702 169.689 108.904 170.375 108.232C171.061 107.546 171.866 107.014 172.79 106.636C173.714 106.258 174.715 106.069 175.793 106.069C176.493 106.069 177.179 106.167 177.851 106.363C178.537 106.545 179.16 106.818 179.72 107.182C180.294 107.546 180.784 107.98 181.19 108.484L179.216 110.668C178.894 110.332 178.551 110.045 178.187 109.807C177.823 109.555 177.438 109.366 177.032 109.24C176.64 109.1 176.22 109.03 175.772 109.03C175.17 109.03 174.603 109.142 174.071 109.366C173.553 109.59 173.098 109.905 172.706 110.311C172.314 110.703 171.999 111.186 171.761 111.76C171.537 112.32 171.425 112.943 171.425 113.629C171.425 114.329 171.537 114.966 171.761 115.54C171.985 116.1 172.3 116.583 172.706 116.989C173.112 117.381 173.595 117.689 174.155 117.913C174.729 118.123 175.359 118.228 176.045 118.228C176.493 118.228 176.927 118.165 177.347 118.039C177.767 117.913 178.152 117.738 178.502 117.514C178.866 117.29 179.188 117.031 179.468 116.737L181.022 119.194C180.672 119.572 180.21 119.915 179.636 120.223C179.076 120.531 178.446 120.776 177.746 120.958C177.046 121.126 176.339 121.21 175.625 121.21ZM183.236 121V105.46H186.176V112.159L185.588 112.411C185.742 111.907 186.015 111.452 186.407 111.046C186.813 110.626 187.296 110.29 187.856 110.038C188.416 109.786 189.004 109.66 189.62 109.66C190.46 109.66 191.16 109.828 191.72 110.164C192.294 110.5 192.721 111.011 193.001 111.697C193.295 112.369 193.442 113.202 193.442 114.196V121H190.46V114.427C190.46 113.923 190.39 113.503 190.25 113.167C190.11 112.831 189.893 112.586 189.599 112.432C189.319 112.278 188.969 112.208 188.549 112.222C188.213 112.222 187.898 112.278 187.604 112.39C187.324 112.488 187.079 112.635 186.869 112.831C186.673 113.027 186.512 113.251 186.386 113.503C186.274 113.755 186.218 114.028 186.218 114.322V121H184.748C184.426 121 184.139 121 183.887 121C183.635 121 183.418 121 183.236 121ZM201.571 121.21C200.367 121.21 199.31 120.965 198.4 120.475C197.504 119.985 196.804 119.313 196.3 118.459C195.81 117.605 195.565 116.625 195.565 115.519C195.565 114.651 195.705 113.86 195.985 113.146C196.265 112.432 196.657 111.816 197.161 111.298C197.665 110.766 198.26 110.36 198.946 110.08C199.646 109.786 200.402 109.639 201.214 109.639C201.97 109.639 202.67 109.779 203.314 110.059C203.958 110.339 204.511 110.731 204.973 111.235C205.449 111.725 205.813 112.313 206.065 112.999C206.317 113.671 206.429 114.399 206.401 115.183L206.38 116.107H197.455L196.972 114.28H203.923L203.587 114.658V114.196C203.559 113.818 203.433 113.482 203.209 113.188C202.999 112.88 202.726 112.642 202.39 112.474C202.054 112.292 201.676 112.201 201.256 112.201C200.64 112.201 200.115 112.32 199.681 112.558C199.261 112.796 198.939 113.146 198.715 113.608C198.491 114.07 198.379 114.63 198.379 115.288C198.379 115.96 198.519 116.541 198.799 117.031C199.093 117.521 199.499 117.906 200.017 118.186C200.549 118.452 201.172 118.585 201.886 118.585C202.376 118.585 202.824 118.508 203.23 118.354C203.636 118.2 204.07 117.934 204.532 117.556L205.96 119.551C205.554 119.915 205.106 120.223 204.616 120.475C204.126 120.713 203.622 120.895 203.104 121.021C202.586 121.147 202.075 121.21 201.571 121.21ZM216.269 125.62V118.333L216.878 118.438C216.85 118.788 216.717 119.131 216.479 119.467C216.255 119.789 215.954 120.083 215.576 120.349C215.212 120.615 214.806 120.825 214.358 120.979C213.91 121.133 213.441 121.21 212.951 121.21C211.971 121.21 211.096 120.965 210.326 120.475C209.57 119.971 208.968 119.285 208.52 118.417C208.086 117.549 207.869 116.555 207.869 115.435C207.869 114.315 208.086 113.321 208.52 112.453C208.954 111.585 209.549 110.906 210.305 110.416C211.061 109.912 211.915 109.66 212.867 109.66C213.413 109.66 213.924 109.744 214.4 109.912C214.89 110.066 215.324 110.276 215.702 110.542C216.08 110.808 216.388 111.109 216.626 111.445C216.864 111.781 216.997 112.131 217.025 112.495L216.29 112.6L216.395 109.87H219.251V125.62H216.269ZM213.56 118.627C214.12 118.627 214.61 118.494 215.03 118.228C215.45 117.962 215.772 117.591 215.996 117.115C216.234 116.639 216.353 116.079 216.353 115.435C216.353 114.791 216.234 114.231 215.996 113.755C215.772 113.265 215.45 112.887 215.03 112.621C214.61 112.355 214.12 112.222 213.56 112.222C213 112.222 212.51 112.362 212.09 112.642C211.67 112.908 211.341 113.286 211.103 113.776C210.879 114.252 210.767 114.805 210.767 115.435C210.767 116.065 210.879 116.625 211.103 117.115C211.341 117.591 211.67 117.962 212.09 118.228C212.51 118.494 213 118.627 213.56 118.627ZM226.064 121.21C225.252 121.21 224.552 121.035 223.964 120.685C223.39 120.321 222.942 119.81 222.62 119.152C222.312 118.48 222.158 117.675 222.158 116.737V109.891H225.14V116.254C225.14 116.758 225.224 117.199 225.392 117.577C225.56 117.941 225.798 118.221 226.106 118.417C226.414 118.613 226.792 118.711 227.24 118.711C227.562 118.711 227.856 118.662 228.122 118.564C228.402 118.452 228.64 118.298 228.836 118.102C229.046 117.906 229.207 117.675 229.319 117.409C229.431 117.143 229.487 116.856 229.487 116.548V109.891H232.469V121H229.634L229.529 118.711L230.075 118.459C229.907 118.977 229.627 119.446 229.235 119.866C228.843 120.286 228.374 120.615 227.828 120.853C227.282 121.091 226.694 121.21 226.064 121.21ZM240.741 121.21C239.537 121.21 238.48 120.965 237.57 120.475C236.674 119.985 235.974 119.313 235.47 118.459C234.98 117.605 234.735 116.625 234.735 115.519C234.735 114.651 234.875 113.86 235.155 113.146C235.435 112.432 235.827 111.816 236.331 111.298C236.835 110.766 237.43 110.36 238.116 110.08C238.816 109.786 239.572 109.639 240.384 109.639C241.14 109.639 241.84 109.779 242.484 110.059C243.128 110.339 243.681 110.731 244.143 111.235C244.619 111.725 244.983 112.313 245.235 112.999C245.487 113.671 245.599 114.399 245.571 115.183L245.55 116.107H236.625L236.142 114.28H243.093L242.757 114.658V114.196C242.729 113.818 242.603 113.482 242.379 113.188C242.169 112.88 241.896 112.642 241.56 112.474C241.224 112.292 240.846 112.201 240.426 112.201C239.81 112.201 239.285 112.32 238.851 112.558C238.431 112.796 238.109 113.146 237.885 113.608C237.661 114.07 237.549 114.63 237.549 115.288C237.549 115.96 237.689 116.541 237.969 117.031C238.263 117.521 238.669 117.906 239.187 118.186C239.719 118.452 240.342 118.585 241.056 118.585C241.546 118.585 241.994 118.508 242.4 118.354C242.806 118.2 243.24 117.934 243.702 117.556L245.13 119.551C244.724 119.915 244.276 120.223 243.786 120.475C243.296 120.713 242.792 120.895 242.274 121.021C241.756 121.147 241.245 121.21 240.741 121.21Z" fill="black"/>
<rect x="82" y="143" width="190" height="62" rx="9" fill="white"/>
<circle cx="112" cy="174" r="17" fill="#35CA00"/>
<path d="M148.4 180L152.736 168.8H154.496L158.8 180H156.96L154.4 173.248C154.368 173.173 154.304 172.992 154.208 172.704C154.123 172.416 154.021 172.096 153.904 171.744C153.787 171.392 153.68 171.072 153.584 170.784C153.488 170.485 153.424 170.293 153.392 170.208L153.76 170.192C153.696 170.373 153.616 170.603 153.52 170.88C153.435 171.157 153.339 171.451 153.232 171.76C153.136 172.069 153.04 172.363 152.944 172.64C152.848 172.907 152.768 173.131 152.704 173.312L150.16 180H148.4ZM150.32 177.216L150.96 175.552H156.048L156.784 177.216H150.32ZM163.547 180.16C162.779 180.16 162.091 179.973 161.483 179.6C160.885 179.216 160.411 178.699 160.059 178.048C159.707 177.387 159.531 176.635 159.531 175.792C159.531 174.949 159.701 174.203 160.043 173.552C160.395 172.891 160.869 172.373 161.467 172C162.064 171.616 162.741 171.424 163.499 171.424C163.915 171.424 164.315 171.493 164.699 171.632C165.093 171.76 165.445 171.941 165.755 172.176C166.064 172.4 166.304 172.651 166.475 172.928C166.656 173.195 166.747 173.467 166.747 173.744L166.267 173.776V168.16H167.915V180H166.267V178H166.587C166.587 178.256 166.501 178.512 166.331 178.768C166.16 179.013 165.931 179.243 165.643 179.456C165.365 179.669 165.04 179.84 164.667 179.968C164.304 180.096 163.931 180.16 163.547 180.16ZM163.771 178.736C164.272 178.736 164.715 178.608 165.099 178.352C165.483 178.096 165.781 177.749 165.995 177.312C166.219 176.864 166.331 176.357 166.331 175.792C166.331 175.227 166.219 174.725 165.995 174.288C165.781 173.84 165.483 173.488 165.099 173.232C164.715 172.976 164.272 172.848 163.771 172.848C163.269 172.848 162.827 172.976 162.443 173.232C162.059 173.488 161.755 173.84 161.531 174.288C161.317 174.725 161.211 175.227 161.211 175.792C161.211 176.357 161.317 176.864 161.531 177.312C161.755 177.749 162.059 178.096 162.443 178.352C162.827 178.608 163.269 178.736 163.771 178.736ZM173.687 180.16C172.919 180.16 172.231 179.973 171.623 179.6C171.026 179.216 170.551 178.699 170.199 178.048C169.847 177.387 169.671 176.635 169.671 175.792C169.671 174.949 169.842 174.203 170.183 173.552C170.535 172.891 171.01 172.373 171.607 172C172.205 171.616 172.882 171.424 173.639 171.424C174.055 171.424 174.455 171.493 174.839 171.632C175.234 171.76 175.586 171.941 175.895 172.176C176.205 172.4 176.445 172.651 176.615 172.928C176.797 173.195 176.887 173.467 176.887 173.744L176.407 173.776V168.16H178.055V180H176.407V178H176.727C176.727 178.256 176.642 178.512 176.471 178.768C176.301 179.013 176.071 179.243 175.783 179.456C175.506 179.669 175.181 179.84 174.807 179.968C174.445 180.096 174.071 180.16 173.687 180.16ZM173.911 178.736C174.413 178.736 174.855 178.608 175.239 178.352C175.623 178.096 175.922 177.749 176.135 177.312C176.359 176.864 176.471 176.357 176.471 175.792C176.471 175.227 176.359 174.725 176.135 174.288C175.922 173.84 175.623 173.488 175.239 173.232C174.855 172.976 174.413 172.848 173.911 172.848C173.41 172.848 172.967 172.976 172.583 173.232C172.199 173.488 171.895 173.84 171.671 174.288C171.458 174.725 171.351 175.227 171.351 175.792C171.351 176.357 171.458 176.864 171.671 177.312C171.895 177.749 172.199 178.096 172.583 178.352C172.967 178.608 173.41 178.736 173.911 178.736ZM185.224 180V168.8H189.784C190.392 168.8 190.942 168.955 191.432 169.264C191.934 169.563 192.334 169.973 192.632 170.496C192.931 171.019 193.08 171.6 193.08 172.24C193.08 172.88 192.931 173.461 192.632 173.984C192.334 174.507 191.934 174.928 191.432 175.248C190.942 175.557 190.392 175.712 189.784 175.712H186.952V180H185.224ZM186.952 174.048H189.752C190.04 174.048 190.302 173.968 190.536 173.808C190.771 173.637 190.958 173.419 191.096 173.152C191.246 172.875 191.32 172.571 191.32 172.24C191.32 171.909 191.246 171.611 191.096 171.344C190.958 171.077 190.771 170.864 190.536 170.704C190.302 170.544 190.04 170.464 189.752 170.464H186.952V174.048ZM198.713 180.16C197.849 180.16 197.081 179.979 196.409 179.616C195.747 179.243 195.225 178.736 194.841 178.096C194.467 177.456 194.281 176.72 194.281 175.888C194.281 175.227 194.387 174.624 194.601 174.08C194.814 173.536 195.107 173.067 195.481 172.672C195.865 172.267 196.318 171.957 196.841 171.744C197.374 171.52 197.95 171.408 198.569 171.408C199.113 171.408 199.619 171.515 200.089 171.728C200.558 171.931 200.963 172.213 201.305 172.576C201.657 172.939 201.923 173.371 202.105 173.872C202.297 174.363 202.387 174.901 202.377 175.488L202.361 176.192H195.497L195.129 174.88H200.937L200.697 175.152V174.768C200.665 174.416 200.547 174.101 200.345 173.824C200.142 173.547 199.886 173.328 199.577 173.168C199.267 173.008 198.931 172.928 198.569 172.928C197.993 172.928 197.507 173.04 197.113 173.264C196.718 173.477 196.419 173.797 196.217 174.224C196.014 174.64 195.913 175.157 195.913 175.776C195.913 176.363 196.035 176.875 196.281 177.312C196.526 177.739 196.873 178.069 197.321 178.304C197.769 178.539 198.286 178.656 198.873 178.656C199.289 178.656 199.673 178.587 200.025 178.448C200.387 178.309 200.777 178.059 201.193 177.696L202.025 178.864C201.769 179.12 201.454 179.344 201.081 179.536C200.718 179.728 200.329 179.883 199.913 180C199.507 180.107 199.107 180.16 198.713 180.16ZM204.168 180V171.6H205.816V173.328L205.528 173.52C205.634 173.147 205.842 172.805 206.152 172.496C206.461 172.176 206.829 171.92 207.256 171.728C207.682 171.525 208.12 171.424 208.568 171.424C209.208 171.424 209.741 171.552 210.168 171.808C210.594 172.053 210.914 172.432 211.128 172.944C211.341 173.456 211.448 174.101 211.448 174.88V180H209.8V174.992C209.8 174.512 209.736 174.117 209.608 173.808C209.48 173.488 209.282 173.259 209.016 173.12C208.749 172.971 208.418 172.907 208.024 172.928C207.704 172.928 207.41 172.981 207.144 173.088C206.877 173.184 206.642 173.323 206.44 173.504C206.248 173.685 206.093 173.899 205.976 174.144C205.869 174.379 205.816 174.635 205.816 174.912V180H205C204.861 180 204.722 180 204.584 180C204.445 180 204.306 180 204.168 180ZM216.915 180.16C216.222 180.16 215.587 179.968 215.011 179.584C214.446 179.2 213.993 178.677 213.651 178.016C213.31 177.355 213.139 176.608 213.139 175.776C213.139 174.933 213.31 174.187 213.651 173.536C214.003 172.875 214.473 172.357 215.059 171.984C215.657 171.611 216.323 171.424 217.059 171.424C217.497 171.424 217.897 171.488 218.259 171.616C218.622 171.744 218.937 171.925 219.203 172.16C219.481 172.384 219.705 172.645 219.875 172.944C220.057 173.243 220.169 173.563 220.211 173.904L219.843 173.776V171.6H221.507V180H219.843V178L220.227 177.888C220.163 178.176 220.03 178.459 219.827 178.736C219.635 179.003 219.385 179.243 219.075 179.456C218.777 179.669 218.441 179.84 218.067 179.968C217.705 180.096 217.321 180.16 216.915 180.16ZM217.347 178.64C217.849 178.64 218.291 178.517 218.675 178.272C219.059 178.027 219.358 177.691 219.571 177.264C219.795 176.827 219.907 176.331 219.907 175.776C219.907 175.232 219.795 174.747 219.571 174.32C219.358 173.893 219.059 173.557 218.675 173.312C218.291 173.067 217.849 172.944 217.347 172.944C216.857 172.944 216.419 173.067 216.035 173.312C215.662 173.557 215.363 173.893 215.139 174.32C214.926 174.747 214.819 175.232 214.819 175.776C214.819 176.331 214.926 176.827 215.139 177.264C215.363 177.691 215.662 178.027 216.035 178.272C216.419 178.517 216.857 178.64 217.347 178.64ZM223.84 180V168.16H225.488V180H223.84ZM228.817 180V169.456H230.465V180H228.817ZM227.073 173.2V171.6H232.417V173.2H227.073ZM235.326 183.68L237.022 179.76L237.038 181.072L232.846 171.6H234.766L237.39 177.776C237.443 177.883 237.507 178.048 237.582 178.272C237.656 178.485 237.72 178.699 237.774 178.912L237.358 179.008C237.443 178.784 237.523 178.56 237.598 178.336C237.683 178.112 237.763 177.888 237.838 177.664L240.03 171.6H241.982L238.526 180L237.102 183.68H235.326Z" fill="#3B3B3B"/>
<path d="M109.293 178.707L106.293 175.707C106.2 175.614 106.126 175.504 106.076 175.383C106.026 175.262 106 175.132 106 175C106 174.869 106.026 174.739 106.076 174.618C106.126 174.496 106.2 174.386 106.293 174.293C106.386 174.2 106.496 174.127 106.617 174.077C106.739 174.026 106.869 174 107 174C107.131 174 107.261 174.026 107.382 174.077C107.504 174.127 107.614 174.2 107.707 174.293L109.943 176.529L116.241 169.349C116.326 169.25 116.43 169.168 116.547 169.108C116.664 169.049 116.792 169.013 116.923 169.003C117.054 168.993 117.185 169.009 117.31 169.049C117.435 169.09 117.55 169.155 117.65 169.24C117.75 169.326 117.831 169.43 117.891 169.547C117.95 169.664 117.986 169.791 117.996 169.922C118.006 170.053 117.991 170.185 117.95 170.309C117.909 170.434 117.844 170.55 117.759 170.649L110.759 178.649C110.669 178.754 110.559 178.839 110.435 178.899C110.312 178.96 110.176 178.994 110.039 178.999C109.901 179.004 109.764 178.98 109.636 178.93C109.508 178.88 109.391 178.804 109.293 178.707Z" fill="white"/>
<rect x="82" y="215" width="315" height="62" rx="9" fill="white"/>
<path d="M92.98 235V228H95.83C96.21 228 96.5533 228.097 96.86 228.29C97.1733 228.477 97.4233 228.733 97.61 229.06C97.7967 229.387 97.89 229.75 97.89 230.15C97.89 230.55 97.7967 230.913 97.61 231.24C97.4233 231.567 97.1733 231.83 96.86 232.03C96.5533 232.223 96.21 232.32 95.83 232.32H94.06V235H92.98ZM94.06 231.28H95.81C95.99 231.28 96.1533 231.23 96.3 231.13C96.4467 231.023 96.5633 230.887 96.65 230.72C96.7433 230.547 96.79 230.357 96.79 230.15C96.79 229.943 96.7433 229.757 96.65 229.59C96.5633 229.423 96.4467 229.29 96.3 229.19C96.1533 229.09 95.99 229.04 95.81 229.04H94.06V231.28ZM101.41 235.1C100.87 235.1 100.39 234.987 99.9702 234.76C99.5569 234.527 99.2302 234.21 98.9902 233.81C98.7569 233.41 98.6402 232.95 98.6402 232.43C98.6402 232.017 98.7069 231.64 98.8402 231.3C98.9736 230.96 99.1569 230.667 99.3902 230.42C99.6302 230.167 99.9136 229.973 100.24 229.84C100.574 229.7 100.934 229.63 101.32 229.63C101.66 229.63 101.977 229.697 102.27 229.83C102.564 229.957 102.817 230.133 103.03 230.36C103.25 230.587 103.417 230.857 103.53 231.17C103.65 231.477 103.707 231.813 103.7 232.18L103.69 232.62H99.4002L99.1702 231.8H102.8L102.65 231.97V231.73C102.63 231.51 102.557 231.313 102.43 231.14C102.304 230.967 102.144 230.83 101.95 230.73C101.757 230.63 101.547 230.58 101.32 230.58C100.96 230.58 100.657 230.65 100.41 230.79C100.164 230.923 99.9769 231.123 99.8502 231.39C99.7236 231.65 99.6602 231.973 99.6602 232.36C99.6602 232.727 99.7369 233.047 99.8902 233.32C100.044 233.587 100.26 233.793 100.54 233.94C100.82 234.087 101.144 234.16 101.51 234.16C101.77 234.16 102.01 234.117 102.23 234.03C102.457 233.943 102.7 233.787 102.96 233.56L103.48 234.29C103.32 234.45 103.124 234.59 102.89 234.71C102.664 234.83 102.42 234.927 102.16 235C101.907 235.067 101.657 235.1 101.41 235.1ZM104.82 235V229.75H105.85V230.83L105.67 230.95C105.736 230.717 105.866 230.503 106.06 230.31C106.253 230.11 106.483 229.95 106.75 229.83C107.016 229.703 107.29 229.64 107.57 229.64C107.97 229.64 108.303 229.72 108.57 229.88C108.836 230.033 109.036 230.27 109.17 230.59C109.303 230.91 109.37 231.313 109.37 231.8V235H108.34V231.87C108.34 231.57 108.3 231.323 108.22 231.13C108.14 230.93 108.016 230.787 107.85 230.7C107.683 230.607 107.476 230.567 107.23 230.58C107.03 230.58 106.846 230.613 106.68 230.68C106.513 230.74 106.366 230.827 106.24 230.94C106.12 231.053 106.023 231.187 105.95 231.34C105.883 231.487 105.85 231.647 105.85 231.82V235H105.34C105.253 235 105.166 235 105.08 235C104.993 235 104.906 235 104.82 235ZM112.787 235.1C112.354 235.1 111.957 234.98 111.597 234.74C111.244 234.5 110.96 234.173 110.747 233.76C110.534 233.347 110.427 232.88 110.427 232.36C110.427 231.833 110.534 231.367 110.747 230.96C110.967 230.547 111.26 230.223 111.627 229.99C112 229.757 112.417 229.64 112.877 229.64C113.15 229.64 113.4 229.68 113.627 229.76C113.854 229.84 114.05 229.953 114.217 230.1C114.39 230.24 114.53 230.403 114.637 230.59C114.75 230.777 114.82 230.977 114.847 231.19L114.617 231.11V229.75H115.657V235H114.617V233.75L114.857 233.68C114.817 233.86 114.734 234.037 114.607 234.21C114.487 234.377 114.33 234.527 114.137 234.66C113.95 234.793 113.74 234.9 113.507 234.98C113.28 235.06 113.04 235.1 112.787 235.1ZM113.057 234.15C113.37 234.15 113.647 234.073 113.887 233.92C114.127 233.767 114.314 233.557 114.447 233.29C114.587 233.017 114.657 232.707 114.657 232.36C114.657 232.02 114.587 231.717 114.447 231.45C114.314 231.183 114.127 230.973 113.887 230.82C113.647 230.667 113.37 230.59 113.057 230.59C112.75 230.59 112.477 230.667 112.237 230.82C112.004 230.973 111.817 231.183 111.677 231.45C111.544 231.717 111.477 232.02 111.477 232.36C111.477 232.707 111.544 233.017 111.677 233.29C111.817 233.557 112.004 233.767 112.237 233.92C112.477 234.073 112.75 234.15 113.057 234.15ZM117.115 235V227.6H118.145V235H117.115ZM120.225 235V228.41H121.255V235H120.225ZM119.135 230.75V229.75H122.475V230.75H119.135ZM124.293 237.3L125.353 234.85L125.363 235.67L122.743 229.75H123.943L125.583 233.61C125.617 233.677 125.657 233.78 125.703 233.92C125.75 234.053 125.79 234.187 125.823 234.32L125.563 234.38C125.617 234.24 125.667 234.1 125.713 233.96C125.767 233.82 125.817 233.68 125.863 233.54L127.233 229.75H128.453L126.293 235L125.403 237.3H124.293ZM131.557 235L134.267 228H135.367L138.057 235H136.907L135.307 230.78C135.287 230.733 135.247 230.62 135.187 230.44C135.133 230.26 135.07 230.06 134.997 229.84C134.923 229.62 134.857 229.42 134.797 229.24C134.737 229.053 134.697 228.933 134.677 228.88L134.907 228.87C134.867 228.983 134.817 229.127 134.757 229.3C134.703 229.473 134.643 229.657 134.577 229.85C134.517 230.043 134.457 230.227 134.397 230.4C134.337 230.567 134.287 230.707 134.247 230.82L132.657 235H131.557ZM132.757 233.26L133.157 232.22H136.337L136.797 233.26H132.757ZM141.063 235.1C140.577 235.1 140.14 234.98 139.753 234.74C139.373 234.5 139.07 234.173 138.843 233.76C138.623 233.347 138.513 232.883 138.513 232.37C138.513 231.857 138.623 231.393 138.843 230.98C139.07 230.567 139.373 230.24 139.753 230C140.14 229.76 140.577 229.64 141.063 229.64C141.53 229.64 141.953 229.737 142.333 229.93C142.72 230.117 143.013 230.373 143.213 230.7L142.643 231.4C142.537 231.247 142.4 231.107 142.233 230.98C142.067 230.853 141.89 230.753 141.703 230.68C141.517 230.607 141.337 230.57 141.163 230.57C140.843 230.57 140.557 230.65 140.303 230.81C140.057 230.963 139.86 231.177 139.713 231.45C139.567 231.723 139.493 232.03 139.493 232.37C139.493 232.71 139.57 233.017 139.723 233.29C139.877 233.557 140.08 233.77 140.333 233.93C140.587 234.09 140.867 234.17 141.173 234.17C141.353 234.17 141.527 234.14 141.693 234.08C141.867 234.02 142.033 233.93 142.193 233.81C142.353 233.69 142.503 233.543 142.643 233.37L143.213 234.07C143 234.37 142.693 234.617 142.293 234.81C141.9 235.003 141.49 235.1 141.063 235.1ZM146.415 235.1C145.928 235.1 145.492 234.98 145.105 234.74C144.725 234.5 144.422 234.173 144.195 233.76C143.975 233.347 143.865 232.883 143.865 232.37C143.865 231.857 143.975 231.393 144.195 230.98C144.422 230.567 144.725 230.24 145.105 230C145.492 229.76 145.928 229.64 146.415 229.64C146.882 229.64 147.305 229.737 147.685 229.93C148.072 230.117 148.365 230.373 148.565 230.7L147.995 231.4C147.888 231.247 147.752 231.107 147.585 230.98C147.418 230.853 147.242 230.753 147.055 230.68C146.868 230.607 146.688 230.57 146.515 230.57C146.195 230.57 145.908 230.65 145.655 230.81C145.408 230.963 145.212 231.177 145.065 231.45C144.918 231.723 144.845 232.03 144.845 232.37C144.845 232.71 144.922 233.017 145.075 233.29C145.228 233.557 145.432 233.77 145.685 233.93C145.938 234.09 146.218 234.17 146.525 234.17C146.705 234.17 146.878 234.14 147.045 234.08C147.218 234.02 147.385 233.93 147.545 233.81C147.705 233.69 147.855 233.543 147.995 233.37L148.565 234.07C148.352 234.37 148.045 234.617 147.645 234.81C147.252 235.003 146.842 235.1 146.415 235.1ZM151.896 235.1C151.383 235.1 150.923 234.983 150.516 234.75C150.116 234.51 149.8 234.187 149.566 233.78C149.333 233.367 149.216 232.897 149.216 232.37C149.216 231.843 149.333 231.377 149.566 230.97C149.8 230.557 150.116 230.233 150.516 230C150.923 229.76 151.383 229.64 151.896 229.64C152.403 229.64 152.856 229.76 153.256 230C153.663 230.233 153.983 230.557 154.216 230.97C154.45 231.377 154.566 231.843 154.566 232.37C154.566 232.897 154.45 233.367 154.216 233.78C153.983 234.187 153.663 234.51 153.256 234.75C152.856 234.983 152.403 235.1 151.896 235.1ZM151.896 234.16C152.21 234.16 152.49 234.083 152.736 233.93C152.983 233.77 153.176 233.557 153.316 233.29C153.456 233.017 153.523 232.71 153.516 232.37C153.523 232.023 153.456 231.717 153.316 231.45C153.176 231.177 152.983 230.963 152.736 230.81C152.49 230.657 152.21 230.58 151.896 230.58C151.583 230.58 151.3 230.66 151.046 230.82C150.8 230.973 150.606 231.187 150.466 231.46C150.326 231.727 150.26 232.03 150.266 232.37C150.26 232.71 150.326 233.017 150.466 233.29C150.606 233.557 150.8 233.77 151.046 233.93C151.3 234.083 151.583 234.16 151.896 234.16ZM157.529 235.1C157.155 235.1 156.829 235.013 156.549 234.84C156.275 234.667 156.062 234.423 155.909 234.11C155.762 233.797 155.689 233.423 155.689 232.99V229.75H156.719V232.71C156.719 233.017 156.765 233.283 156.859 233.51C156.959 233.73 157.099 233.9 157.279 234.02C157.465 234.14 157.689 234.2 157.949 234.2C158.142 234.2 158.319 234.17 158.479 234.11C158.639 234.043 158.775 233.953 158.889 233.84C159.009 233.727 159.102 233.59 159.169 233.43C159.235 233.27 159.269 233.097 159.269 232.91V229.75H160.299V235H159.269V233.9L159.449 233.78C159.369 234.027 159.232 234.25 159.039 234.45C158.852 234.65 158.629 234.81 158.369 234.93C158.109 235.043 157.829 235.1 157.529 235.1ZM161.743 235V229.75H162.773V230.83L162.593 230.95C162.66 230.717 162.79 230.503 162.983 230.31C163.177 230.11 163.407 229.95 163.673 229.83C163.94 229.703 164.213 229.64 164.493 229.64C164.893 229.64 165.227 229.72 165.493 229.88C165.76 230.033 165.96 230.27 166.093 230.59C166.227 230.91 166.293 231.313 166.293 231.8V235H165.263V231.87C165.263 231.57 165.223 231.323 165.143 231.13C165.063 230.93 164.94 230.787 164.773 230.7C164.607 230.607 164.4 230.567 164.153 230.58C163.953 230.58 163.77 230.613 163.603 230.68C163.437 230.74 163.29 230.827 163.163 230.94C163.043 231.053 162.947 231.187 162.873 231.34C162.807 231.487 162.773 231.647 162.773 231.82V235H162.263C162.177 235 162.09 235 162.003 235C161.917 235 161.83 235 161.743 235ZM168.341 235V228.41H169.371V235H168.341ZM167.251 230.75V229.75H170.591V230.75H167.251Z" fill="#3B3B3B"/>
<rect x="103" y="254" width="271" height="7" rx="3.5" fill="#E4E6EA"/>
<rect x="92.25" y="244.25" width="292.5" height="26.5" rx="3.75" stroke="#E4E6EA" stroke-width="0.5"/>
<rect x="82" y="287" width="154" height="62" rx="9" fill="white"/>
<rect x="243" y="287" width="154" height="62" rx="9" fill="white"/>
<path d="M92.98 307V300H95.83C96.21 300 96.5533 300.097 96.86 300.29C97.1733 300.477 97.4233 300.733 97.61 301.06C97.7967 301.387 97.89 301.75 97.89 302.15C97.89 302.55 97.7967 302.913 97.61 303.24C97.4233 303.567 97.1733 303.83 96.86 304.03C96.5533 304.223 96.21 304.32 95.83 304.32H94.06V307H92.98ZM94.06 303.28H95.81C95.99 303.28 96.1533 303.23 96.3 303.13C96.4467 303.023 96.5633 302.887 96.65 302.72C96.7433 302.547 96.79 302.357 96.79 302.15C96.79 301.943 96.7433 301.757 96.65 301.59C96.5633 301.423 96.4467 301.29 96.3 301.19C96.1533 301.09 95.99 301.04 95.81 301.04H94.06V303.28ZM101.41 307.1C100.87 307.1 100.39 306.987 99.9702 306.76C99.5569 306.527 99.2302 306.21 98.9902 305.81C98.7569 305.41 98.6402 304.95 98.6402 304.43C98.6402 304.017 98.7069 303.64 98.8402 303.3C98.9736 302.96 99.1569 302.667 99.3902 302.42C99.6302 302.167 99.9136 301.973 100.24 301.84C100.574 301.7 100.934 301.63 101.32 301.63C101.66 301.63 101.977 301.697 102.27 301.83C102.564 301.957 102.817 302.133 103.03 302.36C103.25 302.587 103.417 302.857 103.53 303.17C103.65 303.477 103.707 303.813 103.7 304.18L103.69 304.62H99.4002L99.1702 303.8H102.8L102.65 303.97V303.73C102.63 303.51 102.557 303.313 102.43 303.14C102.304 302.967 102.144 302.83 101.95 302.73C101.757 302.63 101.547 302.58 101.32 302.58C100.96 302.58 100.657 302.65 100.41 302.79C100.164 302.923 99.9769 303.123 99.8502 303.39C99.7236 303.65 99.6602 303.973 99.6602 304.36C99.6602 304.727 99.7369 305.047 99.8902 305.32C100.044 305.587 100.26 305.793 100.54 305.94C100.82 306.087 101.144 306.16 101.51 306.16C101.77 306.16 102.01 306.117 102.23 306.03C102.457 305.943 102.7 305.787 102.96 305.56L103.48 306.29C103.32 306.45 103.124 306.59 102.89 306.71C102.664 306.83 102.42 306.927 102.16 307C101.907 307.067 101.657 307.1 101.41 307.1ZM104.82 307V301.75H105.85V302.83L105.67 302.95C105.736 302.717 105.866 302.503 106.06 302.31C106.253 302.11 106.483 301.95 106.75 301.83C107.016 301.703 107.29 301.64 107.57 301.64C107.97 301.64 108.303 301.72 108.57 301.88C108.836 302.033 109.036 302.27 109.17 302.59C109.303 302.91 109.37 303.313 109.37 303.8V307H108.34V303.87C108.34 303.57 108.3 303.323 108.22 303.13C108.14 302.93 108.016 302.787 107.85 302.7C107.683 302.607 107.476 302.567 107.23 302.58C107.03 302.58 106.846 302.613 106.68 302.68C106.513 302.74 106.366 302.827 106.24 302.94C106.12 303.053 106.023 303.187 105.95 303.34C105.883 303.487 105.85 303.647 105.85 303.82V307H105.34C105.253 307 105.166 307 105.08 307C104.993 307 104.906 307 104.82 307ZM112.787 307.1C112.354 307.1 111.957 306.98 111.597 306.74C111.244 306.5 110.96 306.173 110.747 305.76C110.534 305.347 110.427 304.88 110.427 304.36C110.427 303.833 110.534 303.367 110.747 302.96C110.967 302.547 111.26 302.223 111.627 301.99C112 301.757 112.417 301.64 112.877 301.64C113.15 301.64 113.4 301.68 113.627 301.76C113.854 301.84 114.05 301.953 114.217 302.1C114.39 302.24 114.53 302.403 114.637 302.59C114.75 302.777 114.82 302.977 114.847 303.19L114.617 303.11V301.75H115.657V307H114.617V305.75L114.857 305.68C114.817 305.86 114.734 306.037 114.607 306.21C114.487 306.377 114.33 306.527 114.137 306.66C113.95 306.793 113.74 306.9 113.507 306.98C113.28 307.06 113.04 307.1 112.787 307.1ZM113.057 306.15C113.37 306.15 113.647 306.073 113.887 305.92C114.127 305.767 114.314 305.557 114.447 305.29C114.587 305.017 114.657 304.707 114.657 304.36C114.657 304.02 114.587 303.717 114.447 303.45C114.314 303.183 114.127 302.973 113.887 302.82C113.647 302.667 113.37 302.59 113.057 302.59C112.75 302.59 112.477 302.667 112.237 302.82C112.004 302.973 111.817 303.183 111.677 303.45C111.544 303.717 111.477 304.02 111.477 304.36C111.477 304.707 111.544 305.017 111.677 305.29C111.817 305.557 112.004 305.767 112.237 305.92C112.477 306.073 112.75 306.15 113.057 306.15ZM117.115 307V299.6H118.145V307H117.115ZM120.225 307V300.41H121.255V307H120.225ZM119.135 302.75V301.75H122.475V302.75H119.135ZM124.293 309.3L125.353 306.85L125.363 307.67L122.743 301.75H123.943L125.583 305.61C125.617 305.677 125.657 305.78 125.703 305.92C125.75 306.053 125.79 306.187 125.823 306.32L125.563 306.38C125.617 306.24 125.667 306.1 125.713 305.96C125.767 305.82 125.817 305.68 125.863 305.54L127.233 301.75H128.453L126.293 307L125.403 309.3H124.293ZM131.557 307L134.267 300H135.367L138.057 307H136.907L135.307 302.78C135.287 302.733 135.247 302.62 135.187 302.44C135.133 302.26 135.07 302.06 134.997 301.84C134.923 301.62 134.857 301.42 134.797 301.24C134.737 301.053 134.697 300.933 134.677 300.88L134.907 300.87C134.867 300.983 134.817 301.127 134.757 301.3C134.703 301.473 134.643 301.657 134.577 301.85C134.517 302.043 134.457 302.227 134.397 302.4C134.337 302.567 134.287 302.707 134.247 302.82L132.657 307H131.557ZM132.757 305.26L133.157 304.22H136.337L136.797 305.26H132.757ZM139.009 307V301.75H140.049V302.87L139.859 302.99C139.912 302.817 139.995 302.65 140.109 302.49C140.229 302.33 140.372 302.19 140.539 302.07C140.712 301.943 140.895 301.843 141.089 301.77C141.289 301.697 141.492 301.66 141.699 301.66C141.999 301.66 142.262 301.71 142.489 301.81C142.715 301.91 142.902 302.06 143.049 302.26C143.195 302.46 143.302 302.71 143.369 303.01L143.209 302.97L143.279 302.8C143.352 302.647 143.452 302.503 143.579 302.37C143.712 302.23 143.862 302.107 144.029 302C144.195 301.893 144.372 301.81 144.559 301.75C144.745 301.69 144.929 301.66 145.109 301.66C145.502 301.66 145.825 301.74 146.079 301.9C146.339 302.06 146.532 302.303 146.659 302.63C146.792 302.957 146.859 303.363 146.859 303.85V307H145.819V303.91C145.819 303.61 145.779 303.367 145.699 303.18C145.625 302.987 145.512 302.843 145.359 302.75C145.205 302.657 145.009 302.61 144.769 302.61C144.582 302.61 144.405 302.643 144.239 302.71C144.079 302.77 143.939 302.857 143.819 302.97C143.699 303.083 143.605 303.217 143.539 303.37C143.472 303.517 143.439 303.68 143.439 303.86V307H142.399V303.89C142.399 303.617 142.359 303.387 142.279 303.2C142.199 303.007 142.082 302.86 141.929 302.76C141.775 302.66 141.589 302.61 141.369 302.61C141.182 302.61 141.009 302.643 140.849 302.71C140.689 302.77 140.549 302.857 140.429 302.97C140.309 303.077 140.215 303.207 140.149 303.36C140.082 303.507 140.049 303.667 140.049 303.84V307H139.009ZM150.598 307.1C150.084 307.1 149.624 306.983 149.218 306.75C148.818 306.51 148.501 306.187 148.268 305.78C148.034 305.367 147.918 304.897 147.918 304.37C147.918 303.843 148.034 303.377 148.268 302.97C148.501 302.557 148.818 302.233 149.218 302C149.624 301.76 150.084 301.64 150.598 301.64C151.104 301.64 151.558 301.76 151.958 302C152.364 302.233 152.684 302.557 152.918 302.97C153.151 303.377 153.268 303.843 153.268 304.37C153.268 304.897 153.151 305.367 152.918 305.78C152.684 306.187 152.364 306.51 151.958 306.75C151.558 306.983 151.104 307.1 150.598 307.1ZM150.598 306.16C150.911 306.16 151.191 306.083 151.438 305.93C151.684 305.77 151.878 305.557 152.018 305.29C152.158 305.017 152.224 304.71 152.218 304.37C152.224 304.023 152.158 303.717 152.018 303.45C151.878 303.177 151.684 302.963 151.438 302.81C151.191 302.657 150.911 302.58 150.598 302.58C150.284 302.58 150.001 302.66 149.748 302.82C149.501 302.973 149.308 303.187 149.168 303.46C149.028 303.727 148.961 304.03 148.968 304.37C148.961 304.71 149.028 305.017 149.168 305.29C149.308 305.557 149.501 305.77 149.748 305.93C150.001 306.083 150.284 306.16 150.598 306.16ZM156.23 307.1C155.857 307.1 155.53 307.013 155.25 306.84C154.977 306.667 154.763 306.423 154.61 306.11C154.463 305.797 154.39 305.423 154.39 304.99V301.75H155.42V304.71C155.42 305.017 155.467 305.283 155.56 305.51C155.66 305.73 155.8 305.9 155.98 306.02C156.167 306.14 156.39 306.2 156.65 306.2C156.843 306.2 157.02 306.17 157.18 306.11C157.34 306.043 157.477 305.953 157.59 305.84C157.71 305.727 157.803 305.59 157.87 305.43C157.937 305.27 157.97 305.097 157.97 304.91V301.75H159V307H157.97V305.9L158.15 305.78C158.07 306.027 157.933 306.25 157.74 306.45C157.553 306.65 157.33 306.81 157.07 306.93C156.81 307.043 156.53 307.1 156.23 307.1ZM160.445 307V301.75H161.475V302.83L161.295 302.95C161.361 302.717 161.491 302.503 161.685 302.31C161.878 302.11 162.108 301.95 162.375 301.83C162.641 301.703 162.915 301.64 163.195 301.64C163.595 301.64 163.928 301.72 164.195 301.88C164.461 302.033 164.661 302.27 164.795 302.59C164.928 302.91 164.995 303.313 164.995 303.8V307H163.965V303.87C163.965 303.57 163.925 303.323 163.845 303.13C163.765 302.93 163.641 302.787 163.475 302.7C163.308 302.607 163.101 302.567 162.855 302.58C162.655 302.58 162.471 302.613 162.305 302.68C162.138 302.74 161.991 302.827 161.865 302.94C161.745 303.053 161.648 303.187 161.575 303.34C161.508 303.487 161.475 303.647 161.475 303.82V307H160.965C160.878 307 160.791 307 160.705 307C160.618 307 160.531 307 160.445 307ZM167.042 307V300.41H168.072V307H167.042ZM165.952 302.75V301.75H169.292V302.75H165.952Z" fill="#3B3B3B"/>
<path d="M253.25 307L255.96 300H257.06L259.75 307H258.6L257 302.78C256.98 302.733 256.94 302.62 256.88 302.44C256.827 302.26 256.763 302.06 256.69 301.84C256.617 301.62 256.55 301.42 256.49 301.24C256.43 301.053 256.39 300.933 256.37 300.88L256.6 300.87C256.56 300.983 256.51 301.127 256.45 301.3C256.397 301.473 256.337 301.657 256.27 301.85C256.21 302.043 256.15 302.227 256.09 302.4C256.03 302.567 255.98 302.707 255.94 302.82L254.35 307H253.25ZM254.45 305.26L254.85 304.22H258.03L258.49 305.26H254.45ZM260.702 307V301.75H261.742V302.87L261.552 302.99C261.605 302.817 261.689 302.65 261.802 302.49C261.922 302.33 262.065 302.19 262.232 302.07C262.405 301.943 262.589 301.843 262.782 301.77C262.982 301.697 263.185 301.66 263.392 301.66C263.692 301.66 263.955 301.71 264.182 301.81C264.409 301.91 264.595 302.06 264.742 302.26C264.889 302.46 264.995 302.71 265.062 303.01L264.902 302.97L264.972 302.8C265.045 302.647 265.145 302.503 265.272 302.37C265.405 302.23 265.555 302.107 265.722 302C265.889 301.893 266.065 301.81 266.252 301.75C266.439 301.69 266.622 301.66 266.802 301.66C267.195 301.66 267.519 301.74 267.772 301.9C268.032 302.06 268.225 302.303 268.352 302.63C268.485 302.957 268.552 303.363 268.552 303.85V307H267.512V303.91C267.512 303.61 267.472 303.367 267.392 303.18C267.319 302.987 267.205 302.843 267.052 302.75C266.899 302.657 266.702 302.61 266.462 302.61C266.275 302.61 266.099 302.643 265.932 302.71C265.772 302.77 265.632 302.857 265.512 302.97C265.392 303.083 265.299 303.217 265.232 303.37C265.165 303.517 265.132 303.68 265.132 303.86V307H264.092V303.89C264.092 303.617 264.052 303.387 263.972 303.2C263.892 303.007 263.775 302.86 263.622 302.76C263.469 302.66 263.282 302.61 263.062 302.61C262.875 302.61 262.702 302.643 262.542 302.71C262.382 302.77 262.242 302.857 262.122 302.97C262.002 303.077 261.909 303.207 261.842 303.36C261.775 303.507 261.742 303.667 261.742 303.84V307H260.702ZM272.291 307.1C271.778 307.1 271.318 306.983 270.911 306.75C270.511 306.51 270.194 306.187 269.961 305.78C269.728 305.367 269.611 304.897 269.611 304.37C269.611 303.843 269.728 303.377 269.961 302.97C270.194 302.557 270.511 302.233 270.911 302C271.318 301.76 271.778 301.64 272.291 301.64C272.798 301.64 273.251 301.76 273.651 302C274.058 302.233 274.378 302.557 274.611 302.97C274.844 303.377 274.961 303.843 274.961 304.37C274.961 304.897 274.844 305.367 274.611 305.78C274.378 306.187 274.058 306.51 273.651 306.75C273.251 306.983 272.798 307.1 272.291 307.1ZM272.291 306.16C272.604 306.16 272.884 306.083 273.131 305.93C273.378 305.77 273.571 305.557 273.711 305.29C273.851 305.017 273.918 304.71 273.911 304.37C273.918 304.023 273.851 303.717 273.711 303.45C273.571 303.177 273.378 302.963 273.131 302.81C272.884 302.657 272.604 302.58 272.291 302.58C271.978 302.58 271.694 302.66 271.441 302.82C271.194 302.973 271.001 303.187 270.861 303.46C270.721 303.727 270.654 304.03 270.661 304.37C270.654 304.71 270.721 305.017 270.861 305.29C271.001 305.557 271.194 305.77 271.441 305.93C271.694 306.083 271.978 306.16 272.291 306.16ZM277.923 307.1C277.55 307.1 277.223 307.013 276.943 306.84C276.67 306.667 276.457 306.423 276.303 306.11C276.157 305.797 276.083 305.423 276.083 304.99V301.75H277.113V304.71C277.113 305.017 277.16 305.283 277.253 305.51C277.353 305.73 277.493 305.9 277.673 306.02C277.86 306.14 278.083 306.2 278.343 306.2C278.537 306.2 278.713 306.17 278.873 306.11C279.033 306.043 279.17 305.953 279.283 305.84C279.403 305.727 279.497 305.59 279.563 305.43C279.63 305.27 279.663 305.097 279.663 304.91V301.75H280.693V307H279.663V305.9L279.843 305.78C279.763 306.027 279.627 306.25 279.433 306.45C279.247 306.65 279.023 306.81 278.763 306.93C278.503 307.043 278.223 307.1 277.923 307.1ZM282.138 307V301.75H283.168V302.83L282.988 302.95C283.055 302.717 283.185 302.503 283.378 302.31C283.571 302.11 283.801 301.95 284.068 301.83C284.335 301.703 284.608 301.64 284.888 301.64C285.288 301.64 285.621 301.72 285.888 301.88C286.155 302.033 286.355 302.27 286.488 302.59C286.621 302.91 286.688 303.313 286.688 303.8V307H285.658V303.87C285.658 303.57 285.618 303.323 285.538 303.13C285.458 302.93 285.335 302.787 285.168 302.7C285.001 302.607 284.795 302.567 284.548 302.58C284.348 302.58 284.165 302.613 283.998 302.68C283.831 302.74 283.685 302.827 283.558 302.94C283.438 303.053 283.341 303.187 283.268 303.34C283.201 303.487 283.168 303.647 283.168 303.82V307H282.658C282.571 307 282.485 307 282.398 307C282.311 307 282.225 307 282.138 307ZM288.735 307V300.41H289.765V307H288.735ZM287.645 302.75V301.75H290.985V302.75H287.645Z" fill="#3B3B3B"/>
<rect x="103" y="326" width="112" height="7" rx="3.5" fill="#E4E6EA"/>
<rect x="264" y="326" width="112" height="7" rx="3.5" fill="#E4E6EA"/>
<rect x="92.25" y="316.25" width="133.5" height="26.5" rx="3.75" stroke="#E4E6EA" stroke-width="0.5"/>
<rect x="253.25" y="316.25" width="133.5" height="26.5" rx="3.75" stroke="#E4E6EA" stroke-width="0.5"/>
<rect x="82" y="359" width="315" height="74" rx="9" fill="white"/>
<path d="M92.98 379V372H95.72C96.22 372 96.67 372.083 97.07 372.25C97.4767 372.417 97.8233 372.657 98.11 372.97C98.3967 373.283 98.6167 373.653 98.77 374.08C98.9233 374.507 99 374.98 99 375.5C99 376.02 98.9233 376.497 98.77 376.93C98.6167 377.357 98.3967 377.727 98.11 378.04C97.83 378.347 97.4867 378.583 97.08 378.75C96.6733 378.917 96.22 379 95.72 379H92.98ZM94.06 378.07L94.03 377.96H95.67C96.0233 377.96 96.3367 377.903 96.61 377.79C96.89 377.677 97.1233 377.517 97.31 377.31C97.5033 377.097 97.65 376.837 97.75 376.53C97.85 376.223 97.9 375.88 97.9 375.5C97.9 375.12 97.85 374.78 97.75 374.48C97.65 374.173 97.5033 373.913 97.31 373.7C97.1167 373.487 96.8833 373.323 96.61 373.21C96.3367 373.097 96.0233 373.04 95.67 373.04H94L94.06 372.95V378.07ZM102.65 379.1C102.11 379.1 101.63 378.987 101.21 378.76C100.797 378.527 100.47 378.21 100.23 377.81C99.9971 377.41 99.8805 376.95 99.8805 376.43C99.8805 376.017 99.9471 375.64 100.08 375.3C100.214 374.96 100.397 374.667 100.63 374.42C100.87 374.167 101.154 373.973 101.48 373.84C101.814 373.7 102.174 373.63 102.56 373.63C102.9 373.63 103.217 373.697 103.51 373.83C103.804 373.957 104.057 374.133 104.27 374.36C104.49 374.587 104.657 374.857 104.77 375.17C104.89 375.477 104.947 375.813 104.94 376.18L104.93 376.62H100.64L100.41 375.8H104.04L103.89 375.97V375.73C103.87 375.51 103.797 375.313 103.67 375.14C103.544 374.967 103.384 374.83 103.19 374.73C102.997 374.63 102.787 374.58 102.56 374.58C102.2 374.58 101.897 374.65 101.65 374.79C101.404 374.923 101.217 375.123 101.09 375.39C100.964 375.65 100.9 375.973 100.9 376.36C100.9 376.727 100.977 377.047 101.13 377.32C101.284 377.587 101.5 377.793 101.78 377.94C102.06 378.087 102.384 378.16 102.75 378.16C103.01 378.16 103.25 378.117 103.47 378.03C103.697 377.943 103.94 377.787 104.2 377.56L104.72 378.29C104.56 378.45 104.364 378.59 104.13 378.71C103.904 378.83 103.66 378.927 103.4 379C103.147 379.067 102.897 379.1 102.65 379.1ZM107.81 379.1C107.37 379.1 106.973 379.023 106.62 378.87C106.267 378.717 105.973 378.49 105.74 378.19L106.44 377.59C106.64 377.823 106.857 377.993 107.09 378.1C107.33 378.2 107.6 378.25 107.9 378.25C108.02 378.25 108.13 378.237 108.23 378.21C108.337 378.177 108.427 378.13 108.5 378.07C108.58 378.01 108.64 377.94 108.68 377.86C108.72 377.773 108.74 377.68 108.74 377.58C108.74 377.407 108.677 377.267 108.55 377.16C108.483 377.113 108.377 377.063 108.23 377.01C108.09 376.95 107.907 376.89 107.68 376.83C107.293 376.73 106.977 376.617 106.73 376.49C106.483 376.363 106.293 376.22 106.16 376.06C106.06 375.933 105.987 375.797 105.94 375.65C105.893 375.497 105.87 375.33 105.87 375.15C105.87 374.93 105.917 374.73 106.01 374.55C106.11 374.363 106.243 374.203 106.41 374.07C106.583 373.93 106.783 373.823 107.01 373.75C107.243 373.677 107.49 373.64 107.75 373.64C107.997 373.64 108.24 373.673 108.48 373.74C108.727 373.807 108.953 373.903 109.16 374.03C109.367 374.157 109.54 374.307 109.68 374.48L109.09 375.13C108.963 375.003 108.823 374.893 108.67 374.8C108.523 374.7 108.373 374.623 108.22 374.57C108.067 374.517 107.927 374.49 107.8 374.49C107.66 374.49 107.533 374.503 107.42 374.53C107.307 374.557 107.21 374.597 107.13 374.65C107.057 374.703 107 374.77 106.96 374.85C106.92 374.93 106.9 375.02 106.9 375.12C106.907 375.207 106.927 375.29 106.96 375.37C107 375.443 107.053 375.507 107.12 375.56C107.193 375.613 107.303 375.67 107.45 375.73C107.597 375.79 107.783 375.847 108.01 375.9C108.343 375.987 108.617 376.083 108.83 376.19C109.05 376.29 109.223 376.407 109.35 376.54C109.483 376.667 109.577 376.813 109.63 376.98C109.683 377.147 109.71 377.333 109.71 377.54C109.71 377.84 109.623 378.11 109.45 378.35C109.283 378.583 109.057 378.767 108.77 378.9C108.483 379.033 108.163 379.1 107.81 379.1ZM113.075 379.1C112.588 379.1 112.152 378.98 111.765 378.74C111.385 378.5 111.082 378.173 110.855 377.76C110.635 377.347 110.525 376.883 110.525 376.37C110.525 375.857 110.635 375.393 110.855 374.98C111.082 374.567 111.385 374.24 111.765 374C112.152 373.76 112.588 373.64 113.075 373.64C113.542 373.64 113.965 373.737 114.345 373.93C114.732 374.117 115.025 374.373 115.225 374.7L114.655 375.4C114.548 375.247 114.412 375.107 114.245 374.98C114.078 374.853 113.902 374.753 113.715 374.68C113.528 374.607 113.348 374.57 113.175 374.57C112.855 374.57 112.568 374.65 112.315 374.81C112.068 374.963 111.872 375.177 111.725 375.45C111.578 375.723 111.505 376.03 111.505 376.37C111.505 376.71 111.582 377.017 111.735 377.29C111.888 377.557 112.092 377.77 112.345 377.93C112.598 378.09 112.878 378.17 113.185 378.17C113.365 378.17 113.538 378.14 113.705 378.08C113.878 378.02 114.045 377.93 114.205 377.81C114.365 377.69 114.515 377.543 114.655 377.37L115.225 378.07C115.012 378.37 114.705 378.617 114.305 378.81C113.912 379.003 113.502 379.1 113.075 379.1ZM116.197 379V373.75H117.237V375.4L117.137 375C117.21 374.747 117.333 374.517 117.507 374.31C117.687 374.103 117.89 373.94 118.117 373.82C118.35 373.7 118.59 373.64 118.837 373.64C118.95 373.64 119.057 373.65 119.157 373.67C119.263 373.69 119.347 373.713 119.407 373.74L119.137 374.86C119.057 374.827 118.967 374.8 118.867 374.78C118.773 374.753 118.68 374.74 118.587 374.74C118.407 374.74 118.233 374.777 118.067 374.85C117.907 374.917 117.763 375.013 117.637 375.14C117.517 375.26 117.42 375.403 117.347 375.57C117.273 375.73 117.237 375.907 117.237 376.1V379H116.197ZM120.4 379V373.75H121.43V379H120.4ZM120.9 372.59C120.68 372.59 120.51 372.533 120.39 372.42C120.27 372.307 120.21 372.147 120.21 371.94C120.21 371.747 120.27 371.59 120.39 371.47C120.516 371.35 120.686 371.29 120.9 371.29C121.12 371.29 121.29 371.347 121.41 371.46C121.53 371.573 121.59 371.733 121.59 371.94C121.59 372.133 121.526 372.29 121.4 372.41C121.28 372.53 121.113 372.59 120.9 372.59ZM123.013 381.2V373.75H124.053V374.95L123.893 374.86C123.933 374.66 124.046 374.47 124.233 374.29C124.42 374.103 124.646 373.953 124.913 373.84C125.186 373.72 125.466 373.66 125.753 373.66C126.226 373.66 126.646 373.777 127.013 374.01C127.38 374.243 127.67 374.563 127.883 374.97C128.096 375.377 128.203 375.843 128.203 376.37C128.203 376.89 128.096 377.357 127.883 377.77C127.676 378.177 127.39 378.5 127.023 378.74C126.656 378.973 126.243 379.09 125.783 379.09C125.476 379.09 125.18 379.03 124.893 378.91C124.606 378.783 124.363 378.623 124.163 378.43C123.963 378.237 123.84 378.037 123.793 377.83L124.053 377.69V381.2H123.013ZM125.613 378.14C125.92 378.14 126.193 378.063 126.433 377.91C126.673 377.757 126.863 377.547 127.003 377.28C127.143 377.013 127.213 376.71 127.213 376.37C127.213 376.03 127.143 375.73 127.003 375.47C126.87 375.203 126.683 374.993 126.443 374.84C126.203 374.687 125.926 374.61 125.613 374.61C125.3 374.61 125.023 374.687 124.783 374.84C124.543 374.987 124.353 375.193 124.213 375.46C124.073 375.727 124.003 376.03 124.003 376.37C124.003 376.71 124.073 377.013 124.213 377.28C124.353 377.547 124.543 377.757 124.783 377.91C125.023 378.063 125.3 378.14 125.613 378.14ZM129.972 379V372.41H131.002V379H129.972ZM128.882 374.75V373.75H132.222V374.75H128.882ZM133.329 379V373.75H134.359V379H133.329ZM133.829 372.59C133.609 372.59 133.439 372.533 133.319 372.42C133.199 372.307 133.139 372.147 133.139 371.94C133.139 371.747 133.199 371.59 133.319 371.47C133.446 371.35 133.616 371.29 133.829 371.29C134.049 371.29 134.219 371.347 134.339 371.46C134.459 371.573 134.519 371.733 134.519 371.94C134.519 372.133 134.456 372.29 134.329 372.41C134.209 372.53 134.043 372.59 133.829 372.59ZM138.303 379.1C137.789 379.1 137.329 378.983 136.923 378.75C136.523 378.51 136.206 378.187 135.973 377.78C135.739 377.367 135.623 376.897 135.623 376.37C135.623 375.843 135.739 375.377 135.973 374.97C136.206 374.557 136.523 374.233 136.923 374C137.329 373.76 137.789 373.64 138.303 373.64C138.809 373.64 139.263 373.76 139.663 374C140.069 374.233 140.389 374.557 140.623 374.97C140.856 375.377 140.973 375.843 140.973 376.37C140.973 376.897 140.856 377.367 140.623 377.78C140.389 378.187 140.069 378.51 139.663 378.75C139.263 378.983 138.809 379.1 138.303 379.1ZM138.303 378.16C138.616 378.16 138.896 378.083 139.143 377.93C139.389 377.77 139.583 377.557 139.723 377.29C139.863 377.017 139.929 376.71 139.923 376.37C139.929 376.023 139.863 375.717 139.723 375.45C139.583 375.177 139.389 374.963 139.143 374.81C138.896 374.657 138.616 374.58 138.303 374.58C137.989 374.58 137.706 374.66 137.453 374.82C137.206 374.973 137.013 375.187 136.873 375.46C136.733 375.727 136.666 376.03 136.673 376.37C136.666 376.71 136.733 377.017 136.873 377.29C137.013 377.557 137.206 377.77 137.453 377.93C137.706 378.083 137.989 378.16 138.303 378.16ZM142.095 379V373.75H143.125V374.83L142.945 374.95C143.012 374.717 143.142 374.503 143.335 374.31C143.528 374.11 143.758 373.95 144.025 373.83C144.292 373.703 144.565 373.64 144.845 373.64C145.245 373.64 145.578 373.72 145.845 373.88C146.112 374.033 146.312 374.27 146.445 374.59C146.578 374.91 146.645 375.313 146.645 375.8V379H145.615V375.87C145.615 375.57 145.575 375.323 145.495 375.13C145.415 374.93 145.292 374.787 145.125 374.7C144.958 374.607 144.752 374.567 144.505 374.58C144.305 374.58 144.122 374.613 143.955 374.68C143.788 374.74 143.642 374.827 143.515 374.94C143.395 375.053 143.298 375.187 143.225 375.34C143.158 375.487 143.125 375.647 143.125 375.82V379H142.615C142.528 379 142.442 379 142.355 379C142.268 379 142.182 379 142.095 379Z" fill="#3B3B3B"/>
<rect x="103" y="398" width="274" height="7" rx="3.5" fill="#E4E6EA"/>
<rect x="103" y="398" width="274" height="7" rx="3.5" fill="#E4E6EA"/>
<rect x="103" y="410" width="213" height="7" rx="3.5" fill="#E4E6EA"/>
<rect x="92.25" y="388.25" width="294.5" height="38.5" rx="3.75" stroke="#E4E6EA" stroke-width="0.5"/>
</svg>
