<svg width="480" height="540" viewBox="0 0 480 540" fill="none" xmlns="http://www.w3.org/2000/svg">
<rect x="34" y="168" width="411" height="203" rx="11" fill="#FFAFAF"/>
<rect x="370" y="238" width="53" height="18" rx="9" fill="#D9D9D9"/>
<path d="M445 179C445 172.925 440.075 168 434 168H45C38.9249 168 34 172.925 34 179V209C34 210.105 34.8954 211 36 211H445V179Z" fill="#FF8C8C"/>
<path d="M50.365 195V184.5H54.925C55.625 184.5 56.215 184.605 56.695 184.815C57.185 185.015 57.555 185.31 57.805 185.7C58.055 186.09 58.18 186.555 58.18 187.095C58.18 187.695 58.03 188.195 57.73 188.595C57.43 188.995 57 189.27 56.44 189.42L56.425 189.12C56.895 189.23 57.3 189.41 57.64 189.66C57.99 189.91 58.26 190.22 58.45 190.59C58.64 190.96 58.735 191.38 58.735 191.85C58.735 192.37 58.65 192.83 58.48 193.23C58.31 193.62 58.06 193.945 57.73 194.205C57.4 194.465 57.01 194.665 56.56 194.805C56.12 194.935 55.625 195 55.075 195H50.365ZM52.525 193.05H54.985C55.305 193.05 55.575 193.005 55.795 192.915C56.025 192.815 56.2 192.665 56.32 192.465C56.44 192.265 56.5 192.03 56.5 191.76C56.5 191.5 56.435 191.28 56.305 191.1C56.175 190.92 55.99 190.785 55.75 190.695C55.52 190.595 55.24 190.545 54.91 190.545H52.525V193.05ZM52.525 188.76H54.655C54.925 188.76 55.16 188.71 55.36 188.61C55.56 188.51 55.71 188.375 55.81 188.205C55.92 188.035 55.975 187.835 55.975 187.605C55.975 187.235 55.855 186.95 55.615 186.75C55.375 186.55 55.01 186.45 54.52 186.45H52.525V188.76ZM63.4354 195.15C62.7754 195.15 62.1804 194.97 61.6504 194.61C61.1204 194.25 60.7004 193.76 60.3904 193.14C60.0804 192.52 59.9254 191.81 59.9254 191.01C59.9254 190.21 60.0804 189.5 60.3904 188.88C60.7104 188.26 61.1404 187.775 61.6804 187.425C62.2204 187.075 62.8354 186.9 63.5254 186.9C63.9154 186.9 64.2704 186.96 64.5904 187.08C64.9204 187.19 65.2054 187.345 65.4454 187.545C65.6954 187.745 65.9054 187.975 66.0754 188.235C66.2454 188.495 66.3654 188.775 66.4354 189.075L65.9854 189V187.065H68.1004V195H65.9554V193.095L66.4354 193.05C66.3554 193.33 66.2254 193.595 66.0454 193.845C65.8654 194.095 65.6404 194.32 65.3704 194.52C65.1104 194.71 64.8154 194.865 64.4854 194.985C64.1554 195.095 63.8054 195.15 63.4354 195.15ZM64.0204 193.305C64.4204 193.305 64.7704 193.21 65.0704 193.02C65.3704 192.83 65.6004 192.565 65.7604 192.225C65.9304 191.875 66.0154 191.47 66.0154 191.01C66.0154 190.56 65.9304 190.165 65.7604 189.825C65.6004 189.485 65.3704 189.22 65.0704 189.03C64.7704 188.83 64.4204 188.73 64.0204 188.73C63.6304 188.73 63.2854 188.83 62.9854 189.03C62.6954 189.22 62.4654 189.485 62.2954 189.825C62.1254 190.165 62.0404 190.56 62.0404 191.01C62.0404 191.47 62.1254 191.875 62.2954 192.225C62.4654 192.565 62.6954 192.83 62.9854 193.02C63.2854 193.21 63.6304 193.305 64.0204 193.305ZM70.2359 195V187.065H72.2759L72.3359 188.685L71.9159 188.865C72.0259 188.505 72.2209 188.18 72.5009 187.89C72.7909 187.59 73.1359 187.35 73.5359 187.17C73.9359 186.99 74.3559 186.9 74.7959 186.9C75.3959 186.9 75.8959 187.02 76.2959 187.26C76.7059 187.5 77.0109 187.865 77.2109 188.355C77.4209 188.835 77.5259 189.43 77.5259 190.14V195H75.3959V190.305C75.3959 189.945 75.3459 189.645 75.2459 189.405C75.1459 189.165 74.9909 188.99 74.7809 188.88C74.5809 188.77 74.3309 188.72 74.0309 188.73C73.7909 188.73 73.5659 188.77 73.3559 188.85C73.1559 188.92 72.9809 189.025 72.8309 189.165C72.6909 189.305 72.5759 189.465 72.4859 189.645C72.4059 189.825 72.3659 190.02 72.3659 190.23V195H71.3159C71.0859 195 70.8809 195 70.7009 195C70.5209 195 70.3659 195 70.2359 195ZM81.592 192.615L80.962 190.86L84.712 187.065H87.517L81.592 192.615ZM79.567 195V183.9H81.697V195H79.567ZM84.937 195L82.087 191.415L83.587 190.215L87.502 195H84.937Z" fill="black"/>
<path d="M201.638 196V183.4H207.11C207.95 183.4 208.658 183.526 209.234 183.778C209.822 184.018 210.266 184.372 210.566 184.84C210.866 185.308 211.016 185.866 211.016 186.514C211.016 187.234 210.836 187.834 210.476 188.314C210.116 188.794 209.6 189.124 208.928 189.304L208.91 188.944C209.474 189.076 209.96 189.292 210.368 189.592C210.788 189.892 211.112 190.264 211.34 190.708C211.568 191.152 211.682 191.656 211.682 192.22C211.682 192.844 211.58 193.396 211.376 193.876C211.172 194.344 210.872 194.734 210.476 195.046C210.08 195.358 209.612 195.598 209.072 195.766C208.544 195.922 207.95 196 207.29 196H201.638ZM204.23 193.66H207.182C207.566 193.66 207.89 193.606 208.154 193.498C208.43 193.378 208.64 193.198 208.784 192.958C208.928 192.718 209 192.436 209 192.112C209 191.8 208.922 191.536 208.766 191.32C208.61 191.104 208.388 190.942 208.1 190.834C207.824 190.714 207.488 190.654 207.092 190.654H204.23V193.66ZM204.23 188.512H206.786C207.11 188.512 207.392 188.452 207.632 188.332C207.872 188.212 208.052 188.05 208.172 187.846C208.304 187.642 208.37 187.402 208.37 187.126C208.37 186.682 208.226 186.34 207.938 186.1C207.65 185.86 207.212 185.74 206.624 185.74H204.23V188.512ZM218.186 196.18C217.214 196.18 216.344 195.97 215.576 195.55C214.82 195.118 214.22 194.53 213.776 193.786C213.344 193.042 213.128 192.19 213.128 191.23C213.128 190.27 213.344 189.418 213.776 188.674C214.22 187.93 214.82 187.348 215.576 186.928C216.344 186.496 217.214 186.28 218.186 186.28C219.146 186.28 220.004 186.496 220.76 186.928C221.528 187.348 222.128 187.93 222.56 188.674C222.992 189.418 223.208 190.27 223.208 191.23C223.208 192.19 222.992 193.042 222.56 193.786C222.128 194.53 221.528 195.118 220.76 195.55C220.004 195.97 219.146 196.18 218.186 196.18ZM218.186 193.948C218.654 193.948 219.074 193.834 219.446 193.606C219.818 193.366 220.106 193.042 220.31 192.634C220.526 192.214 220.628 191.746 220.616 191.23C220.628 190.702 220.526 190.234 220.31 189.826C220.106 189.406 219.818 189.082 219.446 188.854C219.074 188.614 218.654 188.494 218.186 188.494C217.706 188.494 217.28 188.614 216.908 188.854C216.536 189.094 216.242 189.418 216.026 189.826C215.81 190.234 215.708 190.702 215.72 191.23C215.708 191.746 215.81 192.214 216.026 192.634C216.242 193.042 216.536 193.366 216.908 193.606C217.28 193.834 217.706 193.948 218.186 193.948ZM228.425 196.18C227.729 196.18 227.129 196.03 226.625 195.73C226.133 195.418 225.749 194.98 225.473 194.416C225.209 193.84 225.077 193.15 225.077 192.346V186.478H227.633V191.932C227.633 192.364 227.705 192.742 227.849 193.066C227.993 193.378 228.197 193.618 228.461 193.786C228.725 193.954 229.049 194.038 229.433 194.038C229.709 194.038 229.961 193.996 230.189 193.912C230.429 193.816 230.633 193.684 230.801 193.516C230.981 193.348 231.119 193.15 231.215 192.922C231.311 192.694 231.359 192.448 231.359 192.184V186.478H233.915V196H231.485L231.395 194.038L231.863 193.822C231.719 194.266 231.479 194.668 231.143 195.028C230.807 195.388 230.405 195.67 229.937 195.874C229.469 196.078 228.965 196.18 228.425 196.18ZM236.487 196V186.478H238.935L239.007 188.422L238.503 188.638C238.635 188.206 238.869 187.816 239.205 187.468C239.553 187.108 239.967 186.82 240.447 186.604C240.927 186.388 241.431 186.28 241.959 186.28C242.679 186.28 243.279 186.424 243.759 186.712C244.251 187 244.617 187.438 244.857 188.026C245.109 188.602 245.235 189.316 245.235 190.168V196H242.679V190.366C242.679 189.934 242.619 189.574 242.499 189.286C242.379 188.998 242.193 188.788 241.941 188.656C241.701 188.524 241.401 188.464 241.041 188.476C240.753 188.476 240.483 188.524 240.231 188.62C239.991 188.704 239.781 188.83 239.601 188.998C239.433 189.166 239.295 189.358 239.187 189.574C239.091 189.79 239.043 190.024 239.043 190.276V196H237.783C237.507 196 237.261 196 237.045 196C236.829 196 236.643 196 236.487 196ZM251.824 196.18C250.912 196.18 250.096 195.964 249.376 195.532C248.656 195.1 248.086 194.512 247.666 193.768C247.258 193.024 247.054 192.178 247.054 191.23C247.054 190.282 247.258 189.436 247.666 188.692C248.086 187.948 248.656 187.36 249.376 186.928C250.096 186.496 250.912 186.28 251.824 186.28C252.676 186.28 253.456 186.436 254.164 186.748C254.872 187.06 255.424 187.492 255.82 188.044L254.416 189.736C254.248 189.508 254.038 189.304 253.786 189.124C253.534 188.932 253.258 188.782 252.958 188.674C252.67 188.566 252.37 188.512 252.058 188.512C251.566 188.512 251.128 188.632 250.744 188.872C250.372 189.1 250.078 189.418 249.862 189.826C249.646 190.234 249.538 190.702 249.538 191.23C249.538 191.734 249.646 192.19 249.862 192.598C250.09 193.006 250.396 193.33 250.78 193.57C251.164 193.81 251.596 193.93 252.076 193.93C252.388 193.93 252.682 193.888 252.958 193.804C253.234 193.72 253.492 193.588 253.732 193.408C253.984 193.228 254.212 193.012 254.416 192.76L255.802 194.452C255.406 194.968 254.842 195.388 254.11 195.712C253.39 196.024 252.628 196.18 251.824 196.18ZM261.958 196.18C260.926 196.18 260.02 195.97 259.24 195.55C258.472 195.13 257.872 194.554 257.44 193.822C257.02 193.09 256.81 192.25 256.81 191.302C256.81 190.558 256.93 189.88 257.17 189.268C257.41 188.656 257.746 188.128 258.178 187.684C258.61 187.228 259.12 186.88 259.708 186.64C260.308 186.388 260.956 186.262 261.652 186.262C262.3 186.262 262.9 186.382 263.452 186.622C264.004 186.862 264.478 187.198 264.874 187.63C265.282 188.05 265.594 188.554 265.81 189.142C266.026 189.718 266.122 190.342 266.098 191.014L266.08 191.806H258.43L258.016 190.24H263.974L263.686 190.564V190.168C263.662 189.844 263.554 189.556 263.362 189.304C263.182 189.04 262.948 188.836 262.66 188.692C262.372 188.536 262.048 188.458 261.688 188.458C261.16 188.458 260.71 188.56 260.338 188.764C259.978 188.968 259.702 189.268 259.51 189.664C259.318 190.06 259.222 190.54 259.222 191.104C259.222 191.68 259.342 192.178 259.582 192.598C259.834 193.018 260.182 193.348 260.626 193.588C261.082 193.816 261.616 193.93 262.228 193.93C262.648 193.93 263.032 193.864 263.38 193.732C263.728 193.6 264.1 193.372 264.496 193.048L265.72 194.758C265.372 195.07 264.988 195.334 264.568 195.55C264.148 195.754 263.716 195.91 263.272 196.018C262.828 196.126 262.39 196.18 261.958 196.18ZM271.713 196.18C270.873 196.18 270.123 195.97 269.463 195.55C268.815 195.118 268.299 194.536 267.915 193.804C267.543 193.06 267.357 192.202 267.357 191.23C267.357 190.282 267.543 189.436 267.915 188.692C268.299 187.936 268.815 187.348 269.463 186.928C270.123 186.496 270.873 186.28 271.713 186.28C272.157 186.28 272.583 186.352 272.991 186.496C273.411 186.628 273.783 186.814 274.107 187.054C274.443 187.294 274.713 187.564 274.917 187.864C275.121 188.152 275.235 188.452 275.259 188.764L274.611 188.89V182.68H277.185V196H274.755L274.647 193.804L275.151 193.858C275.127 194.158 275.019 194.446 274.827 194.722C274.635 194.998 274.377 195.25 274.053 195.478C273.741 195.694 273.381 195.868 272.973 196C272.577 196.12 272.157 196.18 271.713 196.18ZM272.289 194.056C272.769 194.056 273.189 193.936 273.549 193.696C273.909 193.456 274.191 193.126 274.395 192.706C274.599 192.286 274.701 191.794 274.701 191.23C274.701 190.678 274.599 190.192 274.395 189.772C274.191 189.352 273.909 189.022 273.549 188.782C273.189 188.542 272.769 188.422 272.289 188.422C271.809 188.422 271.389 188.542 271.029 188.782C270.681 189.022 270.405 189.352 270.201 189.772C270.009 190.192 269.913 190.678 269.913 191.23C269.913 191.794 270.009 192.286 270.201 192.706C270.405 193.126 270.681 193.456 271.029 193.696C271.389 193.936 271.809 194.056 272.289 194.056Z" fill="#ED2929"/>
<rect width="381" height="34" rx="5" transform="matrix(-1 0 0 1 430 270)" fill="#EEEEEE"/>
<path d="M66.128 292V283.6H69.62C70.1 283.6 70.532 283.716 70.916 283.948C71.308 284.18 71.62 284.496 71.852 284.896C72.084 285.296 72.2 285.744 72.2 286.24C72.2 286.744 72.084 287.2 71.852 287.608C71.62 288.008 71.308 288.328 70.916 288.568C70.532 288.808 70.1 288.928 69.62 288.928H67.688V292H66.128ZM67.688 287.488H69.512C69.712 287.488 69.892 287.432 70.052 287.32C70.22 287.208 70.352 287.06 70.448 286.876C70.552 286.692 70.604 286.484 70.604 286.252C70.604 286.02 70.552 285.816 70.448 285.64C70.352 285.456 70.22 285.312 70.052 285.208C69.892 285.096 69.712 285.04 69.512 285.04H67.688V287.488ZM75.8575 292.12C75.3375 292.12 74.8655 291.976 74.4415 291.688C74.0175 291.4 73.6775 291.008 73.4215 290.512C73.1655 290.016 73.0375 289.452 73.0375 288.82C73.0375 288.188 73.1655 287.624 73.4215 287.128C73.6775 286.632 74.0255 286.244 74.4655 285.964C74.9055 285.684 75.4015 285.544 75.9535 285.544C76.2735 285.544 76.5655 285.592 76.8295 285.688C77.0935 285.776 77.3255 285.904 77.5255 286.072C77.7255 286.24 77.8895 286.432 78.0175 286.648C78.1535 286.864 78.2455 287.096 78.2935 287.344L77.9695 287.26V285.676H79.4575V292H77.9575V290.488L78.3055 290.428C78.2495 290.644 78.1455 290.856 77.9935 291.064C77.8495 291.264 77.6655 291.444 77.4415 291.604C77.2255 291.756 76.9815 291.88 76.7095 291.976C76.4455 292.072 76.1615 292.12 75.8575 292.12ZM76.2655 290.812C76.6095 290.812 76.9135 290.728 77.1775 290.56C77.4415 290.392 77.6455 290.16 77.7895 289.864C77.9415 289.56 78.0175 289.212 78.0175 288.82C78.0175 288.436 77.9415 288.096 77.7895 287.8C77.6455 287.504 77.4415 287.272 77.1775 287.104C76.9135 286.936 76.6095 286.852 76.2655 286.852C75.9215 286.852 75.6175 286.936 75.3535 287.104C75.0975 287.272 74.8975 287.504 74.7535 287.8C74.6095 288.096 74.5375 288.436 74.5375 288.82C74.5375 289.212 74.6095 289.56 74.7535 289.864C74.8975 290.16 75.0975 290.392 75.3535 290.56C75.6175 290.728 75.9215 290.812 76.2655 290.812ZM81.9881 294.76L83.3321 291.652L83.3441 292.636L80.2241 285.676H81.9281L83.6681 289.804C83.7241 289.908 83.7801 290.048 83.8361 290.224C83.8921 290.392 83.9401 290.56 83.9801 290.728L83.6801 290.824C83.7361 290.672 83.7961 290.512 83.8601 290.344C83.9241 290.168 83.9841 289.988 84.0401 289.804L85.5281 285.676H87.2441L84.6041 292L83.5241 294.76H81.9881ZM91.0116 292.12C90.3476 292.12 89.7596 291.98 89.2476 291.7C88.7436 291.42 88.3476 291.04 88.0596 290.56C87.7796 290.072 87.6396 289.516 87.6396 288.892C87.6396 288.396 87.7196 287.944 87.8796 287.536C88.0396 287.128 88.2596 286.776 88.5396 286.48C88.8276 286.176 89.1676 285.944 89.5596 285.784C89.9596 285.616 90.3956 285.532 90.8676 285.532C91.2836 285.532 91.6716 285.612 92.0316 285.772C92.3916 285.932 92.7036 286.152 92.9676 286.432C93.2316 286.704 93.4316 287.032 93.5676 287.416C93.7116 287.792 93.7796 288.204 93.7716 288.652L93.7596 289.168H88.6356L88.3596 288.16H92.5236L92.3316 288.364V288.1C92.3076 287.852 92.2276 287.636 92.0916 287.452C91.9556 287.26 91.7796 287.112 91.5636 287.008C91.3556 286.896 91.1236 286.84 90.8676 286.84C90.4756 286.84 90.1436 286.916 89.8716 287.068C89.6076 287.22 89.4076 287.44 89.2716 287.728C89.1356 288.008 89.0676 288.36 89.0676 288.784C89.0676 289.192 89.1516 289.548 89.3196 289.852C89.4956 290.156 89.7396 290.392 90.0516 290.56C90.3716 290.72 90.7436 290.8 91.1676 290.8C91.4636 290.8 91.7356 290.752 91.9836 290.656C92.2316 290.56 92.4996 290.388 92.7876 290.14L93.5196 291.16C93.3036 291.36 93.0556 291.532 92.7756 291.676C92.5036 291.812 92.2156 291.92 91.9116 292C91.6076 292.08 91.3076 292.12 91.0116 292.12ZM95.0788 292V285.676H96.5308L96.5548 287.692L96.3508 287.236C96.4388 286.916 96.5908 286.628 96.8068 286.372C97.0228 286.116 97.2708 285.916 97.5508 285.772C97.8388 285.62 98.1388 285.544 98.4508 285.544C98.5868 285.544 98.7148 285.556 98.8348 285.58C98.9628 285.604 99.0668 285.632 99.1468 285.664L98.7508 287.284C98.6628 287.236 98.5548 287.196 98.4268 287.164C98.2988 287.132 98.1708 287.116 98.0428 287.116C97.8428 287.116 97.6508 287.156 97.4668 287.236C97.2908 287.308 97.1348 287.412 96.9988 287.548C96.8628 287.684 96.7548 287.844 96.6748 288.028C96.6028 288.204 96.5668 288.404 96.5668 288.628V292H95.0788ZM100.694 292.12C100.406 292.12 100.182 292.036 100.022 291.868C99.8696 291.7 99.7936 291.464 99.7936 291.16C99.7936 290.88 99.8736 290.652 100.034 290.476C100.202 290.292 100.422 290.2 100.694 290.2C100.982 290.2 101.202 290.284 101.354 290.452C101.514 290.612 101.594 290.848 101.594 291.16C101.594 291.44 101.51 291.672 101.342 291.856C101.182 292.032 100.966 292.12 100.694 292.12ZM100.694 287.476C100.406 287.476 100.182 287.392 100.022 287.224C99.8696 287.056 99.7936 286.82 99.7936 286.516C99.7936 286.236 99.8736 286.008 100.034 285.832C100.202 285.648 100.422 285.556 100.694 285.556C100.982 285.556 101.202 285.64 101.354 285.808C101.514 285.968 101.594 286.204 101.594 286.516C101.594 286.796 101.51 287.028 101.342 287.212C101.182 287.388 100.966 287.476 100.694 287.476Z" fill="black"/>
<path d="M330.026 292V283.6H333.398C334.006 283.6 334.554 283.7 335.042 283.9C335.538 284.1 335.962 284.388 336.314 284.764C336.674 285.14 336.946 285.584 337.13 286.096C337.322 286.608 337.418 287.176 337.418 287.8C337.418 288.424 337.322 288.996 337.13 289.516C336.946 290.028 336.678 290.472 336.326 290.848C335.974 291.216 335.55 291.5 335.054 291.7C334.558 291.9 334.006 292 333.398 292H330.026ZM331.586 290.788L331.466 290.56H333.338C333.73 290.56 334.078 290.496 334.382 290.368C334.694 290.24 334.958 290.056 335.174 289.816C335.39 289.576 335.554 289.288 335.666 288.952C335.778 288.608 335.834 288.224 335.834 287.8C335.834 287.376 335.778 286.996 335.666 286.66C335.554 286.316 335.386 286.024 335.162 285.784C334.946 285.544 334.686 285.36 334.382 285.232C334.078 285.104 333.73 285.04 333.338 285.04H331.43L331.586 284.836V290.788ZM341.736 292.12C341.104 292.12 340.54 291.98 340.044 291.7C339.548 291.412 339.156 291.02 338.868 290.524C338.58 290.028 338.436 289.464 338.436 288.832C338.436 288.2 338.58 287.636 338.868 287.14C339.156 286.644 339.548 286.256 340.044 285.976C340.54 285.688 341.104 285.544 341.736 285.544C342.36 285.544 342.92 285.688 343.416 285.976C343.912 286.256 344.3 286.644 344.58 287.14C344.868 287.636 345.012 288.2 345.012 288.832C345.012 289.464 344.868 290.028 344.58 290.524C344.3 291.02 343.912 291.412 343.416 291.7C342.92 291.98 342.36 292.12 341.736 292.12ZM341.736 290.812C342.08 290.812 342.384 290.724 342.648 290.548C342.92 290.372 343.132 290.136 343.284 289.84C343.444 289.544 343.52 289.208 343.512 288.832C343.52 288.448 343.444 288.108 343.284 287.812C343.132 287.516 342.92 287.284 342.648 287.116C342.384 286.94 342.08 286.852 341.736 286.852C341.392 286.852 341.08 286.94 340.8 287.116C340.528 287.284 340.316 287.52 340.164 287.824C340.012 288.12 339.936 288.456 339.936 288.832C339.936 289.208 340.012 289.544 340.164 289.84C340.316 290.136 340.528 290.372 340.8 290.548C341.08 290.724 341.392 290.812 341.736 290.812ZM346.345 292V283.12H347.833V292H346.345ZM349.579 292V283.12H351.067V292H349.579ZM355.072 292.12C354.552 292.12 354.08 291.976 353.656 291.688C353.232 291.4 352.892 291.008 352.636 290.512C352.38 290.016 352.252 289.452 352.252 288.82C352.252 288.188 352.38 287.624 352.636 287.128C352.892 286.632 353.24 286.244 353.68 285.964C354.12 285.684 354.616 285.544 355.168 285.544C355.488 285.544 355.78 285.592 356.044 285.688C356.308 285.776 356.54 285.904 356.74 286.072C356.94 286.24 357.104 286.432 357.232 286.648C357.368 286.864 357.46 287.096 357.508 287.344L357.184 287.26V285.676H358.672V292H357.172V290.488L357.52 290.428C357.464 290.644 357.36 290.856 357.208 291.064C357.064 291.264 356.88 291.444 356.656 291.604C356.44 291.756 356.196 291.88 355.924 291.976C355.66 292.072 355.376 292.12 355.072 292.12ZM355.48 290.812C355.824 290.812 356.128 290.728 356.392 290.56C356.656 290.392 356.86 290.16 357.004 289.864C357.156 289.56 357.232 289.212 357.232 288.82C357.232 288.436 357.156 288.096 357.004 287.8C356.86 287.504 356.656 287.272 356.392 287.104C356.128 286.936 355.824 286.852 355.48 286.852C355.136 286.852 354.832 286.936 354.568 287.104C354.312 287.272 354.112 287.504 353.968 287.8C353.824 288.096 353.752 288.436 353.752 288.82C353.752 289.212 353.824 289.56 353.968 289.864C354.112 290.16 354.312 290.392 354.568 290.56C354.832 290.728 355.136 290.812 355.48 290.812ZM360.384 292V285.676H361.836L361.86 287.692L361.656 287.236C361.744 286.916 361.896 286.628 362.112 286.372C362.328 286.116 362.576 285.916 362.856 285.772C363.144 285.62 363.444 285.544 363.756 285.544C363.892 285.544 364.02 285.556 364.14 285.58C364.268 285.604 364.372 285.632 364.452 285.664L364.056 287.284C363.968 287.236 363.86 287.196 363.732 287.164C363.604 287.132 363.476 287.116 363.348 287.116C363.148 287.116 362.956 287.156 362.772 287.236C362.596 287.308 362.44 287.412 362.304 287.548C362.168 287.684 362.06 287.844 361.98 288.028C361.908 288.204 361.872 288.404 361.872 288.628V292H360.384ZM367.546 292.12C366.986 292.12 366.482 292.028 366.034 291.844C365.594 291.652 365.234 291.38 364.954 291.028L365.914 290.2C366.154 290.472 366.422 290.668 366.718 290.788C367.014 290.908 367.326 290.968 367.654 290.968C367.79 290.968 367.91 290.952 368.014 290.92C368.126 290.888 368.222 290.84 368.302 290.776C368.382 290.712 368.442 290.64 368.482 290.56C368.53 290.472 368.554 290.376 368.554 290.272C368.554 290.08 368.482 289.928 368.338 289.816C368.258 289.76 368.13 289.7 367.954 289.636C367.786 289.572 367.566 289.508 367.294 289.444C366.862 289.332 366.502 289.204 366.214 289.06C365.926 288.908 365.702 288.74 365.542 288.556C365.406 288.404 365.302 288.232 365.23 288.04C365.166 287.848 365.134 287.64 365.134 287.416C365.134 287.136 365.194 286.884 365.314 286.66C365.442 286.428 365.614 286.228 365.83 286.06C366.046 285.892 366.298 285.764 366.586 285.676C366.874 285.588 367.174 285.544 367.486 285.544C367.806 285.544 368.114 285.584 368.41 285.664C368.714 285.744 368.994 285.86 369.25 286.012C369.514 286.156 369.738 286.332 369.922 286.54L369.106 287.44C368.954 287.296 368.786 287.168 368.602 287.056C368.426 286.944 368.246 286.856 368.062 286.792C367.878 286.72 367.706 286.684 367.546 286.684C367.394 286.684 367.258 286.7 367.138 286.732C367.018 286.756 366.918 286.796 366.838 286.852C366.758 286.908 366.694 286.98 366.646 287.068C366.606 287.148 366.586 287.244 366.586 287.356C366.594 287.452 366.618 287.544 366.658 287.632C366.706 287.712 366.77 287.78 366.85 287.836C366.938 287.892 367.07 287.956 367.246 288.028C367.422 288.1 367.65 288.168 367.93 288.232C368.322 288.336 368.65 288.452 368.914 288.58C369.178 288.708 369.386 288.856 369.538 289.024C369.69 289.168 369.798 289.336 369.862 289.528C369.926 289.72 369.958 289.932 369.958 290.164C369.958 290.54 369.85 290.876 369.634 291.172C369.426 291.468 369.138 291.7 368.77 291.868C368.41 292.036 368.002 292.12 367.546 292.12ZM377.114 292.084C376.53 292.084 376.002 291.96 375.53 291.712C375.058 291.456 374.666 291.088 374.354 290.608L375.218 289.672C375.57 290.064 375.886 290.336 376.166 290.488C376.446 290.632 376.754 290.704 377.09 290.704C377.394 290.704 377.666 290.64 377.906 290.512C378.146 290.376 378.338 290.196 378.482 289.972C378.626 289.74 378.698 289.488 378.698 289.216C378.698 288.92 378.63 288.66 378.494 288.436C378.358 288.204 378.174 288.02 377.942 287.884C377.71 287.748 377.446 287.68 377.15 287.68C376.99 287.68 376.838 287.692 376.694 287.716C376.55 287.74 376.382 287.788 376.19 287.86C376.006 287.932 375.77 288.044 375.482 288.196L374.738 287.188L375.23 283.576H379.874V284.956H376.106L376.454 284.572L376.058 287.236L375.614 286.924C375.718 286.828 375.87 286.736 376.07 286.648C376.278 286.56 376.502 286.488 376.742 286.432C376.982 286.376 377.218 286.348 377.45 286.348C377.97 286.348 378.434 286.468 378.842 286.708C379.25 286.948 379.574 287.28 379.814 287.704C380.054 288.12 380.174 288.6 380.174 289.144C380.174 289.696 380.038 290.196 379.766 290.644C379.502 291.084 379.138 291.436 378.674 291.7C378.21 291.956 377.69 292.084 377.114 292.084ZM384.639 292.12C383.959 292.12 383.375 291.948 382.887 291.604C382.407 291.252 382.035 290.756 381.771 290.116C381.515 289.468 381.387 288.696 381.387 287.8C381.387 286.904 381.515 286.136 381.771 285.496C382.035 284.848 382.407 284.352 382.887 284.008C383.375 283.656 383.959 283.48 384.639 283.48C385.319 283.48 385.903 283.656 386.391 284.008C386.879 284.352 387.251 284.848 387.507 285.496C387.771 286.136 387.903 286.904 387.903 287.8C387.903 288.696 387.771 289.468 387.507 290.116C387.251 290.756 386.879 291.252 386.391 291.604C385.903 291.948 385.319 292.12 384.639 292.12ZM384.639 290.752C385.199 290.752 385.631 290.496 385.935 289.984C386.247 289.464 386.403 288.736 386.403 287.8C386.403 286.856 386.247 286.124 385.935 285.604C385.631 285.084 385.199 284.824 384.639 284.824C384.079 284.824 383.643 285.084 383.331 285.604C383.027 286.124 382.875 286.856 382.875 287.8C382.875 288.736 383.027 289.464 383.331 289.984C383.643 290.496 384.079 290.752 384.639 290.752ZM392.21 292.12C391.53 292.12 390.946 291.948 390.458 291.604C389.978 291.252 389.606 290.756 389.342 290.116C389.086 289.468 388.958 288.696 388.958 287.8C388.958 286.904 389.086 286.136 389.342 285.496C389.606 284.848 389.978 284.352 390.458 284.008C390.946 283.656 391.53 283.48 392.21 283.48C392.89 283.48 393.474 283.656 393.962 284.008C394.45 284.352 394.822 284.848 395.078 285.496C395.342 286.136 395.474 286.904 395.474 287.8C395.474 288.696 395.342 289.468 395.078 290.116C394.822 290.756 394.45 291.252 393.962 291.604C393.474 291.948 392.89 292.12 392.21 292.12ZM392.21 290.752C392.77 290.752 393.202 290.496 393.506 289.984C393.818 289.464 393.974 288.736 393.974 287.8C393.974 286.856 393.818 286.124 393.506 285.604C393.202 285.084 392.77 284.824 392.21 284.824C391.65 284.824 391.214 285.084 390.902 285.604C390.598 286.124 390.446 286.856 390.446 287.8C390.446 288.736 390.598 289.464 390.902 289.984C391.214 290.496 391.65 290.752 392.21 290.752ZM399.78 292.12C399.1 292.12 398.516 291.948 398.028 291.604C397.548 291.252 397.176 290.756 396.912 290.116C396.656 289.468 396.528 288.696 396.528 287.8C396.528 286.904 396.656 286.136 396.912 285.496C397.176 284.848 397.548 284.352 398.028 284.008C398.516 283.656 399.1 283.48 399.78 283.48C400.46 283.48 401.044 283.656 401.532 284.008C402.02 284.352 402.392 284.848 402.648 285.496C402.912 286.136 403.044 286.904 403.044 287.8C403.044 288.696 402.912 289.468 402.648 290.116C402.392 290.756 402.02 291.252 401.532 291.604C401.044 291.948 400.46 292.12 399.78 292.12ZM399.78 290.752C400.34 290.752 400.772 290.496 401.076 289.984C401.388 289.464 401.544 288.736 401.544 287.8C401.544 286.856 401.388 286.124 401.076 285.604C400.772 285.084 400.34 284.824 399.78 284.824C399.22 284.824 398.784 285.084 398.472 285.604C398.168 286.124 398.016 286.856 398.016 287.8C398.016 288.736 398.168 289.464 398.472 289.984C398.784 290.496 399.22 290.752 399.78 290.752ZM404.998 292.132C404.71 292.132 404.486 292.048 404.326 291.88C404.174 291.712 404.098 291.476 404.098 291.172C404.098 290.892 404.178 290.664 404.338 290.488C404.506 290.304 404.726 290.212 404.998 290.212C405.286 290.212 405.506 290.296 405.658 290.464C405.818 290.624 405.898 290.86 405.898 291.172C405.898 291.452 405.814 291.684 405.646 291.868C405.486 292.044 405.27 292.132 404.998 292.132ZM410.21 292.12C409.53 292.12 408.946 291.948 408.458 291.604C407.978 291.252 407.606 290.756 407.342 290.116C407.086 289.468 406.958 288.696 406.958 287.8C406.958 286.904 407.086 286.136 407.342 285.496C407.606 284.848 407.978 284.352 408.458 284.008C408.946 283.656 409.53 283.48 410.21 283.48C410.89 283.48 411.474 283.656 411.962 284.008C412.45 284.352 412.822 284.848 413.078 285.496C413.342 286.136 413.474 286.904 413.474 287.8C413.474 288.696 413.342 289.468 413.078 290.116C412.822 290.756 412.45 291.252 411.962 291.604C411.474 291.948 410.89 292.12 410.21 292.12ZM410.21 290.752C410.77 290.752 411.202 290.496 411.506 289.984C411.818 289.464 411.974 288.736 411.974 287.8C411.974 286.856 411.818 286.124 411.506 285.604C411.202 285.084 410.77 284.824 410.21 284.824C409.65 284.824 409.214 285.084 408.902 285.604C408.598 286.124 408.446 286.856 408.446 287.8C408.446 288.736 408.598 289.464 408.902 289.984C409.214 290.496 409.65 290.752 410.21 290.752Z" fill="black"/>
<rect x="103" y="188" width="41" height="6" rx="3" fill="#FFAFAF"/>
<rect x="80" y="241" width="93" height="6" rx="3" fill="#FF8C8C"/>
<path d="M344.14 332.1C343.76 332.1 343.407 332.05 343.08 331.95C342.76 331.85 342.467 331.7 342.2 331.5C341.94 331.293 341.707 331.04 341.5 330.74L342.24 329.89C342.567 330.357 342.88 330.68 343.18 330.86C343.48 331.04 343.837 331.13 344.25 331.13C344.503 331.13 344.733 331.09 344.94 331.01C345.147 330.93 345.31 330.82 345.43 330.68C345.55 330.54 345.61 330.38 345.61 330.2C345.61 330.08 345.59 329.967 345.55 329.86C345.51 329.753 345.447 329.657 345.36 329.57C345.28 329.483 345.173 329.403 345.04 329.33C344.913 329.257 344.763 329.193 344.59 329.14C344.417 329.08 344.217 329.03 343.99 328.99C343.63 328.917 343.317 328.82 343.05 328.7C342.783 328.58 342.56 328.43 342.38 328.25C342.2 328.07 342.067 327.867 341.98 327.64C341.893 327.407 341.85 327.147 341.85 326.86C341.85 326.58 341.91 326.32 342.03 326.08C342.157 325.84 342.327 325.633 342.54 325.46C342.76 325.28 343.017 325.143 343.31 325.05C343.603 324.95 343.92 324.9 344.26 324.9C344.62 324.9 344.95 324.947 345.25 325.04C345.55 325.133 345.817 325.273 346.05 325.46C346.283 325.64 346.477 325.863 346.63 326.13L345.87 326.88C345.737 326.66 345.587 326.477 345.42 326.33C345.253 326.177 345.07 326.063 344.87 325.99C344.67 325.91 344.457 325.87 344.23 325.87C343.97 325.87 343.743 325.91 343.55 325.99C343.357 326.07 343.203 326.183 343.09 326.33C342.983 326.47 342.93 326.637 342.93 326.83C342.93 326.97 342.957 327.1 343.01 327.22C343.063 327.333 343.143 327.437 343.25 327.53C343.363 327.617 343.513 327.697 343.7 327.77C343.887 327.837 344.11 327.897 344.37 327.95C344.737 328.03 345.063 328.133 345.35 328.26C345.637 328.38 345.88 328.523 346.08 328.69C346.28 328.857 346.43 329.043 346.53 329.25C346.637 329.457 346.69 329.68 346.69 329.92C346.69 330.367 346.587 330.753 346.38 331.08C346.173 331.407 345.88 331.66 345.5 331.84C345.12 332.013 344.667 332.1 344.14 332.1ZM348.13 332V326.75H349.16V332H348.13ZM348.63 325.59C348.41 325.59 348.24 325.533 348.12 325.42C348 325.307 347.94 325.147 347.94 324.94C347.94 324.747 348 324.59 348.12 324.47C348.247 324.35 348.417 324.29 348.63 324.29C348.85 324.29 349.02 324.347 349.14 324.46C349.26 324.573 349.32 324.733 349.32 324.94C349.32 325.133 349.257 325.29 349.13 325.41C349.01 325.53 348.844 325.59 348.63 325.59ZM353.093 334.3C352.72 334.3 352.347 334.24 351.973 334.12C351.607 334.007 351.31 333.857 351.083 333.67L351.463 332.87C351.597 332.97 351.753 333.057 351.933 333.13C352.113 333.21 352.303 333.27 352.503 333.31C352.703 333.357 352.9 333.38 353.093 333.38C353.46 333.38 353.767 333.32 354.013 333.2C354.26 333.08 354.447 332.903 354.573 332.67C354.7 332.437 354.763 332.147 354.763 331.8V330.79L354.873 330.86C354.84 331.067 354.73 331.267 354.543 331.46C354.363 331.647 354.137 331.8 353.863 331.92C353.59 332.04 353.31 332.1 353.023 332.1C352.523 332.1 352.077 331.983 351.683 331.75C351.297 331.51 350.99 331.187 350.763 330.78C350.537 330.367 350.423 329.897 350.423 329.37C350.423 328.843 350.533 328.377 350.753 327.97C350.98 327.557 351.287 327.233 351.673 327C352.067 326.76 352.507 326.64 352.993 326.64C353.193 326.64 353.387 326.667 353.573 326.72C353.76 326.767 353.933 326.837 354.093 326.93C354.253 327.017 354.397 327.113 354.523 327.22C354.65 327.327 354.753 327.44 354.833 327.56C354.913 327.68 354.963 327.793 354.983 327.9L354.763 327.98V326.75H355.793V331.68C355.793 332.1 355.73 332.47 355.603 332.79C355.483 333.117 355.307 333.39 355.073 333.61C354.84 333.837 354.557 334.007 354.223 334.12C353.89 334.24 353.513 334.3 353.093 334.3ZM353.133 331.15C353.46 331.15 353.75 331.073 354.003 330.92C354.257 330.767 354.453 330.557 354.593 330.29C354.733 330.023 354.803 329.717 354.803 329.37C354.803 329.023 354.73 328.717 354.583 328.45C354.443 328.177 354.247 327.963 353.993 327.81C353.747 327.657 353.46 327.58 353.133 327.58C352.813 327.58 352.527 327.66 352.273 327.82C352.027 327.973 351.83 328.187 351.683 328.46C351.543 328.727 351.473 329.03 351.473 329.37C351.473 329.71 351.543 330.017 351.683 330.29C351.83 330.557 352.027 330.767 352.273 330.92C352.527 331.073 352.813 331.15 353.133 331.15ZM357.238 332V326.75H358.268V327.83L358.088 327.95C358.154 327.717 358.284 327.503 358.478 327.31C358.671 327.11 358.901 326.95 359.168 326.83C359.434 326.703 359.708 326.64 359.988 326.64C360.388 326.64 360.721 326.72 360.988 326.88C361.254 327.033 361.454 327.27 361.588 327.59C361.721 327.91 361.788 328.313 361.788 328.8V332H360.758V328.87C360.758 328.57 360.718 328.323 360.638 328.13C360.558 327.93 360.434 327.787 360.268 327.7C360.101 327.607 359.894 327.567 359.648 327.58C359.448 327.58 359.264 327.613 359.098 327.68C358.931 327.74 358.784 327.827 358.658 327.94C358.538 328.053 358.441 328.187 358.368 328.34C358.301 328.487 358.268 328.647 358.268 328.82V332H357.758C357.671 332 357.584 332 357.498 332C357.411 332 357.324 332 357.238 332ZM365.205 332.1C364.772 332.1 364.375 331.98 364.015 331.74C363.662 331.5 363.378 331.173 363.165 330.76C362.952 330.347 362.845 329.88 362.845 329.36C362.845 328.833 362.952 328.367 363.165 327.96C363.385 327.547 363.678 327.223 364.045 326.99C364.418 326.757 364.835 326.64 365.295 326.64C365.568 326.64 365.818 326.68 366.045 326.76C366.272 326.84 366.468 326.953 366.635 327.1C366.808 327.24 366.948 327.403 367.055 327.59C367.168 327.777 367.238 327.977 367.265 328.19L367.035 328.11V326.75H368.075V332H367.035V330.75L367.275 330.68C367.235 330.86 367.152 331.037 367.025 331.21C366.905 331.377 366.748 331.527 366.555 331.66C366.368 331.793 366.158 331.9 365.925 331.98C365.698 332.06 365.458 332.1 365.205 332.1ZM365.475 331.15C365.788 331.15 366.065 331.073 366.305 330.92C366.545 330.767 366.732 330.557 366.865 330.29C367.005 330.017 367.075 329.707 367.075 329.36C367.075 329.02 367.005 328.717 366.865 328.45C366.732 328.183 366.545 327.973 366.305 327.82C366.065 327.667 365.788 327.59 365.475 327.59C365.168 327.59 364.895 327.667 364.655 327.82C364.422 327.973 364.235 328.183 364.095 328.45C363.962 328.717 363.895 329.02 363.895 329.36C363.895 329.707 363.962 330.017 364.095 330.29C364.235 330.557 364.422 330.767 364.655 330.92C364.895 331.073 365.168 331.15 365.475 331.15ZM370.163 332V325.41H371.193V332H370.163ZM369.073 327.75V326.75H372.413V327.75H369.073ZM375.191 332.1C374.818 332.1 374.491 332.013 374.211 331.84C373.938 331.667 373.724 331.423 373.571 331.11C373.424 330.797 373.351 330.423 373.351 329.99V326.75H374.381V329.71C374.381 330.017 374.428 330.283 374.521 330.51C374.621 330.73 374.761 330.9 374.941 331.02C375.128 331.14 375.351 331.2 375.611 331.2C375.804 331.2 375.981 331.17 376.141 331.11C376.301 331.043 376.438 330.953 376.551 330.84C376.671 330.727 376.764 330.59 376.831 330.43C376.898 330.27 376.931 330.097 376.931 329.91V326.75H377.961V332H376.931V330.9L377.111 330.78C377.031 331.027 376.894 331.25 376.701 331.45C376.514 331.65 376.291 331.81 376.031 331.93C375.771 332.043 375.491 332.1 375.191 332.1ZM379.406 332V326.75H380.446V328.4L380.346 328C380.419 327.747 380.542 327.517 380.716 327.31C380.896 327.103 381.099 326.94 381.326 326.82C381.559 326.7 381.799 326.64 382.046 326.64C382.159 326.64 382.266 326.65 382.366 326.67C382.472 326.69 382.556 326.713 382.616 326.74L382.346 327.86C382.266 327.827 382.176 327.8 382.076 327.78C381.982 327.753 381.889 327.74 381.796 327.74C381.616 327.74 381.442 327.777 381.276 327.85C381.116 327.917 380.972 328.013 380.846 328.14C380.726 328.26 380.629 328.403 380.556 328.57C380.482 328.73 380.446 328.907 380.446 329.1V332H379.406ZM385.664 332.1C385.124 332.1 384.644 331.987 384.224 331.76C383.811 331.527 383.484 331.21 383.244 330.81C383.011 330.41 382.894 329.95 382.894 329.43C382.894 329.017 382.961 328.64 383.094 328.3C383.227 327.96 383.411 327.667 383.644 327.42C383.884 327.167 384.167 326.973 384.494 326.84C384.827 326.7 385.187 326.63 385.574 326.63C385.914 326.63 386.231 326.697 386.524 326.83C386.817 326.957 387.071 327.133 387.284 327.36C387.504 327.587 387.671 327.857 387.784 328.17C387.904 328.477 387.961 328.813 387.954 329.18L387.944 329.62H383.654L383.424 328.8H387.054L386.904 328.97V328.73C386.884 328.51 386.811 328.313 386.684 328.14C386.557 327.967 386.397 327.83 386.204 327.73C386.011 327.63 385.801 327.58 385.574 327.58C385.214 327.58 384.911 327.65 384.664 327.79C384.417 327.923 384.231 328.123 384.104 328.39C383.977 328.65 383.914 328.973 383.914 329.36C383.914 329.727 383.991 330.047 384.144 330.32C384.297 330.587 384.514 330.793 384.794 330.94C385.074 331.087 385.397 331.16 385.764 331.16C386.024 331.16 386.264 331.117 386.484 331.03C386.711 330.943 386.954 330.787 387.214 330.56L387.734 331.29C387.574 331.45 387.377 331.59 387.144 331.71C386.917 331.83 386.674 331.927 386.414 332C386.161 332.067 385.911 332.1 385.664 332.1Z" fill="#3B3B3B"/>
<path d="M341.98 229V222H344.72C345.22 222 345.67 222.083 346.07 222.25C346.477 222.417 346.823 222.657 347.11 222.97C347.397 223.283 347.617 223.653 347.77 224.08C347.923 224.507 348 224.98 348 225.5C348 226.02 347.923 226.497 347.77 226.93C347.617 227.357 347.397 227.727 347.11 228.04C346.83 228.347 346.487 228.583 346.08 228.75C345.673 228.917 345.22 229 344.72 229H341.98ZM343.06 228.07L343.03 227.96H344.67C345.023 227.96 345.337 227.903 345.61 227.79C345.89 227.677 346.123 227.517 346.31 227.31C346.503 227.097 346.65 226.837 346.75 226.53C346.85 226.223 346.9 225.88 346.9 225.5C346.9 225.12 346.85 224.78 346.75 224.48C346.65 224.173 346.503 223.913 346.31 223.7C346.117 223.487 345.883 223.323 345.61 223.21C345.337 223.097 345.023 223.04 344.67 223.04H343L343.06 222.95V228.07ZM351.65 229.1C351.11 229.1 350.63 228.987 350.21 228.76C349.797 228.527 349.47 228.21 349.23 227.81C348.997 227.41 348.88 226.95 348.88 226.43C348.88 226.017 348.947 225.64 349.08 225.3C349.214 224.96 349.397 224.667 349.63 224.42C349.87 224.167 350.154 223.973 350.48 223.84C350.814 223.7 351.174 223.63 351.56 223.63C351.9 223.63 352.217 223.697 352.51 223.83C352.804 223.957 353.057 224.133 353.27 224.36C353.49 224.587 353.657 224.857 353.77 225.17C353.89 225.477 353.947 225.813 353.94 226.18L353.93 226.62H349.64L349.41 225.8H353.04L352.89 225.97V225.73C352.87 225.51 352.797 225.313 352.67 225.14C352.544 224.967 352.384 224.83 352.19 224.73C351.997 224.63 351.787 224.58 351.56 224.58C351.2 224.58 350.897 224.65 350.65 224.79C350.404 224.923 350.217 225.123 350.09 225.39C349.964 225.65 349.9 225.973 349.9 226.36C349.9 226.727 349.977 227.047 350.13 227.32C350.284 227.587 350.5 227.793 350.78 227.94C351.06 228.087 351.384 228.16 351.75 228.16C352.01 228.16 352.25 228.117 352.47 228.03C352.697 227.943 352.94 227.787 353.2 227.56L353.72 228.29C353.56 228.45 353.364 228.59 353.13 228.71C352.904 228.83 352.66 228.927 352.4 229C352.147 229.067 351.897 229.1 351.65 229.1ZM355.06 231.2V223.75H356.1V224.95L355.94 224.86C355.98 224.66 356.093 224.47 356.28 224.29C356.467 224.103 356.693 223.953 356.96 223.84C357.233 223.72 357.513 223.66 357.8 223.66C358.273 223.66 358.693 223.777 359.06 224.01C359.427 224.243 359.717 224.563 359.93 224.97C360.143 225.377 360.25 225.843 360.25 226.37C360.25 226.89 360.143 227.357 359.93 227.77C359.723 228.177 359.437 228.5 359.07 228.74C358.703 228.973 358.29 229.09 357.83 229.09C357.523 229.09 357.227 229.03 356.94 228.91C356.653 228.783 356.41 228.623 356.21 228.43C356.01 228.237 355.887 228.037 355.84 227.83L356.1 227.69V231.2H355.06ZM357.66 228.14C357.967 228.14 358.24 228.063 358.48 227.91C358.72 227.757 358.91 227.547 359.05 227.28C359.19 227.013 359.26 226.71 359.26 226.37C359.26 226.03 359.19 225.73 359.05 225.47C358.917 225.203 358.73 224.993 358.49 224.84C358.25 224.687 357.973 224.61 357.66 224.61C357.347 224.61 357.07 224.687 356.83 224.84C356.59 224.987 356.4 225.193 356.26 225.46C356.12 225.727 356.05 226.03 356.05 226.37C356.05 226.71 356.12 227.013 356.26 227.28C356.4 227.547 356.59 227.757 356.83 227.91C357.07 228.063 357.347 228.14 357.66 228.14ZM363.728 229.1C363.215 229.1 362.755 228.983 362.348 228.75C361.948 228.51 361.632 228.187 361.398 227.78C361.165 227.367 361.048 226.897 361.048 226.37C361.048 225.843 361.165 225.377 361.398 224.97C361.632 224.557 361.948 224.233 362.348 224C362.755 223.76 363.215 223.64 363.728 223.64C364.235 223.64 364.688 223.76 365.088 224C365.495 224.233 365.815 224.557 366.048 224.97C366.282 225.377 366.398 225.843 366.398 226.37C366.398 226.897 366.282 227.367 366.048 227.78C365.815 228.187 365.495 228.51 365.088 228.75C364.688 228.983 364.235 229.1 363.728 229.1ZM363.728 228.16C364.042 228.16 364.322 228.083 364.568 227.93C364.815 227.77 365.008 227.557 365.148 227.29C365.288 227.017 365.355 226.71 365.348 226.37C365.355 226.023 365.288 225.717 365.148 225.45C365.008 225.177 364.815 224.963 364.568 224.81C364.322 224.657 364.042 224.58 363.728 224.58C363.415 224.58 363.132 224.66 362.878 224.82C362.632 224.973 362.438 225.187 362.298 225.46C362.158 225.727 362.092 226.03 362.098 226.37C362.092 226.71 362.158 227.017 362.298 227.29C362.438 227.557 362.632 227.77 362.878 227.93C363.132 228.083 363.415 228.16 363.728 228.16ZM369.271 229.1C368.831 229.1 368.434 229.023 368.081 228.87C367.727 228.717 367.434 228.49 367.201 228.19L367.901 227.59C368.101 227.823 368.317 227.993 368.551 228.1C368.791 228.2 369.061 228.25 369.361 228.25C369.481 228.25 369.591 228.237 369.691 228.21C369.797 228.177 369.887 228.13 369.961 228.07C370.041 228.01 370.101 227.94 370.141 227.86C370.181 227.773 370.201 227.68 370.201 227.58C370.201 227.407 370.137 227.267 370.011 227.16C369.944 227.113 369.837 227.063 369.691 227.01C369.551 226.95 369.367 226.89 369.141 226.83C368.754 226.73 368.437 226.617 368.191 226.49C367.944 226.363 367.754 226.22 367.621 226.06C367.521 225.933 367.447 225.797 367.401 225.65C367.354 225.497 367.331 225.33 367.331 225.15C367.331 224.93 367.377 224.73 367.471 224.55C367.571 224.363 367.704 224.203 367.871 224.07C368.044 223.93 368.244 223.823 368.471 223.75C368.704 223.677 368.951 223.64 369.211 223.64C369.457 223.64 369.701 223.673 369.941 223.74C370.187 223.807 370.414 223.903 370.621 224.03C370.827 224.157 371.001 224.307 371.141 224.48L370.551 225.13C370.424 225.003 370.284 224.893 370.131 224.8C369.984 224.7 369.834 224.623 369.681 224.57C369.527 224.517 369.387 224.49 369.261 224.49C369.121 224.49 368.994 224.503 368.881 224.53C368.767 224.557 368.671 224.597 368.591 224.65C368.517 224.703 368.461 224.77 368.421 224.85C368.381 224.93 368.361 225.02 368.361 225.12C368.367 225.207 368.387 225.29 368.421 225.37C368.461 225.443 368.514 225.507 368.581 225.56C368.654 225.613 368.764 225.67 368.911 225.73C369.057 225.79 369.244 225.847 369.471 225.9C369.804 225.987 370.077 226.083 370.291 226.19C370.511 226.29 370.684 226.407 370.811 226.54C370.944 226.667 371.037 226.813 371.091 226.98C371.144 227.147 371.171 227.333 371.171 227.54C371.171 227.84 371.084 228.11 370.911 228.35C370.744 228.583 370.517 228.767 370.231 228.9C369.944 229.033 369.624 229.1 369.271 229.1ZM372.476 229V223.75H373.506V229H372.476ZM372.976 222.59C372.756 222.59 372.586 222.533 372.466 222.42C372.346 222.307 372.286 222.147 372.286 221.94C372.286 221.747 372.346 221.59 372.466 221.47C372.593 221.35 372.763 221.29 372.976 221.29C373.196 221.29 373.366 221.347 373.486 221.46C373.606 221.573 373.666 221.733 373.666 221.94C373.666 222.133 373.603 222.29 373.476 222.41C373.356 222.53 373.189 222.59 372.976 222.59ZM375.739 229V222.41H376.769V229H375.739ZM374.649 224.75V223.75H377.989V224.75H374.649ZM384.83 229.1C384.343 229.1 383.896 229.013 383.49 228.84C383.083 228.667 382.73 228.42 382.43 228.1C382.13 227.773 381.896 227.39 381.73 226.95C381.57 226.51 381.49 226.027 381.49 225.5C381.49 225 381.576 224.537 381.75 224.11C381.93 223.677 382.176 223.297 382.49 222.97C382.803 222.643 383.166 222.39 383.58 222.21C383.993 222.03 384.44 221.94 384.92 221.94C385.26 221.94 385.59 221.993 385.91 222.1C386.236 222.2 386.53 222.343 386.79 222.53C387.056 222.71 387.273 222.917 387.44 223.15L386.72 223.9C386.526 223.707 386.33 223.547 386.13 223.42C385.936 223.287 385.736 223.187 385.53 223.12C385.33 223.053 385.126 223.02 384.92 223.02C384.593 223.02 384.286 223.083 384 223.21C383.72 223.33 383.473 223.5 383.26 223.72C383.053 223.94 382.89 224.203 382.77 224.51C382.65 224.81 382.59 225.14 382.59 225.5C382.59 225.88 382.646 226.227 382.76 226.54C382.88 226.847 383.046 227.11 383.26 227.33C383.473 227.55 383.726 227.72 384.02 227.84C384.32 227.953 384.65 228.01 385.01 228.01C385.23 228.01 385.446 227.98 385.66 227.92C385.873 227.86 386.073 227.773 386.26 227.66C386.446 227.547 386.616 227.413 386.77 227.26L387.31 228.14C387.156 228.32 386.946 228.483 386.68 228.63C386.42 228.777 386.126 228.893 385.8 228.98C385.48 229.06 385.156 229.1 384.83 229.1ZM388.517 229V221.6H389.547V224.83L389.367 224.95C389.434 224.717 389.564 224.503 389.757 224.31C389.95 224.11 390.18 223.95 390.447 223.83C390.714 223.703 390.987 223.64 391.267 223.64C391.667 223.64 392 223.72 392.267 223.88C392.534 224.033 392.734 224.27 392.867 224.59C393 224.91 393.067 225.313 393.067 225.8V229H392.037V225.87C392.037 225.57 391.997 225.323 391.917 225.13C391.837 224.93 391.714 224.787 391.547 224.7C391.38 224.607 391.174 224.567 390.927 224.58C390.727 224.58 390.544 224.613 390.377 224.68C390.21 224.74 390.064 224.827 389.937 224.94C389.817 225.053 389.72 225.187 389.647 225.34C389.58 225.487 389.547 225.647 389.547 225.82V229H389.037C388.95 229 388.864 229 388.777 229C388.69 229 388.604 229 388.517 229ZM396.914 229.1C396.374 229.1 395.894 228.987 395.474 228.76C395.061 228.527 394.734 228.21 394.494 227.81C394.261 227.41 394.144 226.95 394.144 226.43C394.144 226.017 394.211 225.64 394.344 225.3C394.477 224.96 394.661 224.667 394.894 224.42C395.134 224.167 395.417 223.973 395.744 223.84C396.077 223.7 396.437 223.63 396.824 223.63C397.164 223.63 397.481 223.697 397.774 223.83C398.067 223.957 398.321 224.133 398.534 224.36C398.754 224.587 398.921 224.857 399.034 225.17C399.154 225.477 399.211 225.813 399.204 226.18L399.194 226.62H394.904L394.674 225.8H398.304L398.154 225.97V225.73C398.134 225.51 398.061 225.313 397.934 225.14C397.807 224.967 397.647 224.83 397.454 224.73C397.261 224.63 397.051 224.58 396.824 224.58C396.464 224.58 396.161 224.65 395.914 224.79C395.667 224.923 395.481 225.123 395.354 225.39C395.227 225.65 395.164 225.973 395.164 226.36C395.164 226.727 395.241 227.047 395.394 227.32C395.547 227.587 395.764 227.793 396.044 227.94C396.324 228.087 396.647 228.16 397.014 228.16C397.274 228.16 397.514 228.117 397.734 228.03C397.961 227.943 398.204 227.787 398.464 227.56L398.984 228.29C398.824 228.45 398.627 228.59 398.394 228.71C398.167 228.83 397.924 228.927 397.664 229C397.411 229.067 397.161 229.1 396.914 229.1ZM402.554 229.1C402.067 229.1 401.63 228.98 401.244 228.74C400.864 228.5 400.56 228.173 400.334 227.76C400.114 227.347 400.004 226.883 400.004 226.37C400.004 225.857 400.114 225.393 400.334 224.98C400.56 224.567 400.864 224.24 401.244 224C401.63 223.76 402.067 223.64 402.554 223.64C403.02 223.64 403.444 223.737 403.824 223.93C404.21 224.117 404.504 224.373 404.704 224.7L404.134 225.4C404.027 225.247 403.89 225.107 403.724 224.98C403.557 224.853 403.38 224.753 403.194 224.68C403.007 224.607 402.827 224.57 402.654 224.57C402.334 224.57 402.047 224.65 401.794 224.81C401.547 224.963 401.35 225.177 401.204 225.45C401.057 225.723 400.984 226.03 400.984 226.37C400.984 226.71 401.06 227.017 401.214 227.29C401.367 227.557 401.57 227.77 401.824 227.93C402.077 228.09 402.357 228.17 402.664 228.17C402.844 228.17 403.017 228.14 403.184 228.08C403.357 228.02 403.524 227.93 403.684 227.81C403.844 227.69 403.994 227.543 404.134 227.37L404.704 228.07C404.49 228.37 404.184 228.617 403.784 228.81C403.39 229.003 402.98 229.1 402.554 229.1ZM406.615 227.36L406.565 226.24L409.075 223.75H410.465L406.615 227.36ZM405.675 229V221.6H406.705V229H405.675ZM409.215 229L407.235 226.69L407.965 226.02L410.535 229H409.215ZM411.779 229.1C411.559 229.1 411.389 229.037 411.269 228.91C411.149 228.777 411.089 228.59 411.089 228.35C411.089 228.13 411.152 227.95 411.279 227.81C411.405 227.67 411.572 227.6 411.779 227.6C411.999 227.6 412.169 227.667 412.289 227.8C412.409 227.927 412.469 228.11 412.469 228.35C412.469 228.57 412.405 228.75 412.279 228.89C412.152 229.03 411.985 229.1 411.779 229.1ZM411.779 225.15C411.559 225.15 411.389 225.087 411.269 224.96C411.149 224.827 411.089 224.64 411.089 224.4C411.089 224.18 411.152 224 411.279 223.86C411.405 223.72 411.572 223.65 411.779 223.65C411.999 223.65 412.169 223.717 412.289 223.85C412.409 223.977 412.469 224.16 412.469 224.4C412.469 224.62 412.405 224.8 412.279 224.94C412.152 225.08 411.985 225.15 411.779 225.15ZM416.697 229V222H417.667L421.947 227.73L421.787 227.82C421.76 227.653 421.737 227.473 421.717 227.28C421.697 227.08 421.677 226.87 421.657 226.65C421.643 226.423 421.63 226.187 421.617 225.94C421.61 225.687 421.603 225.423 421.597 225.15C421.59 224.877 421.587 224.593 421.587 224.3V222H422.667V229H421.677L417.467 223.48L417.577 223.34C417.61 223.747 417.637 224.093 417.657 224.38C417.683 224.66 417.703 224.9 417.717 225.1C417.737 225.293 417.75 225.453 417.757 225.58C417.763 225.7 417.767 225.8 417.767 225.88C417.773 225.96 417.777 226.03 417.777 226.09V229H416.697ZM426.726 229.1C426.213 229.1 425.753 228.983 425.346 228.75C424.946 228.51 424.63 228.187 424.396 227.78C424.163 227.367 424.046 226.897 424.046 226.37C424.046 225.843 424.163 225.377 424.396 224.97C424.63 224.557 424.946 224.233 425.346 224C425.753 223.76 426.213 223.64 426.726 223.64C427.233 223.64 427.686 223.76 428.086 224C428.493 224.233 428.813 224.557 429.046 224.97C429.28 225.377 429.396 225.843 429.396 226.37C429.396 226.897 429.28 227.367 429.046 227.78C428.813 228.187 428.493 228.51 428.086 228.75C427.686 228.983 427.233 229.1 426.726 229.1ZM426.726 228.16C427.04 228.16 427.32 228.083 427.566 227.93C427.813 227.77 428.006 227.557 428.146 227.29C428.286 227.017 428.353 226.71 428.346 226.37C428.353 226.023 428.286 225.717 428.146 225.45C428.006 225.177 427.813 224.963 427.566 224.81C427.32 224.657 427.04 224.58 426.726 224.58C426.413 224.58 426.13 224.66 425.876 224.82C425.63 224.973 425.436 225.187 425.296 225.46C425.156 225.727 425.09 226.03 425.096 226.37C425.09 226.71 425.156 227.017 425.296 227.29C425.436 227.557 425.63 227.77 425.876 227.93C426.13 228.083 426.413 228.16 426.726 228.16Z" fill="#3B3B3B"/>
<path d="M52.7 332.06C52.16 332.06 51.6767 331.943 51.25 331.71C50.8233 331.47 50.4867 331.143 50.24 330.73C50 330.31 49.88 329.837 49.88 329.31V324.99H50.96V329.22C50.96 329.56 51.04 329.867 51.2 330.14C51.36 330.407 51.57 330.62 51.83 330.78C52.0967 330.94 52.3867 331.02 52.7 331.02C53.0333 331.02 53.3333 330.94 53.6 330.78C53.8733 330.62 54.09 330.407 54.25 330.14C54.41 329.867 54.49 329.56 54.49 329.22V324.99H55.52V329.31C55.52 329.837 55.3967 330.31 55.15 330.73C54.91 331.143 54.5767 331.47 54.15 331.71C53.7233 331.943 53.24 332.06 52.7 332.06ZM57.1223 332V326.75H58.1523V327.83L57.9723 327.95C58.039 327.717 58.169 327.503 58.3623 327.31C58.5557 327.11 58.7857 326.95 59.0523 326.83C59.319 326.703 59.5923 326.64 59.8723 326.64C60.2723 326.64 60.6057 326.72 60.8723 326.88C61.139 327.033 61.339 327.27 61.4723 327.59C61.6057 327.91 61.6723 328.313 61.6723 328.8V332H60.6423V328.87C60.6423 328.57 60.6023 328.323 60.5223 328.13C60.4423 327.93 60.319 327.787 60.1523 327.7C59.9857 327.607 59.779 327.567 59.5323 327.58C59.3323 327.58 59.149 327.613 58.9823 327.68C58.8157 327.74 58.669 327.827 58.5423 327.94C58.4223 328.053 58.3257 328.187 58.2523 328.34C58.1857 328.487 58.1523 328.647 58.1523 328.82V332H57.6423C57.5557 332 57.469 332 57.3823 332C57.2957 332 57.209 332 57.1223 332ZM63.2396 332V326.75H64.2696V332H63.2396ZM63.7396 325.59C63.5196 325.59 63.3496 325.533 63.2296 325.42C63.1096 325.307 63.0496 325.147 63.0496 324.94C63.0496 324.747 63.1096 324.59 63.2296 324.47C63.3563 324.35 63.5263 324.29 63.7396 324.29C63.9596 324.29 64.1296 324.347 64.2496 324.46C64.3696 324.573 64.4296 324.733 64.4296 324.94C64.4296 325.133 64.3663 325.29 64.2396 325.41C64.1196 325.53 63.9529 325.59 63.7396 325.59ZM66.5028 332V325.41H67.5328V332H66.5028ZM65.4128 327.75V326.75H68.7528V327.75H65.4128Z" fill="#3B3B3B"/>
<path d="M49.67 350.93V341.6H50.64V350.93H49.67ZM51.9845 350.93V341.6H52.9545V350.93H51.9845ZM54.7689 349.1C54.5489 349.1 54.3789 349.037 54.2589 348.91C54.1389 348.777 54.0789 348.59 54.0789 348.35C54.0789 348.13 54.1422 347.95 54.2689 347.81C54.3956 347.67 54.5622 347.6 54.7689 347.6C54.9889 347.6 55.1589 347.667 55.2789 347.8C55.3989 347.927 55.4589 348.11 55.4589 348.35C55.4589 348.57 55.3956 348.75 55.2689 348.89C55.1422 349.03 54.9756 349.1 54.7689 349.1ZM54.7689 345.15C54.5489 345.15 54.3789 345.087 54.2589 344.96C54.1389 344.827 54.0789 344.64 54.0789 344.4C54.0789 344.18 54.1422 344 54.2689 343.86C54.3956 343.72 54.5622 343.65 54.7689 343.65C54.9889 343.65 55.1589 343.717 55.2789 343.85C55.3989 343.977 55.4589 344.16 55.4589 344.4C55.4589 344.62 55.3956 344.8 55.2689 344.94C55.1422 345.08 54.9756 345.15 54.7689 345.15ZM61.737 349.1C61.2037 349.1 60.7437 348.953 60.357 348.66C59.977 348.367 59.6837 347.953 59.477 347.42C59.2704 346.88 59.167 346.24 59.167 345.5C59.167 344.76 59.2704 344.123 59.477 343.59C59.6837 343.05 59.977 342.633 60.357 342.34C60.7437 342.047 61.2037 341.9 61.737 341.9C62.2704 341.9 62.7304 342.047 63.117 342.34C63.5037 342.633 63.8004 343.05 64.007 343.59C64.2137 344.123 64.317 344.76 64.317 345.5C64.317 346.24 64.2137 346.88 64.007 347.42C63.8004 347.953 63.5037 348.367 63.117 348.66C62.7304 348.953 62.2704 349.1 61.737 349.1ZM61.737 348.12C62.2237 348.12 62.6004 347.893 62.867 347.44C63.1337 346.98 63.267 346.333 63.267 345.5C63.267 344.667 63.1337 344.023 62.867 343.57C62.6004 343.11 62.2237 342.88 61.737 342.88C61.2504 342.88 60.8737 343.11 60.607 343.57C60.3404 344.023 60.207 344.667 60.207 345.5C60.207 346.333 60.3404 346.98 60.607 347.44C60.8737 347.893 61.2504 348.12 61.737 348.12ZM67.8113 349.1C67.2779 349.1 66.8179 348.953 66.4313 348.66C66.0513 348.367 65.7579 347.953 65.5513 347.42C65.3446 346.88 65.2413 346.24 65.2413 345.5C65.2413 344.76 65.3446 344.123 65.5513 343.59C65.7579 343.05 66.0513 342.633 66.4313 342.34C66.8179 342.047 67.2779 341.9 67.8113 341.9C68.3446 341.9 68.8046 342.047 69.1913 342.34C69.5779 342.633 69.8746 343.05 70.0813 343.59C70.2879 344.123 70.3913 344.76 70.3913 345.5C70.3913 346.24 70.2879 346.88 70.0813 347.42C69.8746 347.953 69.5779 348.367 69.1913 348.66C68.8046 348.953 68.3446 349.1 67.8113 349.1ZM67.8113 348.12C68.2979 348.12 68.6746 347.893 68.9413 347.44C69.2079 346.98 69.3413 346.333 69.3413 345.5C69.3413 344.667 69.2079 344.023 68.9413 343.57C68.6746 343.11 68.2979 342.88 67.8113 342.88C67.3246 342.88 66.9479 343.11 66.6813 343.57C66.4146 344.023 66.2813 344.667 66.2813 345.5C66.2813 346.333 66.4146 346.98 66.6813 347.44C66.9479 347.893 67.3246 348.12 67.8113 348.12ZM73.8855 349.1C73.3521 349.1 72.8921 348.953 72.5055 348.66C72.1255 348.367 71.8321 347.953 71.6255 347.42C71.4188 346.88 71.3155 346.24 71.3155 345.5C71.3155 344.76 71.4188 344.123 71.6255 343.59C71.8321 343.05 72.1255 342.633 72.5055 342.34C72.8921 342.047 73.3521 341.9 73.8855 341.9C74.4188 341.9 74.8788 342.047 75.2655 342.34C75.6521 342.633 75.9488 343.05 76.1555 343.59C76.3621 344.123 76.4655 344.76 76.4655 345.5C76.4655 346.24 76.3621 346.88 76.1555 347.42C75.9488 347.953 75.6521 348.367 75.2655 348.66C74.8788 348.953 74.4188 349.1 73.8855 349.1ZM73.8855 348.12C74.3721 348.12 74.7488 347.893 75.0155 347.44C75.2821 346.98 75.4155 346.333 75.4155 345.5C75.4155 344.667 75.2821 344.023 75.0155 343.57C74.7488 343.11 74.3721 342.88 73.8855 342.88C73.3988 342.88 73.0221 343.11 72.7555 343.57C72.4888 344.023 72.3555 344.667 72.3555 345.5C72.3555 346.333 72.4888 346.98 72.7555 347.44C73.0221 347.893 73.3988 348.12 73.8855 348.12ZM79.9597 349.1C79.4264 349.1 78.9664 348.953 78.5797 348.66C78.1997 348.367 77.9064 347.953 77.6997 347.42C77.493 346.88 77.3897 346.24 77.3897 345.5C77.3897 344.76 77.493 344.123 77.6997 343.59C77.9064 343.05 78.1997 342.633 78.5797 342.34C78.9664 342.047 79.4264 341.9 79.9597 341.9C80.493 341.9 80.953 342.047 81.3397 342.34C81.7264 342.633 82.023 343.05 82.2297 343.59C82.4364 344.123 82.5397 344.76 82.5397 345.5C82.5397 346.24 82.4364 346.88 82.2297 347.42C82.023 347.953 81.7264 348.367 81.3397 348.66C80.953 348.953 80.493 349.1 79.9597 349.1ZM79.9597 348.12C80.4464 348.12 80.823 347.893 81.0897 347.44C81.3564 346.98 81.4897 346.333 81.4897 345.5C81.4897 344.667 81.3564 344.023 81.0897 343.57C80.823 343.11 80.4464 342.88 79.9597 342.88C79.473 342.88 79.0964 343.11 78.8297 343.57C78.563 344.023 78.4297 344.667 78.4297 345.5C78.4297 346.333 78.563 346.98 78.8297 347.44C79.0964 347.893 79.473 348.12 79.9597 348.12ZM86.0339 349.1C85.5006 349.1 85.0406 348.953 84.6539 348.66C84.2739 348.367 83.9806 347.953 83.7739 347.42C83.5672 346.88 83.4639 346.24 83.4639 345.5C83.4639 344.76 83.5672 344.123 83.7739 343.59C83.9806 343.05 84.2739 342.633 84.6539 342.34C85.0406 342.047 85.5006 341.9 86.0339 341.9C86.5672 341.9 87.0272 342.047 87.4139 342.34C87.8006 342.633 88.0972 343.05 88.3039 343.59C88.5106 344.123 88.6139 344.76 88.6139 345.5C88.6139 346.24 88.5106 346.88 88.3039 347.42C88.0972 347.953 87.8006 348.367 87.4139 348.66C87.0272 348.953 86.5672 349.1 86.0339 349.1ZM86.0339 348.12C86.5206 348.12 86.8972 347.893 87.1639 347.44C87.4306 346.98 87.5639 346.333 87.5639 345.5C87.5639 344.667 87.4306 344.023 87.1639 343.57C86.8972 343.11 86.5206 342.88 86.0339 342.88C85.5472 342.88 85.1706 343.11 84.9039 343.57C84.6372 344.023 84.5039 344.667 84.5039 345.5C84.5039 346.333 84.6372 346.98 84.9039 347.44C85.1706 347.893 85.5472 348.12 86.0339 348.12ZM92.1081 349.1C91.5748 349.1 91.1148 348.953 90.7281 348.66C90.3481 348.367 90.0548 347.953 89.8481 347.42C89.6415 346.88 89.5381 346.24 89.5381 345.5C89.5381 344.76 89.6415 344.123 89.8481 343.59C90.0548 343.05 90.3481 342.633 90.7281 342.34C91.1148 342.047 91.5748 341.9 92.1081 341.9C92.6415 341.9 93.1015 342.047 93.4881 342.34C93.8748 342.633 94.1715 343.05 94.3781 343.59C94.5848 344.123 94.6881 344.76 94.6881 345.5C94.6881 346.24 94.5848 346.88 94.3781 347.42C94.1715 347.953 93.8748 348.367 93.4881 348.66C93.1015 348.953 92.6415 349.1 92.1081 349.1ZM92.1081 348.12C92.5948 348.12 92.9715 347.893 93.2381 347.44C93.5048 346.98 93.6381 346.333 93.6381 345.5C93.6381 344.667 93.5048 344.023 93.2381 343.57C92.9715 343.11 92.5948 342.88 92.1081 342.88C91.6215 342.88 91.2448 343.11 90.9781 343.57C90.7115 344.023 90.5781 344.667 90.5781 345.5C90.5781 346.333 90.7115 346.98 90.9781 347.44C91.2448 347.893 91.6215 348.12 92.1081 348.12ZM98.1823 349.1C97.649 349.1 97.189 348.953 96.8023 348.66C96.4223 348.367 96.129 347.953 95.9223 347.42C95.7157 346.88 95.6123 346.24 95.6123 345.5C95.6123 344.76 95.7157 344.123 95.9223 343.59C96.129 343.05 96.4223 342.633 96.8023 342.34C97.189 342.047 97.649 341.9 98.1823 341.9C98.7157 341.9 99.1757 342.047 99.5623 342.34C99.949 342.633 100.246 343.05 100.452 343.59C100.659 344.123 100.762 344.76 100.762 345.5C100.762 346.24 100.659 346.88 100.452 347.42C100.246 347.953 99.949 348.367 99.5623 348.66C99.1757 348.953 98.7157 349.1 98.1823 349.1ZM98.1823 348.12C98.669 348.12 99.0457 347.893 99.3123 347.44C99.579 346.98 99.7123 346.333 99.7123 345.5C99.7123 344.667 99.579 344.023 99.3123 343.57C99.0457 343.11 98.669 342.88 98.1823 342.88C97.6957 342.88 97.319 343.11 97.0523 343.57C96.7857 344.023 96.6523 344.667 96.6523 345.5C96.6523 346.333 96.7857 346.98 97.0523 347.44C97.319 347.893 97.6957 348.12 98.1823 348.12ZM104.257 349.1C103.723 349.1 103.263 348.953 102.877 348.66C102.497 348.367 102.203 347.953 101.997 347.42C101.79 346.88 101.687 346.24 101.687 345.5C101.687 344.76 101.79 344.123 101.997 343.59C102.203 343.05 102.497 342.633 102.877 342.34C103.263 342.047 103.723 341.9 104.257 341.9C104.79 341.9 105.25 342.047 105.637 342.34C106.023 342.633 106.32 343.05 106.527 343.59C106.733 344.123 106.837 344.76 106.837 345.5C106.837 346.24 106.733 346.88 106.527 347.42C106.32 347.953 106.023 348.367 105.637 348.66C105.25 348.953 104.79 349.1 104.257 349.1ZM104.257 348.12C104.743 348.12 105.12 347.893 105.387 347.44C105.653 346.98 105.787 346.333 105.787 345.5C105.787 344.667 105.653 344.023 105.387 343.57C105.12 343.11 104.743 342.88 104.257 342.88C103.77 342.88 103.393 343.11 103.127 343.57C102.86 344.023 102.727 344.667 102.727 345.5C102.727 346.333 102.86 346.98 103.127 347.44C103.393 347.893 103.77 348.12 104.257 348.12ZM110.331 349.1C109.797 349.1 109.337 348.953 108.951 348.66C108.571 348.367 108.277 347.953 108.071 347.42C107.864 346.88 107.761 346.24 107.761 345.5C107.761 344.76 107.864 344.123 108.071 343.59C108.277 343.05 108.571 342.633 108.951 342.34C109.337 342.047 109.797 341.9 110.331 341.9C110.864 341.9 111.324 342.047 111.711 342.34C112.097 342.633 112.394 343.05 112.601 343.59C112.807 344.123 112.911 344.76 112.911 345.5C112.911 346.24 112.807 346.88 112.601 347.42C112.394 347.953 112.097 348.367 111.711 348.66C111.324 348.953 110.864 349.1 110.331 349.1ZM110.331 348.12C110.817 348.12 111.194 347.893 111.461 347.44C111.727 346.98 111.861 346.333 111.861 345.5C111.861 344.667 111.727 344.023 111.461 343.57C111.194 343.11 110.817 342.88 110.331 342.88C109.844 342.88 109.467 343.11 109.201 343.57C108.934 344.023 108.801 344.667 108.801 345.5C108.801 346.333 108.934 346.98 109.201 347.44C109.467 347.893 109.844 348.12 110.331 348.12ZM116.848 350.93V341.6H117.818V350.93H116.848ZM119.162 350.93V341.6H120.132V350.93H119.162ZM121.947 349.1C121.727 349.1 121.557 349.037 121.437 348.91C121.317 348.777 121.257 348.59 121.257 348.35C121.257 348.13 121.32 347.95 121.447 347.81C121.573 347.67 121.74 347.6 121.947 347.6C122.167 347.6 122.337 347.667 122.457 347.8C122.577 347.927 122.637 348.11 122.637 348.35C122.637 348.57 122.573 348.75 122.447 348.89C122.32 349.03 122.153 349.1 121.947 349.1ZM121.947 345.15C121.727 345.15 121.557 345.087 121.437 344.96C121.317 344.827 121.257 344.64 121.257 344.4C121.257 344.18 121.32 344 121.447 343.86C121.573 343.72 121.74 343.65 121.947 343.65C122.167 343.65 122.337 343.717 122.457 343.85C122.577 343.977 122.637 344.16 122.637 344.4C122.637 344.62 122.573 344.8 122.447 344.94C122.32 345.08 122.153 345.15 121.947 345.15ZM126.865 349V342H129.785C130.231 342 130.608 342.067 130.915 342.2C131.221 342.333 131.451 342.533 131.605 342.8C131.765 343.06 131.845 343.38 131.845 343.76C131.845 344.14 131.738 344.463 131.525 344.73C131.318 344.997 131.028 345.18 130.655 345.28V345.08C130.968 345.147 131.241 345.267 131.475 345.44C131.708 345.607 131.888 345.817 132.015 346.07C132.148 346.323 132.215 346.613 132.215 346.94C132.215 347.273 132.161 347.57 132.055 347.83C131.955 348.083 131.801 348.297 131.595 348.47C131.395 348.643 131.151 348.777 130.865 348.87C130.578 348.957 130.251 349 129.885 349H126.865ZM127.945 347.96H129.825C130.098 347.96 130.328 347.92 130.515 347.84C130.708 347.76 130.855 347.643 130.955 347.49C131.061 347.33 131.115 347.14 131.115 346.92C131.115 346.713 131.058 346.537 130.945 346.39C130.838 346.243 130.685 346.133 130.485 346.06C130.285 345.98 130.048 345.94 129.775 345.94H127.945V347.96ZM127.945 344.9H129.725C129.925 344.9 130.101 344.86 130.255 344.78C130.415 344.7 130.538 344.59 130.625 344.45C130.718 344.31 130.765 344.15 130.765 343.97C130.765 343.67 130.665 343.44 130.465 343.28C130.265 343.12 129.978 343.04 129.605 343.04H127.945V344.9ZM135.422 349.1C134.988 349.1 134.592 348.98 134.232 348.74C133.878 348.5 133.595 348.173 133.382 347.76C133.168 347.347 133.062 346.88 133.062 346.36C133.062 345.833 133.168 345.367 133.382 344.96C133.602 344.547 133.895 344.223 134.262 343.99C134.635 343.757 135.052 343.64 135.512 343.64C135.785 343.64 136.035 343.68 136.262 343.76C136.488 343.84 136.685 343.953 136.852 344.1C137.025 344.24 137.165 344.403 137.272 344.59C137.385 344.777 137.455 344.977 137.482 345.19L137.252 345.11V343.75H138.292V349H137.252V347.75L137.492 347.68C137.452 347.86 137.368 348.037 137.242 348.21C137.122 348.377 136.965 348.527 136.772 348.66C136.585 348.793 136.375 348.9 136.142 348.98C135.915 349.06 135.675 349.1 135.422 349.1ZM135.692 348.15C136.005 348.15 136.282 348.073 136.522 347.92C136.762 347.767 136.948 347.557 137.082 347.29C137.222 347.017 137.292 346.707 137.292 346.36C137.292 346.02 137.222 345.717 137.082 345.45C136.948 345.183 136.762 344.973 136.522 344.82C136.282 344.667 136.005 344.59 135.692 344.59C135.385 344.59 135.112 344.667 134.872 344.82C134.638 344.973 134.452 345.183 134.312 345.45C134.178 345.717 134.112 346.02 134.112 346.36C134.112 346.707 134.178 347.017 134.312 347.29C134.452 347.557 134.638 347.767 134.872 347.92C135.112 348.073 135.385 348.15 135.692 348.15ZM139.73 349V343.75H140.76V344.83L140.58 344.95C140.646 344.717 140.776 344.503 140.97 344.31C141.163 344.11 141.393 343.95 141.66 343.83C141.926 343.703 142.2 343.64 142.48 343.64C142.88 343.64 143.213 343.72 143.48 343.88C143.746 344.033 143.946 344.27 144.08 344.59C144.213 344.91 144.28 345.313 144.28 345.8V349H143.25V345.87C143.25 345.57 143.21 345.323 143.13 345.13C143.05 344.93 142.926 344.787 142.76 344.7C142.593 344.607 142.386 344.567 142.14 344.58C141.94 344.58 141.756 344.613 141.59 344.68C141.423 344.74 141.276 344.827 141.15 344.94C141.03 345.053 140.933 345.187 140.86 345.34C140.793 345.487 140.76 345.647 140.76 345.82V349H140.25C140.163 349 140.076 349 139.99 349C139.903 349 139.816 349 139.73 349ZM146.617 347.36L146.567 346.24L149.077 343.75H150.467L146.617 347.36ZM145.677 349V341.6H146.707V349H145.677ZM149.217 349L147.237 346.69L147.967 346.02L150.537 349H149.217ZM154.423 349V342H155.393L159.673 347.73L159.513 347.82C159.487 347.653 159.463 347.473 159.443 347.28C159.423 347.08 159.403 346.87 159.383 346.65C159.37 346.423 159.357 346.187 159.343 345.94C159.337 345.687 159.33 345.423 159.323 345.15C159.317 344.877 159.313 344.593 159.313 344.3V342H160.393V349H159.403L155.193 343.48L155.303 343.34C155.337 343.747 155.363 344.093 155.383 344.38C155.41 344.66 155.43 344.9 155.443 345.1C155.463 345.293 155.477 345.453 155.483 345.58C155.49 345.7 155.493 345.8 155.493 345.88C155.5 345.96 155.503 346.03 155.503 346.09V349H154.423ZM164.113 349.1C163.68 349.1 163.283 348.98 162.923 348.74C162.57 348.5 162.286 348.173 162.073 347.76C161.86 347.347 161.753 346.88 161.753 346.36C161.753 345.833 161.86 345.367 162.073 344.96C162.293 344.547 162.586 344.223 162.953 343.99C163.326 343.757 163.743 343.64 164.203 343.64C164.476 343.64 164.726 343.68 164.953 343.76C165.18 343.84 165.376 343.953 165.543 344.1C165.716 344.24 165.856 344.403 165.963 344.59C166.076 344.777 166.146 344.977 166.173 345.19L165.943 345.11V343.75H166.983V349H165.943V347.75L166.183 347.68C166.143 347.86 166.06 348.037 165.933 348.21C165.813 348.377 165.656 348.527 165.463 348.66C165.276 348.793 165.066 348.9 164.833 348.98C164.606 349.06 164.366 349.1 164.113 349.1ZM164.383 348.15C164.696 348.15 164.973 348.073 165.213 347.92C165.453 347.767 165.64 347.557 165.773 347.29C165.913 347.017 165.983 346.707 165.983 346.36C165.983 346.02 165.913 345.717 165.773 345.45C165.64 345.183 165.453 344.973 165.213 344.82C164.973 344.667 164.696 344.59 164.383 344.59C164.076 344.59 163.803 344.667 163.563 344.82C163.33 344.973 163.143 345.183 163.003 345.45C162.87 345.717 162.803 346.02 162.803 346.36C162.803 346.707 162.87 347.017 163.003 347.29C163.143 347.557 163.33 347.767 163.563 347.92C163.803 348.073 164.076 348.15 164.383 348.15ZM168.401 349V343.75H169.441V344.87L169.251 344.99C169.305 344.817 169.388 344.65 169.501 344.49C169.621 344.33 169.765 344.19 169.931 344.07C170.105 343.943 170.288 343.843 170.481 343.77C170.681 343.697 170.885 343.66 171.091 343.66C171.391 343.66 171.655 343.71 171.881 343.81C172.108 343.91 172.295 344.06 172.441 344.26C172.588 344.46 172.695 344.71 172.761 345.01L172.601 344.97L172.671 344.8C172.745 344.647 172.845 344.503 172.971 344.37C173.105 344.23 173.255 344.107 173.421 344C173.588 343.893 173.765 343.81 173.951 343.75C174.138 343.69 174.321 343.66 174.501 343.66C174.895 343.66 175.218 343.74 175.471 343.9C175.731 344.06 175.925 344.303 176.051 344.63C176.185 344.957 176.251 345.363 176.251 345.85V349H175.211V345.91C175.211 345.61 175.171 345.367 175.091 345.18C175.018 344.987 174.905 344.843 174.751 344.75C174.598 344.657 174.401 344.61 174.161 344.61C173.975 344.61 173.798 344.643 173.631 344.71C173.471 344.77 173.331 344.857 173.211 344.97C173.091 345.083 172.998 345.217 172.931 345.37C172.865 345.517 172.831 345.68 172.831 345.86V349H171.791V345.89C171.791 345.617 171.751 345.387 171.671 345.2C171.591 345.007 171.475 344.86 171.321 344.76C171.168 344.66 170.981 344.61 170.761 344.61C170.575 344.61 170.401 344.643 170.241 344.71C170.081 344.77 169.941 344.857 169.821 344.97C169.701 345.077 169.608 345.207 169.541 345.36C169.475 345.507 169.441 345.667 169.441 345.84V349H168.401ZM180.08 349.1C179.54 349.1 179.06 348.987 178.64 348.76C178.227 348.527 177.9 348.21 177.66 347.81C177.427 347.41 177.31 346.95 177.31 346.43C177.31 346.017 177.377 345.64 177.51 345.3C177.643 344.96 177.827 344.667 178.06 344.42C178.3 344.167 178.583 343.973 178.91 343.84C179.243 343.7 179.603 343.63 179.99 343.63C180.33 343.63 180.647 343.697 180.94 343.83C181.233 343.957 181.487 344.133 181.7 344.36C181.92 344.587 182.087 344.857 182.2 345.17C182.32 345.477 182.377 345.813 182.37 346.18L182.36 346.62H178.07L177.84 345.8H181.47L181.32 345.97V345.73C181.3 345.51 181.227 345.313 181.1 345.14C180.973 344.967 180.813 344.83 180.62 344.73C180.427 344.63 180.217 344.58 179.99 344.58C179.63 344.58 179.327 344.65 179.08 344.79C178.833 344.923 178.647 345.123 178.52 345.39C178.393 345.65 178.33 345.973 178.33 346.36C178.33 346.727 178.407 347.047 178.56 347.32C178.713 347.587 178.93 347.793 179.21 347.94C179.49 348.087 179.813 348.16 180.18 348.16C180.44 348.16 180.68 348.117 180.9 348.03C181.127 347.943 181.37 347.787 181.63 347.56L182.15 348.29C181.99 348.45 181.793 348.59 181.56 348.71C181.333 348.83 181.09 348.927 180.83 349C180.577 349.067 180.327 349.1 180.08 349.1Z" fill="#3B3B3B"/>
<path d="M52.82 229.1C52.3333 229.1 51.8867 229.013 51.48 228.84C51.0733 228.667 50.72 228.42 50.42 228.1C50.12 227.773 49.8867 227.39 49.72 226.95C49.56 226.51 49.48 226.027 49.48 225.5C49.48 225 49.5667 224.537 49.74 224.11C49.92 223.677 50.1667 223.297 50.48 222.97C50.7933 222.643 51.1567 222.39 51.57 222.21C51.9833 222.03 52.43 221.94 52.91 221.94C53.25 221.94 53.58 221.993 53.9 222.1C54.2267 222.2 54.52 222.343 54.78 222.53C55.0467 222.71 55.2633 222.917 55.43 223.15L54.71 223.9C54.5167 223.707 54.32 223.547 54.12 223.42C53.9267 223.287 53.7267 223.187 53.52 223.12C53.32 223.053 53.1167 223.02 52.91 223.02C52.5833 223.02 52.2767 223.083 51.99 223.21C51.71 223.33 51.4633 223.5 51.25 223.72C51.0433 223.94 50.88 224.203 50.76 224.51C50.64 224.81 50.58 225.14 50.58 225.5C50.58 225.88 50.6367 226.227 50.75 226.54C50.87 226.847 51.0367 227.11 51.25 227.33C51.4633 227.55 51.7167 227.72 52.01 227.84C52.31 227.953 52.64 228.01 53 228.01C53.22 228.01 53.4367 227.98 53.65 227.92C53.8633 227.86 54.0633 227.773 54.25 227.66C54.4367 227.547 54.6067 227.413 54.76 227.26L55.3 228.14C55.1467 228.32 54.9367 228.483 54.67 228.63C54.41 228.777 54.1167 228.893 53.79 228.98C53.47 229.06 53.1467 229.1 52.82 229.1ZM56.5071 229V221.6H57.5371V224.83L57.3571 224.95C57.4238 224.717 57.5538 224.503 57.7471 224.31C57.9404 224.11 58.1704 223.95 58.4371 223.83C58.7038 223.703 58.9771 223.64 59.2571 223.64C59.6571 223.64 59.9904 223.72 60.2571 223.88C60.5238 224.033 60.7238 224.27 60.8571 224.59C60.9904 224.91 61.0571 225.313 61.0571 225.8V229H60.0271V225.87C60.0271 225.57 59.9871 225.323 59.9071 225.13C59.8271 224.93 59.7038 224.787 59.5371 224.7C59.3704 224.607 59.1638 224.567 58.9171 224.58C58.7171 224.58 58.5338 224.613 58.3671 224.68C58.2004 224.74 58.0538 224.827 57.9271 224.94C57.8071 225.053 57.7104 225.187 57.6371 225.34C57.5704 225.487 57.5371 225.647 57.5371 225.82V229H57.0271C56.9404 229 56.8538 229 56.7671 229C56.6804 229 56.5938 229 56.5071 229ZM64.9044 229.1C64.3644 229.1 63.8844 228.987 63.4644 228.76C63.051 228.527 62.7244 228.21 62.4844 227.81C62.251 227.41 62.1344 226.95 62.1344 226.43C62.1344 226.017 62.201 225.64 62.3344 225.3C62.4677 224.96 62.651 224.667 62.8844 224.42C63.1244 224.167 63.4077 223.973 63.7344 223.84C64.0677 223.7 64.4277 223.63 64.8144 223.63C65.1544 223.63 65.471 223.697 65.7644 223.83C66.0577 223.957 66.311 224.133 66.5244 224.36C66.7444 224.587 66.911 224.857 67.0244 225.17C67.1444 225.477 67.201 225.813 67.1944 226.18L67.1844 226.62H62.8944L62.6644 225.8H66.2944L66.1444 225.97V225.73C66.1244 225.51 66.051 225.313 65.9244 225.14C65.7977 224.967 65.6377 224.83 65.4444 224.73C65.251 224.63 65.041 224.58 64.8144 224.58C64.4544 224.58 64.151 224.65 63.9044 224.79C63.6577 224.923 63.471 225.123 63.3444 225.39C63.2177 225.65 63.1544 225.973 63.1544 226.36C63.1544 226.727 63.231 227.047 63.3844 227.32C63.5377 227.587 63.7544 227.793 64.0344 227.94C64.3144 228.087 64.6377 228.16 65.0044 228.16C65.2644 228.16 65.5044 228.117 65.7244 228.03C65.951 227.943 66.1944 227.787 66.4544 227.56L66.9744 228.29C66.8144 228.45 66.6177 228.59 66.3844 228.71C66.1577 228.83 65.9144 228.927 65.6544 229C65.401 229.067 65.151 229.1 64.9044 229.1ZM72.1438 231.2V227.75H72.3438C72.3438 227.91 72.2904 228.07 72.1838 228.23C72.0771 228.383 71.9338 228.527 71.7538 228.66C71.5738 228.793 71.3738 228.9 71.1538 228.98C70.9338 229.06 70.7071 229.1 70.4738 229.1C70.0004 229.1 69.5771 228.983 69.2038 228.75C68.8304 228.51 68.5338 228.187 68.3138 227.78C68.1004 227.367 67.9938 226.897 67.9938 226.37C67.9938 225.843 68.1004 225.377 68.3138 224.97C68.5271 224.557 68.8171 224.233 69.1838 224C69.5571 223.76 69.9771 223.64 70.4438 223.64C70.7038 223.64 70.9504 223.683 71.1838 223.77C71.4238 223.857 71.6371 223.97 71.8238 224.11C72.0171 224.25 72.1671 224.407 72.2738 224.58C72.3871 224.747 72.4438 224.917 72.4438 225.09L72.1438 225.11V223.74H73.1738V231.2H72.1438ZM70.5838 228.15C70.8971 228.15 71.1738 228.073 71.4138 227.92C71.6538 227.767 71.8404 227.557 71.9738 227.29C72.1138 227.023 72.1838 226.717 72.1838 226.37C72.1838 226.023 72.1138 225.717 71.9738 225.45C71.8404 225.177 71.6538 224.963 71.4138 224.81C71.1738 224.657 70.8971 224.58 70.5838 224.58C70.2704 224.58 69.9938 224.66 69.7538 224.82C69.5138 224.973 69.3238 225.187 69.1838 225.46C69.0504 225.727 68.9838 226.03 68.9838 226.37C68.9838 226.71 69.0504 227.017 69.1838 227.29C69.3238 227.557 69.5138 227.767 69.7538 227.92C69.9938 228.073 70.2704 228.15 70.5838 228.15ZM76.4526 229.1C76.0792 229.1 75.7526 229.013 75.4726 228.84C75.1992 228.667 74.9859 228.423 74.8326 228.11C74.6859 227.797 74.6126 227.423 74.6126 226.99V223.75H75.6426V226.71C75.6426 227.017 75.6892 227.283 75.7826 227.51C75.8826 227.73 76.0226 227.9 76.2026 228.02C76.3892 228.14 76.6126 228.2 76.8726 228.2C77.0659 228.2 77.2426 228.17 77.4026 228.11C77.5626 228.043 77.6992 227.953 77.8126 227.84C77.9326 227.727 78.0259 227.59 78.0926 227.43C78.1592 227.27 78.1926 227.097 78.1926 226.91V223.75H79.2226V229H78.1926V227.9L78.3726 227.78C78.2926 228.027 78.1559 228.25 77.9626 228.45C77.7759 228.65 77.5526 228.81 77.2926 228.93C77.0326 229.043 76.7526 229.1 76.4526 229.1ZM83.1173 229.1C82.5773 229.1 82.0973 228.987 81.6773 228.76C81.2639 228.527 80.9373 228.21 80.6973 227.81C80.4639 227.41 80.3473 226.95 80.3473 226.43C80.3473 226.017 80.4139 225.64 80.5473 225.3C80.6806 224.96 80.8639 224.667 81.0973 224.42C81.3373 224.167 81.6206 223.973 81.9473 223.84C82.2806 223.7 82.6406 223.63 83.0273 223.63C83.3673 223.63 83.6839 223.697 83.9773 223.83C84.2706 223.957 84.5239 224.133 84.7373 224.36C84.9573 224.587 85.1239 224.857 85.2373 225.17C85.3573 225.477 85.4139 225.813 85.4073 226.18L85.3973 226.62H81.1073L80.8773 225.8H84.5073L84.3573 225.97V225.73C84.3373 225.51 84.2639 225.313 84.1373 225.14C84.0106 224.967 83.8506 224.83 83.6573 224.73C83.4639 224.63 83.2539 224.58 83.0273 224.58C82.6673 224.58 82.3639 224.65 82.1173 224.79C81.8706 224.923 81.6839 225.123 81.5573 225.39C81.4306 225.65 81.3673 225.973 81.3673 226.36C81.3673 226.727 81.4439 227.047 81.5973 227.32C81.7506 227.587 81.9673 227.793 82.2473 227.94C82.5273 228.087 82.8506 228.16 83.2173 228.16C83.4773 228.16 83.7173 228.117 83.9373 228.03C84.1639 227.943 84.4073 227.787 84.6673 227.56L85.1873 228.29C85.0273 228.45 84.8306 228.59 84.5973 228.71C84.3706 228.83 84.1273 228.927 83.8673 229C83.6139 229.067 83.3639 229.1 83.1173 229.1ZM86.9466 229.1C86.7266 229.1 86.5566 229.037 86.4366 228.91C86.3166 228.777 86.2566 228.59 86.2566 228.35C86.2566 228.13 86.32 227.95 86.4466 227.81C86.5733 227.67 86.74 227.6 86.9466 227.6C87.1666 227.6 87.3366 227.667 87.4566 227.8C87.5766 227.927 87.6366 228.11 87.6366 228.35C87.6366 228.57 87.5733 228.75 87.4466 228.89C87.32 229.03 87.1533 229.1 86.9466 229.1ZM86.9466 225.15C86.7266 225.15 86.5566 225.087 86.4366 224.96C86.3166 224.827 86.2566 224.64 86.2566 224.4C86.2566 224.18 86.32 224 86.4466 223.86C86.5733 223.72 86.74 223.65 86.9466 223.65C87.1666 223.65 87.3366 223.717 87.4566 223.85C87.5766 223.977 87.6366 224.16 87.6366 224.4C87.6366 224.62 87.5733 224.8 87.4466 224.94C87.32 225.08 87.1533 225.15 86.9466 225.15ZM94.5548 229L95.7548 222H96.6548L95.4548 229H94.5548ZM91.1948 227.27V226.44H96.9848V227.27H91.1948ZM91.8948 229L93.0948 222H93.9948L92.7948 229H91.8948ZM91.5748 224.47V223.64H97.3548V224.47H91.5748ZM98.5921 229L98.2621 228.18L100.402 225.77C100.515 225.65 100.632 225.513 100.752 225.36C100.879 225.2 100.999 225.037 101.112 224.87C101.225 224.703 101.315 224.54 101.382 224.38C101.455 224.213 101.492 224.057 101.492 223.91C101.492 223.697 101.449 223.517 101.362 223.37C101.282 223.217 101.162 223.1 101.002 223.02C100.849 222.94 100.662 222.9 100.442 222.9C100.249 222.9 100.059 222.957 99.8721 223.07C99.6854 223.183 99.5154 223.343 99.3621 223.55C99.2088 223.757 99.0888 223.997 99.0021 224.27L98.1721 223.75C98.2854 223.363 98.4554 223.033 98.6821 222.76C98.9154 222.48 99.1921 222.267 99.5121 222.12C99.8388 221.973 100.192 221.9 100.572 221.9C100.965 221.9 101.315 221.983 101.622 222.15C101.929 222.31 102.169 222.537 102.342 222.83C102.515 223.117 102.602 223.45 102.602 223.83C102.602 223.983 102.585 224.14 102.552 224.3C102.519 224.46 102.465 224.627 102.392 224.8C102.319 224.967 102.225 225.143 102.112 225.33C101.999 225.51 101.862 225.7 101.702 225.9C101.549 226.1 101.372 226.31 101.172 226.53L99.5821 228.26L99.3821 227.96H102.822V229H98.5921ZM105.651 229.1C105.157 229.1 104.727 228.987 104.361 228.76C104.001 228.533 103.661 228.153 103.341 227.62L104.181 227.09C104.347 227.337 104.511 227.54 104.671 227.7C104.837 227.853 105.007 227.967 105.181 228.04C105.354 228.113 105.537 228.15 105.731 228.15C105.964 228.15 106.181 228.093 106.381 227.98C106.581 227.86 106.741 227.697 106.861 227.49C106.981 227.283 107.041 227.05 107.041 226.79C107.041 226.53 106.994 226.31 106.901 226.13C106.807 225.943 106.671 225.803 106.491 225.71C106.311 225.61 106.097 225.56 105.851 225.56C105.737 225.56 105.617 225.573 105.491 225.6C105.371 225.62 105.241 225.653 105.101 225.7C104.961 225.74 104.807 225.793 104.641 225.86L104.341 225.07L106.501 222.69L106.711 223H103.731V222H107.741L107.941 222.4L105.651 224.94L105.401 224.68C105.454 224.653 105.541 224.63 105.661 224.61C105.787 224.583 105.891 224.57 105.971 224.57C106.264 224.57 106.537 224.627 106.791 224.74C107.051 224.847 107.274 225 107.461 225.2C107.654 225.393 107.804 225.623 107.911 225.89C108.024 226.15 108.081 226.43 108.081 226.73C108.081 227.183 107.971 227.59 107.751 227.95C107.537 228.303 107.247 228.583 106.881 228.79C106.514 228.997 106.104 229.1 105.651 229.1ZM111.954 229V223.36L112.204 223.42L109.904 226.23L109.864 226.11H114.214V227.1H109.194L108.734 226.2L112.164 222H112.994V229H111.954ZM115.369 229L115.039 228.18L117.179 225.77C117.293 225.65 117.409 225.513 117.529 225.36C117.656 225.2 117.776 225.037 117.889 224.87C118.003 224.703 118.093 224.54 118.159 224.38C118.233 224.213 118.269 224.057 118.269 223.91C118.269 223.697 118.226 223.517 118.139 223.37C118.059 223.217 117.939 223.1 117.779 223.02C117.626 222.94 117.439 222.9 117.219 222.9C117.026 222.9 116.836 222.957 116.649 223.07C116.463 223.183 116.293 223.343 116.139 223.55C115.986 223.757 115.866 223.997 115.779 224.27L114.949 223.75C115.063 223.363 115.233 223.033 115.459 222.76C115.693 222.48 115.969 222.267 116.289 222.12C116.616 221.973 116.969 221.9 117.349 221.9C117.743 221.9 118.093 221.983 118.399 222.15C118.706 222.31 118.946 222.537 119.119 222.83C119.293 223.117 119.379 223.45 119.379 223.83C119.379 223.983 119.363 224.14 119.329 224.3C119.296 224.46 119.243 224.627 119.169 224.8C119.096 224.967 119.003 225.143 118.889 225.33C118.776 225.51 118.639 225.7 118.479 225.9C118.326 226.1 118.149 226.31 117.949 226.53L116.359 228.26L116.159 227.96H119.599V229H115.369ZM122.088 228.51V222.83L122.458 223.11L121.078 223.84L120.788 222.9L122.658 221.9H123.178V228.51H122.088ZM120.978 229V227.96H124.318V229H120.978ZM128.438 229V223.36L128.688 223.42L126.388 226.23L126.348 226.11H130.698V227.1H125.678L125.218 226.2L128.648 222H129.478V229H128.438Z" fill="#3B3B3B"/>
<path d="M49.98 247V240H52.72C53.22 240 53.67 240.083 54.07 240.25C54.4767 240.417 54.8233 240.657 55.11 240.97C55.3967 241.283 55.6167 241.653 55.77 242.08C55.9233 242.507 56 242.98 56 243.5C56 244.02 55.9233 244.497 55.77 244.93C55.6167 245.357 55.3967 245.727 55.11 246.04C54.83 246.347 54.4867 246.583 54.08 246.75C53.6733 246.917 53.22 247 52.72 247H49.98ZM51.06 246.07L51.03 245.96H52.67C53.0233 245.96 53.3367 245.903 53.61 245.79C53.89 245.677 54.1233 245.517 54.31 245.31C54.5033 245.097 54.65 244.837 54.75 244.53C54.85 244.223 54.9 243.88 54.9 243.5C54.9 243.12 54.85 242.78 54.75 242.48C54.65 242.173 54.5033 241.913 54.31 241.7C54.1167 241.487 53.8833 241.323 53.61 241.21C53.3367 241.097 53.0233 241.04 52.67 241.04H51L51.06 240.95V246.07ZM59.2205 247.1C58.7871 247.1 58.3905 246.98 58.0305 246.74C57.6771 246.5 57.3938 246.173 57.1805 245.76C56.9671 245.347 56.8605 244.88 56.8605 244.36C56.8605 243.833 56.9671 243.367 57.1805 242.96C57.4005 242.547 57.6938 242.223 58.0605 241.99C58.4338 241.757 58.8505 241.64 59.3105 241.64C59.5838 241.64 59.8338 241.68 60.0605 241.76C60.2871 241.84 60.4838 241.953 60.6505 242.1C60.8238 242.24 60.9638 242.403 61.0705 242.59C61.1838 242.777 61.2538 242.977 61.2805 243.19L61.0505 243.11V241.75H62.0905V247H61.0505V245.75L61.2905 245.68C61.2505 245.86 61.1671 246.037 61.0405 246.21C60.9205 246.377 60.7638 246.527 60.5705 246.66C60.3838 246.793 60.1738 246.9 59.9405 246.98C59.7138 247.06 59.4738 247.1 59.2205 247.1ZM59.4905 246.15C59.8038 246.15 60.0805 246.073 60.3205 245.92C60.5605 245.767 60.7471 245.557 60.8805 245.29C61.0205 245.017 61.0905 244.707 61.0905 244.36C61.0905 244.02 61.0205 243.717 60.8805 243.45C60.7471 243.183 60.5605 242.973 60.3205 242.82C60.0805 242.667 59.8038 242.59 59.4905 242.59C59.1838 242.59 58.9105 242.667 58.6705 242.82C58.4371 242.973 58.2505 243.183 58.1105 243.45C57.9771 243.717 57.9105 244.02 57.9105 244.36C57.9105 244.707 57.9771 245.017 58.1105 245.29C58.2505 245.557 58.4371 245.767 58.6705 245.92C58.9105 246.073 59.1838 246.15 59.4905 246.15ZM64.1786 247V240.41H65.2086V247H64.1786ZM63.0886 242.75V241.75H66.4286V242.75H63.0886ZM69.7677 247.1C69.2277 247.1 68.7477 246.987 68.3277 246.76C67.9143 246.527 67.5877 246.21 67.3477 245.81C67.1143 245.41 66.9977 244.95 66.9977 244.43C66.9977 244.017 67.0643 243.64 67.1977 243.3C67.331 242.96 67.5143 242.667 67.7477 242.42C67.9877 242.167 68.271 241.973 68.5977 241.84C68.931 241.7 69.291 241.63 69.6777 241.63C70.0177 241.63 70.3343 241.697 70.6277 241.83C70.921 241.957 71.1743 242.133 71.3877 242.36C71.6077 242.587 71.7743 242.857 71.8877 243.17C72.0077 243.477 72.0643 243.813 72.0577 244.18L72.0477 244.62H67.7577L67.5277 243.8H71.1577L71.0077 243.97V243.73C70.9877 243.51 70.9143 243.313 70.7877 243.14C70.661 242.967 70.501 242.83 70.3077 242.73C70.1143 242.63 69.9043 242.58 69.6777 242.58C69.3177 242.58 69.0143 242.65 68.7677 242.79C68.521 242.923 68.3343 243.123 68.2077 243.39C68.081 243.65 68.0177 243.973 68.0177 244.36C68.0177 244.727 68.0943 245.047 68.2477 245.32C68.401 245.587 68.6177 245.793 68.8977 245.94C69.1777 246.087 69.501 246.16 69.8677 246.16C70.1277 246.16 70.3677 246.117 70.5877 246.03C70.8143 245.943 71.0577 245.787 71.3177 245.56L71.8377 246.29C71.6777 246.45 71.481 246.59 71.2477 246.71C71.021 246.83 70.7777 246.927 70.5177 247C70.2643 247.067 70.0143 247.1 69.7677 247.1ZM73.597 247.1C73.377 247.1 73.207 247.037 73.087 246.91C72.967 246.777 72.907 246.59 72.907 246.35C72.907 246.13 72.9704 245.95 73.097 245.81C73.2237 245.67 73.3904 245.6 73.597 245.6C73.817 245.6 73.987 245.667 74.107 245.8C74.227 245.927 74.287 246.11 74.287 246.35C74.287 246.57 74.2237 246.75 74.097 246.89C73.9704 247.03 73.8037 247.1 73.597 247.1ZM73.597 243.15C73.377 243.15 73.207 243.087 73.087 242.96C72.967 242.827 72.907 242.64 72.907 242.4C72.907 242.18 72.9704 242 73.097 241.86C73.2237 241.72 73.3904 241.65 73.597 241.65C73.817 241.65 73.987 241.717 74.107 241.85C74.227 241.977 74.287 242.16 74.287 242.4C74.287 242.62 74.2237 242.8 74.097 242.94C73.9704 243.08 73.8037 243.15 73.597 243.15Z" fill="#3B3B3B"/>
<path d="M377.684 250.007V243.451H380.109C380.565 243.451 380.946 243.526 381.252 243.676C381.558 243.819 381.786 244.019 381.936 244.275C382.092 244.525 382.17 244.809 382.17 245.127C382.17 245.458 382.098 245.736 381.954 245.961C381.811 246.186 381.62 246.36 381.383 246.485C381.152 246.604 380.902 246.673 380.634 246.691L380.765 246.598C381.052 246.604 381.314 246.682 381.552 246.832C381.789 246.975 381.976 247.169 382.114 247.413C382.251 247.656 382.32 247.925 382.32 248.218C382.32 248.555 382.239 248.861 382.076 249.136C381.914 249.404 381.673 249.617 381.355 249.773C381.037 249.929 380.646 250.007 380.184 250.007H377.684ZM378.62 249.229H380.063C380.475 249.229 380.793 249.136 381.018 248.949C381.249 248.755 381.364 248.483 381.364 248.134C381.364 247.79 381.246 247.516 381.009 247.31C380.777 247.103 380.456 247 380.044 247H378.62V249.229ZM378.62 246.279H380.006C380.4 246.279 380.699 246.189 380.905 246.008C381.112 245.82 381.215 245.564 381.215 245.24C381.215 244.928 381.112 244.681 380.905 244.5C380.699 244.313 380.39 244.219 379.978 244.219H378.62V246.279ZM385.544 250.119C385.101 250.119 384.701 250.016 384.345 249.81C383.995 249.604 383.718 249.317 383.512 248.949C383.312 248.574 383.212 248.143 383.212 247.656C383.212 247.157 383.315 246.723 383.521 246.354C383.727 245.98 384.008 245.689 384.364 245.483C384.72 245.277 385.119 245.174 385.563 245.174C386.012 245.174 386.412 245.277 386.761 245.483C387.111 245.689 387.386 245.976 387.586 246.345C387.792 246.713 387.895 247.147 387.895 247.647C387.895 248.146 387.792 248.58 387.586 248.949C387.386 249.317 387.108 249.604 386.752 249.81C386.396 250.016 385.993 250.119 385.544 250.119ZM385.544 249.314C385.8 249.314 386.031 249.251 386.237 249.126C386.449 249.002 386.618 248.817 386.743 248.574C386.874 248.324 386.939 248.015 386.939 247.647C386.939 247.278 386.877 246.972 386.752 246.729C386.627 246.479 386.459 246.292 386.246 246.167C386.04 246.042 385.812 245.98 385.563 245.98C385.313 245.98 385.082 246.042 384.87 246.167C384.657 246.292 384.486 246.479 384.354 246.729C384.23 246.972 384.167 247.278 384.167 247.647C384.167 248.015 384.23 248.324 384.354 248.574C384.486 248.817 384.654 249.002 384.86 249.126C385.072 249.251 385.3 249.314 385.544 249.314ZM390.729 250.119C390.361 250.119 390.039 250.044 389.764 249.894C389.496 249.745 389.287 249.52 389.137 249.22C388.993 248.92 388.921 248.543 388.921 248.087V245.287H389.858V247.984C389.858 248.427 389.955 248.761 390.148 248.986C390.342 249.211 390.62 249.323 390.982 249.323C391.225 249.323 391.444 249.264 391.638 249.145C391.837 249.027 391.993 248.855 392.106 248.63C392.218 248.405 392.274 248.131 392.274 247.806V245.287H393.211V250.007H392.377L392.312 249.201C392.168 249.489 391.959 249.713 391.684 249.876C391.41 250.038 391.091 250.119 390.729 250.119ZM394.493 250.007V245.287H395.336L395.392 246.092C395.542 245.811 395.754 245.589 396.029 245.427C396.304 245.258 396.619 245.174 396.975 245.174C397.35 245.174 397.671 245.249 397.94 245.399C398.208 245.549 398.417 245.777 398.567 246.083C398.717 246.382 398.792 246.76 398.792 247.216V250.007H397.855V247.31C397.855 246.872 397.759 246.542 397.565 246.317C397.372 246.092 397.091 245.98 396.722 245.98C396.479 245.98 396.26 246.039 396.067 246.158C395.873 246.27 395.717 246.439 395.598 246.663C395.486 246.888 395.43 247.163 395.43 247.487V250.007H394.493ZM402.172 250.119C401.716 250.119 401.311 250.016 400.955 249.81C400.599 249.598 400.318 249.308 400.112 248.939C399.912 248.571 399.812 248.143 399.812 247.656C399.812 247.163 399.912 246.732 400.112 246.364C400.318 245.989 400.599 245.699 400.955 245.493C401.311 245.28 401.716 245.174 402.172 245.174C402.747 245.174 403.227 245.324 403.615 245.624C404.002 245.923 404.248 246.329 404.354 246.841H403.38C403.318 246.567 403.174 246.354 402.95 246.204C402.731 246.055 402.469 245.98 402.163 245.98C401.913 245.98 401.682 246.045 401.47 246.176C401.258 246.301 401.086 246.488 400.955 246.738C400.83 246.982 400.767 247.285 400.767 247.647C400.767 247.915 400.805 248.156 400.88 248.368C400.955 248.574 401.055 248.749 401.18 248.892C401.311 249.036 401.46 249.145 401.629 249.22C401.798 249.289 401.976 249.323 402.163 249.323C402.369 249.323 402.553 249.292 402.715 249.229C402.884 249.161 403.025 249.061 403.137 248.93C403.256 248.799 403.337 248.643 403.38 248.462H404.354C404.248 248.961 404.002 249.364 403.615 249.67C403.227 249.969 402.747 250.119 402.172 250.119ZM407.586 250.119C407.136 250.119 406.737 250.016 406.387 249.81C406.037 249.604 405.763 249.317 405.563 248.949C405.369 248.58 405.272 248.152 405.272 247.665C405.272 247.166 405.369 246.732 405.563 246.364C405.763 245.989 406.037 245.699 406.387 245.493C406.737 245.28 407.142 245.174 407.604 245.174C408.066 245.174 408.463 245.277 408.794 245.483C409.125 245.689 409.381 245.964 409.562 246.307C409.743 246.645 409.833 247.019 409.833 247.431C409.833 247.494 409.83 247.562 409.824 247.637C409.824 247.706 409.821 247.784 409.815 247.871H405.956V247.207H408.897C408.878 246.813 408.747 246.507 408.504 246.289C408.26 246.064 407.957 245.952 407.595 245.952C407.339 245.952 407.105 246.011 406.893 246.129C406.68 246.242 406.509 246.41 406.378 246.635C406.253 246.854 406.19 247.132 406.19 247.469V247.731C406.19 248.081 406.253 248.377 406.378 248.621C406.509 248.858 406.68 249.039 406.893 249.164C407.105 249.283 407.336 249.342 407.586 249.342C407.885 249.342 408.132 249.276 408.326 249.145C408.519 249.014 408.663 248.836 408.756 248.611H409.693C409.612 248.899 409.474 249.158 409.281 249.389C409.087 249.613 408.847 249.791 408.56 249.923C408.279 250.054 407.954 250.119 407.586 250.119ZM412.972 250.119C412.522 250.119 412.126 250.013 411.782 249.801C411.439 249.582 411.171 249.289 410.977 248.92C410.79 248.546 410.696 248.121 410.696 247.647C410.696 247.166 410.79 246.741 410.977 246.373C411.171 246.005 411.439 245.714 411.782 245.502C412.132 245.283 412.532 245.174 412.981 245.174C413.35 245.174 413.674 245.249 413.955 245.399C414.236 245.543 414.455 245.749 414.611 246.017V243.264H415.547V250.007H414.714L414.611 249.276C414.517 249.42 414.395 249.557 414.246 249.688C414.096 249.813 413.915 249.916 413.702 249.997C413.49 250.079 413.247 250.119 412.972 250.119ZM413.122 249.304C413.415 249.304 413.674 249.236 413.899 249.098C414.124 248.961 414.296 248.767 414.414 248.518C414.539 248.268 414.602 247.978 414.602 247.647C414.602 247.316 414.539 247.029 414.414 246.785C414.296 246.535 414.124 246.342 413.899 246.204C413.674 246.061 413.415 245.989 413.122 245.989C412.841 245.989 412.588 246.061 412.363 246.204C412.138 246.342 411.964 246.535 411.839 246.785C411.714 247.029 411.651 247.316 411.651 247.647C411.651 247.978 411.714 248.268 411.839 248.518C411.964 248.767 412.138 248.961 412.363 249.098C412.588 249.236 412.841 249.304 413.122 249.304Z" fill="black"/>
<line x1="427" y1="349.5" x2="341" y2="349.5" stroke="white" stroke-opacity="0.63"/>
</svg>
