<svg width="480" height="540" viewBox="0 0 480 540" fill="none" xmlns="http://www.w3.org/2000/svg">
<path d="M396 76H85C75.6112 76 68 83.6112 68 93V447C68 456.389 75.6112 464 85 464H396C405.389 464 413 456.389 413 447V93C413 83.6112 405.389 76 396 76Z" fill="#F1F5F7"/>
<path d="M83.147 121L88.922 106.3H91.736L97.469 121H94.235L91.274 113.083C91.19 112.859 91.085 112.572 90.959 112.222C90.847 111.872 90.728 111.501 90.602 111.109C90.476 110.717 90.357 110.346 90.245 109.996C90.133 109.632 90.049 109.331 89.993 109.093H90.56C90.476 109.401 90.378 109.73 90.266 110.08C90.168 110.416 90.063 110.766 89.951 111.13C89.839 111.48 89.72 111.823 89.594 112.159C89.468 112.495 89.349 112.824 89.237 113.146L86.276 121H83.147ZM85.835 117.913L86.864 115.393H93.605L94.655 117.913H85.835ZM103.533 121.21C102.469 121.21 101.517 120.958 100.677 120.454C99.8369 119.95 99.1719 119.264 98.6819 118.396C98.2059 117.528 97.9679 116.541 97.9679 115.435C97.9679 114.329 98.2059 113.342 98.6819 112.474C99.1719 111.606 99.8369 110.92 100.677 110.416C101.517 109.912 102.469 109.66 103.533 109.66C104.527 109.66 105.437 109.842 106.263 110.206C107.089 110.57 107.733 111.074 108.195 111.718L106.557 113.692C106.361 113.426 106.116 113.188 105.822 112.978C105.528 112.754 105.206 112.579 104.856 112.453C104.52 112.327 104.17 112.264 103.806 112.264C103.232 112.264 102.721 112.404 102.273 112.684C101.839 112.95 101.496 113.321 101.244 113.797C100.992 114.273 100.866 114.819 100.866 115.435C100.866 116.023 100.992 116.555 101.244 117.031C101.51 117.507 101.867 117.885 102.315 118.165C102.763 118.445 103.267 118.585 103.827 118.585C104.191 118.585 104.534 118.536 104.856 118.438C105.178 118.34 105.479 118.186 105.759 117.976C106.053 117.766 106.319 117.514 106.557 117.22L108.174 119.194C107.712 119.796 107.054 120.286 106.2 120.664C105.36 121.028 104.471 121.21 103.533 121.21ZM114.915 121.21C113.851 121.21 112.899 120.958 112.059 120.454C111.219 119.95 110.554 119.264 110.064 118.396C109.588 117.528 109.35 116.541 109.35 115.435C109.35 114.329 109.588 113.342 110.064 112.474C110.554 111.606 111.219 110.92 112.059 110.416C112.899 109.912 113.851 109.66 114.915 109.66C115.909 109.66 116.819 109.842 117.645 110.206C118.471 110.57 119.115 111.074 119.577 111.718L117.939 113.692C117.743 113.426 117.498 113.188 117.204 112.978C116.91 112.754 116.588 112.579 116.238 112.453C115.902 112.327 115.552 112.264 115.188 112.264C114.614 112.264 114.103 112.404 113.655 112.684C113.221 112.95 112.878 113.321 112.626 113.797C112.374 114.273 112.248 114.819 112.248 115.435C112.248 116.023 112.374 116.555 112.626 117.031C112.892 117.507 113.249 117.885 113.697 118.165C114.145 118.445 114.649 118.585 115.209 118.585C115.573 118.585 115.916 118.536 116.238 118.438C116.56 118.34 116.861 118.186 117.141 117.976C117.435 117.766 117.701 117.514 117.939 117.22L119.556 119.194C119.094 119.796 118.436 120.286 117.582 120.664C116.742 121.028 115.853 121.21 114.915 121.21ZM126.633 121.21C125.499 121.21 124.484 120.965 123.588 120.475C122.706 119.971 122.006 119.285 121.488 118.417C120.984 117.549 120.732 116.555 120.732 115.435C120.732 114.315 120.984 113.321 121.488 112.453C122.006 111.585 122.706 110.906 123.588 110.416C124.484 109.912 125.499 109.66 126.633 109.66C127.753 109.66 128.754 109.912 129.636 110.416C130.532 110.906 131.232 111.585 131.736 112.453C132.24 113.321 132.492 114.315 132.492 115.435C132.492 116.555 132.24 117.549 131.736 118.417C131.232 119.285 130.532 119.971 129.636 120.475C128.754 120.965 127.753 121.21 126.633 121.21ZM126.633 118.606C127.179 118.606 127.669 118.473 128.103 118.207C128.537 117.927 128.873 117.549 129.111 117.073C129.363 116.583 129.482 116.037 129.468 115.435C129.482 114.819 129.363 114.273 129.111 113.797C128.873 113.307 128.537 112.929 128.103 112.663C127.669 112.383 127.179 112.243 126.633 112.243C126.073 112.243 125.576 112.383 125.142 112.663C124.708 112.943 124.365 113.321 124.113 113.797C123.861 114.273 123.742 114.819 123.756 115.435C123.742 116.037 123.861 116.583 124.113 117.073C124.365 117.549 124.708 117.927 125.142 118.207C125.576 118.473 126.073 118.606 126.633 118.606ZM138.578 121.21C137.766 121.21 137.066 121.035 136.478 120.685C135.904 120.321 135.456 119.81 135.134 119.152C134.826 118.48 134.672 117.675 134.672 116.737V109.891H137.654V116.254C137.654 116.758 137.738 117.199 137.906 117.577C138.074 117.941 138.312 118.221 138.62 118.417C138.928 118.613 139.306 118.711 139.754 118.711C140.076 118.711 140.37 118.662 140.636 118.564C140.916 118.452 141.154 118.298 141.35 118.102C141.56 117.906 141.721 117.675 141.833 117.409C141.945 117.143 142.001 116.856 142.001 116.548V109.891H144.983V121H142.148L142.043 118.711L142.589 118.459C142.421 118.977 142.141 119.446 141.749 119.866C141.357 120.286 140.888 120.615 140.342 120.853C139.796 121.091 139.208 121.21 138.578 121.21ZM147.983 121V109.891H150.839L150.923 112.159L150.335 112.411C150.489 111.907 150.762 111.452 151.154 111.046C151.56 110.626 152.043 110.29 152.603 110.038C153.163 109.786 153.751 109.66 154.367 109.66C155.207 109.66 155.907 109.828 156.467 110.164C157.041 110.5 157.468 111.011 157.748 111.697C158.042 112.369 158.189 113.202 158.189 114.196V121H155.207V114.427C155.207 113.923 155.137 113.503 154.997 113.167C154.857 112.831 154.64 112.586 154.346 112.432C154.066 112.278 153.716 112.208 153.296 112.222C152.96 112.222 152.645 112.278 152.351 112.39C152.071 112.488 151.826 112.635 151.616 112.831C151.42 113.027 151.259 113.251 151.133 113.503C151.021 113.755 150.965 114.028 150.965 114.322V121H149.495C149.173 121 148.886 121 148.634 121C148.382 121 148.165 121 147.983 121ZM162.118 121V107.077H165.1V121H162.118ZM160.039 112.558V109.891H167.389V112.558H160.039ZM176.171 121V106.3H182.198C183.276 106.3 184.249 106.482 185.117 106.846C185.999 107.196 186.755 107.7 187.385 108.358C188.029 109.002 188.519 109.772 188.855 110.668C189.191 111.564 189.359 112.558 189.359 113.65C189.359 114.728 189.191 115.722 188.855 116.632C188.519 117.528 188.036 118.305 187.406 118.963C186.776 119.607 186.02 120.111 185.138 120.475C184.256 120.825 183.276 121 182.198 121H176.171ZM179.321 118.711L178.985 118.165H182.093C182.723 118.165 183.29 118.06 183.794 117.85C184.298 117.626 184.725 117.325 185.075 116.947C185.439 116.555 185.712 116.079 185.894 115.519C186.076 114.959 186.167 114.336 186.167 113.65C186.167 112.964 186.076 112.348 185.894 111.802C185.712 111.242 185.439 110.766 185.075 110.374C184.725 109.982 184.298 109.681 183.794 109.471C183.29 109.247 182.723 109.135 182.093 109.135H178.922L179.321 108.631V118.711ZM197.059 121.21C195.855 121.21 194.798 120.965 193.888 120.475C192.992 119.985 192.292 119.313 191.788 118.459C191.298 117.605 191.053 116.625 191.053 115.519C191.053 114.651 191.193 113.86 191.473 113.146C191.753 112.432 192.145 111.816 192.649 111.298C193.153 110.766 193.748 110.36 194.434 110.08C195.134 109.786 195.89 109.639 196.702 109.639C197.458 109.639 198.158 109.779 198.802 110.059C199.446 110.339 199.999 110.731 200.461 111.235C200.937 111.725 201.301 112.313 201.553 112.999C201.805 113.671 201.917 114.399 201.889 115.183L201.868 116.107H192.943L192.46 114.28H199.411L199.075 114.658V114.196C199.047 113.818 198.921 113.482 198.697 113.188C198.487 112.88 198.214 112.642 197.878 112.474C197.542 112.292 197.164 112.201 196.744 112.201C196.128 112.201 195.603 112.32 195.169 112.558C194.749 112.796 194.427 113.146 194.203 113.608C193.979 114.07 193.867 114.63 193.867 115.288C193.867 115.96 194.007 116.541 194.287 117.031C194.581 117.521 194.987 117.906 195.505 118.186C196.037 118.452 196.66 118.585 197.374 118.585C197.864 118.585 198.312 118.508 198.718 118.354C199.124 118.2 199.558 117.934 200.02 117.556L201.448 119.551C201.042 119.915 200.594 120.223 200.104 120.475C199.614 120.713 199.11 120.895 198.592 121.021C198.074 121.147 197.563 121.21 197.059 121.21ZM205.164 121V107.077H208.146V121H205.164ZM203.085 112.558V109.891H210.435V112.558H203.085ZM216.413 121.21C215.489 121.21 214.656 120.958 213.914 120.454C213.172 119.95 212.584 119.264 212.15 118.396C211.716 117.528 211.499 116.534 211.499 115.414C211.499 114.294 211.716 113.3 212.15 112.432C212.598 111.564 213.2 110.885 213.956 110.395C214.712 109.905 215.573 109.66 216.539 109.66C217.085 109.66 217.582 109.744 218.03 109.912C218.492 110.066 218.891 110.283 219.227 110.563C219.577 110.843 219.871 111.165 220.109 111.529C220.347 111.893 220.515 112.285 220.613 112.705L219.983 112.6V109.891H222.944V121H219.941V118.333L220.613 118.27C220.501 118.662 220.319 119.033 220.067 119.383C219.815 119.733 219.5 120.048 219.122 120.328C218.758 120.594 218.345 120.811 217.883 120.979C217.421 121.133 216.931 121.21 216.413 121.21ZM217.232 118.627C217.792 118.627 218.282 118.494 218.702 118.228C219.122 117.962 219.444 117.591 219.668 117.115C219.906 116.625 220.025 116.058 220.025 115.414C220.025 114.784 219.906 114.231 219.668 113.755C219.444 113.279 219.122 112.908 218.702 112.642C218.282 112.362 217.792 112.222 217.232 112.222C216.686 112.222 216.203 112.362 215.783 112.642C215.377 112.908 215.055 113.279 214.817 113.755C214.579 114.231 214.46 114.784 214.46 115.414C214.46 116.058 214.579 116.625 214.817 117.115C215.055 117.591 215.377 117.962 215.783 118.228C216.203 118.494 216.686 118.627 217.232 118.627ZM226.185 121V109.891H229.167V121H226.185ZM227.655 107.623C227.081 107.623 226.633 107.483 226.311 107.203C225.989 106.909 225.828 106.503 225.828 105.985C225.828 105.509 225.989 105.124 226.311 104.83C226.647 104.522 227.095 104.368 227.655 104.368C228.229 104.368 228.677 104.515 228.999 104.809C229.321 105.089 229.482 105.481 229.482 105.985C229.482 106.461 229.314 106.853 228.978 107.161C228.656 107.469 228.215 107.623 227.655 107.623ZM232.373 121V105.46H235.355V121H232.373ZM242.12 121.21C241.084 121.21 240.16 121.042 239.348 120.706C238.55 120.356 237.906 119.88 237.416 119.278L239.285 117.682C239.705 118.144 240.181 118.48 240.713 118.69C241.245 118.886 241.777 118.984 242.309 118.984C242.519 118.984 242.708 118.963 242.876 118.921C243.058 118.865 243.212 118.795 243.338 118.711C243.464 118.613 243.555 118.501 243.611 118.375C243.681 118.235 243.716 118.088 243.716 117.934C243.716 117.626 243.59 117.388 243.338 117.22C243.198 117.136 242.981 117.045 242.687 116.947C242.393 116.835 242.015 116.716 241.553 116.59C240.839 116.408 240.23 116.198 239.726 115.96C239.236 115.708 238.844 115.428 238.55 115.12C238.298 114.826 238.102 114.511 237.962 114.175C237.836 113.825 237.773 113.44 237.773 113.02C237.773 112.516 237.885 112.061 238.109 111.655C238.333 111.235 238.641 110.878 239.033 110.584C239.439 110.29 239.901 110.066 240.419 109.912C240.937 109.744 241.483 109.66 242.057 109.66C242.631 109.66 243.191 109.73 243.737 109.87C244.283 110.01 244.787 110.213 245.249 110.479C245.725 110.731 246.138 111.032 246.488 111.382L244.892 113.146C244.64 112.908 244.353 112.691 244.031 112.495C243.723 112.299 243.401 112.145 243.065 112.033C242.729 111.921 242.428 111.865 242.162 111.865C241.924 111.865 241.707 111.886 241.511 111.928C241.329 111.97 241.175 112.04 241.049 112.138C240.923 112.222 240.825 112.327 240.755 112.453C240.699 112.579 240.671 112.719 240.671 112.873C240.671 113.027 240.706 113.174 240.776 113.314C240.86 113.454 240.972 113.573 241.112 113.671C241.266 113.755 241.49 113.853 241.784 113.965C242.092 114.077 242.505 114.203 243.023 114.343C243.695 114.525 244.262 114.728 244.724 114.952C245.2 115.176 245.578 115.435 245.858 115.729C246.096 115.981 246.271 116.268 246.383 116.59C246.495 116.912 246.551 117.269 246.551 117.661C246.551 118.347 246.355 118.956 245.963 119.488C245.585 120.02 245.06 120.44 244.388 120.748C243.716 121.056 242.96 121.21 242.12 121.21Z" fill="black"/>
<rect x="83" y="141" width="154" height="62" rx="9" fill="white"/>
<rect x="83" y="213" width="154" height="62" rx="9" fill="white"/>
<rect x="83" y="285" width="315" height="106" rx="9" fill="white"/>
<rect x="244" y="141" width="154" height="62" rx="9" fill="white"/>
<rect x="244" y="213" width="154" height="62" rx="9" fill="white"/>
<path d="M93.98 161V154H94.95L99.23 159.73L99.07 159.82C99.0433 159.653 99.02 159.473 99 159.28C98.98 159.08 98.96 158.87 98.94 158.65C98.9267 158.423 98.9133 158.187 98.9 157.94C98.8933 157.687 98.8867 157.423 98.88 157.15C98.8733 156.877 98.87 156.593 98.87 156.3V154H99.95V161H98.96L94.75 155.48L94.86 155.34C94.8933 155.747 94.92 156.093 94.94 156.38C94.9667 156.66 94.9867 156.9 95 157.1C95.02 157.293 95.0333 157.453 95.04 157.58C95.0467 157.7 95.05 157.8 95.05 157.88C95.0567 157.96 95.06 158.03 95.06 158.09V161H93.98ZM103.67 161.1C103.236 161.1 102.84 160.98 102.48 160.74C102.126 160.5 101.843 160.173 101.63 159.76C101.416 159.347 101.31 158.88 101.31 158.36C101.31 157.833 101.416 157.367 101.63 156.96C101.85 156.547 102.143 156.223 102.51 155.99C102.883 155.757 103.3 155.64 103.76 155.64C104.033 155.64 104.283 155.68 104.51 155.76C104.736 155.84 104.933 155.953 105.1 156.1C105.273 156.24 105.413 156.403 105.52 156.59C105.633 156.777 105.703 156.977 105.73 157.19L105.5 157.11V155.75H106.54V161H105.5V159.75L105.74 159.68C105.7 159.86 105.616 160.037 105.49 160.21C105.37 160.377 105.213 160.527 105.02 160.66C104.833 160.793 104.623 160.9 104.39 160.98C104.163 161.06 103.923 161.1 103.67 161.1ZM103.94 160.15C104.253 160.15 104.53 160.073 104.77 159.92C105.01 159.767 105.196 159.557 105.33 159.29C105.47 159.017 105.54 158.707 105.54 158.36C105.54 158.02 105.47 157.717 105.33 157.45C105.196 157.183 105.01 156.973 104.77 156.82C104.53 156.667 104.253 156.59 103.94 156.59C103.633 156.59 103.36 156.667 103.12 156.82C102.886 156.973 102.7 157.183 102.56 157.45C102.426 157.717 102.36 158.02 102.36 158.36C102.36 158.707 102.426 159.017 102.56 159.29C102.7 159.557 102.886 159.767 103.12 159.92C103.36 160.073 103.633 160.15 103.94 160.15ZM107.958 161V155.75H108.998V156.87L108.808 156.99C108.861 156.817 108.944 156.65 109.058 156.49C109.178 156.33 109.321 156.19 109.488 156.07C109.661 155.943 109.844 155.843 110.038 155.77C110.238 155.697 110.441 155.66 110.648 155.66C110.948 155.66 111.211 155.71 111.438 155.81C111.664 155.91 111.851 156.06 111.998 156.26C112.144 156.46 112.251 156.71 112.318 157.01L112.158 156.97L112.228 156.8C112.301 156.647 112.401 156.503 112.528 156.37C112.661 156.23 112.811 156.107 112.978 156C113.144 155.893 113.321 155.81 113.508 155.75C113.694 155.69 113.878 155.66 114.058 155.66C114.451 155.66 114.774 155.74 115.028 155.9C115.288 156.06 115.481 156.303 115.608 156.63C115.741 156.957 115.808 157.363 115.808 157.85V161H114.768V157.91C114.768 157.61 114.728 157.367 114.648 157.18C114.574 156.987 114.461 156.843 114.308 156.75C114.154 156.657 113.958 156.61 113.718 156.61C113.531 156.61 113.354 156.643 113.188 156.71C113.028 156.77 112.888 156.857 112.768 156.97C112.648 157.083 112.554 157.217 112.488 157.37C112.421 157.517 112.388 157.68 112.388 157.86V161H111.348V157.89C111.348 157.617 111.308 157.387 111.228 157.2C111.148 157.007 111.031 156.86 110.878 156.76C110.724 156.66 110.538 156.61 110.318 156.61C110.131 156.61 109.958 156.643 109.798 156.71C109.638 156.77 109.498 156.857 109.378 156.97C109.258 157.077 109.164 157.207 109.098 157.36C109.031 157.507 108.998 157.667 108.998 157.84V161H107.958ZM119.637 161.1C119.097 161.1 118.617 160.987 118.197 160.76C117.783 160.527 117.457 160.21 117.217 159.81C116.983 159.41 116.867 158.95 116.867 158.43C116.867 158.017 116.933 157.64 117.067 157.3C117.2 156.96 117.383 156.667 117.617 156.42C117.857 156.167 118.14 155.973 118.467 155.84C118.8 155.7 119.16 155.63 119.547 155.63C119.887 155.63 120.203 155.697 120.497 155.83C120.79 155.957 121.043 156.133 121.257 156.36C121.477 156.587 121.643 156.857 121.757 157.17C121.877 157.477 121.933 157.813 121.927 158.18L121.917 158.62H117.627L117.397 157.8H121.027L120.877 157.97V157.73C120.857 157.51 120.783 157.313 120.657 157.14C120.53 156.967 120.37 156.83 120.177 156.73C119.983 156.63 119.773 156.58 119.547 156.58C119.187 156.58 118.883 156.65 118.637 156.79C118.39 156.923 118.203 157.123 118.077 157.39C117.95 157.65 117.887 157.973 117.887 158.36C117.887 158.727 117.963 159.047 118.117 159.32C118.27 159.587 118.487 159.793 118.767 159.94C119.047 160.087 119.37 160.16 119.737 160.16C119.997 160.16 120.237 160.117 120.457 160.03C120.683 159.943 120.927 159.787 121.187 159.56L121.707 160.29C121.547 160.45 121.35 160.59 121.117 160.71C120.89 160.83 120.647 160.927 120.387 161C120.133 161.067 119.883 161.1 119.637 161.1Z" fill="#3B3B3B"/>
<path d="M95.31 233V227.04H93.35V226H98.41V227.04H96.39V233H95.31ZM99.8637 235.3L100.924 232.85L100.934 233.67L98.3137 227.75H99.5137L101.154 231.61C101.187 231.677 101.227 231.78 101.274 231.92C101.32 232.053 101.36 232.187 101.394 232.32L101.134 232.38C101.187 232.24 101.237 232.1 101.284 231.96C101.337 231.82 101.387 231.68 101.434 231.54L102.804 227.75H104.024L101.864 233L100.974 235.3H99.8637ZM104.794 235.2V227.75H105.834V228.95L105.674 228.86C105.714 228.66 105.828 228.47 106.014 228.29C106.201 228.103 106.428 227.953 106.694 227.84C106.968 227.72 107.248 227.66 107.534 227.66C108.008 227.66 108.428 227.777 108.794 228.01C109.161 228.243 109.451 228.563 109.664 228.97C109.878 229.377 109.984 229.843 109.984 230.37C109.984 230.89 109.878 231.357 109.664 231.77C109.458 232.177 109.171 232.5 108.804 232.74C108.438 232.973 108.024 233.09 107.564 233.09C107.258 233.09 106.961 233.03 106.674 232.91C106.388 232.783 106.144 232.623 105.944 232.43C105.744 232.237 105.621 232.037 105.574 231.83L105.834 231.69V235.2H104.794ZM107.394 232.14C107.701 232.14 107.974 232.063 108.214 231.91C108.454 231.757 108.644 231.547 108.784 231.28C108.924 231.013 108.994 230.71 108.994 230.37C108.994 230.03 108.924 229.73 108.784 229.47C108.651 229.203 108.464 228.993 108.224 228.84C107.984 228.687 107.708 228.61 107.394 228.61C107.081 228.61 106.804 228.687 106.564 228.84C106.324 228.987 106.134 229.193 105.994 229.46C105.854 229.727 105.784 230.03 105.784 230.37C105.784 230.71 105.854 231.013 105.994 231.28C106.134 231.547 106.324 231.757 106.564 231.91C106.804 232.063 107.081 232.14 107.394 232.14ZM113.553 233.1C113.013 233.1 112.533 232.987 112.113 232.76C111.699 232.527 111.373 232.21 111.133 231.81C110.899 231.41 110.783 230.95 110.783 230.43C110.783 230.017 110.849 229.64 110.983 229.3C111.116 228.96 111.299 228.667 111.533 228.42C111.773 228.167 112.056 227.973 112.383 227.84C112.716 227.7 113.076 227.63 113.463 227.63C113.803 227.63 114.119 227.697 114.413 227.83C114.706 227.957 114.959 228.133 115.173 228.36C115.393 228.587 115.559 228.857 115.673 229.17C115.793 229.477 115.849 229.813 115.843 230.18L115.833 230.62H111.543L111.313 229.8H114.943L114.793 229.97V229.73C114.773 229.51 114.699 229.313 114.573 229.14C114.446 228.967 114.286 228.83 114.093 228.73C113.899 228.63 113.689 228.58 113.463 228.58C113.103 228.58 112.799 228.65 112.553 228.79C112.306 228.923 112.119 229.123 111.993 229.39C111.866 229.65 111.803 229.973 111.803 230.36C111.803 230.727 111.879 231.047 112.033 231.32C112.186 231.587 112.403 231.793 112.683 231.94C112.963 232.087 113.286 232.16 113.653 232.16C113.913 232.16 114.153 232.117 114.373 232.03C114.599 231.943 114.843 231.787 115.103 231.56L115.623 232.29C115.463 232.45 115.266 232.59 115.033 232.71C114.806 232.83 114.563 232.927 114.303 233C114.049 233.067 113.799 233.1 113.553 233.1Z" fill="#3B3B3B"/>
<path d="M93.98 305V298H96.72C97.22 298 97.67 298.083 98.07 298.25C98.4767 298.417 98.8233 298.657 99.11 298.97C99.3967 299.283 99.6167 299.653 99.77 300.08C99.9233 300.507 100 300.98 100 301.5C100 302.02 99.9233 302.497 99.77 302.93C99.6167 303.357 99.3967 303.727 99.11 304.04C98.83 304.347 98.4867 304.583 98.08 304.75C97.6733 304.917 97.22 305 96.72 305H93.98ZM95.06 304.07L95.03 303.96H96.67C97.0233 303.96 97.3367 303.903 97.61 303.79C97.89 303.677 98.1233 303.517 98.31 303.31C98.5033 303.097 98.65 302.837 98.75 302.53C98.85 302.223 98.9 301.88 98.9 301.5C98.9 301.12 98.85 300.78 98.75 300.48C98.65 300.173 98.5033 299.913 98.31 299.7C98.1167 299.487 97.8833 299.323 97.61 299.21C97.3367 299.097 97.0233 299.04 96.67 299.04H95L95.06 298.95V304.07ZM103.65 305.1C103.11 305.1 102.63 304.987 102.21 304.76C101.797 304.527 101.47 304.21 101.23 303.81C100.997 303.41 100.88 302.95 100.88 302.43C100.88 302.017 100.947 301.64 101.08 301.3C101.214 300.96 101.397 300.667 101.63 300.42C101.87 300.167 102.154 299.973 102.48 299.84C102.814 299.7 103.174 299.63 103.56 299.63C103.9 299.63 104.217 299.697 104.51 299.83C104.804 299.957 105.057 300.133 105.27 300.36C105.49 300.587 105.657 300.857 105.77 301.17C105.89 301.477 105.947 301.813 105.94 302.18L105.93 302.62H101.64L101.41 301.8H105.04L104.89 301.97V301.73C104.87 301.51 104.797 301.313 104.67 301.14C104.544 300.967 104.384 300.83 104.19 300.73C103.997 300.63 103.787 300.58 103.56 300.58C103.2 300.58 102.897 300.65 102.65 300.79C102.404 300.923 102.217 301.123 102.09 301.39C101.964 301.65 101.9 301.973 101.9 302.36C101.9 302.727 101.977 303.047 102.13 303.32C102.284 303.587 102.5 303.793 102.78 303.94C103.06 304.087 103.384 304.16 103.75 304.16C104.01 304.16 104.25 304.117 104.47 304.03C104.697 303.943 104.94 303.787 105.2 303.56L105.72 304.29C105.56 304.45 105.364 304.59 105.13 304.71C104.904 304.83 104.66 304.927 104.4 305C104.147 305.067 103.897 305.1 103.65 305.1ZM108.81 305.1C108.37 305.1 107.973 305.023 107.62 304.87C107.267 304.717 106.973 304.49 106.74 304.19L107.44 303.59C107.64 303.823 107.857 303.993 108.09 304.1C108.33 304.2 108.6 304.25 108.9 304.25C109.02 304.25 109.13 304.237 109.23 304.21C109.337 304.177 109.427 304.13 109.5 304.07C109.58 304.01 109.64 303.94 109.68 303.86C109.72 303.773 109.74 303.68 109.74 303.58C109.74 303.407 109.677 303.267 109.55 303.16C109.483 303.113 109.377 303.063 109.23 303.01C109.09 302.95 108.907 302.89 108.68 302.83C108.293 302.73 107.977 302.617 107.73 302.49C107.483 302.363 107.293 302.22 107.16 302.06C107.06 301.933 106.987 301.797 106.94 301.65C106.893 301.497 106.87 301.33 106.87 301.15C106.87 300.93 106.917 300.73 107.01 300.55C107.11 300.363 107.243 300.203 107.41 300.07C107.583 299.93 107.783 299.823 108.01 299.75C108.243 299.677 108.49 299.64 108.75 299.64C108.997 299.64 109.24 299.673 109.48 299.74C109.727 299.807 109.953 299.903 110.16 300.03C110.367 300.157 110.54 300.307 110.68 300.48L110.09 301.13C109.963 301.003 109.823 300.893 109.67 300.8C109.523 300.7 109.373 300.623 109.22 300.57C109.067 300.517 108.927 300.49 108.8 300.49C108.66 300.49 108.533 300.503 108.42 300.53C108.307 300.557 108.21 300.597 108.13 300.65C108.057 300.703 108 300.77 107.96 300.85C107.92 300.93 107.9 301.02 107.9 301.12C107.907 301.207 107.927 301.29 107.96 301.37C108 301.443 108.053 301.507 108.12 301.56C108.193 301.613 108.303 301.67 108.45 301.73C108.597 301.79 108.783 301.847 109.01 301.9C109.343 301.987 109.617 302.083 109.83 302.19C110.05 302.29 110.223 302.407 110.35 302.54C110.483 302.667 110.577 302.813 110.63 302.98C110.683 303.147 110.71 303.333 110.71 303.54C110.71 303.84 110.623 304.11 110.45 304.35C110.283 304.583 110.057 304.767 109.77 304.9C109.483 305.033 109.163 305.1 108.81 305.1ZM114.075 305.1C113.588 305.1 113.152 304.98 112.765 304.74C112.385 304.5 112.082 304.173 111.855 303.76C111.635 303.347 111.525 302.883 111.525 302.37C111.525 301.857 111.635 301.393 111.855 300.98C112.082 300.567 112.385 300.24 112.765 300C113.152 299.76 113.588 299.64 114.075 299.64C114.542 299.64 114.965 299.737 115.345 299.93C115.732 300.117 116.025 300.373 116.225 300.7L115.655 301.4C115.548 301.247 115.412 301.107 115.245 300.98C115.078 300.853 114.902 300.753 114.715 300.68C114.528 300.607 114.348 300.57 114.175 300.57C113.855 300.57 113.568 300.65 113.315 300.81C113.068 300.963 112.872 301.177 112.725 301.45C112.578 301.723 112.505 302.03 112.505 302.37C112.505 302.71 112.582 303.017 112.735 303.29C112.888 303.557 113.092 303.77 113.345 303.93C113.598 304.09 113.878 304.17 114.185 304.17C114.365 304.17 114.538 304.14 114.705 304.08C114.878 304.02 115.045 303.93 115.205 303.81C115.365 303.69 115.515 303.543 115.655 303.37L116.225 304.07C116.012 304.37 115.705 304.617 115.305 304.81C114.912 305.003 114.502 305.1 114.075 305.1ZM117.197 305V299.75H118.237V301.4L118.137 301C118.21 300.747 118.333 300.517 118.507 300.31C118.687 300.103 118.89 299.94 119.117 299.82C119.35 299.7 119.59 299.64 119.837 299.64C119.95 299.64 120.057 299.65 120.157 299.67C120.263 299.69 120.347 299.713 120.407 299.74L120.137 300.86C120.057 300.827 119.967 300.8 119.867 300.78C119.773 300.753 119.68 300.74 119.587 300.74C119.407 300.74 119.233 300.777 119.067 300.85C118.907 300.917 118.763 301.013 118.637 301.14C118.517 301.26 118.42 301.403 118.347 301.57C118.273 301.73 118.237 301.907 118.237 302.1V305H117.197ZM121.4 305V299.75H122.43V305H121.4ZM121.9 298.59C121.68 298.59 121.51 298.533 121.39 298.42C121.27 298.307 121.21 298.147 121.21 297.94C121.21 297.747 121.27 297.59 121.39 297.47C121.516 297.35 121.686 297.29 121.9 297.29C122.12 297.29 122.29 297.347 122.41 297.46C122.53 297.573 122.59 297.733 122.59 297.94C122.59 298.133 122.526 298.29 122.4 298.41C122.28 298.53 122.113 298.59 121.9 298.59ZM124.013 307.2V299.75H125.053V300.95L124.893 300.86C124.933 300.66 125.046 300.47 125.233 300.29C125.42 300.103 125.646 299.953 125.913 299.84C126.186 299.72 126.466 299.66 126.753 299.66C127.226 299.66 127.646 299.777 128.013 300.01C128.38 300.243 128.67 300.563 128.883 300.97C129.096 301.377 129.203 301.843 129.203 302.37C129.203 302.89 129.096 303.357 128.883 303.77C128.676 304.177 128.39 304.5 128.023 304.74C127.656 304.973 127.243 305.09 126.783 305.09C126.476 305.09 126.18 305.03 125.893 304.91C125.606 304.783 125.363 304.623 125.163 304.43C124.963 304.237 124.84 304.037 124.793 303.83L125.053 303.69V307.2H124.013ZM126.613 304.14C126.92 304.14 127.193 304.063 127.433 303.91C127.673 303.757 127.863 303.547 128.003 303.28C128.143 303.013 128.213 302.71 128.213 302.37C128.213 302.03 128.143 301.73 128.003 301.47C127.87 301.203 127.683 300.993 127.443 300.84C127.203 300.687 126.926 300.61 126.613 300.61C126.3 300.61 126.023 300.687 125.783 300.84C125.543 300.987 125.353 301.193 125.213 301.46C125.073 301.727 125.003 302.03 125.003 302.37C125.003 302.71 125.073 303.013 125.213 303.28C125.353 303.547 125.543 303.757 125.783 303.91C126.023 304.063 126.3 304.14 126.613 304.14ZM130.972 305V298.41H132.002V305H130.972ZM129.882 300.75V299.75H133.222V300.75H129.882ZM134.329 305V299.75H135.359V305H134.329ZM134.829 298.59C134.609 298.59 134.439 298.533 134.319 298.42C134.199 298.307 134.139 298.147 134.139 297.94C134.139 297.747 134.199 297.59 134.319 297.47C134.446 297.35 134.616 297.29 134.829 297.29C135.049 297.29 135.219 297.347 135.339 297.46C135.459 297.573 135.519 297.733 135.519 297.94C135.519 298.133 135.456 298.29 135.329 298.41C135.209 298.53 135.043 298.59 134.829 298.59ZM139.303 305.1C138.789 305.1 138.329 304.983 137.923 304.75C137.523 304.51 137.206 304.187 136.973 303.78C136.739 303.367 136.623 302.897 136.623 302.37C136.623 301.843 136.739 301.377 136.973 300.97C137.206 300.557 137.523 300.233 137.923 300C138.329 299.76 138.789 299.64 139.303 299.64C139.809 299.64 140.263 299.76 140.663 300C141.069 300.233 141.389 300.557 141.623 300.97C141.856 301.377 141.973 301.843 141.973 302.37C141.973 302.897 141.856 303.367 141.623 303.78C141.389 304.187 141.069 304.51 140.663 304.75C140.263 304.983 139.809 305.1 139.303 305.1ZM139.303 304.16C139.616 304.16 139.896 304.083 140.143 303.93C140.389 303.77 140.583 303.557 140.723 303.29C140.863 303.017 140.929 302.71 140.923 302.37C140.929 302.023 140.863 301.717 140.723 301.45C140.583 301.177 140.389 300.963 140.143 300.81C139.896 300.657 139.616 300.58 139.303 300.58C138.989 300.58 138.706 300.66 138.453 300.82C138.206 300.973 138.013 301.187 137.873 301.46C137.733 301.727 137.666 302.03 137.673 302.37C137.666 302.71 137.733 303.017 137.873 303.29C138.013 303.557 138.206 303.77 138.453 303.93C138.706 304.083 138.989 304.16 139.303 304.16ZM143.095 305V299.75H144.125V300.83L143.945 300.95C144.012 300.717 144.142 300.503 144.335 300.31C144.528 300.11 144.758 299.95 145.025 299.83C145.292 299.703 145.565 299.64 145.845 299.64C146.245 299.64 146.578 299.72 146.845 299.88C147.112 300.033 147.312 300.27 147.445 300.59C147.578 300.91 147.645 301.313 147.645 301.8V305H146.615V301.87C146.615 301.57 146.575 301.323 146.495 301.13C146.415 300.93 146.292 300.787 146.125 300.7C145.958 300.607 145.752 300.567 145.505 300.58C145.305 300.58 145.122 300.613 144.955 300.68C144.788 300.74 144.642 300.827 144.515 300.94C144.395 301.053 144.298 301.187 144.225 301.34C144.158 301.487 144.125 301.647 144.125 301.82V305H143.615C143.528 305 143.442 305 143.355 305C143.268 305 143.182 305 143.095 305Z" fill="#3B3B3B"/>
<path d="M254.25 161L256.96 154H258.06L260.75 161H259.6L258 156.78C257.98 156.733 257.94 156.62 257.88 156.44C257.827 156.26 257.763 156.06 257.69 155.84C257.617 155.62 257.55 155.42 257.49 155.24C257.43 155.053 257.39 154.933 257.37 154.88L257.6 154.87C257.56 154.983 257.51 155.127 257.45 155.3C257.397 155.473 257.337 155.657 257.27 155.85C257.21 156.043 257.15 156.227 257.09 156.4C257.03 156.567 256.98 156.707 256.94 156.82L255.35 161H254.25ZM255.45 159.26L255.85 158.22H259.03L259.49 159.26H255.45ZM263.757 161.1C263.27 161.1 262.833 160.98 262.447 160.74C262.067 160.5 261.763 160.173 261.537 159.76C261.317 159.347 261.207 158.883 261.207 158.37C261.207 157.857 261.317 157.393 261.537 156.98C261.763 156.567 262.067 156.24 262.447 156C262.833 155.76 263.27 155.64 263.757 155.64C264.223 155.64 264.647 155.737 265.027 155.93C265.413 156.117 265.707 156.373 265.907 156.7L265.337 157.4C265.23 157.247 265.093 157.107 264.927 156.98C264.76 156.853 264.583 156.753 264.397 156.68C264.21 156.607 264.03 156.57 263.857 156.57C263.537 156.57 263.25 156.65 262.997 156.81C262.75 156.963 262.553 157.177 262.407 157.45C262.26 157.723 262.187 158.03 262.187 158.37C262.187 158.71 262.263 159.017 262.417 159.29C262.57 159.557 262.773 159.77 263.027 159.93C263.28 160.09 263.56 160.17 263.867 160.17C264.047 160.17 264.22 160.14 264.387 160.08C264.56 160.02 264.727 159.93 264.887 159.81C265.047 159.69 265.197 159.543 265.337 159.37L265.907 160.07C265.693 160.37 265.387 160.617 264.987 160.81C264.593 161.003 264.183 161.1 263.757 161.1ZM269.108 161.1C268.622 161.1 268.185 160.98 267.798 160.74C267.418 160.5 267.115 160.173 266.888 159.76C266.668 159.347 266.558 158.883 266.558 158.37C266.558 157.857 266.668 157.393 266.888 156.98C267.115 156.567 267.418 156.24 267.798 156C268.185 155.76 268.622 155.64 269.108 155.64C269.575 155.64 269.998 155.737 270.378 155.93C270.765 156.117 271.058 156.373 271.258 156.7L270.688 157.4C270.582 157.247 270.445 157.107 270.278 156.98C270.112 156.853 269.935 156.753 269.748 156.68C269.562 156.607 269.382 156.57 269.208 156.57C268.888 156.57 268.602 156.65 268.348 156.81C268.102 156.963 267.905 157.177 267.758 157.45C267.612 157.723 267.538 158.03 267.538 158.37C267.538 158.71 267.615 159.017 267.768 159.29C267.922 159.557 268.125 159.77 268.378 159.93C268.632 160.09 268.912 160.17 269.218 160.17C269.398 160.17 269.572 160.14 269.738 160.08C269.912 160.02 270.078 159.93 270.238 159.81C270.398 159.69 270.548 159.543 270.688 159.37L271.258 160.07C271.045 160.37 270.738 160.617 270.338 160.81C269.945 161.003 269.535 161.1 269.108 161.1ZM274.59 161.1C274.076 161.1 273.616 160.983 273.21 160.75C272.81 160.51 272.493 160.187 272.26 159.78C272.026 159.367 271.91 158.897 271.91 158.37C271.91 157.843 272.026 157.377 272.26 156.97C272.493 156.557 272.81 156.233 273.21 156C273.616 155.76 274.076 155.64 274.59 155.64C275.096 155.64 275.55 155.76 275.95 156C276.356 156.233 276.676 156.557 276.91 156.97C277.143 157.377 277.26 157.843 277.26 158.37C277.26 158.897 277.143 159.367 276.91 159.78C276.676 160.187 276.356 160.51 275.95 160.75C275.55 160.983 275.096 161.1 274.59 161.1ZM274.59 160.16C274.903 160.16 275.183 160.083 275.43 159.93C275.676 159.77 275.87 159.557 276.01 159.29C276.15 159.017 276.216 158.71 276.21 158.37C276.216 158.023 276.15 157.717 276.01 157.45C275.87 157.177 275.676 156.963 275.43 156.81C275.183 156.657 274.903 156.58 274.59 156.58C274.276 156.58 273.993 156.66 273.74 156.82C273.493 156.973 273.3 157.187 273.16 157.46C273.02 157.727 272.953 158.03 272.96 158.37C272.953 158.71 273.02 159.017 273.16 159.29C273.3 159.557 273.493 159.77 273.74 159.93C273.993 160.083 274.276 160.16 274.59 160.16ZM280.222 161.1C279.849 161.1 279.522 161.013 279.242 160.84C278.969 160.667 278.755 160.423 278.602 160.11C278.455 159.797 278.382 159.423 278.382 158.99V155.75H279.412V158.71C279.412 159.017 279.459 159.283 279.552 159.51C279.652 159.73 279.792 159.9 279.972 160.02C280.159 160.14 280.382 160.2 280.642 160.2C280.835 160.2 281.012 160.17 281.172 160.11C281.332 160.043 281.469 159.953 281.582 159.84C281.702 159.727 281.795 159.59 281.862 159.43C281.929 159.27 281.962 159.097 281.962 158.91V155.75H282.992V161H281.962V159.9L282.142 159.78C282.062 160.027 281.925 160.25 281.732 160.45C281.545 160.65 281.322 160.81 281.062 160.93C280.802 161.043 280.522 161.1 280.222 161.1ZM284.437 161V155.75H285.467V156.83L285.287 156.95C285.353 156.717 285.483 156.503 285.677 156.31C285.87 156.11 286.1 155.95 286.367 155.83C286.633 155.703 286.907 155.64 287.187 155.64C287.587 155.64 287.92 155.72 288.187 155.88C288.453 156.033 288.653 156.27 288.787 156.59C288.92 156.91 288.987 157.313 288.987 157.8V161H287.957V157.87C287.957 157.57 287.917 157.323 287.837 157.13C287.757 156.93 287.633 156.787 287.467 156.7C287.3 156.607 287.093 156.567 286.847 156.58C286.647 156.58 286.463 156.613 286.297 156.68C286.13 156.74 285.983 156.827 285.857 156.94C285.737 157.053 285.64 157.187 285.567 157.34C285.5 157.487 285.467 157.647 285.467 157.82V161H284.957C284.87 161 284.783 161 284.697 161C284.61 161 284.523 161 284.437 161ZM291.034 161V154.41H292.064V161H291.034ZM289.944 156.75V155.75H293.284V156.75H289.944ZM297.285 161V154H298.255L302.535 159.73L302.375 159.82C302.348 159.653 302.325 159.473 302.305 159.28C302.285 159.08 302.265 158.87 302.245 158.65C302.231 158.423 302.218 158.187 302.205 157.94C302.198 157.687 302.191 157.423 302.185 157.15C302.178 156.877 302.175 156.593 302.175 156.3V154H303.255V161H302.265L298.055 155.48L298.165 155.34C298.198 155.747 298.225 156.093 298.245 156.38C298.271 156.66 298.291 156.9 298.305 157.1C298.325 157.293 298.338 157.453 298.345 157.58C298.351 157.7 298.355 157.8 298.355 157.88C298.361 157.96 298.365 158.03 298.365 158.09V161H297.285ZM306.794 161.1C306.421 161.1 306.094 161.013 305.814 160.84C305.541 160.667 305.328 160.423 305.174 160.11C305.028 159.797 304.954 159.423 304.954 158.99V155.75H305.984V158.71C305.984 159.017 306.031 159.283 306.124 159.51C306.224 159.73 306.364 159.9 306.544 160.02C306.731 160.14 306.954 160.2 307.214 160.2C307.408 160.2 307.584 160.17 307.744 160.11C307.904 160.043 308.041 159.953 308.154 159.84C308.274 159.727 308.368 159.59 308.434 159.43C308.501 159.27 308.534 159.097 308.534 158.91V155.75H309.564V161H308.534V159.9L308.714 159.78C308.634 160.027 308.498 160.25 308.304 160.45C308.118 160.65 307.894 160.81 307.634 160.93C307.374 161.043 307.094 161.1 306.794 161.1ZM310.989 161V155.75H312.029V156.87L311.839 156.99C311.892 156.817 311.976 156.65 312.089 156.49C312.209 156.33 312.352 156.19 312.519 156.07C312.692 155.943 312.876 155.843 313.069 155.77C313.269 155.697 313.472 155.66 313.679 155.66C313.979 155.66 314.242 155.71 314.469 155.81C314.696 155.91 314.882 156.06 315.029 156.26C315.176 156.46 315.282 156.71 315.349 157.01L315.189 156.97L315.259 156.8C315.332 156.647 315.432 156.503 315.559 156.37C315.692 156.23 315.842 156.107 316.009 156C316.176 155.893 316.352 155.81 316.539 155.75C316.726 155.69 316.909 155.66 317.089 155.66C317.482 155.66 317.806 155.74 318.059 155.9C318.319 156.06 318.512 156.303 318.639 156.63C318.772 156.957 318.839 157.363 318.839 157.85V161H317.799V157.91C317.799 157.61 317.759 157.367 317.679 157.18C317.606 156.987 317.492 156.843 317.339 156.75C317.186 156.657 316.989 156.61 316.749 156.61C316.562 156.61 316.386 156.643 316.219 156.71C316.059 156.77 315.919 156.857 315.799 156.97C315.679 157.083 315.586 157.217 315.519 157.37C315.452 157.517 315.419 157.68 315.419 157.86V161H314.379V157.89C314.379 157.617 314.339 157.387 314.259 157.2C314.179 157.007 314.062 156.86 313.909 156.76C313.756 156.66 313.569 156.61 313.349 156.61C313.162 156.61 312.989 156.643 312.829 156.71C312.669 156.77 312.529 156.857 312.409 156.97C312.289 157.077 312.196 157.207 312.129 157.36C312.062 157.507 312.029 157.667 312.029 157.84V161H310.989ZM322.978 161.1C322.751 161.1 322.525 161.063 322.298 160.99C322.078 160.917 321.875 160.82 321.688 160.7C321.508 160.573 321.355 160.437 321.228 160.29C321.108 160.137 321.028 159.983 320.988 159.83L321.248 159.69V160.97H320.218V153.6H321.248V156.95L321.088 156.86C321.121 156.707 321.195 156.56 321.308 156.42C321.421 156.273 321.565 156.143 321.738 156.03C321.918 155.91 322.111 155.817 322.318 155.75C322.525 155.677 322.735 155.64 322.948 155.64C323.421 155.64 323.841 155.757 324.208 155.99C324.575 156.223 324.865 156.547 325.078 156.96C325.291 157.367 325.398 157.833 325.398 158.36C325.398 158.887 325.291 159.357 325.078 159.77C324.871 160.183 324.585 160.51 324.218 160.75C323.851 160.983 323.438 161.1 322.978 161.1ZM322.808 160.16C323.115 160.16 323.388 160.083 323.628 159.93C323.868 159.77 324.058 159.557 324.198 159.29C324.338 159.017 324.408 158.707 324.408 158.36C324.408 158.02 324.338 157.717 324.198 157.45C324.065 157.177 323.878 156.963 323.638 156.81C323.398 156.657 323.121 156.58 322.808 156.58C322.495 156.58 322.218 156.657 321.978 156.81C321.738 156.963 321.548 157.177 321.408 157.45C321.268 157.717 321.198 158.02 321.198 158.36C321.198 158.707 321.268 159.017 321.408 159.29C321.548 159.557 321.738 159.77 321.978 159.93C322.218 160.083 322.495 160.16 322.808 160.16ZM328.967 161.1C328.427 161.1 327.947 160.987 327.527 160.76C327.114 160.527 326.787 160.21 326.547 159.81C326.314 159.41 326.197 158.95 326.197 158.43C326.197 158.017 326.264 157.64 326.397 157.3C326.53 156.96 326.714 156.667 326.947 156.42C327.187 156.167 327.47 155.973 327.797 155.84C328.13 155.7 328.49 155.63 328.877 155.63C329.217 155.63 329.534 155.697 329.827 155.83C330.12 155.957 330.374 156.133 330.587 156.36C330.807 156.587 330.974 156.857 331.087 157.17C331.207 157.477 331.264 157.813 331.257 158.18L331.247 158.62H326.957L326.727 157.8H330.357L330.207 157.97V157.73C330.187 157.51 330.114 157.313 329.987 157.14C329.86 156.967 329.7 156.83 329.507 156.73C329.314 156.63 329.104 156.58 328.877 156.58C328.517 156.58 328.214 156.65 327.967 156.79C327.72 156.923 327.534 157.123 327.407 157.39C327.28 157.65 327.217 157.973 327.217 158.36C327.217 158.727 327.294 159.047 327.447 159.32C327.6 159.587 327.817 159.793 328.097 159.94C328.377 160.087 328.7 160.16 329.067 160.16C329.327 160.16 329.567 160.117 329.787 160.03C330.014 159.943 330.257 159.787 330.517 159.56L331.037 160.29C330.877 160.45 330.68 160.59 330.447 160.71C330.22 160.83 329.977 160.927 329.717 161C329.464 161.067 329.214 161.1 328.967 161.1ZM332.376 161V155.75H333.416V157.4L333.316 157C333.39 156.747 333.513 156.517 333.686 156.31C333.866 156.103 334.07 155.94 334.296 155.82C334.53 155.7 334.77 155.64 335.016 155.64C335.13 155.64 335.236 155.65 335.336 155.67C335.443 155.69 335.526 155.713 335.586 155.74L335.316 156.86C335.236 156.827 335.146 156.8 335.046 156.78C334.953 156.753 334.86 156.74 334.766 156.74C334.586 156.74 334.413 156.777 334.246 156.85C334.086 156.917 333.943 157.013 333.816 157.14C333.696 157.26 333.6 157.403 333.526 157.57C333.453 157.73 333.416 157.907 333.416 158.1V161H332.376Z" fill="#3B3B3B"/>
<path d="M257.14 233.1C256.76 233.1 256.407 233.05 256.08 232.95C255.76 232.85 255.467 232.7 255.2 232.5C254.94 232.293 254.707 232.04 254.5 231.74L255.24 230.89C255.567 231.357 255.88 231.68 256.18 231.86C256.48 232.04 256.837 232.13 257.25 232.13C257.503 232.13 257.733 232.09 257.94 232.01C258.147 231.93 258.31 231.82 258.43 231.68C258.55 231.54 258.61 231.38 258.61 231.2C258.61 231.08 258.59 230.967 258.55 230.86C258.51 230.753 258.447 230.657 258.36 230.57C258.28 230.483 258.173 230.403 258.04 230.33C257.913 230.257 257.763 230.193 257.59 230.14C257.417 230.08 257.217 230.03 256.99 229.99C256.63 229.917 256.317 229.82 256.05 229.7C255.783 229.58 255.56 229.43 255.38 229.25C255.2 229.07 255.067 228.867 254.98 228.64C254.893 228.407 254.85 228.147 254.85 227.86C254.85 227.58 254.91 227.32 255.03 227.08C255.157 226.84 255.327 226.633 255.54 226.46C255.76 226.28 256.017 226.143 256.31 226.05C256.603 225.95 256.92 225.9 257.26 225.9C257.62 225.9 257.95 225.947 258.25 226.04C258.55 226.133 258.817 226.273 259.05 226.46C259.283 226.64 259.477 226.863 259.63 227.13L258.87 227.88C258.737 227.66 258.587 227.477 258.42 227.33C258.253 227.177 258.07 227.063 257.87 226.99C257.67 226.91 257.457 226.87 257.23 226.87C256.97 226.87 256.743 226.91 256.55 226.99C256.357 227.07 256.203 227.183 256.09 227.33C255.983 227.47 255.93 227.637 255.93 227.83C255.93 227.97 255.957 228.1 256.01 228.22C256.063 228.333 256.143 228.437 256.25 228.53C256.363 228.617 256.513 228.697 256.7 228.77C256.887 228.837 257.11 228.897 257.37 228.95C257.737 229.03 258.063 229.133 258.35 229.26C258.637 229.38 258.88 229.523 259.08 229.69C259.28 229.857 259.43 230.043 259.53 230.25C259.637 230.457 259.69 230.68 259.69 230.92C259.69 231.367 259.587 231.753 259.38 232.08C259.173 232.407 258.88 232.66 258.5 232.84C258.12 233.013 257.667 233.1 257.14 233.1ZM262.8 233.1C262.427 233.1 262.1 233.013 261.82 232.84C261.547 232.667 261.334 232.423 261.18 232.11C261.034 231.797 260.96 231.423 260.96 230.99V227.75H261.99V230.71C261.99 231.017 262.037 231.283 262.13 231.51C262.23 231.73 262.37 231.9 262.55 232.02C262.737 232.14 262.96 232.2 263.22 232.2C263.414 232.2 263.59 232.17 263.75 232.11C263.91 232.043 264.047 231.953 264.16 231.84C264.28 231.727 264.374 231.59 264.44 231.43C264.507 231.27 264.54 231.097 264.54 230.91V227.75H265.57V233H264.54V231.9L264.72 231.78C264.64 232.027 264.504 232.25 264.31 232.45C264.124 232.65 263.9 232.81 263.64 232.93C263.38 233.043 263.1 233.1 262.8 233.1ZM269.775 233.1C269.548 233.1 269.322 233.063 269.095 232.99C268.875 232.917 268.672 232.82 268.485 232.7C268.305 232.573 268.152 232.437 268.025 232.29C267.905 232.137 267.825 231.983 267.785 231.83L268.045 231.69V232.97H267.015V225.6H268.045V228.95L267.885 228.86C267.918 228.707 267.992 228.56 268.105 228.42C268.218 228.273 268.362 228.143 268.535 228.03C268.715 227.91 268.908 227.817 269.115 227.75C269.322 227.677 269.532 227.64 269.745 227.64C270.218 227.64 270.638 227.757 271.005 227.99C271.372 228.223 271.662 228.547 271.875 228.96C272.088 229.367 272.195 229.833 272.195 230.36C272.195 230.887 272.088 231.357 271.875 231.77C271.668 232.183 271.382 232.51 271.015 232.75C270.648 232.983 270.235 233.1 269.775 233.1ZM269.605 232.16C269.912 232.16 270.185 232.083 270.425 231.93C270.665 231.77 270.855 231.557 270.995 231.29C271.135 231.017 271.205 230.707 271.205 230.36C271.205 230.02 271.135 229.717 270.995 229.45C270.862 229.177 270.675 228.963 270.435 228.81C270.195 228.657 269.918 228.58 269.605 228.58C269.292 228.58 269.015 228.657 268.775 228.81C268.535 228.963 268.345 229.177 268.205 229.45C268.065 229.717 267.995 230.02 267.995 230.36C267.995 230.707 268.065 231.017 268.205 231.29C268.345 231.557 268.535 231.77 268.775 231.93C269.015 232.083 269.292 232.16 269.605 232.16ZM277.706 233V227.04H275.746V226H280.806V227.04H278.786V233H277.706ZM282.26 235.3L283.32 232.85L283.33 233.67L280.71 227.75H281.91L283.55 231.61C283.583 231.677 283.623 231.78 283.67 231.92C283.717 232.053 283.757 232.187 283.79 232.32L283.53 232.38C283.583 232.24 283.633 232.1 283.68 231.96C283.733 231.82 283.783 231.68 283.83 231.54L285.2 227.75H286.42L284.26 233L283.37 235.3H282.26ZM287.191 235.2V227.75H288.231V228.95L288.071 228.86C288.111 228.66 288.224 228.47 288.411 228.29C288.597 228.103 288.824 227.953 289.091 227.84C289.364 227.72 289.644 227.66 289.931 227.66C290.404 227.66 290.824 227.777 291.191 228.01C291.557 228.243 291.847 228.563 292.061 228.97C292.274 229.377 292.381 229.843 292.381 230.37C292.381 230.89 292.274 231.357 292.061 231.77C291.854 232.177 291.567 232.5 291.201 232.74C290.834 232.973 290.421 233.09 289.961 233.09C289.654 233.09 289.357 233.03 289.071 232.91C288.784 232.783 288.541 232.623 288.341 232.43C288.141 232.237 288.017 232.037 287.971 231.83L288.231 231.69V235.2H287.191ZM289.791 232.14C290.097 232.14 290.371 232.063 290.611 231.91C290.851 231.757 291.041 231.547 291.181 231.28C291.321 231.013 291.391 230.71 291.391 230.37C291.391 230.03 291.321 229.73 291.181 229.47C291.047 229.203 290.861 228.993 290.621 228.84C290.381 228.687 290.104 228.61 289.791 228.61C289.477 228.61 289.201 228.687 288.961 228.84C288.721 228.987 288.531 229.193 288.391 229.46C288.251 229.727 288.181 230.03 288.181 230.37C288.181 230.71 288.251 231.013 288.391 231.28C288.531 231.547 288.721 231.757 288.961 231.91C289.201 232.063 289.477 232.14 289.791 232.14ZM295.949 233.1C295.409 233.1 294.929 232.987 294.509 232.76C294.096 232.527 293.769 232.21 293.529 231.81C293.296 231.41 293.179 230.95 293.179 230.43C293.179 230.017 293.246 229.64 293.379 229.3C293.513 228.96 293.696 228.667 293.929 228.42C294.169 228.167 294.453 227.973 294.779 227.84C295.113 227.7 295.473 227.63 295.859 227.63C296.199 227.63 296.516 227.697 296.809 227.83C297.103 227.957 297.356 228.133 297.569 228.36C297.789 228.587 297.956 228.857 298.069 229.17C298.189 229.477 298.246 229.813 298.239 230.18L298.229 230.62H293.939L293.709 229.8H297.339L297.189 229.97V229.73C297.169 229.51 297.096 229.313 296.969 229.14C296.843 228.967 296.683 228.83 296.489 228.73C296.296 228.63 296.086 228.58 295.859 228.58C295.499 228.58 295.196 228.65 294.949 228.79C294.703 228.923 294.516 229.123 294.389 229.39C294.263 229.65 294.199 229.973 294.199 230.36C294.199 230.727 294.276 231.047 294.429 231.32C294.583 231.587 294.799 231.793 295.079 231.94C295.359 232.087 295.683 232.16 296.049 232.16C296.309 232.16 296.549 232.117 296.769 232.03C296.996 231.943 297.239 231.787 297.499 231.56L298.019 232.29C297.859 232.45 297.663 232.59 297.429 232.71C297.203 232.83 296.959 232.927 296.699 233C296.446 233.067 296.196 233.1 295.949 233.1Z" fill="#3B3B3B"/>
<rect x="104" y="180" width="98" height="7" rx="3.5" fill="#E4E6EA"/>
<rect x="104" y="252" width="77" height="7" rx="3.5" fill="#E4E6EA"/>
<rect x="104" y="324" width="274" height="7" rx="3.5" fill="#E4E6EA"/>
<rect x="104" y="336" width="213" height="7" rx="3.5" fill="#E4E6EA"/>
<rect x="104" y="348" width="255" height="7" rx="3.5" fill="#E4E6EA"/>
<rect x="104" y="360" width="241" height="7" rx="3.5" fill="#E4E6EA"/>
<rect x="104" y="372" width="152" height="7" rx="3.5" fill="#E4E6EA"/>
<rect x="265" y="180" width="111" height="7" rx="3.5" fill="#E4E6EA"/>
<rect x="265" y="252" width="77" height="7" rx="3.5" fill="#E4E6EA"/>
<rect x="93.25" y="170.25" width="133.5" height="26.5" rx="3.75" stroke="#E4E6EA" stroke-width="0.5"/>
<rect x="93.25" y="242.25" width="133.5" height="26.5" rx="3.75" stroke="#E4E6EA" stroke-width="0.5"/>
<rect x="93.25" y="314.25" width="294.5" height="70.5" rx="3.75" stroke="#E4E6EA" stroke-width="0.5"/>
<rect x="254.25" y="170.25" width="133.5" height="26.5" rx="3.75" stroke="#E4E6EA" stroke-width="0.5"/>
<rect x="254.25" y="242.25" width="133.5" height="26.5" rx="3.75" stroke="#E4E6EA" stroke-width="0.5"/>
<rect x="83" y="401" width="315" height="41" rx="6" fill="#0900FF"/>
<path d="M197.452 426.14C196.845 426.14 196.29 426.065 195.786 425.916C195.291 425.767 194.848 425.547 194.456 425.258C194.073 424.969 193.728 424.619 193.42 424.208L194.736 422.71C195.193 423.345 195.646 423.779 196.094 424.012C196.551 424.236 197.046 424.348 197.578 424.348C197.867 424.348 198.124 424.306 198.348 424.222C198.581 424.138 198.763 424.026 198.894 423.886C199.025 423.737 199.09 423.559 199.09 423.354C199.09 423.205 199.057 423.069 198.992 422.948C198.927 422.817 198.833 422.705 198.712 422.612C198.591 422.509 198.446 422.421 198.278 422.346C198.11 422.262 197.923 422.192 197.718 422.136C197.513 422.071 197.289 422.019 197.046 421.982C196.523 421.861 196.066 421.716 195.674 421.548C195.282 421.371 194.955 421.156 194.694 420.904C194.433 420.643 194.237 420.349 194.106 420.022C193.985 419.695 193.924 419.327 193.924 418.916C193.924 418.496 194.017 418.109 194.204 417.754C194.391 417.39 194.647 417.077 194.974 416.816C195.31 416.555 195.693 416.354 196.122 416.214C196.561 416.074 197.023 416.004 197.508 416.004C198.105 416.004 198.628 416.069 199.076 416.2C199.524 416.331 199.911 416.527 200.238 416.788C200.574 417.04 200.854 417.348 201.078 417.712L199.748 419C199.552 418.739 199.337 418.519 199.104 418.342C198.88 418.165 198.633 418.034 198.362 417.95C198.101 417.857 197.83 417.81 197.55 417.81C197.242 417.81 196.976 417.852 196.752 417.936C196.528 418.011 196.351 418.127 196.22 418.286C196.099 418.435 196.038 418.613 196.038 418.818C196.038 418.986 196.08 419.135 196.164 419.266C196.248 419.397 196.369 419.513 196.528 419.616C196.687 419.709 196.878 419.793 197.102 419.868C197.326 419.943 197.573 420.008 197.844 420.064C198.357 420.167 198.819 420.302 199.23 420.47C199.641 420.638 199.991 420.843 200.28 421.086C200.579 421.319 200.807 421.599 200.966 421.926C201.125 422.243 201.204 422.603 201.204 423.004C201.204 423.667 201.045 424.231 200.728 424.698C200.411 425.165 199.972 425.524 199.412 425.776C198.852 426.019 198.199 426.14 197.452 426.14ZM205.598 426.14C204.982 426.14 204.427 425.972 203.932 425.636C203.437 425.3 203.045 424.843 202.756 424.264C202.467 423.685 202.322 423.023 202.322 422.276C202.322 421.529 202.467 420.867 202.756 420.288C203.055 419.709 203.456 419.257 203.96 418.93C204.464 418.603 205.038 418.44 205.682 418.44C206.046 418.44 206.377 418.496 206.676 418.608C206.984 418.711 207.25 418.855 207.474 419.042C207.707 419.229 207.903 419.443 208.062 419.686C208.221 419.929 208.333 420.19 208.398 420.47L207.978 420.4V418.594H209.952V426H207.95V424.222L208.398 424.18C208.323 424.441 208.202 424.689 208.034 424.922C207.866 425.155 207.656 425.365 207.404 425.552C207.161 425.729 206.886 425.874 206.578 425.986C206.27 426.089 205.943 426.14 205.598 426.14ZM206.144 424.418C206.517 424.418 206.844 424.329 207.124 424.152C207.404 423.975 207.619 423.727 207.768 423.41C207.927 423.083 208.006 422.705 208.006 422.276C208.006 421.856 207.927 421.487 207.768 421.17C207.619 420.853 207.404 420.605 207.124 420.428C206.844 420.241 206.517 420.148 206.144 420.148C205.78 420.148 205.458 420.241 205.178 420.428C204.907 420.605 204.693 420.853 204.534 421.17C204.375 421.487 204.296 421.856 204.296 422.276C204.296 422.705 204.375 423.083 204.534 423.41C204.693 423.727 204.907 423.975 205.178 424.152C205.458 424.329 205.78 424.418 206.144 424.418ZM214.105 426L210.997 418.594H213.181L215.155 424.124L214.693 424.208L216.765 418.594H218.893L215.631 426H214.105ZM223.416 426.14C222.614 426.14 221.909 425.977 221.302 425.65C220.705 425.323 220.238 424.875 219.902 424.306C219.576 423.737 219.412 423.083 219.412 422.346C219.412 421.767 219.506 421.24 219.692 420.764C219.879 420.288 220.14 419.877 220.476 419.532C220.812 419.177 221.209 418.907 221.666 418.72C222.133 418.524 222.637 418.426 223.178 418.426C223.682 418.426 224.149 418.519 224.578 418.706C225.008 418.893 225.376 419.154 225.684 419.49C226.002 419.817 226.244 420.209 226.412 420.666C226.58 421.114 226.655 421.599 226.636 422.122L226.622 422.738H220.672L220.35 421.52H224.984L224.76 421.772V421.464C224.742 421.212 224.658 420.988 224.508 420.792C224.368 420.587 224.186 420.428 223.962 420.316C223.738 420.195 223.486 420.134 223.206 420.134C222.796 420.134 222.446 420.213 222.156 420.372C221.876 420.531 221.662 420.764 221.512 421.072C221.363 421.38 221.288 421.753 221.288 422.192C221.288 422.64 221.382 423.027 221.568 423.354C221.764 423.681 222.035 423.937 222.38 424.124C222.735 424.301 223.15 424.39 223.626 424.39C223.953 424.39 224.252 424.339 224.522 424.236C224.793 424.133 225.082 423.956 225.39 423.704L226.342 425.034C226.072 425.277 225.773 425.482 225.446 425.65C225.12 425.809 224.784 425.93 224.438 426.014C224.093 426.098 223.752 426.14 223.416 426.14ZM231.502 426L235.352 416.2H237.228L241.05 426H238.894L236.92 420.722C236.864 420.573 236.794 420.381 236.71 420.148C236.636 419.915 236.556 419.667 236.472 419.406C236.388 419.145 236.309 418.897 236.234 418.664C236.16 418.421 236.104 418.221 236.066 418.062H236.444C236.388 418.267 236.323 418.487 236.248 418.72C236.183 418.944 236.113 419.177 236.038 419.42C235.964 419.653 235.884 419.882 235.8 420.106C235.716 420.33 235.637 420.549 235.562 420.764L233.588 426H231.502ZM233.294 423.942L233.98 422.262H238.474L239.174 423.942H233.294ZM245.093 426.14C244.384 426.14 243.749 425.972 243.189 425.636C242.629 425.3 242.186 424.843 241.859 424.264C241.542 423.685 241.383 423.027 241.383 422.29C241.383 421.553 241.542 420.895 241.859 420.316C242.186 419.737 242.629 419.28 243.189 418.944C243.749 418.608 244.384 418.44 245.093 418.44C245.756 418.44 246.362 418.561 246.913 418.804C247.464 419.047 247.893 419.383 248.201 419.812L247.109 421.128C246.978 420.951 246.815 420.792 246.619 420.652C246.423 420.503 246.208 420.386 245.975 420.302C245.751 420.218 245.518 420.176 245.275 420.176C244.892 420.176 244.552 420.269 244.253 420.456C243.964 420.633 243.735 420.881 243.567 421.198C243.399 421.515 243.315 421.879 243.315 422.29C243.315 422.682 243.399 423.037 243.567 423.354C243.744 423.671 243.982 423.923 244.281 424.11C244.58 424.297 244.916 424.39 245.289 424.39C245.532 424.39 245.76 424.357 245.975 424.292C246.19 424.227 246.39 424.124 246.577 423.984C246.773 423.844 246.95 423.676 247.109 423.48L248.187 424.796C247.879 425.197 247.44 425.524 246.871 425.776C246.311 426.019 245.718 426.14 245.093 426.14ZM252.681 426.14C251.971 426.14 251.337 425.972 250.777 425.636C250.217 425.3 249.773 424.843 249.447 424.264C249.129 423.685 248.971 423.027 248.971 422.29C248.971 421.553 249.129 420.895 249.447 420.316C249.773 419.737 250.217 419.28 250.777 418.944C251.337 418.608 251.971 418.44 252.681 418.44C253.343 418.44 253.95 418.561 254.501 418.804C255.051 419.047 255.481 419.383 255.789 419.812L254.697 421.128C254.566 420.951 254.403 420.792 254.207 420.652C254.011 420.503 253.796 420.386 253.563 420.302C253.339 420.218 253.105 420.176 252.863 420.176C252.48 420.176 252.139 420.269 251.841 420.456C251.551 420.633 251.323 420.881 251.155 421.198C250.987 421.515 250.903 421.879 250.903 422.29C250.903 422.682 250.987 423.037 251.155 423.354C251.332 423.671 251.57 423.923 251.869 424.11C252.167 424.297 252.503 424.39 252.877 424.39C253.119 424.39 253.348 424.357 253.563 424.292C253.777 424.227 253.978 424.124 254.165 423.984C254.361 423.844 254.538 423.676 254.697 423.48L255.775 424.796C255.467 425.197 255.028 425.524 254.459 425.776C253.899 426.019 253.306 426.14 252.681 426.14ZM260.493 426.14C259.737 426.14 259.06 425.977 258.463 425.65C257.875 425.314 257.408 424.857 257.063 424.278C256.727 423.699 256.559 423.037 256.559 422.29C256.559 421.543 256.727 420.881 257.063 420.302C257.408 419.723 257.875 419.271 258.463 418.944C259.06 418.608 259.737 418.44 260.493 418.44C261.239 418.44 261.907 418.608 262.495 418.944C263.092 419.271 263.559 419.723 263.895 420.302C264.231 420.881 264.399 421.543 264.399 422.29C264.399 423.037 264.231 423.699 263.895 424.278C263.559 424.857 263.092 425.314 262.495 425.65C261.907 425.977 261.239 426.14 260.493 426.14ZM260.493 424.404C260.857 424.404 261.183 424.315 261.473 424.138C261.762 423.951 261.986 423.699 262.145 423.382C262.313 423.055 262.392 422.691 262.383 422.29C262.392 421.879 262.313 421.515 262.145 421.198C261.986 420.871 261.762 420.619 261.473 420.442C261.183 420.255 260.857 420.162 260.493 420.162C260.119 420.162 259.788 420.255 259.499 420.442C259.209 420.629 258.981 420.881 258.813 421.198C258.645 421.515 258.565 421.879 258.575 422.29C258.565 422.691 258.645 423.055 258.813 423.382C258.981 423.699 259.209 423.951 259.499 424.138C259.788 424.315 260.119 424.404 260.493 424.404ZM268.456 426.14C267.915 426.14 267.448 426.023 267.056 425.79C266.673 425.547 266.375 425.207 266.16 424.768C265.955 424.32 265.852 423.783 265.852 423.158V418.594H267.84V422.836C267.84 423.172 267.896 423.466 268.008 423.718C268.12 423.961 268.279 424.147 268.484 424.278C268.689 424.409 268.941 424.474 269.24 424.474C269.455 424.474 269.651 424.441 269.828 424.376C270.015 424.301 270.173 424.199 270.304 424.068C270.444 423.937 270.551 423.783 270.626 423.606C270.701 423.429 270.738 423.237 270.738 423.032V418.594H272.726V426H270.836L270.766 424.474L271.13 424.306C271.018 424.651 270.831 424.964 270.57 425.244C270.309 425.524 269.996 425.743 269.632 425.902C269.268 426.061 268.876 426.14 268.456 426.14ZM274.726 426V418.594H276.63L276.686 420.106L276.294 420.274C276.397 419.938 276.579 419.635 276.84 419.364C277.111 419.084 277.433 418.86 277.806 418.692C278.18 418.524 278.572 418.44 278.982 418.44C279.542 418.44 280.009 418.552 280.382 418.776C280.765 419 281.05 419.341 281.236 419.798C281.432 420.246 281.53 420.801 281.53 421.464V426H279.542V421.618C279.542 421.282 279.496 421.002 279.402 420.778C279.309 420.554 279.164 420.391 278.968 420.288C278.782 420.185 278.548 420.139 278.268 420.148C278.044 420.148 277.834 420.185 277.638 420.26C277.452 420.325 277.288 420.423 277.148 420.554C277.018 420.685 276.91 420.834 276.826 421.002C276.752 421.17 276.714 421.352 276.714 421.548V426H275.734C275.52 426 275.328 426 275.16 426C274.992 426 274.848 426 274.726 426ZM284.149 426V416.718H286.137V426H284.149ZM282.763 420.372V418.594H287.663V420.372H282.763Z" fill="white"/>
<path d="M207 253L212.5 258.5L218 253" stroke="#999999" stroke-linecap="round"/>
<path d="M368 253L373.5 258.5L379 253" stroke="#999999" stroke-linecap="round"/>
</svg>
