<svg width="480" height="540" viewBox="0 0 480 540" fill="none" xmlns="http://www.w3.org/2000/svg">
<g clip-path="url(#clip0_4_1136)">
<path d="M396 76H85C75.6112 76 68 83.6112 68 93V447C68 456.389 75.6112 464 85 464H396C405.389 464 413 456.389 413 447V93C413 83.6112 405.389 76 396 76Z" fill="#F1F5F7"/>
<rect x="93" y="98" width="295" height="329" rx="17" fill="white"/>
<g filter="url(#filter0_d_4_1136)">
<rect x="108" y="189" width="265" height="176" rx="9" fill="white"/>
</g>
<path d="M179.684 127.118C179.08 127.118 178.523 127.016 178.013 126.812C177.511 126.6 177.071 126.306 176.695 125.929C176.326 125.545 176.04 125.093 175.836 124.575C175.632 124.05 175.53 123.477 175.53 122.857C175.53 122.253 175.636 121.696 175.847 121.186C176.059 120.668 176.357 120.221 176.742 119.844C177.126 119.46 177.578 119.161 178.095 118.95C178.613 118.738 179.174 118.632 179.778 118.632C180.171 118.632 180.555 118.687 180.932 118.797C181.316 118.899 181.665 119.052 181.979 119.256C182.301 119.46 182.576 119.703 182.803 119.985L181.697 121.209C181.516 121.021 181.324 120.86 181.12 120.727C180.916 120.586 180.7 120.48 180.473 120.409C180.253 120.331 180.018 120.291 179.767 120.291C179.429 120.291 179.111 120.354 178.813 120.48C178.523 120.605 178.268 120.782 178.048 121.009C177.829 121.229 177.652 121.5 177.519 121.821C177.393 122.135 177.33 122.484 177.33 122.869C177.33 123.261 177.393 123.618 177.519 123.94C177.644 124.254 177.821 124.524 178.048 124.752C178.276 124.972 178.547 125.144 178.86 125.27C179.182 125.388 179.535 125.446 179.92 125.446C180.171 125.446 180.414 125.411 180.649 125.34C180.885 125.27 181.101 125.172 181.297 125.046C181.501 124.921 181.681 124.776 181.838 124.611L182.709 125.988C182.513 126.2 182.254 126.392 181.932 126.565C181.618 126.737 181.265 126.874 180.873 126.976C180.481 127.071 180.084 127.118 179.684 127.118ZM183.95 127V118.291H185.598V122.045L185.268 122.186C185.355 121.904 185.508 121.649 185.727 121.421C185.955 121.186 186.226 120.998 186.539 120.856C186.853 120.715 187.183 120.644 187.528 120.644C187.999 120.644 188.391 120.739 188.705 120.927C189.027 121.115 189.266 121.402 189.423 121.786C189.588 122.163 189.67 122.63 189.67 123.187V127H187.999V123.316C187.999 123.034 187.96 122.798 187.881 122.61C187.803 122.422 187.681 122.284 187.516 122.198C187.359 122.112 187.163 122.072 186.928 122.08C186.74 122.08 186.563 122.112 186.398 122.174C186.241 122.229 186.104 122.312 185.986 122.422C185.876 122.532 185.786 122.657 185.716 122.798C185.653 122.94 185.621 123.093 185.621 123.257V127H184.798C184.617 127 184.456 127 184.315 127C184.174 127 184.052 127 183.95 127ZM194.167 127.118C193.531 127.118 192.963 126.98 192.46 126.706C191.966 126.423 191.574 126.039 191.283 125.552C191.001 125.066 190.86 124.509 190.86 123.881C190.86 123.253 191.001 122.696 191.283 122.21C191.574 121.723 191.966 121.343 192.46 121.068C192.963 120.786 193.531 120.644 194.167 120.644C194.795 120.644 195.356 120.786 195.85 121.068C196.352 121.343 196.744 121.723 197.027 122.21C197.309 122.696 197.451 123.253 197.451 123.881C197.451 124.509 197.309 125.066 197.027 125.552C196.744 126.039 196.352 126.423 195.85 126.706C195.356 126.98 194.795 127.118 194.167 127.118ZM194.167 125.658C194.473 125.658 194.748 125.584 194.991 125.435C195.234 125.278 195.422 125.066 195.556 124.799C195.697 124.524 195.764 124.218 195.756 123.881C195.764 123.536 195.697 123.23 195.556 122.963C195.422 122.688 195.234 122.477 194.991 122.327C194.748 122.171 194.473 122.092 194.167 122.092C193.853 122.092 193.575 122.171 193.331 122.327C193.088 122.484 192.896 122.696 192.755 122.963C192.613 123.23 192.547 123.536 192.555 123.881C192.547 124.218 192.613 124.524 192.755 124.799C192.896 125.066 193.088 125.278 193.331 125.435C193.575 125.584 193.853 125.658 194.167 125.658ZM201.615 127.118C200.979 127.118 200.41 126.98 199.908 126.706C199.414 126.423 199.022 126.039 198.731 125.552C198.449 125.066 198.308 124.509 198.308 123.881C198.308 123.253 198.449 122.696 198.731 122.21C199.022 121.723 199.414 121.343 199.908 121.068C200.41 120.786 200.979 120.644 201.615 120.644C202.243 120.644 202.804 120.786 203.298 121.068C203.8 121.343 204.192 121.723 204.475 122.21C204.757 122.696 204.899 123.253 204.899 123.881C204.899 124.509 204.757 125.066 204.475 125.552C204.192 126.039 203.8 126.423 203.298 126.706C202.804 126.98 202.243 127.118 201.615 127.118ZM201.615 125.658C201.921 125.658 202.195 125.584 202.439 125.435C202.682 125.278 202.87 125.066 203.004 124.799C203.145 124.524 203.212 124.218 203.204 123.881C203.212 123.536 203.145 123.23 203.004 122.963C202.87 122.688 202.682 122.477 202.439 122.327C202.195 122.171 201.921 122.092 201.615 122.092C201.301 122.092 201.022 122.171 200.779 122.327C200.536 122.484 200.344 122.696 200.203 122.963C200.061 123.23 199.995 123.536 200.002 123.881C199.995 124.218 200.061 124.524 200.203 124.799C200.344 125.066 200.536 125.278 200.779 125.435C201.022 125.584 201.301 125.658 201.615 125.658ZM208.262 127.118C207.682 127.118 207.164 127.024 206.709 126.835C206.262 126.639 205.901 126.372 205.626 126.035L206.674 125.14C206.909 125.399 207.176 125.588 207.474 125.705C207.772 125.815 208.07 125.87 208.368 125.87C208.486 125.87 208.592 125.858 208.686 125.835C208.788 125.803 208.874 125.764 208.945 125.717C209.016 125.662 209.067 125.599 209.098 125.529C209.137 125.45 209.157 125.368 209.157 125.282C209.157 125.109 209.086 124.976 208.945 124.881C208.867 124.834 208.745 124.783 208.58 124.728C208.415 124.666 208.204 124.599 207.945 124.528C207.545 124.426 207.203 124.309 206.921 124.175C206.646 124.034 206.426 123.877 206.262 123.705C206.12 123.54 206.011 123.363 205.932 123.175C205.861 122.979 205.826 122.763 205.826 122.528C205.826 122.245 205.889 121.99 206.014 121.763C206.14 121.527 206.313 121.327 206.532 121.162C206.76 120.998 207.019 120.872 207.309 120.786C207.599 120.692 207.905 120.644 208.227 120.644C208.549 120.644 208.863 120.684 209.169 120.762C209.475 120.841 209.757 120.954 210.016 121.103C210.283 121.245 210.514 121.413 210.711 121.61L209.816 122.598C209.675 122.465 209.514 122.343 209.333 122.233C209.161 122.123 208.98 122.037 208.792 121.974C208.604 121.912 208.435 121.88 208.286 121.88C208.153 121.88 208.031 121.892 207.921 121.916C207.819 121.939 207.733 121.978 207.662 122.033C207.592 122.08 207.537 122.139 207.497 122.21C207.466 122.28 207.45 122.359 207.45 122.445C207.45 122.532 207.47 122.614 207.509 122.692C207.556 122.771 207.619 122.838 207.698 122.892C207.784 122.94 207.909 122.994 208.074 123.057C208.247 123.12 208.478 123.191 208.769 123.269C209.145 123.371 209.463 123.485 209.722 123.61C209.989 123.736 210.2 123.881 210.357 124.046C210.491 124.187 210.589 124.348 210.652 124.528C210.714 124.709 210.746 124.909 210.746 125.129C210.746 125.513 210.636 125.854 210.416 126.153C210.204 126.451 209.91 126.686 209.534 126.859C209.157 127.031 208.733 127.118 208.262 127.118ZM214.891 127.118C214.217 127.118 213.624 126.98 213.114 126.706C212.612 126.431 212.22 126.055 211.937 125.576C211.663 125.097 211.525 124.548 211.525 123.928C211.525 123.442 211.604 122.998 211.761 122.598C211.918 122.198 212.137 121.853 212.42 121.562C212.702 121.264 213.036 121.037 213.42 120.88C213.813 120.715 214.236 120.633 214.691 120.633C215.115 120.633 215.507 120.711 215.868 120.868C216.229 121.025 216.539 121.245 216.798 121.527C217.065 121.802 217.269 122.131 217.41 122.516C217.551 122.892 217.614 123.3 217.598 123.74L217.587 124.258H212.585L212.314 123.234H216.21L216.021 123.446V123.187C216.006 122.975 215.935 122.787 215.809 122.622C215.692 122.449 215.539 122.316 215.35 122.222C215.162 122.12 214.95 122.069 214.715 122.069C214.37 122.069 214.075 122.135 213.832 122.269C213.597 122.402 213.416 122.598 213.291 122.857C213.165 123.116 213.102 123.43 213.102 123.799C213.102 124.175 213.181 124.501 213.338 124.776C213.503 125.05 213.73 125.266 214.021 125.423C214.319 125.572 214.668 125.647 215.068 125.647C215.343 125.647 215.594 125.603 215.821 125.517C216.049 125.431 216.292 125.282 216.551 125.07L217.351 126.188C217.124 126.392 216.873 126.565 216.598 126.706C216.323 126.839 216.041 126.941 215.751 127.012C215.46 127.082 215.174 127.118 214.891 127.118ZM224.396 127V120.35H221.995V118.761H228.633V120.35H226.162V127H224.396ZM231.638 127.118C230.963 127.118 230.371 126.98 229.861 126.706C229.358 126.431 228.966 126.055 228.684 125.576C228.409 125.097 228.272 124.548 228.272 123.928C228.272 123.442 228.35 122.998 228.507 122.598C228.664 122.198 228.884 121.853 229.166 121.562C229.449 121.264 229.782 121.037 230.167 120.88C230.559 120.715 230.983 120.633 231.438 120.633C231.861 120.633 232.254 120.711 232.615 120.868C232.976 121.025 233.285 121.245 233.544 121.527C233.811 121.802 234.015 122.131 234.156 122.516C234.298 122.892 234.36 123.3 234.345 123.74L234.333 124.258H229.331L229.06 123.234H232.956L232.768 123.446V123.187C232.752 122.975 232.681 122.787 232.556 122.622C232.438 122.449 232.285 122.316 232.097 122.222C231.908 122.12 231.697 122.069 231.461 122.069C231.116 122.069 230.822 122.135 230.578 122.269C230.343 122.402 230.163 122.598 230.037 122.857C229.912 123.116 229.849 123.43 229.849 123.799C229.849 124.175 229.927 124.501 230.084 124.776C230.249 125.05 230.476 125.266 230.767 125.423C231.065 125.572 231.414 125.647 231.814 125.647C232.089 125.647 232.34 125.603 232.568 125.517C232.795 125.431 233.038 125.282 233.297 125.07L234.098 126.188C233.87 126.392 233.619 126.565 233.344 126.706C233.07 126.839 232.787 126.941 232.497 127.012C232.207 127.082 231.92 127.118 231.638 127.118ZM235.568 127V120.774H237.18L237.216 121.963L236.969 122.01C237.055 121.806 237.169 121.621 237.31 121.457C237.459 121.292 237.628 121.151 237.816 121.033C238.004 120.915 238.204 120.825 238.416 120.762C238.628 120.692 238.84 120.656 239.052 120.656C239.374 120.656 239.664 120.707 239.923 120.809C240.182 120.911 240.401 121.072 240.582 121.292C240.762 121.504 240.904 121.786 241.006 122.139L240.747 122.116L240.829 121.927C240.931 121.739 241.06 121.566 241.217 121.409C241.374 121.253 241.551 121.119 241.747 121.009C241.943 120.899 242.147 120.813 242.359 120.75C242.571 120.688 242.779 120.656 242.983 120.656C243.469 120.656 243.873 120.754 244.195 120.95C244.517 121.139 244.756 121.425 244.913 121.81C245.078 122.194 245.16 122.665 245.16 123.222V127H243.489V123.34C243.489 123.057 243.45 122.826 243.371 122.645C243.293 122.465 243.179 122.331 243.03 122.245C242.881 122.151 242.689 122.104 242.453 122.104C242.273 122.104 242.104 122.135 241.947 122.198C241.798 122.253 241.665 122.335 241.547 122.445C241.437 122.547 241.351 122.673 241.288 122.822C241.225 122.963 241.194 123.116 241.194 123.281V127H239.511V123.328C239.511 123.069 239.472 122.849 239.393 122.669C239.315 122.48 239.201 122.339 239.052 122.245C238.903 122.151 238.718 122.104 238.499 122.104C238.318 122.104 238.149 122.135 237.993 122.198C237.843 122.253 237.714 122.335 237.604 122.445C237.494 122.547 237.408 122.669 237.345 122.81C237.282 122.951 237.251 123.104 237.251 123.269V127H235.568ZM246.752 129.589V120.774H248.364L248.411 122.174L248.105 122.069C248.16 121.817 248.293 121.586 248.505 121.374C248.725 121.162 248.996 120.99 249.317 120.856C249.639 120.723 249.977 120.656 250.33 120.656C250.871 120.656 251.354 120.797 251.777 121.08C252.201 121.355 252.534 121.735 252.778 122.222C253.021 122.7 253.143 123.253 253.143 123.881C253.143 124.501 253.021 125.054 252.778 125.541C252.534 126.027 252.201 126.412 251.777 126.694C251.354 126.969 250.871 127.106 250.33 127.106C249.969 127.106 249.623 127.039 249.294 126.906C248.972 126.765 248.698 126.58 248.47 126.353C248.25 126.125 248.109 125.882 248.046 125.623L248.435 125.458V129.589H246.752ZM249.953 125.67C250.259 125.67 250.53 125.596 250.765 125.446C251 125.297 251.185 125.089 251.318 124.823C251.452 124.548 251.518 124.234 251.518 123.881C251.518 123.528 251.452 123.218 251.318 122.951C251.185 122.685 251 122.477 250.765 122.327C250.538 122.178 250.267 122.104 249.953 122.104C249.639 122.104 249.364 122.178 249.129 122.327C248.894 122.469 248.709 122.677 248.576 122.951C248.443 123.218 248.376 123.528 248.376 123.881C248.376 124.234 248.443 124.548 248.576 124.823C248.709 125.089 248.894 125.297 249.129 125.446C249.364 125.596 249.639 125.67 249.953 125.67ZM254.418 127V118.291H256.089V127H254.418ZM260.001 127.118C259.483 127.118 259.016 126.976 258.6 126.694C258.185 126.412 257.855 126.027 257.612 125.541C257.369 125.054 257.247 124.497 257.247 123.869C257.247 123.242 257.369 122.685 257.612 122.198C257.863 121.712 258.2 121.331 258.624 121.056C259.048 120.782 259.53 120.644 260.072 120.644C260.378 120.644 260.656 120.692 260.907 120.786C261.166 120.872 261.39 120.994 261.578 121.151C261.774 121.307 261.939 121.488 262.072 121.692C262.206 121.896 262.3 122.116 262.355 122.351L262.002 122.292V120.774H263.661V127H261.978V125.505L262.355 125.47C262.292 125.69 262.19 125.898 262.049 126.094C261.908 126.29 261.731 126.466 261.519 126.623C261.315 126.772 261.084 126.894 260.825 126.988C260.566 127.075 260.291 127.118 260.001 127.118ZM260.46 125.67C260.774 125.67 261.049 125.596 261.284 125.446C261.519 125.297 261.7 125.089 261.825 124.823C261.959 124.548 262.025 124.23 262.025 123.869C262.025 123.516 261.959 123.206 261.825 122.94C261.7 122.673 261.519 122.465 261.284 122.316C261.049 122.159 260.774 122.08 260.46 122.08C260.154 122.08 259.883 122.159 259.648 122.316C259.42 122.465 259.24 122.673 259.107 122.94C258.973 123.206 258.906 123.516 258.906 123.869C258.906 124.23 258.973 124.548 259.107 124.823C259.24 125.089 259.42 125.297 259.648 125.446C259.883 125.596 260.154 125.67 260.46 125.67ZM265.937 127V119.197H267.608V127H265.937ZM264.772 122.269V120.774H268.891V122.269H264.772ZM272.866 127.118C272.191 127.118 271.598 126.98 271.088 126.706C270.586 126.431 270.194 126.055 269.911 125.576C269.637 125.097 269.499 124.548 269.499 123.928C269.499 123.442 269.578 122.998 269.735 122.598C269.892 122.198 270.112 121.853 270.394 121.562C270.676 121.264 271.01 121.037 271.394 120.88C271.787 120.715 272.21 120.633 272.665 120.633C273.089 120.633 273.482 120.711 273.842 120.868C274.203 121.025 274.513 121.245 274.772 121.527C275.039 121.802 275.243 122.131 275.384 122.516C275.525 122.892 275.588 123.3 275.573 123.74L275.561 124.258H270.559L270.288 123.234H274.184L273.995 123.446V123.187C273.98 122.975 273.909 122.787 273.784 122.622C273.666 122.449 273.513 122.316 273.325 122.222C273.136 122.12 272.924 122.069 272.689 122.069C272.344 122.069 272.05 122.135 271.806 122.269C271.571 122.402 271.39 122.598 271.265 122.857C271.139 123.116 271.077 123.43 271.077 123.799C271.077 124.175 271.155 124.501 271.312 124.776C271.477 125.05 271.704 125.266 271.995 125.423C272.293 125.572 272.642 125.647 273.042 125.647C273.317 125.647 273.568 125.603 273.795 125.517C274.023 125.431 274.266 125.282 274.525 125.07L275.325 126.188C275.098 126.392 274.847 126.565 274.572 126.706C274.298 126.839 274.015 126.941 273.725 127.012C273.434 127.082 273.148 127.118 272.866 127.118ZM282.37 127V120.35H279.969V118.761H286.607V120.35H284.136V127H282.37ZM288.115 129.707L289.48 126.506L289.504 127.471L286.467 120.774H288.362L289.88 124.364C289.943 124.497 290.002 124.654 290.057 124.834C290.12 125.007 290.171 125.172 290.21 125.329L289.927 125.458C289.982 125.325 290.037 125.172 290.092 124.999C290.155 124.827 290.218 124.642 290.28 124.446L291.587 120.774H293.494L290.881 127L289.81 129.707H288.115ZM294.393 129.589V120.774H296.005L296.052 122.174L295.746 122.069C295.801 121.817 295.935 121.586 296.147 121.374C296.366 121.162 296.637 120.99 296.959 120.856C297.28 120.723 297.618 120.656 297.971 120.656C298.512 120.656 298.995 120.797 299.419 121.08C299.842 121.355 300.176 121.735 300.419 122.222C300.662 122.7 300.784 123.253 300.784 123.881C300.784 124.501 300.662 125.054 300.419 125.541C300.176 126.027 299.842 126.412 299.419 126.694C298.995 126.969 298.512 127.106 297.971 127.106C297.61 127.106 297.265 127.039 296.935 126.906C296.613 126.765 296.339 126.58 296.111 126.353C295.892 126.125 295.75 125.882 295.688 125.623L296.076 125.458V129.589H294.393ZM297.594 125.67C297.9 125.67 298.171 125.596 298.406 125.446C298.642 125.297 298.826 125.089 298.96 124.823C299.093 124.548 299.16 124.234 299.16 123.881C299.16 123.528 299.093 123.218 298.96 122.951C298.826 122.685 298.642 122.477 298.406 122.327C298.179 122.178 297.908 122.104 297.594 122.104C297.28 122.104 297.006 122.178 296.77 122.327C296.535 122.469 296.351 122.677 296.217 122.951C296.084 123.218 296.017 123.528 296.017 123.881C296.017 124.234 296.084 124.548 296.217 124.823C296.351 125.089 296.535 125.297 296.77 125.446C297.006 125.596 297.28 125.67 297.594 125.67ZM305.002 127.118C304.327 127.118 303.735 126.98 303.225 126.706C302.723 126.431 302.33 126.055 302.048 125.576C301.773 125.097 301.636 124.548 301.636 123.928C301.636 123.442 301.714 122.998 301.871 122.598C302.028 122.198 302.248 121.853 302.53 121.562C302.813 121.264 303.146 121.037 303.531 120.88C303.923 120.715 304.347 120.633 304.802 120.633C305.226 120.633 305.618 120.711 305.979 120.868C306.34 121.025 306.65 121.245 306.909 121.527C307.175 121.802 307.379 122.131 307.521 122.516C307.662 122.892 307.725 123.3 307.709 123.74L307.697 124.258H302.695L302.424 123.234H306.32L306.132 123.446V123.187C306.116 122.975 306.045 122.787 305.92 122.622C305.802 122.449 305.649 122.316 305.461 122.222C305.273 122.12 305.061 122.069 304.825 122.069C304.48 122.069 304.186 122.135 303.943 122.269C303.707 122.402 303.527 122.598 303.401 122.857C303.276 123.116 303.213 123.43 303.213 123.799C303.213 124.175 303.291 124.501 303.448 124.776C303.613 125.05 303.841 125.266 304.131 125.423C304.429 125.572 304.778 125.647 305.178 125.647C305.453 125.647 305.704 125.603 305.932 125.517C306.159 125.431 306.402 125.282 306.661 125.07L307.462 126.188C307.234 126.392 306.983 126.565 306.708 126.706C306.434 126.839 306.151 126.941 305.861 127.012C305.571 127.082 305.284 127.118 305.002 127.118Z" fill="black"/>
<path d="M125.079 163V157.636H123.315V156.7H127.869V157.636H126.051V163H125.079ZM130.142 163.09C129.656 163.09 129.224 162.988 128.846 162.784C128.474 162.574 128.18 162.289 127.964 161.929C127.754 161.569 127.649 161.155 127.649 160.687C127.649 160.315 127.709 159.976 127.829 159.67C127.949 159.364 128.114 159.1 128.324 158.878C128.54 158.65 128.795 158.476 129.089 158.356C129.389 158.23 129.713 158.167 130.061 158.167C130.367 158.167 130.652 158.227 130.916 158.347C131.18 158.461 131.408 158.62 131.6 158.824C131.798 159.028 131.948 159.271 132.05 159.553C132.158 159.829 132.209 160.132 132.203 160.462L132.194 160.858H128.333L128.126 160.12H131.393L131.258 160.273V160.057C131.24 159.859 131.174 159.682 131.06 159.526C130.946 159.37 130.802 159.247 130.628 159.157C130.454 159.067 130.265 159.022 130.061 159.022C129.737 159.022 129.464 159.085 129.242 159.211C129.02 159.331 128.852 159.511 128.738 159.751C128.624 159.985 128.567 160.276 128.567 160.624C128.567 160.954 128.636 161.242 128.774 161.488C128.912 161.728 129.107 161.914 129.359 162.046C129.611 162.178 129.902 162.244 130.232 162.244C130.466 162.244 130.682 162.205 130.88 162.127C131.084 162.049 131.303 161.908 131.537 161.704L132.005 162.361C131.861 162.505 131.684 162.631 131.474 162.739C131.27 162.847 131.051 162.934 130.817 163C130.589 163.06 130.364 163.09 130.142 163.09ZM133.193 163V158.275H134.129V159.283L133.958 159.391C134.006 159.235 134.081 159.085 134.183 158.941C134.291 158.797 134.42 158.671 134.57 158.563C134.726 158.449 134.891 158.359 135.065 158.293C135.245 158.227 135.428 158.194 135.614 158.194C135.884 158.194 136.121 158.239 136.325 158.329C136.529 158.419 136.697 158.554 136.829 158.734C136.961 158.914 137.057 159.139 137.117 159.409L136.973 159.373L137.036 159.22C137.102 159.082 137.192 158.953 137.306 158.833C137.426 158.707 137.561 158.596 137.711 158.5C137.861 158.404 138.02 158.329 138.188 158.275C138.356 158.221 138.521 158.194 138.683 158.194C139.037 158.194 139.328 158.266 139.556 158.41C139.79 158.554 139.964 158.773 140.078 159.067C140.198 159.361 140.258 159.727 140.258 160.165V163H139.322V160.219C139.322 159.949 139.286 159.73 139.214 159.562C139.148 159.388 139.046 159.259 138.908 159.175C138.77 159.091 138.593 159.049 138.377 159.049C138.209 159.049 138.05 159.079 137.9 159.139C137.756 159.193 137.63 159.271 137.521 159.373C137.414 159.475 137.33 159.595 137.27 159.733C137.21 159.865 137.18 160.012 137.18 160.174V163H136.244V160.201C136.244 159.955 136.208 159.748 136.136 159.58C136.064 159.406 135.959 159.274 135.821 159.184C135.683 159.094 135.515 159.049 135.317 159.049C135.149 159.049 134.993 159.079 134.849 159.139C134.705 159.193 134.579 159.271 134.471 159.373C134.363 159.469 134.279 159.586 134.219 159.724C134.159 159.856 134.129 160 134.129 160.156V163H133.193ZM141.499 164.98V158.275H142.435V159.355L142.291 159.274C142.327 159.094 142.429 158.923 142.597 158.761C142.765 158.593 142.969 158.458 143.209 158.356C143.455 158.248 143.707 158.194 143.965 158.194C144.391 158.194 144.769 158.299 145.099 158.509C145.429 158.719 145.69 159.007 145.882 159.373C146.074 159.739 146.17 160.159 146.17 160.633C146.17 161.101 146.074 161.521 145.882 161.893C145.696 162.259 145.438 162.55 145.108 162.766C144.778 162.976 144.406 163.081 143.992 163.081C143.716 163.081 143.449 163.027 143.191 162.919C142.933 162.805 142.714 162.661 142.534 162.487C142.354 162.313 142.243 162.133 142.201 161.947L142.435 161.821V164.98H141.499ZM143.839 162.226C144.115 162.226 144.361 162.157 144.577 162.019C144.793 161.881 144.964 161.692 145.09 161.452C145.216 161.212 145.279 160.939 145.279 160.633C145.279 160.327 145.216 160.057 145.09 159.823C144.97 159.583 144.802 159.394 144.586 159.256C144.37 159.118 144.121 159.049 143.839 159.049C143.557 159.049 143.308 159.118 143.092 159.256C142.876 159.388 142.705 159.574 142.579 159.814C142.453 160.054 142.39 160.327 142.39 160.633C142.39 160.939 142.453 161.212 142.579 161.452C142.705 161.692 142.876 161.881 143.092 162.019C143.308 162.157 143.557 162.226 143.839 162.226ZM147.194 163V156.34H148.121V163H147.194ZM151.165 163.09C150.775 163.09 150.418 162.982 150.094 162.766C149.776 162.55 149.521 162.256 149.329 161.884C149.137 161.512 149.041 161.092 149.041 160.624C149.041 160.15 149.137 159.73 149.329 159.364C149.527 158.992 149.791 158.701 150.121 158.491C150.457 158.281 150.832 158.176 151.246 158.176C151.492 158.176 151.717 158.212 151.921 158.284C152.125 158.356 152.302 158.458 152.452 158.59C152.608 158.716 152.734 158.863 152.83 159.031C152.932 159.199 152.995 159.379 153.019 159.571L152.812 159.499V158.275H153.748V163H152.812V161.875L153.028 161.812C152.992 161.974 152.917 162.133 152.803 162.289C152.695 162.439 152.554 162.574 152.38 162.694C152.212 162.814 152.023 162.91 151.813 162.982C151.609 163.054 151.393 163.09 151.165 163.09ZM151.408 162.235C151.69 162.235 151.939 162.166 152.155 162.028C152.371 161.89 152.539 161.701 152.659 161.461C152.785 161.215 152.848 160.936 152.848 160.624C152.848 160.318 152.785 160.045 152.659 159.805C152.539 159.565 152.371 159.376 152.155 159.238C151.939 159.1 151.69 159.031 151.408 159.031C151.132 159.031 150.886 159.1 150.67 159.238C150.46 159.376 150.292 159.565 150.166 159.805C150.046 160.045 149.986 160.318 149.986 160.624C149.986 160.936 150.046 161.215 150.166 161.461C150.292 161.701 150.46 161.89 150.67 162.028C150.886 162.166 151.132 162.235 151.408 162.235ZM155.628 163V157.069H156.555V163H155.628ZM154.647 159.175V158.275H157.653V159.175H154.647ZM160.658 163.09C160.172 163.09 159.74 162.988 159.362 162.784C158.99 162.574 158.696 162.289 158.48 161.929C158.27 161.569 158.165 161.155 158.165 160.687C158.165 160.315 158.225 159.976 158.345 159.67C158.465 159.364 158.63 159.1 158.84 158.878C159.056 158.65 159.311 158.476 159.605 158.356C159.905 158.23 160.229 158.167 160.577 158.167C160.883 158.167 161.168 158.227 161.432 158.347C161.696 158.461 161.924 158.62 162.116 158.824C162.314 159.028 162.464 159.271 162.566 159.553C162.674 159.829 162.725 160.132 162.719 160.462L162.71 160.858H158.849L158.642 160.12H161.909L161.774 160.273V160.057C161.756 159.859 161.69 159.682 161.576 159.526C161.462 159.37 161.318 159.247 161.144 159.157C160.97 159.067 160.781 159.022 160.577 159.022C160.253 159.022 159.98 159.085 159.758 159.211C159.536 159.331 159.368 159.511 159.254 159.751C159.14 159.985 159.083 160.276 159.083 160.624C159.083 160.954 159.152 161.242 159.29 161.488C159.428 161.728 159.623 161.914 159.875 162.046C160.127 162.178 160.418 162.244 160.748 162.244C160.982 162.244 161.198 162.205 161.396 162.127C161.6 162.049 161.819 161.908 162.053 161.704L162.521 162.361C162.377 162.505 162.2 162.631 161.99 162.739C161.786 162.847 161.567 162.934 161.333 163C161.105 163.06 160.88 163.09 160.658 163.09ZM166.249 163V158.275H167.176V159.247L167.014 159.355C167.074 159.145 167.191 158.953 167.365 158.779C167.539 158.599 167.746 158.455 167.986 158.347C168.226 158.233 168.472 158.176 168.724 158.176C169.084 158.176 169.384 158.248 169.624 158.392C169.864 158.53 170.044 158.743 170.164 159.031C170.284 159.319 170.344 159.682 170.344 160.12V163H169.417V160.183C169.417 159.913 169.381 159.691 169.309 159.517C169.237 159.337 169.126 159.208 168.976 159.13C168.826 159.046 168.64 159.01 168.418 159.022C168.238 159.022 168.073 159.052 167.923 159.112C167.773 159.166 167.641 159.244 167.527 159.346C167.419 159.448 167.332 159.568 167.266 159.706C167.206 159.838 167.176 159.982 167.176 160.138V163H166.717C166.639 163 166.561 163 166.483 163C166.405 163 166.327 163 166.249 163ZM173.419 163.09C173.029 163.09 172.672 162.982 172.348 162.766C172.03 162.55 171.775 162.256 171.583 161.884C171.391 161.512 171.295 161.092 171.295 160.624C171.295 160.15 171.391 159.73 171.583 159.364C171.781 158.992 172.045 158.701 172.375 158.491C172.711 158.281 173.086 158.176 173.5 158.176C173.746 158.176 173.971 158.212 174.175 158.284C174.379 158.356 174.556 158.458 174.706 158.59C174.862 158.716 174.988 158.863 175.084 159.031C175.186 159.199 175.249 159.379 175.273 159.571L175.066 159.499V158.275H176.002V163H175.066V161.875L175.282 161.812C175.246 161.974 175.171 162.133 175.057 162.289C174.949 162.439 174.808 162.574 174.634 162.694C174.466 162.814 174.277 162.91 174.067 162.982C173.863 163.054 173.647 163.09 173.419 163.09ZM173.662 162.235C173.944 162.235 174.193 162.166 174.409 162.028C174.625 161.89 174.793 161.701 174.913 161.461C175.039 161.215 175.102 160.936 175.102 160.624C175.102 160.318 175.039 160.045 174.913 159.805C174.793 159.565 174.625 159.376 174.409 159.238C174.193 159.1 173.944 159.031 173.662 159.031C173.386 159.031 173.14 159.1 172.924 159.238C172.714 159.376 172.546 159.565 172.42 159.805C172.3 160.045 172.24 160.318 172.24 160.624C172.24 160.936 172.3 161.215 172.42 161.461C172.546 161.701 172.714 161.89 172.924 162.028C173.14 162.166 173.386 162.235 173.662 162.235ZM177.278 163V158.275H178.214V159.283L178.043 159.391C178.091 159.235 178.166 159.085 178.268 158.941C178.376 158.797 178.505 158.671 178.655 158.563C178.811 158.449 178.976 158.359 179.15 158.293C179.33 158.227 179.513 158.194 179.699 158.194C179.969 158.194 180.206 158.239 180.41 158.329C180.614 158.419 180.782 158.554 180.914 158.734C181.046 158.914 181.142 159.139 181.202 159.409L181.058 159.373L181.121 159.22C181.187 159.082 181.277 158.953 181.391 158.833C181.511 158.707 181.646 158.596 181.796 158.5C181.946 158.404 182.105 158.329 182.273 158.275C182.441 158.221 182.606 158.194 182.768 158.194C183.122 158.194 183.413 158.266 183.641 158.41C183.875 158.554 184.049 158.773 184.163 159.067C184.283 159.361 184.343 159.727 184.343 160.165V163H183.407V160.219C183.407 159.949 183.371 159.73 183.299 159.562C183.233 159.388 183.131 159.259 182.993 159.175C182.855 159.091 182.678 159.049 182.462 159.049C182.294 159.049 182.135 159.079 181.985 159.139C181.841 159.193 181.715 159.271 181.607 159.373C181.499 159.475 181.415 159.595 181.355 159.733C181.295 159.865 181.265 160.012 181.265 160.174V163H180.329V160.201C180.329 159.955 180.293 159.748 180.221 159.58C180.149 159.406 180.044 159.274 179.906 159.184C179.768 159.094 179.6 159.049 179.402 159.049C179.234 159.049 179.078 159.079 178.934 159.139C178.79 159.193 178.664 159.271 178.556 159.373C178.448 159.469 178.364 159.586 178.304 159.724C178.244 159.856 178.214 160 178.214 160.156V163H177.278ZM187.79 163.09C187.304 163.09 186.872 162.988 186.494 162.784C186.122 162.574 185.828 162.289 185.612 161.929C185.402 161.569 185.297 161.155 185.297 160.687C185.297 160.315 185.357 159.976 185.477 159.67C185.597 159.364 185.762 159.1 185.972 158.878C186.188 158.65 186.443 158.476 186.737 158.356C187.037 158.23 187.361 158.167 187.709 158.167C188.015 158.167 188.3 158.227 188.564 158.347C188.828 158.461 189.056 158.62 189.248 158.824C189.446 159.028 189.596 159.271 189.698 159.553C189.806 159.829 189.857 160.132 189.851 160.462L189.842 160.858H185.981L185.774 160.12H189.041L188.906 160.273V160.057C188.888 159.859 188.822 159.682 188.708 159.526C188.594 159.37 188.45 159.247 188.276 159.157C188.102 159.067 187.913 159.022 187.709 159.022C187.385 159.022 187.112 159.085 186.89 159.211C186.668 159.331 186.5 159.511 186.386 159.751C186.272 159.985 186.215 160.276 186.215 160.624C186.215 160.954 186.284 161.242 186.422 161.488C186.56 161.728 186.755 161.914 187.007 162.046C187.259 162.178 187.55 162.244 187.88 162.244C188.114 162.244 188.33 162.205 188.528 162.127C188.732 162.049 188.951 161.908 189.185 161.704L189.653 162.361C189.509 162.505 189.332 162.631 189.122 162.739C188.918 162.847 188.699 162.934 188.465 163C188.237 163.06 188.012 163.09 187.79 163.09Z" fill="black"/>
<path d="M122.74 210.119C122.287 210.119 121.867 210.06 121.477 209.94C121.096 209.821 120.747 209.643 120.429 209.404C120.12 209.158 119.842 208.857 119.596 208.499L120.477 207.487C120.866 208.043 121.239 208.428 121.597 208.642C121.954 208.857 122.379 208.964 122.871 208.964C123.173 208.964 123.447 208.916 123.693 208.821C123.939 208.726 124.134 208.595 124.276 208.428C124.419 208.261 124.491 208.07 124.491 207.856C124.491 207.713 124.467 207.578 124.419 207.451C124.372 207.324 124.296 207.209 124.193 207.106C124.098 207.002 123.971 206.907 123.812 206.82C123.661 206.732 123.482 206.657 123.276 206.594C123.069 206.522 122.831 206.463 122.561 206.415C122.133 206.328 121.759 206.212 121.442 206.069C121.124 205.927 120.858 205.748 120.644 205.533C120.429 205.319 120.27 205.077 120.167 204.807C120.064 204.529 120.012 204.219 120.012 203.878C120.012 203.544 120.084 203.235 120.227 202.949C120.378 202.663 120.58 202.417 120.834 202.21C121.096 201.996 121.402 201.833 121.751 201.722C122.101 201.603 122.478 201.543 122.883 201.543C123.312 201.543 123.705 201.599 124.062 201.71C124.419 201.821 124.737 201.988 125.015 202.21C125.293 202.425 125.523 202.691 125.706 203.008L124.801 203.902C124.642 203.64 124.463 203.421 124.265 203.247C124.066 203.064 123.848 202.929 123.609 202.842C123.371 202.746 123.117 202.699 122.847 202.699C122.537 202.699 122.268 202.746 122.037 202.842C121.807 202.937 121.624 203.072 121.489 203.247C121.362 203.413 121.299 203.612 121.299 203.842C121.299 204.009 121.331 204.164 121.394 204.307C121.458 204.442 121.553 204.565 121.68 204.676C121.815 204.779 121.994 204.874 122.216 204.962C122.438 205.041 122.704 205.113 123.014 205.176C123.451 205.271 123.84 205.395 124.181 205.545C124.523 205.688 124.812 205.859 125.051 206.058C125.289 206.256 125.468 206.478 125.587 206.725C125.714 206.971 125.777 207.237 125.777 207.523C125.777 208.055 125.654 208.515 125.408 208.904C125.162 209.293 124.812 209.595 124.36 209.809C123.907 210.016 123.367 210.119 122.74 210.119ZM127.6 210V201.662H130.994C131.447 201.662 131.856 201.778 132.221 202.008C132.594 202.23 132.892 202.536 133.114 202.925C133.337 203.314 133.448 203.747 133.448 204.223C133.448 204.7 133.337 205.132 133.114 205.522C132.892 205.911 132.594 206.224 132.221 206.463C131.856 206.693 131.447 206.808 130.994 206.808H128.886V210H127.6ZM128.886 205.569H130.971C131.185 205.569 131.379 205.51 131.554 205.391C131.729 205.264 131.868 205.101 131.971 204.902C132.082 204.696 132.138 204.469 132.138 204.223C132.138 203.977 132.082 203.755 131.971 203.556C131.868 203.358 131.729 203.199 131.554 203.08C131.379 202.961 131.185 202.901 130.971 202.901H128.886V205.569ZM133.5 210L136.728 201.662H138.038L141.242 210H139.872L137.966 204.974C137.943 204.918 137.895 204.783 137.823 204.569C137.76 204.354 137.685 204.116 137.597 203.854C137.51 203.592 137.43 203.354 137.359 203.139C137.288 202.917 137.24 202.774 137.216 202.711L137.49 202.699C137.442 202.834 137.383 203.004 137.311 203.211C137.248 203.417 137.176 203.636 137.097 203.866C137.025 204.096 136.954 204.315 136.883 204.521C136.811 204.72 136.752 204.886 136.704 205.021L134.81 210H133.5ZM134.929 207.928L135.406 206.689H139.193L139.741 207.928H134.929Z" fill="black"/>
<path d="M120.167 237V228.662H121.323L126.42 235.487L126.23 235.595C126.198 235.396 126.17 235.182 126.146 234.951C126.123 234.713 126.099 234.463 126.075 234.201C126.059 233.931 126.043 233.649 126.027 233.355C126.019 233.054 126.011 232.74 126.003 232.414C125.996 232.089 125.992 231.751 125.992 231.402V228.662H127.278V237H126.099L121.084 230.425L121.215 230.259C121.255 230.743 121.287 231.156 121.311 231.497C121.342 231.831 121.366 232.117 121.382 232.355C121.406 232.585 121.422 232.776 121.43 232.927C121.438 233.069 121.442 233.189 121.442 233.284C121.45 233.379 121.454 233.463 121.454 233.534V237H120.167ZM132.113 237.119C131.502 237.119 130.954 236.98 130.47 236.702C129.993 236.416 129.616 236.031 129.338 235.547C129.06 235.055 128.921 234.495 128.921 233.867C128.921 233.24 129.06 232.684 129.338 232.2C129.616 231.708 129.993 231.323 130.47 231.045C130.954 230.759 131.502 230.616 132.113 230.616C132.717 230.616 133.257 230.759 133.733 231.045C134.218 231.323 134.599 231.708 134.877 232.2C135.155 232.684 135.293 233.24 135.293 233.867C135.293 234.495 135.155 235.055 134.877 235.547C134.599 236.031 134.218 236.416 133.733 236.702C133.257 236.98 132.717 237.119 132.113 237.119ZM132.113 235.999C132.487 235.999 132.82 235.908 133.114 235.726C133.408 235.535 133.638 235.281 133.805 234.963C133.971 234.638 134.051 234.272 134.043 233.867C134.051 233.455 133.971 233.089 133.805 232.772C133.638 232.446 133.408 232.192 133.114 232.009C132.82 231.827 132.487 231.735 132.113 231.735C131.74 231.735 131.403 231.831 131.101 232.021C130.807 232.204 130.577 232.458 130.41 232.784C130.243 233.101 130.164 233.463 130.172 233.867C130.164 234.272 130.243 234.638 130.41 234.963C130.577 235.281 130.807 235.535 131.101 235.726C131.403 235.908 131.74 235.999 132.113 235.999ZM137.404 237V229.151H138.631V237H137.404ZM136.106 231.938V230.747H140.084V231.938H136.106ZM141.404 237V230.747H142.631V237H141.404ZM141.999 229.365C141.737 229.365 141.535 229.298 141.392 229.163C141.249 229.028 141.178 228.837 141.178 228.591C141.178 228.361 141.249 228.174 141.392 228.031C141.543 227.888 141.745 227.817 141.999 227.817C142.262 227.817 142.464 227.884 142.607 228.019C142.75 228.154 142.821 228.345 142.821 228.591C142.821 228.821 142.746 229.008 142.595 229.151C142.452 229.294 142.254 229.365 141.999 229.365ZM147.173 237.119C146.593 237.119 146.073 236.976 145.612 236.69C145.16 236.404 144.798 236.015 144.528 235.523C144.266 235.031 144.135 234.479 144.135 233.867C144.135 233.256 144.266 232.704 144.528 232.212C144.798 231.72 145.16 231.33 145.612 231.045C146.073 230.759 146.593 230.616 147.173 230.616C147.728 230.616 148.233 230.731 148.685 230.961C149.146 231.184 149.495 231.489 149.733 231.878L149.054 232.712C148.927 232.53 148.765 232.363 148.566 232.212C148.368 232.061 148.157 231.942 147.935 231.855C147.713 231.767 147.498 231.724 147.292 231.724C146.911 231.724 146.569 231.819 146.267 232.009C145.974 232.192 145.739 232.446 145.565 232.772C145.39 233.097 145.303 233.463 145.303 233.867C145.303 234.272 145.394 234.638 145.577 234.963C145.759 235.281 146.001 235.535 146.303 235.726C146.605 235.916 146.938 236.011 147.304 236.011C147.518 236.011 147.724 235.976 147.923 235.904C148.129 235.833 148.328 235.726 148.518 235.583C148.709 235.44 148.888 235.265 149.054 235.059L149.733 235.892C149.479 236.25 149.114 236.543 148.638 236.774C148.169 237.004 147.681 237.119 147.173 237.119ZM153.809 237.119C153.166 237.119 152.594 236.984 152.094 236.714C151.601 236.436 151.212 236.059 150.926 235.583C150.648 235.106 150.509 234.558 150.509 233.939C150.509 233.447 150.589 232.998 150.748 232.593C150.906 232.188 151.125 231.839 151.403 231.545C151.689 231.243 152.026 231.013 152.415 230.854C152.812 230.687 153.241 230.604 153.701 230.604C154.106 230.604 154.484 230.683 154.833 230.842C155.182 230.993 155.484 231.203 155.738 231.473C156 231.743 156.199 232.065 156.334 232.438C156.477 232.803 156.544 233.204 156.536 233.641L156.524 234.165H151.415L151.141 233.189H155.464L155.286 233.391V233.105C155.262 232.843 155.174 232.609 155.024 232.402C154.873 232.196 154.682 232.033 154.452 231.914C154.222 231.795 153.971 231.735 153.701 231.735C153.273 231.735 152.911 231.819 152.618 231.986C152.324 232.144 152.101 232.383 151.951 232.7C151.8 233.01 151.724 233.395 151.724 233.856C151.724 234.292 151.816 234.673 151.998 234.999C152.181 235.317 152.439 235.563 152.772 235.737C153.106 235.912 153.491 235.999 153.928 235.999C154.237 235.999 154.523 235.948 154.785 235.845C155.055 235.741 155.345 235.555 155.655 235.285L156.274 236.154C156.084 236.345 155.849 236.512 155.571 236.655C155.301 236.798 155.012 236.913 154.702 237C154.4 237.079 154.102 237.119 153.809 237.119ZM161.517 237V228.662H165.067C165.543 228.662 165.98 228.782 166.377 229.02C166.782 229.25 167.104 229.568 167.342 229.973C167.58 230.37 167.699 230.818 167.699 231.319C167.699 231.771 167.58 232.192 167.342 232.581C167.104 232.97 166.786 233.284 166.389 233.522C165.992 233.752 165.551 233.867 165.067 233.867H162.804V237H161.517ZM166.472 237L164.352 233.236L165.674 232.938L168.033 237.012L166.472 237ZM162.804 232.629H165.186C165.416 232.629 165.623 232.573 165.805 232.462C165.988 232.343 166.131 232.184 166.234 231.986C166.337 231.779 166.389 231.553 166.389 231.307C166.389 231.029 166.321 230.787 166.186 230.58C166.059 230.366 165.877 230.199 165.639 230.08C165.408 229.961 165.146 229.901 164.852 229.901H162.804V232.629ZM172.175 237.119C171.532 237.119 170.96 236.984 170.46 236.714C169.967 236.436 169.578 236.059 169.293 235.583C169.015 235.106 168.876 234.558 168.876 233.939C168.876 233.447 168.955 232.998 169.114 232.593C169.273 232.188 169.491 231.839 169.769 231.545C170.055 231.243 170.392 231.013 170.781 230.854C171.178 230.687 171.607 230.604 172.068 230.604C172.473 230.604 172.85 230.683 173.199 230.842C173.549 230.993 173.85 231.203 174.104 231.473C174.366 231.743 174.565 232.065 174.7 232.438C174.843 232.803 174.91 233.204 174.902 233.641L174.891 234.165H169.781L169.507 233.189H173.831L173.652 233.391V233.105C173.628 232.843 173.541 232.609 173.39 232.402C173.239 232.196 173.048 232.033 172.818 231.914C172.588 231.795 172.338 231.735 172.068 231.735C171.639 231.735 171.278 231.819 170.984 231.986C170.69 232.144 170.468 232.383 170.317 232.7C170.166 233.01 170.091 233.395 170.091 233.856C170.091 234.292 170.182 234.673 170.364 234.999C170.547 235.317 170.805 235.563 171.139 235.737C171.472 235.912 171.857 235.999 172.294 235.999C172.604 235.999 172.89 235.948 173.152 235.845C173.422 235.741 173.711 235.555 174.021 235.285L174.64 236.154C174.45 236.345 174.216 236.512 173.938 236.655C173.668 236.798 173.378 236.913 173.068 237C172.766 237.079 172.469 237.119 172.175 237.119ZM176.236 237V230.747H177.463V232.033L177.248 232.176C177.328 231.898 177.482 231.644 177.713 231.414C177.943 231.176 178.217 230.985 178.534 230.842C178.852 230.691 179.178 230.616 179.511 230.616C179.988 230.616 180.385 230.711 180.702 230.902C181.02 231.084 181.258 231.366 181.417 231.747C181.576 232.129 181.655 232.609 181.655 233.189V237H180.428V233.272C180.428 232.915 180.381 232.621 180.285 232.391C180.19 232.152 180.043 231.982 179.845 231.878C179.646 231.767 179.4 231.72 179.106 231.735C178.868 231.735 178.65 231.775 178.451 231.855C178.253 231.926 178.078 232.029 177.927 232.164C177.784 232.299 177.669 232.458 177.582 232.641C177.502 232.815 177.463 233.006 177.463 233.212V237H176.855C176.752 237 176.649 237 176.545 237C176.442 237 176.339 237 176.236 237ZM186.237 237.119C185.594 237.119 185.023 236.984 184.522 236.714C184.03 236.436 183.641 236.059 183.355 235.583C183.077 235.106 182.938 234.558 182.938 233.939C182.938 233.447 183.018 232.998 183.176 232.593C183.335 232.188 183.554 231.839 183.832 231.545C184.117 231.243 184.455 231.013 184.844 230.854C185.241 230.687 185.67 230.604 186.13 230.604C186.535 230.604 186.912 230.683 187.262 230.842C187.611 230.993 187.913 231.203 188.167 231.473C188.429 231.743 188.628 232.065 188.763 232.438C188.905 232.803 188.973 233.204 188.965 233.641L188.953 234.165H183.843L183.569 233.189H187.893L187.714 233.391V233.105C187.691 232.843 187.603 232.609 187.452 232.402C187.301 232.196 187.111 232.033 186.881 231.914C186.65 231.795 186.4 231.735 186.13 231.735C185.701 231.735 185.34 231.819 185.046 231.986C184.753 232.144 184.53 232.383 184.379 232.7C184.229 233.01 184.153 233.395 184.153 233.856C184.153 234.292 184.244 234.673 184.427 234.999C184.61 235.317 184.868 235.563 185.201 235.737C185.535 235.912 185.92 235.999 186.357 235.999C186.666 235.999 186.952 235.948 187.214 235.845C187.484 235.741 187.774 235.555 188.084 235.285L188.703 236.154C188.512 236.345 188.278 236.512 188 236.655C187.73 236.798 187.44 236.913 187.131 237C186.829 237.079 186.531 237.119 186.237 237.119ZM191.718 237L189.586 230.747L190.825 230.735L192.35 235.416L192.076 235.392L193.731 231.735H194.47L196.137 235.404L195.816 235.428L197.352 230.747H198.591L196.483 237H195.637L193.898 233.022L194.172 233.058L192.552 237H191.718ZM201.94 237.119C201.424 237.119 200.951 236.976 200.522 236.69C200.101 236.404 199.764 236.015 199.51 235.523C199.256 235.031 199.129 234.475 199.129 233.856C199.129 233.228 199.256 232.672 199.51 232.188C199.772 231.696 200.121 231.311 200.558 231.033C201.003 230.755 201.499 230.616 202.047 230.616C202.372 230.616 202.67 230.663 202.94 230.759C203.21 230.854 203.444 230.989 203.643 231.164C203.849 231.33 204.016 231.525 204.143 231.747C204.278 231.97 204.362 232.208 204.393 232.462L204.119 232.367V230.747H205.358V237H204.119V235.511L204.405 235.428C204.358 235.642 204.258 235.853 204.107 236.059C203.965 236.258 203.778 236.436 203.548 236.595C203.325 236.754 203.075 236.881 202.797 236.976C202.527 237.071 202.241 237.119 201.94 237.119ZM202.261 235.988C202.634 235.988 202.964 235.896 203.25 235.714C203.536 235.531 203.758 235.281 203.917 234.963C204.084 234.638 204.167 234.268 204.167 233.856C204.167 233.451 204.084 233.089 203.917 232.772C203.758 232.454 203.536 232.204 203.25 232.021C202.964 231.839 202.634 231.747 202.261 231.747C201.896 231.747 201.57 231.839 201.285 232.021C201.007 232.204 200.784 232.454 200.618 232.772C200.459 233.089 200.379 233.451 200.379 233.856C200.379 234.268 200.459 234.638 200.618 234.963C200.784 235.281 201.007 235.531 201.285 235.714C201.57 235.896 201.896 235.988 202.261 235.988ZM207.095 237V228.186H208.322V237H207.095Z" fill="black"/>
<rect x="114" y="250" width="251" height="24" rx="3" fill="#8FC3FA" fill-opacity="0.39"/>
<path d="M120.167 266V257.662H123.645C124.177 257.662 124.626 257.742 124.991 257.901C125.356 258.06 125.63 258.298 125.813 258.615C126.004 258.925 126.099 259.306 126.099 259.759C126.099 260.211 125.972 260.597 125.718 260.914C125.471 261.232 125.126 261.45 124.681 261.569V261.331C125.055 261.41 125.38 261.553 125.658 261.76C125.936 261.958 126.15 262.208 126.301 262.51C126.46 262.812 126.539 263.157 126.539 263.546C126.539 263.943 126.476 264.297 126.349 264.606C126.23 264.908 126.047 265.162 125.801 265.369C125.563 265.575 125.273 265.734 124.932 265.845C124.59 265.948 124.201 266 123.764 266H120.167ZM121.454 264.761H123.693C124.018 264.761 124.292 264.714 124.515 264.618C124.745 264.523 124.92 264.384 125.039 264.201C125.166 264.011 125.229 263.785 125.229 263.523C125.229 263.276 125.162 263.066 125.027 262.891C124.9 262.717 124.717 262.586 124.479 262.498C124.241 262.403 123.959 262.355 123.633 262.355H121.454V264.761ZM121.454 261.117H123.574C123.812 261.117 124.022 261.069 124.205 260.974C124.396 260.878 124.542 260.747 124.646 260.581C124.757 260.414 124.812 260.223 124.812 260.009C124.812 259.652 124.693 259.378 124.455 259.187C124.217 258.996 123.875 258.901 123.431 258.901H121.454V261.117ZM127.965 266V259.747H129.203V261.712L129.084 261.236C129.172 260.934 129.319 260.66 129.525 260.414C129.739 260.168 129.982 259.973 130.252 259.83C130.53 259.687 130.815 259.616 131.109 259.616C131.244 259.616 131.371 259.628 131.49 259.652C131.617 259.675 131.717 259.703 131.788 259.735L131.467 261.069C131.371 261.029 131.264 260.997 131.145 260.974C131.034 260.942 130.923 260.926 130.811 260.926C130.597 260.926 130.391 260.97 130.192 261.057C130.001 261.136 129.831 261.252 129.68 261.402C129.537 261.545 129.422 261.716 129.334 261.915C129.247 262.105 129.203 262.316 129.203 262.546V266H127.965ZM135.312 266.119C134.701 266.119 134.153 265.98 133.668 265.702C133.192 265.416 132.815 265.031 132.537 264.547C132.259 264.055 132.12 263.495 132.12 262.867C132.12 262.24 132.259 261.684 132.537 261.2C132.815 260.708 133.192 260.323 133.668 260.045C134.153 259.759 134.701 259.616 135.312 259.616C135.915 259.616 136.455 259.759 136.932 260.045C137.416 260.323 137.797 260.708 138.075 261.2C138.353 261.684 138.492 262.24 138.492 262.867C138.492 263.495 138.353 264.055 138.075 264.547C137.797 265.031 137.416 265.416 136.932 265.702C136.455 265.98 135.915 266.119 135.312 266.119ZM135.312 264.999C135.685 264.999 136.019 264.908 136.313 264.726C136.606 264.535 136.837 264.281 137.003 263.963C137.17 263.638 137.249 263.272 137.242 262.867C137.249 262.455 137.17 262.089 137.003 261.772C136.837 261.446 136.606 261.192 136.313 261.009C136.019 260.827 135.685 260.735 135.312 260.735C134.939 260.735 134.601 260.831 134.3 261.021C134.006 261.204 133.776 261.458 133.609 261.784C133.442 262.101 133.363 262.463 133.371 262.867C133.363 263.272 133.442 263.638 133.609 263.963C133.776 264.281 134.006 264.535 134.3 264.726C134.601 264.908 134.939 264.999 135.312 264.999ZM142.235 266.119C141.719 266.119 141.246 265.976 140.818 265.69C140.397 265.404 140.059 265.015 139.805 264.523C139.551 264.031 139.424 263.475 139.424 262.856C139.424 262.228 139.551 261.672 139.805 261.188C140.067 260.696 140.417 260.311 140.853 260.033C141.298 259.755 141.794 259.616 142.342 259.616C142.668 259.616 142.965 259.663 143.235 259.759C143.505 259.854 143.74 259.989 143.938 260.164C144.145 260.33 144.311 260.525 144.438 260.747C144.573 260.97 144.657 261.208 144.689 261.462L144.415 261.367V259.747H145.653V266H144.415V264.511L144.7 264.428C144.653 264.642 144.554 264.853 144.403 265.059C144.26 265.258 144.073 265.436 143.843 265.595C143.621 265.754 143.37 265.881 143.092 265.976C142.823 266.071 142.537 266.119 142.235 266.119ZM142.557 264.988C142.93 264.988 143.259 264.896 143.545 264.714C143.831 264.531 144.053 264.281 144.212 263.963C144.379 263.638 144.462 263.268 144.462 262.856C144.462 262.451 144.379 262.089 144.212 261.772C144.053 261.454 143.831 261.204 143.545 261.021C143.259 260.839 142.93 260.747 142.557 260.747C142.191 260.747 141.866 260.839 141.58 261.021C141.302 261.204 141.08 261.454 140.913 261.772C140.754 262.089 140.675 262.451 140.675 262.856C140.675 263.268 140.754 263.638 140.913 263.963C141.08 264.281 141.302 264.531 141.58 264.714C141.866 264.896 142.191 264.988 142.557 264.988ZM149.975 266.119C149.403 266.119 148.891 265.98 148.438 265.702C147.994 265.416 147.64 265.031 147.378 264.547C147.116 264.055 146.985 263.495 146.985 262.867C146.985 262.24 147.112 261.684 147.366 261.2C147.628 260.708 147.982 260.323 148.426 260.045C148.871 259.759 149.375 259.616 149.939 259.616C150.249 259.616 150.546 259.667 150.832 259.771C151.126 259.866 151.388 260.001 151.618 260.176C151.849 260.342 152.027 260.529 152.154 260.735C152.289 260.934 152.357 261.136 152.357 261.343L151.999 261.367V257.186H153.226V266H151.999V264.511H152.238C152.238 264.702 152.174 264.892 152.047 265.083C151.92 265.266 151.749 265.436 151.535 265.595C151.329 265.754 151.086 265.881 150.808 265.976C150.538 266.071 150.261 266.119 149.975 266.119ZM150.141 265.059C150.515 265.059 150.844 264.964 151.13 264.773C151.416 264.583 151.638 264.325 151.797 263.999C151.964 263.665 152.047 263.288 152.047 262.867C152.047 262.447 151.964 262.073 151.797 261.748C151.638 261.414 151.416 261.152 151.13 260.962C150.844 260.771 150.515 260.676 150.141 260.676C149.768 260.676 149.439 260.771 149.153 260.962C148.867 261.152 148.641 261.414 148.474 261.748C148.315 262.073 148.236 262.447 148.236 262.867C148.236 263.288 148.315 263.665 148.474 263.999C148.641 264.325 148.867 264.583 149.153 264.773C149.439 264.964 149.768 265.059 150.141 265.059ZM157.571 266.119C156.992 266.119 156.471 265.976 156.011 265.69C155.558 265.404 155.197 265.015 154.927 264.523C154.665 264.031 154.534 263.479 154.534 262.867C154.534 262.256 154.665 261.704 154.927 261.212C155.197 260.72 155.558 260.33 156.011 260.045C156.471 259.759 156.992 259.616 157.571 259.616C158.127 259.616 158.631 259.731 159.084 259.961C159.544 260.184 159.894 260.489 160.132 260.878L159.453 261.712C159.326 261.53 159.163 261.363 158.965 261.212C158.766 261.061 158.556 260.942 158.333 260.855C158.111 260.767 157.897 260.724 157.69 260.724C157.309 260.724 156.968 260.819 156.666 261.009C156.372 261.192 156.138 261.446 155.963 261.772C155.789 262.097 155.701 262.463 155.701 262.867C155.701 263.272 155.793 263.638 155.975 263.963C156.158 264.281 156.4 264.535 156.702 264.726C157.003 264.916 157.337 265.011 157.702 265.011C157.917 265.011 158.123 264.976 158.322 264.904C158.528 264.833 158.727 264.726 158.917 264.583C159.108 264.44 159.286 264.265 159.453 264.059L160.132 264.892C159.878 265.25 159.513 265.543 159.036 265.774C158.568 266.004 158.079 266.119 157.571 266.119ZM163.695 266.119C163.179 266.119 162.707 265.976 162.278 265.69C161.857 265.404 161.519 265.015 161.265 264.523C161.011 264.031 160.884 263.475 160.884 262.856C160.884 262.228 161.011 261.672 161.265 261.188C161.527 260.696 161.877 260.311 162.313 260.033C162.758 259.755 163.254 259.616 163.802 259.616C164.128 259.616 164.426 259.663 164.696 259.759C164.966 259.854 165.2 259.989 165.398 260.164C165.605 260.33 165.772 260.525 165.899 260.747C166.034 260.97 166.117 261.208 166.149 261.462L165.875 261.367V259.747H167.114V266H165.875V264.511L166.161 264.428C166.113 264.642 166.014 264.853 165.863 265.059C165.72 265.258 165.533 265.436 165.303 265.595C165.081 265.754 164.831 265.881 164.553 265.976C164.283 266.071 163.997 266.119 163.695 266.119ZM164.017 264.988C164.39 264.988 164.719 264.896 165.005 264.714C165.291 264.531 165.514 264.281 165.672 263.963C165.839 263.638 165.922 263.268 165.922 262.856C165.922 262.451 165.839 262.089 165.672 261.772C165.514 261.454 165.291 261.204 165.005 261.021C164.719 260.839 164.39 260.747 164.017 260.747C163.651 260.747 163.326 260.839 163.04 261.021C162.762 261.204 162.54 261.454 162.373 261.772C162.214 262.089 162.135 262.451 162.135 262.856C162.135 263.268 162.214 263.638 162.373 263.963C162.54 264.281 162.762 264.531 163.04 264.714C163.326 264.896 163.651 264.988 164.017 264.988ZM170.911 266.119C170.387 266.119 169.914 266.028 169.493 265.845C169.073 265.663 168.723 265.393 168.445 265.035L169.279 264.321C169.517 264.599 169.775 264.801 170.053 264.928C170.339 265.047 170.661 265.107 171.018 265.107C171.161 265.107 171.292 265.091 171.411 265.059C171.538 265.019 171.645 264.964 171.733 264.892C171.828 264.821 171.899 264.737 171.947 264.642C171.995 264.539 172.018 264.428 172.018 264.309C172.018 264.102 171.943 263.935 171.792 263.808C171.713 263.753 171.586 263.693 171.411 263.63C171.244 263.558 171.026 263.487 170.756 263.415C170.295 263.296 169.918 263.161 169.624 263.01C169.331 262.86 169.104 262.689 168.946 262.498C168.826 262.347 168.739 262.185 168.683 262.01C168.628 261.827 168.6 261.629 168.6 261.414C168.6 261.152 168.656 260.914 168.767 260.7C168.886 260.477 169.045 260.287 169.243 260.128C169.45 259.961 169.688 259.834 169.958 259.747C170.236 259.66 170.53 259.616 170.839 259.616C171.133 259.616 171.423 259.656 171.709 259.735C172.003 259.814 172.273 259.93 172.519 260.08C172.765 260.231 172.971 260.41 173.138 260.616L172.435 261.391C172.285 261.24 172.118 261.109 171.935 260.997C171.76 260.878 171.582 260.787 171.399 260.724C171.217 260.66 171.05 260.628 170.899 260.628C170.732 260.628 170.581 260.644 170.446 260.676C170.311 260.708 170.196 260.755 170.101 260.819C170.014 260.882 169.946 260.962 169.898 261.057C169.851 261.152 169.827 261.26 169.827 261.379C169.835 261.482 169.859 261.581 169.898 261.676C169.946 261.764 170.01 261.839 170.089 261.903C170.176 261.966 170.307 262.034 170.482 262.105C170.657 262.177 170.879 262.244 171.149 262.308C171.546 262.411 171.872 262.526 172.126 262.653C172.388 262.772 172.594 262.911 172.745 263.07C172.904 263.221 173.015 263.396 173.079 263.594C173.142 263.793 173.174 264.015 173.174 264.261C173.174 264.618 173.071 264.94 172.864 265.226C172.666 265.504 172.396 265.722 172.054 265.881C171.713 266.04 171.332 266.119 170.911 266.119ZM175.3 266V258.151H176.527V266H175.3ZM174.002 260.938V259.747H177.98V260.938H174.002ZM181.414 266.119C180.89 266.119 180.418 266.028 179.997 265.845C179.576 265.663 179.226 265.393 178.949 265.035L179.782 264.321C180.021 264.599 180.279 264.801 180.557 264.928C180.842 265.047 181.164 265.107 181.521 265.107C181.664 265.107 181.795 265.091 181.914 265.059C182.041 265.019 182.149 264.964 182.236 264.892C182.331 264.821 182.403 264.737 182.45 264.642C182.498 264.539 182.522 264.428 182.522 264.309C182.522 264.102 182.446 263.935 182.295 263.808C182.216 263.753 182.089 263.693 181.914 263.63C181.748 263.558 181.529 263.487 181.259 263.415C180.799 263.296 180.422 263.161 180.128 263.01C179.834 262.86 179.608 262.689 179.449 262.498C179.33 262.347 179.242 262.185 179.187 262.01C179.131 261.827 179.103 261.629 179.103 261.414C179.103 261.152 179.159 260.914 179.27 260.7C179.389 260.477 179.548 260.287 179.747 260.128C179.953 259.961 180.191 259.834 180.461 259.747C180.739 259.66 181.033 259.616 181.343 259.616C181.636 259.616 181.926 259.656 182.212 259.735C182.506 259.814 182.776 259.93 183.022 260.08C183.268 260.231 183.475 260.41 183.641 260.616L182.939 261.391C182.788 261.24 182.621 261.109 182.438 260.997C182.264 260.878 182.085 260.787 181.902 260.724C181.72 260.66 181.553 260.628 181.402 260.628C181.235 260.628 181.085 260.644 180.95 260.676C180.815 260.708 180.699 260.755 180.604 260.819C180.517 260.882 180.449 260.962 180.402 261.057C180.354 261.152 180.33 261.26 180.33 261.379C180.338 261.482 180.362 261.581 180.402 261.676C180.449 261.764 180.513 261.839 180.592 261.903C180.68 261.966 180.811 262.034 180.985 262.105C181.16 262.177 181.382 262.244 181.652 262.308C182.049 262.411 182.375 262.526 182.629 262.653C182.891 262.772 183.097 262.911 183.248 263.07C183.407 263.221 183.518 263.396 183.582 263.594C183.645 263.793 183.677 264.015 183.677 264.261C183.677 264.618 183.574 264.94 183.367 265.226C183.169 265.504 182.899 265.722 182.558 265.881C182.216 266.04 181.835 266.119 181.414 266.119Z" fill="black"/>
<path d="M120.167 291V282.662H121.323L126.42 289.487L126.23 289.595C126.198 289.396 126.17 289.182 126.146 288.951C126.123 288.713 126.099 288.463 126.075 288.201C126.059 287.931 126.043 287.649 126.027 287.355C126.019 287.054 126.011 286.74 126.003 286.414C125.996 286.089 125.992 285.751 125.992 285.402V282.662H127.278V291H126.099L121.084 284.425L121.215 284.259C121.255 284.743 121.287 285.156 121.311 285.497C121.342 285.831 121.366 286.117 121.382 286.355C121.406 286.585 121.422 286.776 121.43 286.927C121.438 287.069 121.442 287.189 121.442 287.284C121.45 287.379 121.454 287.463 121.454 287.534V291H120.167ZM132.113 291.119C131.502 291.119 130.954 290.98 130.47 290.702C129.993 290.416 129.616 290.031 129.338 289.547C129.06 289.055 128.921 288.495 128.921 287.867C128.921 287.24 129.06 286.684 129.338 286.2C129.616 285.708 129.993 285.323 130.47 285.045C130.954 284.759 131.502 284.616 132.113 284.616C132.717 284.616 133.257 284.759 133.733 285.045C134.218 285.323 134.599 285.708 134.877 286.2C135.155 286.684 135.293 287.24 135.293 287.867C135.293 288.495 135.155 289.055 134.877 289.547C134.599 290.031 134.218 290.416 133.733 290.702C133.257 290.98 132.717 291.119 132.113 291.119ZM132.113 289.999C132.487 289.999 132.82 289.908 133.114 289.726C133.408 289.535 133.638 289.281 133.805 288.963C133.971 288.638 134.051 288.272 134.043 287.867C134.051 287.455 133.971 287.089 133.805 286.772C133.638 286.446 133.408 286.192 133.114 286.009C132.82 285.827 132.487 285.735 132.113 285.735C131.74 285.735 131.403 285.831 131.101 286.021C130.807 286.204 130.577 286.458 130.41 286.784C130.243 287.101 130.164 287.463 130.172 287.867C130.164 288.272 130.243 288.638 130.41 288.963C130.577 289.281 130.807 289.535 131.101 289.726C131.403 289.908 131.74 289.999 132.113 289.999ZM137.404 291V283.151H138.631V291H137.404ZM136.106 285.938V284.747H140.084V285.938H136.106ZM141.404 291V284.747H142.631V291H141.404ZM141.999 283.365C141.737 283.365 141.535 283.298 141.392 283.163C141.249 283.028 141.178 282.837 141.178 282.591C141.178 282.361 141.249 282.174 141.392 282.031C141.543 281.888 141.745 281.817 141.999 281.817C142.262 281.817 142.464 281.884 142.607 282.019C142.75 282.154 142.821 282.345 142.821 282.591C142.821 282.821 142.746 283.008 142.595 283.151C142.452 283.294 142.254 283.365 141.999 283.365ZM147.173 291.119C146.593 291.119 146.073 290.976 145.612 290.69C145.16 290.404 144.798 290.015 144.528 289.523C144.266 289.031 144.135 288.479 144.135 287.867C144.135 287.256 144.266 286.704 144.528 286.212C144.798 285.72 145.16 285.33 145.612 285.045C146.073 284.759 146.593 284.616 147.173 284.616C147.728 284.616 148.233 284.731 148.685 284.961C149.146 285.184 149.495 285.489 149.733 285.878L149.054 286.712C148.927 286.53 148.765 286.363 148.566 286.212C148.368 286.061 148.157 285.942 147.935 285.855C147.713 285.767 147.498 285.724 147.292 285.724C146.911 285.724 146.569 285.819 146.267 286.009C145.974 286.192 145.739 286.446 145.565 286.772C145.39 287.097 145.303 287.463 145.303 287.867C145.303 288.272 145.394 288.638 145.577 288.963C145.759 289.281 146.001 289.535 146.303 289.726C146.605 289.916 146.938 290.011 147.304 290.011C147.518 290.011 147.724 289.976 147.923 289.904C148.129 289.833 148.328 289.726 148.518 289.583C148.709 289.44 148.888 289.265 149.054 289.059L149.733 289.892C149.479 290.25 149.114 290.543 148.638 290.774C148.169 291.004 147.681 291.119 147.173 291.119ZM153.809 291.119C153.166 291.119 152.594 290.984 152.094 290.714C151.601 290.436 151.212 290.059 150.926 289.583C150.648 289.106 150.509 288.558 150.509 287.939C150.509 287.447 150.589 286.998 150.748 286.593C150.906 286.188 151.125 285.839 151.403 285.545C151.689 285.243 152.026 285.013 152.415 284.854C152.812 284.687 153.241 284.604 153.701 284.604C154.106 284.604 154.484 284.683 154.833 284.842C155.182 284.993 155.484 285.203 155.738 285.473C156 285.743 156.199 286.065 156.334 286.438C156.477 286.803 156.544 287.204 156.536 287.641L156.524 288.165H151.415L151.141 287.189H155.464L155.286 287.391V287.105C155.262 286.843 155.174 286.609 155.024 286.402C154.873 286.196 154.682 286.033 154.452 285.914C154.222 285.795 153.971 285.735 153.701 285.735C153.273 285.735 152.911 285.819 152.618 285.986C152.324 286.144 152.101 286.383 151.951 286.7C151.8 287.01 151.724 287.395 151.724 287.856C151.724 288.292 151.816 288.673 151.998 288.999C152.181 289.317 152.439 289.563 152.772 289.737C153.106 289.912 153.491 289.999 153.928 289.999C154.237 289.999 154.523 289.948 154.785 289.845C155.055 289.741 155.345 289.555 155.655 289.285L156.274 290.154C156.084 290.345 155.849 290.512 155.571 290.655C155.301 290.798 155.012 290.913 154.702 291C154.4 291.079 154.102 291.119 153.809 291.119ZM159.954 291.119C159.43 291.119 158.957 291.028 158.537 290.845C158.116 290.663 157.766 290.393 157.488 290.035L158.322 289.321C158.56 289.599 158.818 289.801 159.096 289.928C159.382 290.047 159.704 290.107 160.061 290.107C160.204 290.107 160.335 290.091 160.454 290.059C160.581 290.019 160.688 289.964 160.776 289.892C160.871 289.821 160.942 289.737 160.99 289.642C161.038 289.539 161.062 289.428 161.062 289.309C161.062 289.102 160.986 288.935 160.835 288.808C160.756 288.753 160.629 288.693 160.454 288.63C160.287 288.558 160.069 288.487 159.799 288.415C159.338 288.296 158.961 288.161 158.668 288.01C158.374 287.86 158.147 287.689 157.989 287.498C157.869 287.347 157.782 287.185 157.727 287.01C157.671 286.827 157.643 286.629 157.643 286.414C157.643 286.152 157.699 285.914 157.81 285.7C157.929 285.477 158.088 285.287 158.286 285.128C158.493 284.961 158.731 284.834 159.001 284.747C159.279 284.66 159.573 284.616 159.882 284.616C160.176 284.616 160.466 284.656 160.752 284.735C161.046 284.814 161.316 284.93 161.562 285.08C161.808 285.231 162.014 285.41 162.181 285.616L161.478 286.391C161.328 286.24 161.161 286.109 160.978 285.997C160.804 285.878 160.625 285.787 160.442 285.724C160.26 285.66 160.093 285.628 159.942 285.628C159.775 285.628 159.624 285.644 159.489 285.676C159.354 285.708 159.239 285.755 159.144 285.819C159.057 285.882 158.989 285.962 158.941 286.057C158.894 286.152 158.87 286.26 158.87 286.379C158.878 286.482 158.902 286.581 158.941 286.676C158.989 286.764 159.053 286.839 159.132 286.903C159.219 286.966 159.35 287.034 159.525 287.105C159.7 287.177 159.922 287.244 160.192 287.308C160.589 287.411 160.915 287.526 161.169 287.653C161.431 287.772 161.637 287.911 161.788 288.07C161.947 288.221 162.058 288.396 162.122 288.594C162.185 288.793 162.217 289.015 162.217 289.261C162.217 289.618 162.114 289.94 161.907 290.226C161.709 290.504 161.439 290.722 161.097 290.881C160.756 291.04 160.375 291.119 159.954 291.119Z" fill="black"/>
<path d="M120.167 318V309.662H121.454V316.761H125.36V318H120.167ZM129.673 318.119C129.03 318.119 128.458 317.984 127.958 317.714C127.466 317.436 127.077 317.059 126.791 316.583C126.513 316.106 126.374 315.558 126.374 314.939C126.374 314.447 126.453 313.998 126.612 313.593C126.771 313.188 126.989 312.839 127.267 312.545C127.553 312.243 127.891 312.013 128.28 311.854C128.677 311.687 129.105 311.604 129.566 311.604C129.971 311.604 130.348 311.683 130.698 311.842C131.047 311.993 131.349 312.203 131.603 312.473C131.865 312.743 132.063 313.065 132.198 313.438C132.341 313.803 132.409 314.204 132.401 314.641L132.389 315.165H127.279L127.005 314.189H131.329L131.15 314.391V314.105C131.126 313.843 131.039 313.609 130.888 313.402C130.737 313.196 130.547 313.033 130.316 312.914C130.086 312.795 129.836 312.735 129.566 312.735C129.137 312.735 128.776 312.819 128.482 312.986C128.188 313.144 127.966 313.383 127.815 313.7C127.664 314.01 127.589 314.395 127.589 314.856C127.589 315.292 127.68 315.673 127.863 315.999C128.045 316.317 128.303 316.563 128.637 316.737C128.97 316.912 129.356 316.999 129.792 316.999C130.102 316.999 130.388 316.948 130.65 316.845C130.92 316.741 131.21 316.555 131.519 316.285L132.139 317.154C131.948 317.345 131.714 317.512 131.436 317.655C131.166 317.798 130.876 317.913 130.567 318C130.265 318.079 129.967 318.119 129.673 318.119ZM136.14 318.119C135.624 318.119 135.151 317.976 134.723 317.69C134.302 317.404 133.964 317.015 133.71 316.523C133.456 316.031 133.329 315.475 133.329 314.856C133.329 314.228 133.456 313.672 133.71 313.188C133.972 312.696 134.322 312.311 134.758 312.033C135.203 311.755 135.699 311.616 136.247 311.616C136.573 311.616 136.871 311.663 137.14 311.759C137.41 311.854 137.645 311.989 137.843 312.164C138.05 312.33 138.216 312.525 138.343 312.747C138.478 312.97 138.562 313.208 138.594 313.462L138.32 313.367V311.747H139.558V318H138.32V316.511L138.606 316.428C138.558 316.642 138.459 316.853 138.308 317.059C138.165 317.258 137.978 317.436 137.748 317.595C137.526 317.754 137.275 317.881 136.998 317.976C136.728 318.071 136.442 318.119 136.14 318.119ZM136.462 316.988C136.835 316.988 137.164 316.896 137.45 316.714C137.736 316.531 137.958 316.281 138.117 315.963C138.284 315.638 138.367 315.268 138.367 314.856C138.367 314.451 138.284 314.089 138.117 313.772C137.958 313.454 137.736 313.204 137.45 313.021C137.164 312.839 136.835 312.747 136.462 312.747C136.096 312.747 135.771 312.839 135.485 313.021C135.207 313.204 134.985 313.454 134.818 313.772C134.659 314.089 134.58 314.451 134.58 314.856C134.58 315.268 134.659 315.638 134.818 315.963C134.985 316.281 135.207 316.531 135.485 316.714C135.771 316.896 136.096 316.988 136.462 316.988ZM143.356 318.119C142.832 318.119 142.359 318.028 141.938 317.845C141.517 317.663 141.168 317.393 140.89 317.035L141.724 316.321C141.962 316.599 142.22 316.801 142.498 316.928C142.784 317.047 143.106 317.107 143.463 317.107C143.606 317.107 143.737 317.091 143.856 317.059C143.983 317.019 144.09 316.964 144.177 316.892C144.273 316.821 144.344 316.737 144.392 316.642C144.44 316.539 144.463 316.428 144.463 316.309C144.463 316.102 144.388 315.935 144.237 315.808C144.158 315.753 144.031 315.693 143.856 315.63C143.689 315.558 143.471 315.487 143.201 315.415C142.74 315.296 142.363 315.161 142.069 315.01C141.775 314.86 141.549 314.689 141.39 314.498C141.271 314.347 141.184 314.185 141.128 314.01C141.073 313.827 141.045 313.629 141.045 313.414C141.045 313.152 141.101 312.914 141.212 312.7C141.331 312.477 141.49 312.287 141.688 312.128C141.895 311.961 142.133 311.834 142.403 311.747C142.681 311.66 142.974 311.616 143.284 311.616C143.578 311.616 143.868 311.656 144.154 311.735C144.447 311.814 144.717 311.93 144.964 312.08C145.21 312.231 145.416 312.41 145.583 312.616L144.88 313.391C144.729 313.24 144.563 313.109 144.38 312.997C144.205 312.878 144.027 312.787 143.844 312.724C143.661 312.66 143.495 312.628 143.344 312.628C143.177 312.628 143.026 312.644 142.891 312.676C142.756 312.708 142.641 312.755 142.546 312.819C142.458 312.882 142.391 312.962 142.343 313.057C142.296 313.152 142.272 313.26 142.272 313.379C142.28 313.482 142.304 313.581 142.343 313.676C142.391 313.764 142.454 313.839 142.534 313.903C142.621 313.966 142.752 314.034 142.927 314.105C143.102 314.177 143.324 314.244 143.594 314.308C143.991 314.411 144.316 314.526 144.571 314.653C144.833 314.772 145.039 314.911 145.19 315.07C145.349 315.221 145.46 315.396 145.523 315.594C145.587 315.793 145.619 316.015 145.619 316.261C145.619 316.618 145.515 316.94 145.309 317.226C145.11 317.504 144.841 317.722 144.499 317.881C144.158 318.04 143.776 318.119 143.356 318.119ZM149.889 318.119C149.246 318.119 148.674 317.984 148.174 317.714C147.681 317.436 147.292 317.059 147.006 316.583C146.729 316.106 146.59 315.558 146.59 314.939C146.59 314.447 146.669 313.998 146.828 313.593C146.987 313.188 147.205 312.839 147.483 312.545C147.769 312.243 148.106 312.013 148.495 311.854C148.892 311.687 149.321 311.604 149.782 311.604C150.187 311.604 150.564 311.683 150.913 311.842C151.263 311.993 151.564 312.203 151.818 312.473C152.08 312.743 152.279 313.065 152.414 313.438C152.557 313.803 152.624 314.204 152.616 314.641L152.604 315.165H147.495L147.221 314.189H151.544L151.366 314.391V314.105C151.342 313.843 151.255 313.609 151.104 313.402C150.953 313.196 150.762 313.033 150.532 312.914C150.302 312.795 150.052 312.735 149.782 312.735C149.353 312.735 148.992 312.819 148.698 312.986C148.404 313.144 148.182 313.383 148.031 313.7C147.88 314.01 147.804 314.395 147.804 314.856C147.804 315.292 147.896 315.673 148.078 315.999C148.261 316.317 148.519 316.563 148.853 316.737C149.186 316.912 149.571 316.999 150.008 316.999C150.318 316.999 150.603 316.948 150.866 316.845C151.136 316.741 151.425 316.555 151.735 316.285L152.354 317.154C152.164 317.345 151.93 317.512 151.652 317.655C151.382 317.798 151.092 317.913 150.782 318C150.48 318.079 150.183 318.119 149.889 318.119ZM156.728 318L159.956 309.662H161.266L164.47 318H163.1L161.195 312.974C161.171 312.918 161.123 312.783 161.052 312.569C160.988 312.354 160.913 312.116 160.825 311.854C160.738 311.592 160.659 311.354 160.587 311.139C160.516 310.917 160.468 310.774 160.444 310.711L160.718 310.699C160.671 310.834 160.611 311.004 160.54 311.211C160.476 311.417 160.405 311.636 160.325 311.866C160.254 312.096 160.182 312.315 160.111 312.521C160.039 312.72 159.98 312.886 159.932 313.021L158.038 318H156.728ZM158.157 315.928L158.634 314.689H162.421L162.969 315.928H158.157ZM168.31 320.739C167.866 320.739 167.421 320.668 166.976 320.525C166.54 320.39 166.186 320.211 165.916 319.989L166.369 319.036C166.528 319.155 166.714 319.259 166.929 319.346C167.143 319.441 167.37 319.513 167.608 319.56C167.846 319.616 168.08 319.644 168.31 319.644C168.747 319.644 169.112 319.572 169.406 319.429C169.7 319.286 169.922 319.076 170.073 318.798C170.224 318.52 170.3 318.175 170.3 317.762V316.559L170.431 316.642C170.391 316.888 170.26 317.127 170.038 317.357C169.823 317.579 169.553 317.762 169.228 317.905C168.902 318.048 168.569 318.119 168.227 318.119C167.632 318.119 167.1 317.98 166.631 317.702C166.17 317.416 165.805 317.031 165.535 316.547C165.265 316.055 165.13 315.495 165.13 314.867C165.13 314.24 165.261 313.684 165.523 313.2C165.793 312.708 166.159 312.323 166.619 312.045C167.088 311.759 167.612 311.616 168.191 311.616C168.43 311.616 168.66 311.648 168.882 311.711C169.104 311.767 169.311 311.85 169.502 311.961C169.692 312.064 169.863 312.18 170.014 312.307C170.165 312.434 170.288 312.569 170.383 312.712C170.478 312.855 170.538 312.99 170.562 313.117L170.3 313.212V311.747H171.526V317.619C171.526 318.119 171.451 318.56 171.3 318.941C171.157 319.33 170.947 319.656 170.669 319.918C170.391 320.188 170.053 320.39 169.656 320.525C169.259 320.668 168.811 320.739 168.31 320.739ZM168.358 316.988C168.747 316.988 169.093 316.896 169.394 316.714C169.696 316.531 169.93 316.281 170.097 315.963C170.264 315.646 170.347 315.28 170.347 314.867C170.347 314.455 170.26 314.089 170.085 313.772C169.918 313.446 169.684 313.192 169.382 313.009C169.089 312.827 168.747 312.735 168.358 312.735C167.977 312.735 167.636 312.831 167.334 313.021C167.04 313.204 166.806 313.458 166.631 313.784C166.464 314.101 166.381 314.463 166.381 314.867C166.381 315.272 166.464 315.638 166.631 315.963C166.806 316.281 167.04 316.531 167.334 316.714C167.636 316.896 167.977 316.988 168.358 316.988ZM173.246 318V311.747H174.485V313.712L174.366 313.236C174.453 312.934 174.6 312.66 174.807 312.414C175.021 312.168 175.263 311.973 175.533 311.83C175.811 311.687 176.097 311.616 176.391 311.616C176.526 311.616 176.653 311.628 176.772 311.652C176.899 311.675 176.998 311.703 177.07 311.735L176.748 313.069C176.653 313.029 176.546 312.997 176.427 312.974C176.315 312.942 176.204 312.926 176.093 312.926C175.879 312.926 175.672 312.97 175.474 313.057C175.283 313.136 175.112 313.252 174.962 313.402C174.819 313.545 174.703 313.716 174.616 313.915C174.529 314.105 174.485 314.316 174.485 314.546V318H173.246ZM180.701 318.119C180.058 318.119 179.486 317.984 178.986 317.714C178.493 317.436 178.104 317.059 177.818 316.583C177.541 316.106 177.402 315.558 177.402 314.939C177.402 314.447 177.481 313.998 177.64 313.593C177.799 313.188 178.017 312.839 178.295 312.545C178.581 312.243 178.918 312.013 179.307 311.854C179.704 311.687 180.133 311.604 180.594 311.604C180.999 311.604 181.376 311.683 181.725 311.842C182.075 311.993 182.376 312.203 182.63 312.473C182.892 312.743 183.091 313.065 183.226 313.438C183.369 313.803 183.436 314.204 183.428 314.641L183.416 315.165H178.307L178.033 314.189H182.356L182.178 314.391V314.105C182.154 313.843 182.067 313.609 181.916 313.402C181.765 313.196 181.574 313.033 181.344 312.914C181.114 312.795 180.864 312.735 180.594 312.735C180.165 312.735 179.804 312.819 179.51 312.986C179.216 313.144 178.994 313.383 178.843 313.7C178.692 314.01 178.616 314.395 178.616 314.856C178.616 315.292 178.708 315.673 178.89 315.999C179.073 316.317 179.331 316.563 179.665 316.737C179.998 316.912 180.383 316.999 180.82 316.999C181.13 316.999 181.415 316.948 181.678 316.845C181.948 316.741 182.237 316.555 182.547 316.285L183.166 317.154C182.976 317.345 182.742 317.512 182.464 317.655C182.194 317.798 181.904 317.913 181.594 318C181.292 318.079 180.995 318.119 180.701 318.119ZM187.68 318.119C187.037 318.119 186.465 317.984 185.965 317.714C185.472 317.436 185.083 317.059 184.797 316.583C184.519 316.106 184.381 315.558 184.381 314.939C184.381 314.447 184.46 313.998 184.619 313.593C184.778 313.188 184.996 312.839 185.274 312.545C185.56 312.243 185.897 312.013 186.286 311.854C186.683 311.687 187.112 311.604 187.573 311.604C187.978 311.604 188.355 311.683 188.704 311.842C189.053 311.993 189.355 312.203 189.609 312.473C189.871 312.743 190.07 313.065 190.205 313.438C190.348 313.803 190.415 314.204 190.407 314.641L190.395 315.165H185.286L185.012 314.189H189.335L189.157 314.391V314.105C189.133 313.843 189.046 313.609 188.895 313.402C188.744 313.196 188.553 313.033 188.323 312.914C188.093 312.795 187.843 312.735 187.573 312.735C187.144 312.735 186.783 312.819 186.489 312.986C186.195 313.144 185.973 313.383 185.822 313.7C185.671 314.01 185.595 314.395 185.595 314.856C185.595 315.292 185.687 315.673 185.869 315.999C186.052 316.317 186.31 316.563 186.644 316.737C186.977 316.912 187.362 316.999 187.799 316.999C188.109 316.999 188.394 316.948 188.656 316.845C188.926 316.741 189.216 316.555 189.526 316.285L190.145 317.154C189.955 317.345 189.72 317.512 189.443 317.655C189.173 317.798 188.883 317.913 188.573 318C188.271 318.079 187.974 318.119 187.68 318.119ZM191.717 318V311.747H192.955V313.081L192.729 313.224C192.793 313.017 192.892 312.819 193.027 312.628C193.17 312.438 193.341 312.271 193.539 312.128C193.746 311.977 193.964 311.858 194.194 311.771C194.432 311.683 194.675 311.64 194.921 311.64C195.278 311.64 195.592 311.699 195.862 311.818C196.132 311.937 196.354 312.116 196.529 312.354C196.703 312.593 196.83 312.89 196.91 313.248L196.719 313.2L196.803 312.997C196.89 312.815 197.009 312.644 197.16 312.485C197.319 312.319 197.497 312.172 197.696 312.045C197.894 311.918 198.105 311.818 198.327 311.747C198.55 311.675 198.768 311.64 198.982 311.64C199.451 311.64 199.836 311.735 200.138 311.926C200.447 312.116 200.678 312.406 200.828 312.795C200.987 313.184 201.067 313.668 201.067 314.248V318H199.828V314.32C199.828 313.962 199.78 313.672 199.685 313.45C199.598 313.22 199.463 313.049 199.28 312.938C199.097 312.827 198.863 312.771 198.577 312.771C198.355 312.771 198.145 312.811 197.946 312.89C197.756 312.962 197.589 313.065 197.446 313.2C197.303 313.335 197.192 313.494 197.112 313.676C197.033 313.851 196.993 314.046 196.993 314.26V318H195.755V314.296C195.755 313.97 195.707 313.696 195.612 313.474C195.516 313.244 195.377 313.069 195.195 312.95C195.012 312.831 194.79 312.771 194.528 312.771C194.305 312.771 194.099 312.811 193.908 312.89C193.718 312.962 193.551 313.065 193.408 313.2C193.265 313.327 193.154 313.482 193.075 313.664C192.995 313.839 192.955 314.03 192.955 314.236V318H191.717ZM205.627 318.119C204.984 318.119 204.412 317.984 203.912 317.714C203.42 317.436 203.031 317.059 202.745 316.583C202.467 316.106 202.328 315.558 202.328 314.939C202.328 314.447 202.407 313.998 202.566 313.593C202.725 313.188 202.943 312.839 203.221 312.545C203.507 312.243 203.845 312.013 204.234 311.854C204.631 311.687 205.06 311.604 205.52 311.604C205.925 311.604 206.302 311.683 206.652 311.842C207.001 311.993 207.303 312.203 207.557 312.473C207.819 312.743 208.017 313.065 208.152 313.438C208.295 313.803 208.363 314.204 208.355 314.641L208.343 315.165H203.233L202.959 314.189H207.283L207.104 314.391V314.105C207.08 313.843 206.993 313.609 206.842 313.402C206.691 313.196 206.501 313.033 206.27 312.914C206.04 312.795 205.79 312.735 205.52 312.735C205.091 312.735 204.73 312.819 204.436 312.986C204.142 313.144 203.92 313.383 203.769 313.7C203.618 314.01 203.543 314.395 203.543 314.856C203.543 315.292 203.634 315.673 203.817 315.999C203.999 316.317 204.258 316.563 204.591 316.737C204.925 316.912 205.31 316.999 205.746 316.999C206.056 316.999 206.342 316.948 206.604 316.845C206.874 316.741 207.164 316.555 207.473 316.285L208.093 317.154C207.902 317.345 207.668 317.512 207.39 317.655C207.12 317.798 206.83 317.913 206.521 318C206.219 318.079 205.921 318.119 205.627 318.119ZM209.688 318V311.747H210.915V313.033L210.7 313.176C210.78 312.898 210.935 312.644 211.165 312.414C211.395 312.176 211.669 311.985 211.987 311.842C212.304 311.691 212.63 311.616 212.964 311.616C213.44 311.616 213.837 311.711 214.155 311.902C214.472 312.084 214.71 312.366 214.869 312.747C215.028 313.129 215.107 313.609 215.107 314.189V318H213.881V314.272C213.881 313.915 213.833 313.621 213.738 313.391C213.642 313.152 213.496 312.982 213.297 312.878C213.099 312.767 212.852 312.72 212.559 312.735C212.32 312.735 212.102 312.775 211.903 312.855C211.705 312.926 211.53 313.029 211.379 313.164C211.236 313.299 211.121 313.458 211.034 313.641C210.955 313.815 210.915 314.006 210.915 314.212V318H210.307C210.204 318 210.101 318 209.998 318C209.895 318 209.791 318 209.688 318ZM217.546 318V310.151H218.773V318H217.546ZM216.248 312.938V311.747H220.226V312.938H216.248Z" fill="black"/>
<path d="M123.657 345.119C123.069 345.119 122.526 345.012 122.025 344.798C121.533 344.583 121.1 344.285 120.727 343.904C120.362 343.515 120.076 343.063 119.869 342.546C119.671 342.022 119.572 341.451 119.572 340.831C119.572 340.212 119.671 339.644 119.869 339.128C120.076 338.604 120.362 338.151 120.727 337.77C121.1 337.381 121.533 337.079 122.025 336.865C122.526 336.651 123.069 336.543 123.657 336.543C124.245 336.543 124.785 336.651 125.277 336.865C125.777 337.079 126.21 337.381 126.575 337.77C126.948 338.159 127.234 338.616 127.433 339.14C127.639 339.656 127.742 340.22 127.742 340.831C127.742 341.443 127.639 342.01 127.433 342.534C127.234 343.051 126.948 343.503 126.575 343.892C126.21 344.281 125.777 344.583 125.277 344.798C124.785 345.012 124.245 345.119 123.657 345.119ZM123.657 343.868C124.062 343.868 124.431 343.793 124.765 343.642C125.106 343.491 125.4 343.281 125.646 343.011C125.892 342.733 126.083 342.411 126.218 342.046C126.361 341.673 126.432 341.268 126.432 340.831C126.432 340.395 126.361 339.994 126.218 339.628C126.083 339.255 125.892 338.933 125.646 338.664C125.4 338.386 125.106 338.171 124.765 338.02C124.431 337.869 124.062 337.794 123.657 337.794C123.252 337.794 122.879 337.869 122.537 338.02C122.204 338.171 121.91 338.382 121.656 338.652C121.41 338.922 121.219 339.243 121.084 339.616C120.949 339.982 120.882 340.387 120.882 340.831C120.882 341.268 120.949 341.673 121.084 342.046C121.219 342.419 121.41 342.741 121.656 343.011C121.91 343.281 122.204 343.491 122.537 343.642C122.879 343.793 123.252 343.868 123.657 343.868ZM130.711 345L128.579 338.747L129.818 338.735L131.342 343.416L131.068 343.392L132.724 339.735H133.462L135.13 343.404L134.808 343.428L136.345 338.747H137.583L135.475 345H134.63L132.891 341.022L133.165 341.058L131.545 345H130.711ZM138.701 345V338.747H139.927V340.033L139.713 340.176C139.793 339.898 139.947 339.644 140.178 339.414C140.408 339.176 140.682 338.985 140.999 338.842C141.317 338.691 141.643 338.616 141.976 338.616C142.453 338.616 142.85 338.711 143.167 338.902C143.485 339.084 143.723 339.366 143.882 339.747C144.041 340.129 144.12 340.609 144.12 341.189V345H142.893V341.272C142.893 340.915 142.846 340.621 142.75 340.391C142.655 340.152 142.508 339.982 142.31 339.878C142.111 339.767 141.865 339.72 141.571 339.735C141.333 339.735 141.115 339.775 140.916 339.855C140.718 339.926 140.543 340.029 140.392 340.164C140.249 340.299 140.134 340.458 140.047 340.641C139.967 340.815 139.927 341.006 139.927 341.212V345H139.32C139.217 345 139.114 345 139.01 345C138.907 345 138.804 345 138.701 345ZM148.702 345.119C148.059 345.119 147.488 344.984 146.987 344.714C146.495 344.436 146.106 344.059 145.82 343.583C145.542 343.106 145.403 342.558 145.403 341.939C145.403 341.447 145.483 340.998 145.641 340.593C145.8 340.188 146.019 339.839 146.296 339.545C146.582 339.243 146.92 339.013 147.309 338.854C147.706 338.687 148.135 338.604 148.595 338.604C149 338.604 149.377 338.683 149.727 338.842C150.076 338.993 150.378 339.203 150.632 339.473C150.894 339.743 151.093 340.065 151.228 340.438C151.37 340.803 151.438 341.204 151.43 341.641L151.418 342.165H146.308L146.034 341.189H150.358L150.179 341.391V341.105C150.156 340.843 150.068 340.609 149.917 340.402C149.766 340.196 149.576 340.033 149.346 339.914C149.115 339.795 148.865 339.735 148.595 339.735C148.166 339.735 147.805 339.819 147.511 339.986C147.218 340.144 146.995 340.383 146.844 340.7C146.693 341.01 146.618 341.395 146.618 341.856C146.618 342.292 146.709 342.673 146.892 342.999C147.075 343.317 147.333 343.563 147.666 343.737C148 343.912 148.385 343.999 148.822 343.999C149.131 343.999 149.417 343.948 149.679 343.845C149.949 343.741 150.239 343.555 150.549 343.285L151.168 344.154C150.977 344.345 150.743 344.512 150.465 344.655C150.195 344.798 149.905 344.913 149.596 345C149.294 345.079 148.996 345.119 148.702 345.119ZM152.763 345V338.747H154.002V340.712L153.883 340.236C153.97 339.934 154.117 339.66 154.324 339.414C154.538 339.168 154.78 338.973 155.05 338.83C155.328 338.687 155.614 338.616 155.908 338.616C156.043 338.616 156.17 338.628 156.289 338.652C156.416 338.675 156.515 338.703 156.587 338.735L156.265 340.069C156.17 340.029 156.063 339.997 155.943 339.974C155.832 339.942 155.721 339.926 155.61 339.926C155.396 339.926 155.189 339.97 154.991 340.057C154.8 340.136 154.629 340.252 154.478 340.402C154.335 340.545 154.22 340.716 154.133 340.915C154.046 341.105 154.002 341.316 154.002 341.546V345H152.763ZM160.346 345L163.573 336.662H164.884L168.087 345H166.718L164.812 339.974C164.788 339.918 164.741 339.783 164.669 339.569C164.606 339.354 164.53 339.116 164.443 338.854C164.355 338.592 164.276 338.354 164.205 338.139C164.133 337.917 164.085 337.774 164.062 337.711L164.336 337.699C164.288 337.834 164.228 338.004 164.157 338.211C164.093 338.417 164.022 338.636 163.943 338.866C163.871 339.096 163.8 339.315 163.728 339.521C163.657 339.72 163.597 339.886 163.55 340.021L161.656 345H160.346ZM161.775 342.928L162.251 341.689H166.039L166.587 342.928H161.775ZM171.928 347.739C171.483 347.739 171.039 347.668 170.594 347.525C170.157 347.39 169.804 347.211 169.534 346.989L169.986 346.036C170.145 346.155 170.332 346.259 170.546 346.346C170.761 346.441 170.987 346.513 171.225 346.56C171.463 346.616 171.698 346.644 171.928 346.644C172.365 346.644 172.73 346.572 173.024 346.429C173.317 346.286 173.54 346.076 173.691 345.798C173.842 345.52 173.917 345.175 173.917 344.762V343.559L174.048 343.642C174.008 343.888 173.877 344.127 173.655 344.357C173.441 344.579 173.171 344.762 172.845 344.905C172.519 345.048 172.186 345.119 171.844 345.119C171.249 345.119 170.717 344.98 170.248 344.702C169.788 344.416 169.423 344.031 169.153 343.547C168.883 343.055 168.748 342.495 168.748 341.867C168.748 341.24 168.879 340.684 169.141 340.2C169.411 339.708 169.776 339.323 170.237 339.045C170.705 338.759 171.229 338.616 171.809 338.616C172.047 338.616 172.277 338.648 172.5 338.711C172.722 338.767 172.928 338.85 173.119 338.961C173.31 339.064 173.48 339.18 173.631 339.307C173.782 339.434 173.905 339.569 174 339.712C174.096 339.855 174.155 339.99 174.179 340.117L173.917 340.212V338.747H175.144V344.619C175.144 345.119 175.068 345.56 174.917 345.941C174.775 346.33 174.564 346.656 174.286 346.918C174.008 347.188 173.671 347.39 173.274 347.525C172.877 347.668 172.428 347.739 171.928 347.739ZM171.976 343.988C172.365 343.988 172.71 343.896 173.012 343.714C173.313 343.531 173.548 343.281 173.714 342.963C173.881 342.646 173.965 342.28 173.965 341.867C173.965 341.455 173.877 341.089 173.703 340.772C173.536 340.446 173.302 340.192 173 340.009C172.706 339.827 172.365 339.735 171.976 339.735C171.594 339.735 171.253 339.831 170.951 340.021C170.657 340.204 170.423 340.458 170.248 340.784C170.082 341.101 169.998 341.463 169.998 341.867C169.998 342.272 170.082 342.638 170.248 342.963C170.423 343.281 170.657 343.531 170.951 343.714C171.253 343.896 171.594 343.988 171.976 343.988ZM176.864 345V338.747H178.103V340.712L177.983 340.236C178.071 339.934 178.218 339.66 178.424 339.414C178.639 339.168 178.881 338.973 179.151 338.83C179.429 338.687 179.714 338.616 180.008 338.616C180.143 338.616 180.27 338.628 180.389 338.652C180.516 338.675 180.616 338.703 180.687 338.735L180.366 340.069C180.27 340.029 180.163 339.997 180.044 339.974C179.933 339.942 179.822 339.926 179.71 339.926C179.496 339.926 179.29 339.97 179.091 340.057C178.901 340.136 178.73 340.252 178.579 340.402C178.436 340.545 178.321 340.716 178.234 340.915C178.146 341.105 178.103 341.316 178.103 341.546V345H176.864ZM184.318 345.119C183.675 345.119 183.103 344.984 182.603 344.714C182.111 344.436 181.722 344.059 181.436 343.583C181.158 343.106 181.019 342.558 181.019 341.939C181.019 341.447 181.098 340.998 181.257 340.593C181.416 340.188 181.634 339.839 181.912 339.545C182.198 339.243 182.536 339.013 182.925 338.854C183.322 338.687 183.751 338.604 184.211 338.604C184.616 338.604 184.993 338.683 185.343 338.842C185.692 338.993 185.994 339.203 186.248 339.473C186.51 339.743 186.708 340.065 186.843 340.438C186.986 340.803 187.054 341.204 187.046 341.641L187.034 342.165H181.924L181.65 341.189H185.974L185.795 341.391V341.105C185.771 340.843 185.684 340.609 185.533 340.402C185.382 340.196 185.192 340.033 184.961 339.914C184.731 339.795 184.481 339.735 184.211 339.735C183.782 339.735 183.421 339.819 183.127 339.986C182.833 340.144 182.611 340.383 182.46 340.7C182.309 341.01 182.234 341.395 182.234 341.856C182.234 342.292 182.325 342.673 182.508 342.999C182.69 343.317 182.949 343.563 183.282 343.737C183.616 343.912 184.001 343.999 184.437 343.999C184.747 343.999 185.033 343.948 185.295 343.845C185.565 343.741 185.855 343.555 186.164 343.285L186.784 344.154C186.593 344.345 186.359 344.512 186.081 344.655C185.811 344.798 185.521 344.913 185.212 345C184.91 345.079 184.612 345.119 184.318 345.119ZM191.297 345.119C190.654 345.119 190.082 344.984 189.582 344.714C189.09 344.436 188.701 344.059 188.415 343.583C188.137 343.106 187.998 342.558 187.998 341.939C187.998 341.447 188.077 340.998 188.236 340.593C188.395 340.188 188.613 339.839 188.891 339.545C189.177 339.243 189.515 339.013 189.904 338.854C190.301 338.687 190.729 338.604 191.19 338.604C191.595 338.604 191.972 338.683 192.322 338.842C192.671 338.993 192.973 339.203 193.227 339.473C193.489 339.743 193.687 340.065 193.822 340.438C193.965 340.803 194.033 341.204 194.025 341.641L194.013 342.165H188.903L188.629 341.189H192.953L192.774 341.391V341.105C192.75 340.843 192.663 340.609 192.512 340.402C192.361 340.196 192.171 340.033 191.94 339.914C191.71 339.795 191.46 339.735 191.19 339.735C190.761 339.735 190.4 339.819 190.106 339.986C189.812 340.144 189.59 340.383 189.439 340.7C189.288 341.01 189.213 341.395 189.213 341.856C189.213 342.292 189.304 342.673 189.487 342.999C189.669 343.317 189.927 343.563 190.261 343.737C190.594 343.912 190.98 343.999 191.416 343.999C191.726 343.999 192.012 343.948 192.274 343.845C192.544 343.741 192.834 343.555 193.143 343.285L193.763 344.154C193.572 344.345 193.338 344.512 193.06 344.655C192.79 344.798 192.5 344.913 192.19 345C191.889 345.079 191.591 345.119 191.297 345.119ZM195.334 345V338.747H196.573V340.081L196.347 340.224C196.41 340.017 196.509 339.819 196.644 339.628C196.787 339.438 196.958 339.271 197.157 339.128C197.363 338.977 197.581 338.858 197.812 338.771C198.05 338.683 198.292 338.64 198.538 338.64C198.895 338.64 199.209 338.699 199.479 338.818C199.749 338.937 199.971 339.116 200.146 339.354C200.321 339.593 200.448 339.89 200.527 340.248L200.337 340.2L200.42 339.997C200.507 339.815 200.627 339.644 200.777 339.485C200.936 339.319 201.115 339.172 201.313 339.045C201.512 338.918 201.722 338.818 201.945 338.747C202.167 338.675 202.385 338.64 202.6 338.64C203.068 338.64 203.453 338.735 203.755 338.926C204.065 339.116 204.295 339.406 204.446 339.795C204.605 340.184 204.684 340.668 204.684 341.248V345H203.445V341.32C203.445 340.962 203.398 340.672 203.302 340.45C203.215 340.22 203.08 340.049 202.897 339.938C202.715 339.827 202.481 339.771 202.195 339.771C201.972 339.771 201.762 339.811 201.563 339.89C201.373 339.962 201.206 340.065 201.063 340.2C200.92 340.335 200.809 340.494 200.73 340.676C200.65 340.851 200.611 341.046 200.611 341.26V345H199.372V341.296C199.372 340.97 199.324 340.696 199.229 340.474C199.134 340.244 198.995 340.069 198.812 339.95C198.629 339.831 198.407 339.771 198.145 339.771C197.923 339.771 197.716 339.811 197.526 339.89C197.335 339.962 197.168 340.065 197.026 340.2C196.883 340.327 196.771 340.482 196.692 340.664C196.613 340.839 196.573 341.03 196.573 341.236V345H195.334ZM209.245 345.119C208.602 345.119 208.03 344.984 207.53 344.714C207.037 344.436 206.648 344.059 206.362 343.583C206.084 343.106 205.945 342.558 205.945 341.939C205.945 341.447 206.025 340.998 206.184 340.593C206.342 340.188 206.561 339.839 206.839 339.545C207.125 339.243 207.462 339.013 207.851 338.854C208.248 338.687 208.677 338.604 209.137 338.604C209.542 338.604 209.92 338.683 210.269 338.842C210.618 338.993 210.92 339.203 211.174 339.473C211.436 339.743 211.635 340.065 211.77 340.438C211.913 340.803 211.98 341.204 211.972 341.641L211.96 342.165H206.851L206.577 341.189H210.9L210.722 341.391V341.105C210.698 340.843 210.61 340.609 210.46 340.402C210.309 340.196 210.118 340.033 209.888 339.914C209.658 339.795 209.407 339.735 209.137 339.735C208.709 339.735 208.347 339.819 208.054 339.986C207.76 340.144 207.537 340.383 207.387 340.7C207.236 341.01 207.16 341.395 207.16 341.856C207.16 342.292 207.252 342.673 207.434 342.999C207.617 343.317 207.875 343.563 208.208 343.737C208.542 343.912 208.927 343.999 209.364 343.999C209.673 343.999 209.959 343.948 210.221 343.845C210.491 343.741 210.781 343.555 211.091 343.285L211.71 344.154C211.52 344.345 211.285 344.512 211.007 344.655C210.738 344.798 210.448 344.913 210.138 345C209.836 345.079 209.538 345.119 209.245 345.119ZM213.306 345V338.747H214.532V340.033L214.318 340.176C214.397 339.898 214.552 339.644 214.782 339.414C215.013 339.176 215.287 338.985 215.604 338.842C215.922 338.691 216.247 338.616 216.581 338.616C217.057 338.616 217.454 338.711 217.772 338.902C218.09 339.084 218.328 339.366 218.487 339.747C218.645 340.129 218.725 340.609 218.725 341.189V345H217.498V341.272C217.498 340.915 217.45 340.621 217.355 340.391C217.26 340.152 217.113 339.982 216.914 339.878C216.716 339.767 216.47 339.72 216.176 339.735C215.938 339.735 215.719 339.775 215.521 339.855C215.322 339.926 215.148 340.029 214.997 340.164C214.854 340.299 214.739 340.458 214.651 340.641C214.572 340.815 214.532 341.006 214.532 341.212V345H213.925C213.822 345 213.718 345 213.615 345C213.512 345 213.409 345 213.306 345ZM221.163 345V337.151H222.39V345H221.163ZM219.865 339.938V338.747H223.843V339.938H219.865Z" fill="black"/>
<rect x="108" y="380" width="265" height="29" rx="5" fill="#0900FF"/>
<path d="M225.788 399.119C225.271 399.119 224.799 399.056 224.37 398.929C223.949 398.801 223.572 398.615 223.239 398.369C222.913 398.123 222.619 397.825 222.357 397.475L223.477 396.201C223.866 396.741 224.251 397.11 224.632 397.309C225.021 397.499 225.442 397.595 225.895 397.595C226.141 397.595 226.359 397.559 226.55 397.487C226.748 397.416 226.903 397.321 227.014 397.201C227.126 397.074 227.181 396.924 227.181 396.749C227.181 396.622 227.153 396.507 227.098 396.403C227.042 396.292 226.963 396.197 226.86 396.118C226.756 396.03 226.633 395.955 226.49 395.891C226.347 395.82 226.189 395.76 226.014 395.713C225.839 395.657 225.649 395.613 225.442 395.582C224.998 395.478 224.608 395.355 224.275 395.212C223.941 395.062 223.664 394.879 223.441 394.664C223.219 394.442 223.052 394.192 222.941 393.914C222.838 393.636 222.786 393.323 222.786 392.973C222.786 392.616 222.866 392.286 223.024 391.985C223.183 391.675 223.401 391.409 223.679 391.187C223.965 390.964 224.291 390.794 224.656 390.674C225.029 390.555 225.422 390.496 225.835 390.496C226.343 390.496 226.788 390.551 227.169 390.662C227.55 390.774 227.88 390.94 228.158 391.163C228.444 391.377 228.682 391.639 228.872 391.949L227.741 393.045C227.574 392.822 227.392 392.636 227.193 392.485C227.003 392.334 226.792 392.223 226.562 392.151C226.339 392.072 226.109 392.032 225.871 392.032C225.609 392.032 225.383 392.068 225.192 392.139C225.002 392.203 224.851 392.302 224.739 392.437C224.636 392.564 224.585 392.715 224.585 392.89C224.585 393.033 224.62 393.16 224.692 393.271C224.763 393.382 224.867 393.481 225.002 393.569C225.136 393.648 225.299 393.72 225.49 393.783C225.68 393.847 225.891 393.902 226.121 393.95C226.558 394.037 226.951 394.152 227.3 394.295C227.65 394.438 227.947 394.613 228.194 394.819C228.448 395.018 228.642 395.256 228.777 395.534C228.912 395.804 228.98 396.11 228.98 396.451C228.98 397.015 228.845 397.495 228.575 397.892C228.305 398.289 227.932 398.595 227.455 398.809C226.979 399.016 226.423 399.119 225.788 399.119ZM233.349 399.119C232.666 399.119 232.067 398.98 231.551 398.702C231.043 398.424 230.646 398.043 230.36 397.559C230.082 397.074 229.943 396.519 229.943 395.891C229.943 395.399 230.022 394.95 230.181 394.545C230.34 394.14 230.562 393.791 230.848 393.497C231.134 393.196 231.471 392.965 231.86 392.806C232.257 392.64 232.686 392.556 233.147 392.556C233.576 392.556 233.973 392.636 234.338 392.795C234.703 392.953 235.017 393.176 235.279 393.462C235.549 393.739 235.755 394.073 235.898 394.462C236.041 394.843 236.105 395.256 236.089 395.701L236.077 396.225H231.015L230.741 395.189H234.683L234.493 395.403V395.141C234.477 394.927 234.405 394.736 234.278 394.569C234.159 394.395 234.004 394.26 233.814 394.164C233.623 394.061 233.409 394.009 233.171 394.009C232.821 394.009 232.523 394.077 232.277 394.212C232.039 394.347 231.856 394.545 231.729 394.807C231.602 395.069 231.539 395.387 231.539 395.76C231.539 396.141 231.618 396.471 231.777 396.749C231.944 397.027 232.174 397.245 232.468 397.404C232.77 397.555 233.123 397.63 233.528 397.63C233.806 397.63 234.06 397.587 234.29 397.499C234.52 397.412 234.767 397.261 235.029 397.047L235.839 398.178C235.608 398.385 235.354 398.559 235.076 398.702C234.798 398.837 234.513 398.94 234.219 399.012C233.925 399.083 233.635 399.119 233.349 399.119ZM237.35 399V390.186H239.042V399H237.35ZM243.632 399.119C242.949 399.119 242.349 398.98 241.833 398.702C241.325 398.424 240.928 398.043 240.642 397.559C240.364 397.074 240.225 396.519 240.225 395.891C240.225 395.399 240.304 394.95 240.463 394.545C240.622 394.14 240.844 393.791 241.13 393.497C241.416 393.196 241.754 392.965 242.143 392.806C242.54 392.64 242.969 392.556 243.429 392.556C243.858 392.556 244.255 392.636 244.62 392.795C244.985 392.953 245.299 393.176 245.561 393.462C245.831 393.739 246.037 394.073 246.18 394.462C246.323 394.843 246.387 395.256 246.371 395.701L246.359 396.225H241.297L241.023 395.189H244.966L244.775 395.403V395.141C244.759 394.927 244.688 394.736 244.561 394.569C244.441 394.395 244.287 394.26 244.096 394.164C243.905 394.061 243.691 394.009 243.453 394.009C243.103 394.009 242.806 394.077 242.56 394.212C242.321 394.347 242.139 394.545 242.012 394.807C241.885 395.069 241.821 395.387 241.821 395.76C241.821 396.141 241.901 396.471 242.059 396.749C242.226 397.027 242.456 397.245 242.75 397.404C243.052 397.555 243.405 397.63 243.81 397.63C244.088 397.63 244.342 397.587 244.572 397.499C244.803 397.412 245.049 397.261 245.311 397.047L246.121 398.178C245.891 398.385 245.637 398.559 245.359 398.702C245.081 398.837 244.795 398.94 244.501 399.012C244.207 399.083 243.917 399.119 243.632 399.119ZM250.36 399.119C249.757 399.119 249.217 398.976 248.74 398.69C248.264 398.404 247.887 398.015 247.609 397.523C247.339 397.031 247.204 396.471 247.204 395.844C247.204 395.216 247.339 394.657 247.609 394.164C247.887 393.672 248.264 393.283 248.74 392.997C249.217 392.711 249.757 392.568 250.36 392.568C250.924 392.568 251.44 392.671 251.909 392.878C252.377 393.084 252.742 393.37 253.005 393.735L252.075 394.855C251.964 394.704 251.825 394.569 251.659 394.45C251.492 394.323 251.309 394.224 251.111 394.152C250.92 394.081 250.722 394.045 250.515 394.045C250.19 394.045 249.9 394.125 249.646 394.283C249.4 394.434 249.205 394.645 249.062 394.915C248.919 395.185 248.848 395.494 248.848 395.844C248.848 396.177 248.919 396.479 249.062 396.749C249.213 397.019 249.415 397.233 249.67 397.392C249.924 397.551 250.209 397.63 250.527 397.63C250.734 397.63 250.928 397.602 251.111 397.547C251.293 397.491 251.464 397.404 251.623 397.285C251.79 397.166 251.94 397.023 252.075 396.856L252.993 397.976C252.731 398.317 252.357 398.595 251.873 398.809C251.397 399.016 250.892 399.119 250.36 399.119ZM254.684 399V391.103H256.375V399H254.684ZM253.505 394.212V392.699H257.673V394.212H253.505Z" fill="white"/>
<rect x="108.15" y="145.15" width="264.7" height="28.7" rx="4.85" stroke="black" stroke-opacity="0.4" stroke-width="0.3"/>
<path d="M347 158L352.5 163.5L358 158" stroke="#999999" stroke-linecap="round"/>
</g>
<defs>
<filter id="filter0_d_4_1136" x="92.9" y="177.9" width="295.2" height="206.2" filterUnits="userSpaceOnUse" color-interpolation-filters="sRGB">
<feFlood flood-opacity="0" result="BackgroundImageFix"/>
<feColorMatrix in="SourceAlpha" type="matrix" values="0 0 0 0 0 0 0 0 0 0 0 0 0 0 0 0 0 0 127 0" result="hardAlpha"/>
<feMorphology radius="5" operator="dilate" in="SourceAlpha" result="effect1_dropShadow_4_1136"/>
<feOffset dy="4"/>
<feGaussianBlur stdDeviation="5.05"/>
<feComposite in2="hardAlpha" operator="out"/>
<feColorMatrix type="matrix" values="0 0 0 0 0 0 0 0 0 0 0 0 0 0 0 0 0 0 0.06 0"/>
<feBlend mode="normal" in2="BackgroundImageFix" result="effect1_dropShadow_4_1136"/>
<feBlend mode="normal" in="SourceGraphic" in2="effect1_dropShadow_4_1136" result="shape"/>
</filter>
<clipPath id="clip0_4_1136">
<rect width="480" height="540" fill="white"/>
</clipPath>
</defs>
</svg>
