<svg width="480" height="540" viewBox="0 0 480 540" fill="none" xmlns="http://www.w3.org/2000/svg">
<g clip-path="url(#clip0_190_842)">
<path d="M85 76H396C405.389 76 413 83.6112 413 93V447C413 456.389 405.389 464 396 464H85C75.6111 464 68 456.389 68 447V93C68 83.6112 75.6111 76 85 76Z" fill="#F1F5F7"/>
<path d="M91.652 121.21C90.518 121.21 89.475 121.021 88.523 120.643C87.585 120.251 86.773 119.712 86.087 119.026C85.401 118.34 84.869 117.535 84.491 116.611C84.127 115.687 83.945 114.686 83.945 113.608C83.945 112.53 84.134 111.536 84.512 110.626C84.904 109.702 85.45 108.904 86.15 108.232C86.864 107.546 87.697 107.014 88.649 106.636C89.601 106.258 90.644 106.069 91.778 106.069C92.562 106.069 93.311 106.174 94.025 106.384C94.739 106.594 95.39 106.881 95.978 107.245C96.566 107.609 97.056 108.029 97.448 108.505L95.495 110.563C95.131 110.213 94.753 109.919 94.361 109.681C93.969 109.429 93.549 109.24 93.101 109.114C92.667 108.974 92.219 108.904 91.757 108.904C91.099 108.904 90.49 109.023 89.93 109.261C89.384 109.499 88.901 109.828 88.481 110.248C88.061 110.668 87.732 111.165 87.494 111.739C87.27 112.313 87.158 112.936 87.158 113.608C87.158 114.266 87.277 114.889 87.515 115.477C87.767 116.051 88.103 116.555 88.523 116.989C88.957 117.409 89.461 117.745 90.035 117.997C90.609 118.235 91.225 118.354 91.883 118.354C92.359 118.354 92.8 118.284 93.206 118.144C93.626 118.004 93.99 117.808 94.298 117.556C94.62 117.29 94.865 116.982 95.033 116.632C95.215 116.282 95.306 115.911 95.306 115.519V115.015L95.726 115.603H91.526V112.978H98.33C98.344 113.132 98.358 113.321 98.372 113.545C98.4 113.769 98.414 113.993 98.414 114.217C98.428 114.427 98.435 114.595 98.435 114.721C98.435 115.673 98.26 116.548 97.91 117.346C97.574 118.144 97.098 118.83 96.482 119.404C95.88 119.978 95.166 120.426 94.34 120.748C93.514 121.056 92.618 121.21 91.652 121.21ZM104.637 121.21C103.825 121.21 103.125 121.035 102.537 120.685C101.963 120.321 101.515 119.81 101.193 119.152C100.885 118.48 100.731 117.675 100.731 116.737V109.891H103.713V116.254C103.713 116.758 103.797 117.199 103.965 117.577C104.133 117.941 104.371 118.221 104.679 118.417C104.987 118.613 105.365 118.711 105.813 118.711C106.135 118.711 106.429 118.662 106.695 118.564C106.975 118.452 107.213 118.298 107.409 118.102C107.619 117.906 107.78 117.675 107.892 117.409C108.004 117.143 108.06 116.856 108.06 116.548V109.891H111.042V121H108.207L108.102 118.711L108.648 118.459C108.48 118.977 108.2 119.446 107.808 119.866C107.416 120.286 106.947 120.615 106.401 120.853C105.855 121.091 105.267 121.21 104.637 121.21ZM114.295 121V109.891H117.277V121H114.295ZM115.765 107.623C115.191 107.623 114.743 107.483 114.421 107.203C114.099 106.909 113.938 106.503 113.938 105.985C113.938 105.509 114.099 105.124 114.421 104.83C114.757 104.522 115.205 104.368 115.765 104.368C116.339 104.368 116.787 104.515 117.109 104.809C117.431 105.089 117.592 105.481 117.592 105.985C117.592 106.461 117.424 106.853 117.088 107.161C116.766 107.469 116.325 107.623 115.765 107.623ZM124.809 121.21C123.829 121.21 122.954 120.965 122.184 120.475C121.428 119.971 120.826 119.292 120.378 118.438C119.944 117.57 119.727 116.569 119.727 115.435C119.727 114.329 119.944 113.342 120.378 112.474C120.826 111.592 121.428 110.906 122.184 110.416C122.954 109.912 123.829 109.66 124.809 109.66C125.327 109.66 125.824 109.744 126.3 109.912C126.79 110.066 127.224 110.283 127.602 110.563C127.994 110.843 128.309 111.158 128.547 111.508C128.785 111.844 128.918 112.194 128.946 112.558L128.19 112.705V105.46H131.193V121H128.358L128.232 118.438L128.82 118.501C128.792 118.851 128.666 119.187 128.442 119.509C128.218 119.831 127.917 120.125 127.539 120.391C127.175 120.643 126.755 120.846 126.279 121C125.817 121.14 125.327 121.21 124.809 121.21ZM125.481 118.732C126.041 118.732 126.531 118.592 126.951 118.312C127.371 118.032 127.7 117.647 127.938 117.157C128.176 116.667 128.295 116.093 128.295 115.435C128.295 114.791 128.176 114.224 127.938 113.734C127.7 113.244 127.371 112.859 126.951 112.579C126.531 112.299 126.041 112.159 125.481 112.159C124.921 112.159 124.431 112.299 124.011 112.579C123.605 112.859 123.283 113.244 123.045 113.734C122.821 114.224 122.709 114.791 122.709 115.435C122.709 116.093 122.821 116.667 123.045 117.157C123.283 117.647 123.605 118.032 124.011 118.312C124.431 118.592 124.921 118.732 125.481 118.732ZM139.35 121.21C138.146 121.21 137.089 120.965 136.179 120.475C135.283 119.985 134.583 119.313 134.079 118.459C133.589 117.605 133.344 116.625 133.344 115.519C133.344 114.651 133.484 113.86 133.764 113.146C134.044 112.432 134.436 111.816 134.94 111.298C135.444 110.766 136.039 110.36 136.725 110.08C137.425 109.786 138.181 109.639 138.993 109.639C139.749 109.639 140.449 109.779 141.093 110.059C141.737 110.339 142.29 110.731 142.752 111.235C143.228 111.725 143.592 112.313 143.844 112.999C144.096 113.671 144.208 114.399 144.18 115.183L144.159 116.107H135.234L134.751 114.28H141.702L141.366 114.658V114.196C141.338 113.818 141.212 113.482 140.988 113.188C140.778 112.88 140.505 112.642 140.169 112.474C139.833 112.292 139.455 112.201 139.035 112.201C138.419 112.201 137.894 112.32 137.46 112.558C137.04 112.796 136.718 113.146 136.494 113.608C136.27 114.07 136.158 114.63 136.158 115.288C136.158 115.96 136.298 116.541 136.578 117.031C136.872 117.521 137.278 117.906 137.796 118.186C138.328 118.452 138.951 118.585 139.665 118.585C140.155 118.585 140.603 118.508 141.009 118.354C141.415 118.2 141.849 117.934 142.311 117.556L143.739 119.551C143.333 119.915 142.885 120.223 142.395 120.475C141.905 120.713 141.401 120.895 140.883 121.021C140.365 121.147 139.854 121.21 139.35 121.21ZM152.865 121V118.291H155.322V109.009H152.865V106.3H160.929V109.009H158.472V118.291H160.929V121H152.865ZM163.959 121V109.891H166.815L166.899 112.159L166.311 112.411C166.465 111.907 166.738 111.452 167.13 111.046C167.536 110.626 168.019 110.29 168.579 110.038C169.139 109.786 169.727 109.66 170.343 109.66C171.183 109.66 171.883 109.828 172.443 110.164C173.017 110.5 173.444 111.011 173.724 111.697C174.018 112.369 174.165 113.202 174.165 114.196V121H171.183V114.427C171.183 113.923 171.113 113.503 170.973 113.167C170.833 112.831 170.616 112.586 170.322 112.432C170.042 112.278 169.692 112.208 169.272 112.222C168.936 112.222 168.621 112.278 168.327 112.39C168.047 112.488 167.802 112.635 167.592 112.831C167.396 113.027 167.235 113.251 167.109 113.503C166.997 113.755 166.941 114.028 166.941 114.322V121H165.471C165.149 121 164.862 121 164.61 121C164.358 121 164.141 121 163.959 121ZM177.883 121V109.114C177.883 108.428 178.037 107.805 178.345 107.245C178.653 106.685 179.073 106.244 179.605 105.922C180.151 105.6 180.788 105.439 181.516 105.439C182.006 105.439 182.468 105.523 182.902 105.691C183.336 105.845 183.707 106.055 184.015 106.321L183.133 108.526C182.951 108.414 182.762 108.323 182.566 108.253C182.384 108.169 182.216 108.127 182.062 108.127C181.796 108.127 181.572 108.176 181.39 108.274C181.222 108.358 181.096 108.491 181.012 108.673C180.928 108.841 180.886 109.058 180.886 109.324V121H179.395C179.073 121 178.786 121 178.534 121C178.282 121 178.065 121 177.883 121ZM176.224 112.684V110.164H183.28V112.684H176.224ZM190.022 121.21C188.888 121.21 187.873 120.965 186.977 120.475C186.095 119.971 185.395 119.285 184.877 118.417C184.373 117.549 184.121 116.555 184.121 115.435C184.121 114.315 184.373 113.321 184.877 112.453C185.395 111.585 186.095 110.906 186.977 110.416C187.873 109.912 188.888 109.66 190.022 109.66C191.142 109.66 192.143 109.912 193.025 110.416C193.921 110.906 194.621 111.585 195.125 112.453C195.629 113.321 195.881 114.315 195.881 115.435C195.881 116.555 195.629 117.549 195.125 118.417C194.621 119.285 193.921 119.971 193.025 120.475C192.143 120.965 191.142 121.21 190.022 121.21ZM190.022 118.606C190.568 118.606 191.058 118.473 191.492 118.207C191.926 117.927 192.262 117.549 192.5 117.073C192.752 116.583 192.871 116.037 192.857 115.435C192.871 114.819 192.752 114.273 192.5 113.797C192.262 113.307 191.926 112.929 191.492 112.663C191.058 112.383 190.568 112.243 190.022 112.243C189.462 112.243 188.965 112.383 188.531 112.663C188.097 112.943 187.754 113.321 187.502 113.797C187.25 114.273 187.131 114.819 187.145 115.435C187.131 116.037 187.25 116.583 187.502 117.073C187.754 117.549 188.097 117.927 188.531 118.207C188.965 118.473 189.462 118.606 190.022 118.606ZM198.145 121V109.891H201.022L201.127 113.461L200.623 112.726C200.791 112.152 201.064 111.634 201.442 111.172C201.82 110.696 202.261 110.325 202.765 110.059C203.283 109.793 203.822 109.66 204.382 109.66C204.62 109.66 204.851 109.681 205.075 109.723C205.299 109.765 205.488 109.814 205.642 109.87L204.844 113.146C204.69 113.062 204.487 112.992 204.235 112.936C203.997 112.866 203.752 112.831 203.5 112.831C203.164 112.831 202.849 112.894 202.555 113.02C202.275 113.132 202.03 113.3 201.82 113.524C201.61 113.734 201.442 113.986 201.316 114.28C201.204 114.574 201.148 114.896 201.148 115.246V121H198.145ZM207.332 121V109.891H210.209L210.272 112.012L209.831 112.096C209.985 111.732 210.188 111.403 210.44 111.109C210.706 110.815 211.007 110.563 211.343 110.353C211.679 110.143 212.036 109.982 212.414 109.87C212.792 109.744 213.17 109.681 213.548 109.681C214.122 109.681 214.64 109.772 215.102 109.954C215.564 110.136 215.956 110.423 216.278 110.815C216.6 111.193 216.852 111.697 217.034 112.327L216.572 112.285L216.719 111.949C216.901 111.613 217.132 111.305 217.412 111.025C217.692 110.745 218.007 110.507 218.357 110.311C218.707 110.115 219.071 109.961 219.449 109.849C219.827 109.737 220.198 109.681 220.562 109.681C221.43 109.681 222.151 109.856 222.725 110.206C223.299 110.542 223.726 111.053 224.006 111.739C224.3 112.425 224.447 113.265 224.447 114.259V121H221.465V114.469C221.465 113.965 221.395 113.552 221.255 113.23C221.115 112.908 220.912 112.67 220.646 112.516C220.38 112.348 220.037 112.264 219.617 112.264C219.295 112.264 218.994 112.32 218.714 112.432C218.448 112.53 218.21 112.677 218 112.873C217.804 113.055 217.65 113.279 217.538 113.545C217.426 113.797 217.37 114.07 217.37 114.364V121H214.367V114.448C214.367 113.986 214.297 113.594 214.157 113.272C214.017 112.936 213.814 112.684 213.548 112.516C213.282 112.348 212.953 112.264 212.561 112.264C212.239 112.264 211.938 112.32 211.658 112.432C211.392 112.53 211.161 112.677 210.965 112.873C210.769 113.055 210.615 113.272 210.503 113.524C210.391 113.776 210.335 114.049 210.335 114.343V121H207.332ZM231.445 121.21C230.521 121.21 229.688 120.958 228.946 120.454C228.204 119.95 227.616 119.264 227.182 118.396C226.748 117.528 226.531 116.534 226.531 115.414C226.531 114.294 226.748 113.3 227.182 112.432C227.63 111.564 228.232 110.885 228.988 110.395C229.744 109.905 230.605 109.66 231.571 109.66C232.117 109.66 232.614 109.744 233.062 109.912C233.524 110.066 233.923 110.283 234.259 110.563C234.609 110.843 234.903 111.165 235.141 111.529C235.379 111.893 235.547 112.285 235.645 112.705L235.015 112.6V109.891H237.976V121H234.973V118.333L235.645 118.27C235.533 118.662 235.351 119.033 235.099 119.383C234.847 119.733 234.532 120.048 234.154 120.328C233.79 120.594 233.377 120.811 232.915 120.979C232.453 121.133 231.963 121.21 231.445 121.21ZM232.264 118.627C232.824 118.627 233.314 118.494 233.734 118.228C234.154 117.962 234.476 117.591 234.7 117.115C234.938 116.625 235.057 116.058 235.057 115.414C235.057 114.784 234.938 114.231 234.7 113.755C234.476 113.279 234.154 112.908 233.734 112.642C233.314 112.362 232.824 112.222 232.264 112.222C231.718 112.222 231.235 112.362 230.815 112.642C230.409 112.908 230.087 113.279 229.849 113.755C229.611 114.231 229.492 114.784 229.492 115.414C229.492 116.058 229.611 116.625 229.849 117.115C230.087 117.591 230.409 117.962 230.815 118.228C231.235 118.494 231.718 118.627 232.264 118.627ZM242.037 121V107.077H245.019V121H242.037ZM239.958 112.558V109.891H247.308V112.558H239.958ZM249.482 121V109.891H252.464V121H249.482ZM250.952 107.623C250.378 107.623 249.93 107.483 249.608 107.203C249.286 106.909 249.125 106.503 249.125 105.985C249.125 105.509 249.286 105.124 249.608 104.83C249.944 104.522 250.392 104.368 250.952 104.368C251.526 104.368 251.974 104.515 252.296 104.809C252.618 105.089 252.779 105.481 252.779 105.985C252.779 106.461 252.611 106.853 252.275 107.161C251.953 107.469 251.512 107.623 250.952 107.623ZM260.815 121.21C259.681 121.21 258.666 120.965 257.77 120.475C256.888 119.971 256.188 119.285 255.67 118.417C255.166 117.549 254.914 116.555 254.914 115.435C254.914 114.315 255.166 113.321 255.67 112.453C256.188 111.585 256.888 110.906 257.77 110.416C258.666 109.912 259.681 109.66 260.815 109.66C261.935 109.66 262.936 109.912 263.818 110.416C264.714 110.906 265.414 111.585 265.918 112.453C266.422 113.321 266.674 114.315 266.674 115.435C266.674 116.555 266.422 117.549 265.918 118.417C265.414 119.285 264.714 119.971 263.818 120.475C262.936 120.965 261.935 121.21 260.815 121.21ZM260.815 118.606C261.361 118.606 261.851 118.473 262.285 118.207C262.719 117.927 263.055 117.549 263.293 117.073C263.545 116.583 263.664 116.037 263.65 115.435C263.664 114.819 263.545 114.273 263.293 113.797C263.055 113.307 262.719 112.929 262.285 112.663C261.851 112.383 261.361 112.243 260.815 112.243C260.255 112.243 259.758 112.383 259.324 112.663C258.89 112.943 258.547 113.321 258.295 113.797C258.043 114.273 257.924 114.819 257.938 115.435C257.924 116.037 258.043 116.583 258.295 117.073C258.547 117.549 258.89 117.927 259.324 118.207C259.758 118.473 260.255 118.606 260.815 118.606ZM268.938 121V109.891H271.794L271.878 112.159L271.29 112.411C271.444 111.907 271.717 111.452 272.109 111.046C272.515 110.626 272.998 110.29 273.558 110.038C274.118 109.786 274.706 109.66 275.322 109.66C276.162 109.66 276.862 109.828 277.422 110.164C277.996 110.5 278.423 111.011 278.703 111.697C278.997 112.369 279.144 113.202 279.144 114.196V121H276.162V114.427C276.162 113.923 276.092 113.503 275.952 113.167C275.812 112.831 275.595 112.586 275.301 112.432C275.021 112.278 274.671 112.208 274.251 112.222C273.915 112.222 273.6 112.278 273.306 112.39C273.026 112.488 272.781 112.635 272.571 112.831C272.375 113.027 272.214 113.251 272.088 113.503C271.976 113.755 271.92 114.028 271.92 114.322V121H270.45C270.128 121 269.841 121 269.589 121C269.337 121 269.12 121 268.938 121Z" fill="black"/>
<rect x="83" y="141" width="154" height="62" rx="9" fill="white"/>
<rect x="244" y="141" width="154" height="62" rx="9" fill="white"/>
<path d="M93.98 161V154H94.95L99.23 159.73L99.07 159.82C99.0433 159.653 99.02 159.473 99 159.28C98.98 159.08 98.96 158.87 98.94 158.65C98.9267 158.423 98.9133 158.187 98.9 157.94C98.8933 157.687 98.8867 157.423 98.88 157.15C98.8733 156.877 98.87 156.593 98.87 156.3V154H99.95V161H98.96L94.75 155.48L94.86 155.34C94.8933 155.747 94.92 156.093 94.94 156.38C94.9667 156.66 94.9867 156.9 95 157.1C95.02 157.293 95.0333 157.453 95.04 157.58C95.0467 157.7 95.05 157.8 95.05 157.88C95.0567 157.96 95.06 158.03 95.06 158.09V161H93.98ZM103.67 161.1C103.236 161.1 102.84 160.98 102.48 160.74C102.126 160.5 101.843 160.173 101.63 159.76C101.416 159.347 101.31 158.88 101.31 158.36C101.31 157.833 101.416 157.367 101.63 156.96C101.85 156.547 102.143 156.223 102.51 155.99C102.883 155.757 103.3 155.64 103.76 155.64C104.033 155.64 104.283 155.68 104.51 155.76C104.736 155.84 104.933 155.953 105.1 156.1C105.273 156.24 105.413 156.403 105.52 156.59C105.633 156.777 105.703 156.977 105.73 157.19L105.5 157.11V155.75H106.54V161H105.5V159.75L105.74 159.68C105.7 159.86 105.616 160.037 105.49 160.21C105.37 160.377 105.213 160.527 105.02 160.66C104.833 160.793 104.623 160.9 104.39 160.98C104.163 161.06 103.923 161.1 103.67 161.1ZM103.94 160.15C104.253 160.15 104.53 160.073 104.77 159.92C105.01 159.767 105.196 159.557 105.33 159.29C105.47 159.017 105.54 158.707 105.54 158.36C105.54 158.02 105.47 157.717 105.33 157.45C105.196 157.183 105.01 156.973 104.77 156.82C104.53 156.667 104.253 156.59 103.94 156.59C103.633 156.59 103.36 156.667 103.12 156.82C102.886 156.973 102.7 157.183 102.56 157.45C102.426 157.717 102.36 158.02 102.36 158.36C102.36 158.707 102.426 159.017 102.56 159.29C102.7 159.557 102.886 159.767 103.12 159.92C103.36 160.073 103.633 160.15 103.94 160.15ZM107.958 161V155.75H108.998V156.87L108.808 156.99C108.861 156.817 108.944 156.65 109.058 156.49C109.178 156.33 109.321 156.19 109.488 156.07C109.661 155.943 109.844 155.843 110.038 155.77C110.238 155.697 110.441 155.66 110.648 155.66C110.948 155.66 111.211 155.71 111.438 155.81C111.664 155.91 111.851 156.06 111.998 156.26C112.144 156.46 112.251 156.71 112.318 157.01L112.158 156.97L112.228 156.8C112.301 156.647 112.401 156.503 112.528 156.37C112.661 156.23 112.811 156.107 112.978 156C113.144 155.893 113.321 155.81 113.508 155.75C113.694 155.69 113.878 155.66 114.058 155.66C114.451 155.66 114.774 155.74 115.028 155.9C115.288 156.06 115.481 156.303 115.608 156.63C115.741 156.957 115.808 157.363 115.808 157.85V161H114.768V157.91C114.768 157.61 114.728 157.367 114.648 157.18C114.574 156.987 114.461 156.843 114.308 156.75C114.154 156.657 113.958 156.61 113.718 156.61C113.531 156.61 113.354 156.643 113.188 156.71C113.028 156.77 112.888 156.857 112.768 156.97C112.648 157.083 112.554 157.217 112.488 157.37C112.421 157.517 112.388 157.68 112.388 157.86V161H111.348V157.89C111.348 157.617 111.308 157.387 111.228 157.2C111.148 157.007 111.031 156.86 110.878 156.76C110.724 156.66 110.538 156.61 110.318 156.61C110.131 156.61 109.958 156.643 109.798 156.71C109.638 156.77 109.498 156.857 109.378 156.97C109.258 157.077 109.164 157.207 109.098 157.36C109.031 157.507 108.998 157.667 108.998 157.84V161H107.958ZM119.637 161.1C119.097 161.1 118.617 160.987 118.197 160.76C117.783 160.527 117.457 160.21 117.217 159.81C116.983 159.41 116.867 158.95 116.867 158.43C116.867 158.017 116.933 157.64 117.067 157.3C117.2 156.96 117.383 156.667 117.617 156.42C117.857 156.167 118.14 155.973 118.467 155.84C118.8 155.7 119.16 155.63 119.547 155.63C119.887 155.63 120.203 155.697 120.497 155.83C120.79 155.957 121.043 156.133 121.257 156.36C121.477 156.587 121.643 156.857 121.757 157.17C121.877 157.477 121.933 157.813 121.927 158.18L121.917 158.62H117.627L117.397 157.8H121.027L120.877 157.97V157.73C120.857 157.51 120.783 157.313 120.657 157.14C120.53 156.967 120.37 156.83 120.177 156.73C119.983 156.63 119.773 156.58 119.547 156.58C119.187 156.58 118.883 156.65 118.637 156.79C118.39 156.923 118.203 157.123 118.077 157.39C117.95 157.65 117.887 157.973 117.887 158.36C117.887 158.727 117.963 159.047 118.117 159.32C118.27 159.587 118.487 159.793 118.767 159.94C119.047 160.087 119.37 160.16 119.737 160.16C119.997 160.16 120.237 160.117 120.457 160.03C120.683 159.943 120.927 159.787 121.187 159.56L121.707 160.29C121.547 160.45 121.35 160.59 121.117 160.71C120.89 160.83 120.647 160.927 120.387 161C120.133 161.067 119.883 161.1 119.637 161.1Z" fill="#3B3B3B"/>
<path d="M257.14 161.1C256.76 161.1 256.407 161.05 256.08 160.95C255.76 160.85 255.467 160.7 255.2 160.5C254.94 160.293 254.707 160.04 254.5 159.74L255.24 158.89C255.567 159.357 255.88 159.68 256.18 159.86C256.48 160.04 256.837 160.13 257.25 160.13C257.503 160.13 257.733 160.09 257.94 160.01C258.147 159.93 258.31 159.82 258.43 159.68C258.55 159.54 258.61 159.38 258.61 159.2C258.61 159.08 258.59 158.967 258.55 158.86C258.51 158.753 258.447 158.657 258.36 158.57C258.28 158.483 258.173 158.403 258.04 158.33C257.913 158.257 257.763 158.193 257.59 158.14C257.417 158.08 257.217 158.03 256.99 157.99C256.63 157.917 256.317 157.82 256.05 157.7C255.783 157.58 255.56 157.43 255.38 157.25C255.2 157.07 255.067 156.867 254.98 156.64C254.893 156.407 254.85 156.147 254.85 155.86C254.85 155.58 254.91 155.32 255.03 155.08C255.157 154.84 255.327 154.633 255.54 154.46C255.76 154.28 256.017 154.143 256.31 154.05C256.603 153.95 256.92 153.9 257.26 153.9C257.62 153.9 257.95 153.947 258.25 154.04C258.55 154.133 258.817 154.273 259.05 154.46C259.283 154.64 259.477 154.863 259.63 155.13L258.87 155.88C258.737 155.66 258.587 155.477 258.42 155.33C258.253 155.177 258.07 155.063 257.87 154.99C257.67 154.91 257.457 154.87 257.23 154.87C256.97 154.87 256.743 154.91 256.55 154.99C256.357 155.07 256.203 155.183 256.09 155.33C255.983 155.47 255.93 155.637 255.93 155.83C255.93 155.97 255.957 156.1 256.01 156.22C256.063 156.333 256.143 156.437 256.25 156.53C256.363 156.617 256.513 156.697 256.7 156.77C256.887 156.837 257.11 156.897 257.37 156.95C257.737 157.03 258.063 157.133 258.35 157.26C258.637 157.38 258.88 157.523 259.08 157.69C259.28 157.857 259.43 158.043 259.53 158.25C259.637 158.457 259.69 158.68 259.69 158.92C259.69 159.367 259.587 159.753 259.38 160.08C259.173 160.407 258.88 160.66 258.5 160.84C258.12 161.013 257.667 161.1 257.14 161.1ZM263.41 161.1C262.87 161.1 262.39 160.987 261.97 160.76C261.557 160.527 261.23 160.21 260.99 159.81C260.757 159.41 260.64 158.95 260.64 158.43C260.64 158.017 260.707 157.64 260.84 157.3C260.974 156.96 261.157 156.667 261.39 156.42C261.63 156.167 261.914 155.973 262.24 155.84C262.574 155.7 262.934 155.63 263.32 155.63C263.66 155.63 263.977 155.697 264.27 155.83C264.564 155.957 264.817 156.133 265.03 156.36C265.25 156.587 265.417 156.857 265.53 157.17C265.65 157.477 265.707 157.813 265.7 158.18L265.69 158.62H261.4L261.17 157.8H264.8L264.65 157.97V157.73C264.63 157.51 264.557 157.313 264.43 157.14C264.304 156.967 264.144 156.83 263.95 156.73C263.757 156.63 263.547 156.58 263.32 156.58C262.96 156.58 262.657 156.65 262.41 156.79C262.164 156.923 261.977 157.123 261.85 157.39C261.724 157.65 261.66 157.973 261.66 158.36C261.66 158.727 261.737 159.047 261.89 159.32C262.044 159.587 262.26 159.793 262.54 159.94C262.82 160.087 263.144 160.16 263.51 160.16C263.77 160.16 264.01 160.117 264.23 160.03C264.457 159.943 264.7 159.787 264.96 159.56L265.48 160.29C265.32 160.45 265.124 160.59 264.89 160.71C264.664 160.83 264.42 160.927 264.16 161C263.907 161.067 263.657 161.1 263.41 161.1ZM266.84 161V153.6H267.87V161H266.84ZM271.682 161.1C271.142 161.1 270.662 160.987 270.242 160.76C269.828 160.527 269.502 160.21 269.262 159.81C269.028 159.41 268.912 158.95 268.912 158.43C268.912 158.017 268.978 157.64 269.112 157.3C269.245 156.96 269.428 156.667 269.662 156.42C269.902 156.167 270.185 155.973 270.512 155.84C270.845 155.7 271.205 155.63 271.592 155.63C271.932 155.63 272.248 155.697 272.542 155.83C272.835 155.957 273.088 156.133 273.302 156.36C273.522 156.587 273.688 156.857 273.802 157.17C273.922 157.477 273.978 157.813 273.972 158.18L273.962 158.62H269.672L269.442 157.8H273.072L272.922 157.97V157.73C272.902 157.51 272.828 157.313 272.702 157.14C272.575 156.967 272.415 156.83 272.222 156.73C272.028 156.63 271.818 156.58 271.592 156.58C271.232 156.58 270.928 156.65 270.682 156.79C270.435 156.923 270.248 157.123 270.122 157.39C269.995 157.65 269.932 157.973 269.932 158.36C269.932 158.727 270.008 159.047 270.162 159.32C270.315 159.587 270.532 159.793 270.812 159.94C271.092 160.087 271.415 160.16 271.782 160.16C272.042 160.16 272.282 160.117 272.502 160.03C272.728 159.943 272.972 159.787 273.232 159.56L273.752 160.29C273.592 160.45 273.395 160.59 273.162 160.71C272.935 160.83 272.692 160.927 272.432 161C272.178 161.067 271.928 161.1 271.682 161.1ZM277.321 161.1C276.834 161.1 276.398 160.98 276.011 160.74C275.631 160.5 275.328 160.173 275.101 159.76C274.881 159.347 274.771 158.883 274.771 158.37C274.771 157.857 274.881 157.393 275.101 156.98C275.328 156.567 275.631 156.24 276.011 156C276.398 155.76 276.834 155.64 277.321 155.64C277.788 155.64 278.211 155.737 278.591 155.93C278.978 156.117 279.271 156.373 279.471 156.7L278.901 157.4C278.794 157.247 278.658 157.107 278.491 156.98C278.324 156.853 278.148 156.753 277.961 156.68C277.774 156.607 277.594 156.57 277.421 156.57C277.101 156.57 276.814 156.65 276.561 156.81C276.314 156.963 276.118 157.177 275.971 157.45C275.824 157.723 275.751 158.03 275.751 158.37C275.751 158.71 275.828 159.017 275.981 159.29C276.134 159.557 276.338 159.77 276.591 159.93C276.844 160.09 277.124 160.17 277.431 160.17C277.611 160.17 277.784 160.14 277.951 160.08C278.124 160.02 278.291 159.93 278.451 159.81C278.611 159.69 278.761 159.543 278.901 159.37L279.471 160.07C279.258 160.37 278.951 160.617 278.551 160.81C278.158 161.003 277.748 161.1 277.321 161.1ZM281.093 161V154.41H282.123V161H281.093ZM280.003 156.75V155.75H283.343V156.75H280.003ZM287.343 161V154H290.193C290.573 154 290.917 154.097 291.223 154.29C291.537 154.477 291.787 154.733 291.973 155.06C292.16 155.387 292.253 155.75 292.253 156.15C292.253 156.55 292.16 156.913 291.973 157.24C291.787 157.567 291.537 157.83 291.223 158.03C290.917 158.223 290.573 158.32 290.193 158.32H288.423V161H287.343ZM288.423 157.28H290.173C290.353 157.28 290.517 157.23 290.663 157.13C290.81 157.023 290.927 156.887 291.013 156.72C291.107 156.547 291.153 156.357 291.153 156.15C291.153 155.943 291.107 155.757 291.013 155.59C290.927 155.423 290.81 155.29 290.663 155.19C290.517 155.09 290.353 155.04 290.173 155.04H288.423V157.28ZM293.421 161V155.75H294.461V157.4L294.361 157C294.435 156.747 294.558 156.517 294.731 156.31C294.911 156.103 295.115 155.94 295.341 155.82C295.575 155.7 295.815 155.64 296.061 155.64C296.175 155.64 296.281 155.65 296.381 155.67C296.488 155.69 296.571 155.713 296.631 155.74L296.361 156.86C296.281 156.827 296.191 156.8 296.091 156.78C295.998 156.753 295.905 156.74 295.811 156.74C295.631 156.74 295.458 156.777 295.291 156.85C295.131 156.917 294.988 157.013 294.861 157.14C294.741 157.26 294.645 157.403 294.571 157.57C294.498 157.73 294.461 157.907 294.461 158.1V161H293.421ZM299.59 161.1C299.076 161.1 298.616 160.983 298.21 160.75C297.81 160.51 297.493 160.187 297.26 159.78C297.026 159.367 296.91 158.897 296.91 158.37C296.91 157.843 297.026 157.377 297.26 156.97C297.493 156.557 297.81 156.233 298.21 156C298.616 155.76 299.076 155.64 299.59 155.64C300.096 155.64 300.55 155.76 300.95 156C301.356 156.233 301.676 156.557 301.91 156.97C302.143 157.377 302.26 157.843 302.26 158.37C302.26 158.897 302.143 159.367 301.91 159.78C301.676 160.187 301.356 160.51 300.95 160.75C300.55 160.983 300.096 161.1 299.59 161.1ZM299.59 160.16C299.903 160.16 300.183 160.083 300.43 159.93C300.676 159.77 300.87 159.557 301.01 159.29C301.15 159.017 301.216 158.71 301.21 158.37C301.216 158.023 301.15 157.717 301.01 157.45C300.87 157.177 300.676 156.963 300.43 156.81C300.183 156.657 299.903 156.58 299.59 156.58C299.276 156.58 298.993 156.66 298.74 156.82C298.493 156.973 298.3 157.187 298.16 157.46C298.02 157.727 297.953 158.03 297.96 158.37C297.953 158.71 298.02 159.017 298.16 159.29C298.3 159.557 298.493 159.77 298.74 159.93C298.993 160.083 299.276 160.16 299.59 160.16ZM303.382 163.2V155.75H304.422V156.95L304.262 156.86C304.302 156.66 304.415 156.47 304.602 156.29C304.789 156.103 305.015 155.953 305.282 155.84C305.555 155.72 305.835 155.66 306.122 155.66C306.595 155.66 307.015 155.777 307.382 156.01C307.749 156.243 308.039 156.563 308.252 156.97C308.465 157.377 308.572 157.843 308.572 158.37C308.572 158.89 308.465 159.357 308.252 159.77C308.045 160.177 307.759 160.5 307.392 160.74C307.025 160.973 306.612 161.09 306.152 161.09C305.845 161.09 305.549 161.03 305.262 160.91C304.975 160.783 304.732 160.623 304.532 160.43C304.332 160.237 304.209 160.037 304.162 159.83L304.422 159.69V163.2H303.382ZM305.982 160.14C306.289 160.14 306.562 160.063 306.802 159.91C307.042 159.757 307.232 159.547 307.372 159.28C307.512 159.013 307.582 158.71 307.582 158.37C307.582 158.03 307.512 157.73 307.372 157.47C307.239 157.203 307.052 156.993 306.812 156.84C306.572 156.687 306.295 156.61 305.982 156.61C305.669 156.61 305.392 156.687 305.152 156.84C304.912 156.987 304.722 157.193 304.582 157.46C304.442 157.727 304.372 158.03 304.372 158.37C304.372 158.71 304.442 159.013 304.582 159.28C304.722 159.547 304.912 159.757 305.152 159.91C305.392 160.063 305.669 160.14 305.982 160.14ZM312.141 161.1C311.601 161.1 311.121 160.987 310.701 160.76C310.287 160.527 309.961 160.21 309.721 159.81C309.487 159.41 309.371 158.95 309.371 158.43C309.371 158.017 309.437 157.64 309.571 157.3C309.704 156.96 309.887 156.667 310.121 156.42C310.361 156.167 310.644 155.973 310.971 155.84C311.304 155.7 311.664 155.63 312.051 155.63C312.391 155.63 312.707 155.697 313.001 155.83C313.294 155.957 313.547 156.133 313.761 156.36C313.981 156.587 314.147 156.857 314.261 157.17C314.381 157.477 314.437 157.813 314.431 158.18L314.421 158.62H310.131L309.901 157.8H313.531L313.381 157.97V157.73C313.361 157.51 313.287 157.313 313.161 157.14C313.034 156.967 312.874 156.83 312.681 156.73C312.487 156.63 312.277 156.58 312.051 156.58C311.691 156.58 311.387 156.65 311.141 156.79C310.894 156.923 310.707 157.123 310.581 157.39C310.454 157.65 310.391 157.973 310.391 158.36C310.391 158.727 310.467 159.047 310.621 159.32C310.774 159.587 310.991 159.793 311.271 159.94C311.551 160.087 311.874 160.16 312.241 160.16C312.501 160.16 312.741 160.117 312.961 160.03C313.187 159.943 313.431 159.787 313.691 159.56L314.211 160.29C314.051 160.45 313.854 160.59 313.621 160.71C313.394 160.83 313.151 160.927 312.891 161C312.637 161.067 312.387 161.1 312.141 161.1ZM315.55 161V155.75H316.59V157.4L316.49 157C316.563 156.747 316.687 156.517 316.86 156.31C317.04 156.103 317.243 155.94 317.47 155.82C317.703 155.7 317.943 155.64 318.19 155.64C318.303 155.64 318.41 155.65 318.51 155.67C318.617 155.69 318.7 155.713 318.76 155.74L318.49 156.86C318.41 156.827 318.32 156.8 318.22 156.78C318.127 156.753 318.033 156.74 317.94 156.74C317.76 156.74 317.587 156.777 317.42 156.85C317.26 156.917 317.117 157.013 316.99 157.14C316.87 157.26 316.773 157.403 316.7 157.57C316.627 157.73 316.59 157.907 316.59 158.1V161H315.55ZM320.429 161V154.41H321.459V161H320.429ZM319.339 156.75V155.75H322.679V156.75H319.339ZM324.496 163.3L325.556 160.85L325.566 161.67L322.946 155.75H324.146L325.786 159.61C325.82 159.677 325.86 159.78 325.906 159.92C325.953 160.053 325.993 160.187 326.026 160.32L325.766 160.38C325.82 160.24 325.87 160.1 325.916 159.96C325.97 159.82 326.02 159.68 326.066 159.54L327.436 155.75H328.656L326.496 161L325.606 163.3H324.496Z" fill="#3B3B3B"/>
<rect x="104" y="180" width="98" height="7" rx="3.5" fill="#E4E6EA"/>
<rect x="265" y="180" width="79" height="7" rx="3.5" fill="#E4E6EA"/>
<rect x="93.25" y="170.25" width="133.5" height="26.5" rx="3.75" stroke="#E4E6EA" stroke-width="0.5"/>
<rect x="254.25" y="170.25" width="133.5" height="26.5" rx="3.75" stroke="#E4E6EA" stroke-width="0.5"/>
<path d="M372 181L377.5 186.5L383 181" stroke="#999999" stroke-linecap="round"/>
<rect x="83" y="213" width="315" height="86" rx="9" fill="white"/>
<path d="M93.98 233V226H96.72C97.22 226 97.67 226.083 98.07 226.25C98.4767 226.417 98.8233 226.657 99.11 226.97C99.3967 227.283 99.6167 227.653 99.77 228.08C99.9233 228.507 100 228.98 100 229.5C100 230.02 99.9233 230.497 99.77 230.93C99.6167 231.357 99.3967 231.727 99.11 232.04C98.83 232.347 98.4867 232.583 98.08 232.75C97.6733 232.917 97.22 233 96.72 233H93.98ZM95.06 232.07L95.03 231.96H96.67C97.0233 231.96 97.3367 231.903 97.61 231.79C97.89 231.677 98.1233 231.517 98.31 231.31C98.5033 231.097 98.65 230.837 98.75 230.53C98.85 230.223 98.9 229.88 98.9 229.5C98.9 229.12 98.85 228.78 98.75 228.48C98.65 228.173 98.5033 227.913 98.31 227.7C98.1167 227.487 97.8833 227.323 97.61 227.21C97.3367 227.097 97.0233 227.04 96.67 227.04H95L95.06 226.95V232.07ZM103.65 233.1C103.11 233.1 102.63 232.987 102.21 232.76C101.797 232.527 101.47 232.21 101.23 231.81C100.997 231.41 100.88 230.95 100.88 230.43C100.88 230.017 100.947 229.64 101.08 229.3C101.214 228.96 101.397 228.667 101.63 228.42C101.87 228.167 102.154 227.973 102.48 227.84C102.814 227.7 103.174 227.63 103.56 227.63C103.9 227.63 104.217 227.697 104.51 227.83C104.804 227.957 105.057 228.133 105.27 228.36C105.49 228.587 105.657 228.857 105.77 229.17C105.89 229.477 105.947 229.813 105.94 230.18L105.93 230.62H101.64L101.41 229.8H105.04L104.89 229.97V229.73C104.87 229.51 104.797 229.313 104.67 229.14C104.544 228.967 104.384 228.83 104.19 228.73C103.997 228.63 103.787 228.58 103.56 228.58C103.2 228.58 102.897 228.65 102.65 228.79C102.404 228.923 102.217 229.123 102.09 229.39C101.964 229.65 101.9 229.973 101.9 230.36C101.9 230.727 101.977 231.047 102.13 231.32C102.284 231.587 102.5 231.793 102.78 231.94C103.06 232.087 103.384 232.16 103.75 232.16C104.01 232.16 104.25 232.117 104.47 232.03C104.697 231.943 104.94 231.787 105.2 231.56L105.72 232.29C105.56 232.45 105.364 232.59 105.13 232.71C104.904 232.83 104.66 232.927 104.4 233C104.147 233.067 103.897 233.1 103.65 233.1ZM108.81 233.1C108.37 233.1 107.973 233.023 107.62 232.87C107.267 232.717 106.973 232.49 106.74 232.19L107.44 231.59C107.64 231.823 107.857 231.993 108.09 232.1C108.33 232.2 108.6 232.25 108.9 232.25C109.02 232.25 109.13 232.237 109.23 232.21C109.337 232.177 109.427 232.13 109.5 232.07C109.58 232.01 109.64 231.94 109.68 231.86C109.72 231.773 109.74 231.68 109.74 231.58C109.74 231.407 109.677 231.267 109.55 231.16C109.483 231.113 109.377 231.063 109.23 231.01C109.09 230.95 108.907 230.89 108.68 230.83C108.293 230.73 107.977 230.617 107.73 230.49C107.483 230.363 107.293 230.22 107.16 230.06C107.06 229.933 106.987 229.797 106.94 229.65C106.893 229.497 106.87 229.33 106.87 229.15C106.87 228.93 106.917 228.73 107.01 228.55C107.11 228.363 107.243 228.203 107.41 228.07C107.583 227.93 107.783 227.823 108.01 227.75C108.243 227.677 108.49 227.64 108.75 227.64C108.997 227.64 109.24 227.673 109.48 227.74C109.727 227.807 109.953 227.903 110.16 228.03C110.367 228.157 110.54 228.307 110.68 228.48L110.09 229.13C109.963 229.003 109.823 228.893 109.67 228.8C109.523 228.7 109.373 228.623 109.22 228.57C109.067 228.517 108.927 228.49 108.8 228.49C108.66 228.49 108.533 228.503 108.42 228.53C108.307 228.557 108.21 228.597 108.13 228.65C108.057 228.703 108 228.77 107.96 228.85C107.92 228.93 107.9 229.02 107.9 229.12C107.907 229.207 107.927 229.29 107.96 229.37C108 229.443 108.053 229.507 108.12 229.56C108.193 229.613 108.303 229.67 108.45 229.73C108.597 229.79 108.783 229.847 109.01 229.9C109.343 229.987 109.617 230.083 109.83 230.19C110.05 230.29 110.223 230.407 110.35 230.54C110.483 230.667 110.577 230.813 110.63 230.98C110.683 231.147 110.71 231.333 110.71 231.54C110.71 231.84 110.623 232.11 110.45 232.35C110.283 232.583 110.057 232.767 109.77 232.9C109.483 233.033 109.163 233.1 108.81 233.1ZM114.075 233.1C113.588 233.1 113.152 232.98 112.765 232.74C112.385 232.5 112.082 232.173 111.855 231.76C111.635 231.347 111.525 230.883 111.525 230.37C111.525 229.857 111.635 229.393 111.855 228.98C112.082 228.567 112.385 228.24 112.765 228C113.152 227.76 113.588 227.64 114.075 227.64C114.542 227.64 114.965 227.737 115.345 227.93C115.732 228.117 116.025 228.373 116.225 228.7L115.655 229.4C115.548 229.247 115.412 229.107 115.245 228.98C115.078 228.853 114.902 228.753 114.715 228.68C114.528 228.607 114.348 228.57 114.175 228.57C113.855 228.57 113.568 228.65 113.315 228.81C113.068 228.963 112.872 229.177 112.725 229.45C112.578 229.723 112.505 230.03 112.505 230.37C112.505 230.71 112.582 231.017 112.735 231.29C112.888 231.557 113.092 231.77 113.345 231.93C113.598 232.09 113.878 232.17 114.185 232.17C114.365 232.17 114.538 232.14 114.705 232.08C114.878 232.02 115.045 231.93 115.205 231.81C115.365 231.69 115.515 231.543 115.655 231.37L116.225 232.07C116.012 232.37 115.705 232.617 115.305 232.81C114.912 233.003 114.502 233.1 114.075 233.1ZM117.197 233V227.75H118.237V229.4L118.137 229C118.21 228.747 118.333 228.517 118.507 228.31C118.687 228.103 118.89 227.94 119.117 227.82C119.35 227.7 119.59 227.64 119.837 227.64C119.95 227.64 120.057 227.65 120.157 227.67C120.263 227.69 120.347 227.713 120.407 227.74L120.137 228.86C120.057 228.827 119.967 228.8 119.867 228.78C119.773 228.753 119.68 228.74 119.587 228.74C119.407 228.74 119.233 228.777 119.067 228.85C118.907 228.917 118.763 229.013 118.637 229.14C118.517 229.26 118.42 229.403 118.347 229.57C118.273 229.73 118.237 229.907 118.237 230.1V233H117.197ZM121.4 233V227.75H122.43V233H121.4ZM121.9 226.59C121.68 226.59 121.51 226.533 121.39 226.42C121.27 226.307 121.21 226.147 121.21 225.94C121.21 225.747 121.27 225.59 121.39 225.47C121.516 225.35 121.686 225.29 121.9 225.29C122.12 225.29 122.29 225.347 122.41 225.46C122.53 225.573 122.59 225.733 122.59 225.94C122.59 226.133 122.526 226.29 122.4 226.41C122.28 226.53 122.113 226.59 121.9 226.59ZM124.013 235.2V227.75H125.053V228.95L124.893 228.86C124.933 228.66 125.046 228.47 125.233 228.29C125.42 228.103 125.646 227.953 125.913 227.84C126.186 227.72 126.466 227.66 126.753 227.66C127.226 227.66 127.646 227.777 128.013 228.01C128.38 228.243 128.67 228.563 128.883 228.97C129.096 229.377 129.203 229.843 129.203 230.37C129.203 230.89 129.096 231.357 128.883 231.77C128.676 232.177 128.39 232.5 128.023 232.74C127.656 232.973 127.243 233.09 126.783 233.09C126.476 233.09 126.18 233.03 125.893 232.91C125.606 232.783 125.363 232.623 125.163 232.43C124.963 232.237 124.84 232.037 124.793 231.83L125.053 231.69V235.2H124.013ZM126.613 232.14C126.92 232.14 127.193 232.063 127.433 231.91C127.673 231.757 127.863 231.547 128.003 231.28C128.143 231.013 128.213 230.71 128.213 230.37C128.213 230.03 128.143 229.73 128.003 229.47C127.87 229.203 127.683 228.993 127.443 228.84C127.203 228.687 126.926 228.61 126.613 228.61C126.3 228.61 126.023 228.687 125.783 228.84C125.543 228.987 125.353 229.193 125.213 229.46C125.073 229.727 125.003 230.03 125.003 230.37C125.003 230.71 125.073 231.013 125.213 231.28C125.353 231.547 125.543 231.757 125.783 231.91C126.023 232.063 126.3 232.14 126.613 232.14ZM130.972 233V226.41H132.002V233H130.972ZM129.882 228.75V227.75H133.222V228.75H129.882ZM134.329 233V227.75H135.359V233H134.329ZM134.829 226.59C134.609 226.59 134.439 226.533 134.319 226.42C134.199 226.307 134.139 226.147 134.139 225.94C134.139 225.747 134.199 225.59 134.319 225.47C134.446 225.35 134.616 225.29 134.829 225.29C135.049 225.29 135.219 225.347 135.339 225.46C135.459 225.573 135.519 225.733 135.519 225.94C135.519 226.133 135.456 226.29 135.329 226.41C135.209 226.53 135.043 226.59 134.829 226.59ZM139.303 233.1C138.789 233.1 138.329 232.983 137.923 232.75C137.523 232.51 137.206 232.187 136.973 231.78C136.739 231.367 136.623 230.897 136.623 230.37C136.623 229.843 136.739 229.377 136.973 228.97C137.206 228.557 137.523 228.233 137.923 228C138.329 227.76 138.789 227.64 139.303 227.64C139.809 227.64 140.263 227.76 140.663 228C141.069 228.233 141.389 228.557 141.623 228.97C141.856 229.377 141.973 229.843 141.973 230.37C141.973 230.897 141.856 231.367 141.623 231.78C141.389 232.187 141.069 232.51 140.663 232.75C140.263 232.983 139.809 233.1 139.303 233.1ZM139.303 232.16C139.616 232.16 139.896 232.083 140.143 231.93C140.389 231.77 140.583 231.557 140.723 231.29C140.863 231.017 140.929 230.71 140.923 230.37C140.929 230.023 140.863 229.717 140.723 229.45C140.583 229.177 140.389 228.963 140.143 228.81C139.896 228.657 139.616 228.58 139.303 228.58C138.989 228.58 138.706 228.66 138.453 228.82C138.206 228.973 138.013 229.187 137.873 229.46C137.733 229.727 137.666 230.03 137.673 230.37C137.666 230.71 137.733 231.017 137.873 231.29C138.013 231.557 138.206 231.77 138.453 231.93C138.706 232.083 138.989 232.16 139.303 232.16ZM143.095 233V227.75H144.125V228.83L143.945 228.95C144.012 228.717 144.142 228.503 144.335 228.31C144.528 228.11 144.758 227.95 145.025 227.83C145.292 227.703 145.565 227.64 145.845 227.64C146.245 227.64 146.578 227.72 146.845 227.88C147.112 228.033 147.312 228.27 147.445 228.59C147.578 228.91 147.645 229.313 147.645 229.8V233H146.615V229.87C146.615 229.57 146.575 229.323 146.495 229.13C146.415 228.93 146.292 228.787 146.125 228.7C145.958 228.607 145.752 228.567 145.505 228.58C145.305 228.58 145.122 228.613 144.955 228.68C144.788 228.74 144.642 228.827 144.515 228.94C144.395 229.053 144.298 229.187 144.225 229.34C144.158 229.487 144.125 229.647 144.125 229.82V233H143.615C143.528 233 143.442 233 143.355 233C143.268 233 143.182 233 143.095 233Z" fill="#3B3B3B"/>
<rect x="104" y="252" width="274" height="7" rx="3.5" fill="#E4E6EA"/>
<rect x="104" y="264" width="213" height="7" rx="3.5" fill="#E4E6EA"/>
<rect x="104" y="276" width="255" height="7" rx="3.5" fill="#E4E6EA"/>
<rect x="93.25" y="242.25" width="294.5" height="50.5" rx="3.75" stroke="#E4E6EA" stroke-width="0.5"/>
<rect x="93.25" y="242.25" width="294.5" height="50.5" rx="3.75" stroke="#E4E6EA" stroke-width="0.5"/>
<rect x="83.5" y="309.5" width="314" height="61" rx="8.5" stroke="#C4C4C4" stroke-dasharray="7 7"/>
<path d="M99.375 346L103.44 335.5H105.09L109.125 346H107.4L105 339.67C104.97 339.6 104.91 339.43 104.82 339.16C104.74 338.89 104.645 338.59 104.535 338.26C104.425 337.93 104.325 337.63 104.235 337.36C104.145 337.08 104.085 336.9 104.055 336.82L104.4 336.805C104.34 336.975 104.265 337.19 104.175 337.45C104.095 337.71 104.005 337.985 103.905 338.275C103.815 338.565 103.725 338.84 103.635 339.1C103.545 339.35 103.47 339.56 103.41 339.73L101.025 346H99.375ZM101.175 343.39L101.775 341.83H106.545L107.235 343.39H101.175ZM113.575 346.15C112.855 346.15 112.21 345.975 111.64 345.625C111.08 345.265 110.635 344.78 110.305 344.17C109.975 343.55 109.81 342.845 109.81 342.055C109.81 341.265 109.97 340.565 110.29 339.955C110.62 339.335 111.065 338.85 111.625 338.5C112.185 338.14 112.82 337.96 113.53 337.96C113.92 337.96 114.295 338.025 114.655 338.155C115.025 338.275 115.355 338.445 115.645 338.665C115.935 338.875 116.16 339.11 116.32 339.37C116.49 339.62 116.575 339.875 116.575 340.135L116.125 340.165V334.9H117.67V346H116.125V344.125H116.425C116.425 344.365 116.345 344.605 116.185 344.845C116.025 345.075 115.81 345.29 115.54 345.49C115.28 345.69 114.975 345.85 114.625 345.97C114.285 346.09 113.935 346.15 113.575 346.15ZM113.785 344.815C114.255 344.815 114.67 344.695 115.03 344.455C115.39 344.215 115.67 343.89 115.87 343.48C116.08 343.06 116.185 342.585 116.185 342.055C116.185 341.525 116.08 341.055 115.87 340.645C115.67 340.225 115.39 339.895 115.03 339.655C114.67 339.415 114.255 339.295 113.785 339.295C113.315 339.295 112.9 339.415 112.54 339.655C112.18 339.895 111.895 340.225 111.685 340.645C111.485 341.055 111.385 341.525 111.385 342.055C111.385 342.585 111.485 343.06 111.685 343.48C111.895 343.89 112.18 344.215 112.54 344.455C112.9 344.695 113.315 344.815 113.785 344.815ZM123.082 346.15C122.362 346.15 121.717 345.975 121.147 345.625C120.587 345.265 120.142 344.78 119.812 344.17C119.482 343.55 119.317 342.845 119.317 342.055C119.317 341.265 119.477 340.565 119.797 339.955C120.127 339.335 120.572 338.85 121.132 338.5C121.692 338.14 122.327 337.96 123.037 337.96C123.427 337.96 123.802 338.025 124.162 338.155C124.532 338.275 124.862 338.445 125.152 338.665C125.442 338.875 125.667 339.11 125.827 339.37C125.997 339.62 126.082 339.875 126.082 340.135L125.632 340.165V334.9H127.177V346H125.632V344.125H125.932C125.932 344.365 125.852 344.605 125.692 344.845C125.532 345.075 125.317 345.29 125.047 345.49C124.787 345.69 124.482 345.85 124.132 345.97C123.792 346.09 123.442 346.15 123.082 346.15ZM123.292 344.815C123.762 344.815 124.177 344.695 124.537 344.455C124.897 344.215 125.177 343.89 125.377 343.48C125.587 343.06 125.692 342.585 125.692 342.055C125.692 341.525 125.587 341.055 125.377 340.645C125.177 340.225 124.897 339.895 124.537 339.655C124.177 339.415 123.762 339.295 123.292 339.295C122.822 339.295 122.407 339.415 122.047 339.655C121.687 339.895 121.402 340.225 121.192 340.645C120.992 341.055 120.892 341.525 120.892 342.055C120.892 342.585 120.992 343.06 121.192 343.48C121.402 343.89 121.687 344.215 122.047 344.455C122.407 344.695 122.822 344.815 123.292 344.815ZM133.898 346V335.5H135.518V346H133.898ZM134.618 341.53V339.97H140.033V341.53H134.618ZM134.618 337.06V335.5H140.708V337.06H134.618ZM142.786 346V338.125H144.331V346H142.786ZM143.536 336.385C143.206 336.385 142.951 336.3 142.771 336.13C142.591 335.96 142.501 335.72 142.501 335.41C142.501 335.12 142.591 334.885 142.771 334.705C142.961 334.525 143.216 334.435 143.536 334.435C143.866 334.435 144.121 334.52 144.301 334.69C144.481 334.86 144.571 335.1 144.571 335.41C144.571 335.7 144.476 335.935 144.286 336.115C144.106 336.295 143.856 336.385 143.536 336.385ZM146.736 346V334.9H148.281V346H146.736ZM153.999 346.15C153.189 346.15 152.469 345.98 151.839 345.64C151.219 345.29 150.729 344.815 150.369 344.215C150.019 343.615 149.844 342.925 149.844 342.145C149.844 341.525 149.944 340.96 150.144 340.45C150.344 339.94 150.619 339.5 150.969 339.13C151.329 338.75 151.754 338.46 152.244 338.26C152.744 338.05 153.284 337.945 153.864 337.945C154.374 337.945 154.849 338.045 155.289 338.245C155.729 338.435 156.109 338.7 156.429 339.04C156.759 339.38 157.009 339.785 157.179 340.255C157.359 340.715 157.444 341.22 157.434 341.77L157.419 342.43H150.984L150.639 341.2H156.084L155.859 341.455V341.095C155.829 340.765 155.719 340.47 155.529 340.21C155.339 339.95 155.099 339.745 154.809 339.595C154.519 339.445 154.204 339.37 153.864 339.37C153.324 339.37 152.869 339.475 152.499 339.685C152.129 339.885 151.849 340.185 151.659 340.585C151.469 340.975 151.374 341.46 151.374 342.04C151.374 342.59 151.489 343.07 151.719 343.48C151.949 343.88 152.274 344.19 152.694 344.41C153.114 344.63 153.599 344.74 154.149 344.74C154.539 344.74 154.899 344.675 155.229 344.545C155.569 344.415 155.934 344.18 156.324 343.84L157.104 344.935C156.864 345.175 156.569 345.385 156.219 345.565C155.879 345.745 155.514 345.89 155.124 346C154.744 346.1 154.369 346.15 153.999 346.15ZM161.738 346.15C161.078 346.15 160.483 346.035 159.953 345.805C159.423 345.575 158.983 345.235 158.633 344.785L159.683 343.885C159.983 344.235 160.308 344.49 160.658 344.65C161.018 344.8 161.423 344.875 161.873 344.875C162.053 344.875 162.218 344.855 162.368 344.815C162.528 344.765 162.663 344.695 162.773 344.605C162.893 344.515 162.983 344.41 163.043 344.29C163.103 344.16 163.133 344.02 163.133 343.87C163.133 343.61 163.038 343.4 162.848 343.24C162.748 343.17 162.588 343.095 162.368 343.015C162.158 342.925 161.883 342.835 161.543 342.745C160.963 342.595 160.488 342.425 160.118 342.235C159.748 342.045 159.463 341.83 159.263 341.59C159.113 341.4 159.003 341.195 158.933 340.975C158.863 340.745 158.828 340.495 158.828 340.225C158.828 339.895 158.898 339.595 159.038 339.325C159.188 339.045 159.388 338.805 159.638 338.605C159.898 338.395 160.198 338.235 160.538 338.125C160.888 338.015 161.258 337.96 161.648 337.96C162.018 337.96 162.383 338.01 162.743 338.11C163.113 338.21 163.453 338.355 163.763 338.545C164.073 338.735 164.333 338.96 164.543 339.22L163.658 340.195C163.468 340.005 163.258 339.84 163.028 339.7C162.808 339.55 162.583 339.435 162.353 339.355C162.123 339.275 161.913 339.235 161.723 339.235C161.513 339.235 161.323 339.255 161.153 339.295C160.983 339.335 160.838 339.395 160.718 339.475C160.608 339.555 160.523 339.655 160.463 339.775C160.403 339.895 160.373 340.03 160.373 340.18C160.383 340.31 160.413 340.435 160.463 340.555C160.523 340.665 160.603 340.76 160.703 340.84C160.813 340.92 160.978 341.005 161.198 341.095C161.418 341.185 161.698 341.27 162.038 341.35C162.538 341.48 162.948 341.625 163.268 341.785C163.598 341.935 163.858 342.11 164.048 342.31C164.248 342.5 164.388 342.72 164.468 342.97C164.548 343.22 164.588 343.5 164.588 343.81C164.588 344.26 164.458 344.665 164.198 345.025C163.948 345.375 163.608 345.65 163.178 345.85C162.748 346.05 162.268 346.15 161.738 346.15Z" fill="#C4C4C4"/>
<path d="M370.55 336.756L374.906 332.916V344.656C374.906 344.985 375.172 345.25 375.5 345.25C375.828 345.25 376.094 344.985 376.094 344.656V332.916L380.45 336.787C380.562 336.89 380.703 336.938 380.844 336.938C381.007 336.938 381.171 336.871 381.288 336.738C381.506 336.494 381.483 336.118 381.238 335.9L375.894 331.15C375.669 330.95 375.331 330.95 375.106 331.15L369.762 335.9C369.517 336.118 369.494 336.492 369.711 336.737C369.928 336.982 370.308 337.005 370.55 336.756ZM382.625 342.875H378.469C378.141 342.875 377.875 343.141 377.875 343.469C377.875 343.797 378.141 344.063 378.469 344.063H382.625C383.281 344.063 383.812 344.594 383.812 345.25V347.625C383.812 348.281 383.281 348.813 382.625 348.813H368.375C367.719 348.813 367.188 348.281 367.188 347.625V345.25C367.188 344.594 367.719 344.063 368.375 344.063H372.531C372.858 344.063 373.125 343.795 373.125 343.469C373.125 343.142 372.858 342.875 372.531 342.875H368.375C367.063 342.875 366 343.938 366 345.25V347.625C366 348.937 367.063 350 368.375 350H382.625C383.937 350 385 348.937 385 347.625V345.25C385 343.94 383.935 342.875 382.625 342.875ZM382.328 346.438C382.328 345.946 381.929 345.547 381.438 345.547C380.946 345.547 380.547 345.946 380.547 346.438C380.547 346.929 380.946 347.328 381.438 347.328C381.929 347.328 382.328 346.931 382.328 346.438Z" fill="black"/>
<rect x="83" y="401" width="315" height="41" rx="6" fill="#0900FF"/>
<path d="M205.452 427.14C204.845 427.14 204.29 427.065 203.786 426.916C203.291 426.767 202.848 426.547 202.456 426.258C202.073 425.969 201.728 425.619 201.42 425.208L202.736 423.71C203.193 424.345 203.646 424.779 204.094 425.012C204.551 425.236 205.046 425.348 205.578 425.348C205.867 425.348 206.124 425.306 206.348 425.222C206.581 425.138 206.763 425.026 206.894 424.886C207.025 424.737 207.09 424.559 207.09 424.354C207.09 424.205 207.057 424.069 206.992 423.948C206.927 423.817 206.833 423.705 206.712 423.612C206.591 423.509 206.446 423.421 206.278 423.346C206.11 423.262 205.923 423.192 205.718 423.136C205.513 423.071 205.289 423.019 205.046 422.982C204.523 422.861 204.066 422.716 203.674 422.548C203.282 422.371 202.955 422.156 202.694 421.904C202.433 421.643 202.237 421.349 202.106 421.022C201.985 420.695 201.924 420.327 201.924 419.916C201.924 419.496 202.017 419.109 202.204 418.754C202.391 418.39 202.647 418.077 202.974 417.816C203.31 417.555 203.693 417.354 204.122 417.214C204.561 417.074 205.023 417.004 205.508 417.004C206.105 417.004 206.628 417.069 207.076 417.2C207.524 417.331 207.911 417.527 208.238 417.788C208.574 418.04 208.854 418.348 209.078 418.712L207.748 420C207.552 419.739 207.337 419.519 207.104 419.342C206.88 419.165 206.633 419.034 206.362 418.95C206.101 418.857 205.83 418.81 205.55 418.81C205.242 418.81 204.976 418.852 204.752 418.936C204.528 419.011 204.351 419.127 204.22 419.286C204.099 419.435 204.038 419.613 204.038 419.818C204.038 419.986 204.08 420.135 204.164 420.266C204.248 420.397 204.369 420.513 204.528 420.616C204.687 420.709 204.878 420.793 205.102 420.868C205.326 420.943 205.573 421.008 205.844 421.064C206.357 421.167 206.819 421.302 207.23 421.47C207.641 421.638 207.991 421.843 208.28 422.086C208.579 422.319 208.807 422.599 208.966 422.926C209.125 423.243 209.204 423.603 209.204 424.004C209.204 424.667 209.045 425.231 208.728 425.698C208.411 426.165 207.972 426.524 207.412 426.776C206.852 427.019 206.199 427.14 205.452 427.14ZM213.598 427.14C212.982 427.14 212.427 426.972 211.932 426.636C211.437 426.3 211.045 425.843 210.756 425.264C210.467 424.685 210.322 424.023 210.322 423.276C210.322 422.529 210.467 421.867 210.756 421.288C211.055 420.709 211.456 420.257 211.96 419.93C212.464 419.603 213.038 419.44 213.682 419.44C214.046 419.44 214.377 419.496 214.676 419.608C214.984 419.711 215.25 419.855 215.474 420.042C215.707 420.229 215.903 420.443 216.062 420.686C216.221 420.929 216.333 421.19 216.398 421.47L215.978 421.4V419.594H217.952V427H215.95V425.222L216.398 425.18C216.323 425.441 216.202 425.689 216.034 425.922C215.866 426.155 215.656 426.365 215.404 426.552C215.161 426.729 214.886 426.874 214.578 426.986C214.27 427.089 213.943 427.14 213.598 427.14ZM214.144 425.418C214.517 425.418 214.844 425.329 215.124 425.152C215.404 424.975 215.619 424.727 215.768 424.41C215.927 424.083 216.006 423.705 216.006 423.276C216.006 422.856 215.927 422.487 215.768 422.17C215.619 421.853 215.404 421.605 215.124 421.428C214.844 421.241 214.517 421.148 214.144 421.148C213.78 421.148 213.458 421.241 213.178 421.428C212.907 421.605 212.693 421.853 212.534 422.17C212.375 422.487 212.296 422.856 212.296 423.276C212.296 423.705 212.375 424.083 212.534 424.41C212.693 424.727 212.907 424.975 213.178 425.152C213.458 425.329 213.78 425.418 214.144 425.418ZM222.105 427L218.997 419.594H221.181L223.155 425.124L222.693 425.208L224.765 419.594H226.893L223.631 427H222.105ZM231.416 427.14C230.614 427.14 229.909 426.977 229.302 426.65C228.705 426.323 228.238 425.875 227.902 425.306C227.576 424.737 227.412 424.083 227.412 423.346C227.412 422.767 227.506 422.24 227.692 421.764C227.879 421.288 228.14 420.877 228.476 420.532C228.812 420.177 229.209 419.907 229.666 419.72C230.133 419.524 230.637 419.426 231.178 419.426C231.682 419.426 232.149 419.519 232.578 419.706C233.008 419.893 233.376 420.154 233.684 420.49C234.002 420.817 234.244 421.209 234.412 421.666C234.58 422.114 234.655 422.599 234.636 423.122L234.622 423.738H228.672L228.35 422.52H232.984L232.76 422.772V422.464C232.742 422.212 232.658 421.988 232.508 421.792C232.368 421.587 232.186 421.428 231.962 421.316C231.738 421.195 231.486 421.134 231.206 421.134C230.796 421.134 230.446 421.213 230.156 421.372C229.876 421.531 229.662 421.764 229.512 422.072C229.363 422.38 229.288 422.753 229.288 423.192C229.288 423.64 229.382 424.027 229.568 424.354C229.764 424.681 230.035 424.937 230.38 425.124C230.735 425.301 231.15 425.39 231.626 425.39C231.953 425.39 232.252 425.339 232.522 425.236C232.793 425.133 233.082 424.956 233.39 424.704L234.342 426.034C234.072 426.277 233.773 426.482 233.446 426.65C233.12 426.809 232.784 426.93 232.438 427.014C232.093 427.098 231.752 427.14 231.416 427.14ZM245.172 427.14C244.416 427.14 243.721 427.014 243.086 426.762C242.461 426.501 241.92 426.141 241.462 425.684C241.005 425.227 240.65 424.69 240.398 424.074C240.156 423.458 240.034 422.791 240.034 422.072C240.034 421.353 240.16 420.691 240.412 420.084C240.674 419.468 241.038 418.936 241.504 418.488C241.98 418.031 242.536 417.676 243.17 417.424C243.805 417.172 244.5 417.046 245.256 417.046C245.779 417.046 246.278 417.116 246.754 417.256C247.23 417.396 247.664 417.587 248.056 417.83C248.448 418.073 248.775 418.353 249.036 418.67L247.734 420.042C247.492 419.809 247.24 419.613 246.978 419.454C246.717 419.286 246.437 419.16 246.138 419.076C245.849 418.983 245.55 418.936 245.242 418.936C244.804 418.936 244.398 419.015 244.024 419.174C243.66 419.333 243.338 419.552 243.058 419.832C242.778 420.112 242.559 420.443 242.4 420.826C242.251 421.209 242.176 421.624 242.176 422.072C242.176 422.511 242.256 422.926 242.414 423.318C242.582 423.701 242.806 424.037 243.086 424.326C243.376 424.606 243.712 424.83 244.094 424.998C244.477 425.157 244.888 425.236 245.326 425.236C245.644 425.236 245.938 425.189 246.208 425.096C246.488 425.003 246.731 424.872 246.936 424.704C247.151 424.527 247.314 424.321 247.426 424.088C247.548 423.855 247.608 423.607 247.608 423.346V423.01L247.888 423.402H245.088V421.652H249.624C249.634 421.755 249.643 421.881 249.652 422.03C249.671 422.179 249.68 422.329 249.68 422.478C249.69 422.618 249.694 422.73 249.694 422.814C249.694 423.449 249.578 424.032 249.344 424.564C249.12 425.096 248.803 425.553 248.392 425.936C247.991 426.319 247.515 426.617 246.964 426.832C246.414 427.037 245.816 427.14 245.172 427.14ZM253.829 427.14C253.288 427.14 252.821 427.023 252.429 426.79C252.046 426.547 251.748 426.207 251.533 425.768C251.328 425.32 251.225 424.783 251.225 424.158V419.594H253.213V423.836C253.213 424.172 253.269 424.466 253.381 424.718C253.493 424.961 253.652 425.147 253.857 425.278C254.062 425.409 254.314 425.474 254.613 425.474C254.828 425.474 255.024 425.441 255.201 425.376C255.388 425.301 255.546 425.199 255.677 425.068C255.817 424.937 255.924 424.783 255.999 424.606C256.074 424.429 256.111 424.237 256.111 424.032V419.594H258.099V427H256.209L256.139 425.474L256.503 425.306C256.391 425.651 256.204 425.964 255.943 426.244C255.682 426.524 255.369 426.743 255.005 426.902C254.641 427.061 254.249 427.14 253.829 427.14ZM260.267 427V419.594H262.255V427H260.267ZM261.247 418.082C260.865 418.082 260.566 417.989 260.351 417.802C260.137 417.606 260.029 417.335 260.029 416.99C260.029 416.673 260.137 416.416 260.351 416.22C260.575 416.015 260.874 415.912 261.247 415.912C261.63 415.912 261.929 416.01 262.143 416.206C262.358 416.393 262.465 416.654 262.465 416.99C262.465 417.307 262.353 417.569 262.129 417.774C261.915 417.979 261.621 418.082 261.247 418.082ZM267.277 427.14C266.623 427.14 266.04 426.977 265.527 426.65C265.023 426.314 264.621 425.861 264.323 425.292C264.033 424.713 263.889 424.046 263.889 423.29C263.889 422.553 264.033 421.895 264.323 421.316C264.621 420.728 265.023 420.271 265.527 419.944C266.04 419.608 266.623 419.44 267.277 419.44C267.622 419.44 267.953 419.496 268.271 419.608C268.597 419.711 268.887 419.855 269.139 420.042C269.4 420.229 269.61 420.439 269.769 420.672C269.927 420.896 270.016 421.129 270.035 421.372L269.531 421.47V416.64H271.533V427H269.643L269.559 425.292L269.951 425.334C269.932 425.567 269.848 425.791 269.699 426.006C269.549 426.221 269.349 426.417 269.097 426.594C268.854 426.762 268.574 426.897 268.257 427C267.949 427.093 267.622 427.14 267.277 427.14ZM267.725 425.488C268.098 425.488 268.425 425.395 268.705 425.208C268.985 425.021 269.204 424.765 269.363 424.438C269.521 424.111 269.601 423.729 269.601 423.29C269.601 422.861 269.521 422.483 269.363 422.156C269.204 421.829 268.985 421.573 268.705 421.386C268.425 421.199 268.098 421.106 267.725 421.106C267.351 421.106 267.025 421.199 266.745 421.386C266.474 421.573 266.259 421.829 266.101 422.156C265.951 422.483 265.877 422.861 265.877 423.29C265.877 423.729 265.951 424.111 266.101 424.438C266.259 424.765 266.474 425.021 266.745 425.208C267.025 425.395 267.351 425.488 267.725 425.488ZM276.971 427.14C276.168 427.14 275.464 426.977 274.857 426.65C274.26 426.323 273.793 425.875 273.457 425.306C273.13 424.737 272.967 424.083 272.967 423.346C272.967 422.767 273.06 422.24 273.247 421.764C273.434 421.288 273.695 420.877 274.031 420.532C274.367 420.177 274.764 419.907 275.221 419.72C275.688 419.524 276.192 419.426 276.733 419.426C277.237 419.426 277.704 419.519 278.133 419.706C278.562 419.893 278.931 420.154 279.239 420.49C279.556 420.817 279.799 421.209 279.967 421.666C280.135 422.114 280.21 422.599 280.191 423.122L280.177 423.738H274.227L273.905 422.52H278.539L278.315 422.772V422.464C278.296 422.212 278.212 421.988 278.063 421.792C277.923 421.587 277.741 421.428 277.517 421.316C277.293 421.195 277.041 421.134 276.761 421.134C276.35 421.134 276 421.213 275.711 421.372C275.431 421.531 275.216 421.764 275.067 422.072C274.918 422.38 274.843 422.753 274.843 423.192C274.843 423.64 274.936 424.027 275.123 424.354C275.319 424.681 275.59 424.937 275.935 425.124C276.29 425.301 276.705 425.39 277.181 425.39C277.508 425.39 277.806 425.339 278.077 425.236C278.348 425.133 278.637 424.956 278.945 424.704L279.897 426.034C279.626 426.277 279.328 426.482 279.001 426.65C278.674 426.809 278.338 426.93 277.993 427.014C277.648 427.098 277.307 427.14 276.971 427.14Z" fill="white"/>
</g>
<defs>
<clipPath id="clip0_190_842">
<rect width="480" height="540" fill="white"/>
</clipPath>
</defs>
</svg>
