<svg width="480" height="540" viewBox="0 0 480 540" fill="none" xmlns="http://www.w3.org/2000/svg">
<g clip-path="url(#clip0_83_977)">
<path d="M396 76H85C75.6112 76 68 83.6112 68 93V447C68 456.389 75.6112 464 85 464H396C405.389 464 413 456.389 413 447V93C413 83.6112 405.389 76 396 76Z" fill="#F1F5F7"/>
<rect x="83" y="145" width="154" height="62" rx="9" fill="white"/>
<rect x="83" y="222" width="154" height="62" rx="9" fill="white"/>
<rect x="83" y="298" width="315" height="90" rx="9" fill="white"/>
<rect x="244" y="145" width="154" height="62" rx="9" fill="white"/>
<rect x="244" y="222" width="154" height="62" rx="9" fill="white"/>
<path d="M95.47 165L93.24 158H94.39L95.74 162.38C95.78 162.487 95.8167 162.613 95.85 162.76C95.8833 162.9 95.9133 163.043 95.94 163.19C95.9667 163.337 95.99 163.473 96.01 163.6C96.0367 163.727 96.06 163.83 96.08 163.91L95.79 163.9C95.89 163.547 95.9667 163.273 96.02 163.08C96.08 162.887 96.1267 162.74 96.16 162.64C96.1933 162.533 96.2233 162.443 96.25 162.37L97.51 159.21H98.48L99.7 162.37C99.7667 162.53 99.8233 162.69 99.87 162.85C99.9233 163.003 99.97 163.16 100.01 163.32C100.05 163.473 100.093 163.637 100.14 163.81L99.88 163.88C99.9133 163.7 99.9367 163.56 99.95 163.46C99.97 163.353 99.9867 163.267 100 163.2C100.013 163.133 100.027 163.07 100.04 163.01C100.053 162.943 100.073 162.86 100.1 162.76C100.133 162.66 100.177 162.523 100.23 162.35L101.56 158H102.72L100.49 165H99.74L97.89 160.62L97.98 160.66L96.2 165H95.47ZM105.787 165.1C105.274 165.1 104.814 164.983 104.407 164.75C104.007 164.51 103.69 164.187 103.457 163.78C103.224 163.367 103.107 162.897 103.107 162.37C103.107 161.843 103.224 161.377 103.457 160.97C103.69 160.557 104.007 160.233 104.407 160C104.814 159.76 105.274 159.64 105.787 159.64C106.294 159.64 106.747 159.76 107.147 160C107.554 160.233 107.874 160.557 108.107 160.97C108.34 161.377 108.457 161.843 108.457 162.37C108.457 162.897 108.34 163.367 108.107 163.78C107.874 164.187 107.554 164.51 107.147 164.75C106.747 164.983 106.294 165.1 105.787 165.1ZM105.787 164.16C106.1 164.16 106.38 164.083 106.627 163.93C106.874 163.77 107.067 163.557 107.207 163.29C107.347 163.017 107.414 162.71 107.407 162.37C107.414 162.023 107.347 161.717 107.207 161.45C107.067 161.177 106.874 160.963 106.627 160.81C106.38 160.657 106.1 160.58 105.787 160.58C105.474 160.58 105.19 160.66 104.937 160.82C104.69 160.973 104.497 161.187 104.357 161.46C104.217 161.727 104.15 162.03 104.157 162.37C104.15 162.71 104.217 163.017 104.357 163.29C104.497 163.557 104.69 163.77 104.937 163.93C105.19 164.083 105.474 164.16 105.787 164.16ZM109.579 165V159.75H110.619V161.4L110.519 161C110.593 160.747 110.716 160.517 110.889 160.31C111.069 160.103 111.273 159.94 111.499 159.82C111.733 159.7 111.973 159.64 112.219 159.64C112.333 159.64 112.439 159.65 112.539 159.67C112.646 159.69 112.729 159.713 112.789 159.74L112.519 160.86C112.439 160.827 112.349 160.8 112.249 160.78C112.156 160.753 112.063 160.74 111.969 160.74C111.789 160.74 111.616 160.777 111.449 160.85C111.289 160.917 111.146 161.013 111.019 161.14C110.899 161.26 110.803 161.403 110.729 161.57C110.656 161.73 110.619 161.907 110.619 162.1V165H109.579ZM114.553 163.36L114.503 162.24L117.013 159.75H118.403L114.553 163.36ZM113.613 165V157.6H114.643V165H113.613ZM117.153 165L115.173 162.69L115.903 162.02L118.473 165H117.153ZM119.866 165V159.16C119.866 158.86 119.933 158.593 120.066 158.36C120.2 158.127 120.383 157.943 120.616 157.81C120.85 157.677 121.12 157.61 121.426 157.61C121.64 157.61 121.84 157.65 122.026 157.73C122.213 157.81 122.363 157.917 122.476 158.05L122.126 158.84C122.04 158.76 121.943 158.697 121.836 158.65C121.736 158.597 121.64 158.57 121.546 158.57C121.406 158.57 121.286 158.593 121.186 158.64C121.093 158.68 121.023 158.747 120.976 158.84C120.93 158.927 120.906 159.033 120.906 159.16V165H120.386C120.3 165 120.213 165 120.126 165C120.04 165 119.953 165 119.866 165ZM119.026 160.79V159.84H122.146V160.79H119.026ZM123.246 165V157.6H124.276V165H123.246ZM127.994 165.1C127.481 165.1 127.021 164.983 126.614 164.75C126.214 164.51 125.897 164.187 125.664 163.78C125.431 163.367 125.314 162.897 125.314 162.37C125.314 161.843 125.431 161.377 125.664 160.97C125.897 160.557 126.214 160.233 126.614 160C127.021 159.76 127.481 159.64 127.994 159.64C128.501 159.64 128.954 159.76 129.354 160C129.761 160.233 130.081 160.557 130.314 160.97C130.547 161.377 130.664 161.843 130.664 162.37C130.664 162.897 130.547 163.367 130.314 163.78C130.081 164.187 129.761 164.51 129.354 164.75C128.954 164.983 128.501 165.1 127.994 165.1ZM127.994 164.16C128.307 164.16 128.587 164.083 128.834 163.93C129.081 163.77 129.274 163.557 129.414 163.29C129.554 163.017 129.621 162.71 129.614 162.37C129.621 162.023 129.554 161.717 129.414 161.45C129.274 161.177 129.081 160.963 128.834 160.81C128.587 160.657 128.307 160.58 127.994 160.58C127.681 160.58 127.397 160.66 127.144 160.82C126.897 160.973 126.704 161.187 126.564 161.46C126.424 161.727 126.357 162.03 126.364 162.37C126.357 162.71 126.424 163.017 126.564 163.29C126.704 163.557 126.897 163.77 127.144 163.93C127.397 164.083 127.681 164.16 127.994 164.16ZM132.881 165L131.091 159.75L132.131 159.74L133.411 163.67L133.181 163.65L134.571 160.58H135.191L136.591 163.66L136.321 163.68L137.611 159.75H138.651L136.881 165H136.171L134.711 161.66L134.941 161.69L133.581 165H132.881ZM142.652 165V158H145.392C145.892 158 146.342 158.083 146.742 158.25C147.149 158.417 147.495 158.657 147.782 158.97C148.069 159.283 148.289 159.653 148.442 160.08C148.595 160.507 148.672 160.98 148.672 161.5C148.672 162.02 148.595 162.497 148.442 162.93C148.289 163.357 148.069 163.727 147.782 164.04C147.502 164.347 147.159 164.583 146.752 164.75C146.345 164.917 145.892 165 145.392 165H142.652ZM143.732 164.07L143.702 163.96H145.342C145.695 163.96 146.009 163.903 146.282 163.79C146.562 163.677 146.795 163.517 146.982 163.31C147.175 163.097 147.322 162.837 147.422 162.53C147.522 162.223 147.572 161.88 147.572 161.5C147.572 161.12 147.522 160.78 147.422 160.48C147.322 160.173 147.175 159.913 146.982 159.7C146.789 159.487 146.555 159.323 146.282 159.21C146.009 159.097 145.695 159.04 145.342 159.04H143.672L143.732 158.95V164.07ZM152.322 165.1C151.782 165.1 151.302 164.987 150.882 164.76C150.469 164.527 150.142 164.21 149.902 163.81C149.669 163.41 149.552 162.95 149.552 162.43C149.552 162.017 149.619 161.64 149.752 161.3C149.886 160.96 150.069 160.667 150.302 160.42C150.542 160.167 150.826 159.973 151.152 159.84C151.486 159.7 151.846 159.63 152.232 159.63C152.572 159.63 152.889 159.697 153.182 159.83C153.476 159.957 153.729 160.133 153.942 160.36C154.162 160.587 154.329 160.857 154.442 161.17C154.562 161.477 154.619 161.813 154.612 162.18L154.602 162.62H150.312L150.082 161.8H153.712L153.562 161.97V161.73C153.542 161.51 153.469 161.313 153.342 161.14C153.216 160.967 153.056 160.83 152.862 160.73C152.669 160.63 152.459 160.58 152.232 160.58C151.872 160.58 151.569 160.65 151.322 160.79C151.076 160.923 150.889 161.123 150.762 161.39C150.636 161.65 150.572 161.973 150.572 162.36C150.572 162.727 150.649 163.047 150.802 163.32C150.956 163.587 151.172 163.793 151.452 163.94C151.732 164.087 152.056 164.16 152.422 164.16C152.682 164.16 152.922 164.117 153.142 164.03C153.369 163.943 153.612 163.787 153.872 163.56L154.392 164.29C154.232 164.45 154.036 164.59 153.802 164.71C153.576 164.83 153.332 164.927 153.072 165C152.819 165.067 152.569 165.1 152.322 165.1ZM156.382 165V158.41H157.412V165H156.382ZM155.292 160.75V159.75H158.632V160.75H155.292ZM161.541 165.1C161.107 165.1 160.711 164.98 160.351 164.74C159.997 164.5 159.714 164.173 159.501 163.76C159.287 163.347 159.181 162.88 159.181 162.36C159.181 161.833 159.287 161.367 159.501 160.96C159.721 160.547 160.014 160.223 160.381 159.99C160.754 159.757 161.171 159.64 161.631 159.64C161.904 159.64 162.154 159.68 162.381 159.76C162.607 159.84 162.804 159.953 162.971 160.1C163.144 160.24 163.284 160.403 163.391 160.59C163.504 160.777 163.574 160.977 163.601 161.19L163.371 161.11V159.75H164.411V165H163.371V163.75L163.611 163.68C163.571 163.86 163.487 164.037 163.361 164.21C163.241 164.377 163.084 164.527 162.891 164.66C162.704 164.793 162.494 164.9 162.261 164.98C162.034 165.06 161.794 165.1 161.541 165.1ZM161.811 164.15C162.124 164.15 162.401 164.073 162.641 163.92C162.881 163.767 163.067 163.557 163.201 163.29C163.341 163.017 163.411 162.707 163.411 162.36C163.411 162.02 163.341 161.717 163.201 161.45C163.067 161.183 162.881 160.973 162.641 160.82C162.401 160.667 162.124 160.59 161.811 160.59C161.504 160.59 161.231 160.667 160.991 160.82C160.757 160.973 160.571 161.183 160.431 161.45C160.297 161.717 160.231 162.02 160.231 162.36C160.231 162.707 160.297 163.017 160.431 163.29C160.571 163.557 160.757 163.767 160.991 163.92C161.231 164.073 161.504 164.15 161.811 164.15ZM166.019 165V159.75H167.049V165H166.019ZM166.519 158.59C166.299 158.59 166.129 158.533 166.009 158.42C165.889 158.307 165.829 158.147 165.829 157.94C165.829 157.747 165.889 157.59 166.009 157.47C166.136 157.35 166.306 157.29 166.519 157.29C166.739 157.29 166.909 157.347 167.029 157.46C167.149 157.573 167.209 157.733 167.209 157.94C167.209 158.133 167.146 158.29 167.019 158.41C166.899 158.53 166.732 158.59 166.519 158.59ZM168.652 165V157.6H169.682V165H168.652ZM172.892 165.1C172.452 165.1 172.055 165.023 171.702 164.87C171.349 164.717 171.055 164.49 170.822 164.19L171.522 163.59C171.722 163.823 171.939 163.993 172.172 164.1C172.412 164.2 172.682 164.25 172.982 164.25C173.102 164.25 173.212 164.237 173.312 164.21C173.419 164.177 173.509 164.13 173.582 164.07C173.662 164.01 173.722 163.94 173.762 163.86C173.802 163.773 173.822 163.68 173.822 163.58C173.822 163.407 173.759 163.267 173.632 163.16C173.565 163.113 173.459 163.063 173.312 163.01C173.172 162.95 172.989 162.89 172.762 162.83C172.375 162.73 172.059 162.617 171.812 162.49C171.565 162.363 171.375 162.22 171.242 162.06C171.142 161.933 171.069 161.797 171.022 161.65C170.975 161.497 170.952 161.33 170.952 161.15C170.952 160.93 170.999 160.73 171.092 160.55C171.192 160.363 171.325 160.203 171.492 160.07C171.665 159.93 171.865 159.823 172.092 159.75C172.325 159.677 172.572 159.64 172.832 159.64C173.079 159.64 173.322 159.673 173.562 159.74C173.809 159.807 174.035 159.903 174.242 160.03C174.449 160.157 174.622 160.307 174.762 160.48L174.172 161.13C174.045 161.003 173.905 160.893 173.752 160.8C173.605 160.7 173.455 160.623 173.302 160.57C173.149 160.517 173.009 160.49 172.882 160.49C172.742 160.49 172.615 160.503 172.502 160.53C172.389 160.557 172.292 160.597 172.212 160.65C172.139 160.703 172.082 160.77 172.042 160.85C172.002 160.93 171.982 161.02 171.982 161.12C171.989 161.207 172.009 161.29 172.042 161.37C172.082 161.443 172.135 161.507 172.202 161.56C172.275 161.613 172.385 161.67 172.532 161.73C172.679 161.79 172.865 161.847 173.092 161.9C173.425 161.987 173.699 162.083 173.912 162.19C174.132 162.29 174.305 162.407 174.432 162.54C174.565 162.667 174.659 162.813 174.712 162.98C174.765 163.147 174.792 163.333 174.792 163.54C174.792 163.84 174.705 164.11 174.532 164.35C174.365 164.583 174.139 164.767 173.852 164.9C173.565 165.033 173.245 165.1 172.892 165.1Z" fill="black"/>
<path d="M96.82 242.1C96.3333 242.1 95.8867 242.013 95.48 241.84C95.0733 241.667 94.72 241.42 94.42 241.1C94.12 240.773 93.8867 240.39 93.72 239.95C93.56 239.51 93.48 239.027 93.48 238.5C93.48 238 93.5667 237.537 93.74 237.11C93.92 236.677 94.1667 236.297 94.48 235.97C94.7933 235.643 95.1567 235.39 95.57 235.21C95.9833 235.03 96.43 234.94 96.91 234.94C97.25 234.94 97.58 234.993 97.9 235.1C98.2267 235.2 98.52 235.343 98.78 235.53C99.0467 235.71 99.2633 235.917 99.43 236.15L98.71 236.9C98.5167 236.707 98.32 236.547 98.12 236.42C97.9267 236.287 97.7267 236.187 97.52 236.12C97.32 236.053 97.1167 236.02 96.91 236.02C96.5833 236.02 96.2767 236.083 95.99 236.21C95.71 236.33 95.4633 236.5 95.25 236.72C95.0433 236.94 94.88 237.203 94.76 237.51C94.64 237.81 94.58 238.14 94.58 238.5C94.58 238.88 94.6367 239.227 94.75 239.54C94.87 239.847 95.0367 240.11 95.25 240.33C95.4633 240.55 95.7167 240.72 96.01 240.84C96.31 240.953 96.64 241.01 97 241.01C97.22 241.01 97.4367 240.98 97.65 240.92C97.8633 240.86 98.0633 240.773 98.25 240.66C98.4367 240.547 98.6067 240.413 98.76 240.26L99.3 241.14C99.1467 241.32 98.9367 241.483 98.67 241.63C98.41 241.777 98.1167 241.893 97.79 241.98C97.47 242.06 97.1467 242.1 96.82 242.1ZM100.507 242V236.75H101.547V238.4L101.447 238C101.52 237.747 101.644 237.517 101.817 237.31C101.997 237.103 102.2 236.94 102.427 236.82C102.66 236.7 102.9 236.64 103.147 236.64C103.26 236.64 103.367 236.65 103.467 236.67C103.574 236.69 103.657 236.713 103.717 236.74L103.447 237.86C103.367 237.827 103.277 237.8 103.177 237.78C103.084 237.753 102.99 237.74 102.897 237.74C102.717 237.74 102.544 237.777 102.377 237.85C102.217 237.917 102.074 238.013 101.947 238.14C101.827 238.26 101.73 238.403 101.657 238.57C101.584 238.73 101.547 238.907 101.547 239.1V242H100.507ZM106.766 242.1C106.226 242.1 105.746 241.987 105.326 241.76C104.912 241.527 104.586 241.21 104.346 240.81C104.112 240.41 103.996 239.95 103.996 239.43C103.996 239.017 104.062 238.64 104.196 238.3C104.329 237.96 104.512 237.667 104.746 237.42C104.986 237.167 105.269 236.973 105.596 236.84C105.929 236.7 106.289 236.63 106.676 236.63C107.016 236.63 107.332 236.697 107.626 236.83C107.919 236.957 108.172 237.133 108.386 237.36C108.606 237.587 108.772 237.857 108.886 238.17C109.006 238.477 109.062 238.813 109.056 239.18L109.046 239.62H104.756L104.526 238.8H108.156L108.006 238.97V238.73C107.986 238.51 107.912 238.313 107.786 238.14C107.659 237.967 107.499 237.83 107.306 237.73C107.112 237.63 106.902 237.58 106.676 237.58C106.316 237.58 106.012 237.65 105.766 237.79C105.519 237.923 105.332 238.123 105.206 238.39C105.079 238.65 105.016 238.973 105.016 239.36C105.016 239.727 105.092 240.047 105.246 240.32C105.399 240.587 105.616 240.793 105.896 240.94C106.176 241.087 106.499 241.16 106.866 241.16C107.126 241.16 107.366 241.117 107.586 241.03C107.812 240.943 108.056 240.787 108.316 240.56L108.836 241.29C108.676 241.45 108.479 241.59 108.246 241.71C108.019 241.83 107.776 241.927 107.516 242C107.262 242.067 107.012 242.1 106.766 242.1ZM112.195 242.1C111.762 242.1 111.365 241.98 111.005 241.74C110.652 241.5 110.368 241.173 110.155 240.76C109.942 240.347 109.835 239.88 109.835 239.36C109.835 238.833 109.942 238.367 110.155 237.96C110.375 237.547 110.668 237.223 111.035 236.99C111.408 236.757 111.825 236.64 112.285 236.64C112.558 236.64 112.808 236.68 113.035 236.76C113.262 236.84 113.458 236.953 113.625 237.1C113.798 237.24 113.938 237.403 114.045 237.59C114.158 237.777 114.228 237.977 114.255 238.19L114.025 238.11V236.75H115.065V242H114.025V240.75L114.265 240.68C114.225 240.86 114.142 241.037 114.015 241.21C113.895 241.377 113.738 241.527 113.545 241.66C113.358 241.793 113.148 241.9 112.915 241.98C112.688 242.06 112.448 242.1 112.195 242.1ZM112.465 241.15C112.778 241.15 113.055 241.073 113.295 240.92C113.535 240.767 113.722 240.557 113.855 240.29C113.995 240.017 114.065 239.707 114.065 239.36C114.065 239.02 113.995 238.717 113.855 238.45C113.722 238.183 113.535 237.973 113.295 237.82C113.055 237.667 112.778 237.59 112.465 237.59C112.158 237.59 111.885 237.667 111.645 237.82C111.412 237.973 111.225 238.183 111.085 238.45C110.952 238.717 110.885 239.02 110.885 239.36C110.885 239.707 110.952 240.017 111.085 240.29C111.225 240.557 111.412 240.767 111.645 240.92C111.885 241.073 112.158 241.15 112.465 241.15ZM117.153 242V235.41H118.183V242H117.153ZM116.063 237.75V236.75H119.403V237.75H116.063ZM122.742 242.1C122.202 242.1 121.722 241.987 121.302 241.76C120.889 241.527 120.562 241.21 120.322 240.81C120.089 240.41 119.972 239.95 119.972 239.43C119.972 239.017 120.039 238.64 120.172 238.3C120.306 237.96 120.489 237.667 120.722 237.42C120.962 237.167 121.246 236.973 121.572 236.84C121.906 236.7 122.266 236.63 122.652 236.63C122.992 236.63 123.309 236.697 123.602 236.83C123.896 236.957 124.149 237.133 124.362 237.36C124.582 237.587 124.749 237.857 124.862 238.17C124.982 238.477 125.039 238.813 125.032 239.18L125.022 239.62H120.732L120.502 238.8H124.132L123.982 238.97V238.73C123.962 238.51 123.889 238.313 123.762 238.14C123.636 237.967 123.476 237.83 123.282 237.73C123.089 237.63 122.879 237.58 122.652 237.58C122.292 237.58 121.989 237.65 121.742 237.79C121.496 237.923 121.309 238.123 121.182 238.39C121.056 238.65 120.992 238.973 120.992 239.36C120.992 239.727 121.069 240.047 121.222 240.32C121.376 240.587 121.592 240.793 121.872 240.94C122.152 241.087 122.476 241.16 122.842 241.16C123.102 241.16 123.342 241.117 123.562 241.03C123.789 240.943 124.032 240.787 124.292 240.56L124.812 241.29C124.652 241.45 124.456 241.59 124.222 241.71C123.996 241.83 123.752 241.927 123.492 242C123.239 242.067 122.989 242.1 122.742 242.1ZM128.342 242.1C127.862 242.1 127.432 241.983 127.052 241.75C126.678 241.51 126.382 241.187 126.162 240.78C125.942 240.367 125.832 239.897 125.832 239.37C125.832 238.843 125.938 238.377 126.152 237.97C126.372 237.557 126.668 237.233 127.042 237C127.415 236.76 127.838 236.64 128.312 236.64C128.572 236.64 128.822 236.683 129.062 236.77C129.308 236.85 129.528 236.963 129.722 237.11C129.915 237.25 130.065 237.407 130.172 237.58C130.285 237.747 130.342 237.917 130.342 238.09L130.042 238.11V234.6H131.072V242H130.042V240.75H130.242C130.242 240.91 130.188 241.07 130.082 241.23C129.975 241.383 129.832 241.527 129.652 241.66C129.478 241.793 129.275 241.9 129.042 241.98C128.815 242.06 128.582 242.1 128.342 242.1ZM128.482 241.21C128.795 241.21 129.072 241.13 129.312 240.97C129.552 240.81 129.738 240.593 129.872 240.32C130.012 240.04 130.082 239.723 130.082 239.37C130.082 239.017 130.012 238.703 129.872 238.43C129.738 238.15 129.552 237.93 129.312 237.77C129.072 237.61 128.795 237.53 128.482 237.53C128.168 237.53 127.892 237.61 127.652 237.77C127.412 237.93 127.222 238.15 127.082 238.43C126.948 238.703 126.882 239.017 126.882 239.37C126.882 239.723 126.948 240.04 127.082 240.32C127.222 240.593 127.412 240.81 127.652 240.97C127.892 241.13 128.168 241.21 128.482 241.21ZM135.552 242V235H138.292C138.792 235 139.242 235.083 139.642 235.25C140.049 235.417 140.396 235.657 140.682 235.97C140.969 236.283 141.189 236.653 141.342 237.08C141.496 237.507 141.572 237.98 141.572 238.5C141.572 239.02 141.496 239.497 141.342 239.93C141.189 240.357 140.969 240.727 140.682 241.04C140.402 241.347 140.059 241.583 139.652 241.75C139.246 241.917 138.792 242 138.292 242H135.552ZM136.632 241.07L136.602 240.96H138.242C138.596 240.96 138.909 240.903 139.182 240.79C139.462 240.677 139.696 240.517 139.882 240.31C140.076 240.097 140.222 239.837 140.322 239.53C140.422 239.223 140.472 238.88 140.472 238.5C140.472 238.12 140.422 237.78 140.322 237.48C140.222 237.173 140.076 236.913 139.882 236.7C139.689 236.487 139.456 236.323 139.182 236.21C138.909 236.097 138.596 236.04 138.242 236.04H136.572L136.632 235.95V241.07ZM144.793 242.1C144.359 242.1 143.963 241.98 143.603 241.74C143.249 241.5 142.966 241.173 142.753 240.76C142.539 240.347 142.433 239.88 142.433 239.36C142.433 238.833 142.539 238.367 142.753 237.96C142.973 237.547 143.266 237.223 143.633 236.99C144.006 236.757 144.423 236.64 144.883 236.64C145.156 236.64 145.406 236.68 145.633 236.76C145.859 236.84 146.056 236.953 146.223 237.1C146.396 237.24 146.536 237.403 146.643 237.59C146.756 237.777 146.826 237.977 146.853 238.19L146.623 238.11V236.75H147.663V242H146.623V240.75L146.863 240.68C146.823 240.86 146.739 241.037 146.613 241.21C146.493 241.377 146.336 241.527 146.143 241.66C145.956 241.793 145.746 241.9 145.513 241.98C145.286 242.06 145.046 242.1 144.793 242.1ZM145.063 241.15C145.376 241.15 145.653 241.073 145.893 240.92C146.133 240.767 146.319 240.557 146.453 240.29C146.593 240.017 146.663 239.707 146.663 239.36C146.663 239.02 146.593 238.717 146.453 238.45C146.319 238.183 146.133 237.973 145.893 237.82C145.653 237.667 145.376 237.59 145.063 237.59C144.756 237.59 144.483 237.667 144.243 237.82C144.009 237.973 143.823 238.183 143.683 238.45C143.549 238.717 143.483 239.02 143.483 239.36C143.483 239.707 143.549 240.017 143.683 240.29C143.823 240.557 144.009 240.767 144.243 240.92C144.483 241.073 144.756 241.15 145.063 241.15ZM149.751 242V235.41H150.781V242H149.751ZM148.661 237.75V236.75H152.001V237.75H148.661ZM155.34 242.1C154.8 242.1 154.32 241.987 153.9 241.76C153.487 241.527 153.16 241.21 152.92 240.81C152.687 240.41 152.57 239.95 152.57 239.43C152.57 239.017 152.637 238.64 152.77 238.3C152.903 237.96 153.087 237.667 153.32 237.42C153.56 237.167 153.843 236.973 154.17 236.84C154.503 236.7 154.863 236.63 155.25 236.63C155.59 236.63 155.907 236.697 156.2 236.83C156.493 236.957 156.747 237.133 156.96 237.36C157.18 237.587 157.347 237.857 157.46 238.17C157.58 238.477 157.637 238.813 157.63 239.18L157.62 239.62H153.33L153.1 238.8H156.73L156.58 238.97V238.73C156.56 238.51 156.487 238.313 156.36 238.14C156.233 237.967 156.073 237.83 155.88 237.73C155.687 237.63 155.477 237.58 155.25 237.58C154.89 237.58 154.587 237.65 154.34 237.79C154.093 237.923 153.907 238.123 153.78 238.39C153.653 238.65 153.59 238.973 153.59 239.36C153.59 239.727 153.667 240.047 153.82 240.32C153.973 240.587 154.19 240.793 154.47 240.94C154.75 241.087 155.073 241.16 155.44 241.16C155.7 241.16 155.94 241.117 156.16 241.03C156.387 240.943 156.63 240.787 156.89 240.56L157.41 241.29C157.25 241.45 157.053 241.59 156.82 241.71C156.593 241.83 156.35 241.927 156.09 242C155.837 242.067 155.587 242.1 155.34 242.1Z" fill="black"/>
<path d="M93.98 318V311H96.72C97.22 311 97.67 311.083 98.07 311.25C98.4767 311.417 98.8233 311.657 99.11 311.97C99.3967 312.283 99.6167 312.653 99.77 313.08C99.9233 313.507 100 313.98 100 314.5C100 315.02 99.9233 315.497 99.77 315.93C99.6167 316.357 99.3967 316.727 99.11 317.04C98.83 317.347 98.4867 317.583 98.08 317.75C97.6733 317.917 97.22 318 96.72 318H93.98ZM95.06 317.07L95.03 316.96H96.67C97.0233 316.96 97.3367 316.903 97.61 316.79C97.89 316.677 98.1233 316.517 98.31 316.31C98.5033 316.097 98.65 315.837 98.75 315.53C98.85 315.223 98.9 314.88 98.9 314.5C98.9 314.12 98.85 313.78 98.75 313.48C98.65 313.173 98.5033 312.913 98.31 312.7C98.1167 312.487 97.8833 312.323 97.61 312.21C97.3367 312.097 97.0233 312.04 96.67 312.04H95L95.06 311.95V317.07ZM103.65 318.1C103.11 318.1 102.63 317.987 102.21 317.76C101.797 317.527 101.47 317.21 101.23 316.81C100.997 316.41 100.88 315.95 100.88 315.43C100.88 315.017 100.947 314.64 101.08 314.3C101.214 313.96 101.397 313.667 101.63 313.42C101.87 313.167 102.154 312.973 102.48 312.84C102.814 312.7 103.174 312.63 103.56 312.63C103.9 312.63 104.217 312.697 104.51 312.83C104.804 312.957 105.057 313.133 105.27 313.36C105.49 313.587 105.657 313.857 105.77 314.17C105.89 314.477 105.947 314.813 105.94 315.18L105.93 315.62H101.64L101.41 314.8H105.04L104.89 314.97V314.73C104.87 314.51 104.797 314.313 104.67 314.14C104.544 313.967 104.384 313.83 104.19 313.73C103.997 313.63 103.787 313.58 103.56 313.58C103.2 313.58 102.897 313.65 102.65 313.79C102.404 313.923 102.217 314.123 102.09 314.39C101.964 314.65 101.9 314.973 101.9 315.36C101.9 315.727 101.977 316.047 102.13 316.32C102.284 316.587 102.5 316.793 102.78 316.94C103.06 317.087 103.384 317.16 103.75 317.16C104.01 317.16 104.25 317.117 104.47 317.03C104.697 316.943 104.94 316.787 105.2 316.56L105.72 317.29C105.56 317.45 105.364 317.59 105.13 317.71C104.904 317.83 104.66 317.927 104.4 318C104.147 318.067 103.897 318.1 103.65 318.1ZM108.81 318.1C108.37 318.1 107.973 318.023 107.62 317.87C107.267 317.717 106.973 317.49 106.74 317.19L107.44 316.59C107.64 316.823 107.857 316.993 108.09 317.1C108.33 317.2 108.6 317.25 108.9 317.25C109.02 317.25 109.13 317.237 109.23 317.21C109.337 317.177 109.427 317.13 109.5 317.07C109.58 317.01 109.64 316.94 109.68 316.86C109.72 316.773 109.74 316.68 109.74 316.58C109.74 316.407 109.677 316.267 109.55 316.16C109.483 316.113 109.377 316.063 109.23 316.01C109.09 315.95 108.907 315.89 108.68 315.83C108.293 315.73 107.977 315.617 107.73 315.49C107.483 315.363 107.293 315.22 107.16 315.06C107.06 314.933 106.987 314.797 106.94 314.65C106.893 314.497 106.87 314.33 106.87 314.15C106.87 313.93 106.917 313.73 107.01 313.55C107.11 313.363 107.243 313.203 107.41 313.07C107.583 312.93 107.783 312.823 108.01 312.75C108.243 312.677 108.49 312.64 108.75 312.64C108.997 312.64 109.24 312.673 109.48 312.74C109.727 312.807 109.953 312.903 110.16 313.03C110.367 313.157 110.54 313.307 110.68 313.48L110.09 314.13C109.963 314.003 109.823 313.893 109.67 313.8C109.523 313.7 109.373 313.623 109.22 313.57C109.067 313.517 108.927 313.49 108.8 313.49C108.66 313.49 108.533 313.503 108.42 313.53C108.307 313.557 108.21 313.597 108.13 313.65C108.057 313.703 108 313.77 107.96 313.85C107.92 313.93 107.9 314.02 107.9 314.12C107.907 314.207 107.927 314.29 107.96 314.37C108 314.443 108.053 314.507 108.12 314.56C108.193 314.613 108.303 314.67 108.45 314.73C108.597 314.79 108.783 314.847 109.01 314.9C109.343 314.987 109.617 315.083 109.83 315.19C110.05 315.29 110.223 315.407 110.35 315.54C110.483 315.667 110.577 315.813 110.63 315.98C110.683 316.147 110.71 316.333 110.71 316.54C110.71 316.84 110.623 317.11 110.45 317.35C110.283 317.583 110.057 317.767 109.77 317.9C109.483 318.033 109.163 318.1 108.81 318.1ZM114.075 318.1C113.588 318.1 113.152 317.98 112.765 317.74C112.385 317.5 112.082 317.173 111.855 316.76C111.635 316.347 111.525 315.883 111.525 315.37C111.525 314.857 111.635 314.393 111.855 313.98C112.082 313.567 112.385 313.24 112.765 313C113.152 312.76 113.588 312.64 114.075 312.64C114.542 312.64 114.965 312.737 115.345 312.93C115.732 313.117 116.025 313.373 116.225 313.7L115.655 314.4C115.548 314.247 115.412 314.107 115.245 313.98C115.078 313.853 114.902 313.753 114.715 313.68C114.528 313.607 114.348 313.57 114.175 313.57C113.855 313.57 113.568 313.65 113.315 313.81C113.068 313.963 112.872 314.177 112.725 314.45C112.578 314.723 112.505 315.03 112.505 315.37C112.505 315.71 112.582 316.017 112.735 316.29C112.888 316.557 113.092 316.77 113.345 316.93C113.598 317.09 113.878 317.17 114.185 317.17C114.365 317.17 114.538 317.14 114.705 317.08C114.878 317.02 115.045 316.93 115.205 316.81C115.365 316.69 115.515 316.543 115.655 316.37L116.225 317.07C116.012 317.37 115.705 317.617 115.305 317.81C114.912 318.003 114.502 318.1 114.075 318.1ZM117.197 318V312.75H118.237V314.4L118.137 314C118.21 313.747 118.333 313.517 118.507 313.31C118.687 313.103 118.89 312.94 119.117 312.82C119.35 312.7 119.59 312.64 119.837 312.64C119.95 312.64 120.057 312.65 120.157 312.67C120.263 312.69 120.347 312.713 120.407 312.74L120.137 313.86C120.057 313.827 119.967 313.8 119.867 313.78C119.773 313.753 119.68 313.74 119.587 313.74C119.407 313.74 119.233 313.777 119.067 313.85C118.907 313.917 118.763 314.013 118.637 314.14C118.517 314.26 118.42 314.403 118.347 314.57C118.273 314.73 118.237 314.907 118.237 315.1V318H117.197ZM121.4 318V312.75H122.43V318H121.4ZM121.9 311.59C121.68 311.59 121.51 311.533 121.39 311.42C121.27 311.307 121.21 311.147 121.21 310.94C121.21 310.747 121.27 310.59 121.39 310.47C121.516 310.35 121.686 310.29 121.9 310.29C122.12 310.29 122.29 310.347 122.41 310.46C122.53 310.573 122.59 310.733 122.59 310.94C122.59 311.133 122.526 311.29 122.4 311.41C122.28 311.53 122.113 311.59 121.9 311.59ZM124.013 320.2V312.75H125.053V313.95L124.893 313.86C124.933 313.66 125.046 313.47 125.233 313.29C125.42 313.103 125.646 312.953 125.913 312.84C126.186 312.72 126.466 312.66 126.753 312.66C127.226 312.66 127.646 312.777 128.013 313.01C128.38 313.243 128.67 313.563 128.883 313.97C129.096 314.377 129.203 314.843 129.203 315.37C129.203 315.89 129.096 316.357 128.883 316.77C128.676 317.177 128.39 317.5 128.023 317.74C127.656 317.973 127.243 318.09 126.783 318.09C126.476 318.09 126.18 318.03 125.893 317.91C125.606 317.783 125.363 317.623 125.163 317.43C124.963 317.237 124.84 317.037 124.793 316.83L125.053 316.69V320.2H124.013ZM126.613 317.14C126.92 317.14 127.193 317.063 127.433 316.91C127.673 316.757 127.863 316.547 128.003 316.28C128.143 316.013 128.213 315.71 128.213 315.37C128.213 315.03 128.143 314.73 128.003 314.47C127.87 314.203 127.683 313.993 127.443 313.84C127.203 313.687 126.926 313.61 126.613 313.61C126.3 313.61 126.023 313.687 125.783 313.84C125.543 313.987 125.353 314.193 125.213 314.46C125.073 314.727 125.003 315.03 125.003 315.37C125.003 315.71 125.073 316.013 125.213 316.28C125.353 316.547 125.543 316.757 125.783 316.91C126.023 317.063 126.3 317.14 126.613 317.14ZM130.972 318V311.41H132.002V318H130.972ZM129.882 313.75V312.75H133.222V313.75H129.882ZM134.329 318V312.75H135.359V318H134.329ZM134.829 311.59C134.609 311.59 134.439 311.533 134.319 311.42C134.199 311.307 134.139 311.147 134.139 310.94C134.139 310.747 134.199 310.59 134.319 310.47C134.446 310.35 134.616 310.29 134.829 310.29C135.049 310.29 135.219 310.347 135.339 310.46C135.459 310.573 135.519 310.733 135.519 310.94C135.519 311.133 135.456 311.29 135.329 311.41C135.209 311.53 135.043 311.59 134.829 311.59ZM139.303 318.1C138.789 318.1 138.329 317.983 137.923 317.75C137.523 317.51 137.206 317.187 136.973 316.78C136.739 316.367 136.623 315.897 136.623 315.37C136.623 314.843 136.739 314.377 136.973 313.97C137.206 313.557 137.523 313.233 137.923 313C138.329 312.76 138.789 312.64 139.303 312.64C139.809 312.64 140.263 312.76 140.663 313C141.069 313.233 141.389 313.557 141.623 313.97C141.856 314.377 141.973 314.843 141.973 315.37C141.973 315.897 141.856 316.367 141.623 316.78C141.389 317.187 141.069 317.51 140.663 317.75C140.263 317.983 139.809 318.1 139.303 318.1ZM139.303 317.16C139.616 317.16 139.896 317.083 140.143 316.93C140.389 316.77 140.583 316.557 140.723 316.29C140.863 316.017 140.929 315.71 140.923 315.37C140.929 315.023 140.863 314.717 140.723 314.45C140.583 314.177 140.389 313.963 140.143 313.81C139.896 313.657 139.616 313.58 139.303 313.58C138.989 313.58 138.706 313.66 138.453 313.82C138.206 313.973 138.013 314.187 137.873 314.46C137.733 314.727 137.666 315.03 137.673 315.37C137.666 315.71 137.733 316.017 137.873 316.29C138.013 316.557 138.206 316.77 138.453 316.93C138.706 317.083 138.989 317.16 139.303 317.16ZM143.095 318V312.75H144.125V313.83L143.945 313.95C144.012 313.717 144.142 313.503 144.335 313.31C144.528 313.11 144.758 312.95 145.025 312.83C145.292 312.703 145.565 312.64 145.845 312.64C146.245 312.64 146.578 312.72 146.845 312.88C147.112 313.033 147.312 313.27 147.445 313.59C147.578 313.91 147.645 314.313 147.645 314.8V318H146.615V314.87C146.615 314.57 146.575 314.323 146.495 314.13C146.415 313.93 146.292 313.787 146.125 313.7C145.958 313.607 145.752 313.567 145.505 313.58C145.305 313.58 145.122 313.613 144.955 313.68C144.788 313.74 144.642 313.827 144.515 313.94C144.395 314.053 144.298 314.187 144.225 314.34C144.158 314.487 144.125 314.647 144.125 314.82V318H143.615C143.528 318 143.442 318 143.355 318C143.268 318 143.182 318 143.095 318Z" fill="black"/>
<path d="M257.14 165.1C256.76 165.1 256.407 165.05 256.08 164.95C255.76 164.85 255.467 164.7 255.2 164.5C254.94 164.293 254.707 164.04 254.5 163.74L255.24 162.89C255.567 163.357 255.88 163.68 256.18 163.86C256.48 164.04 256.837 164.13 257.25 164.13C257.503 164.13 257.733 164.09 257.94 164.01C258.147 163.93 258.31 163.82 258.43 163.68C258.55 163.54 258.61 163.38 258.61 163.2C258.61 163.08 258.59 162.967 258.55 162.86C258.51 162.753 258.447 162.657 258.36 162.57C258.28 162.483 258.173 162.403 258.04 162.33C257.913 162.257 257.763 162.193 257.59 162.14C257.417 162.08 257.217 162.03 256.99 161.99C256.63 161.917 256.317 161.82 256.05 161.7C255.783 161.58 255.56 161.43 255.38 161.25C255.2 161.07 255.067 160.867 254.98 160.64C254.893 160.407 254.85 160.147 254.85 159.86C254.85 159.58 254.91 159.32 255.03 159.08C255.157 158.84 255.327 158.633 255.54 158.46C255.76 158.28 256.017 158.143 256.31 158.05C256.603 157.95 256.92 157.9 257.26 157.9C257.62 157.9 257.95 157.947 258.25 158.04C258.55 158.133 258.817 158.273 259.05 158.46C259.283 158.64 259.477 158.863 259.63 159.13L258.87 159.88C258.737 159.66 258.587 159.477 258.42 159.33C258.253 159.177 258.07 159.063 257.87 158.99C257.67 158.91 257.457 158.87 257.23 158.87C256.97 158.87 256.743 158.91 256.55 158.99C256.357 159.07 256.203 159.183 256.09 159.33C255.983 159.47 255.93 159.637 255.93 159.83C255.93 159.97 255.957 160.1 256.01 160.22C256.063 160.333 256.143 160.437 256.25 160.53C256.363 160.617 256.513 160.697 256.7 160.77C256.887 160.837 257.11 160.897 257.37 160.95C257.737 161.03 258.063 161.133 258.35 161.26C258.637 161.38 258.88 161.523 259.08 161.69C259.28 161.857 259.43 162.043 259.53 162.25C259.637 162.457 259.69 162.68 259.69 162.92C259.69 163.367 259.587 163.753 259.38 164.08C259.173 164.407 258.88 164.66 258.5 164.84C258.12 165.013 257.667 165.1 257.14 165.1ZM261.61 165V158.41H262.64V165H261.61ZM260.52 160.75V159.75H263.86V160.75H260.52ZM266.769 165.1C266.336 165.1 265.939 164.98 265.579 164.74C265.226 164.5 264.943 164.173 264.729 163.76C264.516 163.347 264.409 162.88 264.409 162.36C264.409 161.833 264.516 161.367 264.729 160.96C264.949 160.547 265.243 160.223 265.609 159.99C265.983 159.757 266.399 159.64 266.859 159.64C267.133 159.64 267.383 159.68 267.609 159.76C267.836 159.84 268.033 159.953 268.199 160.1C268.373 160.24 268.513 160.403 268.619 160.59C268.733 160.777 268.803 160.977 268.829 161.19L268.599 161.11V159.75H269.639V165H268.599V163.75L268.839 163.68C268.799 163.86 268.716 164.037 268.589 164.21C268.469 164.377 268.313 164.527 268.119 164.66C267.933 164.793 267.723 164.9 267.489 164.98C267.263 165.06 267.023 165.1 266.769 165.1ZM267.039 164.15C267.353 164.15 267.629 164.073 267.869 163.92C268.109 163.767 268.296 163.557 268.429 163.29C268.569 163.017 268.639 162.707 268.639 162.36C268.639 162.02 268.569 161.717 268.429 161.45C268.296 161.183 268.109 160.973 267.869 160.82C267.629 160.667 267.353 160.59 267.039 160.59C266.733 160.59 266.459 160.667 266.219 160.82C265.986 160.973 265.799 161.183 265.659 161.45C265.526 161.717 265.459 162.02 265.459 162.36C265.459 162.707 265.526 163.017 265.659 163.29C265.799 163.557 265.986 163.767 266.219 163.92C266.459 164.073 266.733 164.15 267.039 164.15ZM271.727 165V158.41H272.757V165H271.727ZM270.637 160.75V159.75H273.977V160.75H270.637ZM276.755 165.1C276.382 165.1 276.055 165.013 275.775 164.84C275.502 164.667 275.289 164.423 275.135 164.11C274.989 163.797 274.915 163.423 274.915 162.99V159.75H275.945V162.71C275.945 163.017 275.992 163.283 276.085 163.51C276.185 163.73 276.325 163.9 276.505 164.02C276.692 164.14 276.915 164.2 277.175 164.2C277.369 164.2 277.545 164.17 277.705 164.11C277.865 164.043 278.002 163.953 278.115 163.84C278.235 163.727 278.329 163.59 278.395 163.43C278.462 163.27 278.495 163.097 278.495 162.91V159.75H279.525V165H278.495V163.9L278.675 163.78C278.595 164.027 278.459 164.25 278.265 164.45C278.079 164.65 277.855 164.81 277.595 164.93C277.335 165.043 277.055 165.1 276.755 165.1ZM282.72 165.1C282.28 165.1 281.883 165.023 281.53 164.87C281.177 164.717 280.883 164.49 280.65 164.19L281.35 163.59C281.55 163.823 281.767 163.993 282 164.1C282.24 164.2 282.51 164.25 282.81 164.25C282.93 164.25 283.04 164.237 283.14 164.21C283.247 164.177 283.337 164.13 283.41 164.07C283.49 164.01 283.55 163.94 283.59 163.86C283.63 163.773 283.65 163.68 283.65 163.58C283.65 163.407 283.587 163.267 283.46 163.16C283.393 163.113 283.287 163.063 283.14 163.01C283 162.95 282.817 162.89 282.59 162.83C282.203 162.73 281.887 162.617 281.64 162.49C281.393 162.363 281.203 162.22 281.07 162.06C280.97 161.933 280.897 161.797 280.85 161.65C280.803 161.497 280.78 161.33 280.78 161.15C280.78 160.93 280.827 160.73 280.92 160.55C281.02 160.363 281.153 160.203 281.32 160.07C281.493 159.93 281.693 159.823 281.92 159.75C282.153 159.677 282.4 159.64 282.66 159.64C282.907 159.64 283.15 159.673 283.39 159.74C283.637 159.807 283.863 159.903 284.07 160.03C284.277 160.157 284.45 160.307 284.59 160.48L284 161.13C283.873 161.003 283.733 160.893 283.58 160.8C283.433 160.7 283.283 160.623 283.13 160.57C282.977 160.517 282.837 160.49 282.71 160.49C282.57 160.49 282.443 160.503 282.33 160.53C282.217 160.557 282.12 160.597 282.04 160.65C281.967 160.703 281.91 160.77 281.87 160.85C281.83 160.93 281.81 161.02 281.81 161.12C281.817 161.207 281.837 161.29 281.87 161.37C281.91 161.443 281.963 161.507 282.03 161.56C282.103 161.613 282.213 161.67 282.36 161.73C282.507 161.79 282.693 161.847 282.92 161.9C283.253 161.987 283.527 162.083 283.74 162.19C283.96 162.29 284.133 162.407 284.26 162.54C284.393 162.667 284.487 162.813 284.54 162.98C284.593 163.147 284.62 163.333 284.62 163.54C284.62 163.84 284.533 164.11 284.36 164.35C284.193 164.583 283.967 164.767 283.68 164.9C283.393 165.033 283.073 165.1 282.72 165.1Z" fill="#3B3B3B"/>
<path d="M254.98 242V235H256.06V240.96H259.34V242H254.98ZM262.531 242.1C262.098 242.1 261.701 241.98 261.341 241.74C260.988 241.5 260.704 241.173 260.491 240.76C260.278 240.347 260.171 239.88 260.171 239.36C260.171 238.833 260.278 238.367 260.491 237.96C260.711 237.547 261.004 237.223 261.371 236.99C261.744 236.757 262.161 236.64 262.621 236.64C262.894 236.64 263.144 236.68 263.371 236.76C263.598 236.84 263.794 236.953 263.961 237.1C264.134 237.24 264.274 237.403 264.381 237.59C264.494 237.777 264.564 237.977 264.591 238.19L264.361 238.11V236.75H265.401V242H264.361V240.75L264.601 240.68C264.561 240.86 264.478 241.037 264.351 241.21C264.231 241.377 264.074 241.527 263.881 241.66C263.694 241.793 263.484 241.9 263.251 241.98C263.024 242.06 262.784 242.1 262.531 242.1ZM262.801 241.15C263.114 241.15 263.391 241.073 263.631 240.92C263.871 240.767 264.058 240.557 264.191 240.29C264.331 240.017 264.401 239.707 264.401 239.36C264.401 239.02 264.331 238.717 264.191 238.45C264.058 238.183 263.871 237.973 263.631 237.82C263.391 237.667 263.114 237.59 262.801 237.59C262.494 237.59 262.221 237.667 261.981 237.82C261.748 237.973 261.561 238.183 261.421 238.45C261.288 238.717 261.221 239.02 261.221 239.36C261.221 239.707 261.288 240.017 261.421 240.29C261.561 240.557 261.748 240.767 261.981 240.92C262.221 241.073 262.494 241.15 262.801 241.15ZM268.589 242.1C268.149 242.1 267.752 242.023 267.399 241.87C267.046 241.717 266.752 241.49 266.519 241.19L267.219 240.59C267.419 240.823 267.636 240.993 267.869 241.1C268.109 241.2 268.379 241.25 268.679 241.25C268.799 241.25 268.909 241.237 269.009 241.21C269.116 241.177 269.206 241.13 269.279 241.07C269.359 241.01 269.419 240.94 269.459 240.86C269.499 240.773 269.519 240.68 269.519 240.58C269.519 240.407 269.456 240.267 269.329 240.16C269.262 240.113 269.156 240.063 269.009 240.01C268.869 239.95 268.686 239.89 268.459 239.83C268.072 239.73 267.756 239.617 267.509 239.49C267.262 239.363 267.072 239.22 266.939 239.06C266.839 238.933 266.766 238.797 266.719 238.65C266.672 238.497 266.649 238.33 266.649 238.15C266.649 237.93 266.696 237.73 266.789 237.55C266.889 237.363 267.022 237.203 267.189 237.07C267.362 236.93 267.562 236.823 267.789 236.75C268.022 236.677 268.269 236.64 268.529 236.64C268.776 236.64 269.019 236.673 269.259 236.74C269.506 236.807 269.732 236.903 269.939 237.03C270.146 237.157 270.319 237.307 270.459 237.48L269.869 238.13C269.742 238.003 269.602 237.893 269.449 237.8C269.302 237.7 269.152 237.623 268.999 237.57C268.846 237.517 268.706 237.49 268.579 237.49C268.439 237.49 268.312 237.503 268.199 237.53C268.086 237.557 267.989 237.597 267.909 237.65C267.836 237.703 267.779 237.77 267.739 237.85C267.699 237.93 267.679 238.02 267.679 238.12C267.686 238.207 267.706 238.29 267.739 238.37C267.779 238.443 267.832 238.507 267.899 238.56C267.972 238.613 268.082 238.67 268.229 238.73C268.376 238.79 268.562 238.847 268.789 238.9C269.122 238.987 269.396 239.083 269.609 239.19C269.829 239.29 270.002 239.407 270.129 239.54C270.262 239.667 270.356 239.813 270.409 239.98C270.462 240.147 270.489 240.333 270.489 240.54C270.489 240.84 270.402 241.11 270.229 241.35C270.062 241.583 269.836 241.767 269.549 241.9C269.262 242.033 268.942 242.1 268.589 242.1ZM272.274 242V235.41H273.304V242H272.274ZM271.184 237.75V236.75H274.524V237.75H271.184ZM278.525 242V235H281.505C281.905 235 282.272 235.1 282.605 235.3C282.945 235.493 283.215 235.76 283.415 236.1C283.615 236.433 283.715 236.81 283.715 237.23C283.715 237.61 283.615 237.963 283.415 238.29C283.215 238.617 282.948 238.88 282.615 239.08C282.282 239.273 281.912 239.37 281.505 239.37H279.605V242H278.525ZM282.685 242L280.905 238.84L282.015 238.59L283.995 242.01L282.685 242ZM279.605 238.33H281.605C281.798 238.33 281.972 238.283 282.125 238.19C282.278 238.09 282.398 237.957 282.485 237.79C282.572 237.617 282.615 237.427 282.615 237.22C282.615 236.987 282.558 236.783 282.445 236.61C282.338 236.43 282.185 236.29 281.985 236.19C281.792 236.09 281.572 236.04 281.325 236.04H279.605V238.33ZM286.96 242.1C286.587 242.1 286.26 242.013 285.98 241.84C285.707 241.667 285.494 241.423 285.34 241.11C285.194 240.797 285.12 240.423 285.12 239.99V236.75H286.15V239.71C286.15 240.017 286.197 240.283 286.29 240.51C286.39 240.73 286.53 240.9 286.71 241.02C286.897 241.14 287.12 241.2 287.38 241.2C287.574 241.2 287.75 241.17 287.91 241.11C288.07 241.043 288.207 240.953 288.32 240.84C288.44 240.727 288.534 240.59 288.6 240.43C288.667 240.27 288.7 240.097 288.7 239.91V236.75H289.73V242H288.7V240.9L288.88 240.78C288.8 241.027 288.664 241.25 288.47 241.45C288.284 241.65 288.06 241.81 287.8 241.93C287.54 242.043 287.26 242.1 286.96 242.1ZM291.175 242V236.75H292.205V237.83L292.025 237.95C292.092 237.717 292.222 237.503 292.415 237.31C292.608 237.11 292.838 236.95 293.105 236.83C293.372 236.703 293.645 236.64 293.925 236.64C294.325 236.64 294.658 236.72 294.925 236.88C295.192 237.033 295.392 237.27 295.525 237.59C295.658 237.91 295.725 238.313 295.725 238.8V242H294.695V238.87C294.695 238.57 294.655 238.323 294.575 238.13C294.495 237.93 294.372 237.787 294.205 237.7C294.038 237.607 293.832 237.567 293.585 237.58C293.385 237.58 293.202 237.613 293.035 237.68C292.868 237.74 292.722 237.827 292.595 237.94C292.475 238.053 292.378 238.187 292.305 238.34C292.238 238.487 292.205 238.647 292.205 238.82V242H291.695C291.608 242 291.522 242 291.435 242C291.348 242 291.262 242 291.175 242ZM300.185 242V235H302.925C303.425 235 303.875 235.083 304.275 235.25C304.682 235.417 305.028 235.657 305.315 235.97C305.602 236.283 305.822 236.653 305.975 237.08C306.128 237.507 306.205 237.98 306.205 238.5C306.205 239.02 306.128 239.497 305.975 239.93C305.822 240.357 305.602 240.727 305.315 241.04C305.035 241.347 304.692 241.583 304.285 241.75C303.878 241.917 303.425 242 302.925 242H300.185ZM301.265 241.07L301.235 240.96H302.875C303.228 240.96 303.542 240.903 303.815 240.79C304.095 240.677 304.328 240.517 304.515 240.31C304.708 240.097 304.855 239.837 304.955 239.53C305.055 239.223 305.105 238.88 305.105 238.5C305.105 238.12 305.055 237.78 304.955 237.48C304.855 237.173 304.708 236.913 304.515 236.7C304.322 236.487 304.088 236.323 303.815 236.21C303.542 236.097 303.228 236.04 302.875 236.04H301.205L301.265 235.95V241.07ZM309.426 242.1C308.992 242.1 308.596 241.98 308.236 241.74C307.882 241.5 307.599 241.173 307.386 240.76C307.172 240.347 307.066 239.88 307.066 239.36C307.066 238.833 307.172 238.367 307.386 237.96C307.606 237.547 307.899 237.223 308.266 236.99C308.639 236.757 309.056 236.64 309.516 236.64C309.789 236.64 310.039 236.68 310.266 236.76C310.492 236.84 310.689 236.953 310.856 237.1C311.029 237.24 311.169 237.403 311.276 237.59C311.389 237.777 311.459 237.977 311.486 238.19L311.256 238.11V236.75H312.296V242H311.256V240.75L311.496 240.68C311.456 240.86 311.372 241.037 311.246 241.21C311.126 241.377 310.969 241.527 310.776 241.66C310.589 241.793 310.379 241.9 310.146 241.98C309.919 242.06 309.679 242.1 309.426 242.1ZM309.696 241.15C310.009 241.15 310.286 241.073 310.526 240.92C310.766 240.767 310.952 240.557 311.086 240.29C311.226 240.017 311.296 239.707 311.296 239.36C311.296 239.02 311.226 238.717 311.086 238.45C310.952 238.183 310.766 237.973 310.526 237.82C310.286 237.667 310.009 237.59 309.696 237.59C309.389 237.59 309.116 237.667 308.876 237.82C308.642 237.973 308.456 238.183 308.316 238.45C308.182 238.717 308.116 239.02 308.116 239.36C308.116 239.707 308.182 240.017 308.316 240.29C308.456 240.557 308.642 240.767 308.876 240.92C309.116 241.073 309.389 241.15 309.696 241.15ZM314.384 242V235.41H315.414V242H314.384ZM313.294 237.75V236.75H316.634V237.75H313.294ZM319.973 242.1C319.433 242.1 318.953 241.987 318.533 241.76C318.119 241.527 317.793 241.21 317.553 240.81C317.319 240.41 317.203 239.95 317.203 239.43C317.203 239.017 317.269 238.64 317.403 238.3C317.536 237.96 317.719 237.667 317.953 237.42C318.193 237.167 318.476 236.973 318.803 236.84C319.136 236.7 319.496 236.63 319.883 236.63C320.223 236.63 320.539 236.697 320.833 236.83C321.126 236.957 321.379 237.133 321.593 237.36C321.813 237.587 321.979 237.857 322.093 238.17C322.213 238.477 322.269 238.813 322.263 239.18L322.253 239.62H317.963L317.733 238.8H321.363L321.213 238.97V238.73C321.193 238.51 321.119 238.313 320.993 238.14C320.866 237.967 320.706 237.83 320.513 237.73C320.319 237.63 320.109 237.58 319.883 237.58C319.523 237.58 319.219 237.65 318.973 237.79C318.726 237.923 318.539 238.123 318.413 238.39C318.286 238.65 318.223 238.973 318.223 239.36C318.223 239.727 318.299 240.047 318.453 240.32C318.606 240.587 318.823 240.793 319.103 240.94C319.383 241.087 319.706 241.16 320.073 241.16C320.333 241.16 320.573 241.117 320.793 241.03C321.019 240.943 321.263 240.787 321.523 240.56L322.043 241.29C321.883 241.45 321.686 241.59 321.453 241.71C321.226 241.83 320.983 241.927 320.723 242C320.469 242.067 320.219 242.1 319.973 242.1Z" fill="black"/>
<rect x="104" y="184" width="77" height="7" rx="3.5" fill="#E4E6EA"/>
<rect x="104" y="261" width="77" height="7" rx="3.5" fill="#E4E6EA"/>
<rect x="104" y="337" width="270" height="7" rx="3.5" fill="#E4E6EA"/>
<rect x="104" y="352" width="246" height="7" rx="3.5" fill="#E4E6EA"/>
<rect x="104" y="367" width="235" height="7" rx="3.5" fill="#E4E6EA"/>
<rect x="265" y="184" width="77" height="7" rx="3.5" fill="#E4E6EA"/>
<rect x="265" y="261" width="77" height="7" rx="3.5" fill="#E4E6EA"/>
<rect x="93.25" y="174.25" width="133.5" height="26.5" rx="3.75" stroke="#E4E6EA" stroke-width="0.5"/>
<rect x="93.25" y="251.25" width="133.5" height="26.5" rx="3.75" stroke="#E4E6EA" stroke-width="0.5"/>
<rect x="93.25" y="327.25" width="294.5" height="53.5" rx="3.75" stroke="#E4E6EA" stroke-width="0.5"/>
<rect x="254.25" y="174.25" width="133.5" height="26.5" rx="3.75" stroke="#E4E6EA" stroke-width="0.5"/>
<rect x="254.25" y="251.25" width="133.5" height="26.5" rx="3.75" stroke="#E4E6EA" stroke-width="0.5"/>
<path d="M87.704 121L83.231 106.3H86.465L88.859 114.511C88.957 114.805 89.041 115.127 89.111 115.477C89.195 115.813 89.258 116.142 89.3 116.464C89.356 116.772 89.398 117.066 89.426 117.346C89.468 117.612 89.503 117.836 89.531 118.018L89.027 117.997C89.153 117.409 89.258 116.919 89.342 116.527C89.426 116.121 89.503 115.764 89.573 115.456C89.657 115.134 89.755 114.812 89.867 114.49L92.177 108.421H94.781L97.049 114.49C97.217 114.91 97.35 115.316 97.448 115.708C97.56 116.086 97.651 116.457 97.721 116.821C97.791 117.171 97.854 117.528 97.91 117.892L97.469 117.976C97.511 117.682 97.539 117.43 97.553 117.22C97.581 116.996 97.602 116.793 97.616 116.611C97.644 116.429 97.672 116.247 97.7 116.065C97.728 115.869 97.77 115.645 97.826 115.393C97.882 115.127 97.966 114.819 98.078 114.469L100.451 106.3H103.643L99.128 121H96.776L93.164 112.306L93.5 112.348L90.119 121H87.704ZM110.001 121.21C108.867 121.21 107.852 120.965 106.956 120.475C106.074 119.971 105.374 119.285 104.856 118.417C104.352 117.549 104.1 116.555 104.1 115.435C104.1 114.315 104.352 113.321 104.856 112.453C105.374 111.585 106.074 110.906 106.956 110.416C107.852 109.912 108.867 109.66 110.001 109.66C111.121 109.66 112.122 109.912 113.004 110.416C113.9 110.906 114.6 111.585 115.104 112.453C115.608 113.321 115.86 114.315 115.86 115.435C115.86 116.555 115.608 117.549 115.104 118.417C114.6 119.285 113.9 119.971 113.004 120.475C112.122 120.965 111.121 121.21 110.001 121.21ZM110.001 118.606C110.547 118.606 111.037 118.473 111.471 118.207C111.905 117.927 112.241 117.549 112.479 117.073C112.731 116.583 112.85 116.037 112.836 115.435C112.85 114.819 112.731 114.273 112.479 113.797C112.241 113.307 111.905 112.929 111.471 112.663C111.037 112.383 110.547 112.243 110.001 112.243C109.441 112.243 108.944 112.383 108.51 112.663C108.076 112.943 107.733 113.321 107.481 113.797C107.229 114.273 107.11 114.819 107.124 115.435C107.11 116.037 107.229 116.583 107.481 117.073C107.733 117.549 108.076 117.927 108.51 118.207C108.944 118.473 109.441 118.606 110.001 118.606ZM118.124 121V109.891H121.001L121.106 113.461L120.602 112.726C120.77 112.152 121.043 111.634 121.421 111.172C121.799 110.696 122.24 110.325 122.744 110.059C123.262 109.793 123.801 109.66 124.361 109.66C124.599 109.66 124.83 109.681 125.054 109.723C125.278 109.765 125.467 109.814 125.621 109.87L124.823 113.146C124.669 113.062 124.466 112.992 124.214 112.936C123.976 112.866 123.731 112.831 123.479 112.831C123.143 112.831 122.828 112.894 122.534 113.02C122.254 113.132 122.009 113.3 121.799 113.524C121.589 113.734 121.421 113.986 121.295 114.28C121.183 114.574 121.127 114.896 121.127 115.246V121H118.124ZM130.167 117.661L129.285 115.204L134.535 109.891H138.462L130.167 117.661ZM127.332 121V105.46H130.314V121H127.332ZM134.85 121L130.86 115.981L132.96 114.301L138.441 121H134.85ZM140.949 121V109.114C140.949 108.428 141.103 107.805 141.411 107.245C141.719 106.685 142.139 106.244 142.671 105.922C143.217 105.6 143.854 105.439 144.582 105.439C145.072 105.439 145.534 105.523 145.968 105.691C146.402 105.845 146.773 106.055 147.081 106.321L146.199 108.526C146.017 108.414 145.828 108.323 145.632 108.253C145.45 108.169 145.282 108.127 145.128 108.127C144.862 108.127 144.638 108.176 144.456 108.274C144.288 108.358 144.162 108.491 144.078 108.673C143.994 108.841 143.952 109.058 143.952 109.324V121H142.461C142.139 121 141.852 121 141.6 121C141.348 121 141.131 121 140.949 121ZM139.29 112.684V110.164H146.346V112.684H139.29ZM148.362 121V105.46H151.344V121H148.362ZM159.322 121.21C158.188 121.21 157.173 120.965 156.277 120.475C155.395 119.971 154.695 119.285 154.177 118.417C153.673 117.549 153.421 116.555 153.421 115.435C153.421 114.315 153.673 113.321 154.177 112.453C154.695 111.585 155.395 110.906 156.277 110.416C157.173 109.912 158.188 109.66 159.322 109.66C160.442 109.66 161.443 109.912 162.325 110.416C163.221 110.906 163.921 111.585 164.425 112.453C164.929 113.321 165.181 114.315 165.181 115.435C165.181 116.555 164.929 117.549 164.425 118.417C163.921 119.285 163.221 119.971 162.325 120.475C161.443 120.965 160.442 121.21 159.322 121.21ZM159.322 118.606C159.868 118.606 160.358 118.473 160.792 118.207C161.226 117.927 161.562 117.549 161.8 117.073C162.052 116.583 162.171 116.037 162.157 115.435C162.171 114.819 162.052 114.273 161.8 113.797C161.562 113.307 161.226 112.929 160.792 112.663C160.358 112.383 159.868 112.243 159.322 112.243C158.762 112.243 158.265 112.383 157.831 112.663C157.397 112.943 157.054 113.321 156.802 113.797C156.55 114.273 156.431 114.819 156.445 115.435C156.431 116.037 156.55 116.583 156.802 117.073C157.054 117.549 157.397 117.927 157.831 118.207C158.265 118.473 158.762 118.606 159.322 118.606ZM169.576 121L165.859 109.891L168.967 109.87L171.235 117.451L170.773 117.388L173.272 111.487H175.036L177.64 117.409L177.136 117.451L179.404 109.891H182.512L178.732 121H176.569L173.944 114.679L174.28 114.721L171.718 121H169.576ZM191.182 121V106.3H197.209C198.287 106.3 199.26 106.482 200.128 106.846C201.01 107.196 201.766 107.7 202.396 108.358C203.04 109.002 203.53 109.772 203.866 110.668C204.202 111.564 204.37 112.558 204.37 113.65C204.37 114.728 204.202 115.722 203.866 116.632C203.53 117.528 203.047 118.305 202.417 118.963C201.787 119.607 201.031 120.111 200.149 120.475C199.267 120.825 198.287 121 197.209 121H191.182ZM194.332 118.711L193.996 118.165H197.104C197.734 118.165 198.301 118.06 198.805 117.85C199.309 117.626 199.736 117.325 200.086 116.947C200.45 116.555 200.723 116.079 200.905 115.519C201.087 114.959 201.178 114.336 201.178 113.65C201.178 112.964 201.087 112.348 200.905 111.802C200.723 111.242 200.45 110.766 200.086 110.374C199.736 109.982 199.309 109.681 198.805 109.471C198.301 109.247 197.734 109.135 197.104 109.135H193.933L194.332 108.631V118.711ZM212.071 121.21C210.867 121.21 209.81 120.965 208.9 120.475C208.004 119.985 207.304 119.313 206.8 118.459C206.31 117.605 206.065 116.625 206.065 115.519C206.065 114.651 206.205 113.86 206.485 113.146C206.765 112.432 207.157 111.816 207.661 111.298C208.165 110.766 208.76 110.36 209.446 110.08C210.146 109.786 210.902 109.639 211.714 109.639C212.47 109.639 213.17 109.779 213.814 110.059C214.458 110.339 215.011 110.731 215.473 111.235C215.949 111.725 216.313 112.313 216.565 112.999C216.817 113.671 216.929 114.399 216.901 115.183L216.88 116.107H207.955L207.472 114.28H214.423L214.087 114.658V114.196C214.059 113.818 213.933 113.482 213.709 113.188C213.499 112.88 213.226 112.642 212.89 112.474C212.554 112.292 212.176 112.201 211.756 112.201C211.14 112.201 210.615 112.32 210.181 112.558C209.761 112.796 209.439 113.146 209.215 113.608C208.991 114.07 208.879 114.63 208.879 115.288C208.879 115.96 209.019 116.541 209.299 117.031C209.593 117.521 209.999 117.906 210.517 118.186C211.049 118.452 211.672 118.585 212.386 118.585C212.876 118.585 213.324 118.508 213.73 118.354C214.136 118.2 214.57 117.934 215.032 117.556L216.46 119.551C216.054 119.915 215.606 120.223 215.116 120.475C214.626 120.713 214.122 120.895 213.604 121.021C213.086 121.147 212.575 121.21 212.071 121.21ZM220.175 121V107.077H223.157V121H220.175ZM218.096 112.558V109.891H225.446V112.558H218.096ZM231.424 121.21C230.5 121.21 229.667 120.958 228.925 120.454C228.183 119.95 227.595 119.264 227.161 118.396C226.727 117.528 226.51 116.534 226.51 115.414C226.51 114.294 226.727 113.3 227.161 112.432C227.609 111.564 228.211 110.885 228.967 110.395C229.723 109.905 230.584 109.66 231.55 109.66C232.096 109.66 232.593 109.744 233.041 109.912C233.503 110.066 233.902 110.283 234.238 110.563C234.588 110.843 234.882 111.165 235.12 111.529C235.358 111.893 235.526 112.285 235.624 112.705L234.994 112.6V109.891H237.955V121H234.952V118.333L235.624 118.27C235.512 118.662 235.33 119.033 235.078 119.383C234.826 119.733 234.511 120.048 234.133 120.328C233.769 120.594 233.356 120.811 232.894 120.979C232.432 121.133 231.942 121.21 231.424 121.21ZM232.243 118.627C232.803 118.627 233.293 118.494 233.713 118.228C234.133 117.962 234.455 117.591 234.679 117.115C234.917 116.625 235.036 116.058 235.036 115.414C235.036 114.784 234.917 114.231 234.679 113.755C234.455 113.279 234.133 112.908 233.713 112.642C233.293 112.362 232.803 112.222 232.243 112.222C231.697 112.222 231.214 112.362 230.794 112.642C230.388 112.908 230.066 113.279 229.828 113.755C229.59 114.231 229.471 114.784 229.471 115.414C229.471 116.058 229.59 116.625 229.828 117.115C230.066 117.591 230.388 117.962 230.794 118.228C231.214 118.494 231.697 118.627 232.243 118.627ZM241.197 121V109.891H244.179V121H241.197ZM242.667 107.623C242.093 107.623 241.645 107.483 241.323 107.203C241.001 106.909 240.84 106.503 240.84 105.985C240.84 105.509 241.001 105.124 241.323 104.83C241.659 104.522 242.107 104.368 242.667 104.368C243.241 104.368 243.689 104.515 244.011 104.809C244.333 105.089 244.494 105.481 244.494 105.985C244.494 106.461 244.326 106.853 243.99 107.161C243.668 107.469 243.227 107.623 242.667 107.623ZM247.385 121V105.46H250.367V121H247.385ZM257.131 121.21C256.095 121.21 255.171 121.042 254.359 120.706C253.561 120.356 252.917 119.88 252.427 119.278L254.296 117.682C254.716 118.144 255.192 118.48 255.724 118.69C256.256 118.886 256.788 118.984 257.32 118.984C257.53 118.984 257.719 118.963 257.887 118.921C258.069 118.865 258.223 118.795 258.349 118.711C258.475 118.613 258.566 118.501 258.622 118.375C258.692 118.235 258.727 118.088 258.727 117.934C258.727 117.626 258.601 117.388 258.349 117.22C258.209 117.136 257.992 117.045 257.698 116.947C257.404 116.835 257.026 116.716 256.564 116.59C255.85 116.408 255.241 116.198 254.737 115.96C254.247 115.708 253.855 115.428 253.561 115.12C253.309 114.826 253.113 114.511 252.973 114.175C252.847 113.825 252.784 113.44 252.784 113.02C252.784 112.516 252.896 112.061 253.12 111.655C253.344 111.235 253.652 110.878 254.044 110.584C254.45 110.29 254.912 110.066 255.43 109.912C255.948 109.744 256.494 109.66 257.068 109.66C257.642 109.66 258.202 109.73 258.748 109.87C259.294 110.01 259.798 110.213 260.26 110.479C260.736 110.731 261.149 111.032 261.499 111.382L259.903 113.146C259.651 112.908 259.364 112.691 259.042 112.495C258.734 112.299 258.412 112.145 258.076 112.033C257.74 111.921 257.439 111.865 257.173 111.865C256.935 111.865 256.718 111.886 256.522 111.928C256.34 111.97 256.186 112.04 256.06 112.138C255.934 112.222 255.836 112.327 255.766 112.453C255.71 112.579 255.682 112.719 255.682 112.873C255.682 113.027 255.717 113.174 255.787 113.314C255.871 113.454 255.983 113.573 256.123 113.671C256.277 113.755 256.501 113.853 256.795 113.965C257.103 114.077 257.516 114.203 258.034 114.343C258.706 114.525 259.273 114.728 259.735 114.952C260.211 115.176 260.589 115.435 260.869 115.729C261.107 115.981 261.282 116.268 261.394 116.59C261.506 116.912 261.562 117.269 261.562 117.661C261.562 118.347 261.366 118.956 260.974 119.488C260.596 120.02 260.071 120.44 259.399 120.748C258.727 121.056 257.971 121.21 257.131 121.21Z" fill="black"/>
<rect x="83" y="404" width="315" height="41" rx="6" fill="#0900FF"/>
<path d="M187.572 431.14C186.853 431.14 186.191 431.019 185.584 430.776C184.987 430.524 184.464 430.174 184.016 429.726C183.577 429.269 183.237 428.732 182.994 428.116C182.751 427.491 182.63 426.809 182.63 426.072C182.63 425.353 182.756 424.691 183.008 424.084C183.26 423.468 183.615 422.936 184.072 422.488C184.529 422.031 185.066 421.676 185.682 421.424C186.298 421.172 186.965 421.046 187.684 421.046C188.151 421.046 188.608 421.111 189.056 421.242C189.513 421.363 189.929 421.545 190.302 421.788C190.685 422.031 191.011 422.32 191.282 422.656L189.966 424.112C189.751 423.888 189.523 423.697 189.28 423.538C189.037 423.37 188.781 423.244 188.51 423.16C188.249 423.067 187.969 423.02 187.67 423.02C187.269 423.02 186.891 423.095 186.536 423.244C186.191 423.393 185.887 423.603 185.626 423.874C185.365 424.135 185.155 424.457 184.996 424.84C184.847 425.213 184.772 425.629 184.772 426.086C184.772 426.553 184.847 426.977 184.996 427.36C185.145 427.733 185.355 428.055 185.626 428.326C185.897 428.587 186.219 428.793 186.592 428.942C186.975 429.082 187.395 429.152 187.852 429.152C188.151 429.152 188.44 429.11 188.72 429.026C189 428.942 189.257 428.825 189.49 428.676C189.733 428.527 189.947 428.354 190.134 428.158L191.17 429.796C190.937 430.048 190.629 430.277 190.246 430.482C189.873 430.687 189.453 430.851 188.986 430.972C188.519 431.084 188.048 431.14 187.572 431.14ZM192.646 431V423.594H194.564L194.634 425.974L194.298 425.484C194.41 425.101 194.592 424.756 194.844 424.448C195.096 424.131 195.39 423.883 195.726 423.706C196.072 423.529 196.431 423.44 196.804 423.44C196.963 423.44 197.117 423.454 197.266 423.482C197.416 423.51 197.542 423.543 197.644 423.58L197.112 425.764C197.01 425.708 196.874 425.661 196.706 425.624C196.548 425.577 196.384 425.554 196.216 425.554C195.992 425.554 195.782 425.596 195.586 425.68C195.4 425.755 195.236 425.867 195.096 426.016C194.956 426.156 194.844 426.324 194.76 426.52C194.686 426.716 194.648 426.931 194.648 427.164V431H192.646ZM201.985 431.14C201.182 431.14 200.477 430.977 199.871 430.65C199.273 430.323 198.807 429.875 198.471 429.306C198.144 428.737 197.981 428.083 197.981 427.346C197.981 426.767 198.074 426.24 198.261 425.764C198.447 425.288 198.709 424.877 199.045 424.532C199.381 424.177 199.777 423.907 200.235 423.72C200.701 423.524 201.205 423.426 201.747 423.426C202.251 423.426 202.717 423.519 203.147 423.706C203.576 423.893 203.945 424.154 204.253 424.49C204.57 424.817 204.813 425.209 204.981 425.666C205.149 426.114 205.223 426.599 205.205 427.122L205.191 427.738H199.241L198.919 426.52H203.553L203.329 426.772V426.464C203.31 426.212 203.226 425.988 203.077 425.792C202.937 425.587 202.755 425.428 202.531 425.316C202.307 425.195 202.055 425.134 201.775 425.134C201.364 425.134 201.014 425.213 200.725 425.372C200.445 425.531 200.23 425.764 200.081 426.072C199.931 426.38 199.857 426.753 199.857 427.192C199.857 427.64 199.95 428.027 200.137 428.354C200.333 428.681 200.603 428.937 200.949 429.124C201.303 429.301 201.719 429.39 202.195 429.39C202.521 429.39 202.82 429.339 203.091 429.236C203.361 429.133 203.651 428.956 203.959 428.704L204.911 430.034C204.64 430.277 204.341 430.482 204.015 430.65C203.688 430.809 203.352 430.93 203.007 431.014C202.661 431.098 202.321 431.14 201.985 431.14ZM209.446 431.14C208.83 431.14 208.274 430.972 207.78 430.636C207.285 430.3 206.893 429.843 206.604 429.264C206.314 428.685 206.17 428.023 206.17 427.276C206.17 426.529 206.314 425.867 206.604 425.288C206.902 424.709 207.304 424.257 207.808 423.93C208.312 423.603 208.886 423.44 209.53 423.44C209.894 423.44 210.225 423.496 210.524 423.608C210.832 423.711 211.098 423.855 211.322 424.042C211.555 424.229 211.751 424.443 211.91 424.686C212.068 424.929 212.18 425.19 212.246 425.47L211.826 425.4V423.594H213.8V431H211.798V429.222L212.246 429.18C212.171 429.441 212.05 429.689 211.882 429.922C211.714 430.155 211.504 430.365 211.252 430.552C211.009 430.729 210.734 430.874 210.426 430.986C210.118 431.089 209.791 431.14 209.446 431.14ZM209.992 429.418C210.365 429.418 210.692 429.329 210.972 429.152C211.252 428.975 211.466 428.727 211.616 428.41C211.774 428.083 211.854 427.705 211.854 427.276C211.854 426.856 211.774 426.487 211.616 426.17C211.466 425.853 211.252 425.605 210.972 425.428C210.692 425.241 210.365 425.148 209.992 425.148C209.628 425.148 209.306 425.241 209.026 425.428C208.755 425.605 208.54 425.853 208.382 426.17C208.223 426.487 208.144 426.856 208.144 427.276C208.144 427.705 208.223 428.083 208.382 428.41C208.54 428.727 208.755 428.975 209.026 429.152C209.306 429.329 209.628 429.418 209.992 429.418ZM216.507 431V421.718H218.495V431H216.507ZM215.121 425.372V423.594H220.021V425.372H215.121ZM224.748 431.14C223.946 431.14 223.241 430.977 222.634 430.65C222.037 430.323 221.57 429.875 221.234 429.306C220.908 428.737 220.744 428.083 220.744 427.346C220.744 426.767 220.838 426.24 221.024 425.764C221.211 425.288 221.472 424.877 221.808 424.532C222.144 424.177 222.541 423.907 222.998 423.72C223.465 423.524 223.969 423.426 224.51 423.426C225.014 423.426 225.481 423.519 225.91 423.706C226.34 423.893 226.708 424.154 227.016 424.49C227.334 424.817 227.576 425.209 227.744 425.666C227.912 426.114 227.987 426.599 227.968 427.122L227.954 427.738H222.004L221.682 426.52H226.316L226.092 426.772V426.464C226.074 426.212 225.99 425.988 225.84 425.792C225.7 425.587 225.518 425.428 225.294 425.316C225.07 425.195 224.818 425.134 224.538 425.134C224.128 425.134 223.778 425.213 223.488 425.372C223.208 425.531 222.994 425.764 222.844 426.072C222.695 426.38 222.62 426.753 222.62 427.192C222.62 427.64 222.714 428.027 222.9 428.354C223.096 428.681 223.367 428.937 223.712 429.124C224.067 429.301 224.482 429.39 224.958 429.39C225.285 429.39 225.584 429.339 225.854 429.236C226.125 429.133 226.414 428.956 226.722 428.704L227.674 430.034C227.404 430.277 227.105 430.482 226.778 430.65C226.452 430.809 226.116 430.93 225.77 431.014C225.425 431.098 225.084 431.14 224.748 431.14ZM235.872 431L232.89 421.2H235.046L236.642 426.674C236.708 426.87 236.764 427.085 236.81 427.318C236.866 427.542 236.908 427.761 236.936 427.976C236.974 428.181 237.002 428.377 237.02 428.564C237.048 428.741 237.072 428.891 237.09 429.012L236.754 428.998C236.838 428.606 236.908 428.279 236.964 428.018C237.02 427.747 237.072 427.509 237.118 427.304C237.174 427.089 237.24 426.875 237.314 426.66L238.854 422.614H240.59L242.102 426.66C242.214 426.94 242.303 427.211 242.368 427.472C242.443 427.724 242.504 427.971 242.55 428.214C242.597 428.447 242.639 428.685 242.676 428.928L242.382 428.984C242.41 428.788 242.429 428.62 242.438 428.48C242.457 428.331 242.471 428.195 242.48 428.074C242.499 427.953 242.518 427.831 242.536 427.71C242.555 427.579 242.583 427.43 242.62 427.262C242.658 427.085 242.714 426.879 242.788 426.646L244.37 421.2H246.498L243.488 431H241.92L239.512 425.204L239.736 425.232L237.482 431H235.872ZM250.737 431.14C249.981 431.14 249.304 430.977 248.707 430.65C248.119 430.314 247.652 429.857 247.307 429.278C246.971 428.699 246.803 428.037 246.803 427.29C246.803 426.543 246.971 425.881 247.307 425.302C247.652 424.723 248.119 424.271 248.707 423.944C249.304 423.608 249.981 423.44 250.737 423.44C251.483 423.44 252.151 423.608 252.739 423.944C253.336 424.271 253.803 424.723 254.139 425.302C254.475 425.881 254.643 426.543 254.643 427.29C254.643 428.037 254.475 428.699 254.139 429.278C253.803 429.857 253.336 430.314 252.739 430.65C252.151 430.977 251.483 431.14 250.737 431.14ZM250.737 429.404C251.101 429.404 251.427 429.315 251.717 429.138C252.006 428.951 252.23 428.699 252.389 428.382C252.557 428.055 252.636 427.691 252.627 427.29C252.636 426.879 252.557 426.515 252.389 426.198C252.23 425.871 252.006 425.619 251.717 425.442C251.427 425.255 251.101 425.162 250.737 425.162C250.363 425.162 250.032 425.255 249.743 425.442C249.453 425.629 249.225 425.881 249.057 426.198C248.889 426.515 248.809 426.879 248.819 427.29C248.809 427.691 248.889 428.055 249.057 428.382C249.225 428.699 249.453 428.951 249.743 429.138C250.032 429.315 250.363 429.404 250.737 429.404ZM256.152 431V423.594H258.07L258.14 425.974L257.804 425.484C257.916 425.101 258.098 424.756 258.35 424.448C258.602 424.131 258.896 423.883 259.232 423.706C259.578 423.529 259.937 423.44 260.31 423.44C260.469 423.44 260.623 423.454 260.772 423.482C260.922 423.51 261.048 423.543 261.15 423.58L260.618 425.764C260.516 425.708 260.38 425.661 260.212 425.624C260.054 425.577 259.89 425.554 259.722 425.554C259.498 425.554 259.288 425.596 259.092 425.68C258.906 425.755 258.742 425.867 258.602 426.016C258.462 426.156 258.35 426.324 258.266 426.52C258.192 426.716 258.154 426.931 258.154 427.164V431H256.152ZM264.181 428.774L263.593 427.136L267.093 423.594H269.711L264.181 428.774ZM262.291 431V420.64H264.279V431H262.291ZM267.303 431L264.643 427.654L266.043 426.534L269.697 431H267.303ZM271.369 431V423.076C271.369 422.619 271.471 422.203 271.677 421.83C271.882 421.457 272.162 421.163 272.517 420.948C272.881 420.733 273.305 420.626 273.791 420.626C274.117 420.626 274.425 420.682 274.715 420.794C275.004 420.897 275.251 421.037 275.457 421.214L274.869 422.684C274.747 422.609 274.621 422.549 274.491 422.502C274.369 422.446 274.257 422.418 274.155 422.418C273.977 422.418 273.828 422.451 273.707 422.516C273.595 422.572 273.511 422.661 273.455 422.782C273.399 422.894 273.371 423.039 273.371 423.216V431H272.377C272.162 431 271.971 431 271.803 431C271.635 431 271.49 431 271.369 431ZM270.263 425.456V423.776H274.967V425.456H270.263ZM276.311 431V420.64H278.299V431H276.311ZM283.618 431.14C282.862 431.14 282.185 430.977 281.588 430.65C281 430.314 280.533 429.857 280.188 429.278C279.852 428.699 279.684 428.037 279.684 427.29C279.684 426.543 279.852 425.881 280.188 425.302C280.533 424.723 281 424.271 281.588 423.944C282.185 423.608 282.862 423.44 283.618 423.44C284.364 423.44 285.032 423.608 285.62 423.944C286.217 424.271 286.684 424.723 287.02 425.302C287.356 425.881 287.524 426.543 287.524 427.29C287.524 428.037 287.356 428.699 287.02 429.278C286.684 429.857 286.217 430.314 285.62 430.65C285.032 430.977 284.364 431.14 283.618 431.14ZM283.618 429.404C283.982 429.404 284.308 429.315 284.598 429.138C284.887 428.951 285.111 428.699 285.27 428.382C285.438 428.055 285.517 427.691 285.508 427.29C285.517 426.879 285.438 426.515 285.27 426.198C285.111 425.871 284.887 425.619 284.598 425.442C284.308 425.255 283.982 425.162 283.618 425.162C283.244 425.162 282.913 425.255 282.624 425.442C282.334 425.629 282.106 425.881 281.938 426.198C281.77 426.515 281.69 426.879 281.7 427.29C281.69 427.691 281.77 428.055 281.938 428.382C282.106 428.699 282.334 428.951 282.624 429.138C282.913 429.315 283.244 429.404 283.618 429.404ZM290.454 431L287.976 423.594L290.048 423.58L291.56 428.634L291.252 428.592L292.918 424.658H294.094L295.83 428.606L295.494 428.634L297.006 423.594H299.078L296.558 431H295.116L293.366 426.786L293.59 426.814L291.882 431H290.454Z" fill="white"/>
</g>
<defs>
<clipPath id="clip0_83_977">
<rect width="480" height="540" fill="white"/>
</clipPath>
</defs>
</svg>
