<svg width="480" height="540" viewBox="0 0 480 540" fill="none" xmlns="http://www.w3.org/2000/svg">
<g clip-path="url(#clip0_193_1381)">
<path d="M85 76H396C405.389 76 413 83.6112 413 93V447C413 456.389 405.389 464 396 464H85C75.6111 464 68 456.389 68 447V93C68 83.6112 75.6111 76 85 76Z" fill="#F1F5F7"/>
<rect x="93" y="98" width="295" height="292" rx="17" fill="white"/>
<g filter="url(#filter0_d_193_1381)">
<rect x="108" y="189" width="265" height="120" rx="9" fill="white"/>
</g>
<path d="M181.071 127V118.761H184.449C185.053 118.761 185.598 118.863 186.085 119.067C186.579 119.263 187.003 119.546 187.356 119.915C187.717 120.276 187.992 120.707 188.18 121.209C188.368 121.712 188.462 122.269 188.462 122.881C188.462 123.485 188.368 124.042 188.18 124.552C187.992 125.054 187.721 125.49 187.368 125.858C187.015 126.219 186.591 126.502 186.097 126.706C185.602 126.902 185.053 127 184.449 127H181.071ZM182.836 125.717L182.648 125.411H184.39C184.743 125.411 185.061 125.352 185.343 125.235C185.626 125.109 185.865 124.94 186.061 124.728C186.265 124.509 186.418 124.242 186.52 123.928C186.622 123.614 186.673 123.265 186.673 122.881C186.673 122.496 186.622 122.151 186.52 121.845C186.418 121.531 186.265 121.264 186.061 121.045C185.865 120.825 185.626 120.656 185.343 120.539C185.061 120.413 184.743 120.35 184.39 120.35H182.613L182.836 120.068V125.717ZM192.719 127.118C192.083 127.118 191.515 126.98 191.012 126.706C190.518 126.423 190.126 126.039 189.835 125.552C189.553 125.066 189.412 124.509 189.412 123.881C189.412 123.253 189.553 122.696 189.835 122.21C190.126 121.723 190.518 121.343 191.012 121.068C191.515 120.786 192.083 120.644 192.719 120.644C193.347 120.644 193.908 120.786 194.402 121.068C194.904 121.343 195.297 121.723 195.579 122.21C195.861 122.696 196.003 123.253 196.003 123.881C196.003 124.509 195.861 125.066 195.579 125.552C195.297 126.039 194.904 126.423 194.402 126.706C193.908 126.98 193.347 127.118 192.719 127.118ZM192.719 125.658C193.025 125.658 193.3 125.584 193.543 125.435C193.786 125.278 193.974 125.066 194.108 124.799C194.249 124.524 194.316 124.218 194.308 123.881C194.316 123.536 194.249 123.23 194.108 122.963C193.974 122.688 193.786 122.477 193.543 122.327C193.3 122.171 193.025 122.092 192.719 122.092C192.405 122.092 192.127 122.171 191.883 122.327C191.64 122.484 191.448 122.696 191.307 122.963C191.165 123.23 191.099 123.536 191.107 123.881C191.099 124.218 191.165 124.524 191.307 124.799C191.448 125.066 191.64 125.278 191.883 125.435C192.127 125.584 192.405 125.658 192.719 125.658ZM199.979 127.118C199.382 127.118 198.849 126.976 198.378 126.694C197.907 126.412 197.534 126.027 197.26 125.541C196.993 125.054 196.86 124.501 196.86 123.881C196.86 123.261 196.993 122.708 197.26 122.222C197.534 121.735 197.907 121.351 198.378 121.068C198.849 120.786 199.382 120.644 199.979 120.644C200.536 120.644 201.046 120.746 201.509 120.95C201.972 121.154 202.333 121.437 202.591 121.798L201.673 122.904C201.564 122.755 201.426 122.622 201.261 122.504C201.097 122.378 200.916 122.28 200.72 122.21C200.532 122.139 200.336 122.104 200.132 122.104C199.81 122.104 199.524 122.182 199.272 122.339C199.029 122.488 198.837 122.696 198.696 122.963C198.554 123.23 198.484 123.536 198.484 123.881C198.484 124.211 198.554 124.509 198.696 124.776C198.845 125.042 199.045 125.254 199.296 125.411C199.547 125.568 199.83 125.647 200.143 125.647C200.347 125.647 200.54 125.619 200.72 125.564C200.901 125.509 201.069 125.423 201.226 125.305C201.391 125.187 201.54 125.046 201.673 124.881L202.58 125.988C202.321 126.325 201.952 126.6 201.473 126.812C201.003 127.016 200.504 127.118 199.979 127.118ZM205.793 127.118C205.338 127.118 204.945 127.02 204.616 126.823C204.294 126.619 204.043 126.333 203.862 125.964C203.69 125.588 203.604 125.136 203.604 124.611V120.774H205.275V124.34C205.275 124.623 205.322 124.87 205.416 125.082C205.51 125.286 205.644 125.442 205.816 125.552C205.989 125.662 206.201 125.717 206.452 125.717C206.632 125.717 206.797 125.69 206.946 125.635C207.103 125.572 207.236 125.486 207.346 125.376C207.464 125.266 207.554 125.136 207.617 124.987C207.68 124.838 207.711 124.677 207.711 124.505V120.774H209.382V127H207.793L207.735 125.717L208.041 125.576C207.946 125.866 207.79 126.129 207.57 126.364C207.35 126.6 207.087 126.784 206.781 126.918C206.475 127.051 206.146 127.118 205.793 127.118ZM211.052 127V120.774H212.665L212.7 121.963L212.453 122.01C212.539 121.806 212.653 121.621 212.794 121.457C212.943 121.292 213.112 121.151 213.3 121.033C213.489 120.915 213.689 120.825 213.9 120.762C214.112 120.692 214.324 120.656 214.536 120.656C214.858 120.656 215.148 120.707 215.407 120.809C215.666 120.911 215.886 121.072 216.066 121.292C216.247 121.504 216.388 121.786 216.49 122.139L216.231 122.116L216.313 121.927C216.415 121.739 216.545 121.566 216.702 121.409C216.859 121.253 217.035 121.119 217.231 121.009C217.427 120.899 217.631 120.813 217.843 120.75C218.055 120.688 218.263 120.656 218.467 120.656C218.954 120.656 219.358 120.754 219.679 120.95C220.001 121.139 220.24 121.425 220.397 121.81C220.562 122.194 220.644 122.665 220.644 123.222V127H218.973V123.34C218.973 123.057 218.934 122.826 218.855 122.645C218.777 122.465 218.663 122.331 218.514 122.245C218.365 122.151 218.173 122.104 217.937 122.104C217.757 122.104 217.588 122.135 217.431 122.198C217.282 122.253 217.149 122.335 217.031 122.445C216.921 122.547 216.835 122.673 216.772 122.822C216.709 122.963 216.678 123.116 216.678 123.281V127H214.995V123.328C214.995 123.069 214.956 122.849 214.877 122.669C214.799 122.48 214.685 122.339 214.536 122.245C214.387 122.151 214.203 122.104 213.983 122.104C213.802 122.104 213.634 122.135 213.477 122.198C213.328 122.253 213.198 122.335 213.088 122.445C212.979 122.547 212.892 122.669 212.829 122.81C212.767 122.951 212.735 123.104 212.735 123.269V127H211.052ZM225.19 127.118C224.515 127.118 223.923 126.98 223.413 126.706C222.911 126.431 222.518 126.055 222.236 125.576C221.961 125.097 221.824 124.548 221.824 123.928C221.824 123.442 221.902 122.998 222.059 122.598C222.216 122.198 222.436 121.853 222.718 121.562C223.001 121.264 223.334 121.037 223.719 120.88C224.111 120.715 224.535 120.633 224.99 120.633C225.414 120.633 225.806 120.711 226.167 120.868C226.528 121.025 226.838 121.245 227.097 121.527C227.363 121.802 227.567 122.131 227.709 122.516C227.85 122.892 227.913 123.3 227.897 123.74L227.885 124.258H222.883L222.613 123.234H226.508L226.32 123.446V123.187C226.304 122.975 226.234 122.787 226.108 122.622C225.99 122.449 225.837 122.316 225.649 122.222C225.461 122.12 225.249 122.069 225.013 122.069C224.668 122.069 224.374 122.135 224.131 122.269C223.895 122.402 223.715 122.598 223.589 122.857C223.464 123.116 223.401 123.43 223.401 123.799C223.401 124.175 223.48 124.501 223.636 124.776C223.801 125.05 224.029 125.266 224.319 125.423C224.617 125.572 224.966 125.647 225.367 125.647C225.641 125.647 225.892 125.603 226.12 125.517C226.347 125.431 226.591 125.282 226.85 125.07L227.65 126.188C227.422 126.392 227.171 126.565 226.897 126.706C226.622 126.839 226.34 126.941 226.049 127.012C225.759 127.082 225.473 127.118 225.19 127.118ZM229.132 127V120.774H230.733L230.78 122.045L230.45 122.186C230.537 121.904 230.69 121.649 230.909 121.421C231.137 121.186 231.408 120.998 231.721 120.856C232.035 120.715 232.365 120.644 232.71 120.644C233.181 120.644 233.573 120.739 233.887 120.927C234.209 121.115 234.448 121.402 234.605 121.786C234.77 122.163 234.852 122.63 234.852 123.187V127H233.181V123.316C233.181 123.034 233.142 122.798 233.063 122.61C232.985 122.422 232.863 122.284 232.698 122.198C232.541 122.112 232.345 122.072 232.11 122.08C231.921 122.08 231.745 122.112 231.58 122.174C231.423 122.229 231.286 122.312 231.168 122.422C231.058 122.532 230.968 122.657 230.898 122.798C230.835 122.94 230.803 123.093 230.803 123.257V127H229.979C229.799 127 229.638 127 229.497 127C229.356 127 229.234 127 229.132 127ZM237.054 127V119.197H238.725V127H237.054ZM235.889 122.269V120.774H240.008V122.269H235.889ZM246.648 127V120.35H244.247V118.761H250.885V120.35H248.414V127H246.648ZM253.89 127.118C253.215 127.118 252.623 126.98 252.113 126.706C251.61 126.431 251.218 126.055 250.936 125.576C250.661 125.097 250.524 124.548 250.524 123.928C250.524 123.442 250.602 122.998 250.759 122.598C250.916 122.198 251.136 121.853 251.418 121.562C251.701 121.264 252.034 121.037 252.419 120.88C252.811 120.715 253.235 120.633 253.69 120.633C254.113 120.633 254.506 120.711 254.867 120.868C255.228 121.025 255.537 121.245 255.796 121.527C256.063 121.802 256.267 122.131 256.408 122.516C256.55 122.892 256.612 123.3 256.597 123.74L256.585 124.258H251.583L251.312 123.234H255.208L255.02 123.446V123.187C255.004 122.975 254.933 122.787 254.808 122.622C254.69 122.449 254.537 122.316 254.349 122.222C254.16 122.12 253.949 122.069 253.713 122.069C253.368 122.069 253.074 122.135 252.831 122.269C252.595 122.402 252.415 122.598 252.289 122.857C252.164 123.116 252.101 123.43 252.101 123.799C252.101 124.175 252.179 124.501 252.336 124.776C252.501 125.05 252.729 125.266 253.019 125.423C253.317 125.572 253.666 125.647 254.066 125.647C254.341 125.647 254.592 125.603 254.82 125.517C255.047 125.431 255.29 125.282 255.549 125.07L256.35 126.188C256.122 126.392 255.871 126.565 255.596 126.706C255.322 126.839 255.039 126.941 254.749 127.012C254.459 127.082 254.172 127.118 253.89 127.118ZM257.82 127V120.774H259.432L259.468 121.963L259.221 122.01C259.307 121.806 259.421 121.621 259.562 121.457C259.711 121.292 259.88 121.151 260.068 121.033C260.256 120.915 260.456 120.825 260.668 120.762C260.88 120.692 261.092 120.656 261.304 120.656C261.626 120.656 261.916 120.707 262.175 120.809C262.434 120.911 262.653 121.072 262.834 121.292C263.014 121.504 263.156 121.786 263.258 122.139L262.999 122.116L263.081 121.927C263.183 121.739 263.313 121.566 263.469 121.409C263.626 121.253 263.803 121.119 263.999 121.009C264.195 120.899 264.399 120.813 264.611 120.75C264.823 120.688 265.031 120.656 265.235 120.656C265.721 120.656 266.125 120.754 266.447 120.95C266.769 121.139 267.008 121.425 267.165 121.81C267.33 122.194 267.412 122.665 267.412 123.222V127H265.741V123.34C265.741 123.057 265.702 122.826 265.623 122.645C265.545 122.465 265.431 122.331 265.282 122.245C265.133 122.151 264.941 122.104 264.705 122.104C264.525 122.104 264.356 122.135 264.199 122.198C264.05 122.253 263.917 122.335 263.799 122.445C263.689 122.547 263.603 122.673 263.54 122.822C263.477 122.963 263.446 123.116 263.446 123.281V127H261.763V123.328C261.763 123.069 261.724 122.849 261.645 122.669C261.567 122.48 261.453 122.339 261.304 122.245C261.155 122.151 260.97 122.104 260.751 122.104C260.57 122.104 260.402 122.135 260.245 122.198C260.095 122.253 259.966 122.335 259.856 122.445C259.746 122.547 259.66 122.669 259.597 122.81C259.534 122.951 259.503 123.104 259.503 123.269V127H257.82ZM269.004 129.589V120.774H270.616L270.663 122.174L270.357 122.069C270.412 121.817 270.545 121.586 270.757 121.374C270.977 121.162 271.248 120.99 271.569 120.856C271.891 120.723 272.229 120.656 272.582 120.656C273.123 120.656 273.606 120.797 274.029 121.08C274.453 121.355 274.786 121.735 275.03 122.222C275.273 122.7 275.395 123.253 275.395 123.881C275.395 124.501 275.273 125.054 275.03 125.541C274.786 126.027 274.453 126.412 274.029 126.694C273.606 126.969 273.123 127.106 272.582 127.106C272.221 127.106 271.875 127.039 271.546 126.906C271.224 126.765 270.95 126.58 270.722 126.353C270.502 126.125 270.361 125.882 270.298 125.623L270.687 125.458V129.589H269.004ZM272.205 125.67C272.511 125.67 272.782 125.596 273.017 125.446C273.252 125.297 273.437 125.089 273.57 124.823C273.704 124.548 273.77 124.234 273.77 123.881C273.77 123.528 273.704 123.218 273.57 122.951C273.437 122.685 273.252 122.477 273.017 122.327C272.79 122.178 272.519 122.104 272.205 122.104C271.891 122.104 271.617 122.178 271.381 122.327C271.146 122.469 270.961 122.677 270.828 122.951C270.695 123.218 270.628 123.528 270.628 123.881C270.628 124.234 270.695 124.548 270.828 124.823C270.961 125.089 271.146 125.297 271.381 125.446C271.617 125.596 271.891 125.67 272.205 125.67ZM276.67 127V118.291H278.342V127H276.67ZM282.253 127.118C281.735 127.118 281.268 126.976 280.852 126.694C280.437 126.412 280.107 126.027 279.864 125.541C279.621 125.054 279.499 124.497 279.499 123.869C279.499 123.242 279.621 122.685 279.864 122.198C280.115 121.712 280.452 121.331 280.876 121.056C281.3 120.782 281.782 120.644 282.324 120.644C282.63 120.644 282.908 120.692 283.159 120.786C283.418 120.872 283.642 120.994 283.83 121.151C284.026 121.307 284.191 121.488 284.324 121.692C284.458 121.896 284.552 122.116 284.607 122.351L284.254 122.292V120.774H285.913V127H284.23V125.505L284.607 125.47C284.544 125.69 284.442 125.898 284.301 126.094C284.16 126.29 283.983 126.466 283.771 126.623C283.567 126.772 283.336 126.894 283.077 126.988C282.818 127.075 282.543 127.118 282.253 127.118ZM282.712 125.67C283.026 125.67 283.301 125.596 283.536 125.446C283.771 125.297 283.952 125.089 284.077 124.823C284.211 124.548 284.277 124.23 284.277 123.869C284.277 123.516 284.211 123.206 284.077 122.94C283.952 122.673 283.771 122.465 283.536 122.316C283.301 122.159 283.026 122.08 282.712 122.08C282.406 122.08 282.135 122.159 281.9 122.316C281.672 122.465 281.492 122.673 281.359 122.94C281.225 123.206 281.158 123.516 281.158 123.869C281.158 124.23 281.225 124.548 281.359 124.823C281.492 125.089 281.672 125.297 281.9 125.446C282.135 125.596 282.406 125.67 282.712 125.67ZM288.189 127V119.197H289.86V127H288.189ZM287.024 122.269V120.774H291.143V122.269H287.024ZM295.118 127.118C294.443 127.118 293.85 126.98 293.34 126.706C292.838 126.431 292.446 126.055 292.163 125.576C291.889 125.097 291.752 124.548 291.752 123.928C291.752 123.442 291.83 122.998 291.987 122.598C292.144 122.198 292.364 121.853 292.646 121.562C292.928 121.264 293.262 121.037 293.646 120.88C294.039 120.715 294.462 120.633 294.918 120.633C295.341 120.633 295.734 120.711 296.094 120.868C296.455 121.025 296.765 121.245 297.024 121.527C297.291 121.802 297.495 122.131 297.636 122.516C297.778 122.892 297.84 123.3 297.825 123.74L297.813 124.258H292.811L292.54 123.234H296.436L296.247 123.446V123.187C296.232 122.975 296.161 122.787 296.036 122.622C295.918 122.449 295.765 122.316 295.577 122.222C295.388 122.12 295.176 122.069 294.941 122.069C294.596 122.069 294.302 122.135 294.058 122.269C293.823 122.402 293.642 122.598 293.517 122.857C293.391 123.116 293.329 123.43 293.329 123.799C293.329 124.175 293.407 124.501 293.564 124.776C293.729 125.05 293.956 125.266 294.247 125.423C294.545 125.572 294.894 125.647 295.294 125.647C295.569 125.647 295.82 125.603 296.047 125.517C296.275 125.431 296.518 125.282 296.777 125.07L297.577 126.188C297.35 126.392 297.099 126.565 296.824 126.706C296.55 126.839 296.267 126.941 295.977 127.012C295.686 127.082 295.4 127.118 295.118 127.118Z" fill="black"/>
<path d="M125.079 163V157.636H123.315V156.7H127.869V157.636H126.051V163H125.079ZM130.142 163.09C129.656 163.09 129.224 162.988 128.846 162.784C128.474 162.574 128.18 162.289 127.964 161.929C127.754 161.569 127.649 161.155 127.649 160.687C127.649 160.315 127.709 159.976 127.829 159.67C127.949 159.364 128.114 159.1 128.324 158.878C128.54 158.65 128.795 158.476 129.089 158.356C129.389 158.23 129.713 158.167 130.061 158.167C130.367 158.167 130.652 158.227 130.916 158.347C131.18 158.461 131.408 158.62 131.6 158.824C131.798 159.028 131.948 159.271 132.05 159.553C132.158 159.829 132.209 160.132 132.203 160.462L132.194 160.858H128.333L128.126 160.12H131.393L131.258 160.273V160.057C131.24 159.859 131.174 159.682 131.06 159.526C130.946 159.37 130.802 159.247 130.628 159.157C130.454 159.067 130.265 159.022 130.061 159.022C129.737 159.022 129.464 159.085 129.242 159.211C129.02 159.331 128.852 159.511 128.738 159.751C128.624 159.985 128.567 160.276 128.567 160.624C128.567 160.954 128.636 161.242 128.774 161.488C128.912 161.728 129.107 161.914 129.359 162.046C129.611 162.178 129.902 162.244 130.232 162.244C130.466 162.244 130.682 162.205 130.88 162.127C131.084 162.049 131.303 161.908 131.537 161.704L132.005 162.361C131.861 162.505 131.684 162.631 131.474 162.739C131.27 162.847 131.051 162.934 130.817 163C130.589 163.06 130.364 163.09 130.142 163.09ZM133.193 163V158.275H134.129V159.283L133.958 159.391C134.006 159.235 134.081 159.085 134.183 158.941C134.291 158.797 134.42 158.671 134.57 158.563C134.726 158.449 134.891 158.359 135.065 158.293C135.245 158.227 135.428 158.194 135.614 158.194C135.884 158.194 136.121 158.239 136.325 158.329C136.529 158.419 136.697 158.554 136.829 158.734C136.961 158.914 137.057 159.139 137.117 159.409L136.973 159.373L137.036 159.22C137.102 159.082 137.192 158.953 137.306 158.833C137.426 158.707 137.561 158.596 137.711 158.5C137.861 158.404 138.02 158.329 138.188 158.275C138.356 158.221 138.521 158.194 138.683 158.194C139.037 158.194 139.328 158.266 139.556 158.41C139.79 158.554 139.964 158.773 140.078 159.067C140.198 159.361 140.258 159.727 140.258 160.165V163H139.322V160.219C139.322 159.949 139.286 159.73 139.214 159.562C139.148 159.388 139.046 159.259 138.908 159.175C138.77 159.091 138.593 159.049 138.377 159.049C138.209 159.049 138.05 159.079 137.9 159.139C137.756 159.193 137.63 159.271 137.521 159.373C137.414 159.475 137.33 159.595 137.27 159.733C137.21 159.865 137.18 160.012 137.18 160.174V163H136.244V160.201C136.244 159.955 136.208 159.748 136.136 159.58C136.064 159.406 135.959 159.274 135.821 159.184C135.683 159.094 135.515 159.049 135.317 159.049C135.149 159.049 134.993 159.079 134.849 159.139C134.705 159.193 134.579 159.271 134.471 159.373C134.363 159.469 134.279 159.586 134.219 159.724C134.159 159.856 134.129 160 134.129 160.156V163H133.193ZM141.499 164.98V158.275H142.435V159.355L142.291 159.274C142.327 159.094 142.429 158.923 142.597 158.761C142.765 158.593 142.969 158.458 143.209 158.356C143.455 158.248 143.707 158.194 143.965 158.194C144.391 158.194 144.769 158.299 145.099 158.509C145.429 158.719 145.69 159.007 145.882 159.373C146.074 159.739 146.17 160.159 146.17 160.633C146.17 161.101 146.074 161.521 145.882 161.893C145.696 162.259 145.438 162.55 145.108 162.766C144.778 162.976 144.406 163.081 143.992 163.081C143.716 163.081 143.449 163.027 143.191 162.919C142.933 162.805 142.714 162.661 142.534 162.487C142.354 162.313 142.243 162.133 142.201 161.947L142.435 161.821V164.98H141.499ZM143.839 162.226C144.115 162.226 144.361 162.157 144.577 162.019C144.793 161.881 144.964 161.692 145.09 161.452C145.216 161.212 145.279 160.939 145.279 160.633C145.279 160.327 145.216 160.057 145.09 159.823C144.97 159.583 144.802 159.394 144.586 159.256C144.37 159.118 144.121 159.049 143.839 159.049C143.557 159.049 143.308 159.118 143.092 159.256C142.876 159.388 142.705 159.574 142.579 159.814C142.453 160.054 142.39 160.327 142.39 160.633C142.39 160.939 142.453 161.212 142.579 161.452C142.705 161.692 142.876 161.881 143.092 162.019C143.308 162.157 143.557 162.226 143.839 162.226ZM147.194 163V156.34H148.121V163H147.194ZM151.165 163.09C150.775 163.09 150.418 162.982 150.094 162.766C149.776 162.55 149.521 162.256 149.329 161.884C149.137 161.512 149.041 161.092 149.041 160.624C149.041 160.15 149.137 159.73 149.329 159.364C149.527 158.992 149.791 158.701 150.121 158.491C150.457 158.281 150.832 158.176 151.246 158.176C151.492 158.176 151.717 158.212 151.921 158.284C152.125 158.356 152.302 158.458 152.452 158.59C152.608 158.716 152.734 158.863 152.83 159.031C152.932 159.199 152.995 159.379 153.019 159.571L152.812 159.499V158.275H153.748V163H152.812V161.875L153.028 161.812C152.992 161.974 152.917 162.133 152.803 162.289C152.695 162.439 152.554 162.574 152.38 162.694C152.212 162.814 152.023 162.91 151.813 162.982C151.609 163.054 151.393 163.09 151.165 163.09ZM151.408 162.235C151.69 162.235 151.939 162.166 152.155 162.028C152.371 161.89 152.539 161.701 152.659 161.461C152.785 161.215 152.848 160.936 152.848 160.624C152.848 160.318 152.785 160.045 152.659 159.805C152.539 159.565 152.371 159.376 152.155 159.238C151.939 159.1 151.69 159.031 151.408 159.031C151.132 159.031 150.886 159.1 150.67 159.238C150.46 159.376 150.292 159.565 150.166 159.805C150.046 160.045 149.986 160.318 149.986 160.624C149.986 160.936 150.046 161.215 150.166 161.461C150.292 161.701 150.46 161.89 150.67 162.028C150.886 162.166 151.132 162.235 151.408 162.235ZM155.628 163V157.069H156.555V163H155.628ZM154.647 159.175V158.275H157.653V159.175H154.647ZM160.658 163.09C160.172 163.09 159.74 162.988 159.362 162.784C158.99 162.574 158.696 162.289 158.48 161.929C158.27 161.569 158.165 161.155 158.165 160.687C158.165 160.315 158.225 159.976 158.345 159.67C158.465 159.364 158.63 159.1 158.84 158.878C159.056 158.65 159.311 158.476 159.605 158.356C159.905 158.23 160.229 158.167 160.577 158.167C160.883 158.167 161.168 158.227 161.432 158.347C161.696 158.461 161.924 158.62 162.116 158.824C162.314 159.028 162.464 159.271 162.566 159.553C162.674 159.829 162.725 160.132 162.719 160.462L162.71 160.858H158.849L158.642 160.12H161.909L161.774 160.273V160.057C161.756 159.859 161.69 159.682 161.576 159.526C161.462 159.37 161.318 159.247 161.144 159.157C160.97 159.067 160.781 159.022 160.577 159.022C160.253 159.022 159.98 159.085 159.758 159.211C159.536 159.331 159.368 159.511 159.254 159.751C159.14 159.985 159.083 160.276 159.083 160.624C159.083 160.954 159.152 161.242 159.29 161.488C159.428 161.728 159.623 161.914 159.875 162.046C160.127 162.178 160.418 162.244 160.748 162.244C160.982 162.244 161.198 162.205 161.396 162.127C161.6 162.049 161.819 161.908 162.053 161.704L162.521 162.361C162.377 162.505 162.2 162.631 161.99 162.739C161.786 162.847 161.567 162.934 161.333 163C161.105 163.06 160.88 163.09 160.658 163.09ZM166.249 163V158.275H167.176V159.247L167.014 159.355C167.074 159.145 167.191 158.953 167.365 158.779C167.539 158.599 167.746 158.455 167.986 158.347C168.226 158.233 168.472 158.176 168.724 158.176C169.084 158.176 169.384 158.248 169.624 158.392C169.864 158.53 170.044 158.743 170.164 159.031C170.284 159.319 170.344 159.682 170.344 160.12V163H169.417V160.183C169.417 159.913 169.381 159.691 169.309 159.517C169.237 159.337 169.126 159.208 168.976 159.13C168.826 159.046 168.64 159.01 168.418 159.022C168.238 159.022 168.073 159.052 167.923 159.112C167.773 159.166 167.641 159.244 167.527 159.346C167.419 159.448 167.332 159.568 167.266 159.706C167.206 159.838 167.176 159.982 167.176 160.138V163H166.717C166.639 163 166.561 163 166.483 163C166.405 163 166.327 163 166.249 163ZM173.419 163.09C173.029 163.09 172.672 162.982 172.348 162.766C172.03 162.55 171.775 162.256 171.583 161.884C171.391 161.512 171.295 161.092 171.295 160.624C171.295 160.15 171.391 159.73 171.583 159.364C171.781 158.992 172.045 158.701 172.375 158.491C172.711 158.281 173.086 158.176 173.5 158.176C173.746 158.176 173.971 158.212 174.175 158.284C174.379 158.356 174.556 158.458 174.706 158.59C174.862 158.716 174.988 158.863 175.084 159.031C175.186 159.199 175.249 159.379 175.273 159.571L175.066 159.499V158.275H176.002V163H175.066V161.875L175.282 161.812C175.246 161.974 175.171 162.133 175.057 162.289C174.949 162.439 174.808 162.574 174.634 162.694C174.466 162.814 174.277 162.91 174.067 162.982C173.863 163.054 173.647 163.09 173.419 163.09ZM173.662 162.235C173.944 162.235 174.193 162.166 174.409 162.028C174.625 161.89 174.793 161.701 174.913 161.461C175.039 161.215 175.102 160.936 175.102 160.624C175.102 160.318 175.039 160.045 174.913 159.805C174.793 159.565 174.625 159.376 174.409 159.238C174.193 159.1 173.944 159.031 173.662 159.031C173.386 159.031 173.14 159.1 172.924 159.238C172.714 159.376 172.546 159.565 172.42 159.805C172.3 160.045 172.24 160.318 172.24 160.624C172.24 160.936 172.3 161.215 172.42 161.461C172.546 161.701 172.714 161.89 172.924 162.028C173.14 162.166 173.386 162.235 173.662 162.235ZM177.278 163V158.275H178.214V159.283L178.043 159.391C178.091 159.235 178.166 159.085 178.268 158.941C178.376 158.797 178.505 158.671 178.655 158.563C178.811 158.449 178.976 158.359 179.15 158.293C179.33 158.227 179.513 158.194 179.699 158.194C179.969 158.194 180.206 158.239 180.41 158.329C180.614 158.419 180.782 158.554 180.914 158.734C181.046 158.914 181.142 159.139 181.202 159.409L181.058 159.373L181.121 159.22C181.187 159.082 181.277 158.953 181.391 158.833C181.511 158.707 181.646 158.596 181.796 158.5C181.946 158.404 182.105 158.329 182.273 158.275C182.441 158.221 182.606 158.194 182.768 158.194C183.122 158.194 183.413 158.266 183.641 158.41C183.875 158.554 184.049 158.773 184.163 159.067C184.283 159.361 184.343 159.727 184.343 160.165V163H183.407V160.219C183.407 159.949 183.371 159.73 183.299 159.562C183.233 159.388 183.131 159.259 182.993 159.175C182.855 159.091 182.678 159.049 182.462 159.049C182.294 159.049 182.135 159.079 181.985 159.139C181.841 159.193 181.715 159.271 181.607 159.373C181.499 159.475 181.415 159.595 181.355 159.733C181.295 159.865 181.265 160.012 181.265 160.174V163H180.329V160.201C180.329 159.955 180.293 159.748 180.221 159.58C180.149 159.406 180.044 159.274 179.906 159.184C179.768 159.094 179.6 159.049 179.402 159.049C179.234 159.049 179.078 159.079 178.934 159.139C178.79 159.193 178.664 159.271 178.556 159.373C178.448 159.469 178.364 159.586 178.304 159.724C178.244 159.856 178.214 160 178.214 160.156V163H177.278ZM187.79 163.09C187.304 163.09 186.872 162.988 186.494 162.784C186.122 162.574 185.828 162.289 185.612 161.929C185.402 161.569 185.297 161.155 185.297 160.687C185.297 160.315 185.357 159.976 185.477 159.67C185.597 159.364 185.762 159.1 185.972 158.878C186.188 158.65 186.443 158.476 186.737 158.356C187.037 158.23 187.361 158.167 187.709 158.167C188.015 158.167 188.3 158.227 188.564 158.347C188.828 158.461 189.056 158.62 189.248 158.824C189.446 159.028 189.596 159.271 189.698 159.553C189.806 159.829 189.857 160.132 189.851 160.462L189.842 160.858H185.981L185.774 160.12H189.041L188.906 160.273V160.057C188.888 159.859 188.822 159.682 188.708 159.526C188.594 159.37 188.45 159.247 188.276 159.157C188.102 159.067 187.913 159.022 187.709 159.022C187.385 159.022 187.112 159.085 186.89 159.211C186.668 159.331 186.5 159.511 186.386 159.751C186.272 159.985 186.215 160.276 186.215 160.624C186.215 160.954 186.284 161.242 186.422 161.488C186.56 161.728 186.755 161.914 187.007 162.046C187.259 162.178 187.55 162.244 187.88 162.244C188.114 162.244 188.33 162.205 188.528 162.127C188.732 162.049 188.951 161.908 189.185 161.704L189.653 162.361C189.509 162.505 189.332 162.631 189.122 162.739C188.918 162.847 188.699 162.934 188.465 163C188.237 163.06 188.012 163.09 187.79 163.09Z" fill="black"/>
<path d="M122.74 210.119C122.287 210.119 121.867 210.06 121.477 209.94C121.096 209.821 120.747 209.643 120.429 209.404C120.12 209.158 119.842 208.857 119.596 208.499L120.477 207.487C120.866 208.043 121.239 208.428 121.597 208.642C121.954 208.857 122.379 208.964 122.871 208.964C123.173 208.964 123.447 208.916 123.693 208.821C123.939 208.726 124.134 208.595 124.276 208.428C124.419 208.261 124.491 208.07 124.491 207.856C124.491 207.713 124.467 207.578 124.419 207.451C124.372 207.324 124.296 207.209 124.193 207.106C124.098 207.002 123.971 206.907 123.812 206.82C123.661 206.732 123.482 206.657 123.276 206.594C123.069 206.522 122.831 206.463 122.561 206.415C122.133 206.328 121.759 206.212 121.442 206.069C121.124 205.927 120.858 205.748 120.644 205.533C120.429 205.319 120.27 205.077 120.167 204.807C120.064 204.529 120.012 204.219 120.012 203.878C120.012 203.544 120.084 203.235 120.227 202.949C120.378 202.663 120.58 202.417 120.834 202.21C121.096 201.996 121.402 201.833 121.751 201.722C122.101 201.603 122.478 201.543 122.883 201.543C123.312 201.543 123.705 201.599 124.062 201.71C124.419 201.821 124.737 201.988 125.015 202.21C125.293 202.425 125.523 202.691 125.706 203.008L124.801 203.902C124.642 203.64 124.463 203.421 124.265 203.247C124.066 203.064 123.848 202.929 123.609 202.842C123.371 202.746 123.117 202.699 122.847 202.699C122.537 202.699 122.268 202.746 122.037 202.842C121.807 202.937 121.624 203.072 121.489 203.247C121.362 203.413 121.299 203.612 121.299 203.842C121.299 204.009 121.331 204.164 121.394 204.307C121.458 204.442 121.553 204.565 121.68 204.676C121.815 204.779 121.994 204.874 122.216 204.962C122.438 205.041 122.704 205.113 123.014 205.176C123.451 205.271 123.84 205.395 124.181 205.545C124.523 205.688 124.812 205.859 125.051 206.058C125.289 206.256 125.468 206.478 125.587 206.725C125.714 206.971 125.777 207.237 125.777 207.523C125.777 208.055 125.654 208.515 125.408 208.904C125.162 209.293 124.812 209.595 124.36 209.809C123.907 210.016 123.367 210.119 122.74 210.119ZM127.6 210V201.662H130.994C131.447 201.662 131.856 201.778 132.221 202.008C132.594 202.23 132.892 202.536 133.114 202.925C133.337 203.314 133.448 203.747 133.448 204.223C133.448 204.7 133.337 205.132 133.114 205.522C132.892 205.911 132.594 206.224 132.221 206.463C131.856 206.693 131.447 206.808 130.994 206.808H128.886V210H127.6ZM128.886 205.569H130.971C131.185 205.569 131.379 205.51 131.554 205.391C131.729 205.264 131.868 205.101 131.971 204.902C132.082 204.696 132.138 204.469 132.138 204.223C132.138 203.977 132.082 203.755 131.971 203.556C131.868 203.358 131.729 203.199 131.554 203.08C131.379 202.961 131.185 202.901 130.971 202.901H128.886V205.569ZM133.5 210L136.728 201.662H138.038L141.242 210H139.872L137.966 204.974C137.943 204.918 137.895 204.783 137.823 204.569C137.76 204.354 137.685 204.116 137.597 203.854C137.51 203.592 137.43 203.354 137.359 203.139C137.288 202.917 137.24 202.774 137.216 202.711L137.49 202.699C137.442 202.834 137.383 203.004 137.311 203.211C137.248 203.417 137.176 203.636 137.097 203.866C137.025 204.096 136.954 204.315 136.883 204.521C136.811 204.72 136.752 204.886 136.704 205.021L134.81 210H133.5ZM134.929 207.928L135.406 206.689H139.193L139.741 207.928H134.929Z" fill="black"/>
<path d="M120.167 237V228.662H121.323L126.42 235.487L126.23 235.595C126.198 235.396 126.17 235.182 126.146 234.951C126.123 234.713 126.099 234.463 126.075 234.201C126.059 233.931 126.043 233.649 126.027 233.355C126.019 233.054 126.011 232.74 126.003 232.414C125.996 232.089 125.992 231.751 125.992 231.402V228.662H127.278V237H126.099L121.084 230.425L121.215 230.259C121.255 230.743 121.287 231.156 121.311 231.497C121.342 231.831 121.366 232.117 121.382 232.355C121.406 232.585 121.422 232.776 121.43 232.927C121.438 233.069 121.442 233.189 121.442 233.284C121.45 233.379 121.454 233.463 121.454 233.534V237H120.167ZM132.113 237.119C131.502 237.119 130.954 236.98 130.47 236.702C129.993 236.416 129.616 236.031 129.338 235.547C129.06 235.055 128.921 234.495 128.921 233.867C128.921 233.24 129.06 232.684 129.338 232.2C129.616 231.708 129.993 231.323 130.47 231.045C130.954 230.759 131.502 230.616 132.113 230.616C132.717 230.616 133.257 230.759 133.733 231.045C134.218 231.323 134.599 231.708 134.877 232.2C135.155 232.684 135.293 233.24 135.293 233.867C135.293 234.495 135.155 235.055 134.877 235.547C134.599 236.031 134.218 236.416 133.733 236.702C133.257 236.98 132.717 237.119 132.113 237.119ZM132.113 235.999C132.487 235.999 132.82 235.908 133.114 235.726C133.408 235.535 133.638 235.281 133.805 234.963C133.971 234.638 134.051 234.272 134.043 233.867C134.051 233.455 133.971 233.089 133.805 232.772C133.638 232.446 133.408 232.192 133.114 232.009C132.82 231.827 132.487 231.735 132.113 231.735C131.74 231.735 131.403 231.831 131.101 232.021C130.807 232.204 130.577 232.458 130.41 232.784C130.243 233.101 130.164 233.463 130.172 233.867C130.164 234.272 130.243 234.638 130.41 234.963C130.577 235.281 130.807 235.535 131.101 235.726C131.403 235.908 131.74 235.999 132.113 235.999ZM137.404 237V229.151H138.631V237H137.404ZM136.106 231.938V230.747H140.084V231.938H136.106ZM141.404 237V230.747H142.631V237H141.404ZM141.999 229.365C141.737 229.365 141.535 229.298 141.392 229.163C141.249 229.028 141.178 228.837 141.178 228.591C141.178 228.361 141.249 228.174 141.392 228.031C141.543 227.888 141.745 227.817 141.999 227.817C142.262 227.817 142.464 227.884 142.607 228.019C142.75 228.154 142.821 228.345 142.821 228.591C142.821 228.821 142.746 229.008 142.595 229.151C142.452 229.294 142.254 229.365 141.999 229.365ZM147.173 237.119C146.593 237.119 146.073 236.976 145.612 236.69C145.16 236.404 144.798 236.015 144.528 235.523C144.266 235.031 144.135 234.479 144.135 233.867C144.135 233.256 144.266 232.704 144.528 232.212C144.798 231.72 145.16 231.33 145.612 231.045C146.073 230.759 146.593 230.616 147.173 230.616C147.728 230.616 148.233 230.731 148.685 230.961C149.146 231.184 149.495 231.489 149.733 231.878L149.054 232.712C148.927 232.53 148.765 232.363 148.566 232.212C148.368 232.061 148.157 231.942 147.935 231.855C147.713 231.767 147.498 231.724 147.292 231.724C146.911 231.724 146.569 231.819 146.267 232.009C145.974 232.192 145.739 232.446 145.565 232.772C145.39 233.097 145.303 233.463 145.303 233.867C145.303 234.272 145.394 234.638 145.577 234.963C145.759 235.281 146.001 235.535 146.303 235.726C146.605 235.916 146.938 236.011 147.304 236.011C147.518 236.011 147.724 235.976 147.923 235.904C148.129 235.833 148.328 235.726 148.518 235.583C148.709 235.44 148.888 235.265 149.054 235.059L149.733 235.892C149.479 236.25 149.114 236.543 148.638 236.774C148.169 237.004 147.681 237.119 147.173 237.119ZM153.809 237.119C153.166 237.119 152.594 236.984 152.094 236.714C151.601 236.436 151.212 236.059 150.926 235.583C150.648 235.106 150.509 234.558 150.509 233.939C150.509 233.447 150.589 232.998 150.748 232.593C150.906 232.188 151.125 231.839 151.403 231.545C151.689 231.243 152.026 231.013 152.415 230.854C152.812 230.687 153.241 230.604 153.701 230.604C154.106 230.604 154.484 230.683 154.833 230.842C155.182 230.993 155.484 231.203 155.738 231.473C156 231.743 156.199 232.065 156.334 232.438C156.477 232.803 156.544 233.204 156.536 233.641L156.524 234.165H151.415L151.141 233.189H155.464L155.286 233.391V233.105C155.262 232.843 155.174 232.609 155.024 232.402C154.873 232.196 154.682 232.033 154.452 231.914C154.222 231.795 153.971 231.735 153.701 231.735C153.273 231.735 152.911 231.819 152.618 231.986C152.324 232.144 152.101 232.383 151.951 232.7C151.8 233.01 151.724 233.395 151.724 233.856C151.724 234.292 151.816 234.673 151.998 234.999C152.181 235.317 152.439 235.563 152.772 235.737C153.106 235.912 153.491 235.999 153.928 235.999C154.237 235.999 154.523 235.948 154.785 235.845C155.055 235.741 155.345 235.555 155.655 235.285L156.274 236.154C156.084 236.345 155.849 236.512 155.571 236.655C155.301 236.798 155.012 236.913 154.702 237C154.4 237.079 154.102 237.119 153.809 237.119ZM161.517 237V228.662H165.067C165.543 228.662 165.98 228.782 166.377 229.02C166.782 229.25 167.104 229.568 167.342 229.973C167.58 230.37 167.699 230.818 167.699 231.319C167.699 231.771 167.58 232.192 167.342 232.581C167.104 232.97 166.786 233.284 166.389 233.522C165.992 233.752 165.551 233.867 165.067 233.867H162.804V237H161.517ZM166.472 237L164.352 233.236L165.674 232.938L168.033 237.012L166.472 237ZM162.804 232.629H165.186C165.416 232.629 165.623 232.573 165.805 232.462C165.988 232.343 166.131 232.184 166.234 231.986C166.337 231.779 166.389 231.553 166.389 231.307C166.389 231.029 166.321 230.787 166.186 230.58C166.059 230.366 165.877 230.199 165.639 230.08C165.408 229.961 165.146 229.901 164.852 229.901H162.804V232.629ZM172.175 237.119C171.532 237.119 170.96 236.984 170.46 236.714C169.967 236.436 169.578 236.059 169.293 235.583C169.015 235.106 168.876 234.558 168.876 233.939C168.876 233.447 168.955 232.998 169.114 232.593C169.273 232.188 169.491 231.839 169.769 231.545C170.055 231.243 170.392 231.013 170.781 230.854C171.178 230.687 171.607 230.604 172.068 230.604C172.473 230.604 172.85 230.683 173.199 230.842C173.549 230.993 173.85 231.203 174.104 231.473C174.366 231.743 174.565 232.065 174.7 232.438C174.843 232.803 174.91 233.204 174.902 233.641L174.891 234.165H169.781L169.507 233.189H173.831L173.652 233.391V233.105C173.628 232.843 173.541 232.609 173.39 232.402C173.239 232.196 173.048 232.033 172.818 231.914C172.588 231.795 172.338 231.735 172.068 231.735C171.639 231.735 171.278 231.819 170.984 231.986C170.69 232.144 170.468 232.383 170.317 232.7C170.166 233.01 170.091 233.395 170.091 233.856C170.091 234.292 170.182 234.673 170.364 234.999C170.547 235.317 170.805 235.563 171.139 235.737C171.472 235.912 171.857 235.999 172.294 235.999C172.604 235.999 172.89 235.948 173.152 235.845C173.422 235.741 173.711 235.555 174.021 235.285L174.64 236.154C174.45 236.345 174.216 236.512 173.938 236.655C173.668 236.798 173.378 236.913 173.068 237C172.766 237.079 172.469 237.119 172.175 237.119ZM176.236 237V230.747H177.463V232.033L177.248 232.176C177.328 231.898 177.482 231.644 177.713 231.414C177.943 231.176 178.217 230.985 178.534 230.842C178.852 230.691 179.178 230.616 179.511 230.616C179.988 230.616 180.385 230.711 180.702 230.902C181.02 231.084 181.258 231.366 181.417 231.747C181.576 232.129 181.655 232.609 181.655 233.189V237H180.428V233.272C180.428 232.915 180.381 232.621 180.285 232.391C180.19 232.152 180.043 231.982 179.845 231.878C179.646 231.767 179.4 231.72 179.106 231.735C178.868 231.735 178.65 231.775 178.451 231.855C178.253 231.926 178.078 232.029 177.927 232.164C177.784 232.299 177.669 232.458 177.582 232.641C177.502 232.815 177.463 233.006 177.463 233.212V237H176.855C176.752 237 176.649 237 176.545 237C176.442 237 176.339 237 176.236 237ZM186.237 237.119C185.594 237.119 185.023 236.984 184.522 236.714C184.03 236.436 183.641 236.059 183.355 235.583C183.077 235.106 182.938 234.558 182.938 233.939C182.938 233.447 183.018 232.998 183.176 232.593C183.335 232.188 183.554 231.839 183.832 231.545C184.117 231.243 184.455 231.013 184.844 230.854C185.241 230.687 185.67 230.604 186.13 230.604C186.535 230.604 186.912 230.683 187.262 230.842C187.611 230.993 187.913 231.203 188.167 231.473C188.429 231.743 188.628 232.065 188.763 232.438C188.905 232.803 188.973 233.204 188.965 233.641L188.953 234.165H183.843L183.569 233.189H187.893L187.714 233.391V233.105C187.691 232.843 187.603 232.609 187.452 232.402C187.301 232.196 187.111 232.033 186.881 231.914C186.65 231.795 186.4 231.735 186.13 231.735C185.701 231.735 185.34 231.819 185.046 231.986C184.753 232.144 184.53 232.383 184.379 232.7C184.229 233.01 184.153 233.395 184.153 233.856C184.153 234.292 184.244 234.673 184.427 234.999C184.61 235.317 184.868 235.563 185.201 235.737C185.535 235.912 185.92 235.999 186.357 235.999C186.666 235.999 186.952 235.948 187.214 235.845C187.484 235.741 187.774 235.555 188.084 235.285L188.703 236.154C188.512 236.345 188.278 236.512 188 236.655C187.73 236.798 187.44 236.913 187.131 237C186.829 237.079 186.531 237.119 186.237 237.119ZM191.718 237L189.586 230.747L190.825 230.735L192.35 235.416L192.076 235.392L193.731 231.735H194.47L196.137 235.404L195.816 235.428L197.352 230.747H198.591L196.483 237H195.637L193.898 233.022L194.172 233.058L192.552 237H191.718ZM201.94 237.119C201.424 237.119 200.951 236.976 200.522 236.69C200.101 236.404 199.764 236.015 199.51 235.523C199.256 235.031 199.129 234.475 199.129 233.856C199.129 233.228 199.256 232.672 199.51 232.188C199.772 231.696 200.121 231.311 200.558 231.033C201.003 230.755 201.499 230.616 202.047 230.616C202.372 230.616 202.67 230.663 202.94 230.759C203.21 230.854 203.444 230.989 203.643 231.164C203.849 231.33 204.016 231.525 204.143 231.747C204.278 231.97 204.362 232.208 204.393 232.462L204.119 232.367V230.747H205.358V237H204.119V235.511L204.405 235.428C204.358 235.642 204.258 235.853 204.107 236.059C203.965 236.258 203.778 236.436 203.548 236.595C203.325 236.754 203.075 236.881 202.797 236.976C202.527 237.071 202.241 237.119 201.94 237.119ZM202.261 235.988C202.634 235.988 202.964 235.896 203.25 235.714C203.536 235.531 203.758 235.281 203.917 234.963C204.084 234.638 204.167 234.268 204.167 233.856C204.167 233.451 204.084 233.089 203.917 232.772C203.758 232.454 203.536 232.204 203.25 232.021C202.964 231.839 202.634 231.747 202.261 231.747C201.896 231.747 201.57 231.839 201.285 232.021C201.007 232.204 200.784 232.454 200.618 232.772C200.459 233.089 200.379 233.451 200.379 233.856C200.379 234.268 200.459 234.638 200.618 234.963C200.784 235.281 201.007 235.531 201.285 235.714C201.57 235.896 201.896 235.988 202.261 235.988ZM207.095 237V228.186H208.322V237H207.095Z" fill="black"/>
<rect x="114" y="250" width="251" height="24" rx="3" fill="#8FC3FA" fill-opacity="0.39"/>
<path d="M120.167 267V258.662H123.645C124.177 258.662 124.626 258.742 124.991 258.901C125.356 259.06 125.63 259.298 125.813 259.615C126.004 259.925 126.099 260.306 126.099 260.759C126.099 261.211 125.972 261.597 125.718 261.914C125.471 262.232 125.126 262.45 124.681 262.569V262.331C125.055 262.41 125.38 262.553 125.658 262.76C125.936 262.958 126.15 263.208 126.301 263.51C126.46 263.812 126.539 264.157 126.539 264.546C126.539 264.943 126.476 265.297 126.349 265.606C126.23 265.908 126.047 266.162 125.801 266.369C125.563 266.575 125.273 266.734 124.932 266.845C124.59 266.948 124.201 267 123.764 267H120.167ZM121.454 265.761H123.693C124.018 265.761 124.292 265.714 124.515 265.618C124.745 265.523 124.92 265.384 125.039 265.201C125.166 265.011 125.229 264.785 125.229 264.523C125.229 264.276 125.162 264.066 125.027 263.891C124.9 263.717 124.717 263.586 124.479 263.498C124.241 263.403 123.959 263.355 123.633 263.355H121.454V265.761ZM121.454 262.117H123.574C123.812 262.117 124.022 262.069 124.205 261.974C124.396 261.878 124.542 261.747 124.646 261.581C124.757 261.414 124.812 261.223 124.812 261.009C124.812 260.652 124.693 260.378 124.455 260.187C124.217 259.996 123.875 259.901 123.431 259.901H121.454V262.117ZM127.965 267V260.747H129.203V262.712L129.084 262.236C129.172 261.934 129.319 261.66 129.525 261.414C129.739 261.168 129.982 260.973 130.252 260.83C130.53 260.687 130.815 260.616 131.109 260.616C131.244 260.616 131.371 260.628 131.49 260.652C131.617 260.675 131.717 260.703 131.788 260.735L131.467 262.069C131.371 262.029 131.264 261.997 131.145 261.974C131.034 261.942 130.923 261.926 130.811 261.926C130.597 261.926 130.391 261.97 130.192 262.057C130.001 262.136 129.831 262.252 129.68 262.402C129.537 262.545 129.422 262.716 129.334 262.915C129.247 263.105 129.203 263.316 129.203 263.546V267H127.965ZM135.312 267.119C134.701 267.119 134.153 266.98 133.668 266.702C133.192 266.416 132.815 266.031 132.537 265.547C132.259 265.055 132.12 264.495 132.12 263.867C132.12 263.24 132.259 262.684 132.537 262.2C132.815 261.708 133.192 261.323 133.668 261.045C134.153 260.759 134.701 260.616 135.312 260.616C135.915 260.616 136.455 260.759 136.932 261.045C137.416 261.323 137.797 261.708 138.075 262.2C138.353 262.684 138.492 263.24 138.492 263.867C138.492 264.495 138.353 265.055 138.075 265.547C137.797 266.031 137.416 266.416 136.932 266.702C136.455 266.98 135.915 267.119 135.312 267.119ZM135.312 265.999C135.685 265.999 136.019 265.908 136.313 265.726C136.606 265.535 136.837 265.281 137.003 264.963C137.17 264.638 137.249 264.272 137.242 263.867C137.249 263.455 137.17 263.089 137.003 262.772C136.837 262.446 136.606 262.192 136.313 262.009C136.019 261.827 135.685 261.735 135.312 261.735C134.939 261.735 134.601 261.831 134.3 262.021C134.006 262.204 133.776 262.458 133.609 262.784C133.442 263.101 133.363 263.463 133.371 263.867C133.363 264.272 133.442 264.638 133.609 264.963C133.776 265.281 134.006 265.535 134.3 265.726C134.601 265.908 134.939 265.999 135.312 265.999ZM142.235 267.119C141.719 267.119 141.246 266.976 140.818 266.69C140.397 266.404 140.059 266.015 139.805 265.523C139.551 265.031 139.424 264.475 139.424 263.856C139.424 263.228 139.551 262.672 139.805 262.188C140.067 261.696 140.417 261.311 140.853 261.033C141.298 260.755 141.794 260.616 142.342 260.616C142.668 260.616 142.965 260.663 143.235 260.759C143.505 260.854 143.74 260.989 143.938 261.164C144.145 261.33 144.311 261.525 144.438 261.747C144.573 261.97 144.657 262.208 144.689 262.462L144.415 262.367V260.747H145.653V267H144.415V265.511L144.7 265.428C144.653 265.642 144.554 265.853 144.403 266.059C144.26 266.258 144.073 266.436 143.843 266.595C143.621 266.754 143.37 266.881 143.092 266.976C142.823 267.071 142.537 267.119 142.235 267.119ZM142.557 265.988C142.93 265.988 143.259 265.896 143.545 265.714C143.831 265.531 144.053 265.281 144.212 264.963C144.379 264.638 144.462 264.268 144.462 263.856C144.462 263.451 144.379 263.089 144.212 262.772C144.053 262.454 143.831 262.204 143.545 262.021C143.259 261.839 142.93 261.747 142.557 261.747C142.191 261.747 141.866 261.839 141.58 262.021C141.302 262.204 141.08 262.454 140.913 262.772C140.754 263.089 140.675 263.451 140.675 263.856C140.675 264.268 140.754 264.638 140.913 264.963C141.08 265.281 141.302 265.531 141.58 265.714C141.866 265.896 142.191 265.988 142.557 265.988ZM149.975 267.119C149.403 267.119 148.891 266.98 148.438 266.702C147.994 266.416 147.64 266.031 147.378 265.547C147.116 265.055 146.985 264.495 146.985 263.867C146.985 263.24 147.112 262.684 147.366 262.2C147.628 261.708 147.982 261.323 148.426 261.045C148.871 260.759 149.375 260.616 149.939 260.616C150.249 260.616 150.546 260.667 150.832 260.771C151.126 260.866 151.388 261.001 151.618 261.176C151.849 261.342 152.027 261.529 152.154 261.735C152.289 261.934 152.357 262.136 152.357 262.343L151.999 262.367V258.186H153.226V267H151.999V265.511H152.238C152.238 265.702 152.174 265.892 152.047 266.083C151.92 266.266 151.749 266.436 151.535 266.595C151.329 266.754 151.086 266.881 150.808 266.976C150.538 267.071 150.261 267.119 149.975 267.119ZM150.141 266.059C150.515 266.059 150.844 265.964 151.13 265.773C151.416 265.583 151.638 265.325 151.797 264.999C151.964 264.665 152.047 264.288 152.047 263.867C152.047 263.447 151.964 263.073 151.797 262.748C151.638 262.414 151.416 262.152 151.13 261.962C150.844 261.771 150.515 261.676 150.141 261.676C149.768 261.676 149.439 261.771 149.153 261.962C148.867 262.152 148.641 262.414 148.474 262.748C148.315 263.073 148.236 263.447 148.236 263.867C148.236 264.288 148.315 264.665 148.474 264.999C148.641 265.325 148.867 265.583 149.153 265.773C149.439 265.964 149.768 266.059 150.141 266.059ZM157.571 267.119C156.992 267.119 156.471 266.976 156.011 266.69C155.558 266.404 155.197 266.015 154.927 265.523C154.665 265.031 154.534 264.479 154.534 263.867C154.534 263.256 154.665 262.704 154.927 262.212C155.197 261.72 155.558 261.33 156.011 261.045C156.471 260.759 156.992 260.616 157.571 260.616C158.127 260.616 158.631 260.731 159.084 260.961C159.544 261.184 159.894 261.489 160.132 261.878L159.453 262.712C159.326 262.53 159.163 262.363 158.965 262.212C158.766 262.061 158.556 261.942 158.333 261.855C158.111 261.767 157.897 261.724 157.69 261.724C157.309 261.724 156.968 261.819 156.666 262.009C156.372 262.192 156.138 262.446 155.963 262.772C155.789 263.097 155.701 263.463 155.701 263.867C155.701 264.272 155.793 264.638 155.975 264.963C156.158 265.281 156.4 265.535 156.702 265.726C157.003 265.916 157.337 266.011 157.702 266.011C157.917 266.011 158.123 265.976 158.322 265.904C158.528 265.833 158.727 265.726 158.917 265.583C159.108 265.44 159.286 265.265 159.453 265.059L160.132 265.892C159.878 266.25 159.513 266.543 159.036 266.774C158.568 267.004 158.079 267.119 157.571 267.119ZM163.695 267.119C163.179 267.119 162.707 266.976 162.278 266.69C161.857 266.404 161.519 266.015 161.265 265.523C161.011 265.031 160.884 264.475 160.884 263.856C160.884 263.228 161.011 262.672 161.265 262.188C161.527 261.696 161.877 261.311 162.313 261.033C162.758 260.755 163.254 260.616 163.802 260.616C164.128 260.616 164.426 260.663 164.696 260.759C164.966 260.854 165.2 260.989 165.398 261.164C165.605 261.33 165.772 261.525 165.899 261.747C166.034 261.97 166.117 262.208 166.149 262.462L165.875 262.367V260.747H167.114V267H165.875V265.511L166.161 265.428C166.113 265.642 166.014 265.853 165.863 266.059C165.72 266.258 165.533 266.436 165.303 266.595C165.081 266.754 164.831 266.881 164.553 266.976C164.283 267.071 163.997 267.119 163.695 267.119ZM164.017 265.988C164.39 265.988 164.719 265.896 165.005 265.714C165.291 265.531 165.514 265.281 165.672 264.963C165.839 264.638 165.922 264.268 165.922 263.856C165.922 263.451 165.839 263.089 165.672 262.772C165.514 262.454 165.291 262.204 165.005 262.021C164.719 261.839 164.39 261.747 164.017 261.747C163.651 261.747 163.326 261.839 163.04 262.021C162.762 262.204 162.54 262.454 162.373 262.772C162.214 263.089 162.135 263.451 162.135 263.856C162.135 264.268 162.214 264.638 162.373 264.963C162.54 265.281 162.762 265.531 163.04 265.714C163.326 265.896 163.651 265.988 164.017 265.988ZM170.911 267.119C170.387 267.119 169.914 267.028 169.493 266.845C169.073 266.663 168.723 266.393 168.445 266.035L169.279 265.321C169.517 265.599 169.775 265.801 170.053 265.928C170.339 266.047 170.661 266.107 171.018 266.107C171.161 266.107 171.292 266.091 171.411 266.059C171.538 266.019 171.645 265.964 171.733 265.892C171.828 265.821 171.899 265.737 171.947 265.642C171.995 265.539 172.018 265.428 172.018 265.309C172.018 265.102 171.943 264.935 171.792 264.808C171.713 264.753 171.586 264.693 171.411 264.63C171.244 264.558 171.026 264.487 170.756 264.415C170.295 264.296 169.918 264.161 169.624 264.01C169.331 263.86 169.104 263.689 168.946 263.498C168.826 263.347 168.739 263.185 168.683 263.01C168.628 262.827 168.6 262.629 168.6 262.414C168.6 262.152 168.656 261.914 168.767 261.7C168.886 261.477 169.045 261.287 169.243 261.128C169.45 260.961 169.688 260.834 169.958 260.747C170.236 260.66 170.53 260.616 170.839 260.616C171.133 260.616 171.423 260.656 171.709 260.735C172.003 260.814 172.273 260.93 172.519 261.08C172.765 261.231 172.971 261.41 173.138 261.616L172.435 262.391C172.285 262.24 172.118 262.109 171.935 261.997C171.76 261.878 171.582 261.787 171.399 261.724C171.217 261.66 171.05 261.628 170.899 261.628C170.732 261.628 170.581 261.644 170.446 261.676C170.311 261.708 170.196 261.755 170.101 261.819C170.014 261.882 169.946 261.962 169.898 262.057C169.851 262.152 169.827 262.26 169.827 262.379C169.835 262.482 169.859 262.581 169.898 262.676C169.946 262.764 170.01 262.839 170.089 262.903C170.176 262.966 170.307 263.034 170.482 263.105C170.657 263.177 170.879 263.244 171.149 263.308C171.546 263.411 171.872 263.526 172.126 263.653C172.388 263.772 172.594 263.911 172.745 264.07C172.904 264.221 173.015 264.396 173.079 264.594C173.142 264.793 173.174 265.015 173.174 265.261C173.174 265.618 173.071 265.94 172.864 266.226C172.666 266.504 172.396 266.722 172.054 266.881C171.713 267.04 171.332 267.119 170.911 267.119ZM175.3 267V259.151H176.527V267H175.3ZM174.002 261.938V260.747H177.98V261.938H174.002ZM181.414 267.119C180.89 267.119 180.418 267.028 179.997 266.845C179.576 266.663 179.226 266.393 178.949 266.035L179.782 265.321C180.021 265.599 180.279 265.801 180.557 265.928C180.842 266.047 181.164 266.107 181.521 266.107C181.664 266.107 181.795 266.091 181.914 266.059C182.041 266.019 182.149 265.964 182.236 265.892C182.331 265.821 182.403 265.737 182.45 265.642C182.498 265.539 182.522 265.428 182.522 265.309C182.522 265.102 182.446 264.935 182.295 264.808C182.216 264.753 182.089 264.693 181.914 264.63C181.748 264.558 181.529 264.487 181.259 264.415C180.799 264.296 180.422 264.161 180.128 264.01C179.834 263.86 179.608 263.689 179.449 263.498C179.33 263.347 179.242 263.185 179.187 263.01C179.131 262.827 179.103 262.629 179.103 262.414C179.103 262.152 179.159 261.914 179.27 261.7C179.389 261.477 179.548 261.287 179.747 261.128C179.953 260.961 180.191 260.834 180.461 260.747C180.739 260.66 181.033 260.616 181.343 260.616C181.636 260.616 181.926 260.656 182.212 260.735C182.506 260.814 182.776 260.93 183.022 261.08C183.268 261.231 183.475 261.41 183.641 261.616L182.939 262.391C182.788 262.24 182.621 262.109 182.438 261.997C182.264 261.878 182.085 261.787 181.902 261.724C181.72 261.66 181.553 261.628 181.402 261.628C181.235 261.628 181.085 261.644 180.95 261.676C180.815 261.708 180.699 261.755 180.604 261.819C180.517 261.882 180.449 261.962 180.402 262.057C180.354 262.152 180.33 262.26 180.33 262.379C180.338 262.482 180.362 262.581 180.402 262.676C180.449 262.764 180.513 262.839 180.592 262.903C180.68 262.966 180.811 263.034 180.985 263.105C181.16 263.177 181.382 263.244 181.652 263.308C182.049 263.411 182.375 263.526 182.629 263.653C182.891 263.772 183.097 263.911 183.248 264.07C183.407 264.221 183.518 264.396 183.582 264.594C183.645 264.793 183.677 265.015 183.677 265.261C183.677 265.618 183.574 265.94 183.367 266.226C183.169 266.504 182.899 266.722 182.558 266.881C182.216 267.04 181.835 267.119 181.414 267.119Z" fill="black"/>
<path d="M120.167 291V282.662H121.323L126.42 289.487L126.23 289.595C126.198 289.396 126.17 289.182 126.146 288.951C126.123 288.713 126.099 288.463 126.075 288.201C126.059 287.931 126.043 287.649 126.027 287.355C126.019 287.054 126.011 286.74 126.003 286.414C125.996 286.089 125.992 285.751 125.992 285.402V282.662H127.278V291H126.099L121.084 284.425L121.215 284.259C121.255 284.743 121.287 285.156 121.311 285.497C121.342 285.831 121.366 286.117 121.382 286.355C121.406 286.585 121.422 286.776 121.43 286.927C121.438 287.069 121.442 287.189 121.442 287.284C121.45 287.379 121.454 287.463 121.454 287.534V291H120.167ZM132.113 291.119C131.502 291.119 130.954 290.98 130.47 290.702C129.993 290.416 129.616 290.031 129.338 289.547C129.06 289.055 128.921 288.495 128.921 287.867C128.921 287.24 129.06 286.684 129.338 286.2C129.616 285.708 129.993 285.323 130.47 285.045C130.954 284.759 131.502 284.616 132.113 284.616C132.717 284.616 133.257 284.759 133.733 285.045C134.218 285.323 134.599 285.708 134.877 286.2C135.155 286.684 135.293 287.24 135.293 287.867C135.293 288.495 135.155 289.055 134.877 289.547C134.599 290.031 134.218 290.416 133.733 290.702C133.257 290.98 132.717 291.119 132.113 291.119ZM132.113 289.999C132.487 289.999 132.82 289.908 133.114 289.726C133.408 289.535 133.638 289.281 133.805 288.963C133.971 288.638 134.051 288.272 134.043 287.867C134.051 287.455 133.971 287.089 133.805 286.772C133.638 286.446 133.408 286.192 133.114 286.009C132.82 285.827 132.487 285.735 132.113 285.735C131.74 285.735 131.403 285.831 131.101 286.021C130.807 286.204 130.577 286.458 130.41 286.784C130.243 287.101 130.164 287.463 130.172 287.867C130.164 288.272 130.243 288.638 130.41 288.963C130.577 289.281 130.807 289.535 131.101 289.726C131.403 289.908 131.74 289.999 132.113 289.999ZM137.404 291V283.151H138.631V291H137.404ZM136.106 285.938V284.747H140.084V285.938H136.106ZM141.404 291V284.747H142.631V291H141.404ZM141.999 283.365C141.737 283.365 141.535 283.298 141.392 283.163C141.249 283.028 141.178 282.837 141.178 282.591C141.178 282.361 141.249 282.174 141.392 282.031C141.543 281.888 141.745 281.817 141.999 281.817C142.262 281.817 142.464 281.884 142.607 282.019C142.75 282.154 142.821 282.345 142.821 282.591C142.821 282.821 142.746 283.008 142.595 283.151C142.452 283.294 142.254 283.365 141.999 283.365ZM147.173 291.119C146.593 291.119 146.073 290.976 145.612 290.69C145.16 290.404 144.798 290.015 144.528 289.523C144.266 289.031 144.135 288.479 144.135 287.867C144.135 287.256 144.266 286.704 144.528 286.212C144.798 285.72 145.16 285.33 145.612 285.045C146.073 284.759 146.593 284.616 147.173 284.616C147.728 284.616 148.233 284.731 148.685 284.961C149.146 285.184 149.495 285.489 149.733 285.878L149.054 286.712C148.927 286.53 148.765 286.363 148.566 286.212C148.368 286.061 148.157 285.942 147.935 285.855C147.713 285.767 147.498 285.724 147.292 285.724C146.911 285.724 146.569 285.819 146.267 286.009C145.974 286.192 145.739 286.446 145.565 286.772C145.39 287.097 145.303 287.463 145.303 287.867C145.303 288.272 145.394 288.638 145.577 288.963C145.759 289.281 146.001 289.535 146.303 289.726C146.605 289.916 146.938 290.011 147.304 290.011C147.518 290.011 147.724 289.976 147.923 289.904C148.129 289.833 148.328 289.726 148.518 289.583C148.709 289.44 148.888 289.265 149.054 289.059L149.733 289.892C149.479 290.25 149.114 290.543 148.638 290.774C148.169 291.004 147.681 291.119 147.173 291.119ZM153.809 291.119C153.166 291.119 152.594 290.984 152.094 290.714C151.601 290.436 151.212 290.059 150.926 289.583C150.648 289.106 150.509 288.558 150.509 287.939C150.509 287.447 150.589 286.998 150.748 286.593C150.906 286.188 151.125 285.839 151.403 285.545C151.689 285.243 152.026 285.013 152.415 284.854C152.812 284.687 153.241 284.604 153.701 284.604C154.106 284.604 154.484 284.683 154.833 284.842C155.182 284.993 155.484 285.203 155.738 285.473C156 285.743 156.199 286.065 156.334 286.438C156.477 286.803 156.544 287.204 156.536 287.641L156.524 288.165H151.415L151.141 287.189H155.464L155.286 287.391V287.105C155.262 286.843 155.174 286.609 155.024 286.402C154.873 286.196 154.682 286.033 154.452 285.914C154.222 285.795 153.971 285.735 153.701 285.735C153.273 285.735 152.911 285.819 152.618 285.986C152.324 286.144 152.101 286.383 151.951 286.7C151.8 287.01 151.724 287.395 151.724 287.856C151.724 288.292 151.816 288.673 151.998 288.999C152.181 289.317 152.439 289.563 152.772 289.737C153.106 289.912 153.491 289.999 153.928 289.999C154.237 289.999 154.523 289.948 154.785 289.845C155.055 289.741 155.345 289.555 155.655 289.285L156.274 290.154C156.084 290.345 155.849 290.512 155.571 290.655C155.301 290.798 155.012 290.913 154.702 291C154.4 291.079 154.102 291.119 153.809 291.119ZM159.954 291.119C159.43 291.119 158.957 291.028 158.537 290.845C158.116 290.663 157.766 290.393 157.488 290.035L158.322 289.321C158.56 289.599 158.818 289.801 159.096 289.928C159.382 290.047 159.704 290.107 160.061 290.107C160.204 290.107 160.335 290.091 160.454 290.059C160.581 290.019 160.688 289.964 160.776 289.892C160.871 289.821 160.942 289.737 160.99 289.642C161.038 289.539 161.062 289.428 161.062 289.309C161.062 289.102 160.986 288.935 160.835 288.808C160.756 288.753 160.629 288.693 160.454 288.63C160.287 288.558 160.069 288.487 159.799 288.415C159.338 288.296 158.961 288.161 158.668 288.01C158.374 287.86 158.147 287.689 157.989 287.498C157.869 287.347 157.782 287.185 157.727 287.01C157.671 286.827 157.643 286.629 157.643 286.414C157.643 286.152 157.699 285.914 157.81 285.7C157.929 285.477 158.088 285.287 158.286 285.128C158.493 284.961 158.731 284.834 159.001 284.747C159.279 284.66 159.573 284.616 159.882 284.616C160.176 284.616 160.466 284.656 160.752 284.735C161.046 284.814 161.316 284.93 161.562 285.08C161.808 285.231 162.014 285.41 162.181 285.616L161.478 286.391C161.328 286.24 161.161 286.109 160.978 285.997C160.804 285.878 160.625 285.787 160.442 285.724C160.26 285.66 160.093 285.628 159.942 285.628C159.775 285.628 159.624 285.644 159.489 285.676C159.354 285.708 159.239 285.755 159.144 285.819C159.057 285.882 158.989 285.962 158.941 286.057C158.894 286.152 158.87 286.26 158.87 286.379C158.878 286.482 158.902 286.581 158.941 286.676C158.989 286.764 159.053 286.839 159.132 286.903C159.219 286.966 159.35 287.034 159.525 287.105C159.7 287.177 159.922 287.244 160.192 287.308C160.589 287.411 160.915 287.526 161.169 287.653C161.431 287.772 161.637 287.911 161.788 288.07C161.947 288.221 162.058 288.396 162.122 288.594C162.185 288.793 162.217 289.015 162.217 289.261C162.217 289.618 162.114 289.94 161.907 290.226C161.709 290.504 161.439 290.722 161.097 290.881C160.756 291.04 160.375 291.119 159.954 291.119Z" fill="black"/>
<rect x="108.15" y="145.15" width="264.7" height="28.7" rx="4.85" stroke="black" stroke-opacity="0.4" stroke-width="0.3"/>
<path d="M347 158L352.5 163.5L358 158" stroke="#999999" stroke-linecap="round"/>
<path d="M110.31 334V328.04H108.35V327H113.41V328.04H111.39V334H110.31ZM114.652 334V328.75H115.682V334H114.652ZM115.152 327.59C114.932 327.59 114.762 327.533 114.642 327.42C114.522 327.307 114.462 327.147 114.462 326.94C114.462 326.747 114.522 326.59 114.642 326.47C114.768 326.35 114.938 326.29 115.152 326.29C115.372 326.29 115.542 326.347 115.662 326.46C115.782 326.573 115.842 326.733 115.842 326.94C115.842 327.133 115.778 327.29 115.652 327.41C115.532 327.53 115.365 327.59 115.152 327.59ZM117.915 334V327.41H118.945V334H117.915ZM116.825 329.75V328.75H120.165V329.75H116.825ZM121.123 334V326.6H122.153V334H121.123ZM125.965 334.1C125.425 334.1 124.945 333.987 124.525 333.76C124.112 333.527 123.785 333.21 123.545 332.81C123.312 332.41 123.195 331.95 123.195 331.43C123.195 331.017 123.262 330.64 123.395 330.3C123.528 329.96 123.712 329.667 123.945 329.42C124.185 329.167 124.468 328.973 124.795 328.84C125.128 328.7 125.488 328.63 125.875 328.63C126.215 328.63 126.532 328.697 126.825 328.83C127.118 328.957 127.372 329.133 127.585 329.36C127.805 329.587 127.972 329.857 128.085 330.17C128.205 330.477 128.262 330.813 128.255 331.18L128.245 331.62H123.955L123.725 330.8H127.355L127.205 330.97V330.73C127.185 330.51 127.112 330.313 126.985 330.14C126.858 329.967 126.698 329.83 126.505 329.73C126.312 329.63 126.102 329.58 125.875 329.58C125.515 329.58 125.212 329.65 124.965 329.79C124.718 329.923 124.532 330.123 124.405 330.39C124.278 330.65 124.215 330.973 124.215 331.36C124.215 331.727 124.292 332.047 124.445 332.32C124.598 332.587 124.815 332.793 125.095 332.94C125.375 333.087 125.698 333.16 126.065 333.16C126.325 333.16 126.565 333.117 126.785 333.03C127.012 332.943 127.255 332.787 127.515 332.56L128.035 333.29C127.875 333.45 127.678 333.59 127.445 333.71C127.218 333.83 126.975 333.927 126.715 334C126.462 334.067 126.212 334.1 125.965 334.1Z" fill="#3B3B3B"/>
<rect x="119" y="353" width="235" height="7" rx="3.5" fill="#E4E6EA"/>
<rect x="108.25" y="343.25" width="264.5" height="26.5" rx="3.75" stroke="#E4E6EA" stroke-width="0.5"/>
<rect x="93" y="404" width="295" height="41" rx="6" fill="#0900FF"/>
<path d="M227.452 430.14C226.845 430.14 226.29 430.065 225.786 429.916C225.291 429.767 224.848 429.547 224.456 429.258C224.073 428.969 223.728 428.619 223.42 428.208L224.736 426.71C225.193 427.345 225.646 427.779 226.094 428.012C226.551 428.236 227.046 428.348 227.578 428.348C227.867 428.348 228.124 428.306 228.348 428.222C228.581 428.138 228.763 428.026 228.894 427.886C229.025 427.737 229.09 427.559 229.09 427.354C229.09 427.205 229.057 427.069 228.992 426.948C228.927 426.817 228.833 426.705 228.712 426.612C228.591 426.509 228.446 426.421 228.278 426.346C228.11 426.262 227.923 426.192 227.718 426.136C227.513 426.071 227.289 426.019 227.046 425.982C226.523 425.861 226.066 425.716 225.674 425.548C225.282 425.371 224.955 425.156 224.694 424.904C224.433 424.643 224.237 424.349 224.106 424.022C223.985 423.695 223.924 423.327 223.924 422.916C223.924 422.496 224.017 422.109 224.204 421.754C224.391 421.39 224.647 421.077 224.974 420.816C225.31 420.555 225.693 420.354 226.122 420.214C226.561 420.074 227.023 420.004 227.508 420.004C228.105 420.004 228.628 420.069 229.076 420.2C229.524 420.331 229.911 420.527 230.238 420.788C230.574 421.04 230.854 421.348 231.078 421.712L229.748 423C229.552 422.739 229.337 422.519 229.104 422.342C228.88 422.165 228.633 422.034 228.362 421.95C228.101 421.857 227.83 421.81 227.55 421.81C227.242 421.81 226.976 421.852 226.752 421.936C226.528 422.011 226.351 422.127 226.22 422.286C226.099 422.435 226.038 422.613 226.038 422.818C226.038 422.986 226.08 423.135 226.164 423.266C226.248 423.397 226.369 423.513 226.528 423.616C226.687 423.709 226.878 423.793 227.102 423.868C227.326 423.943 227.573 424.008 227.844 424.064C228.357 424.167 228.819 424.302 229.23 424.47C229.641 424.638 229.991 424.843 230.28 425.086C230.579 425.319 230.807 425.599 230.966 425.926C231.125 426.243 231.204 426.603 231.204 427.004C231.204 427.667 231.045 428.231 230.728 428.698C230.411 429.165 229.972 429.524 229.412 429.776C228.852 430.019 228.199 430.14 227.452 430.14ZM235.598 430.14C234.982 430.14 234.427 429.972 233.932 429.636C233.437 429.3 233.045 428.843 232.756 428.264C232.467 427.685 232.322 427.023 232.322 426.276C232.322 425.529 232.467 424.867 232.756 424.288C233.055 423.709 233.456 423.257 233.96 422.93C234.464 422.603 235.038 422.44 235.682 422.44C236.046 422.44 236.377 422.496 236.676 422.608C236.984 422.711 237.25 422.855 237.474 423.042C237.707 423.229 237.903 423.443 238.062 423.686C238.221 423.929 238.333 424.19 238.398 424.47L237.978 424.4V422.594H239.952V430H237.95V428.222L238.398 428.18C238.323 428.441 238.202 428.689 238.034 428.922C237.866 429.155 237.656 429.365 237.404 429.552C237.161 429.729 236.886 429.874 236.578 429.986C236.27 430.089 235.943 430.14 235.598 430.14ZM236.144 428.418C236.517 428.418 236.844 428.329 237.124 428.152C237.404 427.975 237.619 427.727 237.768 427.41C237.927 427.083 238.006 426.705 238.006 426.276C238.006 425.856 237.927 425.487 237.768 425.17C237.619 424.853 237.404 424.605 237.124 424.428C236.844 424.241 236.517 424.148 236.144 424.148C235.78 424.148 235.458 424.241 235.178 424.428C234.907 424.605 234.693 424.853 234.534 425.17C234.375 425.487 234.296 425.856 234.296 426.276C234.296 426.705 234.375 427.083 234.534 427.41C234.693 427.727 234.907 427.975 235.178 428.152C235.458 428.329 235.78 428.418 236.144 428.418ZM244.105 430L240.997 422.594H243.181L245.155 428.124L244.693 428.208L246.765 422.594H248.893L245.631 430H244.105ZM253.416 430.14C252.614 430.14 251.909 429.977 251.302 429.65C250.705 429.323 250.238 428.875 249.902 428.306C249.576 427.737 249.412 427.083 249.412 426.346C249.412 425.767 249.506 425.24 249.692 424.764C249.879 424.288 250.14 423.877 250.476 423.532C250.812 423.177 251.209 422.907 251.666 422.72C252.133 422.524 252.637 422.426 253.178 422.426C253.682 422.426 254.149 422.519 254.578 422.706C255.008 422.893 255.376 423.154 255.684 423.49C256.002 423.817 256.244 424.209 256.412 424.666C256.58 425.114 256.655 425.599 256.636 426.122L256.622 426.738H250.672L250.35 425.52H254.984L254.76 425.772V425.464C254.742 425.212 254.658 424.988 254.508 424.792C254.368 424.587 254.186 424.428 253.962 424.316C253.738 424.195 253.486 424.134 253.206 424.134C252.796 424.134 252.446 424.213 252.156 424.372C251.876 424.531 251.662 424.764 251.512 425.072C251.363 425.38 251.288 425.753 251.288 426.192C251.288 426.64 251.382 427.027 251.568 427.354C251.764 427.681 252.035 427.937 252.38 428.124C252.735 428.301 253.15 428.39 253.626 428.39C253.953 428.39 254.252 428.339 254.522 428.236C254.793 428.133 255.082 427.956 255.39 427.704L256.342 429.034C256.072 429.277 255.773 429.482 255.446 429.65C255.12 429.809 254.784 429.93 254.438 430.014C254.093 430.098 253.752 430.14 253.416 430.14Z" fill="white"/>
</g>
<defs>
<filter id="filter0_d_193_1381" x="92.9" y="177.9" width="295.2" height="150.2" filterUnits="userSpaceOnUse" color-interpolation-filters="sRGB">
<feFlood flood-opacity="0" result="BackgroundImageFix"/>
<feColorMatrix in="SourceAlpha" type="matrix" values="0 0 0 0 0 0 0 0 0 0 0 0 0 0 0 0 0 0 127 0" result="hardAlpha"/>
<feMorphology radius="5" operator="dilate" in="SourceAlpha" result="effect1_dropShadow_193_1381"/>
<feOffset dy="4"/>
<feGaussianBlur stdDeviation="5.05"/>
<feComposite in2="hardAlpha" operator="out"/>
<feColorMatrix type="matrix" values="0 0 0 0 0 0 0 0 0 0 0 0 0 0 0 0 0 0 0.06 0"/>
<feBlend mode="normal" in2="BackgroundImageFix" result="effect1_dropShadow_193_1381"/>
<feBlend mode="normal" in="SourceGraphic" in2="effect1_dropShadow_193_1381" result="shape"/>
</filter>
<clipPath id="clip0_193_1381">
<rect width="480" height="540" fill="white"/>
</clipPath>
</defs>
</svg>
