<svg width="480" height="540" viewBox="0 0 480 540" fill="none" xmlns="http://www.w3.org/2000/svg">
<g clip-path="url(#clip0_571_732)">
<path d="M85 76H396C405.389 76 413 83.6112 413 93V447C413 456.389 405.389 464 396 464H85C75.6111 464 68 456.389 68 447V93C68 83.6112 75.6111 76 85 76Z" fill="#F1F5F7"/>
<path d="M84.911 121V106.3H91.421C92.331 106.3 93.157 106.51 93.899 106.93C94.641 107.336 95.222 107.889 95.642 108.589C96.076 109.289 96.293 110.087 96.293 110.983C96.293 111.865 96.076 112.67 95.642 113.398C95.222 114.112 94.641 114.679 93.899 115.099C93.157 115.519 92.331 115.729 91.421 115.729H87.956V121H84.911ZM93.248 121L89.51 114.364L92.744 113.839L96.902 121.021L93.248 121ZM87.956 113.167H91.274C91.652 113.167 91.981 113.083 92.261 112.915C92.555 112.733 92.779 112.488 92.933 112.18C93.087 111.858 93.164 111.501 93.164 111.109C93.164 110.689 93.073 110.325 92.891 110.017C92.709 109.709 92.443 109.471 92.093 109.303C91.743 109.121 91.337 109.03 90.875 109.03H87.956V113.167ZM104.056 121.21C102.852 121.21 101.795 120.965 100.885 120.475C99.9889 119.985 99.2889 119.313 98.7849 118.459C98.2949 117.605 98.0499 116.625 98.0499 115.519C98.0499 114.651 98.1899 113.86 98.4699 113.146C98.7499 112.432 99.1419 111.816 99.6459 111.298C100.15 110.766 100.745 110.36 101.431 110.08C102.131 109.786 102.887 109.639 103.699 109.639C104.455 109.639 105.155 109.779 105.799 110.059C106.443 110.339 106.996 110.731 107.458 111.235C107.934 111.725 108.298 112.313 108.55 112.999C108.802 113.671 108.914 114.399 108.886 115.183L108.865 116.107H99.9399L99.4569 114.28H106.408L106.072 114.658V114.196C106.044 113.818 105.918 113.482 105.694 113.188C105.484 112.88 105.211 112.642 104.875 112.474C104.539 112.292 104.161 112.201 103.741 112.201C103.125 112.201 102.6 112.32 102.166 112.558C101.746 112.796 101.424 113.146 101.2 113.608C100.976 114.07 100.864 114.63 100.864 115.288C100.864 115.96 101.004 116.541 101.284 117.031C101.578 117.521 101.984 117.906 102.502 118.186C103.034 118.452 103.657 118.585 104.371 118.585C104.861 118.585 105.309 118.508 105.715 118.354C106.121 118.2 106.555 117.934 107.017 117.556L108.445 119.551C108.039 119.915 107.591 120.223 107.101 120.475C106.611 120.713 106.107 120.895 105.589 121.021C105.071 121.147 104.56 121.21 104.056 121.21ZM111.069 121V109.891H113.946L114.009 112.012L113.568 112.096C113.722 111.732 113.925 111.403 114.177 111.109C114.443 110.815 114.744 110.563 115.08 110.353C115.416 110.143 115.773 109.982 116.151 109.87C116.529 109.744 116.907 109.681 117.285 109.681C117.859 109.681 118.377 109.772 118.839 109.954C119.301 110.136 119.693 110.423 120.015 110.815C120.337 111.193 120.589 111.697 120.771 112.327L120.309 112.285L120.456 111.949C120.638 111.613 120.869 111.305 121.149 111.025C121.429 110.745 121.744 110.507 122.094 110.311C122.444 110.115 122.808 109.961 123.186 109.849C123.564 109.737 123.935 109.681 124.299 109.681C125.167 109.681 125.888 109.856 126.462 110.206C127.036 110.542 127.463 111.053 127.743 111.739C128.037 112.425 128.184 113.265 128.184 114.259V121H125.202V114.469C125.202 113.965 125.132 113.552 124.992 113.23C124.852 112.908 124.649 112.67 124.383 112.516C124.117 112.348 123.774 112.264 123.354 112.264C123.032 112.264 122.731 112.32 122.451 112.432C122.185 112.53 121.947 112.677 121.737 112.873C121.541 113.055 121.387 113.279 121.275 113.545C121.163 113.797 121.107 114.07 121.107 114.364V121H118.104V114.448C118.104 113.986 118.034 113.594 117.894 113.272C117.754 112.936 117.551 112.684 117.285 112.516C117.019 112.348 116.69 112.264 116.298 112.264C115.976 112.264 115.675 112.32 115.395 112.432C115.129 112.53 114.898 112.677 114.702 112.873C114.506 113.055 114.352 113.272 114.24 113.524C114.128 113.776 114.072 114.049 114.072 114.343V121H111.069ZM131.275 121V109.891H134.257V121H131.275ZM132.745 107.623C132.171 107.623 131.723 107.483 131.401 107.203C131.079 106.909 130.918 106.503 130.918 105.985C130.918 105.509 131.079 105.124 131.401 104.83C131.737 104.522 132.185 104.368 132.745 104.368C133.319 104.368 133.767 104.515 134.089 104.809C134.411 105.089 134.572 105.481 134.572 105.985C134.572 106.461 134.404 106.853 134.068 107.161C133.746 107.469 133.305 107.623 132.745 107.623ZM137.442 121V109.891H140.298L140.382 112.159L139.794 112.411C139.948 111.907 140.221 111.452 140.613 111.046C141.019 110.626 141.502 110.29 142.062 110.038C142.622 109.786 143.21 109.66 143.826 109.66C144.666 109.66 145.366 109.828 145.926 110.164C146.5 110.5 146.927 111.011 147.207 111.697C147.501 112.369 147.648 113.202 147.648 114.196V121H144.666V114.427C144.666 113.923 144.596 113.503 144.456 113.167C144.316 112.831 144.099 112.586 143.805 112.432C143.525 112.278 143.175 112.208 142.755 112.222C142.419 112.222 142.104 112.278 141.81 112.39C141.53 112.488 141.285 112.635 141.075 112.831C140.879 113.027 140.718 113.251 140.592 113.503C140.48 113.755 140.424 114.028 140.424 114.322V121H138.954C138.632 121 138.345 121 138.093 121C137.841 121 137.624 121 137.442 121ZM154.853 121.21C153.873 121.21 152.998 120.965 152.228 120.475C151.472 119.971 150.87 119.292 150.422 118.438C149.988 117.57 149.771 116.569 149.771 115.435C149.771 114.329 149.988 113.342 150.422 112.474C150.87 111.592 151.472 110.906 152.228 110.416C152.998 109.912 153.873 109.66 154.853 109.66C155.371 109.66 155.868 109.744 156.344 109.912C156.834 110.066 157.268 110.283 157.646 110.563C158.038 110.843 158.353 111.158 158.591 111.508C158.829 111.844 158.962 112.194 158.99 112.558L158.234 112.705V105.46H161.237V121H158.402L158.276 118.438L158.864 118.501C158.836 118.851 158.71 119.187 158.486 119.509C158.262 119.831 157.961 120.125 157.583 120.391C157.219 120.643 156.799 120.846 156.323 121C155.861 121.14 155.371 121.21 154.853 121.21ZM155.525 118.732C156.085 118.732 156.575 118.592 156.995 118.312C157.415 118.032 157.744 117.647 157.982 117.157C158.22 116.667 158.339 116.093 158.339 115.435C158.339 114.791 158.22 114.224 157.982 113.734C157.744 113.244 157.415 112.859 156.995 112.579C156.575 112.299 156.085 112.159 155.525 112.159C154.965 112.159 154.475 112.299 154.055 112.579C153.649 112.859 153.327 113.244 153.089 113.734C152.865 114.224 152.753 114.791 152.753 115.435C152.753 116.093 152.865 116.667 153.089 117.157C153.327 117.647 153.649 118.032 154.055 118.312C154.475 118.592 154.965 118.732 155.525 118.732ZM169.394 121.21C168.19 121.21 167.133 120.965 166.223 120.475C165.327 119.985 164.627 119.313 164.123 118.459C163.633 117.605 163.388 116.625 163.388 115.519C163.388 114.651 163.528 113.86 163.808 113.146C164.088 112.432 164.48 111.816 164.984 111.298C165.488 110.766 166.083 110.36 166.769 110.08C167.469 109.786 168.225 109.639 169.037 109.639C169.793 109.639 170.493 109.779 171.137 110.059C171.781 110.339 172.334 110.731 172.796 111.235C173.272 111.725 173.636 112.313 173.888 112.999C174.14 113.671 174.252 114.399 174.224 115.183L174.203 116.107H165.278L164.795 114.28H171.746L171.41 114.658V114.196C171.382 113.818 171.256 113.482 171.032 113.188C170.822 112.88 170.549 112.642 170.213 112.474C169.877 112.292 169.499 112.201 169.079 112.201C168.463 112.201 167.938 112.32 167.504 112.558C167.084 112.796 166.762 113.146 166.538 113.608C166.314 114.07 166.202 114.63 166.202 115.288C166.202 115.96 166.342 116.541 166.622 117.031C166.916 117.521 167.322 117.906 167.84 118.186C168.372 118.452 168.995 118.585 169.709 118.585C170.199 118.585 170.647 118.508 171.053 118.354C171.459 118.2 171.893 117.934 172.355 117.556L173.783 119.551C173.377 119.915 172.929 120.223 172.439 120.475C171.949 120.713 171.445 120.895 170.927 121.021C170.409 121.147 169.898 121.21 169.394 121.21ZM176.428 121V109.891H179.305L179.41 113.461L178.906 112.726C179.074 112.152 179.347 111.634 179.725 111.172C180.103 110.696 180.544 110.325 181.048 110.059C181.566 109.793 182.105 109.66 182.665 109.66C182.903 109.66 183.134 109.681 183.358 109.723C183.582 109.765 183.771 109.814 183.925 109.87L183.127 113.146C182.973 113.062 182.77 112.992 182.518 112.936C182.28 112.866 182.035 112.831 181.783 112.831C181.447 112.831 181.132 112.894 180.838 113.02C180.558 113.132 180.313 113.3 180.103 113.524C179.893 113.734 179.725 113.986 179.599 114.28C179.487 114.574 179.431 114.896 179.431 115.246V121H176.428ZM189.374 121.21C188.338 121.21 187.414 121.042 186.602 120.706C185.804 120.356 185.16 119.88 184.67 119.278L186.539 117.682C186.959 118.144 187.435 118.48 187.967 118.69C188.499 118.886 189.031 118.984 189.563 118.984C189.773 118.984 189.962 118.963 190.13 118.921C190.312 118.865 190.466 118.795 190.592 118.711C190.718 118.613 190.809 118.501 190.865 118.375C190.935 118.235 190.97 118.088 190.97 117.934C190.97 117.626 190.844 117.388 190.592 117.22C190.452 117.136 190.235 117.045 189.941 116.947C189.647 116.835 189.269 116.716 188.807 116.59C188.093 116.408 187.484 116.198 186.98 115.96C186.49 115.708 186.098 115.428 185.804 115.12C185.552 114.826 185.356 114.511 185.216 114.175C185.09 113.825 185.027 113.44 185.027 113.02C185.027 112.516 185.139 112.061 185.363 111.655C185.587 111.235 185.895 110.878 186.287 110.584C186.693 110.29 187.155 110.066 187.673 109.912C188.191 109.744 188.737 109.66 189.311 109.66C189.885 109.66 190.445 109.73 190.991 109.87C191.537 110.01 192.041 110.213 192.503 110.479C192.979 110.731 193.392 111.032 193.742 111.382L192.146 113.146C191.894 112.908 191.607 112.691 191.285 112.495C190.977 112.299 190.655 112.145 190.319 112.033C189.983 111.921 189.682 111.865 189.416 111.865C189.178 111.865 188.961 111.886 188.765 111.928C188.583 111.97 188.429 112.04 188.303 112.138C188.177 112.222 188.079 112.327 188.009 112.453C187.953 112.579 187.925 112.719 187.925 112.873C187.925 113.027 187.96 113.174 188.03 113.314C188.114 113.454 188.226 113.573 188.366 113.671C188.52 113.755 188.744 113.853 189.038 113.965C189.346 114.077 189.759 114.203 190.277 114.343C190.949 114.525 191.516 114.728 191.978 114.952C192.454 115.176 192.832 115.435 193.112 115.729C193.35 115.981 193.525 116.268 193.637 116.59C193.749 116.912 193.805 117.269 193.805 117.661C193.805 118.347 193.609 118.956 193.217 119.488C192.839 120.02 192.314 120.44 191.642 120.748C190.97 121.056 190.214 121.21 189.374 121.21Z" fill="black"/>
<g clip-path="url(#clip1_571_732)">
<path d="M86.9613 184C88.0016 184 88.9469 184.402 89.6559 185.057C89.9352 185.315 89.948 185.75 89.6902 186.028C89.4324 186.306 88.9984 186.323 88.7191 186.065C88.2594 185.636 87.6406 185.375 86.9613 185.375C85.533 185.375 84.375 186.533 84.375 187.961C84.375 188.473 84.5228 188.95 84.778 189.349C84.9821 189.667 84.888 190.093 84.5679 190.299C84.2474 190.501 83.8224 190.406 83.6187 190.088C83.2269 189.474 83 188.744 83 187.961C83 185.774 84.7738 184 86.9613 184ZM98.3441 185.057C99.0531 184.402 99.9984 184 101.038 184C103.225 184 105 185.774 105 187.961C105 188.744 104.772 189.474 104.381 190.088C104.179 190.406 103.715 190.501 103.432 190.299C103.114 190.093 103.019 189.667 103.221 189.349C103.479 188.95 103.625 188.473 103.625 187.961C103.625 186.533 102.465 185.375 101.038 185.375C100.321 185.375 99.7406 185.636 99.2809 186.065C99.0016 186.323 98.5676 186.306 98.3098 186.028C98.052 185.75 98.0648 185.315 98.3441 185.057ZM94.6875 196.718L97.1625 198.574C97.4676 198.802 97.5277 199.232 97.3 199.537C97.0723 199.842 96.6426 199.902 96.3375 199.674L93.5875 197.612C93.4156 197.483 93.2738 197.277 93.2738 197.062V191.562C93.2738 191.184 93.6219 190.875 93.9613 190.875C94.3781 190.875 94.6875 191.184 94.6875 191.562V196.718ZM84.5765 205.797C84.308 205.531 84.308 205.093 84.5765 204.826L86.7254 202.678C85.261 200.989 84.375 198.785 84.375 196.336C84.375 191.059 88.6848 186.711 94 186.711C99.3152 186.711 103.625 191.059 103.625 196.336C103.625 198.785 102.74 200.989 101.275 202.678L103.423 204.826C103.694 205.093 103.694 205.531 103.423 205.797C103.157 206.068 102.718 206.068 102.452 205.797L100.304 203.649C98.6148 205.114 96.4105 205.999 94 205.999C91.5895 205.999 89.3852 205.114 87.6965 203.649L85.5485 205.797C85.2804 206.068 84.8446 206.068 84.5765 205.797ZM93.9613 204.624C98.5547 204.624 102.25 200.929 102.25 196.375C102.25 191.82 98.5547 188.125 93.9613 188.125C89.368 188.125 85.7113 191.781 85.7113 196.375C85.7113 200.968 89.4066 204.624 93.9613 204.624Z" fill="#2D6ECA"/>
</g>
<g clip-path="url(#clip2_571_732)">
<path d="M86.9613 242C88.0016 242 88.9469 242.402 89.6559 243.057C89.9352 243.315 89.948 243.75 89.6902 244.028C89.4324 244.306 88.9984 244.323 88.7191 244.065C88.2594 243.636 87.6406 243.375 86.9613 243.375C85.533 243.375 84.375 244.533 84.375 245.961C84.375 246.473 84.5228 246.95 84.778 247.349C84.9821 247.667 84.888 248.093 84.5679 248.299C84.2474 248.501 83.8224 248.406 83.6187 248.088C83.2269 247.474 83 246.744 83 245.961C83 243.774 84.7738 242 86.9613 242ZM98.3441 243.057C99.0531 242.402 99.9984 242 101.038 242C103.225 242 105 243.774 105 245.961C105 246.744 104.772 247.474 104.381 248.088C104.179 248.406 103.715 248.501 103.432 248.299C103.114 248.093 103.019 247.667 103.221 247.349C103.479 246.95 103.625 246.473 103.625 245.961C103.625 244.533 102.465 243.375 101.038 243.375C100.321 243.375 99.7406 243.636 99.2809 244.065C99.0016 244.323 98.5676 244.306 98.3098 244.028C98.052 243.75 98.0648 243.315 98.3441 243.057ZM94.6875 254.718L97.1625 256.574C97.4676 256.802 97.5277 257.232 97.3 257.537C97.0723 257.842 96.6426 257.902 96.3375 257.674L93.5875 255.612C93.4156 255.483 93.2738 255.277 93.2738 255.062V249.562C93.2738 249.184 93.6219 248.875 93.9613 248.875C94.3781 248.875 94.6875 249.184 94.6875 249.562V254.718ZM84.5765 263.797C84.308 263.531 84.308 263.093 84.5765 262.826L86.7254 260.678C85.261 258.989 84.375 256.785 84.375 254.336C84.375 249.059 88.6848 244.711 94 244.711C99.3152 244.711 103.625 249.059 103.625 254.336C103.625 256.785 102.74 258.989 101.275 260.678L103.423 262.826C103.694 263.093 103.694 263.531 103.423 263.797C103.157 264.068 102.718 264.068 102.452 263.797L100.304 261.649C98.6148 263.114 96.4105 263.999 94 263.999C91.5895 263.999 89.3852 263.114 87.6965 261.649L85.5485 263.797C85.2804 264.068 84.8446 264.068 84.5765 263.797ZM93.9613 262.624C98.5547 262.624 102.25 258.929 102.25 254.375C102.25 249.82 98.5547 246.125 93.9613 246.125C89.368 246.125 85.7113 249.781 85.7113 254.375C85.7113 258.968 89.4066 262.624 93.9613 262.624Z" fill="#2D6ECA"/>
</g>
<g clip-path="url(#clip3_571_732)">
<path d="M86.9613 300C88.0016 300 88.9469 300.402 89.6559 301.057C89.9352 301.315 89.948 301.75 89.6902 302.028C89.4324 302.306 88.9984 302.323 88.7191 302.065C88.2594 301.636 87.6406 301.375 86.9613 301.375C85.533 301.375 84.375 302.533 84.375 303.961C84.375 304.473 84.5228 304.95 84.778 305.349C84.9821 305.667 84.888 306.093 84.5679 306.299C84.2474 306.501 83.8224 306.406 83.6187 306.088C83.2269 305.474 83 304.744 83 303.961C83 301.774 84.7738 300 86.9613 300ZM98.3441 301.057C99.0531 300.402 99.9984 300 101.038 300C103.225 300 105 301.774 105 303.961C105 304.744 104.772 305.474 104.381 306.088C104.179 306.406 103.715 306.501 103.432 306.299C103.114 306.093 103.019 305.667 103.221 305.349C103.479 304.95 103.625 304.473 103.625 303.961C103.625 302.533 102.465 301.375 101.038 301.375C100.321 301.375 99.7406 301.636 99.2809 302.065C99.0016 302.323 98.5676 302.306 98.3098 302.028C98.052 301.75 98.0648 301.315 98.3441 301.057ZM94.6875 312.718L97.1625 314.574C97.4676 314.802 97.5277 315.232 97.3 315.537C97.0723 315.842 96.6426 315.902 96.3375 315.674L93.5875 313.612C93.4156 313.483 93.2738 313.277 93.2738 313.062V307.562C93.2738 307.184 93.6219 306.875 93.9613 306.875C94.3781 306.875 94.6875 307.184 94.6875 307.562V312.718ZM84.5765 321.797C84.308 321.531 84.308 321.093 84.5765 320.826L86.7254 318.678C85.261 316.989 84.375 314.785 84.375 312.336C84.375 307.059 88.6848 302.711 94 302.711C99.3152 302.711 103.625 307.059 103.625 312.336C103.625 314.785 102.74 316.989 101.275 318.678L103.423 320.826C103.694 321.093 103.694 321.531 103.423 321.797C103.157 322.068 102.718 322.068 102.452 321.797L100.304 319.649C98.6148 321.114 96.4105 321.999 94 321.999C91.5895 321.999 89.3852 321.114 87.6965 319.649L85.5485 321.797C85.2804 322.068 84.8446 322.068 84.5765 321.797ZM93.9613 320.624C98.5547 320.624 102.25 316.929 102.25 312.375C102.25 307.82 98.5547 304.125 93.9613 304.125C89.368 304.125 85.7113 307.781 85.7113 312.375C85.7113 316.968 89.4066 320.624 93.9613 320.624Z" fill="#2D6ECA"/>
</g>
<g clip-path="url(#clip4_571_732)">
<path d="M86.9613 358C88.0016 358 88.9469 358.402 89.6559 359.057C89.9352 359.315 89.948 359.75 89.6902 360.028C89.4324 360.306 88.9984 360.323 88.7191 360.065C88.2594 359.636 87.6406 359.375 86.9613 359.375C85.533 359.375 84.375 360.533 84.375 361.961C84.375 362.473 84.5228 362.95 84.778 363.349C84.9821 363.667 84.888 364.093 84.5679 364.299C84.2474 364.501 83.8224 364.406 83.6187 364.088C83.2269 363.474 83 362.744 83 361.961C83 359.774 84.7738 358 86.9613 358ZM98.3441 359.057C99.0531 358.402 99.9984 358 101.038 358C103.225 358 105 359.774 105 361.961C105 362.744 104.772 363.474 104.381 364.088C104.179 364.406 103.715 364.501 103.432 364.299C103.114 364.093 103.019 363.667 103.221 363.349C103.479 362.95 103.625 362.473 103.625 361.961C103.625 360.533 102.465 359.375 101.038 359.375C100.321 359.375 99.7406 359.636 99.2809 360.065C99.0016 360.323 98.5676 360.306 98.3098 360.028C98.052 359.75 98.0648 359.315 98.3441 359.057ZM94.6875 370.718L97.1625 372.574C97.4676 372.802 97.5277 373.232 97.3 373.537C97.0723 373.842 96.6426 373.902 96.3375 373.674L93.5875 371.612C93.4156 371.483 93.2738 371.277 93.2738 371.062V365.562C93.2738 365.184 93.6219 364.875 93.9613 364.875C94.3781 364.875 94.6875 365.184 94.6875 365.562V370.718ZM84.5765 379.797C84.308 379.531 84.308 379.093 84.5765 378.826L86.7254 376.678C85.261 374.989 84.375 372.785 84.375 370.336C84.375 365.059 88.6848 360.711 94 360.711C99.3152 360.711 103.625 365.059 103.625 370.336C103.625 372.785 102.74 374.989 101.275 376.678L103.423 378.826C103.694 379.093 103.694 379.531 103.423 379.797C103.157 380.068 102.718 380.068 102.452 379.797L100.304 377.649C98.6148 379.114 96.4105 379.999 94 379.999C91.5895 379.999 89.3852 379.114 87.6965 377.649L85.5485 379.797C85.2804 380.068 84.8446 380.068 84.5765 379.797ZM93.9613 378.624C98.5547 378.624 102.25 374.929 102.25 370.375C102.25 365.82 98.5547 362.125 93.9613 362.125C89.368 362.125 85.7113 365.781 85.7113 370.375C85.7113 374.968 89.4066 378.624 93.9613 378.624Z" fill="#2D6ECA"/>
</g>
<path d="M123.47 192L121.24 185H122.39L123.74 189.38C123.78 189.487 123.817 189.613 123.85 189.76C123.883 189.9 123.913 190.043 123.94 190.19C123.967 190.337 123.99 190.473 124.01 190.6C124.037 190.727 124.06 190.83 124.08 190.91L123.79 190.9C123.89 190.547 123.967 190.273 124.02 190.08C124.08 189.887 124.127 189.74 124.16 189.64C124.193 189.533 124.223 189.443 124.25 189.37L125.51 186.21H126.48L127.7 189.37C127.767 189.53 127.823 189.69 127.87 189.85C127.923 190.003 127.97 190.16 128.01 190.32C128.05 190.473 128.093 190.637 128.14 190.81L127.88 190.88C127.913 190.7 127.937 190.56 127.95 190.46C127.97 190.353 127.987 190.267 128 190.2C128.013 190.133 128.027 190.07 128.04 190.01C128.053 189.943 128.073 189.86 128.1 189.76C128.133 189.66 128.177 189.523 128.23 189.35L129.56 185H130.72L128.49 192H127.74L125.89 187.62L125.98 187.66L124.2 192H123.47ZM133.787 192.1C133.274 192.1 132.814 191.983 132.407 191.75C132.007 191.51 131.69 191.187 131.457 190.78C131.224 190.367 131.107 189.897 131.107 189.37C131.107 188.843 131.224 188.377 131.457 187.97C131.69 187.557 132.007 187.233 132.407 187C132.814 186.76 133.274 186.64 133.787 186.64C134.294 186.64 134.747 186.76 135.147 187C135.554 187.233 135.874 187.557 136.107 187.97C136.34 188.377 136.457 188.843 136.457 189.37C136.457 189.897 136.34 190.367 136.107 190.78C135.874 191.187 135.554 191.51 135.147 191.75C134.747 191.983 134.294 192.1 133.787 192.1ZM133.787 191.16C134.1 191.16 134.38 191.083 134.627 190.93C134.874 190.77 135.067 190.557 135.207 190.29C135.347 190.017 135.414 189.71 135.407 189.37C135.414 189.023 135.347 188.717 135.207 188.45C135.067 188.177 134.874 187.963 134.627 187.81C134.38 187.657 134.1 187.58 133.787 187.58C133.474 187.58 133.19 187.66 132.937 187.82C132.69 187.973 132.497 188.187 132.357 188.46C132.217 188.727 132.15 189.03 132.157 189.37C132.15 189.71 132.217 190.017 132.357 190.29C132.497 190.557 132.69 190.77 132.937 190.93C133.19 191.083 133.474 191.16 133.787 191.16ZM137.579 192V186.75H138.619V188.4L138.519 188C138.593 187.747 138.716 187.517 138.889 187.31C139.069 187.103 139.273 186.94 139.499 186.82C139.733 186.7 139.973 186.64 140.219 186.64C140.333 186.64 140.439 186.65 140.539 186.67C140.646 186.69 140.729 186.713 140.789 186.74L140.519 187.86C140.439 187.827 140.349 187.8 140.249 187.78C140.156 187.753 140.063 187.74 139.969 187.74C139.789 187.74 139.616 187.777 139.449 187.85C139.289 187.917 139.146 188.013 139.019 188.14C138.899 188.26 138.803 188.403 138.729 188.57C138.656 188.73 138.619 188.907 138.619 189.1V192H137.579ZM142.553 190.36L142.503 189.24L145.013 186.75H146.403L142.553 190.36ZM141.613 192V184.6H142.643V192H141.613ZM145.153 192L143.173 189.69L143.903 189.02L146.473 192H145.153ZM153.289 192.1C152.796 192.1 152.339 192.01 151.919 191.83C151.506 191.65 151.142 191.4 150.829 191.08C150.522 190.753 150.282 190.373 150.109 189.94C149.942 189.5 149.859 189.02 149.859 188.5C149.859 187.98 149.942 187.503 150.109 187.07C150.282 186.63 150.522 186.25 150.829 185.93C151.142 185.603 151.506 185.35 151.919 185.17C152.339 184.99 152.796 184.9 153.289 184.9C153.782 184.9 154.236 184.99 154.649 185.17C155.069 185.35 155.432 185.603 155.739 185.93C156.052 186.257 156.292 186.64 156.459 187.08C156.632 187.513 156.719 187.987 156.719 188.5C156.719 189.013 156.632 189.49 156.459 189.93C156.292 190.363 156.052 190.743 155.739 191.07C155.432 191.397 155.069 191.65 154.649 191.83C154.236 192.01 153.782 192.1 153.289 192.1ZM153.289 191.05C153.629 191.05 153.939 190.987 154.219 190.86C154.506 190.733 154.752 190.557 154.959 190.33C155.166 190.097 155.326 189.827 155.439 189.52C155.559 189.207 155.619 188.867 155.619 188.5C155.619 188.133 155.559 187.797 155.439 187.49C155.326 187.177 155.166 186.907 154.959 186.68C154.752 186.447 154.506 186.267 154.219 186.14C153.939 186.013 153.629 185.95 153.289 185.95C152.949 185.95 152.636 186.013 152.349 186.14C152.069 186.267 151.822 186.443 151.609 186.67C151.402 186.897 151.242 187.167 151.129 187.48C151.016 187.787 150.959 188.127 150.959 188.5C150.959 188.867 151.016 189.207 151.129 189.52C151.242 189.833 151.402 190.103 151.609 190.33C151.822 190.557 152.069 190.733 152.349 190.86C152.636 190.987 152.949 191.05 153.289 191.05ZM157.921 192V186.75H158.961V188.4L158.861 188C158.935 187.747 159.058 187.517 159.231 187.31C159.411 187.103 159.615 186.94 159.841 186.82C160.075 186.7 160.315 186.64 160.561 186.64C160.675 186.64 160.781 186.65 160.881 186.67C160.988 186.69 161.071 186.713 161.131 186.74L160.861 187.86C160.781 187.827 160.691 187.8 160.591 187.78C160.498 187.753 160.405 187.74 160.311 187.74C160.131 187.74 159.958 187.777 159.791 187.85C159.631 187.917 159.488 188.013 159.361 188.14C159.241 188.26 159.145 188.403 159.071 188.57C158.998 188.73 158.961 188.907 158.961 189.1V192H157.921ZM163.92 192.1C163.44 192.1 163.01 191.983 162.63 191.75C162.256 191.51 161.96 191.187 161.74 190.78C161.52 190.367 161.41 189.897 161.41 189.37C161.41 188.843 161.516 188.377 161.73 187.97C161.95 187.557 162.246 187.233 162.62 187C162.993 186.76 163.416 186.64 163.89 186.64C164.15 186.64 164.4 186.683 164.64 186.77C164.886 186.85 165.106 186.963 165.3 187.11C165.493 187.25 165.643 187.407 165.75 187.58C165.863 187.747 165.92 187.917 165.92 188.09L165.62 188.11V184.6H166.65V192H165.62V190.75H165.82C165.82 190.91 165.766 191.07 165.66 191.23C165.553 191.383 165.41 191.527 165.23 191.66C165.056 191.793 164.853 191.9 164.62 191.98C164.393 192.06 164.16 192.1 163.92 192.1ZM164.06 191.21C164.373 191.21 164.65 191.13 164.89 190.97C165.13 190.81 165.316 190.593 165.45 190.32C165.59 190.04 165.66 189.723 165.66 189.37C165.66 189.017 165.59 188.703 165.45 188.43C165.316 188.15 165.13 187.93 164.89 187.77C164.65 187.61 164.373 187.53 164.06 187.53C163.746 187.53 163.47 187.61 163.23 187.77C162.99 187.93 162.8 188.15 162.66 188.43C162.526 188.703 162.46 189.017 162.46 189.37C162.46 189.723 162.526 190.04 162.66 190.32C162.8 190.593 162.99 190.81 163.23 190.97C163.47 191.13 163.746 191.21 164.06 191.21ZM170.518 192.1C169.978 192.1 169.498 191.987 169.078 191.76C168.664 191.527 168.338 191.21 168.098 190.81C167.864 190.41 167.748 189.95 167.748 189.43C167.748 189.017 167.814 188.64 167.948 188.3C168.081 187.96 168.264 187.667 168.498 187.42C168.738 187.167 169.021 186.973 169.348 186.84C169.681 186.7 170.041 186.63 170.428 186.63C170.768 186.63 171.084 186.697 171.378 186.83C171.671 186.957 171.924 187.133 172.138 187.36C172.358 187.587 172.524 187.857 172.638 188.17C172.758 188.477 172.814 188.813 172.808 189.18L172.798 189.62H168.508L168.278 188.8H171.908L171.758 188.97V188.73C171.738 188.51 171.664 188.313 171.538 188.14C171.411 187.967 171.251 187.83 171.058 187.73C170.864 187.63 170.654 187.58 170.428 187.58C170.068 187.58 169.764 187.65 169.518 187.79C169.271 187.923 169.084 188.123 168.958 188.39C168.831 188.65 168.768 188.973 168.768 189.36C168.768 189.727 168.844 190.047 168.998 190.32C169.151 190.587 169.368 190.793 169.648 190.94C169.928 191.087 170.251 191.16 170.618 191.16C170.878 191.16 171.118 191.117 171.338 191.03C171.564 190.943 171.808 190.787 172.068 190.56L172.588 191.29C172.428 191.45 172.231 191.59 171.998 191.71C171.771 191.83 171.528 191.927 171.268 192C171.014 192.067 170.764 192.1 170.518 192.1ZM173.927 192V186.75H174.967V188.4L174.867 188C174.94 187.747 175.064 187.517 175.237 187.31C175.417 187.103 175.62 186.94 175.847 186.82C176.08 186.7 176.32 186.64 176.567 186.64C176.68 186.64 176.787 186.65 176.887 186.67C176.994 186.69 177.077 186.713 177.137 186.74L176.867 187.86C176.787 187.827 176.697 187.8 176.597 187.78C176.504 187.753 176.41 187.74 176.317 187.74C176.137 187.74 175.964 187.777 175.797 187.85C175.637 187.917 175.494 188.013 175.367 188.14C175.247 188.26 175.15 188.403 175.077 188.57C175.004 188.73 174.967 188.907 174.967 189.1V192H173.927Z" fill="black"/>
<path d="M121.98 250V243H124.83C125.21 243 125.553 243.097 125.86 243.29C126.173 243.477 126.423 243.733 126.61 244.06C126.797 244.387 126.89 244.75 126.89 245.15C126.89 245.55 126.797 245.913 126.61 246.24C126.423 246.567 126.173 246.83 125.86 247.03C125.553 247.223 125.21 247.32 124.83 247.32H123.06V250H121.98ZM123.06 246.28H124.81C124.99 246.28 125.153 246.23 125.3 246.13C125.447 246.023 125.563 245.887 125.65 245.72C125.743 245.547 125.79 245.357 125.79 245.15C125.79 244.943 125.743 244.757 125.65 244.59C125.563 244.423 125.447 244.29 125.3 244.19C125.153 244.09 124.99 244.04 124.81 244.04H123.06V246.28ZM128.058 250V244.75H129.098V246.4L128.998 246C129.071 245.747 129.195 245.517 129.368 245.31C129.548 245.103 129.751 244.94 129.978 244.82C130.211 244.7 130.451 244.64 130.698 244.64C130.811 244.64 130.918 244.65 131.018 244.67C131.125 244.69 131.208 244.713 131.268 244.74L130.998 245.86C130.918 245.827 130.828 245.8 130.728 245.78C130.635 245.753 130.541 245.74 130.448 245.74C130.268 245.74 130.095 245.777 129.928 245.85C129.768 245.917 129.625 246.013 129.498 246.14C129.378 246.26 129.281 246.403 129.208 246.57C129.135 246.73 129.098 246.907 129.098 247.1V250H128.058ZM134.226 250.1C133.713 250.1 133.253 249.983 132.846 249.75C132.446 249.51 132.13 249.187 131.896 248.78C131.663 248.367 131.546 247.897 131.546 247.37C131.546 246.843 131.663 246.377 131.896 245.97C132.13 245.557 132.446 245.233 132.846 245C133.253 244.76 133.713 244.64 134.226 244.64C134.733 244.64 135.186 244.76 135.586 245C135.993 245.233 136.313 245.557 136.546 245.97C136.78 246.377 136.896 246.843 136.896 247.37C136.896 247.897 136.78 248.367 136.546 248.78C136.313 249.187 135.993 249.51 135.586 249.75C135.186 249.983 134.733 250.1 134.226 250.1ZM134.226 249.16C134.54 249.16 134.82 249.083 135.066 248.93C135.313 248.77 135.506 248.557 135.646 248.29C135.786 248.017 135.853 247.71 135.846 247.37C135.853 247.023 135.786 246.717 135.646 246.45C135.506 246.177 135.313 245.963 135.066 245.81C134.82 245.657 134.54 245.58 134.226 245.58C133.913 245.58 133.63 245.66 133.376 245.82C133.13 245.973 132.936 246.187 132.796 246.46C132.656 246.727 132.59 247.03 132.596 247.37C132.59 247.71 132.656 248.017 132.796 248.29C132.936 248.557 133.13 248.77 133.376 248.93C133.63 249.083 133.913 249.16 134.226 249.16ZM138.019 252.2V244.75H139.059V245.95L138.899 245.86C138.939 245.66 139.052 245.47 139.239 245.29C139.425 245.103 139.652 244.953 139.919 244.84C140.192 244.72 140.472 244.66 140.759 244.66C141.232 244.66 141.652 244.777 142.019 245.01C142.385 245.243 142.675 245.563 142.889 245.97C143.102 246.377 143.209 246.843 143.209 247.37C143.209 247.89 143.102 248.357 142.889 248.77C142.682 249.177 142.395 249.5 142.029 249.74C141.662 249.973 141.249 250.09 140.789 250.09C140.482 250.09 140.185 250.03 139.899 249.91C139.612 249.783 139.369 249.623 139.169 249.43C138.969 249.237 138.845 249.037 138.799 248.83L139.059 248.69V252.2H138.019ZM140.619 249.14C140.925 249.14 141.199 249.063 141.439 248.91C141.679 248.757 141.869 248.547 142.009 248.28C142.149 248.013 142.219 247.71 142.219 247.37C142.219 247.03 142.149 246.73 142.009 246.47C141.875 246.203 141.689 245.993 141.449 245.84C141.209 245.687 140.932 245.61 140.619 245.61C140.305 245.61 140.029 245.687 139.789 245.84C139.549 245.987 139.359 246.193 139.219 246.46C139.079 246.727 139.009 247.03 139.009 247.37C139.009 247.71 139.079 248.013 139.219 248.28C139.359 248.547 139.549 248.757 139.789 248.91C140.029 249.063 140.305 249.14 140.619 249.14ZM146.777 250.1C146.237 250.1 145.757 249.987 145.337 249.76C144.924 249.527 144.597 249.21 144.357 248.81C144.124 248.41 144.007 247.95 144.007 247.43C144.007 247.017 144.074 246.64 144.207 246.3C144.341 245.96 144.524 245.667 144.757 245.42C144.997 245.167 145.281 244.973 145.607 244.84C145.941 244.7 146.301 244.63 146.687 244.63C147.027 244.63 147.344 244.697 147.637 244.83C147.931 244.957 148.184 245.133 148.397 245.36C148.617 245.587 148.784 245.857 148.897 246.17C149.017 246.477 149.074 246.813 149.067 247.18L149.057 247.62H144.767L144.537 246.8H148.167L148.017 246.97V246.73C147.997 246.51 147.924 246.313 147.797 246.14C147.671 245.967 147.511 245.83 147.317 245.73C147.124 245.63 146.914 245.58 146.687 245.58C146.327 245.58 146.024 245.65 145.777 245.79C145.531 245.923 145.344 246.123 145.217 246.39C145.091 246.65 145.027 246.973 145.027 247.36C145.027 247.727 145.104 248.047 145.257 248.32C145.411 248.587 145.627 248.793 145.907 248.94C146.187 249.087 146.511 249.16 146.877 249.16C147.137 249.16 147.377 249.117 147.597 249.03C147.824 248.943 148.067 248.787 148.327 248.56L148.847 249.29C148.687 249.45 148.491 249.59 148.257 249.71C148.031 249.83 147.787 249.927 147.527 250C147.274 250.067 147.024 250.1 146.777 250.1ZM150.187 250V244.75H151.227V246.4L151.127 246C151.2 245.747 151.323 245.517 151.497 245.31C151.677 245.103 151.88 244.94 152.107 244.82C152.34 244.7 152.58 244.64 152.827 244.64C152.94 244.64 153.047 244.65 153.147 244.67C153.253 244.69 153.337 244.713 153.397 244.74L153.127 245.86C153.047 245.827 152.957 245.8 152.857 245.78C152.763 245.753 152.67 245.74 152.577 245.74C152.397 245.74 152.223 245.777 152.057 245.85C151.897 245.917 151.753 246.013 151.627 246.14C151.507 246.26 151.41 246.403 151.337 246.57C151.263 246.73 151.227 246.907 151.227 247.1V250H150.187ZM155.065 250V243.41H156.095V250H155.065ZM153.975 245.75V244.75H157.315V245.75H153.975ZM159.133 252.3L160.193 249.85L160.203 250.67L157.583 244.75H158.783L160.423 248.61C160.457 248.677 160.497 248.78 160.543 248.92C160.59 249.053 160.63 249.187 160.663 249.32L160.403 249.38C160.457 249.24 160.507 249.1 160.553 248.96C160.607 248.82 160.657 248.68 160.703 248.54L162.073 244.75H163.293L161.133 250L160.243 252.3H159.133ZM166.866 250V249H167.996V244H166.866V243H170.206V244H169.076V249H170.206V250H166.866ZM171.642 250V244.75H172.672V245.83L172.492 245.95C172.559 245.717 172.689 245.503 172.882 245.31C173.075 245.11 173.305 244.95 173.572 244.83C173.839 244.703 174.112 244.64 174.392 244.64C174.792 244.64 175.125 244.72 175.392 244.88C175.659 245.033 175.859 245.27 175.992 245.59C176.125 245.91 176.192 246.313 176.192 246.8V250H175.162V246.87C175.162 246.57 175.122 246.323 175.042 246.13C174.962 245.93 174.839 245.787 174.672 245.7C174.505 245.607 174.299 245.567 174.052 245.58C173.852 245.58 173.669 245.613 173.502 245.68C173.335 245.74 173.189 245.827 173.062 245.94C172.942 246.053 172.845 246.187 172.772 246.34C172.705 246.487 172.672 246.647 172.672 246.82V250H172.162C172.075 250 171.989 250 171.902 250C171.815 250 171.729 250 171.642 250ZM179.339 250.1C178.899 250.1 178.502 250.023 178.149 249.87C177.796 249.717 177.502 249.49 177.269 249.19L177.969 248.59C178.169 248.823 178.386 248.993 178.619 249.1C178.859 249.2 179.129 249.25 179.429 249.25C179.549 249.25 179.659 249.237 179.759 249.21C179.866 249.177 179.956 249.13 180.029 249.07C180.109 249.01 180.169 248.94 180.209 248.86C180.249 248.773 180.269 248.68 180.269 248.58C180.269 248.407 180.206 248.267 180.079 248.16C180.012 248.113 179.906 248.063 179.759 248.01C179.619 247.95 179.436 247.89 179.209 247.83C178.822 247.73 178.506 247.617 178.259 247.49C178.012 247.363 177.822 247.22 177.689 247.06C177.589 246.933 177.516 246.797 177.469 246.65C177.422 246.497 177.399 246.33 177.399 246.15C177.399 245.93 177.446 245.73 177.539 245.55C177.639 245.363 177.772 245.203 177.939 245.07C178.112 244.93 178.312 244.823 178.539 244.75C178.772 244.677 179.019 244.64 179.279 244.64C179.526 244.64 179.769 244.673 180.009 244.74C180.256 244.807 180.482 244.903 180.689 245.03C180.896 245.157 181.069 245.307 181.209 245.48L180.619 246.13C180.492 246.003 180.352 245.893 180.199 245.8C180.052 245.7 179.902 245.623 179.749 245.57C179.596 245.517 179.456 245.49 179.329 245.49C179.189 245.49 179.062 245.503 178.949 245.53C178.836 245.557 178.739 245.597 178.659 245.65C178.586 245.703 178.529 245.77 178.489 245.85C178.449 245.93 178.429 246.02 178.429 246.12C178.436 246.207 178.456 246.29 178.489 246.37C178.529 246.443 178.582 246.507 178.649 246.56C178.722 246.613 178.832 246.67 178.979 246.73C179.126 246.79 179.312 246.847 179.539 246.9C179.872 246.987 180.146 247.083 180.359 247.19C180.579 247.29 180.752 247.407 180.879 247.54C181.012 247.667 181.106 247.813 181.159 247.98C181.212 248.147 181.239 248.333 181.239 248.54C181.239 248.84 181.152 249.11 180.979 249.35C180.812 249.583 180.586 249.767 180.299 249.9C180.012 250.033 179.692 250.1 179.339 250.1ZM182.374 252.2V244.75H183.414V245.95L183.254 245.86C183.294 245.66 183.408 245.47 183.594 245.29C183.781 245.103 184.008 244.953 184.274 244.84C184.548 244.72 184.828 244.66 185.114 244.66C185.588 244.66 186.008 244.777 186.374 245.01C186.741 245.243 187.031 245.563 187.244 245.97C187.458 246.377 187.564 246.843 187.564 247.37C187.564 247.89 187.458 248.357 187.244 248.77C187.038 249.177 186.751 249.5 186.384 249.74C186.018 249.973 185.604 250.09 185.144 250.09C184.838 250.09 184.541 250.03 184.254 249.91C183.968 249.783 183.724 249.623 183.524 249.43C183.324 249.237 183.201 249.037 183.154 248.83L183.414 248.69V252.2H182.374ZM184.974 249.14C185.281 249.14 185.554 249.063 185.794 248.91C186.034 248.757 186.224 248.547 186.364 248.28C186.504 248.013 186.574 247.71 186.574 247.37C186.574 247.03 186.504 246.73 186.364 246.47C186.231 246.203 186.044 245.993 185.804 245.84C185.564 245.687 185.288 245.61 184.974 245.61C184.661 245.61 184.384 245.687 184.144 245.84C183.904 245.987 183.714 246.193 183.574 246.46C183.434 246.727 183.364 247.03 183.364 247.37C183.364 247.71 183.434 248.013 183.574 248.28C183.714 248.547 183.904 248.757 184.144 248.91C184.384 249.063 184.661 249.14 184.974 249.14ZM191.133 250.1C190.593 250.1 190.113 249.987 189.693 249.76C189.28 249.527 188.953 249.21 188.713 248.81C188.48 248.41 188.363 247.95 188.363 247.43C188.363 247.017 188.43 246.64 188.563 246.3C188.696 245.96 188.88 245.667 189.113 245.42C189.353 245.167 189.636 244.973 189.963 244.84C190.296 244.7 190.656 244.63 191.043 244.63C191.383 244.63 191.7 244.697 191.993 244.83C192.286 244.957 192.54 245.133 192.753 245.36C192.973 245.587 193.14 245.857 193.253 246.17C193.373 246.477 193.43 246.813 193.423 247.18L193.413 247.62H189.123L188.893 246.8H192.523L192.373 246.97V246.73C192.353 246.51 192.28 246.313 192.153 246.14C192.026 245.967 191.866 245.83 191.673 245.73C191.48 245.63 191.27 245.58 191.043 245.58C190.683 245.58 190.38 245.65 190.133 245.79C189.886 245.923 189.7 246.123 189.573 246.39C189.446 246.65 189.383 246.973 189.383 247.36C189.383 247.727 189.46 248.047 189.613 248.32C189.766 248.587 189.983 248.793 190.263 248.94C190.543 249.087 190.866 249.16 191.233 249.16C191.493 249.16 191.733 249.117 191.953 249.03C192.18 248.943 192.423 248.787 192.683 248.56L193.203 249.29C193.043 249.45 192.846 249.59 192.613 249.71C192.386 249.83 192.143 249.927 191.883 250C191.63 250.067 191.38 250.1 191.133 250.1ZM196.772 250.1C196.286 250.1 195.849 249.98 195.462 249.74C195.082 249.5 194.779 249.173 194.552 248.76C194.332 248.347 194.222 247.883 194.222 247.37C194.222 246.857 194.332 246.393 194.552 245.98C194.779 245.567 195.082 245.24 195.462 245C195.849 244.76 196.286 244.64 196.772 244.64C197.239 244.64 197.662 244.737 198.042 244.93C198.429 245.117 198.722 245.373 198.922 245.7L198.352 246.4C198.246 246.247 198.109 246.107 197.942 245.98C197.776 245.853 197.599 245.753 197.412 245.68C197.226 245.607 197.046 245.57 196.872 245.57C196.552 245.57 196.266 245.65 196.012 245.81C195.766 245.963 195.569 246.177 195.422 246.45C195.276 246.723 195.202 247.03 195.202 247.37C195.202 247.71 195.279 248.017 195.432 248.29C195.586 248.557 195.789 248.77 196.042 248.93C196.296 249.09 196.576 249.17 196.882 249.17C197.062 249.17 197.236 249.14 197.402 249.08C197.576 249.02 197.742 248.93 197.902 248.81C198.062 248.69 198.212 248.543 198.352 248.37L198.922 249.07C198.709 249.37 198.402 249.617 198.002 249.81C197.609 250.003 197.199 250.1 196.772 250.1ZM200.544 250V243.41H201.574V250H200.544ZM199.454 245.75V244.75H202.794V245.75H199.454ZM203.902 250V244.75H204.932V250H203.902ZM204.402 243.59C204.182 243.59 204.012 243.533 203.892 243.42C203.772 243.307 203.712 243.147 203.712 242.94C203.712 242.747 203.772 242.59 203.892 242.47C204.018 242.35 204.188 242.29 204.402 242.29C204.622 242.29 204.792 242.347 204.912 242.46C205.032 242.573 205.092 242.733 205.092 242.94C205.092 243.133 205.028 243.29 204.902 243.41C204.782 243.53 204.615 243.59 204.402 243.59ZM208.875 250.1C208.362 250.1 207.902 249.983 207.495 249.75C207.095 249.51 206.778 249.187 206.545 248.78C206.312 248.367 206.195 247.897 206.195 247.37C206.195 246.843 206.312 246.377 206.545 245.97C206.778 245.557 207.095 245.233 207.495 245C207.902 244.76 208.362 244.64 208.875 244.64C209.382 244.64 209.835 244.76 210.235 245C210.642 245.233 210.962 245.557 211.195 245.97C211.428 246.377 211.545 246.843 211.545 247.37C211.545 247.897 211.428 248.367 211.195 248.78C210.962 249.187 210.642 249.51 210.235 249.75C209.835 249.983 209.382 250.1 208.875 250.1ZM208.875 249.16C209.188 249.16 209.468 249.083 209.715 248.93C209.962 248.77 210.155 248.557 210.295 248.29C210.435 248.017 210.502 247.71 210.495 247.37C210.502 247.023 210.435 246.717 210.295 246.45C210.155 246.177 209.962 245.963 209.715 245.81C209.468 245.657 209.188 245.58 208.875 245.58C208.562 245.58 208.278 245.66 208.025 245.82C207.778 245.973 207.585 246.187 207.445 246.46C207.305 246.727 207.238 247.03 207.245 247.37C207.238 247.71 207.305 248.017 207.445 248.29C207.585 248.557 207.778 248.77 208.025 248.93C208.278 249.083 208.562 249.16 208.875 249.16ZM212.667 250V244.75H213.697V245.83L213.517 245.95C213.584 245.717 213.714 245.503 213.907 245.31C214.101 245.11 214.331 244.95 214.597 244.83C214.864 244.703 215.137 244.64 215.417 244.64C215.817 244.64 216.151 244.72 216.417 244.88C216.684 245.033 216.884 245.27 217.017 245.59C217.151 245.91 217.217 246.313 217.217 246.8V250H216.187V246.87C216.187 246.57 216.147 246.323 216.067 246.13C215.987 245.93 215.864 245.787 215.697 245.7C215.531 245.607 215.324 245.567 215.077 245.58C214.877 245.58 214.694 245.613 214.527 245.68C214.361 245.74 214.214 245.827 214.087 245.94C213.967 246.053 213.871 246.187 213.797 246.34C213.731 246.487 213.697 246.647 213.697 246.82V250H213.187C213.101 250 213.014 250 212.927 250C212.841 250 212.754 250 212.667 250Z" fill="black"/>
<path d="M121.98 308V301H123.04L125.59 305.15L125.08 305.14L127.66 301H128.66V308H127.58V305.13C127.58 304.53 127.593 303.99 127.62 303.51C127.653 303.03 127.707 302.553 127.78 302.08L127.92 302.45L125.63 305.99H124.97L122.75 302.49L122.86 302.08C122.933 302.527 122.983 302.987 123.01 303.46C123.043 303.927 123.06 304.483 123.06 305.13V308H121.98ZM132.813 308.1C132.273 308.1 131.793 307.987 131.373 307.76C130.959 307.527 130.633 307.21 130.393 306.81C130.159 306.41 130.043 305.95 130.043 305.43C130.043 305.017 130.109 304.64 130.243 304.3C130.376 303.96 130.559 303.667 130.793 303.42C131.033 303.167 131.316 302.973 131.643 302.84C131.976 302.7 132.336 302.63 132.723 302.63C133.063 302.63 133.379 302.697 133.673 302.83C133.966 302.957 134.219 303.133 134.433 303.36C134.653 303.587 134.819 303.857 134.933 304.17C135.053 304.477 135.109 304.813 135.103 305.18L135.093 305.62H130.803L130.573 304.8H134.203L134.053 304.97V304.73C134.033 304.51 133.959 304.313 133.833 304.14C133.706 303.967 133.546 303.83 133.353 303.73C133.159 303.63 132.949 303.58 132.723 303.58C132.363 303.58 132.059 303.65 131.813 303.79C131.566 303.923 131.379 304.123 131.253 304.39C131.126 304.65 131.063 304.973 131.063 305.36C131.063 305.727 131.139 306.047 131.293 306.32C131.446 306.587 131.663 306.793 131.943 306.94C132.223 307.087 132.546 307.16 132.913 307.16C133.173 307.16 133.413 307.117 133.633 307.03C133.859 306.943 134.103 306.787 134.363 306.56L134.883 307.29C134.723 307.45 134.526 307.59 134.293 307.71C134.066 307.83 133.823 307.927 133.563 308C133.309 308.067 133.059 308.1 132.813 308.1ZM138.672 308.1C138.132 308.1 137.652 307.987 137.232 307.76C136.819 307.527 136.492 307.21 136.252 306.81C136.019 306.41 135.902 305.95 135.902 305.43C135.902 305.017 135.969 304.64 136.102 304.3C136.235 303.96 136.419 303.667 136.652 303.42C136.892 303.167 137.175 302.973 137.502 302.84C137.835 302.7 138.195 302.63 138.582 302.63C138.922 302.63 139.239 302.697 139.532 302.83C139.825 302.957 140.079 303.133 140.292 303.36C140.512 303.587 140.679 303.857 140.792 304.17C140.912 304.477 140.969 304.813 140.962 305.18L140.952 305.62H136.662L136.432 304.8H140.062L139.912 304.97V304.73C139.892 304.51 139.819 304.313 139.692 304.14C139.565 303.967 139.405 303.83 139.212 303.73C139.019 303.63 138.809 303.58 138.582 303.58C138.222 303.58 137.919 303.65 137.672 303.79C137.425 303.923 137.239 304.123 137.112 304.39C136.985 304.65 136.922 304.973 136.922 305.36C136.922 305.727 136.999 306.047 137.152 306.32C137.305 306.587 137.522 306.793 137.802 306.94C138.082 307.087 138.405 307.16 138.772 307.16C139.032 307.16 139.272 307.117 139.492 307.03C139.719 306.943 139.962 306.787 140.222 306.56L140.742 307.29C140.582 307.45 140.385 307.59 140.152 307.71C139.925 307.83 139.682 307.927 139.422 308C139.169 308.067 138.919 308.1 138.672 308.1ZM142.731 308V301.41H143.761V308H142.731ZM141.641 303.75V302.75H144.981V303.75H141.641ZM146.089 308V302.75H147.119V308H146.089ZM146.589 301.59C146.369 301.59 146.199 301.533 146.079 301.42C145.959 301.307 145.899 301.147 145.899 300.94C145.899 300.747 145.959 300.59 146.079 300.47C146.206 300.35 146.376 300.29 146.589 300.29C146.809 300.29 146.979 300.347 147.099 300.46C147.219 300.573 147.279 300.733 147.279 300.94C147.279 301.133 147.216 301.29 147.089 301.41C146.969 301.53 146.803 301.59 146.589 301.59ZM148.702 308V302.75H149.732V303.83L149.552 303.95C149.619 303.717 149.749 303.503 149.942 303.31C150.136 303.11 150.366 302.95 150.632 302.83C150.899 302.703 151.172 302.64 151.452 302.64C151.852 302.64 152.186 302.72 152.452 302.88C152.719 303.033 152.919 303.27 153.052 303.59C153.186 303.91 153.252 304.313 153.252 304.8V308H152.222V304.87C152.222 304.57 152.182 304.323 152.102 304.13C152.022 303.93 151.899 303.787 151.732 303.7C151.566 303.607 151.359 303.567 151.112 303.58C150.912 303.58 150.729 303.613 150.562 303.68C150.396 303.74 150.249 303.827 150.122 303.94C150.002 304.053 149.906 304.187 149.832 304.34C149.766 304.487 149.732 304.647 149.732 304.82V308H149.222C149.136 308 149.049 308 148.962 308C148.876 308 148.789 308 148.702 308ZM157 310.3C156.626 310.3 156.253 310.24 155.88 310.12C155.513 310.007 155.216 309.857 154.99 309.67L155.37 308.87C155.503 308.97 155.66 309.057 155.84 309.13C156.02 309.21 156.21 309.27 156.41 309.31C156.61 309.357 156.806 309.38 157 309.38C157.366 309.38 157.673 309.32 157.92 309.2C158.166 309.08 158.353 308.903 158.48 308.67C158.606 308.437 158.67 308.147 158.67 307.8V306.79L158.78 306.86C158.746 307.067 158.636 307.267 158.45 307.46C158.27 307.647 158.043 307.8 157.77 307.92C157.496 308.04 157.216 308.1 156.93 308.1C156.43 308.1 155.983 307.983 155.59 307.75C155.203 307.51 154.896 307.187 154.67 306.78C154.443 306.367 154.33 305.897 154.33 305.37C154.33 304.843 154.44 304.377 154.66 303.97C154.886 303.557 155.193 303.233 155.58 303C155.973 302.76 156.413 302.64 156.9 302.64C157.1 302.64 157.293 302.667 157.48 302.72C157.666 302.767 157.84 302.837 158 302.93C158.16 303.017 158.303 303.113 158.43 303.22C158.556 303.327 158.66 303.44 158.74 303.56C158.82 303.68 158.87 303.793 158.89 303.9L158.67 303.98V302.75H159.7V307.68C159.7 308.1 159.636 308.47 159.51 308.79C159.39 309.117 159.213 309.39 158.98 309.61C158.746 309.837 158.463 310.007 158.13 310.12C157.796 310.24 157.42 310.3 157 310.3ZM157.04 307.15C157.366 307.15 157.656 307.073 157.91 306.92C158.163 306.767 158.36 306.557 158.5 306.29C158.64 306.023 158.71 305.717 158.71 305.37C158.71 305.023 158.636 304.717 158.49 304.45C158.35 304.177 158.153 303.963 157.9 303.81C157.653 303.657 157.366 303.58 157.04 303.58C156.72 303.58 156.433 303.66 156.18 303.82C155.933 303.973 155.736 304.187 155.59 304.46C155.45 304.727 155.38 305.03 155.38 305.37C155.38 305.71 155.45 306.017 155.59 306.29C155.736 306.557 155.933 306.767 156.18 306.92C156.433 307.073 156.72 307.15 157.04 307.15Z" fill="black"/>
<path d="M123.31 366V360.04H121.35V359H126.41V360.04H124.39V366H123.31ZM128.936 366.1C128.396 366.1 127.916 365.987 127.496 365.76C127.082 365.527 126.756 365.21 126.516 364.81C126.282 364.41 126.166 363.95 126.166 363.43C126.166 363.017 126.232 362.64 126.366 362.3C126.499 361.96 126.682 361.667 126.916 361.42C127.156 361.167 127.439 360.973 127.766 360.84C128.099 360.7 128.459 360.63 128.846 360.63C129.186 360.63 129.502 360.697 129.796 360.83C130.089 360.957 130.342 361.133 130.556 361.36C130.776 361.587 130.942 361.857 131.056 362.17C131.176 362.477 131.232 362.813 131.226 363.18L131.216 363.62H126.926L126.696 362.8H130.326L130.176 362.97V362.73C130.156 362.51 130.082 362.313 129.956 362.14C129.829 361.967 129.669 361.83 129.476 361.73C129.282 361.63 129.072 361.58 128.846 361.58C128.486 361.58 128.182 361.65 127.936 361.79C127.689 361.923 127.502 362.123 127.376 362.39C127.249 362.65 127.186 362.973 127.186 363.36C127.186 363.727 127.262 364.047 127.416 364.32C127.569 364.587 127.786 364.793 128.066 364.94C128.346 365.087 128.669 365.16 129.036 365.16C129.296 365.16 129.536 365.117 129.756 365.03C129.982 364.943 130.226 364.787 130.486 364.56L131.006 365.29C130.846 365.45 130.649 365.59 130.416 365.71C130.189 365.83 129.946 365.927 129.686 366C129.432 366.067 129.182 366.1 128.936 366.1ZM132.345 366V360.75H133.375V361.83L133.195 361.95C133.262 361.717 133.392 361.503 133.585 361.31C133.778 361.11 134.008 360.95 134.275 360.83C134.542 360.703 134.815 360.64 135.095 360.64C135.495 360.64 135.828 360.72 136.095 360.88C136.362 361.033 136.562 361.27 136.695 361.59C136.828 361.91 136.895 362.313 136.895 362.8V366H135.865V362.87C135.865 362.57 135.825 362.323 135.745 362.13C135.665 361.93 135.542 361.787 135.375 361.7C135.208 361.607 135.002 361.567 134.755 361.58C134.555 361.58 134.372 361.613 134.205 361.68C134.038 361.74 133.892 361.827 133.765 361.94C133.645 362.053 133.548 362.187 133.475 362.34C133.408 362.487 133.375 362.647 133.375 362.82V366H132.865C132.778 366 132.692 366 132.605 366C132.518 366 132.432 366 132.345 366ZM140.312 366.1C139.879 366.1 139.482 365.98 139.122 365.74C138.769 365.5 138.486 365.173 138.272 364.76C138.059 364.347 137.952 363.88 137.952 363.36C137.952 362.833 138.059 362.367 138.272 361.96C138.492 361.547 138.786 361.223 139.152 360.99C139.526 360.757 139.942 360.64 140.402 360.64C140.676 360.64 140.926 360.68 141.152 360.76C141.379 360.84 141.576 360.953 141.742 361.1C141.916 361.24 142.056 361.403 142.162 361.59C142.276 361.777 142.346 361.977 142.372 362.19L142.142 362.11V360.75H143.182V366H142.142V364.75L142.382 364.68C142.342 364.86 142.259 365.037 142.132 365.21C142.012 365.377 141.856 365.527 141.662 365.66C141.476 365.793 141.266 365.9 141.032 365.98C140.806 366.06 140.566 366.1 140.312 366.1ZM140.582 365.15C140.896 365.15 141.172 365.073 141.412 364.92C141.652 364.767 141.839 364.557 141.972 364.29C142.112 364.017 142.182 363.707 142.182 363.36C142.182 363.02 142.112 362.717 141.972 362.45C141.839 362.183 141.652 361.973 141.412 361.82C141.172 361.667 140.896 361.59 140.582 361.59C140.276 361.59 140.002 361.667 139.762 361.82C139.529 361.973 139.342 362.183 139.202 362.45C139.069 362.717 139.002 363.02 139.002 363.36C139.002 363.707 139.069 364.017 139.202 364.29C139.342 364.557 139.529 364.767 139.762 364.92C140.002 365.073 140.276 365.15 140.582 365.15ZM144.62 366V360.75H145.65V361.83L145.47 361.95C145.537 361.717 145.667 361.503 145.86 361.31C146.054 361.11 146.284 360.95 146.55 360.83C146.817 360.703 147.09 360.64 147.37 360.64C147.77 360.64 148.104 360.72 148.37 360.88C148.637 361.033 148.837 361.27 148.97 361.59C149.104 361.91 149.17 362.313 149.17 362.8V366H148.14V362.87C148.14 362.57 148.1 362.323 148.02 362.13C147.94 361.93 147.817 361.787 147.65 361.7C147.484 361.607 147.277 361.567 147.03 361.58C146.83 361.58 146.647 361.613 146.48 361.68C146.314 361.74 146.167 361.827 146.04 361.94C145.92 362.053 145.824 362.187 145.75 362.34C145.684 362.487 145.65 362.647 145.65 362.82V366H145.14C145.054 366 144.967 366 144.88 366C144.794 366 144.707 366 144.62 366ZM151.218 366V359.41H152.248V366H151.218ZM150.128 361.75V360.75H153.468V361.75H150.128ZM159.528 366L156.728 359H157.958L159.628 363.25C159.708 363.457 159.778 363.643 159.838 363.81C159.905 363.977 159.962 364.13 160.008 364.27C160.055 364.403 160.098 364.53 160.138 364.65C160.178 364.77 160.218 364.89 160.258 365.01L159.998 365.02C160.045 364.86 160.095 364.693 160.148 364.52C160.202 364.347 160.262 364.157 160.328 363.95C160.402 363.743 160.488 363.51 160.588 363.25L162.138 359H163.398L160.578 366H159.528ZM164.527 366V360.75H165.557V366H164.527ZM165.027 359.59C164.807 359.59 164.637 359.533 164.517 359.42C164.397 359.307 164.337 359.147 164.337 358.94C164.337 358.747 164.397 358.59 164.517 358.47C164.643 358.35 164.813 358.29 165.027 358.29C165.247 358.29 165.417 358.347 165.537 358.46C165.657 358.573 165.717 358.733 165.717 358.94C165.717 359.133 165.653 359.29 165.527 359.41C165.407 359.53 165.24 359.59 165.027 359.59ZM168.89 366.1C168.45 366.1 168.053 366.023 167.7 365.87C167.347 365.717 167.053 365.49 166.82 365.19L167.52 364.59C167.72 364.823 167.937 364.993 168.17 365.1C168.41 365.2 168.68 365.25 168.98 365.25C169.1 365.25 169.21 365.237 169.31 365.21C169.417 365.177 169.507 365.13 169.58 365.07C169.66 365.01 169.72 364.94 169.76 364.86C169.8 364.773 169.82 364.68 169.82 364.58C169.82 364.407 169.757 364.267 169.63 364.16C169.563 364.113 169.457 364.063 169.31 364.01C169.17 363.95 168.987 363.89 168.76 363.83C168.373 363.73 168.057 363.617 167.81 363.49C167.563 363.363 167.373 363.22 167.24 363.06C167.14 362.933 167.067 362.797 167.02 362.65C166.973 362.497 166.95 362.33 166.95 362.15C166.95 361.93 166.997 361.73 167.09 361.55C167.19 361.363 167.323 361.203 167.49 361.07C167.663 360.93 167.863 360.823 168.09 360.75C168.323 360.677 168.57 360.64 168.83 360.64C169.077 360.64 169.32 360.673 169.56 360.74C169.807 360.807 170.033 360.903 170.24 361.03C170.447 361.157 170.62 361.307 170.76 361.48L170.17 362.13C170.043 362.003 169.903 361.893 169.75 361.8C169.603 361.7 169.453 361.623 169.3 361.57C169.147 361.517 169.007 361.49 168.88 361.49C168.74 361.49 168.613 361.503 168.5 361.53C168.387 361.557 168.29 361.597 168.21 361.65C168.137 361.703 168.08 361.77 168.04 361.85C168 361.93 167.98 362.02 167.98 362.12C167.987 362.207 168.007 362.29 168.04 362.37C168.08 362.443 168.133 362.507 168.2 362.56C168.273 362.613 168.383 362.67 168.53 362.73C168.677 362.79 168.863 362.847 169.09 362.9C169.423 362.987 169.697 363.083 169.91 363.19C170.13 363.29 170.303 363.407 170.43 363.54C170.563 363.667 170.657 363.813 170.71 363.98C170.763 364.147 170.79 364.333 170.79 364.54C170.79 364.84 170.703 365.11 170.53 365.35C170.363 365.583 170.137 365.767 169.85 365.9C169.563 366.033 169.243 366.1 168.89 366.1ZM172.095 366V360.75H173.125V366H172.095ZM172.595 359.59C172.375 359.59 172.205 359.533 172.085 359.42C171.965 359.307 171.905 359.147 171.905 358.94C171.905 358.747 171.965 358.59 172.085 358.47C172.212 358.35 172.382 358.29 172.595 358.29C172.815 358.29 172.985 358.347 173.105 358.46C173.225 358.573 173.285 358.733 173.285 358.94C173.285 359.133 173.222 359.29 173.095 359.41C172.975 359.53 172.808 359.59 172.595 359.59ZM175.358 366V359.41H176.388V366H175.358ZM174.268 361.75V360.75H177.608V361.75H174.268Z" fill="black"/>
<path d="M86.465 425V416.06H83.525V414.5H91.115V416.06H88.085V425H86.465ZM94.7684 425.15C93.9984 425.15 93.3084 424.975 92.6984 424.625C92.0984 424.265 91.6234 423.78 91.2734 423.17C90.9234 422.55 90.7484 421.845 90.7484 421.055C90.7484 420.265 90.9234 419.565 91.2734 418.955C91.6234 418.335 92.0984 417.85 92.6984 417.5C93.3084 417.14 93.9984 416.96 94.7684 416.96C95.5284 416.96 96.2084 417.14 96.8084 417.5C97.4184 417.85 97.8984 418.335 98.2484 418.955C98.5984 419.565 98.7734 420.265 98.7734 421.055C98.7734 421.845 98.5984 422.55 98.2484 423.17C97.8984 423.78 97.4184 424.265 96.8084 424.625C96.2084 424.975 95.5284 425.15 94.7684 425.15ZM94.7684 423.74C95.2384 423.74 95.6584 423.625 96.0284 423.395C96.3984 423.155 96.6884 422.835 96.8984 422.435C97.1084 422.025 97.2084 421.565 97.1984 421.055C97.2084 420.535 97.1084 420.075 96.8984 419.675C96.6884 419.265 96.3984 418.945 96.0284 418.715C95.6584 418.485 95.2384 418.37 94.7684 418.37C94.2984 418.37 93.8734 418.49 93.4934 418.73C93.1234 418.96 92.8334 419.28 92.6234 419.69C92.4134 420.09 92.3134 420.545 92.3234 421.055C92.3134 421.565 92.4134 422.025 92.6234 422.435C92.8334 422.835 93.1234 423.155 93.4934 423.395C93.8734 423.625 94.2984 423.74 94.7684 423.74ZM101.432 425V415.115H102.977V425H101.432ZM99.797 418.625V417.125H104.807V418.625H99.797ZM109.171 425.15C108.521 425.15 107.926 424.97 107.386 424.61C106.856 424.25 106.431 423.76 106.111 423.14C105.791 422.52 105.631 421.82 105.631 421.04C105.631 420.25 105.791 419.55 106.111 418.94C106.441 418.32 106.881 417.835 107.431 417.485C107.991 417.135 108.616 416.96 109.306 416.96C109.716 416.96 110.091 417.02 110.431 417.14C110.771 417.26 111.066 417.43 111.316 417.65C111.576 417.86 111.786 418.105 111.946 418.385C112.116 418.665 112.221 418.965 112.261 419.285L111.916 419.165V417.125H113.476V425H111.916V423.125L112.276 423.02C112.216 423.29 112.091 423.555 111.901 423.815C111.721 424.065 111.486 424.29 111.196 424.49C110.916 424.69 110.601 424.85 110.251 424.97C109.911 425.09 109.551 425.15 109.171 425.15ZM109.576 423.725C110.046 423.725 110.461 423.61 110.821 423.38C111.181 423.15 111.461 422.835 111.661 422.435C111.871 422.025 111.976 421.56 111.976 421.04C111.976 420.53 111.871 420.075 111.661 419.675C111.461 419.275 111.181 418.96 110.821 418.73C110.461 418.5 110.046 418.385 109.576 418.385C109.116 418.385 108.706 418.5 108.346 418.73C107.996 418.96 107.716 419.275 107.506 419.675C107.306 420.075 107.206 420.53 107.206 421.04C107.206 421.56 107.306 422.025 107.506 422.435C107.716 422.835 107.996 423.15 108.346 423.38C108.706 423.61 109.116 423.725 109.576 423.725ZM115.663 425V413.9H117.208V425H115.663ZM123.991 425V414.5H128.461C129.061 414.5 129.611 414.65 130.111 414.95C130.621 415.24 131.026 415.64 131.326 416.15C131.626 416.65 131.776 417.215 131.776 417.845C131.776 418.415 131.626 418.945 131.326 419.435C131.026 419.925 130.626 420.32 130.126 420.62C129.626 420.91 129.071 421.055 128.461 421.055H125.611V425H123.991ZM130.231 425L127.561 420.26L129.226 419.885L132.196 425.015L130.231 425ZM125.611 419.495H128.611C128.901 419.495 129.161 419.425 129.391 419.285C129.621 419.135 129.801 418.935 129.931 418.685C130.061 418.425 130.126 418.14 130.126 417.83C130.126 417.48 130.041 417.175 129.871 416.915C129.711 416.645 129.481 416.435 129.181 416.285C128.891 416.135 128.561 416.06 128.191 416.06H125.611V419.495ZM137.413 425.15C136.603 425.15 135.883 424.98 135.253 424.64C134.633 424.29 134.143 423.815 133.783 423.215C133.433 422.615 133.258 421.925 133.258 421.145C133.258 420.525 133.358 419.96 133.558 419.45C133.758 418.94 134.033 418.5 134.383 418.13C134.743 417.75 135.168 417.46 135.658 417.26C136.158 417.05 136.698 416.945 137.278 416.945C137.788 416.945 138.263 417.045 138.703 417.245C139.143 417.435 139.523 417.7 139.843 418.04C140.173 418.38 140.423 418.785 140.593 419.255C140.773 419.715 140.858 420.22 140.848 420.77L140.833 421.43H134.398L134.053 420.2H139.498L139.273 420.455V420.095C139.243 419.765 139.133 419.47 138.943 419.21C138.753 418.95 138.513 418.745 138.223 418.595C137.933 418.445 137.618 418.37 137.278 418.37C136.738 418.37 136.283 418.475 135.913 418.685C135.543 418.885 135.263 419.185 135.073 419.585C134.883 419.975 134.788 420.46 134.788 421.04C134.788 421.59 134.903 422.07 135.133 422.48C135.363 422.88 135.688 423.19 136.108 423.41C136.528 423.63 137.013 423.74 137.563 423.74C137.953 423.74 138.313 423.675 138.643 423.545C138.983 423.415 139.348 423.18 139.738 422.84L140.518 423.935C140.278 424.175 139.983 424.385 139.633 424.565C139.293 424.745 138.928 424.89 138.538 425C138.158 425.1 137.783 425.15 137.413 425.15ZM142.497 425V417.125H144.057V418.805L143.772 418.985C143.852 418.725 143.977 418.475 144.147 418.235C144.327 417.995 144.542 417.785 144.792 417.605C145.052 417.415 145.327 417.265 145.617 417.155C145.917 417.045 146.222 416.99 146.532 416.99C146.982 416.99 147.377 417.065 147.717 417.215C148.057 417.365 148.337 417.59 148.557 417.89C148.777 418.19 148.937 418.565 149.037 419.015L148.797 418.955L148.902 418.7C149.012 418.47 149.162 418.255 149.352 418.055C149.552 417.845 149.777 417.66 150.027 417.5C150.277 417.34 150.542 417.215 150.822 417.125C151.102 417.035 151.377 416.99 151.647 416.99C152.237 416.99 152.722 417.11 153.102 417.35C153.492 417.59 153.782 417.955 153.972 418.445C154.172 418.935 154.272 419.545 154.272 420.275V425H152.712V420.365C152.712 419.915 152.652 419.55 152.532 419.27C152.422 418.98 152.252 418.765 152.022 418.625C151.792 418.485 151.497 418.415 151.137 418.415C150.857 418.415 150.592 418.465 150.342 418.565C150.102 418.655 149.892 418.785 149.712 418.955C149.532 419.125 149.392 419.325 149.292 419.555C149.192 419.775 149.142 420.02 149.142 420.29V425H147.582V420.335C147.582 419.925 147.522 419.58 147.402 419.3C147.282 419.01 147.107 418.79 146.877 418.64C146.647 418.49 146.367 418.415 146.037 418.415C145.757 418.415 145.497 418.465 145.257 418.565C145.017 418.655 144.807 418.785 144.627 418.955C144.447 419.115 144.307 419.31 144.207 419.54C144.107 419.76 144.057 420 144.057 420.26V425H142.497ZM156.596 425V417.125H158.141V425H156.596ZM157.346 415.385C157.016 415.385 156.761 415.3 156.581 415.13C156.401 414.96 156.311 414.72 156.311 414.41C156.311 414.12 156.401 413.885 156.581 413.705C156.771 413.525 157.026 413.435 157.346 413.435C157.676 413.435 157.931 413.52 158.111 413.69C158.291 413.86 158.381 414.1 158.381 414.41C158.381 414.7 158.286 414.935 158.096 415.115C157.916 415.295 157.666 415.385 157.346 415.385ZM160.516 425V417.125H162.061V418.745L161.791 418.925C161.891 418.575 162.086 418.255 162.376 417.965C162.666 417.665 163.011 417.425 163.411 417.245C163.811 417.055 164.221 416.96 164.641 416.96C165.241 416.96 165.741 417.08 166.141 417.32C166.541 417.55 166.841 417.905 167.041 418.385C167.241 418.865 167.341 419.47 167.341 420.2V425H165.796V420.305C165.796 419.855 165.736 419.485 165.616 419.195C165.496 418.895 165.311 418.68 165.061 418.55C164.811 418.41 164.501 418.35 164.131 418.37C163.831 418.37 163.556 418.42 163.306 418.52C163.056 418.61 162.836 418.74 162.646 418.91C162.466 419.08 162.321 419.28 162.211 419.51C162.111 419.73 162.061 419.97 162.061 420.23V425H161.296C161.166 425 161.036 425 160.906 425C160.776 425 160.646 425 160.516 425ZM172.721 425.15C172.001 425.15 171.356 424.975 170.786 424.625C170.226 424.265 169.781 423.78 169.451 423.17C169.121 422.55 168.956 421.845 168.956 421.055C168.956 420.265 169.116 419.565 169.436 418.955C169.766 418.335 170.211 417.85 170.771 417.5C171.331 417.14 171.966 416.96 172.676 416.96C173.066 416.96 173.441 417.025 173.801 417.155C174.171 417.275 174.501 417.445 174.791 417.665C175.081 417.875 175.306 418.11 175.466 418.37C175.636 418.62 175.721 418.875 175.721 419.135L175.271 419.165V413.9H176.816V425H175.271V423.125H175.571C175.571 423.365 175.491 423.605 175.331 423.845C175.171 424.075 174.956 424.29 174.686 424.49C174.426 424.69 174.121 424.85 173.771 424.97C173.431 425.09 173.081 425.15 172.721 425.15ZM172.931 423.815C173.401 423.815 173.816 423.695 174.176 423.455C174.536 423.215 174.816 422.89 175.016 422.48C175.226 422.06 175.331 421.585 175.331 421.055C175.331 420.525 175.226 420.055 175.016 419.645C174.816 419.225 174.536 418.895 174.176 418.655C173.816 418.415 173.401 418.295 172.931 418.295C172.461 418.295 172.046 418.415 171.686 418.655C171.326 418.895 171.041 419.225 170.831 419.645C170.631 420.055 170.531 420.525 170.531 421.055C170.531 421.585 170.631 422.06 170.831 422.48C171.041 422.89 171.326 423.215 171.686 423.455C172.046 423.695 172.461 423.815 172.931 423.815ZM182.618 425.15C181.808 425.15 181.088 424.98 180.458 424.64C179.838 424.29 179.348 423.815 178.988 423.215C178.638 422.615 178.463 421.925 178.463 421.145C178.463 420.525 178.563 419.96 178.763 419.45C178.963 418.94 179.238 418.5 179.588 418.13C179.948 417.75 180.373 417.46 180.863 417.26C181.363 417.05 181.903 416.945 182.483 416.945C182.993 416.945 183.468 417.045 183.908 417.245C184.348 417.435 184.728 417.7 185.048 418.04C185.378 418.38 185.628 418.785 185.798 419.255C185.978 419.715 186.063 420.22 186.053 420.77L186.038 421.43H179.603L179.258 420.2H184.703L184.478 420.455V420.095C184.448 419.765 184.338 419.47 184.148 419.21C183.958 418.95 183.718 418.745 183.428 418.595C183.138 418.445 182.823 418.37 182.483 418.37C181.943 418.37 181.488 418.475 181.118 418.685C180.748 418.885 180.468 419.185 180.278 419.585C180.088 419.975 179.993 420.46 179.993 421.04C179.993 421.59 180.108 422.07 180.338 422.48C180.568 422.88 180.893 423.19 181.313 423.41C181.733 423.63 182.218 423.74 182.768 423.74C183.158 423.74 183.518 423.675 183.848 423.545C184.188 423.415 184.553 423.18 184.943 422.84L185.723 423.935C185.483 424.175 185.188 424.385 184.838 424.565C184.498 424.745 184.133 424.89 183.743 425C183.363 425.1 182.988 425.15 182.618 425.15ZM187.732 425V417.125H189.292V419.6L189.142 419C189.252 418.62 189.437 418.275 189.697 417.965C189.967 417.655 190.272 417.41 190.612 417.23C190.962 417.05 191.322 416.96 191.692 416.96C191.862 416.96 192.022 416.975 192.172 417.005C192.332 417.035 192.457 417.07 192.547 417.11L192.142 418.79C192.022 418.74 191.887 418.7 191.737 418.67C191.597 418.63 191.457 418.61 191.317 418.61C191.047 418.61 190.787 418.665 190.537 418.775C190.297 418.875 190.082 419.02 189.892 419.21C189.712 419.39 189.567 419.605 189.457 419.855C189.347 420.095 189.292 420.36 189.292 420.65V425H187.732ZM196.407 425.15C195.747 425.15 195.152 425.035 194.622 424.805C194.092 424.575 193.652 424.235 193.302 423.785L194.352 422.885C194.652 423.235 194.977 423.49 195.327 423.65C195.687 423.8 196.092 423.875 196.542 423.875C196.722 423.875 196.887 423.855 197.037 423.815C197.197 423.765 197.332 423.695 197.442 423.605C197.562 423.515 197.652 423.41 197.712 423.29C197.772 423.16 197.802 423.02 197.802 422.87C197.802 422.61 197.707 422.4 197.517 422.24C197.417 422.17 197.257 422.095 197.037 422.015C196.827 421.925 196.552 421.835 196.212 421.745C195.632 421.595 195.157 421.425 194.787 421.235C194.417 421.045 194.132 420.83 193.932 420.59C193.782 420.4 193.672 420.195 193.602 419.975C193.532 419.745 193.497 419.495 193.497 419.225C193.497 418.895 193.567 418.595 193.707 418.325C193.857 418.045 194.057 417.805 194.307 417.605C194.567 417.395 194.867 417.235 195.207 417.125C195.557 417.015 195.927 416.96 196.317 416.96C196.687 416.96 197.052 417.01 197.412 417.11C197.782 417.21 198.122 417.355 198.432 417.545C198.742 417.735 199.002 417.96 199.212 418.22L198.327 419.195C198.137 419.005 197.927 418.84 197.697 418.7C197.477 418.55 197.252 418.435 197.022 418.355C196.792 418.275 196.582 418.235 196.392 418.235C196.182 418.235 195.992 418.255 195.822 418.295C195.652 418.335 195.507 418.395 195.387 418.475C195.277 418.555 195.192 418.655 195.132 418.775C195.072 418.895 195.042 419.03 195.042 419.18C195.052 419.31 195.082 419.435 195.132 419.555C195.192 419.665 195.272 419.76 195.372 419.84C195.482 419.92 195.647 420.005 195.867 420.095C196.087 420.185 196.367 420.27 196.707 420.35C197.207 420.48 197.617 420.625 197.937 420.785C198.267 420.935 198.527 421.11 198.717 421.31C198.917 421.5 199.057 421.72 199.137 421.97C199.217 422.22 199.257 422.5 199.257 422.81C199.257 423.26 199.127 423.665 198.867 424.025C198.617 424.375 198.277 424.65 197.847 424.85C197.417 425.05 196.937 425.15 196.407 425.15ZM201.59 425.15C201.26 425.15 201.005 425.055 200.825 424.865C200.645 424.665 200.555 424.385 200.555 424.025C200.555 423.695 200.65 423.425 200.84 423.215C201.03 423.005 201.28 422.9 201.59 422.9C201.92 422.9 202.175 423 202.355 423.2C202.535 423.39 202.625 423.665 202.625 424.025C202.625 424.355 202.53 424.625 202.34 424.835C202.15 425.045 201.9 425.15 201.59 425.15ZM201.59 419.225C201.26 419.225 201.005 419.13 200.825 418.94C200.645 418.74 200.555 418.46 200.555 418.1C200.555 417.77 200.65 417.5 200.84 417.29C201.03 417.08 201.28 416.975 201.59 416.975C201.92 416.975 202.175 417.075 202.355 417.275C202.535 417.465 202.625 417.74 202.625 418.1C202.625 418.43 202.53 418.7 202.34 418.91C202.15 419.12 201.9 419.225 201.59 419.225ZM211.262 425.15C210.522 425.15 209.877 424.98 209.327 424.64C208.787 424.3 208.277 423.73 207.797 422.93L209.057 422.135C209.307 422.505 209.552 422.81 209.792 423.05C210.042 423.28 210.297 423.45 210.557 423.56C210.817 423.67 211.092 423.725 211.382 423.725C211.732 423.725 212.057 423.64 212.357 423.47C212.657 423.29 212.897 423.045 213.077 422.735C213.257 422.425 213.347 422.075 213.347 421.685C213.347 421.295 213.277 420.965 213.137 420.695C212.997 420.415 212.792 420.205 212.522 420.065C212.252 419.915 211.932 419.84 211.562 419.84C211.392 419.84 211.212 419.86 211.022 419.9C210.842 419.93 210.647 419.98 210.437 420.05C210.227 420.11 209.997 420.19 209.747 420.29L209.297 419.105L212.537 415.535L212.852 416H208.382V414.5H214.397L214.697 415.1L211.262 418.91L210.887 418.52C210.967 418.48 211.097 418.445 211.277 418.415C211.467 418.375 211.622 418.355 211.742 418.355C212.182 418.355 212.592 418.44 212.972 418.61C213.362 418.77 213.697 419 213.977 419.3C214.267 419.59 214.492 419.935 214.652 420.335C214.822 420.725 214.907 421.145 214.907 421.595C214.907 422.275 214.742 422.885 214.412 423.425C214.092 423.955 213.657 424.375 213.107 424.685C212.557 424.995 211.942 425.15 211.262 425.15ZM218.692 424.265V415.745L219.247 416.165L217.177 417.26L216.742 415.85L219.547 414.35H220.327V424.265H218.692ZM217.027 425V423.44H222.037V425H217.027Z" fill="black"/>
<rect x="121" y="203" width="77" height="7" rx="3.5" fill="#E4E6EA"/>
<rect x="121" y="261" width="77" height="7" rx="3.5" fill="#E4E6EA"/>
<rect x="121" y="319" width="77" height="7" rx="3.5" fill="#E4E6EA"/>
<rect x="121" y="377" width="77" height="7" rx="3.5" fill="#E4E6EA"/>
<rect x="321" y="203" width="77" height="7" rx="3.5" fill="#E4E6EA"/>
<rect x="321" y="261" width="77" height="7" rx="3.5" fill="#E4E6EA"/>
<rect x="321" y="319" width="77" height="7" rx="3.5" fill="#E4E6EA"/>
<rect x="321" y="377" width="77" height="7" rx="3.5" fill="#E4E6EA"/>
<path d="M389.49 182H352.028C347.594 182 344 185.594 344 190.028C344 194.461 347.594 198.055 352.028 198.055H389.49C393.924 198.055 397.518 194.461 397.518 190.028C397.518 185.594 393.924 182 389.49 182Z" fill="#B2E7F0"/>
<path d="M389.49 240H352.028C347.594 240 344 243.594 344 248.028C344 252.461 347.594 256.055 352.028 256.055H389.49C393.924 256.055 397.518 252.461 397.518 248.028C397.518 243.594 393.924 240 389.49 240Z" fill="#F9D8A5"/>
<path d="M389.49 298H352.028C347.594 298 344 301.594 344 306.028C344 310.461 347.594 314.055 352.028 314.055H389.49C393.924 314.055 397.518 310.461 397.518 306.028C397.518 301.594 393.924 298 389.49 298Z" fill="#B2E7F0"/>
<path d="M389.49 356H352.028C347.594 356 344 359.594 344 364.028C344 368.461 347.594 372.055 352.028 372.055H389.49C393.924 372.055 397.518 368.461 397.518 364.028C397.518 359.594 393.924 356 389.49 356Z" fill="#FBCFCE"/>
<path d="M362.289 193.007V186.451H363.225V192.267H366.222V193.007H362.289ZM369.216 193.119C368.773 193.119 368.373 193.016 368.017 192.81C367.668 192.604 367.39 192.317 367.184 191.949C366.984 191.574 366.884 191.143 366.884 190.656C366.884 190.157 366.987 189.723 367.193 189.354C367.399 188.98 367.68 188.689 368.036 188.483C368.392 188.277 368.791 188.174 369.235 188.174C369.684 188.174 370.084 188.277 370.434 188.483C370.783 188.689 371.058 188.977 371.258 189.345C371.464 189.713 371.567 190.147 371.567 190.647C371.567 191.146 371.464 191.58 371.258 191.949C371.058 192.317 370.78 192.604 370.424 192.81C370.068 193.016 369.666 193.119 369.216 193.119ZM369.216 192.314C369.472 192.314 369.703 192.251 369.909 192.127C370.121 192.002 370.29 191.818 370.415 191.574C370.546 191.324 370.612 191.015 370.612 190.647C370.612 190.278 370.549 189.972 370.424 189.729C370.299 189.479 370.131 189.292 369.918 189.167C369.712 189.042 369.485 188.98 369.235 188.98C368.985 188.98 368.754 189.042 368.542 189.167C368.329 189.292 368.158 189.479 368.027 189.729C367.902 189.972 367.839 190.278 367.839 190.647C367.839 191.015 367.902 191.324 368.027 191.574C368.158 191.818 368.326 192.002 368.532 192.127C368.745 192.251 368.973 192.314 369.216 192.314ZM373.459 193.007L372.073 188.287H373L374.031 192.22L373.853 192.211L374.995 188.287H376.044L377.187 192.211L377.009 192.22L378.03 188.287H378.976L377.589 193.007H376.625L375.426 188.914H375.613L374.415 193.007H373.459Z" fill="black"/>
<path d="M353.216 251.007V244.451H354.321L356.541 248.881L358.751 244.451H359.865V251.007H358.929V246.09L356.896 250.089H356.175L354.152 246.099V251.007H353.216ZM363.316 251.119C362.867 251.119 362.467 251.016 362.118 250.81C361.768 250.604 361.493 250.317 361.293 249.949C361.1 249.58 361.003 249.153 361.003 248.666C361.003 248.166 361.1 247.732 361.293 247.364C361.493 246.989 361.768 246.699 362.118 246.493C362.467 246.28 362.873 246.174 363.335 246.174C363.797 246.174 364.194 246.277 364.525 246.483C364.855 246.689 365.111 246.964 365.293 247.308C365.474 247.645 365.564 248.019 365.564 248.431C365.564 248.494 365.561 248.563 365.555 248.637C365.555 248.706 365.552 248.784 365.545 248.872H361.687V248.207H364.628C364.609 247.813 364.478 247.507 364.234 247.289C363.991 247.064 363.688 246.952 363.326 246.952C363.07 246.952 362.836 247.011 362.623 247.13C362.411 247.242 362.239 247.411 362.108 247.635C361.983 247.854 361.921 248.132 361.921 248.469V248.731C361.921 249.081 361.983 249.377 362.108 249.621C362.239 249.858 362.411 250.039 362.623 250.164C362.836 250.283 363.067 250.342 363.316 250.342C363.616 250.342 363.863 250.276 364.056 250.145C364.25 250.014 364.393 249.836 364.487 249.611H365.424C365.342 249.899 365.205 250.158 365.012 250.389C364.818 250.614 364.578 250.792 364.29 250.923C364.009 251.054 363.685 251.119 363.316 251.119ZM368.703 251.119C368.253 251.119 367.857 251.013 367.513 250.801C367.17 250.582 366.901 250.289 366.708 249.921C366.52 249.546 366.427 249.121 366.427 248.647C366.427 248.166 366.52 247.741 366.708 247.373C366.901 247.005 367.17 246.714 367.513 246.502C367.863 246.284 368.262 246.174 368.712 246.174C369.08 246.174 369.405 246.249 369.686 246.399C369.967 246.543 370.185 246.749 370.342 247.017V244.264H371.278V251.007H370.445L370.342 250.276C370.248 250.42 370.126 250.557 369.976 250.689C369.826 250.813 369.645 250.916 369.433 250.998C369.221 251.079 368.977 251.119 368.703 251.119ZM368.852 250.305C369.146 250.305 369.405 250.236 369.63 250.098C369.855 249.961 370.026 249.768 370.145 249.518C370.27 249.268 370.332 248.978 370.332 248.647C370.332 248.316 370.27 248.029 370.145 247.785C370.026 247.535 369.855 247.342 369.63 247.204C369.405 247.061 369.146 246.989 368.852 246.989C368.571 246.989 368.319 247.061 368.094 247.204C367.869 247.342 367.694 247.535 367.569 247.785C367.444 248.029 367.382 248.316 367.382 248.647C367.382 248.978 367.444 249.268 367.569 249.518C367.694 249.768 367.869 249.961 368.094 250.098C368.319 250.236 368.571 250.305 368.852 250.305ZM372.624 251.007V246.287H373.561V251.007H372.624ZM373.102 245.397C372.921 245.397 372.771 245.341 372.652 245.228C372.54 245.116 372.484 244.972 372.484 244.798C372.484 244.629 372.54 244.492 372.652 244.385C372.771 244.273 372.921 244.217 373.102 244.217C373.277 244.217 373.424 244.273 373.542 244.385C373.661 244.492 373.72 244.629 373.72 244.798C373.72 244.972 373.661 245.116 373.542 245.228C373.424 245.341 373.277 245.397 373.102 245.397ZM376.633 251.119C376.264 251.119 375.943 251.044 375.668 250.895C375.4 250.745 375.191 250.52 375.041 250.22C374.897 249.921 374.825 249.543 374.825 249.087V246.287H375.762V248.984C375.762 249.427 375.859 249.761 376.052 249.986C376.246 250.211 376.524 250.323 376.886 250.323C377.129 250.323 377.348 250.264 377.541 250.145C377.741 250.027 377.897 249.855 378.01 249.63C378.122 249.405 378.178 249.131 378.178 248.806V246.287H379.115V251.007H378.281L378.216 250.202C378.072 250.489 377.863 250.714 377.588 250.876C377.313 251.038 376.995 251.119 376.633 251.119ZM380.397 251.007V246.287H381.24L381.306 246.952C381.455 246.708 381.655 246.518 381.905 246.38C382.155 246.243 382.436 246.174 382.748 246.174C382.985 246.174 383.201 246.209 383.394 246.277C383.588 246.34 383.759 246.437 383.909 246.568C384.059 246.699 384.181 246.861 384.274 247.055C384.443 246.78 384.668 246.565 384.949 246.408C385.236 246.252 385.539 246.174 385.857 246.174C386.238 246.174 386.566 246.252 386.841 246.408C387.115 246.558 387.325 246.786 387.468 247.092C387.612 247.392 387.684 247.766 387.684 248.216V251.007H386.756V248.31C386.756 247.873 386.666 247.542 386.485 247.317C386.31 247.092 386.051 246.98 385.707 246.98C385.476 246.98 385.27 247.039 385.089 247.158C384.908 247.276 384.765 247.448 384.658 247.673C384.559 247.898 384.509 248.172 384.509 248.497V251.007H383.572V248.31C383.572 247.873 383.481 247.542 383.3 247.317C383.126 247.092 382.866 246.98 382.523 246.98C382.305 246.98 382.105 247.039 381.924 247.158C381.743 247.276 381.599 247.448 381.493 247.673C381.387 247.898 381.334 248.172 381.334 248.497V251.007H380.397Z" fill="black"/>
<path d="M362.289 309.007V302.451H363.225V308.267H366.222V309.007H362.289ZM369.216 309.119C368.773 309.119 368.373 309.016 368.017 308.81C367.668 308.604 367.39 308.317 367.184 307.949C366.984 307.574 366.884 307.143 366.884 306.656C366.884 306.157 366.987 305.723 367.193 305.354C367.399 304.98 367.68 304.689 368.036 304.483C368.392 304.277 368.791 304.174 369.235 304.174C369.684 304.174 370.084 304.277 370.434 304.483C370.783 304.689 371.058 304.977 371.258 305.345C371.464 305.713 371.567 306.147 371.567 306.647C371.567 307.146 371.464 307.58 371.258 307.949C371.058 308.317 370.78 308.604 370.424 308.81C370.068 309.016 369.666 309.119 369.216 309.119ZM369.216 308.314C369.472 308.314 369.703 308.251 369.909 308.127C370.121 308.002 370.29 307.818 370.415 307.574C370.546 307.324 370.612 307.015 370.612 306.647C370.612 306.278 370.549 305.972 370.424 305.729C370.299 305.479 370.131 305.292 369.918 305.167C369.712 305.042 369.485 304.98 369.235 304.98C368.985 304.98 368.754 305.042 368.542 305.167C368.329 305.292 368.158 305.479 368.027 305.729C367.902 305.972 367.839 306.278 367.839 306.647C367.839 307.015 367.902 307.324 368.027 307.574C368.158 307.818 368.326 308.002 368.532 308.127C368.745 308.251 368.973 308.314 369.216 308.314ZM373.459 309.007L372.073 304.287H373L374.031 308.22L373.853 308.211L374.995 304.287H376.044L377.187 308.211L377.009 308.22L378.03 304.287H378.976L377.589 309.007H376.625L375.426 304.914H375.613L374.415 309.007H373.459Z" fill="black"/>
<path d="M365.414 367.007V360.451H366.35V367.007H365.414ZM361.246 367.007V360.451H362.183V367.007H361.246ZM362.023 364.047V363.279H365.62V364.047H362.023ZM367.74 367.007V362.287H368.677V367.007H367.74ZM368.218 361.397C368.037 361.397 367.887 361.341 367.768 361.228C367.656 361.116 367.6 360.972 367.6 360.798C367.6 360.629 367.656 360.492 367.768 360.385C367.887 360.273 368.037 360.217 368.218 360.217C368.393 360.217 368.54 360.273 368.658 360.385C368.777 360.492 368.836 360.629 368.836 360.798C368.836 360.972 368.777 361.116 368.658 361.228C368.54 361.341 368.393 361.397 368.218 361.397ZM371.936 369.18C371.505 369.18 371.124 369.124 370.794 369.011C370.463 368.905 370.207 368.74 370.026 368.515C369.844 368.29 369.754 368.015 369.754 367.691C369.754 367.522 369.791 367.35 369.866 367.176C369.941 367.007 370.063 366.845 370.232 366.689C370.4 366.532 370.628 366.392 370.915 366.267L371.44 366.689C371.121 366.807 370.906 366.948 370.794 367.11C370.687 367.279 370.634 367.441 370.634 367.597C370.634 367.784 370.691 367.94 370.803 368.065C370.915 368.19 371.068 368.284 371.262 368.346C371.462 368.409 371.686 368.44 371.936 368.44C372.18 368.44 372.392 368.406 372.573 368.337C372.754 368.268 372.895 368.171 372.994 368.047C373.094 367.922 373.144 367.775 373.144 367.606C373.144 367.407 373.069 367.238 372.92 367.101C372.77 366.969 372.482 366.891 372.058 366.866C371.702 366.841 371.399 366.807 371.149 366.763C370.906 366.72 370.697 366.667 370.522 366.604C370.353 366.542 370.21 366.473 370.091 366.398C369.979 366.323 369.882 366.245 369.801 366.164V365.949L370.737 364.984L371.496 365.246L370.475 366.192L370.672 365.771C370.74 365.814 370.806 365.858 370.868 365.902C370.931 365.939 371.015 365.974 371.121 366.005C371.227 366.036 371.371 366.064 371.552 366.089C371.733 366.114 371.97 366.139 372.264 366.164C372.689 366.195 373.029 366.27 373.285 366.389C373.547 366.507 373.737 366.667 373.856 366.866C373.975 367.066 374.034 367.304 374.034 367.578C374.034 367.847 373.959 368.103 373.809 368.346C373.666 368.59 373.438 368.79 373.126 368.946C372.82 369.102 372.423 369.18 371.936 369.18ZM371.936 365.555C371.537 365.555 371.196 365.48 370.915 365.331C370.641 365.181 370.428 364.978 370.278 364.722C370.135 364.466 370.063 364.182 370.063 363.869C370.063 363.551 370.135 363.267 370.278 363.017C370.428 362.761 370.644 362.558 370.925 362.408C371.206 362.252 371.543 362.174 371.936 362.174C372.329 362.174 372.664 362.252 372.938 362.408C373.219 362.558 373.432 362.761 373.575 363.017C373.725 363.267 373.8 363.551 373.8 363.869C373.8 364.182 373.725 364.466 373.575 364.722C373.432 364.978 373.219 365.181 372.938 365.331C372.664 365.48 372.329 365.555 371.936 365.555ZM371.936 364.806C372.242 364.806 372.486 364.728 372.667 364.572C372.848 364.41 372.938 364.175 372.938 363.869C372.938 363.564 372.848 363.332 372.667 363.176C372.486 363.014 372.242 362.933 371.936 362.933C371.63 362.933 371.384 363.014 371.196 363.176C371.009 363.332 370.915 363.564 370.915 363.869C370.915 364.175 371.009 364.41 371.196 364.572C371.384 364.728 371.63 364.806 371.936 364.806ZM372.704 363.027L372.479 362.287H374.418V362.933L372.704 363.027ZM375.358 367.007V360.264H376.294V363.055C376.45 362.78 376.666 362.565 376.94 362.408C377.221 362.252 377.53 362.174 377.868 362.174C378.242 362.174 378.564 362.252 378.832 362.408C379.101 362.558 379.307 362.786 379.45 363.092C379.594 363.392 379.666 363.77 379.666 364.225V367.007H378.739V364.328C378.739 363.885 378.645 363.551 378.458 363.326C378.27 363.095 377.992 362.98 377.624 362.98C377.374 362.98 377.149 363.039 376.95 363.158C376.75 363.276 376.591 363.451 376.472 363.682C376.353 363.907 376.294 364.182 376.294 364.506V367.007H375.358Z" fill="black"/>
<path d="M87.8527 151L85.4458 144.444H86.6539L88.5364 149.848L90.447 144.444H91.6365L89.2201 151H87.8527ZM92.4729 151V146.28H93.5968V151H92.4729ZM93.0349 145.53C92.8288 145.53 92.6571 145.468 92.5198 145.343C92.3886 145.212 92.3231 145.053 92.3231 144.865C92.3231 144.672 92.3886 144.516 92.5198 144.397C92.6571 144.272 92.8288 144.21 93.0349 144.21C93.2409 144.21 93.4095 144.272 93.5406 144.397C93.678 144.516 93.7467 144.672 93.7467 144.865C93.7467 145.053 93.678 145.212 93.5406 145.343C93.4095 145.468 93.2409 145.53 93.0349 145.53ZM97.1059 151.112C96.6376 151.112 96.2255 151.012 95.8696 150.813C95.5137 150.607 95.2358 150.319 95.036 149.951C94.8362 149.583 94.7363 149.158 94.7363 148.677C94.7363 148.178 94.8331 147.741 95.0267 147.366C95.2265 146.991 95.5043 146.698 95.8602 146.486C96.2224 146.273 96.6407 146.167 97.1152 146.167C97.5773 146.167 97.98 146.27 98.3234 146.476C98.6668 146.682 98.9322 146.96 99.1195 147.31C99.3068 147.653 99.4004 148.04 99.4004 148.471C99.4004 148.534 99.4004 148.602 99.4004 148.677C99.4004 148.752 99.3942 148.83 99.3817 148.911H95.5418V148.19H98.2672C98.2547 147.847 98.1392 147.578 97.9207 147.385C97.7021 147.185 97.4305 147.085 97.1059 147.085C96.8748 147.085 96.6625 147.138 96.469 147.244C96.2754 147.351 96.1225 147.51 96.0101 147.722C95.8977 147.928 95.8415 148.19 95.8415 148.509V148.78C95.8415 149.074 95.8946 149.327 96.0007 149.539C96.1131 149.751 96.2629 149.914 96.4503 150.026C96.6438 150.132 96.8592 150.185 97.0965 150.185C97.3587 150.185 97.5741 150.129 97.7427 150.017C97.9175 149.904 98.0455 149.754 98.1267 149.567H99.2693C99.1819 149.861 99.0383 150.126 98.8385 150.363C98.6387 150.594 98.3921 150.778 98.0986 150.916C97.8052 151.047 97.4742 151.112 97.1059 151.112ZM101.192 151L99.8057 146.28H100.92L101.885 150.157L101.679 150.148L102.756 146.28H104.011L105.097 150.148H104.891L105.856 146.28H106.97L105.584 151H104.423L103.271 147.001H103.505L102.353 151H101.192ZM111.633 151.112C111.246 151.112 110.925 151.047 110.669 150.916C110.413 150.785 110.222 150.61 110.097 150.391C109.972 150.173 109.91 149.935 109.91 149.679C109.91 149.38 109.985 149.121 110.135 148.902C110.291 148.684 110.519 148.515 110.819 148.396C111.118 148.271 111.487 148.209 111.924 148.209H113.113C113.113 147.959 113.079 147.753 113.01 147.591C112.941 147.422 112.835 147.297 112.692 147.216C112.548 147.135 112.364 147.095 112.139 147.095C111.883 147.095 111.665 147.154 111.483 147.272C111.302 147.385 111.19 147.56 111.146 147.797H110.041C110.079 147.46 110.191 147.173 110.378 146.935C110.566 146.692 110.812 146.504 111.118 146.373C111.43 146.236 111.771 146.167 112.139 146.167C112.582 146.167 112.96 146.245 113.272 146.401C113.584 146.551 113.822 146.77 113.984 147.057C114.153 147.338 114.237 147.678 114.237 148.078V151H113.282L113.169 150.241C113.107 150.366 113.026 150.482 112.926 150.588C112.832 150.694 112.723 150.788 112.598 150.869C112.473 150.944 112.329 151.003 112.167 151.047C112.011 151.091 111.833 151.112 111.633 151.112ZM111.886 150.223C112.067 150.223 112.226 150.191 112.364 150.129C112.507 150.06 112.629 149.967 112.729 149.848C112.835 149.723 112.916 149.586 112.973 149.436C113.029 149.286 113.066 149.127 113.085 148.958V148.94H112.045C111.827 148.94 111.646 148.968 111.502 149.024C111.359 149.08 111.256 149.158 111.193 149.258C111.131 149.352 111.099 149.464 111.099 149.595C111.099 149.726 111.131 149.839 111.193 149.932C111.256 150.026 111.346 150.098 111.465 150.148C111.583 150.198 111.724 150.223 111.886 150.223ZM115.438 151V144.257H116.562V151H115.438ZM117.816 151V144.257H118.94V151H117.816Z" fill="#2D6ECA"/>
<line x1="83" y1="166.5" x2="398" y2="166.5" stroke="#E2E3E5"/>
<line x1="83" y1="222.5" x2="398" y2="222.5" stroke="#E2E3E5"/>
<line x1="83" y1="280.5" x2="398" y2="280.5" stroke="#E2E3E5"/>
<line x1="83" y1="338.5" x2="398" y2="338.5" stroke="#E2E3E5"/>
<line x1="83" y1="396.5" x2="398" y2="396.5" stroke="#E2E3E5"/>
</g>
<defs>
<clipPath id="clip0_571_732">
<rect width="480" height="540" fill="white"/>
</clipPath>
<clipPath id="clip1_571_732">
<rect width="22" height="22" fill="white" transform="translate(83 184)"/>
</clipPath>
<clipPath id="clip2_571_732">
<rect width="22" height="22" fill="white" transform="translate(83 242)"/>
</clipPath>
<clipPath id="clip3_571_732">
<rect width="22" height="22" fill="white" transform="translate(83 300)"/>
</clipPath>
<clipPath id="clip4_571_732">
<rect width="22" height="22" fill="white" transform="translate(83 358)"/>
</clipPath>
</defs>
</svg>
