<svg width="480" height="540" viewBox="0 0 480 540" fill="none" xmlns="http://www.w3.org/2000/svg">
<path d="M396 76H85C75.6112 76 68 83.6112 68 93V447C68 456.389 75.6112 464 85 464H396C405.389 464 413 456.389 413 447V93C413 83.6112 405.389 76 396 76Z" fill="#F1F5F7"/>
<path d="M83.147 121L88.922 106.3H91.736L97.469 121H94.235L91.274 113.083C91.19 112.859 91.085 112.572 90.959 112.222C90.847 111.872 90.728 111.501 90.602 111.109C90.476 110.717 90.357 110.346 90.245 109.996C90.133 109.632 90.049 109.331 89.993 109.093H90.56C90.476 109.401 90.378 109.73 90.266 110.08C90.168 110.416 90.063 110.766 89.951 111.13C89.839 111.48 89.72 111.823 89.594 112.159C89.468 112.495 89.349 112.824 89.237 113.146L86.276 121H83.147ZM85.835 117.913L86.864 115.393H93.605L94.655 117.913H85.835ZM99.1341 121V105.46H102.116V121H99.1341ZM105.163 121V105.46H108.145V121H105.163ZM118.031 121V106.3H127.964V109.072H121.118V118.228H128.111V121H118.031ZM119.501 114.847V112.159H126.956V114.847H119.501ZM137.955 121L135.204 117.073L134.364 115.897L129.87 109.891H133.482L136.17 113.692L137.094 114.931L141.525 121H137.955ZM129.828 121L134.259 114.931L135.897 116.884L133.335 121H129.828ZM136.968 116.002L135.372 114.049L137.745 109.891H141.252L136.968 116.002ZM143.369 125.62V109.891H146.246L146.33 112.39L145.784 112.201C145.882 111.753 146.12 111.34 146.498 110.962C146.89 110.584 147.373 110.276 147.947 110.038C148.521 109.8 149.123 109.681 149.753 109.681C150.719 109.681 151.58 109.933 152.336 110.437C153.092 110.927 153.687 111.606 154.121 112.474C154.555 113.328 154.772 114.315 154.772 115.435C154.772 116.541 154.555 117.528 154.121 118.396C153.687 119.264 153.092 119.95 152.336 120.454C151.58 120.944 150.719 121.189 149.753 121.189C149.109 121.189 148.493 121.07 147.905 120.832C147.331 120.58 146.841 120.251 146.435 119.845C146.043 119.439 145.791 119.005 145.679 118.543L146.372 118.249V125.62H143.369ZM149.081 118.627C149.627 118.627 150.11 118.494 150.53 118.228C150.95 117.962 151.279 117.591 151.517 117.115C151.755 116.625 151.874 116.065 151.874 115.435C151.874 114.805 151.755 114.252 151.517 113.776C151.279 113.3 150.95 112.929 150.53 112.663C150.124 112.397 149.641 112.264 149.081 112.264C148.521 112.264 148.031 112.397 147.611 112.663C147.191 112.915 146.862 113.286 146.624 113.776C146.386 114.252 146.267 114.805 146.267 115.435C146.267 116.065 146.386 116.625 146.624 117.115C146.862 117.591 147.191 117.962 147.611 118.228C148.031 118.494 148.521 118.627 149.081 118.627ZM162.298 121.21C161.094 121.21 160.037 120.965 159.127 120.475C158.231 119.985 157.531 119.313 157.027 118.459C156.537 117.605 156.292 116.625 156.292 115.519C156.292 114.651 156.432 113.86 156.712 113.146C156.992 112.432 157.384 111.816 157.888 111.298C158.392 110.766 158.987 110.36 159.673 110.08C160.373 109.786 161.129 109.639 161.941 109.639C162.697 109.639 163.397 109.779 164.041 110.059C164.685 110.339 165.238 110.731 165.7 111.235C166.176 111.725 166.54 112.313 166.792 112.999C167.044 113.671 167.156 114.399 167.128 115.183L167.107 116.107H158.182L157.699 114.28H164.65L164.314 114.658V114.196C164.286 113.818 164.16 113.482 163.936 113.188C163.726 112.88 163.453 112.642 163.117 112.474C162.781 112.292 162.403 112.201 161.983 112.201C161.367 112.201 160.842 112.32 160.408 112.558C159.988 112.796 159.666 113.146 159.442 113.608C159.218 114.07 159.106 114.63 159.106 115.288C159.106 115.96 159.246 116.541 159.526 117.031C159.82 117.521 160.226 117.906 160.744 118.186C161.276 118.452 161.899 118.585 162.613 118.585C163.103 118.585 163.551 118.508 163.957 118.354C164.363 118.2 164.797 117.934 165.259 117.556L166.687 119.551C166.281 119.915 165.833 120.223 165.343 120.475C164.853 120.713 164.349 120.895 163.831 121.021C163.313 121.147 162.802 121.21 162.298 121.21ZM169.332 121V109.891H172.188L172.272 112.159L171.684 112.411C171.838 111.907 172.111 111.452 172.503 111.046C172.909 110.626 173.392 110.29 173.952 110.038C174.512 109.786 175.1 109.66 175.716 109.66C176.556 109.66 177.256 109.828 177.816 110.164C178.39 110.5 178.817 111.011 179.097 111.697C179.391 112.369 179.538 113.202 179.538 114.196V121H176.556V114.427C176.556 113.923 176.486 113.503 176.346 113.167C176.206 112.831 175.989 112.586 175.695 112.432C175.415 112.278 175.065 112.208 174.645 112.222C174.309 112.222 173.994 112.278 173.7 112.39C173.42 112.488 173.175 112.635 172.965 112.831C172.769 113.027 172.608 113.251 172.482 113.503C172.37 113.755 172.314 114.028 172.314 114.322V121H170.844C170.522 121 170.235 121 169.983 121C169.731 121 169.514 121 169.332 121ZM186.133 121.21C185.097 121.21 184.173 121.042 183.361 120.706C182.563 120.356 181.919 119.88 181.429 119.278L183.298 117.682C183.718 118.144 184.194 118.48 184.726 118.69C185.258 118.886 185.79 118.984 186.322 118.984C186.532 118.984 186.721 118.963 186.889 118.921C187.071 118.865 187.225 118.795 187.351 118.711C187.477 118.613 187.568 118.501 187.624 118.375C187.694 118.235 187.729 118.088 187.729 117.934C187.729 117.626 187.603 117.388 187.351 117.22C187.211 117.136 186.994 117.045 186.7 116.947C186.406 116.835 186.028 116.716 185.566 116.59C184.852 116.408 184.243 116.198 183.739 115.96C183.249 115.708 182.857 115.428 182.563 115.12C182.311 114.826 182.115 114.511 181.975 114.175C181.849 113.825 181.786 113.44 181.786 113.02C181.786 112.516 181.898 112.061 182.122 111.655C182.346 111.235 182.654 110.878 183.046 110.584C183.452 110.29 183.914 110.066 184.432 109.912C184.95 109.744 185.496 109.66 186.07 109.66C186.644 109.66 187.204 109.73 187.75 109.87C188.296 110.01 188.8 110.213 189.262 110.479C189.738 110.731 190.151 111.032 190.501 111.382L188.905 113.146C188.653 112.908 188.366 112.691 188.044 112.495C187.736 112.299 187.414 112.145 187.078 112.033C186.742 111.921 186.441 111.865 186.175 111.865C185.937 111.865 185.72 111.886 185.524 111.928C185.342 111.97 185.188 112.04 185.062 112.138C184.936 112.222 184.838 112.327 184.768 112.453C184.712 112.579 184.684 112.719 184.684 112.873C184.684 113.027 184.719 113.174 184.789 113.314C184.873 113.454 184.985 113.573 185.125 113.671C185.279 113.755 185.503 113.853 185.797 113.965C186.105 114.077 186.518 114.203 187.036 114.343C187.708 114.525 188.275 114.728 188.737 114.952C189.213 115.176 189.591 115.435 189.871 115.729C190.109 115.981 190.284 116.268 190.396 116.59C190.508 116.912 190.564 117.269 190.564 117.661C190.564 118.347 190.368 118.956 189.976 119.488C189.598 120.02 189.073 120.44 188.401 120.748C187.729 121.056 186.973 121.21 186.133 121.21ZM197.961 121.21C196.757 121.21 195.7 120.965 194.79 120.475C193.894 119.985 193.194 119.313 192.69 118.459C192.2 117.605 191.955 116.625 191.955 115.519C191.955 114.651 192.095 113.86 192.375 113.146C192.655 112.432 193.047 111.816 193.551 111.298C194.055 110.766 194.65 110.36 195.336 110.08C196.036 109.786 196.792 109.639 197.604 109.639C198.36 109.639 199.06 109.779 199.704 110.059C200.348 110.339 200.901 110.731 201.363 111.235C201.839 111.725 202.203 112.313 202.455 112.999C202.707 113.671 202.819 114.399 202.791 115.183L202.77 116.107H193.845L193.362 114.28H200.313L199.977 114.658V114.196C199.949 113.818 199.823 113.482 199.599 113.188C199.389 112.88 199.116 112.642 198.78 112.474C198.444 112.292 198.066 112.201 197.646 112.201C197.03 112.201 196.505 112.32 196.071 112.558C195.651 112.796 195.329 113.146 195.105 113.608C194.881 114.07 194.769 114.63 194.769 115.288C194.769 115.96 194.909 116.541 195.189 117.031C195.483 117.521 195.889 117.906 196.407 118.186C196.939 118.452 197.562 118.585 198.276 118.585C198.766 118.585 199.214 118.508 199.62 118.354C200.026 118.2 200.46 117.934 200.922 117.556L202.35 119.551C201.944 119.915 201.496 120.223 201.006 120.475C200.516 120.713 200.012 120.895 199.494 121.021C198.976 121.147 198.465 121.21 197.961 121.21ZM208.733 121.21C207.697 121.21 206.773 121.042 205.961 120.706C205.163 120.356 204.519 119.88 204.029 119.278L205.898 117.682C206.318 118.144 206.794 118.48 207.326 118.69C207.858 118.886 208.39 118.984 208.922 118.984C209.132 118.984 209.321 118.963 209.489 118.921C209.671 118.865 209.825 118.795 209.951 118.711C210.077 118.613 210.168 118.501 210.224 118.375C210.294 118.235 210.329 118.088 210.329 117.934C210.329 117.626 210.203 117.388 209.951 117.22C209.811 117.136 209.594 117.045 209.3 116.947C209.006 116.835 208.628 116.716 208.166 116.59C207.452 116.408 206.843 116.198 206.339 115.96C205.849 115.708 205.457 115.428 205.163 115.12C204.911 114.826 204.715 114.511 204.575 114.175C204.449 113.825 204.386 113.44 204.386 113.02C204.386 112.516 204.498 112.061 204.722 111.655C204.946 111.235 205.254 110.878 205.646 110.584C206.052 110.29 206.514 110.066 207.032 109.912C207.55 109.744 208.096 109.66 208.67 109.66C209.244 109.66 209.804 109.73 210.35 109.87C210.896 110.01 211.4 110.213 211.862 110.479C212.338 110.731 212.751 111.032 213.101 111.382L211.505 113.146C211.253 112.908 210.966 112.691 210.644 112.495C210.336 112.299 210.014 112.145 209.678 112.033C209.342 111.921 209.041 111.865 208.775 111.865C208.537 111.865 208.32 111.886 208.124 111.928C207.942 111.97 207.788 112.04 207.662 112.138C207.536 112.222 207.438 112.327 207.368 112.453C207.312 112.579 207.284 112.719 207.284 112.873C207.284 113.027 207.319 113.174 207.389 113.314C207.473 113.454 207.585 113.573 207.725 113.671C207.879 113.755 208.103 113.853 208.397 113.965C208.705 114.077 209.118 114.203 209.636 114.343C210.308 114.525 210.875 114.728 211.337 114.952C211.813 115.176 212.191 115.435 212.471 115.729C212.709 115.981 212.884 116.268 212.996 116.59C213.108 116.912 213.164 117.269 213.164 117.661C213.164 118.347 212.968 118.956 212.576 119.488C212.198 120.02 211.673 120.44 211.001 120.748C210.329 121.056 209.573 121.21 208.733 121.21Z" fill="black"/>
<rect x="83" y="280" width="315" height="40" rx="5" fill="#E4E6EA"/>
<path d="M94.6 298.399C94.6 295.752 96.7528 293.6 99.4 293.6C102.047 293.6 104.2 295.752 104.2 298.399C104.2 301.046 102.047 303.199 99.4 303.199C96.7528 303.199 94.6 301.046 94.6 298.399ZM108.766 306.632L104.45 302.316C105.325 301.198 105.8 299.819 105.8 298.399C105.8 294.871 102.929 292 99.4 292C95.8712 292 93 294.871 93 298.399C93 301.927 95.8712 304.798 99.4 304.798C100.82 304.798 102.199 304.323 103.318 303.448L107.634 307.764C107.746 307.876 107.889 307.953 108.044 307.984C108.199 308.016 108.361 308 108.507 307.939C108.654 307.879 108.779 307.776 108.866 307.644C108.954 307.512 109.001 307.357 109 307.198C109 306.986 108.916 306.782 108.766 306.632Z" fill="black"/>
<path d="M121.72 304V303H122.85V298H121.72V297H125.06V298H123.93V303H125.06V304H121.72ZM126.495 304V298.75H127.525V299.83L127.345 299.95C127.412 299.717 127.542 299.503 127.735 299.31C127.929 299.11 128.159 298.95 128.425 298.83C128.692 298.703 128.965 298.64 129.245 298.64C129.645 298.64 129.979 298.72 130.245 298.88C130.512 299.033 130.712 299.27 130.845 299.59C130.979 299.91 131.045 300.313 131.045 300.8V304H130.015V300.87C130.015 300.57 129.975 300.323 129.895 300.13C129.815 299.93 129.692 299.787 129.525 299.7C129.359 299.607 129.152 299.567 128.905 299.58C128.705 299.58 128.522 299.613 128.355 299.68C128.189 299.74 128.042 299.827 127.915 299.94C127.795 300.053 127.699 300.187 127.625 300.34C127.559 300.487 127.525 300.647 127.525 300.82V304H127.015C126.929 304 126.842 304 126.755 304C126.669 304 126.582 304 126.495 304ZM134.163 304L131.943 298.75H133.053L134.653 302.68L134.463 302.77L136.173 298.75H137.233L134.903 304H134.163ZM140.389 304.1C139.875 304.1 139.415 303.983 139.009 303.75C138.609 303.51 138.292 303.187 138.059 302.78C137.825 302.367 137.709 301.897 137.709 301.37C137.709 300.843 137.825 300.377 138.059 299.97C138.292 299.557 138.609 299.233 139.009 299C139.415 298.76 139.875 298.64 140.389 298.64C140.895 298.64 141.349 298.76 141.749 299C142.155 299.233 142.475 299.557 142.709 299.97C142.942 300.377 143.059 300.843 143.059 301.37C143.059 301.897 142.942 302.367 142.709 302.78C142.475 303.187 142.155 303.51 141.749 303.75C141.349 303.983 140.895 304.1 140.389 304.1ZM140.389 303.16C140.702 303.16 140.982 303.083 141.229 302.93C141.475 302.77 141.669 302.557 141.809 302.29C141.949 302.017 142.015 301.71 142.009 301.37C142.015 301.023 141.949 300.717 141.809 300.45C141.669 300.177 141.475 299.963 141.229 299.81C140.982 299.657 140.702 299.58 140.389 299.58C140.075 299.58 139.792 299.66 139.539 299.82C139.292 299.973 139.099 300.187 138.959 300.46C138.819 300.727 138.752 301.03 138.759 301.37C138.752 301.71 138.819 302.017 138.959 302.29C139.099 302.557 139.292 302.77 139.539 302.93C139.792 303.083 140.075 303.16 140.389 303.16ZM144.351 304V298.75H145.381V304H144.351ZM144.851 297.59C144.631 297.59 144.461 297.533 144.341 297.42C144.221 297.307 144.161 297.147 144.161 296.94C144.161 296.747 144.221 296.59 144.341 296.47C144.468 296.35 144.638 296.29 144.851 296.29C145.071 296.29 145.241 296.347 145.361 296.46C145.481 296.573 145.541 296.733 145.541 296.94C145.541 297.133 145.478 297.29 145.351 297.41C145.231 297.53 145.064 297.59 144.851 297.59ZM149.194 304.1C148.707 304.1 148.271 303.98 147.884 303.74C147.504 303.5 147.201 303.173 146.974 302.76C146.754 302.347 146.644 301.883 146.644 301.37C146.644 300.857 146.754 300.393 146.974 299.98C147.201 299.567 147.504 299.24 147.884 299C148.271 298.76 148.707 298.64 149.194 298.64C149.661 298.64 150.084 298.737 150.464 298.93C150.851 299.117 151.144 299.373 151.344 299.7L150.774 300.4C150.667 300.247 150.531 300.107 150.364 299.98C150.197 299.853 150.021 299.753 149.834 299.68C149.647 299.607 149.467 299.57 149.294 299.57C148.974 299.57 148.687 299.65 148.434 299.81C148.187 299.963 147.991 300.177 147.844 300.45C147.697 300.723 147.624 301.03 147.624 301.37C147.624 301.71 147.701 302.017 147.854 302.29C148.007 302.557 148.211 302.77 148.464 302.93C148.717 303.09 148.997 303.17 149.304 303.17C149.484 303.17 149.657 303.14 149.824 303.08C149.997 303.02 150.164 302.93 150.324 302.81C150.484 302.69 150.634 302.543 150.774 302.37L151.344 303.07C151.131 303.37 150.824 303.617 150.424 303.81C150.031 304.003 149.621 304.1 149.194 304.1ZM154.766 304.1C154.226 304.1 153.746 303.987 153.326 303.76C152.912 303.527 152.586 303.21 152.346 302.81C152.112 302.41 151.996 301.95 151.996 301.43C151.996 301.017 152.062 300.64 152.196 300.3C152.329 299.96 152.512 299.667 152.746 299.42C152.986 299.167 153.269 298.973 153.596 298.84C153.929 298.7 154.289 298.63 154.676 298.63C155.016 298.63 155.332 298.697 155.626 298.83C155.919 298.957 156.172 299.133 156.386 299.36C156.606 299.587 156.772 299.857 156.886 300.17C157.006 300.477 157.062 300.813 157.056 301.18L157.046 301.62H152.756L152.526 300.8H156.156L156.006 300.97V300.73C155.986 300.51 155.912 300.313 155.786 300.14C155.659 299.967 155.499 299.83 155.306 299.73C155.112 299.63 154.902 299.58 154.676 299.58C154.316 299.58 154.012 299.65 153.766 299.79C153.519 299.923 153.332 300.123 153.206 300.39C153.079 300.65 153.016 300.973 153.016 301.36C153.016 301.727 153.092 302.047 153.246 302.32C153.399 302.587 153.616 302.793 153.896 302.94C154.176 303.087 154.499 303.16 154.866 303.16C155.126 303.16 155.366 303.117 155.586 303.03C155.812 302.943 156.056 302.787 156.316 302.56L156.836 303.29C156.676 303.45 156.479 303.59 156.246 303.71C156.019 303.83 155.776 303.927 155.516 304C155.262 304.067 155.012 304.1 154.766 304.1ZM163.738 304.1C163.511 304.1 163.284 304.063 163.058 303.99C162.838 303.917 162.634 303.82 162.448 303.7C162.268 303.573 162.114 303.437 161.988 303.29C161.868 303.137 161.788 302.983 161.748 302.83L162.008 302.69V303.97H160.978V296.6H162.008V299.95L161.848 299.86C161.881 299.707 161.954 299.56 162.068 299.42C162.181 299.273 162.324 299.143 162.498 299.03C162.678 298.91 162.871 298.817 163.078 298.75C163.284 298.677 163.494 298.64 163.708 298.64C164.181 298.64 164.601 298.757 164.968 298.99C165.334 299.223 165.624 299.547 165.838 299.96C166.051 300.367 166.158 300.833 166.158 301.36C166.158 301.887 166.051 302.357 165.838 302.77C165.631 303.183 165.344 303.51 164.978 303.75C164.611 303.983 164.198 304.1 163.738 304.1ZM163.568 303.16C163.874 303.16 164.148 303.083 164.388 302.93C164.628 302.77 164.818 302.557 164.958 302.29C165.098 302.017 165.168 301.707 165.168 301.36C165.168 301.02 165.098 300.717 164.958 300.45C164.824 300.177 164.638 299.963 164.398 299.81C164.158 299.657 163.881 299.58 163.568 299.58C163.254 299.58 162.978 299.657 162.738 299.81C162.498 299.963 162.308 300.177 162.168 300.45C162.028 300.717 161.958 301.02 161.958 301.36C161.958 301.707 162.028 302.017 162.168 302.29C162.308 302.557 162.498 302.77 162.738 302.93C162.978 303.083 163.254 303.16 163.568 303.16ZM167.961 306.3L169.021 303.85L169.031 304.67L166.411 298.75H167.611L169.251 302.61C169.285 302.677 169.325 302.78 169.371 302.92C169.418 303.053 169.458 303.187 169.491 303.32L169.231 303.38C169.285 303.24 169.335 303.1 169.381 302.96C169.435 302.82 169.485 302.68 169.531 302.54L170.901 298.75H172.121L169.961 304L169.071 306.3H167.961ZM175.695 304V303H176.825V298H175.695V297H179.035V298H177.905V303H179.035V304H175.695ZM180.73 304V297H183.47C183.97 297 184.42 297.083 184.82 297.25C185.227 297.417 185.573 297.657 185.86 297.97C186.147 298.283 186.367 298.653 186.52 299.08C186.673 299.507 186.75 299.98 186.75 300.5C186.75 301.02 186.673 301.497 186.52 301.93C186.367 302.357 186.147 302.727 185.86 303.04C185.58 303.347 185.237 303.583 184.83 303.75C184.423 303.917 183.97 304 183.47 304H180.73ZM181.81 303.07L181.78 302.96H183.42C183.773 302.96 184.087 302.903 184.36 302.79C184.64 302.677 184.873 302.517 185.06 302.31C185.253 302.097 185.4 301.837 185.5 301.53C185.6 301.223 185.65 300.88 185.65 300.5C185.65 300.12 185.6 299.78 185.5 299.48C185.4 299.173 185.253 298.913 185.06 298.7C184.867 298.487 184.633 298.323 184.36 298.21C184.087 298.097 183.773 298.04 183.42 298.04H181.75L181.81 297.95V303.07Z" fill="#848484"/>
<path d="M383.785 287.069H368.138C365.258 287.069 362.923 289.326 362.923 292.111V307.236C362.923 310.02 365.258 312.277 368.138 312.277H383.785C386.665 312.277 389 310.02 389 307.236V292.111C389 289.326 386.665 287.069 383.785 287.069Z" fill="black"/>
<path d="M369.875 295.812C369.875 295.568 369.974 295.334 370.15 295.162C370.326 294.989 370.565 294.892 370.815 294.892H381.105C381.284 294.892 381.458 294.942 381.609 295.036C381.759 295.129 381.88 295.263 381.955 295.421C382.031 295.579 382.059 295.755 382.037 295.928C382.014 296.101 381.942 296.265 381.828 296.399L377.481 301.548V304.534C377.481 304.682 377.438 304.826 377.359 304.952C377.279 305.077 377.165 305.178 377.029 305.243C376.894 305.308 376.743 305.334 376.593 305.319C376.443 305.304 376.3 305.248 376.181 305.158L374.733 304.049C374.641 303.98 374.567 303.891 374.516 303.79C374.465 303.688 374.438 303.576 374.438 303.463V301.545L370.091 296.396C369.951 296.231 369.875 296.023 369.875 295.809V295.812ZM370.815 295.637C370.781 295.637 370.748 295.647 370.719 295.665C370.69 295.682 370.668 295.708 370.653 295.738C370.639 295.768 370.633 295.801 370.637 295.834C370.642 295.867 370.655 295.898 370.677 295.924L375.111 301.172C375.168 301.239 375.199 301.323 375.199 301.41V303.463L376.627 304.566C376.643 304.571 376.658 304.574 376.674 304.575C376.68 304.575 376.686 304.574 376.692 304.572C376.698 304.57 376.703 304.567 376.707 304.563C376.711 304.558 376.714 304.553 376.717 304.548C376.719 304.543 376.72 304.537 376.72 304.531V301.41C376.72 301.323 376.751 301.239 376.808 301.172L381.242 295.925C381.264 295.899 381.277 295.868 381.281 295.835C381.285 295.802 381.28 295.769 381.265 295.739C381.251 295.709 381.228 295.684 381.2 295.666C381.171 295.648 381.138 295.638 381.105 295.638L370.815 295.637Z" fill="white"/>
<rect x="83" y="136" width="315" height="42" rx="9" fill="white"/>
<rect x="83" y="183" width="315" height="42" rx="9" fill="white"/>
<rect x="83" y="230" width="315" height="42" rx="9" fill="white"/>
<path d="M95.772 162V154.848H93.42V153.6H99.492V154.848H97.068V162H95.772ZM102.415 162.12C101.799 162.12 101.247 161.98 100.759 161.7C100.279 161.412 99.8988 161.024 99.6188 160.536C99.3388 160.04 99.1988 159.476 99.1988 158.844C99.1988 158.212 99.3388 157.652 99.6188 157.164C99.8988 156.668 100.279 156.28 100.759 156C101.247 155.712 101.799 155.568 102.415 155.568C103.023 155.568 103.567 155.712 104.047 156C104.535 156.28 104.919 156.668 105.199 157.164C105.479 157.652 105.619 158.212 105.619 158.844C105.619 159.476 105.479 160.04 105.199 160.536C104.919 161.024 104.535 161.412 104.047 161.7C103.567 161.98 103.023 162.12 102.415 162.12ZM102.415 160.992C102.791 160.992 103.127 160.9 103.423 160.716C103.719 160.524 103.951 160.268 104.119 159.948C104.287 159.62 104.367 159.252 104.359 158.844C104.367 158.428 104.287 158.06 104.119 157.74C103.951 157.412 103.719 157.156 103.423 156.972C103.127 156.788 102.791 156.696 102.415 156.696C102.039 156.696 101.699 156.792 101.395 156.984C101.099 157.168 100.867 157.424 100.699 157.752C100.531 158.072 100.451 158.436 100.459 158.844C100.451 159.252 100.531 159.62 100.699 159.948C100.867 160.268 101.099 160.524 101.395 160.716C101.699 160.9 102.039 160.992 102.415 160.992ZM107.746 162V154.092H108.982V162H107.746ZM106.438 156.9V155.7H110.446V156.9H106.438ZM113.936 162.12C113.416 162.12 112.94 161.976 112.508 161.688C112.084 161.4 111.744 161.008 111.488 160.512C111.232 160.016 111.104 159.456 111.104 158.832C111.104 158.2 111.232 157.64 111.488 157.152C111.752 156.656 112.104 156.268 112.544 155.988C112.992 155.708 113.492 155.568 114.044 155.568C114.372 155.568 114.672 155.616 114.944 155.712C115.216 155.808 115.452 155.944 115.652 156.12C115.86 156.288 116.028 156.484 116.156 156.708C116.292 156.932 116.376 157.172 116.408 157.428L116.132 157.332V155.7H117.38V162H116.132V160.5L116.42 160.416C116.372 160.632 116.272 160.844 116.12 161.052C115.976 161.252 115.788 161.432 115.556 161.592C115.332 161.752 115.08 161.88 114.8 161.976C114.528 162.072 114.24 162.12 113.936 162.12ZM114.26 160.98C114.636 160.98 114.968 160.888 115.256 160.704C115.544 160.52 115.768 160.268 115.928 159.948C116.096 159.62 116.18 159.248 116.18 158.832C116.18 158.424 116.096 158.06 115.928 157.74C115.768 157.42 115.544 157.168 115.256 156.984C114.968 156.8 114.636 156.708 114.26 156.708C113.892 156.708 113.564 156.8 113.276 156.984C112.996 157.168 112.772 157.42 112.604 157.74C112.444 158.06 112.364 158.424 112.364 158.832C112.364 159.248 112.444 159.62 112.604 159.948C112.772 160.268 112.996 160.52 113.276 160.704C113.564 160.888 113.892 160.98 114.26 160.98ZM119.13 162V153.12H120.366V162H119.13ZM124.917 162L128.169 153.6H129.489L132.717 162H131.337L129.417 156.936C129.393 156.88 129.345 156.744 129.273 156.528C129.209 156.312 129.133 156.072 129.045 155.808C128.957 155.544 128.877 155.304 128.805 155.088C128.733 154.864 128.685 154.72 128.661 154.656L128.937 154.644C128.889 154.78 128.829 154.952 128.757 155.16C128.693 155.368 128.621 155.588 128.541 155.82C128.469 156.052 128.397 156.272 128.325 156.48C128.253 156.68 128.193 156.848 128.145 156.984L126.237 162H124.917ZM126.357 159.912L126.837 158.664H130.653L131.205 159.912H126.357ZM133.86 162V155.7H135.108V157.044L134.88 157.188C134.944 156.98 135.044 156.78 135.18 156.588C135.324 156.396 135.496 156.228 135.696 156.084C135.904 155.932 136.124 155.812 136.356 155.724C136.596 155.636 136.84 155.592 137.088 155.592C137.448 155.592 137.764 155.652 138.036 155.772C138.308 155.892 138.532 156.072 138.708 156.312C138.884 156.552 139.012 156.852 139.092 157.212L138.9 157.164L138.984 156.96C139.072 156.776 139.192 156.604 139.344 156.444C139.504 156.276 139.684 156.128 139.884 156C140.084 155.872 140.296 155.772 140.52 155.7C140.744 155.628 140.964 155.592 141.18 155.592C141.652 155.592 142.04 155.688 142.344 155.88C142.656 156.072 142.888 156.364 143.04 156.756C143.2 157.148 143.28 157.636 143.28 158.22V162H142.032V158.292C142.032 157.932 141.984 157.64 141.888 157.416C141.8 157.184 141.664 157.012 141.48 156.9C141.296 156.788 141.06 156.732 140.772 156.732C140.548 156.732 140.336 156.772 140.136 156.852C139.944 156.924 139.776 157.028 139.632 157.164C139.488 157.3 139.376 157.46 139.296 157.644C139.216 157.82 139.176 158.016 139.176 158.232V162H137.928V158.268C137.928 157.94 137.88 157.664 137.784 157.44C137.688 157.208 137.548 157.032 137.364 156.912C137.18 156.792 136.956 156.732 136.692 156.732C136.468 156.732 136.26 156.772 136.068 156.852C135.876 156.924 135.708 157.028 135.564 157.164C135.42 157.292 135.308 157.448 135.228 157.632C135.148 157.808 135.108 158 135.108 158.208V162H133.86ZM147.766 162.12C147.15 162.12 146.598 161.98 146.11 161.7C145.63 161.412 145.25 161.024 144.97 160.536C144.69 160.04 144.55 159.476 144.55 158.844C144.55 158.212 144.69 157.652 144.97 157.164C145.25 156.668 145.63 156.28 146.11 156C146.598 155.712 147.15 155.568 147.766 155.568C148.374 155.568 148.918 155.712 149.398 156C149.886 156.28 150.27 156.668 150.55 157.164C150.83 157.652 150.97 158.212 150.97 158.844C150.97 159.476 150.83 160.04 150.55 160.536C150.27 161.024 149.886 161.412 149.398 161.7C148.918 161.98 148.374 162.12 147.766 162.12ZM147.766 160.992C148.142 160.992 148.478 160.9 148.774 160.716C149.07 160.524 149.302 160.268 149.47 159.948C149.638 159.62 149.718 159.252 149.71 158.844C149.718 158.428 149.638 158.06 149.47 157.74C149.302 157.412 149.07 157.156 148.774 156.972C148.478 156.788 148.142 156.696 147.766 156.696C147.39 156.696 147.05 156.792 146.746 156.984C146.45 157.168 146.218 157.424 146.05 157.752C145.882 158.072 145.802 158.436 145.81 158.844C145.802 159.252 145.882 159.62 146.05 159.948C146.218 160.268 146.45 160.524 146.746 160.716C147.05 160.9 147.39 160.992 147.766 160.992ZM154.525 162.12C154.077 162.12 153.685 162.016 153.349 161.808C153.021 161.6 152.765 161.308 152.581 160.932C152.405 160.556 152.317 160.108 152.317 159.588V155.7H153.553V159.252C153.553 159.62 153.609 159.94 153.721 160.212C153.841 160.476 154.009 160.68 154.225 160.824C154.449 160.968 154.717 161.04 155.029 161.04C155.261 161.04 155.473 161.004 155.665 160.932C155.857 160.852 156.021 160.744 156.157 160.608C156.301 160.472 156.413 160.308 156.493 160.116C156.573 159.924 156.613 159.716 156.613 159.492V155.7H157.849V162H156.613V160.68L156.829 160.536C156.733 160.832 156.569 161.1 156.337 161.34C156.113 161.58 155.845 161.772 155.533 161.916C155.221 162.052 154.885 162.12 154.525 162.12ZM159.583 162V155.7H160.819V156.996L160.603 157.14C160.683 156.86 160.839 156.604 161.071 156.372C161.303 156.132 161.579 155.94 161.899 155.796C162.219 155.644 162.547 155.568 162.883 155.568C163.363 155.568 163.763 155.664 164.083 155.856C164.403 156.04 164.643 156.324 164.803 156.708C164.963 157.092 165.043 157.576 165.043 158.16V162H163.807V158.244C163.807 157.884 163.759 157.588 163.663 157.356C163.567 157.116 163.419 156.944 163.219 156.84C163.019 156.728 162.771 156.68 162.475 156.696C162.235 156.696 162.015 156.736 161.815 156.816C161.615 156.888 161.439 156.992 161.287 157.128C161.143 157.264 161.027 157.424 160.939 157.608C160.859 157.784 160.819 157.976 160.819 158.184V162H160.207C160.103 162 159.999 162 159.895 162C159.791 162 159.687 162 159.583 162ZM167.499 162V154.092H168.735V162H167.499ZM166.191 156.9V155.7H170.199V156.9H166.191Z" fill="black"/>
<path d="M95.772 209V201.848H93.42V200.6H99.492V201.848H97.068V209H95.772ZM102.415 209.12C101.799 209.12 101.247 208.98 100.759 208.7C100.279 208.412 99.8988 208.024 99.6188 207.536C99.3388 207.04 99.1988 206.476 99.1988 205.844C99.1988 205.212 99.3388 204.652 99.6188 204.164C99.8988 203.668 100.279 203.28 100.759 203C101.247 202.712 101.799 202.568 102.415 202.568C103.023 202.568 103.567 202.712 104.047 203C104.535 203.28 104.919 203.668 105.199 204.164C105.479 204.652 105.619 205.212 105.619 205.844C105.619 206.476 105.479 207.04 105.199 207.536C104.919 208.024 104.535 208.412 104.047 208.7C103.567 208.98 103.023 209.12 102.415 209.12ZM102.415 207.992C102.791 207.992 103.127 207.9 103.423 207.716C103.719 207.524 103.951 207.268 104.119 206.948C104.287 206.62 104.367 206.252 104.359 205.844C104.367 205.428 104.287 205.06 104.119 204.74C103.951 204.412 103.719 204.156 103.423 203.972C103.127 203.788 102.791 203.696 102.415 203.696C102.039 203.696 101.699 203.792 101.395 203.984C101.099 204.168 100.867 204.424 100.699 204.752C100.531 205.072 100.451 205.436 100.459 205.844C100.451 206.252 100.531 206.62 100.699 206.948C100.867 207.268 101.099 207.524 101.395 207.716C101.699 207.9 102.039 207.992 102.415 207.992ZM107.746 209V201.092H108.982V209H107.746ZM106.438 203.9V202.7H110.446V203.9H106.438ZM113.936 209.12C113.416 209.12 112.94 208.976 112.508 208.688C112.084 208.4 111.744 208.008 111.488 207.512C111.232 207.016 111.104 206.456 111.104 205.832C111.104 205.2 111.232 204.64 111.488 204.152C111.752 203.656 112.104 203.268 112.544 202.988C112.992 202.708 113.492 202.568 114.044 202.568C114.372 202.568 114.672 202.616 114.944 202.712C115.216 202.808 115.452 202.944 115.652 203.12C115.86 203.288 116.028 203.484 116.156 203.708C116.292 203.932 116.376 204.172 116.408 204.428L116.132 204.332V202.7H117.38V209H116.132V207.5L116.42 207.416C116.372 207.632 116.272 207.844 116.12 208.052C115.976 208.252 115.788 208.432 115.556 208.592C115.332 208.752 115.08 208.88 114.8 208.976C114.528 209.072 114.24 209.12 113.936 209.12ZM114.26 207.98C114.636 207.98 114.968 207.888 115.256 207.704C115.544 207.52 115.768 207.268 115.928 206.948C116.096 206.62 116.18 206.248 116.18 205.832C116.18 205.424 116.096 205.06 115.928 204.74C115.768 204.42 115.544 204.168 115.256 203.984C114.968 203.8 114.636 203.708 114.26 203.708C113.892 203.708 113.564 203.8 113.276 203.984C112.996 204.168 112.772 204.42 112.604 204.74C112.444 205.06 112.364 205.424 112.364 205.832C112.364 206.248 112.444 206.62 112.604 206.948C112.772 207.268 112.996 207.52 113.276 207.704C113.564 207.888 113.892 207.98 114.26 207.98ZM119.13 209V200.12H120.366V209H119.13ZM125.793 209V200.6H129.213C129.669 200.6 130.081 200.716 130.449 200.948C130.825 201.172 131.125 201.48 131.349 201.872C131.573 202.264 131.685 202.7 131.685 203.18C131.685 203.66 131.573 204.096 131.349 204.488C131.125 204.88 130.825 205.196 130.449 205.436C130.081 205.668 129.669 205.784 129.213 205.784H127.089V209H125.793ZM127.089 204.536H129.189C129.405 204.536 129.601 204.476 129.777 204.356C129.953 204.228 130.093 204.064 130.197 203.864C130.309 203.656 130.365 203.428 130.365 203.18C130.365 202.932 130.309 202.708 130.197 202.508C130.093 202.308 129.953 202.148 129.777 202.028C129.601 201.908 129.405 201.848 129.189 201.848H127.089V204.536ZM135.393 209.12C134.873 209.12 134.397 208.976 133.965 208.688C133.541 208.4 133.201 208.008 132.945 207.512C132.689 207.016 132.561 206.456 132.561 205.832C132.561 205.2 132.689 204.64 132.945 204.152C133.209 203.656 133.561 203.268 134.001 202.988C134.449 202.708 134.949 202.568 135.501 202.568C135.829 202.568 136.129 202.616 136.401 202.712C136.673 202.808 136.909 202.944 137.109 203.12C137.317 203.288 137.485 203.484 137.613 203.708C137.749 203.932 137.833 204.172 137.865 204.428L137.589 204.332V202.7H138.837V209H137.589V207.5L137.877 207.416C137.829 207.632 137.729 207.844 137.577 208.052C137.433 208.252 137.245 208.432 137.013 208.592C136.789 208.752 136.537 208.88 136.257 208.976C135.985 209.072 135.697 209.12 135.393 209.12ZM135.717 207.98C136.093 207.98 136.425 207.888 136.713 207.704C137.001 207.52 137.225 207.268 137.385 206.948C137.553 206.62 137.637 206.248 137.637 205.832C137.637 205.424 137.553 205.06 137.385 204.74C137.225 204.42 137.001 204.168 136.713 203.984C136.425 203.8 136.093 203.708 135.717 203.708C135.349 203.708 135.021 203.8 134.733 203.984C134.453 204.168 134.229 204.42 134.061 204.74C133.901 205.06 133.821 205.424 133.821 205.832C133.821 206.248 133.901 206.62 134.061 206.948C134.229 207.268 134.453 207.52 134.733 207.704C135.021 207.888 135.349 207.98 135.717 207.98ZM140.767 209V202.7H142.003V209H140.767ZM141.367 201.308C141.103 201.308 140.899 201.24 140.755 201.104C140.611 200.968 140.539 200.776 140.539 200.528C140.539 200.296 140.611 200.108 140.755 199.964C140.907 199.82 141.111 199.748 141.367 199.748C141.631 199.748 141.835 199.816 141.979 199.952C142.123 200.088 142.195 200.28 142.195 200.528C142.195 200.76 142.119 200.948 141.967 201.092C141.823 201.236 141.623 201.308 141.367 201.308ZM146.531 209.12C145.955 209.12 145.439 208.98 144.983 208.7C144.535 208.412 144.179 208.024 143.915 207.536C143.651 207.04 143.519 206.476 143.519 205.844C143.519 205.212 143.647 204.652 143.903 204.164C144.167 203.668 144.523 203.28 144.971 203C145.419 202.712 145.927 202.568 146.495 202.568C146.807 202.568 147.107 202.62 147.395 202.724C147.691 202.82 147.955 202.956 148.187 203.132C148.419 203.3 148.599 203.488 148.727 203.696C148.863 203.896 148.931 204.1 148.931 204.308L148.571 204.332V200.12H149.807V209H148.571V207.5H148.811C148.811 207.692 148.747 207.884 148.619 208.076C148.491 208.26 148.319 208.432 148.103 208.592C147.895 208.752 147.651 208.88 147.371 208.976C147.099 209.072 146.819 209.12 146.531 209.12ZM146.699 208.052C147.075 208.052 147.407 207.956 147.695 207.764C147.983 207.572 148.207 207.312 148.367 206.984C148.535 206.648 148.619 206.268 148.619 205.844C148.619 205.42 148.535 205.044 148.367 204.716C148.207 204.38 147.983 204.116 147.695 203.924C147.407 203.732 147.075 203.636 146.699 203.636C146.323 203.636 145.991 203.732 145.703 203.924C145.415 204.116 145.187 204.38 145.019 204.716C144.859 205.044 144.779 205.42 144.779 205.844C144.779 206.268 144.859 206.648 145.019 206.984C145.187 207.312 145.415 207.572 145.703 207.764C145.991 207.956 146.323 208.052 146.699 208.052Z" fill="black"/>
<path d="M95.772 256V248.848H93.42V247.6H99.492V248.848H97.068V256H95.772ZM102.415 256.12C101.799 256.12 101.247 255.98 100.759 255.7C100.279 255.412 99.8988 255.024 99.6188 254.536C99.3388 254.04 99.1988 253.476 99.1988 252.844C99.1988 252.212 99.3388 251.652 99.6188 251.164C99.8988 250.668 100.279 250.28 100.759 250C101.247 249.712 101.799 249.568 102.415 249.568C103.023 249.568 103.567 249.712 104.047 250C104.535 250.28 104.919 250.668 105.199 251.164C105.479 251.652 105.619 252.212 105.619 252.844C105.619 253.476 105.479 254.04 105.199 254.536C104.919 255.024 104.535 255.412 104.047 255.7C103.567 255.98 103.023 256.12 102.415 256.12ZM102.415 254.992C102.791 254.992 103.127 254.9 103.423 254.716C103.719 254.524 103.951 254.268 104.119 253.948C104.287 253.62 104.367 253.252 104.359 252.844C104.367 252.428 104.287 252.06 104.119 251.74C103.951 251.412 103.719 251.156 103.423 250.972C103.127 250.788 102.791 250.696 102.415 250.696C102.039 250.696 101.699 250.792 101.395 250.984C101.099 251.168 100.867 251.424 100.699 251.752C100.531 252.072 100.451 252.436 100.459 252.844C100.451 253.252 100.531 253.62 100.699 253.948C100.867 254.268 101.099 254.524 101.395 254.716C101.699 254.9 102.039 254.992 102.415 254.992ZM107.746 256V248.092H108.982V256H107.746ZM106.438 250.9V249.7H110.446V250.9H106.438ZM113.936 256.12C113.416 256.12 112.94 255.976 112.508 255.688C112.084 255.4 111.744 255.008 111.488 254.512C111.232 254.016 111.104 253.456 111.104 252.832C111.104 252.2 111.232 251.64 111.488 251.152C111.752 250.656 112.104 250.268 112.544 249.988C112.992 249.708 113.492 249.568 114.044 249.568C114.372 249.568 114.672 249.616 114.944 249.712C115.216 249.808 115.452 249.944 115.652 250.12C115.86 250.288 116.028 250.484 116.156 250.708C116.292 250.932 116.376 251.172 116.408 251.428L116.132 251.332V249.7H117.38V256H116.132V254.5L116.42 254.416C116.372 254.632 116.272 254.844 116.12 255.052C115.976 255.252 115.788 255.432 115.556 255.592C115.332 255.752 115.08 255.88 114.8 255.976C114.528 256.072 114.24 256.12 113.936 256.12ZM114.26 254.98C114.636 254.98 114.968 254.888 115.256 254.704C115.544 254.52 115.768 254.268 115.928 253.948C116.096 253.62 116.18 253.248 116.18 252.832C116.18 252.424 116.096 252.06 115.928 251.74C115.768 251.42 115.544 251.168 115.256 250.984C114.968 250.8 114.636 250.708 114.26 250.708C113.892 250.708 113.564 250.8 113.276 250.984C112.996 251.168 112.772 251.42 112.604 251.74C112.444 252.06 112.364 252.424 112.364 252.832C112.364 253.248 112.444 253.62 112.604 253.948C112.772 254.268 112.996 254.52 113.276 254.704C113.564 254.888 113.892 254.98 114.26 254.98ZM119.13 256V247.12H120.366V256H119.13ZM129.309 256.12C128.717 256.12 128.169 256.012 127.665 255.796C127.169 255.58 126.733 255.28 126.357 254.896C125.989 254.504 125.701 254.048 125.493 253.528C125.293 253 125.193 252.424 125.193 251.8C125.193 251.176 125.293 250.604 125.493 250.084C125.701 249.556 125.989 249.1 126.357 248.716C126.733 248.324 127.169 248.02 127.665 247.804C128.169 247.588 128.717 247.48 129.309 247.48C129.901 247.48 130.445 247.588 130.941 247.804C131.445 248.02 131.881 248.324 132.249 248.716C132.625 249.108 132.913 249.568 133.113 250.096C133.321 250.616 133.425 251.184 133.425 251.8C133.425 252.416 133.321 252.988 133.113 253.516C132.913 254.036 132.625 254.492 132.249 254.884C131.881 255.276 131.445 255.58 130.941 255.796C130.445 256.012 129.901 256.12 129.309 256.12ZM129.309 254.86C129.717 254.86 130.089 254.784 130.425 254.632C130.769 254.48 131.065 254.268 131.313 253.996C131.561 253.716 131.753 253.392 131.889 253.024C132.033 252.648 132.105 252.24 132.105 251.8C132.105 251.36 132.033 250.956 131.889 250.588C131.753 250.212 131.561 249.888 131.313 249.616C131.065 249.336 130.769 249.12 130.425 248.968C130.089 248.816 129.717 248.74 129.309 248.74C128.901 248.74 128.525 248.816 128.181 248.968C127.845 249.12 127.549 249.332 127.293 249.604C127.045 249.876 126.853 250.2 126.717 250.576C126.581 250.944 126.513 251.352 126.513 251.8C126.513 252.24 126.581 252.648 126.717 253.024C126.853 253.4 127.045 253.724 127.293 253.996C127.549 254.268 127.845 254.48 128.181 254.632C128.525 254.784 128.901 254.86 129.309 254.86ZM137.076 256.12C136.628 256.12 136.236 256.016 135.9 255.808C135.572 255.6 135.316 255.308 135.132 254.932C134.956 254.556 134.868 254.108 134.868 253.588V249.7H136.104V253.252C136.104 253.62 136.16 253.94 136.272 254.212C136.392 254.476 136.56 254.68 136.776 254.824C137 254.968 137.268 255.04 137.58 255.04C137.812 255.04 138.024 255.004 138.216 254.932C138.408 254.852 138.572 254.744 138.708 254.608C138.852 254.472 138.964 254.308 139.044 254.116C139.124 253.924 139.164 253.716 139.164 253.492V249.7H140.4V256H139.164V254.68L139.38 254.536C139.284 254.832 139.12 255.1 138.888 255.34C138.664 255.58 138.396 255.772 138.084 255.916C137.772 256.052 137.436 256.12 137.076 256.12ZM142.914 256V248.092H144.15V256H142.914ZM141.606 250.9V249.7H145.614V250.9H141.606ZM149.073 256.12C148.545 256.12 148.069 256.028 147.645 255.844C147.221 255.66 146.869 255.388 146.589 255.028L147.429 254.308C147.669 254.588 147.929 254.792 148.209 254.92C148.497 255.04 148.821 255.1 149.181 255.1C149.325 255.1 149.457 255.084 149.577 255.052C149.705 255.012 149.813 254.956 149.901 254.884C149.997 254.812 150.069 254.728 150.117 254.632C150.165 254.528 150.189 254.416 150.189 254.296C150.189 254.088 150.113 253.92 149.961 253.792C149.881 253.736 149.753 253.676 149.577 253.612C149.409 253.54 149.189 253.468 148.917 253.396C148.453 253.276 148.073 253.14 147.777 252.988C147.481 252.836 147.253 252.664 147.093 252.472C146.973 252.32 146.885 252.156 146.829 251.98C146.773 251.796 146.745 251.596 146.745 251.38C146.745 251.116 146.801 250.876 146.913 250.66C147.033 250.436 147.193 250.244 147.393 250.084C147.601 249.916 147.841 249.788 148.113 249.7C148.393 249.612 148.689 249.568 149.001 249.568C149.297 249.568 149.589 249.608 149.877 249.688C150.173 249.768 150.445 249.884 150.693 250.036C150.941 250.188 151.149 250.368 151.317 250.576L150.609 251.356C150.457 251.204 150.289 251.072 150.105 250.96C149.929 250.84 149.749 250.748 149.565 250.684C149.381 250.62 149.213 250.588 149.061 250.588C148.893 250.588 148.741 250.604 148.605 250.636C148.469 250.668 148.353 250.716 148.257 250.78C148.169 250.844 148.101 250.924 148.053 251.02C148.005 251.116 147.981 251.224 147.981 251.344C147.989 251.448 148.013 251.548 148.053 251.644C148.101 251.732 148.165 251.808 148.245 251.872C148.333 251.936 148.465 252.004 148.641 252.076C148.817 252.148 149.041 252.216 149.313 252.28C149.713 252.384 150.041 252.5 150.297 252.628C150.561 252.748 150.769 252.888 150.921 253.048C151.081 253.2 151.193 253.376 151.257 253.576C151.321 253.776 151.353 254 151.353 254.248C151.353 254.608 151.249 254.932 151.041 255.22C150.841 255.5 150.569 255.72 150.225 255.88C149.881 256.04 149.497 256.12 149.073 256.12ZM153.496 256V248.092H154.732V256H153.496ZM152.188 250.9V249.7H156.196V250.9H152.188ZM159.686 256.12C159.166 256.12 158.69 255.976 158.258 255.688C157.834 255.4 157.494 255.008 157.238 254.512C156.982 254.016 156.854 253.456 156.854 252.832C156.854 252.2 156.982 251.64 157.238 251.152C157.502 250.656 157.854 250.268 158.294 249.988C158.742 249.708 159.242 249.568 159.794 249.568C160.122 249.568 160.422 249.616 160.694 249.712C160.966 249.808 161.202 249.944 161.402 250.12C161.61 250.288 161.778 250.484 161.906 250.708C162.042 250.932 162.126 251.172 162.158 251.428L161.882 251.332V249.7H163.13V256H161.882V254.5L162.17 254.416C162.122 254.632 162.022 254.844 161.87 255.052C161.726 255.252 161.538 255.432 161.306 255.592C161.082 255.752 160.83 255.88 160.55 255.976C160.278 256.072 159.99 256.12 159.686 256.12ZM160.01 254.98C160.386 254.98 160.718 254.888 161.006 254.704C161.294 254.52 161.518 254.268 161.678 253.948C161.846 253.62 161.93 253.248 161.93 252.832C161.93 252.424 161.846 252.06 161.678 251.74C161.518 251.42 161.294 251.168 161.006 250.984C160.718 250.8 160.386 250.708 160.01 250.708C159.642 250.708 159.314 250.8 159.026 250.984C158.746 251.168 158.522 251.42 158.354 251.74C158.194 252.06 158.114 252.424 158.114 252.832C158.114 253.248 158.194 253.62 158.354 253.948C158.522 254.268 158.746 254.52 159.026 254.704C159.314 254.888 159.642 254.98 160.01 254.98ZM164.856 256V249.7H166.092V250.996L165.876 251.14C165.956 250.86 166.112 250.604 166.344 250.372C166.576 250.132 166.852 249.94 167.172 249.796C167.492 249.644 167.82 249.568 168.156 249.568C168.636 249.568 169.036 249.664 169.356 249.856C169.676 250.04 169.916 250.324 170.076 250.708C170.236 251.092 170.316 251.576 170.316 252.16V256H169.08V252.244C169.08 251.884 169.032 251.588 168.936 251.356C168.84 251.116 168.692 250.944 168.492 250.84C168.292 250.728 168.044 250.68 167.748 250.696C167.508 250.696 167.288 250.736 167.088 250.816C166.888 250.888 166.712 250.992 166.56 251.128C166.416 251.264 166.3 251.424 166.212 251.608C166.132 251.784 166.092 251.976 166.092 252.184V256H165.48C165.376 256 165.272 256 165.168 256C165.064 256 164.96 256 164.856 256ZM174.621 256.12C174.045 256.12 173.529 255.98 173.073 255.7C172.625 255.412 172.269 255.024 172.005 254.536C171.741 254.04 171.609 253.476 171.609 252.844C171.609 252.212 171.737 251.652 171.993 251.164C172.257 250.668 172.613 250.28 173.061 250C173.509 249.712 174.017 249.568 174.585 249.568C174.897 249.568 175.197 249.62 175.485 249.724C175.781 249.82 176.045 249.956 176.277 250.132C176.509 250.3 176.689 250.488 176.817 250.696C176.953 250.896 177.021 251.1 177.021 251.308L176.661 251.332V247.12H177.897V256H176.661V254.5H176.901C176.901 254.692 176.837 254.884 176.709 255.076C176.581 255.26 176.409 255.432 176.193 255.592C175.985 255.752 175.741 255.88 175.461 255.976C175.189 256.072 174.909 256.12 174.621 256.12ZM174.789 255.052C175.165 255.052 175.497 254.956 175.785 254.764C176.073 254.572 176.297 254.312 176.457 253.984C176.625 253.648 176.709 253.268 176.709 252.844C176.709 252.42 176.625 252.044 176.457 251.716C176.297 251.38 176.073 251.116 175.785 250.924C175.497 250.732 175.165 250.636 174.789 250.636C174.413 250.636 174.081 250.732 173.793 250.924C173.505 251.116 173.277 251.38 173.109 251.716C172.949 252.044 172.869 252.42 172.869 252.844C172.869 253.268 172.949 253.648 173.109 253.984C173.277 254.312 173.505 254.572 173.793 254.764C174.081 254.956 174.413 255.052 174.789 255.052ZM179.802 256V249.7H181.038V256H179.802ZM180.402 248.308C180.138 248.308 179.934 248.24 179.79 248.104C179.646 247.968 179.574 247.776 179.574 247.528C179.574 247.296 179.646 247.108 179.79 246.964C179.942 246.82 180.146 246.748 180.402 246.748C180.666 246.748 180.87 246.816 181.014 246.952C181.158 247.088 181.23 247.28 181.23 247.528C181.23 247.76 181.154 247.948 181.002 248.092C180.858 248.236 180.658 248.308 180.402 248.308ZM182.938 256V249.7H184.174V250.996L183.958 251.14C184.038 250.86 184.194 250.604 184.426 250.372C184.658 250.132 184.934 249.94 185.254 249.796C185.574 249.644 185.902 249.568 186.238 249.568C186.718 249.568 187.118 249.664 187.438 249.856C187.758 250.04 187.998 250.324 188.158 250.708C188.318 251.092 188.398 251.576 188.398 252.16V256H187.162V252.244C187.162 251.884 187.114 251.588 187.018 251.356C186.922 251.116 186.774 250.944 186.574 250.84C186.374 250.728 186.126 250.68 185.83 250.696C185.59 250.696 185.37 250.736 185.17 250.816C184.97 250.888 184.794 250.992 184.642 251.128C184.498 251.264 184.382 251.424 184.294 251.608C184.214 251.784 184.174 251.976 184.174 252.184V256H183.562C183.458 256 183.354 256 183.25 256C183.146 256 183.042 256 182.938 256ZM192.895 258.76C192.447 258.76 191.999 258.688 191.551 258.544C191.111 258.408 190.755 258.228 190.483 258.004L190.939 257.044C191.099 257.164 191.287 257.268 191.503 257.356C191.719 257.452 191.947 257.524 192.187 257.572C192.427 257.628 192.663 257.656 192.895 257.656C193.335 257.656 193.703 257.584 193.999 257.44C194.295 257.296 194.519 257.084 194.671 256.804C194.823 256.524 194.899 256.176 194.899 255.76V254.548L195.031 254.632C194.991 254.88 194.859 255.12 194.635 255.352C194.419 255.576 194.147 255.76 193.819 255.904C193.491 256.048 193.155 256.12 192.811 256.12C192.211 256.12 191.675 255.98 191.203 255.7C190.739 255.412 190.371 255.024 190.099 254.536C189.827 254.04 189.691 253.476 189.691 252.844C189.691 252.212 189.823 251.652 190.087 251.164C190.359 250.668 190.727 250.28 191.191 250C191.663 249.712 192.191 249.568 192.775 249.568C193.015 249.568 193.247 249.6 193.471 249.664C193.695 249.72 193.903 249.804 194.095 249.916C194.287 250.02 194.459 250.136 194.611 250.264C194.763 250.392 194.887 250.528 194.983 250.672C195.079 250.816 195.139 250.952 195.163 251.08L194.899 251.176V249.7H196.135V255.616C196.135 256.12 196.059 256.564 195.907 256.948C195.763 257.34 195.551 257.668 195.271 257.932C194.991 258.204 194.651 258.408 194.251 258.544C193.851 258.688 193.399 258.76 192.895 258.76ZM192.943 254.98C193.335 254.98 193.683 254.888 193.987 254.704C194.291 254.52 194.527 254.268 194.695 253.948C194.863 253.628 194.947 253.26 194.947 252.844C194.947 252.428 194.859 252.06 194.683 251.74C194.515 251.412 194.279 251.156 193.975 250.972C193.679 250.788 193.335 250.696 192.943 250.696C192.559 250.696 192.215 250.792 191.911 250.984C191.615 251.168 191.379 251.424 191.203 251.752C191.035 252.072 190.951 252.436 190.951 252.844C190.951 253.252 191.035 253.62 191.203 253.948C191.379 254.268 191.615 254.52 191.911 254.704C192.215 254.888 192.559 254.98 192.943 254.98Z" fill="black"/>
<path d="M340.688 164.18C339.608 164.18 338.66 163.982 337.844 163.586C337.028 163.19 336.332 162.608 335.756 161.84L337.142 160.022C337.754 160.814 338.348 161.366 338.924 161.678C339.5 161.99 340.148 162.146 340.868 162.146C341.276 162.146 341.648 162.086 341.984 161.966C342.32 161.834 342.584 161.66 342.776 161.444C342.968 161.216 343.064 160.958 343.064 160.67C343.064 160.466 343.022 160.28 342.938 160.112C342.866 159.932 342.752 159.776 342.596 159.644C342.44 159.5 342.248 159.368 342.02 159.248C341.792 159.128 341.534 159.026 341.246 158.942C340.958 158.858 340.64 158.78 340.292 158.708C339.404 158.528 338.666 158.27 338.078 157.934C337.502 157.586 337.07 157.154 336.782 156.638C336.494 156.122 336.35 155.516 336.35 154.82C336.35 154.292 336.464 153.806 336.692 153.362C336.932 152.918 337.256 152.534 337.664 152.21C338.072 151.886 338.546 151.634 339.086 151.454C339.626 151.274 340.208 151.184 340.832 151.184C341.816 151.184 342.686 151.364 343.442 151.724C344.198 152.072 344.822 152.594 345.314 153.29L343.982 154.91C343.574 154.358 343.1 153.944 342.56 153.668C342.032 153.38 341.456 153.236 340.832 153.236C340.4 153.236 340.022 153.296 339.698 153.416C339.386 153.536 339.14 153.71 338.96 153.938C338.78 154.154 338.69 154.418 338.69 154.73C338.69 154.97 338.744 155.186 338.852 155.378C338.96 155.558 339.11 155.72 339.302 155.864C339.506 156.008 339.764 156.134 340.076 156.242C340.388 156.35 340.742 156.446 341.138 156.53C341.798 156.662 342.392 156.842 342.92 157.07C343.448 157.286 343.898 157.55 344.27 157.862C344.642 158.162 344.924 158.51 345.116 158.906C345.308 159.29 345.404 159.722 345.404 160.202C345.404 161.03 345.206 161.744 344.81 162.344C344.426 162.932 343.88 163.388 343.172 163.712C342.464 164.024 341.636 164.18 340.688 164.18ZM339.608 165.638L339.68 157.394L341.318 157.988L341.39 165.638H339.608ZM341.948 157.988L340.31 157.394L340.238 149.888H342.02L341.948 157.988ZM353.43 164L358.596 152.588L359.028 153.47H352.584V151.364H360.522L360.792 152.678L355.86 164H353.43ZM366.172 164.18C365.236 164.18 364.42 163.976 363.724 163.568C363.028 163.148 362.386 162.44 361.798 161.444L363.562 160.328C363.838 160.772 364.12 161.132 364.408 161.408C364.708 161.672 365.008 161.87 365.308 162.002C365.62 162.122 365.95 162.182 366.298 162.182C366.694 162.182 367.054 162.086 367.378 161.894C367.714 161.702 367.978 161.438 368.17 161.102C368.374 160.766 368.476 160.382 368.476 159.95C368.476 159.518 368.392 159.152 368.224 158.852C368.068 158.552 367.834 158.324 367.522 158.168C367.222 158 366.856 157.916 366.424 157.916C366.232 157.916 366.028 157.94 365.812 157.988C365.596 158.024 365.368 158.084 365.128 158.168C364.888 158.24 364.624 158.33 364.336 158.438L363.76 156.908L367.342 152.948L367.882 153.47L362.572 153.434V151.364H369.97L370.402 152.228L366.262 156.746L365.722 156.152C365.818 156.104 365.974 156.062 366.19 156.026C366.418 155.978 366.616 155.954 366.784 155.954C367.312 155.954 367.816 156.056 368.296 156.26C368.776 156.452 369.19 156.728 369.538 157.088C369.898 157.448 370.18 157.868 370.384 158.348C370.588 158.816 370.69 159.326 370.69 159.878C370.69 160.706 370.486 161.444 370.078 162.092C369.682 162.728 369.142 163.238 368.458 163.622C367.774 163.994 367.012 164.18 366.172 164.18ZM375.204 163.118V152.894L375.87 153.758L373.314 155.054L372.792 153.002L376.23 151.22H377.526V163.118H375.204ZM373.098 164V161.84H379.686V164H373.098ZM385.526 164.126C384.65 164.126 383.858 163.94 383.15 163.568C382.442 163.184 381.854 162.632 381.386 161.912L382.682 160.508C383.21 161.096 383.684 161.504 384.104 161.732C384.524 161.948 384.986 162.056 385.49 162.056C385.946 162.056 386.354 161.96 386.714 161.768C387.074 161.564 387.362 161.294 387.578 160.958C387.794 160.61 387.902 160.232 387.902 159.824C387.902 159.38 387.8 158.99 387.596 158.654C387.392 158.306 387.116 158.03 386.768 157.826C386.42 157.622 386.024 157.52 385.58 157.52C385.34 157.52 385.112 157.538 384.896 157.574C384.68 157.61 384.428 157.682 384.14 157.79C383.864 157.898 383.51 158.066 383.078 158.294L381.962 156.782L382.7 151.364H389.666V153.434H384.014L384.536 152.858L383.942 156.854L383.276 156.386C383.432 156.242 383.66 156.104 383.96 155.972C384.272 155.84 384.608 155.732 384.968 155.648C385.328 155.564 385.682 155.522 386.03 155.522C386.81 155.522 387.506 155.702 388.118 156.062C388.73 156.422 389.216 156.92 389.576 157.556C389.936 158.18 390.116 158.9 390.116 159.716C390.116 160.544 389.912 161.294 389.504 161.966C389.108 162.626 388.562 163.154 387.866 163.55C387.17 163.934 386.39 164.126 385.526 164.126Z" fill="#5367FA"/>
<path d="M337.688 211.18C336.608 211.18 335.66 210.982 334.844 210.586C334.028 210.19 333.332 209.608 332.756 208.84L334.142 207.022C334.754 207.814 335.348 208.366 335.924 208.678C336.5 208.99 337.148 209.146 337.868 209.146C338.276 209.146 338.648 209.086 338.984 208.966C339.32 208.834 339.584 208.66 339.776 208.444C339.968 208.216 340.064 207.958 340.064 207.67C340.064 207.466 340.022 207.28 339.938 207.112C339.866 206.932 339.752 206.776 339.596 206.644C339.44 206.5 339.248 206.368 339.02 206.248C338.792 206.128 338.534 206.026 338.246 205.942C337.958 205.858 337.64 205.78 337.292 205.708C336.404 205.528 335.666 205.27 335.078 204.934C334.502 204.586 334.07 204.154 333.782 203.638C333.494 203.122 333.35 202.516 333.35 201.82C333.35 201.292 333.464 200.806 333.692 200.362C333.932 199.918 334.256 199.534 334.664 199.21C335.072 198.886 335.546 198.634 336.086 198.454C336.626 198.274 337.208 198.184 337.832 198.184C338.816 198.184 339.686 198.364 340.442 198.724C341.198 199.072 341.822 199.594 342.314 200.29L340.982 201.91C340.574 201.358 340.1 200.944 339.56 200.668C339.032 200.38 338.456 200.236 337.832 200.236C337.4 200.236 337.022 200.296 336.698 200.416C336.386 200.536 336.14 200.71 335.96 200.938C335.78 201.154 335.69 201.418 335.69 201.73C335.69 201.97 335.744 202.186 335.852 202.378C335.96 202.558 336.11 202.72 336.302 202.864C336.506 203.008 336.764 203.134 337.076 203.242C337.388 203.35 337.742 203.446 338.138 203.53C338.798 203.662 339.392 203.842 339.92 204.07C340.448 204.286 340.898 204.55 341.27 204.862C341.642 205.162 341.924 205.51 342.116 205.906C342.308 206.29 342.404 206.722 342.404 207.202C342.404 208.03 342.206 208.744 341.81 209.344C341.426 209.932 340.88 210.388 340.172 210.712C339.464 211.024 338.636 211.18 337.688 211.18ZM336.608 212.638L336.68 204.394L338.318 204.988L338.39 212.638H336.608ZM338.948 204.988L337.31 204.394L337.238 196.888H339.02L338.948 204.988ZM353.382 211.126C352.506 211.126 351.714 210.94 351.006 210.568C350.298 210.184 349.71 209.632 349.242 208.912L350.538 207.508C351.066 208.096 351.54 208.504 351.96 208.732C352.38 208.948 352.842 209.056 353.346 209.056C353.802 209.056 354.21 208.96 354.57 208.768C354.93 208.564 355.218 208.294 355.434 207.958C355.65 207.61 355.758 207.232 355.758 206.824C355.758 206.38 355.656 205.99 355.452 205.654C355.248 205.306 354.972 205.03 354.624 204.826C354.276 204.622 353.88 204.52 353.436 204.52C353.196 204.52 352.968 204.538 352.752 204.574C352.536 204.61 352.284 204.682 351.996 204.79C351.72 204.898 351.366 205.066 350.934 205.294L349.818 203.782L350.556 198.364H357.522V200.434H351.87L352.392 199.858L351.798 203.854L351.132 203.386C351.288 203.242 351.516 203.104 351.816 202.972C352.128 202.84 352.464 202.732 352.824 202.648C353.184 202.564 353.538 202.522 353.886 202.522C354.666 202.522 355.362 202.702 355.974 203.062C356.586 203.422 357.072 203.92 357.432 204.556C357.792 205.18 357.972 205.9 357.972 206.716C357.972 207.544 357.768 208.294 357.36 208.966C356.964 209.626 356.418 210.154 355.722 210.55C355.026 210.934 354.246 211.126 353.382 211.126ZM364.166 211C363.53 211 362.936 210.886 362.384 210.658C361.844 210.43 361.37 210.118 360.962 209.722C360.566 209.314 360.254 208.84 360.026 208.3C359.798 207.76 359.684 207.166 359.684 206.518C359.684 206.158 359.726 205.774 359.81 205.366C359.906 204.958 360.044 204.526 360.224 204.07C360.416 203.602 360.638 203.116 360.89 202.612C361.142 202.108 361.436 201.58 361.772 201.028L363.446 198.184H365.678L365.75 198.364L363.608 201.892C363.26 202.468 362.954 203.014 362.69 203.53C362.426 204.034 362.198 204.52 362.006 204.988C361.826 205.444 361.676 205.888 361.556 206.32L361.07 204.682C361.25 204.298 361.472 203.95 361.736 203.638C362 203.326 362.294 203.062 362.618 202.846C362.942 202.63 363.278 202.468 363.626 202.36C363.986 202.252 364.352 202.198 364.724 202.198C365.42 202.198 366.062 202.39 366.65 202.774C367.238 203.146 367.706 203.644 368.054 204.268C368.414 204.892 368.594 205.576 368.594 206.32C368.594 207.22 368.402 208.024 368.018 208.732C367.646 209.428 367.124 209.98 366.452 210.388C365.78 210.796 365.018 211 364.166 211ZM364.184 208.948C364.616 208.948 365 208.846 365.336 208.642C365.684 208.438 365.954 208.156 366.146 207.796C366.338 207.424 366.434 206.998 366.434 206.518C366.434 206.11 366.332 205.732 366.128 205.384C365.936 205.024 365.672 204.736 365.336 204.52C365 204.292 364.622 204.178 364.202 204.178C363.746 204.178 363.338 204.286 362.978 204.502C362.63 204.706 362.354 204.988 362.15 205.348C361.958 205.696 361.862 206.086 361.862 206.518C361.862 206.974 361.958 207.388 362.15 207.76C362.354 208.12 362.63 208.408 362.978 208.624C363.326 208.84 363.728 208.948 364.184 208.948ZM375.496 211V200.83L376.36 200.92L372.076 206.158L371.878 205.834H379.888V207.868H370.618L369.646 205.996L375.91 198.364H377.746V211H375.496ZM386.274 211.18C385.254 211.18 384.378 210.922 383.646 210.406C382.926 209.878 382.368 209.134 381.972 208.174C381.588 207.202 381.396 206.044 381.396 204.7C381.396 203.356 381.588 202.204 381.972 201.244C382.368 200.272 382.926 199.528 383.646 199.012C384.378 198.484 385.254 198.22 386.274 198.22C387.294 198.22 388.17 198.484 388.902 199.012C389.634 199.528 390.192 200.272 390.576 201.244C390.972 202.204 391.17 203.356 391.17 204.7C391.17 206.044 390.972 207.202 390.576 208.174C390.192 209.134 389.634 209.878 388.902 210.406C388.17 210.922 387.294 211.18 386.274 211.18ZM386.274 209.128C387.114 209.128 387.762 208.744 388.218 207.976C388.686 207.196 388.92 206.104 388.92 204.7C388.92 203.284 388.686 202.186 388.218 201.406C387.762 200.626 387.114 200.236 386.274 200.236C385.434 200.236 384.78 200.626 384.312 201.406C383.856 202.186 383.628 203.284 383.628 204.7C383.628 206.104 383.856 207.196 384.312 207.976C384.78 208.744 385.434 209.128 386.274 209.128Z" fill="#05D68F"/>
<path d="M341.28 258.18C340.2 258.18 339.252 257.982 338.436 257.586C337.62 257.19 336.924 256.608 336.348 255.84L337.734 254.022C338.346 254.814 338.94 255.366 339.516 255.678C340.092 255.99 340.74 256.146 341.46 256.146C341.868 256.146 342.24 256.086 342.576 255.966C342.912 255.834 343.176 255.66 343.368 255.444C343.56 255.216 343.656 254.958 343.656 254.67C343.656 254.466 343.614 254.28 343.53 254.112C343.458 253.932 343.344 253.776 343.188 253.644C343.032 253.5 342.84 253.368 342.612 253.248C342.384 253.128 342.126 253.026 341.838 252.942C341.55 252.858 341.232 252.78 340.884 252.708C339.996 252.528 339.258 252.27 338.67 251.934C338.094 251.586 337.662 251.154 337.374 250.638C337.086 250.122 336.942 249.516 336.942 248.82C336.942 248.292 337.056 247.806 337.284 247.362C337.524 246.918 337.848 246.534 338.256 246.21C338.664 245.886 339.138 245.634 339.678 245.454C340.218 245.274 340.8 245.184 341.424 245.184C342.408 245.184 343.278 245.364 344.034 245.724C344.79 246.072 345.414 246.594 345.906 247.29L344.574 248.91C344.166 248.358 343.692 247.944 343.152 247.668C342.624 247.38 342.048 247.236 341.424 247.236C340.992 247.236 340.614 247.296 340.29 247.416C339.978 247.536 339.732 247.71 339.552 247.938C339.372 248.154 339.282 248.418 339.282 248.73C339.282 248.97 339.336 249.186 339.444 249.378C339.552 249.558 339.702 249.72 339.894 249.864C340.098 250.008 340.356 250.134 340.668 250.242C340.98 250.35 341.334 250.446 341.73 250.53C342.39 250.662 342.984 250.842 343.512 251.07C344.04 251.286 344.49 251.55 344.862 251.862C345.234 252.162 345.516 252.51 345.708 252.906C345.9 253.29 345.996 253.722 345.996 254.202C345.996 255.03 345.798 255.744 345.402 256.344C345.018 256.932 344.472 257.388 343.764 257.712C343.056 258.024 342.228 258.18 341.28 258.18ZM340.2 259.638L340.272 251.394L341.91 251.988L341.982 259.638H340.2ZM342.54 251.988L340.902 251.394L340.83 243.888H342.612L342.54 251.988ZM356.056 257.118V246.894L356.722 247.758L354.166 249.054L353.644 247.002L357.082 245.22H358.378V257.118H356.056ZM353.95 258V255.84H360.538V258H353.95ZM366.756 258C366.12 258 365.526 257.886 364.974 257.658C364.434 257.43 363.96 257.118 363.552 256.722C363.156 256.314 362.844 255.84 362.616 255.3C362.388 254.76 362.274 254.166 362.274 253.518C362.274 253.158 362.316 252.774 362.4 252.366C362.496 251.958 362.634 251.526 362.814 251.07C363.006 250.602 363.228 250.116 363.48 249.612C363.732 249.108 364.026 248.58 364.362 248.028L366.036 245.184H368.268L368.34 245.364L366.198 248.892C365.85 249.468 365.544 250.014 365.28 250.53C365.016 251.034 364.788 251.52 364.596 251.988C364.416 252.444 364.266 252.888 364.146 253.32L363.66 251.682C363.84 251.298 364.062 250.95 364.326 250.638C364.59 250.326 364.884 250.062 365.208 249.846C365.532 249.63 365.868 249.468 366.216 249.36C366.576 249.252 366.942 249.198 367.314 249.198C368.01 249.198 368.652 249.39 369.24 249.774C369.828 250.146 370.296 250.644 370.644 251.268C371.004 251.892 371.184 252.576 371.184 253.32C371.184 254.22 370.992 255.024 370.608 255.732C370.236 256.428 369.714 256.98 369.042 257.388C368.37 257.796 367.608 258 366.756 258ZM366.774 255.948C367.206 255.948 367.59 255.846 367.926 255.642C368.274 255.438 368.544 255.156 368.736 254.796C368.928 254.424 369.024 253.998 369.024 253.518C369.024 253.11 368.922 252.732 368.718 252.384C368.526 252.024 368.262 251.736 367.926 251.52C367.59 251.292 367.212 251.178 366.792 251.178C366.336 251.178 365.928 251.286 365.568 251.502C365.22 251.706 364.944 251.988 364.74 252.348C364.548 252.696 364.452 253.086 364.452 253.518C364.452 253.974 364.548 254.388 364.74 254.76C364.944 255.12 365.22 255.408 365.568 255.624C365.916 255.84 366.318 255.948 366.774 255.948ZM373.604 258L378.77 246.588L379.202 247.47H372.758V245.364H380.696L380.966 246.678L376.034 258H373.604ZM386.382 258.126C385.506 258.126 384.714 257.94 384.006 257.568C383.298 257.184 382.71 256.632 382.242 255.912L383.538 254.508C384.066 255.096 384.54 255.504 384.96 255.732C385.38 255.948 385.842 256.056 386.346 256.056C386.802 256.056 387.21 255.96 387.57 255.768C387.93 255.564 388.218 255.294 388.434 254.958C388.65 254.61 388.758 254.232 388.758 253.824C388.758 253.38 388.656 252.99 388.452 252.654C388.248 252.306 387.972 252.03 387.624 251.826C387.276 251.622 386.88 251.52 386.436 251.52C386.196 251.52 385.968 251.538 385.752 251.574C385.536 251.61 385.284 251.682 384.996 251.79C384.72 251.898 384.366 252.066 383.934 252.294L382.818 250.782L383.556 245.364H390.522V247.434H384.87L385.392 246.858L384.798 250.854L384.132 250.386C384.288 250.242 384.516 250.104 384.816 249.972C385.128 249.84 385.464 249.732 385.824 249.648C386.184 249.564 386.538 249.522 386.886 249.522C387.666 249.522 388.362 249.702 388.974 250.062C389.586 250.422 390.072 250.92 390.432 251.556C390.792 252.18 390.972 252.9 390.972 253.716C390.972 254.544 390.768 255.294 390.36 255.966C389.964 256.626 389.418 257.154 388.722 257.55C388.026 257.934 387.246 258.126 386.382 258.126Z" fill="#F56C6C"/>
<rect x="83" y="326" width="315" height="77" rx="9" fill="white"/>
<rect x="89" y="335" width="303" height="28" rx="5" fill="#E4E6EA"/>
<path d="M111.737 352V345.43H112.675V352H111.737ZM114.047 352V345.43H116.064C116.828 345.43 117.46 345.565 117.96 345.834C118.461 346.103 118.83 346.485 119.068 346.979C119.312 347.467 119.434 348.049 119.434 348.725C119.434 349.4 119.312 349.982 119.068 350.47C118.83 350.958 118.461 351.337 117.96 351.606C117.466 351.869 116.834 352 116.064 352H114.047ZM114.985 351.212H116.027C116.634 351.212 117.116 351.112 117.472 350.911C117.829 350.711 118.082 350.426 118.232 350.057C118.389 349.682 118.467 349.238 118.467 348.725C118.467 348.205 118.389 347.758 118.232 347.382C118.082 347.007 117.829 346.719 117.472 346.519C117.116 346.319 116.634 346.219 116.027 346.219H114.985V351.212Z" fill="black"/>
<path d="M169.386 352V345.43H170.324L173.675 350.47V345.43H174.614V352H173.675L170.324 346.969V352H169.386ZM177.674 352.113C177.305 352.113 176.983 352.038 176.708 351.887C176.439 351.737 176.229 351.512 176.079 351.212C175.935 350.911 175.863 350.533 175.863 350.076V347.27H176.802V349.973C176.802 350.417 176.899 350.752 177.092 350.977C177.286 351.202 177.565 351.315 177.928 351.315C178.172 351.315 178.391 351.255 178.585 351.137C178.785 351.018 178.941 350.846 179.054 350.62C179.167 350.395 179.223 350.12 179.223 349.794V347.27H180.162V352H179.326L179.261 351.193C179.117 351.481 178.907 351.706 178.632 351.869C178.356 352.031 178.037 352.113 177.674 352.113ZM181.446 352V347.27H182.291L182.357 347.936C182.507 347.692 182.707 347.501 182.958 347.364C183.208 347.226 183.489 347.157 183.802 347.157C184.04 347.157 184.256 347.192 184.45 347.26C184.644 347.323 184.816 347.42 184.966 347.551C185.116 347.683 185.238 347.845 185.332 348.039C185.501 347.764 185.726 347.548 186.008 347.392C186.296 347.235 186.599 347.157 186.918 347.157C187.3 347.157 187.628 347.235 187.904 347.392C188.179 347.542 188.389 347.77 188.532 348.077C188.676 348.377 188.748 348.753 188.748 349.203V352H187.819V349.297C187.819 348.859 187.728 348.527 187.547 348.302C187.372 348.077 187.112 347.964 186.768 347.964C186.536 347.964 186.33 348.024 186.149 348.143C185.967 348.261 185.823 348.434 185.717 348.659C185.617 348.884 185.567 349.159 185.567 349.485V352H184.628V349.297C184.628 348.859 184.537 348.527 184.356 348.302C184.181 348.077 183.921 347.964 183.577 347.964C183.358 347.964 183.158 348.024 182.976 348.143C182.795 348.261 182.651 348.434 182.545 348.659C182.438 348.884 182.385 349.159 182.385 349.485V352H181.446ZM192.542 352.113C192.286 352.113 192.051 352.075 191.838 352C191.632 351.931 191.45 351.834 191.294 351.709C191.137 351.584 191.006 351.44 190.9 351.277L190.806 352H189.961V345.243H190.9V348.011C191.05 347.773 191.259 347.573 191.529 347.411C191.804 347.242 192.142 347.157 192.542 347.157C192.993 347.157 193.39 347.267 193.734 347.486C194.078 347.698 194.344 347.992 194.532 348.368C194.726 348.737 194.823 349.162 194.823 349.644C194.823 350.114 194.726 350.536 194.532 350.911C194.344 351.287 194.078 351.581 193.734 351.794C193.39 352.006 192.993 352.113 192.542 352.113ZM192.392 351.296C192.68 351.296 192.933 351.227 193.152 351.09C193.377 350.952 193.553 350.758 193.678 350.508C193.809 350.257 193.875 349.967 193.875 349.635C193.875 349.303 193.809 349.015 193.678 348.771C193.553 348.521 193.377 348.327 193.152 348.19C192.933 348.046 192.68 347.974 192.392 347.974C192.098 347.974 191.838 348.046 191.613 348.19C191.394 348.327 191.222 348.521 191.097 348.771C190.972 349.015 190.909 349.303 190.909 349.635C190.909 349.967 190.972 350.257 191.097 350.508C191.222 350.758 191.394 350.952 191.613 351.09C191.838 351.227 192.098 351.296 192.392 351.296ZM198.059 352.113C197.608 352.113 197.208 352.009 196.857 351.803C196.507 351.596 196.231 351.309 196.031 350.939C195.837 350.57 195.74 350.142 195.74 349.654C195.74 349.153 195.837 348.718 196.031 348.349C196.231 347.974 196.507 347.683 196.857 347.476C197.208 347.264 197.614 347.157 198.077 347.157C198.54 347.157 198.938 347.26 199.269 347.467C199.601 347.673 199.857 347.949 200.039 348.293C200.22 348.631 200.311 349.006 200.311 349.419C200.311 349.482 200.308 349.55 200.302 349.626C200.302 349.694 200.298 349.773 200.292 349.86H196.425V349.194H199.372C199.354 348.8 199.222 348.493 198.978 348.274C198.734 348.049 198.431 347.936 198.068 347.936C197.811 347.936 197.577 347.996 197.364 348.114C197.151 348.227 196.979 348.396 196.848 348.621C196.723 348.84 196.66 349.119 196.66 349.457V349.719C196.66 350.07 196.723 350.367 196.848 350.611C196.979 350.849 197.151 351.03 197.364 351.155C197.577 351.274 197.808 351.334 198.059 351.334C198.359 351.334 198.606 351.268 198.8 351.137C198.994 351.005 199.138 350.827 199.232 350.602H200.17C200.089 350.889 199.951 351.149 199.757 351.381C199.563 351.606 199.322 351.784 199.035 351.916C198.753 352.047 198.428 352.113 198.059 352.113ZM201.354 352V347.27H202.198L202.283 348.161C202.389 347.949 202.527 347.77 202.696 347.626C202.865 347.476 203.062 347.361 203.287 347.279C203.519 347.198 203.781 347.157 204.075 347.157V348.152H203.738C203.544 348.152 203.359 348.177 203.184 348.227C203.009 348.271 202.852 348.349 202.715 348.462C202.583 348.574 202.48 348.728 202.405 348.922C202.33 349.116 202.292 349.356 202.292 349.644V352H201.354Z" fill="black"/>
<path d="M240.215 352V346.2H238.272V345.43H243.106V346.2H241.153V352H240.215ZM245.325 352.113C244.88 352.113 244.48 352.009 244.123 351.803C243.773 351.596 243.494 351.309 243.288 350.939C243.088 350.564 242.988 350.132 242.988 349.644C242.988 349.144 243.091 348.709 243.297 348.34C243.504 347.964 243.785 347.673 244.142 347.467C244.499 347.26 244.899 347.157 245.343 347.157C245.794 347.157 246.194 347.26 246.545 347.467C246.895 347.673 247.17 347.961 247.371 348.33C247.577 348.699 247.68 349.134 247.68 349.635C247.68 350.135 247.577 350.57 247.371 350.939C247.17 351.309 246.892 351.596 246.535 351.803C246.179 352.009 245.775 352.113 245.325 352.113ZM245.325 351.305C245.581 351.305 245.813 351.243 246.019 351.118C246.232 350.993 246.401 350.808 246.526 350.564C246.657 350.314 246.723 350.004 246.723 349.635C246.723 349.266 246.66 348.959 246.535 348.715C246.41 348.465 246.241 348.277 246.028 348.152C245.822 348.027 245.594 347.964 245.343 347.964C245.093 347.964 244.862 348.027 244.649 348.152C244.436 348.277 244.264 348.465 244.133 348.715C244.007 348.959 243.945 349.266 243.945 349.635C243.945 350.004 244.007 350.314 244.133 350.564C244.264 350.808 244.433 350.993 244.639 351.118C244.852 351.243 245.081 351.305 245.325 351.305ZM250.544 352C250.25 352 249.993 351.953 249.774 351.859C249.555 351.765 249.386 351.609 249.267 351.39C249.148 351.171 249.089 350.874 249.089 350.498V348.068H248.273V347.27H249.089L249.202 346.087H250.028V347.27H251.37V348.068H250.028V350.508C250.028 350.777 250.084 350.961 250.197 351.061C250.309 351.155 250.503 351.202 250.778 351.202H251.323V352H250.544ZM253.972 352.113C253.584 352.113 253.262 352.047 253.005 351.916C252.749 351.784 252.558 351.609 252.433 351.39C252.308 351.165 252.245 350.924 252.245 350.667C252.245 350.354 252.326 350.089 252.489 349.87C252.652 349.644 252.883 349.472 253.184 349.353C253.484 349.234 253.844 349.175 254.263 349.175H255.492C255.492 348.9 255.452 348.671 255.37 348.49C255.289 348.308 255.167 348.174 255.004 348.086C254.848 347.992 254.648 347.946 254.404 347.946C254.122 347.946 253.881 348.014 253.681 348.152C253.481 348.283 253.356 348.48 253.306 348.743H252.367C252.405 348.412 252.517 348.13 252.705 347.899C252.899 347.661 253.146 347.479 253.446 347.354C253.747 347.223 254.066 347.157 254.404 347.157C254.848 347.157 255.22 347.235 255.521 347.392C255.821 347.548 256.046 347.77 256.196 348.058C256.353 348.34 256.431 348.678 256.431 349.072V352H255.614L255.539 351.202C255.471 351.327 255.389 351.446 255.295 351.559C255.201 351.672 255.089 351.768 254.957 351.85C254.832 351.931 254.685 351.994 254.516 352.038C254.354 352.088 254.172 352.113 253.972 352.113ZM254.15 351.352C254.351 351.352 254.532 351.312 254.695 351.23C254.857 351.149 254.995 351.04 255.108 350.902C255.226 350.758 255.314 350.598 255.37 350.423C255.433 350.242 255.467 350.057 255.474 349.87V349.841H254.357C254.088 349.841 253.869 349.876 253.7 349.945C253.537 350.007 253.418 350.095 253.343 350.207C253.268 350.32 253.231 350.451 253.231 350.602C253.231 350.758 253.265 350.893 253.334 351.005C253.409 351.112 253.515 351.196 253.653 351.259C253.791 351.321 253.956 351.352 254.15 351.352ZM257.629 352V345.243H258.567V352H257.629ZM262.304 352V345.43H264.322C265.086 345.43 265.718 345.565 266.218 345.834C266.719 346.103 267.088 346.485 267.326 346.979C267.57 347.467 267.692 348.049 267.692 348.725C267.692 349.4 267.57 349.982 267.326 350.47C267.088 350.958 266.719 351.337 266.218 351.606C265.724 351.869 265.092 352 264.322 352H262.304ZM263.243 351.212H264.285C264.892 351.212 265.373 351.112 265.73 350.911C266.087 350.711 266.34 350.426 266.49 350.057C266.647 349.682 266.725 349.238 266.725 348.725C266.725 348.205 266.647 347.758 266.49 347.382C266.34 347.007 266.087 346.719 265.73 346.519C265.373 346.319 264.892 346.219 264.285 346.219H263.243V351.212ZM270.51 352.113C270.141 352.113 269.819 352.038 269.544 351.887C269.275 351.737 269.065 351.512 268.915 351.212C268.771 350.911 268.699 350.533 268.699 350.076V347.27H269.637V349.973C269.637 350.417 269.734 350.752 269.928 350.977C270.122 351.202 270.401 351.315 270.764 351.315C271.008 351.315 271.227 351.255 271.421 351.137C271.621 351.018 271.777 350.846 271.89 350.62C272.003 350.395 272.059 350.12 272.059 349.794V347.27H272.997V352H272.162L272.096 351.193C271.953 351.481 271.743 351.706 271.468 351.869C271.192 352.031 270.873 352.113 270.51 352.113ZM276.422 352.113C275.972 352.113 275.571 352.009 275.221 351.803C274.871 351.596 274.595 351.309 274.395 350.939C274.201 350.57 274.104 350.142 274.104 349.654C274.104 349.153 274.201 348.718 274.395 348.349C274.595 347.974 274.871 347.683 275.221 347.476C275.571 347.264 275.978 347.157 276.441 347.157C276.904 347.157 277.301 347.26 277.633 347.467C277.965 347.673 278.221 347.949 278.403 348.293C278.584 348.631 278.675 349.006 278.675 349.419C278.675 349.482 278.672 349.55 278.665 349.626C278.665 349.694 278.662 349.773 278.656 349.86H274.789V349.194H277.736C277.717 348.8 277.586 348.493 277.342 348.274C277.098 348.049 276.795 347.936 276.432 347.936C276.175 347.936 275.941 347.996 275.728 348.114C275.515 348.227 275.343 348.396 275.212 348.621C275.086 348.84 275.024 349.119 275.024 349.457V349.719C275.024 350.07 275.086 350.367 275.212 350.611C275.343 350.849 275.515 351.03 275.728 351.155C275.941 351.274 276.172 351.334 276.422 351.334C276.723 351.334 276.97 351.268 277.164 351.137C277.358 351.005 277.502 350.827 277.595 350.602H278.534C278.453 350.889 278.315 351.149 278.121 351.381C277.927 351.606 277.686 351.784 277.398 351.916C277.117 352.047 276.791 352.113 276.422 352.113Z" fill="black"/>
<path d="M317.685 352V345.43H318.624V352H317.685ZM321.778 352.113C321.378 352.113 321.027 352.047 320.727 351.916C320.427 351.784 320.189 351.6 320.014 351.362C319.838 351.124 319.732 350.846 319.694 350.526H320.652C320.683 350.677 320.743 350.814 320.83 350.939C320.924 351.065 321.049 351.165 321.206 351.24C321.368 351.315 321.559 351.352 321.778 351.352C321.985 351.352 322.153 351.324 322.285 351.268C322.422 351.205 322.523 351.124 322.585 351.024C322.648 350.918 322.679 350.805 322.679 350.686C322.679 350.511 322.635 350.379 322.548 350.292C322.466 350.198 322.341 350.126 322.172 350.076C322.01 350.02 321.812 349.97 321.581 349.926C321.362 349.888 321.149 349.838 320.943 349.776C320.743 349.707 320.561 349.622 320.398 349.522C320.242 349.422 320.117 349.297 320.023 349.147C319.929 348.99 319.882 348.8 319.882 348.574C319.882 348.305 319.954 348.064 320.098 347.852C320.242 347.633 320.445 347.464 320.708 347.345C320.977 347.22 321.293 347.157 321.656 347.157C322.182 347.157 322.604 347.282 322.923 347.533C323.242 347.783 323.43 348.136 323.486 348.593H322.576C322.551 348.38 322.457 348.218 322.294 348.105C322.132 347.986 321.916 347.927 321.647 347.927C321.378 347.927 321.171 347.98 321.027 348.086C320.883 348.193 320.811 348.333 320.811 348.509C320.811 348.621 320.852 348.721 320.933 348.809C321.015 348.897 321.134 348.972 321.29 349.034C321.453 349.091 321.65 349.144 321.881 349.194C322.213 349.256 322.51 349.335 322.773 349.428C323.036 349.522 323.245 349.66 323.402 349.841C323.558 350.023 323.636 350.282 323.636 350.62C323.643 350.914 323.568 351.174 323.411 351.399C323.261 351.625 323.045 351.8 322.763 351.925C322.488 352.05 322.16 352.113 321.778 352.113ZM326.572 352.113C326.171 352.113 325.821 352.047 325.52 351.916C325.22 351.784 324.982 351.6 324.807 351.362C324.632 351.124 324.526 350.846 324.488 350.526H325.445C325.477 350.677 325.536 350.814 325.624 350.939C325.717 351.065 325.843 351.165 325.999 351.24C326.162 351.315 326.353 351.352 326.572 351.352C326.778 351.352 326.947 351.324 327.078 351.268C327.216 351.205 327.316 351.124 327.379 351.024C327.441 350.918 327.473 350.805 327.473 350.686C327.473 350.511 327.429 350.379 327.341 350.292C327.26 350.198 327.135 350.126 326.966 350.076C326.803 350.02 326.606 349.97 326.374 349.926C326.155 349.888 325.943 349.838 325.736 349.776C325.536 349.707 325.355 349.622 325.192 349.522C325.035 349.422 324.91 349.297 324.816 349.147C324.723 348.99 324.676 348.8 324.676 348.574C324.676 348.305 324.748 348.064 324.892 347.852C325.035 347.633 325.239 347.464 325.502 347.345C325.771 347.22 326.087 347.157 326.45 347.157C326.975 347.157 327.397 347.282 327.717 347.533C328.036 347.783 328.223 348.136 328.28 348.593H327.369C327.344 348.38 327.25 348.218 327.088 348.105C326.925 347.986 326.709 347.927 326.44 347.927C326.171 347.927 325.965 347.98 325.821 348.086C325.677 348.193 325.605 348.333 325.605 348.509C325.605 348.621 325.646 348.721 325.727 348.809C325.808 348.897 325.927 348.972 326.083 349.034C326.246 349.091 326.443 349.144 326.675 349.194C327.006 349.256 327.304 349.335 327.566 349.428C327.829 349.522 328.039 349.66 328.195 349.841C328.352 350.023 328.43 350.282 328.43 350.62C328.436 350.914 328.361 351.174 328.205 351.399C328.054 351.625 327.839 351.8 327.557 351.925C327.282 352.05 326.953 352.113 326.572 352.113ZM331.271 352.113C330.902 352.113 330.58 352.038 330.304 351.887C330.035 351.737 329.826 351.512 329.676 351.212C329.532 350.911 329.46 350.533 329.46 350.076V347.27H330.398V349.973C330.398 350.417 330.495 350.752 330.689 350.977C330.883 351.202 331.162 351.315 331.525 351.315C331.769 351.315 331.988 351.255 332.182 351.137C332.382 351.018 332.538 350.846 332.651 350.62C332.763 350.395 332.82 350.12 332.82 349.794V347.27H333.758V352H332.923L332.857 351.193C332.713 351.481 332.504 351.706 332.228 351.869C331.953 352.031 331.634 352.113 331.271 352.113ZM337.183 352.113C336.733 352.113 336.332 352.009 335.982 351.803C335.631 351.596 335.356 351.309 335.156 350.939C334.962 350.57 334.865 350.142 334.865 349.654C334.865 349.153 334.962 348.718 335.156 348.349C335.356 347.974 335.631 347.683 335.982 347.476C336.332 347.264 336.739 347.157 337.202 347.157C337.665 347.157 338.062 347.26 338.394 347.467C338.725 347.673 338.982 347.949 339.163 348.293C339.345 348.631 339.436 349.006 339.436 349.419C339.436 349.482 339.433 349.55 339.426 349.626C339.426 349.694 339.423 349.773 339.417 349.86H335.55V349.194H338.497C338.478 348.8 338.347 348.493 338.103 348.274C337.859 348.049 337.555 347.936 337.193 347.936C336.936 347.936 336.701 347.996 336.489 348.114C336.276 348.227 336.104 348.396 335.972 348.621C335.847 348.84 335.785 349.119 335.785 349.457V349.719C335.785 350.07 335.847 350.367 335.972 350.611C336.104 350.849 336.276 351.03 336.489 351.155C336.701 351.274 336.933 351.334 337.183 351.334C337.483 351.334 337.731 351.268 337.925 351.137C338.119 351.005 338.262 350.827 338.356 350.602H339.295C339.214 350.889 339.076 351.149 338.882 351.381C338.688 351.606 338.447 351.784 338.159 351.916C337.878 352.047 337.552 352.113 337.183 352.113ZM342.927 352V345.43H344.944C345.708 345.43 346.34 345.565 346.84 345.834C347.341 346.103 347.71 346.485 347.948 346.979C348.192 347.467 348.314 348.049 348.314 348.725C348.314 349.4 348.192 349.982 347.948 350.47C347.71 350.958 347.341 351.337 346.84 351.606C346.346 351.869 345.714 352 344.944 352H342.927ZM343.865 351.212H344.907C345.514 351.212 345.996 351.112 346.352 350.911C346.709 350.711 346.962 350.426 347.113 350.057C347.269 349.682 347.347 349.238 347.347 348.725C347.347 348.205 347.269 347.758 347.113 347.382C346.962 347.007 346.709 346.719 346.352 346.519C345.996 346.319 345.514 346.219 344.907 346.219H343.865V351.212ZM350.964 352.113C350.576 352.113 350.253 352.047 349.997 351.916C349.74 351.784 349.55 351.609 349.424 351.39C349.299 351.165 349.237 350.924 349.237 350.667C349.237 350.354 349.318 350.089 349.481 349.87C349.643 349.644 349.875 349.472 350.175 349.353C350.476 349.234 350.835 349.175 351.255 349.175H352.484C352.484 348.9 352.443 348.671 352.362 348.49C352.281 348.308 352.159 348.174 351.996 348.086C351.84 347.992 351.639 347.946 351.395 347.946C351.114 347.946 350.873 348.014 350.673 348.152C350.472 348.283 350.347 348.48 350.297 348.743H349.359C349.396 348.412 349.509 348.13 349.697 347.899C349.891 347.661 350.138 347.479 350.438 347.354C350.738 347.223 351.058 347.157 351.395 347.157C351.84 347.157 352.212 347.235 352.512 347.392C352.813 347.548 353.038 347.77 353.188 348.058C353.344 348.34 353.423 348.678 353.423 349.072V352H352.606L352.531 351.202C352.462 351.327 352.381 351.446 352.287 351.559C352.193 351.672 352.081 351.768 351.949 351.85C351.824 351.931 351.677 351.994 351.508 352.038C351.345 352.088 351.164 352.113 350.964 352.113ZM351.142 351.352C351.342 351.352 351.524 351.312 351.686 351.23C351.849 351.149 351.987 351.04 352.099 350.902C352.218 350.758 352.306 350.598 352.362 350.423C352.425 350.242 352.459 350.057 352.465 349.87V349.841H351.348C351.079 349.841 350.86 349.876 350.691 349.945C350.529 350.007 350.41 350.095 350.335 350.207C350.26 350.32 350.222 350.451 350.222 350.602C350.222 350.758 350.257 350.893 350.325 351.005C350.401 351.112 350.507 351.196 350.645 351.259C350.782 351.321 350.948 351.352 351.142 351.352ZM356.463 352C356.168 352 355.912 351.953 355.693 351.859C355.474 351.765 355.305 351.609 355.186 351.39C355.067 351.171 355.008 350.874 355.008 350.498V348.068H354.191V347.27H355.008L355.12 346.087H355.946V347.27H357.288V348.068H355.946V350.508C355.946 350.777 356.003 350.961 356.115 351.061C356.228 351.155 356.422 351.202 356.697 351.202H357.242V352H356.463ZM360.335 352.113C359.884 352.113 359.484 352.009 359.134 351.803C358.783 351.596 358.508 351.309 358.308 350.939C358.114 350.57 358.017 350.142 358.017 349.654C358.017 349.153 358.114 348.718 358.308 348.349C358.508 347.974 358.783 347.683 359.134 347.476C359.484 347.264 359.891 347.157 360.354 347.157C360.817 347.157 361.214 347.26 361.546 347.467C361.877 347.673 362.134 347.949 362.315 348.293C362.497 348.631 362.587 349.006 362.587 349.419C362.587 349.482 362.584 349.55 362.578 349.626C362.578 349.694 362.575 349.773 362.569 349.86H358.702V349.194H361.649C361.63 348.8 361.499 348.493 361.255 348.274C361.011 348.049 360.707 347.936 360.344 347.936C360.088 347.936 359.853 347.996 359.64 348.114C359.428 348.227 359.256 348.396 359.124 348.621C358.999 348.84 358.937 349.119 358.937 349.457V349.719C358.937 350.07 358.999 350.367 359.124 350.611C359.256 350.849 359.428 351.03 359.64 351.155C359.853 351.274 360.085 351.334 360.335 351.334C360.635 351.334 360.882 351.268 361.076 351.137C361.27 351.005 361.414 350.827 361.508 350.602H362.447C362.365 350.889 362.228 351.149 362.034 351.381C361.84 351.606 361.599 351.784 361.311 351.916C361.029 352.047 360.704 352.113 360.335 352.113Z" fill="black"/>
<path d="M133.214 371H96.7857C95.7995 371 95 372.567 95 374.5C95 376.433 95.7995 378 96.7857 378H133.214C134.201 378 135 376.433 135 374.5C135 372.567 134.201 371 133.214 371Z" fill="#E4E6EA"/>
<path d="M133.214 386H96.7857C95.7995 386 95 387.567 95 389.5C95 391.433 95.7995 393 96.7857 393H133.214C134.201 393 135 391.433 135 389.5C135 387.567 134.201 386 133.214 386Z" fill="#E4E6EA"/>
<path d="M207.946 371H166.054C164.919 371 164 372.567 164 374.5C164 376.433 164.919 378 166.054 378H207.946C209.081 378 210 376.433 210 374.5C210 372.567 209.081 371 207.946 371Z" fill="#E4E6EA"/>
<path d="M207.946 386H166.054C164.919 386 164 387.567 164 389.5C164 391.433 164.919 393 166.054 393H207.946C209.081 393 210 391.433 210 389.5C210 387.567 209.081 386 207.946 386Z" fill="#E4E6EA"/>
<path d="M286.321 371H231.679C230.199 371 229 372.567 229 374.5C229 376.433 230.199 378 231.679 378H286.321C287.801 378 289 376.433 289 374.5C289 372.567 287.801 371 286.321 371Z" fill="#E4E6EA"/>
<path d="M286.321 386H231.679C230.199 386 229 387.567 229 389.5C229 391.433 230.199 393 231.679 393H286.321C287.801 393 289 391.433 289 389.5C289 387.567 287.801 386 286.321 386Z" fill="#E4E6EA"/>
<path d="M377.339 371H302.661C300.639 371 299 372.567 299 374.5C299 376.433 300.639 378 302.661 378H377.339C379.361 378 381 376.433 381 374.5C381 372.567 379.361 371 377.339 371Z" fill="#E4E6EA"/>
<path d="M377.339 386H302.661C300.639 386 299 387.567 299 389.5C299 391.433 300.639 393 302.661 393H377.339C379.361 393 381 391.433 381 389.5C381 387.567 379.361 386 377.339 386Z" fill="#E4E6EA"/>
<rect x="83" y="411" width="315" height="41" rx="6" fill="#0900FF"/>
<path d="M195.274 437V427.2H197.15L202.568 434.522H202.176C202.139 434.233 202.106 433.953 202.078 433.682C202.05 433.402 202.022 433.122 201.994 432.842C201.975 432.553 201.957 432.259 201.938 431.96C201.929 431.652 201.919 431.33 201.91 430.994C201.901 430.649 201.896 430.275 201.896 429.874V427.2H203.954V437H202.05L196.52 429.608L197.052 429.622C197.099 430.107 197.136 430.523 197.164 430.868C197.201 431.204 197.229 431.498 197.248 431.75C197.276 432.002 197.295 432.221 197.304 432.408C197.313 432.595 197.318 432.772 197.318 432.94C197.327 433.108 197.332 433.285 197.332 433.472V437H195.274ZM209.733 437.14C208.93 437.14 208.225 436.977 207.619 436.65C207.021 436.323 206.555 435.875 206.219 435.306C205.892 434.737 205.729 434.083 205.729 433.346C205.729 432.767 205.822 432.24 206.009 431.764C206.195 431.288 206.457 430.877 206.793 430.532C207.129 430.177 207.525 429.907 207.983 429.72C208.449 429.524 208.953 429.426 209.495 429.426C209.999 429.426 210.465 429.519 210.895 429.706C211.324 429.893 211.693 430.154 212.001 430.49C212.318 430.817 212.561 431.209 212.729 431.666C212.897 432.114 212.971 432.599 212.953 433.122L212.939 433.738H206.989L206.667 432.52H211.301L211.077 432.772V432.464C211.058 432.212 210.974 431.988 210.825 431.792C210.685 431.587 210.503 431.428 210.279 431.316C210.055 431.195 209.803 431.134 209.523 431.134C209.112 431.134 208.762 431.213 208.473 431.372C208.193 431.531 207.978 431.764 207.829 432.072C207.679 432.38 207.605 432.753 207.605 433.192C207.605 433.64 207.698 434.027 207.885 434.354C208.081 434.681 208.351 434.937 208.697 435.124C209.051 435.301 209.467 435.39 209.943 435.39C210.269 435.39 210.568 435.339 210.839 435.236C211.109 435.133 211.399 434.956 211.707 434.704L212.659 436.034C212.388 436.277 212.089 436.482 211.763 436.65C211.436 436.809 211.1 436.93 210.755 437.014C210.409 437.098 210.069 437.14 209.733 437.14ZM215.979 437L213.501 429.594L215.573 429.58L217.085 434.634L216.777 434.592L218.443 430.658H219.619L221.355 434.606L221.019 434.634L222.531 429.594H224.603L222.083 437H220.641L218.891 432.786L219.115 432.814L217.407 437H215.979ZM230.383 437V427.2H237.005V429.048H232.441V435.152H237.103V437H230.383ZM231.363 432.898V431.106H236.333V432.898H231.363ZM243.666 437L241.832 434.382L241.272 433.598L238.276 429.594H240.684L242.476 432.128L243.092 432.954L246.046 437H243.666ZM238.248 437L241.202 432.954L242.294 434.256L240.586 437H238.248ZM243.008 433.668L241.944 432.366L243.526 429.594H245.864L243.008 433.668ZM247.275 440.08V429.594H249.193L249.249 431.26L248.885 431.134C248.951 430.835 249.109 430.56 249.361 430.308C249.623 430.056 249.945 429.851 250.327 429.692C250.71 429.533 251.111 429.454 251.531 429.454C252.175 429.454 252.749 429.622 253.253 429.958C253.757 430.285 254.154 430.737 254.443 431.316C254.733 431.885 254.877 432.543 254.877 433.29C254.877 434.027 254.733 434.685 254.443 435.264C254.154 435.843 253.757 436.3 253.253 436.636C252.749 436.963 252.175 437.126 251.531 437.126C251.102 437.126 250.691 437.047 250.299 436.888C249.917 436.72 249.59 436.501 249.319 436.23C249.058 435.959 248.89 435.67 248.815 435.362L249.277 435.166V440.08H247.275ZM251.083 435.418C251.447 435.418 251.769 435.329 252.049 435.152C252.329 434.975 252.549 434.727 252.707 434.41C252.866 434.083 252.945 433.71 252.945 433.29C252.945 432.87 252.866 432.501 252.707 432.184C252.549 431.867 252.329 431.619 252.049 431.442C251.779 431.265 251.457 431.176 251.083 431.176C250.71 431.176 250.383 431.265 250.103 431.442C249.823 431.61 249.604 431.857 249.445 432.184C249.287 432.501 249.207 432.87 249.207 433.29C249.207 433.71 249.287 434.083 249.445 434.41C249.604 434.727 249.823 434.975 250.103 435.152C250.383 435.329 250.71 435.418 251.083 435.418ZM259.895 437.14C259.092 437.14 258.387 436.977 257.781 436.65C257.183 436.323 256.717 435.875 256.381 435.306C256.054 434.737 255.891 434.083 255.891 433.346C255.891 432.767 255.984 432.24 256.171 431.764C256.357 431.288 256.619 430.877 256.955 430.532C257.291 430.177 257.687 429.907 258.145 429.72C258.611 429.524 259.115 429.426 259.657 429.426C260.161 429.426 260.627 429.519 261.057 429.706C261.486 429.893 261.855 430.154 262.163 430.49C262.48 430.817 262.723 431.209 262.891 431.666C263.059 432.114 263.133 432.599 263.115 433.122L263.101 433.738H257.151L256.829 432.52H261.463L261.239 432.772V432.464C261.22 432.212 261.136 431.988 260.987 431.792C260.847 431.587 260.665 431.428 260.441 431.316C260.217 431.195 259.965 431.134 259.685 431.134C259.274 431.134 258.924 431.213 258.635 431.372C258.355 431.531 258.14 431.764 257.991 432.072C257.841 432.38 257.767 432.753 257.767 433.192C257.767 433.64 257.86 434.027 258.047 434.354C258.243 434.681 258.513 434.937 258.859 435.124C259.213 435.301 259.629 435.39 260.105 435.39C260.431 435.39 260.73 435.339 261.001 435.236C261.271 435.133 261.561 434.956 261.869 434.704L262.821 436.034C262.55 436.277 262.251 436.482 261.925 436.65C261.598 436.809 261.262 436.93 260.917 437.014C260.571 437.098 260.231 437.14 259.895 437.14ZM264.584 437V429.594H266.488L266.544 431.106L266.152 431.274C266.255 430.938 266.437 430.635 266.698 430.364C266.969 430.084 267.291 429.86 267.664 429.692C268.037 429.524 268.429 429.44 268.84 429.44C269.4 429.44 269.867 429.552 270.24 429.776C270.623 430 270.907 430.341 271.094 430.798C271.29 431.246 271.388 431.801 271.388 432.464V437H269.4V432.618C269.4 432.282 269.353 432.002 269.26 431.778C269.167 431.554 269.022 431.391 268.826 431.288C268.639 431.185 268.406 431.139 268.126 431.148C267.902 431.148 267.692 431.185 267.496 431.26C267.309 431.325 267.146 431.423 267.006 431.554C266.875 431.685 266.768 431.834 266.684 432.002C266.609 432.17 266.572 432.352 266.572 432.548V437H265.592C265.377 437 265.186 437 265.018 437C264.85 437 264.705 437 264.584 437ZM275.785 437.14C275.094 437.14 274.478 437.028 273.937 436.804C273.405 436.571 272.975 436.253 272.649 435.852L273.895 434.788C274.175 435.096 274.492 435.32 274.847 435.46C275.201 435.591 275.556 435.656 275.911 435.656C276.051 435.656 276.177 435.642 276.289 435.614C276.41 435.577 276.513 435.53 276.597 435.474C276.681 435.409 276.741 435.334 276.779 435.25C276.825 435.157 276.849 435.059 276.849 434.956C276.849 434.751 276.765 434.592 276.597 434.48C276.503 434.424 276.359 434.363 276.163 434.298C275.967 434.223 275.715 434.144 275.407 434.06C274.931 433.939 274.525 433.799 274.189 433.64C273.862 433.472 273.601 433.285 273.405 433.08C273.237 432.884 273.106 432.674 273.013 432.45C272.929 432.217 272.887 431.96 272.887 431.68C272.887 431.344 272.961 431.041 273.111 430.77C273.26 430.49 273.465 430.252 273.727 430.056C273.997 429.86 274.305 429.711 274.651 429.608C274.996 429.496 275.36 429.44 275.743 429.44C276.125 429.44 276.499 429.487 276.863 429.58C277.227 429.673 277.563 429.809 277.871 429.986C278.188 430.154 278.463 430.355 278.697 430.588L277.633 431.764C277.465 431.605 277.273 431.461 277.059 431.33C276.853 431.199 276.639 431.097 276.415 431.022C276.191 430.947 275.99 430.91 275.813 430.91C275.654 430.91 275.509 430.924 275.379 430.952C275.257 430.98 275.155 431.027 275.071 431.092C274.987 431.148 274.921 431.218 274.875 431.302C274.837 431.386 274.819 431.479 274.819 431.582C274.819 431.685 274.842 431.783 274.889 431.876C274.945 431.969 275.019 432.049 275.113 432.114C275.215 432.17 275.365 432.235 275.561 432.31C275.766 432.385 276.041 432.469 276.387 432.562C276.835 432.683 277.213 432.819 277.521 432.968C277.838 433.117 278.09 433.29 278.277 433.486C278.435 433.654 278.552 433.845 278.627 434.06C278.701 434.275 278.739 434.513 278.739 434.774C278.739 435.231 278.608 435.637 278.347 435.992C278.095 436.347 277.745 436.627 277.297 436.832C276.849 437.037 276.345 437.14 275.785 437.14ZM283.67 437.14C282.867 437.14 282.163 436.977 281.556 436.65C280.959 436.323 280.492 435.875 280.156 435.306C279.829 434.737 279.666 434.083 279.666 433.346C279.666 432.767 279.759 432.24 279.946 431.764C280.133 431.288 280.394 430.877 280.73 430.532C281.066 430.177 281.463 429.907 281.92 429.72C282.387 429.524 282.891 429.426 283.432 429.426C283.936 429.426 284.403 429.519 284.832 429.706C285.261 429.893 285.63 430.154 285.938 430.49C286.255 430.817 286.498 431.209 286.666 431.666C286.834 432.114 286.909 432.599 286.89 433.122L286.876 433.738H280.926L280.604 432.52H285.238L285.014 432.772V432.464C284.995 432.212 284.911 431.988 284.762 431.792C284.622 431.587 284.44 431.428 284.216 431.316C283.992 431.195 283.74 431.134 283.46 431.134C283.049 431.134 282.699 431.213 282.41 431.372C282.13 431.531 281.915 431.764 281.766 432.072C281.617 432.38 281.542 432.753 281.542 433.192C281.542 433.64 281.635 434.027 281.822 434.354C282.018 434.681 282.289 434.937 282.634 435.124C282.989 435.301 283.404 435.39 283.88 435.39C284.207 435.39 284.505 435.339 284.776 435.236C285.047 435.133 285.336 434.956 285.644 434.704L286.596 436.034C286.325 436.277 286.027 436.482 285.7 436.65C285.373 436.809 285.037 436.93 284.692 437.014C284.347 437.098 284.006 437.14 283.67 437.14Z" fill="white"/>
</svg>
