<svg width="480" height="540" viewBox="0 0 480 540" fill="none" xmlns="http://www.w3.org/2000/svg">
<path d="M85 76H396C405.389 76 413 83.6112 413 93V447C413 456.389 405.389 464 396 464H85C75.6111 464 68 456.389 68 447V93C68 83.6112 75.6111 76 85 76Z" fill="#F1F5F7"/>
<path d="M89.678 121.21C88.768 121.21 87.935 121.098 87.179 120.874C86.437 120.65 85.772 120.321 85.184 119.887C84.61 119.453 84.092 118.928 83.63 118.312L85.604 116.065C86.29 117.017 86.969 117.668 87.641 118.018C88.327 118.354 89.069 118.522 89.867 118.522C90.301 118.522 90.686 118.459 91.022 118.333C91.372 118.207 91.645 118.039 91.841 117.829C92.037 117.605 92.135 117.339 92.135 117.031C92.135 116.807 92.086 116.604 91.988 116.422C91.89 116.226 91.75 116.058 91.568 115.918C91.386 115.764 91.169 115.631 90.917 115.519C90.665 115.393 90.385 115.288 90.077 115.204C89.769 115.106 89.433 115.029 89.069 114.973C88.285 114.791 87.599 114.574 87.011 114.322C86.423 114.056 85.933 113.734 85.541 113.356C85.149 112.964 84.855 112.523 84.659 112.033C84.477 111.543 84.386 110.99 84.386 110.374C84.386 109.744 84.526 109.163 84.806 108.631C85.086 108.085 85.471 107.616 85.961 107.224C86.465 106.832 87.039 106.531 87.683 106.321C88.341 106.111 89.034 106.006 89.762 106.006C90.658 106.006 91.442 106.104 92.114 106.3C92.786 106.496 93.367 106.79 93.857 107.182C94.361 107.56 94.781 108.022 95.117 108.568L93.122 110.5C92.828 110.108 92.506 109.779 92.156 109.513C91.82 109.247 91.449 109.051 91.043 108.925C90.651 108.785 90.245 108.715 89.825 108.715C89.363 108.715 88.964 108.778 88.628 108.904C88.292 109.016 88.026 109.191 87.83 109.429C87.648 109.653 87.557 109.919 87.557 110.227C87.557 110.479 87.62 110.703 87.746 110.899C87.872 111.095 88.054 111.27 88.292 111.424C88.53 111.564 88.817 111.69 89.153 111.802C89.489 111.914 89.86 112.012 90.266 112.096C91.036 112.25 91.729 112.453 92.345 112.705C92.961 112.957 93.486 113.265 93.92 113.629C94.368 113.979 94.711 114.399 94.949 114.889C95.187 115.365 95.306 115.904 95.306 116.506C95.306 117.5 95.068 118.347 94.592 119.047C94.116 119.747 93.458 120.286 92.618 120.664C91.778 121.028 90.798 121.21 89.678 121.21ZM97.718 121V109.891H100.595L100.658 112.012L100.217 112.096C100.371 111.732 100.574 111.403 100.826 111.109C101.092 110.815 101.393 110.563 101.729 110.353C102.065 110.143 102.422 109.982 102.8 109.87C103.178 109.744 103.556 109.681 103.934 109.681C104.508 109.681 105.026 109.772 105.488 109.954C105.95 110.136 106.342 110.423 106.664 110.815C106.986 111.193 107.238 111.697 107.42 112.327L106.958 112.285L107.105 111.949C107.287 111.613 107.518 111.305 107.798 111.025C108.078 110.745 108.393 110.507 108.743 110.311C109.093 110.115 109.457 109.961 109.835 109.849C110.213 109.737 110.584 109.681 110.948 109.681C111.816 109.681 112.537 109.856 113.111 110.206C113.685 110.542 114.112 111.053 114.392 111.739C114.686 112.425 114.833 113.265 114.833 114.259V121H111.851V114.469C111.851 113.965 111.781 113.552 111.641 113.23C111.501 112.908 111.298 112.67 111.032 112.516C110.766 112.348 110.423 112.264 110.003 112.264C109.681 112.264 109.38 112.32 109.1 112.432C108.834 112.53 108.596 112.677 108.386 112.873C108.19 113.055 108.036 113.279 107.924 113.545C107.812 113.797 107.756 114.07 107.756 114.364V121H104.753V114.448C104.753 113.986 104.683 113.594 104.543 113.272C104.403 112.936 104.2 112.684 103.934 112.516C103.668 112.348 103.339 112.264 102.947 112.264C102.625 112.264 102.324 112.32 102.044 112.432C101.778 112.53 101.547 112.677 101.351 112.873C101.155 113.055 101.001 113.272 100.889 113.524C100.777 113.776 100.721 114.049 100.721 114.343V121H97.718ZM121.831 121.21C120.907 121.21 120.074 120.958 119.332 120.454C118.59 119.95 118.002 119.264 117.568 118.396C117.134 117.528 116.917 116.534 116.917 115.414C116.917 114.294 117.134 113.3 117.568 112.432C118.016 111.564 118.618 110.885 119.374 110.395C120.13 109.905 120.991 109.66 121.957 109.66C122.503 109.66 123 109.744 123.448 109.912C123.91 110.066 124.309 110.283 124.645 110.563C124.995 110.843 125.289 111.165 125.527 111.529C125.765 111.893 125.933 112.285 126.031 112.705L125.401 112.6V109.891H128.362V121H125.359V118.333L126.031 118.27C125.919 118.662 125.737 119.033 125.485 119.383C125.233 119.733 124.918 120.048 124.54 120.328C124.176 120.594 123.763 120.811 123.301 120.979C122.839 121.133 122.349 121.21 121.831 121.21ZM122.65 118.627C123.21 118.627 123.7 118.494 124.12 118.228C124.54 117.962 124.862 117.591 125.086 117.115C125.324 116.625 125.443 116.058 125.443 115.414C125.443 114.784 125.324 114.231 125.086 113.755C124.862 113.279 124.54 112.908 124.12 112.642C123.7 112.362 123.21 112.222 122.65 112.222C122.104 112.222 121.621 112.362 121.201 112.642C120.795 112.908 120.473 113.279 120.235 113.755C119.997 114.231 119.878 114.784 119.878 115.414C119.878 116.058 119.997 116.625 120.235 117.115C120.473 117.591 120.795 117.962 121.201 118.228C121.621 118.494 122.104 118.627 122.65 118.627ZM131.351 121V109.891H134.228L134.333 113.461L133.829 112.726C133.997 112.152 134.27 111.634 134.648 111.172C135.026 110.696 135.467 110.325 135.971 110.059C136.489 109.793 137.028 109.66 137.588 109.66C137.826 109.66 138.057 109.681 138.281 109.723C138.505 109.765 138.694 109.814 138.848 109.87L138.05 113.146C137.896 113.062 137.693 112.992 137.441 112.936C137.203 112.866 136.958 112.831 136.706 112.831C136.37 112.831 136.055 112.894 135.761 113.02C135.481 113.132 135.236 113.3 135.026 113.524C134.816 113.734 134.648 113.986 134.522 114.28C134.41 114.574 134.354 114.896 134.354 115.246V121H131.351ZM142.041 121V107.077H145.023V121H142.041ZM139.962 112.558V109.891H147.312V112.558H139.962ZM155.716 121V118.291H158.173V109.009H155.716V106.3H163.78V109.009H161.323V118.291H163.78V121H155.716ZM166.809 121V109.891H169.665L169.749 112.159L169.161 112.411C169.315 111.907 169.588 111.452 169.98 111.046C170.386 110.626 170.869 110.29 171.429 110.038C171.989 109.786 172.577 109.66 173.193 109.66C174.033 109.66 174.733 109.828 175.293 110.164C175.867 110.5 176.294 111.011 176.574 111.697C176.868 112.369 177.015 113.202 177.015 114.196V121H174.033V114.427C174.033 113.923 173.963 113.503 173.823 113.167C173.683 112.831 173.466 112.586 173.172 112.432C172.892 112.278 172.542 112.208 172.122 112.222C171.786 112.222 171.471 112.278 171.177 112.39C170.897 112.488 170.652 112.635 170.442 112.831C170.246 113.027 170.085 113.251 169.959 113.503C169.847 113.755 169.791 114.028 169.791 114.322V121H168.321C167.999 121 167.712 121 167.46 121C167.208 121 166.991 121 166.809 121ZM183.611 121.21C182.575 121.21 181.651 121.042 180.839 120.706C180.041 120.356 179.397 119.88 178.907 119.278L180.776 117.682C181.196 118.144 181.672 118.48 182.204 118.69C182.736 118.886 183.268 118.984 183.8 118.984C184.01 118.984 184.199 118.963 184.367 118.921C184.549 118.865 184.703 118.795 184.829 118.711C184.955 118.613 185.046 118.501 185.102 118.375C185.172 118.235 185.207 118.088 185.207 117.934C185.207 117.626 185.081 117.388 184.829 117.22C184.689 117.136 184.472 117.045 184.178 116.947C183.884 116.835 183.506 116.716 183.044 116.59C182.33 116.408 181.721 116.198 181.217 115.96C180.727 115.708 180.335 115.428 180.041 115.12C179.789 114.826 179.593 114.511 179.453 114.175C179.327 113.825 179.264 113.44 179.264 113.02C179.264 112.516 179.376 112.061 179.6 111.655C179.824 111.235 180.132 110.878 180.524 110.584C180.93 110.29 181.392 110.066 181.91 109.912C182.428 109.744 182.974 109.66 183.548 109.66C184.122 109.66 184.682 109.73 185.228 109.87C185.774 110.01 186.278 110.213 186.74 110.479C187.216 110.731 187.629 111.032 187.979 111.382L186.383 113.146C186.131 112.908 185.844 112.691 185.522 112.495C185.214 112.299 184.892 112.145 184.556 112.033C184.22 111.921 183.919 111.865 183.653 111.865C183.415 111.865 183.198 111.886 183.002 111.928C182.82 111.97 182.666 112.04 182.54 112.138C182.414 112.222 182.316 112.327 182.246 112.453C182.19 112.579 182.162 112.719 182.162 112.873C182.162 113.027 182.197 113.174 182.267 113.314C182.351 113.454 182.463 113.573 182.603 113.671C182.757 113.755 182.981 113.853 183.275 113.965C183.583 114.077 183.996 114.203 184.514 114.343C185.186 114.525 185.753 114.728 186.215 114.952C186.691 115.176 187.069 115.435 187.349 115.729C187.587 115.981 187.762 116.268 187.874 116.59C187.986 116.912 188.042 117.269 188.042 117.661C188.042 118.347 187.846 118.956 187.454 119.488C187.076 120.02 186.551 120.44 185.879 120.748C185.207 121.056 184.451 121.21 183.611 121.21ZM190.168 125.62V109.891H193.045L193.129 112.39L192.583 112.201C192.681 111.753 192.919 111.34 193.297 110.962C193.689 110.584 194.172 110.276 194.746 110.038C195.32 109.8 195.922 109.681 196.552 109.681C197.518 109.681 198.379 109.933 199.135 110.437C199.891 110.927 200.486 111.606 200.92 112.474C201.354 113.328 201.571 114.315 201.571 115.435C201.571 116.541 201.354 117.528 200.92 118.396C200.486 119.264 199.891 119.95 199.135 120.454C198.379 120.944 197.518 121.189 196.552 121.189C195.908 121.189 195.292 121.07 194.704 120.832C194.13 120.58 193.64 120.251 193.234 119.845C192.842 119.439 192.59 119.005 192.478 118.543L193.171 118.249V125.62H190.168ZM195.88 118.627C196.426 118.627 196.909 118.494 197.329 118.228C197.749 117.962 198.078 117.591 198.316 117.115C198.554 116.625 198.673 116.065 198.673 115.435C198.673 114.805 198.554 114.252 198.316 113.776C198.078 113.3 197.749 112.929 197.329 112.663C196.923 112.397 196.44 112.264 195.88 112.264C195.32 112.264 194.83 112.397 194.41 112.663C193.99 112.915 193.661 113.286 193.423 113.776C193.185 114.252 193.066 114.805 193.066 115.435C193.066 116.065 193.185 116.625 193.423 117.115C193.661 117.591 193.99 117.962 194.41 118.228C194.83 118.494 195.32 118.627 195.88 118.627ZM209.097 121.21C207.893 121.21 206.836 120.965 205.926 120.475C205.03 119.985 204.33 119.313 203.826 118.459C203.336 117.605 203.091 116.625 203.091 115.519C203.091 114.651 203.231 113.86 203.511 113.146C203.791 112.432 204.183 111.816 204.687 111.298C205.191 110.766 205.786 110.36 206.472 110.08C207.172 109.786 207.928 109.639 208.74 109.639C209.496 109.639 210.196 109.779 210.84 110.059C211.484 110.339 212.037 110.731 212.499 111.235C212.975 111.725 213.339 112.313 213.591 112.999C213.843 113.671 213.955 114.399 213.927 115.183L213.906 116.107H204.981L204.498 114.28H211.449L211.113 114.658V114.196C211.085 113.818 210.959 113.482 210.735 113.188C210.525 112.88 210.252 112.642 209.916 112.474C209.58 112.292 209.202 112.201 208.782 112.201C208.166 112.201 207.641 112.32 207.207 112.558C206.787 112.796 206.465 113.146 206.241 113.608C206.017 114.07 205.905 114.63 205.905 115.288C205.905 115.96 206.045 116.541 206.325 117.031C206.619 117.521 207.025 117.906 207.543 118.186C208.075 118.452 208.698 118.585 209.412 118.585C209.902 118.585 210.35 118.508 210.756 118.354C211.162 118.2 211.596 117.934 212.058 117.556L213.486 119.551C213.08 119.915 212.632 120.223 212.142 120.475C211.652 120.713 211.148 120.895 210.63 121.021C210.112 121.147 209.601 121.21 209.097 121.21ZM220.961 121.21C219.897 121.21 218.945 120.958 218.105 120.454C217.265 119.95 216.6 119.264 216.11 118.396C215.634 117.528 215.396 116.541 215.396 115.435C215.396 114.329 215.634 113.342 216.11 112.474C216.6 111.606 217.265 110.92 218.105 110.416C218.945 109.912 219.897 109.66 220.961 109.66C221.955 109.66 222.865 109.842 223.691 110.206C224.517 110.57 225.161 111.074 225.623 111.718L223.985 113.692C223.789 113.426 223.544 113.188 223.25 112.978C222.956 112.754 222.634 112.579 222.284 112.453C221.948 112.327 221.598 112.264 221.234 112.264C220.66 112.264 220.149 112.404 219.701 112.684C219.267 112.95 218.924 113.321 218.672 113.797C218.42 114.273 218.294 114.819 218.294 115.435C218.294 116.023 218.42 116.555 218.672 117.031C218.938 117.507 219.295 117.885 219.743 118.165C220.191 118.445 220.695 118.585 221.255 118.585C221.619 118.585 221.962 118.536 222.284 118.438C222.606 118.34 222.907 118.186 223.187 117.976C223.481 117.766 223.747 117.514 223.985 117.22L225.602 119.194C225.14 119.796 224.482 120.286 223.628 120.664C222.788 121.028 221.899 121.21 220.961 121.21ZM228.583 121V107.077H231.565V121H228.583ZM226.504 112.558V109.891H233.854V112.558H226.504ZM236.029 121V109.891H239.011V121H236.029ZM237.499 107.623C236.925 107.623 236.477 107.483 236.155 107.203C235.833 106.909 235.672 106.503 235.672 105.985C235.672 105.509 235.833 105.124 236.155 104.83C236.491 104.522 236.939 104.368 237.499 104.368C238.073 104.368 238.521 104.515 238.843 104.809C239.165 105.089 239.326 105.481 239.326 105.985C239.326 106.461 239.158 106.853 238.822 107.161C238.5 107.469 238.059 107.623 237.499 107.623ZM247.362 121.21C246.228 121.21 245.213 120.965 244.317 120.475C243.435 119.971 242.735 119.285 242.217 118.417C241.713 117.549 241.461 116.555 241.461 115.435C241.461 114.315 241.713 113.321 242.217 112.453C242.735 111.585 243.435 110.906 244.317 110.416C245.213 109.912 246.228 109.66 247.362 109.66C248.482 109.66 249.483 109.912 250.365 110.416C251.261 110.906 251.961 111.585 252.465 112.453C252.969 113.321 253.221 114.315 253.221 115.435C253.221 116.555 252.969 117.549 252.465 118.417C251.961 119.285 251.261 119.971 250.365 120.475C249.483 120.965 248.482 121.21 247.362 121.21ZM247.362 118.606C247.908 118.606 248.398 118.473 248.832 118.207C249.266 117.927 249.602 117.549 249.84 117.073C250.092 116.583 250.211 116.037 250.197 115.435C250.211 114.819 250.092 114.273 249.84 113.797C249.602 113.307 249.266 112.929 248.832 112.663C248.398 112.383 247.908 112.243 247.362 112.243C246.802 112.243 246.305 112.383 245.871 112.663C245.437 112.943 245.094 113.321 244.842 113.797C244.59 114.273 244.471 114.819 244.485 115.435C244.471 116.037 244.59 116.583 244.842 117.073C245.094 117.549 245.437 117.927 245.871 118.207C246.305 118.473 246.802 118.606 247.362 118.606ZM255.485 121V109.891H258.341L258.425 112.159L257.837 112.411C257.991 111.907 258.264 111.452 258.656 111.046C259.062 110.626 259.545 110.29 260.105 110.038C260.665 109.786 261.253 109.66 261.869 109.66C262.709 109.66 263.409 109.828 263.969 110.164C264.543 110.5 264.97 111.011 265.25 111.697C265.544 112.369 265.691 113.202 265.691 114.196V121H262.709V114.427C262.709 113.923 262.639 113.503 262.499 113.167C262.359 112.831 262.142 112.586 261.848 112.432C261.568 112.278 261.218 112.208 260.798 112.222C260.462 112.222 260.147 112.278 259.853 112.39C259.573 112.488 259.328 112.635 259.118 112.831C258.922 113.027 258.761 113.251 258.635 113.503C258.523 113.755 258.467 114.028 258.467 114.322V121H256.997C256.675 121 256.388 121 256.136 121C255.884 121 255.667 121 255.485 121ZM272.287 121.21C271.251 121.21 270.327 121.042 269.515 120.706C268.717 120.356 268.073 119.88 267.583 119.278L269.452 117.682C269.872 118.144 270.348 118.48 270.88 118.69C271.412 118.886 271.944 118.984 272.476 118.984C272.686 118.984 272.875 118.963 273.043 118.921C273.225 118.865 273.379 118.795 273.505 118.711C273.631 118.613 273.722 118.501 273.778 118.375C273.848 118.235 273.883 118.088 273.883 117.934C273.883 117.626 273.757 117.388 273.505 117.22C273.365 117.136 273.148 117.045 272.854 116.947C272.56 116.835 272.182 116.716 271.72 116.59C271.006 116.408 270.397 116.198 269.893 115.96C269.403 115.708 269.011 115.428 268.717 115.12C268.465 114.826 268.269 114.511 268.129 114.175C268.003 113.825 267.94 113.44 267.94 113.02C267.94 112.516 268.052 112.061 268.276 111.655C268.5 111.235 268.808 110.878 269.2 110.584C269.606 110.29 270.068 110.066 270.586 109.912C271.104 109.744 271.65 109.66 272.224 109.66C272.798 109.66 273.358 109.73 273.904 109.87C274.45 110.01 274.954 110.213 275.416 110.479C275.892 110.731 276.305 111.032 276.655 111.382L275.059 113.146C274.807 112.908 274.52 112.691 274.198 112.495C273.89 112.299 273.568 112.145 273.232 112.033C272.896 111.921 272.595 111.865 272.329 111.865C272.091 111.865 271.874 111.886 271.678 111.928C271.496 111.97 271.342 112.04 271.216 112.138C271.09 112.222 270.992 112.327 270.922 112.453C270.866 112.579 270.838 112.719 270.838 112.873C270.838 113.027 270.873 113.174 270.943 113.314C271.027 113.454 271.139 113.573 271.279 113.671C271.433 113.755 271.657 113.853 271.951 113.965C272.259 114.077 272.672 114.203 273.19 114.343C273.862 114.525 274.429 114.728 274.891 114.952C275.367 115.176 275.745 115.435 276.025 115.729C276.263 115.981 276.438 116.268 276.55 116.59C276.662 116.912 276.718 117.269 276.718 117.661C276.718 118.347 276.522 118.956 276.13 119.488C275.752 120.02 275.227 120.44 274.555 120.748C273.883 121.056 273.127 121.21 272.287 121.21Z" fill="black"/>
<rect x="157.137" y="150.136" width="147.727" height="294.318" rx="11.3636" fill="#F1F5F7" stroke="black" stroke-width="2.27272"/>
<g clip-path="url(#clip0_90_1944)">
<path d="M292.322 156.264H285.659C285.404 156.265 285.159 156.367 284.979 156.547C284.798 156.728 284.697 156.973 284.696 157.228V159.797C284.697 160.052 284.798 160.296 284.979 160.477C285.159 160.657 285.404 160.759 285.659 160.76H292.322C292.578 160.759 292.822 160.657 293.003 160.477C293.183 160.296 293.285 160.052 293.286 159.797V157.228C293.285 156.973 293.183 156.728 293.003 156.547C292.822 156.367 292.578 156.265 292.322 156.264ZM292.723 159.797C292.723 159.903 292.681 160.005 292.606 160.081C292.531 160.156 292.429 160.199 292.322 160.199H285.659C285.553 160.199 285.451 160.156 285.376 160.081C285.301 160.006 285.258 159.904 285.258 159.798V157.228C285.258 157.121 285.301 157.02 285.376 156.944C285.451 156.869 285.553 156.827 285.659 156.827H292.322C292.429 156.827 292.53 156.869 292.606 156.944C292.681 157.02 292.723 157.121 292.723 157.228V159.797Z" fill="black"/>
<path d="M293.687 157.481V159.544C294.008 159.544 294.329 158.988 294.329 158.512C294.329 158.037 294.008 157.481 293.687 157.481Z" fill="black"/>
<path d="M292.082 157.228H285.9C285.836 157.228 285.775 157.253 285.73 157.299C285.685 157.344 285.659 157.405 285.659 157.468V159.556C285.659 159.62 285.685 159.681 285.73 159.726C285.775 159.771 285.836 159.796 285.9 159.797H292.082C292.145 159.796 292.206 159.771 292.252 159.726C292.297 159.681 292.322 159.62 292.322 159.556V157.468C292.322 157.405 292.297 157.344 292.252 157.299C292.206 157.253 292.145 157.228 292.082 157.228Z" fill="black"/>
<path d="M283.055 157.497C282.193 156.705 281.066 156.264 279.895 156.264C278.724 156.264 277.596 156.705 276.735 157.497C276.719 157.512 276.706 157.53 276.697 157.549C276.689 157.569 276.684 157.59 276.684 157.612C276.683 157.634 276.687 157.655 276.696 157.675C276.704 157.695 276.716 157.713 276.731 157.728L277.075 158.069C277.105 158.098 277.145 158.115 277.186 158.116C277.228 158.116 277.269 158.101 277.3 158.073C278.009 157.425 278.935 157.066 279.895 157.066C280.855 157.066 281.781 157.425 282.49 158.073C282.521 158.101 282.561 158.116 282.603 158.116C282.645 158.115 282.685 158.098 282.715 158.069L283.059 157.728C283.074 157.713 283.086 157.695 283.094 157.675C283.103 157.655 283.107 157.633 283.106 157.612C283.106 157.59 283.101 157.569 283.092 157.549C283.083 157.53 283.071 157.512 283.055 157.497ZM279.895 159.475C279.768 159.475 279.644 159.513 279.538 159.584C279.433 159.654 279.35 159.755 279.302 159.872C279.253 159.989 279.24 160.118 279.265 160.243C279.29 160.368 279.351 160.482 279.441 160.572C279.531 160.662 279.645 160.723 279.77 160.748C279.894 160.772 280.023 160.76 280.141 160.711C280.258 160.662 280.358 160.58 280.429 160.475C280.5 160.369 280.537 160.245 280.537 160.118C280.537 159.947 280.47 159.784 280.349 159.664C280.229 159.543 280.065 159.475 279.895 159.475ZM281.93 158.637C281.368 158.142 280.645 157.87 279.896 157.87C279.148 157.87 278.425 158.142 277.862 158.637C277.846 158.651 277.833 158.669 277.824 158.689C277.814 158.708 277.809 158.73 277.809 158.752C277.808 158.773 277.812 158.795 277.821 158.815C277.829 158.836 277.841 158.854 277.857 158.869L278.202 159.21C278.231 159.239 278.271 159.256 278.312 159.258C278.353 159.259 278.394 159.245 278.425 159.218C278.835 158.866 279.357 158.673 279.897 158.673C280.438 158.673 280.96 158.866 281.37 159.218C281.401 159.245 281.442 159.259 281.483 159.258C281.524 159.256 281.563 159.239 281.593 159.21L281.938 158.869C281.954 158.854 281.966 158.835 281.974 158.815C281.982 158.795 281.985 158.773 281.985 158.751C281.984 158.729 281.979 158.708 281.969 158.688C281.96 158.669 281.946 158.651 281.93 158.637Z" fill="black"/>
<path d="M271.582 158.793H271.16C271.123 158.793 271.087 158.808 271.061 158.834C271.035 158.861 271.02 158.896 271.02 158.934V160.619C271.02 160.637 271.023 160.656 271.03 160.673C271.037 160.69 271.048 160.705 271.061 160.718C271.074 160.731 271.089 160.742 271.106 160.749C271.124 160.756 271.142 160.759 271.16 160.759H271.582C271.6 160.759 271.619 160.756 271.636 160.749C271.653 160.742 271.668 160.731 271.681 160.718C271.694 160.705 271.705 160.69 271.712 160.673C271.719 160.656 271.722 160.637 271.722 160.619V158.935C271.723 158.917 271.719 158.898 271.712 158.881C271.705 158.864 271.695 158.848 271.682 158.835C271.669 158.822 271.653 158.811 271.636 158.804C271.619 158.797 271.6 158.793 271.582 158.793ZM270.458 159.635H270.036C269.999 159.635 269.963 159.65 269.937 159.676C269.911 159.702 269.896 159.738 269.896 159.775V160.62C269.896 160.658 269.911 160.693 269.937 160.72C269.963 160.746 269.999 160.761 270.036 160.761H270.458C270.476 160.761 270.495 160.757 270.512 160.75C270.529 160.743 270.545 160.733 270.558 160.72C270.571 160.707 270.581 160.691 270.589 160.674C270.596 160.657 270.599 160.639 270.599 160.62V159.777C270.6 159.758 270.596 159.739 270.589 159.722C270.582 159.705 270.572 159.689 270.558 159.676C270.545 159.663 270.53 159.652 270.512 159.645C270.495 159.638 270.477 159.635 270.458 159.635ZM272.706 157.95H272.285C272.247 157.95 272.212 157.964 272.185 157.991C272.159 158.017 272.144 158.053 272.144 158.09V160.62C272.144 160.658 272.159 160.693 272.185 160.72C272.212 160.746 272.247 160.761 272.285 160.761H272.706C272.743 160.761 272.779 160.746 272.806 160.72C272.832 160.693 272.847 160.658 272.847 160.62V158.091C272.847 158.072 272.843 158.054 272.836 158.037C272.829 158.019 272.819 158.004 272.806 157.991C272.792 157.978 272.777 157.967 272.76 157.96C272.742 157.953 272.724 157.949 272.706 157.95ZM273.83 157.107H273.408C273.371 157.107 273.335 157.121 273.309 157.148C273.282 157.174 273.268 157.21 273.268 157.247V160.62C273.268 160.658 273.282 160.693 273.309 160.72C273.335 160.746 273.371 160.761 273.408 160.761H273.83C273.867 160.761 273.903 160.746 273.929 160.72C273.955 160.693 273.97 160.658 273.97 160.62V157.248C273.97 157.211 273.955 157.175 273.929 157.149C273.902 157.122 273.867 157.107 273.829 157.107L273.83 157.107ZM274.953 156.264H274.532C274.495 156.264 274.459 156.279 274.432 156.306C274.406 156.332 274.391 156.368 274.391 156.405V160.62C274.391 160.658 274.406 160.693 274.432 160.72C274.459 160.746 274.495 160.761 274.532 160.761H274.953C274.991 160.761 275.026 160.746 275.053 160.72C275.079 160.693 275.094 160.658 275.094 160.62V156.405C275.094 156.368 275.079 156.332 275.053 156.306C275.026 156.279 274.991 156.264 274.953 156.264Z" fill="black"/>
<path d="M169.274 159.026H169.255C169.15 159.077 169.026 159.102 168.883 159.102C168.762 159.102 168.639 159.082 168.515 159.04C168.391 158.999 168.278 158.935 168.177 158.85C168.078 158.76 167.997 158.649 167.933 158.516C167.87 158.379 167.838 158.218 167.838 158.034C167.838 157.85 167.868 157.687 167.929 157.547C167.992 157.404 168.077 157.285 168.181 157.19C168.286 157.094 168.409 157.023 168.549 156.975C168.689 156.924 168.838 156.899 168.997 156.899C169.156 156.899 169.305 156.924 169.445 156.975C169.585 157.026 169.708 157.099 169.813 157.195C169.917 157.29 170 157.404 170.061 157.538C170.124 157.671 170.156 157.821 170.156 157.986C170.156 158.091 170.148 158.187 170.132 158.272C170.116 158.358 170.092 158.441 170.061 158.52C170.032 158.597 169.997 158.673 169.956 158.749C169.914 158.826 169.868 158.904 169.817 158.983L168.964 160.333H168.425L169.274 159.026ZM169.698 158.001C169.698 157.899 169.681 157.805 169.646 157.719C169.614 157.633 169.566 157.56 169.503 157.5C169.442 157.436 169.369 157.387 169.283 157.352C169.197 157.317 169.102 157.299 168.997 157.299C168.892 157.299 168.797 157.317 168.711 157.352C168.625 157.387 168.55 157.436 168.487 157.5C168.426 157.56 168.379 157.633 168.344 157.719C168.312 157.805 168.296 157.899 168.296 158.001C168.296 158.102 168.312 158.196 168.344 158.282C168.379 158.368 168.426 158.443 168.487 158.506C168.55 158.567 168.625 158.614 168.711 158.649C168.797 158.684 168.892 158.702 168.997 158.702C169.102 158.702 169.197 158.684 169.283 158.649C169.369 158.614 169.442 158.567 169.503 158.506C169.566 158.443 169.614 158.368 169.646 158.282C169.681 158.196 169.698 158.102 169.698 158.001ZM170.984 158.673C170.898 158.673 170.824 158.643 170.76 158.582C170.7 158.519 170.669 158.444 170.669 158.358C170.669 158.272 170.7 158.199 170.76 158.139C170.824 158.075 170.898 158.043 170.984 158.043C171.07 158.043 171.143 158.075 171.204 158.139C171.267 158.199 171.299 158.272 171.299 158.358C171.299 158.444 171.267 158.519 171.204 158.582C171.143 158.643 171.07 158.673 170.984 158.673ZM170.669 160.047C170.669 159.961 170.7 159.888 170.76 159.827C170.824 159.764 170.898 159.732 170.984 159.732C171.07 159.732 171.143 159.764 171.204 159.827C171.267 159.888 171.299 159.961 171.299 160.047C171.299 160.132 171.267 160.207 171.204 160.271C171.143 160.331 171.07 160.361 170.984 160.361C170.898 160.361 170.824 160.331 170.76 160.271C170.7 160.207 170.669 160.132 170.669 160.047ZM173.251 159.589H171.811V159.121L173.156 156.956H173.709V159.188H174.186V159.589H173.709V160.333H173.251V159.589ZM173.251 157.5H173.242L172.211 159.188H173.251V157.5ZM175.587 157.481L174.967 158.053L174.699 157.733L175.639 156.956H176.044V160.333H175.587V157.481Z" fill="black"/>
</g>
<rect x="166.615" y="262.848" width="128.769" height="35.1188" rx="7.44944" fill="white"/>
<rect x="166.615" y="304.156" width="128.769" height="35.1188" rx="7.44944" fill="white"/>
<rect x="166.615" y="345.32" width="128.769" height="35.1188" rx="7.44944" fill="white"/>
<rect x="166.615" y="386.483" width="128.769" height="35.1188" rx="7.44944" fill="white"/>
<rect x="166.615" y="201.774" width="37.9974" height="41.1638" rx="7.38838" fill="white"/>
<rect x="212.001" y="201.774" width="37.9974" height="41.1638" rx="7.38838" fill="#F5B871"/>
<rect x="257.387" y="201.774" width="37.9974" height="41.1638" rx="7.38838" fill="white"/>
<path d="M177.998 216.052V210.141H178.893L181.046 213.645L180.616 213.637L182.794 210.141H183.638V216.052H182.726V213.628C182.726 213.121 182.738 212.666 182.76 212.26C182.788 211.855 182.833 211.452 182.895 211.053L183.014 211.365L181.08 214.354H180.523L178.648 211.399L178.741 211.053C178.803 211.43 178.845 211.818 178.868 212.218C178.896 212.612 178.91 213.082 178.91 213.628V216.052H177.998ZM187.069 216.136C186.635 216.136 186.247 216.037 185.904 215.84C185.566 215.638 185.298 215.365 185.101 215.021C184.904 214.672 184.806 214.275 184.806 213.831C184.806 213.386 184.904 212.992 185.101 212.649C185.298 212.3 185.566 212.027 185.904 211.83C186.247 211.627 186.635 211.526 187.069 211.526C187.497 211.526 187.879 211.627 188.217 211.83C188.561 212.027 188.831 212.3 189.028 212.649C189.225 212.992 189.323 213.386 189.323 213.831C189.323 214.275 189.225 214.672 189.028 215.021C188.831 215.365 188.561 215.638 188.217 215.84C187.879 216.037 187.497 216.136 187.069 216.136ZM187.069 215.342C187.333 215.342 187.57 215.277 187.778 215.148C187.986 215.013 188.15 214.833 188.268 214.608C188.386 214.377 188.442 214.118 188.437 213.831C188.442 213.538 188.386 213.279 188.268 213.054C188.15 212.823 187.986 212.643 187.778 212.514C187.57 212.384 187.333 212.319 187.069 212.319C186.804 212.319 186.565 212.387 186.351 212.522C186.143 212.651 185.98 212.832 185.861 213.062C185.743 213.288 185.687 213.544 185.692 213.831C185.687 214.118 185.743 214.377 185.861 214.608C185.98 214.833 186.143 215.013 186.351 215.148C186.565 215.277 186.804 215.342 187.069 215.342ZM190.271 216.052V211.618H191.141V212.53L190.989 212.632C191.045 212.435 191.155 212.255 191.318 212.091C191.481 211.922 191.675 211.787 191.901 211.686C192.126 211.579 192.357 211.526 192.593 211.526C192.931 211.526 193.212 211.593 193.437 211.728C193.663 211.858 193.831 212.058 193.944 212.328C194.057 212.598 194.113 212.939 194.113 213.349V216.052H193.243V213.409C193.243 213.155 193.209 212.947 193.142 212.784C193.074 212.615 192.97 212.494 192.829 212.421C192.689 212.342 192.514 212.308 192.306 212.319C192.137 212.319 191.982 212.347 191.842 212.404C191.701 212.454 191.577 212.528 191.47 212.623C191.369 212.719 191.287 212.832 191.225 212.961C191.169 213.085 191.141 213.22 191.141 213.366V216.052H190.71C190.637 216.052 190.564 216.052 190.491 216.052C190.417 216.052 190.344 216.052 190.271 216.052Z" fill="black"/>
<path d="M178.545 236.828L178.057 235.616L181.219 232.055C181.387 231.878 181.559 231.676 181.736 231.449C181.924 231.213 182.101 230.972 182.268 230.725C182.436 230.479 182.569 230.238 182.667 230.001C182.776 229.755 182.83 229.523 182.83 229.307C182.83 228.992 182.766 228.726 182.638 228.509C182.52 228.282 182.342 228.11 182.106 227.992C181.879 227.873 181.603 227.814 181.278 227.814C180.993 227.814 180.712 227.898 180.436 228.066C180.16 228.233 179.909 228.469 179.682 228.775C179.456 229.08 179.279 229.435 179.15 229.839L177.924 229.07C178.091 228.499 178.343 228.011 178.678 227.607C179.022 227.194 179.431 226.878 179.904 226.662C180.387 226.445 180.909 226.337 181.47 226.337C182.052 226.337 182.569 226.46 183.022 226.706C183.475 226.942 183.83 227.277 184.086 227.711C184.342 228.134 184.47 228.627 184.47 229.189C184.47 229.415 184.445 229.647 184.396 229.883C184.347 230.119 184.268 230.366 184.16 230.622C184.051 230.868 183.914 231.129 183.746 231.405C183.579 231.671 183.377 231.952 183.14 232.247C182.914 232.543 182.653 232.853 182.357 233.178L180.008 235.735L179.712 235.291H184.795V236.828H178.545ZM189.743 236.976C188.955 236.976 188.275 236.759 187.704 236.326C187.143 235.892 186.709 235.281 186.404 234.493C186.098 233.695 185.946 232.75 185.946 231.656C185.946 230.563 186.098 229.622 186.404 228.834C186.709 228.036 187.143 227.42 187.704 226.987C188.275 226.553 188.955 226.337 189.743 226.337C190.531 226.337 191.211 226.553 191.782 226.987C192.354 227.42 192.792 228.036 193.098 228.834C193.403 229.622 193.556 230.563 193.556 231.656C193.556 232.75 193.403 233.695 193.098 234.493C192.792 235.281 192.354 235.892 191.782 236.326C191.211 236.759 190.531 236.976 189.743 236.976ZM189.743 235.528C190.462 235.528 191.019 235.193 191.413 234.523C191.807 233.843 192.004 232.888 192.004 231.656C192.004 230.425 191.807 229.474 191.413 228.804C191.019 228.125 190.462 227.785 189.743 227.785C189.024 227.785 188.468 228.125 188.073 228.804C187.679 229.474 187.482 230.425 187.482 231.656C187.482 232.888 187.679 233.843 188.073 234.523C188.468 235.193 189.024 235.528 189.743 235.528Z" fill="black"/>
<path d="M224.986 236.828L224.498 235.616L227.66 232.055C227.828 231.878 228 231.676 228.178 231.449C228.365 231.213 228.542 230.972 228.71 230.725C228.877 230.479 229.01 230.238 229.109 230.001C229.217 229.755 229.271 229.523 229.271 229.307C229.271 228.992 229.207 228.726 229.079 228.509C228.961 228.282 228.783 228.11 228.547 227.992C228.32 227.873 228.045 227.814 227.72 227.814C227.434 227.814 227.153 227.898 226.877 228.066C226.601 228.233 226.35 228.469 226.124 228.775C225.897 229.08 225.72 229.435 225.592 229.839L224.365 229.07C224.533 228.499 224.784 228.011 225.119 227.607C225.464 227.194 225.872 226.878 226.345 226.662C226.828 226.445 227.35 226.337 227.912 226.337C228.493 226.337 229.01 226.46 229.463 226.706C229.916 226.942 230.271 227.277 230.527 227.711C230.783 228.134 230.911 228.627 230.911 229.189C230.911 229.415 230.887 229.647 230.837 229.883C230.788 230.119 230.709 230.366 230.601 230.622C230.493 230.868 230.355 231.129 230.187 231.405C230.02 231.671 229.818 231.952 229.581 232.247C229.355 232.543 229.094 232.853 228.798 233.178L226.449 235.735L226.153 235.291H231.236V236.828H224.986ZM234.914 236.104V227.711L235.46 228.125L233.421 229.203L232.993 227.814L235.756 226.337H236.524V236.104H234.914ZM233.273 236.828V235.291H238.209V236.828H233.273Z" fill="black"/>
<path d="M269.316 236.828L268.828 235.616L271.991 232.055C272.158 231.878 272.331 231.676 272.508 231.449C272.695 231.213 272.872 230.972 273.04 230.725C273.207 230.479 273.34 230.238 273.439 230.001C273.547 229.755 273.601 229.523 273.601 229.307C273.601 228.992 273.537 228.726 273.409 228.509C273.291 228.282 273.114 228.11 272.877 227.992C272.651 227.873 272.375 227.814 272.05 227.814C271.764 227.814 271.483 227.898 271.208 228.066C270.932 228.233 270.681 228.469 270.454 228.775C270.227 229.08 270.05 229.435 269.922 229.839L268.696 229.07C268.863 228.499 269.114 228.011 269.449 227.607C269.794 227.194 270.203 226.878 270.676 226.662C271.158 226.445 271.68 226.337 272.242 226.337C272.823 226.337 273.34 226.46 273.793 226.706C274.247 226.942 274.601 227.277 274.857 227.711C275.114 228.134 275.242 228.627 275.242 229.189C275.242 229.415 275.217 229.647 275.168 229.883C275.118 230.119 275.04 230.366 274.931 230.622C274.823 230.868 274.685 231.129 274.518 231.405C274.35 231.671 274.148 231.952 273.912 232.247C273.685 232.543 273.424 232.853 273.129 233.178L270.779 235.735L270.483 235.291H275.567V236.828H269.316ZM277.412 236.828L276.924 235.616L280.086 232.055C280.254 231.878 280.426 231.676 280.603 231.449C280.791 231.213 280.968 230.972 281.135 230.725C281.303 230.479 281.436 230.238 281.534 230.001C281.643 229.755 281.697 229.523 281.697 229.307C281.697 228.992 281.633 228.726 281.505 228.509C281.387 228.282 281.209 228.11 280.973 227.992C280.746 227.873 280.47 227.814 280.145 227.814C279.86 227.814 279.579 227.898 279.303 228.066C279.027 228.233 278.776 228.469 278.549 228.775C278.323 229.08 278.146 229.435 278.017 229.839L276.791 229.07C276.958 228.499 277.21 228.011 277.545 227.607C277.889 227.194 278.298 226.878 278.771 226.662C279.254 226.445 279.776 226.337 280.337 226.337C280.919 226.337 281.436 226.46 281.889 226.706C282.342 226.942 282.697 227.277 282.953 227.711C283.209 228.134 283.337 228.627 283.337 229.189C283.337 229.415 283.312 229.647 283.263 229.883C283.214 230.119 283.135 230.366 283.027 230.622C282.918 230.868 282.78 231.129 282.613 231.405C282.446 231.671 282.244 231.952 282.007 232.247C281.781 232.543 281.52 232.853 281.224 233.178L278.874 235.735L278.579 235.291H283.662V236.828H277.412Z" fill="black"/>
<path d="M268.972 216.052L267.089 210.141H268.06L269.2 213.839C269.234 213.929 269.265 214.036 269.293 214.16C269.321 214.278 269.346 214.399 269.369 214.523C269.391 214.647 269.411 214.762 269.428 214.869C269.451 214.976 269.47 215.064 269.487 215.131L269.242 215.123C269.327 214.824 269.391 214.594 269.437 214.43C269.487 214.267 269.527 214.143 269.555 214.059C269.583 213.969 269.608 213.893 269.631 213.831L270.695 211.163H271.514L272.544 213.831C272.6 213.966 272.648 214.101 272.687 214.236C272.732 214.366 272.772 214.498 272.806 214.633C272.839 214.762 272.876 214.9 272.915 215.047L272.696 215.106C272.724 214.954 272.744 214.836 272.755 214.751C272.772 214.661 272.786 214.588 272.797 214.532C272.808 214.475 272.82 214.422 272.831 214.371C272.842 214.315 272.859 214.245 272.882 214.16C272.91 214.076 272.946 213.96 272.991 213.814L274.114 210.141H275.094L273.211 216.052H272.578L271.016 212.353L271.092 212.387L269.589 216.052H268.972ZM277.76 216.136C277.304 216.136 276.898 216.04 276.544 215.849C276.195 215.652 275.919 215.384 275.716 215.047C275.519 214.709 275.421 214.321 275.421 213.881C275.421 213.532 275.477 213.214 275.59 212.927C275.702 212.64 275.857 212.393 276.054 212.184C276.257 211.97 276.496 211.807 276.772 211.694C277.053 211.576 277.357 211.517 277.684 211.517C277.971 211.517 278.238 211.573 278.486 211.686C278.734 211.793 278.947 211.942 279.128 212.134C279.313 212.325 279.454 212.553 279.55 212.818C279.651 213.076 279.699 213.361 279.693 213.67L279.685 214.042H276.062L275.868 213.349H278.933L278.807 213.493V213.29C278.79 213.105 278.728 212.939 278.621 212.792C278.514 212.646 278.379 212.53 278.216 212.446C278.052 212.362 277.875 212.319 277.684 212.319C277.38 212.319 277.124 212.378 276.915 212.497C276.707 212.609 276.549 212.778 276.442 213.003C276.335 213.223 276.282 213.496 276.282 213.822C276.282 214.132 276.347 214.402 276.476 214.633C276.606 214.858 276.789 215.033 277.025 215.156C277.261 215.28 277.534 215.342 277.844 215.342C278.064 215.342 278.266 215.306 278.452 215.232C278.643 215.159 278.849 215.027 279.068 214.836L279.508 215.452C279.372 215.587 279.206 215.705 279.009 215.807C278.818 215.908 278.612 215.99 278.393 216.052C278.179 216.108 277.968 216.136 277.76 216.136ZM282.488 216.136C282.082 216.136 281.719 216.037 281.398 215.84C281.083 215.638 280.833 215.365 280.647 215.021C280.461 214.672 280.368 214.275 280.368 213.831C280.368 213.386 280.458 212.992 280.638 212.649C280.824 212.3 281.075 212.027 281.39 211.83C281.705 211.627 282.063 211.526 282.462 211.526C282.682 211.526 282.893 211.562 283.096 211.635C283.304 211.703 283.49 211.799 283.653 211.922C283.816 212.041 283.943 212.173 284.033 212.319C284.129 212.46 284.176 212.604 284.176 212.75L283.923 212.767V209.803H284.793V216.052H283.923V214.996H284.092C284.092 215.131 284.047 215.266 283.957 215.401C283.867 215.531 283.746 215.652 283.594 215.764C283.447 215.877 283.276 215.967 283.079 216.035C282.887 216.102 282.69 216.136 282.488 216.136ZM282.606 215.384C282.87 215.384 283.104 215.317 283.307 215.182C283.509 215.047 283.667 214.864 283.78 214.633C283.898 214.397 283.957 214.129 283.957 213.831C283.957 213.532 283.898 213.268 283.78 213.037C283.667 212.801 283.509 212.615 283.307 212.48C283.104 212.345 282.87 212.277 282.606 212.277C282.341 212.277 282.108 212.345 281.905 212.48C281.702 212.615 281.542 212.801 281.424 213.037C281.311 213.268 281.255 213.532 281.255 213.831C281.255 214.129 281.311 214.397 281.424 214.633C281.542 214.864 281.702 215.047 281.905 215.182C282.108 215.317 282.341 215.384 282.606 215.384Z" fill="black"/>
<path d="M225.562 216.052V211.019H223.907V210.141H228.18V211.019H226.474V216.052H225.562ZM229.797 216.136C229.482 216.136 229.206 216.063 228.97 215.916C228.739 215.77 228.559 215.565 228.429 215.3C228.305 215.035 228.244 214.72 228.244 214.354V211.618H229.113V214.118C229.113 214.377 229.153 214.602 229.231 214.793C229.316 214.979 229.434 215.123 229.586 215.224C229.744 215.325 229.932 215.376 230.152 215.376C230.315 215.376 230.464 215.351 230.599 215.3C230.734 215.244 230.85 215.168 230.946 215.072C231.047 214.976 231.126 214.861 231.182 214.726C231.238 214.591 231.266 214.444 231.266 214.287V211.618H232.136V216.052H231.266V215.123L231.418 215.021C231.351 215.23 231.235 215.418 231.072 215.587C230.915 215.756 230.726 215.891 230.507 215.992C230.287 216.088 230.051 216.136 229.797 216.136ZM235.425 216.136C234.969 216.136 234.564 216.04 234.209 215.849C233.86 215.652 233.584 215.384 233.381 215.047C233.184 214.709 233.086 214.321 233.086 213.881C233.086 213.532 233.142 213.214 233.255 212.927C233.367 212.64 233.522 212.393 233.719 212.184C233.922 211.97 234.161 211.807 234.437 211.694C234.718 211.576 235.022 211.517 235.349 211.517C235.636 211.517 235.903 211.573 236.151 211.686C236.399 211.793 236.613 211.942 236.793 212.134C236.978 212.325 237.119 212.553 237.215 212.818C237.316 213.076 237.364 213.361 237.358 213.67L237.35 214.042H233.728L233.533 213.349H236.598L236.472 213.493V213.29C236.455 213.105 236.393 212.939 236.286 212.792C236.179 212.646 236.044 212.53 235.881 212.446C235.718 212.362 235.54 212.319 235.349 212.319C235.045 212.319 234.789 212.378 234.58 212.497C234.372 212.609 234.215 212.778 234.108 213.003C234.001 213.223 233.947 213.496 233.947 213.822C233.947 214.132 234.012 214.402 234.141 214.633C234.271 214.858 234.454 215.033 234.69 215.156C234.927 215.28 235.2 215.342 235.509 215.342C235.729 215.342 235.931 215.306 236.117 215.232C236.309 215.159 236.514 215.027 236.734 214.836L237.173 215.452C237.038 215.587 236.872 215.705 236.674 215.807C236.483 215.908 236.278 215.99 236.058 216.052C235.844 216.108 235.633 216.136 235.425 216.136Z" fill="black"/>
<path d="M167.924 259.604V257.22H167.14V256.804H169.164V257.22H168.356V259.604H167.924ZM170.138 259.644C169.933 259.644 169.749 259.597 169.586 259.504C169.426 259.408 169.3 259.278 169.206 259.116C169.113 258.95 169.066 258.762 169.066 258.552C169.066 258.341 169.113 258.154 169.206 257.992C169.3 257.826 169.426 257.697 169.586 257.604C169.749 257.508 169.933 257.46 170.138 257.46C170.341 257.46 170.522 257.508 170.682 257.604C170.845 257.697 170.973 257.826 171.066 257.992C171.16 258.154 171.206 258.341 171.206 258.552C171.206 258.762 171.16 258.95 171.066 259.116C170.973 259.278 170.845 259.408 170.682 259.504C170.522 259.597 170.341 259.644 170.138 259.644ZM170.138 259.268C170.264 259.268 170.376 259.237 170.474 259.176C170.573 259.112 170.65 259.026 170.706 258.92C170.762 258.81 170.789 258.688 170.786 258.552C170.789 258.413 170.762 258.29 170.706 258.184C170.65 258.074 170.573 257.989 170.474 257.928C170.376 257.866 170.264 257.836 170.138 257.836C170.013 257.836 169.9 257.868 169.798 257.932C169.7 257.993 169.622 258.078 169.566 258.188C169.51 258.294 169.484 258.416 169.486 258.552C169.484 258.688 169.51 258.81 169.566 258.92C169.622 259.026 169.7 259.112 169.798 259.176C169.9 259.237 170.013 259.268 170.138 259.268ZM172.531 259.644C172.339 259.644 172.167 259.597 172.015 259.504C171.866 259.408 171.747 259.278 171.659 259.116C171.571 258.95 171.527 258.762 171.527 258.552C171.527 258.341 171.57 258.154 171.655 257.992C171.743 257.826 171.862 257.697 172.011 257.604C172.161 257.508 172.33 257.46 172.519 257.46C172.623 257.46 172.723 257.477 172.819 257.512C172.918 257.544 173.006 257.589 173.083 257.648C173.161 257.704 173.221 257.766 173.263 257.836C173.309 257.902 173.331 257.97 173.331 258.04L173.211 258.048V256.644H173.623V259.604H173.211V259.104H173.291C173.291 259.168 173.27 259.232 173.227 259.296C173.185 259.357 173.127 259.414 173.055 259.468C172.986 259.521 172.905 259.564 172.811 259.596C172.721 259.628 172.627 259.644 172.531 259.644ZM172.587 259.288C172.713 259.288 172.823 259.256 172.919 259.192C173.015 259.128 173.09 259.041 173.143 258.932C173.199 258.82 173.227 258.693 173.227 258.552C173.227 258.41 173.199 258.285 173.143 258.176C173.09 258.064 173.015 257.976 172.919 257.912C172.823 257.848 172.713 257.816 172.587 257.816C172.462 257.816 172.351 257.848 172.255 257.912C172.159 257.976 172.083 258.064 172.027 258.176C171.974 258.285 171.947 258.41 171.947 258.552C171.947 258.693 171.974 258.82 172.027 258.932C172.083 259.041 172.159 259.128 172.255 259.192C172.351 259.256 172.462 259.288 172.587 259.288ZM174.998 259.644C174.825 259.644 174.666 259.596 174.522 259.5C174.381 259.404 174.268 259.273 174.182 259.108C174.097 258.942 174.054 258.756 174.054 258.548C174.054 258.337 174.097 258.15 174.182 257.988C174.27 257.822 174.388 257.693 174.534 257.6C174.684 257.506 174.85 257.46 175.034 257.46C175.144 257.46 175.244 257.476 175.334 257.508C175.425 257.54 175.504 257.585 175.57 257.644C175.64 257.7 175.696 257.765 175.738 257.84C175.784 257.914 175.812 257.994 175.822 258.08L175.73 258.048V257.504H176.146V259.604H175.73V259.104L175.826 259.076C175.81 259.148 175.777 259.218 175.726 259.288C175.678 259.354 175.616 259.414 175.538 259.468C175.464 259.521 175.38 259.564 175.286 259.596C175.196 259.628 175.1 259.644 174.998 259.644ZM175.106 259.264C175.232 259.264 175.342 259.233 175.438 259.172C175.534 259.11 175.609 259.026 175.662 258.92C175.718 258.81 175.746 258.686 175.746 258.548C175.746 258.412 175.718 258.29 175.662 258.184C175.609 258.077 175.534 257.993 175.438 257.932C175.342 257.87 175.232 257.84 175.106 257.84C174.984 257.84 174.874 257.87 174.778 257.932C174.685 257.993 174.61 258.077 174.554 258.184C174.501 258.29 174.474 258.412 174.474 258.548C174.474 258.686 174.501 258.81 174.554 258.92C174.61 259.026 174.685 259.11 174.778 259.172C174.874 259.233 174.984 259.264 175.106 259.264ZM177.027 260.524L177.451 259.544L177.455 259.872L176.407 257.504H176.887L177.543 259.048C177.556 259.074 177.572 259.116 177.591 259.172C177.609 259.225 177.625 259.278 177.639 259.332L177.535 259.356C177.556 259.3 177.576 259.244 177.595 259.188C177.616 259.132 177.636 259.076 177.655 259.02L178.203 257.504H178.691L177.827 259.604L177.471 260.524H177.027ZM179.167 259.644C179.079 259.644 179.011 259.618 178.963 259.568C178.915 259.514 178.891 259.44 178.891 259.344C178.891 259.256 178.916 259.184 178.967 259.128C179.018 259.072 179.084 259.044 179.167 259.044C179.255 259.044 179.323 259.07 179.371 259.124C179.419 259.174 179.443 259.248 179.443 259.344C179.443 259.432 179.418 259.504 179.367 259.56C179.316 259.616 179.25 259.644 179.167 259.644ZM179.167 258.064C179.079 258.064 179.011 258.038 178.963 257.988C178.915 257.934 178.891 257.86 178.891 257.764C178.891 257.676 178.916 257.604 178.967 257.548C179.018 257.492 179.084 257.464 179.167 257.464C179.255 257.464 179.323 257.49 179.371 257.544C179.419 257.594 179.443 257.668 179.443 257.764C179.443 257.852 179.418 257.924 179.367 257.98C179.316 258.036 179.25 258.064 179.167 258.064ZM181.666 259.604V257.22H180.882V256.804H182.906V257.22H182.098V259.604H181.666ZM183.672 259.644C183.523 259.644 183.392 259.609 183.28 259.54C183.171 259.47 183.086 259.373 183.024 259.248C182.966 259.122 182.936 258.973 182.936 258.8V257.504H183.348V258.688C183.348 258.81 183.367 258.917 183.404 259.008C183.444 259.096 183.5 259.164 183.572 259.212C183.647 259.26 183.736 259.284 183.84 259.284C183.918 259.284 183.988 259.272 184.052 259.248C184.116 259.221 184.171 259.185 184.216 259.14C184.264 259.094 184.302 259.04 184.328 258.976C184.355 258.912 184.368 258.842 184.368 258.768V257.504H184.78V259.604H184.368V259.164L184.44 259.116C184.408 259.214 184.354 259.304 184.276 259.384C184.202 259.464 184.112 259.528 184.008 259.576C183.904 259.621 183.792 259.644 183.672 259.644ZM186.338 259.644C186.122 259.644 185.93 259.598 185.762 259.508C185.597 259.414 185.466 259.288 185.37 259.128C185.277 258.968 185.23 258.784 185.23 258.576C185.23 258.41 185.257 258.26 185.31 258.124C185.364 257.988 185.437 257.87 185.53 257.772C185.626 257.67 185.74 257.593 185.87 257.54C186.004 257.484 186.148 257.456 186.302 257.456C186.438 257.456 186.565 257.482 186.682 257.536C186.8 257.586 186.901 257.657 186.986 257.748C187.074 257.838 187.141 257.946 187.186 258.072C187.234 258.194 187.257 258.329 187.254 258.476L187.25 258.652H185.534L185.442 258.324H186.894L186.834 258.392V258.296C186.826 258.208 186.797 258.129 186.746 258.06C186.696 257.99 186.632 257.936 186.554 257.896C186.477 257.856 186.393 257.836 186.302 257.836C186.158 257.836 186.037 257.864 185.938 257.92C185.84 257.973 185.765 258.053 185.714 258.16C185.664 258.264 185.638 258.393 185.638 258.548C185.638 258.694 185.669 258.822 185.73 258.932C185.792 259.038 185.878 259.121 185.99 259.18C186.102 259.238 186.232 259.268 186.378 259.268C186.482 259.268 186.578 259.25 186.666 259.216C186.757 259.181 186.854 259.118 186.958 259.028L187.166 259.32C187.102 259.384 187.024 259.44 186.93 259.488C186.84 259.536 186.742 259.574 186.638 259.604C186.537 259.63 186.437 259.644 186.338 259.644ZM188.402 259.644C188.226 259.644 188.067 259.613 187.926 259.552C187.785 259.49 187.667 259.4 187.574 259.28L187.854 259.04C187.934 259.133 188.021 259.201 188.114 259.244C188.21 259.284 188.318 259.304 188.438 259.304C188.486 259.304 188.53 259.298 188.57 259.288C188.613 259.274 188.649 259.256 188.678 259.232C188.71 259.208 188.734 259.18 188.75 259.148C188.766 259.113 188.774 259.076 188.774 259.036C188.774 258.966 188.749 258.91 188.698 258.868C188.671 258.849 188.629 258.829 188.57 258.808C188.514 258.784 188.441 258.76 188.35 258.736C188.195 258.696 188.069 258.65 187.97 258.6C187.871 258.549 187.795 258.492 187.742 258.428C187.702 258.377 187.673 258.322 187.654 258.264C187.635 258.202 187.626 258.136 187.626 258.064C187.626 257.976 187.645 257.896 187.682 257.824C187.722 257.749 187.775 257.685 187.842 257.632C187.911 257.576 187.991 257.533 188.082 257.504C188.175 257.474 188.274 257.46 188.378 257.46C188.477 257.46 188.574 257.473 188.67 257.5C188.769 257.526 188.859 257.565 188.942 257.616C189.025 257.666 189.094 257.726 189.15 257.796L188.914 258.056C188.863 258.005 188.807 257.961 188.746 257.924C188.687 257.884 188.627 257.853 188.566 257.832C188.505 257.81 188.449 257.8 188.398 257.8C188.342 257.8 188.291 257.805 188.246 257.816C188.201 257.826 188.162 257.842 188.13 257.864C188.101 257.885 188.078 257.912 188.062 257.944C188.046 257.976 188.038 258.012 188.038 258.052C188.041 258.086 188.049 258.12 188.062 258.152C188.078 258.181 188.099 258.206 188.126 258.228C188.155 258.249 188.199 258.272 188.258 258.296C188.317 258.32 188.391 258.342 188.482 258.364C188.615 258.398 188.725 258.437 188.81 258.48C188.898 258.52 188.967 258.566 189.018 258.62C189.071 258.67 189.109 258.729 189.13 258.796C189.151 258.862 189.162 258.937 189.162 259.02C189.162 259.14 189.127 259.248 189.058 259.344C188.991 259.437 188.901 259.51 188.786 259.564C188.671 259.617 188.543 259.644 188.402 259.644ZM190.492 259.644C190.3 259.644 190.128 259.597 189.976 259.504C189.827 259.408 189.708 259.278 189.62 259.116C189.532 258.95 189.488 258.762 189.488 258.552C189.488 258.341 189.531 258.154 189.616 257.992C189.704 257.826 189.823 257.697 189.972 257.604C190.121 257.508 190.291 257.46 190.48 257.46C190.584 257.46 190.684 257.477 190.78 257.512C190.879 257.544 190.967 257.589 191.044 257.648C191.121 257.704 191.181 257.766 191.224 257.836C191.269 257.902 191.292 257.97 191.292 258.04L191.172 258.048V256.644H191.584V259.604H191.172V259.104H191.252C191.252 259.168 191.231 259.232 191.188 259.296C191.145 259.357 191.088 259.414 191.016 259.468C190.947 259.521 190.865 259.564 190.772 259.596C190.681 259.628 190.588 259.644 190.492 259.644ZM190.548 259.288C190.673 259.288 190.784 259.256 190.88 259.192C190.976 259.128 191.051 259.041 191.104 258.932C191.16 258.82 191.188 258.693 191.188 258.552C191.188 258.41 191.16 258.285 191.104 258.176C191.051 258.064 190.976 257.976 190.88 257.912C190.784 257.848 190.673 257.816 190.548 257.816C190.423 257.816 190.312 257.848 190.216 257.912C190.12 257.976 190.044 258.064 189.988 258.176C189.935 258.285 189.908 258.41 189.908 258.552C189.908 258.693 189.935 258.82 189.988 258.932C190.044 259.041 190.12 259.128 190.216 259.192C190.312 259.256 190.423 259.288 190.548 259.288ZM192.959 259.644C192.786 259.644 192.627 259.596 192.483 259.5C192.342 259.404 192.229 259.273 192.143 259.108C192.058 258.942 192.015 258.756 192.015 258.548C192.015 258.337 192.058 258.15 192.143 257.988C192.231 257.822 192.349 257.693 192.495 257.6C192.645 257.506 192.811 257.46 192.995 257.46C193.105 257.46 193.205 257.476 193.295 257.508C193.386 257.54 193.465 257.585 193.531 257.644C193.601 257.7 193.657 257.765 193.699 257.84C193.745 257.914 193.773 257.994 193.783 258.08L193.691 258.048V257.504H194.107V259.604H193.691V259.104L193.787 259.076C193.771 259.148 193.738 259.218 193.687 259.288C193.639 259.354 193.577 259.414 193.499 259.468C193.425 259.521 193.341 259.564 193.247 259.596C193.157 259.628 193.061 259.644 192.959 259.644ZM193.067 259.264C193.193 259.264 193.303 259.233 193.399 259.172C193.495 259.11 193.57 259.026 193.623 258.92C193.679 258.81 193.707 258.686 193.707 258.548C193.707 258.412 193.679 258.29 193.623 258.184C193.57 258.077 193.495 257.993 193.399 257.932C193.303 257.87 193.193 257.84 193.067 257.84C192.945 257.84 192.835 257.87 192.739 257.932C192.646 257.993 192.571 258.077 192.515 258.184C192.462 258.29 192.435 258.412 192.435 258.548C192.435 258.686 192.462 258.81 192.515 258.92C192.571 259.026 192.646 259.11 192.739 259.172C192.835 259.233 192.945 259.264 193.067 259.264ZM194.988 260.524L195.412 259.544L195.416 259.872L194.368 257.504H194.848L195.504 259.048C195.517 259.074 195.533 259.116 195.552 259.172C195.57 259.225 195.586 259.278 195.6 259.332L195.496 259.356C195.517 259.3 195.537 259.244 195.556 259.188C195.577 259.132 195.597 259.076 195.616 259.02L196.164 257.504H196.652L195.788 259.604L195.432 260.524H194.988ZM196.666 260.132L198.314 256.804H198.71L197.066 260.132H196.666ZM199.567 259.408V257.136L199.715 257.248L199.163 257.54L199.047 257.164L199.795 256.764H200.003V259.408H199.567ZM199.123 259.604V259.188H200.459V259.604H199.123ZM201.567 259.408V257.136L201.715 257.248L201.163 257.54L201.047 257.164L201.795 256.764H202.003V259.408H201.567ZM201.123 259.604V259.188H202.459V259.604H201.123Z" fill="black"/>
<path d="M281.924 259.604V257.22H281.14V256.804H283.164V257.22H282.356V259.604H281.924ZM284.138 259.644C283.933 259.644 283.749 259.597 283.586 259.504C283.426 259.408 283.3 259.278 283.206 259.116C283.113 258.95 283.066 258.762 283.066 258.552C283.066 258.341 283.113 258.154 283.206 257.992C283.3 257.826 283.426 257.697 283.586 257.604C283.749 257.508 283.933 257.46 284.138 257.46C284.341 257.46 284.522 257.508 284.682 257.604C284.845 257.697 284.973 257.826 285.066 257.992C285.16 258.154 285.206 258.341 285.206 258.552C285.206 258.762 285.16 258.95 285.066 259.116C284.973 259.278 284.845 259.408 284.682 259.504C284.522 259.597 284.341 259.644 284.138 259.644ZM284.138 259.268C284.264 259.268 284.376 259.237 284.474 259.176C284.573 259.112 284.65 259.026 284.706 258.92C284.762 258.81 284.789 258.688 284.786 258.552C284.789 258.413 284.762 258.29 284.706 258.184C284.65 258.074 284.573 257.989 284.474 257.928C284.376 257.866 284.264 257.836 284.138 257.836C284.013 257.836 283.9 257.868 283.798 257.932C283.7 257.993 283.622 258.078 283.566 258.188C283.51 258.294 283.484 258.416 283.486 258.552C283.484 258.688 283.51 258.81 283.566 258.92C283.622 259.026 283.7 259.112 283.798 259.176C283.9 259.237 284.013 259.268 284.138 259.268ZM285.915 259.604V256.968H286.327V259.604H285.915ZM285.479 257.904V257.504H286.815V257.904H285.479ZM287.979 259.644C287.805 259.644 287.647 259.596 287.503 259.5C287.361 259.404 287.248 259.273 287.163 259.108C287.077 258.942 287.035 258.756 287.035 258.548C287.035 258.337 287.077 258.15 287.163 257.988C287.251 257.822 287.368 257.693 287.515 257.6C287.664 257.506 287.831 257.46 288.015 257.46C288.124 257.46 288.224 257.476 288.315 257.508C288.405 257.54 288.484 257.585 288.551 257.644C288.62 257.7 288.676 257.765 288.719 257.84C288.764 257.914 288.792 257.994 288.803 258.08L288.711 258.048V257.504H289.127V259.604H288.711V259.104L288.807 259.076C288.791 259.148 288.757 259.218 288.707 259.288C288.659 259.354 288.596 259.414 288.519 259.468C288.444 259.521 288.36 259.564 288.267 259.596C288.176 259.628 288.08 259.644 287.979 259.644ZM288.087 259.264C288.212 259.264 288.323 259.233 288.419 259.172C288.515 259.11 288.589 259.026 288.643 258.92C288.699 258.81 288.727 258.686 288.727 258.548C288.727 258.412 288.699 258.29 288.643 258.184C288.589 258.077 288.515 257.993 288.419 257.932C288.323 257.87 288.212 257.84 288.087 257.84C287.964 257.84 287.855 257.87 287.759 257.932C287.665 257.993 287.591 258.077 287.535 258.184C287.481 258.29 287.455 258.412 287.455 258.548C287.455 258.686 287.481 258.81 287.535 258.92C287.591 259.026 287.665 259.11 287.759 259.172C287.855 259.233 287.964 259.264 288.087 259.264ZM289.71 259.604V256.644H290.122V259.604H289.71ZM290.874 259.644C290.786 259.644 290.718 259.618 290.67 259.568C290.622 259.514 290.598 259.44 290.598 259.344C290.598 259.256 290.623 259.184 290.674 259.128C290.725 259.072 290.791 259.044 290.874 259.044C290.962 259.044 291.03 259.07 291.078 259.124C291.126 259.174 291.15 259.248 291.15 259.344C291.15 259.432 291.125 259.504 291.074 259.56C291.023 259.616 290.957 259.644 290.874 259.644ZM290.874 258.064C290.786 258.064 290.718 258.038 290.67 257.988C290.622 257.934 290.598 257.86 290.598 257.764C290.598 257.676 290.623 257.604 290.674 257.548C290.725 257.492 290.791 257.464 290.874 257.464C290.962 257.464 291.03 257.49 291.078 257.544C291.126 257.594 291.15 257.668 291.15 257.764C291.15 257.852 291.125 257.924 291.074 257.98C291.023 258.036 290.957 258.064 290.874 258.064ZM293.453 259.644C293.256 259.644 293.084 259.598 292.937 259.508C292.793 259.417 292.657 259.265 292.529 259.052L292.865 258.84C292.932 258.938 292.997 259.02 293.061 259.084C293.128 259.145 293.196 259.19 293.265 259.22C293.335 259.249 293.408 259.264 293.485 259.264C293.579 259.264 293.665 259.241 293.745 259.196C293.825 259.148 293.889 259.082 293.937 259C293.985 258.917 294.009 258.824 294.009 258.72C294.009 258.616 293.991 258.528 293.953 258.456C293.916 258.381 293.861 258.325 293.789 258.288C293.717 258.248 293.632 258.228 293.533 258.228C293.488 258.228 293.44 258.233 293.389 258.244C293.341 258.252 293.289 258.265 293.233 258.284C293.177 258.3 293.116 258.321 293.049 258.348L292.929 258.032L293.793 257.08L293.877 257.204H292.685V256.804H294.289L294.369 256.964L293.453 257.98L293.353 257.876C293.375 257.865 293.409 257.856 293.457 257.848C293.508 257.837 293.549 257.832 293.581 257.832C293.699 257.832 293.808 257.854 293.909 257.9C294.013 257.942 294.103 258.004 294.177 258.084C294.255 258.161 294.315 258.253 294.357 258.36C294.403 258.464 294.425 258.576 294.425 258.696C294.425 258.877 294.381 259.04 294.293 259.184C294.208 259.325 294.092 259.437 293.945 259.52C293.799 259.602 293.635 259.644 293.453 259.644Z" fill="black"/>
<path d="M268.544 284.932C268.343 284.932 268.157 284.906 267.984 284.853C267.815 284.8 267.66 284.721 267.52 284.616C267.383 284.507 267.259 284.373 267.15 284.215L267.541 283.766C267.713 284.012 267.879 284.183 268.037 284.278C268.195 284.373 268.384 284.421 268.602 284.421C268.735 284.421 268.857 284.399 268.966 284.357C269.075 284.315 269.161 284.257 269.224 284.183C269.288 284.109 269.319 284.025 269.319 283.93C269.319 283.866 269.309 283.807 269.288 283.75C269.267 283.694 269.233 283.643 269.187 283.597C269.145 283.551 269.089 283.509 269.019 283.471C268.952 283.432 268.873 283.398 268.781 283.37C268.69 283.339 268.584 283.312 268.464 283.291C268.274 283.252 268.109 283.201 267.968 283.138C267.828 283.075 267.71 282.996 267.615 282.901C267.52 282.806 267.449 282.698 267.404 282.579C267.358 282.456 267.335 282.318 267.335 282.167C267.335 282.019 267.367 281.882 267.43 281.755C267.497 281.629 267.587 281.52 267.699 281.428C267.815 281.333 267.951 281.261 268.106 281.212C268.26 281.159 268.427 281.133 268.607 281.133C268.797 281.133 268.971 281.157 269.129 281.207C269.288 281.256 269.428 281.33 269.552 281.428C269.675 281.523 269.777 281.641 269.858 281.782L269.457 282.178C269.386 282.062 269.307 281.965 269.219 281.887C269.131 281.806 269.034 281.747 268.929 281.708C268.823 281.666 268.711 281.645 268.591 281.645C268.454 281.645 268.334 281.666 268.232 281.708C268.13 281.75 268.049 281.81 267.989 281.887C267.933 281.961 267.905 282.049 267.905 282.151C267.905 282.225 267.919 282.294 267.947 282.357C267.975 282.417 268.018 282.471 268.074 282.521C268.134 282.566 268.213 282.609 268.311 282.647C268.41 282.682 268.528 282.714 268.665 282.742C268.858 282.785 269.031 282.839 269.182 282.906C269.333 282.969 269.462 283.045 269.567 283.133C269.673 283.221 269.752 283.319 269.805 283.428C269.861 283.537 269.889 283.655 269.889 283.782C269.889 284.018 269.835 284.222 269.726 284.394C269.617 284.567 269.462 284.7 269.261 284.795C269.061 284.887 268.822 284.932 268.544 284.932ZM271.024 286.093L271.583 284.8L271.589 285.233L270.206 282.109H270.839L271.705 284.146C271.722 284.181 271.744 284.236 271.768 284.31C271.793 284.38 271.814 284.45 271.832 284.521L271.694 284.552C271.722 284.479 271.749 284.405 271.773 284.331C271.802 284.257 271.828 284.183 271.853 284.109L272.576 282.109H273.219L272.08 284.88L271.61 286.093H271.024ZM273.626 284.88V282.109H274.17V282.679L274.075 282.742C274.11 282.619 274.179 282.507 274.281 282.405C274.383 282.299 274.504 282.215 274.645 282.151C274.785 282.084 274.93 282.051 275.077 282.051C275.289 282.051 275.464 282.093 275.605 282.178C275.746 282.259 275.851 282.383 275.922 282.552C275.992 282.721 276.027 282.934 276.027 283.191V284.88H275.484V283.228C275.484 283.069 275.463 282.939 275.42 282.837C275.378 282.732 275.313 282.656 275.225 282.61C275.137 282.561 275.028 282.54 274.898 282.547C274.792 282.547 274.696 282.565 274.608 282.6C274.52 282.631 274.442 282.677 274.376 282.737C274.312 282.797 274.261 282.867 274.222 282.948C274.187 283.026 274.17 283.11 274.17 283.201V284.88H273.901C273.855 284.88 273.809 284.88 273.763 284.88C273.718 284.88 273.672 284.88 273.626 284.88ZM277.942 284.932C277.685 284.932 277.454 284.869 277.25 284.742C277.05 284.616 276.89 284.443 276.77 284.225C276.654 284.007 276.596 283.763 276.596 283.492C276.596 283.221 276.654 282.976 276.77 282.758C276.89 282.54 277.05 282.368 277.25 282.241C277.454 282.114 277.685 282.051 277.942 282.051C278.188 282.051 278.411 282.102 278.612 282.204C278.816 282.303 278.971 282.438 279.076 282.61L278.775 282.98C278.719 282.899 278.647 282.825 278.559 282.758C278.471 282.691 278.378 282.638 278.279 282.6C278.181 282.561 278.086 282.542 277.994 282.542C277.826 282.542 277.674 282.584 277.541 282.668C277.41 282.749 277.307 282.862 277.229 283.006C277.152 283.15 277.113 283.312 277.113 283.492C277.113 283.671 277.154 283.833 277.234 283.977C277.315 284.118 277.423 284.231 277.556 284.315C277.69 284.399 277.838 284.442 278 284.442C278.095 284.442 278.186 284.426 278.274 284.394C278.366 284.362 278.454 284.315 278.538 284.252C278.622 284.188 278.702 284.111 278.775 284.019L279.076 284.389C278.964 284.547 278.802 284.677 278.591 284.779C278.383 284.881 278.167 284.932 277.942 284.932ZM280.882 284.932C280.597 284.932 280.344 284.873 280.122 284.753C279.904 284.63 279.731 284.463 279.605 284.252C279.482 284.041 279.42 283.798 279.42 283.523C279.42 283.305 279.455 283.106 279.526 282.927C279.596 282.748 279.693 282.593 279.816 282.463C279.943 282.329 280.092 282.227 280.265 282.156C280.44 282.083 280.63 282.046 280.834 282.046C281.014 282.046 281.181 282.081 281.336 282.151C281.491 282.218 281.624 282.311 281.737 282.431C281.853 282.551 281.941 282.693 282.001 282.858C282.064 283.02 282.094 283.198 282.09 283.391L282.085 283.624H279.821L279.7 283.191H281.616L281.536 283.281V283.154C281.526 283.038 281.487 282.934 281.42 282.843C281.353 282.751 281.269 282.679 281.167 282.626C281.065 282.573 280.954 282.547 280.834 282.547C280.644 282.547 280.484 282.584 280.354 282.658C280.224 282.728 280.126 282.834 280.059 282.974C279.992 283.112 279.958 283.282 279.958 283.486C279.958 283.68 279.999 283.849 280.08 283.993C280.161 284.134 280.275 284.243 280.423 284.32C280.571 284.398 280.741 284.436 280.935 284.436C281.072 284.436 281.199 284.413 281.315 284.368C281.434 284.322 281.563 284.239 281.7 284.12L281.974 284.505C281.89 284.589 281.786 284.663 281.663 284.727C281.543 284.79 281.415 284.841 281.278 284.88C281.144 284.915 281.012 284.932 280.882 284.932ZM283.837 284.932C283.584 284.932 283.357 284.871 283.156 284.748C282.959 284.621 282.803 284.45 282.687 284.236C282.57 284.018 282.512 283.77 282.512 283.492C282.512 283.214 282.569 282.967 282.681 282.753C282.797 282.535 282.954 282.364 283.151 282.241C283.348 282.114 283.571 282.051 283.821 282.051C283.958 282.051 284.09 282.074 284.217 282.12C284.347 282.162 284.463 282.222 284.565 282.299C284.667 282.373 284.746 282.456 284.803 282.547C284.863 282.635 284.892 282.725 284.892 282.816L284.734 282.827V280.974H285.278V284.88H284.734V284.22H284.84C284.84 284.304 284.812 284.389 284.755 284.473C284.699 284.554 284.623 284.63 284.528 284.7C284.437 284.771 284.33 284.827 284.206 284.869C284.087 284.911 283.964 284.932 283.837 284.932ZM283.911 284.463C284.076 284.463 284.222 284.421 284.349 284.336C284.476 284.252 284.574 284.137 284.644 283.993C284.718 283.845 284.755 283.678 284.755 283.492C284.755 283.305 284.718 283.14 284.644 282.996C284.574 282.848 284.476 282.732 284.349 282.647C284.222 282.563 284.076 282.521 283.911 282.521C283.746 282.521 283.6 282.563 283.473 282.647C283.346 282.732 283.246 282.848 283.172 282.996C283.102 283.14 283.066 283.305 283.066 283.492C283.066 283.678 283.102 283.845 283.172 283.993C283.246 284.137 283.346 284.252 283.473 284.336C283.6 284.421 283.746 284.463 283.911 284.463Z" fill="#35CA00"/>
<path d="M263.266 272.267C263.065 272.267 262.879 272.24 262.707 272.187C262.538 272.135 262.383 272.056 262.242 271.95C262.105 271.841 261.982 271.707 261.873 271.549L262.263 271.1C262.436 271.347 262.601 271.517 262.759 271.612C262.918 271.707 263.106 271.755 263.324 271.755C263.458 271.755 263.579 271.734 263.688 271.691C263.797 271.649 263.883 271.591 263.947 271.517C264.01 271.443 264.042 271.359 264.042 271.264C264.042 271.201 264.031 271.141 264.01 271.085C263.989 271.028 263.956 270.977 263.91 270.931C263.868 270.886 263.811 270.843 263.741 270.805C263.674 270.766 263.595 270.733 263.503 270.705C263.412 270.673 263.306 270.646 263.187 270.625C262.997 270.587 262.831 270.536 262.691 270.472C262.55 270.409 262.432 270.33 262.337 270.235C262.242 270.14 262.172 270.033 262.126 269.913C262.08 269.79 262.057 269.653 262.057 269.501C262.057 269.354 262.089 269.216 262.152 269.09C262.219 268.963 262.309 268.854 262.422 268.762C262.538 268.667 262.673 268.595 262.828 268.546C262.983 268.493 263.15 268.467 263.329 268.467C263.519 268.467 263.693 268.492 263.852 268.541C264.01 268.59 264.151 268.664 264.274 268.762C264.397 268.857 264.499 268.975 264.58 269.116L264.179 269.512C264.109 269.396 264.029 269.299 263.942 269.222C263.854 269.141 263.757 269.081 263.651 269.042C263.546 269 263.433 268.979 263.313 268.979C263.176 268.979 263.057 269 262.955 269.042C262.853 269.084 262.772 269.144 262.712 269.222C262.656 269.295 262.627 269.383 262.627 269.485C262.627 269.559 262.642 269.628 262.67 269.691C262.698 269.751 262.74 269.806 262.796 269.855C262.856 269.901 262.935 269.943 263.034 269.982C263.132 270.017 263.25 270.048 263.387 270.077C263.581 270.119 263.753 270.173 263.905 270.24C264.056 270.303 264.184 270.379 264.29 270.467C264.395 270.555 264.475 270.654 264.527 270.763C264.584 270.872 264.612 270.99 264.612 271.116C264.612 271.352 264.557 271.556 264.448 271.728C264.339 271.901 264.184 272.034 263.984 272.129C263.783 272.221 263.544 272.267 263.266 272.267ZM265.625 272.214V268.736H266.169V272.214H265.625ZM265.05 269.971V269.443H266.813V269.971H265.05ZM268.348 272.267C268.119 272.267 267.91 272.203 267.72 272.077C267.533 271.95 267.384 271.778 267.271 271.559C267.159 271.341 267.102 271.095 267.102 270.821C267.102 270.543 267.159 270.296 267.271 270.082C267.387 269.864 267.542 269.693 267.736 269.57C267.933 269.447 268.153 269.385 268.395 269.385C268.54 269.385 268.671 269.406 268.791 269.449C268.911 269.491 269.014 269.551 269.102 269.628C269.194 269.702 269.268 269.788 269.324 269.887C269.384 269.985 269.421 270.091 269.435 270.203L269.314 270.161V269.443H269.862V272.214H269.314V271.554L269.44 271.517C269.419 271.612 269.375 271.705 269.308 271.797C269.245 271.885 269.162 271.964 269.06 272.034C268.962 272.105 268.851 272.161 268.728 272.203C268.608 272.246 268.481 272.267 268.348 272.267ZM268.49 271.765C268.656 271.765 268.802 271.725 268.928 271.644C269.055 271.563 269.153 271.452 269.224 271.311C269.298 271.167 269.335 271.004 269.335 270.821C269.335 270.641 269.298 270.481 269.224 270.34C269.153 270.2 269.055 270.089 268.928 270.008C268.802 269.927 268.656 269.887 268.49 269.887C268.328 269.887 268.184 269.927 268.058 270.008C267.934 270.089 267.836 270.2 267.762 270.34C267.692 270.481 267.656 270.641 267.656 270.821C267.656 271.004 267.692 271.167 267.762 271.311C267.836 271.452 267.934 271.563 268.058 271.644C268.184 271.725 268.328 271.765 268.49 271.765ZM270.964 272.214V268.736H271.508V272.214H270.964ZM270.389 269.971V269.443H272.152V269.971H270.389ZM273.618 272.267C273.421 272.267 273.248 272.221 273.101 272.129C272.956 272.038 272.844 271.91 272.763 271.744C272.685 271.579 272.647 271.382 272.647 271.153V269.443H273.19V271.005C273.19 271.167 273.215 271.308 273.264 271.428C273.317 271.544 273.391 271.633 273.486 271.697C273.584 271.76 273.702 271.792 273.839 271.792C273.941 271.792 274.035 271.776 274.119 271.744C274.204 271.709 274.276 271.661 274.336 271.602C274.399 271.542 274.448 271.47 274.483 271.385C274.518 271.301 274.536 271.209 274.536 271.111V269.443H275.08V272.214H274.536V271.633L274.631 271.57C274.589 271.7 274.517 271.818 274.415 271.924C274.316 272.029 274.198 272.114 274.061 272.177C273.924 272.237 273.776 272.267 273.618 272.267ZM276.766 272.267C276.533 272.267 276.324 272.226 276.138 272.145C275.951 272.064 275.796 271.945 275.673 271.786L276.043 271.47C276.148 271.593 276.262 271.683 276.386 271.739C276.512 271.792 276.655 271.818 276.813 271.818C276.876 271.818 276.934 271.811 276.987 271.797C277.044 271.779 277.091 271.755 277.13 271.723C277.172 271.691 277.204 271.654 277.225 271.612C277.246 271.567 277.256 271.517 277.256 271.464C277.256 271.373 277.223 271.299 277.156 271.243C277.121 271.218 277.065 271.192 276.987 271.164C276.913 271.132 276.817 271.1 276.697 271.069C276.493 271.016 276.326 270.956 276.196 270.889C276.065 270.822 275.965 270.747 275.895 270.662C275.842 270.595 275.803 270.523 275.779 270.446C275.754 270.365 275.742 270.277 275.742 270.182C275.742 270.066 275.766 269.96 275.816 269.865C275.868 269.767 275.939 269.682 276.027 269.612C276.118 269.538 276.224 269.482 276.343 269.443C276.467 269.405 276.597 269.385 276.734 269.385C276.864 269.385 276.993 269.403 277.119 269.438C277.249 269.473 277.369 269.524 277.478 269.591C277.587 269.658 277.679 269.737 277.752 269.828L277.441 270.172C277.374 270.105 277.3 270.047 277.219 269.997C277.142 269.945 277.063 269.904 276.982 269.876C276.901 269.848 276.827 269.834 276.76 269.834C276.686 269.834 276.62 269.841 276.56 269.855C276.5 269.869 276.449 269.89 276.407 269.918C276.368 269.946 276.338 269.982 276.317 270.024C276.296 270.066 276.285 270.113 276.285 270.166C276.289 270.212 276.299 270.256 276.317 270.298C276.338 270.337 276.366 270.37 276.401 270.398C276.44 270.427 276.498 270.456 276.576 270.488C276.653 270.52 276.752 270.55 276.871 270.578C277.047 270.624 277.191 270.675 277.304 270.731C277.42 270.784 277.511 270.845 277.578 270.916C277.649 270.982 277.698 271.06 277.726 271.148C277.754 271.236 277.768 271.334 277.768 271.443C277.768 271.602 277.723 271.744 277.631 271.871C277.543 271.994 277.424 272.091 277.272 272.161C277.121 272.231 276.952 272.267 276.766 272.267Z" fill="#7A7A7A"/>
<path d="M263.266 313.575C263.065 313.575 262.879 313.548 262.707 313.495C262.538 313.443 262.383 313.363 262.242 313.258C262.105 313.149 261.982 313.015 261.873 312.857L262.263 312.408C262.436 312.654 262.601 312.825 262.759 312.92C262.918 313.015 263.106 313.063 263.324 313.063C263.458 313.063 263.579 313.041 263.688 312.999C263.797 312.957 263.883 312.899 263.947 312.825C264.01 312.751 264.042 312.667 264.042 312.572C264.042 312.508 264.031 312.449 264.01 312.392C263.989 312.336 263.956 312.285 263.91 312.239C263.868 312.194 263.811 312.151 263.741 312.113C263.674 312.074 263.595 312.041 263.503 312.012C263.412 311.981 263.306 311.954 263.187 311.933C262.997 311.895 262.831 311.844 262.691 311.78C262.55 311.717 262.432 311.638 262.337 311.543C262.242 311.448 262.172 311.34 262.126 311.221C262.08 311.098 262.057 310.96 262.057 310.809C262.057 310.661 262.089 310.524 262.152 310.398C262.219 310.271 262.309 310.162 262.422 310.07C262.538 309.975 262.673 309.903 262.828 309.854C262.983 309.801 263.15 309.775 263.329 309.775C263.519 309.775 263.693 309.799 263.852 309.849C264.01 309.898 264.151 309.972 264.274 310.07C264.397 310.165 264.499 310.283 264.58 310.424L264.179 310.82C264.109 310.704 264.029 310.607 263.942 310.529C263.854 310.449 263.757 310.389 263.651 310.35C263.546 310.308 263.433 310.287 263.313 310.287C263.176 310.287 263.057 310.308 262.955 310.35C262.853 310.392 262.772 310.452 262.712 310.529C262.656 310.603 262.627 310.691 262.627 310.793C262.627 310.867 262.642 310.936 262.67 310.999C262.698 311.059 262.74 311.113 262.796 311.163C262.856 311.208 262.935 311.251 263.034 311.289C263.132 311.325 263.25 311.356 263.387 311.384C263.581 311.427 263.753 311.481 263.905 311.548C264.056 311.611 264.184 311.687 264.29 311.775C264.395 311.863 264.475 311.961 264.527 312.07C264.584 312.18 264.612 312.297 264.612 312.424C264.612 312.66 264.557 312.864 264.448 313.036C264.339 313.209 264.184 313.342 263.984 313.437C263.783 313.529 263.544 313.575 263.266 313.575ZM265.625 313.522V310.044H266.169V313.522H265.625ZM265.05 311.279V310.751H266.813V311.279H265.05ZM268.348 313.575C268.119 313.575 267.91 313.511 267.72 313.385C267.533 313.258 267.384 313.085 267.271 312.867C267.159 312.649 267.102 312.403 267.102 312.128C267.102 311.851 267.159 311.604 267.271 311.39C267.387 311.172 267.542 311.001 267.736 310.878C267.933 310.755 268.153 310.693 268.395 310.693C268.54 310.693 268.671 310.714 268.791 310.756C268.911 310.799 269.014 310.858 269.102 310.936C269.194 311.01 269.268 311.096 269.324 311.194C269.384 311.293 269.421 311.398 269.435 311.511L269.314 311.469V310.751H269.862V313.522H269.314V312.862L269.44 312.825C269.419 312.92 269.375 313.013 269.308 313.105C269.245 313.193 269.162 313.272 269.06 313.342C268.962 313.413 268.851 313.469 268.728 313.511C268.608 313.553 268.481 313.575 268.348 313.575ZM268.49 313.073C268.656 313.073 268.802 313.033 268.928 312.952C269.055 312.871 269.153 312.76 269.224 312.619C269.298 312.475 269.335 312.311 269.335 312.128C269.335 311.949 269.298 311.789 269.224 311.648C269.153 311.508 269.055 311.397 268.928 311.316C268.802 311.235 268.656 311.194 268.49 311.194C268.328 311.194 268.184 311.235 268.058 311.316C267.934 311.397 267.836 311.508 267.762 311.648C267.692 311.789 267.656 311.949 267.656 312.128C267.656 312.311 267.692 312.475 267.762 312.619C267.836 312.76 267.934 312.871 268.058 312.952C268.184 313.033 268.328 313.073 268.49 313.073ZM270.964 313.522V310.044H271.508V313.522H270.964ZM270.389 311.279V310.751H272.152V311.279H270.389ZM273.618 313.575C273.421 313.575 273.248 313.529 273.101 313.437C272.956 313.346 272.844 313.217 272.763 313.052C272.685 312.887 272.647 312.69 272.647 312.461V310.751H273.19V312.313C273.19 312.475 273.215 312.616 273.264 312.735C273.317 312.851 273.391 312.941 273.486 313.005C273.584 313.068 273.702 313.1 273.839 313.1C273.941 313.1 274.035 313.084 274.119 313.052C274.204 313.017 274.276 312.969 274.336 312.91C274.399 312.85 274.448 312.778 274.483 312.693C274.518 312.609 274.536 312.517 274.536 312.419V310.751H275.08V313.522H274.536V312.941L274.631 312.878C274.589 313.008 274.517 313.126 274.415 313.231C274.316 313.337 274.198 313.421 274.061 313.485C273.924 313.545 273.776 313.575 273.618 313.575ZM276.766 313.575C276.533 313.575 276.324 313.534 276.138 313.453C275.951 313.372 275.796 313.253 275.673 313.094L276.043 312.778C276.148 312.901 276.262 312.99 276.386 313.047C276.512 313.1 276.655 313.126 276.813 313.126C276.876 313.126 276.934 313.119 276.987 313.105C277.044 313.087 277.091 313.063 277.13 313.031C277.172 312.999 277.204 312.962 277.225 312.92C277.246 312.874 277.256 312.825 277.256 312.772C277.256 312.681 277.223 312.607 277.156 312.551C277.121 312.526 277.065 312.5 276.987 312.472C276.913 312.44 276.817 312.408 276.697 312.377C276.493 312.324 276.326 312.264 276.196 312.197C276.065 312.13 275.965 312.055 275.895 311.97C275.842 311.903 275.803 311.831 275.779 311.754C275.754 311.673 275.742 311.585 275.742 311.49C275.742 311.374 275.766 311.268 275.816 311.173C275.868 311.075 275.939 310.99 276.027 310.92C276.118 310.846 276.224 310.79 276.343 310.751C276.467 310.712 276.597 310.693 276.734 310.693C276.864 310.693 276.993 310.711 277.119 310.746C277.249 310.781 277.369 310.832 277.478 310.899C277.587 310.966 277.679 311.045 277.752 311.136L277.441 311.479C277.374 311.413 277.3 311.354 277.219 311.305C277.142 311.252 277.063 311.212 276.982 311.184C276.901 311.156 276.827 311.142 276.76 311.142C276.686 311.142 276.62 311.149 276.56 311.163C276.5 311.177 276.449 311.198 276.407 311.226C276.368 311.254 276.338 311.289 276.317 311.332C276.296 311.374 276.285 311.421 276.285 311.474C276.289 311.52 276.299 311.564 276.317 311.606C276.338 311.645 276.366 311.678 276.401 311.706C276.44 311.734 276.498 311.764 276.576 311.796C276.653 311.828 276.752 311.858 276.871 311.886C277.047 311.931 277.191 311.982 277.304 312.039C277.42 312.092 277.511 312.153 277.578 312.223C277.649 312.29 277.698 312.368 277.726 312.456C277.754 312.544 277.768 312.642 277.768 312.751C277.768 312.91 277.723 313.052 277.631 313.179C277.543 313.302 277.424 313.399 277.272 313.469C277.121 313.539 276.952 313.575 276.766 313.575Z" fill="#7A7A7A"/>
<path d="M263.266 354.738C263.065 354.738 262.879 354.712 262.707 354.659C262.538 354.606 262.383 354.527 262.242 354.422C262.105 354.313 261.982 354.179 261.873 354.021L262.263 353.572C262.436 353.818 262.601 353.989 262.759 354.084C262.918 354.179 263.106 354.226 263.324 354.226C263.458 354.226 263.579 354.205 263.688 354.163C263.797 354.121 263.883 354.063 263.947 353.989C264.01 353.915 264.042 353.831 264.042 353.736C264.042 353.672 264.031 353.612 264.01 353.556C263.989 353.5 263.956 353.449 263.91 353.403C263.868 353.357 263.811 353.315 263.741 353.276C263.674 353.238 263.595 353.204 263.503 353.176C263.412 353.145 263.306 353.118 263.187 353.097C262.997 353.058 262.831 353.007 262.691 352.944C262.55 352.881 262.432 352.802 262.337 352.707C262.242 352.612 262.172 352.504 262.126 352.385C262.08 352.261 262.057 352.124 262.057 351.973C262.057 351.825 262.089 351.688 262.152 351.561C262.219 351.435 262.309 351.326 262.422 351.234C262.538 351.139 262.673 351.067 262.828 351.018C262.983 350.965 263.15 350.939 263.329 350.939C263.519 350.939 263.693 350.963 263.852 351.012C264.01 351.062 264.151 351.136 264.274 351.234C264.397 351.329 264.499 351.447 264.58 351.588L264.179 351.984C264.109 351.867 264.029 351.771 263.942 351.693C263.854 351.612 263.757 351.553 263.651 351.514C263.546 351.472 263.433 351.45 263.313 351.45C263.176 351.45 263.057 351.472 262.955 351.514C262.853 351.556 262.772 351.616 262.712 351.693C262.656 351.767 262.627 351.855 262.627 351.957C262.627 352.031 262.642 352.1 262.67 352.163C262.698 352.223 262.74 352.277 262.796 352.327C262.856 352.372 262.935 352.415 263.034 352.453C263.132 352.488 263.25 352.52 263.387 352.548C263.581 352.59 263.753 352.645 263.905 352.712C264.056 352.775 264.184 352.851 264.29 352.939C264.395 353.027 264.475 353.125 264.527 353.234C264.584 353.343 264.612 353.461 264.612 353.588C264.612 353.824 264.557 354.028 264.448 354.2C264.339 354.372 264.184 354.506 263.984 354.601C263.783 354.693 263.544 354.738 263.266 354.738ZM265.625 354.686V351.208H266.169V354.686H265.625ZM265.05 352.443V351.915H266.813V352.443H265.05ZM268.348 354.738C268.119 354.738 267.91 354.675 267.72 354.548C267.533 354.422 267.384 354.249 267.271 354.031C267.159 353.813 267.102 353.567 267.102 353.292C267.102 353.014 267.159 352.768 267.271 352.553C267.387 352.335 267.542 352.165 267.736 352.042C267.933 351.918 268.153 351.857 268.395 351.857C268.54 351.857 268.671 351.878 268.791 351.92C268.911 351.962 269.014 352.022 269.102 352.1C269.194 352.173 269.268 352.26 269.324 352.358C269.384 352.457 269.421 352.562 269.435 352.675L269.314 352.633V351.915H269.862V354.686H269.314V354.026L269.44 353.989C269.419 354.084 269.375 354.177 269.308 354.269C269.245 354.357 269.162 354.436 269.06 354.506C268.962 354.576 268.851 354.633 268.728 354.675C268.608 354.717 268.481 354.738 268.348 354.738ZM268.49 354.237C268.656 354.237 268.802 354.197 268.928 354.116C269.055 354.035 269.153 353.924 269.224 353.783C269.298 353.639 269.335 353.475 269.335 353.292C269.335 353.113 269.298 352.953 269.224 352.812C269.153 352.671 269.055 352.561 268.928 352.48C268.802 352.399 268.656 352.358 268.49 352.358C268.328 352.358 268.184 352.399 268.058 352.48C267.934 352.561 267.836 352.671 267.762 352.812C267.692 352.953 267.656 353.113 267.656 353.292C267.656 353.475 267.692 353.639 267.762 353.783C267.836 353.924 267.934 354.035 268.058 354.116C268.184 354.197 268.328 354.237 268.49 354.237ZM270.964 354.686V351.208H271.508V354.686H270.964ZM270.389 352.443V351.915H272.152V352.443H270.389ZM273.618 354.738C273.421 354.738 273.248 354.693 273.101 354.601C272.956 354.51 272.844 354.381 272.763 354.216C272.685 354.05 272.647 353.853 272.647 353.625V351.915H273.19V353.477C273.19 353.639 273.215 353.78 273.264 353.899C273.317 354.015 273.391 354.105 273.486 354.168C273.584 354.232 273.702 354.263 273.839 354.263C273.941 354.263 274.035 354.248 274.119 354.216C274.204 354.181 274.276 354.133 274.336 354.073C274.399 354.014 274.448 353.941 274.483 353.857C274.518 353.773 274.536 353.681 274.536 353.583V351.915H275.08V354.686H274.536V354.105L274.631 354.042C274.589 354.172 274.517 354.29 274.415 354.395C274.316 354.501 274.198 354.585 274.061 354.649C273.924 354.708 273.776 354.738 273.618 354.738ZM276.766 354.738C276.533 354.738 276.324 354.698 276.138 354.617C275.951 354.536 275.796 354.416 275.673 354.258L276.043 353.941C276.148 354.065 276.262 354.154 276.386 354.211C276.512 354.263 276.655 354.29 276.813 354.29C276.876 354.29 276.934 354.283 276.987 354.269C277.044 354.251 277.091 354.226 277.13 354.195C277.172 354.163 277.204 354.126 277.225 354.084C277.246 354.038 277.256 353.989 277.256 353.936C277.256 353.845 277.223 353.771 277.156 353.715C277.121 353.69 277.065 353.663 276.987 353.635C276.913 353.604 276.817 353.572 276.697 353.54C276.493 353.488 276.326 353.428 276.196 353.361C276.065 353.294 275.965 353.218 275.895 353.134C275.842 353.067 275.803 352.995 275.779 352.918C275.754 352.837 275.742 352.749 275.742 352.654C275.742 352.538 275.766 352.432 275.816 352.337C275.868 352.239 275.939 352.154 276.027 352.084C276.118 352.01 276.224 351.954 276.343 351.915C276.467 351.876 276.597 351.857 276.734 351.857C276.864 351.857 276.993 351.874 277.119 351.91C277.249 351.945 277.369 351.996 277.478 352.063C277.587 352.13 277.679 352.209 277.752 352.3L277.441 352.643C277.374 352.576 277.3 352.518 277.219 352.469C277.142 352.416 277.063 352.376 276.982 352.348C276.901 352.32 276.827 352.305 276.76 352.305C276.686 352.305 276.62 352.312 276.56 352.327C276.5 352.341 276.449 352.362 276.407 352.39C276.368 352.418 276.338 352.453 276.317 352.495C276.296 352.538 276.285 352.585 276.285 352.638C276.289 352.684 276.299 352.728 276.317 352.77C276.338 352.809 276.366 352.842 276.401 352.87C276.44 352.898 276.498 352.928 276.576 352.96C276.653 352.991 276.752 353.021 276.871 353.05C277.047 353.095 277.191 353.146 277.304 353.203C277.42 353.255 277.511 353.317 277.578 353.387C277.649 353.454 277.698 353.532 277.726 353.62C277.754 353.707 277.768 353.806 277.768 353.915C277.768 354.073 277.723 354.216 277.631 354.343C277.543 354.466 277.424 354.562 277.272 354.633C277.121 354.703 276.952 354.738 276.766 354.738Z" fill="#7A7A7A"/>
<path d="M263.266 395.902C263.065 395.902 262.879 395.876 262.707 395.823C262.538 395.77 262.383 395.691 262.242 395.585C262.105 395.476 261.982 395.343 261.873 395.184L262.263 394.736C262.436 394.982 262.601 395.153 262.759 395.248C262.918 395.343 263.106 395.39 263.324 395.39C263.458 395.39 263.579 395.369 263.688 395.327C263.797 395.285 263.883 395.227 263.947 395.153C264.01 395.079 264.042 394.994 264.042 394.899C264.042 394.836 264.031 394.776 264.01 394.72C263.989 394.664 263.956 394.613 263.91 394.567C263.868 394.521 263.811 394.479 263.741 394.44C263.674 394.402 263.595 394.368 263.503 394.34C263.412 394.308 263.306 394.282 263.187 394.261C262.997 394.222 262.831 394.171 262.691 394.108C262.55 394.044 262.432 393.965 262.337 393.87C262.242 393.775 262.172 393.668 262.126 393.548C262.08 393.425 262.057 393.288 262.057 393.137C262.057 392.989 262.089 392.852 262.152 392.725C262.219 392.598 262.309 392.489 262.422 392.398C262.538 392.303 262.673 392.231 262.828 392.182C262.983 392.129 263.15 392.102 263.329 392.102C263.519 392.102 263.693 392.127 263.852 392.176C264.01 392.226 264.151 392.299 264.274 392.398C264.397 392.493 264.499 392.611 264.58 392.752L264.179 393.147C264.109 393.031 264.029 392.934 263.942 392.857C263.854 392.776 263.757 392.716 263.651 392.678C263.546 392.635 263.433 392.614 263.313 392.614C263.176 392.614 263.057 392.635 262.955 392.678C262.853 392.72 262.772 392.78 262.712 392.857C262.656 392.931 262.627 393.019 262.627 393.121C262.627 393.195 262.642 393.263 262.67 393.327C262.698 393.387 262.74 393.441 262.796 393.49C262.856 393.536 262.935 393.578 263.034 393.617C263.132 393.652 263.25 393.684 263.387 393.712C263.581 393.754 263.753 393.809 263.905 393.876C264.056 393.939 264.184 394.015 264.29 394.103C264.395 394.19 264.475 394.289 264.527 394.398C264.584 394.507 264.612 394.625 264.612 394.752C264.612 394.987 264.557 395.191 264.448 395.364C264.339 395.536 264.184 395.67 263.984 395.765C263.783 395.856 263.544 395.902 263.266 395.902ZM265.625 395.849V392.372H266.169V395.849H265.625ZM265.05 393.606V393.079H266.813V393.606H265.05ZM268.348 395.902C268.119 395.902 267.91 395.839 267.72 395.712C267.533 395.585 267.384 395.413 267.271 395.195C267.159 394.977 267.102 394.731 267.102 394.456C267.102 394.178 267.159 393.932 267.271 393.717C267.387 393.499 267.542 393.329 267.736 393.205C267.933 393.082 268.153 393.021 268.395 393.021C268.54 393.021 268.671 393.042 268.791 393.084C268.911 393.126 269.014 393.186 269.102 393.263C269.194 393.337 269.268 393.424 269.324 393.522C269.384 393.621 269.421 393.726 269.435 393.839L269.314 393.796V393.079H269.862V395.849H269.314V395.19L269.44 395.153C269.419 395.248 269.375 395.341 269.308 395.432C269.245 395.52 269.162 395.6 269.06 395.67C268.962 395.74 268.851 395.797 268.728 395.839C268.608 395.881 268.481 395.902 268.348 395.902ZM268.49 395.401C268.656 395.401 268.802 395.36 268.928 395.279C269.055 395.198 269.153 395.088 269.224 394.947C269.298 394.803 269.335 394.639 269.335 394.456C269.335 394.277 269.298 394.117 269.224 393.976C269.153 393.835 269.055 393.724 268.928 393.643C268.802 393.562 268.656 393.522 268.49 393.522C268.328 393.522 268.184 393.562 268.058 393.643C267.934 393.724 267.836 393.835 267.762 393.976C267.692 394.117 267.656 394.277 267.656 394.456C267.656 394.639 267.692 394.803 267.762 394.947C267.836 395.088 267.934 395.198 268.058 395.279C268.184 395.36 268.328 395.401 268.49 395.401ZM270.964 395.849V392.372H271.508V395.849H270.964ZM270.389 393.606V393.079H272.152V393.606H270.389ZM273.618 395.902C273.421 395.902 273.248 395.856 273.101 395.765C272.956 395.673 272.844 395.545 272.763 395.38C272.685 395.214 272.647 395.017 272.647 394.789V393.079H273.19V394.641C273.19 394.803 273.215 394.943 273.264 395.063C273.317 395.179 273.391 395.269 273.486 395.332C273.584 395.396 273.702 395.427 273.839 395.427C273.941 395.427 274.035 395.411 274.119 395.38C274.204 395.344 274.276 395.297 274.336 395.237C274.399 395.177 274.448 395.105 274.483 395.021C274.518 394.936 274.536 394.845 274.536 394.746V393.079H275.08V395.849H274.536V395.269L274.631 395.206C274.589 395.336 274.517 395.454 274.415 395.559C274.316 395.665 274.198 395.749 274.061 395.812C273.924 395.872 273.776 395.902 273.618 395.902ZM276.766 395.902C276.533 395.902 276.324 395.862 276.138 395.781C275.951 395.7 275.796 395.58 275.673 395.422L276.043 395.105C276.148 395.228 276.262 395.318 276.386 395.374C276.512 395.427 276.655 395.454 276.813 395.454C276.876 395.454 276.934 395.447 276.987 395.432C277.044 395.415 277.091 395.39 277.13 395.359C277.172 395.327 277.204 395.29 277.225 395.248C277.246 395.202 277.256 395.153 277.256 395.1C277.256 395.008 277.223 394.935 277.156 394.878C277.121 394.854 277.065 394.827 276.987 394.799C276.913 394.767 276.817 394.736 276.697 394.704C276.493 394.651 276.326 394.592 276.196 394.525C276.065 394.458 275.965 394.382 275.895 394.298C275.842 394.231 275.803 394.159 275.779 394.081C275.754 394.001 275.742 393.913 275.742 393.818C275.742 393.701 275.766 393.596 275.816 393.501C275.868 393.402 275.939 393.318 276.027 393.248C276.118 393.174 276.224 393.117 276.343 393.079C276.467 393.04 276.597 393.021 276.734 393.021C276.864 393.021 276.993 393.038 277.119 393.073C277.249 393.109 277.369 393.16 277.478 393.226C277.587 393.293 277.679 393.373 277.752 393.464L277.441 393.807C277.374 393.74 277.3 393.682 277.219 393.633C277.142 393.58 277.063 393.54 276.982 393.511C276.901 393.483 276.827 393.469 276.76 393.469C276.686 393.469 276.62 393.476 276.56 393.49C276.5 393.504 276.449 393.526 276.407 393.554C276.368 393.582 276.338 393.617 276.317 393.659C276.296 393.701 276.285 393.749 276.285 393.802C276.289 393.847 276.299 393.891 276.317 393.934C276.338 393.972 276.366 394.006 276.401 394.034C276.44 394.062 276.498 394.092 276.576 394.124C276.653 394.155 276.752 394.185 276.871 394.213C277.047 394.259 277.191 394.31 277.304 394.366C277.42 394.419 277.511 394.481 277.578 394.551C277.649 394.618 277.698 394.695 277.726 394.783C277.754 394.871 277.768 394.97 277.768 395.079C277.768 395.237 277.723 395.38 277.631 395.506C277.543 395.629 277.424 395.726 277.272 395.797C277.121 395.867 276.952 395.902 276.766 395.902Z" fill="#7A7A7A"/>
<path d="M216.808 183.387H216.12L213.354 179.192V183.387H212.666V178.111H213.354L216.12 182.299V178.111H216.808V183.387ZM219.786 183.455C219.398 183.455 219.046 183.367 218.728 183.19C218.416 183.014 218.169 182.765 217.988 182.442C217.811 182.115 217.723 181.737 217.723 181.308C217.723 180.885 217.814 180.512 217.995 180.19C218.182 179.862 218.433 179.613 218.751 179.442C219.068 179.265 219.424 179.177 219.817 179.177C220.21 179.177 220.565 179.265 220.882 179.442C221.2 179.613 221.449 179.86 221.631 180.182C221.817 180.505 221.91 180.88 221.91 181.308C221.91 181.737 221.814 182.115 221.623 182.442C221.437 182.765 221.182 183.014 220.86 183.19C220.537 183.367 220.179 183.455 219.786 183.455ZM219.786 182.85C220.033 182.85 220.265 182.792 220.482 182.677C220.698 182.561 220.872 182.387 221.003 182.155C221.139 181.923 221.207 181.641 221.207 181.308C221.207 180.976 221.142 180.694 221.011 180.462C220.88 180.23 220.708 180.059 220.497 179.948C220.285 179.832 220.056 179.774 219.809 179.774C219.557 179.774 219.325 179.832 219.114 179.948C218.907 180.059 218.741 180.23 218.615 180.462C218.489 180.694 218.426 180.976 218.426 181.308C218.426 181.646 218.486 181.931 218.607 182.163C218.733 182.394 218.9 182.568 219.106 182.684C219.313 182.795 219.539 182.85 219.786 182.85ZM224.356 182.752L225.641 179.245H226.374L224.749 183.387H223.948L222.323 179.245H223.064L224.356 182.752ZM230.83 181.157C230.83 181.288 230.823 181.427 230.808 181.573H227.497C227.522 181.981 227.661 182.301 227.913 182.533C228.17 182.76 228.48 182.873 228.842 182.873C229.14 182.873 229.387 182.805 229.583 182.669C229.785 182.528 229.926 182.341 230.006 182.11H230.747C230.636 182.508 230.415 182.833 230.082 183.085C229.749 183.332 229.336 183.455 228.842 183.455C228.449 183.455 228.097 183.367 227.784 183.19C227.477 183.014 227.235 182.765 227.059 182.442C226.882 182.115 226.794 181.737 226.794 181.308C226.794 180.88 226.88 180.505 227.051 180.182C227.223 179.86 227.462 179.613 227.769 179.442C228.082 179.265 228.439 179.177 228.842 179.177C229.235 179.177 229.583 179.263 229.885 179.434C230.188 179.605 230.42 179.842 230.581 180.145C230.747 180.442 230.83 180.779 230.83 181.157ZM230.12 181.014C230.12 180.752 230.062 180.527 229.946 180.341C229.83 180.15 229.671 180.006 229.47 179.91C229.273 179.809 229.054 179.759 228.812 179.759C228.465 179.759 228.167 179.87 227.92 180.092C227.679 180.313 227.54 180.621 227.505 181.014H230.12ZM236.719 179.17C237.041 179.17 237.329 179.238 237.581 179.374C237.832 179.505 238.031 179.704 238.178 179.971C238.324 180.238 238.397 180.563 238.397 180.946V183.387H237.717V181.044C237.717 180.631 237.613 180.316 237.407 180.099C237.205 179.877 236.931 179.767 236.583 179.767C236.225 179.767 235.94 179.883 235.729 180.114C235.517 180.341 235.411 180.671 235.411 181.104V183.387H234.731V181.044C234.731 180.631 234.628 180.316 234.421 180.099C234.22 179.877 233.945 179.767 233.597 179.767C233.24 179.767 232.955 179.883 232.743 180.114C232.532 180.341 232.426 180.671 232.426 181.104V183.387H231.738V179.245H232.426V179.842C232.562 179.626 232.743 179.459 232.97 179.343C233.202 179.227 233.456 179.17 233.733 179.17C234.081 179.17 234.388 179.248 234.656 179.404C234.923 179.56 235.122 179.789 235.253 180.092C235.369 179.799 235.56 179.573 235.827 179.411C236.094 179.25 236.391 179.17 236.719 179.17ZM240.213 180.016C240.354 179.769 240.56 179.568 240.833 179.411C241.105 179.255 241.415 179.177 241.762 179.177C242.135 179.177 242.47 179.265 242.767 179.442C243.065 179.618 243.299 179.867 243.47 180.19C243.642 180.507 243.727 180.878 243.727 181.301C243.727 181.719 243.642 182.092 243.47 182.42C243.299 182.747 243.062 183.001 242.76 183.183C242.463 183.364 242.13 183.455 241.762 183.455C241.404 183.455 241.09 183.377 240.817 183.221C240.55 183.064 240.349 182.865 240.213 182.624V183.387H239.525V177.794H240.213V180.016ZM243.024 181.301C243.024 180.989 242.961 180.716 242.835 180.485C242.71 180.253 242.538 180.077 242.322 179.956C242.11 179.835 241.876 179.774 241.619 179.774C241.367 179.774 241.132 179.837 240.916 179.963C240.704 180.084 240.533 180.263 240.402 180.5C240.276 180.732 240.213 181.001 240.213 181.308C240.213 181.621 240.276 181.895 240.402 182.132C240.533 182.364 240.704 182.543 240.916 182.669C241.132 182.79 241.367 182.85 241.619 182.85C241.876 182.85 242.11 182.79 242.322 182.669C242.538 182.543 242.71 182.364 242.835 182.132C242.961 181.895 243.024 181.618 243.024 181.301ZM248.412 181.157C248.412 181.288 248.404 181.427 248.389 181.573H245.079C245.104 181.981 245.242 182.301 245.494 182.533C245.751 182.76 246.061 182.873 246.424 182.873C246.721 182.873 246.968 182.805 247.165 182.669C247.366 182.528 247.507 182.341 247.588 182.11H248.329C248.218 182.508 247.996 182.833 247.663 183.085C247.331 183.332 246.918 183.455 246.424 183.455C246.031 183.455 245.678 183.367 245.366 183.19C245.058 183.014 244.817 182.765 244.64 182.442C244.464 182.115 244.376 181.737 244.376 181.308C244.376 180.88 244.461 180.505 244.633 180.182C244.804 179.86 245.043 179.613 245.351 179.442C245.663 179.265 246.021 179.177 246.424 179.177C246.817 179.177 247.165 179.263 247.467 179.434C247.769 179.605 248.001 179.842 248.162 180.145C248.329 180.442 248.412 180.779 248.412 181.157ZM247.701 181.014C247.701 180.752 247.643 180.527 247.527 180.341C247.412 180.15 247.253 180.006 247.051 179.91C246.855 179.809 246.636 179.759 246.394 179.759C246.046 179.759 245.749 179.87 245.502 180.092C245.26 180.313 245.121 180.621 245.086 181.014H247.701ZM250.007 179.918C250.128 179.681 250.3 179.497 250.521 179.366C250.748 179.235 251.023 179.17 251.345 179.17V179.88H251.164C250.393 179.88 250.007 180.298 250.007 181.135V183.387H249.32V179.245H250.007V179.918Z" fill="#2C2C2C"/>
<path d="M262.825 180.172L261.057 178.409C260.998 178.346 260.966 178.262 260.968 178.175C260.97 178.089 261.005 178.006 261.066 177.945C261.127 177.884 261.21 177.849 261.296 177.848C261.383 177.846 261.467 177.878 261.53 177.937L263.532 179.938C263.593 179.999 263.627 180.081 263.629 180.166C263.631 180.252 263.6 180.335 263.542 180.398L261.531 182.414C261.468 182.473 261.384 182.505 261.297 182.503C261.211 182.502 261.128 182.467 261.067 182.406C261.006 182.345 260.971 182.262 260.969 182.176C260.967 182.089 260.999 182.005 261.058 181.942L262.825 180.172Z" fill="#2C2C2C"/>
<path d="M200.14 180.173L201.908 178.409C201.97 178.346 202.005 178.261 202.005 178.173C202.005 178.084 201.969 178 201.907 177.937C201.844 177.875 201.759 177.84 201.671 177.84C201.582 177.84 201.497 177.875 201.435 177.938L199.433 179.939C199.372 180 199.337 180.081 199.336 180.167C199.334 180.253 199.365 180.336 199.423 180.399L201.433 182.414C201.496 182.477 201.581 182.512 201.669 182.512C201.758 182.513 201.843 182.478 201.905 182.415C201.968 182.353 202.003 182.268 202.003 182.179C202.004 182.091 201.969 182.006 201.906 181.943L200.14 180.173Z" fill="#2C2C2C"/>
<rect x="169.782" y="269.325" width="83.3831" height="3.16645" rx="1.58322" fill="#E4E6EA"/>
<rect x="169.782" y="310.633" width="83.3831" height="3.16645" rx="1.58322" fill="#E4E6EA"/>
<rect x="169.782" y="351.797" width="83.3831" height="3.16645" rx="1.58322" fill="#E4E6EA"/>
<rect x="169.782" y="392.96" width="83.3831" height="3.16645" rx="1.58322" fill="#E4E6EA"/>
<rect x="263.72" y="322.099" width="24.2761" height="3.16645" rx="1.58322" fill="#E4E6EA"/>
<rect x="263.72" y="363.263" width="24.2761" height="3.16645" rx="1.58322" fill="#E4E6EA"/>
<rect x="263.72" y="404.427" width="24.2761" height="3.16645" rx="1.58322" fill="#E4E6EA"/>
<rect x="169.782" y="275.658" width="68.6063" height="3.16645" rx="1.58322" fill="#E4E6EA"/>
<rect x="169.782" y="316.966" width="68.6063" height="3.16645" rx="1.58322" fill="#E4E6EA"/>
<rect x="169.782" y="358.129" width="68.6063" height="3.16645" rx="1.58322" fill="#E4E6EA"/>
<rect x="169.782" y="399.293" width="68.6063" height="3.16645" rx="1.58322" fill="#E4E6EA"/>
<rect x="169.782" y="281.991" width="75.9947" height="3.16645" rx="1.58322" fill="#E4E6EA"/>
<rect x="169.782" y="323.299" width="75.9947" height="3.16645" rx="1.58322" fill="#E4E6EA"/>
<rect x="169.782" y="364.462" width="75.9947" height="3.16645" rx="1.58322" fill="#E4E6EA"/>
<rect x="169.782" y="405.626" width="75.9947" height="3.16645" rx="1.58322" fill="#E4E6EA"/>
<rect x="169.782" y="288.323" width="45.3857" height="3.16645" rx="1.58322" fill="#E4E6EA"/>
<rect x="169.782" y="329.631" width="45.3857" height="3.16645" rx="1.58322" fill="#E4E6EA"/>
<rect x="169.782" y="370.795" width="45.3857" height="3.16645" rx="1.58322" fill="#E4E6EA"/>
<rect x="169.782" y="411.959" width="45.3857" height="3.16645" rx="1.58322" fill="#E4E6EA"/>
<rect x="261.873" y="275.922" width="29.0258" height="13.1935" rx="2.90258" stroke="#E4E6EA" stroke-width="0.527741"/>
<rect x="261.873" y="317.229" width="29.0258" height="13.1935" rx="2.90258" stroke="#E4E6EA" stroke-width="0.527741"/>
<rect x="261.873" y="358.393" width="29.0258" height="13.1935" rx="2.90258" stroke="#E4E6EA" stroke-width="0.527741"/>
<rect x="261.873" y="399.557" width="29.0258" height="13.1935" rx="2.90258" stroke="#E4E6EA" stroke-width="0.527741"/>
<defs>
<clipPath id="clip0_90_1944">
<rect width="126.658" height="6.35908" fill="white" transform="translate(167.671 155.333)"/>
</clipPath>
</defs>
</svg>
