<svg width="480" height="540" viewBox="0 0 480 540" fill="none" xmlns="http://www.w3.org/2000/svg">
<path d="M396 76H85C75.6112 76 68 83.6112 68 93V447C68 456.389 75.6112 464 85 464H396C405.389 464 413 456.389 413 447V93C413 83.6112 405.389 76 396 76Z" fill="#F1F5F7"/>
<g filter="url(#filter0_d_617_5561)">
<path d="M389.625 92H92.7243C85.6969 92 80 97.3851 80 104.028V317.612C80 324.255 85.6969 329.64 92.7243 329.64H389.625C396.652 329.64 402.349 324.255 402.349 317.612V104.028C402.349 97.3851 396.652 92 389.625 92Z" fill="white"/>
</g>
<path d="M205.093 219.496H188.254C185.154 219.496 182.641 222.009 182.641 225.109V237.939C182.641 241.039 185.154 243.552 188.254 243.552H205.093C208.193 243.552 210.706 241.039 210.706 237.939V225.109C210.706 222.009 208.193 219.496 205.093 219.496Z" fill="#F4AB5B"/>
<path d="M211.884 112.82V104.401H213.051L218.198 111.293L218.006 111.401C217.974 111.201 217.946 110.984 217.922 110.752C217.898 110.511 217.874 110.258 217.85 109.994C217.834 109.721 217.818 109.436 217.802 109.14C217.794 108.835 217.786 108.518 217.778 108.19C217.769 107.861 217.765 107.52 217.765 107.167V104.401H219.064V112.82H217.874L212.81 106.181L212.942 106.012C212.982 106.502 213.014 106.919 213.038 107.263C213.071 107.6 213.095 107.889 213.111 108.129C213.135 108.362 213.151 108.554 213.159 108.707C213.167 108.851 213.171 108.971 213.171 109.068C213.179 109.164 213.183 109.248 213.183 109.32V112.82H211.884ZM223.947 112.941C223.33 112.941 222.777 112.8 222.288 112.52C221.806 112.231 221.426 111.842 221.145 111.353C220.864 110.856 220.724 110.29 220.724 109.657C220.724 109.023 220.864 108.462 221.145 107.973C221.426 107.476 221.806 107.087 222.288 106.806C222.777 106.518 223.33 106.373 223.947 106.373C224.557 106.373 225.102 106.518 225.583 106.806C226.072 107.087 226.457 107.476 226.738 107.973C227.019 108.462 227.159 109.023 227.159 109.657C227.159 110.29 227.019 110.856 226.738 111.353C226.457 111.842 226.072 112.231 225.583 112.52C225.102 112.8 224.557 112.941 223.947 112.941ZM223.947 111.81C224.324 111.81 224.661 111.718 224.958 111.533C225.255 111.341 225.487 111.084 225.655 110.764C225.824 110.435 225.904 110.066 225.896 109.657C225.904 109.24 225.824 108.871 225.655 108.55C225.487 108.222 225.255 107.965 224.958 107.781C224.661 107.596 224.324 107.504 223.947 107.504C223.571 107.504 223.23 107.6 222.925 107.793C222.628 107.977 222.396 108.234 222.227 108.562C222.059 108.883 221.979 109.248 221.987 109.657C221.979 110.066 222.059 110.435 222.227 110.764C222.396 111.084 222.628 111.341 222.925 111.533C223.23 111.718 223.571 111.81 223.947 111.81ZM230.401 112.82L227.731 106.506H229.066L230.991 111.233L230.762 111.341L232.819 106.506H234.094L231.292 112.82H230.401ZM237.998 112.941C237.349 112.941 236.771 112.804 236.266 112.532C235.769 112.251 235.376 111.87 235.087 111.389C234.807 110.908 234.667 110.355 234.667 109.729C234.667 109.232 234.747 108.779 234.907 108.37C235.067 107.961 235.288 107.608 235.569 107.312C235.857 107.007 236.198 106.774 236.591 106.614C236.992 106.446 237.425 106.361 237.89 106.361C238.299 106.361 238.68 106.441 239.033 106.602C239.385 106.754 239.69 106.967 239.947 107.239C240.211 107.512 240.412 107.837 240.548 108.214C240.693 108.582 240.761 108.987 240.753 109.428L240.741 109.958H235.581L235.304 108.971H239.67L239.49 109.176V108.887C239.466 108.623 239.377 108.386 239.225 108.178C239.073 107.969 238.88 107.805 238.648 107.684C238.415 107.564 238.163 107.504 237.89 107.504C237.457 107.504 237.092 107.588 236.795 107.757C236.499 107.917 236.274 108.157 236.122 108.478C235.97 108.791 235.893 109.18 235.893 109.645C235.893 110.086 235.986 110.471 236.17 110.8C236.354 111.12 236.615 111.369 236.952 111.545C237.289 111.722 237.678 111.81 238.119 111.81C238.431 111.81 238.72 111.758 238.985 111.654C239.257 111.549 239.55 111.361 239.863 111.088L240.488 111.966C240.296 112.159 240.059 112.327 239.778 112.472C239.506 112.616 239.213 112.732 238.9 112.82C238.596 112.9 238.295 112.941 237.998 112.941ZM242.075 112.82V106.506H243.326V107.853L243.097 107.997C243.162 107.789 243.262 107.588 243.398 107.396C243.542 107.203 243.715 107.035 243.915 106.891C244.124 106.738 244.344 106.618 244.577 106.53C244.817 106.441 245.062 106.397 245.31 106.397C245.671 106.397 245.988 106.458 246.261 106.578C246.533 106.698 246.758 106.879 246.934 107.119C247.111 107.36 247.239 107.66 247.319 108.021L247.127 107.973L247.211 107.769C247.299 107.584 247.419 107.412 247.572 107.251C247.732 107.083 247.913 106.935 248.113 106.806C248.313 106.678 248.526 106.578 248.75 106.506C248.975 106.433 249.196 106.397 249.412 106.397C249.885 106.397 250.274 106.494 250.579 106.686C250.891 106.879 251.124 107.171 251.276 107.564C251.437 107.957 251.517 108.446 251.517 109.032V112.82H250.266V109.104C250.266 108.743 250.218 108.45 250.122 108.226C250.033 107.993 249.897 107.821 249.713 107.708C249.528 107.596 249.292 107.54 249.003 107.54C248.779 107.54 248.566 107.58 248.366 107.66C248.173 107.732 248.005 107.837 247.86 107.973C247.716 108.109 247.604 108.27 247.524 108.454C247.443 108.631 247.403 108.827 247.403 109.044V112.82H246.152V109.08C246.152 108.751 246.104 108.474 246.008 108.25C245.912 108.017 245.772 107.841 245.587 107.72C245.403 107.6 245.178 107.54 244.914 107.54C244.689 107.54 244.481 107.58 244.288 107.66C244.096 107.732 243.927 107.837 243.783 107.973C243.639 108.101 243.526 108.258 243.446 108.442C243.366 108.619 243.326 108.811 243.326 109.019V112.82H242.075ZM256.495 112.941C256.223 112.941 255.95 112.896 255.677 112.808C255.413 112.72 255.168 112.604 254.944 112.459C254.727 112.307 254.543 112.143 254.39 111.966C254.246 111.782 254.15 111.597 254.102 111.413L254.414 111.245V112.784H253.176V103.92H254.414V107.949L254.222 107.841C254.262 107.656 254.35 107.48 254.487 107.312C254.623 107.135 254.795 106.979 255.004 106.842C255.22 106.698 255.453 106.586 255.701 106.506C255.95 106.417 256.203 106.373 256.459 106.373C257.028 106.373 257.534 106.514 257.975 106.794C258.416 107.075 258.765 107.464 259.021 107.961C259.278 108.45 259.406 109.011 259.406 109.645C259.406 110.278 259.278 110.844 259.021 111.341C258.773 111.838 258.428 112.231 257.987 112.52C257.546 112.8 257.049 112.941 256.495 112.941ZM256.291 111.81C256.66 111.81 256.988 111.718 257.277 111.533C257.566 111.341 257.794 111.084 257.963 110.764C258.131 110.435 258.215 110.062 258.215 109.645C258.215 109.236 258.131 108.871 257.963 108.55C257.802 108.222 257.578 107.965 257.289 107.781C257 107.596 256.668 107.504 256.291 107.504C255.914 107.504 255.581 107.596 255.292 107.781C255.004 107.965 254.775 108.222 254.607 108.55C254.438 108.871 254.354 109.236 254.354 109.645C254.354 110.062 254.438 110.435 254.607 110.764C254.775 111.084 255.004 111.341 255.292 111.533C255.581 111.718 255.914 111.81 256.291 111.81ZM263.699 112.941C263.049 112.941 262.472 112.804 261.967 112.532C261.469 112.251 261.076 111.87 260.788 111.389C260.507 110.908 260.367 110.355 260.367 109.729C260.367 109.232 260.447 108.779 260.607 108.37C260.768 107.961 260.988 107.608 261.269 107.312C261.558 107.007 261.898 106.774 262.291 106.614C262.692 106.446 263.125 106.361 263.59 106.361C263.999 106.361 264.38 106.441 264.733 106.602C265.086 106.754 265.391 106.967 265.647 107.239C265.912 107.512 266.112 107.837 266.249 108.214C266.393 108.582 266.461 108.987 266.453 109.428L266.441 109.958H261.281L261.004 108.971H265.37L265.19 109.176V108.887C265.166 108.623 265.078 108.386 264.925 108.178C264.773 107.969 264.581 107.805 264.348 107.684C264.116 107.564 263.863 107.504 263.59 107.504C263.157 107.504 262.792 107.588 262.496 107.757C262.199 107.917 261.975 108.157 261.822 108.478C261.67 108.791 261.594 109.18 261.594 109.645C261.594 110.086 261.686 110.471 261.87 110.8C262.055 111.12 262.315 111.369 262.652 111.545C262.989 111.722 263.378 111.81 263.819 111.81C264.132 111.81 264.42 111.758 264.685 111.654C264.958 111.549 265.25 111.361 265.563 111.088L266.188 111.966C265.996 112.159 265.759 112.327 265.479 112.472C265.206 112.616 264.913 112.732 264.601 112.82C264.296 112.9 263.995 112.941 263.699 112.941ZM267.799 112.82V106.506H269.05V108.49L268.93 108.009C269.018 107.704 269.167 107.428 269.375 107.179C269.592 106.931 269.836 106.734 270.109 106.59C270.389 106.446 270.678 106.373 270.975 106.373C271.111 106.373 271.239 106.385 271.36 106.409C271.488 106.433 271.588 106.462 271.66 106.494L271.336 107.841C271.239 107.801 271.131 107.769 271.011 107.745C270.899 107.712 270.786 107.696 270.674 107.696C270.458 107.696 270.249 107.741 270.049 107.829C269.856 107.909 269.684 108.025 269.531 108.178C269.387 108.322 269.271 108.494 269.183 108.695C269.094 108.887 269.05 109.1 269.05 109.332V112.82H267.799Z" fill="#2C2C2C"/>
<path d="M101.179 308.475L100.782 307.489L103.308 304.662C103.452 304.518 103.601 304.354 103.753 304.169C103.905 303.977 104.05 303.78 104.186 303.58C104.33 303.371 104.447 303.171 104.535 302.978C104.623 302.778 104.667 302.593 104.667 302.425C104.667 302.209 104.619 302.02 104.523 301.86C104.434 301.699 104.306 301.575 104.138 301.487C103.969 301.399 103.761 301.355 103.512 301.355C103.296 301.355 103.083 301.419 102.875 301.547C102.674 301.667 102.486 301.844 102.31 302.076C102.141 302.301 102.001 302.569 101.889 302.882L100.71 302.184C100.854 301.719 101.071 301.318 101.359 300.982C101.656 300.637 102.001 300.372 102.394 300.188C102.795 300.003 103.228 299.911 103.693 299.911C104.174 299.911 104.603 300.011 104.98 300.212C105.357 300.412 105.653 300.689 105.87 301.042C106.094 301.395 106.207 301.808 106.207 302.281C106.207 302.457 106.187 302.642 106.146 302.834C106.106 303.018 106.042 303.215 105.954 303.423C105.874 303.624 105.766 303.836 105.629 304.061C105.493 304.277 105.329 304.506 105.136 304.746C104.952 304.987 104.739 305.24 104.499 305.504L102.586 307.585L102.346 307.032H106.507V308.475H101.179ZM109.452 308.475L109.404 308.355L111.954 303.038L112.099 303.941C111.978 304.197 111.83 304.426 111.653 304.626C111.485 304.827 111.289 305.003 111.064 305.155C110.848 305.3 110.623 305.412 110.391 305.492C110.158 305.564 109.925 305.6 109.693 305.6C109.236 305.6 108.815 305.48 108.43 305.24C108.045 304.991 107.736 304.666 107.504 304.265C107.271 303.856 107.155 303.411 107.155 302.93C107.155 302.361 107.287 301.848 107.552 301.391C107.817 300.926 108.173 300.561 108.622 300.296C109.079 300.023 109.593 299.887 110.162 299.887C110.571 299.887 110.956 299.963 111.317 300.116C111.686 300.26 112.002 300.464 112.267 300.729C112.54 300.994 112.752 301.298 112.904 301.643C113.065 301.988 113.145 302.353 113.145 302.738C113.145 302.97 113.121 303.211 113.073 303.459C113.033 303.7 112.965 303.965 112.868 304.253C112.772 304.542 112.648 304.859 112.495 305.203C112.351 305.548 112.175 305.941 111.966 306.382L110.944 308.475H109.452ZM110.042 304.253C110.33 304.253 110.591 304.189 110.824 304.061C111.056 303.925 111.237 303.748 111.365 303.532C111.493 303.315 111.557 303.067 111.557 302.786C111.557 302.497 111.493 302.237 111.365 302.004C111.237 301.772 111.06 301.591 110.836 301.463C110.611 301.326 110.354 301.258 110.066 301.258C109.793 301.258 109.553 301.322 109.344 301.451C109.136 301.579 108.967 301.759 108.839 301.992C108.719 302.217 108.659 302.481 108.659 302.786C108.659 303.042 108.719 303.283 108.839 303.508C108.967 303.732 109.136 303.912 109.344 304.049C109.561 304.185 109.793 304.253 110.042 304.253Z" fill="#2C2C2C"/>
<path d="M147.436 308.595C146.811 308.595 146.265 308.459 145.8 308.186C145.335 307.906 144.906 307.433 144.513 306.767L145.692 306.021C145.877 306.318 146.065 306.559 146.257 306.743C146.458 306.919 146.658 307.052 146.859 307.14C147.067 307.22 147.288 307.26 147.52 307.26C147.785 307.26 148.026 307.196 148.242 307.068C148.467 306.94 148.643 306.763 148.771 306.539C148.908 306.314 148.976 306.057 148.976 305.769C148.976 305.48 148.92 305.236 148.807 305.035C148.703 304.835 148.547 304.682 148.338 304.578C148.138 304.466 147.893 304.41 147.605 304.41C147.476 304.41 147.34 304.426 147.196 304.458C147.051 304.482 146.899 304.522 146.739 304.578C146.578 304.626 146.402 304.686 146.209 304.758L145.824 303.736L148.218 301.09L148.579 301.439L145.031 301.415V300.031H149.974L150.263 300.609L147.496 303.628L147.135 303.231C147.2 303.199 147.304 303.171 147.448 303.147C147.601 303.115 147.733 303.099 147.845 303.099C148.198 303.099 148.535 303.167 148.855 303.303C149.176 303.431 149.453 303.616 149.685 303.856C149.926 304.097 150.114 304.378 150.251 304.698C150.387 305.011 150.455 305.352 150.455 305.721C150.455 306.274 150.319 306.767 150.046 307.2C149.782 307.625 149.421 307.966 148.964 308.223C148.507 308.471 147.997 308.595 147.436 308.595ZM154.674 308.595C153.993 308.595 153.407 308.423 152.918 308.078C152.437 307.725 152.064 307.228 151.8 306.587C151.543 305.937 151.415 305.163 151.415 304.265C151.415 303.367 151.543 302.597 151.8 301.956C152.064 301.306 152.437 300.809 152.918 300.464C153.407 300.112 153.993 299.935 154.674 299.935C155.356 299.935 155.941 300.112 156.43 300.464C156.92 300.809 157.292 301.306 157.549 301.956C157.814 302.597 157.946 303.367 157.946 304.265C157.946 305.163 157.814 305.937 157.549 306.587C157.292 307.228 156.92 307.725 156.43 308.078C155.941 308.423 155.356 308.595 154.674 308.595ZM154.674 307.224C155.236 307.224 155.669 306.968 155.973 306.454C156.286 305.933 156.442 305.203 156.442 304.265C156.442 303.319 156.286 302.585 155.973 302.064C155.669 301.543 155.236 301.282 154.674 301.282C154.113 301.282 153.676 301.543 153.363 302.064C153.059 302.585 152.906 303.319 152.906 304.265C152.906 305.203 153.059 305.933 153.363 306.454C153.676 306.968 154.113 307.224 154.674 307.224Z" fill="#2C2C2C"/>
<path d="M193.394 308.595C192.769 308.595 192.223 308.459 191.758 308.186C191.293 307.906 190.864 307.433 190.471 306.767L191.65 306.021C191.835 306.318 192.023 306.559 192.215 306.743C192.416 306.919 192.616 307.052 192.817 307.14C193.025 307.22 193.246 307.26 193.478 307.26C193.743 307.26 193.984 307.196 194.2 307.068C194.425 306.94 194.601 306.763 194.729 306.539C194.866 306.314 194.934 306.057 194.934 305.769C194.934 305.48 194.878 305.236 194.765 305.035C194.661 304.835 194.505 304.682 194.296 304.578C194.096 304.466 193.851 304.41 193.563 304.41C193.434 304.41 193.298 304.426 193.154 304.458C193.009 304.482 192.857 304.522 192.697 304.578C192.536 304.626 192.36 304.686 192.167 304.758L191.782 303.736L194.176 301.09L194.537 301.439L190.989 301.415V300.031H195.932L196.221 300.609L193.454 303.628L193.093 303.231C193.158 303.199 193.262 303.171 193.406 303.147C193.559 303.115 193.691 303.099 193.803 303.099C194.156 303.099 194.493 303.167 194.813 303.303C195.134 303.431 195.411 303.616 195.643 303.856C195.884 304.097 196.072 304.378 196.209 304.698C196.345 305.011 196.413 305.352 196.413 305.721C196.413 306.274 196.277 306.767 196.004 307.2C195.74 307.625 195.379 307.966 194.922 308.223C194.465 308.471 193.955 308.595 193.394 308.595ZM199.43 307.886V301.054L199.875 301.631L198.167 302.497L197.818 301.126L200.115 299.935H200.981V307.886H199.43ZM198.022 308.475V307.032H202.425V308.475H198.022Z" fill="#2C2C2C"/>
<path d="M240.62 307.886V301.054L241.065 301.631L239.357 302.497L239.008 301.126L241.306 299.935H242.172V307.886H240.62ZM239.213 308.475V307.032H243.615V308.475H239.213Z" fill="#A7A7A7"/>
<path d="M284.161 308.475L283.764 307.489L286.29 304.662C286.434 304.518 286.583 304.354 286.735 304.169C286.887 303.977 287.032 303.78 287.168 303.58C287.312 303.371 287.429 303.171 287.517 302.978C287.605 302.778 287.649 302.593 287.649 302.425C287.649 302.209 287.601 302.02 287.505 301.86C287.416 301.699 287.288 301.575 287.12 301.487C286.951 301.399 286.743 301.355 286.494 301.355C286.278 301.355 286.065 301.419 285.857 301.547C285.656 301.667 285.468 301.844 285.292 302.076C285.123 302.301 284.983 302.569 284.871 302.882L283.692 302.184C283.836 301.719 284.053 301.318 284.341 300.982C284.638 300.637 284.983 300.372 285.376 300.188C285.777 300.003 286.21 299.911 286.675 299.911C287.156 299.911 287.585 300.011 287.962 300.212C288.339 300.412 288.635 300.689 288.852 301.042C289.076 301.395 289.189 301.808 289.189 302.281C289.189 302.457 289.169 302.642 289.128 302.834C289.088 303.018 289.024 303.215 288.936 303.423C288.856 303.624 288.748 303.836 288.611 304.061C288.475 304.277 288.311 304.506 288.118 304.746C287.934 304.987 287.721 305.24 287.481 305.504L285.568 307.585L285.328 307.032H289.489V308.475H284.161Z" fill="#A7A7A7"/>
<path d="M331.249 308.595C330.623 308.595 330.078 308.459 329.613 308.186C329.148 307.906 328.719 307.433 328.326 306.767L329.505 306.021C329.689 306.318 329.878 306.559 330.07 306.743C330.27 306.919 330.471 307.052 330.671 307.14C330.88 307.22 331.1 307.26 331.333 307.26C331.598 307.26 331.838 307.196 332.055 307.068C332.279 306.94 332.456 306.763 332.584 306.539C332.72 306.314 332.788 306.057 332.788 305.769C332.788 305.48 332.732 305.236 332.62 305.035C332.516 304.835 332.359 304.682 332.151 304.578C331.95 304.466 331.706 304.41 331.417 304.41C331.289 304.41 331.152 304.426 331.008 304.458C330.864 304.482 330.711 304.522 330.551 304.578C330.391 304.626 330.214 304.686 330.022 304.758L329.637 303.736L332.031 301.09L332.391 301.439L328.843 301.415V300.031H333.787L334.075 300.609L331.309 303.628L330.948 303.231C331.012 303.199 331.116 303.171 331.261 303.147C331.413 303.115 331.545 303.099 331.658 303.099C332.01 303.099 332.347 303.167 332.668 303.303C332.989 303.431 333.265 303.616 333.498 303.856C333.739 304.097 333.927 304.378 334.063 304.698C334.2 305.011 334.268 305.352 334.268 305.721C334.268 306.274 334.131 306.767 333.859 307.2C333.594 307.625 333.233 307.966 332.776 308.223C332.319 308.471 331.81 308.595 331.249 308.595Z" fill="#A7A7A7"/>
<path d="M376.293 308.475V301.679L376.87 301.739L374.007 305.24L373.875 305.023H379.227V306.382H373.033L372.383 305.131L376.569 300.031H377.796V308.475H376.293Z" fill="#A7A7A7"/>
<path d="M101.249 272.391L100.852 271.405L103.378 268.578C103.523 268.434 103.671 268.27 103.823 268.085C103.976 267.893 104.12 267.696 104.256 267.496C104.401 267.287 104.517 267.087 104.605 266.894C104.693 266.694 104.738 266.509 104.738 266.341C104.738 266.125 104.689 265.936 104.593 265.776C104.505 265.615 104.377 265.491 104.208 265.403C104.04 265.315 103.831 265.271 103.583 265.271C103.366 265.271 103.154 265.335 102.945 265.463C102.745 265.583 102.556 265.76 102.38 265.992C102.212 266.217 102.071 266.485 101.959 266.798L100.78 266.101C100.925 265.635 101.141 265.234 101.43 264.898C101.727 264.553 102.071 264.288 102.464 264.104C102.865 263.919 103.298 263.827 103.763 263.827C104.244 263.827 104.673 263.927 105.05 264.128C105.427 264.328 105.724 264.605 105.94 264.958C106.165 265.311 106.277 265.724 106.277 266.197C106.277 266.373 106.257 266.558 106.217 266.75C106.177 266.934 106.113 267.131 106.024 267.339C105.944 267.54 105.836 267.752 105.7 267.977C105.563 268.193 105.399 268.422 105.207 268.662C105.022 268.903 104.81 269.156 104.569 269.42L102.657 271.501L102.416 270.948H106.578V272.391H101.249ZM107.839 272.391L107.442 271.405L109.968 268.578C110.112 268.434 110.261 268.27 110.413 268.085C110.565 267.893 110.71 267.696 110.846 267.496C110.99 267.287 111.107 267.087 111.195 266.894C111.283 266.694 111.327 266.509 111.327 266.341C111.327 266.125 111.279 265.936 111.183 265.776C111.094 265.615 110.966 265.491 110.798 265.403C110.629 265.315 110.421 265.271 110.172 265.271C109.956 265.271 109.743 265.335 109.535 265.463C109.334 265.583 109.146 265.76 108.97 265.992C108.801 266.217 108.661 266.485 108.549 266.798L107.37 266.101C107.514 265.635 107.731 265.234 108.019 264.898C108.316 264.553 108.661 264.288 109.054 264.104C109.455 263.919 109.888 263.827 110.353 263.827C110.834 263.827 111.263 263.927 111.64 264.128C112.017 264.328 112.313 264.605 112.53 264.958C112.754 265.311 112.867 265.724 112.867 266.197C112.867 266.373 112.847 266.558 112.806 266.75C112.766 266.934 112.702 267.131 112.614 267.339C112.534 267.54 112.426 267.752 112.289 267.977C112.153 268.193 111.989 268.422 111.796 268.662C111.612 268.903 111.399 269.156 111.159 269.42L109.246 271.501L109.006 270.948H113.167V272.391H107.839Z" fill="#2C2C2C"/>
<path d="M146.136 272.391L145.739 271.405L148.265 268.578C148.409 268.434 148.558 268.27 148.71 268.085C148.862 267.893 149.007 267.696 149.143 267.496C149.287 267.287 149.404 267.087 149.492 266.894C149.58 266.694 149.624 266.509 149.624 266.341C149.624 266.125 149.576 265.936 149.48 265.776C149.392 265.615 149.263 265.491 149.095 265.403C148.927 265.315 148.718 265.271 148.469 265.271C148.253 265.271 148.04 265.335 147.832 265.463C147.632 265.583 147.443 265.76 147.267 265.992C147.098 266.217 146.958 266.485 146.846 266.798L145.667 266.101C145.811 265.635 146.028 265.234 146.316 264.898C146.613 264.553 146.958 264.288 147.351 264.104C147.752 263.919 148.185 263.827 148.65 263.827C149.131 263.827 149.56 263.927 149.937 264.128C150.314 264.328 150.61 264.605 150.827 264.958C151.051 265.311 151.164 265.724 151.164 266.197C151.164 266.373 151.144 266.558 151.104 266.75C151.064 266.934 150.999 267.131 150.911 267.339C150.831 267.54 150.723 267.752 150.586 267.977C150.45 268.193 150.286 268.422 150.093 268.662C149.909 268.903 149.696 269.156 149.456 269.42L147.543 271.501L147.303 270.948H151.464V272.391H146.136ZM154.927 272.511C154.301 272.511 153.756 272.375 153.291 272.102C152.826 271.822 152.397 271.349 152.004 270.683L153.183 269.937C153.367 270.234 153.556 270.475 153.748 270.659C153.948 270.835 154.149 270.968 154.349 271.056C154.558 271.136 154.778 271.176 155.011 271.176C155.276 271.176 155.516 271.112 155.733 270.984C155.957 270.856 156.134 270.679 156.262 270.455C156.398 270.23 156.466 269.973 156.466 269.685C156.466 269.396 156.41 269.152 156.298 268.951C156.194 268.751 156.037 268.598 155.829 268.494C155.628 268.382 155.384 268.326 155.095 268.326C154.967 268.326 154.83 268.342 154.686 268.374C154.542 268.398 154.389 268.438 154.229 268.494C154.069 268.542 153.892 268.602 153.7 268.674L153.315 267.652L155.709 265.006L156.069 265.355L152.521 265.331V263.947H157.465L157.753 264.525L154.987 267.544L154.626 267.147C154.69 267.115 154.794 267.087 154.939 267.063C155.091 267.031 155.223 267.015 155.336 267.015C155.688 267.015 156.025 267.083 156.346 267.219C156.667 267.347 156.943 267.532 157.176 267.772C157.416 268.013 157.605 268.294 157.741 268.614C157.878 268.927 157.946 269.268 157.946 269.637C157.946 270.19 157.809 270.683 157.537 271.116C157.272 271.541 156.911 271.882 156.454 272.139C155.997 272.387 155.488 272.511 154.927 272.511Z" fill="#2C2C2C"/>
<path d="M190.251 272.391L189.854 271.405L192.38 268.578C192.524 268.434 192.673 268.27 192.825 268.085C192.977 267.893 193.122 267.696 193.258 267.496C193.402 267.287 193.519 267.087 193.607 266.894C193.695 266.694 193.739 266.509 193.739 266.341C193.739 266.125 193.691 265.936 193.595 265.776C193.507 265.615 193.378 265.491 193.21 265.403C193.041 265.315 192.833 265.271 192.584 265.271C192.368 265.271 192.155 265.335 191.947 265.463C191.746 265.583 191.558 265.76 191.382 265.992C191.213 266.217 191.073 266.485 190.961 266.798L189.782 266.101C189.926 265.635 190.143 265.234 190.431 264.898C190.728 264.553 191.073 264.288 191.466 264.104C191.867 263.919 192.3 263.827 192.765 263.827C193.246 263.827 193.675 263.927 194.052 264.128C194.429 264.328 194.725 264.605 194.942 264.958C195.166 265.311 195.279 265.724 195.279 266.197C195.279 266.373 195.259 266.558 195.218 266.75C195.178 266.934 195.114 267.131 195.026 267.339C194.946 267.54 194.838 267.752 194.701 267.977C194.565 268.193 194.401 268.422 194.208 268.662C194.024 268.903 193.811 269.156 193.571 269.42L191.658 271.501L191.418 270.948H195.579V272.391H190.251ZM199.853 272.391V265.595L200.43 265.655L197.568 269.156L197.435 268.939H202.788V270.298H196.594L195.944 269.047L200.13 263.947H201.357V272.391H199.853Z" fill="#2C2C2C"/>
<path d="M235.78 272.391L235.383 271.405L237.909 268.578C238.054 268.434 238.202 268.27 238.354 268.085C238.507 267.893 238.651 267.696 238.787 267.496C238.932 267.287 239.048 267.087 239.136 266.894C239.224 266.694 239.268 266.509 239.268 266.341C239.268 266.125 239.22 265.936 239.124 265.776C239.036 265.615 238.907 265.491 238.739 265.403C238.571 265.315 238.362 265.271 238.114 265.271C237.897 265.271 237.685 265.335 237.476 265.463C237.276 265.583 237.087 265.76 236.911 265.992C236.742 266.217 236.602 266.485 236.49 266.798L235.311 266.101C235.455 265.635 235.672 265.234 235.961 264.898C236.257 264.553 236.602 264.288 236.995 264.104C237.396 263.919 237.829 263.827 238.294 263.827C238.775 263.827 239.204 263.927 239.581 264.128C239.958 264.328 240.255 264.605 240.471 264.958C240.696 265.311 240.808 265.724 240.808 266.197C240.808 266.373 240.788 266.558 240.748 266.75C240.708 266.934 240.644 267.131 240.555 267.339C240.475 267.54 240.367 267.752 240.231 267.977C240.094 268.193 239.93 268.422 239.737 268.662C239.553 268.903 239.34 269.156 239.1 269.42L237.187 271.501L236.947 270.948H241.109V272.391H235.78ZM244.595 272.475C244.01 272.475 243.48 272.351 243.007 272.102C242.534 271.846 242.141 271.477 241.828 270.996L242.695 270.058C243.047 270.451 243.364 270.723 243.645 270.876C243.925 271.02 244.234 271.092 244.571 271.092C244.876 271.092 245.148 271.028 245.389 270.9C245.629 270.763 245.822 270.583 245.966 270.358C246.11 270.126 246.183 269.873 246.183 269.601C246.183 269.304 246.114 269.043 245.978 268.819C245.842 268.586 245.657 268.402 245.425 268.266C245.192 268.129 244.928 268.061 244.631 268.061C244.471 268.061 244.318 268.073 244.174 268.097C244.03 268.121 243.861 268.169 243.669 268.241C243.484 268.314 243.248 268.426 242.959 268.578L242.213 267.568L242.707 263.947H247.361V265.331H243.585L243.933 264.946L243.536 267.616L243.091 267.303C243.196 267.207 243.348 267.115 243.548 267.027C243.757 266.938 243.981 266.866 244.222 266.81C244.463 266.754 244.699 266.726 244.932 266.726C245.453 266.726 245.918 266.846 246.327 267.087C246.736 267.327 247.061 267.66 247.301 268.085C247.542 268.502 247.662 268.983 247.662 269.528C247.662 270.082 247.526 270.583 247.253 271.032C246.988 271.473 246.624 271.826 246.159 272.09C245.693 272.347 245.172 272.475 244.595 272.475Z" fill="#2C2C2C"/>
<path d="M280.761 272.391L280.364 271.405L282.89 268.578C283.034 268.434 283.182 268.27 283.335 268.085C283.487 267.893 283.632 267.696 283.768 267.496C283.912 267.287 284.028 267.087 284.117 266.894C284.205 266.694 284.249 266.509 284.249 266.341C284.249 266.125 284.201 265.936 284.105 265.776C284.016 265.615 283.888 265.491 283.72 265.403C283.551 265.315 283.343 265.271 283.094 265.271C282.878 265.271 282.665 265.335 282.457 265.463C282.256 265.583 282.068 265.76 281.891 265.992C281.723 266.217 281.583 266.485 281.471 266.798L280.292 266.101C280.436 265.635 280.653 265.234 280.941 264.898C281.238 264.553 281.583 264.288 281.976 264.104C282.377 263.919 282.81 263.827 283.275 263.827C283.756 263.827 284.185 263.927 284.562 264.128C284.939 264.328 285.235 264.605 285.452 264.958C285.676 265.311 285.789 265.724 285.789 266.197C285.789 266.373 285.769 266.558 285.728 266.75C285.688 266.934 285.624 267.131 285.536 267.339C285.456 267.54 285.348 267.752 285.211 267.977C285.075 268.193 284.911 268.422 284.718 268.662C284.534 268.903 284.321 269.156 284.081 269.42L282.168 271.501L281.928 270.948H286.089V272.391H280.761ZM289.828 272.391C289.403 272.391 289.006 272.315 288.637 272.163C288.277 272.01 287.96 271.802 287.687 271.537C287.423 271.264 287.214 270.948 287.062 270.587C286.909 270.226 286.833 269.829 286.833 269.396C286.833 269.156 286.861 268.899 286.917 268.626C286.982 268.354 287.074 268.065 287.194 267.76C287.322 267.448 287.471 267.123 287.639 266.786C287.807 266.449 288.004 266.096 288.228 265.728L289.347 263.827H290.839L290.887 263.947L289.455 266.305C289.223 266.69 289.018 267.055 288.842 267.4C288.665 267.736 288.513 268.061 288.385 268.374C288.265 268.678 288.164 268.975 288.084 269.264L287.759 268.169C287.88 267.913 288.028 267.68 288.204 267.472C288.381 267.263 288.577 267.087 288.794 266.942C289.01 266.798 289.235 266.69 289.467 266.618C289.708 266.546 289.952 266.509 290.201 266.509C290.666 266.509 291.095 266.638 291.488 266.894C291.881 267.143 292.194 267.476 292.426 267.893C292.667 268.31 292.787 268.767 292.787 269.264C292.787 269.865 292.659 270.402 292.402 270.876C292.154 271.341 291.805 271.71 291.356 271.982C290.907 272.255 290.397 272.391 289.828 272.391ZM289.84 271.02C290.129 271.02 290.385 270.952 290.61 270.815C290.843 270.679 291.023 270.491 291.151 270.25C291.28 270.002 291.344 269.717 291.344 269.396C291.344 269.124 291.276 268.871 291.139 268.638C291.011 268.398 290.834 268.205 290.61 268.061C290.385 267.909 290.133 267.833 289.852 267.833C289.548 267.833 289.275 267.905 289.034 268.049C288.802 268.185 288.617 268.374 288.481 268.614C288.353 268.847 288.289 269.107 288.289 269.396C288.289 269.701 288.353 269.978 288.481 270.226C288.617 270.467 288.802 270.659 289.034 270.803C289.267 270.948 289.535 271.02 289.84 271.02Z" fill="#2C2C2C"/>
<path d="M326.583 272.391L326.186 271.405L328.712 268.578C328.857 268.434 329.005 268.27 329.157 268.085C329.31 267.893 329.454 267.696 329.59 267.496C329.735 267.287 329.851 267.087 329.939 266.894C330.027 266.694 330.072 266.509 330.072 266.341C330.072 266.125 330.023 265.936 329.927 265.776C329.839 265.615 329.711 265.491 329.542 265.403C329.374 265.315 329.165 265.271 328.917 265.271C328.7 265.271 328.488 265.335 328.279 265.463C328.079 265.583 327.89 265.76 327.714 265.992C327.546 266.217 327.405 266.485 327.293 266.798L326.114 266.101C326.259 265.635 326.475 265.234 326.764 264.898C327.061 264.553 327.405 264.288 327.798 264.104C328.199 263.919 328.632 263.827 329.097 263.827C329.578 263.827 330.007 263.927 330.384 264.128C330.761 264.328 331.058 264.605 331.274 264.958C331.499 265.311 331.611 265.724 331.611 266.197C331.611 266.373 331.591 266.558 331.551 266.75C331.511 266.934 331.447 267.131 331.359 267.339C331.278 267.54 331.17 267.752 331.034 267.977C330.897 268.193 330.733 268.422 330.541 268.662C330.356 268.903 330.144 269.156 329.903 269.42L327.991 271.501L327.75 270.948H331.912V272.391H326.583ZM333.426 272.391L336.878 264.765L337.166 265.355H332.86V263.947H338.165L338.345 264.826L335.049 272.391H333.426Z" fill="#2C2C2C"/>
<path d="M370.044 272.391L369.647 271.405L372.173 268.578C372.318 268.434 372.466 268.27 372.618 268.085C372.771 267.893 372.915 267.696 373.051 267.496C373.196 267.287 373.312 267.087 373.4 266.894C373.488 266.694 373.532 266.509 373.532 266.341C373.532 266.125 373.484 265.936 373.388 265.776C373.3 265.615 373.172 265.491 373.003 265.403C372.835 265.315 372.626 265.271 372.378 265.271C372.161 265.271 371.949 265.335 371.74 265.463C371.54 265.583 371.351 265.76 371.175 265.992C371.007 266.217 370.866 266.485 370.754 266.798L369.575 266.101C369.72 265.635 369.936 265.234 370.225 264.898C370.521 264.553 370.866 264.288 371.259 264.104C371.66 263.919 372.093 263.827 372.558 263.827C373.039 263.827 373.468 263.927 373.845 264.128C374.222 264.328 374.519 264.605 374.735 264.958C374.96 265.311 375.072 265.724 375.072 266.197C375.072 266.373 375.052 266.558 375.012 266.75C374.972 266.934 374.908 267.131 374.819 267.339C374.739 267.54 374.631 267.752 374.495 267.977C374.358 268.193 374.194 268.422 374.002 268.662C373.817 268.903 373.605 269.156 373.364 269.42L371.452 271.501L371.211 270.948H375.373V272.391H370.044ZM379.172 272.427C378.635 272.427 378.141 272.319 377.692 272.102C377.251 271.878 376.898 271.581 376.634 271.212C376.369 270.835 376.237 270.419 376.237 269.961C376.237 269.689 376.273 269.436 376.345 269.204C376.425 268.971 376.538 268.763 376.682 268.578C376.834 268.394 377.015 268.229 377.223 268.085C377.44 267.933 377.684 267.8 377.957 267.688L377.861 268.025C377.652 267.937 377.46 267.833 377.283 267.712C377.115 267.592 376.967 267.456 376.838 267.303C376.718 267.143 376.626 266.975 376.562 266.798C376.498 266.614 376.465 266.421 376.465 266.221C376.465 265.788 376.586 265.399 376.826 265.054C377.075 264.709 377.404 264.437 377.813 264.236C378.222 264.028 378.675 263.923 379.172 263.923C379.677 263.923 380.134 264.028 380.543 264.236C380.952 264.437 381.277 264.709 381.517 265.054C381.766 265.399 381.89 265.788 381.89 266.221C381.89 266.421 381.858 266.614 381.794 266.798C381.73 266.975 381.637 267.139 381.517 267.291C381.405 267.436 381.261 267.572 381.084 267.7C380.908 267.82 380.703 267.929 380.471 268.025L380.411 267.736C380.667 267.825 380.9 267.941 381.108 268.085C381.317 268.229 381.497 268.398 381.65 268.59C381.802 268.783 381.918 268.995 381.998 269.228C382.087 269.46 382.131 269.705 382.131 269.961C382.131 270.427 381.998 270.848 381.734 271.224C381.469 271.593 381.112 271.886 380.663 272.102C380.222 272.319 379.725 272.427 379.172 272.427ZM379.172 271.08C379.444 271.08 379.689 271.028 379.905 270.924C380.122 270.819 380.29 270.679 380.411 270.503C380.539 270.326 380.603 270.122 380.603 269.889C380.603 269.641 380.539 269.424 380.411 269.24C380.29 269.047 380.122 268.899 379.905 268.795C379.689 268.682 379.444 268.626 379.172 268.626C378.907 268.626 378.667 268.682 378.45 268.795C378.242 268.899 378.073 269.047 377.945 269.24C377.817 269.424 377.752 269.641 377.752 269.889C377.752 270.114 377.817 270.314 377.945 270.491C378.073 270.667 378.242 270.811 378.45 270.924C378.667 271.028 378.907 271.08 379.172 271.08ZM379.172 267.303C379.412 267.303 379.625 267.259 379.809 267.171C380.002 267.083 380.15 266.963 380.254 266.81C380.359 266.658 380.411 266.481 380.411 266.281C380.411 266.072 380.359 265.892 380.254 265.74C380.15 265.579 380.002 265.455 379.809 265.367C379.625 265.271 379.412 265.222 379.172 265.222C378.939 265.222 378.727 265.271 378.534 265.367C378.35 265.455 378.206 265.579 378.101 265.74C377.997 265.892 377.945 266.072 377.945 266.281C377.945 266.481 377.997 266.658 378.101 266.81C378.206 266.963 378.35 267.083 378.534 267.171C378.727 267.259 378.939 267.303 379.172 267.303Z" fill="#2C2C2C"/>
<path d="M102.832 234.916V228.084L103.277 228.661L101.569 229.527L101.22 228.156L103.517 226.966H104.383V234.916H102.832ZM101.425 235.505V234.062H105.827V235.505H101.425ZM109.729 235.59C109.144 235.59 108.615 235.465 108.142 235.217C107.669 234.96 107.276 234.591 106.963 234.11L107.829 233.172C108.182 233.565 108.498 233.837 108.779 233.99C109.06 234.134 109.368 234.206 109.705 234.206C110.01 234.206 110.283 234.142 110.523 234.014C110.764 233.878 110.956 233.697 111.101 233.473C111.245 233.24 111.317 232.988 111.317 232.715C111.317 232.418 111.249 232.158 111.113 231.933C110.976 231.701 110.792 231.516 110.559 231.38C110.327 231.243 110.062 231.175 109.765 231.175C109.605 231.175 109.453 231.187 109.308 231.211C109.164 231.235 108.996 231.284 108.803 231.356C108.619 231.428 108.382 231.54 108.094 231.693L107.348 230.682L107.841 227.062H112.496V228.445H108.719L109.068 228.06L108.671 230.73L108.226 230.418C108.33 230.321 108.482 230.229 108.683 230.141C108.891 230.053 109.116 229.981 109.356 229.924C109.597 229.868 109.834 229.84 110.066 229.84C110.587 229.84 111.052 229.96 111.461 230.201C111.87 230.442 112.195 230.774 112.436 231.199C112.676 231.616 112.796 232.097 112.796 232.643C112.796 233.196 112.66 233.697 112.388 234.146C112.123 234.587 111.758 234.94 111.293 235.205C110.828 235.461 110.307 235.59 109.729 235.59Z" fill="#2C2C2C"/>
<path d="M147.812 234.916V228.084L148.257 228.661L146.549 229.527L146.201 228.156L148.498 226.966H149.364V234.916H147.812ZM146.405 235.505V234.062H150.807V235.505H146.405ZM154.963 235.505C154.538 235.505 154.141 235.429 153.772 235.277C153.411 235.124 153.094 234.916 152.822 234.651C152.557 234.379 152.348 234.062 152.196 233.701C152.044 233.34 151.968 232.943 151.968 232.51C151.968 232.27 151.996 232.013 152.052 231.741C152.116 231.468 152.208 231.179 152.328 230.875C152.457 230.562 152.605 230.237 152.773 229.9C152.942 229.564 153.138 229.211 153.363 228.842L154.481 226.941H155.973L156.021 227.062L154.59 229.419C154.357 229.804 154.153 230.169 153.976 230.514C153.8 230.851 153.648 231.175 153.519 231.488C153.399 231.793 153.299 232.089 153.219 232.378L152.894 231.284C153.014 231.027 153.162 230.794 153.339 230.586C153.515 230.377 153.712 230.201 153.928 230.057C154.145 229.912 154.369 229.804 154.602 229.732C154.842 229.66 155.087 229.624 155.335 229.624C155.801 229.624 156.23 229.752 156.622 230.009C157.015 230.257 157.328 230.59 157.561 231.007C157.801 231.424 157.921 231.881 157.921 232.378C157.921 232.98 157.793 233.517 157.537 233.99C157.288 234.455 156.939 234.824 156.49 235.096C156.041 235.369 155.532 235.505 154.963 235.505ZM154.975 234.134C155.263 234.134 155.52 234.066 155.744 233.93C155.977 233.793 156.157 233.605 156.286 233.364C156.414 233.116 156.478 232.831 156.478 232.51C156.478 232.238 156.41 231.985 156.274 231.753C156.145 231.512 155.969 231.32 155.744 231.175C155.52 231.023 155.267 230.947 154.987 230.947C154.682 230.947 154.409 231.019 154.169 231.163C153.936 231.3 153.752 231.488 153.615 231.729C153.487 231.961 153.423 232.222 153.423 232.51C153.423 232.815 153.487 233.092 153.615 233.34C153.752 233.581 153.936 233.773 154.169 233.918C154.401 234.062 154.67 234.134 154.975 234.134Z" fill="#2C2C2C"/>
<path d="M192.834 234.916V228.084L193.279 228.661L191.571 229.527L191.222 228.156L193.52 226.966H194.386V234.916H192.834ZM191.427 235.505V234.062H195.829V235.505H191.427ZM197.759 235.505L201.211 227.88L201.5 228.469H197.194V227.062H202.498L202.679 227.94L199.383 235.505H197.759Z" fill="#FAFAFA"/>
<path d="M237.498 234.916V228.084L237.943 228.661L236.235 229.527L235.886 228.156L238.183 226.966H239.049V234.916H237.498ZM236.09 235.505V234.062H240.493V235.505H236.09ZM244.708 235.541C244.171 235.541 243.678 235.433 243.229 235.217C242.788 234.992 242.435 234.695 242.17 234.327C241.905 233.95 241.773 233.533 241.773 233.076C241.773 232.803 241.809 232.551 241.881 232.318C241.962 232.085 242.074 231.877 242.218 231.693C242.371 231.508 242.551 231.344 242.759 231.199C242.976 231.047 243.221 230.915 243.493 230.802L243.397 231.139C243.188 231.051 242.996 230.947 242.82 230.827C242.651 230.706 242.503 230.57 242.375 230.418C242.254 230.257 242.162 230.089 242.098 229.912C242.034 229.728 242.002 229.536 242.002 229.335C242.002 228.902 242.122 228.513 242.363 228.168C242.611 227.824 242.94 227.551 243.349 227.35C243.758 227.142 244.211 227.038 244.708 227.038C245.213 227.038 245.67 227.142 246.079 227.35C246.488 227.551 246.813 227.824 247.053 228.168C247.302 228.513 247.426 228.902 247.426 229.335C247.426 229.536 247.394 229.728 247.33 229.912C247.266 230.089 247.174 230.253 247.053 230.406C246.941 230.55 246.797 230.686 246.62 230.814C246.444 230.935 246.24 231.043 246.007 231.139L245.947 230.851C246.203 230.939 246.436 231.055 246.644 231.199C246.853 231.344 247.033 231.512 247.186 231.705C247.338 231.897 247.454 232.109 247.535 232.342C247.623 232.575 247.667 232.819 247.667 233.076C247.667 233.541 247.535 233.962 247.27 234.339C247.005 234.708 246.648 235 246.199 235.217C245.758 235.433 245.261 235.541 244.708 235.541ZM244.708 234.194C244.981 234.194 245.225 234.142 245.442 234.038C245.658 233.934 245.827 233.793 245.947 233.617C246.075 233.441 246.139 233.236 246.139 233.004C246.139 232.755 246.075 232.538 245.947 232.354C245.827 232.162 245.658 232.013 245.442 231.909C245.225 231.797 244.981 231.741 244.708 231.741C244.443 231.741 244.203 231.797 243.986 231.909C243.778 232.013 243.609 232.162 243.481 232.354C243.353 232.538 243.289 232.755 243.289 233.004C243.289 233.228 243.353 233.429 243.481 233.605C243.609 233.781 243.778 233.926 243.986 234.038C244.203 234.142 244.443 234.194 244.708 234.194ZM244.708 230.418C244.949 230.418 245.161 230.373 245.345 230.285C245.538 230.197 245.686 230.077 245.79 229.924C245.895 229.772 245.947 229.596 245.947 229.395C245.947 229.187 245.895 229.006 245.79 228.854C245.686 228.694 245.538 228.569 245.345 228.481C245.161 228.385 244.949 228.337 244.708 228.337C244.475 228.337 244.263 228.385 244.07 228.481C243.886 228.569 243.742 228.694 243.637 228.854C243.533 229.006 243.481 229.187 243.481 229.395C243.481 229.596 243.533 229.772 243.637 229.924C243.742 230.077 243.886 230.197 244.07 230.285C244.263 230.373 244.475 230.418 244.708 230.418Z" fill="#2C2C2C"/>
<path d="M282.561 234.916V228.084L283.006 228.661L281.298 229.527L280.949 228.156L283.246 226.966H284.112V234.916H282.561ZM281.153 235.505V234.062H285.556V235.505H281.153ZM288.917 235.505L288.869 235.385L291.419 230.069L291.563 230.971C291.443 231.227 291.294 231.456 291.118 231.656C290.95 231.857 290.753 232.033 290.529 232.186C290.312 232.33 290.088 232.442 289.855 232.522C289.622 232.595 289.39 232.631 289.157 232.631C288.7 232.631 288.279 232.51 287.894 232.27C287.51 232.021 287.201 231.697 286.968 231.296C286.736 230.887 286.62 230.442 286.62 229.96C286.62 229.391 286.752 228.878 287.016 228.421C287.281 227.956 287.638 227.591 288.087 227.326C288.544 227.054 289.057 226.917 289.626 226.917C290.035 226.917 290.42 226.994 290.781 227.146C291.15 227.29 291.467 227.495 291.731 227.759C292.004 228.024 292.217 228.329 292.369 228.674C292.529 229.018 292.609 229.383 292.609 229.768C292.609 230.001 292.585 230.241 292.537 230.49C292.497 230.73 292.429 230.995 292.333 231.284C292.237 231.572 292.112 231.889 291.96 232.234C291.816 232.579 291.639 232.971 291.431 233.413L290.408 235.505H288.917ZM289.506 231.284C289.795 231.284 290.055 231.219 290.288 231.091C290.521 230.955 290.701 230.778 290.829 230.562C290.958 230.345 291.022 230.097 291.022 229.816C291.022 229.527 290.958 229.267 290.829 229.034C290.701 228.802 290.525 228.621 290.3 228.493C290.076 228.357 289.819 228.289 289.53 228.289C289.258 228.289 289.017 228.353 288.809 228.481C288.6 228.609 288.432 228.79 288.303 229.022C288.183 229.247 288.123 229.511 288.123 229.816C288.123 230.073 288.183 230.313 288.303 230.538C288.432 230.762 288.6 230.943 288.809 231.079C289.025 231.215 289.258 231.284 289.506 231.284Z" fill="#2C2C2C"/>
<path d="M325.247 234.641C326.017 233.975 326.622 233.43 327.063 233.005C327.512 232.572 327.885 232.123 328.182 231.658C328.479 231.193 328.627 230.728 328.627 230.263C328.627 229.782 328.511 229.405 328.278 229.132C328.054 228.86 327.697 228.723 327.208 228.723C326.734 228.723 326.366 228.876 326.101 229.18C325.844 229.477 325.708 229.878 325.692 230.383H324.369C324.393 229.469 324.666 228.771 325.187 228.29C325.716 227.801 326.386 227.557 327.196 227.557C328.07 227.557 328.751 227.797 329.24 228.278C329.737 228.759 329.986 229.401 329.986 230.203C329.986 230.78 329.838 231.337 329.541 231.875C329.252 232.404 328.904 232.881 328.495 233.306C328.094 233.723 327.58 234.208 326.955 234.761L326.414 235.242H330.227V236.385H324.381V235.387L325.247 234.641ZM331.431 232.007C331.431 230.62 331.664 229.537 332.129 228.759C332.602 227.974 333.412 227.581 334.558 227.581C335.705 227.581 336.511 227.974 336.976 228.759C337.449 229.537 337.686 230.62 337.686 232.007C337.686 233.41 337.449 234.509 336.976 235.303C336.511 236.088 335.705 236.481 334.558 236.481C333.412 236.481 332.602 236.088 332.129 235.303C331.664 234.509 331.431 233.41 331.431 232.007ZM336.339 232.007C336.339 231.357 336.294 230.808 336.206 230.359C336.126 229.91 335.958 229.545 335.701 229.265C335.444 228.976 335.064 228.832 334.558 228.832C334.053 228.832 333.672 228.976 333.416 229.265C333.159 229.545 332.987 229.91 332.899 230.359C332.818 230.808 332.778 231.357 332.778 232.007C332.778 232.68 332.818 233.246 332.899 233.703C332.979 234.16 333.147 234.529 333.404 234.809C333.668 235.09 334.053 235.23 334.558 235.23C335.064 235.23 335.444 235.09 335.701 234.809C335.966 234.529 336.138 234.16 336.218 233.703C336.298 233.246 336.339 232.68 336.339 232.007Z" fill="#2C2C2C"/>
<path d="M370.828 235.505L370.431 234.519L372.957 231.693C373.101 231.548 373.25 231.384 373.402 231.199C373.554 231.007 373.699 230.81 373.835 230.61C373.979 230.402 374.095 230.201 374.184 230.009C374.272 229.808 374.316 229.624 374.316 229.455C374.316 229.239 374.268 229.05 374.172 228.89C374.083 228.73 373.955 228.605 373.787 228.517C373.618 228.429 373.41 228.385 373.161 228.385C372.945 228.385 372.732 228.449 372.524 228.577C372.323 228.698 372.135 228.874 371.959 229.107C371.79 229.331 371.65 229.6 371.538 229.912L370.359 229.215C370.503 228.75 370.72 228.349 371.008 228.012C371.305 227.667 371.65 227.403 372.043 227.218C372.444 227.034 372.877 226.941 373.342 226.941C373.823 226.941 374.252 227.042 374.629 227.242C375.006 227.443 375.302 227.719 375.519 228.072C375.743 228.425 375.856 228.838 375.856 229.311C375.856 229.487 375.836 229.672 375.795 229.864C375.755 230.049 375.691 230.245 375.603 230.454C375.523 230.654 375.415 230.867 375.278 231.091C375.142 231.308 374.978 231.536 374.785 231.777C374.601 232.017 374.388 232.27 374.148 232.534L372.235 234.615L371.995 234.062H376.156V235.505H370.828ZM379.029 234.916V228.084L379.474 228.661L377.766 229.527L377.417 228.156L379.715 226.966H380.581V234.916H379.029ZM377.622 235.505V234.062H382.024V235.505H377.622Z" fill="#2C2C2C"/>
<path d="M106.853 199.458C106.315 199.458 105.822 199.35 105.373 199.133C104.932 198.909 104.579 198.612 104.315 198.243C104.05 197.866 103.918 197.449 103.918 196.992C103.918 196.72 103.954 196.467 104.026 196.234C104.106 196.002 104.218 195.793 104.363 195.609C104.515 195.425 104.696 195.26 104.904 195.116C105.121 194.964 105.365 194.831 105.638 194.719L105.542 195.056C105.333 194.968 105.141 194.863 104.964 194.743C104.796 194.623 104.647 194.486 104.519 194.334C104.399 194.174 104.307 194.005 104.243 193.829C104.178 193.644 104.146 193.452 104.146 193.252C104.146 192.819 104.267 192.43 104.507 192.085C104.756 191.74 105.084 191.467 105.493 191.267C105.902 191.058 106.355 190.954 106.853 190.954C107.358 190.954 107.815 191.058 108.224 191.267C108.633 191.467 108.957 191.74 109.198 192.085C109.447 192.43 109.571 192.819 109.571 193.252C109.571 193.452 109.539 193.644 109.475 193.829C109.411 194.005 109.318 194.17 109.198 194.322C109.086 194.466 108.941 194.603 108.765 194.731C108.589 194.851 108.384 194.96 108.152 195.056L108.091 194.767C108.348 194.855 108.581 194.972 108.789 195.116C108.998 195.26 109.178 195.429 109.33 195.621C109.483 195.813 109.599 196.026 109.679 196.259C109.767 196.491 109.811 196.736 109.811 196.992C109.811 197.457 109.679 197.878 109.415 198.255C109.15 198.624 108.793 198.917 108.344 199.133C107.903 199.35 107.406 199.458 106.853 199.458ZM106.853 198.111C107.125 198.111 107.37 198.059 107.586 197.954C107.803 197.85 107.971 197.71 108.091 197.533C108.22 197.357 108.284 197.153 108.284 196.92C108.284 196.671 108.22 196.455 108.091 196.271C107.971 196.078 107.803 195.93 107.586 195.826C107.37 195.713 107.125 195.657 106.853 195.657C106.588 195.657 106.347 195.713 106.131 195.826C105.922 195.93 105.754 196.078 105.626 196.271C105.497 196.455 105.433 196.671 105.433 196.92C105.433 197.145 105.497 197.345 105.626 197.521C105.754 197.698 105.922 197.842 106.131 197.954C106.347 198.059 106.588 198.111 106.853 198.111ZM106.853 194.334C107.093 194.334 107.306 194.29 107.49 194.202C107.683 194.114 107.831 193.993 107.935 193.841C108.039 193.689 108.091 193.512 108.091 193.312C108.091 193.103 108.039 192.923 107.935 192.77C107.831 192.61 107.683 192.486 107.49 192.398C107.306 192.301 107.093 192.253 106.853 192.253C106.62 192.253 106.408 192.301 106.215 192.398C106.031 192.486 105.886 192.61 105.782 192.77C105.678 192.923 105.626 193.103 105.626 193.312C105.626 193.512 105.678 193.689 105.782 193.841C105.886 193.993 106.031 194.114 106.215 194.202C106.408 194.29 106.62 194.334 106.853 194.334Z" fill="#2C2C2C"/>
<path d="M151.061 199.422L151.013 199.302L153.563 193.985L153.708 194.887C153.587 195.144 153.439 195.372 153.263 195.573C153.094 195.773 152.898 195.95 152.673 196.102C152.457 196.246 152.232 196.359 152 196.439C151.767 196.511 151.535 196.547 151.302 196.547C150.845 196.547 150.424 196.427 150.039 196.186C149.654 195.938 149.345 195.613 149.113 195.212C148.88 194.803 148.764 194.358 148.764 193.877C148.764 193.308 148.896 192.794 149.161 192.337C149.426 191.872 149.783 191.507 150.232 191.243C150.689 190.97 151.202 190.834 151.771 190.834C152.18 190.834 152.565 190.91 152.926 191.062C153.295 191.207 153.611 191.411 153.876 191.676C154.149 191.94 154.361 192.245 154.513 192.59C154.674 192.935 154.754 193.3 154.754 193.685C154.754 193.917 154.73 194.158 154.682 194.406C154.642 194.647 154.574 194.911 154.477 195.2C154.381 195.489 154.257 195.805 154.105 196.15C153.96 196.495 153.784 196.888 153.575 197.329L152.553 199.422H151.061ZM151.651 195.2C151.94 195.2 152.2 195.136 152.433 195.008C152.665 194.871 152.846 194.695 152.974 194.478C153.102 194.262 153.166 194.013 153.166 193.733C153.166 193.444 153.102 193.183 152.974 192.951C152.846 192.718 152.669 192.538 152.445 192.41C152.22 192.273 151.964 192.205 151.675 192.205C151.402 192.205 151.162 192.269 150.953 192.398C150.745 192.526 150.576 192.706 150.448 192.939C150.328 193.163 150.268 193.428 150.268 193.733C150.268 193.989 150.328 194.23 150.448 194.454C150.576 194.679 150.745 194.859 150.953 194.996C151.17 195.132 151.402 195.2 151.651 195.2Z" fill="#2C2C2C"/>
<path d="M191.921 198.833V192.001L192.366 192.578L190.658 193.444L190.31 192.073L192.607 190.882H193.473V198.833H191.921ZM190.514 199.422V197.979H194.916V199.422H190.514ZM199.408 199.542C198.727 199.542 198.141 199.37 197.652 199.025C197.171 198.672 196.798 198.175 196.534 197.533C196.277 196.884 196.149 196.11 196.149 195.212C196.149 194.314 196.277 193.544 196.534 192.903C196.798 192.253 197.171 191.756 197.652 191.411C198.141 191.058 198.727 190.882 199.408 190.882C200.09 190.882 200.675 191.058 201.164 191.411C201.654 191.756 202.026 192.253 202.283 192.903C202.548 193.544 202.68 194.314 202.68 195.212C202.68 196.11 202.548 196.884 202.283 197.533C202.026 198.175 201.654 198.672 201.164 199.025C200.675 199.37 200.09 199.542 199.408 199.542ZM199.408 198.171C199.97 198.171 200.403 197.914 200.707 197.401C201.02 196.88 201.176 196.15 201.176 195.212C201.176 194.266 201.02 193.532 200.707 193.011C200.403 192.49 199.97 192.229 199.408 192.229C198.847 192.229 198.41 192.49 198.097 193.011C197.793 193.532 197.64 194.266 197.64 195.212C197.64 196.15 197.793 196.88 198.097 197.401C198.41 197.914 198.847 198.171 199.408 198.171Z" fill="#2C2C2C"/>
<path d="M237.478 198.833V192.001L237.924 192.578L236.216 193.444L235.867 192.073L238.164 190.882H239.03V198.833H237.478ZM236.071 199.422V197.979H240.473V199.422H236.071ZM243.763 198.833V192.001L244.208 192.578L242.5 193.444L242.151 192.073L244.448 190.882H245.314V198.833H243.763ZM242.355 199.422V197.979H246.758V199.422H242.355Z" fill="#2C2C2C"/>
<path d="M282.631 198.833V192.001L283.076 192.578L281.368 193.444L281.019 192.073L283.317 190.882H284.183V198.833H282.631ZM281.224 199.422V197.979H285.626V199.422H281.224ZM287.303 199.422L286.906 198.436L289.432 195.609C289.577 195.465 289.725 195.3 289.877 195.116C290.03 194.923 290.174 194.727 290.31 194.527C290.455 194.318 290.571 194.118 290.659 193.925C290.747 193.725 290.792 193.54 290.792 193.372C290.792 193.155 290.743 192.967 290.647 192.807C290.559 192.646 290.431 192.522 290.262 192.434C290.094 192.345 289.885 192.301 289.637 192.301C289.42 192.301 289.208 192.365 288.999 192.494C288.799 192.614 288.61 192.79 288.434 193.023C288.266 193.248 288.125 193.516 288.013 193.829L286.834 193.131C286.979 192.666 287.195 192.265 287.484 191.928C287.781 191.584 288.125 191.319 288.518 191.135C288.919 190.95 289.352 190.858 289.817 190.858C290.298 190.858 290.727 190.958 291.104 191.159C291.481 191.359 291.778 191.636 291.994 191.989C292.219 192.341 292.331 192.754 292.331 193.227C292.331 193.404 292.311 193.588 292.271 193.781C292.231 193.965 292.167 194.162 292.079 194.37C291.998 194.571 291.89 194.783 291.754 195.008C291.617 195.224 291.453 195.453 291.261 195.693C291.076 195.934 290.864 196.186 290.623 196.451L288.711 198.532L288.47 197.979H292.632V199.422H287.303Z" fill="#2C2C2C"/>
<path d="M327.518 198.833V192.001L327.963 192.578L326.255 193.444L325.906 192.073L328.203 190.882H329.069V198.833H327.518ZM326.11 199.422V197.979H330.513V199.422H326.11ZM334.391 199.542C333.766 199.542 333.22 199.406 332.755 199.133C332.29 198.853 331.861 198.379 331.468 197.714L332.647 196.968C332.832 197.265 333.02 197.505 333.212 197.69C333.413 197.866 333.613 197.999 333.814 198.087C334.022 198.167 334.243 198.207 334.475 198.207C334.74 198.207 334.981 198.143 335.197 198.015C335.422 197.886 335.598 197.71 335.726 197.485C335.863 197.261 335.931 197.004 335.931 196.716C335.931 196.427 335.875 196.182 335.762 195.982C335.658 195.781 335.502 195.629 335.293 195.525C335.093 195.413 334.848 195.356 334.56 195.356C334.431 195.356 334.295 195.372 334.151 195.405C334.006 195.429 333.854 195.469 333.694 195.525C333.533 195.573 333.357 195.633 333.164 195.705L332.779 194.683L335.173 192.037L335.534 192.386L331.986 192.361V190.978H336.929L337.218 191.556L334.451 194.575L334.091 194.178C334.155 194.146 334.259 194.118 334.403 194.093C334.556 194.061 334.688 194.045 334.8 194.045C335.153 194.045 335.49 194.114 335.811 194.25C336.131 194.378 336.408 194.563 336.64 194.803C336.881 195.044 337.069 195.324 337.206 195.645C337.342 195.958 337.41 196.299 337.41 196.667C337.41 197.221 337.274 197.714 337.001 198.147C336.737 198.572 336.376 198.913 335.919 199.169C335.462 199.418 334.953 199.542 334.391 199.542Z" fill="#2C2C2C"/>
<path d="M371.515 198.833V192.001L371.96 192.578L370.252 193.444L369.903 192.073L372.201 190.882H373.067V198.833H371.515ZM370.108 199.422V197.979H374.51V199.422H370.108ZM379.435 199.422V192.626L380.012 192.686L377.15 196.186L377.017 195.97H382.37V197.329H376.175L375.526 196.078L379.712 190.978H380.939V199.422H379.435Z" fill="#2C2C2C"/>
<path d="M105.907 161.947V155.115L106.352 155.692L104.644 156.558L104.296 155.187L106.593 153.996H107.459V161.947H105.907ZM104.5 162.536V161.093H108.902V162.536H104.5Z" fill="#2C2C2C"/>
<path d="M95.1188 140.084V131.664H96.5983L99.6654 136.656L98.7994 136.644L101.903 131.664H103.31V140.084H101.758V136.921C101.758 136.199 101.774 135.549 101.806 134.972C101.846 134.395 101.911 133.821 101.999 133.252L102.191 133.769L99.5812 137.799H98.7874L96.2615 133.805L96.4299 133.252C96.5181 133.789 96.5782 134.343 96.6103 134.912C96.6504 135.473 96.6704 136.143 96.6704 136.921V140.084H95.1188ZM108.207 140.204C107.573 140.204 107.008 140.064 106.511 139.783C106.014 139.495 105.621 139.102 105.332 138.605C105.044 138.107 104.899 137.542 104.899 136.909C104.899 136.275 105.044 135.71 105.332 135.213C105.621 134.716 106.014 134.327 106.511 134.046C107.008 133.757 107.573 133.613 108.207 133.613C108.832 133.613 109.394 133.757 109.891 134.046C110.388 134.327 110.777 134.716 111.058 135.213C111.346 135.71 111.491 136.275 111.491 136.909C111.491 137.542 111.346 138.107 111.058 138.605C110.777 139.102 110.388 139.495 109.891 139.783C109.394 140.064 108.832 140.204 108.207 140.204ZM108.207 138.893C108.552 138.893 108.856 138.805 109.121 138.629C109.394 138.452 109.606 138.216 109.759 137.919C109.919 137.622 109.995 137.285 109.987 136.909C109.995 136.524 109.919 136.183 109.759 135.886C109.606 135.59 109.394 135.357 109.121 135.189C108.856 135.012 108.552 134.924 108.207 134.924C107.862 134.924 107.549 135.012 107.269 135.189C106.996 135.357 106.784 135.594 106.631 135.898C106.479 136.195 106.403 136.532 106.403 136.909C106.403 137.285 106.479 137.622 106.631 137.919C106.784 138.216 106.996 138.452 107.269 138.629C107.549 138.805 107.862 138.893 108.207 138.893ZM112.814 140.084V133.745H114.257L114.281 135.044L114.005 135.189C114.085 134.9 114.241 134.639 114.474 134.407C114.706 134.166 114.983 133.974 115.304 133.829C115.624 133.685 115.953 133.613 116.29 133.613C116.771 133.613 117.172 133.709 117.493 133.902C117.822 134.094 118.066 134.383 118.226 134.768C118.395 135.153 118.479 135.634 118.479 136.211V140.084H117V136.319C117 135.998 116.956 135.734 116.867 135.525C116.779 135.309 116.643 135.153 116.458 135.056C116.274 134.952 116.049 134.904 115.785 134.912C115.568 134.912 115.368 134.948 115.183 135.02C115.007 135.084 114.851 135.181 114.714 135.309C114.586 135.429 114.482 135.569 114.402 135.73C114.329 135.89 114.293 136.067 114.293 136.259V140.084H113.56C113.415 140.084 113.279 140.084 113.151 140.084C113.03 140.084 112.918 140.084 112.814 140.084Z" fill="#3B3B3B"/>
<path d="M144.787 140.084V133.108H142.381V131.664H148.828V133.108H146.35V140.084H144.787ZM151.1 140.204C150.643 140.204 150.246 140.104 149.91 139.904C149.573 139.695 149.316 139.402 149.14 139.026C148.963 138.641 148.875 138.184 148.875 137.654V133.745H150.355V137.342C150.355 137.678 150.407 137.967 150.511 138.208C150.615 138.44 150.768 138.621 150.968 138.749C151.168 138.877 151.409 138.941 151.69 138.941C151.898 138.941 152.087 138.909 152.255 138.845C152.431 138.773 152.584 138.677 152.712 138.556C152.84 138.428 152.941 138.28 153.013 138.111C153.085 137.935 153.121 137.747 153.121 137.546V133.745H154.6V140.084H153.157L153.133 138.761L153.398 138.617C153.301 138.921 153.137 139.194 152.905 139.434C152.68 139.667 152.411 139.855 152.099 140C151.786 140.136 151.453 140.204 151.1 140.204ZM159.305 140.204C158.64 140.204 158.05 140.064 157.537 139.783C157.032 139.503 156.635 139.122 156.346 138.641C156.066 138.151 155.925 137.594 155.925 136.969C155.925 136.472 156.006 136.019 156.166 135.61C156.326 135.201 156.547 134.848 156.828 134.551C157.116 134.246 157.457 134.014 157.85 133.854C158.251 133.685 158.688 133.601 159.161 133.601C159.578 133.601 159.967 133.681 160.328 133.841C160.689 134.002 161.001 134.222 161.266 134.503C161.531 134.776 161.731 135.104 161.867 135.489C162.012 135.866 162.08 136.279 162.072 136.728L162.06 137.245H156.924L156.647 136.235H160.821L160.628 136.44V136.175C160.604 135.926 160.524 135.71 160.388 135.525C160.252 135.333 160.075 135.185 159.859 135.08C159.65 134.968 159.418 134.912 159.161 134.912C158.768 134.912 158.435 134.988 158.163 135.141C157.898 135.293 157.698 135.513 157.561 135.802C157.425 136.083 157.357 136.436 157.357 136.86C157.357 137.269 157.441 137.626 157.609 137.931C157.786 138.236 158.03 138.472 158.343 138.641C158.664 138.801 159.037 138.881 159.462 138.881C159.758 138.881 160.031 138.833 160.28 138.737C160.528 138.641 160.797 138.468 161.085 138.22L161.819 139.242C161.603 139.442 161.354 139.615 161.073 139.759C160.801 139.896 160.512 140.004 160.207 140.084C159.903 140.164 159.602 140.204 159.305 140.204Z" fill="#3B3B3B"/>
<path d="M187.362 140.084L184.74 131.664H186.376L187.867 136.632C187.916 136.784 187.96 136.953 188 137.137C188.04 137.322 188.076 137.506 188.108 137.69C188.14 137.867 188.168 138.031 188.192 138.184C188.216 138.336 188.24 138.464 188.264 138.568L187.94 138.556C188.036 138.18 188.112 137.875 188.168 137.642C188.224 137.41 188.272 137.217 188.312 137.065C188.361 136.905 188.409 136.756 188.457 136.62L189.876 132.987H191.211L192.594 136.62C192.675 136.844 192.747 137.061 192.811 137.269C192.875 137.47 192.927 137.67 192.967 137.871C193.015 138.063 193.06 138.264 193.1 138.472L192.811 138.532C192.843 138.34 192.867 138.184 192.883 138.063C192.899 137.943 192.915 137.835 192.931 137.739C192.947 137.642 192.963 137.55 192.979 137.462C192.995 137.366 193.019 137.253 193.052 137.125C193.092 136.989 193.14 136.816 193.196 136.608L194.675 131.664H196.299L193.665 140.084H192.534L190.393 134.96L190.538 135.008L188.505 140.084H187.362ZM200.036 140.204C199.371 140.204 198.782 140.064 198.268 139.783C197.763 139.503 197.366 139.122 197.078 138.641C196.797 138.151 196.657 137.594 196.657 136.969C196.657 136.472 196.737 136.019 196.897 135.61C197.058 135.201 197.278 134.848 197.559 134.551C197.847 134.246 198.188 134.014 198.581 133.854C198.982 133.685 199.419 133.601 199.892 133.601C200.309 133.601 200.698 133.681 201.059 133.841C201.42 134.002 201.732 134.222 201.997 134.503C202.262 134.776 202.462 135.104 202.598 135.489C202.743 135.866 202.811 136.279 202.803 136.728L202.791 137.245H197.655L197.378 136.235H201.552L201.36 136.44V136.175C201.335 135.926 201.255 135.71 201.119 135.525C200.983 135.333 200.806 135.185 200.59 135.08C200.381 134.968 200.149 134.912 199.892 134.912C199.499 134.912 199.166 134.988 198.894 135.141C198.629 135.293 198.429 135.513 198.292 135.802C198.156 136.083 198.088 136.436 198.088 136.86C198.088 137.269 198.172 137.626 198.341 137.931C198.517 138.236 198.761 138.472 199.074 138.641C199.395 138.801 199.768 138.881 200.193 138.881C200.49 138.881 200.762 138.833 201.011 138.737C201.259 138.641 201.528 138.468 201.817 138.22L202.55 139.242C202.334 139.442 202.085 139.615 201.805 139.759C201.532 139.896 201.243 140.004 200.939 140.084C200.634 140.164 200.333 140.204 200.036 140.204ZM206.663 140.204C206.102 140.204 205.597 140.064 205.148 139.783C204.707 139.495 204.354 139.106 204.089 138.617C203.833 138.119 203.704 137.55 203.704 136.909C203.704 136.275 203.833 135.71 204.089 135.213C204.346 134.716 204.695 134.327 205.136 134.046C205.585 133.757 206.09 133.613 206.651 133.613C206.956 133.613 207.248 133.661 207.529 133.757C207.818 133.854 208.074 133.986 208.299 134.154C208.523 134.315 208.7 134.495 208.828 134.695C208.964 134.896 209.041 135.104 209.057 135.321L208.66 135.369V131.183H210.139V140.084H208.708L208.672 138.593L208.96 138.617C208.952 138.817 208.88 139.009 208.744 139.194C208.616 139.378 208.447 139.547 208.239 139.699C208.03 139.851 207.786 139.976 207.505 140.072C207.232 140.16 206.952 140.204 206.663 140.204ZM206.952 138.953C207.297 138.953 207.601 138.865 207.866 138.689C208.131 138.512 208.335 138.272 208.479 137.967C208.632 137.662 208.708 137.31 208.708 136.909C208.708 136.516 208.632 136.167 208.479 135.862C208.335 135.549 208.131 135.309 207.866 135.141C207.601 134.964 207.297 134.876 206.952 134.876C206.607 134.876 206.302 134.964 206.038 135.141C205.773 135.309 205.565 135.549 205.412 135.862C205.268 136.167 205.196 136.516 205.196 136.909C205.196 137.31 205.268 137.662 205.412 137.967C205.565 138.272 205.773 138.512 206.038 138.689C206.302 138.865 206.607 138.953 206.952 138.953Z" fill="#4662F4"/>
<path d="M232.451 140.084V133.108H230.045V131.664H236.492V133.108H234.015V140.084H232.451ZM237.762 140.084V131.183H239.229V135.044L238.952 135.189C239.033 134.9 239.189 134.639 239.421 134.407C239.654 134.166 239.931 133.974 240.251 133.829C240.572 133.685 240.901 133.613 241.238 133.613C241.719 133.613 242.12 133.709 242.44 133.902C242.769 134.094 243.014 134.383 243.174 134.768C243.343 135.153 243.427 135.634 243.427 136.211V140.084H241.947V136.319C241.947 135.998 241.903 135.734 241.815 135.525C241.727 135.309 241.59 135.153 241.406 135.056C241.222 134.952 240.997 134.904 240.732 134.912C240.516 134.912 240.316 134.948 240.131 135.02C239.955 135.084 239.798 135.181 239.662 135.309C239.534 135.429 239.429 135.569 239.349 135.73C239.277 135.89 239.241 136.067 239.241 136.259V140.084H238.507C238.363 140.084 238.227 140.084 238.098 140.084C237.978 140.084 237.866 140.084 237.762 140.084ZM247.292 140.204C246.835 140.204 246.438 140.104 246.101 139.904C245.765 139.695 245.508 139.402 245.332 139.026C245.155 138.641 245.067 138.184 245.067 137.654V133.745H246.546V137.342C246.546 137.678 246.599 137.967 246.703 138.208C246.807 138.44 246.959 138.621 247.16 138.749C247.36 138.877 247.601 138.941 247.882 138.941C248.09 138.941 248.279 138.909 248.447 138.845C248.623 138.773 248.776 138.677 248.904 138.556C249.032 138.428 249.133 138.28 249.205 138.111C249.277 137.935 249.313 137.747 249.313 137.546V133.745H250.792V140.084H249.349L249.325 138.761L249.59 138.617C249.493 138.921 249.329 139.194 249.096 139.434C248.872 139.667 248.603 139.855 248.291 140C247.978 140.136 247.645 140.204 247.292 140.204Z" fill="#3B3B3B"/>
<path d="M280.095 140.084V131.664H281.658V140.084H280.095ZM280.816 136.632V135.213H285.158V136.632H280.816ZM280.816 133.108V131.664H285.676V133.108H280.816ZM287.042 140.084V133.745H288.498L288.522 135.766L288.317 135.309C288.405 134.988 288.558 134.699 288.774 134.443C288.991 134.186 289.239 133.986 289.52 133.841C289.809 133.689 290.109 133.613 290.422 133.613C290.558 133.613 290.687 133.625 290.807 133.649C290.935 133.673 291.039 133.701 291.12 133.733L290.723 135.357C290.634 135.309 290.526 135.269 290.398 135.237C290.27 135.205 290.141 135.189 290.013 135.189C289.813 135.189 289.62 135.229 289.436 135.309C289.259 135.381 289.103 135.485 288.967 135.622C288.83 135.758 288.722 135.918 288.642 136.103C288.57 136.279 288.534 136.48 288.534 136.704V140.084H287.042ZM292.273 140.084V133.745H293.753V140.084H292.273ZM292.995 132.398C292.698 132.398 292.466 132.326 292.297 132.182C292.137 132.029 292.057 131.817 292.057 131.544C292.057 131.288 292.141 131.079 292.309 130.919C292.478 130.758 292.706 130.678 292.995 130.678C293.299 130.678 293.532 130.754 293.692 130.907C293.861 131.051 293.945 131.263 293.945 131.544C293.945 131.793 293.861 131.997 293.692 132.158C293.524 132.318 293.291 132.398 292.995 132.398Z" fill="#3B3B3B"/>
<path d="M325.998 140.204C325.509 140.204 325.06 140.144 324.651 140.024C324.242 139.896 323.873 139.707 323.545 139.459C323.216 139.21 322.923 138.909 322.667 138.556L323.689 137.402C324.082 137.947 324.467 138.324 324.844 138.532C325.221 138.741 325.646 138.845 326.119 138.845C326.391 138.845 326.64 138.805 326.864 138.725C327.089 138.637 327.265 138.52 327.394 138.376C327.522 138.224 327.586 138.051 327.586 137.859C327.586 137.722 327.558 137.598 327.502 137.486C327.454 137.366 327.378 137.261 327.273 137.173C327.169 137.077 327.041 136.989 326.888 136.909C326.736 136.828 326.564 136.76 326.371 136.704C326.179 136.648 325.966 136.596 325.734 136.548C325.293 136.46 324.908 136.343 324.579 136.199C324.25 136.047 323.974 135.862 323.749 135.646C323.525 135.421 323.36 135.173 323.256 134.9C323.152 134.619 323.1 134.303 323.1 133.95C323.1 133.597 323.176 133.272 323.328 132.975C323.489 132.679 323.705 132.422 323.978 132.206C324.25 131.989 324.567 131.821 324.928 131.701C325.289 131.58 325.678 131.52 326.095 131.52C326.568 131.52 326.989 131.576 327.358 131.688C327.734 131.801 328.063 131.969 328.344 132.194C328.632 132.41 328.869 132.675 329.053 132.987L328.019 134.01C327.859 133.761 327.678 133.557 327.478 133.396C327.277 133.228 327.061 133.104 326.828 133.024C326.596 132.935 326.351 132.891 326.095 132.891C325.806 132.891 325.553 132.931 325.337 133.012C325.128 133.092 324.964 133.208 324.844 133.36C324.723 133.505 324.663 133.681 324.663 133.89C324.663 134.05 324.699 134.194 324.772 134.323C324.844 134.443 324.944 134.551 325.072 134.647C325.209 134.744 325.381 134.828 325.589 134.9C325.798 134.972 326.034 135.036 326.299 135.092C326.74 135.181 327.137 135.301 327.49 135.453C327.843 135.598 328.143 135.774 328.392 135.982C328.641 136.183 328.829 136.415 328.957 136.68C329.086 136.937 329.15 137.225 329.15 137.546C329.15 138.099 329.017 138.576 328.753 138.977C328.496 139.37 328.131 139.675 327.658 139.892C327.185 140.1 326.632 140.204 325.998 140.204ZM332.998 140.204C332.477 140.204 332.004 140.06 331.579 139.771C331.154 139.483 330.813 139.09 330.556 138.593C330.3 138.095 330.172 137.53 330.172 136.897C330.172 136.263 330.3 135.698 330.556 135.201C330.813 134.703 331.162 134.315 331.603 134.034C332.044 133.753 332.541 133.613 333.094 133.613C333.415 133.613 333.708 133.661 333.972 133.757C334.237 133.845 334.469 133.974 334.67 134.142C334.87 134.311 335.035 134.503 335.163 134.72C335.299 134.936 335.392 135.169 335.44 135.417L335.115 135.333V133.745H336.606V140.084H335.103V138.568L335.452 138.508C335.396 138.725 335.291 138.937 335.139 139.146C334.995 139.346 334.81 139.527 334.586 139.687C334.369 139.839 334.125 139.964 333.852 140.06C333.587 140.156 333.303 140.204 332.998 140.204ZM333.407 138.893C333.752 138.893 334.057 138.809 334.321 138.641C334.586 138.472 334.79 138.24 334.935 137.943C335.087 137.638 335.163 137.289 335.163 136.897C335.163 136.512 335.087 136.171 334.935 135.874C334.79 135.578 334.586 135.345 334.321 135.177C334.057 135.008 333.752 134.924 333.407 134.924C333.062 134.924 332.758 135.008 332.493 135.177C332.236 135.345 332.036 135.578 331.892 135.874C331.747 136.171 331.675 136.512 331.675 136.897C331.675 137.289 331.747 137.638 331.892 137.943C332.036 138.24 332.236 138.472 332.493 138.641C332.758 138.809 333.062 138.893 333.407 138.893ZM339.007 140.084V132.134H340.487V140.084H339.007ZM337.756 135.116V133.745H341.87V135.116H337.756Z" fill="#3B3B3B"/>
<path d="M368.81 140.204C368.321 140.204 367.872 140.144 367.463 140.024C367.054 139.896 366.685 139.707 366.356 139.459C366.028 139.21 365.735 138.909 365.478 138.556L366.501 137.402C366.894 137.947 367.279 138.324 367.655 138.532C368.032 138.741 368.457 138.845 368.93 138.845C369.203 138.845 369.452 138.805 369.676 138.725C369.901 138.637 370.077 138.52 370.205 138.376C370.334 138.224 370.398 138.051 370.398 137.859C370.398 137.722 370.37 137.598 370.314 137.486C370.265 137.366 370.189 137.261 370.085 137.173C369.981 137.077 369.852 136.989 369.7 136.909C369.548 136.828 369.375 136.76 369.183 136.704C368.99 136.648 368.778 136.596 368.545 136.548C368.104 136.46 367.72 136.343 367.391 136.199C367.062 136.047 366.785 135.862 366.561 135.646C366.336 135.421 366.172 135.173 366.068 134.9C365.963 134.619 365.911 134.303 365.911 133.95C365.911 133.597 365.988 133.272 366.14 132.975C366.3 132.679 366.517 132.422 366.789 132.206C367.062 131.989 367.379 131.821 367.74 131.701C368.1 131.58 368.489 131.52 368.906 131.52C369.379 131.52 369.8 131.576 370.169 131.688C370.546 131.801 370.875 131.969 371.156 132.194C371.444 132.41 371.681 132.675 371.865 132.987L370.831 134.01C370.67 133.761 370.49 133.557 370.29 133.396C370.089 133.228 369.873 133.104 369.64 133.024C369.407 132.935 369.163 132.891 368.906 132.891C368.618 132.891 368.365 132.931 368.149 133.012C367.94 133.092 367.776 133.208 367.655 133.36C367.535 133.505 367.475 133.681 367.475 133.89C367.475 134.05 367.511 134.194 367.583 134.323C367.655 134.443 367.756 134.551 367.884 134.647C368.02 134.744 368.193 134.828 368.401 134.9C368.61 134.972 368.846 135.036 369.111 135.092C369.552 135.181 369.949 135.301 370.302 135.453C370.654 135.598 370.955 135.774 371.204 135.982C371.452 136.183 371.641 136.415 371.769 136.68C371.897 136.937 371.961 137.225 371.961 137.546C371.961 138.099 371.829 138.576 371.564 138.977C371.308 139.37 370.943 139.675 370.47 139.892C369.997 140.1 369.444 140.204 368.81 140.204ZM375.617 140.204C375.16 140.204 374.763 140.104 374.427 139.904C374.09 139.695 373.833 139.402 373.657 139.026C373.48 138.641 373.392 138.184 373.392 137.654V133.745H374.872V137.342C374.872 137.678 374.924 137.967 375.028 138.208C375.132 138.44 375.285 138.621 375.485 138.749C375.685 138.877 375.926 138.941 376.207 138.941C376.415 138.941 376.604 138.909 376.772 138.845C376.948 138.773 377.101 138.677 377.229 138.556C377.357 138.428 377.458 138.28 377.53 138.111C377.602 137.935 377.638 137.747 377.638 137.546V133.745H379.117V140.084H377.674L377.65 138.761L377.915 138.617C377.818 138.921 377.654 139.194 377.422 139.434C377.197 139.667 376.928 139.855 376.616 140C376.303 140.136 375.97 140.204 375.617 140.204ZM380.851 140.084V133.745H382.295L382.319 135.044L382.042 135.189C382.122 134.9 382.279 134.639 382.511 134.407C382.744 134.166 383.02 133.974 383.341 133.829C383.662 133.685 383.991 133.613 384.328 133.613C384.809 133.613 385.21 133.709 385.53 133.902C385.859 134.094 386.104 134.383 386.264 134.768C386.432 135.153 386.517 135.634 386.517 136.211V140.084H385.037V136.319C385.037 135.998 384.993 135.734 384.905 135.525C384.817 135.309 384.68 135.153 384.496 135.056C384.311 134.952 384.087 134.904 383.822 134.912C383.606 134.912 383.405 134.948 383.221 135.02C383.045 135.084 382.888 135.181 382.752 135.309C382.624 135.429 382.519 135.569 382.439 135.73C382.367 135.89 382.331 136.067 382.331 136.259V140.084H381.597C381.453 140.084 381.317 140.084 381.188 140.084C381.068 140.084 380.956 140.084 380.851 140.084Z" fill="#3B3B3B"/>
<path d="M149.448 162.536L149.051 161.55L151.577 158.723C151.721 158.579 151.87 158.415 152.022 158.23C152.174 158.038 152.319 157.841 152.455 157.641C152.599 157.432 152.716 157.232 152.804 157.039C152.892 156.839 152.936 156.654 152.936 156.486C152.936 156.27 152.888 156.081 152.792 155.921C152.704 155.76 152.575 155.636 152.407 155.548C152.239 155.46 152.03 155.416 151.781 155.416C151.565 155.416 151.352 155.48 151.144 155.608C150.944 155.728 150.755 155.905 150.579 156.137C150.41 156.362 150.27 156.63 150.158 156.943L148.979 156.246C149.123 155.78 149.34 155.38 149.628 155.043C149.925 154.698 150.27 154.433 150.663 154.249C151.064 154.064 151.497 153.972 151.962 153.972C152.443 153.972 152.872 154.072 153.249 154.273C153.626 154.473 153.922 154.75 154.139 155.103C154.363 155.456 154.476 155.869 154.476 156.342C154.476 156.518 154.456 156.703 154.416 156.895C154.375 157.079 154.311 157.276 154.223 157.484C154.143 157.685 154.035 157.897 153.898 158.122C153.762 158.338 153.598 158.567 153.405 158.807C153.221 159.048 153.008 159.301 152.768 159.565L150.855 161.646L150.615 161.093H154.776V162.536H149.448Z" fill="#2C2C2C"/>
<path d="M196.536 162.656C195.91 162.656 195.365 162.52 194.9 162.247C194.435 161.967 194.006 161.494 193.613 160.828L194.792 160.082C194.976 160.379 195.165 160.62 195.357 160.804C195.558 160.981 195.758 161.113 195.958 161.201C196.167 161.281 196.387 161.321 196.62 161.321C196.885 161.321 197.125 161.257 197.342 161.129C197.566 161.001 197.743 160.824 197.871 160.6C198.007 160.375 198.075 160.119 198.075 159.83C198.075 159.541 198.019 159.297 197.907 159.096C197.803 158.896 197.646 158.743 197.438 158.639C197.237 158.527 196.993 158.471 196.704 158.471C196.576 158.471 196.44 158.487 196.295 158.519C196.151 158.543 195.999 158.583 195.838 158.639C195.678 158.687 195.501 158.747 195.309 158.819L194.924 157.797L197.318 155.151L197.678 155.5L194.13 155.476V154.093H199.074L199.362 154.67L196.596 157.689L196.235 157.292C196.299 157.26 196.404 157.232 196.548 157.208C196.7 157.176 196.833 157.16 196.945 157.16C197.298 157.16 197.634 157.228 197.955 157.364C198.276 157.492 198.553 157.677 198.785 157.917C199.026 158.158 199.214 158.439 199.35 158.759C199.487 159.072 199.555 159.413 199.555 159.782C199.555 160.335 199.419 160.828 199.146 161.261C198.881 161.686 198.52 162.027 198.063 162.284C197.606 162.532 197.097 162.656 196.536 162.656Z" fill="#2C2C2C"/>
<path d="M241.58 162.536V155.74L242.157 155.8L239.294 159.301L239.162 159.084H244.514V160.443H238.32L237.671 159.192L241.856 154.093H243.083V162.536H241.58Z" fill="#2C2C2C"/>
<path d="M286.204 162.62C285.619 162.62 285.089 162.496 284.616 162.247C284.143 161.991 283.75 161.622 283.438 161.141L284.304 160.203C284.656 160.596 284.973 160.868 285.254 161.021C285.534 161.165 285.843 161.237 286.18 161.237C286.485 161.237 286.757 161.173 286.998 161.045C287.238 160.908 287.431 160.728 287.575 160.503C287.72 160.271 287.792 160.018 287.792 159.746C287.792 159.449 287.724 159.188 287.587 158.964C287.451 158.731 287.267 158.547 287.034 158.411C286.801 158.274 286.537 158.206 286.24 158.206C286.08 158.206 285.927 158.218 285.783 158.242C285.639 158.266 285.47 158.314 285.278 158.386C285.093 158.459 284.857 158.571 284.568 158.723L283.823 157.713L284.316 154.093H288.97V155.476H285.194L285.542 155.091L285.146 157.761L284.701 157.448C284.805 157.352 284.957 157.26 285.158 157.172C285.366 157.083 285.591 157.011 285.831 156.955C286.072 156.899 286.308 156.871 286.541 156.871C287.062 156.871 287.527 156.991 287.936 157.232C288.345 157.472 288.67 157.805 288.91 158.23C289.151 158.647 289.271 159.128 289.271 159.673C289.271 160.227 289.135 160.728 288.862 161.177C288.598 161.618 288.233 161.971 287.768 162.235C287.303 162.492 286.781 162.62 286.204 162.62Z" fill="#2C2C2C"/>
<path d="M331.437 162.536C331.012 162.536 330.615 162.46 330.247 162.308C329.886 162.155 329.569 161.947 329.296 161.682C329.032 161.41 328.823 161.093 328.671 160.732C328.518 160.371 328.442 159.974 328.442 159.541C328.442 159.301 328.47 159.044 328.527 158.771C328.591 158.499 328.683 158.21 328.803 157.905C328.931 157.593 329.08 157.268 329.248 156.931C329.417 156.594 329.613 156.242 329.838 155.873L330.956 153.972H332.448L332.496 154.093L331.064 156.45C330.832 156.835 330.627 157.2 330.451 157.545C330.275 157.881 330.122 158.206 329.994 158.519C329.874 158.824 329.773 159.12 329.693 159.409L329.368 158.314C329.489 158.058 329.637 157.825 329.813 157.617C329.99 157.408 330.186 157.232 330.403 157.087C330.619 156.943 330.844 156.835 331.076 156.763C331.317 156.691 331.562 156.654 331.81 156.654C332.275 156.654 332.704 156.783 333.097 157.039C333.49 157.288 333.803 157.621 334.035 158.038C334.276 158.455 334.396 158.912 334.396 159.409C334.396 160.01 334.268 160.548 334.011 161.021C333.763 161.486 333.414 161.855 332.965 162.127C332.516 162.4 332.007 162.536 331.437 162.536ZM331.449 161.165C331.738 161.165 331.995 161.097 332.219 160.96C332.452 160.824 332.632 160.636 332.76 160.395C332.889 160.147 332.953 159.862 332.953 159.541C332.953 159.269 332.885 159.016 332.748 158.783C332.62 158.543 332.444 158.35 332.219 158.206C331.995 158.054 331.742 157.978 331.461 157.978C331.157 157.978 330.884 158.05 330.643 158.194C330.411 158.33 330.226 158.519 330.09 158.759C329.962 158.992 329.898 159.253 329.898 159.541C329.898 159.846 329.962 160.123 330.09 160.371C330.226 160.612 330.411 160.804 330.643 160.948C330.876 161.093 331.145 161.165 331.449 161.165Z" fill="#2C2C2C"/>
<path d="M374.234 162.536L377.686 154.91L377.975 155.5H373.669V154.093H378.973L379.153 154.971L375.858 162.536H374.234Z" fill="#2C2C2C"/>
<path d="M291.455 108.437L288.642 105.63C288.548 105.529 288.497 105.396 288.5 105.258C288.503 105.121 288.559 104.989 288.656 104.892C288.754 104.795 288.885 104.739 289.023 104.737C289.16 104.735 289.293 104.786 289.394 104.879L292.581 108.064C292.677 108.16 292.732 108.29 292.735 108.427C292.738 108.563 292.688 108.695 292.596 108.796L289.396 112.003C289.295 112.097 289.162 112.148 289.024 112.146C288.886 112.143 288.755 112.088 288.658 111.991C288.56 111.893 288.504 111.762 288.502 111.624C288.499 111.487 288.55 111.354 288.643 111.253L291.455 108.437Z" fill="#2C2C2C"/>
<path d="M191.699 108.437L194.511 105.63C194.611 105.53 194.666 105.395 194.666 105.254C194.666 105.113 194.61 104.978 194.51 104.879C194.41 104.78 194.275 104.724 194.134 104.724C193.993 104.724 193.858 104.781 193.759 104.88L190.572 108.064C190.476 108.161 190.421 108.291 190.418 108.427C190.415 108.564 190.465 108.696 190.557 108.797L193.757 112.004C193.856 112.104 193.991 112.16 194.132 112.16C194.273 112.16 194.408 112.105 194.508 112.005C194.607 111.906 194.663 111.771 194.664 111.63C194.664 111.489 194.608 111.354 194.509 111.254L191.699 108.437Z" fill="#2C2C2C"/>
<rect x="83" y="340" width="315" height="66" rx="9" fill="white"/>
<path d="M149.176 369V360.6H152.68C153.216 360.6 153.668 360.68 154.036 360.84C154.404 361 154.68 361.24 154.864 361.56C155.056 361.872 155.152 362.256 155.152 362.712C155.152 363.168 155.024 363.556 154.768 363.876C154.52 364.196 154.172 364.416 153.724 364.536V364.296C154.1 364.376 154.428 364.52 154.708 364.728C154.988 364.928 155.204 365.18 155.356 365.484C155.516 365.788 155.596 366.136 155.596 366.528C155.596 366.928 155.532 367.284 155.404 367.596C155.284 367.9 155.1 368.156 154.852 368.364C154.612 368.572 154.32 368.732 153.976 368.844C153.632 368.948 153.24 369 152.8 369H149.176ZM150.472 367.752H152.728C153.056 367.752 153.332 367.704 153.556 367.608C153.788 367.512 153.964 367.372 154.084 367.188C154.212 366.996 154.276 366.768 154.276 366.504C154.276 366.256 154.208 366.044 154.072 365.868C153.944 365.692 153.76 365.56 153.52 365.472C153.28 365.376 152.996 365.328 152.668 365.328H150.472V367.752ZM150.472 364.08H152.608C152.848 364.08 153.06 364.032 153.244 363.936C153.436 363.84 153.584 363.708 153.688 363.54C153.8 363.372 153.856 363.18 153.856 362.964C153.856 362.604 153.736 362.328 153.496 362.136C153.256 361.944 152.912 361.848 152.464 361.848H150.472V364.08ZM159.24 369.12C158.792 369.12 158.4 369.016 158.064 368.808C157.736 368.6 157.48 368.308 157.296 367.932C157.12 367.556 157.032 367.108 157.032 366.588V362.7H158.268V366.252C158.268 366.62 158.324 366.94 158.436 367.212C158.556 367.476 158.724 367.68 158.94 367.824C159.164 367.968 159.432 368.04 159.744 368.04C159.976 368.04 160.188 368.004 160.38 367.932C160.572 367.852 160.736 367.744 160.872 367.608C161.016 367.472 161.128 367.308 161.208 367.116C161.288 366.924 161.328 366.716 161.328 366.492V362.7H162.564V369H161.328V367.68L161.544 367.536C161.448 367.832 161.284 368.1 161.052 368.34C160.828 368.58 160.56 368.772 160.248 368.916C159.936 369.052 159.6 369.12 159.24 369.12ZM164.502 369V362.7H165.738V369H164.502ZM165.102 361.308C164.838 361.308 164.634 361.24 164.49 361.104C164.346 360.968 164.274 360.776 164.274 360.528C164.274 360.296 164.346 360.108 164.49 359.964C164.642 359.82 164.846 359.748 165.102 359.748C165.366 359.748 165.57 359.816 165.714 359.952C165.858 360.088 165.93 360.28 165.93 360.528C165.93 360.76 165.854 360.948 165.702 361.092C165.558 361.236 165.358 361.308 165.102 361.308ZM167.661 369V360.12H168.897V369H167.661ZM173.16 369.12C172.584 369.12 172.068 368.98 171.612 368.7C171.164 368.412 170.808 368.024 170.544 367.536C170.28 367.04 170.148 366.476 170.148 365.844C170.148 365.212 170.276 364.652 170.532 364.164C170.796 363.668 171.152 363.28 171.6 363C172.048 362.712 172.556 362.568 173.124 362.568C173.436 362.568 173.736 362.62 174.024 362.724C174.32 362.82 174.584 362.956 174.816 363.132C175.048 363.3 175.228 363.488 175.356 363.696C175.492 363.896 175.56 364.1 175.56 364.308L175.2 364.332V360.12H176.436V369H175.2V367.5H175.44C175.44 367.692 175.376 367.884 175.248 368.076C175.12 368.26 174.948 368.432 174.732 368.592C174.524 368.752 174.28 368.88 174 368.976C173.728 369.072 173.448 369.12 173.16 369.12ZM173.328 368.052C173.704 368.052 174.036 367.956 174.324 367.764C174.612 367.572 174.836 367.312 174.996 366.984C175.164 366.648 175.248 366.268 175.248 365.844C175.248 365.42 175.164 365.044 174.996 364.716C174.836 364.38 174.612 364.116 174.324 363.924C174.036 363.732 173.704 363.636 173.328 363.636C172.952 363.636 172.62 363.732 172.332 363.924C172.044 364.116 171.816 364.38 171.648 364.716C171.488 365.044 171.408 365.42 171.408 365.844C171.408 366.268 171.488 366.648 171.648 366.984C171.816 367.312 172.044 367.572 172.332 367.764C172.62 367.956 172.952 368.052 173.328 368.052ZM178.341 369V362.7H179.577V369H178.341ZM178.941 361.308C178.677 361.308 178.473 361.24 178.329 361.104C178.185 360.968 178.113 360.776 178.113 360.528C178.113 360.296 178.185 360.108 178.329 359.964C178.481 359.82 178.685 359.748 178.941 359.748C179.205 359.748 179.409 359.816 179.553 359.952C179.697 360.088 179.769 360.28 179.769 360.528C179.769 360.76 179.693 360.948 179.541 361.092C179.397 361.236 179.197 361.308 178.941 361.308ZM181.477 369V362.7H182.713V363.996L182.497 364.14C182.577 363.86 182.733 363.604 182.965 363.372C183.197 363.132 183.473 362.94 183.793 362.796C184.113 362.644 184.441 362.568 184.777 362.568C185.257 362.568 185.657 362.664 185.977 362.856C186.297 363.04 186.537 363.324 186.697 363.708C186.857 364.092 186.937 364.576 186.937 365.16V369H185.701V365.244C185.701 364.884 185.653 364.588 185.557 364.356C185.461 364.116 185.313 363.944 185.113 363.84C184.913 363.728 184.665 363.68 184.369 363.696C184.129 363.696 183.909 363.736 183.709 363.816C183.509 363.888 183.333 363.992 183.181 364.128C183.037 364.264 182.921 364.424 182.833 364.608C182.753 364.784 182.713 364.976 182.713 365.184V369H182.101C181.997 369 181.893 369 181.789 369C181.685 369 181.581 369 181.477 369ZM191.434 371.76C190.986 371.76 190.538 371.688 190.09 371.544C189.65 371.408 189.294 371.228 189.022 371.004L189.478 370.044C189.638 370.164 189.826 370.268 190.042 370.356C190.258 370.452 190.486 370.524 190.726 370.572C190.966 370.628 191.202 370.656 191.434 370.656C191.874 370.656 192.242 370.584 192.538 370.44C192.834 370.296 193.058 370.084 193.21 369.804C193.362 369.524 193.438 369.176 193.438 368.76V367.548L193.57 367.632C193.53 367.88 193.398 368.12 193.174 368.352C192.958 368.576 192.686 368.76 192.358 368.904C192.03 369.048 191.694 369.12 191.35 369.12C190.75 369.12 190.214 368.98 189.742 368.7C189.278 368.412 188.91 368.024 188.638 367.536C188.366 367.04 188.23 366.476 188.23 365.844C188.23 365.212 188.362 364.652 188.626 364.164C188.898 363.668 189.266 363.28 189.73 363C190.202 362.712 190.73 362.568 191.314 362.568C191.554 362.568 191.786 362.6 192.01 362.664C192.234 362.72 192.442 362.804 192.634 362.916C192.826 363.02 192.998 363.136 193.15 363.264C193.302 363.392 193.426 363.528 193.522 363.672C193.618 363.816 193.678 363.952 193.702 364.08L193.438 364.176V362.7H194.674V368.616C194.674 369.12 194.598 369.564 194.446 369.948C194.302 370.34 194.09 370.668 193.81 370.932C193.53 371.204 193.19 371.408 192.79 371.544C192.39 371.688 191.938 371.76 191.434 371.76ZM191.482 367.98C191.874 367.98 192.222 367.888 192.526 367.704C192.83 367.52 193.066 367.268 193.234 366.948C193.402 366.628 193.486 366.26 193.486 365.844C193.486 365.428 193.398 365.06 193.222 364.74C193.054 364.412 192.818 364.156 192.514 363.972C192.218 363.788 191.874 363.696 191.482 363.696C191.098 363.696 190.754 363.792 190.45 363.984C190.154 364.168 189.918 364.424 189.742 364.752C189.574 365.072 189.49 365.436 189.49 365.844C189.49 366.252 189.574 366.62 189.742 366.948C189.918 367.268 190.154 367.52 190.45 367.704C190.754 367.888 191.098 367.98 191.482 367.98ZM201.51 368.412V361.596L201.954 361.932L200.298 362.808L199.95 361.68L202.194 360.48H202.818V368.412H201.51ZM200.178 369V367.752H204.186V369H200.178ZM205.962 371.148L205.506 370.596C205.786 370.436 206.014 370.252 206.19 370.044C206.366 369.836 206.454 369.656 206.454 369.504C206.454 369.424 206.434 369.344 206.394 369.264C206.354 369.192 206.27 369.088 206.142 368.952C205.982 368.8 205.878 368.672 205.83 368.568C205.782 368.464 205.758 368.352 205.758 368.232C205.758 368.04 205.826 367.888 205.962 367.776C206.098 367.656 206.274 367.596 206.49 367.596C206.69 367.596 206.87 367.656 207.03 367.776C207.198 367.888 207.326 368.048 207.414 368.256C207.51 368.456 207.558 368.688 207.558 368.952C207.558 369.192 207.518 369.424 207.438 369.648C207.358 369.872 207.246 370.08 207.102 370.272C206.958 370.464 206.79 370.636 206.598 370.788C206.406 370.94 206.194 371.06 205.962 371.148ZM215.909 369.072C215.261 369.072 214.681 368.932 214.169 368.652C213.657 368.364 213.253 367.972 212.957 367.476C212.669 366.972 212.525 366.404 212.525 365.772V360.588H213.821V365.664C213.821 366.072 213.917 366.44 214.109 366.768C214.301 367.088 214.553 367.344 214.865 367.536C215.185 367.728 215.533 367.824 215.909 367.824C216.309 367.824 216.669 367.728 216.989 367.536C217.317 367.344 217.577 367.088 217.769 366.768C217.961 366.44 218.057 366.072 218.057 365.664V360.588H219.293V365.772C219.293 366.404 219.145 366.972 218.849 367.476C218.561 367.972 218.161 368.364 217.649 368.652C217.137 368.932 216.557 369.072 215.909 369.072ZM221.216 369V362.7H222.452V363.996L222.236 364.14C222.316 363.86 222.472 363.604 222.704 363.372C222.936 363.132 223.212 362.94 223.532 362.796C223.852 362.644 224.18 362.568 224.516 362.568C224.996 362.568 225.396 362.664 225.716 362.856C226.036 363.04 226.276 363.324 226.436 363.708C226.596 364.092 226.676 364.576 226.676 365.16V369H225.44V365.244C225.44 364.884 225.392 364.588 225.296 364.356C225.2 364.116 225.052 363.944 224.852 363.84C224.652 363.728 224.404 363.68 224.108 363.696C223.868 363.696 223.648 363.736 223.448 363.816C223.248 363.888 223.072 363.992 222.92 364.128C222.776 364.264 222.66 364.424 222.572 364.608C222.492 364.784 222.452 364.976 222.452 365.184V369H221.84C221.736 369 221.632 369 221.528 369C221.424 369 221.32 369 221.216 369ZM228.556 369V362.7H229.792V369H228.556ZM229.156 361.308C228.892 361.308 228.688 361.24 228.544 361.104C228.4 360.968 228.328 360.776 228.328 360.528C228.328 360.296 228.4 360.108 228.544 359.964C228.696 359.82 228.9 359.748 229.156 359.748C229.42 359.748 229.624 359.816 229.768 359.952C229.912 360.088 229.984 360.28 229.984 360.528C229.984 360.76 229.908 360.948 229.756 361.092C229.612 361.236 229.412 361.308 229.156 361.308ZM232.472 369V361.092H233.708V369H232.472ZM231.164 363.9V362.7H235.172V363.9H231.164ZM241.401 368.412V361.596L241.845 361.932L240.189 362.808L239.841 361.68L242.085 360.48H242.709V368.412H241.401ZM240.069 369V367.752H244.077V369H240.069ZM245.913 369L245.517 368.016L248.085 365.124C248.221 364.98 248.361 364.816 248.505 364.632C248.657 364.44 248.801 364.244 248.937 364.044C249.073 363.844 249.181 363.648 249.261 363.456C249.349 363.256 249.393 363.068 249.393 362.892C249.393 362.636 249.341 362.42 249.237 362.244C249.141 362.06 248.997 361.92 248.805 361.824C248.621 361.728 248.397 361.68 248.133 361.68C247.901 361.68 247.673 361.748 247.449 361.884C247.225 362.02 247.021 362.212 246.837 362.46C246.653 362.708 246.509 362.996 246.405 363.324L245.409 362.7C245.545 362.236 245.749 361.84 246.021 361.512C246.301 361.176 246.633 360.92 247.017 360.744C247.409 360.568 247.833 360.48 248.289 360.48C248.761 360.48 249.181 360.58 249.549 360.78C249.917 360.972 250.205 361.244 250.413 361.596C250.621 361.94 250.725 362.34 250.725 362.796C250.725 362.98 250.705 363.168 250.665 363.36C250.625 363.552 250.561 363.752 250.473 363.96C250.385 364.16 250.273 364.372 250.137 364.596C250.001 364.812 249.837 365.04 249.645 365.28C249.461 365.52 249.249 365.772 249.009 366.036L247.101 368.112L246.861 367.752H250.989V369H245.913ZM254.383 369.12C253.791 369.12 253.275 368.984 252.835 368.712C252.403 368.44 251.995 367.984 251.611 367.344L252.619 366.708C252.819 367.004 253.015 367.248 253.207 367.44C253.407 367.624 253.611 367.76 253.819 367.848C254.027 367.936 254.247 367.98 254.479 367.98C254.759 367.98 255.019 367.912 255.259 367.776C255.499 367.632 255.691 367.436 255.835 367.188C255.979 366.94 256.051 366.66 256.051 366.348C256.051 366.036 255.995 365.772 255.883 365.556C255.771 365.332 255.607 365.164 255.391 365.052C255.175 364.932 254.919 364.872 254.623 364.872C254.487 364.872 254.343 364.888 254.191 364.92C254.047 364.944 253.891 364.984 253.723 365.04C253.555 365.088 253.371 365.152 253.171 365.232L252.811 364.284L255.403 361.428L255.655 361.8H252.079V360.6H256.891L257.131 361.08L254.383 364.128L254.083 363.816C254.147 363.784 254.251 363.756 254.395 363.732C254.547 363.7 254.671 363.684 254.767 363.684C255.119 363.684 255.447 363.752 255.751 363.888C256.063 364.016 256.331 364.2 256.555 364.44C256.787 364.672 256.967 364.948 257.095 365.268C257.231 365.58 257.299 365.916 257.299 366.276C257.299 366.82 257.167 367.308 256.903 367.74C256.647 368.164 256.299 368.5 255.859 368.748C255.419 368.996 254.927 369.12 254.383 369.12Z" fill="black"/>
<path d="M101.472 368.216V359.128L102.064 359.576L99.856 360.744L99.392 359.24L102.384 357.64H103.216V368.216H101.472ZM99.696 369V367.336H105.04V369H99.696ZM110.848 369.16C109.995 369.16 109.259 368.925 108.64 368.456C108.032 367.987 107.563 367.325 107.232 366.472C106.901 365.608 106.736 364.584 106.736 363.4C106.736 362.216 106.901 361.197 107.232 360.344C107.563 359.48 108.032 358.813 108.64 358.344C109.259 357.875 109.995 357.64 110.848 357.64C111.701 357.64 112.437 357.875 113.056 358.344C113.675 358.813 114.149 359.48 114.48 360.344C114.811 361.197 114.976 362.216 114.976 363.4C114.976 364.584 114.811 365.608 114.48 366.472C114.149 367.325 113.675 367.987 113.056 368.456C112.437 368.925 111.701 369.16 110.848 369.16ZM110.848 367.592C111.627 367.592 112.229 367.229 112.656 366.504C113.083 365.768 113.296 364.733 113.296 363.4C113.296 362.067 113.083 361.037 112.656 360.312C112.229 359.576 111.627 359.208 110.848 359.208C110.069 359.208 109.467 359.576 109.04 360.312C108.613 361.037 108.4 362.067 108.4 363.4C108.4 364.733 108.613 365.768 109.04 366.504C109.467 367.229 110.069 367.592 110.848 367.592ZM117.543 369.16C117.191 369.16 116.919 369.059 116.727 368.856C116.535 368.643 116.439 368.344 116.439 367.96C116.439 367.608 116.54 367.32 116.743 367.096C116.945 366.872 117.212 366.76 117.543 366.76C117.895 366.76 118.167 366.867 118.359 367.08C118.551 367.283 118.647 367.576 118.647 367.96C118.647 368.312 118.545 368.6 118.343 368.824C118.14 369.048 117.873 369.16 117.543 369.16ZM117.543 362.84C117.191 362.84 116.919 362.739 116.727 362.536C116.535 362.323 116.439 362.024 116.439 361.64C116.439 361.288 116.54 361 116.743 360.776C116.945 360.552 117.212 360.44 117.543 360.44C117.895 360.44 118.167 360.547 118.359 360.76C118.551 360.963 118.647 361.256 118.647 361.64C118.647 361.992 118.545 362.28 118.343 362.504C118.14 362.728 117.873 362.84 117.543 362.84ZM124.207 369.16C123.354 369.16 122.618 368.925 121.999 368.456C121.391 367.987 120.922 367.325 120.591 366.472C120.261 365.608 120.095 364.584 120.095 363.4C120.095 362.216 120.261 361.197 120.591 360.344C120.922 359.48 121.391 358.813 121.999 358.344C122.618 357.875 123.354 357.64 124.207 357.64C125.061 357.64 125.797 357.875 126.415 358.344C127.034 358.813 127.509 359.48 127.839 360.344C128.17 361.197 128.335 362.216 128.335 363.4C128.335 364.584 128.17 365.608 127.839 366.472C127.509 367.325 127.034 367.987 126.415 368.456C125.797 368.925 125.061 369.16 124.207 369.16ZM124.207 367.592C124.986 367.592 125.589 367.229 126.015 366.504C126.442 365.768 126.655 364.733 126.655 363.4C126.655 362.067 126.442 361.037 126.015 360.312C125.589 359.576 124.986 359.208 124.207 359.208C123.429 359.208 122.826 359.576 122.399 360.312C121.973 361.037 121.759 362.067 121.759 363.4C121.759 364.733 121.973 365.768 122.399 366.504C122.826 367.229 123.429 367.592 124.207 367.592ZM133.926 369.16C133.073 369.16 132.337 368.925 131.718 368.456C131.11 367.987 130.641 367.325 130.31 366.472C129.979 365.608 129.814 364.584 129.814 363.4C129.814 362.216 129.979 361.197 130.31 360.344C130.641 359.48 131.11 358.813 131.718 358.344C132.337 357.875 133.073 357.64 133.926 357.64C134.779 357.64 135.515 357.875 136.134 358.344C136.753 358.813 137.227 359.48 137.558 360.344C137.889 361.197 138.054 362.216 138.054 363.4C138.054 364.584 137.889 365.608 137.558 366.472C137.227 367.325 136.753 367.987 136.134 368.456C135.515 368.925 134.779 369.16 133.926 369.16ZM133.926 367.592C134.705 367.592 135.307 367.229 135.734 366.504C136.161 365.768 136.374 364.733 136.374 363.4C136.374 362.067 136.161 361.037 135.734 360.312C135.307 359.576 134.705 359.208 133.926 359.208C133.147 359.208 132.545 359.576 132.118 360.312C131.691 361.037 131.478 362.067 131.478 363.4C131.478 364.733 131.691 365.768 132.118 366.504C132.545 367.229 133.147 367.592 133.926 367.592ZM102.384 389.16C101.691 389.16 101.056 388.968 100.48 388.584C99.9147 388.2 99.4613 387.677 99.12 387.016C98.7787 386.355 98.608 385.608 98.608 384.776C98.608 383.933 98.7787 383.187 99.12 382.536C99.472 381.875 99.9413 381.357 100.528 380.984C101.125 380.611 101.792 380.424 102.528 380.424C102.965 380.424 103.365 380.488 103.728 380.616C104.091 380.744 104.405 380.925 104.672 381.16C104.949 381.384 105.173 381.645 105.344 381.944C105.525 382.243 105.637 382.563 105.68 382.904L105.312 382.776V380.6H106.976V389H105.312V387L105.696 386.888C105.632 387.176 105.499 387.459 105.296 387.736C105.104 388.003 104.853 388.243 104.544 388.456C104.245 388.669 103.909 388.84 103.536 388.968C103.173 389.096 102.789 389.16 102.384 389.16ZM102.816 387.64C103.317 387.64 103.76 387.517 104.144 387.272C104.528 387.027 104.827 386.691 105.04 386.264C105.264 385.827 105.376 385.331 105.376 384.776C105.376 384.232 105.264 383.747 105.04 383.32C104.827 382.893 104.528 382.557 104.144 382.312C103.76 382.067 103.317 381.944 102.816 381.944C102.325 381.944 101.888 382.067 101.504 382.312C101.131 382.557 100.832 382.893 100.608 383.32C100.395 383.747 100.288 384.232 100.288 384.776C100.288 385.331 100.395 385.827 100.608 386.264C100.832 386.691 101.131 387.027 101.504 387.272C101.888 387.517 102.325 387.64 102.816 387.64ZM109.245 389V380.6H110.909V382.392L110.605 382.584C110.69 382.307 110.824 382.04 111.005 381.784C111.197 381.528 111.426 381.304 111.693 381.112C111.97 380.909 112.264 380.749 112.573 380.632C112.893 380.515 113.218 380.456 113.549 380.456C114.029 380.456 114.45 380.536 114.813 380.696C115.176 380.856 115.474 381.096 115.709 381.416C115.944 381.736 116.114 382.136 116.221 382.616L115.965 382.552L116.077 382.28C116.194 382.035 116.354 381.805 116.557 381.592C116.77 381.368 117.01 381.171 117.277 381C117.544 380.829 117.826 380.696 118.125 380.6C118.424 380.504 118.717 380.456 119.005 380.456C119.634 380.456 120.152 380.584 120.557 380.84C120.973 381.096 121.282 381.485 121.485 382.008C121.698 382.531 121.805 383.181 121.805 383.96V389H120.141V384.056C120.141 383.576 120.077 383.187 119.949 382.888C119.832 382.579 119.65 382.349 119.405 382.2C119.16 382.051 118.845 381.976 118.461 381.976C118.162 381.976 117.88 382.029 117.613 382.136C117.357 382.232 117.133 382.371 116.941 382.552C116.749 382.733 116.6 382.947 116.493 383.192C116.386 383.427 116.333 383.688 116.333 383.976V389H114.669V384.024C114.669 383.587 114.605 383.219 114.477 382.92C114.349 382.611 114.162 382.376 113.917 382.216C113.672 382.056 113.373 381.976 113.021 381.976C112.722 381.976 112.445 382.029 112.189 382.136C111.933 382.232 111.709 382.371 111.517 382.552C111.325 382.723 111.176 382.931 111.069 383.176C110.962 383.411 110.909 383.667 110.909 383.944V389H109.245Z" fill="#F1A04B"/>
<rect x="148" y="382" width="77" height="7" rx="3.5" fill="#E4E6EA"/>
<rect x="308" y="357" width="77" height="7" rx="3.5" fill="#E4E6EA"/>
<rect x="327" y="371" width="58" height="7" rx="3.5" fill="#F4AB5B"/>
<defs>
<filter id="filter0_d_617_5561" x="76.7925" y="88.7925" width="331.972" height="247.262" filterUnits="userSpaceOnUse" color-interpolation-filters="sRGB">
<feFlood flood-opacity="0" result="BackgroundImageFix"/>
<feColorMatrix in="SourceAlpha" type="matrix" values="0 0 0 0 0 0 0 0 0 0 0 0 0 0 0 0 0 0 127 0" result="hardAlpha"/>
<feOffset dx="1.60373" dy="1.60373"/>
<feGaussianBlur stdDeviation="2.40559"/>
<feColorMatrix type="matrix" values="0 0 0 0 0.129412 0 0 0 0 0.176471 0 0 0 0 0.580392 0 0 0 0.2 0"/>
<feBlend mode="normal" in2="BackgroundImageFix" result="effect1_dropShadow_617_5561"/>
<feBlend mode="normal" in="SourceGraphic" in2="effect1_dropShadow_617_5561" result="shape"/>
</filter>
</defs>
</svg>
