<svg width="480" height="540" viewBox="0 0 480 540" fill="none" xmlns="http://www.w3.org/2000/svg">
<g clip-path="url(#clip0_189_671)">
<path d="M85 76H396C405.389 76 413 83.6112 413 93V447C413 456.389 405.389 464 396 464H85C75.6111 464 68 456.389 68 447V93C68 83.6112 75.6111 76 85 76Z" fill="#F1F5F7"/>
<rect x="83" y="101" width="315" height="285" rx="9" fill="white"/>
<path d="M99.638 134V121.4H104.804C105.728 121.4 106.562 121.556 107.306 121.868C108.062 122.168 108.71 122.6 109.25 123.164C109.802 123.716 110.222 124.376 110.51 125.144C110.798 125.912 110.942 126.764 110.942 127.7C110.942 128.624 110.798 129.476 110.51 130.256C110.222 131.024 109.808 131.69 109.268 132.254C108.728 132.806 108.08 133.238 107.324 133.55C106.568 133.85 105.728 134 104.804 134H99.638ZM102.338 132.038L102.05 131.57H104.714C105.254 131.57 105.74 131.48 106.172 131.3C106.604 131.108 106.97 130.85 107.27 130.526C107.582 130.19 107.816 129.782 107.972 129.302C108.128 128.822 108.206 128.288 108.206 127.7C108.206 127.112 108.128 126.584 107.972 126.116C107.816 125.636 107.582 125.228 107.27 124.892C106.97 124.556 106.604 124.298 106.172 124.118C105.74 123.926 105.254 123.83 104.714 123.83H101.996L102.338 123.398V132.038ZM113.24 134V124.478H115.796V134H113.24ZM114.5 122.534C114.008 122.534 113.624 122.414 113.348 122.174C113.072 121.922 112.934 121.574 112.934 121.13C112.934 120.722 113.072 120.392 113.348 120.14C113.636 119.876 114.02 119.744 114.5 119.744C114.992 119.744 115.376 119.87 115.652 120.122C115.928 120.362 116.066 120.698 116.066 121.13C116.066 121.538 115.922 121.874 115.634 122.138C115.358 122.402 114.98 122.534 114.5 122.534ZM121.73 134.18C120.842 134.18 120.05 134.036 119.354 133.748C118.67 133.448 118.118 133.04 117.698 132.524L119.3 131.156C119.66 131.552 120.068 131.84 120.524 132.02C120.98 132.188 121.436 132.272 121.892 132.272C122.072 132.272 122.234 132.254 122.378 132.218C122.534 132.17 122.666 132.11 122.774 132.038C122.882 131.954 122.96 131.858 123.008 131.75C123.068 131.63 123.098 131.504 123.098 131.372C123.098 131.108 122.99 130.904 122.774 130.76C122.654 130.688 122.468 130.61 122.216 130.526C121.964 130.43 121.64 130.328 121.244 130.22C120.632 130.064 120.11 129.884 119.678 129.68C119.258 129.464 118.922 129.224 118.67 128.96C118.454 128.708 118.286 128.438 118.166 128.15C118.058 127.85 118.004 127.52 118.004 127.16C118.004 126.728 118.1 126.338 118.292 125.99C118.484 125.63 118.748 125.324 119.084 125.072C119.432 124.82 119.828 124.628 120.272 124.496C120.716 124.352 121.184 124.28 121.676 124.28C122.168 124.28 122.648 124.34 123.116 124.46C123.584 124.58 124.016 124.754 124.412 124.982C124.82 125.198 125.174 125.456 125.474 125.756L124.106 127.268C123.89 127.064 123.644 126.878 123.368 126.71C123.104 126.542 122.828 126.41 122.54 126.314C122.252 126.218 121.994 126.17 121.766 126.17C121.562 126.17 121.376 126.188 121.208 126.224C121.052 126.26 120.92 126.32 120.812 126.404C120.704 126.476 120.62 126.566 120.56 126.674C120.512 126.782 120.488 126.902 120.488 127.034C120.488 127.166 120.518 127.292 120.578 127.412C120.65 127.532 120.746 127.634 120.866 127.718C120.998 127.79 121.19 127.874 121.442 127.97C121.706 128.066 122.06 128.174 122.504 128.294C123.08 128.45 123.566 128.624 123.962 128.816C124.37 129.008 124.694 129.23 124.934 129.482C125.138 129.698 125.288 129.944 125.384 130.22C125.48 130.496 125.528 130.802 125.528 131.138C125.528 131.726 125.36 132.248 125.024 132.704C124.7 133.16 124.25 133.52 123.674 133.784C123.098 134.048 122.45 134.18 121.73 134.18ZM131.49 134.18C130.578 134.18 129.762 133.964 129.042 133.532C128.322 133.1 127.752 132.512 127.332 131.768C126.924 131.024 126.72 130.178 126.72 129.23C126.72 128.282 126.924 127.436 127.332 126.692C127.752 125.948 128.322 125.36 129.042 124.928C129.762 124.496 130.578 124.28 131.49 124.28C132.342 124.28 133.122 124.436 133.83 124.748C134.538 125.06 135.09 125.492 135.486 126.044L134.082 127.736C133.914 127.508 133.704 127.304 133.452 127.124C133.2 126.932 132.924 126.782 132.624 126.674C132.336 126.566 132.036 126.512 131.724 126.512C131.232 126.512 130.794 126.632 130.41 126.872C130.038 127.1 129.744 127.418 129.528 127.826C129.312 128.234 129.204 128.702 129.204 129.23C129.204 129.734 129.312 130.19 129.528 130.598C129.756 131.006 130.062 131.33 130.446 131.57C130.83 131.81 131.262 131.93 131.742 131.93C132.054 131.93 132.348 131.888 132.624 131.804C132.9 131.72 133.158 131.588 133.398 131.408C133.65 131.228 133.878 131.012 134.082 130.76L135.468 132.452C135.072 132.968 134.508 133.388 133.776 133.712C133.056 134.024 132.294 134.18 131.49 134.18ZM141.534 134.18C140.562 134.18 139.692 133.97 138.924 133.55C138.168 133.118 137.568 132.53 137.124 131.786C136.692 131.042 136.476 130.19 136.476 129.23C136.476 128.27 136.692 127.418 137.124 126.674C137.568 125.93 138.168 125.348 138.924 124.928C139.692 124.496 140.562 124.28 141.534 124.28C142.494 124.28 143.352 124.496 144.108 124.928C144.876 125.348 145.476 125.93 145.908 126.674C146.34 127.418 146.556 128.27 146.556 129.23C146.556 130.19 146.34 131.042 145.908 131.786C145.476 132.53 144.876 133.118 144.108 133.55C143.352 133.97 142.494 134.18 141.534 134.18ZM141.534 131.948C142.002 131.948 142.422 131.834 142.794 131.606C143.166 131.366 143.454 131.042 143.658 130.634C143.874 130.214 143.976 129.746 143.964 129.23C143.976 128.702 143.874 128.234 143.658 127.826C143.454 127.406 143.166 127.082 142.794 126.854C142.422 126.614 142.002 126.494 141.534 126.494C141.054 126.494 140.628 126.614 140.256 126.854C139.884 127.094 139.59 127.418 139.374 127.826C139.158 128.234 139.056 128.702 139.068 129.23C139.056 129.746 139.158 130.214 139.374 130.634C139.59 131.042 139.884 131.366 140.256 131.606C140.628 131.834 141.054 131.948 141.534 131.948ZM151.773 134.18C151.077 134.18 150.477 134.03 149.973 133.73C149.481 133.418 149.097 132.98 148.821 132.416C148.557 131.84 148.425 131.15 148.425 130.346V124.478H150.981V129.932C150.981 130.364 151.053 130.742 151.197 131.066C151.341 131.378 151.545 131.618 151.809 131.786C152.073 131.954 152.397 132.038 152.781 132.038C153.057 132.038 153.309 131.996 153.537 131.912C153.777 131.816 153.981 131.684 154.149 131.516C154.329 131.348 154.467 131.15 154.563 130.922C154.659 130.694 154.707 130.448 154.707 130.184V124.478H157.263V134H154.833L154.743 132.038L155.211 131.822C155.067 132.266 154.827 132.668 154.491 133.028C154.155 133.388 153.753 133.67 153.285 133.874C152.817 134.078 152.313 134.18 151.773 134.18ZM159.835 134V124.478H162.283L162.355 126.422L161.851 126.638C161.983 126.206 162.217 125.816 162.553 125.468C162.901 125.108 163.315 124.82 163.795 124.604C164.275 124.388 164.779 124.28 165.307 124.28C166.027 124.28 166.627 124.424 167.107 124.712C167.599 125 167.965 125.438 168.205 126.026C168.457 126.602 168.583 127.316 168.583 128.168V134H166.027V128.366C166.027 127.934 165.967 127.574 165.847 127.286C165.727 126.998 165.541 126.788 165.289 126.656C165.049 126.524 164.749 126.464 164.389 126.476C164.101 126.476 163.831 126.524 163.579 126.62C163.339 126.704 163.129 126.83 162.949 126.998C162.781 127.166 162.643 127.358 162.535 127.574C162.439 127.79 162.391 128.024 162.391 128.276V134H161.131C160.855 134 160.609 134 160.393 134C160.177 134 159.991 134 159.835 134ZM171.95 134V122.066H174.506V134H171.95ZM170.168 126.764V124.478H176.468V126.764H170.168ZM189.521 134.18C188.597 134.18 187.745 134.024 186.965 133.712C186.197 133.388 185.525 132.938 184.949 132.362C184.385 131.774 183.947 131.084 183.635 130.292C183.323 129.488 183.167 128.612 183.167 127.664C183.167 126.74 183.329 125.888 183.653 125.108C183.977 124.316 184.433 123.632 185.021 123.056C185.609 122.468 186.299 122.012 187.091 121.688C187.883 121.364 188.741 121.202 189.665 121.202C190.265 121.202 190.853 121.286 191.429 121.454C192.017 121.61 192.551 121.844 193.031 122.156C193.523 122.468 193.943 122.84 194.291 123.272L192.599 125.144C192.323 124.856 192.029 124.61 191.717 124.406C191.405 124.19 191.075 124.028 190.727 123.92C190.391 123.8 190.031 123.74 189.647 123.74C189.131 123.74 188.645 123.836 188.189 124.028C187.745 124.22 187.355 124.49 187.019 124.838C186.683 125.174 186.413 125.588 186.209 126.08C186.017 126.56 185.921 127.094 185.921 127.682C185.921 128.282 186.017 128.828 186.209 129.32C186.401 129.8 186.671 130.214 187.019 130.562C187.367 130.898 187.781 131.162 188.261 131.354C188.753 131.534 189.293 131.624 189.881 131.624C190.265 131.624 190.637 131.57 190.997 131.462C191.357 131.354 191.687 131.204 191.987 131.012C192.299 130.82 192.575 130.598 192.815 130.346L194.147 132.452C193.847 132.776 193.451 133.07 192.959 133.334C192.479 133.598 191.939 133.808 191.339 133.964C190.739 134.108 190.133 134.18 189.521 134.18ZM200.474 134.18C199.502 134.18 198.632 133.97 197.864 133.55C197.108 133.118 196.508 132.53 196.064 131.786C195.632 131.042 195.416 130.19 195.416 129.23C195.416 128.27 195.632 127.418 196.064 126.674C196.508 125.93 197.108 125.348 197.864 124.928C198.632 124.496 199.502 124.28 200.474 124.28C201.434 124.28 202.292 124.496 203.048 124.928C203.816 125.348 204.416 125.93 204.848 126.674C205.28 127.418 205.496 128.27 205.496 129.23C205.496 130.19 205.28 131.042 204.848 131.786C204.416 132.53 203.816 133.118 203.048 133.55C202.292 133.97 201.434 134.18 200.474 134.18ZM200.474 131.948C200.942 131.948 201.362 131.834 201.734 131.606C202.106 131.366 202.394 131.042 202.598 130.634C202.814 130.214 202.916 129.746 202.904 129.23C202.916 128.702 202.814 128.234 202.598 127.826C202.394 127.406 202.106 127.082 201.734 126.854C201.362 126.614 200.942 126.494 200.474 126.494C199.994 126.494 199.568 126.614 199.196 126.854C198.824 127.094 198.53 127.418 198.314 127.826C198.098 128.234 197.996 128.702 198.008 129.23C197.996 129.746 198.098 130.214 198.314 130.634C198.53 131.042 198.824 131.366 199.196 131.606C199.568 131.834 199.994 131.948 200.474 131.948ZM210.712 134.18C210.016 134.18 209.416 134.03 208.912 133.73C208.42 133.418 208.036 132.98 207.76 132.416C207.496 131.84 207.364 131.15 207.364 130.346V124.478H209.92V129.932C209.92 130.364 209.992 130.742 210.136 131.066C210.28 131.378 210.484 131.618 210.748 131.786C211.012 131.954 211.336 132.038 211.72 132.038C211.996 132.038 212.248 131.996 212.476 131.912C212.716 131.816 212.92 131.684 213.088 131.516C213.268 131.348 213.406 131.15 213.502 130.922C213.598 130.694 213.646 130.448 213.646 130.184V124.478H216.202V134H213.772L213.682 132.038L214.15 131.822C214.006 132.266 213.766 132.668 213.43 133.028C213.094 133.388 212.692 133.67 212.224 133.874C211.756 134.078 211.252 134.18 210.712 134.18ZM218.774 137.96V124.478H221.24L221.312 126.62L220.844 126.458C220.928 126.074 221.132 125.72 221.456 125.396C221.792 125.072 222.206 124.808 222.698 124.604C223.19 124.4 223.706 124.298 224.246 124.298C225.074 124.298 225.812 124.514 226.46 124.946C227.108 125.366 227.618 125.948 227.99 126.692C228.362 127.424 228.548 128.27 228.548 129.23C228.548 130.178 228.362 131.024 227.99 131.768C227.618 132.512 227.108 133.1 226.46 133.532C225.812 133.952 225.074 134.162 224.246 134.162C223.694 134.162 223.166 134.06 222.662 133.856C222.17 133.64 221.75 133.358 221.402 133.01C221.066 132.662 220.85 132.29 220.754 131.894L221.348 131.642V137.96H218.774ZM223.67 131.966C224.138 131.966 224.552 131.852 224.912 131.624C225.272 131.396 225.554 131.078 225.758 130.67C225.962 130.25 226.064 129.77 226.064 129.23C226.064 128.69 225.962 128.216 225.758 127.808C225.554 127.4 225.272 127.082 224.912 126.854C224.564 126.626 224.15 126.512 223.67 126.512C223.19 126.512 222.77 126.626 222.41 126.854C222.05 127.07 221.768 127.388 221.564 127.808C221.36 128.216 221.258 128.69 221.258 129.23C221.258 129.77 221.36 130.25 221.564 130.67C221.768 131.078 222.05 131.396 222.41 131.624C222.77 131.852 223.19 131.966 223.67 131.966ZM234.909 134.18C233.937 134.18 233.067 133.97 232.299 133.55C231.543 133.118 230.943 132.53 230.499 131.786C230.067 131.042 229.851 130.19 229.851 129.23C229.851 128.27 230.067 127.418 230.499 126.674C230.943 125.93 231.543 125.348 232.299 124.928C233.067 124.496 233.937 124.28 234.909 124.28C235.869 124.28 236.727 124.496 237.483 124.928C238.251 125.348 238.851 125.93 239.283 126.674C239.715 127.418 239.931 128.27 239.931 129.23C239.931 130.19 239.715 131.042 239.283 131.786C238.851 132.53 238.251 133.118 237.483 133.55C236.727 133.97 235.869 134.18 234.909 134.18ZM234.909 131.948C235.377 131.948 235.797 131.834 236.169 131.606C236.541 131.366 236.829 131.042 237.033 130.634C237.249 130.214 237.351 129.746 237.339 129.23C237.351 128.702 237.249 128.234 237.033 127.826C236.829 127.406 236.541 127.082 236.169 126.854C235.797 126.614 235.377 126.494 234.909 126.494C234.429 126.494 234.003 126.614 233.631 126.854C233.259 127.094 232.965 127.418 232.749 127.826C232.533 128.234 232.431 128.702 232.443 129.23C232.431 129.746 232.533 130.214 232.749 130.634C232.965 131.042 233.259 131.366 233.631 131.606C234.003 131.834 234.429 131.948 234.909 131.948ZM241.872 134V124.478H244.32L244.392 126.422L243.888 126.638C244.02 126.206 244.254 125.816 244.59 125.468C244.938 125.108 245.352 124.82 245.832 124.604C246.312 124.388 246.816 124.28 247.344 124.28C248.064 124.28 248.664 124.424 249.144 124.712C249.636 125 250.002 125.438 250.242 126.026C250.494 126.602 250.62 127.316 250.62 128.168V134H248.064V128.366C248.064 127.934 248.004 127.574 247.884 127.286C247.764 126.998 247.578 126.788 247.326 126.656C247.086 126.524 246.786 126.464 246.426 126.476C246.138 126.476 245.868 126.524 245.616 126.62C245.376 126.704 245.166 126.83 244.986 126.998C244.818 127.166 244.68 127.358 244.572 127.574C244.476 127.79 244.428 128.024 244.428 128.276V134H243.168C242.892 134 242.646 134 242.43 134C242.214 134 242.028 134 241.872 134Z" fill="black"/>
<path d="M106.98 188V181H111.39V182.04H108.06V186.96H111.39V188H106.98ZM107.47 184.93V183.89H110.84V184.93H107.47ZM112.863 188V182.75H113.893V183.83L113.713 183.95C113.779 183.717 113.909 183.503 114.103 183.31C114.296 183.11 114.526 182.95 114.793 182.83C115.059 182.703 115.333 182.64 115.613 182.64C116.013 182.64 116.346 182.72 116.613 182.88C116.879 183.033 117.079 183.27 117.213 183.59C117.346 183.91 117.413 184.313 117.413 184.8V188H116.383V184.87C116.383 184.57 116.343 184.323 116.263 184.13C116.183 183.93 116.059 183.787 115.893 183.7C115.726 183.607 115.519 183.567 115.273 183.58C115.073 183.58 114.889 183.613 114.723 183.68C114.556 183.74 114.409 183.827 114.283 183.94C114.163 184.053 114.066 184.187 113.993 184.34C113.926 184.487 113.893 184.647 113.893 184.82V188H113.383C113.296 188 113.209 188 113.123 188C113.036 188 112.949 188 112.863 188ZM119.46 188V181.41H120.49V188H119.46ZM118.37 183.75V182.75H121.71V183.75H118.37ZM125.049 188.1C124.509 188.1 124.029 187.987 123.609 187.76C123.196 187.527 122.869 187.21 122.629 186.81C122.396 186.41 122.279 185.95 122.279 185.43C122.279 185.017 122.346 184.64 122.479 184.3C122.612 183.96 122.796 183.667 123.029 183.42C123.269 183.167 123.552 182.973 123.879 182.84C124.212 182.7 124.572 182.63 124.959 182.63C125.299 182.63 125.616 182.697 125.909 182.83C126.202 182.957 126.456 183.133 126.669 183.36C126.889 183.587 127.056 183.857 127.169 184.17C127.289 184.477 127.346 184.813 127.339 185.18L127.329 185.62H123.039L122.809 184.8H126.439L126.289 184.97V184.73C126.269 184.51 126.196 184.313 126.069 184.14C125.942 183.967 125.782 183.83 125.589 183.73C125.396 183.63 125.186 183.58 124.959 183.58C124.599 183.58 124.296 183.65 124.049 183.79C123.802 183.923 123.616 184.123 123.489 184.39C123.362 184.65 123.299 184.973 123.299 185.36C123.299 185.727 123.376 186.047 123.529 186.32C123.682 186.587 123.899 186.793 124.179 186.94C124.459 187.087 124.782 187.16 125.149 187.16C125.409 187.16 125.649 187.117 125.869 187.03C126.096 186.943 126.339 186.787 126.599 186.56L127.119 187.29C126.959 187.45 126.762 187.59 126.529 187.71C126.302 187.83 126.059 187.927 125.799 188C125.546 188.067 125.296 188.1 125.049 188.1ZM128.458 188V182.75H129.498V184.4L129.398 184C129.472 183.747 129.595 183.517 129.768 183.31C129.948 183.103 130.152 182.94 130.378 182.82C130.612 182.7 130.852 182.64 131.098 182.64C131.212 182.64 131.318 182.65 131.418 182.67C131.525 182.69 131.608 182.713 131.668 182.74L131.398 183.86C131.318 183.827 131.228 183.8 131.128 183.78C131.035 183.753 130.942 183.74 130.848 183.74C130.668 183.74 130.495 183.777 130.328 183.85C130.168 183.917 130.025 184.013 129.898 184.14C129.778 184.26 129.682 184.403 129.608 184.57C129.535 184.73 129.498 184.907 129.498 185.1V188H128.458ZM136.174 190.3L137.234 187.85L137.244 188.67L134.624 182.75H135.824L137.464 186.61C137.498 186.677 137.538 186.78 137.584 186.92C137.631 187.053 137.671 187.187 137.704 187.32L137.444 187.38C137.498 187.24 137.548 187.1 137.594 186.96C137.648 186.82 137.698 186.68 137.744 186.54L139.114 182.75H140.334L138.174 188L137.284 190.3H136.174ZM143.367 188.1C142.854 188.1 142.394 187.983 141.987 187.75C141.587 187.51 141.27 187.187 141.037 186.78C140.804 186.367 140.687 185.897 140.687 185.37C140.687 184.843 140.804 184.377 141.037 183.97C141.27 183.557 141.587 183.233 141.987 183C142.394 182.76 142.854 182.64 143.367 182.64C143.874 182.64 144.327 182.76 144.727 183C145.134 183.233 145.454 183.557 145.687 183.97C145.92 184.377 146.037 184.843 146.037 185.37C146.037 185.897 145.92 186.367 145.687 186.78C145.454 187.187 145.134 187.51 144.727 187.75C144.327 187.983 143.874 188.1 143.367 188.1ZM143.367 187.16C143.68 187.16 143.96 187.083 144.207 186.93C144.454 186.77 144.647 186.557 144.787 186.29C144.927 186.017 144.994 185.71 144.987 185.37C144.994 185.023 144.927 184.717 144.787 184.45C144.647 184.177 144.454 183.963 144.207 183.81C143.96 183.657 143.68 183.58 143.367 183.58C143.054 183.58 142.77 183.66 142.517 183.82C142.27 183.973 142.077 184.187 141.937 184.46C141.797 184.727 141.73 185.03 141.737 185.37C141.73 185.71 141.797 186.017 141.937 186.29C142.077 186.557 142.27 186.77 142.517 186.93C142.77 187.083 143.054 187.16 143.367 187.16ZM148.999 188.1C148.626 188.1 148.299 188.013 148.019 187.84C147.746 187.667 147.533 187.423 147.379 187.11C147.233 186.797 147.159 186.423 147.159 185.99V182.75H148.189V185.71C148.189 186.017 148.236 186.283 148.329 186.51C148.429 186.73 148.569 186.9 148.749 187.02C148.936 187.14 149.159 187.2 149.419 187.2C149.613 187.2 149.789 187.17 149.949 187.11C150.109 187.043 150.246 186.953 150.359 186.84C150.479 186.727 150.573 186.59 150.639 186.43C150.706 186.27 150.739 186.097 150.739 185.91V182.75H151.769V188H150.739V186.9L150.919 186.78C150.839 187.027 150.703 187.25 150.509 187.45C150.323 187.65 150.099 187.81 149.839 187.93C149.579 188.043 149.299 188.1 148.999 188.1ZM153.214 188V182.75H154.254V184.4L154.154 184C154.227 183.747 154.351 183.517 154.524 183.31C154.704 183.103 154.907 182.94 155.134 182.82C155.367 182.7 155.607 182.64 155.854 182.64C155.967 182.64 156.074 182.65 156.174 182.67C156.281 182.69 156.364 182.713 156.424 182.74L156.154 183.86C156.074 183.827 155.984 183.8 155.884 183.78C155.791 183.753 155.697 183.74 155.604 183.74C155.424 183.74 155.251 183.777 155.084 183.85C154.924 183.917 154.781 184.013 154.654 184.14C154.534 184.26 154.437 184.403 154.364 184.57C154.291 184.73 154.254 184.907 154.254 185.1V188H153.214ZM162.28 188.1C161.793 188.1 161.357 187.98 160.97 187.74C160.59 187.5 160.287 187.173 160.06 186.76C159.84 186.347 159.73 185.883 159.73 185.37C159.73 184.857 159.84 184.393 160.06 183.98C160.287 183.567 160.59 183.24 160.97 183C161.357 182.76 161.793 182.64 162.28 182.64C162.747 182.64 163.17 182.737 163.55 182.93C163.937 183.117 164.23 183.373 164.43 183.7L163.86 184.4C163.753 184.247 163.617 184.107 163.45 183.98C163.283 183.853 163.107 183.753 162.92 183.68C162.733 183.607 162.553 183.57 162.38 183.57C162.06 183.57 161.773 183.65 161.52 183.81C161.273 183.963 161.077 184.177 160.93 184.45C160.783 184.723 160.71 185.03 160.71 185.37C160.71 185.71 160.787 186.017 160.94 186.29C161.093 186.557 161.297 186.77 161.55 186.93C161.803 187.09 162.083 187.17 162.39 187.17C162.57 187.17 162.743 187.14 162.91 187.08C163.083 187.02 163.25 186.93 163.41 186.81C163.57 186.69 163.72 186.543 163.86 186.37L164.43 187.07C164.217 187.37 163.91 187.617 163.51 187.81C163.117 188.003 162.707 188.1 162.28 188.1ZM167.762 188.1C167.248 188.1 166.788 187.983 166.382 187.75C165.982 187.51 165.665 187.187 165.432 186.78C165.198 186.367 165.082 185.897 165.082 185.37C165.082 184.843 165.198 184.377 165.432 183.97C165.665 183.557 165.982 183.233 166.382 183C166.788 182.76 167.248 182.64 167.762 182.64C168.268 182.64 168.722 182.76 169.122 183C169.528 183.233 169.848 183.557 170.082 183.97C170.315 184.377 170.432 184.843 170.432 185.37C170.432 185.897 170.315 186.367 170.082 186.78C169.848 187.187 169.528 187.51 169.122 187.75C168.722 187.983 168.268 188.1 167.762 188.1ZM167.762 187.16C168.075 187.16 168.355 187.083 168.602 186.93C168.848 186.77 169.042 186.557 169.182 186.29C169.322 186.017 169.388 185.71 169.382 185.37C169.388 185.023 169.322 184.717 169.182 184.45C169.042 184.177 168.848 183.963 168.602 183.81C168.355 183.657 168.075 183.58 167.762 183.58C167.448 183.58 167.165 183.66 166.912 183.82C166.665 183.973 166.472 184.187 166.332 184.46C166.192 184.727 166.125 185.03 166.132 185.37C166.125 185.71 166.192 186.017 166.332 186.29C166.472 186.557 166.665 186.77 166.912 186.93C167.165 187.083 167.448 187.16 167.762 187.16ZM173.394 188.1C173.021 188.1 172.694 188.013 172.414 187.84C172.141 187.667 171.927 187.423 171.774 187.11C171.627 186.797 171.554 186.423 171.554 185.99V182.75H172.584V185.71C172.584 186.017 172.631 186.283 172.724 186.51C172.824 186.73 172.964 186.9 173.144 187.02C173.331 187.14 173.554 187.2 173.814 187.2C174.007 187.2 174.184 187.17 174.344 187.11C174.504 187.043 174.641 186.953 174.754 186.84C174.874 186.727 174.967 186.59 175.034 186.43C175.101 186.27 175.134 186.097 175.134 185.91V182.75H176.164V188H175.134V186.9L175.314 186.78C175.234 187.027 175.097 187.25 174.904 187.45C174.717 187.65 174.494 187.81 174.234 187.93C173.974 188.043 173.694 188.1 173.394 188.1ZM177.609 190.2V182.75H178.649V183.95L178.489 183.86C178.529 183.66 178.642 183.47 178.829 183.29C179.015 183.103 179.242 182.953 179.509 182.84C179.782 182.72 180.062 182.66 180.349 182.66C180.822 182.66 181.242 182.777 181.609 183.01C181.975 183.243 182.265 183.563 182.479 183.97C182.692 184.377 182.799 184.843 182.799 185.37C182.799 185.89 182.692 186.357 182.479 186.77C182.272 187.177 181.985 187.5 181.619 187.74C181.252 187.973 180.839 188.09 180.379 188.09C180.072 188.09 179.775 188.03 179.489 187.91C179.202 187.783 178.959 187.623 178.759 187.43C178.559 187.237 178.435 187.037 178.389 186.83L178.649 186.69V190.2H177.609ZM180.209 187.14C180.515 187.14 180.789 187.063 181.029 186.91C181.269 186.757 181.459 186.547 181.599 186.28C181.739 186.013 181.809 185.71 181.809 185.37C181.809 185.03 181.739 184.73 181.599 184.47C181.465 184.203 181.279 183.993 181.039 183.84C180.799 183.687 180.522 183.61 180.209 183.61C179.895 183.61 179.619 183.687 179.379 183.84C179.139 183.987 178.949 184.193 178.809 184.46C178.669 184.727 178.599 185.03 178.599 185.37C178.599 185.71 178.669 186.013 178.809 186.28C178.949 186.547 179.139 186.757 179.379 186.91C179.619 187.063 179.895 187.14 180.209 187.14ZM186.277 188.1C185.764 188.1 185.304 187.983 184.897 187.75C184.497 187.51 184.181 187.187 183.947 186.78C183.714 186.367 183.597 185.897 183.597 185.37C183.597 184.843 183.714 184.377 183.947 183.97C184.181 183.557 184.497 183.233 184.897 183C185.304 182.76 185.764 182.64 186.277 182.64C186.784 182.64 187.237 182.76 187.637 183C188.044 183.233 188.364 183.557 188.597 183.97C188.831 184.377 188.947 184.843 188.947 185.37C188.947 185.897 188.831 186.367 188.597 186.78C188.364 187.187 188.044 187.51 187.637 187.75C187.237 187.983 186.784 188.1 186.277 188.1ZM186.277 187.16C186.591 187.16 186.871 187.083 187.117 186.93C187.364 186.77 187.557 186.557 187.697 186.29C187.837 186.017 187.904 185.71 187.897 185.37C187.904 185.023 187.837 184.717 187.697 184.45C187.557 184.177 187.364 183.963 187.117 183.81C186.871 183.657 186.591 183.58 186.277 183.58C185.964 183.58 185.681 183.66 185.427 183.82C185.181 183.973 184.987 184.187 184.847 184.46C184.707 184.727 184.641 185.03 184.647 185.37C184.641 185.71 184.707 186.017 184.847 186.29C184.987 186.557 185.181 186.77 185.427 186.93C185.681 187.083 185.964 187.16 186.277 187.16ZM190.07 188V182.75H191.1V183.83L190.92 183.95C190.986 183.717 191.116 183.503 191.31 183.31C191.503 183.11 191.733 182.95 192 182.83C192.266 182.703 192.54 182.64 192.82 182.64C193.22 182.64 193.553 182.72 193.82 182.88C194.086 183.033 194.286 183.27 194.42 183.59C194.553 183.91 194.62 184.313 194.62 184.8V188H193.59V184.87C193.59 184.57 193.55 184.323 193.47 184.13C193.39 183.93 193.266 183.787 193.1 183.7C192.933 183.607 192.726 183.567 192.48 183.58C192.28 183.58 192.096 183.613 191.93 183.68C191.763 183.74 191.616 183.827 191.49 183.94C191.37 184.053 191.273 184.187 191.2 184.34C191.133 184.487 191.1 184.647 191.1 184.82V188H190.59C190.503 188 190.416 188 190.33 188C190.243 188 190.156 188 190.07 188ZM201.05 188.1C200.563 188.1 200.126 187.98 199.74 187.74C199.36 187.5 199.056 187.173 198.83 186.76C198.61 186.347 198.5 185.883 198.5 185.37C198.5 184.857 198.61 184.393 198.83 183.98C199.056 183.567 199.36 183.24 199.74 183C200.126 182.76 200.563 182.64 201.05 182.64C201.516 182.64 201.94 182.737 202.32 182.93C202.706 183.117 203 183.373 203.2 183.7L202.63 184.4C202.523 184.247 202.386 184.107 202.22 183.98C202.053 183.853 201.876 183.753 201.69 183.68C201.503 183.607 201.323 183.57 201.15 183.57C200.83 183.57 200.543 183.65 200.29 183.81C200.043 183.963 199.846 184.177 199.7 184.45C199.553 184.723 199.48 185.03 199.48 185.37C199.48 185.71 199.556 186.017 199.71 186.29C199.863 186.557 200.066 186.77 200.32 186.93C200.573 187.09 200.853 187.17 201.16 187.17C201.34 187.17 201.513 187.14 201.68 187.08C201.853 187.02 202.02 186.93 202.18 186.81C202.34 186.69 202.49 186.543 202.63 186.37L203.2 187.07C202.986 187.37 202.68 187.617 202.28 187.81C201.886 188.003 201.476 188.1 201.05 188.1ZM206.531 188.1C206.018 188.1 205.558 187.983 205.151 187.75C204.751 187.51 204.435 187.187 204.201 186.78C203.968 186.367 203.851 185.897 203.851 185.37C203.851 184.843 203.968 184.377 204.201 183.97C204.435 183.557 204.751 183.233 205.151 183C205.558 182.76 206.018 182.64 206.531 182.64C207.038 182.64 207.491 182.76 207.891 183C208.298 183.233 208.618 183.557 208.851 183.97C209.085 184.377 209.201 184.843 209.201 185.37C209.201 185.897 209.085 186.367 208.851 186.78C208.618 187.187 208.298 187.51 207.891 187.75C207.491 187.983 207.038 188.1 206.531 188.1ZM206.531 187.16C206.845 187.16 207.125 187.083 207.371 186.93C207.618 186.77 207.811 186.557 207.951 186.29C208.091 186.017 208.158 185.71 208.151 185.37C208.158 185.023 208.091 184.717 207.951 184.45C207.811 184.177 207.618 183.963 207.371 183.81C207.125 183.657 206.845 183.58 206.531 183.58C206.218 183.58 205.935 183.66 205.681 183.82C205.435 183.973 205.241 184.187 205.101 184.46C204.961 184.727 204.895 185.03 204.901 185.37C204.895 185.71 204.961 186.017 205.101 186.29C205.241 186.557 205.435 186.77 205.681 186.93C205.935 187.083 206.218 187.16 206.531 187.16ZM212.514 188.1C212.034 188.1 211.604 187.983 211.224 187.75C210.85 187.51 210.554 187.187 210.334 186.78C210.114 186.367 210.004 185.897 210.004 185.37C210.004 184.843 210.11 184.377 210.324 183.97C210.544 183.557 210.84 183.233 211.214 183C211.587 182.76 212.01 182.64 212.484 182.64C212.744 182.64 212.994 182.683 213.234 182.77C213.48 182.85 213.7 182.963 213.894 183.11C214.087 183.25 214.237 183.407 214.344 183.58C214.457 183.747 214.514 183.917 214.514 184.09L214.214 184.11V180.6H215.244V188H214.214V186.75H214.414C214.414 186.91 214.36 187.07 214.254 187.23C214.147 187.383 214.004 187.527 213.824 187.66C213.65 187.793 213.447 187.9 213.214 187.98C212.987 188.06 212.754 188.1 212.514 188.1ZM212.654 187.21C212.967 187.21 213.244 187.13 213.484 186.97C213.724 186.81 213.91 186.593 214.044 186.32C214.184 186.04 214.254 185.723 214.254 185.37C214.254 185.017 214.184 184.703 214.044 184.43C213.91 184.15 213.724 183.93 213.484 183.77C213.244 183.61 212.967 183.53 212.654 183.53C212.34 183.53 212.064 183.61 211.824 183.77C211.584 183.93 211.394 184.15 211.254 184.43C211.12 184.703 211.054 185.017 211.054 185.37C211.054 185.723 211.12 186.04 211.254 186.32C211.394 186.593 211.584 186.81 211.824 186.97C212.064 187.13 212.34 187.21 212.654 187.21ZM219.111 188.1C218.571 188.1 218.091 187.987 217.671 187.76C217.258 187.527 216.931 187.21 216.691 186.81C216.458 186.41 216.341 185.95 216.341 185.43C216.341 185.017 216.408 184.64 216.541 184.3C216.675 183.96 216.858 183.667 217.091 183.42C217.331 183.167 217.615 182.973 217.941 182.84C218.275 182.7 218.635 182.63 219.021 182.63C219.361 182.63 219.678 182.697 219.971 182.83C220.265 182.957 220.518 183.133 220.731 183.36C220.951 183.587 221.118 183.857 221.231 184.17C221.351 184.477 221.408 184.813 221.401 185.18L221.391 185.62H217.101L216.871 184.8H220.501L220.351 184.97V184.73C220.331 184.51 220.258 184.313 220.131 184.14C220.005 183.967 219.845 183.83 219.651 183.73C219.458 183.63 219.248 183.58 219.021 183.58C218.661 183.58 218.358 183.65 218.111 183.79C217.865 183.923 217.678 184.123 217.551 184.39C217.425 184.65 217.361 184.973 217.361 185.36C217.361 185.727 217.438 186.047 217.591 186.32C217.745 186.587 217.961 186.793 218.241 186.94C218.521 187.087 218.845 187.16 219.211 187.16C219.471 187.16 219.711 187.117 219.931 187.03C220.158 186.943 220.401 186.787 220.661 186.56L221.181 187.29C221.021 187.45 220.825 187.59 220.591 187.71C220.365 187.83 220.121 187.927 219.861 188C219.608 188.067 219.358 188.1 219.111 188.1Z" fill="#C6C6C6"/>
<rect x="121" y="243" width="233" height="7" rx="3.5" fill="#E4E6EA"/>
<rect x="98" y="145" width="262" height="7" rx="3.5" fill="#E4E6EA"/>
<rect x="121" y="277" width="196" height="7" rx="3.5" fill="#E4E6EA"/>
<rect x="121" y="255" width="160" height="7" rx="3.5" fill="#E4E6EA"/>
<rect x="121" y="289" width="56" height="7" rx="3.5" fill="#E4E6EA"/>
<circle cx="2.5" cy="2.5" r="2.5" transform="matrix(1 0 0 -1 106 249)" fill="black"/>
<circle cx="2.5" cy="2.5" r="2.5" transform="matrix(1 0 0 -1 106 283)" fill="black"/>
<rect x="98.25" y="167.25" width="284.5" height="36.5" rx="3.75" stroke="#E4E6EA" stroke-width="0.5"/>
<path d="M98.72 225V224H99.85V219H98.72V218H102.06V219H100.93V224H102.06V225H98.72ZM103.495 225V219.75H104.525V220.83L104.345 220.95C104.412 220.717 104.542 220.503 104.735 220.31C104.929 220.11 105.159 219.95 105.425 219.83C105.692 219.703 105.965 219.64 106.245 219.64C106.645 219.64 106.979 219.72 107.245 219.88C107.512 220.033 107.712 220.27 107.845 220.59C107.979 220.91 108.045 221.313 108.045 221.8V225H107.015V221.87C107.015 221.57 106.975 221.323 106.895 221.13C106.815 220.93 106.692 220.787 106.525 220.7C106.359 220.607 106.152 220.567 105.905 220.58C105.705 220.58 105.522 220.613 105.355 220.68C105.189 220.74 105.042 220.827 104.915 220.94C104.795 221.053 104.699 221.187 104.625 221.34C104.559 221.487 104.525 221.647 104.525 221.82V225H104.015C103.929 225 103.842 225 103.755 225C103.669 225 103.582 225 103.495 225ZM111.193 225.1C110.753 225.1 110.356 225.023 110.003 224.87C109.649 224.717 109.356 224.49 109.123 224.19L109.823 223.59C110.023 223.823 110.239 223.993 110.473 224.1C110.713 224.2 110.983 224.25 111.283 224.25C111.403 224.25 111.513 224.237 111.613 224.21C111.719 224.177 111.809 224.13 111.883 224.07C111.963 224.01 112.023 223.94 112.063 223.86C112.103 223.773 112.123 223.68 112.123 223.58C112.123 223.407 112.059 223.267 111.933 223.16C111.866 223.113 111.759 223.063 111.613 223.01C111.473 222.95 111.289 222.89 111.063 222.83C110.676 222.73 110.359 222.617 110.113 222.49C109.866 222.363 109.676 222.22 109.543 222.06C109.443 221.933 109.369 221.797 109.323 221.65C109.276 221.497 109.253 221.33 109.253 221.15C109.253 220.93 109.299 220.73 109.393 220.55C109.493 220.363 109.626 220.203 109.793 220.07C109.966 219.93 110.166 219.823 110.393 219.75C110.626 219.677 110.873 219.64 111.133 219.64C111.379 219.64 111.623 219.673 111.863 219.74C112.109 219.807 112.336 219.903 112.543 220.03C112.749 220.157 112.923 220.307 113.063 220.48L112.473 221.13C112.346 221.003 112.206 220.893 112.053 220.8C111.906 220.7 111.756 220.623 111.603 220.57C111.449 220.517 111.309 220.49 111.183 220.49C111.043 220.49 110.916 220.503 110.803 220.53C110.689 220.557 110.593 220.597 110.513 220.65C110.439 220.703 110.383 220.77 110.343 220.85C110.303 220.93 110.283 221.02 110.283 221.12C110.289 221.207 110.309 221.29 110.343 221.37C110.383 221.443 110.436 221.507 110.503 221.56C110.576 221.613 110.686 221.67 110.833 221.73C110.979 221.79 111.166 221.847 111.393 221.9C111.726 221.987 111.999 222.083 112.213 222.19C112.433 222.29 112.606 222.407 112.733 222.54C112.866 222.667 112.959 222.813 113.013 222.98C113.066 223.147 113.093 223.333 113.093 223.54C113.093 223.84 113.006 224.11 112.833 224.35C112.666 224.583 112.439 224.767 112.153 224.9C111.866 225.033 111.546 225.1 111.193 225.1ZM114.878 225V218.41H115.908V225H114.878ZM113.788 220.75V219.75H117.128V220.75H113.788ZM118.066 225V219.75H119.106V221.4L119.006 221C119.079 220.747 119.202 220.517 119.376 220.31C119.556 220.103 119.759 219.94 119.986 219.82C120.219 219.7 120.459 219.64 120.706 219.64C120.819 219.64 120.926 219.65 121.026 219.67C121.132 219.69 121.216 219.713 121.276 219.74L121.006 220.86C120.926 220.827 120.836 220.8 120.736 220.78C120.642 220.753 120.549 220.74 120.456 220.74C120.276 220.74 120.102 220.777 119.936 220.85C119.776 220.917 119.632 221.013 119.506 221.14C119.386 221.26 119.289 221.403 119.216 221.57C119.142 221.73 119.106 221.907 119.106 222.1V225H118.066ZM123.939 225.1C123.566 225.1 123.239 225.013 122.959 224.84C122.686 224.667 122.472 224.423 122.319 224.11C122.172 223.797 122.099 223.423 122.099 222.99V219.75H123.129V222.71C123.129 223.017 123.176 223.283 123.269 223.51C123.369 223.73 123.509 223.9 123.689 224.02C123.876 224.14 124.099 224.2 124.359 224.2C124.552 224.2 124.729 224.17 124.889 224.11C125.049 224.043 125.186 223.953 125.299 223.84C125.419 223.727 125.512 223.59 125.579 223.43C125.646 223.27 125.679 223.097 125.679 222.91V219.75H126.709V225H125.679V223.9L125.859 223.78C125.779 224.027 125.642 224.25 125.449 224.45C125.262 224.65 125.039 224.81 124.779 224.93C124.519 225.043 124.239 225.1 123.939 225.1ZM130.384 225.1C129.897 225.1 129.46 224.98 129.074 224.74C128.694 224.5 128.39 224.173 128.164 223.76C127.944 223.347 127.834 222.883 127.834 222.37C127.834 221.857 127.944 221.393 128.164 220.98C128.39 220.567 128.694 220.24 129.074 220C129.46 219.76 129.897 219.64 130.384 219.64C130.85 219.64 131.274 219.737 131.654 219.93C132.04 220.117 132.334 220.373 132.534 220.7L131.964 221.4C131.857 221.247 131.72 221.107 131.554 220.98C131.387 220.853 131.21 220.753 131.024 220.68C130.837 220.607 130.657 220.57 130.484 220.57C130.164 220.57 129.877 220.65 129.624 220.81C129.377 220.963 129.18 221.177 129.034 221.45C128.887 221.723 128.814 222.03 128.814 222.37C128.814 222.71 128.89 223.017 129.044 223.29C129.197 223.557 129.4 223.77 129.654 223.93C129.907 224.09 130.187 224.17 130.494 224.17C130.674 224.17 130.847 224.14 131.014 224.08C131.187 224.02 131.354 223.93 131.514 223.81C131.674 223.69 131.824 223.543 131.964 223.37L132.534 224.07C132.32 224.37 132.014 224.617 131.614 224.81C131.22 225.003 130.81 225.1 130.384 225.1ZM134.155 225V218.41H135.185V225H134.155ZM133.065 220.75V219.75H136.405V220.75H133.065ZM137.513 225V219.75H138.543V225H137.513ZM138.013 218.59C137.793 218.59 137.623 218.533 137.503 218.42C137.383 218.307 137.323 218.147 137.323 217.94C137.323 217.747 137.383 217.59 137.503 217.47C137.63 217.35 137.8 217.29 138.013 217.29C138.233 217.29 138.403 217.347 138.523 217.46C138.643 217.573 138.703 217.733 138.703 217.94C138.703 218.133 138.64 218.29 138.513 218.41C138.393 218.53 138.226 218.59 138.013 218.59ZM142.486 225.1C141.973 225.1 141.513 224.983 141.106 224.75C140.706 224.51 140.39 224.187 140.156 223.78C139.923 223.367 139.806 222.897 139.806 222.37C139.806 221.843 139.923 221.377 140.156 220.97C140.39 220.557 140.706 220.233 141.106 220C141.513 219.76 141.973 219.64 142.486 219.64C142.993 219.64 143.446 219.76 143.846 220C144.253 220.233 144.573 220.557 144.806 220.97C145.04 221.377 145.156 221.843 145.156 222.37C145.156 222.897 145.04 223.367 144.806 223.78C144.573 224.187 144.253 224.51 143.846 224.75C143.446 224.983 142.993 225.1 142.486 225.1ZM142.486 224.16C142.8 224.16 143.08 224.083 143.326 223.93C143.573 223.77 143.766 223.557 143.906 223.29C144.046 223.017 144.113 222.71 144.106 222.37C144.113 222.023 144.046 221.717 143.906 221.45C143.766 221.177 143.573 220.963 143.326 220.81C143.08 220.657 142.8 220.58 142.486 220.58C142.173 220.58 141.89 220.66 141.636 220.82C141.39 220.973 141.196 221.187 141.056 221.46C140.916 221.727 140.85 222.03 140.856 222.37C140.85 222.71 140.916 223.017 141.056 223.29C141.196 223.557 141.39 223.77 141.636 223.93C141.89 224.083 142.173 224.16 142.486 224.16ZM146.279 225V219.75H147.309V220.83L147.129 220.95C147.195 220.717 147.325 220.503 147.519 220.31C147.712 220.11 147.942 219.95 148.209 219.83C148.475 219.703 148.749 219.64 149.029 219.64C149.429 219.64 149.762 219.72 150.029 219.88C150.295 220.033 150.495 220.27 150.629 220.59C150.762 220.91 150.829 221.313 150.829 221.8V225H149.799V221.87C149.799 221.57 149.759 221.323 149.679 221.13C149.599 220.93 149.475 220.787 149.309 220.7C149.142 220.607 148.935 220.567 148.689 220.58C148.489 220.58 148.305 220.613 148.139 220.68C147.972 220.74 147.825 220.827 147.699 220.94C147.579 221.053 147.482 221.187 147.409 221.34C147.342 221.487 147.309 221.647 147.309 221.82V225H146.799C146.712 225 146.625 225 146.539 225C146.452 225 146.365 225 146.279 225ZM153.976 225.1C153.536 225.1 153.139 225.023 152.786 224.87C152.433 224.717 152.139 224.49 151.906 224.19L152.606 223.59C152.806 223.823 153.023 223.993 153.256 224.1C153.496 224.2 153.766 224.25 154.066 224.25C154.186 224.25 154.296 224.237 154.396 224.21C154.503 224.177 154.593 224.13 154.666 224.07C154.746 224.01 154.806 223.94 154.846 223.86C154.886 223.773 154.906 223.68 154.906 223.58C154.906 223.407 154.843 223.267 154.716 223.16C154.649 223.113 154.543 223.063 154.396 223.01C154.256 222.95 154.073 222.89 153.846 222.83C153.459 222.73 153.143 222.617 152.896 222.49C152.649 222.363 152.459 222.22 152.326 222.06C152.226 221.933 152.153 221.797 152.106 221.65C152.059 221.497 152.036 221.33 152.036 221.15C152.036 220.93 152.083 220.73 152.176 220.55C152.276 220.363 152.409 220.203 152.576 220.07C152.749 219.93 152.949 219.823 153.176 219.75C153.409 219.677 153.656 219.64 153.916 219.64C154.163 219.64 154.406 219.673 154.646 219.74C154.893 219.807 155.119 219.903 155.326 220.03C155.533 220.157 155.706 220.307 155.846 220.48L155.256 221.13C155.129 221.003 154.989 220.893 154.836 220.8C154.689 220.7 154.539 220.623 154.386 220.57C154.233 220.517 154.093 220.49 153.966 220.49C153.826 220.49 153.699 220.503 153.586 220.53C153.473 220.557 153.376 220.597 153.296 220.65C153.223 220.703 153.166 220.77 153.126 220.85C153.086 220.93 153.066 221.02 153.066 221.12C153.073 221.207 153.093 221.29 153.126 221.37C153.166 221.443 153.219 221.507 153.286 221.56C153.359 221.613 153.469 221.67 153.616 221.73C153.763 221.79 153.949 221.847 154.176 221.9C154.509 221.987 154.783 222.083 154.996 222.19C155.216 222.29 155.389 222.407 155.516 222.54C155.649 222.667 155.743 222.813 155.796 222.98C155.849 223.147 155.876 223.333 155.876 223.54C155.876 223.84 155.789 224.11 155.616 224.35C155.449 224.583 155.223 224.767 154.936 224.9C154.649 225.033 154.329 225.1 153.976 225.1Z" fill="#3B3B3B"/>
<path d="M98.98 324V317H101.72C102.22 317 102.67 317.083 103.07 317.25C103.477 317.417 103.823 317.657 104.11 317.97C104.397 318.283 104.617 318.653 104.77 319.08C104.923 319.507 105 319.98 105 320.5C105 321.02 104.923 321.497 104.77 321.93C104.617 322.357 104.397 322.727 104.11 323.04C103.83 323.347 103.487 323.583 103.08 323.75C102.673 323.917 102.22 324 101.72 324H98.98ZM100.06 323.07L100.03 322.96H101.67C102.023 322.96 102.337 322.903 102.61 322.79C102.89 322.677 103.123 322.517 103.31 322.31C103.503 322.097 103.65 321.837 103.75 321.53C103.85 321.223 103.9 320.88 103.9 320.5C103.9 320.12 103.85 319.78 103.75 319.48C103.65 319.173 103.503 318.913 103.31 318.7C103.117 318.487 102.883 318.323 102.61 318.21C102.337 318.097 102.023 318.04 101.67 318.04H100L100.06 317.95V323.07ZM106.37 324V318.75H107.4V324H106.37ZM106.87 317.59C106.65 317.59 106.48 317.533 106.36 317.42C106.24 317.307 106.18 317.147 106.18 316.94C106.18 316.747 106.24 316.59 106.36 316.47C106.487 316.35 106.657 316.29 106.87 316.29C107.09 316.29 107.26 316.347 107.38 316.46C107.5 316.573 107.56 316.733 107.56 316.94C107.56 317.133 107.497 317.29 107.37 317.41C107.25 317.53 107.084 317.59 106.87 317.59ZM110.734 324.1C110.294 324.1 109.897 324.023 109.544 323.87C109.19 323.717 108.897 323.49 108.664 323.19L109.364 322.59C109.564 322.823 109.78 322.993 110.014 323.1C110.254 323.2 110.524 323.25 110.824 323.25C110.944 323.25 111.054 323.237 111.154 323.21C111.26 323.177 111.35 323.13 111.424 323.07C111.504 323.01 111.564 322.94 111.604 322.86C111.644 322.773 111.664 322.68 111.664 322.58C111.664 322.407 111.6 322.267 111.474 322.16C111.407 322.113 111.3 322.063 111.154 322.01C111.014 321.95 110.83 321.89 110.604 321.83C110.217 321.73 109.9 321.617 109.654 321.49C109.407 321.363 109.217 321.22 109.084 321.06C108.984 320.933 108.91 320.797 108.864 320.65C108.817 320.497 108.794 320.33 108.794 320.15C108.794 319.93 108.84 319.73 108.934 319.55C109.034 319.363 109.167 319.203 109.334 319.07C109.507 318.93 109.707 318.823 109.934 318.75C110.167 318.677 110.414 318.64 110.674 318.64C110.92 318.64 111.164 318.673 111.404 318.74C111.65 318.807 111.877 318.903 112.084 319.03C112.29 319.157 112.464 319.307 112.604 319.48L112.014 320.13C111.887 320.003 111.747 319.893 111.594 319.8C111.447 319.7 111.297 319.623 111.144 319.57C110.99 319.517 110.85 319.49 110.724 319.49C110.584 319.49 110.457 319.503 110.344 319.53C110.23 319.557 110.134 319.597 110.054 319.65C109.98 319.703 109.924 319.77 109.884 319.85C109.844 319.93 109.824 320.02 109.824 320.12C109.83 320.207 109.85 320.29 109.884 320.37C109.924 320.443 109.977 320.507 110.044 320.56C110.117 320.613 110.227 320.67 110.374 320.73C110.52 320.79 110.707 320.847 110.934 320.9C111.267 320.987 111.54 321.083 111.754 321.19C111.974 321.29 112.147 321.407 112.274 321.54C112.407 321.667 112.5 321.813 112.554 321.98C112.607 322.147 112.634 322.333 112.634 322.54C112.634 322.84 112.547 323.11 112.374 323.35C112.207 323.583 111.98 323.767 111.694 323.9C111.407 324.033 111.087 324.1 110.734 324.1ZM115.999 324.1C115.512 324.1 115.075 323.98 114.689 323.74C114.309 323.5 114.005 323.173 113.779 322.76C113.559 322.347 113.449 321.883 113.449 321.37C113.449 320.857 113.559 320.393 113.779 319.98C114.005 319.567 114.309 319.24 114.689 319C115.075 318.76 115.512 318.64 115.999 318.64C116.465 318.64 116.889 318.737 117.269 318.93C117.655 319.117 117.949 319.373 118.149 319.7L117.579 320.4C117.472 320.247 117.335 320.107 117.169 319.98C117.002 319.853 116.825 319.753 116.639 319.68C116.452 319.607 116.272 319.57 116.099 319.57C115.779 319.57 115.492 319.65 115.239 319.81C114.992 319.963 114.795 320.177 114.649 320.45C114.502 320.723 114.429 321.03 114.429 321.37C114.429 321.71 114.505 322.017 114.659 322.29C114.812 322.557 115.015 322.77 115.269 322.93C115.522 323.09 115.802 323.17 116.109 323.17C116.289 323.17 116.462 323.14 116.629 323.08C116.802 323.02 116.969 322.93 117.129 322.81C117.289 322.69 117.439 322.543 117.579 322.37L118.149 323.07C117.935 323.37 117.629 323.617 117.229 323.81C116.835 324.003 116.425 324.1 115.999 324.1ZM121.48 324.1C120.967 324.1 120.507 323.983 120.1 323.75C119.7 323.51 119.384 323.187 119.15 322.78C118.917 322.367 118.8 321.897 118.8 321.37C118.8 320.843 118.917 320.377 119.15 319.97C119.384 319.557 119.7 319.233 120.1 319C120.507 318.76 120.967 318.64 121.48 318.64C121.987 318.64 122.44 318.76 122.84 319C123.247 319.233 123.567 319.557 123.8 319.97C124.034 320.377 124.15 320.843 124.15 321.37C124.15 321.897 124.034 322.367 123.8 322.78C123.567 323.187 123.247 323.51 122.84 323.75C122.44 323.983 121.987 324.1 121.48 324.1ZM121.48 323.16C121.794 323.16 122.074 323.083 122.32 322.93C122.567 322.77 122.76 322.557 122.9 322.29C123.04 322.017 123.107 321.71 123.1 321.37C123.107 321.023 123.04 320.717 122.9 320.45C122.76 320.177 122.567 319.963 122.32 319.81C122.074 319.657 121.794 319.58 121.48 319.58C121.167 319.58 120.884 319.66 120.63 319.82C120.384 319.973 120.19 320.187 120.05 320.46C119.91 320.727 119.844 321.03 119.85 321.37C119.844 321.71 119.91 322.017 120.05 322.29C120.19 322.557 120.384 322.77 120.63 322.93C120.884 323.083 121.167 323.16 121.48 323.16ZM127.113 324.1C126.739 324.1 126.413 324.013 126.133 323.84C125.859 323.667 125.646 323.423 125.493 323.11C125.346 322.797 125.273 322.423 125.273 321.99V318.75H126.303V321.71C126.303 322.017 126.349 322.283 126.443 322.51C126.543 322.73 126.683 322.9 126.863 323.02C127.049 323.14 127.273 323.2 127.533 323.2C127.726 323.2 127.903 323.17 128.063 323.11C128.223 323.043 128.359 322.953 128.473 322.84C128.593 322.727 128.686 322.59 128.753 322.43C128.819 322.27 128.853 322.097 128.853 321.91V318.75H129.883V324H128.853V322.9L129.033 322.78C128.953 323.027 128.816 323.25 128.623 323.45C128.436 323.65 128.213 323.81 127.953 323.93C127.693 324.043 127.413 324.1 127.113 324.1ZM131.327 324V318.75H132.357V319.83L132.177 319.95C132.244 319.717 132.374 319.503 132.567 319.31C132.761 319.11 132.991 318.95 133.257 318.83C133.524 318.703 133.797 318.64 134.077 318.64C134.477 318.64 134.811 318.72 135.077 318.88C135.344 319.033 135.544 319.27 135.677 319.59C135.811 319.91 135.877 320.313 135.877 320.8V324H134.847V320.87C134.847 320.57 134.807 320.323 134.727 320.13C134.647 319.93 134.524 319.787 134.357 319.7C134.191 319.607 133.984 319.567 133.737 319.58C133.537 319.58 133.354 319.613 133.187 319.68C133.021 319.74 132.874 319.827 132.747 319.94C132.627 320.053 132.531 320.187 132.457 320.34C132.391 320.487 132.357 320.647 132.357 320.82V324H131.847C131.761 324 131.674 324 131.587 324C131.501 324 131.414 324 131.327 324ZM137.925 324V317.41H138.955V324H137.925ZM136.835 319.75V318.75H140.175V319.75H136.835ZM144.485 324L149.115 317H150.145L145.465 324H144.485ZM145.125 320.71C144.825 320.71 144.559 320.63 144.325 320.47C144.099 320.303 143.919 320.08 143.785 319.8C143.659 319.513 143.595 319.187 143.595 318.82C143.595 318.453 143.659 318.127 143.785 317.84C143.919 317.547 144.102 317.32 144.335 317.16C144.569 316.993 144.835 316.91 145.135 316.91C145.435 316.91 145.699 316.993 145.925 317.16C146.159 317.32 146.339 317.547 146.465 317.84C146.599 318.127 146.665 318.453 146.665 318.82C146.665 319.173 146.599 319.493 146.465 319.78C146.332 320.067 146.149 320.293 145.915 320.46C145.682 320.627 145.419 320.71 145.125 320.71ZM145.135 319.96C145.275 319.96 145.395 319.913 145.495 319.82C145.602 319.727 145.682 319.597 145.735 319.43C145.795 319.257 145.825 319.053 145.825 318.82C145.825 318.587 145.795 318.383 145.735 318.21C145.682 318.037 145.602 317.903 145.495 317.81C145.395 317.717 145.272 317.67 145.125 317.67C144.985 317.67 144.862 317.72 144.755 317.82C144.649 317.913 144.565 318.047 144.505 318.22C144.452 318.387 144.425 318.587 144.425 318.82C144.425 319.053 144.452 319.257 144.505 319.43C144.565 319.597 144.649 319.727 144.755 319.82C144.862 319.913 144.989 319.96 145.135 319.96ZM149.555 324.09C149.255 324.09 148.989 324.007 148.755 323.84C148.529 323.673 148.349 323.45 148.215 323.17C148.082 322.883 148.015 322.56 148.015 322.2C148.015 321.833 148.079 321.507 148.205 321.22C148.339 320.927 148.522 320.7 148.755 320.54C148.989 320.373 149.255 320.29 149.555 320.29C149.855 320.29 150.119 320.373 150.345 320.54C150.579 320.7 150.759 320.927 150.885 321.22C151.019 321.507 151.085 321.833 151.085 322.2C151.085 322.553 151.019 322.873 150.885 323.16C150.752 323.447 150.569 323.673 150.335 323.84C150.109 324.007 149.849 324.09 149.555 324.09ZM149.555 323.35C149.695 323.35 149.819 323.303 149.925 323.21C150.032 323.11 150.112 322.977 150.165 322.81C150.225 322.637 150.255 322.433 150.255 322.2C150.255 321.967 150.225 321.767 150.165 321.6C150.112 321.427 150.032 321.293 149.925 321.2C149.819 321.1 149.695 321.05 149.555 321.05C149.409 321.05 149.282 321.097 149.175 321.19C149.069 321.283 148.985 321.417 148.925 321.59C148.872 321.763 148.845 321.967 148.845 322.2C148.845 322.433 148.872 322.637 148.925 322.81C148.985 322.977 149.069 323.11 149.175 323.21C149.282 323.303 149.409 323.35 149.555 323.35Z" fill="#3B3B3B"/>
<rect x="98.25" y="234.25" width="294.5" height="69.5" rx="3.75" stroke="#E4E6EA" stroke-width="0.5"/>
<rect x="98.25" y="333.25" width="130.5" height="26.5" rx="3.75" stroke="#E4E6EA" stroke-width="0.5"/>
<rect x="83" y="401" width="315" height="41" rx="6" fill="#0900FF"/>
<path d="M193.572 427.14C192.853 427.14 192.191 427.019 191.584 426.776C190.987 426.524 190.464 426.174 190.016 425.726C189.577 425.269 189.237 424.732 188.994 424.116C188.751 423.491 188.63 422.809 188.63 422.072C188.63 421.353 188.756 420.691 189.008 420.084C189.26 419.468 189.615 418.936 190.072 418.488C190.529 418.031 191.066 417.676 191.682 417.424C192.298 417.172 192.965 417.046 193.684 417.046C194.151 417.046 194.608 417.111 195.056 417.242C195.513 417.363 195.929 417.545 196.302 417.788C196.685 418.031 197.011 418.32 197.282 418.656L195.966 420.112C195.751 419.888 195.523 419.697 195.28 419.538C195.037 419.37 194.781 419.244 194.51 419.16C194.249 419.067 193.969 419.02 193.67 419.02C193.269 419.02 192.891 419.095 192.536 419.244C192.191 419.393 191.887 419.603 191.626 419.874C191.365 420.135 191.155 420.457 190.996 420.84C190.847 421.213 190.772 421.629 190.772 422.086C190.772 422.553 190.847 422.977 190.996 423.36C191.145 423.733 191.355 424.055 191.626 424.326C191.897 424.587 192.219 424.793 192.592 424.942C192.975 425.082 193.395 425.152 193.852 425.152C194.151 425.152 194.44 425.11 194.72 425.026C195 424.942 195.257 424.825 195.49 424.676C195.733 424.527 195.947 424.354 196.134 424.158L197.17 425.796C196.937 426.048 196.629 426.277 196.246 426.482C195.873 426.687 195.453 426.851 194.986 426.972C194.519 427.084 194.048 427.14 193.572 427.14ZM198.646 427V419.594H200.564L200.634 421.974L200.298 421.484C200.41 421.101 200.592 420.756 200.844 420.448C201.096 420.131 201.39 419.883 201.726 419.706C202.072 419.529 202.431 419.44 202.804 419.44C202.963 419.44 203.117 419.454 203.266 419.482C203.416 419.51 203.542 419.543 203.644 419.58L203.112 421.764C203.01 421.708 202.874 421.661 202.706 421.624C202.548 421.577 202.384 421.554 202.216 421.554C201.992 421.554 201.782 421.596 201.586 421.68C201.4 421.755 201.236 421.867 201.096 422.016C200.956 422.156 200.844 422.324 200.76 422.52C200.686 422.716 200.648 422.931 200.648 423.164V427H198.646ZM207.985 427.14C207.182 427.14 206.477 426.977 205.871 426.65C205.273 426.323 204.807 425.875 204.471 425.306C204.144 424.737 203.981 424.083 203.981 423.346C203.981 422.767 204.074 422.24 204.261 421.764C204.447 421.288 204.709 420.877 205.045 420.532C205.381 420.177 205.777 419.907 206.235 419.72C206.701 419.524 207.205 419.426 207.747 419.426C208.251 419.426 208.717 419.519 209.147 419.706C209.576 419.893 209.945 420.154 210.253 420.49C210.57 420.817 210.813 421.209 210.981 421.666C211.149 422.114 211.223 422.599 211.205 423.122L211.191 423.738H205.241L204.919 422.52H209.553L209.329 422.772V422.464C209.31 422.212 209.226 421.988 209.077 421.792C208.937 421.587 208.755 421.428 208.531 421.316C208.307 421.195 208.055 421.134 207.775 421.134C207.364 421.134 207.014 421.213 206.725 421.372C206.445 421.531 206.23 421.764 206.081 422.072C205.931 422.38 205.857 422.753 205.857 423.192C205.857 423.64 205.95 424.027 206.137 424.354C206.333 424.681 206.603 424.937 206.949 425.124C207.303 425.301 207.719 425.39 208.195 425.39C208.521 425.39 208.82 425.339 209.091 425.236C209.361 425.133 209.651 424.956 209.959 424.704L210.911 426.034C210.64 426.277 210.341 426.482 210.015 426.65C209.688 426.809 209.352 426.93 209.007 427.014C208.661 427.098 208.321 427.14 207.985 427.14ZM215.446 427.14C214.83 427.14 214.274 426.972 213.78 426.636C213.285 426.3 212.893 425.843 212.604 425.264C212.314 424.685 212.17 424.023 212.17 423.276C212.17 422.529 212.314 421.867 212.604 421.288C212.902 420.709 213.304 420.257 213.808 419.93C214.312 419.603 214.886 419.44 215.53 419.44C215.894 419.44 216.225 419.496 216.524 419.608C216.832 419.711 217.098 419.855 217.322 420.042C217.555 420.229 217.751 420.443 217.91 420.686C218.068 420.929 218.18 421.19 218.246 421.47L217.826 421.4V419.594H219.8V427H217.798V425.222L218.246 425.18C218.171 425.441 218.05 425.689 217.882 425.922C217.714 426.155 217.504 426.365 217.252 426.552C217.009 426.729 216.734 426.874 216.426 426.986C216.118 427.089 215.791 427.14 215.446 427.14ZM215.992 425.418C216.365 425.418 216.692 425.329 216.972 425.152C217.252 424.975 217.466 424.727 217.616 424.41C217.774 424.083 217.854 423.705 217.854 423.276C217.854 422.856 217.774 422.487 217.616 422.17C217.466 421.853 217.252 421.605 216.972 421.428C216.692 421.241 216.365 421.148 215.992 421.148C215.628 421.148 215.306 421.241 215.026 421.428C214.755 421.605 214.54 421.853 214.382 422.17C214.223 422.487 214.144 422.856 214.144 423.276C214.144 423.705 214.223 424.083 214.382 424.41C214.54 424.727 214.755 424.975 215.026 425.152C215.306 425.329 215.628 425.418 215.992 425.418ZM222.507 427V417.718H224.495V427H222.507ZM221.121 421.372V419.594H226.021V421.372H221.121ZM230.748 427.14C229.946 427.14 229.241 426.977 228.634 426.65C228.037 426.323 227.57 425.875 227.234 425.306C226.908 424.737 226.744 424.083 226.744 423.346C226.744 422.767 226.838 422.24 227.024 421.764C227.211 421.288 227.472 420.877 227.808 420.532C228.144 420.177 228.541 419.907 228.998 419.72C229.465 419.524 229.969 419.426 230.51 419.426C231.014 419.426 231.481 419.519 231.91 419.706C232.34 419.893 232.708 420.154 233.016 420.49C233.334 420.817 233.576 421.209 233.744 421.666C233.912 422.114 233.987 422.599 233.968 423.122L233.954 423.738H228.004L227.682 422.52H232.316L232.092 422.772V422.464C232.074 422.212 231.99 421.988 231.84 421.792C231.7 421.587 231.518 421.428 231.294 421.316C231.07 421.195 230.818 421.134 230.538 421.134C230.128 421.134 229.778 421.213 229.488 421.372C229.208 421.531 228.994 421.764 228.844 422.072C228.695 422.38 228.62 422.753 228.62 423.192C228.62 423.64 228.714 424.027 228.9 424.354C229.096 424.681 229.367 424.937 229.712 425.124C230.067 425.301 230.482 425.39 230.958 425.39C231.285 425.39 231.584 425.339 231.854 425.236C232.125 425.133 232.414 424.956 232.722 424.704L233.674 426.034C233.404 426.277 233.105 426.482 232.778 426.65C232.452 426.809 232.116 426.93 231.77 427.014C231.425 427.098 231.084 427.14 230.748 427.14ZM244.308 427.14C243.59 427.14 242.927 427.019 242.32 426.776C241.723 426.524 241.2 426.174 240.752 425.726C240.314 425.269 239.973 424.732 239.73 424.116C239.488 423.491 239.366 422.809 239.366 422.072C239.366 421.353 239.492 420.691 239.744 420.084C239.996 419.468 240.351 418.936 240.808 418.488C241.266 418.031 241.802 417.676 242.418 417.424C243.034 417.172 243.702 417.046 244.42 417.046C244.887 417.046 245.344 417.111 245.792 417.242C246.25 417.363 246.665 417.545 247.038 417.788C247.421 418.031 247.748 418.32 248.018 418.656L246.702 420.112C246.488 419.888 246.259 419.697 246.016 419.538C245.774 419.37 245.517 419.244 245.246 419.16C244.985 419.067 244.705 419.02 244.406 419.02C244.005 419.02 243.627 419.095 243.272 419.244C242.927 419.393 242.624 419.603 242.362 419.874C242.101 420.135 241.891 420.457 241.732 420.84C241.583 421.213 241.508 421.629 241.508 422.086C241.508 422.553 241.583 422.977 241.732 423.36C241.882 423.733 242.092 424.055 242.362 424.326C242.633 424.587 242.955 424.793 243.328 424.942C243.711 425.082 244.131 425.152 244.588 425.152C244.887 425.152 245.176 425.11 245.456 425.026C245.736 424.942 245.993 424.825 246.226 424.676C246.469 424.527 246.684 424.354 246.87 424.158L247.906 425.796C247.673 426.048 247.365 426.277 246.982 426.482C246.609 426.687 246.189 426.851 245.722 426.972C245.256 427.084 244.784 427.14 244.308 427.14ZM252.827 427.14C252.071 427.14 251.394 426.977 250.797 426.65C250.209 426.314 249.742 425.857 249.397 425.278C249.061 424.699 248.893 424.037 248.893 423.29C248.893 422.543 249.061 421.881 249.397 421.302C249.742 420.723 250.209 420.271 250.797 419.944C251.394 419.608 252.071 419.44 252.827 419.44C253.573 419.44 254.241 419.608 254.829 419.944C255.426 420.271 255.893 420.723 256.229 421.302C256.565 421.881 256.733 422.543 256.733 423.29C256.733 424.037 256.565 424.699 256.229 425.278C255.893 425.857 255.426 426.314 254.829 426.65C254.241 426.977 253.573 427.14 252.827 427.14ZM252.827 425.404C253.191 425.404 253.517 425.315 253.807 425.138C254.096 424.951 254.32 424.699 254.479 424.382C254.647 424.055 254.726 423.691 254.717 423.29C254.726 422.879 254.647 422.515 254.479 422.198C254.32 421.871 254.096 421.619 253.807 421.442C253.517 421.255 253.191 421.162 252.827 421.162C252.453 421.162 252.122 421.255 251.833 421.442C251.543 421.629 251.315 421.881 251.147 422.198C250.979 422.515 250.899 422.879 250.909 423.29C250.899 423.691 250.979 424.055 251.147 424.382C251.315 424.699 251.543 424.951 251.833 425.138C252.122 425.315 252.453 425.404 252.827 425.404ZM260.79 427.14C260.249 427.14 259.782 427.023 259.39 426.79C259.007 426.547 258.709 426.207 258.494 425.768C258.289 425.32 258.186 424.783 258.186 424.158V419.594H260.174V423.836C260.174 424.172 260.23 424.466 260.342 424.718C260.454 424.961 260.613 425.147 260.818 425.278C261.023 425.409 261.275 425.474 261.574 425.474C261.789 425.474 261.985 425.441 262.162 425.376C262.349 425.301 262.507 425.199 262.638 425.068C262.778 424.937 262.885 424.783 262.96 424.606C263.035 424.429 263.072 424.237 263.072 424.032V419.594H265.06V427H263.17L263.1 425.474L263.464 425.306C263.352 425.651 263.165 425.964 262.904 426.244C262.643 426.524 262.33 426.743 261.966 426.902C261.602 427.061 261.21 427.14 260.79 427.14ZM267.06 430.08V419.594H268.978L269.034 421.26L268.67 421.134C268.736 420.835 268.894 420.56 269.146 420.308C269.408 420.056 269.73 419.851 270.112 419.692C270.495 419.533 270.896 419.454 271.316 419.454C271.96 419.454 272.534 419.622 273.038 419.958C273.542 420.285 273.939 420.737 274.228 421.316C274.518 421.885 274.662 422.543 274.662 423.29C274.662 424.027 274.518 424.685 274.228 425.264C273.939 425.843 273.542 426.3 273.038 426.636C272.534 426.963 271.96 427.126 271.316 427.126C270.887 427.126 270.476 427.047 270.084 426.888C269.702 426.72 269.375 426.501 269.104 426.23C268.843 425.959 268.675 425.67 268.6 425.362L269.062 425.166V430.08H267.06ZM270.868 425.418C271.232 425.418 271.554 425.329 271.834 425.152C272.114 424.975 272.334 424.727 272.492 424.41C272.651 424.083 272.73 423.71 272.73 423.29C272.73 422.87 272.651 422.501 272.492 422.184C272.334 421.867 272.114 421.619 271.834 421.442C271.564 421.265 271.242 421.176 270.868 421.176C270.495 421.176 270.168 421.265 269.888 421.442C269.608 421.61 269.389 421.857 269.23 422.184C269.072 422.501 268.992 422.87 268.992 423.29C268.992 423.71 269.072 424.083 269.23 424.41C269.389 424.727 269.608 424.975 269.888 425.152C270.168 425.329 270.495 425.418 270.868 425.418ZM279.61 427.14C278.854 427.14 278.177 426.977 277.58 426.65C276.992 426.314 276.525 425.857 276.18 425.278C275.844 424.699 275.676 424.037 275.676 423.29C275.676 422.543 275.844 421.881 276.18 421.302C276.525 420.723 276.992 420.271 277.58 419.944C278.177 419.608 278.854 419.44 279.61 419.44C280.357 419.44 281.024 419.608 281.612 419.944C282.209 420.271 282.676 420.723 283.012 421.302C283.348 421.881 283.516 422.543 283.516 423.29C283.516 424.037 283.348 424.699 283.012 425.278C282.676 425.857 282.209 426.314 281.612 426.65C281.024 426.977 280.357 427.14 279.61 427.14ZM279.61 425.404C279.974 425.404 280.301 425.315 280.59 425.138C280.879 424.951 281.103 424.699 281.262 424.382C281.43 424.055 281.509 423.691 281.5 423.29C281.509 422.879 281.43 422.515 281.262 422.198C281.103 421.871 280.879 421.619 280.59 421.442C280.301 421.255 279.974 421.162 279.61 421.162C279.237 421.162 278.905 421.255 278.616 421.442C278.327 421.629 278.098 421.881 277.93 422.198C277.762 422.515 277.683 422.879 277.692 423.29C277.683 423.691 277.762 424.055 277.93 424.382C278.098 424.699 278.327 424.951 278.616 425.138C278.905 425.315 279.237 425.404 279.61 425.404ZM285.025 427V419.594H286.929L286.985 421.106L286.593 421.274C286.696 420.938 286.878 420.635 287.139 420.364C287.41 420.084 287.732 419.86 288.105 419.692C288.479 419.524 288.871 419.44 289.281 419.44C289.841 419.44 290.308 419.552 290.681 419.776C291.064 420 291.349 420.341 291.535 420.798C291.731 421.246 291.829 421.801 291.829 422.464V427H289.841V422.618C289.841 422.282 289.795 422.002 289.701 421.778C289.608 421.554 289.463 421.391 289.267 421.288C289.081 421.185 288.847 421.139 288.567 421.148C288.343 421.148 288.133 421.185 287.937 421.26C287.751 421.325 287.587 421.423 287.447 421.554C287.317 421.685 287.209 421.834 287.125 422.002C287.051 422.17 287.013 422.352 287.013 422.548V427H286.033C285.819 427 285.627 427 285.459 427C285.291 427 285.147 427 285.025 427Z" fill="white"/>
<rect x="106" y="343" width="77" height="7" rx="3.5" fill="#E4E6EA"/>
<path d="M209 344L214.5 349.5L220 344" stroke="#999999" stroke-linecap="round"/>
</g>
<defs>
<clipPath id="clip0_189_671">
<rect width="480" height="540" fill="white"/>
</clipPath>
</defs>
</svg>
