<svg width="480" height="540" viewBox="0 0 480 540" fill="none" xmlns="http://www.w3.org/2000/svg">
<path d="M85 76H396C405.389 76 413 83.6112 413 93V447C413 456.389 405.389 464 396 464H85C75.6111 464 68 456.389 68 447V93C68 83.6112 75.6111 76 85 76Z" fill="#F1F5F7"/>
<path d="M84.911 121V106.3H90.938C92.016 106.3 92.989 106.482 93.857 106.846C94.739 107.196 95.495 107.7 96.125 108.358C96.769 109.002 97.259 109.772 97.595 110.668C97.931 111.564 98.099 112.558 98.099 113.65C98.099 114.728 97.931 115.722 97.595 116.632C97.259 117.528 96.776 118.305 96.146 118.963C95.516 119.607 94.76 120.111 93.878 120.475C92.996 120.825 92.016 121 90.938 121H84.911ZM88.061 118.711L87.725 118.165H90.833C91.463 118.165 92.03 118.06 92.534 117.85C93.038 117.626 93.465 117.325 93.815 116.947C94.179 116.555 94.452 116.079 94.634 115.519C94.816 114.959 94.907 114.336 94.907 113.65C94.907 112.964 94.816 112.348 94.634 111.802C94.452 111.242 94.179 110.766 93.815 110.374C93.465 109.982 93.038 109.681 92.534 109.471C92.03 109.247 91.463 109.135 90.833 109.135H87.662L88.061 108.631V118.711ZM105.694 121.21C104.56 121.21 103.545 120.965 102.649 120.475C101.767 119.971 101.067 119.285 100.549 118.417C100.045 117.549 99.7931 116.555 99.7931 115.435C99.7931 114.315 100.045 113.321 100.549 112.453C101.067 111.585 101.767 110.906 102.649 110.416C103.545 109.912 104.56 109.66 105.694 109.66C106.814 109.66 107.815 109.912 108.697 110.416C109.593 110.906 110.293 111.585 110.797 112.453C111.301 113.321 111.553 114.315 111.553 115.435C111.553 116.555 111.301 117.549 110.797 118.417C110.293 119.285 109.593 119.971 108.697 120.475C107.815 120.965 106.814 121.21 105.694 121.21ZM105.694 118.606C106.24 118.606 106.73 118.473 107.164 118.207C107.598 117.927 107.934 117.549 108.172 117.073C108.424 116.583 108.543 116.037 108.529 115.435C108.543 114.819 108.424 114.273 108.172 113.797C107.934 113.307 107.598 112.929 107.164 112.663C106.73 112.383 106.24 112.243 105.694 112.243C105.134 112.243 104.637 112.383 104.203 112.663C103.769 112.943 103.426 113.321 103.174 113.797C102.922 114.273 102.803 114.819 102.817 115.435C102.803 116.037 102.922 116.583 103.174 117.073C103.426 117.549 103.769 117.927 104.203 118.207C104.637 118.473 105.134 118.606 105.694 118.606ZM118.647 121.21C117.583 121.21 116.631 120.958 115.791 120.454C114.951 119.95 114.286 119.264 113.796 118.396C113.32 117.528 113.082 116.541 113.082 115.435C113.082 114.329 113.32 113.342 113.796 112.474C114.286 111.606 114.951 110.92 115.791 110.416C116.631 109.912 117.583 109.66 118.647 109.66C119.641 109.66 120.551 109.842 121.377 110.206C122.203 110.57 122.847 111.074 123.309 111.718L121.671 113.692C121.475 113.426 121.23 113.188 120.936 112.978C120.642 112.754 120.32 112.579 119.97 112.453C119.634 112.327 119.284 112.264 118.92 112.264C118.346 112.264 117.835 112.404 117.387 112.684C116.953 112.95 116.61 113.321 116.358 113.797C116.106 114.273 115.98 114.819 115.98 115.435C115.98 116.023 116.106 116.555 116.358 117.031C116.624 117.507 116.981 117.885 117.429 118.165C117.877 118.445 118.381 118.585 118.941 118.585C119.305 118.585 119.648 118.536 119.97 118.438C120.292 118.34 120.593 118.186 120.873 117.976C121.167 117.766 121.433 117.514 121.671 117.22L123.288 119.194C122.826 119.796 122.168 120.286 121.314 120.664C120.474 121.028 119.585 121.21 118.647 121.21ZM129.021 121.21C128.209 121.21 127.509 121.035 126.921 120.685C126.347 120.321 125.899 119.81 125.577 119.152C125.269 118.48 125.115 117.675 125.115 116.737V109.891H128.097V116.254C128.097 116.758 128.181 117.199 128.349 117.577C128.517 117.941 128.755 118.221 129.063 118.417C129.371 118.613 129.749 118.711 130.197 118.711C130.519 118.711 130.813 118.662 131.079 118.564C131.359 118.452 131.597 118.298 131.793 118.102C132.003 117.906 132.164 117.675 132.276 117.409C132.388 117.143 132.444 116.856 132.444 116.548V109.891H135.426V121H132.591L132.486 118.711L133.032 118.459C132.864 118.977 132.584 119.446 132.192 119.866C131.8 120.286 131.331 120.615 130.785 120.853C130.239 121.091 129.651 121.21 129.021 121.21ZM138.406 121V109.891H141.283L141.346 112.012L140.905 112.096C141.059 111.732 141.262 111.403 141.514 111.109C141.78 110.815 142.081 110.563 142.417 110.353C142.753 110.143 143.11 109.982 143.488 109.87C143.866 109.744 144.244 109.681 144.622 109.681C145.196 109.681 145.714 109.772 146.176 109.954C146.638 110.136 147.03 110.423 147.352 110.815C147.674 111.193 147.926 111.697 148.108 112.327L147.646 112.285L147.793 111.949C147.975 111.613 148.206 111.305 148.486 111.025C148.766 110.745 149.081 110.507 149.431 110.311C149.781 110.115 150.145 109.961 150.523 109.849C150.901 109.737 151.272 109.681 151.636 109.681C152.504 109.681 153.225 109.856 153.799 110.206C154.373 110.542 154.8 111.053 155.08 111.739C155.374 112.425 155.521 113.265 155.521 114.259V121H152.539V114.469C152.539 113.965 152.469 113.552 152.329 113.23C152.189 112.908 151.986 112.67 151.72 112.516C151.454 112.348 151.111 112.264 150.691 112.264C150.369 112.264 150.068 112.32 149.788 112.432C149.522 112.53 149.284 112.677 149.074 112.873C148.878 113.055 148.724 113.279 148.612 113.545C148.5 113.797 148.444 114.07 148.444 114.364V121H145.441V114.448C145.441 113.986 145.371 113.594 145.231 113.272C145.091 112.936 144.888 112.684 144.622 112.516C144.356 112.348 144.027 112.264 143.635 112.264C143.313 112.264 143.012 112.32 142.732 112.432C142.466 112.53 142.235 112.677 142.039 112.873C141.843 113.055 141.689 113.272 141.577 113.524C141.465 113.776 141.409 114.049 141.409 114.343V121H138.406ZM163.631 121.21C162.427 121.21 161.37 120.965 160.46 120.475C159.564 119.985 158.864 119.313 158.36 118.459C157.87 117.605 157.625 116.625 157.625 115.519C157.625 114.651 157.765 113.86 158.045 113.146C158.325 112.432 158.717 111.816 159.221 111.298C159.725 110.766 160.32 110.36 161.006 110.08C161.706 109.786 162.462 109.639 163.274 109.639C164.03 109.639 164.73 109.779 165.374 110.059C166.018 110.339 166.571 110.731 167.033 111.235C167.509 111.725 167.873 112.313 168.125 112.999C168.377 113.671 168.489 114.399 168.461 115.183L168.44 116.107H159.515L159.032 114.28H165.983L165.647 114.658V114.196C165.619 113.818 165.493 113.482 165.269 113.188C165.059 112.88 164.786 112.642 164.45 112.474C164.114 112.292 163.736 112.201 163.316 112.201C162.7 112.201 162.175 112.32 161.741 112.558C161.321 112.796 160.999 113.146 160.775 113.608C160.551 114.07 160.439 114.63 160.439 115.288C160.439 115.96 160.579 116.541 160.859 117.031C161.153 117.521 161.559 117.906 162.077 118.186C162.609 118.452 163.232 118.585 163.946 118.585C164.436 118.585 164.884 118.508 165.29 118.354C165.696 118.2 166.13 117.934 166.592 117.556L168.02 119.551C167.614 119.915 167.166 120.223 166.676 120.475C166.186 120.713 165.682 120.895 165.164 121.021C164.646 121.147 164.135 121.21 163.631 121.21ZM170.665 121V109.891H173.521L173.605 112.159L173.017 112.411C173.171 111.907 173.444 111.452 173.836 111.046C174.242 110.626 174.725 110.29 175.285 110.038C175.845 109.786 176.433 109.66 177.049 109.66C177.889 109.66 178.589 109.828 179.149 110.164C179.723 110.5 180.15 111.011 180.43 111.697C180.724 112.369 180.871 113.202 180.871 114.196V121H177.889V114.427C177.889 113.923 177.819 113.503 177.679 113.167C177.539 112.831 177.322 112.586 177.028 112.432C176.748 112.278 176.398 112.208 175.978 112.222C175.642 112.222 175.327 112.278 175.033 112.39C174.753 112.488 174.508 112.635 174.298 112.831C174.102 113.027 173.941 113.251 173.815 113.503C173.703 113.755 173.647 114.028 173.647 114.322V121H172.177C171.855 121 171.568 121 171.316 121C171.064 121 170.847 121 170.665 121ZM184.799 121V107.077H187.781V121H184.799ZM182.72 112.558V109.891H190.07V112.558H182.72ZM198.852 121V106.3H201.729L207.084 115.015L205.194 114.994L210.612 106.3H213.363V121H210.276V115.96C210.276 114.7 210.304 113.566 210.36 112.558C210.43 111.55 210.542 110.549 210.696 109.555L211.074 110.542L206.769 117.22H205.383L201.162 110.584L201.519 109.555C201.673 110.493 201.778 111.459 201.834 112.453C201.904 113.433 201.939 114.602 201.939 115.96V121H198.852ZM220.924 121.21C220 121.21 219.167 120.958 218.425 120.454C217.683 119.95 217.095 119.264 216.661 118.396C216.227 117.528 216.01 116.534 216.01 115.414C216.01 114.294 216.227 113.3 216.661 112.432C217.109 111.564 217.711 110.885 218.467 110.395C219.223 109.905 220.084 109.66 221.05 109.66C221.596 109.66 222.093 109.744 222.541 109.912C223.003 110.066 223.402 110.283 223.738 110.563C224.088 110.843 224.382 111.165 224.62 111.529C224.858 111.893 225.026 112.285 225.124 112.705L224.494 112.6V109.891H227.455V121H224.452V118.333L225.124 118.27C225.012 118.662 224.83 119.033 224.578 119.383C224.326 119.733 224.011 120.048 223.633 120.328C223.269 120.594 222.856 120.811 222.394 120.979C221.932 121.133 221.442 121.21 220.924 121.21ZM221.743 118.627C222.303 118.627 222.793 118.494 223.213 118.228C223.633 117.962 223.955 117.591 224.179 117.115C224.417 116.625 224.536 116.058 224.536 115.414C224.536 114.784 224.417 114.231 224.179 113.755C223.955 113.279 223.633 112.908 223.213 112.642C222.793 112.362 222.303 112.222 221.743 112.222C221.197 112.222 220.714 112.362 220.294 112.642C219.888 112.908 219.566 113.279 219.328 113.755C219.09 114.231 218.971 114.784 218.971 115.414C218.971 116.058 219.09 116.625 219.328 117.115C219.566 117.591 219.888 117.962 220.294 118.228C220.714 118.494 221.197 118.627 221.743 118.627ZM230.445 121V109.891H233.301L233.385 112.159L232.797 112.411C232.951 111.907 233.224 111.452 233.616 111.046C234.022 110.626 234.505 110.29 235.065 110.038C235.625 109.786 236.213 109.66 236.829 109.66C237.669 109.66 238.369 109.828 238.929 110.164C239.503 110.5 239.93 111.011 240.21 111.697C240.504 112.369 240.651 113.202 240.651 114.196V121H237.669V114.427C237.669 113.923 237.599 113.503 237.459 113.167C237.319 112.831 237.102 112.586 236.808 112.432C236.528 112.278 236.178 112.208 235.758 112.222C235.422 112.222 235.107 112.278 234.813 112.39C234.533 112.488 234.288 112.635 234.078 112.831C233.882 113.027 233.721 113.251 233.595 113.503C233.483 113.755 233.427 114.028 233.427 114.322V121H231.957C231.635 121 231.348 121 231.096 121C230.844 121 230.627 121 230.445 121ZM247.667 121.21C246.743 121.21 245.91 120.958 245.168 120.454C244.426 119.95 243.838 119.264 243.404 118.396C242.97 117.528 242.753 116.534 242.753 115.414C242.753 114.294 242.97 113.3 243.404 112.432C243.852 111.564 244.454 110.885 245.21 110.395C245.966 109.905 246.827 109.66 247.793 109.66C248.339 109.66 248.836 109.744 249.284 109.912C249.746 110.066 250.145 110.283 250.481 110.563C250.831 110.843 251.125 111.165 251.363 111.529C251.601 111.893 251.769 112.285 251.867 112.705L251.237 112.6V109.891H254.198V121H251.195V118.333L251.867 118.27C251.755 118.662 251.573 119.033 251.321 119.383C251.069 119.733 250.754 120.048 250.376 120.328C250.012 120.594 249.599 120.811 249.137 120.979C248.675 121.133 248.185 121.21 247.667 121.21ZM248.486 118.627C249.046 118.627 249.536 118.494 249.956 118.228C250.376 117.962 250.698 117.591 250.922 117.115C251.16 116.625 251.279 116.058 251.279 115.414C251.279 114.784 251.16 114.231 250.922 113.755C250.698 113.279 250.376 112.908 249.956 112.642C249.536 112.362 249.046 112.222 248.486 112.222C247.94 112.222 247.457 112.362 247.037 112.642C246.631 112.908 246.309 113.279 246.071 113.755C245.833 114.231 245.714 114.784 245.714 115.414C245.714 116.058 245.833 116.625 246.071 117.115C246.309 117.591 246.631 117.962 247.037 118.228C247.457 118.494 247.94 118.627 248.486 118.627ZM262.248 125.83C261.366 125.83 260.498 125.697 259.644 125.431C258.79 125.179 258.09 124.843 257.544 124.423L258.615 122.302C258.895 122.498 259.217 122.673 259.581 122.827C259.945 122.981 260.323 123.1 260.715 123.184C261.121 123.268 261.534 123.31 261.954 123.31C262.682 123.31 263.277 123.198 263.739 122.974C264.215 122.75 264.572 122.414 264.81 121.966C265.048 121.518 265.167 120.958 265.167 120.286V118.354L265.671 118.459C265.587 118.921 265.349 119.348 264.957 119.74C264.579 120.118 264.103 120.426 263.529 120.664C262.969 120.888 262.381 121 261.765 121C260.743 121 259.833 120.762 259.035 120.286C258.237 119.81 257.607 119.152 257.145 118.312C256.683 117.472 256.452 116.499 256.452 115.393C256.452 114.287 256.676 113.307 257.124 112.453C257.586 111.585 258.209 110.906 258.993 110.416C259.791 109.912 260.694 109.66 261.702 109.66C262.122 109.66 262.521 109.709 262.899 109.807C263.291 109.905 263.648 110.045 263.97 110.227C264.306 110.395 264.6 110.591 264.852 110.815C265.118 111.025 265.335 111.256 265.503 111.508C265.671 111.76 265.776 112.012 265.818 112.264L265.209 112.432L265.293 109.891H268.149V120.16C268.149 121.07 268.016 121.875 267.75 122.575C267.484 123.275 267.092 123.863 266.574 124.339C266.07 124.829 265.447 125.2 264.705 125.452C263.977 125.704 263.158 125.83 262.248 125.83ZM262.332 118.606C262.92 118.606 263.431 118.473 263.865 118.207C264.313 117.941 264.656 117.57 264.894 117.094C265.132 116.618 265.251 116.058 265.251 115.414C265.251 114.784 265.132 114.231 264.894 113.755C264.656 113.265 264.313 112.887 263.865 112.621C263.431 112.355 262.92 112.222 262.332 112.222C261.758 112.222 261.254 112.362 260.82 112.642C260.386 112.908 260.043 113.286 259.791 113.776C259.553 114.252 259.434 114.798 259.434 115.414C259.434 116.044 259.553 116.604 259.791 117.094C260.043 117.57 260.386 117.941 260.82 118.207C261.254 118.473 261.758 118.606 262.332 118.606ZM276.383 121.21C275.179 121.21 274.122 120.965 273.212 120.475C272.316 119.985 271.616 119.313 271.112 118.459C270.622 117.605 270.377 116.625 270.377 115.519C270.377 114.651 270.517 113.86 270.797 113.146C271.077 112.432 271.469 111.816 271.973 111.298C272.477 110.766 273.072 110.36 273.758 110.08C274.458 109.786 275.214 109.639 276.026 109.639C276.782 109.639 277.482 109.779 278.126 110.059C278.77 110.339 279.323 110.731 279.785 111.235C280.261 111.725 280.625 112.313 280.877 112.999C281.129 113.671 281.241 114.399 281.213 115.183L281.192 116.107H272.267L271.784 114.28H278.735L278.399 114.658V114.196C278.371 113.818 278.245 113.482 278.021 113.188C277.811 112.88 277.538 112.642 277.202 112.474C276.866 112.292 276.488 112.201 276.068 112.201C275.452 112.201 274.927 112.32 274.493 112.558C274.073 112.796 273.751 113.146 273.527 113.608C273.303 114.07 273.191 114.63 273.191 115.288C273.191 115.96 273.331 116.541 273.611 117.031C273.905 117.521 274.311 117.906 274.829 118.186C275.361 118.452 275.984 118.585 276.698 118.585C277.188 118.585 277.636 118.508 278.042 118.354C278.448 118.2 278.882 117.934 279.344 117.556L280.772 119.551C280.366 119.915 279.918 120.223 279.428 120.475C278.938 120.713 278.434 120.895 277.916 121.021C277.398 121.147 276.887 121.21 276.383 121.21ZM283.396 121V109.891H286.273L286.336 112.012L285.895 112.096C286.049 111.732 286.252 111.403 286.504 111.109C286.77 110.815 287.071 110.563 287.407 110.353C287.743 110.143 288.1 109.982 288.478 109.87C288.856 109.744 289.234 109.681 289.612 109.681C290.186 109.681 290.704 109.772 291.166 109.954C291.628 110.136 292.02 110.423 292.342 110.815C292.664 111.193 292.916 111.697 293.098 112.327L292.636 112.285L292.783 111.949C292.965 111.613 293.196 111.305 293.476 111.025C293.756 110.745 294.071 110.507 294.421 110.311C294.771 110.115 295.135 109.961 295.513 109.849C295.891 109.737 296.262 109.681 296.626 109.681C297.494 109.681 298.215 109.856 298.789 110.206C299.363 110.542 299.79 111.053 300.07 111.739C300.364 112.425 300.511 113.265 300.511 114.259V121H297.529V114.469C297.529 113.965 297.459 113.552 297.319 113.23C297.179 112.908 296.976 112.67 296.71 112.516C296.444 112.348 296.101 112.264 295.681 112.264C295.359 112.264 295.058 112.32 294.778 112.432C294.512 112.53 294.274 112.677 294.064 112.873C293.868 113.055 293.714 113.279 293.602 113.545C293.49 113.797 293.434 114.07 293.434 114.364V121H290.431V114.448C290.431 113.986 290.361 113.594 290.221 113.272C290.081 112.936 289.878 112.684 289.612 112.516C289.346 112.348 289.017 112.264 288.625 112.264C288.303 112.264 288.002 112.32 287.722 112.432C287.456 112.53 287.225 112.677 287.029 112.873C286.833 113.055 286.679 113.272 286.567 113.524C286.455 113.776 286.399 114.049 286.399 114.343V121H283.396ZM308.621 121.21C307.417 121.21 306.36 120.965 305.45 120.475C304.554 119.985 303.854 119.313 303.35 118.459C302.86 117.605 302.615 116.625 302.615 115.519C302.615 114.651 302.755 113.86 303.035 113.146C303.315 112.432 303.707 111.816 304.211 111.298C304.715 110.766 305.31 110.36 305.996 110.08C306.696 109.786 307.452 109.639 308.264 109.639C309.02 109.639 309.72 109.779 310.364 110.059C311.008 110.339 311.561 110.731 312.023 111.235C312.499 111.725 312.863 112.313 313.115 112.999C313.367 113.671 313.479 114.399 313.451 115.183L313.43 116.107H304.505L304.022 114.28H310.973L310.637 114.658V114.196C310.609 113.818 310.483 113.482 310.259 113.188C310.049 112.88 309.776 112.642 309.44 112.474C309.104 112.292 308.726 112.201 308.306 112.201C307.69 112.201 307.165 112.32 306.731 112.558C306.311 112.796 305.989 113.146 305.765 113.608C305.541 114.07 305.429 114.63 305.429 115.288C305.429 115.96 305.569 116.541 305.849 117.031C306.143 117.521 306.549 117.906 307.067 118.186C307.599 118.452 308.222 118.585 308.936 118.585C309.426 118.585 309.874 118.508 310.28 118.354C310.686 118.2 311.12 117.934 311.582 117.556L313.01 119.551C312.604 119.915 312.156 120.223 311.666 120.475C311.176 120.713 310.672 120.895 310.154 121.021C309.636 121.147 309.125 121.21 308.621 121.21ZM315.655 121V109.891H318.511L318.595 112.159L318.007 112.411C318.161 111.907 318.434 111.452 318.826 111.046C319.232 110.626 319.715 110.29 320.275 110.038C320.835 109.786 321.423 109.66 322.039 109.66C322.879 109.66 323.579 109.828 324.139 110.164C324.713 110.5 325.14 111.011 325.42 111.697C325.714 112.369 325.861 113.202 325.861 114.196V121H322.879V114.427C322.879 113.923 322.809 113.503 322.669 113.167C322.529 112.831 322.312 112.586 322.018 112.432C321.738 112.278 321.388 112.208 320.968 112.222C320.632 112.222 320.317 112.278 320.023 112.39C319.743 112.488 319.498 112.635 319.288 112.831C319.092 113.027 318.931 113.251 318.805 113.503C318.693 113.755 318.637 114.028 318.637 114.322V121H317.167C316.845 121 316.558 121 316.306 121C316.054 121 315.837 121 315.655 121ZM329.79 121V107.077H332.772V121H329.79ZM327.711 112.558V109.891H335.061V112.558H327.711Z" fill="black"/>
<rect x="157.136" y="150.136" width="147.727" height="294.318" rx="11.3636" fill="#F1F5F7" stroke="black" stroke-width="2.27272"/>
<g clip-path="url(#clip0_598_2695)">
<path d="M292.324 156.264H285.661C285.405 156.265 285.161 156.367 284.98 156.547C284.8 156.728 284.698 156.972 284.697 157.228V159.796C284.698 160.052 284.8 160.296 284.98 160.477C285.161 160.657 285.405 160.759 285.661 160.76H292.324C292.579 160.759 292.824 160.657 293.004 160.477C293.185 160.296 293.286 160.052 293.287 159.796V157.228C293.286 156.972 293.185 156.728 293.004 156.547C292.824 156.367 292.579 156.265 292.324 156.264ZM292.725 159.796C292.725 159.903 292.683 160.005 292.608 160.08C292.532 160.156 292.43 160.199 292.324 160.199H285.661C285.554 160.199 285.452 160.156 285.377 160.081C285.302 160.006 285.26 159.904 285.259 159.798V157.228C285.26 157.121 285.302 157.019 285.377 156.944C285.452 156.869 285.554 156.827 285.661 156.826H292.324C292.43 156.827 292.532 156.869 292.607 156.944C292.682 157.019 292.725 157.121 292.725 157.228V159.796Z" fill="black"/>
<path d="M293.688 157.48V159.544C294.009 159.544 294.33 158.988 294.33 158.512C294.33 158.036 294.009 157.48 293.688 157.48Z" fill="black"/>
<path d="M292.083 157.228H285.901C285.837 157.228 285.776 157.253 285.731 157.298C285.686 157.343 285.66 157.404 285.66 157.468V159.556C285.66 159.619 285.686 159.68 285.731 159.726C285.776 159.771 285.837 159.796 285.901 159.796H292.083C292.147 159.796 292.208 159.771 292.253 159.726C292.298 159.68 292.323 159.619 292.324 159.556V157.468C292.323 157.404 292.298 157.343 292.253 157.298C292.208 157.253 292.147 157.228 292.083 157.228Z" fill="black"/>
<path d="M283.055 157.497C282.193 156.704 281.066 156.264 279.895 156.264C278.724 156.264 277.596 156.704 276.735 157.497C276.719 157.512 276.706 157.53 276.697 157.549C276.689 157.569 276.684 157.59 276.684 157.612C276.683 157.633 276.687 157.655 276.696 157.675C276.704 157.695 276.716 157.713 276.731 157.728L277.075 158.069C277.105 158.098 277.145 158.115 277.186 158.116C277.228 158.116 277.269 158.101 277.3 158.072C278.009 157.425 278.935 157.066 279.895 157.066C280.855 157.066 281.781 157.425 282.49 158.072C282.521 158.101 282.561 158.116 282.603 158.115C282.645 158.115 282.685 158.098 282.715 158.069L283.059 157.728C283.074 157.713 283.086 157.695 283.094 157.675C283.103 157.655 283.107 157.633 283.106 157.612C283.106 157.59 283.101 157.569 283.092 157.549C283.083 157.529 283.071 157.512 283.055 157.497ZM279.895 159.475C279.768 159.475 279.644 159.513 279.538 159.583C279.433 159.654 279.35 159.754 279.302 159.872C279.253 159.989 279.24 160.118 279.265 160.243C279.29 160.367 279.351 160.482 279.441 160.572C279.531 160.661 279.645 160.723 279.77 160.747C279.894 160.772 280.023 160.759 280.141 160.711C280.258 160.662 280.358 160.58 280.429 160.474C280.5 160.369 280.537 160.244 280.537 160.117C280.537 159.947 280.47 159.784 280.349 159.663C280.229 159.543 280.065 159.475 279.895 159.475ZM281.93 158.636C281.368 158.142 280.645 157.87 279.896 157.87C279.148 157.87 278.425 158.142 277.862 158.636C277.846 158.651 277.833 158.669 277.824 158.688C277.814 158.708 277.809 158.73 277.809 158.751C277.808 158.773 277.812 158.795 277.821 158.815C277.829 158.835 277.841 158.854 277.857 158.869L278.202 159.21C278.231 159.239 278.271 159.256 278.312 159.258C278.353 159.259 278.394 159.245 278.425 159.218C278.835 158.866 279.357 158.672 279.897 158.672C280.438 158.672 280.96 158.866 281.37 159.218C281.401 159.245 281.442 159.259 281.483 159.258C281.524 159.256 281.563 159.239 281.593 159.21L281.938 158.869C281.954 158.853 281.966 158.835 281.974 158.815C281.982 158.794 281.985 158.773 281.985 158.751C281.984 158.729 281.979 158.708 281.969 158.688C281.96 158.668 281.946 158.651 281.93 158.636Z" fill="black"/>
<path d="M271.583 158.793H271.161C271.124 158.793 271.088 158.808 271.062 158.834C271.035 158.86 271.02 158.896 271.02 158.934V160.619C271.02 160.637 271.024 160.655 271.031 160.672C271.038 160.689 271.049 160.705 271.062 160.718C271.075 160.731 271.09 160.741 271.107 160.748C271.124 160.756 271.143 160.759 271.161 160.759H271.583C271.601 160.759 271.619 160.756 271.636 160.748C271.653 160.741 271.669 160.731 271.682 160.718C271.695 160.705 271.705 160.689 271.712 160.672C271.719 160.655 271.723 160.637 271.723 160.619V158.935C271.723 158.917 271.72 158.898 271.713 158.881C271.706 158.864 271.696 158.848 271.683 158.835C271.669 158.821 271.654 158.811 271.637 158.804C271.62 158.797 271.601 158.793 271.583 158.793ZM270.459 159.635H270.037C270 159.635 269.964 159.649 269.938 159.676C269.911 159.702 269.896 159.738 269.896 159.775V160.62C269.896 160.658 269.911 160.693 269.938 160.72C269.964 160.746 270 160.761 270.037 160.761H270.459C270.477 160.761 270.496 160.757 270.513 160.75C270.53 160.743 270.545 160.733 270.559 160.72C270.572 160.707 270.582 160.691 270.589 160.674C270.596 160.657 270.6 160.639 270.6 160.62V159.776C270.6 159.758 270.597 159.739 270.59 159.722C270.583 159.705 270.572 159.689 270.559 159.676C270.546 159.663 270.53 159.652 270.513 159.645C270.496 159.638 270.477 159.634 270.459 159.635ZM272.707 157.949H272.285C272.248 157.949 272.212 157.964 272.186 157.991C272.16 158.017 272.145 158.053 272.145 158.09V160.62C272.145 160.658 272.16 160.693 272.186 160.72C272.212 160.746 272.248 160.761 272.285 160.761H272.707C272.744 160.761 272.78 160.746 272.806 160.72C272.833 160.693 272.847 160.658 272.847 160.62V158.091C272.847 158.072 272.844 158.054 272.837 158.036C272.83 158.019 272.819 158.004 272.806 157.991C272.793 157.977 272.778 157.967 272.76 157.96C272.743 157.953 272.725 157.949 272.707 157.949ZM273.831 157.107H273.409C273.372 157.107 273.336 157.121 273.31 157.148C273.283 157.174 273.268 157.21 273.268 157.247V160.62C273.268 160.658 273.283 160.693 273.31 160.72C273.336 160.746 273.372 160.761 273.409 160.761H273.831C273.868 160.761 273.903 160.746 273.929 160.719C273.956 160.693 273.97 160.657 273.97 160.62V157.248C273.97 157.21 273.956 157.175 273.929 157.148C273.903 157.122 273.867 157.107 273.83 157.107L273.831 157.107ZM274.954 156.264H274.533C274.495 156.264 274.46 156.279 274.433 156.305C274.407 156.332 274.392 156.368 274.392 156.405V160.62C274.392 160.658 274.407 160.693 274.433 160.72C274.46 160.746 274.495 160.761 274.533 160.761H274.954C274.991 160.761 275.027 160.746 275.054 160.72C275.08 160.693 275.095 160.658 275.095 160.62V156.405C275.095 156.368 275.08 156.332 275.054 156.305C275.027 156.279 274.991 156.264 274.954 156.264Z" fill="black"/>
<path d="M169.274 159.026H169.255C169.15 159.077 169.026 159.102 168.883 159.102C168.762 159.102 168.64 159.082 168.516 159.04C168.392 158.999 168.279 158.935 168.177 158.85C168.079 158.76 167.998 158.649 167.934 158.516C167.871 158.379 167.839 158.218 167.839 158.034C167.839 157.85 167.869 157.687 167.929 157.547C167.993 157.404 168.077 157.285 168.182 157.19C168.287 157.094 168.41 157.023 168.549 156.975C168.689 156.924 168.839 156.899 168.998 156.899C169.157 156.899 169.306 156.924 169.446 156.975C169.586 157.026 169.708 157.099 169.813 157.195C169.918 157.29 170.001 157.404 170.061 157.538C170.125 157.671 170.157 157.821 170.157 157.986C170.157 158.091 170.149 158.187 170.133 158.272C170.117 158.358 170.093 158.441 170.061 158.52C170.033 158.597 169.998 158.673 169.956 158.749C169.915 158.826 169.869 158.904 169.818 158.983L168.964 160.333H168.425L169.274 159.026ZM169.699 158.001C169.699 157.899 169.681 157.805 169.646 157.719C169.615 157.633 169.567 157.56 169.503 157.5C169.443 157.436 169.37 157.387 169.284 157.352C169.198 157.317 169.103 157.299 168.998 157.299C168.893 157.299 168.797 157.317 168.712 157.352C168.626 157.387 168.551 157.436 168.487 157.5C168.427 157.56 168.379 157.633 168.344 157.719C168.313 157.805 168.297 157.899 168.297 158.001C168.297 158.102 168.313 158.196 168.344 158.282C168.379 158.368 168.427 158.443 168.487 158.506C168.551 158.567 168.626 158.614 168.712 158.649C168.797 158.684 168.893 158.702 168.998 158.702C169.103 158.702 169.198 158.684 169.284 158.649C169.37 158.614 169.443 158.567 169.503 158.506C169.567 158.443 169.615 158.368 169.646 158.282C169.681 158.196 169.699 158.102 169.699 158.001ZM170.985 158.673C170.899 158.673 170.824 158.643 170.761 158.582C170.7 158.519 170.67 158.444 170.67 158.358C170.67 158.272 170.7 158.199 170.761 158.139C170.824 158.075 170.899 158.043 170.985 158.043C171.071 158.043 171.144 158.075 171.204 158.139C171.268 158.199 171.3 158.272 171.3 158.358C171.3 158.444 171.268 158.519 171.204 158.582C171.144 158.643 171.071 158.673 170.985 158.673ZM170.67 160.047C170.67 159.961 170.7 159.888 170.761 159.827C170.824 159.764 170.899 159.732 170.985 159.732C171.071 159.732 171.144 159.764 171.204 159.827C171.268 159.888 171.3 159.961 171.3 160.047C171.3 160.132 171.268 160.207 171.204 160.271C171.144 160.331 171.071 160.361 170.985 160.361C170.899 160.361 170.824 160.331 170.761 160.271C170.7 160.207 170.67 160.132 170.67 160.047ZM173.252 159.589H171.812V159.121L173.157 156.956H173.71V159.188H174.187V159.589H173.71V160.333H173.252V159.589ZM173.252 157.5H173.242L172.212 159.188H173.252V157.5ZM175.587 157.481L174.967 158.053L174.7 157.733L175.64 156.956H176.045V160.333H175.587V157.481Z" fill="black"/>
</g>
<path d="M196.375 180.926C197.328 180.926 198.165 181.112 198.884 181.485C199.612 181.858 200.171 182.391 200.561 183.084C200.96 183.769 201.159 184.566 201.159 185.476C201.159 186.386 200.96 187.183 200.561 187.868C200.171 188.544 199.612 189.068 198.884 189.441C198.165 189.814 197.328 190 196.375 190H193.203V180.926H196.375ZM196.31 188.453C197.263 188.453 198 188.193 198.52 187.673C199.04 187.153 199.3 186.421 199.3 185.476C199.3 184.531 199.04 183.795 198.52 183.266C198 182.729 197.263 182.46 196.31 182.46H195.023V188.453H196.31ZM205.72 190.117C205.026 190.117 204.402 189.965 203.848 189.662C203.293 189.35 202.855 188.912 202.535 188.349C202.223 187.786 202.067 187.136 202.067 186.399C202.067 185.662 202.227 185.012 202.548 184.449C202.877 183.886 203.323 183.452 203.887 183.149C204.45 182.837 205.078 182.681 205.772 182.681C206.465 182.681 207.093 182.837 207.657 183.149C208.22 183.452 208.662 183.886 208.983 184.449C209.312 185.012 209.477 185.662 209.477 186.399C209.477 187.136 209.308 187.786 208.97 188.349C208.64 188.912 208.19 189.35 207.618 189.662C207.054 189.965 206.422 190.117 205.72 190.117ZM205.72 188.531C206.049 188.531 206.357 188.453 206.643 188.297C206.937 188.132 207.171 187.89 207.345 187.569C207.518 187.248 207.605 186.858 207.605 186.399C207.605 185.714 207.423 185.19 207.059 184.826C206.703 184.453 206.266 184.267 205.746 184.267C205.226 184.267 204.788 184.453 204.433 184.826C204.086 185.19 203.913 185.714 203.913 186.399C203.913 187.084 204.082 187.612 204.42 187.985C204.766 188.349 205.2 188.531 205.72 188.531ZM210.344 186.399C210.344 185.654 210.495 185.004 210.799 184.449C211.102 183.886 211.522 183.452 212.06 183.149C212.597 182.837 213.212 182.681 213.906 182.681C214.798 182.681 215.535 182.906 216.116 183.357C216.705 183.799 217.099 184.423 217.299 185.229H215.336C215.232 184.917 215.054 184.674 214.803 184.501C214.56 184.319 214.257 184.228 213.893 184.228C213.373 184.228 212.961 184.419 212.658 184.8C212.354 185.173 212.203 185.706 212.203 186.399C212.203 187.084 212.354 187.617 212.658 187.998C212.961 188.371 213.373 188.557 213.893 188.557C214.629 188.557 215.11 188.228 215.336 187.569H217.299C217.099 188.349 216.705 188.969 216.116 189.428C215.526 189.887 214.79 190.117 213.906 190.117C213.212 190.117 212.597 189.965 212.06 189.662C211.522 189.35 211.102 188.917 210.799 188.362C210.495 187.799 210.344 187.144 210.344 186.399ZM225.431 182.798V190H223.598V189.09C223.364 189.402 223.056 189.649 222.675 189.831C222.302 190.004 221.895 190.091 221.453 190.091C220.89 190.091 220.391 189.974 219.958 189.74C219.525 189.497 219.182 189.146 218.931 188.687C218.688 188.219 218.567 187.664 218.567 187.023V182.798H220.387V186.763C220.387 187.335 220.53 187.777 220.816 188.089C221.102 188.392 221.492 188.544 221.986 188.544C222.489 188.544 222.883 188.392 223.169 188.089C223.455 187.777 223.598 187.335 223.598 186.763V182.798H225.431ZM236.171 182.694C237.055 182.694 237.765 182.967 238.303 183.513C238.849 184.05 239.122 184.804 239.122 185.775V190H237.302V186.022C237.302 185.459 237.159 185.03 236.873 184.735C236.587 184.432 236.197 184.28 235.703 184.28C235.209 184.28 234.814 184.432 234.52 184.735C234.234 185.03 234.091 185.459 234.091 186.022V190H232.271V186.022C232.271 185.459 232.128 185.03 231.842 184.735C231.556 184.432 231.166 184.28 230.672 184.28C230.169 184.28 229.77 184.432 229.476 184.735C229.19 185.03 229.047 185.459 229.047 186.022V190H227.227V182.798H229.047V183.669C229.281 183.366 229.58 183.127 229.944 182.954C230.316 182.781 230.724 182.694 231.166 182.694C231.729 182.694 232.232 182.815 232.674 183.058C233.116 183.292 233.458 183.63 233.701 184.072C233.935 183.656 234.273 183.322 234.715 183.071C235.165 182.82 235.651 182.694 236.171 182.694ZM247.544 186.243C247.544 186.503 247.526 186.737 247.492 186.945H242.227C242.27 187.465 242.452 187.872 242.773 188.167C243.093 188.462 243.488 188.609 243.956 188.609C244.632 188.609 245.113 188.319 245.399 187.738H247.362C247.154 188.431 246.755 189.003 246.166 189.454C245.576 189.896 244.853 190.117 243.995 190.117C243.301 190.117 242.677 189.965 242.123 189.662C241.577 189.35 241.148 188.912 240.836 188.349C240.532 187.786 240.381 187.136 240.381 186.399C240.381 185.654 240.532 184.999 240.836 184.436C241.139 183.873 241.564 183.439 242.11 183.136C242.656 182.833 243.284 182.681 243.995 182.681C244.679 182.681 245.29 182.828 245.828 183.123C246.374 183.418 246.794 183.838 247.089 184.384C247.392 184.921 247.544 185.541 247.544 186.243ZM245.659 185.723C245.65 185.255 245.481 184.882 245.152 184.605C244.822 184.319 244.419 184.176 243.943 184.176C243.492 184.176 243.111 184.315 242.799 184.592C242.495 184.861 242.309 185.238 242.24 185.723H245.659ZM252.863 182.694C253.721 182.694 254.414 182.967 254.943 183.513C255.472 184.05 255.736 184.804 255.736 185.775V190H253.916V186.022C253.916 185.45 253.773 185.012 253.487 184.709C253.201 184.397 252.811 184.241 252.317 184.241C251.814 184.241 251.416 184.397 251.121 184.709C250.835 185.012 250.692 185.45 250.692 186.022V190H248.872V182.798H250.692V183.695C250.935 183.383 251.242 183.14 251.615 182.967C251.996 182.785 252.412 182.694 252.863 182.694ZM259.586 184.293V187.777C259.586 188.02 259.642 188.197 259.755 188.31C259.876 188.414 260.075 188.466 260.353 188.466H261.198V190H260.054C258.52 190 257.753 189.255 257.753 187.764V184.293H256.895V182.798H257.753V181.017H259.586V182.798H261.198V184.293H259.586ZM265.263 190.117C264.674 190.117 264.145 190.013 263.677 189.805C263.209 189.588 262.836 189.298 262.559 188.934C262.29 188.57 262.143 188.167 262.117 187.725H263.95C263.985 188.002 264.119 188.232 264.353 188.414C264.596 188.596 264.895 188.687 265.25 188.687C265.597 188.687 265.865 188.618 266.056 188.479C266.255 188.34 266.355 188.163 266.355 187.946C266.355 187.712 266.234 187.539 265.991 187.426C265.757 187.305 265.38 187.175 264.86 187.036C264.323 186.906 263.881 186.772 263.534 186.633C263.196 186.494 262.901 186.282 262.65 185.996C262.407 185.71 262.286 185.324 262.286 184.839C262.286 184.44 262.399 184.076 262.624 183.747C262.858 183.418 263.187 183.158 263.612 182.967C264.045 182.776 264.552 182.681 265.133 182.681C265.991 182.681 266.676 182.898 267.187 183.331C267.698 183.756 267.98 184.332 268.032 185.06H266.29C266.264 184.774 266.143 184.549 265.926 184.384C265.718 184.211 265.436 184.124 265.081 184.124C264.752 184.124 264.496 184.185 264.314 184.306C264.141 184.427 264.054 184.596 264.054 184.813C264.054 185.056 264.175 185.242 264.418 185.372C264.661 185.493 265.038 185.619 265.549 185.749C266.069 185.879 266.498 186.013 266.836 186.152C267.174 186.291 267.464 186.507 267.707 186.802C267.958 187.088 268.088 187.469 268.097 187.946C268.097 188.362 267.98 188.735 267.746 189.064C267.521 189.393 267.191 189.653 266.758 189.844C266.333 190.026 265.835 190.117 265.263 190.117Z" fill="#2C2C2C"/>
<path d="M168.809 184.992L172.781 181.218C172.922 181.084 173 180.902 173 180.713C173 180.524 172.92 180.342 172.779 180.208C172.639 180.075 172.448 180 172.249 180C172.05 180 171.859 180.076 171.719 180.21L167.218 184.492C167.082 184.622 167.004 184.797 167 184.98C166.996 185.164 167.067 185.341 167.197 185.477L171.715 189.79C171.856 189.924 172.047 190 172.245 190C172.444 190 172.635 189.925 172.776 189.792C172.917 189.658 172.996 189.476 172.997 189.287C172.997 189.098 172.918 188.916 172.778 188.782L168.809 184.992Z" fill="#2C2C2C"/>
<rect x="167" y="241" width="128" height="29" rx="5" fill="white"/>
<rect x="167" y="275" width="128" height="29" rx="5" fill="white"/>
<rect x="167" y="309" width="128" height="29" rx="5" fill="white"/>
<rect x="166" y="204" width="129" height="22" rx="4" fill="white"/>
<path d="M174.15 217L175.776 212.8H176.436L178.05 217H177.36L176.4 214.468C176.388 214.44 176.364 214.372 176.328 214.264C176.296 214.156 176.258 214.036 176.214 213.904C176.17 213.772 176.13 213.652 176.094 213.544C176.058 213.432 176.034 213.36 176.022 213.328L176.16 213.322C176.136 213.39 176.106 213.476 176.07 213.58C176.038 213.684 176.002 213.794 175.962 213.91C175.926 214.026 175.89 214.136 175.854 214.24C175.818 214.34 175.788 214.424 175.764 214.492L174.81 217H174.15ZM174.87 215.956L175.11 215.332H177.018L177.294 215.956H174.87ZM178.645 217V212.56H179.263V217H178.645ZM180.151 217V212.56H180.769V217H180.151Z" fill="#7A7A7A"/>
<path d="M203.588 217V212.8H204.224L205.754 215.29L205.448 215.284L206.996 212.8H207.596V217H206.948V215.278C206.948 214.918 206.956 214.594 206.972 214.306C206.992 214.018 207.024 213.732 207.068 213.448L207.152 213.67L205.778 215.794H205.382L204.05 213.694L204.116 213.448C204.16 213.716 204.19 213.992 204.206 214.276C204.226 214.556 204.236 214.89 204.236 215.278V217H203.588ZM209.146 218.38L209.782 216.91L209.788 217.402L208.216 213.85H208.936L209.92 216.166C209.94 216.206 209.964 216.268 209.992 216.352C210.02 216.432 210.044 216.512 210.064 216.592L209.908 216.628C209.94 216.544 209.97 216.46 209.998 216.376C210.03 216.292 210.06 216.208 210.088 216.124L210.91 213.85H211.642L210.346 217L209.812 218.38H209.146ZM213.942 217V212.8H215.586C215.886 212.8 216.156 212.85 216.396 212.95C216.64 213.05 216.848 213.194 217.02 213.382C217.192 213.57 217.324 213.792 217.416 214.048C217.508 214.304 217.554 214.588 217.554 214.9C217.554 215.212 217.508 215.498 217.416 215.758C217.324 216.014 217.192 216.236 217.02 216.424C216.852 216.608 216.646 216.75 216.402 216.85C216.158 216.95 215.886 217 215.586 217H213.942ZM214.59 216.442L214.572 216.376H215.556C215.768 216.376 215.956 216.342 216.12 216.274C216.288 216.206 216.428 216.11 216.54 215.986C216.656 215.858 216.744 215.702 216.804 215.518C216.864 215.334 216.894 215.128 216.894 214.9C216.894 214.672 216.864 214.468 216.804 214.288C216.744 214.104 216.656 213.948 216.54 213.82C216.424 213.692 216.284 213.594 216.12 213.526C215.956 213.458 215.768 213.424 215.556 213.424H214.554L214.59 213.37V216.442ZM219.69 217.06C219.382 217.06 219.106 216.99 218.862 216.85C218.622 216.706 218.432 216.512 218.292 216.268C218.152 216.02 218.082 215.738 218.082 215.422C218.082 215.106 218.152 214.826 218.292 214.582C218.432 214.334 218.622 214.14 218.862 214C219.106 213.856 219.382 213.784 219.69 213.784C219.994 213.784 220.266 213.856 220.506 214C220.75 214.14 220.942 214.334 221.082 214.582C221.222 214.826 221.292 215.106 221.292 215.422C221.292 215.738 221.222 216.02 221.082 216.268C220.942 216.512 220.75 216.706 220.506 216.85C220.266 216.99 219.994 217.06 219.69 217.06ZM219.69 216.496C219.878 216.496 220.046 216.45 220.194 216.358C220.342 216.262 220.458 216.134 220.542 215.974C220.626 215.81 220.666 215.626 220.662 215.422C220.666 215.214 220.626 215.03 220.542 214.87C220.458 214.706 220.342 214.578 220.194 214.486C220.046 214.394 219.878 214.348 219.69 214.348C219.502 214.348 219.332 214.396 219.18 214.492C219.032 214.584 218.916 214.712 218.832 214.876C218.748 215.036 218.708 215.218 218.712 215.422C218.708 215.626 218.748 215.81 218.832 215.974C218.916 216.134 219.032 216.262 219.18 216.358C219.332 216.45 219.502 216.496 219.69 216.496ZM223.303 217.06C223.011 217.06 222.749 216.988 222.517 216.844C222.289 216.7 222.107 216.504 221.971 216.256C221.839 216.008 221.773 215.73 221.773 215.422C221.773 215.114 221.839 214.836 221.971 214.588C222.107 214.34 222.289 214.144 222.517 214C222.749 213.856 223.011 213.784 223.303 213.784C223.583 213.784 223.837 213.842 224.065 213.958C224.297 214.07 224.473 214.224 224.593 214.42L224.251 214.84C224.187 214.748 224.105 214.664 224.005 214.588C223.905 214.512 223.799 214.452 223.687 214.408C223.575 214.364 223.467 214.342 223.363 214.342C223.171 214.342 222.999 214.39 222.847 214.486C222.699 214.578 222.581 214.706 222.493 214.87C222.405 215.034 222.361 215.218 222.361 215.422C222.361 215.626 222.407 215.81 222.499 215.974C222.591 216.134 222.713 216.262 222.865 216.358C223.017 216.454 223.185 216.502 223.369 216.502C223.477 216.502 223.581 216.484 223.681 216.448C223.785 216.412 223.885 216.358 223.981 216.286C224.077 216.214 224.167 216.126 224.251 216.022L224.593 216.442C224.465 216.622 224.281 216.77 224.041 216.886C223.805 217.002 223.559 217.06 223.303 217.06ZM226.226 217.06C225.962 217.06 225.724 217.014 225.512 216.922C225.3 216.83 225.124 216.694 224.984 216.514L225.404 216.154C225.524 216.294 225.654 216.396 225.794 216.46C225.938 216.52 226.1 216.55 226.28 216.55C226.352 216.55 226.418 216.542 226.478 216.526C226.542 216.506 226.596 216.478 226.64 216.442C226.688 216.406 226.724 216.364 226.748 216.316C226.772 216.264 226.784 216.208 226.784 216.148C226.784 216.044 226.746 215.96 226.67 215.896C226.63 215.868 226.566 215.838 226.478 215.806C226.394 215.77 226.284 215.734 226.148 215.698C225.916 215.638 225.726 215.57 225.578 215.494C225.43 215.418 225.316 215.332 225.236 215.236C225.176 215.16 225.132 215.078 225.104 214.99C225.076 214.898 225.062 214.798 225.062 214.69C225.062 214.558 225.09 214.438 225.146 214.33C225.206 214.218 225.286 214.122 225.386 214.042C225.49 213.958 225.61 213.894 225.746 213.85C225.886 213.806 226.034 213.784 226.19 213.784C226.338 213.784 226.484 213.804 226.628 213.844C226.776 213.884 226.912 213.942 227.036 214.018C227.16 214.094 227.264 214.184 227.348 214.288L226.994 214.678C226.918 214.602 226.834 214.536 226.742 214.48C226.654 214.42 226.564 214.374 226.472 214.342C226.38 214.31 226.296 214.294 226.22 214.294C226.136 214.294 226.06 214.302 225.992 214.318C225.924 214.334 225.866 214.358 225.818 214.39C225.774 214.422 225.74 214.462 225.716 214.51C225.692 214.558 225.68 214.612 225.68 214.672C225.684 214.724 225.696 214.774 225.716 214.822C225.74 214.866 225.772 214.904 225.812 214.936C225.856 214.968 225.922 215.002 226.01 215.038C226.098 215.074 226.21 215.108 226.346 215.14C226.546 215.192 226.71 215.25 226.838 215.314C226.97 215.374 227.074 215.444 227.15 215.524C227.23 215.6 227.286 215.688 227.318 215.788C227.35 215.888 227.366 216 227.366 216.124C227.366 216.304 227.314 216.466 227.21 216.61C227.11 216.75 226.974 216.86 226.802 216.94C226.63 217.02 226.438 217.06 226.226 217.06Z" fill="black"/>
<path d="M262.132 259L263.562 255.306H264.143L265.562 259H264.955L264.111 256.773C264.1 256.748 264.079 256.688 264.048 256.594C264.019 256.499 263.986 256.393 263.947 256.277C263.909 256.161 263.873 256.055 263.842 255.96C263.81 255.862 263.789 255.798 263.778 255.77L263.9 255.765C263.879 255.825 263.852 255.9 263.821 255.992C263.793 256.083 263.761 256.18 263.726 256.282C263.694 256.384 263.662 256.481 263.631 256.572C263.599 256.66 263.573 256.734 263.552 256.794L262.712 259H262.132ZM262.765 258.082L262.976 257.533H264.655L264.897 258.082H262.765ZM266.075 260.161V256.229H266.624V256.863L266.54 256.815C266.561 256.71 266.621 256.609 266.719 256.514C266.818 256.416 266.937 256.337 267.078 256.277C267.222 256.214 267.37 256.182 267.521 256.182C267.771 256.182 267.993 256.243 268.186 256.367C268.38 256.49 268.533 256.659 268.645 256.873C268.758 257.088 268.814 257.334 268.814 257.612C268.814 257.886 268.758 258.133 268.645 258.351C268.536 258.565 268.385 258.736 268.191 258.863C267.998 258.986 267.78 259.047 267.537 259.047C267.375 259.047 267.219 259.016 267.067 258.953C266.916 258.886 266.788 258.801 266.682 258.699C266.577 258.597 266.511 258.492 266.487 258.383L266.624 258.309V260.161H266.075ZM267.447 258.546C267.609 258.546 267.753 258.506 267.88 258.425C268.007 258.344 268.107 258.233 268.181 258.092C268.255 257.952 268.292 257.791 268.292 257.612C268.292 257.433 268.255 257.274 268.181 257.137C268.111 256.996 268.012 256.886 267.885 256.805C267.759 256.724 267.613 256.683 267.447 256.683C267.282 256.683 267.136 256.724 267.009 256.805C266.883 256.882 266.782 256.991 266.708 257.132C266.635 257.273 266.598 257.433 266.598 257.612C266.598 257.791 266.635 257.952 266.708 258.092C266.782 258.233 266.883 258.344 267.009 258.425C267.136 258.506 267.282 258.546 267.447 258.546ZM269.404 260.161V256.229H269.953V256.863L269.869 256.815C269.89 256.71 269.95 256.609 270.048 256.514C270.147 256.416 270.266 256.337 270.407 256.277C270.551 256.214 270.699 256.182 270.851 256.182C271.1 256.182 271.322 256.243 271.515 256.367C271.709 256.49 271.862 256.659 271.975 256.873C272.087 257.088 272.143 257.334 272.143 257.612C272.143 257.886 272.087 258.133 271.975 258.351C271.866 258.565 271.714 258.736 271.521 258.863C271.327 258.986 271.109 259.047 270.866 259.047C270.704 259.047 270.548 259.016 270.397 258.953C270.245 258.886 270.117 258.801 270.011 258.699C269.906 258.597 269.841 258.492 269.816 258.383L269.953 258.309V260.161H269.404ZM270.777 258.546C270.938 258.546 271.083 258.506 271.209 258.425C271.336 258.344 271.436 258.233 271.51 258.092C271.584 257.952 271.621 257.791 271.621 257.612C271.621 257.433 271.584 257.274 271.51 257.137C271.44 256.996 271.341 256.886 271.215 256.805C271.088 256.724 270.942 256.683 270.777 256.683C270.611 256.683 270.465 256.724 270.339 256.805C270.212 256.882 270.112 256.991 270.038 257.132C269.964 257.273 269.927 257.433 269.927 257.612C269.927 257.791 269.964 257.952 270.038 258.092C270.112 258.233 270.212 258.344 270.339 258.425C270.465 258.506 270.611 258.546 270.777 258.546ZM272.734 259V256.229H273.283V257.1L273.23 256.889C273.269 256.755 273.334 256.634 273.425 256.525C273.52 256.416 273.627 256.33 273.747 256.266C273.87 256.203 273.997 256.171 274.127 256.171C274.187 256.171 274.243 256.177 274.296 256.187C274.352 256.198 274.396 256.21 274.428 256.224L274.285 256.815C274.243 256.798 274.196 256.783 274.143 256.773C274.094 256.759 274.044 256.752 273.995 256.752C273.9 256.752 273.809 256.771 273.721 256.81C273.636 256.845 273.561 256.896 273.494 256.963C273.43 257.026 273.379 257.102 273.341 257.19C273.302 257.274 273.283 257.368 273.283 257.47V259H272.734ZM275.989 259.053C275.718 259.053 275.476 258.991 275.261 258.868C275.05 258.741 274.883 258.571 274.76 258.356C274.636 258.138 274.575 257.89 274.575 257.612C274.575 257.334 274.636 257.088 274.76 256.873C274.883 256.655 275.05 256.484 275.261 256.361C275.476 256.235 275.718 256.171 275.989 256.171C276.257 256.171 276.496 256.235 276.707 256.361C276.922 256.484 277.09 256.655 277.214 256.873C277.337 257.088 277.398 257.334 277.398 257.612C277.398 257.89 277.337 258.138 277.214 258.356C277.09 258.571 276.922 258.741 276.707 258.868C276.496 258.991 276.257 259.053 275.989 259.053ZM275.989 258.557C276.155 258.557 276.302 258.516 276.433 258.435C276.563 258.351 276.665 258.238 276.739 258.098C276.812 257.953 276.848 257.791 276.844 257.612C276.848 257.429 276.812 257.267 276.739 257.127C276.665 256.982 276.563 256.87 276.433 256.789C276.302 256.708 276.155 256.667 275.989 256.667C275.824 256.667 275.674 256.71 275.541 256.794C275.41 256.875 275.308 256.988 275.235 257.132C275.161 257.273 275.125 257.433 275.129 257.612C275.125 257.791 275.161 257.953 275.235 258.098C275.308 258.238 275.41 258.351 275.541 258.435C275.674 258.516 275.824 258.557 275.989 258.557ZM278.821 259L277.649 256.229H278.235L279.08 258.303L278.979 258.351L279.882 256.229H280.441L279.212 259H278.821ZM282.154 259.053C281.869 259.053 281.616 258.993 281.394 258.873C281.176 258.75 281.004 258.583 280.877 258.372C280.754 258.161 280.692 257.918 280.692 257.644C280.692 257.426 280.728 257.227 280.798 257.047C280.868 256.868 280.965 256.713 281.088 256.583C281.215 256.449 281.364 256.347 281.537 256.277C281.713 256.203 281.903 256.166 282.107 256.166C282.286 256.166 282.453 256.201 282.608 256.272C282.763 256.338 282.897 256.432 283.009 256.551C283.125 256.671 283.213 256.813 283.273 256.979C283.336 257.141 283.366 257.318 283.363 257.512L283.357 257.744H281.093L280.972 257.311H282.888L282.809 257.401V257.274C282.798 257.158 282.759 257.054 282.692 256.963C282.626 256.871 282.541 256.799 282.439 256.747C282.337 256.694 282.226 256.667 282.107 256.667C281.917 256.667 281.757 256.704 281.626 256.778C281.496 256.849 281.398 256.954 281.331 257.095C281.264 257.232 281.231 257.403 281.231 257.607C281.231 257.8 281.271 257.969 281.352 258.113C281.433 258.254 281.547 258.363 281.695 258.441C281.843 258.518 282.013 258.557 282.207 258.557C282.344 258.557 282.471 258.534 282.587 258.488C282.707 258.442 282.835 258.36 282.972 258.24L283.247 258.625C283.162 258.71 283.058 258.784 282.935 258.847C282.816 258.91 282.687 258.961 282.55 259C282.416 259.035 282.284 259.053 282.154 259.053ZM285.109 259.053C284.856 259.053 284.629 258.991 284.428 258.868C284.231 258.741 284.075 258.571 283.959 258.356C283.843 258.138 283.785 257.89 283.785 257.612C283.785 257.334 283.841 257.088 283.953 256.873C284.07 256.655 284.226 256.484 284.423 256.361C284.62 256.235 284.844 256.171 285.093 256.171C285.231 256.171 285.363 256.194 285.489 256.24C285.619 256.282 285.735 256.342 285.837 256.419C285.94 256.493 286.019 256.576 286.075 256.667C286.135 256.755 286.165 256.845 286.165 256.937L286.006 256.947V255.095H286.55V259H286.006V258.34H286.112C286.112 258.425 286.084 258.509 286.027 258.594C285.971 258.675 285.896 258.75 285.801 258.821C285.709 258.891 285.602 258.947 285.479 258.989C285.359 259.032 285.236 259.053 285.109 259.053ZM285.183 258.583C285.348 258.583 285.494 258.541 285.621 258.456C285.748 258.372 285.846 258.258 285.917 258.113C285.991 257.966 286.027 257.799 286.027 257.612C286.027 257.426 285.991 257.26 285.917 257.116C285.846 256.968 285.748 256.852 285.621 256.768C285.494 256.683 285.348 256.641 285.183 256.641C285.018 256.641 284.872 256.683 284.745 256.768C284.618 256.852 284.518 256.968 284.444 257.116C284.374 257.26 284.339 257.426 284.339 257.612C284.339 257.799 284.374 257.966 284.444 258.113C284.518 258.258 284.618 258.372 284.745 258.456C284.872 258.541 285.018 258.583 285.183 258.583Z" fill="#35CA00"/>
<path d="M262.132 293L263.562 289.306H264.143L265.562 293H264.955L264.111 290.773C264.1 290.748 264.079 290.688 264.048 290.594C264.019 290.499 263.986 290.393 263.947 290.277C263.909 290.161 263.873 290.055 263.842 289.96C263.81 289.862 263.789 289.798 263.778 289.77L263.9 289.765C263.879 289.825 263.852 289.9 263.821 289.992C263.793 290.083 263.761 290.18 263.726 290.282C263.694 290.384 263.662 290.481 263.631 290.572C263.599 290.66 263.573 290.734 263.552 290.794L262.712 293H262.132ZM262.765 292.082L262.976 291.533H264.655L264.897 292.082H262.765ZM266.075 294.161V290.229H266.624V290.863L266.54 290.815C266.561 290.71 266.621 290.609 266.719 290.514C266.818 290.416 266.937 290.337 267.078 290.277C267.222 290.214 267.37 290.182 267.521 290.182C267.771 290.182 267.993 290.243 268.186 290.367C268.38 290.49 268.533 290.659 268.645 290.873C268.758 291.088 268.814 291.334 268.814 291.612C268.814 291.886 268.758 292.133 268.645 292.351C268.536 292.565 268.385 292.736 268.191 292.863C267.998 292.986 267.78 293.047 267.537 293.047C267.375 293.047 267.219 293.016 267.067 292.953C266.916 292.886 266.788 292.801 266.682 292.699C266.577 292.597 266.511 292.492 266.487 292.383L266.624 292.309V294.161H266.075ZM267.447 292.546C267.609 292.546 267.753 292.506 267.88 292.425C268.007 292.344 268.107 292.233 268.181 292.092C268.255 291.952 268.292 291.791 268.292 291.612C268.292 291.433 268.255 291.274 268.181 291.137C268.111 290.996 268.012 290.886 267.885 290.805C267.759 290.724 267.613 290.683 267.447 290.683C267.282 290.683 267.136 290.724 267.009 290.805C266.883 290.882 266.782 290.991 266.708 291.132C266.635 291.273 266.598 291.433 266.598 291.612C266.598 291.791 266.635 291.952 266.708 292.092C266.782 292.233 266.883 292.344 267.009 292.425C267.136 292.506 267.282 292.546 267.447 292.546ZM269.404 294.161V290.229H269.953V290.863L269.869 290.815C269.89 290.71 269.95 290.609 270.048 290.514C270.147 290.416 270.266 290.337 270.407 290.277C270.551 290.214 270.699 290.182 270.851 290.182C271.1 290.182 271.322 290.243 271.515 290.367C271.709 290.49 271.862 290.659 271.975 290.873C272.087 291.088 272.143 291.334 272.143 291.612C272.143 291.886 272.087 292.133 271.975 292.351C271.866 292.565 271.714 292.736 271.521 292.863C271.327 292.986 271.109 293.047 270.866 293.047C270.704 293.047 270.548 293.016 270.397 292.953C270.245 292.886 270.117 292.801 270.011 292.699C269.906 292.597 269.841 292.492 269.816 292.383L269.953 292.309V294.161H269.404ZM270.777 292.546C270.938 292.546 271.083 292.506 271.209 292.425C271.336 292.344 271.436 292.233 271.51 292.092C271.584 291.952 271.621 291.791 271.621 291.612C271.621 291.433 271.584 291.274 271.51 291.137C271.44 290.996 271.341 290.886 271.215 290.805C271.088 290.724 270.942 290.683 270.777 290.683C270.611 290.683 270.465 290.724 270.339 290.805C270.212 290.882 270.112 290.991 270.038 291.132C269.964 291.273 269.927 291.433 269.927 291.612C269.927 291.791 269.964 291.952 270.038 292.092C270.112 292.233 270.212 292.344 270.339 292.425C270.465 292.506 270.611 292.546 270.777 292.546ZM272.734 293V290.229H273.283V291.1L273.23 290.889C273.269 290.755 273.334 290.634 273.425 290.525C273.52 290.416 273.627 290.33 273.747 290.266C273.87 290.203 273.997 290.171 274.127 290.171C274.187 290.171 274.243 290.177 274.296 290.187C274.352 290.198 274.396 290.21 274.428 290.224L274.285 290.815C274.243 290.798 274.196 290.783 274.143 290.773C274.094 290.759 274.044 290.752 273.995 290.752C273.9 290.752 273.809 290.771 273.721 290.81C273.636 290.845 273.561 290.896 273.494 290.963C273.43 291.026 273.379 291.102 273.341 291.19C273.302 291.274 273.283 291.368 273.283 291.47V293H272.734ZM275.989 293.053C275.718 293.053 275.476 292.991 275.261 292.868C275.05 292.741 274.883 292.571 274.76 292.356C274.636 292.138 274.575 291.89 274.575 291.612C274.575 291.334 274.636 291.088 274.76 290.873C274.883 290.655 275.05 290.484 275.261 290.361C275.476 290.235 275.718 290.171 275.989 290.171C276.257 290.171 276.496 290.235 276.707 290.361C276.922 290.484 277.09 290.655 277.214 290.873C277.337 291.088 277.398 291.334 277.398 291.612C277.398 291.89 277.337 292.138 277.214 292.356C277.09 292.571 276.922 292.741 276.707 292.868C276.496 292.991 276.257 293.053 275.989 293.053ZM275.989 292.557C276.155 292.557 276.302 292.516 276.433 292.435C276.563 292.351 276.665 292.238 276.739 292.098C276.812 291.953 276.848 291.791 276.844 291.612C276.848 291.429 276.812 291.267 276.739 291.127C276.665 290.982 276.563 290.87 276.433 290.789C276.302 290.708 276.155 290.667 275.989 290.667C275.824 290.667 275.674 290.71 275.541 290.794C275.41 290.875 275.308 290.988 275.235 291.132C275.161 291.273 275.125 291.433 275.129 291.612C275.125 291.791 275.161 291.953 275.235 292.098C275.308 292.238 275.41 292.351 275.541 292.435C275.674 292.516 275.824 292.557 275.989 292.557ZM278.821 293L277.649 290.229H278.235L279.08 292.303L278.979 292.351L279.882 290.229H280.441L279.212 293H278.821ZM282.154 293.053C281.869 293.053 281.616 292.993 281.394 292.873C281.176 292.75 281.004 292.583 280.877 292.372C280.754 292.161 280.692 291.918 280.692 291.644C280.692 291.426 280.728 291.227 280.798 291.047C280.868 290.868 280.965 290.713 281.088 290.583C281.215 290.449 281.364 290.347 281.537 290.277C281.713 290.203 281.903 290.166 282.107 290.166C282.286 290.166 282.453 290.201 282.608 290.272C282.763 290.338 282.897 290.432 283.009 290.551C283.125 290.671 283.213 290.813 283.273 290.979C283.336 291.141 283.366 291.318 283.363 291.512L283.357 291.744H281.093L280.972 291.311H282.888L282.809 291.401V291.274C282.798 291.158 282.759 291.054 282.692 290.963C282.626 290.871 282.541 290.799 282.439 290.747C282.337 290.694 282.226 290.667 282.107 290.667C281.917 290.667 281.757 290.704 281.626 290.778C281.496 290.849 281.398 290.954 281.331 291.095C281.264 291.232 281.231 291.403 281.231 291.607C281.231 291.8 281.271 291.969 281.352 292.113C281.433 292.254 281.547 292.363 281.695 292.441C281.843 292.518 282.013 292.557 282.207 292.557C282.344 292.557 282.471 292.534 282.587 292.488C282.707 292.442 282.835 292.36 282.972 292.24L283.247 292.625C283.162 292.71 283.058 292.784 282.935 292.847C282.816 292.91 282.687 292.961 282.55 293C282.416 293.035 282.284 293.053 282.154 293.053ZM285.109 293.053C284.856 293.053 284.629 292.991 284.428 292.868C284.231 292.741 284.075 292.571 283.959 292.356C283.843 292.138 283.785 291.89 283.785 291.612C283.785 291.334 283.841 291.088 283.953 290.873C284.07 290.655 284.226 290.484 284.423 290.361C284.62 290.235 284.844 290.171 285.093 290.171C285.231 290.171 285.363 290.194 285.489 290.24C285.619 290.282 285.735 290.342 285.837 290.419C285.94 290.493 286.019 290.576 286.075 290.667C286.135 290.755 286.165 290.845 286.165 290.937L286.006 290.947V289.095H286.55V293H286.006V292.34H286.112C286.112 292.425 286.084 292.509 286.027 292.594C285.971 292.675 285.896 292.75 285.801 292.821C285.709 292.891 285.602 292.947 285.479 292.989C285.359 293.032 285.236 293.053 285.109 293.053ZM285.183 292.583C285.348 292.583 285.494 292.541 285.621 292.456C285.748 292.372 285.846 292.258 285.917 292.113C285.991 291.966 286.027 291.799 286.027 291.612C286.027 291.426 285.991 291.26 285.917 291.116C285.846 290.968 285.748 290.852 285.621 290.768C285.494 290.683 285.348 290.641 285.183 290.641C285.018 290.641 284.872 290.683 284.745 290.768C284.618 290.852 284.518 290.968 284.444 291.116C284.374 291.26 284.339 291.426 284.339 291.612C284.339 291.799 284.374 291.966 284.444 292.113C284.518 292.258 284.618 292.372 284.745 292.456C284.872 292.541 285.018 292.583 285.183 292.583Z" fill="#35CA00"/>
<path d="M262.132 327L263.562 323.306H264.143L265.562 327H264.955L264.111 324.773C264.1 324.748 264.079 324.688 264.048 324.594C264.019 324.499 263.986 324.393 263.947 324.277C263.909 324.161 263.873 324.055 263.842 323.96C263.81 323.862 263.789 323.798 263.778 323.77L263.9 323.765C263.879 323.825 263.852 323.9 263.821 323.992C263.793 324.083 263.761 324.18 263.726 324.282C263.694 324.384 263.662 324.481 263.631 324.572C263.599 324.66 263.573 324.734 263.552 324.794L262.712 327H262.132ZM262.765 326.082L262.976 325.533H264.655L264.897 326.082H262.765ZM266.075 328.161V324.229H266.624V324.863L266.54 324.815C266.561 324.71 266.621 324.609 266.719 324.514C266.818 324.416 266.937 324.337 267.078 324.277C267.222 324.214 267.37 324.182 267.521 324.182C267.771 324.182 267.993 324.243 268.186 324.367C268.38 324.49 268.533 324.659 268.645 324.873C268.758 325.088 268.814 325.334 268.814 325.612C268.814 325.886 268.758 326.133 268.645 326.351C268.536 326.565 268.385 326.736 268.191 326.863C267.998 326.986 267.78 327.047 267.537 327.047C267.375 327.047 267.219 327.016 267.067 326.953C266.916 326.886 266.788 326.801 266.682 326.699C266.577 326.597 266.511 326.492 266.487 326.383L266.624 326.309V328.161H266.075ZM267.447 326.546C267.609 326.546 267.753 326.506 267.88 326.425C268.007 326.344 268.107 326.233 268.181 326.092C268.255 325.952 268.292 325.791 268.292 325.612C268.292 325.433 268.255 325.274 268.181 325.137C268.111 324.996 268.012 324.886 267.885 324.805C267.759 324.724 267.613 324.683 267.447 324.683C267.282 324.683 267.136 324.724 267.009 324.805C266.883 324.882 266.782 324.991 266.708 325.132C266.635 325.273 266.598 325.433 266.598 325.612C266.598 325.791 266.635 325.952 266.708 326.092C266.782 326.233 266.883 326.344 267.009 326.425C267.136 326.506 267.282 326.546 267.447 326.546ZM269.404 328.161V324.229H269.953V324.863L269.869 324.815C269.89 324.71 269.95 324.609 270.048 324.514C270.147 324.416 270.266 324.337 270.407 324.277C270.551 324.214 270.699 324.182 270.851 324.182C271.1 324.182 271.322 324.243 271.515 324.367C271.709 324.49 271.862 324.659 271.975 324.873C272.087 325.088 272.143 325.334 272.143 325.612C272.143 325.886 272.087 326.133 271.975 326.351C271.866 326.565 271.714 326.736 271.521 326.863C271.327 326.986 271.109 327.047 270.866 327.047C270.704 327.047 270.548 327.016 270.397 326.953C270.245 326.886 270.117 326.801 270.011 326.699C269.906 326.597 269.841 326.492 269.816 326.383L269.953 326.309V328.161H269.404ZM270.777 326.546C270.938 326.546 271.083 326.506 271.209 326.425C271.336 326.344 271.436 326.233 271.51 326.092C271.584 325.952 271.621 325.791 271.621 325.612C271.621 325.433 271.584 325.274 271.51 325.137C271.44 324.996 271.341 324.886 271.215 324.805C271.088 324.724 270.942 324.683 270.777 324.683C270.611 324.683 270.465 324.724 270.339 324.805C270.212 324.882 270.112 324.991 270.038 325.132C269.964 325.273 269.927 325.433 269.927 325.612C269.927 325.791 269.964 325.952 270.038 326.092C270.112 326.233 270.212 326.344 270.339 326.425C270.465 326.506 270.611 326.546 270.777 326.546ZM272.734 327V324.229H273.283V325.1L273.23 324.889C273.269 324.755 273.334 324.634 273.425 324.525C273.52 324.416 273.627 324.33 273.747 324.266C273.87 324.203 273.997 324.171 274.127 324.171C274.187 324.171 274.243 324.177 274.296 324.187C274.352 324.198 274.396 324.21 274.428 324.224L274.285 324.815C274.243 324.798 274.196 324.783 274.143 324.773C274.094 324.759 274.044 324.752 273.995 324.752C273.9 324.752 273.809 324.771 273.721 324.81C273.636 324.845 273.561 324.896 273.494 324.963C273.43 325.026 273.379 325.102 273.341 325.19C273.302 325.274 273.283 325.368 273.283 325.47V327H272.734ZM275.989 327.053C275.718 327.053 275.476 326.991 275.261 326.868C275.05 326.741 274.883 326.571 274.76 326.356C274.636 326.138 274.575 325.89 274.575 325.612C274.575 325.334 274.636 325.088 274.76 324.873C274.883 324.655 275.05 324.484 275.261 324.361C275.476 324.235 275.718 324.171 275.989 324.171C276.257 324.171 276.496 324.235 276.707 324.361C276.922 324.484 277.09 324.655 277.214 324.873C277.337 325.088 277.398 325.334 277.398 325.612C277.398 325.89 277.337 326.138 277.214 326.356C277.09 326.571 276.922 326.741 276.707 326.868C276.496 326.991 276.257 327.053 275.989 327.053ZM275.989 326.557C276.155 326.557 276.302 326.516 276.433 326.435C276.563 326.351 276.665 326.238 276.739 326.098C276.812 325.953 276.848 325.791 276.844 325.612C276.848 325.429 276.812 325.267 276.739 325.127C276.665 324.982 276.563 324.87 276.433 324.789C276.302 324.708 276.155 324.667 275.989 324.667C275.824 324.667 275.674 324.71 275.541 324.794C275.41 324.875 275.308 324.988 275.235 325.132C275.161 325.273 275.125 325.433 275.129 325.612C275.125 325.791 275.161 325.953 275.235 326.098C275.308 326.238 275.41 326.351 275.541 326.435C275.674 326.516 275.824 326.557 275.989 326.557ZM278.821 327L277.649 324.229H278.235L279.08 326.303L278.979 326.351L279.882 324.229H280.441L279.212 327H278.821ZM282.154 327.053C281.869 327.053 281.616 326.993 281.394 326.873C281.176 326.75 281.004 326.583 280.877 326.372C280.754 326.161 280.692 325.918 280.692 325.644C280.692 325.426 280.728 325.227 280.798 325.047C280.868 324.868 280.965 324.713 281.088 324.583C281.215 324.449 281.364 324.347 281.537 324.277C281.713 324.203 281.903 324.166 282.107 324.166C282.286 324.166 282.453 324.201 282.608 324.272C282.763 324.338 282.897 324.432 283.009 324.551C283.125 324.671 283.213 324.813 283.273 324.979C283.336 325.141 283.366 325.318 283.363 325.512L283.357 325.744H281.093L280.972 325.311H282.888L282.809 325.401V325.274C282.798 325.158 282.759 325.054 282.692 324.963C282.626 324.871 282.541 324.799 282.439 324.747C282.337 324.694 282.226 324.667 282.107 324.667C281.917 324.667 281.757 324.704 281.626 324.778C281.496 324.849 281.398 324.954 281.331 325.095C281.264 325.232 281.231 325.403 281.231 325.607C281.231 325.8 281.271 325.969 281.352 326.113C281.433 326.254 281.547 326.363 281.695 326.441C281.843 326.518 282.013 326.557 282.207 326.557C282.344 326.557 282.471 326.534 282.587 326.488C282.707 326.442 282.835 326.36 282.972 326.24L283.247 326.625C283.162 326.71 283.058 326.784 282.935 326.847C282.816 326.91 282.687 326.961 282.55 327C282.416 327.035 282.284 327.053 282.154 327.053ZM285.109 327.053C284.856 327.053 284.629 326.991 284.428 326.868C284.231 326.741 284.075 326.571 283.959 326.356C283.843 326.138 283.785 325.89 283.785 325.612C283.785 325.334 283.841 325.088 283.953 324.873C284.07 324.655 284.226 324.484 284.423 324.361C284.62 324.235 284.844 324.171 285.093 324.171C285.231 324.171 285.363 324.194 285.489 324.24C285.619 324.282 285.735 324.342 285.837 324.419C285.94 324.493 286.019 324.576 286.075 324.667C286.135 324.755 286.165 324.845 286.165 324.937L286.006 324.947V323.095H286.55V327H286.006V326.34H286.112C286.112 326.425 286.084 326.509 286.027 326.594C285.971 326.675 285.896 326.75 285.801 326.821C285.709 326.891 285.602 326.947 285.479 326.989C285.359 327.032 285.236 327.053 285.109 327.053ZM285.183 326.583C285.348 326.583 285.494 326.541 285.621 326.456C285.748 326.372 285.846 326.258 285.917 326.113C285.991 325.966 286.027 325.799 286.027 325.612C286.027 325.426 285.991 325.26 285.917 325.116C285.846 324.968 285.748 324.852 285.621 324.768C285.494 324.683 285.348 324.641 285.183 324.641C285.018 324.641 284.872 324.683 284.745 324.768C284.618 324.852 284.518 324.968 284.444 325.116C284.374 325.26 284.339 325.426 284.339 325.612C284.339 325.799 284.374 325.966 284.444 326.113C284.518 326.258 284.618 326.372 284.745 326.456C284.872 326.541 285.018 326.583 285.183 326.583Z" fill="#35CA00"/>
<rect x="170" y="261" width="52" height="3" rx="1.5" fill="#E4E6EA"/>
<rect x="170" y="295" width="52" height="3" rx="1.5" fill="#E4E6EA"/>
<rect x="170" y="329" width="52" height="3" rx="1.5" fill="#E4E6EA"/>
<rect x="170" y="255" width="39" height="3" rx="1.5" fill="#E4E6EA"/>
<rect x="170" y="289" width="39" height="3" rx="1.5" fill="#E4E6EA"/>
<rect x="170" y="323" width="39" height="3" rx="1.5" fill="#E4E6EA"/>
<rect x="170" y="249" width="34" height="3" rx="1.5" fill="#1A89FA"/>
<rect x="170" y="283" width="34" height="3" rx="1.5" fill="#1A89FA"/>
<rect x="170" y="317" width="34" height="3" rx="1.5" fill="#1A89FA"/>
<rect x="257.264" y="250.264" width="34.4723" height="13.4723" rx="2.90258" stroke="#E4E6EA" stroke-width="0.527741"/>
<rect x="257.264" y="284.264" width="34.4723" height="13.4723" rx="2.90258" stroke="#E4E6EA" stroke-width="0.527741"/>
<rect x="257.264" y="318.264" width="34.4723" height="13.4723" rx="2.90258" stroke="#E4E6EA" stroke-width="0.527741"/>
<path d="M201 226C201 224.895 201.895 224 203 224H229C230.105 224 231 224.895 231 226H201Z" fill="#1A89FA"/>
<defs>
<clipPath id="clip0_598_2695">
<rect width="126.658" height="6.35908" fill="white" transform="translate(167.672 155.333)"/>
</clipPath>
</defs>
</svg>
