<svg xmlns="http://www.w3.org/2000/svg" xmlns:xlink="http://www.w3.org/1999/xlink" width="480" height="540" viewBox="0 0 480 540">
  <defs>
    <style>
      .cls-1 {
        fill: none;
      }

      .cls-2 {
        clip-path: url(#clip-path);
      }

      .cls-3 {
        fill: #f1f5f7;
      }

      .cls-4 {
        fill: #0d0d0d;
      }

      .cls-5 {
        fill: #fff;
      }

      .cls-6 {
        fill: #d3d3d3;
      }

      .cls-7 {
        fill: #e4e6ea;
      }

      .cls-8 {
        clip-path: url(#clip-path-2);
      }

      .cls-9 {
        fill: #3832e3;
      }

      .cls-10 {
        fill: #434343;
      }

      .cls-11 {
        fill: #aee9d1;
      }

      .cls-12 {
        filter: url(#Path_33921);
      }

      .cls-13 {
        filter: url(#Path_33920);
      }

      .cls-14 {
        filter: url(#Path_33919);
      }

      .cls-15 {
        filter: url(#Path_33918);
      }

      .cls-16 {
        filter: url(#Path_33917);
      }
    </style>
    <clipPath id="clip-path">
      <rect id="Rectangle_2409" data-name="Rectangle 2409" class="cls-1" width="357" height="388"/>
    </clipPath>
    <clipPath id="clip-path-2">
      <rect id="Rectangle_2411" data-name="Rectangle 2411" class="cls-1" width="341" height="85" transform="translate(-0.311 -0.481)"/>
    </clipPath>
    <filter id="Path_33917" x="176.674" y="109.948" width="164.185" height="87.304" filterUnits="userSpaceOnUse">
      <feOffset input="SourceAlpha"/>
      <feGaussianBlur stdDeviation="10" result="blur"/>
      <feFlood flood-opacity="0.102"/>
      <feComposite operator="in" in2="blur"/>
      <feComposite in="SourceGraphic"/>
    </filter>
    <filter id="Path_33918" x="290.918" y="109.948" width="164.185" height="87.304" filterUnits="userSpaceOnUse">
      <feOffset input="SourceAlpha"/>
      <feGaussianBlur stdDeviation="10" result="blur-2"/>
      <feFlood flood-opacity="0.102"/>
      <feComposite operator="in" in2="blur-2"/>
      <feComposite in="SourceGraphic"/>
    </filter>
    <filter id="Path_33919" x="62.43" y="148.03" width="164.185" height="87.304" filterUnits="userSpaceOnUse">
      <feOffset input="SourceAlpha"/>
      <feGaussianBlur stdDeviation="10" result="blur-3"/>
      <feFlood flood-opacity="0.102"/>
      <feComposite operator="in" in2="blur-3"/>
      <feComposite in="SourceGraphic"/>
    </filter>
    <filter id="Path_33920" x="176.674" y="148.03" width="164.185" height="87.304" filterUnits="userSpaceOnUse">
      <feOffset input="SourceAlpha"/>
      <feGaussianBlur stdDeviation="10" result="blur-4"/>
      <feFlood flood-opacity="0.102"/>
      <feComposite operator="in" in2="blur-4"/>
      <feComposite in="SourceGraphic"/>
    </filter>
    <filter id="Path_33921" x="290.918" y="148.03" width="164.185" height="87.304" filterUnits="userSpaceOnUse">
      <feOffset input="SourceAlpha"/>
      <feGaussianBlur stdDeviation="10" result="blur-5"/>
      <feFlood flood-opacity="0.102"/>
      <feComposite operator="in" in2="blur-5"/>
      <feComposite in="SourceGraphic"/>
    </filter>
  </defs>
  <g id="document_management" data-name="document management" transform="translate(-2531 1874)">
    <rect id="Image_83" data-name="Image 83" class="cls-1" width="480" height="540" transform="translate(2531 -1874)"/>
    <g id="Group_6544" data-name="Group 6544" transform="translate(2599 -1798)">
      <g id="Group_6489" data-name="Group 6489">
        <g id="Group_6488" data-name="Group 6488" class="cls-2">
          <path id="Path_33851" data-name="Path 33851" class="cls-3" d="M21.556,0H323.333a21.555,21.555,0,0,1,21.556,21.556V366.444A21.555,21.555,0,0,1,323.333,388H21.556A21.555,21.555,0,0,1,0,366.444V21.556A21.555,21.555,0,0,1,21.556,0"/>
          <path id="Path_33852" data-name="Path 33852" class="cls-4" d="M35.988,59.482V45.4h4.547a8.469,8.469,0,0,1,4.054.864,5.472,5.472,0,0,1,2.374,2.444,8.446,8.446,0,0,1,.775,3.752,8.345,8.345,0,0,1-.775,3.712,5.462,5.462,0,0,1-2.374,2.444,8.461,8.461,0,0,1-4.054.865ZM38.4,57.43h2.012a5.915,5.915,0,0,0,2.887-.593,3.36,3.36,0,0,0,1.509-1.71,8.135,8.135,0,0,0,0-5.352A3.457,3.457,0,0,0,43.3,48.045a5.758,5.758,0,0,0-2.887-.614H38.4Z" transform="translate(-10.13 -12.779)"/>
          <path id="Path_33853" data-name="Path 33853" class="cls-4" d="M60.1,61.175a5.081,5.081,0,0,1-2.605-.674,4.76,4.76,0,0,1-1.811-1.871,6.137,6.137,0,0,1,.01-5.533,4.829,4.829,0,0,1,1.821-1.871,5.373,5.373,0,0,1,5.211,0,4.781,4.781,0,0,1,1.811,1.861,5.67,5.67,0,0,1,.654,2.776,5.589,5.589,0,0,1-.664,2.776A4.858,4.858,0,0,1,62.7,60.5a5.083,5.083,0,0,1-2.605.674m0-2.072a2.481,2.481,0,0,0,1.318-.362,2.584,2.584,0,0,0,.956-1.087,3.975,3.975,0,0,0,.362-1.79,4.019,4.019,0,0,0-.352-1.78,2.537,2.537,0,0,0-.946-1.076,2.56,2.56,0,0,0-2.625,0,2.572,2.572,0,0,0-.966,1.076,3.917,3.917,0,0,0-.362,1.78,3.975,3.975,0,0,0,.362,1.79A2.579,2.579,0,0,0,58.8,58.74a2.442,2.442,0,0,0,1.3.362" transform="translate(-15.489 -14.229)"/>
          <path id="Path_33854" data-name="Path 33854" class="cls-4" d="M77.117,61.175a5.27,5.27,0,0,1-2.666-.673,4.729,4.729,0,0,1-1.831-1.872,5.589,5.589,0,0,1-.654-2.726,5.717,5.717,0,0,1,.654-2.786,4.8,4.8,0,0,1,1.831-1.881,5.244,5.244,0,0,1,2.686-.684,5.036,5.036,0,0,1,3.179,1,4.475,4.475,0,0,1,1.65,2.725H79.431a2.069,2.069,0,0,0-.835-1.207,2.556,2.556,0,0,0-1.5-.443,2.514,2.514,0,0,0-1.358.382,2.606,2.606,0,0,0-.966,1.107,3.97,3.97,0,0,0-.352,1.75,4.38,4.38,0,0,0,.2,1.388,2.817,2.817,0,0,0,.573,1.016,2.6,2.6,0,0,0,.855.634,2.473,2.473,0,0,0,1.046.222,2.788,2.788,0,0,0,1.056-.192,2.085,2.085,0,0,0,.8-.573,2.249,2.249,0,0,0,.473-.905h2.535a4.544,4.544,0,0,1-1.65,2.706,5,5,0,0,1-3.2,1.016" transform="translate(-20.257 -14.229)"/>
          <path id="Path_33855" data-name="Path 33855" class="cls-4" d="M92.838,61.269a4.222,4.222,0,0,1-2.1-.493A3.2,3.2,0,0,1,89.4,59.287a5.838,5.838,0,0,1-.463-2.464V50.888h2.414v5.694a3.064,3.064,0,0,0,.553,1.982,2.047,2.047,0,0,0,1.68.674,2.48,2.48,0,0,0,1.3-.342,2.378,2.378,0,0,0,.905-1,3.507,3.507,0,0,0,.332-1.6V50.888h2.414v10.14H96.4l-.181-1.69a3.507,3.507,0,0,1-1.338,1.408,3.906,3.906,0,0,1-2.042.523" transform="translate(-25.034 -14.324)"/>
          <path id="Path_33856" data-name="Path 33856" class="cls-4" d="M106.043,60.933V50.793h2.133l.2,1.388a3.424,3.424,0,0,1,1.278-1.2,3.749,3.749,0,0,1,1.821-.433,4.428,4.428,0,0,1,1.378.2,3.2,3.2,0,0,1,1.086.6,3.164,3.164,0,0,1,.775,1.006,3.994,3.994,0,0,1,1.469-1.328,4.123,4.123,0,0,1,1.972-.483,4.228,4.228,0,0,1,2.153.513,3.3,3.3,0,0,1,1.348,1.509,5.785,5.785,0,0,1,.463,2.444v5.915h-2.394V55.26a3.2,3.2,0,0,0-.523-1.972,1.831,1.831,0,0,0-1.549-.684,2.235,2.235,0,0,0-1.237.342,2.28,2.28,0,0,0-.835,1,3.8,3.8,0,0,0-.3,1.6v5.392h-2.394V55.26a3.2,3.2,0,0,0-.523-1.972,1.852,1.852,0,0,0-1.569-.684,2.166,2.166,0,0,0-1.2.342,2.28,2.28,0,0,0-.835,1,3.8,3.8,0,0,0-.3,1.6v5.392Z" transform="translate(-29.849 -14.229)"/>
          <path id="Path_33857" data-name="Path 33857" class="cls-4" d="M136.585,61.175a5.273,5.273,0,0,1-2.656-.654,4.591,4.591,0,0,1-1.791-1.841,5.643,5.643,0,0,1-.644-2.736,5.976,5.976,0,0,1,.634-2.817,4.677,4.677,0,0,1,1.791-1.891,5.174,5.174,0,0,1,2.686-.684,4.949,4.949,0,0,1,2.6.664A4.588,4.588,0,0,1,140.91,53a5.182,5.182,0,0,1,.6,2.5v.443a3.336,3.336,0,0,1-.04.5h-8.249V54.9h5.854a2.344,2.344,0,0,0-.744-1.74,2.519,2.519,0,0,0-1.75-.634,2.792,2.792,0,0,0-1.368.343,2.44,2.44,0,0,0-.986,1.015,3.567,3.567,0,0,0-.362,1.7v.583a3.516,3.516,0,0,0,.352,1.63,2.447,2.447,0,0,0,.966,1.036,2.726,2.726,0,0,0,1.378.353,2.5,2.5,0,0,0,1.4-.363,2.158,2.158,0,0,0,.815-.966h2.454a4.623,4.623,0,0,1-.925,1.7,4.538,4.538,0,0,1-1.589,1.187,5.076,5.076,0,0,1-2.133.433" transform="translate(-37.013 -14.229)"/>
          <path id="Path_33858" data-name="Path 33858" class="cls-4" d="M148.547,60.933V50.793h2.133l.181,1.69a3.53,3.53,0,0,1,1.328-1.408,3.892,3.892,0,0,1,2.052-.523,4.032,4.032,0,0,1,2.092.513,3.4,3.4,0,0,1,1.338,1.5,5.667,5.667,0,0,1,.473,2.454v5.915h-2.414V55.24a3,3,0,0,0-.563-1.951,2.039,2.039,0,0,0-1.67-.684,2.48,2.48,0,0,0-1.3.342,2.38,2.38,0,0,0-.905,1,3.455,3.455,0,0,0-.332,1.579v5.412Z" transform="translate(-41.813 -14.229)"/>
          <path id="Path_33859" data-name="Path 33859" class="cls-4" d="M169.588,59.979a4.51,4.51,0,0,1-1.78-.322,2.416,2.416,0,0,1-1.177-1.066,4.078,4.078,0,0,1-.422-2.012V51.872h-1.73V49.84h1.73l.282-2.676h2.133V49.84h2.756v2.032h-2.756v4.708a1.362,1.362,0,0,0,.332,1.056,1.688,1.688,0,0,0,1.117.292h1.247v2.052Z" transform="translate(-46.298 -13.276)"/>
          <path id="Path_33860" data-name="Path 33860" class="cls-4" d="M190.25,59.63a6.86,6.86,0,0,1-3.611-.915A6.06,6.06,0,0,1,184.3,56.16a9.28,9.28,0,0,1,0-7.6,6.125,6.125,0,0,1,2.334-2.565,6.8,6.8,0,0,1,3.611-.925,6.488,6.488,0,0,1,4.1,1.237,5.528,5.528,0,0,1,2.012,3.491H193.71a3.262,3.262,0,0,0-1.147-1.871,3.661,3.661,0,0,0-2.334-.684,4.138,4.138,0,0,0-2.283.614,3.933,3.933,0,0,0-1.469,1.77,6.738,6.738,0,0,0-.513,2.746,6.6,6.6,0,0,0,.513,2.727,3.945,3.945,0,0,0,1.469,1.75,4.138,4.138,0,0,0,2.283.614,3.87,3.87,0,0,0,2.334-.634,3.008,3.008,0,0,0,1.147-1.76h2.656a5.268,5.268,0,0,1-2,3.349,6.6,6.6,0,0,1-4.114,1.217" transform="translate(-51.649 -12.685)"/>
          <path id="Path_33861" data-name="Path 33861" class="cls-4" d="M209.188,61.175a5.273,5.273,0,0,1-2.656-.654,4.591,4.591,0,0,1-1.791-1.841,5.643,5.643,0,0,1-.644-2.736,5.976,5.976,0,0,1,.634-2.817,4.677,4.677,0,0,1,1.791-1.891,5.174,5.174,0,0,1,2.686-.684,4.949,4.949,0,0,1,2.6.664,4.588,4.588,0,0,1,1.71,1.78,5.182,5.182,0,0,1,.6,2.5v.443a3.336,3.336,0,0,1-.04.5h-8.249V54.9h5.855a2.344,2.344,0,0,0-.744-1.74,2.519,2.519,0,0,0-1.75-.634,2.792,2.792,0,0,0-1.368.343,2.44,2.44,0,0,0-.986,1.015,3.567,3.567,0,0,0-.362,1.7v.583a3.516,3.516,0,0,0,.352,1.63,2.447,2.447,0,0,0,.966,1.036,2.726,2.726,0,0,0,1.378.353,2.5,2.5,0,0,0,1.4-.363,2.159,2.159,0,0,0,.815-.966h2.454a4.622,4.622,0,0,1-.925,1.7,4.538,4.538,0,0,1-1.589,1.187,5.076,5.076,0,0,1-2.133.433" transform="translate(-57.45 -14.229)"/>
          <path id="Path_33862" data-name="Path 33862" class="cls-4" d="M221.15,60.933V50.793h2.132l.181,1.69a3.535,3.535,0,0,1,1.328-1.408,3.893,3.893,0,0,1,2.053-.523,4.036,4.036,0,0,1,2.092.513,3.408,3.408,0,0,1,1.338,1.5,5.678,5.678,0,0,1,.472,2.454v5.915h-2.414V55.24a3,3,0,0,0-.563-1.951,2.038,2.038,0,0,0-1.67-.684,2.481,2.481,0,0,0-1.3.342,2.381,2.381,0,0,0-.905,1,3.455,3.455,0,0,0-.332,1.579v5.412Z" transform="translate(-62.25 -14.229)"/>
          <path id="Path_33863" data-name="Path 33863" class="cls-4" d="M242.191,59.979a4.51,4.51,0,0,1-1.78-.322,2.416,2.416,0,0,1-1.177-1.066,4.078,4.078,0,0,1-.422-2.012V51.872h-1.73V49.84h1.73l.282-2.676h2.133V49.84h2.756v2.032h-2.756v4.708a1.362,1.362,0,0,0,.332,1.056,1.688,1.688,0,0,0,1.117.292h1.247v2.052Z" transform="translate(-66.734 -13.276)"/>
          <path id="Path_33864" data-name="Path 33864" class="cls-4" d="M254.1,61.175a5.273,5.273,0,0,1-2.656-.654,4.591,4.591,0,0,1-1.791-1.841,5.643,5.643,0,0,1-.644-2.736,5.976,5.976,0,0,1,.634-2.817,4.677,4.677,0,0,1,1.791-1.891,5.174,5.174,0,0,1,2.686-.684,4.949,4.949,0,0,1,2.6.664,4.589,4.589,0,0,1,1.71,1.78,5.182,5.182,0,0,1,.6,2.5v.443a3.34,3.34,0,0,1-.04.5h-8.249V54.9h5.854a2.344,2.344,0,0,0-.744-1.74,2.519,2.519,0,0,0-1.75-.634,2.792,2.792,0,0,0-1.368.343,2.44,2.44,0,0,0-.986,1.015,3.567,3.567,0,0,0-.362,1.7v.583a3.516,3.516,0,0,0,.352,1.63,2.447,2.447,0,0,0,.966,1.036,2.726,2.726,0,0,0,1.378.353,2.5,2.5,0,0,0,1.4-.363,2.158,2.158,0,0,0,.815-.966h2.454a4.623,4.623,0,0,1-.925,1.7,4.539,4.539,0,0,1-1.589,1.187,5.076,5.076,0,0,1-2.133.433" transform="translate(-70.091 -14.229)"/>
          <path id="Path_33865" data-name="Path 33865" class="cls-4" d="M266.061,60.933V50.793h2.153l.221,1.891a4.086,4.086,0,0,1,.905-1.137,3.941,3.941,0,0,1,1.278-.734,4.807,4.807,0,0,1,1.62-.262v2.555h-.845a4.266,4.266,0,0,0-1.147.151,2.435,2.435,0,0,0-.935.483,2.186,2.186,0,0,0-.614.905,4.017,4.017,0,0,0-.221,1.438v4.849Z" transform="translate(-74.891 -14.229)"/>
          <path id="Path_33866" data-name="Path 33866" class="cls-5" d="M62.556,195H327.689a21.555,21.555,0,0,1,21.556,21.556V414.148A21.555,21.555,0,0,1,327.689,435.7H62.556A21.555,21.555,0,0,1,41,414.148V216.556A21.555,21.555,0,0,1,62.556,195" transform="translate(-11.541 -54.889)"/>
          <path id="Path_33867" data-name="Path 33867" class="cls-4" d="M72.42,246.059V236h6.424v1.394h-4.7v2.946h3.837V241.7H74.144v4.354Z" transform="translate(-20.385 -66.43)"/>
          <path id="Path_33868" data-name="Path 33868" class="cls-4" d="M84.212,237.526a1.091,1.091,0,0,1-.783-.295.962.962,0,0,1-.309-.726.937.937,0,0,1,.309-.726,1.237,1.237,0,0,1,1.566,0,.937.937,0,0,1,.309.726.962.962,0,0,1-.309.726,1.091,1.091,0,0,1-.783.295m-.862,1.15h1.724v7.243H83.35Z" transform="translate(-23.397 -66.289)"/>
          <rect id="Rectangle_2407" data-name="Rectangle 2407" class="cls-4" width="1.724" height="10.347" transform="translate(63.675 169.282)"/>
          <path id="Path_33869" data-name="Path 33869" class="cls-4" d="M97,247.267a3.765,3.765,0,0,1-1.9-.467,3.276,3.276,0,0,1-1.279-1.315,4.034,4.034,0,0,1-.46-1.954,4.267,4.267,0,0,1,.453-2.012,3.339,3.339,0,0,1,1.279-1.351,3.7,3.7,0,0,1,1.918-.489,3.535,3.535,0,0,1,1.854.475,3.28,3.28,0,0,1,1.221,1.272,3.7,3.7,0,0,1,.431,1.788v.317a2.331,2.331,0,0,1-.029.359H94.6v-1.107h4.182a1.677,1.677,0,0,0-.532-1.244,1.8,1.8,0,0,0-1.25-.453,2,2,0,0,0-.977.245,1.747,1.747,0,0,0-.7.726,2.545,2.545,0,0,0-.259,1.214v.417a2.518,2.518,0,0,0,.251,1.164,1.749,1.749,0,0,0,.69.74,1.945,1.945,0,0,0,.984.251,1.8,1.8,0,0,0,1-.259,1.546,1.546,0,0,0,.582-.69h1.753a3.319,3.319,0,0,1-.661,1.214,3.236,3.236,0,0,1-1.135.847,3.618,3.618,0,0,1-1.523.31" transform="translate(-26.279 -67.465)"/>
          <path id="Path_33870" data-name="Path 33870" class="cls-4" d="M113.369,246.414a3.216,3.216,0,0,1-1.272-.23,1.728,1.728,0,0,1-.841-.762,2.913,2.913,0,0,1-.3-1.437v-3.363h-1.236v-1.451h1.236l.2-1.911h1.523v1.911h1.969v1.451h-1.969v3.363a.973.973,0,0,0,.237.754,1.208,1.208,0,0,0,.8.208h.891v1.466Z" transform="translate(-30.884 -66.784)"/>
          <path id="Path_33871" data-name="Path 33871" class="cls-4" d="M119.451,250.324l1.768-3.967h-.431L117.9,239.92h1.883l2.156,4.914,2.041-4.914H125.8l-4.527,10.4Z" transform="translate(-33.186 -67.533)"/>
          <path id="Path_33872" data-name="Path 33872" class="cls-4" d="M130.639,250.257v-10.4h1.538l.187,1.049a3.541,3.541,0,0,1,.553-.6,2.534,2.534,0,0,1,.79-.453,3.078,3.078,0,0,1,1.071-.172,3.264,3.264,0,0,1,1.8.5,3.51,3.51,0,0,1,1.229,1.357,4.16,4.16,0,0,1,.445,1.948,4.1,4.1,0,0,1-.453,1.947,3.454,3.454,0,0,1-1.236,1.343,3.307,3.307,0,0,1-1.789.489,3.117,3.117,0,0,1-1.43-.31,2.492,2.492,0,0,1-.984-.883v4.182Zm3.779-4.484a2.036,2.036,0,0,0,1.078-.287,1.973,1.973,0,0,0,.74-.805,2.576,2.576,0,0,0,.266-1.192,2.612,2.612,0,0,0-.266-1.207,1.976,1.976,0,0,0-.74-.8,2.178,2.178,0,0,0-2.163,0,1.989,1.989,0,0,0-.733.8,2.824,2.824,0,0,0,0,2.393,2.055,2.055,0,0,0,.733.8,1.99,1.99,0,0,0,1.085.295" transform="translate(-36.772 -67.465)"/>
          <path id="Path_33873" data-name="Path 33873" class="cls-4" d="M146.855,247.267a3.765,3.765,0,0,1-1.9-.467,3.276,3.276,0,0,1-1.279-1.315,4.034,4.034,0,0,1-.46-1.954,4.267,4.267,0,0,1,.453-2.012,3.339,3.339,0,0,1,1.279-1.351,3.7,3.7,0,0,1,1.918-.489,3.535,3.535,0,0,1,1.854.475,3.28,3.28,0,0,1,1.221,1.272,3.7,3.7,0,0,1,.431,1.788v.317a2.332,2.332,0,0,1-.029.359h-5.892v-1.107h4.182a1.677,1.677,0,0,0-.532-1.244,1.8,1.8,0,0,0-1.25-.453,2,2,0,0,0-.977.245,1.747,1.747,0,0,0-.7.726,2.545,2.545,0,0,0-.259,1.214v.417a2.518,2.518,0,0,0,.251,1.164,1.749,1.749,0,0,0,.69.74,1.945,1.945,0,0,0,.984.251,1.8,1.8,0,0,0,1-.259,1.546,1.546,0,0,0,.582-.69h1.753a3.319,3.319,0,0,1-.661,1.214,3.236,3.236,0,0,1-1.135.847,3.618,3.618,0,0,1-1.523.31" transform="translate(-40.313 -67.465)"/>
          <path id="Path_33874" data-name="Path 33874" class="cls-4" d="M71.5,305.059,75.179,295H77.1l3.679,10.059H78.958l-2.831-8.047L73.3,305.059Zm1.638-2.371.46-1.365h4.958l.46,1.365Z" transform="translate(-20.126 -83.037)"/>
          <path id="Path_33875" data-name="Path 33875" class="cls-4" d="M88.25,305.414a3.216,3.216,0,0,1-1.272-.23,1.728,1.728,0,0,1-.841-.762,2.913,2.913,0,0,1-.3-1.437v-3.363H84.6v-1.451h1.236l.2-1.911H87.56v1.911h1.969v1.451H87.56v3.363a.973.973,0,0,0,.237.754,1.208,1.208,0,0,0,.8.208h.891v1.466Z" transform="translate(-23.813 -83.392)"/>
          <path id="Path_33876" data-name="Path 33876" class="cls-4" d="M96.67,305.414a3.216,3.216,0,0,1-1.272-.23,1.728,1.728,0,0,1-.841-.762,2.913,2.913,0,0,1-.3-1.437v-3.363H93.02v-1.451h1.236l.2-1.911H95.98v1.911h1.969v1.451H95.98v3.363a.973.973,0,0,0,.237.754,1.208,1.208,0,0,0,.8.208h.891v1.466Z" transform="translate(-26.183 -83.392)"/>
          <path id="Path_33877" data-name="Path 33877" class="cls-4" d="M104.464,306.268a3.228,3.228,0,0,1-1.48-.3,2.046,2.046,0,0,1-.877-.8,2.16,2.16,0,0,1-.287-1.092,2.026,2.026,0,0,1,.352-1.193,2.277,2.277,0,0,1,1.042-.783,4.516,4.516,0,0,1,1.7-.28h1.825a2.518,2.518,0,0,0-.158-.956,1.128,1.128,0,0,0-.489-.568,1.713,1.713,0,0,0-.848-.187,1.828,1.828,0,0,0-1.006.266,1.162,1.162,0,0,0-.517.812h-1.7a2.579,2.579,0,0,1,.517-1.329,2.856,2.856,0,0,1,1.142-.862,3.856,3.856,0,0,1,1.559-.31,3.93,3.93,0,0,1,1.739.352,2.529,2.529,0,0,1,1.1,1.006,3.079,3.079,0,0,1,.381,1.574V306.1h-1.466l-.172-1.164a2.331,2.331,0,0,1-.366.532,2.391,2.391,0,0,1-1.164.7,3.107,3.107,0,0,1-.826.1m.388-1.365a1.733,1.733,0,0,0,.74-.151,1.631,1.631,0,0,0,.56-.431,2.1,2.1,0,0,0,.366-.625,3.033,3.033,0,0,0,.172-.733v-.029h-1.6a2.3,2.3,0,0,0-.833.129.958.958,0,0,0-.474.352.943.943,0,0,0-.144.525.863.863,0,0,0,.56.848,1.654,1.654,0,0,0,.647.115" transform="translate(-28.66 -84.073)"/>
          <path id="Path_33878" data-name="Path 33878" class="cls-4" d="M116.959,306.267a3.767,3.767,0,0,1-1.9-.481,3.372,3.372,0,0,1-1.308-1.336,4,4,0,0,1-.467-1.947,4.09,4.09,0,0,1,.467-1.99,3.418,3.418,0,0,1,1.308-1.344,3.75,3.75,0,0,1,1.918-.489,3.6,3.6,0,0,1,2.271.712,3.2,3.2,0,0,1,1.178,1.947h-1.811a1.477,1.477,0,0,0-.6-.863,1.824,1.824,0,0,0-1.071-.315,1.8,1.8,0,0,0-.97.273,1.859,1.859,0,0,0-.69.79,2.847,2.847,0,0,0-.251,1.251,3.12,3.12,0,0,0,.144.992,2,2,0,0,0,.41.725,1.857,1.857,0,0,0,.611.453,1.767,1.767,0,0,0,.747.158,2.01,2.01,0,0,0,.754-.137,1.49,1.49,0,0,0,.575-.41,1.612,1.612,0,0,0,.338-.647h1.811a3.248,3.248,0,0,1-1.178,1.933,3.575,3.575,0,0,1-2.285.726" transform="translate(-31.886 -84.073)"/>
          <path id="Path_33879" data-name="Path 33879" class="cls-4" d="M125.539,304.947V294.6h1.724v4.225a2.677,2.677,0,0,1,.977-.941,2.769,2.769,0,0,1,1.394-.352,2.909,2.909,0,0,1,1.509.366,2.338,2.338,0,0,1,.941,1.078,4.291,4.291,0,0,1,.323,1.775v4.2H130.7v-4.038a2.218,2.218,0,0,0-.4-1.423,1.452,1.452,0,0,0-1.2-.489,1.746,1.746,0,0,0-1.6.97,2.439,2.439,0,0,0-.244,1.142v3.837Z" transform="translate(-35.337 -82.924)"/>
          <path id="Path_33880" data-name="Path 33880" class="cls-4" d="M137.639,306.1v-7.243h1.523l.144.992a2.437,2.437,0,0,1,.913-.855,2.674,2.674,0,0,1,1.3-.309,3.158,3.158,0,0,1,.984.144,2.291,2.291,0,0,1,.776.431,2.257,2.257,0,0,1,.553.719,2.854,2.854,0,0,1,1.049-.948,2.945,2.945,0,0,1,1.408-.345,3.02,3.02,0,0,1,1.538.366,2.352,2.352,0,0,1,.963,1.078,4.126,4.126,0,0,1,.331,1.746V306.1h-1.71v-4.052a2.283,2.283,0,0,0-.374-1.408,1.307,1.307,0,0,0-1.107-.489,1.6,1.6,0,0,0-.884.244,1.633,1.633,0,0,0-.6.711,2.717,2.717,0,0,0-.216,1.142V306.1h-1.71v-4.052a2.283,2.283,0,0,0-.374-1.408,1.324,1.324,0,0,0-1.121-.489,1.547,1.547,0,0,0-.855.244,1.633,1.633,0,0,0-.6.711,2.717,2.717,0,0,0-.216,1.142V306.1Z" transform="translate(-38.743 -84.073)"/>
          <path id="Path_33881" data-name="Path 33881" class="cls-4" d="M159.455,306.267a3.768,3.768,0,0,1-1.9-.467,3.275,3.275,0,0,1-1.279-1.315,4.042,4.042,0,0,1-.46-1.954,4.267,4.267,0,0,1,.453-2.012,3.339,3.339,0,0,1,1.279-1.351,3.7,3.7,0,0,1,1.918-.489,3.535,3.535,0,0,1,1.854.475,3.28,3.28,0,0,1,1.221,1.272,3.7,3.7,0,0,1,.431,1.788v.317a2.33,2.33,0,0,1-.029.359h-5.892v-1.107h4.182a1.677,1.677,0,0,0-.532-1.244,1.8,1.8,0,0,0-1.249-.453,2,2,0,0,0-.977.245,1.744,1.744,0,0,0-.7.726,2.545,2.545,0,0,0-.259,1.214v.417a2.518,2.518,0,0,0,.251,1.164,1.749,1.749,0,0,0,.69.74,1.945,1.945,0,0,0,.984.251,1.8,1.8,0,0,0,1-.259,1.546,1.546,0,0,0,.582-.69h1.753a3.308,3.308,0,0,1-.661,1.214,3.236,3.236,0,0,1-1.135.847,3.616,3.616,0,0,1-1.523.31" transform="translate(-43.86 -84.073)"/>
          <path id="Path_33882" data-name="Path 33882" class="cls-4" d="M168,306.1v-7.243h1.523l.129,1.207a2.529,2.529,0,0,1,.948-1.006,2.782,2.782,0,0,1,1.466-.374,2.88,2.88,0,0,1,1.495.366,2.427,2.427,0,0,1,.956,1.071,4.044,4.044,0,0,1,.338,1.753V306.1h-1.724v-4.067a2.141,2.141,0,0,0-.4-1.394,1.456,1.456,0,0,0-1.193-.489,1.772,1.772,0,0,0-.927.244,1.7,1.7,0,0,0-.647.711,2.468,2.468,0,0,0-.237,1.128V306.1Z" transform="translate(-47.289 -84.073)"/>
          <path id="Path_33883" data-name="Path 33883" class="cls-4" d="M183.029,305.414a3.216,3.216,0,0,1-1.272-.23,1.728,1.728,0,0,1-.841-.762,2.913,2.913,0,0,1-.3-1.437v-3.363h-1.236v-1.451h1.236l.2-1.911h1.523v1.911h1.969v1.451h-1.969v3.363a.973.973,0,0,0,.237.754,1.208,1.208,0,0,0,.8.208h.891v1.466Z" transform="translate(-50.492 -83.392)"/>
          <path id="Path_33884" data-name="Path 33884" class="cls-4" d="M72.42,364.059V354h1.724l4.843,7.271V354h1.724v10.059H78.987L74.144,356.8v7.257Z" transform="translate(-20.385 -99.644)"/>
          <path id="Path_33885" data-name="Path 33885" class="cls-4" d="M89.024,365.268a3.229,3.229,0,0,1-1.48-.3,2.046,2.046,0,0,1-.877-.8,2.16,2.16,0,0,1-.287-1.092,2.026,2.026,0,0,1,.352-1.193,2.277,2.277,0,0,1,1.042-.783,4.516,4.516,0,0,1,1.7-.28h1.825a2.518,2.518,0,0,0-.158-.956,1.128,1.128,0,0,0-.489-.568,1.713,1.713,0,0,0-.848-.187,1.828,1.828,0,0,0-1.006.266,1.162,1.162,0,0,0-.517.812h-1.7a2.579,2.579,0,0,1,.517-1.329,2.856,2.856,0,0,1,1.142-.862,3.856,3.856,0,0,1,1.559-.31,3.93,3.93,0,0,1,1.739.352,2.529,2.529,0,0,1,1.1,1.006,3.079,3.079,0,0,1,.381,1.574V365.1H91.553l-.172-1.164a2.331,2.331,0,0,1-.366.532,2.391,2.391,0,0,1-1.164.7,3.107,3.107,0,0,1-.826.1m.388-1.365a1.733,1.733,0,0,0,.74-.151,1.631,1.631,0,0,0,.56-.431,2.1,2.1,0,0,0,.366-.625,3.033,3.033,0,0,0,.172-.733v-.029h-1.6a2.3,2.3,0,0,0-.833.129.958.958,0,0,0-.474.352.943.943,0,0,0-.144.525.863.863,0,0,0,.56.848,1.654,1.654,0,0,0,.647.115" transform="translate(-24.314 -100.68)"/>
          <path id="Path_33886" data-name="Path 33886" class="cls-4" d="M98.179,365.1v-7.243H99.7l.144.992a2.437,2.437,0,0,1,.913-.855,2.675,2.675,0,0,1,1.3-.309,3.158,3.158,0,0,1,.984.144,2.291,2.291,0,0,1,.776.431,2.257,2.257,0,0,1,.553.719,2.854,2.854,0,0,1,1.049-.948,2.945,2.945,0,0,1,1.408-.345,3.02,3.02,0,0,1,1.538.366,2.352,2.352,0,0,1,.963,1.078,4.126,4.126,0,0,1,.331,1.746V365.1h-1.71v-4.052a2.283,2.283,0,0,0-.374-1.408,1.307,1.307,0,0,0-1.107-.489,1.6,1.6,0,0,0-.884.244,1.633,1.633,0,0,0-.6.711,2.717,2.717,0,0,0-.216,1.142V365.1h-1.71v-4.052a2.283,2.283,0,0,0-.374-1.408,1.324,1.324,0,0,0-1.121-.489,1.547,1.547,0,0,0-.855.244,1.633,1.633,0,0,0-.6.711,2.717,2.717,0,0,0-.216,1.142V365.1Z" transform="translate(-27.636 -100.68)"/>
          <path id="Path_33887" data-name="Path 33887" class="cls-4" d="M120,365.267a3.765,3.765,0,0,1-1.9-.467,3.276,3.276,0,0,1-1.279-1.315,4.034,4.034,0,0,1-.46-1.954,4.267,4.267,0,0,1,.453-2.012,3.339,3.339,0,0,1,1.279-1.351,3.7,3.7,0,0,1,1.918-.489,3.535,3.535,0,0,1,1.854.475,3.28,3.28,0,0,1,1.221,1.272,3.7,3.7,0,0,1,.431,1.788v.317a2.331,2.331,0,0,1-.029.359H117.6v-1.107h4.182a1.677,1.677,0,0,0-.532-1.244,1.8,1.8,0,0,0-1.25-.453,2,2,0,0,0-.977.245,1.747,1.747,0,0,0-.7.726,2.545,2.545,0,0,0-.259,1.214v.417a2.518,2.518,0,0,0,.251,1.164,1.749,1.749,0,0,0,.69.74,1.945,1.945,0,0,0,.984.251,1.8,1.8,0,0,0,1-.259,1.546,1.546,0,0,0,.582-.69h1.753a3.32,3.32,0,0,1-.661,1.214,3.236,3.236,0,0,1-1.135.847,3.618,3.618,0,0,1-1.523.31" transform="translate(-32.753 -100.68)"/>
          <path id="Path_33888" data-name="Path 33888" class="cls-4" d="M75.651,482.164a4.623,4.623,0,0,1-1.94-.388,3.07,3.07,0,0,1-1.322-1.107,3.117,3.117,0,0,1-.489-1.71h1.825a1.677,1.677,0,0,0,.9,1.523,2.13,2.13,0,0,0,1.027.229,2.25,2.25,0,0,0,.9-.164,1.327,1.327,0,0,0,.589-.474,1.269,1.269,0,0,0,.208-.726,1.308,1.308,0,0,0-.223-.783,1.834,1.834,0,0,0-.611-.525,5.181,5.181,0,0,0-.891-.382l-1.063-.351a4.431,4.431,0,0,1-1.8-1.027,2.31,2.31,0,0,1-.6-1.675,2.678,2.678,0,0,1,.417-1.508,2.76,2.76,0,0,1,1.171-.984,4.5,4.5,0,0,1,3.506.007,2.949,2.949,0,0,1,1.193,1,2.728,2.728,0,0,1,.453,1.53H77.059a1.5,1.5,0,0,0-.2-.7,1.481,1.481,0,0,0-.539-.531,1.653,1.653,0,0,0-.855-.208,1.726,1.726,0,0,0-.769.136,1.249,1.249,0,0,0-.532.432,1.2,1.2,0,0,0-.194.7,1.163,1.163,0,0,0,.18.667,1.379,1.379,0,0,0,.525.446,5.809,5.809,0,0,0,.8.337l1.006.346a7.148,7.148,0,0,1,1.358.6,2.791,2.791,0,0,1,.97.912,2.655,2.655,0,0,1,.359,1.452,2.752,2.752,0,0,1-.4,1.444,2.933,2.933,0,0,1-1.178,1.078,4.126,4.126,0,0,1-1.94.41" transform="translate(-20.239 -132.792)"/>
          <path id="Path_33889" data-name="Path 33889" class="cls-4" d="M87.23,482.414a3.216,3.216,0,0,1-1.272-.23,1.728,1.728,0,0,1-.841-.762,2.913,2.913,0,0,1-.3-1.437v-3.363H83.58v-1.451h1.236l.2-1.911H86.54v1.911h1.969v1.451H86.54v3.363a.973.973,0,0,0,.237.754,1.208,1.208,0,0,0,.8.208h.891v1.466Z" transform="translate(-23.526 -133.214)"/>
          <path id="Path_33890" data-name="Path 33890" class="cls-4" d="M95.024,483.268a3.228,3.228,0,0,1-1.48-.3,2.046,2.046,0,0,1-.877-.8,2.16,2.16,0,0,1-.287-1.092,2.026,2.026,0,0,1,.352-1.193,2.277,2.277,0,0,1,1.042-.783,4.516,4.516,0,0,1,1.7-.28h1.825a2.518,2.518,0,0,0-.158-.956,1.128,1.128,0,0,0-.489-.568,1.713,1.713,0,0,0-.848-.187,1.828,1.828,0,0,0-1.006.266,1.162,1.162,0,0,0-.517.812h-1.7a2.579,2.579,0,0,1,.517-1.329,2.856,2.856,0,0,1,1.142-.862,3.856,3.856,0,0,1,1.559-.31,3.93,3.93,0,0,1,1.739.352,2.529,2.529,0,0,1,1.1,1.006,3.079,3.079,0,0,1,.381,1.574V483.1H97.553l-.172-1.164a2.331,2.331,0,0,1-.366.532,2.391,2.391,0,0,1-1.164.7,3.107,3.107,0,0,1-.826.1m.388-1.365a1.733,1.733,0,0,0,.74-.151,1.631,1.631,0,0,0,.56-.431,2.1,2.1,0,0,0,.366-.625,3.033,3.033,0,0,0,.172-.733v-.029h-1.6a2.3,2.3,0,0,0-.833.129.958.958,0,0,0-.474.352.943.943,0,0,0-.144.525.863.863,0,0,0,.56.848,1.654,1.654,0,0,0,.647.115" transform="translate(-26.003 -133.895)"/>
          <path id="Path_33891" data-name="Path 33891" class="cls-4" d="M106.969,482.414a3.216,3.216,0,0,1-1.272-.23,1.728,1.728,0,0,1-.841-.762,2.913,2.913,0,0,1-.3-1.437v-3.363h-1.236v-1.451h1.236l.2-1.911h1.523v1.911h1.969v1.451h-1.969v3.363a.973.973,0,0,0,.237.754,1.208,1.208,0,0,0,.8.208h.891v1.466Z" transform="translate(-29.082 -133.214)"/>
          <path id="Path_33892" data-name="Path 33892" class="cls-4" d="M115.087,483.335a3.02,3.02,0,0,1-1.5-.352,2.282,2.282,0,0,1-.956-1.064,4.16,4.16,0,0,1-.331-1.76V475.92h1.724v4.067a2.185,2.185,0,0,0,.4,1.415,1.461,1.461,0,0,0,1.2.481,1.778,1.778,0,0,0,.927-.244,1.7,1.7,0,0,0,.647-.712,2.5,2.5,0,0,0,.237-1.142V475.92h1.724v7.243H117.63l-.129-1.207a2.5,2.5,0,0,1-.956,1.005,2.787,2.787,0,0,1-1.459.374" transform="translate(-31.61 -133.963)"/>
          <path id="Path_33893" data-name="Path 33893" class="cls-4" d="M127.255,483.267a4.173,4.173,0,0,1-1.674-.31,2.689,2.689,0,0,1-1.121-.862,2.519,2.519,0,0,1-.481-1.272H125.7a1.508,1.508,0,0,0,.259.553,1.246,1.246,0,0,0,.51.4,1.888,1.888,0,0,0,.769.144,1.74,1.74,0,0,0,.7-.122.893.893,0,0,0,.4-.323.785.785,0,0,0,.129-.432.719.719,0,0,0-.187-.531,1.27,1.27,0,0,0-.539-.295q-.352-.109-.841-.208a9.186,9.186,0,0,1-1-.252,3.91,3.91,0,0,1-.862-.38,1.788,1.788,0,0,1-.6-.589,1.63,1.63,0,0,1-.223-.877,1.992,1.992,0,0,1,.338-1.135,2.3,2.3,0,0,1,.977-.8,3.625,3.625,0,0,1,1.53-.3,3.221,3.221,0,0,1,2.019.583,2.324,2.324,0,0,1,.884,1.631h-1.638a.918.918,0,0,0-.4-.626,1.548,1.548,0,0,0-.877-.222,1.474,1.474,0,0,0-.855.208.646.646,0,0,0-.295.553.541.541,0,0,0,.18.4,1.451,1.451,0,0,0,.525.295,7.881,7.881,0,0,0,.848.237,10.493,10.493,0,0,1,1.423.374,2.221,2.221,0,0,1,.977.632,1.75,1.75,0,0,1,.359,1.178,2.022,2.022,0,0,1-.352,1.221,2.394,2.394,0,0,1-1.027.827,3.867,3.867,0,0,1-1.581.295" transform="translate(-34.898 -133.895)"/>
          <path id="Path_33894" data-name="Path 33894" class="cls-4" d="M72.42,423.059V413h3.248a6.047,6.047,0,0,1,2.9.618,3.9,3.9,0,0,1,1.7,1.746,6.031,6.031,0,0,1,.553,2.68,5.959,5.959,0,0,1-.553,2.651,3.9,3.9,0,0,1-1.7,1.746,6.039,6.039,0,0,1-2.9.618Zm1.724-1.466h1.437a4.221,4.221,0,0,0,2.062-.424,2.4,2.4,0,0,0,1.078-1.221,5.81,5.81,0,0,0,0-3.823,2.467,2.467,0,0,0-1.078-1.236,4.116,4.116,0,0,0-2.062-.438H74.144Z" transform="translate(-20.385 -116.252)"/>
          <path id="Path_33895" data-name="Path 33895" class="cls-4" d="M89.641,424.268a3.634,3.634,0,0,1-1.861-.481,3.41,3.41,0,0,1-1.293-1.337,4.383,4.383,0,0,1,.007-3.952,3.456,3.456,0,0,1,1.3-1.336,3.833,3.833,0,0,1,3.722,0,3.41,3.41,0,0,1,1.293,1.33,4.049,4.049,0,0,1,.467,1.982,3.989,3.989,0,0,1-.474,1.982,3.48,3.48,0,0,1-1.3,1.331,3.634,3.634,0,0,1-1.861.481m0-1.482a1.777,1.777,0,0,0,.941-.257,1.864,1.864,0,0,0,.683-.776,3.318,3.318,0,0,0,.007-2.551,1.814,1.814,0,0,0-.675-.77,1.829,1.829,0,0,0-1.875,0,1.843,1.843,0,0,0-.69.77,2.8,2.8,0,0,0-.259,1.272,2.85,2.85,0,0,0,.259,1.28,1.859,1.859,0,0,0,.683.776,1.75,1.75,0,0,0,.927.257" transform="translate(-24.213 -117.287)"/>
          <path id="Path_33896" data-name="Path 33896" class="cls-4" d="M101.8,424.267a3.767,3.767,0,0,1-1.9-.481,3.372,3.372,0,0,1-1.308-1.336,4,4,0,0,1-.467-1.947,4.09,4.09,0,0,1,.467-1.99,3.418,3.418,0,0,1,1.308-1.344,3.75,3.75,0,0,1,1.918-.489,3.6,3.6,0,0,1,2.271.712,3.2,3.2,0,0,1,1.178,1.947h-1.811a1.477,1.477,0,0,0-.6-.863,1.824,1.824,0,0,0-1.071-.315,1.8,1.8,0,0,0-.97.273,1.859,1.859,0,0,0-.69.79,2.847,2.847,0,0,0-.251,1.251,3.119,3.119,0,0,0,.144.992,2,2,0,0,0,.41.725,1.857,1.857,0,0,0,.611.453,1.767,1.767,0,0,0,.747.158,2.01,2.01,0,0,0,.754-.137,1.49,1.49,0,0,0,.575-.41,1.612,1.612,0,0,0,.338-.647h1.811a3.247,3.247,0,0,1-1.178,1.933,3.575,3.575,0,0,1-2.285.726" transform="translate(-27.619 -117.287)"/>
          <path id="Path_33897" data-name="Path 33897" class="cls-4" d="M113.028,424.335a3.02,3.02,0,0,1-1.5-.352,2.283,2.283,0,0,1-.956-1.064,4.16,4.16,0,0,1-.331-1.76V416.92h1.724v4.067a2.186,2.186,0,0,0,.4,1.415,1.461,1.461,0,0,0,1.2.481,1.779,1.779,0,0,0,.927-.244,1.7,1.7,0,0,0,.647-.712,2.5,2.5,0,0,0,.237-1.142V416.92h1.724v7.243h-1.523l-.129-1.207a2.5,2.5,0,0,1-.956,1.005,2.787,2.787,0,0,1-1.459.374" transform="translate(-31.031 -117.355)"/>
          <path id="Path_33898" data-name="Path 33898" class="cls-4" d="M122.459,424.1v-7.243h1.523l.144.992a2.436,2.436,0,0,1,.913-.855,2.674,2.674,0,0,1,1.3-.309,3.159,3.159,0,0,1,.984.144,2.292,2.292,0,0,1,.776.431,2.257,2.257,0,0,1,.553.719,2.854,2.854,0,0,1,1.049-.948,2.945,2.945,0,0,1,1.408-.345,3.02,3.02,0,0,1,1.538.366,2.352,2.352,0,0,1,.963,1.078,4.126,4.126,0,0,1,.331,1.746V424.1h-1.71v-4.052a2.283,2.283,0,0,0-.374-1.408,1.307,1.307,0,0,0-1.107-.489,1.6,1.6,0,0,0-.884.244,1.633,1.633,0,0,0-.6.711,2.718,2.718,0,0,0-.216,1.142V424.1h-1.71v-4.052a2.283,2.283,0,0,0-.374-1.408,1.324,1.324,0,0,0-1.121-.489,1.547,1.547,0,0,0-.855.244,1.633,1.633,0,0,0-.6.711,2.718,2.718,0,0,0-.216,1.142V424.1Z" transform="translate(-34.47 -117.288)"/>
          <path id="Path_33899" data-name="Path 33899" class="cls-4" d="M144.275,424.267a3.765,3.765,0,0,1-1.9-.467,3.276,3.276,0,0,1-1.279-1.315,4.034,4.034,0,0,1-.46-1.954,4.267,4.267,0,0,1,.453-2.012,3.339,3.339,0,0,1,1.279-1.351,3.7,3.7,0,0,1,1.918-.489,3.535,3.535,0,0,1,1.854.475,3.28,3.28,0,0,1,1.221,1.272,3.7,3.7,0,0,1,.431,1.788v.317a2.332,2.332,0,0,1-.029.359h-5.892v-1.107h4.182a1.677,1.677,0,0,0-.532-1.244,1.8,1.8,0,0,0-1.25-.453,2,2,0,0,0-.977.245,1.747,1.747,0,0,0-.7.726,2.545,2.545,0,0,0-.259,1.214v.417a2.518,2.518,0,0,0,.251,1.164,1.749,1.749,0,0,0,.69.74,1.945,1.945,0,0,0,.984.251,1.8,1.8,0,0,0,1-.259,1.545,1.545,0,0,0,.582-.69h1.753a3.319,3.319,0,0,1-.661,1.214,3.236,3.236,0,0,1-1.135.847,3.618,3.618,0,0,1-1.523.31" transform="translate(-39.587 -117.287)"/>
          <path id="Path_33900" data-name="Path 33900" class="cls-4" d="M152.819,424.1v-7.243h1.523l.129,1.207a2.528,2.528,0,0,1,.948-1.006,2.782,2.782,0,0,1,1.466-.374,2.88,2.88,0,0,1,1.495.366,2.427,2.427,0,0,1,.956,1.071,4.044,4.044,0,0,1,.338,1.753V424.1h-1.724v-4.067a2.141,2.141,0,0,0-.4-1.394,1.456,1.456,0,0,0-1.193-.489,1.772,1.772,0,0,0-.927.244,1.7,1.7,0,0,0-.647.711,2.468,2.468,0,0,0-.237,1.128V424.1Z" transform="translate(-43.016 -117.288)"/>
          <path id="Path_33901" data-name="Path 33901" class="cls-4" d="M167.849,423.414a3.215,3.215,0,0,1-1.272-.23,1.728,1.728,0,0,1-.841-.762,2.913,2.913,0,0,1-.3-1.437v-3.363H164.2v-1.451h1.236l.2-1.911h1.523v1.911h1.969v1.451h-1.969v3.363a.973.973,0,0,0,.237.754,1.208,1.208,0,0,0,.8.208h.891v1.466Z" transform="translate(-46.219 -116.607)"/>
          <rect id="Rectangle_2408" data-name="Rectangle 2408" class="cls-4" width="1.724" height="10.059" transform="translate(128.096 296.748)"/>
          <path id="Path_33902" data-name="Path 33902" class="cls-4" d="M183.5,423.059V413h3.248a6.047,6.047,0,0,1,2.9.618,3.9,3.9,0,0,1,1.7,1.746,6.031,6.031,0,0,1,.553,2.68,5.959,5.959,0,0,1-.553,2.651,3.9,3.9,0,0,1-1.7,1.746,6.039,6.039,0,0,1-2.9.618Zm1.724-1.466h1.437a4.221,4.221,0,0,0,2.062-.424,2.4,2.4,0,0,0,1.078-1.221,5.81,5.81,0,0,0,0-3.823,2.467,2.467,0,0,0-1.078-1.236,4.116,4.116,0,0,0-2.062-.438h-1.437Z" transform="translate(-51.651 -116.252)"/>
          <path id="Path_33903" data-name="Path 33903" class="cls-5" d="M242.593,223H387.733a3.593,3.593,0,0,1,3.593,3.593v21.556a3.593,3.593,0,0,1-3.593,3.593H242.593A3.593,3.593,0,0,1,239,248.148V226.593A3.593,3.593,0,0,1,242.593,223" transform="translate(-67.274 -62.77)"/>
          <path id="Path_33904" data-name="Path 33904" class="cls-6" d="M387.733,251.741H242.593A3.6,3.6,0,0,1,239,248.148V226.593A3.6,3.6,0,0,1,242.593,223H387.733a3.6,3.6,0,0,1,3.593,3.593v21.556a3.6,3.6,0,0,1-3.593,3.593M242.593,223.359a3.237,3.237,0,0,0-3.233,3.233v21.556a3.237,3.237,0,0,0,3.233,3.233H387.733a3.237,3.237,0,0,0,3.233-3.233V226.593a3.237,3.237,0,0,0-3.233-3.233Z" transform="translate(-67.274 -62.77)"/>
          <path id="Path_33905" data-name="Path 33905" class="cls-5" d="M242.593,282H387.733a3.593,3.593,0,0,1,3.593,3.593v21.556a3.593,3.593,0,0,1-3.593,3.593H242.593A3.593,3.593,0,0,1,239,307.148V285.593A3.593,3.593,0,0,1,242.593,282" transform="translate(-67.274 -79.378)"/>
          <path id="Path_33906" data-name="Path 33906" class="cls-6" d="M387.733,310.741H242.593A3.6,3.6,0,0,1,239,307.148V285.593A3.6,3.6,0,0,1,242.593,282H387.733a3.6,3.6,0,0,1,3.593,3.593v21.556a3.6,3.6,0,0,1-3.593,3.593M242.593,282.359a3.237,3.237,0,0,0-3.233,3.233v21.556a3.237,3.237,0,0,0,3.233,3.233H387.733a3.237,3.237,0,0,0,3.233-3.233V285.593a3.237,3.237,0,0,0-3.233-3.233Z" transform="translate(-67.274 -79.378)"/>
          <path id="Path_33907" data-name="Path 33907" class="cls-5" d="M242.593,341H387.733a3.593,3.593,0,0,1,3.593,3.593v21.556a3.593,3.593,0,0,1-3.593,3.593H242.593A3.593,3.593,0,0,1,239,366.148V344.593A3.593,3.593,0,0,1,242.593,341" transform="translate(-67.274 -95.985)"/>
          <path id="Path_33908" data-name="Path 33908" class="cls-6" d="M387.733,369.741H242.593A3.6,3.6,0,0,1,239,366.148V344.593A3.6,3.6,0,0,1,242.593,341H387.733a3.6,3.6,0,0,1,3.593,3.593v21.556a3.6,3.6,0,0,1-3.593,3.593M242.593,341.359a3.237,3.237,0,0,0-3.233,3.233v21.556a3.237,3.237,0,0,0,3.233,3.233H387.733a3.237,3.237,0,0,0,3.233-3.233V344.593a3.237,3.237,0,0,0-3.233-3.233Z" transform="translate(-67.274 -95.985)"/>
          <path id="Path_33909" data-name="Path 33909" class="cls-5" d="M242.593,400H387.733a3.593,3.593,0,0,1,3.593,3.593v21.556a3.593,3.593,0,0,1-3.593,3.593H242.593A3.593,3.593,0,0,1,239,425.148V403.593A3.593,3.593,0,0,1,242.593,400" transform="translate(-67.274 -112.593)"/>
          <path id="Path_33910" data-name="Path 33910" class="cls-6" d="M387.733,428.741H242.593A3.6,3.6,0,0,1,239,425.148V403.593A3.6,3.6,0,0,1,242.593,400H387.733a3.6,3.6,0,0,1,3.593,3.593v21.556a3.6,3.6,0,0,1-3.593,3.593M242.593,400.359a3.237,3.237,0,0,0-3.233,3.233v21.556a3.237,3.237,0,0,0,3.233,3.233H387.733a3.237,3.237,0,0,0,3.233-3.233V403.593a3.237,3.237,0,0,0-3.233-3.233Z" transform="translate(-67.274 -112.593)"/>
          <path id="Path_33911" data-name="Path 33911" class="cls-5" d="M242.593,459H387.733a3.593,3.593,0,0,1,3.593,3.593v21.556a3.593,3.593,0,0,1-3.593,3.593H242.593A3.593,3.593,0,0,1,239,484.148V462.593A3.593,3.593,0,0,1,242.593,459" transform="translate(-67.274 -129.2)"/>
          <path id="Path_33912" data-name="Path 33912" class="cls-6" d="M387.733,487.741H242.593A3.6,3.6,0,0,1,239,484.148V462.593A3.6,3.6,0,0,1,242.593,459H387.733a3.6,3.6,0,0,1,3.593,3.593v21.556a3.6,3.6,0,0,1-3.593,3.593M242.593,459.359a3.237,3.237,0,0,0-3.233,3.233v21.556a3.237,3.237,0,0,0,3.233,3.233H387.733a3.237,3.237,0,0,0,3.233-3.233V462.593a3.237,3.237,0,0,0-3.233-3.233Z" transform="translate(-67.274 -129.2)"/>
          <path id="Path_33913" data-name="Path 33913" class="cls-7" d="M284.593,238h85.5a3.593,3.593,0,1,1,0,7.185h-85.5a3.593,3.593,0,1,1,0-7.185" transform="translate(-79.096 -66.993)"/>
          <path id="Path_33914" data-name="Path 33914" class="cls-7" d="M284.593,297h85.5a3.593,3.593,0,1,1,0,7.185h-85.5a3.593,3.593,0,1,1,0-7.185" transform="translate(-79.096 -83.6)"/>
          <path id="Path_33915" data-name="Path 33915" class="cls-7" d="M284.593,415h85.5a3.593,3.593,0,1,1,0,7.185h-85.5a3.593,3.593,0,1,1,0-7.185" transform="translate(-79.096 -116.815)"/>
        </g>
      </g>
      <g id="Group_6491" data-name="Group 6491" transform="translate(4.311 57.481)">
        <g id="Group_6490" data-name="Group 6490" class="cls-8">
          <path id="Path_33916" data-name="Path 33916" class="cls-9" d="M47.652,89h76.881a13.652,13.652,0,1,1,0,27.3H47.652a13.652,13.652,0,1,1,0-27.3" transform="translate(-13.881 -82.533)"/>
          <g class="cls-16" transform="matrix(1, 0, 0, 1, -72.31, -133.48)">
            <path id="Path_33917-2" data-name="Path 33917" class="cls-5" d="M206.652,89h76.881a13.652,13.652,0,1,1,0,27.3H206.652a13.652,13.652,0,1,1,0-27.3" transform="translate(13.67 50.95)"/>
          </g>
          <g class="cls-15" transform="matrix(1, 0, 0, 1, -72.31, -133.48)">
            <path id="Path_33918-2" data-name="Path 33918" class="cls-5" d="M365.652,89h76.881a13.652,13.652,0,1,1,0,27.3H365.652a13.652,13.652,0,1,1,0-27.3" transform="translate(-31.08 50.95)"/>
          </g>
          <g class="cls-14" transform="matrix(1, 0, 0, 1, -72.31, -133.48)">
            <path id="Path_33919-2" data-name="Path 33919" class="cls-5" d="M47.652,142h76.881a13.652,13.652,0,1,1,0,27.3H47.652a13.652,13.652,0,1,1,0-27.3" transform="translate(58.43 36.03)"/>
          </g>
          <g class="cls-13" transform="matrix(1, 0, 0, 1, -72.31, -133.48)">
            <path id="Path_33920-2" data-name="Path 33920" class="cls-5" d="M206.652,142h76.881a13.652,13.652,0,1,1,0,27.3H206.652a13.652,13.652,0,1,1,0-27.3" transform="translate(13.67 36.03)"/>
          </g>
          <g class="cls-12" transform="matrix(1, 0, 0, 1, -72.31, -133.48)">
            <path id="Path_33921-2" data-name="Path 33921" class="cls-5" d="M365.652,142h76.881a13.652,13.652,0,1,1,0,27.3H365.652a13.652,13.652,0,1,1,0-27.3" transform="translate(-31.08 36.03)"/>
          </g>
          <path id="Path_33922" data-name="Path 33922" class="cls-10" d="M234.168,110.847V102.8h1.15v7.139H239v.908Z" transform="translate(-70.225 -86.418)"/>
          <path id="Path_33923" data-name="Path 33923" class="cls-10" d="M244.523,111.814a2.584,2.584,0,0,1-1.184-.241,1.628,1.628,0,0,1-.7-.65,1.76,1.76,0,0,1-.23-.88,1.617,1.617,0,0,1,.3-.982,1.872,1.872,0,0,1,.851-.627,3.584,3.584,0,0,1,1.322-.219h1.506a2.055,2.055,0,0,0-.149-.839,1.051,1.051,0,0,0-.443-.5,1.482,1.482,0,0,0-.742-.167,1.559,1.559,0,0,0-.885.247,1.083,1.083,0,0,0-.46.731h-1.15a1.959,1.959,0,0,1,.42-1.04,2.3,2.3,0,0,1,.9-.667,3.225,3.225,0,0,1,2.541.051,1.947,1.947,0,0,1,.833.811,2.6,2.6,0,0,1,.282,1.247v3.588h-1l-.092-.978a2.807,2.807,0,0,1-.3.438,1.74,1.74,0,0,1-.408.356,2.045,2.045,0,0,1-.54.236,2.467,2.467,0,0,1-.673.086m.218-.931a1.469,1.469,0,0,0,.667-.149,1.567,1.567,0,0,0,.512-.408,1.839,1.839,0,0,0,.322-.587,2.372,2.372,0,0,0,.121-.672v-.034h-1.368a2.187,2.187,0,0,0-.8.121.91.91,0,0,0-.443.328.848.848,0,0,0-.138.483.866.866,0,0,0,.132.488.885.885,0,0,0,.385.317,1.473,1.473,0,0,0,.609.115" transform="translate(-72.544 -87.246)"/>
          <path id="Path_33924" data-name="Path 33924" class="cls-10" d="M251.592,111.676v-5.794h1.035l.069.989a2.1,2.1,0,0,1,.782-.822,2.21,2.21,0,0,1,1.161-.3,2.394,2.394,0,0,1,1.184.276,1.875,1.875,0,0,1,.77.833,3.139,3.139,0,0,1,.276,1.4v3.426h-1.15v-3.311a1.82,1.82,0,0,0-.356-1.219,1.291,1.291,0,0,0-1.035-.414,1.543,1.543,0,0,0-.8.213,1.507,1.507,0,0,0-.569.627,2.2,2.2,0,0,0-.213,1.012v3.093Z" transform="translate(-75.13 -87.246)"/>
          <path id="Path_33925" data-name="Path 33925" class="cls-10" d="M263.474,110.9a2.658,2.658,0,0,1-2.443-1.478,3.648,3.648,0,0,1,0-3.121,2.681,2.681,0,0,1,2.454-1.472,2.544,2.544,0,0,1,1.2.27,1.966,1.966,0,0,1,.8.765v-3.379h1.15v8.277h-1.023l-.126-.9a2.348,2.348,0,0,1-.448.5,2.264,2.264,0,0,1-.667.386,2.528,2.528,0,0,1-.9.149m.184-1a1.791,1.791,0,0,0,.954-.253,1.668,1.668,0,0,0,.638-.713,2.414,2.414,0,0,0,.224-1.069,2.375,2.375,0,0,0-.224-1.063,1.724,1.724,0,0,0-.638-.713,1.763,1.763,0,0,0-.954-.259,1.721,1.721,0,0,0-.931.259,1.762,1.762,0,0,0-.644.713,2.319,2.319,0,0,0-.23,1.063,2.357,2.357,0,0,0,.23,1.069,1.7,1.7,0,0,0,.644.713,1.748,1.748,0,0,0,.931.253" transform="translate(-77.688 -86.328)"/>
          <rect id="Rectangle_2410" data-name="Rectangle 2410" class="cls-10" width="1.15" height="8.277" transform="translate(190.522 16.152)"/>
          <path id="Path_33926" data-name="Path 33926" class="cls-10" d="M277.51,111.814a2.861,2.861,0,0,1-1.466-.379,2.707,2.707,0,0,1-1.023-1.064,3.554,3.554,0,0,1,.006-3.184,2.733,2.733,0,0,1,1.035-1.063,2.882,2.882,0,0,1,1.472-.379,2.845,2.845,0,0,1,1.472.379,2.734,2.734,0,0,1,1.017,1.058,3.6,3.6,0,0,1,0,3.2,2.713,2.713,0,0,1-1.029,1.058,2.912,2.912,0,0,1-1.482.379m0-.989a1.636,1.636,0,0,0,.856-.23,1.673,1.673,0,0,0,.622-.684,2.458,2.458,0,0,0,.235-1.133,2.5,2.5,0,0,0-.23-1.132,1.59,1.59,0,0,0-1.46-.913,1.622,1.622,0,0,0-1.477.913,2.84,2.84,0,0,0,0,2.265,1.657,1.657,0,0,0,.621.684,1.593,1.593,0,0,0,.834.23" transform="translate(-81.619 -87.246)"/>
          <path id="Path_33927" data-name="Path 33927" class="cls-10" d="M284.535,111.676v-5.794h1.035l.1,1.092a2.129,2.129,0,0,1,.506-.661,2.25,2.25,0,0,1,.73-.42,2.847,2.847,0,0,1,.96-.149v1.219h-.414a2.608,2.608,0,0,0-.678.086,1.462,1.462,0,0,0-.569.293,1.359,1.359,0,0,0-.385.563,2.468,2.468,0,0,0-.138.885v2.886Z" transform="translate(-84.402 -87.246)"/>
          <path id="Path_33928" data-name="Path 33928" class="cls-10" d="M292.882,110.9a2.658,2.658,0,0,1-2.443-1.478,3.649,3.649,0,0,1,0-3.121,2.681,2.681,0,0,1,2.454-1.472,2.544,2.544,0,0,1,1.2.27,1.966,1.966,0,0,1,.8.765v-3.379h1.15v8.277H295.02l-.126-.9a2.347,2.347,0,0,1-.448.5,2.264,2.264,0,0,1-.667.386,2.528,2.528,0,0,1-.9.149m.184-1a1.791,1.791,0,0,0,.954-.253,1.668,1.668,0,0,0,.638-.713,2.413,2.413,0,0,0,.224-1.069,2.375,2.375,0,0,0-.224-1.063,1.724,1.724,0,0,0-.638-.713,1.763,1.763,0,0,0-.954-.259,1.721,1.721,0,0,0-.931.259,1.762,1.762,0,0,0-.644.713,2.319,2.319,0,0,0-.23,1.063,2.357,2.357,0,0,0,.23,1.069,1.7,1.7,0,0,0,.644.713,1.748,1.748,0,0,0,.931.253" transform="translate(-85.966 -86.328)"/>
          <path id="Path_33929" data-name="Path 33929" class="cls-10" d="M240.168,163.847V155.8h2.748a3.433,3.433,0,0,1,1.586.322,2.14,2.14,0,0,1,.92.862,2.644,2.644,0,0,1,.006,2.431,2.124,2.124,0,0,1-.914.874,3.415,3.415,0,0,1-1.6.328h-1.6v3.23Zm1.15-4.185h1.552a1.753,1.753,0,0,0,1.293-.4,1.668,1.668,0,0,0,0-2.133,1.805,1.805,0,0,0-1.293-.379h-1.552Z" transform="translate(-71.914 -101.336)"/>
          <path id="Path_33930" data-name="Path 33930" class="cls-10" d="M249.544,164.676v-5.794h1.035l.1,1.092a2.129,2.129,0,0,1,.506-.661,2.25,2.25,0,0,1,.73-.42,2.847,2.847,0,0,1,.96-.149v1.219h-.414a2.607,2.607,0,0,0-.678.086,1.462,1.462,0,0,0-.569.293,1.359,1.359,0,0,0-.385.563,2.467,2.467,0,0,0-.138.885v2.886Z" transform="translate(-74.553 -102.165)"/>
          <path id="Path_33931" data-name="Path 33931" class="cls-10" d="M257.959,164.814a2.86,2.86,0,0,1-1.466-.379,2.706,2.706,0,0,1-1.023-1.064,3.553,3.553,0,0,1,.006-3.184,2.733,2.733,0,0,1,1.035-1.063,2.882,2.882,0,0,1,1.472-.379,2.845,2.845,0,0,1,1.472.379,2.735,2.735,0,0,1,1.017,1.058,3.6,3.6,0,0,1,0,3.2,2.712,2.712,0,0,1-1.029,1.058,2.913,2.913,0,0,1-1.483.379m0-.989a1.637,1.637,0,0,0,.857-.23,1.667,1.667,0,0,0,.621-.684,2.449,2.449,0,0,0,.236-1.133,2.5,2.5,0,0,0-.23-1.132,1.59,1.59,0,0,0-1.46-.913,1.623,1.623,0,0,0-1.477.913,2.84,2.84,0,0,0,0,2.265,1.657,1.657,0,0,0,.621.684,1.592,1.592,0,0,0,.833.23" transform="translate(-76.116 -102.165)"/>
          <path id="Path_33932" data-name="Path 33932" class="cls-10" d="M263.448,166.264v-.977h.46a.812.812,0,0,0,.586-.172.793.793,0,0,0,.172-.575v-6.6h1.15v6.622a2.086,2.086,0,0,1-.2.977,1.2,1.2,0,0,1-.592.552,2.328,2.328,0,0,1-.943.172Zm1.8-9.415a.75.75,0,0,1-.546-.207.7.7,0,0,1-.213-.529.672.672,0,0,1,.213-.512.761.761,0,0,1,.546-.2.748.748,0,0,1,.535.2.675.675,0,0,1,.213.512.708.708,0,0,1-.213.529.737.737,0,0,1-.535.207" transform="translate(-78.467 -101.224)"/>
          <path id="Path_33933" data-name="Path 33933" class="cls-10" d="M271.552,164.814a2.85,2.85,0,0,1-1.472-.379,2.652,2.652,0,0,1-1.006-1.058,3.3,3.3,0,0,1-.362-1.575,3.382,3.382,0,0,1,.362-1.6,2.676,2.676,0,0,1,1.006-1.068,2.851,2.851,0,0,1,1.495-.385,2.707,2.707,0,0,1,1.46.379,2.612,2.612,0,0,1,.943,1.005,2.9,2.9,0,0,1,.333,1.385c0,.078,0,.16-.006.248s-.009.186-.017.292h-4.736v-.816h3.61a1.562,1.562,0,0,0-.483-1.132,1.6,1.6,0,0,0-1.115-.407,1.778,1.778,0,0,0-.862.213,1.6,1.6,0,0,0-.627.621,2.038,2.038,0,0,0-.236,1.029v.322a2.293,2.293,0,0,0,.236,1.086,1.626,1.626,0,0,0,.627.666,1.681,1.681,0,0,0,.851.225,1.585,1.585,0,0,0,.908-.241,1.443,1.443,0,0,0,.529-.655h1.15a2.5,2.5,0,0,1-.506.948,2.533,2.533,0,0,1-.879.662,2.837,2.837,0,0,1-1.2.241" transform="translate(-79.949 -102.165)"/>
          <path id="Path_33934" data-name="Path 33934" class="cls-10" d="M280.872,164.814a2.9,2.9,0,0,1-1.495-.385,2.744,2.744,0,0,1-1.029-1.064,3.206,3.206,0,0,1-.374-1.574,3.27,3.27,0,0,1,.374-1.593,2.731,2.731,0,0,1,1.029-1.068,2.889,2.889,0,0,1,1.495-.385,2.809,2.809,0,0,1,1.77.551,2.457,2.457,0,0,1,.908,1.495h-1.2a1.236,1.236,0,0,0-.523-.781,1.693,1.693,0,0,0-.971-.276,1.615,1.615,0,0,0-.851.236,1.689,1.689,0,0,0-.627.69,2.408,2.408,0,0,0-.236,1.12,2.6,2.6,0,0,0,.138.88,1.945,1.945,0,0,0,.374.649,1.529,1.529,0,0,0,.546.4,1.663,1.663,0,0,0,.655.132,1.844,1.844,0,0,0,.684-.121,1.351,1.351,0,0,0,.517-.362,1.323,1.323,0,0,0,.293-.575h1.2a2.469,2.469,0,0,1-.908,1.477,2.787,2.787,0,0,1-1.77.558" transform="translate(-82.556 -102.165)"/>
          <path id="Path_33935" data-name="Path 33935" class="cls-10" d="M289.654,164.163a2.381,2.381,0,0,1-.943-.172,1.249,1.249,0,0,1-.621-.575,2.306,2.306,0,0,1-.218-1.092v-2.978h-1v-.977h1l.138-1.449h1.012v1.449h1.644v.977h-1.644v2.989a.864.864,0,0,0,.207.673,1.1,1.1,0,0,0,.713.178h.667v.977Z" transform="translate(-85.06 -101.652)"/>
          <path id="Path_33936" data-name="Path 33936" class="cls-5" d="M83.844,110.847v-7.1h-2.38V102.8h5.921v.943H84.993v7.1Z" transform="translate(-27.242 -86.418)"/>
          <path id="Path_33937" data-name="Path 33937" class="cls-5" d="M92.336,111.814a2.85,2.85,0,0,1-1.472-.379,2.652,2.652,0,0,1-1.006-1.058A3.3,3.3,0,0,1,89.5,108.8a3.382,3.382,0,0,1,.362-1.6,2.676,2.676,0,0,1,1.006-1.068,2.85,2.85,0,0,1,1.495-.385,2.707,2.707,0,0,1,1.46.379,2.612,2.612,0,0,1,.943,1.005,2.9,2.9,0,0,1,.333,1.385c0,.078,0,.16-.006.248s-.009.186-.017.292H90.335v-.816h3.61a1.562,1.562,0,0,0-.483-1.132,1.6,1.6,0,0,0-1.115-.407,1.778,1.778,0,0,0-.862.213,1.6,1.6,0,0,0-.627.621,2.038,2.038,0,0,0-.236,1.029v.322a2.293,2.293,0,0,0,.236,1.086,1.626,1.626,0,0,0,.627.666,1.681,1.681,0,0,0,.851.225,1.585,1.585,0,0,0,.908-.241,1.443,1.443,0,0,0,.529-.655h1.15a2.5,2.5,0,0,1-.506.948,2.534,2.534,0,0,1-.879.662,2.837,2.837,0,0,1-1.2.241" transform="translate(-29.503 -87.246)"/>
          <path id="Path_33938" data-name="Path 33938" class="cls-5" d="M99.064,111.676v-5.794H100.1l.069.989a2.1,2.1,0,0,1,.782-.822,2.21,2.21,0,0,1,1.161-.3,2.4,2.4,0,0,1,1.184.276,1.874,1.874,0,0,1,.77.833,3.139,3.139,0,0,1,.276,1.4v3.426h-1.15v-3.311a1.82,1.82,0,0,0-.356-1.219,1.291,1.291,0,0,0-1.035-.414,1.543,1.543,0,0,0-.8.213,1.507,1.507,0,0,0-.569.627,2.2,2.2,0,0,0-.213,1.012v3.093Z" transform="translate(-32.196 -87.246)"/>
          <path id="Path_33939" data-name="Path 33939" class="cls-5" d="M110.3,111.814a2.584,2.584,0,0,1-1.184-.241,1.628,1.628,0,0,1-.7-.65,1.76,1.76,0,0,1-.23-.88,1.617,1.617,0,0,1,.3-.982,1.872,1.872,0,0,1,.851-.627,3.585,3.585,0,0,1,1.322-.219h1.506a2.055,2.055,0,0,0-.149-.839,1.051,1.051,0,0,0-.443-.5,1.482,1.482,0,0,0-.742-.167,1.559,1.559,0,0,0-.885.247,1.083,1.083,0,0,0-.46.731h-1.15a1.959,1.959,0,0,1,.42-1.04,2.3,2.3,0,0,1,.9-.667,3.225,3.225,0,0,1,2.541.051,1.947,1.947,0,0,1,.833.811,2.6,2.6,0,0,1,.282,1.247v3.588h-1l-.092-.978a2.807,2.807,0,0,1-.3.438,1.74,1.74,0,0,1-.408.356,2.045,2.045,0,0,1-.54.236,2.467,2.467,0,0,1-.673.086m.218-.931a1.469,1.469,0,0,0,.667-.149,1.567,1.567,0,0,0,.512-.408,1.838,1.838,0,0,0,.322-.587,2.372,2.372,0,0,0,.121-.672v-.034h-1.368a2.187,2.187,0,0,0-.8.121.91.91,0,0,0-.443.328.848.848,0,0,0-.138.483.866.866,0,0,0,.132.488.885.885,0,0,0,.385.317,1.473,1.473,0,0,0,.609.115" transform="translate(-34.763 -87.246)"/>
          <path id="Path_33940" data-name="Path 33940" class="cls-5" d="M117.367,111.676v-5.794H118.4l.069.989a2.1,2.1,0,0,1,.782-.822,2.21,2.21,0,0,1,1.161-.3,2.394,2.394,0,0,1,1.184.276,1.874,1.874,0,0,1,.77.833,3.139,3.139,0,0,1,.276,1.4v3.426h-1.15v-3.311a1.82,1.82,0,0,0-.356-1.219,1.291,1.291,0,0,0-1.035-.414,1.543,1.543,0,0,0-.8.213,1.507,1.507,0,0,0-.569.627,2.2,2.2,0,0,0-.213,1.012v3.093Z" transform="translate(-37.348 -87.246)"/>
          <path id="Path_33941" data-name="Path 33941" class="cls-5" d="M128.981,111.163a2.381,2.381,0,0,1-.943-.172,1.249,1.249,0,0,1-.621-.575,2.306,2.306,0,0,1-.218-1.092v-2.978h-1v-.977h1l.138-1.449h1.012v1.449h1.644v.977h-1.644v2.989a.864.864,0,0,0,.207.673,1.1,1.1,0,0,0,.713.178h.667v.977Z" transform="translate(-39.834 -86.733)"/>
          <path id="Path_33942" data-name="Path 33942" class="cls-10" d="M75.168,163.847V155.8h2.748a3.433,3.433,0,0,1,1.586.322,2.14,2.14,0,0,1,.92.862,2.644,2.644,0,0,1,.006,2.431,2.124,2.124,0,0,1-.914.874,3.415,3.415,0,0,1-1.6.328h-1.6v3.23Zm1.15-4.185H77.87a1.753,1.753,0,0,0,1.293-.4,1.668,1.668,0,0,0,0-2.133,1.805,1.805,0,0,0-1.293-.379H76.318Z" transform="translate(-25.47 -101.336)"/>
          <path id="Path_33943" data-name="Path 33943" class="cls-10" d="M84.544,164.676v-5.794h1.035l.1,1.092a2.129,2.129,0,0,1,.506-.661,2.25,2.25,0,0,1,.73-.42,2.847,2.847,0,0,1,.96-.149v1.219h-.414a2.607,2.607,0,0,0-.678.086,1.462,1.462,0,0,0-.569.293,1.359,1.359,0,0,0-.385.563,2.468,2.468,0,0,0-.138.885v2.886Z" transform="translate(-28.109 -102.165)"/>
          <path id="Path_33944" data-name="Path 33944" class="cls-10" d="M92.959,164.814a2.86,2.86,0,0,1-1.466-.379,2.707,2.707,0,0,1-1.023-1.064,3.554,3.554,0,0,1,.006-3.184,2.733,2.733,0,0,1,1.035-1.063,2.882,2.882,0,0,1,1.472-.379,2.845,2.845,0,0,1,1.472.379,2.734,2.734,0,0,1,1.017,1.058,3.6,3.6,0,0,1,0,3.2,2.713,2.713,0,0,1-1.029,1.058,2.913,2.913,0,0,1-1.483.379m0-.989a1.636,1.636,0,0,0,.856-.23,1.667,1.667,0,0,0,.621-.684,2.449,2.449,0,0,0,.236-1.133,2.5,2.5,0,0,0-.23-1.132,1.59,1.59,0,0,0-1.46-.913,1.623,1.623,0,0,0-1.477.913,2.84,2.84,0,0,0,0,2.265,1.657,1.657,0,0,0,.621.684,1.592,1.592,0,0,0,.833.23" transform="translate(-29.671 -102.165)"/>
          <path id="Path_33945" data-name="Path 33945" class="cls-10" d="M99.984,167.205v-8.323h1.035l.115.9a2.655,2.655,0,0,1,.46-.5,2.294,2.294,0,0,1,.661-.385,2.5,2.5,0,0,1,.9-.149,2.635,2.635,0,0,1,1.454.4,2.766,2.766,0,0,1,.977,1.087,3.367,3.367,0,0,1,.351,1.558,3.321,3.321,0,0,1-.356,1.558,2.733,2.733,0,0,1-.983,1.075,2.694,2.694,0,0,1-1.454.391,2.551,2.551,0,0,1-1.2-.27,2.065,2.065,0,0,1-.816-.754v3.414Zm2.978-3.391a1.74,1.74,0,0,0,.937-.253,1.758,1.758,0,0,0,.644-.713,2.321,2.321,0,0,0,.236-1.069,2.284,2.284,0,0,0-.236-1.063A1.82,1.82,0,0,0,103.9,160a1.713,1.713,0,0,0-.937-.259,1.735,1.735,0,0,0-.948.259,1.774,1.774,0,0,0-.638.713,2.328,2.328,0,0,0-.23,1.063,2.366,2.366,0,0,0,.23,1.069,1.715,1.715,0,0,0,.638.713,1.762,1.762,0,0,0,.948.253" transform="translate(-32.455 -102.165)"/>
          <path id="Path_33946" data-name="Path 33946" class="cls-10" d="M112.68,164.814a2.85,2.85,0,0,1-1.472-.379,2.652,2.652,0,0,1-1.006-1.058,3.3,3.3,0,0,1-.362-1.575,3.382,3.382,0,0,1,.362-1.6,2.676,2.676,0,0,1,1.006-1.068,2.85,2.85,0,0,1,1.495-.385,2.707,2.707,0,0,1,1.46.379,2.612,2.612,0,0,1,.943,1.005,2.9,2.9,0,0,1,.333,1.385c0,.078,0,.16-.006.248s-.009.186-.017.292h-4.736v-.816h3.61a1.562,1.562,0,0,0-.483-1.132,1.6,1.6,0,0,0-1.115-.407,1.779,1.779,0,0,0-.862.213,1.6,1.6,0,0,0-.627.621,2.038,2.038,0,0,0-.236,1.029v.322a2.293,2.293,0,0,0,.236,1.086,1.626,1.626,0,0,0,.627.666,1.681,1.681,0,0,0,.851.225,1.585,1.585,0,0,0,.908-.241,1.443,1.443,0,0,0,.529-.655h1.15a2.5,2.5,0,0,1-.506.948,2.534,2.534,0,0,1-.879.662,2.838,2.838,0,0,1-1.2.241" transform="translate(-35.229 -102.165)"/>
          <path id="Path_33947" data-name="Path 33947" class="cls-10" d="M119.407,164.676v-5.794h1.035l.1,1.092a2.129,2.129,0,0,1,.506-.661,2.25,2.25,0,0,1,.73-.42,2.847,2.847,0,0,1,.96-.149v1.219h-.414a2.607,2.607,0,0,0-.678.086,1.462,1.462,0,0,0-.569.293,1.359,1.359,0,0,0-.385.563,2.468,2.468,0,0,0-.138.885v2.886Z" transform="translate(-37.922 -102.165)"/>
          <path id="Path_33948" data-name="Path 33948" class="cls-10" d="M127.742,164.163a2.381,2.381,0,0,1-.943-.172,1.249,1.249,0,0,1-.621-.575,2.306,2.306,0,0,1-.218-1.092v-2.978h-1v-.977h1l.138-1.449h1.012v1.449h1.644v.977H127.11v2.989a.864.864,0,0,0,.207.673,1.1,1.1,0,0,0,.713.178h.667v.977Z" transform="translate(-39.485 -101.652)"/>
          <path id="Path_33949" data-name="Path 33949" class="cls-10" d="M132.454,167.259l1.414-3.173h-.333l-2.288-5.15h1.242l1.816,4.208,1.828-4.208h1.207l-3.679,8.323Z" transform="translate(-41.255 -102.219)"/>
          <path id="Path_33950" data-name="Path 33950" class="cls-10" d="M404.168,110.847V102.8h1.15v7.139H409v.908Z" transform="translate(-118.077 -86.418)"/>
          <path id="Path_33951" data-name="Path 33951" class="cls-10" d="M414.864,111.814a2.85,2.85,0,0,1-1.472-.379,2.652,2.652,0,0,1-1.006-1.058,3.3,3.3,0,0,1-.362-1.575,3.382,3.382,0,0,1,.362-1.6,2.676,2.676,0,0,1,1.006-1.068,2.851,2.851,0,0,1,1.495-.385,2.707,2.707,0,0,1,1.46.379,2.612,2.612,0,0,1,.943,1.005,2.9,2.9,0,0,1,.333,1.385c0,.078,0,.16-.006.248s-.009.186-.017.292h-4.736v-.816h3.61a1.562,1.562,0,0,0-.483-1.132,1.6,1.6,0,0,0-1.115-.407,1.779,1.779,0,0,0-.862.213,1.6,1.6,0,0,0-.627.621,2.038,2.038,0,0,0-.236,1.029v.322a2.293,2.293,0,0,0,.236,1.086,1.626,1.626,0,0,0,.627.666,1.681,1.681,0,0,0,.851.225,1.585,1.585,0,0,0,.908-.241,1.443,1.443,0,0,0,.529-.655h1.15a2.5,2.5,0,0,1-.506.948,2.534,2.534,0,0,1-.879.662,2.838,2.838,0,0,1-1.2.241" transform="translate(-120.288 -87.246)"/>
          <path id="Path_33952" data-name="Path 33952" class="cls-10" d="M423.435,111.814a2.584,2.584,0,0,1-1.184-.241,1.628,1.628,0,0,1-.7-.65,1.759,1.759,0,0,1-.23-.88,1.617,1.617,0,0,1,.3-.982,1.872,1.872,0,0,1,.851-.627,3.584,3.584,0,0,1,1.322-.219H425.3a2.055,2.055,0,0,0-.149-.839,1.051,1.051,0,0,0-.443-.5,1.482,1.482,0,0,0-.742-.167,1.559,1.559,0,0,0-.885.247,1.083,1.083,0,0,0-.46.731h-1.15a1.959,1.959,0,0,1,.42-1.04,2.3,2.3,0,0,1,.9-.667,3.225,3.225,0,0,1,2.541.051,1.947,1.947,0,0,1,.833.811,2.6,2.6,0,0,1,.282,1.247v3.588h-1l-.092-.978a2.806,2.806,0,0,1-.3.438,1.74,1.74,0,0,1-.408.356,2.045,2.045,0,0,1-.54.236,2.467,2.467,0,0,1-.673.086m.218-.931a1.469,1.469,0,0,0,.667-.149,1.567,1.567,0,0,0,.512-.408,1.839,1.839,0,0,0,.322-.587,2.373,2.373,0,0,0,.121-.672v-.034h-1.368a2.187,2.187,0,0,0-.8.121.91.91,0,0,0-.443.328.849.849,0,0,0-.138.483.866.866,0,0,0,.132.488.885.885,0,0,0,.385.317,1.473,1.473,0,0,0,.609.115" transform="translate(-122.905 -87.246)"/>
          <path id="Path_33953" data-name="Path 33953" class="cls-10" d="M432.624,111.814a3.189,3.189,0,0,1-1.288-.241,2.042,2.042,0,0,1-1.265-1.7h1.173a1.3,1.3,0,0,0,.224.506,1.166,1.166,0,0,0,.46.368,1.619,1.619,0,0,0,.7.138,1.56,1.56,0,0,0,.627-.109.749.749,0,0,0,.477-.708.692.692,0,0,0-.155-.488,1.052,1.052,0,0,0-.46-.264,6.329,6.329,0,0,0-.73-.179,5.612,5.612,0,0,1-.776-.189,2.978,2.978,0,0,1-.667-.3,1.427,1.427,0,0,1-.466-.466,1.309,1.309,0,0,1-.172-.7,1.572,1.572,0,0,1,.264-.891,1.752,1.752,0,0,1,.753-.622,2.748,2.748,0,0,1,1.155-.223,2.447,2.447,0,0,1,1.552.459,1.865,1.865,0,0,1,.69,1.3H433.6a.826.826,0,0,0-.345-.6,1.343,1.343,0,0,0-.793-.213,1.256,1.256,0,0,0-.759.2.612.612,0,0,0-.264.517.522.522,0,0,0,.149.368,1.112,1.112,0,0,0,.443.27,5.186,5.186,0,0,0,.719.2,7.3,7.3,0,0,1,1.092.288,1.78,1.78,0,0,1,.77.506,1.418,1.418,0,0,1,.287.954,1.591,1.591,0,0,1-.27.953,1.844,1.844,0,0,1-.793.645,2.946,2.946,0,0,1-1.213.23" transform="translate(-125.368 -87.246)"/>
          <path id="Path_33954" data-name="Path 33954" class="cls-10" d="M441.216,111.814a2.85,2.85,0,0,1-1.471-.379,2.651,2.651,0,0,1-1.006-1.058,3.3,3.3,0,0,1-.362-1.575,3.382,3.382,0,0,1,.362-1.6,2.675,2.675,0,0,1,1.006-1.068,2.85,2.85,0,0,1,1.495-.385,2.707,2.707,0,0,1,1.46.379,2.612,2.612,0,0,1,.943,1.005,2.9,2.9,0,0,1,.333,1.385c0,.078,0,.16-.006.248s-.009.186-.017.292h-4.736v-.816h3.61a1.562,1.562,0,0,0-.483-1.132,1.6,1.6,0,0,0-1.115-.407,1.778,1.778,0,0,0-.862.213,1.6,1.6,0,0,0-.627.621,2.038,2.038,0,0,0-.236,1.029v.322a2.294,2.294,0,0,0,.236,1.086,1.626,1.626,0,0,0,.627.666,1.681,1.681,0,0,0,.851.225,1.585,1.585,0,0,0,.908-.241,1.443,1.443,0,0,0,.529-.655h1.15a2.5,2.5,0,0,1-.506.948,2.533,2.533,0,0,1-.879.662,2.837,2.837,0,0,1-1.2.241" transform="translate(-127.706 -87.246)"/>
          <path id="Path_33955" data-name="Path 33955" class="cls-10" d="M413.1,163.985a3.44,3.44,0,0,1-1.54-.34,2.569,2.569,0,0,1-1.1-1.034,3.472,3.472,0,0,1-.408-1.777V155.8h1.15v5.048a2.579,2.579,0,0,0,.241,1.19,1.562,1.562,0,0,0,.673.69,2.382,2.382,0,0,0,2.018,0,1.542,1.542,0,0,0,.661-.69,2.629,2.629,0,0,0,.236-1.19V155.8h1.15v5.035a3.436,3.436,0,0,1-.414,1.777,2.586,2.586,0,0,1-1.115,1.034,3.513,3.513,0,0,1-1.552.34" transform="translate(-119.734 -101.336)"/>
          <path id="Path_33956" data-name="Path 33956" class="cls-10" d="M420.728,164.676v-5.794h1.035l.069.989a2.1,2.1,0,0,1,.782-.822,2.21,2.21,0,0,1,1.161-.3,2.394,2.394,0,0,1,1.184.276,1.874,1.874,0,0,1,.77.833,3.139,3.139,0,0,1,.276,1.4v3.426h-1.15v-3.311a1.82,1.82,0,0,0-.356-1.219,1.291,1.291,0,0,0-1.035-.414,1.543,1.543,0,0,0-.8.213,1.507,1.507,0,0,0-.569.627,2.2,2.2,0,0,0-.213,1.012v3.092Z" transform="translate(-122.738 -102.165)"/>
          <path id="Path_33957" data-name="Path 33957" class="cls-10" d="M430.751,156.849a.749.749,0,0,1-.546-.207.706.706,0,0,1-.213-.53.673.673,0,0,1,.213-.512.836.836,0,0,1,1.086,0,.666.666,0,0,1,.218.512.7.7,0,0,1-.218.53.757.757,0,0,1-.54.207m-.586,1.091h1.15v5.794h-1.15Z" transform="translate(-125.346 -101.224)"/>
          <path id="Path_33958" data-name="Path 33958" class="cls-10" d="M436.342,164.163a2.381,2.381,0,0,1-.943-.172,1.249,1.249,0,0,1-.621-.575,2.305,2.305,0,0,1-.218-1.092v-2.978h-1v-.977h1l.138-1.449h1.012v1.449h1.644v.977H435.71v2.989a.864.864,0,0,0,.207.673,1.1,1.1,0,0,0,.713.178h.667v.977Z" transform="translate(-126.35 -101.652)"/>
        </g>
      </g>
      <g id="Group_6493" data-name="Group 6493">
        <g id="Group_6492" data-name="Group 6492" class="cls-2">
          <path id="Path_33959" data-name="Path 33959" class="cls-11" d="M313.622,467h53.17a8.622,8.622,0,0,1,0,17.244h-53.17a8.622,8.622,0,1,1,0-17.244" transform="translate(-85.852 -131.452)"/>
          <path id="Path_33960" data-name="Path 33960" d="M322.392,481.241l2.585-7.041h1.1l2.585,7.041h-1.076l-2.062-5.834-2.072,5.834Zm1.167-1.74.282-.8h3.31l.282.8Z" transform="translate(-90.747 -133.478)"/>
          <path id="Path_33961" data-name="Path 33961" d="M332.444,484.18V476.9h.905l.1.785a2.3,2.3,0,0,1,.4-.438,1.97,1.97,0,0,1,.578-.337,2.183,2.183,0,0,1,.79-.131,2.307,2.307,0,0,1,1.273.351,2.427,2.427,0,0,1,.855.951,2.95,2.95,0,0,1,.307,1.363,2.909,2.909,0,0,1-.312,1.363,2.387,2.387,0,0,1-.86.941,2.356,2.356,0,0,1-1.272.342,2.23,2.23,0,0,1-1.046-.236,1.806,1.806,0,0,1-.714-.659v2.988Zm2.605-2.967a1.52,1.52,0,0,0,.82-.222,1.545,1.545,0,0,0,.563-.623,2.029,2.029,0,0,0,.206-.936,2,2,0,0,0-.206-.93,1.592,1.592,0,0,0-.563-.624,1.5,1.5,0,0,0-.82-.226,1.515,1.515,0,0,0-.83.226,1.549,1.549,0,0,0-.558.624,2.03,2.03,0,0,0-.2.93,2.065,2.065,0,0,0,.2.936,1.5,1.5,0,0,0,.558.623,1.538,1.538,0,0,0,.83.222" transform="translate(-93.577 -134.204)"/>
          <path id="Path_33962" data-name="Path 33962" d="M341.334,484.18V476.9h.905l.1.785a2.3,2.3,0,0,1,.4-.438,1.97,1.97,0,0,1,.578-.337,2.183,2.183,0,0,1,.79-.131,2.307,2.307,0,0,1,1.272.351,2.427,2.427,0,0,1,.855.951,2.95,2.95,0,0,1,.307,1.363,2.909,2.909,0,0,1-.312,1.363,2.387,2.387,0,0,1-.86.941,2.356,2.356,0,0,1-1.272.342,2.23,2.23,0,0,1-1.046-.236,1.805,1.805,0,0,1-.714-.659v2.988Zm2.605-2.967a1.521,1.521,0,0,0,.82-.222,1.545,1.545,0,0,0,.563-.623,2.029,2.029,0,0,0,.206-.936,2,2,0,0,0-.206-.93,1.592,1.592,0,0,0-.563-.624,1.5,1.5,0,0,0-.82-.226,1.515,1.515,0,0,0-.83.226,1.549,1.549,0,0,0-.558.624,2.03,2.03,0,0,0-.2.93,2.065,2.065,0,0,0,.2.936,1.5,1.5,0,0,0,.558.623,1.538,1.538,0,0,0,.83.222" transform="translate(-96.079 -134.204)"/>
          <path id="Path_33963" data-name="Path 33963" d="M350.224,481.967V476.9h.905l.091.956a1.851,1.851,0,0,1,.443-.578,1.964,1.964,0,0,1,.639-.367,2.5,2.5,0,0,1,.84-.131v1.066h-.362a2.286,2.286,0,0,0-.594.075,1.275,1.275,0,0,0-.5.257,1.183,1.183,0,0,0-.337.493,2.159,2.159,0,0,0-.121.775v2.525Z" transform="translate(-98.582 -134.204)"/>
          <path id="Path_33964" data-name="Path 33964" d="M357.586,482.088a2.491,2.491,0,0,1-1.283-.332,2.352,2.352,0,0,1-.9-.93,3.111,3.111,0,0,1,.005-2.786,2.4,2.4,0,0,1,.905-.93,2.521,2.521,0,0,1,1.288-.331,2.486,2.486,0,0,1,1.288.331,2.385,2.385,0,0,1,.89.926,3.152,3.152,0,0,1,0,2.8,2.361,2.361,0,0,1-.9.925,2.544,2.544,0,0,1-1.3.332m0-.865a1.434,1.434,0,0,0,.749-.2,1.456,1.456,0,0,0,.542-.6,2.138,2.138,0,0,0,.207-.991,2.19,2.19,0,0,0-.2-.991,1.429,1.429,0,0,0-.539-.6,1.414,1.414,0,0,0-.739-.2,1.417,1.417,0,0,0-1.293.8,2.484,2.484,0,0,0,0,1.982,1.457,1.457,0,0,0,.543.6,1.4,1.4,0,0,0,.73.2" transform="translate(-99.949 -134.204)"/>
          <path id="Path_33965" data-name="Path 33965" d="M364.655,482.014l-1.9-5.07h1.056l1.438,4.1,1.449-4.1h1.036l-1.891,5.07Z" transform="translate(-102.109 -134.251)"/>
          <path id="Path_33966" data-name="Path 33966" d="M372.827,482.087a2.487,2.487,0,0,1-1.288-.332,2.314,2.314,0,0,1-.88-.925,2.884,2.884,0,0,1-.317-1.378,2.958,2.958,0,0,1,.317-1.4,2.346,2.346,0,0,1,.88-.936,2.5,2.5,0,0,1,1.308-.337,2.369,2.369,0,0,1,1.278.332,2.284,2.284,0,0,1,.825.88,2.537,2.537,0,0,1,.292,1.212c0,.067,0,.139-.005.216s-.009.163-.015.257h-4.144v-.714h3.159a1.366,1.366,0,0,0-.422-.991,1.4,1.4,0,0,0-.976-.356,1.548,1.548,0,0,0-.754.185,1.4,1.4,0,0,0-.548.543,1.781,1.781,0,0,0-.206.9v.282a2,2,0,0,0,.206.951,1.419,1.419,0,0,0,.548.583,1.469,1.469,0,0,0,.744.2,1.389,1.389,0,0,0,.795-.211,1.262,1.262,0,0,0,.463-.573h1.006a2.2,2.2,0,0,1-1.212,1.408,2.483,2.483,0,0,1-1.051.211" transform="translate(-104.244 -134.204)"/>
          <path id="Path_33967" data-name="Path 33967" d="M380.892,481.283a2.327,2.327,0,0,1-2.138-1.293,3.192,3.192,0,0,1,0-2.731,2.346,2.346,0,0,1,2.148-1.288,2.229,2.229,0,0,1,1.046.236,1.713,1.713,0,0,1,.7.669V473.92h1.006v7.243h-.9l-.111-.785a2.028,2.028,0,0,1-.392.437,1.962,1.962,0,0,1-.583.338,2.19,2.19,0,0,1-.785.131m.161-.875a1.566,1.566,0,0,0,.835-.222,1.461,1.461,0,0,0,.558-.623,2.113,2.113,0,0,0,.2-.936,2.077,2.077,0,0,0-.2-.93,1.5,1.5,0,0,0-.558-.624,1.542,1.542,0,0,0-.835-.226,1.5,1.5,0,0,0-.815.226,1.54,1.54,0,0,0-.563.624,2.03,2.03,0,0,0-.2.93,2.065,2.065,0,0,0,.2.936,1.5,1.5,0,0,0,.563.623,1.528,1.528,0,0,0,.815.222" transform="translate(-106.526 -133.4)"/>
          <path id="Path_33968" data-name="Path 33968" class="cls-9" d="M307.675,363.931a3.588,3.588,0,0,1-1.552-.316,2.364,2.364,0,0,1-1.4-2.237h1.207a1.711,1.711,0,0,0,.213.8,1.451,1.451,0,0,0,.586.574,1.933,1.933,0,0,0,.948.213,1.99,1.99,0,0,0,.833-.16,1.236,1.236,0,0,0,.535-.443,1.156,1.156,0,0,0,.184-.65,1.185,1.185,0,0,0-.2-.7,1.51,1.51,0,0,0-.523-.454,4.409,4.409,0,0,0-.759-.317q-.431-.138-.9-.3a3.333,3.333,0,0,1-1.42-.8,1.8,1.8,0,0,1-.466-1.288,2.124,2.124,0,0,1,.322-1.178,2.17,2.17,0,0,1,.9-.782,3.449,3.449,0,0,1,2.742.005,2.274,2.274,0,0,1,.92.794,2.1,2.1,0,0,1,.333,1.183h-1.219a1.278,1.278,0,0,0-.644-1.1,1.533,1.533,0,0,0-.793-.19,1.6,1.6,0,0,0-.7.126,1.1,1.1,0,0,0-.483.4,1.132,1.132,0,0,0-.172.632,1.022,1.022,0,0,0,.155.592,1.269,1.269,0,0,0,.454.385,4.387,4.387,0,0,0,.7.292l.879.293a5.2,5.2,0,0,1,1.063.477,1.991,1.991,0,0,1,1.006,1.857,2.127,2.127,0,0,1-.31,1.115,2.324,2.324,0,0,1-.92.846,3.178,3.178,0,0,1-1.518.328" transform="translate(-85.773 -100.097)"/>
          <path id="Path_33969" data-name="Path 33969" class="cls-9" d="M316.7,364.163a2.381,2.381,0,0,1-.943-.172,1.249,1.249,0,0,1-.621-.575,2.306,2.306,0,0,1-.218-1.092v-2.978h-1v-.977h1l.138-1.449h1.012v1.449h1.644v.977H316.07v2.989a.864.864,0,0,0,.207.673,1.1,1.1,0,0,0,.713.178h.667v.977Z" transform="translate(-88.363 -100.466)"/>
          <path id="Path_33970" data-name="Path 33970" class="cls-9" d="M323.272,364.814a2.85,2.85,0,0,1-1.472-.379,2.652,2.652,0,0,1-1.006-1.058,3.3,3.3,0,0,1-.362-1.575,3.382,3.382,0,0,1,.362-1.6,2.676,2.676,0,0,1,1.006-1.068,2.85,2.85,0,0,1,1.495-.385,2.707,2.707,0,0,1,1.46.379,2.612,2.612,0,0,1,.943,1.005,2.9,2.9,0,0,1,.333,1.385c0,.078,0,.16-.006.248s-.009.186-.017.292h-4.736v-.816h3.61a1.562,1.562,0,0,0-.483-1.132,1.6,1.6,0,0,0-1.115-.407,1.778,1.778,0,0,0-.862.213,1.6,1.6,0,0,0-.627.621,2.037,2.037,0,0,0-.236,1.029v.322a2.293,2.293,0,0,0,.236,1.086,1.626,1.626,0,0,0,.627.666,1.681,1.681,0,0,0,.851.225,1.585,1.585,0,0,0,.908-.241,1.444,1.444,0,0,0,.529-.655h1.15a2.5,2.5,0,0,1-.506.948,2.534,2.534,0,0,1-.879.662,2.838,2.838,0,0,1-1.2.241" transform="translate(-90.196 -100.98)"/>
          <path id="Path_33971" data-name="Path 33971" class="cls-9" d="M331.117,364.73l-2.173-5.794h1.207l1.644,4.69,1.655-4.69h1.184l-2.161,5.794Z" transform="translate(-92.592 -101.034)"/>
          <path id="Path_33972" data-name="Path 33972" class="cls-9" d="M340.456,364.814a2.85,2.85,0,0,1-1.472-.379,2.652,2.652,0,0,1-1.006-1.058,3.3,3.3,0,0,1-.362-1.575,3.382,3.382,0,0,1,.362-1.6,2.676,2.676,0,0,1,1.006-1.068,2.851,2.851,0,0,1,1.495-.385,2.707,2.707,0,0,1,1.46.379,2.612,2.612,0,0,1,.943,1.005,2.9,2.9,0,0,1,.333,1.385c0,.078,0,.16-.006.248s-.009.186-.017.292h-4.737v-.816h3.61a1.562,1.562,0,0,0-.483-1.132,1.6,1.6,0,0,0-1.115-.407,1.778,1.778,0,0,0-.862.213,1.6,1.6,0,0,0-.627.621,2.037,2.037,0,0,0-.236,1.029v.322a2.293,2.293,0,0,0,.236,1.086,1.626,1.626,0,0,0,.627.666,1.681,1.681,0,0,0,.851.225,1.585,1.585,0,0,0,.908-.241,1.443,1.443,0,0,0,.529-.655h1.15a2.5,2.5,0,0,1-.506.948,2.533,2.533,0,0,1-.879.662,2.837,2.837,0,0,1-1.2.241" transform="translate(-95.033 -100.98)"/>
          <path id="Path_33973" data-name="Path 33973" class="cls-9" d="M353.066,363.985a2.744,2.744,0,0,1-1.288-.282,1.985,1.985,0,0,1-.839-.821,2.617,2.617,0,0,1-.3-1.288H351.8a1.833,1.833,0,0,0,.126.7,1.033,1.033,0,0,0,.4.489,1.282,1.282,0,0,0,.719.178,1.262,1.262,0,0,0,.707-.172.973.973,0,0,0,.374-.466,1.836,1.836,0,0,0,.115-.672V355.8h1.15v5.852a2.134,2.134,0,0,1-2.322,2.334" transform="translate(-98.699 -100.151)"/>
          <path id="Path_33974" data-name="Path 33974" class="cls-9" d="M362.063,364.814a2.86,2.86,0,0,1-1.466-.379,2.706,2.706,0,0,1-1.023-1.064,3.554,3.554,0,0,1,.006-3.184,2.732,2.732,0,0,1,1.035-1.063,2.882,2.882,0,0,1,1.472-.379,2.845,2.845,0,0,1,1.472.379,2.734,2.734,0,0,1,1.017,1.058,3.6,3.6,0,0,1,0,3.2,2.712,2.712,0,0,1-1.029,1.058,2.913,2.913,0,0,1-1.483.379m0-.989a1.637,1.637,0,0,0,.857-.23,1.667,1.667,0,0,0,.621-.684,2.449,2.449,0,0,0,.236-1.133,2.5,2.5,0,0,0-.23-1.132,1.59,1.59,0,0,0-1.46-.913,1.623,1.623,0,0,0-1.477.913,2.84,2.84,0,0,0,0,2.266,1.657,1.657,0,0,0,.621.684,1.592,1.592,0,0,0,.833.23" transform="translate(-101.108 -100.98)"/>
          <path id="Path_33975" data-name="Path 33975" class="cls-9" d="M369.088,363.757V355.48h1.15v3.426a2.063,2.063,0,0,1,.8-.793,2.278,2.278,0,0,1,1.132-.287,2.356,2.356,0,0,1,1.184.282,1.841,1.841,0,0,1,.759.839,3.26,3.26,0,0,1,.264,1.4v3.414h-1.138v-3.288a1.91,1.91,0,0,0-.345-1.236,1.246,1.246,0,0,0-1.023-.42,1.6,1.6,0,0,0-.828.218,1.551,1.551,0,0,0-.586.638,2.179,2.179,0,0,0-.218,1.017v3.07Z" transform="translate(-103.891 -100.061)"/>
          <path id="Path_33976" data-name="Path 33976" class="cls-9" d="M378.5,364.676v-5.794h1.035l.069.989a2.1,2.1,0,0,1,.782-.822,2.21,2.21,0,0,1,1.161-.3,2.4,2.4,0,0,1,1.184.276,1.874,1.874,0,0,1,.77.833,3.139,3.139,0,0,1,.276,1.4v3.426h-1.15v-3.311a1.82,1.82,0,0,0-.356-1.219,1.291,1.291,0,0,0-1.035-.414,1.543,1.543,0,0,0-.8.213,1.507,1.507,0,0,0-.569.627,2.2,2.2,0,0,0-.213,1.012v3.092Z" transform="translate(-106.54 -100.98)"/>
        </g>
      </g>
    </g>
  </g>
</svg>
