<svg width="480" height="540" viewBox="0 0 480 540" fill="none" xmlns="http://www.w3.org/2000/svg">
<g clip-path="url(#clip0_571_946)">
<path d="M85 76H396C405.389 76 413 83.6112 413 93V447C413 456.389 405.389 464 396 464H85C75.6111 464 68 456.389 68 447V93C68 83.6112 75.6111 76 85 76Z" fill="#F1F5F7"/>
<path d="M87.704 121L83.231 106.3H86.465L88.859 114.511C88.957 114.805 89.041 115.127 89.111 115.477C89.195 115.813 89.258 116.142 89.3 116.464C89.356 116.772 89.398 117.066 89.426 117.346C89.468 117.612 89.503 117.836 89.531 118.018L89.027 117.997C89.153 117.409 89.258 116.919 89.342 116.527C89.426 116.121 89.503 115.764 89.573 115.456C89.657 115.134 89.755 114.812 89.867 114.49L92.177 108.421H94.781L97.049 114.49C97.217 114.91 97.35 115.316 97.448 115.708C97.56 116.086 97.651 116.457 97.721 116.821C97.791 117.171 97.854 117.528 97.91 117.892L97.469 117.976C97.511 117.682 97.539 117.43 97.553 117.22C97.581 116.996 97.602 116.793 97.616 116.611C97.644 116.429 97.672 116.247 97.7 116.065C97.728 115.869 97.77 115.645 97.826 115.393C97.882 115.127 97.966 114.819 98.078 114.469L100.451 106.3H103.643L99.128 121H96.776L93.164 112.306L93.5 112.348L90.119 121H87.704ZM105.62 121V109.891H108.602V121H105.62ZM107.09 107.623C106.516 107.623 106.068 107.483 105.746 107.203C105.424 106.909 105.263 106.503 105.263 105.985C105.263 105.509 105.424 105.124 105.746 104.83C106.082 104.522 106.53 104.368 107.09 104.368C107.664 104.368 108.112 104.515 108.434 104.809C108.756 105.089 108.917 105.481 108.917 105.985C108.917 106.461 108.749 106.853 108.413 107.161C108.091 107.469 107.65 107.623 107.09 107.623ZM116.134 121.21C115.154 121.21 114.279 120.965 113.509 120.475C112.753 119.971 112.151 119.292 111.703 118.438C111.269 117.57 111.052 116.569 111.052 115.435C111.052 114.329 111.269 113.342 111.703 112.474C112.151 111.592 112.753 110.906 113.509 110.416C114.279 109.912 115.154 109.66 116.134 109.66C116.652 109.66 117.149 109.744 117.625 109.912C118.115 110.066 118.549 110.283 118.927 110.563C119.319 110.843 119.634 111.158 119.872 111.508C120.11 111.844 120.243 112.194 120.271 112.558L119.515 112.705V105.46H122.518V121H119.683L119.557 118.438L120.145 118.501C120.117 118.851 119.991 119.187 119.767 119.509C119.543 119.831 119.242 120.125 118.864 120.391C118.5 120.643 118.08 120.846 117.604 121C117.142 121.14 116.652 121.21 116.134 121.21ZM116.806 118.732C117.366 118.732 117.856 118.592 118.276 118.312C118.696 118.032 119.025 117.647 119.263 117.157C119.501 116.667 119.62 116.093 119.62 115.435C119.62 114.791 119.501 114.224 119.263 113.734C119.025 113.244 118.696 112.859 118.276 112.579C117.856 112.299 117.366 112.159 116.806 112.159C116.246 112.159 115.756 112.299 115.336 112.579C114.93 112.859 114.608 113.244 114.37 113.734C114.146 114.224 114.034 114.791 114.034 115.435C114.034 116.093 114.146 116.667 114.37 117.157C114.608 117.647 114.93 118.032 115.336 118.312C115.756 118.592 116.246 118.732 116.806 118.732ZM130.465 125.83C129.583 125.83 128.715 125.697 127.861 125.431C127.007 125.179 126.307 124.843 125.761 124.423L126.832 122.302C127.112 122.498 127.434 122.673 127.798 122.827C128.162 122.981 128.54 123.1 128.932 123.184C129.338 123.268 129.751 123.31 130.171 123.31C130.899 123.31 131.494 123.198 131.956 122.974C132.432 122.75 132.789 122.414 133.027 121.966C133.265 121.518 133.384 120.958 133.384 120.286V118.354L133.888 118.459C133.804 118.921 133.566 119.348 133.174 119.74C132.796 120.118 132.32 120.426 131.746 120.664C131.186 120.888 130.598 121 129.982 121C128.96 121 128.05 120.762 127.252 120.286C126.454 119.81 125.824 119.152 125.362 118.312C124.9 117.472 124.669 116.499 124.669 115.393C124.669 114.287 124.893 113.307 125.341 112.453C125.803 111.585 126.426 110.906 127.21 110.416C128.008 109.912 128.911 109.66 129.919 109.66C130.339 109.66 130.738 109.709 131.116 109.807C131.508 109.905 131.865 110.045 132.187 110.227C132.523 110.395 132.817 110.591 133.069 110.815C133.335 111.025 133.552 111.256 133.72 111.508C133.888 111.76 133.993 112.012 134.035 112.264L133.426 112.432L133.51 109.891H136.366V120.16C136.366 121.07 136.233 121.875 135.967 122.575C135.701 123.275 135.309 123.863 134.791 124.339C134.287 124.829 133.664 125.2 132.922 125.452C132.194 125.704 131.375 125.83 130.465 125.83ZM130.549 118.606C131.137 118.606 131.648 118.473 132.082 118.207C132.53 117.941 132.873 117.57 133.111 117.094C133.349 116.618 133.468 116.058 133.468 115.414C133.468 114.784 133.349 114.231 133.111 113.755C132.873 113.265 132.53 112.887 132.082 112.621C131.648 112.355 131.137 112.222 130.549 112.222C129.975 112.222 129.471 112.362 129.037 112.642C128.603 112.908 128.26 113.286 128.008 113.776C127.77 114.252 127.651 114.798 127.651 115.414C127.651 116.044 127.77 116.604 128.008 117.094C128.26 117.57 128.603 117.941 129.037 118.207C129.471 118.473 129.975 118.606 130.549 118.606ZM144.6 121.21C143.396 121.21 142.339 120.965 141.429 120.475C140.533 119.985 139.833 119.313 139.329 118.459C138.839 117.605 138.594 116.625 138.594 115.519C138.594 114.651 138.734 113.86 139.014 113.146C139.294 112.432 139.686 111.816 140.19 111.298C140.694 110.766 141.289 110.36 141.975 110.08C142.675 109.786 143.431 109.639 144.243 109.639C144.999 109.639 145.699 109.779 146.343 110.059C146.987 110.339 147.54 110.731 148.002 111.235C148.478 111.725 148.842 112.313 149.094 112.999C149.346 113.671 149.458 114.399 149.43 115.183L149.409 116.107H140.484L140.001 114.28H146.952L146.616 114.658V114.196C146.588 113.818 146.462 113.482 146.238 113.188C146.028 112.88 145.755 112.642 145.419 112.474C145.083 112.292 144.705 112.201 144.285 112.201C143.669 112.201 143.144 112.32 142.71 112.558C142.29 112.796 141.968 113.146 141.744 113.608C141.52 114.07 141.408 114.63 141.408 115.288C141.408 115.96 141.548 116.541 141.828 117.031C142.122 117.521 142.528 117.906 143.046 118.186C143.578 118.452 144.201 118.585 144.915 118.585C145.405 118.585 145.853 118.508 146.259 118.354C146.665 118.2 147.099 117.934 147.561 117.556L148.989 119.551C148.583 119.915 148.135 120.223 147.645 120.475C147.155 120.713 146.651 120.895 146.133 121.021C145.615 121.147 145.104 121.21 144.6 121.21ZM152.705 121V107.077H155.687V121H152.705ZM150.626 112.558V109.891H157.976V112.558H150.626ZM164.046 121.21C163.01 121.21 162.086 121.042 161.274 120.706C160.476 120.356 159.832 119.88 159.342 119.278L161.211 117.682C161.631 118.144 162.107 118.48 162.639 118.69C163.171 118.886 163.703 118.984 164.235 118.984C164.445 118.984 164.634 118.963 164.802 118.921C164.984 118.865 165.138 118.795 165.264 118.711C165.39 118.613 165.481 118.501 165.537 118.375C165.607 118.235 165.642 118.088 165.642 117.934C165.642 117.626 165.516 117.388 165.264 117.22C165.124 117.136 164.907 117.045 164.613 116.947C164.319 116.835 163.941 116.716 163.479 116.59C162.765 116.408 162.156 116.198 161.652 115.96C161.162 115.708 160.77 115.428 160.476 115.12C160.224 114.826 160.028 114.511 159.888 114.175C159.762 113.825 159.699 113.44 159.699 113.02C159.699 112.516 159.811 112.061 160.035 111.655C160.259 111.235 160.567 110.878 160.959 110.584C161.365 110.29 161.827 110.066 162.345 109.912C162.863 109.744 163.409 109.66 163.983 109.66C164.557 109.66 165.117 109.73 165.663 109.87C166.209 110.01 166.713 110.213 167.175 110.479C167.651 110.731 168.064 111.032 168.414 111.382L166.818 113.146C166.566 112.908 166.279 112.691 165.957 112.495C165.649 112.299 165.327 112.145 164.991 112.033C164.655 111.921 164.354 111.865 164.088 111.865C163.85 111.865 163.633 111.886 163.437 111.928C163.255 111.97 163.101 112.04 162.975 112.138C162.849 112.222 162.751 112.327 162.681 112.453C162.625 112.579 162.597 112.719 162.597 112.873C162.597 113.027 162.632 113.174 162.702 113.314C162.786 113.454 162.898 113.573 163.038 113.671C163.192 113.755 163.416 113.853 163.71 113.965C164.018 114.077 164.431 114.203 164.949 114.343C165.621 114.525 166.188 114.728 166.65 114.952C167.126 115.176 167.504 115.435 167.784 115.729C168.022 115.981 168.197 116.268 168.309 116.59C168.421 116.912 168.477 117.269 168.477 117.661C168.477 118.347 168.281 118.956 167.889 119.488C167.511 120.02 166.986 120.44 166.314 120.748C165.642 121.056 164.886 121.21 164.046 121.21Z" fill="black"/>
<rect x="85" y="148" width="315" height="62" rx="9" fill="white"/>
<circle cx="115" cy="179" r="17" fill="#E4E6EA"/>
<path d="M152.568 185V173.8H157.336C157.976 173.8 158.563 173.96 159.096 174.28C159.64 174.589 160.072 175.016 160.392 175.56C160.712 176.093 160.872 176.696 160.872 177.368C160.872 177.976 160.712 178.541 160.392 179.064C160.072 179.587 159.645 180.008 159.112 180.328C158.579 180.637 157.987 180.792 157.336 180.792H154.296V185H152.568ZM159.224 185L156.376 179.944L158.152 179.544L161.32 185.016L159.224 185ZM154.296 179.128H157.496C157.805 179.128 158.083 179.053 158.328 178.904C158.573 178.744 158.765 178.531 158.904 178.264C159.043 177.987 159.112 177.683 159.112 177.352C159.112 176.979 159.021 176.653 158.84 176.376C158.669 176.088 158.424 175.864 158.104 175.704C157.795 175.544 157.443 175.464 157.048 175.464H154.296V179.128ZM166.885 185.16C166.021 185.16 165.253 184.979 164.581 184.616C163.919 184.243 163.397 183.736 163.013 183.096C162.639 182.456 162.453 181.72 162.453 180.888C162.453 180.227 162.559 179.624 162.773 179.08C162.986 178.536 163.279 178.067 163.653 177.672C164.037 177.267 164.49 176.957 165.013 176.744C165.546 176.52 166.122 176.408 166.741 176.408C167.285 176.408 167.791 176.515 168.261 176.728C168.73 176.931 169.135 177.213 169.477 177.576C169.829 177.939 170.095 178.371 170.277 178.872C170.469 179.363 170.559 179.901 170.549 180.488L170.533 181.192H163.669L163.301 179.88H169.109L168.869 180.152V179.768C168.837 179.416 168.719 179.101 168.517 178.824C168.314 178.547 168.058 178.328 167.749 178.168C167.439 178.008 167.103 177.928 166.741 177.928C166.165 177.928 165.679 178.04 165.285 178.264C164.89 178.477 164.591 178.797 164.389 179.224C164.186 179.64 164.085 180.157 164.085 180.776C164.085 181.363 164.207 181.875 164.453 182.312C164.698 182.739 165.045 183.069 165.493 183.304C165.941 183.539 166.458 183.656 167.045 183.656C167.461 183.656 167.845 183.587 168.197 183.448C168.559 183.309 168.949 183.059 169.365 182.696L170.197 183.864C169.941 184.12 169.626 184.344 169.253 184.536C168.89 184.728 168.501 184.883 168.085 185C167.679 185.107 167.279 185.16 166.885 185.16ZM172.308 185V176.6H173.972V178.392L173.668 178.584C173.753 178.307 173.886 178.04 174.068 177.784C174.26 177.528 174.489 177.304 174.756 177.112C175.033 176.909 175.326 176.749 175.636 176.632C175.956 176.515 176.281 176.456 176.612 176.456C177.092 176.456 177.513 176.536 177.876 176.696C178.238 176.856 178.537 177.096 178.772 177.416C179.006 177.736 179.177 178.136 179.284 178.616L179.028 178.552L179.14 178.28C179.257 178.035 179.417 177.805 179.62 177.592C179.833 177.368 180.073 177.171 180.34 177C180.606 176.829 180.889 176.696 181.188 176.6C181.486 176.504 181.78 176.456 182.068 176.456C182.697 176.456 183.214 176.584 183.62 176.84C184.036 177.096 184.345 177.485 184.548 178.008C184.761 178.531 184.868 179.181 184.868 179.96V185H183.204V180.056C183.204 179.576 183.14 179.187 183.012 178.888C182.894 178.579 182.713 178.349 182.468 178.2C182.222 178.051 181.908 177.976 181.524 177.976C181.225 177.976 180.942 178.029 180.676 178.136C180.42 178.232 180.196 178.371 180.003 178.552C179.812 178.733 179.662 178.947 179.556 179.192C179.449 179.427 179.396 179.688 179.396 179.976V185H177.732V180.024C177.732 179.587 177.668 179.219 177.54 178.92C177.412 178.611 177.225 178.376 176.98 178.216C176.734 178.056 176.436 177.976 176.084 177.976C175.785 177.976 175.508 178.029 175.252 178.136C174.996 178.232 174.772 178.371 174.58 178.552C174.388 178.723 174.238 178.931 174.132 179.176C174.025 179.411 173.972 179.667 173.972 179.944V185H172.308ZM187.346 185V176.6H188.994V185H187.346ZM188.146 174.744C187.794 174.744 187.522 174.653 187.33 174.472C187.138 174.291 187.042 174.035 187.042 173.704C187.042 173.395 187.138 173.144 187.33 172.952C187.533 172.76 187.805 172.664 188.146 172.664C188.498 172.664 188.77 172.755 188.962 172.936C189.154 173.117 189.25 173.373 189.25 173.704C189.25 174.013 189.149 174.264 188.946 174.456C188.754 174.648 188.487 174.744 188.146 174.744ZM191.527 185V176.6H193.175V178.328L192.887 178.52C192.994 178.147 193.202 177.805 193.511 177.496C193.82 177.176 194.188 176.92 194.615 176.728C195.042 176.525 195.479 176.424 195.927 176.424C196.567 176.424 197.1 176.552 197.527 176.808C197.954 177.053 198.274 177.432 198.487 177.944C198.7 178.456 198.807 179.101 198.807 179.88V185H197.159V179.992C197.159 179.512 197.095 179.117 196.967 178.808C196.839 178.488 196.642 178.259 196.375 178.12C196.108 177.971 195.778 177.907 195.383 177.928C195.063 177.928 194.77 177.981 194.503 178.088C194.236 178.184 194.002 178.323 193.799 178.504C193.607 178.685 193.452 178.899 193.335 179.144C193.228 179.379 193.175 179.635 193.175 179.912V185H192.359C192.22 185 192.082 185 191.943 185C191.804 185 191.666 185 191.527 185ZM204.547 185.16C203.779 185.16 203.091 184.973 202.483 184.6C201.885 184.216 201.411 183.699 201.059 183.048C200.707 182.387 200.531 181.635 200.531 180.792C200.531 179.949 200.701 179.203 201.043 178.552C201.395 177.891 201.869 177.373 202.467 177C203.064 176.616 203.741 176.424 204.499 176.424C204.915 176.424 205.315 176.493 205.699 176.632C206.093 176.76 206.445 176.941 206.755 177.176C207.064 177.4 207.304 177.651 207.475 177.928C207.656 178.195 207.747 178.467 207.747 178.744L207.267 178.776V173.16H208.915V185H207.267V183H207.587C207.587 183.256 207.501 183.512 207.331 183.768C207.16 184.013 206.931 184.243 206.643 184.456C206.365 184.669 206.04 184.84 205.667 184.968C205.304 185.096 204.931 185.16 204.547 185.16ZM204.771 183.736C205.272 183.736 205.715 183.608 206.099 183.352C206.483 183.096 206.781 182.749 206.995 182.312C207.219 181.864 207.331 181.357 207.331 180.792C207.331 180.227 207.219 179.725 206.995 179.288C206.781 178.84 206.483 178.488 206.099 178.232C205.715 177.976 205.272 177.848 204.771 177.848C204.269 177.848 203.827 177.976 203.443 178.232C203.059 178.488 202.755 178.84 202.531 179.288C202.317 179.725 202.211 180.227 202.211 180.792C202.211 181.357 202.317 181.864 202.531 182.312C202.755 182.749 203.059 183.096 203.443 183.352C203.827 183.608 204.269 183.736 204.771 183.736ZM215.103 185.16C214.239 185.16 213.471 184.979 212.799 184.616C212.138 184.243 211.615 183.736 211.231 183.096C210.858 182.456 210.671 181.72 210.671 180.888C210.671 180.227 210.778 179.624 210.991 179.08C211.205 178.536 211.498 178.067 211.871 177.672C212.255 177.267 212.709 176.957 213.231 176.744C213.765 176.52 214.341 176.408 214.959 176.408C215.503 176.408 216.01 176.515 216.479 176.728C216.949 176.931 217.354 177.213 217.695 177.576C218.047 177.939 218.314 178.371 218.495 178.872C218.687 179.363 218.778 179.901 218.767 180.488L218.751 181.192H211.887L211.519 179.88H217.327L217.087 180.152V179.768C217.055 179.416 216.938 179.101 216.735 178.824C216.533 178.547 216.277 178.328 215.967 178.168C215.658 178.008 215.322 177.928 214.959 177.928C214.383 177.928 213.898 178.04 213.503 178.264C213.109 178.477 212.81 178.797 212.607 179.224C212.405 179.64 212.303 180.157 212.303 180.776C212.303 181.363 212.426 181.875 212.671 182.312C212.917 182.739 213.263 183.069 213.711 183.304C214.159 183.539 214.677 183.656 215.263 183.656C215.679 183.656 216.063 183.587 216.415 183.448C216.778 183.309 217.167 183.059 217.583 182.696L218.415 183.864C218.159 184.12 217.845 184.344 217.471 184.536C217.109 184.728 216.719 184.883 216.303 185C215.898 185.107 215.498 185.16 215.103 185.16ZM220.558 185V176.6H222.222V179.24L222.062 178.6C222.18 178.195 222.377 177.827 222.654 177.496C222.942 177.165 223.268 176.904 223.63 176.712C224.004 176.52 224.388 176.424 224.782 176.424C224.964 176.424 225.134 176.44 225.294 176.472C225.465 176.504 225.598 176.541 225.694 176.584L225.262 178.376C225.134 178.323 224.99 178.28 224.83 178.248C224.681 178.205 224.532 178.184 224.382 178.184C224.094 178.184 223.817 178.243 223.55 178.36C223.294 178.467 223.065 178.621 222.862 178.824C222.67 179.016 222.516 179.245 222.398 179.512C222.281 179.768 222.222 180.051 222.222 180.36V185H220.558ZM229.811 185.16C229.107 185.16 228.473 185.037 227.907 184.792C227.342 184.547 226.873 184.184 226.499 183.704L227.619 182.744C227.939 183.117 228.286 183.389 228.659 183.56C229.043 183.72 229.475 183.8 229.955 183.8C230.147 183.8 230.323 183.779 230.483 183.736C230.654 183.683 230.798 183.608 230.915 183.512C231.043 183.416 231.139 183.304 231.203 183.176C231.267 183.037 231.299 182.888 231.299 182.728C231.299 182.451 231.198 182.227 230.995 182.056C230.889 181.981 230.718 181.901 230.483 181.816C230.259 181.72 229.966 181.624 229.603 181.528C228.985 181.368 228.478 181.187 228.083 180.984C227.689 180.781 227.385 180.552 227.171 180.296C227.011 180.093 226.894 179.875 226.819 179.64C226.745 179.395 226.707 179.128 226.707 178.84C226.707 178.488 226.782 178.168 226.931 177.88C227.091 177.581 227.305 177.325 227.571 177.112C227.849 176.888 228.169 176.717 228.531 176.6C228.905 176.483 229.299 176.424 229.715 176.424C230.11 176.424 230.499 176.477 230.883 176.584C231.278 176.691 231.641 176.845 231.971 177.048C232.302 177.251 232.579 177.491 232.803 177.768L231.859 178.808C231.657 178.605 231.433 178.429 231.187 178.28C230.953 178.12 230.713 177.997 230.467 177.912C230.222 177.827 229.998 177.784 229.795 177.784C229.571 177.784 229.369 177.805 229.187 177.848C229.006 177.891 228.851 177.955 228.723 178.04C228.606 178.125 228.515 178.232 228.451 178.36C228.387 178.488 228.355 178.632 228.355 178.792C228.366 178.931 228.398 179.064 228.451 179.192C228.515 179.309 228.601 179.411 228.707 179.496C228.825 179.581 229.001 179.672 229.235 179.768C229.47 179.864 229.769 179.955 230.131 180.04C230.665 180.179 231.102 180.333 231.443 180.504C231.795 180.664 232.073 180.851 232.275 181.064C232.489 181.267 232.638 181.501 232.723 181.768C232.809 182.035 232.851 182.333 232.851 182.664C232.851 183.144 232.713 183.576 232.435 183.96C232.169 184.333 231.806 184.627 231.347 184.84C230.889 185.053 230.377 185.16 229.811 185.16Z" fill="#3B3B3B"/>
<path d="M112.293 183.707L109.293 180.707C109.2 180.614 109.126 180.504 109.076 180.383C109.026 180.262 109 180.132 109 180C109 179.869 109.026 179.739 109.076 179.618C109.126 179.496 109.2 179.386 109.293 179.293C109.386 179.2 109.496 179.127 109.617 179.077C109.739 179.026 109.869 179 110 179C110.131 179 110.261 179.026 110.382 179.077C110.504 179.127 110.614 179.2 110.707 179.293L112.943 181.529L119.241 174.349C119.326 174.25 119.43 174.168 119.547 174.108C119.664 174.049 119.792 174.013 119.923 174.003C120.054 173.993 120.185 174.009 120.31 174.049C120.435 174.09 120.55 174.155 120.65 174.24C120.75 174.326 120.831 174.43 120.891 174.547C120.95 174.664 120.986 174.791 120.996 174.922C121.006 175.053 120.991 175.185 120.95 175.309C120.909 175.434 120.844 175.55 120.759 175.649L113.759 183.649C113.669 183.754 113.559 183.839 113.435 183.899C113.312 183.96 113.176 183.994 113.039 183.999C112.901 184.004 112.764 183.98 112.636 183.93C112.508 183.88 112.391 183.804 112.293 183.707Z" fill="black"/>
<rect x="85" y="220" width="315" height="62" rx="9" fill="white"/>
<circle cx="115" cy="251" r="17" fill="#E4E6EA"/>
<path d="M154.952 257L151.384 245.8H153.224L155.384 252.808C155.448 252.979 155.507 253.181 155.56 253.416C155.613 253.64 155.661 253.869 155.704 254.104C155.747 254.339 155.784 254.557 155.816 254.76C155.859 254.963 155.896 255.128 155.928 255.256L155.464 255.24C155.624 254.675 155.747 254.237 155.832 253.928C155.928 253.619 156.003 253.384 156.056 253.224C156.109 253.053 156.157 252.909 156.2 252.792L158.216 247.736H159.768L161.72 252.792C161.827 253.048 161.917 253.304 161.992 253.56C162.077 253.805 162.152 254.056 162.216 254.312C162.28 254.557 162.349 254.819 162.424 255.096L162.008 255.208C162.061 254.92 162.099 254.696 162.12 254.536C162.152 254.365 162.179 254.227 162.2 254.12C162.221 254.013 162.243 253.912 162.264 253.816C162.285 253.709 162.317 253.576 162.36 253.416C162.413 253.256 162.483 253.037 162.568 252.76L164.696 245.8H166.552L162.984 257H161.784L158.824 249.992L158.968 250.056L156.12 257H154.952ZM171.459 257.16C170.638 257.16 169.902 256.973 169.251 256.6C168.611 256.216 168.105 255.699 167.731 255.048C167.358 254.387 167.171 253.635 167.171 252.792C167.171 251.949 167.358 251.203 167.731 250.552C168.105 249.891 168.611 249.373 169.251 249C169.902 248.616 170.638 248.424 171.459 248.424C172.27 248.424 172.995 248.616 173.635 249C174.286 249.373 174.798 249.891 175.171 250.552C175.545 251.203 175.731 251.949 175.731 252.792C175.731 253.635 175.545 254.387 175.171 255.048C174.798 255.699 174.286 256.216 173.635 256.6C172.995 256.973 172.27 257.16 171.459 257.16ZM171.459 255.656C171.961 255.656 172.409 255.533 172.803 255.288C173.198 255.032 173.507 254.691 173.731 254.264C173.955 253.827 174.062 253.336 174.051 252.792C174.062 252.237 173.955 251.747 173.731 251.32C173.507 250.883 173.198 250.541 172.803 250.296C172.409 250.051 171.961 249.928 171.459 249.928C170.958 249.928 170.505 250.056 170.099 250.312C169.705 250.557 169.395 250.899 169.171 251.336C168.947 251.763 168.841 252.248 168.851 252.792C168.841 253.336 168.947 253.827 169.171 254.264C169.395 254.691 169.705 255.032 170.099 255.288C170.505 255.533 170.958 255.656 171.459 255.656ZM177.527 257V248.6H179.191V251.24L179.031 250.6C179.148 250.195 179.346 249.827 179.623 249.496C179.911 249.165 180.236 248.904 180.599 248.712C180.972 248.52 181.356 248.424 181.751 248.424C181.932 248.424 182.103 248.44 182.263 248.472C182.434 248.504 182.567 248.541 182.663 248.584L182.231 250.376C182.103 250.323 181.959 250.28 181.799 250.248C181.65 250.205 181.5 250.184 181.351 250.184C181.063 250.184 180.786 250.243 180.519 250.36C180.263 250.467 180.034 250.621 179.831 250.824C179.639 251.016 179.484 251.245 179.367 251.512C179.25 251.768 179.191 252.051 179.191 252.36V257H177.527ZM185.484 254.376L185.404 252.584L189.42 248.6H191.644L185.484 254.376ZM183.98 257V245.16H185.628V257H183.98ZM189.644 257L186.476 253.304L187.644 252.232L191.756 257H189.644ZM202.662 257.16C201.873 257.16 201.142 257.016 200.47 256.728C199.809 256.44 199.228 256.04 198.726 255.528C198.236 255.005 197.852 254.397 197.574 253.704C197.308 253 197.174 252.232 197.174 251.4C197.174 250.568 197.308 249.805 197.574 249.112C197.852 248.408 198.236 247.8 198.726 247.288C199.228 246.765 199.809 246.36 200.47 246.072C201.142 245.784 201.873 245.64 202.662 245.64C203.452 245.64 204.177 245.784 204.838 246.072C205.51 246.36 206.092 246.765 206.582 247.288C207.084 247.811 207.468 248.424 207.734 249.128C208.012 249.821 208.15 250.579 208.15 251.4C208.15 252.221 208.012 252.984 207.734 253.688C207.468 254.381 207.084 254.989 206.582 255.512C206.092 256.035 205.51 256.44 204.838 256.728C204.177 257.016 203.452 257.16 202.662 257.16ZM202.662 255.48C203.206 255.48 203.702 255.379 204.15 255.176C204.609 254.973 205.004 254.691 205.334 254.328C205.665 253.955 205.921 253.523 206.102 253.032C206.294 252.531 206.39 251.987 206.39 251.4C206.39 250.813 206.294 250.275 206.102 249.784C205.921 249.283 205.665 248.851 205.334 248.488C205.004 248.115 204.609 247.827 204.15 247.624C203.702 247.421 203.206 247.32 202.662 247.32C202.118 247.32 201.617 247.421 201.158 247.624C200.71 247.827 200.316 248.109 199.974 248.472C199.644 248.835 199.388 249.267 199.206 249.768C199.025 250.259 198.934 250.803 198.934 251.4C198.934 251.987 199.025 252.531 199.206 253.032C199.388 253.533 199.644 253.965 199.974 254.328C200.316 254.691 200.71 254.973 201.158 255.176C201.617 255.379 202.118 255.48 202.662 255.48ZM210.074 257V248.6H211.738V251.24L211.578 250.6C211.695 250.195 211.893 249.827 212.17 249.496C212.458 249.165 212.783 248.904 213.146 248.712C213.519 248.52 213.903 248.424 214.298 248.424C214.479 248.424 214.65 248.44 214.81 248.472C214.981 248.504 215.114 248.541 215.21 248.584L214.778 250.376C214.65 250.323 214.506 250.28 214.346 250.248C214.197 250.205 214.047 250.184 213.898 250.184C213.61 250.184 213.333 250.243 213.066 250.36C212.81 250.467 212.581 250.621 212.378 250.824C212.186 251.016 212.031 251.245 211.914 251.512C211.797 251.768 211.738 252.051 211.738 252.36V257H210.074ZM219.672 257.16C218.904 257.16 218.216 256.973 217.608 256.6C217.01 256.216 216.536 255.699 216.184 255.048C215.832 254.387 215.656 253.635 215.656 252.792C215.656 251.949 215.826 251.203 216.168 250.552C216.52 249.891 216.994 249.373 217.592 249C218.189 248.616 218.866 248.424 219.624 248.424C220.04 248.424 220.44 248.493 220.824 248.632C221.218 248.76 221.57 248.941 221.88 249.176C222.189 249.4 222.429 249.651 222.6 249.928C222.781 250.195 222.872 250.467 222.872 250.744L222.392 250.776V245.16H224.04V257H222.392V255H222.712C222.712 255.256 222.626 255.512 222.456 255.768C222.285 256.013 222.056 256.243 221.768 256.456C221.49 256.669 221.165 256.84 220.792 256.968C220.429 257.096 220.056 257.16 219.672 257.16ZM219.896 255.736C220.397 255.736 220.84 255.608 221.224 255.352C221.608 255.096 221.906 254.749 222.12 254.312C222.344 253.864 222.456 253.357 222.456 252.792C222.456 252.227 222.344 251.725 222.12 251.288C221.906 250.84 221.608 250.488 221.224 250.232C220.84 249.976 220.397 249.848 219.896 249.848C219.394 249.848 218.952 249.976 218.568 250.232C218.184 250.488 217.88 250.84 217.656 251.288C217.442 251.725 217.336 252.227 217.336 252.792C217.336 253.357 217.442 253.864 217.656 254.312C217.88 254.749 218.184 255.096 218.568 255.352C218.952 255.608 219.394 255.736 219.896 255.736ZM230.228 257.16C229.364 257.16 228.596 256.979 227.924 256.616C227.263 256.243 226.74 255.736 226.356 255.096C225.983 254.456 225.796 253.72 225.796 252.888C225.796 252.227 225.903 251.624 226.116 251.08C226.33 250.536 226.623 250.067 226.996 249.672C227.38 249.267 227.834 248.957 228.356 248.744C228.89 248.52 229.466 248.408 230.084 248.408C230.628 248.408 231.135 248.515 231.604 248.728C232.074 248.931 232.479 249.213 232.82 249.576C233.172 249.939 233.439 250.371 233.62 250.872C233.812 251.363 233.903 251.901 233.892 252.488L233.876 253.192H227.012L226.644 251.88H232.452L232.212 252.152V251.768C232.18 251.416 232.063 251.101 231.86 250.824C231.658 250.547 231.402 250.328 231.092 250.168C230.783 250.008 230.447 249.928 230.084 249.928C229.508 249.928 229.023 250.04 228.628 250.264C228.234 250.477 227.935 250.797 227.732 251.224C227.53 251.64 227.428 252.157 227.428 252.776C227.428 253.363 227.551 253.875 227.796 254.312C228.042 254.739 228.388 255.069 228.836 255.304C229.284 255.539 229.802 255.656 230.388 255.656C230.804 255.656 231.188 255.587 231.54 255.448C231.903 255.309 232.292 255.059 232.708 254.696L233.54 255.864C233.284 256.12 232.97 256.344 232.596 256.536C232.234 256.728 231.844 256.883 231.428 257C231.023 257.107 230.623 257.16 230.228 257.16ZM235.683 257V248.6H237.347V251.24L237.187 250.6C237.305 250.195 237.502 249.827 237.779 249.496C238.067 249.165 238.393 248.904 238.755 248.712C239.129 248.52 239.513 248.424 239.907 248.424C240.089 248.424 240.259 248.44 240.419 248.472C240.59 248.504 240.723 248.541 240.819 248.584L240.387 250.376C240.259 250.323 240.115 250.28 239.955 250.248C239.806 250.205 239.657 250.184 239.507 250.184C239.219 250.184 238.942 250.243 238.675 250.36C238.419 250.467 238.19 250.621 237.987 250.824C237.795 251.016 237.641 251.245 237.523 251.512C237.406 251.768 237.347 252.051 237.347 252.36V257H235.683ZM244.936 257.16C244.232 257.16 243.598 257.037 243.032 256.792C242.467 256.547 241.998 256.184 241.624 255.704L242.744 254.744C243.064 255.117 243.411 255.389 243.784 255.56C244.168 255.72 244.6 255.8 245.08 255.8C245.272 255.8 245.448 255.779 245.608 255.736C245.779 255.683 245.923 255.608 246.04 255.512C246.168 255.416 246.264 255.304 246.328 255.176C246.392 255.037 246.424 254.888 246.424 254.728C246.424 254.451 246.323 254.227 246.12 254.056C246.014 253.981 245.843 253.901 245.608 253.816C245.384 253.72 245.091 253.624 244.728 253.528C244.11 253.368 243.603 253.187 243.208 252.984C242.814 252.781 242.51 252.552 242.296 252.296C242.136 252.093 242.019 251.875 241.944 251.64C241.87 251.395 241.832 251.128 241.832 250.84C241.832 250.488 241.907 250.168 242.056 249.88C242.216 249.581 242.43 249.325 242.696 249.112C242.974 248.888 243.294 248.717 243.656 248.6C244.03 248.483 244.424 248.424 244.84 248.424C245.235 248.424 245.624 248.477 246.008 248.584C246.403 248.691 246.766 248.845 247.096 249.048C247.427 249.251 247.704 249.491 247.928 249.768L246.984 250.808C246.782 250.605 246.558 250.429 246.312 250.28C246.078 250.12 245.838 249.997 245.592 249.912C245.347 249.827 245.123 249.784 244.92 249.784C244.696 249.784 244.494 249.805 244.312 249.848C244.131 249.891 243.976 249.955 243.848 250.04C243.731 250.125 243.64 250.232 243.576 250.36C243.512 250.488 243.48 250.632 243.48 250.792C243.491 250.931 243.523 251.064 243.576 251.192C243.64 251.309 243.726 251.411 243.832 251.496C243.95 251.581 244.126 251.672 244.36 251.768C244.595 251.864 244.894 251.955 245.256 252.04C245.79 252.179 246.227 252.333 246.568 252.504C246.92 252.664 247.198 252.851 247.4 253.064C247.614 253.267 247.763 253.501 247.848 253.768C247.934 254.035 247.976 254.333 247.976 254.664C247.976 255.144 247.838 255.576 247.56 255.96C247.294 256.333 246.931 256.627 246.472 256.84C246.014 257.053 245.502 257.16 244.936 257.16Z" fill="#3B3B3B"/>
<path d="M112.293 255.707L109.293 252.707C109.2 252.614 109.126 252.504 109.076 252.383C109.026 252.262 109 252.132 109 252C109 251.869 109.026 251.739 109.076 251.618C109.126 251.496 109.2 251.386 109.293 251.293C109.386 251.2 109.496 251.127 109.617 251.077C109.739 251.026 109.869 251 110 251C110.131 251 110.261 251.026 110.382 251.077C110.504 251.127 110.614 251.2 110.707 251.293L112.943 253.529L119.241 246.349C119.326 246.25 119.43 246.168 119.547 246.108C119.664 246.049 119.792 246.013 119.923 246.003C120.054 245.993 120.185 246.009 120.31 246.049C120.435 246.09 120.55 246.155 120.65 246.24C120.75 246.326 120.831 246.43 120.891 246.547C120.95 246.664 120.986 246.791 120.996 246.922C121.006 247.053 120.991 247.185 120.95 247.309C120.909 247.434 120.844 247.55 120.759 247.649L113.759 255.649C113.669 255.754 113.559 255.839 113.435 255.899C113.312 255.96 113.176 255.994 113.039 255.999C112.901 256.004 112.764 255.98 112.636 255.93C112.508 255.88 112.391 255.804 112.293 255.707Z" fill="black"/>
<rect x="85" y="292" width="315" height="62" rx="9" fill="white"/>
<rect x="85" y="364" width="315" height="62" rx="9" fill="white"/>
<circle cx="115" cy="323" r="17" fill="#E4E6EA"/>
<circle cx="115" cy="395" r="17" fill="#E4E6EA"/>
<path d="M155.864 329L151.384 317.8H153.352L156.024 324.6C156.152 324.931 156.264 325.229 156.36 325.496C156.467 325.763 156.557 326.008 156.632 326.232C156.707 326.445 156.776 326.648 156.84 326.84C156.904 327.032 156.968 327.224 157.032 327.416L156.616 327.432C156.691 327.176 156.771 326.909 156.856 326.632C156.941 326.355 157.037 326.051 157.144 325.72C157.261 325.389 157.4 325.016 157.56 324.6L160.04 317.8H162.056L157.544 329H155.864ZM163.862 329V320.6H165.51V329H163.862ZM164.662 318.744C164.31 318.744 164.038 318.653 163.846 318.472C163.654 318.291 163.558 318.035 163.558 317.704C163.558 317.395 163.654 317.144 163.846 316.952C164.048 316.76 164.32 316.664 164.662 316.664C165.014 316.664 165.286 316.755 165.478 316.936C165.67 317.117 165.766 317.373 165.766 317.704C165.766 318.013 165.664 318.264 165.462 318.456C165.27 318.648 165.003 318.744 164.662 318.744ZM170.843 329.16C170.139 329.16 169.504 329.037 168.939 328.792C168.373 328.547 167.904 328.184 167.531 327.704L168.651 326.744C168.971 327.117 169.317 327.389 169.691 327.56C170.075 327.72 170.507 327.8 170.987 327.8C171.179 327.8 171.355 327.779 171.515 327.736C171.685 327.683 171.829 327.608 171.947 327.512C172.075 327.416 172.171 327.304 172.235 327.176C172.299 327.037 172.331 326.888 172.331 326.728C172.331 326.451 172.229 326.227 172.027 326.056C171.92 325.981 171.749 325.901 171.515 325.816C171.291 325.72 170.997 325.624 170.635 325.528C170.016 325.368 169.509 325.187 169.115 324.984C168.72 324.781 168.416 324.552 168.203 324.296C168.043 324.093 167.925 323.875 167.851 323.64C167.776 323.395 167.739 323.128 167.739 322.84C167.739 322.488 167.813 322.168 167.963 321.88C168.123 321.581 168.336 321.325 168.603 321.112C168.88 320.888 169.2 320.717 169.563 320.6C169.936 320.483 170.331 320.424 170.747 320.424C171.141 320.424 171.531 320.477 171.915 320.584C172.309 320.691 172.672 320.845 173.003 321.048C173.333 321.251 173.611 321.491 173.835 321.768L172.891 322.808C172.688 322.605 172.464 322.429 172.219 322.28C171.984 322.12 171.744 321.997 171.499 321.912C171.253 321.827 171.029 321.784 170.827 321.784C170.603 321.784 170.4 321.805 170.219 321.848C170.037 321.891 169.883 321.955 169.755 322.04C169.637 322.125 169.547 322.232 169.483 322.36C169.419 322.488 169.387 322.632 169.387 322.792C169.397 322.931 169.429 323.064 169.483 323.192C169.547 323.309 169.632 323.411 169.739 323.496C169.856 323.581 170.032 323.672 170.267 323.768C170.501 323.864 170.8 323.955 171.163 324.04C171.696 324.179 172.133 324.333 172.475 324.504C172.827 324.664 173.104 324.851 173.307 325.064C173.52 325.267 173.669 325.501 173.755 325.768C173.84 326.035 173.883 326.333 173.883 326.664C173.883 327.144 173.744 327.576 173.467 327.96C173.2 328.333 172.837 328.627 172.379 328.84C171.92 329.053 171.408 329.16 170.843 329.16ZM175.971 329V320.6H177.619V329H175.971ZM176.771 318.744C176.419 318.744 176.147 318.653 175.955 318.472C175.763 318.291 175.667 318.035 175.667 317.704C175.667 317.395 175.763 317.144 175.955 316.952C176.158 316.76 176.43 316.664 176.771 316.664C177.123 316.664 177.395 316.755 177.587 316.936C177.779 317.117 177.875 317.373 177.875 317.704C177.875 318.013 177.774 318.264 177.571 318.456C177.379 318.648 177.112 318.744 176.771 318.744ZM181.192 329V318.456H182.84V329H181.192ZM179.448 322.2V320.6H184.792V322.2H179.448ZM189.991 329.16C189.169 329.16 188.433 328.973 187.783 328.6C187.143 328.216 186.636 327.699 186.263 327.048C185.889 326.387 185.703 325.635 185.703 324.792C185.703 323.949 185.889 323.203 186.263 322.552C186.636 321.891 187.143 321.373 187.783 321C188.433 320.616 189.169 320.424 189.991 320.424C190.801 320.424 191.527 320.616 192.167 321C192.817 321.373 193.329 321.891 193.703 322.552C194.076 323.203 194.263 323.949 194.263 324.792C194.263 325.635 194.076 326.387 193.703 327.048C193.329 327.699 192.817 328.216 192.167 328.6C191.527 328.973 190.801 329.16 189.991 329.16ZM189.991 327.656C190.492 327.656 190.94 327.533 191.335 327.288C191.729 327.032 192.039 326.691 192.263 326.264C192.487 325.827 192.593 325.336 192.583 324.792C192.593 324.237 192.487 323.747 192.263 323.32C192.039 322.883 191.729 322.541 191.335 322.296C190.94 322.051 190.492 321.928 189.991 321.928C189.489 321.928 189.036 322.056 188.631 322.312C188.236 322.557 187.927 322.899 187.703 323.336C187.479 323.763 187.372 324.248 187.383 324.792C187.372 325.336 187.479 325.827 187.703 326.264C187.927 326.691 188.236 327.032 188.631 327.288C189.036 327.533 189.489 327.656 189.991 327.656ZM196.058 329V320.6H197.722V323.24L197.562 322.6C197.68 322.195 197.877 321.827 198.154 321.496C198.442 321.165 198.768 320.904 199.13 320.712C199.504 320.52 199.888 320.424 200.282 320.424C200.464 320.424 200.634 320.44 200.794 320.472C200.965 320.504 201.098 320.541 201.194 320.584L200.762 322.376C200.634 322.323 200.49 322.28 200.33 322.248C200.181 322.205 200.032 322.184 199.882 322.184C199.594 322.184 199.317 322.243 199.05 322.36C198.794 322.467 198.565 322.621 198.362 322.824C198.17 323.016 198.016 323.245 197.898 323.512C197.781 323.768 197.722 324.051 197.722 324.36V329H196.058ZM205.311 329.16C204.607 329.16 203.973 329.037 203.407 328.792C202.842 328.547 202.373 328.184 201.999 327.704L203.119 326.744C203.439 327.117 203.786 327.389 204.159 327.56C204.543 327.72 204.975 327.8 205.455 327.8C205.647 327.8 205.823 327.779 205.983 327.736C206.154 327.683 206.298 327.608 206.415 327.512C206.543 327.416 206.639 327.304 206.703 327.176C206.767 327.037 206.799 326.888 206.799 326.728C206.799 326.451 206.698 326.227 206.495 326.056C206.389 325.981 206.218 325.901 205.983 325.816C205.759 325.72 205.466 325.624 205.103 325.528C204.485 325.368 203.978 325.187 203.583 324.984C203.189 324.781 202.885 324.552 202.671 324.296C202.511 324.093 202.394 323.875 202.319 323.64C202.245 323.395 202.207 323.128 202.207 322.84C202.207 322.488 202.282 322.168 202.431 321.88C202.591 321.581 202.805 321.325 203.071 321.112C203.349 320.888 203.669 320.717 204.031 320.6C204.405 320.483 204.799 320.424 205.215 320.424C205.61 320.424 205.999 320.477 206.383 320.584C206.778 320.691 207.141 320.845 207.471 321.048C207.802 321.251 208.079 321.491 208.303 321.768L207.359 322.808C207.157 322.605 206.933 322.429 206.687 322.28C206.453 322.12 206.213 321.997 205.967 321.912C205.722 321.827 205.498 321.784 205.295 321.784C205.071 321.784 204.869 321.805 204.687 321.848C204.506 321.891 204.351 321.955 204.223 322.04C204.106 322.125 204.015 322.232 203.951 322.36C203.887 322.488 203.855 322.632 203.855 322.792C203.866 322.931 203.898 323.064 203.951 323.192C204.015 323.309 204.101 323.411 204.207 323.496C204.325 323.581 204.501 323.672 204.735 323.768C204.97 323.864 205.269 323.955 205.631 324.04C206.165 324.179 206.602 324.333 206.943 324.504C207.295 324.664 207.573 324.851 207.775 325.064C207.989 325.267 208.138 325.501 208.223 325.768C208.309 326.035 208.351 326.333 208.351 326.664C208.351 327.144 208.213 327.576 207.935 327.96C207.669 328.333 207.306 328.627 206.847 328.84C206.389 329.053 205.877 329.16 205.311 329.16ZM218.524 329.16C217.916 329.16 217.351 329.08 216.828 328.92C216.316 328.76 215.847 328.52 215.42 328.2C215.004 327.869 214.631 327.464 214.3 326.984L215.484 325.624C216.007 326.371 216.508 326.888 216.988 327.176C217.468 327.464 218.039 327.608 218.7 327.608C219.105 327.608 219.473 327.544 219.804 327.416C220.135 327.288 220.396 327.112 220.588 326.888C220.78 326.664 220.876 326.408 220.876 326.12C220.876 325.928 220.844 325.747 220.78 325.576C220.716 325.405 220.615 325.251 220.476 325.112C220.348 324.973 220.177 324.845 219.964 324.728C219.761 324.611 219.521 324.509 219.244 324.424C218.967 324.328 218.647 324.248 218.284 324.184C217.708 324.067 217.207 323.912 216.78 323.72C216.353 323.528 215.996 323.288 215.708 323C215.42 322.712 215.207 322.387 215.068 322.024C214.929 321.651 214.86 321.235 214.86 320.776C214.86 320.328 214.956 319.912 215.148 319.528C215.351 319.144 215.623 318.813 215.964 318.536C216.316 318.248 216.727 318.029 217.196 317.88C217.665 317.72 218.172 317.64 218.716 317.64C219.292 317.64 219.82 317.715 220.3 317.864C220.78 318.013 221.207 318.237 221.58 318.536C221.953 318.824 222.263 319.181 222.508 319.608L221.292 320.808C221.079 320.456 220.839 320.163 220.572 319.928C220.305 319.683 220.012 319.501 219.692 319.384C219.372 319.256 219.031 319.192 218.668 319.192C218.252 319.192 217.889 319.256 217.58 319.384C217.271 319.512 217.025 319.693 216.844 319.928C216.673 320.152 216.588 320.419 216.588 320.728C216.588 320.952 216.631 321.16 216.716 321.352C216.801 321.533 216.929 321.699 217.1 321.848C217.281 321.987 217.521 322.115 217.82 322.232C218.119 322.339 218.476 322.435 218.892 322.52C219.479 322.648 220.001 322.813 220.46 323.016C220.919 323.208 221.308 323.437 221.628 323.704C221.948 323.971 222.188 324.269 222.348 324.6C222.519 324.931 222.604 325.288 222.604 325.672C222.604 326.387 222.439 327.005 222.108 327.528C221.777 328.051 221.308 328.456 220.7 328.744C220.092 329.021 219.367 329.16 218.524 329.16ZM225.676 329V318.456H227.324V329H225.676ZM223.932 322.2V320.6H229.276V322.2H223.932ZM233.931 329.16C233.238 329.16 232.603 328.968 232.027 328.584C231.462 328.2 231.008 327.677 230.667 327.016C230.326 326.355 230.155 325.608 230.155 324.776C230.155 323.933 230.326 323.187 230.667 322.536C231.019 321.875 231.488 321.357 232.075 320.984C232.672 320.611 233.339 320.424 234.075 320.424C234.512 320.424 234.912 320.488 235.275 320.616C235.638 320.744 235.952 320.925 236.219 321.16C236.496 321.384 236.72 321.645 236.891 321.944C237.072 322.243 237.184 322.563 237.227 322.904L236.859 322.776V320.6H238.523V329H236.859V327L237.243 326.888C237.179 327.176 237.046 327.459 236.843 327.736C236.651 328.003 236.4 328.243 236.091 328.456C235.792 328.669 235.456 328.84 235.083 328.968C234.72 329.096 234.336 329.16 233.931 329.16ZM234.363 327.64C234.864 327.64 235.307 327.517 235.691 327.272C236.075 327.027 236.374 326.691 236.587 326.264C236.811 325.827 236.923 325.331 236.923 324.776C236.923 324.232 236.811 323.747 236.587 323.32C236.374 322.893 236.075 322.557 235.691 322.312C235.307 322.067 234.864 321.944 234.363 321.944C233.872 321.944 233.435 322.067 233.051 322.312C232.678 322.557 232.379 322.893 232.155 323.32C231.942 323.747 231.835 324.232 231.835 324.776C231.835 325.331 231.942 325.827 232.155 326.264C232.379 326.691 232.678 327.027 233.051 327.272C233.435 327.517 233.872 327.64 234.363 327.64ZM241.864 329V318.456H243.512V329H241.864ZM240.12 322.2V320.6H245.464V322.2H240.12ZM250.077 329.16C249.373 329.16 248.738 329.037 248.173 328.792C247.608 328.547 247.138 328.184 246.765 327.704L247.885 326.744C248.205 327.117 248.552 327.389 248.925 327.56C249.309 327.72 249.741 327.8 250.221 327.8C250.413 327.8 250.589 327.779 250.749 327.736C250.92 327.683 251.064 327.608 251.181 327.512C251.309 327.416 251.405 327.304 251.469 327.176C251.533 327.037 251.565 326.888 251.565 326.728C251.565 326.451 251.464 326.227 251.261 326.056C251.154 325.981 250.984 325.901 250.749 325.816C250.525 325.72 250.232 325.624 249.869 325.528C249.25 325.368 248.744 325.187 248.349 324.984C247.954 324.781 247.65 324.552 247.437 324.296C247.277 324.093 247.16 323.875 247.085 323.64C247.01 323.395 246.973 323.128 246.973 322.84C246.973 322.488 247.048 322.168 247.197 321.88C247.357 321.581 247.57 321.325 247.837 321.112C248.114 320.888 248.434 320.717 248.797 320.6C249.17 320.483 249.565 320.424 249.981 320.424C250.376 320.424 250.765 320.477 251.149 320.584C251.544 320.691 251.906 320.845 252.237 321.048C252.568 321.251 252.845 321.491 253.069 321.768L252.125 322.808C251.922 322.605 251.698 322.429 251.453 322.28C251.218 322.12 250.978 321.997 250.733 321.912C250.488 321.827 250.264 321.784 250.061 321.784C249.837 321.784 249.634 321.805 249.453 321.848C249.272 321.891 249.117 321.955 248.989 322.04C248.872 322.125 248.781 322.232 248.717 322.36C248.653 322.488 248.621 322.632 248.621 322.792C248.632 322.931 248.664 323.064 248.717 323.192C248.781 323.309 248.866 323.411 248.973 323.496C249.09 323.581 249.266 323.672 249.501 323.768C249.736 323.864 250.034 323.955 250.397 324.04C250.93 324.179 251.368 324.333 251.709 324.504C252.061 324.664 252.338 324.851 252.541 325.064C252.754 325.267 252.904 325.501 252.989 325.768C253.074 326.035 253.117 326.333 253.117 326.664C253.117 327.144 252.978 327.576 252.701 327.96C252.434 328.333 252.072 328.627 251.613 328.84C251.154 329.053 250.642 329.16 250.077 329.16Z" fill="#3B3B3B"/>
<path d="M157.256 401.16C156.467 401.16 155.736 401.016 155.064 400.728C154.403 400.44 153.821 400.04 153.32 399.528C152.829 399.005 152.445 398.397 152.168 397.704C151.901 397 151.768 396.232 151.768 395.4C151.768 394.568 151.901 393.805 152.168 393.112C152.445 392.408 152.829 391.8 153.32 391.288C153.821 390.765 154.403 390.36 155.064 390.072C155.736 389.784 156.467 389.64 157.256 389.64C158.045 389.64 158.771 389.784 159.432 390.072C160.104 390.36 160.685 390.765 161.176 391.288C161.677 391.811 162.061 392.424 162.328 393.128C162.605 393.821 162.744 394.579 162.744 395.4C162.744 396.221 162.605 396.984 162.328 397.688C162.061 398.381 161.677 398.989 161.176 399.512C160.685 400.035 160.104 400.44 159.432 400.728C158.771 401.016 158.045 401.16 157.256 401.16ZM157.256 399.48C157.8 399.48 158.296 399.379 158.744 399.176C159.203 398.973 159.597 398.691 159.928 398.328C160.259 397.955 160.515 397.523 160.696 397.032C160.888 396.531 160.984 395.987 160.984 395.4C160.984 394.813 160.888 394.275 160.696 393.784C160.515 393.283 160.259 392.851 159.928 392.488C159.597 392.115 159.203 391.827 158.744 391.624C158.296 391.421 157.8 391.32 157.256 391.32C156.712 391.32 156.211 391.421 155.752 391.624C155.304 391.827 154.909 392.109 154.568 392.472C154.237 392.835 153.981 393.267 153.8 393.768C153.619 394.259 153.528 394.803 153.528 395.4C153.528 395.987 153.619 396.531 153.8 397.032C153.981 397.533 154.237 397.965 154.568 398.328C154.909 398.691 155.304 398.973 155.752 399.176C156.211 399.379 156.712 399.48 157.256 399.48ZM167.42 401L163.868 392.6H165.644L168.204 398.888L167.9 399.032L170.636 392.6H172.332L168.604 401H167.42ZM177.525 401.16C176.661 401.16 175.893 400.979 175.221 400.616C174.56 400.243 174.037 399.736 173.653 399.096C173.28 398.456 173.093 397.72 173.093 396.888C173.093 396.227 173.2 395.624 173.413 395.08C173.626 394.536 173.92 394.067 174.293 393.672C174.677 393.267 175.13 392.957 175.653 392.744C176.186 392.52 176.762 392.408 177.381 392.408C177.925 392.408 178.432 392.515 178.901 392.728C179.37 392.931 179.776 393.213 180.117 393.576C180.469 393.939 180.736 394.371 180.917 394.872C181.109 395.363 181.2 395.901 181.189 396.488L181.173 397.192H174.309L173.941 395.88H179.749L179.509 396.152V395.768C179.477 395.416 179.36 395.101 179.157 394.824C178.954 394.547 178.698 394.328 178.389 394.168C178.08 394.008 177.744 393.928 177.381 393.928C176.805 393.928 176.32 394.04 175.925 394.264C175.53 394.477 175.232 394.797 175.029 395.224C174.826 395.64 174.725 396.157 174.725 396.776C174.725 397.363 174.848 397.875 175.093 398.312C175.338 398.739 175.685 399.069 176.133 399.304C176.581 399.539 177.098 399.656 177.685 399.656C178.101 399.656 178.485 399.587 178.837 399.448C179.2 399.309 179.589 399.059 180.005 398.696L180.837 399.864C180.581 400.12 180.266 400.344 179.893 400.536C179.53 400.728 179.141 400.883 178.725 401C178.32 401.107 177.92 401.16 177.525 401.16ZM182.98 401V392.6H184.644V395.24L184.484 394.6C184.601 394.195 184.799 393.827 185.076 393.496C185.364 393.165 185.689 392.904 186.052 392.712C186.425 392.52 186.809 392.424 187.204 392.424C187.385 392.424 187.556 392.44 187.716 392.472C187.887 392.504 188.02 392.541 188.116 392.584L187.684 394.376C187.556 394.323 187.412 394.28 187.252 394.248C187.103 394.205 186.953 394.184 186.804 394.184C186.516 394.184 186.239 394.243 185.972 394.36C185.716 394.467 185.487 394.621 185.284 394.824C185.092 395.016 184.937 395.245 184.82 395.512C184.703 395.768 184.644 396.051 184.644 396.36V401H182.98ZM194.334 401V389.8H198.718C199.518 389.8 200.238 389.933 200.878 390.2C201.528 390.467 202.083 390.851 202.542 391.352C203 391.853 203.352 392.445 203.598 393.128C203.843 393.811 203.966 394.568 203.966 395.4C203.966 396.232 203.843 396.995 203.598 397.688C203.352 398.371 203 398.963 202.542 399.464C202.094 399.955 201.544 400.333 200.894 400.6C200.243 400.867 199.518 401 198.718 401H194.334ZM196.062 399.512L196.014 399.336H198.638C199.203 399.336 199.704 399.245 200.142 399.064C200.59 398.883 200.963 398.627 201.262 398.296C201.571 397.955 201.806 397.539 201.966 397.048C202.126 396.557 202.206 396.008 202.206 395.4C202.206 394.792 202.126 394.248 201.966 393.768C201.806 393.277 201.571 392.861 201.262 392.52C200.952 392.179 200.579 391.917 200.142 391.736C199.704 391.555 199.203 391.464 198.638 391.464H195.966L196.062 391.32V399.512ZM208.83 401.16C208.233 401.16 207.71 401.021 207.262 400.744C206.825 400.467 206.484 400.077 206.238 399.576C206.004 399.075 205.886 398.477 205.886 397.784V392.6H207.534V397.336C207.534 397.827 207.609 398.253 207.758 398.616C207.918 398.968 208.142 399.24 208.43 399.432C208.729 399.624 209.086 399.72 209.502 399.72C209.812 399.72 210.094 399.672 210.35 399.576C210.606 399.469 210.825 399.325 211.006 399.144C211.198 398.963 211.348 398.744 211.454 398.488C211.561 398.232 211.614 397.955 211.614 397.656V392.6H213.262V401H211.614V399.24L211.902 399.048C211.774 399.443 211.556 399.8 211.246 400.12C210.948 400.44 210.59 400.696 210.174 400.888C209.758 401.069 209.31 401.16 208.83 401.16ZM219.494 401.16C218.63 401.16 217.862 400.979 217.19 400.616C216.529 400.243 216.006 399.736 215.622 399.096C215.249 398.456 215.062 397.72 215.062 396.888C215.062 396.227 215.169 395.624 215.382 395.08C215.595 394.536 215.889 394.067 216.262 393.672C216.646 393.267 217.099 392.957 217.622 392.744C218.155 392.52 218.731 392.408 219.35 392.408C219.894 392.408 220.401 392.515 220.87 392.728C221.339 392.931 221.745 393.213 222.086 393.576C222.438 393.939 222.705 394.371 222.886 394.872C223.078 395.363 223.169 395.901 223.158 396.488L223.142 397.192H216.278L215.91 395.88H221.718L221.478 396.152V395.768C221.446 395.416 221.329 395.101 221.126 394.824C220.923 394.547 220.667 394.328 220.358 394.168C220.049 394.008 219.713 393.928 219.35 393.928C218.774 393.928 218.289 394.04 217.894 394.264C217.499 394.477 217.201 394.797 216.998 395.224C216.795 395.64 216.694 396.157 216.694 396.776C216.694 397.363 216.817 397.875 217.062 398.312C217.307 398.739 217.654 399.069 218.102 399.304C218.55 399.539 219.067 399.656 219.654 399.656C220.07 399.656 220.454 399.587 220.806 399.448C221.169 399.309 221.558 399.059 221.974 398.696L222.806 399.864C222.55 400.12 222.235 400.344 221.862 400.536C221.499 400.728 221.11 400.883 220.694 401C220.289 401.107 219.889 401.16 219.494 401.16ZM229.849 401V389.8H231.577V399.336H236.825V401H229.849ZM242.619 401.16C241.755 401.16 240.987 400.979 240.315 400.616C239.654 400.243 239.131 399.736 238.747 399.096C238.374 398.456 238.187 397.72 238.187 396.888C238.187 396.227 238.294 395.624 238.507 395.08C238.72 394.536 239.014 394.067 239.387 393.672C239.771 393.267 240.224 392.957 240.747 392.744C241.28 392.52 241.856 392.408 242.475 392.408C243.019 392.408 243.526 392.515 243.995 392.728C244.464 392.931 244.87 393.213 245.211 393.576C245.563 393.939 245.83 394.371 246.011 394.872C246.203 395.363 246.294 395.901 246.283 396.488L246.267 397.192H239.403L239.035 395.88H244.843L244.603 396.152V395.768C244.571 395.416 244.454 395.101 244.251 394.824C244.048 394.547 243.792 394.328 243.483 394.168C243.174 394.008 242.838 393.928 242.475 393.928C241.899 393.928 241.414 394.04 241.019 394.264C240.624 394.477 240.326 394.797 240.123 395.224C239.92 395.64 239.819 396.157 239.819 396.776C239.819 397.363 239.942 397.875 240.187 398.312C240.432 398.739 240.779 399.069 241.227 399.304C241.675 399.539 242.192 399.656 242.779 399.656C243.195 399.656 243.579 399.587 243.931 399.448C244.294 399.309 244.683 399.059 245.099 398.696L245.931 399.864C245.675 400.12 245.36 400.344 244.987 400.536C244.624 400.728 244.235 400.883 243.819 401C243.414 401.107 243.014 401.16 242.619 401.16ZM251.306 401.16C250.613 401.16 249.978 400.968 249.402 400.584C248.837 400.2 248.383 399.677 248.042 399.016C247.701 398.355 247.53 397.608 247.53 396.776C247.53 395.933 247.701 395.187 248.042 394.536C248.394 393.875 248.863 393.357 249.45 392.984C250.047 392.611 250.714 392.424 251.45 392.424C251.887 392.424 252.287 392.488 252.65 392.616C253.013 392.744 253.327 392.925 253.594 393.16C253.871 393.384 254.095 393.645 254.266 393.944C254.447 394.243 254.559 394.563 254.602 394.904L254.234 394.776V392.6H255.898V401H254.234V399L254.618 398.888C254.554 399.176 254.421 399.459 254.218 399.736C254.026 400.003 253.775 400.243 253.466 400.456C253.167 400.669 252.831 400.84 252.458 400.968C252.095 401.096 251.711 401.16 251.306 401.16ZM251.738 399.64C252.239 399.64 252.682 399.517 253.066 399.272C253.45 399.027 253.749 398.691 253.962 398.264C254.186 397.827 254.298 397.331 254.298 396.776C254.298 396.232 254.186 395.747 253.962 395.32C253.749 394.893 253.45 394.557 253.066 394.312C252.682 394.067 252.239 393.944 251.738 393.944C251.247 393.944 250.81 394.067 250.426 394.312C250.053 394.557 249.754 394.893 249.53 395.32C249.317 395.747 249.21 396.232 249.21 396.776C249.21 397.331 249.317 397.827 249.53 398.264C249.754 398.691 250.053 399.027 250.426 399.272C250.81 399.517 251.247 399.64 251.738 399.64ZM260.999 401.16C260.295 401.16 259.66 401.037 259.095 400.792C258.53 400.547 258.06 400.184 257.687 399.704L258.807 398.744C259.127 399.117 259.474 399.389 259.847 399.56C260.231 399.72 260.663 399.8 261.143 399.8C261.335 399.8 261.511 399.779 261.671 399.736C261.842 399.683 261.986 399.608 262.103 399.512C262.231 399.416 262.327 399.304 262.391 399.176C262.455 399.037 262.487 398.888 262.487 398.728C262.487 398.451 262.386 398.227 262.183 398.056C262.076 397.981 261.906 397.901 261.671 397.816C261.447 397.72 261.154 397.624 260.791 397.528C260.172 397.368 259.666 397.187 259.271 396.984C258.876 396.781 258.572 396.552 258.359 396.296C258.199 396.093 258.082 395.875 258.007 395.64C257.932 395.395 257.895 395.128 257.895 394.84C257.895 394.488 257.97 394.168 258.119 393.88C258.279 393.581 258.492 393.325 258.759 393.112C259.036 392.888 259.356 392.717 259.719 392.6C260.092 392.483 260.487 392.424 260.903 392.424C261.298 392.424 261.687 392.477 262.071 392.584C262.466 392.691 262.828 392.845 263.159 393.048C263.49 393.251 263.767 393.491 263.991 393.768L263.047 394.808C262.844 394.605 262.62 394.429 262.375 394.28C262.14 394.12 261.9 393.997 261.655 393.912C261.41 393.827 261.186 393.784 260.983 393.784C260.759 393.784 260.556 393.805 260.375 393.848C260.194 393.891 260.039 393.955 259.911 394.04C259.794 394.125 259.703 394.232 259.639 394.36C259.575 394.488 259.543 394.632 259.543 394.792C259.554 394.931 259.586 395.064 259.639 395.192C259.703 395.309 259.788 395.411 259.895 395.496C260.012 395.581 260.188 395.672 260.423 395.768C260.658 395.864 260.956 395.955 261.319 396.04C261.852 396.179 262.29 396.333 262.631 396.504C262.983 396.664 263.26 396.851 263.463 397.064C263.676 397.267 263.826 397.501 263.911 397.768C263.996 398.035 264.039 398.333 264.039 398.664C264.039 399.144 263.9 399.576 263.623 399.96C263.356 400.333 262.994 400.627 262.535 400.84C262.076 401.053 261.564 401.16 260.999 401.16ZM269.775 401.16C268.911 401.16 268.143 400.979 267.471 400.616C266.81 400.243 266.287 399.736 265.903 399.096C265.53 398.456 265.343 397.72 265.343 396.888C265.343 396.227 265.45 395.624 265.663 395.08C265.876 394.536 266.17 394.067 266.543 393.672C266.927 393.267 267.38 392.957 267.903 392.744C268.436 392.52 269.012 392.408 269.631 392.408C270.175 392.408 270.682 392.515 271.151 392.728C271.62 392.931 272.026 393.213 272.367 393.576C272.719 393.939 272.986 394.371 273.167 394.872C273.359 395.363 273.45 395.901 273.439 396.488L273.423 397.192H266.559L266.191 395.88H271.999L271.759 396.152V395.768C271.727 395.416 271.61 395.101 271.407 394.824C271.204 394.547 270.948 394.328 270.639 394.168C270.33 394.008 269.994 393.928 269.631 393.928C269.055 393.928 268.57 394.04 268.175 394.264C267.78 394.477 267.482 394.797 267.279 395.224C267.076 395.64 266.975 396.157 266.975 396.776C266.975 397.363 267.098 397.875 267.343 398.312C267.588 398.739 267.935 399.069 268.383 399.304C268.831 399.539 269.348 399.656 269.935 399.656C270.351 399.656 270.735 399.587 271.087 399.448C271.45 399.309 271.839 399.059 272.255 398.696L273.087 399.864C272.831 400.12 272.516 400.344 272.143 400.536C271.78 400.728 271.391 400.883 270.975 401C270.57 401.107 270.17 401.16 269.775 401.16ZM278.03 401.16C277.326 401.16 276.691 401.037 276.126 400.792C275.561 400.547 275.091 400.184 274.718 399.704L275.838 398.744C276.158 399.117 276.505 399.389 276.878 399.56C277.262 399.72 277.694 399.8 278.174 399.8C278.366 399.8 278.542 399.779 278.702 399.736C278.873 399.683 279.017 399.608 279.134 399.512C279.262 399.416 279.358 399.304 279.422 399.176C279.486 399.037 279.518 398.888 279.518 398.728C279.518 398.451 279.417 398.227 279.214 398.056C279.107 397.981 278.937 397.901 278.702 397.816C278.478 397.72 278.185 397.624 277.822 397.528C277.203 397.368 276.697 397.187 276.302 396.984C275.907 396.781 275.603 396.552 275.39 396.296C275.23 396.093 275.113 395.875 275.038 395.64C274.963 395.395 274.926 395.128 274.926 394.84C274.926 394.488 275.001 394.168 275.15 393.88C275.31 393.581 275.523 393.325 275.79 393.112C276.067 392.888 276.387 392.717 276.75 392.6C277.123 392.483 277.518 392.424 277.934 392.424C278.329 392.424 278.718 392.477 279.102 392.584C279.497 392.691 279.859 392.845 280.19 393.048C280.521 393.251 280.798 393.491 281.022 393.768L280.078 394.808C279.875 394.605 279.651 394.429 279.406 394.28C279.171 394.12 278.931 393.997 278.686 393.912C278.441 393.827 278.217 393.784 278.014 393.784C277.79 393.784 277.587 393.805 277.406 393.848C277.225 393.891 277.07 393.955 276.942 394.04C276.825 394.125 276.734 394.232 276.67 394.36C276.606 394.488 276.574 394.632 276.574 394.792C276.585 394.931 276.617 395.064 276.67 395.192C276.734 395.309 276.819 395.411 276.926 395.496C277.043 395.581 277.219 395.672 277.454 395.768C277.689 395.864 277.987 395.955 278.35 396.04C278.883 396.179 279.321 396.333 279.662 396.504C280.014 396.664 280.291 396.851 280.494 397.064C280.707 397.267 280.857 397.501 280.942 397.768C281.027 398.035 281.07 398.333 281.07 398.664C281.07 399.144 280.931 399.576 280.654 399.96C280.387 400.333 280.025 400.627 279.566 400.84C279.107 401.053 278.595 401.16 278.03 401.16Z" fill="#3B3B3B"/>
<path d="M112.293 327.707L109.293 324.707C109.2 324.614 109.126 324.504 109.076 324.383C109.026 324.262 109 324.132 109 324C109 323.869 109.026 323.739 109.076 323.618C109.126 323.496 109.2 323.386 109.293 323.293C109.386 323.2 109.496 323.127 109.617 323.077C109.739 323.026 109.869 323 110 323C110.131 323 110.261 323.026 110.382 323.077C110.504 323.127 110.614 323.2 110.707 323.293L112.943 325.529L119.241 318.349C119.326 318.25 119.43 318.168 119.547 318.108C119.664 318.049 119.792 318.013 119.923 318.003C120.054 317.993 120.185 318.009 120.31 318.049C120.435 318.09 120.55 318.155 120.65 318.24C120.75 318.326 120.831 318.43 120.891 318.547C120.95 318.664 120.986 318.791 120.996 318.922C121.006 319.053 120.991 319.185 120.95 319.309C120.909 319.434 120.844 319.55 120.759 319.649L113.759 327.649C113.669 327.754 113.559 327.839 113.435 327.899C113.312 327.96 113.176 327.994 113.039 327.999C112.901 328.004 112.764 327.98 112.636 327.93C112.508 327.88 112.391 327.804 112.293 327.707Z" fill="black"/>
<path d="M112.293 399.707L109.293 396.707C109.2 396.614 109.126 396.504 109.076 396.383C109.026 396.262 109 396.132 109 396C109 395.869 109.026 395.739 109.076 395.618C109.126 395.496 109.2 395.386 109.293 395.293C109.386 395.2 109.496 395.127 109.617 395.077C109.739 395.026 109.869 395 110 395C110.131 395 110.261 395.026 110.382 395.077C110.504 395.127 110.614 395.2 110.707 395.293L112.943 397.529L119.241 390.349C119.326 390.25 119.43 390.168 119.547 390.108C119.664 390.049 119.792 390.013 119.923 390.003C120.054 389.993 120.185 390.009 120.31 390.049C120.435 390.09 120.55 390.155 120.65 390.24C120.75 390.326 120.831 390.43 120.891 390.547C120.95 390.664 120.986 390.791 120.996 390.922C121.006 391.053 120.991 391.185 120.95 391.309C120.909 391.434 120.844 391.55 120.759 391.649L113.759 399.649C113.669 399.754 113.559 399.839 113.435 399.899C113.312 399.96 113.176 399.994 113.039 399.999C112.901 400.004 112.764 399.98 112.636 399.93C112.508 399.88 112.391 399.804 112.293 399.707Z" fill="black"/>
<path opacity="0.352" d="M384.231 167H370.769C367.583 167 365 169.583 365 172.769V186.231C365 189.417 367.583 192 370.769 192H384.231C387.417 192 390 189.417 390 186.231V172.769C390 169.583 387.417 167 384.231 167Z" fill="#1989FA"/>
<path opacity="0.352" d="M384.231 239H370.769C367.583 239 365 241.583 365 244.769V258.231C365 261.417 367.583 264 370.769 264H384.231C387.417 264 390 261.417 390 258.231V244.769C390 241.583 387.417 239 384.231 239Z" fill="#1989FA"/>
<path opacity="0.352" d="M384.231 311H370.769C367.583 311 365 313.583 365 316.769V330.231C365 333.417 367.583 336 370.769 336H384.231C387.417 336 390 333.417 390 330.231V316.769C390 313.583 387.417 311 384.231 311Z" fill="#1989FA"/>
<path opacity="0.352" d="M384.231 383H370.769C367.583 383 365 385.583 365 388.769V402.231C365 405.417 367.583 408 370.769 408H384.231C387.417 408 390 405.417 390 402.231V388.769C390 385.583 387.417 383 384.231 383Z" fill="#1989FA"/>
<path d="M376.8 185.577V180.494H371.719C371.765 180.546 371.8 180.586 371.836 180.625C372.186 180.975 372.536 181.323 372.885 181.673C372.939 181.721 372.984 181.779 373.015 181.845C373.046 181.911 373.063 181.982 373.066 182.055C373.069 182.127 373.056 182.2 373.03 182.268C373.003 182.335 372.963 182.397 372.912 182.449C372.861 182.5 372.8 182.541 372.732 182.568C372.665 182.595 372.593 182.608 372.52 182.606C372.447 182.604 372.376 182.588 372.31 182.557C372.244 182.527 372.185 182.483 372.136 182.429L370.069 180.365C370.011 180.315 369.964 180.254 369.932 180.184C369.899 180.114 369.883 180.038 369.883 179.961C369.883 179.885 369.899 179.809 369.932 179.739C369.964 179.669 370.011 179.607 370.069 179.558L372.136 177.481C372.185 177.426 372.244 177.383 372.31 177.352C372.376 177.322 372.447 177.305 372.52 177.303C372.593 177.301 372.665 177.314 372.732 177.341C372.8 177.369 372.861 177.409 372.912 177.461C372.963 177.513 373.003 177.574 373.03 177.642C373.056 177.71 373.069 177.782 373.066 177.855C373.063 177.927 373.046 177.999 373.015 178.064C372.984 178.13 372.939 178.189 372.885 178.236C372.5 178.621 372.115 179.006 371.71 179.411H376.8V174.333C376.758 174.369 376.721 174.394 376.69 174.429C376.325 174.794 375.961 175.161 375.592 175.521C375.515 175.603 375.414 175.657 375.303 175.676C375.193 175.695 375.079 175.678 374.979 175.627C374.881 175.583 374.8 175.508 374.748 175.414C374.696 175.32 374.676 175.212 374.69 175.106C374.709 174.981 374.763 174.864 374.846 174.769C375.545 174.055 376.252 173.345 376.967 172.64C377.015 172.59 377.073 172.549 377.138 172.521C377.202 172.494 377.271 172.479 377.341 172.479C377.411 172.479 377.481 172.494 377.545 172.521C377.609 172.549 377.667 172.59 377.715 172.64C378.429 173.349 379.14 174.06 379.848 174.773C379.897 174.823 379.936 174.881 379.962 174.946C379.988 175.011 380.002 175.08 380.001 175.149C380.001 175.219 379.987 175.288 379.959 175.352C379.932 175.417 379.893 175.475 379.843 175.524C379.794 175.573 379.735 175.612 379.67 175.638C379.606 175.664 379.536 175.678 379.467 175.677C379.397 175.677 379.328 175.662 379.264 175.635C379.2 175.608 379.141 175.569 379.092 175.519C378.723 175.173 378.377 174.808 378.019 174.45C377.981 174.404 377.94 174.377 377.881 174.323V179.404H382.954C382.906 179.352 382.873 179.31 382.835 179.273C382.485 178.923 382.135 178.575 381.786 178.225C381.732 178.177 381.687 178.118 381.656 178.053C381.625 177.987 381.608 177.916 381.605 177.843C381.602 177.77 381.615 177.698 381.641 177.63C381.668 177.563 381.708 177.501 381.759 177.449C381.81 177.398 381.871 177.357 381.939 177.33C382.006 177.303 382.078 177.29 382.151 177.292C382.224 177.293 382.295 177.31 382.361 177.341C382.427 177.371 382.486 177.415 382.535 177.469L384.617 179.542C384.676 179.592 384.723 179.654 384.755 179.724C384.787 179.794 384.804 179.87 384.804 179.947C384.804 180.024 384.787 180.1 384.755 180.17C384.723 180.24 384.676 180.302 384.617 180.352C383.929 181.044 383.238 181.735 382.544 182.425C382.496 182.482 382.437 182.528 382.371 182.56C382.304 182.593 382.231 182.611 382.157 182.614C382.083 182.617 382.009 182.605 381.94 182.577C381.871 182.55 381.809 182.509 381.757 182.456C381.705 182.403 381.664 182.34 381.638 182.271C381.612 182.201 381.601 182.127 381.605 182.053C381.609 181.979 381.628 181.907 381.662 181.84C381.695 181.774 381.742 181.716 381.8 181.669L382.975 180.494H377.89V185.558C377.931 185.523 377.967 185.496 378 185.463L379.06 184.404C379.107 184.346 379.165 184.299 379.232 184.266C379.298 184.232 379.371 184.213 379.445 184.209C379.519 184.205 379.593 184.217 379.663 184.243C379.732 184.27 379.795 184.31 379.848 184.363C379.901 184.415 379.943 184.478 379.97 184.547C379.997 184.616 380.01 184.69 380.007 184.764C380.004 184.838 379.986 184.911 379.953 184.978C379.92 185.045 379.874 185.104 379.817 185.152C379.131 185.844 378.446 186.533 377.761 187.219C377.711 187.28 377.649 187.328 377.578 187.362C377.507 187.395 377.429 187.412 377.351 187.412C377.272 187.412 377.195 187.395 377.124 187.362C377.053 187.328 376.99 187.28 376.94 187.219C376.249 186.533 375.561 185.846 374.877 185.158C374.819 185.11 374.771 185.051 374.737 184.984C374.704 184.918 374.684 184.844 374.68 184.77C374.677 184.695 374.689 184.62 374.716 184.55C374.743 184.48 374.784 184.417 374.837 184.364C374.89 184.311 374.954 184.27 375.024 184.243C375.094 184.217 375.169 184.205 375.244 184.209C375.319 184.213 375.392 184.233 375.458 184.267C375.525 184.301 375.584 184.349 375.631 184.408L376.669 185.442C376.708 185.481 376.748 185.517 376.808 185.581" fill="white"/>
<path d="M376.8 257.577V252.494H371.719C371.765 252.546 371.8 252.586 371.836 252.625C372.186 252.975 372.536 253.323 372.885 253.673C372.939 253.721 372.984 253.779 373.015 253.845C373.046 253.911 373.063 253.982 373.066 254.055C373.069 254.127 373.056 254.2 373.03 254.268C373.003 254.335 372.963 254.397 372.912 254.449C372.861 254.5 372.8 254.541 372.732 254.568C372.665 254.595 372.593 254.608 372.52 254.606C372.447 254.604 372.376 254.588 372.31 254.557C372.244 254.527 372.185 254.483 372.136 254.429L370.069 252.365C370.011 252.315 369.964 252.254 369.932 252.184C369.899 252.114 369.883 252.038 369.883 251.961C369.883 251.885 369.899 251.809 369.932 251.739C369.964 251.669 370.011 251.607 370.069 251.558L372.136 249.481C372.185 249.426 372.244 249.383 372.31 249.352C372.376 249.322 372.447 249.305 372.52 249.303C372.593 249.301 372.665 249.314 372.732 249.341C372.8 249.369 372.861 249.409 372.912 249.461C372.963 249.513 373.003 249.574 373.03 249.642C373.056 249.71 373.069 249.782 373.066 249.855C373.063 249.927 373.046 249.999 373.015 250.064C372.984 250.13 372.939 250.189 372.885 250.236C372.5 250.621 372.115 251.006 371.71 251.411H376.8V246.333C376.758 246.369 376.721 246.394 376.69 246.429C376.325 246.794 375.961 247.161 375.592 247.521C375.515 247.603 375.414 247.657 375.303 247.676C375.193 247.695 375.079 247.678 374.979 247.627C374.881 247.583 374.8 247.508 374.748 247.414C374.696 247.32 374.676 247.212 374.69 247.106C374.709 246.981 374.763 246.864 374.846 246.769C375.545 246.055 376.252 245.345 376.967 244.64C377.015 244.59 377.073 244.549 377.138 244.521C377.202 244.494 377.271 244.479 377.341 244.479C377.411 244.479 377.481 244.494 377.545 244.521C377.609 244.549 377.667 244.59 377.715 244.64C378.429 245.349 379.14 246.06 379.848 246.773C379.897 246.823 379.936 246.881 379.962 246.946C379.988 247.011 380.002 247.08 380.001 247.149C380.001 247.219 379.987 247.288 379.959 247.352C379.932 247.417 379.893 247.475 379.843 247.524C379.794 247.573 379.735 247.612 379.67 247.638C379.606 247.664 379.536 247.678 379.467 247.677C379.397 247.677 379.328 247.662 379.264 247.635C379.2 247.608 379.141 247.569 379.092 247.519C378.723 247.173 378.377 246.808 378.019 246.45C377.981 246.404 377.94 246.377 377.881 246.323V251.404H382.954C382.906 251.352 382.873 251.31 382.835 251.273C382.485 250.923 382.135 250.575 381.786 250.225C381.732 250.177 381.687 250.118 381.656 250.053C381.625 249.987 381.608 249.916 381.605 249.843C381.602 249.77 381.615 249.698 381.641 249.63C381.668 249.563 381.708 249.501 381.759 249.449C381.81 249.398 381.871 249.357 381.939 249.33C382.006 249.303 382.078 249.29 382.151 249.292C382.224 249.293 382.295 249.31 382.361 249.341C382.427 249.371 382.486 249.415 382.535 249.469L384.617 251.542C384.676 251.592 384.723 251.654 384.755 251.724C384.787 251.794 384.804 251.87 384.804 251.947C384.804 252.024 384.787 252.1 384.755 252.17C384.723 252.24 384.676 252.302 384.617 252.352C383.929 253.044 383.238 253.735 382.544 254.425C382.496 254.482 382.437 254.528 382.371 254.56C382.304 254.593 382.231 254.611 382.157 254.614C382.083 254.617 382.009 254.605 381.94 254.577C381.871 254.55 381.809 254.509 381.757 254.456C381.705 254.403 381.664 254.34 381.638 254.271C381.612 254.201 381.601 254.127 381.605 254.053C381.609 253.979 381.628 253.907 381.662 253.84C381.695 253.774 381.742 253.716 381.8 253.669L382.975 252.494H377.89V257.558C377.931 257.523 377.967 257.496 378 257.463L379.06 256.404C379.107 256.346 379.165 256.299 379.232 256.266C379.298 256.232 379.371 256.213 379.445 256.209C379.519 256.205 379.593 256.217 379.663 256.243C379.732 256.27 379.795 256.31 379.848 256.363C379.901 256.415 379.943 256.478 379.97 256.547C379.997 256.616 380.01 256.69 380.007 256.764C380.004 256.838 379.986 256.911 379.953 256.978C379.92 257.045 379.874 257.104 379.817 257.152C379.131 257.844 378.446 258.533 377.761 259.219C377.711 259.28 377.649 259.328 377.578 259.362C377.507 259.395 377.429 259.412 377.351 259.412C377.272 259.412 377.195 259.395 377.124 259.362C377.053 259.328 376.99 259.28 376.94 259.219C376.249 258.533 375.561 257.846 374.877 257.158C374.819 257.11 374.771 257.051 374.737 256.984C374.704 256.918 374.684 256.844 374.68 256.77C374.677 256.695 374.689 256.62 374.716 256.55C374.743 256.48 374.784 256.417 374.837 256.364C374.89 256.311 374.954 256.27 375.024 256.243C375.094 256.217 375.169 256.205 375.244 256.209C375.319 256.213 375.392 256.233 375.458 256.267C375.525 256.301 375.584 256.349 375.631 256.408L376.669 257.442C376.708 257.481 376.748 257.517 376.808 257.581" fill="white"/>
<path d="M376.8 329.577V324.494H371.719C371.765 324.546 371.8 324.586 371.836 324.625C372.186 324.975 372.536 325.323 372.885 325.673C372.939 325.721 372.984 325.779 373.015 325.845C373.046 325.911 373.063 325.982 373.066 326.055C373.069 326.127 373.056 326.2 373.03 326.268C373.003 326.335 372.963 326.397 372.912 326.449C372.861 326.5 372.8 326.541 372.732 326.568C372.665 326.595 372.593 326.608 372.52 326.606C372.447 326.604 372.376 326.588 372.31 326.557C372.244 326.527 372.185 326.483 372.136 326.429L370.069 324.365C370.011 324.315 369.964 324.254 369.932 324.184C369.899 324.114 369.883 324.038 369.883 323.961C369.883 323.885 369.899 323.809 369.932 323.739C369.964 323.669 370.011 323.607 370.069 323.558L372.136 321.481C372.185 321.426 372.244 321.383 372.31 321.352C372.376 321.322 372.447 321.305 372.52 321.303C372.593 321.301 372.665 321.314 372.732 321.341C372.8 321.369 372.861 321.409 372.912 321.461C372.963 321.513 373.003 321.574 373.03 321.642C373.056 321.71 373.069 321.782 373.066 321.855C373.063 321.927 373.046 321.999 373.015 322.064C372.984 322.13 372.939 322.189 372.885 322.236C372.5 322.621 372.115 323.006 371.71 323.411H376.8V318.333C376.758 318.369 376.721 318.394 376.69 318.429C376.325 318.794 375.961 319.161 375.592 319.521C375.515 319.603 375.414 319.657 375.303 319.676C375.193 319.695 375.079 319.678 374.979 319.627C374.881 319.583 374.8 319.508 374.748 319.414C374.696 319.32 374.676 319.212 374.69 319.106C374.709 318.981 374.763 318.864 374.846 318.769C375.545 318.055 376.252 317.345 376.967 316.64C377.015 316.59 377.073 316.549 377.138 316.521C377.202 316.494 377.271 316.479 377.341 316.479C377.411 316.479 377.481 316.494 377.545 316.521C377.609 316.549 377.667 316.59 377.715 316.64C378.429 317.349 379.14 318.06 379.848 318.773C379.897 318.823 379.936 318.881 379.962 318.946C379.988 319.011 380.002 319.08 380.001 319.149C380.001 319.219 379.987 319.288 379.959 319.352C379.932 319.417 379.893 319.475 379.843 319.524C379.794 319.573 379.735 319.612 379.67 319.638C379.606 319.664 379.536 319.678 379.467 319.677C379.397 319.677 379.328 319.662 379.264 319.635C379.2 319.608 379.141 319.569 379.092 319.519C378.723 319.173 378.377 318.808 378.019 318.45C377.981 318.404 377.94 318.377 377.881 318.323V323.404H382.954C382.906 323.352 382.873 323.31 382.835 323.273C382.485 322.923 382.135 322.575 381.786 322.225C381.732 322.177 381.687 322.118 381.656 322.053C381.625 321.987 381.608 321.916 381.605 321.843C381.602 321.77 381.615 321.698 381.641 321.63C381.668 321.563 381.708 321.501 381.759 321.449C381.81 321.398 381.871 321.357 381.939 321.33C382.006 321.303 382.078 321.29 382.151 321.292C382.224 321.293 382.295 321.31 382.361 321.341C382.427 321.371 382.486 321.415 382.535 321.469L384.617 323.542C384.676 323.592 384.723 323.654 384.755 323.724C384.787 323.794 384.804 323.87 384.804 323.947C384.804 324.024 384.787 324.1 384.755 324.17C384.723 324.24 384.676 324.302 384.617 324.352C383.929 325.044 383.238 325.735 382.544 326.425C382.496 326.482 382.437 326.528 382.371 326.56C382.304 326.593 382.231 326.611 382.157 326.614C382.083 326.617 382.009 326.605 381.94 326.577C381.871 326.55 381.809 326.509 381.757 326.456C381.705 326.403 381.664 326.34 381.638 326.271C381.612 326.201 381.601 326.127 381.605 326.053C381.609 325.979 381.628 325.907 381.662 325.84C381.695 325.774 381.742 325.716 381.8 325.669L382.975 324.494H377.89V329.558C377.931 329.523 377.967 329.496 378 329.463L379.06 328.404C379.107 328.346 379.165 328.299 379.232 328.266C379.298 328.232 379.371 328.213 379.445 328.209C379.519 328.205 379.593 328.217 379.663 328.243C379.732 328.27 379.795 328.31 379.848 328.363C379.901 328.415 379.943 328.478 379.97 328.547C379.997 328.616 380.01 328.69 380.007 328.764C380.004 328.838 379.986 328.911 379.953 328.978C379.92 329.045 379.874 329.104 379.817 329.152C379.131 329.844 378.446 330.533 377.761 331.219C377.711 331.28 377.649 331.328 377.578 331.362C377.507 331.395 377.429 331.412 377.351 331.412C377.272 331.412 377.195 331.395 377.124 331.362C377.053 331.328 376.99 331.28 376.94 331.219C376.249 330.533 375.561 329.846 374.877 329.158C374.819 329.11 374.771 329.051 374.737 328.984C374.704 328.918 374.684 328.844 374.68 328.77C374.677 328.695 374.689 328.62 374.716 328.55C374.743 328.48 374.784 328.417 374.837 328.364C374.89 328.311 374.954 328.27 375.024 328.243C375.094 328.217 375.169 328.205 375.244 328.209C375.319 328.213 375.392 328.233 375.458 328.267C375.525 328.301 375.584 328.349 375.631 328.408L376.669 329.442C376.708 329.481 376.748 329.517 376.808 329.581" fill="white"/>
<path d="M376.8 401.577V396.494H371.719C371.765 396.546 371.8 396.586 371.836 396.625C372.186 396.975 372.536 397.323 372.885 397.673C372.939 397.721 372.984 397.779 373.015 397.845C373.046 397.911 373.063 397.982 373.066 398.055C373.069 398.127 373.056 398.2 373.03 398.268C373.003 398.335 372.963 398.397 372.912 398.449C372.861 398.5 372.8 398.541 372.732 398.568C372.665 398.595 372.593 398.608 372.52 398.606C372.447 398.604 372.376 398.588 372.31 398.557C372.244 398.527 372.185 398.483 372.136 398.429L370.069 396.365C370.011 396.315 369.964 396.254 369.932 396.184C369.899 396.114 369.883 396.038 369.883 395.961C369.883 395.885 369.899 395.809 369.932 395.739C369.964 395.669 370.011 395.607 370.069 395.558L372.136 393.481C372.185 393.426 372.244 393.383 372.31 393.352C372.376 393.322 372.447 393.305 372.52 393.303C372.593 393.301 372.665 393.314 372.732 393.341C372.8 393.369 372.861 393.409 372.912 393.461C372.963 393.513 373.003 393.574 373.03 393.642C373.056 393.71 373.069 393.782 373.066 393.855C373.063 393.927 373.046 393.999 373.015 394.064C372.984 394.13 372.939 394.189 372.885 394.236C372.5 394.621 372.115 395.006 371.71 395.411H376.8V390.333C376.758 390.369 376.721 390.394 376.69 390.429C376.325 390.794 375.961 391.161 375.592 391.521C375.515 391.603 375.414 391.657 375.303 391.676C375.193 391.695 375.079 391.678 374.979 391.627C374.881 391.583 374.8 391.508 374.748 391.414C374.696 391.32 374.676 391.212 374.69 391.106C374.709 390.981 374.763 390.864 374.846 390.769C375.545 390.055 376.252 389.345 376.967 388.64C377.015 388.59 377.073 388.549 377.138 388.521C377.202 388.494 377.271 388.479 377.341 388.479C377.411 388.479 377.481 388.494 377.545 388.521C377.609 388.549 377.667 388.59 377.715 388.64C378.429 389.349 379.14 390.06 379.848 390.773C379.897 390.823 379.936 390.881 379.962 390.946C379.988 391.011 380.002 391.08 380.001 391.149C380.001 391.219 379.987 391.288 379.959 391.352C379.932 391.417 379.893 391.475 379.843 391.524C379.794 391.573 379.735 391.612 379.67 391.638C379.606 391.664 379.536 391.678 379.467 391.677C379.397 391.677 379.328 391.662 379.264 391.635C379.2 391.608 379.141 391.569 379.092 391.519C378.723 391.173 378.377 390.808 378.019 390.45C377.981 390.404 377.94 390.377 377.881 390.323V395.404H382.954C382.906 395.352 382.873 395.31 382.835 395.273C382.485 394.923 382.135 394.575 381.786 394.225C381.732 394.177 381.687 394.118 381.656 394.053C381.625 393.987 381.608 393.916 381.605 393.843C381.602 393.77 381.615 393.698 381.641 393.63C381.668 393.563 381.708 393.501 381.759 393.449C381.81 393.398 381.871 393.357 381.939 393.33C382.006 393.303 382.078 393.29 382.151 393.292C382.224 393.293 382.295 393.31 382.361 393.341C382.427 393.371 382.486 393.415 382.535 393.469L384.617 395.542C384.676 395.592 384.723 395.654 384.755 395.724C384.787 395.794 384.804 395.87 384.804 395.947C384.804 396.024 384.787 396.1 384.755 396.17C384.723 396.24 384.676 396.302 384.617 396.352C383.929 397.044 383.238 397.735 382.544 398.425C382.496 398.482 382.437 398.528 382.371 398.56C382.304 398.593 382.231 398.611 382.157 398.614C382.083 398.617 382.009 398.605 381.94 398.577C381.871 398.55 381.809 398.509 381.757 398.456C381.705 398.403 381.664 398.34 381.638 398.271C381.612 398.201 381.601 398.127 381.605 398.053C381.609 397.979 381.628 397.907 381.662 397.84C381.695 397.774 381.742 397.716 381.8 397.669L382.975 396.494H377.89V401.558C377.931 401.523 377.967 401.496 378 401.463L379.06 400.404C379.107 400.346 379.165 400.299 379.232 400.266C379.298 400.232 379.371 400.213 379.445 400.209C379.519 400.205 379.593 400.217 379.663 400.243C379.732 400.27 379.795 400.31 379.848 400.363C379.901 400.415 379.943 400.478 379.97 400.547C379.997 400.616 380.01 400.69 380.007 400.764C380.004 400.838 379.986 400.911 379.953 400.978C379.92 401.045 379.874 401.104 379.817 401.152C379.131 401.844 378.446 402.533 377.761 403.219C377.711 403.28 377.649 403.328 377.578 403.362C377.507 403.395 377.429 403.412 377.351 403.412C377.272 403.412 377.195 403.395 377.124 403.362C377.053 403.328 376.99 403.28 376.94 403.219C376.249 402.533 375.561 401.846 374.877 401.158C374.819 401.11 374.771 401.051 374.737 400.984C374.704 400.918 374.684 400.844 374.68 400.77C374.677 400.695 374.689 400.62 374.716 400.55C374.743 400.48 374.784 400.417 374.837 400.364C374.89 400.311 374.954 400.27 375.024 400.243C375.094 400.217 375.169 400.205 375.244 400.209C375.319 400.213 375.392 400.233 375.458 400.267C375.525 400.301 375.584 400.349 375.631 400.408L376.669 401.442C376.708 401.481 376.748 401.517 376.808 401.581" fill="white"/>
</g>
<defs>
<clipPath id="clip0_571_946">
<rect width="480" height="540" fill="white"/>
</clipPath>
</defs>
</svg>
