<svg width="480" height="540" viewBox="0 0 480 540" fill="none" xmlns="http://www.w3.org/2000/svg">
<g clip-path="url(#clip0_185_280)">
<path d="M85 76H396C405.389 76 413 83.6112 413 93V447C413 456.389 405.389 464 396 464H85C75.6111 464 68 456.389 68 447V93C68 83.6112 75.6111 76 85 76Z" fill="#F1F5F7"/>
<path d="M84.911 121V106.3H94.844V109.072H87.998V118.228H94.991V121H84.911ZM86.381 114.847V112.159H93.836V114.847H86.381ZM100.999 121L96.3375 109.891H99.6135L102.574 118.186L101.881 118.312L104.989 109.891H108.181L103.288 121H100.999ZM114.966 121.21C113.762 121.21 112.705 120.965 111.795 120.475C110.899 119.985 110.199 119.313 109.695 118.459C109.205 117.605 108.96 116.625 108.96 115.519C108.96 114.651 109.1 113.86 109.38 113.146C109.66 112.432 110.052 111.816 110.556 111.298C111.06 110.766 111.655 110.36 112.341 110.08C113.041 109.786 113.797 109.639 114.609 109.639C115.365 109.639 116.065 109.779 116.709 110.059C117.353 110.339 117.906 110.731 118.368 111.235C118.844 111.725 119.208 112.313 119.46 112.999C119.712 113.671 119.824 114.399 119.796 115.183L119.775 116.107H110.85L110.367 114.28H117.318L116.982 114.658V114.196C116.954 113.818 116.828 113.482 116.604 113.188C116.394 112.88 116.121 112.642 115.785 112.474C115.449 112.292 115.071 112.201 114.651 112.201C114.035 112.201 113.51 112.32 113.076 112.558C112.656 112.796 112.334 113.146 112.11 113.608C111.886 114.07 111.774 114.63 111.774 115.288C111.774 115.96 111.914 116.541 112.194 117.031C112.488 117.521 112.894 117.906 113.412 118.186C113.944 118.452 114.567 118.585 115.281 118.585C115.771 118.585 116.219 118.508 116.625 118.354C117.031 118.2 117.465 117.934 117.927 117.556L119.355 119.551C118.949 119.915 118.501 120.223 118.011 120.475C117.521 120.713 117.017 120.895 116.499 121.021C115.981 121.147 115.47 121.21 114.966 121.21ZM122 121V109.891H124.856L124.94 112.159L124.352 112.411C124.506 111.907 124.779 111.452 125.171 111.046C125.577 110.626 126.06 110.29 126.62 110.038C127.18 109.786 127.768 109.66 128.384 109.66C129.224 109.66 129.924 109.828 130.484 110.164C131.058 110.5 131.485 111.011 131.765 111.697C132.059 112.369 132.206 113.202 132.206 114.196V121H129.224V114.427C129.224 113.923 129.154 113.503 129.014 113.167C128.874 112.831 128.657 112.586 128.363 112.432C128.083 112.278 127.733 112.208 127.313 112.222C126.977 112.222 126.662 112.278 126.368 112.39C126.088 112.488 125.843 112.635 125.633 112.831C125.437 113.027 125.276 113.251 125.15 113.503C125.038 113.755 124.982 114.028 124.982 114.322V121H123.512C123.19 121 122.903 121 122.651 121C122.399 121 122.182 121 122 121ZM136.134 121V107.077H139.116V121H136.134ZM134.055 112.558V109.891H141.405V112.558H134.055ZM154.954 121.21C154.044 121.21 153.211 121.098 152.455 120.874C151.713 120.65 151.048 120.321 150.46 119.887C149.886 119.453 149.368 118.928 148.906 118.312L150.88 116.065C151.566 117.017 152.245 117.668 152.917 118.018C153.603 118.354 154.345 118.522 155.143 118.522C155.577 118.522 155.962 118.459 156.298 118.333C156.648 118.207 156.921 118.039 157.117 117.829C157.313 117.605 157.411 117.339 157.411 117.031C157.411 116.807 157.362 116.604 157.264 116.422C157.166 116.226 157.026 116.058 156.844 115.918C156.662 115.764 156.445 115.631 156.193 115.519C155.941 115.393 155.661 115.288 155.353 115.204C155.045 115.106 154.709 115.029 154.345 114.973C153.561 114.791 152.875 114.574 152.287 114.322C151.699 114.056 151.209 113.734 150.817 113.356C150.425 112.964 150.131 112.523 149.935 112.033C149.753 111.543 149.662 110.99 149.662 110.374C149.662 109.744 149.802 109.163 150.082 108.631C150.362 108.085 150.747 107.616 151.237 107.224C151.741 106.832 152.315 106.531 152.959 106.321C153.617 106.111 154.31 106.006 155.038 106.006C155.934 106.006 156.718 106.104 157.39 106.3C158.062 106.496 158.643 106.79 159.133 107.182C159.637 107.56 160.057 108.022 160.393 108.568L158.398 110.5C158.104 110.108 157.782 109.779 157.432 109.513C157.096 109.247 156.725 109.051 156.319 108.925C155.927 108.785 155.521 108.715 155.101 108.715C154.639 108.715 154.24 108.778 153.904 108.904C153.568 109.016 153.302 109.191 153.106 109.429C152.924 109.653 152.833 109.919 152.833 110.227C152.833 110.479 152.896 110.703 153.022 110.899C153.148 111.095 153.33 111.27 153.568 111.424C153.806 111.564 154.093 111.69 154.429 111.802C154.765 111.914 155.136 112.012 155.542 112.096C156.312 112.25 157.005 112.453 157.621 112.705C158.237 112.957 158.762 113.265 159.196 113.629C159.644 113.979 159.987 114.399 160.225 114.889C160.463 115.365 160.582 115.904 160.582 116.506C160.582 117.5 160.344 118.347 159.868 119.047C159.392 119.747 158.734 120.286 157.894 120.664C157.054 121.028 156.074 121.21 154.954 121.21ZM167.845 121.21C166.781 121.21 165.829 120.958 164.989 120.454C164.149 119.95 163.484 119.264 162.994 118.396C162.518 117.528 162.28 116.541 162.28 115.435C162.28 114.329 162.518 113.342 162.994 112.474C163.484 111.606 164.149 110.92 164.989 110.416C165.829 109.912 166.781 109.66 167.845 109.66C168.839 109.66 169.749 109.842 170.575 110.206C171.401 110.57 172.045 111.074 172.507 111.718L170.869 113.692C170.673 113.426 170.428 113.188 170.134 112.978C169.84 112.754 169.518 112.579 169.168 112.453C168.832 112.327 168.482 112.264 168.118 112.264C167.544 112.264 167.033 112.404 166.585 112.684C166.151 112.95 165.808 113.321 165.556 113.797C165.304 114.273 165.178 114.819 165.178 115.435C165.178 116.023 165.304 116.555 165.556 117.031C165.822 117.507 166.179 117.885 166.627 118.165C167.075 118.445 167.579 118.585 168.139 118.585C168.503 118.585 168.846 118.536 169.168 118.438C169.49 118.34 169.791 118.186 170.071 117.976C170.365 117.766 170.631 117.514 170.869 117.22L172.486 119.194C172.024 119.796 171.366 120.286 170.512 120.664C169.672 121.028 168.783 121.21 167.845 121.21ZM174.397 121V105.46H177.337V112.159L176.749 112.411C176.903 111.907 177.176 111.452 177.568 111.046C177.974 110.626 178.457 110.29 179.017 110.038C179.577 109.786 180.165 109.66 180.781 109.66C181.621 109.66 182.321 109.828 182.881 110.164C183.455 110.5 183.882 111.011 184.162 111.697C184.456 112.369 184.603 113.202 184.603 114.196V121H181.621V114.427C181.621 113.923 181.551 113.503 181.411 113.167C181.271 112.831 181.054 112.586 180.76 112.432C180.48 112.278 180.13 112.208 179.71 112.222C179.374 112.222 179.059 112.278 178.765 112.39C178.485 112.488 178.24 112.635 178.03 112.831C177.834 113.027 177.673 113.251 177.547 113.503C177.435 113.755 177.379 114.028 177.379 114.322V121H175.909C175.587 121 175.3 121 175.048 121C174.796 121 174.579 121 174.397 121ZM192.732 121.21C191.528 121.21 190.471 120.965 189.561 120.475C188.665 119.985 187.965 119.313 187.461 118.459C186.971 117.605 186.726 116.625 186.726 115.519C186.726 114.651 186.866 113.86 187.146 113.146C187.426 112.432 187.818 111.816 188.322 111.298C188.826 110.766 189.421 110.36 190.107 110.08C190.807 109.786 191.563 109.639 192.375 109.639C193.131 109.639 193.831 109.779 194.475 110.059C195.119 110.339 195.672 110.731 196.134 111.235C196.61 111.725 196.974 112.313 197.226 112.999C197.478 113.671 197.59 114.399 197.562 115.183L197.541 116.107H188.616L188.133 114.28H195.084L194.748 114.658V114.196C194.72 113.818 194.594 113.482 194.37 113.188C194.16 112.88 193.887 112.642 193.551 112.474C193.215 112.292 192.837 112.201 192.417 112.201C191.801 112.201 191.276 112.32 190.842 112.558C190.422 112.796 190.1 113.146 189.876 113.608C189.652 114.07 189.54 114.63 189.54 115.288C189.54 115.96 189.68 116.541 189.96 117.031C190.254 117.521 190.66 117.906 191.178 118.186C191.71 118.452 192.333 118.585 193.047 118.585C193.537 118.585 193.985 118.508 194.391 118.354C194.797 118.2 195.231 117.934 195.693 117.556L197.121 119.551C196.715 119.915 196.267 120.223 195.777 120.475C195.287 120.713 194.783 120.895 194.265 121.021C193.747 121.147 193.236 121.21 192.732 121.21ZM204.112 121.21C203.132 121.21 202.257 120.965 201.487 120.475C200.731 119.971 200.129 119.292 199.681 118.438C199.247 117.57 199.03 116.569 199.03 115.435C199.03 114.329 199.247 113.342 199.681 112.474C200.129 111.592 200.731 110.906 201.487 110.416C202.257 109.912 203.132 109.66 204.112 109.66C204.63 109.66 205.127 109.744 205.603 109.912C206.093 110.066 206.527 110.283 206.905 110.563C207.297 110.843 207.612 111.158 207.85 111.508C208.088 111.844 208.221 112.194 208.249 112.558L207.493 112.705V105.46H210.496V121H207.661L207.535 118.438L208.123 118.501C208.095 118.851 207.969 119.187 207.745 119.509C207.521 119.831 207.22 120.125 206.842 120.391C206.478 120.643 206.058 120.846 205.582 121C205.12 121.14 204.63 121.21 204.112 121.21ZM204.784 118.732C205.344 118.732 205.834 118.592 206.254 118.312C206.674 118.032 207.003 117.647 207.241 117.157C207.479 116.667 207.598 116.093 207.598 115.435C207.598 114.791 207.479 114.224 207.241 113.734C207.003 113.244 206.674 112.859 206.254 112.579C205.834 112.299 205.344 112.159 204.784 112.159C204.224 112.159 203.734 112.299 203.314 112.579C202.908 112.859 202.586 113.244 202.348 113.734C202.124 114.224 202.012 114.791 202.012 115.435C202.012 116.093 202.124 116.667 202.348 117.157C202.586 117.647 202.908 118.032 203.314 118.312C203.734 118.592 204.224 118.732 204.784 118.732ZM217.533 121.21C216.721 121.21 216.021 121.035 215.433 120.685C214.859 120.321 214.411 119.81 214.089 119.152C213.781 118.48 213.627 117.675 213.627 116.737V109.891H216.609V116.254C216.609 116.758 216.693 117.199 216.861 117.577C217.029 117.941 217.267 118.221 217.575 118.417C217.883 118.613 218.261 118.711 218.709 118.711C219.031 118.711 219.325 118.662 219.591 118.564C219.871 118.452 220.109 118.298 220.305 118.102C220.515 117.906 220.676 117.675 220.788 117.409C220.9 117.143 220.956 116.856 220.956 116.548V109.891H223.938V121H221.103L220.998 118.711L221.544 118.459C221.376 118.977 221.096 119.446 220.704 119.866C220.312 120.286 219.843 120.615 219.297 120.853C218.751 121.091 218.163 121.21 217.533 121.21ZM226.959 121V105.46H229.941V121H226.959ZM233.22 121V109.891H236.202V121H233.22ZM234.69 107.623C234.116 107.623 233.668 107.483 233.346 107.203C233.024 106.909 232.863 106.503 232.863 105.985C232.863 105.509 233.024 105.124 233.346 104.83C233.682 104.522 234.13 104.368 234.69 104.368C235.264 104.368 235.712 104.515 236.034 104.809C236.356 105.089 236.517 105.481 236.517 105.985C236.517 106.461 236.349 106.853 236.013 107.161C235.691 107.469 235.25 107.623 234.69 107.623ZM239.387 121V109.891H242.243L242.327 112.159L241.739 112.411C241.893 111.907 242.166 111.452 242.558 111.046C242.964 110.626 243.447 110.29 244.007 110.038C244.567 109.786 245.155 109.66 245.771 109.66C246.611 109.66 247.311 109.828 247.871 110.164C248.445 110.5 248.872 111.011 249.152 111.697C249.446 112.369 249.593 113.202 249.593 114.196V121H246.611V114.427C246.611 113.923 246.541 113.503 246.401 113.167C246.261 112.831 246.044 112.586 245.75 112.432C245.47 112.278 245.12 112.208 244.7 112.222C244.364 112.222 244.049 112.278 243.755 112.39C243.475 112.488 243.23 112.635 243.02 112.831C242.824 113.027 242.663 113.251 242.537 113.503C242.425 113.755 242.369 114.028 242.369 114.322V121H240.899C240.577 121 240.29 121 240.038 121C239.786 121 239.569 121 239.387 121ZM257.511 125.83C256.629 125.83 255.761 125.697 254.907 125.431C254.053 125.179 253.353 124.843 252.807 124.423L253.878 122.302C254.158 122.498 254.48 122.673 254.844 122.827C255.208 122.981 255.586 123.1 255.978 123.184C256.384 123.268 256.797 123.31 257.217 123.31C257.945 123.31 258.54 123.198 259.002 122.974C259.478 122.75 259.835 122.414 260.073 121.966C260.311 121.518 260.43 120.958 260.43 120.286V118.354L260.934 118.459C260.85 118.921 260.612 119.348 260.22 119.74C259.842 120.118 259.366 120.426 258.792 120.664C258.232 120.888 257.644 121 257.028 121C256.006 121 255.096 120.762 254.298 120.286C253.5 119.81 252.87 119.152 252.408 118.312C251.946 117.472 251.715 116.499 251.715 115.393C251.715 114.287 251.939 113.307 252.387 112.453C252.849 111.585 253.472 110.906 254.256 110.416C255.054 109.912 255.957 109.66 256.965 109.66C257.385 109.66 257.784 109.709 258.162 109.807C258.554 109.905 258.911 110.045 259.233 110.227C259.569 110.395 259.863 110.591 260.115 110.815C260.381 111.025 260.598 111.256 260.766 111.508C260.934 111.76 261.039 112.012 261.081 112.264L260.472 112.432L260.556 109.891H263.412V120.16C263.412 121.07 263.279 121.875 263.013 122.575C262.747 123.275 262.355 123.863 261.837 124.339C261.333 124.829 260.71 125.2 259.968 125.452C259.24 125.704 258.421 125.83 257.511 125.83ZM257.595 118.606C258.183 118.606 258.694 118.473 259.128 118.207C259.576 117.941 259.919 117.57 260.157 117.094C260.395 116.618 260.514 116.058 260.514 115.414C260.514 114.784 260.395 114.231 260.157 113.755C259.919 113.265 259.576 112.887 259.128 112.621C258.694 112.355 258.183 112.222 257.595 112.222C257.021 112.222 256.517 112.362 256.083 112.642C255.649 112.908 255.306 113.286 255.054 113.776C254.816 114.252 254.697 114.798 254.697 115.414C254.697 116.044 254.816 116.604 255.054 117.094C255.306 117.57 255.649 117.941 256.083 118.207C256.517 118.473 257.021 118.606 257.595 118.606Z" fill="black"/>
<rect x="83" y="136" width="315" height="140" rx="17" fill="white"/>
<rect x="83" y="136" width="315" height="140" rx="17" fill="white"/>
<g filter="url(#filter0_d_185_280)">
<rect x="98" y="191" width="290" height="64" rx="9" fill="white"/>
</g>
<path d="M116.438 169.09C116 169.09 115.598 169.012 115.232 168.856C114.866 168.7 114.548 168.478 114.278 168.19C114.008 167.896 113.798 167.551 113.648 167.155C113.504 166.759 113.432 166.324 113.432 165.85C113.432 165.4 113.51 164.983 113.666 164.599C113.828 164.209 114.05 163.867 114.332 163.573C114.614 163.279 114.941 163.051 115.313 162.889C115.685 162.727 116.087 162.646 116.519 162.646C116.825 162.646 117.122 162.694 117.41 162.79C117.704 162.88 117.968 163.009 118.202 163.177C118.442 163.339 118.637 163.525 118.787 163.735L118.139 164.41C117.965 164.236 117.788 164.092 117.608 163.978C117.434 163.858 117.254 163.768 117.068 163.708C116.888 163.648 116.705 163.618 116.519 163.618C116.225 163.618 115.949 163.675 115.691 163.789C115.439 163.897 115.217 164.05 115.025 164.248C114.839 164.446 114.692 164.683 114.584 164.959C114.476 165.229 114.422 165.526 114.422 165.85C114.422 166.192 114.473 166.504 114.575 166.786C114.683 167.062 114.833 167.299 115.025 167.497C115.217 167.695 115.445 167.848 115.709 167.956C115.979 168.058 116.276 168.109 116.6 168.109C116.798 168.109 116.993 168.082 117.185 168.028C117.377 167.974 117.557 167.896 117.725 167.794C117.893 167.692 118.046 167.572 118.184 167.434L118.67 168.226C118.532 168.388 118.343 168.535 118.103 168.667C117.869 168.799 117.605 168.904 117.311 168.982C117.023 169.054 116.732 169.09 116.438 169.09ZM119.756 169V162.34H120.683V165.247L120.521 165.355C120.581 165.145 120.698 164.953 120.872 164.779C121.046 164.599 121.253 164.455 121.493 164.347C121.733 164.233 121.979 164.176 122.231 164.176C122.591 164.176 122.891 164.248 123.131 164.392C123.371 164.53 123.551 164.743 123.671 165.031C123.791 165.319 123.851 165.682 123.851 166.12V169H122.924V166.183C122.924 165.913 122.888 165.691 122.816 165.517C122.744 165.337 122.633 165.208 122.483 165.13C122.333 165.046 122.147 165.01 121.925 165.022C121.745 165.022 121.58 165.052 121.43 165.112C121.28 165.166 121.148 165.244 121.034 165.346C120.926 165.448 120.839 165.568 120.773 165.706C120.713 165.838 120.683 165.982 120.683 166.138V169H120.224C120.146 169 120.068 169 119.99 169C119.912 169 119.834 169 119.756 169ZM127.233 169.09C126.771 169.09 126.357 168.985 125.991 168.775C125.631 168.559 125.346 168.268 125.136 167.902C124.926 167.53 124.821 167.107 124.821 166.633C124.821 166.159 124.926 165.739 125.136 165.373C125.346 165.001 125.631 164.71 125.991 164.5C126.357 164.284 126.771 164.176 127.233 164.176C127.689 164.176 128.097 164.284 128.457 164.5C128.823 164.71 129.111 165.001 129.321 165.373C129.531 165.739 129.636 166.159 129.636 166.633C129.636 167.107 129.531 167.53 129.321 167.902C129.111 168.268 128.823 168.559 128.457 168.775C128.097 168.985 127.689 169.09 127.233 169.09ZM127.233 168.244C127.515 168.244 127.767 168.175 127.989 168.037C128.211 167.893 128.385 167.701 128.511 167.461C128.637 167.215 128.697 166.939 128.691 166.633C128.697 166.321 128.637 166.045 128.511 165.805C128.385 165.559 128.211 165.367 127.989 165.229C127.767 165.091 127.515 165.022 127.233 165.022C126.951 165.022 126.696 165.094 126.468 165.238C126.246 165.376 126.072 165.568 125.946 165.814C125.82 166.054 125.76 166.327 125.766 166.633C125.76 166.939 125.82 167.215 125.946 167.461C126.072 167.701 126.246 167.893 126.468 168.037C126.696 168.175 126.951 168.244 127.233 168.244ZM132.77 169.09C132.308 169.09 131.894 168.985 131.528 168.775C131.168 168.559 130.883 168.268 130.673 167.902C130.463 167.53 130.358 167.107 130.358 166.633C130.358 166.159 130.463 165.739 130.673 165.373C130.883 165.001 131.168 164.71 131.528 164.5C131.894 164.284 132.308 164.176 132.77 164.176C133.226 164.176 133.634 164.284 133.994 164.5C134.36 164.71 134.648 165.001 134.858 165.373C135.068 165.739 135.173 166.159 135.173 166.633C135.173 167.107 135.068 167.53 134.858 167.902C134.648 168.268 134.36 168.559 133.994 168.775C133.634 168.985 133.226 169.09 132.77 169.09ZM132.77 168.244C133.052 168.244 133.304 168.175 133.526 168.037C133.748 167.893 133.922 167.701 134.048 167.461C134.174 167.215 134.234 166.939 134.228 166.633C134.234 166.321 134.174 166.045 134.048 165.805C133.922 165.559 133.748 165.367 133.526 165.229C133.304 165.091 133.052 165.022 132.77 165.022C132.488 165.022 132.233 165.094 132.005 165.238C131.783 165.376 131.609 165.568 131.483 165.814C131.357 166.054 131.297 166.327 131.303 166.633C131.297 166.939 131.357 167.215 131.483 167.461C131.609 167.701 131.783 167.893 132.005 168.037C132.233 168.175 132.488 168.244 132.77 168.244ZM137.758 169.09C137.362 169.09 137.005 169.021 136.687 168.883C136.369 168.745 136.105 168.541 135.895 168.271L136.525 167.731C136.705 167.941 136.9 168.094 137.11 168.19C137.326 168.28 137.569 168.325 137.839 168.325C137.947 168.325 138.046 168.313 138.136 168.289C138.232 168.259 138.313 168.217 138.379 168.163C138.451 168.109 138.505 168.046 138.541 167.974C138.577 167.896 138.595 167.812 138.595 167.722C138.595 167.566 138.538 167.44 138.424 167.344C138.364 167.302 138.268 167.257 138.136 167.209C138.01 167.155 137.845 167.101 137.641 167.047C137.293 166.957 137.008 166.855 136.786 166.741C136.564 166.627 136.393 166.498 136.273 166.354C136.183 166.24 136.117 166.117 136.075 165.985C136.033 165.847 136.012 165.697 136.012 165.535C136.012 165.337 136.054 165.157 136.138 164.995C136.228 164.827 136.348 164.683 136.498 164.563C136.654 164.437 136.834 164.341 137.038 164.275C137.248 164.209 137.47 164.176 137.704 164.176C137.926 164.176 138.145 164.206 138.361 164.266C138.583 164.326 138.787 164.413 138.973 164.527C139.159 164.641 139.315 164.776 139.441 164.932L138.91 165.517C138.796 165.403 138.67 165.304 138.532 165.22C138.4 165.13 138.265 165.061 138.127 165.013C137.989 164.965 137.863 164.941 137.749 164.941C137.623 164.941 137.509 164.953 137.407 164.977C137.305 165.001 137.218 165.037 137.146 165.085C137.08 165.133 137.029 165.193 136.993 165.265C136.957 165.337 136.939 165.418 136.939 165.508C136.945 165.586 136.963 165.661 136.993 165.733C137.029 165.799 137.077 165.856 137.137 165.904C137.203 165.952 137.302 166.003 137.434 166.057C137.566 166.111 137.734 166.162 137.938 166.21C138.238 166.288 138.484 166.375 138.676 166.471C138.874 166.561 139.03 166.666 139.144 166.786C139.264 166.9 139.348 167.032 139.396 167.182C139.444 167.332 139.468 167.5 139.468 167.686C139.468 167.956 139.39 168.199 139.234 168.415C139.084 168.625 138.88 168.79 138.622 168.91C138.364 169.03 138.076 169.09 137.758 169.09ZM142.695 169.09C142.209 169.09 141.777 168.988 141.399 168.784C141.027 168.574 140.733 168.289 140.517 167.929C140.307 167.569 140.202 167.155 140.202 166.687C140.202 166.315 140.262 165.976 140.382 165.67C140.502 165.364 140.667 165.1 140.877 164.878C141.093 164.65 141.348 164.476 141.642 164.356C141.942 164.23 142.266 164.167 142.614 164.167C142.92 164.167 143.205 164.227 143.469 164.347C143.733 164.461 143.961 164.62 144.153 164.824C144.351 165.028 144.501 165.271 144.603 165.553C144.711 165.829 144.762 166.132 144.756 166.462L144.747 166.858H140.886L140.679 166.12H143.946L143.811 166.273V166.057C143.793 165.859 143.727 165.682 143.613 165.526C143.499 165.37 143.355 165.247 143.181 165.157C143.007 165.067 142.818 165.022 142.614 165.022C142.29 165.022 142.017 165.085 141.795 165.211C141.573 165.331 141.405 165.511 141.291 165.751C141.177 165.985 141.12 166.276 141.12 166.624C141.12 166.954 141.189 167.242 141.327 167.488C141.465 167.728 141.66 167.914 141.912 168.046C142.164 168.178 142.455 168.244 142.785 168.244C143.019 168.244 143.235 168.205 143.433 168.127C143.637 168.049 143.856 167.908 144.09 167.704L144.558 168.361C144.414 168.505 144.237 168.631 144.027 168.739C143.823 168.847 143.604 168.934 143.37 169C143.142 169.06 142.917 169.09 142.695 169.09ZM148.286 170.98V164.275H149.222V165.355L149.078 165.274C149.114 165.094 149.216 164.923 149.384 164.761C149.552 164.593 149.756 164.458 149.996 164.356C150.242 164.248 150.494 164.194 150.752 164.194C151.178 164.194 151.556 164.299 151.886 164.509C152.216 164.719 152.477 165.007 152.669 165.373C152.861 165.739 152.957 166.159 152.957 166.633C152.957 167.101 152.861 167.521 152.669 167.893C152.483 168.259 152.225 168.55 151.895 168.766C151.565 168.976 151.193 169.081 150.779 169.081C150.503 169.081 150.236 169.027 149.978 168.919C149.72 168.805 149.501 168.661 149.321 168.487C149.141 168.313 149.03 168.133 148.988 167.947L149.222 167.821V170.98H148.286ZM150.626 168.226C150.902 168.226 151.148 168.157 151.364 168.019C151.58 167.881 151.751 167.692 151.877 167.452C152.003 167.212 152.066 166.939 152.066 166.633C152.066 166.327 152.003 166.057 151.877 165.823C151.757 165.583 151.589 165.394 151.373 165.256C151.157 165.118 150.908 165.049 150.626 165.049C150.344 165.049 150.095 165.118 149.879 165.256C149.663 165.388 149.492 165.574 149.366 165.814C149.24 166.054 149.177 166.327 149.177 166.633C149.177 166.939 149.24 167.212 149.366 167.452C149.492 167.692 149.663 167.881 149.879 168.019C150.095 168.157 150.344 168.226 150.626 168.226ZM156.087 169.09C155.625 169.09 155.211 168.985 154.845 168.775C154.485 168.559 154.2 168.268 153.99 167.902C153.78 167.53 153.675 167.107 153.675 166.633C153.675 166.159 153.78 165.739 153.99 165.373C154.2 165.001 154.485 164.71 154.845 164.5C155.211 164.284 155.625 164.176 156.087 164.176C156.543 164.176 156.951 164.284 157.311 164.5C157.677 164.71 157.965 165.001 158.175 165.373C158.385 165.739 158.49 166.159 158.49 166.633C158.49 167.107 158.385 167.53 158.175 167.902C157.965 168.268 157.677 168.559 157.311 168.775C156.951 168.985 156.543 169.09 156.087 169.09ZM156.087 168.244C156.369 168.244 156.621 168.175 156.843 168.037C157.065 167.893 157.239 167.701 157.365 167.461C157.491 167.215 157.551 166.939 157.545 166.633C157.551 166.321 157.491 166.045 157.365 165.805C157.239 165.559 157.065 165.367 156.843 165.229C156.621 165.091 156.369 165.022 156.087 165.022C155.805 165.022 155.55 165.094 155.322 165.238C155.1 165.376 154.926 165.568 154.8 165.814C154.674 166.054 154.614 166.327 154.62 166.633C154.614 166.939 154.674 167.215 154.8 167.461C154.926 167.701 155.1 167.893 155.322 168.037C155.55 168.175 155.805 168.244 156.087 168.244ZM159.501 169V164.275H160.437V165.76L160.347 165.4C160.413 165.172 160.524 164.965 160.68 164.779C160.842 164.593 161.025 164.446 161.229 164.338C161.439 164.23 161.655 164.176 161.877 164.176C161.979 164.176 162.075 164.185 162.165 164.203C162.261 164.221 162.336 164.242 162.39 164.266L162.147 165.274C162.075 165.244 161.994 165.22 161.904 165.202C161.82 165.178 161.736 165.166 161.652 165.166C161.49 165.166 161.334 165.199 161.184 165.265C161.04 165.325 160.911 165.412 160.797 165.526C160.689 165.634 160.602 165.763 160.536 165.913C160.47 166.057 160.437 166.216 160.437 166.39V169H159.501ZM163.891 169V163.069H164.818V169H163.891ZM162.91 165.175V164.275H165.916V165.175H162.91ZM167.045 169V163.744C167.045 163.474 167.105 163.234 167.225 163.024C167.345 162.814 167.51 162.649 167.72 162.529C167.93 162.409 168.173 162.349 168.449 162.349C168.641 162.349 168.821 162.385 168.989 162.457C169.157 162.529 169.292 162.625 169.394 162.745L169.079 163.456C169.001 163.384 168.914 163.327 168.818 163.285C168.728 163.237 168.641 163.213 168.557 163.213C168.431 163.213 168.323 163.234 168.233 163.276C168.149 163.312 168.086 163.372 168.044 163.456C168.002 163.534 167.981 163.63 167.981 163.744V169H167.513C167.435 169 167.357 169 167.279 169C167.201 169 167.123 169 167.045 169ZM166.289 165.211V164.356H169.097V165.211H166.289ZM172.013 169.09C171.551 169.09 171.137 168.985 170.771 168.775C170.411 168.559 170.126 168.268 169.916 167.902C169.706 167.53 169.601 167.107 169.601 166.633C169.601 166.159 169.706 165.739 169.916 165.373C170.126 165.001 170.411 164.71 170.771 164.5C171.137 164.284 171.551 164.176 172.013 164.176C172.469 164.176 172.877 164.284 173.237 164.5C173.603 164.71 173.891 165.001 174.101 165.373C174.311 165.739 174.416 166.159 174.416 166.633C174.416 167.107 174.311 167.53 174.101 167.902C173.891 168.268 173.603 168.559 173.237 168.775C172.877 168.985 172.469 169.09 172.013 169.09ZM172.013 168.244C172.295 168.244 172.547 168.175 172.769 168.037C172.991 167.893 173.165 167.701 173.291 167.461C173.417 167.215 173.477 166.939 173.471 166.633C173.477 166.321 173.417 166.045 173.291 165.805C173.165 165.559 172.991 165.367 172.769 165.229C172.547 165.091 172.295 165.022 172.013 165.022C171.731 165.022 171.476 165.094 171.248 165.238C171.026 165.376 170.852 165.568 170.726 165.814C170.6 166.054 170.54 166.327 170.546 166.633C170.54 166.939 170.6 167.215 170.726 167.461C170.852 167.701 171.026 167.893 171.248 168.037C171.476 168.175 171.731 168.244 172.013 168.244ZM175.444 169V162.34H176.371V169H175.444ZM177.838 169V164.275H178.765V169H177.838ZM178.288 163.231C178.09 163.231 177.937 163.18 177.829 163.078C177.721 162.976 177.667 162.832 177.667 162.646C177.667 162.472 177.721 162.331 177.829 162.223C177.943 162.115 178.096 162.061 178.288 162.061C178.486 162.061 178.639 162.112 178.747 162.214C178.855 162.316 178.909 162.46 178.909 162.646C178.909 162.82 178.852 162.961 178.738 163.069C178.63 163.177 178.48 163.231 178.288 163.231ZM182.314 169.09C181.852 169.09 181.438 168.985 181.072 168.775C180.712 168.559 180.427 168.268 180.217 167.902C180.007 167.53 179.902 167.107 179.902 166.633C179.902 166.159 180.007 165.739 180.217 165.373C180.427 165.001 180.712 164.71 181.072 164.5C181.438 164.284 181.852 164.176 182.314 164.176C182.77 164.176 183.178 164.284 183.538 164.5C183.904 164.71 184.192 165.001 184.402 165.373C184.612 165.739 184.717 166.159 184.717 166.633C184.717 167.107 184.612 167.53 184.402 167.902C184.192 168.268 183.904 168.559 183.538 168.775C183.178 168.985 182.77 169.09 182.314 169.09ZM182.314 168.244C182.596 168.244 182.848 168.175 183.07 168.037C183.292 167.893 183.466 167.701 183.592 167.461C183.718 167.215 183.778 166.939 183.772 166.633C183.778 166.321 183.718 166.045 183.592 165.805C183.466 165.559 183.292 165.367 183.07 165.229C182.848 165.091 182.596 165.022 182.314 165.022C182.032 165.022 181.777 165.094 181.549 165.238C181.327 165.376 181.153 165.568 181.027 165.814C180.901 166.054 180.841 166.327 180.847 166.633C180.841 166.939 180.901 167.215 181.027 167.461C181.153 167.701 181.327 167.893 181.549 168.037C181.777 168.175 182.032 168.244 182.314 168.244ZM188.835 169V163.069H189.762V169H188.835ZM187.854 165.175V164.275H190.86V165.175H187.854ZM192.496 171.07L193.45 168.865L193.459 169.603L191.101 164.275H192.181L193.657 167.749C193.687 167.809 193.723 167.902 193.765 168.028C193.807 168.148 193.843 168.268 193.873 168.388L193.639 168.442C193.687 168.316 193.732 168.19 193.774 168.064C193.822 167.938 193.867 167.812 193.909 167.686L195.142 164.275H196.24L194.296 169L193.495 171.07H192.496ZM196.933 170.98V164.275H197.869V165.355L197.725 165.274C197.761 165.094 197.863 164.923 198.031 164.761C198.199 164.593 198.403 164.458 198.643 164.356C198.889 164.248 199.141 164.194 199.399 164.194C199.825 164.194 200.203 164.299 200.533 164.509C200.863 164.719 201.124 165.007 201.316 165.373C201.508 165.739 201.604 166.159 201.604 166.633C201.604 167.101 201.508 167.521 201.316 167.893C201.13 168.259 200.872 168.55 200.542 168.766C200.212 168.976 199.84 169.081 199.426 169.081C199.15 169.081 198.883 169.027 198.625 168.919C198.367 168.805 198.148 168.661 197.968 168.487C197.788 168.313 197.677 168.133 197.635 167.947L197.869 167.821V170.98H196.933ZM199.273 168.226C199.549 168.226 199.795 168.157 200.011 168.019C200.227 167.881 200.398 167.692 200.524 167.452C200.65 167.212 200.713 166.939 200.713 166.633C200.713 166.327 200.65 166.057 200.524 165.823C200.404 165.583 200.236 165.394 200.02 165.256C199.804 165.118 199.555 165.049 199.273 165.049C198.991 165.049 198.742 165.118 198.526 165.256C198.31 165.388 198.139 165.574 198.013 165.814C197.887 166.054 197.824 166.327 197.824 166.633C197.824 166.939 197.887 167.212 198.013 167.452C198.139 167.692 198.31 167.881 198.526 168.019C198.742 168.157 198.991 168.226 199.273 168.226ZM204.816 169.09C204.33 169.09 203.898 168.988 203.52 168.784C203.148 168.574 202.854 168.289 202.638 167.929C202.428 167.569 202.323 167.155 202.323 166.687C202.323 166.315 202.383 165.976 202.503 165.67C202.623 165.364 202.788 165.1 202.998 164.878C203.214 164.65 203.469 164.476 203.763 164.356C204.063 164.23 204.387 164.167 204.735 164.167C205.041 164.167 205.326 164.227 205.59 164.347C205.854 164.461 206.082 164.62 206.274 164.824C206.472 165.028 206.622 165.271 206.724 165.553C206.832 165.829 206.883 166.132 206.877 166.462L206.868 166.858H203.007L202.8 166.12H206.067L205.932 166.273V166.057C205.914 165.859 205.848 165.682 205.734 165.526C205.62 165.37 205.476 165.247 205.302 165.157C205.128 165.067 204.939 165.022 204.735 165.022C204.411 165.022 204.138 165.085 203.916 165.211C203.694 165.331 203.526 165.511 203.412 165.751C203.298 165.985 203.241 166.276 203.241 166.624C203.241 166.954 203.31 167.242 203.448 167.488C203.586 167.728 203.781 167.914 204.033 168.046C204.285 168.178 204.576 168.244 204.906 168.244C205.14 168.244 205.356 168.205 205.554 168.127C205.758 168.049 205.977 167.908 206.211 167.704L206.679 168.361C206.535 168.505 206.358 168.631 206.148 168.739C205.944 168.847 205.725 168.934 205.491 169C205.263 169.06 205.038 169.09 204.816 169.09Z" fill="black"/>
<rect x="104" y="200" width="272" height="24" rx="3" fill="#8FC3FA" fill-opacity="0.39"/>
<path d="M110.167 216V207.662H113.562C114.014 207.662 114.423 207.778 114.789 208.008C115.162 208.23 115.46 208.536 115.682 208.925C115.904 209.314 116.015 209.747 116.015 210.223C116.015 210.7 115.904 211.132 115.682 211.522C115.46 211.911 115.162 212.224 114.789 212.463C114.423 212.693 114.014 212.808 113.562 212.808H111.454V216H110.167ZM111.454 211.569H113.538C113.752 211.569 113.947 211.51 114.122 211.391C114.296 211.264 114.435 211.101 114.538 210.902C114.65 210.696 114.705 210.469 114.705 210.223C114.705 209.977 114.65 209.755 114.538 209.556C114.435 209.358 114.296 209.199 114.122 209.08C113.947 208.961 113.752 208.901 113.538 208.901H111.454V211.569ZM117.406 216V209.747H118.645V211.712L118.526 211.236C118.613 210.934 118.76 210.66 118.967 210.414C119.181 210.168 119.423 209.973 119.693 209.83C119.971 209.687 120.257 209.616 120.551 209.616C120.686 209.616 120.813 209.628 120.932 209.652C121.059 209.675 121.158 209.703 121.23 209.735L120.908 211.069C120.813 211.029 120.706 210.997 120.587 210.974C120.475 210.942 120.364 210.926 120.253 210.926C120.039 210.926 119.832 210.97 119.634 211.057C119.443 211.136 119.272 211.252 119.122 211.402C118.979 211.545 118.864 211.716 118.776 211.915C118.689 212.105 118.645 212.316 118.645 212.546V216H117.406ZM124.754 216.119C124.142 216.119 123.594 215.98 123.11 215.702C122.634 215.416 122.256 215.031 121.978 214.547C121.701 214.055 121.562 213.495 121.562 212.867C121.562 212.24 121.701 211.684 121.978 211.2C122.256 210.708 122.634 210.323 123.11 210.045C123.594 209.759 124.142 209.616 124.754 209.616C125.357 209.616 125.897 209.759 126.374 210.045C126.858 210.323 127.239 210.708 127.517 211.2C127.795 211.684 127.934 212.24 127.934 212.867C127.934 213.495 127.795 214.055 127.517 214.547C127.239 215.031 126.858 215.416 126.374 215.702C125.897 215.98 125.357 216.119 124.754 216.119ZM124.754 214.999C125.127 214.999 125.46 214.908 125.754 214.726C126.048 214.535 126.278 214.281 126.445 213.963C126.612 213.638 126.691 213.272 126.683 212.867C126.691 212.455 126.612 212.089 126.445 211.772C126.278 211.446 126.048 211.192 125.754 211.009C125.46 210.827 125.127 210.735 124.754 210.735C124.38 210.735 124.043 210.831 123.741 211.021C123.447 211.204 123.217 211.458 123.05 211.784C122.884 212.101 122.804 212.463 122.812 212.867C122.804 213.272 122.884 213.638 123.05 213.963C123.217 214.281 123.447 214.535 123.741 214.726C124.043 214.908 124.38 214.999 124.754 214.999ZM129.271 218.62V209.747H130.509V211.176L130.319 211.069C130.366 210.831 130.501 210.604 130.724 210.39C130.946 210.168 131.216 209.989 131.534 209.854C131.859 209.711 132.193 209.64 132.534 209.64C133.098 209.64 133.598 209.779 134.035 210.057C134.472 210.334 134.817 210.716 135.071 211.2C135.325 211.684 135.452 212.24 135.452 212.867C135.452 213.487 135.325 214.043 135.071 214.535C134.825 215.019 134.484 215.404 134.047 215.69C133.61 215.968 133.118 216.107 132.57 216.107C132.205 216.107 131.851 216.036 131.51 215.893C131.168 215.742 130.879 215.551 130.64 215.321C130.402 215.091 130.255 214.853 130.2 214.606L130.509 214.44V218.62H129.271ZM132.367 214.976C132.733 214.976 133.058 214.884 133.344 214.702C133.63 214.519 133.856 214.269 134.023 213.951C134.19 213.634 134.273 213.272 134.273 212.867C134.273 212.463 134.19 212.105 134.023 211.796C133.864 211.478 133.642 211.228 133.356 211.045C133.07 210.863 132.741 210.771 132.367 210.771C131.994 210.771 131.665 210.863 131.379 211.045C131.093 211.22 130.867 211.466 130.7 211.784C130.533 212.101 130.45 212.463 130.45 212.867C130.45 213.272 130.533 213.634 130.7 213.951C130.867 214.269 131.093 214.519 131.379 214.702C131.665 214.884 131.994 214.976 132.367 214.976ZM139.703 216.119C139.06 216.119 138.488 215.984 137.988 215.714C137.495 215.436 137.106 215.059 136.82 214.583C136.542 214.106 136.403 213.558 136.403 212.939C136.403 212.447 136.483 211.998 136.642 211.593C136.801 211.188 137.019 210.839 137.297 210.545C137.583 210.243 137.92 210.013 138.309 209.854C138.706 209.687 139.135 209.604 139.596 209.604C140.001 209.604 140.378 209.683 140.727 209.842C141.076 209.993 141.378 210.203 141.632 210.473C141.894 210.743 142.093 211.065 142.228 211.438C142.371 211.803 142.438 212.204 142.43 212.641L142.418 213.165H137.309L137.035 212.189H141.358L141.18 212.391V212.105C141.156 211.843 141.069 211.609 140.918 211.402C140.767 211.196 140.576 211.033 140.346 210.914C140.116 210.795 139.866 210.735 139.596 210.735C139.167 210.735 138.805 210.819 138.512 210.986C138.218 211.144 137.996 211.383 137.845 211.7C137.694 212.01 137.618 212.395 137.618 212.856C137.618 213.292 137.71 213.673 137.892 213.999C138.075 214.317 138.333 214.563 138.667 214.737C139 214.912 139.385 214.999 139.822 214.999C140.132 214.999 140.417 214.948 140.679 214.845C140.949 214.741 141.239 214.555 141.549 214.285L142.168 215.154C141.978 215.345 141.743 215.512 141.466 215.655C141.196 215.798 140.906 215.913 140.596 216C140.294 216.079 139.997 216.119 139.703 216.119ZM143.764 216V209.747H145.002V211.712L144.883 211.236C144.971 210.934 145.117 210.66 145.324 210.414C145.538 210.168 145.78 209.973 146.05 209.83C146.328 209.687 146.614 209.616 146.908 209.616C147.043 209.616 147.17 209.628 147.289 209.652C147.416 209.675 147.515 209.703 147.587 209.735L147.265 211.069C147.17 211.029 147.063 210.997 146.944 210.974C146.833 210.942 146.721 210.926 146.61 210.926C146.396 210.926 146.189 210.97 145.991 211.057C145.8 211.136 145.63 211.252 145.479 211.402C145.336 211.545 145.221 211.716 145.133 211.915C145.046 212.105 145.002 212.316 145.002 212.546V216H143.764ZM149.574 216V208.151H150.801V216H149.574ZM148.276 210.938V209.747H152.254V210.938H148.276ZM154.419 218.739L155.682 215.821L155.694 216.798L152.573 209.747H154.002L155.956 214.344C155.996 214.424 156.043 214.547 156.099 214.714C156.154 214.872 156.202 215.031 156.242 215.19L155.932 215.262C155.996 215.095 156.055 214.928 156.111 214.761C156.174 214.595 156.234 214.428 156.289 214.261L157.921 209.747H159.374L156.802 216L155.741 218.739H154.419Z" fill="black"/>
<path d="M113.407 243.071C112.764 243.071 112.188 242.933 111.68 242.655C111.172 242.369 110.771 241.98 110.477 241.487C110.191 240.987 110.048 240.423 110.048 239.796V234.651H111.335V239.689C111.335 240.094 111.43 240.459 111.62 240.785C111.811 241.102 112.061 241.356 112.371 241.547C112.688 241.737 113.034 241.833 113.407 241.833C113.804 241.833 114.161 241.737 114.479 241.547C114.804 241.356 115.063 241.102 115.253 240.785C115.444 240.459 115.539 240.094 115.539 239.689V234.651H116.766V239.796C116.766 240.423 116.619 240.987 116.325 241.487C116.039 241.98 115.642 242.369 115.134 242.655C114.626 242.933 114.05 243.071 113.407 243.071ZM118.674 243V236.747H119.901V238.033L119.687 238.176C119.766 237.898 119.921 237.644 120.151 237.414C120.381 237.176 120.655 236.985 120.973 236.842C121.291 236.691 121.616 236.616 121.95 236.616C122.426 236.616 122.823 236.711 123.141 236.902C123.458 237.084 123.697 237.366 123.855 237.747C124.014 238.129 124.094 238.609 124.094 239.189V243H122.867V239.272C122.867 238.915 122.819 238.621 122.724 238.391C122.629 238.152 122.482 237.982 122.283 237.878C122.085 237.767 121.839 237.72 121.545 237.735C121.307 237.735 121.088 237.775 120.89 237.855C120.691 237.926 120.516 238.029 120.366 238.164C120.223 238.299 120.108 238.458 120.02 238.641C119.941 238.815 119.901 239.006 119.901 239.212V243H119.294C119.19 243 119.087 243 118.984 243C118.881 243 118.778 243 118.674 243ZM125.96 243V236.747H127.187V243H125.96ZM126.556 235.365C126.294 235.365 126.091 235.298 125.948 235.163C125.806 235.028 125.734 234.837 125.734 234.591C125.734 234.361 125.806 234.174 125.948 234.031C126.099 233.888 126.302 233.817 126.556 233.817C126.818 233.817 127.02 233.884 127.163 234.019C127.306 234.154 127.378 234.345 127.378 234.591C127.378 234.821 127.302 235.008 127.151 235.151C127.009 235.294 126.81 235.365 126.556 235.365ZM129.847 243V235.151H131.074V243H129.847ZM128.549 237.938V236.747H132.527V237.938H128.549Z" fill="black"/>
<rect x="98.15" y="151.15" width="289.7" height="28.7" rx="4.85" stroke="black" stroke-opacity="0.4" stroke-width="0.3"/>
<path d="M365 164L370.5 169.5L376 164" stroke="#999999" stroke-linecap="round"/>
<rect x="83" y="286" width="154" height="62" rx="9" fill="white"/>
<rect x="244" y="286" width="154" height="62" rx="9" fill="white"/>
<path d="M93.98 306V299H98.39V300.04H95.06V304.96H98.39V306H93.98ZM94.47 302.93V301.89H97.84V302.93H94.47ZM101.436 306L99.2161 300.75H100.326L101.926 304.68L101.736 304.77L103.446 300.75H104.506L102.176 306H101.436ZM107.752 306.1C107.212 306.1 106.732 305.987 106.312 305.76C105.899 305.527 105.572 305.21 105.332 304.81C105.099 304.41 104.982 303.95 104.982 303.43C104.982 303.017 105.049 302.64 105.182 302.3C105.315 301.96 105.499 301.667 105.732 301.42C105.972 301.167 106.255 300.973 106.582 300.84C106.915 300.7 107.275 300.63 107.662 300.63C108.002 300.63 108.319 300.697 108.612 300.83C108.905 300.957 109.159 301.133 109.372 301.36C109.592 301.587 109.759 301.857 109.872 302.17C109.992 302.477 110.049 302.813 110.042 303.18L110.032 303.62H105.742L105.512 302.8H109.142L108.992 302.97V302.73C108.972 302.51 108.899 302.313 108.772 302.14C108.645 301.967 108.485 301.83 108.292 301.73C108.099 301.63 107.889 301.58 107.662 301.58C107.302 301.58 106.999 301.65 106.752 301.79C106.505 301.923 106.319 302.123 106.192 302.39C106.065 302.65 106.002 302.973 106.002 303.36C106.002 303.727 106.079 304.047 106.232 304.32C106.385 304.587 106.602 304.793 106.882 304.94C107.162 305.087 107.485 305.16 107.852 305.16C108.112 305.16 108.352 305.117 108.572 305.03C108.799 304.943 109.042 304.787 109.302 304.56L109.822 305.29C109.662 305.45 109.465 305.59 109.232 305.71C109.005 305.83 108.762 305.927 108.502 306C108.249 306.067 107.999 306.1 107.752 306.1ZM111.161 306V300.75H112.191V301.83L112.011 301.95C112.078 301.717 112.208 301.503 112.401 301.31C112.595 301.11 112.825 300.95 113.091 300.83C113.358 300.703 113.631 300.64 113.911 300.64C114.311 300.64 114.645 300.72 114.911 300.88C115.178 301.033 115.378 301.27 115.511 301.59C115.645 301.91 115.711 302.313 115.711 302.8V306H114.681V302.87C114.681 302.57 114.641 302.323 114.561 302.13C114.481 301.93 114.358 301.787 114.191 301.7C114.025 301.607 113.818 301.567 113.571 301.58C113.371 301.58 113.188 301.613 113.021 301.68C112.855 301.74 112.708 301.827 112.581 301.94C112.461 302.053 112.365 302.187 112.291 302.34C112.225 302.487 112.191 302.647 112.191 302.82V306H111.681C111.595 306 111.508 306 111.421 306C111.335 306 111.248 306 111.161 306ZM117.759 306V299.41H118.789V306H117.759ZM116.669 301.75V300.75H120.009V301.75H116.669ZM124.009 306V299H126.749C127.249 299 127.699 299.083 128.099 299.25C128.506 299.417 128.853 299.657 129.139 299.97C129.426 300.283 129.646 300.653 129.799 301.08C129.953 301.507 130.029 301.98 130.029 302.5C130.029 303.02 129.953 303.497 129.799 303.93C129.646 304.357 129.426 304.727 129.139 305.04C128.859 305.347 128.516 305.583 128.109 305.75C127.703 305.917 127.249 306 126.749 306H124.009ZM125.089 305.07L125.059 304.96H126.699C127.053 304.96 127.366 304.903 127.639 304.79C127.919 304.677 128.153 304.517 128.339 304.31C128.533 304.097 128.679 303.837 128.779 303.53C128.879 303.223 128.929 302.88 128.929 302.5C128.929 302.12 128.879 301.78 128.779 301.48C128.679 301.173 128.533 300.913 128.339 300.7C128.146 300.487 127.913 300.323 127.639 300.21C127.366 300.097 127.053 300.04 126.699 300.04H125.029L125.089 299.95V305.07ZM133.25 306.1C132.816 306.1 132.42 305.98 132.06 305.74C131.706 305.5 131.423 305.173 131.21 304.76C130.996 304.347 130.89 303.88 130.89 303.36C130.89 302.833 130.996 302.367 131.21 301.96C131.43 301.547 131.723 301.223 132.09 300.99C132.463 300.757 132.88 300.64 133.34 300.64C133.613 300.64 133.863 300.68 134.09 300.76C134.316 300.84 134.513 300.953 134.68 301.1C134.853 301.24 134.993 301.403 135.1 301.59C135.213 301.777 135.283 301.977 135.31 302.19L135.08 302.11V300.75H136.12V306H135.08V304.75L135.32 304.68C135.28 304.86 135.196 305.037 135.07 305.21C134.95 305.377 134.793 305.527 134.6 305.66C134.413 305.793 134.203 305.9 133.97 305.98C133.743 306.06 133.503 306.1 133.25 306.1ZM133.52 305.15C133.833 305.15 134.11 305.073 134.35 304.92C134.59 304.767 134.776 304.557 134.91 304.29C135.05 304.017 135.12 303.707 135.12 303.36C135.12 303.02 135.05 302.717 134.91 302.45C134.776 302.183 134.59 301.973 134.35 301.82C134.11 301.667 133.833 301.59 133.52 301.59C133.213 301.59 132.94 301.667 132.7 301.82C132.466 301.973 132.28 302.183 132.14 302.45C132.006 302.717 131.94 303.02 131.94 303.36C131.94 303.707 132.006 304.017 132.14 304.29C132.28 304.557 132.466 304.767 132.7 304.92C132.94 305.073 133.213 305.15 133.52 305.15ZM138.208 306V299.41H139.238V306H138.208ZM137.118 301.75V300.75H140.458V301.75H137.118ZM143.797 306.1C143.257 306.1 142.777 305.987 142.357 305.76C141.944 305.527 141.617 305.21 141.377 304.81C141.144 304.41 141.027 303.95 141.027 303.43C141.027 303.017 141.094 302.64 141.227 302.3C141.36 301.96 141.544 301.667 141.777 301.42C142.017 301.167 142.3 300.973 142.627 300.84C142.96 300.7 143.32 300.63 143.707 300.63C144.047 300.63 144.364 300.697 144.657 300.83C144.95 300.957 145.204 301.133 145.417 301.36C145.637 301.587 145.804 301.857 145.917 302.17C146.037 302.477 146.094 302.813 146.087 303.18L146.077 303.62H141.787L141.557 302.8H145.187L145.037 302.97V302.73C145.017 302.51 144.944 302.313 144.817 302.14C144.69 301.967 144.53 301.83 144.337 301.73C144.144 301.63 143.934 301.58 143.707 301.58C143.347 301.58 143.044 301.65 142.797 301.79C142.55 301.923 142.364 302.123 142.237 302.39C142.11 302.65 142.047 302.973 142.047 303.36C142.047 303.727 142.124 304.047 142.277 304.32C142.43 304.587 142.647 304.793 142.927 304.94C143.207 305.087 143.53 305.16 143.897 305.16C144.157 305.16 144.397 305.117 144.617 305.03C144.844 304.943 145.087 304.787 145.347 304.56L145.867 305.29C145.707 305.45 145.51 305.59 145.277 305.71C145.05 305.83 144.807 305.927 144.547 306C144.294 306.067 144.044 306.1 143.797 306.1Z" fill="#3B3B3B"/>
<path d="M254.98 306V299H256.04L258.59 303.15L258.08 303.14L260.66 299H261.66V306H260.58V303.13C260.58 302.53 260.593 301.99 260.62 301.51C260.653 301.03 260.707 300.553 260.78 300.08L260.92 300.45L258.63 303.99H257.97L255.75 300.49L255.86 300.08C255.933 300.527 255.983 300.987 256.01 301.46C256.043 301.927 256.06 302.483 256.06 303.13V306H254.98ZM265.383 306.1C264.949 306.1 264.553 305.98 264.193 305.74C263.839 305.5 263.556 305.173 263.343 304.76C263.129 304.347 263.023 303.88 263.023 303.36C263.023 302.833 263.129 302.367 263.343 301.96C263.563 301.547 263.856 301.223 264.223 300.99C264.596 300.757 265.013 300.64 265.473 300.64C265.746 300.64 265.996 300.68 266.223 300.76C266.449 300.84 266.646 300.953 266.813 301.1C266.986 301.24 267.126 301.403 267.233 301.59C267.346 301.777 267.416 301.977 267.443 302.19L267.213 302.11V300.75H268.253V306H267.213V304.75L267.453 304.68C267.413 304.86 267.329 305.037 267.203 305.21C267.083 305.377 266.926 305.527 266.733 305.66C266.546 305.793 266.336 305.9 266.103 305.98C265.876 306.06 265.636 306.1 265.383 306.1ZM265.653 305.15C265.966 305.15 266.243 305.073 266.483 304.92C266.723 304.767 266.909 304.557 267.043 304.29C267.183 304.017 267.253 303.707 267.253 303.36C267.253 303.02 267.183 302.717 267.043 302.45C266.909 302.183 266.723 301.973 266.483 301.82C266.243 301.667 265.966 301.59 265.653 301.59C265.346 301.59 265.073 301.667 264.833 301.82C264.599 301.973 264.413 302.183 264.273 302.45C264.139 302.717 264.073 303.02 264.073 303.36C264.073 303.707 264.139 304.017 264.273 304.29C264.413 304.557 264.599 304.767 264.833 304.92C265.073 305.073 265.346 305.15 265.653 305.15ZM273.181 306L271.481 303.79L271.331 303.6L269.121 300.75H270.421L272.091 302.93L272.261 303.15L274.441 306H273.181ZM269.131 306L271.201 303.3L271.811 304.03L270.351 306H269.131ZM272.321 303.46L271.751 302.74L273.041 300.75H274.261L272.321 303.46ZM277.639 306L280.349 299H281.449L284.139 306H282.989L281.389 301.78C281.369 301.733 281.329 301.62 281.269 301.44C281.215 301.26 281.152 301.06 281.079 300.84C281.005 300.62 280.939 300.42 280.879 300.24C280.819 300.053 280.779 299.933 280.759 299.88L280.989 299.87C280.949 299.983 280.899 300.127 280.839 300.3C280.785 300.473 280.725 300.657 280.659 300.85C280.599 301.043 280.539 301.227 280.479 301.4C280.419 301.567 280.369 301.707 280.329 301.82L278.739 306H277.639ZM278.839 304.26L279.239 303.22H282.419L282.879 304.26H278.839ZM285.712 306V299.41H286.742V306H285.712ZM284.622 301.75V300.75H287.962V301.75H284.622ZM289.55 306V299.41H290.58V306H289.55ZM288.46 301.75V300.75H291.8V301.75H288.46ZM295.139 306.1C294.599 306.1 294.119 305.987 293.699 305.76C293.285 305.527 292.959 305.21 292.719 304.81C292.485 304.41 292.369 303.95 292.369 303.43C292.369 303.017 292.435 302.64 292.569 302.3C292.702 301.96 292.885 301.667 293.119 301.42C293.359 301.167 293.642 300.973 293.969 300.84C294.302 300.7 294.662 300.63 295.049 300.63C295.389 300.63 295.705 300.697 295.999 300.83C296.292 300.957 296.545 301.133 296.759 301.36C296.979 301.587 297.145 301.857 297.259 302.17C297.379 302.477 297.435 302.813 297.429 303.18L297.419 303.62H293.129L292.899 302.8H296.529L296.379 302.97V302.73C296.359 302.51 296.285 302.313 296.159 302.14C296.032 301.967 295.872 301.83 295.679 301.73C295.485 301.63 295.275 301.58 295.049 301.58C294.689 301.58 294.385 301.65 294.139 301.79C293.892 301.923 293.705 302.123 293.579 302.39C293.452 302.65 293.389 302.973 293.389 303.36C293.389 303.727 293.465 304.047 293.619 304.32C293.772 304.587 293.989 304.793 294.269 304.94C294.549 305.087 294.872 305.16 295.239 305.16C295.499 305.16 295.739 305.117 295.959 305.03C296.185 304.943 296.429 304.787 296.689 304.56L297.209 305.29C297.049 305.45 296.852 305.59 296.619 305.71C296.392 305.83 296.149 305.927 295.889 306C295.635 306.067 295.385 306.1 295.139 306.1ZM298.548 306V300.75H299.578V301.83L299.398 301.95C299.465 301.717 299.595 301.503 299.788 301.31C299.981 301.11 300.211 300.95 300.478 300.83C300.745 300.703 301.018 300.64 301.298 300.64C301.698 300.64 302.031 300.72 302.298 300.88C302.565 301.033 302.765 301.27 302.898 301.59C303.031 301.91 303.098 302.313 303.098 302.8V306H302.068V302.87C302.068 302.57 302.028 302.323 301.948 302.13C301.868 301.93 301.745 301.787 301.578 301.7C301.411 301.607 301.205 301.567 300.958 301.58C300.758 301.58 300.575 301.613 300.408 301.68C300.241 301.74 300.095 301.827 299.968 301.94C299.848 302.053 299.751 302.187 299.678 302.34C299.611 302.487 299.578 302.647 299.578 302.82V306H299.068C298.981 306 298.895 306 298.808 306C298.721 306 298.635 306 298.548 306ZM306.685 306.1C306.205 306.1 305.775 305.983 305.395 305.75C305.022 305.51 304.725 305.187 304.505 304.78C304.285 304.367 304.175 303.897 304.175 303.37C304.175 302.843 304.282 302.377 304.495 301.97C304.715 301.557 305.012 301.233 305.385 301C305.759 300.76 306.182 300.64 306.655 300.64C306.915 300.64 307.165 300.683 307.405 300.77C307.652 300.85 307.872 300.963 308.065 301.11C308.259 301.25 308.409 301.407 308.515 301.58C308.629 301.747 308.685 301.917 308.685 302.09L308.385 302.11V298.6H309.415V306H308.385V304.75H308.585C308.585 304.91 308.532 305.07 308.425 305.23C308.319 305.383 308.175 305.527 307.995 305.66C307.822 305.793 307.619 305.9 307.385 305.98C307.159 306.06 306.925 306.1 306.685 306.1ZM306.825 305.21C307.139 305.21 307.415 305.13 307.655 304.97C307.895 304.81 308.082 304.593 308.215 304.32C308.355 304.04 308.425 303.723 308.425 303.37C308.425 303.017 308.355 302.703 308.215 302.43C308.082 302.15 307.895 301.93 307.655 301.77C307.415 301.61 307.139 301.53 306.825 301.53C306.512 301.53 306.235 301.61 305.995 301.77C305.755 301.93 305.565 302.15 305.425 302.43C305.292 302.703 305.225 303.017 305.225 303.37C305.225 303.723 305.292 304.04 305.425 304.32C305.565 304.593 305.755 304.81 305.995 304.97C306.235 305.13 306.512 305.21 306.825 305.21ZM313.283 306.1C312.743 306.1 312.263 305.987 311.843 305.76C311.43 305.527 311.103 305.21 310.863 304.81C310.63 304.41 310.513 303.95 310.513 303.43C310.513 303.017 310.58 302.64 310.713 302.3C310.847 301.96 311.03 301.667 311.263 301.42C311.503 301.167 311.787 300.973 312.113 300.84C312.447 300.7 312.807 300.63 313.193 300.63C313.533 300.63 313.85 300.697 314.143 300.83C314.437 300.957 314.69 301.133 314.903 301.36C315.123 301.587 315.29 301.857 315.403 302.17C315.523 302.477 315.58 302.813 315.573 303.18L315.563 303.62H311.273L311.043 302.8H314.673L314.523 302.97V302.73C314.503 302.51 314.43 302.313 314.303 302.14C314.177 301.967 314.017 301.83 313.823 301.73C313.63 301.63 313.42 301.58 313.193 301.58C312.833 301.58 312.53 301.65 312.283 301.79C312.037 301.923 311.85 302.123 311.723 302.39C311.597 302.65 311.533 302.973 311.533 303.36C311.533 303.727 311.61 304.047 311.763 304.32C311.917 304.587 312.133 304.793 312.413 304.94C312.693 305.087 313.017 305.16 313.383 305.16C313.643 305.16 313.883 305.117 314.103 305.03C314.33 304.943 314.573 304.787 314.833 304.56L315.353 305.29C315.193 305.45 314.997 305.59 314.763 305.71C314.537 305.83 314.293 305.927 314.033 306C313.78 306.067 313.53 306.1 313.283 306.1ZM319.143 306.1C318.603 306.1 318.123 305.987 317.703 305.76C317.289 305.527 316.963 305.21 316.723 304.81C316.489 304.41 316.373 303.95 316.373 303.43C316.373 303.017 316.439 302.64 316.573 302.3C316.706 301.96 316.889 301.667 317.123 301.42C317.363 301.167 317.646 300.973 317.973 300.84C318.306 300.7 318.666 300.63 319.053 300.63C319.393 300.63 319.709 300.697 320.003 300.83C320.296 300.957 320.549 301.133 320.763 301.36C320.983 301.587 321.149 301.857 321.263 302.17C321.383 302.477 321.439 302.813 321.433 303.18L321.423 303.62H317.133L316.903 302.8H320.533L320.383 302.97V302.73C320.363 302.51 320.289 302.313 320.163 302.14C320.036 301.967 319.876 301.83 319.683 301.73C319.489 301.63 319.279 301.58 319.053 301.58C318.693 301.58 318.389 301.65 318.143 301.79C317.896 301.923 317.709 302.123 317.583 302.39C317.456 302.65 317.393 302.973 317.393 303.36C317.393 303.727 317.469 304.047 317.623 304.32C317.776 304.587 317.993 304.793 318.273 304.94C318.553 305.087 318.876 305.16 319.243 305.16C319.503 305.16 319.743 305.117 319.963 305.03C320.189 304.943 320.433 304.787 320.693 304.56L321.213 305.29C321.053 305.45 320.856 305.59 320.623 305.71C320.396 305.83 320.153 305.927 319.893 306C319.639 306.067 319.389 306.1 319.143 306.1ZM324.302 306.1C323.862 306.1 323.465 306.023 323.112 305.87C322.759 305.717 322.465 305.49 322.232 305.19L322.932 304.59C323.132 304.823 323.349 304.993 323.582 305.1C323.822 305.2 324.092 305.25 324.392 305.25C324.512 305.25 324.622 305.237 324.722 305.21C324.829 305.177 324.919 305.13 324.992 305.07C325.072 305.01 325.132 304.94 325.172 304.86C325.212 304.773 325.232 304.68 325.232 304.58C325.232 304.407 325.169 304.267 325.042 304.16C324.975 304.113 324.869 304.063 324.722 304.01C324.582 303.95 324.399 303.89 324.172 303.83C323.785 303.73 323.469 303.617 323.222 303.49C322.975 303.363 322.785 303.22 322.652 303.06C322.552 302.933 322.479 302.797 322.432 302.65C322.385 302.497 322.362 302.33 322.362 302.15C322.362 301.93 322.409 301.73 322.502 301.55C322.602 301.363 322.735 301.203 322.902 301.07C323.075 300.93 323.275 300.823 323.502 300.75C323.735 300.677 323.982 300.64 324.242 300.64C324.489 300.64 324.732 300.673 324.972 300.74C325.219 300.807 325.445 300.903 325.652 301.03C325.859 301.157 326.032 301.307 326.172 301.48L325.582 302.13C325.455 302.003 325.315 301.893 325.162 301.8C325.015 301.7 324.865 301.623 324.712 301.57C324.559 301.517 324.419 301.49 324.292 301.49C324.152 301.49 324.025 301.503 323.912 301.53C323.799 301.557 323.702 301.597 323.622 301.65C323.549 301.703 323.492 301.77 323.452 301.85C323.412 301.93 323.392 302.02 323.392 302.12C323.399 302.207 323.419 302.29 323.452 302.37C323.492 302.443 323.545 302.507 323.612 302.56C323.685 302.613 323.795 302.67 323.942 302.73C324.089 302.79 324.275 302.847 324.502 302.9C324.835 302.987 325.109 303.083 325.322 303.19C325.542 303.29 325.715 303.407 325.842 303.54C325.975 303.667 326.069 303.813 326.122 303.98C326.175 304.147 326.202 304.333 326.202 304.54C326.202 304.84 326.115 305.11 325.942 305.35C325.775 305.583 325.549 305.767 325.262 305.9C324.975 306.033 324.655 306.1 324.302 306.1Z" fill="#3B3B3B"/>
<rect x="104" y="325" width="98" height="7" rx="3.5" fill="#E4E6EA"/>
<rect x="265" y="325" width="111" height="7" rx="3.5" fill="#E4E6EA"/>
<rect x="93.25" y="315.25" width="133.5" height="26.5" rx="3.75" stroke="#E4E6EA" stroke-width="0.5"/>
<rect x="254.25" y="315.25" width="133.5" height="26.5" rx="3.75" stroke="#E4E6EA" stroke-width="0.5"/>
<rect x="82.5" y="358.5" width="314" height="37" rx="6.5" stroke="#C4C4C4" stroke-dasharray="6 6"/>
<path d="M98.375 383L102.44 372.5H104.09L108.125 383H106.4L104 376.67C103.97 376.6 103.91 376.43 103.82 376.16C103.74 375.89 103.645 375.59 103.535 375.26C103.425 374.93 103.325 374.63 103.235 374.36C103.145 374.08 103.085 373.9 103.055 373.82L103.4 373.805C103.34 373.975 103.265 374.19 103.175 374.45C103.095 374.71 103.005 374.985 102.905 375.275C102.815 375.565 102.725 375.84 102.635 376.1C102.545 376.35 102.47 376.56 102.41 376.73L100.025 383H98.375ZM100.175 380.39L100.775 378.83H105.545L106.235 380.39H100.175ZM112.575 383.15C111.855 383.15 111.21 382.975 110.64 382.625C110.08 382.265 109.635 381.78 109.305 381.17C108.975 380.55 108.81 379.845 108.81 379.055C108.81 378.265 108.97 377.565 109.29 376.955C109.62 376.335 110.065 375.85 110.625 375.5C111.185 375.14 111.82 374.96 112.53 374.96C112.92 374.96 113.295 375.025 113.655 375.155C114.025 375.275 114.355 375.445 114.645 375.665C114.935 375.875 115.16 376.11 115.32 376.37C115.49 376.62 115.575 376.875 115.575 377.135L115.125 377.165V371.9H116.67V383H115.125V381.125H115.425C115.425 381.365 115.345 381.605 115.185 381.845C115.025 382.075 114.81 382.29 114.54 382.49C114.28 382.69 113.975 382.85 113.625 382.97C113.285 383.09 112.935 383.15 112.575 383.15ZM112.785 381.815C113.255 381.815 113.67 381.695 114.03 381.455C114.39 381.215 114.67 380.89 114.87 380.48C115.08 380.06 115.185 379.585 115.185 379.055C115.185 378.525 115.08 378.055 114.87 377.645C114.67 377.225 114.39 376.895 114.03 376.655C113.67 376.415 113.255 376.295 112.785 376.295C112.315 376.295 111.9 376.415 111.54 376.655C111.18 376.895 110.895 377.225 110.685 377.645C110.485 378.055 110.385 378.525 110.385 379.055C110.385 379.585 110.485 380.06 110.685 380.48C110.895 380.89 111.18 381.215 111.54 381.455C111.9 381.695 112.315 381.815 112.785 381.815ZM122.082 383.15C121.362 383.15 120.717 382.975 120.147 382.625C119.587 382.265 119.142 381.78 118.812 381.17C118.482 380.55 118.317 379.845 118.317 379.055C118.317 378.265 118.477 377.565 118.797 376.955C119.127 376.335 119.572 375.85 120.132 375.5C120.692 375.14 121.327 374.96 122.037 374.96C122.427 374.96 122.802 375.025 123.162 375.155C123.532 375.275 123.862 375.445 124.152 375.665C124.442 375.875 124.667 376.11 124.827 376.37C124.997 376.62 125.082 376.875 125.082 377.135L124.632 377.165V371.9H126.177V383H124.632V381.125H124.932C124.932 381.365 124.852 381.605 124.692 381.845C124.532 382.075 124.317 382.29 124.047 382.49C123.787 382.69 123.482 382.85 123.132 382.97C122.792 383.09 122.442 383.15 122.082 383.15ZM122.292 381.815C122.762 381.815 123.177 381.695 123.537 381.455C123.897 381.215 124.177 380.89 124.377 380.48C124.587 380.06 124.692 379.585 124.692 379.055C124.692 378.525 124.587 378.055 124.377 377.645C124.177 377.225 123.897 376.895 123.537 376.655C123.177 376.415 122.762 376.295 122.292 376.295C121.822 376.295 121.407 376.415 121.047 376.655C120.687 376.895 120.402 377.225 120.192 377.645C119.992 378.055 119.892 378.525 119.892 379.055C119.892 379.585 119.992 380.06 120.192 380.48C120.402 380.89 120.687 381.215 121.047 381.455C121.407 381.695 121.822 381.815 122.292 381.815ZM132.898 383V372.5H134.518V383H132.898ZM133.618 378.53V376.97H139.033V378.53H133.618ZM133.618 374.06V372.5H139.708V374.06H133.618ZM141.786 383V375.125H143.331V383H141.786ZM142.536 373.385C142.206 373.385 141.951 373.3 141.771 373.13C141.591 372.96 141.501 372.72 141.501 372.41C141.501 372.12 141.591 371.885 141.771 371.705C141.961 371.525 142.216 371.435 142.536 371.435C142.866 371.435 143.121 371.52 143.301 371.69C143.481 371.86 143.571 372.1 143.571 372.41C143.571 372.7 143.476 372.935 143.286 373.115C143.106 373.295 142.856 373.385 142.536 373.385ZM145.736 383V371.9H147.281V383H145.736ZM152.999 383.15C152.189 383.15 151.469 382.98 150.839 382.64C150.219 382.29 149.729 381.815 149.369 381.215C149.019 380.615 148.844 379.925 148.844 379.145C148.844 378.525 148.944 377.96 149.144 377.45C149.344 376.94 149.619 376.5 149.969 376.13C150.329 375.75 150.754 375.46 151.244 375.26C151.744 375.05 152.284 374.945 152.864 374.945C153.374 374.945 153.849 375.045 154.289 375.245C154.729 375.435 155.109 375.7 155.429 376.04C155.759 376.38 156.009 376.785 156.179 377.255C156.359 377.715 156.444 378.22 156.434 378.77L156.419 379.43H149.984L149.639 378.2H155.084L154.859 378.455V378.095C154.829 377.765 154.719 377.47 154.529 377.21C154.339 376.95 154.099 376.745 153.809 376.595C153.519 376.445 153.204 376.37 152.864 376.37C152.324 376.37 151.869 376.475 151.499 376.685C151.129 376.885 150.849 377.185 150.659 377.585C150.469 377.975 150.374 378.46 150.374 379.04C150.374 379.59 150.489 380.07 150.719 380.48C150.949 380.88 151.274 381.19 151.694 381.41C152.114 381.63 152.599 381.74 153.149 381.74C153.539 381.74 153.899 381.675 154.229 381.545C154.569 381.415 154.934 381.18 155.324 380.84L156.104 381.935C155.864 382.175 155.569 382.385 155.219 382.565C154.879 382.745 154.514 382.89 154.124 383C153.744 383.1 153.369 383.15 152.999 383.15Z" fill="#C4C4C4"/>
<path d="M369.55 373.756L373.906 369.916V381.656C373.906 381.985 374.172 382.25 374.5 382.25C374.828 382.25 375.094 381.985 375.094 381.656V369.916L379.45 373.787C379.562 373.89 379.703 373.938 379.844 373.938C380.007 373.938 380.171 373.871 380.288 373.738C380.506 373.494 380.483 373.118 380.238 372.9L374.894 368.15C374.669 367.95 374.331 367.95 374.106 368.15L368.762 372.9C368.517 373.118 368.494 373.492 368.711 373.737C368.928 373.982 369.308 374.005 369.55 373.756ZM381.625 379.875H377.469C377.141 379.875 376.875 380.141 376.875 380.469C376.875 380.797 377.141 381.063 377.469 381.063H381.625C382.281 381.063 382.812 381.594 382.812 382.25V384.625C382.812 385.281 382.281 385.813 381.625 385.813H367.375C366.719 385.813 366.188 385.281 366.188 384.625V382.25C366.188 381.594 366.719 381.063 367.375 381.063H371.531C371.858 381.063 372.125 380.795 372.125 380.469C372.125 380.142 371.858 379.875 371.531 379.875H367.375C366.063 379.875 365 380.938 365 382.25V384.625C365 385.937 366.063 387 367.375 387H381.625C382.937 387 384 385.937 384 384.625V382.25C384 380.94 382.935 379.875 381.625 379.875ZM381.328 383.438C381.328 382.946 380.929 382.547 380.438 382.547C379.946 382.547 379.547 382.946 379.547 383.438C379.547 383.929 379.946 384.328 380.438 384.328C380.929 384.328 381.328 383.931 381.328 383.438Z" fill="black"/>
<rect x="83" y="411" width="315" height="41" rx="6" fill="#0900FF"/>
<path d="M206.452 437.14C205.845 437.14 205.29 437.065 204.786 436.916C204.291 436.767 203.848 436.547 203.456 436.258C203.073 435.969 202.728 435.619 202.42 435.208L203.736 433.71C204.193 434.345 204.646 434.779 205.094 435.012C205.551 435.236 206.046 435.348 206.578 435.348C206.867 435.348 207.124 435.306 207.348 435.222C207.581 435.138 207.763 435.026 207.894 434.886C208.025 434.737 208.09 434.559 208.09 434.354C208.09 434.205 208.057 434.069 207.992 433.948C207.927 433.817 207.833 433.705 207.712 433.612C207.591 433.509 207.446 433.421 207.278 433.346C207.11 433.262 206.923 433.192 206.718 433.136C206.513 433.071 206.289 433.019 206.046 432.982C205.523 432.861 205.066 432.716 204.674 432.548C204.282 432.371 203.955 432.156 203.694 431.904C203.433 431.643 203.237 431.349 203.106 431.022C202.985 430.695 202.924 430.327 202.924 429.916C202.924 429.496 203.017 429.109 203.204 428.754C203.391 428.39 203.647 428.077 203.974 427.816C204.31 427.555 204.693 427.354 205.122 427.214C205.561 427.074 206.023 427.004 206.508 427.004C207.105 427.004 207.628 427.069 208.076 427.2C208.524 427.331 208.911 427.527 209.238 427.788C209.574 428.04 209.854 428.348 210.078 428.712L208.748 430C208.552 429.739 208.337 429.519 208.104 429.342C207.88 429.165 207.633 429.034 207.362 428.95C207.101 428.857 206.83 428.81 206.55 428.81C206.242 428.81 205.976 428.852 205.752 428.936C205.528 429.011 205.351 429.127 205.22 429.286C205.099 429.435 205.038 429.613 205.038 429.818C205.038 429.986 205.08 430.135 205.164 430.266C205.248 430.397 205.369 430.513 205.528 430.616C205.687 430.709 205.878 430.793 206.102 430.868C206.326 430.943 206.573 431.008 206.844 431.064C207.357 431.167 207.819 431.302 208.23 431.47C208.641 431.638 208.991 431.843 209.28 432.086C209.579 432.319 209.807 432.599 209.966 432.926C210.125 433.243 210.204 433.603 210.204 434.004C210.204 434.667 210.045 435.231 209.728 435.698C209.411 436.165 208.972 436.524 208.412 436.776C207.852 437.019 207.199 437.14 206.452 437.14ZM214.598 437.14C213.982 437.14 213.427 436.972 212.932 436.636C212.437 436.3 212.045 435.843 211.756 435.264C211.467 434.685 211.322 434.023 211.322 433.276C211.322 432.529 211.467 431.867 211.756 431.288C212.055 430.709 212.456 430.257 212.96 429.93C213.464 429.603 214.038 429.44 214.682 429.44C215.046 429.44 215.377 429.496 215.676 429.608C215.984 429.711 216.25 429.855 216.474 430.042C216.707 430.229 216.903 430.443 217.062 430.686C217.221 430.929 217.333 431.19 217.398 431.47L216.978 431.4V429.594H218.952V437H216.95V435.222L217.398 435.18C217.323 435.441 217.202 435.689 217.034 435.922C216.866 436.155 216.656 436.365 216.404 436.552C216.161 436.729 215.886 436.874 215.578 436.986C215.27 437.089 214.943 437.14 214.598 437.14ZM215.144 435.418C215.517 435.418 215.844 435.329 216.124 435.152C216.404 434.975 216.619 434.727 216.768 434.41C216.927 434.083 217.006 433.705 217.006 433.276C217.006 432.856 216.927 432.487 216.768 432.17C216.619 431.853 216.404 431.605 216.124 431.428C215.844 431.241 215.517 431.148 215.144 431.148C214.78 431.148 214.458 431.241 214.178 431.428C213.907 431.605 213.693 431.853 213.534 432.17C213.375 432.487 213.296 432.856 213.296 433.276C213.296 433.705 213.375 434.083 213.534 434.41C213.693 434.727 213.907 434.975 214.178 435.152C214.458 435.329 214.78 435.418 215.144 435.418ZM223.105 437L219.997 429.594H222.181L224.155 435.124L223.693 435.208L225.765 429.594H227.893L224.631 437H223.105ZM232.416 437.14C231.614 437.14 230.909 436.977 230.302 436.65C229.705 436.323 229.238 435.875 228.902 435.306C228.576 434.737 228.412 434.083 228.412 433.346C228.412 432.767 228.506 432.24 228.692 431.764C228.879 431.288 229.14 430.877 229.476 430.532C229.812 430.177 230.209 429.907 230.666 429.72C231.133 429.524 231.637 429.426 232.178 429.426C232.682 429.426 233.149 429.519 233.578 429.706C234.008 429.893 234.376 430.154 234.684 430.49C235.002 430.817 235.244 431.209 235.412 431.666C235.58 432.114 235.655 432.599 235.636 433.122L235.622 433.738H229.672L229.35 432.52H233.984L233.76 432.772V432.464C233.742 432.212 233.658 431.988 233.508 431.792C233.368 431.587 233.186 431.428 232.962 431.316C232.738 431.195 232.486 431.134 232.206 431.134C231.796 431.134 231.446 431.213 231.156 431.372C230.876 431.531 230.662 431.764 230.512 432.072C230.363 432.38 230.288 432.753 230.288 433.192C230.288 433.64 230.382 434.027 230.568 434.354C230.764 434.681 231.035 434.937 231.38 435.124C231.735 435.301 232.15 435.39 232.626 435.39C232.953 435.39 233.252 435.339 233.522 435.236C233.793 435.133 234.082 434.956 234.39 434.704L235.342 436.034C235.072 436.277 234.773 436.482 234.446 436.65C234.12 436.809 233.784 436.93 233.438 437.014C233.093 437.098 232.752 437.14 232.416 437.14ZM241.678 437V427.2H248.3V429.048H243.736V435.152H248.398V437H241.678ZM242.658 432.898V431.106H247.628V432.898H242.658ZM252.404 437L249.296 429.594H251.48L253.454 435.124L252.992 435.208L255.064 429.594H257.192L253.93 437H252.404ZM261.715 437.14C260.912 437.14 260.208 436.977 259.601 436.65C259.004 436.323 258.537 435.875 258.201 435.306C257.874 434.737 257.711 434.083 257.711 433.346C257.711 432.767 257.804 432.24 257.991 431.764C258.178 431.288 258.439 430.877 258.775 430.532C259.111 430.177 259.508 429.907 259.965 429.72C260.432 429.524 260.936 429.426 261.477 429.426C261.981 429.426 262.448 429.519 262.877 429.706C263.306 429.893 263.675 430.154 263.983 430.49C264.3 430.817 264.543 431.209 264.711 431.666C264.879 432.114 264.954 432.599 264.935 433.122L264.921 433.738H258.971L258.649 432.52H263.283L263.059 432.772V432.464C263.04 432.212 262.956 431.988 262.807 431.792C262.667 431.587 262.485 431.428 262.261 431.316C262.037 431.195 261.785 431.134 261.505 431.134C261.094 431.134 260.744 431.213 260.455 431.372C260.175 431.531 259.96 431.764 259.811 432.072C259.662 432.38 259.587 432.753 259.587 433.192C259.587 433.64 259.68 434.027 259.867 434.354C260.063 434.681 260.334 434.937 260.679 435.124C261.034 435.301 261.449 435.39 261.925 435.39C262.252 435.39 262.55 435.339 262.821 435.236C263.092 435.133 263.381 434.956 263.689 434.704L264.641 436.034C264.37 436.277 264.072 436.482 263.745 436.65C263.418 436.809 263.082 436.93 262.737 437.014C262.392 437.098 262.051 437.14 261.715 437.14ZM266.404 437V429.594H268.308L268.364 431.106L267.972 431.274C268.075 430.938 268.257 430.635 268.518 430.364C268.789 430.084 269.111 429.86 269.484 429.692C269.857 429.524 270.249 429.44 270.66 429.44C271.22 429.44 271.687 429.552 272.06 429.776C272.443 430 272.727 430.341 272.914 430.798C273.11 431.246 273.208 431.801 273.208 432.464V437H271.22V432.618C271.22 432.282 271.173 432.002 271.08 431.778C270.987 431.554 270.842 431.391 270.646 431.288C270.459 431.185 270.226 431.139 269.946 431.148C269.722 431.148 269.512 431.185 269.316 431.26C269.129 431.325 268.966 431.423 268.826 431.554C268.695 431.685 268.588 431.834 268.504 432.002C268.429 432.17 268.392 432.352 268.392 432.548V437H267.412C267.197 437 267.006 437 266.838 437C266.67 437 266.525 437 266.404 437ZM275.827 437V427.718H277.815V437H275.827ZM274.441 431.372V429.594H279.341V431.372H274.441Z" fill="white"/>
</g>
<defs>
<filter id="filter0_d_185_280" x="82.9" y="179.9" width="320.2" height="94.2" filterUnits="userSpaceOnUse" color-interpolation-filters="sRGB">
<feFlood flood-opacity="0" result="BackgroundImageFix"/>
<feColorMatrix in="SourceAlpha" type="matrix" values="0 0 0 0 0 0 0 0 0 0 0 0 0 0 0 0 0 0 127 0" result="hardAlpha"/>
<feMorphology radius="5" operator="dilate" in="SourceAlpha" result="effect1_dropShadow_185_280"/>
<feOffset dy="4"/>
<feGaussianBlur stdDeviation="5.05"/>
<feComposite in2="hardAlpha" operator="out"/>
<feColorMatrix type="matrix" values="0 0 0 0 0 0 0 0 0 0 0 0 0 0 0 0 0 0 0.06 0"/>
<feBlend mode="normal" in2="BackgroundImageFix" result="effect1_dropShadow_185_280"/>
<feBlend mode="normal" in="SourceGraphic" in2="effect1_dropShadow_185_280" result="shape"/>
</filter>
<clipPath id="clip0_185_280">
<rect width="480" height="540" fill="white"/>
</clipPath>
</defs>
</svg>
