<svg  viewBox="1 0 469 605" fill="none"
  xmlns="http://www.w3.org/2000/svg">
  <g id="fm_workflow">
    <g id="fm_boxes">
      <g id="tenant_box">
        <rect id="Rectangle 2454" x="205" width="72" height="72" rx="16" fill="#3833E3" stroke="#3833E3"/>
        <g id="user_icon" class="icon">
          <path id="Vector" d="M249 45V43C249 41.9391 248.579 40.9217 247.828 40.1716C247.078 39.4214 246.061 39 245 39H237C235.939 39 234.922 39.4214 234.172 40.1716C233.421 40.9217 233 41.9391 233 43V45" stroke="white" stroke-width="2" stroke-linecap="round" stroke-linejoin="round"/>
          <path id="Vector_2" d="M241 35C243.209 35 245 33.2091 245 31C245 28.7909 243.209 27 241 27C238.791 27 237 28.7909 237 31C237 33.2091 238.791 35 241 35Z" stroke="white" stroke-width="2" stroke-linecap="round" stroke-linejoin="round"/>
        </g>
        <path id="Tenant" d="M215.843 81.6136V80.3636H224.57V81.6136H220.911V92H219.502V81.6136H215.843ZM228.957 92.1818C228.116 92.1818 227.39 91.9962 226.781 91.625C226.174 91.25 225.707 90.7273 225.377 90.0568C225.051 89.3826 224.888 88.5985 224.888 87.7045C224.888 86.8106 225.051 86.0227 225.377 85.3409C225.707 84.6553 226.165 84.1212 226.752 83.7386C227.343 83.3523 228.032 83.1591 228.82 83.1591C229.275 83.1591 229.724 83.2348 230.167 83.3864C230.61 83.5379 231.013 83.7841 231.377 84.125C231.741 84.4621 232.031 84.9091 232.246 85.4659C232.462 86.0227 232.57 86.7083 232.57 87.5227V88.0909H225.843V86.9318H231.207C231.207 86.4394 231.108 86 230.911 85.6136C230.718 85.2273 230.442 84.9223 230.082 84.6989C229.726 84.4754 229.305 84.3636 228.82 84.3636C228.286 84.3636 227.824 84.4962 227.434 84.7614C227.048 85.0227 226.75 85.3636 226.542 85.7841C226.334 86.2045 226.229 86.6553 226.229 87.1364V87.9091C226.229 88.5682 226.343 89.1269 226.57 89.5852C226.801 90.0398 227.121 90.3864 227.531 90.625C227.94 90.8598 228.415 90.9773 228.957 90.9773C229.309 90.9773 229.627 90.928 229.911 90.8295C230.199 90.7273 230.447 90.5758 230.656 90.375C230.864 90.1705 231.025 89.9167 231.138 89.6136L232.434 89.9773C232.298 90.4167 232.068 90.803 231.746 91.1364C231.424 91.4659 231.027 91.7235 230.553 91.9091C230.08 92.0909 229.548 92.1818 228.957 92.1818ZM235.951 86.75V92H234.61V83.2727H235.906V84.6364H236.019C236.224 84.1932 236.534 83.8371 236.951 83.5682C237.368 83.2955 237.906 83.1591 238.565 83.1591C239.156 83.1591 239.673 83.2803 240.116 83.5227C240.559 83.7614 240.904 84.125 241.15 84.6136C241.396 85.0985 241.519 85.7121 241.519 86.4545V92H240.178V86.5455C240.178 85.8598 240 85.3258 239.644 84.9432C239.288 84.5568 238.799 84.3636 238.178 84.3636C237.75 84.3636 237.368 84.4564 237.031 84.642C236.697 84.8277 236.434 85.0985 236.241 85.4545C236.048 85.8106 235.951 86.2424 235.951 86.75ZM246.538 92.2045C245.985 92.2045 245.483 92.1004 245.032 91.892C244.581 91.6799 244.223 91.375 243.958 90.9773C243.693 90.5758 243.56 90.0909 243.56 89.5227C243.56 89.0227 243.659 88.6174 243.856 88.3068C244.053 87.9924 244.316 87.7462 244.646 87.5682C244.975 87.3902 245.339 87.2576 245.737 87.1705C246.138 87.0795 246.541 87.0076 246.947 86.9545C247.477 86.8864 247.907 86.8352 248.237 86.8011C248.57 86.7633 248.812 86.7008 248.964 86.6136C249.119 86.5265 249.197 86.375 249.197 86.1591V86.1136C249.197 85.553 249.043 85.1174 248.737 84.8068C248.433 84.4962 247.973 84.3409 247.356 84.3409C246.716 84.3409 246.214 84.4811 245.85 84.7614C245.487 85.0417 245.231 85.3409 245.083 85.6591L243.81 85.2045C244.038 84.6742 244.341 84.2614 244.719 83.9659C245.102 83.6667 245.519 83.4583 245.969 83.3409C246.424 83.2197 246.871 83.1591 247.31 83.1591C247.591 83.1591 247.913 83.1932 248.276 83.2614C248.644 83.3258 248.998 83.4602 249.339 83.6648C249.683 83.8693 249.969 84.178 250.197 84.5909C250.424 85.0038 250.538 85.5568 250.538 86.25V92H249.197V90.8182H249.129C249.038 91.0076 248.886 91.2102 248.674 91.4261C248.462 91.642 248.18 91.8258 247.827 91.9773C247.475 92.1288 247.045 92.2045 246.538 92.2045ZM246.742 91C247.272 91 247.719 90.8958 248.083 90.6875C248.451 90.4792 248.727 90.2102 248.913 89.8807C249.102 89.5511 249.197 89.2045 249.197 88.8409V87.6136C249.14 87.6818 249.015 87.7443 248.822 87.8011C248.632 87.8542 248.413 87.9015 248.163 87.9432C247.916 87.9811 247.676 88.0152 247.441 88.0455C247.21 88.072 247.022 88.0947 246.879 88.1136C246.53 88.1591 246.204 88.233 245.901 88.3352C245.602 88.4337 245.36 88.5833 245.174 88.7841C244.992 88.9811 244.901 89.25 244.901 89.5909C244.901 90.0568 245.074 90.4091 245.418 90.6477C245.767 90.8826 246.208 91 246.742 91ZM254.326 86.75V92H252.985V83.2727H254.281V84.6364H254.394C254.599 84.1932 254.909 83.8371 255.326 83.5682C255.743 83.2955 256.281 83.1591 256.94 83.1591C257.531 83.1591 258.048 83.2803 258.491 83.5227C258.934 83.7614 259.279 84.125 259.525 84.6136C259.771 85.0985 259.894 85.7121 259.894 86.4545V92H258.553V86.5455C258.553 85.8598 258.375 85.3258 258.019 84.9432C257.663 84.5568 257.174 84.3636 256.553 84.3636C256.125 84.3636 255.743 84.4564 255.406 84.642C255.072 84.8277 254.809 85.0985 254.616 85.4545C254.423 85.8106 254.326 86.2424 254.326 86.75ZM266.14 83.2727V84.4091H261.617V83.2727H266.14ZM262.935 81.1818H264.276V89.5C264.276 89.8788 264.331 90.1629 264.441 90.3523C264.555 90.5379 264.699 90.6629 264.873 90.7273C265.051 90.7879 265.238 90.8182 265.435 90.8182C265.583 90.8182 265.704 90.8106 265.799 90.7955C265.894 90.7765 265.969 90.7614 266.026 90.75L266.299 91.9545C266.208 91.9886 266.081 92.0227 265.918 92.0568C265.755 92.0947 265.549 92.1136 265.299 92.1136C264.92 92.1136 264.549 92.0322 264.185 91.8693C263.826 91.7064 263.526 91.4583 263.288 91.125C263.053 90.7917 262.935 90.3712 262.935 89.8636V81.1818Z" fill="#3833E3"/>
      </g>
      <g id="maintenance_box">
        <rect id="Rectangle 2454_7" x="13" y="208" width="72" height="72" rx="16" fill="#64748B"/>
        <g class="icon">
          <path id="Vector_12" d="M59 234L48 245" stroke="white" stroke-width="2" stroke-linecap="round" stroke-linejoin="round"/>
          <path id="Vector_13" d="M59 234L52 254L48 245L39 241L59 234Z" stroke="white" stroke-width="2" stroke-linecap="round" stroke-linejoin="round"/>
        </g>
        <path id="Maintenance Request" d="M1.69815 288.364H3.37997L7.33452 298.023H7.47088L11.4254 288.364H13.1072V300H11.7891V291.159H11.6754L8.03906 300H6.76634L3.12997 291.159H3.01634V300H1.69815V288.364ZM18.3189 300.205C17.7659 300.205 17.264 300.1 16.8132 299.892C16.3625 299.68 16.0045 299.375 15.7393 298.977C15.4742 298.576 15.3416 298.091 15.3416 297.523C15.3416 297.023 15.4401 296.617 15.6371 296.307C15.834 295.992 16.0973 295.746 16.4268 295.568C16.7564 295.39 17.12 295.258 17.5178 295.17C17.9193 295.08 18.3227 295.008 18.728 294.955C19.2583 294.886 19.6882 294.835 20.0178 294.801C20.3511 294.763 20.5935 294.701 20.745 294.614C20.9003 294.527 20.978 294.375 20.978 294.159V294.114C20.978 293.553 20.8246 293.117 20.5178 292.807C20.2147 292.496 19.7545 292.341 19.1371 292.341C18.4969 292.341 17.995 292.481 17.6314 292.761C17.2678 293.042 17.0121 293.341 16.8643 293.659L15.5916 293.205C15.8189 292.674 16.1219 292.261 16.5007 291.966C16.8833 291.667 17.3 291.458 17.7507 291.341C18.2053 291.22 18.6522 291.159 19.0916 291.159C19.3719 291.159 19.6939 291.193 20.0575 291.261C20.425 291.326 20.7791 291.46 21.12 291.665C21.4647 291.869 21.7507 292.178 21.978 292.591C22.2053 293.004 22.3189 293.557 22.3189 294.25V300H20.978V298.818H20.9098C20.8189 299.008 20.6674 299.21 20.4553 299.426C20.2431 299.642 19.9609 299.826 19.6087 299.977C19.2564 300.129 18.8265 300.205 18.3189 300.205ZM18.5234 299C19.0537 299 19.5007 298.896 19.8643 298.688C20.2318 298.479 20.5083 298.21 20.6939 297.881C20.8833 297.551 20.978 297.205 20.978 296.841V295.614C20.9212 295.682 20.7962 295.744 20.603 295.801C20.4136 295.854 20.1939 295.902 19.9439 295.943C19.6977 295.981 19.4571 296.015 19.2223 296.045C18.9912 296.072 18.8037 296.095 18.6598 296.114C18.3113 296.159 17.9856 296.233 17.6825 296.335C17.3833 296.434 17.1409 296.583 16.9553 296.784C16.7734 296.981 16.6825 297.25 16.6825 297.591C16.6825 298.057 16.8549 298.409 17.1996 298.648C17.5481 298.883 17.9893 299 18.5234 299ZM24.7663 300V291.273H26.1072V300H24.7663ZM25.4482 289.818C25.1868 289.818 24.9614 289.729 24.772 289.551C24.5864 289.373 24.4936 289.159 24.4936 288.909C24.4936 288.659 24.5864 288.445 24.772 288.267C24.9614 288.089 25.1868 288 25.4482 288C25.7095 288 25.933 288.089 26.1186 288.267C26.308 288.445 26.4027 288.659 26.4027 288.909C26.4027 289.159 26.308 289.373 26.1186 289.551C25.933 289.729 25.7095 289.818 25.4482 289.818ZM29.9041 294.75V300H28.5632V291.273H29.8587V292.636H29.9723C30.1768 292.193 30.4875 291.837 30.9041 291.568C31.3208 291.295 31.8587 291.159 32.5178 291.159C33.1087 291.159 33.6257 291.28 34.0689 291.523C34.5121 291.761 34.8568 292.125 35.103 292.614C35.3492 293.098 35.4723 293.712 35.4723 294.455V300H34.1314V294.545C34.1314 293.86 33.9534 293.326 33.5973 292.943C33.2412 292.557 32.7526 292.364 32.1314 292.364C31.7034 292.364 31.3208 292.456 30.9837 292.642C30.6503 292.828 30.3871 293.098 30.1939 293.455C30.0007 293.811 29.9041 294.242 29.9041 294.75ZM41.718 291.273V292.409H37.1953V291.273H41.718ZM38.5135 289.182H39.8544V297.5C39.8544 297.879 39.9093 298.163 40.0192 298.352C40.1328 298.538 40.2768 298.663 40.451 298.727C40.629 298.788 40.8165 298.818 41.0135 298.818C41.1612 298.818 41.2824 298.811 41.3771 298.795C41.4718 298.777 41.5476 298.761 41.6044 298.75L41.8771 299.955C41.7862 299.989 41.6593 300.023 41.4964 300.057C41.3336 300.095 41.1271 300.114 40.8771 300.114C40.4983 300.114 40.1271 300.032 39.7635 299.869C39.4036 299.706 39.1044 299.458 38.8658 299.125C38.6309 298.792 38.5135 298.371 38.5135 297.864V289.182ZM47.3004 300.182C46.4595 300.182 45.7341 299.996 45.1243 299.625C44.5182 299.25 44.0504 298.727 43.7209 298.057C43.3951 297.383 43.2322 296.598 43.2322 295.705C43.2322 294.811 43.3951 294.023 43.7209 293.341C44.0504 292.655 44.5088 292.121 45.0959 291.739C45.6868 291.352 46.3762 291.159 47.1641 291.159C47.6186 291.159 48.0675 291.235 48.5107 291.386C48.9538 291.538 49.3572 291.784 49.7209 292.125C50.0845 292.462 50.3743 292.909 50.5902 293.466C50.8061 294.023 50.9141 294.708 50.9141 295.523V296.091H44.1868V294.932H49.5504C49.5504 294.439 49.4519 294 49.255 293.614C49.0618 293.227 48.7853 292.922 48.4254 292.699C48.0694 292.475 47.6489 292.364 47.1641 292.364C46.63 292.364 46.1679 292.496 45.7777 292.761C45.3913 293.023 45.094 293.364 44.8857 293.784C44.6773 294.205 44.5732 294.655 44.5732 295.136V295.909C44.5732 296.568 44.6868 297.127 44.9141 297.585C45.1451 298.04 45.4652 298.386 45.8743 298.625C46.2834 298.86 46.7588 298.977 47.3004 298.977C47.6527 298.977 47.9709 298.928 48.255 298.83C48.5429 298.727 48.791 298.576 48.9993 298.375C49.2076 298.17 49.3686 297.917 49.4822 297.614L50.7777 297.977C50.6413 298.417 50.4122 298.803 50.0902 299.136C49.7682 299.466 49.3705 299.723 48.897 299.909C48.4235 300.091 47.8913 300.182 47.3004 300.182ZM54.2947 294.75V300H52.9538V291.273H54.2493V292.636H54.3629C54.5675 292.193 54.8781 291.837 55.2947 291.568C55.7114 291.295 56.2493 291.159 56.9084 291.159C57.4993 291.159 58.0163 291.28 58.4595 291.523C58.9027 291.761 59.2474 292.125 59.4936 292.614C59.7398 293.098 59.8629 293.712 59.8629 294.455V300H58.522V294.545C58.522 293.86 58.344 293.326 57.9879 292.943C57.6319 292.557 57.1432 292.364 56.522 292.364C56.094 292.364 55.7114 292.456 55.3743 292.642C55.041 292.828 54.7777 293.098 54.5845 293.455C54.3913 293.811 54.2947 294.242 54.2947 294.75ZM64.8814 300.205C64.3284 300.205 63.8265 300.1 63.3757 299.892C62.925 299.68 62.567 299.375 62.3018 298.977C62.0367 298.576 61.9041 298.091 61.9041 297.523C61.9041 297.023 62.0026 296.617 62.1996 296.307C62.3965 295.992 62.6598 295.746 62.9893 295.568C63.3189 295.39 63.6825 295.258 64.0803 295.17C64.4818 295.08 64.8852 295.008 65.2905 294.955C65.8208 294.886 66.2507 294.835 66.5803 294.801C66.9136 294.763 67.156 294.701 67.3075 294.614C67.4628 294.527 67.5405 294.375 67.5405 294.159V294.114C67.5405 293.553 67.3871 293.117 67.0803 292.807C66.7772 292.496 66.317 292.341 65.6996 292.341C65.0594 292.341 64.5575 292.481 64.1939 292.761C63.8303 293.042 63.5746 293.341 63.4268 293.659L62.1541 293.205C62.3814 292.674 62.6844 292.261 63.0632 291.966C63.4458 291.667 63.8625 291.458 64.3132 291.341C64.7678 291.22 65.2147 291.159 65.6541 291.159C65.9344 291.159 66.2564 291.193 66.62 291.261C66.9875 291.326 67.3416 291.46 67.6825 291.665C68.0272 291.869 68.3132 292.178 68.5405 292.591C68.7678 293.004 68.8814 293.557 68.8814 294.25V300H67.5405V298.818H67.4723C67.3814 299.008 67.2299 299.21 67.0178 299.426C66.8056 299.642 66.5234 299.826 66.1712 299.977C65.8189 300.129 65.389 300.205 64.8814 300.205ZM65.0859 299C65.6162 299 66.0632 298.896 66.4268 298.688C66.7943 298.479 67.0708 298.21 67.2564 297.881C67.4458 297.551 67.5405 297.205 67.5405 296.841V295.614C67.4837 295.682 67.3587 295.744 67.1655 295.801C66.9761 295.854 66.7564 295.902 66.5064 295.943C66.2602 295.981 66.0196 296.015 65.7848 296.045C65.5537 296.072 65.3662 296.095 65.2223 296.114C64.8738 296.159 64.5481 296.233 64.245 296.335C63.9458 296.434 63.7034 296.583 63.5178 296.784C63.3359 296.981 63.245 297.25 63.245 297.591C63.245 298.057 63.4174 298.409 63.7621 298.648C64.1106 298.883 64.5518 299 65.0859 299ZM72.6697 294.75V300H71.3288V291.273H72.6243V292.636H72.7379C72.9425 292.193 73.2531 291.837 73.6697 291.568C74.0864 291.295 74.6243 291.159 75.2834 291.159C75.8743 291.159 76.3913 291.28 76.8345 291.523C77.2777 291.761 77.6224 292.125 77.8686 292.614C78.1148 293.098 78.2379 293.712 78.2379 294.455V300H76.897V294.545C76.897 293.86 76.719 293.326 76.3629 292.943C76.0069 292.557 75.5182 292.364 74.897 292.364C74.469 292.364 74.0864 292.456 73.7493 292.642C73.416 292.828 73.1527 293.098 72.9595 293.455C72.7663 293.811 72.6697 294.242 72.6697 294.75ZM84.2337 300.182C83.4155 300.182 82.7109 299.989 82.12 299.602C81.5291 299.216 81.0746 298.684 80.7564 298.006C80.4382 297.328 80.2791 296.553 80.2791 295.682C80.2791 294.795 80.442 294.013 80.7678 293.335C81.0973 292.653 81.5556 292.121 82.1428 291.739C82.7337 291.352 83.4231 291.159 84.2109 291.159C84.8246 291.159 85.3776 291.273 85.87 291.5C86.3625 291.727 86.7659 292.045 87.0803 292.455C87.3946 292.864 87.5897 293.341 87.6655 293.886H86.3246C86.2223 293.489 85.995 293.136 85.6428 292.83C85.2943 292.519 84.8246 292.364 84.2337 292.364C83.7109 292.364 83.2526 292.5 82.8587 292.773C82.4685 293.042 82.1636 293.422 81.9439 293.915C81.728 294.403 81.62 294.977 81.62 295.636C81.62 296.311 81.7261 296.898 81.9382 297.398C82.1541 297.898 82.4571 298.286 82.8473 298.562C83.2412 298.839 83.7034 298.977 84.2337 298.977C84.5821 298.977 84.8984 298.917 85.1825 298.795C85.4666 298.674 85.7071 298.5 85.9041 298.273C86.1011 298.045 86.2412 297.773 86.3246 297.455H87.6655C87.5897 297.97 87.4022 298.434 87.103 298.847C86.8075 299.256 86.4155 299.581 85.9268 299.824C85.442 300.062 84.8776 300.182 84.2337 300.182ZM93.2848 300.182C92.4439 300.182 91.7185 299.996 91.1087 299.625C90.5026 299.25 90.0348 298.727 89.7053 298.057C89.3795 297.383 89.2166 296.598 89.2166 295.705C89.2166 294.811 89.3795 294.023 89.7053 293.341C90.0348 292.655 90.4931 292.121 91.0803 291.739C91.6712 291.352 92.3606 291.159 93.1484 291.159C93.603 291.159 94.0518 291.235 94.495 291.386C94.9382 291.538 95.3416 291.784 95.7053 292.125C96.0689 292.462 96.3587 292.909 96.5746 293.466C96.7905 294.023 96.8984 294.708 96.8984 295.523V296.091H90.1712V294.932H95.5348C95.5348 294.439 95.4363 294 95.2393 293.614C95.0462 293.227 94.7696 292.922 94.4098 292.699C94.0537 292.475 93.6333 292.364 93.1484 292.364C92.6143 292.364 92.1522 292.496 91.7621 292.761C91.3757 293.023 91.0784 293.364 90.87 293.784C90.6617 294.205 90.5575 294.655 90.5575 295.136V295.909C90.5575 296.568 90.6712 297.127 90.8984 297.585C91.1295 298.04 91.4496 298.386 91.8587 298.625C92.2678 298.86 92.7431 298.977 93.2848 298.977C93.6371 298.977 93.9553 298.928 94.2393 298.83C94.5272 298.727 94.7753 298.576 94.9837 298.375C95.192 298.17 95.353 297.917 95.4666 297.614L96.7621 297.977C96.6257 298.417 96.3965 298.803 96.0746 299.136C95.7526 299.466 95.3549 299.723 94.8814 299.909C94.4079 300.091 93.8757 300.182 93.2848 300.182ZM19.4169 319V307.364H23.3487C24.2578 307.364 25.004 307.519 25.5874 307.83C26.1707 308.136 26.6025 308.559 26.8828 309.097C27.1631 309.634 27.3033 310.246 27.3033 310.932C27.3033 311.617 27.1631 312.225 26.8828 312.756C26.6025 313.286 26.1726 313.703 25.593 314.006C25.0135 314.305 24.273 314.455 23.3714 314.455H20.1896V313.182H23.326C23.9472 313.182 24.4472 313.091 24.826 312.909C25.2086 312.727 25.4851 312.47 25.6555 312.136C25.8298 311.799 25.9169 311.398 25.9169 310.932C25.9169 310.466 25.8298 310.059 25.6555 309.71C25.4813 309.362 25.2029 309.093 24.8203 308.903C24.4377 308.71 23.9321 308.614 23.3033 308.614H20.826V319H19.4169ZM24.8942 313.773L27.7578 319H26.1214L23.3033 313.773H24.8942ZM33.0348 319.182C32.1939 319.182 31.4685 318.996 30.8587 318.625C30.2526 318.25 29.7848 317.727 29.4553 317.057C29.1295 316.383 28.9666 315.598 28.9666 314.705C28.9666 313.811 29.1295 313.023 29.4553 312.341C29.7848 311.655 30.2431 311.121 30.8303 310.739C31.4212 310.352 32.1106 310.159 32.8984 310.159C33.353 310.159 33.8018 310.235 34.245 310.386C34.6882 310.538 35.0916 310.784 35.4553 311.125C35.8189 311.462 36.1087 311.909 36.3246 312.466C36.5405 313.023 36.6484 313.708 36.6484 314.523V315.091H29.9212V313.932H35.2848C35.2848 313.439 35.1863 313 34.9893 312.614C34.7962 312.227 34.5196 311.922 34.1598 311.699C33.8037 311.475 33.3833 311.364 32.8984 311.364C32.3643 311.364 31.9022 311.496 31.5121 311.761C31.1257 312.023 30.8284 312.364 30.62 312.784C30.4117 313.205 30.3075 313.655 30.3075 314.136V314.909C30.3075 315.568 30.4212 316.127 30.6484 316.585C30.8795 317.04 31.1996 317.386 31.6087 317.625C32.0178 317.86 32.4931 317.977 33.0348 317.977C33.3871 317.977 33.7053 317.928 33.9893 317.83C34.2772 317.727 34.5253 317.576 34.7337 317.375C34.942 317.17 35.103 316.917 35.2166 316.614L36.5121 316.977C36.3757 317.417 36.1465 317.803 35.8246 318.136C35.5026 318.466 35.1049 318.723 34.6314 318.909C34.1579 319.091 33.6257 319.182 33.0348 319.182ZM44.6428 322.273V317.659H44.5291C44.4306 317.818 44.2905 318.019 44.1087 318.261C43.9268 318.5 43.6674 318.714 43.3303 318.903C42.9931 319.089 42.5443 319.182 41.9837 319.182C41.2564 319.182 40.6143 318.998 40.0575 318.631C39.5007 318.259 39.0651 317.737 38.7507 317.062C38.4363 316.384 38.2791 315.583 38.2791 314.659C38.2791 313.742 38.4363 312.947 38.7507 312.273C39.0651 311.598 39.5026 311.078 40.0632 310.71C40.6238 310.343 41.2715 310.159 42.0064 310.159C42.5746 310.159 43.0234 310.254 43.353 310.443C43.6863 310.629 43.9401 310.841 44.1143 311.08C44.2924 311.314 44.4306 311.508 44.5291 311.659H44.6882V310.273H45.9837V322.273H44.6428ZM42.1655 317.977C42.7034 317.977 43.1579 317.837 43.5291 317.557C43.9003 317.273 44.1825 316.881 44.3757 316.381C44.5689 315.877 44.6655 315.295 44.6655 314.636C44.6655 313.985 44.5708 313.415 44.3814 312.926C44.192 312.434 43.9117 312.051 43.5405 311.778C43.1693 311.502 42.7109 311.364 42.1655 311.364C41.5973 311.364 41.1238 311.509 40.745 311.801C40.37 312.089 40.0878 312.481 39.8984 312.977C39.7128 313.47 39.62 314.023 39.62 314.636C39.62 315.258 39.7147 315.822 39.9041 316.33C40.0973 316.833 40.3814 317.235 40.7564 317.534C41.1352 317.83 41.6049 317.977 42.1655 317.977ZM53.9382 315.432V310.273H55.2791V319H53.9382V317.523H53.8473C53.6428 317.966 53.3246 318.343 52.8928 318.653C52.4609 318.96 51.9155 319.114 51.2564 319.114C50.7109 319.114 50.2261 318.994 49.8018 318.756C49.3776 318.513 49.0443 318.15 48.8018 317.665C48.5594 317.176 48.4382 316.561 48.4382 315.818V310.273H49.7791V315.727C49.7791 316.364 49.9571 316.871 50.3132 317.25C50.6731 317.629 51.1314 317.818 51.6882 317.818C52.0215 317.818 52.3606 317.733 52.7053 317.562C53.0537 317.392 53.3454 317.131 53.5803 316.778C53.8189 316.426 53.9382 315.977 53.9382 315.432ZM61.3942 319.182C60.5533 319.182 59.8279 318.996 59.218 318.625C58.612 318.25 58.1442 317.727 57.8146 317.057C57.4889 316.383 57.326 315.598 57.326 314.705C57.326 313.811 57.4889 313.023 57.8146 312.341C58.1442 311.655 58.6025 311.121 59.1896 310.739C59.7805 310.352 60.4699 310.159 61.2578 310.159C61.7124 310.159 62.1612 310.235 62.6044 310.386C63.0476 310.538 63.451 310.784 63.8146 311.125C64.1783 311.462 64.468 311.909 64.6839 312.466C64.8999 313.023 65.0078 313.708 65.0078 314.523V315.091H58.2805V313.932H63.6442C63.6442 313.439 63.5457 313 63.3487 312.614C63.1555 312.227 62.879 311.922 62.5192 311.699C62.1631 311.475 61.7427 311.364 61.2578 311.364C60.7237 311.364 60.2616 311.496 59.8714 311.761C59.4851 312.023 59.1877 312.364 58.9794 312.784C58.7711 313.205 58.6669 313.655 58.6669 314.136V314.909C58.6669 315.568 58.7805 316.127 59.0078 316.585C59.2389 317.04 59.5589 317.386 59.968 317.625C60.3771 317.86 60.8525 317.977 61.3942 317.977C61.7464 317.977 62.0646 317.928 62.3487 317.83C62.6366 317.727 62.8847 317.576 63.093 317.375C63.3014 317.17 63.4624 316.917 63.576 316.614L64.8714 316.977C64.7351 317.417 64.5059 317.803 64.1839 318.136C63.862 318.466 63.4643 318.723 62.9908 318.909C62.5173 319.091 61.9851 319.182 61.3942 319.182ZM73.2294 312.227L72.0249 312.568C71.9491 312.367 71.8374 312.172 71.6896 311.983C71.5457 311.79 71.3487 311.631 71.0987 311.506C70.8487 311.381 70.5286 311.318 70.1385 311.318C69.6044 311.318 69.1593 311.441 68.8033 311.688C68.451 311.93 68.2749 312.239 68.2749 312.614C68.2749 312.947 68.3961 313.21 68.6385 313.403C68.8809 313.597 69.2597 313.758 69.7749 313.886L71.0703 314.205C71.8506 314.394 72.4321 314.684 72.8146 315.074C73.1972 315.46 73.3885 315.958 73.3885 316.568C73.3885 317.068 73.2446 317.515 72.9567 317.909C72.6726 318.303 72.2749 318.614 71.7635 318.841C71.2521 319.068 70.6574 319.182 69.9794 319.182C69.0893 319.182 68.3525 318.989 67.7692 318.602C67.1858 318.216 66.8165 317.652 66.6612 316.909L67.9339 316.591C68.0552 317.061 68.2843 317.413 68.6214 317.648C68.9624 317.883 69.4074 318 69.9567 318C70.5817 318 71.0779 317.867 71.4453 317.602C71.8165 317.333 72.0021 317.011 72.0021 316.636C72.0021 316.333 71.8961 316.08 71.6839 315.875C71.4718 315.667 71.1461 315.511 70.7067 315.409L69.2521 315.068C68.4529 314.879 67.8658 314.585 67.4908 314.188C67.1196 313.786 66.9339 313.284 66.9339 312.682C66.9339 312.189 67.0722 311.754 67.3487 311.375C67.629 310.996 68.0097 310.699 68.4908 310.483C68.9756 310.267 69.5249 310.159 70.1385 310.159C71.0021 310.159 71.6802 310.348 72.1726 310.727C72.6688 311.106 73.0211 311.606 73.2294 312.227ZM79.2024 310.273V311.409H74.6797V310.273H79.2024ZM75.9979 308.182H77.3388V316.5C77.3388 316.879 77.3937 317.163 77.5036 317.352C77.6172 317.538 77.7611 317.663 77.9354 317.727C78.1134 317.788 78.3009 317.818 78.4979 317.818C78.6456 317.818 78.7668 317.811 78.8615 317.795C78.9562 317.777 79.032 317.761 79.0888 317.75L79.3615 318.955C79.2706 318.989 79.1437 319.023 78.9808 319.057C78.8179 319.095 78.6115 319.114 78.3615 319.114C77.9827 319.114 77.6115 319.032 77.2479 318.869C76.888 318.706 76.5888 318.458 76.3501 318.125C76.1153 317.792 75.9979 317.371 75.9979 316.864V308.182Z" fill="black"/>
      </g>
      <g id="property_box">
        <rect id="Rectangle 2454_2" x="206" y="208" width="72" height="72" rx="16" fill="#F57B1F"/>
        <g id="icon / outlined / other / person / user_2" class="icon">
          <path id="Vector_3" d="M250 253V251C250 249.939 249.579 248.922 248.828 248.172C248.078 247.421 247.061 247 246 247H238C236.939 247 235.922 247.421 235.172 248.172C234.421 248.922 234 249.939 234 251V253" stroke="#F57B1F" stroke-width="2" stroke-linecap="round" stroke-linejoin="round"/>
          <path id="Vector_4" d="M242 243C244.209 243 246 241.209 246 239C246 236.791 244.209 235 242 235C239.791 235 238 236.791 238 239C238 241.209 239.791 243 242 243Z" stroke="#F57B1F" stroke-width="2" stroke-linecap="round" stroke-linejoin="round"/>
        </g>
        <path id="Property Manager" d="M211.073 300V288.364H215.005C215.918 288.364 216.664 288.528 217.244 288.858C217.827 289.184 218.259 289.625 218.539 290.182C218.819 290.739 218.96 291.36 218.96 292.045C218.96 292.731 218.819 293.354 218.539 293.915C218.263 294.475 217.835 294.922 217.255 295.256C216.675 295.585 215.933 295.75 215.028 295.75H212.21V294.5H214.982C215.607 294.5 216.109 294.392 216.488 294.176C216.867 293.96 217.141 293.669 217.312 293.301C217.486 292.93 217.573 292.511 217.573 292.045C217.573 291.58 217.486 291.163 217.312 290.795C217.141 290.428 216.865 290.14 216.482 289.932C216.1 289.72 215.592 289.614 214.96 289.614H212.482V300H211.073ZM221.048 300V291.273H222.343V292.591H222.434C222.593 292.159 222.881 291.809 223.298 291.54C223.714 291.271 224.184 291.136 224.707 291.136C224.805 291.136 224.928 291.138 225.076 291.142C225.224 291.146 225.335 291.152 225.411 291.159V292.523C225.366 292.511 225.262 292.494 225.099 292.472C224.94 292.445 224.771 292.432 224.593 292.432C224.169 292.432 223.79 292.521 223.457 292.699C223.127 292.873 222.866 293.116 222.673 293.426C222.483 293.733 222.388 294.083 222.388 294.477V300H221.048ZM230.281 300.182C229.493 300.182 228.801 299.994 228.207 299.619C227.616 299.244 227.154 298.72 226.82 298.045C226.491 297.371 226.326 296.583 226.326 295.682C226.326 294.773 226.491 293.979 226.82 293.301C227.154 292.623 227.616 292.097 228.207 291.722C228.801 291.347 229.493 291.159 230.281 291.159C231.068 291.159 231.758 291.347 232.349 291.722C232.943 292.097 233.406 292.623 233.735 293.301C234.068 293.979 234.235 294.773 234.235 295.682C234.235 296.583 234.068 297.371 233.735 298.045C233.406 298.72 232.943 299.244 232.349 299.619C231.758 299.994 231.068 300.182 230.281 300.182ZM230.281 298.977C230.879 298.977 231.371 298.824 231.758 298.517C232.144 298.21 232.43 297.807 232.616 297.307C232.801 296.807 232.894 296.265 232.894 295.682C232.894 295.098 232.801 294.555 232.616 294.051C232.43 293.547 232.144 293.14 231.758 292.83C231.371 292.519 230.879 292.364 230.281 292.364C229.682 292.364 229.19 292.519 228.803 292.83C228.417 293.14 228.131 293.547 227.945 294.051C227.76 294.555 227.667 295.098 227.667 295.682C227.667 296.265 227.76 296.807 227.945 297.307C228.131 297.807 228.417 298.21 228.803 298.517C229.19 298.824 229.682 298.977 230.281 298.977ZM236.282 303.273V291.273H237.577V292.659H237.737C237.835 292.508 237.971 292.314 238.146 292.08C238.324 291.841 238.577 291.629 238.907 291.443C239.24 291.254 239.691 291.159 240.259 291.159C240.994 291.159 241.642 291.343 242.202 291.71C242.763 292.078 243.201 292.598 243.515 293.273C243.829 293.947 243.987 294.742 243.987 295.659C243.987 296.583 243.829 297.384 243.515 298.062C243.201 298.737 242.765 299.259 242.208 299.631C241.651 299.998 241.009 300.182 240.282 300.182C239.721 300.182 239.272 300.089 238.935 299.903C238.598 299.714 238.339 299.5 238.157 299.261C237.975 299.019 237.835 298.818 237.737 298.659H237.623V303.273H236.282ZM237.6 295.636C237.6 296.295 237.697 296.877 237.89 297.381C238.083 297.881 238.365 298.273 238.737 298.557C239.108 298.837 239.562 298.977 240.1 298.977C240.661 298.977 241.129 298.83 241.504 298.534C241.882 298.235 242.166 297.833 242.356 297.33C242.549 296.822 242.646 296.258 242.646 295.636C242.646 295.023 242.551 294.47 242.362 293.977C242.176 293.481 241.894 293.089 241.515 292.801C241.14 292.509 240.668 292.364 240.1 292.364C239.555 292.364 239.096 292.502 238.725 292.778C238.354 293.051 238.074 293.434 237.884 293.926C237.695 294.415 237.6 294.985 237.6 295.636ZM249.691 300.182C248.85 300.182 248.125 299.996 247.515 299.625C246.909 299.25 246.441 298.727 246.112 298.057C245.786 297.383 245.623 296.598 245.623 295.705C245.623 294.811 245.786 294.023 246.112 293.341C246.441 292.655 246.899 292.121 247.487 291.739C248.077 291.352 248.767 291.159 249.555 291.159C250.009 291.159 250.458 291.235 250.901 291.386C251.344 291.538 251.748 291.784 252.112 292.125C252.475 292.462 252.765 292.909 252.981 293.466C253.197 294.023 253.305 294.708 253.305 295.523V296.091H246.577V294.932H251.941C251.941 294.439 251.843 294 251.646 293.614C251.452 293.227 251.176 292.922 250.816 292.699C250.46 292.475 250.04 292.364 249.555 292.364C249.021 292.364 248.558 292.496 248.168 292.761C247.782 293.023 247.485 293.364 247.276 293.784C247.068 294.205 246.964 294.655 246.964 295.136V295.909C246.964 296.568 247.077 297.127 247.305 297.585C247.536 298.04 247.856 298.386 248.265 298.625C248.674 298.86 249.149 298.977 249.691 298.977C250.043 298.977 250.362 298.928 250.646 298.83C250.933 298.727 251.182 298.576 251.39 298.375C251.598 298.17 251.759 297.917 251.873 297.614L253.168 297.977C253.032 298.417 252.803 298.803 252.481 299.136C252.159 299.466 251.761 299.723 251.288 299.909C250.814 300.091 250.282 300.182 249.691 300.182ZM255.344 300V291.273H256.64V292.591H256.731C256.89 292.159 257.178 291.809 257.594 291.54C258.011 291.271 258.481 291.136 259.004 291.136C259.102 291.136 259.225 291.138 259.373 291.142C259.521 291.146 259.632 291.152 259.708 291.159V292.523C259.663 292.511 259.558 292.494 259.396 292.472C259.237 292.445 259.068 292.432 258.89 292.432C258.466 292.432 258.087 292.521 257.754 292.699C257.424 292.873 257.163 293.116 256.969 293.426C256.78 293.733 256.685 294.083 256.685 294.477V300H255.344ZM265.64 291.273V292.409H261.117V291.273H265.64ZM262.435 289.182H263.776V297.5C263.776 297.879 263.831 298.163 263.941 298.352C264.055 298.538 264.199 298.663 264.373 298.727C264.551 298.788 264.738 298.818 264.935 298.818C265.083 298.818 265.204 298.811 265.299 298.795C265.394 298.777 265.469 298.761 265.526 298.75L265.799 299.955C265.708 299.989 265.581 300.023 265.418 300.057C265.255 300.095 265.049 300.114 264.799 300.114C264.42 300.114 264.049 300.032 263.685 299.869C263.326 299.706 263.026 299.458 262.788 299.125C262.553 298.792 262.435 298.371 262.435 297.864V289.182ZM268.521 303.273C268.293 303.273 268.091 303.254 267.913 303.216C267.735 303.182 267.612 303.148 267.543 303.114L267.884 301.932C268.21 302.015 268.498 302.045 268.748 302.023C268.998 302 269.219 301.888 269.413 301.688C269.61 301.491 269.79 301.17 269.952 300.727L270.202 300.045L266.975 291.273H268.43L270.839 298.227H270.93L273.339 291.273H274.793L271.089 301.273C270.922 301.723 270.716 302.097 270.469 302.392C270.223 302.691 269.937 302.913 269.612 303.057C269.29 303.201 268.926 303.273 268.521 303.273ZM210.589 307.364H212.271L216.225 317.023H216.362L220.316 307.364H221.998V319H220.68V310.159H220.566L216.93 319H215.657L212.021 310.159H211.907V319H210.589V307.364ZM227.21 319.205C226.656 319.205 226.155 319.1 225.704 318.892C225.253 318.68 224.895 318.375 224.63 317.977C224.365 317.576 224.232 317.091 224.232 316.523C224.232 316.023 224.331 315.617 224.528 315.307C224.725 314.992 224.988 314.746 225.317 314.568C225.647 314.39 226.011 314.258 226.408 314.17C226.81 314.08 227.213 314.008 227.619 313.955C228.149 313.886 228.579 313.835 228.908 313.801C229.242 313.763 229.484 313.701 229.636 313.614C229.791 313.527 229.869 313.375 229.869 313.159V313.114C229.869 312.553 229.715 312.117 229.408 311.807C229.105 311.496 228.645 311.341 228.028 311.341C227.388 311.341 226.886 311.481 226.522 311.761C226.158 312.042 225.903 312.341 225.755 312.659L224.482 312.205C224.71 311.674 225.013 311.261 225.391 310.966C225.774 310.667 226.191 310.458 226.641 310.341C227.096 310.22 227.543 310.159 227.982 310.159C228.263 310.159 228.585 310.193 228.948 310.261C229.316 310.326 229.67 310.46 230.011 310.665C230.355 310.869 230.641 311.178 230.869 311.591C231.096 312.004 231.21 312.557 231.21 313.25V319H229.869V317.818H229.8C229.71 318.008 229.558 318.21 229.346 318.426C229.134 318.642 228.852 318.826 228.499 318.977C228.147 319.129 227.717 319.205 227.21 319.205ZM227.414 318C227.944 318 228.391 317.896 228.755 317.688C229.122 317.479 229.399 317.21 229.585 316.881C229.774 316.551 229.869 316.205 229.869 315.841V314.614C229.812 314.682 229.687 314.744 229.494 314.801C229.304 314.854 229.085 314.902 228.835 314.943C228.588 314.981 228.348 315.015 228.113 315.045C227.882 315.072 227.694 315.095 227.55 315.114C227.202 315.159 226.876 315.233 226.573 315.335C226.274 315.434 226.031 315.583 225.846 315.784C225.664 315.981 225.573 316.25 225.573 316.591C225.573 317.057 225.746 317.409 226.09 317.648C226.439 317.883 226.88 318 227.414 318ZM234.998 313.75V319H233.657V310.273H234.952V311.636H235.066C235.271 311.193 235.581 310.837 235.998 310.568C236.415 310.295 236.952 310.159 237.612 310.159C238.202 310.159 238.719 310.28 239.163 310.523C239.606 310.761 239.951 311.125 240.197 311.614C240.443 312.098 240.566 312.712 240.566 313.455V319H239.225V313.545C239.225 312.86 239.047 312.326 238.691 311.943C238.335 311.557 237.846 311.364 237.225 311.364C236.797 311.364 236.415 311.456 236.077 311.642C235.744 311.828 235.481 312.098 235.288 312.455C235.094 312.811 234.998 313.242 234.998 313.75ZM245.585 319.205C245.031 319.205 244.53 319.1 244.079 318.892C243.628 318.68 243.27 318.375 243.005 317.977C242.74 317.576 242.607 317.091 242.607 316.523C242.607 316.023 242.706 315.617 242.903 315.307C243.1 314.992 243.363 314.746 243.692 314.568C244.022 314.39 244.386 314.258 244.783 314.17C245.185 314.08 245.588 314.008 245.994 313.955C246.524 313.886 246.954 313.835 247.283 313.801C247.617 313.763 247.859 313.701 248.011 313.614C248.166 313.527 248.244 313.375 248.244 313.159V313.114C248.244 312.553 248.09 312.117 247.783 311.807C247.48 311.496 247.02 311.341 246.403 311.341C245.763 311.341 245.261 311.481 244.897 311.761C244.533 312.042 244.278 312.341 244.13 312.659L242.857 312.205C243.085 311.674 243.388 311.261 243.766 310.966C244.149 310.667 244.566 310.458 245.016 310.341C245.471 310.22 245.918 310.159 246.357 310.159C246.638 310.159 246.96 310.193 247.323 310.261C247.691 310.326 248.045 310.46 248.386 310.665C248.73 310.869 249.016 311.178 249.244 311.591C249.471 312.004 249.585 312.557 249.585 313.25V319H248.244V317.818H248.175C248.085 318.008 247.933 318.21 247.721 318.426C247.509 318.642 247.227 318.826 246.874 318.977C246.522 319.129 246.092 319.205 245.585 319.205ZM245.789 318C246.319 318 246.766 317.896 247.13 317.688C247.497 317.479 247.774 317.21 247.96 316.881C248.149 316.551 248.244 316.205 248.244 315.841V314.614C248.187 314.682 248.062 314.744 247.869 314.801C247.679 314.854 247.46 314.902 247.21 314.943C246.963 314.981 246.723 315.015 246.488 315.045C246.257 315.072 246.069 315.095 245.925 315.114C245.577 315.159 245.251 315.233 244.948 315.335C244.649 315.434 244.406 315.583 244.221 315.784C244.039 315.981 243.948 316.25 243.948 316.591C243.948 317.057 244.121 317.409 244.465 317.648C244.814 317.883 245.255 318 245.789 318ZM255.555 322.455C254.907 322.455 254.35 322.371 253.884 322.205C253.418 322.042 253.03 321.826 252.719 321.557C252.413 321.292 252.168 321.008 251.987 320.705L253.055 319.955C253.176 320.114 253.329 320.295 253.515 320.5C253.701 320.708 253.954 320.888 254.276 321.04C254.602 321.195 255.028 321.273 255.555 321.273C256.259 321.273 256.841 321.102 257.299 320.761C257.757 320.42 257.987 319.886 257.987 319.159V317.386H257.873C257.774 317.545 257.634 317.742 257.452 317.977C257.274 318.208 257.017 318.415 256.68 318.597C256.346 318.775 255.896 318.864 255.327 318.864C254.623 318.864 253.99 318.697 253.43 318.364C252.873 318.03 252.432 317.545 252.106 316.909C251.784 316.273 251.623 315.5 251.623 314.591C251.623 313.697 251.78 312.919 252.094 312.256C252.409 311.589 252.846 311.074 253.407 310.71C253.968 310.343 254.615 310.159 255.35 310.159C255.918 310.159 256.369 310.254 256.702 310.443C257.04 310.629 257.297 310.841 257.475 311.08C257.657 311.314 257.797 311.508 257.896 311.659H258.032V310.273H259.327V319.25C259.327 320 259.157 320.61 258.816 321.08C258.479 321.553 258.024 321.9 257.452 322.119C256.884 322.343 256.252 322.455 255.555 322.455ZM255.509 317.659C256.047 317.659 256.502 317.536 256.873 317.29C257.244 317.044 257.526 316.689 257.719 316.227C257.913 315.765 258.009 315.212 258.009 314.568C258.009 313.939 257.915 313.384 257.725 312.903C257.536 312.422 257.255 312.045 256.884 311.773C256.513 311.5 256.055 311.364 255.509 311.364C254.941 311.364 254.468 311.508 254.089 311.795C253.714 312.083 253.432 312.47 253.242 312.955C253.057 313.439 252.964 313.977 252.964 314.568C252.964 315.174 253.058 315.71 253.248 316.176C253.441 316.638 253.725 317.002 254.1 317.267C254.479 317.528 254.949 317.659 255.509 317.659ZM265.441 319.182C264.6 319.182 263.875 318.996 263.265 318.625C262.659 318.25 262.191 317.727 261.862 317.057C261.536 316.383 261.373 315.598 261.373 314.705C261.373 313.811 261.536 313.023 261.862 312.341C262.191 311.655 262.649 311.121 263.237 310.739C263.827 310.352 264.517 310.159 265.305 310.159C265.759 310.159 266.208 310.235 266.651 310.386C267.094 310.538 267.498 310.784 267.862 311.125C268.225 311.462 268.515 311.909 268.731 312.466C268.947 313.023 269.055 313.708 269.055 314.523V315.091H262.327V313.932H267.691C267.691 313.439 267.593 313 267.396 312.614C267.202 312.227 266.926 311.922 266.566 311.699C266.21 311.475 265.79 311.364 265.305 311.364C264.771 311.364 264.308 311.496 263.918 311.761C263.532 312.023 263.235 312.364 263.026 312.784C262.818 313.205 262.714 313.655 262.714 314.136V314.909C262.714 315.568 262.827 316.127 263.055 316.585C263.286 317.04 263.606 317.386 264.015 317.625C264.424 317.86 264.899 317.977 265.441 317.977C265.793 317.977 266.112 317.928 266.396 317.83C266.683 317.727 266.932 317.576 267.14 317.375C267.348 317.17 267.509 316.917 267.623 316.614L268.918 316.977C268.782 317.417 268.553 317.803 268.231 318.136C267.909 318.466 267.511 318.723 267.038 318.909C266.564 319.091 266.032 319.182 265.441 319.182ZM271.094 319V310.273H272.39V311.591H272.481C272.64 311.159 272.928 310.809 273.344 310.54C273.761 310.271 274.231 310.136 274.754 310.136C274.852 310.136 274.975 310.138 275.123 310.142C275.271 310.146 275.382 310.152 275.458 310.159V311.523C275.413 311.511 275.308 311.494 275.146 311.472C274.987 311.445 274.818 311.432 274.64 311.432C274.216 311.432 273.837 311.521 273.504 311.699C273.174 311.873 272.913 312.116 272.719 312.426C272.53 312.733 272.435 313.083 272.435 313.477V319H271.094Z" fill="#F57B1F"/>
      </g>

      <g id="work_order_box">
        <rect id="Rectangle 2454_6" x="397" y="208" width="72" height="72" rx="16" fill="#64748B"/>
        <g id="icon / outlined / other / other / tool" class="icon">
          <path id="Vector_11" d="M435.699 238.3C435.516 238.487 435.414 238.738 435.414 239C435.414 239.261 435.516 239.513 435.699 239.7L437.299 241.3C437.486 241.483 437.738 241.586 437.999 241.586C438.261 241.586 438.512 241.483 438.699 241.3L442.469 237.53C442.972 238.641 443.124 239.879 442.906 241.079C442.687 242.279 442.108 243.384 441.246 244.246C440.383 245.108 439.278 245.688 438.079 245.906C436.879 246.125 435.641 245.973 434.529 245.47L427.619 252.38C427.222 252.778 426.682 253.001 426.119 253.001C425.557 253.001 425.017 252.778 424.619 252.38C424.222 251.982 423.998 251.442 423.998 250.88C423.998 250.317 424.222 249.778 424.619 249.38L431.529 242.47C431.027 241.359 430.874 240.121 431.093 238.921C431.312 237.721 431.891 236.616 432.753 235.753C433.616 234.891 434.72 234.312 435.92 234.093C437.12 233.875 438.358 234.027 439.469 234.53L435.709 238.29L435.699 238.3Z" stroke="white" stroke-width="2" stroke-linecap="round" stroke-linejoin="round"/>
        </g>
        <path id="Work Order" d="M417.234 300L414.052 288.364H415.484L417.915 297.841H418.029L420.506 288.364H422.097L424.575 297.841H424.688L427.12 288.364H428.552L425.37 300H423.915L421.347 290.727H421.256L418.688 300H417.234ZM432.859 300.182C432.071 300.182 431.379 299.994 430.785 299.619C430.194 299.244 429.732 298.72 429.398 298.045C429.069 297.371 428.904 296.583 428.904 295.682C428.904 294.773 429.069 293.979 429.398 293.301C429.732 292.623 430.194 292.097 430.785 291.722C431.379 291.347 432.071 291.159 432.859 291.159C433.647 291.159 434.336 291.347 434.927 291.722C435.522 292.097 435.984 292.623 436.313 293.301C436.647 293.979 436.813 294.773 436.813 295.682C436.813 296.583 436.647 297.371 436.313 298.045C435.984 298.72 435.522 299.244 434.927 299.619C434.336 299.994 433.647 300.182 432.859 300.182ZM432.859 298.977C433.457 298.977 433.95 298.824 434.336 298.517C434.722 298.21 435.008 297.807 435.194 297.307C435.379 296.807 435.472 296.265 435.472 295.682C435.472 295.098 435.379 294.555 435.194 294.051C435.008 293.547 434.722 293.14 434.336 292.83C433.95 292.519 433.457 292.364 432.859 292.364C432.26 292.364 431.768 292.519 431.381 292.83C430.995 293.14 430.709 293.547 430.523 294.051C430.338 294.555 430.245 295.098 430.245 295.682C430.245 296.265 430.338 296.807 430.523 297.307C430.709 297.807 430.995 298.21 431.381 298.517C431.768 298.824 432.26 298.977 432.859 298.977ZM438.86 300V291.273H440.156V292.591H440.246C440.406 292.159 440.693 291.809 441.11 291.54C441.527 291.271 441.996 291.136 442.519 291.136C442.618 291.136 442.741 291.138 442.888 291.142C443.036 291.146 443.148 291.152 443.224 291.159V292.523C443.178 292.511 443.074 292.494 442.911 292.472C442.752 292.445 442.584 292.432 442.406 292.432C441.981 292.432 441.603 292.521 441.269 292.699C440.94 292.873 440.678 293.116 440.485 293.426C440.296 293.733 440.201 294.083 440.201 294.477V300H438.86ZM446.063 296.818L446.04 295.159H446.313L450.131 291.273H451.79L447.722 295.386H447.609L446.063 296.818ZM444.813 300V288.364H446.154V300H444.813ZM450.359 300L446.95 295.682L447.904 294.75L452.063 300H450.359ZM422.688 313.182C422.688 314.409 422.467 315.47 422.023 316.364C421.58 317.258 420.972 317.947 420.2 318.432C419.427 318.917 418.544 319.159 417.552 319.159C416.559 319.159 415.677 318.917 414.904 318.432C414.131 317.947 413.523 317.258 413.08 316.364C412.637 315.47 412.415 314.409 412.415 313.182C412.415 311.955 412.637 310.894 413.08 310C413.523 309.106 414.131 308.417 414.904 307.932C415.677 307.447 416.559 307.205 417.552 307.205C418.544 307.205 419.427 307.447 420.2 307.932C420.972 308.417 421.58 309.106 422.023 310C422.467 310.894 422.688 311.955 422.688 313.182ZM421.325 313.182C421.325 312.174 421.156 311.324 420.819 310.631C420.486 309.938 420.033 309.413 419.461 309.057C418.893 308.701 418.256 308.523 417.552 308.523C416.847 308.523 416.209 308.701 415.637 309.057C415.069 309.413 414.616 309.938 414.279 310.631C413.946 311.324 413.779 312.174 413.779 313.182C413.779 314.189 413.946 315.04 414.279 315.733C414.616 316.426 415.069 316.951 415.637 317.307C416.209 317.663 416.847 317.841 417.552 317.841C418.256 317.841 418.893 317.663 419.461 317.307C420.033 316.951 420.486 316.426 420.819 315.733C421.156 315.04 421.325 314.189 421.325 313.182ZM424.876 319V310.273H426.171V311.591H426.262C426.421 311.159 426.709 310.809 427.126 310.54C427.542 310.271 428.012 310.136 428.535 310.136C428.633 310.136 428.756 310.138 428.904 310.142C429.052 310.146 429.164 310.152 429.239 310.159V311.523C429.194 311.511 429.09 311.494 428.927 311.472C428.768 311.445 428.599 311.432 428.421 311.432C427.997 311.432 427.618 311.521 427.285 311.699C426.955 311.873 426.694 312.116 426.501 312.426C426.311 312.733 426.217 313.083 426.217 313.477V319H424.876ZM433.859 319.182C433.131 319.182 432.489 318.998 431.933 318.631C431.376 318.259 430.94 317.737 430.626 317.062C430.311 316.384 430.154 315.583 430.154 314.659C430.154 313.742 430.311 312.947 430.626 312.273C430.94 311.598 431.378 311.078 431.938 310.71C432.499 310.343 433.147 310.159 433.881 310.159C434.45 310.159 434.898 310.254 435.228 310.443C435.561 310.629 435.815 310.841 435.989 311.08C436.167 311.314 436.306 311.508 436.404 311.659H436.518V307.364H437.859V319H436.563V317.659H436.404C436.306 317.818 436.165 318.019 435.984 318.261C435.802 318.5 435.542 318.714 435.205 318.903C434.868 319.089 434.419 319.182 433.859 319.182ZM434.04 317.977C434.578 317.977 435.033 317.837 435.404 317.557C435.775 317.273 436.058 316.881 436.251 316.381C436.444 315.877 436.54 315.295 436.54 314.636C436.54 313.985 436.446 313.415 436.256 312.926C436.067 312.434 435.787 312.051 435.415 311.778C435.044 311.502 434.586 311.364 434.04 311.364C433.472 311.364 432.999 311.509 432.62 311.801C432.245 312.089 431.963 312.481 431.773 312.977C431.588 313.47 431.495 314.023 431.495 314.636C431.495 315.258 431.59 315.822 431.779 316.33C431.972 316.833 432.256 317.235 432.631 317.534C433.01 317.83 433.48 317.977 434.04 317.977ZM444.16 319.182C443.319 319.182 442.594 318.996 441.984 318.625C441.378 318.25 440.91 317.727 440.58 317.057C440.254 316.383 440.092 315.598 440.092 314.705C440.092 313.811 440.254 313.023 440.58 312.341C440.91 311.655 441.368 311.121 441.955 310.739C442.546 310.352 443.236 310.159 444.023 310.159C444.478 310.159 444.927 310.235 445.37 310.386C445.813 310.538 446.217 310.784 446.58 311.125C446.944 311.462 447.234 311.909 447.45 312.466C447.665 313.023 447.773 313.708 447.773 314.523V315.091H441.046V313.932H446.41C446.41 313.439 446.311 313 446.114 312.614C445.921 312.227 445.645 311.922 445.285 311.699C444.929 311.475 444.508 311.364 444.023 311.364C443.489 311.364 443.027 311.496 442.637 311.761C442.251 312.023 441.953 312.364 441.745 312.784C441.537 313.205 441.433 313.655 441.433 314.136V314.909C441.433 315.568 441.546 316.127 441.773 316.585C442.004 317.04 442.325 317.386 442.734 317.625C443.143 317.86 443.618 317.977 444.16 317.977C444.512 317.977 444.83 317.928 445.114 317.83C445.402 317.727 445.65 317.576 445.859 317.375C446.067 317.17 446.228 316.917 446.342 316.614L447.637 316.977C447.501 317.417 447.272 317.803 446.95 318.136C446.628 318.466 446.23 318.723 445.756 318.909C445.283 319.091 444.751 319.182 444.16 319.182ZM449.813 319V310.273H451.109V311.591H451.2C451.359 311.159 451.647 310.809 452.063 310.54C452.48 310.271 452.95 310.136 453.472 310.136C453.571 310.136 453.694 310.138 453.842 310.142C453.989 310.146 454.101 310.152 454.177 310.159V311.523C454.131 311.511 454.027 311.494 453.864 311.472C453.705 311.445 453.537 311.432 453.359 311.432C452.934 311.432 452.556 311.521 452.222 311.699C451.893 311.873 451.631 312.116 451.438 312.426C451.249 312.733 451.154 313.083 451.154 313.477V319H449.813Z" fill="#64748B"/>
      </g>

      <g id="v1">
        <rect id="Rectangle 2454_3" x="93.5" y="399.5" width="71" height="71" rx="15.5" stroke="#07D093"/>
        <g id="icon / outlined / other / person / user_3" class="icon">
          <path id="Vector_5" d="M137 444V442C137 440.939 136.579 439.922 135.828 439.172C135.078 438.421 134.061 438 133 438H125C123.939 438 122.922 438.421 122.172 439.172C121.421 439.922 121 440.939 121 442V444" stroke="#07D093" stroke-width="2" stroke-linecap="round" stroke-linejoin="round"/>
          <path id="Vector_6" d="M129 434C131.209 434 133 432.209 133 430C133 427.791 131.209 426 129 426C126.791 426 125 427.791 125 430C125 432.209 126.791 434 129 434Z" stroke="#07D093" stroke-width="2" stroke-linecap="round" stroke-linejoin="round"/>
        </g>
        <path id="Vendor 1" d="M98.3629 479.364L101.817 489.159H101.954L105.408 479.364H106.886L102.613 491H101.158L96.8857 479.364H98.3629ZM111.363 491.182C110.522 491.182 109.797 490.996 109.187 490.625C108.581 490.25 108.113 489.727 107.783 489.057C107.458 488.383 107.295 487.598 107.295 486.705C107.295 485.811 107.458 485.023 107.783 484.341C108.113 483.655 108.571 483.121 109.158 482.739C109.749 482.352 110.439 482.159 111.227 482.159C111.681 482.159 112.13 482.235 112.573 482.386C113.016 482.538 113.42 482.784 113.783 483.125C114.147 483.462 114.437 483.909 114.653 484.466C114.869 485.023 114.977 485.708 114.977 486.523V487.091H108.249V485.932H113.613C113.613 485.439 113.514 485 113.317 484.614C113.124 484.227 112.848 483.922 112.488 483.699C112.132 483.475 111.711 483.364 111.227 483.364C110.692 483.364 110.23 483.496 109.84 483.761C109.454 484.023 109.156 484.364 108.948 484.784C108.74 485.205 108.636 485.655 108.636 486.136V486.909C108.636 487.568 108.749 488.127 108.977 488.585C109.208 489.04 109.528 489.386 109.937 489.625C110.346 489.86 110.821 489.977 111.363 489.977C111.715 489.977 112.033 489.928 112.317 489.83C112.605 489.727 112.853 489.576 113.062 489.375C113.27 489.17 113.431 488.917 113.545 488.614L114.84 488.977C114.704 489.417 114.475 489.803 114.153 490.136C113.831 490.466 113.433 490.723 112.96 490.909C112.486 491.091 111.954 491.182 111.363 491.182ZM118.357 485.75V491H117.016V482.273H118.312V483.636H118.425C118.63 483.193 118.941 482.837 119.357 482.568C119.774 482.295 120.312 482.159 120.971 482.159C121.562 482.159 122.079 482.28 122.522 482.523C122.965 482.761 123.31 483.125 123.556 483.614C123.802 484.098 123.925 484.712 123.925 485.455V491H122.585V485.545C122.585 484.86 122.406 484.326 122.05 483.943C121.694 483.557 121.206 483.364 120.585 483.364C120.156 483.364 119.774 483.456 119.437 483.642C119.103 483.828 118.84 484.098 118.647 484.455C118.454 484.811 118.357 485.242 118.357 485.75ZM129.671 491.182C128.944 491.182 128.302 490.998 127.745 490.631C127.188 490.259 126.753 489.737 126.438 489.062C126.124 488.384 125.967 487.583 125.967 486.659C125.967 485.742 126.124 484.947 126.438 484.273C126.753 483.598 127.19 483.078 127.751 482.71C128.311 482.343 128.959 482.159 129.694 482.159C130.262 482.159 130.711 482.254 131.04 482.443C131.374 482.629 131.628 482.841 131.802 483.08C131.98 483.314 132.118 483.508 132.217 483.659H132.33V479.364H133.671V491H132.376V489.659H132.217C132.118 489.818 131.978 490.019 131.796 490.261C131.614 490.5 131.355 490.714 131.018 490.903C130.681 491.089 130.232 491.182 129.671 491.182ZM129.853 489.977C130.391 489.977 130.845 489.837 131.217 489.557C131.588 489.273 131.87 488.881 132.063 488.381C132.256 487.877 132.353 487.295 132.353 486.636C132.353 485.985 132.258 485.415 132.069 484.926C131.879 484.434 131.599 484.051 131.228 483.778C130.857 483.502 130.398 483.364 129.853 483.364C129.285 483.364 128.811 483.509 128.433 483.801C128.058 484.089 127.775 484.481 127.586 484.977C127.4 485.47 127.308 486.023 127.308 486.636C127.308 487.258 127.402 487.822 127.592 488.33C127.785 488.833 128.069 489.235 128.444 489.534C128.823 489.83 129.292 489.977 129.853 489.977ZM139.859 491.182C139.071 491.182 138.379 490.994 137.785 490.619C137.194 490.244 136.732 489.72 136.398 489.045C136.069 488.371 135.904 487.583 135.904 486.682C135.904 485.773 136.069 484.979 136.398 484.301C136.732 483.623 137.194 483.097 137.785 482.722C138.379 482.347 139.071 482.159 139.859 482.159C140.647 482.159 141.336 482.347 141.927 482.722C142.522 483.097 142.984 483.623 143.313 484.301C143.647 484.979 143.813 485.773 143.813 486.682C143.813 487.583 143.647 488.371 143.313 489.045C142.984 489.72 142.522 490.244 141.927 490.619C141.336 490.994 140.647 491.182 139.859 491.182ZM139.859 489.977C140.457 489.977 140.95 489.824 141.336 489.517C141.722 489.21 142.008 488.807 142.194 488.307C142.379 487.807 142.472 487.265 142.472 486.682C142.472 486.098 142.379 485.555 142.194 485.051C142.008 484.547 141.722 484.14 141.336 483.83C140.95 483.519 140.457 483.364 139.859 483.364C139.26 483.364 138.768 483.519 138.381 483.83C137.995 484.14 137.709 484.547 137.523 485.051C137.338 485.555 137.245 486.098 137.245 486.682C137.245 487.265 137.338 487.807 137.523 488.307C137.709 488.807 137.995 489.21 138.381 489.517C138.768 489.824 139.26 489.977 139.859 489.977ZM145.86 491V482.273H147.156V483.591H147.246C147.406 483.159 147.693 482.809 148.11 482.54C148.527 482.271 148.996 482.136 149.519 482.136C149.618 482.136 149.741 482.138 149.888 482.142C150.036 482.146 150.148 482.152 150.224 482.159V483.523C150.178 483.511 150.074 483.494 149.911 483.472C149.752 483.445 149.584 483.432 149.406 483.432C148.981 483.432 148.603 483.521 148.269 483.699C147.94 483.873 147.678 484.116 147.485 484.426C147.296 484.733 147.201 485.083 147.201 485.477V491H145.86ZM160.381 479.364V491H158.972V480.841H158.904L156.063 482.727V481.295L158.972 479.364H160.381Z" fill="#07D093"/>
      </g>
      <g id="v2">
        <rect id="Rectangle 2454_5" x="205" y="399" width="72" height="72" rx="16" fill="#07D093"/>
        <g id="icon / outlined / other / person / user_5" class="icon">
          <path id="Vector_9" d="M249 444V442C249 440.939 248.579 439.922 247.828 439.172C247.078 438.421 246.061 438 245 438H237C235.939 438 234.922 438.421 234.172 439.172C233.421 439.922 233 440.939 233 442V444" stroke="white" stroke-width="2" stroke-linecap="round" stroke-linejoin="round"/>
          <path id="Vector_10" d="M241 434C243.209 434 245 432.209 245 430C245 427.791 243.209 426 241 426C238.791 426 237 427.791 237 430C237 432.209 238.791 434 241 434Z" stroke="white" stroke-width="2" stroke-linecap="round" stroke-linejoin="round"/>
        </g>
        <path id="Vendor 2" d="M209.238 479.364L212.692 489.159H212.829L216.283 479.364H217.761L213.488 491H212.033L207.761 479.364H209.238ZM222.238 491.182C221.397 491.182 220.672 490.996 220.062 490.625C219.456 490.25 218.988 489.727 218.658 489.057C218.333 488.383 218.17 487.598 218.17 486.705C218.17 485.811 218.333 485.023 218.658 484.341C218.988 483.655 219.446 483.121 220.033 482.739C220.624 482.352 221.314 482.159 222.102 482.159C222.556 482.159 223.005 482.235 223.448 482.386C223.891 482.538 224.295 482.784 224.658 483.125C225.022 483.462 225.312 483.909 225.528 484.466C225.744 485.023 225.852 485.708 225.852 486.523V487.091H219.124V485.932H224.488C224.488 485.439 224.389 485 224.192 484.614C223.999 484.227 223.723 483.922 223.363 483.699C223.007 483.475 222.586 483.364 222.102 483.364C221.567 483.364 221.105 483.496 220.715 483.761C220.329 484.023 220.031 484.364 219.823 484.784C219.615 485.205 219.511 485.655 219.511 486.136V486.909C219.511 487.568 219.624 488.127 219.852 488.585C220.083 489.04 220.403 489.386 220.812 489.625C221.221 489.86 221.696 489.977 222.238 489.977C222.59 489.977 222.908 489.928 223.192 489.83C223.48 489.727 223.728 489.576 223.937 489.375C224.145 489.17 224.306 488.917 224.42 488.614L225.715 488.977C225.579 489.417 225.35 489.803 225.028 490.136C224.706 490.466 224.308 490.723 223.835 490.909C223.361 491.091 222.829 491.182 222.238 491.182ZM229.232 485.75V491H227.891V482.273H229.187V483.636H229.3C229.505 483.193 229.816 482.837 230.232 482.568C230.649 482.295 231.187 482.159 231.846 482.159C232.437 482.159 232.954 482.28 233.397 482.523C233.84 482.761 234.185 483.125 234.431 483.614C234.677 484.098 234.8 484.712 234.8 485.455V491H233.46V485.545C233.46 484.86 233.281 484.326 232.925 483.943C232.569 483.557 232.081 483.364 231.46 483.364C231.031 483.364 230.649 483.456 230.312 483.642C229.978 483.828 229.715 484.098 229.522 484.455C229.329 484.811 229.232 485.242 229.232 485.75ZM240.546 491.182C239.819 491.182 239.177 490.998 238.62 490.631C238.063 490.259 237.628 489.737 237.313 489.062C236.999 488.384 236.842 487.583 236.842 486.659C236.842 485.742 236.999 484.947 237.313 484.273C237.628 483.598 238.065 483.078 238.626 482.71C239.186 482.343 239.834 482.159 240.569 482.159C241.137 482.159 241.586 482.254 241.915 482.443C242.249 482.629 242.503 482.841 242.677 483.08C242.855 483.314 242.993 483.508 243.092 483.659H243.205V479.364H244.546V491H243.251V489.659H243.092C242.993 489.818 242.853 490.019 242.671 490.261C242.489 490.5 242.23 490.714 241.893 490.903C241.556 491.089 241.107 491.182 240.546 491.182ZM240.728 489.977C241.266 489.977 241.72 489.837 242.092 489.557C242.463 489.273 242.745 488.881 242.938 488.381C243.131 487.877 243.228 487.295 243.228 486.636C243.228 485.985 243.133 485.415 242.944 484.926C242.754 484.434 242.474 484.051 242.103 483.778C241.732 483.502 241.273 483.364 240.728 483.364C240.16 483.364 239.686 483.509 239.308 483.801C238.933 484.089 238.65 484.481 238.461 484.977C238.275 485.47 238.183 486.023 238.183 486.636C238.183 487.258 238.277 487.822 238.467 488.33C238.66 488.833 238.944 489.235 239.319 489.534C239.698 489.83 240.167 489.977 240.728 489.977ZM250.734 491.182C249.946 491.182 249.254 490.994 248.66 490.619C248.069 490.244 247.607 489.72 247.273 489.045C246.944 488.371 246.779 487.583 246.779 486.682C246.779 485.773 246.944 484.979 247.273 484.301C247.607 483.623 248.069 483.097 248.66 482.722C249.254 482.347 249.946 482.159 250.734 482.159C251.522 482.159 252.211 482.347 252.802 482.722C253.397 483.097 253.859 483.623 254.188 484.301C254.522 484.979 254.688 485.773 254.688 486.682C254.688 487.583 254.522 488.371 254.188 489.045C253.859 489.72 253.397 490.244 252.802 490.619C252.211 490.994 251.522 491.182 250.734 491.182ZM250.734 489.977C251.332 489.977 251.825 489.824 252.211 489.517C252.597 489.21 252.883 488.807 253.069 488.307C253.254 487.807 253.347 487.265 253.347 486.682C253.347 486.098 253.254 485.555 253.069 485.051C252.883 484.547 252.597 484.14 252.211 483.83C251.825 483.519 251.332 483.364 250.734 483.364C250.135 483.364 249.643 483.519 249.256 483.83C248.87 484.14 248.584 484.547 248.398 485.051C248.213 485.555 248.12 486.098 248.12 486.682C248.12 487.265 248.213 487.807 248.398 488.307C248.584 488.807 248.87 489.21 249.256 489.517C249.643 489.824 250.135 489.977 250.734 489.977ZM256.735 491V482.273H258.031V483.591H258.121C258.281 483.159 258.568 482.809 258.985 482.54C259.402 482.271 259.871 482.136 260.394 482.136C260.493 482.136 260.616 482.138 260.763 482.142C260.911 482.146 261.023 482.152 261.099 482.159V483.523C261.053 483.511 260.949 483.494 260.786 483.472C260.627 483.445 260.459 483.432 260.281 483.432C259.856 483.432 259.478 483.521 259.144 483.699C258.815 483.873 258.553 484.116 258.36 484.426C258.171 484.733 258.076 485.083 258.076 485.477V491H256.735ZM267.165 491V489.977L271.006 485.773C271.457 485.28 271.828 484.852 272.12 484.489C272.412 484.121 272.628 483.777 272.768 483.455C272.912 483.129 272.984 482.788 272.984 482.432C272.984 482.023 272.885 481.669 272.688 481.369C272.495 481.07 272.23 480.839 271.893 480.676C271.556 480.513 271.177 480.432 270.756 480.432C270.309 480.432 269.919 480.525 269.586 480.71C269.256 480.892 269.001 481.148 268.819 481.477C268.641 481.807 268.552 482.193 268.552 482.636H267.211C267.211 481.955 267.368 481.356 267.683 480.841C267.997 480.326 268.425 479.924 268.967 479.636C269.512 479.348 270.124 479.205 270.802 479.205C271.484 479.205 272.088 479.348 272.614 479.636C273.141 479.924 273.554 480.312 273.853 480.801C274.152 481.29 274.302 481.833 274.302 482.432C274.302 482.86 274.224 483.278 274.069 483.688C273.917 484.093 273.652 484.545 273.273 485.045C272.898 485.542 272.378 486.148 271.711 486.864L269.097 489.659V489.75H274.506V491H267.165Z" fill="#07D093"/>
      </g>
      <g id="v3">
        <rect id="Rectangle 2454_4" x="317.5" y="399.5" width="71" height="71" rx="15.5" stroke="#07D093"/>
        <g id="icon / outlined / other / person / user_4" class="icon">
          <path id="Vector_7" d="M361 444V442C361 440.939 360.579 439.922 359.828 439.172C359.078 438.421 358.061 438 357 438H349C347.939 438 346.922 438.421 346.172 439.172C345.421 439.922 345 440.939 345 442V444" stroke="#07D093" stroke-width="2" stroke-linecap="round" stroke-linejoin="round"/>
          <path id="Vector_8" d="M353 434C355.209 434 357 432.209 357 430C357 427.791 355.209 426 353 426C350.791 426 349 427.791 349 430C349 432.209 350.791 434 353 434Z" stroke="#07D093" stroke-width="2" stroke-linecap="round" stroke-linejoin="round"/>
        </g>
        <path id="Vendor 3" d="M320.988 479.364L324.442 489.159H324.579L328.033 479.364H329.511L325.238 491H323.783L319.511 479.364H320.988ZM333.988 491.182C333.147 491.182 332.422 490.996 331.812 490.625C331.206 490.25 330.738 489.727 330.408 489.057C330.083 488.383 329.92 487.598 329.92 486.705C329.92 485.811 330.083 485.023 330.408 484.341C330.738 483.655 331.196 483.121 331.783 482.739C332.374 482.352 333.064 482.159 333.852 482.159C334.306 482.159 334.755 482.235 335.198 482.386C335.641 482.538 336.045 482.784 336.408 483.125C336.772 483.462 337.062 483.909 337.278 484.466C337.494 485.023 337.602 485.708 337.602 486.523V487.091H330.874V485.932H336.238C336.238 485.439 336.139 485 335.942 484.614C335.749 484.227 335.473 483.922 335.113 483.699C334.757 483.475 334.336 483.364 333.852 483.364C333.317 483.364 332.855 483.496 332.465 483.761C332.079 484.023 331.781 484.364 331.573 484.784C331.365 485.205 331.261 485.655 331.261 486.136V486.909C331.261 487.568 331.374 488.127 331.602 488.585C331.833 489.04 332.153 489.386 332.562 489.625C332.971 489.86 333.446 489.977 333.988 489.977C334.34 489.977 334.658 489.928 334.942 489.83C335.23 489.727 335.478 489.576 335.687 489.375C335.895 489.17 336.056 488.917 336.17 488.614L337.465 488.977C337.329 489.417 337.1 489.803 336.778 490.136C336.456 490.466 336.058 490.723 335.585 490.909C335.111 491.091 334.579 491.182 333.988 491.182ZM340.982 485.75V491H339.641V482.273H340.937V483.636H341.05C341.255 483.193 341.566 482.837 341.982 482.568C342.399 482.295 342.937 482.159 343.596 482.159C344.187 482.159 344.704 482.28 345.147 482.523C345.59 482.761 345.935 483.125 346.181 483.614C346.427 484.098 346.55 484.712 346.55 485.455V491H345.21V485.545C345.21 484.86 345.031 484.326 344.675 483.943C344.319 483.557 343.831 483.364 343.21 483.364C342.781 483.364 342.399 483.456 342.062 483.642C341.728 483.828 341.465 484.098 341.272 484.455C341.079 484.811 340.982 485.242 340.982 485.75ZM352.296 491.182C351.569 491.182 350.927 490.998 350.37 490.631C349.813 490.259 349.378 489.737 349.063 489.062C348.749 488.384 348.592 487.583 348.592 486.659C348.592 485.742 348.749 484.947 349.063 484.273C349.378 483.598 349.815 483.078 350.376 482.71C350.936 482.343 351.584 482.159 352.319 482.159C352.887 482.159 353.336 482.254 353.665 482.443C353.999 482.629 354.253 482.841 354.427 483.08C354.605 483.314 354.743 483.508 354.842 483.659H354.955V479.364H356.296V491H355.001V489.659H354.842C354.743 489.818 354.603 490.019 354.421 490.261C354.239 490.5 353.98 490.714 353.643 490.903C353.306 491.089 352.857 491.182 352.296 491.182ZM352.478 489.977C353.016 489.977 353.47 489.837 353.842 489.557C354.213 489.273 354.495 488.881 354.688 488.381C354.881 487.877 354.978 487.295 354.978 486.636C354.978 485.985 354.883 485.415 354.694 484.926C354.504 484.434 354.224 484.051 353.853 483.778C353.482 483.502 353.023 483.364 352.478 483.364C351.91 483.364 351.436 483.509 351.058 483.801C350.683 484.089 350.4 484.481 350.211 484.977C350.025 485.47 349.933 486.023 349.933 486.636C349.933 487.258 350.027 487.822 350.217 488.33C350.41 488.833 350.694 489.235 351.069 489.534C351.448 489.83 351.917 489.977 352.478 489.977ZM362.484 491.182C361.696 491.182 361.004 490.994 360.41 490.619C359.819 490.244 359.357 489.72 359.023 489.045C358.694 488.371 358.529 487.583 358.529 486.682C358.529 485.773 358.694 484.979 359.023 484.301C359.357 483.623 359.819 483.097 360.41 482.722C361.004 482.347 361.696 482.159 362.484 482.159C363.272 482.159 363.961 482.347 364.552 482.722C365.147 483.097 365.609 483.623 365.938 484.301C366.272 484.979 366.438 485.773 366.438 486.682C366.438 487.583 366.272 488.371 365.938 489.045C365.609 489.72 365.147 490.244 364.552 490.619C363.961 490.994 363.272 491.182 362.484 491.182ZM362.484 489.977C363.082 489.977 363.575 489.824 363.961 489.517C364.347 489.21 364.633 488.807 364.819 488.307C365.004 487.807 365.097 487.265 365.097 486.682C365.097 486.098 365.004 485.555 364.819 485.051C364.633 484.547 364.347 484.14 363.961 483.83C363.575 483.519 363.082 483.364 362.484 483.364C361.885 483.364 361.393 483.519 361.006 483.83C360.62 484.14 360.334 484.547 360.148 485.051C359.963 485.555 359.87 486.098 359.87 486.682C359.87 487.265 359.963 487.807 360.148 488.307C360.334 488.807 360.62 489.21 361.006 489.517C361.393 489.824 361.885 489.977 362.484 489.977ZM368.485 491V482.273H369.781V483.591H369.871C370.031 483.159 370.318 482.809 370.735 482.54C371.152 482.271 371.621 482.136 372.144 482.136C372.243 482.136 372.366 482.138 372.513 482.142C372.661 482.146 372.773 482.152 372.849 482.159V483.523C372.803 483.511 372.699 483.494 372.536 483.472C372.377 483.445 372.209 483.432 372.031 483.432C371.606 483.432 371.228 483.521 370.894 483.699C370.565 483.873 370.303 484.116 370.11 484.426C369.921 484.733 369.826 485.083 369.826 485.477V491H368.485ZM382.847 491.159C382.097 491.159 381.429 491.03 380.842 490.773C380.258 490.515 379.794 490.157 379.45 489.699C379.109 489.237 378.923 488.701 378.893 488.091H380.325C380.355 488.466 380.484 488.79 380.711 489.062C380.938 489.331 381.236 489.54 381.603 489.688C381.97 489.835 382.378 489.909 382.825 489.909C383.325 489.909 383.768 489.822 384.154 489.648C384.54 489.473 384.844 489.231 385.063 488.92C385.283 488.61 385.393 488.25 385.393 487.841C385.393 487.413 385.287 487.036 385.075 486.71C384.862 486.381 384.552 486.123 384.143 485.938C383.734 485.752 383.234 485.659 382.643 485.659H381.711V484.409H382.643C383.105 484.409 383.51 484.326 383.859 484.159C384.211 483.992 384.486 483.758 384.683 483.455C384.883 483.152 384.984 482.795 384.984 482.386C384.984 481.992 384.897 481.65 384.722 481.358C384.548 481.066 384.302 480.839 383.984 480.676C383.669 480.513 383.298 480.432 382.87 480.432C382.469 480.432 382.09 480.506 381.734 480.653C381.381 480.797 381.094 481.008 380.87 481.284C380.647 481.557 380.525 481.886 380.506 482.273H379.143C379.165 481.663 379.349 481.129 379.694 480.67C380.039 480.208 380.489 479.848 381.046 479.591C381.607 479.333 382.222 479.205 382.893 479.205C383.612 479.205 384.23 479.35 384.745 479.642C385.26 479.93 385.656 480.311 385.933 480.784C386.209 481.258 386.347 481.769 386.347 482.318C386.347 482.973 386.175 483.532 385.83 483.994C385.489 484.456 385.025 484.777 384.438 484.955V485.045C385.173 485.167 385.747 485.479 386.16 485.983C386.573 486.483 386.779 487.102 386.779 487.841C386.779 488.473 386.607 489.042 386.262 489.545C385.921 490.045 385.455 490.439 384.864 490.727C384.273 491.015 383.601 491.159 382.847 491.159Z" fill="#07D093"/>
      </g>

    </g>
    <g id="fm_lines">
      <path id="line_1" d="M49 196L49 160C49 155.029 53.0294 151 58 151L232 151C236.971 151 241 146.971 241 142L241 108" stroke="url(#paint0_linear_2809_2227)" stroke-width="2"/>
      <line id="line_2" x1="97" y1="243" x2="193" y2="243" stroke="#D9D9D9" stroke-width="2"/>
      <g id="line_5">
        <line x1="289" y1="243" x2="385" y2="243" stroke="#D9D9D9" stroke-width="2"/>
      </g>
      <g id="approval">
        <circle id="Ellipse 47" cx="337" cy="243" r="12" fill="#D9D9D9"/>
        <path id="Approval" d="M312.907 223H311.799L315.004 214.273H316.094L319.299 223H318.191L315.583 215.653H315.515L312.907 223ZM313.316 219.591H317.782V220.528H313.316V219.591ZM320.522 225.455V216.455H321.494V217.494H321.613C321.687 217.381 321.789 217.236 321.92 217.06C322.053 216.881 322.244 216.722 322.491 216.582C322.741 216.44 323.079 216.369 323.505 216.369C324.056 216.369 324.542 216.507 324.962 216.783C325.383 217.058 325.711 217.449 325.947 217.955C326.183 218.46 326.3 219.057 326.3 219.744C326.3 220.438 326.183 221.038 325.947 221.547C325.711 222.053 325.384 222.445 324.967 222.723C324.549 222.999 324.067 223.136 323.522 223.136C323.102 223.136 322.765 223.067 322.512 222.928C322.259 222.786 322.065 222.625 321.928 222.446C321.792 222.264 321.687 222.114 321.613 221.994H321.528V225.455H320.522ZM321.511 219.727C321.511 220.222 321.583 220.658 321.728 221.036C321.873 221.411 322.085 221.705 322.363 221.918C322.641 222.128 322.982 222.233 323.386 222.233C323.806 222.233 324.157 222.122 324.438 221.901C324.722 221.676 324.935 221.375 325.077 220.997C325.222 220.616 325.295 220.193 325.295 219.727C325.295 219.267 325.224 218.852 325.082 218.483C324.942 218.111 324.731 217.817 324.447 217.601C324.165 217.382 323.812 217.273 323.386 217.273C322.977 217.273 322.633 217.376 322.354 217.584C322.076 217.788 321.866 218.075 321.724 218.445C321.582 218.811 321.511 219.239 321.511 219.727ZM327.835 225.455V216.455H328.806V217.494H328.925C328.999 217.381 329.102 217.236 329.232 217.06C329.366 216.881 329.556 216.722 329.803 216.582C330.053 216.44 330.391 216.369 330.817 216.369C331.369 216.369 331.854 216.507 332.275 216.783C332.695 217.058 333.023 217.449 333.259 217.955C333.495 218.46 333.613 219.057 333.613 219.744C333.613 220.438 333.495 221.038 333.259 221.547C333.023 222.053 332.697 222.445 332.279 222.723C331.862 222.999 331.38 223.136 330.835 223.136C330.414 223.136 330.077 223.067 329.825 222.928C329.572 222.786 329.377 222.625 329.241 222.446C329.104 222.264 328.999 222.114 328.925 221.994H328.84V225.455H327.835ZM328.823 219.727C328.823 220.222 328.896 220.658 329.04 221.036C329.185 221.411 329.397 221.705 329.675 221.918C329.954 222.128 330.295 222.233 330.698 222.233C331.119 222.233 331.469 222.122 331.751 221.901C332.035 221.676 332.248 221.375 332.39 220.997C332.535 220.616 332.607 220.193 332.607 219.727C332.607 219.267 332.536 218.852 332.394 218.483C332.255 218.111 332.043 217.817 331.759 217.601C331.478 217.382 331.124 217.273 330.698 217.273C330.289 217.273 329.945 217.376 329.667 217.584C329.388 217.788 329.178 218.075 329.036 218.445C328.894 218.811 328.823 219.239 328.823 219.727ZM335.147 223V216.455H336.119V217.443H336.187C336.306 217.119 336.522 216.857 336.835 216.655C337.147 216.453 337.499 216.352 337.891 216.352C337.965 216.352 338.058 216.354 338.168 216.357C338.279 216.359 338.363 216.364 338.42 216.369V217.392C338.386 217.384 338.308 217.371 338.185 217.354C338.066 217.334 337.94 217.324 337.806 217.324C337.488 217.324 337.204 217.391 336.954 217.524C336.707 217.655 336.511 217.837 336.366 218.07C336.224 218.3 336.153 218.562 336.153 218.858V223H335.147ZM342.072 223.136C341.481 223.136 340.962 222.996 340.516 222.714C340.073 222.433 339.727 222.04 339.477 221.534C339.229 221.028 339.106 220.437 339.106 219.761C339.106 219.08 339.229 218.484 339.477 217.976C339.727 217.467 340.073 217.072 340.516 216.791C340.962 216.51 341.481 216.369 342.072 216.369C342.663 216.369 343.18 216.51 343.623 216.791C344.069 217.072 344.415 217.467 344.663 217.976C344.913 218.484 345.038 219.08 345.038 219.761C345.038 220.437 344.913 221.028 344.663 221.534C344.415 222.04 344.069 222.433 343.623 222.714C343.18 222.996 342.663 223.136 342.072 223.136ZM342.072 222.233C342.521 222.233 342.89 222.118 343.18 221.888C343.469 221.658 343.684 221.355 343.823 220.98C343.962 220.605 344.032 220.199 344.032 219.761C344.032 219.324 343.962 218.916 343.823 218.538C343.684 218.161 343.469 217.855 343.18 217.622C342.89 217.389 342.521 217.273 342.072 217.273C341.623 217.273 341.254 217.389 340.964 217.622C340.674 217.855 340.46 218.161 340.32 218.538C340.181 218.916 340.112 219.324 340.112 219.761C340.112 220.199 340.181 220.605 340.32 220.98C340.46 221.355 340.674 221.658 340.964 221.888C341.254 222.118 341.623 222.233 342.072 222.233ZM351.691 216.455L349.27 223H348.248L345.827 216.455H346.918L348.725 221.67H348.793L350.6 216.455H351.691ZM354.745 223.153C354.33 223.153 353.954 223.075 353.616 222.919C353.278 222.76 353.009 222.531 352.81 222.233C352.612 221.932 352.512 221.568 352.512 221.142C352.512 220.767 352.586 220.463 352.734 220.23C352.881 219.994 353.079 219.81 353.326 219.676C353.573 219.543 353.846 219.443 354.144 219.378C354.445 219.31 354.748 219.256 355.052 219.216C355.45 219.165 355.772 219.126 356.019 219.101C356.269 219.072 356.451 219.026 356.565 218.96C356.681 218.895 356.739 218.781 356.739 218.619V218.585C356.739 218.165 356.624 217.838 356.394 217.605C356.167 217.372 355.822 217.256 355.359 217.256C354.879 217.256 354.502 217.361 354.229 217.571C353.957 217.781 353.765 218.006 353.654 218.244L352.7 217.903C352.87 217.506 353.097 217.196 353.381 216.974C353.668 216.75 353.981 216.594 354.319 216.506C354.66 216.415 354.995 216.369 355.325 216.369C355.535 216.369 355.776 216.395 356.049 216.446C356.325 216.494 356.59 216.595 356.846 216.749C357.104 216.902 357.319 217.134 357.489 217.443C357.66 217.753 357.745 218.168 357.745 218.688V223H356.739V222.114H356.688C356.62 222.256 356.506 222.408 356.347 222.57C356.188 222.732 355.977 222.869 355.712 222.983C355.448 223.097 355.126 223.153 354.745 223.153ZM354.898 222.25C355.296 222.25 355.631 222.172 355.904 222.016C356.18 221.859 356.387 221.658 356.526 221.411C356.668 221.163 356.739 220.903 356.739 220.631V219.71C356.697 219.761 356.603 219.808 356.458 219.851C356.316 219.891 356.151 219.926 355.964 219.957C355.779 219.986 355.599 220.011 355.423 220.034C355.249 220.054 355.109 220.071 355.001 220.085C354.739 220.119 354.495 220.175 354.268 220.251C354.043 220.325 353.862 220.437 353.722 220.588C353.586 220.736 353.518 220.937 353.518 221.193C353.518 221.543 353.647 221.807 353.906 221.986C354.167 222.162 354.498 222.25 354.898 222.25ZM360.586 214.273V223H359.581V214.273H360.586Z" fill="#64748B"/>
        <g id="icon / outlined / action / thumb / thumb up" clip-path="url(#clip0_2809_2227)">
          <path id="Vector_14" d="M334.5 248H333C332.735 248 332.48 247.895 332.293 247.707C332.105 247.52 332 247.265 332 247V243.5C332 243.235 332.105 242.98 332.293 242.793C332.48 242.605 332.735 242.5 333 242.5H334.5M338 241.5V239.5C338 239.102 337.842 238.721 337.561 238.439C337.279 238.158 336.898 238 336.5 238L334.5 242.5V248H340.14C340.381 248.003 340.615 247.918 340.799 247.762C340.983 247.606 341.104 247.388 341.14 247.15L341.83 242.65C341.852 242.507 341.842 242.36 341.802 242.221C341.761 242.082 341.691 241.953 341.596 241.844C341.501 241.734 341.383 241.647 341.251 241.588C341.119 241.528 340.975 241.498 340.83 241.5H338Z" stroke="#64748B" stroke-linecap="round" stroke-linejoin="round"/>
        </g>
      </g>
      <g id="line_3">
        <g >
          <path id="Vector 13" d="M432 339V545C432 550.523 427.523 555 422 555H251C245.477 555 241 550.523 241 545V519" stroke="#D9D9D9" stroke-width="2"/>
          <g id="icon / outlined / directions / chevron / left">
            <path id="Vector_15" d="M338.5 558L335.5 555L338.5 552" stroke="#64748B" stroke-width="2" stroke-linecap="round" stroke-linejoin="round"/>
          </g>
        </g>
        <path id="fm_request" d="M314.313 579V570.273H317.262C317.943 570.273 318.503 570.389 318.941 570.622C319.378 570.852 319.702 571.169 319.912 571.572C320.122 571.976 320.227 572.435 320.227 572.949C320.227 573.463 320.122 573.919 319.912 574.317C319.702 574.714 319.379 575.027 318.945 575.254C318.51 575.479 317.955 575.591 317.279 575.591H314.892V574.636H317.244C317.71 574.636 318.085 574.568 318.369 574.432C318.656 574.295 318.864 574.102 318.992 573.852C319.122 573.599 319.188 573.298 319.188 572.949C319.188 572.599 319.122 572.294 318.992 572.033C318.861 571.771 318.652 571.57 318.365 571.428C318.078 571.283 317.699 571.21 317.227 571.21H315.369V579H314.313ZM318.421 575.08L320.568 579H319.341L317.227 575.08H318.421ZM324.526 579.136C323.895 579.136 323.351 578.997 322.894 578.719C322.439 578.438 322.089 578.045 321.841 577.543C321.597 577.037 321.475 576.449 321.475 575.778C321.475 575.108 321.597 574.517 321.841 574.006C322.089 573.491 322.432 573.091 322.873 572.804C323.316 572.514 323.833 572.369 324.424 572.369C324.765 572.369 325.101 572.426 325.434 572.54C325.766 572.653 326.069 572.838 326.341 573.094C326.614 573.347 326.831 573.682 326.993 574.099C327.155 574.517 327.236 575.031 327.236 575.642V576.068H322.191V575.199H326.214C326.214 574.83 326.14 574.5 325.992 574.21C325.847 573.92 325.64 573.692 325.37 573.524C325.103 573.357 324.787 573.273 324.424 573.273C324.023 573.273 323.677 573.372 323.384 573.571C323.094 573.767 322.871 574.023 322.715 574.338C322.559 574.653 322.481 574.991 322.481 575.352V575.932C322.481 576.426 322.566 576.845 322.736 577.189C322.91 577.53 323.15 577.79 323.456 577.969C323.763 578.145 324.12 578.233 324.526 578.233C324.79 578.233 325.029 578.196 325.242 578.122C325.458 578.045 325.644 577.932 325.8 577.781C325.956 577.628 326.077 577.437 326.162 577.21L327.134 577.483C327.032 577.812 326.86 578.102 326.618 578.352C326.377 578.599 326.079 578.793 325.724 578.932C325.368 579.068 324.969 579.136 324.526 579.136ZM333.232 581.455V577.994H333.147C333.073 578.114 332.968 578.264 332.831 578.446C332.695 578.625 332.501 578.786 332.248 578.928C331.995 579.067 331.658 579.136 331.238 579.136C330.692 579.136 330.211 578.999 329.793 578.723C329.376 578.445 329.049 578.053 328.813 577.547C328.577 577.038 328.459 576.438 328.459 575.744C328.459 575.057 328.577 574.46 328.813 573.955C329.049 573.449 329.377 573.058 329.797 572.783C330.218 572.507 330.704 572.369 331.255 572.369C331.681 572.369 332.018 572.44 332.265 572.582C332.515 572.722 332.705 572.881 332.836 573.06C332.969 573.236 333.073 573.381 333.147 573.494H333.266V572.455H334.238V581.455H333.232ZM331.374 578.233C331.778 578.233 332.118 578.128 332.397 577.918C332.675 577.705 332.887 577.411 333.032 577.036C333.177 576.658 333.249 576.222 333.249 575.727C333.249 575.239 333.178 574.811 333.036 574.445C332.894 574.075 332.684 573.788 332.405 573.584C332.127 573.376 331.783 573.273 331.374 573.273C330.948 573.273 330.593 573.382 330.309 573.601C330.028 573.817 329.816 574.111 329.674 574.483C329.535 574.852 329.465 575.267 329.465 575.727C329.465 576.193 329.536 576.616 329.678 576.997C329.823 577.375 330.036 577.676 330.317 577.901C330.601 578.122 330.954 578.233 331.374 578.233ZM340.204 576.324V572.455H341.209V579H340.204V577.892H340.135C339.982 578.224 339.743 578.507 339.42 578.74C339.096 578.97 338.687 579.085 338.192 579.085C337.783 579.085 337.42 578.996 337.101 578.817C336.783 578.635 336.533 578.362 336.351 577.999C336.17 577.632 336.079 577.17 336.079 576.614V572.455H337.084V576.545C337.084 577.023 337.218 577.403 337.485 577.688C337.755 577.972 338.099 578.114 338.516 578.114C338.766 578.114 339.02 578.05 339.279 577.922C339.54 577.794 339.759 577.598 339.935 577.334C340.114 577.07 340.204 576.733 340.204 576.324ZM345.796 579.136C345.165 579.136 344.621 578.997 344.164 578.719C343.709 578.438 343.358 578.045 343.111 577.543C342.867 577.037 342.744 576.449 342.744 575.778C342.744 575.108 342.867 574.517 343.111 574.006C343.358 573.491 343.702 573.091 344.142 572.804C344.585 572.514 345.102 572.369 345.693 572.369C346.034 572.369 346.371 572.426 346.703 572.54C347.036 572.653 347.338 572.838 347.611 573.094C347.884 573.347 348.101 573.682 348.263 574.099C348.425 574.517 348.506 575.031 348.506 575.642V576.068H343.46V575.199H347.483C347.483 574.83 347.409 574.5 347.262 574.21C347.117 573.92 346.909 573.692 346.639 573.524C346.372 573.357 346.057 573.273 345.693 573.273C345.293 573.273 344.946 573.372 344.654 573.571C344.364 573.767 344.141 574.023 343.985 574.338C343.828 574.653 343.75 574.991 343.75 575.352V575.932C343.75 576.426 343.835 576.845 344.006 577.189C344.179 577.53 344.419 577.79 344.726 577.969C345.033 578.145 345.389 578.233 345.796 578.233C346.06 578.233 346.298 578.196 346.512 578.122C346.727 578.045 346.914 577.932 347.07 577.781C347.226 577.628 347.347 577.437 347.432 577.21L348.404 577.483C348.301 577.812 348.129 578.102 347.888 578.352C347.646 578.599 347.348 578.793 346.993 578.932C346.638 579.068 346.239 579.136 345.796 579.136ZM354.672 573.92L353.769 574.176C353.712 574.026 353.628 573.879 353.517 573.737C353.409 573.592 353.262 573.473 353.074 573.379C352.887 573.286 352.646 573.239 352.354 573.239C351.953 573.239 351.619 573.331 351.352 573.516C351.088 573.697 350.956 573.929 350.956 574.21C350.956 574.46 351.047 574.658 351.229 574.803C351.411 574.947 351.695 575.068 352.081 575.165L353.053 575.403C353.638 575.545 354.074 575.763 354.361 576.055C354.648 576.345 354.791 576.719 354.791 577.176C354.791 577.551 354.683 577.886 354.468 578.182C354.254 578.477 353.956 578.71 353.573 578.881C353.189 579.051 352.743 579.136 352.235 579.136C351.567 579.136 351.014 578.991 350.577 578.702C350.139 578.412 349.862 577.989 349.746 577.432L350.7 577.193C350.791 577.545 350.963 577.81 351.216 577.986C351.472 578.162 351.806 578.25 352.218 578.25C352.686 578.25 353.058 578.151 353.334 577.952C353.612 577.75 353.752 577.509 353.752 577.227C353.752 577 353.672 576.81 353.513 576.656C353.354 576.5 353.11 576.384 352.78 576.307L351.689 576.051C351.09 575.909 350.649 575.689 350.368 575.391C350.09 575.089 349.95 574.713 349.95 574.261C349.95 573.892 350.054 573.565 350.262 573.281C350.472 572.997 350.757 572.774 351.118 572.612C351.482 572.45 351.894 572.369 352.354 572.369C353.002 572.369 353.51 572.511 353.879 572.795C354.252 573.08 354.516 573.455 354.672 573.92ZM359.152 572.455V573.307H355.76V572.455H359.152ZM356.748 570.886H357.754V577.125C357.754 577.409 357.795 577.622 357.878 577.764C357.963 577.903 358.071 577.997 358.202 578.045C358.335 578.091 358.476 578.114 358.623 578.114C358.734 578.114 358.825 578.108 358.896 578.097C358.967 578.082 359.024 578.071 359.067 578.062L359.271 578.966C359.203 578.991 359.108 579.017 358.986 579.043C358.863 579.071 358.709 579.085 358.521 579.085C358.237 579.085 357.959 579.024 357.686 578.902C357.416 578.78 357.192 578.594 357.013 578.344C356.836 578.094 356.748 577.778 356.748 577.398V570.886Z" fill="#64748B"/>

      </g>

      <g id="line_4">
        <line id="Line 15" x1="243" y1="335" x2="243" y2="387" stroke="#D9D9D9" stroke-width="2"/>
        <g id="icon / outlined / directions / chevron / up">
          <path id="Vector_16" d="M246 362.5L243 359.5L240 362.5" stroke="#64748B" stroke-width="2" stroke-linecap="round" stroke-linejoin="round"/>
        </g>
      </g>
    </g>
  </g>
  <defs>
    <linearGradient id="paint0_linear_2809_2227" x1="49" y1="181" x2="241" y2="182" gradientUnits="userSpaceOnUse">
      <stop stop-color="#12E2DB"/>
      <stop offset="1" stop-color="#0767CA"/>
    </linearGradient>
    <clipPath id="clip0_2809_2227">
      <rect width="12" height="12" fill="white" transform="translate(331 237)"/>
    </clipPath>
  </defs>
</svg>
