<svg width="480" height="540" viewBox="0 0 480 540" fill="none" xmlns="http://www.w3.org/2000/svg">
<g clip-path="url(#clip0_571_787)">
<path d="M85 76H396C405.389 76 413 83.6112 413 93V447C413 456.389 405.389 464 396 464H85C75.6111 464 68 456.389 68 447V93C68 83.6112 75.6111 76 85 76Z" fill="#F1F5F7"/>
<rect x="83" y="106" width="315" height="159" rx="9" fill="white"/>
<rect x="83" y="275" width="315" height="159" rx="9" fill="white"/>
<path d="M136.47 174L134.24 167H135.39L136.74 171.38C136.78 171.487 136.817 171.613 136.85 171.76C136.883 171.9 136.913 172.043 136.94 172.19C136.967 172.337 136.99 172.473 137.01 172.6C137.037 172.727 137.06 172.83 137.08 172.91L136.79 172.9C136.89 172.547 136.967 172.273 137.02 172.08C137.08 171.887 137.127 171.74 137.16 171.64C137.193 171.533 137.223 171.443 137.25 171.37L138.51 168.21H139.48L140.7 171.37C140.767 171.53 140.823 171.69 140.87 171.85C140.923 172.003 140.97 172.16 141.01 172.32C141.05 172.473 141.093 172.637 141.14 172.81L140.88 172.88C140.913 172.7 140.937 172.56 140.95 172.46C140.97 172.353 140.987 172.267 141 172.2C141.013 172.133 141.027 172.07 141.04 172.01C141.053 171.943 141.073 171.86 141.1 171.76C141.133 171.66 141.177 171.523 141.23 171.35L142.56 167H143.72L141.49 174H140.74L138.89 169.62L138.98 169.66L137.2 174H136.47ZM146.787 174.1C146.274 174.1 145.814 173.983 145.407 173.75C145.007 173.51 144.69 173.187 144.457 172.78C144.224 172.367 144.107 171.897 144.107 171.37C144.107 170.843 144.224 170.377 144.457 169.97C144.69 169.557 145.007 169.233 145.407 169C145.814 168.76 146.274 168.64 146.787 168.64C147.294 168.64 147.747 168.76 148.147 169C148.554 169.233 148.874 169.557 149.107 169.97C149.34 170.377 149.457 170.843 149.457 171.37C149.457 171.897 149.34 172.367 149.107 172.78C148.874 173.187 148.554 173.51 148.147 173.75C147.747 173.983 147.294 174.1 146.787 174.1ZM146.787 173.16C147.1 173.16 147.38 173.083 147.627 172.93C147.874 172.77 148.067 172.557 148.207 172.29C148.347 172.017 148.414 171.71 148.407 171.37C148.414 171.023 148.347 170.717 148.207 170.45C148.067 170.177 147.874 169.963 147.627 169.81C147.38 169.657 147.1 169.58 146.787 169.58C146.474 169.58 146.19 169.66 145.937 169.82C145.69 169.973 145.497 170.187 145.357 170.46C145.217 170.727 145.15 171.03 145.157 171.37C145.15 171.71 145.217 172.017 145.357 172.29C145.497 172.557 145.69 172.77 145.937 172.93C146.19 173.083 146.474 173.16 146.787 173.16ZM150.579 174V168.75H151.619V170.4L151.519 170C151.593 169.747 151.716 169.517 151.889 169.31C152.069 169.103 152.273 168.94 152.499 168.82C152.733 168.7 152.973 168.64 153.219 168.64C153.333 168.64 153.439 168.65 153.539 168.67C153.646 168.69 153.729 168.713 153.789 168.74L153.519 169.86C153.439 169.827 153.349 169.8 153.249 169.78C153.156 169.753 153.063 169.74 152.969 169.74C152.789 169.74 152.616 169.777 152.449 169.85C152.289 169.917 152.146 170.013 152.019 170.14C151.899 170.26 151.803 170.403 151.729 170.57C151.656 170.73 151.619 170.907 151.619 171.1V174H150.579ZM155.553 172.36L155.503 171.24L158.013 168.75H159.403L155.553 172.36ZM154.613 174V166.6H155.643V174H154.613ZM158.153 174L156.173 171.69L156.903 171.02L159.473 174H158.153ZM166.289 174.1C165.796 174.1 165.339 174.01 164.919 173.83C164.506 173.65 164.142 173.4 163.829 173.08C163.522 172.753 163.282 172.373 163.109 171.94C162.942 171.5 162.859 171.02 162.859 170.5C162.859 169.98 162.942 169.503 163.109 169.07C163.282 168.63 163.522 168.25 163.829 167.93C164.142 167.603 164.506 167.35 164.919 167.17C165.339 166.99 165.796 166.9 166.289 166.9C166.782 166.9 167.236 166.99 167.649 167.17C168.069 167.35 168.432 167.603 168.739 167.93C169.052 168.257 169.292 168.64 169.459 169.08C169.632 169.513 169.719 169.987 169.719 170.5C169.719 171.013 169.632 171.49 169.459 171.93C169.292 172.363 169.052 172.743 168.739 173.07C168.432 173.397 168.069 173.65 167.649 173.83C167.236 174.01 166.782 174.1 166.289 174.1ZM166.289 173.05C166.629 173.05 166.939 172.987 167.219 172.86C167.506 172.733 167.752 172.557 167.959 172.33C168.166 172.097 168.326 171.827 168.439 171.52C168.559 171.207 168.619 170.867 168.619 170.5C168.619 170.133 168.559 169.797 168.439 169.49C168.326 169.177 168.166 168.907 167.959 168.68C167.752 168.447 167.506 168.267 167.219 168.14C166.939 168.013 166.629 167.95 166.289 167.95C165.949 167.95 165.636 168.013 165.349 168.14C165.069 168.267 164.822 168.443 164.609 168.67C164.402 168.897 164.242 169.167 164.129 169.48C164.016 169.787 163.959 170.127 163.959 170.5C163.959 170.867 164.016 171.207 164.129 171.52C164.242 171.833 164.402 172.103 164.609 172.33C164.822 172.557 165.069 172.733 165.349 172.86C165.636 172.987 165.949 173.05 166.289 173.05ZM170.921 174V168.75H171.961V170.4L171.861 170C171.935 169.747 172.058 169.517 172.231 169.31C172.411 169.103 172.615 168.94 172.841 168.82C173.075 168.7 173.315 168.64 173.561 168.64C173.675 168.64 173.781 168.65 173.881 168.67C173.988 168.69 174.071 168.713 174.131 168.74L173.861 169.86C173.781 169.827 173.691 169.8 173.591 169.78C173.498 169.753 173.405 169.74 173.311 169.74C173.131 169.74 172.958 169.777 172.791 169.85C172.631 169.917 172.488 170.013 172.361 170.14C172.241 170.26 172.145 170.403 172.071 170.57C171.998 170.73 171.961 170.907 171.961 171.1V174H170.921ZM176.92 174.1C176.44 174.1 176.01 173.983 175.63 173.75C175.256 173.51 174.96 173.187 174.74 172.78C174.52 172.367 174.41 171.897 174.41 171.37C174.41 170.843 174.516 170.377 174.73 169.97C174.95 169.557 175.246 169.233 175.62 169C175.993 168.76 176.416 168.64 176.89 168.64C177.15 168.64 177.4 168.683 177.64 168.77C177.886 168.85 178.106 168.963 178.3 169.11C178.493 169.25 178.643 169.407 178.75 169.58C178.863 169.747 178.92 169.917 178.92 170.09L178.62 170.11V166.6H179.65V174H178.62V172.75H178.82C178.82 172.91 178.766 173.07 178.66 173.23C178.553 173.383 178.41 173.527 178.23 173.66C178.056 173.793 177.853 173.9 177.62 173.98C177.393 174.06 177.16 174.1 176.92 174.1ZM177.06 173.21C177.373 173.21 177.65 173.13 177.89 172.97C178.13 172.81 178.316 172.593 178.45 172.32C178.59 172.04 178.66 171.723 178.66 171.37C178.66 171.017 178.59 170.703 178.45 170.43C178.316 170.15 178.13 169.93 177.89 169.77C177.65 169.61 177.373 169.53 177.06 169.53C176.746 169.53 176.47 169.61 176.23 169.77C175.99 169.93 175.8 170.15 175.66 170.43C175.526 170.703 175.46 171.017 175.46 171.37C175.46 171.723 175.526 172.04 175.66 172.32C175.8 172.593 175.99 172.81 176.23 172.97C176.47 173.13 176.746 173.21 177.06 173.21ZM183.518 174.1C182.978 174.1 182.498 173.987 182.078 173.76C181.664 173.527 181.338 173.21 181.098 172.81C180.864 172.41 180.748 171.95 180.748 171.43C180.748 171.017 180.814 170.64 180.948 170.3C181.081 169.96 181.264 169.667 181.498 169.42C181.738 169.167 182.021 168.973 182.348 168.84C182.681 168.7 183.041 168.63 183.428 168.63C183.768 168.63 184.084 168.697 184.378 168.83C184.671 168.957 184.924 169.133 185.138 169.36C185.358 169.587 185.524 169.857 185.638 170.17C185.758 170.477 185.814 170.813 185.808 171.18L185.798 171.62H181.508L181.278 170.8H184.908L184.758 170.97V170.73C184.738 170.51 184.664 170.313 184.538 170.14C184.411 169.967 184.251 169.83 184.058 169.73C183.864 169.63 183.654 169.58 183.428 169.58C183.068 169.58 182.764 169.65 182.518 169.79C182.271 169.923 182.084 170.123 181.958 170.39C181.831 170.65 181.768 170.973 181.768 171.36C181.768 171.727 181.844 172.047 181.998 172.32C182.151 172.587 182.368 172.793 182.648 172.94C182.928 173.087 183.251 173.16 183.618 173.16C183.878 173.16 184.118 173.117 184.338 173.03C184.564 172.943 184.808 172.787 185.068 172.56L185.588 173.29C185.428 173.45 185.231 173.59 184.998 173.71C184.771 173.83 184.528 173.927 184.268 174C184.014 174.067 183.764 174.1 183.518 174.1ZM186.927 174V168.75H187.967V170.4L187.867 170C187.94 169.747 188.064 169.517 188.237 169.31C188.417 169.103 188.62 168.94 188.847 168.82C189.08 168.7 189.32 168.64 189.567 168.64C189.68 168.64 189.787 168.65 189.887 168.67C189.994 168.69 190.077 168.713 190.137 168.74L189.867 169.86C189.787 169.827 189.697 169.8 189.597 169.78C189.504 169.753 189.41 169.74 189.317 169.74C189.137 169.74 188.964 169.777 188.797 169.85C188.637 169.917 188.494 170.013 188.367 170.14C188.247 170.26 188.15 170.403 188.077 170.57C188.004 170.73 187.967 170.907 187.967 171.1V174H186.927Z" fill="black"/>
<path d="M136.47 343L134.24 336H135.39L136.74 340.38C136.78 340.487 136.817 340.613 136.85 340.76C136.883 340.9 136.913 341.043 136.94 341.19C136.967 341.337 136.99 341.473 137.01 341.6C137.037 341.727 137.06 341.83 137.08 341.91L136.79 341.9C136.89 341.547 136.967 341.273 137.02 341.08C137.08 340.887 137.127 340.74 137.16 340.64C137.193 340.533 137.223 340.443 137.25 340.37L138.51 337.21H139.48L140.7 340.37C140.767 340.53 140.823 340.69 140.87 340.85C140.923 341.003 140.97 341.16 141.01 341.32C141.05 341.473 141.093 341.637 141.14 341.81L140.88 341.88C140.913 341.7 140.937 341.56 140.95 341.46C140.97 341.353 140.987 341.267 141 341.2C141.013 341.133 141.027 341.07 141.04 341.01C141.053 340.943 141.073 340.86 141.1 340.76C141.133 340.66 141.177 340.523 141.23 340.35L142.56 336H143.72L141.49 343H140.74L138.89 338.62L138.98 338.66L137.2 343H136.47ZM146.787 343.1C146.274 343.1 145.814 342.983 145.407 342.75C145.007 342.51 144.69 342.187 144.457 341.78C144.224 341.367 144.107 340.897 144.107 340.37C144.107 339.843 144.224 339.377 144.457 338.97C144.69 338.557 145.007 338.233 145.407 338C145.814 337.76 146.274 337.64 146.787 337.64C147.294 337.64 147.747 337.76 148.147 338C148.554 338.233 148.874 338.557 149.107 338.97C149.34 339.377 149.457 339.843 149.457 340.37C149.457 340.897 149.34 341.367 149.107 341.78C148.874 342.187 148.554 342.51 148.147 342.75C147.747 342.983 147.294 343.1 146.787 343.1ZM146.787 342.16C147.1 342.16 147.38 342.083 147.627 341.93C147.874 341.77 148.067 341.557 148.207 341.29C148.347 341.017 148.414 340.71 148.407 340.37C148.414 340.023 148.347 339.717 148.207 339.45C148.067 339.177 147.874 338.963 147.627 338.81C147.38 338.657 147.1 338.58 146.787 338.58C146.474 338.58 146.19 338.66 145.937 338.82C145.69 338.973 145.497 339.187 145.357 339.46C145.217 339.727 145.15 340.03 145.157 340.37C145.15 340.71 145.217 341.017 145.357 341.29C145.497 341.557 145.69 341.77 145.937 341.93C146.19 342.083 146.474 342.16 146.787 342.16ZM150.579 343V337.75H151.619V339.4L151.519 339C151.593 338.747 151.716 338.517 151.889 338.31C152.069 338.103 152.273 337.94 152.499 337.82C152.733 337.7 152.973 337.64 153.219 337.64C153.333 337.64 153.439 337.65 153.539 337.67C153.646 337.69 153.729 337.713 153.789 337.74L153.519 338.86C153.439 338.827 153.349 338.8 153.249 338.78C153.156 338.753 153.063 338.74 152.969 338.74C152.789 338.74 152.616 338.777 152.449 338.85C152.289 338.917 152.146 339.013 152.019 339.14C151.899 339.26 151.803 339.403 151.729 339.57C151.656 339.73 151.619 339.907 151.619 340.1V343H150.579ZM155.553 341.36L155.503 340.24L158.013 337.75H159.403L155.553 341.36ZM154.613 343V335.6H155.643V343H154.613ZM158.153 343L156.173 340.69L156.903 340.02L159.473 343H158.153ZM166.289 343.1C165.796 343.1 165.339 343.01 164.919 342.83C164.506 342.65 164.142 342.4 163.829 342.08C163.522 341.753 163.282 341.373 163.109 340.94C162.942 340.5 162.859 340.02 162.859 339.5C162.859 338.98 162.942 338.503 163.109 338.07C163.282 337.63 163.522 337.25 163.829 336.93C164.142 336.603 164.506 336.35 164.919 336.17C165.339 335.99 165.796 335.9 166.289 335.9C166.782 335.9 167.236 335.99 167.649 336.17C168.069 336.35 168.432 336.603 168.739 336.93C169.052 337.257 169.292 337.64 169.459 338.08C169.632 338.513 169.719 338.987 169.719 339.5C169.719 340.013 169.632 340.49 169.459 340.93C169.292 341.363 169.052 341.743 168.739 342.07C168.432 342.397 168.069 342.65 167.649 342.83C167.236 343.01 166.782 343.1 166.289 343.1ZM166.289 342.05C166.629 342.05 166.939 341.987 167.219 341.86C167.506 341.733 167.752 341.557 167.959 341.33C168.166 341.097 168.326 340.827 168.439 340.52C168.559 340.207 168.619 339.867 168.619 339.5C168.619 339.133 168.559 338.797 168.439 338.49C168.326 338.177 168.166 337.907 167.959 337.68C167.752 337.447 167.506 337.267 167.219 337.14C166.939 337.013 166.629 336.95 166.289 336.95C165.949 336.95 165.636 337.013 165.349 337.14C165.069 337.267 164.822 337.443 164.609 337.67C164.402 337.897 164.242 338.167 164.129 338.48C164.016 338.787 163.959 339.127 163.959 339.5C163.959 339.867 164.016 340.207 164.129 340.52C164.242 340.833 164.402 341.103 164.609 341.33C164.822 341.557 165.069 341.733 165.349 341.86C165.636 341.987 165.949 342.05 166.289 342.05ZM170.921 343V337.75H171.961V339.4L171.861 339C171.935 338.747 172.058 338.517 172.231 338.31C172.411 338.103 172.615 337.94 172.841 337.82C173.075 337.7 173.315 337.64 173.561 337.64C173.675 337.64 173.781 337.65 173.881 337.67C173.988 337.69 174.071 337.713 174.131 337.74L173.861 338.86C173.781 338.827 173.691 338.8 173.591 338.78C173.498 338.753 173.405 338.74 173.311 338.74C173.131 338.74 172.958 338.777 172.791 338.85C172.631 338.917 172.488 339.013 172.361 339.14C172.241 339.26 172.145 339.403 172.071 339.57C171.998 339.73 171.961 339.907 171.961 340.1V343H170.921ZM176.92 343.1C176.44 343.1 176.01 342.983 175.63 342.75C175.256 342.51 174.96 342.187 174.74 341.78C174.52 341.367 174.41 340.897 174.41 340.37C174.41 339.843 174.516 339.377 174.73 338.97C174.95 338.557 175.246 338.233 175.62 338C175.993 337.76 176.416 337.64 176.89 337.64C177.15 337.64 177.4 337.683 177.64 337.77C177.886 337.85 178.106 337.963 178.3 338.11C178.493 338.25 178.643 338.407 178.75 338.58C178.863 338.747 178.92 338.917 178.92 339.09L178.62 339.11V335.6H179.65V343H178.62V341.75H178.82C178.82 341.91 178.766 342.07 178.66 342.23C178.553 342.383 178.41 342.527 178.23 342.66C178.056 342.793 177.853 342.9 177.62 342.98C177.393 343.06 177.16 343.1 176.92 343.1ZM177.06 342.21C177.373 342.21 177.65 342.13 177.89 341.97C178.13 341.81 178.316 341.593 178.45 341.32C178.59 341.04 178.66 340.723 178.66 340.37C178.66 340.017 178.59 339.703 178.45 339.43C178.316 339.15 178.13 338.93 177.89 338.77C177.65 338.61 177.373 338.53 177.06 338.53C176.746 338.53 176.47 338.61 176.23 338.77C175.99 338.93 175.8 339.15 175.66 339.43C175.526 339.703 175.46 340.017 175.46 340.37C175.46 340.723 175.526 341.04 175.66 341.32C175.8 341.593 175.99 341.81 176.23 341.97C176.47 342.13 176.746 342.21 177.06 342.21ZM183.518 343.1C182.978 343.1 182.498 342.987 182.078 342.76C181.664 342.527 181.338 342.21 181.098 341.81C180.864 341.41 180.748 340.95 180.748 340.43C180.748 340.017 180.814 339.64 180.948 339.3C181.081 338.96 181.264 338.667 181.498 338.42C181.738 338.167 182.021 337.973 182.348 337.84C182.681 337.7 183.041 337.63 183.428 337.63C183.768 337.63 184.084 337.697 184.378 337.83C184.671 337.957 184.924 338.133 185.138 338.36C185.358 338.587 185.524 338.857 185.638 339.17C185.758 339.477 185.814 339.813 185.808 340.18L185.798 340.62H181.508L181.278 339.8H184.908L184.758 339.97V339.73C184.738 339.51 184.664 339.313 184.538 339.14C184.411 338.967 184.251 338.83 184.058 338.73C183.864 338.63 183.654 338.58 183.428 338.58C183.068 338.58 182.764 338.65 182.518 338.79C182.271 338.923 182.084 339.123 181.958 339.39C181.831 339.65 181.768 339.973 181.768 340.36C181.768 340.727 181.844 341.047 181.998 341.32C182.151 341.587 182.368 341.793 182.648 341.94C182.928 342.087 183.251 342.16 183.618 342.16C183.878 342.16 184.118 342.117 184.338 342.03C184.564 341.943 184.808 341.787 185.068 341.56L185.588 342.29C185.428 342.45 185.231 342.59 184.998 342.71C184.771 342.83 184.528 342.927 184.268 343C184.014 343.067 183.764 343.1 183.518 343.1ZM186.927 343V337.75H187.967V339.4L187.867 339C187.94 338.747 188.064 338.517 188.237 338.31C188.417 338.103 188.62 337.94 188.847 337.82C189.08 337.7 189.32 337.64 189.567 337.64C189.68 337.64 189.787 337.65 189.887 337.67C189.994 337.69 190.077 337.713 190.137 337.74L189.867 338.86C189.787 338.827 189.697 338.8 189.597 338.78C189.504 338.753 189.41 338.74 189.317 338.74C189.137 338.74 188.964 338.777 188.797 338.85C188.637 338.917 188.494 339.013 188.367 339.14C188.247 339.26 188.15 339.403 188.077 339.57C188.004 339.73 187.967 339.907 187.967 340.1V343H186.927Z" fill="black"/>
<path d="M134.98 232V225H137.83C138.21 225 138.553 225.097 138.86 225.29C139.173 225.477 139.423 225.733 139.61 226.06C139.797 226.387 139.89 226.75 139.89 227.15C139.89 227.55 139.797 227.913 139.61 228.24C139.423 228.567 139.173 228.83 138.86 229.03C138.553 229.223 138.21 229.32 137.83 229.32H136.06V232H134.98ZM136.06 228.28H137.81C137.99 228.28 138.153 228.23 138.3 228.13C138.447 228.023 138.563 227.887 138.65 227.72C138.743 227.547 138.79 227.357 138.79 227.15C138.79 226.943 138.743 226.757 138.65 226.59C138.563 226.423 138.447 226.29 138.3 226.19C138.153 226.09 137.99 226.04 137.81 226.04H136.06V228.28ZM141.058 232V226.75H142.098V228.4L141.998 228C142.071 227.747 142.195 227.517 142.368 227.31C142.548 227.103 142.751 226.94 142.978 226.82C143.211 226.7 143.451 226.64 143.698 226.64C143.811 226.64 143.918 226.65 144.018 226.67C144.125 226.69 144.208 226.713 144.268 226.74L143.998 227.86C143.918 227.827 143.828 227.8 143.728 227.78C143.635 227.753 143.541 227.74 143.448 227.74C143.268 227.74 143.095 227.777 142.928 227.85C142.768 227.917 142.625 228.013 142.498 228.14C142.378 228.26 142.281 228.403 142.208 228.57C142.135 228.73 142.098 228.907 142.098 229.1V232H141.058ZM147.226 232.1C146.713 232.1 146.253 231.983 145.846 231.75C145.446 231.51 145.13 231.187 144.896 230.78C144.663 230.367 144.546 229.897 144.546 229.37C144.546 228.843 144.663 228.377 144.896 227.97C145.13 227.557 145.446 227.233 145.846 227C146.253 226.76 146.713 226.64 147.226 226.64C147.733 226.64 148.186 226.76 148.586 227C148.993 227.233 149.313 227.557 149.546 227.97C149.78 228.377 149.896 228.843 149.896 229.37C149.896 229.897 149.78 230.367 149.546 230.78C149.313 231.187 148.993 231.51 148.586 231.75C148.186 231.983 147.733 232.1 147.226 232.1ZM147.226 231.16C147.54 231.16 147.82 231.083 148.066 230.93C148.313 230.77 148.506 230.557 148.646 230.29C148.786 230.017 148.853 229.71 148.846 229.37C148.853 229.023 148.786 228.717 148.646 228.45C148.506 228.177 148.313 227.963 148.066 227.81C147.82 227.657 147.54 227.58 147.226 227.58C146.913 227.58 146.63 227.66 146.376 227.82C146.13 227.973 145.936 228.187 145.796 228.46C145.656 228.727 145.59 229.03 145.596 229.37C145.59 229.71 145.656 230.017 145.796 230.29C145.936 230.557 146.13 230.77 146.376 230.93C146.63 231.083 146.913 231.16 147.226 231.16ZM151.019 234.2V226.75H152.059V227.95L151.899 227.86C151.939 227.66 152.052 227.47 152.239 227.29C152.425 227.103 152.652 226.953 152.919 226.84C153.192 226.72 153.472 226.66 153.759 226.66C154.232 226.66 154.652 226.777 155.019 227.01C155.385 227.243 155.675 227.563 155.889 227.97C156.102 228.377 156.209 228.843 156.209 229.37C156.209 229.89 156.102 230.357 155.889 230.77C155.682 231.177 155.395 231.5 155.029 231.74C154.662 231.973 154.249 232.09 153.789 232.09C153.482 232.09 153.185 232.03 152.899 231.91C152.612 231.783 152.369 231.623 152.169 231.43C151.969 231.237 151.845 231.037 151.799 230.83L152.059 230.69V234.2H151.019ZM153.619 231.14C153.925 231.14 154.199 231.063 154.439 230.91C154.679 230.757 154.869 230.547 155.009 230.28C155.149 230.013 155.219 229.71 155.219 229.37C155.219 229.03 155.149 228.73 155.009 228.47C154.875 228.203 154.689 227.993 154.449 227.84C154.209 227.687 153.932 227.61 153.619 227.61C153.305 227.61 153.029 227.687 152.789 227.84C152.549 227.987 152.359 228.193 152.219 228.46C152.079 228.727 152.009 229.03 152.009 229.37C152.009 229.71 152.079 230.013 152.219 230.28C152.359 230.547 152.549 230.757 152.789 230.91C153.029 231.063 153.305 231.14 153.619 231.14ZM159.777 232.1C159.237 232.1 158.757 231.987 158.337 231.76C157.924 231.527 157.597 231.21 157.357 230.81C157.124 230.41 157.007 229.95 157.007 229.43C157.007 229.017 157.074 228.64 157.207 228.3C157.341 227.96 157.524 227.667 157.757 227.42C157.997 227.167 158.281 226.973 158.607 226.84C158.941 226.7 159.301 226.63 159.687 226.63C160.027 226.63 160.344 226.697 160.637 226.83C160.931 226.957 161.184 227.133 161.397 227.36C161.617 227.587 161.784 227.857 161.897 228.17C162.017 228.477 162.074 228.813 162.067 229.18L162.057 229.62H157.767L157.537 228.8H161.167L161.017 228.97V228.73C160.997 228.51 160.924 228.313 160.797 228.14C160.671 227.967 160.511 227.83 160.317 227.73C160.124 227.63 159.914 227.58 159.687 227.58C159.327 227.58 159.024 227.65 158.777 227.79C158.531 227.923 158.344 228.123 158.217 228.39C158.091 228.65 158.027 228.973 158.027 229.36C158.027 229.727 158.104 230.047 158.257 230.32C158.411 230.587 158.627 230.793 158.907 230.94C159.187 231.087 159.511 231.16 159.877 231.16C160.137 231.16 160.377 231.117 160.597 231.03C160.824 230.943 161.067 230.787 161.327 230.56L161.847 231.29C161.687 231.45 161.491 231.59 161.257 231.71C161.031 231.83 160.787 231.927 160.527 232C160.274 232.067 160.024 232.1 159.777 232.1ZM163.187 232V226.75H164.227V228.4L164.127 228C164.2 227.747 164.323 227.517 164.497 227.31C164.677 227.103 164.88 226.94 165.107 226.82C165.34 226.7 165.58 226.64 165.827 226.64C165.94 226.64 166.047 226.65 166.147 226.67C166.253 226.69 166.337 226.713 166.397 226.74L166.127 227.86C166.047 227.827 165.957 227.8 165.857 227.78C165.763 227.753 165.67 227.74 165.577 227.74C165.397 227.74 165.223 227.777 165.057 227.85C164.897 227.917 164.753 228.013 164.627 228.14C164.507 228.26 164.41 228.403 164.337 228.57C164.263 228.73 164.227 228.907 164.227 229.1V232H163.187ZM168.065 232V225.41H169.095V232H168.065ZM166.975 227.75V226.75H170.315V227.75H166.975ZM172.133 234.3L173.193 231.85L173.203 232.67L170.583 226.75H171.783L173.423 230.61C173.457 230.677 173.497 230.78 173.543 230.92C173.59 231.053 173.63 231.187 173.663 231.32L173.403 231.38C173.457 231.24 173.507 231.1 173.553 230.96C173.607 230.82 173.657 230.68 173.703 230.54L175.073 226.75H176.293L174.133 232L173.243 234.3H172.133ZM179.866 232V231H180.996V226H179.866V225H183.206V226H182.076V231H183.206V232H179.866ZM184.642 232V226.75H185.672V227.83L185.492 227.95C185.559 227.717 185.689 227.503 185.882 227.31C186.075 227.11 186.305 226.95 186.572 226.83C186.839 226.703 187.112 226.64 187.392 226.64C187.792 226.64 188.125 226.72 188.392 226.88C188.659 227.033 188.859 227.27 188.992 227.59C189.125 227.91 189.192 228.313 189.192 228.8V232H188.162V228.87C188.162 228.57 188.122 228.323 188.042 228.13C187.962 227.93 187.839 227.787 187.672 227.7C187.505 227.607 187.299 227.567 187.052 227.58C186.852 227.58 186.669 227.613 186.502 227.68C186.335 227.74 186.189 227.827 186.062 227.94C185.942 228.053 185.845 228.187 185.772 228.34C185.705 228.487 185.672 228.647 185.672 228.82V232H185.162C185.075 232 184.989 232 184.902 232C184.815 232 184.729 232 184.642 232ZM192.339 232.1C191.899 232.1 191.502 232.023 191.149 231.87C190.796 231.717 190.502 231.49 190.269 231.19L190.969 230.59C191.169 230.823 191.386 230.993 191.619 231.1C191.859 231.2 192.129 231.25 192.429 231.25C192.549 231.25 192.659 231.237 192.759 231.21C192.866 231.177 192.956 231.13 193.029 231.07C193.109 231.01 193.169 230.94 193.209 230.86C193.249 230.773 193.269 230.68 193.269 230.58C193.269 230.407 193.206 230.267 193.079 230.16C193.012 230.113 192.906 230.063 192.759 230.01C192.619 229.95 192.436 229.89 192.209 229.83C191.822 229.73 191.506 229.617 191.259 229.49C191.012 229.363 190.822 229.22 190.689 229.06C190.589 228.933 190.516 228.797 190.469 228.65C190.422 228.497 190.399 228.33 190.399 228.15C190.399 227.93 190.446 227.73 190.539 227.55C190.639 227.363 190.772 227.203 190.939 227.07C191.112 226.93 191.312 226.823 191.539 226.75C191.772 226.677 192.019 226.64 192.279 226.64C192.526 226.64 192.769 226.673 193.009 226.74C193.256 226.807 193.482 226.903 193.689 227.03C193.896 227.157 194.069 227.307 194.209 227.48L193.619 228.13C193.492 228.003 193.352 227.893 193.199 227.8C193.052 227.7 192.902 227.623 192.749 227.57C192.596 227.517 192.456 227.49 192.329 227.49C192.189 227.49 192.062 227.503 191.949 227.53C191.836 227.557 191.739 227.597 191.659 227.65C191.586 227.703 191.529 227.77 191.489 227.85C191.449 227.93 191.429 228.02 191.429 228.12C191.436 228.207 191.456 228.29 191.489 228.37C191.529 228.443 191.582 228.507 191.649 228.56C191.722 228.613 191.832 228.67 191.979 228.73C192.126 228.79 192.312 228.847 192.539 228.9C192.872 228.987 193.146 229.083 193.359 229.19C193.579 229.29 193.752 229.407 193.879 229.54C194.012 229.667 194.106 229.813 194.159 229.98C194.212 230.147 194.239 230.333 194.239 230.54C194.239 230.84 194.152 231.11 193.979 231.35C193.812 231.583 193.586 231.767 193.299 231.9C193.012 232.033 192.692 232.1 192.339 232.1ZM195.374 234.2V226.75H196.414V227.95L196.254 227.86C196.294 227.66 196.408 227.47 196.594 227.29C196.781 227.103 197.008 226.953 197.274 226.84C197.548 226.72 197.828 226.66 198.114 226.66C198.588 226.66 199.008 226.777 199.374 227.01C199.741 227.243 200.031 227.563 200.244 227.97C200.458 228.377 200.564 228.843 200.564 229.37C200.564 229.89 200.458 230.357 200.244 230.77C200.038 231.177 199.751 231.5 199.384 231.74C199.018 231.973 198.604 232.09 198.144 232.09C197.838 232.09 197.541 232.03 197.254 231.91C196.968 231.783 196.724 231.623 196.524 231.43C196.324 231.237 196.201 231.037 196.154 230.83L196.414 230.69V234.2H195.374ZM197.974 231.14C198.281 231.14 198.554 231.063 198.794 230.91C199.034 230.757 199.224 230.547 199.364 230.28C199.504 230.013 199.574 229.71 199.574 229.37C199.574 229.03 199.504 228.73 199.364 228.47C199.231 228.203 199.044 227.993 198.804 227.84C198.564 227.687 198.288 227.61 197.974 227.61C197.661 227.61 197.384 227.687 197.144 227.84C196.904 227.987 196.714 228.193 196.574 228.46C196.434 228.727 196.364 229.03 196.364 229.37C196.364 229.71 196.434 230.013 196.574 230.28C196.714 230.547 196.904 230.757 197.144 230.91C197.384 231.063 197.661 231.14 197.974 231.14ZM204.133 232.1C203.593 232.1 203.113 231.987 202.693 231.76C202.28 231.527 201.953 231.21 201.713 230.81C201.48 230.41 201.363 229.95 201.363 229.43C201.363 229.017 201.43 228.64 201.563 228.3C201.696 227.96 201.88 227.667 202.113 227.42C202.353 227.167 202.636 226.973 202.963 226.84C203.296 226.7 203.656 226.63 204.043 226.63C204.383 226.63 204.7 226.697 204.993 226.83C205.286 226.957 205.54 227.133 205.753 227.36C205.973 227.587 206.14 227.857 206.253 228.17C206.373 228.477 206.43 228.813 206.423 229.18L206.413 229.62H202.123L201.893 228.8H205.523L205.373 228.97V228.73C205.353 228.51 205.28 228.313 205.153 228.14C205.026 227.967 204.866 227.83 204.673 227.73C204.48 227.63 204.27 227.58 204.043 227.58C203.683 227.58 203.38 227.65 203.133 227.79C202.886 227.923 202.7 228.123 202.573 228.39C202.446 228.65 202.383 228.973 202.383 229.36C202.383 229.727 202.46 230.047 202.613 230.32C202.766 230.587 202.983 230.793 203.263 230.94C203.543 231.087 203.866 231.16 204.233 231.16C204.493 231.16 204.733 231.117 204.953 231.03C205.18 230.943 205.423 230.787 205.683 230.56L206.203 231.29C206.043 231.45 205.846 231.59 205.613 231.71C205.386 231.83 205.143 231.927 204.883 232C204.63 232.067 204.38 232.1 204.133 232.1ZM209.772 232.1C209.286 232.1 208.849 231.98 208.462 231.74C208.082 231.5 207.779 231.173 207.552 230.76C207.332 230.347 207.222 229.883 207.222 229.37C207.222 228.857 207.332 228.393 207.552 227.98C207.779 227.567 208.082 227.24 208.462 227C208.849 226.76 209.286 226.64 209.772 226.64C210.239 226.64 210.662 226.737 211.042 226.93C211.429 227.117 211.722 227.373 211.922 227.7L211.352 228.4C211.246 228.247 211.109 228.107 210.942 227.98C210.776 227.853 210.599 227.753 210.412 227.68C210.226 227.607 210.046 227.57 209.872 227.57C209.552 227.57 209.266 227.65 209.012 227.81C208.766 227.963 208.569 228.177 208.422 228.45C208.276 228.723 208.202 229.03 208.202 229.37C208.202 229.71 208.279 230.017 208.432 230.29C208.586 230.557 208.789 230.77 209.042 230.93C209.296 231.09 209.576 231.17 209.882 231.17C210.062 231.17 210.236 231.14 210.402 231.08C210.576 231.02 210.742 230.93 210.902 230.81C211.062 230.69 211.212 230.543 211.352 230.37L211.922 231.07C211.709 231.37 211.402 231.617 211.002 231.81C210.609 232.003 210.199 232.1 209.772 232.1ZM213.544 232V225.41H214.574V232H213.544ZM212.454 227.75V226.75H215.794V227.75H212.454ZM216.902 232V226.75H217.932V232H216.902ZM217.402 225.59C217.182 225.59 217.012 225.533 216.892 225.42C216.772 225.307 216.712 225.147 216.712 224.94C216.712 224.747 216.772 224.59 216.892 224.47C217.018 224.35 217.188 224.29 217.402 224.29C217.622 224.29 217.792 224.347 217.912 224.46C218.032 224.573 218.092 224.733 218.092 224.94C218.092 225.133 218.028 225.29 217.902 225.41C217.782 225.53 217.615 225.59 217.402 225.59ZM221.875 232.1C221.362 232.1 220.902 231.983 220.495 231.75C220.095 231.51 219.778 231.187 219.545 230.78C219.312 230.367 219.195 229.897 219.195 229.37C219.195 228.843 219.312 228.377 219.545 227.97C219.778 227.557 220.095 227.233 220.495 227C220.902 226.76 221.362 226.64 221.875 226.64C222.382 226.64 222.835 226.76 223.235 227C223.642 227.233 223.962 227.557 224.195 227.97C224.428 228.377 224.545 228.843 224.545 229.37C224.545 229.897 224.428 230.367 224.195 230.78C223.962 231.187 223.642 231.51 223.235 231.75C222.835 231.983 222.382 232.1 221.875 232.1ZM221.875 231.16C222.188 231.16 222.468 231.083 222.715 230.93C222.962 230.77 223.155 230.557 223.295 230.29C223.435 230.017 223.502 229.71 223.495 229.37C223.502 229.023 223.435 228.717 223.295 228.45C223.155 228.177 222.962 227.963 222.715 227.81C222.468 227.657 222.188 227.58 221.875 227.58C221.562 227.58 221.278 227.66 221.025 227.82C220.778 227.973 220.585 228.187 220.445 228.46C220.305 228.727 220.238 229.03 220.245 229.37C220.238 229.71 220.305 230.017 220.445 230.29C220.585 230.557 220.778 230.77 221.025 230.93C221.278 231.083 221.562 231.16 221.875 231.16ZM225.667 232V226.75H226.697V227.83L226.517 227.95C226.584 227.717 226.714 227.503 226.907 227.31C227.101 227.11 227.331 226.95 227.597 226.83C227.864 226.703 228.137 226.64 228.417 226.64C228.817 226.64 229.151 226.72 229.417 226.88C229.684 227.033 229.884 227.27 230.017 227.59C230.151 227.91 230.217 228.313 230.217 228.8V232H229.187V228.87C229.187 228.57 229.147 228.323 229.067 228.13C228.987 227.93 228.864 227.787 228.697 227.7C228.531 227.607 228.324 227.567 228.077 227.58C227.877 227.58 227.694 227.613 227.527 227.68C227.361 227.74 227.214 227.827 227.087 227.94C226.967 228.053 226.871 228.187 226.797 228.34C226.731 228.487 226.697 228.647 226.697 228.82V232H226.187C226.101 232 226.014 232 225.927 232C225.841 232 225.754 232 225.667 232Z" fill="black"/>
<path d="M134.98 401V394H137.83C138.21 394 138.553 394.097 138.86 394.29C139.173 394.477 139.423 394.733 139.61 395.06C139.797 395.387 139.89 395.75 139.89 396.15C139.89 396.55 139.797 396.913 139.61 397.24C139.423 397.567 139.173 397.83 138.86 398.03C138.553 398.223 138.21 398.32 137.83 398.32H136.06V401H134.98ZM136.06 397.28H137.81C137.99 397.28 138.153 397.23 138.3 397.13C138.447 397.023 138.563 396.887 138.65 396.72C138.743 396.547 138.79 396.357 138.79 396.15C138.79 395.943 138.743 395.757 138.65 395.59C138.563 395.423 138.447 395.29 138.3 395.19C138.153 395.09 137.99 395.04 137.81 395.04H136.06V397.28ZM141.058 401V395.75H142.098V397.4L141.998 397C142.071 396.747 142.195 396.517 142.368 396.31C142.548 396.103 142.751 395.94 142.978 395.82C143.211 395.7 143.451 395.64 143.698 395.64C143.811 395.64 143.918 395.65 144.018 395.67C144.125 395.69 144.208 395.713 144.268 395.74L143.998 396.86C143.918 396.827 143.828 396.8 143.728 396.78C143.635 396.753 143.541 396.74 143.448 396.74C143.268 396.74 143.095 396.777 142.928 396.85C142.768 396.917 142.625 397.013 142.498 397.14C142.378 397.26 142.281 397.403 142.208 397.57C142.135 397.73 142.098 397.907 142.098 398.1V401H141.058ZM147.226 401.1C146.713 401.1 146.253 400.983 145.846 400.75C145.446 400.51 145.13 400.187 144.896 399.78C144.663 399.367 144.546 398.897 144.546 398.37C144.546 397.843 144.663 397.377 144.896 396.97C145.13 396.557 145.446 396.233 145.846 396C146.253 395.76 146.713 395.64 147.226 395.64C147.733 395.64 148.186 395.76 148.586 396C148.993 396.233 149.313 396.557 149.546 396.97C149.78 397.377 149.896 397.843 149.896 398.37C149.896 398.897 149.78 399.367 149.546 399.78C149.313 400.187 148.993 400.51 148.586 400.75C148.186 400.983 147.733 401.1 147.226 401.1ZM147.226 400.16C147.54 400.16 147.82 400.083 148.066 399.93C148.313 399.77 148.506 399.557 148.646 399.29C148.786 399.017 148.853 398.71 148.846 398.37C148.853 398.023 148.786 397.717 148.646 397.45C148.506 397.177 148.313 396.963 148.066 396.81C147.82 396.657 147.54 396.58 147.226 396.58C146.913 396.58 146.63 396.66 146.376 396.82C146.13 396.973 145.936 397.187 145.796 397.46C145.656 397.727 145.59 398.03 145.596 398.37C145.59 398.71 145.656 399.017 145.796 399.29C145.936 399.557 146.13 399.77 146.376 399.93C146.63 400.083 146.913 400.16 147.226 400.16ZM151.019 403.2V395.75H152.059V396.95L151.899 396.86C151.939 396.66 152.052 396.47 152.239 396.29C152.425 396.103 152.652 395.953 152.919 395.84C153.192 395.72 153.472 395.66 153.759 395.66C154.232 395.66 154.652 395.777 155.019 396.01C155.385 396.243 155.675 396.563 155.889 396.97C156.102 397.377 156.209 397.843 156.209 398.37C156.209 398.89 156.102 399.357 155.889 399.77C155.682 400.177 155.395 400.5 155.029 400.74C154.662 400.973 154.249 401.09 153.789 401.09C153.482 401.09 153.185 401.03 152.899 400.91C152.612 400.783 152.369 400.623 152.169 400.43C151.969 400.237 151.845 400.037 151.799 399.83L152.059 399.69V403.2H151.019ZM153.619 400.14C153.925 400.14 154.199 400.063 154.439 399.91C154.679 399.757 154.869 399.547 155.009 399.28C155.149 399.013 155.219 398.71 155.219 398.37C155.219 398.03 155.149 397.73 155.009 397.47C154.875 397.203 154.689 396.993 154.449 396.84C154.209 396.687 153.932 396.61 153.619 396.61C153.305 396.61 153.029 396.687 152.789 396.84C152.549 396.987 152.359 397.193 152.219 397.46C152.079 397.727 152.009 398.03 152.009 398.37C152.009 398.71 152.079 399.013 152.219 399.28C152.359 399.547 152.549 399.757 152.789 399.91C153.029 400.063 153.305 400.14 153.619 400.14ZM159.777 401.1C159.237 401.1 158.757 400.987 158.337 400.76C157.924 400.527 157.597 400.21 157.357 399.81C157.124 399.41 157.007 398.95 157.007 398.43C157.007 398.017 157.074 397.64 157.207 397.3C157.341 396.96 157.524 396.667 157.757 396.42C157.997 396.167 158.281 395.973 158.607 395.84C158.941 395.7 159.301 395.63 159.687 395.63C160.027 395.63 160.344 395.697 160.637 395.83C160.931 395.957 161.184 396.133 161.397 396.36C161.617 396.587 161.784 396.857 161.897 397.17C162.017 397.477 162.074 397.813 162.067 398.18L162.057 398.62H157.767L157.537 397.8H161.167L161.017 397.97V397.73C160.997 397.51 160.924 397.313 160.797 397.14C160.671 396.967 160.511 396.83 160.317 396.73C160.124 396.63 159.914 396.58 159.687 396.58C159.327 396.58 159.024 396.65 158.777 396.79C158.531 396.923 158.344 397.123 158.217 397.39C158.091 397.65 158.027 397.973 158.027 398.36C158.027 398.727 158.104 399.047 158.257 399.32C158.411 399.587 158.627 399.793 158.907 399.94C159.187 400.087 159.511 400.16 159.877 400.16C160.137 400.16 160.377 400.117 160.597 400.03C160.824 399.943 161.067 399.787 161.327 399.56L161.847 400.29C161.687 400.45 161.491 400.59 161.257 400.71C161.031 400.83 160.787 400.927 160.527 401C160.274 401.067 160.024 401.1 159.777 401.1ZM163.187 401V395.75H164.227V397.4L164.127 397C164.2 396.747 164.323 396.517 164.497 396.31C164.677 396.103 164.88 395.94 165.107 395.82C165.34 395.7 165.58 395.64 165.827 395.64C165.94 395.64 166.047 395.65 166.147 395.67C166.253 395.69 166.337 395.713 166.397 395.74L166.127 396.86C166.047 396.827 165.957 396.8 165.857 396.78C165.763 396.753 165.67 396.74 165.577 396.74C165.397 396.74 165.223 396.777 165.057 396.85C164.897 396.917 164.753 397.013 164.627 397.14C164.507 397.26 164.41 397.403 164.337 397.57C164.263 397.73 164.227 397.907 164.227 398.1V401H163.187ZM168.065 401V394.41H169.095V401H168.065ZM166.975 396.75V395.75H170.315V396.75H166.975ZM172.133 403.3L173.193 400.85L173.203 401.67L170.583 395.75H171.783L173.423 399.61C173.457 399.677 173.497 399.78 173.543 399.92C173.59 400.053 173.63 400.187 173.663 400.32L173.403 400.38C173.457 400.24 173.507 400.1 173.553 399.96C173.607 399.82 173.657 399.68 173.703 399.54L175.073 395.75H176.293L174.133 401L173.243 403.3H172.133ZM179.866 401V400H180.996V395H179.866V394H183.206V395H182.076V400H183.206V401H179.866ZM184.642 401V395.75H185.672V396.83L185.492 396.95C185.559 396.717 185.689 396.503 185.882 396.31C186.075 396.11 186.305 395.95 186.572 395.83C186.839 395.703 187.112 395.64 187.392 395.64C187.792 395.64 188.125 395.72 188.392 395.88C188.659 396.033 188.859 396.27 188.992 396.59C189.125 396.91 189.192 397.313 189.192 397.8V401H188.162V397.87C188.162 397.57 188.122 397.323 188.042 397.13C187.962 396.93 187.839 396.787 187.672 396.7C187.505 396.607 187.299 396.567 187.052 396.58C186.852 396.58 186.669 396.613 186.502 396.68C186.335 396.74 186.189 396.827 186.062 396.94C185.942 397.053 185.845 397.187 185.772 397.34C185.705 397.487 185.672 397.647 185.672 397.82V401H185.162C185.075 401 184.989 401 184.902 401C184.815 401 184.729 401 184.642 401ZM192.339 401.1C191.899 401.1 191.502 401.023 191.149 400.87C190.796 400.717 190.502 400.49 190.269 400.19L190.969 399.59C191.169 399.823 191.386 399.993 191.619 400.1C191.859 400.2 192.129 400.25 192.429 400.25C192.549 400.25 192.659 400.237 192.759 400.21C192.866 400.177 192.956 400.13 193.029 400.07C193.109 400.01 193.169 399.94 193.209 399.86C193.249 399.773 193.269 399.68 193.269 399.58C193.269 399.407 193.206 399.267 193.079 399.16C193.012 399.113 192.906 399.063 192.759 399.01C192.619 398.95 192.436 398.89 192.209 398.83C191.822 398.73 191.506 398.617 191.259 398.49C191.012 398.363 190.822 398.22 190.689 398.06C190.589 397.933 190.516 397.797 190.469 397.65C190.422 397.497 190.399 397.33 190.399 397.15C190.399 396.93 190.446 396.73 190.539 396.55C190.639 396.363 190.772 396.203 190.939 396.07C191.112 395.93 191.312 395.823 191.539 395.75C191.772 395.677 192.019 395.64 192.279 395.64C192.526 395.64 192.769 395.673 193.009 395.74C193.256 395.807 193.482 395.903 193.689 396.03C193.896 396.157 194.069 396.307 194.209 396.48L193.619 397.13C193.492 397.003 193.352 396.893 193.199 396.8C193.052 396.7 192.902 396.623 192.749 396.57C192.596 396.517 192.456 396.49 192.329 396.49C192.189 396.49 192.062 396.503 191.949 396.53C191.836 396.557 191.739 396.597 191.659 396.65C191.586 396.703 191.529 396.77 191.489 396.85C191.449 396.93 191.429 397.02 191.429 397.12C191.436 397.207 191.456 397.29 191.489 397.37C191.529 397.443 191.582 397.507 191.649 397.56C191.722 397.613 191.832 397.67 191.979 397.73C192.126 397.79 192.312 397.847 192.539 397.9C192.872 397.987 193.146 398.083 193.359 398.19C193.579 398.29 193.752 398.407 193.879 398.54C194.012 398.667 194.106 398.813 194.159 398.98C194.212 399.147 194.239 399.333 194.239 399.54C194.239 399.84 194.152 400.11 193.979 400.35C193.812 400.583 193.586 400.767 193.299 400.9C193.012 401.033 192.692 401.1 192.339 401.1ZM195.374 403.2V395.75H196.414V396.95L196.254 396.86C196.294 396.66 196.408 396.47 196.594 396.29C196.781 396.103 197.008 395.953 197.274 395.84C197.548 395.72 197.828 395.66 198.114 395.66C198.588 395.66 199.008 395.777 199.374 396.01C199.741 396.243 200.031 396.563 200.244 396.97C200.458 397.377 200.564 397.843 200.564 398.37C200.564 398.89 200.458 399.357 200.244 399.77C200.038 400.177 199.751 400.5 199.384 400.74C199.018 400.973 198.604 401.09 198.144 401.09C197.838 401.09 197.541 401.03 197.254 400.91C196.968 400.783 196.724 400.623 196.524 400.43C196.324 400.237 196.201 400.037 196.154 399.83L196.414 399.69V403.2H195.374ZM197.974 400.14C198.281 400.14 198.554 400.063 198.794 399.91C199.034 399.757 199.224 399.547 199.364 399.28C199.504 399.013 199.574 398.71 199.574 398.37C199.574 398.03 199.504 397.73 199.364 397.47C199.231 397.203 199.044 396.993 198.804 396.84C198.564 396.687 198.288 396.61 197.974 396.61C197.661 396.61 197.384 396.687 197.144 396.84C196.904 396.987 196.714 397.193 196.574 397.46C196.434 397.727 196.364 398.03 196.364 398.37C196.364 398.71 196.434 399.013 196.574 399.28C196.714 399.547 196.904 399.757 197.144 399.91C197.384 400.063 197.661 400.14 197.974 400.14ZM204.133 401.1C203.593 401.1 203.113 400.987 202.693 400.76C202.28 400.527 201.953 400.21 201.713 399.81C201.48 399.41 201.363 398.95 201.363 398.43C201.363 398.017 201.43 397.64 201.563 397.3C201.696 396.96 201.88 396.667 202.113 396.42C202.353 396.167 202.636 395.973 202.963 395.84C203.296 395.7 203.656 395.63 204.043 395.63C204.383 395.63 204.7 395.697 204.993 395.83C205.286 395.957 205.54 396.133 205.753 396.36C205.973 396.587 206.14 396.857 206.253 397.17C206.373 397.477 206.43 397.813 206.423 398.18L206.413 398.62H202.123L201.893 397.8H205.523L205.373 397.97V397.73C205.353 397.51 205.28 397.313 205.153 397.14C205.026 396.967 204.866 396.83 204.673 396.73C204.48 396.63 204.27 396.58 204.043 396.58C203.683 396.58 203.38 396.65 203.133 396.79C202.886 396.923 202.7 397.123 202.573 397.39C202.446 397.65 202.383 397.973 202.383 398.36C202.383 398.727 202.46 399.047 202.613 399.32C202.766 399.587 202.983 399.793 203.263 399.94C203.543 400.087 203.866 400.16 204.233 400.16C204.493 400.16 204.733 400.117 204.953 400.03C205.18 399.943 205.423 399.787 205.683 399.56L206.203 400.29C206.043 400.45 205.846 400.59 205.613 400.71C205.386 400.83 205.143 400.927 204.883 401C204.63 401.067 204.38 401.1 204.133 401.1ZM209.772 401.1C209.286 401.1 208.849 400.98 208.462 400.74C208.082 400.5 207.779 400.173 207.552 399.76C207.332 399.347 207.222 398.883 207.222 398.37C207.222 397.857 207.332 397.393 207.552 396.98C207.779 396.567 208.082 396.24 208.462 396C208.849 395.76 209.286 395.64 209.772 395.64C210.239 395.64 210.662 395.737 211.042 395.93C211.429 396.117 211.722 396.373 211.922 396.7L211.352 397.4C211.246 397.247 211.109 397.107 210.942 396.98C210.776 396.853 210.599 396.753 210.412 396.68C210.226 396.607 210.046 396.57 209.872 396.57C209.552 396.57 209.266 396.65 209.012 396.81C208.766 396.963 208.569 397.177 208.422 397.45C208.276 397.723 208.202 398.03 208.202 398.37C208.202 398.71 208.279 399.017 208.432 399.29C208.586 399.557 208.789 399.77 209.042 399.93C209.296 400.09 209.576 400.17 209.882 400.17C210.062 400.17 210.236 400.14 210.402 400.08C210.576 400.02 210.742 399.93 210.902 399.81C211.062 399.69 211.212 399.543 211.352 399.37L211.922 400.07C211.709 400.37 211.402 400.617 211.002 400.81C210.609 401.003 210.199 401.1 209.772 401.1ZM213.544 401V394.41H214.574V401H213.544ZM212.454 396.75V395.75H215.794V396.75H212.454ZM216.902 401V395.75H217.932V401H216.902ZM217.402 394.59C217.182 394.59 217.012 394.533 216.892 394.42C216.772 394.307 216.712 394.147 216.712 393.94C216.712 393.747 216.772 393.59 216.892 393.47C217.018 393.35 217.188 393.29 217.402 393.29C217.622 393.29 217.792 393.347 217.912 393.46C218.032 393.573 218.092 393.733 218.092 393.94C218.092 394.133 218.028 394.29 217.902 394.41C217.782 394.53 217.615 394.59 217.402 394.59ZM221.875 401.1C221.362 401.1 220.902 400.983 220.495 400.75C220.095 400.51 219.778 400.187 219.545 399.78C219.312 399.367 219.195 398.897 219.195 398.37C219.195 397.843 219.312 397.377 219.545 396.97C219.778 396.557 220.095 396.233 220.495 396C220.902 395.76 221.362 395.64 221.875 395.64C222.382 395.64 222.835 395.76 223.235 396C223.642 396.233 223.962 396.557 224.195 396.97C224.428 397.377 224.545 397.843 224.545 398.37C224.545 398.897 224.428 399.367 224.195 399.78C223.962 400.187 223.642 400.51 223.235 400.75C222.835 400.983 222.382 401.1 221.875 401.1ZM221.875 400.16C222.188 400.16 222.468 400.083 222.715 399.93C222.962 399.77 223.155 399.557 223.295 399.29C223.435 399.017 223.502 398.71 223.495 398.37C223.502 398.023 223.435 397.717 223.295 397.45C223.155 397.177 222.962 396.963 222.715 396.81C222.468 396.657 222.188 396.58 221.875 396.58C221.562 396.58 221.278 396.66 221.025 396.82C220.778 396.973 220.585 397.187 220.445 397.46C220.305 397.727 220.238 398.03 220.245 398.37C220.238 398.71 220.305 399.017 220.445 399.29C220.585 399.557 220.778 399.77 221.025 399.93C221.278 400.083 221.562 400.16 221.875 400.16ZM225.667 401V395.75H226.697V396.83L226.517 396.95C226.584 396.717 226.714 396.503 226.907 396.31C227.101 396.11 227.331 395.95 227.597 395.83C227.864 395.703 228.137 395.64 228.417 395.64C228.817 395.64 229.151 395.72 229.417 395.88C229.684 396.033 229.884 396.27 230.017 396.59C230.151 396.91 230.217 397.313 230.217 397.8V401H229.187V397.87C229.187 397.57 229.147 397.323 229.067 397.13C228.987 396.93 228.864 396.787 228.697 396.7C228.531 396.607 228.324 396.567 228.077 396.58C227.877 396.58 227.694 396.613 227.527 396.68C227.361 396.74 227.214 396.827 227.087 396.94C226.967 397.053 226.871 397.187 226.797 397.34C226.731 397.487 226.697 397.647 226.697 397.82V401H226.187C226.101 401 226.014 401 225.927 401C225.841 401 225.754 401 225.667 401Z" fill="black"/>
<rect x="134" y="185" width="77" height="7" rx="3.5" fill="#E4E6EA"/>
<rect x="134" y="354" width="77" height="7" rx="3.5" fill="#E4E6EA"/>
<rect x="134" y="243" width="77" height="7" rx="3.5" fill="#E4E6EA"/>
<rect x="134" y="412" width="77" height="7" rx="3.5" fill="#E4E6EA"/>
<rect x="308" y="185" width="77" height="7" rx="3.5" fill="#E4E6EA"/>
<rect x="327" y="174" width="58" height="7" rx="3.5" fill="#BCBCBC"/>
<rect x="308" y="354" width="77" height="7" rx="3.5" fill="#E4E6EA"/>
<rect x="327" y="343" width="58" height="7" rx="3.5" fill="#FBCFCE"/>
<rect x="308" y="243" width="77" height="7" rx="3.5" fill="#E4E6EA"/>
<rect x="327" y="232" width="58" height="7" rx="3.5" fill="#BCBCBC"/>
<rect x="308" y="412" width="77" height="7" rx="3.5" fill="#E4E6EA"/>
<rect x="327" y="401" width="58" height="7" rx="3.5" fill="#FBCFCE"/>
<path d="M102.24 140.192C101.163 140.192 100.208 139.952 99.376 139.472C98.5547 138.981 97.9093 138.304 97.44 137.44C96.9707 136.565 96.736 135.552 96.736 134.4C96.736 133.259 96.9707 132.256 97.44 131.392C97.9093 130.517 98.5547 129.835 99.376 129.344C100.208 128.853 101.163 128.608 102.24 128.608C103.339 128.608 104.304 128.853 105.136 129.344C105.968 129.835 106.613 130.517 107.072 131.392C107.531 132.256 107.76 133.259 107.76 134.4C107.76 135.552 107.531 136.565 107.072 137.44C106.613 138.304 105.968 138.981 105.136 139.472C104.304 139.952 103.339 140.192 102.24 140.192ZM102.256 138.464C102.971 138.464 103.595 138.304 104.128 137.984C104.661 137.653 105.072 137.184 105.36 136.576C105.648 135.968 105.792 135.243 105.792 134.4C105.792 133.557 105.648 132.832 105.36 132.224C105.072 131.616 104.661 131.152 104.128 130.832C103.595 130.501 102.971 130.336 102.256 130.336C101.541 130.336 100.917 130.501 100.384 130.832C99.8507 131.152 99.4347 131.616 99.136 132.224C98.848 132.832 98.704 133.557 98.704 134.4C98.704 135.243 98.848 135.968 99.136 136.576C99.4347 137.184 99.8507 137.653 100.384 137.984C100.917 138.304 101.541 138.464 102.256 138.464ZM111.78 140L108.804 131.936H110.82L112.948 138.176L115.076 131.936H117.06L114.084 140H111.78ZM121.817 140.192C121.017 140.192 120.313 140.021 119.705 139.68C119.097 139.328 118.622 138.837 118.281 138.208C117.939 137.579 117.769 136.853 117.769 136.032C117.769 135.179 117.934 134.432 118.265 133.792C118.606 133.152 119.081 132.651 119.689 132.288C120.307 131.925 121.022 131.744 121.833 131.744C122.622 131.744 123.31 131.92 123.897 132.272C124.483 132.624 124.937 133.099 125.257 133.696C125.577 134.283 125.737 134.944 125.737 135.68C125.737 135.787 125.737 135.904 125.737 136.032C125.737 136.16 125.726 136.293 125.705 136.432H119.145V135.2H123.801C123.779 134.613 123.582 134.155 123.209 133.824C122.835 133.483 122.371 133.312 121.817 133.312C121.422 133.312 121.059 133.403 120.729 133.584C120.398 133.765 120.137 134.037 119.945 134.4C119.753 134.752 119.657 135.2 119.657 135.744V136.208C119.657 136.709 119.747 137.141 119.929 137.504C120.121 137.867 120.377 138.144 120.697 138.336C121.027 138.517 121.395 138.608 121.801 138.608C122.249 138.608 122.617 138.512 122.905 138.32C123.203 138.128 123.422 137.872 123.561 137.552H125.513C125.363 138.053 125.118 138.507 124.777 138.912C124.435 139.307 124.014 139.621 123.513 139.856C123.011 140.08 122.446 140.192 121.817 140.192ZM127.51 140V131.936H129.222L129.398 133.44C129.59 133.088 129.83 132.789 130.118 132.544C130.406 132.288 130.742 132.091 131.126 131.952C131.52 131.813 131.952 131.744 132.422 131.744V133.776H131.75C131.43 133.776 131.126 133.819 130.838 133.904C130.55 133.979 130.299 134.107 130.086 134.288C129.883 134.459 129.723 134.699 129.606 135.008C129.488 135.307 129.43 135.685 129.43 136.144V140H127.51ZM137.281 140.192C136.534 140.192 135.868 140.011 135.281 139.648C134.694 139.285 134.236 138.784 133.905 138.144C133.585 137.504 133.425 136.779 133.425 135.968C133.425 135.157 133.59 134.437 133.921 133.808C134.252 133.168 134.71 132.667 135.297 132.304C135.894 131.931 136.566 131.744 137.313 131.744C137.921 131.744 138.449 131.861 138.897 132.096C139.356 132.32 139.718 132.64 139.985 133.056V128.48H141.905V140H140.177L139.985 138.832C139.814 139.067 139.606 139.291 139.361 139.504C139.116 139.707 138.822 139.872 138.481 140C138.14 140.128 137.74 140.192 137.281 140.192ZM137.681 138.528C138.14 138.528 138.545 138.421 138.897 138.208C139.249 137.984 139.521 137.68 139.713 137.296C139.905 136.912 140.001 136.469 140.001 135.968C140.001 135.467 139.905 135.024 139.713 134.64C139.521 134.256 139.249 133.957 138.897 133.744C138.545 133.531 138.14 133.424 137.681 133.424C137.244 133.424 136.849 133.531 136.497 133.744C136.145 133.957 135.868 134.256 135.665 134.64C135.473 135.024 135.377 135.467 135.377 135.968C135.377 136.469 135.473 136.912 135.665 137.296C135.868 137.68 136.145 137.984 136.497 138.208C136.849 138.421 137.244 138.528 137.681 138.528ZM147.033 140.192C146.382 140.192 145.822 140.064 145.353 139.808C144.894 139.541 144.542 139.147 144.297 138.624C144.051 138.091 143.929 137.435 143.929 136.656V131.936H145.849V136.464C145.849 137.157 145.993 137.685 146.281 138.048C146.579 138.4 147.027 138.576 147.625 138.576C148.009 138.576 148.35 138.485 148.649 138.304C148.958 138.123 149.198 137.861 149.369 137.52C149.55 137.168 149.641 136.741 149.641 136.24V131.936H151.561V140H149.865L149.721 138.656C149.475 139.125 149.118 139.499 148.649 139.776C148.19 140.053 147.651 140.192 147.033 140.192ZM157.473 140.192C156.673 140.192 155.969 140.021 155.361 139.68C154.753 139.328 154.278 138.837 153.937 138.208C153.596 137.579 153.425 136.853 153.425 136.032C153.425 135.179 153.59 134.432 153.921 133.792C154.262 133.152 154.737 132.651 155.345 132.288C155.964 131.925 156.678 131.744 157.489 131.744C158.278 131.744 158.966 131.92 159.553 132.272C160.14 132.624 160.593 133.099 160.913 133.696C161.233 134.283 161.393 134.944 161.393 135.68C161.393 135.787 161.393 135.904 161.393 136.032C161.393 136.16 161.382 136.293 161.361 136.432H154.801V135.2H159.457C159.436 134.613 159.238 134.155 158.865 133.824C158.492 133.483 158.028 133.312 157.473 133.312C157.078 133.312 156.716 133.403 156.385 133.584C156.054 133.765 155.793 134.037 155.601 134.4C155.409 134.752 155.313 135.2 155.313 135.744V136.208C155.313 136.709 155.404 137.141 155.585 137.504C155.777 137.867 156.033 138.144 156.353 138.336C156.684 138.517 157.052 138.608 157.457 138.608C157.905 138.608 158.273 138.512 158.561 138.32C158.86 138.128 159.078 137.872 159.217 137.552H161.169C161.02 138.053 160.774 138.507 160.433 138.912C160.092 139.307 159.67 139.621 159.169 139.856C158.668 140.08 158.102 140.192 157.473 140.192ZM167.136 140V128.8H169.056V140H167.136ZM171.244 140V131.936H172.94L173.084 133.28C173.329 132.811 173.681 132.437 174.14 132.16C174.599 131.883 175.143 131.744 175.772 131.744C176.423 131.744 176.977 131.883 177.436 132.16C177.895 132.427 178.247 132.821 178.492 133.344C178.748 133.867 178.876 134.517 178.876 135.296V140H176.956V135.472C176.956 134.8 176.807 134.283 176.508 133.92C176.209 133.557 175.767 133.376 175.18 133.376C174.796 133.376 174.449 133.467 174.14 133.648C173.841 133.829 173.601 134.096 173.42 134.448C173.249 134.789 173.164 135.205 173.164 135.696V140H171.244ZM183.014 140L180.038 131.936H182.054L184.182 138.176L186.31 131.936H188.294L185.318 140H183.014ZM193.035 140.192C192.267 140.192 191.574 140.016 190.955 139.664C190.347 139.301 189.867 138.805 189.515 138.176C189.174 137.536 189.003 136.805 189.003 135.984C189.003 135.141 189.179 134.405 189.531 133.776C189.883 133.136 190.363 132.64 190.971 132.288C191.59 131.925 192.283 131.744 193.051 131.744C193.819 131.744 194.507 131.925 195.115 132.288C195.734 132.64 196.214 133.131 196.555 133.76C196.907 134.389 197.083 135.125 197.083 135.968C197.083 136.811 196.907 137.547 196.555 138.176C196.203 138.805 195.718 139.301 195.099 139.664C194.491 140.016 193.803 140.192 193.035 140.192ZM193.035 138.544C193.419 138.544 193.766 138.448 194.075 138.256C194.395 138.064 194.651 137.776 194.843 137.392C195.035 137.008 195.131 136.533 195.131 135.968C195.131 135.403 195.035 134.933 194.843 134.56C194.662 134.176 194.411 133.888 194.091 133.696C193.782 133.504 193.435 133.408 193.051 133.408C192.678 133.408 192.331 133.504 192.011 133.696C191.691 133.888 191.435 134.176 191.243 134.56C191.051 134.933 190.955 135.403 190.955 135.968C190.955 136.533 191.051 137.008 191.243 137.392C191.435 137.776 191.686 138.064 191.995 138.256C192.315 138.448 192.662 138.544 193.035 138.544ZM199.043 140V131.936H200.963V140H199.043ZM200.003 130.656C199.651 130.656 199.357 130.549 199.123 130.336C198.899 130.112 198.787 129.84 198.787 129.52C198.787 129.189 198.899 128.923 199.123 128.72C199.357 128.507 199.651 128.4 200.003 128.4C200.355 128.4 200.643 128.507 200.867 128.72C201.101 128.923 201.219 129.189 201.219 129.52C201.219 129.84 201.101 130.112 200.867 130.336C200.643 130.549 200.355 130.656 200.003 130.656ZM207.005 140.192C206.216 140.192 205.507 140.016 204.877 139.664C204.259 139.301 203.773 138.805 203.421 138.176C203.08 137.536 202.909 136.811 202.909 136C202.909 135.157 203.08 134.421 203.421 133.792C203.773 133.152 204.259 132.651 204.877 132.288C205.507 131.925 206.221 131.744 207.021 131.744C208.024 131.744 208.867 132.011 209.549 132.544C210.232 133.067 210.669 133.787 210.861 134.704H208.845C208.739 134.299 208.515 133.979 208.173 133.744C207.843 133.509 207.448 133.392 206.989 133.392C206.595 133.392 206.232 133.493 205.901 133.696C205.581 133.899 205.325 134.192 205.133 134.576C204.952 134.96 204.861 135.424 204.861 135.968C204.861 136.384 204.915 136.752 205.021 137.072C205.128 137.392 205.277 137.664 205.469 137.888C205.672 138.101 205.901 138.267 206.157 138.384C206.413 138.501 206.691 138.56 206.989 138.56C207.299 138.56 207.576 138.512 207.821 138.416C208.077 138.309 208.291 138.155 208.461 137.952C208.643 137.749 208.771 137.509 208.845 137.232H210.861C210.669 138.128 210.232 138.848 209.549 139.392C208.867 139.925 208.019 140.192 207.005 140.192ZM216.489 140.192C215.689 140.192 214.985 140.021 214.377 139.68C213.769 139.328 213.294 138.837 212.953 138.208C212.611 137.579 212.441 136.853 212.441 136.032C212.441 135.179 212.606 134.432 212.937 133.792C213.278 133.152 213.753 132.651 214.361 132.288C214.979 131.925 215.694 131.744 216.505 131.744C217.294 131.744 217.982 131.92 218.569 132.272C219.155 132.624 219.609 133.099 219.929 133.696C220.249 134.283 220.409 134.944 220.409 135.68C220.409 135.787 220.409 135.904 220.409 136.032C220.409 136.16 220.398 136.293 220.377 136.432H213.817V135.2H218.473C218.451 134.613 218.254 134.155 217.881 133.824C217.507 133.483 217.043 133.312 216.489 133.312C216.094 133.312 215.731 133.403 215.401 133.584C215.07 133.765 214.809 134.037 214.617 134.4C214.425 134.752 214.329 135.2 214.329 135.744V136.208C214.329 136.709 214.419 137.141 214.601 137.504C214.793 137.867 215.049 138.144 215.369 138.336C215.699 138.517 216.067 138.608 216.473 138.608C216.921 138.608 217.289 138.512 217.577 138.32C217.875 138.128 218.094 137.872 218.233 137.552H220.185C220.035 138.053 219.79 138.507 219.449 138.912C219.107 139.307 218.686 139.621 218.185 139.856C217.683 140.08 217.118 140.192 216.489 140.192ZM225.397 140.192C224.683 140.192 224.059 140.08 223.525 139.856C223.003 139.621 222.587 139.301 222.277 138.896C221.979 138.48 221.803 138.005 221.749 137.472H223.669C223.723 137.696 223.819 137.904 223.957 138.096C224.096 138.277 224.283 138.421 224.517 138.528C224.763 138.635 225.051 138.688 225.381 138.688C225.701 138.688 225.963 138.645 226.165 138.56C226.368 138.464 226.517 138.341 226.613 138.192C226.709 138.043 226.757 137.883 226.757 137.712C226.757 137.456 226.688 137.259 226.549 137.12C226.411 136.981 226.208 136.875 225.941 136.8C225.685 136.715 225.376 136.635 225.013 136.56C224.629 136.485 224.256 136.395 223.893 136.288C223.541 136.171 223.221 136.027 222.933 135.856C222.656 135.685 222.432 135.467 222.261 135.2C222.101 134.933 222.021 134.608 222.021 134.224C222.021 133.755 222.144 133.333 222.389 132.96C222.645 132.587 223.008 132.293 223.477 132.08C223.957 131.856 224.528 131.744 225.189 131.744C226.128 131.744 226.875 131.963 227.429 132.4C227.995 132.827 228.325 133.429 228.421 134.208H226.597C226.544 133.909 226.395 133.68 226.149 133.52C225.904 133.349 225.579 133.264 225.173 133.264C224.757 133.264 224.437 133.344 224.213 133.504C224 133.653 223.893 133.856 223.893 134.112C223.893 134.283 223.957 134.432 224.085 134.56C224.224 134.688 224.421 134.8 224.677 134.896C224.933 134.981 225.248 135.067 225.621 135.152C226.219 135.269 226.747 135.408 227.205 135.568C227.664 135.728 228.027 135.963 228.293 136.272C228.56 136.581 228.693 137.019 228.693 137.584C228.704 138.096 228.571 138.549 228.293 138.944C228.027 139.339 227.648 139.648 227.157 139.872C226.667 140.085 226.08 140.192 225.397 140.192Z" fill="#2D6ECA"/>
<path d="M102.24 309.192C101.163 309.192 100.208 308.952 99.376 308.472C98.5547 307.981 97.9093 307.304 97.44 306.44C96.9707 305.565 96.736 304.552 96.736 303.4C96.736 302.259 96.9707 301.256 97.44 300.392C97.9093 299.517 98.5547 298.835 99.376 298.344C100.208 297.853 101.163 297.608 102.24 297.608C103.339 297.608 104.304 297.853 105.136 298.344C105.968 298.835 106.613 299.517 107.072 300.392C107.531 301.256 107.76 302.259 107.76 303.4C107.76 304.552 107.531 305.565 107.072 306.44C106.613 307.304 105.968 307.981 105.136 308.472C104.304 308.952 103.339 309.192 102.24 309.192ZM102.256 307.464C102.971 307.464 103.595 307.304 104.128 306.984C104.661 306.653 105.072 306.184 105.36 305.576C105.648 304.968 105.792 304.243 105.792 303.4C105.792 302.557 105.648 301.832 105.36 301.224C105.072 300.616 104.661 300.152 104.128 299.832C103.595 299.501 102.971 299.336 102.256 299.336C101.541 299.336 100.917 299.501 100.384 299.832C99.8507 300.152 99.4347 300.616 99.136 301.224C98.848 301.832 98.704 302.557 98.704 303.4C98.704 304.243 98.848 304.968 99.136 305.576C99.4347 306.184 99.8507 306.653 100.384 306.984C100.917 307.304 101.541 307.464 102.256 307.464ZM111.78 309L108.804 300.936H110.82L112.948 307.176L115.076 300.936H117.06L114.084 309H111.78ZM121.817 309.192C121.017 309.192 120.313 309.021 119.705 308.68C119.097 308.328 118.622 307.837 118.281 307.208C117.939 306.579 117.769 305.853 117.769 305.032C117.769 304.179 117.934 303.432 118.265 302.792C118.606 302.152 119.081 301.651 119.689 301.288C120.307 300.925 121.022 300.744 121.833 300.744C122.622 300.744 123.31 300.92 123.897 301.272C124.483 301.624 124.937 302.099 125.257 302.696C125.577 303.283 125.737 303.944 125.737 304.68C125.737 304.787 125.737 304.904 125.737 305.032C125.737 305.16 125.726 305.293 125.705 305.432H119.145V304.2H123.801C123.779 303.613 123.582 303.155 123.209 302.824C122.835 302.483 122.371 302.312 121.817 302.312C121.422 302.312 121.059 302.403 120.729 302.584C120.398 302.765 120.137 303.037 119.945 303.4C119.753 303.752 119.657 304.2 119.657 304.744V305.208C119.657 305.709 119.747 306.141 119.929 306.504C120.121 306.867 120.377 307.144 120.697 307.336C121.027 307.517 121.395 307.608 121.801 307.608C122.249 307.608 122.617 307.512 122.905 307.32C123.203 307.128 123.422 306.872 123.561 306.552H125.513C125.363 307.053 125.118 307.507 124.777 307.912C124.435 308.307 124.014 308.621 123.513 308.856C123.011 309.08 122.446 309.192 121.817 309.192ZM127.51 309V300.936H129.222L129.398 302.44C129.59 302.088 129.83 301.789 130.118 301.544C130.406 301.288 130.742 301.091 131.126 300.952C131.52 300.813 131.952 300.744 132.422 300.744V302.776H131.75C131.43 302.776 131.126 302.819 130.838 302.904C130.55 302.979 130.299 303.107 130.086 303.288C129.883 303.459 129.723 303.699 129.606 304.008C129.488 304.307 129.43 304.685 129.43 305.144V309H127.51ZM137.281 309.192C136.534 309.192 135.868 309.011 135.281 308.648C134.694 308.285 134.236 307.784 133.905 307.144C133.585 306.504 133.425 305.779 133.425 304.968C133.425 304.157 133.59 303.437 133.921 302.808C134.252 302.168 134.71 301.667 135.297 301.304C135.894 300.931 136.566 300.744 137.313 300.744C137.921 300.744 138.449 300.861 138.897 301.096C139.356 301.32 139.718 301.64 139.985 302.056V297.48H141.905V309H140.177L139.985 307.832C139.814 308.067 139.606 308.291 139.361 308.504C139.116 308.707 138.822 308.872 138.481 309C138.14 309.128 137.74 309.192 137.281 309.192ZM137.681 307.528C138.14 307.528 138.545 307.421 138.897 307.208C139.249 306.984 139.521 306.68 139.713 306.296C139.905 305.912 140.001 305.469 140.001 304.968C140.001 304.467 139.905 304.024 139.713 303.64C139.521 303.256 139.249 302.957 138.897 302.744C138.545 302.531 138.14 302.424 137.681 302.424C137.244 302.424 136.849 302.531 136.497 302.744C136.145 302.957 135.868 303.256 135.665 303.64C135.473 304.024 135.377 304.467 135.377 304.968C135.377 305.469 135.473 305.912 135.665 306.296C135.868 306.68 136.145 306.984 136.497 307.208C136.849 307.421 137.244 307.528 137.681 307.528ZM147.033 309.192C146.382 309.192 145.822 309.064 145.353 308.808C144.894 308.541 144.542 308.147 144.297 307.624C144.051 307.091 143.929 306.435 143.929 305.656V300.936H145.849V305.464C145.849 306.157 145.993 306.685 146.281 307.048C146.579 307.4 147.027 307.576 147.625 307.576C148.009 307.576 148.35 307.485 148.649 307.304C148.958 307.123 149.198 306.861 149.369 306.52C149.55 306.168 149.641 305.741 149.641 305.24V300.936H151.561V309H149.865L149.721 307.656C149.475 308.125 149.118 308.499 148.649 308.776C148.19 309.053 147.651 309.192 147.033 309.192ZM157.473 309.192C156.673 309.192 155.969 309.021 155.361 308.68C154.753 308.328 154.278 307.837 153.937 307.208C153.596 306.579 153.425 305.853 153.425 305.032C153.425 304.179 153.59 303.432 153.921 302.792C154.262 302.152 154.737 301.651 155.345 301.288C155.964 300.925 156.678 300.744 157.489 300.744C158.278 300.744 158.966 300.92 159.553 301.272C160.14 301.624 160.593 302.099 160.913 302.696C161.233 303.283 161.393 303.944 161.393 304.68C161.393 304.787 161.393 304.904 161.393 305.032C161.393 305.16 161.382 305.293 161.361 305.432H154.801V304.2H159.457C159.436 303.613 159.238 303.155 158.865 302.824C158.492 302.483 158.028 302.312 157.473 302.312C157.078 302.312 156.716 302.403 156.385 302.584C156.054 302.765 155.793 303.037 155.601 303.4C155.409 303.752 155.313 304.2 155.313 304.744V305.208C155.313 305.709 155.404 306.141 155.585 306.504C155.777 306.867 156.033 307.144 156.353 307.336C156.684 307.517 157.052 307.608 157.457 307.608C157.905 307.608 158.273 307.512 158.561 307.32C158.86 307.128 159.078 306.872 159.217 306.552H161.169C161.02 307.053 160.774 307.507 160.433 307.912C160.092 308.307 159.67 308.621 159.169 308.856C158.668 309.08 158.102 309.192 157.473 309.192ZM167.136 309V297.8H169.056V309H167.136ZM171.244 309V300.936H172.94L173.084 302.28C173.329 301.811 173.681 301.437 174.14 301.16C174.599 300.883 175.143 300.744 175.772 300.744C176.423 300.744 176.977 300.883 177.436 301.16C177.895 301.427 178.247 301.821 178.492 302.344C178.748 302.867 178.876 303.517 178.876 304.296V309H176.956V304.472C176.956 303.8 176.807 303.283 176.508 302.92C176.209 302.557 175.767 302.376 175.18 302.376C174.796 302.376 174.449 302.467 174.14 302.648C173.841 302.829 173.601 303.096 173.42 303.448C173.249 303.789 173.164 304.205 173.164 304.696V309H171.244ZM183.014 309L180.038 300.936H182.054L184.182 307.176L186.31 300.936H188.294L185.318 309H183.014ZM193.035 309.192C192.267 309.192 191.574 309.016 190.955 308.664C190.347 308.301 189.867 307.805 189.515 307.176C189.174 306.536 189.003 305.805 189.003 304.984C189.003 304.141 189.179 303.405 189.531 302.776C189.883 302.136 190.363 301.64 190.971 301.288C191.59 300.925 192.283 300.744 193.051 300.744C193.819 300.744 194.507 300.925 195.115 301.288C195.734 301.64 196.214 302.131 196.555 302.76C196.907 303.389 197.083 304.125 197.083 304.968C197.083 305.811 196.907 306.547 196.555 307.176C196.203 307.805 195.718 308.301 195.099 308.664C194.491 309.016 193.803 309.192 193.035 309.192ZM193.035 307.544C193.419 307.544 193.766 307.448 194.075 307.256C194.395 307.064 194.651 306.776 194.843 306.392C195.035 306.008 195.131 305.533 195.131 304.968C195.131 304.403 195.035 303.933 194.843 303.56C194.662 303.176 194.411 302.888 194.091 302.696C193.782 302.504 193.435 302.408 193.051 302.408C192.678 302.408 192.331 302.504 192.011 302.696C191.691 302.888 191.435 303.176 191.243 303.56C191.051 303.933 190.955 304.403 190.955 304.968C190.955 305.533 191.051 306.008 191.243 306.392C191.435 306.776 191.686 307.064 191.995 307.256C192.315 307.448 192.662 307.544 193.035 307.544ZM199.043 309V300.936H200.963V309H199.043ZM200.003 299.656C199.651 299.656 199.357 299.549 199.123 299.336C198.899 299.112 198.787 298.84 198.787 298.52C198.787 298.189 198.899 297.923 199.123 297.72C199.357 297.507 199.651 297.4 200.003 297.4C200.355 297.4 200.643 297.507 200.867 297.72C201.101 297.923 201.219 298.189 201.219 298.52C201.219 298.84 201.101 299.112 200.867 299.336C200.643 299.549 200.355 299.656 200.003 299.656ZM207.005 309.192C206.216 309.192 205.507 309.016 204.877 308.664C204.259 308.301 203.773 307.805 203.421 307.176C203.08 306.536 202.909 305.811 202.909 305C202.909 304.157 203.08 303.421 203.421 302.792C203.773 302.152 204.259 301.651 204.877 301.288C205.507 300.925 206.221 300.744 207.021 300.744C208.024 300.744 208.867 301.011 209.549 301.544C210.232 302.067 210.669 302.787 210.861 303.704H208.845C208.739 303.299 208.515 302.979 208.173 302.744C207.843 302.509 207.448 302.392 206.989 302.392C206.595 302.392 206.232 302.493 205.901 302.696C205.581 302.899 205.325 303.192 205.133 303.576C204.952 303.96 204.861 304.424 204.861 304.968C204.861 305.384 204.915 305.752 205.021 306.072C205.128 306.392 205.277 306.664 205.469 306.888C205.672 307.101 205.901 307.267 206.157 307.384C206.413 307.501 206.691 307.56 206.989 307.56C207.299 307.56 207.576 307.512 207.821 307.416C208.077 307.309 208.291 307.155 208.461 306.952C208.643 306.749 208.771 306.509 208.845 306.232H210.861C210.669 307.128 210.232 307.848 209.549 308.392C208.867 308.925 208.019 309.192 207.005 309.192ZM216.489 309.192C215.689 309.192 214.985 309.021 214.377 308.68C213.769 308.328 213.294 307.837 212.953 307.208C212.611 306.579 212.441 305.853 212.441 305.032C212.441 304.179 212.606 303.432 212.937 302.792C213.278 302.152 213.753 301.651 214.361 301.288C214.979 300.925 215.694 300.744 216.505 300.744C217.294 300.744 217.982 300.92 218.569 301.272C219.155 301.624 219.609 302.099 219.929 302.696C220.249 303.283 220.409 303.944 220.409 304.68C220.409 304.787 220.409 304.904 220.409 305.032C220.409 305.16 220.398 305.293 220.377 305.432H213.817V304.2H218.473C218.451 303.613 218.254 303.155 217.881 302.824C217.507 302.483 217.043 302.312 216.489 302.312C216.094 302.312 215.731 302.403 215.401 302.584C215.07 302.765 214.809 303.037 214.617 303.4C214.425 303.752 214.329 304.2 214.329 304.744V305.208C214.329 305.709 214.419 306.141 214.601 306.504C214.793 306.867 215.049 307.144 215.369 307.336C215.699 307.517 216.067 307.608 216.473 307.608C216.921 307.608 217.289 307.512 217.577 307.32C217.875 307.128 218.094 306.872 218.233 306.552H220.185C220.035 307.053 219.79 307.507 219.449 307.912C219.107 308.307 218.686 308.621 218.185 308.856C217.683 309.08 217.118 309.192 216.489 309.192ZM225.397 309.192C224.683 309.192 224.059 309.08 223.525 308.856C223.003 308.621 222.587 308.301 222.277 307.896C221.979 307.48 221.803 307.005 221.749 306.472H223.669C223.723 306.696 223.819 306.904 223.957 307.096C224.096 307.277 224.283 307.421 224.517 307.528C224.763 307.635 225.051 307.688 225.381 307.688C225.701 307.688 225.963 307.645 226.165 307.56C226.368 307.464 226.517 307.341 226.613 307.192C226.709 307.043 226.757 306.883 226.757 306.712C226.757 306.456 226.688 306.259 226.549 306.12C226.411 305.981 226.208 305.875 225.941 305.8C225.685 305.715 225.376 305.635 225.013 305.56C224.629 305.485 224.256 305.395 223.893 305.288C223.541 305.171 223.221 305.027 222.933 304.856C222.656 304.685 222.432 304.467 222.261 304.2C222.101 303.933 222.021 303.608 222.021 303.224C222.021 302.755 222.144 302.333 222.389 301.96C222.645 301.587 223.008 301.293 223.477 301.08C223.957 300.856 224.528 300.744 225.189 300.744C226.128 300.744 226.875 300.963 227.429 301.4C227.995 301.827 228.325 302.429 228.421 303.208H226.597C226.544 302.909 226.395 302.68 226.149 302.52C225.904 302.349 225.579 302.264 225.173 302.264C224.757 302.264 224.437 302.344 224.213 302.504C224 302.653 223.893 302.856 223.893 303.112C223.893 303.283 223.957 303.432 224.085 303.56C224.224 303.688 224.421 303.8 224.677 303.896C224.933 303.981 225.248 304.067 225.621 304.152C226.219 304.269 226.747 304.408 227.205 304.568C227.664 304.728 228.027 304.963 228.293 305.272C228.56 305.581 228.693 306.019 228.693 306.584C228.704 307.096 228.571 307.549 228.293 307.944C228.027 308.339 227.648 308.648 227.157 308.872C226.667 309.085 226.08 309.192 225.397 309.192Z" fill="#2D6ECA"/>
<line x1="96" y1="148.5" x2="385" y2="148.5" stroke="#E2E3E5"/>
<line x1="96" y1="317.5" x2="385" y2="317.5" stroke="#E2E3E5"/>
<line x1="96" y1="204.5" x2="385" y2="204.5" stroke="#E2E3E5"/>
<line x1="96" y1="373.5" x2="385" y2="373.5" stroke="#E2E3E5"/>
<path d="M107.56 339.2C107.619 339.254 107.691 339.308 107.767 339.362C107.075 339.389 106.401 339.447 105.75 339.536V338.621C105.75 337.931 106.136 337.367 106.621 336.945C107.111 336.52 107.776 336.171 108.54 335.892C110.067 335.332 112.129 335 114.375 335C116.621 335 118.683 335.332 120.21 335.892C120.974 336.171 121.639 336.52 122.129 336.945C122.614 337.367 123 337.931 123 338.621V343.329V348.485C123 349.182 122.632 349.761 122.142 350.205C121.612 350.649 120.983 351.015 120.219 351.31C119.757 351.486 119.24 351.645 118.688 351.776V350.282C119.056 350.182 119.397 350.074 119.712 349.956C120.377 349.698 120.866 349.413 121.181 349.128C121.491 348.847 121.562 348.625 121.562 348.485V345.488C121.172 345.742 120.718 345.964 120.219 346.154C119.757 346.33 119.24 346.489 118.688 346.62V345.126C119.056 345.027 119.397 344.918 119.712 344.8C120.377 344.542 120.866 344.253 121.181 343.972C121.491 343.65 121.562 343.469 121.562 343.329V340.708C121.167 340.957 120.709 341.17 120.21 341.351C119.433 341.636 118.521 341.862 117.515 342.012C117.434 341.885 117.349 341.844 117.263 341.767C116.81 341.355 116.289 341.02 115.745 340.749C117.304 340.645 118.683 340.369 119.68 339.988C120.39 339.744 120.88 339.469 121.19 339.2C121.504 338.929 121.562 338.731 121.562 338.621C121.562 338.512 121.504 338.314 121.19 338.043C120.88 337.774 120.39 337.499 119.68 337.253C118.387 336.765 116.495 336.449 114.375 336.449C112.255 336.449 110.363 336.765 109.029 337.253C108.36 337.499 107.87 337.774 107.56 338.043C107.246 338.314 107.147 338.512 107.147 338.621C107.147 338.731 107.246 338.929 107.56 339.2ZM100 344.415C100 343.723 100.384 343.162 100.871 342.7C101.361 342.315 102.028 341.967 102.789 341.686C104.317 341.125 106.379 340.794 108.625 340.794C110.871 340.794 112.933 341.125 114.46 341.686C115.224 341.967 115.889 342.315 116.379 342.7C116.864 343.162 117.25 343.723 117.25 344.415V354.279C117.25 354.976 116.882 355.556 116.392 355.999C115.862 356.443 115.233 356.809 114.469 357.104C112.942 357.692 110.871 358 108.625 358C106.379 358 104.31 357.692 102.778 357.104C102.015 356.809 101.348 356.443 100.859 355.999C100.37 355.556 100 354.976 100 354.279V344.415ZM101.809 344.995C102.119 345.262 102.61 345.538 103.28 345.783C104.613 346.271 106.505 346.588 108.625 346.588C110.745 346.588 112.637 346.271 113.93 345.783C114.64 345.538 115.13 345.262 115.44 344.995C115.754 344.723 115.812 344.524 115.812 344.415C115.812 344.307 115.754 344.108 115.44 343.836C115.13 343.569 114.64 343.293 113.93 343.048C112.637 342.519 110.745 342.243 108.625 342.243C106.505 342.243 104.613 342.519 103.28 343.048C102.61 343.293 102.119 343.569 101.809 343.836C101.496 344.108 101.438 344.307 101.438 344.415C101.438 344.524 101.496 344.723 101.809 344.995ZM114.46 347.145C112.933 347.706 110.831 348.037 108.625 348.037C106.419 348.037 104.317 347.706 102.789 347.145C102.29 346.964 101.832 346.747 101.438 346.502V349.123C101.438 349.264 101.51 349.445 101.821 349.766C102.132 350.047 102.623 350.336 103.291 350.594C104.622 351.101 106.505 351.432 108.625 351.432C110.745 351.432 112.628 351.101 113.962 350.594C114.627 350.336 115.116 350.047 115.431 349.766C115.741 349.445 115.812 349.264 115.812 349.123V346.502C115.417 346.747 114.959 346.964 114.46 347.145ZM101.821 354.922C102.132 355.207 102.623 355.492 103.291 355.75C104.622 356.257 106.505 356.551 108.625 356.551C110.745 356.551 112.628 356.257 113.962 355.75C114.627 355.492 115.116 355.207 115.431 354.922C115.741 354.641 115.812 354.419 115.812 354.279V351.282C115.422 351.536 114.968 351.758 114.469 351.948C112.942 352.536 110.871 352.88 108.625 352.88C106.379 352.88 104.31 352.536 102.778 351.948C102.284 351.758 101.829 351.536 101.397 351.282V354.279C101.397 354.419 101.51 354.641 101.821 354.922Z" fill="#999999"/>
<path d="M107.56 395.2C107.619 395.254 107.691 395.308 107.767 395.362C107.075 395.389 106.401 395.447 105.75 395.536V394.621C105.75 393.931 106.136 393.367 106.621 392.945C107.111 392.52 107.776 392.171 108.54 391.892C110.067 391.332 112.129 391 114.375 391C116.621 391 118.683 391.332 120.21 391.892C120.974 392.171 121.639 392.52 122.129 392.945C122.614 393.367 123 393.931 123 394.621V399.329V404.485C123 405.182 122.632 405.761 122.142 406.205C121.612 406.649 120.983 407.015 120.219 407.31C119.757 407.486 119.24 407.645 118.688 407.776V406.282C119.056 406.182 119.397 406.074 119.712 405.956C120.377 405.698 120.866 405.413 121.181 405.128C121.491 404.847 121.562 404.625 121.562 404.485V401.488C121.172 401.742 120.718 401.964 120.219 402.154C119.757 402.33 119.24 402.489 118.688 402.62V401.126C119.056 401.027 119.397 400.918 119.712 400.8C120.377 400.542 120.866 400.253 121.181 399.972C121.491 399.65 121.562 399.469 121.562 399.329V396.708C121.167 396.957 120.709 397.17 120.21 397.351C119.433 397.636 118.521 397.862 117.515 398.012C117.434 397.885 117.349 397.844 117.263 397.767C116.81 397.355 116.289 397.02 115.745 396.749C117.304 396.645 118.683 396.369 119.68 395.988C120.39 395.744 120.88 395.469 121.19 395.2C121.504 394.929 121.562 394.731 121.562 394.621C121.562 394.512 121.504 394.314 121.19 394.043C120.88 393.774 120.39 393.499 119.68 393.253C118.387 392.765 116.495 392.449 114.375 392.449C112.255 392.449 110.363 392.765 109.029 393.253C108.36 393.499 107.87 393.774 107.56 394.043C107.246 394.314 107.147 394.512 107.147 394.621C107.147 394.731 107.246 394.929 107.56 395.2ZM100 400.415C100 399.723 100.384 399.162 100.871 398.7C101.361 398.315 102.028 397.967 102.789 397.686C104.317 397.125 106.379 396.794 108.625 396.794C110.871 396.794 112.933 397.125 114.46 397.686C115.224 397.967 115.889 398.315 116.379 398.7C116.864 399.162 117.25 399.723 117.25 400.415V410.279C117.25 410.976 116.882 411.556 116.392 411.999C115.862 412.443 115.233 412.809 114.469 413.104C112.942 413.692 110.871 414 108.625 414C106.379 414 104.31 413.692 102.778 413.104C102.015 412.809 101.348 412.443 100.859 411.999C100.37 411.556 100 410.976 100 410.279V400.415ZM101.809 400.995C102.119 401.262 102.61 401.538 103.28 401.783C104.613 402.271 106.505 402.588 108.625 402.588C110.745 402.588 112.637 402.271 113.93 401.783C114.64 401.538 115.13 401.262 115.44 400.995C115.754 400.723 115.812 400.524 115.812 400.415C115.812 400.307 115.754 400.108 115.44 399.836C115.13 399.569 114.64 399.293 113.93 399.048C112.637 398.519 110.745 398.243 108.625 398.243C106.505 398.243 104.613 398.519 103.28 399.048C102.61 399.293 102.119 399.569 101.809 399.836C101.496 400.108 101.438 400.307 101.438 400.415C101.438 400.524 101.496 400.723 101.809 400.995ZM114.46 403.145C112.933 403.706 110.831 404.037 108.625 404.037C106.419 404.037 104.317 403.706 102.789 403.145C102.29 402.964 101.832 402.747 101.438 402.502V405.123C101.438 405.264 101.51 405.445 101.821 405.766C102.132 406.047 102.623 406.336 103.291 406.594C104.622 407.101 106.505 407.432 108.625 407.432C110.745 407.432 112.628 407.101 113.962 406.594C114.627 406.336 115.116 406.047 115.431 405.766C115.741 405.445 115.812 405.264 115.812 405.123V402.502C115.417 402.747 114.959 402.964 114.46 403.145ZM101.821 410.922C102.132 411.207 102.623 411.492 103.291 411.75C104.622 412.257 106.505 412.551 108.625 412.551C110.745 412.551 112.628 412.257 113.962 411.75C114.627 411.492 115.116 411.207 115.431 410.922C115.741 410.641 115.812 410.419 115.812 410.279V407.282C115.422 407.536 114.968 407.758 114.469 407.948C112.942 408.536 110.871 408.88 108.625 408.88C106.379 408.88 104.31 408.536 102.778 407.948C102.284 407.758 101.829 407.536 101.397 407.282V410.279C101.397 410.419 101.51 410.641 101.821 410.922Z" fill="#999999"/>
<path d="M116.75 168.451L102.891 182.272L112.75 182.304C113.222 182.304 113.599 182.686 113.599 183.152C113.552 183.624 113.217 184 112.75 184L100.85 183.965C100.379 183.963 100 183.587 100 183.115V171.281C100 170.815 100.38 170.433 100.85 170.433C101.32 170.433 101.7 170.815 101.7 171.281V181.064L115.549 167.248C115.881 166.917 116.419 166.917 116.751 167.248C117.082 167.58 117.084 168.118 116.75 168.451Z" fill="#66BB6B"/>
<path d="M116.75 224.451L102.891 238.272L112.75 238.304C113.222 238.304 113.599 238.686 113.599 239.152C113.552 239.624 113.217 240 112.75 240L100.85 239.965C100.379 239.963 100 239.587 100 239.115V227.281C100 226.815 100.38 226.433 100.85 226.433C101.32 226.433 101.7 226.815 101.7 227.281V237.064L115.549 223.248C115.881 222.917 116.419 222.917 116.751 223.248C117.082 223.58 117.084 224.118 116.75 224.451Z" fill="#66BB6B"/>
</g>
<defs>
<clipPath id="clip0_571_787">
<rect width="480" height="540" fill="white"/>
</clipPath>
</defs>
</svg>
