<svg width="480" height="540" viewBox="0 0 480 540" fill="none" xmlns="http://www.w3.org/2000/svg">
<path d="M85 76H396C405.389 76 413 83.6112 413 93V447C413 456.389 405.389 464 396 464H85C75.6111 464 68 456.389 68 447V93C68 83.6112 75.6111 76 85 76Z" fill="#F1F5F7"/>
<path d="M84.911 121V106.3H87.788L93.143 115.015L91.253 114.994L96.671 106.3H99.422V121H96.335V115.96C96.335 114.7 96.363 113.566 96.419 112.558C96.489 111.55 96.601 110.549 96.755 109.555L97.133 110.542L92.828 117.22H91.442L87.221 110.584L87.578 109.555C87.732 110.493 87.837 111.459 87.893 112.453C87.963 113.433 87.998 114.602 87.998 115.96V121H84.911ZM106.983 121.21C106.059 121.21 105.226 120.958 104.484 120.454C103.742 119.95 103.154 119.264 102.72 118.396C102.286 117.528 102.069 116.534 102.069 115.414C102.069 114.294 102.286 113.3 102.72 112.432C103.168 111.564 103.77 110.885 104.526 110.395C105.282 109.905 106.143 109.66 107.109 109.66C107.655 109.66 108.152 109.744 108.6 109.912C109.062 110.066 109.461 110.283 109.797 110.563C110.147 110.843 110.441 111.165 110.679 111.529C110.917 111.893 111.085 112.285 111.183 112.705L110.553 112.6V109.891H113.514V121H110.511V118.333L111.183 118.27C111.071 118.662 110.889 119.033 110.637 119.383C110.385 119.733 110.07 120.048 109.692 120.328C109.328 120.594 108.915 120.811 108.453 120.979C107.991 121.133 107.501 121.21 106.983 121.21ZM107.802 118.627C108.362 118.627 108.852 118.494 109.272 118.228C109.692 117.962 110.014 117.591 110.238 117.115C110.476 116.625 110.595 116.058 110.595 115.414C110.595 114.784 110.476 114.231 110.238 113.755C110.014 113.279 109.692 112.908 109.272 112.642C108.852 112.362 108.362 112.222 107.802 112.222C107.256 112.222 106.773 112.362 106.353 112.642C105.947 112.908 105.625 113.279 105.387 113.755C105.149 114.231 105.03 114.784 105.03 115.414C105.03 116.058 105.149 116.625 105.387 117.115C105.625 117.591 105.947 117.962 106.353 118.228C106.773 118.494 107.256 118.627 107.802 118.627ZM116.504 121V109.891H119.36L119.444 112.159L118.856 112.411C119.01 111.907 119.283 111.452 119.675 111.046C120.081 110.626 120.564 110.29 121.124 110.038C121.684 109.786 122.272 109.66 122.888 109.66C123.728 109.66 124.428 109.828 124.988 110.164C125.562 110.5 125.989 111.011 126.269 111.697C126.563 112.369 126.71 113.202 126.71 114.196V121H123.728V114.427C123.728 113.923 123.658 113.503 123.518 113.167C123.378 112.831 123.161 112.586 122.867 112.432C122.587 112.278 122.237 112.208 121.817 112.222C121.481 112.222 121.166 112.278 120.872 112.39C120.592 112.488 120.347 112.635 120.137 112.831C119.941 113.027 119.78 113.251 119.654 113.503C119.542 113.755 119.486 114.028 119.486 114.322V121H118.016C117.694 121 117.407 121 117.155 121C116.903 121 116.686 121 116.504 121ZM133.725 121.21C132.801 121.21 131.968 120.958 131.226 120.454C130.484 119.95 129.896 119.264 129.462 118.396C129.028 117.528 128.811 116.534 128.811 115.414C128.811 114.294 129.028 113.3 129.462 112.432C129.91 111.564 130.512 110.885 131.268 110.395C132.024 109.905 132.885 109.66 133.851 109.66C134.397 109.66 134.894 109.744 135.342 109.912C135.804 110.066 136.203 110.283 136.539 110.563C136.889 110.843 137.183 111.165 137.421 111.529C137.659 111.893 137.827 112.285 137.925 112.705L137.295 112.6V109.891H140.256V121H137.253V118.333L137.925 118.27C137.813 118.662 137.631 119.033 137.379 119.383C137.127 119.733 136.812 120.048 136.434 120.328C136.07 120.594 135.657 120.811 135.195 120.979C134.733 121.133 134.243 121.21 133.725 121.21ZM134.544 118.627C135.104 118.627 135.594 118.494 136.014 118.228C136.434 117.962 136.756 117.591 136.98 117.115C137.218 116.625 137.337 116.058 137.337 115.414C137.337 114.784 137.218 114.231 136.98 113.755C136.756 113.279 136.434 112.908 136.014 112.642C135.594 112.362 135.104 112.222 134.544 112.222C133.998 112.222 133.515 112.362 133.095 112.642C132.689 112.908 132.367 113.279 132.129 113.755C131.891 114.231 131.772 114.784 131.772 115.414C131.772 116.058 131.891 116.625 132.129 117.115C132.367 117.591 132.689 117.962 133.095 118.228C133.515 118.494 133.998 118.627 134.544 118.627ZM148.307 125.83C147.425 125.83 146.557 125.697 145.703 125.431C144.849 125.179 144.149 124.843 143.603 124.423L144.674 122.302C144.954 122.498 145.276 122.673 145.64 122.827C146.004 122.981 146.382 123.1 146.774 123.184C147.18 123.268 147.593 123.31 148.013 123.31C148.741 123.31 149.336 123.198 149.798 122.974C150.274 122.75 150.631 122.414 150.869 121.966C151.107 121.518 151.226 120.958 151.226 120.286V118.354L151.73 118.459C151.646 118.921 151.408 119.348 151.016 119.74C150.638 120.118 150.162 120.426 149.588 120.664C149.028 120.888 148.44 121 147.824 121C146.802 121 145.892 120.762 145.094 120.286C144.296 119.81 143.666 119.152 143.204 118.312C142.742 117.472 142.511 116.499 142.511 115.393C142.511 114.287 142.735 113.307 143.183 112.453C143.645 111.585 144.268 110.906 145.052 110.416C145.85 109.912 146.753 109.66 147.761 109.66C148.181 109.66 148.58 109.709 148.958 109.807C149.35 109.905 149.707 110.045 150.029 110.227C150.365 110.395 150.659 110.591 150.911 110.815C151.177 111.025 151.394 111.256 151.562 111.508C151.73 111.76 151.835 112.012 151.877 112.264L151.268 112.432L151.352 109.891H154.208V120.16C154.208 121.07 154.075 121.875 153.809 122.575C153.543 123.275 153.151 123.863 152.633 124.339C152.129 124.829 151.506 125.2 150.764 125.452C150.036 125.704 149.217 125.83 148.307 125.83ZM148.391 118.606C148.979 118.606 149.49 118.473 149.924 118.207C150.372 117.941 150.715 117.57 150.953 117.094C151.191 116.618 151.31 116.058 151.31 115.414C151.31 114.784 151.191 114.231 150.953 113.755C150.715 113.265 150.372 112.887 149.924 112.621C149.49 112.355 148.979 112.222 148.391 112.222C147.817 112.222 147.313 112.362 146.879 112.642C146.445 112.908 146.102 113.286 145.85 113.776C145.612 114.252 145.493 114.798 145.493 115.414C145.493 116.044 145.612 116.604 145.85 117.094C146.102 117.57 146.445 117.941 146.879 118.207C147.313 118.473 147.817 118.606 148.391 118.606ZM162.442 121.21C161.238 121.21 160.181 120.965 159.271 120.475C158.375 119.985 157.675 119.313 157.171 118.459C156.681 117.605 156.436 116.625 156.436 115.519C156.436 114.651 156.576 113.86 156.856 113.146C157.136 112.432 157.528 111.816 158.032 111.298C158.536 110.766 159.131 110.36 159.817 110.08C160.517 109.786 161.273 109.639 162.085 109.639C162.841 109.639 163.541 109.779 164.185 110.059C164.829 110.339 165.382 110.731 165.844 111.235C166.32 111.725 166.684 112.313 166.936 112.999C167.188 113.671 167.3 114.399 167.272 115.183L167.251 116.107H158.326L157.843 114.28H164.794L164.458 114.658V114.196C164.43 113.818 164.304 113.482 164.08 113.188C163.87 112.88 163.597 112.642 163.261 112.474C162.925 112.292 162.547 112.201 162.127 112.201C161.511 112.201 160.986 112.32 160.552 112.558C160.132 112.796 159.81 113.146 159.586 113.608C159.362 114.07 159.25 114.63 159.25 115.288C159.25 115.96 159.39 116.541 159.67 117.031C159.964 117.521 160.37 117.906 160.888 118.186C161.42 118.452 162.043 118.585 162.757 118.585C163.247 118.585 163.695 118.508 164.101 118.354C164.507 118.2 164.941 117.934 165.403 117.556L166.831 119.551C166.425 119.915 165.977 120.223 165.487 120.475C164.997 120.713 164.493 120.895 163.975 121.021C163.457 121.147 162.946 121.21 162.442 121.21ZM176.335 121V106.3H182.362C183.44 106.3 184.413 106.482 185.281 106.846C186.163 107.196 186.919 107.7 187.549 108.358C188.193 109.002 188.683 109.772 189.019 110.668C189.355 111.564 189.523 112.558 189.523 113.65C189.523 114.728 189.355 115.722 189.019 116.632C188.683 117.528 188.2 118.305 187.57 118.963C186.94 119.607 186.184 120.111 185.302 120.475C184.42 120.825 183.44 121 182.362 121H176.335ZM179.485 118.711L179.149 118.165H182.257C182.887 118.165 183.454 118.06 183.958 117.85C184.462 117.626 184.889 117.325 185.239 116.947C185.603 116.555 185.876 116.079 186.058 115.519C186.24 114.959 186.331 114.336 186.331 113.65C186.331 112.964 186.24 112.348 186.058 111.802C185.876 111.242 185.603 110.766 185.239 110.374C184.889 109.982 184.462 109.681 183.958 109.471C183.454 109.247 182.887 109.135 182.257 109.135H179.086L179.485 108.631V118.711ZM197.223 121.21C196.019 121.21 194.962 120.965 194.052 120.475C193.156 119.985 192.456 119.313 191.952 118.459C191.462 117.605 191.217 116.625 191.217 115.519C191.217 114.651 191.357 113.86 191.637 113.146C191.917 112.432 192.309 111.816 192.813 111.298C193.317 110.766 193.912 110.36 194.598 110.08C195.298 109.786 196.054 109.639 196.866 109.639C197.622 109.639 198.322 109.779 198.966 110.059C199.61 110.339 200.163 110.731 200.625 111.235C201.101 111.725 201.465 112.313 201.717 112.999C201.969 113.671 202.081 114.399 202.053 115.183L202.032 116.107H193.107L192.624 114.28H199.575L199.239 114.658V114.196C199.211 113.818 199.085 113.482 198.861 113.188C198.651 112.88 198.378 112.642 198.042 112.474C197.706 112.292 197.328 112.201 196.908 112.201C196.292 112.201 195.767 112.32 195.333 112.558C194.913 112.796 194.591 113.146 194.367 113.608C194.143 114.07 194.031 114.63 194.031 115.288C194.031 115.96 194.171 116.541 194.451 117.031C194.745 117.521 195.151 117.906 195.669 118.186C196.201 118.452 196.824 118.585 197.538 118.585C198.028 118.585 198.476 118.508 198.882 118.354C199.288 118.2 199.722 117.934 200.184 117.556L201.612 119.551C201.206 119.915 200.758 120.223 200.268 120.475C199.778 120.713 199.274 120.895 198.756 121.021C198.238 121.147 197.727 121.21 197.223 121.21ZM204.257 125.62V109.891H207.134L207.218 112.39L206.672 112.201C206.77 111.753 207.008 111.34 207.386 110.962C207.778 110.584 208.261 110.276 208.835 110.038C209.409 109.8 210.011 109.681 210.641 109.681C211.607 109.681 212.468 109.933 213.224 110.437C213.98 110.927 214.575 111.606 215.009 112.474C215.443 113.328 215.66 114.315 215.66 115.435C215.66 116.541 215.443 117.528 215.009 118.396C214.575 119.264 213.98 119.95 213.224 120.454C212.468 120.944 211.607 121.189 210.641 121.189C209.997 121.189 209.381 121.07 208.793 120.832C208.219 120.58 207.729 120.251 207.323 119.845C206.931 119.439 206.679 119.005 206.567 118.543L207.26 118.249V125.62H204.257ZM209.969 118.627C210.515 118.627 210.998 118.494 211.418 118.228C211.838 117.962 212.167 117.591 212.405 117.115C212.643 116.625 212.762 116.065 212.762 115.435C212.762 114.805 212.643 114.252 212.405 113.776C212.167 113.3 211.838 112.929 211.418 112.663C211.012 112.397 210.529 112.264 209.969 112.264C209.409 112.264 208.919 112.397 208.499 112.663C208.079 112.915 207.75 113.286 207.512 113.776C207.274 114.252 207.155 114.805 207.155 115.435C207.155 116.065 207.274 116.625 207.512 117.115C207.75 117.591 208.079 117.962 208.499 118.228C208.919 118.494 209.409 118.627 209.969 118.627ZM222.073 121.21C221.149 121.21 220.316 120.958 219.574 120.454C218.832 119.95 218.244 119.264 217.81 118.396C217.376 117.528 217.159 116.534 217.159 115.414C217.159 114.294 217.376 113.3 217.81 112.432C218.258 111.564 218.86 110.885 219.616 110.395C220.372 109.905 221.233 109.66 222.199 109.66C222.745 109.66 223.242 109.744 223.69 109.912C224.152 110.066 224.551 110.283 224.887 110.563C225.237 110.843 225.531 111.165 225.769 111.529C226.007 111.893 226.175 112.285 226.273 112.705L225.643 112.6V109.891H228.604V121H225.601V118.333L226.273 118.27C226.161 118.662 225.979 119.033 225.727 119.383C225.475 119.733 225.16 120.048 224.782 120.328C224.418 120.594 224.005 120.811 223.543 120.979C223.081 121.133 222.591 121.21 222.073 121.21ZM222.892 118.627C223.452 118.627 223.942 118.494 224.362 118.228C224.782 117.962 225.104 117.591 225.328 117.115C225.566 116.625 225.685 116.058 225.685 115.414C225.685 114.784 225.566 114.231 225.328 113.755C225.104 113.279 224.782 112.908 224.362 112.642C223.942 112.362 223.452 112.222 222.892 112.222C222.346 112.222 221.863 112.362 221.443 112.642C221.037 112.908 220.715 113.279 220.477 113.755C220.239 114.231 220.12 114.784 220.12 115.414C220.12 116.058 220.239 116.625 220.477 117.115C220.715 117.591 221.037 117.962 221.443 118.228C221.863 118.494 222.346 118.627 222.892 118.627ZM231.594 121V109.891H234.471L234.576 113.461L234.072 112.726C234.24 112.152 234.513 111.634 234.891 111.172C235.269 110.696 235.71 110.325 236.214 110.059C236.732 109.793 237.271 109.66 237.831 109.66C238.069 109.66 238.3 109.681 238.524 109.723C238.748 109.765 238.937 109.814 239.091 109.87L238.293 113.146C238.139 113.062 237.936 112.992 237.684 112.936C237.446 112.866 237.201 112.831 236.949 112.831C236.613 112.831 236.298 112.894 236.004 113.02C235.724 113.132 235.479 113.3 235.269 113.524C235.059 113.734 234.891 113.986 234.765 114.28C234.653 114.574 234.597 114.896 234.597 115.246V121H231.594ZM242.283 121V107.077H245.265V121H242.283ZM240.204 112.558V109.891H247.554V112.558H240.204ZM249.455 121V109.891H252.332L252.395 112.012L251.954 112.096C252.108 111.732 252.311 111.403 252.563 111.109C252.829 110.815 253.13 110.563 253.466 110.353C253.802 110.143 254.159 109.982 254.537 109.87C254.915 109.744 255.293 109.681 255.671 109.681C256.245 109.681 256.763 109.772 257.225 109.954C257.687 110.136 258.079 110.423 258.401 110.815C258.723 111.193 258.975 111.697 259.157 112.327L258.695 112.285L258.842 111.949C259.024 111.613 259.255 111.305 259.535 111.025C259.815 110.745 260.13 110.507 260.48 110.311C260.83 110.115 261.194 109.961 261.572 109.849C261.95 109.737 262.321 109.681 262.685 109.681C263.553 109.681 264.274 109.856 264.848 110.206C265.422 110.542 265.849 111.053 266.129 111.739C266.423 112.425 266.57 113.265 266.57 114.259V121H263.588V114.469C263.588 113.965 263.518 113.552 263.378 113.23C263.238 112.908 263.035 112.67 262.769 112.516C262.503 112.348 262.16 112.264 261.74 112.264C261.418 112.264 261.117 112.32 260.837 112.432C260.571 112.53 260.333 112.677 260.123 112.873C259.927 113.055 259.773 113.279 259.661 113.545C259.549 113.797 259.493 114.07 259.493 114.364V121H256.49V114.448C256.49 113.986 256.42 113.594 256.28 113.272C256.14 112.936 255.937 112.684 255.671 112.516C255.405 112.348 255.076 112.264 254.684 112.264C254.362 112.264 254.061 112.32 253.781 112.432C253.515 112.53 253.284 112.677 253.088 112.873C252.892 113.055 252.738 113.272 252.626 113.524C252.514 113.776 252.458 114.049 252.458 114.343V121H249.455ZM274.681 121.21C273.477 121.21 272.42 120.965 271.51 120.475C270.614 119.985 269.914 119.313 269.41 118.459C268.92 117.605 268.675 116.625 268.675 115.519C268.675 114.651 268.815 113.86 269.095 113.146C269.375 112.432 269.767 111.816 270.271 111.298C270.775 110.766 271.37 110.36 272.056 110.08C272.756 109.786 273.512 109.639 274.324 109.639C275.08 109.639 275.78 109.779 276.424 110.059C277.068 110.339 277.621 110.731 278.083 111.235C278.559 111.725 278.923 112.313 279.175 112.999C279.427 113.671 279.539 114.399 279.511 115.183L279.49 116.107H270.565L270.082 114.28H277.033L276.697 114.658V114.196C276.669 113.818 276.543 113.482 276.319 113.188C276.109 112.88 275.836 112.642 275.5 112.474C275.164 112.292 274.786 112.201 274.366 112.201C273.75 112.201 273.225 112.32 272.791 112.558C272.371 112.796 272.049 113.146 271.825 113.608C271.601 114.07 271.489 114.63 271.489 115.288C271.489 115.96 271.629 116.541 271.909 117.031C272.203 117.521 272.609 117.906 273.127 118.186C273.659 118.452 274.282 118.585 274.996 118.585C275.486 118.585 275.934 118.508 276.34 118.354C276.746 118.2 277.18 117.934 277.642 117.556L279.07 119.551C278.664 119.915 278.216 120.223 277.726 120.475C277.236 120.713 276.732 120.895 276.214 121.021C275.696 121.147 275.185 121.21 274.681 121.21ZM281.715 121V109.891H284.571L284.655 112.159L284.067 112.411C284.221 111.907 284.494 111.452 284.886 111.046C285.292 110.626 285.775 110.29 286.335 110.038C286.895 109.786 287.483 109.66 288.099 109.66C288.939 109.66 289.639 109.828 290.199 110.164C290.773 110.5 291.2 111.011 291.48 111.697C291.774 112.369 291.921 113.202 291.921 114.196V121H288.939V114.427C288.939 113.923 288.869 113.503 288.729 113.167C288.589 112.831 288.372 112.586 288.078 112.432C287.798 112.278 287.448 112.208 287.028 112.222C286.692 112.222 286.377 112.278 286.083 112.39C285.803 112.488 285.558 112.635 285.348 112.831C285.152 113.027 284.991 113.251 284.865 113.503C284.753 113.755 284.697 114.028 284.697 114.322V121H283.227C282.905 121 282.618 121 282.366 121C282.114 121 281.897 121 281.715 121ZM295.849 121V107.077H298.831V121H295.849ZM293.77 112.558V109.891H301.12V112.558H293.77ZM307.191 121.21C306.155 121.21 305.231 121.042 304.419 120.706C303.621 120.356 302.977 119.88 302.487 119.278L304.356 117.682C304.776 118.144 305.252 118.48 305.784 118.69C306.316 118.886 306.848 118.984 307.38 118.984C307.59 118.984 307.779 118.963 307.947 118.921C308.129 118.865 308.283 118.795 308.409 118.711C308.535 118.613 308.626 118.501 308.682 118.375C308.752 118.235 308.787 118.088 308.787 117.934C308.787 117.626 308.661 117.388 308.409 117.22C308.269 117.136 308.052 117.045 307.758 116.947C307.464 116.835 307.086 116.716 306.624 116.59C305.91 116.408 305.301 116.198 304.797 115.96C304.307 115.708 303.915 115.428 303.621 115.12C303.369 114.826 303.173 114.511 303.033 114.175C302.907 113.825 302.844 113.44 302.844 113.02C302.844 112.516 302.956 112.061 303.18 111.655C303.404 111.235 303.712 110.878 304.104 110.584C304.51 110.29 304.972 110.066 305.49 109.912C306.008 109.744 306.554 109.66 307.128 109.66C307.702 109.66 308.262 109.73 308.808 109.87C309.354 110.01 309.858 110.213 310.32 110.479C310.796 110.731 311.209 111.032 311.559 111.382L309.963 113.146C309.711 112.908 309.424 112.691 309.102 112.495C308.794 112.299 308.472 112.145 308.136 112.033C307.8 111.921 307.499 111.865 307.233 111.865C306.995 111.865 306.778 111.886 306.582 111.928C306.4 111.97 306.246 112.04 306.12 112.138C305.994 112.222 305.896 112.327 305.826 112.453C305.77 112.579 305.742 112.719 305.742 112.873C305.742 113.027 305.777 113.174 305.847 113.314C305.931 113.454 306.043 113.573 306.183 113.671C306.337 113.755 306.561 113.853 306.855 113.965C307.163 114.077 307.576 114.203 308.094 114.343C308.766 114.525 309.333 114.728 309.795 114.952C310.271 115.176 310.649 115.435 310.929 115.729C311.167 115.981 311.342 116.268 311.454 116.59C311.566 116.912 311.622 117.269 311.622 117.661C311.622 118.347 311.426 118.956 311.034 119.488C310.656 120.02 310.131 120.44 309.459 120.748C308.787 121.056 308.031 121.21 307.191 121.21Z" fill="black"/>
<rect x="83" y="144" width="154" height="62" rx="9" fill="white"/>
<rect x="83" y="256" width="315" height="55" rx="9" fill="white"/>
<rect x="83" y="321" width="315" height="55" rx="9" fill="white"/>
<rect x="244" y="144" width="154" height="62" rx="9" fill="white"/>
<path d="M93.98 164V157H96.72C97.22 157 97.67 157.083 98.07 157.25C98.4767 157.417 98.8233 157.657 99.11 157.97C99.3967 158.283 99.6167 158.653 99.77 159.08C99.9233 159.507 100 159.98 100 160.5C100 161.02 99.9233 161.497 99.77 161.93C99.6167 162.357 99.3967 162.727 99.11 163.04C98.83 163.347 98.4867 163.583 98.08 163.75C97.6733 163.917 97.22 164 96.72 164H93.98ZM95.06 163.07L95.03 162.96H96.67C97.0233 162.96 97.3367 162.903 97.61 162.79C97.89 162.677 98.1233 162.517 98.31 162.31C98.5033 162.097 98.65 161.837 98.75 161.53C98.85 161.223 98.9 160.88 98.9 160.5C98.9 160.12 98.85 159.78 98.75 159.48C98.65 159.173 98.5033 158.913 98.31 158.7C98.1167 158.487 97.8833 158.323 97.61 158.21C97.3367 158.097 97.0233 158.04 96.67 158.04H95L95.06 157.95V163.07ZM103.65 164.1C103.11 164.1 102.63 163.987 102.21 163.76C101.797 163.527 101.47 163.21 101.23 162.81C100.997 162.41 100.88 161.95 100.88 161.43C100.88 161.017 100.947 160.64 101.08 160.3C101.214 159.96 101.397 159.667 101.63 159.42C101.87 159.167 102.154 158.973 102.48 158.84C102.814 158.7 103.174 158.63 103.56 158.63C103.9 158.63 104.217 158.697 104.51 158.83C104.804 158.957 105.057 159.133 105.27 159.36C105.49 159.587 105.657 159.857 105.77 160.17C105.89 160.477 105.947 160.813 105.94 161.18L105.93 161.62H101.64L101.41 160.8H105.04L104.89 160.97V160.73C104.87 160.51 104.797 160.313 104.67 160.14C104.544 159.967 104.384 159.83 104.19 159.73C103.997 159.63 103.787 159.58 103.56 159.58C103.2 159.58 102.897 159.65 102.65 159.79C102.404 159.923 102.217 160.123 102.09 160.39C101.964 160.65 101.9 160.973 101.9 161.36C101.9 161.727 101.977 162.047 102.13 162.32C102.284 162.587 102.5 162.793 102.78 162.94C103.06 163.087 103.384 163.16 103.75 163.16C104.01 163.16 104.25 163.117 104.47 163.03C104.697 162.943 104.94 162.787 105.2 162.56L105.72 163.29C105.56 163.45 105.364 163.59 105.13 163.71C104.904 163.83 104.66 163.927 104.4 164C104.147 164.067 103.897 164.1 103.65 164.1ZM107.06 166.2V158.75H108.1V159.95L107.94 159.86C107.98 159.66 108.093 159.47 108.28 159.29C108.467 159.103 108.693 158.953 108.96 158.84C109.233 158.72 109.513 158.66 109.8 158.66C110.273 158.66 110.693 158.777 111.06 159.01C111.427 159.243 111.717 159.563 111.93 159.97C112.143 160.377 112.25 160.843 112.25 161.37C112.25 161.89 112.143 162.357 111.93 162.77C111.723 163.177 111.437 163.5 111.07 163.74C110.703 163.973 110.29 164.09 109.83 164.09C109.523 164.09 109.227 164.03 108.94 163.91C108.653 163.783 108.41 163.623 108.21 163.43C108.01 163.237 107.887 163.037 107.84 162.83L108.1 162.69V166.2H107.06ZM109.66 163.14C109.967 163.14 110.24 163.063 110.48 162.91C110.72 162.757 110.91 162.547 111.05 162.28C111.19 162.013 111.26 161.71 111.26 161.37C111.26 161.03 111.19 160.73 111.05 160.47C110.917 160.203 110.73 159.993 110.49 159.84C110.25 159.687 109.973 159.61 109.66 159.61C109.347 159.61 109.07 159.687 108.83 159.84C108.59 159.987 108.4 160.193 108.26 160.46C108.12 160.727 108.05 161.03 108.05 161.37C108.05 161.71 108.12 162.013 108.26 162.28C108.4 162.547 108.59 162.757 108.83 162.91C109.07 163.063 109.347 163.14 109.66 163.14ZM115.388 164.1C114.955 164.1 114.558 163.98 114.198 163.74C113.845 163.5 113.562 163.173 113.348 162.76C113.135 162.347 113.028 161.88 113.028 161.36C113.028 160.833 113.135 160.367 113.348 159.96C113.568 159.547 113.862 159.223 114.228 158.99C114.602 158.757 115.018 158.64 115.478 158.64C115.752 158.64 116.002 158.68 116.228 158.76C116.455 158.84 116.652 158.953 116.818 159.1C116.992 159.24 117.132 159.403 117.238 159.59C117.352 159.777 117.422 159.977 117.448 160.19L117.218 160.11V158.75H118.258V164H117.218V162.75L117.458 162.68C117.418 162.86 117.335 163.037 117.208 163.21C117.088 163.377 116.932 163.527 116.738 163.66C116.552 163.793 116.342 163.9 116.108 163.98C115.882 164.06 115.642 164.1 115.388 164.1ZM115.658 163.15C115.972 163.15 116.248 163.073 116.488 162.92C116.728 162.767 116.915 162.557 117.048 162.29C117.188 162.017 117.258 161.707 117.258 161.36C117.258 161.02 117.188 160.717 117.048 160.45C116.915 160.183 116.728 159.973 116.488 159.82C116.248 159.667 115.972 159.59 115.658 159.59C115.352 159.59 115.078 159.667 114.838 159.82C114.605 159.973 114.418 160.183 114.278 160.45C114.145 160.717 114.078 161.02 114.078 161.36C114.078 161.707 114.145 162.017 114.278 162.29C114.418 162.557 114.605 162.767 114.838 162.92C115.078 163.073 115.352 163.15 115.658 163.15ZM119.697 164V158.75H120.737V160.4L120.637 160C120.71 159.747 120.833 159.517 121.007 159.31C121.187 159.103 121.39 158.94 121.617 158.82C121.85 158.7 122.09 158.64 122.337 158.64C122.45 158.64 122.557 158.65 122.657 158.67C122.763 158.69 122.847 158.713 122.907 158.74L122.637 159.86C122.557 159.827 122.467 159.8 122.367 159.78C122.273 159.753 122.18 159.74 122.087 159.74C121.907 159.74 121.733 159.777 121.567 159.85C121.407 159.917 121.263 160.013 121.137 160.14C121.017 160.26 120.92 160.403 120.847 160.57C120.773 160.73 120.737 160.907 120.737 161.1V164H119.697ZM124.575 164V157.41H125.605V164H124.575ZM123.485 159.75V158.75H126.825V159.75H123.485ZM127.743 164V158.75H128.783V159.87L128.593 159.99C128.646 159.817 128.73 159.65 128.843 159.49C128.963 159.33 129.106 159.19 129.273 159.07C129.446 158.943 129.63 158.843 129.823 158.77C130.023 158.697 130.226 158.66 130.433 158.66C130.733 158.66 130.996 158.71 131.223 158.81C131.45 158.91 131.636 159.06 131.783 159.26C131.93 159.46 132.036 159.71 132.103 160.01L131.943 159.97L132.013 159.8C132.086 159.647 132.186 159.503 132.313 159.37C132.446 159.23 132.596 159.107 132.763 159C132.93 158.893 133.106 158.81 133.293 158.75C133.48 158.69 133.663 158.66 133.843 158.66C134.236 158.66 134.56 158.74 134.813 158.9C135.073 159.06 135.266 159.303 135.393 159.63C135.526 159.957 135.593 160.363 135.593 160.85V164H134.553V160.91C134.553 160.61 134.513 160.367 134.433 160.18C134.36 159.987 134.246 159.843 134.093 159.75C133.94 159.657 133.743 159.61 133.503 159.61C133.316 159.61 133.14 159.643 132.973 159.71C132.813 159.77 132.673 159.857 132.553 159.97C132.433 160.083 132.34 160.217 132.273 160.37C132.206 160.517 132.173 160.68 132.173 160.86V164H131.133V160.89C131.133 160.617 131.093 160.387 131.013 160.2C130.933 160.007 130.816 159.86 130.663 159.76C130.51 159.66 130.323 159.61 130.103 159.61C129.916 159.61 129.743 159.643 129.583 159.71C129.423 159.77 129.283 159.857 129.163 159.97C129.043 160.077 128.95 160.207 128.883 160.36C128.816 160.507 128.783 160.667 128.783 160.84V164H127.743ZM139.422 164.1C138.882 164.1 138.402 163.987 137.982 163.76C137.569 163.527 137.242 163.21 137.002 162.81C136.769 162.41 136.652 161.95 136.652 161.43C136.652 161.017 136.719 160.64 136.852 160.3C136.985 159.96 137.169 159.667 137.402 159.42C137.642 159.167 137.925 158.973 138.252 158.84C138.585 158.7 138.945 158.63 139.332 158.63C139.672 158.63 139.989 158.697 140.282 158.83C140.575 158.957 140.829 159.133 141.042 159.36C141.262 159.587 141.429 159.857 141.542 160.17C141.662 160.477 141.719 160.813 141.712 161.18L141.702 161.62H137.412L137.182 160.8H140.812L140.662 160.97V160.73C140.642 160.51 140.569 160.313 140.442 160.14C140.315 159.967 140.155 159.83 139.962 159.73C139.769 159.63 139.559 159.58 139.332 159.58C138.972 159.58 138.669 159.65 138.422 159.79C138.175 159.923 137.989 160.123 137.862 160.39C137.735 160.65 137.672 160.973 137.672 161.36C137.672 161.727 137.749 162.047 137.902 162.32C138.055 162.587 138.272 162.793 138.552 162.94C138.832 163.087 139.155 163.16 139.522 163.16C139.782 163.16 140.022 163.117 140.242 163.03C140.469 162.943 140.712 162.787 140.972 162.56L141.492 163.29C141.332 163.45 141.135 163.59 140.902 163.71C140.675 163.83 140.432 163.927 140.172 164C139.919 164.067 139.669 164.1 139.422 164.1ZM142.831 164V158.75H143.861V159.83L143.681 159.95C143.748 159.717 143.878 159.503 144.071 159.31C144.265 159.11 144.495 158.95 144.761 158.83C145.028 158.703 145.301 158.64 145.581 158.64C145.981 158.64 146.315 158.72 146.581 158.88C146.848 159.033 147.048 159.27 147.181 159.59C147.315 159.91 147.381 160.313 147.381 160.8V164H146.351V160.87C146.351 160.57 146.311 160.323 146.231 160.13C146.151 159.93 146.028 159.787 145.861 159.7C145.695 159.607 145.488 159.567 145.241 159.58C145.041 159.58 144.858 159.613 144.691 159.68C144.525 159.74 144.378 159.827 144.251 159.94C144.131 160.053 144.035 160.187 143.961 160.34C143.895 160.487 143.861 160.647 143.861 160.82V164H143.351C143.265 164 143.178 164 143.091 164C143.005 164 142.918 164 142.831 164ZM149.429 164V157.41H150.459V164H149.429ZM148.339 159.75V158.75H151.679V159.75H148.339ZM155.679 164V157H156.649L160.929 162.73L160.769 162.82C160.743 162.653 160.719 162.473 160.699 162.28C160.679 162.08 160.659 161.87 160.639 161.65C160.626 161.423 160.613 161.187 160.599 160.94C160.593 160.687 160.586 160.423 160.579 160.15C160.573 159.877 160.569 159.593 160.569 159.3V157H161.649V164H160.659L156.449 158.48L156.559 158.34C156.593 158.747 156.619 159.093 156.639 159.38C156.666 159.66 156.686 159.9 156.699 160.1C156.719 160.293 156.733 160.453 156.739 160.58C156.746 160.7 156.749 160.8 156.749 160.88C156.756 160.96 156.759 161.03 156.759 161.09V164H155.679ZM165.369 164.1C164.936 164.1 164.539 163.98 164.179 163.74C163.826 163.5 163.542 163.173 163.329 162.76C163.116 162.347 163.009 161.88 163.009 161.36C163.009 160.833 163.116 160.367 163.329 159.96C163.549 159.547 163.842 159.223 164.209 158.99C164.582 158.757 164.999 158.64 165.459 158.64C165.732 158.64 165.982 158.68 166.209 158.76C166.436 158.84 166.632 158.953 166.799 159.1C166.972 159.24 167.112 159.403 167.219 159.59C167.332 159.777 167.402 159.977 167.429 160.19L167.199 160.11V158.75H168.239V164H167.199V162.75L167.439 162.68C167.399 162.86 167.316 163.037 167.189 163.21C167.069 163.377 166.912 163.527 166.719 163.66C166.532 163.793 166.322 163.9 166.089 163.98C165.862 164.06 165.622 164.1 165.369 164.1ZM165.639 163.15C165.952 163.15 166.229 163.073 166.469 162.92C166.709 162.767 166.896 162.557 167.029 162.29C167.169 162.017 167.239 161.707 167.239 161.36C167.239 161.02 167.169 160.717 167.029 160.45C166.896 160.183 166.709 159.973 166.469 159.82C166.229 159.667 165.952 159.59 165.639 159.59C165.332 159.59 165.059 159.667 164.819 159.82C164.586 159.973 164.399 160.183 164.259 160.45C164.126 160.717 164.059 161.02 164.059 161.36C164.059 161.707 164.126 162.017 164.259 162.29C164.399 162.557 164.586 162.767 164.819 162.92C165.059 163.073 165.332 163.15 165.639 163.15ZM169.657 164V158.75H170.697V159.87L170.507 159.99C170.56 159.817 170.644 159.65 170.757 159.49C170.877 159.33 171.02 159.19 171.187 159.07C171.36 158.943 171.544 158.843 171.737 158.77C171.937 158.697 172.14 158.66 172.347 158.66C172.647 158.66 172.91 158.71 173.137 158.81C173.364 158.91 173.55 159.06 173.697 159.26C173.844 159.46 173.95 159.71 174.017 160.01L173.857 159.97L173.927 159.8C174 159.647 174.1 159.503 174.227 159.37C174.36 159.23 174.51 159.107 174.677 159C174.844 158.893 175.02 158.81 175.207 158.75C175.394 158.69 175.577 158.66 175.757 158.66C176.15 158.66 176.474 158.74 176.727 158.9C176.987 159.06 177.18 159.303 177.307 159.63C177.44 159.957 177.507 160.363 177.507 160.85V164H176.467V160.91C176.467 160.61 176.427 160.367 176.347 160.18C176.274 159.987 176.16 159.843 176.007 159.75C175.854 159.657 175.657 159.61 175.417 159.61C175.23 159.61 175.054 159.643 174.887 159.71C174.727 159.77 174.587 159.857 174.467 159.97C174.347 160.083 174.254 160.217 174.187 160.37C174.12 160.517 174.087 160.68 174.087 160.86V164H173.047V160.89C173.047 160.617 173.007 160.387 172.927 160.2C172.847 160.007 172.73 159.86 172.577 159.76C172.424 159.66 172.237 159.61 172.017 159.61C171.83 159.61 171.657 159.643 171.497 159.71C171.337 159.77 171.197 159.857 171.077 159.97C170.957 160.077 170.864 160.207 170.797 160.36C170.73 160.507 170.697 160.667 170.697 160.84V164H169.657ZM181.336 164.1C180.796 164.1 180.316 163.987 179.896 163.76C179.483 163.527 179.156 163.21 178.916 162.81C178.683 162.41 178.566 161.95 178.566 161.43C178.566 161.017 178.633 160.64 178.766 160.3C178.899 159.96 179.083 159.667 179.316 159.42C179.556 159.167 179.839 158.973 180.166 158.84C180.499 158.7 180.859 158.63 181.246 158.63C181.586 158.63 181.903 158.697 182.196 158.83C182.489 158.957 182.743 159.133 182.956 159.36C183.176 159.587 183.343 159.857 183.456 160.17C183.576 160.477 183.633 160.813 183.626 161.18L183.616 161.62H179.326L179.096 160.8H182.726L182.576 160.97V160.73C182.556 160.51 182.483 160.313 182.356 160.14C182.229 159.967 182.069 159.83 181.876 159.73C181.683 159.63 181.473 159.58 181.246 159.58C180.886 159.58 180.583 159.65 180.336 159.79C180.089 159.923 179.903 160.123 179.776 160.39C179.649 160.65 179.586 160.973 179.586 161.36C179.586 161.727 179.663 162.047 179.816 162.32C179.969 162.587 180.186 162.793 180.466 162.94C180.746 163.087 181.069 163.16 181.436 163.16C181.696 163.16 181.936 163.117 182.156 163.03C182.383 162.943 182.626 162.787 182.886 162.56L183.406 163.29C183.246 163.45 183.049 163.59 182.816 163.71C182.589 163.83 182.346 163.927 182.086 164C181.833 164.067 181.583 164.1 181.336 164.1Z" fill="black"/>
<path d="M206.882 240V233.7H209.348C209.798 233.7 210.203 233.775 210.563 233.925C210.929 234.075 211.241 234.291 211.499 234.573C211.757 234.855 211.955 235.188 212.093 235.572C212.231 235.956 212.3 236.382 212.3 236.85C212.3 237.318 212.231 237.747 212.093 238.137C211.955 238.521 211.757 238.854 211.499 239.136C211.247 239.412 210.938 239.625 210.572 239.775C210.206 239.925 209.798 240 209.348 240H206.882ZM207.854 239.163L207.827 239.064H209.303C209.621 239.064 209.903 239.013 210.149 238.911C210.401 238.809 210.611 238.665 210.779 238.479C210.953 238.287 211.085 238.053 211.175 237.777C211.265 237.501 211.31 237.192 211.31 236.85C211.31 236.508 211.265 236.202 211.175 235.932C211.085 235.656 210.953 235.422 210.779 235.23C210.605 235.038 210.395 234.891 210.149 234.789C209.903 234.687 209.621 234.636 209.303 234.636H207.8L207.854 234.555V239.163ZM215.585 240.09C215.099 240.09 214.667 239.988 214.289 239.784C213.917 239.574 213.623 239.289 213.407 238.929C213.197 238.569 213.092 238.155 213.092 237.687C213.092 237.315 213.152 236.976 213.272 236.67C213.392 236.364 213.557 236.1 213.767 235.878C213.983 235.65 214.238 235.476 214.532 235.356C214.832 235.23 215.156 235.167 215.504 235.167C215.81 235.167 216.095 235.227 216.359 235.347C216.623 235.461 216.851 235.62 217.043 235.824C217.241 236.028 217.391 236.271 217.493 236.553C217.601 236.829 217.652 237.132 217.646 237.462L217.637 237.858H213.776L213.569 237.12H216.836L216.701 237.273V237.057C216.683 236.859 216.617 236.682 216.503 236.526C216.389 236.37 216.245 236.247 216.071 236.157C215.897 236.067 215.708 236.022 215.504 236.022C215.18 236.022 214.907 236.085 214.685 236.211C214.463 236.331 214.295 236.511 214.181 236.751C214.067 236.985 214.01 237.276 214.01 237.624C214.01 237.954 214.079 238.242 214.217 238.488C214.355 238.728 214.55 238.914 214.802 239.046C215.054 239.178 215.345 239.244 215.675 239.244C215.909 239.244 216.125 239.205 216.323 239.127C216.527 239.049 216.746 238.908 216.98 238.704L217.448 239.361C217.304 239.505 217.127 239.631 216.917 239.739C216.713 239.847 216.494 239.934 216.26 240C216.032 240.06 215.807 240.09 215.585 240.09ZM218.654 241.98V235.275H219.59V236.355L219.446 236.274C219.482 236.094 219.584 235.923 219.752 235.761C219.92 235.593 220.124 235.458 220.364 235.356C220.61 235.248 220.862 235.194 221.12 235.194C221.546 235.194 221.924 235.299 222.254 235.509C222.584 235.719 222.845 236.007 223.037 236.373C223.229 236.739 223.325 237.159 223.325 237.633C223.325 238.101 223.229 238.521 223.037 238.893C222.851 239.259 222.593 239.55 222.263 239.766C221.933 239.976 221.561 240.081 221.147 240.081C220.871 240.081 220.604 240.027 220.346 239.919C220.088 239.805 219.869 239.661 219.689 239.487C219.509 239.313 219.398 239.133 219.356 238.947L219.59 238.821V241.98H218.654ZM220.994 239.226C221.27 239.226 221.516 239.157 221.732 239.019C221.948 238.881 222.119 238.692 222.245 238.452C222.371 238.212 222.434 237.939 222.434 237.633C222.434 237.327 222.371 237.057 222.245 236.823C222.125 236.583 221.957 236.394 221.741 236.256C221.525 236.118 221.276 236.049 220.994 236.049C220.712 236.049 220.463 236.118 220.247 236.256C220.031 236.388 219.86 236.574 219.734 236.814C219.608 237.054 219.545 237.327 219.545 237.633C219.545 237.939 219.608 238.212 219.734 238.452C219.86 238.692 220.031 238.881 220.247 239.019C220.463 239.157 220.712 239.226 220.994 239.226ZM226.15 240.09C225.76 240.09 225.403 239.982 225.079 239.766C224.761 239.55 224.506 239.256 224.314 238.884C224.122 238.512 224.026 238.092 224.026 237.624C224.026 237.15 224.122 236.73 224.314 236.364C224.512 235.992 224.776 235.701 225.106 235.491C225.442 235.281 225.817 235.176 226.231 235.176C226.477 235.176 226.702 235.212 226.906 235.284C227.11 235.356 227.287 235.458 227.437 235.59C227.593 235.716 227.719 235.863 227.815 236.031C227.917 236.199 227.98 236.379 228.004 236.571L227.797 236.499V235.275H228.733V240H227.797V238.875L228.013 238.812C227.977 238.974 227.902 239.133 227.788 239.289C227.68 239.439 227.539 239.574 227.365 239.694C227.197 239.814 227.008 239.91 226.798 239.982C226.594 240.054 226.378 240.09 226.15 240.09ZM226.393 239.235C226.675 239.235 226.924 239.166 227.14 239.028C227.356 238.89 227.524 238.701 227.644 238.461C227.77 238.215 227.833 237.936 227.833 237.624C227.833 237.318 227.77 237.045 227.644 236.805C227.524 236.565 227.356 236.376 227.14 236.238C226.924 236.1 226.675 236.031 226.393 236.031C226.117 236.031 225.871 236.1 225.655 236.238C225.445 236.376 225.277 236.565 225.151 236.805C225.031 237.045 224.971 237.318 224.971 237.624C224.971 237.936 225.031 238.215 225.151 238.461C225.277 238.701 225.445 238.89 225.655 239.028C225.871 239.166 226.117 239.235 226.393 239.235ZM230.027 240V235.275H230.963V236.76L230.873 236.4C230.939 236.172 231.05 235.965 231.206 235.779C231.368 235.593 231.551 235.446 231.755 235.338C231.965 235.23 232.181 235.176 232.403 235.176C232.505 235.176 232.601 235.185 232.691 235.203C232.787 235.221 232.862 235.242 232.916 235.266L232.673 236.274C232.601 236.244 232.52 236.22 232.43 236.202C232.346 236.178 232.262 236.166 232.178 236.166C232.016 236.166 231.86 236.199 231.71 236.265C231.566 236.325 231.437 236.412 231.323 236.526C231.215 236.634 231.128 236.763 231.062 236.913C230.996 237.057 230.963 237.216 230.963 237.39V240H230.027ZM234.418 240V234.069H235.345V240H234.418ZM233.437 236.175V235.275H236.443V236.175H233.437ZM237.269 240V235.275H238.205V236.283L238.034 236.391C238.082 236.235 238.157 236.085 238.259 235.941C238.367 235.797 238.496 235.671 238.646 235.563C238.802 235.449 238.967 235.359 239.141 235.293C239.321 235.227 239.504 235.194 239.69 235.194C239.96 235.194 240.197 235.239 240.401 235.329C240.605 235.419 240.773 235.554 240.905 235.734C241.037 235.914 241.133 236.139 241.193 236.409L241.049 236.373L241.112 236.22C241.178 236.082 241.268 235.953 241.382 235.833C241.502 235.707 241.637 235.596 241.787 235.5C241.937 235.404 242.096 235.329 242.264 235.275C242.432 235.221 242.597 235.194 242.759 235.194C243.113 235.194 243.404 235.266 243.632 235.41C243.866 235.554 244.04 235.773 244.154 236.067C244.274 236.361 244.334 236.727 244.334 237.165V240H243.398V237.219C243.398 236.949 243.362 236.73 243.29 236.562C243.224 236.388 243.122 236.259 242.984 236.175C242.846 236.091 242.669 236.049 242.453 236.049C242.285 236.049 242.126 236.079 241.976 236.139C241.832 236.193 241.706 236.271 241.598 236.373C241.49 236.475 241.406 236.595 241.346 236.733C241.286 236.865 241.256 237.012 241.256 237.174V240H240.32V237.201C240.32 236.955 240.284 236.748 240.212 236.58C240.14 236.406 240.035 236.274 239.897 236.184C239.759 236.094 239.591 236.049 239.393 236.049C239.225 236.049 239.069 236.079 238.925 236.139C238.781 236.193 238.655 236.271 238.547 236.373C238.439 236.469 238.355 236.586 238.295 236.724C238.235 236.856 238.205 237 238.205 237.156V240H237.269ZM247.78 240.09C247.294 240.09 246.862 239.988 246.484 239.784C246.112 239.574 245.818 239.289 245.602 238.929C245.392 238.569 245.287 238.155 245.287 237.687C245.287 237.315 245.347 236.976 245.467 236.67C245.587 236.364 245.752 236.1 245.962 235.878C246.178 235.65 246.433 235.476 246.727 235.356C247.027 235.23 247.351 235.167 247.699 235.167C248.005 235.167 248.29 235.227 248.554 235.347C248.818 235.461 249.046 235.62 249.238 235.824C249.436 236.028 249.586 236.271 249.688 236.553C249.796 236.829 249.847 237.132 249.841 237.462L249.832 237.858H245.971L245.764 237.12H249.031L248.896 237.273V237.057C248.878 236.859 248.812 236.682 248.698 236.526C248.584 236.37 248.44 236.247 248.266 236.157C248.092 236.067 247.903 236.022 247.699 236.022C247.375 236.022 247.102 236.085 246.88 236.211C246.658 236.331 246.49 236.511 246.376 236.751C246.262 236.985 246.205 237.276 246.205 237.624C246.205 237.954 246.274 238.242 246.412 238.488C246.55 238.728 246.745 238.914 246.997 239.046C247.249 239.178 247.54 239.244 247.87 239.244C248.104 239.244 248.32 239.205 248.518 239.127C248.722 239.049 248.941 238.908 249.175 238.704L249.643 239.361C249.499 239.505 249.322 239.631 249.112 239.739C248.908 239.847 248.689 239.934 248.455 240C248.227 240.06 248.002 240.09 247.78 240.09ZM250.848 240V235.275H251.775V236.247L251.613 236.355C251.673 236.145 251.79 235.953 251.964 235.779C252.138 235.599 252.345 235.455 252.585 235.347C252.825 235.233 253.071 235.176 253.323 235.176C253.683 235.176 253.983 235.248 254.223 235.392C254.463 235.53 254.643 235.743 254.763 236.031C254.883 236.319 254.943 236.682 254.943 237.12V240H254.016V237.183C254.016 236.913 253.98 236.691 253.908 236.517C253.836 236.337 253.725 236.208 253.575 236.13C253.425 236.046 253.239 236.01 253.017 236.022C252.837 236.022 252.672 236.052 252.522 236.112C252.372 236.166 252.24 236.244 252.126 236.346C252.018 236.448 251.931 236.568 251.865 236.706C251.805 236.838 251.775 236.982 251.775 237.138V240H251.316C251.238 240 251.16 240 251.082 240C251.004 240 250.926 240 250.848 240ZM256.786 240V234.069H257.713V240H256.786ZM255.805 236.175V235.275H258.811V236.175H255.805ZM262.195 240V233.34H263.122V240H262.195ZM264.589 240V235.275H265.516V240H264.589ZM265.039 234.231C264.841 234.231 264.688 234.18 264.58 234.078C264.472 233.976 264.418 233.832 264.418 233.646C264.418 233.472 264.472 233.331 264.58 233.223C264.694 233.115 264.847 233.061 265.039 233.061C265.237 233.061 265.39 233.112 265.498 233.214C265.606 233.316 265.66 233.46 265.66 233.646C265.66 233.82 265.603 233.961 265.489 234.069C265.381 234.177 265.231 234.231 265.039 234.231ZM268.516 240.09C268.12 240.09 267.763 240.021 267.445 239.883C267.127 239.745 266.863 239.541 266.653 239.271L267.283 238.731C267.463 238.941 267.658 239.094 267.868 239.19C268.084 239.28 268.327 239.325 268.597 239.325C268.705 239.325 268.804 239.313 268.894 239.289C268.99 239.259 269.071 239.217 269.137 239.163C269.209 239.109 269.263 239.046 269.299 238.974C269.335 238.896 269.353 238.812 269.353 238.722C269.353 238.566 269.296 238.44 269.182 238.344C269.122 238.302 269.026 238.257 268.894 238.209C268.768 238.155 268.603 238.101 268.399 238.047C268.051 237.957 267.766 237.855 267.544 237.741C267.322 237.627 267.151 237.498 267.031 237.354C266.941 237.24 266.875 237.117 266.833 236.985C266.791 236.847 266.77 236.697 266.77 236.535C266.77 236.337 266.812 236.157 266.896 235.995C266.986 235.827 267.106 235.683 267.256 235.563C267.412 235.437 267.592 235.341 267.796 235.275C268.006 235.209 268.228 235.176 268.462 235.176C268.684 235.176 268.903 235.206 269.119 235.266C269.341 235.326 269.545 235.413 269.731 235.527C269.917 235.641 270.073 235.776 270.199 235.932L269.668 236.517C269.554 236.403 269.428 236.304 269.29 236.22C269.158 236.13 269.023 236.061 268.885 236.013C268.747 235.965 268.621 235.941 268.507 235.941C268.381 235.941 268.267 235.953 268.165 235.977C268.063 236.001 267.976 236.037 267.904 236.085C267.838 236.133 267.787 236.193 267.751 236.265C267.715 236.337 267.697 236.418 267.697 236.508C267.703 236.586 267.721 236.661 267.751 236.733C267.787 236.799 267.835 236.856 267.895 236.904C267.961 236.952 268.06 237.003 268.192 237.057C268.324 237.111 268.492 237.162 268.696 237.21C268.996 237.288 269.242 237.375 269.434 237.471C269.632 237.561 269.788 237.666 269.902 237.786C270.022 237.9 270.106 238.032 270.154 238.182C270.202 238.332 270.226 238.5 270.226 238.686C270.226 238.956 270.148 239.199 269.992 239.415C269.842 239.625 269.638 239.79 269.38 239.91C269.122 240.03 268.834 240.09 268.516 240.09ZM271.833 240V234.069H272.76V240H271.833ZM270.852 236.175V235.275H273.858V236.175H270.852Z" fill="#7A7A7A"/>
<path d="M254.98 164V157H257.72C258.22 157 258.67 157.083 259.07 157.25C259.477 157.417 259.823 157.657 260.11 157.97C260.397 158.283 260.617 158.653 260.77 159.08C260.923 159.507 261 159.98 261 160.5C261 161.02 260.923 161.497 260.77 161.93C260.617 162.357 260.397 162.727 260.11 163.04C259.83 163.347 259.487 163.583 259.08 163.75C258.673 163.917 258.22 164 257.72 164H254.98ZM256.06 163.07L256.03 162.96H257.67C258.023 162.96 258.337 162.903 258.61 162.79C258.89 162.677 259.123 162.517 259.31 162.31C259.503 162.097 259.65 161.837 259.75 161.53C259.85 161.223 259.9 160.88 259.9 160.5C259.9 160.12 259.85 159.78 259.75 159.48C259.65 159.173 259.503 158.913 259.31 158.7C259.117 158.487 258.883 158.323 258.61 158.21C258.337 158.097 258.023 158.04 257.67 158.04H256L256.06 157.95V163.07ZM264.65 164.1C264.11 164.1 263.63 163.987 263.21 163.76C262.797 163.527 262.47 163.21 262.23 162.81C261.997 162.41 261.88 161.95 261.88 161.43C261.88 161.017 261.947 160.64 262.08 160.3C262.214 159.96 262.397 159.667 262.63 159.42C262.87 159.167 263.154 158.973 263.48 158.84C263.814 158.7 264.174 158.63 264.56 158.63C264.9 158.63 265.217 158.697 265.51 158.83C265.804 158.957 266.057 159.133 266.27 159.36C266.49 159.587 266.657 159.857 266.77 160.17C266.89 160.477 266.947 160.813 266.94 161.18L266.93 161.62H262.64L262.41 160.8H266.04L265.89 160.97V160.73C265.87 160.51 265.797 160.313 265.67 160.14C265.544 159.967 265.384 159.83 265.19 159.73C264.997 159.63 264.787 159.58 264.56 159.58C264.2 159.58 263.897 159.65 263.65 159.79C263.404 159.923 263.217 160.123 263.09 160.39C262.964 160.65 262.9 160.973 262.9 161.36C262.9 161.727 262.977 162.047 263.13 162.32C263.284 162.587 263.5 162.793 263.78 162.94C264.06 163.087 264.384 163.16 264.75 163.16C265.01 163.16 265.25 163.117 265.47 163.03C265.697 162.943 265.94 162.787 266.2 162.56L266.72 163.29C266.56 163.45 266.364 163.59 266.13 163.71C265.904 163.83 265.66 163.927 265.4 164C265.147 164.067 264.897 164.1 264.65 164.1ZM268.06 166.2V158.75H269.1V159.95L268.94 159.86C268.98 159.66 269.093 159.47 269.28 159.29C269.467 159.103 269.693 158.953 269.96 158.84C270.233 158.72 270.513 158.66 270.8 158.66C271.273 158.66 271.693 158.777 272.06 159.01C272.427 159.243 272.717 159.563 272.93 159.97C273.143 160.377 273.25 160.843 273.25 161.37C273.25 161.89 273.143 162.357 272.93 162.77C272.723 163.177 272.437 163.5 272.07 163.74C271.703 163.973 271.29 164.09 270.83 164.09C270.523 164.09 270.227 164.03 269.94 163.91C269.653 163.783 269.41 163.623 269.21 163.43C269.01 163.237 268.887 163.037 268.84 162.83L269.1 162.69V166.2H268.06ZM270.66 163.14C270.967 163.14 271.24 163.063 271.48 162.91C271.72 162.757 271.91 162.547 272.05 162.28C272.19 162.013 272.26 161.71 272.26 161.37C272.26 161.03 272.19 160.73 272.05 160.47C271.917 160.203 271.73 159.993 271.49 159.84C271.25 159.687 270.973 159.61 270.66 159.61C270.347 159.61 270.07 159.687 269.83 159.84C269.59 159.987 269.4 160.193 269.26 160.46C269.12 160.727 269.05 161.03 269.05 161.37C269.05 161.71 269.12 162.013 269.26 162.28C269.4 162.547 269.59 162.757 269.83 162.91C270.07 163.063 270.347 163.14 270.66 163.14ZM276.388 164.1C275.955 164.1 275.558 163.98 275.198 163.74C274.845 163.5 274.562 163.173 274.348 162.76C274.135 162.347 274.028 161.88 274.028 161.36C274.028 160.833 274.135 160.367 274.348 159.96C274.568 159.547 274.862 159.223 275.228 158.99C275.602 158.757 276.018 158.64 276.478 158.64C276.752 158.64 277.002 158.68 277.228 158.76C277.455 158.84 277.652 158.953 277.818 159.1C277.992 159.24 278.132 159.403 278.238 159.59C278.352 159.777 278.422 159.977 278.448 160.19L278.218 160.11V158.75H279.258V164H278.218V162.75L278.458 162.68C278.418 162.86 278.335 163.037 278.208 163.21C278.088 163.377 277.932 163.527 277.738 163.66C277.552 163.793 277.342 163.9 277.108 163.98C276.882 164.06 276.642 164.1 276.388 164.1ZM276.658 163.15C276.972 163.15 277.248 163.073 277.488 162.92C277.728 162.767 277.915 162.557 278.048 162.29C278.188 162.017 278.258 161.707 278.258 161.36C278.258 161.02 278.188 160.717 278.048 160.45C277.915 160.183 277.728 159.973 277.488 159.82C277.248 159.667 276.972 159.59 276.658 159.59C276.352 159.59 276.078 159.667 275.838 159.82C275.605 159.973 275.418 160.183 275.278 160.45C275.145 160.717 275.078 161.02 275.078 161.36C275.078 161.707 275.145 162.017 275.278 162.29C275.418 162.557 275.605 162.767 275.838 162.92C276.078 163.073 276.352 163.15 276.658 163.15ZM280.697 164V158.75H281.737V160.4L281.637 160C281.71 159.747 281.833 159.517 282.007 159.31C282.187 159.103 282.39 158.94 282.617 158.82C282.85 158.7 283.09 158.64 283.337 158.64C283.45 158.64 283.557 158.65 283.657 158.67C283.763 158.69 283.847 158.713 283.907 158.74L283.637 159.86C283.557 159.827 283.467 159.8 283.367 159.78C283.273 159.753 283.18 159.74 283.087 159.74C282.907 159.74 282.733 159.777 282.567 159.85C282.407 159.917 282.263 160.013 282.137 160.14C282.017 160.26 281.92 160.403 281.847 160.57C281.773 160.73 281.737 160.907 281.737 161.1V164H280.697ZM285.575 164V157.41H286.605V164H285.575ZM284.485 159.75V158.75H287.825V159.75H284.485ZM288.743 164V158.75H289.783V159.87L289.593 159.99C289.646 159.817 289.73 159.65 289.843 159.49C289.963 159.33 290.106 159.19 290.273 159.07C290.446 158.943 290.63 158.843 290.823 158.77C291.023 158.697 291.226 158.66 291.433 158.66C291.733 158.66 291.996 158.71 292.223 158.81C292.45 158.91 292.636 159.06 292.783 159.26C292.93 159.46 293.036 159.71 293.103 160.01L292.943 159.97L293.013 159.8C293.086 159.647 293.186 159.503 293.313 159.37C293.446 159.23 293.596 159.107 293.763 159C293.93 158.893 294.106 158.81 294.293 158.75C294.48 158.69 294.663 158.66 294.843 158.66C295.236 158.66 295.56 158.74 295.813 158.9C296.073 159.06 296.266 159.303 296.393 159.63C296.526 159.957 296.593 160.363 296.593 160.85V164H295.553V160.91C295.553 160.61 295.513 160.367 295.433 160.18C295.36 159.987 295.246 159.843 295.093 159.75C294.94 159.657 294.743 159.61 294.503 159.61C294.316 159.61 294.14 159.643 293.973 159.71C293.813 159.77 293.673 159.857 293.553 159.97C293.433 160.083 293.34 160.217 293.273 160.37C293.206 160.517 293.173 160.68 293.173 160.86V164H292.133V160.89C292.133 160.617 292.093 160.387 292.013 160.2C291.933 160.007 291.816 159.86 291.663 159.76C291.51 159.66 291.323 159.61 291.103 159.61C290.916 159.61 290.743 159.643 290.583 159.71C290.423 159.77 290.283 159.857 290.163 159.97C290.043 160.077 289.95 160.207 289.883 160.36C289.816 160.507 289.783 160.667 289.783 160.84V164H288.743ZM300.422 164.1C299.882 164.1 299.402 163.987 298.982 163.76C298.569 163.527 298.242 163.21 298.002 162.81C297.769 162.41 297.652 161.95 297.652 161.43C297.652 161.017 297.719 160.64 297.852 160.3C297.985 159.96 298.169 159.667 298.402 159.42C298.642 159.167 298.925 158.973 299.252 158.84C299.585 158.7 299.945 158.63 300.332 158.63C300.672 158.63 300.989 158.697 301.282 158.83C301.575 158.957 301.829 159.133 302.042 159.36C302.262 159.587 302.429 159.857 302.542 160.17C302.662 160.477 302.719 160.813 302.712 161.18L302.702 161.62H298.412L298.182 160.8H301.812L301.662 160.97V160.73C301.642 160.51 301.569 160.313 301.442 160.14C301.315 159.967 301.155 159.83 300.962 159.73C300.769 159.63 300.559 159.58 300.332 159.58C299.972 159.58 299.669 159.65 299.422 159.79C299.175 159.923 298.989 160.123 298.862 160.39C298.735 160.65 298.672 160.973 298.672 161.36C298.672 161.727 298.749 162.047 298.902 162.32C299.055 162.587 299.272 162.793 299.552 162.94C299.832 163.087 300.155 163.16 300.522 163.16C300.782 163.16 301.022 163.117 301.242 163.03C301.469 162.943 301.712 162.787 301.972 162.56L302.492 163.29C302.332 163.45 302.135 163.59 301.902 163.71C301.675 163.83 301.432 163.927 301.172 164C300.919 164.067 300.669 164.1 300.422 164.1ZM303.831 164V158.75H304.861V159.83L304.681 159.95C304.748 159.717 304.878 159.503 305.071 159.31C305.265 159.11 305.495 158.95 305.761 158.83C306.028 158.703 306.301 158.64 306.581 158.64C306.981 158.64 307.315 158.72 307.581 158.88C307.848 159.033 308.048 159.27 308.181 159.59C308.315 159.91 308.381 160.313 308.381 160.8V164H307.351V160.87C307.351 160.57 307.311 160.323 307.231 160.13C307.151 159.93 307.028 159.787 306.861 159.7C306.695 159.607 306.488 159.567 306.241 159.58C306.041 159.58 305.858 159.613 305.691 159.68C305.525 159.74 305.378 159.827 305.251 159.94C305.131 160.053 305.035 160.187 304.961 160.34C304.895 160.487 304.861 160.647 304.861 160.82V164H304.351C304.265 164 304.178 164 304.091 164C304.005 164 303.918 164 303.831 164ZM310.429 164V157.41H311.459V164H310.429ZM309.339 159.75V158.75H312.679V159.75H309.339ZM316.679 164V157H317.739L320.289 161.15L319.779 161.14L322.359 157H323.359V164H322.279V161.13C322.279 160.53 322.293 159.99 322.319 159.51C322.353 159.03 322.406 158.553 322.479 158.08L322.619 158.45L320.329 161.99H319.669L317.449 158.49L317.559 158.08C317.633 158.527 317.683 158.987 317.709 159.46C317.743 159.927 317.759 160.483 317.759 161.13V164H316.679ZM327.512 164.1C326.972 164.1 326.492 163.987 326.072 163.76C325.658 163.527 325.332 163.21 325.092 162.81C324.858 162.41 324.742 161.95 324.742 161.43C324.742 161.017 324.808 160.64 324.942 160.3C325.075 159.96 325.258 159.667 325.492 159.42C325.732 159.167 326.015 158.973 326.342 158.84C326.675 158.7 327.035 158.63 327.422 158.63C327.762 158.63 328.078 158.697 328.372 158.83C328.665 158.957 328.918 159.133 329.132 159.36C329.352 159.587 329.518 159.857 329.632 160.17C329.752 160.477 329.808 160.813 329.802 161.18L329.792 161.62H325.502L325.272 160.8H328.902L328.752 160.97V160.73C328.732 160.51 328.658 160.313 328.532 160.14C328.405 159.967 328.245 159.83 328.052 159.73C327.858 159.63 327.648 159.58 327.422 159.58C327.062 159.58 326.758 159.65 326.512 159.79C326.265 159.923 326.078 160.123 325.952 160.39C325.825 160.65 325.762 160.973 325.762 161.36C325.762 161.727 325.838 162.047 325.992 162.32C326.145 162.587 326.362 162.793 326.642 162.94C326.922 163.087 327.245 163.16 327.612 163.16C327.872 163.16 328.112 163.117 328.332 163.03C328.558 162.943 328.802 162.787 329.062 162.56L329.582 163.29C329.422 163.45 329.225 163.59 328.992 163.71C328.765 163.83 328.522 163.927 328.262 164C328.008 164.067 327.758 164.1 327.512 164.1ZM330.901 164V158.75H331.941V159.87L331.751 159.99C331.805 159.817 331.888 159.65 332.001 159.49C332.121 159.33 332.265 159.19 332.431 159.07C332.605 158.943 332.788 158.843 332.981 158.77C333.181 158.697 333.385 158.66 333.591 158.66C333.891 158.66 334.155 158.71 334.381 158.81C334.608 158.91 334.795 159.06 334.941 159.26C335.088 159.46 335.195 159.71 335.261 160.01L335.101 159.97L335.171 159.8C335.245 159.647 335.345 159.503 335.471 159.37C335.605 159.23 335.755 159.107 335.921 159C336.088 158.893 336.265 158.81 336.451 158.75C336.638 158.69 336.821 158.66 337.001 158.66C337.395 158.66 337.718 158.74 337.971 158.9C338.231 159.06 338.425 159.303 338.551 159.63C338.685 159.957 338.751 160.363 338.751 160.85V164H337.711V160.91C337.711 160.61 337.671 160.367 337.591 160.18C337.518 159.987 337.405 159.843 337.251 159.75C337.098 159.657 336.901 159.61 336.661 159.61C336.475 159.61 336.298 159.643 336.131 159.71C335.971 159.77 335.831 159.857 335.711 159.97C335.591 160.083 335.498 160.217 335.431 160.37C335.365 160.517 335.331 160.68 335.331 160.86V164H334.291V160.89C334.291 160.617 334.251 160.387 334.171 160.2C334.091 160.007 333.975 159.86 333.821 159.76C333.668 159.66 333.481 159.61 333.261 159.61C333.075 159.61 332.901 159.643 332.741 159.71C332.581 159.77 332.441 159.857 332.321 159.97C332.201 160.077 332.108 160.207 332.041 160.36C331.975 160.507 331.941 160.667 331.941 160.84V164H330.901ZM342.89 164.1C342.663 164.1 342.437 164.063 342.21 163.99C341.99 163.917 341.787 163.82 341.6 163.7C341.42 163.573 341.267 163.437 341.14 163.29C341.02 163.137 340.94 162.983 340.9 162.83L341.16 162.69V163.97H340.13V156.6H341.16V159.95L341 159.86C341.033 159.707 341.107 159.56 341.22 159.42C341.333 159.273 341.477 159.143 341.65 159.03C341.83 158.91 342.023 158.817 342.23 158.75C342.437 158.677 342.647 158.64 342.86 158.64C343.333 158.64 343.753 158.757 344.12 158.99C344.487 159.223 344.777 159.547 344.99 159.96C345.203 160.367 345.31 160.833 345.31 161.36C345.31 161.887 345.203 162.357 344.99 162.77C344.783 163.183 344.497 163.51 344.13 163.75C343.763 163.983 343.35 164.1 342.89 164.1ZM342.72 163.16C343.027 163.16 343.3 163.083 343.54 162.93C343.78 162.77 343.97 162.557 344.11 162.29C344.25 162.017 344.32 161.707 344.32 161.36C344.32 161.02 344.25 160.717 344.11 160.45C343.977 160.177 343.79 159.963 343.55 159.81C343.31 159.657 343.033 159.58 342.72 159.58C342.407 159.58 342.13 159.657 341.89 159.81C341.65 159.963 341.46 160.177 341.32 160.45C341.18 160.717 341.11 161.02 341.11 161.36C341.11 161.707 341.18 162.017 341.32 162.29C341.46 162.557 341.65 162.77 341.89 162.93C342.13 163.083 342.407 163.16 342.72 163.16ZM348.879 164.1C348.339 164.1 347.859 163.987 347.439 163.76C347.026 163.527 346.699 163.21 346.459 162.81C346.226 162.41 346.109 161.95 346.109 161.43C346.109 161.017 346.176 160.64 346.309 160.3C346.442 159.96 346.626 159.667 346.859 159.42C347.099 159.167 347.382 158.973 347.709 158.84C348.042 158.7 348.402 158.63 348.789 158.63C349.129 158.63 349.446 158.697 349.739 158.83C350.032 158.957 350.286 159.133 350.499 159.36C350.719 159.587 350.886 159.857 350.999 160.17C351.119 160.477 351.176 160.813 351.169 161.18L351.159 161.62H346.869L346.639 160.8H350.269L350.119 160.97V160.73C350.099 160.51 350.026 160.313 349.899 160.14C349.772 159.967 349.612 159.83 349.419 159.73C349.226 159.63 349.016 159.58 348.789 159.58C348.429 159.58 348.126 159.65 347.879 159.79C347.632 159.923 347.446 160.123 347.319 160.39C347.192 160.65 347.129 160.973 347.129 161.36C347.129 161.727 347.206 162.047 347.359 162.32C347.512 162.587 347.729 162.793 348.009 162.94C348.289 163.087 348.612 163.16 348.979 163.16C349.239 163.16 349.479 163.117 349.699 163.03C349.926 162.943 350.169 162.787 350.429 162.56L350.949 163.29C350.789 163.45 350.592 163.59 350.359 163.71C350.132 163.83 349.889 163.927 349.629 164C349.376 164.067 349.126 164.1 348.879 164.1ZM352.288 164V158.75H353.328V160.4L353.228 160C353.302 159.747 353.425 159.517 353.598 159.31C353.778 159.103 353.982 158.94 354.208 158.82C354.442 158.7 354.682 158.64 354.928 158.64C355.042 158.64 355.148 158.65 355.248 158.67C355.355 158.69 355.438 158.713 355.498 158.74L355.228 159.86C355.148 159.827 355.058 159.8 354.958 159.78C354.865 159.753 354.772 159.74 354.678 159.74C354.498 159.74 354.325 159.777 354.158 159.85C353.998 159.917 353.855 160.013 353.728 160.14C353.608 160.26 353.512 160.403 353.438 160.57C353.365 160.73 353.328 160.907 353.328 161.1V164H352.288ZM358.072 164.1C357.632 164.1 357.235 164.023 356.882 163.87C356.528 163.717 356.235 163.49 356.002 163.19L356.702 162.59C356.902 162.823 357.118 162.993 357.352 163.1C357.592 163.2 357.862 163.25 358.162 163.25C358.282 163.25 358.392 163.237 358.492 163.21C358.598 163.177 358.688 163.13 358.762 163.07C358.842 163.01 358.902 162.94 358.942 162.86C358.982 162.773 359.002 162.68 359.002 162.58C359.002 162.407 358.938 162.267 358.812 162.16C358.745 162.113 358.638 162.063 358.492 162.01C358.352 161.95 358.168 161.89 357.942 161.83C357.555 161.73 357.238 161.617 356.992 161.49C356.745 161.363 356.555 161.22 356.422 161.06C356.322 160.933 356.248 160.797 356.202 160.65C356.155 160.497 356.132 160.33 356.132 160.15C356.132 159.93 356.178 159.73 356.272 159.55C356.372 159.363 356.505 159.203 356.672 159.07C356.845 158.93 357.045 158.823 357.272 158.75C357.505 158.677 357.752 158.64 358.012 158.64C358.258 158.64 358.502 158.673 358.742 158.74C358.988 158.807 359.215 158.903 359.422 159.03C359.628 159.157 359.802 159.307 359.942 159.48L359.352 160.13C359.225 160.003 359.085 159.893 358.932 159.8C358.785 159.7 358.635 159.623 358.482 159.57C358.328 159.517 358.188 159.49 358.062 159.49C357.922 159.49 357.795 159.503 357.682 159.53C357.568 159.557 357.472 159.597 357.392 159.65C357.318 159.703 357.262 159.77 357.222 159.85C357.182 159.93 357.162 160.02 357.162 160.12C357.168 160.207 357.188 160.29 357.222 160.37C357.262 160.443 357.315 160.507 357.382 160.56C357.455 160.613 357.565 160.67 357.712 160.73C357.858 160.79 358.045 160.847 358.272 160.9C358.605 160.987 358.878 161.083 359.092 161.19C359.312 161.29 359.485 161.407 359.612 161.54C359.745 161.667 359.838 161.813 359.892 161.98C359.945 162.147 359.972 162.333 359.972 162.54C359.972 162.84 359.885 163.11 359.712 163.35C359.545 163.583 359.318 163.767 359.032 163.9C358.745 164.033 358.425 164.1 358.072 164.1Z" fill="#3B3B3B"/>
<rect x="104" y="183" width="77" height="7" rx="3.5" fill="#E4E6EA"/>
<rect x="104" y="280" width="214" height="7" rx="3.5" fill="#E4E6EA"/>
<rect x="104" y="345" width="214" height="7" rx="3.5" fill="#E4E6EA"/>
<rect x="265" y="183" width="77" height="7" rx="3.5" fill="#E4E6EA"/>
<rect x="93.25" y="173.25" width="133.5" height="26.5" rx="3.75" stroke="#E4E6EA" stroke-width="0.5"/>
<rect x="93.25" y="270.25" width="240.5" height="26.5" rx="3.75" stroke="#E4E6EA" stroke-width="0.5"/>
<rect x="93.25" y="335.25" width="240.5" height="26.5" rx="3.75" stroke="#E4E6EA" stroke-width="0.5"/>
<rect x="254.25" y="173.25" width="133.5" height="26.5" rx="3.75" stroke="#E4E6EA" stroke-width="0.5"/>
<path d="M368 184L373.5 189.5L379 184" stroke="#999999" stroke-linecap="round"/>
<path d="M357.102 278.498L359.502 280.9L359.902 280.5C360.064 280.343 360.193 280.156 360.282 279.949C360.371 279.742 360.417 279.519 360.419 279.294C360.421 279.068 360.378 278.845 360.292 278.636C360.207 278.428 360.081 278.239 359.922 278.079C359.762 277.92 359.573 277.794 359.364 277.709C359.156 277.623 358.933 277.58 358.707 277.582C358.482 277.584 358.259 277.63 358.052 277.719C357.845 277.808 357.658 277.937 357.501 278.098L357.102 278.498ZM358.4 282L355.998 279.598L348.379 287.218L347.6 290.399L350.781 289.62L358.4 282Z" fill="#35CA00"/>
<path d="M357.102 343.498L359.502 345.9L359.902 345.5C360.064 345.343 360.193 345.156 360.282 344.949C360.371 344.742 360.417 344.519 360.419 344.294C360.421 344.068 360.378 343.845 360.292 343.636C360.207 343.428 360.081 343.239 359.922 343.079C359.762 342.92 359.573 342.794 359.364 342.709C359.156 342.623 358.933 342.58 358.707 342.582C358.482 342.584 358.259 342.63 358.052 342.719C357.845 342.808 357.658 342.937 357.501 343.098L357.102 343.498ZM358.4 347L355.998 344.598L348.379 352.218L347.6 355.399L350.781 354.62L358.4 347Z" fill="#35CA00"/>
<path d="M377.2 278.595C377.2 277.604 378.005 276.8 379 276.8C379.994 276.8 380.8 277.604 380.8 278.595H384.4C384.897 278.595 385.3 278.996 385.3 279.492C385.299 279.73 385.204 279.958 385.035 280.127C384.867 280.295 384.638 280.389 384.4 280.389H373.6C373.103 280.389 372.7 279.987 372.7 279.492C372.7 278.997 373.103 278.595 373.6 278.595H377.2ZM374.5 288.057V282.2H376.3V288.057C376.3 288.176 376.348 288.29 376.432 288.374C376.517 288.458 376.631 288.505 376.75 288.505H378.1V282.2H379.9V288.505H381.25C381.369 288.505 381.483 288.458 381.568 288.374C381.652 288.29 381.699 288.176 381.7 288.057V282.2H383.5V288.057C383.499 288.352 383.441 288.644 383.328 288.917C383.214 289.189 383.048 289.436 382.839 289.645C382.631 289.853 382.383 290.018 382.11 290.13C381.837 290.243 381.545 290.301 381.25 290.3H376.75C375.508 290.3 374.5 289.296 374.5 288.057Z" fill="#DF6E61"/>
<path d="M377.2 343.595C377.2 342.604 378.005 341.8 379 341.8C379.994 341.8 380.8 342.604 380.8 343.595H384.4C384.897 343.595 385.3 343.996 385.3 344.492C385.299 344.73 385.204 344.958 385.035 345.127C384.867 345.295 384.638 345.389 384.4 345.389H373.6C373.103 345.389 372.7 344.987 372.7 344.492C372.7 343.997 373.103 343.595 373.6 343.595H377.2ZM374.5 353.057V347.2H376.3V353.057C376.3 353.176 376.348 353.29 376.432 353.374C376.517 353.458 376.631 353.505 376.75 353.505H378.1V347.2H379.9V353.505H381.25C381.369 353.505 381.483 353.458 381.568 353.374C381.652 353.29 381.699 353.176 381.7 353.057V347.2H383.5V353.057C383.499 353.352 383.441 353.644 383.328 353.917C383.214 354.189 383.048 354.436 382.839 354.645C382.631 354.853 382.383 355.018 382.11 355.13C381.837 355.243 381.545 355.301 381.25 355.3H376.75C375.508 355.3 374.5 354.296 374.5 353.057Z" fill="#DF6E61"/>
<rect x="83" y="394" width="315" height="41" rx="6" fill="#0900FF"/>
<path d="M182.098 421L185.948 411.2H187.824L191.646 421H189.49L187.516 415.722C187.46 415.573 187.39 415.381 187.306 415.148C187.231 414.915 187.152 414.667 187.068 414.406C186.984 414.145 186.905 413.897 186.83 413.664C186.755 413.421 186.699 413.221 186.662 413.062H187.04C186.984 413.267 186.919 413.487 186.844 413.72C186.779 413.944 186.709 414.177 186.634 414.42C186.559 414.653 186.48 414.882 186.396 415.106C186.312 415.33 186.233 415.549 186.158 415.764L184.184 421H182.098ZM183.89 418.942L184.576 417.262H189.07L189.77 418.942H183.89ZM195.367 421.14C194.713 421.14 194.13 420.977 193.617 420.65C193.113 420.314 192.711 419.861 192.413 419.292C192.123 418.713 191.979 418.046 191.979 417.29C191.979 416.553 192.123 415.895 192.413 415.316C192.711 414.728 193.113 414.271 193.617 413.944C194.13 413.608 194.713 413.44 195.367 413.44C195.712 413.44 196.043 413.496 196.361 413.608C196.687 413.711 196.977 413.855 197.229 414.042C197.49 414.229 197.7 414.439 197.859 414.672C198.017 414.896 198.106 415.129 198.125 415.372L197.621 415.47V410.64H199.623V421H197.733L197.649 419.292L198.041 419.334C198.022 419.567 197.938 419.791 197.789 420.006C197.639 420.221 197.439 420.417 197.187 420.594C196.944 420.762 196.664 420.897 196.347 421C196.039 421.093 195.712 421.14 195.367 421.14ZM195.815 419.488C196.188 419.488 196.515 419.395 196.795 419.208C197.075 419.021 197.294 418.765 197.453 418.438C197.611 418.111 197.691 417.729 197.691 417.29C197.691 416.861 197.611 416.483 197.453 416.156C197.294 415.829 197.075 415.573 196.795 415.386C196.515 415.199 196.188 415.106 195.815 415.106C195.441 415.106 195.115 415.199 194.835 415.386C194.564 415.573 194.349 415.829 194.191 416.156C194.041 416.483 193.967 416.861 193.967 417.29C193.967 417.729 194.041 418.111 194.191 418.438C194.349 418.765 194.564 419.021 194.835 419.208C195.115 419.395 195.441 419.488 195.815 419.488ZM204.445 421.14C203.791 421.14 203.208 420.977 202.695 420.65C202.191 420.314 201.789 419.861 201.491 419.292C201.201 418.713 201.057 418.046 201.057 417.29C201.057 416.553 201.201 415.895 201.491 415.316C201.789 414.728 202.191 414.271 202.695 413.944C203.208 413.608 203.791 413.44 204.445 413.44C204.79 413.44 205.121 413.496 205.439 413.608C205.765 413.711 206.055 413.855 206.307 414.042C206.568 414.229 206.778 414.439 206.937 414.672C207.095 414.896 207.184 415.129 207.203 415.372L206.699 415.47V410.64H208.701V421H206.811L206.727 419.292L207.119 419.334C207.1 419.567 207.016 419.791 206.867 420.006C206.717 420.221 206.517 420.417 206.265 420.594C206.022 420.762 205.742 420.897 205.425 421C205.117 421.093 204.79 421.14 204.445 421.14ZM204.893 419.488C205.266 419.488 205.593 419.395 205.873 419.208C206.153 419.021 206.372 418.765 206.531 418.438C206.689 418.111 206.769 417.729 206.769 417.29C206.769 416.861 206.689 416.483 206.531 416.156C206.372 415.829 206.153 415.573 205.873 415.386C205.593 415.199 205.266 415.106 204.893 415.106C204.519 415.106 204.193 415.199 203.913 415.386C203.642 415.573 203.427 415.829 203.269 416.156C203.119 416.483 203.045 416.861 203.045 417.29C203.045 417.729 203.119 418.111 203.269 418.438C203.427 418.765 203.642 419.021 203.913 419.208C204.193 419.395 204.519 419.488 204.893 419.488ZM215.198 421V411.2H219.216C219.934 411.2 220.583 411.321 221.162 411.564C221.75 411.797 222.254 412.133 222.674 412.572C223.103 413.001 223.43 413.515 223.654 414.112C223.878 414.709 223.99 415.372 223.99 416.1C223.99 416.819 223.878 417.481 223.654 418.088C223.43 418.685 223.108 419.203 222.688 419.642C222.268 420.071 221.764 420.407 221.176 420.65C220.588 420.883 219.934 421 219.216 421H215.198ZM217.298 419.474L217.074 419.11H219.146C219.566 419.11 219.944 419.04 220.28 418.9C220.616 418.751 220.9 418.55 221.134 418.298C221.376 418.037 221.558 417.719 221.68 417.346C221.801 416.973 221.862 416.557 221.862 416.1C221.862 415.643 221.801 415.232 221.68 414.868C221.558 414.495 221.376 414.177 221.134 413.916C220.9 413.655 220.616 413.454 220.28 413.314C219.944 413.165 219.566 413.09 219.146 413.09H217.032L217.298 412.754V419.474ZM229.123 421.14C228.321 421.14 227.616 420.977 227.009 420.65C226.412 420.323 225.945 419.875 225.609 419.306C225.283 418.737 225.119 418.083 225.119 417.346C225.119 416.767 225.213 416.24 225.399 415.764C225.586 415.288 225.847 414.877 226.183 414.532C226.519 414.177 226.916 413.907 227.373 413.72C227.84 413.524 228.344 413.426 228.885 413.426C229.389 413.426 229.856 413.519 230.285 413.706C230.715 413.893 231.083 414.154 231.391 414.49C231.709 414.817 231.951 415.209 232.119 415.666C232.287 416.114 232.362 416.599 232.343 417.122L232.329 417.738H226.379L226.057 416.52H230.691L230.467 416.772V416.464C230.449 416.212 230.365 415.988 230.215 415.792C230.075 415.587 229.893 415.428 229.669 415.316C229.445 415.195 229.193 415.134 228.913 415.134C228.503 415.134 228.153 415.213 227.863 415.372C227.583 415.531 227.369 415.764 227.219 416.072C227.07 416.38 226.995 416.753 226.995 417.192C226.995 417.64 227.089 418.027 227.275 418.354C227.471 418.681 227.742 418.937 228.087 419.124C228.442 419.301 228.857 419.39 229.333 419.39C229.66 419.39 229.959 419.339 230.229 419.236C230.5 419.133 230.789 418.956 231.097 418.704L232.049 420.034C231.779 420.277 231.48 420.482 231.153 420.65C230.827 420.809 230.491 420.93 230.145 421.014C229.8 421.098 229.459 421.14 229.123 421.14ZM233.812 424.08V413.594H235.73L235.786 415.26L235.422 415.134C235.488 414.835 235.646 414.56 235.898 414.308C236.16 414.056 236.482 413.851 236.864 413.692C237.247 413.533 237.648 413.454 238.068 413.454C238.712 413.454 239.286 413.622 239.79 413.958C240.294 414.285 240.691 414.737 240.98 415.316C241.27 415.885 241.414 416.543 241.414 417.29C241.414 418.027 241.27 418.685 240.98 419.264C240.691 419.843 240.294 420.3 239.79 420.636C239.286 420.963 238.712 421.126 238.068 421.126C237.639 421.126 237.228 421.047 236.836 420.888C236.454 420.72 236.127 420.501 235.856 420.23C235.595 419.959 235.427 419.67 235.352 419.362L235.814 419.166V424.08H233.812ZM237.62 419.418C237.984 419.418 238.306 419.329 238.586 419.152C238.866 418.975 239.086 418.727 239.244 418.41C239.403 418.083 239.482 417.71 239.482 417.29C239.482 416.87 239.403 416.501 239.244 416.184C239.086 415.867 238.866 415.619 238.586 415.442C238.316 415.265 237.994 415.176 237.62 415.176C237.247 415.176 236.92 415.265 236.64 415.442C236.36 415.61 236.141 415.857 235.982 416.184C235.824 416.501 235.744 416.87 235.744 417.29C235.744 417.71 235.824 418.083 235.982 418.41C236.141 418.727 236.36 418.975 236.64 419.152C236.92 419.329 237.247 419.418 237.62 419.418ZM245.69 421.14C245.074 421.14 244.518 420.972 244.024 420.636C243.529 420.3 243.137 419.843 242.848 419.264C242.558 418.685 242.414 418.023 242.414 417.276C242.414 416.529 242.558 415.867 242.848 415.288C243.146 414.709 243.548 414.257 244.052 413.93C244.556 413.603 245.13 413.44 245.774 413.44C246.138 413.44 246.469 413.496 246.768 413.608C247.076 413.711 247.342 413.855 247.566 414.042C247.799 414.229 247.995 414.443 248.154 414.686C248.312 414.929 248.424 415.19 248.49 415.47L248.07 415.4V413.594H250.044V421H248.042V419.222L248.49 419.18C248.415 419.441 248.294 419.689 248.126 419.922C247.958 420.155 247.748 420.365 247.496 420.552C247.253 420.729 246.978 420.874 246.67 420.986C246.362 421.089 246.035 421.14 245.69 421.14ZM246.236 419.418C246.609 419.418 246.936 419.329 247.216 419.152C247.496 418.975 247.71 418.727 247.86 418.41C248.018 418.083 248.098 417.705 248.098 417.276C248.098 416.856 248.018 416.487 247.86 416.17C247.71 415.853 247.496 415.605 247.216 415.428C246.936 415.241 246.609 415.148 246.236 415.148C245.872 415.148 245.55 415.241 245.27 415.428C244.999 415.605 244.784 415.853 244.626 416.17C244.467 416.487 244.388 416.856 244.388 417.276C244.388 417.705 244.467 418.083 244.626 418.41C244.784 418.727 244.999 418.975 245.27 419.152C245.55 419.329 245.872 419.418 246.236 419.418ZM252.037 421V413.594H253.955L254.025 415.974L253.689 415.484C253.801 415.101 253.983 414.756 254.235 414.448C254.487 414.131 254.781 413.883 255.117 413.706C255.462 413.529 255.822 413.44 256.195 413.44C256.354 413.44 256.508 413.454 256.657 413.482C256.806 413.51 256.932 413.543 257.035 413.58L256.503 415.764C256.4 415.708 256.265 415.661 256.097 415.624C255.938 415.577 255.775 415.554 255.607 415.554C255.383 415.554 255.173 415.596 254.977 415.68C254.79 415.755 254.627 415.867 254.487 416.016C254.347 416.156 254.235 416.324 254.151 416.52C254.076 416.716 254.039 416.931 254.039 417.164V421H252.037ZM259.163 421V411.718H261.151V421H259.163ZM257.777 415.372V413.594H262.677V415.372H257.777ZM263.945 421V413.594H265.863L265.905 415.008L265.611 415.064C265.714 414.821 265.849 414.602 266.017 414.406C266.194 414.21 266.395 414.042 266.619 413.902C266.843 413.762 267.081 413.655 267.333 413.58C267.585 413.496 267.837 413.454 268.089 413.454C268.472 413.454 268.817 413.515 269.125 413.636C269.433 413.757 269.694 413.949 269.909 414.21C270.124 414.462 270.292 414.798 270.413 415.218L270.105 415.19L270.203 414.966C270.324 414.742 270.478 414.537 270.665 414.35C270.852 414.163 271.062 414.005 271.295 413.874C271.528 413.743 271.771 413.641 272.023 413.566C272.275 413.491 272.522 413.454 272.765 413.454C273.344 413.454 273.824 413.571 274.207 413.804C274.59 414.028 274.874 414.369 275.061 414.826C275.257 415.283 275.355 415.843 275.355 416.506V421H273.367V416.646C273.367 416.31 273.32 416.035 273.227 415.82C273.134 415.605 272.998 415.447 272.821 415.344C272.644 415.232 272.415 415.176 272.135 415.176C271.92 415.176 271.72 415.213 271.533 415.288C271.356 415.353 271.197 415.451 271.057 415.582C270.926 415.703 270.824 415.853 270.749 416.03C270.674 416.198 270.637 416.38 270.637 416.576V421H268.635V416.632C268.635 416.324 268.588 416.063 268.495 415.848C268.402 415.624 268.266 415.456 268.089 415.344C267.912 415.232 267.692 415.176 267.431 415.176C267.216 415.176 267.016 415.213 266.829 415.288C266.652 415.353 266.498 415.451 266.367 415.582C266.236 415.703 266.134 415.848 266.059 416.016C265.984 416.184 265.947 416.366 265.947 416.562V421H263.945ZM280.762 421.14C279.959 421.14 279.255 420.977 278.648 420.65C278.051 420.323 277.584 419.875 277.248 419.306C276.921 418.737 276.758 418.083 276.758 417.346C276.758 416.767 276.851 416.24 277.038 415.764C277.225 415.288 277.486 414.877 277.822 414.532C278.158 414.177 278.555 413.907 279.012 413.72C279.479 413.524 279.983 413.426 280.524 413.426C281.028 413.426 281.495 413.519 281.924 413.706C282.353 413.893 282.722 414.154 283.03 414.49C283.347 414.817 283.59 415.209 283.758 415.666C283.926 416.114 284.001 416.599 283.982 417.122L283.968 417.738H278.018L277.696 416.52H282.33L282.106 416.772V416.464C282.087 416.212 282.003 415.988 281.854 415.792C281.714 415.587 281.532 415.428 281.308 415.316C281.084 415.195 280.832 415.134 280.552 415.134C280.141 415.134 279.791 415.213 279.502 415.372C279.222 415.531 279.007 415.764 278.858 416.072C278.709 416.38 278.634 416.753 278.634 417.192C278.634 417.64 278.727 418.027 278.914 418.354C279.11 418.681 279.381 418.937 279.726 419.124C280.081 419.301 280.496 419.39 280.972 419.39C281.299 419.39 281.597 419.339 281.868 419.236C282.139 419.133 282.428 418.956 282.736 418.704L283.688 420.034C283.417 420.277 283.119 420.482 282.792 420.65C282.465 420.809 282.129 420.93 281.784 421.014C281.439 421.098 281.098 421.14 280.762 421.14ZM285.451 421V413.594H287.355L287.411 415.106L287.019 415.274C287.122 414.938 287.304 414.635 287.565 414.364C287.836 414.084 288.158 413.86 288.531 413.692C288.904 413.524 289.296 413.44 289.707 413.44C290.267 413.44 290.734 413.552 291.107 413.776C291.49 414 291.774 414.341 291.961 414.798C292.157 415.246 292.255 415.801 292.255 416.464V421H290.267V416.618C290.267 416.282 290.22 416.002 290.127 415.778C290.034 415.554 289.889 415.391 289.693 415.288C289.506 415.185 289.273 415.139 288.993 415.148C288.769 415.148 288.559 415.185 288.363 415.26C288.176 415.325 288.013 415.423 287.873 415.554C287.742 415.685 287.635 415.834 287.551 416.002C287.476 416.17 287.439 416.352 287.439 416.548V421H286.459C286.244 421 286.053 421 285.885 421C285.717 421 285.572 421 285.451 421ZM294.874 421V411.718H296.862V421H294.874ZM293.488 415.372V413.594H298.388V415.372H293.488Z" fill="white"/>
</svg>
