<svg width="32" height="32" viewBox="0 0 32 32" fill="none"
  xmlns="http://www.w3.org/2000/svg">
  <path fill-rule="evenodd" clip-rule="evenodd" d="M16.0007 5.33337C16.737 5.33337 17.334 5.93033 17.334 6.66671V14.6667H25.334C26.0704 14.6667 26.6673 15.2637 26.6673 16C26.6673 16.7364 26.0704 17.3334 25.334 17.3334H17.334V25.3334C17.334 26.0698 16.737 26.6667 16.0007 26.6667C15.2643 26.6667 14.6673 26.0698 14.6673 25.3334V17.3334H6.66732C5.93094 17.3334 5.33398 16.7364 5.33398 16C5.33398 15.2637 5.93094 14.6667 6.66732 14.6667H14.6673V6.66671C14.6673 5.93033 15.2643 5.33337 16.0007 5.33337Z" fill="#374151"/>
</svg>
