<svg width="58" height="54" viewBox="0 0 58 54" fill="none" xmlns="http://www.w3.org/2000/svg">
<path d="M56.777 26.3027H24.5068V52.7767H56.777V26.3027Z" stroke="#3833E3" stroke-width="2" stroke-miterlimit="10"/>
<path d="M43.6533 31.7586V26.3027H56.7777V52.7767H49.2253" stroke="#3833E3" stroke-width="2" stroke-miterlimit="10"/>
<path d="M53 3H44V26H53V3Z" stroke="#3833E3" stroke-width="2" stroke-miterlimit="10"/>
<path d="M44 14H35V26H44V14Z" stroke="#3833E3" stroke-width="2" stroke-miterlimit="10"/>
<path d="M51.094 35.4004H33.9375V52.7782H51.094V35.4004Z" stroke="#3833E3" stroke-width="2" stroke-miterlimit="10"/>
<path d="M49.2246 31.7598H35.8154V35.4H49.2246V31.7598Z" stroke="#3833E3" stroke-width="2" stroke-miterlimit="10"/>
<path d="M47.9745 45.6211H37.0664V52.7814H47.9745V45.6211Z" stroke="#3833E3" stroke-width="2" stroke-miterlimit="10"/>
<path d="M13.1582 21.8398V23.5487C13.1582 24.4387 12.3571 24.7992 10.4879 25.1953C8.61876 25.5913 6.79407 25.9918 5.43223 26.2766C4.07039 26.5615 1.22656 28.2614 1.22656 32.9786V43.2629C1.22656 44.7937 1.45353 46.329 4.80917 46.329H19.4066C21.3381 46.329 22.1348 44.9673 22.1348 43.0893C22.1348 41.2113 21.4538 39.8541 18.7257 39.8541H6.66056" stroke="#3833E3" stroke-width="2" stroke-miterlimit="10"/>
<path d="M18.8955 21.8398V23.5487C18.8955 24.4387 19.6921 24.7992 21.5658 25.1953C23.4394 25.5913 25.2597 25.9918 26.6215 26.2766" stroke="#3833E3" stroke-width="2" stroke-miterlimit="10"/>
<path d="M10.9375 25.0977L14.9696 34.8524" stroke="#3833E3" stroke-width="2" stroke-miterlimit="10"/>
<path d="M26.2787 26.2761V11.4482C26.2787 8.73365 25.2003 6.13025 23.2806 4.21075C21.361 2.29125 18.7574 1.21289 16.0427 1.21289C13.3279 1.21289 10.7243 2.29125 8.80472 4.21075C6.88509 6.13025 5.80664 8.73365 5.80664 11.4482V26.2761" stroke="#3833E3" stroke-width="2" stroke-miterlimit="10"/>
<path d="M16.0514 9.05859C16.0514 9.05859 18.8953 12.5253 22.5847 12.4674C22.5847 12.4674 23.6083 20.4777 16.0514 23.5483C8.48567 20.4777 9.51817 12.4674 9.51817 12.4674C13.212 12.5253 16.0514 9.05859 16.0514 9.05859Z" stroke="#3833E3" stroke-width="2" stroke-miterlimit="10"/>
<path d="M21.1655 25.0977L17.1289 34.8524" stroke="#3833E3" stroke-width="2" stroke-miterlimit="10"/>
<path d="M12.7627 29.5078H19.1179" stroke="#3833E3" stroke-width="2" stroke-miterlimit="10"/>
<path d="M19.6872 34.8516H6.84766V39.7957H19.6872V34.8516Z" stroke="#3833E3" stroke-width="2" stroke-miterlimit="10"/>
<path d="M19.6872 46.3301H6.84766V51.8394H19.6872V46.3301Z" stroke="#3833E3" stroke-width="2" stroke-miterlimit="10"/>
<path d="M19.6875 51.8379H24.5073" stroke="#3833E3" stroke-width="2" stroke-miterlimit="10"/>
</svg>
