<svg width="56" height="56" viewBox="0 0 56 56" fill="none" xmlns="http://www.w3.org/2000/svg">
<path d="M12.8333 19.8327C14.122 19.8327 15.1667 18.788 15.1667 17.4993C15.1667 16.2107 14.122 15.166 12.8333 15.166C11.5447 15.166 10.5 16.2107 10.5 17.4993C10.5 18.788 11.5447 19.8327 12.8333 19.8327Z" stroke="#3833E3" stroke-width="2"/>
<path d="M19.833 15.166H45.4997M19.833 19.8327H33.833" stroke="#3833E3" stroke-width="2" stroke-linecap="round"/>
<path d="M12.8333 30.3327C14.122 30.3327 15.1667 29.288 15.1667 27.9993C15.1667 26.7107 14.122 25.666 12.8333 25.666C11.5447 25.666 10.5 26.7107 10.5 27.9993C10.5 29.288 11.5447 30.3327 12.8333 30.3327Z" stroke="#3833E3" stroke-width="2"/>
<path d="M19.833 25.666H38.4997M19.833 30.3327H36.1663" stroke="#3833E3" stroke-width="2" stroke-linecap="round"/>
<path d="M12.8333 40.8327C14.122 40.8327 15.1667 39.788 15.1667 38.4993C15.1667 37.2107 14.122 36.166 12.8333 36.166C11.5447 36.166 10.5 37.2107 10.5 38.4993C10.5 39.788 11.5447 40.8327 12.8333 40.8327Z" stroke="#3833E3" stroke-width="2"/>
<path d="M19.833 36.166H41.9997M19.833 40.8327H29.1663" stroke="#3833E3" stroke-width="2" stroke-linecap="round"/>
</svg>
