<svg width="56" height="56" viewBox="0 0 56 56" fill="none" xmlns="http://www.w3.org/2000/svg">
<path d="M6 49C6 49.5523 6.44772 50 7 50C7.55228 50 8 49.5523 8 49H6ZM8 49V38H6V49H8Z" fill="#3833E3"/>
<path d="M19 49C19 49.5523 19.4477 50 20 50C20.5523 50 21 49.5523 21 49H19ZM21 49V32H19V49H21Z" fill="#3833E3"/>
<path d="M31 49C31 49.5523 31.4477 50 32 50C32.5523 50 33 49.5523 33 49H31ZM33 49V38H31V49H33Z" fill="#3833E3"/>
<path d="M44 49C44 49.5523 44.4477 50 45 50C45.5523 50 46 49.5523 46 49L44 49ZM46 49L46 27L44 27L44 49L46 49Z" fill="#3833E3"/>
<path d="M22.4737 14.6744L23.1749 13.9615L22.4946 13.2923L21.7943 13.9406L22.4737 14.6744ZM31.3158 23.3721L30.6145 24.085L31.2949 24.7542L31.9951 24.1059L31.3158 23.3721ZM49.9993 7.0385C50.0205 6.48662 49.5904 6.022 49.0385 6.00074L40.0452 5.65425C39.4933 5.63299 39.0287 6.06313 39.0074 6.61501C38.9861 7.16688 39.4163 7.6315 39.9682 7.65276L47.9622 7.96076L47.6542 15.9548C47.633 16.5067 48.0631 16.9713 48.615 16.9926C49.1669 17.0138 49.6315 16.5837 49.6528 16.0318L49.9993 7.0385ZM7.67936 29.7338L23.153 15.4082L21.7943 13.9406L6.32064 28.2662L7.67936 29.7338ZM21.7724 15.3873L30.6145 24.085L32.017 22.6592L23.1749 13.9615L21.7724 15.3873ZM31.9951 24.1059L49.6794 7.73381L48.3206 6.26619L30.6364 22.6383L31.9951 24.1059Z" fill="#3833E3"/>
</svg>
