<svg width="57" height="56" viewBox="0 0 57 56" fill="none" xmlns="http://www.w3.org/2000/svg">
<path d="M7.34316 27.3932C8.62874 27.8151 14.5709 30.1469 20.6015 30.2377C21.8417 30.2564 23.0814 29.8781 23.8749 28.9247C24.5983 28.0555 25.3646 26.7749 25.7988 25.0649C26.7453 21.3382 28.6382 16.6797 27.6917 15.2822C26.9346 14.1642 22.644 14.5058 20.5933 14.8164C20.9088 14.1949 21.6344 12.2068 22.013 9.22536C22.4862 5.49861 19.1737 4.10108 18.2272 4.56693C17.2808 5.03277 13.9682 11.5546 12.0753 14.3496C10.1823 17.1447 4.97703 17.6105 4.5038 19.4739C4.03058 21.3373 5.92348 26.9274 7.34316 27.3932Z" stroke="#3833E3" stroke-width="2"/>
<path d="M48.5563 27.6105C47.2754 27.172 41.3723 24.7551 35.3646 24.6435C34.0818 24.6197 32.803 25.0297 32.0063 26.0354C31.2883 26.9419 30.5312 28.2708 30.1006 30.0401C29.1541 33.9289 27.2612 38.7899 28.2077 40.2481C28.9648 41.4148 33.2554 41.0583 35.3061 40.7342C34.9906 41.3827 34.265 43.4573 33.8864 46.5683C33.4132 50.4571 36.7258 51.9154 37.6722 51.4293C38.6187 50.9432 41.9313 44.1379 43.8242 41.2213C45.7171 38.3047 50.9224 37.8186 51.3956 35.8742C51.8688 33.9298 49.9759 28.0966 48.5563 27.6105Z" stroke="#3833E3" stroke-width="2"/>
</svg>
