<svg width="480" height="540" viewBox="0 0 480 540" fill="none" xmlns="http://www.w3.org/2000/svg">
<path d="M85 76H396C405.389 76 413 83.6112 413 93V447C413 456.389 405.389 464 396 464H85C75.6111 464 68 456.389 68 447V93C68 83.6112 75.6111 76 85 76Z" fill="#F1F5F7"/>
<path d="M89.533 121V118.291H91.99V109.009H89.533V106.3H97.597V109.009H95.14V118.291H97.597V121H89.533ZM100.627 121V109.891H103.483L103.567 112.159L102.979 112.411C103.133 111.907 103.406 111.452 103.798 111.046C104.204 110.626 104.687 110.29 105.247 110.038C105.807 109.786 106.395 109.66 107.011 109.66C107.851 109.66 108.551 109.828 109.111 110.164C109.685 110.5 110.112 111.011 110.392 111.697C110.686 112.369 110.833 113.202 110.833 114.196V121H107.851V114.427C107.851 113.923 107.781 113.503 107.641 113.167C107.501 112.831 107.284 112.586 106.99 112.432C106.71 112.278 106.36 112.208 105.94 112.222C105.604 112.222 105.289 112.278 104.995 112.39C104.715 112.488 104.47 112.635 104.26 112.831C104.064 113.027 103.903 113.251 103.777 113.503C103.665 113.755 103.609 114.028 103.609 114.322V121H102.139C101.817 121 101.53 121 101.278 121C101.026 121 100.809 121 100.627 121ZM117.428 121.21C116.392 121.21 115.468 121.042 114.656 120.706C113.858 120.356 113.214 119.88 112.724 119.278L114.593 117.682C115.013 118.144 115.489 118.48 116.021 118.69C116.553 118.886 117.085 118.984 117.617 118.984C117.827 118.984 118.016 118.963 118.184 118.921C118.366 118.865 118.52 118.795 118.646 118.711C118.772 118.613 118.863 118.501 118.919 118.375C118.989 118.235 119.024 118.088 119.024 117.934C119.024 117.626 118.898 117.388 118.646 117.22C118.506 117.136 118.289 117.045 117.995 116.947C117.701 116.835 117.323 116.716 116.861 116.59C116.147 116.408 115.538 116.198 115.034 115.96C114.544 115.708 114.152 115.428 113.858 115.12C113.606 114.826 113.41 114.511 113.27 114.175C113.144 113.825 113.081 113.44 113.081 113.02C113.081 112.516 113.193 112.061 113.417 111.655C113.641 111.235 113.949 110.878 114.341 110.584C114.747 110.29 115.209 110.066 115.727 109.912C116.245 109.744 116.791 109.66 117.365 109.66C117.939 109.66 118.499 109.73 119.045 109.87C119.591 110.01 120.095 110.213 120.557 110.479C121.033 110.731 121.446 111.032 121.796 111.382L120.2 113.146C119.948 112.908 119.661 112.691 119.339 112.495C119.031 112.299 118.709 112.145 118.373 112.033C118.037 111.921 117.736 111.865 117.47 111.865C117.232 111.865 117.015 111.886 116.819 111.928C116.637 111.97 116.483 112.04 116.357 112.138C116.231 112.222 116.133 112.327 116.063 112.453C116.007 112.579 115.979 112.719 115.979 112.873C115.979 113.027 116.014 113.174 116.084 113.314C116.168 113.454 116.28 113.573 116.42 113.671C116.574 113.755 116.798 113.853 117.092 113.965C117.4 114.077 117.813 114.203 118.331 114.343C119.003 114.525 119.57 114.728 120.032 114.952C120.508 115.176 120.886 115.435 121.166 115.729C121.404 115.981 121.579 116.268 121.691 116.59C121.803 116.912 121.859 117.269 121.859 117.661C121.859 118.347 121.663 118.956 121.271 119.488C120.893 120.02 120.368 120.44 119.696 120.748C119.024 121.056 118.268 121.21 117.428 121.21ZM123.985 125.62V109.891H126.862L126.946 112.39L126.4 112.201C126.498 111.753 126.736 111.34 127.114 110.962C127.506 110.584 127.989 110.276 128.563 110.038C129.137 109.8 129.739 109.681 130.369 109.681C131.335 109.681 132.196 109.933 132.952 110.437C133.708 110.927 134.303 111.606 134.737 112.474C135.171 113.328 135.388 114.315 135.388 115.435C135.388 116.541 135.171 117.528 134.737 118.396C134.303 119.264 133.708 119.95 132.952 120.454C132.196 120.944 131.335 121.189 130.369 121.189C129.725 121.189 129.109 121.07 128.521 120.832C127.947 120.58 127.457 120.251 127.051 119.845C126.659 119.439 126.407 119.005 126.295 118.543L126.988 118.249V125.62H123.985ZM129.697 118.627C130.243 118.627 130.726 118.494 131.146 118.228C131.566 117.962 131.895 117.591 132.133 117.115C132.371 116.625 132.49 116.065 132.49 115.435C132.49 114.805 132.371 114.252 132.133 113.776C131.895 113.3 131.566 112.929 131.146 112.663C130.74 112.397 130.257 112.264 129.697 112.264C129.137 112.264 128.647 112.397 128.227 112.663C127.807 112.915 127.478 113.286 127.24 113.776C127.002 114.252 126.883 114.805 126.883 115.435C126.883 116.065 127.002 116.625 127.24 117.115C127.478 117.591 127.807 117.962 128.227 118.228C128.647 118.494 129.137 118.627 129.697 118.627ZM142.914 121.21C141.71 121.21 140.653 120.965 139.743 120.475C138.847 119.985 138.147 119.313 137.643 118.459C137.153 117.605 136.908 116.625 136.908 115.519C136.908 114.651 137.048 113.86 137.328 113.146C137.608 112.432 138 111.816 138.504 111.298C139.008 110.766 139.603 110.36 140.289 110.08C140.989 109.786 141.745 109.639 142.557 109.639C143.313 109.639 144.013 109.779 144.657 110.059C145.301 110.339 145.854 110.731 146.316 111.235C146.792 111.725 147.156 112.313 147.408 112.999C147.66 113.671 147.772 114.399 147.744 115.183L147.723 116.107H138.798L138.315 114.28H145.266L144.93 114.658V114.196C144.902 113.818 144.776 113.482 144.552 113.188C144.342 112.88 144.069 112.642 143.733 112.474C143.397 112.292 143.019 112.201 142.599 112.201C141.983 112.201 141.458 112.32 141.024 112.558C140.604 112.796 140.282 113.146 140.058 113.608C139.834 114.07 139.722 114.63 139.722 115.288C139.722 115.96 139.862 116.541 140.142 117.031C140.436 117.521 140.842 117.906 141.36 118.186C141.892 118.452 142.515 118.585 143.229 118.585C143.719 118.585 144.167 118.508 144.573 118.354C144.979 118.2 145.413 117.934 145.875 117.556L147.303 119.551C146.897 119.915 146.449 120.223 145.959 120.475C145.469 120.713 144.965 120.895 144.447 121.021C143.929 121.147 143.418 121.21 142.914 121.21ZM154.778 121.21C153.714 121.21 152.762 120.958 151.922 120.454C151.082 119.95 150.417 119.264 149.927 118.396C149.451 117.528 149.213 116.541 149.213 115.435C149.213 114.329 149.451 113.342 149.927 112.474C150.417 111.606 151.082 110.92 151.922 110.416C152.762 109.912 153.714 109.66 154.778 109.66C155.772 109.66 156.682 109.842 157.508 110.206C158.334 110.57 158.978 111.074 159.44 111.718L157.802 113.692C157.606 113.426 157.361 113.188 157.067 112.978C156.773 112.754 156.451 112.579 156.101 112.453C155.765 112.327 155.415 112.264 155.051 112.264C154.477 112.264 153.966 112.404 153.518 112.684C153.084 112.95 152.741 113.321 152.489 113.797C152.237 114.273 152.111 114.819 152.111 115.435C152.111 116.023 152.237 116.555 152.489 117.031C152.755 117.507 153.112 117.885 153.56 118.165C154.008 118.445 154.512 118.585 155.072 118.585C155.436 118.585 155.779 118.536 156.101 118.438C156.423 118.34 156.724 118.186 157.004 117.976C157.298 117.766 157.564 117.514 157.802 117.22L159.419 119.194C158.957 119.796 158.299 120.286 157.445 120.664C156.605 121.028 155.716 121.21 154.778 121.21ZM162.401 121V107.077H165.383V121H162.401ZM160.322 112.558V109.891H167.672V112.558H160.322ZM169.847 121V109.891H172.829V121H169.847ZM171.317 107.623C170.743 107.623 170.295 107.483 169.973 107.203C169.651 106.909 169.49 106.503 169.49 105.985C169.49 105.509 169.651 105.124 169.973 104.83C170.309 104.522 170.757 104.368 171.317 104.368C171.891 104.368 172.339 104.515 172.661 104.809C172.983 105.089 173.144 105.481 173.144 105.985C173.144 106.461 172.976 106.853 172.64 107.161C172.318 107.469 171.877 107.623 171.317 107.623ZM181.179 121.21C180.045 121.21 179.03 120.965 178.134 120.475C177.252 119.971 176.552 119.285 176.034 118.417C175.53 117.549 175.278 116.555 175.278 115.435C175.278 114.315 175.53 113.321 176.034 112.453C176.552 111.585 177.252 110.906 178.134 110.416C179.03 109.912 180.045 109.66 181.179 109.66C182.299 109.66 183.3 109.912 184.182 110.416C185.078 110.906 185.778 111.585 186.282 112.453C186.786 113.321 187.038 114.315 187.038 115.435C187.038 116.555 186.786 117.549 186.282 118.417C185.778 119.285 185.078 119.971 184.182 120.475C183.3 120.965 182.299 121.21 181.179 121.21ZM181.179 118.606C181.725 118.606 182.215 118.473 182.649 118.207C183.083 117.927 183.419 117.549 183.657 117.073C183.909 116.583 184.028 116.037 184.014 115.435C184.028 114.819 183.909 114.273 183.657 113.797C183.419 113.307 183.083 112.929 182.649 112.663C182.215 112.383 181.725 112.243 181.179 112.243C180.619 112.243 180.122 112.383 179.688 112.663C179.254 112.943 178.911 113.321 178.659 113.797C178.407 114.273 178.288 114.819 178.302 115.435C178.288 116.037 178.407 116.583 178.659 117.073C178.911 117.549 179.254 117.927 179.688 118.207C180.122 118.473 180.619 118.606 181.179 118.606ZM189.303 121V109.891H192.159L192.243 112.159L191.655 112.411C191.809 111.907 192.082 111.452 192.474 111.046C192.88 110.626 193.363 110.29 193.923 110.038C194.483 109.786 195.071 109.66 195.687 109.66C196.527 109.66 197.227 109.828 197.787 110.164C198.361 110.5 198.788 111.011 199.068 111.697C199.362 112.369 199.509 113.202 199.509 114.196V121H196.527V114.427C196.527 113.923 196.457 113.503 196.317 113.167C196.177 112.831 195.96 112.586 195.666 112.432C195.386 112.278 195.036 112.208 194.616 112.222C194.28 112.222 193.965 112.278 193.671 112.39C193.391 112.488 193.146 112.635 192.936 112.831C192.74 113.027 192.579 113.251 192.453 113.503C192.341 113.755 192.285 114.028 192.285 114.322V121H190.815C190.493 121 190.206 121 189.954 121C189.702 121 189.485 121 189.303 121ZM209.225 121V106.3H215.735C216.645 106.3 217.471 106.51 218.213 106.93C218.955 107.336 219.536 107.889 219.956 108.589C220.39 109.289 220.607 110.087 220.607 110.983C220.607 111.865 220.39 112.67 219.956 113.398C219.536 114.112 218.955 114.679 218.213 115.099C217.471 115.519 216.645 115.729 215.735 115.729H212.27V121H209.225ZM217.562 121L213.824 114.364L217.058 113.839L221.216 121.021L217.562 121ZM212.27 113.167H215.588C215.966 113.167 216.295 113.083 216.575 112.915C216.869 112.733 217.093 112.488 217.247 112.18C217.401 111.858 217.478 111.501 217.478 111.109C217.478 110.689 217.387 110.325 217.205 110.017C217.023 109.709 216.757 109.471 216.407 109.303C216.057 109.121 215.651 109.03 215.189 109.03H212.27V113.167ZM228.37 121.21C227.166 121.21 226.109 120.965 225.199 120.475C224.303 119.985 223.603 119.313 223.099 118.459C222.609 117.605 222.364 116.625 222.364 115.519C222.364 114.651 222.504 113.86 222.784 113.146C223.064 112.432 223.456 111.816 223.96 111.298C224.464 110.766 225.059 110.36 225.745 110.08C226.445 109.786 227.201 109.639 228.013 109.639C228.769 109.639 229.469 109.779 230.113 110.059C230.757 110.339 231.31 110.731 231.772 111.235C232.248 111.725 232.612 112.313 232.864 112.999C233.116 113.671 233.228 114.399 233.2 115.183L233.179 116.107H224.254L223.771 114.28H230.722L230.386 114.658V114.196C230.358 113.818 230.232 113.482 230.008 113.188C229.798 112.88 229.525 112.642 229.189 112.474C228.853 112.292 228.475 112.201 228.055 112.201C227.439 112.201 226.914 112.32 226.48 112.558C226.06 112.796 225.738 113.146 225.514 113.608C225.29 114.07 225.178 114.63 225.178 115.288C225.178 115.96 225.318 116.541 225.598 117.031C225.892 117.521 226.298 117.906 226.816 118.186C227.348 118.452 227.971 118.585 228.685 118.585C229.175 118.585 229.623 118.508 230.029 118.354C230.435 118.2 230.869 117.934 231.331 117.556L232.759 119.551C232.353 119.915 231.905 120.223 231.415 120.475C230.925 120.713 230.421 120.895 229.903 121.021C229.385 121.147 228.874 121.21 228.37 121.21ZM235.404 125.62V109.891H238.281L238.365 112.39L237.819 112.201C237.917 111.753 238.155 111.34 238.533 110.962C238.925 110.584 239.408 110.276 239.982 110.038C240.556 109.8 241.158 109.681 241.788 109.681C242.754 109.681 243.615 109.933 244.371 110.437C245.127 110.927 245.722 111.606 246.156 112.474C246.59 113.328 246.807 114.315 246.807 115.435C246.807 116.541 246.59 117.528 246.156 118.396C245.722 119.264 245.127 119.95 244.371 120.454C243.615 120.944 242.754 121.189 241.788 121.189C241.144 121.189 240.528 121.07 239.94 120.832C239.366 120.58 238.876 120.251 238.47 119.845C238.078 119.439 237.826 119.005 237.714 118.543L238.407 118.249V125.62H235.404ZM241.116 118.627C241.662 118.627 242.145 118.494 242.565 118.228C242.985 117.962 243.314 117.591 243.552 117.115C243.79 116.625 243.909 116.065 243.909 115.435C243.909 114.805 243.79 114.252 243.552 113.776C243.314 113.3 242.985 112.929 242.565 112.663C242.159 112.397 241.676 112.264 241.116 112.264C240.556 112.264 240.066 112.397 239.646 112.663C239.226 112.915 238.897 113.286 238.659 113.776C238.421 114.252 238.302 114.805 238.302 115.435C238.302 116.065 238.421 116.625 238.659 117.115C238.897 117.591 239.226 117.962 239.646 118.228C240.066 118.494 240.556 118.627 241.116 118.627ZM254.228 121.21C253.094 121.21 252.079 120.965 251.183 120.475C250.301 119.971 249.601 119.285 249.083 118.417C248.579 117.549 248.327 116.555 248.327 115.435C248.327 114.315 248.579 113.321 249.083 112.453C249.601 111.585 250.301 110.906 251.183 110.416C252.079 109.912 253.094 109.66 254.228 109.66C255.348 109.66 256.349 109.912 257.231 110.416C258.127 110.906 258.827 111.585 259.331 112.453C259.835 113.321 260.087 114.315 260.087 115.435C260.087 116.555 259.835 117.549 259.331 118.417C258.827 119.285 258.127 119.971 257.231 120.475C256.349 120.965 255.348 121.21 254.228 121.21ZM254.228 118.606C254.774 118.606 255.264 118.473 255.698 118.207C256.132 117.927 256.468 117.549 256.706 117.073C256.958 116.583 257.077 116.037 257.063 115.435C257.077 114.819 256.958 114.273 256.706 113.797C256.468 113.307 256.132 112.929 255.698 112.663C255.264 112.383 254.774 112.243 254.228 112.243C253.668 112.243 253.171 112.383 252.737 112.663C252.303 112.943 251.96 113.321 251.708 113.797C251.456 114.273 251.337 114.819 251.351 115.435C251.337 116.037 251.456 116.583 251.708 117.073C251.96 117.549 252.303 117.927 252.737 118.207C253.171 118.473 253.668 118.606 254.228 118.606ZM262.351 121V109.891H265.228L265.333 113.461L264.829 112.726C264.997 112.152 265.27 111.634 265.648 111.172C266.026 110.696 266.467 110.325 266.971 110.059C267.489 109.793 268.028 109.66 268.588 109.66C268.826 109.66 269.057 109.681 269.281 109.723C269.505 109.765 269.694 109.814 269.848 109.87L269.05 113.146C268.896 113.062 268.693 112.992 268.441 112.936C268.203 112.866 267.958 112.831 267.706 112.831C267.37 112.831 267.055 112.894 266.761 113.02C266.481 113.132 266.236 113.3 266.026 113.524C265.816 113.734 265.648 113.986 265.522 114.28C265.41 114.574 265.354 114.896 265.354 115.246V121H262.351ZM273.041 121V107.077H276.023V121H273.041ZM270.962 112.558V109.891H278.312V112.558H270.962ZM284.382 121.21C283.346 121.21 282.422 121.042 281.61 120.706C280.812 120.356 280.168 119.88 279.678 119.278L281.547 117.682C281.967 118.144 282.443 118.48 282.975 118.69C283.507 118.886 284.039 118.984 284.571 118.984C284.781 118.984 284.97 118.963 285.138 118.921C285.32 118.865 285.474 118.795 285.6 118.711C285.726 118.613 285.817 118.501 285.873 118.375C285.943 118.235 285.978 118.088 285.978 117.934C285.978 117.626 285.852 117.388 285.6 117.22C285.46 117.136 285.243 117.045 284.949 116.947C284.655 116.835 284.277 116.716 283.815 116.59C283.101 116.408 282.492 116.198 281.988 115.96C281.498 115.708 281.106 115.428 280.812 115.12C280.56 114.826 280.364 114.511 280.224 114.175C280.098 113.825 280.035 113.44 280.035 113.02C280.035 112.516 280.147 112.061 280.371 111.655C280.595 111.235 280.903 110.878 281.295 110.584C281.701 110.29 282.163 110.066 282.681 109.912C283.199 109.744 283.745 109.66 284.319 109.66C284.893 109.66 285.453 109.73 285.999 109.87C286.545 110.01 287.049 110.213 287.511 110.479C287.987 110.731 288.4 111.032 288.75 111.382L287.154 113.146C286.902 112.908 286.615 112.691 286.293 112.495C285.985 112.299 285.663 112.145 285.327 112.033C284.991 111.921 284.69 111.865 284.424 111.865C284.186 111.865 283.969 111.886 283.773 111.928C283.591 111.97 283.437 112.04 283.311 112.138C283.185 112.222 283.087 112.327 283.017 112.453C282.961 112.579 282.933 112.719 282.933 112.873C282.933 113.027 282.968 113.174 283.038 113.314C283.122 113.454 283.234 113.573 283.374 113.671C283.528 113.755 283.752 113.853 284.046 113.965C284.354 114.077 284.767 114.203 285.285 114.343C285.957 114.525 286.524 114.728 286.986 114.952C287.462 115.176 287.84 115.435 288.12 115.729C288.358 115.981 288.533 116.268 288.645 116.59C288.757 116.912 288.813 117.269 288.813 117.661C288.813 118.347 288.617 118.956 288.225 119.488C287.847 120.02 287.322 120.44 286.65 120.748C285.978 121.056 285.222 121.21 284.382 121.21Z" fill="black"/>
<rect x="88" y="142" width="163" height="149.694" rx="8" fill="white"/>
<rect x="88" y="300" width="163" height="149.694" rx="8" fill="white"/>
<rect x="257" y="142" width="140" height="150" rx="8" fill="white"/>
<rect x="257" y="300" width="140" height="150" rx="8" fill="white"/>
<line x1="88" y1="161.682" x2="244.901" y2="161.682" stroke="#ECECEC" stroke-width="0.554422"/>
<line x1="88" y1="319.682" x2="244.901" y2="319.682" stroke="#ECECEC" stroke-width="0.554422"/>
<path d="M241.016 220.327C240.851 230.284 237.21 239.87 230.724 247.426C224.237 254.982 215.314 260.033 205.497 261.704C195.68 263.375 185.588 261.563 176.966 256.579C168.345 251.595 161.737 243.755 158.286 234.414L169.389 230.312C171.883 237.063 176.659 242.729 182.89 246.331C189.121 249.933 196.415 251.243 203.51 250.035C210.605 248.827 217.054 245.177 221.742 239.716C226.43 234.255 229.061 227.327 229.181 220.131L241.016 220.327Z" fill="url(#paint0_linear_617_5414)"/>
<path d="M241.016 378.327C240.851 388.284 237.21 397.87 230.724 405.426C224.237 412.982 215.314 418.033 205.497 419.704C195.68 421.375 185.588 419.563 176.966 414.579C168.345 409.595 161.737 401.755 158.286 392.414L169.389 388.312C171.883 395.063 176.659 400.729 182.89 404.331C189.121 407.933 196.415 409.243 203.51 408.035C210.605 406.827 217.054 403.177 221.742 397.716C226.43 392.255 229.061 385.327 229.181 378.131L241.016 378.327Z" fill="url(#paint1_linear_617_5414)"/>
<path d="M158.266 234.36C154.732 224.753 154.767 214.196 158.365 204.612C161.964 195.029 168.886 187.058 177.87 182.152L183.543 192.54C177.05 196.086 172.047 201.847 169.446 208.773C166.846 215.699 166.82 223.329 169.375 230.273L158.266 234.36Z" fill="url(#paint2_linear_617_5414)"/>
<path d="M158.266 392.36C154.732 382.753 154.767 372.196 158.365 362.612C161.964 353.029 168.886 345.058 177.87 340.152L183.543 350.54C177.05 354.086 172.047 359.847 169.446 366.773C166.846 373.699 166.82 381.329 169.375 388.273L158.266 392.36Z" fill="url(#paint3_linear_617_5414)"/>
<path d="M177.901 182.135C184.453 178.564 191.826 176.772 199.287 176.939C206.747 177.106 214.033 179.226 220.418 183.087C226.804 186.947 232.066 192.414 235.68 198.943C239.294 205.471 241.134 212.833 241.016 220.294L229.181 220.107C229.266 214.714 227.937 209.394 225.325 204.676C222.713 199.957 218.91 196.006 214.294 193.216C209.679 190.426 204.413 188.894 199.022 188.773C193.63 188.652 188.301 189.947 183.565 192.528L177.901 182.135Z" fill="url(#paint4_linear_617_5414)"/>
<path d="M177.901 340.135C184.453 336.564 191.826 334.772 199.287 334.939C206.747 335.106 214.033 337.226 220.418 341.087C226.804 344.947 232.066 350.414 235.68 356.943C239.294 363.471 241.134 370.833 241.016 378.294L229.181 378.107C229.266 372.714 227.937 367.394 225.325 362.676C222.713 357.957 218.91 354.006 214.294 351.216C209.679 348.426 204.413 346.894 199.022 346.773C193.63 346.652 188.301 347.947 183.565 350.528L177.901 340.135Z" fill="url(#paint5_linear_617_5414)"/>
<rect x="94.6523" y="180.81" width="17.1871" height="9.97959" rx="1.66327" fill="#F49F3C"/>
<rect x="94.6523" y="338.81" width="17.1871" height="9.97959" rx="1.66327" fill="#4662F4"/>
<rect x="94.6523" y="207.422" width="17.1871" height="9.97959" rx="1.66327" fill="#FAC15D"/>
<rect x="94.6523" y="365.422" width="17.1871" height="9.97959" rx="1.66327" fill="#617AFF"/>
<rect x="94.6523" y="234.034" width="17.1871" height="9.97959" rx="1.66327" fill="#FAD493"/>
<rect x="94.6523" y="392.034" width="17.1871" height="9.97959" rx="1.66327" fill="#9CAAF6"/>
<rect x="117.385" y="184.136" width="21.6224" height="3.88095" rx="1.94048" fill="#E4E6EA"/>
<rect x="117.385" y="342.136" width="21.6224" height="3.88095" rx="1.94048" fill="#E4E6EA"/>
<rect x="117.385" y="210.194" width="21.6224" height="3.88095" rx="1.94048" fill="#E4E6EA"/>
<rect x="117.385" y="368.194" width="21.6224" height="3.88095" rx="1.94048" fill="#E4E6EA"/>
<rect x="117.385" y="236.806" width="21.6224" height="3.88095" rx="1.94048" fill="#E4E6EA"/>
<rect x="117.385" y="394.806" width="21.6224" height="3.88095" rx="1.94048" fill="#E4E6EA"/>
<path d="M95.784 154V148.4H98.168C98.488 148.4 98.7813 148.48 99.048 148.64C99.32 148.795 99.536 149.008 99.696 149.28C99.856 149.547 99.936 149.848 99.936 150.184C99.936 150.488 99.856 150.771 99.696 151.032C99.536 151.293 99.3227 151.504 99.056 151.664C98.7893 151.819 98.4933 151.896 98.168 151.896H96.648V154H95.784ZM99.112 154L97.688 151.472L98.576 151.272L100.16 154.008L99.112 154ZM96.648 151.064H98.248C98.4027 151.064 98.5413 151.027 98.664 150.952C98.7867 150.872 98.8827 150.765 98.952 150.632C99.0213 150.493 99.056 150.341 99.056 150.176C99.056 149.989 99.0107 149.827 98.92 149.688C98.8347 149.544 98.712 149.432 98.552 149.352C98.3973 149.272 98.2213 149.232 98.024 149.232H96.648V151.064ZM102.942 154.08C102.51 154.08 102.126 153.989 101.79 153.808C101.46 153.621 101.198 153.368 101.006 153.048C100.82 152.728 100.726 152.36 100.726 151.944C100.726 151.613 100.78 151.312 100.886 151.04C100.993 150.768 101.14 150.533 101.326 150.336C101.518 150.133 101.745 149.979 102.006 149.872C102.273 149.76 102.561 149.704 102.87 149.704C103.142 149.704 103.396 149.757 103.63 149.864C103.865 149.965 104.068 150.107 104.238 150.288C104.414 150.469 104.548 150.685 104.638 150.936C104.734 151.181 104.78 151.451 104.774 151.744L104.766 152.096H101.334L101.15 151.44H104.054L103.934 151.576V151.384C103.918 151.208 103.86 151.051 103.758 150.912C103.657 150.773 103.529 150.664 103.374 150.584C103.22 150.504 103.052 150.464 102.87 150.464C102.582 150.464 102.34 150.52 102.142 150.632C101.945 150.739 101.796 150.899 101.694 151.112C101.593 151.32 101.542 151.579 101.542 151.888C101.542 152.181 101.604 152.437 101.726 152.656C101.849 152.869 102.022 153.035 102.246 153.152C102.47 153.269 102.729 153.328 103.022 153.328C103.23 153.328 103.422 153.293 103.598 153.224C103.78 153.155 103.974 153.029 104.182 152.848L104.598 153.432C104.47 153.56 104.313 153.672 104.126 153.768C103.945 153.864 103.75 153.941 103.542 154C103.34 154.053 103.14 154.08 102.942 154.08ZM105.67 155.76V149.8H106.502V150.76L106.374 150.688C106.406 150.528 106.496 150.376 106.646 150.232C106.795 150.083 106.976 149.963 107.19 149.872C107.408 149.776 107.632 149.728 107.862 149.728C108.24 149.728 108.576 149.821 108.87 150.008C109.163 150.195 109.395 150.451 109.566 150.776C109.736 151.101 109.822 151.475 109.822 151.896C109.822 152.312 109.736 152.685 109.566 153.016C109.4 153.341 109.171 153.6 108.878 153.792C108.584 153.979 108.254 154.072 107.886 154.072C107.64 154.072 107.403 154.024 107.174 153.928C106.944 153.827 106.75 153.699 106.59 153.544C106.43 153.389 106.331 153.229 106.294 153.064L106.502 152.952V155.76H105.67ZM107.75 153.312C107.995 153.312 108.214 153.251 108.406 153.128C108.598 153.005 108.75 152.837 108.862 152.624C108.974 152.411 109.03 152.168 109.03 151.896C109.03 151.624 108.974 151.384 108.862 151.176C108.755 150.963 108.606 150.795 108.414 150.672C108.222 150.549 108 150.488 107.75 150.488C107.499 150.488 107.278 150.549 107.086 150.672C106.894 150.789 106.742 150.955 106.63 151.168C106.518 151.381 106.462 151.624 106.462 151.896C106.462 152.168 106.518 152.411 106.63 152.624C106.742 152.837 106.894 153.005 107.086 153.128C107.278 153.251 107.499 153.312 107.75 153.312ZM112.605 154.08C112.194 154.08 111.826 153.987 111.501 153.8C111.181 153.608 110.927 153.349 110.741 153.024C110.554 152.693 110.461 152.317 110.461 151.896C110.461 151.475 110.554 151.101 110.741 150.776C110.927 150.445 111.181 150.187 111.501 150C111.826 149.808 112.194 149.712 112.605 149.712C113.01 149.712 113.373 149.808 113.693 150C114.018 150.187 114.274 150.445 114.461 150.776C114.647 151.101 114.741 151.475 114.741 151.896C114.741 152.317 114.647 152.693 114.461 153.024C114.274 153.349 114.018 153.608 113.693 153.8C113.373 153.987 113.01 154.08 112.605 154.08ZM112.605 153.328C112.855 153.328 113.079 153.267 113.277 153.144C113.474 153.016 113.629 152.845 113.741 152.632C113.853 152.413 113.906 152.168 113.901 151.896C113.906 151.619 113.853 151.373 113.741 151.16C113.629 150.941 113.474 150.771 113.277 150.648C113.079 150.525 112.855 150.464 112.605 150.464C112.354 150.464 112.127 150.528 111.925 150.656C111.727 150.779 111.573 150.949 111.461 151.168C111.349 151.381 111.295 151.624 111.301 151.896C111.295 152.168 111.349 152.413 111.461 152.632C111.573 152.845 111.727 153.016 111.925 153.144C112.127 153.267 112.354 153.328 112.605 153.328ZM115.639 154V149.8H116.471V151.12L116.391 150.8C116.449 150.597 116.548 150.413 116.687 150.248C116.831 150.083 116.993 149.952 117.174 149.856C117.361 149.76 117.553 149.712 117.751 149.712C117.841 149.712 117.927 149.72 118.007 149.736C118.092 149.752 118.159 149.771 118.207 149.792L117.991 150.688C117.927 150.661 117.855 150.64 117.775 150.624C117.7 150.603 117.625 150.592 117.551 150.592C117.407 150.592 117.268 150.621 117.135 150.68C117.007 150.733 116.892 150.811 116.791 150.912C116.695 151.008 116.617 151.123 116.559 151.256C116.5 151.384 116.471 151.525 116.471 151.68V154H115.639ZM119.541 154V148.728H120.365V154H119.541ZM118.669 150.6V149.8H121.341V150.6H118.669ZM124.502 154L124.238 153.344L125.95 151.416C126.04 151.32 126.134 151.211 126.23 151.088C126.331 150.96 126.427 150.829 126.518 150.696C126.608 150.563 126.68 150.432 126.734 150.304C126.792 150.171 126.822 150.045 126.822 149.928C126.822 149.757 126.787 149.613 126.718 149.496C126.654 149.373 126.558 149.28 126.43 149.216C126.307 149.152 126.158 149.12 125.982 149.12C125.827 149.12 125.675 149.165 125.526 149.256C125.376 149.347 125.24 149.475 125.118 149.64C124.995 149.805 124.899 149.997 124.83 150.216L124.166 149.8C124.256 149.491 124.392 149.227 124.574 149.008C124.76 148.784 124.982 148.613 125.238 148.496C125.499 148.379 125.782 148.32 126.086 148.32C126.4 148.32 126.68 148.387 126.926 148.52C127.171 148.648 127.363 148.829 127.502 149.064C127.64 149.293 127.71 149.56 127.71 149.864C127.71 149.987 127.696 150.112 127.67 150.24C127.643 150.368 127.6 150.501 127.542 150.64C127.483 150.773 127.408 150.915 127.318 151.064C127.227 151.208 127.118 151.36 126.99 151.52C126.867 151.68 126.726 151.848 126.566 152.024L125.294 153.408L125.134 153.168H127.886V154H124.502ZM130.565 154.08C130.138 154.08 129.77 153.963 129.461 153.728C129.157 153.493 128.922 153.163 128.757 152.736C128.591 152.304 128.509 151.792 128.509 151.2C128.509 150.608 128.591 150.099 128.757 149.672C128.922 149.24 129.157 148.907 129.461 148.672C129.77 148.437 130.138 148.32 130.565 148.32C130.991 148.32 131.359 148.437 131.669 148.672C131.978 148.907 132.215 149.24 132.381 149.672C132.546 150.099 132.629 150.608 132.629 151.2C132.629 151.792 132.546 152.304 132.381 152.736C132.215 153.163 131.978 153.493 131.669 153.728C131.359 153.963 130.991 154.08 130.565 154.08ZM130.565 153.296C130.954 153.296 131.255 153.115 131.469 152.752C131.682 152.384 131.789 151.867 131.789 151.2C131.789 150.533 131.682 150.019 131.469 149.656C131.255 149.288 130.954 149.104 130.565 149.104C130.175 149.104 129.874 149.288 129.661 149.656C129.447 150.019 129.341 150.533 129.341 151.2C129.341 151.867 129.447 152.384 129.661 152.752C129.874 153.115 130.175 153.296 130.565 153.296ZM133.744 154L133.48 153.344L135.192 151.416C135.283 151.32 135.376 151.211 135.472 151.088C135.573 150.96 135.669 150.829 135.76 150.696C135.851 150.563 135.923 150.432 135.976 150.304C136.035 150.171 136.064 150.045 136.064 149.928C136.064 149.757 136.029 149.613 135.96 149.496C135.896 149.373 135.8 149.28 135.672 149.216C135.549 149.152 135.4 149.12 135.224 149.12C135.069 149.12 134.917 149.165 134.768 149.256C134.619 149.347 134.483 149.475 134.36 149.64C134.237 149.805 134.141 149.997 134.072 150.216L133.408 149.8C133.499 149.491 133.635 149.227 133.816 149.008C134.003 148.784 134.224 148.613 134.48 148.496C134.741 148.379 135.024 148.32 135.328 148.32C135.643 148.32 135.923 148.387 136.168 148.52C136.413 148.648 136.605 148.829 136.744 149.064C136.883 149.293 136.952 149.56 136.952 149.864C136.952 149.987 136.939 150.112 136.912 150.24C136.885 150.368 136.843 150.501 136.784 150.64C136.725 150.773 136.651 150.915 136.56 151.064C136.469 151.208 136.36 151.36 136.232 151.52C136.109 151.68 135.968 151.848 135.808 152.024L134.536 153.408L134.376 153.168H137.128V154H133.744ZM138.127 154L137.863 153.344L139.575 151.416C139.665 151.32 139.759 151.211 139.855 151.088C139.956 150.96 140.052 150.829 140.143 150.696C140.233 150.563 140.305 150.432 140.359 150.304C140.417 150.171 140.447 150.045 140.447 149.928C140.447 149.757 140.412 149.613 140.343 149.496C140.279 149.373 140.183 149.28 140.055 149.216C139.932 149.152 139.783 149.12 139.607 149.12C139.452 149.12 139.3 149.165 139.151 149.256C139.001 149.347 138.865 149.475 138.743 149.64C138.62 149.805 138.524 149.997 138.455 150.216L137.791 149.8C137.881 149.491 138.017 149.227 138.199 149.008C138.385 148.784 138.607 148.613 138.863 148.496C139.124 148.379 139.407 148.32 139.711 148.32C140.025 148.32 140.305 148.387 140.551 148.52C140.796 148.648 140.988 148.829 141.127 149.064C141.265 149.293 141.335 149.56 141.335 149.864C141.335 149.987 141.321 150.112 141.295 150.24C141.268 150.368 141.225 150.501 141.167 150.64C141.108 150.773 141.033 150.915 140.943 151.064C140.852 151.208 140.743 151.36 140.615 151.52C140.492 151.68 140.351 151.848 140.191 152.024L138.919 153.408L138.759 153.168H141.511V154H138.127Z" fill="black"/>
<path d="M263.576 154V153.2H264.48V149.2H263.576V148.4H266.248V149.2H265.344V153.2H266.248V154H263.576ZM267.396 154V149.8H268.22V150.664L268.076 150.76C268.13 150.573 268.234 150.403 268.388 150.248C268.543 150.088 268.727 149.96 268.94 149.864C269.154 149.763 269.372 149.712 269.596 149.712C269.916 149.712 270.183 149.776 270.396 149.904C270.61 150.027 270.77 150.216 270.876 150.472C270.983 150.728 271.036 151.051 271.036 151.44V154H270.212V151.496C270.212 151.256 270.18 151.059 270.116 150.904C270.052 150.744 269.954 150.629 269.82 150.56C269.687 150.485 269.522 150.453 269.324 150.464C269.164 150.464 269.018 150.491 268.884 150.544C268.751 150.592 268.634 150.661 268.532 150.752C268.436 150.843 268.359 150.949 268.3 151.072C268.247 151.189 268.22 151.317 268.22 151.456V154H267.812C267.743 154 267.674 154 267.604 154C267.535 154 267.466 154 267.396 154ZM273.554 154.08C273.202 154.08 272.885 154.019 272.602 153.896C272.319 153.773 272.085 153.592 271.898 153.352L272.458 152.872C272.618 153.059 272.791 153.195 272.978 153.28C273.17 153.36 273.386 153.4 273.626 153.4C273.722 153.4 273.81 153.389 273.89 153.368C273.975 153.341 274.047 153.304 274.106 153.256C274.17 153.208 274.218 153.152 274.25 153.088C274.282 153.019 274.298 152.944 274.298 152.864C274.298 152.725 274.247 152.613 274.146 152.528C274.093 152.491 274.007 152.451 273.89 152.408C273.778 152.36 273.631 152.312 273.45 152.264C273.141 152.184 272.887 152.093 272.69 151.992C272.493 151.891 272.341 151.776 272.234 151.648C272.154 151.547 272.095 151.437 272.058 151.32C272.021 151.197 272.002 151.064 272.002 150.92C272.002 150.744 272.039 150.584 272.114 150.44C272.194 150.291 272.301 150.163 272.434 150.056C272.573 149.944 272.733 149.859 272.914 149.8C273.101 149.741 273.298 149.712 273.506 149.712C273.703 149.712 273.898 149.739 274.09 149.792C274.287 149.845 274.469 149.923 274.634 150.024C274.799 150.125 274.938 150.245 275.05 150.384L274.578 150.904C274.477 150.803 274.365 150.715 274.242 150.64C274.125 150.56 274.005 150.499 273.882 150.456C273.759 150.413 273.647 150.392 273.546 150.392C273.434 150.392 273.333 150.403 273.242 150.424C273.151 150.445 273.074 150.477 273.01 150.52C272.951 150.563 272.906 150.616 272.874 150.68C272.842 150.744 272.826 150.816 272.826 150.896C272.831 150.965 272.847 151.032 272.874 151.096C272.906 151.155 272.949 151.205 273.002 151.248C273.061 151.291 273.149 151.336 273.266 151.384C273.383 151.432 273.533 151.477 273.714 151.52C273.981 151.589 274.199 151.667 274.37 151.752C274.546 151.832 274.685 151.925 274.786 152.032C274.893 152.133 274.967 152.251 275.01 152.384C275.053 152.517 275.074 152.667 275.074 152.832C275.074 153.072 275.005 153.288 274.866 153.48C274.733 153.667 274.551 153.813 274.322 153.92C274.093 154.027 273.837 154.08 273.554 154.08ZM275.982 155.76V149.8H276.814V150.76L276.686 150.688C276.718 150.528 276.809 150.376 276.958 150.232C277.108 150.083 277.289 149.963 277.502 149.872C277.721 149.776 277.945 149.728 278.174 149.728C278.553 149.728 278.889 149.821 279.182 150.008C279.476 150.195 279.708 150.451 279.878 150.776C280.049 151.101 280.134 151.475 280.134 151.896C280.134 152.312 280.049 152.685 279.878 153.016C279.713 153.341 279.484 153.6 279.19 153.792C278.897 153.979 278.566 154.072 278.198 154.072C277.953 154.072 277.716 154.024 277.486 153.928C277.257 153.827 277.062 153.699 276.902 153.544C276.742 153.389 276.644 153.229 276.606 153.064L276.814 152.952V155.76H275.982ZM278.062 153.312C278.308 153.312 278.526 153.251 278.718 153.128C278.91 153.005 279.062 152.837 279.174 152.624C279.286 152.411 279.342 152.168 279.342 151.896C279.342 151.624 279.286 151.384 279.174 151.176C279.068 150.963 278.918 150.795 278.726 150.672C278.534 150.549 278.313 150.488 278.062 150.488C277.812 150.488 277.59 150.549 277.398 150.672C277.206 150.789 277.054 150.955 276.942 151.168C276.83 151.381 276.774 151.624 276.774 151.896C276.774 152.168 276.83 152.411 276.942 152.624C277.054 152.837 277.206 153.005 277.398 153.128C277.59 153.251 277.812 153.312 278.062 153.312ZM282.989 154.08C282.557 154.08 282.173 153.989 281.837 153.808C281.506 153.621 281.245 153.368 281.053 153.048C280.866 152.728 280.773 152.36 280.773 151.944C280.773 151.613 280.826 151.312 280.933 151.04C281.04 150.768 281.186 150.533 281.373 150.336C281.565 150.133 281.792 149.979 282.053 149.872C282.32 149.76 282.608 149.704 282.917 149.704C283.189 149.704 283.442 149.757 283.677 149.864C283.912 149.965 284.114 150.107 284.285 150.288C284.461 150.469 284.594 150.685 284.685 150.936C284.781 151.181 284.826 151.451 284.821 151.744L284.813 152.096H281.381L281.197 151.44H284.101L283.981 151.576V151.384C283.965 151.208 283.906 151.051 283.805 150.912C283.704 150.773 283.576 150.664 283.421 150.584C283.266 150.504 283.098 150.464 282.917 150.464C282.629 150.464 282.386 150.52 282.189 150.632C281.992 150.739 281.842 150.899 281.741 151.112C281.64 151.32 281.589 151.579 281.589 151.888C281.589 152.181 281.65 152.437 281.773 152.656C281.896 152.869 282.069 153.035 282.293 153.152C282.517 153.269 282.776 153.328 283.069 153.328C283.277 153.328 283.469 153.293 283.645 153.224C283.826 153.155 284.021 153.029 284.229 152.848L284.645 153.432C284.517 153.56 284.36 153.672 284.173 153.768C283.992 153.864 283.797 153.941 283.589 154C283.386 154.053 283.186 154.08 282.989 154.08ZM287.501 154.08C287.111 154.08 286.762 153.984 286.453 153.792C286.149 153.6 285.906 153.339 285.725 153.008C285.549 152.677 285.461 152.307 285.461 151.896C285.461 151.485 285.549 151.115 285.725 150.784C285.906 150.453 286.149 150.192 286.453 150C286.762 149.808 287.111 149.712 287.501 149.712C287.874 149.712 288.213 149.789 288.517 149.944C288.826 150.093 289.061 150.299 289.221 150.56L288.765 151.12C288.679 150.997 288.57 150.885 288.437 150.784C288.303 150.683 288.162 150.603 288.013 150.544C287.863 150.485 287.719 150.456 287.581 150.456C287.325 150.456 287.095 150.52 286.893 150.648C286.695 150.771 286.538 150.941 286.421 151.16C286.303 151.379 286.245 151.624 286.245 151.896C286.245 152.168 286.306 152.413 286.429 152.632C286.551 152.845 286.714 153.016 286.917 153.144C287.119 153.272 287.343 153.336 287.589 153.336C287.733 153.336 287.871 153.312 288.005 153.264C288.143 153.216 288.277 153.144 288.405 153.048C288.533 152.952 288.653 152.835 288.765 152.696L289.221 153.256C289.05 153.496 288.805 153.693 288.485 153.848C288.17 154.003 287.842 154.08 287.501 154.08ZM290.518 154V148.728H291.342V154H290.518ZM289.646 150.6V149.8H292.318V150.6H289.646ZM293.204 154V149.8H294.028V154H293.204ZM293.604 148.872C293.428 148.872 293.292 148.827 293.196 148.736C293.1 148.645 293.052 148.517 293.052 148.352C293.052 148.197 293.1 148.072 293.196 147.976C293.298 147.88 293.434 147.832 293.604 147.832C293.78 147.832 293.916 147.877 294.012 147.968C294.108 148.059 294.156 148.187 294.156 148.352C294.156 148.507 294.106 148.632 294.004 148.728C293.908 148.824 293.775 148.872 293.604 148.872ZM297.183 154.08C296.772 154.08 296.404 153.987 296.079 153.8C295.759 153.608 295.505 153.349 295.319 153.024C295.132 152.693 295.039 152.317 295.039 151.896C295.039 151.475 295.132 151.101 295.319 150.776C295.505 150.445 295.759 150.187 296.079 150C296.404 149.808 296.772 149.712 297.183 149.712C297.588 149.712 297.951 149.808 298.271 150C298.596 150.187 298.852 150.445 299.039 150.776C299.225 151.101 299.319 151.475 299.319 151.896C299.319 152.317 299.225 152.693 299.039 153.024C298.852 153.349 298.596 153.608 298.271 153.8C297.951 153.987 297.588 154.08 297.183 154.08ZM297.183 153.328C297.433 153.328 297.657 153.267 297.855 153.144C298.052 153.016 298.207 152.845 298.319 152.632C298.431 152.413 298.484 152.168 298.479 151.896C298.484 151.619 298.431 151.373 298.319 151.16C298.207 150.941 298.052 150.771 297.855 150.648C297.657 150.525 297.433 150.464 297.183 150.464C296.932 150.464 296.705 150.528 296.503 150.656C296.305 150.779 296.151 150.949 296.039 151.168C295.927 151.381 295.873 151.624 295.879 151.896C295.873 152.168 295.927 152.413 296.039 152.632C296.151 152.845 296.305 153.016 296.503 153.144C296.705 153.267 296.932 153.328 297.183 153.328ZM300.217 154V149.8H301.041V150.664L300.897 150.76C300.95 150.573 301.054 150.403 301.209 150.248C301.363 150.088 301.547 149.96 301.761 149.864C301.974 149.763 302.193 149.712 302.417 149.712C302.737 149.712 303.003 149.776 303.217 149.904C303.43 150.027 303.59 150.216 303.697 150.472C303.803 150.728 303.857 151.051 303.857 151.44V154H303.033V151.496C303.033 151.256 303.001 151.059 302.937 150.904C302.873 150.744 302.774 150.629 302.641 150.56C302.507 150.485 302.342 150.453 302.145 150.464C301.985 150.464 301.838 150.491 301.705 150.544C301.571 150.592 301.454 150.661 301.353 150.752C301.257 150.843 301.179 150.949 301.121 151.072C301.067 151.189 301.041 151.317 301.041 151.456V154H300.633C300.563 154 300.494 154 300.425 154C300.355 154 300.286 154 300.217 154ZM307.233 154V148.08H308.057V154H307.233ZM309.36 154V149.8H310.184V154H309.36ZM309.76 148.872C309.584 148.872 309.448 148.827 309.352 148.736C309.256 148.645 309.208 148.517 309.208 148.352C309.208 148.197 309.256 148.072 309.352 147.976C309.454 147.88 309.59 147.832 309.76 147.832C309.936 147.832 310.072 147.877 310.168 147.968C310.264 148.059 310.312 148.187 310.312 148.352C310.312 148.507 310.262 148.632 310.16 148.728C310.064 148.824 309.931 148.872 309.76 148.872ZM312.851 154.08C312.499 154.08 312.182 154.019 311.899 153.896C311.616 153.773 311.382 153.592 311.195 153.352L311.755 152.872C311.915 153.059 312.088 153.195 312.275 153.28C312.467 153.36 312.683 153.4 312.923 153.4C313.019 153.4 313.107 153.389 313.187 153.368C313.272 153.341 313.344 153.304 313.403 153.256C313.467 153.208 313.515 153.152 313.547 153.088C313.579 153.019 313.595 152.944 313.595 152.864C313.595 152.725 313.544 152.613 313.443 152.528C313.39 152.491 313.304 152.451 313.187 152.408C313.075 152.36 312.928 152.312 312.747 152.264C312.438 152.184 312.184 152.093 311.987 151.992C311.79 151.891 311.638 151.776 311.531 151.648C311.451 151.547 311.392 151.437 311.355 151.32C311.318 151.197 311.299 151.064 311.299 150.92C311.299 150.744 311.336 150.584 311.411 150.44C311.491 150.291 311.598 150.163 311.731 150.056C311.87 149.944 312.03 149.859 312.211 149.8C312.398 149.741 312.595 149.712 312.803 149.712C313 149.712 313.195 149.739 313.387 149.792C313.584 149.845 313.766 149.923 313.931 150.024C314.096 150.125 314.235 150.245 314.347 150.384L313.875 150.904C313.774 150.803 313.662 150.715 313.539 150.64C313.422 150.56 313.302 150.499 313.179 150.456C313.056 150.413 312.944 150.392 312.843 150.392C312.731 150.392 312.63 150.403 312.539 150.424C312.448 150.445 312.371 150.477 312.307 150.52C312.248 150.563 312.203 150.616 312.171 150.68C312.139 150.744 312.123 150.816 312.123 150.896C312.128 150.965 312.144 151.032 312.171 151.096C312.203 151.155 312.246 151.205 312.299 151.248C312.358 151.291 312.446 151.336 312.563 151.384C312.68 151.432 312.83 151.477 313.011 151.52C313.278 151.589 313.496 151.667 313.667 151.752C313.843 151.832 313.982 151.925 314.083 152.032C314.19 152.133 314.264 152.251 314.307 152.384C314.35 152.517 314.371 152.667 314.371 152.832C314.371 153.072 314.302 153.288 314.163 153.48C314.03 153.667 313.848 153.813 313.619 153.92C313.39 154.027 313.134 154.08 312.851 154.08ZM315.799 154V148.728H316.623V154H315.799ZM314.927 150.6V149.8H317.599V150.6H314.927ZM320.76 154L320.496 153.344L322.208 151.416C322.298 151.32 322.392 151.211 322.488 151.088C322.589 150.96 322.685 150.829 322.776 150.696C322.866 150.563 322.938 150.432 322.992 150.304C323.05 150.171 323.08 150.045 323.08 149.928C323.08 149.757 323.045 149.613 322.976 149.496C322.912 149.373 322.816 149.28 322.688 149.216C322.565 149.152 322.416 149.12 322.24 149.12C322.085 149.12 321.933 149.165 321.784 149.256C321.634 149.347 321.498 149.475 321.376 149.64C321.253 149.805 321.157 149.997 321.088 150.216L320.424 149.8C320.514 149.491 320.65 149.227 320.832 149.008C321.018 148.784 321.24 148.613 321.496 148.496C321.757 148.379 322.04 148.32 322.344 148.32C322.658 148.32 322.938 148.387 323.184 148.52C323.429 148.648 323.621 148.829 323.76 149.064C323.898 149.293 323.968 149.56 323.968 149.864C323.968 149.987 323.954 150.112 323.928 150.24C323.901 150.368 323.858 150.501 323.8 150.64C323.741 150.773 323.666 150.915 323.576 151.064C323.485 151.208 323.376 151.36 323.248 151.52C323.125 151.68 322.984 151.848 322.824 152.024L321.552 153.408L321.392 153.168H324.144V154H320.76ZM326.822 154.08C326.396 154.08 326.028 153.963 325.718 153.728C325.414 153.493 325.18 153.163 325.014 152.736C324.849 152.304 324.766 151.792 324.766 151.2C324.766 150.608 324.849 150.099 325.014 149.672C325.18 149.24 325.414 148.907 325.718 148.672C326.028 148.437 326.396 148.32 326.822 148.32C327.249 148.32 327.617 148.437 327.926 148.672C328.236 148.907 328.473 149.24 328.638 149.672C328.804 150.099 328.886 150.608 328.886 151.2C328.886 151.792 328.804 152.304 328.638 152.736C328.473 153.163 328.236 153.493 327.926 153.728C327.617 153.963 327.249 154.08 326.822 154.08ZM326.822 153.296C327.212 153.296 327.513 153.115 327.726 152.752C327.94 152.384 328.046 151.867 328.046 151.2C328.046 150.533 327.94 150.019 327.726 149.656C327.513 149.288 327.212 149.104 326.822 149.104C326.433 149.104 326.132 149.288 325.918 149.656C325.705 150.019 325.598 150.533 325.598 151.2C325.598 151.867 325.705 152.384 325.918 152.752C326.132 153.115 326.433 153.296 326.822 153.296ZM330.002 154L329.738 153.344L331.45 151.416C331.54 151.32 331.634 151.211 331.73 151.088C331.831 150.96 331.927 150.829 332.018 150.696C332.108 150.563 332.18 150.432 332.234 150.304C332.292 150.171 332.322 150.045 332.322 149.928C332.322 149.757 332.287 149.613 332.218 149.496C332.154 149.373 332.058 149.28 331.93 149.216C331.807 149.152 331.658 149.12 331.482 149.12C331.327 149.12 331.175 149.165 331.026 149.256C330.876 149.347 330.74 149.475 330.618 149.64C330.495 149.805 330.399 149.997 330.33 150.216L329.666 149.8C329.756 149.491 329.892 149.227 330.074 149.008C330.26 148.784 330.482 148.613 330.738 148.496C330.999 148.379 331.282 148.32 331.586 148.32C331.9 148.32 332.18 148.387 332.426 148.52C332.671 148.648 332.863 148.829 333.002 149.064C333.14 149.293 333.21 149.56 333.21 149.864C333.21 149.987 333.196 150.112 333.17 150.24C333.143 150.368 333.1 150.501 333.042 150.64C332.983 150.773 332.908 150.915 332.818 151.064C332.727 151.208 332.618 151.36 332.49 151.52C332.367 151.68 332.226 151.848 332.066 152.024L330.794 153.408L330.634 153.168H333.386V154H330.002ZM334.385 154L334.121 153.344L335.833 151.416C335.923 151.32 336.017 151.211 336.113 151.088C336.214 150.96 336.31 150.829 336.401 150.696C336.491 150.563 336.563 150.432 336.617 150.304C336.675 150.171 336.705 150.045 336.705 149.928C336.705 149.757 336.67 149.613 336.601 149.496C336.537 149.373 336.441 149.28 336.313 149.216C336.19 149.152 336.041 149.12 335.865 149.12C335.71 149.12 335.558 149.165 335.409 149.256C335.259 149.347 335.123 149.475 335.001 149.64C334.878 149.805 334.782 149.997 334.713 150.216L334.049 149.8C334.139 149.491 334.275 149.227 334.457 149.008C334.643 148.784 334.865 148.613 335.121 148.496C335.382 148.379 335.665 148.32 335.969 148.32C336.283 148.32 336.563 148.387 336.809 148.52C337.054 148.648 337.246 148.829 337.385 149.064C337.523 149.293 337.593 149.56 337.593 149.864C337.593 149.987 337.579 150.112 337.553 150.24C337.526 150.368 337.483 150.501 337.425 150.64C337.366 150.773 337.291 150.915 337.201 151.064C337.11 151.208 337.001 151.36 336.873 151.52C336.75 151.68 336.609 151.848 336.449 152.024L335.177 153.408L335.017 153.168H337.769V154H334.385Z" fill="black"/>
<path d="M263.576 312V311.2H264.48V307.2H263.576V306.4H266.248V307.2H265.344V311.2H266.248V312H263.576ZM267.396 312V307.8H268.22V308.664L268.076 308.76C268.13 308.573 268.234 308.403 268.388 308.248C268.543 308.088 268.727 307.96 268.94 307.864C269.154 307.763 269.372 307.712 269.596 307.712C269.916 307.712 270.183 307.776 270.396 307.904C270.61 308.027 270.77 308.216 270.876 308.472C270.983 308.728 271.036 309.051 271.036 309.44V312H270.212V309.496C270.212 309.256 270.18 309.059 270.116 308.904C270.052 308.744 269.954 308.629 269.82 308.56C269.687 308.485 269.522 308.453 269.324 308.464C269.164 308.464 269.018 308.491 268.884 308.544C268.751 308.592 268.634 308.661 268.532 308.752C268.436 308.843 268.359 308.949 268.3 309.072C268.247 309.189 268.22 309.317 268.22 309.456V312H267.812C267.743 312 267.674 312 267.604 312C267.535 312 267.466 312 267.396 312ZM273.554 312.08C273.202 312.08 272.885 312.019 272.602 311.896C272.319 311.773 272.085 311.592 271.898 311.352L272.458 310.872C272.618 311.059 272.791 311.195 272.978 311.28C273.17 311.36 273.386 311.4 273.626 311.4C273.722 311.4 273.81 311.389 273.89 311.368C273.975 311.341 274.047 311.304 274.106 311.256C274.17 311.208 274.218 311.152 274.25 311.088C274.282 311.019 274.298 310.944 274.298 310.864C274.298 310.725 274.247 310.613 274.146 310.528C274.093 310.491 274.007 310.451 273.89 310.408C273.778 310.36 273.631 310.312 273.45 310.264C273.141 310.184 272.887 310.093 272.69 309.992C272.493 309.891 272.341 309.776 272.234 309.648C272.154 309.547 272.095 309.437 272.058 309.32C272.021 309.197 272.002 309.064 272.002 308.92C272.002 308.744 272.039 308.584 272.114 308.44C272.194 308.291 272.301 308.163 272.434 308.056C272.573 307.944 272.733 307.859 272.914 307.8C273.101 307.741 273.298 307.712 273.506 307.712C273.703 307.712 273.898 307.739 274.09 307.792C274.287 307.845 274.469 307.923 274.634 308.024C274.799 308.125 274.938 308.245 275.05 308.384L274.578 308.904C274.477 308.803 274.365 308.715 274.242 308.64C274.125 308.56 274.005 308.499 273.882 308.456C273.759 308.413 273.647 308.392 273.546 308.392C273.434 308.392 273.333 308.403 273.242 308.424C273.151 308.445 273.074 308.477 273.01 308.52C272.951 308.563 272.906 308.616 272.874 308.68C272.842 308.744 272.826 308.816 272.826 308.896C272.831 308.965 272.847 309.032 272.874 309.096C272.906 309.155 272.949 309.205 273.002 309.248C273.061 309.291 273.149 309.336 273.266 309.384C273.383 309.432 273.533 309.477 273.714 309.52C273.981 309.589 274.199 309.667 274.37 309.752C274.546 309.832 274.685 309.925 274.786 310.032C274.893 310.133 274.967 310.251 275.01 310.384C275.053 310.517 275.074 310.667 275.074 310.832C275.074 311.072 275.005 311.288 274.866 311.48C274.733 311.667 274.551 311.813 274.322 311.92C274.093 312.027 273.837 312.08 273.554 312.08ZM275.982 313.76V307.8H276.814V308.76L276.686 308.688C276.718 308.528 276.809 308.376 276.958 308.232C277.108 308.083 277.289 307.963 277.502 307.872C277.721 307.776 277.945 307.728 278.174 307.728C278.553 307.728 278.889 307.821 279.182 308.008C279.476 308.195 279.708 308.451 279.878 308.776C280.049 309.101 280.134 309.475 280.134 309.896C280.134 310.312 280.049 310.685 279.878 311.016C279.713 311.341 279.484 311.6 279.19 311.792C278.897 311.979 278.566 312.072 278.198 312.072C277.953 312.072 277.716 312.024 277.486 311.928C277.257 311.827 277.062 311.699 276.902 311.544C276.742 311.389 276.644 311.229 276.606 311.064L276.814 310.952V313.76H275.982ZM278.062 311.312C278.308 311.312 278.526 311.251 278.718 311.128C278.91 311.005 279.062 310.837 279.174 310.624C279.286 310.411 279.342 310.168 279.342 309.896C279.342 309.624 279.286 309.384 279.174 309.176C279.068 308.963 278.918 308.795 278.726 308.672C278.534 308.549 278.313 308.488 278.062 308.488C277.812 308.488 277.59 308.549 277.398 308.672C277.206 308.789 277.054 308.955 276.942 309.168C276.83 309.381 276.774 309.624 276.774 309.896C276.774 310.168 276.83 310.411 276.942 310.624C277.054 310.837 277.206 311.005 277.398 311.128C277.59 311.251 277.812 311.312 278.062 311.312ZM282.989 312.08C282.557 312.08 282.173 311.989 281.837 311.808C281.506 311.621 281.245 311.368 281.053 311.048C280.866 310.728 280.773 310.36 280.773 309.944C280.773 309.613 280.826 309.312 280.933 309.04C281.04 308.768 281.186 308.533 281.373 308.336C281.565 308.133 281.792 307.979 282.053 307.872C282.32 307.76 282.608 307.704 282.917 307.704C283.189 307.704 283.442 307.757 283.677 307.864C283.912 307.965 284.114 308.107 284.285 308.288C284.461 308.469 284.594 308.685 284.685 308.936C284.781 309.181 284.826 309.451 284.821 309.744L284.813 310.096H281.381L281.197 309.44H284.101L283.981 309.576V309.384C283.965 309.208 283.906 309.051 283.805 308.912C283.704 308.773 283.576 308.664 283.421 308.584C283.266 308.504 283.098 308.464 282.917 308.464C282.629 308.464 282.386 308.52 282.189 308.632C281.992 308.739 281.842 308.899 281.741 309.112C281.64 309.32 281.589 309.579 281.589 309.888C281.589 310.181 281.65 310.437 281.773 310.656C281.896 310.869 282.069 311.035 282.293 311.152C282.517 311.269 282.776 311.328 283.069 311.328C283.277 311.328 283.469 311.293 283.645 311.224C283.826 311.155 284.021 311.029 284.229 310.848L284.645 311.432C284.517 311.56 284.36 311.672 284.173 311.768C283.992 311.864 283.797 311.941 283.589 312C283.386 312.053 283.186 312.08 282.989 312.08ZM287.501 312.08C287.111 312.08 286.762 311.984 286.453 311.792C286.149 311.6 285.906 311.339 285.725 311.008C285.549 310.677 285.461 310.307 285.461 309.896C285.461 309.485 285.549 309.115 285.725 308.784C285.906 308.453 286.149 308.192 286.453 308C286.762 307.808 287.111 307.712 287.501 307.712C287.874 307.712 288.213 307.789 288.517 307.944C288.826 308.093 289.061 308.299 289.221 308.56L288.765 309.12C288.679 308.997 288.57 308.885 288.437 308.784C288.303 308.683 288.162 308.603 288.013 308.544C287.863 308.485 287.719 308.456 287.581 308.456C287.325 308.456 287.095 308.52 286.893 308.648C286.695 308.771 286.538 308.941 286.421 309.16C286.303 309.379 286.245 309.624 286.245 309.896C286.245 310.168 286.306 310.413 286.429 310.632C286.551 310.845 286.714 311.016 286.917 311.144C287.119 311.272 287.343 311.336 287.589 311.336C287.733 311.336 287.871 311.312 288.005 311.264C288.143 311.216 288.277 311.144 288.405 311.048C288.533 310.952 288.653 310.835 288.765 310.696L289.221 311.256C289.05 311.496 288.805 311.693 288.485 311.848C288.17 312.003 287.842 312.08 287.501 312.08ZM290.518 312V306.728H291.342V312H290.518ZM289.646 308.6V307.8H292.318V308.6H289.646ZM293.204 312V307.8H294.028V312H293.204ZM293.604 306.872C293.428 306.872 293.292 306.827 293.196 306.736C293.1 306.645 293.052 306.517 293.052 306.352C293.052 306.197 293.1 306.072 293.196 305.976C293.298 305.88 293.434 305.832 293.604 305.832C293.78 305.832 293.916 305.877 294.012 305.968C294.108 306.059 294.156 306.187 294.156 306.352C294.156 306.507 294.106 306.632 294.004 306.728C293.908 306.824 293.775 306.872 293.604 306.872ZM297.183 312.08C296.772 312.08 296.404 311.987 296.079 311.8C295.759 311.608 295.505 311.349 295.319 311.024C295.132 310.693 295.039 310.317 295.039 309.896C295.039 309.475 295.132 309.101 295.319 308.776C295.505 308.445 295.759 308.187 296.079 308C296.404 307.808 296.772 307.712 297.183 307.712C297.588 307.712 297.951 307.808 298.271 308C298.596 308.187 298.852 308.445 299.039 308.776C299.225 309.101 299.319 309.475 299.319 309.896C299.319 310.317 299.225 310.693 299.039 311.024C298.852 311.349 298.596 311.608 298.271 311.8C297.951 311.987 297.588 312.08 297.183 312.08ZM297.183 311.328C297.433 311.328 297.657 311.267 297.855 311.144C298.052 311.016 298.207 310.845 298.319 310.632C298.431 310.413 298.484 310.168 298.479 309.896C298.484 309.619 298.431 309.373 298.319 309.16C298.207 308.941 298.052 308.771 297.855 308.648C297.657 308.525 297.433 308.464 297.183 308.464C296.932 308.464 296.705 308.528 296.503 308.656C296.305 308.779 296.151 308.949 296.039 309.168C295.927 309.381 295.873 309.624 295.879 309.896C295.873 310.168 295.927 310.413 296.039 310.632C296.151 310.845 296.305 311.016 296.503 311.144C296.705 311.267 296.932 311.328 297.183 311.328ZM300.217 312V307.8H301.041V308.664L300.897 308.76C300.95 308.573 301.054 308.403 301.209 308.248C301.363 308.088 301.547 307.96 301.761 307.864C301.974 307.763 302.193 307.712 302.417 307.712C302.737 307.712 303.003 307.776 303.217 307.904C303.43 308.027 303.59 308.216 303.697 308.472C303.803 308.728 303.857 309.051 303.857 309.44V312H303.033V309.496C303.033 309.256 303.001 309.059 302.937 308.904C302.873 308.744 302.774 308.629 302.641 308.56C302.507 308.485 302.342 308.453 302.145 308.464C301.985 308.464 301.838 308.491 301.705 308.544C301.571 308.592 301.454 308.661 301.353 308.752C301.257 308.843 301.179 308.949 301.121 309.072C301.067 309.189 301.041 309.317 301.041 309.456V312H300.633C300.563 312 300.494 312 300.425 312C300.355 312 300.286 312 300.217 312ZM307.233 312V306.08H308.057V312H307.233ZM309.36 312V307.8H310.184V312H309.36ZM309.76 306.872C309.584 306.872 309.448 306.827 309.352 306.736C309.256 306.645 309.208 306.517 309.208 306.352C309.208 306.197 309.256 306.072 309.352 305.976C309.454 305.88 309.59 305.832 309.76 305.832C309.936 305.832 310.072 305.877 310.168 305.968C310.264 306.059 310.312 306.187 310.312 306.352C310.312 306.507 310.262 306.632 310.16 306.728C310.064 306.824 309.931 306.872 309.76 306.872ZM312.851 312.08C312.499 312.08 312.182 312.019 311.899 311.896C311.616 311.773 311.382 311.592 311.195 311.352L311.755 310.872C311.915 311.059 312.088 311.195 312.275 311.28C312.467 311.36 312.683 311.4 312.923 311.4C313.019 311.4 313.107 311.389 313.187 311.368C313.272 311.341 313.344 311.304 313.403 311.256C313.467 311.208 313.515 311.152 313.547 311.088C313.579 311.019 313.595 310.944 313.595 310.864C313.595 310.725 313.544 310.613 313.443 310.528C313.39 310.491 313.304 310.451 313.187 310.408C313.075 310.36 312.928 310.312 312.747 310.264C312.438 310.184 312.184 310.093 311.987 309.992C311.79 309.891 311.638 309.776 311.531 309.648C311.451 309.547 311.392 309.437 311.355 309.32C311.318 309.197 311.299 309.064 311.299 308.92C311.299 308.744 311.336 308.584 311.411 308.44C311.491 308.291 311.598 308.163 311.731 308.056C311.87 307.944 312.03 307.859 312.211 307.8C312.398 307.741 312.595 307.712 312.803 307.712C313 307.712 313.195 307.739 313.387 307.792C313.584 307.845 313.766 307.923 313.931 308.024C314.096 308.125 314.235 308.245 314.347 308.384L313.875 308.904C313.774 308.803 313.662 308.715 313.539 308.64C313.422 308.56 313.302 308.499 313.179 308.456C313.056 308.413 312.944 308.392 312.843 308.392C312.731 308.392 312.63 308.403 312.539 308.424C312.448 308.445 312.371 308.477 312.307 308.52C312.248 308.563 312.203 308.616 312.171 308.68C312.139 308.744 312.123 308.816 312.123 308.896C312.128 308.965 312.144 309.032 312.171 309.096C312.203 309.155 312.246 309.205 312.299 309.248C312.358 309.291 312.446 309.336 312.563 309.384C312.68 309.432 312.83 309.477 313.011 309.52C313.278 309.589 313.496 309.667 313.667 309.752C313.843 309.832 313.982 309.925 314.083 310.032C314.19 310.133 314.264 310.251 314.307 310.384C314.35 310.517 314.371 310.667 314.371 310.832C314.371 311.072 314.302 311.288 314.163 311.48C314.03 311.667 313.848 311.813 313.619 311.92C313.39 312.027 313.134 312.08 312.851 312.08ZM315.799 312V306.728H316.623V312H315.799ZM314.927 308.6V307.8H317.599V308.6H314.927ZM320.76 312L320.496 311.344L322.208 309.416C322.298 309.32 322.392 309.211 322.488 309.088C322.589 308.96 322.685 308.829 322.776 308.696C322.866 308.563 322.938 308.432 322.992 308.304C323.05 308.171 323.08 308.045 323.08 307.928C323.08 307.757 323.045 307.613 322.976 307.496C322.912 307.373 322.816 307.28 322.688 307.216C322.565 307.152 322.416 307.12 322.24 307.12C322.085 307.12 321.933 307.165 321.784 307.256C321.634 307.347 321.498 307.475 321.376 307.64C321.253 307.805 321.157 307.997 321.088 308.216L320.424 307.8C320.514 307.491 320.65 307.227 320.832 307.008C321.018 306.784 321.24 306.613 321.496 306.496C321.757 306.379 322.04 306.32 322.344 306.32C322.658 306.32 322.938 306.387 323.184 306.52C323.429 306.648 323.621 306.829 323.76 307.064C323.898 307.293 323.968 307.56 323.968 307.864C323.968 307.987 323.954 308.112 323.928 308.24C323.901 308.368 323.858 308.501 323.8 308.64C323.741 308.773 323.666 308.915 323.576 309.064C323.485 309.208 323.376 309.36 323.248 309.52C323.125 309.68 322.984 309.848 322.824 310.024L321.552 311.408L321.392 311.168H324.144V312H320.76ZM326.822 312.08C326.396 312.08 326.028 311.963 325.718 311.728C325.414 311.493 325.18 311.163 325.014 310.736C324.849 310.304 324.766 309.792 324.766 309.2C324.766 308.608 324.849 308.099 325.014 307.672C325.18 307.24 325.414 306.907 325.718 306.672C326.028 306.437 326.396 306.32 326.822 306.32C327.249 306.32 327.617 306.437 327.926 306.672C328.236 306.907 328.473 307.24 328.638 307.672C328.804 308.099 328.886 308.608 328.886 309.2C328.886 309.792 328.804 310.304 328.638 310.736C328.473 311.163 328.236 311.493 327.926 311.728C327.617 311.963 327.249 312.08 326.822 312.08ZM326.822 311.296C327.212 311.296 327.513 311.115 327.726 310.752C327.94 310.384 328.046 309.867 328.046 309.2C328.046 308.533 327.94 308.019 327.726 307.656C327.513 307.288 327.212 307.104 326.822 307.104C326.433 307.104 326.132 307.288 325.918 307.656C325.705 308.019 325.598 308.533 325.598 309.2C325.598 309.867 325.705 310.384 325.918 310.752C326.132 311.115 326.433 311.296 326.822 311.296ZM330.002 312L329.738 311.344L331.45 309.416C331.54 309.32 331.634 309.211 331.73 309.088C331.831 308.96 331.927 308.829 332.018 308.696C332.108 308.563 332.18 308.432 332.234 308.304C332.292 308.171 332.322 308.045 332.322 307.928C332.322 307.757 332.287 307.613 332.218 307.496C332.154 307.373 332.058 307.28 331.93 307.216C331.807 307.152 331.658 307.12 331.482 307.12C331.327 307.12 331.175 307.165 331.026 307.256C330.876 307.347 330.74 307.475 330.618 307.64C330.495 307.805 330.399 307.997 330.33 308.216L329.666 307.8C329.756 307.491 329.892 307.227 330.074 307.008C330.26 306.784 330.482 306.613 330.738 306.496C330.999 306.379 331.282 306.32 331.586 306.32C331.9 306.32 332.18 306.387 332.426 306.52C332.671 306.648 332.863 306.829 333.002 307.064C333.14 307.293 333.21 307.56 333.21 307.864C333.21 307.987 333.196 308.112 333.17 308.24C333.143 308.368 333.1 308.501 333.042 308.64C332.983 308.773 332.908 308.915 332.818 309.064C332.727 309.208 332.618 309.36 332.49 309.52C332.367 309.68 332.226 309.848 332.066 310.024L330.794 311.408L330.634 311.168H333.386V312H330.002ZM335.649 312.08C335.254 312.08 334.91 311.989 334.617 311.808C334.329 311.627 334.057 311.323 333.801 310.896L334.473 310.472C334.606 310.669 334.737 310.832 334.865 310.96C334.998 311.083 335.134 311.173 335.273 311.232C335.411 311.291 335.558 311.32 335.713 311.32C335.899 311.32 336.073 311.275 336.233 311.184C336.393 311.088 336.521 310.957 336.617 310.792C336.713 310.627 336.761 310.44 336.761 310.232C336.761 310.024 336.723 309.848 336.649 309.704C336.574 309.555 336.465 309.443 336.321 309.368C336.177 309.288 336.006 309.248 335.809 309.248C335.718 309.248 335.622 309.259 335.521 309.28C335.425 309.296 335.321 309.323 335.209 309.36C335.097 309.392 334.974 309.435 334.841 309.488L334.601 308.856L336.329 306.952L336.497 307.2H334.113V306.4H337.321L337.481 306.72L335.649 308.752L335.449 308.544C335.491 308.523 335.561 308.504 335.657 308.488C335.758 308.467 335.841 308.456 335.905 308.456C336.139 308.456 336.358 308.501 336.561 308.592C336.769 308.677 336.947 308.8 337.097 308.96C337.251 309.115 337.371 309.299 337.457 309.512C337.547 309.72 337.593 309.944 337.593 310.184C337.593 310.547 337.505 310.872 337.329 311.16C337.158 311.443 336.926 311.667 336.633 311.832C336.339 311.997 336.011 312.08 335.649 312.08Z" fill="black"/>
<path d="M95.784 312V306.4H98.168C98.488 306.4 98.7813 306.48 99.048 306.64C99.32 306.795 99.536 307.008 99.696 307.28C99.856 307.547 99.936 307.848 99.936 308.184C99.936 308.488 99.856 308.771 99.696 309.032C99.536 309.293 99.3227 309.504 99.056 309.664C98.7893 309.819 98.4933 309.896 98.168 309.896H96.648V312H95.784ZM99.112 312L97.688 309.472L98.576 309.272L100.16 312.008L99.112 312ZM96.648 309.064H98.248C98.4027 309.064 98.5413 309.027 98.664 308.952C98.7867 308.872 98.8827 308.765 98.952 308.632C99.0213 308.493 99.056 308.341 99.056 308.176C99.056 307.989 99.0107 307.827 98.92 307.688C98.8347 307.544 98.712 307.432 98.552 307.352C98.3973 307.272 98.2213 307.232 98.024 307.232H96.648V309.064ZM102.942 312.08C102.51 312.08 102.126 311.989 101.79 311.808C101.46 311.621 101.198 311.368 101.006 311.048C100.82 310.728 100.726 310.36 100.726 309.944C100.726 309.613 100.78 309.312 100.886 309.04C100.993 308.768 101.14 308.533 101.326 308.336C101.518 308.133 101.745 307.979 102.006 307.872C102.273 307.76 102.561 307.704 102.87 307.704C103.142 307.704 103.396 307.757 103.63 307.864C103.865 307.965 104.068 308.107 104.238 308.288C104.414 308.469 104.548 308.685 104.638 308.936C104.734 309.181 104.78 309.451 104.774 309.744L104.766 310.096H101.334L101.15 309.44H104.054L103.934 309.576V309.384C103.918 309.208 103.86 309.051 103.758 308.912C103.657 308.773 103.529 308.664 103.374 308.584C103.22 308.504 103.052 308.464 102.87 308.464C102.582 308.464 102.34 308.52 102.142 308.632C101.945 308.739 101.796 308.899 101.694 309.112C101.593 309.32 101.542 309.579 101.542 309.888C101.542 310.181 101.604 310.437 101.726 310.656C101.849 310.869 102.022 311.035 102.246 311.152C102.47 311.269 102.729 311.328 103.022 311.328C103.23 311.328 103.422 311.293 103.598 311.224C103.78 311.155 103.974 311.029 104.182 310.848L104.598 311.432C104.47 311.56 104.313 311.672 104.126 311.768C103.945 311.864 103.75 311.941 103.542 312C103.34 312.053 103.14 312.08 102.942 312.08ZM105.67 313.76V307.8H106.502V308.76L106.374 308.688C106.406 308.528 106.496 308.376 106.646 308.232C106.795 308.083 106.976 307.963 107.19 307.872C107.408 307.776 107.632 307.728 107.862 307.728C108.24 307.728 108.576 307.821 108.87 308.008C109.163 308.195 109.395 308.451 109.566 308.776C109.736 309.101 109.822 309.475 109.822 309.896C109.822 310.312 109.736 310.685 109.566 311.016C109.4 311.341 109.171 311.6 108.878 311.792C108.584 311.979 108.254 312.072 107.886 312.072C107.64 312.072 107.403 312.024 107.174 311.928C106.944 311.827 106.75 311.699 106.59 311.544C106.43 311.389 106.331 311.229 106.294 311.064L106.502 310.952V313.76H105.67ZM107.75 311.312C107.995 311.312 108.214 311.251 108.406 311.128C108.598 311.005 108.75 310.837 108.862 310.624C108.974 310.411 109.03 310.168 109.03 309.896C109.03 309.624 108.974 309.384 108.862 309.176C108.755 308.963 108.606 308.795 108.414 308.672C108.222 308.549 108 308.488 107.75 308.488C107.499 308.488 107.278 308.549 107.086 308.672C106.894 308.789 106.742 308.955 106.63 309.168C106.518 309.381 106.462 309.624 106.462 309.896C106.462 310.168 106.518 310.411 106.63 310.624C106.742 310.837 106.894 311.005 107.086 311.128C107.278 311.251 107.499 311.312 107.75 311.312ZM112.605 312.08C112.194 312.08 111.826 311.987 111.501 311.8C111.181 311.608 110.927 311.349 110.741 311.024C110.554 310.693 110.461 310.317 110.461 309.896C110.461 309.475 110.554 309.101 110.741 308.776C110.927 308.445 111.181 308.187 111.501 308C111.826 307.808 112.194 307.712 112.605 307.712C113.01 307.712 113.373 307.808 113.693 308C114.018 308.187 114.274 308.445 114.461 308.776C114.647 309.101 114.741 309.475 114.741 309.896C114.741 310.317 114.647 310.693 114.461 311.024C114.274 311.349 114.018 311.608 113.693 311.8C113.373 311.987 113.01 312.08 112.605 312.08ZM112.605 311.328C112.855 311.328 113.079 311.267 113.277 311.144C113.474 311.016 113.629 310.845 113.741 310.632C113.853 310.413 113.906 310.168 113.901 309.896C113.906 309.619 113.853 309.373 113.741 309.16C113.629 308.941 113.474 308.771 113.277 308.648C113.079 308.525 112.855 308.464 112.605 308.464C112.354 308.464 112.127 308.528 111.925 308.656C111.727 308.779 111.573 308.949 111.461 309.168C111.349 309.381 111.295 309.624 111.301 309.896C111.295 310.168 111.349 310.413 111.461 310.632C111.573 310.845 111.727 311.016 111.925 311.144C112.127 311.267 112.354 311.328 112.605 311.328ZM115.639 312V307.8H116.471V309.12L116.391 308.8C116.449 308.597 116.548 308.413 116.687 308.248C116.831 308.083 116.993 307.952 117.174 307.856C117.361 307.76 117.553 307.712 117.751 307.712C117.841 307.712 117.927 307.72 118.007 307.736C118.092 307.752 118.159 307.771 118.207 307.792L117.991 308.688C117.927 308.661 117.855 308.64 117.775 308.624C117.7 308.603 117.625 308.592 117.551 308.592C117.407 308.592 117.268 308.621 117.135 308.68C117.007 308.733 116.892 308.811 116.791 308.912C116.695 309.008 116.617 309.123 116.559 309.256C116.5 309.384 116.471 309.525 116.471 309.68V312H115.639ZM119.541 312V306.728H120.365V312H119.541ZM118.669 308.6V307.8H121.341V308.6H118.669ZM124.502 312L124.238 311.344L125.95 309.416C126.04 309.32 126.134 309.211 126.23 309.088C126.331 308.96 126.427 308.829 126.518 308.696C126.608 308.563 126.68 308.432 126.734 308.304C126.792 308.171 126.822 308.045 126.822 307.928C126.822 307.757 126.787 307.613 126.718 307.496C126.654 307.373 126.558 307.28 126.43 307.216C126.307 307.152 126.158 307.12 125.982 307.12C125.827 307.12 125.675 307.165 125.526 307.256C125.376 307.347 125.24 307.475 125.118 307.64C124.995 307.805 124.899 307.997 124.83 308.216L124.166 307.8C124.256 307.491 124.392 307.227 124.574 307.008C124.76 306.784 124.982 306.613 125.238 306.496C125.499 306.379 125.782 306.32 126.086 306.32C126.4 306.32 126.68 306.387 126.926 306.52C127.171 306.648 127.363 306.829 127.502 307.064C127.64 307.293 127.71 307.56 127.71 307.864C127.71 307.987 127.696 308.112 127.67 308.24C127.643 308.368 127.6 308.501 127.542 308.64C127.483 308.773 127.408 308.915 127.318 309.064C127.227 309.208 127.118 309.36 126.99 309.52C126.867 309.68 126.726 309.848 126.566 310.024L125.294 311.408L125.134 311.168H127.886V312H124.502ZM130.565 312.08C130.138 312.08 129.77 311.963 129.461 311.728C129.157 311.493 128.922 311.163 128.757 310.736C128.591 310.304 128.509 309.792 128.509 309.2C128.509 308.608 128.591 308.099 128.757 307.672C128.922 307.24 129.157 306.907 129.461 306.672C129.77 306.437 130.138 306.32 130.565 306.32C130.991 306.32 131.359 306.437 131.669 306.672C131.978 306.907 132.215 307.24 132.381 307.672C132.546 308.099 132.629 308.608 132.629 309.2C132.629 309.792 132.546 310.304 132.381 310.736C132.215 311.163 131.978 311.493 131.669 311.728C131.359 311.963 130.991 312.08 130.565 312.08ZM130.565 311.296C130.954 311.296 131.255 311.115 131.469 310.752C131.682 310.384 131.789 309.867 131.789 309.2C131.789 308.533 131.682 308.019 131.469 307.656C131.255 307.288 130.954 307.104 130.565 307.104C130.175 307.104 129.874 307.288 129.661 307.656C129.447 308.019 129.341 308.533 129.341 309.2C129.341 309.867 129.447 310.384 129.661 310.752C129.874 311.115 130.175 311.296 130.565 311.296ZM133.744 312L133.48 311.344L135.192 309.416C135.283 309.32 135.376 309.211 135.472 309.088C135.573 308.96 135.669 308.829 135.76 308.696C135.851 308.563 135.923 308.432 135.976 308.304C136.035 308.171 136.064 308.045 136.064 307.928C136.064 307.757 136.029 307.613 135.96 307.496C135.896 307.373 135.8 307.28 135.672 307.216C135.549 307.152 135.4 307.12 135.224 307.12C135.069 307.12 134.917 307.165 134.768 307.256C134.619 307.347 134.483 307.475 134.36 307.64C134.237 307.805 134.141 307.997 134.072 308.216L133.408 307.8C133.499 307.491 133.635 307.227 133.816 307.008C134.003 306.784 134.224 306.613 134.48 306.496C134.741 306.379 135.024 306.32 135.328 306.32C135.643 306.32 135.923 306.387 136.168 306.52C136.413 306.648 136.605 306.829 136.744 307.064C136.883 307.293 136.952 307.56 136.952 307.864C136.952 307.987 136.939 308.112 136.912 308.24C136.885 308.368 136.843 308.501 136.784 308.64C136.725 308.773 136.651 308.915 136.56 309.064C136.469 309.208 136.36 309.36 136.232 309.52C136.109 309.68 135.968 309.848 135.808 310.024L134.536 311.408L134.376 311.168H137.128V312H133.744ZM139.391 312.08C138.996 312.08 138.652 311.989 138.359 311.808C138.071 311.627 137.799 311.323 137.543 310.896L138.215 310.472C138.348 310.669 138.479 310.832 138.607 310.96C138.74 311.083 138.876 311.173 139.015 311.232C139.153 311.291 139.3 311.32 139.455 311.32C139.641 311.32 139.815 311.275 139.975 311.184C140.135 311.088 140.263 310.957 140.359 310.792C140.455 310.627 140.503 310.44 140.503 310.232C140.503 310.024 140.465 309.848 140.391 309.704C140.316 309.555 140.207 309.443 140.063 309.368C139.919 309.288 139.748 309.248 139.551 309.248C139.46 309.248 139.364 309.259 139.263 309.28C139.167 309.296 139.063 309.323 138.951 309.36C138.839 309.392 138.716 309.435 138.583 309.488L138.343 308.856L140.071 306.952L140.239 307.2H137.855V306.4H141.063L141.223 306.72L139.391 308.752L139.191 308.544C139.233 308.523 139.303 308.504 139.399 308.488C139.5 308.467 139.583 308.456 139.647 308.456C139.881 308.456 140.1 308.501 140.303 308.592C140.511 308.677 140.689 308.8 140.839 308.96C140.993 309.115 141.113 309.299 141.199 309.512C141.289 309.72 141.335 309.944 141.335 310.184C141.335 310.547 141.247 310.872 141.071 311.16C140.9 311.443 140.668 311.667 140.375 311.832C140.081 311.997 139.753 312.08 139.391 312.08Z" fill="black"/>
<path fill-rule="evenodd" clip-rule="evenodd" d="M269 180.294C271.924 180.294 274.294 177.924 274.294 175C274.294 172.076 271.924 169.706 269 169.706C266.076 169.706 263.706 172.076 263.706 175C263.706 177.924 266.076 180.294 269 180.294ZM269 181C272.314 181 275 178.314 275 175C275 171.686 272.314 169 269 169C265.686 169 263 171.686 263 175C263 178.314 265.686 181 269 181Z" fill="#35CA00"/>
<path fill-rule="evenodd" clip-rule="evenodd" d="M269 338.294C271.924 338.294 274.294 335.924 274.294 333C274.294 330.076 271.924 327.706 269 327.706C266.076 327.706 263.706 330.076 263.706 333C263.706 335.924 266.076 338.294 269 338.294ZM269 339C272.314 339 275 336.314 275 333C275 329.686 272.314 327 269 327C265.686 327 263 329.686 263 333C263 336.314 265.686 339 269 339Z" fill="#35CA00"/>
<path fill-rule="evenodd" clip-rule="evenodd" d="M269 197.294C271.924 197.294 274.294 194.924 274.294 192C274.294 189.076 271.924 186.706 269 186.706C266.076 186.706 263.706 189.076 263.706 192C263.706 194.924 266.076 197.294 269 197.294ZM269 198C272.314 198 275 195.314 275 192C275 188.686 272.314 186 269 186C265.686 186 263 188.686 263 192C263 195.314 265.686 198 269 198Z" fill="#C4C4C4"/>
<path fill-rule="evenodd" clip-rule="evenodd" d="M269 355.294C271.924 355.294 274.294 352.924 274.294 350C274.294 347.076 271.924 344.706 269 344.706C266.076 344.706 263.706 347.076 263.706 350C263.706 352.924 266.076 355.294 269 355.294ZM269 356C272.314 356 275 353.314 275 350C275 346.686 272.314 344 269 344C265.686 344 263 346.686 263 350C263 353.314 265.686 356 269 356Z" fill="#35CA00"/>
<path fill-rule="evenodd" clip-rule="evenodd" d="M269 214.294C271.924 214.294 274.294 211.924 274.294 209C274.294 206.076 271.924 203.706 269 203.706C266.076 203.706 263.706 206.076 263.706 209C263.706 211.924 266.076 214.294 269 214.294ZM269 215C272.314 215 275 212.314 275 209C275 205.686 272.314 203 269 203C265.686 203 263 205.686 263 209C263 212.314 265.686 215 269 215Z" fill="#C4C4C4"/>
<path fill-rule="evenodd" clip-rule="evenodd" d="M269 372.294C271.924 372.294 274.294 369.924 274.294 367C274.294 364.076 271.924 361.706 269 361.706C266.076 361.706 263.706 364.076 263.706 367C263.706 369.924 266.076 372.294 269 372.294ZM269 373C272.314 373 275 370.314 275 367C275 363.686 272.314 361 269 361C265.686 361 263 363.686 263 367C263 370.314 265.686 373 269 373Z" fill="#35CA00"/>
<path fill-rule="evenodd" clip-rule="evenodd" d="M269 231.294C271.924 231.294 274.294 228.924 274.294 226C274.294 223.076 271.924 220.706 269 220.706C266.076 220.706 263.706 223.076 263.706 226C263.706 228.924 266.076 231.294 269 231.294ZM269 232C272.314 232 275 229.314 275 226C275 222.686 272.314 220 269 220C265.686 220 263 222.686 263 226C263 229.314 265.686 232 269 232Z" fill="#C4C4C4"/>
<path fill-rule="evenodd" clip-rule="evenodd" d="M269 389.294C271.924 389.294 274.294 386.924 274.294 384C274.294 381.076 271.924 378.706 269 378.706C266.076 378.706 263.706 381.076 263.706 384C263.706 386.924 266.076 389.294 269 389.294ZM269 390C272.314 390 275 387.314 275 384C275 380.686 272.314 378 269 378C265.686 378 263 380.686 263 384C263 387.314 265.686 390 269 390Z" fill="#35CA00"/>
<path fill-rule="evenodd" clip-rule="evenodd" d="M269 248.294C271.924 248.294 274.294 245.924 274.294 243C274.294 240.076 271.924 237.706 269 237.706C266.076 237.706 263.706 240.076 263.706 243C263.706 245.924 266.076 248.294 269 248.294ZM269 249C272.314 249 275 246.314 275 243C275 239.686 272.314 237 269 237C265.686 237 263 239.686 263 243C263 246.314 265.686 249 269 249Z" fill="#35CA00"/>
<path fill-rule="evenodd" clip-rule="evenodd" d="M269 406.294C271.924 406.294 274.294 403.924 274.294 401C274.294 398.076 271.924 395.706 269 395.706C266.076 395.706 263.706 398.076 263.706 401C263.706 403.924 266.076 406.294 269 406.294ZM269 407C272.314 407 275 404.314 275 401C275 397.686 272.314 395 269 395C265.686 395 263 397.686 263 401C263 404.314 265.686 407 269 407Z" fill="#35CA00"/>
<path fill-rule="evenodd" clip-rule="evenodd" d="M269 265.294C271.924 265.294 274.294 262.924 274.294 260C274.294 257.076 271.924 254.706 269 254.706C266.076 254.706 263.706 257.076 263.706 260C263.706 262.924 266.076 265.294 269 265.294ZM269 266C272.314 266 275 263.314 275 260C275 256.686 272.314 254 269 254C265.686 254 263 256.686 263 260C263 263.314 265.686 266 269 266Z" fill="#35CA00"/>
<path fill-rule="evenodd" clip-rule="evenodd" d="M269 423.294C271.924 423.294 274.294 420.924 274.294 418C274.294 415.076 271.924 412.706 269 412.706C266.076 412.706 263.706 415.076 263.706 418C263.706 420.924 266.076 423.294 269 423.294ZM269 424C272.314 424 275 421.314 275 418C275 414.686 272.314 412 269 412C265.686 412 263 414.686 263 418C263 421.314 265.686 424 269 424Z" fill="#C4C4C4"/>
<path fill-rule="evenodd" clip-rule="evenodd" d="M269 282.294C271.924 282.294 274.294 279.924 274.294 277C274.294 274.076 271.924 271.706 269 271.706C266.076 271.706 263.706 274.076 263.706 277C263.706 279.924 266.076 282.294 269 282.294ZM269 283C272.314 283 275 280.314 275 277C275 273.686 272.314 271 269 271C265.686 271 263 273.686 263 277C263 280.314 265.686 283 269 283Z" fill="#35CA00"/>
<path fill-rule="evenodd" clip-rule="evenodd" d="M269 440.294C271.924 440.294 274.294 437.924 274.294 435C274.294 432.076 271.924 429.706 269 429.706C266.076 429.706 263.706 432.076 263.706 435C263.706 437.924 266.076 440.294 269 440.294ZM269 441C272.314 441 275 438.314 275 435C275 431.686 272.314 429 269 429C265.686 429 263 431.686 263 435C263 438.314 265.686 441 269 441Z" fill="#C4C4C4"/>
<path d="M267.647 177.854L266.146 176.354C266.1 176.307 266.063 176.252 266.038 176.192C266.013 176.131 266 176.066 266 176C266 175.935 266.013 175.87 266.038 175.809C266.063 175.748 266.1 175.693 266.146 175.647C266.193 175.6 266.248 175.563 266.309 175.538C266.369 175.513 266.434 175.5 266.5 175.5C266.566 175.5 266.631 175.513 266.691 175.538C266.752 175.563 266.807 175.6 266.853 175.647L267.972 176.765L271.121 173.175C271.163 173.125 271.216 173.084 271.274 173.054C271.333 173.024 271.396 173.007 271.462 173.001C271.527 172.996 271.593 173.004 271.655 173.025C271.718 173.045 271.776 173.077 271.825 173.12C271.875 173.163 271.916 173.215 271.946 173.273C271.976 173.332 271.993 173.396 271.999 173.461C272.004 173.527 271.996 173.592 271.975 173.655C271.955 173.717 271.923 173.775 271.88 173.825L268.38 177.825C268.335 177.877 268.28 177.92 268.218 177.95C268.156 177.98 268.088 177.997 268.02 178C267.951 178.002 267.882 177.99 267.818 177.965C267.754 177.94 267.696 177.902 267.647 177.854Z" fill="#35CA00"/>
<path d="M267.647 335.854L266.146 334.354C266.1 334.307 266.063 334.252 266.038 334.192C266.013 334.131 266 334.066 266 334C266 333.935 266.013 333.87 266.038 333.809C266.063 333.748 266.1 333.693 266.146 333.647C266.193 333.6 266.248 333.563 266.309 333.538C266.369 333.513 266.434 333.5 266.5 333.5C266.566 333.5 266.631 333.513 266.691 333.538C266.752 333.563 266.807 333.6 266.853 333.647L267.972 334.765L271.121 331.175C271.163 331.125 271.216 331.084 271.274 331.054C271.333 331.024 271.396 331.007 271.462 331.001C271.527 330.996 271.593 331.004 271.655 331.025C271.718 331.045 271.776 331.077 271.825 331.12C271.875 331.163 271.916 331.215 271.946 331.273C271.976 331.332 271.993 331.396 271.999 331.461C272.004 331.527 271.996 331.592 271.975 331.655C271.955 331.717 271.923 331.775 271.88 331.825L268.38 335.825C268.335 335.877 268.28 335.92 268.218 335.95C268.156 335.98 268.088 335.997 268.02 336C267.951 336.002 267.882 335.99 267.818 335.965C267.754 335.94 267.696 335.902 267.647 335.854Z" fill="#35CA00"/>
<path d="M267.647 194.854L266.146 193.354C266.1 193.307 266.063 193.252 266.038 193.192C266.013 193.131 266 193.066 266 193C266 192.935 266.013 192.87 266.038 192.809C266.063 192.748 266.1 192.693 266.146 192.647C266.193 192.6 266.248 192.563 266.309 192.538C266.369 192.513 266.434 192.5 266.5 192.5C266.566 192.5 266.631 192.513 266.691 192.538C266.752 192.563 266.807 192.6 266.853 192.647L267.972 193.765L271.121 190.175C271.163 190.125 271.216 190.084 271.274 190.054C271.333 190.024 271.396 190.007 271.462 190.001C271.527 189.996 271.593 190.004 271.655 190.025C271.718 190.045 271.776 190.077 271.825 190.12C271.875 190.163 271.916 190.215 271.946 190.273C271.976 190.332 271.993 190.396 271.999 190.461C272.004 190.527 271.996 190.592 271.975 190.655C271.955 190.717 271.923 190.775 271.88 190.825L268.38 194.825C268.335 194.877 268.28 194.92 268.218 194.95C268.156 194.98 268.088 194.997 268.02 195C267.951 195.002 267.882 194.99 267.818 194.965C267.754 194.94 267.696 194.902 267.647 194.854Z" fill="#C4C4C4"/>
<path d="M267.647 352.854L266.146 351.354C266.1 351.307 266.063 351.252 266.038 351.192C266.013 351.131 266 351.066 266 351C266 350.935 266.013 350.87 266.038 350.809C266.063 350.748 266.1 350.693 266.146 350.647C266.193 350.6 266.248 350.563 266.309 350.538C266.369 350.513 266.434 350.5 266.5 350.5C266.566 350.5 266.631 350.513 266.691 350.538C266.752 350.563 266.807 350.6 266.853 350.647L267.972 351.765L271.121 348.175C271.163 348.125 271.216 348.084 271.274 348.054C271.333 348.024 271.396 348.007 271.462 348.001C271.527 347.996 271.593 348.004 271.655 348.025C271.718 348.045 271.776 348.077 271.825 348.12C271.875 348.163 271.916 348.215 271.946 348.273C271.976 348.332 271.993 348.396 271.999 348.461C272.004 348.527 271.996 348.592 271.975 348.655C271.955 348.717 271.923 348.775 271.88 348.825L268.38 352.825C268.335 352.877 268.28 352.92 268.218 352.95C268.156 352.98 268.088 352.997 268.02 353C267.951 353.002 267.882 352.99 267.818 352.965C267.754 352.94 267.696 352.902 267.647 352.854Z" fill="#35CA00"/>
<path d="M267.647 211.854L266.146 210.354C266.1 210.307 266.063 210.252 266.038 210.192C266.013 210.131 266 210.066 266 210C266 209.935 266.013 209.87 266.038 209.809C266.063 209.748 266.1 209.693 266.146 209.647C266.193 209.6 266.248 209.563 266.309 209.538C266.369 209.513 266.434 209.5 266.5 209.5C266.566 209.5 266.631 209.513 266.691 209.538C266.752 209.563 266.807 209.6 266.853 209.647L267.972 210.765L271.121 207.175C271.163 207.125 271.216 207.084 271.274 207.054C271.333 207.024 271.396 207.007 271.462 207.001C271.527 206.996 271.593 207.004 271.655 207.025C271.718 207.045 271.776 207.077 271.825 207.12C271.875 207.163 271.916 207.215 271.946 207.273C271.976 207.332 271.993 207.396 271.999 207.461C272.004 207.527 271.996 207.592 271.975 207.655C271.955 207.717 271.923 207.775 271.88 207.825L268.38 211.825C268.335 211.877 268.28 211.92 268.218 211.95C268.156 211.98 268.088 211.997 268.02 212C267.951 212.002 267.882 211.99 267.818 211.965C267.754 211.94 267.696 211.902 267.647 211.854Z" fill="#C4C4C4"/>
<path d="M267.647 369.854L266.146 368.354C266.1 368.307 266.063 368.252 266.038 368.192C266.013 368.131 266 368.066 266 368C266 367.935 266.013 367.87 266.038 367.809C266.063 367.748 266.1 367.693 266.146 367.647C266.193 367.6 266.248 367.563 266.309 367.538C266.369 367.513 266.434 367.5 266.5 367.5C266.566 367.5 266.631 367.513 266.691 367.538C266.752 367.563 266.807 367.6 266.853 367.647L267.972 368.765L271.121 365.175C271.163 365.125 271.216 365.084 271.274 365.054C271.333 365.024 271.396 365.007 271.462 365.001C271.527 364.996 271.593 365.004 271.655 365.025C271.718 365.045 271.776 365.077 271.825 365.12C271.875 365.163 271.916 365.215 271.946 365.273C271.976 365.332 271.993 365.396 271.999 365.461C272.004 365.527 271.996 365.592 271.975 365.655C271.955 365.717 271.923 365.775 271.88 365.825L268.38 369.825C268.335 369.877 268.28 369.92 268.218 369.95C268.156 369.98 268.088 369.997 268.02 370C267.951 370.002 267.882 369.99 267.818 369.965C267.754 369.94 267.696 369.902 267.647 369.854Z" fill="#35CA00"/>
<path d="M267.647 228.854L266.146 227.354C266.1 227.307 266.063 227.252 266.038 227.192C266.013 227.131 266 227.066 266 227C266 226.935 266.013 226.87 266.038 226.809C266.063 226.748 266.1 226.693 266.146 226.647C266.193 226.6 266.248 226.563 266.309 226.538C266.369 226.513 266.434 226.5 266.5 226.5C266.566 226.5 266.631 226.513 266.691 226.538C266.752 226.563 266.807 226.6 266.853 226.647L267.972 227.765L271.121 224.175C271.163 224.125 271.216 224.084 271.274 224.054C271.333 224.024 271.396 224.007 271.462 224.001C271.527 223.996 271.593 224.004 271.655 224.025C271.718 224.045 271.776 224.077 271.825 224.12C271.875 224.163 271.916 224.215 271.946 224.273C271.976 224.332 271.993 224.396 271.999 224.461C272.004 224.527 271.996 224.592 271.975 224.655C271.955 224.717 271.923 224.775 271.88 224.825L268.38 228.825C268.335 228.877 268.28 228.92 268.218 228.95C268.156 228.98 268.088 228.997 268.02 229C267.951 229.002 267.882 228.99 267.818 228.965C267.754 228.94 267.696 228.902 267.647 228.854Z" fill="#C4C4C4"/>
<path d="M267.647 386.854L266.146 385.354C266.1 385.307 266.063 385.252 266.038 385.192C266.013 385.131 266 385.066 266 385C266 384.935 266.013 384.87 266.038 384.809C266.063 384.748 266.1 384.693 266.146 384.647C266.193 384.6 266.248 384.563 266.309 384.538C266.369 384.513 266.434 384.5 266.5 384.5C266.566 384.5 266.631 384.513 266.691 384.538C266.752 384.563 266.807 384.6 266.853 384.647L267.972 385.765L271.121 382.175C271.163 382.125 271.216 382.084 271.274 382.054C271.333 382.024 271.396 382.007 271.462 382.001C271.527 381.996 271.593 382.004 271.655 382.025C271.718 382.045 271.776 382.077 271.825 382.12C271.875 382.163 271.916 382.215 271.946 382.273C271.976 382.332 271.993 382.396 271.999 382.461C272.004 382.527 271.996 382.592 271.975 382.655C271.955 382.717 271.923 382.775 271.88 382.825L268.38 386.825C268.335 386.877 268.28 386.92 268.218 386.95C268.156 386.98 268.088 386.997 268.02 387C267.951 387.002 267.882 386.99 267.818 386.965C267.754 386.94 267.696 386.902 267.647 386.854Z" fill="#35CA00"/>
<path d="M267.647 245.854L266.146 244.354C266.1 244.307 266.063 244.252 266.038 244.192C266.013 244.131 266 244.066 266 244C266 243.935 266.013 243.87 266.038 243.809C266.063 243.748 266.1 243.693 266.146 243.647C266.193 243.6 266.248 243.563 266.309 243.538C266.369 243.513 266.434 243.5 266.5 243.5C266.566 243.5 266.631 243.513 266.691 243.538C266.752 243.563 266.807 243.6 266.853 243.647L267.972 244.765L271.121 241.175C271.163 241.125 271.216 241.084 271.274 241.054C271.333 241.024 271.396 241.007 271.462 241.001C271.527 240.996 271.593 241.004 271.655 241.025C271.718 241.045 271.776 241.077 271.825 241.12C271.875 241.163 271.916 241.215 271.946 241.273C271.976 241.332 271.993 241.396 271.999 241.461C272.004 241.527 271.996 241.592 271.975 241.655C271.955 241.717 271.923 241.775 271.88 241.825L268.38 245.825C268.335 245.877 268.28 245.92 268.218 245.95C268.156 245.98 268.088 245.997 268.02 246C267.951 246.002 267.882 245.99 267.818 245.965C267.754 245.94 267.696 245.902 267.647 245.854Z" fill="#35CA00"/>
<path d="M267.647 403.854L266.146 402.354C266.1 402.307 266.063 402.252 266.038 402.192C266.013 402.131 266 402.066 266 402C266 401.935 266.013 401.87 266.038 401.809C266.063 401.748 266.1 401.693 266.146 401.647C266.193 401.6 266.248 401.563 266.309 401.538C266.369 401.513 266.434 401.5 266.5 401.5C266.566 401.5 266.631 401.513 266.691 401.538C266.752 401.563 266.807 401.6 266.853 401.647L267.972 402.765L271.121 399.175C271.163 399.125 271.216 399.084 271.274 399.054C271.333 399.024 271.396 399.007 271.462 399.001C271.527 398.996 271.593 399.004 271.655 399.025C271.718 399.045 271.776 399.077 271.825 399.12C271.875 399.163 271.916 399.215 271.946 399.273C271.976 399.332 271.993 399.396 271.999 399.461C272.004 399.527 271.996 399.592 271.975 399.655C271.955 399.717 271.923 399.775 271.88 399.825L268.38 403.825C268.335 403.877 268.28 403.92 268.218 403.95C268.156 403.98 268.088 403.997 268.02 404C267.951 404.002 267.882 403.99 267.818 403.965C267.754 403.94 267.696 403.902 267.647 403.854Z" fill="#35CA00"/>
<path d="M267.647 262.854L266.146 261.354C266.1 261.307 266.063 261.252 266.038 261.192C266.013 261.131 266 261.066 266 261C266 260.935 266.013 260.87 266.038 260.809C266.063 260.748 266.1 260.693 266.146 260.647C266.193 260.6 266.248 260.563 266.309 260.538C266.369 260.513 266.434 260.5 266.5 260.5C266.566 260.5 266.631 260.513 266.691 260.538C266.752 260.563 266.807 260.6 266.853 260.647L267.972 261.765L271.121 258.175C271.163 258.125 271.216 258.084 271.274 258.054C271.333 258.024 271.396 258.007 271.462 258.001C271.527 257.996 271.593 258.004 271.655 258.025C271.718 258.045 271.776 258.077 271.825 258.12C271.875 258.163 271.916 258.215 271.946 258.273C271.976 258.332 271.993 258.396 271.999 258.461C272.004 258.527 271.996 258.592 271.975 258.655C271.955 258.717 271.923 258.775 271.88 258.825L268.38 262.825C268.335 262.877 268.28 262.92 268.218 262.95C268.156 262.98 268.088 262.997 268.02 263C267.951 263.002 267.882 262.99 267.818 262.965C267.754 262.94 267.696 262.902 267.647 262.854Z" fill="#35CA00"/>
<path d="M267.647 420.854L266.146 419.354C266.1 419.307 266.063 419.252 266.038 419.192C266.013 419.131 266 419.066 266 419C266 418.935 266.013 418.87 266.038 418.809C266.063 418.748 266.1 418.693 266.146 418.647C266.193 418.6 266.248 418.563 266.309 418.538C266.369 418.513 266.434 418.5 266.5 418.5C266.566 418.5 266.631 418.513 266.691 418.538C266.752 418.563 266.807 418.6 266.853 418.647L267.972 419.765L271.121 416.175C271.163 416.125 271.216 416.084 271.274 416.054C271.333 416.024 271.396 416.007 271.462 416.001C271.527 415.996 271.593 416.004 271.655 416.025C271.718 416.045 271.776 416.077 271.825 416.12C271.875 416.163 271.916 416.215 271.946 416.273C271.976 416.332 271.993 416.396 271.999 416.461C272.004 416.527 271.996 416.592 271.975 416.655C271.955 416.717 271.923 416.775 271.88 416.825L268.38 420.825C268.335 420.877 268.28 420.92 268.218 420.95C268.156 420.98 268.088 420.997 268.02 421C267.951 421.002 267.882 420.99 267.818 420.965C267.754 420.94 267.696 420.902 267.647 420.854Z" fill="#C4C4C4"/>
<path d="M267.647 279.854L266.146 278.354C266.1 278.307 266.063 278.252 266.038 278.192C266.013 278.131 266 278.066 266 278C266 277.935 266.013 277.87 266.038 277.809C266.063 277.748 266.1 277.693 266.146 277.647C266.193 277.6 266.248 277.563 266.309 277.538C266.369 277.513 266.434 277.5 266.5 277.5C266.566 277.5 266.631 277.513 266.691 277.538C266.752 277.563 266.807 277.6 266.853 277.647L267.972 278.765L271.121 275.175C271.163 275.125 271.216 275.084 271.274 275.054C271.333 275.024 271.396 275.007 271.462 275.001C271.527 274.996 271.593 275.004 271.655 275.025C271.718 275.045 271.776 275.077 271.825 275.12C271.875 275.163 271.916 275.215 271.946 275.273C271.976 275.332 271.993 275.396 271.999 275.461C272.004 275.527 271.996 275.592 271.975 275.655C271.955 275.717 271.923 275.775 271.88 275.825L268.38 279.825C268.335 279.877 268.28 279.92 268.218 279.95C268.156 279.98 268.088 279.997 268.02 280C267.951 280.002 267.882 279.99 267.818 279.965C267.754 279.94 267.696 279.902 267.647 279.854Z" fill="#35CA00"/>
<path d="M267.647 437.854L266.146 436.354C266.1 436.307 266.063 436.252 266.038 436.192C266.013 436.131 266 436.066 266 436C266 435.935 266.013 435.87 266.038 435.809C266.063 435.748 266.1 435.693 266.146 435.647C266.193 435.6 266.248 435.563 266.309 435.538C266.369 435.513 266.434 435.5 266.5 435.5C266.566 435.5 266.631 435.513 266.691 435.538C266.752 435.563 266.807 435.6 266.853 435.647L267.972 436.765L271.121 433.175C271.163 433.125 271.216 433.084 271.274 433.054C271.333 433.024 271.396 433.007 271.462 433.001C271.527 432.996 271.593 433.004 271.655 433.025C271.718 433.045 271.776 433.077 271.825 433.12C271.875 433.163 271.916 433.215 271.946 433.273C271.976 433.332 271.993 433.396 271.999 433.461C272.004 433.527 271.996 433.592 271.975 433.655C271.955 433.717 271.923 433.775 271.88 433.825L268.38 437.825C268.335 437.877 268.28 437.92 268.218 437.95C268.156 437.98 268.088 437.997 268.02 438C267.951 438.002 267.882 437.99 267.818 437.965C267.754 437.94 267.696 437.902 267.647 437.854Z" fill="#C4C4C4"/>
<rect x="281" y="171" width="105" height="7" rx="3.5" fill="#E4E6EA"/>
<rect x="281" y="329" width="105" height="7" rx="3.5" fill="#E4E6EA"/>
<rect x="281" y="188" width="105" height="7" rx="3.5" fill="#E4E6EA"/>
<rect x="281" y="346" width="105" height="7" rx="3.5" fill="#E4E6EA"/>
<rect x="281" y="205" width="105" height="7" rx="3.5" fill="#E4E6EA"/>
<rect x="281" y="363" width="105" height="7" rx="3.5" fill="#E4E6EA"/>
<rect x="281" y="222" width="105" height="7" rx="3.5" fill="#E4E6EA"/>
<rect x="281" y="380" width="105" height="7" rx="3.5" fill="#E4E6EA"/>
<rect x="281" y="239" width="105" height="7" rx="3.5" fill="#E4E6EA"/>
<rect x="281" y="397" width="105" height="7" rx="3.5" fill="#E4E6EA"/>
<rect x="281" y="256" width="105" height="7" rx="3.5" fill="#E4E6EA"/>
<rect x="281" y="414" width="105" height="7" rx="3.5" fill="#E4E6EA"/>
<rect x="281" y="273" width="105" height="7" rx="3.5" fill="#E4E6EA"/>
<rect x="281" y="431" width="105" height="7" rx="3.5" fill="#E4E6EA"/>
<defs>
<linearGradient id="paint0_linear_617_5414" x1="235.477" y1="219.619" x2="163.68" y2="232.094" gradientUnits="userSpaceOnUse">
<stop stop-color="#F5B871"/>
<stop offset="1" stop-color="#F5B871" stop-opacity="0.1"/>
</linearGradient>
<linearGradient id="paint1_linear_617_5414" x1="235.477" y1="377.619" x2="163.68" y2="390.094" gradientUnits="userSpaceOnUse">
<stop stop-color="#182BB1"/>
<stop offset="1" stop-color="#0A124B" stop-opacity="0.06"/>
</linearGradient>
<linearGradient id="paint2_linear_617_5414" x1="180.867" y1="186.077" x2="163.68" y2="232.094" gradientUnits="userSpaceOnUse">
<stop stop-color="#FAC05D" stop-opacity="0.1"/>
<stop offset="0.61" stop-color="#F6AC49" stop-opacity="0.649"/>
<stop offset="1" stop-color="#F49F3C"/>
</linearGradient>
<linearGradient id="paint3_linear_617_5414" x1="180.867" y1="344.077" x2="163.68" y2="390.094" gradientUnits="userSpaceOnUse">
<stop stop-color="#50818E" stop-opacity="0.13"/>
<stop offset="1" stop-color="#617AFF"/>
</linearGradient>
<linearGradient id="paint4_linear_617_5414" x1="181.421" y1="187.74" x2="234.923" y2="219.619" gradientUnits="userSpaceOnUse">
<stop stop-color="#FAD493"/>
<stop offset="1" stop-color="#FAD493" stop-opacity="0.1"/>
</linearGradient>
<linearGradient id="paint5_linear_617_5414" x1="181.421" y1="345.74" x2="234.923" y2="377.619" gradientUnits="userSpaceOnUse">
<stop stop-color="#9CAAF6"/>
<stop offset="1" stop-color="#29398E" stop-opacity="0.07"/>
</linearGradient>
</defs>
</svg>
