<svg width="480" height="540" viewBox="0 0 480 540" fill="none" xmlns="http://www.w3.org/2000/svg">
<g clip-path="url(#clip0_83_1014)">
<path d="M396 76H85C75.6112 76 68 83.6112 68 93V447C68 456.389 75.6112 464 85 464H396C405.389 464 413 456.389 413 447V93C413 83.6112 405.389 76 396 76Z" fill="#F1F5F7"/>
<path d="M87.704 121L83.231 106.3H86.465L88.859 114.511C88.957 114.805 89.041 115.127 89.111 115.477C89.195 115.813 89.258 116.142 89.3 116.464C89.356 116.772 89.398 117.066 89.426 117.346C89.468 117.612 89.503 117.836 89.531 118.018L89.027 117.997C89.153 117.409 89.258 116.919 89.342 116.527C89.426 116.121 89.503 115.764 89.573 115.456C89.657 115.134 89.755 114.812 89.867 114.49L92.177 108.421H94.781L97.049 114.49C97.217 114.91 97.35 115.316 97.448 115.708C97.56 116.086 97.651 116.457 97.721 116.821C97.791 117.171 97.854 117.528 97.91 117.892L97.469 117.976C97.511 117.682 97.539 117.43 97.553 117.22C97.581 116.996 97.602 116.793 97.616 116.611C97.644 116.429 97.672 116.247 97.7 116.065C97.728 115.869 97.77 115.645 97.826 115.393C97.882 115.127 97.966 114.819 98.078 114.469L100.451 106.3H103.643L99.128 121H96.776L93.164 112.306L93.5 112.348L90.119 121H87.704ZM108.993 121.21C108.069 121.21 107.236 120.958 106.494 120.454C105.752 119.95 105.164 119.264 104.73 118.396C104.296 117.528 104.079 116.534 104.079 115.414C104.079 114.294 104.296 113.3 104.73 112.432C105.178 111.564 105.78 110.885 106.536 110.395C107.292 109.905 108.153 109.66 109.119 109.66C109.665 109.66 110.162 109.744 110.61 109.912C111.072 110.066 111.471 110.283 111.807 110.563C112.157 110.843 112.451 111.165 112.689 111.529C112.927 111.893 113.095 112.285 113.193 112.705L112.563 112.6V109.891H115.524V121H112.521V118.333L113.193 118.27C113.081 118.662 112.899 119.033 112.647 119.383C112.395 119.733 112.08 120.048 111.702 120.328C111.338 120.594 110.925 120.811 110.463 120.979C110.001 121.133 109.511 121.21 108.993 121.21ZM109.812 118.627C110.372 118.627 110.862 118.494 111.282 118.228C111.702 117.962 112.024 117.591 112.248 117.115C112.486 116.625 112.605 116.058 112.605 115.414C112.605 114.784 112.486 114.231 112.248 113.755C112.024 113.279 111.702 112.908 111.282 112.642C110.862 112.362 110.372 112.222 109.812 112.222C109.266 112.222 108.783 112.362 108.363 112.642C107.957 112.908 107.635 113.279 107.397 113.755C107.159 114.231 107.04 114.784 107.04 115.414C107.04 116.058 107.159 116.625 107.397 117.115C107.635 117.591 107.957 117.962 108.363 118.228C108.783 118.494 109.266 118.627 109.812 118.627ZM118.513 121V109.891H121.39L121.495 113.461L120.991 112.726C121.159 112.152 121.432 111.634 121.81 111.172C122.188 110.696 122.629 110.325 123.133 110.059C123.651 109.793 124.19 109.66 124.75 109.66C124.988 109.66 125.219 109.681 125.443 109.723C125.667 109.765 125.856 109.814 126.01 109.87L125.212 113.146C125.058 113.062 124.855 112.992 124.603 112.936C124.365 112.866 124.12 112.831 123.868 112.831C123.532 112.831 123.217 112.894 122.923 113.02C122.643 113.132 122.398 113.3 122.188 113.524C121.978 113.734 121.81 113.986 121.684 114.28C121.572 114.574 121.516 114.896 121.516 115.246V121H118.513ZM127.721 121V109.891H130.598L130.703 113.461L130.199 112.726C130.367 112.152 130.64 111.634 131.018 111.172C131.396 110.696 131.837 110.325 132.341 110.059C132.859 109.793 133.398 109.66 133.958 109.66C134.196 109.66 134.427 109.681 134.651 109.723C134.875 109.765 135.064 109.814 135.218 109.87L134.42 113.146C134.266 113.062 134.063 112.992 133.811 112.936C133.573 112.866 133.328 112.831 133.076 112.831C132.74 112.831 132.425 112.894 132.131 113.02C131.851 113.132 131.606 113.3 131.396 113.524C131.186 113.734 131.018 113.986 130.892 114.28C130.78 114.574 130.724 114.896 130.724 115.246V121H127.721ZM140.616 121.21C139.692 121.21 138.859 120.958 138.117 120.454C137.375 119.95 136.787 119.264 136.353 118.396C135.919 117.528 135.702 116.534 135.702 115.414C135.702 114.294 135.919 113.3 136.353 112.432C136.801 111.564 137.403 110.885 138.159 110.395C138.915 109.905 139.776 109.66 140.742 109.66C141.288 109.66 141.785 109.744 142.233 109.912C142.695 110.066 143.094 110.283 143.43 110.563C143.78 110.843 144.074 111.165 144.312 111.529C144.55 111.893 144.718 112.285 144.816 112.705L144.186 112.6V109.891H147.147V121H144.144V118.333L144.816 118.27C144.704 118.662 144.522 119.033 144.27 119.383C144.018 119.733 143.703 120.048 143.325 120.328C142.961 120.594 142.548 120.811 142.086 120.979C141.624 121.133 141.134 121.21 140.616 121.21ZM141.435 118.627C141.995 118.627 142.485 118.494 142.905 118.228C143.325 117.962 143.647 117.591 143.871 117.115C144.109 116.625 144.228 116.058 144.228 115.414C144.228 114.784 144.109 114.231 143.871 113.755C143.647 113.279 143.325 112.908 142.905 112.642C142.485 112.362 141.995 112.222 141.435 112.222C140.889 112.222 140.406 112.362 139.986 112.642C139.58 112.908 139.258 113.279 139.02 113.755C138.782 114.231 138.663 114.784 138.663 115.414C138.663 116.058 138.782 116.625 139.02 117.115C139.258 117.591 139.58 117.962 139.986 118.228C140.406 118.494 140.889 118.627 141.435 118.627ZM150.137 121V109.891H152.993L153.077 112.159L152.489 112.411C152.643 111.907 152.916 111.452 153.308 111.046C153.714 110.626 154.197 110.29 154.757 110.038C155.317 109.786 155.905 109.66 156.521 109.66C157.361 109.66 158.061 109.828 158.621 110.164C159.195 110.5 159.622 111.011 159.902 111.697C160.196 112.369 160.343 113.202 160.343 114.196V121H157.361V114.427C157.361 113.923 157.291 113.503 157.151 113.167C157.011 112.831 156.794 112.586 156.5 112.432C156.22 112.278 155.87 112.208 155.45 112.222C155.114 112.222 154.799 112.278 154.505 112.39C154.225 112.488 153.98 112.635 153.77 112.831C153.574 113.027 153.413 113.251 153.287 113.503C153.175 113.755 153.119 114.028 153.119 114.322V121H151.649C151.327 121 151.04 121 150.788 121C150.536 121 150.319 121 150.137 121ZM164.271 121V107.077H167.253V121H164.271ZM162.192 112.558V109.891H169.542V112.558H162.192ZM173.019 125.83L175.455 120.118L175.497 121.84L170.079 109.891H173.46L176.169 116.296C176.281 116.534 176.386 116.814 176.484 117.136C176.596 117.444 176.687 117.738 176.757 118.018L176.253 118.249C176.351 118.011 176.449 117.738 176.547 117.43C176.659 117.122 176.771 116.793 176.883 116.443L179.214 109.891H182.616L177.954 121L176.043 125.83H173.019ZM194.146 121V109.135H189.862V106.3H201.706V109.135H197.296V121H194.146ZM202.637 121V109.891H205.514L205.619 113.461L205.115 112.726C205.283 112.152 205.556 111.634 205.934 111.172C206.312 110.696 206.753 110.325 207.257 110.059C207.775 109.793 208.314 109.66 208.874 109.66C209.112 109.66 209.343 109.681 209.567 109.723C209.791 109.765 209.98 109.814 210.134 109.87L209.336 113.146C209.182 113.062 208.979 112.992 208.727 112.936C208.489 112.866 208.244 112.831 207.992 112.831C207.656 112.831 207.341 112.894 207.047 113.02C206.767 113.132 206.522 113.3 206.312 113.524C206.102 113.734 205.934 113.986 205.808 114.28C205.696 114.574 205.64 114.896 205.64 115.246V121H202.637ZM215.531 121.21C214.607 121.21 213.774 120.958 213.032 120.454C212.29 119.95 211.702 119.264 211.268 118.396C210.834 117.528 210.617 116.534 210.617 115.414C210.617 114.294 210.834 113.3 211.268 112.432C211.716 111.564 212.318 110.885 213.074 110.395C213.83 109.905 214.691 109.66 215.657 109.66C216.203 109.66 216.7 109.744 217.148 109.912C217.61 110.066 218.009 110.283 218.345 110.563C218.695 110.843 218.989 111.165 219.227 111.529C219.465 111.893 219.633 112.285 219.731 112.705L219.101 112.6V109.891H222.062V121H219.059V118.333L219.731 118.27C219.619 118.662 219.437 119.033 219.185 119.383C218.933 119.733 218.618 120.048 218.24 120.328C217.876 120.594 217.463 120.811 217.001 120.979C216.539 121.133 216.049 121.21 215.531 121.21ZM216.35 118.627C216.91 118.627 217.4 118.494 217.82 118.228C218.24 117.962 218.562 117.591 218.786 117.115C219.024 116.625 219.143 116.058 219.143 115.414C219.143 114.784 219.024 114.231 218.786 113.755C218.562 113.279 218.24 112.908 217.82 112.642C217.4 112.362 216.91 112.222 216.35 112.222C215.804 112.222 215.321 112.362 214.901 112.642C214.495 112.908 214.173 113.279 213.935 113.755C213.697 114.231 213.578 114.784 213.578 115.414C213.578 116.058 213.697 116.625 213.935 117.115C214.173 117.591 214.495 117.962 214.901 118.228C215.321 118.494 215.804 118.627 216.35 118.627ZM229.882 121.21C228.818 121.21 227.866 120.958 227.026 120.454C226.186 119.95 225.521 119.264 225.031 118.396C224.555 117.528 224.317 116.541 224.317 115.435C224.317 114.329 224.555 113.342 225.031 112.474C225.521 111.606 226.186 110.92 227.026 110.416C227.866 109.912 228.818 109.66 229.882 109.66C230.876 109.66 231.786 109.842 232.612 110.206C233.438 110.57 234.082 111.074 234.544 111.718L232.906 113.692C232.71 113.426 232.465 113.188 232.171 112.978C231.877 112.754 231.555 112.579 231.205 112.453C230.869 112.327 230.519 112.264 230.155 112.264C229.581 112.264 229.07 112.404 228.622 112.684C228.188 112.95 227.845 113.321 227.593 113.797C227.341 114.273 227.215 114.819 227.215 115.435C227.215 116.023 227.341 116.555 227.593 117.031C227.859 117.507 228.216 117.885 228.664 118.165C229.112 118.445 229.616 118.585 230.176 118.585C230.54 118.585 230.883 118.536 231.205 118.438C231.527 118.34 231.828 118.186 232.108 117.976C232.402 117.766 232.668 117.514 232.906 117.22L234.523 119.194C234.061 119.796 233.403 120.286 232.549 120.664C231.709 121.028 230.82 121.21 229.882 121.21ZM239.268 117.661L238.386 115.204L243.636 109.891H247.563L239.268 117.661ZM236.433 121V105.46H239.415V121H236.433ZM243.951 121L239.961 115.981L242.061 114.301L247.542 121H243.951ZM253.989 121.21C252.785 121.21 251.728 120.965 250.818 120.475C249.922 119.985 249.222 119.313 248.718 118.459C248.228 117.605 247.983 116.625 247.983 115.519C247.983 114.651 248.123 113.86 248.403 113.146C248.683 112.432 249.075 111.816 249.579 111.298C250.083 110.766 250.678 110.36 251.364 110.08C252.064 109.786 252.82 109.639 253.632 109.639C254.388 109.639 255.088 109.779 255.732 110.059C256.376 110.339 256.929 110.731 257.391 111.235C257.867 111.725 258.231 112.313 258.483 112.999C258.735 113.671 258.847 114.399 258.819 115.183L258.798 116.107H249.873L249.39 114.28H256.341L256.005 114.658V114.196C255.977 113.818 255.851 113.482 255.627 113.188C255.417 112.88 255.144 112.642 254.808 112.474C254.472 112.292 254.094 112.201 253.674 112.201C253.058 112.201 252.533 112.32 252.099 112.558C251.679 112.796 251.357 113.146 251.133 113.608C250.909 114.07 250.797 114.63 250.797 115.288C250.797 115.96 250.937 116.541 251.217 117.031C251.511 117.521 251.917 117.906 252.435 118.186C252.967 118.452 253.59 118.585 254.304 118.585C254.794 118.585 255.242 118.508 255.648 118.354C256.054 118.2 256.488 117.934 256.95 117.556L258.378 119.551C257.972 119.915 257.524 120.223 257.034 120.475C256.544 120.713 256.04 120.895 255.522 121.021C255.004 121.147 254.493 121.21 253.989 121.21ZM261.022 121V109.891H263.899L264.004 113.461L263.5 112.726C263.668 112.152 263.941 111.634 264.319 111.172C264.697 110.696 265.138 110.325 265.642 110.059C266.16 109.793 266.699 109.66 267.259 109.66C267.497 109.66 267.728 109.681 267.952 109.723C268.176 109.765 268.365 109.814 268.519 109.87L267.721 113.146C267.567 113.062 267.364 112.992 267.112 112.936C266.874 112.866 266.629 112.831 266.377 112.831C266.041 112.831 265.726 112.894 265.432 113.02C265.152 113.132 264.907 113.3 264.697 113.524C264.487 113.734 264.319 113.986 264.193 114.28C264.081 114.574 264.025 114.896 264.025 115.246V121H261.022Z" fill="black"/>
<rect x="83" y="214" width="154" height="62" rx="9" fill="white"/>
<rect x="83" y="291" width="154" height="62" rx="9" fill="white"/>
<rect x="83" y="367" width="154" height="62" rx="9" fill="white"/>
<rect x="244" y="214" width="154" height="62" rx="9" fill="white"/>
<rect x="244" y="291" width="154" height="62" rx="9" fill="white"/>
<rect x="244" y="367" width="154" height="62" rx="9" fill="white"/>
<path d="M93.72 234V233H94.85V228H93.72V227H97.06V228H95.93V233H97.06V234H93.72ZM99.1454 234V227.41H100.175V234H99.1454ZM98.0554 229.75V228.75H101.395V229.75H98.0554ZM104.734 234.1C104.194 234.1 103.714 233.987 103.294 233.76C102.881 233.527 102.554 233.21 102.314 232.81C102.081 232.41 101.964 231.95 101.964 231.43C101.964 231.017 102.031 230.64 102.164 230.3C102.298 229.96 102.481 229.667 102.714 229.42C102.954 229.167 103.238 228.973 103.564 228.84C103.898 228.7 104.258 228.63 104.644 228.63C104.984 228.63 105.301 228.697 105.594 228.83C105.888 228.957 106.141 229.133 106.354 229.36C106.574 229.587 106.741 229.857 106.854 230.17C106.974 230.477 107.031 230.813 107.024 231.18L107.014 231.62H102.724L102.494 230.8H106.124L105.974 230.97V230.73C105.954 230.51 105.881 230.313 105.754 230.14C105.628 229.967 105.468 229.83 105.274 229.73C105.081 229.63 104.871 229.58 104.644 229.58C104.284 229.58 103.981 229.65 103.734 229.79C103.488 229.923 103.301 230.123 103.174 230.39C103.048 230.65 102.984 230.973 102.984 231.36C102.984 231.727 103.061 232.047 103.214 232.32C103.368 232.587 103.584 232.793 103.864 232.94C104.144 233.087 104.468 233.16 104.834 233.16C105.094 233.16 105.334 233.117 105.554 233.03C105.781 232.943 106.024 232.787 106.284 232.56L106.804 233.29C106.644 233.45 106.448 233.59 106.214 233.71C105.988 233.83 105.744 233.927 105.484 234C105.231 234.067 104.981 234.1 104.734 234.1ZM108.124 234V228.75H109.164V229.87L108.974 229.99C109.027 229.817 109.11 229.65 109.224 229.49C109.344 229.33 109.487 229.19 109.654 229.07C109.827 228.943 110.01 228.843 110.204 228.77C110.404 228.697 110.607 228.66 110.814 228.66C111.114 228.66 111.377 228.71 111.604 228.81C111.83 228.91 112.017 229.06 112.164 229.26C112.31 229.46 112.417 229.71 112.484 230.01L112.324 229.97L112.394 229.8C112.467 229.647 112.567 229.503 112.694 229.37C112.827 229.23 112.977 229.107 113.144 229C113.31 228.893 113.487 228.81 113.674 228.75C113.86 228.69 114.044 228.66 114.224 228.66C114.617 228.66 114.94 228.74 115.194 228.9C115.454 229.06 115.647 229.303 115.774 229.63C115.907 229.957 115.974 230.363 115.974 230.85V234H114.934V230.91C114.934 230.61 114.894 230.367 114.814 230.18C114.74 229.987 114.627 229.843 114.474 229.75C114.32 229.657 114.124 229.61 113.884 229.61C113.697 229.61 113.52 229.643 113.354 229.71C113.194 229.77 113.054 229.857 112.934 229.97C112.814 230.083 112.72 230.217 112.654 230.37C112.587 230.517 112.554 230.68 112.554 230.86V234H111.514V230.89C111.514 230.617 111.474 230.387 111.394 230.2C111.314 230.007 111.197 229.86 111.044 229.76C110.89 229.66 110.704 229.61 110.484 229.61C110.297 229.61 110.124 229.643 109.964 229.71C109.804 229.77 109.664 229.857 109.544 229.97C109.424 230.077 109.33 230.207 109.264 230.36C109.197 230.507 109.164 230.667 109.164 230.84V234H108.124ZM120.416 234V227H121.386L125.666 232.73L125.506 232.82C125.479 232.653 125.456 232.473 125.436 232.28C125.416 232.08 125.396 231.87 125.376 231.65C125.362 231.423 125.349 231.187 125.336 230.94C125.329 230.687 125.322 230.423 125.316 230.15C125.309 229.877 125.306 229.593 125.306 229.3V227H126.386V234H125.396L121.186 228.48L121.296 228.34C121.329 228.747 121.356 229.093 121.376 229.38C121.402 229.66 121.422 229.9 121.436 230.1C121.456 230.293 121.469 230.453 121.476 230.58C121.482 230.7 121.486 230.8 121.486 230.88C121.492 230.96 121.496 231.03 121.496 231.09V234H120.416ZM130.105 234.1C129.672 234.1 129.275 233.98 128.915 233.74C128.562 233.5 128.279 233.173 128.065 232.76C127.852 232.347 127.745 231.88 127.745 231.36C127.745 230.833 127.852 230.367 128.065 229.96C128.285 229.547 128.579 229.223 128.945 228.99C129.319 228.757 129.735 228.64 130.195 228.64C130.469 228.64 130.719 228.68 130.945 228.76C131.172 228.84 131.369 228.953 131.535 229.1C131.709 229.24 131.849 229.403 131.955 229.59C132.069 229.777 132.139 229.977 132.165 230.19L131.935 230.11V228.75H132.975V234H131.935V232.75L132.175 232.68C132.135 232.86 132.052 233.037 131.925 233.21C131.805 233.377 131.649 233.527 131.455 233.66C131.269 233.793 131.059 233.9 130.825 233.98C130.599 234.06 130.359 234.1 130.105 234.1ZM130.375 233.15C130.689 233.15 130.965 233.073 131.205 232.92C131.445 232.767 131.632 232.557 131.765 232.29C131.905 232.017 131.975 231.707 131.975 231.36C131.975 231.02 131.905 230.717 131.765 230.45C131.632 230.183 131.445 229.973 131.205 229.82C130.965 229.667 130.689 229.59 130.375 229.59C130.069 229.59 129.795 229.667 129.555 229.82C129.322 229.973 129.135 230.183 128.995 230.45C128.862 230.717 128.795 231.02 128.795 231.36C128.795 231.707 128.862 232.017 128.995 232.29C129.135 232.557 129.322 232.767 129.555 232.92C129.795 233.073 130.069 233.15 130.375 233.15ZM134.393 234V228.75H135.433V229.87L135.243 229.99C135.297 229.817 135.38 229.65 135.493 229.49C135.613 229.33 135.757 229.19 135.923 229.07C136.097 228.943 136.28 228.843 136.473 228.77C136.673 228.697 136.877 228.66 137.083 228.66C137.383 228.66 137.647 228.71 137.873 228.81C138.1 228.91 138.287 229.06 138.433 229.26C138.58 229.46 138.687 229.71 138.753 230.01L138.593 229.97L138.663 229.8C138.737 229.647 138.837 229.503 138.963 229.37C139.097 229.23 139.247 229.107 139.413 229C139.58 228.893 139.757 228.81 139.943 228.75C140.13 228.69 140.313 228.66 140.493 228.66C140.887 228.66 141.21 228.74 141.463 228.9C141.723 229.06 141.917 229.303 142.043 229.63C142.177 229.957 142.243 230.363 142.243 230.85V234H141.203V230.91C141.203 230.61 141.163 230.367 141.083 230.18C141.01 229.987 140.897 229.843 140.743 229.75C140.59 229.657 140.393 229.61 140.153 229.61C139.967 229.61 139.79 229.643 139.623 229.71C139.463 229.77 139.323 229.857 139.203 229.97C139.083 230.083 138.99 230.217 138.923 230.37C138.857 230.517 138.823 230.68 138.823 230.86V234H137.783V230.89C137.783 230.617 137.743 230.387 137.663 230.2C137.583 230.007 137.467 229.86 137.313 229.76C137.16 229.66 136.973 229.61 136.753 229.61C136.567 229.61 136.393 229.643 136.233 229.71C136.073 229.77 135.933 229.857 135.813 229.97C135.693 230.077 135.6 230.207 135.533 230.36C135.467 230.507 135.433 230.667 135.433 230.84V234H134.393ZM146.072 234.1C145.532 234.1 145.052 233.987 144.632 233.76C144.219 233.527 143.892 233.21 143.652 232.81C143.419 232.41 143.302 231.95 143.302 231.43C143.302 231.017 143.369 230.64 143.502 230.3C143.636 229.96 143.819 229.667 144.052 229.42C144.292 229.167 144.576 228.973 144.902 228.84C145.236 228.7 145.596 228.63 145.982 228.63C146.322 228.63 146.639 228.697 146.932 228.83C147.226 228.957 147.479 229.133 147.692 229.36C147.912 229.587 148.079 229.857 148.192 230.17C148.312 230.477 148.369 230.813 148.362 231.18L148.352 231.62H144.062L143.832 230.8H147.462L147.312 230.97V230.73C147.292 230.51 147.219 230.313 147.092 230.14C146.966 229.967 146.806 229.83 146.612 229.73C146.419 229.63 146.209 229.58 145.982 229.58C145.622 229.58 145.319 229.65 145.072 229.79C144.826 229.923 144.639 230.123 144.512 230.39C144.386 230.65 144.322 230.973 144.322 231.36C144.322 231.727 144.399 232.047 144.552 232.32C144.706 232.587 144.922 232.793 145.202 232.94C145.482 233.087 145.806 233.16 146.172 233.16C146.432 233.16 146.672 233.117 146.892 233.03C147.119 232.943 147.362 232.787 147.622 232.56L148.142 233.29C147.982 233.45 147.786 233.59 147.552 233.71C147.326 233.83 147.082 233.927 146.822 234C146.569 234.067 146.319 234.1 146.072 234.1Z" fill="black"/>
<path d="M93.98 311V304H96.83C97.21 304 97.5533 304.097 97.86 304.29C98.1733 304.477 98.4233 304.733 98.61 305.06C98.7967 305.387 98.89 305.75 98.89 306.15C98.89 306.55 98.7967 306.913 98.61 307.24C98.4233 307.567 98.1733 307.83 97.86 308.03C97.5533 308.223 97.21 308.32 96.83 308.32H95.06V311H93.98ZM95.06 307.28H96.81C96.99 307.28 97.1533 307.23 97.3 307.13C97.4467 307.023 97.5633 306.887 97.65 306.72C97.7433 306.547 97.79 306.357 97.79 306.15C97.79 305.943 97.7433 305.757 97.65 305.59C97.5633 305.423 97.4467 305.29 97.3 305.19C97.1533 305.09 96.99 305.04 96.81 305.04H95.06V307.28ZM101.849 311.1C101.476 311.1 101.149 311.013 100.869 310.84C100.596 310.667 100.382 310.423 100.229 310.11C100.082 309.797 100.009 309.423 100.009 308.99V305.75H101.039V308.71C101.039 309.017 101.086 309.283 101.179 309.51C101.279 309.73 101.419 309.9 101.599 310.02C101.786 310.14 102.009 310.2 102.269 310.2C102.462 310.2 102.639 310.17 102.799 310.11C102.959 310.043 103.096 309.953 103.209 309.84C103.329 309.727 103.422 309.59 103.489 309.43C103.556 309.27 103.589 309.097 103.589 308.91V305.75H104.619V311H103.589V309.9L103.769 309.78C103.689 310.027 103.552 310.25 103.359 310.45C103.172 310.65 102.949 310.81 102.689 310.93C102.429 311.043 102.149 311.1 101.849 311.1ZM106.064 311V305.75H107.104V307.4L107.004 307C107.077 306.747 107.2 306.517 107.374 306.31C107.554 306.103 107.757 305.94 107.984 305.82C108.217 305.7 108.457 305.64 108.704 305.64C108.817 305.64 108.924 305.65 109.024 305.67C109.13 305.69 109.214 305.713 109.274 305.74L109.004 306.86C108.924 306.827 108.834 306.8 108.734 306.78C108.64 306.753 108.547 306.74 108.454 306.74C108.274 306.74 108.1 306.777 107.934 306.85C107.774 306.917 107.63 307.013 107.504 307.14C107.384 307.26 107.287 307.403 107.214 307.57C107.14 307.73 107.104 307.907 107.104 308.1V311H106.064ZM112.102 311.1C111.616 311.1 111.179 310.98 110.792 310.74C110.412 310.5 110.109 310.173 109.882 309.76C109.662 309.347 109.552 308.883 109.552 308.37C109.552 307.857 109.662 307.393 109.882 306.98C110.109 306.567 110.412 306.24 110.792 306C111.179 305.76 111.616 305.64 112.102 305.64C112.569 305.64 112.992 305.737 113.372 305.93C113.759 306.117 114.052 306.373 114.252 306.7L113.682 307.4C113.576 307.247 113.439 307.107 113.272 306.98C113.106 306.853 112.929 306.753 112.742 306.68C112.556 306.607 112.376 306.57 112.202 306.57C111.882 306.57 111.596 306.65 111.342 306.81C111.096 306.963 110.899 307.177 110.752 307.45C110.606 307.723 110.532 308.03 110.532 308.37C110.532 308.71 110.609 309.017 110.762 309.29C110.916 309.557 111.119 309.77 111.372 309.93C111.626 310.09 111.906 310.17 112.212 310.17C112.392 310.17 112.566 310.14 112.732 310.08C112.906 310.02 113.072 309.93 113.232 309.81C113.392 309.69 113.542 309.543 113.682 309.37L114.252 310.07C114.039 310.37 113.732 310.617 113.332 310.81C112.939 311.003 112.529 311.1 112.102 311.1ZM115.224 311V303.6H116.254V306.83L116.074 306.95C116.141 306.717 116.271 306.503 116.464 306.31C116.657 306.11 116.887 305.95 117.154 305.83C117.421 305.703 117.694 305.64 117.974 305.64C118.374 305.64 118.707 305.72 118.974 305.88C119.241 306.033 119.441 306.27 119.574 306.59C119.707 306.91 119.774 307.313 119.774 307.8V311H118.744V307.87C118.744 307.57 118.704 307.323 118.624 307.13C118.544 306.93 118.421 306.787 118.254 306.7C118.087 306.607 117.881 306.567 117.634 306.58C117.434 306.58 117.251 306.613 117.084 306.68C116.917 306.74 116.771 306.827 116.644 306.94C116.524 307.053 116.427 307.187 116.354 307.34C116.287 307.487 116.254 307.647 116.254 307.82V311H115.744C115.657 311 115.571 311 115.484 311C115.397 311 115.311 311 115.224 311ZM123.191 311.1C122.758 311.1 122.361 310.98 122.001 310.74C121.648 310.5 121.365 310.173 121.151 309.76C120.938 309.347 120.831 308.88 120.831 308.36C120.831 307.833 120.938 307.367 121.151 306.96C121.371 306.547 121.665 306.223 122.031 305.99C122.405 305.757 122.821 305.64 123.281 305.64C123.555 305.64 123.805 305.68 124.031 305.76C124.258 305.84 124.455 305.953 124.621 306.1C124.795 306.24 124.935 306.403 125.041 306.59C125.155 306.777 125.225 306.977 125.251 307.19L125.021 307.11V305.75H126.061V311H125.021V309.75L125.261 309.68C125.221 309.86 125.138 310.037 125.011 310.21C124.891 310.377 124.735 310.527 124.541 310.66C124.355 310.793 124.145 310.9 123.911 310.98C123.685 311.06 123.445 311.1 123.191 311.1ZM123.461 310.15C123.775 310.15 124.051 310.073 124.291 309.92C124.531 309.767 124.718 309.557 124.851 309.29C124.991 309.017 125.061 308.707 125.061 308.36C125.061 308.02 124.991 307.717 124.851 307.45C124.718 307.183 124.531 306.973 124.291 306.82C124.051 306.667 123.775 306.59 123.461 306.59C123.155 306.59 122.881 306.667 122.641 306.82C122.408 306.973 122.221 307.183 122.081 307.45C121.948 307.717 121.881 308.02 121.881 308.36C121.881 308.707 121.948 309.017 122.081 309.29C122.221 309.557 122.408 309.767 122.641 309.92C122.881 310.073 123.155 310.15 123.461 310.15ZM129.249 311.1C128.809 311.1 128.413 311.023 128.059 310.87C127.706 310.717 127.413 310.49 127.179 310.19L127.879 309.59C128.079 309.823 128.296 309.993 128.529 310.1C128.769 310.2 129.039 310.25 129.339 310.25C129.459 310.25 129.569 310.237 129.669 310.21C129.776 310.177 129.866 310.13 129.939 310.07C130.019 310.01 130.079 309.94 130.119 309.86C130.159 309.773 130.179 309.68 130.179 309.58C130.179 309.407 130.116 309.267 129.989 309.16C129.923 309.113 129.816 309.063 129.669 309.01C129.529 308.95 129.346 308.89 129.119 308.83C128.733 308.73 128.416 308.617 128.169 308.49C127.923 308.363 127.733 308.22 127.599 308.06C127.499 307.933 127.426 307.797 127.379 307.65C127.333 307.497 127.309 307.33 127.309 307.15C127.309 306.93 127.356 306.73 127.449 306.55C127.549 306.363 127.683 306.203 127.849 306.07C128.023 305.93 128.223 305.823 128.449 305.75C128.683 305.677 128.929 305.64 129.189 305.64C129.436 305.64 129.679 305.673 129.919 305.74C130.166 305.807 130.393 305.903 130.599 306.03C130.806 306.157 130.979 306.307 131.119 306.48L130.529 307.13C130.403 307.003 130.263 306.893 130.109 306.8C129.963 306.7 129.813 306.623 129.659 306.57C129.506 306.517 129.366 306.49 129.239 306.49C129.099 306.49 128.973 306.503 128.859 306.53C128.746 306.557 128.649 306.597 128.569 306.65C128.496 306.703 128.439 306.77 128.399 306.85C128.359 306.93 128.339 307.02 128.339 307.12C128.346 307.207 128.366 307.29 128.399 307.37C128.439 307.443 128.493 307.507 128.559 307.56C128.633 307.613 128.743 307.67 128.889 307.73C129.036 307.79 129.223 307.847 129.449 307.9C129.783 307.987 130.056 308.083 130.269 308.19C130.489 308.29 130.663 308.407 130.789 308.54C130.923 308.667 131.016 308.813 131.069 308.98C131.123 309.147 131.149 309.333 131.149 309.54C131.149 309.84 131.063 310.11 130.889 310.35C130.723 310.583 130.496 310.767 130.209 310.9C129.923 311.033 129.603 311.1 129.249 311.1ZM134.734 311.1C134.194 311.1 133.714 310.987 133.294 310.76C132.881 310.527 132.554 310.21 132.314 309.81C132.081 309.41 131.964 308.95 131.964 308.43C131.964 308.017 132.031 307.64 132.164 307.3C132.298 306.96 132.481 306.667 132.714 306.42C132.954 306.167 133.238 305.973 133.564 305.84C133.898 305.7 134.258 305.63 134.644 305.63C134.984 305.63 135.301 305.697 135.594 305.83C135.888 305.957 136.141 306.133 136.354 306.36C136.574 306.587 136.741 306.857 136.854 307.17C136.974 307.477 137.031 307.813 137.024 308.18L137.014 308.62H132.724L132.494 307.8H136.124L135.974 307.97V307.73C135.954 307.51 135.881 307.313 135.754 307.14C135.628 306.967 135.468 306.83 135.274 306.73C135.081 306.63 134.871 306.58 134.644 306.58C134.284 306.58 133.981 306.65 133.734 306.79C133.488 306.923 133.301 307.123 133.174 307.39C133.048 307.65 132.984 307.973 132.984 308.36C132.984 308.727 133.061 309.047 133.214 309.32C133.368 309.587 133.584 309.793 133.864 309.94C134.144 310.087 134.468 310.16 134.834 310.16C135.094 310.16 135.334 310.117 135.554 310.03C135.781 309.943 136.024 309.787 136.284 309.56L136.804 310.29C136.644 310.45 136.448 310.59 136.214 310.71C135.988 310.83 135.744 310.927 135.484 311C135.231 311.067 134.981 311.1 134.734 311.1ZM141.207 311V304H143.947C144.447 304 144.897 304.083 145.297 304.25C145.703 304.417 146.05 304.657 146.337 304.97C146.623 305.283 146.843 305.653 146.997 306.08C147.15 306.507 147.227 306.98 147.227 307.5C147.227 308.02 147.15 308.497 146.997 308.93C146.843 309.357 146.623 309.727 146.337 310.04C146.057 310.347 145.713 310.583 145.307 310.75C144.9 310.917 144.447 311 143.947 311H141.207ZM142.287 310.07L142.257 309.96H143.897C144.25 309.96 144.563 309.903 144.837 309.79C145.117 309.677 145.35 309.517 145.537 309.31C145.73 309.097 145.877 308.837 145.977 308.53C146.077 308.223 146.127 307.88 146.127 307.5C146.127 307.12 146.077 306.78 145.977 306.48C145.877 306.173 145.73 305.913 145.537 305.7C145.343 305.487 145.11 305.323 144.837 305.21C144.563 305.097 144.25 305.04 143.897 305.04H142.227L142.287 304.95V310.07ZM150.447 311.1C150.014 311.1 149.617 310.98 149.257 310.74C148.904 310.5 148.62 310.173 148.407 309.76C148.194 309.347 148.087 308.88 148.087 308.36C148.087 307.833 148.194 307.367 148.407 306.96C148.627 306.547 148.92 306.223 149.287 305.99C149.66 305.757 150.077 305.64 150.537 305.64C150.81 305.64 151.06 305.68 151.287 305.76C151.514 305.84 151.71 305.953 151.877 306.1C152.05 306.24 152.19 306.403 152.297 306.59C152.41 306.777 152.48 306.977 152.507 307.19L152.277 307.11V305.75H153.317V311H152.277V309.75L152.517 309.68C152.477 309.86 152.394 310.037 152.267 310.21C152.147 310.377 151.99 310.527 151.797 310.66C151.61 310.793 151.4 310.9 151.167 310.98C150.94 311.06 150.7 311.1 150.447 311.1ZM150.717 310.15C151.03 310.15 151.307 310.073 151.547 309.92C151.787 309.767 151.974 309.557 152.107 309.29C152.247 309.017 152.317 308.707 152.317 308.36C152.317 308.02 152.247 307.717 152.107 307.45C151.974 307.183 151.787 306.973 151.547 306.82C151.307 306.667 151.03 306.59 150.717 306.59C150.41 306.59 150.137 306.667 149.897 306.82C149.664 306.973 149.477 307.183 149.337 307.45C149.204 307.717 149.137 308.02 149.137 308.36C149.137 308.707 149.204 309.017 149.337 309.29C149.477 309.557 149.664 309.767 149.897 309.92C150.137 310.073 150.41 310.15 150.717 310.15ZM155.405 311V304.41H156.435V311H155.405ZM154.315 306.75V305.75H157.655V306.75H154.315ZM160.994 311.1C160.454 311.1 159.974 310.987 159.554 310.76C159.141 310.527 158.814 310.21 158.574 309.81C158.341 309.41 158.224 308.95 158.224 308.43C158.224 308.017 158.291 307.64 158.424 307.3C158.558 306.96 158.741 306.667 158.974 306.42C159.214 306.167 159.498 305.973 159.824 305.84C160.158 305.7 160.518 305.63 160.904 305.63C161.244 305.63 161.561 305.697 161.854 305.83C162.148 305.957 162.401 306.133 162.614 306.36C162.834 306.587 163.001 306.857 163.114 307.17C163.234 307.477 163.291 307.813 163.284 308.18L163.274 308.62H158.984L158.754 307.8H162.384L162.234 307.97V307.73C162.214 307.51 162.141 307.313 162.014 307.14C161.888 306.967 161.728 306.83 161.534 306.73C161.341 306.63 161.131 306.58 160.904 306.58C160.544 306.58 160.241 306.65 159.994 306.79C159.748 306.923 159.561 307.123 159.434 307.39C159.308 307.65 159.244 307.973 159.244 308.36C159.244 308.727 159.321 309.047 159.474 309.32C159.628 309.587 159.844 309.793 160.124 309.94C160.404 310.087 160.728 310.16 161.094 310.16C161.354 310.16 161.594 310.117 161.814 310.03C162.041 309.943 162.284 309.787 162.544 309.56L163.064 310.29C162.904 310.45 162.708 310.59 162.474 310.71C162.248 310.83 162.004 310.927 161.744 311C161.491 311.067 161.241 311.1 160.994 311.1Z" fill="black"/>
<path d="M95.47 387L93.24 380H94.39L95.74 384.38C95.78 384.487 95.8167 384.613 95.85 384.76C95.8833 384.9 95.9133 385.043 95.94 385.19C95.9667 385.337 95.99 385.473 96.01 385.6C96.0367 385.727 96.06 385.83 96.08 385.91L95.79 385.9C95.89 385.547 95.9667 385.273 96.02 385.08C96.08 384.887 96.1267 384.74 96.16 384.64C96.1933 384.533 96.2233 384.443 96.25 384.37L97.51 381.21H98.48L99.7 384.37C99.7667 384.53 99.8233 384.69 99.87 384.85C99.9233 385.003 99.97 385.16 100.01 385.32C100.05 385.473 100.093 385.637 100.14 385.81L99.88 385.88C99.9133 385.7 99.9367 385.56 99.95 385.46C99.97 385.353 99.9867 385.267 100 385.2C100.013 385.133 100.027 385.07 100.04 385.01C100.053 384.943 100.073 384.86 100.1 384.76C100.133 384.66 100.177 384.523 100.23 384.35L101.56 380H102.72L100.49 387H99.74L97.89 382.62L97.98 382.66L96.2 387H95.47ZM105.447 387.1C105.014 387.1 104.617 386.98 104.257 386.74C103.904 386.5 103.62 386.173 103.407 385.76C103.194 385.347 103.087 384.88 103.087 384.36C103.087 383.833 103.194 383.367 103.407 382.96C103.627 382.547 103.92 382.223 104.287 381.99C104.66 381.757 105.077 381.64 105.537 381.64C105.81 381.64 106.06 381.68 106.287 381.76C106.514 381.84 106.71 381.953 106.877 382.1C107.05 382.24 107.19 382.403 107.297 382.59C107.41 382.777 107.48 382.977 107.507 383.19L107.277 383.11V381.75H108.317V387H107.277V385.75L107.517 385.68C107.477 385.86 107.394 386.037 107.267 386.21C107.147 386.377 106.99 386.527 106.797 386.66C106.61 386.793 106.4 386.9 106.167 386.98C105.94 387.06 105.7 387.1 105.447 387.1ZM105.717 386.15C106.03 386.15 106.307 386.073 106.547 385.92C106.787 385.767 106.974 385.557 107.107 385.29C107.247 385.017 107.317 384.707 107.317 384.36C107.317 384.02 107.247 383.717 107.107 383.45C106.974 383.183 106.787 382.973 106.547 382.82C106.307 382.667 106.03 382.59 105.717 382.59C105.41 382.59 105.137 382.667 104.897 382.82C104.664 382.973 104.477 383.183 104.337 383.45C104.204 383.717 104.137 384.02 104.137 384.36C104.137 384.707 104.204 385.017 104.337 385.29C104.477 385.557 104.664 385.767 104.897 385.92C105.137 386.073 105.41 386.15 105.717 386.15ZM109.755 387V381.75H110.795V383.4L110.695 383C110.768 382.747 110.892 382.517 111.065 382.31C111.245 382.103 111.448 381.94 111.675 381.82C111.908 381.7 112.148 381.64 112.395 381.64C112.508 381.64 112.615 381.65 112.715 381.67C112.822 381.69 112.905 381.713 112.965 381.74L112.695 382.86C112.615 382.827 112.525 382.8 112.425 382.78C112.332 382.753 112.238 382.74 112.145 382.74C111.965 382.74 111.792 382.777 111.625 382.85C111.465 382.917 111.322 383.013 111.195 383.14C111.075 383.26 110.978 383.403 110.905 383.57C110.832 383.73 110.795 383.907 110.795 384.1V387H109.755ZM113.788 387V381.75H114.828V383.4L114.728 383C114.802 382.747 114.925 382.517 115.098 382.31C115.278 382.103 115.482 381.94 115.708 381.82C115.942 381.7 116.182 381.64 116.428 381.64C116.542 381.64 116.648 381.65 116.748 381.67C116.855 381.69 116.938 381.713 116.998 381.74L116.728 382.86C116.648 382.827 116.558 382.8 116.458 382.78C116.365 382.753 116.272 382.74 116.178 382.74C115.998 382.74 115.825 382.777 115.658 382.85C115.498 382.917 115.355 383.013 115.228 383.14C115.108 383.26 115.012 383.403 114.938 383.57C114.865 383.73 114.828 383.907 114.828 384.1V387H113.788ZM119.617 387.1C119.184 387.1 118.787 386.98 118.427 386.74C118.074 386.5 117.79 386.173 117.577 385.76C117.364 385.347 117.257 384.88 117.257 384.36C117.257 383.833 117.364 383.367 117.577 382.96C117.797 382.547 118.09 382.223 118.457 381.99C118.83 381.757 119.247 381.64 119.707 381.64C119.98 381.64 120.23 381.68 120.457 381.76C120.684 381.84 120.88 381.953 121.047 382.1C121.22 382.24 121.36 382.403 121.467 382.59C121.58 382.777 121.65 382.977 121.677 383.19L121.447 383.11V381.75H122.487V387H121.447V385.75L121.687 385.68C121.647 385.86 121.564 386.037 121.437 386.21C121.317 386.377 121.16 386.527 120.967 386.66C120.78 386.793 120.57 386.9 120.337 386.98C120.11 387.06 119.87 387.1 119.617 387.1ZM119.887 386.15C120.2 386.15 120.477 386.073 120.717 385.92C120.957 385.767 121.144 385.557 121.277 385.29C121.417 385.017 121.487 384.707 121.487 384.36C121.487 384.02 121.417 383.717 121.277 383.45C121.144 383.183 120.957 382.973 120.717 382.82C120.477 382.667 120.2 382.59 119.887 382.59C119.58 382.59 119.307 382.667 119.067 382.82C118.834 382.973 118.647 383.183 118.507 383.45C118.374 383.717 118.307 384.02 118.307 384.36C118.307 384.707 118.374 385.017 118.507 385.29C118.647 385.557 118.834 385.767 119.067 385.92C119.307 386.073 119.58 386.15 119.887 386.15ZM123.925 387V381.75H124.955V382.83L124.775 382.95C124.842 382.717 124.972 382.503 125.165 382.31C125.358 382.11 125.588 381.95 125.855 381.83C126.122 381.703 126.395 381.64 126.675 381.64C127.075 381.64 127.408 381.72 127.675 381.88C127.942 382.033 128.142 382.27 128.275 382.59C128.408 382.91 128.475 383.313 128.475 383.8V387H127.445V383.87C127.445 383.57 127.405 383.323 127.325 383.13C127.245 382.93 127.122 382.787 126.955 382.7C126.788 382.607 126.582 382.567 126.335 382.58C126.135 382.58 125.952 382.613 125.785 382.68C125.618 382.74 125.472 382.827 125.345 382.94C125.225 383.053 125.128 383.187 125.055 383.34C124.988 383.487 124.955 383.647 124.955 383.82V387H124.445C124.358 387 124.272 387 124.185 387C124.098 387 124.012 387 123.925 387ZM130.522 387V380.41H131.552V387H130.522ZM129.432 382.75V381.75H132.772V382.75H129.432ZM134.59 389.3L135.65 386.85L135.66 387.67L133.04 381.75H134.24L135.88 385.61C135.914 385.677 135.954 385.78 136 385.92C136.047 386.053 136.087 386.187 136.12 386.32L135.86 386.38C135.914 386.24 135.964 386.1 136.01 385.96C136.064 385.82 136.114 385.68 136.16 385.54L137.53 381.75H138.75L136.59 387L135.7 389.3H134.59ZM142.584 387V380H146.994V381.04H143.664V385.96H146.994V387H142.584ZM143.074 383.93V382.89H146.444V383.93H143.074ZM151.956 387L150.256 384.79L150.106 384.6L147.896 381.75H149.196L150.866 383.93L151.036 384.15L153.216 387H151.956ZM147.906 387L149.976 384.3L150.586 385.03L149.126 387H147.906ZM151.096 384.46L150.526 383.74L151.816 381.75H153.036L151.096 384.46ZM154.081 389.2V381.75H155.121V382.95L154.961 382.86C155.001 382.66 155.115 382.47 155.301 382.29C155.488 382.103 155.715 381.953 155.981 381.84C156.255 381.72 156.535 381.66 156.821 381.66C157.295 381.66 157.715 381.777 158.081 382.01C158.448 382.243 158.738 382.563 158.951 382.97C159.165 383.377 159.271 383.843 159.271 384.37C159.271 384.89 159.165 385.357 158.951 385.77C158.745 386.177 158.458 386.5 158.091 386.74C157.725 386.973 157.311 387.09 156.851 387.09C156.545 387.09 156.248 387.03 155.961 386.91C155.675 386.783 155.431 386.623 155.231 386.43C155.031 386.237 154.908 386.037 154.861 385.83L155.121 385.69V389.2H154.081ZM156.681 386.14C156.988 386.14 157.261 386.063 157.501 385.91C157.741 385.757 157.931 385.547 158.071 385.28C158.211 385.013 158.281 384.71 158.281 384.37C158.281 384.03 158.211 383.73 158.071 383.47C157.938 383.203 157.751 382.993 157.511 382.84C157.271 382.687 156.995 382.61 156.681 382.61C156.368 382.61 156.091 382.687 155.851 382.84C155.611 382.987 155.421 383.193 155.281 383.46C155.141 383.727 155.071 384.03 155.071 384.37C155.071 384.71 155.141 385.013 155.281 385.28C155.421 385.547 155.611 385.757 155.851 385.91C156.091 386.063 156.368 386.14 156.681 386.14ZM160.56 387V381.75H161.59V387H160.56ZM161.06 380.59C160.84 380.59 160.67 380.533 160.55 380.42C160.43 380.307 160.37 380.147 160.37 379.94C160.37 379.747 160.43 379.59 160.55 379.47C160.677 379.35 160.847 379.29 161.06 379.29C161.28 379.29 161.45 379.347 161.57 379.46C161.69 379.573 161.75 379.733 161.75 379.94C161.75 380.133 161.687 380.29 161.56 380.41C161.44 380.53 161.273 380.59 161.06 380.59ZM163.173 387V381.75H164.213V383.4L164.113 383C164.186 382.747 164.31 382.517 164.483 382.31C164.663 382.103 164.866 381.94 165.093 381.82C165.326 381.7 165.566 381.64 165.813 381.64C165.926 381.64 166.033 381.65 166.133 381.67C166.24 381.69 166.323 381.713 166.383 381.74L166.113 382.86C166.033 382.827 165.943 382.8 165.843 382.78C165.75 382.753 165.656 382.74 165.563 382.74C165.383 382.74 165.21 382.777 165.043 382.85C164.883 382.917 164.74 383.013 164.613 383.14C164.493 383.26 164.396 383.403 164.323 383.57C164.25 383.73 164.213 383.907 164.213 384.1V387H163.173ZM168.086 389.3L169.146 386.85L169.156 387.67L166.536 381.75H167.736L169.376 385.61C169.41 385.677 169.45 385.78 169.496 385.92C169.543 386.053 169.583 386.187 169.616 386.32L169.356 386.38C169.41 386.24 169.46 386.1 169.506 385.96C169.56 385.82 169.61 385.68 169.656 385.54L171.026 381.75H172.246L170.086 387L169.196 389.3H168.086ZM176.08 387V380H178.82C179.32 380 179.77 380.083 180.17 380.25C180.576 380.417 180.923 380.657 181.21 380.97C181.496 381.283 181.716 381.653 181.87 382.08C182.023 382.507 182.1 382.98 182.1 383.5C182.1 384.02 182.023 384.497 181.87 384.93C181.716 385.357 181.496 385.727 181.21 386.04C180.93 386.347 180.586 386.583 180.18 386.75C179.773 386.917 179.32 387 178.82 387H176.08ZM177.16 386.07L177.13 385.96H178.77C179.123 385.96 179.436 385.903 179.71 385.79C179.99 385.677 180.223 385.517 180.41 385.31C180.603 385.097 180.75 384.837 180.85 384.53C180.95 384.223 181 383.88 181 383.5C181 383.12 180.95 382.78 180.85 382.48C180.75 382.173 180.603 381.913 180.41 381.7C180.216 381.487 179.983 381.323 179.71 381.21C179.436 381.097 179.123 381.04 178.77 381.04H177.1L177.16 380.95V386.07ZM185.32 387.1C184.887 387.1 184.49 386.98 184.13 386.74C183.777 386.5 183.493 386.173 183.28 385.76C183.067 385.347 182.96 384.88 182.96 384.36C182.96 383.833 183.067 383.367 183.28 382.96C183.5 382.547 183.793 382.223 184.16 381.99C184.533 381.757 184.95 381.64 185.41 381.64C185.683 381.64 185.933 381.68 186.16 381.76C186.387 381.84 186.583 381.953 186.75 382.1C186.923 382.24 187.063 382.403 187.17 382.59C187.283 382.777 187.353 382.977 187.38 383.19L187.15 383.11V381.75H188.19V387H187.15V385.75L187.39 385.68C187.35 385.86 187.267 386.037 187.14 386.21C187.02 386.377 186.863 386.527 186.67 386.66C186.483 386.793 186.273 386.9 186.04 386.98C185.813 387.06 185.573 387.1 185.32 387.1ZM185.59 386.15C185.903 386.15 186.18 386.073 186.42 385.92C186.66 385.767 186.847 385.557 186.98 385.29C187.12 385.017 187.19 384.707 187.19 384.36C187.19 384.02 187.12 383.717 186.98 383.45C186.847 383.183 186.66 382.973 186.42 382.82C186.18 382.667 185.903 382.59 185.59 382.59C185.283 382.59 185.01 382.667 184.77 382.82C184.537 382.973 184.35 383.183 184.21 383.45C184.077 383.717 184.01 384.02 184.01 384.36C184.01 384.707 184.077 385.017 184.21 385.29C184.35 385.557 184.537 385.767 184.77 385.92C185.01 386.073 185.283 386.15 185.59 386.15ZM190.278 387V380.41H191.308V387H190.278ZM189.188 382.75V381.75H192.528V382.75H189.188ZM195.867 387.1C195.327 387.1 194.847 386.987 194.427 386.76C194.014 386.527 193.687 386.21 193.447 385.81C193.214 385.41 193.097 384.95 193.097 384.43C193.097 384.017 193.164 383.64 193.297 383.3C193.431 382.96 193.614 382.667 193.847 382.42C194.087 382.167 194.371 381.973 194.697 381.84C195.031 381.7 195.391 381.63 195.777 381.63C196.117 381.63 196.434 381.697 196.727 381.83C197.021 381.957 197.274 382.133 197.487 382.36C197.707 382.587 197.874 382.857 197.987 383.17C198.107 383.477 198.164 383.813 198.157 384.18L198.147 384.62H193.857L193.627 383.8H197.257L197.107 383.97V383.73C197.087 383.51 197.014 383.313 196.887 383.14C196.761 382.967 196.601 382.83 196.407 382.73C196.214 382.63 196.004 382.58 195.777 382.58C195.417 382.58 195.114 382.65 194.867 382.79C194.621 382.923 194.434 383.123 194.307 383.39C194.181 383.65 194.117 383.973 194.117 384.36C194.117 384.727 194.194 385.047 194.347 385.32C194.501 385.587 194.717 385.793 194.997 385.94C195.277 386.087 195.601 386.16 195.967 386.16C196.227 386.16 196.467 386.117 196.687 386.03C196.914 385.943 197.157 385.787 197.417 385.56L197.937 386.29C197.777 386.45 197.581 386.59 197.347 386.71C197.121 386.83 196.877 386.927 196.617 387C196.364 387.067 196.114 387.1 195.867 387.1Z" fill="black"/>
<path d="M257.14 234.1C256.76 234.1 256.407 234.05 256.08 233.95C255.76 233.85 255.467 233.7 255.2 233.5C254.94 233.293 254.707 233.04 254.5 232.74L255.24 231.89C255.567 232.357 255.88 232.68 256.18 232.86C256.48 233.04 256.837 233.13 257.25 233.13C257.503 233.13 257.733 233.09 257.94 233.01C258.147 232.93 258.31 232.82 258.43 232.68C258.55 232.54 258.61 232.38 258.61 232.2C258.61 232.08 258.59 231.967 258.55 231.86C258.51 231.753 258.447 231.657 258.36 231.57C258.28 231.483 258.173 231.403 258.04 231.33C257.913 231.257 257.763 231.193 257.59 231.14C257.417 231.08 257.217 231.03 256.99 230.99C256.63 230.917 256.317 230.82 256.05 230.7C255.783 230.58 255.56 230.43 255.38 230.25C255.2 230.07 255.067 229.867 254.98 229.64C254.893 229.407 254.85 229.147 254.85 228.86C254.85 228.58 254.91 228.32 255.03 228.08C255.157 227.84 255.327 227.633 255.54 227.46C255.76 227.28 256.017 227.143 256.31 227.05C256.603 226.95 256.92 226.9 257.26 226.9C257.62 226.9 257.95 226.947 258.25 227.04C258.55 227.133 258.817 227.273 259.05 227.46C259.283 227.64 259.477 227.863 259.63 228.13L258.87 228.88C258.737 228.66 258.587 228.477 258.42 228.33C258.253 228.177 258.07 228.063 257.87 227.99C257.67 227.91 257.457 227.87 257.23 227.87C256.97 227.87 256.743 227.91 256.55 227.99C256.357 228.07 256.203 228.183 256.09 228.33C255.983 228.47 255.93 228.637 255.93 228.83C255.93 228.97 255.957 229.1 256.01 229.22C256.063 229.333 256.143 229.437 256.25 229.53C256.363 229.617 256.513 229.697 256.7 229.77C256.887 229.837 257.11 229.897 257.37 229.95C257.737 230.03 258.063 230.133 258.35 230.26C258.637 230.38 258.88 230.523 259.08 230.69C259.28 230.857 259.43 231.043 259.53 231.25C259.637 231.457 259.69 231.68 259.69 231.92C259.69 232.367 259.587 232.753 259.38 233.08C259.173 233.407 258.88 233.66 258.5 233.84C258.12 234.013 257.667 234.1 257.14 234.1ZM263.41 234.1C262.87 234.1 262.39 233.987 261.97 233.76C261.557 233.527 261.23 233.21 260.99 232.81C260.757 232.41 260.64 231.95 260.64 231.43C260.64 231.017 260.707 230.64 260.84 230.3C260.974 229.96 261.157 229.667 261.39 229.42C261.63 229.167 261.914 228.973 262.24 228.84C262.574 228.7 262.934 228.63 263.32 228.63C263.66 228.63 263.977 228.697 264.27 228.83C264.564 228.957 264.817 229.133 265.03 229.36C265.25 229.587 265.417 229.857 265.53 230.17C265.65 230.477 265.707 230.813 265.7 231.18L265.69 231.62H261.4L261.17 230.8H264.8L264.65 230.97V230.73C264.63 230.51 264.557 230.313 264.43 230.14C264.304 229.967 264.144 229.83 263.95 229.73C263.757 229.63 263.547 229.58 263.32 229.58C262.96 229.58 262.657 229.65 262.41 229.79C262.164 229.923 261.977 230.123 261.85 230.39C261.724 230.65 261.66 230.973 261.66 231.36C261.66 231.727 261.737 232.047 261.89 232.32C262.044 232.587 262.26 232.793 262.54 232.94C262.82 233.087 263.144 233.16 263.51 233.16C263.77 233.16 264.01 233.117 264.23 233.03C264.457 232.943 264.7 232.787 264.96 232.56L265.48 233.29C265.32 233.45 265.124 233.59 264.89 233.71C264.664 233.83 264.42 233.927 264.16 234C263.907 234.067 263.657 234.1 263.41 234.1ZM266.82 234V228.75H267.86V230.4L267.76 230C267.833 229.747 267.956 229.517 268.13 229.31C268.31 229.103 268.513 228.94 268.74 228.82C268.973 228.7 269.213 228.64 269.46 228.64C269.573 228.64 269.68 228.65 269.78 228.67C269.886 228.69 269.97 228.713 270.03 228.74L269.76 229.86C269.68 229.827 269.59 229.8 269.49 229.78C269.396 229.753 269.303 229.74 269.21 229.74C269.03 229.74 268.856 229.777 268.69 229.85C268.53 229.917 268.386 230.013 268.26 230.14C268.14 230.26 268.043 230.403 267.97 230.57C267.896 230.73 267.86 230.907 267.86 231.1V234H266.82ZM271.023 234V228.75H272.053V234H271.023ZM271.523 227.59C271.303 227.59 271.133 227.533 271.013 227.42C270.893 227.307 270.833 227.147 270.833 226.94C270.833 226.747 270.893 226.59 271.013 226.47C271.139 226.35 271.309 226.29 271.523 226.29C271.743 226.29 271.913 226.347 272.033 226.46C272.153 226.573 272.213 226.733 272.213 226.94C272.213 227.133 272.149 227.29 272.023 227.41C271.903 227.53 271.736 227.59 271.523 227.59ZM275.656 234.1C275.223 234.1 274.826 233.98 274.466 233.74C274.113 233.5 273.829 233.173 273.616 232.76C273.403 232.347 273.296 231.88 273.296 231.36C273.296 230.833 273.403 230.367 273.616 229.96C273.836 229.547 274.129 229.223 274.496 228.99C274.869 228.757 275.286 228.64 275.746 228.64C276.019 228.64 276.269 228.68 276.496 228.76C276.723 228.84 276.919 228.953 277.086 229.1C277.259 229.24 277.399 229.403 277.506 229.59C277.619 229.777 277.689 229.977 277.716 230.19L277.486 230.11V228.75H278.526V234H277.486V232.75L277.726 232.68C277.686 232.86 277.603 233.037 277.476 233.21C277.356 233.377 277.199 233.527 277.006 233.66C276.819 233.793 276.609 233.9 276.376 233.98C276.149 234.06 275.909 234.1 275.656 234.1ZM275.926 233.15C276.239 233.15 276.516 233.073 276.756 232.92C276.996 232.767 277.183 232.557 277.316 232.29C277.456 232.017 277.526 231.707 277.526 231.36C277.526 231.02 277.456 230.717 277.316 230.45C277.183 230.183 276.996 229.973 276.756 229.82C276.516 229.667 276.239 229.59 275.926 229.59C275.619 229.59 275.346 229.667 275.106 229.82C274.873 229.973 274.686 230.183 274.546 230.45C274.413 230.717 274.346 231.02 274.346 231.36C274.346 231.707 274.413 232.017 274.546 232.29C274.686 232.557 274.873 232.767 275.106 232.92C275.346 233.073 275.619 233.15 275.926 233.15ZM279.984 234V226.6H281.014V234H279.984ZM285.537 234V227H286.507L290.787 232.73L290.627 232.82C290.6 232.653 290.577 232.473 290.557 232.28C290.537 232.08 290.517 231.87 290.497 231.65C290.483 231.423 290.47 231.187 290.457 230.94C290.45 230.687 290.443 230.423 290.437 230.15C290.43 229.877 290.427 229.593 290.427 229.3V227H291.507V234H290.517L286.307 228.48L286.417 228.34C286.45 228.747 286.477 229.093 286.497 229.38C286.523 229.66 286.543 229.9 286.557 230.1C286.577 230.293 286.59 230.453 286.597 230.58C286.603 230.7 286.607 230.8 286.607 230.88C286.613 230.96 286.617 231.03 286.617 231.09V234H285.537ZM295.046 234.1C294.673 234.1 294.346 234.013 294.066 233.84C293.793 233.667 293.58 233.423 293.426 233.11C293.28 232.797 293.206 232.423 293.206 231.99V228.75H294.236V231.71C294.236 232.017 294.283 232.283 294.376 232.51C294.476 232.73 294.616 232.9 294.796 233.02C294.983 233.14 295.206 233.2 295.466 233.2C295.66 233.2 295.836 233.17 295.996 233.11C296.156 233.043 296.293 232.953 296.406 232.84C296.526 232.727 296.62 232.59 296.686 232.43C296.753 232.27 296.786 232.097 296.786 231.91V228.75H297.816V234H296.786V232.9L296.966 232.78C296.886 233.027 296.75 233.25 296.556 233.45C296.37 233.65 296.146 233.81 295.886 233.93C295.626 234.043 295.346 234.1 295.046 234.1ZM299.241 234V228.75H300.281V229.87L300.091 229.99C300.144 229.817 300.228 229.65 300.341 229.49C300.461 229.33 300.604 229.19 300.771 229.07C300.944 228.943 301.128 228.843 301.321 228.77C301.521 228.697 301.724 228.66 301.931 228.66C302.231 228.66 302.494 228.71 302.721 228.81C302.948 228.91 303.134 229.06 303.281 229.26C303.428 229.46 303.534 229.71 303.601 230.01L303.441 229.97L303.511 229.8C303.584 229.647 303.684 229.503 303.811 229.37C303.944 229.23 304.094 229.107 304.261 229C304.428 228.893 304.604 228.81 304.791 228.75C304.978 228.69 305.161 228.66 305.341 228.66C305.734 228.66 306.058 228.74 306.311 228.9C306.571 229.06 306.764 229.303 306.891 229.63C307.024 229.957 307.091 230.363 307.091 230.85V234H306.051V230.91C306.051 230.61 306.011 230.367 305.931 230.18C305.858 229.987 305.744 229.843 305.591 229.75C305.438 229.657 305.241 229.61 305.001 229.61C304.814 229.61 304.638 229.643 304.471 229.71C304.311 229.77 304.171 229.857 304.051 229.97C303.931 230.083 303.838 230.217 303.771 230.37C303.704 230.517 303.671 230.68 303.671 230.86V234H302.631V230.89C302.631 230.617 302.591 230.387 302.511 230.2C302.431 230.007 302.314 229.86 302.161 229.76C302.008 229.66 301.821 229.61 301.601 229.61C301.414 229.61 301.241 229.643 301.081 229.71C300.921 229.77 300.781 229.857 300.661 229.97C300.541 230.077 300.448 230.207 300.381 230.36C300.314 230.507 300.281 230.667 300.281 230.84V234H299.241ZM311.23 234.1C311.003 234.1 310.777 234.063 310.55 233.99C310.33 233.917 310.127 233.82 309.94 233.7C309.76 233.573 309.607 233.437 309.48 233.29C309.36 233.137 309.28 232.983 309.24 232.83L309.5 232.69V233.97H308.47V226.6H309.5V229.95L309.34 229.86C309.373 229.707 309.447 229.56 309.56 229.42C309.673 229.273 309.817 229.143 309.99 229.03C310.17 228.91 310.363 228.817 310.57 228.75C310.777 228.677 310.987 228.64 311.2 228.64C311.673 228.64 312.093 228.757 312.46 228.99C312.827 229.223 313.117 229.547 313.33 229.96C313.543 230.367 313.65 230.833 313.65 231.36C313.65 231.887 313.543 232.357 313.33 232.77C313.123 233.183 312.837 233.51 312.47 233.75C312.103 233.983 311.69 234.1 311.23 234.1ZM311.06 233.16C311.367 233.16 311.64 233.083 311.88 232.93C312.12 232.77 312.31 232.557 312.45 232.29C312.59 232.017 312.66 231.707 312.66 231.36C312.66 231.02 312.59 230.717 312.45 230.45C312.317 230.177 312.13 229.963 311.89 229.81C311.65 229.657 311.373 229.58 311.06 229.58C310.747 229.58 310.47 229.657 310.23 229.81C309.99 229.963 309.8 230.177 309.66 230.45C309.52 230.717 309.45 231.02 309.45 231.36C309.45 231.707 309.52 232.017 309.66 232.29C309.8 232.557 309.99 232.77 310.23 232.93C310.47 233.083 310.747 233.16 311.06 233.16ZM317.219 234.1C316.679 234.1 316.199 233.987 315.779 233.76C315.365 233.527 315.039 233.21 314.799 232.81C314.565 232.41 314.449 231.95 314.449 231.43C314.449 231.017 314.515 230.64 314.649 230.3C314.782 229.96 314.965 229.667 315.199 229.42C315.439 229.167 315.722 228.973 316.049 228.84C316.382 228.7 316.742 228.63 317.129 228.63C317.469 228.63 317.785 228.697 318.079 228.83C318.372 228.957 318.625 229.133 318.839 229.36C319.059 229.587 319.225 229.857 319.339 230.17C319.459 230.477 319.515 230.813 319.509 231.18L319.499 231.62H315.209L314.979 230.8H318.609L318.459 230.97V230.73C318.439 230.51 318.365 230.313 318.239 230.14C318.112 229.967 317.952 229.83 317.759 229.73C317.565 229.63 317.355 229.58 317.129 229.58C316.769 229.58 316.465 229.65 316.219 229.79C315.972 229.923 315.785 230.123 315.659 230.39C315.532 230.65 315.469 230.973 315.469 231.36C315.469 231.727 315.545 232.047 315.699 232.32C315.852 232.587 316.069 232.793 316.349 232.94C316.629 233.087 316.952 233.16 317.319 233.16C317.579 233.16 317.819 233.117 318.039 233.03C318.265 232.943 318.509 232.787 318.769 232.56L319.289 233.29C319.129 233.45 318.932 233.59 318.699 233.71C318.472 233.83 318.229 233.927 317.969 234C317.715 234.067 317.465 234.1 317.219 234.1ZM320.628 234V228.75H321.668V230.4L321.568 230C321.642 229.747 321.765 229.517 321.938 229.31C322.118 229.103 322.322 228.94 322.548 228.82C322.782 228.7 323.022 228.64 323.268 228.64C323.382 228.64 323.488 228.65 323.588 228.67C323.695 228.69 323.778 228.713 323.838 228.74L323.568 229.86C323.488 229.827 323.398 229.8 323.298 229.78C323.205 229.753 323.112 229.74 323.018 229.74C322.838 229.74 322.665 229.777 322.498 229.85C322.338 229.917 322.195 230.013 322.068 230.14C321.948 230.26 321.852 230.403 321.778 230.57C321.705 230.73 321.668 230.907 321.668 231.1V234H320.628Z" fill="#3B3B3B"/>
<path d="M257.14 311.1C256.76 311.1 256.407 311.05 256.08 310.95C255.76 310.85 255.467 310.7 255.2 310.5C254.94 310.293 254.707 310.04 254.5 309.74L255.24 308.89C255.567 309.357 255.88 309.68 256.18 309.86C256.48 310.04 256.837 310.13 257.25 310.13C257.503 310.13 257.733 310.09 257.94 310.01C258.147 309.93 258.31 309.82 258.43 309.68C258.55 309.54 258.61 309.38 258.61 309.2C258.61 309.08 258.59 308.967 258.55 308.86C258.51 308.753 258.447 308.657 258.36 308.57C258.28 308.483 258.173 308.403 258.04 308.33C257.913 308.257 257.763 308.193 257.59 308.14C257.417 308.08 257.217 308.03 256.99 307.99C256.63 307.917 256.317 307.82 256.05 307.7C255.783 307.58 255.56 307.43 255.38 307.25C255.2 307.07 255.067 306.867 254.98 306.64C254.893 306.407 254.85 306.147 254.85 305.86C254.85 305.58 254.91 305.32 255.03 305.08C255.157 304.84 255.327 304.633 255.54 304.46C255.76 304.28 256.017 304.143 256.31 304.05C256.603 303.95 256.92 303.9 257.26 303.9C257.62 303.9 257.95 303.947 258.25 304.04C258.55 304.133 258.817 304.273 259.05 304.46C259.283 304.64 259.477 304.863 259.63 305.13L258.87 305.88C258.737 305.66 258.587 305.477 258.42 305.33C258.253 305.177 258.07 305.063 257.87 304.99C257.67 304.91 257.457 304.87 257.23 304.87C256.97 304.87 256.743 304.91 256.55 304.99C256.357 305.07 256.203 305.183 256.09 305.33C255.983 305.47 255.93 305.637 255.93 305.83C255.93 305.97 255.957 306.1 256.01 306.22C256.063 306.333 256.143 306.437 256.25 306.53C256.363 306.617 256.513 306.697 256.7 306.77C256.887 306.837 257.11 306.897 257.37 306.95C257.737 307.03 258.063 307.133 258.35 307.26C258.637 307.38 258.88 307.523 259.08 307.69C259.28 307.857 259.43 308.043 259.53 308.25C259.637 308.457 259.69 308.68 259.69 308.92C259.69 309.367 259.587 309.753 259.38 310.08C259.173 310.407 258.88 310.66 258.5 310.84C258.12 311.013 257.667 311.1 257.14 311.1ZM263.41 311.1C262.87 311.1 262.39 310.987 261.97 310.76C261.557 310.527 261.23 310.21 260.99 309.81C260.757 309.41 260.64 308.95 260.64 308.43C260.64 308.017 260.707 307.64 260.84 307.3C260.974 306.96 261.157 306.667 261.39 306.42C261.63 306.167 261.914 305.973 262.24 305.84C262.574 305.7 262.934 305.63 263.32 305.63C263.66 305.63 263.977 305.697 264.27 305.83C264.564 305.957 264.817 306.133 265.03 306.36C265.25 306.587 265.417 306.857 265.53 307.17C265.65 307.477 265.707 307.813 265.7 308.18L265.69 308.62H261.4L261.17 307.8H264.8L264.65 307.97V307.73C264.63 307.51 264.557 307.313 264.43 307.14C264.304 306.967 264.144 306.83 263.95 306.73C263.757 306.63 263.547 306.58 263.32 306.58C262.96 306.58 262.657 306.65 262.41 306.79C262.164 306.923 261.977 307.123 261.85 307.39C261.724 307.65 261.66 307.973 261.66 308.36C261.66 308.727 261.737 309.047 261.89 309.32C262.044 309.587 262.26 309.793 262.54 309.94C262.82 310.087 263.144 310.16 263.51 310.16C263.77 310.16 264.01 310.117 264.23 310.03C264.457 309.943 264.7 309.787 264.96 309.56L265.48 310.29C265.32 310.45 265.124 310.59 264.89 310.71C264.664 310.83 264.42 310.927 264.16 311C263.907 311.067 263.657 311.1 263.41 311.1ZM266.82 311V305.75H267.86V307.4L267.76 307C267.833 306.747 267.956 306.517 268.13 306.31C268.31 306.103 268.513 305.94 268.74 305.82C268.973 305.7 269.213 305.64 269.46 305.64C269.573 305.64 269.68 305.65 269.78 305.67C269.886 305.69 269.97 305.713 270.03 305.74L269.76 306.86C269.68 306.827 269.59 306.8 269.49 306.78C269.396 306.753 269.303 306.74 269.21 306.74C269.03 306.74 268.856 306.777 268.69 306.85C268.53 306.917 268.386 307.013 268.26 307.14C268.14 307.26 268.043 307.403 267.97 307.57C267.896 307.73 267.86 307.907 267.86 308.1V311H266.82ZM273.071 311L270.851 305.75H271.961L273.561 309.68L273.371 309.77L275.081 305.75H276.141L273.811 311H273.071ZM277.253 311V305.75H278.283V311H277.253ZM277.753 304.59C277.533 304.59 277.363 304.533 277.243 304.42C277.123 304.307 277.063 304.147 277.063 303.94C277.063 303.747 277.123 303.59 277.243 303.47C277.37 303.35 277.54 303.29 277.753 303.29C277.973 303.29 278.143 303.347 278.263 303.46C278.383 303.573 278.443 303.733 278.443 303.94C278.443 304.133 278.38 304.29 278.253 304.41C278.133 304.53 277.967 304.59 277.753 304.59ZM282.096 311.1C281.61 311.1 281.173 310.98 280.786 310.74C280.406 310.5 280.103 310.173 279.876 309.76C279.656 309.347 279.546 308.883 279.546 308.37C279.546 307.857 279.656 307.393 279.876 306.98C280.103 306.567 280.406 306.24 280.786 306C281.173 305.76 281.61 305.64 282.096 305.64C282.563 305.64 282.986 305.737 283.366 305.93C283.753 306.117 284.046 306.373 284.246 306.7L283.676 307.4C283.57 307.247 283.433 307.107 283.266 306.98C283.1 306.853 282.923 306.753 282.736 306.68C282.55 306.607 282.37 306.57 282.196 306.57C281.876 306.57 281.59 306.65 281.336 306.81C281.09 306.963 280.893 307.177 280.746 307.45C280.6 307.723 280.526 308.03 280.526 308.37C280.526 308.71 280.603 309.017 280.756 309.29C280.91 309.557 281.113 309.77 281.366 309.93C281.62 310.09 281.9 310.17 282.206 310.17C282.386 310.17 282.56 310.14 282.726 310.08C282.9 310.02 283.066 309.93 283.226 309.81C283.386 309.69 283.536 309.543 283.676 309.37L284.246 310.07C284.033 310.37 283.726 310.617 283.326 310.81C282.933 311.003 282.523 311.1 282.096 311.1ZM287.668 311.1C287.128 311.1 286.648 310.987 286.228 310.76C285.815 310.527 285.488 310.21 285.248 309.81C285.015 309.41 284.898 308.95 284.898 308.43C284.898 308.017 284.965 307.64 285.098 307.3C285.231 306.96 285.415 306.667 285.648 306.42C285.888 306.167 286.171 305.973 286.498 305.84C286.831 305.7 287.191 305.63 287.578 305.63C287.918 305.63 288.235 305.697 288.528 305.83C288.821 305.957 289.075 306.133 289.288 306.36C289.508 306.587 289.675 306.857 289.788 307.17C289.908 307.477 289.965 307.813 289.958 308.18L289.948 308.62H285.658L285.428 307.8H289.058L288.908 307.97V307.73C288.888 307.51 288.815 307.313 288.688 307.14C288.561 306.967 288.401 306.83 288.208 306.73C288.015 306.63 287.805 306.58 287.578 306.58C287.218 306.58 286.915 306.65 286.668 306.79C286.421 306.923 286.235 307.123 286.108 307.39C285.981 307.65 285.918 307.973 285.918 308.36C285.918 308.727 285.995 309.047 286.148 309.32C286.301 309.587 286.518 309.793 286.798 309.94C287.078 310.087 287.401 310.16 287.768 310.16C288.028 310.16 288.268 310.117 288.488 310.03C288.715 309.943 288.958 309.787 289.218 309.56L289.738 310.29C289.578 310.45 289.381 310.59 289.148 310.71C288.921 310.83 288.678 310.927 288.418 311C288.165 311.067 287.915 311.1 287.668 311.1ZM294.14 311V304H296.88C297.38 304 297.83 304.083 298.23 304.25C298.637 304.417 298.983 304.657 299.27 304.97C299.557 305.283 299.777 305.653 299.93 306.08C300.083 306.507 300.16 306.98 300.16 307.5C300.16 308.02 300.083 308.497 299.93 308.93C299.777 309.357 299.557 309.727 299.27 310.04C298.99 310.347 298.647 310.583 298.24 310.75C297.833 310.917 297.38 311 296.88 311H294.14ZM295.22 310.07L295.19 309.96H296.83C297.183 309.96 297.497 309.903 297.77 309.79C298.05 309.677 298.283 309.517 298.47 309.31C298.663 309.097 298.81 308.837 298.91 308.53C299.01 308.223 299.06 307.88 299.06 307.5C299.06 307.12 299.01 306.78 298.91 306.48C298.81 306.173 298.663 305.913 298.47 305.7C298.277 305.487 298.043 305.323 297.77 305.21C297.497 305.097 297.183 305.04 296.83 305.04H295.16L295.22 304.95V310.07ZM303.381 311.1C302.947 311.1 302.551 310.98 302.191 310.74C301.837 310.5 301.554 310.173 301.341 309.76C301.127 309.347 301.021 308.88 301.021 308.36C301.021 307.833 301.127 307.367 301.341 306.96C301.561 306.547 301.854 306.223 302.221 305.99C302.594 305.757 303.011 305.64 303.471 305.64C303.744 305.64 303.994 305.68 304.221 305.76C304.447 305.84 304.644 305.953 304.811 306.1C304.984 306.24 305.124 306.403 305.231 306.59C305.344 306.777 305.414 306.977 305.441 307.19L305.211 307.11V305.75H306.251V311H305.211V309.75L305.451 309.68C305.411 309.86 305.327 310.037 305.201 310.21C305.081 310.377 304.924 310.527 304.731 310.66C304.544 310.793 304.334 310.9 304.101 310.98C303.874 311.06 303.634 311.1 303.381 311.1ZM303.651 310.15C303.964 310.15 304.241 310.073 304.481 309.92C304.721 309.767 304.907 309.557 305.041 309.29C305.181 309.017 305.251 308.707 305.251 308.36C305.251 308.02 305.181 307.717 305.041 307.45C304.907 307.183 304.721 306.973 304.481 306.82C304.241 306.667 303.964 306.59 303.651 306.59C303.344 306.59 303.071 306.667 302.831 306.82C302.597 306.973 302.411 307.183 302.271 307.45C302.137 307.717 302.071 308.02 302.071 308.36C302.071 308.707 302.137 309.017 302.271 309.29C302.411 309.557 302.597 309.767 302.831 309.92C303.071 310.073 303.344 310.15 303.651 310.15ZM308.339 311V304.41H309.369V311H308.339ZM307.249 306.75V305.75H310.589V306.75H307.249ZM313.928 311.1C313.388 311.1 312.908 310.987 312.488 310.76C312.074 310.527 311.748 310.21 311.508 309.81C311.274 309.41 311.158 308.95 311.158 308.43C311.158 308.017 311.224 307.64 311.358 307.3C311.491 306.96 311.674 306.667 311.908 306.42C312.148 306.167 312.431 305.973 312.758 305.84C313.091 305.7 313.451 305.63 313.838 305.63C314.178 305.63 314.494 305.697 314.788 305.83C315.081 305.957 315.334 306.133 315.548 306.36C315.768 306.587 315.934 306.857 316.048 307.17C316.168 307.477 316.224 307.813 316.218 308.18L316.208 308.62H311.918L311.688 307.8H315.318L315.168 307.97V307.73C315.148 307.51 315.074 307.313 314.948 307.14C314.821 306.967 314.661 306.83 314.468 306.73C314.274 306.63 314.064 306.58 313.838 306.58C313.478 306.58 313.174 306.65 312.928 306.79C312.681 306.923 312.494 307.123 312.368 307.39C312.241 307.65 312.178 307.973 312.178 308.36C312.178 308.727 312.254 309.047 312.408 309.32C312.561 309.587 312.778 309.793 313.058 309.94C313.338 310.087 313.661 310.16 314.028 310.16C314.288 310.16 314.528 310.117 314.748 310.03C314.974 309.943 315.218 309.787 315.478 309.56L315.998 310.29C315.838 310.45 315.641 310.59 315.408 310.71C315.181 310.83 314.938 310.927 314.678 311C314.424 311.067 314.174 311.1 313.928 311.1Z" fill="black"/>
<path d="M256.47 387L254.24 380H255.39L256.74 384.38C256.78 384.487 256.817 384.613 256.85 384.76C256.883 384.9 256.913 385.043 256.94 385.19C256.967 385.337 256.99 385.473 257.01 385.6C257.037 385.727 257.06 385.83 257.08 385.91L256.79 385.9C256.89 385.547 256.967 385.273 257.02 385.08C257.08 384.887 257.127 384.74 257.16 384.64C257.193 384.533 257.223 384.443 257.25 384.37L258.51 381.21H259.48L260.7 384.37C260.767 384.53 260.823 384.69 260.87 384.85C260.923 385.003 260.97 385.16 261.01 385.32C261.05 385.473 261.093 385.637 261.14 385.81L260.88 385.88C260.913 385.7 260.937 385.56 260.95 385.46C260.97 385.353 260.987 385.267 261 385.2C261.013 385.133 261.027 385.07 261.04 385.01C261.053 384.943 261.073 384.86 261.1 384.76C261.133 384.66 261.177 384.523 261.23 384.35L262.56 380H263.72L261.49 387H260.74L258.89 382.62L258.98 382.66L257.2 387H256.47ZM266.447 387.1C266.014 387.1 265.617 386.98 265.257 386.74C264.904 386.5 264.62 386.173 264.407 385.76C264.194 385.347 264.087 384.88 264.087 384.36C264.087 383.833 264.194 383.367 264.407 382.96C264.627 382.547 264.92 382.223 265.287 381.99C265.66 381.757 266.077 381.64 266.537 381.64C266.81 381.64 267.06 381.68 267.287 381.76C267.514 381.84 267.71 381.953 267.877 382.1C268.05 382.24 268.19 382.403 268.297 382.59C268.41 382.777 268.48 382.977 268.507 383.19L268.277 383.11V381.75H269.317V387H268.277V385.75L268.517 385.68C268.477 385.86 268.394 386.037 268.267 386.21C268.147 386.377 267.99 386.527 267.797 386.66C267.61 386.793 267.4 386.9 267.167 386.98C266.94 387.06 266.7 387.1 266.447 387.1ZM266.717 386.15C267.03 386.15 267.307 386.073 267.547 385.92C267.787 385.767 267.974 385.557 268.107 385.29C268.247 385.017 268.317 384.707 268.317 384.36C268.317 384.02 268.247 383.717 268.107 383.45C267.974 383.183 267.787 382.973 267.547 382.82C267.307 382.667 267.03 382.59 266.717 382.59C266.41 382.59 266.137 382.667 265.897 382.82C265.664 382.973 265.477 383.183 265.337 383.45C265.204 383.717 265.137 384.02 265.137 384.36C265.137 384.707 265.204 385.017 265.337 385.29C265.477 385.557 265.664 385.767 265.897 385.92C266.137 386.073 266.41 386.15 266.717 386.15ZM270.755 387V381.75H271.795V383.4L271.695 383C271.768 382.747 271.892 382.517 272.065 382.31C272.245 382.103 272.448 381.94 272.675 381.82C272.908 381.7 273.148 381.64 273.395 381.64C273.508 381.64 273.615 381.65 273.715 381.67C273.822 381.69 273.905 381.713 273.965 381.74L273.695 382.86C273.615 382.827 273.525 382.8 273.425 382.78C273.332 382.753 273.238 382.74 273.145 382.74C272.965 382.74 272.792 382.777 272.625 382.85C272.465 382.917 272.322 383.013 272.195 383.14C272.075 383.26 271.978 383.403 271.905 383.57C271.832 383.73 271.795 383.907 271.795 384.1V387H270.755ZM274.788 387V381.75H275.828V383.4L275.728 383C275.802 382.747 275.925 382.517 276.098 382.31C276.278 382.103 276.482 381.94 276.708 381.82C276.942 381.7 277.182 381.64 277.428 381.64C277.542 381.64 277.648 381.65 277.748 381.67C277.855 381.69 277.938 381.713 277.998 381.74L277.728 382.86C277.648 382.827 277.558 382.8 277.458 382.78C277.365 382.753 277.272 382.74 277.178 382.74C276.998 382.74 276.825 382.777 276.658 382.85C276.498 382.917 276.355 383.013 276.228 383.14C276.108 383.26 276.012 383.403 275.938 383.57C275.865 383.73 275.828 383.907 275.828 384.1V387H274.788ZM280.617 387.1C280.184 387.1 279.787 386.98 279.427 386.74C279.074 386.5 278.79 386.173 278.577 385.76C278.364 385.347 278.257 384.88 278.257 384.36C278.257 383.833 278.364 383.367 278.577 382.96C278.797 382.547 279.09 382.223 279.457 381.99C279.83 381.757 280.247 381.64 280.707 381.64C280.98 381.64 281.23 381.68 281.457 381.76C281.684 381.84 281.88 381.953 282.047 382.1C282.22 382.24 282.36 382.403 282.467 382.59C282.58 382.777 282.65 382.977 282.677 383.19L282.447 383.11V381.75H283.487V387H282.447V385.75L282.687 385.68C282.647 385.86 282.564 386.037 282.437 386.21C282.317 386.377 282.16 386.527 281.967 386.66C281.78 386.793 281.57 386.9 281.337 386.98C281.11 387.06 280.87 387.1 280.617 387.1ZM280.887 386.15C281.2 386.15 281.477 386.073 281.717 385.92C281.957 385.767 282.144 385.557 282.277 385.29C282.417 385.017 282.487 384.707 282.487 384.36C282.487 384.02 282.417 383.717 282.277 383.45C282.144 383.183 281.957 382.973 281.717 382.82C281.477 382.667 281.2 382.59 280.887 382.59C280.58 382.59 280.307 382.667 280.067 382.82C279.834 382.973 279.647 383.183 279.507 383.45C279.374 383.717 279.307 384.02 279.307 384.36C279.307 384.707 279.374 385.017 279.507 385.29C279.647 385.557 279.834 385.767 280.067 385.92C280.307 386.073 280.58 386.15 280.887 386.15ZM284.925 387V381.75H285.955V382.83L285.775 382.95C285.842 382.717 285.972 382.503 286.165 382.31C286.358 382.11 286.588 381.95 286.855 381.83C287.122 381.703 287.395 381.64 287.675 381.64C288.075 381.64 288.408 381.72 288.675 381.88C288.942 382.033 289.142 382.27 289.275 382.59C289.408 382.91 289.475 383.313 289.475 383.8V387H288.445V383.87C288.445 383.57 288.405 383.323 288.325 383.13C288.245 382.93 288.122 382.787 287.955 382.7C287.788 382.607 287.582 382.567 287.335 382.58C287.135 382.58 286.952 382.613 286.785 382.68C286.618 382.74 286.472 382.827 286.345 382.94C286.225 383.053 286.128 383.187 286.055 383.34C285.988 383.487 285.955 383.647 285.955 383.82V387H285.445C285.358 387 285.272 387 285.185 387C285.098 387 285.012 387 284.925 387ZM291.522 387V380.41H292.552V387H291.522ZM290.432 382.75V381.75H293.772V382.75H290.432ZM295.59 389.3L296.65 386.85L296.66 387.67L294.04 381.75H295.24L296.88 385.61C296.914 385.677 296.954 385.78 297 385.92C297.047 386.053 297.087 386.187 297.12 386.32L296.86 386.38C296.914 386.24 296.964 386.1 297.01 385.96C297.064 385.82 297.114 385.68 297.16 385.54L298.53 381.75H299.75L297.59 387L296.7 389.3H295.59ZM303.584 387V380H306.434C306.814 380 307.157 380.097 307.464 380.29C307.777 380.477 308.027 380.733 308.214 381.06C308.4 381.387 308.494 381.75 308.494 382.15C308.494 382.55 308.4 382.913 308.214 383.24C308.027 383.567 307.777 383.83 307.464 384.03C307.157 384.223 306.814 384.32 306.434 384.32H304.664V387H303.584ZM304.664 383.28H306.414C306.594 383.28 306.757 383.23 306.904 383.13C307.05 383.023 307.167 382.887 307.254 382.72C307.347 382.547 307.394 382.357 307.394 382.15C307.394 381.943 307.347 381.757 307.254 381.59C307.167 381.423 307.05 381.29 306.904 381.19C306.757 381.09 306.594 381.04 306.414 381.04H304.664V383.28ZM312.014 387.1C311.474 387.1 310.994 386.987 310.574 386.76C310.16 386.527 309.834 386.21 309.594 385.81C309.36 385.41 309.244 384.95 309.244 384.43C309.244 384.017 309.31 383.64 309.444 383.3C309.577 382.96 309.76 382.667 309.994 382.42C310.234 382.167 310.517 381.973 310.844 381.84C311.177 381.7 311.537 381.63 311.924 381.63C312.264 381.63 312.58 381.697 312.874 381.83C313.167 381.957 313.42 382.133 313.634 382.36C313.854 382.587 314.02 382.857 314.134 383.17C314.254 383.477 314.31 383.813 314.304 384.18L314.294 384.62H310.004L309.774 383.8H313.404L313.254 383.97V383.73C313.234 383.51 313.16 383.313 313.034 383.14C312.907 382.967 312.747 382.83 312.554 382.73C312.36 382.63 312.15 382.58 311.924 382.58C311.564 382.58 311.26 382.65 311.014 382.79C310.767 382.923 310.58 383.123 310.454 383.39C310.327 383.65 310.264 383.973 310.264 384.36C310.264 384.727 310.34 385.047 310.494 385.32C310.647 385.587 310.864 385.793 311.144 385.94C311.424 386.087 311.747 386.16 312.114 386.16C312.374 386.16 312.614 386.117 312.834 386.03C313.06 385.943 313.304 385.787 313.564 385.56L314.084 386.29C313.924 386.45 313.727 386.59 313.494 386.71C313.267 386.83 313.024 386.927 312.764 387C312.51 387.067 312.26 387.1 312.014 387.1ZM315.423 387V381.75H316.463V383.4L316.363 383C316.436 382.747 316.56 382.517 316.733 382.31C316.913 382.103 317.116 381.94 317.343 381.82C317.576 381.7 317.816 381.64 318.063 381.64C318.176 381.64 318.283 381.65 318.383 381.67C318.49 381.69 318.573 381.713 318.633 381.74L318.363 382.86C318.283 382.827 318.193 382.8 318.093 382.78C318 382.753 317.906 382.74 317.813 382.74C317.633 382.74 317.46 382.777 317.293 382.85C317.133 382.917 316.99 383.013 316.863 383.14C316.743 383.26 316.646 383.403 316.573 383.57C316.5 383.73 316.463 383.907 316.463 384.1V387H315.423ZM319.626 387V381.75H320.656V387H319.626ZM320.126 380.59C319.906 380.59 319.736 380.533 319.616 380.42C319.496 380.307 319.436 380.147 319.436 379.94C319.436 379.747 319.496 379.59 319.616 379.47C319.743 379.35 319.913 379.29 320.126 379.29C320.346 379.29 320.516 379.347 320.636 379.46C320.756 379.573 320.816 379.733 320.816 379.94C320.816 380.133 320.753 380.29 320.626 380.41C320.506 380.53 320.34 380.59 320.126 380.59ZM324.6 387.1C324.086 387.1 323.626 386.983 323.22 386.75C322.82 386.51 322.503 386.187 322.27 385.78C322.036 385.367 321.92 384.897 321.92 384.37C321.92 383.843 322.036 383.377 322.27 382.97C322.503 382.557 322.82 382.233 323.22 382C323.626 381.76 324.086 381.64 324.6 381.64C325.106 381.64 325.56 381.76 325.96 382C326.366 382.233 326.686 382.557 326.92 382.97C327.153 383.377 327.27 383.843 327.27 384.37C327.27 384.897 327.153 385.367 326.92 385.78C326.686 386.187 326.366 386.51 325.96 386.75C325.56 386.983 325.106 387.1 324.6 387.1ZM324.6 386.16C324.913 386.16 325.193 386.083 325.44 385.93C325.686 385.77 325.88 385.557 326.02 385.29C326.16 385.017 326.226 384.71 326.22 384.37C326.226 384.023 326.16 383.717 326.02 383.45C325.88 383.177 325.686 382.963 325.44 382.81C325.193 382.657 324.913 382.58 324.6 382.58C324.286 382.58 324.003 382.66 323.75 382.82C323.503 382.973 323.31 383.187 323.17 383.46C323.03 383.727 322.963 384.03 322.97 384.37C322.963 384.71 323.03 385.017 323.17 385.29C323.31 385.557 323.503 385.77 323.75 385.93C324.003 386.083 324.286 386.16 324.6 386.16ZM330.582 387.1C330.102 387.1 329.672 386.983 329.292 386.75C328.919 386.51 328.622 386.187 328.402 385.78C328.182 385.367 328.072 384.897 328.072 384.37C328.072 383.843 328.179 383.377 328.392 382.97C328.612 382.557 328.909 382.233 329.282 382C329.655 381.76 330.079 381.64 330.552 381.64C330.812 381.64 331.062 381.683 331.302 381.77C331.549 381.85 331.769 381.963 331.962 382.11C332.155 382.25 332.305 382.407 332.412 382.58C332.525 382.747 332.582 382.917 332.582 383.09L332.282 383.11V379.6H333.312V387H332.282V385.75H332.482C332.482 385.91 332.429 386.07 332.322 386.23C332.215 386.383 332.072 386.527 331.892 386.66C331.719 386.793 331.515 386.9 331.282 386.98C331.055 387.06 330.822 387.1 330.582 387.1ZM330.722 386.21C331.035 386.21 331.312 386.13 331.552 385.97C331.792 385.81 331.979 385.593 332.112 385.32C332.252 385.04 332.322 384.723 332.322 384.37C332.322 384.017 332.252 383.703 332.112 383.43C331.979 383.15 331.792 382.93 331.552 382.77C331.312 382.61 331.035 382.53 330.722 382.53C330.409 382.53 330.132 382.61 329.892 382.77C329.652 382.93 329.462 383.15 329.322 383.43C329.189 383.703 329.122 384.017 329.122 384.37C329.122 384.723 329.189 385.04 329.322 385.32C329.462 385.593 329.652 385.81 329.892 385.97C330.132 386.13 330.409 386.21 330.722 386.21Z" fill="black"/>
<rect x="104" y="253" width="77" height="7" rx="3.5" fill="#E4E6EA"/>
<rect x="104" y="330" width="77" height="7" rx="3.5" fill="#E4E6EA"/>
<rect x="104" y="406" width="77" height="7" rx="3.5" fill="#E4E6EA"/>
<rect x="265" y="406" width="77" height="7" rx="3.5" fill="#E4E6EA"/>
<rect x="265" y="253" width="77" height="7" rx="3.5" fill="#E4E6EA"/>
<rect x="265" y="330" width="77" height="7" rx="3.5" fill="#E4E6EA"/>
<rect x="93.25" y="243.25" width="133.5" height="26.5" rx="3.75" stroke="#E4E6EA" stroke-width="0.5"/>
<rect x="93.25" y="320.25" width="133.5" height="26.5" rx="3.75" stroke="#E4E6EA" stroke-width="0.5"/>
<rect x="93.25" y="396.25" width="133.5" height="26.5" rx="3.75" stroke="#E4E6EA" stroke-width="0.5"/>
<rect x="254.25" y="243.25" width="133.5" height="26.5" rx="3.75" stroke="#E4E6EA" stroke-width="0.5"/>
<rect x="254.25" y="320.25" width="133.5" height="26.5" rx="3.75" stroke="#E4E6EA" stroke-width="0.5"/>
<rect x="254.25" y="396.25" width="133.5" height="26.5" rx="3.75" stroke="#E4E6EA" stroke-width="0.5"/>
<rect x="83.5" y="148.5" width="314" height="40" rx="5.5" fill="#35CA00" fill-opacity="0.49" stroke="#35CA00"/>
<path d="M219.098 174L222.948 164.2H224.824L228.646 174H226.49L224.516 168.722C224.46 168.573 224.39 168.381 224.306 168.148C224.231 167.915 224.152 167.667 224.068 167.406C223.984 167.145 223.905 166.897 223.83 166.664C223.755 166.421 223.699 166.221 223.662 166.062H224.04C223.984 166.267 223.919 166.487 223.844 166.72C223.779 166.944 223.709 167.177 223.634 167.42C223.559 167.653 223.48 167.882 223.396 168.106C223.312 168.33 223.233 168.549 223.158 168.764L221.184 174H219.098ZM220.89 171.942L221.576 170.262H226.07L226.77 171.942H220.89ZM232.689 174.14C231.979 174.14 231.345 173.972 230.785 173.636C230.225 173.3 229.781 172.843 229.455 172.264C229.137 171.685 228.979 171.027 228.979 170.29C228.979 169.553 229.137 168.895 229.455 168.316C229.781 167.737 230.225 167.28 230.785 166.944C231.345 166.608 231.979 166.44 232.689 166.44C233.351 166.44 233.958 166.561 234.509 166.804C235.059 167.047 235.489 167.383 235.797 167.812L234.705 169.128C234.574 168.951 234.411 168.792 234.215 168.652C234.019 168.503 233.804 168.386 233.571 168.302C233.347 168.218 233.113 168.176 232.871 168.176C232.488 168.176 232.147 168.269 231.849 168.456C231.559 168.633 231.331 168.881 231.163 169.198C230.995 169.515 230.911 169.879 230.911 170.29C230.911 170.682 230.995 171.037 231.163 171.354C231.34 171.671 231.578 171.923 231.877 172.11C232.175 172.297 232.511 172.39 232.885 172.39C233.127 172.39 233.356 172.357 233.571 172.292C233.785 172.227 233.986 172.124 234.173 171.984C234.369 171.844 234.546 171.676 234.705 171.48L235.783 172.796C235.475 173.197 235.036 173.524 234.467 173.776C233.907 174.019 233.314 174.14 232.689 174.14ZM237.771 174V164.718H239.758V174H237.771ZM236.385 168.372V166.594H241.285V168.372H236.385ZM242.734 174V166.594H244.722V174H242.734ZM243.714 165.082C243.332 165.082 243.033 164.989 242.818 164.802C242.604 164.606 242.496 164.335 242.496 163.99C242.496 163.673 242.604 163.416 242.818 163.22C243.042 163.015 243.341 162.912 243.714 162.912C244.097 162.912 244.396 163.01 244.61 163.206C244.825 163.393 244.932 163.654 244.932 163.99C244.932 164.307 244.82 164.569 244.596 164.774C244.382 164.979 244.088 165.082 243.714 165.082ZM249.17 174L246.062 166.594H248.246L250.22 172.124L249.758 172.208L251.83 166.594H253.958L250.696 174H249.17ZM258.481 174.14C257.678 174.14 256.973 173.977 256.367 173.65C255.769 173.323 255.303 172.875 254.967 172.306C254.64 171.737 254.477 171.083 254.477 170.346C254.477 169.767 254.57 169.24 254.757 168.764C254.943 168.288 255.205 167.877 255.541 167.532C255.877 167.177 256.273 166.907 256.731 166.72C257.197 166.524 257.701 166.426 258.243 166.426C258.747 166.426 259.213 166.519 259.643 166.706C260.072 166.893 260.441 167.154 260.749 167.49C261.066 167.817 261.309 168.209 261.477 168.666C261.645 169.114 261.719 169.599 261.701 170.122L261.687 170.738H255.737L255.415 169.52H260.049L259.825 169.772V169.464C259.806 169.212 259.722 168.988 259.573 168.792C259.433 168.587 259.251 168.428 259.027 168.316C258.803 168.195 258.551 168.134 258.271 168.134C257.86 168.134 257.51 168.213 257.221 168.372C256.941 168.531 256.726 168.764 256.577 169.072C256.427 169.38 256.353 169.753 256.353 170.192C256.353 170.64 256.446 171.027 256.633 171.354C256.829 171.681 257.099 171.937 257.445 172.124C257.799 172.301 258.215 172.39 258.691 172.39C259.017 172.39 259.316 172.339 259.587 172.236C259.857 172.133 260.147 171.956 260.455 171.704L261.407 173.034C261.136 173.277 260.837 173.482 260.511 173.65C260.184 173.809 259.848 173.93 259.503 174.014C259.157 174.098 258.817 174.14 258.481 174.14Z" fill="white"/>
</g>
<defs>
<clipPath id="clip0_83_1014">
<rect width="480" height="540" fill="white"/>
</clipPath>
</defs>
</svg>
