<svg width="480" height="540" viewBox="0 0 480 540" fill="none" xmlns="http://www.w3.org/2000/svg">
<g clip-path="url(#clip0_83_696)">
<path d="M396 76H85C75.6112 76 68 83.6112 68 93V447C68 456.389 75.6112 464 85 464H396C405.389 464 413 456.389 413 447V93C413 83.6112 405.389 76 396 76Z" fill="#F1F5F7"/>
<path d="M84.911 121V106.3H87.725L95.852 117.283H95.264C95.208 116.849 95.159 116.429 95.117 116.023C95.075 115.603 95.033 115.183 94.991 114.763C94.963 114.329 94.935 113.888 94.907 113.44C94.893 112.978 94.879 112.495 94.865 111.991C94.851 111.473 94.844 110.913 94.844 110.311V106.3H97.931V121H95.075L86.78 109.912L87.578 109.933C87.648 110.661 87.704 111.284 87.746 111.802C87.802 112.306 87.844 112.747 87.872 113.125C87.914 113.503 87.942 113.832 87.956 114.112C87.97 114.392 87.977 114.658 87.977 114.91C87.991 115.162 87.998 115.428 87.998 115.708V121H84.911ZM106.599 121.21C105.395 121.21 104.338 120.965 103.428 120.475C102.532 119.985 101.832 119.313 101.328 118.459C100.838 117.605 100.593 116.625 100.593 115.519C100.593 114.651 100.733 113.86 101.013 113.146C101.293 112.432 101.685 111.816 102.189 111.298C102.693 110.766 103.288 110.36 103.974 110.08C104.674 109.786 105.43 109.639 106.242 109.639C106.998 109.639 107.698 109.779 108.342 110.059C108.986 110.339 109.539 110.731 110.001 111.235C110.477 111.725 110.841 112.313 111.093 112.999C111.345 113.671 111.457 114.399 111.429 115.183L111.408 116.107H102.483L102 114.28H108.951L108.615 114.658V114.196C108.587 113.818 108.461 113.482 108.237 113.188C108.027 112.88 107.754 112.642 107.418 112.474C107.082 112.292 106.704 112.201 106.284 112.201C105.668 112.201 105.143 112.32 104.709 112.558C104.289 112.796 103.967 113.146 103.743 113.608C103.519 114.07 103.407 114.63 103.407 115.288C103.407 115.96 103.547 116.541 103.827 117.031C104.121 117.521 104.527 117.906 105.045 118.186C105.577 118.452 106.2 118.585 106.914 118.585C107.404 118.585 107.852 118.508 108.258 118.354C108.664 118.2 109.098 117.934 109.56 117.556L110.988 119.551C110.582 119.915 110.134 120.223 109.644 120.475C109.154 120.713 108.65 120.895 108.132 121.021C107.614 121.147 107.103 121.21 106.599 121.21ZM115.969 121L112.252 109.891L115.36 109.87L117.628 117.451L117.166 117.388L119.665 111.487H121.429L124.033 117.409L123.529 117.451L125.797 109.891H128.905L125.125 121H122.962L120.337 114.679L120.673 114.721L118.111 121H115.969ZM137.197 121V118.291H139.654V109.009H137.197V106.3H145.261V109.009H142.804V118.291H145.261V121H137.197ZM148.291 121V109.891H151.147L151.231 112.159L150.643 112.411C150.797 111.907 151.07 111.452 151.462 111.046C151.868 110.626 152.351 110.29 152.911 110.038C153.471 109.786 154.059 109.66 154.675 109.66C155.515 109.66 156.215 109.828 156.775 110.164C157.349 110.5 157.776 111.011 158.056 111.697C158.35 112.369 158.497 113.202 158.497 114.196V121H155.515V114.427C155.515 113.923 155.445 113.503 155.305 113.167C155.165 112.831 154.948 112.586 154.654 112.432C154.374 112.278 154.024 112.208 153.604 112.222C153.268 112.222 152.953 112.278 152.659 112.39C152.379 112.488 152.134 112.635 151.924 112.831C151.728 113.027 151.567 113.251 151.441 113.503C151.329 113.755 151.273 114.028 151.273 114.322V121H149.803C149.481 121 149.194 121 148.942 121C148.69 121 148.473 121 148.291 121ZM164.84 121L160.178 109.891H163.454L166.415 118.186L165.722 118.312L168.83 109.891H172.022L167.129 121H164.84ZM178.807 121.21C177.603 121.21 176.546 120.965 175.636 120.475C174.74 119.985 174.04 119.313 173.536 118.459C173.046 117.605 172.801 116.625 172.801 115.519C172.801 114.651 172.941 113.86 173.221 113.146C173.501 112.432 173.893 111.816 174.397 111.298C174.901 110.766 175.496 110.36 176.182 110.08C176.882 109.786 177.638 109.639 178.45 109.639C179.206 109.639 179.906 109.779 180.55 110.059C181.194 110.339 181.747 110.731 182.209 111.235C182.685 111.725 183.049 112.313 183.301 112.999C183.553 113.671 183.665 114.399 183.637 115.183L183.616 116.107H174.691L174.208 114.28H181.159L180.823 114.658V114.196C180.795 113.818 180.669 113.482 180.445 113.188C180.235 112.88 179.962 112.642 179.626 112.474C179.29 112.292 178.912 112.201 178.492 112.201C177.876 112.201 177.351 112.32 176.917 112.558C176.497 112.796 176.175 113.146 175.951 113.608C175.727 114.07 175.615 114.63 175.615 115.288C175.615 115.96 175.755 116.541 176.035 117.031C176.329 117.521 176.735 117.906 177.253 118.186C177.785 118.452 178.408 118.585 179.122 118.585C179.612 118.585 180.06 118.508 180.466 118.354C180.872 118.2 181.306 117.934 181.768 117.556L183.196 119.551C182.79 119.915 182.342 120.223 181.852 120.475C181.362 120.713 180.858 120.895 180.34 121.021C179.822 121.147 179.311 121.21 178.807 121.21ZM185.841 121V109.891H188.697L188.781 112.159L188.193 112.411C188.347 111.907 188.62 111.452 189.012 111.046C189.418 110.626 189.901 110.29 190.461 110.038C191.021 109.786 191.609 109.66 192.225 109.66C193.065 109.66 193.765 109.828 194.325 110.164C194.899 110.5 195.326 111.011 195.606 111.697C195.9 112.369 196.047 113.202 196.047 114.196V121H193.065V114.427C193.065 113.923 192.995 113.503 192.855 113.167C192.715 112.831 192.498 112.586 192.204 112.432C191.924 112.278 191.574 112.208 191.154 112.222C190.818 112.222 190.503 112.278 190.209 112.39C189.929 112.488 189.684 112.635 189.474 112.831C189.278 113.027 189.117 113.251 188.991 113.503C188.879 113.755 188.823 114.028 188.823 114.322V121H187.353C187.031 121 186.744 121 186.492 121C186.24 121 186.023 121 185.841 121ZM199.975 121V107.077H202.957V121H199.975ZM197.896 112.558V109.891H205.246V112.558H197.896ZM212.232 121.21C211.098 121.21 210.083 120.965 209.187 120.475C208.305 119.971 207.605 119.285 207.087 118.417C206.583 117.549 206.331 116.555 206.331 115.435C206.331 114.315 206.583 113.321 207.087 112.453C207.605 111.585 208.305 110.906 209.187 110.416C210.083 109.912 211.098 109.66 212.232 109.66C213.352 109.66 214.353 109.912 215.235 110.416C216.131 110.906 216.831 111.585 217.335 112.453C217.839 113.321 218.091 114.315 218.091 115.435C218.091 116.555 217.839 117.549 217.335 118.417C216.831 119.285 216.131 119.971 215.235 120.475C214.353 120.965 213.352 121.21 212.232 121.21ZM212.232 118.606C212.778 118.606 213.268 118.473 213.702 118.207C214.136 117.927 214.472 117.549 214.71 117.073C214.962 116.583 215.081 116.037 215.067 115.435C215.081 114.819 214.962 114.273 214.71 113.797C214.472 113.307 214.136 112.929 213.702 112.663C213.268 112.383 212.778 112.243 212.232 112.243C211.672 112.243 211.175 112.383 210.741 112.663C210.307 112.943 209.964 113.321 209.712 113.797C209.46 114.273 209.341 114.819 209.355 115.435C209.341 116.037 209.46 116.583 209.712 117.073C209.964 117.549 210.307 117.927 210.741 118.207C211.175 118.473 211.672 118.606 212.232 118.606ZM220.355 121V109.891H223.232L223.337 113.461L222.833 112.726C223.001 112.152 223.274 111.634 223.652 111.172C224.03 110.696 224.471 110.325 224.975 110.059C225.493 109.793 226.032 109.66 226.592 109.66C226.83 109.66 227.061 109.681 227.285 109.723C227.509 109.765 227.698 109.814 227.852 109.87L227.054 113.146C226.9 113.062 226.697 112.992 226.445 112.936C226.207 112.866 225.962 112.831 225.71 112.831C225.374 112.831 225.059 112.894 224.765 113.02C224.485 113.132 224.24 113.3 224.03 113.524C223.82 113.734 223.652 113.986 223.526 114.28C223.414 114.574 223.358 114.896 223.358 115.246V121H220.355ZM231.117 125.83L233.553 120.118L233.595 121.84L228.177 109.891H231.558L234.267 116.296C234.379 116.534 234.484 116.814 234.582 117.136C234.694 117.444 234.785 117.738 234.855 118.018L234.351 118.249C234.449 118.011 234.547 117.738 234.645 117.43C234.757 117.122 234.869 116.793 234.981 116.443L237.312 109.891H240.714L236.052 121L234.141 125.83H231.117ZM248.801 121V118.291H251.258V109.009H248.801V106.3H256.865V109.009H254.408V118.291H256.865V121H248.801ZM260.965 121V107.077H263.947V121H260.965ZM258.886 112.558V109.891H266.236V112.558H258.886ZM273.327 121.21C272.123 121.21 271.066 120.965 270.156 120.475C269.26 119.985 268.56 119.313 268.056 118.459C267.566 117.605 267.321 116.625 267.321 115.519C267.321 114.651 267.461 113.86 267.741 113.146C268.021 112.432 268.413 111.816 268.917 111.298C269.421 110.766 270.016 110.36 270.702 110.08C271.402 109.786 272.158 109.639 272.97 109.639C273.726 109.639 274.426 109.779 275.07 110.059C275.714 110.339 276.267 110.731 276.729 111.235C277.205 111.725 277.569 112.313 277.821 112.999C278.073 113.671 278.185 114.399 278.157 115.183L278.136 116.107H269.211L268.728 114.28H275.679L275.343 114.658V114.196C275.315 113.818 275.189 113.482 274.965 113.188C274.755 112.88 274.482 112.642 274.146 112.474C273.81 112.292 273.432 112.201 273.012 112.201C272.396 112.201 271.871 112.32 271.437 112.558C271.017 112.796 270.695 113.146 270.471 113.608C270.247 114.07 270.135 114.63 270.135 115.288C270.135 115.96 270.275 116.541 270.555 117.031C270.849 117.521 271.255 117.906 271.773 118.186C272.305 118.452 272.928 118.585 273.642 118.585C274.132 118.585 274.58 118.508 274.986 118.354C275.392 118.2 275.826 117.934 276.288 117.556L277.716 119.551C277.31 119.915 276.862 120.223 276.372 120.475C275.882 120.713 275.378 120.895 274.86 121.021C274.342 121.147 273.831 121.21 273.327 121.21ZM280.34 121V109.891H283.217L283.28 112.012L282.839 112.096C282.993 111.732 283.196 111.403 283.448 111.109C283.714 110.815 284.015 110.563 284.351 110.353C284.687 110.143 285.044 109.982 285.422 109.87C285.8 109.744 286.178 109.681 286.556 109.681C287.13 109.681 287.648 109.772 288.11 109.954C288.572 110.136 288.964 110.423 289.286 110.815C289.608 111.193 289.86 111.697 290.042 112.327L289.58 112.285L289.727 111.949C289.909 111.613 290.14 111.305 290.42 111.025C290.7 110.745 291.015 110.507 291.365 110.311C291.715 110.115 292.079 109.961 292.457 109.849C292.835 109.737 293.206 109.681 293.57 109.681C294.438 109.681 295.159 109.856 295.733 110.206C296.307 110.542 296.734 111.053 297.014 111.739C297.308 112.425 297.455 113.265 297.455 114.259V121H294.473V114.469C294.473 113.965 294.403 113.552 294.263 113.23C294.123 112.908 293.92 112.67 293.654 112.516C293.388 112.348 293.045 112.264 292.625 112.264C292.303 112.264 292.002 112.32 291.722 112.432C291.456 112.53 291.218 112.677 291.008 112.873C290.812 113.055 290.658 113.279 290.546 113.545C290.434 113.797 290.378 114.07 290.378 114.364V121H287.375V114.448C287.375 113.986 287.305 113.594 287.165 113.272C287.025 112.936 286.822 112.684 286.556 112.516C286.29 112.348 285.961 112.264 285.569 112.264C285.247 112.264 284.946 112.32 284.666 112.432C284.4 112.53 284.169 112.677 283.973 112.873C283.777 113.055 283.623 113.272 283.511 113.524C283.399 113.776 283.343 114.049 283.343 114.343V121H280.34Z" fill="black"/>
<rect x="83" y="140" width="154" height="62" rx="9" fill="white"/>
<rect x="83" y="300" width="154" height="62" rx="9" fill="white"/>
<rect x="83" y="212" width="315" height="78" rx="9" fill="white"/>
<rect x="244" y="140" width="154" height="62" rx="9" fill="white"/>
<rect x="244" y="300" width="154" height="62" rx="9" fill="white"/>
<path d="M93.98 160V153H94.95L99.23 158.73L99.07 158.82C99.0433 158.653 99.02 158.473 99 158.28C98.98 158.08 98.96 157.87 98.94 157.65C98.9267 157.423 98.9133 157.187 98.9 156.94C98.8933 156.687 98.8867 156.423 98.88 156.15C98.8733 155.877 98.87 155.593 98.87 155.3V153H99.95V160H98.96L94.75 154.48L94.86 154.34C94.8933 154.747 94.92 155.093 94.94 155.38C94.9667 155.66 94.9867 155.9 95 156.1C95.02 156.293 95.0333 156.453 95.04 156.58C95.0467 156.7 95.05 156.8 95.05 156.88C95.0567 156.96 95.06 157.03 95.06 157.09V160H93.98ZM103.67 160.1C103.236 160.1 102.84 159.98 102.48 159.74C102.126 159.5 101.843 159.173 101.63 158.76C101.416 158.347 101.31 157.88 101.31 157.36C101.31 156.833 101.416 156.367 101.63 155.96C101.85 155.547 102.143 155.223 102.51 154.99C102.883 154.757 103.3 154.64 103.76 154.64C104.033 154.64 104.283 154.68 104.51 154.76C104.736 154.84 104.933 154.953 105.1 155.1C105.273 155.24 105.413 155.403 105.52 155.59C105.633 155.777 105.703 155.977 105.73 156.19L105.5 156.11V154.75H106.54V160H105.5V158.75L105.74 158.68C105.7 158.86 105.616 159.037 105.49 159.21C105.37 159.377 105.213 159.527 105.02 159.66C104.833 159.793 104.623 159.9 104.39 159.98C104.163 160.06 103.923 160.1 103.67 160.1ZM103.94 159.15C104.253 159.15 104.53 159.073 104.77 158.92C105.01 158.767 105.196 158.557 105.33 158.29C105.47 158.017 105.54 157.707 105.54 157.36C105.54 157.02 105.47 156.717 105.33 156.45C105.196 156.183 105.01 155.973 104.77 155.82C104.53 155.667 104.253 155.59 103.94 155.59C103.633 155.59 103.36 155.667 103.12 155.82C102.886 155.973 102.7 156.183 102.56 156.45C102.426 156.717 102.36 157.02 102.36 157.36C102.36 157.707 102.426 158.017 102.56 158.29C102.7 158.557 102.886 158.767 103.12 158.92C103.36 159.073 103.633 159.15 103.94 159.15ZM107.958 160V154.75H108.998V155.87L108.808 155.99C108.861 155.817 108.944 155.65 109.058 155.49C109.178 155.33 109.321 155.19 109.488 155.07C109.661 154.943 109.844 154.843 110.038 154.77C110.238 154.697 110.441 154.66 110.648 154.66C110.948 154.66 111.211 154.71 111.438 154.81C111.664 154.91 111.851 155.06 111.998 155.26C112.144 155.46 112.251 155.71 112.318 156.01L112.158 155.97L112.228 155.8C112.301 155.647 112.401 155.503 112.528 155.37C112.661 155.23 112.811 155.107 112.978 155C113.144 154.893 113.321 154.81 113.508 154.75C113.694 154.69 113.878 154.66 114.058 154.66C114.451 154.66 114.774 154.74 115.028 154.9C115.288 155.06 115.481 155.303 115.608 155.63C115.741 155.957 115.808 156.363 115.808 156.85V160H114.768V156.91C114.768 156.61 114.728 156.367 114.648 156.18C114.574 155.987 114.461 155.843 114.308 155.75C114.154 155.657 113.958 155.61 113.718 155.61C113.531 155.61 113.354 155.643 113.188 155.71C113.028 155.77 112.888 155.857 112.768 155.97C112.648 156.083 112.554 156.217 112.488 156.37C112.421 156.517 112.388 156.68 112.388 156.86V160H111.348V156.89C111.348 156.617 111.308 156.387 111.228 156.2C111.148 156.007 111.031 155.86 110.878 155.76C110.724 155.66 110.538 155.61 110.318 155.61C110.131 155.61 109.958 155.643 109.798 155.71C109.638 155.77 109.498 155.857 109.378 155.97C109.258 156.077 109.164 156.207 109.098 156.36C109.031 156.507 108.998 156.667 108.998 156.84V160H107.958ZM119.637 160.1C119.097 160.1 118.617 159.987 118.197 159.76C117.783 159.527 117.457 159.21 117.217 158.81C116.983 158.41 116.867 157.95 116.867 157.43C116.867 157.017 116.933 156.64 117.067 156.3C117.2 155.96 117.383 155.667 117.617 155.42C117.857 155.167 118.14 154.973 118.467 154.84C118.8 154.7 119.16 154.63 119.547 154.63C119.887 154.63 120.203 154.697 120.497 154.83C120.79 154.957 121.043 155.133 121.257 155.36C121.477 155.587 121.643 155.857 121.757 156.17C121.877 156.477 121.933 156.813 121.927 157.18L121.917 157.62H117.627L117.397 156.8H121.027L120.877 156.97V156.73C120.857 156.51 120.783 156.313 120.657 156.14C120.53 155.967 120.37 155.83 120.177 155.73C119.983 155.63 119.773 155.58 119.547 155.58C119.187 155.58 118.883 155.65 118.637 155.79C118.39 155.923 118.203 156.123 118.077 156.39C117.95 156.65 117.887 156.973 117.887 157.36C117.887 157.727 117.963 158.047 118.117 158.32C118.27 158.587 118.487 158.793 118.767 158.94C119.047 159.087 119.37 159.16 119.737 159.16C119.997 159.16 120.237 159.117 120.457 159.03C120.683 158.943 120.927 158.787 121.187 158.56L121.707 159.29C121.547 159.45 121.35 159.59 121.117 159.71C120.89 159.83 120.647 159.927 120.387 160C120.133 160.067 119.883 160.1 119.637 160.1Z" fill="#3B3B3B"/>
<path d="M96.14 320.1C95.76 320.1 95.4067 320.05 95.08 319.95C94.76 319.85 94.4667 319.7 94.2 319.5C93.94 319.293 93.7067 319.04 93.5 318.74L94.24 317.89C94.5667 318.357 94.88 318.68 95.18 318.86C95.48 319.04 95.8367 319.13 96.25 319.13C96.5033 319.13 96.7333 319.09 96.94 319.01C97.1467 318.93 97.31 318.82 97.43 318.68C97.55 318.54 97.61 318.38 97.61 318.2C97.61 318.08 97.59 317.967 97.55 317.86C97.51 317.753 97.4467 317.657 97.36 317.57C97.28 317.483 97.1733 317.403 97.04 317.33C96.9133 317.257 96.7633 317.193 96.59 317.14C96.4167 317.08 96.2167 317.03 95.99 316.99C95.63 316.917 95.3167 316.82 95.05 316.7C94.7833 316.58 94.56 316.43 94.38 316.25C94.2 316.07 94.0667 315.867 93.98 315.64C93.8933 315.407 93.85 315.147 93.85 314.86C93.85 314.58 93.91 314.32 94.03 314.08C94.1567 313.84 94.3267 313.633 94.54 313.46C94.76 313.28 95.0167 313.143 95.31 313.05C95.6033 312.95 95.92 312.9 96.26 312.9C96.62 312.9 96.95 312.947 97.25 313.04C97.55 313.133 97.8167 313.273 98.05 313.46C98.2833 313.64 98.4767 313.863 98.63 314.13L97.87 314.88C97.7367 314.66 97.5867 314.477 97.42 314.33C97.2533 314.177 97.07 314.063 96.87 313.99C96.67 313.91 96.4567 313.87 96.23 313.87C95.97 313.87 95.7433 313.91 95.55 313.99C95.3567 314.07 95.2033 314.183 95.09 314.33C94.9833 314.47 94.93 314.637 94.93 314.83C94.93 314.97 94.9567 315.1 95.01 315.22C95.0633 315.333 95.1433 315.437 95.25 315.53C95.3633 315.617 95.5133 315.697 95.7 315.77C95.8867 315.837 96.11 315.897 96.37 315.95C96.7367 316.03 97.0633 316.133 97.35 316.26C97.6367 316.38 97.88 316.523 98.08 316.69C98.28 316.857 98.43 317.043 98.53 317.25C98.6367 317.457 98.69 317.68 98.69 317.92C98.69 318.367 98.5867 318.753 98.38 319.08C98.1733 319.407 97.88 319.66 97.5 319.84C97.12 320.013 96.6667 320.1 96.14 320.1ZM102.41 320.1C101.87 320.1 101.39 319.987 100.97 319.76C100.557 319.527 100.23 319.21 99.9902 318.81C99.7569 318.41 99.6402 317.95 99.6402 317.43C99.6402 317.017 99.7069 316.64 99.8402 316.3C99.9736 315.96 100.157 315.667 100.39 315.42C100.63 315.167 100.914 314.973 101.24 314.84C101.574 314.7 101.934 314.63 102.32 314.63C102.66 314.63 102.977 314.697 103.27 314.83C103.564 314.957 103.817 315.133 104.03 315.36C104.25 315.587 104.417 315.857 104.53 316.17C104.65 316.477 104.707 316.813 104.7 317.18L104.69 317.62H100.4L100.17 316.8H103.8L103.65 316.97V316.73C103.63 316.51 103.557 316.313 103.43 316.14C103.304 315.967 103.144 315.83 102.95 315.73C102.757 315.63 102.547 315.58 102.32 315.58C101.96 315.58 101.657 315.65 101.41 315.79C101.164 315.923 100.977 316.123 100.85 316.39C100.724 316.65 100.66 316.973 100.66 317.36C100.66 317.727 100.737 318.047 100.89 318.32C101.044 318.587 101.26 318.793 101.54 318.94C101.82 319.087 102.144 319.16 102.51 319.16C102.77 319.16 103.01 319.117 103.23 319.03C103.457 318.943 103.7 318.787 103.96 318.56L104.48 319.29C104.32 319.45 104.124 319.59 103.89 319.71C103.664 319.83 103.42 319.927 103.16 320C102.907 320.067 102.657 320.1 102.41 320.1ZM105.82 320V314.75H106.86V316.4L106.76 316C106.833 315.747 106.956 315.517 107.13 315.31C107.31 315.103 107.513 314.94 107.74 314.82C107.973 314.7 108.213 314.64 108.46 314.64C108.573 314.64 108.68 314.65 108.78 314.67C108.886 314.69 108.97 314.713 109.03 314.74L108.76 315.86C108.68 315.827 108.59 315.8 108.49 315.78C108.396 315.753 108.303 315.74 108.21 315.74C108.03 315.74 107.856 315.777 107.69 315.85C107.53 315.917 107.386 316.013 107.26 316.14C107.14 316.26 107.043 316.403 106.97 316.57C106.896 316.73 106.86 316.907 106.86 317.1V320H105.82ZM112.071 320L109.851 314.75H110.961L112.561 318.68L112.371 318.77L114.081 314.75H115.141L112.811 320H112.071ZM116.253 320V314.75H117.283V320H116.253ZM116.753 313.59C116.533 313.59 116.363 313.533 116.243 313.42C116.123 313.307 116.063 313.147 116.063 312.94C116.063 312.747 116.123 312.59 116.243 312.47C116.37 312.35 116.54 312.29 116.753 312.29C116.973 312.29 117.143 312.347 117.263 312.46C117.383 312.573 117.443 312.733 117.443 312.94C117.443 313.133 117.38 313.29 117.253 313.41C117.133 313.53 116.967 313.59 116.753 313.59ZM121.096 320.1C120.61 320.1 120.173 319.98 119.786 319.74C119.406 319.5 119.103 319.173 118.876 318.76C118.656 318.347 118.546 317.883 118.546 317.37C118.546 316.857 118.656 316.393 118.876 315.98C119.103 315.567 119.406 315.24 119.786 315C120.173 314.76 120.61 314.64 121.096 314.64C121.563 314.64 121.986 314.737 122.366 314.93C122.753 315.117 123.046 315.373 123.246 315.7L122.676 316.4C122.57 316.247 122.433 316.107 122.266 315.98C122.1 315.853 121.923 315.753 121.736 315.68C121.55 315.607 121.37 315.57 121.196 315.57C120.876 315.57 120.59 315.65 120.336 315.81C120.09 315.963 119.893 316.177 119.746 316.45C119.6 316.723 119.526 317.03 119.526 317.37C119.526 317.71 119.603 318.017 119.756 318.29C119.91 318.557 120.113 318.77 120.366 318.93C120.62 319.09 120.9 319.17 121.206 319.17C121.386 319.17 121.56 319.14 121.726 319.08C121.9 319.02 122.066 318.93 122.226 318.81C122.386 318.69 122.536 318.543 122.676 318.37L123.246 319.07C123.033 319.37 122.726 319.617 122.326 319.81C121.933 320.003 121.523 320.1 121.096 320.1ZM126.668 320.1C126.128 320.1 125.648 319.987 125.228 319.76C124.815 319.527 124.488 319.21 124.248 318.81C124.015 318.41 123.898 317.95 123.898 317.43C123.898 317.017 123.965 316.64 124.098 316.3C124.231 315.96 124.415 315.667 124.648 315.42C124.888 315.167 125.171 314.973 125.498 314.84C125.831 314.7 126.191 314.63 126.578 314.63C126.918 314.63 127.235 314.697 127.528 314.83C127.821 314.957 128.075 315.133 128.288 315.36C128.508 315.587 128.675 315.857 128.788 316.17C128.908 316.477 128.965 316.813 128.958 317.18L128.948 317.62H124.658L124.428 316.8H128.058L127.908 316.97V316.73C127.888 316.51 127.815 316.313 127.688 316.14C127.561 315.967 127.401 315.83 127.208 315.73C127.015 315.63 126.805 315.58 126.578 315.58C126.218 315.58 125.915 315.65 125.668 315.79C125.421 315.923 125.235 316.123 125.108 316.39C124.981 316.65 124.918 316.973 124.918 317.36C124.918 317.727 124.995 318.047 125.148 318.32C125.301 318.587 125.518 318.793 125.798 318.94C126.078 319.087 126.401 319.16 126.768 319.16C127.028 319.16 127.268 319.117 127.488 319.03C127.715 318.943 127.958 318.787 128.218 318.56L128.738 319.29C128.578 319.45 128.381 319.59 128.148 319.71C127.921 319.83 127.678 319.927 127.418 320C127.165 320.067 126.915 320.1 126.668 320.1ZM133.14 320V313H135.88C136.38 313 136.83 313.083 137.23 313.25C137.637 313.417 137.983 313.657 138.27 313.97C138.557 314.283 138.777 314.653 138.93 315.08C139.083 315.507 139.16 315.98 139.16 316.5C139.16 317.02 139.083 317.497 138.93 317.93C138.777 318.357 138.557 318.727 138.27 319.04C137.99 319.347 137.647 319.583 137.24 319.75C136.833 319.917 136.38 320 135.88 320H133.14ZM134.22 319.07L134.19 318.96H135.83C136.183 318.96 136.497 318.903 136.77 318.79C137.05 318.677 137.283 318.517 137.47 318.31C137.663 318.097 137.81 317.837 137.91 317.53C138.01 317.223 138.06 316.88 138.06 316.5C138.06 316.12 138.01 315.78 137.91 315.48C137.81 315.173 137.663 314.913 137.47 314.7C137.277 314.487 137.043 314.323 136.77 314.21C136.497 314.097 136.183 314.04 135.83 314.04H134.16L134.22 313.95V319.07ZM142.381 320.1C141.947 320.1 141.551 319.98 141.191 319.74C140.837 319.5 140.554 319.173 140.341 318.76C140.127 318.347 140.021 317.88 140.021 317.36C140.021 316.833 140.127 316.367 140.341 315.96C140.561 315.547 140.854 315.223 141.221 314.99C141.594 314.757 142.011 314.64 142.471 314.64C142.744 314.64 142.994 314.68 143.221 314.76C143.447 314.84 143.644 314.953 143.811 315.1C143.984 315.24 144.124 315.403 144.231 315.59C144.344 315.777 144.414 315.977 144.441 316.19L144.211 316.11V314.75H145.251V320H144.211V318.75L144.451 318.68C144.411 318.86 144.327 319.037 144.201 319.21C144.081 319.377 143.924 319.527 143.731 319.66C143.544 319.793 143.334 319.9 143.101 319.98C142.874 320.06 142.634 320.1 142.381 320.1ZM142.651 319.15C142.964 319.15 143.241 319.073 143.481 318.92C143.721 318.767 143.907 318.557 144.041 318.29C144.181 318.017 144.251 317.707 144.251 317.36C144.251 317.02 144.181 316.717 144.041 316.45C143.907 316.183 143.721 315.973 143.481 315.82C143.241 315.667 142.964 315.59 142.651 315.59C142.344 315.59 142.071 315.667 141.831 315.82C141.597 315.973 141.411 316.183 141.271 316.45C141.137 316.717 141.071 317.02 141.071 317.36C141.071 317.707 141.137 318.017 141.271 318.29C141.411 318.557 141.597 318.767 141.831 318.92C142.071 319.073 142.344 319.15 142.651 319.15ZM147.339 320V313.41H148.369V320H147.339ZM146.249 315.75V314.75H149.589V315.75H146.249ZM152.928 320.1C152.388 320.1 151.908 319.987 151.488 319.76C151.074 319.527 150.748 319.21 150.508 318.81C150.274 318.41 150.158 317.95 150.158 317.43C150.158 317.017 150.224 316.64 150.358 316.3C150.491 315.96 150.674 315.667 150.908 315.42C151.148 315.167 151.431 314.973 151.758 314.84C152.091 314.7 152.451 314.63 152.838 314.63C153.178 314.63 153.494 314.697 153.788 314.83C154.081 314.957 154.334 315.133 154.548 315.36C154.768 315.587 154.934 315.857 155.048 316.17C155.168 316.477 155.224 316.813 155.218 317.18L155.208 317.62H150.918L150.688 316.8H154.318L154.168 316.97V316.73C154.148 316.51 154.074 316.313 153.948 316.14C153.821 315.967 153.661 315.83 153.468 315.73C153.274 315.63 153.064 315.58 152.838 315.58C152.478 315.58 152.174 315.65 151.928 315.79C151.681 315.923 151.494 316.123 151.368 316.39C151.241 316.65 151.178 316.973 151.178 317.36C151.178 317.727 151.254 318.047 151.408 318.32C151.561 318.587 151.778 318.793 152.058 318.94C152.338 319.087 152.661 319.16 153.028 319.16C153.288 319.16 153.528 319.117 153.748 319.03C153.974 318.943 154.218 318.787 154.478 318.56L154.998 319.29C154.838 319.45 154.641 319.59 154.408 319.71C154.181 319.83 153.938 319.927 153.678 320C153.424 320.067 153.174 320.1 152.928 320.1Z" fill="#3B3B3B"/>
<path d="M93.98 232V225H96.72C97.22 225 97.67 225.083 98.07 225.25C98.4767 225.417 98.8233 225.657 99.11 225.97C99.3967 226.283 99.6167 226.653 99.77 227.08C99.9233 227.507 100 227.98 100 228.5C100 229.02 99.9233 229.497 99.77 229.93C99.6167 230.357 99.3967 230.727 99.11 231.04C98.83 231.347 98.4867 231.583 98.08 231.75C97.6733 231.917 97.22 232 96.72 232H93.98ZM95.06 231.07L95.03 230.96H96.67C97.0233 230.96 97.3367 230.903 97.61 230.79C97.89 230.677 98.1233 230.517 98.31 230.31C98.5033 230.097 98.65 229.837 98.75 229.53C98.85 229.223 98.9 228.88 98.9 228.5C98.9 228.12 98.85 227.78 98.75 227.48C98.65 227.173 98.5033 226.913 98.31 226.7C98.1167 226.487 97.8833 226.323 97.61 226.21C97.3367 226.097 97.0233 226.04 96.67 226.04H95L95.06 225.95V231.07ZM103.65 232.1C103.11 232.1 102.63 231.987 102.21 231.76C101.797 231.527 101.47 231.21 101.23 230.81C100.997 230.41 100.88 229.95 100.88 229.43C100.88 229.017 100.947 228.64 101.08 228.3C101.214 227.96 101.397 227.667 101.63 227.42C101.87 227.167 102.154 226.973 102.48 226.84C102.814 226.7 103.174 226.63 103.56 226.63C103.9 226.63 104.217 226.697 104.51 226.83C104.804 226.957 105.057 227.133 105.27 227.36C105.49 227.587 105.657 227.857 105.77 228.17C105.89 228.477 105.947 228.813 105.94 229.18L105.93 229.62H101.64L101.41 228.8H105.04L104.89 228.97V228.73C104.87 228.51 104.797 228.313 104.67 228.14C104.544 227.967 104.384 227.83 104.19 227.73C103.997 227.63 103.787 227.58 103.56 227.58C103.2 227.58 102.897 227.65 102.65 227.79C102.404 227.923 102.217 228.123 102.09 228.39C101.964 228.65 101.9 228.973 101.9 229.36C101.9 229.727 101.977 230.047 102.13 230.32C102.284 230.587 102.5 230.793 102.78 230.94C103.06 231.087 103.384 231.16 103.75 231.16C104.01 231.16 104.25 231.117 104.47 231.03C104.697 230.943 104.94 230.787 105.2 230.56L105.72 231.29C105.56 231.45 105.364 231.59 105.13 231.71C104.904 231.83 104.66 231.927 104.4 232C104.147 232.067 103.897 232.1 103.65 232.1ZM107.71 232V225.41H108.74V232H107.71ZM106.62 227.75V226.75H109.96V227.75H106.62ZM112.869 232.1C112.436 232.1 112.039 231.98 111.679 231.74C111.326 231.5 111.042 231.173 110.829 230.76C110.616 230.347 110.509 229.88 110.509 229.36C110.509 228.833 110.616 228.367 110.829 227.96C111.049 227.547 111.342 227.223 111.709 226.99C112.082 226.757 112.499 226.64 112.959 226.64C113.232 226.64 113.482 226.68 113.709 226.76C113.936 226.84 114.132 226.953 114.299 227.1C114.472 227.24 114.612 227.403 114.719 227.59C114.832 227.777 114.902 227.977 114.929 228.19L114.699 228.11V226.75H115.739V232H114.699V230.75L114.939 230.68C114.899 230.86 114.816 231.037 114.689 231.21C114.569 231.377 114.412 231.527 114.219 231.66C114.032 231.793 113.822 231.9 113.589 231.98C113.362 232.06 113.122 232.1 112.869 232.1ZM113.139 231.15C113.452 231.15 113.729 231.073 113.969 230.92C114.209 230.767 114.396 230.557 114.529 230.29C114.669 230.017 114.739 229.707 114.739 229.36C114.739 229.02 114.669 228.717 114.529 228.45C114.396 228.183 114.209 227.973 113.969 227.82C113.729 227.667 113.452 227.59 113.139 227.59C112.832 227.59 112.559 227.667 112.319 227.82C112.086 227.973 111.899 228.183 111.759 228.45C111.626 228.717 111.559 229.02 111.559 229.36C111.559 229.707 111.626 230.017 111.759 230.29C111.899 230.557 112.086 230.767 112.319 230.92C112.559 231.073 112.832 231.15 113.139 231.15ZM117.347 232V226.75H118.377V232H117.347ZM117.847 225.59C117.627 225.59 117.457 225.533 117.337 225.42C117.217 225.307 117.157 225.147 117.157 224.94C117.157 224.747 117.217 224.59 117.337 224.47C117.464 224.35 117.634 224.29 117.847 224.29C118.067 224.29 118.237 224.347 118.357 224.46C118.477 224.573 118.537 224.733 118.537 224.94C118.537 225.133 118.474 225.29 118.347 225.41C118.227 225.53 118.06 225.59 117.847 225.59ZM119.98 232V224.6H121.01V232H119.98ZM124.22 232.1C123.78 232.1 123.383 232.023 123.03 231.87C122.677 231.717 122.383 231.49 122.15 231.19L122.85 230.59C123.05 230.823 123.267 230.993 123.5 231.1C123.74 231.2 124.01 231.25 124.31 231.25C124.43 231.25 124.54 231.237 124.64 231.21C124.747 231.177 124.837 231.13 124.91 231.07C124.99 231.01 125.05 230.94 125.09 230.86C125.13 230.773 125.15 230.68 125.15 230.58C125.15 230.407 125.087 230.267 124.96 230.16C124.893 230.113 124.787 230.063 124.64 230.01C124.5 229.95 124.317 229.89 124.09 229.83C123.703 229.73 123.387 229.617 123.14 229.49C122.893 229.363 122.703 229.22 122.57 229.06C122.47 228.933 122.397 228.797 122.35 228.65C122.303 228.497 122.28 228.33 122.28 228.15C122.28 227.93 122.327 227.73 122.42 227.55C122.52 227.363 122.653 227.203 122.82 227.07C122.993 226.93 123.193 226.823 123.42 226.75C123.653 226.677 123.9 226.64 124.16 226.64C124.407 226.64 124.65 226.673 124.89 226.74C125.137 226.807 125.363 226.903 125.57 227.03C125.777 227.157 125.95 227.307 126.09 227.48L125.5 228.13C125.373 228.003 125.233 227.893 125.08 227.8C124.933 227.7 124.783 227.623 124.63 227.57C124.477 227.517 124.337 227.49 124.21 227.49C124.07 227.49 123.943 227.503 123.83 227.53C123.717 227.557 123.62 227.597 123.54 227.65C123.467 227.703 123.41 227.77 123.37 227.85C123.33 227.93 123.31 228.02 123.31 228.12C123.317 228.207 123.337 228.29 123.37 228.37C123.41 228.443 123.463 228.507 123.53 228.56C123.603 228.613 123.713 228.67 123.86 228.73C124.007 228.79 124.193 228.847 124.42 228.9C124.753 228.987 125.027 229.083 125.24 229.19C125.46 229.29 125.633 229.407 125.76 229.54C125.893 229.667 125.987 229.813 126.04 229.98C126.093 230.147 126.12 230.333 126.12 230.54C126.12 230.84 126.033 231.11 125.86 231.35C125.693 231.583 125.467 231.767 125.18 231.9C124.893 232.033 124.573 232.1 124.22 232.1Z" fill="#3B3B3B"/>
<path d="M254.98 160V153H257.83C258.21 153 258.553 153.097 258.86 153.29C259.173 153.477 259.423 153.733 259.61 154.06C259.797 154.387 259.89 154.75 259.89 155.15C259.89 155.55 259.797 155.913 259.61 156.24C259.423 156.567 259.173 156.83 258.86 157.03C258.553 157.223 258.21 157.32 257.83 157.32H256.06V160H254.98ZM256.06 156.28H257.81C257.99 156.28 258.153 156.23 258.3 156.13C258.447 156.023 258.563 155.887 258.65 155.72C258.743 155.547 258.79 155.357 258.79 155.15C258.79 154.943 258.743 154.757 258.65 154.59C258.563 154.423 258.447 154.29 258.3 154.19C258.153 154.09 257.99 154.04 257.81 154.04H256.06V156.28ZM262.98 160.1C262.547 160.1 262.15 159.98 261.79 159.74C261.437 159.5 261.154 159.173 260.94 158.76C260.727 158.347 260.62 157.88 260.62 157.36C260.62 156.833 260.727 156.367 260.94 155.96C261.16 155.547 261.454 155.223 261.82 154.99C262.194 154.757 262.61 154.64 263.07 154.64C263.344 154.64 263.594 154.68 263.82 154.76C264.047 154.84 264.244 154.953 264.41 155.1C264.584 155.24 264.724 155.403 264.83 155.59C264.944 155.777 265.014 155.977 265.04 156.19L264.81 156.11V154.75H265.85V160H264.81V158.75L265.05 158.68C265.01 158.86 264.927 159.037 264.8 159.21C264.68 159.377 264.524 159.527 264.33 159.66C264.144 159.793 263.934 159.9 263.7 159.98C263.474 160.06 263.234 160.1 262.98 160.1ZM263.25 159.15C263.564 159.15 263.84 159.073 264.08 158.92C264.32 158.767 264.507 158.557 264.64 158.29C264.78 158.017 264.85 157.707 264.85 157.36C264.85 157.02 264.78 156.717 264.64 156.45C264.507 156.183 264.32 155.973 264.08 155.82C263.84 155.667 263.564 155.59 263.25 155.59C262.944 155.59 262.67 155.667 262.43 155.82C262.197 155.973 262.01 156.183 261.87 156.45C261.737 156.717 261.67 157.02 261.67 157.36C261.67 157.707 261.737 158.017 261.87 158.29C262.01 158.557 262.197 158.767 262.43 158.92C262.67 159.073 262.944 159.15 263.25 159.15ZM267.288 160V154.75H268.328V156.4L268.228 156C268.302 155.747 268.425 155.517 268.598 155.31C268.778 155.103 268.982 154.94 269.208 154.82C269.442 154.7 269.682 154.64 269.928 154.64C270.042 154.64 270.148 154.65 270.248 154.67C270.355 154.69 270.438 154.713 270.498 154.74L270.228 155.86C270.148 155.827 270.058 155.8 269.958 155.78C269.865 155.753 269.772 155.74 269.678 155.74C269.498 155.74 269.325 155.777 269.158 155.85C268.998 155.917 268.855 156.013 268.728 156.14C268.608 156.26 268.512 156.403 268.438 156.57C268.365 156.73 268.328 156.907 268.328 157.1V160H267.288ZM272.167 160V153.41H273.197V160H272.167ZM271.077 155.75V154.75H274.417V155.75H271.077ZM278.418 160V153H279.388L283.668 158.73L283.508 158.82C283.481 158.653 283.458 158.473 283.438 158.28C283.418 158.08 283.398 157.87 283.378 157.65C283.364 157.423 283.351 157.187 283.338 156.94C283.331 156.687 283.324 156.423 283.317 156.15C283.311 155.877 283.308 155.593 283.308 155.3V153H284.388V160H283.398L279.188 154.48L279.298 154.34C279.331 154.747 279.358 155.093 279.378 155.38C279.404 155.66 279.424 155.9 279.438 156.1C279.458 156.293 279.471 156.453 279.478 156.58C279.484 156.7 279.488 156.8 279.488 156.88C279.494 156.96 279.498 157.03 279.498 157.09V160H278.418ZM287.927 160.1C287.554 160.1 287.227 160.013 286.947 159.84C286.674 159.667 286.461 159.423 286.307 159.11C286.161 158.797 286.087 158.423 286.087 157.99V154.75H287.117V157.71C287.117 158.017 287.164 158.283 287.257 158.51C287.357 158.73 287.497 158.9 287.677 159.02C287.864 159.14 288.087 159.2 288.347 159.2C288.541 159.2 288.717 159.17 288.877 159.11C289.037 159.043 289.174 158.953 289.287 158.84C289.407 158.727 289.501 158.59 289.567 158.43C289.634 158.27 289.667 158.097 289.667 157.91V154.75H290.697V160H289.667V158.9L289.847 158.78C289.767 159.027 289.631 159.25 289.437 159.45C289.251 159.65 289.027 159.81 288.767 159.93C288.507 160.043 288.227 160.1 287.927 160.1ZM292.122 160V154.75H293.162V155.87L292.972 155.99C293.025 155.817 293.109 155.65 293.222 155.49C293.342 155.33 293.485 155.19 293.652 155.07C293.825 154.943 294.009 154.843 294.202 154.77C294.402 154.697 294.605 154.66 294.812 154.66C295.112 154.66 295.375 154.71 295.602 154.81C295.829 154.91 296.015 155.06 296.162 155.26C296.309 155.46 296.415 155.71 296.482 156.01L296.322 155.97L296.392 155.8C296.465 155.647 296.565 155.503 296.692 155.37C296.825 155.23 296.975 155.107 297.142 155C297.309 154.893 297.485 154.81 297.672 154.75C297.859 154.69 298.042 154.66 298.222 154.66C298.615 154.66 298.939 154.74 299.192 154.9C299.452 155.06 299.645 155.303 299.772 155.63C299.905 155.957 299.972 156.363 299.972 156.85V160H298.932V156.91C298.932 156.61 298.892 156.367 298.812 156.18C298.739 155.987 298.625 155.843 298.472 155.75C298.319 155.657 298.122 155.61 297.882 155.61C297.695 155.61 297.519 155.643 297.352 155.71C297.192 155.77 297.052 155.857 296.932 155.97C296.812 156.083 296.719 156.217 296.652 156.37C296.585 156.517 296.552 156.68 296.552 156.86V160H295.512V156.89C295.512 156.617 295.472 156.387 295.392 156.2C295.312 156.007 295.195 155.86 295.042 155.76C294.889 155.66 294.702 155.61 294.482 155.61C294.295 155.61 294.122 155.643 293.962 155.71C293.802 155.77 293.662 155.857 293.542 155.97C293.422 156.077 293.329 156.207 293.262 156.36C293.195 156.507 293.162 156.667 293.162 156.84V160H292.122ZM304.111 160.1C303.884 160.1 303.658 160.063 303.431 159.99C303.211 159.917 303.008 159.82 302.821 159.7C302.641 159.573 302.488 159.437 302.361 159.29C302.241 159.137 302.161 158.983 302.121 158.83L302.381 158.69V159.97H301.351V152.6H302.381V155.95L302.221 155.86C302.254 155.707 302.328 155.56 302.441 155.42C302.554 155.273 302.698 155.143 302.871 155.03C303.051 154.91 303.244 154.817 303.451 154.75C303.658 154.677 303.868 154.64 304.081 154.64C304.554 154.64 304.974 154.757 305.341 154.99C305.708 155.223 305.998 155.547 306.211 155.96C306.424 156.367 306.531 156.833 306.531 157.36C306.531 157.887 306.424 158.357 306.211 158.77C306.004 159.183 305.718 159.51 305.351 159.75C304.984 159.983 304.571 160.1 304.111 160.1ZM303.941 159.16C304.248 159.16 304.521 159.083 304.761 158.93C305.001 158.77 305.191 158.557 305.331 158.29C305.471 158.017 305.541 157.707 305.541 157.36C305.541 157.02 305.471 156.717 305.331 156.45C305.198 156.177 305.011 155.963 304.771 155.81C304.531 155.657 304.254 155.58 303.941 155.58C303.628 155.58 303.351 155.657 303.111 155.81C302.871 155.963 302.681 156.177 302.541 156.45C302.401 156.717 302.331 157.02 302.331 157.36C302.331 157.707 302.401 158.017 302.541 158.29C302.681 158.557 302.871 158.77 303.111 158.93C303.351 159.083 303.628 159.16 303.941 159.16ZM310.1 160.1C309.56 160.1 309.08 159.987 308.66 159.76C308.246 159.527 307.92 159.21 307.68 158.81C307.446 158.41 307.33 157.95 307.33 157.43C307.33 157.017 307.396 156.64 307.53 156.3C307.663 155.96 307.846 155.667 308.08 155.42C308.32 155.167 308.603 154.973 308.93 154.84C309.263 154.7 309.623 154.63 310.01 154.63C310.35 154.63 310.666 154.697 310.96 154.83C311.253 154.957 311.506 155.133 311.72 155.36C311.94 155.587 312.106 155.857 312.22 156.17C312.34 156.477 312.396 156.813 312.39 157.18L312.38 157.62H308.09L307.86 156.8H311.49L311.34 156.97V156.73C311.32 156.51 311.246 156.313 311.12 156.14C310.993 155.967 310.833 155.83 310.64 155.73C310.446 155.63 310.236 155.58 310.01 155.58C309.65 155.58 309.346 155.65 309.1 155.79C308.853 155.923 308.666 156.123 308.54 156.39C308.413 156.65 308.35 156.973 308.35 157.36C308.35 157.727 308.426 158.047 308.58 158.32C308.733 158.587 308.95 158.793 309.23 158.94C309.51 159.087 309.833 159.16 310.2 159.16C310.46 159.16 310.7 159.117 310.92 159.03C311.146 158.943 311.39 158.787 311.65 158.56L312.17 159.29C312.01 159.45 311.813 159.59 311.58 159.71C311.353 159.83 311.11 159.927 310.85 160C310.596 160.067 310.346 160.1 310.1 160.1ZM313.509 160V154.75H314.549V156.4L314.449 156C314.522 155.747 314.646 155.517 314.819 155.31C314.999 155.103 315.202 154.94 315.429 154.82C315.662 154.7 315.902 154.64 316.149 154.64C316.262 154.64 316.369 154.65 316.469 154.67C316.576 154.69 316.659 154.713 316.719 154.74L316.449 155.86C316.369 155.827 316.279 155.8 316.179 155.78C316.086 155.753 315.992 155.74 315.899 155.74C315.719 155.74 315.546 155.777 315.379 155.85C315.219 155.917 315.076 156.013 314.949 156.14C314.829 156.26 314.732 156.403 314.659 156.57C314.586 156.73 314.549 156.907 314.549 157.1V160H313.509Z" fill="#3B3B3B"/>
<path d="M254.98 320V313H259.39V314.04H256.06V318.96H259.39V320H254.98ZM255.47 316.93V315.89H258.84V316.93H255.47ZM264.353 320L262.653 317.79L262.503 317.6L260.293 314.75H261.593L263.263 316.93L263.433 317.15L265.613 320H264.353ZM260.303 320L262.373 317.3L262.983 318.03L261.523 320H260.303ZM263.493 317.46L262.923 316.74L264.213 314.75H265.433L263.493 317.46ZM266.478 322.2V314.75H267.518V315.95L267.358 315.86C267.398 315.66 267.511 315.47 267.698 315.29C267.884 315.103 268.111 314.953 268.378 314.84C268.651 314.72 268.931 314.66 269.218 314.66C269.691 314.66 270.111 314.777 270.478 315.01C270.844 315.243 271.134 315.563 271.348 315.97C271.561 316.377 271.668 316.843 271.668 317.37C271.668 317.89 271.561 318.357 271.348 318.77C271.141 319.177 270.854 319.5 270.488 319.74C270.121 319.973 269.708 320.09 269.248 320.09C268.941 320.09 268.644 320.03 268.358 319.91C268.071 319.783 267.828 319.623 267.628 319.43C267.428 319.237 267.304 319.037 267.258 318.83L267.518 318.69V322.2H266.478ZM269.078 319.14C269.384 319.14 269.658 319.063 269.898 318.91C270.138 318.757 270.328 318.547 270.468 318.28C270.608 318.013 270.678 317.71 270.678 317.37C270.678 317.03 270.608 316.73 270.468 316.47C270.334 316.203 270.148 315.993 269.908 315.84C269.668 315.687 269.391 315.61 269.078 315.61C268.764 315.61 268.488 315.687 268.248 315.84C268.008 315.987 267.818 316.193 267.678 316.46C267.538 316.727 267.468 317.03 267.468 317.37C267.468 317.71 267.538 318.013 267.678 318.28C267.818 318.547 268.008 318.757 268.248 318.91C268.488 319.063 268.764 319.14 269.078 319.14ZM272.956 320V314.75H273.986V320H272.956ZM273.456 313.59C273.236 313.59 273.066 313.533 272.946 313.42C272.826 313.307 272.766 313.147 272.766 312.94C272.766 312.747 272.826 312.59 272.946 312.47C273.073 312.35 273.243 312.29 273.456 312.29C273.676 312.29 273.846 312.347 273.966 312.46C274.086 312.573 274.146 312.733 274.146 312.94C274.146 313.133 274.083 313.29 273.956 313.41C273.836 313.53 273.67 313.59 273.456 313.59ZM275.57 320V314.75H276.61V316.4L276.51 316C276.583 315.747 276.706 315.517 276.88 315.31C277.06 315.103 277.263 314.94 277.49 314.82C277.723 314.7 277.963 314.64 278.21 314.64C278.323 314.64 278.43 314.65 278.53 314.67C278.636 314.69 278.72 314.713 278.78 314.74L278.51 315.86C278.43 315.827 278.34 315.8 278.24 315.78C278.146 315.753 278.053 315.74 277.96 315.74C277.78 315.74 277.606 315.777 277.44 315.85C277.28 315.917 277.136 316.013 277.01 316.14C276.89 316.26 276.793 316.403 276.72 316.57C276.646 316.73 276.61 316.907 276.61 317.1V320H275.57ZM281.398 320.1C280.965 320.1 280.568 319.98 280.208 319.74C279.855 319.5 279.572 319.173 279.358 318.76C279.145 318.347 279.038 317.88 279.038 317.36C279.038 316.833 279.145 316.367 279.358 315.96C279.578 315.547 279.872 315.223 280.238 314.99C280.612 314.757 281.028 314.64 281.488 314.64C281.762 314.64 282.012 314.68 282.238 314.76C282.465 314.84 282.662 314.953 282.828 315.1C283.002 315.24 283.142 315.403 283.248 315.59C283.362 315.777 283.432 315.977 283.458 316.19L283.228 316.11V314.75H284.268V320H283.228V318.75L283.468 318.68C283.428 318.86 283.345 319.037 283.218 319.21C283.098 319.377 282.942 319.527 282.748 319.66C282.562 319.793 282.352 319.9 282.118 319.98C281.892 320.06 281.652 320.1 281.398 320.1ZM281.668 319.15C281.982 319.15 282.258 319.073 282.498 318.92C282.738 318.767 282.925 318.557 283.058 318.29C283.198 318.017 283.268 317.707 283.268 317.36C283.268 317.02 283.198 316.717 283.058 316.45C282.925 316.183 282.738 315.973 282.498 315.82C282.258 315.667 281.982 315.59 281.668 315.59C281.362 315.59 281.088 315.667 280.848 315.82C280.615 315.973 280.428 316.183 280.288 316.45C280.155 316.717 280.088 317.02 280.088 317.36C280.088 317.707 280.155 318.017 280.288 318.29C280.428 318.557 280.615 318.767 280.848 318.92C281.088 319.073 281.362 319.15 281.668 319.15ZM286.356 320V313.41H287.386V320H286.356ZM285.266 315.75V314.75H288.606V315.75H285.266ZM289.714 320V314.75H290.744V320H289.714ZM290.214 313.59C289.994 313.59 289.824 313.533 289.704 313.42C289.584 313.307 289.524 313.147 289.524 312.94C289.524 312.747 289.584 312.59 289.704 312.47C289.831 312.35 290.001 312.29 290.214 312.29C290.434 312.29 290.604 312.347 290.724 312.46C290.844 312.573 290.904 312.733 290.904 312.94C290.904 313.133 290.841 313.29 290.714 313.41C290.594 313.53 290.428 313.59 290.214 313.59ZM294.687 320.1C294.174 320.1 293.714 319.983 293.307 319.75C292.907 319.51 292.591 319.187 292.357 318.78C292.124 318.367 292.007 317.897 292.007 317.37C292.007 316.843 292.124 316.377 292.357 315.97C292.591 315.557 292.907 315.233 293.307 315C293.714 314.76 294.174 314.64 294.687 314.64C295.194 314.64 295.647 314.76 296.047 315C296.454 315.233 296.774 315.557 297.007 315.97C297.241 316.377 297.357 316.843 297.357 317.37C297.357 317.897 297.241 318.367 297.007 318.78C296.774 319.187 296.454 319.51 296.047 319.75C295.647 319.983 295.194 320.1 294.687 320.1ZM294.687 319.16C295.001 319.16 295.281 319.083 295.527 318.93C295.774 318.77 295.967 318.557 296.107 318.29C296.247 318.017 296.314 317.71 296.307 317.37C296.314 317.023 296.247 316.717 296.107 316.45C295.967 316.177 295.774 315.963 295.527 315.81C295.281 315.657 295.001 315.58 294.687 315.58C294.374 315.58 294.091 315.66 293.837 315.82C293.591 315.973 293.397 316.187 293.257 316.46C293.117 316.727 293.051 317.03 293.057 317.37C293.051 317.71 293.117 318.017 293.257 318.29C293.397 318.557 293.591 318.77 293.837 318.93C294.091 319.083 294.374 319.16 294.687 319.16ZM298.48 320V314.75H299.51V315.83L299.33 315.95C299.396 315.717 299.526 315.503 299.72 315.31C299.913 315.11 300.143 314.95 300.41 314.83C300.676 314.703 300.95 314.64 301.23 314.64C301.63 314.64 301.963 314.72 302.23 314.88C302.496 315.033 302.696 315.27 302.83 315.59C302.963 315.91 303.03 316.313 303.03 316.8V320H302V316.87C302 316.57 301.96 316.323 301.88 316.13C301.8 315.93 301.676 315.787 301.51 315.7C301.343 315.607 301.136 315.567 300.89 315.58C300.69 315.58 300.506 315.613 300.34 315.68C300.173 315.74 300.026 315.827 299.9 315.94C299.78 316.053 299.683 316.187 299.61 316.34C299.543 316.487 299.51 316.647 299.51 316.82V320H299C298.913 320 298.826 320 298.74 320C298.653 320 298.566 320 298.48 320ZM307.49 320V313H310.23C310.73 313 311.18 313.083 311.58 313.25C311.986 313.417 312.333 313.657 312.62 313.97C312.906 314.283 313.126 314.653 313.28 315.08C313.433 315.507 313.51 315.98 313.51 316.5C313.51 317.02 313.433 317.497 313.28 317.93C313.126 318.357 312.906 318.727 312.62 319.04C312.34 319.347 311.996 319.583 311.59 319.75C311.183 319.917 310.73 320 310.23 320H307.49ZM308.57 319.07L308.54 318.96H310.18C310.533 318.96 310.846 318.903 311.12 318.79C311.4 318.677 311.633 318.517 311.82 318.31C312.013 318.097 312.16 317.837 312.26 317.53C312.36 317.223 312.41 316.88 312.41 316.5C312.41 316.12 312.36 315.78 312.26 315.48C312.16 315.173 312.013 314.913 311.82 314.7C311.626 314.487 311.393 314.323 311.12 314.21C310.846 314.097 310.533 314.04 310.18 314.04H308.51L308.57 313.95V319.07ZM316.73 320.1C316.297 320.1 315.9 319.98 315.54 319.74C315.187 319.5 314.904 319.173 314.69 318.76C314.477 318.347 314.37 317.88 314.37 317.36C314.37 316.833 314.477 316.367 314.69 315.96C314.91 315.547 315.204 315.223 315.57 314.99C315.944 314.757 316.36 314.64 316.82 314.64C317.094 314.64 317.344 314.68 317.57 314.76C317.797 314.84 317.994 314.953 318.16 315.1C318.334 315.24 318.474 315.403 318.58 315.59C318.694 315.777 318.764 315.977 318.79 316.19L318.56 316.11V314.75H319.6V320H318.56V318.75L318.8 318.68C318.76 318.86 318.677 319.037 318.55 319.21C318.43 319.377 318.274 319.527 318.08 319.66C317.894 319.793 317.684 319.9 317.45 319.98C317.224 320.06 316.984 320.1 316.73 320.1ZM317 319.15C317.314 319.15 317.59 319.073 317.83 318.92C318.07 318.767 318.257 318.557 318.39 318.29C318.53 318.017 318.6 317.707 318.6 317.36C318.6 317.02 318.53 316.717 318.39 316.45C318.257 316.183 318.07 315.973 317.83 315.82C317.59 315.667 317.314 315.59 317 315.59C316.694 315.59 316.42 315.667 316.18 315.82C315.947 315.973 315.76 316.183 315.62 316.45C315.487 316.717 315.42 317.02 315.42 317.36C315.42 317.707 315.487 318.017 315.62 318.29C315.76 318.557 315.947 318.767 316.18 318.92C316.42 319.073 316.694 319.15 317 319.15ZM321.688 320V313.41H322.718V320H321.688ZM320.598 315.75V314.75H323.938V315.75H320.598ZM327.277 320.1C326.737 320.1 326.257 319.987 325.837 319.76C325.424 319.527 325.097 319.21 324.857 318.81C324.624 318.41 324.507 317.95 324.507 317.43C324.507 317.017 324.574 316.64 324.707 316.3C324.841 315.96 325.024 315.667 325.257 315.42C325.497 315.167 325.781 314.973 326.107 314.84C326.441 314.7 326.801 314.63 327.187 314.63C327.527 314.63 327.844 314.697 328.137 314.83C328.431 314.957 328.684 315.133 328.897 315.36C329.117 315.587 329.284 315.857 329.397 316.17C329.517 316.477 329.574 316.813 329.567 317.18L329.557 317.62H325.267L325.037 316.8H328.667L328.517 316.97V316.73C328.497 316.51 328.424 316.313 328.297 316.14C328.171 315.967 328.011 315.83 327.817 315.73C327.624 315.63 327.414 315.58 327.187 315.58C326.827 315.58 326.524 315.65 326.277 315.79C326.031 315.923 325.844 316.123 325.717 316.39C325.591 316.65 325.527 316.973 325.527 317.36C325.527 317.727 325.604 318.047 325.757 318.32C325.911 318.587 326.127 318.793 326.407 318.94C326.687 319.087 327.011 319.16 327.377 319.16C327.637 319.16 327.877 319.117 328.097 319.03C328.324 318.943 328.567 318.787 328.827 318.56L329.347 319.29C329.187 319.45 328.991 319.59 328.757 319.71C328.531 319.83 328.287 319.927 328.027 320C327.774 320.067 327.524 320.1 327.277 320.1Z" fill="#3B3B3B"/>
<rect x="104" y="179" width="77" height="7" rx="3.5" fill="#E4E6EA"/>
<rect x="104" y="339" width="77" height="7" rx="3.5" fill="#E4E6EA"/>
<rect x="104" y="251" width="274" height="7" rx="3.5" fill="#E4E6EA"/>
<rect x="104" y="263" width="213" height="7" rx="3.5" fill="#E4E6EA"/>
<rect x="265" y="179" width="77" height="7" rx="3.5" fill="#E4E6EA"/>
<rect x="265" y="339" width="77" height="7" rx="3.5" fill="#E4E6EA"/>
<rect x="93.25" y="169.25" width="133.5" height="26.5" rx="3.75" stroke="#E4E6EA" stroke-width="0.5"/>
<rect x="93.25" y="329.25" width="133.5" height="26.5" rx="3.75" stroke="#E4E6EA" stroke-width="0.5"/>
<rect x="93.25" y="241.25" width="294.5" height="38.5" rx="3.75" stroke="#E4E6EA" stroke-width="0.5"/>
<rect x="254.25" y="169.25" width="133.5" height="26.5" rx="3.75" stroke="#E4E6EA" stroke-width="0.5"/>
<rect x="254.25" y="329.25" width="133.5" height="26.5" rx="3.75" stroke="#E4E6EA" stroke-width="0.5"/>
<rect x="83.5" y="383.5" width="207" height="61" rx="8.5" stroke="#C4C4C4" stroke-dasharray="7 7"/>
<rect x="300" y="383" width="98" height="62" rx="9" fill="#0900FF"/>
<path d="M99.375 420L103.44 409.5H105.09L109.125 420H107.4L105 413.67C104.97 413.6 104.91 413.43 104.82 413.16C104.74 412.89 104.645 412.59 104.535 412.26C104.425 411.93 104.325 411.63 104.235 411.36C104.145 411.08 104.085 410.9 104.055 410.82L104.4 410.805C104.34 410.975 104.265 411.19 104.175 411.45C104.095 411.71 104.005 411.985 103.905 412.275C103.815 412.565 103.725 412.84 103.635 413.1C103.545 413.35 103.47 413.56 103.41 413.73L101.025 420H99.375ZM101.175 417.39L101.775 415.83H106.545L107.235 417.39H101.175ZM111.485 420V410.115H113.03V420H111.485ZM109.85 413.625V412.125H114.86V413.625H109.85ZM117.242 420V410.115H118.787V420H117.242ZM115.607 413.625V412.125H120.617V413.625H115.607ZM124.98 420.15C124.33 420.15 123.735 419.97 123.195 419.61C122.665 419.25 122.24 418.76 121.92 418.14C121.6 417.52 121.44 416.82 121.44 416.04C121.44 415.25 121.6 414.55 121.92 413.94C122.25 413.32 122.69 412.835 123.24 412.485C123.8 412.135 124.425 411.96 125.115 411.96C125.525 411.96 125.9 412.02 126.24 412.14C126.58 412.26 126.875 412.43 127.125 412.65C127.385 412.86 127.595 413.105 127.755 413.385C127.925 413.665 128.03 413.965 128.07 414.285L127.725 414.165V412.125H129.285V420H127.725V418.125L128.085 418.02C128.025 418.29 127.9 418.555 127.71 418.815C127.53 419.065 127.295 419.29 127.005 419.49C126.725 419.69 126.41 419.85 126.06 419.97C125.72 420.09 125.36 420.15 124.98 420.15ZM125.385 418.725C125.855 418.725 126.27 418.61 126.63 418.38C126.99 418.15 127.27 417.835 127.47 417.435C127.68 417.025 127.785 416.56 127.785 416.04C127.785 415.53 127.68 415.075 127.47 414.675C127.27 414.275 126.99 413.96 126.63 413.73C126.27 413.5 125.855 413.385 125.385 413.385C124.925 413.385 124.515 413.5 124.155 413.73C123.805 413.96 123.525 414.275 123.315 414.675C123.115 415.075 123.015 415.53 123.015 416.04C123.015 416.56 123.115 417.025 123.315 417.435C123.525 417.835 123.805 418.15 124.155 418.38C124.515 418.61 124.925 418.725 125.385 418.725ZM134.787 420.15C134.057 420.15 133.402 419.97 132.822 419.61C132.252 419.25 131.797 418.76 131.457 418.14C131.127 417.52 130.962 416.825 130.962 416.055C130.962 415.285 131.127 414.59 131.457 413.97C131.797 413.35 132.252 412.86 132.822 412.5C133.402 412.14 134.057 411.96 134.787 411.96C135.487 411.96 136.122 412.105 136.692 412.395C137.272 412.675 137.712 413.06 138.012 413.55L137.157 414.6C136.997 414.37 136.792 414.16 136.542 413.97C136.292 413.78 136.027 413.63 135.747 413.52C135.467 413.41 135.197 413.355 134.937 413.355C134.457 413.355 134.027 413.475 133.647 413.715C133.277 413.945 132.982 414.265 132.762 414.675C132.542 415.085 132.432 415.545 132.432 416.055C132.432 416.565 132.547 417.025 132.777 417.435C133.007 417.835 133.312 418.155 133.692 418.395C134.072 418.635 134.492 418.755 134.952 418.755C135.222 418.755 135.482 418.71 135.732 418.62C135.992 418.53 136.242 418.395 136.482 418.215C136.722 418.035 136.947 417.815 137.157 417.555L138.012 418.605C137.692 419.055 137.232 419.425 136.632 419.715C136.042 420.005 135.427 420.15 134.787 420.15ZM139.47 420V408.9H141.015V413.745L140.745 413.925C140.845 413.575 141.04 413.255 141.33 412.965C141.62 412.665 141.965 412.425 142.365 412.245C142.765 412.055 143.175 411.96 143.595 411.96C144.195 411.96 144.695 412.08 145.095 412.32C145.495 412.55 145.795 412.905 145.995 413.385C146.195 413.865 146.295 414.47 146.295 415.2V420H144.75V415.305C144.75 414.855 144.69 414.485 144.57 414.195C144.45 413.895 144.265 413.68 144.015 413.55C143.765 413.41 143.455 413.35 143.085 413.37C142.785 413.37 142.51 413.42 142.26 413.52C142.01 413.61 141.79 413.74 141.6 413.91C141.42 414.08 141.275 414.28 141.165 414.51C141.065 414.73 141.015 414.97 141.015 415.23V420H140.25C140.12 420 139.99 420 139.86 420C139.73 420 139.6 420 139.47 420ZM148.361 420V412.125H149.921V413.805L149.636 413.985C149.716 413.725 149.841 413.475 150.011 413.235C150.191 412.995 150.406 412.785 150.656 412.605C150.916 412.415 151.191 412.265 151.481 412.155C151.781 412.045 152.086 411.99 152.396 411.99C152.846 411.99 153.241 412.065 153.581 412.215C153.921 412.365 154.201 412.59 154.421 412.89C154.641 413.19 154.801 413.565 154.901 414.015L154.661 413.955L154.766 413.7C154.876 413.47 155.026 413.255 155.216 413.055C155.416 412.845 155.641 412.66 155.891 412.5C156.141 412.34 156.406 412.215 156.686 412.125C156.966 412.035 157.241 411.99 157.511 411.99C158.101 411.99 158.586 412.11 158.966 412.35C159.356 412.59 159.646 412.955 159.836 413.445C160.036 413.935 160.136 414.545 160.136 415.275V420H158.576V415.365C158.576 414.915 158.516 414.55 158.396 414.27C158.286 413.98 158.116 413.765 157.886 413.625C157.656 413.485 157.361 413.415 157.001 413.415C156.721 413.415 156.456 413.465 156.206 413.565C155.966 413.655 155.756 413.785 155.576 413.955C155.396 414.125 155.256 414.325 155.156 414.555C155.056 414.775 155.006 415.02 155.006 415.29V420H153.446V415.335C153.446 414.925 153.386 414.58 153.266 414.3C153.146 414.01 152.971 413.79 152.741 413.64C152.511 413.49 152.231 413.415 151.901 413.415C151.621 413.415 151.361 413.465 151.121 413.565C150.881 413.655 150.671 413.785 150.491 413.955C150.311 414.115 150.171 414.31 150.071 414.54C149.971 414.76 149.921 415 149.921 415.26V420H148.361ZM165.879 420.15C165.069 420.15 164.349 419.98 163.719 419.64C163.099 419.29 162.609 418.815 162.249 418.215C161.899 417.615 161.724 416.925 161.724 416.145C161.724 415.525 161.824 414.96 162.024 414.45C162.224 413.94 162.499 413.5 162.849 413.13C163.209 412.75 163.634 412.46 164.124 412.26C164.624 412.05 165.164 411.945 165.744 411.945C166.254 411.945 166.729 412.045 167.169 412.245C167.609 412.435 167.989 412.7 168.309 413.04C168.639 413.38 168.889 413.785 169.059 414.255C169.239 414.715 169.324 415.22 169.314 415.77L169.299 416.43H162.864L162.519 415.2H167.964L167.739 415.455V415.095C167.709 414.765 167.599 414.47 167.409 414.21C167.219 413.95 166.979 413.745 166.689 413.595C166.399 413.445 166.084 413.37 165.744 413.37C165.204 413.37 164.749 413.475 164.379 413.685C164.009 413.885 163.729 414.185 163.539 414.585C163.349 414.975 163.254 415.46 163.254 416.04C163.254 416.59 163.369 417.07 163.599 417.48C163.829 417.88 164.154 418.19 164.574 418.41C164.994 418.63 165.479 418.74 166.029 418.74C166.419 418.74 166.779 418.675 167.109 418.545C167.449 418.415 167.814 418.18 168.204 417.84L168.984 418.935C168.744 419.175 168.449 419.385 168.099 419.565C167.759 419.745 167.394 419.89 167.004 420C166.624 420.1 166.249 420.15 165.879 420.15ZM170.993 420V412.125H172.538V413.745L172.268 413.925C172.368 413.575 172.563 413.255 172.853 412.965C173.143 412.665 173.488 412.425 173.888 412.245C174.288 412.055 174.698 411.96 175.118 411.96C175.718 411.96 176.218 412.08 176.618 412.32C177.018 412.55 177.318 412.905 177.518 413.385C177.718 413.865 177.818 414.47 177.818 415.2V420H176.273V415.305C176.273 414.855 176.213 414.485 176.093 414.195C175.973 413.895 175.788 413.68 175.538 413.55C175.288 413.41 174.978 413.35 174.608 413.37C174.308 413.37 174.033 413.42 173.783 413.52C173.533 413.61 173.313 413.74 173.123 413.91C172.943 414.08 172.798 414.28 172.688 414.51C172.588 414.73 172.538 414.97 172.538 415.23V420H171.773C171.643 420 171.513 420 171.383 420C171.253 420 171.123 420 170.993 420ZM180.889 420V410.115H182.434V420H180.889ZM179.254 413.625V412.125H184.264V413.625H179.254ZM188.589 420.15C187.929 420.15 187.334 420.035 186.804 419.805C186.274 419.575 185.834 419.235 185.484 418.785L186.534 417.885C186.834 418.235 187.159 418.49 187.509 418.65C187.869 418.8 188.274 418.875 188.724 418.875C188.904 418.875 189.069 418.855 189.219 418.815C189.379 418.765 189.514 418.695 189.624 418.605C189.744 418.515 189.834 418.41 189.894 418.29C189.954 418.16 189.984 418.02 189.984 417.87C189.984 417.61 189.889 417.4 189.699 417.24C189.599 417.17 189.439 417.095 189.219 417.015C189.009 416.925 188.734 416.835 188.394 416.745C187.814 416.595 187.339 416.425 186.969 416.235C186.599 416.045 186.314 415.83 186.114 415.59C185.964 415.4 185.854 415.195 185.784 414.975C185.714 414.745 185.679 414.495 185.679 414.225C185.679 413.895 185.749 413.595 185.889 413.325C186.039 413.045 186.239 412.805 186.489 412.605C186.749 412.395 187.049 412.235 187.389 412.125C187.739 412.015 188.109 411.96 188.499 411.96C188.869 411.96 189.234 412.01 189.594 412.11C189.964 412.21 190.304 412.355 190.614 412.545C190.924 412.735 191.184 412.96 191.394 413.22L190.509 414.195C190.319 414.005 190.109 413.84 189.879 413.7C189.659 413.55 189.434 413.435 189.204 413.355C188.974 413.275 188.764 413.235 188.574 413.235C188.364 413.235 188.174 413.255 188.004 413.295C187.834 413.335 187.689 413.395 187.569 413.475C187.459 413.555 187.374 413.655 187.314 413.775C187.254 413.895 187.224 414.03 187.224 414.18C187.234 414.31 187.264 414.435 187.314 414.555C187.374 414.665 187.454 414.76 187.554 414.84C187.664 414.92 187.829 415.005 188.049 415.095C188.269 415.185 188.549 415.27 188.889 415.35C189.389 415.48 189.799 415.625 190.119 415.785C190.449 415.935 190.709 416.11 190.899 416.31C191.099 416.5 191.239 416.72 191.319 416.97C191.399 417.22 191.439 417.5 191.439 417.81C191.439 418.26 191.309 418.665 191.049 419.025C190.799 419.375 190.459 419.65 190.029 419.85C189.599 420.05 189.119 420.15 188.589 420.15Z" fill="#C4C4C4"/>
<path d="M327.71 419.15C327.14 419.15 326.61 419.075 326.12 418.925C325.64 418.775 325.2 418.55 324.8 418.25C324.41 417.94 324.06 417.56 323.75 417.11L324.86 415.835C325.35 416.535 325.82 417.02 326.27 417.29C326.72 417.56 327.255 417.695 327.875 417.695C328.255 417.695 328.6 417.635 328.91 417.515C329.22 417.395 329.465 417.23 329.645 417.02C329.825 416.81 329.915 416.57 329.915 416.3C329.915 416.12 329.885 415.95 329.825 415.79C329.765 415.63 329.67 415.485 329.54 415.355C329.42 415.225 329.26 415.105 329.06 414.995C328.87 414.885 328.645 414.79 328.385 414.71C328.125 414.62 327.825 414.545 327.485 414.485C326.945 414.375 326.475 414.23 326.075 414.05C325.675 413.87 325.34 413.645 325.07 413.375C324.8 413.105 324.6 412.8 324.47 412.46C324.34 412.11 324.275 411.72 324.275 411.29C324.275 410.87 324.365 410.48 324.545 410.12C324.735 409.76 324.99 409.45 325.31 409.19C325.64 408.92 326.025 408.715 326.465 408.575C326.905 408.425 327.38 408.35 327.89 408.35C328.43 408.35 328.925 408.42 329.375 408.56C329.825 408.7 330.225 408.91 330.575 409.19C330.925 409.46 331.215 409.795 331.445 410.195L330.305 411.32C330.105 410.99 329.88 410.715 329.63 410.495C329.38 410.265 329.105 410.095 328.805 409.985C328.505 409.865 328.185 409.805 327.845 409.805C327.455 409.805 327.115 409.865 326.825 409.985C326.535 410.105 326.305 410.275 326.135 410.495C325.975 410.705 325.895 410.955 325.895 411.245C325.895 411.455 325.935 411.65 326.015 411.83C326.095 412 326.215 412.155 326.375 412.295C326.545 412.425 326.77 412.545 327.05 412.655C327.33 412.755 327.665 412.845 328.055 412.925C328.605 413.045 329.095 413.2 329.525 413.39C329.955 413.57 330.32 413.785 330.62 414.035C330.92 414.285 331.145 414.565 331.295 414.875C331.455 415.185 331.535 415.52 331.535 415.88C331.535 416.55 331.38 417.13 331.07 417.62C330.76 418.11 330.32 418.49 329.75 418.76C329.18 419.02 328.5 419.15 327.71 419.15ZM336.2 419.15C335.64 419.15 335.15 419.02 334.73 418.76C334.32 418.5 334 418.135 333.77 417.665C333.55 417.195 333.44 416.635 333.44 415.985V411.125H334.985V415.565C334.985 416.025 335.055 416.425 335.195 416.765C335.345 417.095 335.555 417.35 335.825 417.53C336.105 417.71 336.44 417.8 336.83 417.8C337.12 417.8 337.385 417.755 337.625 417.665C337.865 417.565 338.07 417.43 338.24 417.26C338.42 417.09 338.56 416.885 338.66 416.645C338.76 416.405 338.81 416.145 338.81 415.865V411.125H340.355V419H338.81V417.35L339.08 417.17C338.96 417.54 338.755 417.875 338.465 418.175C338.185 418.475 337.85 418.715 337.46 418.895C337.07 419.065 336.65 419.15 336.2 419.15ZM346.662 419.15C346.322 419.15 345.982 419.095 345.642 418.985C345.312 418.875 345.007 418.73 344.727 418.55C344.457 418.36 344.227 418.155 344.037 417.935C343.857 417.705 343.737 417.475 343.677 417.245L344.067 417.035V418.955H342.522V407.9H344.067V412.925L343.827 412.79C343.877 412.56 343.987 412.34 344.157 412.13C344.327 411.91 344.542 411.715 344.802 411.545C345.072 411.365 345.362 411.225 345.672 411.125C345.982 411.015 346.297 410.96 346.617 410.96C347.327 410.96 347.957 411.135 348.507 411.485C349.057 411.835 349.492 412.32 349.812 412.94C350.132 413.55 350.292 414.25 350.292 415.04C350.292 415.83 350.132 416.535 349.812 417.155C349.502 417.775 349.072 418.265 348.522 418.625C347.972 418.975 347.352 419.15 346.662 419.15ZM346.407 417.74C346.867 417.74 347.277 417.625 347.637 417.395C347.997 417.155 348.282 416.835 348.492 416.435C348.702 416.025 348.807 415.56 348.807 415.04C348.807 414.53 348.702 414.075 348.492 413.675C348.292 413.265 348.012 412.945 347.652 412.715C347.292 412.485 346.877 412.37 346.407 412.37C345.937 412.37 345.522 412.485 345.162 412.715C344.802 412.945 344.517 413.265 344.307 413.675C344.097 414.075 343.992 414.53 343.992 415.04C343.992 415.56 344.097 416.025 344.307 416.435C344.517 416.835 344.802 417.155 345.162 417.395C345.522 417.625 345.937 417.74 346.407 417.74ZM351.941 419V411.125H353.501V412.805L353.216 412.985C353.296 412.725 353.421 412.475 353.591 412.235C353.771 411.995 353.986 411.785 354.236 411.605C354.496 411.415 354.771 411.265 355.061 411.155C355.361 411.045 355.666 410.99 355.976 410.99C356.426 410.99 356.821 411.065 357.161 411.215C357.501 411.365 357.781 411.59 358.001 411.89C358.221 412.19 358.381 412.565 358.481 413.015L358.241 412.955L358.346 412.7C358.456 412.47 358.606 412.255 358.796 412.055C358.996 411.845 359.221 411.66 359.471 411.5C359.721 411.34 359.986 411.215 360.266 411.125C360.546 411.035 360.821 410.99 361.091 410.99C361.681 410.99 362.166 411.11 362.546 411.35C362.936 411.59 363.226 411.955 363.416 412.445C363.616 412.935 363.716 413.545 363.716 414.275V419H362.156V414.365C362.156 413.915 362.096 413.55 361.976 413.27C361.866 412.98 361.696 412.765 361.466 412.625C361.236 412.485 360.941 412.415 360.581 412.415C360.301 412.415 360.036 412.465 359.786 412.565C359.546 412.655 359.336 412.785 359.156 412.955C358.976 413.125 358.836 413.325 358.736 413.555C358.636 413.775 358.586 414.02 358.586 414.29V419H357.026V414.335C357.026 413.925 356.966 413.58 356.846 413.3C356.726 413.01 356.551 412.79 356.321 412.64C356.091 412.49 355.811 412.415 355.481 412.415C355.201 412.415 354.941 412.465 354.701 412.565C354.461 412.655 354.251 412.785 354.071 412.955C353.891 413.115 353.751 413.31 353.651 413.54C353.551 413.76 353.501 414 353.501 414.26V419H351.941ZM366.039 419V411.125H367.584V419H366.039ZM366.789 409.385C366.459 409.385 366.204 409.3 366.024 409.13C365.844 408.96 365.754 408.72 365.754 408.41C365.754 408.12 365.844 407.885 366.024 407.705C366.214 407.525 366.469 407.435 366.789 407.435C367.119 407.435 367.374 407.52 367.554 407.69C367.734 407.86 367.824 408.1 367.824 408.41C367.824 408.7 367.729 408.935 367.539 409.115C367.359 409.295 367.109 409.385 366.789 409.385ZM370.934 419V409.115H372.479V419H370.934ZM369.299 412.625V411.125H374.309V412.625H369.299Z" fill="white"/>
<path d="M262.55 410.756L266.906 406.916V418.656C266.906 418.985 267.172 419.25 267.5 419.25C267.828 419.25 268.094 418.985 268.094 418.656V406.916L272.45 410.787C272.562 410.89 272.703 410.938 272.844 410.938C273.007 410.938 273.171 410.871 273.288 410.738C273.506 410.494 273.483 410.118 273.238 409.9L267.894 405.15C267.669 404.95 267.331 404.95 267.106 405.15L261.762 409.9C261.517 410.118 261.494 410.492 261.711 410.737C261.928 410.982 262.308 411.005 262.55 410.756ZM274.625 416.875H270.469C270.141 416.875 269.875 417.141 269.875 417.469C269.875 417.797 270.141 418.063 270.469 418.063H274.625C275.281 418.063 275.812 418.594 275.812 419.25V421.625C275.812 422.281 275.281 422.813 274.625 422.813H260.375C259.719 422.813 259.188 422.281 259.188 421.625V419.25C259.188 418.594 259.719 418.063 260.375 418.063H264.531C264.858 418.063 265.125 417.795 265.125 417.469C265.125 417.142 264.858 416.875 264.531 416.875H260.375C259.063 416.875 258 417.938 258 419.25V421.625C258 422.937 259.063 424 260.375 424H274.625C275.937 424 277 422.937 277 421.625V419.25C277 417.94 275.935 416.875 274.625 416.875ZM274.328 420.438C274.328 419.946 273.929 419.547 273.438 419.547C272.946 419.547 272.547 419.946 272.547 420.438C272.547 420.929 272.946 421.328 273.438 421.328C273.929 421.328 274.328 420.931 274.328 420.438Z" fill="black"/>
</g>
<defs>
<clipPath id="clip0_83_696">
<rect width="480" height="540" fill="white"/>
</clipPath>
</defs>
</svg>
