<svg width="480" height="540" viewBox="0 0 480 540" fill="none" xmlns="http://www.w3.org/2000/svg">
<path d="M396 76H85C75.6112 76 68 83.6112 68 93V447C68 456.389 75.6112 464 85 464H396C405.389 464 413 456.389 413 447V93C413 83.6112 405.389 76 396 76Z" fill="#F1F5F7"/>
<path d="M84.533 121V118.291H86.99V109.009H84.533V106.3H92.597V109.009H90.14V118.291H92.597V121H84.533ZM95.6267 121V109.891H98.4827L98.5667 112.159L97.9787 112.411C98.1327 111.907 98.4057 111.452 98.7977 111.046C99.2037 110.626 99.6867 110.29 100.247 110.038C100.807 109.786 101.395 109.66 102.011 109.66C102.851 109.66 103.551 109.828 104.111 110.164C104.685 110.5 105.112 111.011 105.392 111.697C105.686 112.369 105.833 113.202 105.833 114.196V121H102.851V114.427C102.851 113.923 102.781 113.503 102.641 113.167C102.501 112.831 102.284 112.586 101.99 112.432C101.71 112.278 101.36 112.208 100.94 112.222C100.604 112.222 100.289 112.278 99.9947 112.39C99.7147 112.488 99.4697 112.635 99.2597 112.831C99.0637 113.027 98.9027 113.251 98.7767 113.503C98.6647 113.755 98.6087 114.028 98.6087 114.322V121H97.1387C96.8167 121 96.5297 121 96.2777 121C96.0257 121 95.8087 121 95.6267 121ZM112.176 121L107.514 109.891H110.79L113.751 118.186L113.058 118.312L116.166 109.891H119.358L114.465 121H112.176ZM126.038 121.21C124.904 121.21 123.889 120.965 122.993 120.475C122.111 119.971 121.411 119.285 120.893 118.417C120.389 117.549 120.137 116.555 120.137 115.435C120.137 114.315 120.389 113.321 120.893 112.453C121.411 111.585 122.111 110.906 122.993 110.416C123.889 109.912 124.904 109.66 126.038 109.66C127.158 109.66 128.159 109.912 129.041 110.416C129.937 110.906 130.637 111.585 131.141 112.453C131.645 113.321 131.897 114.315 131.897 115.435C131.897 116.555 131.645 117.549 131.141 118.417C130.637 119.285 129.937 119.971 129.041 120.475C128.159 120.965 127.158 121.21 126.038 121.21ZM126.038 118.606C126.584 118.606 127.074 118.473 127.508 118.207C127.942 117.927 128.278 117.549 128.516 117.073C128.768 116.583 128.887 116.037 128.873 115.435C128.887 114.819 128.768 114.273 128.516 113.797C128.278 113.307 127.942 112.929 127.508 112.663C127.074 112.383 126.584 112.243 126.038 112.243C125.478 112.243 124.981 112.383 124.547 112.663C124.113 112.943 123.77 113.321 123.518 113.797C123.266 114.273 123.147 114.819 123.161 115.435C123.147 116.037 123.266 116.583 123.518 117.073C123.77 117.549 124.113 117.927 124.547 118.207C124.981 118.473 125.478 118.606 126.038 118.606ZM134.413 121V109.891H137.395V121H134.413ZM135.883 107.623C135.309 107.623 134.861 107.483 134.539 107.203C134.217 106.909 134.056 106.503 134.056 105.985C134.056 105.509 134.217 105.124 134.539 104.83C134.875 104.522 135.323 104.368 135.883 104.368C136.457 104.368 136.905 104.515 137.227 104.809C137.549 105.089 137.71 105.481 137.71 105.985C137.71 106.461 137.542 106.853 137.206 107.161C136.884 107.469 136.443 107.623 135.883 107.623ZM145.41 121.21C144.346 121.21 143.394 120.958 142.554 120.454C141.714 119.95 141.049 119.264 140.559 118.396C140.083 117.528 139.845 116.541 139.845 115.435C139.845 114.329 140.083 113.342 140.559 112.474C141.049 111.606 141.714 110.92 142.554 110.416C143.394 109.912 144.346 109.66 145.41 109.66C146.404 109.66 147.314 109.842 148.14 110.206C148.966 110.57 149.61 111.074 150.072 111.718L148.434 113.692C148.238 113.426 147.993 113.188 147.699 112.978C147.405 112.754 147.083 112.579 146.733 112.453C146.397 112.327 146.047 112.264 145.683 112.264C145.109 112.264 144.598 112.404 144.15 112.684C143.716 112.95 143.373 113.321 143.121 113.797C142.869 114.273 142.743 114.819 142.743 115.435C142.743 116.023 142.869 116.555 143.121 117.031C143.387 117.507 143.744 117.885 144.192 118.165C144.64 118.445 145.144 118.585 145.704 118.585C146.068 118.585 146.411 118.536 146.733 118.438C147.055 118.34 147.356 118.186 147.636 117.976C147.93 117.766 148.196 117.514 148.434 117.22L150.051 119.194C149.589 119.796 148.931 120.286 148.077 120.664C147.237 121.028 146.348 121.21 145.41 121.21ZM157.233 121.21C156.029 121.21 154.972 120.965 154.062 120.475C153.166 119.985 152.466 119.313 151.962 118.459C151.472 117.605 151.227 116.625 151.227 115.519C151.227 114.651 151.367 113.86 151.647 113.146C151.927 112.432 152.319 111.816 152.823 111.298C153.327 110.766 153.922 110.36 154.608 110.08C155.308 109.786 156.064 109.639 156.876 109.639C157.632 109.639 158.332 109.779 158.976 110.059C159.62 110.339 160.173 110.731 160.635 111.235C161.111 111.725 161.475 112.313 161.727 112.999C161.979 113.671 162.091 114.399 162.063 115.183L162.042 116.107H153.117L152.634 114.28H159.585L159.249 114.658V114.196C159.221 113.818 159.095 113.482 158.871 113.188C158.661 112.88 158.388 112.642 158.052 112.474C157.716 112.292 157.338 112.201 156.918 112.201C156.302 112.201 155.777 112.32 155.343 112.558C154.923 112.796 154.601 113.146 154.377 113.608C154.153 114.07 154.041 114.63 154.041 115.288C154.041 115.96 154.181 116.541 154.461 117.031C154.755 117.521 155.161 117.906 155.679 118.186C156.211 118.452 156.834 118.585 157.548 118.585C158.038 118.585 158.486 118.508 158.892 118.354C159.298 118.2 159.732 117.934 160.194 117.556L161.622 119.551C161.216 119.915 160.768 120.223 160.278 120.475C159.788 120.713 159.284 120.895 158.766 121.021C158.248 121.147 157.737 121.21 157.233 121.21ZM171.126 121V106.3H177.363C178.245 106.3 179.036 106.51 179.736 106.93C180.436 107.336 180.989 107.896 181.395 108.61C181.815 109.324 182.025 110.129 182.025 111.025C182.025 111.935 181.815 112.754 181.395 113.482C180.989 114.21 180.436 114.791 179.736 115.225C179.036 115.645 178.245 115.855 177.363 115.855H174.276V121H171.126ZM174.234 113.02H177.006C177.342 113.02 177.643 112.936 177.909 112.768C178.175 112.586 178.385 112.348 178.539 112.054C178.707 111.76 178.791 111.424 178.791 111.046C178.791 110.668 178.707 110.339 178.539 110.059C178.385 109.779 178.175 109.555 177.909 109.387C177.643 109.219 177.342 109.135 177.006 109.135H174.234V113.02ZM184.426 121V109.891H187.303L187.408 113.461L186.904 112.726C187.072 112.152 187.345 111.634 187.723 111.172C188.101 110.696 188.542 110.325 189.046 110.059C189.564 109.793 190.103 109.66 190.663 109.66C190.901 109.66 191.132 109.681 191.356 109.723C191.58 109.765 191.769 109.814 191.923 109.87L191.125 113.146C190.971 113.062 190.768 112.992 190.516 112.936C190.278 112.866 190.033 112.831 189.781 112.831C189.445 112.831 189.13 112.894 188.836 113.02C188.556 113.132 188.311 113.3 188.101 113.524C187.891 113.734 187.723 113.986 187.597 114.28C187.485 114.574 187.429 114.896 187.429 115.246V121H184.426ZM198.328 121.21C197.194 121.21 196.179 120.965 195.283 120.475C194.401 119.971 193.701 119.285 193.183 118.417C192.679 117.549 192.427 116.555 192.427 115.435C192.427 114.315 192.679 113.321 193.183 112.453C193.701 111.585 194.401 110.906 195.283 110.416C196.179 109.912 197.194 109.66 198.328 109.66C199.448 109.66 200.449 109.912 201.331 110.416C202.227 110.906 202.927 111.585 203.431 112.453C203.935 113.321 204.187 114.315 204.187 115.435C204.187 116.555 203.935 117.549 203.431 118.417C202.927 119.285 202.227 119.971 201.331 120.475C200.449 120.965 199.448 121.21 198.328 121.21ZM198.328 118.606C198.874 118.606 199.364 118.473 199.798 118.207C200.232 117.927 200.568 117.549 200.806 117.073C201.058 116.583 201.177 116.037 201.163 115.435C201.177 114.819 201.058 114.273 200.806 113.797C200.568 113.307 200.232 112.929 199.798 112.663C199.364 112.383 198.874 112.243 198.328 112.243C197.768 112.243 197.271 112.383 196.837 112.663C196.403 112.943 196.06 113.321 195.808 113.797C195.556 114.273 195.437 114.819 195.451 115.435C195.437 116.037 195.556 116.583 195.808 117.073C196.06 117.549 196.403 117.927 196.837 118.207C197.271 118.473 197.768 118.606 198.328 118.606ZM206.902 121V109.114C206.902 108.428 207.056 107.805 207.364 107.245C207.672 106.685 208.092 106.244 208.624 105.922C209.17 105.6 209.807 105.439 210.535 105.439C211.025 105.439 211.487 105.523 211.921 105.691C212.355 105.845 212.726 106.055 213.034 106.321L212.152 108.526C211.97 108.414 211.781 108.323 211.585 108.253C211.403 108.169 211.235 108.127 211.081 108.127C210.815 108.127 210.591 108.176 210.409 108.274C210.241 108.358 210.115 108.491 210.031 108.673C209.947 108.841 209.905 109.058 209.905 109.324V121H208.414C208.092 121 207.805 121 207.553 121C207.301 121 207.084 121 206.902 121ZM205.243 112.684V110.164H212.299V112.684H205.243ZM214.546 121V109.891H217.528V121H214.546ZM216.016 107.623C215.442 107.623 214.994 107.483 214.672 107.203C214.35 106.909 214.189 106.503 214.189 105.985C214.189 105.509 214.35 105.124 214.672 104.83C215.008 104.522 215.456 104.368 216.016 104.368C216.59 104.368 217.038 104.515 217.36 104.809C217.682 105.089 217.843 105.481 217.843 105.985C217.843 106.461 217.675 106.853 217.339 107.161C217.017 107.469 216.576 107.623 216.016 107.623ZM220.745 121V105.46H223.727V121H220.745ZM231.82 121.21C230.616 121.21 229.559 120.965 228.649 120.475C227.753 119.985 227.053 119.313 226.549 118.459C226.059 117.605 225.814 116.625 225.814 115.519C225.814 114.651 225.954 113.86 226.234 113.146C226.514 112.432 226.906 111.816 227.41 111.298C227.914 110.766 228.509 110.36 229.195 110.08C229.895 109.786 230.651 109.639 231.463 109.639C232.219 109.639 232.919 109.779 233.563 110.059C234.207 110.339 234.76 110.731 235.222 111.235C235.698 111.725 236.062 112.313 236.314 112.999C236.566 113.671 236.678 114.399 236.65 115.183L236.629 116.107H227.704L227.221 114.28H234.172L233.836 114.658V114.196C233.808 113.818 233.682 113.482 233.458 113.188C233.248 112.88 232.975 112.642 232.639 112.474C232.303 112.292 231.925 112.201 231.505 112.201C230.889 112.201 230.364 112.32 229.93 112.558C229.51 112.796 229.188 113.146 228.964 113.608C228.74 114.07 228.628 114.63 228.628 115.288C228.628 115.96 228.768 116.541 229.048 117.031C229.342 117.521 229.748 117.906 230.266 118.186C230.798 118.452 231.421 118.585 232.135 118.585C232.625 118.585 233.073 118.508 233.479 118.354C233.885 118.2 234.319 117.934 234.781 117.556L236.209 119.551C235.803 119.915 235.355 120.223 234.865 120.475C234.375 120.713 233.871 120.895 233.353 121.021C232.835 121.147 232.324 121.21 231.82 121.21ZM242.591 121.21C241.555 121.21 240.631 121.042 239.819 120.706C239.021 120.356 238.377 119.88 237.887 119.278L239.756 117.682C240.176 118.144 240.652 118.48 241.184 118.69C241.716 118.886 242.248 118.984 242.78 118.984C242.99 118.984 243.179 118.963 243.347 118.921C243.529 118.865 243.683 118.795 243.809 118.711C243.935 118.613 244.026 118.501 244.082 118.375C244.152 118.235 244.187 118.088 244.187 117.934C244.187 117.626 244.061 117.388 243.809 117.22C243.669 117.136 243.452 117.045 243.158 116.947C242.864 116.835 242.486 116.716 242.024 116.59C241.31 116.408 240.701 116.198 240.197 115.96C239.707 115.708 239.315 115.428 239.021 115.12C238.769 114.826 238.573 114.511 238.433 114.175C238.307 113.825 238.244 113.44 238.244 113.02C238.244 112.516 238.356 112.061 238.58 111.655C238.804 111.235 239.112 110.878 239.504 110.584C239.91 110.29 240.372 110.066 240.89 109.912C241.408 109.744 241.954 109.66 242.528 109.66C243.102 109.66 243.662 109.73 244.208 109.87C244.754 110.01 245.258 110.213 245.72 110.479C246.196 110.731 246.609 111.032 246.959 111.382L245.363 113.146C245.111 112.908 244.824 112.691 244.502 112.495C244.194 112.299 243.872 112.145 243.536 112.033C243.2 111.921 242.899 111.865 242.633 111.865C242.395 111.865 242.178 111.886 241.982 111.928C241.8 111.97 241.646 112.04 241.52 112.138C241.394 112.222 241.296 112.327 241.226 112.453C241.17 112.579 241.142 112.719 241.142 112.873C241.142 113.027 241.177 113.174 241.247 113.314C241.331 113.454 241.443 113.573 241.583 113.671C241.737 113.755 241.961 113.853 242.255 113.965C242.563 114.077 242.976 114.203 243.494 114.343C244.166 114.525 244.733 114.728 245.195 114.952C245.671 115.176 246.049 115.435 246.329 115.729C246.567 115.981 246.742 116.268 246.854 116.59C246.966 116.912 247.022 117.269 247.022 117.661C247.022 118.347 246.826 118.956 246.434 119.488C246.056 120.02 245.531 120.44 244.859 120.748C244.187 121.056 243.431 121.21 242.591 121.21Z" fill="black"/>
<rect x="83.5" y="143.5" width="314" height="61" rx="8.5" stroke="#C4C4C4" stroke-dasharray="7 7"/>
<path d="M104.55 180.09C103.74 180.09 103.015 179.915 102.375 179.565C101.735 179.205 101.23 178.715 100.86 178.095C100.5 177.465 100.32 176.755 100.32 175.965V169.485H101.94V175.83C101.94 176.34 102.06 176.8 102.3 177.21C102.54 177.61 102.855 177.93 103.245 178.17C103.645 178.41 104.08 178.53 104.55 178.53C105.05 178.53 105.5 178.41 105.9 178.17C106.31 177.93 106.635 177.61 106.875 177.21C107.115 176.8 107.235 176.34 107.235 175.83V169.485H108.78V175.965C108.78 176.755 108.595 177.465 108.225 178.095C107.865 178.715 107.365 179.205 106.725 179.565C106.085 179.915 105.36 180.09 104.55 180.09ZM111.184 183.3V172.125H112.744V173.925L112.504 173.79C112.564 173.49 112.734 173.205 113.014 172.935C113.294 172.655 113.634 172.43 114.034 172.26C114.444 172.08 114.864 171.99 115.294 171.99C116.004 171.99 116.634 172.165 117.184 172.515C117.734 172.865 118.169 173.345 118.489 173.955C118.809 174.565 118.969 175.265 118.969 176.055C118.969 176.835 118.809 177.535 118.489 178.155C118.179 178.765 117.749 179.25 117.199 179.61C116.649 179.96 116.029 180.135 115.339 180.135C114.879 180.135 114.434 180.045 114.004 179.865C113.574 179.675 113.209 179.435 112.909 179.145C112.609 178.855 112.424 178.555 112.354 178.245L112.744 178.035V183.3H111.184ZM115.084 178.71C115.544 178.71 115.954 178.595 116.314 178.365C116.674 178.135 116.959 177.82 117.169 177.42C117.379 177.02 117.484 176.565 117.484 176.055C117.484 175.545 117.379 175.095 117.169 174.705C116.969 174.305 116.689 173.99 116.329 173.76C115.969 173.53 115.554 173.415 115.084 173.415C114.614 173.415 114.199 173.53 113.839 173.76C113.479 173.98 113.194 174.29 112.984 174.69C112.774 175.09 112.669 175.545 112.669 176.055C112.669 176.565 112.774 177.02 112.984 177.42C113.194 177.82 113.479 178.135 113.839 178.365C114.199 178.595 114.614 178.71 115.084 178.71ZM120.676 180V168.9H122.221V180H120.676ZM127.805 180.15C127.035 180.15 126.345 179.975 125.735 179.625C125.135 179.265 124.66 178.78 124.31 178.17C123.96 177.55 123.785 176.845 123.785 176.055C123.785 175.265 123.96 174.565 124.31 173.955C124.66 173.335 125.135 172.85 125.735 172.5C126.345 172.14 127.035 171.96 127.805 171.96C128.565 171.96 129.245 172.14 129.845 172.5C130.455 172.85 130.935 173.335 131.285 173.955C131.635 174.565 131.81 175.265 131.81 176.055C131.81 176.845 131.635 177.55 131.285 178.17C130.935 178.78 130.455 179.265 129.845 179.625C129.245 179.975 128.565 180.15 127.805 180.15ZM127.805 178.74C128.275 178.74 128.695 178.625 129.065 178.395C129.435 178.155 129.725 177.835 129.935 177.435C130.145 177.025 130.245 176.565 130.235 176.055C130.245 175.535 130.145 175.075 129.935 174.675C129.725 174.265 129.435 173.945 129.065 173.715C128.695 173.485 128.275 173.37 127.805 173.37C127.335 173.37 126.91 173.49 126.53 173.73C126.16 173.96 125.87 174.28 125.66 174.69C125.45 175.09 125.35 175.545 125.36 176.055C125.35 176.565 125.45 177.025 125.66 177.435C125.87 177.835 126.16 178.155 126.53 178.395C126.91 178.625 127.335 178.74 127.805 178.74ZM136.523 180.15C135.873 180.15 135.278 179.97 134.738 179.61C134.208 179.25 133.783 178.76 133.463 178.14C133.143 177.52 132.983 176.82 132.983 176.04C132.983 175.25 133.143 174.55 133.463 173.94C133.793 173.32 134.233 172.835 134.783 172.485C135.343 172.135 135.968 171.96 136.658 171.96C137.068 171.96 137.443 172.02 137.783 172.14C138.123 172.26 138.418 172.43 138.668 172.65C138.928 172.86 139.138 173.105 139.298 173.385C139.468 173.665 139.573 173.965 139.613 174.285L139.268 174.165V172.125H140.828V180H139.268V178.125L139.628 178.02C139.568 178.29 139.443 178.555 139.253 178.815C139.073 179.065 138.838 179.29 138.548 179.49C138.268 179.69 137.953 179.85 137.603 179.97C137.263 180.09 136.903 180.15 136.523 180.15ZM136.928 178.725C137.398 178.725 137.813 178.61 138.173 178.38C138.533 178.15 138.813 177.835 139.013 177.435C139.223 177.025 139.328 176.56 139.328 176.04C139.328 175.53 139.223 175.075 139.013 174.675C138.813 174.275 138.533 173.96 138.173 173.73C137.813 173.5 137.398 173.385 136.928 173.385C136.468 173.385 136.058 173.5 135.698 173.73C135.348 173.96 135.068 174.275 134.858 174.675C134.658 175.075 134.558 175.53 134.558 176.04C134.558 176.56 134.658 177.025 134.858 177.435C135.068 177.835 135.348 178.15 135.698 178.38C136.058 178.61 136.468 178.725 136.928 178.725ZM146.27 180.15C145.55 180.15 144.905 179.975 144.335 179.625C143.775 179.265 143.33 178.78 143 178.17C142.67 177.55 142.505 176.845 142.505 176.055C142.505 175.265 142.665 174.565 142.985 173.955C143.315 173.335 143.76 172.85 144.32 172.5C144.88 172.14 145.515 171.96 146.225 171.96C146.615 171.96 146.99 172.025 147.35 172.155C147.72 172.275 148.05 172.445 148.34 172.665C148.63 172.875 148.855 173.11 149.015 173.37C149.185 173.62 149.27 173.875 149.27 174.135L148.82 174.165V168.9H150.365V180H148.82V178.125H149.12C149.12 178.365 149.04 178.605 148.88 178.845C148.72 179.075 148.505 179.29 148.235 179.49C147.975 179.69 147.67 179.85 147.32 179.97C146.98 180.09 146.63 180.15 146.27 180.15ZM146.48 178.815C146.95 178.815 147.365 178.695 147.725 178.455C148.085 178.215 148.365 177.89 148.565 177.48C148.775 177.06 148.88 176.585 148.88 176.055C148.88 175.525 148.775 175.055 148.565 174.645C148.365 174.225 148.085 173.895 147.725 173.655C147.365 173.415 146.95 173.295 146.48 173.295C146.01 173.295 145.595 173.415 145.235 173.655C144.875 173.895 144.59 174.225 144.38 174.645C144.18 175.055 144.08 175.525 144.08 176.055C144.08 176.585 144.18 177.06 144.38 177.48C144.59 177.89 144.875 178.215 145.235 178.455C145.595 178.695 146.01 178.815 146.48 178.815ZM157.086 180V169.5H158.706V178.44H163.626V180H157.086ZM168.923 180.15C168.153 180.15 167.463 179.975 166.853 179.625C166.253 179.265 165.778 178.78 165.428 178.17C165.078 177.55 164.903 176.845 164.903 176.055C164.903 175.265 165.078 174.565 165.428 173.955C165.778 173.335 166.253 172.85 166.853 172.5C167.463 172.14 168.153 171.96 168.923 171.96C169.683 171.96 170.363 172.14 170.963 172.5C171.573 172.85 172.053 173.335 172.403 173.955C172.753 174.565 172.928 175.265 172.928 176.055C172.928 176.845 172.753 177.55 172.403 178.17C172.053 178.78 171.573 179.265 170.963 179.625C170.363 179.975 169.683 180.15 168.923 180.15ZM168.923 178.74C169.393 178.74 169.813 178.625 170.183 178.395C170.553 178.155 170.843 177.835 171.053 177.435C171.263 177.025 171.363 176.565 171.353 176.055C171.363 175.535 171.263 175.075 171.053 174.675C170.843 174.265 170.553 173.945 170.183 173.715C169.813 173.485 169.393 173.37 168.923 173.37C168.453 173.37 168.028 173.49 167.648 173.73C167.278 173.96 166.988 174.28 166.778 174.69C166.568 175.09 166.468 175.545 166.478 176.055C166.468 176.565 166.568 177.025 166.778 177.435C166.988 177.835 167.278 178.155 167.648 178.395C168.028 178.625 168.453 178.74 168.923 178.74ZM178.136 183.45C177.576 183.45 177.016 183.36 176.456 183.18C175.906 183.01 175.461 182.785 175.121 182.505L175.691 181.305C175.891 181.455 176.126 181.585 176.396 181.695C176.666 181.815 176.951 181.905 177.251 181.965C177.551 182.035 177.846 182.07 178.136 182.07C178.686 182.07 179.146 181.98 179.516 181.8C179.886 181.62 180.166 181.355 180.356 181.005C180.546 180.655 180.641 180.22 180.641 179.7V178.185L180.806 178.29C180.756 178.6 180.591 178.9 180.311 179.19C180.041 179.47 179.701 179.7 179.291 179.88C178.881 180.06 178.461 180.15 178.031 180.15C177.281 180.15 176.611 179.975 176.021 179.625C175.441 179.265 174.981 178.78 174.641 178.17C174.301 177.55 174.131 176.845 174.131 176.055C174.131 175.265 174.296 174.565 174.626 173.955C174.966 173.335 175.426 172.85 176.006 172.5C176.596 172.14 177.256 171.96 177.986 171.96C178.286 171.96 178.576 172 178.856 172.08C179.136 172.15 179.396 172.255 179.636 172.395C179.876 172.525 180.091 172.67 180.281 172.83C180.471 172.99 180.626 173.16 180.746 173.34C180.866 173.52 180.941 173.69 180.971 173.85L180.641 173.97V172.125H182.186V179.52C182.186 180.15 182.091 180.705 181.901 181.185C181.721 181.675 181.456 182.085 181.106 182.415C180.756 182.755 180.331 183.01 179.831 183.18C179.331 183.36 178.766 183.45 178.136 183.45ZM178.196 178.725C178.686 178.725 179.121 178.61 179.501 178.38C179.881 178.15 180.176 177.835 180.386 177.435C180.596 177.035 180.701 176.575 180.701 176.055C180.701 175.535 180.591 175.075 180.371 174.675C180.161 174.265 179.866 173.945 179.486 173.715C179.116 173.485 178.686 173.37 178.196 173.37C177.716 173.37 177.286 173.49 176.906 173.73C176.536 173.96 176.241 174.28 176.021 174.69C175.811 175.09 175.706 175.545 175.706 176.055C175.706 176.565 175.811 177.025 176.021 177.435C176.241 177.835 176.536 178.15 176.906 178.38C177.286 178.61 177.716 178.725 178.196 178.725ZM187.892 180.15C187.122 180.15 186.432 179.975 185.822 179.625C185.222 179.265 184.747 178.78 184.397 178.17C184.047 177.55 183.872 176.845 183.872 176.055C183.872 175.265 184.047 174.565 184.397 173.955C184.747 173.335 185.222 172.85 185.822 172.5C186.432 172.14 187.122 171.96 187.892 171.96C188.652 171.96 189.332 172.14 189.932 172.5C190.542 172.85 191.022 173.335 191.372 173.955C191.722 174.565 191.897 175.265 191.897 176.055C191.897 176.845 191.722 177.55 191.372 178.17C191.022 178.78 190.542 179.265 189.932 179.625C189.332 179.975 188.652 180.15 187.892 180.15ZM187.892 178.74C188.362 178.74 188.782 178.625 189.152 178.395C189.522 178.155 189.812 177.835 190.022 177.435C190.232 177.025 190.332 176.565 190.322 176.055C190.332 175.535 190.232 175.075 190.022 174.675C189.812 174.265 189.522 173.945 189.152 173.715C188.782 173.485 188.362 173.37 187.892 173.37C187.422 173.37 186.997 173.49 186.617 173.73C186.247 173.96 185.957 174.28 185.747 174.69C185.537 175.09 185.437 175.545 185.447 176.055C185.437 176.565 185.537 177.025 185.747 177.435C185.957 177.835 186.247 178.155 186.617 178.395C186.997 178.625 187.422 178.74 187.892 178.74Z" fill="#C4C4C4"/>
<path d="M375.55 170.756L379.906 166.916V178.656C379.906 178.985 380.172 179.25 380.5 179.25C380.828 179.25 381.094 178.985 381.094 178.656V166.916L385.45 170.787C385.562 170.89 385.703 170.938 385.844 170.938C386.007 170.938 386.171 170.871 386.288 170.738C386.506 170.494 386.483 170.118 386.238 169.9L380.894 165.15C380.669 164.95 380.331 164.95 380.106 165.15L374.762 169.9C374.517 170.118 374.494 170.492 374.711 170.737C374.928 170.982 375.308 171.005 375.55 170.756ZM387.625 176.875H383.469C383.141 176.875 382.875 177.141 382.875 177.469C382.875 177.797 383.141 178.063 383.469 178.063H387.625C388.281 178.063 388.812 178.594 388.812 179.25V181.625C388.812 182.281 388.281 182.813 387.625 182.813H373.375C372.719 182.813 372.188 182.281 372.188 181.625V179.25C372.188 178.594 372.719 178.063 373.375 178.063H377.531C377.858 178.063 378.125 177.795 378.125 177.469C378.125 177.142 377.858 176.875 377.531 176.875H373.375C372.063 176.875 371 177.938 371 179.25V181.625C371 182.937 372.063 184 373.375 184H387.625C388.937 184 390 182.937 390 181.625V179.25C390 177.94 388.935 176.875 387.625 176.875ZM387.328 180.438C387.328 179.946 386.929 179.547 386.438 179.547C385.946 179.547 385.547 179.946 385.547 180.438C385.547 180.929 385.946 181.328 386.438 181.328C386.929 181.328 387.328 180.931 387.328 180.438Z" fill="black"/>
<rect x="83" y="220" width="154" height="62" rx="9" fill="white"/>
<rect x="83" y="292" width="154" height="62" rx="9" fill="white"/>
<rect x="83" y="364" width="315" height="62" rx="9" fill="white"/>
<rect x="244" y="220" width="154" height="62" rx="9" fill="white"/>
<rect x="244" y="292" width="154" height="62" rx="9" fill="white"/>
<path d="M93.98 240V233H94.95L99.23 238.73L99.07 238.82C99.0433 238.653 99.02 238.473 99 238.28C98.98 238.08 98.96 237.87 98.94 237.65C98.9267 237.423 98.9133 237.187 98.9 236.94C98.8933 236.687 98.8867 236.423 98.88 236.15C98.8733 235.877 98.87 235.593 98.87 235.3V233H99.95V240H98.96L94.75 234.48L94.86 234.34C94.8933 234.747 94.92 235.093 94.94 235.38C94.9667 235.66 94.9867 235.9 95 236.1C95.02 236.293 95.0333 236.453 95.04 236.58C95.0467 236.7 95.05 236.8 95.05 236.88C95.0567 236.96 95.06 237.03 95.06 237.09V240H93.98ZM103.67 240.1C103.236 240.1 102.84 239.98 102.48 239.74C102.126 239.5 101.843 239.173 101.63 238.76C101.416 238.347 101.31 237.88 101.31 237.36C101.31 236.833 101.416 236.367 101.63 235.96C101.85 235.547 102.143 235.223 102.51 234.99C102.883 234.757 103.3 234.64 103.76 234.64C104.033 234.64 104.283 234.68 104.51 234.76C104.736 234.84 104.933 234.953 105.1 235.1C105.273 235.24 105.413 235.403 105.52 235.59C105.633 235.777 105.703 235.977 105.73 236.19L105.5 236.11V234.75H106.54V240H105.5V238.75L105.74 238.68C105.7 238.86 105.616 239.037 105.49 239.21C105.37 239.377 105.213 239.527 105.02 239.66C104.833 239.793 104.623 239.9 104.39 239.98C104.163 240.06 103.923 240.1 103.67 240.1ZM103.94 239.15C104.253 239.15 104.53 239.073 104.77 238.92C105.01 238.767 105.196 238.557 105.33 238.29C105.47 238.017 105.54 237.707 105.54 237.36C105.54 237.02 105.47 236.717 105.33 236.45C105.196 236.183 105.01 235.973 104.77 235.82C104.53 235.667 104.253 235.59 103.94 235.59C103.633 235.59 103.36 235.667 103.12 235.82C102.886 235.973 102.7 236.183 102.56 236.45C102.426 236.717 102.36 237.02 102.36 237.36C102.36 237.707 102.426 238.017 102.56 238.29C102.7 238.557 102.886 238.767 103.12 238.92C103.36 239.073 103.633 239.15 103.94 239.15ZM107.958 240V234.75H108.998V235.87L108.808 235.99C108.861 235.817 108.944 235.65 109.058 235.49C109.178 235.33 109.321 235.19 109.488 235.07C109.661 234.943 109.844 234.843 110.038 234.77C110.238 234.697 110.441 234.66 110.648 234.66C110.948 234.66 111.211 234.71 111.438 234.81C111.664 234.91 111.851 235.06 111.998 235.26C112.144 235.46 112.251 235.71 112.318 236.01L112.158 235.97L112.228 235.8C112.301 235.647 112.401 235.503 112.528 235.37C112.661 235.23 112.811 235.107 112.978 235C113.144 234.893 113.321 234.81 113.508 234.75C113.694 234.69 113.878 234.66 114.058 234.66C114.451 234.66 114.774 234.74 115.028 234.9C115.288 235.06 115.481 235.303 115.608 235.63C115.741 235.957 115.808 236.363 115.808 236.85V240H114.768V236.91C114.768 236.61 114.728 236.367 114.648 236.18C114.574 235.987 114.461 235.843 114.308 235.75C114.154 235.657 113.958 235.61 113.718 235.61C113.531 235.61 113.354 235.643 113.188 235.71C113.028 235.77 112.888 235.857 112.768 235.97C112.648 236.083 112.554 236.217 112.488 236.37C112.421 236.517 112.388 236.68 112.388 236.86V240H111.348V236.89C111.348 236.617 111.308 236.387 111.228 236.2C111.148 236.007 111.031 235.86 110.878 235.76C110.724 235.66 110.538 235.61 110.318 235.61C110.131 235.61 109.958 235.643 109.798 235.71C109.638 235.77 109.498 235.857 109.378 235.97C109.258 236.077 109.164 236.207 109.098 236.36C109.031 236.507 108.998 236.667 108.998 236.84V240H107.958ZM119.637 240.1C119.097 240.1 118.617 239.987 118.197 239.76C117.783 239.527 117.457 239.21 117.217 238.81C116.983 238.41 116.867 237.95 116.867 237.43C116.867 237.017 116.933 236.64 117.067 236.3C117.2 235.96 117.383 235.667 117.617 235.42C117.857 235.167 118.14 234.973 118.467 234.84C118.8 234.7 119.16 234.63 119.547 234.63C119.887 234.63 120.203 234.697 120.497 234.83C120.79 234.957 121.043 235.133 121.257 235.36C121.477 235.587 121.643 235.857 121.757 236.17C121.877 236.477 121.933 236.813 121.927 237.18L121.917 237.62H117.627L117.397 236.8H121.027L120.877 236.97V236.73C120.857 236.51 120.783 236.313 120.657 236.14C120.53 235.967 120.37 235.83 120.177 235.73C119.983 235.63 119.773 235.58 119.547 235.58C119.187 235.58 118.883 235.65 118.637 235.79C118.39 235.923 118.203 236.123 118.077 236.39C117.95 236.65 117.887 236.973 117.887 237.36C117.887 237.727 117.963 238.047 118.117 238.32C118.27 238.587 118.487 238.793 118.767 238.94C119.047 239.087 119.37 239.16 119.737 239.16C119.997 239.16 120.237 239.117 120.457 239.03C120.683 238.943 120.927 238.787 121.187 238.56L121.707 239.29C121.547 239.45 121.35 239.59 121.117 239.71C120.89 239.83 120.647 239.927 120.387 240C120.133 240.067 119.883 240.1 119.637 240.1Z" fill="#3B3B3B"/>
<path d="M96.7827 312V305H99.6327C100.013 305 100.356 305.097 100.663 305.29C100.976 305.477 101.226 305.733 101.413 306.06C101.599 306.387 101.693 306.75 101.693 307.15C101.693 307.55 101.599 307.913 101.413 308.24C101.226 308.567 100.976 308.83 100.663 309.03C100.356 309.223 100.013 309.32 99.6327 309.32H97.8627V312H96.7827ZM97.8627 308.28H99.6127C99.7927 308.28 99.9561 308.23 100.103 308.13C100.249 308.023 100.366 307.887 100.453 307.72C100.546 307.547 100.593 307.357 100.593 307.15C100.593 306.943 100.546 306.757 100.453 306.59C100.366 306.423 100.249 306.29 100.103 306.19C99.9561 306.09 99.7927 306.04 99.6127 306.04H97.8627V308.28ZM102.861 312V304.6H103.891V307.83L103.711 307.95C103.777 307.717 103.907 307.503 104.101 307.31C104.294 307.11 104.524 306.95 104.791 306.83C105.057 306.703 105.331 306.64 105.611 306.64C106.011 306.64 106.344 306.72 106.611 306.88C106.877 307.033 107.077 307.27 107.211 307.59C107.344 307.91 107.411 308.313 107.411 308.8V312H106.381V308.87C106.381 308.57 106.341 308.323 106.261 308.13C106.181 307.93 106.057 307.787 105.891 307.7C105.724 307.607 105.517 307.567 105.271 307.58C105.071 307.58 104.887 307.613 104.721 307.68C104.554 307.74 104.407 307.827 104.281 307.94C104.161 308.053 104.064 308.187 103.991 308.34C103.924 308.487 103.891 308.647 103.891 308.82V312H103.381C103.294 312 103.207 312 103.121 312C103.034 312 102.947 312 102.861 312ZM111.168 312.1C110.655 312.1 110.195 311.983 109.788 311.75C109.388 311.51 109.071 311.187 108.838 310.78C108.605 310.367 108.488 309.897 108.488 309.37C108.488 308.843 108.605 308.377 108.838 307.97C109.071 307.557 109.388 307.233 109.788 307C110.195 306.76 110.655 306.64 111.168 306.64C111.675 306.64 112.128 306.76 112.528 307C112.935 307.233 113.255 307.557 113.488 307.97C113.721 308.377 113.838 308.843 113.838 309.37C113.838 309.897 113.721 310.367 113.488 310.78C113.255 311.187 112.935 311.51 112.528 311.75C112.128 311.983 111.675 312.1 111.168 312.1ZM111.168 311.16C111.481 311.16 111.761 311.083 112.008 310.93C112.255 310.77 112.448 310.557 112.588 310.29C112.728 310.017 112.795 309.71 112.788 309.37C112.795 309.023 112.728 308.717 112.588 308.45C112.448 308.177 112.255 307.963 112.008 307.81C111.761 307.657 111.481 307.58 111.168 307.58C110.855 307.58 110.571 307.66 110.318 307.82C110.071 307.973 109.878 308.187 109.738 308.46C109.598 308.727 109.531 309.03 109.538 309.37C109.531 309.71 109.598 310.017 109.738 310.29C109.878 310.557 110.071 310.77 110.318 310.93C110.571 311.083 110.855 311.16 111.168 311.16ZM114.96 312V306.75H115.99V307.83L115.81 307.95C115.877 307.717 116.007 307.503 116.2 307.31C116.394 307.11 116.624 306.95 116.89 306.83C117.157 306.703 117.43 306.64 117.71 306.64C118.11 306.64 118.444 306.72 118.71 306.88C118.977 307.033 119.177 307.27 119.31 307.59C119.444 307.91 119.51 308.313 119.51 308.8V312H118.48V308.87C118.48 308.57 118.44 308.323 118.36 308.13C118.28 307.93 118.157 307.787 117.99 307.7C117.824 307.607 117.617 307.567 117.37 307.58C117.17 307.58 116.987 307.613 116.82 307.68C116.654 307.74 116.507 307.827 116.38 307.94C116.26 308.053 116.164 308.187 116.09 308.34C116.024 308.487 115.99 308.647 115.99 308.82V312H115.48C115.394 312 115.307 312 115.22 312C115.134 312 115.047 312 114.96 312ZM123.358 312.1C122.818 312.1 122.338 311.987 121.918 311.76C121.504 311.527 121.178 311.21 120.938 310.81C120.704 310.41 120.588 309.95 120.588 309.43C120.588 309.017 120.654 308.64 120.788 308.3C120.921 307.96 121.104 307.667 121.338 307.42C121.578 307.167 121.861 306.973 122.188 306.84C122.521 306.7 122.881 306.63 123.268 306.63C123.608 306.63 123.924 306.697 124.218 306.83C124.511 306.957 124.764 307.133 124.978 307.36C125.198 307.587 125.364 307.857 125.478 308.17C125.598 308.477 125.654 308.813 125.648 309.18L125.638 309.62H121.348L121.118 308.8H124.748L124.598 308.97V308.73C124.578 308.51 124.504 308.313 124.378 308.14C124.251 307.967 124.091 307.83 123.898 307.73C123.704 307.63 123.494 307.58 123.268 307.58C122.908 307.58 122.604 307.65 122.358 307.79C122.111 307.923 121.924 308.123 121.798 308.39C121.671 308.65 121.608 308.973 121.608 309.36C121.608 309.727 121.684 310.047 121.838 310.32C121.991 310.587 122.208 310.793 122.488 310.94C122.768 311.087 123.091 311.16 123.458 311.16C123.718 311.16 123.958 311.117 124.178 311.03C124.404 310.943 124.648 310.787 124.908 310.56L125.428 311.29C125.268 311.45 125.071 311.59 124.838 311.71C124.611 311.83 124.368 311.927 124.108 312C123.854 312.067 123.604 312.1 123.358 312.1Z" fill="#3B3B3B"/>
<path d="M93.98 384V377H95.06V384H93.98ZM94.46 381.02V379.98H98.07V381.02H94.46ZM94.46 378.04V377H98.52V378.04H94.46ZM101.949 384.1C101.436 384.1 100.976 383.983 100.569 383.75C100.169 383.51 99.8525 383.187 99.6191 382.78C99.3858 382.367 99.2691 381.897 99.2691 381.37C99.2691 380.843 99.3858 380.377 99.6191 379.97C99.8525 379.557 100.169 379.233 100.569 379C100.976 378.76 101.436 378.64 101.949 378.64C102.456 378.64 102.909 378.76 103.309 379C103.716 379.233 104.036 379.557 104.269 379.97C104.502 380.377 104.619 380.843 104.619 381.37C104.619 381.897 104.502 382.367 104.269 382.78C104.036 383.187 103.716 383.51 103.309 383.75C102.909 383.983 102.456 384.1 101.949 384.1ZM101.949 383.16C102.262 383.16 102.542 383.083 102.789 382.93C103.036 382.77 103.229 382.557 103.369 382.29C103.509 382.017 103.576 381.71 103.569 381.37C103.576 381.023 103.509 380.717 103.369 380.45C103.229 380.177 103.036 379.963 102.789 379.81C102.542 379.657 102.262 379.58 101.949 379.58C101.636 379.58 101.352 379.66 101.099 379.82C100.852 379.973 100.659 380.187 100.519 380.46C100.379 380.727 100.312 381.03 100.319 381.37C100.312 381.71 100.379 382.017 100.519 382.29C100.659 382.557 100.852 382.77 101.099 382.93C101.352 383.083 101.636 383.16 101.949 383.16ZM108.101 384.1C107.588 384.1 107.128 383.983 106.721 383.75C106.321 383.51 106.005 383.187 105.771 382.78C105.538 382.367 105.421 381.897 105.421 381.37C105.421 380.843 105.538 380.377 105.771 379.97C106.005 379.557 106.321 379.233 106.721 379C107.128 378.76 107.588 378.64 108.101 378.64C108.608 378.64 109.061 378.76 109.461 379C109.868 379.233 110.188 379.557 110.421 379.97C110.655 380.377 110.771 380.843 110.771 381.37C110.771 381.897 110.655 382.367 110.421 382.78C110.188 383.187 109.868 383.51 109.461 383.75C109.061 383.983 108.608 384.1 108.101 384.1ZM108.101 383.16C108.415 383.16 108.695 383.083 108.941 382.93C109.188 382.77 109.381 382.557 109.521 382.29C109.661 382.017 109.728 381.71 109.721 381.37C109.728 381.023 109.661 380.717 109.521 380.45C109.381 380.177 109.188 379.963 108.941 379.81C108.695 379.657 108.415 379.58 108.101 379.58C107.788 379.58 107.505 379.66 107.251 379.82C107.005 379.973 106.811 380.187 106.671 380.46C106.531 380.727 106.465 381.03 106.471 381.37C106.465 381.71 106.531 382.017 106.671 382.29C106.811 382.557 107.005 382.77 107.251 382.93C107.505 383.083 107.788 383.16 108.101 383.16ZM112.544 384V377.41H113.574V384H112.544ZM111.454 379.75V378.75H114.794V379.75H111.454ZM118.133 384.1C117.593 384.1 117.113 383.987 116.693 383.76C116.28 383.527 115.953 383.21 115.713 382.81C115.48 382.41 115.363 381.95 115.363 381.43C115.363 381.017 115.43 380.64 115.563 380.3C115.696 379.96 115.88 379.667 116.113 379.42C116.353 379.167 116.636 378.973 116.963 378.84C117.296 378.7 117.656 378.63 118.043 378.63C118.383 378.63 118.7 378.697 118.993 378.83C119.286 378.957 119.54 379.133 119.753 379.36C119.973 379.587 120.14 379.857 120.253 380.17C120.373 380.477 120.43 380.813 120.423 381.18L120.413 381.62H116.123L115.893 380.8H119.523L119.373 380.97V380.73C119.353 380.51 119.28 380.313 119.153 380.14C119.026 379.967 118.866 379.83 118.673 379.73C118.48 379.63 118.27 379.58 118.043 379.58C117.683 379.58 117.38 379.65 117.133 379.79C116.886 379.923 116.7 380.123 116.573 380.39C116.446 380.65 116.383 380.973 116.383 381.36C116.383 381.727 116.46 382.047 116.613 382.32C116.766 382.587 116.983 382.793 117.263 382.94C117.543 383.087 117.866 383.16 118.233 383.16C118.493 383.16 118.733 383.117 118.953 383.03C119.18 382.943 119.423 382.787 119.683 382.56L120.203 383.29C120.043 383.45 119.846 383.59 119.613 383.71C119.386 383.83 119.143 383.927 118.883 384C118.63 384.067 118.38 384.1 118.133 384.1ZM121.542 384V378.75H122.582V380.4L122.482 380C122.556 379.747 122.679 379.517 122.852 379.31C123.032 379.103 123.236 378.94 123.462 378.82C123.696 378.7 123.936 378.64 124.182 378.64C124.296 378.64 124.402 378.65 124.502 378.67C124.609 378.69 124.692 378.713 124.752 378.74L124.482 379.86C124.402 379.827 124.312 379.8 124.212 379.78C124.119 379.753 124.026 379.74 123.932 379.74C123.752 379.74 123.579 379.777 123.412 379.85C123.252 379.917 123.109 380.013 122.982 380.14C122.862 380.26 122.766 380.403 122.692 380.57C122.619 380.73 122.582 380.907 122.582 381.1V384H121.542Z" fill="#3B3B3B"/>
<path d="M254.98 240V233H259.39V234.04H256.06V238.96H259.39V240H254.98ZM255.47 236.93V235.89H258.84V236.93H255.47ZM260.843 240V234.75H261.883V235.87L261.693 235.99C261.746 235.817 261.829 235.65 261.943 235.49C262.063 235.33 262.206 235.19 262.373 235.07C262.546 234.943 262.729 234.843 262.923 234.77C263.123 234.697 263.326 234.66 263.533 234.66C263.833 234.66 264.096 234.71 264.323 234.81C264.549 234.91 264.736 235.06 264.883 235.26C265.029 235.46 265.136 235.71 265.203 236.01L265.043 235.97L265.113 235.8C265.186 235.647 265.286 235.503 265.413 235.37C265.546 235.23 265.696 235.107 265.863 235C266.029 234.893 266.206 234.81 266.393 234.75C266.579 234.69 266.763 234.66 266.943 234.66C267.336 234.66 267.659 234.74 267.913 234.9C268.173 235.06 268.366 235.303 268.493 235.63C268.626 235.957 268.693 236.363 268.693 236.85V240H267.653V236.91C267.653 236.61 267.613 236.367 267.533 236.18C267.459 235.987 267.346 235.843 267.193 235.75C267.039 235.657 266.843 235.61 266.603 235.61C266.416 235.61 266.239 235.643 266.073 235.71C265.913 235.77 265.773 235.857 265.653 235.97C265.533 236.083 265.439 236.217 265.373 236.37C265.306 236.517 265.273 236.68 265.273 236.86V240H264.233V236.89C264.233 236.617 264.193 236.387 264.113 236.2C264.033 236.007 263.916 235.86 263.763 235.76C263.609 235.66 263.423 235.61 263.203 235.61C263.016 235.61 262.843 235.643 262.683 235.71C262.523 235.77 262.383 235.857 262.263 235.97C262.143 236.077 262.049 236.207 261.983 236.36C261.916 236.507 261.883 236.667 261.883 236.84V240H260.843ZM272.092 240.1C271.658 240.1 271.262 239.98 270.902 239.74C270.548 239.5 270.265 239.173 270.052 238.76C269.838 238.347 269.732 237.88 269.732 237.36C269.732 236.833 269.838 236.367 270.052 235.96C270.272 235.547 270.565 235.223 270.932 234.99C271.305 234.757 271.722 234.64 272.182 234.64C272.455 234.64 272.705 234.68 272.932 234.76C273.158 234.84 273.355 234.953 273.522 235.1C273.695 235.24 273.835 235.403 273.942 235.59C274.055 235.777 274.125 235.977 274.152 236.19L273.922 236.11V234.75H274.962V240H273.922V238.75L274.162 238.68C274.122 238.86 274.038 239.037 273.912 239.21C273.792 239.377 273.635 239.527 273.442 239.66C273.255 239.793 273.045 239.9 272.812 239.98C272.585 240.06 272.345 240.1 272.092 240.1ZM272.362 239.15C272.675 239.15 272.952 239.073 273.192 238.92C273.432 238.767 273.618 238.557 273.752 238.29C273.892 238.017 273.962 237.707 273.962 237.36C273.962 237.02 273.892 236.717 273.752 236.45C273.618 236.183 273.432 235.973 273.192 235.82C272.952 235.667 272.675 235.59 272.362 235.59C272.055 235.59 271.782 235.667 271.542 235.82C271.308 235.973 271.122 236.183 270.982 236.45C270.848 236.717 270.782 237.02 270.782 237.36C270.782 237.707 270.848 238.017 270.982 238.29C271.122 238.557 271.308 238.767 271.542 238.92C271.782 239.073 272.055 239.15 272.362 239.15ZM276.57 240V234.75H277.6V240H276.57ZM277.07 233.59C276.85 233.59 276.68 233.533 276.56 233.42C276.44 233.307 276.38 233.147 276.38 232.94C276.38 232.747 276.44 232.59 276.56 232.47C276.686 232.35 276.856 232.29 277.07 232.29C277.29 232.29 277.46 232.347 277.58 232.46C277.7 232.573 277.76 232.733 277.76 232.94C277.76 233.133 277.696 233.29 277.57 233.41C277.45 233.53 277.283 233.59 277.07 233.59ZM279.203 240V232.6H280.233V240H279.203Z" fill="#3B3B3B"/>
<path d="M257.82 312.1C257.333 312.1 256.887 312.013 256.48 311.84C256.073 311.667 255.72 311.42 255.42 311.1C255.12 310.773 254.887 310.39 254.72 309.95C254.56 309.51 254.48 309.027 254.48 308.5C254.48 308 254.567 307.537 254.74 307.11C254.92 306.677 255.167 306.297 255.48 305.97C255.793 305.643 256.157 305.39 256.57 305.21C256.983 305.03 257.43 304.94 257.91 304.94C258.25 304.94 258.58 304.993 258.9 305.1C259.227 305.2 259.52 305.343 259.78 305.53C260.047 305.71 260.263 305.917 260.43 306.15L259.71 306.9C259.517 306.707 259.32 306.547 259.12 306.42C258.927 306.287 258.727 306.187 258.52 306.12C258.32 306.053 258.117 306.02 257.91 306.02C257.583 306.02 257.277 306.083 256.99 306.21C256.71 306.33 256.463 306.5 256.25 306.72C256.043 306.94 255.88 307.203 255.76 307.51C255.64 307.81 255.58 308.14 255.58 308.5C255.58 308.88 255.637 309.227 255.75 309.54C255.87 309.847 256.037 310.11 256.25 310.33C256.463 310.55 256.717 310.72 257.01 310.84C257.31 310.953 257.64 311.01 258 311.01C258.22 311.01 258.437 310.98 258.65 310.92C258.863 310.86 259.063 310.773 259.25 310.66C259.437 310.547 259.607 310.413 259.76 310.26L260.3 311.14C260.147 311.32 259.937 311.483 259.67 311.63C259.41 311.777 259.117 311.893 258.79 311.98C258.47 312.06 258.147 312.1 257.82 312.1ZM261.677 312V306.75H262.707V312H261.677ZM262.177 305.59C261.957 305.59 261.787 305.533 261.667 305.42C261.547 305.307 261.487 305.147 261.487 304.94C261.487 304.747 261.547 304.59 261.667 304.47C261.794 304.35 261.964 304.29 262.177 304.29C262.397 304.29 262.567 304.347 262.687 304.46C262.807 304.573 262.867 304.733 262.867 304.94C262.867 305.133 262.804 305.29 262.677 305.41C262.557 305.53 262.39 305.59 262.177 305.59ZM264.94 312V305.41H265.97V312H264.94ZM263.85 307.75V306.75H267.19V307.75H263.85ZM269.008 314.3L270.068 311.85L270.078 312.67L267.458 306.75H268.658L270.298 310.61C270.332 310.677 270.372 310.78 270.418 310.92C270.465 311.053 270.505 311.187 270.538 311.32L270.278 311.38C270.332 311.24 270.382 311.1 270.428 310.96C270.482 310.82 270.532 310.68 270.578 310.54L271.948 306.75H273.168L271.008 312L270.118 314.3H269.008Z" fill="#3B3B3B"/>
<rect x="104" y="259" width="98" height="7" rx="3.5" fill="#E4E6EA"/>
<rect x="104" y="331" width="112" height="7" rx="3.5" fill="#E4E6EA"/>
<rect x="104" y="403" width="273" height="7" rx="3.5" fill="#E4E6EA"/>
<rect x="265" y="259" width="111" height="7" rx="3.5" fill="#E4E6EA"/>
<rect x="265" y="331" width="112" height="7" rx="3.5" fill="#E4E6EA"/>
<rect x="93.25" y="249.25" width="133.5" height="26.5" rx="3.75" stroke="#E4E6EA" stroke-width="0.5"/>
<rect x="93.25" y="321.25" width="133.5" height="26.5" rx="3.75" stroke="#E4E6EA" stroke-width="0.5"/>
<rect x="93.25" y="393.25" width="294.5" height="26.5" rx="3.75" stroke="#E4E6EA" stroke-width="0.5"/>
<rect x="254.25" y="249.25" width="133.5" height="26.5" rx="3.75" stroke="#E4E6EA" stroke-width="0.5"/>
<rect x="254.25" y="321.25" width="133.5" height="26.5" rx="3.75" stroke="#E4E6EA" stroke-width="0.5"/>
</svg>
