<svg width="480" height="540" viewBox="0 0 480 540" fill="none" xmlns="http://www.w3.org/2000/svg">
<rect x="68" y="76" width="345" height="388" rx="16" fill="#F1F5F7"/>
<path d="M84.911 124V109.3H88.061V121.165H94.718V124H84.911ZM102.087 124.21C100.883 124.21 99.8262 123.965 98.9162 123.475C98.0202 122.985 97.3202 122.313 96.8162 121.459C96.3262 120.605 96.0812 119.625 96.0812 118.519C96.0812 117.651 96.2212 116.86 96.5012 116.146C96.7812 115.432 97.1732 114.816 97.6772 114.298C98.1812 113.766 98.7762 113.36 99.4622 113.08C100.162 112.786 100.918 112.639 101.73 112.639C102.486 112.639 103.186 112.779 103.83 113.059C104.474 113.339 105.027 113.731 105.489 114.235C105.965 114.725 106.329 115.313 106.581 115.999C106.833 116.671 106.945 117.399 106.917 118.183L106.896 119.107H97.9712L97.4882 117.28H104.439L104.103 117.658V117.196C104.075 116.818 103.949 116.482 103.725 116.188C103.515 115.88 103.242 115.642 102.906 115.474C102.57 115.292 102.192 115.201 101.772 115.201C101.156 115.201 100.631 115.32 100.197 115.558C99.7772 115.796 99.4552 116.146 99.2312 116.608C99.0072 117.07 98.8952 117.63 98.8952 118.288C98.8952 118.96 99.0352 119.541 99.3152 120.031C99.6092 120.521 100.015 120.906 100.533 121.186C101.065 121.452 101.688 121.585 102.402 121.585C102.892 121.585 103.34 121.508 103.746 121.354C104.152 121.2 104.586 120.934 105.048 120.556L106.476 122.551C106.07 122.915 105.622 123.223 105.132 123.475C104.642 123.713 104.138 123.895 103.62 124.021C103.102 124.147 102.591 124.21 102.087 124.21ZM113.279 124.21C112.355 124.21 111.522 123.958 110.78 123.454C110.038 122.95 109.45 122.264 109.016 121.396C108.582 120.528 108.365 119.534 108.365 118.414C108.365 117.294 108.582 116.3 109.016 115.432C109.464 114.564 110.066 113.885 110.822 113.395C111.578 112.905 112.439 112.66 113.405 112.66C113.951 112.66 114.448 112.744 114.896 112.912C115.358 113.066 115.757 113.283 116.093 113.563C116.443 113.843 116.737 114.165 116.975 114.529C117.213 114.893 117.381 115.285 117.479 115.705L116.849 115.6V112.891H119.81V124H116.807V121.333L117.479 121.27C117.367 121.662 117.185 122.033 116.933 122.383C116.681 122.733 116.366 123.048 115.988 123.328C115.624 123.594 115.211 123.811 114.749 123.979C114.287 124.133 113.797 124.21 113.279 124.21ZM114.098 121.627C114.658 121.627 115.148 121.494 115.568 121.228C115.988 120.962 116.31 120.591 116.534 120.115C116.772 119.625 116.891 119.058 116.891 118.414C116.891 117.784 116.772 117.231 116.534 116.755C116.31 116.279 115.988 115.908 115.568 115.642C115.148 115.362 114.658 115.222 114.098 115.222C113.552 115.222 113.069 115.362 112.649 115.642C112.243 115.908 111.921 116.279 111.683 116.755C111.445 117.231 111.326 117.784 111.326 118.414C111.326 119.058 111.445 119.625 111.683 120.115C111.921 120.591 112.243 120.962 112.649 121.228C113.069 121.494 113.552 121.627 114.098 121.627ZM126.538 124.21C125.502 124.21 124.578 124.042 123.766 123.706C122.968 123.356 122.324 122.88 121.834 122.278L123.703 120.682C124.123 121.144 124.599 121.48 125.131 121.69C125.663 121.886 126.195 121.984 126.727 121.984C126.937 121.984 127.126 121.963 127.294 121.921C127.476 121.865 127.63 121.795 127.756 121.711C127.882 121.613 127.973 121.501 128.029 121.375C128.099 121.235 128.134 121.088 128.134 120.934C128.134 120.626 128.008 120.388 127.756 120.22C127.616 120.136 127.399 120.045 127.105 119.947C126.811 119.835 126.433 119.716 125.971 119.59C125.257 119.408 124.648 119.198 124.144 118.96C123.654 118.708 123.262 118.428 122.968 118.12C122.716 117.826 122.52 117.511 122.38 117.175C122.254 116.825 122.191 116.44 122.191 116.02C122.191 115.516 122.303 115.061 122.527 114.655C122.751 114.235 123.059 113.878 123.451 113.584C123.857 113.29 124.319 113.066 124.837 112.912C125.355 112.744 125.901 112.66 126.475 112.66C127.049 112.66 127.609 112.73 128.155 112.87C128.701 113.01 129.205 113.213 129.667 113.479C130.143 113.731 130.556 114.032 130.906 114.382L129.31 116.146C129.058 115.908 128.771 115.691 128.449 115.495C128.141 115.299 127.819 115.145 127.483 115.033C127.147 114.921 126.846 114.865 126.58 114.865C126.342 114.865 126.125 114.886 125.929 114.928C125.747 114.97 125.593 115.04 125.467 115.138C125.341 115.222 125.243 115.327 125.173 115.453C125.117 115.579 125.089 115.719 125.089 115.873C125.089 116.027 125.124 116.174 125.194 116.314C125.278 116.454 125.39 116.573 125.53 116.671C125.684 116.755 125.908 116.853 126.202 116.965C126.51 117.077 126.923 117.203 127.441 117.343C128.113 117.525 128.68 117.728 129.142 117.952C129.618 118.176 129.996 118.435 130.276 118.729C130.514 118.981 130.689 119.268 130.801 119.59C130.913 119.912 130.969 120.269 130.969 120.661C130.969 121.347 130.773 121.956 130.381 122.488C130.003 123.02 129.478 123.44 128.806 123.748C128.134 124.056 127.378 124.21 126.538 124.21ZM138.366 124.21C137.162 124.21 136.105 123.965 135.195 123.475C134.299 122.985 133.599 122.313 133.095 121.459C132.605 120.605 132.36 119.625 132.36 118.519C132.36 117.651 132.5 116.86 132.78 116.146C133.06 115.432 133.452 114.816 133.956 114.298C134.46 113.766 135.055 113.36 135.741 113.08C136.441 112.786 137.197 112.639 138.009 112.639C138.765 112.639 139.465 112.779 140.109 113.059C140.753 113.339 141.306 113.731 141.768 114.235C142.244 114.725 142.608 115.313 142.86 115.999C143.112 116.671 143.224 117.399 143.196 118.183L143.175 119.107H134.25L133.767 117.28H140.718L140.382 117.658V117.196C140.354 116.818 140.228 116.482 140.004 116.188C139.794 115.88 139.521 115.642 139.185 115.474C138.849 115.292 138.471 115.201 138.051 115.201C137.435 115.201 136.91 115.32 136.476 115.558C136.056 115.796 135.734 116.146 135.51 116.608C135.286 117.07 135.174 117.63 135.174 118.288C135.174 118.96 135.314 119.541 135.594 120.031C135.888 120.521 136.294 120.906 136.812 121.186C137.344 121.452 137.967 121.585 138.681 121.585C139.171 121.585 139.619 121.508 140.025 121.354C140.431 121.2 140.865 120.934 141.327 120.556L142.755 122.551C142.349 122.915 141.901 123.223 141.411 123.475C140.921 123.713 140.417 123.895 139.899 124.021C139.381 124.147 138.87 124.21 138.366 124.21ZM152.259 124V109.3H158.286C159.364 109.3 160.337 109.482 161.205 109.846C162.087 110.196 162.843 110.7 163.473 111.358C164.117 112.002 164.607 112.772 164.943 113.668C165.279 114.564 165.447 115.558 165.447 116.65C165.447 117.728 165.279 118.722 164.943 119.632C164.607 120.528 164.124 121.305 163.494 121.963C162.864 122.607 162.108 123.111 161.226 123.475C160.344 123.825 159.364 124 158.286 124H152.259ZM155.409 121.711L155.073 121.165H158.181C158.811 121.165 159.378 121.06 159.882 120.85C160.386 120.626 160.813 120.325 161.163 119.947C161.527 119.555 161.8 119.079 161.982 118.519C162.164 117.959 162.255 117.336 162.255 116.65C162.255 115.964 162.164 115.348 161.982 114.802C161.8 114.242 161.527 113.766 161.163 113.374C160.813 112.982 160.386 112.681 159.882 112.471C159.378 112.247 158.811 112.135 158.181 112.135H155.01L155.409 111.631V121.711ZM172.034 124.21C171.11 124.21 170.277 123.958 169.535 123.454C168.793 122.95 168.205 122.264 167.771 121.396C167.337 120.528 167.12 119.534 167.12 118.414C167.12 117.294 167.337 116.3 167.771 115.432C168.219 114.564 168.821 113.885 169.577 113.395C170.333 112.905 171.194 112.66 172.16 112.66C172.706 112.66 173.203 112.744 173.651 112.912C174.113 113.066 174.512 113.283 174.848 113.563C175.198 113.843 175.492 114.165 175.73 114.529C175.968 114.893 176.136 115.285 176.234 115.705L175.604 115.6V112.891H178.565V124H175.562V121.333L176.234 121.27C176.122 121.662 175.94 122.033 175.688 122.383C175.436 122.733 175.121 123.048 174.743 123.328C174.379 123.594 173.966 123.811 173.504 123.979C173.042 124.133 172.552 124.21 172.034 124.21ZM172.853 121.627C173.413 121.627 173.903 121.494 174.323 121.228C174.743 120.962 175.065 120.591 175.289 120.115C175.527 119.625 175.646 119.058 175.646 118.414C175.646 117.784 175.527 117.231 175.289 116.755C175.065 116.279 174.743 115.908 174.323 115.642C173.903 115.362 173.413 115.222 172.853 115.222C172.307 115.222 171.824 115.362 171.404 115.642C170.998 115.908 170.676 116.279 170.438 116.755C170.2 117.231 170.081 117.784 170.081 118.414C170.081 119.058 170.2 119.625 170.438 120.115C170.676 120.591 170.998 120.962 171.404 121.228C171.824 121.494 172.307 121.627 172.853 121.627ZM185.292 124.21C184.256 124.21 183.332 124.042 182.52 123.706C181.722 123.356 181.078 122.88 180.588 122.278L182.457 120.682C182.877 121.144 183.353 121.48 183.885 121.69C184.417 121.886 184.949 121.984 185.481 121.984C185.691 121.984 185.88 121.963 186.048 121.921C186.23 121.865 186.384 121.795 186.51 121.711C186.636 121.613 186.727 121.501 186.783 121.375C186.853 121.235 186.888 121.088 186.888 120.934C186.888 120.626 186.762 120.388 186.51 120.22C186.37 120.136 186.153 120.045 185.859 119.947C185.565 119.835 185.187 119.716 184.725 119.59C184.011 119.408 183.402 119.198 182.898 118.96C182.408 118.708 182.016 118.428 181.722 118.12C181.47 117.826 181.274 117.511 181.134 117.175C181.008 116.825 180.945 116.44 180.945 116.02C180.945 115.516 181.057 115.061 181.281 114.655C181.505 114.235 181.813 113.878 182.205 113.584C182.611 113.29 183.073 113.066 183.591 112.912C184.109 112.744 184.655 112.66 185.229 112.66C185.803 112.66 186.363 112.73 186.909 112.87C187.455 113.01 187.959 113.213 188.421 113.479C188.897 113.731 189.31 114.032 189.66 114.382L188.064 116.146C187.812 115.908 187.525 115.691 187.203 115.495C186.895 115.299 186.573 115.145 186.237 115.033C185.901 114.921 185.6 114.865 185.334 114.865C185.096 114.865 184.879 114.886 184.683 114.928C184.501 114.97 184.347 115.04 184.221 115.138C184.095 115.222 183.997 115.327 183.927 115.453C183.871 115.579 183.843 115.719 183.843 115.873C183.843 116.027 183.878 116.174 183.948 116.314C184.032 116.454 184.144 116.573 184.284 116.671C184.438 116.755 184.662 116.853 184.956 116.965C185.264 117.077 185.677 117.203 186.195 117.343C186.867 117.525 187.434 117.728 187.896 117.952C188.372 118.176 188.75 118.435 189.03 118.729C189.268 118.981 189.443 119.268 189.555 119.59C189.667 119.912 189.723 120.269 189.723 120.661C189.723 121.347 189.527 121.956 189.135 122.488C188.757 123.02 188.232 123.44 187.56 123.748C186.888 124.056 186.132 124.21 185.292 124.21ZM191.849 124V108.46H194.789V115.159L194.201 115.411C194.355 114.907 194.628 114.452 195.02 114.046C195.426 113.626 195.909 113.29 196.469 113.038C197.029 112.786 197.617 112.66 198.233 112.66C199.073 112.66 199.773 112.828 200.333 113.164C200.907 113.5 201.334 114.011 201.614 114.697C201.908 115.369 202.055 116.202 202.055 117.196V124H199.073V117.427C199.073 116.923 199.003 116.503 198.863 116.167C198.723 115.831 198.506 115.586 198.212 115.432C197.932 115.278 197.582 115.208 197.162 115.222C196.826 115.222 196.511 115.278 196.217 115.39C195.937 115.488 195.692 115.635 195.482 115.831C195.286 116.027 195.125 116.251 194.999 116.503C194.887 116.755 194.831 117.028 194.831 117.322V124H193.361C193.039 124 192.752 124 192.5 124C192.248 124 192.031 124 191.849 124ZM211.318 124.21C210.828 124.21 210.352 124.14 209.89 124C209.428 123.86 209.008 123.671 208.63 123.433C208.252 123.181 207.937 122.901 207.685 122.593C207.433 122.271 207.272 121.942 207.202 121.606L207.874 121.354L207.727 123.958H204.913V108.46H207.916V115.495L207.328 115.264C207.412 114.928 207.573 114.606 207.811 114.298C208.049 113.976 208.35 113.696 208.714 113.458C209.078 113.206 209.477 113.01 209.911 112.87C210.345 112.73 210.793 112.66 211.255 112.66C212.221 112.66 213.082 112.912 213.838 113.416C214.608 113.906 215.21 114.585 215.644 115.453C216.078 116.321 216.295 117.315 216.295 118.435C216.295 119.555 216.078 120.549 215.644 121.417C215.224 122.285 214.636 122.971 213.88 123.475C213.124 123.965 212.27 124.21 211.318 124.21ZM210.604 121.669C211.164 121.669 211.647 121.536 212.053 121.27C212.473 120.99 212.802 120.612 213.04 120.136C213.278 119.646 213.397 119.079 213.397 118.435C213.397 117.805 213.278 117.245 213.04 116.755C212.816 116.265 212.494 115.887 212.074 115.621C211.654 115.355 211.164 115.222 210.604 115.222C210.044 115.222 209.554 115.355 209.134 115.621C208.714 115.887 208.385 116.265 208.147 116.755C207.923 117.245 207.811 117.805 207.811 118.435C207.811 119.079 207.923 119.646 208.147 120.136C208.385 120.612 208.714 120.99 209.134 121.27C209.554 121.536 210.044 121.669 210.604 121.669ZM223.717 124.21C222.583 124.21 221.568 123.965 220.672 123.475C219.79 122.971 219.09 122.285 218.572 121.417C218.068 120.549 217.816 119.555 217.816 118.435C217.816 117.315 218.068 116.321 218.572 115.453C219.09 114.585 219.79 113.906 220.672 113.416C221.568 112.912 222.583 112.66 223.717 112.66C224.837 112.66 225.838 112.912 226.72 113.416C227.616 113.906 228.316 114.585 228.82 115.453C229.324 116.321 229.576 117.315 229.576 118.435C229.576 119.555 229.324 120.549 228.82 121.417C228.316 122.285 227.616 122.971 226.72 123.475C225.838 123.965 224.837 124.21 223.717 124.21ZM223.717 121.606C224.263 121.606 224.753 121.473 225.187 121.207C225.621 120.927 225.957 120.549 226.195 120.073C226.447 119.583 226.566 119.037 226.552 118.435C226.566 117.819 226.447 117.273 226.195 116.797C225.957 116.307 225.621 115.929 225.187 115.663C224.753 115.383 224.263 115.243 223.717 115.243C223.157 115.243 222.66 115.383 222.226 115.663C221.792 115.943 221.449 116.321 221.197 116.797C220.945 117.273 220.826 117.819 220.84 118.435C220.826 119.037 220.945 119.583 221.197 120.073C221.449 120.549 221.792 120.927 222.226 121.207C222.66 121.473 223.157 121.606 223.717 121.606ZM235.998 124.21C235.074 124.21 234.241 123.958 233.499 123.454C232.757 122.95 232.169 122.264 231.735 121.396C231.301 120.528 231.084 119.534 231.084 118.414C231.084 117.294 231.301 116.3 231.735 115.432C232.183 114.564 232.785 113.885 233.541 113.395C234.297 112.905 235.158 112.66 236.124 112.66C236.67 112.66 237.167 112.744 237.615 112.912C238.077 113.066 238.476 113.283 238.812 113.563C239.162 113.843 239.456 114.165 239.694 114.529C239.932 114.893 240.1 115.285 240.198 115.705L239.568 115.6V112.891H242.529V124H239.526V121.333L240.198 121.27C240.086 121.662 239.904 122.033 239.652 122.383C239.4 122.733 239.085 123.048 238.707 123.328C238.343 123.594 237.93 123.811 237.468 123.979C237.006 124.133 236.516 124.21 235.998 124.21ZM236.817 121.627C237.377 121.627 237.867 121.494 238.287 121.228C238.707 120.962 239.029 120.591 239.253 120.115C239.491 119.625 239.61 119.058 239.61 118.414C239.61 117.784 239.491 117.231 239.253 116.755C239.029 116.279 238.707 115.908 238.287 115.642C237.867 115.362 237.377 115.222 236.817 115.222C236.271 115.222 235.788 115.362 235.368 115.642C234.962 115.908 234.64 116.279 234.402 116.755C234.164 117.231 234.045 117.784 234.045 118.414C234.045 119.058 234.164 119.625 234.402 120.115C234.64 120.591 234.962 120.962 235.368 121.228C235.788 121.494 236.271 121.627 236.817 121.627ZM245.518 124V112.891H248.395L248.5 116.461L247.996 115.726C248.164 115.152 248.437 114.634 248.815 114.172C249.193 113.696 249.634 113.325 250.138 113.059C250.656 112.793 251.195 112.66 251.755 112.66C251.993 112.66 252.224 112.681 252.448 112.723C252.672 112.765 252.861 112.814 253.015 112.87L252.217 116.146C252.063 116.062 251.86 115.992 251.608 115.936C251.37 115.866 251.125 115.831 250.873 115.831C250.537 115.831 250.222 115.894 249.928 116.02C249.648 116.132 249.403 116.3 249.193 116.524C248.983 116.734 248.815 116.986 248.689 117.28C248.577 117.574 248.521 117.896 248.521 118.246V124H245.518ZM258.602 124.21C257.622 124.21 256.747 123.965 255.977 123.475C255.221 122.971 254.619 122.292 254.171 121.438C253.737 120.57 253.52 119.569 253.52 118.435C253.52 117.329 253.737 116.342 254.171 115.474C254.619 114.592 255.221 113.906 255.977 113.416C256.747 112.912 257.622 112.66 258.602 112.66C259.12 112.66 259.617 112.744 260.093 112.912C260.583 113.066 261.017 113.283 261.395 113.563C261.787 113.843 262.102 114.158 262.34 114.508C262.578 114.844 262.711 115.194 262.739 115.558L261.983 115.705V108.46H264.986V124H262.151L262.025 121.438L262.613 121.501C262.585 121.851 262.459 122.187 262.235 122.509C262.011 122.831 261.71 123.125 261.332 123.391C260.968 123.643 260.548 123.846 260.072 124C259.61 124.14 259.12 124.21 258.602 124.21ZM259.274 121.732C259.834 121.732 260.324 121.592 260.744 121.312C261.164 121.032 261.493 120.647 261.731 120.157C261.969 119.667 262.088 119.093 262.088 118.435C262.088 117.791 261.969 117.224 261.731 116.734C261.493 116.244 261.164 115.859 260.744 115.579C260.324 115.299 259.834 115.159 259.274 115.159C258.714 115.159 258.224 115.299 257.804 115.579C257.398 115.859 257.076 116.244 256.838 116.734C256.614 117.224 256.502 117.791 256.502 118.435C256.502 119.093 256.614 119.667 256.838 120.157C257.076 120.647 257.398 121.032 257.804 121.312C258.224 121.592 258.714 121.732 259.274 121.732Z" fill="black"/>
<rect x="84" y="139" width="257" height="7" rx="3.5" fill="#E4E6EA"/>
<rect x="84" y="153" width="198" height="7" rx="3.5" fill="#E4E6EA"/>
<path d="M68 194H346C354.837 194 362 201.163 362 210V464H84C75.1634 464 68 456.837 68 448V194Z" fill="white"/>
<line x1="68" y1="229.5" x2="351" y2="229.5" stroke="#ECECEC"/>
<circle cx="84" cy="212" r="4" fill="#DF6E61"/>
<circle cx="98" cy="212" r="4" fill="#F2BD61"/>
<circle cx="112" cy="212" r="4" fill="#7ACD5C"/>
<path d="M343.989 335.277C343.691 353.236 337.125 370.526 325.426 384.154C313.726 397.783 297.631 406.893 279.925 409.908C262.218 412.922 244.015 409.652 228.465 400.664C212.915 391.675 200.996 377.532 194.772 360.684L214.798 353.286C219.297 365.462 227.911 375.684 239.149 382.18C250.388 388.677 263.544 391.04 276.341 388.861C289.138 386.682 300.771 380.098 309.226 370.248C317.682 360.398 322.428 347.903 322.643 334.923L343.989 335.277Z" fill="url(#paint0_linear_4_1268)"/>
<path d="M194.736 360.587C188.361 343.26 188.424 324.218 194.914 306.933C201.405 289.648 213.89 275.27 230.094 266.421L240.327 285.158C228.615 291.554 219.592 301.945 214.901 314.438C210.21 326.93 210.165 340.692 214.772 353.216L194.736 360.587Z" fill="url(#paint1_linear_4_1268)"/>
<path d="M230.15 266.39C241.968 259.949 255.268 256.718 268.723 257.019C282.179 257.321 295.321 261.143 306.838 268.107C318.356 275.07 327.847 284.931 334.366 296.706C340.885 308.482 344.203 321.76 343.99 335.217L322.644 334.88C322.797 325.153 320.399 315.557 315.688 307.047C310.977 298.536 304.117 291.41 295.793 286.377C287.468 281.344 277.97 278.581 268.246 278.363C258.521 278.146 248.909 280.481 240.367 285.136L230.15 266.39Z" fill="url(#paint2_linear_4_1268)"/>
<rect x="80" y="264" width="31" height="18" rx="3" fill="#4662F4"/>
<rect x="80" y="312" width="31" height="18" rx="3" fill="#617AFF"/>
<rect x="80" y="360" width="31" height="18" rx="3" fill="#9CAAF6"/>
<rect x="121" y="270" width="39" height="7" rx="3.5" fill="#E4E6EA"/>
<rect x="121" y="317" width="39" height="7" rx="3.5" fill="#E4E6EA"/>
<rect x="121" y="365" width="39" height="7" rx="3.5" fill="#E4E6EA"/>
<path fill-rule="evenodd" clip-rule="evenodd" d="M320.436 196.589C318.073 195.159 314.999 195.915 313.569 198.277L290.266 236.773C288.836 239.136 289.591 242.21 291.954 243.64L323.117 262.505L322.925 271.775C322.893 273.314 324.54 274.311 325.889 273.569L334.013 269.1L365.524 288.175C367.886 289.605 370.961 288.85 372.391 286.487L395.694 247.991C397.124 245.629 396.368 242.555 394.006 241.125L320.436 196.589Z" fill="#323232"/>
<path d="M316.008 230.384C314.801 229.653 313.865 228.736 313.199 227.633C312.544 226.513 312.194 225.262 312.15 223.879L315.107 223.025C315.344 224.276 315.657 225.234 316.046 225.898C316.445 226.546 316.991 227.081 317.686 227.501C318.314 227.882 318.957 228.09 319.613 228.126C320.28 228.145 320.902 228.013 321.48 227.73C322.068 227.431 322.532 227 322.872 226.437C323.243 225.825 323.428 225.203 323.427 224.57C323.436 223.92 323.286 223.309 322.976 222.738C322.667 222.166 322.206 221.695 321.594 221.325C321.264 221.124 320.934 220.959 320.607 220.828C320.279 220.698 319.871 220.587 319.384 220.495C318.914 220.414 318.286 220.35 317.5 220.304L317.224 217.289L322.761 210.437L332.362 216.249L330.635 219.102L322.845 214.387L324.045 214.028L319.892 219.04L319.365 217.839C319.7 217.771 320.13 217.771 320.653 217.839C321.193 217.918 321.746 218.049 322.313 218.234C322.879 218.418 323.402 218.656 323.882 218.946C324.957 219.597 325.766 220.426 326.309 221.433C326.852 222.439 327.106 223.531 327.072 224.708C327.047 225.869 326.695 227.011 326.014 228.136C325.323 229.277 324.416 230.14 323.293 230.726C322.197 231.305 321.004 231.578 319.714 231.543C318.435 231.491 317.199 231.105 316.008 230.384ZM329.927 236.911L338.457 222.82L338.654 224.566L334.05 224.22L335.042 220.956L341.268 221.369L343.054 222.45L333.127 238.849L329.927 236.911ZM326.288 236.37L328.09 233.393L337.17 238.889L335.368 241.866L326.288 236.37Z" fill="white"/>
<path d="M305.355 238.988C305.022 238.786 304.753 238.542 304.546 238.255C304.34 237.968 304.2 237.653 304.127 237.309C304.057 236.962 304.056 236.603 304.125 236.232C304.197 235.865 304.343 235.501 304.561 235.141C304.768 234.798 305.019 234.517 305.315 234.297C305.617 234.075 305.944 233.917 306.293 233.823C306.643 233.73 306.997 233.707 307.354 233.755C307.712 233.803 308.055 233.926 308.383 234.125C308.616 234.266 308.82 234.439 308.994 234.645C309.177 234.849 309.318 235.068 309.419 235.304C309.526 235.537 309.589 235.769 309.607 235.997L308.803 236.212C308.751 236 308.683 235.809 308.598 235.639C308.521 235.468 308.426 235.317 308.312 235.185C308.203 235.057 308.077 234.95 307.936 234.864C307.712 234.729 307.476 234.645 307.227 234.613C306.986 234.579 306.747 234.594 306.51 234.656C306.277 234.721 306.056 234.833 305.847 234.993C305.641 235.149 305.463 235.35 305.314 235.596C305.156 235.856 305.052 236.117 304.999 236.378C304.954 236.638 304.959 236.887 305.014 237.126C305.069 237.365 305.172 237.587 305.323 237.79C305.481 237.992 305.684 238.168 305.93 238.317C306.081 238.408 306.241 238.477 306.412 238.524C306.583 238.572 306.756 238.595 306.931 238.595C307.105 238.595 307.277 238.574 307.445 238.533L307.45 239.358C307.271 239.418 307.059 239.443 306.816 239.433C306.577 239.425 306.328 239.384 306.069 239.308C305.817 239.23 305.579 239.123 305.355 238.988ZM309.494 241.493C309.143 241.281 308.876 241.01 308.694 240.682C308.52 240.352 308.437 240 308.446 239.625C308.458 239.245 308.573 238.875 308.791 238.515C309.009 238.154 309.282 237.883 309.61 237.702C309.941 237.515 310.292 237.425 310.662 237.431C311.04 237.435 311.405 237.544 311.756 237.757C312.103 237.966 312.363 238.236 312.537 238.566C312.719 238.895 312.804 239.248 312.793 239.628C312.784 240.003 312.67 240.371 312.452 240.731C312.234 241.091 311.959 241.365 311.628 241.551C311.3 241.733 310.947 241.821 310.57 241.817C310.199 241.811 309.841 241.703 309.494 241.493ZM309.883 240.85C310.098 240.98 310.321 241.043 310.553 241.041C310.789 241.033 311.009 240.967 311.216 240.843C311.425 240.714 311.597 240.532 311.734 240.296C311.882 240.062 311.963 239.824 311.978 239.584C311.995 239.339 311.951 239.112 311.846 238.905C311.741 238.698 311.581 238.53 311.366 238.4C311.152 238.27 310.925 238.207 310.685 238.212C310.453 238.215 310.232 238.281 310.023 238.41C309.817 238.534 309.646 238.714 309.509 238.95C309.364 239.18 309.282 239.417 309.265 239.662C309.25 239.903 309.294 240.129 309.397 240.34C309.507 240.55 309.669 240.72 309.883 240.85ZM312.117 242.988L314.292 239.395L315.004 239.826L314.54 240.592L314.36 240.595C314.468 240.499 314.594 240.419 314.738 240.357C314.887 240.297 315.043 240.261 315.206 240.248C315.378 240.233 315.544 240.24 315.707 240.27C315.874 240.303 316.029 240.362 316.17 240.447C316.376 240.572 316.535 240.715 316.649 240.877C316.762 241.04 316.828 241.22 316.846 241.417C316.863 241.615 316.833 241.83 316.754 242.063L316.661 241.97L316.779 241.882C316.893 241.808 317.021 241.751 317.163 241.712C317.312 241.672 317.466 241.649 317.624 241.645C317.782 241.642 317.938 241.658 318.09 241.694C318.243 241.73 318.381 241.786 318.504 241.86C318.773 242.023 318.961 242.212 319.068 242.426C319.18 242.644 319.212 242.89 319.163 243.166C319.119 243.445 318.996 243.751 318.794 244.084L317.489 246.24L316.778 245.809L318.058 243.694C318.182 243.489 318.255 243.306 318.278 243.145C318.308 242.982 318.29 242.837 318.223 242.71C318.157 242.582 318.042 242.469 317.878 242.369C317.75 242.292 317.615 242.242 317.474 242.218C317.339 242.193 317.207 242.194 317.078 242.222C316.949 242.25 316.83 242.303 316.721 242.38C316.615 242.453 316.524 242.551 316.45 242.674L315.149 244.823L314.437 244.392L315.725 242.264C315.839 242.077 315.907 241.903 315.929 241.742C315.955 241.576 315.935 241.428 315.872 241.296C315.808 241.164 315.701 241.052 315.551 240.961C315.423 240.884 315.291 240.835 315.154 240.814C315.019 240.789 314.887 240.79 314.758 240.818C314.632 240.841 314.514 240.891 314.405 240.969C314.299 241.042 314.21 241.137 314.138 241.256L312.829 243.418L312.117 242.988ZM317.522 248.317L320.608 243.218L321.32 243.649L320.823 244.47L320.75 244.342C320.861 244.222 321.017 244.139 321.219 244.093C321.424 244.043 321.642 244.034 321.871 244.067C322.108 244.098 322.324 244.173 322.521 244.292C322.844 244.488 323.084 244.742 323.238 245.053C323.392 245.365 323.458 245.704 323.436 246.071C323.413 246.437 323.293 246.801 323.075 247.161C322.859 247.517 322.593 247.792 322.276 247.987C321.966 248.18 321.636 248.282 321.285 248.294C320.938 248.302 320.606 248.211 320.292 248.02C320.082 247.893 319.903 247.729 319.757 247.528C319.613 247.323 319.513 247.113 319.456 246.897C319.399 246.682 319.398 246.494 319.452 246.333L319.688 246.345L318.233 248.748L317.522 248.317ZM320.569 247.3C320.779 247.427 320.997 247.487 321.225 247.482C321.453 247.476 321.67 247.411 321.876 247.287C322.083 247.162 322.256 246.984 322.397 246.751C322.538 246.518 322.614 246.284 322.626 246.048C322.645 245.81 322.605 245.589 322.504 245.385C322.403 245.181 322.246 245.014 322.031 244.884C321.817 244.754 321.596 244.692 321.368 244.697C321.143 244.698 320.927 244.761 320.721 244.885C320.515 245.01 320.341 245.189 320.2 245.421C320.059 245.654 319.982 245.891 319.967 246.131C319.952 246.372 319.995 246.594 320.096 246.798C320.197 247.003 320.354 247.17 320.569 247.3ZM322.764 249.433L325.83 244.368L326.535 244.795L323.469 249.86L322.764 249.433ZM326.037 251.507C325.667 251.284 325.386 251.007 325.192 250.678C325.006 250.347 324.913 249.995 324.915 249.622C324.921 249.251 325.032 248.888 325.247 248.532C325.418 248.25 325.62 248.019 325.852 247.842C326.084 247.665 326.331 247.54 326.593 247.468C326.862 247.394 327.136 247.379 327.415 247.423C327.701 247.465 327.977 247.566 328.241 247.726C328.474 247.867 328.663 248.044 328.808 248.257C328.957 248.465 329.057 248.691 329.109 248.934C329.166 249.181 329.168 249.435 329.116 249.696C329.071 249.956 328.97 250.209 328.814 250.458L328.624 250.755L325.688 248.977L325.871 248.321L328.355 249.825L328.182 249.879L328.281 249.715C328.359 249.556 328.39 249.391 328.375 249.22C328.36 249.049 328.307 248.889 328.217 248.74C328.126 248.592 328.003 248.471 327.848 248.377C327.601 248.227 327.365 248.15 327.138 248.143C326.914 248.132 326.703 248.192 326.506 248.322C326.312 248.447 326.134 248.642 325.974 248.907C325.822 249.158 325.742 249.409 325.734 249.659C325.728 249.905 325.791 250.137 325.922 250.353C326.053 250.569 326.244 250.754 326.494 250.905C326.672 251.013 326.855 251.083 327.041 251.115C327.232 251.149 327.464 251.143 327.735 251.096L327.789 251.811C327.613 251.854 327.42 251.868 327.211 251.854C327.006 251.842 326.8 251.807 326.591 251.75C326.39 251.69 326.205 251.609 326.037 251.507ZM328.856 253.121L331.586 248.611L332.291 249.037L329.561 253.547L328.856 253.121ZM329.871 249.76L330.285 249.076L332.571 250.46L332.157 251.144L329.871 249.76ZM332.64 255.504C332.27 255.281 331.989 255.004 331.795 254.675C331.609 254.344 331.517 253.992 331.518 253.619C331.524 253.249 331.635 252.886 331.85 252.53C332.021 252.247 332.223 252.017 332.455 251.839C332.687 251.662 332.934 251.537 333.196 251.465C333.465 251.391 333.739 251.376 334.018 251.42C334.304 251.462 334.58 251.563 334.844 251.724C335.077 251.865 335.266 252.041 335.412 252.254C335.56 252.462 335.66 252.688 335.712 252.932C335.769 253.178 335.771 253.432 335.719 253.693C335.674 253.953 335.573 254.207 335.417 254.455L335.228 254.752L332.292 252.975L332.474 252.318L334.958 253.822L334.785 253.876L334.885 253.712C334.962 253.553 334.993 253.388 334.978 253.217C334.964 253.046 334.911 252.886 334.82 252.737C334.729 252.589 334.606 252.468 334.451 252.374C334.204 252.225 333.968 252.147 333.741 252.141C333.517 252.13 333.306 252.189 333.109 252.319C332.915 252.445 332.737 252.64 332.577 252.904C332.425 253.155 332.345 253.406 332.337 253.657C332.331 253.903 332.394 254.134 332.525 254.35C332.656 254.567 332.847 254.751 333.098 254.903C333.276 255.01 333.458 255.08 333.644 255.112C333.835 255.146 334.067 255.14 334.339 255.093L334.392 255.808C334.216 255.851 334.024 255.865 333.814 255.851C333.609 255.839 333.403 255.804 333.194 255.747C332.993 255.687 332.809 255.607 332.64 255.504ZM336.472 257.824C336.143 257.625 335.897 257.367 335.734 257.05C335.578 256.731 335.509 256.387 335.527 256.018C335.547 255.644 335.667 255.276 335.885 254.916C336.103 254.556 336.37 254.28 336.684 254.09C337.006 253.899 337.343 253.8 337.695 253.795C338.05 253.786 338.389 253.879 338.713 254.075C338.891 254.183 339.044 254.316 339.173 254.475C339.308 254.632 339.412 254.8 339.484 254.981C339.558 255.157 339.596 255.326 339.597 255.489C339.605 255.65 339.574 255.79 339.502 255.908L339.288 255.798L340.742 253.396L341.447 253.822L338.382 258.887L337.677 258.46L338.195 257.605L338.331 257.687C338.265 257.797 338.162 257.884 338.023 257.95C337.887 258.01 337.729 258.049 337.551 258.066C337.377 258.085 337.193 258.074 337.001 258.032C336.812 257.993 336.636 257.924 336.472 257.824ZM336.936 257.273C337.151 257.403 337.373 257.463 337.604 257.453C337.834 257.443 338.052 257.372 338.256 257.24C338.468 257.106 338.647 256.919 338.794 256.677C338.94 256.435 339.022 256.191 339.039 255.946C339.064 255.7 339.027 255.472 338.93 255.263C338.832 255.054 338.675 254.884 338.461 254.755C338.246 254.625 338.024 254.565 337.793 254.575C337.563 254.585 337.342 254.657 337.13 254.791C336.925 254.922 336.75 255.109 336.604 255.351C336.457 255.593 336.372 255.837 336.347 256.084C336.33 256.329 336.37 256.556 336.468 256.765C336.566 256.974 336.722 257.143 336.936 257.273ZM341.284 260.644L344.349 255.579L345.054 256.006L341.989 261.07L341.284 260.644ZM344.556 262.718C344.187 262.494 343.905 262.218 343.712 261.889C343.525 261.558 343.433 261.206 343.434 260.833C343.44 260.462 343.551 260.099 343.767 259.743C343.938 259.46 344.14 259.23 344.372 259.053C344.604 258.875 344.851 258.75 345.113 258.678C345.382 258.604 345.656 258.589 345.935 258.633C346.221 258.676 346.496 258.777 346.761 258.937C346.993 259.078 347.183 259.255 347.328 259.468C347.476 259.676 347.576 259.902 347.629 260.145C347.685 260.391 347.687 260.645 347.635 260.907C347.59 261.166 347.49 261.42 347.333 261.668L347.144 261.965L344.208 260.188L344.39 259.532L346.875 261.035L346.702 261.09L346.801 260.925C346.878 260.767 346.91 260.602 346.895 260.43C346.88 260.259 346.827 260.1 346.736 259.951C346.645 259.802 346.522 259.681 346.367 259.587C346.121 259.438 345.884 259.36 345.657 259.354C345.433 259.343 345.223 259.403 345.026 259.533C344.831 259.658 344.654 259.853 344.494 260.118C344.342 260.369 344.262 260.62 344.253 260.87C344.248 261.116 344.31 261.347 344.441 261.564C344.572 261.78 344.763 261.964 345.014 262.116C345.192 262.224 345.374 262.294 345.561 262.325C345.752 262.36 345.983 262.354 346.255 262.306L346.308 263.021C346.133 263.064 345.94 263.079 345.731 263.064C345.526 263.052 345.319 263.018 345.111 262.96C344.91 262.901 344.725 262.82 344.556 262.718ZM348.272 264.967C347.975 264.788 347.754 264.541 347.607 264.228C347.464 263.917 347.406 263.576 347.431 263.205C347.456 262.834 347.577 262.47 347.792 262.114C348.01 261.754 348.276 261.479 348.591 261.289C348.913 261.097 349.247 260.997 349.595 260.99C349.947 260.985 350.281 261.077 350.596 261.268C350.783 261.381 350.937 261.512 351.059 261.661C351.181 261.809 351.269 261.968 351.322 262.138C351.383 262.305 351.411 262.475 351.406 262.647C351.407 262.822 351.372 262.988 351.302 263.145L351.177 262.995L351.741 262.064L352.452 262.495L350.278 266.088L349.566 265.657L350.084 264.802L350.277 264.853C350.175 264.96 350.045 265.046 349.886 265.112C349.735 265.177 349.566 265.214 349.378 265.225C349.195 265.239 349.007 265.225 348.814 265.183C348.626 265.144 348.445 265.072 348.272 264.967ZM348.85 264.429C349.065 264.559 349.286 264.621 349.514 264.615C349.741 264.61 349.956 264.544 350.158 264.416C350.367 264.287 350.543 264.104 350.687 263.867C350.828 263.634 350.905 263.398 350.92 263.157C350.939 262.919 350.899 262.698 350.798 262.494C350.697 262.29 350.54 262.122 350.325 261.993C350.115 261.866 349.896 261.805 349.669 261.81C349.445 261.819 349.231 261.885 349.024 262.009C348.823 262.137 348.651 262.317 348.511 262.549C348.367 262.787 348.284 263.026 348.262 263.269C348.247 263.509 348.288 263.73 348.384 263.932C348.485 264.136 348.64 264.302 348.85 264.429ZM352.418 267.477C352.117 267.295 351.877 267.078 351.699 266.827C351.521 266.575 351.414 266.299 351.378 265.997L352.106 265.876C352.146 266.119 352.224 266.325 352.339 266.494C352.462 266.662 352.626 266.808 352.832 266.933C352.914 266.982 352.995 267.019 353.074 267.042C353.161 267.063 353.242 267.069 353.317 267.058C353.397 267.05 353.467 267.027 353.527 266.989C353.59 266.946 353.643 266.891 353.684 266.822C353.756 266.703 353.771 266.581 353.728 266.456C353.702 266.396 353.65 266.318 353.571 266.221C353.5 266.122 353.4 266.005 353.269 265.87C353.046 265.641 352.876 265.432 352.76 265.243C352.644 265.055 352.573 264.878 352.548 264.713C352.532 264.585 352.539 264.461 352.567 264.341C352.599 264.217 352.652 264.093 352.727 263.97C352.818 263.82 352.933 263.702 353.071 263.617C353.217 263.531 353.374 263.477 353.544 263.455C353.72 263.431 353.901 263.441 354.087 263.484C354.277 263.531 354.461 263.608 354.639 263.716C354.808 263.818 354.96 263.941 355.097 264.086C355.238 264.234 355.353 264.394 355.442 264.567C355.531 264.739 355.588 264.913 355.612 265.09L354.939 265.29C354.904 265.151 354.854 265.018 354.788 264.891C354.729 264.761 354.658 264.647 354.575 264.547C354.492 264.447 354.408 264.37 354.321 264.318C354.225 264.26 354.133 264.217 354.044 264.188C353.956 264.159 353.873 264.147 353.796 264.15C353.724 264.156 353.657 264.178 353.597 264.216C353.536 264.255 353.485 264.308 353.444 264.376C353.413 264.438 353.392 264.504 353.382 264.572C353.379 264.639 353.389 264.704 353.412 264.769C353.44 264.835 353.492 264.92 353.568 265.022C353.643 265.123 353.748 265.24 353.881 265.37C354.073 265.567 354.22 265.747 354.322 265.908C354.431 266.068 354.501 266.219 354.532 266.363C354.571 266.505 354.574 266.644 354.542 266.78C354.509 266.916 354.45 267.055 354.365 267.197C354.24 267.402 354.069 267.551 353.851 267.643C353.64 267.734 353.409 267.765 353.158 267.738C352.906 267.71 352.66 267.623 352.418 267.477ZM356.172 269.749C355.802 269.526 355.521 269.249 355.327 268.92C355.141 268.589 355.049 268.237 355.05 267.864C355.056 267.494 355.167 267.131 355.382 266.775C355.554 266.492 355.755 266.262 355.987 266.084C356.219 265.907 356.466 265.782 356.728 265.71C356.997 265.636 357.271 265.621 357.55 265.665C357.836 265.707 358.112 265.808 358.376 265.969C358.609 266.11 358.798 266.286 358.944 266.499C359.092 266.707 359.192 266.933 359.244 267.177C359.301 267.423 359.303 267.677 359.251 267.938C359.206 268.198 359.105 268.452 358.949 268.7L358.76 268.997L355.824 267.22L356.006 266.563L358.49 268.067L358.317 268.121L358.417 267.957C358.494 267.798 358.525 267.633 358.51 267.462C358.496 267.291 358.443 267.131 358.352 266.982C358.261 266.834 358.138 266.713 357.983 266.619C357.736 266.47 357.5 266.392 357.273 266.386C357.049 266.375 356.838 266.434 356.641 266.564C356.447 266.69 356.27 266.885 356.109 267.149C355.957 267.4 355.877 267.651 355.869 267.902C355.864 268.148 355.926 268.379 356.057 268.595C356.188 268.812 356.379 268.996 356.63 269.148C356.808 269.255 356.99 269.325 357.176 269.357C357.367 269.391 357.599 269.385 357.871 269.338L357.924 270.053C357.748 270.096 357.556 270.11 357.346 270.096C357.141 270.084 356.935 270.049 356.727 269.992C356.526 269.932 356.341 269.852 356.172 269.749ZM359.703 271.887C359.402 271.705 359.162 271.488 358.984 271.237C358.805 270.985 358.699 270.709 358.663 270.407L359.391 270.286C359.431 270.528 359.509 270.735 359.624 270.904C359.747 271.072 359.911 271.218 360.117 271.342C360.199 271.392 360.279 271.429 360.359 271.452C360.446 271.473 360.527 271.479 360.602 271.468C360.681 271.46 360.751 271.437 360.812 271.399C360.875 271.356 360.928 271.3 360.969 271.232C361.041 271.113 361.055 270.991 361.013 270.866C360.987 270.806 360.934 270.728 360.856 270.631C360.785 270.531 360.685 270.414 360.554 270.28C360.331 270.051 360.161 269.842 360.045 269.653C359.929 269.464 359.858 269.288 359.833 269.123C359.817 268.995 359.823 268.871 359.852 268.751C359.884 268.627 359.937 268.503 360.012 268.38C360.103 268.229 360.217 268.112 360.356 268.027C360.502 267.941 360.659 267.887 360.829 267.865C361.005 267.84 361.186 267.85 361.372 267.894C361.562 267.941 361.746 268.018 361.924 268.125C362.093 268.228 362.245 268.351 362.382 268.496C362.523 268.644 362.638 268.804 362.727 268.976C362.816 269.149 362.873 269.323 362.897 269.5L362.224 269.7C362.189 269.561 362.139 269.428 362.073 269.3C362.014 269.171 361.943 269.057 361.86 268.957C361.777 268.857 361.693 268.78 361.606 268.728C361.51 268.67 361.418 268.626 361.329 268.598C361.241 268.569 361.158 268.556 361.081 268.56C361.009 268.566 360.942 268.588 360.882 268.626C360.821 268.664 360.77 268.718 360.729 268.786C360.698 268.848 360.677 268.913 360.666 268.982C360.663 269.049 360.674 269.114 360.697 269.178C360.725 269.245 360.777 269.33 360.853 269.431C360.928 269.533 361.032 269.649 361.165 269.78C361.358 269.977 361.505 270.157 361.606 270.318C361.716 270.478 361.786 270.629 361.817 270.773C361.856 270.915 361.859 271.054 361.827 271.19C361.794 271.326 361.735 271.465 361.649 271.606C361.525 271.812 361.354 271.961 361.136 272.053C360.925 272.144 360.694 272.175 360.443 272.148C360.191 272.12 359.945 272.033 359.703 271.887Z" fill="white" fill-opacity="0.39"/>
<defs>
<linearGradient id="paint0_linear_4_1268" x1="334" y1="334" x2="204.5" y2="356.5" gradientUnits="userSpaceOnUse">
<stop stop-color="#182BB1"/>
<stop offset="1" stop-color="#0A124B" stop-opacity="0.06"/>
</linearGradient>
<linearGradient id="paint1_linear_4_1268" x1="235.5" y1="273.5" x2="204.5" y2="356.5" gradientUnits="userSpaceOnUse">
<stop stop-color="#50818E" stop-opacity="0.13"/>
<stop offset="1" stop-color="#617AFF"/>
</linearGradient>
<linearGradient id="paint2_linear_4_1268" x1="236.5" y1="276.5" x2="333" y2="334" gradientUnits="userSpaceOnUse">
<stop stop-color="#9CAAF6"/>
<stop offset="1" stop-color="#29398E" stop-opacity="0.07"/>
</linearGradient>
</defs>
</svg>
