<svg width="480" height="540" viewBox="0 0 480 540" fill="none" xmlns="http://www.w3.org/2000/svg">
<path d="M396 76H85C75.6112 76 68 83.6112 68 93V447C68 456.389 75.6112 464 85 464H396C405.389 464 413 456.389 413 447V93C413 83.6112 405.389 76 396 76Z" fill="#F1F5F7"/>
<path d="M84.533 121V118.291H86.99V109.009H84.533V106.3H92.597V109.009H90.14V118.291H92.597V121H84.533ZM95.6267 121V109.891H98.4827L98.5667 112.159L97.9787 112.411C98.1327 111.907 98.4057 111.452 98.7977 111.046C99.2037 110.626 99.6867 110.29 100.247 110.038C100.807 109.786 101.395 109.66 102.011 109.66C102.851 109.66 103.551 109.828 104.111 110.164C104.685 110.5 105.112 111.011 105.392 111.697C105.686 112.369 105.833 113.202 105.833 114.196V121H102.851V114.427C102.851 113.923 102.781 113.503 102.641 113.167C102.501 112.831 102.284 112.586 101.99 112.432C101.71 112.278 101.36 112.208 100.94 112.222C100.604 112.222 100.289 112.278 99.9947 112.39C99.7147 112.488 99.4697 112.635 99.2597 112.831C99.0637 113.027 98.9027 113.251 98.7767 113.503C98.6647 113.755 98.6087 114.028 98.6087 114.322V121H97.1387C96.8167 121 96.5297 121 96.2777 121C96.0257 121 95.8087 121 95.6267 121ZM112.176 121L107.514 109.891H110.79L113.751 118.186L113.058 118.312L116.166 109.891H119.358L114.465 121H112.176ZM126.038 121.21C124.904 121.21 123.889 120.965 122.993 120.475C122.111 119.971 121.411 119.285 120.893 118.417C120.389 117.549 120.137 116.555 120.137 115.435C120.137 114.315 120.389 113.321 120.893 112.453C121.411 111.585 122.111 110.906 122.993 110.416C123.889 109.912 124.904 109.66 126.038 109.66C127.158 109.66 128.159 109.912 129.041 110.416C129.937 110.906 130.637 111.585 131.141 112.453C131.645 113.321 131.897 114.315 131.897 115.435C131.897 116.555 131.645 117.549 131.141 118.417C130.637 119.285 129.937 119.971 129.041 120.475C128.159 120.965 127.158 121.21 126.038 121.21ZM126.038 118.606C126.584 118.606 127.074 118.473 127.508 118.207C127.942 117.927 128.278 117.549 128.516 117.073C128.768 116.583 128.887 116.037 128.873 115.435C128.887 114.819 128.768 114.273 128.516 113.797C128.278 113.307 127.942 112.929 127.508 112.663C127.074 112.383 126.584 112.243 126.038 112.243C125.478 112.243 124.981 112.383 124.547 112.663C124.113 112.943 123.77 113.321 123.518 113.797C123.266 114.273 123.147 114.819 123.161 115.435C123.147 116.037 123.266 116.583 123.518 117.073C123.77 117.549 124.113 117.927 124.547 118.207C124.981 118.473 125.478 118.606 126.038 118.606ZM134.413 121V109.891H137.395V121H134.413ZM135.883 107.623C135.309 107.623 134.861 107.483 134.539 107.203C134.217 106.909 134.056 106.503 134.056 105.985C134.056 105.509 134.217 105.124 134.539 104.83C134.875 104.522 135.323 104.368 135.883 104.368C136.457 104.368 136.905 104.515 137.227 104.809C137.549 105.089 137.71 105.481 137.71 105.985C137.71 106.461 137.542 106.853 137.206 107.161C136.884 107.469 136.443 107.623 135.883 107.623ZM145.41 121.21C144.346 121.21 143.394 120.958 142.554 120.454C141.714 119.95 141.049 119.264 140.559 118.396C140.083 117.528 139.845 116.541 139.845 115.435C139.845 114.329 140.083 113.342 140.559 112.474C141.049 111.606 141.714 110.92 142.554 110.416C143.394 109.912 144.346 109.66 145.41 109.66C146.404 109.66 147.314 109.842 148.14 110.206C148.966 110.57 149.61 111.074 150.072 111.718L148.434 113.692C148.238 113.426 147.993 113.188 147.699 112.978C147.405 112.754 147.083 112.579 146.733 112.453C146.397 112.327 146.047 112.264 145.683 112.264C145.109 112.264 144.598 112.404 144.15 112.684C143.716 112.95 143.373 113.321 143.121 113.797C142.869 114.273 142.743 114.819 142.743 115.435C142.743 116.023 142.869 116.555 143.121 117.031C143.387 117.507 143.744 117.885 144.192 118.165C144.64 118.445 145.144 118.585 145.704 118.585C146.068 118.585 146.411 118.536 146.733 118.438C147.055 118.34 147.356 118.186 147.636 117.976C147.93 117.766 148.196 117.514 148.434 117.22L150.051 119.194C149.589 119.796 148.931 120.286 148.077 120.664C147.237 121.028 146.348 121.21 145.41 121.21ZM157.233 121.21C156.029 121.21 154.972 120.965 154.062 120.475C153.166 119.985 152.466 119.313 151.962 118.459C151.472 117.605 151.227 116.625 151.227 115.519C151.227 114.651 151.367 113.86 151.647 113.146C151.927 112.432 152.319 111.816 152.823 111.298C153.327 110.766 153.922 110.36 154.608 110.08C155.308 109.786 156.064 109.639 156.876 109.639C157.632 109.639 158.332 109.779 158.976 110.059C159.62 110.339 160.173 110.731 160.635 111.235C161.111 111.725 161.475 112.313 161.727 112.999C161.979 113.671 162.091 114.399 162.063 115.183L162.042 116.107H153.117L152.634 114.28H159.585L159.249 114.658V114.196C159.221 113.818 159.095 113.482 158.871 113.188C158.661 112.88 158.388 112.642 158.052 112.474C157.716 112.292 157.338 112.201 156.918 112.201C156.302 112.201 155.777 112.32 155.343 112.558C154.923 112.796 154.601 113.146 154.377 113.608C154.153 114.07 154.041 114.63 154.041 115.288C154.041 115.96 154.181 116.541 154.461 117.031C154.755 117.521 155.161 117.906 155.679 118.186C156.211 118.452 156.834 118.585 157.548 118.585C158.038 118.585 158.486 118.508 158.892 118.354C159.298 118.2 159.732 117.934 160.194 117.556L161.622 119.551C161.216 119.915 160.768 120.223 160.278 120.475C159.788 120.713 159.284 120.895 158.766 121.021C158.248 121.147 157.737 121.21 157.233 121.21ZM171.126 121V106.3H177.363C178.245 106.3 179.036 106.51 179.736 106.93C180.436 107.336 180.989 107.896 181.395 108.61C181.815 109.324 182.025 110.129 182.025 111.025C182.025 111.935 181.815 112.754 181.395 113.482C180.989 114.21 180.436 114.791 179.736 115.225C179.036 115.645 178.245 115.855 177.363 115.855H174.276V121H171.126ZM174.234 113.02H177.006C177.342 113.02 177.643 112.936 177.909 112.768C178.175 112.586 178.385 112.348 178.539 112.054C178.707 111.76 178.791 111.424 178.791 111.046C178.791 110.668 178.707 110.339 178.539 110.059C178.385 109.779 178.175 109.555 177.909 109.387C177.643 109.219 177.342 109.135 177.006 109.135H174.234V113.02ZM184.426 121V109.891H187.303L187.408 113.461L186.904 112.726C187.072 112.152 187.345 111.634 187.723 111.172C188.101 110.696 188.542 110.325 189.046 110.059C189.564 109.793 190.103 109.66 190.663 109.66C190.901 109.66 191.132 109.681 191.356 109.723C191.58 109.765 191.769 109.814 191.923 109.87L191.125 113.146C190.971 113.062 190.768 112.992 190.516 112.936C190.278 112.866 190.033 112.831 189.781 112.831C189.445 112.831 189.13 112.894 188.836 113.02C188.556 113.132 188.311 113.3 188.101 113.524C187.891 113.734 187.723 113.986 187.597 114.28C187.485 114.574 187.429 114.896 187.429 115.246V121H184.426ZM198.328 121.21C197.194 121.21 196.179 120.965 195.283 120.475C194.401 119.971 193.701 119.285 193.183 118.417C192.679 117.549 192.427 116.555 192.427 115.435C192.427 114.315 192.679 113.321 193.183 112.453C193.701 111.585 194.401 110.906 195.283 110.416C196.179 109.912 197.194 109.66 198.328 109.66C199.448 109.66 200.449 109.912 201.331 110.416C202.227 110.906 202.927 111.585 203.431 112.453C203.935 113.321 204.187 114.315 204.187 115.435C204.187 116.555 203.935 117.549 203.431 118.417C202.927 119.285 202.227 119.971 201.331 120.475C200.449 120.965 199.448 121.21 198.328 121.21ZM198.328 118.606C198.874 118.606 199.364 118.473 199.798 118.207C200.232 117.927 200.568 117.549 200.806 117.073C201.058 116.583 201.177 116.037 201.163 115.435C201.177 114.819 201.058 114.273 200.806 113.797C200.568 113.307 200.232 112.929 199.798 112.663C199.364 112.383 198.874 112.243 198.328 112.243C197.768 112.243 197.271 112.383 196.837 112.663C196.403 112.943 196.06 113.321 195.808 113.797C195.556 114.273 195.437 114.819 195.451 115.435C195.437 116.037 195.556 116.583 195.808 117.073C196.06 117.549 196.403 117.927 196.837 118.207C197.271 118.473 197.768 118.606 198.328 118.606ZM206.902 121V109.114C206.902 108.428 207.056 107.805 207.364 107.245C207.672 106.685 208.092 106.244 208.624 105.922C209.17 105.6 209.807 105.439 210.535 105.439C211.025 105.439 211.487 105.523 211.921 105.691C212.355 105.845 212.726 106.055 213.034 106.321L212.152 108.526C211.97 108.414 211.781 108.323 211.585 108.253C211.403 108.169 211.235 108.127 211.081 108.127C210.815 108.127 210.591 108.176 210.409 108.274C210.241 108.358 210.115 108.491 210.031 108.673C209.947 108.841 209.905 109.058 209.905 109.324V121H208.414C208.092 121 207.805 121 207.553 121C207.301 121 207.084 121 206.902 121ZM205.243 112.684V110.164H212.299V112.684H205.243ZM214.546 121V109.891H217.528V121H214.546ZM216.016 107.623C215.442 107.623 214.994 107.483 214.672 107.203C214.35 106.909 214.189 106.503 214.189 105.985C214.189 105.509 214.35 105.124 214.672 104.83C215.008 104.522 215.456 104.368 216.016 104.368C216.59 104.368 217.038 104.515 217.36 104.809C217.682 105.089 217.843 105.481 217.843 105.985C217.843 106.461 217.675 106.853 217.339 107.161C217.017 107.469 216.576 107.623 216.016 107.623ZM220.745 121V105.46H223.727V121H220.745ZM231.82 121.21C230.616 121.21 229.559 120.965 228.649 120.475C227.753 119.985 227.053 119.313 226.549 118.459C226.059 117.605 225.814 116.625 225.814 115.519C225.814 114.651 225.954 113.86 226.234 113.146C226.514 112.432 226.906 111.816 227.41 111.298C227.914 110.766 228.509 110.36 229.195 110.08C229.895 109.786 230.651 109.639 231.463 109.639C232.219 109.639 232.919 109.779 233.563 110.059C234.207 110.339 234.76 110.731 235.222 111.235C235.698 111.725 236.062 112.313 236.314 112.999C236.566 113.671 236.678 114.399 236.65 115.183L236.629 116.107H227.704L227.221 114.28H234.172L233.836 114.658V114.196C233.808 113.818 233.682 113.482 233.458 113.188C233.248 112.88 232.975 112.642 232.639 112.474C232.303 112.292 231.925 112.201 231.505 112.201C230.889 112.201 230.364 112.32 229.93 112.558C229.51 112.796 229.188 113.146 228.964 113.608C228.74 114.07 228.628 114.63 228.628 115.288C228.628 115.96 228.768 116.541 229.048 117.031C229.342 117.521 229.748 117.906 230.266 118.186C230.798 118.452 231.421 118.585 232.135 118.585C232.625 118.585 233.073 118.508 233.479 118.354C233.885 118.2 234.319 117.934 234.781 117.556L236.209 119.551C235.803 119.915 235.355 120.223 234.865 120.475C234.375 120.713 233.871 120.895 233.353 121.021C232.835 121.147 232.324 121.21 231.82 121.21ZM242.591 121.21C241.555 121.21 240.631 121.042 239.819 120.706C239.021 120.356 238.377 119.88 237.887 119.278L239.756 117.682C240.176 118.144 240.652 118.48 241.184 118.69C241.716 118.886 242.248 118.984 242.78 118.984C242.99 118.984 243.179 118.963 243.347 118.921C243.529 118.865 243.683 118.795 243.809 118.711C243.935 118.613 244.026 118.501 244.082 118.375C244.152 118.235 244.187 118.088 244.187 117.934C244.187 117.626 244.061 117.388 243.809 117.22C243.669 117.136 243.452 117.045 243.158 116.947C242.864 116.835 242.486 116.716 242.024 116.59C241.31 116.408 240.701 116.198 240.197 115.96C239.707 115.708 239.315 115.428 239.021 115.12C238.769 114.826 238.573 114.511 238.433 114.175C238.307 113.825 238.244 113.44 238.244 113.02C238.244 112.516 238.356 112.061 238.58 111.655C238.804 111.235 239.112 110.878 239.504 110.584C239.91 110.29 240.372 110.066 240.89 109.912C241.408 109.744 241.954 109.66 242.528 109.66C243.102 109.66 243.662 109.73 244.208 109.87C244.754 110.01 245.258 110.213 245.72 110.479C246.196 110.731 246.609 111.032 246.959 111.382L245.363 113.146C245.111 112.908 244.824 112.691 244.502 112.495C244.194 112.299 243.872 112.145 243.536 112.033C243.2 111.921 242.899 111.865 242.633 111.865C242.395 111.865 242.178 111.886 241.982 111.928C241.8 111.97 241.646 112.04 241.52 112.138C241.394 112.222 241.296 112.327 241.226 112.453C241.17 112.579 241.142 112.719 241.142 112.873C241.142 113.027 241.177 113.174 241.247 113.314C241.331 113.454 241.443 113.573 241.583 113.671C241.737 113.755 241.961 113.853 242.255 113.965C242.563 114.077 242.976 114.203 243.494 114.343C244.166 114.525 244.733 114.728 245.195 114.952C245.671 115.176 246.049 115.435 246.329 115.729C246.567 115.981 246.742 116.268 246.854 116.59C246.966 116.912 247.022 117.269 247.022 117.661C247.022 118.347 246.826 118.956 246.434 119.488C246.056 120.02 245.531 120.44 244.859 120.748C244.187 121.056 243.431 121.21 242.591 121.21Z" fill="black"/>
<g filter="url(#filter0_d_146_458)">
<rect x="83" y="160" width="315" height="87" rx="8" fill="white"/>
</g>
<path d="M98.2628 210L100.675 203.43H101.698L104.11 210H103.106L101.182 204.556L99.2483 210H98.2628ZM99.3515 208.376L99.6143 207.626H102.702L102.965 208.376H99.3515ZM104.999 210V205.27H105.844L105.909 205.936C106.06 205.692 106.26 205.501 106.51 205.364C106.76 205.226 107.042 205.157 107.355 205.157C107.592 205.157 107.808 205.192 108.002 205.26C108.196 205.323 108.368 205.42 108.519 205.551C108.669 205.683 108.791 205.845 108.885 206.039C109.053 205.764 109.279 205.548 109.56 205.392C109.848 205.235 110.152 205.157 110.471 205.157C110.852 205.157 111.181 205.235 111.456 205.392C111.731 205.542 111.941 205.77 112.085 206.077C112.229 206.377 112.301 206.753 112.301 207.203V210H111.372V207.297C111.372 206.859 111.281 206.527 111.099 206.302C110.924 206.077 110.665 205.964 110.32 205.964C110.089 205.964 109.883 206.024 109.701 206.143C109.52 206.261 109.376 206.434 109.269 206.659C109.169 206.884 109.119 207.159 109.119 207.485V210H108.181V207.297C108.181 206.859 108.09 206.527 107.908 206.302C107.733 206.077 107.474 205.964 107.129 205.964C106.91 205.964 106.71 206.024 106.529 206.143C106.347 206.261 106.203 206.434 106.097 206.659C105.991 206.884 105.938 207.159 105.938 207.485V210H104.999ZM115.672 210.113C115.228 210.113 114.828 210.009 114.471 209.803C114.121 209.596 113.842 209.309 113.636 208.939C113.435 208.564 113.335 208.132 113.335 207.644C113.335 207.144 113.439 206.709 113.645 206.34C113.852 205.964 114.133 205.673 114.49 205.467C114.846 205.26 115.247 205.157 115.691 205.157C116.142 205.157 116.542 205.26 116.892 205.467C117.243 205.673 117.518 205.961 117.718 206.33C117.925 206.699 118.028 207.134 118.028 207.635C118.028 208.135 117.925 208.57 117.718 208.939C117.518 209.309 117.24 209.596 116.883 209.803C116.526 210.009 116.123 210.113 115.672 210.113ZM115.672 209.305C115.929 209.305 116.16 209.243 116.367 209.118C116.58 208.993 116.748 208.808 116.874 208.564C117.005 208.314 117.071 208.004 117.071 207.635C117.071 207.266 117.008 206.959 116.883 206.715C116.758 206.465 116.589 206.277 116.376 206.152C116.17 206.027 115.941 205.964 115.691 205.964C115.441 205.964 115.209 206.027 114.997 206.152C114.784 206.277 114.612 206.465 114.48 206.715C114.355 206.959 114.293 207.266 114.293 207.635C114.293 208.004 114.355 208.314 114.48 208.564C114.612 208.808 114.781 208.993 114.987 209.118C115.2 209.243 115.428 209.305 115.672 209.305ZM120.868 210.113C120.499 210.113 120.177 210.038 119.902 209.887C119.633 209.737 119.423 209.512 119.273 209.212C119.129 208.911 119.057 208.533 119.057 208.076V205.27H119.995V207.973C119.995 208.417 120.092 208.752 120.286 208.977C120.48 209.202 120.759 209.315 121.122 209.315C121.366 209.315 121.585 209.255 121.779 209.137C121.979 209.018 122.135 208.846 122.248 208.62C122.361 208.395 122.417 208.12 122.417 207.794V205.27H123.355V210H122.52L122.454 209.193C122.311 209.481 122.101 209.706 121.826 209.869C121.55 210.031 121.231 210.113 120.868 210.113ZM124.64 210V205.27H125.485L125.541 206.077C125.692 205.795 125.904 205.573 126.18 205.411C126.455 205.242 126.771 205.157 127.128 205.157C127.503 205.157 127.825 205.232 128.094 205.382C128.363 205.533 128.573 205.761 128.723 206.068C128.873 206.368 128.948 206.746 128.948 207.203V210H128.01V207.297C128.01 206.859 127.913 206.527 127.719 206.302C127.525 206.077 127.243 205.964 126.874 205.964C126.63 205.964 126.411 206.024 126.217 206.143C126.023 206.255 125.867 206.424 125.748 206.649C125.635 206.875 125.579 207.15 125.579 207.475V210H124.64ZM132.092 210C131.798 210 131.541 209.953 131.322 209.859C131.103 209.765 130.934 209.609 130.815 209.39C130.696 209.171 130.637 208.874 130.637 208.498V206.068H129.82V205.27H130.637L130.749 204.087H131.575V205.27H132.918V206.068H131.575V208.508C131.575 208.777 131.632 208.961 131.744 209.061C131.857 209.155 132.051 209.202 132.326 209.202H132.871V210H132.092Z" fill="black"/>
<path d="M178.685 210V203.43H180.703C181.466 203.43 182.098 203.565 182.599 203.834C183.099 204.103 183.469 204.485 183.706 204.979C183.95 205.467 184.072 206.049 184.072 206.725C184.072 207.4 183.95 207.982 183.706 208.47C183.469 208.958 183.099 209.337 182.599 209.606C182.105 209.869 181.473 210 180.703 210H178.685ZM179.624 209.212H180.665C181.272 209.212 181.754 209.112 182.111 208.911C182.467 208.711 182.721 208.426 182.871 208.057C183.027 207.682 183.106 207.238 183.106 206.725C183.106 206.205 183.027 205.758 182.871 205.382C182.721 205.007 182.467 204.719 182.111 204.519C181.754 204.319 181.272 204.219 180.665 204.219H179.624V209.212ZM186.891 210.113C186.522 210.113 186.2 210.038 185.924 209.887C185.655 209.737 185.446 209.512 185.296 209.212C185.152 208.911 185.08 208.533 185.08 208.076V205.27H186.018V207.973C186.018 208.417 186.115 208.752 186.309 208.977C186.503 209.202 186.782 209.315 187.144 209.315C187.389 209.315 187.608 209.255 187.801 209.137C188.002 209.018 188.158 208.846 188.271 208.62C188.383 208.395 188.44 208.12 188.44 207.794V205.27H189.378V210H188.543L188.477 209.193C188.333 209.481 188.124 209.706 187.848 209.869C187.573 210.031 187.254 210.113 186.891 210.113ZM192.803 210.113C192.353 210.113 191.952 210.009 191.602 209.803C191.251 209.596 190.976 209.309 190.776 208.939C190.582 208.57 190.485 208.142 190.485 207.654C190.485 207.153 190.582 206.718 190.776 206.349C190.976 205.974 191.251 205.683 191.602 205.476C191.952 205.264 192.359 205.157 192.822 205.157C193.285 205.157 193.682 205.26 194.014 205.467C194.345 205.673 194.602 205.949 194.783 206.293C194.965 206.631 195.056 207.006 195.056 207.419C195.056 207.482 195.052 207.55 195.046 207.626C195.046 207.694 195.043 207.773 195.037 207.86H191.17V207.194H194.117C194.098 206.8 193.967 206.493 193.723 206.274C193.479 206.049 193.175 205.936 192.812 205.936C192.556 205.936 192.321 205.996 192.109 206.114C191.896 206.227 191.724 206.396 191.592 206.621C191.467 206.84 191.405 207.119 191.405 207.457V207.719C191.405 208.07 191.467 208.367 191.592 208.611C191.724 208.849 191.896 209.03 192.109 209.155C192.321 209.274 192.553 209.334 192.803 209.334C193.103 209.334 193.351 209.268 193.545 209.137C193.738 209.005 193.882 208.827 193.976 208.602H194.915C194.833 208.889 194.696 209.149 194.502 209.381C194.308 209.606 194.067 209.784 193.779 209.916C193.498 210.047 193.172 210.113 192.803 210.113Z" fill="black"/>
<path d="M237.028 210V203.43H239.252C239.772 203.43 240.197 203.518 240.529 203.693C240.86 203.868 241.104 204.103 241.261 204.397C241.423 204.685 241.505 205.013 241.505 205.382C241.505 205.733 241.423 206.058 241.261 206.358C241.104 206.653 240.857 206.89 240.519 207.072C240.181 207.247 239.75 207.335 239.224 207.335H237.966V210H237.028ZM240.482 210L239.065 207.081H240.097L241.57 210H240.482ZM237.966 206.621H239.187C239.65 206.621 239.991 206.509 240.21 206.283C240.429 206.052 240.538 205.758 240.538 205.401C240.538 205.038 240.432 204.75 240.219 204.538C240.006 204.325 239.662 204.219 239.187 204.219H237.966V206.621ZM244.528 210.113C244.078 210.113 243.677 210.009 243.327 209.803C242.977 209.596 242.701 209.309 242.501 208.939C242.307 208.57 242.21 208.142 242.21 207.654C242.21 207.153 242.307 206.718 242.501 206.349C242.701 205.974 242.977 205.683 243.327 205.476C243.677 205.264 244.084 205.157 244.547 205.157C245.01 205.157 245.408 205.26 245.739 205.467C246.071 205.673 246.327 205.949 246.509 206.293C246.69 206.631 246.781 207.006 246.781 207.419C246.781 207.482 246.778 207.55 246.772 207.626C246.772 207.694 246.768 207.773 246.762 207.86H242.895V207.194H245.842C245.824 206.8 245.692 206.493 245.448 206.274C245.204 206.049 244.901 205.936 244.538 205.936C244.281 205.936 244.047 205.996 243.834 206.114C243.621 206.227 243.449 206.396 243.318 206.621C243.193 206.84 243.13 207.119 243.13 207.457V207.719C243.13 208.07 243.193 208.367 243.318 208.611C243.449 208.849 243.621 209.03 243.834 209.155C244.047 209.274 244.278 209.334 244.528 209.334C244.829 209.334 245.076 209.268 245.27 209.137C245.464 209.005 245.608 208.827 245.702 208.602H246.64C246.559 208.889 246.421 209.149 246.227 209.381C246.033 209.606 245.792 209.784 245.505 209.916C245.223 210.047 244.898 210.113 244.528 210.113ZM250.01 210.113C249.554 210.113 249.147 210.009 248.79 209.803C248.434 209.59 248.152 209.299 247.946 208.93C247.745 208.561 247.645 208.132 247.645 207.644C247.645 207.15 247.745 206.718 247.946 206.349C248.152 205.974 248.434 205.683 248.79 205.476C249.147 205.264 249.554 205.157 250.01 205.157C250.586 205.157 251.068 205.307 251.456 205.608C251.844 205.908 252.091 206.315 252.197 206.828H251.221C251.159 206.552 251.015 206.34 250.789 206.19C250.57 206.039 250.308 205.964 250.001 205.964C249.751 205.964 249.519 206.03 249.307 206.161C249.094 206.287 248.922 206.474 248.79 206.725C248.665 206.969 248.603 207.272 248.603 207.635C248.603 207.904 248.64 208.145 248.715 208.358C248.79 208.564 248.89 208.739 249.016 208.883C249.147 209.027 249.297 209.137 249.466 209.212C249.635 209.28 249.813 209.315 250.001 209.315C250.208 209.315 250.392 209.284 250.555 209.221C250.724 209.152 250.865 209.052 250.977 208.921C251.096 208.789 251.177 208.633 251.221 208.451H252.197C252.091 208.952 251.844 209.356 251.456 209.662C251.068 209.962 250.586 210.113 250.01 210.113ZM255.482 210.113C255.025 210.113 254.619 210.009 254.262 209.803C253.905 209.59 253.624 209.299 253.417 208.93C253.217 208.561 253.117 208.132 253.117 207.644C253.117 207.15 253.217 206.718 253.417 206.349C253.624 205.974 253.905 205.683 254.262 205.476C254.619 205.264 255.025 205.157 255.482 205.157C256.058 205.157 256.54 205.307 256.928 205.608C257.315 205.908 257.563 206.315 257.669 206.828H256.693C256.63 206.552 256.486 206.34 256.261 206.19C256.042 206.039 255.779 205.964 255.473 205.964C255.223 205.964 254.991 206.03 254.778 206.161C254.566 206.287 254.393 206.474 254.262 206.725C254.137 206.969 254.074 207.272 254.074 207.635C254.074 207.904 254.112 208.145 254.187 208.358C254.262 208.564 254.362 208.739 254.487 208.883C254.619 209.027 254.769 209.137 254.938 209.212C255.107 209.28 255.285 209.315 255.473 209.315C255.679 209.315 255.864 209.284 256.027 209.221C256.195 209.152 256.336 209.052 256.449 208.921C256.568 208.789 256.649 208.633 256.693 208.451H257.669C257.563 208.952 257.315 209.356 256.928 209.662C256.54 209.962 256.058 210.113 255.482 210.113ZM260.503 210.113C260.134 210.113 259.812 210.038 259.537 209.887C259.268 209.737 259.058 209.512 258.908 209.212C258.764 208.911 258.692 208.533 258.692 208.076V205.27H259.631V207.973C259.631 208.417 259.728 208.752 259.922 208.977C260.115 209.202 260.394 209.315 260.757 209.315C261.001 209.315 261.22 209.255 261.414 209.137C261.614 209.018 261.77 208.846 261.883 208.62C261.996 208.395 262.052 208.12 262.052 207.794V205.27H262.991V210H262.155L262.09 209.193C261.946 209.481 261.736 209.706 261.461 209.869C261.185 210.031 260.866 210.113 260.503 210.113ZM264.276 210V205.27H265.12L265.205 206.161C265.311 205.949 265.449 205.77 265.618 205.626C265.787 205.476 265.984 205.361 266.209 205.279C266.44 205.198 266.703 205.157 266.997 205.157V206.152H266.659C266.465 206.152 266.281 206.177 266.106 206.227C265.93 206.271 265.774 206.349 265.636 206.462C265.505 206.574 265.402 206.728 265.327 206.922C265.252 207.116 265.214 207.356 265.214 207.644V210H264.276ZM269.427 210.113C269.039 210.113 268.716 210.047 268.46 209.916C268.203 209.784 268.012 209.609 267.887 209.39C267.762 209.165 267.7 208.924 267.7 208.667C267.7 208.354 267.781 208.089 267.944 207.87C268.106 207.644 268.338 207.472 268.638 207.353C268.939 207.234 269.298 207.175 269.718 207.175H270.947C270.947 206.9 270.906 206.671 270.825 206.49C270.744 206.308 270.622 206.174 270.459 206.086C270.303 205.992 270.102 205.946 269.858 205.946C269.577 205.946 269.336 206.014 269.136 206.152C268.935 206.283 268.81 206.48 268.76 206.743H267.822C267.859 206.412 267.972 206.13 268.16 205.899C268.353 205.661 268.601 205.479 268.901 205.354C269.201 205.223 269.52 205.157 269.858 205.157C270.303 205.157 270.675 205.235 270.975 205.392C271.275 205.548 271.501 205.77 271.651 206.058C271.807 206.34 271.886 206.678 271.886 207.072V210H271.069L270.994 209.202C270.925 209.327 270.844 209.446 270.75 209.559C270.656 209.672 270.543 209.768 270.412 209.85C270.287 209.931 270.14 209.994 269.971 210.038C269.808 210.088 269.627 210.113 269.427 210.113ZM269.605 209.352C269.805 209.352 269.987 209.312 270.149 209.23C270.312 209.149 270.45 209.04 270.562 208.902C270.681 208.758 270.769 208.598 270.825 208.423C270.888 208.242 270.922 208.057 270.928 207.87V207.841H269.811C269.542 207.841 269.323 207.876 269.154 207.945C268.992 208.007 268.873 208.095 268.798 208.207C268.723 208.32 268.685 208.451 268.685 208.602C268.685 208.758 268.72 208.893 268.788 209.005C268.863 209.112 268.97 209.196 269.107 209.259C269.245 209.321 269.411 209.352 269.605 209.352ZM273.083 210V205.27H273.928L273.984 206.077C274.135 205.795 274.347 205.573 274.623 205.411C274.898 205.242 275.214 205.157 275.571 205.157C275.946 205.157 276.268 205.232 276.537 205.382C276.806 205.533 277.016 205.761 277.166 206.068C277.316 206.368 277.391 206.746 277.391 207.203V210H276.453V207.297C276.453 206.859 276.356 206.527 276.162 206.302C275.968 206.077 275.686 205.964 275.317 205.964C275.073 205.964 274.854 206.024 274.66 206.143C274.466 206.255 274.31 206.424 274.191 206.649C274.078 206.875 274.022 207.15 274.022 207.475V210H273.083ZM280.779 210.113C280.322 210.113 279.915 210.009 279.559 209.803C279.202 209.59 278.92 209.299 278.714 208.93C278.514 208.561 278.414 208.132 278.414 207.644C278.414 207.15 278.514 206.718 278.714 206.349C278.92 205.974 279.202 205.683 279.559 205.476C279.915 205.264 280.322 205.157 280.779 205.157C281.354 205.157 281.836 205.307 282.224 205.608C282.612 205.908 282.859 206.315 282.965 206.828H281.989C281.927 206.552 281.783 206.34 281.558 206.19C281.339 206.039 281.076 205.964 280.769 205.964C280.519 205.964 280.287 206.03 280.075 206.161C279.862 206.287 279.69 206.474 279.559 206.725C279.433 206.969 279.371 207.272 279.371 207.635C279.371 207.904 279.408 208.145 279.483 208.358C279.559 208.564 279.659 208.739 279.784 208.883C279.915 209.027 280.065 209.137 280.234 209.212C280.403 209.28 280.582 209.315 280.769 209.315C280.976 209.315 281.16 209.284 281.323 209.221C281.492 209.152 281.633 209.052 281.745 208.921C281.864 208.789 281.946 208.633 281.989 208.451H282.965C282.859 208.952 282.612 209.356 282.224 209.662C281.836 209.962 281.354 210.113 280.779 210.113ZM286.203 210.113C285.753 210.113 285.353 210.009 285.002 209.803C284.652 209.596 284.376 209.309 284.176 208.939C283.982 208.57 283.885 208.142 283.885 207.654C283.885 207.153 283.982 206.718 284.176 206.349C284.376 205.974 284.652 205.683 285.002 205.476C285.353 205.264 285.759 205.157 286.222 205.157C286.685 205.157 287.083 205.26 287.414 205.467C287.746 205.673 288.002 205.949 288.184 206.293C288.365 206.631 288.456 207.006 288.456 207.419C288.456 207.482 288.453 207.55 288.447 207.626C288.447 207.694 288.443 207.773 288.437 207.86H284.57V207.194H287.517C287.499 206.8 287.367 206.493 287.123 206.274C286.879 206.049 286.576 205.936 286.213 205.936C285.956 205.936 285.722 205.996 285.509 206.114C285.296 206.227 285.124 206.396 284.993 206.621C284.868 206.84 284.805 207.119 284.805 207.457V207.719C284.805 208.07 284.868 208.367 284.993 208.611C285.124 208.849 285.296 209.03 285.509 209.155C285.722 209.274 285.953 209.334 286.203 209.334C286.504 209.334 286.751 209.268 286.945 209.137C287.139 209.005 287.283 208.827 287.377 208.602H288.315C288.234 208.889 288.096 209.149 287.902 209.381C287.708 209.606 287.467 209.784 287.18 209.916C286.898 210.047 286.573 210.113 286.203 210.113Z" fill="black"/>
<path d="M324.239 210V203.43H326.482C327.008 203.43 327.439 203.518 327.777 203.693C328.115 203.868 328.365 204.103 328.528 204.397C328.691 204.691 328.772 205.026 328.772 205.401C328.772 205.758 328.691 206.086 328.528 206.387C328.372 206.681 328.124 206.918 327.787 207.1C327.449 207.275 327.014 207.363 326.482 207.363H325.177V210H324.239ZM325.177 206.584H326.444C326.939 206.584 327.289 206.477 327.496 206.265C327.708 206.046 327.815 205.758 327.815 205.401C327.815 205.019 327.708 204.725 327.496 204.519C327.289 204.312 326.939 204.209 326.444 204.209H325.177V206.584ZM331.057 210.113C330.669 210.113 330.347 210.047 330.09 209.916C329.834 209.784 329.643 209.609 329.518 209.39C329.393 209.165 329.33 208.924 329.33 208.667C329.33 208.354 329.411 208.089 329.574 207.87C329.737 207.644 329.968 207.472 330.269 207.353C330.569 207.234 330.929 207.175 331.348 207.175H332.577C332.577 206.9 332.537 206.671 332.455 206.49C332.374 206.308 332.252 206.174 332.089 206.086C331.933 205.992 331.733 205.946 331.489 205.946C331.207 205.946 330.966 206.014 330.766 206.152C330.566 206.283 330.441 206.48 330.391 206.743H329.452C329.49 206.412 329.602 206.13 329.79 205.899C329.984 205.661 330.231 205.479 330.531 205.354C330.832 205.223 331.151 205.157 331.489 205.157C331.933 205.157 332.305 205.235 332.605 205.392C332.906 205.548 333.131 205.77 333.281 206.058C333.438 206.34 333.516 206.678 333.516 207.072V210H332.699L332.624 209.202C332.555 209.327 332.474 209.446 332.38 209.559C332.286 209.672 332.174 209.768 332.042 209.85C331.917 209.931 331.77 209.994 331.601 210.038C331.439 210.088 331.257 210.113 331.057 210.113ZM331.235 209.352C331.435 209.352 331.617 209.312 331.78 209.23C331.942 209.149 332.08 209.04 332.192 208.902C332.311 208.758 332.399 208.598 332.455 208.423C332.518 208.242 332.552 208.057 332.559 207.87V207.841H331.442C331.173 207.841 330.954 207.876 330.785 207.945C330.622 208.007 330.503 208.095 330.428 208.207C330.353 208.32 330.315 208.451 330.315 208.602C330.315 208.758 330.35 208.893 330.419 209.005C330.494 209.112 330.6 209.196 330.738 209.259C330.875 209.321 331.041 209.352 331.235 209.352ZM335.111 212.065L336.266 209.474H335.994L334.126 205.27H335.14L336.623 208.705L338.115 205.27H339.1L336.097 212.065H335.111ZM339.929 210V205.27H340.774L340.839 205.936C340.989 205.692 341.19 205.501 341.44 205.364C341.69 205.226 341.972 205.157 342.285 205.157C342.522 205.157 342.738 205.192 342.932 205.26C343.126 205.323 343.298 205.42 343.448 205.551C343.599 205.683 343.721 205.845 343.814 206.039C343.983 205.764 344.209 205.548 344.49 205.392C344.778 205.235 345.081 205.157 345.401 205.157C345.782 205.157 346.111 205.235 346.386 205.392C346.661 205.542 346.871 205.77 347.015 206.077C347.159 206.377 347.231 206.753 347.231 207.203V210H346.302V207.297C346.302 206.859 346.211 206.527 346.029 206.302C345.854 206.077 345.595 205.964 345.25 205.964C345.019 205.964 344.812 206.024 344.631 206.143C344.45 206.261 344.306 206.434 344.199 206.659C344.099 206.884 344.049 207.159 344.049 207.485V210H343.111V207.297C343.111 206.859 343.02 206.527 342.838 206.302C342.663 206.077 342.404 205.964 342.059 205.964C341.84 205.964 341.64 206.024 341.459 206.143C341.277 206.261 341.133 206.434 341.027 206.659C340.921 206.884 340.867 207.159 340.867 207.485V210H339.929ZM350.583 210.113C350.133 210.113 349.732 210.009 349.382 209.803C349.032 209.596 348.756 209.309 348.556 208.939C348.362 208.57 348.265 208.142 348.265 207.654C348.265 207.153 348.362 206.718 348.556 206.349C348.756 205.974 349.032 205.683 349.382 205.476C349.732 205.264 350.139 205.157 350.602 205.157C351.065 205.157 351.463 205.26 351.794 205.467C352.126 205.673 352.382 205.949 352.564 206.293C352.745 206.631 352.836 207.006 352.836 207.419C352.836 207.482 352.833 207.55 352.827 207.626C352.827 207.694 352.823 207.773 352.817 207.86H348.95V207.194H351.897C351.879 206.8 351.747 206.493 351.503 206.274C351.259 206.049 350.956 205.936 350.593 205.936C350.336 205.936 350.102 205.996 349.889 206.114C349.676 206.227 349.504 206.396 349.373 206.621C349.248 206.84 349.185 207.119 349.185 207.457V207.719C349.185 208.07 349.248 208.367 349.373 208.611C349.504 208.849 349.676 209.03 349.889 209.155C350.102 209.274 350.333 209.334 350.583 209.334C350.884 209.334 351.131 209.268 351.325 209.137C351.519 209.005 351.663 208.827 351.757 208.602H352.695C352.614 208.889 352.476 209.149 352.282 209.381C352.088 209.606 351.847 209.784 351.559 209.916C351.278 210.047 350.953 210.113 350.583 210.113ZM353.879 210V205.27H354.723L354.78 206.077C354.93 205.795 355.143 205.573 355.418 205.411C355.693 205.242 356.009 205.157 356.366 205.157C356.741 205.157 357.063 205.232 357.332 205.382C357.601 205.533 357.811 205.761 357.961 206.068C358.111 206.368 358.187 206.746 358.187 207.203V210H357.248V207.297C357.248 206.859 357.151 206.527 356.957 206.302C356.763 206.077 356.482 205.964 356.112 205.964C355.868 205.964 355.649 206.024 355.455 206.143C355.261 206.255 355.105 206.424 354.986 206.649C354.873 206.875 354.817 207.15 354.817 207.475V210H353.879ZM361.33 210C361.036 210 360.779 209.953 360.56 209.859C360.341 209.765 360.172 209.609 360.053 209.39C359.935 209.171 359.875 208.874 359.875 208.498V206.068H359.059V205.27H359.875L359.988 204.087H360.814V205.27H362.156V206.068H360.814V208.508C360.814 208.777 360.87 208.961 360.983 209.061C361.095 209.155 361.289 209.202 361.564 209.202H362.109V210H361.33ZM367.582 210L365.142 203.43H366.155L368.145 209.024L370.153 203.43H371.148L368.708 210H367.582ZM372.037 210V205.27H372.975V210H372.037ZM372.515 204.378C372.334 204.378 372.184 204.322 372.065 204.209C371.952 204.097 371.896 203.953 371.896 203.778C371.896 203.609 371.952 203.471 372.065 203.365C372.184 203.252 372.334 203.196 372.515 203.196C372.691 203.196 372.838 203.252 372.957 203.365C373.075 203.471 373.135 203.609 373.135 203.778C373.135 203.953 373.075 204.097 372.957 204.209C372.838 204.322 372.691 204.378 372.515 204.378ZM375.885 210.113C375.497 210.113 375.175 210.047 374.918 209.916C374.662 209.784 374.471 209.609 374.346 209.39C374.22 209.165 374.158 208.924 374.158 208.667C374.158 208.354 374.239 208.089 374.402 207.87C374.565 207.644 374.796 207.472 375.096 207.353C375.397 207.234 375.757 207.175 376.176 207.175H377.405C377.405 206.9 377.365 206.671 377.283 206.49C377.202 206.308 377.08 206.174 376.917 206.086C376.761 205.992 376.561 205.946 376.317 205.946C376.035 205.946 375.794 206.014 375.594 206.152C375.394 206.283 375.269 206.48 375.218 206.743H374.28C374.317 206.412 374.43 206.13 374.618 205.899C374.812 205.661 375.059 205.479 375.359 205.354C375.66 205.223 375.979 205.157 376.317 205.157C376.761 205.157 377.133 205.235 377.433 205.392C377.734 205.548 377.959 205.77 378.109 206.058C378.266 206.34 378.344 206.678 378.344 207.072V210H377.527L377.452 209.202C377.383 209.327 377.302 209.446 377.208 209.559C377.114 209.672 377.002 209.768 376.87 209.85C376.745 209.931 376.598 209.994 376.429 210.038C376.266 210.088 376.085 210.113 375.885 210.113ZM376.063 209.352C376.263 209.352 376.445 209.312 376.607 209.23C376.77 209.149 376.908 209.04 377.02 208.902C377.139 208.758 377.227 208.598 377.283 208.423C377.346 208.242 377.38 208.057 377.386 207.87V207.841H376.27C376.001 207.841 375.782 207.876 375.613 207.945C375.45 208.007 375.331 208.095 375.256 208.207C375.181 208.32 375.143 208.451 375.143 208.602C375.143 208.758 375.178 208.893 375.247 209.005C375.322 209.112 375.428 209.196 375.566 209.259C375.703 209.321 375.869 209.352 376.063 209.352Z" fill="black"/>
<path d="M134.214 226H97.7857C96.7995 226 96 227.567 96 229.5C96 231.433 96.7995 233 97.7857 233H134.214C135.201 233 136 231.433 136 229.5C136 227.567 135.201 226 134.214 226Z" fill="#E4E6EA"/>
<path d="M205.214 226H168.786C167.799 226 167 227.567 167 229.5C167 231.433 167.799 233 168.786 233H205.214C206.201 233 207 231.433 207 229.5C207 227.567 206.201 226 205.214 226Z" fill="#E4E6EA"/>
<path d="M292.232 226H235.768C234.239 226 233 227.567 233 229.5C233 231.433 234.239 233 235.768 233H292.232C293.761 233 295 231.433 295 229.5C295 227.567 293.761 226 292.232 226Z" fill="#E4E6EA"/>
<path d="M380.232 226H323.768C322.239 226 321 227.567 321 229.5C321 231.433 322.239 233 323.768 233H380.232C381.761 233 383 231.433 383 229.5C383 227.567 381.761 226 380.232 226Z" fill="#E4E6EA"/>
<path d="M202.342 184V175.6H204.142V182.38H207.946V184H202.342ZM211.521 184.12C210.993 184.12 210.517 183.976 210.093 183.688C209.669 183.4 209.333 183.008 209.085 182.512C208.837 182.016 208.713 181.448 208.713 180.808C208.713 180.168 208.837 179.6 209.085 179.104C209.341 178.608 209.685 178.22 210.117 177.94C210.549 177.66 211.041 177.52 211.593 177.52C211.905 177.52 212.189 177.568 212.445 177.664C212.709 177.752 212.937 177.876 213.129 178.036C213.329 178.196 213.497 178.38 213.633 178.588C213.769 178.796 213.865 179.02 213.921 179.26L213.561 179.2V177.652H215.253V184H213.537V182.476L213.921 182.44C213.857 182.664 213.753 182.876 213.609 183.076C213.465 183.276 213.285 183.456 213.069 183.616C212.861 183.768 212.625 183.892 212.361 183.988C212.097 184.076 211.817 184.12 211.521 184.12ZM211.989 182.644C212.309 182.644 212.589 182.568 212.829 182.416C213.069 182.264 213.253 182.052 213.381 181.78C213.517 181.5 213.585 181.176 213.585 180.808C213.585 180.448 213.517 180.132 213.381 179.86C213.253 179.588 213.069 179.376 212.829 179.224C212.589 179.064 212.309 178.984 211.989 178.984C211.677 178.984 211.401 179.064 211.161 179.224C210.929 179.376 210.745 179.588 210.609 179.86C210.473 180.132 210.405 180.448 210.405 180.808C210.405 181.176 210.473 181.5 210.609 181.78C210.745 182.052 210.929 182.264 211.161 182.416C211.401 182.568 211.677 182.644 211.989 182.644ZM217.573 184V176.044H219.277V184H217.573ZM216.385 179.176V177.652H220.585V179.176H216.385ZM224.637 184.12C223.949 184.12 223.345 183.98 222.825 183.7C222.313 183.42 221.913 183.036 221.625 182.548C221.345 182.06 221.205 181.5 221.205 180.868C221.205 180.372 221.285 179.92 221.445 179.512C221.605 179.104 221.829 178.752 222.117 178.456C222.405 178.152 222.745 177.92 223.137 177.76C223.537 177.592 223.969 177.508 224.433 177.508C224.865 177.508 225.265 177.588 225.633 177.748C226.001 177.908 226.317 178.132 226.581 178.42C226.853 178.7 227.061 179.036 227.205 179.428C227.349 179.812 227.413 180.228 227.397 180.676L227.385 181.204H222.285L222.009 180.16H225.981L225.789 180.376V180.112C225.773 179.896 225.701 179.704 225.573 179.536C225.453 179.36 225.297 179.224 225.105 179.128C224.913 179.024 224.697 178.972 224.457 178.972C224.105 178.972 223.805 179.04 223.557 179.176C223.317 179.312 223.133 179.512 223.005 179.776C222.877 180.04 222.813 180.36 222.813 180.736C222.813 181.12 222.893 181.452 223.053 181.732C223.221 182.012 223.453 182.232 223.749 182.392C224.053 182.544 224.409 182.62 224.817 182.62C225.097 182.62 225.353 182.576 225.585 182.488C225.817 182.4 226.065 182.248 226.329 182.032L227.145 183.172C226.913 183.38 226.657 183.556 226.377 183.7C226.097 183.836 225.809 183.94 225.513 184.012C225.217 184.084 224.925 184.12 224.637 184.12ZM232.576 184V175.6H234.376V184H232.576ZM233.404 180.664V179.116H237.748V180.664H233.404ZM233.404 177.22V175.6H238.252V177.22H233.404ZM242.532 184.12C241.844 184.12 241.24 183.98 240.72 183.7C240.208 183.42 239.808 183.036 239.52 182.548C239.24 182.06 239.1 181.5 239.1 180.868C239.1 180.372 239.18 179.92 239.34 179.512C239.5 179.104 239.724 178.752 240.012 178.456C240.3 178.152 240.64 177.92 241.032 177.76C241.432 177.592 241.864 177.508 242.328 177.508C242.76 177.508 243.16 177.588 243.528 177.748C243.896 177.908 244.212 178.132 244.476 178.42C244.748 178.7 244.956 179.036 245.1 179.428C245.244 179.812 245.308 180.228 245.292 180.676L245.28 181.204H240.18L239.904 180.16H243.876L243.684 180.376V180.112C243.668 179.896 243.596 179.704 243.468 179.536C243.348 179.36 243.192 179.224 243 179.128C242.808 179.024 242.592 178.972 242.352 178.972C242 178.972 241.7 179.04 241.452 179.176C241.212 179.312 241.028 179.512 240.9 179.776C240.772 180.04 240.708 180.36 240.708 180.736C240.708 181.12 240.788 181.452 240.948 181.732C241.116 182.012 241.348 182.232 241.644 182.392C241.948 182.544 242.304 182.62 242.712 182.62C242.992 182.62 243.248 182.576 243.48 182.488C243.712 182.4 243.96 182.248 244.224 182.032L245.04 183.172C244.808 183.38 244.552 183.556 244.272 183.7C243.992 183.836 243.704 183.94 243.408 184.012C243.112 184.084 242.82 184.12 242.532 184.12ZM249.563 184.12C248.875 184.12 248.271 183.98 247.751 183.7C247.239 183.42 246.839 183.036 246.551 182.548C246.271 182.06 246.131 181.5 246.131 180.868C246.131 180.372 246.211 179.92 246.371 179.512C246.531 179.104 246.755 178.752 247.043 178.456C247.331 178.152 247.671 177.92 248.063 177.76C248.463 177.592 248.895 177.508 249.359 177.508C249.791 177.508 250.191 177.588 250.559 177.748C250.927 177.908 251.243 178.132 251.507 178.42C251.779 178.7 251.987 179.036 252.131 179.428C252.275 179.812 252.339 180.228 252.323 180.676L252.311 181.204H247.211L246.935 180.16H250.907L250.715 180.376V180.112C250.699 179.896 250.627 179.704 250.499 179.536C250.379 179.36 250.223 179.224 250.031 179.128C249.839 179.024 249.623 178.972 249.383 178.972C249.031 178.972 248.731 179.04 248.483 179.176C248.243 179.312 248.059 179.512 247.931 179.776C247.803 180.04 247.739 180.36 247.739 180.736C247.739 181.12 247.819 181.452 247.979 181.732C248.147 182.012 248.379 182.232 248.675 182.392C248.979 182.544 249.335 182.62 249.743 182.62C250.023 182.62 250.279 182.576 250.511 182.488C250.743 182.4 250.991 182.248 251.255 182.032L252.071 183.172C251.839 183.38 251.583 183.556 251.303 183.7C251.023 183.836 250.735 183.94 250.439 184.012C250.143 184.084 249.851 184.12 249.563 184.12ZM257.286 184V182.452H258.69V177.148H257.286V175.6H261.894V177.148H260.49V182.452H261.894V184H257.286ZM263.625 184V177.652H265.257L265.305 178.948L264.969 179.092C265.057 178.804 265.213 178.544 265.437 178.312C265.669 178.072 265.945 177.88 266.265 177.736C266.585 177.592 266.921 177.52 267.273 177.52C267.753 177.52 268.153 177.616 268.473 177.808C268.801 178 269.045 178.292 269.205 178.684C269.373 179.068 269.457 179.544 269.457 180.112V184H267.753V180.244C267.753 179.956 267.713 179.716 267.633 179.524C267.553 179.332 267.429 179.192 267.261 179.104C267.101 179.016 266.901 178.976 266.661 178.984C266.469 178.984 266.289 179.016 266.121 179.08C265.961 179.136 265.821 179.22 265.701 179.332C265.589 179.444 265.497 179.572 265.425 179.716C265.361 179.86 265.329 180.016 265.329 180.184V184H264.489C264.305 184 264.141 184 263.997 184C263.853 184 263.729 184 263.625 184ZM273.85 184.12C273.242 184.12 272.698 183.976 272.218 183.688C271.738 183.4 271.358 183.008 271.078 182.512C270.806 182.016 270.67 181.452 270.67 180.82C270.67 180.188 270.806 179.624 271.078 179.128C271.358 178.632 271.738 178.24 272.218 177.952C272.698 177.664 273.242 177.52 273.85 177.52C274.418 177.52 274.938 177.624 275.41 177.832C275.882 178.04 276.25 178.328 276.514 178.696L275.578 179.824C275.466 179.672 275.326 179.536 275.158 179.416C274.99 179.288 274.806 179.188 274.606 179.116C274.414 179.044 274.214 179.008 274.006 179.008C273.678 179.008 273.386 179.088 273.13 179.248C272.882 179.4 272.686 179.612 272.542 179.884C272.398 180.156 272.326 180.468 272.326 180.82C272.326 181.156 272.398 181.46 272.542 181.732C272.694 182.004 272.898 182.22 273.154 182.38C273.41 182.54 273.698 182.62 274.018 182.62C274.226 182.62 274.422 182.592 274.606 182.536C274.79 182.48 274.962 182.392 275.122 182.272C275.29 182.152 275.442 182.008 275.578 181.84L276.502 182.968C276.238 183.312 275.862 183.592 275.374 183.808C274.894 184.016 274.386 184.12 273.85 184.12ZM280.546 184.12C279.898 184.12 279.318 183.98 278.806 183.7C278.302 183.412 277.902 183.02 277.606 182.524C277.318 182.028 277.174 181.46 277.174 180.82C277.174 180.18 277.318 179.612 277.606 179.116C277.902 178.62 278.302 178.232 278.806 177.952C279.318 177.664 279.898 177.52 280.546 177.52C281.186 177.52 281.758 177.664 282.262 177.952C282.774 178.232 283.174 178.62 283.462 179.116C283.75 179.612 283.894 180.18 283.894 180.82C283.894 181.46 283.75 182.028 283.462 182.524C283.174 183.02 282.774 183.412 282.262 183.7C281.758 183.98 281.186 184.12 280.546 184.12ZM280.546 182.632C280.858 182.632 281.138 182.556 281.386 182.404C281.634 182.244 281.826 182.028 281.962 181.756C282.106 181.476 282.174 181.164 282.166 180.82C282.174 180.468 282.106 180.156 281.962 179.884C281.826 179.604 281.634 179.388 281.386 179.236C281.138 179.076 280.858 178.996 280.546 178.996C280.226 178.996 279.942 179.076 279.694 179.236C279.446 179.396 279.25 179.612 279.106 179.884C278.962 180.156 278.894 180.468 278.902 180.82C278.894 181.164 278.962 181.476 279.106 181.756C279.25 182.028 279.446 182.244 279.694 182.404C279.942 182.556 280.226 182.632 280.546 182.632ZM285.176 184V177.652H286.82L286.856 178.864L286.604 178.912C286.692 178.704 286.808 178.516 286.952 178.348C287.104 178.18 287.276 178.036 287.468 177.916C287.66 177.796 287.864 177.704 288.08 177.64C288.296 177.568 288.512 177.532 288.728 177.532C289.056 177.532 289.352 177.584 289.616 177.688C289.88 177.792 290.104 177.956 290.288 178.18C290.472 178.396 290.616 178.684 290.72 179.044L290.456 179.02L290.54 178.828C290.644 178.636 290.776 178.46 290.936 178.3C291.096 178.14 291.276 178.004 291.476 177.892C291.676 177.78 291.884 177.692 292.1 177.628C292.316 177.564 292.528 177.532 292.736 177.532C293.232 177.532 293.644 177.632 293.972 177.832C294.3 178.024 294.544 178.316 294.704 178.708C294.872 179.1 294.956 179.58 294.956 180.148V184H293.252V180.268C293.252 179.98 293.212 179.744 293.132 179.56C293.052 179.376 292.936 179.24 292.784 179.152C292.632 179.056 292.436 179.008 292.196 179.008C292.012 179.008 291.84 179.04 291.68 179.104C291.528 179.16 291.392 179.244 291.272 179.356C291.16 179.46 291.072 179.588 291.008 179.74C290.944 179.884 290.912 180.04 290.912 180.208V184H289.196V180.256C289.196 179.992 289.156 179.768 289.076 179.584C288.996 179.392 288.88 179.248 288.728 179.152C288.576 179.056 288.388 179.008 288.164 179.008C287.98 179.008 287.808 179.04 287.648 179.104C287.496 179.16 287.364 179.244 287.252 179.356C287.14 179.46 287.052 179.584 286.988 179.728C286.924 179.872 286.892 180.028 286.892 180.196V184H285.176ZM299.591 184.12C298.903 184.12 298.299 183.98 297.779 183.7C297.267 183.42 296.867 183.036 296.579 182.548C296.299 182.06 296.159 181.5 296.159 180.868C296.159 180.372 296.239 179.92 296.399 179.512C296.559 179.104 296.783 178.752 297.071 178.456C297.359 178.152 297.699 177.92 298.091 177.76C298.491 177.592 298.923 177.508 299.387 177.508C299.819 177.508 300.219 177.588 300.587 177.748C300.955 177.908 301.271 178.132 301.535 178.42C301.807 178.7 302.015 179.036 302.159 179.428C302.303 179.812 302.367 180.228 302.351 180.676L302.339 181.204H297.239L296.963 180.16H300.935L300.743 180.376V180.112C300.727 179.896 300.655 179.704 300.527 179.536C300.407 179.36 300.251 179.224 300.059 179.128C299.867 179.024 299.651 178.972 299.411 178.972C299.059 178.972 298.759 179.04 298.511 179.176C298.271 179.312 298.087 179.512 297.959 179.776C297.831 180.04 297.767 180.36 297.767 180.736C297.767 181.12 297.847 181.452 298.007 181.732C298.175 182.012 298.407 182.232 298.703 182.392C299.007 182.544 299.363 182.62 299.771 182.62C300.051 182.62 300.307 182.576 300.539 182.488C300.771 182.4 301.019 182.248 301.283 182.032L302.099 183.172C301.867 183.38 301.611 183.556 301.331 183.7C301.051 183.836 300.763 183.94 300.467 184.012C300.171 184.084 299.879 184.12 299.591 184.12Z" fill="#3833E3"/>
<path d="M181.438 175.875H184.188C184.566 175.875 184.875 175.566 184.875 175.188C184.875 174.809 184.566 174.5 184.188 174.5H181.438C181.058 174.5 180.75 174.809 180.75 175.188C180.75 175.566 181.058 175.875 181.438 175.875ZM181.438 173.125H184.188C184.566 173.125 184.875 172.817 184.875 172.438C184.875 172.058 184.566 171.75 184.188 171.75H181.438C181.058 171.75 180.75 172.058 180.75 172.438C180.75 172.817 181.058 173.125 181.438 173.125ZM193.696 174.384L189.12 169.808C188.6 169.29 187.904 169 187.174 169H180.75C179.231 169 178 170.231 178 171.75L178 188.25C178 189.769 179.231 191 180.75 191H191.75C193.269 191 194.5 189.769 194.5 188.25V176.326C194.5 175.596 194.212 174.9 193.696 174.384ZM187.625 170.464C187.817 170.532 187.997 170.63 188.146 170.778L192.722 175.354C192.871 175.501 192.97 175.682 193.035 175.875H188.312C187.934 175.875 187.625 175.566 187.625 175.188V170.464ZM193.125 188.25C193.125 189.008 192.508 189.625 191.75 189.625H180.75C179.992 189.625 179.375 189.008 179.375 188.25V171.75C179.375 170.992 179.992 170.375 180.75 170.375H186.25V175.188C186.25 176.326 187.174 177.25 188.312 177.25H193.125V188.25ZM180.75 180.688V183.438C180.75 184.195 181.367 184.812 182.125 184.812H190.375C191.133 184.812 191.75 184.195 191.75 183.438V180.688C191.75 179.93 191.133 179.312 190.375 179.312H182.125C181.367 179.312 180.75 179.931 180.75 180.688ZM190.375 183.438H182.125V180.688H190.375V183.438ZM191.062 186.875H188.312C187.932 186.875 187.625 187.182 187.625 187.562C187.625 187.943 187.932 188.25 188.312 188.25H191.062C191.443 188.25 191.75 187.943 191.75 187.562C191.75 187.182 191.441 186.875 191.062 186.875Z" fill="#3833E3"/>
<g filter="url(#filter1_d_146_458)">
<rect x="83" y="261" width="315" height="87" rx="8" fill="white"/>
</g>
<path d="M98.2628 311L100.675 304.43H101.698L104.11 311H103.106L101.182 305.556L99.2483 311H98.2628ZM99.3515 309.376L99.6143 308.626H102.702L102.965 309.376H99.3515ZM104.999 311V306.27H105.844L105.909 306.936C106.06 306.692 106.26 306.501 106.51 306.364C106.76 306.226 107.042 306.157 107.355 306.157C107.592 306.157 107.808 306.192 108.002 306.26C108.196 306.323 108.368 306.42 108.519 306.551C108.669 306.683 108.791 306.845 108.885 307.039C109.053 306.764 109.279 306.548 109.56 306.392C109.848 306.235 110.152 306.157 110.471 306.157C110.852 306.157 111.181 306.235 111.456 306.392C111.731 306.542 111.941 306.77 112.085 307.077C112.229 307.377 112.301 307.753 112.301 308.203V311H111.372V308.297C111.372 307.859 111.281 307.527 111.099 307.302C110.924 307.077 110.665 306.964 110.32 306.964C110.089 306.964 109.883 307.024 109.701 307.143C109.52 307.261 109.376 307.434 109.269 307.659C109.169 307.884 109.119 308.159 109.119 308.485V311H108.181V308.297C108.181 307.859 108.09 307.527 107.908 307.302C107.733 307.077 107.474 306.964 107.129 306.964C106.91 306.964 106.71 307.024 106.529 307.143C106.347 307.261 106.203 307.434 106.097 307.659C105.991 307.884 105.938 308.159 105.938 308.485V311H104.999ZM115.672 311.113C115.228 311.113 114.828 311.009 114.471 310.803C114.121 310.596 113.842 310.309 113.636 309.939C113.435 309.564 113.335 309.132 113.335 308.644C113.335 308.144 113.439 307.709 113.645 307.34C113.852 306.964 114.133 306.673 114.49 306.467C114.846 306.26 115.247 306.157 115.691 306.157C116.142 306.157 116.542 306.26 116.892 306.467C117.243 306.673 117.518 306.961 117.718 307.33C117.925 307.699 118.028 308.134 118.028 308.635C118.028 309.135 117.925 309.57 117.718 309.939C117.518 310.309 117.24 310.596 116.883 310.803C116.526 311.009 116.123 311.113 115.672 311.113ZM115.672 310.305C115.929 310.305 116.16 310.243 116.367 310.118C116.58 309.993 116.748 309.808 116.874 309.564C117.005 309.314 117.071 309.004 117.071 308.635C117.071 308.266 117.008 307.959 116.883 307.715C116.758 307.465 116.589 307.277 116.376 307.152C116.17 307.027 115.941 306.964 115.691 306.964C115.441 306.964 115.209 307.027 114.997 307.152C114.784 307.277 114.612 307.465 114.48 307.715C114.355 307.959 114.293 308.266 114.293 308.635C114.293 309.004 114.355 309.314 114.48 309.564C114.612 309.808 114.781 309.993 114.987 310.118C115.2 310.243 115.428 310.305 115.672 310.305ZM120.868 311.113C120.499 311.113 120.177 311.038 119.902 310.887C119.633 310.737 119.423 310.512 119.273 310.212C119.129 309.911 119.057 309.533 119.057 309.076V306.27H119.995V308.973C119.995 309.417 120.092 309.752 120.286 309.977C120.48 310.202 120.759 310.315 121.122 310.315C121.366 310.315 121.585 310.255 121.779 310.137C121.979 310.018 122.135 309.846 122.248 309.62C122.361 309.395 122.417 309.12 122.417 308.794V306.27H123.355V311H122.52L122.454 310.193C122.311 310.481 122.101 310.706 121.826 310.869C121.55 311.031 121.231 311.113 120.868 311.113ZM124.64 311V306.27H125.485L125.541 307.077C125.692 306.795 125.904 306.573 126.18 306.411C126.455 306.242 126.771 306.157 127.128 306.157C127.503 306.157 127.825 306.232 128.094 306.382C128.363 306.533 128.573 306.761 128.723 307.068C128.873 307.368 128.948 307.746 128.948 308.203V311H128.01V308.297C128.01 307.859 127.913 307.527 127.719 307.302C127.525 307.077 127.243 306.964 126.874 306.964C126.63 306.964 126.411 307.024 126.217 307.143C126.023 307.255 125.867 307.424 125.748 307.649C125.635 307.875 125.579 308.15 125.579 308.475V311H124.64ZM132.092 311C131.798 311 131.541 310.953 131.322 310.859C131.103 310.765 130.934 310.609 130.815 310.39C130.696 310.171 130.637 309.874 130.637 309.498V307.068H129.82V306.27H130.637L130.749 305.087H131.575V306.27H132.918V307.068H131.575V309.508C131.575 309.777 131.632 309.961 131.744 310.061C131.857 310.155 132.051 310.202 132.326 310.202H132.871V311H132.092Z" fill="black"/>
<path d="M178.685 311V304.43H180.703C181.466 304.43 182.098 304.565 182.599 304.834C183.099 305.103 183.469 305.485 183.706 305.979C183.95 306.467 184.072 307.049 184.072 307.725C184.072 308.4 183.95 308.982 183.706 309.47C183.469 309.958 183.099 310.337 182.599 310.606C182.105 310.869 181.473 311 180.703 311H178.685ZM179.624 310.212H180.665C181.272 310.212 181.754 310.112 182.111 309.911C182.467 309.711 182.721 309.426 182.871 309.057C183.027 308.682 183.106 308.238 183.106 307.725C183.106 307.205 183.027 306.758 182.871 306.382C182.721 306.007 182.467 305.719 182.111 305.519C181.754 305.319 181.272 305.219 180.665 305.219H179.624V310.212ZM186.891 311.113C186.522 311.113 186.2 311.038 185.924 310.887C185.655 310.737 185.446 310.512 185.296 310.212C185.152 309.911 185.08 309.533 185.08 309.076V306.27H186.018V308.973C186.018 309.417 186.115 309.752 186.309 309.977C186.503 310.202 186.782 310.315 187.144 310.315C187.389 310.315 187.608 310.255 187.801 310.137C188.002 310.018 188.158 309.846 188.271 309.62C188.383 309.395 188.44 309.12 188.44 308.794V306.27H189.378V311H188.543L188.477 310.193C188.333 310.481 188.124 310.706 187.848 310.869C187.573 311.031 187.254 311.113 186.891 311.113ZM192.803 311.113C192.353 311.113 191.952 311.009 191.602 310.803C191.251 310.596 190.976 310.309 190.776 309.939C190.582 309.57 190.485 309.142 190.485 308.654C190.485 308.153 190.582 307.718 190.776 307.349C190.976 306.974 191.251 306.683 191.602 306.476C191.952 306.264 192.359 306.157 192.822 306.157C193.285 306.157 193.682 306.26 194.014 306.467C194.345 306.673 194.602 306.949 194.783 307.293C194.965 307.631 195.056 308.006 195.056 308.419C195.056 308.482 195.052 308.55 195.046 308.626C195.046 308.694 195.043 308.773 195.037 308.86H191.17V308.194H194.117C194.098 307.8 193.967 307.493 193.723 307.274C193.479 307.049 193.175 306.936 192.812 306.936C192.556 306.936 192.321 306.996 192.109 307.114C191.896 307.227 191.724 307.396 191.592 307.621C191.467 307.84 191.405 308.119 191.405 308.457V308.719C191.405 309.07 191.467 309.367 191.592 309.611C191.724 309.849 191.896 310.03 192.109 310.155C192.321 310.274 192.553 310.334 192.803 310.334C193.103 310.334 193.351 310.268 193.545 310.137C193.738 310.005 193.882 309.827 193.976 309.602H194.915C194.833 309.889 194.696 310.149 194.502 310.381C194.308 310.606 194.067 310.784 193.779 310.916C193.498 311.047 193.172 311.113 192.803 311.113Z" fill="black"/>
<path d="M237.028 311V304.43H239.252C239.772 304.43 240.197 304.518 240.529 304.693C240.86 304.868 241.104 305.103 241.261 305.397C241.423 305.685 241.505 306.013 241.505 306.382C241.505 306.733 241.423 307.058 241.261 307.358C241.104 307.653 240.857 307.89 240.519 308.072C240.181 308.247 239.75 308.335 239.224 308.335H237.966V311H237.028ZM240.482 311L239.065 308.081H240.097L241.57 311H240.482ZM237.966 307.621H239.187C239.65 307.621 239.991 307.509 240.21 307.283C240.429 307.052 240.538 306.758 240.538 306.401C240.538 306.038 240.432 305.75 240.219 305.538C240.006 305.325 239.662 305.219 239.187 305.219H237.966V307.621ZM244.528 311.113C244.078 311.113 243.677 311.009 243.327 310.803C242.977 310.596 242.701 310.309 242.501 309.939C242.307 309.57 242.21 309.142 242.21 308.654C242.21 308.153 242.307 307.718 242.501 307.349C242.701 306.974 242.977 306.683 243.327 306.476C243.677 306.264 244.084 306.157 244.547 306.157C245.01 306.157 245.408 306.26 245.739 306.467C246.071 306.673 246.327 306.949 246.509 307.293C246.69 307.631 246.781 308.006 246.781 308.419C246.781 308.482 246.778 308.55 246.772 308.626C246.772 308.694 246.768 308.773 246.762 308.86H242.895V308.194H245.842C245.824 307.8 245.692 307.493 245.448 307.274C245.204 307.049 244.901 306.936 244.538 306.936C244.281 306.936 244.047 306.996 243.834 307.114C243.621 307.227 243.449 307.396 243.318 307.621C243.193 307.84 243.13 308.119 243.13 308.457V308.719C243.13 309.07 243.193 309.367 243.318 309.611C243.449 309.849 243.621 310.03 243.834 310.155C244.047 310.274 244.278 310.334 244.528 310.334C244.829 310.334 245.076 310.268 245.27 310.137C245.464 310.005 245.608 309.827 245.702 309.602H246.64C246.559 309.889 246.421 310.149 246.227 310.381C246.033 310.606 245.792 310.784 245.505 310.916C245.223 311.047 244.898 311.113 244.528 311.113ZM250.01 311.113C249.554 311.113 249.147 311.009 248.79 310.803C248.434 310.59 248.152 310.299 247.946 309.93C247.745 309.561 247.645 309.132 247.645 308.644C247.645 308.15 247.745 307.718 247.946 307.349C248.152 306.974 248.434 306.683 248.79 306.476C249.147 306.264 249.554 306.157 250.01 306.157C250.586 306.157 251.068 306.307 251.456 306.608C251.844 306.908 252.091 307.315 252.197 307.828H251.221C251.159 307.552 251.015 307.34 250.789 307.19C250.57 307.039 250.308 306.964 250.001 306.964C249.751 306.964 249.519 307.03 249.307 307.161C249.094 307.287 248.922 307.474 248.79 307.725C248.665 307.969 248.603 308.272 248.603 308.635C248.603 308.904 248.64 309.145 248.715 309.358C248.79 309.564 248.89 309.739 249.016 309.883C249.147 310.027 249.297 310.137 249.466 310.212C249.635 310.28 249.813 310.315 250.001 310.315C250.208 310.315 250.392 310.284 250.555 310.221C250.724 310.152 250.865 310.052 250.977 309.921C251.096 309.789 251.177 309.633 251.221 309.451H252.197C252.091 309.952 251.844 310.356 251.456 310.662C251.068 310.962 250.586 311.113 250.01 311.113ZM255.482 311.113C255.025 311.113 254.619 311.009 254.262 310.803C253.905 310.59 253.624 310.299 253.417 309.93C253.217 309.561 253.117 309.132 253.117 308.644C253.117 308.15 253.217 307.718 253.417 307.349C253.624 306.974 253.905 306.683 254.262 306.476C254.619 306.264 255.025 306.157 255.482 306.157C256.058 306.157 256.54 306.307 256.928 306.608C257.315 306.908 257.563 307.315 257.669 307.828H256.693C256.63 307.552 256.486 307.34 256.261 307.19C256.042 307.039 255.779 306.964 255.473 306.964C255.223 306.964 254.991 307.03 254.778 307.161C254.566 307.287 254.393 307.474 254.262 307.725C254.137 307.969 254.074 308.272 254.074 308.635C254.074 308.904 254.112 309.145 254.187 309.358C254.262 309.564 254.362 309.739 254.487 309.883C254.619 310.027 254.769 310.137 254.938 310.212C255.107 310.28 255.285 310.315 255.473 310.315C255.679 310.315 255.864 310.284 256.027 310.221C256.195 310.152 256.336 310.052 256.449 309.921C256.568 309.789 256.649 309.633 256.693 309.451H257.669C257.563 309.952 257.315 310.356 256.928 310.662C256.54 310.962 256.058 311.113 255.482 311.113ZM260.503 311.113C260.134 311.113 259.812 311.038 259.537 310.887C259.268 310.737 259.058 310.512 258.908 310.212C258.764 309.911 258.692 309.533 258.692 309.076V306.27H259.631V308.973C259.631 309.417 259.728 309.752 259.922 309.977C260.115 310.202 260.394 310.315 260.757 310.315C261.001 310.315 261.22 310.255 261.414 310.137C261.614 310.018 261.77 309.846 261.883 309.62C261.996 309.395 262.052 309.12 262.052 308.794V306.27H262.991V311H262.155L262.09 310.193C261.946 310.481 261.736 310.706 261.461 310.869C261.185 311.031 260.866 311.113 260.503 311.113ZM264.276 311V306.27H265.12L265.205 307.161C265.311 306.949 265.449 306.77 265.618 306.626C265.787 306.476 265.984 306.361 266.209 306.279C266.44 306.198 266.703 306.157 266.997 306.157V307.152H266.659C266.465 307.152 266.281 307.177 266.106 307.227C265.93 307.271 265.774 307.349 265.636 307.462C265.505 307.574 265.402 307.728 265.327 307.922C265.252 308.116 265.214 308.356 265.214 308.644V311H264.276ZM269.427 311.113C269.039 311.113 268.716 311.047 268.46 310.916C268.203 310.784 268.012 310.609 267.887 310.39C267.762 310.165 267.7 309.924 267.7 309.667C267.7 309.354 267.781 309.089 267.944 308.87C268.106 308.644 268.338 308.472 268.638 308.353C268.939 308.234 269.298 308.175 269.718 308.175H270.947C270.947 307.9 270.906 307.671 270.825 307.49C270.744 307.308 270.622 307.174 270.459 307.086C270.303 306.992 270.102 306.946 269.858 306.946C269.577 306.946 269.336 307.014 269.136 307.152C268.935 307.283 268.81 307.48 268.76 307.743H267.822C267.859 307.412 267.972 307.13 268.16 306.899C268.353 306.661 268.601 306.479 268.901 306.354C269.201 306.223 269.52 306.157 269.858 306.157C270.303 306.157 270.675 306.235 270.975 306.392C271.275 306.548 271.501 306.77 271.651 307.058C271.807 307.34 271.886 307.678 271.886 308.072V311H271.069L270.994 310.202C270.925 310.327 270.844 310.446 270.75 310.559C270.656 310.672 270.543 310.768 270.412 310.85C270.287 310.931 270.14 310.994 269.971 311.038C269.808 311.088 269.627 311.113 269.427 311.113ZM269.605 310.352C269.805 310.352 269.987 310.312 270.149 310.23C270.312 310.149 270.45 310.04 270.562 309.902C270.681 309.758 270.769 309.598 270.825 309.423C270.888 309.242 270.922 309.057 270.928 308.87V308.841H269.811C269.542 308.841 269.323 308.876 269.154 308.945C268.992 309.007 268.873 309.095 268.798 309.207C268.723 309.32 268.685 309.451 268.685 309.602C268.685 309.758 268.72 309.893 268.788 310.005C268.863 310.112 268.97 310.196 269.107 310.259C269.245 310.321 269.411 310.352 269.605 310.352ZM273.083 311V306.27H273.928L273.984 307.077C274.135 306.795 274.347 306.573 274.623 306.411C274.898 306.242 275.214 306.157 275.571 306.157C275.946 306.157 276.268 306.232 276.537 306.382C276.806 306.533 277.016 306.761 277.166 307.068C277.316 307.368 277.391 307.746 277.391 308.203V311H276.453V308.297C276.453 307.859 276.356 307.527 276.162 307.302C275.968 307.077 275.686 306.964 275.317 306.964C275.073 306.964 274.854 307.024 274.66 307.143C274.466 307.255 274.31 307.424 274.191 307.649C274.078 307.875 274.022 308.15 274.022 308.475V311H273.083ZM280.779 311.113C280.322 311.113 279.915 311.009 279.559 310.803C279.202 310.59 278.92 310.299 278.714 309.93C278.514 309.561 278.414 309.132 278.414 308.644C278.414 308.15 278.514 307.718 278.714 307.349C278.92 306.974 279.202 306.683 279.559 306.476C279.915 306.264 280.322 306.157 280.779 306.157C281.354 306.157 281.836 306.307 282.224 306.608C282.612 306.908 282.859 307.315 282.965 307.828H281.989C281.927 307.552 281.783 307.34 281.558 307.19C281.339 307.039 281.076 306.964 280.769 306.964C280.519 306.964 280.287 307.03 280.075 307.161C279.862 307.287 279.69 307.474 279.559 307.725C279.433 307.969 279.371 308.272 279.371 308.635C279.371 308.904 279.408 309.145 279.483 309.358C279.559 309.564 279.659 309.739 279.784 309.883C279.915 310.027 280.065 310.137 280.234 310.212C280.403 310.28 280.582 310.315 280.769 310.315C280.976 310.315 281.16 310.284 281.323 310.221C281.492 310.152 281.633 310.052 281.745 309.921C281.864 309.789 281.946 309.633 281.989 309.451H282.965C282.859 309.952 282.612 310.356 282.224 310.662C281.836 310.962 281.354 311.113 280.779 311.113ZM286.203 311.113C285.753 311.113 285.353 311.009 285.002 310.803C284.652 310.596 284.376 310.309 284.176 309.939C283.982 309.57 283.885 309.142 283.885 308.654C283.885 308.153 283.982 307.718 284.176 307.349C284.376 306.974 284.652 306.683 285.002 306.476C285.353 306.264 285.759 306.157 286.222 306.157C286.685 306.157 287.083 306.26 287.414 306.467C287.746 306.673 288.002 306.949 288.184 307.293C288.365 307.631 288.456 308.006 288.456 308.419C288.456 308.482 288.453 308.55 288.447 308.626C288.447 308.694 288.443 308.773 288.437 308.86H284.57V308.194H287.517C287.499 307.8 287.367 307.493 287.123 307.274C286.879 307.049 286.576 306.936 286.213 306.936C285.956 306.936 285.722 306.996 285.509 307.114C285.296 307.227 285.124 307.396 284.993 307.621C284.868 307.84 284.805 308.119 284.805 308.457V308.719C284.805 309.07 284.868 309.367 284.993 309.611C285.124 309.849 285.296 310.03 285.509 310.155C285.722 310.274 285.953 310.334 286.203 310.334C286.504 310.334 286.751 310.268 286.945 310.137C287.139 310.005 287.283 309.827 287.377 309.602H288.315C288.234 309.889 288.096 310.149 287.902 310.381C287.708 310.606 287.467 310.784 287.18 310.916C286.898 311.047 286.573 311.113 286.203 311.113Z" fill="black"/>
<path d="M324.239 311V304.43H326.482C327.008 304.43 327.439 304.518 327.777 304.693C328.115 304.868 328.365 305.103 328.528 305.397C328.691 305.691 328.772 306.026 328.772 306.401C328.772 306.758 328.691 307.086 328.528 307.387C328.372 307.681 328.124 307.918 327.787 308.1C327.449 308.275 327.014 308.363 326.482 308.363H325.177V311H324.239ZM325.177 307.584H326.444C326.939 307.584 327.289 307.477 327.496 307.265C327.708 307.046 327.815 306.758 327.815 306.401C327.815 306.019 327.708 305.725 327.496 305.519C327.289 305.312 326.939 305.209 326.444 305.209H325.177V307.584ZM331.057 311.113C330.669 311.113 330.347 311.047 330.09 310.916C329.834 310.784 329.643 310.609 329.518 310.39C329.393 310.165 329.33 309.924 329.33 309.667C329.33 309.354 329.411 309.089 329.574 308.87C329.737 308.644 329.968 308.472 330.269 308.353C330.569 308.234 330.929 308.175 331.348 308.175H332.577C332.577 307.9 332.537 307.671 332.455 307.49C332.374 307.308 332.252 307.174 332.089 307.086C331.933 306.992 331.733 306.946 331.489 306.946C331.207 306.946 330.966 307.014 330.766 307.152C330.566 307.283 330.441 307.48 330.391 307.743H329.452C329.49 307.412 329.602 307.13 329.79 306.899C329.984 306.661 330.231 306.479 330.531 306.354C330.832 306.223 331.151 306.157 331.489 306.157C331.933 306.157 332.305 306.235 332.605 306.392C332.906 306.548 333.131 306.77 333.281 307.058C333.438 307.34 333.516 307.678 333.516 308.072V311H332.699L332.624 310.202C332.555 310.327 332.474 310.446 332.38 310.559C332.286 310.672 332.174 310.768 332.042 310.85C331.917 310.931 331.77 310.994 331.601 311.038C331.439 311.088 331.257 311.113 331.057 311.113ZM331.235 310.352C331.435 310.352 331.617 310.312 331.78 310.23C331.942 310.149 332.08 310.04 332.192 309.902C332.311 309.758 332.399 309.598 332.455 309.423C332.518 309.242 332.552 309.057 332.559 308.87V308.841H331.442C331.173 308.841 330.954 308.876 330.785 308.945C330.622 309.007 330.503 309.095 330.428 309.207C330.353 309.32 330.315 309.451 330.315 309.602C330.315 309.758 330.35 309.893 330.419 310.005C330.494 310.112 330.6 310.196 330.738 310.259C330.875 310.321 331.041 310.352 331.235 310.352ZM335.111 313.065L336.266 310.474H335.994L334.126 306.27H335.14L336.623 309.705L338.115 306.27H339.1L336.097 313.065H335.111ZM339.929 311V306.27H340.774L340.839 306.936C340.989 306.692 341.19 306.501 341.44 306.364C341.69 306.226 341.972 306.157 342.285 306.157C342.522 306.157 342.738 306.192 342.932 306.26C343.126 306.323 343.298 306.42 343.448 306.551C343.599 306.683 343.721 306.845 343.814 307.039C343.983 306.764 344.209 306.548 344.49 306.392C344.778 306.235 345.081 306.157 345.401 306.157C345.782 306.157 346.111 306.235 346.386 306.392C346.661 306.542 346.871 306.77 347.015 307.077C347.159 307.377 347.231 307.753 347.231 308.203V311H346.302V308.297C346.302 307.859 346.211 307.527 346.029 307.302C345.854 307.077 345.595 306.964 345.25 306.964C345.019 306.964 344.812 307.024 344.631 307.143C344.45 307.261 344.306 307.434 344.199 307.659C344.099 307.884 344.049 308.159 344.049 308.485V311H343.111V308.297C343.111 307.859 343.02 307.527 342.838 307.302C342.663 307.077 342.404 306.964 342.059 306.964C341.84 306.964 341.64 307.024 341.459 307.143C341.277 307.261 341.133 307.434 341.027 307.659C340.921 307.884 340.867 308.159 340.867 308.485V311H339.929ZM350.583 311.113C350.133 311.113 349.732 311.009 349.382 310.803C349.032 310.596 348.756 310.309 348.556 309.939C348.362 309.57 348.265 309.142 348.265 308.654C348.265 308.153 348.362 307.718 348.556 307.349C348.756 306.974 349.032 306.683 349.382 306.476C349.732 306.264 350.139 306.157 350.602 306.157C351.065 306.157 351.463 306.26 351.794 306.467C352.126 306.673 352.382 306.949 352.564 307.293C352.745 307.631 352.836 308.006 352.836 308.419C352.836 308.482 352.833 308.55 352.827 308.626C352.827 308.694 352.823 308.773 352.817 308.86H348.95V308.194H351.897C351.879 307.8 351.747 307.493 351.503 307.274C351.259 307.049 350.956 306.936 350.593 306.936C350.336 306.936 350.102 306.996 349.889 307.114C349.676 307.227 349.504 307.396 349.373 307.621C349.248 307.84 349.185 308.119 349.185 308.457V308.719C349.185 309.07 349.248 309.367 349.373 309.611C349.504 309.849 349.676 310.03 349.889 310.155C350.102 310.274 350.333 310.334 350.583 310.334C350.884 310.334 351.131 310.268 351.325 310.137C351.519 310.005 351.663 309.827 351.757 309.602H352.695C352.614 309.889 352.476 310.149 352.282 310.381C352.088 310.606 351.847 310.784 351.559 310.916C351.278 311.047 350.953 311.113 350.583 311.113ZM353.879 311V306.27H354.723L354.78 307.077C354.93 306.795 355.143 306.573 355.418 306.411C355.693 306.242 356.009 306.157 356.366 306.157C356.741 306.157 357.063 306.232 357.332 306.382C357.601 306.533 357.811 306.761 357.961 307.068C358.111 307.368 358.187 307.746 358.187 308.203V311H357.248V308.297C357.248 307.859 357.151 307.527 356.957 307.302C356.763 307.077 356.482 306.964 356.112 306.964C355.868 306.964 355.649 307.024 355.455 307.143C355.261 307.255 355.105 307.424 354.986 307.649C354.873 307.875 354.817 308.15 354.817 308.475V311H353.879ZM361.33 311C361.036 311 360.779 310.953 360.56 310.859C360.341 310.765 360.172 310.609 360.053 310.39C359.935 310.171 359.875 309.874 359.875 309.498V307.068H359.059V306.27H359.875L359.988 305.087H360.814V306.27H362.156V307.068H360.814V309.508C360.814 309.777 360.87 309.961 360.983 310.061C361.095 310.155 361.289 310.202 361.564 310.202H362.109V311H361.33ZM367.582 311L365.142 304.43H366.155L368.145 310.024L370.153 304.43H371.148L368.708 311H367.582ZM372.037 311V306.27H372.975V311H372.037ZM372.515 305.378C372.334 305.378 372.184 305.322 372.065 305.209C371.952 305.097 371.896 304.953 371.896 304.778C371.896 304.609 371.952 304.471 372.065 304.365C372.184 304.252 372.334 304.196 372.515 304.196C372.691 304.196 372.838 304.252 372.957 304.365C373.075 304.471 373.135 304.609 373.135 304.778C373.135 304.953 373.075 305.097 372.957 305.209C372.838 305.322 372.691 305.378 372.515 305.378ZM375.885 311.113C375.497 311.113 375.175 311.047 374.918 310.916C374.662 310.784 374.471 310.609 374.346 310.39C374.22 310.165 374.158 309.924 374.158 309.667C374.158 309.354 374.239 309.089 374.402 308.87C374.565 308.644 374.796 308.472 375.096 308.353C375.397 308.234 375.757 308.175 376.176 308.175H377.405C377.405 307.9 377.365 307.671 377.283 307.49C377.202 307.308 377.08 307.174 376.917 307.086C376.761 306.992 376.561 306.946 376.317 306.946C376.035 306.946 375.794 307.014 375.594 307.152C375.394 307.283 375.269 307.48 375.218 307.743H374.28C374.317 307.412 374.43 307.13 374.618 306.899C374.812 306.661 375.059 306.479 375.359 306.354C375.66 306.223 375.979 306.157 376.317 306.157C376.761 306.157 377.133 306.235 377.433 306.392C377.734 306.548 377.959 306.77 378.109 307.058C378.266 307.34 378.344 307.678 378.344 308.072V311H377.527L377.452 310.202C377.383 310.327 377.302 310.446 377.208 310.559C377.114 310.672 377.002 310.768 376.87 310.85C376.745 310.931 376.598 310.994 376.429 311.038C376.266 311.088 376.085 311.113 375.885 311.113ZM376.063 310.352C376.263 310.352 376.445 310.312 376.607 310.23C376.77 310.149 376.908 310.04 377.02 309.902C377.139 309.758 377.227 309.598 377.283 309.423C377.346 309.242 377.38 309.057 377.386 308.87V308.841H376.27C376.001 308.841 375.782 308.876 375.613 308.945C375.45 309.007 375.331 309.095 375.256 309.207C375.181 309.32 375.143 309.451 375.143 309.602C375.143 309.758 375.178 309.893 375.247 310.005C375.322 310.112 375.428 310.196 375.566 310.259C375.703 310.321 375.869 310.352 376.063 310.352Z" fill="black"/>
<path d="M134.214 327H97.7857C96.7995 327 96 328.567 96 330.5C96 332.433 96.7995 334 97.7857 334H134.214C135.201 334 136 332.433 136 330.5C136 328.567 135.201 327 134.214 327Z" fill="#E4E6EA"/>
<path d="M205.214 327H168.786C167.799 327 167 328.567 167 330.5C167 332.433 167.799 334 168.786 334H205.214C206.201 334 207 332.433 207 330.5C207 328.567 206.201 327 205.214 327Z" fill="#E4E6EA"/>
<path d="M292.232 327H235.768C234.239 327 233 328.567 233 330.5C233 332.433 234.239 334 235.768 334H292.232C293.761 334 295 332.433 295 330.5C295 328.567 293.761 327 292.232 327Z" fill="#E4E6EA"/>
<path d="M380.232 327H323.768C322.239 327 321 328.567 321 330.5C321 332.433 322.239 334 323.768 334H380.232C381.761 334 383 332.433 383 330.5C383 328.567 381.761 327 380.232 327Z" fill="#E4E6EA"/>
<path d="M202.342 285V276.6H206.062C206.582 276.6 207.054 276.72 207.478 276.96C207.902 277.192 208.234 277.508 208.474 277.908C208.722 278.308 208.846 278.764 208.846 279.276C208.846 279.78 208.722 280.24 208.474 280.656C208.234 281.064 207.902 281.388 207.478 281.628C207.054 281.868 206.582 281.988 206.062 281.988H204.082V285H202.342ZM207.106 285L204.97 281.208L206.818 280.908L209.194 285.012L207.106 285ZM204.082 280.524H205.978C206.194 280.524 206.382 280.476 206.542 280.38C206.71 280.276 206.838 280.136 206.926 279.96C207.014 279.776 207.058 279.572 207.058 279.348C207.058 279.108 207.006 278.9 206.902 278.724C206.798 278.548 206.646 278.412 206.446 278.316C206.246 278.212 206.014 278.16 205.75 278.16H204.082V280.524ZM213.282 285.12C212.594 285.12 211.99 284.98 211.47 284.7C210.958 284.42 210.558 284.036 210.27 283.548C209.99 283.06 209.85 282.5 209.85 281.868C209.85 281.372 209.93 280.92 210.09 280.512C210.25 280.104 210.474 279.752 210.762 279.456C211.05 279.152 211.39 278.92 211.782 278.76C212.182 278.592 212.614 278.508 213.078 278.508C213.51 278.508 213.91 278.588 214.278 278.748C214.646 278.908 214.962 279.132 215.226 279.42C215.498 279.7 215.706 280.036 215.85 280.428C215.994 280.812 216.058 281.228 216.042 281.676L216.03 282.204H210.93L210.654 281.16H214.626L214.434 281.376V281.112C214.418 280.896 214.346 280.704 214.218 280.536C214.098 280.36 213.942 280.224 213.75 280.128C213.558 280.024 213.342 279.972 213.102 279.972C212.75 279.972 212.45 280.04 212.202 280.176C211.962 280.312 211.778 280.512 211.65 280.776C211.522 281.04 211.458 281.36 211.458 281.736C211.458 282.12 211.538 282.452 211.698 282.732C211.866 283.012 212.098 283.232 212.394 283.392C212.698 283.544 213.054 283.62 213.462 283.62C213.742 283.62 213.998 283.576 214.23 283.488C214.462 283.4 214.71 283.248 214.974 283.032L215.79 284.172C215.558 284.38 215.302 284.556 215.022 284.7C214.742 284.836 214.454 284.94 214.158 285.012C213.862 285.084 213.57 285.12 213.282 285.12ZM217.301 285V278.652H218.933L218.981 279.948L218.645 280.092C218.733 279.804 218.889 279.544 219.113 279.312C219.345 279.072 219.621 278.88 219.941 278.736C220.261 278.592 220.597 278.52 220.949 278.52C221.429 278.52 221.829 278.616 222.149 278.808C222.477 279 222.721 279.292 222.881 279.684C223.049 280.068 223.133 280.544 223.133 281.112V285H221.429V281.244C221.429 280.956 221.389 280.716 221.309 280.524C221.229 280.332 221.105 280.192 220.937 280.104C220.777 280.016 220.577 279.976 220.337 279.984C220.145 279.984 219.965 280.016 219.797 280.08C219.637 280.136 219.497 280.22 219.377 280.332C219.265 280.444 219.173 280.572 219.101 280.716C219.037 280.86 219.005 281.016 219.005 281.184V285H218.165C217.981 285 217.817 285 217.673 285C217.529 285 217.405 285 217.301 285ZM225.378 285V277.044H227.082V285H225.378ZM224.19 280.176V278.652H228.39V280.176H224.19ZM231.806 285.12C231.278 285.12 230.802 284.976 230.378 284.688C229.954 284.4 229.618 284.008 229.37 283.512C229.122 283.016 228.998 282.448 228.998 281.808C228.998 281.168 229.122 280.6 229.37 280.104C229.626 279.608 229.97 279.22 230.402 278.94C230.834 278.66 231.326 278.52 231.878 278.52C232.19 278.52 232.474 278.568 232.73 278.664C232.994 278.752 233.222 278.876 233.414 279.036C233.614 279.196 233.782 279.38 233.918 279.588C234.054 279.796 234.15 280.02 234.206 280.26L233.846 280.2V278.652H235.538V285H233.822V283.476L234.206 283.44C234.142 283.664 234.038 283.876 233.894 284.076C233.75 284.276 233.57 284.456 233.354 284.616C233.146 284.768 232.91 284.892 232.646 284.988C232.382 285.076 232.102 285.12 231.806 285.12ZM232.274 283.644C232.594 283.644 232.874 283.568 233.114 283.416C233.354 283.264 233.538 283.052 233.666 282.78C233.802 282.5 233.87 282.176 233.87 281.808C233.87 281.448 233.802 281.132 233.666 280.86C233.538 280.588 233.354 280.376 233.114 280.224C232.874 280.064 232.594 279.984 232.274 279.984C231.962 279.984 231.686 280.064 231.446 280.224C231.214 280.376 231.03 280.588 230.894 280.86C230.758 281.132 230.69 281.448 230.69 281.808C230.69 282.176 230.758 282.5 230.894 282.78C231.03 283.052 231.214 283.264 231.446 283.416C231.686 283.568 231.962 283.644 232.274 283.644ZM237.259 285V276.12H238.963V285H237.259ZM244.612 285V276.6H248.176C248.68 276.6 249.132 276.72 249.532 276.96C249.932 277.192 250.248 277.512 250.48 277.92C250.72 278.328 250.84 278.788 250.84 279.3C250.84 279.82 250.72 280.288 250.48 280.704C250.248 281.12 249.932 281.452 249.532 281.7C249.132 281.94 248.68 282.06 248.176 282.06H246.412V285H244.612ZM246.388 280.44H247.972C248.164 280.44 248.336 280.392 248.488 280.296C248.64 280.192 248.76 280.056 248.848 279.888C248.944 279.72 248.992 279.528 248.992 279.312C248.992 279.096 248.944 278.908 248.848 278.748C248.76 278.588 248.64 278.46 248.488 278.364C248.336 278.268 248.164 278.22 247.972 278.22H246.388V280.44ZM254.47 285.12C253.942 285.12 253.466 284.976 253.042 284.688C252.618 284.4 252.282 284.008 252.034 283.512C251.786 283.016 251.662 282.448 251.662 281.808C251.662 281.168 251.786 280.6 252.034 280.104C252.29 279.608 252.634 279.22 253.066 278.94C253.498 278.66 253.99 278.52 254.542 278.52C254.854 278.52 255.138 278.568 255.394 278.664C255.658 278.752 255.886 278.876 256.078 279.036C256.278 279.196 256.446 279.38 256.582 279.588C256.718 279.796 256.814 280.02 256.87 280.26L256.51 280.2V278.652H258.202V285H256.486V283.476L256.87 283.44C256.806 283.664 256.702 283.876 256.558 284.076C256.414 284.276 256.234 284.456 256.018 284.616C255.81 284.768 255.574 284.892 255.31 284.988C255.046 285.076 254.766 285.12 254.47 285.12ZM254.938 283.644C255.258 283.644 255.538 283.568 255.778 283.416C256.018 283.264 256.202 283.052 256.33 282.78C256.466 282.5 256.534 282.176 256.534 281.808C256.534 281.448 256.466 281.132 256.33 280.86C256.202 280.588 256.018 280.376 255.778 280.224C255.538 280.064 255.258 279.984 254.938 279.984C254.626 279.984 254.35 280.064 254.11 280.224C253.878 280.376 253.694 280.588 253.558 280.86C253.422 281.132 253.354 281.448 253.354 281.808C253.354 282.176 253.422 282.5 253.558 282.78C253.694 283.052 253.878 283.264 254.11 283.416C254.35 283.568 254.626 283.644 254.938 283.644ZM260.658 287.76L262.05 284.496L262.074 285.48L258.978 278.652H260.91L262.458 282.312C262.522 282.448 262.582 282.608 262.638 282.792C262.702 282.968 262.754 283.136 262.794 283.296L262.506 283.428C262.562 283.292 262.618 283.136 262.674 282.96C262.738 282.784 262.802 282.596 262.866 282.396L264.198 278.652H266.142L263.478 285L262.386 287.76H260.658ZM267.047 285V278.652H268.691L268.727 279.864L268.475 279.912C268.563 279.704 268.679 279.516 268.823 279.348C268.975 279.18 269.147 279.036 269.339 278.916C269.531 278.796 269.735 278.704 269.951 278.64C270.167 278.568 270.383 278.532 270.599 278.532C270.927 278.532 271.223 278.584 271.487 278.688C271.751 278.792 271.975 278.956 272.159 279.18C272.343 279.396 272.487 279.684 272.591 280.044L272.327 280.02L272.411 279.828C272.515 279.636 272.647 279.46 272.807 279.3C272.967 279.14 273.147 279.004 273.347 278.892C273.547 278.78 273.755 278.692 273.971 278.628C274.187 278.564 274.399 278.532 274.607 278.532C275.103 278.532 275.515 278.632 275.843 278.832C276.171 279.024 276.415 279.316 276.575 279.708C276.743 280.1 276.827 280.58 276.827 281.148V285H275.123V281.268C275.123 280.98 275.083 280.744 275.003 280.56C274.923 280.376 274.807 280.24 274.655 280.152C274.503 280.056 274.307 280.008 274.067 280.008C273.883 280.008 273.711 280.04 273.551 280.104C273.399 280.16 273.263 280.244 273.143 280.356C273.031 280.46 272.943 280.588 272.879 280.74C272.815 280.884 272.783 281.04 272.783 281.208V285H271.067V281.256C271.067 280.992 271.027 280.768 270.947 280.584C270.867 280.392 270.751 280.248 270.599 280.152C270.447 280.056 270.259 280.008 270.035 280.008C269.851 280.008 269.679 280.04 269.519 280.104C269.367 280.16 269.235 280.244 269.123 280.356C269.011 280.46 268.923 280.584 268.859 280.728C268.795 280.872 268.763 281.028 268.763 281.196V285H267.047ZM281.462 285.12C280.774 285.12 280.17 284.98 279.65 284.7C279.138 284.42 278.738 284.036 278.45 283.548C278.17 283.06 278.03 282.5 278.03 281.868C278.03 281.372 278.11 280.92 278.27 280.512C278.43 280.104 278.654 279.752 278.942 279.456C279.23 279.152 279.57 278.92 279.962 278.76C280.362 278.592 280.794 278.508 281.258 278.508C281.69 278.508 282.09 278.588 282.458 278.748C282.826 278.908 283.142 279.132 283.406 279.42C283.678 279.7 283.886 280.036 284.03 280.428C284.174 280.812 284.238 281.228 284.222 281.676L284.21 282.204H279.11L278.834 281.16H282.806L282.614 281.376V281.112C282.598 280.896 282.526 280.704 282.398 280.536C282.278 280.36 282.122 280.224 281.93 280.128C281.738 280.024 281.522 279.972 281.282 279.972C280.93 279.972 280.63 280.04 280.382 280.176C280.142 280.312 279.958 280.512 279.83 280.776C279.702 281.04 279.638 281.36 279.638 281.736C279.638 282.12 279.718 282.452 279.878 282.732C280.046 283.012 280.278 283.232 280.574 283.392C280.878 283.544 281.234 283.62 281.642 283.62C281.922 283.62 282.178 283.576 282.41 283.488C282.642 283.4 282.89 283.248 283.154 283.032L283.97 284.172C283.738 284.38 283.482 284.556 283.202 284.7C282.922 284.836 282.634 284.94 282.338 285.012C282.042 285.084 281.75 285.12 281.462 285.12ZM285.481 285V278.652H287.113L287.161 279.948L286.825 280.092C286.913 279.804 287.069 279.544 287.293 279.312C287.525 279.072 287.801 278.88 288.121 278.736C288.441 278.592 288.777 278.52 289.129 278.52C289.609 278.52 290.009 278.616 290.329 278.808C290.657 279 290.901 279.292 291.061 279.684C291.229 280.068 291.313 280.544 291.313 281.112V285H289.609V281.244C289.609 280.956 289.569 280.716 289.489 280.524C289.409 280.332 289.285 280.192 289.117 280.104C288.957 280.016 288.757 279.976 288.517 279.984C288.325 279.984 288.145 280.016 287.977 280.08C287.817 280.136 287.677 280.22 287.557 280.332C287.445 280.444 287.353 280.572 287.281 280.716C287.217 280.86 287.185 281.016 287.185 281.184V285H286.345C286.161 285 285.997 285 285.853 285C285.709 285 285.585 285 285.481 285ZM293.558 285V277.044H295.262V285H293.558ZM292.37 280.176V278.652H296.57V280.176H292.37Z" fill="black"/>
<path d="M181.438 276.875H184.188C184.566 276.875 184.875 276.566 184.875 276.188C184.875 275.809 184.566 275.5 184.188 275.5H181.438C181.058 275.5 180.75 275.809 180.75 276.188C180.75 276.566 181.058 276.875 181.438 276.875ZM181.438 274.125H184.188C184.566 274.125 184.875 273.817 184.875 273.438C184.875 273.058 184.566 272.75 184.188 272.75H181.438C181.058 272.75 180.75 273.058 180.75 273.438C180.75 273.817 181.058 274.125 181.438 274.125ZM193.696 275.384L189.12 270.808C188.6 270.29 187.904 270 187.174 270H180.75C179.231 270 178 271.231 178 272.75L178 289.25C178 290.769 179.231 292 180.75 292H191.75C193.269 292 194.5 290.769 194.5 289.25V277.326C194.5 276.596 194.212 275.9 193.696 275.384ZM187.625 271.464C187.817 271.532 187.997 271.63 188.146 271.778L192.722 276.354C192.871 276.501 192.97 276.682 193.035 276.875H188.312C187.934 276.875 187.625 276.566 187.625 276.188V271.464ZM193.125 289.25C193.125 290.008 192.508 290.625 191.75 290.625H180.75C179.992 290.625 179.375 290.008 179.375 289.25V272.75C179.375 271.992 179.992 271.375 180.75 271.375H186.25V276.188C186.25 277.326 187.174 278.25 188.312 278.25H193.125V289.25ZM180.75 281.688V284.438C180.75 285.195 181.367 285.812 182.125 285.812H190.375C191.133 285.812 191.75 285.195 191.75 284.438V281.688C191.75 280.93 191.133 280.312 190.375 280.312H182.125C181.367 280.312 180.75 280.931 180.75 281.688ZM190.375 284.438H182.125V281.688H190.375V284.438ZM191.062 287.875H188.312C187.932 287.875 187.625 288.182 187.625 288.562C187.625 288.943 187.932 289.25 188.312 289.25H191.062C191.443 289.25 191.75 288.943 191.75 288.562C191.75 288.182 191.441 287.875 191.062 287.875Z" fill="black"/>
<rect x="83" y="391" width="315" height="41" rx="6" fill="#0900FF"/>
<path d="M218.274 416V406.2H224.896V408.048H220.332V414.152H224.994V416H218.274ZM219.254 411.898V410.106H224.224V411.898H219.254ZM231.557 416L229.723 413.382L229.163 412.598L226.167 408.594H228.575L230.367 411.128L230.983 411.954L233.937 416H231.557ZM226.139 416L229.093 411.954L230.185 413.256L228.477 416H226.139ZM230.899 412.668L229.835 411.366L231.417 408.594H233.755L230.899 412.668ZM235.166 419.08V408.594H237.084L237.14 410.26L236.776 410.134C236.841 409.835 237 409.56 237.252 409.308C237.513 409.056 237.835 408.851 238.218 408.692C238.601 408.533 239.002 408.454 239.422 408.454C240.066 408.454 240.64 408.622 241.144 408.958C241.648 409.285 242.045 409.737 242.334 410.316C242.623 410.885 242.768 411.543 242.768 412.29C242.768 413.027 242.623 413.685 242.334 414.264C242.045 414.843 241.648 415.3 241.144 415.636C240.64 415.963 240.066 416.126 239.422 416.126C238.993 416.126 238.582 416.047 238.19 415.888C237.807 415.72 237.481 415.501 237.21 415.23C236.949 414.959 236.781 414.67 236.706 414.362L237.168 414.166V419.08H235.166ZM238.974 414.418C239.338 414.418 239.66 414.329 239.94 414.152C240.22 413.975 240.439 413.727 240.598 413.41C240.757 413.083 240.836 412.71 240.836 412.29C240.836 411.87 240.757 411.501 240.598 411.184C240.439 410.867 240.22 410.619 239.94 410.442C239.669 410.265 239.347 410.176 238.974 410.176C238.601 410.176 238.274 410.265 237.994 410.442C237.714 410.61 237.495 410.857 237.336 411.184C237.177 411.501 237.098 411.87 237.098 412.29C237.098 412.71 237.177 413.083 237.336 413.41C237.495 413.727 237.714 413.975 237.994 414.152C238.274 414.329 238.601 414.418 238.974 414.418ZM247.715 416.14C246.959 416.14 246.283 415.977 245.685 415.65C245.097 415.314 244.631 414.857 244.285 414.278C243.949 413.699 243.781 413.037 243.781 412.29C243.781 411.543 243.949 410.881 244.285 410.302C244.631 409.723 245.097 409.271 245.685 408.944C246.283 408.608 246.959 408.44 247.715 408.44C248.462 408.44 249.129 408.608 249.717 408.944C250.315 409.271 250.781 409.723 251.117 410.302C251.453 410.881 251.621 411.543 251.621 412.29C251.621 413.037 251.453 413.699 251.117 414.278C250.781 414.857 250.315 415.314 249.717 415.65C249.129 415.977 248.462 416.14 247.715 416.14ZM247.715 414.404C248.079 414.404 248.406 414.315 248.695 414.138C248.985 413.951 249.209 413.699 249.367 413.382C249.535 413.055 249.615 412.691 249.605 412.29C249.615 411.879 249.535 411.515 249.367 411.198C249.209 410.871 248.985 410.619 248.695 410.442C248.406 410.255 248.079 410.162 247.715 410.162C247.342 410.162 247.011 410.255 246.721 410.442C246.432 410.629 246.203 410.881 246.035 411.198C245.867 411.515 245.788 411.879 245.797 412.29C245.788 412.691 245.867 413.055 246.035 413.382C246.203 413.699 246.432 413.951 246.721 414.138C247.011 414.315 247.342 414.404 247.715 414.404ZM253.131 416V408.594H255.049L255.119 410.974L254.783 410.484C254.895 410.101 255.077 409.756 255.329 409.448C255.581 409.131 255.875 408.883 256.211 408.706C256.556 408.529 256.915 408.44 257.289 408.44C257.447 408.44 257.601 408.454 257.751 408.482C257.9 408.51 258.026 408.543 258.129 408.58L257.597 410.764C257.494 410.708 257.359 410.661 257.191 410.624C257.032 410.577 256.869 410.554 256.701 410.554C256.477 410.554 256.267 410.596 256.071 410.68C255.884 410.755 255.721 410.867 255.581 411.016C255.441 411.156 255.329 411.324 255.245 411.52C255.17 411.716 255.133 411.931 255.133 412.164V416H253.131ZM260.257 416V406.718H262.245V416H260.257ZM258.871 410.372V408.594H263.771V410.372H258.871Z" fill="white"/>
<defs>
<filter id="filter0_d_146_458" x="59.2" y="140.2" width="362.6" height="134.6" filterUnits="userSpaceOnUse" color-interpolation-filters="sRGB">
<feFlood flood-opacity="0" result="BackgroundImageFix"/>
<feColorMatrix in="SourceAlpha" type="matrix" values="0 0 0 0 0 0 0 0 0 0 0 0 0 0 0 0 0 0 127 0" result="hardAlpha"/>
<feMorphology radius="2" operator="dilate" in="SourceAlpha" result="effect1_dropShadow_146_458"/>
<feOffset dy="4"/>
<feGaussianBlur stdDeviation="10.9"/>
<feComposite in2="hardAlpha" operator="out"/>
<feColorMatrix type="matrix" values="0 0 0 0 0 0 0 0 0 0 0 0 0 0 0 0 0 0 0.11 0"/>
<feBlend mode="normal" in2="BackgroundImageFix" result="effect1_dropShadow_146_458"/>
<feBlend mode="normal" in="SourceGraphic" in2="effect1_dropShadow_146_458" result="shape"/>
</filter>
<filter id="filter1_d_146_458" x="59.2" y="241.2" width="362.6" height="134.6" filterUnits="userSpaceOnUse" color-interpolation-filters="sRGB">
<feFlood flood-opacity="0" result="BackgroundImageFix"/>
<feColorMatrix in="SourceAlpha" type="matrix" values="0 0 0 0 0 0 0 0 0 0 0 0 0 0 0 0 0 0 127 0" result="hardAlpha"/>
<feMorphology radius="2" operator="dilate" in="SourceAlpha" result="effect1_dropShadow_146_458"/>
<feOffset dy="4"/>
<feGaussianBlur stdDeviation="10.9"/>
<feComposite in2="hardAlpha" operator="out"/>
<feColorMatrix type="matrix" values="0 0 0 0 0 0 0 0 0 0 0 0 0 0 0 0 0 0 0.11 0"/>
<feBlend mode="normal" in2="BackgroundImageFix" result="effect1_dropShadow_146_458"/>
<feBlend mode="normal" in="SourceGraphic" in2="effect1_dropShadow_146_458" result="shape"/>
</filter>
</defs>
</svg>
