<svg xmlns="http://www.w3.org/2000/svg" xmlns:xlink="http://www.w3.org/1999/xlink" width="480" height="540" viewBox="0 0 480 540">
  <defs>
    <style>
      .cls-1 {
        fill: none;
      }

      .cls-2 {
        clip-path: url(#clip-path);
      }

      .cls-3 {
        fill: #f1f5f7;
      }

      .cls-4 {
        fill: #fff;
      }

      .cls-5 {
        fill: #d3d3d3;
      }

      .cls-6 {
        fill: #e4e6ea;
      }

      .cls-7 {
        fill: #fbcfce;
      }

      .cls-8 {
        fill: #2d6eca;
      }

      .cls-9 {
        filter: url(#Path_34171);
      }

      .cls-10 {
        filter: url(#Path_34130);
      }

      .cls-11 {
        filter: url(#Path_34087);
      }
    </style>
    <clipPath id="clip-path">
      <rect id="Rectangle_2440" data-name="Rectangle 2440" class="cls-1" width="345" height="388"/>
    </clipPath>
    <filter id="Path_34087" x="60.993" y="64.807" width="235.318" height="231.007" filterUnits="userSpaceOnUse">
      <feOffset dy="3" input="SourceAlpha"/>
      <feGaussianBlur stdDeviation="10" result="blur"/>
      <feFlood flood-opacity="0.102"/>
      <feComposite operator="in" in2="blur"/>
      <feComposite in="SourceGraphic"/>
    </filter>
    <filter id="Path_34130" x="168.052" y="207.793" width="262.622" height="190.052" filterUnits="userSpaceOnUse">
      <feOffset dy="3" input="SourceAlpha"/>
      <feGaussianBlur stdDeviation="10" result="blur-2"/>
      <feFlood flood-opacity="0.102"/>
      <feComposite operator="in" in2="blur-2"/>
      <feComposite in="SourceGraphic"/>
    </filter>
    <filter id="Path_34171" x="55.963" y="333.533" width="326.57" height="144.785" filterUnits="userSpaceOnUse">
      <feOffset dy="3" input="SourceAlpha"/>
      <feGaussianBlur stdDeviation="10" result="blur-3"/>
      <feFlood flood-opacity="0.102"/>
      <feComposite operator="in" in2="blur-3"/>
      <feComposite in="SourceGraphic"/>
    </filter>
  </defs>
  <g id="lease_renewal_automation" data-name="lease renewal automation" transform="translate(-1317 1874)">
    <rect id="Image_80" data-name="Image 80" class="cls-1" width="480" height="540" transform="translate(1317 -1874)"/>
    <g id="Group_6540" data-name="Group 6540" transform="translate(1385 -1798)">
      <g id="Group_6532" data-name="Group 6532" class="cls-2">
        <path id="Path_34086" data-name="Path 34086" class="cls-3" d="M21.556,0H323.333a21.555,21.555,0,0,1,21.556,21.556V366.444A21.555,21.555,0,0,1,323.333,388H21.556A21.555,21.555,0,0,1,0,366.444V21.556A21.555,21.555,0,0,1,21.556,0"/>
        <g class="cls-11" transform="matrix(1, 0, 0, 1, -68, -76)">
          <path id="Path_34087-2" data-name="Path 34087" class="cls-4" d="M39.9,22H199.415a7.9,7.9,0,0,1,7.9,7.9V185.1a7.9,7.9,0,0,1-7.9,7.9H39.9a7.9,7.9,0,0,1-7.9-7.9V29.9A7.9,7.9,0,0,1,39.9,22" transform="translate(58.99 69.81)"/>
        </g>
        <path id="Path_34088" data-name="Path 34088" d="M49.065,100.044V92.5H51.77a3.184,3.184,0,0,1,1.482.308,2.061,2.061,0,0,1,.872.818,2.436,2.436,0,0,1,.006,2.28,2.037,2.037,0,0,1-.873.83,3.238,3.238,0,0,1-1.52.313h-1.38v3Zm1.293-3.955h1.326a1.419,1.419,0,0,0,1.061-.35,1.269,1.269,0,0,0,.34-.922,1.225,1.225,0,0,0-.334-.9,1.443,1.443,0,0,0-1.067-.34H50.358ZM53,100.044l-1.584-3.33h1.4l1.66,3.33Z" transform="translate(-13.811 -26.037)"/>
        <path id="Path_34089" data-name="Path 34089" d="M60.327,100.951a2.822,2.822,0,0,1-1.423-.35,2.465,2.465,0,0,1-.959-.986,3.028,3.028,0,0,1-.345-1.466,3.206,3.206,0,0,1,.34-1.51,2.506,2.506,0,0,1,.959-1.013,2.77,2.77,0,0,1,1.438-.366,2.651,2.651,0,0,1,1.39.356,2.463,2.463,0,0,1,.916.953,2.78,2.78,0,0,1,.323,1.343v.237a1.773,1.773,0,0,1-.022.269H58.527v-.831h3.136a1.259,1.259,0,0,0-.4-.933,1.352,1.352,0,0,0-.938-.338,1.5,1.5,0,0,0-.733.183,1.308,1.308,0,0,0-.528.544,1.909,1.909,0,0,0-.194.91v.313a1.883,1.883,0,0,0,.189.872,1.31,1.31,0,0,0,.517.555,1.456,1.456,0,0,0,.738.189,1.335,1.335,0,0,0,.749-.195,1.151,1.151,0,0,0,.437-.517h1.315a2.48,2.48,0,0,1-.5.911,2.433,2.433,0,0,1-.851.636,2.716,2.716,0,0,1-1.142.231" transform="translate(-16.213 -26.814)"/>
        <path id="Path_34090" data-name="Path 34090" d="M66.735,100.821V95.389h1.142l.1.905a1.89,1.89,0,0,1,.711-.754,2.084,2.084,0,0,1,1.1-.28,2.16,2.16,0,0,1,1.121.275,1.824,1.824,0,0,1,.717.8,3.032,3.032,0,0,1,.253,1.315v3.169H70.583v-3.05a1.6,1.6,0,0,0-.3-1.045,1.092,1.092,0,0,0-.895-.366,1.329,1.329,0,0,0-.695.183,1.273,1.273,0,0,0-.485.533,1.853,1.853,0,0,0-.178.846v2.9Z" transform="translate(-18.785 -26.814)"/>
        <path id="Path_34091" data-name="Path 34091" d="M78.007,100.31a2.42,2.42,0,0,1-.954-.172,1.292,1.292,0,0,1-.63-.571,2.185,2.185,0,0,1-.226-1.078V95.967h-.927V94.878H76.2l.151-1.433h1.142v1.433h1.477v1.089H77.489v2.522a.732.732,0,0,0,.177.566.91.91,0,0,0,.6.156h.668v1.1Z" transform="translate(-21.187 -26.303)"/>
        <path id="Path_34092" data-name="Path 34092" d="M49.065,178.045V170.5H50.6l2.414,4.872L55.4,170.5h1.541v7.544H55.65V172.72l-2.134,4.268H52.5l-2.145-4.257v5.313Z" transform="translate(-13.811 -47.993)"/>
        <path id="Path_34093" data-name="Path 34093" d="M64.56,178.951a2.719,2.719,0,0,1-1.4-.361,2.545,2.545,0,0,1-.97-1,3.286,3.286,0,0,1,.005-2.964,2.594,2.594,0,0,1,.976-1,2.876,2.876,0,0,1,2.791,0,2.568,2.568,0,0,1,.97,1,3.037,3.037,0,0,1,.35,1.487,3,3,0,0,1-.356,1.487,2.6,2.6,0,0,1-.975,1,2.722,2.722,0,0,1-1.4.361m0-1.11a1.332,1.332,0,0,0,.706-.194,1.388,1.388,0,0,0,.512-.582,2.13,2.13,0,0,0,.194-.959,2.159,2.159,0,0,0-.188-.953,1.361,1.361,0,0,0-.507-.577,1.377,1.377,0,0,0-1.407,0,1.378,1.378,0,0,0-.517.577,2.1,2.1,0,0,0-.194.953,2.13,2.13,0,0,0,.194.959,1.384,1.384,0,0,0,.512.582,1.308,1.308,0,0,0,.695.194" transform="translate(-17.408 -48.769)"/>
        <path id="Path_34094" data-name="Path 34094" d="M71.175,178.821v-5.432h1.142l.1.905a1.891,1.891,0,0,1,.711-.754,2.084,2.084,0,0,1,1.1-.28,2.16,2.16,0,0,1,1.121.275,1.824,1.824,0,0,1,.717.8,3.032,3.032,0,0,1,.253,1.315v3.169H75.023v-3.05a1.6,1.6,0,0,0-.3-1.045,1.092,1.092,0,0,0-.895-.366,1.329,1.329,0,0,0-.695.183,1.273,1.273,0,0,0-.485.533,1.853,1.853,0,0,0-.178.846v2.9Z" transform="translate(-20.034 -48.769)"/>
        <path id="Path_34095" data-name="Path 34095" d="M82.706,178.951a2.822,2.822,0,0,1-1.423-.35,2.465,2.465,0,0,1-.959-.986,3.028,3.028,0,0,1-.345-1.466,3.206,3.206,0,0,1,.34-1.51,2.506,2.506,0,0,1,.959-1.013,2.77,2.77,0,0,1,1.438-.366,2.651,2.651,0,0,1,1.39.356,2.463,2.463,0,0,1,.916.953,2.78,2.78,0,0,1,.323,1.343v.237a1.772,1.772,0,0,1-.022.269H80.906v-.831h3.136a1.259,1.259,0,0,0-.4-.933,1.352,1.352,0,0,0-.938-.338,1.5,1.5,0,0,0-.733.183,1.308,1.308,0,0,0-.528.544,1.909,1.909,0,0,0-.194.91v.313a1.883,1.883,0,0,0,.189.872,1.311,1.311,0,0,0,.517.555,1.456,1.456,0,0,0,.738.189,1.335,1.335,0,0,0,.749-.195,1.151,1.151,0,0,0,.437-.517H85.2a2.48,2.48,0,0,1-.5.911,2.433,2.433,0,0,1-.851.636,2.716,2.716,0,0,1-1.142.231" transform="translate(-22.513 -48.769)"/>
        <path id="Path_34096" data-name="Path 34096" d="M89.229,181.243l1.326-2.975h-.323l-2.166-4.828h1.412l1.617,3.686,1.53-3.686h1.369l-3.4,7.8Z" transform="translate(-24.789 -48.82)"/>
        <path id="Path_34097" data-name="Path 34097" d="M101.279,177.96V170.2h1.293v3.169a2,2,0,0,1,.733-.706,2.074,2.074,0,0,1,1.045-.264,2.183,2.183,0,0,1,1.132.275,1.75,1.75,0,0,1,.706.808,3.216,3.216,0,0,1,.242,1.331v3.147h-1.283v-3.029a1.663,1.663,0,0,0-.3-1.067,1.09,1.09,0,0,0-.9-.366,1.311,1.311,0,0,0-1.2.728,1.829,1.829,0,0,0-.183.856v2.878Z" transform="translate(-28.508 -47.908)"/>
        <path id="Path_34098" data-name="Path 34098" d="M112.826,178.951a2.822,2.822,0,0,1-1.423-.35,2.465,2.465,0,0,1-.959-.986,3.028,3.028,0,0,1-.345-1.466,3.206,3.206,0,0,1,.34-1.51,2.506,2.506,0,0,1,.959-1.013,2.77,2.77,0,0,1,1.438-.366,2.651,2.651,0,0,1,1.39.356,2.463,2.463,0,0,1,.916.953,2.78,2.78,0,0,1,.323,1.343v.237a1.773,1.773,0,0,1-.022.269h-4.419v-.831h3.136a1.259,1.259,0,0,0-.4-.933,1.352,1.352,0,0,0-.938-.338,1.5,1.5,0,0,0-.733.183,1.308,1.308,0,0,0-.528.544,1.909,1.909,0,0,0-.194.91v.313a1.883,1.883,0,0,0,.189.872,1.31,1.31,0,0,0,.517.555,1.456,1.456,0,0,0,.738.189,1.335,1.335,0,0,0,.749-.195,1.151,1.151,0,0,0,.437-.517h1.315a2.48,2.48,0,0,1-.5.911,2.433,2.433,0,0,1-.851.636,2.716,2.716,0,0,1-1.142.231" transform="translate(-30.991 -48.769)"/>
        <rect id="Rectangle_2435" data-name="Rectangle 2435" width="1.293" height="7.76" transform="translate(85.672 122.292)"/>
        <path id="Path_34099" data-name="Path 34099" d="M125.386,178.089a2.472,2.472,0,0,1-2.269-1.38,3.189,3.189,0,0,1-.328-1.466,3.115,3.115,0,0,1,.334-1.461,2.567,2.567,0,0,1,.932-1.013,2.517,2.517,0,0,1,1.353-.371,2.345,2.345,0,0,1,1.072.231,1.827,1.827,0,0,1,.728.652V170.2H128.5v7.76h-1.164l-.129-.787a2.571,2.571,0,0,1-.42.447,1.97,1.97,0,0,1-.593.34,2.3,2.3,0,0,1-.808.129m.269-1.121a1.52,1.52,0,0,0,.819-.221,1.479,1.479,0,0,0,.55-.609,2.161,2.161,0,0,0,0-1.79,1.446,1.446,0,0,0-.55-.6,1.549,1.549,0,0,0-.819-.216,1.508,1.508,0,0,0-.8.216,1.483,1.483,0,0,0-.555.6,2.112,2.112,0,0,0,0,1.79,1.517,1.517,0,0,0,.555.609,1.481,1.481,0,0,0,.8.221" transform="translate(-34.563 -47.908)"/>
        <path id="Path_34100" data-name="Path 34100" d="M139.5,178.089a2.461,2.461,0,0,1-.776-.114,2,2,0,0,1-.6-.312,1.941,1.941,0,0,1-.431-.458l-.14.754h-1.153V170.2h1.293v3.126a2.032,2.032,0,0,1,1.8-.927,2.479,2.479,0,0,1,1.352.371,2.635,2.635,0,0,1,.927,1.013,3.345,3.345,0,0,1,.006,2.927,2.547,2.547,0,0,1-.922,1.013,2.5,2.5,0,0,1-1.352.366m-.269-1.121a1.5,1.5,0,0,0,.808-.221,1.528,1.528,0,0,0,.555-.6,2.117,2.117,0,0,0,0-1.8,1.481,1.481,0,0,0-.555-.6,1.634,1.634,0,0,0-1.622,0,1.488,1.488,0,0,0-.549.6,2.117,2.117,0,0,0,0,1.8,1.535,1.535,0,0,0,.549.6,1.494,1.494,0,0,0,.814.221" transform="translate(-38.392 -47.908)"/>
        <path id="Path_34101" data-name="Path 34101" d="M145.883,181.243l1.326-2.975h-.323l-2.166-4.828h1.412l1.617,3.686,1.53-3.686h1.369l-3.4,7.8Z" transform="translate(-40.736 -48.82)"/>
        <path id="Path_34102" data-name="Path 34102" d="M49.42,55.059V45h3.621a4.32,4.32,0,0,1,2,.41,2.77,2.77,0,0,1,1.178,1.1,3.369,3.369,0,0,1,.014,3.112,2.746,2.746,0,0,1-1.164,1.121,4.26,4.26,0,0,1-2.026.424h-1.9v3.894Zm1.724-5.3h1.8a2,2,0,0,0,1.466-.453,1.907,1.907,0,0,0,0-2.45,2.018,2.018,0,0,0-1.466-.445h-1.8Z" transform="translate(-13.911 -12.667)"/>
        <path id="Path_34103" data-name="Path 34103" d="M63.144,56.268a3.229,3.229,0,0,1-1.48-.3,2.046,2.046,0,0,1-.877-.8,2.16,2.16,0,0,1-.287-1.092,2.026,2.026,0,0,1,.352-1.193,2.277,2.277,0,0,1,1.042-.783,4.516,4.516,0,0,1,1.7-.28h1.825a2.518,2.518,0,0,0-.158-.956,1.128,1.128,0,0,0-.489-.568,1.713,1.713,0,0,0-.848-.187,1.828,1.828,0,0,0-1.006.266,1.162,1.162,0,0,0-.517.812H60.7a2.579,2.579,0,0,1,.517-1.329,2.855,2.855,0,0,1,1.142-.862,3.855,3.855,0,0,1,1.559-.31,3.93,3.93,0,0,1,1.739.352,2.529,2.529,0,0,1,1.1,1.006,3.079,3.079,0,0,1,.381,1.574V56.1H65.673L65.5,54.931a2.332,2.332,0,0,1-.366.532,2.391,2.391,0,0,1-1.164.7,3.107,3.107,0,0,1-.826.1m.388-1.365a1.733,1.733,0,0,0,.74-.151,1.631,1.631,0,0,0,.56-.431A2.1,2.1,0,0,0,65.2,53.7a3.033,3.033,0,0,0,.172-.733v-.029h-1.6a2.3,2.3,0,0,0-.833.129.958.958,0,0,0-.474.352.943.943,0,0,0-.144.525.863.863,0,0,0,.56.848,1.654,1.654,0,0,0,.647.115" transform="translate(-17.03 -13.703)"/>
        <path id="Path_34104" data-name="Path 34104" d="M72.572,59.325l1.768-3.967h-.431L71.02,48.921H72.9l2.156,4.914L77.1,48.921h1.825L74.4,59.325Z" transform="translate(-19.991 -13.77)"/>
        <path id="Path_34105" data-name="Path 34105" d="M83.759,56.1V48.852h1.523l.144.992a2.437,2.437,0,0,1,.913-.855,2.675,2.675,0,0,1,1.3-.309,3.157,3.157,0,0,1,.984.144,2.292,2.292,0,0,1,.776.431,2.257,2.257,0,0,1,.553.719A2.854,2.854,0,0,1,91,49.025a2.945,2.945,0,0,1,1.408-.345,3.02,3.02,0,0,1,1.538.366,2.352,2.352,0,0,1,.963,1.078,4.126,4.126,0,0,1,.331,1.746V56.1h-1.71V52.043a2.283,2.283,0,0,0-.374-1.408,1.307,1.307,0,0,0-1.107-.489,1.6,1.6,0,0,0-.884.244,1.633,1.633,0,0,0-.6.711,2.717,2.717,0,0,0-.216,1.142V56.1h-1.71V52.043a2.283,2.283,0,0,0-.374-1.408,1.324,1.324,0,0,0-1.121-.489,1.547,1.547,0,0,0-.855.244,1.633,1.633,0,0,0-.6.711,2.717,2.717,0,0,0-.216,1.142V56.1Z" transform="translate(-23.577 -13.703)"/>
        <path id="Path_34106" data-name="Path 34106" d="M105.575,56.267a3.765,3.765,0,0,1-1.9-.467,3.276,3.276,0,0,1-1.279-1.315,4.034,4.034,0,0,1-.46-1.954,4.267,4.267,0,0,1,.453-2.012,3.339,3.339,0,0,1,1.279-1.351,3.7,3.7,0,0,1,1.918-.489,3.535,3.535,0,0,1,1.854.475,3.28,3.28,0,0,1,1.221,1.272,3.7,3.7,0,0,1,.431,1.788v.317a2.332,2.332,0,0,1-.029.359h-5.892V51.784h4.182a1.677,1.677,0,0,0-.532-1.244,1.8,1.8,0,0,0-1.25-.453,2,2,0,0,0-.977.245,1.747,1.747,0,0,0-.7.726,2.545,2.545,0,0,0-.259,1.214v.417a2.518,2.518,0,0,0,.251,1.164,1.749,1.749,0,0,0,.69.74,1.945,1.945,0,0,0,.984.251,1.8,1.8,0,0,0,1-.259,1.546,1.546,0,0,0,.582-.69h1.753a3.319,3.319,0,0,1-.661,1.214,3.236,3.236,0,0,1-1.135.847,3.618,3.618,0,0,1-1.523.31" transform="translate(-28.694 -13.702)"/>
        <path id="Path_34107" data-name="Path 34107" d="M114.119,56.1V48.852h1.523l.129,1.207a2.529,2.529,0,0,1,.948-1.006,2.782,2.782,0,0,1,1.466-.374,2.88,2.88,0,0,1,1.495.366,2.427,2.427,0,0,1,.956,1.071,4.044,4.044,0,0,1,.338,1.753V56.1h-1.724V52.028a2.141,2.141,0,0,0-.4-1.394,1.456,1.456,0,0,0-1.193-.489,1.772,1.772,0,0,0-.927.244,1.7,1.7,0,0,0-.647.711,2.468,2.468,0,0,0-.237,1.128V56.1Z" transform="translate(-32.122 -13.703)"/>
        <path id="Path_34108" data-name="Path 34108" d="M129.149,55.414a3.216,3.216,0,0,1-1.272-.23,1.728,1.728,0,0,1-.841-.762,2.913,2.913,0,0,1-.3-1.437V49.623H125.5V48.171h1.236l.2-1.911h1.523v1.911h1.969v1.451h-1.969v3.363a.973.973,0,0,0,.237.754,1.208,1.208,0,0,0,.8.208h.891v1.466Z" transform="translate(-35.326 -13.021)"/>
        <path id="Path_34109" data-name="Path 34109" d="M137.355,56.267a4.174,4.174,0,0,1-1.674-.31,2.689,2.689,0,0,1-1.121-.861,2.52,2.52,0,0,1-.481-1.272H135.8a1.509,1.509,0,0,0,.259.553,1.246,1.246,0,0,0,.51.4,1.887,1.887,0,0,0,.769.144,1.74,1.74,0,0,0,.7-.122.893.893,0,0,0,.4-.323.785.785,0,0,0,.129-.432.719.719,0,0,0-.187-.531,1.27,1.27,0,0,0-.539-.295q-.352-.109-.841-.208a9.183,9.183,0,0,1-1-.252,3.91,3.91,0,0,1-.862-.38,1.788,1.788,0,0,1-.6-.589,1.63,1.63,0,0,1-.223-.877,1.992,1.992,0,0,1,.338-1.135,2.3,2.3,0,0,1,.977-.8,3.625,3.625,0,0,1,1.53-.3,3.221,3.221,0,0,1,2.019.583,2.324,2.324,0,0,1,.884,1.631h-1.638a.918.918,0,0,0-.4-.626,1.548,1.548,0,0,0-.877-.222,1.474,1.474,0,0,0-.855.208.646.646,0,0,0-.295.553.541.541,0,0,0,.18.4,1.45,1.45,0,0,0,.525.295,7.874,7.874,0,0,0,.848.237,10.494,10.494,0,0,1,1.423.374,2.221,2.221,0,0,1,.977.632,1.75,1.75,0,0,1,.359,1.178,2.022,2.022,0,0,1-.352,1.221,2.4,2.4,0,0,1-1.027.827,3.868,3.868,0,0,1-1.581.295" transform="translate(-37.741 -13.702)"/>
        <path id="Path_34110" data-name="Path 34110" class="cls-4" d="M51.593,116H183.8a3.593,3.593,0,0,1,3.593,3.593v21.556a3.593,3.593,0,0,1-3.593,3.593H51.593A3.593,3.593,0,0,1,48,141.148V119.593A3.593,3.593,0,0,1,51.593,116" transform="translate(-13.511 -32.652)"/>
        <path id="Path_34111" data-name="Path 34111" class="cls-5" d="M183.8,144.741H51.593A3.6,3.6,0,0,1,48,141.148V119.593A3.6,3.6,0,0,1,51.593,116H183.8a3.6,3.6,0,0,1,3.593,3.593v21.556a3.6,3.6,0,0,1-3.593,3.593M51.593,116.359a3.237,3.237,0,0,0-3.233,3.233v21.556a3.237,3.237,0,0,0,3.233,3.233H183.8a3.237,3.237,0,0,0,3.233-3.233V119.593a3.237,3.237,0,0,0-3.233-3.233Z" transform="translate(-13.511 -32.652)"/>
        <path id="Path_34112" data-name="Path 34112" class="cls-4" d="M51.593,196H183.8a3.593,3.593,0,0,1,3.593,3.593v21.556a3.593,3.593,0,0,1-3.593,3.593H51.593A3.593,3.593,0,0,1,48,221.148V199.593A3.593,3.593,0,0,1,51.593,196" transform="translate(-13.511 -55.17)"/>
        <path id="Path_34113" data-name="Path 34113" class="cls-5" d="M183.8,224.741H51.593A3.6,3.6,0,0,1,48,221.148V199.593A3.6,3.6,0,0,1,51.593,196H183.8a3.6,3.6,0,0,1,3.593,3.593v21.556a3.6,3.6,0,0,1-3.593,3.593M51.593,196.359a3.237,3.237,0,0,0-3.233,3.233v21.556a3.237,3.237,0,0,0,3.233,3.233H183.8a3.237,3.237,0,0,0,3.233-3.233V199.593a3.237,3.237,0,0,0-3.233-3.233Z" transform="translate(-13.511 -55.17)"/>
        <path id="Path_34114" data-name="Path 34114" d="M66.846,138.174a3.229,3.229,0,0,1-1.444-.318,2.409,2.409,0,0,1-1.029-.97,3.255,3.255,0,0,1-.383-1.665V130.5h1.078v4.731a2.417,2.417,0,0,0,.226,1.116,1.46,1.46,0,0,0,.631.646,2.229,2.229,0,0,0,1.891,0,1.438,1.438,0,0,0,.62-.646,2.477,2.477,0,0,0,.221-1.116V130.5h1.078v4.721a3.218,3.218,0,0,1-.388,1.665,2.428,2.428,0,0,1-1.045.97,3.3,3.3,0,0,1-1.455.318" transform="translate(-18.012 -36.733)"/>
        <path id="Path_34115" data-name="Path 34115" d="M76.42,138.123a3.372,3.372,0,0,1-1.455-.3,2.213,2.213,0,0,1-1.315-2.1h1.132a1.607,1.607,0,0,0,.2.749,1.369,1.369,0,0,0,.55.539,1.816,1.816,0,0,0,.889.2,1.851,1.851,0,0,0,.782-.151,1.148,1.148,0,0,0,.5-.415,1.088,1.088,0,0,0,.172-.609,1.112,1.112,0,0,0-.183-.657,1.418,1.418,0,0,0-.49-.425,4.117,4.117,0,0,0-.711-.3c-.269-.087-.552-.18-.846-.281a3.12,3.12,0,0,1-1.331-.754,1.689,1.689,0,0,1-.437-1.207,2,2,0,0,1,.3-1.105,2.041,2.041,0,0,1,.846-.732,2.92,2.92,0,0,1,1.288-.264,2.881,2.881,0,0,1,1.283.269,2.124,2.124,0,0,1,.862.744,1.969,1.969,0,0,1,.313,1.11H77.627a1.19,1.19,0,0,0-.151-.571,1.174,1.174,0,0,0-.453-.458,1.443,1.443,0,0,0-.744-.178,1.492,1.492,0,0,0-.657.119,1.02,1.02,0,0,0-.453.377,1.063,1.063,0,0,0-.162.593.958.958,0,0,0,.146.555,1.2,1.2,0,0,0,.425.361,4.078,4.078,0,0,0,.652.275l.824.275a4.807,4.807,0,0,1,1,.447,2.06,2.06,0,0,1,.652,2.786,2.18,2.18,0,0,1-.862.792,2.986,2.986,0,0,1-1.423.307" transform="translate(-20.731 -36.683)"/>
        <path id="Path_34116" data-name="Path 34116" d="M82.875,138.044V130.5h2.317a4.575,4.575,0,0,1,2.177.463,2.923,2.923,0,0,1,1.277,1.311,5.056,5.056,0,0,1,0,4.014,2.9,2.9,0,0,1-1.272,1.3,4.594,4.594,0,0,1-2.182.458Zm1.078-.905h1.2a3.4,3.4,0,0,0,1.66-.345,1.958,1.958,0,0,0,.878-.987,3.991,3.991,0,0,0,.264-1.525,4.064,4.064,0,0,0-.264-1.541,1.952,1.952,0,0,0-.878-.992,3.4,3.4,0,0,0-1.66-.345h-1.2Z" transform="translate(-23.328 -36.733)"/>
        <path id="Path_34117" data-name="Path 34117" d="M64.125,218.045V210.5h.905v6.822h3.514v.722Z" transform="translate(-18.05 -59.252)"/>
        <path id="Path_34118" data-name="Path 34118" d="M73.642,218.95a2.349,2.349,0,0,1-1.1-.231,1.563,1.563,0,0,1-.657-.614,1.676,1.676,0,0,1-.216-.836,1.508,1.508,0,0,1,.286-.932,1.753,1.753,0,0,1,.808-.583,3.47,3.47,0,0,1,1.234-.2h1.433a2.038,2.038,0,0,0-.156-.846,1.114,1.114,0,0,0-.453-.512,1.447,1.447,0,0,0-.738-.172,1.548,1.548,0,0,0-.895.258,1.11,1.11,0,0,0-.463.766H71.8a1.789,1.789,0,0,1,.394-.976,2.117,2.117,0,0,1,.835-.6,2.717,2.717,0,0,1,1.056-.211,2.584,2.584,0,0,1,1.255.274,1.774,1.774,0,0,1,.749.765,2.542,2.542,0,0,1,.248,1.159v3.363h-.808l-.054-.959a2.048,2.048,0,0,1-.274.426,1.83,1.83,0,0,1-.388.344,1.894,1.894,0,0,1-.512.231,2.314,2.314,0,0,1-.657.086m.14-.764a1.482,1.482,0,0,0,.685-.157,1.547,1.547,0,0,0,.522-.43,2.041,2.041,0,0,0,.328-.609,2.17,2.17,0,0,0,.114-.7v-.032H74.073a2.424,2.424,0,0,0-.851.124.849.849,0,0,0-.6.846.936.936,0,0,0,.134.507.877.877,0,0,0,.4.334,1.527,1.527,0,0,0,.63.119" transform="translate(-20.174 -60.029)"/>
        <path id="Path_34119" data-name="Path 34119" d="M80.115,218.821v-5.432h.819l.043.948a1.923,1.923,0,0,1,.739-.793,2.1,2.1,0,0,1,1.094-.285,2.267,2.267,0,0,1,1.1.253,1.741,1.741,0,0,1,.722.766,2.868,2.868,0,0,1,.259,1.3v3.244h-.905v-3.147a1.812,1.812,0,0,0-.361-1.229,1.288,1.288,0,0,0-1.019-.41,1.5,1.5,0,0,0-.808.221,1.557,1.557,0,0,0-.565.636,2.268,2.268,0,0,0-.211,1.03v2.9Z" transform="translate(-22.551 -60.029)"/>
        <path id="Path_34120" data-name="Path 34120" d="M91.039,218.089a2.566,2.566,0,0,1-1.385-.372,2.481,2.481,0,0,1-.921-1.018,3.233,3.233,0,0,1-.323-1.466,3.2,3.2,0,0,1,.323-1.46,2.455,2.455,0,0,1,.921-1.008,2.621,2.621,0,0,1,1.4-.366,2.411,2.411,0,0,1,1.159.269,1.949,1.949,0,0,1,.781.754V210.2h.905v7.76h-.819l-.086-.895a2.294,2.294,0,0,1-.442.5,2.2,2.2,0,0,1-.641.378,2.39,2.39,0,0,1-.868.145m.1-.787a1.738,1.738,0,0,0,.948-.259,1.779,1.779,0,0,0,.642-.716,2.639,2.639,0,0,0,0-2.161,1.768,1.768,0,0,0-.642-.722,1.842,1.842,0,0,0-1.88,0,1.718,1.718,0,0,0-.642.722,2.693,2.693,0,0,0,0,2.161,1.716,1.716,0,0,0,1.574.975" transform="translate(-24.885 -59.167)"/>
        <rect id="Rectangle_2436" data-name="Rectangle 2436" width="0.905" height="7.76" transform="translate(70.507 151.033)"/>
        <path id="Path_34121" data-name="Path 34121" d="M103.81,218.951a2.655,2.655,0,0,1-1.358-.35,2.474,2.474,0,0,1-.948-.992,3.424,3.424,0,0,1,.006-3.007,2.5,2.5,0,0,1,.959-.992,2.852,2.852,0,0,1,2.738,0,2.539,2.539,0,0,1,.948.992,3.1,3.1,0,0,1,.35,1.5,3.05,3.05,0,0,1-.356,1.5,2.548,2.548,0,0,1-.959.992,2.7,2.7,0,0,1-1.38.35m.011-.776a1.687,1.687,0,0,0,.862-.231,1.708,1.708,0,0,0,.647-.7,2.4,2.4,0,0,0,.248-1.142,2.43,2.43,0,0,0-.243-1.148,1.7,1.7,0,0,0-.635-.689,1.694,1.694,0,0,0-2.372.689,2.83,2.83,0,0,0,0,2.291,1.682,1.682,0,0,0,.637.7,1.655,1.655,0,0,0,.856.231" transform="translate(-28.474 -60.029)"/>
        <path id="Path_34122" data-name="Path 34122" d="M110.369,218.821v-5.432h.819l.065,1.035a2.1,2.1,0,0,1,.469-.625,1.972,1.972,0,0,1,.69-.4,2.8,2.8,0,0,1,.921-.14v.948H113a2.353,2.353,0,0,0-.657.091,1.517,1.517,0,0,0-.555.3,1.338,1.338,0,0,0-.377.555,2.429,2.429,0,0,0-.135.867v2.8Z" transform="translate(-31.067 -60.029)"/>
        <path id="Path_34123" data-name="Path 34123" d="M117.949,218.089a2.566,2.566,0,0,1-1.385-.372,2.481,2.481,0,0,1-.921-1.018,3.233,3.233,0,0,1-.323-1.466,3.2,3.2,0,0,1,.323-1.46,2.454,2.454,0,0,1,.921-1.008,2.621,2.621,0,0,1,1.4-.366,2.411,2.411,0,0,1,1.159.269,1.949,1.949,0,0,1,.781.754V210.2h.905v7.76h-.819l-.086-.895a2.294,2.294,0,0,1-.442.5,2.2,2.2,0,0,1-.641.378,2.39,2.39,0,0,1-.868.145m.1-.787a1.738,1.738,0,0,0,.948-.259,1.779,1.779,0,0,0,.642-.716,2.64,2.64,0,0,0,0-2.161,1.768,1.768,0,0,0-.642-.722,1.842,1.842,0,0,0-1.88,0,1.718,1.718,0,0,0-.642.722,2.693,2.693,0,0,0,0,2.161,1.716,1.716,0,0,0,1.574.975" transform="translate(-32.46 -59.167)"/>
        <path id="Path_34124" data-name="Path 34124" d="M118.773,138.045v-6.531l-1.293.323v-.647l1.6-.69h.614v7.544Z" transform="translate(-33.068 -36.733)"/>
        <path id="Path_34125" data-name="Path 34125" d="M125.306,138.174a3,3,0,0,1-1.336-.28,2.255,2.255,0,0,1-.9-.765,2.551,2.551,0,0,1-.415-1.089h.884a1.681,1.681,0,0,0,.593.981,1.821,1.821,0,0,0,1.186.377,1.625,1.625,0,0,0,.921-.254,1.7,1.7,0,0,0,.593-.678,2.322,2.322,0,0,0,0-1.929,1.609,1.609,0,0,0-.593-.652,1.638,1.638,0,0,0-.878-.237,1.955,1.955,0,0,0-1.056.269,1.726,1.726,0,0,0-.647.7h-.873l.636-4.118H127.4v.787h-3.276l-.431,2.306a2.134,2.134,0,0,1,.722-.507,2.513,2.513,0,0,1,1.045-.2,2.46,2.46,0,0,1,1,.2,2.266,2.266,0,0,1,.776.555,2.547,2.547,0,0,1,.5.829,2.927,2.927,0,0,1,.178,1.035,3.033,3.033,0,0,1-.172,1.024,2.479,2.479,0,0,1-.512.856,2.394,2.394,0,0,1-.818.583,2.746,2.746,0,0,1-1.105.21" transform="translate(-34.525 -36.733)"/>
        <path id="Path_34126" data-name="Path 34126" d="M134.744,138.122a2.92,2.92,0,0,1-1.7-.49,3.133,3.133,0,0,1-1.094-1.369,5.647,5.647,0,0,1,0-4.085,3.135,3.135,0,0,1,1.094-1.368,3.19,3.19,0,0,1,3.4,0,3.114,3.114,0,0,1,1.084,1.368,5.718,5.718,0,0,1,0,4.085,3.112,3.112,0,0,1-1.084,1.369,2.893,2.893,0,0,1-1.7.49m0-.8a1.883,1.883,0,0,0,1.142-.372,2.459,2.459,0,0,0,.8-1.067,4.91,4.91,0,0,0,0-3.33,2.423,2.423,0,0,0-.8-1.061,1.9,1.9,0,0,0-1.142-.366,1.956,1.956,0,0,0-1.169.366,2.36,2.36,0,0,0-.8,1.061,4.991,4.991,0,0,0,0,3.33,2.394,2.394,0,0,0,.8,1.067,1.937,1.937,0,0,0,1.169.372" transform="translate(-37.033 -36.683)"/>
        <path id="Path_34127" data-name="Path 34127" d="M145,138.122a2.92,2.92,0,0,1-1.7-.49,3.133,3.133,0,0,1-1.094-1.369,5.647,5.647,0,0,1,0-4.085,3.135,3.135,0,0,1,1.094-1.368,3.19,3.19,0,0,1,3.4,0,3.114,3.114,0,0,1,1.084,1.368,5.718,5.718,0,0,1,0,4.085,3.112,3.112,0,0,1-1.084,1.369,2.893,2.893,0,0,1-1.7.49m0-.8a1.883,1.883,0,0,0,1.142-.372,2.459,2.459,0,0,0,.8-1.067,4.91,4.91,0,0,0,0-3.33,2.423,2.423,0,0,0-.8-1.061,1.9,1.9,0,0,0-1.142-.366,1.956,1.956,0,0,0-1.169.366,2.361,2.361,0,0,0-.8,1.061,4.991,4.991,0,0,0,0,3.33,2.4,2.4,0,0,0,.8,1.067,1.937,1.937,0,0,0,1.169.372" transform="translate(-39.921 -36.683)"/>
        <path id="Path_34128" data-name="Path 34128" d="M227.8,130.986a.3.3,0,0,1-.429.024h0l-2.831-2.549-2.831,2.549a.3.3,0,1,1-.406-.451l3.018-2.73a.305.305,0,0,1,.407,0l3.018,2.73a.281.281,0,0,1,.088.387.254.254,0,0,1-.032.042" transform="translate(-62.264 -35.959)"/>
        <path id="Path_34129" data-name="Path 34129" d="M227.8,140.5a.3.3,0,0,0-.429-.024h0l-2.831,2.549-2.831-2.549a.3.3,0,1,0-.406.451l3.018,2.73a.305.305,0,0,0,.407,0l3.018-2.73a.281.281,0,0,0,.088-.387.254.254,0,0,0-.032-.042" transform="translate(-62.264 -39.519)"/>
        <g class="cls-10" transform="matrix(1, 0, 0, 1, -68, -76)">
          <path id="Path_34130-2" data-name="Path 34130" class="cls-4" d="M188.9,221H375.719a7.9,7.9,0,0,1,7.9,7.9V343.148a7.9,7.9,0,0,1-7.9,7.9H188.9a7.9,7.9,0,0,1-7.9-7.9V228.9a7.9,7.9,0,0,1,7.9-7.9" transform="translate(17.05 13.79)"/>
        </g>
        <path id="Path_34131" data-name="Path 34131" d="M199.64,299.045v-6.5h-2.22V291.5h5.723v1.045h-2.22v6.5Z" transform="translate(-55.57 -82.052)"/>
        <path id="Path_34132" data-name="Path 34132" d="M206.519,302.243l1.326-2.975h-.323l-2.166-4.828h1.412l1.617,3.686,1.53-3.686h1.369l-3.395,7.8Z" transform="translate(-57.804 -82.88)"/>
        <path id="Path_34133" data-name="Path 34133" d="M214.91,302.192v-7.8h1.153l.14.787a2.709,2.709,0,0,1,.415-.448,1.9,1.9,0,0,1,.593-.339,2.311,2.311,0,0,1,.8-.129,2.447,2.447,0,0,1,1.352.377,2.636,2.636,0,0,1,.922,1.018,3.117,3.117,0,0,1,.334,1.461,3.07,3.07,0,0,1-.34,1.46,2.59,2.59,0,0,1-.927,1.008,2.481,2.481,0,0,1-1.341.366,2.348,2.348,0,0,1-1.073-.232,1.87,1.87,0,0,1-.738-.663v3.137Zm2.835-3.363a1.529,1.529,0,0,0,.808-.216,1.478,1.478,0,0,0,.555-.6,1.93,1.93,0,0,0,.2-.895,1.96,1.96,0,0,0-.2-.906,1.48,1.48,0,0,0-.555-.6,1.634,1.634,0,0,0-1.622,0,1.487,1.487,0,0,0-.549.6,2.117,2.117,0,0,0,0,1.8,1.535,1.535,0,0,0,.549.6,1.494,1.494,0,0,0,.814.221" transform="translate(-60.493 -82.829)"/>
        <path id="Path_34134" data-name="Path 34134" d="M227.072,299.951a2.822,2.822,0,0,1-1.423-.35,2.465,2.465,0,0,1-.959-.986,3.028,3.028,0,0,1-.345-1.466,3.206,3.206,0,0,1,.34-1.51,2.506,2.506,0,0,1,.959-1.013,2.771,2.771,0,0,1,1.438-.366,2.65,2.65,0,0,1,1.39.356,2.463,2.463,0,0,1,.916.953,2.78,2.78,0,0,1,.323,1.343v.237a1.772,1.772,0,0,1-.022.269h-4.419v-.831h3.136a1.259,1.259,0,0,0-.4-.933,1.352,1.352,0,0,0-.938-.338,1.5,1.5,0,0,0-.733.183,1.308,1.308,0,0,0-.528.544,1.909,1.909,0,0,0-.194.91v.313a1.882,1.882,0,0,0,.189.872,1.311,1.311,0,0,0,.517.555,1.456,1.456,0,0,0,.738.189,1.335,1.335,0,0,0,.749-.195,1.151,1.151,0,0,0,.437-.517h1.315a2.48,2.48,0,0,1-.5.911,2.433,2.433,0,0,1-.851.636,2.716,2.716,0,0,1-1.142.231" transform="translate(-63.149 -82.829)"/>
        <path id="Path_34135" data-name="Path 34135" d="M200.488,331.123a3.472,3.472,0,0,1-1.455-.29,2.312,2.312,0,0,1-.992-.831,2.337,2.337,0,0,1-.366-1.283h1.369a1.283,1.283,0,0,0,.178.674,1.267,1.267,0,0,0,.5.468,1.6,1.6,0,0,0,.77.172,1.681,1.681,0,0,0,.673-.124.989.989,0,0,0,.443-.356.95.95,0,0,0,.156-.543.984.984,0,0,0-.167-.588,1.394,1.394,0,0,0-.458-.394,3.852,3.852,0,0,0-.668-.285l-.8-.264a3.321,3.321,0,0,1-1.347-.772,1.728,1.728,0,0,1-.453-1.255,2.011,2.011,0,0,1,.313-1.132,2.078,2.078,0,0,1,.879-.738,3.376,3.376,0,0,1,2.63.006,2.208,2.208,0,0,1,.894.749,2.034,2.034,0,0,1,.34,1.147h-1.38a1.1,1.1,0,0,0-.555-.921,1.239,1.239,0,0,0-.642-.157,1.293,1.293,0,0,0-.577.1.934.934,0,0,0-.4.323.9.9,0,0,0-.146.523.875.875,0,0,0,.135.5,1.041,1.041,0,0,0,.393.334,4.346,4.346,0,0,0,.6.253l.754.259a5.4,5.4,0,0,1,1.019.447,2.081,2.081,0,0,1,.727.685,1.983,1.983,0,0,1,.269,1.088,2.066,2.066,0,0,1-.3,1.083,2.2,2.2,0,0,1-.884.808,3.1,3.1,0,0,1-1.455.307" transform="translate(-55.642 -91.009)"/>
        <path id="Path_34136" data-name="Path 34136" d="M209.173,331.31a2.42,2.42,0,0,1-.954-.172,1.292,1.292,0,0,1-.63-.571,2.185,2.185,0,0,1-.226-1.078v-2.522h-.927v-1.089h.927l.151-1.433h1.142v1.433h1.477v1.089h-1.477v2.522a.732.732,0,0,0,.177.566.91.91,0,0,0,.6.156h.668v1.1Z" transform="translate(-58.108 -91.325)"/>
        <path id="Path_34137" data-name="Path 34137" d="M215.018,331.951a2.422,2.422,0,0,1-1.11-.226,1.541,1.541,0,0,1-.657-.6,1.627,1.627,0,0,1-.216-.82,1.52,1.52,0,0,1,.264-.895,1.711,1.711,0,0,1,.782-.588,3.4,3.4,0,0,1,1.272-.21h1.369a1.884,1.884,0,0,0-.119-.717.842.842,0,0,0-.366-.425,1.282,1.282,0,0,0-.636-.141,1.374,1.374,0,0,0-.754.2.868.868,0,0,0-.388.609h-1.272a1.93,1.93,0,0,1,.388-1,2.151,2.151,0,0,1,.856-.647,2.9,2.9,0,0,1,1.17-.231,2.941,2.941,0,0,1,1.3.264,1.889,1.889,0,0,1,.824.754,2.305,2.305,0,0,1,.286,1.18v3.363h-1.1l-.129-.873a1.756,1.756,0,0,1-.275.4,1.816,1.816,0,0,1-.382.318,1.856,1.856,0,0,1-.49.211,2.351,2.351,0,0,1-.62.075m.291-1.024a1.308,1.308,0,0,0,.555-.113,1.226,1.226,0,0,0,.42-.323,1.591,1.591,0,0,0,.275-.469,2.277,2.277,0,0,0,.129-.549v-.022h-1.2a1.731,1.731,0,0,0-.625.1.651.651,0,0,0-.463.657.683.683,0,0,0,.108.388.676.676,0,0,0,.313.248,1.246,1.246,0,0,0,.485.086" transform="translate(-59.965 -91.836)"/>
        <path id="Path_34138" data-name="Path 34138" d="M221.884,331.821v-5.432h1.153l.119,1.013a2.174,2.174,0,0,1,.485-.609,2.107,2.107,0,0,1,.684-.394,2.576,2.576,0,0,1,.868-.14v1.369h-.453a2.284,2.284,0,0,0-.614.08,1.314,1.314,0,0,0-.5.259,1.169,1.169,0,0,0-.329.485,2.156,2.156,0,0,0-.119.77v2.6Z" transform="translate(-62.456 -91.836)"/>
        <path id="Path_34139" data-name="Path 34139" d="M230.052,331.31a2.42,2.42,0,0,1-.954-.172,1.292,1.292,0,0,1-.63-.571,2.185,2.185,0,0,1-.226-1.078v-2.522h-.927v-1.089h.927l.151-1.433h1.142v1.433h1.477v1.089h-1.477v2.522a.732.732,0,0,0,.177.566.91.91,0,0,0,.6.156h.668v1.1Z" transform="translate(-63.985 -91.325)"/>
        <path id="Path_34140" data-name="Path 34140" d="M240.156,331.089a2.472,2.472,0,0,1-2.269-1.38,3.189,3.189,0,0,1-.328-1.466,3.116,3.116,0,0,1,.334-1.461,2.567,2.567,0,0,1,.932-1.013,2.517,2.517,0,0,1,1.353-.371,2.345,2.345,0,0,1,1.072.231,1.827,1.827,0,0,1,.728.652V323.2h1.293v7.76h-1.164l-.129-.787a2.572,2.572,0,0,1-.42.447,1.97,1.97,0,0,1-.593.34,2.3,2.3,0,0,1-.808.129m.269-1.121a1.52,1.52,0,0,0,.819-.221,1.478,1.478,0,0,0,.55-.609,2.161,2.161,0,0,0,0-1.79,1.445,1.445,0,0,0-.55-.6,1.549,1.549,0,0,0-.819-.216,1.508,1.508,0,0,0-.8.216,1.483,1.483,0,0,0-.555.6,2.112,2.112,0,0,0,0,1.79,1.517,1.517,0,0,0,.555.609,1.481,1.481,0,0,0,.8.221" transform="translate(-66.868 -90.975)"/>
        <path id="Path_34141" data-name="Path 34141" d="M249.247,331.951a2.422,2.422,0,0,1-1.11-.226,1.541,1.541,0,0,1-.657-.6,1.627,1.627,0,0,1-.216-.82,1.52,1.52,0,0,1,.264-.895,1.711,1.711,0,0,1,.782-.588,3.4,3.4,0,0,1,1.272-.21h1.369a1.884,1.884,0,0,0-.119-.717.842.842,0,0,0-.366-.425,1.282,1.282,0,0,0-.636-.141,1.374,1.374,0,0,0-.754.2.868.868,0,0,0-.388.609h-1.272a1.93,1.93,0,0,1,.388-1,2.151,2.151,0,0,1,.856-.647,2.9,2.9,0,0,1,1.17-.231,2.941,2.941,0,0,1,1.3.264,1.888,1.888,0,0,1,.824.754,2.305,2.305,0,0,1,.286,1.18v3.363h-1.1l-.129-.873a1.756,1.756,0,0,1-.275.4,1.816,1.816,0,0,1-.382.318,1.855,1.855,0,0,1-.49.211,2.351,2.351,0,0,1-.62.075m.291-1.024a1.308,1.308,0,0,0,.555-.113,1.226,1.226,0,0,0,.42-.323,1.59,1.59,0,0,0,.275-.469,2.276,2.276,0,0,0,.129-.549v-.022h-1.2a1.731,1.731,0,0,0-.625.1.651.651,0,0,0-.463.657.683.683,0,0,0,.108.388.676.676,0,0,0,.313.248,1.246,1.246,0,0,0,.485.086" transform="translate(-69.6 -91.836)"/>
        <path id="Path_34142" data-name="Path 34142" d="M258.207,331.31a2.42,2.42,0,0,1-.954-.172,1.292,1.292,0,0,1-.63-.571,2.185,2.185,0,0,1-.226-1.078v-2.522h-.927v-1.089h.927l.151-1.433h1.142v1.433h1.477v1.089h-1.477v2.522a.732.732,0,0,0,.177.566.91.91,0,0,0,.6.156h.668v1.1Z" transform="translate(-71.91 -91.325)"/>
        <path id="Path_34143" data-name="Path 34143" d="M264.586,331.951a2.822,2.822,0,0,1-1.423-.35,2.464,2.464,0,0,1-.959-.986,3.028,3.028,0,0,1-.345-1.466,3.206,3.206,0,0,1,.34-1.51,2.506,2.506,0,0,1,.959-1.013,2.77,2.77,0,0,1,1.438-.366,2.651,2.651,0,0,1,1.39.356,2.463,2.463,0,0,1,.916.953,2.78,2.78,0,0,1,.323,1.343v.237a1.772,1.772,0,0,1-.022.269h-4.419v-.831h3.136a1.259,1.259,0,0,0-.4-.933,1.352,1.352,0,0,0-.938-.338,1.5,1.5,0,0,0-.733.183,1.308,1.308,0,0,0-.528.544,1.909,1.909,0,0,0-.194.91v.313a1.883,1.883,0,0,0,.189.872,1.311,1.311,0,0,0,.517.555,1.456,1.456,0,0,0,.738.189,1.335,1.335,0,0,0,.749-.195,1.151,1.151,0,0,0,.437-.517h1.315a2.48,2.48,0,0,1-.5.911,2.433,2.433,0,0,1-.851.636,2.716,2.716,0,0,1-1.142.231" transform="translate(-73.708 -91.836)"/>
        <path id="Path_34144" data-name="Path 34144" d="M198.065,363.045V355.5h4.872v1.045h-3.578v2.166h3.255v1.024h-3.255V362h3.578v1.045Z" transform="translate(-55.752 -100.067)"/>
        <path id="Path_34145" data-name="Path 34145" d="M206.675,363.821v-5.432h1.142l.1.905a1.891,1.891,0,0,1,.711-.754,2.084,2.084,0,0,1,1.1-.28,2.16,2.16,0,0,1,1.121.275,1.824,1.824,0,0,1,.717.8,3.032,3.032,0,0,1,.253,1.315v3.169h-1.293v-3.05a1.6,1.6,0,0,0-.3-1.045,1.092,1.092,0,0,0-.895-.366,1.329,1.329,0,0,0-.695.183,1.273,1.273,0,0,0-.485.533,1.853,1.853,0,0,0-.178.846v2.9Z" transform="translate(-58.175 -100.844)"/>
        <path id="Path_34146" data-name="Path 34146" d="M218.077,363.089a2.472,2.472,0,0,1-2.269-1.38,3.189,3.189,0,0,1-.328-1.466,3.115,3.115,0,0,1,.334-1.461,2.566,2.566,0,0,1,.932-1.013,2.516,2.516,0,0,1,1.353-.371,2.345,2.345,0,0,1,1.072.231,1.827,1.827,0,0,1,.728.652V355.2h1.293v7.76h-1.164l-.129-.787a2.57,2.57,0,0,1-.42.447,1.969,1.969,0,0,1-.593.34,2.3,2.3,0,0,1-.808.129m.269-1.121a1.52,1.52,0,0,0,.819-.221,1.478,1.478,0,0,0,.55-.609,2.161,2.161,0,0,0,0-1.79,1.445,1.445,0,0,0-.55-.6,1.549,1.549,0,0,0-.819-.216,1.508,1.508,0,0,0-.8.216,1.482,1.482,0,0,0-.555.6,2.111,2.111,0,0,0,0,1.79,1.517,1.517,0,0,0,.555.609,1.481,1.481,0,0,0,.8.221" transform="translate(-60.654 -99.982)"/>
        <path id="Path_34147" data-name="Path 34147" d="M231.427,363.089a2.472,2.472,0,0,1-2.269-1.38,3.189,3.189,0,0,1-.328-1.466,3.115,3.115,0,0,1,.334-1.461,2.566,2.566,0,0,1,.932-1.013,2.516,2.516,0,0,1,1.353-.371,2.345,2.345,0,0,1,1.072.231,1.827,1.827,0,0,1,.728.652V355.2h1.293v7.76h-1.164l-.129-.787a2.57,2.57,0,0,1-.42.447,1.969,1.969,0,0,1-.593.34,2.3,2.3,0,0,1-.808.129m.269-1.121a1.52,1.52,0,0,0,.819-.221,1.479,1.479,0,0,0,.55-.609,2.161,2.161,0,0,0,0-1.79,1.446,1.446,0,0,0-.55-.6,1.549,1.549,0,0,0-.819-.216,1.508,1.508,0,0,0-.8.216,1.482,1.482,0,0,0-.555.6,2.111,2.111,0,0,0,0,1.79,1.517,1.517,0,0,0,.555.609,1.481,1.481,0,0,0,.8.221" transform="translate(-64.411 -99.982)"/>
        <path id="Path_34148" data-name="Path 34148" d="M240.518,363.951a2.423,2.423,0,0,1-1.11-.226,1.541,1.541,0,0,1-.657-.6,1.627,1.627,0,0,1-.216-.82,1.52,1.52,0,0,1,.264-.895,1.71,1.71,0,0,1,.782-.588,3.4,3.4,0,0,1,1.272-.21h1.369a1.884,1.884,0,0,0-.119-.717.842.842,0,0,0-.366-.425,1.282,1.282,0,0,0-.636-.141,1.374,1.374,0,0,0-.754.2.868.868,0,0,0-.388.609h-1.272a1.929,1.929,0,0,1,.388-1,2.151,2.151,0,0,1,.856-.647,2.9,2.9,0,0,1,1.17-.231,2.941,2.941,0,0,1,1.3.264,1.889,1.889,0,0,1,.824.754,2.305,2.305,0,0,1,.286,1.18v3.363h-1.1l-.129-.873a1.756,1.756,0,0,1-.275.4,1.816,1.816,0,0,1-.382.318,1.856,1.856,0,0,1-.49.211,2.351,2.351,0,0,1-.62.075m.291-1.024a1.307,1.307,0,0,0,.555-.113,1.226,1.226,0,0,0,.42-.323,1.591,1.591,0,0,0,.275-.469,2.277,2.277,0,0,0,.129-.549v-.022h-1.2a1.731,1.731,0,0,0-.625.1.651.651,0,0,0-.463.657.683.683,0,0,0,.108.388.676.676,0,0,0,.313.248,1.245,1.245,0,0,0,.485.086" transform="translate(-67.143 -100.844)"/>
        <path id="Path_34149" data-name="Path 34149" d="M249.477,363.31a2.42,2.42,0,0,1-.954-.172,1.292,1.292,0,0,1-.63-.571,2.185,2.185,0,0,1-.226-1.078v-2.522h-.927v-1.089h.927l.151-1.433h1.142v1.433h1.477v1.089h-1.477v2.522a.732.732,0,0,0,.177.566.91.91,0,0,0,.6.156h.668v1.1Z" transform="translate(-69.452 -100.333)"/>
        <path id="Path_34150" data-name="Path 34150" d="M255.856,363.951a2.822,2.822,0,0,1-1.423-.35,2.465,2.465,0,0,1-.959-.986,3.028,3.028,0,0,1-.345-1.466,3.206,3.206,0,0,1,.34-1.51,2.506,2.506,0,0,1,.959-1.013,2.771,2.771,0,0,1,1.438-.366,2.65,2.65,0,0,1,1.39.356,2.463,2.463,0,0,1,.916.953,2.78,2.78,0,0,1,.323,1.343v.237a1.772,1.772,0,0,1-.022.269h-4.419v-.831h3.136a1.259,1.259,0,0,0-.4-.933,1.352,1.352,0,0,0-.938-.338,1.5,1.5,0,0,0-.733.183,1.308,1.308,0,0,0-.528.544,1.909,1.909,0,0,0-.194.91v.313a1.882,1.882,0,0,0,.189.872,1.31,1.31,0,0,0,.517.555,1.456,1.456,0,0,0,.738.189,1.335,1.335,0,0,0,.749-.195,1.151,1.151,0,0,0,.437-.517h1.315a2.48,2.48,0,0,1-.5.911,2.433,2.433,0,0,1-.851.636,2.716,2.716,0,0,1-1.142.231" transform="translate(-71.251 -100.844)"/>
        <path id="Path_34151" data-name="Path 34151" d="M290.1,299.045V291.5h4.688v.884h-3.611v2.447h3.018v.862h-3.018v3.352Z" transform="translate(-81.656 -82.052)"/>
        <path id="Path_34152" data-name="Path 34152" d="M298.741,292.483a.7.7,0,0,1-.512-.194.658.658,0,0,1-.2-.5.629.629,0,0,1,.2-.479.712.712,0,0,1,.512-.189.72.72,0,0,1,.507.189.625.625,0,0,1,.2.479.654.654,0,0,1-.2.5.708.708,0,0,1-.507.194m-.55,1.025h1.078v5.432h-1.078Z" transform="translate(-83.89 -81.946)"/>
        <path id="Path_34153" data-name="Path 34153" d="M301.18,299.872l1.875-2.716-1.875-2.716h1.164l1.423,2.112,1.433-2.112h1.153l-1.875,2.716,1.875,2.716H305.2l-1.433-2.123-1.423,2.123Z" transform="translate(-84.776 -82.879)"/>
        <path id="Path_34154" data-name="Path 34154" d="M311.732,299.951a2.666,2.666,0,0,1-1.38-.356,2.473,2.473,0,0,1-.943-.992,3.087,3.087,0,0,1-.34-1.477,3.169,3.169,0,0,1,.34-1.5,2.511,2.511,0,0,1,.943-1,2.677,2.677,0,0,1,1.4-.361,2.538,2.538,0,0,1,1.369.356,2.45,2.45,0,0,1,.884.943,2.72,2.72,0,0,1,.313,1.3c0,.072,0,.149-.005.232s-.009.175-.017.274h-4.44V296.6h3.384a1.465,1.465,0,0,0-.453-1.062,1.5,1.5,0,0,0-1.045-.382,1.664,1.664,0,0,0-.808.2,1.493,1.493,0,0,0-.587.582,1.905,1.905,0,0,0-.221.964v.3a2.146,2.146,0,0,0,.221,1.018,1.518,1.518,0,0,0,.587.625,1.575,1.575,0,0,0,.8.21,1.487,1.487,0,0,0,.851-.226,1.351,1.351,0,0,0,.5-.614h1.078a2.343,2.343,0,0,1-.474.889,2.369,2.369,0,0,1-.825.62,2.659,2.659,0,0,1-1.126.226" transform="translate(-86.997 -82.829)"/>
        <path id="Path_34155" data-name="Path 34155" d="M320.374,299.089a2.493,2.493,0,0,1-2.291-1.385,3.425,3.425,0,0,1,0-2.927,2.512,2.512,0,0,1,2.3-1.38,2.4,2.4,0,0,1,1.121.253,1.843,1.843,0,0,1,.754.717V291.2h1.078v7.76h-.959l-.119-.841a2.188,2.188,0,0,1-.42.468,2.116,2.116,0,0,1-.625.361,2.344,2.344,0,0,1-.841.14m.172-.938a1.681,1.681,0,0,0,.895-.237,1.568,1.568,0,0,0,.6-.668,2.262,2.262,0,0,0,.211-1,2.231,2.231,0,0,0-.211-1,1.618,1.618,0,0,0-.6-.668,1.659,1.659,0,0,0-.895-.242,1.619,1.619,0,0,0-.873.242,1.656,1.656,0,0,0-.6.668,2.183,2.183,0,0,0-.216,1,2.214,2.214,0,0,0,.216,1,1.6,1.6,0,0,0,.6.668,1.641,1.641,0,0,0,.873.237" transform="translate(-89.442 -81.967)"/>
        <path id="Path_34156" data-name="Path 34156" d="M198.42,254.059V244h3.621a4.32,4.32,0,0,1,2,.41,2.77,2.77,0,0,1,1.178,1.1,3.369,3.369,0,0,1,.014,3.112,2.745,2.745,0,0,1-1.164,1.121,4.26,4.26,0,0,1-2.026.424h-1.9v3.894Zm1.724-5.3h1.8a2,2,0,0,0,1.466-.453,1.907,1.907,0,0,0,0-2.45,2.018,2.018,0,0,0-1.466-.445h-1.8Z" transform="translate(-55.852 -68.681)"/>
        <path id="Path_34157" data-name="Path 34157" d="M210.419,255.1v-7.243h1.538l.158,1.351a2.912,2.912,0,0,1,.647-.812,2.794,2.794,0,0,1,.913-.525,3.433,3.433,0,0,1,1.157-.187v1.825h-.6a3.047,3.047,0,0,0-.819.108,1.74,1.74,0,0,0-.668.345,1.566,1.566,0,0,0-.438.647,2.87,2.87,0,0,0-.158,1.027V255.1Z" transform="translate(-59.229 -69.717)"/>
        <path id="Path_34158" data-name="Path 34158" d="M221.436,255.267a3.765,3.765,0,0,1-1.9-.467,3.276,3.276,0,0,1-1.279-1.315,4.034,4.034,0,0,1-.46-1.954,4.267,4.267,0,0,1,.453-2.012,3.339,3.339,0,0,1,1.279-1.351,3.7,3.7,0,0,1,1.918-.489,3.535,3.535,0,0,1,1.854.475,3.281,3.281,0,0,1,1.221,1.272,3.7,3.7,0,0,1,.431,1.788v.317a2.332,2.332,0,0,1-.029.359h-5.892v-1.107h4.182a1.677,1.677,0,0,0-.532-1.244,1.8,1.8,0,0,0-1.25-.453,2,2,0,0,0-.977.245,1.747,1.747,0,0,0-.7.726,2.545,2.545,0,0,0-.259,1.214v.417a2.518,2.518,0,0,0,.251,1.164,1.749,1.749,0,0,0,.69.74,1.945,1.945,0,0,0,.984.251,1.8,1.8,0,0,0,1-.259,1.546,1.546,0,0,0,.582-.69h1.753a3.319,3.319,0,0,1-.661,1.214,3.236,3.236,0,0,1-1.135.847,3.617,3.617,0,0,1-1.523.31" transform="translate(-61.307 -69.717)"/>
        <path id="Path_34159" data-name="Path 34159" d="M231.293,255.163l-2.673-7.243h1.811l1.911,5.6,1.911-5.6h1.782l-2.673,7.243Z" transform="translate(-64.352 -69.785)"/>
        <path id="Path_34160" data-name="Path 34160" d="M241.532,245.526a1.086,1.086,0,0,1-.783-.295.961.961,0,0,1-.309-.725.936.936,0,0,1,.309-.726,1.235,1.235,0,0,1,1.566,0,.938.938,0,0,1,.309.726.964.964,0,0,1-.309.725,1.088,1.088,0,0,1-.783.295m-.862,1.15h1.724v7.243H240.67Z" transform="translate(-67.679 -68.541)"/>
        <path id="Path_34161" data-name="Path 34161" d="M249.221,255.268a3.633,3.633,0,0,1-1.861-.481,3.405,3.405,0,0,1-1.293-1.337,4.383,4.383,0,0,1,.007-3.952,3.455,3.455,0,0,1,1.3-1.336,3.838,3.838,0,0,1,3.722,0,3.415,3.415,0,0,1,1.293,1.33,4.049,4.049,0,0,1,.467,1.982,3.993,3.993,0,0,1-.474,1.983,3.478,3.478,0,0,1-1.3,1.33,3.633,3.633,0,0,1-1.861.481m0-1.481a1.777,1.777,0,0,0,.941-.258,1.855,1.855,0,0,0,.683-.776,3.316,3.316,0,0,0,.007-2.551,1.81,1.81,0,0,0-.675-.77,1.829,1.829,0,0,0-1.875,0,1.839,1.839,0,0,0-.69.77,2.792,2.792,0,0,0-.259,1.271,2.847,2.847,0,0,0,.259,1.28,1.85,1.85,0,0,0,.683.776,1.751,1.751,0,0,0,.927.258" transform="translate(-69.132 -69.717)"/>
        <path id="Path_34162" data-name="Path 34162" d="M260.687,255.335a3.02,3.02,0,0,1-1.5-.352,2.282,2.282,0,0,1-.956-1.064,4.159,4.159,0,0,1-.331-1.76V247.92h1.724v4.067a2.185,2.185,0,0,0,.4,1.415,1.461,1.461,0,0,0,1.2.481,1.778,1.778,0,0,0,.927-.244,1.7,1.7,0,0,0,.647-.712,2.5,2.5,0,0,0,.237-1.142V247.92h1.724v7.243H263.23l-.129-1.207a2.5,2.5,0,0,1-.956,1.005,2.787,2.787,0,0,1-1.459.374" transform="translate(-72.594 -69.785)"/>
        <path id="Path_34163" data-name="Path 34163" d="M272.855,255.267a4.174,4.174,0,0,1-1.674-.31,2.689,2.689,0,0,1-1.121-.862,2.519,2.519,0,0,1-.481-1.272H271.3a1.508,1.508,0,0,0,.259.553,1.245,1.245,0,0,0,.51.4,1.887,1.887,0,0,0,.769.144,1.74,1.74,0,0,0,.7-.122.893.893,0,0,0,.4-.323.785.785,0,0,0,.129-.432.719.719,0,0,0-.187-.531,1.27,1.27,0,0,0-.539-.295q-.352-.109-.841-.208a9.177,9.177,0,0,1-1-.252,3.909,3.909,0,0,1-.862-.38,1.788,1.788,0,0,1-.6-.589,1.63,1.63,0,0,1-.223-.877,1.992,1.992,0,0,1,.338-1.135,2.3,2.3,0,0,1,.977-.8,3.626,3.626,0,0,1,1.53-.3,3.221,3.221,0,0,1,2.019.583,2.324,2.324,0,0,1,.884,1.631h-1.638a.918.918,0,0,0-.4-.626,1.547,1.547,0,0,0-.877-.222,1.474,1.474,0,0,0-.855.208.646.646,0,0,0-.295.553.541.541,0,0,0,.18.4,1.45,1.45,0,0,0,.525.295,7.864,7.864,0,0,0,.848.237,10.493,10.493,0,0,1,1.423.374,2.221,2.221,0,0,1,.977.632,1.75,1.75,0,0,1,.359,1.178,2.022,2.022,0,0,1-.352,1.221,2.4,2.4,0,0,1-1.028.827,3.867,3.867,0,0,1-1.581.295" transform="translate(-75.882 -69.717)"/>
        <path id="Path_34164" data-name="Path 34164" d="M288.409,254.414a3.216,3.216,0,0,1-1.272-.23,1.728,1.728,0,0,1-.841-.762,2.913,2.913,0,0,1-.3-1.437v-3.363h-1.236v-1.451h1.236l.2-1.911h1.523v1.911h1.969v1.451h-1.969v3.363a.973.973,0,0,0,.237.754,1.208,1.208,0,0,0,.8.208h.891v1.466Z" transform="translate(-80.154 -69.036)"/>
        <path id="Path_34165" data-name="Path 34165" d="M296.915,255.267a3.765,3.765,0,0,1-1.9-.467,3.275,3.275,0,0,1-1.279-1.315,4.034,4.034,0,0,1-.46-1.954,4.267,4.267,0,0,1,.453-2.012,3.339,3.339,0,0,1,1.279-1.351,3.7,3.7,0,0,1,1.918-.489,3.535,3.535,0,0,1,1.854.475A3.281,3.281,0,0,1,300,249.426a3.7,3.7,0,0,1,.431,1.788v.317a2.33,2.33,0,0,1-.029.359h-5.892v-1.107H298.7a1.677,1.677,0,0,0-.532-1.244,1.8,1.8,0,0,0-1.25-.453,2,2,0,0,0-.977.245,1.747,1.747,0,0,0-.7.726,2.545,2.545,0,0,0-.259,1.214v.417a2.518,2.518,0,0,0,.251,1.164,1.749,1.749,0,0,0,.69.74,1.945,1.945,0,0,0,.984.251,1.8,1.8,0,0,0,1-.259,1.546,1.546,0,0,0,.582-.69h1.753a3.319,3.319,0,0,1-.661,1.214,3.236,3.236,0,0,1-1.135.847,3.618,3.618,0,0,1-1.523.31" transform="translate(-82.553 -69.717)"/>
        <path id="Path_34166" data-name="Path 34166" d="M305.458,255.1v-7.243H307l.158,1.351a2.913,2.913,0,0,1,.647-.812,2.794,2.794,0,0,1,.913-.525,3.433,3.433,0,0,1,1.157-.187v1.825h-.6a3.047,3.047,0,0,0-.819.108,1.74,1.74,0,0,0-.668.345,1.566,1.566,0,0,0-.438.647,2.87,2.87,0,0,0-.158,1.027V255.1Z" transform="translate(-85.981 -69.717)"/>
        <path id="Path_34167" data-name="Path 34167" d="M313.4,255.1v-7.243h1.523l.144.992a2.437,2.437,0,0,1,.913-.855,2.675,2.675,0,0,1,1.3-.309,3.157,3.157,0,0,1,.984.144,2.292,2.292,0,0,1,.776.431,2.257,2.257,0,0,1,.553.719,2.853,2.853,0,0,1,1.049-.948,2.945,2.945,0,0,1,1.408-.345,3.02,3.02,0,0,1,1.538.366,2.352,2.352,0,0,1,.963,1.078,4.126,4.126,0,0,1,.331,1.746V255.1h-1.71v-4.052a2.283,2.283,0,0,0-.374-1.408,1.307,1.307,0,0,0-1.107-.489,1.6,1.6,0,0,0-.884.244,1.634,1.634,0,0,0-.6.711,2.718,2.718,0,0,0-.216,1.142V255.1h-1.71v-4.052a2.284,2.284,0,0,0-.374-1.408,1.324,1.324,0,0,0-1.121-.489,1.547,1.547,0,0,0-.855.244,1.633,1.633,0,0,0-.6.711,2.718,2.718,0,0,0-.216,1.142V255.1Z" transform="translate(-88.216 -69.717)"/>
        <path id="Path_34168" data-name="Path 34168" d="M334.654,255.267a4.174,4.174,0,0,1-1.674-.31,2.689,2.689,0,0,1-1.121-.862,2.519,2.519,0,0,1-.481-1.272H333.1a1.508,1.508,0,0,0,.259.553,1.246,1.246,0,0,0,.51.4,1.887,1.887,0,0,0,.769.144,1.74,1.74,0,0,0,.7-.122.893.893,0,0,0,.4-.323.785.785,0,0,0,.129-.432.719.719,0,0,0-.187-.531,1.27,1.27,0,0,0-.539-.295q-.352-.109-.841-.208a9.181,9.181,0,0,1-1-.252,3.91,3.91,0,0,1-.862-.38,1.788,1.788,0,0,1-.6-.589,1.63,1.63,0,0,1-.223-.877,1.992,1.992,0,0,1,.338-1.135,2.3,2.3,0,0,1,.977-.8,3.625,3.625,0,0,1,1.53-.3,3.221,3.221,0,0,1,2.019.583,2.324,2.324,0,0,1,.884,1.631h-1.638a.918.918,0,0,0-.4-.626,1.547,1.547,0,0,0-.877-.222,1.474,1.474,0,0,0-.855.208.646.646,0,0,0-.295.553.541.541,0,0,0,.18.4,1.45,1.45,0,0,0,.525.295,7.868,7.868,0,0,0,.848.237,10.493,10.493,0,0,1,1.423.374,2.221,2.221,0,0,1,.977.632,1.751,1.751,0,0,1,.359,1.178,2.022,2.022,0,0,1-.352,1.221,2.4,2.4,0,0,1-1.027.827,3.867,3.867,0,0,1-1.581.295" transform="translate(-93.277 -69.717)"/>
        <path id="Path_34169" data-name="Path 34169" class="cls-6" d="M292.593,324h95.563a3.593,3.593,0,1,1,0,7.185H292.593a3.593,3.593,0,1,1,0-7.185" transform="translate(-81.348 -91.2)"/>
        <path id="Path_34170" data-name="Path 34170" class="cls-6" d="M292.593,356h95.563a3.593,3.593,0,1,1,0,7.185H292.593a3.593,3.593,0,1,1,0-7.185" transform="translate(-81.348 -100.207)"/>
        <g class="cls-9" transform="matrix(1, 0, 0, 1, -68, -76)">
          <path id="Path_34171-2" data-name="Path 34171" class="cls-4" d="M32.9,396H283.667a7.9,7.9,0,0,1,7.9,7.9v68.978a7.9,7.9,0,0,1-7.9,7.9H32.9a7.9,7.9,0,0,1-7.9-7.9V403.9a7.9,7.9,0,0,1,7.9-7.9" transform="translate(60.96 -35.47)"/>
        </g>
        <path id="Path_34172" data-name="Path 34172" d="M41.826,474.194v-.724q.7-.543,1.338-1.1a13.723,13.723,0,0,0,1.132-1.1,5.417,5.417,0,0,0,.78-1.076,2.153,2.153,0,0,0,.282-1.011,1.643,1.643,0,0,0-.121-.634,1.084,1.084,0,0,0-.382-.478,1.216,1.216,0,0,0-.714-.186,1.27,1.27,0,0,0-.719.191,1.2,1.2,0,0,0-.433.508,1.644,1.644,0,0,0-.146.7h-.976a2.41,2.41,0,0,1,.312-1.227,1.978,1.978,0,0,1,.82-.765,2.536,2.536,0,0,1,1.162-.262,2.578,2.578,0,0,1,1.167.246,1.792,1.792,0,0,1,.765.714,2.24,2.24,0,0,1,.272,1.142,2.572,2.572,0,0,1-.191.961,4.353,4.353,0,0,1-.518.93,8.079,8.079,0,0,1-.729.87q-.4.417-.83.79t-.82.674h3.309v.835Z" transform="translate(-11.773 -131.461)"/>
        <path id="Path_34173" data-name="Path 34173" d="M52.493,474.362a2.832,2.832,0,0,1-1.278-.267,2.17,2.17,0,0,1-.845-.724,2.3,2.3,0,0,1-.382-1.031h.986a1.392,1.392,0,0,0,.5.84,1.56,1.56,0,0,0,1.016.327,1.4,1.4,0,0,0,.795-.221,1.473,1.473,0,0,0,.513-.594,1.86,1.86,0,0,0,.181-.825,1.79,1.79,0,0,0-.186-.84,1.407,1.407,0,0,0-.513-.558,1.426,1.426,0,0,0-.759-.2,1.663,1.663,0,0,0-.9.236,1.423,1.423,0,0,0-.548.6H50.1l.583-3.9h3.792v.875H51.457l-.372,1.972a1.811,1.811,0,0,1,.649-.448,2.328,2.328,0,0,1,.93-.176,2.3,2.3,0,0,1,.956.191,2.14,2.14,0,0,1,.719.523,2.3,2.3,0,0,1,.453.775,2.906,2.906,0,0,1-.015,1.921,2.471,2.471,0,0,1-.488.8,2.155,2.155,0,0,1-.775.538,2.632,2.632,0,0,1-1.021.191" transform="translate(-14.071 -131.508)"/>
        <path id="Path_34174" data-name="Path 34174" d="M61.182,474.315a2.692,2.692,0,0,1-1.3-.287,2.327,2.327,0,0,1-.85-.774,3.424,3.424,0,0,1-.468-1.086,5.16,5.16,0,0,1-.146-1.232,5.812,5.812,0,0,1,.327-2.042,3.086,3.086,0,0,1,.941-1.368,2.288,2.288,0,0,1,1.479-.493,2.437,2.437,0,0,1,1.182.267,2.032,2.032,0,0,1,.765.708,2.309,2.309,0,0,1,.337.976H62.51a1.274,1.274,0,0,0-.448-.81,1.5,1.5,0,0,0-1.8.02,2.014,2.014,0,0,0-.619.93,5.171,5.171,0,0,0-.257,1.579v.071a1.844,1.844,0,0,1,.433-.553,2.1,2.1,0,0,1,.669-.4,2.369,2.369,0,0,1,.84-.146,2.34,2.34,0,0,1,1.112.276,2.191,2.191,0,0,1,1.162,1.987,2.375,2.375,0,0,1-.3,1.156,2.345,2.345,0,0,1-.84.881,2.39,2.39,0,0,1-1.288.337m-.07-.875a1.564,1.564,0,0,0,.77-.186,1.393,1.393,0,0,0,.533-.518,1.559,1.559,0,0,0,0-1.514,1.363,1.363,0,0,0-.533-.508,1.6,1.6,0,0,0-.77-.181,1.529,1.529,0,0,0-.775.2,1.5,1.5,0,0,0-.543.523,1.38,1.38,0,0,0-.2.739,1.4,1.4,0,0,0,.2.749,1.42,1.42,0,0,0,.548.514,1.6,1.6,0,0,0,.77.186" transform="translate(-16.443 -131.461)"/>
        <path id="Path_34175" data-name="Path 34175" d="M67.614,474.242l2.686-6.176H66.577V467.2h4.758v.734l-2.676,6.307Z" transform="translate(-18.74 -131.508)"/>
        <path id="Path_34176" data-name="Path 34176" d="M46.189,429.232a4.436,4.436,0,0,1-1.976-.432,3.272,3.272,0,0,1-1.408-1.321,4.362,4.362,0,0,1-.525-2.242V419H44v6.251a2.94,2.94,0,0,0,.273,1.351,1.823,1.823,0,0,0,.769.8,2.448,2.448,0,0,0,1.171.265A2.482,2.482,0,0,0,47.4,427.4a1.785,1.785,0,0,0,.762-.8,3.011,3.011,0,0,0,.266-1.351V419h1.724v6.236a4.319,4.319,0,0,1-.532,2.242,3.293,3.293,0,0,1-1.437,1.321,4.577,4.577,0,0,1-2,.432" transform="translate(-11.901 -117.941)"/>
        <path id="Path_34177" data-name="Path 34177" d="M55.86,430.1v-7.243h1.523l.129,1.207a2.529,2.529,0,0,1,.948-1.006,2.782,2.782,0,0,1,1.466-.374,2.88,2.88,0,0,1,1.495.366,2.427,2.427,0,0,1,.956,1.071,4.044,4.044,0,0,1,.338,1.753V430.1H60.99v-4.067a2.141,2.141,0,0,0-.4-1.394,1.456,1.456,0,0,0-1.193-.489,1.772,1.772,0,0,0-.927.244,1.7,1.7,0,0,0-.647.711,2.468,2.468,0,0,0-.237,1.128V430.1Z" transform="translate(-15.724 -118.977)"/>
        <path id="Path_34178" data-name="Path 34178" d="M67.94,433.257v-10.4h1.538l.187,1.049a3.542,3.542,0,0,1,.553-.6,2.534,2.534,0,0,1,.79-.453,3.079,3.079,0,0,1,1.071-.172,3.264,3.264,0,0,1,1.8.5,3.509,3.509,0,0,1,1.229,1.357,4.16,4.16,0,0,1,.445,1.948,4.1,4.1,0,0,1-.453,1.947,3.454,3.454,0,0,1-1.236,1.343,3.307,3.307,0,0,1-1.789.489,3.117,3.117,0,0,1-1.43-.31,2.492,2.492,0,0,1-.984-.883v4.182Zm3.779-4.484a2.036,2.036,0,0,0,1.078-.287,1.973,1.973,0,0,0,.74-.805,2.576,2.576,0,0,0,.266-1.192,2.613,2.613,0,0,0-.266-1.207,1.976,1.976,0,0,0-.74-.8,2.178,2.178,0,0,0-2.163,0,1.989,1.989,0,0,0-.733.8,2.825,2.825,0,0,0,0,2.393,2.055,2.055,0,0,0,.733.8,1.99,1.99,0,0,0,1.085.295" transform="translate(-19.124 -118.977)"/>
        <path id="Path_34179" data-name="Path 34179" d="M83.184,430.268a3.228,3.228,0,0,1-1.48-.3,2.046,2.046,0,0,1-.877-.8,2.16,2.16,0,0,1-.287-1.092,2.026,2.026,0,0,1,.352-1.193,2.277,2.277,0,0,1,1.042-.783,4.516,4.516,0,0,1,1.7-.28h1.825a2.518,2.518,0,0,0-.158-.956,1.128,1.128,0,0,0-.489-.568,1.713,1.713,0,0,0-.848-.187,1.828,1.828,0,0,0-1.006.266,1.162,1.162,0,0,0-.517.812h-1.7a2.579,2.579,0,0,1,.517-1.329,2.856,2.856,0,0,1,1.142-.862,3.856,3.856,0,0,1,1.559-.31,3.93,3.93,0,0,1,1.739.352,2.529,2.529,0,0,1,1.1,1.006,3.079,3.079,0,0,1,.381,1.574V430.1H85.713l-.172-1.164a2.331,2.331,0,0,1-.366.532,2.391,2.391,0,0,1-1.164.7,3.107,3.107,0,0,1-.826.1m.388-1.365a1.733,1.733,0,0,0,.74-.151,1.631,1.631,0,0,0,.56-.431,2.1,2.1,0,0,0,.366-.625,3.033,3.033,0,0,0,.172-.733v-.029h-1.6a2.3,2.3,0,0,0-.833.129.958.958,0,0,0-.474.352.943.943,0,0,0-.144.525.863.863,0,0,0,.56.848,1.654,1.654,0,0,0,.647.115" transform="translate(-22.671 -118.977)"/>
        <path id="Path_34180" data-name="Path 34180" d="M93.212,420.526a1.09,1.09,0,0,1-.784-.295.963.963,0,0,1-.308-.725.938.938,0,0,1,.308-.726,1.235,1.235,0,0,1,1.566,0,.936.936,0,0,1,.31.726.962.962,0,0,1-.31.725,1.085,1.085,0,0,1-.782.295m-.863,1.15h1.724v7.243H92.349Z" transform="translate(-25.93 -117.8)"/>
        <path id="Path_34181" data-name="Path 34181" d="M100.742,429.119a3.3,3.3,0,0,1-3.025-1.839,4.25,4.25,0,0,1-.438-1.954,4.155,4.155,0,0,1,.445-1.947,3.416,3.416,0,0,1,1.243-1.351,3.346,3.346,0,0,1,1.8-.5,3.127,3.127,0,0,1,1.43.309,2.427,2.427,0,0,1,.97.869V418.6H104.9v10.347h-1.552l-.172-1.049a3.421,3.421,0,0,1-.56.6,2.644,2.644,0,0,1-.79.453,3.066,3.066,0,0,1-1.078.172m.359-1.495a2.029,2.029,0,0,0,1.092-.295,1.98,1.98,0,0,0,.733-.812,2.879,2.879,0,0,0,0-2.385,1.926,1.926,0,0,0-.733-.8,2.063,2.063,0,0,0-1.092-.287,2.008,2.008,0,0,0-1.063.287,1.975,1.975,0,0,0-.74.8,2.809,2.809,0,0,0,0,2.385,2.032,2.032,0,0,0,.74.812,1.976,1.976,0,0,0,1.063.295" transform="translate(-27.382 -117.828)"/>
        <rect id="Rectangle_2437" data-name="Rectangle 2437" width="1.724" height="10.059" transform="translate(82.988 301.059)"/>
        <path id="Path_34182" data-name="Path 34182" d="M120.639,430.1v-7.243h1.523l.129,1.207a2.529,2.529,0,0,1,.948-1.006,2.782,2.782,0,0,1,1.466-.374,2.88,2.88,0,0,1,1.495.366,2.427,2.427,0,0,1,.956,1.071,4.044,4.044,0,0,1,.338,1.753V430.1h-1.724v-4.067a2.141,2.141,0,0,0-.4-1.394,1.456,1.456,0,0,0-1.193-.489,1.772,1.772,0,0,0-.927.244,1.7,1.7,0,0,0-.647.711,2.468,2.468,0,0,0-.237,1.128V430.1Z" transform="translate(-33.958 -118.977)"/>
        <path id="Path_34183" data-name="Path 34183" d="M134.311,430.163l-2.673-7.243h1.811l1.911,5.6,1.911-5.6h1.782l-2.673,7.243Z" transform="translate(-37.054 -119.044)"/>
        <path id="Path_34184" data-name="Path 34184" d="M146.479,430.268a3.633,3.633,0,0,1-1.861-.481,3.4,3.4,0,0,1-1.293-1.337,4.383,4.383,0,0,1,.007-3.952,3.455,3.455,0,0,1,1.3-1.336,3.838,3.838,0,0,1,3.722,0,3.415,3.415,0,0,1,1.293,1.33,4.049,4.049,0,0,1,.467,1.982,3.993,3.993,0,0,1-.474,1.983,3.478,3.478,0,0,1-1.3,1.33,3.633,3.633,0,0,1-1.861.481m0-1.481a1.777,1.777,0,0,0,.941-.258,1.855,1.855,0,0,0,.683-.776,3.316,3.316,0,0,0,.007-2.551,1.81,1.81,0,0,0-.675-.77,1.829,1.829,0,0,0-1.875,0,1.839,1.839,0,0,0-.69.77,2.792,2.792,0,0,0-.259,1.271,2.847,2.847,0,0,0,.259,1.28,1.85,1.85,0,0,0,.683.776,1.751,1.751,0,0,0,.927.258" transform="translate(-40.212 -118.977)"/>
        <path id="Path_34185" data-name="Path 34185" d="M156.171,420.526a1.09,1.09,0,0,1-.784-.295.963.963,0,0,1-.308-.725.938.938,0,0,1,.308-.726,1.235,1.235,0,0,1,1.566,0,.936.936,0,0,1,.31.726.962.962,0,0,1-.31.725,1.085,1.085,0,0,1-.782.295m-.863,1.15h1.724v7.243h-1.724Z" transform="translate(-43.652 -117.8)"/>
        <path id="Path_34186" data-name="Path 34186" d="M163.917,430.267a3.767,3.767,0,0,1-1.9-.481,3.371,3.371,0,0,1-1.308-1.336,4,4,0,0,1-.467-1.947,4.09,4.09,0,0,1,.467-1.99,3.418,3.418,0,0,1,1.308-1.344,3.75,3.75,0,0,1,1.918-.489,3.6,3.6,0,0,1,2.271.712,3.2,3.2,0,0,1,1.178,1.947h-1.811a1.477,1.477,0,0,0-.6-.863,1.824,1.824,0,0,0-1.071-.315,1.8,1.8,0,0,0-.97.273,1.86,1.86,0,0,0-.69.79,2.847,2.847,0,0,0-.251,1.251,3.12,3.12,0,0,0,.144.992,2,2,0,0,0,.41.725,1.857,1.857,0,0,0,.611.453,1.767,1.767,0,0,0,.747.158,2.01,2.01,0,0,0,.754-.137,1.49,1.49,0,0,0,.575-.41,1.612,1.612,0,0,0,.338-.647h1.811a3.247,3.247,0,0,1-1.178,1.933,3.575,3.575,0,0,1-2.285.726" transform="translate(-45.104 -118.976)"/>
        <path id="Path_34187" data-name="Path 34187" d="M175.794,430.267a3.765,3.765,0,0,1-1.9-.467,3.275,3.275,0,0,1-1.279-1.315,4.034,4.034,0,0,1-.46-1.954,4.267,4.267,0,0,1,.453-2.012,3.339,3.339,0,0,1,1.279-1.351,3.7,3.7,0,0,1,1.918-.489,3.535,3.535,0,0,1,1.854.475,3.281,3.281,0,0,1,1.221,1.272,3.7,3.7,0,0,1,.431,1.788v.317a2.332,2.332,0,0,1-.029.359h-5.892v-1.107h4.182a1.677,1.677,0,0,0-.532-1.244,1.8,1.8,0,0,0-1.25-.453,2,2,0,0,0-.977.245,1.747,1.747,0,0,0-.7.726,2.545,2.545,0,0,0-.259,1.214v.417a2.518,2.518,0,0,0,.251,1.164,1.749,1.749,0,0,0,.69.74,1.945,1.945,0,0,0,.984.251,1.8,1.8,0,0,0,1-.259,1.546,1.546,0,0,0,.582-.69h1.753a3.319,3.319,0,0,1-.661,1.214,3.236,3.236,0,0,1-1.135.847,3.617,3.617,0,0,1-1.523.31" transform="translate(-48.459 -118.976)"/>
        <path id="Path_34188" data-name="Path 34188" d="M187.074,430.267a4.173,4.173,0,0,1-1.674-.31,2.689,2.689,0,0,1-1.121-.862,2.519,2.519,0,0,1-.481-1.272h1.724a1.508,1.508,0,0,0,.259.553,1.246,1.246,0,0,0,.51.4,1.887,1.887,0,0,0,.769.144,1.739,1.739,0,0,0,.7-.122.893.893,0,0,0,.4-.323.785.785,0,0,0,.129-.432.719.719,0,0,0-.187-.531,1.271,1.271,0,0,0-.539-.295q-.352-.109-.841-.208a9.185,9.185,0,0,1-1-.252,3.91,3.91,0,0,1-.862-.38,1.789,1.789,0,0,1-.6-.589,1.63,1.63,0,0,1-.223-.877,1.992,1.992,0,0,1,.338-1.135,2.3,2.3,0,0,1,.977-.8,3.626,3.626,0,0,1,1.53-.3,3.221,3.221,0,0,1,2.019.583,2.324,2.324,0,0,1,.884,1.631h-1.638a.918.918,0,0,0-.4-.626,1.548,1.548,0,0,0-.877-.222,1.474,1.474,0,0,0-.855.208.646.646,0,0,0-.295.553.541.541,0,0,0,.18.4,1.451,1.451,0,0,0,.525.295,7.869,7.869,0,0,0,.848.237,10.5,10.5,0,0,1,1.423.374,2.221,2.221,0,0,1,.977.632,1.75,1.75,0,0,1,.359,1.178,2.022,2.022,0,0,1-.352,1.221,2.394,2.394,0,0,1-1.027.827,3.867,3.867,0,0,1-1.581.295" transform="translate(-51.736 -118.976)"/>
        <path id="Path_34189" data-name="Path 34189" class="cls-7" d="M97.622,460h40.237a8.622,8.622,0,0,1,0,17.244H97.622a8.622,8.622,0,0,1,0-17.244" transform="translate(-25.052 -129.481)"/>
        <path id="Path_34190" data-name="Path 34190" d="M109.59,474.362a3.018,3.018,0,0,1-1.348-.3,2.245,2.245,0,0,1-.961-.905,3.039,3.039,0,0,1-.357-1.554V467.2h1.006v4.416a2.255,2.255,0,0,0,.211,1.041,1.367,1.367,0,0,0,.588.6,2.084,2.084,0,0,0,1.765,0,1.346,1.346,0,0,0,.578-.6,2.3,2.3,0,0,0,.206-1.041V467.2h1.006v4.406a3,3,0,0,1-.362,1.554,2.265,2.265,0,0,1-.976.905,3.08,3.08,0,0,1-1.358.3" transform="translate(-30.097 -131.508)"/>
        <path id="Path_34191" data-name="Path 34191" d="M116.262,474.967V469.9h.905l.06.865a1.833,1.833,0,0,1,.684-.719,1.926,1.926,0,0,1,1.016-.267,2.1,2.1,0,0,1,1.036.241,1.644,1.644,0,0,1,.674.729,2.745,2.745,0,0,1,.241,1.222v3h-1.006v-2.9a1.594,1.594,0,0,0-.312-1.066,1.131,1.131,0,0,0-.905-.362,1.345,1.345,0,0,0-.7.186,1.327,1.327,0,0,0-.5.548,1.917,1.917,0,0,0-.186.885v2.706Z" transform="translate(-32.726 -132.233)"/>
        <path id="Path_34192" data-name="Path 34192" d="M124.48,477.18V469.9h.905l.1.785a2.3,2.3,0,0,1,.4-.438,1.97,1.97,0,0,1,.578-.337,2.183,2.183,0,0,1,.79-.131,2.307,2.307,0,0,1,1.273.351,2.427,2.427,0,0,1,.855.951,2.949,2.949,0,0,1,.307,1.363,2.909,2.909,0,0,1-.312,1.363,2.387,2.387,0,0,1-.86.941,2.357,2.357,0,0,1-1.272.342,2.23,2.23,0,0,1-1.046-.236,1.806,1.806,0,0,1-.714-.659v2.988Zm2.605-2.967a1.52,1.52,0,0,0,.82-.222,1.545,1.545,0,0,0,.563-.623,2.029,2.029,0,0,0,.206-.936,2,2,0,0,0-.206-.93,1.592,1.592,0,0,0-.563-.624,1.5,1.5,0,0,0-.82-.226,1.515,1.515,0,0,0-.83.226,1.549,1.549,0,0,0-.558.624,2.03,2.03,0,0,0-.2.93,2.065,2.065,0,0,0,.2.936,1.5,1.5,0,0,0,.558.623,1.538,1.538,0,0,0,.83.222" transform="translate(-35.039 -132.233)"/>
        <path id="Path_34193" data-name="Path 34193" d="M134.983,475.087a2.259,2.259,0,0,1-1.036-.211,1.427,1.427,0,0,1-.614-.568,1.54,1.54,0,0,1-.2-.77,1.413,1.413,0,0,1,.262-.86,1.64,1.64,0,0,1,.744-.548,3.145,3.145,0,0,1,1.157-.191h1.318a1.81,1.81,0,0,0-.131-.735.92.92,0,0,0-.387-.437,1.3,1.3,0,0,0-.649-.146,1.36,1.36,0,0,0-.775.216.944.944,0,0,0-.4.638h-1.006a1.709,1.709,0,0,1,.367-.91,2.021,2.021,0,0,1,.79-.583,2.819,2.819,0,0,1,2.223.045,1.692,1.692,0,0,1,.729.709,2.269,2.269,0,0,1,.246,1.091v3.139h-.875l-.08-.856a2.39,2.39,0,0,1-.262.383,1.522,1.522,0,0,1-.357.312,1.793,1.793,0,0,1-.473.206,2.158,2.158,0,0,1-.588.075m.191-.815a1.283,1.283,0,0,0,.583-.132,1.364,1.364,0,0,0,.448-.356,1.61,1.61,0,0,0,.282-.514,2.072,2.072,0,0,0,.106-.588v-.03h-1.2a1.926,1.926,0,0,0-.7.106.8.8,0,0,0-.387.287.744.744,0,0,0-.121.423.719.719,0,0,0,.453.7,1.272,1.272,0,0,0,.533.1" transform="translate(-37.474 -132.233)"/>
        <path id="Path_34194" data-name="Path 34194" d="M141.72,468.117a.655.655,0,0,1-.478-.181.616.616,0,0,1-.186-.463.589.589,0,0,1,.186-.448.667.667,0,0,1,.478-.176.674.674,0,0,1,.473.176.583.583,0,0,1,.191.448.61.61,0,0,1-.191.463.662.662,0,0,1-.473.181m-.513.956h1.006v5.07h-1.006Z" transform="translate(-39.705 -131.41)"/>
        <path id="Path_34195" data-name="Path 34195" d="M146.846,474.283a2.327,2.327,0,0,1-2.138-1.293,3.192,3.192,0,0,1,0-2.731,2.346,2.346,0,0,1,2.148-1.288,2.229,2.229,0,0,1,1.046.236,1.713,1.713,0,0,1,.7.669V466.92h1.006v7.243h-.9l-.111-.785a2.027,2.027,0,0,1-.392.437,1.962,1.962,0,0,1-.583.338,2.19,2.19,0,0,1-.785.131m.161-.875a1.566,1.566,0,0,0,.835-.222,1.461,1.461,0,0,0,.558-.623,2.112,2.112,0,0,0,.2-.936,2.077,2.077,0,0,0-.2-.93,1.5,1.5,0,0,0-.558-.624,1.543,1.543,0,0,0-.835-.226,1.5,1.5,0,0,0-.815.226,1.54,1.54,0,0,0-.563.624,2.03,2.03,0,0,0-.2.93,2.065,2.065,0,0,0,.2.936,1.5,1.5,0,0,0,.563.623,1.528,1.528,0,0,0,.815.222" transform="translate(-40.646 -131.429)"/>
        <path id="Path_34196" data-name="Path 34196" d="M191.666,474.315a2.794,2.794,0,0,1-1.609-.458,2.926,2.926,0,0,1-1.036-1.278,5.2,5.2,0,0,1,0-3.812,2.934,2.934,0,0,1,1.036-1.278,3.05,3.05,0,0,1,3.214,0,2.914,2.914,0,0,1,1.026,1.278,5.266,5.266,0,0,1,0,3.812,2.906,2.906,0,0,1-1.026,1.278,2.771,2.771,0,0,1-1.6.458m0-.9a1.657,1.657,0,0,0,1.011-.332,2.165,2.165,0,0,0,.7-.946,4.414,4.414,0,0,0,0-2.937,2.132,2.132,0,0,0-.7-.94,1.67,1.67,0,0,0-1.011-.327,1.706,1.706,0,0,0-1.026.327,2.109,2.109,0,0,0-.7.94,4.414,4.414,0,0,0,0,2.937,2.141,2.141,0,0,0,.7.946,1.691,1.691,0,0,0,1.026.332" transform="translate(-53.104 -131.461)"/>
        <path id="Path_34197" data-name="Path 34197" d="M201.168,474.315a2.692,2.692,0,0,1-1.3-.287,2.327,2.327,0,0,1-.85-.774,3.424,3.424,0,0,1-.468-1.086,5.159,5.159,0,0,1-.146-1.232,5.812,5.812,0,0,1,.327-2.042,3.086,3.086,0,0,1,.941-1.368,2.288,2.288,0,0,1,1.479-.493,2.437,2.437,0,0,1,1.182.267,2.032,2.032,0,0,1,.765.708,2.309,2.309,0,0,1,.337.976H202.5a1.274,1.274,0,0,0-.448-.81,1.5,1.5,0,0,0-1.8.02,2.014,2.014,0,0,0-.619.93,5.171,5.171,0,0,0-.257,1.579v.071a1.844,1.844,0,0,1,.433-.553,2.1,2.1,0,0,1,.669-.4,2.369,2.369,0,0,1,.84-.146,2.34,2.34,0,0,1,1.112.276,2.191,2.191,0,0,1,1.162,1.987,2.375,2.375,0,0,1-.3,1.156,2.345,2.345,0,0,1-.84.881,2.39,2.39,0,0,1-1.288.337m-.07-.875a1.564,1.564,0,0,0,.77-.186,1.393,1.393,0,0,0,.533-.518,1.559,1.559,0,0,0,0-1.514,1.363,1.363,0,0,0-.533-.508,1.6,1.6,0,0,0-.77-.181,1.529,1.529,0,0,0-.775.2,1.5,1.5,0,0,0-.543.523,1.38,1.38,0,0,0-.2.739,1.4,1.4,0,0,0,.2.749,1.42,1.42,0,0,0,.548.514,1.6,1.6,0,0,0,.77.186" transform="translate(-55.846 -131.461)"/>
        <rect id="Rectangle_2438" data-name="Rectangle 2438" width="4.064" height="0.845" transform="translate(149.104 339.343)"/>
        <path id="Path_34198" data-name="Path 34198" d="M215.034,474.194v-.724q.7-.543,1.338-1.1a13.724,13.724,0,0,0,1.132-1.1,5.417,5.417,0,0,0,.78-1.076,2.153,2.153,0,0,0,.282-1.011,1.643,1.643,0,0,0-.121-.634,1.084,1.084,0,0,0-.382-.478,1.216,1.216,0,0,0-.714-.186,1.27,1.27,0,0,0-.719.191,1.2,1.2,0,0,0-.433.508,1.644,1.644,0,0,0-.146.7h-.976a2.41,2.41,0,0,1,.312-1.227,1.978,1.978,0,0,1,.82-.765,2.536,2.536,0,0,1,1.162-.262,2.578,2.578,0,0,1,1.167.246,1.791,1.791,0,0,1,.764.714,2.24,2.24,0,0,1,.272,1.142,2.572,2.572,0,0,1-.191.961,4.352,4.352,0,0,1-.518.93,8.077,8.077,0,0,1-.729.87q-.4.417-.83.79t-.82.674h3.31v.835Z" transform="translate(-60.528 -131.461)"/>
        <path id="Path_34199" data-name="Path 34199" d="M225.794,474.315a2.692,2.692,0,0,1-1.3-.287,2.327,2.327,0,0,1-.85-.774,3.423,3.423,0,0,1-.468-1.086,5.16,5.16,0,0,1-.146-1.232,5.812,5.812,0,0,1,.327-2.042,3.086,3.086,0,0,1,.941-1.368,2.287,2.287,0,0,1,1.479-.493,2.437,2.437,0,0,1,1.182.267,2.032,2.032,0,0,1,.764.708,2.309,2.309,0,0,1,.337.976h-.936a1.274,1.274,0,0,0-.448-.81,1.5,1.5,0,0,0-1.8.02,2.014,2.014,0,0,0-.619.93A5.171,5.171,0,0,0,224,470.7v.071a1.844,1.844,0,0,1,.433-.553,2.1,2.1,0,0,1,.669-.4,2.369,2.369,0,0,1,.84-.146,2.34,2.34,0,0,1,1.112.276,2.191,2.191,0,0,1,1.162,1.987,2.375,2.375,0,0,1-.3,1.156,2.345,2.345,0,0,1-.84.881,2.39,2.39,0,0,1-1.288.337m-.07-.875a1.564,1.564,0,0,0,.77-.186,1.393,1.393,0,0,0,.533-.518,1.559,1.559,0,0,0,0-1.514,1.363,1.363,0,0,0-.533-.508,1.6,1.6,0,0,0-.77-.181,1.529,1.529,0,0,0-.775.2,1.5,1.5,0,0,0-.543.523,1.38,1.38,0,0,0-.2.739,1.4,1.4,0,0,0,.2.749,1.419,1.419,0,0,0,.548.514,1.6,1.6,0,0,0,.77.186" transform="translate(-62.778 -131.461)"/>
        <rect id="Rectangle_2439" data-name="Rectangle 2439" width="4.064" height="0.845" transform="translate(166.798 339.343)"/>
        <path id="Path_34200" data-name="Path 34200" d="M239.659,474.194v-.724q.7-.543,1.338-1.1a13.721,13.721,0,0,0,1.132-1.1,5.417,5.417,0,0,0,.78-1.076,2.153,2.153,0,0,0,.282-1.011,1.643,1.643,0,0,0-.121-.634,1.084,1.084,0,0,0-.382-.478,1.216,1.216,0,0,0-.714-.186,1.27,1.27,0,0,0-.719.191,1.2,1.2,0,0,0-.433.508,1.644,1.644,0,0,0-.146.7H239.7a2.41,2.41,0,0,1,.312-1.227,1.978,1.978,0,0,1,.82-.765,2.536,2.536,0,0,1,1.162-.262,2.578,2.578,0,0,1,1.167.246,1.792,1.792,0,0,1,.764.714,2.24,2.24,0,0,1,.272,1.142,2.572,2.572,0,0,1-.191.961,4.354,4.354,0,0,1-.518.93,8.077,8.077,0,0,1-.729.87q-.4.417-.83.79t-.82.674h3.309v.835Z" transform="translate(-67.46 -131.461)"/>
        <path id="Path_34201" data-name="Path 34201" d="M250.465,474.315a2.794,2.794,0,0,1-1.609-.458,2.926,2.926,0,0,1-1.036-1.278,5.2,5.2,0,0,1,0-3.812,2.934,2.934,0,0,1,1.036-1.278,3.05,3.05,0,0,1,3.214,0,2.914,2.914,0,0,1,1.026,1.278,5.266,5.266,0,0,1,0,3.812,2.906,2.906,0,0,1-1.026,1.278,2.771,2.771,0,0,1-1.6.458m0-.9a1.657,1.657,0,0,0,1.011-.332,2.165,2.165,0,0,0,.7-.946,4.414,4.414,0,0,0,0-2.937,2.132,2.132,0,0,0-.7-.94,1.67,1.67,0,0,0-1.011-.327,1.706,1.706,0,0,0-1.026.327,2.109,2.109,0,0,0-.7.94,4.414,4.414,0,0,0,0,2.937,2.141,2.141,0,0,0,.7.946,1.691,1.691,0,0,0,1.026.332" transform="translate(-69.655 -131.461)"/>
        <path id="Path_34202" data-name="Path 34202" d="M257.173,474.194v-.724q.7-.543,1.338-1.1a13.716,13.716,0,0,0,1.132-1.1,5.416,5.416,0,0,0,.78-1.076,2.153,2.153,0,0,0,.282-1.011,1.642,1.642,0,0,0-.121-.634,1.084,1.084,0,0,0-.382-.478,1.215,1.215,0,0,0-.714-.186,1.27,1.27,0,0,0-.719.191,1.2,1.2,0,0,0-.433.508,1.644,1.644,0,0,0-.146.7h-.976a2.41,2.41,0,0,1,.312-1.227,1.978,1.978,0,0,1,.82-.765,2.536,2.536,0,0,1,1.162-.262,2.578,2.578,0,0,1,1.167.246,1.792,1.792,0,0,1,.764.714,2.24,2.24,0,0,1,.272,1.142,2.572,2.572,0,0,1-.191.961,4.354,4.354,0,0,1-.518.93,8.081,8.081,0,0,1-.729.87q-.4.417-.83.79t-.82.674h3.31v.835Z" transform="translate(-72.389 -131.461)"/>
        <path id="Path_34203" data-name="Path 34203" d="M268.32,474.241V472.8h-3.531v-.785l3.37-4.818h1.157v4.728h1.006v.875h-1.006v1.439Zm-2.434-2.314h2.495v-3.621Z" transform="translate(-74.533 -131.508)"/>
        <path id="Path_34204" data-name="Path 34204" class="cls-8" d="M299.488,474.242v-6.217h-2.082V467.2h5.181v.825h-2.092v6.217Z" transform="translate(-83.714 -131.508)"/>
        <path id="Path_34205" data-name="Path 34205" class="cls-8" d="M306.939,475.088a2.494,2.494,0,0,1-1.283-.332,2.355,2.355,0,0,1-.9-.93,3.111,3.111,0,0,1,.005-2.786,2.4,2.4,0,0,1,.905-.93,2.521,2.521,0,0,1,1.288-.331,2.488,2.488,0,0,1,1.288.331,2.385,2.385,0,0,1,.89.926,3.152,3.152,0,0,1,0,2.8,2.358,2.358,0,0,1-.9.925,2.542,2.542,0,0,1-1.3.332m0-.865a1.432,1.432,0,0,0,.749-.2,1.453,1.453,0,0,0,.543-.6,2.138,2.138,0,0,0,.206-.991,2.18,2.18,0,0,0-.2-.991,1.439,1.439,0,0,0-2.022-.6,1.448,1.448,0,0,0-.548.6,2.484,2.484,0,0,0,0,1.982,1.453,1.453,0,0,0,.543.6,1.4,1.4,0,0,0,.729.2" transform="translate(-85.693 -132.234)"/>
        <path id="Path_34206" data-name="Path 34206" class="cls-8" d="M313.678,475.014l-1.489-5.07h1l1.107,4.225-.191-.01,1.227-4.215h1.127l1.227,4.215-.191.01,1.1-4.225H319.6l-1.489,5.07h-1.036l-1.288-4.4h.2l-1.288,4.4Z" transform="translate(-87.876 -132.281)"/>
        <path id="Path_34207" data-name="Path 34207" class="cls-8" d="M325.735,475.087a2.487,2.487,0,0,1-1.288-.332,2.314,2.314,0,0,1-.88-.925,2.883,2.883,0,0,1-.317-1.378,2.958,2.958,0,0,1,.317-1.4,2.346,2.346,0,0,1,.88-.936,2.5,2.5,0,0,1,1.308-.337,2.369,2.369,0,0,1,1.278.332,2.284,2.284,0,0,1,.825.88,2.537,2.537,0,0,1,.292,1.212c0,.067,0,.139-.005.216s-.009.163-.015.257h-4.144v-.714h3.159a1.366,1.366,0,0,0-.423-.991,1.4,1.4,0,0,0-.976-.356,1.548,1.548,0,0,0-.754.185,1.4,1.4,0,0,0-.548.543,1.781,1.781,0,0,0-.206.9v.282a2,2,0,0,0,.206.951,1.419,1.419,0,0,0,.548.583,1.469,1.469,0,0,0,.744.2,1.389,1.389,0,0,0,.795-.211,1.263,1.263,0,0,0,.463-.573H328a2.2,2.2,0,0,1-1.212,1.408,2.483,2.483,0,0,1-1.051.211" transform="translate(-90.989 -132.233)"/>
        <path id="Path_34208" data-name="Path 34208" class="cls-8" d="M331.622,474.967V469.9h.905l.091.956a1.851,1.851,0,0,1,.443-.578,1.965,1.965,0,0,1,.639-.367,2.5,2.5,0,0,1,.84-.131v1.066h-.362a2.285,2.285,0,0,0-.594.075,1.275,1.275,0,0,0-.5.257,1.184,1.184,0,0,0-.337.493,2.159,2.159,0,0,0-.121.775v2.525Z" transform="translate(-93.345 -132.233)"/>
        <path id="Path_34209" data-name="Path 34209" class="cls-8" d="M340.428,474.194v-.724q.7-.543,1.338-1.1a13.716,13.716,0,0,0,1.132-1.1,5.418,5.418,0,0,0,.78-1.076,2.153,2.153,0,0,0,.282-1.011,1.643,1.643,0,0,0-.121-.634,1.084,1.084,0,0,0-.382-.478,1.216,1.216,0,0,0-.714-.186,1.27,1.27,0,0,0-.719.191,1.2,1.2,0,0,0-.433.508,1.644,1.644,0,0,0-.146.7h-.976a2.41,2.41,0,0,1,.312-1.227,1.978,1.978,0,0,1,.82-.765,2.536,2.536,0,0,1,1.162-.262,2.578,2.578,0,0,1,1.167.246,1.792,1.792,0,0,1,.765.714,2.241,2.241,0,0,1,.272,1.142,2.572,2.572,0,0,1-.191.961,4.352,4.352,0,0,1-.518.93,8.081,8.081,0,0,1-.729.87q-.4.417-.83.79t-.82.674h3.309v.835Z" transform="translate(-95.824 -131.461)"/>
        <path id="Path_34210" data-name="Path 34210" class="cls-8" d="M351.188,474.315a2.692,2.692,0,0,1-1.3-.287,2.327,2.327,0,0,1-.85-.774,3.423,3.423,0,0,1-.468-1.086,5.16,5.16,0,0,1-.146-1.232,5.812,5.812,0,0,1,.327-2.042,3.086,3.086,0,0,1,.941-1.368,2.288,2.288,0,0,1,1.479-.493,2.437,2.437,0,0,1,1.182.267,2.032,2.032,0,0,1,.764.708,2.309,2.309,0,0,1,.337.976h-.935a1.275,1.275,0,0,0-.448-.81,1.5,1.5,0,0,0-1.8.02,2.014,2.014,0,0,0-.619.93,5.171,5.171,0,0,0-.257,1.579v.071a1.845,1.845,0,0,1,.433-.553,2.1,2.1,0,0,1,.669-.4,2.369,2.369,0,0,1,.84-.146,2.339,2.339,0,0,1,1.112.276,2.191,2.191,0,0,1,1.162,1.987,2.375,2.375,0,0,1-.3,1.156,2.345,2.345,0,0,1-.84.881,2.39,2.39,0,0,1-1.288.337m-.07-.875a1.564,1.564,0,0,0,.77-.186,1.393,1.393,0,0,0,.533-.518,1.559,1.559,0,0,0,0-1.514,1.363,1.363,0,0,0-.533-.508,1.6,1.6,0,0,0-.77-.181,1.529,1.529,0,0,0-.775.2,1.5,1.5,0,0,0-.543.523,1.38,1.38,0,0,0-.2.739,1.4,1.4,0,0,0,.2.749,1.42,1.42,0,0,0,.548.514,1.6,1.6,0,0,0,.77.186" transform="translate(-98.074 -131.461)"/>
      </g>
    </g>
  </g>
</svg>
