<svg xmlns="http://www.w3.org/2000/svg" width="148.693" height="49" viewBox="0 0 148.693 49">
  <g id="Group_6335" data-name="Group 6335" transform="translate(19433 1450)">
    <g id="Group_6330" data-name="Group 6330" transform="translate(-10475 -431)">
      <path id="Path_1209" data-name="Path 1209" d="M83.715,4.317A1.745,1.745,0,0,1,84.22,3a2.137,2.137,0,0,1,1.414-.4,5.069,5.069,0,0,1,1.212.2c.4.1.606.2.707.2V20.778H83.715V13H75.838v7.776H72V4.317A1.745,1.745,0,0,1,72.5,3a2.137,2.137,0,0,1,1.414-.4,5.069,5.069,0,0,1,1.212.2c.4.1.606.2.707.2V9.669h7.877V4.317Z" transform="translate(-8971.896 -1019.6)" fill="#3833e3"/>
      <path id="Path_1210" data-name="Path 1210" d="M103.627,20.537a2.2,2.2,0,0,1-.606.1c-.3.1-.808.1-1.313.2a11,11,0,0,1-1.919.1c-.707,0-1.616.1-2.525.1a14.636,14.636,0,0,1-3.232-.3,5.336,5.336,0,0,1-2.02-.909A3.081,3.081,0,0,1,91,18.517a4.717,4.717,0,0,1-.3-1.717,6.511,6.511,0,0,1,.3-2.02,3.036,3.036,0,0,1,1.111-1.414,5.5,5.5,0,0,1,1.919-.808,12.431,12.431,0,0,1,2.929-.3,12.243,12.243,0,0,1,2.02.1,5.582,5.582,0,0,1,.909.1v-.4a2.586,2.586,0,0,0-.808-1.919,4.528,4.528,0,0,0-2.626-.707,6.21,6.21,0,0,0-1.414.1c-.4.1-.707.2-1.01.3a4.389,4.389,0,0,0-.707.4,2.209,2.209,0,0,0-.5.3,2.334,2.334,0,0,1-.707-.707,1.706,1.706,0,0,1-.3-1.01,1.3,1.3,0,0,1,.4-1.01,2.577,2.577,0,0,1,1.01-.707,5.789,5.789,0,0,1,1.414-.4,8.687,8.687,0,0,1,1.616-.1,13.049,13.049,0,0,1,2.929.3,7.964,7.964,0,0,1,2.323.909,4.574,4.574,0,0,1,1.515,1.818,7.458,7.458,0,0,1,.5,2.828v8.079ZM99.991,14.78a.371.371,0,0,1-.3-.1,1.5,1.5,0,0,1-.606-.1H97.567a7.027,7.027,0,0,0-1.616.2,1.9,1.9,0,0,0-.909.4,1.022,1.022,0,0,0-.4.707,2.223,2.223,0,0,0-.1.808,1.718,1.718,0,0,0,.1.707,2.112,2.112,0,0,0,.4.606,1.9,1.9,0,0,0,.909.4,6.112,6.112,0,0,0,1.515.2,7.186,7.186,0,0,0,1.616-.1,3.478,3.478,0,0,1,.909-.1Z" transform="translate(-8971.711 -1019.56)" fill="#3833e3"/>
      <path id="Path_1211" data-name="Path 1211" d="M107.4,8.113a1.644,1.644,0,0,1,.606-.3,8.421,8.421,0,0,1,1.212-.4c.5-.1,1.111-.3,1.919-.4a18.273,18.273,0,0,1,2.525-.2,9.682,9.682,0,0,1,3.131.5,9.834,9.834,0,0,1,2.424,1.515,5.182,5.182,0,0,1,1.515,2.323,9.521,9.521,0,0,1,.5,3.03,7.859,7.859,0,0,1-.5,2.828,5.835,5.835,0,0,1-1.313,2.02,5.153,5.153,0,0,1-2.02,1.212,6.111,6.111,0,0,1-2.424.4,7.849,7.849,0,0,1-1.616-.2,3.407,3.407,0,0,1-1.212-.4,2.167,2.167,0,0,1-.707-.4q-.3-.151-.3-.3v6.463H107.4Zm10,5.756a6.872,6.872,0,0,0-.2-1.515,5.442,5.442,0,0,0-.707-1.313,2.757,2.757,0,0,0-1.212-.909,4.186,4.186,0,0,0-1.616-.3,7.523,7.523,0,0,0-1.818.2,1.556,1.556,0,0,0-.707.3v6.059a2.208,2.208,0,0,1,.3.5,1.034,1.034,0,0,0,.606.5,1.9,1.9,0,0,0,.909.4,4.482,4.482,0,0,0,1.313.2A2.994,2.994,0,0,0,116.691,17,7.521,7.521,0,0,0,117.4,13.869Z" transform="translate(-8971.546 -1019.558)" fill="#3833e3"/>
      <path id="Path_1212" data-name="Path 1212" d="M124.3,8.113a1.644,1.644,0,0,1,.606-.3,8.421,8.421,0,0,1,1.212-.4c.5-.1,1.111-.3,1.919-.4a18.274,18.274,0,0,1,2.525-.2,9.682,9.682,0,0,1,3.131.5,9.833,9.833,0,0,1,2.424,1.515,5.182,5.182,0,0,1,1.515,2.323,9.521,9.521,0,0,1,.5,3.03,7.859,7.859,0,0,1-.5,2.828,5.835,5.835,0,0,1-1.313,2.02,5.153,5.153,0,0,1-2.02,1.212,6.111,6.111,0,0,1-2.424.4,7.849,7.849,0,0,1-1.616-.2,3.407,3.407,0,0,1-1.212-.4,2.168,2.168,0,0,1-.707-.4q-.3-.151-.3-.3v6.463H124.3Zm10,5.756a6.874,6.874,0,0,0-.2-1.515,5.441,5.441,0,0,0-.707-1.313,2.757,2.757,0,0,0-1.212-.909,4.187,4.187,0,0,0-1.616-.3,7.523,7.523,0,0,0-1.818.2,1.556,1.556,0,0,0-.707.3v6.059a2.21,2.21,0,0,1,.3.5,1.034,1.034,0,0,0,.606.5,1.9,1.9,0,0,0,.909.4,4.482,4.482,0,0,0,1.313.2A2.994,2.994,0,0,0,133.591,17,7.521,7.521,0,0,0,134.3,13.869Z" transform="translate(-8971.378 -1019.558)" fill="#3833e3"/>
      <path id="Path_1213" data-name="Path 1213" d="M149.808,8.816a3.009,3.009,0,0,1,.707-1.111,1.827,1.827,0,0,1,1.414-.4,2.291,2.291,0,0,1,1.313.3c.3.2.5.4.606.4-.1.4-.3.909-.5,1.515s-.5,1.212-.808,1.919a16.862,16.862,0,0,0-.808,2.02c-.3.707-.606,1.313-.808,1.818a33.912,33.912,0,0,1-1.616,3.333,27.12,27.12,0,0,1-1.818,3.333l-.909,1.515a6.954,6.954,0,0,1-1.111,1.313,3.8,3.8,0,0,1-1.515.909,5.466,5.466,0,0,1-1.919.3,4.916,4.916,0,0,1-1.212-.1c-.4-.1-.707-.1-1.01-.2a2.569,2.569,0,0,0-.707-.2c-.2-.1-.3-.1-.3-.2l1.01-2.626c.1.1.3.1.707.2a4.3,4.3,0,0,0,1.111.2,2.413,2.413,0,0,0,1.414-.5,3.692,3.692,0,0,0,1.111-1.515l.808-1.515c-.3-.5-.606-1.01-1.01-1.616s-.707-1.212-1.111-1.818-.707-1.212-1.111-1.919c-.3-.606-.707-1.212-.909-1.717-.3-.5-.5-.909-.707-1.313-.2-.3-.3-.606-.4-.707-.1-.3-.3-.5-.3-.808a1.969,1.969,0,0,1-.1-.808,1.281,1.281,0,0,1,.1-.606,2.208,2.208,0,0,1,.3-.5.928.928,0,0,1,.606-.4,2.241,2.241,0,0,1,.909-.1,3.766,3.766,0,0,1,1.212.2,1.106,1.106,0,0,1,.4.2c.1.1.2.5.5,1.111s.606,1.313,1.01,2.02c.4.808.808,1.616,1.212,2.525s.909,1.717,1.313,2.525a21.606,21.606,0,0,1,1.01-2.222c.3-.707.606-1.414.808-2.02.3-.606.5-1.212.707-1.616A10.06,10.06,0,0,1,149.808,8.816Z" transform="translate(-8971.234 -1019.554)" fill="#3833e3"/>
      <g id="Group_6329" data-name="Group 6329" transform="translate(-8899.896 -991.081)">
        <path id="Path_1214" data-name="Path 1214" d="M84.541,28.7a1.827,1.827,0,0,1,1.414.4,1.61,1.61,0,0,1,.4,1.212,3.63,3.63,0,0,1-.2,1.111,1.644,1.644,0,0,1-.3.606H80V46.777H76.158V32.033H72.018a1.827,1.827,0,0,1-1.414-.4,1.61,1.61,0,0,1-.4-1.212,3.63,3.63,0,0,1,.2-1.111,1.644,1.644,0,0,1,.3-.606H84.541Z" transform="translate(-70.2 -28.7)" fill="#3833e3"/>
        <path id="Path_1215" data-name="Path 1215" d="M97.829,38.053a7.8,7.8,0,0,1-.2,1.515,2.614,2.614,0,0,1-.707,1.111,3.193,3.193,0,0,1-1.313.707,5.923,5.923,0,0,1-2.02.2H88.336a3.27,3.27,0,0,0,1.313,1.818,4.571,4.571,0,0,0,2.727.707,16.277,16.277,0,0,0,2.626-.2,5.39,5.39,0,0,0,1.111-.4l1.01,2.626-.4.2a8.192,8.192,0,0,1-1.111.3c-.4.1-1.01.2-1.616.3a12.875,12.875,0,0,1-2.02.1,9.337,9.337,0,0,1-2.929-.4,6.6,6.6,0,0,1-2.323-1.313A4.873,4.873,0,0,1,85.2,43.1a7.56,7.56,0,0,1-.5-3.131,9.521,9.521,0,0,1,.5-3.03,6.843,6.843,0,0,1,1.414-2.323A8.639,8.639,0,0,1,88.841,33.1a8.9,8.9,0,0,1,2.929-.5A6.839,6.839,0,0,1,94.4,33a5.064,5.064,0,0,1,1.919,1.111,6.161,6.161,0,0,1,1.212,1.616A11.26,11.26,0,0,1,97.829,38.053Zm-3.434-.3a2.51,2.51,0,0,0-.1-.808,1.787,1.787,0,0,0-.5-.808,5.6,5.6,0,0,0-.808-.606,4.482,4.482,0,0,0-1.313-.2,2.63,2.63,0,0,0-1.515.4,2.211,2.211,0,0,0-1.01.909,3.413,3.413,0,0,0-.606,1.212,5.911,5.911,0,0,0-.2,1.313h4.747c.606,0,.909-.1,1.111-.4A1.873,1.873,0,0,0,94.4,37.751Z" transform="translate(-70.056 -28.661)" fill="#3833e3"/>
        <path id="Path_1216" data-name="Path 1216" d="M110.192,46.837V39.262c0-2.222-1.01-3.232-3.03-3.232a7.252,7.252,0,0,0-1.717.2,4.7,4.7,0,0,0-.909.3v10.3H100.8V34.213a1.562,1.562,0,0,0,.606-.3,10.481,10.481,0,0,1,1.313-.4c.5-.1,1.212-.3,1.919-.4a16.756,16.756,0,0,1,2.424-.2,7.74,7.74,0,0,1,2.727.4,5.344,5.344,0,0,1,2.121,1.111,4.353,4.353,0,0,1,1.313,1.717,6.1,6.1,0,0,1,.5,2.424v8.281Z" transform="translate(-69.897 -28.658)" fill="#3833e3"/>
        <path id="Path_1217" data-name="Path 1217" d="M129.627,46.737a2.2,2.2,0,0,1-.606.1c-.3.1-.808.1-1.313.2a11,11,0,0,1-1.919.1c-.707,0-1.616.1-2.525.1a14.636,14.636,0,0,1-3.232-.3,5.336,5.336,0,0,1-2.02-.909A3.081,3.081,0,0,1,117,44.717,4.718,4.718,0,0,1,116.7,43a6.513,6.513,0,0,1,.3-2.02,3.037,3.037,0,0,1,1.111-1.414,5.5,5.5,0,0,1,1.919-.808,12.432,12.432,0,0,1,2.929-.3,12.243,12.243,0,0,1,2.02.1,5.582,5.582,0,0,1,.909.1v-.4a2.586,2.586,0,0,0-.808-1.919,4.528,4.528,0,0,0-2.626-.707,6.21,6.21,0,0,0-1.414.1c-.4.1-.707.2-1.01.3a4.391,4.391,0,0,0-.707.4,2.207,2.207,0,0,0-.5.3,2.334,2.334,0,0,1-.707-.707,1.706,1.706,0,0,1-.3-1.01,1.3,1.3,0,0,1,.4-1.01,2.578,2.578,0,0,1,1.01-.707,5.79,5.79,0,0,1,1.414-.4,8.687,8.687,0,0,1,1.616-.1,13.049,13.049,0,0,1,2.929.3,7.965,7.965,0,0,1,2.323.909,4.574,4.574,0,0,1,1.515,1.818,7.459,7.459,0,0,1,.5,2.828v8.079Zm-3.636-5.857a.371.371,0,0,1-.3-.1,1.5,1.5,0,0,1-.606-.1h-1.515a7.028,7.028,0,0,0-1.616.2,1.9,1.9,0,0,0-.909.4,1.022,1.022,0,0,0-.4.707,2.224,2.224,0,0,0-.1.808,1.719,1.719,0,0,0,.1.707,2.113,2.113,0,0,0,.4.606,1.9,1.9,0,0,0,.909.4,6.113,6.113,0,0,0,1.515.2,7.186,7.186,0,0,0,1.616-.1,3.478,3.478,0,0,1,.909-.1Z" transform="translate(-69.74 -28.659)" fill="#3833e3"/>
        <path id="Path_1218" data-name="Path 1218" d="M142.692,46.837V39.262c0-2.222-1.01-3.232-3.03-3.232a7.252,7.252,0,0,0-1.717.2,4.7,4.7,0,0,0-.909.3v10.3H133.3V34.213a1.562,1.562,0,0,0,.606-.3,10.48,10.48,0,0,1,1.313-.4c.5-.1,1.212-.3,1.919-.4a16.756,16.756,0,0,1,2.424-.2,7.739,7.739,0,0,1,2.727.4,5.343,5.343,0,0,1,2.121,1.111,4.353,4.353,0,0,1,1.313,1.717,6.1,6.1,0,0,1,.5,2.424v8.281Z" transform="translate(-69.575 -28.658)" fill="#3833e3"/>
        <path id="Path_1219" data-name="Path 1219" d="M154.659,36.367v5.857a2.194,2.194,0,0,0,.5,1.616,2.137,2.137,0,0,0,1.414.4,1.718,1.718,0,0,0,.707-.1c.2-.1.4-.1.606-.2s.3-.2.5-.2a.313.313,0,0,1,.2-.1l1.414,2.222-.3.3a5.637,5.637,0,0,1-.808.5c-.4.2-.808.3-1.313.5a8.894,8.894,0,0,1-1.717.2c-1.717,0-2.929-.4-3.636-1.313a5.3,5.3,0,0,1-1.111-3.333v-6.16h-.909c-.606,0-1.01-.1-1.212-.4a1.837,1.837,0,0,1-.4-1.111,2.988,2.988,0,0,1,.2-1.01c.1-.3.2-.4.2-.5h2.121V31.015a1.377,1.377,0,0,1,.5-1.212,2.675,2.675,0,0,1,1.414-.3,3.786,3.786,0,0,1,1.111.1c.3.1.606.1.606.2v3.535h2.828c.606,0,1.01.1,1.212.4a1.838,1.838,0,0,1,.4,1.111,2.988,2.988,0,0,1-.2,1.01c-.1.3-.2.4-.2.5Z" transform="translate(-69.423 -28.692)" fill="#3833e3"/>
      </g>
    </g>
    <rect id="Rectangle_2039" data-name="Rectangle 2039" width="49" height="49" rx="8" transform="translate(-19433 -1450)" fill="#3833e3"/>
    <g id="Group_19_1_" transform="translate(-19426.361 -1439.773)">
      <path id="Path_73_1_" d="M34.9,19.454a1.459,1.459,0,0,0-2.034-.058,31.859,31.859,0,0,1-3.777,3.012V9.374a1.425,1.425,0,0,0-.523-1.1L18.686.279a1.486,1.486,0,0,0-1.8,0L6.657,8.215a1.425,1.425,0,0,0-.523,1.1V17.89a1.453,1.453,0,0,0,2.906,0V10.011l8.775-6.836L26.3,10.011V24.03C13.34,30.4,2.879,19.975,2.414,19.454A1.459,1.459,0,0,0,.38,19.4a1.448,1.448,0,0,0-.058,2.028c.116.116,7.439,7.473,17.609,7.473,5.114,0,10.925-1.854,16.911-7.415A1.448,1.448,0,0,0,34.9,19.454Z" transform="translate(0.063 0.025)" fill="#f6f7f7"/>
    </g>
  </g>
</svg>
