<svg width="480" height="540" viewBox="0 0 480 540" fill="none" xmlns="http://www.w3.org/2000/svg">
<path d="M85 76H396C405.389 76 413 83.6112 413 93V447C413 456.389 405.389 464 396 464H85C75.6111 464 68 456.389 68 447V93C68 83.6112 75.6111 76 85 76Z" fill="#F1F5F7"/>
<path d="M84.911 121V106.3H87.788L93.143 115.015L91.253 114.994L96.671 106.3H99.422V121H96.335V115.96C96.335 114.7 96.363 113.566 96.419 112.558C96.489 111.55 96.601 110.549 96.755 109.555L97.133 110.542L92.828 117.22H91.442L87.221 110.584L87.578 109.555C87.732 110.493 87.837 111.459 87.893 112.453C87.963 113.433 87.998 114.602 87.998 115.96V121H84.911ZM106.983 121.21C106.059 121.21 105.226 120.958 104.484 120.454C103.742 119.95 103.154 119.264 102.72 118.396C102.286 117.528 102.069 116.534 102.069 115.414C102.069 114.294 102.286 113.3 102.72 112.432C103.168 111.564 103.77 110.885 104.526 110.395C105.282 109.905 106.143 109.66 107.109 109.66C107.655 109.66 108.152 109.744 108.6 109.912C109.062 110.066 109.461 110.283 109.797 110.563C110.147 110.843 110.441 111.165 110.679 111.529C110.917 111.893 111.085 112.285 111.183 112.705L110.553 112.6V109.891H113.514V121H110.511V118.333L111.183 118.27C111.071 118.662 110.889 119.033 110.637 119.383C110.385 119.733 110.07 120.048 109.692 120.328C109.328 120.594 108.915 120.811 108.453 120.979C107.991 121.133 107.501 121.21 106.983 121.21ZM107.802 118.627C108.362 118.627 108.852 118.494 109.272 118.228C109.692 117.962 110.014 117.591 110.238 117.115C110.476 116.625 110.595 116.058 110.595 115.414C110.595 114.784 110.476 114.231 110.238 113.755C110.014 113.279 109.692 112.908 109.272 112.642C108.852 112.362 108.362 112.222 107.802 112.222C107.256 112.222 106.773 112.362 106.353 112.642C105.947 112.908 105.625 113.279 105.387 113.755C105.149 114.231 105.03 114.784 105.03 115.414C105.03 116.058 105.149 116.625 105.387 117.115C105.625 117.591 105.947 117.962 106.353 118.228C106.773 118.494 107.256 118.627 107.802 118.627ZM121.565 125.83C120.683 125.83 119.815 125.697 118.961 125.431C118.107 125.179 117.407 124.843 116.861 124.423L117.932 122.302C118.212 122.498 118.534 122.673 118.898 122.827C119.262 122.981 119.64 123.1 120.032 123.184C120.438 123.268 120.851 123.31 121.271 123.31C121.999 123.31 122.594 123.198 123.056 122.974C123.532 122.75 123.889 122.414 124.127 121.966C124.365 121.518 124.484 120.958 124.484 120.286V118.354L124.988 118.459C124.904 118.921 124.666 119.348 124.274 119.74C123.896 120.118 123.42 120.426 122.846 120.664C122.286 120.888 121.698 121 121.082 121C120.06 121 119.15 120.762 118.352 120.286C117.554 119.81 116.924 119.152 116.462 118.312C116 117.472 115.769 116.499 115.769 115.393C115.769 114.287 115.993 113.307 116.441 112.453C116.903 111.585 117.526 110.906 118.31 110.416C119.108 109.912 120.011 109.66 121.019 109.66C121.439 109.66 121.838 109.709 122.216 109.807C122.608 109.905 122.965 110.045 123.287 110.227C123.623 110.395 123.917 110.591 124.169 110.815C124.435 111.025 124.652 111.256 124.82 111.508C124.988 111.76 125.093 112.012 125.135 112.264L124.526 112.432L124.61 109.891H127.466V120.16C127.466 121.07 127.333 121.875 127.067 122.575C126.801 123.275 126.409 123.863 125.891 124.339C125.387 124.829 124.764 125.2 124.022 125.452C123.294 125.704 122.475 125.83 121.565 125.83ZM121.649 118.606C122.237 118.606 122.748 118.473 123.182 118.207C123.63 117.941 123.973 117.57 124.211 117.094C124.449 116.618 124.568 116.058 124.568 115.414C124.568 114.784 124.449 114.231 124.211 113.755C123.973 113.265 123.63 112.887 123.182 112.621C122.748 112.355 122.237 112.222 121.649 112.222C121.075 112.222 120.571 112.362 120.137 112.642C119.703 112.908 119.36 113.286 119.108 113.776C118.87 114.252 118.751 114.798 118.751 115.414C118.751 116.044 118.87 116.604 119.108 117.094C119.36 117.57 119.703 117.941 120.137 118.207C120.571 118.473 121.075 118.606 121.649 118.606ZM130.681 121V109.891H133.663V121H130.681ZM132.151 107.623C131.577 107.623 131.129 107.483 130.807 107.203C130.485 106.909 130.323 106.503 130.323 105.985C130.323 105.509 130.485 105.124 130.807 104.83C131.143 104.522 131.591 104.368 132.151 104.368C132.725 104.368 133.173 104.515 133.495 104.809C133.817 105.089 133.978 105.481 133.978 105.985C133.978 106.461 133.81 106.853 133.474 107.161C133.152 107.469 132.711 107.623 132.151 107.623ZM141.677 121.21C140.613 121.21 139.661 120.958 138.821 120.454C137.981 119.95 137.316 119.264 136.826 118.396C136.35 117.528 136.112 116.541 136.112 115.435C136.112 114.329 136.35 113.342 136.826 112.474C137.316 111.606 137.981 110.92 138.821 110.416C139.661 109.912 140.613 109.66 141.677 109.66C142.671 109.66 143.581 109.842 144.407 110.206C145.233 110.57 145.877 111.074 146.339 111.718L144.701 113.692C144.505 113.426 144.26 113.188 143.966 112.978C143.672 112.754 143.35 112.579 143 112.453C142.664 112.327 142.314 112.264 141.95 112.264C141.376 112.264 140.865 112.404 140.417 112.684C139.983 112.95 139.64 113.321 139.388 113.797C139.136 114.273 139.01 114.819 139.01 115.435C139.01 116.023 139.136 116.555 139.388 117.031C139.654 117.507 140.011 117.885 140.459 118.165C140.907 118.445 141.411 118.585 141.971 118.585C142.335 118.585 142.678 118.536 143 118.438C143.322 118.34 143.623 118.186 143.903 117.976C144.197 117.766 144.463 117.514 144.701 117.22L146.318 119.194C145.856 119.796 145.198 120.286 144.344 120.664C143.504 121.028 142.615 121.21 141.677 121.21ZM158.155 121V109.135H153.871V106.3H165.715V109.135H161.305V121H158.155ZM171.075 121.21C169.871 121.21 168.814 120.965 167.904 120.475C167.008 119.985 166.308 119.313 165.804 118.459C165.314 117.605 165.069 116.625 165.069 115.519C165.069 114.651 165.209 113.86 165.489 113.146C165.769 112.432 166.161 111.816 166.665 111.298C167.169 110.766 167.764 110.36 168.45 110.08C169.15 109.786 169.906 109.639 170.718 109.639C171.474 109.639 172.174 109.779 172.818 110.059C173.462 110.339 174.015 110.731 174.477 111.235C174.953 111.725 175.317 112.313 175.569 112.999C175.821 113.671 175.933 114.399 175.905 115.183L175.884 116.107H166.959L166.476 114.28H173.427L173.091 114.658V114.196C173.063 113.818 172.937 113.482 172.713 113.188C172.503 112.88 172.23 112.642 171.894 112.474C171.558 112.292 171.18 112.201 170.76 112.201C170.144 112.201 169.619 112.32 169.185 112.558C168.765 112.796 168.443 113.146 168.219 113.608C167.995 114.07 167.883 114.63 167.883 115.288C167.883 115.96 168.023 116.541 168.303 117.031C168.597 117.521 169.003 117.906 169.521 118.186C170.053 118.452 170.676 118.585 171.39 118.585C171.88 118.585 172.328 118.508 172.734 118.354C173.14 118.2 173.574 117.934 174.036 117.556L175.464 119.551C175.058 119.915 174.61 120.223 174.12 120.475C173.63 120.713 173.126 120.895 172.608 121.021C172.09 121.147 171.579 121.21 171.075 121.21ZM178.088 121V109.891H180.965L181.028 112.012L180.587 112.096C180.741 111.732 180.944 111.403 181.196 111.109C181.462 110.815 181.763 110.563 182.099 110.353C182.435 110.143 182.792 109.982 183.17 109.87C183.548 109.744 183.926 109.681 184.304 109.681C184.878 109.681 185.396 109.772 185.858 109.954C186.32 110.136 186.712 110.423 187.034 110.815C187.356 111.193 187.608 111.697 187.79 112.327L187.328 112.285L187.475 111.949C187.657 111.613 187.888 111.305 188.168 111.025C188.448 110.745 188.763 110.507 189.113 110.311C189.463 110.115 189.827 109.961 190.205 109.849C190.583 109.737 190.954 109.681 191.318 109.681C192.186 109.681 192.907 109.856 193.481 110.206C194.055 110.542 194.482 111.053 194.762 111.739C195.056 112.425 195.203 113.265 195.203 114.259V121H192.221V114.469C192.221 113.965 192.151 113.552 192.011 113.23C191.871 112.908 191.668 112.67 191.402 112.516C191.136 112.348 190.793 112.264 190.373 112.264C190.051 112.264 189.75 112.32 189.47 112.432C189.204 112.53 188.966 112.677 188.756 112.873C188.56 113.055 188.406 113.279 188.294 113.545C188.182 113.797 188.126 114.07 188.126 114.364V121H185.123V114.448C185.123 113.986 185.053 113.594 184.913 113.272C184.773 112.936 184.57 112.684 184.304 112.516C184.038 112.348 183.709 112.264 183.317 112.264C182.995 112.264 182.694 112.32 182.414 112.432C182.148 112.53 181.917 112.677 181.721 112.873C181.525 113.055 181.371 113.272 181.259 113.524C181.147 113.776 181.091 114.049 181.091 114.343V121H178.088ZM198.043 125.62V109.891H200.92L201.004 112.39L200.458 112.201C200.556 111.753 200.794 111.34 201.172 110.962C201.564 110.584 202.047 110.276 202.621 110.038C203.195 109.8 203.797 109.681 204.427 109.681C205.393 109.681 206.254 109.933 207.01 110.437C207.766 110.927 208.361 111.606 208.795 112.474C209.229 113.328 209.446 114.315 209.446 115.435C209.446 116.541 209.229 117.528 208.795 118.396C208.361 119.264 207.766 119.95 207.01 120.454C206.254 120.944 205.393 121.189 204.427 121.189C203.783 121.189 203.167 121.07 202.579 120.832C202.005 120.58 201.515 120.251 201.109 119.845C200.717 119.439 200.465 119.005 200.353 118.543L201.046 118.249V125.62H198.043ZM203.755 118.627C204.301 118.627 204.784 118.494 205.204 118.228C205.624 117.962 205.953 117.591 206.191 117.115C206.429 116.625 206.548 116.065 206.548 115.435C206.548 114.805 206.429 114.252 206.191 113.776C205.953 113.3 205.624 112.929 205.204 112.663C204.798 112.397 204.315 112.264 203.755 112.264C203.195 112.264 202.705 112.397 202.285 112.663C201.865 112.915 201.536 113.286 201.298 113.776C201.06 114.252 200.941 114.805 200.941 115.435C200.941 116.065 201.06 116.625 201.298 117.115C201.536 117.591 201.865 117.962 202.285 118.228C202.705 118.494 203.195 118.627 203.755 118.627ZM211.722 121V105.46H214.704V121H211.722ZM221.683 121.21C220.759 121.21 219.926 120.958 219.184 120.454C218.442 119.95 217.854 119.264 217.42 118.396C216.986 117.528 216.769 116.534 216.769 115.414C216.769 114.294 216.986 113.3 217.42 112.432C217.868 111.564 218.47 110.885 219.226 110.395C219.982 109.905 220.843 109.66 221.809 109.66C222.355 109.66 222.852 109.744 223.3 109.912C223.762 110.066 224.161 110.283 224.497 110.563C224.847 110.843 225.141 111.165 225.379 111.529C225.617 111.893 225.785 112.285 225.883 112.705L225.253 112.6V109.891H228.214V121H225.211V118.333L225.883 118.27C225.771 118.662 225.589 119.033 225.337 119.383C225.085 119.733 224.77 120.048 224.392 120.328C224.028 120.594 223.615 120.811 223.153 120.979C222.691 121.133 222.201 121.21 221.683 121.21ZM222.502 118.627C223.062 118.627 223.552 118.494 223.972 118.228C224.392 117.962 224.714 117.591 224.938 117.115C225.176 116.625 225.295 116.058 225.295 115.414C225.295 114.784 225.176 114.231 224.938 113.755C224.714 113.279 224.392 112.908 223.972 112.642C223.552 112.362 223.062 112.222 222.502 112.222C221.956 112.222 221.473 112.362 221.053 112.642C220.647 112.908 220.325 113.279 220.087 113.755C219.849 114.231 219.73 114.784 219.73 115.414C219.73 116.058 219.849 116.625 220.087 117.115C220.325 117.591 220.647 117.962 221.053 118.228C221.473 118.494 221.956 118.627 222.502 118.627ZM232.275 121V107.077H235.257V121H232.275ZM230.196 112.558V109.891H237.546V112.558H230.196ZM244.637 121.21C243.433 121.21 242.376 120.965 241.466 120.475C240.57 119.985 239.87 119.313 239.366 118.459C238.876 117.605 238.631 116.625 238.631 115.519C238.631 114.651 238.771 113.86 239.051 113.146C239.331 112.432 239.723 111.816 240.227 111.298C240.731 110.766 241.326 110.36 242.012 110.08C242.712 109.786 243.468 109.639 244.28 109.639C245.036 109.639 245.736 109.779 246.38 110.059C247.024 110.339 247.577 110.731 248.039 111.235C248.515 111.725 248.879 112.313 249.131 112.999C249.383 113.671 249.495 114.399 249.467 115.183L249.446 116.107H240.521L240.038 114.28H246.989L246.653 114.658V114.196C246.625 113.818 246.499 113.482 246.275 113.188C246.065 112.88 245.792 112.642 245.456 112.474C245.12 112.292 244.742 112.201 244.322 112.201C243.706 112.201 243.181 112.32 242.747 112.558C242.327 112.796 242.005 113.146 241.781 113.608C241.557 114.07 241.445 114.63 241.445 115.288C241.445 115.96 241.585 116.541 241.865 117.031C242.159 117.521 242.565 117.906 243.083 118.186C243.615 118.452 244.238 118.585 244.952 118.585C245.442 118.585 245.89 118.508 246.296 118.354C246.702 118.2 247.136 117.934 247.598 117.556L249.026 119.551C248.62 119.915 248.172 120.223 247.682 120.475C247.192 120.713 246.688 120.895 246.17 121.021C245.652 121.147 245.141 121.21 244.637 121.21ZM255.409 121.21C254.373 121.21 253.449 121.042 252.637 120.706C251.839 120.356 251.195 119.88 250.705 119.278L252.574 117.682C252.994 118.144 253.47 118.48 254.002 118.69C254.534 118.886 255.066 118.984 255.598 118.984C255.808 118.984 255.997 118.963 256.165 118.921C256.347 118.865 256.501 118.795 256.627 118.711C256.753 118.613 256.844 118.501 256.9 118.375C256.97 118.235 257.005 118.088 257.005 117.934C257.005 117.626 256.879 117.388 256.627 117.22C256.487 117.136 256.27 117.045 255.976 116.947C255.682 116.835 255.304 116.716 254.842 116.59C254.128 116.408 253.519 116.198 253.015 115.96C252.525 115.708 252.133 115.428 251.839 115.12C251.587 114.826 251.391 114.511 251.251 114.175C251.125 113.825 251.062 113.44 251.062 113.02C251.062 112.516 251.174 112.061 251.398 111.655C251.622 111.235 251.93 110.878 252.322 110.584C252.728 110.29 253.19 110.066 253.708 109.912C254.226 109.744 254.772 109.66 255.346 109.66C255.92 109.66 256.48 109.73 257.026 109.87C257.572 110.01 258.076 110.213 258.538 110.479C259.014 110.731 259.427 111.032 259.777 111.382L258.181 113.146C257.929 112.908 257.642 112.691 257.32 112.495C257.012 112.299 256.69 112.145 256.354 112.033C256.018 111.921 255.717 111.865 255.451 111.865C255.213 111.865 254.996 111.886 254.8 111.928C254.618 111.97 254.464 112.04 254.338 112.138C254.212 112.222 254.114 112.327 254.044 112.453C253.988 112.579 253.96 112.719 253.96 112.873C253.96 113.027 253.995 113.174 254.065 113.314C254.149 113.454 254.261 113.573 254.401 113.671C254.555 113.755 254.779 113.853 255.073 113.965C255.381 114.077 255.794 114.203 256.312 114.343C256.984 114.525 257.551 114.728 258.013 114.952C258.489 115.176 258.867 115.435 259.147 115.729C259.385 115.981 259.56 116.268 259.672 116.59C259.784 116.912 259.84 117.269 259.84 117.661C259.84 118.347 259.644 118.956 259.252 119.488C258.874 120.02 258.349 120.44 257.677 120.748C257.005 121.056 256.249 121.21 255.409 121.21Z" fill="black"/>
<rect x="83.5" y="142.5" width="314" height="61" rx="8.5" stroke="#C4C4C4" stroke-dasharray="7 7"/>
<path d="M104.55 179.09C103.74 179.09 103.015 178.915 102.375 178.565C101.735 178.205 101.23 177.715 100.86 177.095C100.5 176.465 100.32 175.755 100.32 174.965V168.485H101.94V174.83C101.94 175.34 102.06 175.8 102.3 176.21C102.54 176.61 102.855 176.93 103.245 177.17C103.645 177.41 104.08 177.53 104.55 177.53C105.05 177.53 105.5 177.41 105.9 177.17C106.31 176.93 106.635 176.61 106.875 176.21C107.115 175.8 107.235 175.34 107.235 174.83V168.485H108.78V174.965C108.78 175.755 108.595 176.465 108.225 177.095C107.865 177.715 107.365 178.205 106.725 178.565C106.085 178.915 105.36 179.09 104.55 179.09ZM111.184 182.3V171.125H112.744V172.925L112.504 172.79C112.564 172.49 112.734 172.205 113.014 171.935C113.294 171.655 113.634 171.43 114.034 171.26C114.444 171.08 114.864 170.99 115.294 170.99C116.004 170.99 116.634 171.165 117.184 171.515C117.734 171.865 118.169 172.345 118.489 172.955C118.809 173.565 118.969 174.265 118.969 175.055C118.969 175.835 118.809 176.535 118.489 177.155C118.179 177.765 117.749 178.25 117.199 178.61C116.649 178.96 116.029 179.135 115.339 179.135C114.879 179.135 114.434 179.045 114.004 178.865C113.574 178.675 113.209 178.435 112.909 178.145C112.609 177.855 112.424 177.555 112.354 177.245L112.744 177.035V182.3H111.184ZM115.084 177.71C115.544 177.71 115.954 177.595 116.314 177.365C116.674 177.135 116.959 176.82 117.169 176.42C117.379 176.02 117.484 175.565 117.484 175.055C117.484 174.545 117.379 174.095 117.169 173.705C116.969 173.305 116.689 172.99 116.329 172.76C115.969 172.53 115.554 172.415 115.084 172.415C114.614 172.415 114.199 172.53 113.839 172.76C113.479 172.98 113.194 173.29 112.984 173.69C112.774 174.09 112.669 174.545 112.669 175.055C112.669 175.565 112.774 176.02 112.984 176.42C113.194 176.82 113.479 177.135 113.839 177.365C114.199 177.595 114.614 177.71 115.084 177.71ZM120.676 179V167.9H122.221V179H120.676ZM127.805 179.15C127.035 179.15 126.345 178.975 125.735 178.625C125.135 178.265 124.66 177.78 124.31 177.17C123.96 176.55 123.785 175.845 123.785 175.055C123.785 174.265 123.96 173.565 124.31 172.955C124.66 172.335 125.135 171.85 125.735 171.5C126.345 171.14 127.035 170.96 127.805 170.96C128.565 170.96 129.245 171.14 129.845 171.5C130.455 171.85 130.935 172.335 131.285 172.955C131.635 173.565 131.81 174.265 131.81 175.055C131.81 175.845 131.635 176.55 131.285 177.17C130.935 177.78 130.455 178.265 129.845 178.625C129.245 178.975 128.565 179.15 127.805 179.15ZM127.805 177.74C128.275 177.74 128.695 177.625 129.065 177.395C129.435 177.155 129.725 176.835 129.935 176.435C130.145 176.025 130.245 175.565 130.235 175.055C130.245 174.535 130.145 174.075 129.935 173.675C129.725 173.265 129.435 172.945 129.065 172.715C128.695 172.485 128.275 172.37 127.805 172.37C127.335 172.37 126.91 172.49 126.53 172.73C126.16 172.96 125.87 173.28 125.66 173.69C125.45 174.09 125.35 174.545 125.36 175.055C125.35 175.565 125.45 176.025 125.66 176.435C125.87 176.835 126.16 177.155 126.53 177.395C126.91 177.625 127.335 177.74 127.805 177.74ZM136.523 179.15C135.873 179.15 135.278 178.97 134.738 178.61C134.208 178.25 133.783 177.76 133.463 177.14C133.143 176.52 132.983 175.82 132.983 175.04C132.983 174.25 133.143 173.55 133.463 172.94C133.793 172.32 134.233 171.835 134.783 171.485C135.343 171.135 135.968 170.96 136.658 170.96C137.068 170.96 137.443 171.02 137.783 171.14C138.123 171.26 138.418 171.43 138.668 171.65C138.928 171.86 139.138 172.105 139.298 172.385C139.468 172.665 139.573 172.965 139.613 173.285L139.268 173.165V171.125H140.828V179H139.268V177.125L139.628 177.02C139.568 177.29 139.443 177.555 139.253 177.815C139.073 178.065 138.838 178.29 138.548 178.49C138.268 178.69 137.953 178.85 137.603 178.97C137.263 179.09 136.903 179.15 136.523 179.15ZM136.928 177.725C137.398 177.725 137.813 177.61 138.173 177.38C138.533 177.15 138.813 176.835 139.013 176.435C139.223 176.025 139.328 175.56 139.328 175.04C139.328 174.53 139.223 174.075 139.013 173.675C138.813 173.275 138.533 172.96 138.173 172.73C137.813 172.5 137.398 172.385 136.928 172.385C136.468 172.385 136.058 172.5 135.698 172.73C135.348 172.96 135.068 173.275 134.858 173.675C134.658 174.075 134.558 174.53 134.558 175.04C134.558 175.56 134.658 176.025 134.858 176.435C135.068 176.835 135.348 177.15 135.698 177.38C136.058 177.61 136.468 177.725 136.928 177.725ZM146.27 179.15C145.55 179.15 144.905 178.975 144.335 178.625C143.775 178.265 143.33 177.78 143 177.17C142.67 176.55 142.505 175.845 142.505 175.055C142.505 174.265 142.665 173.565 142.985 172.955C143.315 172.335 143.76 171.85 144.32 171.5C144.88 171.14 145.515 170.96 146.225 170.96C146.615 170.96 146.99 171.025 147.35 171.155C147.72 171.275 148.05 171.445 148.34 171.665C148.63 171.875 148.855 172.11 149.015 172.37C149.185 172.62 149.27 172.875 149.27 173.135L148.82 173.165V167.9H150.365V179H148.82V177.125H149.12C149.12 177.365 149.04 177.605 148.88 177.845C148.72 178.075 148.505 178.29 148.235 178.49C147.975 178.69 147.67 178.85 147.32 178.97C146.98 179.09 146.63 179.15 146.27 179.15ZM146.48 177.815C146.95 177.815 147.365 177.695 147.725 177.455C148.085 177.215 148.365 176.89 148.565 176.48C148.775 176.06 148.88 175.585 148.88 175.055C148.88 174.525 148.775 174.055 148.565 173.645C148.365 173.225 148.085 172.895 147.725 172.655C147.365 172.415 146.95 172.295 146.48 172.295C146.01 172.295 145.595 172.415 145.235 172.655C144.875 172.895 144.59 173.225 144.38 173.645C144.18 174.055 144.08 174.525 144.08 175.055C144.08 175.585 144.18 176.06 144.38 176.48C144.59 176.89 144.875 177.215 145.235 177.455C145.595 177.695 146.01 177.815 146.48 177.815ZM157.086 179V168.5H158.706V179H157.086ZM157.806 174.53V172.97H163.221V174.53H157.806ZM157.806 170.06V168.5H163.896V170.06H157.806ZM165.75 179V167.9H167.295V179H165.75ZM172.878 179.15C172.108 179.15 171.418 178.975 170.808 178.625C170.208 178.265 169.733 177.78 169.383 177.17C169.033 176.55 168.858 175.845 168.858 175.055C168.858 174.265 169.033 173.565 169.383 172.955C169.733 172.335 170.208 171.85 170.808 171.5C171.418 171.14 172.108 170.96 172.878 170.96C173.638 170.96 174.318 171.14 174.918 171.5C175.528 171.85 176.008 172.335 176.358 172.955C176.708 173.565 176.883 174.265 176.883 175.055C176.883 175.845 176.708 176.55 176.358 177.17C176.008 177.78 175.528 178.265 174.918 178.625C174.318 178.975 173.638 179.15 172.878 179.15ZM172.878 177.74C173.348 177.74 173.768 177.625 174.138 177.395C174.508 177.155 174.798 176.835 175.008 176.435C175.218 176.025 175.318 175.565 175.308 175.055C175.318 174.535 175.218 174.075 175.008 173.675C174.798 173.265 174.508 172.945 174.138 172.715C173.768 172.485 173.348 172.37 172.878 172.37C172.408 172.37 171.983 172.49 171.603 172.73C171.233 172.96 170.943 173.28 170.733 173.69C170.523 174.09 170.423 174.545 170.433 175.055C170.423 175.565 170.523 176.025 170.733 176.435C170.943 176.835 171.233 177.155 171.603 177.395C171.983 177.625 172.408 177.74 172.878 177.74ZM182.106 179.15C181.336 179.15 180.646 178.975 180.036 178.625C179.436 178.265 178.961 177.78 178.611 177.17C178.261 176.55 178.086 175.845 178.086 175.055C178.086 174.265 178.261 173.565 178.611 172.955C178.961 172.335 179.436 171.85 180.036 171.5C180.646 171.14 181.336 170.96 182.106 170.96C182.866 170.96 183.546 171.14 184.146 171.5C184.756 171.85 185.236 172.335 185.586 172.955C185.936 173.565 186.111 174.265 186.111 175.055C186.111 175.845 185.936 176.55 185.586 177.17C185.236 177.78 184.756 178.265 184.146 178.625C183.546 178.975 182.866 179.15 182.106 179.15ZM182.106 177.74C182.576 177.74 182.996 177.625 183.366 177.395C183.736 177.155 184.026 176.835 184.236 176.435C184.446 176.025 184.546 175.565 184.536 175.055C184.546 174.535 184.446 174.075 184.236 173.675C184.026 173.265 183.736 172.945 183.366 172.715C182.996 172.485 182.576 172.37 182.106 172.37C181.636 172.37 181.211 172.49 180.831 172.73C180.461 172.96 180.171 173.28 179.961 173.69C179.751 174.09 179.651 174.545 179.661 175.055C179.651 175.565 179.751 176.025 179.961 176.435C180.171 176.835 180.461 177.155 180.831 177.395C181.211 177.625 181.636 177.74 182.106 177.74ZM187.795 179V171.125H189.355V173.6L189.205 173C189.315 172.62 189.5 172.275 189.76 171.965C190.03 171.655 190.335 171.41 190.675 171.23C191.025 171.05 191.385 170.96 191.755 170.96C191.925 170.96 192.085 170.975 192.235 171.005C192.395 171.035 192.52 171.07 192.61 171.11L192.205 172.79C192.085 172.74 191.95 172.7 191.8 172.67C191.66 172.63 191.52 172.61 191.38 172.61C191.11 172.61 190.85 172.665 190.6 172.775C190.36 172.875 190.145 173.02 189.955 173.21C189.775 173.39 189.63 173.605 189.52 173.855C189.41 174.095 189.355 174.36 189.355 174.65V179H187.795ZM198.439 179V168.5H202.714C203.284 168.5 203.799 168.645 204.259 168.935C204.729 169.215 205.104 169.6 205.384 170.09C205.664 170.58 205.804 171.125 205.804 171.725C205.804 172.325 205.664 172.87 205.384 173.36C205.104 173.85 204.729 174.245 204.259 174.545C203.799 174.835 203.284 174.98 202.714 174.98H200.059V179H198.439ZM200.059 173.42H202.684C202.954 173.42 203.199 173.345 203.419 173.195C203.639 173.035 203.814 172.83 203.944 172.58C204.084 172.32 204.154 172.035 204.154 171.725C204.154 171.415 204.084 171.135 203.944 170.885C203.814 170.635 203.639 170.435 203.419 170.285C203.199 170.135 202.954 170.06 202.684 170.06H200.059V173.42ZM207.586 179V167.9H209.131V179H207.586ZM214.204 179.15C213.554 179.15 212.959 178.97 212.419 178.61C211.889 178.25 211.464 177.76 211.144 177.14C210.824 176.52 210.664 175.82 210.664 175.04C210.664 174.25 210.824 173.55 211.144 172.94C211.474 172.32 211.914 171.835 212.464 171.485C213.024 171.135 213.649 170.96 214.339 170.96C214.749 170.96 215.124 171.02 215.464 171.14C215.804 171.26 216.099 171.43 216.349 171.65C216.609 171.86 216.819 172.105 216.979 172.385C217.149 172.665 217.254 172.965 217.294 173.285L216.949 173.165V171.125H218.509V179H216.949V177.125L217.309 177.02C217.249 177.29 217.124 177.555 216.934 177.815C216.754 178.065 216.519 178.29 216.229 178.49C215.949 178.69 215.634 178.85 215.284 178.97C214.944 179.09 214.584 179.15 214.204 179.15ZM214.609 177.725C215.079 177.725 215.494 177.61 215.854 177.38C216.214 177.15 216.494 176.835 216.694 176.435C216.904 176.025 217.009 175.56 217.009 175.04C217.009 174.53 216.904 174.075 216.694 173.675C216.494 173.275 216.214 172.96 215.854 172.73C215.494 172.5 215.079 172.385 214.609 172.385C214.149 172.385 213.739 172.5 213.379 172.73C213.029 172.96 212.749 173.275 212.539 173.675C212.339 174.075 212.239 174.53 212.239 175.04C212.239 175.56 212.339 176.025 212.539 176.435C212.749 176.835 213.029 177.15 213.379 177.38C213.739 177.61 214.149 177.725 214.609 177.725ZM220.666 179V171.125H222.211V172.745L221.941 172.925C222.041 172.575 222.236 172.255 222.526 171.965C222.816 171.665 223.161 171.425 223.561 171.245C223.961 171.055 224.371 170.96 224.791 170.96C225.391 170.96 225.891 171.08 226.291 171.32C226.691 171.55 226.991 171.905 227.191 172.385C227.391 172.865 227.491 173.47 227.491 174.2V179H225.946V174.305C225.946 173.855 225.886 173.485 225.766 173.195C225.646 172.895 225.461 172.68 225.211 172.55C224.961 172.41 224.651 172.35 224.281 172.37C223.981 172.37 223.706 172.42 223.456 172.52C223.206 172.61 222.986 172.74 222.796 172.91C222.616 173.08 222.471 173.28 222.361 173.51C222.261 173.73 222.211 173.97 222.211 174.23V179H221.446C221.316 179 221.186 179 221.056 179C220.926 179 220.796 179 220.666 179Z" fill="#C4C4C4"/>
<path d="M375.55 169.756L379.906 165.916V177.656C379.906 177.985 380.172 178.25 380.5 178.25C380.828 178.25 381.094 177.985 381.094 177.656V165.916L385.45 169.787C385.562 169.89 385.703 169.938 385.844 169.938C386.007 169.938 386.171 169.871 386.288 169.738C386.506 169.494 386.483 169.118 386.238 168.9L380.894 164.15C380.669 163.95 380.331 163.95 380.106 164.15L374.762 168.9C374.517 169.118 374.494 169.492 374.711 169.737C374.928 169.982 375.308 170.005 375.55 169.756ZM387.625 175.875H383.469C383.141 175.875 382.875 176.141 382.875 176.469C382.875 176.797 383.141 177.063 383.469 177.063H387.625C388.281 177.063 388.812 177.594 388.812 178.25V180.625C388.812 181.281 388.281 181.813 387.625 181.813H373.375C372.719 181.813 372.188 181.281 372.188 180.625V178.25C372.188 177.594 372.719 177.063 373.375 177.063H377.531C377.858 177.063 378.125 176.795 378.125 176.469C378.125 176.142 377.858 175.875 377.531 175.875H373.375C372.063 175.875 371 176.938 371 178.25V180.625C371 181.937 372.063 183 373.375 183H387.625C388.937 183 390 181.937 390 180.625V178.25C390 176.94 388.935 175.875 387.625 175.875ZM387.328 179.438C387.328 178.946 386.929 178.547 386.438 178.547C385.946 178.547 385.547 178.946 385.547 179.438C385.547 179.929 385.946 180.328 386.438 180.328C386.929 180.328 387.328 179.931 387.328 179.438Z" fill="black"/>
<rect x="83.75" y="225.75" width="313.5" height="145.5" rx="8.25" fill="white" stroke="#EAF37E" stroke-width="1.5"/>
<path d="M107.98 245V238H110.96C111.36 238 111.727 238.1 112.06 238.3C112.4 238.493 112.67 238.76 112.87 239.1C113.07 239.433 113.17 239.81 113.17 240.23C113.17 240.61 113.07 240.963 112.87 241.29C112.67 241.617 112.403 241.88 112.07 242.08C111.737 242.273 111.367 242.37 110.96 242.37H109.06V245H107.98ZM112.14 245L110.36 241.84L111.47 241.59L113.45 245.01L112.14 245ZM109.06 241.33H111.06C111.253 241.33 111.427 241.283 111.58 241.19C111.733 241.09 111.853 240.957 111.94 240.79C112.027 240.617 112.07 240.427 112.07 240.22C112.07 239.987 112.013 239.783 111.9 239.61C111.793 239.43 111.64 239.29 111.44 239.19C111.247 239.09 111.027 239.04 110.78 239.04H109.06V241.33ZM114.843 245V239.75H115.873V245H114.843ZM115.343 238.59C115.123 238.59 114.953 238.533 114.833 238.42C114.713 238.307 114.653 238.147 114.653 237.94C114.653 237.747 114.713 237.59 114.833 237.47C114.96 237.35 115.13 237.29 115.343 237.29C115.563 237.29 115.733 237.347 115.853 237.46C115.973 237.573 116.033 237.733 116.033 237.94C116.033 238.133 115.97 238.29 115.843 238.41C115.723 238.53 115.556 238.59 115.343 238.59ZM119.476 245.1C119.043 245.1 118.646 244.98 118.286 244.74C117.933 244.5 117.65 244.173 117.436 243.76C117.223 243.347 117.116 242.88 117.116 242.36C117.116 241.833 117.223 241.367 117.436 240.96C117.656 240.547 117.95 240.223 118.316 239.99C118.69 239.757 119.106 239.64 119.566 239.64C119.84 239.64 120.09 239.68 120.316 239.76C120.543 239.84 120.74 239.953 120.906 240.1C121.08 240.24 121.22 240.403 121.326 240.59C121.44 240.777 121.51 240.977 121.536 241.19L121.306 241.11V239.75H122.346V245H121.306V243.75L121.546 243.68C121.506 243.86 121.423 244.037 121.296 244.21C121.176 244.377 121.02 244.527 120.826 244.66C120.64 244.793 120.43 244.9 120.196 244.98C119.97 245.06 119.73 245.1 119.476 245.1ZM119.746 244.15C120.06 244.15 120.336 244.073 120.576 243.92C120.816 243.767 121.003 243.557 121.136 243.29C121.276 243.017 121.346 242.707 121.346 242.36C121.346 242.02 121.276 241.717 121.136 241.45C121.003 241.183 120.816 240.973 120.576 240.82C120.336 240.667 120.06 240.59 119.746 240.59C119.44 240.59 119.166 240.667 118.926 240.82C118.693 240.973 118.506 241.183 118.366 241.45C118.233 241.717 118.166 242.02 118.166 242.36C118.166 242.707 118.233 243.017 118.366 243.29C118.506 243.557 118.693 243.767 118.926 243.92C119.166 244.073 119.44 244.15 119.746 244.15ZM123.51 245L126.22 238H127.32L130.01 245H128.86L127.26 240.78C127.24 240.733 127.2 240.62 127.14 240.44C127.086 240.26 127.023 240.06 126.95 239.84C126.876 239.62 126.81 239.42 126.75 239.24C126.69 239.053 126.65 238.933 126.63 238.88L126.86 238.87C126.82 238.983 126.77 239.127 126.71 239.3C126.656 239.473 126.596 239.657 126.53 239.85C126.47 240.043 126.41 240.227 126.35 240.4C126.29 240.567 126.24 240.707 126.2 240.82L124.61 245H123.51ZM124.71 243.26L125.11 242.22H128.29L128.75 243.26H124.71ZM130.982 245V244H132.112V239H130.982V238H134.322V239H133.192V244H134.322V245H130.982ZM138.09 245L140.8 238H141.9L144.59 245H143.44L141.84 240.78C141.82 240.733 141.78 240.62 141.72 240.44C141.667 240.26 141.603 240.06 141.53 239.84C141.457 239.62 141.39 239.42 141.33 239.24C141.27 239.053 141.23 238.933 141.21 238.88L141.44 238.87C141.4 238.983 141.35 239.127 141.29 239.3C141.237 239.473 141.177 239.657 141.11 239.85C141.05 240.043 140.99 240.227 140.93 240.4C140.87 240.567 140.82 240.707 140.78 240.82L139.19 245H138.09ZM139.29 243.26L139.69 242.22H142.87L143.33 243.26H139.29ZM147.304 245.1C146.931 245.1 146.604 245.013 146.324 244.84C146.051 244.667 145.837 244.423 145.684 244.11C145.537 243.797 145.464 243.423 145.464 242.99V239.75H146.494V242.71C146.494 243.017 146.541 243.283 146.634 243.51C146.734 243.73 146.874 243.9 147.054 244.02C147.241 244.14 147.464 244.2 147.724 244.2C147.917 244.2 148.094 244.17 148.254 244.11C148.414 244.043 148.551 243.953 148.664 243.84C148.784 243.727 148.877 243.59 148.944 243.43C149.011 243.27 149.044 243.097 149.044 242.91V239.75H150.074V245H149.044V243.9L149.224 243.78C149.144 244.027 149.007 244.25 148.814 244.45C148.627 244.65 148.404 244.81 148.144 244.93C147.884 245.043 147.604 245.1 147.304 245.1ZM152.169 245V238.41H153.199V245H152.169ZM151.079 240.75V239.75H154.419V240.75H151.079ZM157.668 245.1C157.155 245.1 156.695 244.983 156.288 244.75C155.888 244.51 155.571 244.187 155.338 243.78C155.105 243.367 154.988 242.897 154.988 242.37C154.988 241.843 155.105 241.377 155.338 240.97C155.571 240.557 155.888 240.233 156.288 240C156.695 239.76 157.155 239.64 157.668 239.64C158.175 239.64 158.628 239.76 159.028 240C159.435 240.233 159.755 240.557 159.988 240.97C160.221 241.377 160.338 241.843 160.338 242.37C160.338 242.897 160.221 243.367 159.988 243.78C159.755 244.187 159.435 244.51 159.028 244.75C158.628 244.983 158.175 245.1 157.668 245.1ZM157.668 244.16C157.981 244.16 158.261 244.083 158.508 243.93C158.755 243.77 158.948 243.557 159.088 243.29C159.228 243.017 159.295 242.71 159.288 242.37C159.295 242.023 159.228 241.717 159.088 241.45C158.948 241.177 158.755 240.963 158.508 240.81C158.261 240.657 157.981 240.58 157.668 240.58C157.355 240.58 157.071 240.66 156.818 240.82C156.571 240.973 156.378 241.187 156.238 241.46C156.098 241.727 156.031 242.03 156.038 242.37C156.031 242.71 156.098 243.017 156.238 243.29C156.378 243.557 156.571 243.77 156.818 243.93C157.071 244.083 157.355 244.16 157.668 244.16ZM161.44 245V239.75H162.48V240.87L162.29 240.99C162.344 240.817 162.427 240.65 162.54 240.49C162.66 240.33 162.804 240.19 162.97 240.07C163.144 239.943 163.327 239.843 163.52 239.77C163.72 239.697 163.924 239.66 164.13 239.66C164.43 239.66 164.694 239.71 164.92 239.81C165.147 239.91 165.334 240.06 165.48 240.26C165.627 240.46 165.734 240.71 165.8 241.01L165.64 240.97L165.71 240.8C165.784 240.647 165.884 240.503 166.01 240.37C166.144 240.23 166.294 240.107 166.46 240C166.627 239.893 166.804 239.81 166.99 239.75C167.177 239.69 167.36 239.66 167.54 239.66C167.934 239.66 168.257 239.74 168.51 239.9C168.77 240.06 168.964 240.303 169.09 240.63C169.224 240.957 169.29 241.363 169.29 241.85V245H168.25V241.91C168.25 241.61 168.21 241.367 168.13 241.18C168.057 240.987 167.944 240.843 167.79 240.75C167.637 240.657 167.44 240.61 167.2 240.61C167.014 240.61 166.837 240.643 166.67 240.71C166.51 240.77 166.37 240.857 166.25 240.97C166.13 241.083 166.037 241.217 165.97 241.37C165.904 241.517 165.87 241.68 165.87 241.86V245H164.83V241.89C164.83 241.617 164.79 241.387 164.71 241.2C164.63 241.007 164.514 240.86 164.36 240.76C164.207 240.66 164.02 240.61 163.8 240.61C163.614 240.61 163.44 240.643 163.28 240.71C163.12 240.77 162.98 240.857 162.86 240.97C162.74 241.077 162.647 241.207 162.58 241.36C162.514 241.507 162.48 241.667 162.48 241.84V245H161.44ZM172.689 245.1C172.256 245.1 171.859 244.98 171.499 244.74C171.146 244.5 170.863 244.173 170.649 243.76C170.436 243.347 170.329 242.88 170.329 242.36C170.329 241.833 170.436 241.367 170.649 240.96C170.869 240.547 171.163 240.223 171.529 239.99C171.903 239.757 172.319 239.64 172.779 239.64C173.053 239.64 173.303 239.68 173.529 239.76C173.756 239.84 173.953 239.953 174.119 240.1C174.293 240.24 174.433 240.403 174.539 240.59C174.653 240.777 174.723 240.977 174.749 241.19L174.519 241.11V239.75H175.559V245H174.519V243.75L174.759 243.68C174.719 243.86 174.636 244.037 174.509 244.21C174.389 244.377 174.233 244.527 174.039 244.66C173.853 244.793 173.643 244.9 173.409 244.98C173.183 245.06 172.943 245.1 172.689 245.1ZM172.959 244.15C173.273 244.15 173.549 244.073 173.789 243.92C174.029 243.767 174.216 243.557 174.349 243.29C174.489 243.017 174.559 242.707 174.559 242.36C174.559 242.02 174.489 241.717 174.349 241.45C174.216 241.183 174.029 240.973 173.789 240.82C173.549 240.667 173.273 240.59 172.959 240.59C172.653 240.59 172.379 240.667 172.139 240.82C171.906 240.973 171.719 241.183 171.579 241.45C171.446 241.717 171.379 242.02 171.379 242.36C171.379 242.707 171.446 243.017 171.579 243.29C171.719 243.557 171.906 243.767 172.139 243.92C172.379 244.073 172.653 244.15 172.959 244.15ZM177.647 245V238.41H178.677V245H177.647ZM176.557 240.75V239.75H179.897V240.75H176.557ZM183.236 245.1C182.696 245.1 182.216 244.987 181.796 244.76C181.383 244.527 181.056 244.21 180.816 243.81C180.583 243.41 180.466 242.95 180.466 242.43C180.466 242.017 180.533 241.64 180.666 241.3C180.8 240.96 180.983 240.667 181.216 240.42C181.456 240.167 181.74 239.973 182.066 239.84C182.4 239.7 182.76 239.63 183.146 239.63C183.486 239.63 183.803 239.697 184.096 239.83C184.39 239.957 184.643 240.133 184.856 240.36C185.076 240.587 185.243 240.857 185.356 241.17C185.476 241.477 185.533 241.813 185.526 242.18L185.516 242.62H181.226L180.996 241.8H184.626L184.476 241.97V241.73C184.456 241.51 184.383 241.313 184.256 241.14C184.13 240.967 183.97 240.83 183.776 240.73C183.583 240.63 183.373 240.58 183.146 240.58C182.786 240.58 182.483 240.65 182.236 240.79C181.99 240.923 181.803 241.123 181.676 241.39C181.55 241.65 181.486 241.973 181.486 242.36C181.486 242.727 181.563 243.047 181.716 243.32C181.87 243.587 182.086 243.793 182.366 243.94C182.646 244.087 182.97 244.16 183.336 244.16C183.596 244.16 183.836 244.117 184.056 244.03C184.283 243.943 184.526 243.787 184.786 243.56L185.306 244.29C185.146 244.45 184.95 244.59 184.716 244.71C184.49 244.83 184.246 244.927 183.986 245C183.733 245.067 183.483 245.1 183.236 245.1ZM188.836 245.1C188.356 245.1 187.926 244.983 187.546 244.75C187.172 244.51 186.876 244.187 186.656 243.78C186.436 243.367 186.326 242.897 186.326 242.37C186.326 241.843 186.432 241.377 186.646 240.97C186.866 240.557 187.162 240.233 187.536 240C187.909 239.76 188.332 239.64 188.806 239.64C189.066 239.64 189.316 239.683 189.556 239.77C189.802 239.85 190.022 239.963 190.216 240.11C190.409 240.25 190.559 240.407 190.666 240.58C190.779 240.747 190.836 240.917 190.836 241.09L190.536 241.11V237.6H191.566V245H190.536V243.75H190.736C190.736 243.91 190.682 244.07 190.576 244.23C190.469 244.383 190.326 244.527 190.146 244.66C189.972 244.793 189.769 244.9 189.536 244.98C189.309 245.06 189.076 245.1 188.836 245.1ZM188.976 244.21C189.289 244.21 189.566 244.13 189.806 243.97C190.046 243.81 190.232 243.593 190.366 243.32C190.506 243.04 190.576 242.723 190.576 242.37C190.576 242.017 190.506 241.703 190.366 241.43C190.232 241.15 190.046 240.93 189.806 240.77C189.566 240.61 189.289 240.53 188.976 240.53C188.662 240.53 188.386 240.61 188.146 240.77C187.906 240.93 187.716 241.15 187.576 241.43C187.442 241.703 187.376 242.017 187.376 242.37C187.376 242.723 187.442 243.04 187.576 243.32C187.716 243.593 187.906 243.81 188.146 243.97C188.386 244.13 188.662 244.21 188.976 244.21ZM198.886 245.1C198.4 245.1 197.953 245.013 197.546 244.84C197.14 244.667 196.786 244.42 196.486 244.1C196.186 243.773 195.953 243.39 195.786 242.95C195.626 242.51 195.546 242.027 195.546 241.5C195.546 241 195.633 240.537 195.806 240.11C195.986 239.677 196.233 239.297 196.546 238.97C196.86 238.643 197.223 238.39 197.636 238.21C198.05 238.03 198.496 237.94 198.976 237.94C199.316 237.94 199.646 237.993 199.966 238.1C200.293 238.2 200.586 238.343 200.846 238.53C201.113 238.71 201.33 238.917 201.496 239.15L200.776 239.9C200.583 239.707 200.386 239.547 200.186 239.42C199.993 239.287 199.793 239.187 199.586 239.12C199.386 239.053 199.183 239.02 198.976 239.02C198.65 239.02 198.343 239.083 198.056 239.21C197.776 239.33 197.53 239.5 197.316 239.72C197.11 239.94 196.946 240.203 196.826 240.51C196.706 240.81 196.646 241.14 196.646 241.5C196.646 241.88 196.703 242.227 196.816 242.54C196.936 242.847 197.103 243.11 197.316 243.33C197.53 243.55 197.783 243.72 198.076 243.84C198.376 243.953 198.706 244.01 199.066 244.01C199.286 244.01 199.503 243.98 199.716 243.92C199.93 243.86 200.13 243.773 200.316 243.66C200.503 243.547 200.673 243.413 200.826 243.26L201.366 244.14C201.213 244.32 201.003 244.483 200.736 244.63C200.476 244.777 200.183 244.893 199.856 244.98C199.536 245.06 199.213 245.1 198.886 245.1ZM202.574 245V239.75H203.614V241.4L203.514 241C203.587 240.747 203.71 240.517 203.884 240.31C204.064 240.103 204.267 239.94 204.494 239.82C204.727 239.7 204.967 239.64 205.214 239.64C205.327 239.64 205.434 239.65 205.534 239.67C205.64 239.69 205.724 239.713 205.784 239.74L205.514 240.86C205.434 240.827 205.344 240.8 205.244 240.78C205.15 240.753 205.057 240.74 204.964 240.74C204.784 240.74 204.61 240.777 204.444 240.85C204.284 240.917 204.14 241.013 204.014 241.14C203.894 241.26 203.797 241.403 203.724 241.57C203.65 241.73 203.614 241.907 203.614 242.1V245H202.574ZM208.832 245.1C208.292 245.1 207.812 244.987 207.392 244.76C206.979 244.527 206.652 244.21 206.412 243.81C206.179 243.41 206.062 242.95 206.062 242.43C206.062 242.017 206.129 241.64 206.262 241.3C206.395 240.96 206.579 240.667 206.812 240.42C207.052 240.167 207.335 239.973 207.662 239.84C207.995 239.7 208.355 239.63 208.742 239.63C209.082 239.63 209.399 239.697 209.692 239.83C209.985 239.957 210.239 240.133 210.452 240.36C210.672 240.587 210.839 240.857 210.952 241.17C211.072 241.477 211.129 241.813 211.122 242.18L211.112 242.62H206.822L206.592 241.8H210.222L210.072 241.97V241.73C210.052 241.51 209.979 241.313 209.852 241.14C209.725 240.967 209.565 240.83 209.372 240.73C209.179 240.63 208.969 240.58 208.742 240.58C208.382 240.58 208.079 240.65 207.832 240.79C207.585 240.923 207.399 241.123 207.272 241.39C207.145 241.65 207.082 241.973 207.082 242.36C207.082 242.727 207.159 243.047 207.312 243.32C207.465 243.587 207.682 243.793 207.962 243.94C208.242 244.087 208.565 244.16 208.932 244.16C209.192 244.16 209.432 244.117 209.652 244.03C209.879 243.943 210.122 243.787 210.382 243.56L210.902 244.29C210.742 244.45 210.545 244.59 210.312 244.71C210.085 244.83 209.842 244.927 209.582 245C209.329 245.067 209.079 245.1 208.832 245.1ZM214.261 245.1C213.828 245.1 213.431 244.98 213.071 244.74C212.718 244.5 212.435 244.173 212.221 243.76C212.008 243.347 211.901 242.88 211.901 242.36C211.901 241.833 212.008 241.367 212.221 240.96C212.441 240.547 212.735 240.223 213.101 239.99C213.475 239.757 213.891 239.64 214.351 239.64C214.625 239.64 214.875 239.68 215.101 239.76C215.328 239.84 215.525 239.953 215.691 240.1C215.865 240.24 216.005 240.403 216.111 240.59C216.225 240.777 216.295 240.977 216.321 241.19L216.091 241.11V239.75H217.131V245H216.091V243.75L216.331 243.68C216.291 243.86 216.208 244.037 216.081 244.21C215.961 244.377 215.805 244.527 215.611 244.66C215.425 244.793 215.215 244.9 214.981 244.98C214.755 245.06 214.515 245.1 214.261 245.1ZM214.531 244.15C214.845 244.15 215.121 244.073 215.361 243.92C215.601 243.767 215.788 243.557 215.921 243.29C216.061 243.017 216.131 242.707 216.131 242.36C216.131 242.02 216.061 241.717 215.921 241.45C215.788 241.183 215.601 240.973 215.361 240.82C215.121 240.667 214.845 240.59 214.531 240.59C214.225 240.59 213.951 240.667 213.711 240.82C213.478 240.973 213.291 241.183 213.151 241.45C213.018 241.717 212.951 242.02 212.951 242.36C212.951 242.707 213.018 243.017 213.151 243.29C213.291 243.557 213.478 243.767 213.711 243.92C213.951 244.073 214.225 244.15 214.531 244.15ZM219.22 245V238.41H220.25V245H219.22ZM218.13 240.75V239.75H221.47V240.75H218.13ZM222.578 245V239.75H223.608V245H222.578ZM223.078 238.59C222.858 238.59 222.688 238.533 222.568 238.42C222.448 238.307 222.388 238.147 222.388 237.94C222.388 237.747 222.448 237.59 222.568 237.47C222.694 237.35 222.864 237.29 223.078 237.29C223.298 237.29 223.468 237.347 223.588 237.46C223.708 237.573 223.768 237.733 223.768 237.94C223.768 238.133 223.704 238.29 223.578 238.41C223.458 238.53 223.291 238.59 223.078 238.59ZM227.551 245.1C227.037 245.1 226.577 244.983 226.171 244.75C225.771 244.51 225.454 244.187 225.221 243.78C224.987 243.367 224.871 242.897 224.871 242.37C224.871 241.843 224.987 241.377 225.221 240.97C225.454 240.557 225.771 240.233 226.171 240C226.577 239.76 227.037 239.64 227.551 239.64C228.057 239.64 228.511 239.76 228.911 240C229.317 240.233 229.637 240.557 229.871 240.97C230.104 241.377 230.221 241.843 230.221 242.37C230.221 242.897 230.104 243.367 229.871 243.78C229.637 244.187 229.317 244.51 228.911 244.75C228.511 244.983 228.057 245.1 227.551 245.1ZM227.551 244.16C227.864 244.16 228.144 244.083 228.391 243.93C228.637 243.77 228.831 243.557 228.971 243.29C229.111 243.017 229.177 242.71 229.171 242.37C229.177 242.023 229.111 241.717 228.971 241.45C228.831 241.177 228.637 240.963 228.391 240.81C228.144 240.657 227.864 240.58 227.551 240.58C227.237 240.58 226.954 240.66 226.701 240.82C226.454 240.973 226.261 241.187 226.121 241.46C225.981 241.727 225.914 242.03 225.921 242.37C225.914 242.71 225.981 243.017 226.121 243.29C226.261 243.557 226.454 243.77 226.701 243.93C226.954 244.083 227.237 244.16 227.551 244.16ZM231.343 245V239.75H232.373V240.83L232.193 240.95C232.26 240.717 232.39 240.503 232.583 240.31C232.776 240.11 233.006 239.95 233.273 239.83C233.54 239.703 233.813 239.64 234.093 239.64C234.493 239.64 234.826 239.72 235.093 239.88C235.36 240.033 235.56 240.27 235.693 240.59C235.826 240.91 235.893 241.313 235.893 241.8V245H234.863V241.87C234.863 241.57 234.823 241.323 234.743 241.13C234.663 240.93 234.54 240.787 234.373 240.7C234.206 240.607 234 240.567 233.753 240.58C233.553 240.58 233.37 240.613 233.203 240.68C233.036 240.74 232.89 240.827 232.763 240.94C232.643 241.053 232.546 241.187 232.473 241.34C232.406 241.487 232.373 241.647 232.373 241.82V245H231.863C231.776 245 231.69 245 231.603 245C231.516 245 231.43 245 231.343 245Z" fill="#3833E3"/>
<path d="M98.7411 235.251C98.8276 235.173 98.9376 235.127 99.0537 235.119C99.1697 235.111 99.285 235.142 99.3812 235.208C99.4773 235.273 99.5488 235.369 99.5841 235.48C99.6194 235.59 99.6166 235.71 99.5761 235.819L98.1541 239.797H100.439C100.555 239.794 100.669 239.826 100.766 239.89C100.863 239.954 100.937 240.046 100.98 240.154C101.023 240.262 101.032 240.38 101.005 240.493C100.978 240.606 100.918 240.708 100.831 240.785L95.2791 245.685C95.1925 245.761 95.0831 245.806 94.968 245.814C94.8529 245.821 94.7386 245.79 94.6433 245.725C94.5479 245.66 94.4767 245.565 94.441 245.456C94.4053 245.346 94.4071 245.227 94.4461 245.119L95.8691 241.134H93.5401C93.4307 241.134 93.3238 241.101 93.2336 241.039C93.1435 240.977 93.0743 240.889 93.0353 240.787C92.9964 240.685 92.9894 240.573 93.0155 240.467C93.0415 240.36 93.0993 240.265 93.1811 240.192L98.7411 235.251Z" fill="#3833E3"/>
<rect x="104" y="264" width="270" height="7" rx="3.5" fill="#E4E6EA"/>
<rect x="104" y="279" width="246" height="7" rx="3.5" fill="#E4E6EA"/>
<rect x="104" y="294" width="235" height="7" rx="3.5" fill="#E4E6EA"/>
<rect x="104" y="309" width="267" height="7" rx="3.5" fill="#E4E6EA"/>
<rect x="104" y="324" width="249" height="7" rx="3.5" fill="#E4E6EA"/>
<rect x="104" y="339" width="258" height="7" rx="3.5" fill="#E4E6EA"/>
<rect x="93.25" y="254.25" width="294.5" height="104.5" rx="3.75" stroke="#E4E6EA" stroke-width="0.5"/>
<rect x="83" y="390" width="315" height="41" rx="6" fill="#0900FF"/>
<path d="M209.572 417.14C208.853 417.14 208.191 417.019 207.584 416.776C206.987 416.524 206.464 416.174 206.016 415.726C205.577 415.269 205.237 414.732 204.994 414.116C204.751 413.491 204.63 412.809 204.63 412.072C204.63 411.353 204.756 410.691 205.008 410.084C205.26 409.468 205.615 408.936 206.072 408.488C206.529 408.031 207.066 407.676 207.682 407.424C208.298 407.172 208.965 407.046 209.684 407.046C210.151 407.046 210.608 407.111 211.056 407.242C211.513 407.363 211.929 407.545 212.302 407.788C212.685 408.031 213.011 408.32 213.282 408.656L211.966 410.112C211.751 409.888 211.523 409.697 211.28 409.538C211.037 409.37 210.781 409.244 210.51 409.16C210.249 409.067 209.969 409.02 209.67 409.02C209.269 409.02 208.891 409.095 208.536 409.244C208.191 409.393 207.887 409.603 207.626 409.874C207.365 410.135 207.155 410.457 206.996 410.84C206.847 411.213 206.772 411.629 206.772 412.086C206.772 412.553 206.847 412.977 206.996 413.36C207.145 413.733 207.355 414.055 207.626 414.326C207.897 414.587 208.219 414.793 208.592 414.942C208.975 415.082 209.395 415.152 209.852 415.152C210.151 415.152 210.44 415.11 210.72 415.026C211 414.942 211.257 414.825 211.49 414.676C211.733 414.527 211.947 414.354 212.134 414.158L213.17 415.796C212.937 416.048 212.629 416.277 212.246 416.482C211.873 416.687 211.453 416.851 210.986 416.972C210.519 417.084 210.048 417.14 209.572 417.14ZM217.194 417.14C216.653 417.14 216.186 417.023 215.794 416.79C215.412 416.547 215.113 416.207 214.898 415.768C214.693 415.32 214.59 414.783 214.59 414.158V409.594H216.578V413.836C216.578 414.172 216.634 414.466 216.746 414.718C216.858 414.961 217.017 415.147 217.222 415.278C217.428 415.409 217.68 415.474 217.978 415.474C218.193 415.474 218.389 415.441 218.566 415.376C218.753 415.301 218.912 415.199 219.042 415.068C219.182 414.937 219.29 414.783 219.364 414.606C219.439 414.429 219.476 414.237 219.476 414.032V409.594H221.464V417H219.574L219.504 415.474L219.868 415.306C219.756 415.651 219.57 415.964 219.308 416.244C219.047 416.524 218.734 416.743 218.37 416.902C218.006 417.061 217.614 417.14 217.194 417.14ZM225.957 417.14C225.266 417.14 224.65 417.028 224.109 416.804C223.577 416.571 223.147 416.253 222.821 415.852L224.067 414.788C224.347 415.096 224.664 415.32 225.019 415.46C225.373 415.591 225.728 415.656 226.083 415.656C226.223 415.656 226.349 415.642 226.461 415.614C226.582 415.577 226.685 415.53 226.769 415.474C226.853 415.409 226.913 415.334 226.951 415.25C226.997 415.157 227.021 415.059 227.021 414.956C227.021 414.751 226.937 414.592 226.769 414.48C226.675 414.424 226.531 414.363 226.335 414.298C226.139 414.223 225.887 414.144 225.579 414.06C225.103 413.939 224.697 413.799 224.361 413.64C224.034 413.472 223.773 413.285 223.577 413.08C223.409 412.884 223.278 412.674 223.185 412.45C223.101 412.217 223.059 411.96 223.059 411.68C223.059 411.344 223.133 411.041 223.283 410.77C223.432 410.49 223.637 410.252 223.899 410.056C224.169 409.86 224.477 409.711 224.823 409.608C225.168 409.496 225.532 409.44 225.915 409.44C226.297 409.44 226.671 409.487 227.035 409.58C227.399 409.673 227.735 409.809 228.043 409.986C228.36 410.154 228.635 410.355 228.869 410.588L227.805 411.764C227.637 411.605 227.445 411.461 227.231 411.33C227.025 411.199 226.811 411.097 226.587 411.022C226.363 410.947 226.162 410.91 225.985 410.91C225.826 410.91 225.681 410.924 225.551 410.952C225.429 410.98 225.327 411.027 225.243 411.092C225.159 411.148 225.093 411.218 225.047 411.302C225.009 411.386 224.991 411.479 224.991 411.582C224.991 411.685 225.014 411.783 225.061 411.876C225.117 411.969 225.191 412.049 225.285 412.114C225.387 412.17 225.537 412.235 225.733 412.31C225.938 412.385 226.213 412.469 226.559 412.562C227.007 412.683 227.385 412.819 227.693 412.968C228.01 413.117 228.262 413.29 228.449 413.486C228.607 413.654 228.724 413.845 228.799 414.06C228.873 414.275 228.911 414.513 228.911 414.774C228.911 415.231 228.78 415.637 228.519 415.992C228.267 416.347 227.917 416.627 227.469 416.832C227.021 417.037 226.517 417.14 225.957 417.14ZM231.042 417V407.718H233.03V417H231.042ZM229.656 411.372V409.594H234.556V411.372H229.656ZM239.213 417.14C238.457 417.14 237.781 416.977 237.183 416.65C236.595 416.314 236.129 415.857 235.783 415.278C235.447 414.699 235.279 414.037 235.279 413.29C235.279 412.543 235.447 411.881 235.783 411.302C236.129 410.723 236.595 410.271 237.183 409.944C237.781 409.608 238.457 409.44 239.213 409.44C239.96 409.44 240.627 409.608 241.215 409.944C241.813 410.271 242.279 410.723 242.615 411.302C242.951 411.881 243.119 412.543 243.119 413.29C243.119 414.037 242.951 414.699 242.615 415.278C242.279 415.857 241.813 416.314 241.215 416.65C240.627 416.977 239.96 417.14 239.213 417.14ZM239.213 415.404C239.577 415.404 239.904 415.315 240.193 415.138C240.483 414.951 240.707 414.699 240.865 414.382C241.033 414.055 241.113 413.691 241.103 413.29C241.113 412.879 241.033 412.515 240.865 412.198C240.707 411.871 240.483 411.619 240.193 411.442C239.904 411.255 239.577 411.162 239.213 411.162C238.84 411.162 238.509 411.255 238.219 411.442C237.93 411.629 237.701 411.881 237.533 412.198C237.365 412.515 237.286 412.879 237.295 413.29C237.286 413.691 237.365 414.055 237.533 414.382C237.701 414.699 237.93 414.951 238.219 415.138C238.509 415.315 238.84 415.404 239.213 415.404ZM244.615 417V409.594H246.533L246.575 411.008L246.281 411.064C246.383 410.821 246.519 410.602 246.687 410.406C246.864 410.21 247.065 410.042 247.289 409.902C247.513 409.762 247.751 409.655 248.003 409.58C248.255 409.496 248.507 409.454 248.759 409.454C249.141 409.454 249.487 409.515 249.795 409.636C250.103 409.757 250.364 409.949 250.579 410.21C250.793 410.462 250.961 410.798 251.083 411.218L250.775 411.19L250.873 410.966C250.994 410.742 251.148 410.537 251.335 410.35C251.521 410.163 251.731 410.005 251.965 409.874C252.198 409.743 252.441 409.641 252.693 409.566C252.945 409.491 253.192 409.454 253.435 409.454C254.013 409.454 254.494 409.571 254.877 409.804C255.259 410.028 255.544 410.369 255.731 410.826C255.927 411.283 256.025 411.843 256.025 412.506V417H254.037V412.646C254.037 412.31 253.99 412.035 253.897 411.82C253.803 411.605 253.668 411.447 253.491 411.344C253.313 411.232 253.085 411.176 252.805 411.176C252.59 411.176 252.389 411.213 252.203 411.288C252.025 411.353 251.867 411.451 251.727 411.582C251.596 411.703 251.493 411.853 251.419 412.03C251.344 412.198 251.307 412.38 251.307 412.576V417H249.305V412.632C249.305 412.324 249.258 412.063 249.165 411.848C249.071 411.624 248.936 411.456 248.759 411.344C248.581 411.232 248.362 411.176 248.101 411.176C247.886 411.176 247.685 411.213 247.499 411.288C247.321 411.353 247.167 411.451 247.037 411.582C246.906 411.703 246.803 411.848 246.729 412.016C246.654 412.184 246.617 412.366 246.617 412.562V417H244.615ZM258.086 417V409.594H260.074V417H258.086ZM259.066 408.082C258.683 408.082 258.384 407.989 258.17 407.802C257.955 407.606 257.848 407.335 257.848 406.99C257.848 406.673 257.955 406.416 258.17 406.22C258.394 406.015 258.692 405.912 259.066 405.912C259.448 405.912 259.747 406.01 259.962 406.206C260.176 406.393 260.284 406.654 260.284 406.99C260.284 407.307 260.172 407.569 259.948 407.774C259.733 407.979 259.439 408.082 259.066 408.082ZM261.903 417V415.74L265.809 410.672V411.232H261.903V409.594H267.811V410.882L264.073 415.824L264.017 415.362H267.909V417H261.903ZM272.985 417.14C272.182 417.14 271.477 416.977 270.871 416.65C270.273 416.323 269.807 415.875 269.471 415.306C269.144 414.737 268.981 414.083 268.981 413.346C268.981 412.767 269.074 412.24 269.261 411.764C269.447 411.288 269.709 410.877 270.045 410.532C270.381 410.177 270.777 409.907 271.235 409.72C271.701 409.524 272.205 409.426 272.747 409.426C273.251 409.426 273.717 409.519 274.147 409.706C274.576 409.893 274.945 410.154 275.253 410.49C275.57 410.817 275.813 411.209 275.981 411.666C276.149 412.114 276.223 412.599 276.205 413.122L276.191 413.738H270.241L269.919 412.52H274.553L274.329 412.772V412.464C274.31 412.212 274.226 411.988 274.077 411.792C273.937 411.587 273.755 411.428 273.531 411.316C273.307 411.195 273.055 411.134 272.775 411.134C272.364 411.134 272.014 411.213 271.725 411.372C271.445 411.531 271.23 411.764 271.081 412.072C270.931 412.38 270.857 412.753 270.857 413.192C270.857 413.64 270.95 414.027 271.137 414.354C271.333 414.681 271.603 414.937 271.949 415.124C272.303 415.301 272.719 415.39 273.195 415.39C273.521 415.39 273.82 415.339 274.091 415.236C274.361 415.133 274.651 414.956 274.959 414.704L275.911 416.034C275.64 416.277 275.341 416.482 275.015 416.65C274.688 416.809 274.352 416.93 274.007 417.014C273.661 417.098 273.321 417.14 272.985 417.14Z" fill="white"/>
</svg>
