<svg width="480" height="540" viewBox="0 0 480 540" fill="none" xmlns="http://www.w3.org/2000/svg">
<g clip-path="url(#clip0_143_177)">
<path d="M85 76H396C405.389 76 413 83.6112 413 93V447C413 456.389 405.389 464 396 464H85C75.6111 464 68 456.389 68 447V93C68 83.6112 75.6111 76 85 76Z" fill="#F1F5F7"/>
<path d="M84.911 121V106.3H87.788L93.143 115.015L91.253 114.994L96.671 106.3H99.422V121H96.335V115.96C96.335 114.7 96.363 113.566 96.419 112.558C96.489 111.55 96.601 110.549 96.755 109.555L97.133 110.542L92.828 117.22H91.442L87.221 110.584L87.578 109.555C87.732 110.493 87.837 111.459 87.893 112.453C87.963 113.433 87.998 114.602 87.998 115.96V121H84.911ZM106.647 121.21C105.835 121.21 105.135 121.035 104.547 120.685C103.973 120.321 103.525 119.81 103.203 119.152C102.895 118.48 102.741 117.675 102.741 116.737V109.891H105.723V116.254C105.723 116.758 105.807 117.199 105.975 117.577C106.143 117.941 106.381 118.221 106.689 118.417C106.997 118.613 107.375 118.711 107.823 118.711C108.145 118.711 108.439 118.662 108.705 118.564C108.985 118.452 109.223 118.298 109.419 118.102C109.629 117.906 109.79 117.675 109.902 117.409C110.014 117.143 110.07 116.856 110.07 116.548V109.891H113.052V121H110.217L110.112 118.711L110.658 118.459C110.49 118.977 110.21 119.446 109.818 119.866C109.426 120.286 108.957 120.615 108.411 120.853C107.865 121.091 107.277 121.21 106.647 121.21ZM116.074 121V105.46H119.056V121H116.074ZM123.091 121V107.077H126.073V121H123.091ZM121.012 112.558V109.891H128.362V112.558H121.012ZM130.537 121V109.891H133.519V121H130.537ZM132.007 107.623C131.433 107.623 130.985 107.483 130.663 107.203C130.341 106.909 130.18 106.503 130.18 105.985C130.18 105.509 130.341 105.124 130.663 104.83C130.999 104.522 131.447 104.368 132.007 104.368C132.581 104.368 133.029 104.515 133.351 104.809C133.673 105.089 133.834 105.481 133.834 105.985C133.834 106.461 133.666 106.853 133.33 107.161C133.008 107.469 132.567 107.623 132.007 107.623ZM143.563 121V106.3H146.713V118.165H153.37V121H143.563ZM156.131 121V109.891H159.113V121H156.131ZM157.601 107.623C157.027 107.623 156.579 107.483 156.257 107.203C155.935 106.909 155.774 106.503 155.774 105.985C155.774 105.509 155.935 105.124 156.257 104.83C156.593 104.522 157.041 104.368 157.601 104.368C158.175 104.368 158.623 104.515 158.945 104.809C159.267 105.089 159.428 105.481 159.428 105.985C159.428 106.461 159.26 106.853 158.924 107.161C158.602 107.469 158.161 107.623 157.601 107.623ZM162.298 121V109.891H165.154L165.238 112.159L164.65 112.411C164.804 111.907 165.077 111.452 165.469 111.046C165.875 110.626 166.358 110.29 166.918 110.038C167.478 109.786 168.066 109.66 168.682 109.66C169.522 109.66 170.222 109.828 170.782 110.164C171.356 110.5 171.783 111.011 172.063 111.697C172.357 112.369 172.504 113.202 172.504 114.196V121H169.522V114.427C169.522 113.923 169.452 113.503 169.312 113.167C169.172 112.831 168.955 112.586 168.661 112.432C168.381 112.278 168.031 112.208 167.611 112.222C167.275 112.222 166.96 112.278 166.666 112.39C166.386 112.488 166.141 112.635 165.931 112.831C165.735 113.027 165.574 113.251 165.448 113.503C165.336 113.755 165.28 114.028 165.28 114.322V121H163.81C163.488 121 163.201 121 162.949 121C162.697 121 162.48 121 162.298 121ZM180.632 121.21C179.428 121.21 178.371 120.965 177.461 120.475C176.565 119.985 175.865 119.313 175.361 118.459C174.871 117.605 174.626 116.625 174.626 115.519C174.626 114.651 174.766 113.86 175.046 113.146C175.326 112.432 175.718 111.816 176.222 111.298C176.726 110.766 177.321 110.36 178.007 110.08C178.707 109.786 179.463 109.639 180.275 109.639C181.031 109.639 181.731 109.779 182.375 110.059C183.019 110.339 183.572 110.731 184.034 111.235C184.51 111.725 184.874 112.313 185.126 112.999C185.378 113.671 185.49 114.399 185.462 115.183L185.441 116.107H176.516L176.033 114.28H182.984L182.648 114.658V114.196C182.62 113.818 182.494 113.482 182.27 113.188C182.06 112.88 181.787 112.642 181.451 112.474C181.115 112.292 180.737 112.201 180.317 112.201C179.701 112.201 179.176 112.32 178.742 112.558C178.322 112.796 178 113.146 177.776 113.608C177.552 114.07 177.44 114.63 177.44 115.288C177.44 115.96 177.58 116.541 177.86 117.031C178.154 117.521 178.56 117.906 179.078 118.186C179.61 118.452 180.233 118.585 180.947 118.585C181.437 118.585 181.885 118.508 182.291 118.354C182.697 118.2 183.131 117.934 183.593 117.556L185.021 119.551C184.615 119.915 184.167 120.223 183.677 120.475C183.187 120.713 182.683 120.895 182.165 121.021C181.647 121.147 181.136 121.21 180.632 121.21ZM194.147 121V118.291H196.604V109.009H194.147V106.3H202.211V109.009H199.754V118.291H202.211V121H194.147ZM205.241 121V109.891H208.097L208.181 112.159L207.593 112.411C207.747 111.907 208.02 111.452 208.412 111.046C208.818 110.626 209.301 110.29 209.861 110.038C210.421 109.786 211.009 109.66 211.625 109.66C212.465 109.66 213.165 109.828 213.725 110.164C214.299 110.5 214.726 111.011 215.006 111.697C215.3 112.369 215.447 113.202 215.447 114.196V121H212.465V114.427C212.465 113.923 212.395 113.503 212.255 113.167C212.115 112.831 211.898 112.586 211.604 112.432C211.324 112.278 210.974 112.208 210.554 112.222C210.218 112.222 209.903 112.278 209.609 112.39C209.329 112.488 209.084 112.635 208.874 112.831C208.678 113.027 208.517 113.251 208.391 113.503C208.279 113.755 208.223 114.028 208.223 114.322V121H206.753C206.431 121 206.144 121 205.892 121C205.64 121 205.423 121 205.241 121ZM221.79 121L217.128 109.891H220.404L223.365 118.186L222.672 118.312L225.78 109.891H228.972L224.079 121H221.79ZM235.652 121.21C234.518 121.21 233.503 120.965 232.607 120.475C231.725 119.971 231.025 119.285 230.507 118.417C230.003 117.549 229.751 116.555 229.751 115.435C229.751 114.315 230.003 113.321 230.507 112.453C231.025 111.585 231.725 110.906 232.607 110.416C233.503 109.912 234.518 109.66 235.652 109.66C236.772 109.66 237.773 109.912 238.655 110.416C239.551 110.906 240.251 111.585 240.755 112.453C241.259 113.321 241.511 114.315 241.511 115.435C241.511 116.555 241.259 117.549 240.755 118.417C240.251 119.285 239.551 119.971 238.655 120.475C237.773 120.965 236.772 121.21 235.652 121.21ZM235.652 118.606C236.198 118.606 236.688 118.473 237.122 118.207C237.556 117.927 237.892 117.549 238.13 117.073C238.382 116.583 238.501 116.037 238.487 115.435C238.501 114.819 238.382 114.273 238.13 113.797C237.892 113.307 237.556 112.929 237.122 112.663C236.688 112.383 236.198 112.243 235.652 112.243C235.092 112.243 234.595 112.383 234.161 112.663C233.727 112.943 233.384 113.321 233.132 113.797C232.88 114.273 232.761 114.819 232.775 115.435C232.761 116.037 232.88 116.583 233.132 117.073C233.384 117.549 233.727 117.927 234.161 118.207C234.595 118.473 235.092 118.606 235.652 118.606ZM244.027 121V109.891H247.009V121H244.027ZM245.497 107.623C244.923 107.623 244.475 107.483 244.153 107.203C243.831 106.909 243.67 106.503 243.67 105.985C243.67 105.509 243.831 105.124 244.153 104.83C244.489 104.522 244.937 104.368 245.497 104.368C246.071 104.368 246.519 104.515 246.841 104.809C247.163 105.089 247.324 105.481 247.324 105.985C247.324 106.461 247.156 106.853 246.82 107.161C246.498 107.469 246.057 107.623 245.497 107.623ZM255.024 121.21C253.96 121.21 253.008 120.958 252.168 120.454C251.328 119.95 250.663 119.264 250.173 118.396C249.697 117.528 249.459 116.541 249.459 115.435C249.459 114.329 249.697 113.342 250.173 112.474C250.663 111.606 251.328 110.92 252.168 110.416C253.008 109.912 253.96 109.66 255.024 109.66C256.018 109.66 256.928 109.842 257.754 110.206C258.58 110.57 259.224 111.074 259.686 111.718L258.048 113.692C257.852 113.426 257.607 113.188 257.313 112.978C257.019 112.754 256.697 112.579 256.347 112.453C256.011 112.327 255.661 112.264 255.297 112.264C254.723 112.264 254.212 112.404 253.764 112.684C253.33 112.95 252.987 113.321 252.735 113.797C252.483 114.273 252.357 114.819 252.357 115.435C252.357 116.023 252.483 116.555 252.735 117.031C253.001 117.507 253.358 117.885 253.806 118.165C254.254 118.445 254.758 118.585 255.318 118.585C255.682 118.585 256.025 118.536 256.347 118.438C256.669 118.34 256.97 118.186 257.25 117.976C257.544 117.766 257.81 117.514 258.048 117.22L259.665 119.194C259.203 119.796 258.545 120.286 257.691 120.664C256.851 121.028 255.962 121.21 255.024 121.21ZM261.828 121V109.891H264.81V121H261.828ZM263.298 107.623C262.724 107.623 262.276 107.483 261.954 107.203C261.632 106.909 261.471 106.503 261.471 105.985C261.471 105.509 261.632 105.124 261.954 104.83C262.29 104.522 262.738 104.368 263.298 104.368C263.872 104.368 264.32 104.515 264.642 104.809C264.964 105.089 265.125 105.481 265.125 105.985C265.125 106.461 264.957 106.853 264.621 107.161C264.299 107.469 263.858 107.623 263.298 107.623ZM267.995 121V109.891H270.851L270.935 112.159L270.347 112.411C270.501 111.907 270.774 111.452 271.166 111.046C271.572 110.626 272.055 110.29 272.615 110.038C273.175 109.786 273.763 109.66 274.379 109.66C275.219 109.66 275.919 109.828 276.479 110.164C277.053 110.5 277.48 111.011 277.76 111.697C278.054 112.369 278.201 113.202 278.201 114.196V121H275.219V114.427C275.219 113.923 275.149 113.503 275.009 113.167C274.869 112.831 274.652 112.586 274.358 112.432C274.078 112.278 273.728 112.208 273.308 112.222C272.972 112.222 272.657 112.278 272.363 112.39C272.083 112.488 271.838 112.635 271.628 112.831C271.432 113.027 271.271 113.251 271.145 113.503C271.033 113.755 270.977 114.028 270.977 114.322V121H269.507C269.185 121 268.898 121 268.646 121C268.394 121 268.177 121 267.995 121ZM286.119 125.83C285.237 125.83 284.369 125.697 283.515 125.431C282.661 125.179 281.961 124.843 281.415 124.423L282.486 122.302C282.766 122.498 283.088 122.673 283.452 122.827C283.816 122.981 284.194 123.1 284.586 123.184C284.992 123.268 285.405 123.31 285.825 123.31C286.553 123.31 287.148 123.198 287.61 122.974C288.086 122.75 288.443 122.414 288.681 121.966C288.919 121.518 289.038 120.958 289.038 120.286V118.354L289.542 118.459C289.458 118.921 289.22 119.348 288.828 119.74C288.45 120.118 287.974 120.426 287.4 120.664C286.84 120.888 286.252 121 285.636 121C284.614 121 283.704 120.762 282.906 120.286C282.108 119.81 281.478 119.152 281.016 118.312C280.554 117.472 280.323 116.499 280.323 115.393C280.323 114.287 280.547 113.307 280.995 112.453C281.457 111.585 282.08 110.906 282.864 110.416C283.662 109.912 284.565 109.66 285.573 109.66C285.993 109.66 286.392 109.709 286.77 109.807C287.162 109.905 287.519 110.045 287.841 110.227C288.177 110.395 288.471 110.591 288.723 110.815C288.989 111.025 289.206 111.256 289.374 111.508C289.542 111.76 289.647 112.012 289.689 112.264L289.08 112.432L289.164 109.891H292.02V120.16C292.02 121.07 291.887 121.875 291.621 122.575C291.355 123.275 290.963 123.863 290.445 124.339C289.941 124.829 289.318 125.2 288.576 125.452C287.848 125.704 287.029 125.83 286.119 125.83ZM286.203 118.606C286.791 118.606 287.302 118.473 287.736 118.207C288.184 117.941 288.527 117.57 288.765 117.094C289.003 116.618 289.122 116.058 289.122 115.414C289.122 114.784 289.003 114.231 288.765 113.755C288.527 113.265 288.184 112.887 287.736 112.621C287.302 112.355 286.791 112.222 286.203 112.222C285.629 112.222 285.125 112.362 284.691 112.642C284.257 112.908 283.914 113.286 283.662 113.776C283.424 114.252 283.305 114.798 283.305 115.414C283.305 116.044 283.424 116.604 283.662 117.094C283.914 117.57 284.257 117.941 284.691 118.207C285.125 118.473 285.629 118.606 286.203 118.606Z" fill="black"/>
<rect x="83" y="136" width="154" height="62" rx="9" fill="white"/>
<rect x="83" y="208" width="154" height="62" rx="9" fill="white"/>
<rect x="244" y="136" width="154" height="62" rx="9" fill="white"/>
<rect x="244" y="208" width="154" height="62" rx="9" fill="white"/>
<path d="M95.31 156V150.04H93.35V149H98.41V150.04H96.39V156H95.31ZM100.846 156.1C100.332 156.1 99.8723 155.983 99.4656 155.75C99.0656 155.51 98.749 155.187 98.5156 154.78C98.2823 154.367 98.1656 153.897 98.1656 153.37C98.1656 152.843 98.2823 152.377 98.5156 151.97C98.749 151.557 99.0656 151.233 99.4656 151C99.8723 150.76 100.332 150.64 100.846 150.64C101.352 150.64 101.806 150.76 102.206 151C102.612 151.233 102.932 151.557 103.166 151.97C103.399 152.377 103.516 152.843 103.516 153.37C103.516 153.897 103.399 154.367 103.166 154.78C102.932 155.187 102.612 155.51 102.206 155.75C101.806 155.983 101.352 156.1 100.846 156.1ZM100.846 155.16C101.159 155.16 101.439 155.083 101.686 154.93C101.932 154.77 102.126 154.557 102.266 154.29C102.406 154.017 102.472 153.71 102.466 153.37C102.472 153.023 102.406 152.717 102.266 152.45C102.126 152.177 101.932 151.963 101.686 151.81C101.439 151.657 101.159 151.58 100.846 151.58C100.532 151.58 100.249 151.66 99.9956 151.82C99.749 151.973 99.5556 152.187 99.4156 152.46C99.2756 152.727 99.209 153.03 99.2156 153.37C99.209 153.71 99.2756 154.017 99.4156 154.29C99.5556 154.557 99.749 154.77 99.9956 154.93C100.249 155.083 100.532 155.16 100.846 155.16Z" fill="#3B3B3B"/>
<path d="M93.98 228V221H96.72C97.22 221 97.67 221.083 98.07 221.25C98.4767 221.417 98.8233 221.657 99.11 221.97C99.3967 222.283 99.6167 222.653 99.77 223.08C99.9233 223.507 100 223.98 100 224.5C100 225.02 99.9233 225.497 99.77 225.93C99.6167 226.357 99.3967 226.727 99.11 227.04C98.83 227.347 98.4867 227.583 98.08 227.75C97.6733 227.917 97.22 228 96.72 228H93.98ZM95.06 227.07L95.03 226.96H96.67C97.0233 226.96 97.3367 226.903 97.61 226.79C97.89 226.677 98.1233 226.517 98.31 226.31C98.5033 226.097 98.65 225.837 98.75 225.53C98.85 225.223 98.9 224.88 98.9 224.5C98.9 224.12 98.85 223.78 98.75 223.48C98.65 223.173 98.5033 222.913 98.31 222.7C98.1167 222.487 97.8833 222.323 97.61 222.21C97.3367 222.097 97.0233 222.04 96.67 222.04H95L95.06 221.95V227.07ZM103.04 228.1C102.667 228.1 102.34 228.013 102.06 227.84C101.787 227.667 101.574 227.423 101.42 227.11C101.274 226.797 101.2 226.423 101.2 225.99V222.75H102.23V225.71C102.23 226.017 102.277 226.283 102.37 226.51C102.47 226.73 102.61 226.9 102.79 227.02C102.977 227.14 103.2 227.2 103.46 227.2C103.654 227.2 103.83 227.17 103.99 227.11C104.15 227.043 104.287 226.953 104.4 226.84C104.52 226.727 104.614 226.59 104.68 226.43C104.747 226.27 104.78 226.097 104.78 225.91V222.75H105.81V228H104.78V226.9L104.96 226.78C104.88 227.027 104.744 227.25 104.55 227.45C104.364 227.65 104.14 227.81 103.88 227.93C103.62 228.043 103.34 228.1 103.04 228.1ZM109.705 228.1C109.165 228.1 108.685 227.987 108.265 227.76C107.852 227.527 107.525 227.21 107.285 226.81C107.052 226.41 106.935 225.95 106.935 225.43C106.935 225.017 107.002 224.64 107.135 224.3C107.268 223.96 107.452 223.667 107.685 223.42C107.925 223.167 108.208 222.973 108.535 222.84C108.868 222.7 109.228 222.63 109.615 222.63C109.955 222.63 110.272 222.697 110.565 222.83C110.858 222.957 111.112 223.133 111.325 223.36C111.545 223.587 111.712 223.857 111.825 224.17C111.945 224.477 112.002 224.813 111.995 225.18L111.985 225.62H107.695L107.465 224.8H111.095L110.945 224.97V224.73C110.925 224.51 110.852 224.313 110.725 224.14C110.598 223.967 110.438 223.83 110.245 223.73C110.052 223.63 109.842 223.58 109.615 223.58C109.255 223.58 108.952 223.65 108.705 223.79C108.458 223.923 108.272 224.123 108.145 224.39C108.018 224.65 107.955 224.973 107.955 225.36C107.955 225.727 108.032 226.047 108.185 226.32C108.338 226.587 108.555 226.793 108.835 226.94C109.115 227.087 109.438 227.16 109.805 227.16C110.065 227.16 110.305 227.117 110.525 227.03C110.752 226.943 110.995 226.787 111.255 226.56L111.775 227.29C111.615 227.45 111.418 227.59 111.185 227.71C110.958 227.83 110.715 227.927 110.455 228C110.202 228.067 109.952 228.1 109.705 228.1ZM116.177 228V221H118.917C119.417 221 119.867 221.083 120.267 221.25C120.674 221.417 121.021 221.657 121.307 221.97C121.594 222.283 121.814 222.653 121.967 223.08C122.121 223.507 122.197 223.98 122.197 224.5C122.197 225.02 122.121 225.497 121.967 225.93C121.814 226.357 121.594 226.727 121.307 227.04C121.027 227.347 120.684 227.583 120.277 227.75C119.871 227.917 119.417 228 118.917 228H116.177ZM117.257 227.07L117.227 226.96H118.867C119.221 226.96 119.534 226.903 119.807 226.79C120.087 226.677 120.321 226.517 120.507 226.31C120.701 226.097 120.847 225.837 120.947 225.53C121.047 225.223 121.097 224.88 121.097 224.5C121.097 224.12 121.047 223.78 120.947 223.48C120.847 223.173 120.701 222.913 120.507 222.7C120.314 222.487 120.081 222.323 119.807 222.21C119.534 222.097 119.221 222.04 118.867 222.04H117.197L117.257 221.95V227.07ZM125.418 228.1C124.984 228.1 124.588 227.98 124.228 227.74C123.874 227.5 123.591 227.173 123.378 226.76C123.164 226.347 123.058 225.88 123.058 225.36C123.058 224.833 123.164 224.367 123.378 223.96C123.598 223.547 123.891 223.223 124.258 222.99C124.631 222.757 125.048 222.64 125.508 222.64C125.781 222.64 126.031 222.68 126.258 222.76C126.484 222.84 126.681 222.953 126.848 223.1C127.021 223.24 127.161 223.403 127.268 223.59C127.381 223.777 127.451 223.977 127.478 224.19L127.248 224.11V222.75H128.288V228H127.248V226.75L127.488 226.68C127.448 226.86 127.364 227.037 127.238 227.21C127.118 227.377 126.961 227.527 126.768 227.66C126.581 227.793 126.371 227.9 126.138 227.98C125.911 228.06 125.671 228.1 125.418 228.1ZM125.688 227.15C126.001 227.15 126.278 227.073 126.518 226.92C126.758 226.767 126.944 226.557 127.078 226.29C127.218 226.017 127.288 225.707 127.288 225.36C127.288 225.02 127.218 224.717 127.078 224.45C126.944 224.183 126.758 223.973 126.518 223.82C126.278 223.667 126.001 223.59 125.688 223.59C125.381 223.59 125.108 223.667 124.868 223.82C124.634 223.973 124.448 224.183 124.308 224.45C124.174 224.717 124.108 225.02 124.108 225.36C124.108 225.707 124.174 226.017 124.308 226.29C124.448 226.557 124.634 226.767 124.868 226.92C125.108 227.073 125.381 227.15 125.688 227.15ZM130.376 228V221.41H131.406V228H130.376ZM129.286 223.75V222.75H132.626V223.75H129.286ZM135.965 228.1C135.425 228.1 134.945 227.987 134.525 227.76C134.112 227.527 133.785 227.21 133.545 226.81C133.312 226.41 133.195 225.95 133.195 225.43C133.195 225.017 133.262 224.64 133.395 224.3C133.528 223.96 133.712 223.667 133.945 223.42C134.185 223.167 134.468 222.973 134.795 222.84C135.128 222.7 135.488 222.63 135.875 222.63C136.215 222.63 136.532 222.697 136.825 222.83C137.118 222.957 137.372 223.133 137.585 223.36C137.805 223.587 137.972 223.857 138.085 224.17C138.205 224.477 138.262 224.813 138.255 225.18L138.245 225.62H133.955L133.725 224.8H137.355L137.205 224.97V224.73C137.185 224.51 137.112 224.313 136.985 224.14C136.858 223.967 136.698 223.83 136.505 223.73C136.312 223.63 136.102 223.58 135.875 223.58C135.515 223.58 135.212 223.65 134.965 223.79C134.718 223.923 134.532 224.123 134.405 224.39C134.278 224.65 134.215 224.973 134.215 225.36C134.215 225.727 134.292 226.047 134.445 226.32C134.598 226.587 134.815 226.793 135.095 226.94C135.375 227.087 135.698 227.16 136.065 227.16C136.325 227.16 136.565 227.117 136.785 227.03C137.012 226.943 137.255 226.787 137.515 226.56L138.035 227.29C137.875 227.45 137.678 227.59 137.445 227.71C137.218 227.83 136.975 227.927 136.715 228C136.462 228.067 136.212 228.1 135.965 228.1Z" fill="#3B3B3B"/>
<path d="M254.72 156V155H255.85V150H254.72V149H258.06V150H256.93V155H258.06V156H254.72ZM261.245 156.1C260.805 156.1 260.409 156.023 260.055 155.87C259.702 155.717 259.409 155.49 259.175 155.19L259.875 154.59C260.075 154.823 260.292 154.993 260.525 155.1C260.765 155.2 261.035 155.25 261.335 155.25C261.455 155.25 261.565 155.237 261.665 155.21C261.772 155.177 261.862 155.13 261.935 155.07C262.015 155.01 262.075 154.94 262.115 154.86C262.155 154.773 262.175 154.68 262.175 154.58C262.175 154.407 262.112 154.267 261.985 154.16C261.919 154.113 261.812 154.063 261.665 154.01C261.525 153.95 261.342 153.89 261.115 153.83C260.729 153.73 260.412 153.617 260.165 153.49C259.919 153.363 259.729 153.22 259.595 153.06C259.495 152.933 259.422 152.797 259.375 152.65C259.329 152.497 259.305 152.33 259.305 152.15C259.305 151.93 259.352 151.73 259.445 151.55C259.545 151.363 259.679 151.203 259.845 151.07C260.019 150.93 260.219 150.823 260.445 150.75C260.679 150.677 260.925 150.64 261.185 150.64C261.432 150.64 261.675 150.673 261.915 150.74C262.162 150.807 262.389 150.903 262.595 151.03C262.802 151.157 262.975 151.307 263.115 151.48L262.525 152.13C262.399 152.003 262.259 151.893 262.105 151.8C261.959 151.7 261.809 151.623 261.655 151.57C261.502 151.517 261.362 151.49 261.235 151.49C261.095 151.49 260.969 151.503 260.855 151.53C260.742 151.557 260.645 151.597 260.565 151.65C260.492 151.703 260.435 151.77 260.395 151.85C260.355 151.93 260.335 152.02 260.335 152.12C260.342 152.207 260.362 152.29 260.395 152.37C260.435 152.443 260.489 152.507 260.555 152.56C260.629 152.613 260.739 152.67 260.885 152.73C261.032 152.79 261.219 152.847 261.445 152.9C261.779 152.987 262.052 153.083 262.265 153.19C262.485 153.29 262.659 153.407 262.785 153.54C262.919 153.667 263.012 153.813 263.065 153.98C263.119 154.147 263.145 154.333 263.145 154.54C263.145 154.84 263.059 155.11 262.885 155.35C262.719 155.583 262.492 155.767 262.205 155.9C261.919 156.033 261.599 156.1 261.245 156.1ZM266.031 156.1C265.591 156.1 265.194 156.023 264.841 155.87C264.487 155.717 264.194 155.49 263.961 155.19L264.661 154.59C264.861 154.823 265.077 154.993 265.311 155.1C265.551 155.2 265.821 155.25 266.121 155.25C266.241 155.25 266.351 155.237 266.451 155.21C266.557 155.177 266.647 155.13 266.721 155.07C266.801 155.01 266.861 154.94 266.901 154.86C266.941 154.773 266.961 154.68 266.961 154.58C266.961 154.407 266.897 154.267 266.771 154.16C266.704 154.113 266.597 154.063 266.451 154.01C266.311 153.95 266.127 153.89 265.901 153.83C265.514 153.73 265.197 153.617 264.951 153.49C264.704 153.363 264.514 153.22 264.381 153.06C264.281 152.933 264.207 152.797 264.161 152.65C264.114 152.497 264.091 152.33 264.091 152.15C264.091 151.93 264.137 151.73 264.231 151.55C264.331 151.363 264.464 151.203 264.631 151.07C264.804 150.93 265.004 150.823 265.231 150.75C265.464 150.677 265.711 150.64 265.971 150.64C266.217 150.64 266.461 150.673 266.701 150.74C266.947 150.807 267.174 150.903 267.381 151.03C267.587 151.157 267.761 151.307 267.901 151.48L267.311 152.13C267.184 152.003 267.044 151.893 266.891 151.8C266.744 151.7 266.594 151.623 266.441 151.57C266.287 151.517 266.147 151.49 266.021 151.49C265.881 151.49 265.754 151.503 265.641 151.53C265.527 151.557 265.431 151.597 265.351 151.65C265.277 151.703 265.221 151.77 265.181 151.85C265.141 151.93 265.121 152.02 265.121 152.12C265.127 152.207 265.147 152.29 265.181 152.37C265.221 152.443 265.274 152.507 265.341 152.56C265.414 152.613 265.524 152.67 265.671 152.73C265.817 152.79 266.004 152.847 266.231 152.9C266.564 152.987 266.837 153.083 267.051 153.19C267.271 153.29 267.444 153.407 267.571 153.54C267.704 153.667 267.797 153.813 267.851 153.98C267.904 154.147 267.931 154.333 267.931 154.54C267.931 154.84 267.844 155.11 267.671 155.35C267.504 155.583 267.277 155.767 266.991 155.9C266.704 156.033 266.384 156.1 266.031 156.1ZM270.906 156.1C270.532 156.1 270.206 156.013 269.926 155.84C269.652 155.667 269.439 155.423 269.286 155.11C269.139 154.797 269.066 154.423 269.066 153.99V150.75H270.096V153.71C270.096 154.017 270.142 154.283 270.236 154.51C270.336 154.73 270.476 154.9 270.656 155.02C270.842 155.14 271.066 155.2 271.326 155.2C271.519 155.2 271.696 155.17 271.856 155.11C272.016 155.043 272.152 154.953 272.266 154.84C272.386 154.727 272.479 154.59 272.546 154.43C272.612 154.27 272.646 154.097 272.646 153.91V150.75H273.676V156H272.646V154.9L272.826 154.78C272.746 155.027 272.609 155.25 272.416 155.45C272.229 155.65 272.006 155.81 271.746 155.93C271.486 156.043 271.206 156.1 270.906 156.1ZM277.57 156.1C277.03 156.1 276.55 155.987 276.13 155.76C275.717 155.527 275.39 155.21 275.15 154.81C274.917 154.41 274.8 153.95 274.8 153.43C274.8 153.017 274.867 152.64 275 152.3C275.134 151.96 275.317 151.667 275.55 151.42C275.79 151.167 276.074 150.973 276.4 150.84C276.734 150.7 277.094 150.63 277.48 150.63C277.82 150.63 278.137 150.697 278.43 150.83C278.724 150.957 278.977 151.133 279.19 151.36C279.41 151.587 279.577 151.857 279.69 152.17C279.81 152.477 279.867 152.813 279.86 153.18L279.85 153.62H275.56L275.33 152.8H278.96L278.81 152.97V152.73C278.79 152.51 278.717 152.313 278.59 152.14C278.464 151.967 278.304 151.83 278.11 151.73C277.917 151.63 277.707 151.58 277.48 151.58C277.12 151.58 276.817 151.65 276.57 151.79C276.324 151.923 276.137 152.123 276.01 152.39C275.884 152.65 275.82 152.973 275.82 153.36C275.82 153.727 275.897 154.047 276.05 154.32C276.204 154.587 276.42 154.793 276.7 154.94C276.98 155.087 277.304 155.16 277.67 155.16C277.93 155.16 278.17 155.117 278.39 155.03C278.617 154.943 278.86 154.787 279.12 154.56L279.64 155.29C279.48 155.45 279.284 155.59 279.05 155.71C278.824 155.83 278.58 155.927 278.32 156C278.067 156.067 277.817 156.1 277.57 156.1ZM284.043 156V149H286.783C287.283 149 287.733 149.083 288.133 149.25C288.539 149.417 288.886 149.657 289.173 149.97C289.459 150.283 289.679 150.653 289.833 151.08C289.986 151.507 290.063 151.98 290.063 152.5C290.063 153.02 289.986 153.497 289.833 153.93C289.679 154.357 289.459 154.727 289.173 155.04C288.893 155.347 288.549 155.583 288.143 155.75C287.736 155.917 287.283 156 286.783 156H284.043ZM285.123 155.07L285.093 154.96H286.733C287.086 154.96 287.399 154.903 287.673 154.79C287.953 154.677 288.186 154.517 288.373 154.31C288.566 154.097 288.713 153.837 288.813 153.53C288.913 153.223 288.963 152.88 288.963 152.5C288.963 152.12 288.913 151.78 288.813 151.48C288.713 151.173 288.566 150.913 288.373 150.7C288.179 150.487 287.946 150.323 287.673 150.21C287.399 150.097 287.086 150.04 286.733 150.04H285.063L285.123 149.95V155.07ZM293.283 156.1C292.85 156.1 292.453 155.98 292.093 155.74C291.74 155.5 291.456 155.173 291.243 154.76C291.03 154.347 290.923 153.88 290.923 153.36C290.923 152.833 291.03 152.367 291.243 151.96C291.463 151.547 291.756 151.223 292.123 150.99C292.496 150.757 292.913 150.64 293.373 150.64C293.646 150.64 293.896 150.68 294.123 150.76C294.35 150.84 294.546 150.953 294.713 151.1C294.886 151.24 295.026 151.403 295.133 151.59C295.246 151.777 295.316 151.977 295.343 152.19L295.113 152.11V150.75H296.153V156H295.113V154.75L295.353 154.68C295.313 154.86 295.23 155.037 295.103 155.21C294.983 155.377 294.826 155.527 294.633 155.66C294.446 155.793 294.236 155.9 294.003 155.98C293.776 156.06 293.536 156.1 293.283 156.1ZM293.553 155.15C293.866 155.15 294.143 155.073 294.383 154.92C294.623 154.767 294.81 154.557 294.943 154.29C295.083 154.017 295.153 153.707 295.153 153.36C295.153 153.02 295.083 152.717 294.943 152.45C294.81 152.183 294.623 151.973 294.383 151.82C294.143 151.667 293.866 151.59 293.553 151.59C293.246 151.59 292.973 151.667 292.733 151.82C292.5 151.973 292.313 152.183 292.173 152.45C292.04 152.717 291.973 153.02 291.973 153.36C291.973 153.707 292.04 154.017 292.173 154.29C292.313 154.557 292.5 154.767 292.733 154.92C292.973 155.073 293.246 155.15 293.553 155.15ZM298.241 156V149.41H299.271V156H298.241ZM297.151 151.75V150.75H300.491V151.75H297.151ZM303.83 156.1C303.29 156.1 302.81 155.987 302.39 155.76C301.977 155.527 301.65 155.21 301.41 154.81C301.177 154.41 301.06 153.95 301.06 153.43C301.06 153.017 301.127 152.64 301.26 152.3C301.393 151.96 301.577 151.667 301.81 151.42C302.05 151.167 302.333 150.973 302.66 150.84C302.993 150.7 303.353 150.63 303.74 150.63C304.08 150.63 304.397 150.697 304.69 150.83C304.983 150.957 305.237 151.133 305.45 151.36C305.67 151.587 305.837 151.857 305.95 152.17C306.07 152.477 306.127 152.813 306.12 153.18L306.11 153.62H301.82L301.59 152.8H305.22L305.07 152.97V152.73C305.05 152.51 304.977 152.313 304.85 152.14C304.723 151.967 304.563 151.83 304.37 151.73C304.177 151.63 303.967 151.58 303.74 151.58C303.38 151.58 303.077 151.65 302.83 151.79C302.583 151.923 302.397 152.123 302.27 152.39C302.143 152.65 302.08 152.973 302.08 153.36C302.08 153.727 302.157 154.047 302.31 154.32C302.463 154.587 302.68 154.793 302.96 154.94C303.24 155.087 303.563 155.16 303.93 155.16C304.19 155.16 304.43 155.117 304.65 155.03C304.877 154.943 305.12 154.787 305.38 154.56L305.9 155.29C305.74 155.45 305.543 155.59 305.31 155.71C305.083 155.83 304.84 155.927 304.58 156C304.327 156.067 304.077 156.1 303.83 156.1Z" fill="#3B3B3B"/>
<path d="M254.72 228V227H255.85V222H254.72V221H258.06V222H256.93V227H258.06V228H254.72ZM259.495 228V222.75H260.525V223.83L260.345 223.95C260.412 223.717 260.542 223.503 260.735 223.31C260.929 223.11 261.159 222.95 261.425 222.83C261.692 222.703 261.965 222.64 262.245 222.64C262.645 222.64 262.979 222.72 263.245 222.88C263.512 223.033 263.712 223.27 263.845 223.59C263.979 223.91 264.045 224.313 264.045 224.8V228H263.015V224.87C263.015 224.57 262.975 224.323 262.895 224.13C262.815 223.93 262.692 223.787 262.525 223.7C262.359 223.607 262.152 223.567 261.905 223.58C261.705 223.58 261.522 223.613 261.355 223.68C261.189 223.74 261.042 223.827 260.915 223.94C260.795 224.053 260.699 224.187 260.625 224.34C260.559 224.487 260.525 224.647 260.525 224.82V228H260.015C259.929 228 259.842 228 259.755 228C259.669 228 259.582 228 259.495 228ZM267.163 228L264.943 222.75H266.053L267.653 226.68L267.463 226.77L269.173 222.75H270.233L267.903 228H267.163ZM273.389 228.1C272.875 228.1 272.415 227.983 272.009 227.75C271.609 227.51 271.292 227.187 271.059 226.78C270.825 226.367 270.709 225.897 270.709 225.37C270.709 224.843 270.825 224.377 271.059 223.97C271.292 223.557 271.609 223.233 272.009 223C272.415 222.76 272.875 222.64 273.389 222.64C273.895 222.64 274.349 222.76 274.749 223C275.155 223.233 275.475 223.557 275.709 223.97C275.942 224.377 276.059 224.843 276.059 225.37C276.059 225.897 275.942 226.367 275.709 226.78C275.475 227.187 275.155 227.51 274.749 227.75C274.349 227.983 273.895 228.1 273.389 228.1ZM273.389 227.16C273.702 227.16 273.982 227.083 274.229 226.93C274.475 226.77 274.669 226.557 274.809 226.29C274.949 226.017 275.015 225.71 275.009 225.37C275.015 225.023 274.949 224.717 274.809 224.45C274.669 224.177 274.475 223.963 274.229 223.81C273.982 223.657 273.702 223.58 273.389 223.58C273.075 223.58 272.792 223.66 272.539 223.82C272.292 223.973 272.099 224.187 271.959 224.46C271.819 224.727 271.752 225.03 271.759 225.37C271.752 225.71 271.819 226.017 271.959 226.29C272.099 226.557 272.292 226.77 272.539 226.93C272.792 227.083 273.075 227.16 273.389 227.16ZM277.351 228V222.75H278.381V228H277.351ZM277.851 221.59C277.631 221.59 277.461 221.533 277.341 221.42C277.221 221.307 277.161 221.147 277.161 220.94C277.161 220.747 277.221 220.59 277.341 220.47C277.468 220.35 277.638 220.29 277.851 220.29C278.071 220.29 278.241 220.347 278.361 220.46C278.481 220.573 278.541 220.733 278.541 220.94C278.541 221.133 278.478 221.29 278.351 221.41C278.231 221.53 278.064 221.59 277.851 221.59ZM282.194 228.1C281.707 228.1 281.271 227.98 280.884 227.74C280.504 227.5 280.201 227.173 279.974 226.76C279.754 226.347 279.644 225.883 279.644 225.37C279.644 224.857 279.754 224.393 279.974 223.98C280.201 223.567 280.504 223.24 280.884 223C281.271 222.76 281.707 222.64 282.194 222.64C282.661 222.64 283.084 222.737 283.464 222.93C283.851 223.117 284.144 223.373 284.344 223.7L283.774 224.4C283.667 224.247 283.531 224.107 283.364 223.98C283.197 223.853 283.021 223.753 282.834 223.68C282.647 223.607 282.467 223.57 282.294 223.57C281.974 223.57 281.687 223.65 281.434 223.81C281.187 223.963 280.991 224.177 280.844 224.45C280.697 224.723 280.624 225.03 280.624 225.37C280.624 225.71 280.701 226.017 280.854 226.29C281.007 226.557 281.211 226.77 281.464 226.93C281.717 227.09 281.997 227.17 282.304 227.17C282.484 227.17 282.657 227.14 282.824 227.08C282.997 227.02 283.164 226.93 283.324 226.81C283.484 226.69 283.634 226.543 283.774 226.37L284.344 227.07C284.131 227.37 283.824 227.617 283.424 227.81C283.031 228.003 282.621 228.1 282.194 228.1ZM287.766 228.1C287.226 228.1 286.746 227.987 286.326 227.76C285.912 227.527 285.586 227.21 285.346 226.81C285.112 226.41 284.996 225.95 284.996 225.43C284.996 225.017 285.062 224.64 285.196 224.3C285.329 223.96 285.512 223.667 285.746 223.42C285.986 223.167 286.269 222.973 286.596 222.84C286.929 222.7 287.289 222.63 287.676 222.63C288.016 222.63 288.332 222.697 288.626 222.83C288.919 222.957 289.172 223.133 289.386 223.36C289.606 223.587 289.772 223.857 289.886 224.17C290.006 224.477 290.062 224.813 290.056 225.18L290.046 225.62H285.756L285.526 224.8H289.156L289.006 224.97V224.73C288.986 224.51 288.912 224.313 288.786 224.14C288.659 223.967 288.499 223.83 288.306 223.73C288.112 223.63 287.902 223.58 287.676 223.58C287.316 223.58 287.012 223.65 286.766 223.79C286.519 223.923 286.332 224.123 286.206 224.39C286.079 224.65 286.016 224.973 286.016 225.36C286.016 225.727 286.092 226.047 286.246 226.32C286.399 226.587 286.616 226.793 286.896 226.94C287.176 227.087 287.499 227.16 287.866 227.16C288.126 227.16 288.366 227.117 288.586 227.03C288.812 226.943 289.056 226.787 289.316 226.56L289.836 227.29C289.676 227.45 289.479 227.59 289.246 227.71C289.019 227.83 288.776 227.927 288.516 228C288.262 228.067 288.012 228.1 287.766 228.1ZM294.238 228V221H295.208L299.488 226.73L299.328 226.82C299.301 226.653 299.278 226.473 299.258 226.28C299.238 226.08 299.218 225.87 299.198 225.65C299.184 225.423 299.171 225.187 299.158 224.94C299.151 224.687 299.144 224.423 299.138 224.15C299.131 223.877 299.128 223.593 299.128 223.3V221H300.208V228H299.218L295.008 222.48L295.118 222.34C295.151 222.747 295.178 223.093 295.198 223.38C295.224 223.66 295.244 223.9 295.258 224.1C295.278 224.293 295.291 224.453 295.298 224.58C295.304 224.7 295.308 224.8 295.308 224.88C295.314 224.96 295.318 225.03 295.318 225.09V228H294.238ZM303.748 228.1C303.374 228.1 303.048 228.013 302.768 227.84C302.494 227.667 302.281 227.423 302.128 227.11C301.981 226.797 301.908 226.423 301.908 225.99V222.75H302.938V225.71C302.938 226.017 302.984 226.283 303.078 226.51C303.178 226.73 303.318 226.9 303.498 227.02C303.684 227.14 303.908 227.2 304.168 227.2C304.361 227.2 304.538 227.17 304.698 227.11C304.858 227.043 304.994 226.953 305.108 226.84C305.228 226.727 305.321 226.59 305.388 226.43C305.454 226.27 305.488 226.097 305.488 225.91V222.75H306.518V228H305.488V226.9L305.668 226.78C305.588 227.027 305.451 227.25 305.258 227.45C305.071 227.65 304.848 227.81 304.588 227.93C304.328 228.043 304.048 228.1 303.748 228.1ZM307.942 228V222.75H308.982V223.87L308.792 223.99C308.846 223.817 308.929 223.65 309.042 223.49C309.162 223.33 309.306 223.19 309.472 223.07C309.646 222.943 309.829 222.843 310.022 222.77C310.222 222.697 310.426 222.66 310.632 222.66C310.932 222.66 311.196 222.71 311.422 222.81C311.649 222.91 311.836 223.06 311.982 223.26C312.129 223.46 312.236 223.71 312.302 224.01L312.142 223.97L312.212 223.8C312.286 223.647 312.386 223.503 312.512 223.37C312.646 223.23 312.796 223.107 312.962 223C313.129 222.893 313.306 222.81 313.492 222.75C313.679 222.69 313.862 222.66 314.042 222.66C314.436 222.66 314.759 222.74 315.012 222.9C315.272 223.06 315.466 223.303 315.592 223.63C315.726 223.957 315.792 224.363 315.792 224.85V228H314.752V224.91C314.752 224.61 314.712 224.367 314.632 224.18C314.559 223.987 314.446 223.843 314.292 223.75C314.139 223.657 313.942 223.61 313.702 223.61C313.516 223.61 313.339 223.643 313.172 223.71C313.012 223.77 312.872 223.857 312.752 223.97C312.632 224.083 312.539 224.217 312.472 224.37C312.406 224.517 312.372 224.68 312.372 224.86V228H311.332V224.89C311.332 224.617 311.292 224.387 311.212 224.2C311.132 224.007 311.016 223.86 310.862 223.76C310.709 223.66 310.522 223.61 310.302 223.61C310.116 223.61 309.942 223.643 309.782 223.71C309.622 223.77 309.482 223.857 309.362 223.97C309.242 224.077 309.149 224.207 309.082 224.36C309.016 224.507 308.982 224.667 308.982 224.84V228H307.942ZM319.931 228.1C319.705 228.1 319.478 228.063 319.251 227.99C319.031 227.917 318.828 227.82 318.641 227.7C318.461 227.573 318.308 227.437 318.181 227.29C318.061 227.137 317.981 226.983 317.941 226.83L318.201 226.69V227.97H317.171V220.6H318.201V223.95L318.041 223.86C318.075 223.707 318.148 223.56 318.261 223.42C318.375 223.273 318.518 223.143 318.691 223.03C318.871 222.91 319.065 222.817 319.271 222.75C319.478 222.677 319.688 222.64 319.901 222.64C320.375 222.64 320.795 222.757 321.161 222.99C321.528 223.223 321.818 223.547 322.031 223.96C322.245 224.367 322.351 224.833 322.351 225.36C322.351 225.887 322.245 226.357 322.031 226.77C321.825 227.183 321.538 227.51 321.171 227.75C320.805 227.983 320.391 228.1 319.931 228.1ZM319.761 227.16C320.068 227.16 320.341 227.083 320.581 226.93C320.821 226.77 321.011 226.557 321.151 226.29C321.291 226.017 321.361 225.707 321.361 225.36C321.361 225.02 321.291 224.717 321.151 224.45C321.018 224.177 320.831 223.963 320.591 223.81C320.351 223.657 320.075 223.58 319.761 223.58C319.448 223.58 319.171 223.657 318.931 223.81C318.691 223.963 318.501 224.177 318.361 224.45C318.221 224.717 318.151 225.02 318.151 225.36C318.151 225.707 318.221 226.017 318.361 226.29C318.501 226.557 318.691 226.77 318.931 226.93C319.171 227.083 319.448 227.16 319.761 227.16ZM325.92 228.1C325.38 228.1 324.9 227.987 324.48 227.76C324.067 227.527 323.74 227.21 323.5 226.81C323.267 226.41 323.15 225.95 323.15 225.43C323.15 225.017 323.217 224.64 323.35 224.3C323.483 223.96 323.667 223.667 323.9 223.42C324.14 223.167 324.423 222.973 324.75 222.84C325.083 222.7 325.443 222.63 325.83 222.63C326.17 222.63 326.487 222.697 326.78 222.83C327.073 222.957 327.327 223.133 327.54 223.36C327.76 223.587 327.927 223.857 328.04 224.17C328.16 224.477 328.217 224.813 328.21 225.18L328.2 225.62H323.91L323.68 224.8H327.31L327.16 224.97V224.73C327.14 224.51 327.067 224.313 326.94 224.14C326.813 223.967 326.653 223.83 326.46 223.73C326.267 223.63 326.057 223.58 325.83 223.58C325.47 223.58 325.167 223.65 324.92 223.79C324.673 223.923 324.487 224.123 324.36 224.39C324.233 224.65 324.17 224.973 324.17 225.36C324.17 225.727 324.247 226.047 324.4 226.32C324.553 226.587 324.77 226.793 325.05 226.94C325.33 227.087 325.653 227.16 326.02 227.16C326.28 227.16 326.52 227.117 326.74 227.03C326.967 226.943 327.21 226.787 327.47 226.56L327.99 227.29C327.83 227.45 327.633 227.59 327.4 227.71C327.173 227.83 326.93 227.927 326.67 228C326.417 228.067 326.167 228.1 325.92 228.1ZM329.329 228V222.75H330.369V224.4L330.269 224C330.343 223.747 330.466 223.517 330.639 223.31C330.819 223.103 331.023 222.94 331.249 222.82C331.483 222.7 331.723 222.64 331.969 222.64C332.083 222.64 332.189 222.65 332.289 222.67C332.396 222.69 332.479 222.713 332.539 222.74L332.269 223.86C332.189 223.827 332.099 223.8 331.999 223.78C331.906 223.753 331.813 223.74 331.719 223.74C331.539 223.74 331.366 223.777 331.199 223.85C331.039 223.917 330.896 224.013 330.769 224.14C330.649 224.26 330.553 224.403 330.479 224.57C330.406 224.73 330.369 224.907 330.369 225.1V228H329.329Z" fill="#3B3B3B"/>
<rect x="104" y="175" width="98" height="7" rx="3.5" fill="#E4E6EA"/>
<rect x="104" y="247" width="112" height="7" rx="3.5" fill="#E4E6EA"/>
<rect x="265" y="175" width="111" height="7" rx="3.5" fill="#E4E6EA"/>
<rect x="265" y="247" width="112" height="7" rx="3.5" fill="#E4E6EA"/>
<rect x="93.25" y="165.25" width="133.5" height="26.5" rx="3.75" stroke="#E4E6EA" stroke-width="0.5"/>
<rect x="93.25" y="237.25" width="133.5" height="26.5" rx="3.75" stroke="#E4E6EA" stroke-width="0.5"/>
<rect x="254.25" y="165.25" width="133.5" height="26.5" rx="3.75" stroke="#E4E6EA" stroke-width="0.5"/>
<rect x="254.25" y="237.25" width="133.5" height="26.5" rx="3.75" stroke="#E4E6EA" stroke-width="0.5"/>
<rect x="83" y="287" width="315" height="87" rx="8" fill="white"/>
<path d="M113.737 304V297.43H114.675V304H113.737ZM116.047 304V297.43H118.064C118.828 297.43 119.46 297.565 119.96 297.834C120.461 298.103 120.83 298.485 121.068 298.979C121.312 299.467 121.434 300.049 121.434 300.725C121.434 301.4 121.312 301.982 121.068 302.47C120.83 302.958 120.461 303.337 119.96 303.606C119.466 303.869 118.834 304 118.064 304H116.047ZM116.985 303.212H118.027C118.634 303.212 119.116 303.112 119.472 302.911C119.829 302.711 120.082 302.426 120.232 302.057C120.389 301.682 120.467 301.238 120.467 300.725C120.467 300.205 120.389 299.758 120.232 299.382C120.082 299.007 119.829 298.719 119.472 298.519C119.116 298.319 118.634 298.219 118.027 298.219H116.985V303.212Z" fill="black"/>
<path d="M183.078 304V298.2H181.136V297.43H185.969V298.2H184.017V304H183.078ZM187.707 304.113C187.319 304.113 186.997 304.047 186.74 303.916C186.484 303.784 186.293 303.609 186.168 303.39C186.042 303.165 185.98 302.924 185.98 302.667C185.98 302.354 186.061 302.089 186.224 301.87C186.387 301.644 186.618 301.472 186.918 301.353C187.219 301.234 187.578 301.175 187.998 301.175H189.227C189.227 300.9 189.187 300.671 189.105 300.49C189.024 300.308 188.902 300.174 188.739 300.086C188.583 299.992 188.382 299.946 188.138 299.946C187.857 299.946 187.616 300.014 187.416 300.152C187.216 300.283 187.09 300.48 187.04 300.743H186.102C186.139 300.412 186.252 300.13 186.44 299.899C186.634 299.661 186.881 299.479 187.181 299.354C187.481 299.223 187.801 299.157 188.138 299.157C188.583 299.157 188.955 299.235 189.255 299.392C189.556 299.548 189.781 299.77 189.931 300.058C190.087 300.34 190.166 300.678 190.166 301.072V304H189.349L189.274 303.202C189.205 303.327 189.124 303.446 189.03 303.559C188.936 303.672 188.824 303.768 188.692 303.85C188.567 303.931 188.42 303.994 188.251 304.038C188.088 304.088 187.907 304.113 187.707 304.113ZM187.885 303.352C188.085 303.352 188.267 303.312 188.429 303.23C188.592 303.149 188.73 303.04 188.842 302.902C188.961 302.758 189.049 302.598 189.105 302.423C189.168 302.242 189.202 302.057 189.208 301.87V301.841H188.092C187.822 301.841 187.604 301.876 187.435 301.945C187.272 302.007 187.153 302.095 187.078 302.207C187.003 302.32 186.965 302.451 186.965 302.602C186.965 302.758 187 302.893 187.069 303.005C187.144 303.112 187.25 303.196 187.388 303.259C187.525 303.321 187.691 303.352 187.885 303.352ZM190.913 304L192.546 301.635L190.913 299.27H191.927L193.166 301.109L194.414 299.27H195.418L193.785 301.635L195.418 304H194.414L193.166 302.151L191.927 304H190.913Z" fill="black"/>
<path d="M248.685 304V297.43H250.928C251.454 297.43 251.886 297.518 252.223 297.693C252.561 297.868 252.812 298.103 252.974 298.397C253.137 298.691 253.218 299.026 253.218 299.401C253.218 299.758 253.137 300.086 252.974 300.387C252.818 300.681 252.571 300.918 252.233 301.1C251.895 301.275 251.46 301.363 250.928 301.363H249.624V304H248.685ZM249.624 300.584H250.891C251.385 300.584 251.735 300.477 251.942 300.265C252.155 300.046 252.261 299.758 252.261 299.401C252.261 299.019 252.155 298.725 251.942 298.519C251.735 298.312 251.385 298.209 250.891 298.209H249.624V300.584ZM254.183 304V299.27H255.028L255.112 300.161C255.219 299.949 255.356 299.77 255.525 299.626C255.694 299.476 255.891 299.361 256.117 299.279C256.348 299.198 256.611 299.157 256.905 299.157V300.152H256.567C256.373 300.152 256.189 300.177 256.013 300.227C255.838 300.271 255.682 300.349 255.544 300.462C255.413 300.574 255.31 300.728 255.234 300.922C255.159 301.116 255.122 301.356 255.122 301.644V304H254.183ZM257.833 304V299.27H258.771V304H257.833ZM258.311 298.378C258.13 298.378 257.98 298.322 257.861 298.209C257.748 298.097 257.692 297.953 257.692 297.778C257.692 297.609 257.748 297.471 257.861 297.365C257.98 297.252 258.13 297.196 258.311 297.196C258.486 297.196 258.634 297.252 258.752 297.365C258.871 297.471 258.931 297.609 258.931 297.778C258.931 297.953 258.871 298.097 258.752 298.209C258.634 298.322 258.486 298.378 258.311 298.378ZM262.3 304.113C261.843 304.113 261.437 304.009 261.08 303.803C260.723 303.59 260.442 303.299 260.235 302.93C260.035 302.561 259.935 302.132 259.935 301.644C259.935 301.15 260.035 300.718 260.235 300.349C260.442 299.974 260.723 299.683 261.08 299.476C261.437 299.264 261.843 299.157 262.3 299.157C262.876 299.157 263.357 299.307 263.745 299.608C264.133 299.908 264.38 300.315 264.487 300.828H263.511C263.448 300.552 263.304 300.34 263.079 300.19C262.86 300.039 262.597 299.964 262.291 299.964C262.04 299.964 261.809 300.03 261.596 300.161C261.383 300.287 261.211 300.474 261.08 300.725C260.955 300.969 260.892 301.272 260.892 301.635C260.892 301.904 260.93 302.145 261.005 302.358C261.08 302.564 261.18 302.739 261.305 302.883C261.437 303.027 261.587 303.137 261.756 303.212C261.925 303.28 262.103 303.315 262.291 303.315C262.497 303.315 262.682 303.284 262.844 303.221C263.013 303.152 263.154 303.052 263.267 302.921C263.386 302.789 263.467 302.633 263.511 302.451H264.487C264.38 302.952 264.133 303.356 263.745 303.662C263.357 303.962 262.876 304.113 262.3 304.113ZM267.725 304.113C267.274 304.113 266.874 304.009 266.524 303.803C266.173 303.596 265.898 303.309 265.698 302.939C265.504 302.57 265.407 302.142 265.407 301.654C265.407 301.153 265.504 300.718 265.698 300.349C265.898 299.974 266.173 299.683 266.524 299.476C266.874 299.264 267.281 299.157 267.744 299.157C268.207 299.157 268.604 299.26 268.936 299.467C269.267 299.673 269.524 299.949 269.705 300.293C269.887 300.631 269.977 301.006 269.977 301.419C269.977 301.482 269.974 301.55 269.968 301.626C269.968 301.694 269.965 301.773 269.959 301.86H266.092V301.194H269.039C269.02 300.8 268.889 300.493 268.645 300.274C268.401 300.049 268.097 299.936 267.734 299.936C267.478 299.936 267.243 299.996 267.03 300.114C266.818 300.227 266.646 300.396 266.514 300.621C266.389 300.84 266.326 301.119 266.326 301.457V301.719C266.326 302.07 266.389 302.367 266.514 302.611C266.646 302.849 266.818 303.03 267.03 303.155C267.243 303.274 267.475 303.334 267.725 303.334C268.025 303.334 268.272 303.268 268.466 303.137C268.66 303.005 268.804 302.827 268.898 302.602H269.837C269.755 302.889 269.618 303.149 269.424 303.381C269.23 303.606 268.989 303.784 268.701 303.916C268.419 304.047 268.094 304.113 267.725 304.113Z" fill="black"/>
<path d="M338.685 304V297.43H340.928C341.454 297.43 341.886 297.518 342.223 297.693C342.561 297.868 342.812 298.103 342.974 298.397C343.137 298.691 343.218 299.026 343.218 299.401C343.218 299.758 343.137 300.086 342.974 300.387C342.818 300.681 342.571 300.918 342.233 301.1C341.895 301.275 341.46 301.363 340.928 301.363H339.624V304H338.685ZM339.624 300.584H340.891C341.385 300.584 341.735 300.477 341.942 300.265C342.155 300.046 342.261 299.758 342.261 299.401C342.261 299.019 342.155 298.725 341.942 298.519C341.735 298.312 341.385 298.209 340.891 298.209H339.624V300.584ZM345.503 304.113C345.115 304.113 344.793 304.047 344.536 303.916C344.28 303.784 344.089 303.609 343.964 303.39C343.839 303.165 343.776 302.924 343.776 302.667C343.776 302.354 343.858 302.089 344.02 301.87C344.183 301.644 344.414 301.472 344.715 301.353C345.015 301.234 345.375 301.175 345.794 301.175H347.024C347.024 300.9 346.983 300.671 346.902 300.49C346.82 300.308 346.698 300.174 346.536 300.086C346.379 299.992 346.179 299.946 345.935 299.946C345.653 299.946 345.412 300.014 345.212 300.152C345.012 300.283 344.887 300.48 344.837 300.743H343.898C343.936 300.412 344.048 300.13 344.236 299.899C344.43 299.661 344.677 299.479 344.978 299.354C345.278 299.223 345.597 299.157 345.935 299.157C346.379 299.157 346.751 299.235 347.052 299.392C347.352 299.548 347.577 299.77 347.727 300.058C347.884 300.34 347.962 300.678 347.962 301.072V304H347.146L347.071 303.202C347.002 303.327 346.92 303.446 346.826 303.559C346.733 303.672 346.62 303.768 346.489 303.85C346.363 303.931 346.216 303.994 346.048 304.038C345.885 304.088 345.703 304.113 345.503 304.113ZM345.681 303.352C345.882 303.352 346.063 303.312 346.226 303.23C346.389 303.149 346.526 303.04 346.639 302.902C346.758 302.758 346.845 302.598 346.902 302.423C346.964 302.242 346.999 302.057 347.005 301.87V301.841H345.888C345.619 301.841 345.4 301.876 345.231 301.945C345.068 302.007 344.949 302.095 344.874 302.207C344.799 302.32 344.762 302.451 344.762 302.602C344.762 302.758 344.796 302.893 344.865 303.005C344.94 303.112 345.046 303.196 345.184 303.259C345.322 303.321 345.488 303.352 345.681 303.352ZM349.226 304V299.27H350.164V304H349.226ZM349.704 298.378C349.523 298.378 349.373 298.322 349.254 298.209C349.141 298.097 349.085 297.953 349.085 297.778C349.085 297.609 349.141 297.471 349.254 297.365C349.373 297.252 349.523 297.196 349.704 297.196C349.88 297.196 350.027 297.252 350.146 297.365C350.264 297.471 350.324 297.609 350.324 297.778C350.324 297.953 350.264 298.097 350.146 298.209C350.027 298.322 349.88 298.378 349.704 298.378ZM353.609 304.113C353.158 304.113 352.761 304.006 352.417 303.794C352.073 303.575 351.804 303.28 351.61 302.911C351.422 302.536 351.328 302.11 351.328 301.635C351.328 301.153 351.422 300.728 351.61 300.358C351.804 299.989 352.073 299.698 352.417 299.486C352.767 299.267 353.168 299.157 353.618 299.157C353.987 299.157 354.313 299.232 354.594 299.382C354.876 299.526 355.095 299.733 355.251 300.002V297.243H356.19V304H355.354L355.251 303.268C355.157 303.412 355.035 303.55 354.885 303.681C354.735 303.806 354.554 303.909 354.341 303.991C354.128 304.072 353.884 304.113 353.609 304.113ZM353.759 303.296C354.053 303.296 354.313 303.227 354.538 303.09C354.763 302.952 354.935 302.758 355.054 302.508C355.179 302.257 355.242 301.967 355.242 301.635C355.242 301.303 355.179 301.015 355.054 300.771C354.935 300.521 354.763 300.327 354.538 300.19C354.313 300.046 354.053 299.974 353.759 299.974C353.477 299.974 353.224 300.046 352.999 300.19C352.773 300.327 352.598 300.521 352.473 300.771C352.348 301.015 352.285 301.303 352.285 301.635C352.285 301.967 352.348 302.257 352.473 302.508C352.598 302.758 352.773 302.952 352.999 303.09C353.224 303.227 353.477 303.296 353.759 303.296Z" fill="black"/>
<path d="M135.214 320H98.7857C97.7995 320 97 321.567 97 323.5C97 325.433 97.7995 327 98.7857 327H135.214C136.201 327 137 325.433 137 323.5C137 321.567 136.201 320 135.214 320Z" fill="#E4E6EA"/>
<path d="M135.214 336H98.7857C97.7995 336 97 337.567 97 339.5C97 341.433 97.7995 343 98.7857 343H135.214C136.201 343 137 341.433 137 339.5C137 337.567 136.201 336 135.214 336Z" fill="#E4E6EA"/>
<path d="M135.214 352H98.7857C97.7995 352 97 353.567 97 355.5C97 357.433 97.7995 359 98.7857 359H135.214C136.201 359 137 357.433 137 355.5C137 353.567 136.201 352 135.214 352Z" fill="#E4E6EA"/>
<path d="M206.214 320H169.786C168.799 320 168 321.567 168 323.5C168 325.433 168.799 327 169.786 327H206.214C207.201 327 208 325.433 208 323.5C208 321.567 207.201 320 206.214 320Z" fill="#E4E6EA"/>
<path d="M206.214 336H169.786C168.799 336 168 337.567 168 339.5C168 341.433 168.799 343 169.786 343H206.214C207.201 343 208 341.433 208 339.5C208 337.567 207.201 336 206.214 336Z" fill="#E4E6EA"/>
<path d="M206.214 352H169.786C168.799 352 168 353.567 168 355.5C168 357.433 168.799 359 169.786 359H206.214C207.201 359 208 357.433 208 355.5C208 353.567 207.201 352 206.214 352Z" fill="#E4E6EA"/>
<path d="M288.232 320H231.768C230.239 320 229 321.567 229 323.5C229 325.433 230.239 327 231.768 327H288.232C289.761 327 291 325.433 291 323.5C291 321.567 289.761 320 288.232 320Z" fill="#E4E6EA"/>
<path d="M288.232 336H231.768C230.239 336 229 337.567 229 339.5C229 341.433 230.239 343 231.768 343H288.232C289.761 343 291 341.433 291 339.5C291 337.567 289.761 336 288.232 336Z" fill="#E4E6EA"/>
<path d="M288.232 352H231.768C230.239 352 229 353.567 229 355.5C229 357.433 230.239 359 231.768 359H288.232C289.761 359 291 357.433 291 355.5C291 353.567 289.761 352 288.232 352Z" fill="#E4E6EA"/>
<path d="M376.232 320H319.768C318.239 320 317 321.567 317 323.5C317 325.433 318.239 327 319.768 327H376.232C377.761 327 379 325.433 379 323.5C379 321.567 377.761 320 376.232 320Z" fill="#E4E6EA"/>
<path d="M376.232 336H319.768C318.239 336 317 337.567 317 339.5C317 341.433 318.239 343 319.768 343H376.232C377.761 343 379 341.433 379 339.5C379 337.567 377.761 336 376.232 336Z" fill="#E4E6EA"/>
<path d="M376.232 352H319.768C318.239 352 317 353.567 317 355.5C317 357.433 318.239 359 319.768 359H376.232C377.761 359 379 357.433 379 355.5C379 353.567 377.761 352 376.232 352Z" fill="#E4E6EA"/>
<rect x="83" y="404" width="315" height="41" rx="6" fill="#0900FF"/>
<path d="M181.274 429V419.2H185.614C186.221 419.2 186.771 419.34 187.266 419.62C187.761 419.891 188.148 420.259 188.428 420.726C188.717 421.193 188.862 421.725 188.862 422.322C188.862 422.91 188.717 423.447 188.428 423.932C188.148 424.408 187.761 424.786 187.266 425.066C186.771 425.346 186.221 425.486 185.614 425.486H183.304V429H181.274ZM186.832 429L184.34 424.576L186.496 424.226L189.268 429.014L186.832 429ZM183.304 423.778H185.516C185.768 423.778 185.987 423.722 186.174 423.61C186.37 423.489 186.519 423.325 186.622 423.12C186.725 422.905 186.776 422.667 186.776 422.406C186.776 422.126 186.715 421.883 186.594 421.678C186.473 421.473 186.295 421.314 186.062 421.202C185.829 421.081 185.558 421.02 185.25 421.02H183.304V423.778ZM194.037 429.14C193.235 429.14 192.53 428.977 191.923 428.65C191.326 428.323 190.859 427.875 190.523 427.306C190.197 426.737 190.033 426.083 190.033 425.346C190.033 424.767 190.127 424.24 190.313 423.764C190.5 423.288 190.761 422.877 191.097 422.532C191.433 422.177 191.83 421.907 192.287 421.72C192.754 421.524 193.258 421.426 193.799 421.426C194.303 421.426 194.77 421.519 195.199 421.706C195.629 421.893 195.997 422.154 196.305 422.49C196.623 422.817 196.865 423.209 197.033 423.666C197.201 424.114 197.276 424.599 197.257 425.122L197.243 425.738H191.293L190.971 424.52H195.605L195.381 424.772V424.464C195.363 424.212 195.279 423.988 195.129 423.792C194.989 423.587 194.807 423.428 194.583 423.316C194.359 423.195 194.107 423.134 193.827 423.134C193.417 423.134 193.067 423.213 192.777 423.372C192.497 423.531 192.283 423.764 192.133 424.072C191.984 424.38 191.909 424.753 191.909 425.192C191.909 425.64 192.003 426.027 192.189 426.354C192.385 426.681 192.656 426.937 193.001 427.124C193.356 427.301 193.771 427.39 194.247 427.39C194.574 427.39 194.873 427.339 195.143 427.236C195.414 427.133 195.703 426.956 196.011 426.704L196.963 428.034C196.693 428.277 196.394 428.482 196.067 428.65C195.741 428.809 195.405 428.93 195.059 429.014C194.714 429.098 194.373 429.14 194.037 429.14ZM201.946 429.14C201.237 429.14 200.602 428.972 200.042 428.636C199.482 428.3 199.039 427.843 198.712 427.264C198.395 426.685 198.236 426.027 198.236 425.29C198.236 424.553 198.395 423.895 198.712 423.316C199.039 422.737 199.482 422.28 200.042 421.944C200.602 421.608 201.237 421.44 201.946 421.44C202.609 421.44 203.216 421.561 203.766 421.804C204.317 422.047 204.746 422.383 205.054 422.812L203.962 424.128C203.832 423.951 203.668 423.792 203.472 423.652C203.276 423.503 203.062 423.386 202.828 423.302C202.604 423.218 202.371 423.176 202.128 423.176C201.746 423.176 201.405 423.269 201.106 423.456C200.817 423.633 200.588 423.881 200.42 424.198C200.252 424.515 200.168 424.879 200.168 425.29C200.168 425.682 200.252 426.037 200.42 426.354C200.598 426.671 200.836 426.923 201.134 427.11C201.433 427.297 201.769 427.39 202.142 427.39C202.385 427.39 202.614 427.357 202.828 427.292C203.043 427.227 203.244 427.124 203.43 426.984C203.626 426.844 203.804 426.676 203.962 426.48L205.04 427.796C204.732 428.197 204.294 428.524 203.724 428.776C203.164 429.019 202.572 429.14 201.946 429.14ZM209.828 429.14C209.026 429.14 208.321 428.977 207.714 428.65C207.117 428.323 206.65 427.875 206.314 427.306C205.988 426.737 205.824 426.083 205.824 425.346C205.824 424.767 205.918 424.24 206.104 423.764C206.291 423.288 206.552 422.877 206.888 422.532C207.224 422.177 207.621 421.907 208.078 421.72C208.545 421.524 209.049 421.426 209.59 421.426C210.094 421.426 210.561 421.519 210.99 421.706C211.42 421.893 211.788 422.154 212.096 422.49C212.414 422.817 212.656 423.209 212.824 423.666C212.992 424.114 213.067 424.599 213.048 425.122L213.034 425.738H207.084L206.762 424.52H211.396L211.172 424.772V424.464C211.154 424.212 211.07 423.988 210.92 423.792C210.78 423.587 210.598 423.428 210.374 423.316C210.15 423.195 209.898 423.134 209.618 423.134C209.208 423.134 208.858 423.213 208.568 423.372C208.288 423.531 208.074 423.764 207.924 424.072C207.775 424.38 207.7 424.753 207.7 425.192C207.7 425.64 207.794 426.027 207.98 426.354C208.176 426.681 208.447 426.937 208.792 427.124C209.147 427.301 209.562 427.39 210.038 427.39C210.365 427.39 210.664 427.339 210.934 427.236C211.205 427.133 211.494 426.956 211.802 426.704L212.754 428.034C212.484 428.277 212.185 428.482 211.858 428.65C211.532 428.809 211.196 428.93 210.85 429.014C210.505 429.098 210.164 429.14 209.828 429.14ZM214.685 429V421.594H216.673V429H214.685ZM215.665 420.082C215.283 420.082 214.984 419.989 214.769 419.802C214.555 419.606 214.447 419.335 214.447 418.99C214.447 418.673 214.555 418.416 214.769 418.22C214.993 418.015 215.292 417.912 215.665 417.912C216.048 417.912 216.347 418.01 216.561 418.206C216.776 418.393 216.883 418.654 216.883 418.99C216.883 419.307 216.771 419.569 216.547 419.774C216.333 419.979 216.039 420.082 215.665 420.082ZM221.121 429L218.013 421.594H220.197L222.171 427.124L221.709 427.208L223.781 421.594H225.909L222.647 429H221.121ZM230.432 429.14C229.629 429.14 228.924 428.977 228.318 428.65C227.72 428.323 227.254 427.875 226.918 427.306C226.591 426.737 226.428 426.083 226.428 425.346C226.428 424.767 226.521 424.24 226.708 423.764C226.894 423.288 227.156 422.877 227.492 422.532C227.828 422.177 228.224 421.907 228.682 421.72C229.148 421.524 229.652 421.426 230.194 421.426C230.698 421.426 231.164 421.519 231.594 421.706C232.023 421.893 232.392 422.154 232.7 422.49C233.017 422.817 233.26 423.209 233.428 423.666C233.596 424.114 233.67 424.599 233.652 425.122L233.638 425.738H227.688L227.366 424.52H232L231.776 424.772V424.464C231.757 424.212 231.673 423.988 231.524 423.792C231.384 423.587 231.202 423.428 230.978 423.316C230.754 423.195 230.502 423.134 230.222 423.134C229.811 423.134 229.461 423.213 229.172 423.372C228.892 423.531 228.677 423.764 228.528 424.072C228.378 424.38 228.304 424.753 228.304 425.192C228.304 425.64 228.397 426.027 228.584 426.354C228.78 426.681 229.05 426.937 229.396 427.124C229.75 427.301 230.166 427.39 230.642 427.39C230.968 427.39 231.267 427.339 231.538 427.236C231.808 427.133 232.098 426.956 232.406 426.704L233.358 428.034C233.087 428.277 232.788 428.482 232.462 428.65C232.135 428.809 231.799 428.93 231.454 429.014C231.108 429.098 230.768 429.14 230.432 429.14ZM239.694 429V419.2H243.852C244.44 419.2 244.967 419.34 245.434 419.62C245.901 419.891 246.269 420.264 246.54 420.74C246.82 421.216 246.96 421.753 246.96 422.35C246.96 422.957 246.82 423.503 246.54 423.988C246.269 424.473 245.901 424.861 245.434 425.15C244.967 425.43 244.44 425.57 243.852 425.57H241.794V429H239.694ZM241.766 423.68H243.614C243.838 423.68 244.039 423.624 244.216 423.512C244.393 423.391 244.533 423.232 244.636 423.036C244.748 422.84 244.804 422.616 244.804 422.364C244.804 422.112 244.748 421.893 244.636 421.706C244.533 421.519 244.393 421.37 244.216 421.258C244.039 421.146 243.838 421.09 243.614 421.09H241.766V423.68ZM251.196 429.14C250.58 429.14 250.024 428.972 249.53 428.636C249.035 428.3 248.643 427.843 248.354 427.264C248.064 426.685 247.92 426.023 247.92 425.276C247.92 424.529 248.064 423.867 248.354 423.288C248.652 422.709 249.054 422.257 249.558 421.93C250.062 421.603 250.636 421.44 251.28 421.44C251.644 421.44 251.975 421.496 252.274 421.608C252.582 421.711 252.848 421.855 253.072 422.042C253.305 422.229 253.501 422.443 253.66 422.686C253.818 422.929 253.93 423.19 253.996 423.47L253.576 423.4V421.594H255.55V429H253.548V427.222L253.996 427.18C253.921 427.441 253.8 427.689 253.632 427.922C253.464 428.155 253.254 428.365 253.002 428.552C252.759 428.729 252.484 428.874 252.176 428.986C251.868 429.089 251.541 429.14 251.196 429.14ZM251.742 427.418C252.115 427.418 252.442 427.329 252.722 427.152C253.002 426.975 253.216 426.727 253.366 426.41C253.524 426.083 253.604 425.705 253.604 425.276C253.604 424.856 253.524 424.487 253.366 424.17C253.216 423.853 253.002 423.605 252.722 423.428C252.442 423.241 252.115 423.148 251.742 423.148C251.378 423.148 251.056 423.241 250.776 423.428C250.505 423.605 250.29 423.853 250.132 424.17C249.973 424.487 249.894 424.856 249.894 425.276C249.894 425.705 249.973 426.083 250.132 426.41C250.29 426.727 250.505 426.975 250.776 427.152C251.056 427.329 251.378 427.418 251.742 427.418ZM258.415 432.22L260.039 428.412L260.067 429.56L256.455 421.594H258.709L260.515 425.864C260.589 426.023 260.659 426.209 260.725 426.424C260.799 426.629 260.86 426.825 260.907 427.012L260.571 427.166C260.636 427.007 260.701 426.825 260.767 426.62C260.841 426.415 260.916 426.195 260.991 425.962L262.545 421.594H264.813L261.705 429L260.431 432.22H258.415ZM265.869 429V421.594H267.787L267.829 423.008L267.535 423.064C267.637 422.821 267.773 422.602 267.941 422.406C268.118 422.21 268.319 422.042 268.543 421.902C268.767 421.762 269.005 421.655 269.257 421.58C269.509 421.496 269.761 421.454 270.013 421.454C270.395 421.454 270.741 421.515 271.049 421.636C271.357 421.757 271.618 421.949 271.833 422.21C272.047 422.462 272.215 422.798 272.337 423.218L272.029 423.19L272.127 422.966C272.248 422.742 272.402 422.537 272.589 422.35C272.775 422.163 272.985 422.005 273.219 421.874C273.452 421.743 273.695 421.641 273.947 421.566C274.199 421.491 274.446 421.454 274.689 421.454C275.267 421.454 275.748 421.571 276.131 421.804C276.513 422.028 276.798 422.369 276.985 422.826C277.181 423.283 277.279 423.843 277.279 424.506V429H275.291V424.646C275.291 424.31 275.244 424.035 275.151 423.82C275.057 423.605 274.922 423.447 274.745 423.344C274.567 423.232 274.339 423.176 274.059 423.176C273.844 423.176 273.643 423.213 273.457 423.288C273.279 423.353 273.121 423.451 272.981 423.582C272.85 423.703 272.747 423.853 272.673 424.03C272.598 424.198 272.561 424.38 272.561 424.576V429H270.559V424.632C270.559 424.324 270.512 424.063 270.419 423.848C270.325 423.624 270.19 423.456 270.013 423.344C269.835 423.232 269.616 423.176 269.355 423.176C269.14 423.176 268.939 423.213 268.753 423.288C268.575 423.353 268.421 423.451 268.291 423.582C268.16 423.703 268.057 423.848 267.983 424.016C267.908 424.184 267.871 424.366 267.871 424.562V429H265.869ZM282.686 429.14C281.883 429.14 281.178 428.977 280.572 428.65C279.974 428.323 279.508 427.875 279.172 427.306C278.845 426.737 278.682 426.083 278.682 425.346C278.682 424.767 278.775 424.24 278.962 423.764C279.148 423.288 279.41 422.877 279.746 422.532C280.082 422.177 280.478 421.907 280.936 421.72C281.402 421.524 281.906 421.426 282.448 421.426C282.952 421.426 283.418 421.519 283.848 421.706C284.277 421.893 284.646 422.154 284.954 422.49C285.271 422.817 285.514 423.209 285.682 423.666C285.85 424.114 285.924 424.599 285.906 425.122L285.892 425.738H279.942L279.62 424.52H284.254L284.03 424.772V424.464C284.011 424.212 283.927 423.988 283.778 423.792C283.638 423.587 283.456 423.428 283.232 423.316C283.008 423.195 282.756 423.134 282.476 423.134C282.065 423.134 281.715 423.213 281.426 423.372C281.146 423.531 280.931 423.764 280.782 424.072C280.632 424.38 280.558 424.753 280.558 425.192C280.558 425.64 280.651 426.027 280.838 426.354C281.034 426.681 281.304 426.937 281.65 427.124C282.004 427.301 282.42 427.39 282.896 427.39C283.222 427.39 283.521 427.339 283.792 427.236C284.062 427.133 284.352 426.956 284.66 426.704L285.612 428.034C285.341 428.277 285.042 428.482 284.716 428.65C284.389 428.809 284.053 428.93 283.708 429.014C283.362 429.098 283.022 429.14 282.686 429.14ZM287.375 429V421.594H289.279L289.335 423.106L288.943 423.274C289.046 422.938 289.228 422.635 289.489 422.364C289.76 422.084 290.082 421.86 290.455 421.692C290.828 421.524 291.22 421.44 291.631 421.44C292.191 421.44 292.658 421.552 293.031 421.776C293.414 422 293.698 422.341 293.885 422.798C294.081 423.246 294.179 423.801 294.179 424.464V429H292.191V424.618C292.191 424.282 292.144 424.002 292.051 423.778C291.958 423.554 291.813 423.391 291.617 423.288C291.43 423.185 291.197 423.139 290.917 423.148C290.693 423.148 290.483 423.185 290.287 423.26C290.1 423.325 289.937 423.423 289.797 423.554C289.666 423.685 289.559 423.834 289.475 424.002C289.4 424.17 289.363 424.352 289.363 424.548V429H288.383C288.168 429 287.977 429 287.809 429C287.641 429 287.496 429 287.375 429ZM296.798 429V419.718H298.786V429H296.798ZM295.412 423.372V421.594H300.312V423.372H295.412Z" fill="white"/>
</g>
<defs>
<clipPath id="clip0_143_177">
<rect width="480" height="540" fill="white"/>
</clipPath>
</defs>
</svg>
