<svg width="480" height="540" viewBox="0 0 480 540" fill="none" xmlns="http://www.w3.org/2000/svg">
<path d="M85 76H396C405.389 76 413 83.6112 413 93V447C413 456.389 405.389 464 396 464H85C75.6111 464 68 456.389 68 447V93C68 83.6112 75.6111 76 85 76Z" fill="#F1F5F7"/>
<path d="M91.442 121.21C90.35 121.21 89.349 121.021 88.439 120.643C87.529 120.265 86.731 119.74 86.045 119.068C85.373 118.382 84.855 117.577 84.491 116.653C84.127 115.715 83.945 114.7 83.945 113.608C83.945 112.502 84.127 111.487 84.491 110.563C84.855 109.639 85.373 108.841 86.045 108.169C86.731 107.483 87.529 106.951 88.439 106.573C89.349 106.195 90.343 106.006 91.421 106.006C92.513 106.006 93.507 106.195 94.403 106.573C95.313 106.951 96.104 107.483 96.776 108.169C97.462 108.855 97.987 109.66 98.351 110.584C98.715 111.508 98.897 112.516 98.897 113.608C98.897 114.7 98.715 115.708 98.351 116.632C97.987 117.556 97.462 118.361 96.776 119.047C96.104 119.733 95.313 120.265 94.403 120.643C93.507 121.021 92.52 121.21 91.442 121.21ZM91.421 118.228C92.051 118.228 92.625 118.116 93.143 117.892C93.661 117.654 94.109 117.332 94.487 116.926C94.865 116.506 95.159 116.016 95.369 115.456C95.593 114.896 95.705 114.28 95.705 113.608C95.705 112.936 95.593 112.32 95.369 111.76C95.159 111.2 94.865 110.717 94.487 110.311C94.109 109.891 93.661 109.569 93.143 109.345C92.625 109.107 92.051 108.988 91.421 108.988C90.805 108.988 90.238 109.107 89.72 109.345C89.202 109.569 88.747 109.891 88.355 110.311C87.963 110.717 87.662 111.2 87.452 111.76C87.256 112.32 87.158 112.936 87.158 113.608C87.158 114.28 87.256 114.896 87.452 115.456C87.662 116.016 87.963 116.506 88.355 116.926C88.747 117.332 89.202 117.654 89.72 117.892C90.238 118.116 90.805 118.228 91.421 118.228ZM101.328 121V109.891H104.184L104.268 112.159L103.68 112.411C103.834 111.907 104.107 111.452 104.499 111.046C104.905 110.626 105.388 110.29 105.948 110.038C106.508 109.786 107.096 109.66 107.712 109.66C108.552 109.66 109.252 109.828 109.812 110.164C110.386 110.5 110.813 111.011 111.093 111.697C111.387 112.369 111.534 113.202 111.534 114.196V121H108.552V114.427C108.552 113.923 108.482 113.503 108.342 113.167C108.202 112.831 107.985 112.586 107.691 112.432C107.411 112.278 107.061 112.208 106.641 112.222C106.305 112.222 105.99 112.278 105.696 112.39C105.416 112.488 105.171 112.635 104.961 112.831C104.765 113.027 104.604 113.251 104.478 113.503C104.366 113.755 104.31 114.028 104.31 114.322V121H102.84C102.518 121 102.231 121 101.979 121C101.727 121 101.51 121 101.328 121ZM114.412 121V105.46H117.394V121H114.412ZM120.673 121V109.891H123.655V121H120.673ZM122.143 107.623C121.569 107.623 121.121 107.483 120.799 107.203C120.477 106.909 120.316 106.503 120.316 105.985C120.316 105.509 120.477 105.124 120.799 104.83C121.135 104.522 121.583 104.368 122.143 104.368C122.717 104.368 123.165 104.515 123.487 104.809C123.809 105.089 123.97 105.481 123.97 105.985C123.97 106.461 123.802 106.853 123.466 107.161C123.144 107.469 122.703 107.623 122.143 107.623ZM126.84 121V109.891H129.696L129.78 112.159L129.192 112.411C129.346 111.907 129.619 111.452 130.011 111.046C130.417 110.626 130.9 110.29 131.46 110.038C132.02 109.786 132.608 109.66 133.224 109.66C134.064 109.66 134.764 109.828 135.324 110.164C135.898 110.5 136.325 111.011 136.605 111.697C136.899 112.369 137.046 113.202 137.046 114.196V121H134.064V114.427C134.064 113.923 133.994 113.503 133.854 113.167C133.714 112.831 133.497 112.586 133.203 112.432C132.923 112.278 132.573 112.208 132.153 112.222C131.817 112.222 131.502 112.278 131.208 112.39C130.928 112.488 130.683 112.635 130.473 112.831C130.277 113.027 130.116 113.251 129.99 113.503C129.878 113.755 129.822 114.028 129.822 114.322V121H128.352C128.03 121 127.743 121 127.491 121C127.239 121 127.022 121 126.84 121ZM145.174 121.21C143.97 121.21 142.913 120.965 142.003 120.475C141.107 119.985 140.407 119.313 139.903 118.459C139.413 117.605 139.168 116.625 139.168 115.519C139.168 114.651 139.308 113.86 139.588 113.146C139.868 112.432 140.26 111.816 140.764 111.298C141.268 110.766 141.863 110.36 142.549 110.08C143.249 109.786 144.005 109.639 144.817 109.639C145.573 109.639 146.273 109.779 146.917 110.059C147.561 110.339 148.114 110.731 148.576 111.235C149.052 111.725 149.416 112.313 149.668 112.999C149.92 113.671 150.032 114.399 150.004 115.183L149.983 116.107H141.058L140.575 114.28H147.526L147.19 114.658V114.196C147.162 113.818 147.036 113.482 146.812 113.188C146.602 112.88 146.329 112.642 145.993 112.474C145.657 112.292 145.279 112.201 144.859 112.201C144.243 112.201 143.718 112.32 143.284 112.558C142.864 112.796 142.542 113.146 142.318 113.608C142.094 114.07 141.982 114.63 141.982 115.288C141.982 115.96 142.122 116.541 142.402 117.031C142.696 117.521 143.102 117.906 143.62 118.186C144.152 118.452 144.775 118.585 145.489 118.585C145.979 118.585 146.427 118.508 146.833 118.354C147.239 118.2 147.673 117.934 148.135 117.556L149.563 119.551C149.157 119.915 148.709 120.223 148.219 120.475C147.729 120.713 147.225 120.895 146.707 121.021C146.189 121.147 145.678 121.21 145.174 121.21ZM159.067 121V106.3H165.304C166.186 106.3 166.977 106.51 167.677 106.93C168.377 107.336 168.93 107.896 169.336 108.61C169.756 109.324 169.966 110.129 169.966 111.025C169.966 111.935 169.756 112.754 169.336 113.482C168.93 114.21 168.377 114.791 167.677 115.225C166.977 115.645 166.186 115.855 165.304 115.855H162.217V121H159.067ZM162.175 113.02H164.947C165.283 113.02 165.584 112.936 165.85 112.768C166.116 112.586 166.326 112.348 166.48 112.054C166.648 111.76 166.732 111.424 166.732 111.046C166.732 110.668 166.648 110.339 166.48 110.059C166.326 109.779 166.116 109.555 165.85 109.387C165.584 109.219 165.283 109.135 164.947 109.135H162.175V113.02ZM176.32 121.21C175.396 121.21 174.563 120.958 173.821 120.454C173.079 119.95 172.491 119.264 172.057 118.396C171.623 117.528 171.406 116.534 171.406 115.414C171.406 114.294 171.623 113.3 172.057 112.432C172.505 111.564 173.107 110.885 173.863 110.395C174.619 109.905 175.48 109.66 176.446 109.66C176.992 109.66 177.489 109.744 177.937 109.912C178.399 110.066 178.798 110.283 179.134 110.563C179.484 110.843 179.778 111.165 180.016 111.529C180.254 111.893 180.422 112.285 180.52 112.705L179.89 112.6V109.891H182.851V121H179.848V118.333L180.52 118.27C180.408 118.662 180.226 119.033 179.974 119.383C179.722 119.733 179.407 120.048 179.029 120.328C178.665 120.594 178.252 120.811 177.79 120.979C177.328 121.133 176.838 121.21 176.32 121.21ZM177.139 118.627C177.699 118.627 178.189 118.494 178.609 118.228C179.029 117.962 179.351 117.591 179.575 117.115C179.813 116.625 179.932 116.058 179.932 115.414C179.932 114.784 179.813 114.231 179.575 113.755C179.351 113.279 179.029 112.908 178.609 112.642C178.189 112.362 177.699 112.222 177.139 112.222C176.593 112.222 176.11 112.362 175.69 112.642C175.284 112.908 174.962 113.279 174.724 113.755C174.486 114.231 174.367 114.784 174.367 115.414C174.367 116.058 174.486 116.625 174.724 117.115C174.962 117.591 175.284 117.962 175.69 118.228C176.11 118.494 176.593 118.627 177.139 118.627ZM187.149 125.83L189.585 120.118L189.627 121.84L184.209 109.891H187.59L190.299 116.296C190.411 116.534 190.516 116.814 190.614 117.136C190.726 117.444 190.817 117.738 190.887 118.018L190.383 118.249C190.481 118.011 190.579 117.738 190.677 117.43C190.789 117.122 190.901 116.793 191.013 116.443L193.344 109.891H196.746L192.084 121L190.173 125.83H187.149ZM198.329 121V109.891H201.206L201.269 112.012L200.828 112.096C200.982 111.732 201.185 111.403 201.437 111.109C201.703 110.815 202.004 110.563 202.34 110.353C202.676 110.143 203.033 109.982 203.411 109.87C203.789 109.744 204.167 109.681 204.545 109.681C205.119 109.681 205.637 109.772 206.099 109.954C206.561 110.136 206.953 110.423 207.275 110.815C207.597 111.193 207.849 111.697 208.031 112.327L207.569 112.285L207.716 111.949C207.898 111.613 208.129 111.305 208.409 111.025C208.689 110.745 209.004 110.507 209.354 110.311C209.704 110.115 210.068 109.961 210.446 109.849C210.824 109.737 211.195 109.681 211.559 109.681C212.427 109.681 213.148 109.856 213.722 110.206C214.296 110.542 214.723 111.053 215.003 111.739C215.297 112.425 215.444 113.265 215.444 114.259V121H212.462V114.469C212.462 113.965 212.392 113.552 212.252 113.23C212.112 112.908 211.909 112.67 211.643 112.516C211.377 112.348 211.034 112.264 210.614 112.264C210.292 112.264 209.991 112.32 209.711 112.432C209.445 112.53 209.207 112.677 208.997 112.873C208.801 113.055 208.647 113.279 208.535 113.545C208.423 113.797 208.367 114.07 208.367 114.364V121H205.364V114.448C205.364 113.986 205.294 113.594 205.154 113.272C205.014 112.936 204.811 112.684 204.545 112.516C204.279 112.348 203.95 112.264 203.558 112.264C203.236 112.264 202.935 112.32 202.655 112.432C202.389 112.53 202.158 112.677 201.962 112.873C201.766 113.055 201.612 113.272 201.5 113.524C201.388 113.776 201.332 114.049 201.332 114.343V121H198.329ZM223.555 121.21C222.351 121.21 221.294 120.965 220.384 120.475C219.488 119.985 218.788 119.313 218.284 118.459C217.794 117.605 217.549 116.625 217.549 115.519C217.549 114.651 217.689 113.86 217.969 113.146C218.249 112.432 218.641 111.816 219.145 111.298C219.649 110.766 220.244 110.36 220.93 110.08C221.63 109.786 222.386 109.639 223.198 109.639C223.954 109.639 224.654 109.779 225.298 110.059C225.942 110.339 226.495 110.731 226.957 111.235C227.433 111.725 227.797 112.313 228.049 112.999C228.301 113.671 228.413 114.399 228.385 115.183L228.364 116.107H219.439L218.956 114.28H225.907L225.571 114.658V114.196C225.543 113.818 225.417 113.482 225.193 113.188C224.983 112.88 224.71 112.642 224.374 112.474C224.038 112.292 223.66 112.201 223.24 112.201C222.624 112.201 222.099 112.32 221.665 112.558C221.245 112.796 220.923 113.146 220.699 113.608C220.475 114.07 220.363 114.63 220.363 115.288C220.363 115.96 220.503 116.541 220.783 117.031C221.077 117.521 221.483 117.906 222.001 118.186C222.533 118.452 223.156 118.585 223.87 118.585C224.36 118.585 224.808 118.508 225.214 118.354C225.62 118.2 226.054 117.934 226.516 117.556L227.944 119.551C227.538 119.915 227.09 120.223 226.6 120.475C226.11 120.713 225.606 120.895 225.088 121.021C224.57 121.147 224.059 121.21 223.555 121.21ZM230.589 121V109.891H233.445L233.529 112.159L232.941 112.411C233.095 111.907 233.368 111.452 233.76 111.046C234.166 110.626 234.649 110.29 235.209 110.038C235.769 109.786 236.357 109.66 236.973 109.66C237.813 109.66 238.513 109.828 239.073 110.164C239.647 110.5 240.074 111.011 240.354 111.697C240.648 112.369 240.795 113.202 240.795 114.196V121H237.813V114.427C237.813 113.923 237.743 113.503 237.603 113.167C237.463 112.831 237.246 112.586 236.952 112.432C236.672 112.278 236.322 112.208 235.902 112.222C235.566 112.222 235.251 112.278 234.957 112.39C234.677 112.488 234.432 112.635 234.222 112.831C234.026 113.027 233.865 113.251 233.739 113.503C233.627 113.755 233.571 114.028 233.571 114.322V121H232.101C231.779 121 231.492 121 231.24 121C230.988 121 230.771 121 230.589 121ZM244.723 121V107.077H247.705V121H244.723ZM242.644 112.558V109.891H249.994V112.558H242.644ZM256.065 121.21C255.029 121.21 254.105 121.042 253.293 120.706C252.495 120.356 251.851 119.88 251.361 119.278L253.23 117.682C253.65 118.144 254.126 118.48 254.658 118.69C255.19 118.886 255.722 118.984 256.254 118.984C256.464 118.984 256.653 118.963 256.821 118.921C257.003 118.865 257.157 118.795 257.283 118.711C257.409 118.613 257.5 118.501 257.556 118.375C257.626 118.235 257.661 118.088 257.661 117.934C257.661 117.626 257.535 117.388 257.283 117.22C257.143 117.136 256.926 117.045 256.632 116.947C256.338 116.835 255.96 116.716 255.498 116.59C254.784 116.408 254.175 116.198 253.671 115.96C253.181 115.708 252.789 115.428 252.495 115.12C252.243 114.826 252.047 114.511 251.907 114.175C251.781 113.825 251.718 113.44 251.718 113.02C251.718 112.516 251.83 112.061 252.054 111.655C252.278 111.235 252.586 110.878 252.978 110.584C253.384 110.29 253.846 110.066 254.364 109.912C254.882 109.744 255.428 109.66 256.002 109.66C256.576 109.66 257.136 109.73 257.682 109.87C258.228 110.01 258.732 110.213 259.194 110.479C259.67 110.731 260.083 111.032 260.433 111.382L258.837 113.146C258.585 112.908 258.298 112.691 257.976 112.495C257.668 112.299 257.346 112.145 257.01 112.033C256.674 111.921 256.373 111.865 256.107 111.865C255.869 111.865 255.652 111.886 255.456 111.928C255.274 111.97 255.12 112.04 254.994 112.138C254.868 112.222 254.77 112.327 254.7 112.453C254.644 112.579 254.616 112.719 254.616 112.873C254.616 113.027 254.651 113.174 254.721 113.314C254.805 113.454 254.917 113.573 255.057 113.671C255.211 113.755 255.435 113.853 255.729 113.965C256.037 114.077 256.45 114.203 256.968 114.343C257.64 114.525 258.207 114.728 258.669 114.952C259.145 115.176 259.523 115.435 259.803 115.729C260.041 115.981 260.216 116.268 260.328 116.59C260.44 116.912 260.496 117.269 260.496 117.661C260.496 118.347 260.3 118.956 259.908 119.488C259.53 120.02 259.005 120.44 258.333 120.748C257.661 121.056 256.905 121.21 256.065 121.21Z" fill="black"/>
<rect x="157.136" y="150.136" width="147.727" height="294.318" rx="11.3636" fill="#F1F5F7" stroke="black" stroke-width="2.27272"/>
<g clip-path="url(#clip0_598_2395)">
<path d="M292.324 156.264H285.661C285.405 156.265 285.161 156.367 284.98 156.547C284.8 156.728 284.698 156.972 284.697 157.228V159.796C284.698 160.052 284.8 160.296 284.98 160.477C285.161 160.657 285.405 160.759 285.661 160.76H292.324C292.579 160.759 292.824 160.657 293.004 160.477C293.185 160.296 293.286 160.052 293.287 159.796V157.228C293.286 156.972 293.185 156.728 293.004 156.547C292.824 156.367 292.579 156.265 292.324 156.264ZM292.725 159.796C292.725 159.903 292.683 160.005 292.608 160.08C292.532 160.156 292.43 160.199 292.324 160.199H285.661C285.554 160.199 285.452 160.156 285.377 160.081C285.302 160.006 285.26 159.904 285.259 159.798V157.228C285.26 157.121 285.302 157.019 285.377 156.944C285.452 156.869 285.554 156.827 285.661 156.826H292.324C292.43 156.827 292.532 156.869 292.607 156.944C292.682 157.019 292.725 157.121 292.725 157.228V159.796Z" fill="black"/>
<path d="M293.688 157.48V159.544C294.009 159.544 294.33 158.988 294.33 158.512C294.33 158.036 294.009 157.48 293.688 157.48Z" fill="black"/>
<path d="M292.083 157.228H285.901C285.837 157.228 285.776 157.253 285.731 157.298C285.686 157.343 285.66 157.404 285.66 157.468V159.556C285.66 159.619 285.686 159.68 285.731 159.726C285.776 159.771 285.837 159.796 285.901 159.796H292.083C292.147 159.796 292.208 159.771 292.253 159.726C292.298 159.68 292.323 159.619 292.324 159.556V157.468C292.323 157.404 292.298 157.343 292.253 157.298C292.208 157.253 292.147 157.228 292.083 157.228Z" fill="black"/>
<path d="M283.055 157.497C282.193 156.704 281.066 156.264 279.895 156.264C278.724 156.264 277.596 156.704 276.735 157.497C276.719 157.512 276.706 157.53 276.697 157.549C276.689 157.569 276.684 157.59 276.684 157.612C276.683 157.633 276.687 157.655 276.696 157.675C276.704 157.695 276.716 157.713 276.731 157.728L277.075 158.069C277.105 158.098 277.145 158.115 277.186 158.116C277.228 158.116 277.269 158.101 277.3 158.072C278.009 157.425 278.935 157.066 279.895 157.066C280.855 157.066 281.781 157.425 282.49 158.072C282.521 158.101 282.561 158.116 282.603 158.115C282.645 158.115 282.685 158.098 282.715 158.069L283.059 157.728C283.074 157.713 283.086 157.695 283.094 157.675C283.103 157.655 283.107 157.633 283.106 157.612C283.106 157.59 283.101 157.569 283.092 157.549C283.083 157.529 283.071 157.512 283.055 157.497ZM279.895 159.475C279.768 159.475 279.644 159.513 279.538 159.583C279.433 159.654 279.35 159.754 279.302 159.872C279.253 159.989 279.24 160.118 279.265 160.243C279.29 160.367 279.351 160.482 279.441 160.572C279.531 160.661 279.645 160.723 279.77 160.747C279.894 160.772 280.023 160.759 280.141 160.711C280.258 160.662 280.358 160.58 280.429 160.474C280.5 160.369 280.537 160.244 280.537 160.117C280.537 159.947 280.47 159.784 280.349 159.663C280.229 159.543 280.065 159.475 279.895 159.475ZM281.93 158.636C281.368 158.142 280.645 157.87 279.896 157.87C279.148 157.87 278.425 158.142 277.862 158.636C277.846 158.651 277.833 158.669 277.824 158.688C277.814 158.708 277.809 158.73 277.809 158.751C277.808 158.773 277.812 158.795 277.821 158.815C277.829 158.835 277.841 158.854 277.857 158.869L278.202 159.21C278.231 159.239 278.271 159.256 278.312 159.258C278.353 159.259 278.394 159.245 278.425 159.218C278.835 158.866 279.357 158.672 279.897 158.672C280.438 158.672 280.96 158.866 281.37 159.218C281.401 159.245 281.442 159.259 281.483 159.258C281.524 159.256 281.563 159.239 281.593 159.21L281.938 158.869C281.954 158.853 281.966 158.835 281.974 158.815C281.982 158.794 281.985 158.773 281.985 158.751C281.984 158.729 281.979 158.708 281.969 158.688C281.96 158.668 281.946 158.651 281.93 158.636Z" fill="black"/>
<path d="M271.583 158.793H271.161C271.124 158.793 271.088 158.808 271.062 158.834C271.035 158.86 271.02 158.896 271.02 158.934V160.619C271.02 160.637 271.024 160.655 271.031 160.672C271.038 160.689 271.049 160.705 271.062 160.718C271.075 160.731 271.09 160.741 271.107 160.748C271.124 160.756 271.143 160.759 271.161 160.759H271.583C271.601 160.759 271.619 160.756 271.636 160.748C271.653 160.741 271.669 160.731 271.682 160.718C271.695 160.705 271.705 160.689 271.712 160.672C271.719 160.655 271.723 160.637 271.723 160.619V158.935C271.723 158.917 271.72 158.898 271.713 158.881C271.706 158.864 271.696 158.848 271.683 158.835C271.669 158.821 271.654 158.811 271.637 158.804C271.62 158.797 271.601 158.793 271.583 158.793ZM270.459 159.635H270.037C270 159.635 269.964 159.649 269.938 159.676C269.911 159.702 269.896 159.738 269.896 159.775V160.62C269.896 160.658 269.911 160.693 269.938 160.72C269.964 160.746 270 160.761 270.037 160.761H270.459C270.477 160.761 270.496 160.757 270.513 160.75C270.53 160.743 270.545 160.733 270.559 160.72C270.572 160.707 270.582 160.691 270.589 160.674C270.596 160.657 270.6 160.639 270.6 160.62V159.776C270.6 159.758 270.597 159.739 270.59 159.722C270.583 159.705 270.572 159.689 270.559 159.676C270.546 159.663 270.53 159.652 270.513 159.645C270.496 159.638 270.477 159.634 270.459 159.635ZM272.707 157.949H272.285C272.248 157.949 272.212 157.964 272.186 157.991C272.16 158.017 272.145 158.053 272.145 158.09V160.62C272.145 160.658 272.16 160.693 272.186 160.72C272.212 160.746 272.248 160.761 272.285 160.761H272.707C272.744 160.761 272.78 160.746 272.806 160.72C272.833 160.693 272.847 160.658 272.847 160.62V158.091C272.847 158.072 272.844 158.054 272.837 158.036C272.83 158.019 272.819 158.004 272.806 157.991C272.793 157.977 272.778 157.967 272.76 157.96C272.743 157.953 272.725 157.949 272.707 157.949ZM273.831 157.107H273.409C273.372 157.107 273.336 157.121 273.31 157.148C273.283 157.174 273.268 157.21 273.268 157.247V160.62C273.268 160.658 273.283 160.693 273.31 160.72C273.336 160.746 273.372 160.761 273.409 160.761H273.831C273.868 160.761 273.903 160.746 273.929 160.719C273.956 160.693 273.97 160.657 273.97 160.62V157.248C273.97 157.21 273.956 157.175 273.929 157.148C273.903 157.122 273.867 157.107 273.83 157.107L273.831 157.107ZM274.954 156.264H274.533C274.495 156.264 274.46 156.279 274.433 156.305C274.407 156.332 274.392 156.368 274.392 156.405V160.62C274.392 160.658 274.407 160.693 274.433 160.72C274.46 160.746 274.495 160.761 274.533 160.761H274.954C274.991 160.761 275.027 160.746 275.054 160.72C275.08 160.693 275.095 160.658 275.095 160.62V156.405C275.095 156.368 275.08 156.332 275.054 156.305C275.027 156.279 274.991 156.264 274.954 156.264Z" fill="black"/>
<path d="M169.274 159.026H169.255C169.15 159.077 169.026 159.102 168.883 159.102C168.762 159.102 168.64 159.082 168.516 159.04C168.392 158.999 168.279 158.935 168.177 158.85C168.079 158.76 167.998 158.649 167.934 158.516C167.871 158.379 167.839 158.218 167.839 158.034C167.839 157.85 167.869 157.687 167.929 157.547C167.993 157.404 168.077 157.285 168.182 157.19C168.287 157.094 168.41 157.023 168.549 156.975C168.689 156.924 168.839 156.899 168.998 156.899C169.157 156.899 169.306 156.924 169.446 156.975C169.586 157.026 169.708 157.099 169.813 157.195C169.918 157.29 170.001 157.404 170.061 157.538C170.125 157.671 170.157 157.821 170.157 157.986C170.157 158.091 170.149 158.187 170.133 158.272C170.117 158.358 170.093 158.441 170.061 158.52C170.033 158.597 169.998 158.673 169.956 158.749C169.915 158.826 169.869 158.904 169.818 158.983L168.964 160.333H168.425L169.274 159.026ZM169.699 158.001C169.699 157.899 169.681 157.805 169.646 157.719C169.615 157.633 169.567 157.56 169.503 157.5C169.443 157.436 169.37 157.387 169.284 157.352C169.198 157.317 169.103 157.299 168.998 157.299C168.893 157.299 168.797 157.317 168.712 157.352C168.626 157.387 168.551 157.436 168.487 157.5C168.427 157.56 168.379 157.633 168.344 157.719C168.313 157.805 168.297 157.899 168.297 158.001C168.297 158.102 168.313 158.196 168.344 158.282C168.379 158.368 168.427 158.443 168.487 158.506C168.551 158.567 168.626 158.614 168.712 158.649C168.797 158.684 168.893 158.702 168.998 158.702C169.103 158.702 169.198 158.684 169.284 158.649C169.37 158.614 169.443 158.567 169.503 158.506C169.567 158.443 169.615 158.368 169.646 158.282C169.681 158.196 169.699 158.102 169.699 158.001ZM170.985 158.673C170.899 158.673 170.824 158.643 170.761 158.582C170.7 158.519 170.67 158.444 170.67 158.358C170.67 158.272 170.7 158.199 170.761 158.139C170.824 158.075 170.899 158.043 170.985 158.043C171.071 158.043 171.144 158.075 171.204 158.139C171.268 158.199 171.3 158.272 171.3 158.358C171.3 158.444 171.268 158.519 171.204 158.582C171.144 158.643 171.071 158.673 170.985 158.673ZM170.67 160.047C170.67 159.961 170.7 159.888 170.761 159.827C170.824 159.764 170.899 159.732 170.985 159.732C171.071 159.732 171.144 159.764 171.204 159.827C171.268 159.888 171.3 159.961 171.3 160.047C171.3 160.132 171.268 160.207 171.204 160.271C171.144 160.331 171.071 160.361 170.985 160.361C170.899 160.361 170.824 160.331 170.761 160.271C170.7 160.207 170.67 160.132 170.67 160.047ZM173.252 159.589H171.812V159.121L173.157 156.956H173.71V159.188H174.187V159.589H173.71V160.333H173.252V159.589ZM173.252 157.5H173.242L172.212 159.188H173.252V157.5ZM175.587 157.481L174.967 158.053L174.7 157.733L175.64 156.956H176.045V160.333H175.587V157.481Z" fill="black"/>
</g>
<path d="M204.536 183.734C204.536 184.219 204.419 184.674 204.185 185.099C203.96 185.524 203.6 185.866 203.106 186.126C202.621 186.386 202.006 186.516 201.26 186.516H199.739V190H197.919V180.926H201.26C201.962 180.926 202.56 181.047 203.054 181.29C203.548 181.533 203.917 181.866 204.159 182.291C204.411 182.716 204.536 183.197 204.536 183.734ZM201.182 185.047C201.685 185.047 202.058 184.934 202.3 184.709C202.543 184.475 202.664 184.15 202.664 183.734C202.664 182.85 202.17 182.408 201.182 182.408H199.739V185.047H201.182ZM205.361 186.373C205.361 185.645 205.504 184.999 205.79 184.436C206.084 183.873 206.479 183.439 206.973 183.136C207.475 182.833 208.034 182.681 208.65 182.681C209.187 182.681 209.655 182.789 210.054 183.006C210.461 183.223 210.786 183.496 211.029 183.825V182.798H212.862V190H211.029V188.947C210.795 189.285 210.47 189.567 210.054 189.792C209.646 190.009 209.174 190.117 208.637 190.117C208.03 190.117 207.475 189.961 206.973 189.649C206.479 189.337 206.084 188.899 205.79 188.336C205.504 187.764 205.361 187.11 205.361 186.373ZM211.029 186.399C211.029 185.957 210.942 185.58 210.769 185.268C210.595 184.947 210.361 184.705 210.067 184.54C209.772 184.367 209.456 184.28 209.118 184.28C208.78 184.28 208.468 184.362 208.182 184.527C207.896 184.692 207.662 184.934 207.48 185.255C207.306 185.567 207.22 185.94 207.22 186.373C207.22 186.806 207.306 187.188 207.48 187.517C207.662 187.838 207.896 188.085 208.182 188.258C208.476 188.431 208.788 188.518 209.118 188.518C209.456 188.518 209.772 188.436 210.067 188.271C210.361 188.098 210.595 187.855 210.769 187.543C210.942 187.222 211.029 186.841 211.029 186.399ZM221.529 182.798L217.07 193.406H215.133L216.693 189.818L213.807 182.798H215.848L217.707 187.829L219.592 182.798H221.529ZM231.454 182.694C232.338 182.694 233.049 182.967 233.586 183.513C234.132 184.05 234.405 184.804 234.405 185.775V190H232.585V186.022C232.585 185.459 232.442 185.03 232.156 184.735C231.87 184.432 231.48 184.28 230.986 184.28C230.492 184.28 230.098 184.432 229.803 184.735C229.517 185.03 229.374 185.459 229.374 186.022V190H227.554V186.022C227.554 185.459 227.411 185.03 227.125 184.735C226.839 184.432 226.449 184.28 225.955 184.28C225.453 184.28 225.054 184.432 224.759 184.735C224.473 185.03 224.33 185.459 224.33 186.022V190H222.51V182.798H224.33V183.669C224.564 183.366 224.863 183.127 225.227 182.954C225.6 182.781 226.007 182.694 226.449 182.694C227.013 182.694 227.515 182.815 227.957 183.058C228.399 183.292 228.742 183.63 228.984 184.072C229.218 183.656 229.556 183.322 229.998 183.071C230.449 182.82 230.934 182.694 231.454 182.694ZM242.827 186.243C242.827 186.503 242.81 186.737 242.775 186.945H237.51C237.554 187.465 237.736 187.872 238.056 188.167C238.377 188.462 238.771 188.609 239.239 188.609C239.915 188.609 240.396 188.319 240.682 187.738H242.645C242.437 188.431 242.039 189.003 241.449 189.454C240.86 189.896 240.136 190.117 239.278 190.117C238.585 190.117 237.961 189.965 237.406 189.662C236.86 189.35 236.431 188.912 236.119 188.349C235.816 187.786 235.664 187.136 235.664 186.399C235.664 185.654 235.816 184.999 236.119 184.436C236.423 183.873 236.847 183.439 237.393 183.136C237.939 182.833 238.568 182.681 239.278 182.681C239.963 182.681 240.574 182.828 241.111 183.123C241.657 183.418 242.078 183.838 242.372 184.384C242.676 184.921 242.827 185.541 242.827 186.243ZM240.942 185.723C240.934 185.255 240.765 184.882 240.435 184.605C240.106 184.319 239.703 184.176 239.226 184.176C238.776 184.176 238.394 184.315 238.082 184.592C237.779 184.861 237.593 185.238 237.523 185.723H240.942ZM248.147 182.694C249.005 182.694 249.698 182.967 250.227 183.513C250.755 184.05 251.02 184.804 251.02 185.775V190H249.2V186.022C249.2 185.45 249.057 185.012 248.771 184.709C248.485 184.397 248.095 184.241 247.601 184.241C247.098 184.241 246.699 184.397 246.405 184.709C246.119 185.012 245.976 185.45 245.976 186.022V190H244.156V182.798H245.976V183.695C246.218 183.383 246.526 183.14 246.899 182.967C247.28 182.785 247.696 182.694 248.147 182.694ZM254.87 184.293V187.777C254.87 188.02 254.926 188.197 255.039 188.31C255.16 188.414 255.359 188.466 255.637 188.466H256.482V190H255.338C253.804 190 253.037 189.255 253.037 187.764V184.293H252.179V182.798H253.037V181.017H254.87V182.798H256.482V184.293H254.87ZM260.547 190.117C259.957 190.117 259.429 190.013 258.961 189.805C258.493 189.588 258.12 189.298 257.843 188.934C257.574 188.57 257.427 188.167 257.401 187.725H259.234C259.268 188.002 259.403 188.232 259.637 188.414C259.879 188.596 260.178 188.687 260.534 188.687C260.88 188.687 261.149 188.618 261.34 188.479C261.539 188.34 261.639 188.163 261.639 187.946C261.639 187.712 261.517 187.539 261.275 187.426C261.041 187.305 260.664 187.175 260.144 187.036C259.606 186.906 259.164 186.772 258.818 186.633C258.48 186.494 258.185 186.282 257.934 185.996C257.691 185.71 257.57 185.324 257.57 184.839C257.57 184.44 257.682 184.076 257.908 183.747C258.142 183.418 258.471 183.158 258.896 182.967C259.329 182.776 259.836 182.681 260.417 182.681C261.275 182.681 261.959 182.898 262.471 183.331C262.982 183.756 263.264 184.332 263.316 185.06H261.574C261.548 184.774 261.426 184.549 261.21 184.384C261.002 184.211 260.72 184.124 260.365 184.124C260.035 184.124 259.78 184.185 259.598 184.306C259.424 184.427 259.338 184.596 259.338 184.813C259.338 185.056 259.459 185.242 259.702 185.372C259.944 185.493 260.321 185.619 260.833 185.749C261.353 185.879 261.782 186.013 262.12 186.152C262.458 186.291 262.748 186.507 262.991 186.802C263.242 187.088 263.372 187.469 263.381 187.946C263.381 188.362 263.264 188.735 263.03 189.064C262.804 189.393 262.475 189.653 262.042 189.844C261.617 190.026 261.119 190.117 260.547 190.117Z" fill="#2C2C2C"/>
<path d="M168.809 184.992L172.781 181.218C172.922 181.084 173 180.902 173 180.713C173 180.524 172.92 180.342 172.779 180.208C172.639 180.075 172.448 180 172.249 180C172.05 180 171.859 180.076 171.719 180.21L167.218 184.492C167.082 184.622 167.004 184.797 167 184.98C166.996 185.164 167.067 185.341 167.197 185.477L171.715 189.79C171.856 189.924 172.047 190 172.245 190C172.444 190 172.635 189.925 172.776 189.792C172.917 189.658 172.996 189.476 172.997 189.287C172.997 189.098 172.918 188.916 172.778 188.782L168.809 184.992Z" fill="#2C2C2C"/>
<rect x="167" y="241" width="128" height="31" rx="5" fill="white"/>
<rect x="167" y="277" width="128" height="31" rx="5" fill="white"/>
<rect x="167" y="313" width="128" height="31" rx="5" fill="white"/>
<rect x="167" y="349" width="128" height="31" rx="5" fill="white"/>
<rect x="166" y="204" width="129" height="22" rx="4" fill="white"/>
<path d="M171.884 257.06C171.54 257.06 171.236 256.992 170.972 256.856C170.712 256.72 170.488 256.516 170.3 256.244L170.744 255.734C170.94 256.014 171.128 256.208 171.308 256.316C171.488 256.424 171.702 256.478 171.95 256.478C172.102 256.478 172.24 256.454 172.364 256.406C172.488 256.358 172.586 256.292 172.658 256.208C172.73 256.124 172.766 256.028 172.766 255.92C172.766 255.848 172.754 255.78 172.73 255.716C172.706 255.652 172.668 255.594 172.616 255.542C172.568 255.49 172.504 255.442 172.424 255.398C172.348 255.354 172.258 255.316 172.154 255.284C172.05 255.248 171.93 255.218 171.794 255.194C171.506 255.138 171.266 255.054 171.074 254.942C170.886 254.83 170.744 254.688 170.648 254.516C170.556 254.344 170.51 254.144 170.51 253.916C170.51 253.748 170.546 253.592 170.618 253.448C170.694 253.304 170.796 253.18 170.924 253.076C171.056 252.968 171.21 252.886 171.386 252.83C171.562 252.77 171.752 252.74 171.956 252.74C172.28 252.74 172.562 252.804 172.802 252.932C173.046 253.056 173.238 253.238 173.378 253.478L172.922 253.928C172.802 253.732 172.658 253.582 172.49 253.478C172.326 253.374 172.142 253.322 171.938 253.322C171.782 253.322 171.646 253.346 171.53 253.394C171.414 253.442 171.322 253.51 171.254 253.598C171.19 253.682 171.158 253.782 171.158 253.898C171.158 253.982 171.174 254.06 171.206 254.132C171.238 254.2 171.286 254.262 171.35 254.318C171.418 254.37 171.508 254.418 171.62 254.462C171.732 254.502 171.866 254.538 172.022 254.57C172.242 254.618 172.438 254.68 172.61 254.756C172.782 254.828 172.928 254.914 173.048 255.014C173.168 255.114 173.258 255.226 173.318 255.35C173.382 255.474 173.414 255.608 173.414 255.752C173.414 256.02 173.352 256.252 173.228 256.448C173.104 256.644 172.928 256.796 172.7 256.904C172.472 257.008 172.2 257.06 171.884 257.06ZM171.524 257.546V254.822L172.106 255.02V257.546H171.524ZM172.346 255.02L171.764 254.822V252.308H172.346V255.02ZM175.046 256.706V253.298L175.268 253.466L174.44 253.904L174.266 253.34L175.388 252.74H175.7V256.706H175.046ZM174.38 257V256.376H176.384V257H174.38ZM177.272 258.074L177.044 257.798C177.184 257.718 177.298 257.626 177.386 257.522C177.474 257.418 177.518 257.328 177.518 257.252C177.518 257.212 177.508 257.172 177.488 257.132C177.468 257.096 177.426 257.044 177.362 256.976C177.282 256.9 177.23 256.836 177.206 256.784C177.182 256.732 177.17 256.676 177.17 256.616C177.17 256.52 177.204 256.444 177.272 256.388C177.34 256.328 177.428 256.298 177.536 256.298C177.636 256.298 177.726 256.328 177.806 256.388C177.89 256.444 177.954 256.524 177.998 256.628C178.046 256.728 178.07 256.844 178.07 256.976C178.07 257.096 178.05 257.212 178.01 257.324C177.97 257.436 177.914 257.54 177.842 257.636C177.77 257.732 177.686 257.818 177.59 257.894C177.494 257.97 177.388 258.03 177.272 258.074ZM180.162 257.06C179.842 257.06 179.566 256.972 179.334 256.796C179.106 256.62 178.93 256.372 178.806 256.052C178.682 255.728 178.62 255.344 178.62 254.9C178.62 254.456 178.682 254.074 178.806 253.754C178.93 253.43 179.106 253.18 179.334 253.004C179.566 252.828 179.842 252.74 180.162 252.74C180.482 252.74 180.758 252.828 180.99 253.004C181.222 253.18 181.4 253.43 181.524 253.754C181.648 254.074 181.71 254.456 181.71 254.9C181.71 255.344 181.648 255.728 181.524 256.052C181.4 256.372 181.222 256.62 180.99 256.796C180.758 256.972 180.482 257.06 180.162 257.06ZM180.162 256.472C180.454 256.472 180.68 256.336 180.84 256.064C181 255.788 181.08 255.4 181.08 254.9C181.08 254.4 181 254.014 180.84 253.742C180.68 253.466 180.454 253.328 180.162 253.328C179.87 253.328 179.644 253.466 179.484 253.742C179.324 254.014 179.244 254.4 179.244 254.9C179.244 255.4 179.324 255.788 179.484 256.064C179.644 256.336 179.87 256.472 180.162 256.472ZM183.806 257.06C183.486 257.06 183.21 256.972 182.978 256.796C182.75 256.62 182.574 256.372 182.45 256.052C182.326 255.728 182.264 255.344 182.264 254.9C182.264 254.456 182.326 254.074 182.45 253.754C182.574 253.43 182.75 253.18 182.978 253.004C183.21 252.828 183.486 252.74 183.806 252.74C184.126 252.74 184.402 252.828 184.634 253.004C184.866 253.18 185.044 253.43 185.168 253.754C185.292 254.074 185.354 254.456 185.354 254.9C185.354 255.344 185.292 255.728 185.168 256.052C185.044 256.372 184.866 256.62 184.634 256.796C184.402 256.972 184.126 257.06 183.806 257.06ZM183.806 256.472C184.098 256.472 184.324 256.336 184.484 256.064C184.644 255.788 184.724 255.4 184.724 254.9C184.724 254.4 184.644 254.014 184.484 253.742C184.324 253.466 184.098 253.328 183.806 253.328C183.514 253.328 183.288 253.466 183.128 253.742C182.968 254.014 182.888 254.4 182.888 254.9C182.888 255.4 182.968 255.788 183.128 256.064C183.288 256.336 183.514 256.472 183.806 256.472ZM187.451 257.06C187.131 257.06 186.855 256.972 186.623 256.796C186.395 256.62 186.219 256.372 186.095 256.052C185.971 255.728 185.909 255.344 185.909 254.9C185.909 254.456 185.971 254.074 186.095 253.754C186.219 253.43 186.395 253.18 186.623 253.004C186.855 252.828 187.131 252.74 187.451 252.74C187.771 252.74 188.047 252.828 188.279 253.004C188.511 253.18 188.689 253.43 188.813 253.754C188.937 254.074 188.999 254.456 188.999 254.9C188.999 255.344 188.937 255.728 188.813 256.052C188.689 256.372 188.511 256.62 188.279 256.796C188.047 256.972 187.771 257.06 187.451 257.06ZM187.451 256.472C187.743 256.472 187.969 256.336 188.129 256.064C188.289 255.788 188.369 255.4 188.369 254.9C188.369 254.4 188.289 254.014 188.129 253.742C187.969 253.466 187.743 253.328 187.451 253.328C187.159 253.328 186.933 253.466 186.773 253.742C186.613 254.014 186.533 254.4 186.533 254.9C186.533 255.4 186.613 255.788 186.773 256.064C186.933 256.336 187.159 256.472 187.451 256.472Z" fill="black"/>
<path d="M171.884 293.06C171.54 293.06 171.236 292.992 170.972 292.856C170.712 292.72 170.488 292.516 170.3 292.244L170.744 291.734C170.94 292.014 171.128 292.208 171.308 292.316C171.488 292.424 171.702 292.478 171.95 292.478C172.102 292.478 172.24 292.454 172.364 292.406C172.488 292.358 172.586 292.292 172.658 292.208C172.73 292.124 172.766 292.028 172.766 291.92C172.766 291.848 172.754 291.78 172.73 291.716C172.706 291.652 172.668 291.594 172.616 291.542C172.568 291.49 172.504 291.442 172.424 291.398C172.348 291.354 172.258 291.316 172.154 291.284C172.05 291.248 171.93 291.218 171.794 291.194C171.506 291.138 171.266 291.054 171.074 290.942C170.886 290.83 170.744 290.688 170.648 290.516C170.556 290.344 170.51 290.144 170.51 289.916C170.51 289.748 170.546 289.592 170.618 289.448C170.694 289.304 170.796 289.18 170.924 289.076C171.056 288.968 171.21 288.886 171.386 288.83C171.562 288.77 171.752 288.74 171.956 288.74C172.28 288.74 172.562 288.804 172.802 288.932C173.046 289.056 173.238 289.238 173.378 289.478L172.922 289.928C172.802 289.732 172.658 289.582 172.49 289.478C172.326 289.374 172.142 289.322 171.938 289.322C171.782 289.322 171.646 289.346 171.53 289.394C171.414 289.442 171.322 289.51 171.254 289.598C171.19 289.682 171.158 289.782 171.158 289.898C171.158 289.982 171.174 290.06 171.206 290.132C171.238 290.2 171.286 290.262 171.35 290.318C171.418 290.37 171.508 290.418 171.62 290.462C171.732 290.502 171.866 290.538 172.022 290.57C172.242 290.618 172.438 290.68 172.61 290.756C172.782 290.828 172.928 290.914 173.048 291.014C173.168 291.114 173.258 291.226 173.318 291.35C173.382 291.474 173.414 291.608 173.414 291.752C173.414 292.02 173.352 292.252 173.228 292.448C173.104 292.644 172.928 292.796 172.7 292.904C172.472 293.008 172.2 293.06 171.884 293.06ZM171.524 293.546V290.822L172.106 291.02V293.546H171.524ZM172.346 291.02L171.764 290.822V288.308H172.346V291.02ZM174.302 293L174.104 292.508L175.388 291.062C175.456 290.99 175.526 290.908 175.598 290.816C175.674 290.72 175.746 290.622 175.814 290.522C175.882 290.422 175.936 290.324 175.976 290.228C176.02 290.128 176.042 290.034 176.042 289.946C176.042 289.818 176.016 289.71 175.964 289.622C175.916 289.53 175.844 289.46 175.748 289.412C175.656 289.364 175.544 289.34 175.412 289.34C175.296 289.34 175.182 289.374 175.07 289.442C174.958 289.51 174.856 289.606 174.764 289.73C174.672 289.854 174.6 289.998 174.548 290.162L174.05 289.85C174.118 289.618 174.22 289.42 174.356 289.256C174.496 289.088 174.662 288.96 174.854 288.872C175.05 288.784 175.262 288.74 175.49 288.74C175.726 288.74 175.936 288.79 176.12 288.89C176.304 288.986 176.448 289.122 176.552 289.298C176.656 289.47 176.708 289.67 176.708 289.898C176.708 289.99 176.698 290.084 176.678 290.18C176.658 290.276 176.626 290.376 176.582 290.48C176.538 290.58 176.482 290.686 176.414 290.798C176.346 290.906 176.264 291.02 176.168 291.14C176.076 291.26 175.97 291.386 175.85 291.518L174.896 292.556L174.776 292.376H176.84V293H174.302ZM178.849 293.06C178.529 293.06 178.253 292.972 178.021 292.796C177.793 292.62 177.617 292.372 177.493 292.052C177.369 291.728 177.307 291.344 177.307 290.9C177.307 290.456 177.369 290.074 177.493 289.754C177.617 289.43 177.793 289.18 178.021 289.004C178.253 288.828 178.529 288.74 178.849 288.74C179.169 288.74 179.445 288.828 179.677 289.004C179.909 289.18 180.087 289.43 180.211 289.754C180.335 290.074 180.397 290.456 180.397 290.9C180.397 291.344 180.335 291.728 180.211 292.052C180.087 292.372 179.909 292.62 179.677 292.796C179.445 292.972 179.169 293.06 178.849 293.06ZM178.849 292.472C179.141 292.472 179.367 292.336 179.527 292.064C179.687 291.788 179.767 291.4 179.767 290.9C179.767 290.4 179.687 290.014 179.527 289.742C179.367 289.466 179.141 289.328 178.849 289.328C178.557 289.328 178.331 289.466 178.171 289.742C178.011 290.014 177.931 290.4 177.931 290.9C177.931 291.4 178.011 291.788 178.171 292.064C178.331 292.336 178.557 292.472 178.849 292.472ZM181.204 294.074L180.976 293.798C181.116 293.718 181.23 293.626 181.318 293.522C181.406 293.418 181.45 293.328 181.45 293.252C181.45 293.212 181.44 293.172 181.42 293.132C181.4 293.096 181.358 293.044 181.294 292.976C181.214 292.9 181.162 292.836 181.138 292.784C181.114 292.732 181.102 292.676 181.102 292.616C181.102 292.52 181.136 292.444 181.204 292.388C181.272 292.328 181.36 292.298 181.468 292.298C181.568 292.298 181.658 292.328 181.738 292.388C181.822 292.444 181.886 292.524 181.93 292.628C181.978 292.728 182.002 292.844 182.002 292.976C182.002 293.096 181.982 293.212 181.942 293.324C181.902 293.436 181.846 293.54 181.774 293.636C181.702 293.732 181.618 293.818 181.522 293.894C181.426 293.97 181.32 294.03 181.204 294.074ZM184.093 293.06C183.773 293.06 183.497 292.972 183.265 292.796C183.037 292.62 182.861 292.372 182.737 292.052C182.613 291.728 182.551 291.344 182.551 290.9C182.551 290.456 182.613 290.074 182.737 289.754C182.861 289.43 183.037 289.18 183.265 289.004C183.497 288.828 183.773 288.74 184.093 288.74C184.413 288.74 184.689 288.828 184.921 289.004C185.153 289.18 185.331 289.43 185.455 289.754C185.579 290.074 185.641 290.456 185.641 290.9C185.641 291.344 185.579 291.728 185.455 292.052C185.331 292.372 185.153 292.62 184.921 292.796C184.689 292.972 184.413 293.06 184.093 293.06ZM184.093 292.472C184.385 292.472 184.611 292.336 184.771 292.064C184.931 291.788 185.011 291.4 185.011 290.9C185.011 290.4 184.931 290.014 184.771 289.742C184.611 289.466 184.385 289.328 184.093 289.328C183.801 289.328 183.575 289.466 183.415 289.742C183.255 290.014 183.175 290.4 183.175 290.9C183.175 291.4 183.255 291.788 183.415 292.064C183.575 292.336 183.801 292.472 184.093 292.472ZM187.738 293.06C187.418 293.06 187.142 292.972 186.91 292.796C186.682 292.62 186.506 292.372 186.382 292.052C186.258 291.728 186.196 291.344 186.196 290.9C186.196 290.456 186.258 290.074 186.382 289.754C186.506 289.43 186.682 289.18 186.91 289.004C187.142 288.828 187.418 288.74 187.738 288.74C188.058 288.74 188.334 288.828 188.566 289.004C188.798 289.18 188.976 289.43 189.1 289.754C189.224 290.074 189.286 290.456 189.286 290.9C189.286 291.344 189.224 291.728 189.1 292.052C188.976 292.372 188.798 292.62 188.566 292.796C188.334 292.972 188.058 293.06 187.738 293.06ZM187.738 292.472C188.03 292.472 188.256 292.336 188.416 292.064C188.576 291.788 188.656 291.4 188.656 290.9C188.656 290.4 188.576 290.014 188.416 289.742C188.256 289.466 188.03 289.328 187.738 289.328C187.446 289.328 187.22 289.466 187.06 289.742C186.9 290.014 186.82 290.4 186.82 290.9C186.82 291.4 186.9 291.788 187.06 292.064C187.22 292.336 187.446 292.472 187.738 292.472ZM191.382 293.06C191.062 293.06 190.786 292.972 190.554 292.796C190.326 292.62 190.15 292.372 190.026 292.052C189.902 291.728 189.84 291.344 189.84 290.9C189.84 290.456 189.902 290.074 190.026 289.754C190.15 289.43 190.326 289.18 190.554 289.004C190.786 288.828 191.062 288.74 191.382 288.74C191.702 288.74 191.978 288.828 192.21 289.004C192.442 289.18 192.62 289.43 192.744 289.754C192.868 290.074 192.93 290.456 192.93 290.9C192.93 291.344 192.868 291.728 192.744 292.052C192.62 292.372 192.442 292.62 192.21 292.796C191.978 292.972 191.702 293.06 191.382 293.06ZM191.382 292.472C191.674 292.472 191.9 292.336 192.06 292.064C192.22 291.788 192.3 291.4 192.3 290.9C192.3 290.4 192.22 290.014 192.06 289.742C191.9 289.466 191.674 289.328 191.382 289.328C191.09 289.328 190.864 289.466 190.704 289.742C190.544 290.014 190.464 290.4 190.464 290.9C190.464 291.4 190.544 291.788 190.704 292.064C190.864 292.336 191.09 292.472 191.382 292.472Z" fill="black"/>
<path d="M171.884 329.06C171.54 329.06 171.236 328.992 170.972 328.856C170.712 328.72 170.488 328.516 170.3 328.244L170.744 327.734C170.94 328.014 171.128 328.208 171.308 328.316C171.488 328.424 171.702 328.478 171.95 328.478C172.102 328.478 172.24 328.454 172.364 328.406C172.488 328.358 172.586 328.292 172.658 328.208C172.73 328.124 172.766 328.028 172.766 327.92C172.766 327.848 172.754 327.78 172.73 327.716C172.706 327.652 172.668 327.594 172.616 327.542C172.568 327.49 172.504 327.442 172.424 327.398C172.348 327.354 172.258 327.316 172.154 327.284C172.05 327.248 171.93 327.218 171.794 327.194C171.506 327.138 171.266 327.054 171.074 326.942C170.886 326.83 170.744 326.688 170.648 326.516C170.556 326.344 170.51 326.144 170.51 325.916C170.51 325.748 170.546 325.592 170.618 325.448C170.694 325.304 170.796 325.18 170.924 325.076C171.056 324.968 171.21 324.886 171.386 324.83C171.562 324.77 171.752 324.74 171.956 324.74C172.28 324.74 172.562 324.804 172.802 324.932C173.046 325.056 173.238 325.238 173.378 325.478L172.922 325.928C172.802 325.732 172.658 325.582 172.49 325.478C172.326 325.374 172.142 325.322 171.938 325.322C171.782 325.322 171.646 325.346 171.53 325.394C171.414 325.442 171.322 325.51 171.254 325.598C171.19 325.682 171.158 325.782 171.158 325.898C171.158 325.982 171.174 326.06 171.206 326.132C171.238 326.2 171.286 326.262 171.35 326.318C171.418 326.37 171.508 326.418 171.62 326.462C171.732 326.502 171.866 326.538 172.022 326.57C172.242 326.618 172.438 326.68 172.61 326.756C172.782 326.828 172.928 326.914 173.048 327.014C173.168 327.114 173.258 327.226 173.318 327.35C173.382 327.474 173.414 327.608 173.414 327.752C173.414 328.02 173.352 328.252 173.228 328.448C173.104 328.644 172.928 328.796 172.7 328.904C172.472 329.008 172.2 329.06 171.884 329.06ZM171.524 329.546V326.822L172.106 327.02V329.546H171.524ZM172.346 327.02L171.764 326.822V324.308H172.346V327.02ZM175.25 329.06C174.954 329.06 174.696 328.992 174.476 328.856C174.26 328.72 174.056 328.492 173.864 328.172L174.368 327.854C174.468 328.002 174.566 328.124 174.662 328.22C174.762 328.312 174.864 328.38 174.968 328.424C175.072 328.468 175.182 328.49 175.298 328.49C175.438 328.49 175.568 328.456 175.688 328.388C175.808 328.316 175.904 328.218 175.976 328.094C176.048 327.97 176.084 327.83 176.084 327.674C176.084 327.518 176.056 327.386 176 327.278C175.944 327.166 175.862 327.082 175.754 327.026C175.646 326.966 175.518 326.936 175.37 326.936C175.302 326.936 175.23 326.944 175.154 326.96C175.082 326.972 175.004 326.992 174.92 327.02C174.836 327.044 174.744 327.076 174.644 327.116L174.464 326.642L175.76 325.214L175.886 325.4H174.098V324.8H176.504L176.624 325.04L175.25 326.564L175.1 326.408C175.132 326.392 175.184 326.378 175.256 326.366C175.332 326.35 175.394 326.342 175.442 326.342C175.618 326.342 175.782 326.376 175.934 326.444C176.09 326.508 176.224 326.6 176.336 326.72C176.452 326.836 176.542 326.974 176.606 327.134C176.674 327.29 176.708 327.458 176.708 327.638C176.708 327.91 176.642 328.154 176.51 328.37C176.382 328.582 176.208 328.75 175.988 328.874C175.768 328.998 175.522 329.06 175.25 329.06ZM177.448 330.074L177.22 329.798C177.36 329.718 177.474 329.626 177.562 329.522C177.65 329.418 177.694 329.328 177.694 329.252C177.694 329.212 177.684 329.172 177.664 329.132C177.644 329.096 177.602 329.044 177.538 328.976C177.458 328.9 177.406 328.836 177.382 328.784C177.358 328.732 177.346 328.676 177.346 328.616C177.346 328.52 177.38 328.444 177.448 328.388C177.516 328.328 177.604 328.298 177.712 328.298C177.812 328.298 177.902 328.328 177.982 328.388C178.066 328.444 178.13 328.524 178.174 328.628C178.222 328.728 178.246 328.844 178.246 328.976C178.246 329.096 178.226 329.212 178.186 329.324C178.146 329.436 178.09 329.54 178.018 329.636C177.946 329.732 177.862 329.818 177.766 329.894C177.67 329.97 177.564 330.03 177.448 330.074ZM180.254 329.018C179.994 329.018 179.756 328.964 179.54 328.856C179.328 328.744 179.158 328.596 179.03 328.412C178.902 328.228 178.838 328.024 178.838 327.8C178.838 327.676 178.854 327.56 178.886 327.452C178.922 327.34 178.974 327.238 179.042 327.146C179.114 327.054 179.2 326.97 179.3 326.894C179.4 326.818 179.516 326.75 179.648 326.69L179.612 326.816C179.508 326.776 179.414 326.728 179.33 326.672C179.25 326.612 179.18 326.544 179.12 326.468C179.06 326.392 179.014 326.31 178.982 326.222C178.954 326.134 178.94 326.042 178.94 325.946C178.94 325.734 178.998 325.542 179.114 325.37C179.234 325.198 179.392 325.06 179.588 324.956C179.788 324.852 180.01 324.8 180.254 324.8C180.498 324.8 180.718 324.852 180.914 324.956C181.114 325.06 181.272 325.198 181.388 325.37C181.508 325.542 181.568 325.734 181.568 325.946C181.568 326.042 181.552 326.134 181.52 326.222C181.492 326.31 181.45 326.39 181.394 326.462C181.338 326.534 181.266 326.6 181.178 326.66C181.094 326.72 180.998 326.772 180.89 326.816L180.872 326.714C180.992 326.762 181.1 326.824 181.196 326.9C181.296 326.976 181.382 327.062 181.454 327.158C181.526 327.254 181.58 327.356 181.616 327.464C181.656 327.572 181.676 327.684 181.676 327.8C181.676 328.028 181.612 328.234 181.484 328.418C181.356 328.602 181.184 328.748 180.968 328.856C180.756 328.964 180.518 329.018 180.254 329.018ZM180.254 328.418C180.402 328.418 180.534 328.39 180.65 328.334C180.77 328.278 180.864 328.202 180.932 328.106C181 328.01 181.034 327.9 181.034 327.776C181.034 327.644 181 327.528 180.932 327.428C180.864 327.324 180.77 327.242 180.65 327.182C180.534 327.122 180.402 327.092 180.254 327.092C180.106 327.092 179.974 327.122 179.858 327.182C179.742 327.242 179.65 327.324 179.582 327.428C179.514 327.528 179.48 327.644 179.48 327.776C179.48 327.896 179.514 328.004 179.582 328.1C179.65 328.196 179.742 328.274 179.858 328.334C179.974 328.39 180.106 328.418 180.254 328.418ZM180.254 326.516C180.382 326.516 180.496 326.492 180.596 326.444C180.7 326.396 180.78 326.332 180.836 326.252C180.896 326.168 180.926 326.072 180.926 325.964C180.926 325.856 180.896 325.76 180.836 325.676C180.78 325.592 180.7 325.526 180.596 325.478C180.496 325.426 180.382 325.4 180.254 325.4C180.126 325.4 180.01 325.426 179.906 325.478C179.806 325.526 179.726 325.592 179.666 325.676C179.61 325.76 179.582 325.856 179.582 325.964C179.582 326.072 179.61 326.168 179.666 326.252C179.726 326.332 179.806 326.396 179.906 326.444C180.01 326.492 180.126 326.516 180.254 326.516ZM183.536 329.042C183.26 329.042 183.01 328.98 182.786 328.856C182.562 328.728 182.376 328.546 182.228 328.31L182.588 327.908C182.776 328.116 182.94 328.258 183.08 328.334C183.22 328.41 183.372 328.448 183.536 328.448C183.7 328.448 183.848 328.412 183.98 328.34C184.112 328.268 184.216 328.17 184.292 328.046C184.372 327.922 184.412 327.784 184.412 327.632C184.412 327.472 184.374 327.33 184.298 327.206C184.226 327.078 184.128 326.978 184.004 326.906C183.88 326.83 183.74 326.792 183.584 326.792C183.508 326.792 183.436 326.798 183.368 326.81C183.3 326.818 183.218 326.84 183.122 326.876C183.026 326.912 182.9 326.968 182.744 327.044L182.402 326.582L182.648 324.8H184.916V325.4H183.056L183.182 325.286L182.984 326.618L182.834 326.444C182.874 326.404 182.942 326.366 183.038 326.33C183.134 326.29 183.24 326.258 183.356 326.234C183.476 326.206 183.59 326.192 183.698 326.192C183.954 326.192 184.182 326.252 184.382 326.372C184.586 326.488 184.746 326.65 184.862 326.858C184.982 327.066 185.042 327.304 185.042 327.572C185.042 327.848 184.976 328.098 184.844 328.322C184.712 328.542 184.532 328.718 184.304 328.85C184.076 328.978 183.82 329.042 183.536 329.042ZM187.222 329.06C186.902 329.06 186.626 328.972 186.394 328.796C186.166 328.62 185.99 328.372 185.866 328.052C185.742 327.728 185.68 327.344 185.68 326.9C185.68 326.456 185.742 326.074 185.866 325.754C185.99 325.43 186.166 325.18 186.394 325.004C186.626 324.828 186.902 324.74 187.222 324.74C187.542 324.74 187.818 324.828 188.05 325.004C188.282 325.18 188.46 325.43 188.584 325.754C188.708 326.074 188.77 326.456 188.77 326.9C188.77 327.344 188.708 327.728 188.584 328.052C188.46 328.372 188.282 328.62 188.05 328.796C187.818 328.972 187.542 329.06 187.222 329.06ZM187.222 328.472C187.514 328.472 187.74 328.336 187.9 328.064C188.06 327.788 188.14 327.4 188.14 326.9C188.14 326.4 188.06 326.014 187.9 325.742C187.74 325.466 187.514 325.328 187.222 325.328C186.93 325.328 186.704 325.466 186.544 325.742C186.384 326.014 186.304 326.4 186.304 326.9C186.304 327.4 186.384 327.788 186.544 328.064C186.704 328.336 186.93 328.472 187.222 328.472Z" fill="black"/>
<path d="M171.884 365.06C171.54 365.06 171.236 364.992 170.972 364.856C170.712 364.72 170.488 364.516 170.3 364.244L170.744 363.734C170.94 364.014 171.128 364.208 171.308 364.316C171.488 364.424 171.702 364.478 171.95 364.478C172.102 364.478 172.24 364.454 172.364 364.406C172.488 364.358 172.586 364.292 172.658 364.208C172.73 364.124 172.766 364.028 172.766 363.92C172.766 363.848 172.754 363.78 172.73 363.716C172.706 363.652 172.668 363.594 172.616 363.542C172.568 363.49 172.504 363.442 172.424 363.398C172.348 363.354 172.258 363.316 172.154 363.284C172.05 363.248 171.93 363.218 171.794 363.194C171.506 363.138 171.266 363.054 171.074 362.942C170.886 362.83 170.744 362.688 170.648 362.516C170.556 362.344 170.51 362.144 170.51 361.916C170.51 361.748 170.546 361.592 170.618 361.448C170.694 361.304 170.796 361.18 170.924 361.076C171.056 360.968 171.21 360.886 171.386 360.83C171.562 360.77 171.752 360.74 171.956 360.74C172.28 360.74 172.562 360.804 172.802 360.932C173.046 361.056 173.238 361.238 173.378 361.478L172.922 361.928C172.802 361.732 172.658 361.582 172.49 361.478C172.326 361.374 172.142 361.322 171.938 361.322C171.782 361.322 171.646 361.346 171.53 361.394C171.414 361.442 171.322 361.51 171.254 361.598C171.19 361.682 171.158 361.782 171.158 361.898C171.158 361.982 171.174 362.06 171.206 362.132C171.238 362.2 171.286 362.262 171.35 362.318C171.418 362.37 171.508 362.418 171.62 362.462C171.732 362.502 171.866 362.538 172.022 362.57C172.242 362.618 172.438 362.68 172.61 362.756C172.782 362.828 172.928 362.914 173.048 363.014C173.168 363.114 173.258 363.226 173.318 363.35C173.382 363.474 173.414 363.608 173.414 363.752C173.414 364.02 173.352 364.252 173.228 364.448C173.104 364.644 172.928 364.796 172.7 364.904C172.472 365.008 172.2 365.06 171.884 365.06ZM171.524 365.546V362.822L172.106 363.02V365.546H171.524ZM172.346 363.02L171.764 362.822V360.308H172.346V363.02ZM175.856 365V361.616L176.006 361.652L174.626 363.338L174.602 363.266H177.212V363.86H174.2L173.924 363.32L175.982 360.8H176.48V365H175.856ZM177.993 366.074L177.765 365.798C177.905 365.718 178.019 365.626 178.107 365.522C178.195 365.418 178.239 365.328 178.239 365.252C178.239 365.212 178.229 365.172 178.209 365.132C178.189 365.096 178.147 365.044 178.083 364.976C178.003 364.9 177.951 364.836 177.927 364.784C177.903 364.732 177.891 364.676 177.891 364.616C177.891 364.52 177.925 364.444 177.993 364.388C178.061 364.328 178.149 364.298 178.257 364.298C178.357 364.298 178.447 364.328 178.527 364.388C178.611 364.444 178.675 364.524 178.719 364.628C178.767 364.728 178.791 364.844 178.791 364.976C178.791 365.096 178.771 365.212 178.731 365.324C178.691 365.436 178.635 365.54 178.563 365.636C178.491 365.732 178.407 365.818 178.311 365.894C178.215 365.97 178.109 366.03 177.993 366.074ZM179.736 365L181.476 361.208L181.548 361.4H179.424V360.8H182.022L182.106 361.214L180.432 365H179.736ZM183.822 365.06C183.526 365.06 183.268 364.992 183.048 364.856C182.832 364.72 182.628 364.492 182.436 364.172L182.94 363.854C183.04 364.002 183.138 364.124 183.234 364.22C183.334 364.312 183.436 364.38 183.54 364.424C183.644 364.468 183.754 364.49 183.87 364.49C184.01 364.49 184.14 364.456 184.26 364.388C184.38 364.316 184.476 364.218 184.548 364.094C184.62 363.97 184.656 363.83 184.656 363.674C184.656 363.518 184.628 363.386 184.572 363.278C184.516 363.166 184.434 363.082 184.326 363.026C184.218 362.966 184.09 362.936 183.942 362.936C183.874 362.936 183.802 362.944 183.726 362.96C183.654 362.972 183.576 362.992 183.492 363.02C183.408 363.044 183.316 363.076 183.216 363.116L183.036 362.642L184.332 361.214L184.458 361.4H182.67V360.8H185.076L185.196 361.04L183.822 362.564L183.672 362.408C183.704 362.392 183.756 362.378 183.828 362.366C183.904 362.35 183.966 362.342 184.014 362.342C184.19 362.342 184.354 362.376 184.506 362.444C184.662 362.508 184.796 362.6 184.908 362.72C185.024 362.836 185.114 362.974 185.178 363.134C185.246 363.29 185.28 363.458 185.28 363.638C185.28 363.91 185.214 364.154 185.082 364.37C184.954 364.582 184.78 364.75 184.56 364.874C184.34 364.998 184.094 365.06 183.822 365.06ZM187.31 365.06C186.99 365.06 186.714 364.972 186.482 364.796C186.254 364.62 186.078 364.372 185.954 364.052C185.83 363.728 185.768 363.344 185.768 362.9C185.768 362.456 185.83 362.074 185.954 361.754C186.078 361.43 186.254 361.18 186.482 361.004C186.714 360.828 186.99 360.74 187.31 360.74C187.63 360.74 187.906 360.828 188.138 361.004C188.37 361.18 188.548 361.43 188.672 361.754C188.796 362.074 188.858 362.456 188.858 362.9C188.858 363.344 188.796 363.728 188.672 364.052C188.548 364.372 188.37 364.62 188.138 364.796C187.906 364.972 187.63 365.06 187.31 365.06ZM187.31 364.472C187.602 364.472 187.828 364.336 187.988 364.064C188.148 363.788 188.228 363.4 188.228 362.9C188.228 362.4 188.148 362.014 187.988 361.742C187.828 361.466 187.602 361.328 187.31 361.328C187.018 361.328 186.792 361.466 186.632 361.742C186.472 362.014 186.392 362.4 186.392 362.9C186.392 363.4 186.472 363.788 186.632 364.064C186.792 364.336 187.018 364.472 187.31 364.472Z" fill="black"/>
<path d="M174.588 217V212.8H175.224L176.754 215.29L176.448 215.284L177.996 212.8H178.596V217H177.948V215.278C177.948 214.918 177.956 214.594 177.972 214.306C177.992 214.018 178.024 213.732 178.068 213.448L178.152 213.67L176.778 215.794H176.382L175.05 213.694L175.116 213.448C175.16 213.716 175.19 213.992 175.206 214.276C175.226 214.556 175.236 214.89 175.236 215.278V217H174.588ZM180.146 218.38L180.782 216.91L180.788 217.402L179.216 213.85H179.936L180.92 216.166C180.94 216.206 180.964 216.268 180.992 216.352C181.02 216.432 181.044 216.512 181.064 216.592L180.908 216.628C180.94 216.544 180.97 216.46 180.998 216.376C181.03 216.292 181.06 216.208 181.088 216.124L181.91 213.85H182.642L181.346 217L180.812 218.38H180.146ZM184.942 217V212.8H186.586C186.886 212.8 187.156 212.85 187.396 212.95C187.64 213.05 187.848 213.194 188.02 213.382C188.192 213.57 188.324 213.792 188.416 214.048C188.508 214.304 188.554 214.588 188.554 214.9C188.554 215.212 188.508 215.498 188.416 215.758C188.324 216.014 188.192 216.236 188.02 216.424C187.852 216.608 187.646 216.75 187.402 216.85C187.158 216.95 186.886 217 186.586 217H184.942ZM185.59 216.442L185.572 216.376H186.556C186.768 216.376 186.956 216.342 187.12 216.274C187.288 216.206 187.428 216.11 187.54 215.986C187.656 215.858 187.744 215.702 187.804 215.518C187.864 215.334 187.894 215.128 187.894 214.9C187.894 214.672 187.864 214.468 187.804 214.288C187.744 214.104 187.656 213.948 187.54 213.82C187.424 213.692 187.284 213.594 187.12 213.526C186.956 213.458 186.768 213.424 186.556 213.424H185.554L185.59 213.37V216.442ZM190.378 217.06C190.154 217.06 189.958 217.008 189.79 216.904C189.626 216.8 189.498 216.654 189.406 216.466C189.318 216.278 189.274 216.054 189.274 215.794V213.85H189.892V215.626C189.892 215.81 189.92 215.97 189.976 216.106C190.036 216.238 190.12 216.34 190.228 216.412C190.34 216.484 190.474 216.52 190.63 216.52C190.746 216.52 190.852 216.502 190.948 216.466C191.044 216.426 191.126 216.372 191.194 216.304C191.266 216.236 191.322 216.154 191.362 216.058C191.402 215.962 191.422 215.858 191.422 215.746V213.85H192.04V217H191.422V216.34L191.53 216.268C191.482 216.416 191.4 216.55 191.284 216.67C191.172 216.79 191.038 216.886 190.882 216.958C190.726 217.026 190.558 217.06 190.378 217.06ZM194.377 217.06C194.053 217.06 193.765 216.992 193.513 216.856C193.265 216.716 193.069 216.526 192.925 216.286C192.785 216.046 192.715 215.77 192.715 215.458C192.715 215.21 192.755 214.984 192.835 214.78C192.915 214.576 193.025 214.4 193.165 214.252C193.309 214.1 193.479 213.984 193.675 213.904C193.875 213.82 194.091 213.778 194.323 213.778C194.527 213.778 194.717 213.818 194.893 213.898C195.069 213.974 195.221 214.08 195.349 214.216C195.481 214.352 195.581 214.514 195.649 214.702C195.721 214.886 195.755 215.088 195.751 215.308L195.745 215.572H193.171L193.033 215.08H195.211L195.121 215.182V215.038C195.109 214.906 195.065 214.788 194.989 214.684C194.913 214.58 194.817 214.498 194.701 214.438C194.585 214.378 194.459 214.348 194.323 214.348C194.107 214.348 193.925 214.39 193.777 214.474C193.629 214.554 193.517 214.674 193.441 214.834C193.365 214.99 193.327 215.184 193.327 215.416C193.327 215.636 193.373 215.828 193.465 215.992C193.557 216.152 193.687 216.276 193.855 216.364C194.023 216.452 194.217 216.496 194.437 216.496C194.593 216.496 194.737 216.47 194.869 216.418C195.005 216.366 195.151 216.272 195.307 216.136L195.619 216.574C195.523 216.67 195.405 216.754 195.265 216.826C195.129 216.898 194.983 216.956 194.827 217C194.675 217.04 194.525 217.06 194.377 217.06ZM197.472 217.06C197.208 217.06 196.97 217.014 196.758 216.922C196.546 216.83 196.37 216.694 196.23 216.514L196.65 216.154C196.77 216.294 196.9 216.396 197.04 216.46C197.184 216.52 197.346 216.55 197.526 216.55C197.598 216.55 197.664 216.542 197.724 216.526C197.788 216.506 197.842 216.478 197.886 216.442C197.934 216.406 197.97 216.364 197.994 216.316C198.018 216.264 198.03 216.208 198.03 216.148C198.03 216.044 197.992 215.96 197.916 215.896C197.876 215.868 197.812 215.838 197.724 215.806C197.64 215.77 197.53 215.734 197.394 215.698C197.162 215.638 196.972 215.57 196.824 215.494C196.676 215.418 196.562 215.332 196.482 215.236C196.422 215.16 196.378 215.078 196.35 214.99C196.322 214.898 196.308 214.798 196.308 214.69C196.308 214.558 196.336 214.438 196.392 214.33C196.452 214.218 196.532 214.122 196.632 214.042C196.736 213.958 196.856 213.894 196.992 213.85C197.132 213.806 197.28 213.784 197.436 213.784C197.584 213.784 197.73 213.804 197.874 213.844C198.022 213.884 198.158 213.942 198.282 214.018C198.406 214.094 198.51 214.184 198.594 214.288L198.24 214.678C198.164 214.602 198.08 214.536 197.988 214.48C197.9 214.42 197.81 214.374 197.718 214.342C197.626 214.31 197.542 214.294 197.466 214.294C197.382 214.294 197.306 214.302 197.238 214.318C197.17 214.334 197.112 214.358 197.064 214.39C197.02 214.422 196.986 214.462 196.962 214.51C196.938 214.558 196.926 214.612 196.926 214.672C196.93 214.724 196.942 214.774 196.962 214.822C196.986 214.866 197.018 214.904 197.058 214.936C197.102 214.968 197.168 215.002 197.256 215.038C197.344 215.074 197.456 215.108 197.592 215.14C197.792 215.192 197.956 215.25 198.084 215.314C198.216 215.374 198.32 215.444 198.396 215.524C198.476 215.6 198.532 215.688 198.564 215.788C198.596 215.888 198.612 216 198.612 216.124C198.612 216.304 198.56 216.466 198.456 216.61C198.356 216.75 198.22 216.86 198.048 216.94C197.876 217.02 197.684 217.06 197.472 217.06Z" fill="black"/>
<path d="M221.33 217V212.8H221.978V217H221.33ZM218.588 217V212.8H219.236V217H218.588ZM218.87 215.218V214.594H221.618V215.218H218.87ZM223.098 217V213.85H223.716V217H223.098ZM223.398 213.154C223.266 213.154 223.164 213.12 223.092 213.052C223.02 212.984 222.984 212.888 222.984 212.764C222.984 212.648 223.02 212.554 223.092 212.482C223.168 212.41 223.27 212.374 223.398 212.374C223.53 212.374 223.632 212.408 223.704 212.476C223.776 212.544 223.812 212.64 223.812 212.764C223.812 212.88 223.774 212.974 223.698 213.046C223.626 213.118 223.526 213.154 223.398 213.154ZM225.716 217.06C225.452 217.06 225.214 217.014 225.002 216.922C224.79 216.83 224.614 216.694 224.474 216.514L224.894 216.154C225.014 216.294 225.144 216.396 225.284 216.46C225.428 216.52 225.59 216.55 225.77 216.55C225.842 216.55 225.908 216.542 225.968 216.526C226.032 216.506 226.086 216.478 226.13 216.442C226.178 216.406 226.214 216.364 226.238 216.316C226.262 216.264 226.274 216.208 226.274 216.148C226.274 216.044 226.236 215.96 226.16 215.896C226.12 215.868 226.056 215.838 225.968 215.806C225.884 215.77 225.774 215.734 225.638 215.698C225.406 215.638 225.216 215.57 225.068 215.494C224.92 215.418 224.806 215.332 224.726 215.236C224.666 215.16 224.622 215.078 224.594 214.99C224.566 214.898 224.552 214.798 224.552 214.69C224.552 214.558 224.58 214.438 224.636 214.33C224.696 214.218 224.776 214.122 224.876 214.042C224.98 213.958 225.1 213.894 225.236 213.85C225.376 213.806 225.524 213.784 225.68 213.784C225.828 213.784 225.974 213.804 226.118 213.844C226.266 213.884 226.402 213.942 226.526 214.018C226.65 214.094 226.754 214.184 226.838 214.288L226.484 214.678C226.408 214.602 226.324 214.536 226.232 214.48C226.144 214.42 226.054 214.374 225.962 214.342C225.87 214.31 225.786 214.294 225.71 214.294C225.626 214.294 225.55 214.302 225.482 214.318C225.414 214.334 225.356 214.358 225.308 214.39C225.264 214.422 225.23 214.462 225.206 214.51C225.182 214.558 225.17 214.612 225.17 214.672C225.174 214.724 225.186 214.774 225.206 214.822C225.23 214.866 225.262 214.904 225.302 214.936C225.346 214.968 225.412 215.002 225.5 215.038C225.588 215.074 225.7 215.108 225.836 215.14C226.036 215.192 226.2 215.25 226.328 215.314C226.46 215.374 226.564 215.444 226.64 215.524C226.72 215.6 226.776 215.688 226.808 215.788C226.84 215.888 226.856 216 226.856 216.124C226.856 216.304 226.804 216.466 226.7 216.61C226.6 216.75 226.464 216.86 226.292 216.94C226.12 217.02 225.928 217.06 225.716 217.06ZM227.927 217V213.046H228.545V217H227.927ZM227.273 214.45V213.85H229.277V214.45H227.273ZM231.227 217.06C230.919 217.06 230.643 216.99 230.399 216.85C230.159 216.706 229.969 216.512 229.829 216.268C229.689 216.02 229.619 215.738 229.619 215.422C229.619 215.106 229.689 214.826 229.829 214.582C229.969 214.334 230.159 214.14 230.399 214C230.643 213.856 230.919 213.784 231.227 213.784C231.531 213.784 231.803 213.856 232.043 214C232.287 214.14 232.479 214.334 232.619 214.582C232.759 214.826 232.829 215.106 232.829 215.422C232.829 215.738 232.759 216.02 232.619 216.268C232.479 216.512 232.287 216.706 232.043 216.85C231.803 216.99 231.531 217.06 231.227 217.06ZM231.227 216.496C231.415 216.496 231.583 216.45 231.731 216.358C231.879 216.262 231.995 216.134 232.079 215.974C232.163 215.81 232.203 215.626 232.199 215.422C232.203 215.214 232.163 215.03 232.079 214.87C231.995 214.706 231.879 214.578 231.731 214.486C231.583 214.394 231.415 214.348 231.227 214.348C231.039 214.348 230.869 214.396 230.717 214.492C230.569 214.584 230.453 214.712 230.369 214.876C230.285 215.036 230.245 215.218 230.249 215.422C230.245 215.626 230.285 215.81 230.369 215.974C230.453 216.134 230.569 216.262 230.717 216.358C230.869 216.45 231.039 216.496 231.227 216.496ZM233.502 217V213.85H234.126V214.84L234.066 214.6C234.11 214.448 234.184 214.31 234.288 214.186C234.396 214.062 234.518 213.964 234.654 213.892C234.794 213.82 234.938 213.784 235.086 213.784C235.154 213.784 235.218 213.79 235.278 213.802C235.342 213.814 235.392 213.828 235.428 213.844L235.266 214.516C235.218 214.496 235.164 214.48 235.104 214.468C235.048 214.452 234.992 214.444 234.936 214.444C234.828 214.444 234.724 214.466 234.624 214.51C234.528 214.55 234.442 214.608 234.366 214.684C234.294 214.756 234.236 214.842 234.192 214.942C234.148 215.038 234.126 215.144 234.126 215.26V217H233.502ZM236.45 218.38L237.086 216.91L237.092 217.402L235.52 213.85H236.24L237.224 216.166C237.244 216.206 237.268 216.268 237.296 216.352C237.324 216.432 237.348 216.512 237.368 216.592L237.212 216.628C237.244 216.544 237.274 216.46 237.302 216.376C237.334 216.292 237.364 216.208 237.392 216.124L238.214 213.85H238.946L237.65 217L237.116 218.38H236.45Z" fill="#7A7A7A"/>
<path d="M271.517 259V255.306H273.021C273.222 255.306 273.403 255.357 273.565 255.459C273.73 255.557 273.862 255.693 273.961 255.865C274.059 256.038 274.108 256.229 274.108 256.44C274.108 256.652 274.059 256.843 273.961 257.016C273.862 257.188 273.73 257.327 273.565 257.433C273.403 257.535 273.222 257.586 273.021 257.586H272.087V259H271.517ZM272.087 257.037H273.011C273.106 257.037 273.192 257.01 273.269 256.958C273.347 256.901 273.408 256.829 273.454 256.741C273.503 256.65 273.528 256.55 273.528 256.44C273.528 256.331 273.503 256.233 273.454 256.145C273.408 256.057 273.347 255.987 273.269 255.934C273.192 255.881 273.106 255.855 273.011 255.855H272.087V257.037ZM275.739 259.053C275.511 259.053 275.301 258.989 275.111 258.863C274.925 258.736 274.775 258.564 274.663 258.346C274.55 258.127 274.494 257.881 274.494 257.607C274.494 257.329 274.55 257.083 274.663 256.868C274.779 256.65 274.934 256.479 275.127 256.356C275.324 256.233 275.544 256.171 275.787 256.171C275.931 256.171 276.063 256.192 276.183 256.235C276.302 256.277 276.406 256.337 276.494 256.414C276.585 256.488 276.659 256.574 276.716 256.673C276.775 256.771 276.812 256.877 276.826 256.989L276.705 256.947V256.229H277.254V259H276.705V258.34L276.832 258.303C276.811 258.398 276.767 258.492 276.7 258.583C276.636 258.671 276.554 258.75 276.452 258.821C276.353 258.891 276.242 258.947 276.119 258.989C276 259.032 275.873 259.053 275.739 259.053ZM275.882 258.551C276.047 258.551 276.193 258.511 276.32 258.43C276.446 258.349 276.545 258.238 276.615 258.098C276.689 257.953 276.726 257.79 276.726 257.607C276.726 257.427 276.689 257.267 276.615 257.127C276.545 256.986 276.446 256.875 276.32 256.794C276.193 256.713 276.047 256.673 275.882 256.673C275.72 256.673 275.576 256.713 275.449 256.794C275.326 256.875 275.227 256.986 275.153 257.127C275.083 257.267 275.048 257.427 275.048 257.607C275.048 257.79 275.083 257.953 275.153 258.098C275.227 258.238 275.326 258.349 275.449 258.43C275.576 258.511 275.72 258.551 275.882 258.551ZM278.103 259V256.229H278.646V259H278.103ZM278.366 255.617C278.25 255.617 278.161 255.587 278.097 255.527C278.034 255.468 278.002 255.383 278.002 255.274C278.002 255.172 278.034 255.089 278.097 255.026C278.164 254.963 278.254 254.931 278.366 254.931C278.483 254.931 278.572 254.961 278.636 255.021C278.699 255.081 278.731 255.165 278.731 255.274C278.731 255.376 278.697 255.459 278.63 255.522C278.567 255.586 278.479 255.617 278.366 255.617ZM280.637 259.053C280.384 259.053 280.157 258.991 279.957 258.868C279.76 258.741 279.603 258.571 279.487 258.356C279.371 258.138 279.313 257.89 279.313 257.612C279.313 257.334 279.369 257.088 279.482 256.873C279.598 256.655 279.754 256.484 279.951 256.361C280.148 256.235 280.372 256.171 280.622 256.171C280.759 256.171 280.891 256.194 281.017 256.24C281.148 256.282 281.264 256.342 281.366 256.419C281.468 256.493 281.547 256.576 281.603 256.667C281.663 256.755 281.693 256.845 281.693 256.937L281.535 256.947V255.095H282.078V259H281.535V258.34H281.64C281.64 258.425 281.612 258.509 281.556 258.594C281.499 258.675 281.424 258.75 281.329 258.821C281.237 258.891 281.13 258.947 281.007 258.989C280.887 259.032 280.764 259.053 280.637 259.053ZM280.711 258.583C280.877 258.583 281.023 258.541 281.149 258.456C281.276 258.372 281.374 258.258 281.445 258.113C281.519 257.966 281.556 257.799 281.556 257.612C281.556 257.426 281.519 257.26 281.445 257.116C281.374 256.968 281.276 256.852 281.149 256.768C281.023 256.683 280.877 256.641 280.711 256.641C280.546 256.641 280.4 256.683 280.273 256.768C280.147 256.852 280.046 256.968 279.972 257.116C279.902 257.26 279.867 257.426 279.867 257.612C279.867 257.799 279.902 257.966 279.972 258.113C280.046 258.258 280.147 258.372 280.273 258.456C280.4 258.541 280.546 258.583 280.711 258.583Z" fill="#35CA00"/>
<path d="M266.517 331V327.306H268.021C268.222 327.306 268.403 327.357 268.565 327.459C268.73 327.557 268.862 327.693 268.961 327.865C269.059 328.038 269.108 328.229 269.108 328.44C269.108 328.652 269.059 328.843 268.961 329.016C268.862 329.188 268.73 329.327 268.565 329.433C268.403 329.535 268.222 329.586 268.021 329.586H267.087V331H266.517ZM267.087 329.037H268.011C268.106 329.037 268.192 329.01 268.269 328.958C268.347 328.901 268.408 328.829 268.454 328.741C268.503 328.65 268.528 328.55 268.528 328.44C268.528 328.331 268.503 328.233 268.454 328.145C268.408 328.057 268.347 327.987 268.269 327.934C268.192 327.881 268.106 327.855 268.011 327.855H267.087V329.037ZM270.966 331.053C270.681 331.053 270.428 330.993 270.206 330.873C269.988 330.75 269.816 330.583 269.689 330.372C269.566 330.161 269.504 329.918 269.504 329.644C269.504 329.426 269.54 329.227 269.61 329.047C269.68 328.868 269.777 328.713 269.9 328.583C270.027 328.449 270.176 328.347 270.349 328.277C270.525 328.203 270.715 328.166 270.919 328.166C271.098 328.166 271.265 328.201 271.42 328.272C271.575 328.338 271.709 328.432 271.821 328.551C271.937 328.671 272.025 328.813 272.085 328.979C272.148 329.141 272.178 329.318 272.175 329.512L272.169 329.744H269.905L269.784 329.311H271.7L271.621 329.401V329.274C271.61 329.158 271.571 329.054 271.504 328.963C271.438 328.871 271.353 328.799 271.251 328.747C271.149 328.694 271.038 328.667 270.919 328.667C270.729 328.667 270.569 328.704 270.438 328.778C270.308 328.849 270.21 328.954 270.143 329.095C270.076 329.232 270.043 329.403 270.043 329.607C270.043 329.8 270.083 329.969 270.164 330.113C270.245 330.254 270.359 330.363 270.507 330.441C270.655 330.518 270.825 330.557 271.019 330.557C271.156 330.557 271.283 330.534 271.399 330.488C271.519 330.442 271.647 330.36 271.784 330.24L272.059 330.625C271.974 330.71 271.87 330.784 271.747 330.847C271.628 330.91 271.499 330.961 271.362 331C271.228 331.035 271.096 331.053 270.966 331.053ZM272.765 331V328.229H273.309V328.799L273.214 328.863C273.249 328.74 273.318 328.627 273.42 328.525C273.522 328.419 273.643 328.335 273.784 328.272C273.925 328.205 274.069 328.171 274.217 328.171C274.428 328.171 274.604 328.214 274.744 328.298C274.885 328.379 274.991 328.504 275.061 328.673C275.131 328.842 275.167 329.054 275.167 329.311V331H274.623V329.348C274.623 329.19 274.602 329.06 274.56 328.958C274.518 328.852 274.452 328.776 274.364 328.731C274.277 328.681 274.167 328.66 274.037 328.667C273.932 328.667 273.835 328.685 273.747 328.72C273.659 328.752 273.582 328.798 273.515 328.857C273.451 328.917 273.4 328.988 273.362 329.068C273.327 329.146 273.309 329.23 273.309 329.322V331H273.04C272.994 331 272.948 331 272.903 331C272.857 331 272.811 331 272.765 331ZM277.06 331.053C276.806 331.053 276.58 330.991 276.379 330.868C276.182 330.741 276.025 330.571 275.909 330.356C275.793 330.138 275.735 329.89 275.735 329.612C275.735 329.334 275.791 329.088 275.904 328.873C276.02 328.655 276.177 328.484 276.374 328.361C276.571 328.235 276.794 328.171 277.044 328.171C277.181 328.171 277.313 328.194 277.44 328.24C277.57 328.282 277.686 328.342 277.788 328.419C277.89 328.493 277.969 328.576 278.026 328.667C278.085 328.755 278.115 328.845 278.115 328.937L277.957 328.947V327.095H278.501V331H277.957V330.34H278.063C278.063 330.425 278.034 330.509 277.978 330.594C277.922 330.675 277.846 330.75 277.751 330.821C277.66 330.891 277.552 330.947 277.429 330.989C277.31 331.032 277.186 331.053 277.06 331.053ZM277.134 330.583C277.299 330.583 277.445 330.541 277.572 330.456C277.698 330.372 277.797 330.258 277.867 330.113C277.941 329.966 277.978 329.799 277.978 329.612C277.978 329.426 277.941 329.26 277.867 329.116C277.797 328.968 277.698 328.852 277.572 328.768C277.445 328.683 277.299 328.641 277.134 328.641C276.968 328.641 276.822 328.683 276.696 328.768C276.569 328.852 276.469 328.968 276.395 329.116C276.324 329.26 276.289 329.426 276.289 329.612C276.289 329.799 276.324 329.966 276.395 330.113C276.469 330.258 276.569 330.372 276.696 330.456C276.822 330.541 276.968 330.583 277.134 330.583ZM279.339 331V328.229H279.882V331H279.339ZM279.602 327.617C279.486 327.617 279.397 327.587 279.333 327.527C279.27 327.468 279.238 327.383 279.238 327.274C279.238 327.172 279.27 327.089 279.333 327.026C279.4 326.963 279.49 326.931 279.602 326.931C279.719 326.931 279.808 326.961 279.872 327.021C279.935 327.081 279.967 327.165 279.967 327.274C279.967 327.376 279.933 327.459 279.866 327.522C279.803 327.586 279.715 327.617 279.602 327.617ZM280.718 331V328.229H281.261V328.799L281.166 328.863C281.201 328.74 281.27 328.627 281.372 328.525C281.474 328.419 281.595 328.335 281.736 328.272C281.877 328.205 282.021 328.171 282.169 328.171C282.38 328.171 282.556 328.214 282.697 328.298C282.837 328.379 282.943 328.504 283.013 328.673C283.084 328.842 283.119 329.054 283.119 329.311V331H282.575V329.348C282.575 329.19 282.554 329.06 282.512 328.958C282.47 328.852 282.405 328.776 282.317 328.731C282.229 328.681 282.12 328.66 281.989 328.667C281.884 328.667 281.787 328.685 281.699 328.72C281.611 328.752 281.534 328.798 281.467 328.857C281.404 328.917 281.353 328.988 281.314 329.068C281.279 329.146 281.261 329.23 281.261 329.322V331H280.992C280.946 331 280.901 331 280.855 331C280.809 331 280.763 331 280.718 331ZM285.096 332.214C284.899 332.214 284.702 332.182 284.505 332.119C284.312 332.059 284.155 331.98 284.036 331.881L284.236 331.459C284.307 331.512 284.389 331.558 284.484 331.596C284.579 331.639 284.68 331.67 284.785 331.691C284.891 331.716 284.994 331.728 285.096 331.728C285.29 331.728 285.452 331.697 285.582 331.633C285.712 331.57 285.811 331.477 285.877 331.354C285.944 331.23 285.978 331.077 285.978 330.894V330.361L286.036 330.398C286.018 330.507 285.96 330.613 285.862 330.715C285.767 330.814 285.647 330.894 285.503 330.958C285.359 331.021 285.211 331.053 285.059 331.053C284.796 331.053 284.56 330.991 284.352 330.868C284.148 330.741 283.986 330.571 283.867 330.356C283.747 330.138 283.687 329.89 283.687 329.612C283.687 329.334 283.745 329.088 283.862 328.873C283.981 328.655 284.143 328.484 284.347 328.361C284.555 328.235 284.787 328.171 285.044 328.171C285.149 328.171 285.251 328.185 285.35 328.214C285.448 328.238 285.54 328.275 285.624 328.324C285.709 328.37 285.784 328.421 285.851 328.477C285.918 328.534 285.972 328.594 286.015 328.657C286.057 328.72 286.083 328.78 286.094 328.836L285.978 328.878V328.229H286.521V330.831C286.521 331.053 286.488 331.248 286.421 331.417C286.358 331.589 286.265 331.734 286.141 331.85C286.018 331.969 285.869 332.059 285.693 332.119C285.517 332.182 285.318 332.214 285.096 332.214ZM285.118 330.551C285.29 330.551 285.443 330.511 285.577 330.43C285.71 330.349 285.814 330.238 285.888 330.098C285.962 329.957 285.999 329.795 285.999 329.612C285.999 329.429 285.96 329.267 285.883 329.127C285.809 328.982 285.705 328.87 285.571 328.789C285.441 328.708 285.29 328.667 285.118 328.667C284.949 328.667 284.797 328.71 284.664 328.794C284.534 328.875 284.43 328.988 284.352 329.132C284.278 329.273 284.241 329.433 284.241 329.612C284.241 329.791 284.278 329.953 284.352 330.098C284.43 330.238 284.534 330.349 284.664 330.43C284.797 330.511 284.949 330.551 285.118 330.551Z" fill="#F5B871"/>
<path d="M268.063 367.053C267.803 367.053 267.562 367.005 267.34 366.91C267.122 366.815 266.931 366.683 266.765 366.514C266.603 366.342 266.477 366.142 266.385 365.913C266.297 365.681 266.253 365.427 266.253 365.153C266.253 364.878 266.297 364.627 266.385 364.398C266.477 364.166 266.603 363.965 266.765 363.797C266.931 363.624 267.122 363.491 267.34 363.396C267.562 363.301 267.803 363.253 268.063 363.253C268.324 363.253 268.563 363.301 268.781 363.396C269.003 363.491 269.195 363.624 269.356 363.797C269.522 363.969 269.648 364.171 269.736 364.404C269.828 364.632 269.874 364.882 269.874 365.153C269.874 365.424 269.828 365.675 269.736 365.908C269.648 366.136 269.522 366.337 269.356 366.509C269.195 366.682 269.003 366.815 268.781 366.91C268.563 367.005 268.324 367.053 268.063 367.053ZM268.063 366.499C268.243 366.499 268.406 366.465 268.554 366.398C268.706 366.332 268.836 366.238 268.945 366.119C269.054 365.996 269.138 365.853 269.198 365.691C269.261 365.526 269.293 365.346 269.293 365.153C269.293 364.959 269.261 364.782 269.198 364.62C269.138 364.455 269.054 364.312 268.945 364.192C268.836 364.069 268.706 363.974 268.554 363.907C268.406 363.841 268.243 363.807 268.063 363.807C267.884 363.807 267.719 363.841 267.567 363.907C267.42 363.974 267.289 364.068 267.177 364.187C267.068 364.307 266.983 364.449 266.924 364.615C266.864 364.776 266.834 364.956 266.834 365.153C266.834 365.346 266.864 365.526 266.924 365.691C266.983 365.857 267.068 365.999 267.177 366.119C267.289 366.238 267.42 366.332 267.567 366.398C267.719 366.465 267.884 366.499 268.063 366.499ZM271.416 367L270.244 364.229H270.83L271.674 366.303L271.574 366.351L272.477 364.229H273.036L271.806 367H271.416ZM274.749 367.053C274.464 367.053 274.211 366.993 273.989 366.873C273.771 366.75 273.599 366.583 273.472 366.372C273.349 366.161 273.287 365.918 273.287 365.644C273.287 365.426 273.322 365.227 273.393 365.047C273.463 364.868 273.56 364.713 273.683 364.583C273.81 364.449 273.959 364.347 274.132 364.277C274.307 364.203 274.497 364.166 274.702 364.166C274.881 364.166 275.048 364.201 275.203 364.272C275.358 364.338 275.491 364.432 275.604 364.551C275.72 364.671 275.808 364.813 275.868 364.979C275.931 365.141 275.961 365.318 275.958 365.512L275.952 365.744H273.688L273.567 365.311H275.483L275.403 365.401V365.274C275.393 365.158 275.354 365.054 275.287 364.963C275.22 364.871 275.136 364.799 275.034 364.747C274.932 364.694 274.821 364.667 274.702 364.667C274.512 364.667 274.351 364.704 274.221 364.778C274.091 364.849 273.993 364.954 273.926 365.095C273.859 365.232 273.825 365.403 273.825 365.607C273.825 365.8 273.866 365.969 273.947 366.113C274.028 366.254 274.142 366.363 274.29 366.441C274.438 366.518 274.608 366.557 274.802 366.557C274.939 366.557 275.066 366.534 275.182 366.488C275.301 366.442 275.43 366.36 275.567 366.24L275.841 366.625C275.757 366.71 275.653 366.784 275.53 366.847C275.41 366.91 275.282 366.961 275.145 367C275.011 367.035 274.879 367.053 274.749 367.053ZM276.548 367V364.229H277.097V365.1L277.044 364.889C277.083 364.755 277.148 364.634 277.24 364.525C277.335 364.416 277.442 364.33 277.562 364.266C277.685 364.203 277.811 364.171 277.942 364.171C278.001 364.171 278.058 364.177 278.11 364.187C278.167 364.198 278.211 364.21 278.242 364.224L278.1 364.815C278.058 364.798 278.01 364.783 277.957 364.773C277.908 364.759 277.859 364.752 277.81 364.752C277.715 364.752 277.623 364.771 277.535 364.81C277.451 364.845 277.375 364.896 277.308 364.963C277.245 365.026 277.194 365.102 277.155 365.19C277.116 365.274 277.097 365.368 277.097 365.47V367H276.548ZM279.714 367.053C279.461 367.053 279.234 366.991 279.033 366.868C278.836 366.741 278.68 366.571 278.563 366.356C278.447 366.138 278.389 365.89 278.389 365.612C278.389 365.334 278.446 365.088 278.558 364.873C278.674 364.655 278.831 364.484 279.028 364.361C279.225 364.235 279.448 364.171 279.698 364.171C279.835 364.171 279.967 364.194 280.094 364.24C280.224 364.282 280.34 364.342 280.442 364.419C280.544 364.493 280.623 364.576 280.68 364.667C280.74 364.755 280.769 364.845 280.769 364.937L280.611 364.947V363.095H281.155V367H280.611V366.34H280.717C280.717 366.425 280.689 366.509 280.632 366.594C280.576 366.675 280.5 366.75 280.405 366.821C280.314 366.891 280.207 366.947 280.083 366.989C279.964 367.032 279.841 367.053 279.714 367.053ZM279.788 366.583C279.953 366.583 280.099 366.541 280.226 366.456C280.353 366.372 280.451 366.258 280.521 366.113C280.595 365.966 280.632 365.799 280.632 365.612C280.632 365.426 280.595 365.26 280.521 365.116C280.451 364.968 280.353 364.852 280.226 364.768C280.099 364.683 279.953 364.641 279.788 364.641C279.622 364.641 279.476 364.683 279.35 364.768C279.223 364.852 279.123 364.968 279.049 365.116C278.979 365.26 278.943 365.426 278.943 365.612C278.943 365.799 278.979 365.966 279.049 366.113C279.123 366.258 279.223 366.372 279.35 366.456C279.476 366.541 279.622 366.583 279.788 366.583ZM282.956 367.053C282.759 367.053 282.587 367.007 282.439 366.916C282.295 366.824 282.182 366.696 282.102 366.53C282.024 366.365 281.985 366.168 281.985 365.939V364.229H282.529V365.791C282.529 365.953 282.554 366.094 282.603 366.214C282.656 366.33 282.73 366.419 282.825 366.483C282.923 366.546 283.041 366.578 283.178 366.578C283.28 366.578 283.373 366.562 283.458 366.53C283.542 366.495 283.614 366.448 283.674 366.388C283.738 366.328 283.787 366.256 283.822 366.171C283.857 366.087 283.875 365.996 283.875 365.897V364.229H284.418V367H283.875V366.419L283.97 366.356C283.928 366.486 283.855 366.604 283.753 366.71C283.655 366.815 283.537 366.9 283.4 366.963C283.263 367.023 283.115 367.053 282.956 367.053ZM286.474 367.053C286.189 367.053 285.935 366.993 285.714 366.873C285.496 366.75 285.323 366.583 285.197 366.372C285.073 366.161 285.012 365.918 285.012 365.644C285.012 365.426 285.047 365.227 285.117 365.047C285.188 364.868 285.285 364.713 285.408 364.583C285.534 364.449 285.684 364.347 285.856 364.277C286.032 364.203 286.222 364.166 286.426 364.166C286.606 364.166 286.773 364.201 286.928 364.272C287.082 364.338 287.216 364.432 287.329 364.551C287.445 364.671 287.533 364.813 287.593 364.979C287.656 365.141 287.686 365.318 287.682 365.512L287.677 365.744H285.413L285.292 365.311H287.207L287.128 365.401V365.274C287.118 365.158 287.079 365.054 287.012 364.963C286.945 364.871 286.861 364.799 286.759 364.747C286.657 364.694 286.546 364.667 286.426 364.667C286.236 364.667 286.076 364.704 285.946 364.778C285.816 364.849 285.717 364.954 285.65 365.095C285.584 365.232 285.55 365.403 285.55 365.607C285.55 365.8 285.591 365.969 285.672 366.113C285.752 366.254 285.867 366.363 286.015 366.441C286.162 366.518 286.333 366.557 286.526 366.557C286.664 366.557 286.79 366.534 286.906 366.488C287.026 366.442 287.155 366.36 287.292 366.24L287.566 366.625C287.482 366.71 287.378 366.784 287.255 366.847C287.135 366.91 287.007 366.961 286.87 367C286.736 367.035 286.604 367.053 286.474 367.053Z" fill="#DF6E61"/>
<rect x="170" y="247" width="21" height="2" rx="1" fill="#C8C8C8"/>
<rect x="170" y="283" width="21" height="2" rx="1" fill="#C8C8C8"/>
<rect x="170" y="319" width="21" height="2" rx="1" fill="#C8C8C8"/>
<rect x="170" y="355" width="21" height="2" rx="1" fill="#C8C8C8"/>
<rect x="169.781" y="261" width="45.3857" height="3.16645" rx="1.58322" fill="#E4E6EA"/>
<rect x="169.781" y="297" width="45.3857" height="3.16645" rx="1.58322" fill="#E4E6EA"/>
<rect x="169.781" y="333" width="45.3857" height="3.16645" rx="1.58322" fill="#E4E6EA"/>
<rect x="169.781" y="369" width="45.3857" height="3.16645" rx="1.58322" fill="#E4E6EA"/>
<rect x="262.264" y="250.264" width="29.0258" height="13.1935" rx="2.90258" stroke="#E4E6EA" stroke-width="0.527741"/>
<rect x="262.264" y="322.264" width="29.0258" height="13.1935" rx="2.90258" stroke="#E4E6EA" stroke-width="0.527741"/>
<rect x="262.264" y="358.264" width="29.0258" height="13.1935" rx="2.90258" stroke="#E4E6EA" stroke-width="0.527741"/>
<path d="M172 226C172 224.895 172.895 224 174 224H200C201.105 224 202 224.895 202 226H172Z" fill="#1A89FA"/>
<defs>
<clipPath id="clip0_598_2395">
<rect width="126.658" height="6.35908" fill="white" transform="translate(167.672 155.333)"/>
</clipPath>
</defs>
</svg>
