<svg width="480" height="540" viewBox="0 0 480 540" fill="none" xmlns="http://www.w3.org/2000/svg">
<path d="M84 76H395C404.389 76 412 83.6112 412 93V447C412 456.389 404.389 464 395 464H84C74.6111 464 67 456.389 67 447V93C67 83.6112 74.6111 76 84 76Z" fill="#F1F5F7"/>
<rect x="92" y="105" width="295" height="329" rx="17" fill="white"/>
<g filter="url(#filter0_d_110_724)">
<rect x="107" y="224" width="265" height="37" rx="9" fill="white"/>
</g>
<g filter="url(#filter1_d_110_724)">
<rect x="107" y="271" width="265" height="37" rx="9" fill="white"/>
</g>
<g filter="url(#filter2_d_110_724)">
<rect x="107" y="318" width="265" height="37" rx="9" fill="white"/>
</g>
<path d="M178.684 134.118C178.08 134.118 177.523 134.016 177.013 133.812C176.511 133.6 176.071 133.306 175.695 132.929C175.326 132.545 175.04 132.093 174.836 131.575C174.632 131.05 174.53 130.477 174.53 129.857C174.53 129.253 174.636 128.696 174.847 128.186C175.059 127.668 175.357 127.221 175.742 126.844C176.126 126.46 176.578 126.161 177.095 125.95C177.613 125.738 178.174 125.632 178.778 125.632C179.171 125.632 179.555 125.687 179.932 125.797C180.316 125.899 180.665 126.052 180.979 126.256C181.301 126.46 181.576 126.703 181.803 126.985L180.697 128.209C180.516 128.021 180.324 127.86 180.12 127.727C179.916 127.586 179.7 127.48 179.473 127.409C179.253 127.331 179.018 127.291 178.767 127.291C178.429 127.291 178.111 127.354 177.813 127.48C177.523 127.605 177.268 127.782 177.048 128.009C176.829 128.229 176.652 128.5 176.519 128.821C176.393 129.135 176.33 129.484 176.33 129.869C176.33 130.261 176.393 130.618 176.519 130.94C176.644 131.254 176.821 131.524 177.048 131.752C177.276 131.972 177.547 132.144 177.86 132.27C178.182 132.388 178.535 132.446 178.92 132.446C179.171 132.446 179.414 132.411 179.649 132.34C179.885 132.27 180.101 132.172 180.297 132.046C180.501 131.921 180.681 131.776 180.838 131.611L181.709 132.988C181.513 133.2 181.254 133.392 180.932 133.565C180.618 133.737 180.265 133.874 179.873 133.976C179.481 134.071 179.084 134.118 178.684 134.118ZM182.95 134V125.291H184.598V129.045L184.268 129.186C184.355 128.904 184.508 128.649 184.727 128.421C184.955 128.186 185.226 127.998 185.539 127.856C185.853 127.715 186.183 127.644 186.528 127.644C186.999 127.644 187.391 127.739 187.705 127.927C188.027 128.115 188.266 128.402 188.423 128.786C188.588 129.163 188.67 129.63 188.67 130.187V134H186.999V130.316C186.999 130.034 186.96 129.798 186.881 129.61C186.803 129.422 186.681 129.284 186.516 129.198C186.359 129.112 186.163 129.072 185.928 129.08C185.74 129.08 185.563 129.112 185.398 129.174C185.241 129.229 185.104 129.312 184.986 129.422C184.876 129.532 184.786 129.657 184.716 129.798C184.653 129.94 184.621 130.093 184.621 130.257V134H183.798C183.617 134 183.456 134 183.315 134C183.174 134 183.052 134 182.95 134ZM193.167 134.118C192.531 134.118 191.963 133.98 191.46 133.706C190.966 133.423 190.574 133.039 190.283 132.552C190.001 132.066 189.86 131.509 189.86 130.881C189.86 130.253 190.001 129.696 190.283 129.21C190.574 128.723 190.966 128.343 191.46 128.068C191.963 127.786 192.531 127.644 193.167 127.644C193.795 127.644 194.356 127.786 194.85 128.068C195.352 128.343 195.744 128.723 196.027 129.21C196.309 129.696 196.451 130.253 196.451 130.881C196.451 131.509 196.309 132.066 196.027 132.552C195.744 133.039 195.352 133.423 194.85 133.706C194.356 133.98 193.795 134.118 193.167 134.118ZM193.167 132.658C193.473 132.658 193.748 132.584 193.991 132.435C194.234 132.278 194.422 132.066 194.556 131.799C194.697 131.524 194.764 131.218 194.756 130.881C194.764 130.536 194.697 130.23 194.556 129.963C194.422 129.688 194.234 129.477 193.991 129.327C193.748 129.171 193.473 129.092 193.167 129.092C192.853 129.092 192.575 129.171 192.331 129.327C192.088 129.484 191.896 129.696 191.755 129.963C191.613 130.23 191.547 130.536 191.555 130.881C191.547 131.218 191.613 131.524 191.755 131.799C191.896 132.066 192.088 132.278 192.331 132.435C192.575 132.584 192.853 132.658 193.167 132.658ZM200.615 134.118C199.979 134.118 199.41 133.98 198.908 133.706C198.414 133.423 198.022 133.039 197.731 132.552C197.449 132.066 197.308 131.509 197.308 130.881C197.308 130.253 197.449 129.696 197.731 129.21C198.022 128.723 198.414 128.343 198.908 128.068C199.41 127.786 199.979 127.644 200.615 127.644C201.243 127.644 201.804 127.786 202.298 128.068C202.8 128.343 203.192 128.723 203.475 129.21C203.757 129.696 203.899 130.253 203.899 130.881C203.899 131.509 203.757 132.066 203.475 132.552C203.192 133.039 202.8 133.423 202.298 133.706C201.804 133.98 201.243 134.118 200.615 134.118ZM200.615 132.658C200.921 132.658 201.195 132.584 201.439 132.435C201.682 132.278 201.87 132.066 202.004 131.799C202.145 131.524 202.212 131.218 202.204 130.881C202.212 130.536 202.145 130.23 202.004 129.963C201.87 129.688 201.682 129.477 201.439 129.327C201.195 129.171 200.921 129.092 200.615 129.092C200.301 129.092 200.022 129.171 199.779 129.327C199.536 129.484 199.344 129.696 199.203 129.963C199.061 130.23 198.995 130.536 199.002 130.881C198.995 131.218 199.061 131.524 199.203 131.799C199.344 132.066 199.536 132.278 199.779 132.435C200.022 132.584 200.301 132.658 200.615 132.658ZM207.262 134.118C206.682 134.118 206.164 134.024 205.709 133.835C205.262 133.639 204.901 133.372 204.626 133.035L205.674 132.14C205.909 132.399 206.176 132.588 206.474 132.705C206.772 132.815 207.07 132.87 207.368 132.87C207.486 132.87 207.592 132.858 207.686 132.835C207.788 132.803 207.874 132.764 207.945 132.717C208.016 132.662 208.067 132.599 208.098 132.529C208.137 132.45 208.157 132.368 208.157 132.282C208.157 132.109 208.086 131.976 207.945 131.881C207.867 131.834 207.745 131.783 207.58 131.728C207.415 131.666 207.204 131.599 206.945 131.528C206.545 131.426 206.203 131.309 205.921 131.175C205.646 131.034 205.426 130.877 205.262 130.705C205.12 130.54 205.011 130.363 204.932 130.175C204.861 129.979 204.826 129.763 204.826 129.528C204.826 129.245 204.889 128.99 205.014 128.763C205.14 128.527 205.313 128.327 205.532 128.162C205.76 127.998 206.019 127.872 206.309 127.786C206.599 127.692 206.905 127.644 207.227 127.644C207.549 127.644 207.863 127.684 208.169 127.762C208.475 127.841 208.757 127.954 209.016 128.103C209.283 128.245 209.514 128.413 209.711 128.61L208.816 129.598C208.675 129.465 208.514 129.343 208.333 129.233C208.161 129.123 207.98 129.037 207.792 128.974C207.604 128.912 207.435 128.88 207.286 128.88C207.153 128.88 207.031 128.892 206.921 128.916C206.819 128.939 206.733 128.978 206.662 129.033C206.592 129.08 206.537 129.139 206.497 129.21C206.466 129.28 206.45 129.359 206.45 129.445C206.45 129.532 206.47 129.614 206.509 129.692C206.556 129.771 206.619 129.838 206.698 129.892C206.784 129.94 206.909 129.994 207.074 130.057C207.247 130.12 207.478 130.191 207.769 130.269C208.145 130.371 208.463 130.485 208.722 130.61C208.989 130.736 209.2 130.881 209.357 131.046C209.491 131.187 209.589 131.348 209.652 131.528C209.714 131.709 209.746 131.909 209.746 132.129C209.746 132.513 209.636 132.854 209.416 133.153C209.204 133.451 208.91 133.686 208.534 133.859C208.157 134.031 207.733 134.118 207.262 134.118ZM213.891 134.118C213.217 134.118 212.624 133.98 212.114 133.706C211.612 133.431 211.22 133.055 210.937 132.576C210.663 132.097 210.525 131.548 210.525 130.928C210.525 130.442 210.604 129.998 210.761 129.598C210.918 129.198 211.137 128.853 211.42 128.562C211.702 128.264 212.036 128.037 212.42 127.88C212.813 127.715 213.236 127.633 213.691 127.633C214.115 127.633 214.507 127.711 214.868 127.868C215.229 128.025 215.539 128.245 215.798 128.527C216.065 128.802 216.269 129.131 216.41 129.516C216.551 129.892 216.614 130.3 216.598 130.74L216.587 131.258H211.585L211.314 130.234H215.21L215.021 130.446V130.187C215.006 129.975 214.935 129.787 214.809 129.622C214.692 129.449 214.539 129.316 214.35 129.222C214.162 129.12 213.95 129.069 213.715 129.069C213.37 129.069 213.075 129.135 212.832 129.269C212.597 129.402 212.416 129.598 212.291 129.857C212.165 130.116 212.102 130.43 212.102 130.799C212.102 131.175 212.181 131.501 212.338 131.776C212.503 132.05 212.73 132.266 213.021 132.423C213.319 132.572 213.668 132.647 214.068 132.647C214.343 132.647 214.594 132.603 214.821 132.517C215.049 132.431 215.292 132.282 215.551 132.07L216.351 133.188C216.124 133.392 215.873 133.565 215.598 133.706C215.323 133.839 215.041 133.941 214.751 134.012C214.46 134.082 214.174 134.118 213.891 134.118ZM223.396 134V127.35H220.995V125.761H227.633V127.35H225.162V134H223.396ZM230.638 134.118C229.963 134.118 229.371 133.98 228.861 133.706C228.358 133.431 227.966 133.055 227.684 132.576C227.409 132.097 227.272 131.548 227.272 130.928C227.272 130.442 227.35 129.998 227.507 129.598C227.664 129.198 227.884 128.853 228.166 128.562C228.449 128.264 228.782 128.037 229.167 127.88C229.559 127.715 229.983 127.633 230.438 127.633C230.861 127.633 231.254 127.711 231.615 127.868C231.976 128.025 232.285 128.245 232.544 128.527C232.811 128.802 233.015 129.131 233.156 129.516C233.298 129.892 233.36 130.3 233.345 130.74L233.333 131.258H228.331L228.06 130.234H231.956L231.768 130.446V130.187C231.752 129.975 231.681 129.787 231.556 129.622C231.438 129.449 231.285 129.316 231.097 129.222C230.908 129.12 230.697 129.069 230.461 129.069C230.116 129.069 229.822 129.135 229.578 129.269C229.343 129.402 229.163 129.598 229.037 129.857C228.912 130.116 228.849 130.43 228.849 130.799C228.849 131.175 228.927 131.501 229.084 131.776C229.249 132.05 229.476 132.266 229.767 132.423C230.065 132.572 230.414 132.647 230.814 132.647C231.089 132.647 231.34 132.603 231.568 132.517C231.795 132.431 232.038 132.282 232.297 132.07L233.098 133.188C232.87 133.392 232.619 133.565 232.344 133.706C232.07 133.839 231.787 133.941 231.497 134.012C231.207 134.082 230.92 134.118 230.638 134.118ZM234.568 134V127.774H236.18L236.216 128.963L235.969 129.01C236.055 128.806 236.169 128.621 236.31 128.457C236.459 128.292 236.628 128.151 236.816 128.033C237.004 127.915 237.204 127.825 237.416 127.762C237.628 127.692 237.84 127.656 238.052 127.656C238.374 127.656 238.664 127.707 238.923 127.809C239.182 127.911 239.401 128.072 239.582 128.292C239.762 128.504 239.904 128.786 240.006 129.139L239.747 129.116L239.829 128.927C239.931 128.739 240.06 128.566 240.217 128.409C240.374 128.253 240.551 128.119 240.747 128.009C240.943 127.899 241.147 127.813 241.359 127.75C241.571 127.688 241.779 127.656 241.983 127.656C242.469 127.656 242.873 127.754 243.195 127.95C243.517 128.139 243.756 128.425 243.913 128.81C244.078 129.194 244.16 129.665 244.16 130.222V134H242.489V130.34C242.489 130.057 242.45 129.826 242.371 129.645C242.293 129.465 242.179 129.331 242.03 129.245C241.881 129.151 241.689 129.104 241.453 129.104C241.273 129.104 241.104 129.135 240.947 129.198C240.798 129.253 240.665 129.335 240.547 129.445C240.437 129.547 240.351 129.673 240.288 129.822C240.225 129.963 240.194 130.116 240.194 130.281V134H238.511V130.328C238.511 130.069 238.472 129.849 238.393 129.669C238.315 129.48 238.201 129.339 238.052 129.245C237.903 129.151 237.718 129.104 237.499 129.104C237.318 129.104 237.149 129.135 236.993 129.198C236.843 129.253 236.714 129.335 236.604 129.445C236.494 129.547 236.408 129.669 236.345 129.81C236.282 129.951 236.251 130.104 236.251 130.269V134H234.568ZM245.752 136.589V127.774H247.364L247.411 129.174L247.105 129.069C247.16 128.817 247.293 128.586 247.505 128.374C247.725 128.162 247.996 127.99 248.317 127.856C248.639 127.723 248.977 127.656 249.33 127.656C249.871 127.656 250.354 127.797 250.777 128.08C251.201 128.355 251.534 128.735 251.778 129.222C252.021 129.7 252.143 130.253 252.143 130.881C252.143 131.501 252.021 132.054 251.778 132.541C251.534 133.027 251.201 133.412 250.777 133.694C250.354 133.969 249.871 134.106 249.33 134.106C248.969 134.106 248.623 134.039 248.294 133.906C247.972 133.765 247.698 133.58 247.47 133.353C247.25 133.125 247.109 132.882 247.046 132.623L247.435 132.458V136.589H245.752ZM248.953 132.67C249.259 132.67 249.53 132.596 249.765 132.446C250 132.297 250.185 132.089 250.318 131.823C250.452 131.548 250.518 131.234 250.518 130.881C250.518 130.528 250.452 130.218 250.318 129.951C250.185 129.685 250 129.477 249.765 129.327C249.538 129.178 249.267 129.104 248.953 129.104C248.639 129.104 248.364 129.178 248.129 129.327C247.894 129.469 247.709 129.677 247.576 129.951C247.443 130.218 247.376 130.528 247.376 130.881C247.376 131.234 247.443 131.548 247.576 131.823C247.709 132.089 247.894 132.297 248.129 132.446C248.364 132.596 248.639 132.67 248.953 132.67ZM253.418 134V125.291H255.089V134H253.418ZM259.001 134.118C258.483 134.118 258.016 133.976 257.6 133.694C257.185 133.412 256.855 133.027 256.612 132.541C256.369 132.054 256.247 131.497 256.247 130.869C256.247 130.242 256.369 129.685 256.612 129.198C256.863 128.712 257.2 128.331 257.624 128.056C258.048 127.782 258.53 127.644 259.072 127.644C259.378 127.644 259.656 127.692 259.907 127.786C260.166 127.872 260.39 127.994 260.578 128.151C260.774 128.307 260.939 128.488 261.072 128.692C261.206 128.896 261.3 129.116 261.355 129.351L261.002 129.292V127.774H262.661V134H260.978V132.505L261.355 132.47C261.292 132.69 261.19 132.898 261.049 133.094C260.908 133.29 260.731 133.466 260.519 133.623C260.315 133.772 260.084 133.894 259.825 133.988C259.566 134.075 259.291 134.118 259.001 134.118ZM259.46 132.67C259.774 132.67 260.049 132.596 260.284 132.446C260.519 132.297 260.7 132.089 260.825 131.823C260.959 131.548 261.025 131.23 261.025 130.869C261.025 130.516 260.959 130.206 260.825 129.94C260.7 129.673 260.519 129.465 260.284 129.316C260.049 129.159 259.774 129.08 259.46 129.08C259.154 129.08 258.883 129.159 258.648 129.316C258.42 129.465 258.24 129.673 258.107 129.94C257.973 130.206 257.906 130.516 257.906 130.869C257.906 131.23 257.973 131.548 258.107 131.823C258.24 132.089 258.42 132.297 258.648 132.446C258.883 132.596 259.154 132.67 259.46 132.67ZM264.937 134V126.197H266.608V134H264.937ZM263.772 129.269V127.774H267.891V129.269H263.772ZM271.866 134.118C271.191 134.118 270.598 133.98 270.088 133.706C269.586 133.431 269.194 133.055 268.911 132.576C268.637 132.097 268.499 131.548 268.499 130.928C268.499 130.442 268.578 129.998 268.735 129.598C268.892 129.198 269.112 128.853 269.394 128.562C269.676 128.264 270.01 128.037 270.394 127.88C270.787 127.715 271.21 127.633 271.665 127.633C272.089 127.633 272.482 127.711 272.842 127.868C273.203 128.025 273.513 128.245 273.772 128.527C274.039 128.802 274.243 129.131 274.384 129.516C274.525 129.892 274.588 130.3 274.573 130.74L274.561 131.258H269.559L269.288 130.234H273.184L272.995 130.446V130.187C272.98 129.975 272.909 129.787 272.784 129.622C272.666 129.449 272.513 129.316 272.325 129.222C272.136 129.12 271.924 129.069 271.689 129.069C271.344 129.069 271.05 129.135 270.806 129.269C270.571 129.402 270.39 129.598 270.265 129.857C270.139 130.116 270.077 130.43 270.077 130.799C270.077 131.175 270.155 131.501 270.312 131.776C270.477 132.05 270.704 132.266 270.995 132.423C271.293 132.572 271.642 132.647 272.042 132.647C272.317 132.647 272.568 132.603 272.795 132.517C273.023 132.431 273.266 132.282 273.525 132.07L274.325 133.188C274.098 133.392 273.847 133.565 273.572 133.706C273.298 133.839 273.015 133.941 272.725 134.012C272.434 134.082 272.148 134.118 271.866 134.118ZM281.37 134V127.35H278.969V125.761H285.607V127.35H283.136V134H281.37ZM287.115 136.707L288.48 133.506L288.504 134.471L285.467 127.774H287.362L288.88 131.364C288.943 131.497 289.002 131.654 289.057 131.834C289.12 132.007 289.171 132.172 289.21 132.329L288.927 132.458C288.982 132.325 289.037 132.172 289.092 131.999C289.155 131.827 289.218 131.642 289.28 131.446L290.587 127.774H292.494L289.881 134L288.81 136.707H287.115ZM293.393 136.589V127.774H295.005L295.052 129.174L294.746 129.069C294.801 128.817 294.935 128.586 295.147 128.374C295.366 128.162 295.637 127.99 295.959 127.856C296.28 127.723 296.618 127.656 296.971 127.656C297.512 127.656 297.995 127.797 298.419 128.08C298.842 128.355 299.176 128.735 299.419 129.222C299.662 129.7 299.784 130.253 299.784 130.881C299.784 131.501 299.662 132.054 299.419 132.541C299.176 133.027 298.842 133.412 298.419 133.694C297.995 133.969 297.512 134.106 296.971 134.106C296.61 134.106 296.265 134.039 295.935 133.906C295.613 133.765 295.339 133.58 295.111 133.353C294.892 133.125 294.75 132.882 294.688 132.623L295.076 132.458V136.589H293.393ZM296.594 132.67C296.9 132.67 297.171 132.596 297.406 132.446C297.642 132.297 297.826 132.089 297.96 131.823C298.093 131.548 298.16 131.234 298.16 130.881C298.16 130.528 298.093 130.218 297.96 129.951C297.826 129.685 297.642 129.477 297.406 129.327C297.179 129.178 296.908 129.104 296.594 129.104C296.28 129.104 296.006 129.178 295.77 129.327C295.535 129.469 295.351 129.677 295.217 129.951C295.084 130.218 295.017 130.528 295.017 130.881C295.017 131.234 295.084 131.548 295.217 131.823C295.351 132.089 295.535 132.297 295.77 132.446C296.006 132.596 296.28 132.67 296.594 132.67ZM304.002 134.118C303.327 134.118 302.735 133.98 302.225 133.706C301.723 133.431 301.33 133.055 301.048 132.576C300.773 132.097 300.636 131.548 300.636 130.928C300.636 130.442 300.714 129.998 300.871 129.598C301.028 129.198 301.248 128.853 301.53 128.562C301.813 128.264 302.146 128.037 302.531 127.88C302.923 127.715 303.347 127.633 303.802 127.633C304.226 127.633 304.618 127.711 304.979 127.868C305.34 128.025 305.65 128.245 305.909 128.527C306.175 128.802 306.379 129.131 306.521 129.516C306.662 129.892 306.725 130.3 306.709 130.74L306.697 131.258H301.695L301.424 130.234H305.32L305.132 130.446V130.187C305.116 129.975 305.045 129.787 304.92 129.622C304.802 129.449 304.649 129.316 304.461 129.222C304.273 129.12 304.061 129.069 303.825 129.069C303.48 129.069 303.186 129.135 302.943 129.269C302.707 129.402 302.527 129.598 302.401 129.857C302.276 130.116 302.213 130.43 302.213 130.799C302.213 131.175 302.291 131.501 302.448 131.776C302.613 132.05 302.841 132.266 303.131 132.423C303.429 132.572 303.778 132.647 304.178 132.647C304.453 132.647 304.704 132.603 304.932 132.517C305.159 132.431 305.402 132.282 305.661 132.07L306.462 133.188C306.234 133.392 305.983 133.565 305.708 133.706C305.434 133.839 305.151 133.941 304.861 134.012C304.571 134.082 304.284 134.118 304.002 134.118Z" fill="black"/>
<path d="M124.079 170V164.636H122.315V163.7H126.869V164.636H125.051V170H124.079ZM129.142 170.09C128.656 170.09 128.224 169.988 127.846 169.784C127.474 169.574 127.18 169.289 126.964 168.929C126.754 168.569 126.649 168.155 126.649 167.687C126.649 167.315 126.709 166.976 126.829 166.67C126.949 166.364 127.114 166.1 127.324 165.878C127.54 165.65 127.795 165.476 128.089 165.356C128.389 165.23 128.713 165.167 129.061 165.167C129.367 165.167 129.652 165.227 129.916 165.347C130.18 165.461 130.408 165.62 130.6 165.824C130.798 166.028 130.948 166.271 131.05 166.553C131.158 166.829 131.209 167.132 131.203 167.462L131.194 167.858H127.333L127.126 167.12H130.393L130.258 167.273V167.057C130.24 166.859 130.174 166.682 130.06 166.526C129.946 166.37 129.802 166.247 129.628 166.157C129.454 166.067 129.265 166.022 129.061 166.022C128.737 166.022 128.464 166.085 128.242 166.211C128.02 166.331 127.852 166.511 127.738 166.751C127.624 166.985 127.567 167.276 127.567 167.624C127.567 167.954 127.636 168.242 127.774 168.488C127.912 168.728 128.107 168.914 128.359 169.046C128.611 169.178 128.902 169.244 129.232 169.244C129.466 169.244 129.682 169.205 129.88 169.127C130.084 169.049 130.303 168.908 130.537 168.704L131.005 169.361C130.861 169.505 130.684 169.631 130.474 169.739C130.27 169.847 130.051 169.934 129.817 170C129.589 170.06 129.364 170.09 129.142 170.09ZM132.193 170V165.275H133.129V166.283L132.958 166.391C133.006 166.235 133.081 166.085 133.183 165.941C133.291 165.797 133.42 165.671 133.57 165.563C133.726 165.449 133.891 165.359 134.065 165.293C134.245 165.227 134.428 165.194 134.614 165.194C134.884 165.194 135.121 165.239 135.325 165.329C135.529 165.419 135.697 165.554 135.829 165.734C135.961 165.914 136.057 166.139 136.117 166.409L135.973 166.373L136.036 166.22C136.102 166.082 136.192 165.953 136.306 165.833C136.426 165.707 136.561 165.596 136.711 165.5C136.861 165.404 137.02 165.329 137.188 165.275C137.356 165.221 137.521 165.194 137.683 165.194C138.037 165.194 138.328 165.266 138.556 165.41C138.79 165.554 138.964 165.773 139.078 166.067C139.198 166.361 139.258 166.727 139.258 167.165V170H138.322V167.219C138.322 166.949 138.286 166.73 138.214 166.562C138.148 166.388 138.046 166.259 137.908 166.175C137.77 166.091 137.593 166.049 137.377 166.049C137.209 166.049 137.05 166.079 136.9 166.139C136.756 166.193 136.63 166.271 136.521 166.373C136.414 166.475 136.33 166.595 136.27 166.733C136.21 166.865 136.18 167.012 136.18 167.174V170H135.244V167.201C135.244 166.955 135.208 166.748 135.136 166.58C135.064 166.406 134.959 166.274 134.821 166.184C134.683 166.094 134.515 166.049 134.317 166.049C134.149 166.049 133.993 166.079 133.849 166.139C133.705 166.193 133.579 166.271 133.471 166.373C133.363 166.469 133.279 166.586 133.219 166.724C133.159 166.856 133.129 167 133.129 167.156V170H132.193ZM140.499 171.98V165.275H141.435V166.355L141.291 166.274C141.327 166.094 141.429 165.923 141.597 165.761C141.765 165.593 141.969 165.458 142.209 165.356C142.455 165.248 142.707 165.194 142.965 165.194C143.391 165.194 143.769 165.299 144.099 165.509C144.429 165.719 144.69 166.007 144.882 166.373C145.074 166.739 145.17 167.159 145.17 167.633C145.17 168.101 145.074 168.521 144.882 168.893C144.696 169.259 144.438 169.55 144.108 169.766C143.778 169.976 143.406 170.081 142.992 170.081C142.716 170.081 142.449 170.027 142.191 169.919C141.933 169.805 141.714 169.661 141.534 169.487C141.354 169.313 141.243 169.133 141.201 168.947L141.435 168.821V171.98H140.499ZM142.839 169.226C143.115 169.226 143.361 169.157 143.577 169.019C143.793 168.881 143.964 168.692 144.09 168.452C144.216 168.212 144.279 167.939 144.279 167.633C144.279 167.327 144.216 167.057 144.09 166.823C143.97 166.583 143.802 166.394 143.586 166.256C143.37 166.118 143.121 166.049 142.839 166.049C142.557 166.049 142.308 166.118 142.092 166.256C141.876 166.388 141.705 166.574 141.579 166.814C141.453 167.054 141.39 167.327 141.39 167.633C141.39 167.939 141.453 168.212 141.579 168.452C141.705 168.692 141.876 168.881 142.092 169.019C142.308 169.157 142.557 169.226 142.839 169.226ZM146.194 170V163.34H147.121V170H146.194ZM150.165 170.09C149.775 170.09 149.418 169.982 149.094 169.766C148.776 169.55 148.521 169.256 148.329 168.884C148.137 168.512 148.041 168.092 148.041 167.624C148.041 167.15 148.137 166.73 148.329 166.364C148.527 165.992 148.791 165.701 149.121 165.491C149.457 165.281 149.832 165.176 150.246 165.176C150.492 165.176 150.717 165.212 150.921 165.284C151.125 165.356 151.302 165.458 151.452 165.59C151.608 165.716 151.734 165.863 151.83 166.031C151.932 166.199 151.995 166.379 152.019 166.571L151.812 166.499V165.275H152.748V170H151.812V168.875L152.028 168.812C151.992 168.974 151.917 169.133 151.803 169.289C151.695 169.439 151.554 169.574 151.38 169.694C151.212 169.814 151.023 169.91 150.813 169.982C150.609 170.054 150.393 170.09 150.165 170.09ZM150.408 169.235C150.69 169.235 150.939 169.166 151.155 169.028C151.371 168.89 151.539 168.701 151.659 168.461C151.785 168.215 151.848 167.936 151.848 167.624C151.848 167.318 151.785 167.045 151.659 166.805C151.539 166.565 151.371 166.376 151.155 166.238C150.939 166.1 150.69 166.031 150.408 166.031C150.132 166.031 149.886 166.1 149.67 166.238C149.46 166.376 149.292 166.565 149.166 166.805C149.046 167.045 148.986 167.318 148.986 167.624C148.986 167.936 149.046 168.215 149.166 168.461C149.292 168.701 149.46 168.89 149.67 169.028C149.886 169.166 150.132 169.235 150.408 169.235ZM154.628 170V164.069H155.555V170H154.628ZM153.647 166.175V165.275H156.653V166.175H153.647ZM159.658 170.09C159.172 170.09 158.74 169.988 158.362 169.784C157.99 169.574 157.696 169.289 157.48 168.929C157.27 168.569 157.165 168.155 157.165 167.687C157.165 167.315 157.225 166.976 157.345 166.67C157.465 166.364 157.63 166.1 157.84 165.878C158.056 165.65 158.311 165.476 158.605 165.356C158.905 165.23 159.229 165.167 159.577 165.167C159.883 165.167 160.168 165.227 160.432 165.347C160.696 165.461 160.924 165.62 161.116 165.824C161.314 166.028 161.464 166.271 161.566 166.553C161.674 166.829 161.725 167.132 161.719 167.462L161.71 167.858H157.849L157.642 167.12H160.909L160.774 167.273V167.057C160.756 166.859 160.69 166.682 160.576 166.526C160.462 166.37 160.318 166.247 160.144 166.157C159.97 166.067 159.781 166.022 159.577 166.022C159.253 166.022 158.98 166.085 158.758 166.211C158.536 166.331 158.368 166.511 158.254 166.751C158.14 166.985 158.083 167.276 158.083 167.624C158.083 167.954 158.152 168.242 158.29 168.488C158.428 168.728 158.623 168.914 158.875 169.046C159.127 169.178 159.418 169.244 159.748 169.244C159.982 169.244 160.198 169.205 160.396 169.127C160.6 169.049 160.819 168.908 161.053 168.704L161.521 169.361C161.377 169.505 161.2 169.631 160.99 169.739C160.786 169.847 160.567 169.934 160.333 170C160.105 170.06 159.88 170.09 159.658 170.09ZM165.249 170V165.275H166.176V166.247L166.014 166.355C166.074 166.145 166.191 165.953 166.365 165.779C166.539 165.599 166.746 165.455 166.986 165.347C167.226 165.233 167.472 165.176 167.724 165.176C168.084 165.176 168.384 165.248 168.624 165.392C168.864 165.53 169.044 165.743 169.164 166.031C169.284 166.319 169.344 166.682 169.344 167.12V170H168.417V167.183C168.417 166.913 168.381 166.691 168.309 166.517C168.237 166.337 168.126 166.208 167.976 166.13C167.826 166.046 167.64 166.01 167.418 166.022C167.238 166.022 167.073 166.052 166.923 166.112C166.773 166.166 166.641 166.244 166.527 166.346C166.419 166.448 166.332 166.568 166.266 166.706C166.206 166.838 166.176 166.982 166.176 167.138V170H165.717C165.639 170 165.561 170 165.483 170C165.405 170 165.327 170 165.249 170ZM172.419 170.09C172.029 170.09 171.672 169.982 171.348 169.766C171.03 169.55 170.775 169.256 170.583 168.884C170.391 168.512 170.295 168.092 170.295 167.624C170.295 167.15 170.391 166.73 170.583 166.364C170.781 165.992 171.045 165.701 171.375 165.491C171.711 165.281 172.086 165.176 172.5 165.176C172.746 165.176 172.971 165.212 173.175 165.284C173.379 165.356 173.556 165.458 173.706 165.59C173.862 165.716 173.988 165.863 174.084 166.031C174.186 166.199 174.249 166.379 174.273 166.571L174.066 166.499V165.275H175.002V170H174.066V168.875L174.282 168.812C174.246 168.974 174.171 169.133 174.057 169.289C173.949 169.439 173.808 169.574 173.634 169.694C173.466 169.814 173.277 169.91 173.067 169.982C172.863 170.054 172.647 170.09 172.419 170.09ZM172.662 169.235C172.944 169.235 173.193 169.166 173.409 169.028C173.625 168.89 173.793 168.701 173.913 168.461C174.039 168.215 174.102 167.936 174.102 167.624C174.102 167.318 174.039 167.045 173.913 166.805C173.793 166.565 173.625 166.376 173.409 166.238C173.193 166.1 172.944 166.031 172.662 166.031C172.386 166.031 172.14 166.1 171.924 166.238C171.714 166.376 171.546 166.565 171.42 166.805C171.3 167.045 171.24 167.318 171.24 167.624C171.24 167.936 171.3 168.215 171.42 168.461C171.546 168.701 171.714 168.89 171.924 169.028C172.14 169.166 172.386 169.235 172.662 169.235ZM176.278 170V165.275H177.214V166.283L177.043 166.391C177.091 166.235 177.166 166.085 177.268 165.941C177.376 165.797 177.505 165.671 177.655 165.563C177.811 165.449 177.976 165.359 178.15 165.293C178.33 165.227 178.513 165.194 178.699 165.194C178.969 165.194 179.206 165.239 179.41 165.329C179.614 165.419 179.782 165.554 179.914 165.734C180.046 165.914 180.142 166.139 180.202 166.409L180.058 166.373L180.121 166.22C180.187 166.082 180.277 165.953 180.391 165.833C180.511 165.707 180.646 165.596 180.796 165.5C180.946 165.404 181.105 165.329 181.273 165.275C181.441 165.221 181.606 165.194 181.768 165.194C182.122 165.194 182.413 165.266 182.641 165.41C182.875 165.554 183.049 165.773 183.163 166.067C183.283 166.361 183.343 166.727 183.343 167.165V170H182.407V167.219C182.407 166.949 182.371 166.73 182.299 166.562C182.233 166.388 182.131 166.259 181.993 166.175C181.855 166.091 181.678 166.049 181.462 166.049C181.294 166.049 181.135 166.079 180.985 166.139C180.841 166.193 180.715 166.271 180.607 166.373C180.499 166.475 180.415 166.595 180.355 166.733C180.295 166.865 180.265 167.012 180.265 167.174V170H179.329V167.201C179.329 166.955 179.293 166.748 179.221 166.58C179.149 166.406 179.044 166.274 178.906 166.184C178.768 166.094 178.6 166.049 178.402 166.049C178.234 166.049 178.078 166.079 177.934 166.139C177.79 166.193 177.664 166.271 177.556 166.373C177.448 166.469 177.364 166.586 177.304 166.724C177.244 166.856 177.214 167 177.214 167.156V170H176.278ZM186.79 170.09C186.304 170.09 185.872 169.988 185.494 169.784C185.122 169.574 184.828 169.289 184.612 168.929C184.402 168.569 184.297 168.155 184.297 167.687C184.297 167.315 184.357 166.976 184.477 166.67C184.597 166.364 184.762 166.1 184.972 165.878C185.188 165.65 185.443 165.476 185.737 165.356C186.037 165.23 186.361 165.167 186.709 165.167C187.015 165.167 187.3 165.227 187.564 165.347C187.828 165.461 188.056 165.62 188.248 165.824C188.446 166.028 188.596 166.271 188.698 166.553C188.806 166.829 188.857 167.132 188.851 167.462L188.842 167.858H184.981L184.774 167.12H188.041L187.906 167.273V167.057C187.888 166.859 187.822 166.682 187.708 166.526C187.594 166.37 187.45 166.247 187.276 166.157C187.102 166.067 186.913 166.022 186.709 166.022C186.385 166.022 186.112 166.085 185.89 166.211C185.668 166.331 185.5 166.511 185.386 166.751C185.272 166.985 185.215 167.276 185.215 167.624C185.215 167.954 185.284 168.242 185.422 168.488C185.56 168.728 185.755 168.914 186.007 169.046C186.259 169.178 186.55 169.244 186.88 169.244C187.114 169.244 187.33 169.205 187.528 169.127C187.732 169.049 187.951 168.908 188.185 168.704L188.653 169.361C188.509 169.505 188.332 169.631 188.122 169.739C187.918 169.847 187.699 169.934 187.465 170C187.237 170.06 187.012 170.09 186.79 170.09Z" fill="black"/>
<path d="M121.03 245.1C120.497 245.1 120.037 244.953 119.65 244.66C119.27 244.367 118.977 243.953 118.77 243.42C118.563 242.88 118.46 242.24 118.46 241.5C118.46 240.76 118.563 240.123 118.77 239.59C118.977 239.05 119.27 238.633 119.65 238.34C120.037 238.047 120.497 237.9 121.03 237.9C121.563 237.9 122.023 238.047 122.41 238.34C122.797 238.633 123.093 239.05 123.3 239.59C123.507 240.123 123.61 240.76 123.61 241.5C123.61 242.24 123.507 242.88 123.3 243.42C123.093 243.953 122.797 244.367 122.41 244.66C122.023 244.953 121.563 245.1 121.03 245.1ZM121.03 244.12C121.517 244.12 121.893 243.893 122.16 243.44C122.427 242.98 122.56 242.333 122.56 241.5C122.56 240.667 122.427 240.023 122.16 239.57C121.893 239.11 121.517 238.88 121.03 238.88C120.543 238.88 120.167 239.11 119.9 239.57C119.633 240.023 119.5 240.667 119.5 241.5C119.5 242.333 119.633 242.98 119.9 243.44C120.167 243.893 120.543 244.12 121.03 244.12ZM127.594 245V239.36L127.844 239.42L125.544 242.23L125.504 242.11H129.854V243.1H124.834L124.374 242.2L127.804 238H128.634V245H127.594Z" fill="black"/>
<path d="M121.03 292.1C120.497 292.1 120.037 291.953 119.65 291.66C119.27 291.367 118.977 290.953 118.77 290.42C118.563 289.88 118.46 289.24 118.46 288.5C118.46 287.76 118.563 287.123 118.77 286.59C118.977 286.05 119.27 285.633 119.65 285.34C120.037 285.047 120.497 284.9 121.03 284.9C121.563 284.9 122.023 285.047 122.41 285.34C122.797 285.633 123.093 286.05 123.3 286.59C123.507 287.123 123.61 287.76 123.61 288.5C123.61 289.24 123.507 289.88 123.3 290.42C123.093 290.953 122.797 291.367 122.41 291.66C122.023 291.953 121.563 292.1 121.03 292.1ZM121.03 291.12C121.517 291.12 121.893 290.893 122.16 290.44C122.427 289.98 122.56 289.333 122.56 288.5C122.56 287.667 122.427 287.023 122.16 286.57C121.893 286.11 121.517 285.88 121.03 285.88C120.543 285.88 120.167 286.11 119.9 286.57C119.633 287.023 119.5 287.667 119.5 288.5C119.5 289.333 119.633 289.98 119.9 290.44C120.167 290.893 120.543 291.12 121.03 291.12ZM126.644 292.07C126.184 292.07 125.768 291.967 125.394 291.76C125.021 291.547 124.711 291.243 124.464 290.85L125.064 290.18C125.378 290.527 125.651 290.763 125.884 290.89C126.118 291.017 126.371 291.08 126.644 291.08C126.918 291.08 127.164 291.02 127.384 290.9C127.604 290.78 127.778 290.617 127.904 290.41C128.038 290.203 128.104 289.973 128.104 289.72C128.104 289.453 128.041 289.217 127.914 289.01C127.794 288.797 127.631 288.63 127.424 288.51C127.218 288.383 126.984 288.32 126.724 288.32C126.598 288.32 126.478 288.33 126.364 288.35C126.251 288.363 126.114 288.4 125.954 288.46C125.794 288.52 125.584 288.613 125.324 288.74L124.754 287.97L125.164 285H128.944V286H125.844L126.054 285.81L125.724 288.03L125.474 287.74C125.541 287.673 125.654 287.61 125.814 287.55C125.974 287.483 126.151 287.43 126.344 287.39C126.544 287.343 126.734 287.32 126.914 287.32C127.341 287.32 127.721 287.42 128.054 287.62C128.394 287.813 128.661 288.083 128.854 288.43C129.054 288.777 129.154 289.173 129.154 289.62C129.154 290.08 129.044 290.497 128.824 290.87C128.604 291.237 128.304 291.53 127.924 291.75C127.544 291.963 127.118 292.07 126.644 292.07Z" fill="black"/>
<path d="M121.03 339.1C120.497 339.1 120.037 338.953 119.65 338.66C119.27 338.367 118.977 337.953 118.77 337.42C118.563 336.88 118.46 336.24 118.46 335.5C118.46 334.76 118.563 334.123 118.77 333.59C118.977 333.05 119.27 332.633 119.65 332.34C120.037 332.047 120.497 331.9 121.03 331.9C121.563 331.9 122.023 332.047 122.41 332.34C122.797 332.633 123.093 333.05 123.3 333.59C123.507 334.123 123.61 334.76 123.61 335.5C123.61 336.24 123.507 336.88 123.3 337.42C123.093 337.953 122.797 338.367 122.41 338.66C122.023 338.953 121.563 339.1 121.03 339.1ZM121.03 338.12C121.517 338.12 121.893 337.893 122.16 337.44C122.427 336.98 122.56 336.333 122.56 335.5C122.56 334.667 122.427 334.023 122.16 333.57C121.893 333.11 121.517 332.88 121.03 332.88C120.543 332.88 120.167 333.11 119.9 333.57C119.633 334.023 119.5 334.667 119.5 335.5C119.5 336.333 119.633 336.98 119.9 337.44C120.167 337.893 120.543 338.12 121.03 338.12ZM126.904 339C126.558 339 126.234 338.94 125.934 338.82C125.641 338.693 125.384 338.52 125.164 338.3C124.951 338.08 124.781 337.82 124.654 337.52C124.534 337.22 124.474 336.89 124.474 336.53C124.474 336.35 124.498 336.15 124.544 335.93C124.598 335.703 124.674 335.457 124.774 335.19C124.881 334.923 125.008 334.643 125.154 334.35C125.301 334.05 125.471 333.74 125.664 333.42L126.574 331.88H127.624L127.664 331.98L126.564 333.83C126.364 334.17 126.184 334.493 126.024 334.8C125.871 335.107 125.741 335.397 125.634 335.67C125.528 335.937 125.448 336.18 125.394 336.4L125.154 335.37C125.281 335.163 125.418 334.983 125.564 334.83C125.711 334.67 125.868 334.537 126.034 334.43C126.208 334.323 126.388 334.243 126.574 334.19C126.761 334.137 126.954 334.11 127.154 334.11C127.541 334.11 127.894 334.217 128.214 334.43C128.541 334.637 128.801 334.913 128.994 335.26C129.194 335.607 129.294 335.987 129.294 336.4C129.294 336.9 129.191 337.347 128.984 337.74C128.784 338.127 128.504 338.433 128.144 338.66C127.784 338.887 127.371 339 126.904 339ZM126.904 338C127.164 338 127.394 337.94 127.594 337.82C127.801 337.693 127.961 337.52 128.074 337.3C128.194 337.073 128.254 336.817 128.254 336.53C128.254 336.283 128.194 336.053 128.074 335.84C127.954 335.62 127.794 335.443 127.594 335.31C127.394 335.177 127.171 335.11 126.924 335.11C126.651 335.11 126.408 335.173 126.194 335.3C125.981 335.427 125.814 335.597 125.694 335.81C125.574 336.023 125.514 336.26 125.514 336.52C125.514 336.8 125.574 337.053 125.694 337.28C125.814 337.5 125.978 337.677 126.184 337.81C126.391 337.937 126.631 338 126.904 338Z" fill="black"/>
<path d="M118.864 206V204.8H120.22V198.8H118.864V197.6H122.872V198.8H121.516V204.8H122.872V206H118.864ZM124.906 206V197.6H128.194C128.794 197.6 129.334 197.7 129.814 197.9C130.302 198.1 130.718 198.388 131.062 198.764C131.406 199.14 131.67 199.584 131.854 200.096C132.038 200.608 132.13 201.176 132.13 201.8C132.13 202.424 132.038 202.996 131.854 203.516C131.67 204.028 131.406 204.472 131.062 204.848C130.726 205.216 130.314 205.5 129.826 205.7C129.338 205.9 128.794 206 128.194 206H124.906ZM126.202 204.884L126.166 204.752H128.134C128.558 204.752 128.934 204.684 129.262 204.548C129.598 204.412 129.878 204.22 130.102 203.972C130.334 203.716 130.51 203.404 130.63 203.036C130.75 202.668 130.81 202.256 130.81 201.8C130.81 201.344 130.75 200.936 130.63 200.576C130.51 200.208 130.334 199.896 130.102 199.64C129.87 199.384 129.59 199.188 129.262 199.052C128.934 198.916 128.558 198.848 128.134 198.848H126.13L126.202 198.74V204.884Z" fill="#7A7A7A"/>
<path d="M177.176 206V197.6H178.34L183.476 204.476L183.284 204.584C183.252 204.384 183.224 204.168 183.2 203.936C183.176 203.696 183.152 203.444 183.128 203.18C183.112 202.908 183.096 202.624 183.08 202.328C183.072 202.024 183.064 201.708 183.056 201.38C183.048 201.052 183.044 200.712 183.044 200.36V197.6H184.34V206H183.152L178.1 199.376L178.232 199.208C178.272 199.696 178.304 200.112 178.328 200.456C178.36 200.792 178.384 201.08 178.4 201.32C178.424 201.552 178.44 201.744 178.448 201.896C178.456 202.04 178.46 202.16 178.46 202.256C178.468 202.352 178.472 202.436 178.472 202.508V206H177.176ZM188.804 206.12C188.284 206.12 187.808 205.976 187.376 205.688C186.952 205.4 186.612 205.008 186.356 204.512C186.1 204.016 185.972 203.456 185.972 202.832C185.972 202.2 186.1 201.64 186.356 201.152C186.62 200.656 186.972 200.268 187.412 199.988C187.86 199.708 188.36 199.568 188.912 199.568C189.24 199.568 189.54 199.616 189.812 199.712C190.084 199.808 190.32 199.944 190.52 200.12C190.728 200.288 190.896 200.484 191.024 200.708C191.16 200.932 191.244 201.172 191.276 201.428L191 201.332V199.7H192.248V206H191V204.5L191.288 204.416C191.24 204.632 191.14 204.844 190.988 205.052C190.844 205.252 190.656 205.432 190.424 205.592C190.2 205.752 189.948 205.88 189.668 205.976C189.396 206.072 189.108 206.12 188.804 206.12ZM189.128 204.98C189.504 204.98 189.836 204.888 190.124 204.704C190.412 204.52 190.636 204.268 190.796 203.948C190.964 203.62 191.048 203.248 191.048 202.832C191.048 202.424 190.964 202.06 190.796 201.74C190.636 201.42 190.412 201.168 190.124 200.984C189.836 200.8 189.504 200.708 189.128 200.708C188.76 200.708 188.432 200.8 188.144 200.984C187.864 201.168 187.64 201.42 187.472 201.74C187.312 202.06 187.232 202.424 187.232 202.832C187.232 203.248 187.312 203.62 187.472 203.948C187.64 204.268 187.864 204.52 188.144 204.704C188.432 204.888 188.76 204.98 189.128 204.98ZM193.949 206V199.7H195.197V201.044L194.969 201.188C195.033 200.98 195.133 200.78 195.269 200.588C195.413 200.396 195.585 200.228 195.785 200.084C195.993 199.932 196.213 199.812 196.445 199.724C196.685 199.636 196.929 199.592 197.177 199.592C197.537 199.592 197.853 199.652 198.125 199.772C198.397 199.892 198.621 200.072 198.797 200.312C198.973 200.552 199.101 200.852 199.181 201.212L198.989 201.164L199.073 200.96C199.161 200.776 199.281 200.604 199.433 200.444C199.593 200.276 199.773 200.128 199.973 200C200.173 199.872 200.385 199.772 200.609 199.7C200.833 199.628 201.053 199.592 201.269 199.592C201.741 199.592 202.129 199.688 202.433 199.88C202.745 200.072 202.977 200.364 203.129 200.756C203.289 201.148 203.369 201.636 203.369 202.22V206H202.121V202.292C202.121 201.932 202.073 201.64 201.977 201.416C201.889 201.184 201.753 201.012 201.569 200.9C201.385 200.788 201.149 200.732 200.861 200.732C200.637 200.732 200.425 200.772 200.225 200.852C200.033 200.924 199.865 201.028 199.721 201.164C199.577 201.3 199.465 201.46 199.385 201.644C199.305 201.82 199.265 202.016 199.265 202.232V206H198.017V202.268C198.017 201.94 197.969 201.664 197.873 201.44C197.777 201.208 197.637 201.032 197.453 200.912C197.269 200.792 197.045 200.732 196.781 200.732C196.557 200.732 196.349 200.772 196.157 200.852C195.965 200.924 195.797 201.028 195.653 201.164C195.509 201.292 195.397 201.448 195.317 201.632C195.237 201.808 195.197 202 195.197 202.208V206H193.949ZM207.964 206.12C207.316 206.12 206.74 205.984 206.236 205.712C205.74 205.432 205.348 205.052 205.06 204.572C204.78 204.092 204.64 203.54 204.64 202.916C204.64 202.42 204.72 201.968 204.88 201.56C205.04 201.152 205.26 200.8 205.54 200.504C205.828 200.2 206.168 199.968 206.56 199.808C206.96 199.64 207.392 199.556 207.856 199.556C208.264 199.556 208.644 199.636 208.996 199.796C209.348 199.948 209.652 200.16 209.908 200.432C210.172 200.704 210.372 201.028 210.508 201.404C210.652 201.772 210.72 202.176 210.712 202.616L210.7 203.144H205.552L205.276 202.16H209.632L209.452 202.364V202.076C209.428 201.812 209.34 201.576 209.188 201.368C209.036 201.16 208.844 200.996 208.612 200.876C208.38 200.756 208.128 200.696 207.856 200.696C207.424 200.696 207.06 200.78 206.764 200.948C206.468 201.108 206.244 201.348 206.092 201.668C205.94 201.98 205.864 202.368 205.864 202.832C205.864 203.272 205.956 203.656 206.14 203.984C206.324 204.304 206.584 204.552 206.92 204.728C207.256 204.904 207.644 204.992 208.084 204.992C208.396 204.992 208.684 204.94 208.948 204.836C209.22 204.732 209.512 204.544 209.824 204.272L210.448 205.148C210.256 205.34 210.02 205.508 209.74 205.652C209.468 205.796 209.176 205.912 208.864 206C208.56 206.08 208.26 206.12 207.964 206.12Z" fill="#7A7A7A"/>
<path d="M249.584 206.12C249 206.12 248.464 206.016 247.976 205.808C247.488 205.6 247.064 205.304 246.704 204.92C246.344 204.528 246.064 204.068 245.864 203.54C245.672 203.012 245.576 202.432 245.576 201.8C245.576 201.2 245.68 200.644 245.888 200.132C246.104 199.612 246.4 199.156 246.776 198.764C247.152 198.372 247.588 198.068 248.084 197.852C248.58 197.636 249.116 197.528 249.692 197.528C250.1 197.528 250.496 197.592 250.88 197.72C251.272 197.84 251.624 198.012 251.936 198.236C252.256 198.452 252.516 198.7 252.716 198.98L251.852 199.88C251.62 199.648 251.384 199.456 251.144 199.304C250.912 199.144 250.672 199.024 250.424 198.944C250.184 198.864 249.94 198.824 249.692 198.824C249.3 198.824 248.932 198.9 248.588 199.052C248.252 199.196 247.956 199.4 247.7 199.664C247.452 199.928 247.256 200.244 247.112 200.612C246.968 200.972 246.896 201.368 246.896 201.8C246.896 202.256 246.964 202.672 247.1 203.048C247.244 203.416 247.444 203.732 247.7 203.996C247.956 204.26 248.26 204.464 248.612 204.608C248.972 204.744 249.368 204.812 249.8 204.812C250.064 204.812 250.324 204.776 250.58 204.704C250.836 204.632 251.076 204.528 251.3 204.392C251.524 204.256 251.728 204.096 251.912 203.912L252.56 204.968C252.376 205.184 252.124 205.38 251.804 205.556C251.492 205.732 251.14 205.872 250.748 205.976C250.364 206.072 249.976 206.12 249.584 206.12ZM256.433 206.12C255.913 206.12 255.437 205.976 255.005 205.688C254.581 205.4 254.241 205.008 253.985 204.512C253.729 204.016 253.601 203.456 253.601 202.832C253.601 202.2 253.729 201.64 253.985 201.152C254.249 200.656 254.601 200.268 255.041 199.988C255.489 199.708 255.989 199.568 256.541 199.568C256.869 199.568 257.169 199.616 257.441 199.712C257.713 199.808 257.949 199.944 258.149 200.12C258.357 200.288 258.525 200.484 258.653 200.708C258.789 200.932 258.873 201.172 258.905 201.428L258.629 201.332V199.7H259.877V206H258.629V204.5L258.917 204.416C258.869 204.632 258.769 204.844 258.617 205.052C258.473 205.252 258.285 205.432 258.053 205.592C257.829 205.752 257.577 205.88 257.297 205.976C257.025 206.072 256.737 206.12 256.433 206.12ZM256.757 204.98C257.133 204.98 257.465 204.888 257.753 204.704C258.041 204.52 258.265 204.268 258.425 203.948C258.593 203.62 258.677 203.248 258.677 202.832C258.677 202.424 258.593 202.06 258.425 201.74C258.265 201.42 258.041 201.168 257.753 200.984C257.465 200.8 257.133 200.708 256.757 200.708C256.389 200.708 256.061 200.8 255.773 200.984C255.493 201.168 255.269 201.42 255.101 201.74C254.941 202.06 254.861 202.424 254.861 202.832C254.861 203.248 254.941 203.62 255.101 203.948C255.269 204.268 255.493 204.52 255.773 204.704C256.061 204.888 256.389 204.98 256.757 204.98ZM262.382 206V198.092H263.618V206H262.382ZM261.074 200.9V199.7H265.082V200.9H261.074ZM269.089 206.12C268.441 206.12 267.865 205.984 267.361 205.712C266.865 205.432 266.473 205.052 266.185 204.572C265.905 204.092 265.765 203.54 265.765 202.916C265.765 202.42 265.845 201.968 266.005 201.56C266.165 201.152 266.385 200.8 266.665 200.504C266.953 200.2 267.293 199.968 267.685 199.808C268.085 199.64 268.517 199.556 268.981 199.556C269.389 199.556 269.769 199.636 270.121 199.796C270.473 199.948 270.777 200.16 271.033 200.432C271.297 200.704 271.497 201.028 271.633 201.404C271.777 201.772 271.845 202.176 271.837 202.616L271.825 203.144H266.677L266.401 202.16H270.757L270.577 202.364V202.076C270.553 201.812 270.465 201.576 270.313 201.368C270.161 201.16 269.969 200.996 269.737 200.876C269.505 200.756 269.253 200.696 268.981 200.696C268.549 200.696 268.185 200.78 267.889 200.948C267.593 201.108 267.369 201.348 267.217 201.668C267.065 201.98 266.989 202.368 266.989 202.832C266.989 203.272 267.081 203.656 267.265 203.984C267.449 204.304 267.709 204.552 268.045 204.728C268.381 204.904 268.769 204.992 269.209 204.992C269.521 204.992 269.809 204.94 270.073 204.836C270.345 204.732 270.637 204.544 270.949 204.272L271.573 205.148C271.381 205.34 271.145 205.508 270.865 205.652C270.593 205.796 270.301 205.912 269.989 206C269.685 206.08 269.385 206.12 269.089 206.12ZM275.942 208.76C275.494 208.76 275.046 208.688 274.598 208.544C274.158 208.408 273.802 208.228 273.53 208.004L273.986 207.044C274.146 207.164 274.334 207.268 274.55 207.356C274.766 207.452 274.994 207.524 275.234 207.572C275.474 207.628 275.71 207.656 275.942 207.656C276.382 207.656 276.75 207.584 277.046 207.44C277.342 207.296 277.566 207.084 277.718 206.804C277.87 206.524 277.946 206.176 277.946 205.76V204.548L278.078 204.632C278.038 204.88 277.906 205.12 277.682 205.352C277.466 205.576 277.194 205.76 276.866 205.904C276.538 206.048 276.202 206.12 275.858 206.12C275.258 206.12 274.722 205.98 274.25 205.7C273.786 205.412 273.418 205.024 273.146 204.536C272.874 204.04 272.738 203.476 272.738 202.844C272.738 202.212 272.87 201.652 273.134 201.164C273.406 200.668 273.774 200.28 274.238 200C274.71 199.712 275.238 199.568 275.822 199.568C276.062 199.568 276.294 199.6 276.518 199.664C276.742 199.72 276.95 199.804 277.142 199.916C277.334 200.02 277.506 200.136 277.658 200.264C277.81 200.392 277.934 200.528 278.03 200.672C278.126 200.816 278.186 200.952 278.21 201.08L277.946 201.176V199.7H279.182V205.616C279.182 206.12 279.106 206.564 278.954 206.948C278.81 207.34 278.598 207.668 278.318 207.932C278.038 208.204 277.698 208.408 277.298 208.544C276.898 208.688 276.446 208.76 275.942 208.76ZM275.99 204.98C276.382 204.98 276.73 204.888 277.034 204.704C277.338 204.52 277.574 204.268 277.742 203.948C277.91 203.628 277.994 203.26 277.994 202.844C277.994 202.428 277.906 202.06 277.73 201.74C277.562 201.412 277.326 201.156 277.022 200.972C276.726 200.788 276.382 200.696 275.99 200.696C275.606 200.696 275.262 200.792 274.958 200.984C274.662 201.168 274.426 201.424 274.25 201.752C274.082 202.072 273.998 202.436 273.998 202.844C273.998 203.252 274.082 203.62 274.25 203.948C274.426 204.268 274.662 204.52 274.958 204.704C275.262 204.888 275.606 204.98 275.99 204.98ZM283.747 206.12C283.131 206.12 282.579 205.98 282.091 205.7C281.611 205.412 281.231 205.024 280.951 204.536C280.671 204.04 280.531 203.476 280.531 202.844C280.531 202.212 280.671 201.652 280.951 201.164C281.231 200.668 281.611 200.28 282.091 200C282.579 199.712 283.131 199.568 283.747 199.568C284.355 199.568 284.899 199.712 285.379 200C285.867 200.28 286.251 200.668 286.531 201.164C286.811 201.652 286.951 202.212 286.951 202.844C286.951 203.476 286.811 204.04 286.531 204.536C286.251 205.024 285.867 205.412 285.379 205.7C284.899 205.98 284.355 206.12 283.747 206.12ZM283.747 204.992C284.123 204.992 284.459 204.9 284.755 204.716C285.051 204.524 285.283 204.268 285.451 203.948C285.619 203.62 285.699 203.252 285.691 202.844C285.699 202.428 285.619 202.06 285.451 201.74C285.283 201.412 285.051 201.156 284.755 200.972C284.459 200.788 284.123 200.696 283.747 200.696C283.371 200.696 283.031 200.792 282.727 200.984C282.431 201.168 282.199 201.424 282.031 201.752C281.863 202.072 281.783 202.436 281.791 202.844C281.783 203.252 281.863 203.62 282.031 203.948C282.199 204.268 282.431 204.524 282.727 204.716C283.031 204.9 283.371 204.992 283.747 204.992ZM288.298 206V199.7H289.546V201.68L289.426 201.2C289.514 200.896 289.662 200.62 289.87 200.372C290.086 200.124 290.33 199.928 290.602 199.784C290.882 199.64 291.17 199.568 291.466 199.568C291.602 199.568 291.73 199.58 291.85 199.604C291.978 199.628 292.078 199.656 292.15 199.688L291.826 201.032C291.73 200.992 291.622 200.96 291.502 200.936C291.39 200.904 291.278 200.888 291.166 200.888C290.95 200.888 290.742 200.932 290.542 201.02C290.35 201.1 290.178 201.216 290.026 201.368C289.882 201.512 289.766 201.684 289.678 201.884C289.59 202.076 289.546 202.288 289.546 202.52V206H288.298ZM294.193 208.76L295.465 205.82L295.477 206.804L292.333 199.7H293.773L295.741 204.332C295.781 204.412 295.829 204.536 295.885 204.704C295.941 204.864 295.989 205.024 296.029 205.184L295.717 205.256C295.781 205.088 295.841 204.92 295.897 204.752C295.961 204.584 296.021 204.416 296.077 204.248L297.721 199.7H299.185L296.593 206L295.525 208.76H294.193Z" fill="#7A7A7A"/>
<path d="M337.584 206.12C337 206.12 336.464 206.016 335.976 205.808C335.488 205.6 335.064 205.304 334.704 204.92C334.344 204.528 334.064 204.068 333.864 203.54C333.672 203.012 333.576 202.432 333.576 201.8C333.576 201.2 333.68 200.644 333.888 200.132C334.104 199.612 334.4 199.156 334.776 198.764C335.152 198.372 335.588 198.068 336.084 197.852C336.58 197.636 337.116 197.528 337.692 197.528C338.1 197.528 338.496 197.592 338.88 197.72C339.272 197.84 339.624 198.012 339.936 198.236C340.256 198.452 340.516 198.7 340.716 198.98L339.852 199.88C339.62 199.648 339.384 199.456 339.144 199.304C338.912 199.144 338.672 199.024 338.424 198.944C338.184 198.864 337.94 198.824 337.692 198.824C337.3 198.824 336.932 198.9 336.588 199.052C336.252 199.196 335.956 199.4 335.7 199.664C335.452 199.928 335.256 200.244 335.112 200.612C334.968 200.972 334.896 201.368 334.896 201.8C334.896 202.256 334.964 202.672 335.1 203.048C335.244 203.416 335.444 203.732 335.7 203.996C335.956 204.26 336.26 204.464 336.612 204.608C336.972 204.744 337.368 204.812 337.8 204.812C338.064 204.812 338.324 204.776 338.58 204.704C338.836 204.632 339.076 204.528 339.3 204.392C339.524 204.256 339.728 204.096 339.912 203.912L340.56 204.968C340.376 205.184 340.124 205.38 339.804 205.556C339.492 205.732 339.14 205.872 338.748 205.976C338.364 206.072 337.976 206.12 337.584 206.12ZM344.841 206.12C344.225 206.12 343.673 205.98 343.185 205.7C342.705 205.412 342.325 205.024 342.045 204.536C341.765 204.04 341.625 203.476 341.625 202.844C341.625 202.212 341.765 201.652 342.045 201.164C342.325 200.668 342.705 200.28 343.185 200C343.673 199.712 344.225 199.568 344.841 199.568C345.449 199.568 345.993 199.712 346.473 200C346.961 200.28 347.345 200.668 347.625 201.164C347.905 201.652 348.045 202.212 348.045 202.844C348.045 203.476 347.905 204.04 347.625 204.536C347.345 205.024 346.961 205.412 346.473 205.7C345.993 205.98 345.449 206.12 344.841 206.12ZM344.841 204.992C345.217 204.992 345.553 204.9 345.849 204.716C346.145 204.524 346.377 204.268 346.545 203.948C346.713 203.62 346.793 203.252 346.785 202.844C346.793 202.428 346.713 202.06 346.545 201.74C346.377 201.412 346.145 201.156 345.849 200.972C345.553 200.788 345.217 200.696 344.841 200.696C344.465 200.696 344.125 200.792 343.821 200.984C343.525 201.168 343.293 201.424 343.125 201.752C342.957 202.072 342.877 202.436 342.885 202.844C342.877 203.252 342.957 203.62 343.125 203.948C343.293 204.268 343.525 204.524 343.821 204.716C344.125 204.9 344.465 204.992 344.841 204.992ZM351.491 206.12C350.963 206.12 350.487 206.028 350.063 205.844C349.639 205.66 349.287 205.388 349.007 205.028L349.847 204.308C350.087 204.588 350.347 204.792 350.627 204.92C350.915 205.04 351.239 205.1 351.599 205.1C351.743 205.1 351.875 205.084 351.995 205.052C352.123 205.012 352.231 204.956 352.319 204.884C352.415 204.812 352.487 204.728 352.535 204.632C352.583 204.528 352.607 204.416 352.607 204.296C352.607 204.088 352.531 203.92 352.379 203.792C352.299 203.736 352.171 203.676 351.995 203.612C351.827 203.54 351.607 203.468 351.335 203.396C350.871 203.276 350.491 203.14 350.195 202.988C349.899 202.836 349.671 202.664 349.511 202.472C349.391 202.32 349.303 202.156 349.247 201.98C349.191 201.796 349.163 201.596 349.163 201.38C349.163 201.116 349.219 200.876 349.331 200.66C349.451 200.436 349.611 200.244 349.811 200.084C350.019 199.916 350.259 199.788 350.531 199.7C350.811 199.612 351.107 199.568 351.419 199.568C351.715 199.568 352.007 199.608 352.295 199.688C352.591 199.768 352.863 199.884 353.111 200.036C353.359 200.188 353.567 200.368 353.735 200.576L353.027 201.356C352.875 201.204 352.707 201.072 352.523 200.96C352.347 200.84 352.167 200.748 351.983 200.684C351.799 200.62 351.631 200.588 351.479 200.588C351.311 200.588 351.159 200.604 351.023 200.636C350.887 200.668 350.771 200.716 350.675 200.78C350.587 200.844 350.519 200.924 350.471 201.02C350.423 201.116 350.399 201.224 350.399 201.344C350.407 201.448 350.431 201.548 350.471 201.644C350.519 201.732 350.583 201.808 350.663 201.872C350.751 201.936 350.883 202.004 351.059 202.076C351.235 202.148 351.459 202.216 351.731 202.28C352.131 202.384 352.459 202.5 352.715 202.628C352.979 202.748 353.187 202.888 353.339 203.048C353.499 203.2 353.611 203.376 353.675 203.576C353.739 203.776 353.771 204 353.771 204.248C353.771 204.608 353.667 204.932 353.459 205.22C353.259 205.5 352.987 205.72 352.643 205.88C352.299 206.04 351.915 206.12 351.491 206.12ZM355.914 206V198.092H357.15V206H355.914ZM354.606 200.9V199.7H358.614V200.9H354.606Z" fill="#7A7A7A"/>
<rect x="107" y="387" width="265" height="29" rx="5" fill="#0900FF"/>
<path d="M210.083 406L213.359 397.662H214.955L218.206 406H216.372L214.693 401.51C214.645 401.383 214.586 401.22 214.514 401.021C214.451 400.823 214.383 400.612 214.312 400.39C214.24 400.168 214.173 399.957 214.109 399.759C214.046 399.552 213.998 399.382 213.966 399.247H214.288C214.24 399.421 214.185 399.608 214.121 399.806C214.066 399.997 214.006 400.196 213.942 400.402C213.879 400.6 213.811 400.795 213.74 400.986C213.669 401.176 213.601 401.363 213.537 401.545L211.858 406H210.083ZM211.608 404.249L212.192 402.82H216.015L216.61 404.249H211.608ZM221.372 406.119C220.816 406.119 220.32 405.98 219.883 405.702C219.454 405.416 219.113 405.031 218.859 404.547C218.613 404.055 218.489 403.487 218.489 402.844C218.489 402.216 218.613 401.657 218.859 401.164C219.113 400.664 219.454 400.275 219.883 399.997C220.32 399.711 220.816 399.568 221.372 399.568C221.666 399.568 221.948 399.616 222.218 399.711C222.495 399.798 222.742 399.922 222.956 400.08C223.178 400.239 223.357 400.418 223.492 400.616C223.627 400.807 223.702 401.005 223.718 401.212L223.289 401.295V397.186H224.993V406H223.385L223.313 404.547L223.647 404.583C223.631 404.781 223.559 404.972 223.432 405.154C223.305 405.337 223.135 405.504 222.92 405.655C222.714 405.798 222.476 405.913 222.206 406C221.944 406.079 221.666 406.119 221.372 406.119ZM221.753 404.714C222.071 404.714 222.349 404.634 222.587 404.475C222.825 404.317 223.012 404.098 223.147 403.82C223.282 403.542 223.349 403.217 223.349 402.844C223.349 402.478 223.282 402.157 223.147 401.879C223.012 401.601 222.825 401.383 222.587 401.224C222.349 401.065 222.071 400.986 221.753 400.986C221.435 400.986 221.157 401.065 220.919 401.224C220.689 401.383 220.506 401.601 220.371 401.879C220.244 402.157 220.181 402.478 220.181 402.844C220.181 403.217 220.244 403.542 220.371 403.82C220.506 404.098 220.689 404.317 220.919 404.475C221.157 404.634 221.435 404.714 221.753 404.714ZM229.095 406.119C228.539 406.119 228.043 405.98 227.606 405.702C227.178 405.416 226.836 405.031 226.582 404.547C226.336 404.055 226.213 403.487 226.213 402.844C226.213 402.216 226.336 401.657 226.582 401.164C226.836 400.664 227.178 400.275 227.606 399.997C228.043 399.711 228.539 399.568 229.095 399.568C229.389 399.568 229.671 399.616 229.941 399.711C230.219 399.798 230.465 399.922 230.679 400.08C230.902 400.239 231.08 400.418 231.215 400.616C231.35 400.807 231.426 401.005 231.442 401.212L231.013 401.295V397.186H232.716V406H231.108L231.037 404.547L231.37 404.583C231.354 404.781 231.283 404.972 231.156 405.154C231.029 405.337 230.858 405.504 230.644 405.655C230.437 405.798 230.199 405.913 229.929 406C229.667 406.079 229.389 406.119 229.095 406.119ZM229.476 404.714C229.794 404.714 230.072 404.634 230.31 404.475C230.548 404.317 230.735 404.098 230.87 403.82C231.005 403.542 231.072 403.217 231.072 402.844C231.072 402.478 231.005 402.157 230.87 401.879C230.735 401.601 230.548 401.383 230.31 401.224C230.072 401.065 229.794 400.986 229.476 400.986C229.159 400.986 228.881 401.065 228.643 401.224C228.412 401.383 228.23 401.601 228.095 401.879C227.968 402.157 227.904 402.478 227.904 402.844C227.904 403.217 227.968 403.542 228.095 403.82C228.23 404.098 228.412 404.317 228.643 404.475C228.881 404.634 229.159 404.714 229.476 404.714ZM238.244 406V397.662H241.781C242.281 397.662 242.73 397.782 243.127 398.02C243.524 398.25 243.838 398.568 244.068 398.973C244.306 399.378 244.425 399.834 244.425 400.342C244.425 400.859 244.306 401.323 244.068 401.736C243.838 402.149 243.524 402.478 243.127 402.725C242.73 402.963 242.281 403.082 241.781 403.082H240.03V406H238.244ZM240.006 401.474H241.579C241.769 401.474 241.94 401.426 242.091 401.331C242.242 401.228 242.361 401.093 242.448 400.926C242.543 400.759 242.591 400.569 242.591 400.354C242.591 400.14 242.543 399.953 242.448 399.795C242.361 399.636 242.242 399.509 242.091 399.413C241.94 399.318 241.769 399.27 241.579 399.27H240.006V401.474ZM248.029 406.119C247.505 406.119 247.032 405.976 246.611 405.69C246.191 405.404 245.857 405.015 245.611 404.523C245.365 404.031 245.242 403.467 245.242 402.832C245.242 402.197 245.365 401.633 245.611 401.14C245.865 400.648 246.207 400.263 246.635 399.985C247.064 399.707 247.552 399.568 248.1 399.568C248.41 399.568 248.692 399.616 248.946 399.711C249.208 399.798 249.434 399.922 249.625 400.08C249.823 400.239 249.99 400.422 250.125 400.628C250.26 400.835 250.355 401.057 250.411 401.295L250.054 401.236V399.699H251.733V406H250.03V404.487L250.411 404.452C250.347 404.674 250.244 404.884 250.101 405.083C249.958 405.281 249.78 405.46 249.565 405.619C249.359 405.77 249.125 405.893 248.863 405.988C248.601 406.075 248.323 406.119 248.029 406.119ZM248.493 404.654C248.811 404.654 249.089 404.579 249.327 404.428C249.565 404.277 249.748 404.066 249.875 403.797C250.01 403.519 250.078 403.197 250.078 402.832C250.078 402.474 250.01 402.161 249.875 401.891C249.748 401.621 249.565 401.41 249.327 401.26C249.089 401.101 248.811 401.021 248.493 401.021C248.184 401.021 247.91 401.101 247.672 401.26C247.441 401.41 247.259 401.621 247.124 401.891C246.989 402.161 246.921 402.474 246.921 402.832C246.921 403.197 246.989 403.519 247.124 403.797C247.259 404.066 247.441 404.277 247.672 404.428C247.91 404.579 248.184 404.654 248.493 404.654ZM253.429 406V399.699H255.061L255.12 401.724L254.834 401.307C254.93 400.982 255.084 400.688 255.299 400.426C255.513 400.156 255.763 399.945 256.049 399.795C256.343 399.644 256.649 399.568 256.966 399.568C257.101 399.568 257.232 399.58 257.359 399.604C257.486 399.628 257.594 399.656 257.681 399.687L257.228 401.545C257.141 401.498 257.026 401.458 256.883 401.426C256.748 401.387 256.609 401.367 256.466 401.367C256.275 401.367 256.097 401.402 255.93 401.474C255.771 401.537 255.632 401.633 255.513 401.76C255.394 401.879 255.299 402.022 255.227 402.189C255.164 402.355 255.132 402.538 255.132 402.736V406H253.429ZM259.491 406V398.103H261.183V406H259.491ZM258.312 401.212V399.699H262.481V401.212H258.312ZM265.924 406.119C265.337 406.119 264.813 406.024 264.352 405.833C263.899 405.635 263.534 405.365 263.256 405.023L264.316 404.118C264.555 404.38 264.824 404.571 265.126 404.69C265.428 404.801 265.73 404.857 266.031 404.857C266.151 404.857 266.258 404.845 266.353 404.821C266.456 404.789 266.544 404.749 266.615 404.702C266.687 404.646 266.738 404.583 266.77 404.511C266.81 404.432 266.829 404.348 266.829 404.261C266.829 404.086 266.758 403.951 266.615 403.856C266.536 403.808 266.413 403.757 266.246 403.701C266.079 403.638 265.865 403.57 265.603 403.499C265.198 403.396 264.852 403.276 264.566 403.141C264.289 402.998 264.066 402.84 263.899 402.665C263.756 402.498 263.645 402.32 263.566 402.129C263.494 401.931 263.459 401.712 263.459 401.474C263.459 401.188 263.522 400.93 263.649 400.7C263.776 400.462 263.951 400.259 264.173 400.092C264.404 399.926 264.666 399.798 264.959 399.711C265.253 399.616 265.563 399.568 265.889 399.568C266.214 399.568 266.532 399.608 266.841 399.687C267.151 399.767 267.437 399.882 267.699 400.033C267.969 400.176 268.203 400.346 268.402 400.545L267.496 401.545C267.354 401.41 267.191 401.287 267.008 401.176C266.833 401.065 266.651 400.978 266.46 400.914C266.27 400.851 266.099 400.819 265.948 400.819C265.813 400.819 265.69 400.831 265.579 400.855C265.476 400.878 265.388 400.918 265.317 400.974C265.245 401.021 265.19 401.081 265.15 401.152C265.118 401.224 265.102 401.303 265.102 401.391C265.102 401.478 265.122 401.561 265.162 401.641C265.21 401.72 265.273 401.788 265.353 401.843C265.44 401.891 265.567 401.946 265.734 402.01C265.908 402.073 266.143 402.145 266.436 402.224C266.818 402.328 267.139 402.443 267.401 402.57C267.671 402.697 267.886 402.844 268.044 403.01C268.179 403.153 268.279 403.316 268.342 403.499C268.406 403.681 268.437 403.884 268.437 404.106C268.437 404.495 268.326 404.841 268.104 405.142C267.89 405.444 267.592 405.682 267.211 405.857C266.829 406.032 266.401 406.119 265.924 406.119Z" fill="white"/>
<rect x="107" y="152" width="265" height="29" rx="5" fill="#E4E6EA"/>
<path d="M348.2 165.799C348.2 163.814 349.815 162.2 351.8 162.2C353.785 162.2 355.4 163.814 355.4 165.799C355.4 167.785 353.785 169.399 351.8 169.399C349.815 169.399 348.2 167.785 348.2 165.799ZM358.824 171.974L355.587 168.737C356.243 167.899 356.6 166.864 356.6 165.799C356.6 163.153 354.447 161 351.8 161C349.153 161 347 163.153 347 165.799C347 168.446 349.153 170.599 351.8 170.599C352.865 170.598 353.899 170.242 354.738 169.586L357.976 172.823C358.059 172.907 358.166 172.965 358.283 172.988C358.4 173.012 358.52 173 358.63 172.954C358.74 172.909 358.834 172.832 358.9 172.733C358.966 172.634 359.001 172.517 359 172.398C359 172.239 358.937 172.087 358.824 171.974Z" fill="black"/>
<path d="M118.576 170V169.2H119.48V165.2H118.576V164.4H121.248V165.2H120.344V169.2H121.248V170H118.576ZM122.916 170V164.728H123.74V170H122.916ZM122.044 166.6V165.8H124.716V166.6H122.044ZM127.388 170.08C126.956 170.08 126.572 169.989 126.236 169.808C125.905 169.621 125.644 169.368 125.452 169.048C125.265 168.728 125.172 168.36 125.172 167.944C125.172 167.613 125.225 167.312 125.332 167.04C125.438 166.768 125.585 166.533 125.772 166.336C125.964 166.133 126.19 165.979 126.452 165.872C126.718 165.76 127.006 165.704 127.316 165.704C127.588 165.704 127.841 165.757 128.076 165.864C128.31 165.965 128.513 166.107 128.684 166.288C128.86 166.469 128.993 166.685 129.084 166.936C129.18 167.181 129.225 167.451 129.22 167.744L129.212 168.096H125.78L125.596 167.44H128.5L128.38 167.576V167.384C128.364 167.208 128.305 167.051 128.204 166.912C128.102 166.773 127.974 166.664 127.82 166.584C127.665 166.504 127.497 166.464 127.316 166.464C127.028 166.464 126.785 166.52 126.588 166.632C126.39 166.739 126.241 166.899 126.14 167.112C126.038 167.32 125.988 167.579 125.988 167.888C125.988 168.181 126.049 168.437 126.172 168.656C126.294 168.869 126.468 169.035 126.692 169.152C126.916 169.269 127.174 169.328 127.468 169.328C127.676 169.328 127.868 169.293 128.044 169.224C128.225 169.155 128.42 169.029 128.628 168.848L129.044 169.432C128.916 169.56 128.758 169.672 128.572 169.768C128.39 169.864 128.196 169.941 127.988 170C127.785 170.053 127.585 170.08 127.388 170.08ZM130.099 170V165.8H130.931V166.696L130.779 166.792C130.822 166.653 130.888 166.52 130.979 166.392C131.075 166.264 131.19 166.152 131.323 166.056C131.462 165.955 131.608 165.875 131.763 165.816C131.923 165.757 132.086 165.728 132.251 165.728C132.491 165.728 132.702 165.768 132.883 165.848C133.064 165.928 133.214 166.048 133.331 166.208C133.448 166.368 133.534 166.568 133.587 166.808L133.459 166.776L133.515 166.64C133.574 166.517 133.654 166.403 133.755 166.296C133.862 166.184 133.982 166.085 134.115 166C134.248 165.915 134.39 165.848 134.539 165.8C134.688 165.752 134.835 165.728 134.979 165.728C135.294 165.728 135.552 165.792 135.755 165.92C135.963 166.048 136.118 166.243 136.219 166.504C136.326 166.765 136.379 167.091 136.379 167.48V170H135.547V167.528C135.547 167.288 135.515 167.093 135.451 166.944C135.392 166.789 135.302 166.675 135.179 166.6C135.056 166.525 134.899 166.488 134.707 166.488C134.558 166.488 134.416 166.515 134.283 166.568C134.155 166.616 134.043 166.685 133.947 166.776C133.851 166.867 133.776 166.973 133.723 167.096C133.67 167.213 133.643 167.344 133.643 167.488V170H132.811V167.512C132.811 167.293 132.779 167.109 132.715 166.96C132.651 166.805 132.558 166.688 132.435 166.608C132.312 166.528 132.163 166.488 131.987 166.488C131.838 166.488 131.699 166.515 131.571 166.568C131.443 166.616 131.331 166.685 131.235 166.776C131.139 166.861 131.064 166.965 131.011 167.088C130.958 167.205 130.931 167.333 130.931 167.472V170H130.099ZM141.932 170.08C141.751 170.08 141.57 170.051 141.388 169.992C141.212 169.933 141.05 169.856 140.9 169.76C140.756 169.659 140.634 169.549 140.532 169.432C140.436 169.309 140.372 169.187 140.34 169.064L140.548 168.952V169.976H139.724V164.08H140.548V166.76L140.42 166.688C140.447 166.565 140.506 166.448 140.596 166.336C140.687 166.219 140.802 166.115 140.94 166.024C141.084 165.928 141.239 165.853 141.404 165.8C141.57 165.741 141.738 165.712 141.908 165.712C142.287 165.712 142.623 165.805 142.916 165.992C143.21 166.179 143.442 166.437 143.612 166.768C143.783 167.093 143.868 167.467 143.868 167.888C143.868 168.309 143.783 168.685 143.612 169.016C143.447 169.347 143.218 169.608 142.924 169.8C142.631 169.987 142.3 170.08 141.932 170.08ZM141.796 169.328C142.042 169.328 142.26 169.267 142.452 169.144C142.644 169.016 142.796 168.845 142.908 168.632C143.02 168.413 143.076 168.165 143.076 167.888C143.076 167.616 143.02 167.373 142.908 167.16C142.802 166.941 142.652 166.771 142.46 166.648C142.268 166.525 142.047 166.464 141.796 166.464C141.546 166.464 141.324 166.525 141.132 166.648C140.94 166.771 140.788 166.941 140.676 167.16C140.564 167.373 140.508 167.616 140.508 167.888C140.508 168.165 140.564 168.413 140.676 168.632C140.788 168.845 140.94 169.016 141.132 169.144C141.324 169.267 141.546 169.328 141.796 169.328ZM145.311 171.84L146.159 169.88L146.167 170.536L144.071 165.8H145.031L146.343 168.888C146.37 168.941 146.402 169.024 146.439 169.136C146.477 169.243 146.509 169.349 146.535 169.456L146.327 169.504C146.37 169.392 146.41 169.28 146.447 169.168C146.49 169.056 146.53 168.944 146.567 168.832L147.663 165.8H148.639L146.911 170L146.199 171.84H145.311ZM151.498 170V165.8H152.322V166.664L152.178 166.76C152.231 166.573 152.335 166.403 152.49 166.248C152.645 166.088 152.829 165.96 153.042 165.864C153.255 165.763 153.474 165.712 153.698 165.712C154.018 165.712 154.285 165.776 154.498 165.904C154.711 166.027 154.871 166.216 154.978 166.472C155.085 166.728 155.138 167.051 155.138 167.44V170H154.314V167.496C154.314 167.256 154.282 167.059 154.218 166.904C154.154 166.744 154.055 166.629 153.922 166.56C153.789 166.485 153.623 166.453 153.426 166.464C153.266 166.464 153.119 166.491 152.986 166.544C152.853 166.592 152.735 166.661 152.634 166.752C152.538 166.843 152.461 166.949 152.402 167.072C152.349 167.189 152.322 167.317 152.322 167.456V170H151.914C151.845 170 151.775 170 151.706 170C151.637 170 151.567 170 151.498 170ZM157.872 170.08C157.525 170.08 157.208 169.984 156.92 169.792C156.637 169.6 156.41 169.339 156.24 169.008C156.069 168.677 155.984 168.304 155.984 167.888C155.984 167.467 156.069 167.093 156.24 166.768C156.416 166.437 156.65 166.179 156.944 165.992C157.242 165.805 157.576 165.712 157.944 165.712C158.162 165.712 158.362 165.744 158.544 165.808C158.725 165.872 158.882 165.963 159.016 166.08C159.154 166.192 159.266 166.323 159.352 166.472C159.442 166.621 159.498 166.781 159.52 166.952L159.336 166.888V165.8H160.168V170H159.336V169L159.528 168.944C159.496 169.088 159.429 169.229 159.328 169.368C159.232 169.501 159.106 169.621 158.952 169.728C158.802 169.835 158.634 169.92 158.448 169.984C158.266 170.048 158.074 170.08 157.872 170.08ZM158.088 169.32C158.338 169.32 158.56 169.259 158.752 169.136C158.944 169.013 159.093 168.845 159.2 168.632C159.312 168.413 159.368 168.165 159.368 167.888C159.368 167.616 159.312 167.373 159.2 167.16C159.093 166.947 158.944 166.779 158.752 166.656C158.56 166.533 158.338 166.472 158.088 166.472C157.842 166.472 157.624 166.533 157.432 166.656C157.245 166.779 157.096 166.947 156.984 167.16C156.877 167.373 156.824 167.616 156.824 167.888C156.824 168.165 156.877 168.413 156.984 168.632C157.096 168.845 157.245 169.013 157.432 169.136C157.624 169.259 157.842 169.32 158.088 169.32ZM161.302 170V165.8H162.134V166.696L161.982 166.792C162.025 166.653 162.092 166.52 162.182 166.392C162.278 166.264 162.393 166.152 162.526 166.056C162.665 165.955 162.812 165.875 162.966 165.816C163.126 165.757 163.289 165.728 163.454 165.728C163.694 165.728 163.905 165.768 164.086 165.848C164.268 165.928 164.417 166.048 164.534 166.208C164.652 166.368 164.737 166.568 164.79 166.808L164.662 166.776L164.718 166.64C164.777 166.517 164.857 166.403 164.958 166.296C165.065 166.184 165.185 166.085 165.318 166C165.452 165.915 165.593 165.848 165.742 165.8C165.892 165.752 166.038 165.728 166.182 165.728C166.497 165.728 166.756 165.792 166.958 165.92C167.166 166.048 167.321 166.243 167.422 166.504C167.529 166.765 167.582 167.091 167.582 167.48V170H166.75V167.528C166.75 167.288 166.718 167.093 166.654 166.944C166.596 166.789 166.505 166.675 166.382 166.6C166.26 166.525 166.102 166.488 165.91 166.488C165.761 166.488 165.62 166.515 165.486 166.568C165.358 166.616 165.246 166.685 165.15 166.776C165.054 166.867 164.98 166.973 164.926 167.096C164.873 167.213 164.846 167.344 164.846 167.488V170H164.014V167.512C164.014 167.293 163.982 167.109 163.918 166.96C163.854 166.805 163.761 166.688 163.638 166.608C163.516 166.528 163.366 166.488 163.19 166.488C163.041 166.488 162.902 166.515 162.774 166.568C162.646 166.616 162.534 166.685 162.438 166.776C162.342 166.861 162.268 166.965 162.214 167.088C162.161 167.205 162.134 167.333 162.134 167.472V170H161.302ZM170.645 170.08C170.213 170.08 169.829 169.989 169.493 169.808C169.163 169.621 168.901 169.368 168.709 169.048C168.523 168.728 168.429 168.36 168.429 167.944C168.429 167.613 168.483 167.312 168.589 167.04C168.696 166.768 168.843 166.533 169.029 166.336C169.221 166.133 169.448 165.979 169.709 165.872C169.976 165.76 170.264 165.704 170.573 165.704C170.845 165.704 171.099 165.757 171.333 165.864C171.568 165.965 171.771 166.107 171.941 166.288C172.117 166.469 172.251 166.685 172.341 166.936C172.437 167.181 172.483 167.451 172.477 167.744L172.469 168.096H169.037L168.853 167.44H171.757L171.637 167.576V167.384C171.621 167.208 171.563 167.051 171.461 166.912C171.36 166.773 171.232 166.664 171.077 166.584C170.923 166.504 170.755 166.464 170.573 166.464C170.285 166.464 170.043 166.52 169.845 166.632C169.648 166.739 169.499 166.899 169.397 167.112C169.296 167.32 169.245 167.579 169.245 167.888C169.245 168.181 169.307 168.437 169.429 168.656C169.552 168.869 169.725 169.035 169.949 169.152C170.173 169.269 170.432 169.328 170.725 169.328C170.933 169.328 171.125 169.293 171.301 169.224C171.483 169.155 171.677 169.029 171.885 168.848L172.301 169.432C172.173 169.56 172.016 169.672 171.829 169.768C171.648 169.864 171.453 169.941 171.245 170C171.043 170.053 170.843 170.08 170.645 170.08Z" fill="#848484"/>
<rect x="169" y="238" width="49" height="5" rx="2.5" fill="#E4E6EA"/>
<rect x="169" y="285" width="49" height="5" rx="2.5" fill="#E4E6EA"/>
<rect x="169" y="332" width="49" height="5" rx="2.5" fill="#E4E6EA"/>
<rect x="240" y="238" width="65" height="5" rx="2.5" fill="#E4E6EA"/>
<rect x="240" y="285" width="65" height="5" rx="2.5" fill="#E4E6EA"/>
<rect x="240" y="332" width="65" height="5" rx="2.5" fill="#E4E6EA"/>
<rect x="331" y="238" width="31" height="5" rx="2.5" fill="#E4E6EA"/>
<rect x="331" y="285" width="31" height="5" rx="2.5" fill="#E4E6EA"/>
<rect x="331" y="332" width="31" height="5" rx="2.5" fill="#E4E6EA"/>
<defs>
<filter id="filter0_d_110_724" x="91.9" y="212.9" width="295.2" height="67.2" filterUnits="userSpaceOnUse" color-interpolation-filters="sRGB">
<feFlood flood-opacity="0" result="BackgroundImageFix"/>
<feColorMatrix in="SourceAlpha" type="matrix" values="0 0 0 0 0 0 0 0 0 0 0 0 0 0 0 0 0 0 127 0" result="hardAlpha"/>
<feMorphology radius="5" operator="dilate" in="SourceAlpha" result="effect1_dropShadow_110_724"/>
<feOffset dy="4"/>
<feGaussianBlur stdDeviation="5.05"/>
<feComposite in2="hardAlpha" operator="out"/>
<feColorMatrix type="matrix" values="0 0 0 0 0 0 0 0 0 0 0 0 0 0 0 0 0 0 0.06 0"/>
<feBlend mode="normal" in2="BackgroundImageFix" result="effect1_dropShadow_110_724"/>
<feBlend mode="normal" in="SourceGraphic" in2="effect1_dropShadow_110_724" result="shape"/>
</filter>
<filter id="filter1_d_110_724" x="91.9" y="259.9" width="295.2" height="67.2" filterUnits="userSpaceOnUse" color-interpolation-filters="sRGB">
<feFlood flood-opacity="0" result="BackgroundImageFix"/>
<feColorMatrix in="SourceAlpha" type="matrix" values="0 0 0 0 0 0 0 0 0 0 0 0 0 0 0 0 0 0 127 0" result="hardAlpha"/>
<feMorphology radius="5" operator="dilate" in="SourceAlpha" result="effect1_dropShadow_110_724"/>
<feOffset dy="4"/>
<feGaussianBlur stdDeviation="5.05"/>
<feComposite in2="hardAlpha" operator="out"/>
<feColorMatrix type="matrix" values="0 0 0 0 0 0 0 0 0 0 0 0 0 0 0 0 0 0 0.06 0"/>
<feBlend mode="normal" in2="BackgroundImageFix" result="effect1_dropShadow_110_724"/>
<feBlend mode="normal" in="SourceGraphic" in2="effect1_dropShadow_110_724" result="shape"/>
</filter>
<filter id="filter2_d_110_724" x="91.9" y="306.9" width="295.2" height="67.2" filterUnits="userSpaceOnUse" color-interpolation-filters="sRGB">
<feFlood flood-opacity="0" result="BackgroundImageFix"/>
<feColorMatrix in="SourceAlpha" type="matrix" values="0 0 0 0 0 0 0 0 0 0 0 0 0 0 0 0 0 0 127 0" result="hardAlpha"/>
<feMorphology radius="5" operator="dilate" in="SourceAlpha" result="effect1_dropShadow_110_724"/>
<feOffset dy="4"/>
<feGaussianBlur stdDeviation="5.05"/>
<feComposite in2="hardAlpha" operator="out"/>
<feColorMatrix type="matrix" values="0 0 0 0 0 0 0 0 0 0 0 0 0 0 0 0 0 0 0.06 0"/>
<feBlend mode="normal" in2="BackgroundImageFix" result="effect1_dropShadow_110_724"/>
<feBlend mode="normal" in="SourceGraphic" in2="effect1_dropShadow_110_724" result="shape"/>
</filter>
</defs>
</svg>
