<svg xmlns="http://www.w3.org/2000/svg" xmlns:xlink="http://www.w3.org/1999/xlink" width="480" height="540" viewBox="0 0 480 540">
  <defs>
    <style>
      .cls-1 {
        fill: none;
      }

      .cls-2 {
        clip-path: url(#clip-path);
      }

      .cls-3 {
        fill: #f1f5f7;
      }

      .cls-4 {
        fill: #0d0d0d;
      }

      .cls-5 {
        fill: #fff;
      }

      .cls-6 {
        fill: #adadad;
      }

      .cls-7 {
        fill: #208e74;
      }

      .cls-8 {
        fill: #e9f6f7;
      }

      .cls-9 {
        fill: #07cbc6;
      }

      .cls-10 {
        fill: #e4e6ea;
      }

      .cls-11 {
        fill: #aee9d1;
      }

      .cls-12 {
        fill: #1a89fa;
      }

      .cls-13 {
        filter: url(#Path_33422);
      }
    </style>
    <clipPath id="clip-path">
      <rect id="Rectangle_2339" data-name="Rectangle 2339" class="cls-1" width="345" height="388"/>
    </clipPath>
    <filter id="Path_33422" x="254.993" y="222.037" width="182.148" height="113.889" filterUnits="userSpaceOnUse">
      <feOffset input="SourceAlpha"/>
      <feGaussianBlur stdDeviation="10" result="blur"/>
      <feFlood flood-opacity="0.161"/>
      <feComposite operator="in" in2="blur"/>
      <feComposite in="SourceGraphic"/>
    </filter>
  </defs>
  <g id="performance_analytics" data-name="performance analytics" transform="translate(-4803 1902)">
    <rect id="Image_87" data-name="Image 87" class="cls-1" width="480" height="540" transform="translate(4803 -1902)"/>
    <g id="Group_6552" data-name="Group 6552" transform="translate(4871 -1826)">
      <g id="Group_6381" data-name="Group 6381" class="cls-2">
        <path id="Path_33295" data-name="Path 33295" class="cls-3" d="M21.556,0H323.333a21.555,21.555,0,0,1,21.556,21.556V366.444A21.555,21.555,0,0,1,323.333,388H21.556A21.555,21.555,0,0,1,0,366.444V21.556A21.555,21.555,0,0,1,21.556,0"/>
        <path id="Path_33296" data-name="Path 33296" class="cls-4" d="M26.679,68.468V56.9h3.95a4.942,4.942,0,0,1,2.281.463A3.082,3.082,0,0,1,34.231,58.6a3.8,3.8,0,0,1,.009,3.5,3.062,3.062,0,0,1-1.314,1.256,4.917,4.917,0,0,1-2.3.471h-2.3v4.644Zm1.653-6.015h2.231a2.521,2.521,0,0,0,1.859-.57,2.4,2.4,0,0,0,0-3.066,2.593,2.593,0,0,0-1.859-.545H28.332Z" transform="translate(-7.51 -16.016)"/>
        <path id="Path_33297" data-name="Path 33297" class="cls-4" d="M43.191,69.858a4.1,4.1,0,0,1-2.107-.546,3.889,3.889,0,0,1-1.47-1.528,5.109,5.109,0,0,1,.008-4.578,3.938,3.938,0,0,1,1.487-1.529,4.144,4.144,0,0,1,2.115-.545,4.088,4.088,0,0,1,2.115.545A3.927,3.927,0,0,1,46.8,63.2a5.179,5.179,0,0,1,0,4.595,3.886,3.886,0,0,1-1.479,1.52,4.17,4.17,0,0,1-2.132.546m0-1.422a2.353,2.353,0,0,0,1.231-.331,2.4,2.4,0,0,0,.893-.983,3.513,3.513,0,0,0,.338-1.628,3.589,3.589,0,0,0-.331-1.627,2.285,2.285,0,0,0-2.1-1.314A2.331,2.331,0,0,0,41.1,63.867a4.084,4.084,0,0,0,0,3.256,2.393,2.393,0,0,0,.893.983,2.291,2.291,0,0,0,1.2.331" transform="translate(-10.999 -17.208)"/>
        <path id="Path_33298" data-name="Path 33298" class="cls-4" d="M53.289,69.659V61.33h1.487l.149,1.57a3.055,3.055,0,0,1,.727-.95,3.223,3.223,0,0,1,1.05-.6,4.084,4.084,0,0,1,1.38-.215v1.752h-.595a3.785,3.785,0,0,0-.975.124,2.1,2.1,0,0,0-.818.422,1.941,1.941,0,0,0-.554.81,3.547,3.547,0,0,0-.2,1.272v4.148Z" transform="translate(-15 -17.208)"/>
        <path id="Path_33299" data-name="Path 33299" class="cls-4" d="M65.269,68.921a3.417,3.417,0,0,1-1.355-.248,1.8,1.8,0,0,1-.892-.826,3.309,3.309,0,0,1-.314-1.57V62H61.27v-1.4h1.438l.2-2.082H64.36v2.082h2.363V62H64.36v4.3a1.241,1.241,0,0,0,.3.966,1.577,1.577,0,0,0,1.025.257h.958v1.4Z" transform="translate(-17.246 -16.469)"/>
        <path id="Path_33300" data-name="Path 33300" class="cls-4" d="M70.309,60.01h4.875v1.4H70.309Zm1.223,8.329V58.886a2.993,2.993,0,0,1,.289-1.4,1.725,1.725,0,0,1,.851-.793,3.345,3.345,0,0,1,1.355-.248H75v1.4h-.711a1.23,1.23,0,0,0-.851.24,1.11,1.11,0,0,0-.256.834v9.42Z" transform="translate(-19.791 -15.887)"/>
        <path id="Path_33301" data-name="Path 33301" class="cls-4" d="M82.658,69.858a4.1,4.1,0,0,1-2.107-.546,3.889,3.889,0,0,1-1.47-1.528,5.109,5.109,0,0,1,.008-4.578,3.938,3.938,0,0,1,1.487-1.529,4.144,4.144,0,0,1,2.115-.545,4.088,4.088,0,0,1,2.115.545,3.927,3.927,0,0,1,1.462,1.52,5.179,5.179,0,0,1,0,4.595,3.886,3.886,0,0,1-1.479,1.52,4.17,4.17,0,0,1-2.132.546m0-1.422a2.353,2.353,0,0,0,1.231-.331,2.4,2.4,0,0,0,.893-.983,3.513,3.513,0,0,0,.338-1.628,3.589,3.589,0,0,0-.331-1.627,2.285,2.285,0,0,0-2.1-1.314,2.331,2.331,0,0,0-2.124,1.314,4.084,4.084,0,0,0,0,3.256,2.393,2.393,0,0,0,.893.983,2.291,2.291,0,0,0,1.2.331" transform="translate(-22.108 -17.208)"/>
        <rect id="Rectangle_2336" data-name="Rectangle 2336" class="cls-4" width="1.653" height="11.899" transform="translate(66.648 40.554)"/>
        <path id="Path_33302" data-name="Path 33302" class="cls-4" d="M99.115,58.407a1.078,1.078,0,0,1-.785-.3,1.013,1.013,0,0,1-.306-.76.967.967,0,0,1,.306-.735,1.2,1.2,0,0,1,1.561,0,.956.956,0,0,1,.314.735,1,1,0,0,1-.314.76,1.085,1.085,0,0,1-.777.3m-.843,1.57h1.653v8.329H98.272Z" transform="translate(-27.592 -15.854)"/>
        <path id="Path_33303" data-name="Path 33303" class="cls-4" d="M107.636,69.858a4.1,4.1,0,0,1-2.107-.546,3.889,3.889,0,0,1-1.47-1.528,5.109,5.109,0,0,1,.008-4.578,3.938,3.938,0,0,1,1.487-1.529,4.144,4.144,0,0,1,2.115-.545,4.088,4.088,0,0,1,2.115.545,3.927,3.927,0,0,1,1.462,1.52,5.179,5.179,0,0,1,0,4.595,3.886,3.886,0,0,1-1.479,1.52,4.17,4.17,0,0,1-2.132.546m0-1.422a2.353,2.353,0,0,0,1.231-.331,2.4,2.4,0,0,0,.893-.983,3.513,3.513,0,0,0,.338-1.628,3.589,3.589,0,0,0-.331-1.627,2.285,2.285,0,0,0-2.1-1.314,2.332,2.332,0,0,0-2.124,1.314,4.084,4.084,0,0,0,0,3.256,2.393,2.393,0,0,0,.893.983,2.291,2.291,0,0,0,1.2.331" transform="translate(-29.139 -17.208)"/>
        <path id="Path_33304" data-name="Path 33304" class="cls-4" d="M128.775,68.59a5.625,5.625,0,0,1-2.933-.752,5.274,5.274,0,0,1-1.983-2.1,7.142,7.142,0,0,1,0-6.247,5.345,5.345,0,0,1,1.983-2.107,5.581,5.581,0,0,1,2.933-.759,5.691,5.691,0,0,1,2.975.759,5.212,5.212,0,0,1,1.975,2.107,7.3,7.3,0,0,1,0,6.247,5.145,5.145,0,0,1-1.975,2.1,5.736,5.736,0,0,1-2.975.752m.017-1.472a3.913,3.913,0,0,0,2.082-.545,3.615,3.615,0,0,0,1.38-1.553,6.218,6.218,0,0,0,0-4.826,3.572,3.572,0,0,0-1.38-1.545,4.307,4.307,0,0,0-4.165,0,3.62,3.62,0,0,0-1.388,1.545,6.119,6.119,0,0,0,0,4.826,3.664,3.664,0,0,0,1.388,1.553,3.913,3.913,0,0,0,2.082.545" transform="translate(-34.662 -15.939)"/>
        <path id="Path_33305" data-name="Path 33305" class="cls-4" d="M143.559,69.737l-3.123-8.329h1.735l2.363,6.743,2.38-6.743h1.7l-3.107,8.329Z" transform="translate(-39.53 -17.285)"/>
        <path id="Path_33306" data-name="Path 33306" class="cls-4" d="M156.984,69.858a4.082,4.082,0,0,1-2.115-.546,3.808,3.808,0,0,1-1.446-1.52,4.745,4.745,0,0,1-.52-2.264,4.869,4.869,0,0,1,.52-2.306,3.858,3.858,0,0,1,1.446-1.537,4.1,4.1,0,0,1,2.148-.554,3.892,3.892,0,0,1,2.1.545,3.77,3.77,0,0,1,1.355,1.446,4.179,4.179,0,0,1,.479,1.991c0,.111,0,.229-.009.356s-.014.267-.024.42h-6.809V64.719H159.3a2.245,2.245,0,0,0-.694-1.628A2.293,2.293,0,0,0,157,62.5a2.546,2.546,0,0,0-1.239.305,2.3,2.3,0,0,0-.9.893,2.923,2.923,0,0,0-.338,1.478v.463a3.3,3.3,0,0,0,.338,1.562,2.342,2.342,0,0,0,.9.959,2.421,2.421,0,0,0,1.223.322,2.276,2.276,0,0,0,1.306-.348,2.071,2.071,0,0,0,.76-.941H160.7a3.588,3.588,0,0,1-.727,1.363,3.633,3.633,0,0,1-1.265.951,4.077,4.077,0,0,1-1.727.347" transform="translate(-43.039 -17.208)"/>
        <path id="Path_33307" data-name="Path 33307" class="cls-4" d="M166.656,69.659V61.33h1.487l.149,1.57a3.055,3.055,0,0,1,.727-.95,3.223,3.223,0,0,1,1.05-.6,4.084,4.084,0,0,1,1.38-.215v1.752h-.595a3.785,3.785,0,0,0-.975.124,2.1,2.1,0,0,0-.818.422,1.941,1.941,0,0,0-.554.81,3.547,3.547,0,0,0-.2,1.272v4.148Z" transform="translate(-46.911 -17.208)"/>
        <path id="Path_33308" data-name="Path 33308" class="cls-4" d="M177.507,69.737l-3.123-8.329h1.735l2.363,6.743,2.38-6.743h1.7l-3.107,8.329Z" transform="translate(-49.086 -17.285)"/>
        <path id="Path_33309" data-name="Path 33309" class="cls-4" d="M188.745,58.407a1.077,1.077,0,0,1-.785-.3,1.013,1.013,0,0,1-.306-.76.967.967,0,0,1,.306-.735,1.2,1.2,0,0,1,1.561,0,.956.956,0,0,1,.314.735,1,1,0,0,1-.314.76,1.086,1.086,0,0,1-.777.3m-.843,1.57h1.653v8.329H187.9Z" transform="translate(-52.821 -15.854)"/>
        <path id="Path_33310" data-name="Path 33310" class="cls-4" d="M197.233,69.858a4.082,4.082,0,0,1-2.115-.546,3.808,3.808,0,0,1-1.446-1.52,4.745,4.745,0,0,1-.52-2.264,4.869,4.869,0,0,1,.52-2.306,3.859,3.859,0,0,1,1.446-1.537,4.1,4.1,0,0,1,2.148-.554,3.892,3.892,0,0,1,2.1.545,3.77,3.77,0,0,1,1.355,1.446,4.179,4.179,0,0,1,.479,1.991c0,.111,0,.229-.009.356s-.014.267-.024.42h-6.809V64.719h5.189a2.245,2.245,0,0,0-.694-1.628,2.293,2.293,0,0,0-1.6-.586,2.547,2.547,0,0,0-1.239.305,2.294,2.294,0,0,0-.9.893,2.923,2.923,0,0,0-.338,1.478v.463a3.3,3.3,0,0,0,.338,1.562,2.342,2.342,0,0,0,.9.959,2.421,2.421,0,0,0,1.223.322,2.276,2.276,0,0,0,1.306-.348,2.072,2.072,0,0,0,.76-.941h1.653a3.588,3.588,0,0,1-.727,1.363,3.633,3.633,0,0,1-1.265.951,4.077,4.077,0,0,1-1.727.347" transform="translate(-54.368 -17.208)"/>
        <path id="Path_33311" data-name="Path 33311" class="cls-4" d="M207.833,69.737l-2.446-8.329h1.636l1.818,6.941-.314-.017,2.016-6.924h1.851l2.016,6.924-.314.017,1.8-6.941h1.669l-2.446,8.329h-1.7L211.3,62.515h.331l-2.115,7.222Z" transform="translate(-57.813 -17.285)"/>
        <path id="Path_33312" data-name="Path 33312" class="cls-5" d="M24.9,110H322.37a7.9,7.9,0,0,1,7.9,7.9V235.022a7.9,7.9,0,0,1-7.9,7.9H24.9a7.9,7.9,0,0,1-7.9-7.9V117.9a7.9,7.9,0,0,1,7.9-7.9" transform="translate(-4.785 -30.963)"/>
        <path id="Path_33313" data-name="Path 33313" class="cls-5" d="M24.9,310H322.37a7.9,7.9,0,0,1,7.9,7.9V435.022a7.9,7.9,0,0,1-7.9,7.9H24.9a7.9,7.9,0,0,1-7.9-7.9V317.9a7.9,7.9,0,0,1,7.9-7.9" transform="translate(-4.785 -87.259)"/>
        <path id="Path_33314" data-name="Path 33314" class="cls-6" d="M42.736,174.507a3.181,3.181,0,0,1-1.676-.425,2.808,2.808,0,0,1-1.084-1.186,4.3,4.3,0,0,1,0-3.531,2.851,2.851,0,0,1,1.084-1.191,3.163,3.163,0,0,1,1.676-.429,3.008,3.008,0,0,1,1.906.574,2.566,2.566,0,0,1,.934,1.62H44.343a1.511,1.511,0,0,0-.532-.868,1.7,1.7,0,0,0-1.084-.318,1.914,1.914,0,0,0-1.06.286,1.824,1.824,0,0,0-.683.821,3.139,3.139,0,0,0-.238,1.275,3.071,3.071,0,0,0,.238,1.265,1.829,1.829,0,0,0,.683.812,1.908,1.908,0,0,0,1.06.286,1.8,1.8,0,0,0,1.084-.294,1.4,1.4,0,0,0,.532-.818h1.233a2.444,2.444,0,0,1-.929,1.555,3.07,3.07,0,0,1-1.911.565" transform="translate(-11.146 -47.217)"/>
        <path id="Path_33315" data-name="Path 33315" class="cls-6" d="M51.52,175.225a2.359,2.359,0,0,1-1.209-.313,2.209,2.209,0,0,1-.841-.869,2.851,2.851,0,0,1,.005-2.569,2.244,2.244,0,0,1,.846-.869,2.5,2.5,0,0,1,2.419,0,2.228,2.228,0,0,1,.841.864,2.637,2.637,0,0,1,.3,1.289,2.594,2.594,0,0,1-.308,1.289,2.251,2.251,0,0,1-.845.864,2.363,2.363,0,0,1-1.21.313m0-.962a1.154,1.154,0,0,0,.612-.168,1.2,1.2,0,0,0,.443-.505,1.844,1.844,0,0,0,.168-.831,1.867,1.867,0,0,0-.163-.826,1.176,1.176,0,0,0-.439-.5,1.185,1.185,0,0,0-1.219,0,1.19,1.19,0,0,0-.448.5,1.816,1.816,0,0,0-.168.826,1.844,1.844,0,0,0,.168.831,1.2,1.2,0,0,0,.444.505,1.133,1.133,0,0,0,.6.168" transform="translate(-13.839 -47.934)"/>
        <path id="Path_33316" data-name="Path 33316" class="cls-6" d="M57.252,175.112V170.4h.99l.093.645a1.6,1.6,0,0,1,.593-.556,1.745,1.745,0,0,1,.846-.2,2.059,2.059,0,0,1,.639.093,1.5,1.5,0,0,1,.505.28,1.467,1.467,0,0,1,.359.467,1.852,1.852,0,0,1,.682-.617,1.914,1.914,0,0,1,.915-.224,1.964,1.964,0,0,1,1,.238,1.534,1.534,0,0,1,.626.7,2.684,2.684,0,0,1,.215,1.135v2.746H63.6v-2.634a1.484,1.484,0,0,0-.243-.915.851.851,0,0,0-.719-.318,1.037,1.037,0,0,0-.575.159,1.062,1.062,0,0,0-.387.462,1.769,1.769,0,0,0-.14.743v2.5H60.428v-2.634a1.484,1.484,0,0,0-.243-.915.861.861,0,0,0-.729-.318,1,1,0,0,0-.556.159,1.057,1.057,0,0,0-.387.462,1.769,1.769,0,0,0-.14.743v2.5Z" transform="translate(-16.115 -47.934)"/>
        <path id="Path_33317" data-name="Path 33317" class="cls-6" d="M69.29,177.167V170.4h1l.121.682a2.24,2.24,0,0,1,.36-.388,1.624,1.624,0,0,1,.513-.294,1.987,1.987,0,0,1,.7-.113,2.127,2.127,0,0,1,1.173.327,2.285,2.285,0,0,1,.8.883,2.7,2.7,0,0,1,.29,1.266,2.666,2.666,0,0,1-.294,1.265,2.233,2.233,0,0,1-.8.874,2.147,2.147,0,0,1-1.163.318,2.04,2.04,0,0,1-.93-.2,1.622,1.622,0,0,1-.639-.575v2.719Zm2.457-2.915a1.32,1.32,0,0,0,.7-.187,1.287,1.287,0,0,0,.481-.522,1.678,1.678,0,0,0,.172-.775,1.7,1.7,0,0,0-.172-.785,1.289,1.289,0,0,0-.481-.523,1.42,1.42,0,0,0-1.405,0,1.3,1.3,0,0,0-.477.523,1.84,1.84,0,0,0,0,1.556,1.33,1.33,0,0,0,.477.522,1.289,1.289,0,0,0,.7.192" transform="translate(-19.504 -47.934)"/>
        <path id="Path_33318" data-name="Path 33318" class="cls-6" d="M79.2,175.224a2.09,2.09,0,0,1-.961-.2,1.327,1.327,0,0,1-.57-.523,1.4,1.4,0,0,1-.188-.71,1.316,1.316,0,0,1,.23-.775,1.471,1.471,0,0,1,.677-.509,2.934,2.934,0,0,1,1.1-.182h1.186a1.63,1.63,0,0,0-.1-.621.728.728,0,0,0-.318-.369,1.113,1.113,0,0,0-.55-.121,1.193,1.193,0,0,0-.655.172.758.758,0,0,0-.336.528h-1.1a1.676,1.676,0,0,1,.337-.864,1.861,1.861,0,0,1,.742-.561,2.523,2.523,0,0,1,1.014-.2,2.559,2.559,0,0,1,1.13.228,1.649,1.649,0,0,1,.716.655,2.01,2.01,0,0,1,.246,1.022v2.914h-.952l-.112-.757a1.575,1.575,0,0,1-.238.346,1.558,1.558,0,0,1-.757.458,2.056,2.056,0,0,1-.537.065m.253-.887a1.117,1.117,0,0,0,.481-.1,1.049,1.049,0,0,0,.364-.279,1.354,1.354,0,0,0,.238-.407,1.938,1.938,0,0,0,.112-.476v-.019H79.609a1.508,1.508,0,0,0-.542.084.634.634,0,0,0-.308.228.621.621,0,0,0-.093.341.559.559,0,0,0,.364.551,1.073,1.073,0,0,0,.421.075" transform="translate(-21.809 -47.934)"/>
        <path id="Path_33319" data-name="Path 33319" class="cls-6" d="M85.15,175.112V170.4h1l.1.878a1.9,1.9,0,0,1,.42-.527,1.828,1.828,0,0,1,.593-.341,2.242,2.242,0,0,1,.752-.121v1.186h-.392a2.01,2.01,0,0,0-.532.07,1.131,1.131,0,0,0-.434.225,1,1,0,0,0-.285.42,1.857,1.857,0,0,0-.1.667v2.251Z" transform="translate(-23.968 -47.934)"/>
        <path id="Path_33320" data-name="Path 33320" class="cls-6" d="M92.31,175.224a2.458,2.458,0,0,1-1.233-.3,2.126,2.126,0,0,1-.831-.855,2.62,2.62,0,0,1-.3-1.27,2.769,2.769,0,0,1,.295-1.308,2.171,2.171,0,0,1,.831-.879,2.41,2.41,0,0,1,1.247-.317,2.3,2.3,0,0,1,1.2.308,2.135,2.135,0,0,1,.794.827,2.4,2.4,0,0,1,.28,1.163v.205a1.544,1.544,0,0,1-.019.232H90.75v-.719h2.718a1.091,1.091,0,0,0-.346-.808,1.172,1.172,0,0,0-.813-.294,1.287,1.287,0,0,0-.635.16,1.132,1.132,0,0,0-.458.471,1.655,1.655,0,0,0-.168.79v.27a1.623,1.623,0,0,0,.164.756,1.127,1.127,0,0,0,.448.482,1.259,1.259,0,0,0,.639.164,1.159,1.159,0,0,0,.65-.169,1,1,0,0,0,.378-.449h1.14a2.145,2.145,0,0,1-.43.79,2.116,2.116,0,0,1-.738.553,2.368,2.368,0,0,1-.99.2" transform="translate(-25.318 -47.934)"/>
        <path id="Path_33321" data-name="Path 33321" class="cls-6" d="M99.893,174.478a2.145,2.145,0,0,1-1.967-1.2,2.766,2.766,0,0,1-.285-1.27,2.7,2.7,0,0,1,.29-1.265,2.212,2.212,0,0,1,.808-.878,2.173,2.173,0,0,1,1.172-.323,2.03,2.03,0,0,1,.93.2,1.578,1.578,0,0,1,.63.565V167.64h1.121v6.725h-1.009l-.112-.682a2.241,2.241,0,0,1-.364.388,1.7,1.7,0,0,1-.514.294,1.989,1.989,0,0,1-.7.113m.234-.972a1.315,1.315,0,0,0,.71-.192,1.27,1.27,0,0,0,.476-.527,1.871,1.871,0,0,0,0-1.551,1.254,1.254,0,0,0-.476-.523,1.344,1.344,0,0,0-.71-.186,1.31,1.31,0,0,0-.691.186,1.282,1.282,0,0,0-.481.523,1.822,1.822,0,0,0,0,1.551,1.3,1.3,0,0,0,.481.527,1.282,1.282,0,0,0,.691.192" transform="translate(-27.484 -47.188)"/>
        <path id="Path_33322" data-name="Path 33322" class="cls-6" d="M111.351,174.669a2.09,2.09,0,0,1-.826-.149,1.124,1.124,0,0,1-.547-.5,1.894,1.894,0,0,1-.2-.934V170.9h-.8v-.943h.8l.131-1.242h.99v1.242h1.28v.943H110.9v2.186a.631.631,0,0,0,.154.49.782.782,0,0,0,.518.136h.579v.953Z" transform="translate(-30.675 -47.491)"/>
        <path id="Path_33323" data-name="Path 33323" class="cls-6" d="M116.87,175.225a2.359,2.359,0,0,1-1.209-.313,2.209,2.209,0,0,1-.841-.869,2.851,2.851,0,0,1,.005-2.569,2.244,2.244,0,0,1,.846-.869,2.5,2.5,0,0,1,2.419,0,2.228,2.228,0,0,1,.841.864,2.637,2.637,0,0,1,.3,1.289,2.594,2.594,0,0,1-.308,1.289,2.251,2.251,0,0,1-.845.864,2.363,2.363,0,0,1-1.21.313m0-.962a1.154,1.154,0,0,0,.612-.168,1.2,1.2,0,0,0,.443-.505,1.844,1.844,0,0,0,.168-.831,1.866,1.866,0,0,0-.163-.826,1.176,1.176,0,0,0-.439-.5,1.185,1.185,0,0,0-1.219,0,1.19,1.19,0,0,0-.448.5,1.815,1.815,0,0,0-.168.826,1.844,1.844,0,0,0,.168.831,1.2,1.2,0,0,0,.444.505,1.133,1.133,0,0,0,.6.168" transform="translate(-32.234 -47.934)"/>
        <rect id="Rectangle_2337" data-name="Rectangle 2337" class="cls-6" width="1.121" height="6.725" transform="translate(90.371 120.452)"/>
        <path id="Path_33324" data-name="Path 33324" class="cls-6" d="M130.587,175.224a2.093,2.093,0,0,1-.962-.2,1.335,1.335,0,0,1-.57-.523,1.407,1.407,0,0,1-.187-.71,1.315,1.315,0,0,1,.229-.775,1.475,1.475,0,0,1,.677-.509,2.935,2.935,0,0,1,1.1-.182h1.186a1.629,1.629,0,0,0-.1-.621.727.727,0,0,0-.318-.369,1.116,1.116,0,0,0-.551-.121,1.192,1.192,0,0,0-.654.172.759.759,0,0,0-.336.528H129a1.675,1.675,0,0,1,.336-.864,1.863,1.863,0,0,1,.743-.561,2.52,2.52,0,0,1,1.013-.2,2.562,2.562,0,0,1,1.13.228,1.643,1.643,0,0,1,.715.655,2,2,0,0,1,.247,1.022v2.914h-.953l-.112-.757a1.551,1.551,0,0,1-.238.346,1.6,1.6,0,0,1-.332.276,1.625,1.625,0,0,1-.425.183,2.055,2.055,0,0,1-.537.065m.252-.887a1.117,1.117,0,0,0,.481-.1,1.058,1.058,0,0,0,.364-.279,1.369,1.369,0,0,0,.238-.407,1.972,1.972,0,0,0,.112-.476v-.019H131a1.5,1.5,0,0,0-.542.084.564.564,0,0,0-.4.57.594.594,0,0,0,.093.336.584.584,0,0,0,.271.215,1.072,1.072,0,0,0,.42.075" transform="translate(-36.274 -47.934)"/>
        <path id="Path_33325" data-name="Path 33325" class="cls-6" d="M138.317,175.224a2.73,2.73,0,0,1-1.088-.2,1.749,1.749,0,0,1-.729-.562,1.633,1.633,0,0,1-.313-.826h1.121a.964.964,0,0,0,.168.359.8.8,0,0,0,.332.256,1.2,1.2,0,0,0,.5.094,1.126,1.126,0,0,0,.458-.079.579.579,0,0,0,.262-.211.506.506,0,0,0,.084-.28.463.463,0,0,0-.121-.345.846.846,0,0,0-.35-.192q-.23-.07-.547-.135a6.028,6.028,0,0,1-.649-.164,2.587,2.587,0,0,1-.561-.247,1.173,1.173,0,0,1-.392-.384,1.059,1.059,0,0,1-.144-.57,1.3,1.3,0,0,1,.219-.737,1.5,1.5,0,0,1,.636-.519,2.365,2.365,0,0,1,.994-.191,2.1,2.1,0,0,1,1.313.378,1.51,1.51,0,0,1,.574,1.06h-1.065a.6.6,0,0,0-.262-.406,1,1,0,0,0-.57-.145.957.957,0,0,0-.556.137.42.42,0,0,0-.191.359.355.355,0,0,0,.116.262.953.953,0,0,0,.341.19,4.625,4.625,0,0,0,.551.154,6.689,6.689,0,0,1,.925.244,1.446,1.446,0,0,1,.635.41,1.14,1.14,0,0,1,.234.767,1.306,1.306,0,0,1-.229.793,1.535,1.535,0,0,1-.668.537,2.5,2.5,0,0,1-1.027.192" transform="translate(-38.334 -47.934)"/>
        <path id="Path_33326" data-name="Path 33326" class="cls-6" d="M145.034,174.669a2.09,2.09,0,0,1-.826-.149,1.124,1.124,0,0,1-.547-.5,1.894,1.894,0,0,1-.2-.934V170.9h-.8v-.943h.8l.131-1.242h.99v1.242h1.28v.943h-1.28v2.186a.631.631,0,0,0,.154.49.782.782,0,0,0,.518.136h.579v.953Z" transform="translate(-40.156 -47.491)"/>
        <path id="Path_33327" data-name="Path 33327" class="cls-6" d="M151.76,177.167V170.4h1l.121.682a2.245,2.245,0,0,1,.361-.388,1.629,1.629,0,0,1,.512-.294,1.992,1.992,0,0,1,.7-.113,2.126,2.126,0,0,1,1.172.327,2.279,2.279,0,0,1,.8.883,2.693,2.693,0,0,1,.29,1.266,2.665,2.665,0,0,1-.293,1.265,2.24,2.24,0,0,1-.8.874,2.146,2.146,0,0,1-1.162.318,2.041,2.041,0,0,1-.93-.2,1.627,1.627,0,0,1-.639-.575v2.719Zm2.457-2.915a1.318,1.318,0,0,0,.7-.187,1.287,1.287,0,0,0,.481-.522,1.678,1.678,0,0,0,.172-.775,1.7,1.7,0,0,0-.172-.785,1.289,1.289,0,0,0-.481-.523,1.418,1.418,0,0,0-1.4,0,1.294,1.294,0,0,0-.477.523,1.833,1.833,0,0,0,0,1.556,1.325,1.325,0,0,0,.477.522,1.287,1.287,0,0,0,.7.192" transform="translate(-42.718 -47.934)"/>
        <path id="Path_33328" data-name="Path 33328" class="cls-6" d="M162.3,175.224a2.458,2.458,0,0,1-1.233-.3,2.126,2.126,0,0,1-.831-.855,2.62,2.62,0,0,1-.3-1.27,2.769,2.769,0,0,1,.295-1.308,2.171,2.171,0,0,1,.831-.879,2.41,2.41,0,0,1,1.247-.317,2.3,2.3,0,0,1,1.2.308,2.135,2.135,0,0,1,.794.827,2.4,2.4,0,0,1,.28,1.163v.205a1.545,1.545,0,0,1-.019.232h-3.83v-.719h2.718a1.091,1.091,0,0,0-.346-.808,1.172,1.172,0,0,0-.813-.294,1.287,1.287,0,0,0-.635.16,1.132,1.132,0,0,0-.458.471,1.655,1.655,0,0,0-.168.79v.27a1.623,1.623,0,0,0,.164.756,1.127,1.127,0,0,0,.448.482,1.259,1.259,0,0,0,.639.164,1.159,1.159,0,0,0,.65-.169,1,1,0,0,0,.378-.449h1.14a2.145,2.145,0,0,1-.43.79,2.115,2.115,0,0,1-.738.553,2.368,2.368,0,0,1-.99.2" transform="translate(-45.019 -47.934)"/>
        <path id="Path_33329" data-name="Path 33329" class="cls-6" d="M167.854,175.112V170.4h1l.1.878a1.9,1.9,0,0,1,.42-.527,1.828,1.828,0,0,1,.593-.341,2.241,2.241,0,0,1,.752-.121v1.186h-.392a2.01,2.01,0,0,0-.532.07,1.131,1.131,0,0,0-.434.225,1,1,0,0,0-.285.42,1.857,1.857,0,0,0-.1.667v2.251Z" transform="translate(-47.248 -47.934)"/>
        <path id="Path_33330" data-name="Path 33330" class="cls-6" d="M173.582,168.892a.707.707,0,0,1-.509-.191.625.625,0,0,1-.2-.471.608.608,0,0,1,.2-.473.8.8,0,0,1,1.018,0,.61.61,0,0,1,.2.473.627.627,0,0,1-.2.471.708.708,0,0,1-.509.191m-.56.747h1.121v4.708h-1.121Z" transform="translate(-48.66 -47.169)"/>
        <path id="Path_33331" data-name="Path 33331" class="cls-6" d="M178.58,175.225a2.359,2.359,0,0,1-1.209-.313,2.209,2.209,0,0,1-.841-.869,2.851,2.851,0,0,1,.005-2.569,2.244,2.244,0,0,1,.846-.869,2.5,2.5,0,0,1,2.419,0,2.228,2.228,0,0,1,.841.864,2.638,2.638,0,0,1,.3,1.289,2.594,2.594,0,0,1-.308,1.289,2.251,2.251,0,0,1-.845.864,2.363,2.363,0,0,1-1.21.313m0-.962a1.154,1.154,0,0,0,.612-.168,1.2,1.2,0,0,0,.443-.505,1.844,1.844,0,0,0,.168-.831,1.867,1.867,0,0,0-.163-.826,1.176,1.176,0,0,0-.439-.5,1.185,1.185,0,0,0-1.219,0,1.191,1.191,0,0,0-.448.5,1.815,1.815,0,0,0-.168.826,1.844,1.844,0,0,0,.168.831,1.2,1.2,0,0,0,.444.505,1.133,1.133,0,0,0,.6.168" transform="translate(-49.604 -47.934)"/>
        <path id="Path_33332" data-name="Path 33332" class="cls-6" d="M186.445,175.225a2.359,2.359,0,0,1-1.209-.313,2.209,2.209,0,0,1-.841-.869,2.851,2.851,0,0,1,.005-2.569,2.244,2.244,0,0,1,.846-.869,2.5,2.5,0,0,1,2.419,0,2.228,2.228,0,0,1,.841.864,2.637,2.637,0,0,1,.3,1.289,2.594,2.594,0,0,1-.308,1.289,2.251,2.251,0,0,1-.845.864,2.363,2.363,0,0,1-1.21.313m0-.962a1.154,1.154,0,0,0,.612-.168,1.2,1.2,0,0,0,.443-.505,1.844,1.844,0,0,0,.168-.831,1.867,1.867,0,0,0-.163-.826,1.177,1.177,0,0,0-.439-.5,1.185,1.185,0,0,0-1.219,0,1.19,1.19,0,0,0-.448.5,1.815,1.815,0,0,0-.168.826,1.844,1.844,0,0,0,.168.831,1.2,1.2,0,0,0,.444.505,1.133,1.133,0,0,0,.6.168" transform="translate(-51.818 -47.934)"/>
        <path id="Path_33333" data-name="Path 33333" class="cls-6" d="M194.207,174.478a2.145,2.145,0,0,1-1.967-1.2,2.766,2.766,0,0,1-.285-1.27,2.7,2.7,0,0,1,.29-1.265,2.212,2.212,0,0,1,.808-.878,2.173,2.173,0,0,1,1.172-.323,2.03,2.03,0,0,1,.93.2,1.577,1.577,0,0,1,.63.565V167.64h1.121v6.725H195.9l-.112-.682a2.241,2.241,0,0,1-.364.388,1.7,1.7,0,0,1-.514.294,1.989,1.989,0,0,1-.7.113m.234-.972a1.315,1.315,0,0,0,.71-.192,1.27,1.27,0,0,0,.476-.527,1.871,1.871,0,0,0,0-1.551,1.254,1.254,0,0,0-.476-.523,1.344,1.344,0,0,0-.71-.186,1.31,1.31,0,0,0-.691.186,1.282,1.282,0,0,0-.481.523,1.822,1.822,0,0,0,0,1.551,1.3,1.3,0,0,0,.481.527,1.282,1.282,0,0,0,.691.192" transform="translate(-54.032 -47.188)"/>
        <path id="Path_33334" data-name="Path 33334" class="cls-6" d="M42.736,374.507a3.175,3.175,0,0,1-1.676-.425,2.8,2.8,0,0,1-1.084-1.186,4.3,4.3,0,0,1,0-3.531,2.853,2.853,0,0,1,1.084-1.191,3.156,3.156,0,0,1,1.676-.429,3.008,3.008,0,0,1,1.906.574,2.566,2.566,0,0,1,.934,1.62H44.343a1.513,1.513,0,0,0-.532-.869,1.706,1.706,0,0,0-1.084-.318,1.914,1.914,0,0,0-1.06.286,1.824,1.824,0,0,0-.683.821,3.139,3.139,0,0,0-.238,1.275,3.071,3.071,0,0,0,.238,1.265,1.829,1.829,0,0,0,.683.812,1.914,1.914,0,0,0,1.06.286,1.8,1.8,0,0,0,1.084-.294,1.4,1.4,0,0,0,.532-.818h1.233a2.445,2.445,0,0,1-.929,1.555,3.07,3.07,0,0,1-1.911.565" transform="translate(-11.146 -103.513)"/>
        <path id="Path_33335" data-name="Path 33335" class="cls-6" d="M51.52,375.225a2.359,2.359,0,0,1-1.209-.313,2.209,2.209,0,0,1-.841-.869,2.851,2.851,0,0,1,.005-2.569,2.244,2.244,0,0,1,.846-.869,2.5,2.5,0,0,1,2.419,0,2.228,2.228,0,0,1,.841.864,2.637,2.637,0,0,1,.3,1.289,2.594,2.594,0,0,1-.308,1.289,2.251,2.251,0,0,1-.845.864,2.363,2.363,0,0,1-1.21.313m0-.962a1.154,1.154,0,0,0,.612-.168,1.2,1.2,0,0,0,.443-.505,1.844,1.844,0,0,0,.168-.831,1.867,1.867,0,0,0-.163-.826,1.176,1.176,0,0,0-.439-.5,1.185,1.185,0,0,0-1.219,0,1.19,1.19,0,0,0-.448.5,1.816,1.816,0,0,0-.168.826,1.844,1.844,0,0,0,.168.831,1.2,1.2,0,0,0,.444.505,1.133,1.133,0,0,0,.6.168" transform="translate(-13.839 -104.231)"/>
        <path id="Path_33336" data-name="Path 33336" class="cls-6" d="M57.252,375.112V370.4h.99l.093.645a1.6,1.6,0,0,1,.593-.556,1.745,1.745,0,0,1,.846-.2,2.059,2.059,0,0,1,.639.093,1.5,1.5,0,0,1,.505.28,1.466,1.466,0,0,1,.359.467,1.853,1.853,0,0,1,.682-.616,1.914,1.914,0,0,1,.915-.224,1.964,1.964,0,0,1,1,.238,1.534,1.534,0,0,1,.626.7,2.684,2.684,0,0,1,.215,1.135v2.746H63.6v-2.634a1.484,1.484,0,0,0-.243-.915.851.851,0,0,0-.719-.318,1.037,1.037,0,0,0-.575.159,1.062,1.062,0,0,0-.387.462,1.769,1.769,0,0,0-.14.743v2.5H60.428v-2.634a1.484,1.484,0,0,0-.243-.915.861.861,0,0,0-.729-.318,1,1,0,0,0-.556.159,1.057,1.057,0,0,0-.387.462,1.769,1.769,0,0,0-.14.743v2.5Z" transform="translate(-16.115 -104.23)"/>
        <path id="Path_33337" data-name="Path 33337" class="cls-6" d="M69.29,377.167V370.4h1l.121.682a2.242,2.242,0,0,1,.36-.388,1.624,1.624,0,0,1,.513-.294,1.987,1.987,0,0,1,.7-.113,2.127,2.127,0,0,1,1.173.327,2.285,2.285,0,0,1,.8.883,2.7,2.7,0,0,1,.29,1.266,2.665,2.665,0,0,1-.294,1.265,2.233,2.233,0,0,1-.8.874,2.147,2.147,0,0,1-1.163.318,2.04,2.04,0,0,1-.93-.2,1.622,1.622,0,0,1-.639-.575v2.719Zm2.457-2.915a1.321,1.321,0,0,0,.7-.187,1.287,1.287,0,0,0,.481-.522,1.678,1.678,0,0,0,.172-.775,1.7,1.7,0,0,0-.172-.785,1.289,1.289,0,0,0-.481-.523,1.42,1.42,0,0,0-1.405,0,1.3,1.3,0,0,0-.477.523,1.84,1.84,0,0,0,0,1.556,1.33,1.33,0,0,0,.477.522,1.289,1.289,0,0,0,.7.192" transform="translate(-19.504 -104.23)"/>
        <path id="Path_33338" data-name="Path 33338" class="cls-6" d="M79.2,375.224a2.089,2.089,0,0,1-.961-.2,1.327,1.327,0,0,1-.57-.523,1.4,1.4,0,0,1-.188-.71,1.316,1.316,0,0,1,.23-.775,1.472,1.472,0,0,1,.677-.509,2.934,2.934,0,0,1,1.1-.182h1.186a1.63,1.63,0,0,0-.1-.621.728.728,0,0,0-.318-.369,1.113,1.113,0,0,0-.55-.121,1.193,1.193,0,0,0-.655.172.758.758,0,0,0-.336.528h-1.1a1.676,1.676,0,0,1,.337-.864,1.861,1.861,0,0,1,.742-.561,2.523,2.523,0,0,1,1.014-.2,2.559,2.559,0,0,1,1.13.228,1.649,1.649,0,0,1,.716.655,2.01,2.01,0,0,1,.246,1.022v2.914h-.952l-.112-.757a1.575,1.575,0,0,1-.238.346,1.557,1.557,0,0,1-.757.458,2.056,2.056,0,0,1-.537.065m.253-.887a1.117,1.117,0,0,0,.481-.1,1.049,1.049,0,0,0,.364-.28,1.353,1.353,0,0,0,.238-.407,1.938,1.938,0,0,0,.112-.476v-.019H79.609a1.507,1.507,0,0,0-.542.084.634.634,0,0,0-.308.228.621.621,0,0,0-.093.341.559.559,0,0,0,.364.551,1.073,1.073,0,0,0,.421.075" transform="translate(-21.809 -104.23)"/>
        <path id="Path_33339" data-name="Path 33339" class="cls-6" d="M85.15,375.112V370.4h1l.1.878a1.9,1.9,0,0,1,.42-.527,1.828,1.828,0,0,1,.593-.341,2.242,2.242,0,0,1,.752-.121v1.186h-.392a2.01,2.01,0,0,0-.532.07,1.13,1.13,0,0,0-.434.225,1,1,0,0,0-.285.42,1.857,1.857,0,0,0-.1.668v2.251Z" transform="translate(-23.968 -104.23)"/>
        <path id="Path_33340" data-name="Path 33340" class="cls-6" d="M92.31,375.224a2.458,2.458,0,0,1-1.233-.3,2.136,2.136,0,0,1-.831-.855,2.622,2.622,0,0,1-.3-1.27,2.774,2.774,0,0,1,.295-1.308,2.173,2.173,0,0,1,.831-.878,2.4,2.4,0,0,1,1.247-.318,2.291,2.291,0,0,1,1.2.308,2.135,2.135,0,0,1,.794.827,2.4,2.4,0,0,1,.28,1.163v.206a1.544,1.544,0,0,1-.019.232H90.75v-.719h2.718a1.091,1.091,0,0,0-.346-.808,1.169,1.169,0,0,0-.813-.294,1.287,1.287,0,0,0-.635.159,1.131,1.131,0,0,0-.458.471,1.659,1.659,0,0,0-.168.79v.271a1.623,1.623,0,0,0,.164.756,1.126,1.126,0,0,0,.448.481,1.252,1.252,0,0,0,.639.165,1.159,1.159,0,0,0,.65-.169,1,1,0,0,0,.378-.449h1.14a2.145,2.145,0,0,1-.43.79,2.116,2.116,0,0,1-.738.553,2.368,2.368,0,0,1-.99.2" transform="translate(-25.318 -104.23)"/>
        <path id="Path_33341" data-name="Path 33341" class="cls-6" d="M99.893,374.478a2.145,2.145,0,0,1-1.967-1.2,2.766,2.766,0,0,1-.285-1.27,2.7,2.7,0,0,1,.29-1.265,2.211,2.211,0,0,1,.808-.878,2.173,2.173,0,0,1,1.172-.323,2.031,2.031,0,0,1,.93.2,1.578,1.578,0,0,1,.63.565V367.64h1.121v6.725h-1.009l-.112-.682a2.241,2.241,0,0,1-.364.388,1.7,1.7,0,0,1-.514.294,1.989,1.989,0,0,1-.7.113m.234-.972a1.315,1.315,0,0,0,.71-.192,1.269,1.269,0,0,0,.476-.527,1.871,1.871,0,0,0,0-1.551,1.254,1.254,0,0,0-.476-.523,1.343,1.343,0,0,0-.71-.186,1.309,1.309,0,0,0-.691.186,1.283,1.283,0,0,0-.481.523,1.822,1.822,0,0,0,0,1.551,1.3,1.3,0,0,0,.481.527,1.282,1.282,0,0,0,.691.192" transform="translate(-27.484 -103.484)"/>
        <path id="Path_33342" data-name="Path 33342" class="cls-6" d="M111.351,374.669a2.09,2.09,0,0,1-.826-.149,1.124,1.124,0,0,1-.547-.5,1.894,1.894,0,0,1-.2-.934V370.9h-.8v-.943h.8l.131-1.242h.99v1.242h1.28v.943H110.9v2.186a.631.631,0,0,0,.154.49.781.781,0,0,0,.518.136h.579v.953Z" transform="translate(-30.675 -103.788)"/>
        <path id="Path_33343" data-name="Path 33343" class="cls-6" d="M116.87,375.225a2.359,2.359,0,0,1-1.209-.313,2.209,2.209,0,0,1-.841-.869,2.851,2.851,0,0,1,.005-2.569,2.244,2.244,0,0,1,.846-.869,2.5,2.5,0,0,1,2.419,0,2.228,2.228,0,0,1,.841.864,2.637,2.637,0,0,1,.3,1.289,2.594,2.594,0,0,1-.308,1.289,2.251,2.251,0,0,1-.845.864,2.363,2.363,0,0,1-1.21.313m0-.962a1.154,1.154,0,0,0,.612-.168,1.2,1.2,0,0,0,.443-.505,1.844,1.844,0,0,0,.168-.831,1.866,1.866,0,0,0-.163-.826,1.176,1.176,0,0,0-.439-.5,1.185,1.185,0,0,0-1.219,0,1.19,1.19,0,0,0-.448.5,1.815,1.815,0,0,0-.168.826,1.844,1.844,0,0,0,.168.831,1.2,1.2,0,0,0,.444.505,1.133,1.133,0,0,0,.6.168" transform="translate(-32.234 -104.231)"/>
        <rect id="Rectangle_2338" data-name="Rectangle 2338" class="cls-6" width="1.121" height="6.725" transform="translate(90.371 264.156)"/>
        <path id="Path_33344" data-name="Path 33344" class="cls-6" d="M130.587,375.224a2.093,2.093,0,0,1-.962-.2,1.335,1.335,0,0,1-.57-.523,1.407,1.407,0,0,1-.187-.71,1.315,1.315,0,0,1,.229-.775,1.475,1.475,0,0,1,.677-.509,2.935,2.935,0,0,1,1.1-.182h1.186a1.629,1.629,0,0,0-.1-.621.727.727,0,0,0-.318-.369,1.116,1.116,0,0,0-.551-.121,1.192,1.192,0,0,0-.654.172.759.759,0,0,0-.336.528H129a1.675,1.675,0,0,1,.336-.864,1.864,1.864,0,0,1,.743-.561,2.52,2.52,0,0,1,1.013-.2,2.562,2.562,0,0,1,1.13.228,1.643,1.643,0,0,1,.715.655,2,2,0,0,1,.247,1.022v2.914h-.953l-.112-.757a1.551,1.551,0,0,1-.238.346,1.6,1.6,0,0,1-.332.276,1.626,1.626,0,0,1-.425.182,2.055,2.055,0,0,1-.537.065m.252-.887a1.117,1.117,0,0,0,.481-.1,1.058,1.058,0,0,0,.364-.28,1.368,1.368,0,0,0,.238-.407,1.972,1.972,0,0,0,.112-.476v-.019H131a1.5,1.5,0,0,0-.542.084.564.564,0,0,0-.4.57.594.594,0,0,0,.093.336.584.584,0,0,0,.271.215,1.072,1.072,0,0,0,.42.075" transform="translate(-36.274 -104.23)"/>
        <path id="Path_33345" data-name="Path 33345" class="cls-6" d="M138.317,375.224a2.73,2.73,0,0,1-1.088-.2,1.754,1.754,0,0,1-.729-.562,1.636,1.636,0,0,1-.313-.826h1.121a.969.969,0,0,0,.168.359.8.8,0,0,0,.332.256,1.206,1.206,0,0,0,.5.094,1.126,1.126,0,0,0,.458-.079.579.579,0,0,0,.262-.211.508.508,0,0,0,.084-.28.463.463,0,0,0-.121-.345.846.846,0,0,0-.35-.192q-.23-.07-.547-.135a6.2,6.2,0,0,1-.649-.164,2.588,2.588,0,0,1-.561-.248,1.164,1.164,0,0,1-.392-.383,1.059,1.059,0,0,1-.144-.57,1.293,1.293,0,0,1,.219-.737,1.49,1.49,0,0,1,.636-.519,2.365,2.365,0,0,1,.994-.192,2.1,2.1,0,0,1,1.313.378,1.513,1.513,0,0,1,.574,1.061h-1.065a.6.6,0,0,0-.262-.406,1,1,0,0,0-.57-.145.951.951,0,0,0-.556.137.419.419,0,0,0-.191.359.355.355,0,0,0,.116.262.953.953,0,0,0,.341.19,4.631,4.631,0,0,0,.551.154,6.689,6.689,0,0,1,.925.244,1.434,1.434,0,0,1,.635.41,1.14,1.14,0,0,1,.234.767,1.3,1.3,0,0,1-.229.793,1.532,1.532,0,0,1-.668.537,2.5,2.5,0,0,1-1.027.192" transform="translate(-38.334 -104.23)"/>
        <path id="Path_33346" data-name="Path 33346" class="cls-6" d="M145.034,374.669a2.09,2.09,0,0,1-.826-.149,1.124,1.124,0,0,1-.547-.5,1.894,1.894,0,0,1-.2-.934V370.9h-.8v-.943h.8l.131-1.242h.99v1.242h1.28v.943h-1.28v2.186a.631.631,0,0,0,.154.49.781.781,0,0,0,.518.136h.579v.953Z" transform="translate(-40.156 -103.788)"/>
        <path id="Path_33347" data-name="Path 33347" class="cls-6" d="M151.76,377.167V370.4h1l.121.682a2.247,2.247,0,0,1,.361-.388,1.629,1.629,0,0,1,.512-.294,1.991,1.991,0,0,1,.7-.113,2.126,2.126,0,0,1,1.172.327,2.279,2.279,0,0,1,.8.883,2.693,2.693,0,0,1,.29,1.266,2.665,2.665,0,0,1-.293,1.265,2.24,2.24,0,0,1-.8.874,2.146,2.146,0,0,1-1.162.318,2.041,2.041,0,0,1-.93-.2,1.627,1.627,0,0,1-.639-.575v2.719Zm2.457-2.915a1.318,1.318,0,0,0,.7-.187,1.287,1.287,0,0,0,.481-.522,1.678,1.678,0,0,0,.172-.775,1.7,1.7,0,0,0-.172-.785,1.289,1.289,0,0,0-.481-.523,1.418,1.418,0,0,0-1.4,0,1.294,1.294,0,0,0-.477.523,1.833,1.833,0,0,0,0,1.556,1.325,1.325,0,0,0,.477.522,1.287,1.287,0,0,0,.7.192" transform="translate(-42.718 -104.23)"/>
        <path id="Path_33348" data-name="Path 33348" class="cls-6" d="M162.3,375.224a2.458,2.458,0,0,1-1.233-.3,2.136,2.136,0,0,1-.831-.855,2.622,2.622,0,0,1-.3-1.27,2.774,2.774,0,0,1,.295-1.308,2.173,2.173,0,0,1,.831-.878,2.4,2.4,0,0,1,1.247-.318,2.291,2.291,0,0,1,1.2.308,2.135,2.135,0,0,1,.794.827,2.4,2.4,0,0,1,.28,1.163v.206a1.545,1.545,0,0,1-.019.232h-3.83v-.719h2.718a1.091,1.091,0,0,0-.346-.808,1.169,1.169,0,0,0-.813-.294,1.287,1.287,0,0,0-.635.159,1.13,1.13,0,0,0-.458.471,1.659,1.659,0,0,0-.168.79v.271a1.623,1.623,0,0,0,.164.756,1.125,1.125,0,0,0,.448.481,1.252,1.252,0,0,0,.639.165,1.159,1.159,0,0,0,.65-.169,1,1,0,0,0,.378-.449h1.14a2.145,2.145,0,0,1-.43.79,2.115,2.115,0,0,1-.738.553,2.368,2.368,0,0,1-.99.2" transform="translate(-45.019 -104.23)"/>
        <path id="Path_33349" data-name="Path 33349" class="cls-6" d="M167.854,375.112V370.4h1l.1.878a1.9,1.9,0,0,1,.42-.527,1.828,1.828,0,0,1,.593-.341,2.241,2.241,0,0,1,.752-.121v1.186h-.392a2.01,2.01,0,0,0-.532.07,1.13,1.13,0,0,0-.434.225,1,1,0,0,0-.285.42,1.857,1.857,0,0,0-.1.668v2.251Z" transform="translate(-47.248 -104.23)"/>
        <path id="Path_33350" data-name="Path 33350" class="cls-6" d="M173.582,368.892a.707.707,0,0,1-.509-.191.625.625,0,0,1-.2-.471.608.608,0,0,1,.2-.473.8.8,0,0,1,1.018,0,.61.61,0,0,1,.2.473.627.627,0,0,1-.2.471.709.709,0,0,1-.509.191m-.56.747h1.121v4.708h-1.121Z" transform="translate(-48.66 -103.466)"/>
        <path id="Path_33351" data-name="Path 33351" class="cls-6" d="M178.58,375.225a2.359,2.359,0,0,1-1.209-.313,2.209,2.209,0,0,1-.841-.869,2.851,2.851,0,0,1,.005-2.569,2.244,2.244,0,0,1,.846-.869,2.5,2.5,0,0,1,2.419,0,2.228,2.228,0,0,1,.841.864,2.637,2.637,0,0,1,.3,1.289,2.594,2.594,0,0,1-.308,1.289,2.251,2.251,0,0,1-.845.864,2.363,2.363,0,0,1-1.21.313m0-.962a1.154,1.154,0,0,0,.612-.168,1.2,1.2,0,0,0,.443-.505,1.844,1.844,0,0,0,.168-.831,1.867,1.867,0,0,0-.163-.826,1.176,1.176,0,0,0-.439-.5,1.185,1.185,0,0,0-1.219,0,1.191,1.191,0,0,0-.448.5,1.815,1.815,0,0,0-.168.826,1.844,1.844,0,0,0,.168.831,1.2,1.2,0,0,0,.444.505,1.133,1.133,0,0,0,.6.168" transform="translate(-49.604 -104.231)"/>
        <path id="Path_33352" data-name="Path 33352" class="cls-6" d="M186.445,375.225a2.359,2.359,0,0,1-1.209-.313,2.209,2.209,0,0,1-.841-.869,2.851,2.851,0,0,1,.005-2.569,2.244,2.244,0,0,1,.846-.869,2.5,2.5,0,0,1,2.419,0,2.228,2.228,0,0,1,.841.864,2.637,2.637,0,0,1,.3,1.289,2.594,2.594,0,0,1-.308,1.289,2.251,2.251,0,0,1-.845.864,2.363,2.363,0,0,1-1.21.313m0-.962a1.154,1.154,0,0,0,.612-.168,1.2,1.2,0,0,0,.443-.505,1.844,1.844,0,0,0,.168-.831,1.867,1.867,0,0,0-.163-.826,1.177,1.177,0,0,0-.439-.5,1.185,1.185,0,0,0-1.219,0,1.19,1.19,0,0,0-.448.5,1.815,1.815,0,0,0-.168.826,1.844,1.844,0,0,0,.168.831,1.2,1.2,0,0,0,.444.505,1.133,1.133,0,0,0,.6.168" transform="translate(-51.818 -104.231)"/>
        <path id="Path_33353" data-name="Path 33353" class="cls-6" d="M194.207,374.478a2.145,2.145,0,0,1-1.967-1.2,2.766,2.766,0,0,1-.285-1.27,2.7,2.7,0,0,1,.29-1.265,2.211,2.211,0,0,1,.808-.878,2.173,2.173,0,0,1,1.172-.323,2.031,2.031,0,0,1,.93.2,1.578,1.578,0,0,1,.63.565V367.64h1.121v6.725H195.9l-.112-.682a2.241,2.241,0,0,1-.364.388,1.7,1.7,0,0,1-.514.294,1.989,1.989,0,0,1-.7.113m.234-.972a1.315,1.315,0,0,0,.71-.192,1.269,1.269,0,0,0,.476-.527,1.871,1.871,0,0,0,0-1.551,1.254,1.254,0,0,0-.476-.523,1.343,1.343,0,0,0-.71-.186,1.309,1.309,0,0,0-.691.186,1.283,1.283,0,0,0-.481.523,1.822,1.822,0,0,0,0,1.551,1.3,1.3,0,0,0,.481.527,1.282,1.282,0,0,0,.691.192" transform="translate(-54.032 -103.484)"/>
        <path id="Path_33354" data-name="Path 33354" d="M40.42,152.059V142h1.724l4.843,7.271V142h1.724v10.059H46.987L42.144,144.8v7.257Z" transform="translate(-11.377 -39.97)"/>
        <path id="Path_33355" data-name="Path 33355" d="M58,153.267a3.765,3.765,0,0,1-1.9-.467,3.276,3.276,0,0,1-1.279-1.315,4.034,4.034,0,0,1-.46-1.954,4.267,4.267,0,0,1,.453-2.012,3.339,3.339,0,0,1,1.279-1.351,3.7,3.7,0,0,1,1.918-.489,3.535,3.535,0,0,1,1.854.475,3.28,3.28,0,0,1,1.221,1.272,3.7,3.7,0,0,1,.431,1.788v.317a2.331,2.331,0,0,1-.029.359H55.6v-1.107h4.182a1.677,1.677,0,0,0-.532-1.244,1.8,1.8,0,0,0-1.25-.453,2,2,0,0,0-.977.245,1.747,1.747,0,0,0-.7.726,2.545,2.545,0,0,0-.259,1.214v.417a2.518,2.518,0,0,0,.251,1.164,1.749,1.749,0,0,0,.69.74,1.945,1.945,0,0,0,.984.251,1.8,1.8,0,0,0,1-.259,1.546,1.546,0,0,0,.582-.69h1.753a3.319,3.319,0,0,1-.661,1.214,3.236,3.236,0,0,1-1.135.847,3.618,3.618,0,0,1-1.523.31" transform="translate(-15.301 -41.006)"/>
        <path id="Path_33356" data-name="Path 33356" d="M67.306,153.163l-2.127-7.243h1.71l1.48,5.949-.316-.014,1.653-5.935h1.926l1.667,5.935h-.316l1.48-5.935h1.71l-2.127,7.243H72.264L70.5,147.027h.359l-1.768,6.136Z" transform="translate(-18.347 -41.074)"/>
        <path id="Path_33357" data-name="Path 33357" d="M87.159,152.059V142H90.78a4.32,4.32,0,0,1,2,.41,2.77,2.77,0,0,1,1.178,1.1,3.369,3.369,0,0,1,.014,3.112,2.746,2.746,0,0,1-1.164,1.121,4.26,4.26,0,0,1-2.026.424h-1.9v3.894Zm1.724-5.3h1.8a2,2,0,0,0,1.466-.453,1.907,1.907,0,0,0,0-2.45,2.018,2.018,0,0,0-1.466-.445h-1.8Z" transform="translate(-24.534 -39.97)"/>
        <path id="Path_33358" data-name="Path 33358" d="M99.159,153.1v-7.243H100.7l.158,1.351a2.912,2.912,0,0,1,.647-.812,2.794,2.794,0,0,1,.913-.525,3.433,3.433,0,0,1,1.157-.187v1.825h-.6a3.047,3.047,0,0,0-.819.108,1.74,1.74,0,0,0-.668.345,1.566,1.566,0,0,0-.438.647,2.87,2.87,0,0,0-.158,1.027V153.1Z" transform="translate(-27.911 -41.006)"/>
        <path id="Path_33359" data-name="Path 33359" d="M110.16,153.268a3.634,3.634,0,0,1-1.861-.481,3.405,3.405,0,0,1-1.293-1.337,4.383,4.383,0,0,1,.007-3.952,3.456,3.456,0,0,1,1.3-1.336,3.838,3.838,0,0,1,3.722,0,3.415,3.415,0,0,1,1.293,1.33,4.049,4.049,0,0,1,.467,1.982,3.994,3.994,0,0,1-.474,1.983,3.478,3.478,0,0,1-1.3,1.33,3.633,3.633,0,0,1-1.861.481m0-1.481a1.777,1.777,0,0,0,.941-.258,1.855,1.855,0,0,0,.683-.776,3.316,3.316,0,0,0,.007-2.551,1.81,1.81,0,0,0-.675-.77,1.829,1.829,0,0,0-1.875,0,1.839,1.839,0,0,0-.69.77,2.792,2.792,0,0,0-.259,1.271,2.847,2.847,0,0,0,.259,1.28,1.85,1.85,0,0,0,.683.776,1.751,1.751,0,0,0,.927.258" transform="translate(-29.989 -41.006)"/>
        <path id="Path_33360" data-name="Path 33360" d="M118.979,156.257v-10.4h1.538l.187,1.049a3.542,3.542,0,0,1,.553-.6,2.534,2.534,0,0,1,.79-.453,3.079,3.079,0,0,1,1.071-.172,3.264,3.264,0,0,1,1.8.5,3.51,3.51,0,0,1,1.229,1.357,4.16,4.16,0,0,1,.445,1.948,4.1,4.1,0,0,1-.453,1.947,3.454,3.454,0,0,1-1.236,1.343,3.307,3.307,0,0,1-1.789.489,3.117,3.117,0,0,1-1.43-.31,2.492,2.492,0,0,1-.984-.883v4.182Zm3.779-4.484a2.036,2.036,0,0,0,1.078-.287,1.973,1.973,0,0,0,.74-.805,2.576,2.576,0,0,0,.266-1.192,2.612,2.612,0,0,0-.266-1.207,1.975,1.975,0,0,0-.74-.8,2.178,2.178,0,0,0-2.163,0,1.989,1.989,0,0,0-.733.8,2.825,2.825,0,0,0,0,2.393,2.055,2.055,0,0,0,.733.8,1.991,1.991,0,0,0,1.085.295" transform="translate(-33.49 -41.006)"/>
        <path id="Path_33361" data-name="Path 33361" d="M135.195,153.267a3.765,3.765,0,0,1-1.9-.467,3.276,3.276,0,0,1-1.279-1.315,4.034,4.034,0,0,1-.46-1.954,4.267,4.267,0,0,1,.453-2.012,3.339,3.339,0,0,1,1.279-1.351,3.7,3.7,0,0,1,1.918-.489,3.535,3.535,0,0,1,1.854.475,3.28,3.28,0,0,1,1.221,1.272,3.7,3.7,0,0,1,.431,1.788v.317a2.332,2.332,0,0,1-.029.359h-5.892v-1.107h4.182a1.677,1.677,0,0,0-.532-1.244,1.8,1.8,0,0,0-1.25-.453,2,2,0,0,0-.977.245,1.747,1.747,0,0,0-.7.726,2.545,2.545,0,0,0-.259,1.214v.417a2.518,2.518,0,0,0,.251,1.164,1.749,1.749,0,0,0,.69.74,1.944,1.944,0,0,0,.984.251,1.8,1.8,0,0,0,1-.259,1.546,1.546,0,0,0,.582-.69h1.753a3.319,3.319,0,0,1-.661,1.214,3.236,3.236,0,0,1-1.135.847,3.618,3.618,0,0,1-1.523.31" transform="translate(-37.031 -41.006)"/>
        <path id="Path_33362" data-name="Path 33362" d="M143.739,153.1v-7.243h1.538l.158,1.351a2.913,2.913,0,0,1,.647-.812,2.794,2.794,0,0,1,.913-.525,3.433,3.433,0,0,1,1.157-.187v1.825h-.6a3.047,3.047,0,0,0-.819.108,1.74,1.74,0,0,0-.668.345,1.566,1.566,0,0,0-.438.647,2.87,2.87,0,0,0-.158,1.027V153.1Z" transform="translate(-40.46 -41.006)"/>
        <path id="Path_33363" data-name="Path 33363" d="M154.629,152.414a3.216,3.216,0,0,1-1.272-.23,1.728,1.728,0,0,1-.841-.762,2.913,2.913,0,0,1-.3-1.437v-3.363h-1.236v-1.451h1.236l.2-1.911h1.523v1.911h1.969v1.451h-1.969v3.363a.973.973,0,0,0,.237.754,1.208,1.208,0,0,0,.8.208h.891v1.466Z" transform="translate(-42.498 -40.325)"/>
        <path id="Path_33364" data-name="Path 33364" d="M160.971,143.527a1.09,1.09,0,0,1-.784-.3.963.963,0,0,1-.308-.725.939.939,0,0,1,.308-.726,1.236,1.236,0,0,1,1.567,0,.939.939,0,0,1,.309.726.964.964,0,0,1-.309.725,1.088,1.088,0,0,1-.783.3m-.862,1.149h1.724v7.243h-1.724Z" transform="translate(-45.003 -39.83)"/>
        <path id="Path_33365" data-name="Path 33365" d="M168.674,153.267a3.765,3.765,0,0,1-1.9-.467,3.276,3.276,0,0,1-1.279-1.315,4.034,4.034,0,0,1-.46-1.954,4.267,4.267,0,0,1,.453-2.012,3.339,3.339,0,0,1,1.279-1.351,3.7,3.7,0,0,1,1.918-.489,3.535,3.535,0,0,1,1.854.475,3.28,3.28,0,0,1,1.221,1.272,3.7,3.7,0,0,1,.431,1.788v.317a2.332,2.332,0,0,1-.029.359h-5.892v-1.107h4.182a1.677,1.677,0,0,0-.532-1.244,1.8,1.8,0,0,0-1.25-.453,2,2,0,0,0-.977.245,1.747,1.747,0,0,0-.7.726,2.545,2.545,0,0,0-.259,1.214v.417a2.518,2.518,0,0,0,.251,1.164,1.749,1.749,0,0,0,.69.74,1.945,1.945,0,0,0,.984.251,1.8,1.8,0,0,0,1-.259,1.546,1.546,0,0,0,.582-.69h1.753a3.319,3.319,0,0,1-.661,1.214,3.236,3.236,0,0,1-1.135.847,3.618,3.618,0,0,1-1.523.31" transform="translate(-46.455 -41.006)"/>
        <path id="Path_33366" data-name="Path 33366" d="M179.954,153.267a4.174,4.174,0,0,1-1.674-.31,2.689,2.689,0,0,1-1.121-.862,2.519,2.519,0,0,1-.481-1.272H178.4a1.508,1.508,0,0,0,.259.553,1.246,1.246,0,0,0,.51.4,1.887,1.887,0,0,0,.769.144,1.74,1.74,0,0,0,.7-.122.893.893,0,0,0,.4-.323.785.785,0,0,0,.129-.432.719.719,0,0,0-.187-.531,1.27,1.27,0,0,0-.539-.295q-.352-.109-.841-.208a9.179,9.179,0,0,1-1-.252,3.91,3.91,0,0,1-.862-.38,1.789,1.789,0,0,1-.6-.589,1.63,1.63,0,0,1-.223-.877,1.992,1.992,0,0,1,.338-1.135,2.3,2.3,0,0,1,.977-.8,3.626,3.626,0,0,1,1.53-.3,3.221,3.221,0,0,1,2.019.583,2.324,2.324,0,0,1,.884,1.631h-1.638a.918.918,0,0,0-.4-.626,1.548,1.548,0,0,0-.877-.222,1.474,1.474,0,0,0-.855.208.646.646,0,0,0-.295.553.541.541,0,0,0,.18.4,1.45,1.45,0,0,0,.525.295,7.876,7.876,0,0,0,.848.237,10.491,10.491,0,0,1,1.423.374,2.221,2.221,0,0,1,.977.632,1.75,1.75,0,0,1,.359,1.178,2.022,2.022,0,0,1-.352,1.221,2.4,2.4,0,0,1-1.027.827,3.868,3.868,0,0,1-1.581.295" transform="translate(-49.732 -41.006)"/>
        <path id="Path_33367" data-name="Path 33367" d="M40.42,352.059V342h1.724l4.843,7.271V342h1.724v10.059H46.987L42.144,344.8v7.257Z" transform="translate(-11.377 -96.267)"/>
        <path id="Path_33368" data-name="Path 33368" d="M58,353.267a3.765,3.765,0,0,1-1.9-.467,3.275,3.275,0,0,1-1.279-1.315,4.034,4.034,0,0,1-.46-1.954,4.267,4.267,0,0,1,.453-2.012,3.339,3.339,0,0,1,1.279-1.351,3.7,3.7,0,0,1,1.918-.489,3.535,3.535,0,0,1,1.854.475,3.28,3.28,0,0,1,1.221,1.272,3.7,3.7,0,0,1,.431,1.788v.317a2.331,2.331,0,0,1-.029.359H55.6v-1.107h4.182a1.677,1.677,0,0,0-.532-1.244,1.8,1.8,0,0,0-1.25-.453,2,2,0,0,0-.977.245,1.747,1.747,0,0,0-.7.726,2.545,2.545,0,0,0-.259,1.214v.417a2.518,2.518,0,0,0,.251,1.164,1.749,1.749,0,0,0,.69.74,1.945,1.945,0,0,0,.984.251,1.8,1.8,0,0,0,1-.259,1.546,1.546,0,0,0,.582-.69h1.753a3.319,3.319,0,0,1-.661,1.214,3.236,3.236,0,0,1-1.135.847,3.618,3.618,0,0,1-1.523.31" transform="translate(-15.301 -97.302)"/>
        <path id="Path_33369" data-name="Path 33369" d="M67.306,353.163l-2.127-7.243h1.71l1.48,5.949-.316-.014,1.653-5.935h1.926l1.667,5.935h-.316l1.48-5.935h1.71l-2.127,7.243H72.264L70.5,347.027h.359l-1.768,6.136Z" transform="translate(-18.347 -97.37)"/>
        <path id="Path_33370" data-name="Path 33370" d="M91.6,352.164a4.975,4.975,0,0,1-2.565-.654,4.607,4.607,0,0,1-1.746-1.825,6.149,6.149,0,0,1,0-5.432,4.66,4.66,0,0,1,1.746-1.832,4.924,4.924,0,0,1,2.565-.661,5.019,5.019,0,0,1,2.6.661,4.541,4.541,0,0,1,1.739,1.832,6.278,6.278,0,0,1,0,5.432A4.49,4.49,0,0,1,94.2,351.51a5.071,5.071,0,0,1-2.6.654m.014-1.552a3.163,3.163,0,0,0,1.681-.438,2.868,2.868,0,0,0,1.107-1.257,5.116,5.116,0,0,0,0-3.909A2.86,2.86,0,0,0,93.3,343.75a3.444,3.444,0,0,0-3.363,0,2.906,2.906,0,0,0-1.114,1.257,5.03,5.03,0,0,0,0,3.909,2.914,2.914,0,0,0,1.114,1.257,3.163,3.163,0,0,0,1.681.438" transform="translate(-24.393 -96.199)"/>
        <path id="Path_33371" data-name="Path 33371" d="M106.038,353.267a3.767,3.767,0,0,1-1.9-.481,3.372,3.372,0,0,1-1.308-1.336,4,4,0,0,1-.467-1.947,4.09,4.09,0,0,1,.467-1.99,3.418,3.418,0,0,1,1.308-1.344,3.75,3.75,0,0,1,1.918-.489,3.6,3.6,0,0,1,2.271.712,3.2,3.2,0,0,1,1.178,1.947H107.69a1.477,1.477,0,0,0-.6-.863,1.824,1.824,0,0,0-1.071-.315,1.8,1.8,0,0,0-.97.273,1.859,1.859,0,0,0-.69.79,2.847,2.847,0,0,0-.251,1.251,3.12,3.12,0,0,0,.144.992,2,2,0,0,0,.41.725,1.857,1.857,0,0,0,.611.453,1.767,1.767,0,0,0,.747.158,2.01,2.01,0,0,0,.754-.137,1.49,1.49,0,0,0,.575-.41,1.612,1.612,0,0,0,.338-.647H109.5a3.248,3.248,0,0,1-1.178,1.933,3.575,3.575,0,0,1-2.285.726" transform="translate(-28.812 -97.302)"/>
        <path id="Path_33372" data-name="Path 33372" d="M117.958,353.267a3.767,3.767,0,0,1-1.9-.481,3.372,3.372,0,0,1-1.308-1.336,4,4,0,0,1-.467-1.947,4.09,4.09,0,0,1,.467-1.99,3.418,3.418,0,0,1,1.308-1.344,3.75,3.75,0,0,1,1.918-.489,3.6,3.6,0,0,1,2.271.712,3.2,3.2,0,0,1,1.178,1.947H119.61a1.477,1.477,0,0,0-.6-.863,1.824,1.824,0,0,0-1.071-.315,1.8,1.8,0,0,0-.97.273,1.859,1.859,0,0,0-.69.79,2.847,2.847,0,0,0-.251,1.251,3.12,3.12,0,0,0,.144.992,2,2,0,0,0,.41.725,1.857,1.857,0,0,0,.611.453,1.767,1.767,0,0,0,.747.158,2.01,2.01,0,0,0,.754-.137,1.49,1.49,0,0,0,.575-.41,1.612,1.612,0,0,0,.338-.647h1.811a3.248,3.248,0,0,1-1.178,1.933,3.575,3.575,0,0,1-2.285.726" transform="translate(-32.167 -97.302)"/>
        <path id="Path_33373" data-name="Path 33373" d="M129.187,353.335a3.02,3.02,0,0,1-1.5-.352,2.282,2.282,0,0,1-.956-1.064,4.16,4.16,0,0,1-.331-1.76V345.92h1.724v4.067a2.185,2.185,0,0,0,.4,1.415,1.461,1.461,0,0,0,1.2.481,1.778,1.778,0,0,0,.927-.244,1.7,1.7,0,0,0,.647-.712,2.5,2.5,0,0,0,.237-1.142V345.92h1.724v7.243H131.73l-.129-1.207a2.5,2.5,0,0,1-.956,1.005,2.787,2.787,0,0,1-1.459.374" transform="translate(-35.579 -97.37)"/>
        <path id="Path_33374" data-name="Path 33374" d="M138.619,356.257v-10.4h1.538l.187,1.049a3.542,3.542,0,0,1,.553-.6,2.534,2.534,0,0,1,.79-.453,3.079,3.079,0,0,1,1.071-.172,3.264,3.264,0,0,1,1.8.5,3.509,3.509,0,0,1,1.229,1.357,4.16,4.16,0,0,1,.445,1.948,4.1,4.1,0,0,1-.453,1.947,3.454,3.454,0,0,1-1.236,1.343,3.307,3.307,0,0,1-1.789.489,3.117,3.117,0,0,1-1.43-.31,2.492,2.492,0,0,1-.984-.883v4.182Zm3.779-4.484a2.036,2.036,0,0,0,1.078-.287,1.973,1.973,0,0,0,.74-.805,2.576,2.576,0,0,0,.266-1.192,2.613,2.613,0,0,0-.266-1.207,1.975,1.975,0,0,0-.74-.8,2.178,2.178,0,0,0-2.163,0,1.989,1.989,0,0,0-.733.8,2.825,2.825,0,0,0,0,2.393,2.055,2.055,0,0,0,.733.8,1.99,1.99,0,0,0,1.085.295" transform="translate(-39.019 -97.303)"/>
        <path id="Path_33375" data-name="Path 33375" d="M153.863,353.268a3.228,3.228,0,0,1-1.48-.3,2.046,2.046,0,0,1-.877-.8,2.16,2.16,0,0,1-.287-1.092,2.026,2.026,0,0,1,.352-1.193,2.277,2.277,0,0,1,1.042-.783,4.516,4.516,0,0,1,1.7-.28h1.825a2.518,2.518,0,0,0-.158-.956,1.128,1.128,0,0,0-.489-.568,1.713,1.713,0,0,0-.848-.187,1.828,1.828,0,0,0-1.006.266,1.162,1.162,0,0,0-.517.812h-1.7a2.58,2.58,0,0,1,.517-1.329,2.856,2.856,0,0,1,1.142-.862,3.856,3.856,0,0,1,1.559-.31,3.93,3.93,0,0,1,1.739.352,2.529,2.529,0,0,1,1.1,1.006,3.079,3.079,0,0,1,.381,1.574V353.1h-1.466l-.172-1.164a2.331,2.331,0,0,1-.366.532,2.391,2.391,0,0,1-1.164.7,3.107,3.107,0,0,1-.826.1m.388-1.365a1.733,1.733,0,0,0,.74-.151,1.631,1.631,0,0,0,.56-.431,2.1,2.1,0,0,0,.366-.625,3.033,3.033,0,0,0,.172-.733v-.029h-1.6a2.3,2.3,0,0,0-.833.129.958.958,0,0,0-.474.352.943.943,0,0,0-.144.525.863.863,0,0,0,.56.848,1.654,1.654,0,0,0,.647.115" transform="translate(-42.565 -97.303)"/>
        <path id="Path_33376" data-name="Path 33376" d="M163.018,353.1v-7.243h1.523l.129,1.207a2.529,2.529,0,0,1,.948-1.006,2.782,2.782,0,0,1,1.466-.374,2.88,2.88,0,0,1,1.495.366,2.427,2.427,0,0,1,.956,1.071,4.044,4.044,0,0,1,.338,1.753V353.1h-1.724v-4.067a2.141,2.141,0,0,0-.4-1.394,1.456,1.456,0,0,0-1.193-.489,1.772,1.772,0,0,0-.927.244,1.7,1.7,0,0,0-.647.711,2.468,2.468,0,0,0-.237,1.128V353.1Z" transform="translate(-45.887 -97.303)"/>
        <path id="Path_33377" data-name="Path 33377" d="M178.437,353.267a3.767,3.767,0,0,1-1.9-.481,3.372,3.372,0,0,1-1.308-1.336,4,4,0,0,1-.467-1.947,4.09,4.09,0,0,1,.467-1.99,3.418,3.418,0,0,1,1.308-1.344,3.75,3.75,0,0,1,1.918-.489,3.6,3.6,0,0,1,2.271.712,3.2,3.2,0,0,1,1.178,1.947h-1.811a1.477,1.477,0,0,0-.6-.863,1.824,1.824,0,0,0-1.071-.315,1.8,1.8,0,0,0-.97.273,1.86,1.86,0,0,0-.69.79,2.847,2.847,0,0,0-.251,1.251,3.12,3.12,0,0,0,.144.992,2,2,0,0,0,.41.725,1.857,1.857,0,0,0,.611.453,1.767,1.767,0,0,0,.747.158,2.01,2.01,0,0,0,.754-.137,1.49,1.49,0,0,0,.575-.41,1.612,1.612,0,0,0,.338-.647H181.9a3.247,3.247,0,0,1-1.178,1.933,3.575,3.575,0,0,1-2.285.726" transform="translate(-49.191 -97.302)"/>
        <path id="Path_33378" data-name="Path 33378" d="M187.89,343.527a1.087,1.087,0,0,1-.783-.3.961.961,0,0,1-.309-.725.937.937,0,0,1,.309-.726,1.235,1.235,0,0,1,1.566,0,.937.937,0,0,1,.309.726.962.962,0,0,1-.309.725,1.088,1.088,0,0,1-.783.3m-.862,1.149h1.724v7.243h-1.724Z" transform="translate(-52.58 -96.126)"/>
        <path id="Path_33379" data-name="Path 33379" d="M195.594,353.267a3.765,3.765,0,0,1-1.9-.467,3.275,3.275,0,0,1-1.279-1.315,4.034,4.034,0,0,1-.46-1.954,4.267,4.267,0,0,1,.453-2.012,3.339,3.339,0,0,1,1.279-1.351,3.7,3.7,0,0,1,1.918-.489,3.535,3.535,0,0,1,1.854.475,3.28,3.28,0,0,1,1.221,1.272,3.7,3.7,0,0,1,.431,1.788v.317a2.332,2.332,0,0,1-.029.359h-5.892v-1.107h4.182a1.677,1.677,0,0,0-.532-1.244,1.8,1.8,0,0,0-1.25-.453,2,2,0,0,0-.977.245,1.747,1.747,0,0,0-.7.726,2.545,2.545,0,0,0-.259,1.214v.417a2.518,2.518,0,0,0,.251,1.164,1.749,1.749,0,0,0,.69.74,1.945,1.945,0,0,0,.984.251,1.8,1.8,0,0,0,1-.259,1.546,1.546,0,0,0,.582-.69h1.753a3.319,3.319,0,0,1-.661,1.214,3.236,3.236,0,0,1-1.135.847,3.618,3.618,0,0,1-1.523.31" transform="translate(-54.033 -97.302)"/>
        <path id="Path_33380" data-name="Path 33380" d="M206.874,353.267a4.174,4.174,0,0,1-1.674-.31,2.689,2.689,0,0,1-1.121-.862,2.519,2.519,0,0,1-.481-1.272h1.724a1.508,1.508,0,0,0,.259.553,1.246,1.246,0,0,0,.51.4,1.888,1.888,0,0,0,.769.144,1.74,1.74,0,0,0,.7-.122.893.893,0,0,0,.4-.323.785.785,0,0,0,.129-.432.719.719,0,0,0-.187-.531,1.27,1.27,0,0,0-.539-.295q-.352-.109-.841-.208a9.187,9.187,0,0,1-1-.252,3.911,3.911,0,0,1-.862-.38,1.788,1.788,0,0,1-.6-.589,1.63,1.63,0,0,1-.223-.877,1.992,1.992,0,0,1,.338-1.135,2.3,2.3,0,0,1,.977-.8,3.626,3.626,0,0,1,1.53-.3,3.221,3.221,0,0,1,2.019.583,2.324,2.324,0,0,1,.884,1.631h-1.638a.918.918,0,0,0-.4-.626,1.548,1.548,0,0,0-.877-.222,1.474,1.474,0,0,0-.855.208.646.646,0,0,0-.295.553.541.541,0,0,0,.18.4,1.45,1.45,0,0,0,.525.295,7.882,7.882,0,0,0,.848.237,10.5,10.5,0,0,1,1.423.374,2.221,2.221,0,0,1,.977.632,1.75,1.75,0,0,1,.359,1.178,2.021,2.021,0,0,1-.352,1.221,2.394,2.394,0,0,1-1.027.827,3.867,3.867,0,0,1-1.581.295" transform="translate(-57.309 -97.302)"/>
        <path id="Path_33381" data-name="Path 33381" d="M50.4,252.411a10.993,10.993,0,0,1-4.455-.88,7.269,7.269,0,0,1-3.215-2.694,8.531,8.531,0,0,1-1.275-4.581h4.239a5,5,0,0,0,.593,2.281,4.07,4.07,0,0,0,1.6,1.617,5.007,5.007,0,0,0,2.515.593,4.926,4.926,0,0,0,2.389-.539,3.6,3.6,0,0,0,1.491-1.472,4.322,4.322,0,0,0,.5-2.084,3.771,3.771,0,0,0-.683-2.316,4.163,4.163,0,0,0-1.868-1.383,7.3,7.3,0,0,0-2.694-.468H47.665v-3.557h1.868a5.361,5.361,0,0,0,3.233-.915,3.456,3.456,0,0,0,.305-5.048,3.8,3.8,0,0,0-2.712-.9,3.871,3.871,0,0,0-2.892,1.078A4.058,4.058,0,0,0,46.3,233.8H42.061a7.916,7.916,0,0,1,1.168-3.935A6.992,6.992,0,0,1,46.12,227.3a9.606,9.606,0,0,1,4.275-.9,9.41,9.41,0,0,1,4.311.9,6.48,6.48,0,0,1,2.676,2.406,6.252,6.252,0,0,1,.916,3.305,5.937,5.937,0,0,1-.539,2.551,5.57,5.57,0,0,1-1.455,1.922,5.825,5.825,0,0,1-2.138,1.132,6.13,6.13,0,0,1,2.5,1.114,5.8,5.8,0,0,1,1.724,2.1,6.631,6.631,0,0,1,.629,2.964,7.553,7.553,0,0,1-.988,3.791,7.184,7.184,0,0,1-2.91,2.784,9.811,9.811,0,0,1-4.724,1.041" transform="translate(-11.667 -63.728)"/>
        <path id="Path_33382" data-name="Path 33382" d="M51.3,452.579a10.542,10.542,0,0,1-4.652-.951A7.581,7.581,0,0,1,43.579,449a8.208,8.208,0,0,1-1.329-3.79h4.2a4.5,4.5,0,0,0,1.617,2.641,4.934,4.934,0,0,0,3.233,1.059,4.408,4.408,0,0,0,2.515-.7,4.8,4.8,0,0,0,1.635-1.9,6.056,6.056,0,0,0,.593-2.712,5.8,5.8,0,0,0-.593-2.694,4.364,4.364,0,0,0-1.635-1.778,4.569,4.569,0,0,0-2.407-.629,5.237,5.237,0,0,0-2.892.773,4.6,4.6,0,0,0-1.742,1.921H42.609L44.693,427H58.56v3.772H47.926l-1.15,6.216a6.187,6.187,0,0,1,2.191-1.474,8.008,8.008,0,0,1,3.126-.575,8.182,8.182,0,0,1,3.485.7,7.6,7.6,0,0,1,2.551,1.886,7.908,7.908,0,0,1,1.563,2.748,10.336,10.336,0,0,1,.521,3.287,9.887,9.887,0,0,1-.629,3.575,8.319,8.319,0,0,1-4.634,4.76,9.384,9.384,0,0,1-3.646.682" transform="translate(-11.893 -120.193)"/>
        <path id="Path_33383" data-name="Path 33383" class="cls-7" d="M382.9,138h32.333a7.9,7.9,0,1,1,0,15.807H382.9a7.9,7.9,0,0,1,0-15.807" transform="translate(-105.556 -38.844)"/>
        <path id="Path_33384" data-name="Path 33384" class="cls-7" d="M382.9,338h32.333a7.9,7.9,0,1,1,0,15.807H382.9a7.9,7.9,0,0,1,0-15.807" transform="translate(-105.556 -95.141)"/>
        <path id="Path_33385" data-name="Path 33385" class="cls-5" d="M398.54,151v-.625c.32-.254.627-.507.92-.762a10.89,10.89,0,0,0,.79-.754,3.768,3.768,0,0,0,.553-.733,1.417,1.417,0,0,0,.2-.69,1.025,1.025,0,0,0-.079-.4.682.682,0,0,0-.248-.3.784.784,0,0,0-.449-.115.842.842,0,0,0-.463.122.749.749,0,0,0-.284.327,1.1,1.1,0,0,0-.093.463h-.833a1.818,1.818,0,0,1,.237-.913,1.406,1.406,0,0,1,.6-.55,1.946,1.946,0,0,1,.855-.183,1.87,1.87,0,0,1,.869.187,1.331,1.331,0,0,1,.553.525,1.576,1.576,0,0,1,.194.8,1.848,1.848,0,0,1-.126.665,2.744,2.744,0,0,1-.348.632,5.426,5.426,0,0,1-.5.589q-.277.283-.571.539t-.568.471H402V151Z" transform="translate(-112.182 -41.063)"/>
        <path id="Path_33386" data-name="Path 33386" class="cls-5" d="M406.231,151.116a2.114,2.114,0,0,1-.93-.19,1.522,1.522,0,0,1-.614-.525,1.648,1.648,0,0,1-.266-.758h.841a.9.9,0,0,0,.323.528.985.985,0,0,0,.647.211.88.88,0,0,0,.5-.139.952.952,0,0,0,.327-.381,1.213,1.213,0,0,0,.119-.542,1.159,1.159,0,0,0-.119-.539.866.866,0,0,0-.327-.356.918.918,0,0,0-.481-.126,1.044,1.044,0,0,0-.578.154.913.913,0,0,0-.349.384h-.833l.417-2.838h2.773v.754h-2.127l-.23,1.243a1.234,1.234,0,0,1,.438-.295,1.611,1.611,0,0,1,.625-.115,1.64,1.64,0,0,1,.7.14,1.522,1.522,0,0,1,.51.377,1.587,1.587,0,0,1,.313.55,2.058,2.058,0,0,1,.1.657,1.97,1.97,0,0,1-.126.715,1.663,1.663,0,0,1-.927.952,1.871,1.871,0,0,1-.729.137" transform="translate(-113.837 -41.096)"/>
        <path id="Path_33387" data-name="Path 33387" class="cls-5" d="M411.591,148.412a1.27,1.27,0,0,1-.622-.152,1.1,1.1,0,0,1-.438-.438,1.359,1.359,0,0,1-.162-.677,1.331,1.331,0,0,1,.162-.67,1.107,1.107,0,0,1,.442-.436,1.3,1.3,0,0,1,.618-.151,1.271,1.271,0,0,1,.618.151,1.122,1.122,0,0,1,.435.436,1.331,1.331,0,0,1,.162.67,1.359,1.359,0,0,1-.162.677,1.112,1.112,0,0,1-.435.438,1.248,1.248,0,0,1-.618.152m-.007-.6a.51.51,0,0,0,.273-.075.517.517,0,0,0,.19-.223.861.861,0,0,0,.068-.364.888.888,0,0,0-.068-.366.486.486,0,0,0-.456-.3.518.518,0,0,0-.269.075.511.511,0,0,0-.2.226.842.842,0,0,0-.072.366.817.817,0,0,0,.072.364.534.534,0,0,0,.194.223.5.5,0,0,0,.266.075m-.266,3.19,2.853-5.03h.848L412.166,151Zm3.47.087a1.24,1.24,0,0,1-.614-.155,1.153,1.153,0,0,1-.442-.438,1.319,1.319,0,0,1-.165-.672,1.305,1.305,0,0,1,.165-.675,1.158,1.158,0,0,1,.442-.435,1.308,1.308,0,0,1,1.236,0,1.151,1.151,0,0,1,.431.435,1.326,1.326,0,0,1,.162.675,1.34,1.34,0,0,1-.162.672,1.141,1.141,0,0,1-.435.438,1.235,1.235,0,0,1-.618.155m-.007-.6a.508.508,0,0,0,.273-.075.529.529,0,0,0,.194-.223.965.965,0,0,0,0-.731.539.539,0,0,0-.19-.218.508.508,0,0,0-.535,0,.526.526,0,0,0-.194.218.964.964,0,0,0,0,.731.536.536,0,0,0,.19.223.479.479,0,0,0,.262.075" transform="translate(-115.512 -41.065)"/>
        <path id="Path_33388" data-name="Path 33388" class="cls-5" d="M398.54,351v-.625c.32-.254.627-.507.92-.762a10.88,10.88,0,0,0,.79-.754,3.767,3.767,0,0,0,.553-.733,1.417,1.417,0,0,0,.2-.69,1.025,1.025,0,0,0-.079-.4.682.682,0,0,0-.248-.3.784.784,0,0,0-.449-.115.842.842,0,0,0-.463.122.749.749,0,0,0-.284.327,1.1,1.1,0,0,0-.093.463h-.833a1.818,1.818,0,0,1,.237-.913,1.406,1.406,0,0,1,.6-.55,1.946,1.946,0,0,1,.855-.183,1.869,1.869,0,0,1,.869.187,1.331,1.331,0,0,1,.553.525,1.576,1.576,0,0,1,.194.8,1.848,1.848,0,0,1-.126.665,2.744,2.744,0,0,1-.348.632,5.425,5.425,0,0,1-.5.589q-.277.283-.571.539t-.568.471H402V351Z" transform="translate(-112.182 -97.359)"/>
        <path id="Path_33389" data-name="Path 33389" class="cls-5" d="M406.231,351.116a2.114,2.114,0,0,1-.93-.19,1.523,1.523,0,0,1-.614-.525,1.648,1.648,0,0,1-.266-.758h.841a.9.9,0,0,0,.323.528.985.985,0,0,0,.647.211.88.88,0,0,0,.5-.139.952.952,0,0,0,.327-.381,1.213,1.213,0,0,0,.119-.542,1.16,1.16,0,0,0-.119-.539.866.866,0,0,0-.327-.356.918.918,0,0,0-.481-.126,1.044,1.044,0,0,0-.578.154.913.913,0,0,0-.349.384h-.833l.417-2.838h2.773v.754h-2.127l-.23,1.243a1.234,1.234,0,0,1,.438-.295,1.611,1.611,0,0,1,.625-.115,1.64,1.64,0,0,1,.7.14,1.522,1.522,0,0,1,.51.377,1.587,1.587,0,0,1,.313.55,2.059,2.059,0,0,1,.1.657,1.97,1.97,0,0,1-.126.715,1.663,1.663,0,0,1-.927.952,1.871,1.871,0,0,1-.729.137" transform="translate(-113.837 -97.393)"/>
        <path id="Path_33390" data-name="Path 33390" class="cls-5" d="M411.591,348.413a1.277,1.277,0,0,1-.622-.151,1.1,1.1,0,0,1-.438-.438,1.356,1.356,0,0,1-.162-.676,1.333,1.333,0,0,1,.162-.671,1.105,1.105,0,0,1,.442-.435,1.291,1.291,0,0,1,.618-.151,1.263,1.263,0,0,1,.618.151,1.121,1.121,0,0,1,.435.435,1.333,1.333,0,0,1,.162.671,1.356,1.356,0,0,1-.162.676,1.114,1.114,0,0,1-.435.438,1.255,1.255,0,0,1-.618.151m-.007-.6a.49.49,0,0,0,.463-.3.858.858,0,0,0,.068-.363.886.886,0,0,0-.068-.366.488.488,0,0,0-.456-.3.512.512,0,0,0-.269.075.507.507,0,0,0-.2.226.84.84,0,0,0-.072.366.814.814,0,0,0,.072.363.525.525,0,0,0,.194.223.5.5,0,0,0,.266.075M411.318,351l2.853-5.03h.848L412.166,351Zm3.47.086a1.24,1.24,0,0,1-.614-.154,1.16,1.16,0,0,1-.442-.438,1.455,1.455,0,0,1,0-1.347,1.161,1.161,0,0,1,.442-.435,1.308,1.308,0,0,1,1.236,0,1.154,1.154,0,0,1,.431.435,1.484,1.484,0,0,1,0,1.347,1.148,1.148,0,0,1-.435.438,1.234,1.234,0,0,1-.618.154m-.007-.6a.509.509,0,0,0,.273-.075.525.525,0,0,0,.194-.223.963.963,0,0,0,0-.73.541.541,0,0,0-.19-.218.512.512,0,0,0-.535,0,.528.528,0,0,0-.194.218.962.962,0,0,0,0,.73.532.532,0,0,0,.19.223.479.479,0,0,0,.262.075" transform="translate(-115.512 -97.362)"/>
        <path id="Path_33391" data-name="Path 33391" class="cls-8" d="M358.145,178.109s-7.437-3.2-11.228,0-15.21,8.288-34.822,4.39-18.327,11.476-34.273,13.643-21.5,12.076-31.845,15.4-19.744-4.561-29.574-7.127-18.835,4.357-23.916,8.378-10.324,5.438-25.009,1.823a25.954,25.954,0,0,0-24.106,6.276v27.735H358.145Z" transform="translate(-40.357 -49.734)"/>
        <path id="Path_33392" data-name="Path 33392" class="cls-9" d="M143.231,221.109a.359.359,0,0,1-.246-.621,26.2,26.2,0,0,1,24.44-6.363c14.493,3.569,19.688,2.209,24.7-1.757,4.555-3.6,14.031-11.1,24.229-8.443a64.3,64.3,0,0,1,9.448,3.593c6.408,2.827,13.034,5.749,19.925,3.539,4.07-1.306,7.409-3.659,10.944-6.151,5.288-3.726,11.281-7.95,20.964-9.266,6.747-.917,10.358-4.239,13.851-7.45,4.723-4.343,9.183-8.447,20.54-6.189,23.136,4.6,33.424-3.387,34.521-4.313,3.916-3.3,11.29-.189,11.6-.055a.359.359,0,0,1-.284.66c-.073-.032-7.279-3.074-10.855-.055-1.124.948-11.658,9.131-35.124,4.468-11-2.185-15.33,1.8-19.914,6.013-3.574,3.287-7.27,6.687-14.241,7.634-9.509,1.293-15.17,5.283-20.646,9.141-3.581,2.524-6.964,4.908-11.138,6.248-7.151,2.3-13.9-.684-20.435-3.566a63.605,63.605,0,0,0-9.339-3.555c-9.852-2.571-19.139,4.779-23.6,8.312-5.193,4.11-10.533,5.53-25.318,1.89a25.486,25.486,0,0,0-23.774,6.189.359.359,0,0,1-.246.1" transform="translate(-40.216 -49.59)"/>
        <path id="Path_33393" data-name="Path 33393" class="cls-9" d="M159.056,226.841a1.452,1.452,0,1,1-1.452,1.452,1.452,1.452,0,0,1,1.452-1.452" transform="translate(-44.363 -63.852)"/>
        <path id="Path_33394" data-name="Path 33394" class="cls-9" d="M203.52,229.535a1.452,1.452,0,1,1-1.452,1.452,1.452,1.452,0,0,1,1.452-1.452" transform="translate(-56.878 -64.61)"/>
        <path id="Path_33395" data-name="Path 33395" class="cls-9" d="M247.983,214.715a1.452,1.452,0,1,1-1.452,1.452,1.452,1.452,0,0,1,1.452-1.452" transform="translate(-69.394 -60.438)"/>
        <path id="Path_33396" data-name="Path 33396" class="cls-9" d="M292.447,220.1a1.452,1.452,0,1,1-1.452,1.452,1.452,1.452,0,0,1,1.452-1.452" transform="translate(-81.91 -61.955)"/>
        <path id="Path_33397" data-name="Path 33397" class="cls-9" d="M336.911,199.894a1.452,1.452,0,1,1-1.452,1.452,1.452,1.452,0,0,1,1.452-1.452" transform="translate(-94.425 -56.266)"/>
        <path id="Path_33398" data-name="Path 33398" class="cls-9" d="M381.374,183.725a1.452,1.452,0,1,1-1.452,1.452,1.452,1.452,0,0,1,1.452-1.452" transform="translate(-106.941 -51.715)"/>
        <path id="Path_33399" data-name="Path 33399" class="cls-9" d="M425.838,176.988a1.452,1.452,0,1,1-1.452,1.452,1.452,1.452,0,0,1,1.452-1.452" transform="translate(-119.457 -49.819)"/>
        <path id="Path_33400" data-name="Path 33400" class="cls-10" d="M203.874,145h65.385a2.874,2.874,0,1,1,0,5.748H203.874a2.874,2.874,0,1,1,0-5.748" transform="translate(-56.578 -40.815)"/>
        <path id="Path_33401" data-name="Path 33401" class="cls-10" d="M229.874,345h65.385a2.874,2.874,0,1,1,0,5.748H229.874a2.874,2.874,0,1,1,0-5.748" transform="translate(-63.896 -97.111)"/>
        <path id="Path_33402" data-name="Path 33402" class="cls-11" d="M87.778,232A10.778,10.778,0,1,1,77,242.778,10.778,10.778,0,0,1,87.778,232" transform="translate(-21.674 -65.304)"/>
        <path id="Path_33403" data-name="Path 33403" class="cls-11" d="M87.778,432A10.778,10.778,0,1,1,77,442.778,10.778,10.778,0,0,1,87.778,432" transform="translate(-21.674 -121.6)"/>
        <path id="Path_33404" data-name="Path 33404" class="cls-7" d="M91.055,240.765l2.874,2.874a.575.575,0,1,1-.811.815l-1.9-1.894v6.664a.575.575,0,0,1-1.15,0V242.56l-1.892,1.894a.575.575,0,0,1-.813-.813l2.874-2.874a.574.574,0,0,1,.813,0h0Z" transform="translate(-24.544 -67.724)"/>
        <path id="Path_33405" data-name="Path 33405" class="cls-7" d="M91.055,440.765l2.874,2.874a.575.575,0,1,1-.811.815l-1.9-1.894v6.664a.575.575,0,0,1-1.15,0V442.56l-1.892,1.894a.575.575,0,0,1-.813-.813l2.874-2.874a.574.574,0,0,1,.813,0h0Z" transform="translate(-24.544 -124.02)"/>
        <path id="Path_33406" data-name="Path 33406" class="cls-12" d="M271.8,387h0a1.8,1.8,0,0,1,1.8,1.8v62.87H270V388.8a1.8,1.8,0,0,1,1.8-1.8" transform="translate(-76 -108.933)"/>
        <path id="Path_33407" data-name="Path 33407" class="cls-12" d="M243.8,404h0a1.8,1.8,0,0,1,1.8,1.8v50.656H242V405.8a1.8,1.8,0,0,1,1.8-1.8" transform="translate(-68.118 -113.719)"/>
        <path id="Path_33408" data-name="Path 33408" class="cls-12" d="M215.8,413h0a1.8,1.8,0,0,1,1.8,1.8v44.189H214V414.8a1.8,1.8,0,0,1,1.8-1.8" transform="translate(-60.237 -116.252)"/>
        <path id="Path_33409" data-name="Path 33409" class="cls-12" d="M300.105,462h0a1.8,1.8,0,0,1,1.827,1.766l.152,8.982-3.593.062-.152-8.981A1.8,1.8,0,0,1,300.105,462" transform="translate(-83.977 -130.044)"/>
        <path id="Path_33410" data-name="Path 33410" class="cls-12" d="M327.8,404h0a1.8,1.8,0,0,1,1.8,1.8v50.656H326V405.8a1.8,1.8,0,0,1,1.8-1.8" transform="translate(-91.763 -113.719)"/>
        <path id="Path_33411" data-name="Path 33411" class="cls-12" d="M355.8,413h0a1.8,1.8,0,0,1,1.8,1.8v44.189H354V414.8a1.8,1.8,0,0,1,1.8-1.8" transform="translate(-99.644 -116.252)"/>
        <path id="Path_33412" data-name="Path 33412" class="cls-12" d="M383.8,398h0a1.8,1.8,0,0,1,1.8,1.8v54.967H382V399.8a1.8,1.8,0,0,1,1.8-1.8" transform="translate(-107.526 -112.03)"/>
        <path id="Path_33413" data-name="Path 33413" class="cls-12" d="M411.8,432h0a1.8,1.8,0,0,1,1.8,1.8v30.537H410V433.8a1.8,1.8,0,0,1,1.8-1.8" transform="translate(-115.407 -121.6)"/>
        <path id="Path_33414" data-name="Path 33414" class="cls-12" d="M285.8,395h0a1.8,1.8,0,0,1,1.8,1.8v57.122H284V396.8a1.8,1.8,0,0,1,1.8-1.8" transform="translate(-79.941 -111.185)"/>
        <path id="Path_33415" data-name="Path 33415" class="cls-12" d="M257.8,419h0a1.8,1.8,0,0,1,1.8,1.8v39.878H256V420.8a1.8,1.8,0,0,1,1.8-1.8" transform="translate(-72.059 -117.941)"/>
        <path id="Path_33416" data-name="Path 33416" class="cls-12" d="M229.8,436h0a1.8,1.8,0,0,1,1.8,1.8v27.663H228V437.8a1.8,1.8,0,0,1,1.8-1.8" transform="translate(-64.178 -122.726)"/>
        <path id="Path_33417" data-name="Path 33417" class="cls-12" d="M313.8,442h0a1.8,1.8,0,0,1,1.8,1.8v23.352H312V443.8a1.8,1.8,0,0,1,1.8-1.8" transform="translate(-87.822 -124.415)"/>
        <path id="Path_33418" data-name="Path 33418" class="cls-12" d="M341.8,423h0a1.8,1.8,0,0,1,1.8,1.8v37H340v-37a1.8,1.8,0,0,1,1.8-1.8" transform="translate(-95.704 -119.067)"/>
        <path id="Path_33419" data-name="Path 33419" class="cls-12" d="M369.8,436h0a1.8,1.8,0,0,1,1.8,1.8v27.663H368V437.8a1.8,1.8,0,0,1,1.8-1.8" transform="translate(-103.585 -122.726)"/>
        <path id="Path_33420" data-name="Path 33420" class="cls-12" d="M397.8,454h0a1.8,1.8,0,0,1,1.8,1.8v14.73H396V455.8a1.8,1.8,0,0,1,1.8-1.8" transform="translate(-111.467 -127.793)"/>
        <path id="Path_33421" data-name="Path 33421" class="cls-12" d="M425.8,410h0a1.8,1.8,0,0,1,1.8,1.8v46.344H424V411.8a1.8,1.8,0,0,1,1.8-1.8" transform="translate(-119.348 -115.407)"/>
        <g class="cls-13" transform="matrix(1, 0, 0, 1, -68, -76)">
          <path id="Path_33422-2" data-name="Path 33422" class="cls-5" d="M312.778,245H413.37a10.778,10.778,0,0,1,10.778,10.778v32.333a10.778,10.778,0,0,1-10.778,10.778H312.778A10.778,10.778,0,0,1,302,288.111V255.778A10.778,10.778,0,0,1,312.778,245" transform="translate(-17.01 7.04)"/>
        </g>
        <path id="Path_33423" data-name="Path 33423" d="M325.847,274.014a5.468,5.468,0,0,1-2.27-.458,3.693,3.693,0,0,1-1.616-1.373,4.3,4.3,0,0,1-.635-2.279h1.588a2.941,2.941,0,0,0,.364,1.373,2.565,2.565,0,0,0,1,1,3.1,3.1,0,0,0,1.569.374,3.033,3.033,0,0,0,1.532-.356,2.384,2.384,0,0,0,.934-.943,2.727,2.727,0,0,0,.318-1.317,2.367,2.367,0,0,0-.439-1.485,2.621,2.621,0,0,0-1.177-.85,4.5,4.5,0,0,0-1.616-.281h-.971v-1.326h.971a3.127,3.127,0,0,0,2.018-.589,2.151,2.151,0,0,0,.159-3.072,2.329,2.329,0,0,0-1.728-.58,2.414,2.414,0,0,0-1.756.635,2.517,2.517,0,0,0-.747,1.626h-1.588a3.816,3.816,0,0,1,.579-1.887,3.573,3.573,0,0,1,1.42-1.28,5.192,5.192,0,0,1,4.241-.009,3.149,3.149,0,0,1,1.3,1.2,3.188,3.188,0,0,1,.439,1.644,3.3,3.3,0,0,1-.243,1.251,2.893,2.893,0,0,1-.729,1.046,2.637,2.637,0,0,1-1.233.617,3.733,3.733,0,0,1,1.373.6,3.069,3.069,0,0,1,.962,1.12,3.52,3.52,0,0,1,.355,1.626,4.045,4.045,0,0,1-.5,1.97,3.7,3.7,0,0,1-1.467,1.457,4.829,4.829,0,0,1-2.41.551" transform="translate(-90.447 -73.323)"/>
        <path id="Path_33424" data-name="Path 33424" d="M342.959,273.877v-2.8h-6.632v-1.214l6.352-9.061h1.83v8.892h1.943v1.382h-1.943v2.8Zm-4.894-4.185h4.969v-7.155Z" transform="translate(-94.67 -73.41)"/>
        <path id="Path_33425" data-name="Path 33425" d="M353.323,278.3a1.05,1.05,0,0,1-.775-.308,1.083,1.083,0,0,1,0-1.513,1.05,1.05,0,0,1,.775-.308,1.02,1.02,0,0,1,.766.308,1.107,1.107,0,0,1,0,1.513,1.02,1.02,0,0,1-.766.308" transform="translate(-99.149 -77.736)"/>
        <path id="Path_33426" data-name="Path 33426" d="M357.959,273.789v-1.1q1.326-1.047,2.531-2.111a24.614,24.614,0,0,0,2.139-2.12,10.665,10.665,0,0,0,1.466-2.064,4.16,4.16,0,0,0,.532-1.943,3.328,3.328,0,0,0-.243-1.28,2.169,2.169,0,0,0-.775-.962,2.443,2.443,0,0,0-1.429-.374,2.589,2.589,0,0,0-1.457.383,2.392,2.392,0,0,0-.869,1.009,3.228,3.228,0,0,0-.29,1.373h-1.513a4.5,4.5,0,0,1,.551-2.214,3.554,3.554,0,0,1,1.466-1.41,4.553,4.553,0,0,1,2.13-.486,4.663,4.663,0,0,1,2.074.439,3.308,3.308,0,0,1,1.41,1.3,4.163,4.163,0,0,1,.514,2.167,4.716,4.716,0,0,1-.383,1.831,8.749,8.749,0,0,1-1.018,1.784,16.116,16.116,0,0,1-1.41,1.672q-.776.8-1.588,1.513t-1.523,1.289h6.37v1.308Z" transform="translate(-100.759 -73.323)"/>
        <path id="Path_33427" data-name="Path 33427" d="M375.326,266.791a3.006,3.006,0,0,1-1.513-.383,2.836,2.836,0,0,1-1.074-1.093,3.662,3.662,0,0,1,0-3.335,2.828,2.828,0,0,1,1.084-1.084,3.058,3.058,0,0,1,1.523-.383,3.006,3.006,0,0,1,1.513.383,2.782,2.782,0,0,1,1.065,1.084,3.739,3.739,0,0,1,0,3.335,2.749,2.749,0,0,1-1.074,1.093,3.058,3.058,0,0,1-1.523.383m0-1.215a1.615,1.615,0,0,0,.822-.214,1.546,1.546,0,0,0,.6-.645,2.281,2.281,0,0,0,.224-1.065,2.387,2.387,0,0,0-.224-1.093,1.534,1.534,0,0,0-.6-.654,1.589,1.589,0,0,0-.8-.215,1.69,1.69,0,0,0-.822.215,1.553,1.553,0,0,0-.626.654,2.3,2.3,0,0,0-.233,1.093,2.2,2.2,0,0,0,.233,1.065,1.586,1.586,0,0,0,.616.645,1.629,1.629,0,0,0,.813.214M374.28,273.8l7.6-13.077h1.569l-7.6,13.077Zm8.239.223a3.005,3.005,0,0,1-1.513-.382,2.826,2.826,0,0,1-1.074-1.093,3.661,3.661,0,0,1,0-3.335,2.85,2.85,0,0,1,1.074-1.084,3.2,3.2,0,0,1,3.036,0,2.809,2.809,0,0,1,1.055,1.084,3.739,3.739,0,0,1,0,3.335,2.765,2.765,0,0,1-1.065,1.093,3.005,3.005,0,0,1-1.513.382m-.019-1.214a1.623,1.623,0,0,0,.822-.215,1.6,1.6,0,0,0,.607-.645,2.206,2.206,0,0,0,.234-1.065,2.337,2.337,0,0,0-.224-1.084,1.54,1.54,0,0,0-.6-.644,1.662,1.662,0,0,0-1.635,0,1.58,1.58,0,0,0-.616.644,2.256,2.256,0,0,0-.234,1.084,2.206,2.206,0,0,0,.234,1.065,1.57,1.57,0,0,0,1.41.859" transform="translate(-104.806 -73.33)"/>
        <path id="Path_33428" data-name="Path 33428" class="cls-10" d="M321.437,306H389.7a1.437,1.437,0,0,1,0,2.874H321.437a1.437,1.437,0,1,1,0-2.874" transform="translate(-90.074 -86.133)"/>
        <path id="Path_33429" data-name="Path 33429" class="cls-6" d="M322.932,295.082a2.479,2.479,0,0,1-1.283-.327,2.3,2.3,0,0,1-.873-.913,3.073,3.073,0,0,1,0-2.715,2.321,2.321,0,0,1,.873-.916,2.46,2.46,0,0,1,1.283-.331,2.511,2.511,0,0,1,1.3.331,2.268,2.268,0,0,1,.869.916,3.137,3.137,0,0,1,0,2.715,2.252,2.252,0,0,1-.869.913,2.53,2.53,0,0,1-1.3.327m.007-.776a1.587,1.587,0,0,0,.841-.219,1.438,1.438,0,0,0,.553-.629,2.558,2.558,0,0,0,0-1.954,1.439,1.439,0,0,0-.553-.629,1.722,1.722,0,0,0-1.681,0,1.46,1.46,0,0,0-.557.629,2.515,2.515,0,0,0,0,1.954,1.459,1.459,0,0,0,.557.629,1.583,1.583,0,0,0,.841.219" transform="translate(-90.204 -81.596)"/>
        <path id="Path_33430" data-name="Path 33430" class="cls-6" d="M330.149,295.634a1.883,1.883,0,0,1-.952-.241,1.686,1.686,0,0,1-.654-.668,2,2,0,0,1-.234-.974,2.043,2.043,0,0,1,.234-1,1.709,1.709,0,0,1,.654-.672,1.871,1.871,0,0,1,.959-.244,1.8,1.8,0,0,1,1.135.356,1.6,1.6,0,0,1,.589.974h-.905a.736.736,0,0,0-.3-.431.911.911,0,0,0-.535-.158.9.9,0,0,0-.485.136.933.933,0,0,0-.345.4,1.414,1.414,0,0,0-.126.625,1.559,1.559,0,0,0,.072.5,1.009,1.009,0,0,0,.2.363.932.932,0,0,0,.305.226.889.889,0,0,0,.374.078,1.006,1.006,0,0,0,.377-.068.752.752,0,0,0,.287-.2.8.8,0,0,0,.169-.324h.905a1.622,1.622,0,0,1-.589.967,1.787,1.787,0,0,1-1.142.363" transform="translate(-92.413 -82.148)"/>
        <path id="Path_33431" data-name="Path 33431" class="cls-6" d="M336.109,295.634a1.882,1.882,0,0,1-.952-.241,1.686,1.686,0,0,1-.654-.668,2,2,0,0,1-.234-.974,2.043,2.043,0,0,1,.234-1,1.709,1.709,0,0,1,.654-.672,1.871,1.871,0,0,1,.959-.244,1.8,1.8,0,0,1,1.135.356,1.6,1.6,0,0,1,.589.974h-.905a.736.736,0,0,0-.3-.431.961.961,0,0,0-1.02-.022.933.933,0,0,0-.345.4,1.414,1.414,0,0,0-.126.625,1.559,1.559,0,0,0,.072.5,1.009,1.009,0,0,0,.2.363.932.932,0,0,0,.305.226.889.889,0,0,0,.374.078,1.006,1.006,0,0,0,.377-.068.752.752,0,0,0,.287-.2.8.8,0,0,0,.169-.324h.905a1.622,1.622,0,0,1-.589.967,1.787,1.787,0,0,1-1.142.363" transform="translate(-94.091 -82.148)"/>
        <path id="Path_33432" data-name="Path 33432" class="cls-6" d="M341.724,295.668a1.509,1.509,0,0,1-.751-.176,1.139,1.139,0,0,1-.478-.532,2.09,2.09,0,0,1-.165-.88v-2.12h.862v2.033a1.093,1.093,0,0,0,.2.708.732.732,0,0,0,.6.241.883.883,0,0,0,.463-.122.847.847,0,0,0,.323-.356,1.251,1.251,0,0,0,.119-.571V291.96h.862v3.621H343l-.065-.6a1.261,1.261,0,0,1-.478.5,1.4,1.4,0,0,1-.729.187" transform="translate(-95.797 -82.181)"/>
        <path id="Path_33433" data-name="Path 33433" class="cls-6" d="M346.439,297.128v-5.2h.769l.093.525a1.788,1.788,0,0,1,.277-.3,1.258,1.258,0,0,1,.4-.226,1.54,1.54,0,0,1,.535-.086,1.632,1.632,0,0,1,.9.252,1.753,1.753,0,0,1,.614.679,2.071,2.071,0,0,1,.223.974,2.049,2.049,0,0,1-.226.974,1.723,1.723,0,0,1-.618.672,1.652,1.652,0,0,1-.895.244,1.569,1.569,0,0,1-.715-.154,1.251,1.251,0,0,1-.492-.442v2.091Zm1.89-2.242a1.014,1.014,0,0,0,.539-.144.988.988,0,0,0,.37-.4,1.28,1.28,0,0,0,.133-.6,1.3,1.3,0,0,0-.133-.6.988.988,0,0,0-.37-.4,1.089,1.089,0,0,0-1.081,0,1,1,0,0,0-.366.4,1.413,1.413,0,0,0,0,1.2,1.023,1.023,0,0,0,.366.4.993.993,0,0,0,.542.147" transform="translate(-97.516 -82.148)"/>
        <path id="Path_33434" data-name="Path 33434" class="cls-6" d="M354.061,295.634a1.613,1.613,0,0,1-.74-.151,1.023,1.023,0,0,1-.438-.4,1.084,1.084,0,0,1-.144-.546,1.015,1.015,0,0,1,.176-.6,1.132,1.132,0,0,1,.521-.392,2.258,2.258,0,0,1,.848-.14h.913a1.252,1.252,0,0,0-.079-.477.566.566,0,0,0-.244-.285.852.852,0,0,0-.424-.093.918.918,0,0,0-.5.133.579.579,0,0,0-.259.406h-.848a1.29,1.29,0,0,1,.259-.665,1.432,1.432,0,0,1,.571-.431,1.939,1.939,0,0,1,.78-.154,1.966,1.966,0,0,1,.869.176,1.262,1.262,0,0,1,.55.5,1.543,1.543,0,0,1,.19.787v2.242h-.733l-.086-.581a1.214,1.214,0,0,1-.183.265,1.181,1.181,0,0,1-.582.352,1.553,1.553,0,0,1-.413.05m.194-.683a.878.878,0,0,0,.37-.075.827.827,0,0,0,.28-.216,1.052,1.052,0,0,0,.183-.313,1.517,1.517,0,0,0,.086-.366v-.014h-.8a1.153,1.153,0,0,0-.417.065.476.476,0,0,0-.237.176.471.471,0,0,0-.072.262.432.432,0,0,0,.28.424.82.82,0,0,0,.323.057" transform="translate(-99.289 -82.148)"/>
        <path id="Path_33435" data-name="Path 33435" class="cls-6" d="M358.639,295.548v-3.621h.762l.065.6a1.257,1.257,0,0,1,.474-.5,1.393,1.393,0,0,1,.733-.187,1.44,1.44,0,0,1,.747.183,1.216,1.216,0,0,1,.478.535,2.028,2.028,0,0,1,.169.877v2.112H361.2v-2.033a1.069,1.069,0,0,0-.2-.7.728.728,0,0,0-.6-.244.89.89,0,0,0-.463.122.856.856,0,0,0-.323.356,1.237,1.237,0,0,0-.119.564v1.933Z" transform="translate(-100.95 -82.148)"/>
        <path id="Path_33436" data-name="Path 33436" class="cls-6" d="M366.348,295.634a1.883,1.883,0,0,1-.952-.241,1.686,1.686,0,0,1-.654-.668,2,2,0,0,1-.234-.974,2.043,2.043,0,0,1,.234-1,1.709,1.709,0,0,1,.654-.672,1.872,1.872,0,0,1,.959-.244,1.8,1.8,0,0,1,1.135.356,1.6,1.6,0,0,1,.589.974h-.905a.736.736,0,0,0-.3-.431.96.96,0,0,0-1.02-.022.933.933,0,0,0-.345.4,1.414,1.414,0,0,0-.126.625,1.559,1.559,0,0,0,.072.5,1.009,1.009,0,0,0,.2.363.932.932,0,0,0,.305.226.889.889,0,0,0,.374.078,1.006,1.006,0,0,0,.377-.068.752.752,0,0,0,.287-.2.8.8,0,0,0,.169-.324h.905a1.622,1.622,0,0,1-.589.967,1.787,1.787,0,0,1-1.142.363" transform="translate(-102.603 -82.148)"/>
        <path id="Path_33437" data-name="Path 33437" class="cls-6" d="M370.945,297.162l.884-1.983h-.216l-1.444-3.219h.941l1.078,2.457,1.02-2.457h.913l-2.263,5.2Z" transform="translate(-104.196 -82.181)"/>
        <path id="Path_33438" data-name="Path 33438" class="cls-6" d="M378.979,295.548v-3.621h.769l.079.675a1.461,1.461,0,0,1,.323-.406,1.412,1.412,0,0,1,.456-.262,1.726,1.726,0,0,1,.578-.093v.913h-.3a1.524,1.524,0,0,0-.41.054.87.87,0,0,0-.334.172.779.779,0,0,0-.219.323,1.445,1.445,0,0,0-.079.514v1.732Z" transform="translate(-106.676 -82.148)"/>
        <path id="Path_33439" data-name="Path 33439" class="cls-6" d="M384.111,295.634a1.613,1.613,0,0,1-.74-.151,1.023,1.023,0,0,1-.438-.4,1.084,1.084,0,0,1-.144-.546,1.015,1.015,0,0,1,.176-.6,1.132,1.132,0,0,1,.521-.392,2.258,2.258,0,0,1,.848-.14h.913a1.252,1.252,0,0,0-.079-.477.566.566,0,0,0-.244-.285.852.852,0,0,0-.424-.093.918.918,0,0,0-.5.133.579.579,0,0,0-.259.406h-.848a1.289,1.289,0,0,1,.259-.665,1.432,1.432,0,0,1,.571-.431,1.939,1.939,0,0,1,.78-.154,1.966,1.966,0,0,1,.869.176,1.262,1.262,0,0,1,.55.5,1.543,1.543,0,0,1,.19.787v2.242h-.733l-.086-.581a1.216,1.216,0,0,1-.183.265,1.181,1.181,0,0,1-.582.352,1.553,1.553,0,0,1-.413.05m.194-.683a.877.877,0,0,0,.37-.075.827.827,0,0,0,.28-.216,1.052,1.052,0,0,0,.183-.313,1.517,1.517,0,0,0,.086-.366v-.014h-.8a1.152,1.152,0,0,0-.417.065.476.476,0,0,0-.237.176.471.471,0,0,0-.072.262.432.432,0,0,0,.28.424.82.82,0,0,0,.323.057" transform="translate(-107.748 -82.148)"/>
        <path id="Path_33440" data-name="Path 33440" class="cls-6" d="M390.084,295.207a1.621,1.621,0,0,1-.636-.115.864.864,0,0,1-.42-.381,1.458,1.458,0,0,1-.151-.719v-1.681h-.618v-.726h.618l.1-.956h.762v.956h.984v.726h-.984v1.681a.488.488,0,0,0,.119.377.6.6,0,0,0,.4.1h.445v.733Z" transform="translate(-109.288 -81.807)"/>
        <path id="Path_33441" data-name="Path 33441" class="cls-6" d="M394.337,295.634a1.879,1.879,0,0,1-.948-.233,1.642,1.642,0,0,1-.64-.657,2.023,2.023,0,0,1-.23-.978,2.129,2.129,0,0,1,.226-1.005,1.669,1.669,0,0,1,.639-.675,1.847,1.847,0,0,1,.959-.244,1.767,1.767,0,0,1,.927.237,1.632,1.632,0,0,1,.611.636,1.851,1.851,0,0,1,.216.895v.157a1.208,1.208,0,0,1-.014.18h-2.946v-.553h2.091a.835.835,0,0,0-.266-.621.9.9,0,0,0-.625-.226,1,1,0,0,0-.489.122.868.868,0,0,0-.352.363,1.275,1.275,0,0,0-.129.607v.208a1.254,1.254,0,0,0,.126.582.875.875,0,0,0,.345.37.976.976,0,0,0,.492.126.894.894,0,0,0,.5-.129.769.769,0,0,0,.291-.345H396a1.654,1.654,0,0,1-.331.607,1.612,1.612,0,0,1-.568.424,1.812,1.812,0,0,1-.762.154" transform="translate(-110.487 -82.148)"/>
      </g>
    </g>
  </g>
</svg>
