<svg width="480" height="540" viewBox="0 0 480 540" fill="none" xmlns="http://www.w3.org/2000/svg">
<path d="M85 76H396C405.389 76 413 83.6112 413 93V447C413 456.389 405.389 464 396 464H85C75.6111 464 68 456.389 68 447V93C68 83.6112 75.6111 76 85 76Z" fill="#F1F5F7"/>
<path d="M91.358 121.21C90.28 121.21 89.286 121.028 88.376 120.664C87.48 120.286 86.696 119.761 86.024 119.089C85.366 118.403 84.855 117.598 84.491 116.674C84.127 115.736 83.945 114.714 83.945 113.608C83.945 112.53 84.134 111.536 84.512 110.626C84.89 109.702 85.422 108.904 86.108 108.232C86.794 107.546 87.599 107.014 88.523 106.636C89.447 106.258 90.448 106.069 91.526 106.069C92.226 106.069 92.912 106.167 93.584 106.363C94.27 106.545 94.893 106.818 95.453 107.182C96.027 107.546 96.517 107.98 96.923 108.484L94.949 110.668C94.627 110.332 94.284 110.045 93.92 109.807C93.556 109.555 93.171 109.366 92.765 109.24C92.373 109.1 91.953 109.03 91.505 109.03C90.903 109.03 90.336 109.142 89.804 109.366C89.286 109.59 88.831 109.905 88.439 110.311C88.047 110.703 87.732 111.186 87.494 111.76C87.27 112.32 87.158 112.943 87.158 113.629C87.158 114.329 87.27 114.966 87.494 115.54C87.718 116.1 88.033 116.583 88.439 116.989C88.845 117.381 89.328 117.689 89.888 117.913C90.462 118.123 91.092 118.228 91.778 118.228C92.226 118.228 92.66 118.165 93.08 118.039C93.5 117.913 93.885 117.738 94.235 117.514C94.599 117.29 94.921 117.031 95.201 116.737L96.755 119.194C96.405 119.572 95.943 119.915 95.369 120.223C94.809 120.531 94.179 120.776 93.479 120.958C92.779 121.126 92.072 121.21 91.358 121.21ZM104.136 121.21C103.002 121.21 101.987 120.965 101.091 120.475C100.209 119.971 99.5085 119.285 98.9905 118.417C98.4865 117.549 98.2345 116.555 98.2345 115.435C98.2345 114.315 98.4865 113.321 98.9905 112.453C99.5085 111.585 100.209 110.906 101.091 110.416C101.987 109.912 103.002 109.66 104.136 109.66C105.256 109.66 106.257 109.912 107.139 110.416C108.035 110.906 108.735 111.585 109.239 112.453C109.743 113.321 109.995 114.315 109.995 115.435C109.995 116.555 109.743 117.549 109.239 118.417C108.735 119.285 108.035 119.971 107.139 120.475C106.257 120.965 105.256 121.21 104.136 121.21ZM104.136 118.606C104.682 118.606 105.172 118.473 105.606 118.207C106.04 117.927 106.376 117.549 106.614 117.073C106.866 116.583 106.985 116.037 106.971 115.435C106.985 114.819 106.866 114.273 106.614 113.797C106.376 113.307 106.04 112.929 105.606 112.663C105.172 112.383 104.682 112.243 104.136 112.243C103.576 112.243 103.079 112.383 102.645 112.663C102.211 112.943 101.868 113.321 101.616 113.797C101.364 114.273 101.245 114.819 101.259 115.435C101.245 116.037 101.364 116.583 101.616 117.073C101.868 117.549 102.211 117.927 102.645 118.207C103.079 118.473 103.576 118.606 104.136 118.606ZM112.259 121V109.891H115.115L115.199 112.159L114.611 112.411C114.765 111.907 115.038 111.452 115.43 111.046C115.836 110.626 116.319 110.29 116.879 110.038C117.439 109.786 118.027 109.66 118.643 109.66C119.483 109.66 120.183 109.828 120.743 110.164C121.317 110.5 121.744 111.011 122.024 111.697C122.318 112.369 122.465 113.202 122.465 114.196V121H119.483V114.427C119.483 113.923 119.413 113.503 119.273 113.167C119.133 112.831 118.916 112.586 118.622 112.432C118.342 112.278 117.992 112.208 117.572 112.222C117.236 112.222 116.921 112.278 116.627 112.39C116.347 112.488 116.102 112.635 115.892 112.831C115.696 113.027 115.535 113.251 115.409 113.503C115.297 113.755 115.241 114.028 115.241 114.322V121H113.771C113.449 121 113.162 121 112.91 121C112.658 121 112.441 121 112.259 121ZM126.393 121V107.077H129.375V121H126.393ZM124.314 112.558V109.891H131.664V112.558H124.314ZM133.587 121V109.891H136.464L136.569 113.461L136.065 112.726C136.233 112.152 136.506 111.634 136.884 111.172C137.262 110.696 137.703 110.325 138.207 110.059C138.725 109.793 139.264 109.66 139.824 109.66C140.062 109.66 140.293 109.681 140.517 109.723C140.741 109.765 140.93 109.814 141.084 109.87L140.286 113.146C140.132 113.062 139.929 112.992 139.677 112.936C139.439 112.866 139.194 112.831 138.942 112.831C138.606 112.831 138.291 112.894 137.997 113.02C137.717 113.132 137.472 113.3 137.262 113.524C137.052 113.734 136.884 113.986 136.758 114.28C136.646 114.574 136.59 114.896 136.59 115.246V121H133.587ZM146.481 121.21C145.557 121.21 144.724 120.958 143.982 120.454C143.24 119.95 142.652 119.264 142.218 118.396C141.784 117.528 141.567 116.534 141.567 115.414C141.567 114.294 141.784 113.3 142.218 112.432C142.666 111.564 143.268 110.885 144.024 110.395C144.78 109.905 145.641 109.66 146.607 109.66C147.153 109.66 147.65 109.744 148.098 109.912C148.56 110.066 148.959 110.283 149.295 110.563C149.645 110.843 149.939 111.165 150.177 111.529C150.415 111.893 150.583 112.285 150.681 112.705L150.051 112.6V109.891H153.012V121H150.009V118.333L150.681 118.27C150.569 118.662 150.387 119.033 150.135 119.383C149.883 119.733 149.568 120.048 149.19 120.328C148.826 120.594 148.413 120.811 147.951 120.979C147.489 121.133 146.999 121.21 146.481 121.21ZM147.3 118.627C147.86 118.627 148.35 118.494 148.77 118.228C149.19 117.962 149.512 117.591 149.736 117.115C149.974 116.625 150.093 116.058 150.093 115.414C150.093 114.784 149.974 114.231 149.736 113.755C149.512 113.279 149.19 112.908 148.77 112.642C148.35 112.362 147.86 112.222 147.3 112.222C146.754 112.222 146.271 112.362 145.851 112.642C145.445 112.908 145.123 113.279 144.885 113.755C144.647 114.231 144.528 114.784 144.528 115.414C144.528 116.058 144.647 116.625 144.885 117.115C145.123 117.591 145.445 117.962 145.851 118.228C146.271 118.494 146.754 118.627 147.3 118.627ZM160.832 121.21C159.768 121.21 158.816 120.958 157.976 120.454C157.136 119.95 156.471 119.264 155.981 118.396C155.505 117.528 155.267 116.541 155.267 115.435C155.267 114.329 155.505 113.342 155.981 112.474C156.471 111.606 157.136 110.92 157.976 110.416C158.816 109.912 159.768 109.66 160.832 109.66C161.826 109.66 162.736 109.842 163.562 110.206C164.388 110.57 165.032 111.074 165.494 111.718L163.856 113.692C163.66 113.426 163.415 113.188 163.121 112.978C162.827 112.754 162.505 112.579 162.155 112.453C161.819 112.327 161.469 112.264 161.105 112.264C160.531 112.264 160.02 112.404 159.572 112.684C159.138 112.95 158.795 113.321 158.543 113.797C158.291 114.273 158.165 114.819 158.165 115.435C158.165 116.023 158.291 116.555 158.543 117.031C158.809 117.507 159.166 117.885 159.614 118.165C160.062 118.445 160.566 118.585 161.126 118.585C161.49 118.585 161.833 118.536 162.155 118.438C162.477 118.34 162.778 118.186 163.058 117.976C163.352 117.766 163.618 117.514 163.856 117.22L165.473 119.194C165.011 119.796 164.353 120.286 163.499 120.664C162.659 121.028 161.77 121.21 160.832 121.21ZM168.455 121V107.077H171.437V121H168.455ZM166.376 112.558V109.891H173.726V112.558H166.376ZM182.13 121V118.291H184.587V109.009H182.13V106.3H190.194V109.009H187.737V118.291H190.194V121H182.13ZM193.223 121V109.891H196.079L196.163 112.159L195.575 112.411C195.729 111.907 196.002 111.452 196.394 111.046C196.8 110.626 197.283 110.29 197.843 110.038C198.403 109.786 198.991 109.66 199.607 109.66C200.447 109.66 201.147 109.828 201.707 110.164C202.281 110.5 202.708 111.011 202.988 111.697C203.282 112.369 203.429 113.202 203.429 114.196V121H200.447V114.427C200.447 113.923 200.377 113.503 200.237 113.167C200.097 112.831 199.88 112.586 199.586 112.432C199.306 112.278 198.956 112.208 198.536 112.222C198.2 112.222 197.885 112.278 197.591 112.39C197.311 112.488 197.066 112.635 196.856 112.831C196.66 113.027 196.499 113.251 196.373 113.503C196.261 113.755 196.205 114.028 196.205 114.322V121H194.735C194.413 121 194.126 121 193.874 121C193.622 121 193.405 121 193.223 121ZM207.148 121V109.114C207.148 108.428 207.302 107.805 207.61 107.245C207.918 106.685 208.338 106.244 208.87 105.922C209.416 105.6 210.053 105.439 210.781 105.439C211.271 105.439 211.733 105.523 212.167 105.691C212.601 105.845 212.972 106.055 213.28 106.321L212.398 108.526C212.216 108.414 212.027 108.323 211.831 108.253C211.649 108.169 211.481 108.127 211.327 108.127C211.061 108.127 210.837 108.176 210.655 108.274C210.487 108.358 210.361 108.491 210.277 108.673C210.193 108.841 210.151 109.058 210.151 109.324V121H208.66C208.338 121 208.051 121 207.799 121C207.547 121 207.33 121 207.148 121ZM205.489 112.684V110.164H212.545V112.684H205.489ZM219.287 121.21C218.153 121.21 217.138 120.965 216.242 120.475C215.36 119.971 214.66 119.285 214.142 118.417C213.638 117.549 213.386 116.555 213.386 115.435C213.386 114.315 213.638 113.321 214.142 112.453C214.66 111.585 215.36 110.906 216.242 110.416C217.138 109.912 218.153 109.66 219.287 109.66C220.407 109.66 221.408 109.912 222.29 110.416C223.186 110.906 223.886 111.585 224.39 112.453C224.894 113.321 225.146 114.315 225.146 115.435C225.146 116.555 224.894 117.549 224.39 118.417C223.886 119.285 223.186 119.971 222.29 120.475C221.408 120.965 220.407 121.21 219.287 121.21ZM219.287 118.606C219.833 118.606 220.323 118.473 220.757 118.207C221.191 117.927 221.527 117.549 221.765 117.073C222.017 116.583 222.136 116.037 222.122 115.435C222.136 114.819 222.017 114.273 221.765 113.797C221.527 113.307 221.191 112.929 220.757 112.663C220.323 112.383 219.833 112.243 219.287 112.243C218.727 112.243 218.23 112.383 217.796 112.663C217.362 112.943 217.019 113.321 216.767 113.797C216.515 114.273 216.396 114.819 216.41 115.435C216.396 116.037 216.515 116.583 216.767 117.073C217.019 117.549 217.362 117.927 217.796 118.207C218.23 118.473 218.727 118.606 219.287 118.606ZM227.41 121V109.891H230.287L230.392 113.461L229.888 112.726C230.056 112.152 230.329 111.634 230.707 111.172C231.085 110.696 231.526 110.325 232.03 110.059C232.548 109.793 233.087 109.66 233.647 109.66C233.885 109.66 234.116 109.681 234.34 109.723C234.564 109.765 234.753 109.814 234.907 109.87L234.109 113.146C233.955 113.062 233.752 112.992 233.5 112.936C233.262 112.866 233.017 112.831 232.765 112.831C232.429 112.831 232.114 112.894 231.82 113.02C231.54 113.132 231.295 113.3 231.085 113.524C230.875 113.734 230.707 113.986 230.581 114.28C230.469 114.574 230.413 114.896 230.413 115.246V121H227.41ZM236.597 121V109.891H239.474L239.537 112.012L239.096 112.096C239.25 111.732 239.453 111.403 239.705 111.109C239.971 110.815 240.272 110.563 240.608 110.353C240.944 110.143 241.301 109.982 241.679 109.87C242.057 109.744 242.435 109.681 242.813 109.681C243.387 109.681 243.905 109.772 244.367 109.954C244.829 110.136 245.221 110.423 245.543 110.815C245.865 111.193 246.117 111.697 246.299 112.327L245.837 112.285L245.984 111.949C246.166 111.613 246.397 111.305 246.677 111.025C246.957 110.745 247.272 110.507 247.622 110.311C247.972 110.115 248.336 109.961 248.714 109.849C249.092 109.737 249.463 109.681 249.827 109.681C250.695 109.681 251.416 109.856 251.99 110.206C252.564 110.542 252.991 111.053 253.271 111.739C253.565 112.425 253.712 113.265 253.712 114.259V121H250.73V114.469C250.73 113.965 250.66 113.552 250.52 113.23C250.38 112.908 250.177 112.67 249.911 112.516C249.645 112.348 249.302 112.264 248.882 112.264C248.56 112.264 248.259 112.32 247.979 112.432C247.713 112.53 247.475 112.677 247.265 112.873C247.069 113.055 246.915 113.279 246.803 113.545C246.691 113.797 246.635 114.07 246.635 114.364V121H243.632V114.448C243.632 113.986 243.562 113.594 243.422 113.272C243.282 112.936 243.079 112.684 242.813 112.516C242.547 112.348 242.218 112.264 241.826 112.264C241.504 112.264 241.203 112.32 240.923 112.432C240.657 112.53 240.426 112.677 240.23 112.873C240.034 113.055 239.88 113.272 239.768 113.524C239.656 113.776 239.6 114.049 239.6 114.343V121H236.597ZM260.71 121.21C259.786 121.21 258.953 120.958 258.211 120.454C257.469 119.95 256.881 119.264 256.447 118.396C256.013 117.528 255.796 116.534 255.796 115.414C255.796 114.294 256.013 113.3 256.447 112.432C256.895 111.564 257.497 110.885 258.253 110.395C259.009 109.905 259.87 109.66 260.836 109.66C261.382 109.66 261.879 109.744 262.327 109.912C262.789 110.066 263.188 110.283 263.524 110.563C263.874 110.843 264.168 111.165 264.406 111.529C264.644 111.893 264.812 112.285 264.91 112.705L264.28 112.6V109.891H267.241V121H264.238V118.333L264.91 118.27C264.798 118.662 264.616 119.033 264.364 119.383C264.112 119.733 263.797 120.048 263.419 120.328C263.055 120.594 262.642 120.811 262.18 120.979C261.718 121.133 261.228 121.21 260.71 121.21ZM261.529 118.627C262.089 118.627 262.579 118.494 262.999 118.228C263.419 117.962 263.741 117.591 263.965 117.115C264.203 116.625 264.322 116.058 264.322 115.414C264.322 114.784 264.203 114.231 263.965 113.755C263.741 113.279 263.419 112.908 262.999 112.642C262.579 112.362 262.089 112.222 261.529 112.222C260.983 112.222 260.5 112.362 260.08 112.642C259.674 112.908 259.352 113.279 259.114 113.755C258.876 114.231 258.757 114.784 258.757 115.414C258.757 116.058 258.876 116.625 259.114 117.115C259.352 117.591 259.674 117.962 260.08 118.228C260.5 118.494 260.983 118.627 261.529 118.627ZM271.301 121V107.077H274.283V121H271.301ZM269.222 112.558V109.891H276.572V112.558H269.222ZM278.747 121V109.891H281.729V121H278.747ZM280.217 107.623C279.643 107.623 279.195 107.483 278.873 107.203C278.551 106.909 278.39 106.503 278.39 105.985C278.39 105.509 278.551 105.124 278.873 104.83C279.209 104.522 279.657 104.368 280.217 104.368C280.791 104.368 281.239 104.515 281.561 104.809C281.883 105.089 282.044 105.481 282.044 105.985C282.044 106.461 281.876 106.853 281.54 107.161C281.218 107.469 280.777 107.623 280.217 107.623ZM290.08 121.21C288.946 121.21 287.931 120.965 287.035 120.475C286.153 119.971 285.453 119.285 284.935 118.417C284.431 117.549 284.179 116.555 284.179 115.435C284.179 114.315 284.431 113.321 284.935 112.453C285.453 111.585 286.153 110.906 287.035 110.416C287.931 109.912 288.946 109.66 290.08 109.66C291.2 109.66 292.201 109.912 293.083 110.416C293.979 110.906 294.679 111.585 295.183 112.453C295.687 113.321 295.939 114.315 295.939 115.435C295.939 116.555 295.687 117.549 295.183 118.417C294.679 119.285 293.979 119.971 293.083 120.475C292.201 120.965 291.2 121.21 290.08 121.21ZM290.08 118.606C290.626 118.606 291.116 118.473 291.55 118.207C291.984 117.927 292.32 117.549 292.558 117.073C292.81 116.583 292.929 116.037 292.915 115.435C292.929 114.819 292.81 114.273 292.558 113.797C292.32 113.307 291.984 112.929 291.55 112.663C291.116 112.383 290.626 112.243 290.08 112.243C289.52 112.243 289.023 112.383 288.589 112.663C288.155 112.943 287.812 113.321 287.56 113.797C287.308 114.273 287.189 114.819 287.203 115.435C287.189 116.037 287.308 116.583 287.56 117.073C287.812 117.549 288.155 117.927 288.589 118.207C289.023 118.473 289.52 118.606 290.08 118.606ZM298.203 121V109.891H301.059L301.143 112.159L300.555 112.411C300.709 111.907 300.982 111.452 301.374 111.046C301.78 110.626 302.263 110.29 302.823 110.038C303.383 109.786 303.971 109.66 304.587 109.66C305.427 109.66 306.127 109.828 306.687 110.164C307.261 110.5 307.688 111.011 307.968 111.697C308.262 112.369 308.409 113.202 308.409 114.196V121H305.427V114.427C305.427 113.923 305.357 113.503 305.217 113.167C305.077 112.831 304.86 112.586 304.566 112.432C304.286 112.278 303.936 112.208 303.516 112.222C303.18 112.222 302.865 112.278 302.571 112.39C302.291 112.488 302.046 112.635 301.836 112.831C301.64 113.027 301.479 113.251 301.353 113.503C301.241 113.755 301.185 114.028 301.185 114.322V121H299.715C299.393 121 299.106 121 298.854 121C298.602 121 298.385 121 298.203 121Z" fill="black"/>
<circle cx="384" cy="114" r="13" fill="black"/>
<path d="M385.272 114L389.136 110.136C389.305 109.968 389.399 109.739 389.399 109.5C389.399 109.261 389.305 109.032 389.136 108.864C388.967 108.695 388.738 108.6 388.499 108.6C388.261 108.6 388.032 108.695 387.863 108.864L383.999 112.727L380.136 108.864C380.052 108.78 379.953 108.714 379.844 108.669C379.735 108.623 379.618 108.6 379.499 108.6C379.381 108.6 379.264 108.623 379.155 108.669C379.046 108.714 378.947 108.78 378.863 108.864C378.78 108.947 378.713 109.046 378.668 109.156C378.623 109.265 378.6 109.382 378.6 109.5C378.6 109.618 378.623 109.735 378.668 109.844C378.713 109.954 378.78 110.053 378.863 110.136L382.727 114L378.863 117.864C378.694 118.032 378.6 118.261 378.6 118.5C378.6 118.739 378.694 118.968 378.863 119.136C379.032 119.305 379.261 119.4 379.499 119.4C379.738 119.4 379.967 119.305 380.136 119.136L383.999 115.273L387.863 119.136C387.947 119.22 388.046 119.287 388.155 119.332C388.264 119.378 388.381 119.401 388.499 119.401C388.618 119.401 388.735 119.378 388.844 119.332C388.953 119.287 389.052 119.22 389.136 119.136C389.219 119.053 389.286 118.954 389.331 118.844C389.376 118.735 389.4 118.618 389.4 118.5C389.4 118.382 389.376 118.265 389.331 118.156C389.286 118.046 389.219 117.947 389.136 117.864L385.272 114Z" fill="white"/>
<rect x="82" y="215" width="315" height="62" rx="9" fill="white"/>
<rect x="82" y="143" width="315" height="62" rx="9" fill="white"/>
<path d="M95.82 235.1C95.3333 235.1 94.8867 235.013 94.48 234.84C94.0733 234.667 93.72 234.42 93.42 234.1C93.12 233.773 92.8867 233.39 92.72 232.95C92.56 232.51 92.48 232.027 92.48 231.5C92.48 231 92.5667 230.537 92.74 230.11C92.92 229.677 93.1667 229.297 93.48 228.97C93.7933 228.643 94.1567 228.39 94.57 228.21C94.9833 228.03 95.43 227.94 95.91 227.94C96.25 227.94 96.58 227.993 96.9 228.1C97.2267 228.2 97.52 228.343 97.78 228.53C98.0467 228.71 98.2633 228.917 98.43 229.15L97.71 229.9C97.5167 229.707 97.32 229.547 97.12 229.42C96.9267 229.287 96.7267 229.187 96.52 229.12C96.32 229.053 96.1167 229.02 95.91 229.02C95.5833 229.02 95.2767 229.083 94.99 229.21C94.71 229.33 94.4633 229.5 94.25 229.72C94.0433 229.94 93.88 230.203 93.76 230.51C93.64 230.81 93.58 231.14 93.58 231.5C93.58 231.88 93.6367 232.227 93.75 232.54C93.87 232.847 94.0367 233.11 94.25 233.33C94.4633 233.55 94.7167 233.72 95.01 233.84C95.31 233.953 95.64 234.01 96 234.01C96.22 234.01 96.4367 233.98 96.65 233.92C96.8633 233.86 97.0633 233.773 97.25 233.66C97.4367 233.547 97.6067 233.413 97.76 233.26L98.3 234.14C98.1467 234.32 97.9367 234.483 97.67 234.63C97.41 234.777 97.1167 234.893 96.79 234.98C96.47 235.06 96.1467 235.1 95.82 235.1ZM101.867 235.1C101.354 235.1 100.894 234.983 100.487 234.75C100.087 234.51 99.7704 234.187 99.5371 233.78C99.3038 233.367 99.1871 232.897 99.1871 232.37C99.1871 231.843 99.3038 231.377 99.5371 230.97C99.7704 230.557 100.087 230.233 100.487 230C100.894 229.76 101.354 229.64 101.867 229.64C102.374 229.64 102.827 229.76 103.227 230C103.634 230.233 103.954 230.557 104.187 230.97C104.42 231.377 104.537 231.843 104.537 232.37C104.537 232.897 104.42 233.367 104.187 233.78C103.954 234.187 103.634 234.51 103.227 234.75C102.827 234.983 102.374 235.1 101.867 235.1ZM101.867 234.16C102.18 234.16 102.46 234.083 102.707 233.93C102.954 233.77 103.147 233.557 103.287 233.29C103.427 233.017 103.494 232.71 103.487 232.37C103.494 232.023 103.427 231.717 103.287 231.45C103.147 231.177 102.954 230.963 102.707 230.81C102.46 230.657 102.18 230.58 101.867 230.58C101.554 230.58 101.27 230.66 101.017 230.82C100.77 230.973 100.577 231.187 100.437 231.46C100.297 231.727 100.23 232.03 100.237 232.37C100.23 232.71 100.297 233.017 100.437 233.29C100.577 233.557 100.77 233.77 101.017 233.93C101.27 234.083 101.554 234.16 101.867 234.16ZM105.659 235V229.75H106.689V230.83L106.509 230.95C106.576 230.717 106.706 230.503 106.899 230.31C107.093 230.11 107.323 229.95 107.589 229.83C107.856 229.703 108.129 229.64 108.409 229.64C108.809 229.64 109.143 229.72 109.409 229.88C109.676 230.033 109.876 230.27 110.009 230.59C110.143 230.91 110.209 231.313 110.209 231.8V235H109.179V231.87C109.179 231.57 109.139 231.323 109.059 231.13C108.979 230.93 108.856 230.787 108.689 230.7C108.523 230.607 108.316 230.567 108.069 230.58C107.869 230.58 107.686 230.613 107.519 230.68C107.353 230.74 107.206 230.827 107.079 230.94C106.959 231.053 106.863 231.187 106.789 231.34C106.723 231.487 106.689 231.647 106.689 231.82V235H106.179C106.093 235 106.006 235 105.919 235C105.833 235 105.746 235 105.659 235ZM112.257 235V228.41H113.287V235H112.257ZM111.167 230.75V229.75H114.507V230.75H111.167ZM115.445 235V229.75H116.485V231.4L116.385 231C116.458 230.747 116.581 230.517 116.755 230.31C116.935 230.103 117.138 229.94 117.365 229.82C117.598 229.7 117.838 229.64 118.085 229.64C118.198 229.64 118.305 229.65 118.405 229.67C118.511 229.69 118.595 229.713 118.655 229.74L118.385 230.86C118.305 230.827 118.215 230.8 118.115 230.78C118.021 230.753 117.928 230.74 117.835 230.74C117.655 230.74 117.481 230.777 117.315 230.85C117.155 230.917 117.011 231.013 116.885 231.14C116.765 231.26 116.668 231.403 116.595 231.57C116.521 231.73 116.485 231.907 116.485 232.1V235H115.445ZM121.273 235.1C120.84 235.1 120.443 234.98 120.083 234.74C119.73 234.5 119.447 234.173 119.233 233.76C119.02 233.347 118.913 232.88 118.913 232.36C118.913 231.833 119.02 231.367 119.233 230.96C119.453 230.547 119.747 230.223 120.113 229.99C120.487 229.757 120.903 229.64 121.363 229.64C121.637 229.64 121.887 229.68 122.113 229.76C122.34 229.84 122.537 229.953 122.703 230.1C122.877 230.24 123.017 230.403 123.123 230.59C123.237 230.777 123.307 230.977 123.333 231.19L123.103 231.11V229.75H124.143V235H123.103V233.75L123.343 233.68C123.303 233.86 123.22 234.037 123.093 234.21C122.973 234.377 122.817 234.527 122.623 234.66C122.437 234.793 122.227 234.9 121.993 234.98C121.767 235.06 121.527 235.1 121.273 235.1ZM121.543 234.15C121.857 234.15 122.133 234.073 122.373 233.92C122.613 233.767 122.8 233.557 122.933 233.29C123.073 233.017 123.143 232.707 123.143 232.36C123.143 232.02 123.073 231.717 122.933 231.45C122.8 231.183 122.613 230.973 122.373 230.82C122.133 230.667 121.857 230.59 121.543 230.59C121.237 230.59 120.963 230.667 120.723 230.82C120.49 230.973 120.303 231.183 120.163 231.45C120.03 231.717 119.963 232.02 119.963 232.36C119.963 232.707 120.03 233.017 120.163 233.29C120.303 233.557 120.49 233.767 120.723 233.92C120.963 234.073 121.237 234.15 121.543 234.15ZM127.811 235.1C127.325 235.1 126.888 234.98 126.501 234.74C126.121 234.5 125.818 234.173 125.591 233.76C125.371 233.347 125.261 232.883 125.261 232.37C125.261 231.857 125.371 231.393 125.591 230.98C125.818 230.567 126.121 230.24 126.501 230C126.888 229.76 127.325 229.64 127.811 229.64C128.278 229.64 128.701 229.737 129.081 229.93C129.468 230.117 129.761 230.373 129.961 230.7L129.391 231.4C129.285 231.247 129.148 231.107 128.981 230.98C128.815 230.853 128.638 230.753 128.451 230.68C128.265 230.607 128.085 230.57 127.911 230.57C127.591 230.57 127.305 230.65 127.051 230.81C126.805 230.963 126.608 231.177 126.461 231.45C126.315 231.723 126.241 232.03 126.241 232.37C126.241 232.71 126.318 233.017 126.471 233.29C126.625 233.557 126.828 233.77 127.081 233.93C127.335 234.09 127.615 234.17 127.921 234.17C128.101 234.17 128.275 234.14 128.441 234.08C128.615 234.02 128.781 233.93 128.941 233.81C129.101 233.69 129.251 233.543 129.391 233.37L129.961 234.07C129.748 234.37 129.441 234.617 129.041 234.81C128.648 235.003 128.238 235.1 127.811 235.1ZM131.583 235V228.41H132.613V235H131.583ZM130.493 230.75V229.75H133.833V230.75H130.493ZM140.674 235.1C140.187 235.1 139.74 235.013 139.334 234.84C138.927 234.667 138.574 234.42 138.274 234.1C137.974 233.773 137.74 233.39 137.574 232.95C137.414 232.51 137.334 232.027 137.334 231.5C137.334 231 137.42 230.537 137.594 230.11C137.774 229.677 138.02 229.297 138.334 228.97C138.647 228.643 139.01 228.39 139.424 228.21C139.837 228.03 140.284 227.94 140.764 227.94C141.104 227.94 141.434 227.993 141.754 228.1C142.08 228.2 142.374 228.343 142.634 228.53C142.9 228.71 143.117 228.917 143.284 229.15L142.564 229.9C142.37 229.707 142.174 229.547 141.974 229.42C141.78 229.287 141.58 229.187 141.374 229.12C141.174 229.053 140.97 229.02 140.764 229.02C140.437 229.02 140.13 229.083 139.844 229.21C139.564 229.33 139.317 229.5 139.104 229.72C138.897 229.94 138.734 230.203 138.614 230.51C138.494 230.81 138.434 231.14 138.434 231.5C138.434 231.88 138.49 232.227 138.604 232.54C138.724 232.847 138.89 233.11 139.104 233.33C139.317 233.55 139.57 233.72 139.864 233.84C140.164 233.953 140.494 234.01 140.854 234.01C141.074 234.01 141.29 233.98 141.504 233.92C141.717 233.86 141.917 233.773 142.104 233.66C142.29 233.547 142.46 233.413 142.614 233.26L143.154 234.14C143 234.32 142.79 234.483 142.524 234.63C142.264 234.777 141.97 234.893 141.644 234.98C141.324 235.06 141 235.1 140.674 235.1ZM145.241 237.3L146.301 234.85L146.311 235.67L143.691 229.75H144.891L146.531 233.61C146.564 233.677 146.604 233.78 146.651 233.92C146.697 234.053 146.737 234.187 146.771 234.32L146.511 234.38C146.564 234.24 146.614 234.1 146.661 233.96C146.714 233.82 146.764 233.68 146.811 233.54L148.181 229.75H149.401L147.241 235L146.351 237.3H145.241ZM152.304 235.1C151.817 235.1 151.38 234.98 150.994 234.74C150.614 234.5 150.31 234.173 150.084 233.76C149.864 233.347 149.754 232.883 149.754 232.37C149.754 231.857 149.864 231.393 150.084 230.98C150.31 230.567 150.614 230.24 150.994 230C151.38 229.76 151.817 229.64 152.304 229.64C152.77 229.64 153.194 229.737 153.574 229.93C153.96 230.117 154.254 230.373 154.454 230.7L153.884 231.4C153.777 231.247 153.64 231.107 153.474 230.98C153.307 230.853 153.13 230.753 152.944 230.68C152.757 230.607 152.577 230.57 152.404 230.57C152.084 230.57 151.797 230.65 151.544 230.81C151.297 230.963 151.1 231.177 150.954 231.45C150.807 231.723 150.734 232.03 150.734 232.37C150.734 232.71 150.81 233.017 150.964 233.29C151.117 233.557 151.32 233.77 151.574 233.93C151.827 234.09 152.107 234.17 152.414 234.17C152.594 234.17 152.767 234.14 152.934 234.08C153.107 234.02 153.274 233.93 153.434 233.81C153.594 233.69 153.744 233.543 153.884 233.37L154.454 234.07C154.24 234.37 153.934 234.617 153.534 234.81C153.14 235.003 152.73 235.1 152.304 235.1ZM155.445 235V227.6H156.475V235H155.445ZM160.287 235.1C159.747 235.1 159.267 234.987 158.847 234.76C158.434 234.527 158.107 234.21 157.867 233.81C157.634 233.41 157.517 232.95 157.517 232.43C157.517 232.017 157.584 231.64 157.717 231.3C157.851 230.96 158.034 230.667 158.267 230.42C158.507 230.167 158.791 229.973 159.117 229.84C159.451 229.7 159.811 229.63 160.197 229.63C160.537 229.63 160.854 229.697 161.147 229.83C161.441 229.957 161.694 230.133 161.907 230.36C162.127 230.587 162.294 230.857 162.407 231.17C162.527 231.477 162.584 231.813 162.577 232.18L162.567 232.62H158.277L158.047 231.8H161.677L161.527 231.97V231.73C161.507 231.51 161.434 231.313 161.307 231.14C161.181 230.967 161.021 230.83 160.827 230.73C160.634 230.63 160.424 230.58 160.197 230.58C159.837 230.58 159.534 230.65 159.287 230.79C159.041 230.923 158.854 231.123 158.727 231.39C158.601 231.65 158.537 231.973 158.537 232.36C158.537 232.727 158.614 233.047 158.767 233.32C158.921 233.587 159.137 233.793 159.417 233.94C159.697 234.087 160.021 234.16 160.387 234.16C160.647 234.16 160.887 234.117 161.107 234.03C161.334 233.943 161.577 233.787 161.837 233.56L162.357 234.29C162.197 234.45 162.001 234.59 161.767 234.71C161.541 234.83 161.297 234.927 161.037 235C160.784 235.067 160.534 235.1 160.287 235.1Z" fill="#3B3B3B"/>
<path d="M92.98 163V156H93.95L98.23 161.73L98.07 161.82C98.0433 161.653 98.02 161.473 98 161.28C97.98 161.08 97.96 160.87 97.94 160.65C97.9267 160.423 97.9133 160.187 97.9 159.94C97.8933 159.687 97.8867 159.423 97.88 159.15C97.8733 158.877 97.87 158.593 97.87 158.3V156H98.95V163H97.96L93.75 157.48L93.86 157.34C93.8933 157.747 93.92 158.093 93.94 158.38C93.9667 158.66 93.9867 158.9 94 159.1C94.02 159.293 94.0333 159.453 94.04 159.58C94.0467 159.7 94.05 159.8 94.05 159.88C94.0567 159.96 94.06 160.03 94.06 160.09V163H92.98ZM102.67 163.1C102.236 163.1 101.84 162.98 101.48 162.74C101.126 162.5 100.843 162.173 100.63 161.76C100.416 161.347 100.31 160.88 100.31 160.36C100.31 159.833 100.416 159.367 100.63 158.96C100.85 158.547 101.143 158.223 101.51 157.99C101.883 157.757 102.3 157.64 102.76 157.64C103.033 157.64 103.283 157.68 103.51 157.76C103.736 157.84 103.933 157.953 104.1 158.1C104.273 158.24 104.413 158.403 104.52 158.59C104.633 158.777 104.703 158.977 104.73 159.19L104.5 159.11V157.75H105.54V163H104.5V161.75L104.74 161.68C104.7 161.86 104.616 162.037 104.49 162.21C104.37 162.377 104.213 162.527 104.02 162.66C103.833 162.793 103.623 162.9 103.39 162.98C103.163 163.06 102.923 163.1 102.67 163.1ZM102.94 162.15C103.253 162.15 103.53 162.073 103.77 161.92C104.01 161.767 104.196 161.557 104.33 161.29C104.47 161.017 104.54 160.707 104.54 160.36C104.54 160.02 104.47 159.717 104.33 159.45C104.196 159.183 104.01 158.973 103.77 158.82C103.53 158.667 103.253 158.59 102.94 158.59C102.633 158.59 102.36 158.667 102.12 158.82C101.886 158.973 101.7 159.183 101.56 159.45C101.426 159.717 101.36 160.02 101.36 160.36C101.36 160.707 101.426 161.017 101.56 161.29C101.7 161.557 101.886 161.767 102.12 161.92C102.36 162.073 102.633 162.15 102.94 162.15ZM106.958 163V157.75H107.998V158.87L107.808 158.99C107.861 158.817 107.944 158.65 108.058 158.49C108.178 158.33 108.321 158.19 108.488 158.07C108.661 157.943 108.844 157.843 109.038 157.77C109.238 157.697 109.441 157.66 109.648 157.66C109.948 157.66 110.211 157.71 110.438 157.81C110.664 157.91 110.851 158.06 110.998 158.26C111.144 158.46 111.251 158.71 111.318 159.01L111.158 158.97L111.228 158.8C111.301 158.647 111.401 158.503 111.528 158.37C111.661 158.23 111.811 158.107 111.978 158C112.144 157.893 112.321 157.81 112.508 157.75C112.694 157.69 112.878 157.66 113.058 157.66C113.451 157.66 113.774 157.74 114.028 157.9C114.288 158.06 114.481 158.303 114.608 158.63C114.741 158.957 114.808 159.363 114.808 159.85V163H113.768V159.91C113.768 159.61 113.728 159.367 113.648 159.18C113.574 158.987 113.461 158.843 113.308 158.75C113.154 158.657 112.958 158.61 112.718 158.61C112.531 158.61 112.354 158.643 112.188 158.71C112.028 158.77 111.888 158.857 111.768 158.97C111.648 159.083 111.554 159.217 111.488 159.37C111.421 159.517 111.388 159.68 111.388 159.86V163H110.348V159.89C110.348 159.617 110.308 159.387 110.228 159.2C110.148 159.007 110.031 158.86 109.878 158.76C109.724 158.66 109.538 158.61 109.318 158.61C109.131 158.61 108.958 158.643 108.798 158.71C108.638 158.77 108.498 158.857 108.378 158.97C108.258 159.077 108.164 159.207 108.098 159.36C108.031 159.507 107.998 159.667 107.998 159.84V163H106.958ZM118.637 163.1C118.097 163.1 117.617 162.987 117.197 162.76C116.783 162.527 116.457 162.21 116.217 161.81C115.983 161.41 115.867 160.95 115.867 160.43C115.867 160.017 115.933 159.64 116.067 159.3C116.2 158.96 116.383 158.667 116.617 158.42C116.857 158.167 117.14 157.973 117.467 157.84C117.8 157.7 118.16 157.63 118.547 157.63C118.887 157.63 119.203 157.697 119.497 157.83C119.79 157.957 120.043 158.133 120.257 158.36C120.477 158.587 120.643 158.857 120.757 159.17C120.877 159.477 120.933 159.813 120.927 160.18L120.917 160.62H116.627L116.397 159.8H120.027L119.877 159.97V159.73C119.857 159.51 119.783 159.313 119.657 159.14C119.53 158.967 119.37 158.83 119.177 158.73C118.983 158.63 118.773 158.58 118.547 158.58C118.187 158.58 117.883 158.65 117.637 158.79C117.39 158.923 117.203 159.123 117.077 159.39C116.95 159.65 116.887 159.973 116.887 160.36C116.887 160.727 116.963 161.047 117.117 161.32C117.27 161.587 117.487 161.793 117.767 161.94C118.047 162.087 118.37 162.16 118.737 162.16C118.997 162.16 119.237 162.117 119.457 162.03C119.683 161.943 119.927 161.787 120.187 161.56L120.707 162.29C120.547 162.45 120.35 162.59 120.117 162.71C119.89 162.83 119.647 162.927 119.387 163C119.133 163.067 118.883 163.1 118.637 163.1Z" fill="#3B3B3B"/>
<rect x="103" y="254" width="271" height="7" rx="3.5" fill="#E4E6EA"/>
<rect x="103" y="182" width="271" height="7" rx="3.5" fill="#E4E6EA"/>
<rect x="92.25" y="244.25" width="292.5" height="26.5" rx="3.75" stroke="#E4E6EA" stroke-width="0.5"/>
<rect x="92.25" y="172.25" width="292.5" height="26.5" rx="3.75" stroke="#E4E6EA" stroke-width="0.5"/>
<rect x="82" y="287" width="154" height="62" rx="9" fill="white"/>
<rect x="243" y="287" width="154" height="62" rx="9" fill="white"/>
<path d="M95.14 307.1C94.76 307.1 94.4067 307.05 94.08 306.95C93.76 306.85 93.4667 306.7 93.2 306.5C92.94 306.293 92.7067 306.04 92.5 305.74L93.24 304.89C93.5667 305.357 93.88 305.68 94.18 305.86C94.48 306.04 94.8367 306.13 95.25 306.13C95.5033 306.13 95.7333 306.09 95.94 306.01C96.1467 305.93 96.31 305.82 96.43 305.68C96.55 305.54 96.61 305.38 96.61 305.2C96.61 305.08 96.59 304.967 96.55 304.86C96.51 304.753 96.4467 304.657 96.36 304.57C96.28 304.483 96.1733 304.403 96.04 304.33C95.9133 304.257 95.7633 304.193 95.59 304.14C95.4167 304.08 95.2167 304.03 94.99 303.99C94.63 303.917 94.3167 303.82 94.05 303.7C93.7833 303.58 93.56 303.43 93.38 303.25C93.2 303.07 93.0667 302.867 92.98 302.64C92.8933 302.407 92.85 302.147 92.85 301.86C92.85 301.58 92.91 301.32 93.03 301.08C93.1567 300.84 93.3267 300.633 93.54 300.46C93.76 300.28 94.0167 300.143 94.31 300.05C94.6033 299.95 94.92 299.9 95.26 299.9C95.62 299.9 95.95 299.947 96.25 300.04C96.55 300.133 96.8167 300.273 97.05 300.46C97.2833 300.64 97.4767 300.863 97.63 301.13L96.87 301.88C96.7367 301.66 96.5867 301.477 96.42 301.33C96.2533 301.177 96.07 301.063 95.87 300.99C95.67 300.91 95.4567 300.87 95.23 300.87C94.97 300.87 94.7433 300.91 94.55 300.99C94.3567 301.07 94.2033 301.183 94.09 301.33C93.9833 301.47 93.93 301.637 93.93 301.83C93.93 301.97 93.9567 302.1 94.01 302.22C94.0633 302.333 94.1433 302.437 94.25 302.53C94.3633 302.617 94.5133 302.697 94.7 302.77C94.8867 302.837 95.11 302.897 95.37 302.95C95.7367 303.03 96.0633 303.133 96.35 303.26C96.6367 303.38 96.88 303.523 97.08 303.69C97.28 303.857 97.43 304.043 97.53 304.25C97.6367 304.457 97.69 304.68 97.69 304.92C97.69 305.367 97.5867 305.753 97.38 306.08C97.1733 306.407 96.88 306.66 96.5 306.84C96.12 307.013 95.6667 307.1 95.14 307.1ZM99.6102 307V300.41H100.64V307H99.6102ZM98.5202 302.75V301.75H101.86V302.75H98.5202ZM104.769 307.1C104.336 307.1 103.939 306.98 103.579 306.74C103.226 306.5 102.943 306.173 102.729 305.76C102.516 305.347 102.409 304.88 102.409 304.36C102.409 303.833 102.516 303.367 102.729 302.96C102.949 302.547 103.243 302.223 103.609 301.99C103.983 301.757 104.399 301.64 104.859 301.64C105.133 301.64 105.383 301.68 105.609 301.76C105.836 301.84 106.033 301.953 106.199 302.1C106.373 302.24 106.513 302.403 106.619 302.59C106.733 302.777 106.803 302.977 106.829 303.19L106.599 303.11V301.75H107.639V307H106.599V305.75L106.839 305.68C106.799 305.86 106.716 306.037 106.589 306.21C106.469 306.377 106.313 306.527 106.119 306.66C105.933 306.793 105.723 306.9 105.489 306.98C105.263 307.06 105.023 307.1 104.769 307.1ZM105.039 306.15C105.353 306.15 105.629 306.073 105.869 305.92C106.109 305.767 106.296 305.557 106.429 305.29C106.569 305.017 106.639 304.707 106.639 304.36C106.639 304.02 106.569 303.717 106.429 303.45C106.296 303.183 106.109 302.973 105.869 302.82C105.629 302.667 105.353 302.59 105.039 302.59C104.733 302.59 104.459 302.667 104.219 302.82C103.986 302.973 103.799 303.183 103.659 303.45C103.526 303.717 103.459 304.02 103.459 304.36C103.459 304.707 103.526 305.017 103.659 305.29C103.799 305.557 103.986 305.767 104.219 305.92C104.459 306.073 104.733 306.15 105.039 306.15ZM109.077 307V301.75H110.117V303.4L110.017 303C110.091 302.747 110.214 302.517 110.387 302.31C110.567 302.103 110.771 301.94 110.997 301.82C111.231 301.7 111.471 301.64 111.717 301.64C111.831 301.64 111.937 301.65 112.037 301.67C112.144 301.69 112.227 301.713 112.287 301.74L112.017 302.86C111.937 302.827 111.847 302.8 111.747 302.78C111.654 302.753 111.561 302.74 111.467 302.74C111.287 302.74 111.114 302.777 110.947 302.85C110.787 302.917 110.644 303.013 110.517 303.14C110.397 303.26 110.301 303.403 110.227 303.57C110.154 303.73 110.117 303.907 110.117 304.1V307H109.077ZM113.956 307V300.41H114.986V307H113.956ZM112.866 302.75V301.75H116.206V302.75H112.866ZM120.207 307V300H122.947C123.447 300 123.897 300.083 124.297 300.25C124.703 300.417 125.05 300.657 125.337 300.97C125.623 301.283 125.843 301.653 125.997 302.08C126.15 302.507 126.227 302.98 126.227 303.5C126.227 304.02 126.15 304.497 125.997 304.93C125.843 305.357 125.623 305.727 125.337 306.04C125.057 306.347 124.713 306.583 124.307 306.75C123.9 306.917 123.447 307 122.947 307H120.207ZM121.287 306.07L121.257 305.96H122.897C123.25 305.96 123.563 305.903 123.837 305.79C124.117 305.677 124.35 305.517 124.537 305.31C124.73 305.097 124.877 304.837 124.977 304.53C125.077 304.223 125.127 303.88 125.127 303.5C125.127 303.12 125.077 302.78 124.977 302.48C124.877 302.173 124.73 301.913 124.537 301.7C124.343 301.487 124.11 301.323 123.837 301.21C123.563 301.097 123.25 301.04 122.897 301.04H121.227L121.287 300.95V306.07ZM129.447 307.1C129.014 307.1 128.617 306.98 128.257 306.74C127.904 306.5 127.62 306.173 127.407 305.76C127.194 305.347 127.087 304.88 127.087 304.36C127.087 303.833 127.194 303.367 127.407 302.96C127.627 302.547 127.92 302.223 128.287 301.99C128.66 301.757 129.077 301.64 129.537 301.64C129.81 301.64 130.06 301.68 130.287 301.76C130.514 301.84 130.71 301.953 130.877 302.1C131.05 302.24 131.19 302.403 131.297 302.59C131.41 302.777 131.48 302.977 131.507 303.19L131.277 303.11V301.75H132.317V307H131.277V305.75L131.517 305.68C131.477 305.86 131.394 306.037 131.267 306.21C131.147 306.377 130.99 306.527 130.797 306.66C130.61 306.793 130.4 306.9 130.167 306.98C129.94 307.06 129.7 307.1 129.447 307.1ZM129.717 306.15C130.03 306.15 130.307 306.073 130.547 305.92C130.787 305.767 130.974 305.557 131.107 305.29C131.247 305.017 131.317 304.707 131.317 304.36C131.317 304.02 131.247 303.717 131.107 303.45C130.974 303.183 130.787 302.973 130.547 302.82C130.307 302.667 130.03 302.59 129.717 302.59C129.41 302.59 129.137 302.667 128.897 302.82C128.664 302.973 128.477 303.183 128.337 303.45C128.204 303.717 128.137 304.02 128.137 304.36C128.137 304.707 128.204 305.017 128.337 305.29C128.477 305.557 128.664 305.767 128.897 305.92C129.137 306.073 129.41 306.15 129.717 306.15ZM134.405 307V300.41H135.435V307H134.405ZM133.315 302.75V301.75H136.655V302.75H133.315ZM139.994 307.1C139.454 307.1 138.974 306.987 138.554 306.76C138.141 306.527 137.814 306.21 137.574 305.81C137.341 305.41 137.224 304.95 137.224 304.43C137.224 304.017 137.291 303.64 137.424 303.3C137.558 302.96 137.741 302.667 137.974 302.42C138.214 302.167 138.498 301.973 138.824 301.84C139.158 301.7 139.518 301.63 139.904 301.63C140.244 301.63 140.561 301.697 140.854 301.83C141.148 301.957 141.401 302.133 141.614 302.36C141.834 302.587 142.001 302.857 142.114 303.17C142.234 303.477 142.291 303.813 142.284 304.18L142.274 304.62H137.984L137.754 303.8H141.384L141.234 303.97V303.73C141.214 303.51 141.141 303.313 141.014 303.14C140.888 302.967 140.728 302.83 140.534 302.73C140.341 302.63 140.131 302.58 139.904 302.58C139.544 302.58 139.241 302.65 138.994 302.79C138.748 302.923 138.561 303.123 138.434 303.39C138.308 303.65 138.244 303.973 138.244 304.36C138.244 304.727 138.321 305.047 138.474 305.32C138.628 305.587 138.844 305.793 139.124 305.94C139.404 306.087 139.728 306.16 140.094 306.16C140.354 306.16 140.594 306.117 140.814 306.03C141.041 305.943 141.284 305.787 141.544 305.56L142.064 306.29C141.904 306.45 141.708 306.59 141.474 306.71C141.248 306.83 141.004 306.927 140.744 307C140.491 307.067 140.241 307.1 139.994 307.1Z" fill="#3B3B3B"/>
<path d="M253.98 307V300H258.39V301.04H255.06V305.96H258.39V307H253.98ZM254.47 303.93V302.89H257.84V303.93H254.47ZM259.863 307V301.75H260.893V302.83L260.713 302.95C260.779 302.717 260.909 302.503 261.103 302.31C261.296 302.11 261.526 301.95 261.793 301.83C262.059 301.703 262.333 301.64 262.613 301.64C263.013 301.64 263.346 301.72 263.613 301.88C263.879 302.033 264.079 302.27 264.213 302.59C264.346 302.91 264.413 303.313 264.413 303.8V307H263.383V303.87C263.383 303.57 263.343 303.323 263.263 303.13C263.183 302.93 263.059 302.787 262.893 302.7C262.726 302.607 262.519 302.567 262.273 302.58C262.073 302.58 261.889 302.613 261.723 302.68C261.556 302.74 261.409 302.827 261.283 302.94C261.163 303.053 261.066 303.187 260.993 303.34C260.926 303.487 260.893 303.647 260.893 303.82V307H260.383C260.296 307 260.209 307 260.123 307C260.036 307 259.949 307 259.863 307ZM268 307.1C267.52 307.1 267.09 306.983 266.71 306.75C266.337 306.51 266.04 306.187 265.82 305.78C265.6 305.367 265.49 304.897 265.49 304.37C265.49 303.843 265.597 303.377 265.81 302.97C266.03 302.557 266.327 302.233 266.7 302C267.073 301.76 267.497 301.64 267.97 301.64C268.23 301.64 268.48 301.683 268.72 301.77C268.967 301.85 269.187 301.963 269.38 302.11C269.573 302.25 269.723 302.407 269.83 302.58C269.943 302.747 270 302.917 270 303.09L269.7 303.11V299.6H270.73V307H269.7V305.75H269.9C269.9 305.91 269.847 306.07 269.74 306.23C269.633 306.383 269.49 306.527 269.31 306.66C269.137 306.793 268.933 306.9 268.7 306.98C268.473 307.06 268.24 307.1 268 307.1ZM268.14 306.21C268.453 306.21 268.73 306.13 268.97 305.97C269.21 305.81 269.397 305.593 269.53 305.32C269.67 305.04 269.74 304.723 269.74 304.37C269.74 304.017 269.67 303.703 269.53 303.43C269.397 303.15 269.21 302.93 268.97 302.77C268.73 302.61 268.453 302.53 268.14 302.53C267.827 302.53 267.55 302.61 267.31 302.77C267.07 302.93 266.88 303.15 266.74 303.43C266.607 303.703 266.54 304.017 266.54 304.37C266.54 304.723 266.607 305.04 266.74 305.32C266.88 305.593 267.07 305.81 267.31 305.97C267.55 306.13 267.827 306.21 268.14 306.21ZM275.21 307V300H277.95C278.45 300 278.9 300.083 279.3 300.25C279.707 300.417 280.054 300.657 280.34 300.97C280.627 301.283 280.847 301.653 281 302.08C281.154 302.507 281.23 302.98 281.23 303.5C281.23 304.02 281.154 304.497 281 304.93C280.847 305.357 280.627 305.727 280.34 306.04C280.06 306.347 279.717 306.583 279.31 306.75C278.904 306.917 278.45 307 277.95 307H275.21ZM276.29 306.07L276.26 305.96H277.9C278.254 305.96 278.567 305.903 278.84 305.79C279.12 305.677 279.354 305.517 279.54 305.31C279.734 305.097 279.88 304.837 279.98 304.53C280.08 304.223 280.13 303.88 280.13 303.5C280.13 303.12 280.08 302.78 279.98 302.48C279.88 302.173 279.734 301.913 279.54 301.7C279.347 301.487 279.114 301.323 278.84 301.21C278.567 301.097 278.254 301.04 277.9 301.04H276.23L276.29 300.95V306.07ZM284.451 307.1C284.018 307.1 283.621 306.98 283.261 306.74C282.908 306.5 282.624 306.173 282.411 305.76C282.198 305.347 282.091 304.88 282.091 304.36C282.091 303.833 282.198 303.367 282.411 302.96C282.631 302.547 282.924 302.223 283.291 301.99C283.664 301.757 284.081 301.64 284.541 301.64C284.814 301.64 285.064 301.68 285.291 301.76C285.518 301.84 285.714 301.953 285.881 302.1C286.054 302.24 286.194 302.403 286.301 302.59C286.414 302.777 286.484 302.977 286.511 303.19L286.281 303.11V301.75H287.321V307H286.281V305.75L286.521 305.68C286.481 305.86 286.398 306.037 286.271 306.21C286.151 306.377 285.994 306.527 285.801 306.66C285.614 306.793 285.404 306.9 285.171 306.98C284.944 307.06 284.704 307.1 284.451 307.1ZM284.721 306.15C285.034 306.15 285.311 306.073 285.551 305.92C285.791 305.767 285.978 305.557 286.111 305.29C286.251 305.017 286.321 304.707 286.321 304.36C286.321 304.02 286.251 303.717 286.111 303.45C285.978 303.183 285.791 302.973 285.551 302.82C285.311 302.667 285.034 302.59 284.721 302.59C284.414 302.59 284.141 302.667 283.901 302.82C283.668 302.973 283.481 303.183 283.341 303.45C283.208 303.717 283.141 304.02 283.141 304.36C283.141 304.707 283.208 305.017 283.341 305.29C283.481 305.557 283.668 305.767 283.901 305.92C284.141 306.073 284.414 306.15 284.721 306.15ZM289.409 307V300.41H290.439V307H289.409ZM288.319 302.75V301.75H291.659V302.75H288.319ZM294.998 307.1C294.458 307.1 293.978 306.987 293.558 306.76C293.145 306.527 292.818 306.21 292.578 305.81C292.345 305.41 292.228 304.95 292.228 304.43C292.228 304.017 292.295 303.64 292.428 303.3C292.561 302.96 292.745 302.667 292.978 302.42C293.218 302.167 293.501 301.973 293.828 301.84C294.161 301.7 294.521 301.63 294.908 301.63C295.248 301.63 295.565 301.697 295.858 301.83C296.151 301.957 296.405 302.133 296.618 302.36C296.838 302.587 297.005 302.857 297.118 303.17C297.238 303.477 297.295 303.813 297.288 304.18L297.278 304.62H292.988L292.758 303.8H296.388L296.238 303.97V303.73C296.218 303.51 296.145 303.313 296.018 303.14C295.891 302.967 295.731 302.83 295.538 302.73C295.345 302.63 295.135 302.58 294.908 302.58C294.548 302.58 294.245 302.65 293.998 302.79C293.751 302.923 293.565 303.123 293.438 303.39C293.311 303.65 293.248 303.973 293.248 304.36C293.248 304.727 293.325 305.047 293.478 305.32C293.631 305.587 293.848 305.793 294.128 305.94C294.408 306.087 294.731 306.16 295.098 306.16C295.358 306.16 295.598 306.117 295.818 306.03C296.045 305.943 296.288 305.787 296.548 305.56L297.068 306.29C296.908 306.45 296.711 306.59 296.478 306.71C296.251 306.83 296.008 306.927 295.748 307C295.495 307.067 295.245 307.1 294.998 307.1Z" fill="#3B3B3B"/>
<rect x="103" y="326" width="112" height="7" rx="3.5" fill="#E4E6EA"/>
<rect x="264" y="326" width="112" height="7" rx="3.5" fill="#E4E6EA"/>
<rect x="92.25" y="316.25" width="133.5" height="26.5" rx="3.75" stroke="#E4E6EA" stroke-width="0.5"/>
<rect x="253.25" y="316.25" width="133.5" height="26.5" rx="3.75" stroke="#E4E6EA" stroke-width="0.5"/>
<rect x="82" y="359" width="315" height="74" rx="9" fill="white"/>
<path d="M92.98 379V372H95.96C96.36 372 96.7267 372.1 97.06 372.3C97.4 372.493 97.67 372.76 97.87 373.1C98.07 373.433 98.17 373.81 98.17 374.23C98.17 374.61 98.07 374.963 97.87 375.29C97.67 375.617 97.4033 375.88 97.07 376.08C96.7367 376.273 96.3667 376.37 95.96 376.37H94.06V379H92.98ZM97.14 379L95.36 375.84L96.47 375.59L98.45 379.01L97.14 379ZM94.06 375.33H96.06C96.2533 375.33 96.4267 375.283 96.58 375.19C96.7333 375.09 96.8533 374.957 96.94 374.79C97.0267 374.617 97.07 374.427 97.07 374.22C97.07 373.987 97.0133 373.783 96.9 373.61C96.7933 373.43 96.64 373.29 96.44 373.19C96.2467 373.09 96.0267 373.04 95.78 373.04H94.06V375.33ZM101.928 379.1C101.388 379.1 100.908 378.987 100.488 378.76C100.074 378.527 99.7478 378.21 99.5078 377.81C99.2745 377.41 99.1578 376.95 99.1578 376.43C99.1578 376.017 99.2245 375.64 99.3578 375.3C99.4911 374.96 99.6745 374.667 99.9078 374.42C100.148 374.167 100.431 373.973 100.758 373.84C101.091 373.7 101.451 373.63 101.838 373.63C102.178 373.63 102.494 373.697 102.788 373.83C103.081 373.957 103.334 374.133 103.548 374.36C103.768 374.587 103.934 374.857 104.048 375.17C104.168 375.477 104.224 375.813 104.218 376.18L104.208 376.62H99.9178L99.6878 375.8H103.318L103.168 375.97V375.73C103.148 375.51 103.074 375.313 102.948 375.14C102.821 374.967 102.661 374.83 102.468 374.73C102.274 374.63 102.064 374.58 101.838 374.58C101.478 374.58 101.174 374.65 100.928 374.79C100.681 374.923 100.494 375.123 100.368 375.39C100.241 375.65 100.178 375.973 100.178 376.36C100.178 376.727 100.254 377.047 100.408 377.32C100.561 377.587 100.778 377.793 101.058 377.94C101.338 378.087 101.661 378.16 102.028 378.16C102.288 378.16 102.528 378.117 102.748 378.03C102.974 377.943 103.218 377.787 103.478 377.56L103.998 378.29C103.838 378.45 103.641 378.59 103.408 378.71C103.181 378.83 102.938 378.927 102.678 379C102.424 379.067 102.174 379.1 101.928 379.1ZM105.317 379V373.75H106.357V374.87L106.167 374.99C106.221 374.817 106.304 374.65 106.417 374.49C106.537 374.33 106.681 374.19 106.847 374.07C107.021 373.943 107.204 373.843 107.397 373.77C107.597 373.697 107.801 373.66 108.007 373.66C108.307 373.66 108.571 373.71 108.797 373.81C109.024 373.91 109.211 374.06 109.357 374.26C109.504 374.46 109.611 374.71 109.677 375.01L109.517 374.97L109.587 374.8C109.661 374.647 109.761 374.503 109.887 374.37C110.021 374.23 110.171 374.107 110.337 374C110.504 373.893 110.681 373.81 110.867 373.75C111.054 373.69 111.237 373.66 111.417 373.66C111.811 373.66 112.134 373.74 112.387 373.9C112.647 374.06 112.841 374.303 112.967 374.63C113.101 374.957 113.167 375.363 113.167 375.85V379H112.127V375.91C112.127 375.61 112.087 375.367 112.007 375.18C111.934 374.987 111.821 374.843 111.667 374.75C111.514 374.657 111.317 374.61 111.077 374.61C110.891 374.61 110.714 374.643 110.547 374.71C110.387 374.77 110.247 374.857 110.127 374.97C110.007 375.083 109.914 375.217 109.847 375.37C109.781 375.517 109.747 375.68 109.747 375.86V379H108.707V375.89C108.707 375.617 108.667 375.387 108.587 375.2C108.507 375.007 108.391 374.86 108.237 374.76C108.084 374.66 107.897 374.61 107.677 374.61C107.491 374.61 107.317 374.643 107.157 374.71C106.997 374.77 106.857 374.857 106.737 374.97C106.617 375.077 106.524 375.207 106.457 375.36C106.391 375.507 106.357 375.667 106.357 375.84V379H105.317ZM116.566 379.1C116.133 379.1 115.736 378.98 115.376 378.74C115.023 378.5 114.74 378.173 114.526 377.76C114.313 377.347 114.206 376.88 114.206 376.36C114.206 375.833 114.313 375.367 114.526 374.96C114.746 374.547 115.04 374.223 115.406 373.99C115.78 373.757 116.196 373.64 116.656 373.64C116.93 373.64 117.18 373.68 117.406 373.76C117.633 373.84 117.83 373.953 117.996 374.1C118.17 374.24 118.31 374.403 118.416 374.59C118.53 374.777 118.6 374.977 118.626 375.19L118.396 375.11V373.75H119.436V379H118.396V377.75L118.636 377.68C118.596 377.86 118.513 378.037 118.386 378.21C118.266 378.377 118.11 378.527 117.916 378.66C117.73 378.793 117.52 378.9 117.286 378.98C117.06 379.06 116.82 379.1 116.566 379.1ZM116.836 378.15C117.15 378.15 117.426 378.073 117.666 377.92C117.906 377.767 118.093 377.557 118.226 377.29C118.366 377.017 118.436 376.707 118.436 376.36C118.436 376.02 118.366 375.717 118.226 375.45C118.093 375.183 117.906 374.973 117.666 374.82C117.426 374.667 117.15 374.59 116.836 374.59C116.53 374.59 116.256 374.667 116.016 374.82C115.783 374.973 115.596 375.183 115.456 375.45C115.323 375.717 115.256 376.02 115.256 376.36C115.256 376.707 115.323 377.017 115.456 377.29C115.596 377.557 115.783 377.767 116.016 377.92C116.256 378.073 116.53 378.15 116.836 378.15ZM120.874 379V373.75H121.914V375.4L121.814 375C121.888 374.747 122.011 374.517 122.184 374.31C122.364 374.103 122.568 373.94 122.794 373.82C123.028 373.7 123.268 373.64 123.514 373.64C123.628 373.64 123.734 373.65 123.834 373.67C123.941 373.69 124.024 373.713 124.084 373.74L123.814 374.86C123.734 374.827 123.644 374.8 123.544 374.78C123.451 374.753 123.358 374.74 123.264 374.74C123.084 374.74 122.911 374.777 122.744 374.85C122.584 374.917 122.441 375.013 122.314 375.14C122.194 375.26 122.098 375.403 122.024 375.57C121.951 375.73 121.914 375.907 121.914 376.1V379H120.874ZM125.848 377.36L125.798 376.24L128.308 373.75H129.697L125.848 377.36ZM124.908 379V371.6H125.938V379H124.908ZM128.448 379L126.468 376.69L127.198 376.02L129.768 379H128.448Z" fill="#3B3B3B"/>
<rect x="103" y="398" width="274" height="7" rx="3.5" fill="#E4E6EA"/>
<rect x="103" y="398" width="274" height="7" rx="3.5" fill="#E4E6EA"/>
<rect x="92.25" y="388.25" width="294.5" height="38.5" rx="3.75" stroke="#E4E6EA" stroke-width="0.5"/>
</svg>
