<svg width="480" height="540" viewBox="0 0 480 540" fill="none" xmlns="http://www.w3.org/2000/svg">
<path d="M85 76H396C405.389 76 413 83.6112 413 93V447C413 456.389 405.389 464 396 464H85C75.6111 464 68 456.389 68 447V93C68 83.6112 75.6111 76 85 76Z" fill="#F1F5F7"/>
<path d="M84.911 121V106.3H91.148C92.03 106.3 92.821 106.51 93.521 106.93C94.221 107.336 94.774 107.896 95.18 108.61C95.6 109.324 95.81 110.129 95.81 111.025C95.81 111.935 95.6 112.754 95.18 113.482C94.774 114.21 94.221 114.791 93.521 115.225C92.821 115.645 92.03 115.855 91.148 115.855H88.061V121H84.911ZM88.019 113.02H90.791C91.127 113.02 91.428 112.936 91.694 112.768C91.96 112.586 92.17 112.348 92.324 112.054C92.492 111.76 92.576 111.424 92.576 111.046C92.576 110.668 92.492 110.339 92.324 110.059C92.17 109.779 91.96 109.555 91.694 109.387C91.428 109.219 91.127 109.135 90.791 109.135H88.019V113.02ZM103.172 121.21C102.038 121.21 101.023 120.965 100.127 120.475C99.2446 119.971 98.5446 119.285 98.0266 118.417C97.5226 117.549 97.2706 116.555 97.2706 115.435C97.2706 114.315 97.5226 113.321 98.0266 112.453C98.5446 111.585 99.2446 110.906 100.127 110.416C101.023 109.912 102.038 109.66 103.172 109.66C104.292 109.66 105.293 109.912 106.175 110.416C107.071 110.906 107.771 111.585 108.275 112.453C108.779 113.321 109.031 114.315 109.031 115.435C109.031 116.555 108.779 117.549 108.275 118.417C107.771 119.285 107.071 119.971 106.175 120.475C105.293 120.965 104.292 121.21 103.172 121.21ZM103.172 118.606C103.718 118.606 104.208 118.473 104.642 118.207C105.076 117.927 105.412 117.549 105.65 117.073C105.902 116.583 106.021 116.037 106.007 115.435C106.021 114.819 105.902 114.273 105.65 113.797C105.412 113.307 105.076 112.929 104.642 112.663C104.208 112.383 103.718 112.243 103.172 112.243C102.612 112.243 102.115 112.383 101.681 112.663C101.247 112.943 100.904 113.321 100.652 113.797C100.4 114.273 100.281 114.819 100.295 115.435C100.281 116.037 100.4 116.583 100.652 117.073C100.904 117.549 101.247 117.927 101.681 118.207C102.115 118.473 102.612 118.606 103.172 118.606ZM111.295 121V109.891H114.172L114.277 113.461L113.773 112.726C113.941 112.152 114.214 111.634 114.592 111.172C114.97 110.696 115.411 110.325 115.915 110.059C116.433 109.793 116.972 109.66 117.532 109.66C117.77 109.66 118.001 109.681 118.225 109.723C118.449 109.765 118.638 109.814 118.792 109.87L117.994 113.146C117.84 113.062 117.637 112.992 117.385 112.936C117.147 112.866 116.902 112.831 116.65 112.831C116.314 112.831 115.999 112.894 115.705 113.02C115.425 113.132 115.18 113.3 114.97 113.524C114.76 113.734 114.592 113.986 114.466 114.28C114.354 114.574 114.298 114.896 114.298 115.246V121H111.295ZM121.984 121V107.077H124.966V121H121.984ZM119.905 112.558V109.891H127.255V112.558H119.905ZM129.505 121V109.114C129.505 108.428 129.659 107.805 129.967 107.245C130.275 106.685 130.695 106.244 131.227 105.922C131.773 105.6 132.41 105.439 133.138 105.439C133.628 105.439 134.09 105.523 134.524 105.691C134.958 105.845 135.329 106.055 135.637 106.321L134.755 108.526C134.573 108.414 134.384 108.323 134.188 108.253C134.006 108.169 133.838 108.127 133.684 108.127C133.418 108.127 133.194 108.176 133.012 108.274C132.844 108.358 132.718 108.491 132.634 108.673C132.55 108.841 132.508 109.058 132.508 109.324V121H131.017C130.695 121 130.408 121 130.156 121C129.904 121 129.687 121 129.505 121ZM127.846 112.684V110.164H134.902V112.684H127.846ZM141.644 121.21C140.51 121.21 139.495 120.965 138.599 120.475C137.717 119.971 137.017 119.285 136.499 118.417C135.995 117.549 135.743 116.555 135.743 115.435C135.743 114.315 135.995 113.321 136.499 112.453C137.017 111.585 137.717 110.906 138.599 110.416C139.495 109.912 140.51 109.66 141.644 109.66C142.764 109.66 143.765 109.912 144.647 110.416C145.543 110.906 146.243 111.585 146.747 112.453C147.251 113.321 147.503 114.315 147.503 115.435C147.503 116.555 147.251 117.549 146.747 118.417C146.243 119.285 145.543 119.971 144.647 120.475C143.765 120.965 142.764 121.21 141.644 121.21ZM141.644 118.606C142.19 118.606 142.68 118.473 143.114 118.207C143.548 117.927 143.884 117.549 144.122 117.073C144.374 116.583 144.493 116.037 144.479 115.435C144.493 114.819 144.374 114.273 144.122 113.797C143.884 113.307 143.548 112.929 143.114 112.663C142.68 112.383 142.19 112.243 141.644 112.243C141.084 112.243 140.587 112.383 140.153 112.663C139.719 112.943 139.376 113.321 139.124 113.797C138.872 114.273 138.753 114.819 138.767 115.435C138.753 116.037 138.872 116.583 139.124 117.073C139.376 117.549 139.719 117.927 140.153 118.207C140.587 118.473 141.084 118.606 141.644 118.606ZM149.788 121V105.46H152.77V121H149.788ZM156.049 121V109.891H159.031V121H156.049ZM157.519 107.623C156.945 107.623 156.497 107.483 156.175 107.203C155.853 106.909 155.692 106.503 155.692 105.985C155.692 105.509 155.853 105.124 156.175 104.83C156.511 104.522 156.959 104.368 157.519 104.368C158.093 104.368 158.541 104.515 158.863 104.809C159.185 105.089 159.346 105.481 159.346 105.985C159.346 106.461 159.178 106.853 158.842 107.161C158.52 107.469 158.079 107.623 157.519 107.623ZM167.382 121.21C166.248 121.21 165.233 120.965 164.337 120.475C163.455 119.971 162.755 119.285 162.237 118.417C161.733 117.549 161.481 116.555 161.481 115.435C161.481 114.315 161.733 113.321 162.237 112.453C162.755 111.585 163.455 110.906 164.337 110.416C165.233 109.912 166.248 109.66 167.382 109.66C168.502 109.66 169.503 109.912 170.385 110.416C171.281 110.906 171.981 111.585 172.485 112.453C172.989 113.321 173.241 114.315 173.241 115.435C173.241 116.555 172.989 117.549 172.485 118.417C171.981 119.285 171.281 119.971 170.385 120.475C169.503 120.965 168.502 121.21 167.382 121.21ZM167.382 118.606C167.928 118.606 168.418 118.473 168.852 118.207C169.286 117.927 169.622 117.549 169.86 117.073C170.112 116.583 170.231 116.037 170.217 115.435C170.231 114.819 170.112 114.273 169.86 113.797C169.622 113.307 169.286 112.929 168.852 112.663C168.418 112.383 167.928 112.243 167.382 112.243C166.822 112.243 166.325 112.383 165.891 112.663C165.457 112.943 165.114 113.321 164.862 113.797C164.61 114.273 164.491 114.819 164.505 115.435C164.491 116.037 164.61 116.583 164.862 117.073C165.114 117.549 165.457 117.927 165.891 118.207C166.325 118.473 166.822 118.606 167.382 118.606ZM188.895 121.21C187.803 121.21 186.802 121.021 185.892 120.643C184.982 120.265 184.184 119.74 183.498 119.068C182.826 118.382 182.308 117.577 181.944 116.653C181.58 115.715 181.398 114.7 181.398 113.608C181.398 112.502 181.58 111.487 181.944 110.563C182.308 109.639 182.826 108.841 183.498 108.169C184.184 107.483 184.982 106.951 185.892 106.573C186.802 106.195 187.796 106.006 188.874 106.006C189.966 106.006 190.96 106.195 191.856 106.573C192.766 106.951 193.557 107.483 194.229 108.169C194.915 108.855 195.44 109.66 195.804 110.584C196.168 111.508 196.35 112.516 196.35 113.608C196.35 114.7 196.168 115.708 195.804 116.632C195.44 117.556 194.915 118.361 194.229 119.047C193.557 119.733 192.766 120.265 191.856 120.643C190.96 121.021 189.973 121.21 188.895 121.21ZM188.874 118.228C189.504 118.228 190.078 118.116 190.596 117.892C191.114 117.654 191.562 117.332 191.94 116.926C192.318 116.506 192.612 116.016 192.822 115.456C193.046 114.896 193.158 114.28 193.158 113.608C193.158 112.936 193.046 112.32 192.822 111.76C192.612 111.2 192.318 110.717 191.94 110.311C191.562 109.891 191.114 109.569 190.596 109.345C190.078 109.107 189.504 108.988 188.874 108.988C188.258 108.988 187.691 109.107 187.173 109.345C186.655 109.569 186.2 109.891 185.808 110.311C185.416 110.717 185.115 111.2 184.905 111.76C184.709 112.32 184.611 112.936 184.611 113.608C184.611 114.28 184.709 114.896 184.905 115.456C185.115 116.016 185.416 116.506 185.808 116.926C186.2 117.332 186.655 117.654 187.173 117.892C187.691 118.116 188.258 118.228 188.874 118.228ZM202.267 121L197.605 109.891H200.881L203.842 118.186L203.149 118.312L206.257 109.891H209.449L204.556 121H202.267ZM216.234 121.21C215.03 121.21 213.973 120.965 213.063 120.475C212.167 119.985 211.467 119.313 210.963 118.459C210.473 117.605 210.228 116.625 210.228 115.519C210.228 114.651 210.368 113.86 210.648 113.146C210.928 112.432 211.32 111.816 211.824 111.298C212.328 110.766 212.923 110.36 213.609 110.08C214.309 109.786 215.065 109.639 215.877 109.639C216.633 109.639 217.333 109.779 217.977 110.059C218.621 110.339 219.174 110.731 219.636 111.235C220.112 111.725 220.476 112.313 220.728 112.999C220.98 113.671 221.092 114.399 221.064 115.183L221.043 116.107H212.118L211.635 114.28H218.586L218.25 114.658V114.196C218.222 113.818 218.096 113.482 217.872 113.188C217.662 112.88 217.389 112.642 217.053 112.474C216.717 112.292 216.339 112.201 215.919 112.201C215.303 112.201 214.778 112.32 214.344 112.558C213.924 112.796 213.602 113.146 213.378 113.608C213.154 114.07 213.042 114.63 213.042 115.288C213.042 115.96 213.182 116.541 213.462 117.031C213.756 117.521 214.162 117.906 214.68 118.186C215.212 118.452 215.835 118.585 216.549 118.585C217.039 118.585 217.487 118.508 217.893 118.354C218.299 118.2 218.733 117.934 219.195 117.556L220.623 119.551C220.217 119.915 219.769 120.223 219.279 120.475C218.789 120.713 218.285 120.895 217.767 121.021C217.249 121.147 216.738 121.21 216.234 121.21ZM223.267 121V109.891H226.144L226.249 113.461L225.745 112.726C225.913 112.152 226.186 111.634 226.564 111.172C226.942 110.696 227.383 110.325 227.887 110.059C228.405 109.793 228.944 109.66 229.504 109.66C229.742 109.66 229.973 109.681 230.197 109.723C230.421 109.765 230.61 109.814 230.764 109.87L229.966 113.146C229.812 113.062 229.609 112.992 229.357 112.936C229.119 112.866 228.874 112.831 228.622 112.831C228.286 112.831 227.971 112.894 227.677 113.02C227.397 113.132 227.152 113.3 226.942 113.524C226.732 113.734 226.564 113.986 226.438 114.28C226.326 114.574 226.27 114.896 226.27 115.246V121H223.267ZM237.007 121L232.345 109.891H235.621L238.582 118.186L237.889 118.312L240.997 109.891H244.189L239.296 121H237.007ZM246.263 121V109.891H249.245V121H246.263ZM247.733 107.623C247.159 107.623 246.711 107.483 246.389 107.203C246.067 106.909 245.906 106.503 245.906 105.985C245.906 105.509 246.067 105.124 246.389 104.83C246.725 104.522 247.173 104.368 247.733 104.368C248.307 104.368 248.755 104.515 249.077 104.809C249.399 105.089 249.56 105.481 249.56 105.985C249.56 106.461 249.392 106.853 249.056 107.161C248.734 107.469 248.293 107.623 247.733 107.623ZM257.7 121.21C256.496 121.21 255.439 120.965 254.529 120.475C253.633 119.985 252.933 119.313 252.429 118.459C251.939 117.605 251.694 116.625 251.694 115.519C251.694 114.651 251.834 113.86 252.114 113.146C252.394 112.432 252.786 111.816 253.29 111.298C253.794 110.766 254.389 110.36 255.075 110.08C255.775 109.786 256.531 109.639 257.343 109.639C258.099 109.639 258.799 109.779 259.443 110.059C260.087 110.339 260.64 110.731 261.102 111.235C261.578 111.725 261.942 112.313 262.194 112.999C262.446 113.671 262.558 114.399 262.53 115.183L262.509 116.107H253.584L253.101 114.28H260.052L259.716 114.658V114.196C259.688 113.818 259.562 113.482 259.338 113.188C259.128 112.88 258.855 112.642 258.519 112.474C258.183 112.292 257.805 112.201 257.385 112.201C256.769 112.201 256.244 112.32 255.81 112.558C255.39 112.796 255.068 113.146 254.844 113.608C254.62 114.07 254.508 114.63 254.508 115.288C254.508 115.96 254.648 116.541 254.928 117.031C255.222 117.521 255.628 117.906 256.146 118.186C256.678 118.452 257.301 118.585 258.015 118.585C258.505 118.585 258.953 118.508 259.359 118.354C259.765 118.2 260.199 117.934 260.661 117.556L262.089 119.551C261.683 119.915 261.235 120.223 260.745 120.475C260.255 120.713 259.751 120.895 259.233 121.021C258.715 121.147 258.204 121.21 257.7 121.21ZM267.07 121L263.353 109.891L266.461 109.87L268.729 117.451L268.267 117.388L270.766 111.487H272.53L275.134 117.409L274.63 117.451L276.898 109.891H280.006L276.226 121H274.063L271.438 114.679L271.774 114.721L269.212 121H267.07Z" fill="black"/>
<rect x="157.136" y="149.136" width="147.727" height="294.318" rx="11.3636" fill="#F1F5F7" stroke="black" stroke-width="2.27272"/>
<g clip-path="url(#clip0_599_2984)">
<path d="M292.324 156.264H285.661C285.405 156.265 285.161 156.367 284.98 156.547C284.8 156.728 284.698 156.972 284.697 157.228V159.796C284.698 160.052 284.8 160.296 284.98 160.477C285.161 160.657 285.405 160.759 285.661 160.76H292.324C292.579 160.759 292.824 160.657 293.004 160.477C293.185 160.296 293.286 160.052 293.287 159.796V157.228C293.286 156.972 293.185 156.728 293.004 156.547C292.824 156.367 292.579 156.265 292.324 156.264ZM292.725 159.796C292.725 159.903 292.683 160.005 292.608 160.081C292.532 160.156 292.43 160.199 292.324 160.199H285.661C285.554 160.199 285.452 160.156 285.377 160.081C285.302 160.006 285.26 159.904 285.259 159.798V157.228C285.26 157.121 285.302 157.019 285.377 156.944C285.452 156.869 285.554 156.827 285.661 156.826H292.324C292.43 156.827 292.532 156.869 292.607 156.944C292.682 157.019 292.725 157.121 292.725 157.228V159.796Z" fill="black"/>
<path d="M293.688 157.48V159.544C294.009 159.544 294.33 158.988 294.33 158.512C294.33 158.037 294.009 157.48 293.688 157.48Z" fill="black"/>
<path d="M292.083 157.228H285.901C285.837 157.228 285.776 157.253 285.731 157.298C285.686 157.344 285.66 157.405 285.66 157.468V159.556C285.66 159.62 285.686 159.681 285.731 159.726C285.776 159.771 285.837 159.796 285.901 159.796H292.083C292.147 159.796 292.208 159.771 292.253 159.726C292.298 159.681 292.323 159.62 292.324 159.556V157.468C292.323 157.405 292.298 157.344 292.253 157.298C292.208 157.253 292.147 157.228 292.083 157.228Z" fill="black"/>
<path d="M283.055 157.497C282.193 156.704 281.066 156.264 279.895 156.264C278.724 156.264 277.596 156.704 276.735 157.497C276.719 157.512 276.706 157.53 276.697 157.549C276.689 157.569 276.684 157.59 276.684 157.612C276.683 157.633 276.687 157.655 276.696 157.675C276.704 157.695 276.716 157.713 276.731 157.728L277.075 158.069C277.105 158.098 277.145 158.115 277.186 158.116C277.228 158.116 277.269 158.101 277.3 158.072C278.009 157.425 278.935 157.066 279.895 157.066C280.855 157.066 281.781 157.425 282.49 158.072C282.521 158.101 282.561 158.116 282.603 158.116C282.645 158.115 282.685 158.098 282.715 158.069L283.059 157.728C283.074 157.713 283.086 157.695 283.094 157.675C283.103 157.655 283.107 157.633 283.106 157.612C283.106 157.59 283.101 157.569 283.092 157.549C283.083 157.53 283.071 157.512 283.055 157.497ZM279.895 159.475C279.768 159.475 279.644 159.513 279.538 159.584C279.433 159.654 279.35 159.754 279.302 159.872C279.253 159.989 279.24 160.118 279.265 160.243C279.29 160.367 279.351 160.482 279.441 160.572C279.531 160.662 279.645 160.723 279.77 160.747C279.894 160.772 280.023 160.76 280.141 160.711C280.258 160.662 280.358 160.58 280.429 160.474C280.5 160.369 280.537 160.245 280.537 160.118C280.537 159.947 280.47 159.784 280.349 159.663C280.229 159.543 280.065 159.475 279.895 159.475ZM281.93 158.637C281.368 158.142 280.645 157.87 279.896 157.87C279.148 157.87 278.425 158.142 277.862 158.637C277.846 158.651 277.833 158.669 277.824 158.688C277.814 158.708 277.809 158.73 277.809 158.752C277.808 158.773 277.812 158.795 277.821 158.815C277.829 158.835 277.841 158.854 277.857 158.869L278.202 159.21C278.231 159.239 278.271 159.256 278.312 159.258C278.353 159.259 278.394 159.245 278.425 159.218C278.835 158.866 279.357 158.672 279.897 158.672C280.438 158.672 280.96 158.866 281.37 159.218C281.401 159.245 281.442 159.259 281.483 159.258C281.524 159.256 281.563 159.239 281.593 159.21L281.938 158.869C281.954 158.854 281.966 158.835 281.974 158.815C281.982 158.794 281.985 158.773 281.985 158.751C281.984 158.729 281.979 158.708 281.969 158.688C281.96 158.668 281.946 158.651 281.93 158.637Z" fill="black"/>
<path d="M271.583 158.793H271.161C271.124 158.793 271.088 158.808 271.062 158.834C271.035 158.861 271.02 158.896 271.02 158.934V160.619C271.02 160.637 271.024 160.655 271.031 160.673C271.038 160.69 271.049 160.705 271.062 160.718C271.075 160.731 271.09 160.742 271.107 160.749C271.124 160.756 271.143 160.759 271.161 160.759H271.583C271.601 160.759 271.619 160.756 271.636 160.749C271.653 160.742 271.669 160.731 271.682 160.718C271.695 160.705 271.705 160.69 271.712 160.673C271.719 160.655 271.723 160.637 271.723 160.619V158.935C271.723 158.917 271.72 158.898 271.713 158.881C271.706 158.864 271.696 158.848 271.683 158.835C271.669 158.822 271.654 158.811 271.637 158.804C271.62 158.797 271.601 158.793 271.583 158.793ZM270.459 159.635H270.037C270 159.635 269.964 159.649 269.938 159.676C269.911 159.702 269.896 159.738 269.896 159.775V160.62C269.896 160.658 269.911 160.693 269.938 160.72C269.964 160.746 270 160.761 270.037 160.761H270.459C270.477 160.761 270.496 160.757 270.513 160.75C270.53 160.743 270.545 160.733 270.559 160.72C270.572 160.707 270.582 160.691 270.589 160.674C270.596 160.657 270.6 160.639 270.6 160.62V159.776C270.6 159.758 270.597 159.739 270.59 159.722C270.583 159.705 270.572 159.689 270.559 159.676C270.546 159.663 270.53 159.652 270.513 159.645C270.496 159.638 270.477 159.635 270.459 159.635ZM272.707 157.95H272.285C272.248 157.95 272.212 157.964 272.186 157.991C272.16 158.017 272.145 158.053 272.145 158.09V160.62C272.145 160.658 272.16 160.693 272.186 160.72C272.212 160.746 272.248 160.761 272.285 160.761H272.707C272.744 160.761 272.78 160.746 272.806 160.72C272.833 160.693 272.847 160.658 272.847 160.62V158.091C272.847 158.072 272.844 158.054 272.837 158.037C272.83 158.019 272.819 158.004 272.806 157.991C272.793 157.978 272.778 157.967 272.76 157.96C272.743 157.953 272.725 157.949 272.707 157.95ZM273.831 157.107H273.409C273.372 157.107 273.336 157.121 273.31 157.148C273.283 157.174 273.268 157.21 273.268 157.247V160.62C273.268 160.658 273.283 160.693 273.31 160.72C273.336 160.746 273.372 160.761 273.409 160.761H273.831C273.868 160.761 273.903 160.746 273.929 160.719C273.956 160.693 273.97 160.658 273.97 160.62V157.248C273.97 157.211 273.956 157.175 273.929 157.149C273.903 157.122 273.867 157.107 273.83 157.107L273.831 157.107ZM274.954 156.264H274.533C274.495 156.264 274.46 156.279 274.433 156.306C274.407 156.332 274.392 156.368 274.392 156.405V160.62C274.392 160.658 274.407 160.693 274.433 160.72C274.46 160.746 274.495 160.761 274.533 160.761H274.954C274.991 160.761 275.027 160.746 275.054 160.72C275.08 160.693 275.095 160.658 275.095 160.62V156.405C275.095 156.368 275.08 156.332 275.054 156.306C275.027 156.279 274.991 156.264 274.954 156.264Z" fill="black"/>
<path d="M169.274 159.026H169.255C169.15 159.077 169.026 159.102 168.883 159.102C168.762 159.102 168.64 159.082 168.516 159.04C168.392 158.999 168.279 158.935 168.177 158.85C168.079 158.76 167.998 158.649 167.934 158.516C167.871 158.379 167.839 158.218 167.839 158.034C167.839 157.85 167.869 157.687 167.929 157.547C167.993 157.404 168.077 157.285 168.182 157.19C168.287 157.094 168.41 157.023 168.549 156.975C168.689 156.924 168.839 156.899 168.998 156.899C169.157 156.899 169.306 156.924 169.446 156.975C169.586 157.026 169.708 157.099 169.813 157.195C169.918 157.29 170.001 157.404 170.061 157.538C170.125 157.671 170.157 157.821 170.157 157.986C170.157 158.091 170.149 158.187 170.133 158.272C170.117 158.358 170.093 158.441 170.061 158.52C170.033 158.597 169.998 158.673 169.956 158.749C169.915 158.826 169.869 158.904 169.818 158.983L168.964 160.333H168.425L169.274 159.026ZM169.699 158.001C169.699 157.899 169.681 157.805 169.646 157.719C169.615 157.633 169.567 157.56 169.503 157.5C169.443 157.436 169.37 157.387 169.284 157.352C169.198 157.317 169.103 157.299 168.998 157.299C168.893 157.299 168.797 157.317 168.712 157.352C168.626 157.387 168.551 157.436 168.487 157.5C168.427 157.56 168.379 157.633 168.344 157.719C168.313 157.805 168.297 157.899 168.297 158.001C168.297 158.102 168.313 158.196 168.344 158.282C168.379 158.368 168.427 158.443 168.487 158.506C168.551 158.567 168.626 158.614 168.712 158.649C168.797 158.684 168.893 158.702 168.998 158.702C169.103 158.702 169.198 158.684 169.284 158.649C169.37 158.614 169.443 158.567 169.503 158.506C169.567 158.443 169.615 158.368 169.646 158.282C169.681 158.196 169.699 158.102 169.699 158.001ZM170.985 158.673C170.899 158.673 170.824 158.643 170.761 158.582C170.7 158.519 170.67 158.444 170.67 158.358C170.67 158.272 170.7 158.199 170.761 158.139C170.824 158.075 170.899 158.043 170.985 158.043C171.071 158.043 171.144 158.075 171.204 158.139C171.268 158.199 171.3 158.272 171.3 158.358C171.3 158.444 171.268 158.519 171.204 158.582C171.144 158.643 171.071 158.673 170.985 158.673ZM170.67 160.047C170.67 159.961 170.7 159.888 170.761 159.827C170.824 159.764 170.899 159.732 170.985 159.732C171.071 159.732 171.144 159.764 171.204 159.827C171.268 159.888 171.3 159.961 171.3 160.047C171.3 160.132 171.268 160.207 171.204 160.271C171.144 160.331 171.071 160.361 170.985 160.361C170.899 160.361 170.824 160.331 170.761 160.271C170.7 160.207 170.67 160.132 170.67 160.047ZM173.252 159.589H171.812V159.121L173.157 156.956H173.71V159.188H174.187V159.589H173.71V160.333H173.252V159.589ZM173.252 157.5H173.242L172.212 159.188H173.252V157.5ZM175.587 157.481L174.967 158.053L174.7 157.733L175.64 156.956H176.045V160.333H175.587V157.481Z" fill="black"/>
</g>
<path d="M210.827 190L208.825 186.464H207.967V190H206.147V180.926H209.553C210.255 180.926 210.853 181.052 211.347 181.303C211.841 181.546 212.21 181.879 212.452 182.304C212.704 182.72 212.829 183.188 212.829 183.708C212.829 184.306 212.656 184.848 212.309 185.333C211.963 185.81 211.447 186.139 210.762 186.321L212.933 190H210.827ZM207.967 185.099H209.488C209.982 185.099 210.351 184.982 210.593 184.748C210.836 184.505 210.957 184.172 210.957 183.747C210.957 183.331 210.836 183.01 210.593 182.785C210.351 182.551 209.982 182.434 209.488 182.434H207.967V185.099ZM221.171 186.243C221.171 186.503 221.153 186.737 221.119 186.945H215.854C215.897 187.465 216.079 187.872 216.4 188.167C216.72 188.462 217.115 188.609 217.583 188.609C218.259 188.609 218.74 188.319 219.026 187.738H220.989C220.781 188.431 220.382 189.003 219.793 189.454C219.203 189.896 218.48 190.117 217.622 190.117C216.928 190.117 216.304 189.965 215.75 189.662C215.204 189.35 214.775 188.912 214.463 188.349C214.159 187.786 214.008 187.136 214.008 186.399C214.008 185.654 214.159 184.999 214.463 184.436C214.766 183.873 215.191 183.439 215.737 183.136C216.283 182.833 216.911 182.681 217.622 182.681C218.306 182.681 218.917 182.828 219.455 183.123C220.001 183.418 220.421 183.838 220.716 184.384C221.019 184.921 221.171 185.541 221.171 186.243ZM219.286 185.723C219.277 185.255 219.108 184.882 218.779 184.605C218.449 184.319 218.046 184.176 217.57 184.176C217.119 184.176 216.738 184.315 216.426 184.592C216.122 184.861 215.936 185.238 215.867 185.723H219.286ZM226.49 182.694C227.348 182.694 228.041 182.967 228.57 183.513C229.099 184.05 229.363 184.804 229.363 185.775V190H227.543V186.022C227.543 185.45 227.4 185.012 227.114 184.709C226.828 184.397 226.438 184.241 225.944 184.241C225.441 184.241 225.043 184.397 224.748 184.709C224.462 185.012 224.319 185.45 224.319 186.022V190H222.499V182.798H224.319V183.695C224.562 183.383 224.869 183.14 225.242 182.967C225.623 182.785 226.039 182.694 226.49 182.694ZM233.213 184.293V187.777C233.213 188.02 233.269 188.197 233.382 188.31C233.503 188.414 233.702 188.466 233.98 188.466H234.825V190H233.681C232.147 190 231.38 189.255 231.38 187.764V184.293H230.522V182.798H231.38V181.017H233.213V182.798H234.825V184.293H233.213ZM235.666 186.373C235.666 185.645 235.809 184.999 236.095 184.436C236.389 183.873 236.784 183.439 237.278 183.136C237.78 182.833 238.339 182.681 238.955 182.681C239.492 182.681 239.96 182.789 240.359 183.006C240.766 183.223 241.091 183.496 241.334 183.825V182.798H243.167V190H241.334V188.947C241.1 189.285 240.775 189.567 240.359 189.792C239.951 190.009 239.479 190.117 238.942 190.117C238.335 190.117 237.78 189.961 237.278 189.649C236.784 189.337 236.389 188.899 236.095 188.336C235.809 187.764 235.666 187.11 235.666 186.373ZM241.334 186.399C241.334 185.957 241.247 185.58 241.074 185.268C240.9 184.947 240.666 184.705 240.372 184.54C240.077 184.367 239.761 184.28 239.423 184.28C239.085 184.28 238.773 184.362 238.487 184.527C238.201 184.692 237.967 184.934 237.785 185.255C237.611 185.567 237.525 185.94 237.525 186.373C237.525 186.806 237.611 187.188 237.785 187.517C237.967 187.838 238.201 188.085 238.487 188.258C238.781 188.431 239.093 188.518 239.423 188.518C239.761 188.518 240.077 188.436 240.372 188.271C240.666 188.098 240.9 187.855 241.074 187.543C241.247 187.222 241.334 186.841 241.334 186.399ZM246.764 180.38V190H244.944V180.38H246.764ZM251.319 190.117C250.729 190.117 250.201 190.013 249.733 189.805C249.265 189.588 248.892 189.298 248.615 188.934C248.346 188.57 248.199 188.167 248.173 187.725H250.006C250.04 188.002 250.175 188.232 250.409 188.414C250.651 188.596 250.95 188.687 251.306 188.687C251.652 188.687 251.921 188.618 252.112 188.479C252.311 188.34 252.411 188.163 252.411 187.946C252.411 187.712 252.289 187.539 252.047 187.426C251.813 187.305 251.436 187.175 250.916 187.036C250.378 186.906 249.936 186.772 249.59 186.633C249.252 186.494 248.957 186.282 248.706 185.996C248.463 185.71 248.342 185.324 248.342 184.839C248.342 184.44 248.454 184.076 248.68 183.747C248.914 183.418 249.243 183.158 249.668 182.967C250.101 182.776 250.608 182.681 251.189 182.681C252.047 182.681 252.731 182.898 253.243 183.331C253.754 183.756 254.036 184.332 254.088 185.06H252.346C252.32 184.774 252.198 184.549 251.982 184.384C251.774 184.211 251.492 184.124 251.137 184.124C250.807 184.124 250.552 184.185 250.37 184.306C250.196 184.427 250.11 184.596 250.11 184.813C250.11 185.056 250.231 185.242 250.474 185.372C250.716 185.493 251.093 185.619 251.605 185.749C252.125 185.879 252.554 186.013 252.892 186.152C253.23 186.291 253.52 186.507 253.763 186.802C254.014 187.088 254.144 187.469 254.153 187.946C254.153 188.362 254.036 188.735 253.802 189.064C253.576 189.393 253.247 189.653 252.814 189.844C252.389 190.026 251.891 190.117 251.319 190.117Z" fill="#2C2C2C"/>
<path d="M168.809 184.992L172.781 181.218C172.922 181.084 173 180.902 173 180.713C173 180.524 172.92 180.342 172.779 180.208C172.639 180.075 172.448 180 172.249 180C172.05 180 171.859 180.076 171.719 180.21L167.218 184.492C167.082 184.622 167.004 184.797 167 184.98C166.996 185.164 167.067 185.341 167.197 185.477L171.715 189.79C171.856 189.924 172.047 190 172.245 190C172.444 190 172.635 189.925 172.776 189.792C172.917 189.658 172.996 189.476 172.997 189.287C172.997 189.098 172.918 188.916 172.778 188.782L168.809 184.992Z" fill="#2C2C2C"/>
<rect x="166" y="204" width="129" height="22" rx="4" fill="white"/>
<rect x="166" y="231" width="129" height="22" rx="4" fill="white"/>
<rect x="174" y="234" width="91" height="16" rx="4" fill="#E4E6EA"/>
<path d="M174.588 217V212.8H176.298C176.526 212.8 176.732 212.858 176.916 212.974C177.104 213.086 177.254 213.24 177.366 213.436C177.478 213.632 177.534 213.85 177.534 214.09C177.534 214.33 177.478 214.548 177.366 214.744C177.254 214.94 177.104 215.098 176.916 215.218C176.732 215.334 176.526 215.392 176.298 215.392H175.236V217H174.588ZM175.236 214.768H176.286C176.394 214.768 176.492 214.738 176.58 214.678C176.668 214.614 176.738 214.532 176.79 214.432C176.846 214.328 176.874 214.214 176.874 214.09C176.874 213.966 176.846 213.854 176.79 213.754C176.738 213.654 176.668 213.574 176.58 213.514C176.492 213.454 176.394 213.424 176.286 213.424H175.236V214.768ZM178.235 217V213.85H178.859V214.84L178.799 214.6C178.843 214.448 178.917 214.31 179.021 214.186C179.129 214.062 179.251 213.964 179.387 213.892C179.527 213.82 179.671 213.784 179.819 213.784C179.887 213.784 179.951 213.79 180.011 213.802C180.075 213.814 180.125 213.828 180.161 213.844L179.999 214.516C179.951 214.496 179.897 214.48 179.837 214.468C179.781 214.452 179.725 214.444 179.669 214.444C179.561 214.444 179.457 214.466 179.357 214.51C179.261 214.55 179.175 214.608 179.099 214.684C179.027 214.756 178.969 214.842 178.925 214.942C178.881 215.038 178.859 215.144 178.859 215.26V217H178.235ZM181.936 217.06C181.628 217.06 181.352 216.99 181.108 216.85C180.868 216.706 180.678 216.512 180.538 216.268C180.398 216.02 180.328 215.738 180.328 215.422C180.328 215.106 180.398 214.826 180.538 214.582C180.678 214.334 180.868 214.14 181.108 214C181.352 213.856 181.628 213.784 181.936 213.784C182.24 213.784 182.512 213.856 182.752 214C182.996 214.14 183.188 214.334 183.328 214.582C183.468 214.826 183.538 215.106 183.538 215.422C183.538 215.738 183.468 216.02 183.328 216.268C183.188 216.512 182.996 216.706 182.752 216.85C182.512 216.99 182.24 217.06 181.936 217.06ZM181.936 216.496C182.124 216.496 182.292 216.45 182.44 216.358C182.588 216.262 182.704 216.134 182.788 215.974C182.872 215.81 182.912 215.626 182.908 215.422C182.912 215.214 182.872 215.03 182.788 214.87C182.704 214.706 182.588 214.578 182.44 214.486C182.292 214.394 182.124 214.348 181.936 214.348C181.748 214.348 181.578 214.396 181.426 214.492C181.278 214.584 181.162 214.712 181.078 214.876C180.994 215.036 180.954 215.218 180.958 215.422C180.954 215.626 180.994 215.81 181.078 215.974C181.162 216.134 181.278 216.262 181.426 216.358C181.578 216.45 181.748 216.496 181.936 216.496ZM184.211 218.32V213.85H184.835V214.57L184.739 214.516C184.763 214.396 184.831 214.282 184.943 214.174C185.055 214.062 185.191 213.972 185.351 213.904C185.515 213.832 185.683 213.796 185.855 213.796C186.139 213.796 186.391 213.866 186.611 214.006C186.831 214.146 187.005 214.338 187.133 214.582C187.261 214.826 187.325 215.106 187.325 215.422C187.325 215.734 187.261 216.014 187.133 216.262C187.009 216.506 186.837 216.7 186.617 216.844C186.397 216.984 186.149 217.054 185.873 217.054C185.689 217.054 185.511 217.018 185.339 216.946C185.167 216.87 185.021 216.774 184.901 216.658C184.781 216.542 184.707 216.422 184.679 216.298L184.835 216.214V218.32H184.211ZM185.771 216.484C185.955 216.484 186.119 216.438 186.263 216.346C186.407 216.254 186.521 216.128 186.605 215.968C186.689 215.808 186.731 215.626 186.731 215.422C186.731 215.218 186.689 215.038 186.605 214.882C186.525 214.722 186.413 214.596 186.269 214.504C186.125 214.412 185.959 214.366 185.771 214.366C185.583 214.366 185.417 214.412 185.273 214.504C185.129 214.592 185.015 214.716 184.931 214.876C184.847 215.036 184.805 215.218 184.805 215.422C184.805 215.626 184.847 215.808 184.931 215.968C185.015 216.128 185.129 216.254 185.273 216.346C185.417 216.438 185.583 216.484 185.771 216.484ZM189.466 217.06C189.142 217.06 188.854 216.992 188.602 216.856C188.354 216.716 188.158 216.526 188.014 216.286C187.874 216.046 187.804 215.77 187.804 215.458C187.804 215.21 187.844 214.984 187.924 214.78C188.004 214.576 188.114 214.4 188.254 214.252C188.398 214.1 188.568 213.984 188.764 213.904C188.964 213.82 189.18 213.778 189.412 213.778C189.616 213.778 189.806 213.818 189.982 213.898C190.158 213.974 190.31 214.08 190.438 214.216C190.57 214.352 190.67 214.514 190.738 214.702C190.81 214.886 190.844 215.088 190.84 215.308L190.834 215.572H188.26L188.122 215.08H190.3L190.21 215.182V215.038C190.198 214.906 190.154 214.788 190.078 214.684C190.002 214.58 189.906 214.498 189.79 214.438C189.674 214.378 189.548 214.348 189.412 214.348C189.196 214.348 189.014 214.39 188.866 214.474C188.718 214.554 188.606 214.674 188.53 214.834C188.454 214.99 188.416 215.184 188.416 215.416C188.416 215.636 188.462 215.828 188.554 215.992C188.646 216.152 188.776 216.276 188.944 216.364C189.112 216.452 189.306 216.496 189.526 216.496C189.682 216.496 189.826 216.47 189.958 216.418C190.094 216.366 190.24 216.272 190.396 216.136L190.708 216.574C190.612 216.67 190.494 216.754 190.354 216.826C190.218 216.898 190.072 216.956 189.916 217C189.764 217.04 189.614 217.06 189.466 217.06ZM191.512 217V213.85H192.136V214.84L192.076 214.6C192.12 214.448 192.194 214.31 192.298 214.186C192.406 214.062 192.528 213.964 192.664 213.892C192.804 213.82 192.948 213.784 193.096 213.784C193.164 213.784 193.228 213.79 193.288 213.802C193.352 213.814 193.402 213.828 193.438 213.844L193.276 214.516C193.228 214.496 193.174 214.48 193.114 214.468C193.058 214.452 193.002 214.444 192.946 214.444C192.838 214.444 192.734 214.466 192.634 214.51C192.538 214.55 192.452 214.608 192.376 214.684C192.304 214.756 192.246 214.842 192.202 214.942C192.158 215.038 192.136 215.144 192.136 215.26V217H191.512ZM194.439 217V213.046H195.057V217H194.439ZM193.785 214.45V213.85H195.789V214.45H193.785ZM196.454 217V213.85H197.072V217H196.454ZM196.754 213.154C196.622 213.154 196.52 213.12 196.448 213.052C196.376 212.984 196.34 212.888 196.34 212.764C196.34 212.648 196.376 212.554 196.448 212.482C196.524 212.41 196.626 212.374 196.754 212.374C196.886 212.374 196.988 212.408 197.06 212.476C197.132 212.544 197.168 212.64 197.168 212.764C197.168 212.88 197.13 212.974 197.054 213.046C196.982 213.118 196.882 213.154 196.754 213.154ZM199.492 217.06C199.168 217.06 198.88 216.992 198.628 216.856C198.38 216.716 198.184 216.526 198.04 216.286C197.9 216.046 197.83 215.77 197.83 215.458C197.83 215.21 197.87 214.984 197.95 214.78C198.03 214.576 198.14 214.4 198.28 214.252C198.424 214.1 198.594 213.984 198.79 213.904C198.99 213.82 199.206 213.778 199.438 213.778C199.642 213.778 199.832 213.818 200.008 213.898C200.184 213.974 200.336 214.08 200.464 214.216C200.596 214.352 200.696 214.514 200.764 214.702C200.836 214.886 200.87 215.088 200.866 215.308L200.86 215.572H198.286L198.148 215.08H200.326L200.236 215.182V215.038C200.224 214.906 200.18 214.788 200.104 214.684C200.028 214.58 199.932 214.498 199.816 214.438C199.7 214.378 199.574 214.348 199.438 214.348C199.222 214.348 199.04 214.39 198.892 214.474C198.744 214.554 198.632 214.674 198.556 214.834C198.48 214.99 198.442 215.184 198.442 215.416C198.442 215.636 198.488 215.828 198.58 215.992C198.672 216.152 198.802 216.276 198.97 216.364C199.138 216.452 199.332 216.496 199.552 216.496C199.708 216.496 199.852 216.47 199.984 216.418C200.12 216.366 200.266 216.272 200.422 216.136L200.734 216.574C200.638 216.67 200.52 216.754 200.38 216.826C200.244 216.898 200.098 216.956 199.942 217C199.79 217.04 199.64 217.06 199.492 217.06ZM202.587 217.06C202.323 217.06 202.085 217.014 201.873 216.922C201.661 216.83 201.485 216.694 201.345 216.514L201.765 216.154C201.885 216.294 202.015 216.396 202.155 216.46C202.299 216.52 202.461 216.55 202.641 216.55C202.713 216.55 202.779 216.542 202.839 216.526C202.903 216.506 202.957 216.478 203.001 216.442C203.049 216.406 203.085 216.364 203.109 216.316C203.133 216.264 203.145 216.208 203.145 216.148C203.145 216.044 203.107 215.96 203.031 215.896C202.991 215.868 202.927 215.838 202.839 215.806C202.755 215.77 202.645 215.734 202.509 215.698C202.277 215.638 202.087 215.57 201.939 215.494C201.791 215.418 201.677 215.332 201.597 215.236C201.537 215.16 201.493 215.078 201.465 214.99C201.437 214.898 201.423 214.798 201.423 214.69C201.423 214.558 201.451 214.438 201.507 214.33C201.567 214.218 201.647 214.122 201.747 214.042C201.851 213.958 201.971 213.894 202.107 213.85C202.247 213.806 202.395 213.784 202.551 213.784C202.699 213.784 202.845 213.804 202.989 213.844C203.137 213.884 203.273 213.942 203.397 214.018C203.521 214.094 203.625 214.184 203.709 214.288L203.355 214.678C203.279 214.602 203.195 214.536 203.103 214.48C203.015 214.42 202.925 214.374 202.833 214.342C202.741 214.31 202.657 214.294 202.581 214.294C202.497 214.294 202.421 214.302 202.353 214.318C202.285 214.334 202.227 214.358 202.179 214.39C202.135 214.422 202.101 214.462 202.077 214.51C202.053 214.558 202.041 214.612 202.041 214.672C202.045 214.724 202.057 214.774 202.077 214.822C202.101 214.866 202.133 214.904 202.173 214.936C202.217 214.968 202.283 215.002 202.371 215.038C202.459 215.074 202.571 215.108 202.707 215.14C202.907 215.192 203.071 215.25 203.199 215.314C203.331 215.374 203.435 215.444 203.511 215.524C203.591 215.6 203.647 215.688 203.679 215.788C203.711 215.888 203.727 216 203.727 216.124C203.727 216.304 203.675 216.466 203.571 216.61C203.471 216.75 203.335 216.86 203.163 216.94C202.991 217.02 202.799 217.06 202.587 217.06Z" fill="black"/>
<path d="M220.22 217.036C219.896 217.036 219.606 216.966 219.35 216.826C219.094 216.682 218.892 216.486 218.744 216.238C218.6 215.986 218.528 215.702 218.528 215.386V212.794H219.176V215.332C219.176 215.536 219.224 215.72 219.32 215.884C219.416 216.044 219.542 216.172 219.698 216.268C219.858 216.364 220.032 216.412 220.22 216.412C220.42 216.412 220.6 216.364 220.76 216.268C220.924 216.172 221.054 216.044 221.15 215.884C221.246 215.72 221.294 215.536 221.294 215.332V212.794H221.912V215.386C221.912 215.702 221.838 215.986 221.69 216.238C221.546 216.486 221.346 216.682 221.09 216.826C220.834 216.966 220.544 217.036 220.22 217.036ZM222.873 217V213.85H223.491V214.498L223.383 214.57C223.423 214.43 223.501 214.302 223.617 214.186C223.733 214.066 223.871 213.97 224.031 213.898C224.191 213.822 224.355 213.784 224.523 213.784C224.763 213.784 224.963 213.832 225.123 213.928C225.283 214.02 225.403 214.162 225.483 214.354C225.563 214.546 225.603 214.788 225.603 215.08V217H224.985V215.122C224.985 214.942 224.961 214.794 224.913 214.678C224.865 214.558 224.791 214.472 224.691 214.42C224.591 214.364 224.467 214.34 224.319 214.348C224.199 214.348 224.089 214.368 223.989 214.408C223.889 214.444 223.801 214.496 223.725 214.564C223.653 214.632 223.595 214.712 223.551 214.804C223.511 214.892 223.491 214.988 223.491 215.092V217H223.185C223.133 217 223.081 217 223.029 217C222.977 217 222.925 217 222.873 217ZM226.544 217V213.85H227.162V217H226.544ZM226.844 213.154C226.712 213.154 226.61 213.12 226.538 213.052C226.466 212.984 226.43 212.888 226.43 212.764C226.43 212.648 226.466 212.554 226.538 212.482C226.614 212.41 226.716 212.374 226.844 212.374C226.976 212.374 227.078 212.408 227.15 212.476C227.222 212.544 227.258 212.64 227.258 212.764C227.258 212.88 227.22 212.974 227.144 213.046C227.072 213.118 226.972 213.154 226.844 213.154ZM228.502 217V213.046H229.12V217H228.502ZM227.848 214.45V213.85H229.852V214.45H227.848Z" fill="#7A7A7A"/>
<path d="M172 226C172 224.895 172.895 224 174 224H206C207.105 224 208 224.895 208 226H172Z" fill="#1A89FA"/>
<path d="M279.001 242.999C277.896 242.999 277 242.104 277 241C277 239.895 277.896 239 279.001 239C280.107 239 281.002 239.895 281.002 241C281.002 242.104 280.107 242.999 279.001 242.999ZM283.859 245.144L281.448 242.734C281.808 242.229 282.003 241.619 282.003 241C282.003 239.345 280.657 238 279.001 238C277.346 238 276 239.345 276 241C276 242.654 277.346 243.999 279.001 243.999C279.627 243.999 280.232 243.804 280.737 243.444L283.148 245.854C283.343 246.049 283.659 246.049 283.854 245.854C284.049 245.659 284.049 245.344 283.854 245.149L283.859 245.144Z" fill="black"/>
<rect x="167" y="262" width="128" height="47" rx="5" fill="white"/>
<rect x="170" y="268" width="21" height="2" rx="1" fill="#C8C8C8"/>
<rect x="169.781" y="273" width="45.3857" height="3.16645" rx="1.58322" fill="#E4E6EA"/>
<rect x="170" y="278" width="60" height="3" rx="1.5" fill="#E4E6EA"/>
<rect x="170" y="284" width="48" height="3" rx="1.5" fill="#E4E6EA"/>
<rect x="261" y="268" width="30" height="7" rx="3.5" fill="#A4E8F2"/>
<rect x="267" y="270" width="21" height="2" rx="1" fill="#E8EBEE"/>
<line x1="170" y1="293.5" x2="291" y2="293.5" stroke="#F1F1F1"/>
<path d="M171.302 302.706V299.298L171.524 299.466L170.696 299.904L170.522 299.34L171.644 298.74H171.956V302.706H171.302ZM170.636 303V302.376H172.64V303H170.636ZM177.028 303.06C176.732 303.06 176.458 303.006 176.206 302.898C175.958 302.79 175.74 302.64 175.552 302.448C175.368 302.252 175.224 302.024 175.12 301.764C175.02 301.5 174.97 301.212 174.97 300.9C174.97 300.588 175.02 300.302 175.12 300.042C175.224 299.778 175.368 299.55 175.552 299.358C175.74 299.162 175.958 299.01 176.206 298.902C176.458 298.794 176.732 298.74 177.028 298.74C177.324 298.74 177.596 298.794 177.844 298.902C178.096 299.01 178.314 299.162 178.498 299.358C178.686 299.554 178.83 299.784 178.93 300.048C179.034 300.308 179.086 300.592 179.086 300.9C179.086 301.208 179.034 301.494 178.93 301.758C178.83 302.018 178.686 302.246 178.498 302.442C178.314 302.638 178.096 302.79 177.844 302.898C177.596 303.006 177.324 303.06 177.028 303.06ZM177.028 302.43C177.232 302.43 177.418 302.392 177.586 302.316C177.758 302.24 177.906 302.134 178.03 301.998C178.154 301.858 178.25 301.696 178.318 301.512C178.39 301.324 178.426 301.12 178.426 300.9C178.426 300.68 178.39 300.478 178.318 300.294C178.25 300.106 178.154 299.944 178.03 299.808C177.906 299.668 177.758 299.56 177.586 299.484C177.418 299.408 177.232 299.37 177.028 299.37C176.824 299.37 176.636 299.408 176.464 299.484C176.296 299.56 176.148 299.666 176.02 299.802C175.896 299.938 175.8 300.1 175.732 300.288C175.664 300.472 175.63 300.676 175.63 300.9C175.63 301.12 175.664 301.324 175.732 301.512C175.8 301.7 175.896 301.862 176.02 301.998C176.148 302.134 176.296 302.24 176.464 302.316C176.636 302.392 176.824 302.43 177.028 302.43ZM181.145 303.06C180.853 303.06 180.591 302.988 180.359 302.844C180.131 302.7 179.949 302.504 179.813 302.256C179.681 302.008 179.615 301.73 179.615 301.422C179.615 301.114 179.681 300.836 179.813 300.588C179.949 300.34 180.131 300.144 180.359 300C180.591 299.856 180.853 299.784 181.145 299.784C181.425 299.784 181.679 299.842 181.907 299.958C182.139 300.07 182.315 300.224 182.435 300.42L182.093 300.84C182.029 300.748 181.947 300.664 181.847 300.588C181.747 300.512 181.641 300.452 181.529 300.408C181.417 300.364 181.309 300.342 181.205 300.342C181.013 300.342 180.841 300.39 180.689 300.486C180.541 300.578 180.423 300.706 180.335 300.87C180.247 301.034 180.203 301.218 180.203 301.422C180.203 301.626 180.249 301.81 180.341 301.974C180.433 302.134 180.555 302.262 180.707 302.358C180.859 302.454 181.027 302.502 181.211 302.502C181.319 302.502 181.423 302.484 181.523 302.448C181.627 302.412 181.727 302.358 181.823 302.286C181.919 302.214 182.009 302.126 182.093 302.022L182.435 302.442C182.307 302.622 182.123 302.77 181.883 302.886C181.647 303.002 181.401 303.06 181.145 303.06ZM184.356 303.06C184.064 303.06 183.802 302.988 183.57 302.844C183.342 302.7 183.16 302.504 183.024 302.256C182.892 302.008 182.826 301.73 182.826 301.422C182.826 301.114 182.892 300.836 183.024 300.588C183.16 300.34 183.342 300.144 183.57 300C183.802 299.856 184.064 299.784 184.356 299.784C184.636 299.784 184.89 299.842 185.118 299.958C185.35 300.07 185.526 300.224 185.646 300.42L185.304 300.84C185.24 300.748 185.158 300.664 185.058 300.588C184.958 300.512 184.852 300.452 184.74 300.408C184.628 300.364 184.52 300.342 184.416 300.342C184.224 300.342 184.052 300.39 183.9 300.486C183.752 300.578 183.634 300.706 183.546 300.87C183.458 301.034 183.414 301.218 183.414 301.422C183.414 301.626 183.46 301.81 183.552 301.974C183.644 302.134 183.766 302.262 183.918 302.358C184.07 302.454 184.238 302.502 184.422 302.502C184.53 302.502 184.634 302.484 184.734 302.448C184.838 302.412 184.938 302.358 185.034 302.286C185.13 302.214 185.22 302.126 185.304 302.022L185.646 302.442C185.518 302.622 185.334 302.77 185.094 302.886C184.858 303.002 184.612 303.06 184.356 303.06ZM187.333 303.06C187.109 303.06 186.913 303.008 186.745 302.904C186.581 302.8 186.453 302.654 186.361 302.466C186.273 302.278 186.229 302.054 186.229 301.794V299.85H186.847V301.626C186.847 301.81 186.875 301.97 186.931 302.106C186.991 302.238 187.075 302.34 187.183 302.412C187.295 302.484 187.429 302.52 187.585 302.52C187.701 302.52 187.807 302.502 187.903 302.466C187.999 302.426 188.081 302.372 188.149 302.304C188.221 302.236 188.277 302.154 188.317 302.058C188.357 301.962 188.377 301.858 188.377 301.746V299.85H188.995V303H188.377V302.34L188.485 302.268C188.437 302.416 188.355 302.55 188.239 302.67C188.127 302.79 187.993 302.886 187.837 302.958C187.681 303.026 187.513 303.06 187.333 303.06ZM189.862 304.32V299.85H190.486V300.57L190.39 300.516C190.414 300.396 190.482 300.282 190.594 300.174C190.706 300.062 190.842 299.972 191.002 299.904C191.166 299.832 191.334 299.796 191.506 299.796C191.79 299.796 192.042 299.866 192.262 300.006C192.482 300.146 192.656 300.338 192.784 300.582C192.912 300.826 192.976 301.106 192.976 301.422C192.976 301.734 192.912 302.014 192.784 302.262C192.66 302.506 192.488 302.7 192.268 302.844C192.048 302.984 191.8 303.054 191.524 303.054C191.34 303.054 191.162 303.018 190.99 302.946C190.818 302.87 190.672 302.774 190.552 302.658C190.432 302.542 190.358 302.422 190.33 302.298L190.486 302.214V304.32H189.862ZM191.422 302.484C191.606 302.484 191.77 302.438 191.914 302.346C192.058 302.254 192.172 302.128 192.256 301.968C192.34 301.808 192.382 301.626 192.382 301.422C192.382 301.218 192.34 301.038 192.256 300.882C192.176 300.722 192.064 300.596 191.92 300.504C191.776 300.412 191.61 300.366 191.422 300.366C191.234 300.366 191.068 300.412 190.924 300.504C190.78 300.592 190.666 300.716 190.582 300.876C190.498 301.036 190.456 301.218 190.456 301.422C190.456 301.626 190.498 301.808 190.582 301.968C190.666 302.128 190.78 302.254 190.924 302.346C191.068 302.438 191.234 302.484 191.422 302.484ZM193.749 303V299.85H194.367V303H193.749ZM194.049 299.154C193.917 299.154 193.815 299.12 193.743 299.052C193.671 298.984 193.635 298.888 193.635 298.764C193.635 298.648 193.671 298.554 193.743 298.482C193.819 298.41 193.921 298.374 194.049 298.374C194.181 298.374 194.283 298.408 194.355 298.476C194.427 298.544 194.463 298.64 194.463 298.764C194.463 298.88 194.425 298.974 194.349 299.046C194.277 299.118 194.177 299.154 194.049 299.154ZM196.787 303.06C196.463 303.06 196.175 302.992 195.923 302.856C195.675 302.716 195.479 302.526 195.335 302.286C195.195 302.046 195.125 301.77 195.125 301.458C195.125 301.21 195.165 300.984 195.245 300.78C195.325 300.576 195.435 300.4 195.575 300.252C195.719 300.1 195.889 299.984 196.085 299.904C196.285 299.82 196.501 299.778 196.733 299.778C196.937 299.778 197.127 299.818 197.303 299.898C197.479 299.974 197.631 300.08 197.759 300.216C197.891 300.352 197.991 300.514 198.059 300.702C198.131 300.886 198.165 301.088 198.161 301.308L198.155 301.572H195.581L195.443 301.08H197.621L197.531 301.182V301.038C197.519 300.906 197.475 300.788 197.399 300.684C197.323 300.58 197.227 300.498 197.111 300.438C196.995 300.378 196.869 300.348 196.733 300.348C196.517 300.348 196.335 300.39 196.187 300.474C196.039 300.554 195.927 300.674 195.851 300.834C195.775 300.99 195.737 301.184 195.737 301.416C195.737 301.636 195.783 301.828 195.875 301.992C195.967 302.152 196.097 302.276 196.265 302.364C196.433 302.452 196.627 302.496 196.847 302.496C197.003 302.496 197.147 302.47 197.279 302.418C197.415 302.366 197.561 302.272 197.717 302.136L198.029 302.574C197.933 302.67 197.815 302.754 197.675 302.826C197.539 302.898 197.393 302.956 197.237 303C197.085 303.04 196.935 303.06 196.787 303.06ZM200.146 303.06C199.858 303.06 199.6 302.99 199.372 302.85C199.148 302.706 198.97 302.512 198.838 302.268C198.706 302.02 198.64 301.738 198.64 301.422C198.64 301.106 198.704 300.826 198.832 300.582C198.964 300.334 199.142 300.14 199.366 300C199.59 299.856 199.844 299.784 200.128 299.784C200.284 299.784 200.434 299.81 200.578 299.862C200.726 299.91 200.858 299.978 200.974 300.066C201.09 300.15 201.18 300.244 201.244 300.348C201.312 300.448 201.346 300.55 201.346 300.654L201.166 300.666V298.56H201.784V303H201.166V302.25H201.286C201.286 302.346 201.254 302.442 201.19 302.538C201.126 302.63 201.04 302.716 200.932 302.796C200.828 302.876 200.706 302.94 200.566 302.988C200.43 303.036 200.29 303.06 200.146 303.06ZM200.23 302.526C200.418 302.526 200.584 302.478 200.728 302.382C200.872 302.286 200.984 302.156 201.064 301.992C201.148 301.824 201.19 301.634 201.19 301.422C201.19 301.21 201.148 301.022 201.064 300.858C200.984 300.69 200.872 300.558 200.728 300.462C200.584 300.366 200.418 300.318 200.23 300.318C200.042 300.318 199.876 300.366 199.732 300.462C199.588 300.558 199.474 300.69 199.39 300.858C199.31 301.022 199.27 301.21 199.27 301.422C199.27 301.634 199.31 301.824 199.39 301.992C199.474 302.156 199.588 302.286 199.732 302.382C199.876 302.478 200.042 302.526 200.23 302.526ZM205.625 304.116C205.137 303.812 204.765 303.432 204.509 302.976C204.253 302.52 204.125 302.012 204.125 301.452C204.125 300.896 204.253 300.39 204.509 299.934C204.769 299.474 205.143 299.092 205.631 298.788L205.961 299.16C205.553 299.444 205.241 299.784 205.025 300.18C204.813 300.572 204.707 300.996 204.707 301.452C204.707 301.908 204.813 302.334 205.025 302.73C205.241 303.122 205.553 303.46 205.961 303.744L205.625 304.116ZM207.384 302.706V299.298L207.606 299.466L206.778 299.904L206.604 299.34L207.726 298.74H208.038V302.706H207.384ZM206.718 303V302.376H208.722V303H206.718ZM210.9 303.06C210.58 303.06 210.304 302.972 210.072 302.796C209.844 302.62 209.668 302.372 209.544 302.052C209.42 301.728 209.358 301.344 209.358 300.9C209.358 300.456 209.42 300.074 209.544 299.754C209.668 299.43 209.844 299.18 210.072 299.004C210.304 298.828 210.58 298.74 210.9 298.74C211.22 298.74 211.496 298.828 211.728 299.004C211.96 299.18 212.138 299.43 212.262 299.754C212.386 300.074 212.448 300.456 212.448 300.9C212.448 301.344 212.386 301.728 212.262 302.052C212.138 302.372 211.96 302.62 211.728 302.796C211.496 302.972 211.22 303.06 210.9 303.06ZM210.9 302.472C211.192 302.472 211.418 302.336 211.578 302.064C211.738 301.788 211.818 301.4 211.818 300.9C211.818 300.4 211.738 300.014 211.578 299.742C211.418 299.466 211.192 299.328 210.9 299.328C210.608 299.328 210.382 299.466 210.222 299.742C210.062 300.014 209.982 300.4 209.982 300.9C209.982 301.4 210.062 301.788 210.222 302.064C210.382 302.336 210.608 302.472 210.9 302.472ZM214.545 303.06C214.225 303.06 213.949 302.972 213.717 302.796C213.489 302.62 213.313 302.372 213.189 302.052C213.065 301.728 213.003 301.344 213.003 300.9C213.003 300.456 213.065 300.074 213.189 299.754C213.313 299.43 213.489 299.18 213.717 299.004C213.949 298.828 214.225 298.74 214.545 298.74C214.865 298.74 215.141 298.828 215.373 299.004C215.605 299.18 215.783 299.43 215.907 299.754C216.031 300.074 216.093 300.456 216.093 300.9C216.093 301.344 216.031 301.728 215.907 302.052C215.783 302.372 215.605 302.62 215.373 302.796C215.141 302.972 214.865 303.06 214.545 303.06ZM214.545 302.472C214.837 302.472 215.063 302.336 215.223 302.064C215.383 301.788 215.463 301.4 215.463 300.9C215.463 300.4 215.383 300.014 215.223 299.742C215.063 299.466 214.837 299.328 214.545 299.328C214.253 299.328 214.027 299.466 213.867 299.742C213.707 300.014 213.627 300.4 213.627 300.9C213.627 301.4 213.707 301.788 213.867 302.064C214.027 302.336 214.253 302.472 214.545 302.472ZM217.145 303L219.923 298.8H220.541L217.733 303H217.145ZM217.529 301.026C217.349 301.026 217.189 300.978 217.049 300.882C216.913 300.782 216.805 300.648 216.725 300.48C216.649 300.308 216.611 300.112 216.611 299.892C216.611 299.672 216.649 299.476 216.725 299.304C216.805 299.128 216.915 298.992 217.055 298.896C217.195 298.796 217.355 298.746 217.535 298.746C217.715 298.746 217.873 298.796 218.009 298.896C218.149 298.992 218.257 299.128 218.333 299.304C218.413 299.476 218.453 299.672 218.453 299.892C218.453 300.104 218.413 300.296 218.333 300.468C218.253 300.64 218.143 300.776 218.003 300.876C217.863 300.976 217.705 301.026 217.529 301.026ZM217.535 300.576C217.619 300.576 217.691 300.548 217.751 300.492C217.815 300.436 217.863 300.358 217.895 300.258C217.931 300.154 217.949 300.032 217.949 299.892C217.949 299.752 217.931 299.63 217.895 299.526C217.863 299.422 217.815 299.342 217.751 299.286C217.691 299.23 217.617 299.202 217.529 299.202C217.445 299.202 217.371 299.232 217.307 299.292C217.243 299.348 217.193 299.428 217.157 299.532C217.125 299.632 217.109 299.752 217.109 299.892C217.109 300.032 217.125 300.154 217.157 300.258C217.193 300.358 217.243 300.436 217.307 300.492C217.371 300.548 217.447 300.576 217.535 300.576ZM220.187 303.054C220.007 303.054 219.847 303.004 219.707 302.904C219.571 302.804 219.463 302.67 219.383 302.502C219.303 302.33 219.263 302.136 219.263 301.92C219.263 301.7 219.301 301.504 219.377 301.332C219.457 301.156 219.567 301.02 219.707 300.924C219.847 300.824 220.007 300.774 220.187 300.774C220.367 300.774 220.525 300.824 220.661 300.924C220.801 301.02 220.909 301.156 220.985 301.332C221.065 301.504 221.105 301.7 221.105 301.92C221.105 302.132 221.065 302.324 220.985 302.496C220.905 302.668 220.795 302.804 220.655 302.904C220.519 303.004 220.363 303.054 220.187 303.054ZM220.187 302.61C220.271 302.61 220.345 302.582 220.409 302.526C220.473 302.466 220.521 302.386 220.553 302.286C220.589 302.182 220.607 302.06 220.607 301.92C220.607 301.78 220.589 301.66 220.553 301.56C220.521 301.456 220.473 301.376 220.409 301.32C220.345 301.26 220.271 301.23 220.187 301.23C220.099 301.23 220.023 301.258 219.959 301.314C219.895 301.37 219.845 301.45 219.809 301.554C219.777 301.658 219.761 301.78 219.761 301.92C219.761 302.06 219.777 302.182 219.809 302.286C219.845 302.386 219.895 302.466 219.959 302.526C220.023 302.582 220.099 302.61 220.187 302.61ZM221.854 304.116L221.524 303.744C221.932 303.46 222.242 303.122 222.454 302.73C222.67 302.334 222.778 301.908 222.778 301.452C222.778 300.996 222.67 300.572 222.454 300.18C222.242 299.784 221.932 299.444 221.524 299.16L221.86 298.788C222.348 299.092 222.72 299.472 222.976 299.928C223.232 300.384 223.36 300.892 223.36 301.452C223.36 302.008 223.23 302.516 222.97 302.976C222.714 303.432 222.342 303.812 221.854 304.116Z" fill="black"/>
<path d="M257.824 303L256.144 298.8H256.882L257.884 301.35C257.932 301.474 257.974 301.586 258.01 301.686C258.05 301.786 258.084 301.878 258.112 301.962C258.14 302.042 258.166 302.118 258.19 302.19C258.214 302.262 258.238 302.334 258.262 302.406L258.106 302.412C258.134 302.316 258.164 302.216 258.196 302.112C258.228 302.008 258.264 301.894 258.304 301.77C258.348 301.646 258.4 301.506 258.46 301.35L259.39 298.8H260.146L258.454 303H257.824ZM261.576 303.06C261.316 303.06 261.078 302.988 260.862 302.844C260.65 302.7 260.48 302.504 260.352 302.256C260.224 302.008 260.16 301.728 260.16 301.416C260.16 301.1 260.224 300.82 260.352 300.576C260.484 300.328 260.66 300.134 260.88 299.994C261.104 299.854 261.354 299.784 261.63 299.784C261.794 299.784 261.944 299.808 262.08 299.856C262.216 299.904 262.334 299.972 262.434 300.06C262.538 300.144 262.622 300.242 262.686 300.354C262.754 300.466 262.796 300.586 262.812 300.714L262.674 300.666V299.85H263.298V303H262.674V302.25L262.818 302.208C262.794 302.316 262.744 302.422 262.668 302.526C262.596 302.626 262.502 302.716 262.386 302.796C262.274 302.876 262.148 302.94 262.008 302.988C261.872 303.036 261.728 303.06 261.576 303.06ZM261.738 302.49C261.926 302.49 262.092 302.444 262.236 302.352C262.38 302.26 262.492 302.134 262.572 301.974C262.656 301.81 262.698 301.624 262.698 301.416C262.698 301.212 262.656 301.03 262.572 300.87C262.492 300.71 262.38 300.584 262.236 300.492C262.092 300.4 261.926 300.354 261.738 300.354C261.554 300.354 261.39 300.4 261.246 300.492C261.106 300.584 260.994 300.71 260.91 300.87C260.83 301.03 260.79 301.212 260.79 301.416C260.79 301.624 260.83 301.81 260.91 301.974C260.994 302.134 261.106 302.26 261.246 302.352C261.39 302.444 261.554 302.49 261.738 302.49ZM265.499 303.06C265.207 303.06 264.945 302.988 264.713 302.844C264.485 302.7 264.303 302.504 264.167 302.256C264.035 302.008 263.969 301.73 263.969 301.422C263.969 301.114 264.035 300.836 264.167 300.588C264.303 300.34 264.485 300.144 264.713 300C264.945 299.856 265.207 299.784 265.499 299.784C265.779 299.784 266.033 299.842 266.261 299.958C266.493 300.07 266.669 300.224 266.789 300.42L266.447 300.84C266.383 300.748 266.301 300.664 266.201 300.588C266.101 300.512 265.995 300.452 265.883 300.408C265.771 300.364 265.663 300.342 265.559 300.342C265.367 300.342 265.195 300.39 265.043 300.486C264.895 300.578 264.777 300.706 264.689 300.87C264.601 301.034 264.557 301.218 264.557 301.422C264.557 301.626 264.603 301.81 264.695 301.974C264.787 302.134 264.909 302.262 265.061 302.358C265.213 302.454 265.381 302.502 265.565 302.502C265.673 302.502 265.777 302.484 265.877 302.448C265.981 302.412 266.081 302.358 266.177 302.286C266.273 302.214 266.363 302.126 266.447 302.022L266.789 302.442C266.661 302.622 266.477 302.77 266.237 302.886C266.001 303.002 265.755 303.06 265.499 303.06ZM268.583 303.06C268.323 303.06 268.085 302.988 267.869 302.844C267.657 302.7 267.487 302.504 267.359 302.256C267.231 302.008 267.167 301.728 267.167 301.416C267.167 301.1 267.231 300.82 267.359 300.576C267.491 300.328 267.667 300.134 267.887 299.994C268.111 299.854 268.361 299.784 268.637 299.784C268.801 299.784 268.951 299.808 269.087 299.856C269.223 299.904 269.341 299.972 269.441 300.06C269.545 300.144 269.629 300.242 269.693 300.354C269.761 300.466 269.803 300.586 269.819 300.714L269.681 300.666V299.85H270.305V303H269.681V302.25L269.825 302.208C269.801 302.316 269.751 302.422 269.675 302.526C269.603 302.626 269.509 302.716 269.393 302.796C269.281 302.876 269.155 302.94 269.015 302.988C268.879 303.036 268.735 303.06 268.583 303.06ZM268.745 302.49C268.933 302.49 269.099 302.444 269.243 302.352C269.387 302.26 269.499 302.134 269.579 301.974C269.663 301.81 269.705 301.624 269.705 301.416C269.705 301.212 269.663 301.03 269.579 300.87C269.499 300.71 269.387 300.584 269.243 300.492C269.099 300.4 268.933 300.354 268.745 300.354C268.561 300.354 268.397 300.4 268.253 300.492C268.113 300.584 268.001 300.71 267.917 300.87C267.837 301.03 267.797 301.212 267.797 301.416C267.797 301.624 267.837 301.81 267.917 301.974C268.001 302.134 268.113 302.26 268.253 302.352C268.397 302.444 268.561 302.49 268.745 302.49ZM271.168 303V299.85H271.786V300.498L271.678 300.57C271.718 300.43 271.796 300.302 271.912 300.186C272.028 300.066 272.166 299.97 272.326 299.898C272.486 299.822 272.65 299.784 272.818 299.784C273.058 299.784 273.258 299.832 273.418 299.928C273.578 300.02 273.698 300.162 273.778 300.354C273.858 300.546 273.898 300.788 273.898 301.08V303H273.28V301.122C273.28 300.942 273.256 300.794 273.208 300.678C273.16 300.558 273.086 300.472 272.986 300.42C272.886 300.364 272.762 300.34 272.614 300.348C272.494 300.348 272.384 300.368 272.284 300.408C272.184 300.444 272.096 300.496 272.02 300.564C271.948 300.632 271.89 300.712 271.846 300.804C271.806 300.892 271.786 300.988 271.786 301.092V303H271.48C271.428 303 271.376 303 271.324 303C271.272 303 271.22 303 271.168 303ZM275.127 303V299.046H275.745V303H275.127ZM274.473 300.45V299.85H276.477V300.45H274.473ZM280.029 304.116C279.541 303.812 279.169 303.432 278.913 302.976C278.657 302.52 278.529 302.012 278.529 301.452C278.529 300.896 278.657 300.39 278.913 299.934C279.173 299.474 279.547 299.092 280.035 298.788L280.365 299.16C279.957 299.444 279.645 299.784 279.429 300.18C279.217 300.572 279.111 300.996 279.111 301.452C279.111 301.908 279.217 302.334 279.429 302.73C279.645 303.122 279.957 303.46 280.365 303.744L280.029 304.116ZM282.304 303.06C281.984 303.06 281.708 302.972 281.476 302.796C281.248 302.62 281.072 302.372 280.948 302.052C280.824 301.728 280.762 301.344 280.762 300.9C280.762 300.456 280.824 300.074 280.948 299.754C281.072 299.43 281.248 299.18 281.476 299.004C281.708 298.828 281.984 298.74 282.304 298.74C282.624 298.74 282.9 298.828 283.132 299.004C283.364 299.18 283.542 299.43 283.666 299.754C283.79 300.074 283.852 300.456 283.852 300.9C283.852 301.344 283.79 301.728 283.666 302.052C283.542 302.372 283.364 302.62 283.132 302.796C282.9 302.972 282.624 303.06 282.304 303.06ZM282.304 302.472C282.596 302.472 282.822 302.336 282.982 302.064C283.142 301.788 283.222 301.4 283.222 300.9C283.222 300.4 283.142 300.014 282.982 299.742C282.822 299.466 282.596 299.328 282.304 299.328C282.012 299.328 281.786 299.466 281.626 299.742C281.466 300.014 281.386 300.4 281.386 300.9C281.386 301.4 281.466 301.788 281.626 302.064C281.786 302.336 282.012 302.472 282.304 302.472ZM284.905 303L287.683 298.8H288.301L285.493 303H284.905ZM285.289 301.026C285.109 301.026 284.949 300.978 284.809 300.882C284.673 300.782 284.565 300.648 284.485 300.48C284.409 300.308 284.371 300.112 284.371 299.892C284.371 299.672 284.409 299.476 284.485 299.304C284.565 299.128 284.675 298.992 284.815 298.896C284.955 298.796 285.115 298.746 285.295 298.746C285.475 298.746 285.633 298.796 285.769 298.896C285.909 298.992 286.017 299.128 286.093 299.304C286.173 299.476 286.213 299.672 286.213 299.892C286.213 300.104 286.173 300.296 286.093 300.468C286.013 300.64 285.903 300.776 285.763 300.876C285.623 300.976 285.465 301.026 285.289 301.026ZM285.295 300.576C285.379 300.576 285.451 300.548 285.511 300.492C285.575 300.436 285.623 300.358 285.655 300.258C285.691 300.154 285.709 300.032 285.709 299.892C285.709 299.752 285.691 299.63 285.655 299.526C285.623 299.422 285.575 299.342 285.511 299.286C285.451 299.23 285.377 299.202 285.289 299.202C285.205 299.202 285.131 299.232 285.067 299.292C285.003 299.348 284.953 299.428 284.917 299.532C284.885 299.632 284.869 299.752 284.869 299.892C284.869 300.032 284.885 300.154 284.917 300.258C284.953 300.358 285.003 300.436 285.067 300.492C285.131 300.548 285.207 300.576 285.295 300.576ZM287.947 303.054C287.767 303.054 287.607 303.004 287.467 302.904C287.331 302.804 287.223 302.67 287.143 302.502C287.063 302.33 287.023 302.136 287.023 301.92C287.023 301.7 287.061 301.504 287.137 301.332C287.217 301.156 287.327 301.02 287.467 300.924C287.607 300.824 287.767 300.774 287.947 300.774C288.127 300.774 288.285 300.824 288.421 300.924C288.561 301.02 288.669 301.156 288.745 301.332C288.825 301.504 288.865 301.7 288.865 301.92C288.865 302.132 288.825 302.324 288.745 302.496C288.665 302.668 288.555 302.804 288.415 302.904C288.279 303.004 288.123 303.054 287.947 303.054ZM287.947 302.61C288.031 302.61 288.105 302.582 288.169 302.526C288.233 302.466 288.281 302.386 288.313 302.286C288.349 302.182 288.367 302.06 288.367 301.92C288.367 301.78 288.349 301.66 288.313 301.56C288.281 301.456 288.233 301.376 288.169 301.32C288.105 301.26 288.031 301.23 287.947 301.23C287.859 301.23 287.783 301.258 287.719 301.314C287.655 301.37 287.605 301.45 287.569 301.554C287.537 301.658 287.521 301.78 287.521 301.92C287.521 302.06 287.537 302.182 287.569 302.286C287.605 302.386 287.655 302.466 287.719 302.526C287.783 302.582 287.859 302.61 287.947 302.61ZM289.614 304.116L289.284 303.744C289.692 303.46 290.002 303.122 290.214 302.73C290.43 302.334 290.538 301.908 290.538 301.452C290.538 300.996 290.43 300.572 290.214 300.18C290.002 299.784 289.692 299.444 289.284 299.16L289.62 298.788C290.108 299.092 290.48 299.472 290.736 299.928C290.992 300.384 291.12 300.892 291.12 301.452C291.12 302.008 290.99 302.516 290.73 302.976C290.474 303.432 290.102 303.812 289.614 304.116Z" fill="#DF6E61"/>
<defs>
<clipPath id="clip0_599_2984">
<rect width="126.658" height="6.35908" fill="white" transform="translate(167.672 155.333)"/>
</clipPath>
</defs>
</svg>
