<?xml version="1.0" encoding="UTF-8"?>
<svg id="Layer_1" data-name="Layer 1" xmlns="http://www.w3.org/2000/svg" viewBox="0 0 105 78">
  <path d="M25.09,77.29c-4.82,0-9.11-1.21-12.88-3.62-3.77-2.56-6.78-6.1-9.04-10.62-2.11-4.52-3.16-9.64-3.16-15.37,0-5.27.9-10.4,2.71-15.37,1.96-4.97,4.75-9.57,8.36-13.79,3.58-4.34,7.77-8.15,12.43-11.3C28.33,3.92,33.6,1.51,39.32,0l11.07,13.79c-6.48,2.56-11.68,5.95-15.59,10.17-3.77,4.22-5.65,7.83-5.65,10.85,0,1.36.38,2.86,1.13,4.52.9,1.51,2.64,3.09,5.2,4.75,3.77,2.41,6.33,4.97,7.68,7.68,1.51,2.56,2.26,5.5,2.26,8.81,0,5.12-1.96,9.19-5.88,12.2-3.77,3.01-8.59,4.52-14.46,4.52ZM79.33,77.29c-4.82,0-9.11-1.21-12.88-3.62-3.77-2.56-6.78-6.1-9.04-10.62-2.11-4.52-3.16-9.64-3.16-15.37,0-5.27.9-10.4,2.71-15.37,1.96-4.97,4.75-9.57,8.36-13.79,3.58-4.34,7.77-8.15,12.43-11.3C82.57,3.92,87.84,1.51,93.56,0l11.07,13.79c-6.48,2.56-11.68,5.95-15.59,10.17-3.77,4.22-5.65,7.83-5.65,10.85,0,1.36.38,2.86,1.13,4.52.9,1.51,2.64,3.09,5.2,4.75,3.77,2.41,6.33,4.97,7.68,7.68,1.51,2.56,2.26,5.5,2.26,8.81,0,5.12-1.96,9.19-5.88,12.2-3.77,3.01-8.59,4.52-14.46,4.52Z" style="fill: #000; stroke-width: 0px;"/>
</svg>