<svg width="480" height="540" viewBox="0 0 480 540" fill="none" xmlns="http://www.w3.org/2000/svg">
<path d="M396 76H85C75.6112 76 68 83.6112 68 93V447C68 456.389 75.6112 464 85 464H396C405.389 464 413 456.389 413 447V93C413 83.6112 405.389 76 396 76Z" fill="#F1F5F7"/>
<path d="M84.911 121V106.3H91.421C92.331 106.3 93.157 106.51 93.899 106.93C94.641 107.336 95.222 107.889 95.642 108.589C96.076 109.289 96.293 110.087 96.293 110.983C96.293 111.865 96.076 112.67 95.642 113.398C95.222 114.112 94.641 114.679 93.899 115.099C93.157 115.519 92.331 115.729 91.421 115.729H87.956V121H84.911ZM93.248 121L89.51 114.364L92.744 113.839L96.902 121.021L93.248 121ZM87.956 113.167H91.274C91.652 113.167 91.981 113.083 92.261 112.915C92.555 112.733 92.779 112.488 92.933 112.18C93.087 111.858 93.164 111.501 93.164 111.109C93.164 110.689 93.073 110.325 92.891 110.017C92.709 109.709 92.443 109.471 92.093 109.303C91.743 109.121 91.337 109.03 90.875 109.03H87.956V113.167ZM104.056 121.21C102.852 121.21 101.795 120.965 100.885 120.475C99.9889 119.985 99.2889 119.313 98.7849 118.459C98.2949 117.605 98.0499 116.625 98.0499 115.519C98.0499 114.651 98.1899 113.86 98.4699 113.146C98.7499 112.432 99.1419 111.816 99.6459 111.298C100.15 110.766 100.745 110.36 101.431 110.08C102.131 109.786 102.887 109.639 103.699 109.639C104.455 109.639 105.155 109.779 105.799 110.059C106.443 110.339 106.996 110.731 107.458 111.235C107.934 111.725 108.298 112.313 108.55 112.999C108.802 113.671 108.914 114.399 108.886 115.183L108.865 116.107H99.9399L99.4569 114.28H106.408L106.072 114.658V114.196C106.044 113.818 105.918 113.482 105.694 113.188C105.484 112.88 105.211 112.642 104.875 112.474C104.539 112.292 104.161 112.201 103.741 112.201C103.125 112.201 102.6 112.32 102.166 112.558C101.746 112.796 101.424 113.146 101.2 113.608C100.976 114.07 100.864 114.63 100.864 115.288C100.864 115.96 101.004 116.541 101.284 117.031C101.578 117.521 101.984 117.906 102.502 118.186C103.034 118.452 103.657 118.585 104.371 118.585C104.861 118.585 105.309 118.508 105.715 118.354C106.121 118.2 106.555 117.934 107.017 117.556L108.445 119.551C108.039 119.915 107.591 120.223 107.101 120.475C106.611 120.713 106.107 120.895 105.589 121.021C105.071 121.147 104.56 121.21 104.056 121.21ZM115.92 121.21C114.856 121.21 113.904 120.958 113.064 120.454C112.224 119.95 111.559 119.264 111.069 118.396C110.593 117.528 110.355 116.541 110.355 115.435C110.355 114.329 110.593 113.342 111.069 112.474C111.559 111.606 112.224 110.92 113.064 110.416C113.904 109.912 114.856 109.66 115.92 109.66C116.914 109.66 117.824 109.842 118.65 110.206C119.476 110.57 120.12 111.074 120.582 111.718L118.944 113.692C118.748 113.426 118.503 113.188 118.209 112.978C117.915 112.754 117.593 112.579 117.243 112.453C116.907 112.327 116.557 112.264 116.193 112.264C115.619 112.264 115.108 112.404 114.66 112.684C114.226 112.95 113.883 113.321 113.631 113.797C113.379 114.273 113.253 114.819 113.253 115.435C113.253 116.023 113.379 116.555 113.631 117.031C113.897 117.507 114.254 117.885 114.702 118.165C115.15 118.445 115.654 118.585 116.214 118.585C116.578 118.585 116.921 118.536 117.243 118.438C117.565 118.34 117.866 118.186 118.146 117.976C118.44 117.766 118.706 117.514 118.944 117.22L120.561 119.194C120.099 119.796 119.441 120.286 118.587 120.664C117.747 121.028 116.858 121.21 115.92 121.21ZM126.293 121.21C125.481 121.21 124.781 121.035 124.193 120.685C123.619 120.321 123.171 119.81 122.849 119.152C122.541 118.48 122.387 117.675 122.387 116.737V109.891H125.369V116.254C125.369 116.758 125.453 117.199 125.621 117.577C125.789 117.941 126.027 118.221 126.335 118.417C126.643 118.613 127.021 118.711 127.469 118.711C127.791 118.711 128.085 118.662 128.351 118.564C128.631 118.452 128.869 118.298 129.065 118.102C129.275 117.906 129.436 117.675 129.548 117.409C129.66 117.143 129.716 116.856 129.716 116.548V109.891H132.698V121H129.863L129.758 118.711L130.304 118.459C130.136 118.977 129.856 119.446 129.464 119.866C129.072 120.286 128.603 120.615 128.057 120.853C127.511 121.091 126.923 121.21 126.293 121.21ZM135.699 121V109.891H138.576L138.681 113.461L138.177 112.726C138.345 112.152 138.618 111.634 138.996 111.172C139.374 110.696 139.815 110.325 140.319 110.059C140.837 109.793 141.376 109.66 141.936 109.66C142.174 109.66 142.405 109.681 142.629 109.723C142.853 109.765 143.042 109.814 143.196 109.87L142.398 113.146C142.244 113.062 142.041 112.992 141.789 112.936C141.551 112.866 141.306 112.831 141.054 112.831C140.718 112.831 140.403 112.894 140.109 113.02C139.829 113.132 139.584 113.3 139.374 113.524C139.164 113.734 138.996 113.986 138.87 114.28C138.758 114.574 138.702 114.896 138.702 115.246V121H135.699ZM144.907 121V109.891H147.784L147.889 113.461L147.385 112.726C147.553 112.152 147.826 111.634 148.204 111.172C148.582 110.696 149.023 110.325 149.527 110.059C150.045 109.793 150.584 109.66 151.144 109.66C151.382 109.66 151.613 109.681 151.837 109.723C152.061 109.765 152.25 109.814 152.404 109.87L151.606 113.146C151.452 113.062 151.249 112.992 150.997 112.936C150.759 112.866 150.514 112.831 150.262 112.831C149.926 112.831 149.611 112.894 149.317 113.02C149.037 113.132 148.792 113.3 148.582 113.524C148.372 113.734 148.204 113.986 148.078 114.28C147.966 114.574 147.91 114.896 147.91 115.246V121H144.907ZM154.367 121V109.891H157.349V121H154.367ZM155.837 107.623C155.263 107.623 154.815 107.483 154.493 107.203C154.171 106.909 154.01 106.503 154.01 105.985C154.01 105.509 154.171 105.124 154.493 104.83C154.829 104.522 155.277 104.368 155.837 104.368C156.411 104.368 156.859 104.515 157.181 104.809C157.503 105.089 157.664 105.481 157.664 105.985C157.664 106.461 157.496 106.853 157.16 107.161C156.838 107.469 156.397 107.623 155.837 107.623ZM160.534 121V109.891H163.39L163.474 112.159L162.886 112.411C163.04 111.907 163.313 111.452 163.705 111.046C164.111 110.626 164.594 110.29 165.154 110.038C165.714 109.786 166.302 109.66 166.918 109.66C167.758 109.66 168.458 109.828 169.018 110.164C169.592 110.5 170.019 111.011 170.299 111.697C170.593 112.369 170.74 113.202 170.74 114.196V121H167.758V114.427C167.758 113.923 167.688 113.503 167.548 113.167C167.408 112.831 167.191 112.586 166.897 112.432C166.617 112.278 166.267 112.208 165.847 112.222C165.511 112.222 165.196 112.278 164.902 112.39C164.622 112.488 164.377 112.635 164.167 112.831C163.971 113.027 163.81 113.251 163.684 113.503C163.572 113.755 163.516 114.028 163.516 114.322V121H162.046C161.724 121 161.437 121 161.185 121C160.933 121 160.716 121 160.534 121ZM178.658 125.83C177.776 125.83 176.908 125.697 176.054 125.431C175.2 125.179 174.5 124.843 173.954 124.423L175.025 122.302C175.305 122.498 175.627 122.673 175.991 122.827C176.355 122.981 176.733 123.1 177.125 123.184C177.531 123.268 177.944 123.31 178.364 123.31C179.092 123.31 179.687 123.198 180.149 122.974C180.625 122.75 180.982 122.414 181.22 121.966C181.458 121.518 181.577 120.958 181.577 120.286V118.354L182.081 118.459C181.997 118.921 181.759 119.348 181.367 119.74C180.989 120.118 180.513 120.426 179.939 120.664C179.379 120.888 178.791 121 178.175 121C177.153 121 176.243 120.762 175.445 120.286C174.647 119.81 174.017 119.152 173.555 118.312C173.093 117.472 172.862 116.499 172.862 115.393C172.862 114.287 173.086 113.307 173.534 112.453C173.996 111.585 174.619 110.906 175.403 110.416C176.201 109.912 177.104 109.66 178.112 109.66C178.532 109.66 178.931 109.709 179.309 109.807C179.701 109.905 180.058 110.045 180.38 110.227C180.716 110.395 181.01 110.591 181.262 110.815C181.528 111.025 181.745 111.256 181.913 111.508C182.081 111.76 182.186 112.012 182.228 112.264L181.619 112.432L181.703 109.891H184.559V120.16C184.559 121.07 184.426 121.875 184.16 122.575C183.894 123.275 183.502 123.863 182.984 124.339C182.48 124.829 181.857 125.2 181.115 125.452C180.387 125.704 179.568 125.83 178.658 125.83ZM178.742 118.606C179.33 118.606 179.841 118.473 180.275 118.207C180.723 117.941 181.066 117.57 181.304 117.094C181.542 116.618 181.661 116.058 181.661 115.414C181.661 114.784 181.542 114.231 181.304 113.755C181.066 113.265 180.723 112.887 180.275 112.621C179.841 112.355 179.33 112.222 178.742 112.222C178.168 112.222 177.664 112.362 177.23 112.642C176.796 112.908 176.453 113.286 176.201 113.776C175.963 114.252 175.844 114.798 175.844 115.414C175.844 116.044 175.963 116.604 176.201 117.094C176.453 117.57 176.796 117.941 177.23 118.207C177.664 118.473 178.168 118.606 178.742 118.606ZM194.004 121V118.291H196.461V109.009H194.004V106.3H202.068V109.009H199.611V118.291H202.068V121H194.004ZM205.097 121V109.891H207.953L208.037 112.159L207.449 112.411C207.603 111.907 207.876 111.452 208.268 111.046C208.674 110.626 209.157 110.29 209.717 110.038C210.277 109.786 210.865 109.66 211.481 109.66C212.321 109.66 213.021 109.828 213.581 110.164C214.155 110.5 214.582 111.011 214.862 111.697C215.156 112.369 215.303 113.202 215.303 114.196V121H212.321V114.427C212.321 113.923 212.251 113.503 212.111 113.167C211.971 112.831 211.754 112.586 211.46 112.432C211.18 112.278 210.83 112.208 210.41 112.222C210.074 112.222 209.759 112.278 209.465 112.39C209.185 112.488 208.94 112.635 208.73 112.831C208.534 113.027 208.373 113.251 208.247 113.503C208.135 113.755 208.079 114.028 208.079 114.322V121H206.609C206.287 121 206 121 205.748 121C205.496 121 205.279 121 205.097 121ZM221.647 121L216.985 109.891H220.261L223.222 118.186L222.529 118.312L225.637 109.891H228.829L223.936 121H221.647ZM235.509 121.21C234.375 121.21 233.36 120.965 232.464 120.475C231.582 119.971 230.882 119.285 230.364 118.417C229.86 117.549 229.608 116.555 229.608 115.435C229.608 114.315 229.86 113.321 230.364 112.453C230.882 111.585 231.582 110.906 232.464 110.416C233.36 109.912 234.375 109.66 235.509 109.66C236.629 109.66 237.63 109.912 238.512 110.416C239.408 110.906 240.108 111.585 240.612 112.453C241.116 113.321 241.368 114.315 241.368 115.435C241.368 116.555 241.116 117.549 240.612 118.417C240.108 119.285 239.408 119.971 238.512 120.475C237.63 120.965 236.629 121.21 235.509 121.21ZM235.509 118.606C236.055 118.606 236.545 118.473 236.979 118.207C237.413 117.927 237.749 117.549 237.987 117.073C238.239 116.583 238.358 116.037 238.344 115.435C238.358 114.819 238.239 114.273 237.987 113.797C237.749 113.307 237.413 112.929 236.979 112.663C236.545 112.383 236.055 112.243 235.509 112.243C234.949 112.243 234.452 112.383 234.018 112.663C233.584 112.943 233.241 113.321 232.989 113.797C232.737 114.273 232.618 114.819 232.632 115.435C232.618 116.037 232.737 116.583 232.989 117.073C233.241 117.549 233.584 117.927 234.018 118.207C234.452 118.473 234.949 118.606 235.509 118.606ZM243.884 121V109.891H246.866V121H243.884ZM245.354 107.623C244.78 107.623 244.332 107.483 244.01 107.203C243.688 106.909 243.527 106.503 243.527 105.985C243.527 105.509 243.688 105.124 244.01 104.83C244.346 104.522 244.794 104.368 245.354 104.368C245.928 104.368 246.376 104.515 246.698 104.809C247.02 105.089 247.181 105.481 247.181 105.985C247.181 106.461 247.013 106.853 246.677 107.161C246.355 107.469 245.914 107.623 245.354 107.623ZM254.881 121.21C253.817 121.21 252.865 120.958 252.025 120.454C251.185 119.95 250.52 119.264 250.03 118.396C249.554 117.528 249.316 116.541 249.316 115.435C249.316 114.329 249.554 113.342 250.03 112.474C250.52 111.606 251.185 110.92 252.025 110.416C252.865 109.912 253.817 109.66 254.881 109.66C255.875 109.66 256.785 109.842 257.611 110.206C258.437 110.57 259.081 111.074 259.543 111.718L257.905 113.692C257.709 113.426 257.464 113.188 257.17 112.978C256.876 112.754 256.554 112.579 256.204 112.453C255.868 112.327 255.518 112.264 255.154 112.264C254.58 112.264 254.069 112.404 253.621 112.684C253.187 112.95 252.844 113.321 252.592 113.797C252.34 114.273 252.214 114.819 252.214 115.435C252.214 116.023 252.34 116.555 252.592 117.031C252.858 117.507 253.215 117.885 253.663 118.165C254.111 118.445 254.615 118.585 255.175 118.585C255.539 118.585 255.882 118.536 256.204 118.438C256.526 118.34 256.827 118.186 257.107 117.976C257.401 117.766 257.667 117.514 257.905 117.22L259.522 119.194C259.06 119.796 258.402 120.286 257.548 120.664C256.708 121.028 255.819 121.21 254.881 121.21ZM266.703 121.21C265.499 121.21 264.442 120.965 263.532 120.475C262.636 119.985 261.936 119.313 261.432 118.459C260.942 117.605 260.697 116.625 260.697 115.519C260.697 114.651 260.837 113.86 261.117 113.146C261.397 112.432 261.789 111.816 262.293 111.298C262.797 110.766 263.392 110.36 264.078 110.08C264.778 109.786 265.534 109.639 266.346 109.639C267.102 109.639 267.802 109.779 268.446 110.059C269.09 110.339 269.643 110.731 270.105 111.235C270.581 111.725 270.945 112.313 271.197 112.999C271.449 113.671 271.561 114.399 271.533 115.183L271.512 116.107H262.587L262.104 114.28H269.055L268.719 114.658V114.196C268.691 113.818 268.565 113.482 268.341 113.188C268.131 112.88 267.858 112.642 267.522 112.474C267.186 112.292 266.808 112.201 266.388 112.201C265.772 112.201 265.247 112.32 264.813 112.558C264.393 112.796 264.071 113.146 263.847 113.608C263.623 114.07 263.511 114.63 263.511 115.288C263.511 115.96 263.651 116.541 263.931 117.031C264.225 117.521 264.631 117.906 265.149 118.186C265.681 118.452 266.304 118.585 267.018 118.585C267.508 118.585 267.956 118.508 268.362 118.354C268.768 118.2 269.202 117.934 269.664 117.556L271.092 119.551C270.686 119.915 270.238 120.223 269.748 120.475C269.258 120.713 268.754 120.895 268.236 121.021C267.718 121.147 267.207 121.21 266.703 121.21Z" fill="black"/>
<g filter="url(#filter0_d_143_146)">
<rect x="101" y="250" width="273" height="57" rx="9" fill="white"/>
</g>
<g filter="url(#filter1_d_143_146)">
<rect x="90" y="235" width="295" height="57" rx="10" fill="white"/>
</g>
<g filter="url(#filter2_d_143_146)">
<rect x="81" y="221" width="313" height="55" rx="8" fill="white"/>
</g>
<rect opacity="0.83" x="378.974" y="200" width="22" height="22" rx="4" transform="rotate(30 378.974 200)" fill="#35CA00"/>
<g clip-path="url(#clip0_143_146)">
<path d="M385.886 210.197C385.99 210.018 386.246 209.972 386.414 210.069C386.62 210.188 386.689 210.422 386.586 210.601L386.389 210.942C388.015 212.098 388.558 214.257 387.585 215.941L387.244 216.532C386.732 217.419 386.611 218.483 386.905 219.492L386.931 219.58C387.01 219.85 386.988 220.119 386.84 220.375C386.553 220.872 385.9 221.031 385.379 220.73L377.736 216.317C377.217 216.017 377.027 215.372 377.314 214.875C377.462 214.619 377.683 214.465 377.957 214.399L378.047 214.378C379.067 214.128 379.928 213.491 380.44 212.604L380.781 212.013C381.753 210.328 383.894 209.719 385.709 210.549L385.886 210.197ZM385.664 211.368C384.18 210.511 382.271 210.96 381.442 212.395L381.101 212.985C380.489 214.045 379.48 214.818 378.263 215.114L378.173 215.135C378.097 215.153 378.013 215.192 377.975 215.256C377.896 215.394 377.967 215.585 378.111 215.668L385.754 220.08C385.899 220.164 386.08 220.12 386.16 219.982C386.197 219.917 386.207 219.836 386.185 219.761L386.16 219.673C385.805 218.47 385.952 217.199 386.564 216.139L386.905 215.549C387.733 214.114 387.186 212.247 385.664 211.368ZM380.789 219.812C381.104 219.994 381.461 219.959 381.7 219.761C381.86 219.626 382.117 219.634 382.248 219.813C382.39 219.976 382.377 220.214 382.218 220.347C381.739 220.745 381.026 220.815 380.414 220.461C379.84 220.13 379.544 219.478 379.649 218.864C379.685 218.66 379.885 218.529 380.097 218.57C380.318 218.595 380.452 218.814 380.415 219.02C380.364 219.325 380.512 219.652 380.789 219.812Z" fill="black"/>
</g>
<path d="M96.2628 238L98.6748 231.43H99.6978L102.11 238H101.106L99.1816 232.556L97.2483 238H96.2628ZM97.3515 236.376L97.6143 235.626H100.702L100.965 236.376H97.3515ZM102.999 238V233.27H103.844L103.909 233.936C104.06 233.692 104.26 233.501 104.51 233.364C104.76 233.226 105.042 233.157 105.355 233.157C105.592 233.157 105.808 233.192 106.002 233.26C106.196 233.323 106.368 233.42 106.519 233.551C106.669 233.683 106.791 233.845 106.885 234.039C107.053 233.764 107.279 233.548 107.56 233.392C107.848 233.235 108.152 233.157 108.471 233.157C108.852 233.157 109.181 233.235 109.456 233.392C109.731 233.542 109.941 233.77 110.085 234.077C110.229 234.377 110.301 234.753 110.301 235.203V238H109.372V235.297C109.372 234.859 109.281 234.527 109.099 234.302C108.924 234.077 108.665 233.964 108.32 233.964C108.089 233.964 107.883 234.024 107.701 234.143C107.52 234.261 107.376 234.434 107.269 234.659C107.169 234.884 107.119 235.159 107.119 235.485V238H106.181V235.297C106.181 234.859 106.09 234.527 105.908 234.302C105.733 234.077 105.474 233.964 105.129 233.964C104.91 233.964 104.71 234.024 104.529 234.143C104.347 234.261 104.203 234.434 104.097 234.659C103.991 234.884 103.938 235.159 103.938 235.485V238H102.999ZM113.672 238.113C113.228 238.113 112.828 238.009 112.471 237.803C112.121 237.596 111.842 237.309 111.636 236.939C111.435 236.564 111.335 236.132 111.335 235.644C111.335 235.144 111.439 234.709 111.645 234.34C111.852 233.964 112.133 233.673 112.49 233.467C112.846 233.26 113.247 233.157 113.691 233.157C114.142 233.157 114.542 233.26 114.892 233.467C115.243 233.673 115.518 233.961 115.718 234.33C115.925 234.699 116.028 235.134 116.028 235.635C116.028 236.135 115.925 236.57 115.718 236.939C115.518 237.309 115.24 237.596 114.883 237.803C114.526 238.009 114.123 238.113 113.672 238.113ZM113.672 237.305C113.929 237.305 114.16 237.243 114.367 237.118C114.58 236.993 114.748 236.808 114.874 236.564C115.005 236.314 115.071 236.004 115.071 235.635C115.071 235.266 115.008 234.959 114.883 234.715C114.758 234.465 114.589 234.277 114.376 234.152C114.17 234.027 113.941 233.964 113.691 233.964C113.441 233.964 113.209 234.027 112.997 234.152C112.784 234.277 112.612 234.465 112.48 234.715C112.355 234.959 112.293 235.266 112.293 235.635C112.293 236.004 112.355 236.314 112.48 236.564C112.612 236.808 112.781 236.993 112.987 237.118C113.2 237.243 113.428 237.305 113.672 237.305ZM118.868 238.113C118.499 238.113 118.177 238.038 117.902 237.887C117.633 237.737 117.423 237.512 117.273 237.212C117.129 236.911 117.057 236.533 117.057 236.076V233.27H117.995V235.973C117.995 236.417 118.092 236.752 118.286 236.977C118.48 237.202 118.759 237.315 119.122 237.315C119.366 237.315 119.585 237.255 119.779 237.137C119.979 237.018 120.135 236.846 120.248 236.62C120.361 236.395 120.417 236.12 120.417 235.794V233.27H121.355V238H120.52L120.454 237.193C120.311 237.481 120.101 237.706 119.826 237.869C119.55 238.031 119.231 238.113 118.868 238.113ZM122.64 238V233.27H123.485L123.541 234.077C123.692 233.795 123.904 233.573 124.18 233.411C124.455 233.242 124.771 233.157 125.128 233.157C125.503 233.157 125.825 233.232 126.094 233.382C126.363 233.533 126.573 233.761 126.723 234.068C126.873 234.368 126.948 234.746 126.948 235.203V238H126.01V235.297C126.01 234.859 125.913 234.527 125.719 234.302C125.525 234.077 125.243 233.964 124.874 233.964C124.63 233.964 124.411 234.024 124.217 234.143C124.023 234.255 123.867 234.424 123.748 234.649C123.635 234.875 123.579 235.15 123.579 235.475V238H122.64ZM130.092 238C129.798 238 129.541 237.953 129.322 237.859C129.103 237.765 128.934 237.609 128.815 237.39C128.696 237.171 128.637 236.874 128.637 236.498V234.068H127.82V233.27H128.637L128.749 232.087H129.575V233.27H130.918V234.068H129.575V236.508C129.575 236.777 129.632 236.961 129.744 237.061C129.857 237.155 130.051 237.202 130.326 237.202H130.871V238H130.092Z" fill="black"/>
<path d="M176.685 238V231.43H178.703C179.466 231.43 180.098 231.565 180.599 231.834C181.099 232.103 181.469 232.485 181.706 232.979C181.95 233.467 182.072 234.049 182.072 234.725C182.072 235.4 181.95 235.982 181.706 236.47C181.469 236.958 181.099 237.337 180.599 237.606C180.105 237.869 179.473 238 178.703 238H176.685ZM177.624 237.212H178.665C179.272 237.212 179.754 237.112 180.111 236.911C180.467 236.711 180.721 236.426 180.871 236.057C181.027 235.682 181.106 235.238 181.106 234.725C181.106 234.205 181.027 233.758 180.871 233.382C180.721 233.007 180.467 232.719 180.111 232.519C179.754 232.319 179.272 232.219 178.665 232.219H177.624V237.212ZM184.891 238.113C184.522 238.113 184.2 238.038 183.924 237.887C183.655 237.737 183.446 237.512 183.296 237.212C183.152 236.911 183.08 236.533 183.08 236.076V233.27H184.018V235.973C184.018 236.417 184.115 236.752 184.309 236.977C184.503 237.202 184.782 237.315 185.144 237.315C185.389 237.315 185.608 237.255 185.801 237.137C186.002 237.018 186.158 236.846 186.271 236.62C186.383 236.395 186.44 236.12 186.44 235.794V233.27H187.378V238H186.543L186.477 237.193C186.333 237.481 186.124 237.706 185.848 237.869C185.573 238.031 185.254 238.113 184.891 238.113ZM190.803 238.113C190.353 238.113 189.952 238.009 189.602 237.803C189.251 237.596 188.976 237.309 188.776 236.939C188.582 236.57 188.485 236.142 188.485 235.654C188.485 235.153 188.582 234.718 188.776 234.349C188.976 233.974 189.251 233.683 189.602 233.476C189.952 233.264 190.359 233.157 190.822 233.157C191.285 233.157 191.682 233.26 192.014 233.467C192.345 233.673 192.602 233.949 192.783 234.293C192.965 234.631 193.056 235.006 193.056 235.419C193.056 235.482 193.052 235.55 193.046 235.626C193.046 235.694 193.043 235.773 193.037 235.86H189.17V235.194H192.117C192.098 234.8 191.967 234.493 191.723 234.274C191.479 234.049 191.175 233.936 190.812 233.936C190.556 233.936 190.321 233.996 190.109 234.114C189.896 234.227 189.724 234.396 189.592 234.621C189.467 234.84 189.405 235.119 189.405 235.457V235.719C189.405 236.07 189.467 236.367 189.592 236.611C189.724 236.849 189.896 237.03 190.109 237.155C190.321 237.274 190.553 237.334 190.803 237.334C191.103 237.334 191.351 237.268 191.545 237.137C191.738 237.005 191.882 236.827 191.976 236.602H192.915C192.833 236.889 192.696 237.149 192.502 237.381C192.308 237.606 192.067 237.784 191.779 237.916C191.498 238.047 191.172 238.113 190.803 238.113Z" fill="black"/>
<path d="M230.181 238V231.43H232.405C232.925 231.43 233.35 231.518 233.682 231.693C234.013 231.868 234.257 232.103 234.414 232.397C234.576 232.685 234.658 233.013 234.658 233.382C234.658 233.733 234.576 234.058 234.414 234.358C234.257 234.653 234.01 234.89 233.672 235.072C233.334 235.247 232.903 235.335 232.377 235.335H231.12V238H230.181ZM233.635 238L232.218 235.081H233.25L234.724 238H233.635ZM231.12 234.621H232.34C232.803 234.621 233.144 234.509 233.363 234.283C233.582 234.052 233.691 233.758 233.691 233.401C233.691 233.038 233.585 232.75 233.372 232.538C233.159 232.325 232.815 232.219 232.34 232.219H231.12V234.621ZM237.682 238.113C237.231 238.113 236.831 238.009 236.48 237.803C236.13 237.596 235.855 237.309 235.654 236.939C235.46 236.57 235.363 236.142 235.363 235.654C235.363 235.153 235.46 234.718 235.654 234.349C235.855 233.974 236.13 233.683 236.48 233.476C236.831 233.264 237.237 233.157 237.7 233.157C238.163 233.157 238.561 233.26 238.892 233.467C239.224 233.673 239.48 233.949 239.662 234.293C239.843 234.631 239.934 235.006 239.934 235.419C239.934 235.482 239.931 235.55 239.925 235.626C239.925 235.694 239.921 235.773 239.915 235.86H236.048V235.194H238.995C238.977 234.8 238.845 234.493 238.601 234.274C238.357 234.049 238.054 233.936 237.691 233.936C237.434 233.936 237.2 233.996 236.987 234.114C236.774 234.227 236.602 234.396 236.471 234.621C236.346 234.84 236.283 235.119 236.283 235.457V235.719C236.283 236.07 236.346 236.367 236.471 236.611C236.602 236.849 236.774 237.03 236.987 237.155C237.2 237.274 237.431 237.334 237.682 237.334C237.982 237.334 238.229 237.268 238.423 237.137C238.617 237.005 238.761 236.827 238.855 236.602H239.793C239.712 236.889 239.574 237.149 239.38 237.381C239.186 237.606 238.945 237.784 238.658 237.916C238.376 238.047 238.051 238.113 237.682 238.113ZM243.164 238.113C242.707 238.113 242.3 238.009 241.943 237.803C241.587 237.59 241.305 237.299 241.099 236.93C240.899 236.561 240.798 236.132 240.798 235.644C240.798 235.15 240.899 234.718 241.099 234.349C241.305 233.974 241.587 233.683 241.943 233.476C242.3 233.264 242.707 233.157 243.164 233.157C243.739 233.157 244.221 233.307 244.609 233.608C244.997 233.908 245.244 234.315 245.35 234.828H244.374C244.312 234.552 244.168 234.34 243.943 234.19C243.724 234.039 243.461 233.964 243.154 233.964C242.904 233.964 242.672 234.03 242.46 234.161C242.247 234.287 242.075 234.474 241.943 234.725C241.818 234.969 241.756 235.272 241.756 235.635C241.756 235.904 241.793 236.145 241.868 236.358C241.943 236.564 242.044 236.739 242.169 236.883C242.3 237.027 242.45 237.137 242.619 237.212C242.788 237.28 242.966 237.315 243.154 237.315C243.361 237.315 243.545 237.284 243.708 237.221C243.877 237.152 244.018 237.052 244.13 236.921C244.249 236.789 244.33 236.633 244.374 236.451H245.35C245.244 236.952 244.997 237.356 244.609 237.662C244.221 237.962 243.739 238.113 243.164 238.113ZM248.185 238.113C247.816 238.113 247.493 238.038 247.218 237.887C246.949 237.737 246.739 237.512 246.589 237.212C246.445 236.911 246.373 236.533 246.373 236.076V233.27H247.312V235.973C247.312 236.417 247.409 236.752 247.603 236.977C247.797 237.202 248.075 237.315 248.438 237.315C248.682 237.315 248.901 237.255 249.095 237.137C249.295 237.018 249.452 236.846 249.564 236.62C249.677 236.395 249.733 236.12 249.733 235.794V233.27H250.672V238H249.837L249.771 237.193C249.627 237.481 249.417 237.706 249.142 237.869C248.867 238.031 248.548 238.113 248.185 238.113ZM251.957 238V233.27H252.802L252.886 234.161C252.992 233.949 253.13 233.77 253.299 233.626C253.468 233.476 253.665 233.361 253.89 233.279C254.122 233.198 254.385 233.157 254.679 233.157V234.152H254.341C254.147 234.152 253.962 234.177 253.787 234.227C253.612 234.271 253.455 234.349 253.318 234.462C253.186 234.574 253.083 234.728 253.008 234.922C252.933 235.116 252.895 235.356 252.895 235.644V238H251.957ZM255.541 238V233.27H256.385L256.47 234.161C256.576 233.949 256.714 233.77 256.883 233.626C257.052 233.476 257.249 233.361 257.474 233.279C257.705 233.198 257.968 233.157 258.262 233.157V234.152H257.924C257.73 234.152 257.546 234.177 257.371 234.227C257.196 234.271 257.039 234.349 256.901 234.462C256.77 234.574 256.667 234.728 256.592 234.922C256.517 235.116 256.479 235.356 256.479 235.644V238H255.541ZM261.117 238.113C260.667 238.113 260.267 238.009 259.916 237.803C259.566 237.596 259.29 237.309 259.09 236.939C258.896 236.57 258.799 236.142 258.799 235.654C258.799 235.153 258.896 234.718 259.09 234.349C259.29 233.974 259.566 233.683 259.916 233.476C260.267 233.264 260.673 233.157 261.136 233.157C261.599 233.157 261.997 233.26 262.328 233.467C262.66 233.673 262.916 233.949 263.098 234.293C263.279 234.631 263.37 235.006 263.37 235.419C263.37 235.482 263.367 235.55 263.361 235.626C263.361 235.694 263.357 235.773 263.351 235.86H259.484V235.194H262.431C262.413 234.8 262.281 234.493 262.037 234.274C261.793 234.049 261.49 233.936 261.127 233.936C260.87 233.936 260.636 233.996 260.423 234.114C260.21 234.227 260.038 234.396 259.907 234.621C259.782 234.84 259.719 235.119 259.719 235.457V235.719C259.719 236.07 259.782 236.367 259.907 236.611C260.038 236.849 260.21 237.03 260.423 237.155C260.636 237.274 260.867 237.334 261.117 237.334C261.418 237.334 261.665 237.268 261.859 237.137C262.053 237.005 262.197 236.827 262.291 236.602H263.229C263.148 236.889 263.01 237.149 262.816 237.381C262.622 237.606 262.381 237.784 262.094 237.916C261.812 238.047 261.487 238.113 261.117 238.113ZM264.413 238V233.27H265.257L265.314 234.077C265.464 233.795 265.677 233.573 265.952 233.411C266.227 233.242 266.543 233.157 266.9 233.157C267.275 233.157 267.597 233.232 267.866 233.382C268.136 233.533 268.345 233.761 268.495 234.068C268.645 234.368 268.721 234.746 268.721 235.203V238H267.782V235.297C267.782 234.859 267.685 234.527 267.491 234.302C267.297 234.077 267.016 233.964 266.646 233.964C266.402 233.964 266.183 234.024 265.989 234.143C265.795 234.255 265.639 234.424 265.52 234.649C265.408 234.875 265.351 235.15 265.351 235.475V238H264.413ZM272.108 238.113C271.651 238.113 271.244 238.009 270.888 237.803C270.531 237.59 270.25 237.299 270.043 236.93C269.843 236.561 269.743 236.132 269.743 235.644C269.743 235.15 269.843 234.718 270.043 234.349C270.25 233.974 270.531 233.683 270.888 233.476C271.244 233.264 271.651 233.157 272.108 233.157C272.683 233.157 273.165 233.307 273.553 233.608C273.941 233.908 274.188 234.315 274.295 234.828H273.319C273.256 234.552 273.112 234.34 272.887 234.19C272.668 234.039 272.405 233.964 272.098 233.964C271.848 233.964 271.617 234.03 271.404 234.161C271.191 234.287 271.019 234.474 270.888 234.725C270.763 234.969 270.7 235.272 270.7 235.635C270.7 235.904 270.738 236.145 270.813 236.358C270.888 236.564 270.988 236.739 271.113 236.883C271.244 237.027 271.395 237.137 271.563 237.212C271.732 237.28 271.911 237.315 272.098 237.315C272.305 237.315 272.49 237.284 272.652 237.221C272.821 237.152 272.962 237.052 273.075 236.921C273.193 236.789 273.275 236.633 273.319 236.451H274.295C274.188 236.952 273.941 237.356 273.553 237.662C273.165 237.962 272.683 238.113 272.108 238.113ZM277.533 238.113C277.082 238.113 276.682 238.009 276.331 237.803C275.981 237.596 275.706 237.309 275.505 236.939C275.311 236.57 275.214 236.142 275.214 235.654C275.214 235.153 275.311 234.718 275.505 234.349C275.706 233.974 275.981 233.683 276.331 233.476C276.682 233.264 277.088 233.157 277.551 233.157C278.014 233.157 278.412 233.26 278.743 233.467C279.075 233.673 279.332 233.949 279.513 234.293C279.694 234.631 279.785 235.006 279.785 235.419C279.785 235.482 279.782 235.55 279.776 235.626C279.776 235.694 279.773 235.773 279.766 235.86H275.9V235.194H278.847C278.828 234.8 278.696 234.493 278.452 234.274C278.208 234.049 277.905 233.936 277.542 233.936C277.286 233.936 277.051 233.996 276.838 234.114C276.625 234.227 276.453 234.396 276.322 234.621C276.197 234.84 276.134 235.119 276.134 235.457V235.719C276.134 236.07 276.197 236.367 276.322 236.611C276.453 236.849 276.625 237.03 276.838 237.155C277.051 237.274 277.282 237.334 277.533 237.334C277.833 237.334 278.08 237.268 278.274 237.137C278.468 237.005 278.612 236.827 278.706 236.602H279.644C279.563 236.889 279.425 237.149 279.231 237.381C279.037 237.606 278.797 237.784 278.509 237.916C278.227 238.047 277.902 238.113 277.533 238.113Z" fill="black"/>
<path d="M317.239 238V231.43H319.482C320.008 231.43 320.439 231.518 320.777 231.693C321.115 231.868 321.365 232.103 321.528 232.397C321.691 232.691 321.772 233.026 321.772 233.401C321.772 233.758 321.691 234.086 321.528 234.387C321.372 234.681 321.124 234.918 320.787 235.1C320.449 235.275 320.014 235.363 319.482 235.363H318.177V238H317.239ZM318.177 234.584H319.444C319.939 234.584 320.289 234.477 320.496 234.265C320.708 234.046 320.815 233.758 320.815 233.401C320.815 233.019 320.708 232.725 320.496 232.519C320.289 232.312 319.939 232.209 319.444 232.209H318.177V234.584ZM324.057 238.113C323.669 238.113 323.347 238.047 323.09 237.916C322.834 237.784 322.643 237.609 322.518 237.39C322.393 237.165 322.33 236.924 322.33 236.667C322.33 236.354 322.411 236.089 322.574 235.87C322.737 235.644 322.968 235.472 323.269 235.353C323.569 235.234 323.929 235.175 324.348 235.175H325.577C325.577 234.9 325.537 234.671 325.455 234.49C325.374 234.308 325.252 234.174 325.089 234.086C324.933 233.992 324.733 233.946 324.489 233.946C324.207 233.946 323.966 234.014 323.766 234.152C323.566 234.283 323.441 234.48 323.391 234.743H322.452C322.49 234.412 322.602 234.13 322.79 233.899C322.984 233.661 323.231 233.479 323.531 233.354C323.832 233.223 324.151 233.157 324.489 233.157C324.933 233.157 325.305 233.235 325.605 233.392C325.906 233.548 326.131 233.77 326.281 234.058C326.438 234.34 326.516 234.678 326.516 235.072V238H325.699L325.624 237.202C325.555 237.327 325.474 237.446 325.38 237.559C325.286 237.672 325.174 237.768 325.042 237.85C324.917 237.931 324.77 237.994 324.601 238.038C324.439 238.088 324.257 238.113 324.057 238.113ZM324.235 237.352C324.435 237.352 324.617 237.312 324.78 237.23C324.942 237.149 325.08 237.04 325.192 236.902C325.311 236.758 325.399 236.598 325.455 236.423C325.518 236.242 325.552 236.057 325.559 235.87V235.841H324.442C324.173 235.841 323.954 235.876 323.785 235.945C323.622 236.007 323.503 236.095 323.428 236.207C323.353 236.32 323.315 236.451 323.315 236.602C323.315 236.758 323.35 236.893 323.419 237.005C323.494 237.112 323.6 237.196 323.738 237.259C323.875 237.321 324.041 237.352 324.235 237.352ZM328.111 240.065L329.266 237.474H328.994L327.126 233.27H328.14L329.623 236.705L331.115 233.27H332.1L329.097 240.065H328.111ZM332.929 238V233.27H333.774L333.839 233.936C333.989 233.692 334.19 233.501 334.44 233.364C334.69 233.226 334.972 233.157 335.285 233.157C335.522 233.157 335.738 233.192 335.932 233.26C336.126 233.323 336.298 233.42 336.448 233.551C336.599 233.683 336.721 233.845 336.814 234.039C336.983 233.764 337.209 233.548 337.49 233.392C337.778 233.235 338.081 233.157 338.401 233.157C338.782 233.157 339.111 233.235 339.386 233.392C339.661 233.542 339.871 233.77 340.015 234.077C340.159 234.377 340.231 234.753 340.231 235.203V238H339.302V235.297C339.302 234.859 339.211 234.527 339.029 234.302C338.854 234.077 338.595 233.964 338.25 233.964C338.019 233.964 337.812 234.024 337.631 234.143C337.45 234.261 337.306 234.434 337.199 234.659C337.099 234.884 337.049 235.159 337.049 235.485V238H336.111V235.297C336.111 234.859 336.02 234.527 335.838 234.302C335.663 234.077 335.404 233.964 335.059 233.964C334.84 233.964 334.64 234.024 334.459 234.143C334.277 234.261 334.133 234.434 334.027 234.659C333.921 234.884 333.867 235.159 333.867 235.485V238H332.929ZM343.583 238.113C343.133 238.113 342.732 238.009 342.382 237.803C342.032 237.596 341.756 237.309 341.556 236.939C341.362 236.57 341.265 236.142 341.265 235.654C341.265 235.153 341.362 234.718 341.556 234.349C341.756 233.974 342.032 233.683 342.382 233.476C342.732 233.264 343.139 233.157 343.602 233.157C344.065 233.157 344.463 233.26 344.794 233.467C345.126 233.673 345.382 233.949 345.564 234.293C345.745 234.631 345.836 235.006 345.836 235.419C345.836 235.482 345.833 235.55 345.827 235.626C345.827 235.694 345.823 235.773 345.817 235.86H341.95V235.194H344.897C344.879 234.8 344.747 234.493 344.503 234.274C344.259 234.049 343.956 233.936 343.593 233.936C343.336 233.936 343.102 233.996 342.889 234.114C342.676 234.227 342.504 234.396 342.373 234.621C342.248 234.84 342.185 235.119 342.185 235.457V235.719C342.185 236.07 342.248 236.367 342.373 236.611C342.504 236.849 342.676 237.03 342.889 237.155C343.102 237.274 343.333 237.334 343.583 237.334C343.884 237.334 344.131 237.268 344.325 237.137C344.519 237.005 344.663 236.827 344.757 236.602H345.695C345.614 236.889 345.476 237.149 345.282 237.381C345.088 237.606 344.847 237.784 344.559 237.916C344.278 238.047 343.953 238.113 343.583 238.113ZM346.879 238V233.27H347.723L347.78 234.077C347.93 233.795 348.143 233.573 348.418 233.411C348.693 233.242 349.009 233.157 349.366 233.157C349.741 233.157 350.063 233.232 350.332 233.382C350.601 233.533 350.811 233.761 350.961 234.068C351.111 234.368 351.187 234.746 351.187 235.203V238H350.248V235.297C350.248 234.859 350.151 234.527 349.957 234.302C349.763 234.077 349.482 233.964 349.112 233.964C348.868 233.964 348.649 234.024 348.455 234.143C348.261 234.255 348.105 234.424 347.986 234.649C347.873 234.875 347.817 235.15 347.817 235.475V238H346.879ZM354.33 238C354.036 238 353.779 237.953 353.56 237.859C353.341 237.765 353.172 237.609 353.053 237.39C352.935 237.171 352.875 236.874 352.875 236.498V234.068H352.059V233.27H352.875L352.988 232.087H353.814V233.27H355.156V234.068H353.814V236.508C353.814 236.777 353.87 236.961 353.983 237.061C354.095 237.155 354.289 237.202 354.564 237.202H355.109V238H354.33ZM360.582 238L358.142 231.43H359.155L361.145 237.024L363.153 231.43H364.148L361.708 238H360.582ZM365.037 238V233.27H365.975V238H365.037ZM365.515 232.378C365.334 232.378 365.184 232.322 365.065 232.209C364.952 232.097 364.896 231.953 364.896 231.778C364.896 231.609 364.952 231.471 365.065 231.365C365.184 231.252 365.334 231.196 365.515 231.196C365.691 231.196 365.838 231.252 365.957 231.365C366.075 231.471 366.135 231.609 366.135 231.778C366.135 231.953 366.075 232.097 365.957 232.209C365.838 232.322 365.691 232.378 365.515 232.378ZM368.885 238.113C368.497 238.113 368.175 238.047 367.918 237.916C367.662 237.784 367.471 237.609 367.346 237.39C367.22 237.165 367.158 236.924 367.158 236.667C367.158 236.354 367.239 236.089 367.402 235.87C367.565 235.644 367.796 235.472 368.096 235.353C368.397 235.234 368.757 235.175 369.176 235.175H370.405C370.405 234.9 370.365 234.671 370.283 234.49C370.202 234.308 370.08 234.174 369.917 234.086C369.761 233.992 369.561 233.946 369.317 233.946C369.035 233.946 368.794 234.014 368.594 234.152C368.394 234.283 368.269 234.48 368.218 234.743H367.28C367.317 234.412 367.43 234.13 367.618 233.899C367.812 233.661 368.059 233.479 368.359 233.354C368.66 233.223 368.979 233.157 369.317 233.157C369.761 233.157 370.133 233.235 370.433 233.392C370.734 233.548 370.959 233.77 371.109 234.058C371.266 234.34 371.344 234.678 371.344 235.072V238H370.527L370.452 237.202C370.383 237.327 370.302 237.446 370.208 237.559C370.114 237.672 370.002 237.768 369.87 237.85C369.745 237.931 369.598 237.994 369.429 238.038C369.266 238.088 369.085 238.113 368.885 238.113ZM369.063 237.352C369.263 237.352 369.445 237.312 369.607 237.23C369.77 237.149 369.908 237.04 370.02 236.902C370.139 236.758 370.227 236.598 370.283 236.423C370.346 236.242 370.38 236.057 370.386 235.87V235.841H369.27C369.001 235.841 368.782 235.876 368.613 235.945C368.45 236.007 368.331 236.095 368.256 236.207C368.181 236.32 368.143 236.451 368.143 236.602C368.143 236.758 368.178 236.893 368.247 237.005C368.322 237.112 368.428 237.196 368.566 237.259C368.703 237.321 368.869 237.352 369.063 237.352Z" fill="black"/>
<path d="M132.214 254H95.7857C94.7995 254 94 255.567 94 257.5C94 259.433 94.7995 261 95.7857 261H132.214C133.201 261 134 259.433 134 257.5C134 255.567 133.201 254 132.214 254Z" fill="#E4E6EA"/>
<path d="M203.214 254H166.786C165.799 254 165 255.567 165 257.5C165 259.433 165.799 261 166.786 261H203.214C204.201 261 205 259.433 205 257.5C205 255.567 204.201 254 203.214 254Z" fill="#E4E6EA"/>
<path d="M285.232 254H228.768C227.239 254 226 255.567 226 257.5C226 259.433 227.239 261 228.768 261H285.232C286.761 261 288 259.433 288 257.5C288 255.567 286.761 254 285.232 254Z" fill="#E4E6EA"/>
<path d="M373.232 254H316.768C315.239 254 314 255.567 314 257.5C314 259.433 315.239 261 316.768 261H373.232C374.761 261 376 259.433 376 257.5C376 255.567 374.761 254 373.232 254Z" fill="#E4E6EA"/>
<rect x="114" y="388" width="247" height="41" rx="6" fill="#0900FF"/>
<path d="M190.098 413L193.948 403.2H195.824L199.646 413H197.49L195.516 407.722C195.46 407.573 195.39 407.381 195.306 407.148C195.231 406.915 195.152 406.667 195.068 406.406C194.984 406.145 194.905 405.897 194.83 405.664C194.755 405.421 194.699 405.221 194.662 405.062H195.04C194.984 405.267 194.919 405.487 194.844 405.72C194.779 405.944 194.709 406.177 194.634 406.42C194.559 406.653 194.48 406.882 194.396 407.106C194.312 407.33 194.233 407.549 194.158 407.764L192.184 413H190.098ZM191.89 410.942L192.576 409.262H197.07L197.77 410.942H191.89ZM203.367 413.14C202.713 413.14 202.13 412.977 201.617 412.65C201.113 412.314 200.711 411.861 200.413 411.292C200.123 410.713 199.979 410.046 199.979 409.29C199.979 408.553 200.123 407.895 200.413 407.316C200.711 406.728 201.113 406.271 201.617 405.944C202.13 405.608 202.713 405.44 203.367 405.44C203.712 405.44 204.043 405.496 204.361 405.608C204.687 405.711 204.977 405.855 205.229 406.042C205.49 406.229 205.7 406.439 205.859 406.672C206.017 406.896 206.106 407.129 206.125 407.372L205.621 407.47V402.64H207.623V413H205.733L205.649 411.292L206.041 411.334C206.022 411.567 205.938 411.791 205.789 412.006C205.639 412.221 205.439 412.417 205.187 412.594C204.944 412.762 204.664 412.897 204.347 413C204.039 413.093 203.712 413.14 203.367 413.14ZM203.815 411.488C204.188 411.488 204.515 411.395 204.795 411.208C205.075 411.021 205.294 410.765 205.453 410.438C205.611 410.111 205.691 409.729 205.691 409.29C205.691 408.861 205.611 408.483 205.453 408.156C205.294 407.829 205.075 407.573 204.795 407.386C204.515 407.199 204.188 407.106 203.815 407.106C203.441 407.106 203.115 407.199 202.835 407.386C202.564 407.573 202.349 407.829 202.191 408.156C202.041 408.483 201.967 408.861 201.967 409.29C201.967 409.729 202.041 410.111 202.191 410.438C202.349 410.765 202.564 411.021 202.835 411.208C203.115 411.395 203.441 411.488 203.815 411.488ZM212.445 413.14C211.791 413.14 211.208 412.977 210.695 412.65C210.191 412.314 209.789 411.861 209.491 411.292C209.201 410.713 209.057 410.046 209.057 409.29C209.057 408.553 209.201 407.895 209.491 407.316C209.789 406.728 210.191 406.271 210.695 405.944C211.208 405.608 211.791 405.44 212.445 405.44C212.79 405.44 213.121 405.496 213.439 405.608C213.765 405.711 214.055 405.855 214.307 406.042C214.568 406.229 214.778 406.439 214.937 406.672C215.095 406.896 215.184 407.129 215.203 407.372L214.699 407.47V402.64H216.701V413H214.811L214.727 411.292L215.119 411.334C215.1 411.567 215.016 411.791 214.867 412.006C214.717 412.221 214.517 412.417 214.265 412.594C214.022 412.762 213.742 412.897 213.425 413C213.117 413.093 212.79 413.14 212.445 413.14ZM212.893 411.488C213.266 411.488 213.593 411.395 213.873 411.208C214.153 411.021 214.372 410.765 214.531 410.438C214.689 410.111 214.769 409.729 214.769 409.29C214.769 408.861 214.689 408.483 214.531 408.156C214.372 407.829 214.153 407.573 213.873 407.386C213.593 407.199 213.266 407.106 212.893 407.106C212.519 407.106 212.193 407.199 211.913 407.386C211.642 407.573 211.427 407.829 211.269 408.156C211.119 408.483 211.045 408.861 211.045 409.29C211.045 409.729 211.119 410.111 211.269 410.438C211.427 410.765 211.642 411.021 211.913 411.208C212.193 411.395 212.519 411.488 212.893 411.488ZM223.198 413V403.2H227.356C227.944 403.2 228.471 403.34 228.938 403.62C229.404 403.891 229.773 404.264 230.044 404.74C230.324 405.216 230.464 405.753 230.464 406.35C230.464 406.957 230.324 407.503 230.044 407.988C229.773 408.473 229.404 408.861 228.938 409.15C228.471 409.43 227.944 409.57 227.356 409.57H225.298V413H223.198ZM225.27 407.68H227.118C227.342 407.68 227.542 407.624 227.72 407.512C227.897 407.391 228.037 407.232 228.14 407.036C228.252 406.84 228.308 406.616 228.308 406.364C228.308 406.112 228.252 405.893 228.14 405.706C228.037 405.519 227.897 405.37 227.72 405.258C227.542 405.146 227.342 405.09 227.118 405.09H225.27V407.68ZM234.7 413.14C234.084 413.14 233.528 412.972 233.034 412.636C232.539 412.3 232.147 411.843 231.858 411.264C231.568 410.685 231.424 410.023 231.424 409.276C231.424 408.529 231.568 407.867 231.858 407.288C232.156 406.709 232.558 406.257 233.062 405.93C233.566 405.603 234.14 405.44 234.784 405.44C235.148 405.44 235.479 405.496 235.778 405.608C236.086 405.711 236.352 405.855 236.576 406.042C236.809 406.229 237.005 406.443 237.164 406.686C237.322 406.929 237.434 407.19 237.5 407.47L237.08 407.4V405.594H239.054V413H237.052V411.222L237.5 411.18C237.425 411.441 237.304 411.689 237.136 411.922C236.968 412.155 236.758 412.365 236.506 412.552C236.263 412.729 235.988 412.874 235.68 412.986C235.372 413.089 235.045 413.14 234.7 413.14ZM235.246 411.418C235.619 411.418 235.946 411.329 236.226 411.152C236.506 410.975 236.72 410.727 236.87 410.41C237.028 410.083 237.108 409.705 237.108 409.276C237.108 408.856 237.028 408.487 236.87 408.17C236.72 407.853 236.506 407.605 236.226 407.428C235.946 407.241 235.619 407.148 235.246 407.148C234.882 407.148 234.56 407.241 234.28 407.428C234.009 407.605 233.794 407.853 233.636 408.17C233.477 408.487 233.398 408.856 233.398 409.276C233.398 409.705 233.477 410.083 233.636 410.41C233.794 410.727 234.009 410.975 234.28 411.152C234.56 411.329 234.882 411.418 235.246 411.418ZM241.919 416.22L243.543 412.412L243.571 413.56L239.959 405.594H242.213L244.019 409.864C244.093 410.023 244.163 410.209 244.229 410.424C244.303 410.629 244.364 410.825 244.411 411.012L244.075 411.166C244.14 411.007 244.205 410.825 244.271 410.62C244.345 410.415 244.42 410.195 244.495 409.962L246.049 405.594H248.317L245.209 413L243.935 416.22H241.919ZM249.373 413V405.594H251.291L251.333 407.008L251.039 407.064C251.141 406.821 251.277 406.602 251.445 406.406C251.622 406.21 251.823 406.042 252.047 405.902C252.271 405.762 252.509 405.655 252.761 405.58C253.013 405.496 253.265 405.454 253.517 405.454C253.899 405.454 254.245 405.515 254.553 405.636C254.861 405.757 255.122 405.949 255.337 406.21C255.551 406.462 255.719 406.798 255.841 407.218L255.533 407.19L255.631 406.966C255.752 406.742 255.906 406.537 256.093 406.35C256.279 406.163 256.489 406.005 256.723 405.874C256.956 405.743 257.199 405.641 257.451 405.566C257.703 405.491 257.95 405.454 258.193 405.454C258.771 405.454 259.252 405.571 259.635 405.804C260.017 406.028 260.302 406.369 260.489 406.826C260.685 407.283 260.783 407.843 260.783 408.506V413H258.795V408.646C258.795 408.31 258.748 408.035 258.655 407.82C258.561 407.605 258.426 407.447 258.249 407.344C258.071 407.232 257.843 407.176 257.563 407.176C257.348 407.176 257.147 407.213 256.961 407.288C256.783 407.353 256.625 407.451 256.485 407.582C256.354 407.703 256.251 407.853 256.177 408.03C256.102 408.198 256.065 408.38 256.065 408.576V413H254.063V408.632C254.063 408.324 254.016 408.063 253.923 407.848C253.829 407.624 253.694 407.456 253.517 407.344C253.339 407.232 253.12 407.176 252.859 407.176C252.644 407.176 252.443 407.213 252.257 407.288C252.079 407.353 251.925 407.451 251.795 407.582C251.664 407.703 251.561 407.848 251.487 408.016C251.412 408.184 251.375 408.366 251.375 408.562V413H249.373ZM266.19 413.14C265.387 413.14 264.682 412.977 264.076 412.65C263.478 412.323 263.012 411.875 262.676 411.306C262.349 410.737 262.186 410.083 262.186 409.346C262.186 408.767 262.279 408.24 262.466 407.764C262.652 407.288 262.914 406.877 263.25 406.532C263.586 406.177 263.982 405.907 264.44 405.72C264.906 405.524 265.41 405.426 265.952 405.426C266.456 405.426 266.922 405.519 267.352 405.706C267.781 405.893 268.15 406.154 268.458 406.49C268.775 406.817 269.018 407.209 269.186 407.666C269.354 408.114 269.428 408.599 269.41 409.122L269.396 409.738H263.446L263.124 408.52H267.758L267.534 408.772V408.464C267.515 408.212 267.431 407.988 267.282 407.792C267.142 407.587 266.96 407.428 266.736 407.316C266.512 407.195 266.26 407.134 265.98 407.134C265.569 407.134 265.219 407.213 264.93 407.372C264.65 407.531 264.435 407.764 264.286 408.072C264.136 408.38 264.062 408.753 264.062 409.192C264.062 409.64 264.155 410.027 264.342 410.354C264.538 410.681 264.808 410.937 265.154 411.124C265.508 411.301 265.924 411.39 266.4 411.39C266.726 411.39 267.025 411.339 267.296 411.236C267.566 411.133 267.856 410.956 268.164 410.704L269.116 412.034C268.845 412.277 268.546 412.482 268.22 412.65C267.893 412.809 267.557 412.93 267.212 413.014C266.866 413.098 266.526 413.14 266.19 413.14ZM270.879 413V405.594H272.783L272.839 407.106L272.447 407.274C272.549 406.938 272.731 406.635 272.993 406.364C273.263 406.084 273.585 405.86 273.959 405.692C274.332 405.524 274.724 405.44 275.135 405.44C275.695 405.44 276.161 405.552 276.535 405.776C276.917 406 277.202 406.341 277.389 406.798C277.585 407.246 277.683 407.801 277.683 408.464V413H275.695V408.618C275.695 408.282 275.648 408.002 275.555 407.778C275.461 407.554 275.317 407.391 275.121 407.288C274.934 407.185 274.701 407.139 274.421 407.148C274.197 407.148 273.987 407.185 273.791 407.26C273.604 407.325 273.441 407.423 273.301 407.554C273.17 407.685 273.063 407.834 272.979 408.002C272.904 408.17 272.867 408.352 272.867 408.548V413H271.887C271.672 413 271.481 413 271.313 413C271.145 413 271 413 270.879 413ZM280.302 413V403.718H282.29V413H280.302ZM278.916 407.372V405.594H283.816V407.372H278.916Z" fill="white"/>
<defs>
<filter id="filter0_d_143_146" x="77.2" y="230.2" width="320.6" height="104.6" filterUnits="userSpaceOnUse" color-interpolation-filters="sRGB">
<feFlood flood-opacity="0" result="BackgroundImageFix"/>
<feColorMatrix in="SourceAlpha" type="matrix" values="0 0 0 0 0 0 0 0 0 0 0 0 0 0 0 0 0 0 127 0" result="hardAlpha"/>
<feMorphology radius="2" operator="dilate" in="SourceAlpha" result="effect1_dropShadow_143_146"/>
<feOffset dy="4"/>
<feGaussianBlur stdDeviation="10.9"/>
<feComposite in2="hardAlpha" operator="out"/>
<feColorMatrix type="matrix" values="0 0 0 0 0 0 0 0 0 0 0 0 0 0 0 0 0 0 0.11 0"/>
<feBlend mode="normal" in2="BackgroundImageFix" result="effect1_dropShadow_143_146"/>
<feBlend mode="normal" in="SourceGraphic" in2="effect1_dropShadow_143_146" result="shape"/>
</filter>
<filter id="filter1_d_143_146" x="66.2" y="215.2" width="342.6" height="104.6" filterUnits="userSpaceOnUse" color-interpolation-filters="sRGB">
<feFlood flood-opacity="0" result="BackgroundImageFix"/>
<feColorMatrix in="SourceAlpha" type="matrix" values="0 0 0 0 0 0 0 0 0 0 0 0 0 0 0 0 0 0 127 0" result="hardAlpha"/>
<feMorphology radius="2" operator="dilate" in="SourceAlpha" result="effect1_dropShadow_143_146"/>
<feOffset dy="4"/>
<feGaussianBlur stdDeviation="10.9"/>
<feComposite in2="hardAlpha" operator="out"/>
<feColorMatrix type="matrix" values="0 0 0 0 0 0 0 0 0 0 0 0 0 0 0 0 0 0 0.11 0"/>
<feBlend mode="normal" in2="BackgroundImageFix" result="effect1_dropShadow_143_146"/>
<feBlend mode="normal" in="SourceGraphic" in2="effect1_dropShadow_143_146" result="shape"/>
</filter>
<filter id="filter2_d_143_146" x="57.2" y="201.2" width="360.6" height="102.6" filterUnits="userSpaceOnUse" color-interpolation-filters="sRGB">
<feFlood flood-opacity="0" result="BackgroundImageFix"/>
<feColorMatrix in="SourceAlpha" type="matrix" values="0 0 0 0 0 0 0 0 0 0 0 0 0 0 0 0 0 0 127 0" result="hardAlpha"/>
<feMorphology radius="2" operator="dilate" in="SourceAlpha" result="effect1_dropShadow_143_146"/>
<feOffset dy="4"/>
<feGaussianBlur stdDeviation="10.9"/>
<feComposite in2="hardAlpha" operator="out"/>
<feColorMatrix type="matrix" values="0 0 0 0 0 0 0 0 0 0 0 0 0 0 0 0 0 0 0.11 0"/>
<feBlend mode="normal" in2="BackgroundImageFix" result="effect1_dropShadow_143_146"/>
<feBlend mode="normal" in="SourceGraphic" in2="effect1_dropShadow_143_146" result="shape"/>
</filter>
<clipPath id="clip0_143_146">
<rect width="11" height="12" fill="white" transform="translate(381.67 207.33) rotate(30)"/>
</clipPath>
</defs>
</svg>
