<svg width="480" height="540" viewBox="0 0 480 540" fill="none" xmlns="http://www.w3.org/2000/svg">
<rect x="70" y="75" width="345" height="388" rx="16" fill="#F1F5F7"/>
<path d="M86.911 123V108.3H90.061V120.165H96.718V123H86.911ZM104.087 123.21C102.883 123.21 101.826 122.965 100.916 122.475C100.02 121.985 99.3202 121.313 98.8162 120.459C98.3262 119.605 98.0812 118.625 98.0812 117.519C98.0812 116.651 98.2212 115.86 98.5012 115.146C98.7812 114.432 99.1732 113.816 99.6772 113.298C100.181 112.766 100.776 112.36 101.462 112.08C102.162 111.786 102.918 111.639 103.73 111.639C104.486 111.639 105.186 111.779 105.83 112.059C106.474 112.339 107.027 112.731 107.489 113.235C107.965 113.725 108.329 114.313 108.581 114.999C108.833 115.671 108.945 116.399 108.917 117.183L108.896 118.107H99.9712L99.4882 116.28H106.439L106.103 116.658V116.196C106.075 115.818 105.949 115.482 105.725 115.188C105.515 114.88 105.242 114.642 104.906 114.474C104.57 114.292 104.192 114.201 103.772 114.201C103.156 114.201 102.631 114.32 102.197 114.558C101.777 114.796 101.455 115.146 101.231 115.608C101.007 116.07 100.895 116.63 100.895 117.288C100.895 117.96 101.035 118.541 101.315 119.031C101.609 119.521 102.015 119.906 102.533 120.186C103.065 120.452 103.688 120.585 104.402 120.585C104.892 120.585 105.34 120.508 105.746 120.354C106.152 120.2 106.586 119.934 107.048 119.556L108.476 121.551C108.07 121.915 107.622 122.223 107.132 122.475C106.642 122.713 106.138 122.895 105.62 123.021C105.102 123.147 104.591 123.21 104.087 123.21ZM115.279 123.21C114.355 123.21 113.522 122.958 112.78 122.454C112.038 121.95 111.45 121.264 111.016 120.396C110.582 119.528 110.365 118.534 110.365 117.414C110.365 116.294 110.582 115.3 111.016 114.432C111.464 113.564 112.066 112.885 112.822 112.395C113.578 111.905 114.439 111.66 115.405 111.66C115.951 111.66 116.448 111.744 116.896 111.912C117.358 112.066 117.757 112.283 118.093 112.563C118.443 112.843 118.737 113.165 118.975 113.529C119.213 113.893 119.381 114.285 119.479 114.705L118.849 114.6V111.891H121.81V123H118.807V120.333L119.479 120.27C119.367 120.662 119.185 121.033 118.933 121.383C118.681 121.733 118.366 122.048 117.988 122.328C117.624 122.594 117.211 122.811 116.749 122.979C116.287 123.133 115.797 123.21 115.279 123.21ZM116.098 120.627C116.658 120.627 117.148 120.494 117.568 120.228C117.988 119.962 118.31 119.591 118.534 119.115C118.772 118.625 118.891 118.058 118.891 117.414C118.891 116.784 118.772 116.231 118.534 115.755C118.31 115.279 117.988 114.908 117.568 114.642C117.148 114.362 116.658 114.222 116.098 114.222C115.552 114.222 115.069 114.362 114.649 114.642C114.243 114.908 113.921 115.279 113.683 115.755C113.445 116.231 113.326 116.784 113.326 117.414C113.326 118.058 113.445 118.625 113.683 119.115C113.921 119.591 114.243 119.962 114.649 120.228C115.069 120.494 115.552 120.627 116.098 120.627ZM128.538 123.21C127.502 123.21 126.578 123.042 125.766 122.706C124.968 122.356 124.324 121.88 123.834 121.278L125.703 119.682C126.123 120.144 126.599 120.48 127.131 120.69C127.663 120.886 128.195 120.984 128.727 120.984C128.937 120.984 129.126 120.963 129.294 120.921C129.476 120.865 129.63 120.795 129.756 120.711C129.882 120.613 129.973 120.501 130.029 120.375C130.099 120.235 130.134 120.088 130.134 119.934C130.134 119.626 130.008 119.388 129.756 119.22C129.616 119.136 129.399 119.045 129.105 118.947C128.811 118.835 128.433 118.716 127.971 118.59C127.257 118.408 126.648 118.198 126.144 117.96C125.654 117.708 125.262 117.428 124.968 117.12C124.716 116.826 124.52 116.511 124.38 116.175C124.254 115.825 124.191 115.44 124.191 115.02C124.191 114.516 124.303 114.061 124.527 113.655C124.751 113.235 125.059 112.878 125.451 112.584C125.857 112.29 126.319 112.066 126.837 111.912C127.355 111.744 127.901 111.66 128.475 111.66C129.049 111.66 129.609 111.73 130.155 111.87C130.701 112.01 131.205 112.213 131.667 112.479C132.143 112.731 132.556 113.032 132.906 113.382L131.31 115.146C131.058 114.908 130.771 114.691 130.449 114.495C130.141 114.299 129.819 114.145 129.483 114.033C129.147 113.921 128.846 113.865 128.58 113.865C128.342 113.865 128.125 113.886 127.929 113.928C127.747 113.97 127.593 114.04 127.467 114.138C127.341 114.222 127.243 114.327 127.173 114.453C127.117 114.579 127.089 114.719 127.089 114.873C127.089 115.027 127.124 115.174 127.194 115.314C127.278 115.454 127.39 115.573 127.53 115.671C127.684 115.755 127.908 115.853 128.202 115.965C128.51 116.077 128.923 116.203 129.441 116.343C130.113 116.525 130.68 116.728 131.142 116.952C131.618 117.176 131.996 117.435 132.276 117.729C132.514 117.981 132.689 118.268 132.801 118.59C132.913 118.912 132.969 119.269 132.969 119.661C132.969 120.347 132.773 120.956 132.381 121.488C132.003 122.02 131.478 122.44 130.806 122.748C130.134 123.056 129.378 123.21 128.538 123.21ZM140.366 123.21C139.162 123.21 138.105 122.965 137.195 122.475C136.299 121.985 135.599 121.313 135.095 120.459C134.605 119.605 134.36 118.625 134.36 117.519C134.36 116.651 134.5 115.86 134.78 115.146C135.06 114.432 135.452 113.816 135.956 113.298C136.46 112.766 137.055 112.36 137.741 112.08C138.441 111.786 139.197 111.639 140.009 111.639C140.765 111.639 141.465 111.779 142.109 112.059C142.753 112.339 143.306 112.731 143.768 113.235C144.244 113.725 144.608 114.313 144.86 114.999C145.112 115.671 145.224 116.399 145.196 117.183L145.175 118.107H136.25L135.767 116.28H142.718L142.382 116.658V116.196C142.354 115.818 142.228 115.482 142.004 115.188C141.794 114.88 141.521 114.642 141.185 114.474C140.849 114.292 140.471 114.201 140.051 114.201C139.435 114.201 138.91 114.32 138.476 114.558C138.056 114.796 137.734 115.146 137.51 115.608C137.286 116.07 137.174 116.63 137.174 117.288C137.174 117.96 137.314 118.541 137.594 119.031C137.888 119.521 138.294 119.906 138.812 120.186C139.344 120.452 139.967 120.585 140.681 120.585C141.171 120.585 141.619 120.508 142.025 120.354C142.431 120.2 142.865 119.934 143.327 119.556L144.755 121.551C144.349 121.915 143.901 122.223 143.411 122.475C142.921 122.713 142.417 122.895 141.899 123.021C141.381 123.147 140.87 123.21 140.366 123.21Z" fill="black"/>
<rect x="152" y="96" width="85" height="37" rx="4" fill="#00F8A3"/>
<path d="M170.442 123.21C169.35 123.21 168.349 123.021 167.439 122.643C166.529 122.265 165.731 121.74 165.045 121.068C164.373 120.382 163.855 119.577 163.491 118.653C163.127 117.715 162.945 116.7 162.945 115.608C162.945 114.502 163.127 113.487 163.491 112.563C163.855 111.639 164.373 110.841 165.045 110.169C165.731 109.483 166.529 108.951 167.439 108.573C168.349 108.195 169.343 108.006 170.421 108.006C171.513 108.006 172.507 108.195 173.403 108.573C174.313 108.951 175.104 109.483 175.776 110.169C176.462 110.855 176.987 111.66 177.351 112.584C177.715 113.508 177.897 114.516 177.897 115.608C177.897 116.7 177.715 117.708 177.351 118.632C176.987 119.556 176.462 120.361 175.776 121.047C175.104 121.733 174.313 122.265 173.403 122.643C172.507 123.021 171.52 123.21 170.442 123.21ZM170.421 120.228C171.051 120.228 171.625 120.116 172.143 119.892C172.661 119.654 173.109 119.332 173.487 118.926C173.865 118.506 174.159 118.016 174.369 117.456C174.593 116.896 174.705 116.28 174.705 115.608C174.705 114.936 174.593 114.32 174.369 113.76C174.159 113.2 173.865 112.717 173.487 112.311C173.109 111.891 172.661 111.569 172.143 111.345C171.625 111.107 171.051 110.988 170.421 110.988C169.805 110.988 169.238 111.107 168.72 111.345C168.202 111.569 167.747 111.891 167.355 112.311C166.963 112.717 166.662 113.2 166.452 113.76C166.256 114.32 166.158 114.936 166.158 115.608C166.158 116.28 166.256 116.896 166.452 117.456C166.662 118.016 166.963 118.506 167.355 118.926C167.747 119.332 168.202 119.654 168.72 119.892C169.238 120.116 169.805 120.228 170.421 120.228ZM181.189 123V111.114C181.189 110.428 181.343 109.805 181.651 109.245C181.959 108.685 182.379 108.244 182.911 107.922C183.457 107.6 184.094 107.439 184.822 107.439C185.312 107.439 185.774 107.523 186.208 107.691C186.642 107.845 187.013 108.055 187.321 108.321L186.439 110.526C186.257 110.414 186.068 110.323 185.872 110.253C185.69 110.169 185.522 110.127 185.368 110.127C185.102 110.127 184.878 110.176 184.696 110.274C184.528 110.358 184.402 110.491 184.318 110.673C184.234 110.841 184.192 111.058 184.192 111.324V123H182.701C182.379 123 182.092 123 181.84 123C181.588 123 181.371 123 181.189 123ZM179.53 114.684V112.164H186.586V114.684H179.53ZM189.442 123V111.114C189.442 110.428 189.596 109.805 189.904 109.245C190.212 108.685 190.632 108.244 191.164 107.922C191.71 107.6 192.347 107.439 193.075 107.439C193.565 107.439 194.027 107.523 194.461 107.691C194.895 107.845 195.266 108.055 195.574 108.321L194.692 110.526C194.51 110.414 194.321 110.323 194.125 110.253C193.943 110.169 193.775 110.127 193.621 110.127C193.355 110.127 193.131 110.176 192.949 110.274C192.781 110.358 192.655 110.491 192.571 110.673C192.487 110.841 192.445 111.058 192.445 111.324V123H190.954C190.632 123 190.345 123 190.093 123C189.841 123 189.624 123 189.442 123ZM187.783 114.684V112.164H194.839V114.684H187.783ZM201.698 123.21C200.494 123.21 199.437 122.965 198.527 122.475C197.631 121.985 196.931 121.313 196.427 120.459C195.937 119.605 195.692 118.625 195.692 117.519C195.692 116.651 195.832 115.86 196.112 115.146C196.392 114.432 196.784 113.816 197.288 113.298C197.792 112.766 198.387 112.36 199.073 112.08C199.773 111.786 200.529 111.639 201.341 111.639C202.097 111.639 202.797 111.779 203.441 112.059C204.085 112.339 204.638 112.731 205.1 113.235C205.576 113.725 205.94 114.313 206.192 114.999C206.444 115.671 206.556 116.399 206.528 117.183L206.507 118.107H197.582L197.099 116.28H204.05L203.714 116.658V116.196C203.686 115.818 203.56 115.482 203.336 115.188C203.126 114.88 202.853 114.642 202.517 114.474C202.181 114.292 201.803 114.201 201.383 114.201C200.767 114.201 200.242 114.32 199.808 114.558C199.388 114.796 199.066 115.146 198.842 115.608C198.618 116.07 198.506 116.63 198.506 117.288C198.506 117.96 198.646 118.541 198.926 119.031C199.22 119.521 199.626 119.906 200.144 120.186C200.676 120.452 201.299 120.585 202.013 120.585C202.503 120.585 202.951 120.508 203.357 120.354C203.763 120.2 204.197 119.934 204.659 119.556L206.087 121.551C205.681 121.915 205.233 122.223 204.743 122.475C204.253 122.713 203.749 122.895 203.231 123.021C202.713 123.147 202.202 123.21 201.698 123.21ZM208.731 123V111.891H211.608L211.713 115.461L211.209 114.726C211.377 114.152 211.65 113.634 212.028 113.172C212.406 112.696 212.847 112.325 213.351 112.059C213.869 111.793 214.408 111.66 214.968 111.66C215.206 111.66 215.437 111.681 215.661 111.723C215.885 111.765 216.074 111.814 216.228 111.87L215.43 115.146C215.276 115.062 215.073 114.992 214.821 114.936C214.583 114.866 214.338 114.831 214.086 114.831C213.75 114.831 213.435 114.894 213.141 115.02C212.861 115.132 212.616 115.3 212.406 115.524C212.196 115.734 212.028 115.986 211.902 116.28C211.79 116.574 211.734 116.896 211.734 117.246V123H208.731ZM221.677 123.21C220.641 123.21 219.717 123.042 218.905 122.706C218.107 122.356 217.463 121.88 216.973 121.278L218.842 119.682C219.262 120.144 219.738 120.48 220.27 120.69C220.802 120.886 221.334 120.984 221.866 120.984C222.076 120.984 222.265 120.963 222.433 120.921C222.615 120.865 222.769 120.795 222.895 120.711C223.021 120.613 223.112 120.501 223.168 120.375C223.238 120.235 223.273 120.088 223.273 119.934C223.273 119.626 223.147 119.388 222.895 119.22C222.755 119.136 222.538 119.045 222.244 118.947C221.95 118.835 221.572 118.716 221.11 118.59C220.396 118.408 219.787 118.198 219.283 117.96C218.793 117.708 218.401 117.428 218.107 117.12C217.855 116.826 217.659 116.511 217.519 116.175C217.393 115.825 217.33 115.44 217.33 115.02C217.33 114.516 217.442 114.061 217.666 113.655C217.89 113.235 218.198 112.878 218.59 112.584C218.996 112.29 219.458 112.066 219.976 111.912C220.494 111.744 221.04 111.66 221.614 111.66C222.188 111.66 222.748 111.73 223.294 111.87C223.84 112.01 224.344 112.213 224.806 112.479C225.282 112.731 225.695 113.032 226.045 113.382L224.449 115.146C224.197 114.908 223.91 114.691 223.588 114.495C223.28 114.299 222.958 114.145 222.622 114.033C222.286 113.921 221.985 113.865 221.719 113.865C221.481 113.865 221.264 113.886 221.068 113.928C220.886 113.97 220.732 114.04 220.606 114.138C220.48 114.222 220.382 114.327 220.312 114.453C220.256 114.579 220.228 114.719 220.228 114.873C220.228 115.027 220.263 115.174 220.333 115.314C220.417 115.454 220.529 115.573 220.669 115.671C220.823 115.755 221.047 115.853 221.341 115.965C221.649 116.077 222.062 116.203 222.58 116.343C223.252 116.525 223.819 116.728 224.281 116.952C224.757 117.176 225.135 117.435 225.415 117.729C225.653 117.981 225.828 118.268 225.94 118.59C226.052 118.912 226.108 119.269 226.108 119.661C226.108 120.347 225.912 120.956 225.52 121.488C225.142 122.02 224.617 122.44 223.945 122.748C223.273 123.056 222.517 123.21 221.677 123.21Z" fill="black"/>
<rect x="85" y="167" width="315" height="62" rx="9" fill="white"/>
<rect x="85" y="239" width="315" height="62" rx="9" fill="white"/>
<rect x="85" y="311" width="315" height="62" rx="9" fill="white"/>
<path fill-rule="evenodd" clip-rule="evenodd" d="M109 217C113.971 217 118 212.971 118 208C118 203.029 113.971 199 109 199C104.029 199 100 203.029 100 208C100 212.971 104.029 217 109 217ZM109 215C112.866 215 116 211.866 116 208C116 204.134 112.866 201 109 201C105.134 201 102 204.134 102 208C102 211.866 105.134 215 109 215Z" fill="#35CA00"/>
<path fill-rule="evenodd" clip-rule="evenodd" d="M109 289C113.971 289 118 284.971 118 280C118 275.029 113.971 271 109 271C104.029 271 100 275.029 100 280C100 284.971 104.029 289 109 289ZM109 287C112.866 287 116 283.866 116 280C116 276.134 112.866 273 109 273C105.134 273 102 276.134 102 280C102 283.866 105.134 287 109 287Z" fill="#DFDFDF"/>
<path fill-rule="evenodd" clip-rule="evenodd" d="M109 361C113.971 361 118 356.971 118 352C118 347.029 113.971 343 109 343C104.029 343 100 347.029 100 352C100 356.971 104.029 361 109 361ZM109 359C112.866 359 116 355.866 116 352C116 348.134 112.866 345 109 345C105.134 345 102 348.134 102 352C102 355.866 105.134 359 109 359Z" fill="#DFDFDF"/>
<circle cx="109" cy="208" r="5" fill="#35CA00"/>
<circle cx="109" cy="280" r="5" fill="#DFDFDF"/>
<circle cx="109" cy="352" r="5" fill="#DFDFDF"/>
<path d="M132.528 214C131.973 214 131.456 213.904 130.976 213.712C130.507 213.509 130.096 213.232 129.744 212.88C129.403 212.528 129.131 212.112 128.928 211.632C128.736 211.152 128.64 210.624 128.64 210.048C128.64 209.76 128.677 209.44 128.752 209.088C128.837 208.725 128.96 208.331 129.12 207.904C129.291 207.477 129.493 207.029 129.728 206.56C129.963 206.08 130.235 205.584 130.544 205.072L132 202.608H133.68L133.744 202.768L131.984 205.728C131.664 206.272 131.376 206.789 131.12 207.28C130.875 207.771 130.667 208.235 130.496 208.672C130.325 209.099 130.197 209.488 130.112 209.84L129.728 208.192C129.931 207.861 130.149 207.573 130.384 207.328C130.619 207.072 130.869 206.859 131.136 206.688C131.413 206.517 131.701 206.389 132 206.304C132.299 206.219 132.608 206.176 132.928 206.176C133.547 206.176 134.112 206.347 134.624 206.688C135.147 207.019 135.563 207.461 135.872 208.016C136.192 208.571 136.352 209.179 136.352 209.84C136.352 210.64 136.187 211.355 135.856 211.984C135.536 212.603 135.088 213.093 134.512 213.456C133.936 213.819 133.275 214 132.528 214ZM132.528 212.4C132.944 212.4 133.312 212.304 133.632 212.112C133.963 211.909 134.219 211.632 134.4 211.28C134.592 210.917 134.688 210.507 134.688 210.048C134.688 209.653 134.592 209.285 134.4 208.944C134.208 208.592 133.952 208.309 133.632 208.096C133.312 207.883 132.955 207.776 132.56 207.776C132.123 207.776 131.733 207.877 131.392 208.08C131.051 208.283 130.784 208.555 130.592 208.896C130.4 209.237 130.304 209.616 130.304 210.032C130.304 210.48 130.4 210.885 130.592 211.248C130.784 211.6 131.045 211.883 131.376 212.096C131.707 212.299 132.091 212.4 132.528 212.4ZM142.511 214V205.6H144.175V207.392L143.871 207.584C143.956 207.307 144.089 207.04 144.271 206.784C144.463 206.528 144.692 206.304 144.959 206.112C145.236 205.909 145.529 205.749 145.839 205.632C146.159 205.515 146.484 205.456 146.815 205.456C147.295 205.456 147.716 205.536 148.079 205.696C148.441 205.856 148.74 206.096 148.975 206.416C149.209 206.736 149.38 207.136 149.487 207.616L149.231 207.552L149.343 207.28C149.46 207.035 149.62 206.805 149.823 206.592C150.036 206.368 150.276 206.171 150.543 206C150.809 205.829 151.092 205.696 151.391 205.6C151.689 205.504 151.983 205.456 152.271 205.456C152.9 205.456 153.417 205.584 153.823 205.84C154.239 206.096 154.548 206.485 154.751 207.008C154.964 207.531 155.071 208.181 155.071 208.96V214H153.407V209.056C153.407 208.576 153.343 208.187 153.215 207.888C153.097 207.579 152.916 207.349 152.671 207.2C152.425 207.051 152.111 206.976 151.727 206.976C151.428 206.976 151.145 207.029 150.879 207.136C150.623 207.232 150.399 207.371 150.207 207.552C150.015 207.733 149.865 207.947 149.759 208.192C149.652 208.427 149.599 208.688 149.599 208.976V214H147.935V209.024C147.935 208.587 147.871 208.219 147.743 207.92C147.615 207.611 147.428 207.376 147.183 207.216C146.937 207.056 146.639 206.976 146.287 206.976C145.988 206.976 145.711 207.029 145.455 207.136C145.199 207.232 144.975 207.371 144.783 207.552C144.591 207.723 144.441 207.931 144.335 208.176C144.228 208.411 144.175 208.667 144.175 208.944V214H142.511ZM161.053 214.16C160.232 214.16 159.496 213.973 158.845 213.6C158.205 213.216 157.698 212.699 157.325 212.048C156.952 211.387 156.765 210.635 156.765 209.792C156.765 208.949 156.952 208.203 157.325 207.552C157.698 206.891 158.205 206.373 158.845 206C159.496 205.616 160.232 205.424 161.053 205.424C161.864 205.424 162.589 205.616 163.229 206C163.88 206.373 164.392 206.891 164.765 207.552C165.138 208.203 165.325 208.949 165.325 209.792C165.325 210.635 165.138 211.387 164.765 212.048C164.392 212.699 163.88 213.216 163.229 213.6C162.589 213.973 161.864 214.16 161.053 214.16ZM161.053 212.656C161.554 212.656 162.002 212.533 162.397 212.288C162.792 212.032 163.101 211.691 163.325 211.264C163.549 210.827 163.656 210.336 163.645 209.792C163.656 209.237 163.549 208.747 163.325 208.32C163.101 207.883 162.792 207.541 162.397 207.296C162.002 207.051 161.554 206.928 161.053 206.928C160.552 206.928 160.098 207.056 159.693 207.312C159.298 207.557 158.989 207.899 158.765 208.336C158.541 208.763 158.434 209.248 158.445 209.792C158.434 210.336 158.541 210.827 158.765 211.264C158.989 211.691 159.298 212.032 159.693 212.288C160.098 212.533 160.552 212.656 161.053 212.656ZM167.121 214V205.6H168.769V207.328L168.481 207.52C168.587 207.147 168.795 206.805 169.105 206.496C169.414 206.176 169.782 205.92 170.209 205.728C170.635 205.525 171.073 205.424 171.521 205.424C172.161 205.424 172.694 205.552 173.121 205.808C173.547 206.053 173.867 206.432 174.081 206.944C174.294 207.456 174.401 208.101 174.401 208.88V214H172.753V208.992C172.753 208.512 172.689 208.117 172.561 207.808C172.433 207.488 172.235 207.259 171.969 207.12C171.702 206.971 171.371 206.907 170.977 206.928C170.657 206.928 170.363 206.981 170.097 207.088C169.83 207.184 169.595 207.323 169.393 207.504C169.201 207.685 169.046 207.899 168.929 208.144C168.822 208.379 168.769 208.635 168.769 208.912V214H167.953C167.814 214 167.675 214 167.537 214C167.398 214 167.259 214 167.121 214ZM177.676 214V203.456H179.324V214H177.676ZM175.932 207.2V205.6H181.276V207.2H175.932ZM182.777 214V202.16H184.425V207.328L184.137 207.52C184.244 207.147 184.452 206.805 184.761 206.496C185.07 206.176 185.438 205.92 185.865 205.728C186.292 205.525 186.729 205.424 187.177 205.424C187.817 205.424 188.35 205.552 188.777 205.808C189.204 206.053 189.524 206.432 189.737 206.944C189.95 207.456 190.057 208.101 190.057 208.88V214H188.409V208.992C188.409 208.512 188.345 208.117 188.217 207.808C188.089 207.488 187.892 207.259 187.625 207.12C187.358 206.971 187.028 206.907 186.633 206.928C186.313 206.928 186.02 206.981 185.753 207.088C185.486 207.184 185.252 207.323 185.049 207.504C184.857 207.685 184.702 207.899 184.585 208.144C184.478 208.379 184.425 208.635 184.425 208.912V214H183.609C183.47 214 183.332 214 183.193 214C183.054 214 182.916 214 182.777 214ZM195.093 214.16C194.389 214.16 193.754 214.037 193.189 213.792C192.623 213.547 192.154 213.184 191.781 212.704L192.901 211.744C193.221 212.117 193.567 212.389 193.941 212.56C194.325 212.72 194.757 212.8 195.237 212.8C195.429 212.8 195.605 212.779 195.765 212.736C195.935 212.683 196.079 212.608 196.197 212.512C196.325 212.416 196.421 212.304 196.485 212.176C196.549 212.037 196.581 211.888 196.581 211.728C196.581 211.451 196.479 211.227 196.277 211.056C196.17 210.981 195.999 210.901 195.765 210.816C195.541 210.72 195.247 210.624 194.885 210.528C194.266 210.368 193.759 210.187 193.365 209.984C192.97 209.781 192.666 209.552 192.453 209.296C192.293 209.093 192.175 208.875 192.101 208.64C192.026 208.395 191.989 208.128 191.989 207.84C191.989 207.488 192.063 207.168 192.213 206.88C192.373 206.581 192.586 206.325 192.853 206.112C193.13 205.888 193.45 205.717 193.813 205.6C194.186 205.483 194.581 205.424 194.997 205.424C195.391 205.424 195.781 205.477 196.165 205.584C196.559 205.691 196.922 205.845 197.253 206.048C197.583 206.251 197.861 206.491 198.085 206.768L197.141 207.808C196.938 207.605 196.714 207.429 196.469 207.28C196.234 207.12 195.994 206.997 195.749 206.912C195.503 206.827 195.279 206.784 195.077 206.784C194.853 206.784 194.65 206.805 194.469 206.848C194.287 206.891 194.133 206.955 194.005 207.04C193.887 207.125 193.797 207.232 193.733 207.36C193.669 207.488 193.637 207.632 193.637 207.792C193.647 207.931 193.679 208.064 193.733 208.192C193.797 208.309 193.882 208.411 193.989 208.496C194.106 208.581 194.282 208.672 194.517 208.768C194.751 208.864 195.05 208.955 195.413 209.04C195.946 209.179 196.383 209.333 196.725 209.504C197.077 209.664 197.354 209.851 197.557 210.064C197.77 210.267 197.919 210.501 198.005 210.768C198.09 211.035 198.133 211.333 198.133 211.664C198.133 212.144 197.994 212.576 197.717 212.96C197.45 213.333 197.087 213.627 196.629 213.84C196.17 214.053 195.658 214.16 195.093 214.16Z" fill="#3B3B3B"/>
<path d="M284.344 206.22C282.965 206.22 281.762 205.993 280.736 205.538C279.724 205.069 278.851 204.387 278.118 203.492L279.834 200.94C280.626 201.849 281.388 202.487 282.122 202.854C282.87 203.221 283.676 203.404 284.542 203.404C284.996 203.404 285.4 203.338 285.752 203.206C286.118 203.074 286.404 202.898 286.61 202.678C286.815 202.443 286.918 202.165 286.918 201.842C286.918 201.607 286.866 201.395 286.764 201.204C286.661 200.999 286.514 200.823 286.324 200.676C286.133 200.515 285.906 200.375 285.642 200.258C285.378 200.126 285.084 200.016 284.762 199.928C284.439 199.825 284.087 199.745 283.706 199.686C282.606 199.451 281.689 199.121 280.956 198.696C280.222 198.271 279.68 197.743 279.328 197.112C278.976 196.481 278.8 195.733 278.8 194.868C278.8 194.208 278.946 193.599 279.24 193.042C279.533 192.47 279.936 191.979 280.45 191.568C280.978 191.157 281.579 190.842 282.254 190.622C282.943 190.402 283.669 190.292 284.432 190.292C285.664 190.292 286.749 190.497 287.688 190.908C288.641 191.304 289.462 191.92 290.152 192.756L288.568 195.044C288.025 194.413 287.402 193.937 286.698 193.614C286.008 193.291 285.275 193.13 284.498 193.13C284.014 193.13 283.596 193.196 283.244 193.328C282.892 193.445 282.613 193.629 282.408 193.878C282.217 194.113 282.122 194.391 282.122 194.714C282.122 194.978 282.188 195.213 282.32 195.418C282.452 195.623 282.642 195.807 282.892 195.968C283.141 196.115 283.442 196.247 283.794 196.364C284.146 196.481 284.534 196.584 284.96 196.672C285.766 196.833 286.492 197.046 287.138 197.31C287.783 197.574 288.333 197.897 288.788 198.278C289.257 198.645 289.616 199.085 289.866 199.598C290.115 200.097 290.24 200.661 290.24 201.292C290.24 202.333 289.99 203.221 289.492 203.954C288.993 204.687 288.304 205.252 287.424 205.648C286.544 206.029 285.517 206.22 284.344 206.22ZM283.024 208.002L283.2 197.838L285.07 198.564L285.246 208.002H283.024ZM285.73 198.586L283.86 197.86L283.684 188.708H285.906L285.73 198.586ZM295.913 204.922V192.426L296.727 193.9L293.515 195.462L292.877 192.536L297.167 190.38H299.169V204.922H295.913ZM293.207 206V203.03H301.941V206H293.207ZM310.322 206.22C309.002 206.22 307.873 205.905 306.934 205.274C306.01 204.643 305.299 203.741 304.8 202.568C304.316 201.38 304.074 199.957 304.074 198.3C304.074 196.643 304.316 195.227 304.8 194.054C305.299 192.866 306.01 191.957 306.934 191.326C307.873 190.695 309.002 190.38 310.322 190.38C311.642 190.38 312.772 190.695 313.71 191.326C314.649 191.957 315.36 192.866 315.844 194.054C316.343 195.227 316.592 196.643 316.592 198.3C316.592 199.957 316.343 201.38 315.844 202.568C315.36 203.741 314.649 204.643 313.71 205.274C312.772 205.905 311.642 206.22 310.322 206.22ZM310.322 203.382C311.32 203.382 312.082 202.942 312.61 202.062C313.153 201.182 313.424 199.928 313.424 198.3C313.424 196.643 313.153 195.367 312.61 194.472C312.082 193.577 311.32 193.13 310.322 193.13C309.325 193.13 308.555 193.577 308.012 194.472C307.484 195.367 307.22 196.643 307.22 198.3C307.22 199.928 307.484 201.182 308.012 202.062C308.555 202.942 309.325 203.382 310.322 203.382ZM324.695 206.22C323.375 206.22 322.246 205.905 321.307 205.274C320.383 204.643 319.672 203.741 319.173 202.568C318.689 201.38 318.447 199.957 318.447 198.3C318.447 196.643 318.689 195.227 319.173 194.054C319.672 192.866 320.383 191.957 321.307 191.326C322.246 190.695 323.375 190.38 324.695 190.38C326.015 190.38 327.145 190.695 328.083 191.326C329.022 191.957 329.733 192.866 330.217 194.054C330.716 195.227 330.965 196.643 330.965 198.3C330.965 199.957 330.716 201.38 330.217 202.568C329.733 203.741 329.022 204.643 328.083 205.274C327.145 205.905 326.015 206.22 324.695 206.22ZM324.695 203.382C325.693 203.382 326.455 202.942 326.983 202.062C327.526 201.182 327.797 199.928 327.797 198.3C327.797 196.643 327.526 195.367 326.983 194.472C326.455 193.577 325.693 193.13 324.695 193.13C323.698 193.13 322.928 193.577 322.385 194.472C321.857 195.367 321.593 196.643 321.593 198.3C321.593 199.928 321.857 201.182 322.385 202.062C322.928 202.942 323.698 203.382 324.695 203.382ZM339.068 206.22C337.748 206.22 336.619 205.905 335.68 205.274C334.756 204.643 334.045 203.741 333.546 202.568C333.062 201.38 332.82 199.957 332.82 198.3C332.82 196.643 333.062 195.227 333.546 194.054C334.045 192.866 334.756 191.957 335.68 191.326C336.619 190.695 337.748 190.38 339.068 190.38C340.388 190.38 341.518 190.695 342.456 191.326C343.395 191.957 344.106 192.866 344.59 194.054C345.089 195.227 345.338 196.643 345.338 198.3C345.338 199.957 345.089 201.38 344.59 202.568C344.106 203.741 343.395 204.643 342.456 205.274C341.518 205.905 340.388 206.22 339.068 206.22ZM339.068 203.382C340.066 203.382 340.828 202.942 341.356 202.062C341.899 201.182 342.17 199.928 342.17 198.3C342.17 196.643 341.899 195.367 341.356 194.472C340.828 193.577 340.066 193.13 339.068 193.13C338.071 193.13 337.301 193.577 336.758 194.472C336.23 195.367 335.966 196.643 335.966 198.3C335.966 199.928 336.23 201.182 336.758 202.062C337.301 202.942 338.071 203.382 339.068 203.382ZM345.416 209.058L354.546 190.6H357.626L348.518 209.058H345.416Z" fill="#1989FA"/>
<path d="M298.115 278.22C296.736 278.22 295.534 277.993 294.507 277.538C293.495 277.069 292.622 276.387 291.889 275.492L293.605 272.94C294.397 273.849 295.16 274.487 295.893 274.854C296.641 275.221 297.448 275.404 298.313 275.404C298.768 275.404 299.171 275.338 299.523 275.206C299.89 275.074 300.176 274.898 300.381 274.678C300.586 274.443 300.689 274.165 300.689 273.842C300.689 273.607 300.638 273.395 300.535 273.204C300.432 272.999 300.286 272.823 300.095 272.676C299.904 272.515 299.677 272.375 299.413 272.258C299.149 272.126 298.856 272.016 298.533 271.928C298.21 271.825 297.858 271.745 297.477 271.686C296.377 271.451 295.46 271.121 294.727 270.696C293.994 270.271 293.451 269.743 293.099 269.112C292.747 268.481 292.571 267.733 292.571 266.868C292.571 266.208 292.718 265.599 293.011 265.042C293.304 264.47 293.708 263.979 294.221 263.568C294.749 263.157 295.35 262.842 296.025 262.622C296.714 262.402 297.44 262.292 298.203 262.292C299.435 262.292 300.52 262.497 301.459 262.908C302.412 263.304 303.234 263.92 303.923 264.756L302.339 267.044C301.796 266.413 301.173 265.937 300.469 265.614C299.78 265.291 299.046 265.13 298.269 265.13C297.785 265.13 297.367 265.196 297.015 265.328C296.663 265.445 296.384 265.629 296.179 265.878C295.988 266.113 295.893 266.391 295.893 266.714C295.893 266.978 295.959 267.213 296.091 267.418C296.223 267.623 296.414 267.807 296.663 267.968C296.912 268.115 297.213 268.247 297.565 268.364C297.917 268.481 298.306 268.584 298.731 268.672C299.538 268.833 300.264 269.046 300.909 269.31C301.554 269.574 302.104 269.897 302.559 270.278C303.028 270.645 303.388 271.085 303.637 271.598C303.886 272.097 304.011 272.661 304.011 273.292C304.011 274.333 303.762 275.221 303.263 275.954C302.764 276.687 302.075 277.252 301.195 277.648C300.315 278.029 299.288 278.22 298.115 278.22ZM296.795 280.002L296.971 269.838L298.841 270.564L299.017 280.002H296.795ZM299.501 270.586L297.631 269.86L297.455 260.708H299.677L299.501 270.586ZM309.706 278L309.618 277.78L314.37 268.056L314.832 269.53C314.641 270.029 314.385 270.476 314.062 270.872C313.739 271.268 313.365 271.62 312.94 271.928C312.529 272.221 312.097 272.449 311.642 272.61C311.187 272.757 310.74 272.83 310.3 272.83C309.464 272.83 308.694 272.603 307.99 272.148C307.286 271.693 306.721 271.092 306.296 270.344C305.871 269.596 305.658 268.775 305.658 267.88C305.658 266.824 305.9 265.871 306.384 265.02C306.883 264.169 307.557 263.502 308.408 263.018C309.259 262.519 310.219 262.27 311.29 262.27C312.053 262.27 312.771 262.409 313.446 262.688C314.121 262.952 314.715 263.333 315.228 263.832C315.741 264.316 316.137 264.873 316.416 265.504C316.709 266.135 316.856 266.809 316.856 267.528C316.856 267.997 316.812 268.474 316.724 268.958C316.636 269.442 316.504 269.948 316.328 270.476C316.152 270.989 315.925 271.554 315.646 272.17C315.382 272.771 315.074 273.439 314.722 274.172L312.808 278H309.706ZM311.07 270.102C311.569 270.102 312.009 269.992 312.39 269.772C312.771 269.552 313.072 269.259 313.292 268.892C313.512 268.511 313.622 268.093 313.622 267.638C313.622 267.139 313.512 266.699 313.292 266.318C313.087 265.922 312.793 265.614 312.412 265.394C312.031 265.159 311.591 265.042 311.092 265.042C310.637 265.042 310.227 265.152 309.86 265.372C309.508 265.592 309.222 265.893 309.002 266.274C308.797 266.655 308.694 267.103 308.694 267.616C308.694 268.056 308.797 268.467 309.002 268.848C309.222 269.215 309.508 269.515 309.86 269.75C310.227 269.985 310.63 270.102 311.07 270.102ZM324.695 278.22C323.375 278.22 322.246 277.905 321.307 277.274C320.383 276.643 319.672 275.741 319.173 274.568C318.689 273.38 318.447 271.957 318.447 270.3C318.447 268.643 318.689 267.227 319.173 266.054C319.672 264.866 320.383 263.957 321.307 263.326C322.246 262.695 323.375 262.38 324.695 262.38C326.015 262.38 327.145 262.695 328.083 263.326C329.022 263.957 329.733 264.866 330.217 266.054C330.716 267.227 330.965 268.643 330.965 270.3C330.965 271.957 330.716 273.38 330.217 274.568C329.733 275.741 329.022 276.643 328.083 277.274C327.145 277.905 326.015 278.22 324.695 278.22ZM324.695 275.382C325.693 275.382 326.455 274.942 326.983 274.062C327.526 273.182 327.797 271.928 327.797 270.3C327.797 268.643 327.526 267.367 326.983 266.472C326.455 265.577 325.693 265.13 324.695 265.13C323.698 265.13 322.928 265.577 322.385 266.472C321.857 267.367 321.593 268.643 321.593 270.3C321.593 271.928 321.857 273.182 322.385 274.062C322.928 274.942 323.698 275.382 324.695 275.382ZM339.068 278.22C337.748 278.22 336.619 277.905 335.68 277.274C334.756 276.643 334.045 275.741 333.546 274.568C333.062 273.38 332.82 271.957 332.82 270.3C332.82 268.643 333.062 267.227 333.546 266.054C334.045 264.866 334.756 263.957 335.68 263.326C336.619 262.695 337.748 262.38 339.068 262.38C340.388 262.38 341.518 262.695 342.456 263.326C343.395 263.957 344.106 264.866 344.59 266.054C345.089 267.227 345.338 268.643 345.338 270.3C345.338 271.957 345.089 273.38 344.59 274.568C344.106 275.741 343.395 276.643 342.456 277.274C341.518 277.905 340.388 278.22 339.068 278.22ZM339.068 275.382C340.066 275.382 340.828 274.942 341.356 274.062C341.899 273.182 342.17 271.928 342.17 270.3C342.17 268.643 341.899 267.367 341.356 266.472C340.828 265.577 340.066 265.13 339.068 265.13C338.071 265.13 337.301 265.577 336.758 266.472C336.23 267.367 335.966 268.643 335.966 270.3C335.966 271.928 336.23 273.182 336.758 274.062C337.301 274.942 338.071 275.382 339.068 275.382ZM345.416 281.058L354.546 262.6H357.626L348.518 281.058H345.416Z" fill="#1989FA"/>
<path d="M299.082 350.22C297.703 350.22 296.501 349.993 295.474 349.538C294.462 349.069 293.589 348.387 292.856 347.492L294.572 344.94C295.364 345.849 296.127 346.487 296.86 346.854C297.608 347.221 298.415 347.404 299.28 347.404C299.735 347.404 300.138 347.338 300.49 347.206C300.857 347.074 301.143 346.898 301.348 346.678C301.553 346.443 301.656 346.165 301.656 345.842C301.656 345.607 301.605 345.395 301.502 345.204C301.399 344.999 301.253 344.823 301.062 344.676C300.871 344.515 300.644 344.375 300.38 344.258C300.116 344.126 299.823 344.016 299.5 343.928C299.177 343.825 298.825 343.745 298.444 343.686C297.344 343.451 296.427 343.121 295.694 342.696C294.961 342.271 294.418 341.743 294.066 341.112C293.714 340.481 293.538 339.733 293.538 338.868C293.538 338.208 293.685 337.599 293.978 337.042C294.271 336.47 294.675 335.979 295.188 335.568C295.716 335.157 296.317 334.842 296.992 334.622C297.681 334.402 298.407 334.292 299.17 334.292C300.402 334.292 301.487 334.497 302.426 334.908C303.379 335.304 304.201 335.92 304.89 336.756L303.306 339.044C302.763 338.413 302.14 337.937 301.436 337.614C300.747 337.291 300.013 337.13 299.236 337.13C298.752 337.13 298.334 337.196 297.982 337.328C297.63 337.445 297.351 337.629 297.146 337.878C296.955 338.113 296.86 338.391 296.86 338.714C296.86 338.978 296.926 339.213 297.058 339.418C297.19 339.623 297.381 339.807 297.63 339.968C297.879 340.115 298.18 340.247 298.532 340.364C298.884 340.481 299.273 340.584 299.698 340.672C300.505 340.833 301.231 341.046 301.876 341.31C302.521 341.574 303.071 341.897 303.526 342.278C303.995 342.645 304.355 343.085 304.604 343.598C304.853 344.097 304.978 344.661 304.978 345.292C304.978 346.333 304.729 347.221 304.23 347.954C303.731 348.687 303.042 349.252 302.162 349.648C301.282 350.029 300.255 350.22 299.082 350.22ZM297.762 352.002L297.938 341.838L299.808 342.564L299.984 352.002H297.762ZM300.468 342.586L298.598 341.86L298.422 332.708H300.644L300.468 342.586ZM312.477 350.066C311.45 350.066 310.519 349.868 309.683 349.472C308.847 349.061 308.18 348.511 307.681 347.822C307.182 347.133 306.933 346.363 306.933 345.512C306.933 344.984 306.999 344.5 307.131 344.06C307.278 343.62 307.49 343.224 307.769 342.872C308.062 342.52 308.414 342.212 308.825 341.948C309.236 341.684 309.712 341.457 310.255 341.266L310.035 342.036C309.624 341.875 309.258 341.684 308.935 341.464C308.612 341.229 308.334 340.965 308.099 340.672C307.864 340.379 307.688 340.063 307.571 339.726C307.454 339.374 307.395 339.007 307.395 338.626C307.395 337.834 307.622 337.123 308.077 336.492C308.532 335.861 309.14 335.363 309.903 334.996C310.68 334.615 311.538 334.424 312.477 334.424C313.416 334.424 314.266 334.615 315.029 334.996C315.792 335.363 316.4 335.861 316.855 336.492C317.31 337.123 317.537 337.834 317.537 338.626C317.537 339.007 317.478 339.367 317.361 339.704C317.258 340.041 317.09 340.357 316.855 340.65C316.635 340.929 316.356 341.185 316.019 341.42C315.696 341.655 315.322 341.86 314.897 342.036L314.743 341.354C315.227 341.501 315.667 341.706 316.063 341.97C316.474 342.219 316.818 342.527 317.097 342.894C317.39 343.246 317.618 343.642 317.779 344.082C317.94 344.522 318.021 344.999 318.021 345.512C318.021 346.377 317.772 347.155 317.273 347.844C316.774 348.533 316.107 349.076 315.271 349.472C314.435 349.868 313.504 350.066 312.477 350.066ZM312.477 347.36C312.917 347.36 313.32 347.272 313.687 347.096C314.054 346.92 314.34 346.685 314.545 346.392C314.75 346.084 314.853 345.732 314.853 345.336C314.853 344.925 314.75 344.566 314.545 344.258C314.34 343.935 314.054 343.679 313.687 343.488C313.335 343.297 312.932 343.202 312.477 343.202C312.022 343.202 311.612 343.297 311.245 343.488C310.893 343.679 310.614 343.935 310.409 344.258C310.204 344.566 310.101 344.925 310.101 345.336C310.101 345.717 310.204 346.062 310.409 346.37C310.614 346.663 310.893 346.905 311.245 347.096C311.612 347.272 312.022 347.36 312.477 347.36ZM312.477 340.518C312.873 340.518 313.225 340.445 313.533 340.298C313.841 340.137 314.083 339.931 314.259 339.682C314.45 339.418 314.545 339.11 314.545 338.758C314.545 338.421 314.45 338.12 314.259 337.856C314.083 337.577 313.841 337.357 313.533 337.196C313.225 337.035 312.873 336.954 312.477 336.954C312.081 336.954 311.722 337.035 311.399 337.196C311.091 337.357 310.849 337.577 310.673 337.856C310.497 338.12 310.409 338.421 310.409 338.758C310.409 339.11 310.497 339.418 310.673 339.682C310.849 339.931 311.091 340.137 311.399 340.298C311.722 340.445 312.081 340.518 312.477 340.518ZM325.012 350.154C323.898 350.154 322.886 349.927 321.976 349.472C321.082 349.003 320.334 348.328 319.732 347.448L321.514 345.468C322.145 346.172 322.717 346.649 323.23 346.898C323.744 347.147 324.308 347.272 324.924 347.272C325.438 347.272 325.9 347.169 326.31 346.964C326.721 346.744 327.044 346.443 327.278 346.062C327.513 345.681 327.63 345.255 327.63 344.786C327.63 344.302 327.513 343.869 327.278 343.488C327.044 343.107 326.728 342.806 326.332 342.586C325.951 342.351 325.511 342.234 325.012 342.234C324.69 342.234 324.389 342.263 324.11 342.322C323.832 342.366 323.524 342.461 323.186 342.608C322.849 342.74 322.438 342.938 321.954 343.202L320.458 341.222L321.404 334.512H330.072V337.35H323.076L323.89 336.382L323.164 341.266L322.108 340.76C322.328 340.555 322.629 340.364 323.01 340.188C323.406 339.997 323.832 339.851 324.286 339.748C324.756 339.631 325.21 339.572 325.65 339.572C326.618 339.572 327.476 339.792 328.224 340.232C328.987 340.672 329.588 341.288 330.028 342.08C330.483 342.857 330.71 343.752 330.71 344.764C330.71 345.776 330.461 346.693 329.962 347.514C329.464 348.321 328.782 348.966 327.916 349.45C327.051 349.919 326.083 350.154 325.012 350.154ZM339.068 350.22C337.748 350.22 336.619 349.905 335.68 349.274C334.756 348.643 334.045 347.741 333.546 346.568C333.062 345.38 332.82 343.957 332.82 342.3C332.82 340.643 333.062 339.227 333.546 338.054C334.045 336.866 334.756 335.957 335.68 335.326C336.619 334.695 337.748 334.38 339.068 334.38C340.388 334.38 341.518 334.695 342.456 335.326C343.395 335.957 344.106 336.866 344.59 338.054C345.089 339.227 345.338 340.643 345.338 342.3C345.338 343.957 345.089 345.38 344.59 346.568C344.106 347.741 343.395 348.643 342.456 349.274C341.518 349.905 340.388 350.22 339.068 350.22ZM339.068 347.382C340.066 347.382 340.828 346.942 341.356 346.062C341.899 345.182 342.17 343.928 342.17 342.3C342.17 340.643 341.899 339.367 341.356 338.472C340.828 337.577 340.066 337.13 339.068 337.13C338.071 337.13 337.301 337.577 336.758 338.472C336.23 339.367 335.966 340.643 335.966 342.3C335.966 343.928 336.23 345.182 336.758 346.062C337.301 346.942 338.071 347.382 339.068 347.382ZM345.416 353.058L354.546 334.6H357.626L348.518 353.058H345.416Z" fill="#1989FA"/>
<path d="M131.472 285.216V276.128L132.064 276.576L129.856 277.744L129.392 276.24L132.384 274.64H133.216V285.216H131.472ZM129.696 286V284.336H135.04V286H129.696ZM137.488 286L136.96 284.688L140.384 280.832C140.565 280.64 140.752 280.421 140.944 280.176C141.147 279.92 141.339 279.659 141.52 279.392C141.701 279.125 141.845 278.864 141.952 278.608C142.069 278.341 142.128 278.091 142.128 277.856C142.128 277.515 142.059 277.227 141.92 276.992C141.792 276.747 141.6 276.56 141.344 276.432C141.099 276.304 140.8 276.24 140.448 276.24C140.139 276.24 139.835 276.331 139.536 276.512C139.237 276.693 138.965 276.949 138.72 277.28C138.475 277.611 138.283 277.995 138.144 278.432L136.816 277.6C136.997 276.981 137.269 276.453 137.632 276.016C138.005 275.568 138.448 275.227 138.96 274.992C139.483 274.757 140.048 274.64 140.656 274.64C141.285 274.64 141.845 274.773 142.336 275.04C142.827 275.296 143.211 275.659 143.488 276.128C143.765 276.587 143.904 277.12 143.904 277.728C143.904 277.973 143.877 278.224 143.824 278.48C143.771 278.736 143.685 279.003 143.568 279.28C143.451 279.547 143.301 279.829 143.12 280.128C142.939 280.416 142.72 280.72 142.464 281.04C142.219 281.36 141.936 281.696 141.616 282.048L139.072 284.816L138.752 284.336H144.256V286H137.488ZM150.37 286V277.6H152.034V279.392L151.73 279.584C151.815 279.307 151.949 279.04 152.13 278.784C152.322 278.528 152.551 278.304 152.818 278.112C153.095 277.909 153.389 277.749 153.698 277.632C154.018 277.515 154.343 277.456 154.674 277.456C155.154 277.456 155.575 277.536 155.938 277.696C156.301 277.856 156.599 278.096 156.834 278.416C157.069 278.736 157.239 279.136 157.346 279.616L157.09 279.552L157.202 279.28C157.319 279.035 157.479 278.805 157.682 278.592C157.895 278.368 158.135 278.171 158.402 278C158.669 277.829 158.951 277.696 159.25 277.6C159.549 277.504 159.842 277.456 160.13 277.456C160.759 277.456 161.277 277.584 161.682 277.84C162.098 278.096 162.407 278.485 162.61 279.008C162.823 279.531 162.93 280.181 162.93 280.96V286H161.266V281.056C161.266 280.576 161.202 280.187 161.074 279.888C160.957 279.579 160.775 279.349 160.53 279.2C160.285 279.051 159.97 278.976 159.586 278.976C159.287 278.976 159.005 279.029 158.738 279.136C158.482 279.232 158.258 279.371 158.066 279.552C157.874 279.733 157.725 279.947 157.618 280.192C157.511 280.427 157.458 280.688 157.458 280.976V286H155.794V281.024C155.794 280.587 155.73 280.219 155.602 279.92C155.474 279.611 155.287 279.376 155.042 279.216C154.797 279.056 154.498 278.976 154.146 278.976C153.847 278.976 153.57 279.029 153.314 279.136C153.058 279.232 152.834 279.371 152.642 279.552C152.45 279.723 152.301 279.931 152.194 280.176C152.087 280.411 152.034 280.667 152.034 280.944V286H150.37ZM168.912 286.16C168.091 286.16 167.355 285.973 166.704 285.6C166.064 285.216 165.558 284.699 165.184 284.048C164.811 283.387 164.624 282.635 164.624 281.792C164.624 280.949 164.811 280.203 165.184 279.552C165.558 278.891 166.064 278.373 166.704 278C167.355 277.616 168.091 277.424 168.912 277.424C169.723 277.424 170.448 277.616 171.088 278C171.739 278.373 172.251 278.891 172.624 279.552C172.998 280.203 173.184 280.949 173.184 281.792C173.184 282.635 172.998 283.387 172.624 284.048C172.251 284.699 171.739 285.216 171.088 285.6C170.448 285.973 169.723 286.16 168.912 286.16ZM168.912 284.656C169.414 284.656 169.862 284.533 170.256 284.288C170.651 284.032 170.96 283.691 171.184 283.264C171.408 282.827 171.515 282.336 171.504 281.792C171.515 281.237 171.408 280.747 171.184 280.32C170.96 279.883 170.651 279.541 170.256 279.296C169.862 279.051 169.414 278.928 168.912 278.928C168.411 278.928 167.958 279.056 167.552 279.312C167.158 279.557 166.848 279.899 166.624 280.336C166.4 280.763 166.294 281.248 166.304 281.792C166.294 282.336 166.4 282.827 166.624 283.264C166.848 283.691 167.158 284.032 167.552 284.288C167.958 284.533 168.411 284.656 168.912 284.656ZM174.98 286V277.6H176.628V279.328L176.34 279.52C176.447 279.147 176.655 278.805 176.964 278.496C177.273 278.176 177.641 277.92 178.068 277.728C178.495 277.525 178.932 277.424 179.38 277.424C180.02 277.424 180.553 277.552 180.98 277.808C181.407 278.053 181.727 278.432 181.94 278.944C182.153 279.456 182.26 280.101 182.26 280.88V286H180.612V280.992C180.612 280.512 180.548 280.117 180.42 279.808C180.292 279.488 180.095 279.259 179.828 279.12C179.561 278.971 179.231 278.907 178.836 278.928C178.516 278.928 178.223 278.981 177.956 279.088C177.689 279.184 177.455 279.323 177.252 279.504C177.06 279.685 176.905 279.899 176.788 280.144C176.681 280.379 176.628 280.635 176.628 280.912V286H175.812C175.673 286 175.535 286 175.396 286C175.257 286 175.119 286 174.98 286ZM185.536 286V275.456H187.184V286H185.536ZM183.792 279.2V277.6H189.136V279.2H183.792ZM190.636 286V274.16H192.284V279.328L191.996 279.52C192.103 279.147 192.311 278.805 192.62 278.496C192.93 278.176 193.298 277.92 193.724 277.728C194.151 277.525 194.588 277.424 195.036 277.424C195.676 277.424 196.21 277.552 196.636 277.808C197.063 278.053 197.383 278.432 197.596 278.944C197.81 279.456 197.916 280.101 197.916 280.88V286H196.268V280.992C196.268 280.512 196.204 280.117 196.076 279.808C195.948 279.488 195.751 279.259 195.484 279.12C195.218 278.971 194.887 278.907 194.492 278.928C194.172 278.928 193.879 278.981 193.612 279.088C193.346 279.184 193.111 279.323 192.908 279.504C192.716 279.685 192.562 279.899 192.444 280.144C192.338 280.379 192.284 280.635 192.284 280.912V286H191.468C191.33 286 191.191 286 191.052 286C190.914 286 190.775 286 190.636 286ZM202.952 286.16C202.248 286.16 201.613 286.037 201.048 285.792C200.483 285.547 200.013 285.184 199.64 284.704L200.76 283.744C201.08 284.117 201.427 284.389 201.8 284.56C202.184 284.72 202.616 284.8 203.096 284.8C203.288 284.8 203.464 284.779 203.624 284.736C203.795 284.683 203.939 284.608 204.056 284.512C204.184 284.416 204.28 284.304 204.344 284.176C204.408 284.037 204.44 283.888 204.44 283.728C204.44 283.451 204.339 283.227 204.136 283.056C204.029 282.981 203.859 282.901 203.624 282.816C203.4 282.72 203.107 282.624 202.744 282.528C202.125 282.368 201.619 282.187 201.224 281.984C200.829 281.781 200.525 281.552 200.312 281.296C200.152 281.093 200.035 280.875 199.96 280.64C199.885 280.395 199.848 280.128 199.848 279.84C199.848 279.488 199.923 279.168 200.072 278.88C200.232 278.581 200.445 278.325 200.712 278.112C200.989 277.888 201.309 277.717 201.672 277.6C202.045 277.483 202.44 277.424 202.856 277.424C203.251 277.424 203.64 277.477 204.024 277.584C204.419 277.691 204.781 277.845 205.112 278.048C205.443 278.251 205.72 278.491 205.944 278.768L205 279.808C204.797 279.605 204.573 279.429 204.328 279.28C204.093 279.12 203.853 278.997 203.608 278.912C203.363 278.827 203.139 278.784 202.936 278.784C202.712 278.784 202.509 278.805 202.328 278.848C202.147 278.891 201.992 278.955 201.864 279.04C201.747 279.125 201.656 279.232 201.592 279.36C201.528 279.488 201.496 279.632 201.496 279.792C201.507 279.931 201.539 280.064 201.592 280.192C201.656 280.309 201.741 280.411 201.848 280.496C201.965 280.581 202.141 280.672 202.376 280.768C202.611 280.864 202.909 280.955 203.272 281.04C203.805 281.179 204.243 281.333 204.584 281.504C204.936 281.664 205.213 281.851 205.416 282.064C205.629 282.267 205.779 282.501 205.864 282.768C205.949 283.035 205.992 283.333 205.992 283.664C205.992 284.144 205.853 284.576 205.576 284.96C205.309 285.333 204.947 285.627 204.488 285.84C204.029 286.053 203.517 286.16 202.952 286.16Z" fill="#3B3B3B"/>
<path d="M131.472 357.216V348.128L132.064 348.576L129.856 349.744L129.392 348.24L132.384 346.64H133.216V357.216H131.472ZM129.696 358V356.336H135.04V358H129.696ZM140.624 358.048C139.931 358.048 139.296 357.904 138.72 357.616C138.155 357.317 137.701 356.923 137.36 356.432C137.019 355.941 136.848 355.397 136.848 354.8C136.848 354.469 136.891 354.16 136.976 353.872C137.072 353.573 137.211 353.301 137.392 353.056C137.584 352.811 137.813 352.587 138.08 352.384C138.347 352.181 138.656 352 139.008 351.84L138.912 352.176C138.635 352.069 138.384 351.941 138.16 351.792C137.947 351.632 137.76 351.451 137.6 351.248C137.44 351.045 137.317 350.827 137.232 350.592C137.157 350.357 137.12 350.112 137.12 349.856C137.12 349.291 137.275 348.779 137.584 348.32C137.904 347.861 138.325 347.493 138.848 347.216C139.381 346.939 139.973 346.8 140.624 346.8C141.275 346.8 141.861 346.939 142.384 347.216C142.917 347.493 143.339 347.861 143.648 348.32C143.968 348.779 144.128 349.291 144.128 349.856C144.128 350.112 144.085 350.357 144 350.592C143.925 350.827 143.813 351.04 143.664 351.232C143.515 351.424 143.323 351.6 143.088 351.76C142.864 351.92 142.608 352.059 142.32 352.176L142.272 351.904C142.592 352.032 142.88 352.197 143.136 352.4C143.403 352.603 143.632 352.832 143.824 353.088C144.016 353.344 144.16 353.616 144.256 353.904C144.363 354.192 144.416 354.491 144.416 354.8C144.416 355.408 144.245 355.957 143.904 356.448C143.563 356.939 143.104 357.328 142.528 357.616C141.963 357.904 141.328 358.048 140.624 358.048ZM140.624 356.448C141.019 356.448 141.371 356.373 141.68 356.224C142 356.075 142.251 355.872 142.432 355.616C142.613 355.36 142.704 355.067 142.704 354.736C142.704 354.384 142.613 354.075 142.432 353.808C142.251 353.531 142 353.312 141.68 353.152C141.371 352.992 141.019 352.912 140.624 352.912C140.229 352.912 139.877 352.992 139.568 353.152C139.259 353.312 139.013 353.531 138.832 353.808C138.651 354.075 138.56 354.384 138.56 354.736C138.56 355.056 138.651 355.344 138.832 355.6C139.013 355.856 139.259 356.064 139.568 356.224C139.877 356.373 140.229 356.448 140.624 356.448ZM140.624 351.376C140.965 351.376 141.269 351.312 141.536 351.184C141.813 351.056 142.027 350.885 142.176 350.672C142.336 350.448 142.416 350.192 142.416 349.904C142.416 349.616 142.336 349.36 142.176 349.136C142.027 348.912 141.813 348.736 141.536 348.608C141.269 348.469 140.965 348.4 140.624 348.4C140.283 348.4 139.973 348.469 139.696 348.608C139.429 348.736 139.216 348.912 139.056 349.136C138.907 349.36 138.832 349.616 138.832 349.904C138.832 350.192 138.907 350.448 139.056 350.672C139.216 350.885 139.429 351.056 139.696 351.184C139.973 351.312 140.283 351.376 140.624 351.376ZM150.87 358V349.6H152.534V351.392L152.23 351.584C152.315 351.307 152.449 351.04 152.63 350.784C152.822 350.528 153.051 350.304 153.318 350.112C153.595 349.909 153.889 349.749 154.198 349.632C154.518 349.515 154.843 349.456 155.174 349.456C155.654 349.456 156.075 349.536 156.438 349.696C156.801 349.856 157.099 350.096 157.334 350.416C157.569 350.736 157.739 351.136 157.846 351.616L157.59 351.552L157.702 351.28C157.819 351.035 157.979 350.805 158.182 350.592C158.395 350.368 158.635 350.171 158.902 350C159.169 349.829 159.451 349.696 159.75 349.6C160.049 349.504 160.342 349.456 160.63 349.456C161.259 349.456 161.777 349.584 162.182 349.84C162.598 350.096 162.907 350.485 163.11 351.008C163.323 351.531 163.43 352.181 163.43 352.96V358H161.766V353.056C161.766 352.576 161.702 352.187 161.574 351.888C161.457 351.579 161.275 351.349 161.03 351.2C160.785 351.051 160.47 350.976 160.086 350.976C159.787 350.976 159.505 351.029 159.238 351.136C158.982 351.232 158.758 351.371 158.566 351.552C158.374 351.733 158.225 351.947 158.118 352.192C158.011 352.427 157.958 352.688 157.958 352.976V358H156.294V353.024C156.294 352.587 156.23 352.219 156.102 351.92C155.974 351.611 155.787 351.376 155.542 351.216C155.297 351.056 154.998 350.976 154.646 350.976C154.347 350.976 154.07 351.029 153.814 351.136C153.558 351.232 153.334 351.371 153.142 351.552C152.95 351.723 152.801 351.931 152.694 352.176C152.587 352.411 152.534 352.667 152.534 352.944V358H150.87ZM169.412 358.16C168.591 358.16 167.855 357.973 167.204 357.6C166.564 357.216 166.058 356.699 165.684 356.048C165.311 355.387 165.124 354.635 165.124 353.792C165.124 352.949 165.311 352.203 165.684 351.552C166.058 350.891 166.564 350.373 167.204 350C167.855 349.616 168.591 349.424 169.412 349.424C170.223 349.424 170.948 349.616 171.588 350C172.239 350.373 172.751 350.891 173.124 351.552C173.498 352.203 173.684 352.949 173.684 353.792C173.684 354.635 173.498 355.387 173.124 356.048C172.751 356.699 172.239 357.216 171.588 357.6C170.948 357.973 170.223 358.16 169.412 358.16ZM169.412 356.656C169.914 356.656 170.362 356.533 170.756 356.288C171.151 356.032 171.46 355.691 171.684 355.264C171.908 354.827 172.015 354.336 172.004 353.792C172.015 353.237 171.908 352.747 171.684 352.32C171.46 351.883 171.151 351.541 170.756 351.296C170.362 351.051 169.914 350.928 169.412 350.928C168.911 350.928 168.458 351.056 168.052 351.312C167.658 351.557 167.348 351.899 167.124 352.336C166.9 352.763 166.794 353.248 166.804 353.792C166.794 354.336 166.9 354.827 167.124 355.264C167.348 355.691 167.658 356.032 168.052 356.288C168.458 356.533 168.911 356.656 169.412 356.656ZM175.48 358V349.6H177.128V351.328L176.84 351.52C176.947 351.147 177.155 350.805 177.464 350.496C177.773 350.176 178.141 349.92 178.568 349.728C178.995 349.525 179.432 349.424 179.88 349.424C180.52 349.424 181.053 349.552 181.48 349.808C181.907 350.053 182.227 350.432 182.44 350.944C182.653 351.456 182.76 352.101 182.76 352.88V358H181.112V352.992C181.112 352.512 181.048 352.117 180.92 351.808C180.792 351.488 180.595 351.259 180.328 351.12C180.061 350.971 179.731 350.907 179.336 350.928C179.016 350.928 178.723 350.981 178.456 351.088C178.189 351.184 177.955 351.323 177.752 351.504C177.56 351.685 177.405 351.899 177.288 352.144C177.181 352.379 177.128 352.635 177.128 352.912V358H176.312C176.173 358 176.035 358 175.896 358C175.757 358 175.619 358 175.48 358ZM186.036 358V347.456H187.684V358H186.036ZM184.292 351.2V349.6H189.636V351.2H184.292ZM191.136 358V346.16H192.784V351.328L192.496 351.52C192.603 351.147 192.811 350.805 193.12 350.496C193.43 350.176 193.798 349.92 194.224 349.728C194.651 349.525 195.088 349.424 195.536 349.424C196.176 349.424 196.71 349.552 197.136 349.808C197.563 350.053 197.883 350.432 198.096 350.944C198.31 351.456 198.416 352.101 198.416 352.88V358H196.768V352.992C196.768 352.512 196.704 352.117 196.576 351.808C196.448 351.488 196.251 351.259 195.984 351.12C195.718 350.971 195.387 350.907 194.992 350.928C194.672 350.928 194.379 350.981 194.112 351.088C193.846 351.184 193.611 351.323 193.408 351.504C193.216 351.685 193.062 351.899 192.944 352.144C192.838 352.379 192.784 352.635 192.784 352.912V358H191.968C191.83 358 191.691 358 191.552 358C191.414 358 191.275 358 191.136 358ZM203.452 358.16C202.748 358.16 202.113 358.037 201.548 357.792C200.983 357.547 200.513 357.184 200.14 356.704L201.26 355.744C201.58 356.117 201.927 356.389 202.3 356.56C202.684 356.72 203.116 356.8 203.596 356.8C203.788 356.8 203.964 356.779 204.124 356.736C204.295 356.683 204.439 356.608 204.556 356.512C204.684 356.416 204.78 356.304 204.844 356.176C204.908 356.037 204.94 355.888 204.94 355.728C204.94 355.451 204.839 355.227 204.636 355.056C204.529 354.981 204.359 354.901 204.124 354.816C203.9 354.72 203.607 354.624 203.244 354.528C202.625 354.368 202.119 354.187 201.724 353.984C201.329 353.781 201.025 353.552 200.812 353.296C200.652 353.093 200.535 352.875 200.46 352.64C200.385 352.395 200.348 352.128 200.348 351.84C200.348 351.488 200.423 351.168 200.572 350.88C200.732 350.581 200.945 350.325 201.212 350.112C201.489 349.888 201.809 349.717 202.172 349.6C202.545 349.483 202.94 349.424 203.356 349.424C203.751 349.424 204.14 349.477 204.524 349.584C204.919 349.691 205.281 349.845 205.612 350.048C205.943 350.251 206.22 350.491 206.444 350.768L205.5 351.808C205.297 351.605 205.073 351.429 204.828 351.28C204.593 351.12 204.353 350.997 204.108 350.912C203.863 350.827 203.639 350.784 203.436 350.784C203.212 350.784 203.009 350.805 202.828 350.848C202.647 350.891 202.492 350.955 202.364 351.04C202.247 351.125 202.156 351.232 202.092 351.36C202.028 351.488 201.996 351.632 201.996 351.792C202.007 351.931 202.039 352.064 202.092 352.192C202.156 352.309 202.241 352.411 202.348 352.496C202.465 352.581 202.641 352.672 202.876 352.768C203.111 352.864 203.409 352.955 203.772 353.04C204.305 353.179 204.743 353.333 205.084 353.504C205.436 353.664 205.713 353.851 205.916 354.064C206.129 354.267 206.279 354.501 206.364 354.768C206.449 355.035 206.492 355.333 206.492 355.664C206.492 356.144 206.353 356.576 206.076 356.96C205.809 357.333 205.447 357.627 204.988 357.84C204.529 358.053 204.017 358.16 203.452 358.16Z" fill="#3B3B3B"/>
<rect x="85" y="401" width="315" height="41" rx="6" fill="#0900FF"/>
<path d="M229.452 428.14C228.845 428.14 228.29 428.065 227.786 427.916C227.291 427.767 226.848 427.547 226.456 427.258C226.073 426.969 225.728 426.619 225.42 426.208L226.736 424.71C227.193 425.345 227.646 425.779 228.094 426.012C228.551 426.236 229.046 426.348 229.578 426.348C229.867 426.348 230.124 426.306 230.348 426.222C230.581 426.138 230.763 426.026 230.894 425.886C231.025 425.737 231.09 425.559 231.09 425.354C231.09 425.205 231.057 425.069 230.992 424.948C230.927 424.817 230.833 424.705 230.712 424.612C230.591 424.509 230.446 424.421 230.278 424.346C230.11 424.262 229.923 424.192 229.718 424.136C229.513 424.071 229.289 424.019 229.046 423.982C228.523 423.861 228.066 423.716 227.674 423.548C227.282 423.371 226.955 423.156 226.694 422.904C226.433 422.643 226.237 422.349 226.106 422.022C225.985 421.695 225.924 421.327 225.924 420.916C225.924 420.496 226.017 420.109 226.204 419.754C226.391 419.39 226.647 419.077 226.974 418.816C227.31 418.555 227.693 418.354 228.122 418.214C228.561 418.074 229.023 418.004 229.508 418.004C230.105 418.004 230.628 418.069 231.076 418.2C231.524 418.331 231.911 418.527 232.238 418.788C232.574 419.04 232.854 419.348 233.078 419.712L231.748 421C231.552 420.739 231.337 420.519 231.104 420.342C230.88 420.165 230.633 420.034 230.362 419.95C230.101 419.857 229.83 419.81 229.55 419.81C229.242 419.81 228.976 419.852 228.752 419.936C228.528 420.011 228.351 420.127 228.22 420.286C228.099 420.435 228.038 420.613 228.038 420.818C228.038 420.986 228.08 421.135 228.164 421.266C228.248 421.397 228.369 421.513 228.528 421.616C228.687 421.709 228.878 421.793 229.102 421.868C229.326 421.943 229.573 422.008 229.844 422.064C230.357 422.167 230.819 422.302 231.23 422.47C231.641 422.638 231.991 422.843 232.28 423.086C232.579 423.319 232.807 423.599 232.966 423.926C233.125 424.243 233.204 424.603 233.204 425.004C233.204 425.667 233.045 426.231 232.728 426.698C232.411 427.165 231.972 427.524 231.412 427.776C230.852 428.019 230.199 428.14 229.452 428.14ZM238.34 428.14C237.537 428.14 236.833 427.977 236.226 427.65C235.629 427.323 235.162 426.875 234.826 426.306C234.499 425.737 234.336 425.083 234.336 424.346C234.336 423.767 234.429 423.24 234.616 422.764C234.803 422.288 235.064 421.877 235.4 421.532C235.736 421.177 236.133 420.907 236.59 420.72C237.057 420.524 237.561 420.426 238.102 420.426C238.606 420.426 239.073 420.519 239.502 420.706C239.931 420.893 240.3 421.154 240.608 421.49C240.925 421.817 241.168 422.209 241.336 422.666C241.504 423.114 241.579 423.599 241.56 424.122L241.546 424.738H235.596L235.274 423.52H239.908L239.684 423.772V423.464C239.665 423.212 239.581 422.988 239.432 422.792C239.292 422.587 239.11 422.428 238.886 422.316C238.662 422.195 238.41 422.134 238.13 422.134C237.719 422.134 237.369 422.213 237.08 422.372C236.8 422.531 236.585 422.764 236.436 423.072C236.287 423.38 236.212 423.753 236.212 424.192C236.212 424.64 236.305 425.027 236.492 425.354C236.688 425.681 236.959 425.937 237.304 426.124C237.659 426.301 238.074 426.39 238.55 426.39C238.877 426.39 239.175 426.339 239.446 426.236C239.717 426.133 240.006 425.956 240.314 425.704L241.266 427.034C240.995 427.277 240.697 427.482 240.37 427.65C240.043 427.809 239.707 427.93 239.362 428.014C239.017 428.098 238.676 428.14 238.34 428.14ZM243.029 428V420.594H244.933L244.989 422.106L244.597 422.274C244.7 421.938 244.882 421.635 245.143 421.364C245.414 421.084 245.736 420.86 246.109 420.692C246.482 420.524 246.874 420.44 247.285 420.44C247.845 420.44 248.312 420.552 248.685 420.776C249.068 421 249.352 421.341 249.539 421.798C249.735 422.246 249.833 422.801 249.833 423.464V428H247.845V423.618C247.845 423.282 247.798 423.002 247.705 422.778C247.612 422.554 247.467 422.391 247.271 422.288C247.084 422.185 246.851 422.139 246.571 422.148C246.347 422.148 246.137 422.185 245.941 422.26C245.754 422.325 245.591 422.423 245.451 422.554C245.32 422.685 245.213 422.834 245.129 423.002C245.054 423.17 245.017 423.352 245.017 423.548V428H244.037C243.822 428 243.631 428 243.463 428C243.295 428 243.15 428 243.029 428ZM254.636 428.14C253.983 428.14 253.399 427.977 252.886 427.65C252.382 427.314 251.981 426.861 251.682 426.292C251.393 425.713 251.248 425.046 251.248 424.29C251.248 423.553 251.393 422.895 251.682 422.316C251.981 421.728 252.382 421.271 252.886 420.944C253.399 420.608 253.983 420.44 254.636 420.44C254.981 420.44 255.313 420.496 255.63 420.608C255.957 420.711 256.246 420.855 256.498 421.042C256.759 421.229 256.969 421.439 257.128 421.672C257.287 421.896 257.375 422.129 257.394 422.372L256.89 422.47V417.64H258.892V428H257.002L256.918 426.292L257.31 426.334C257.291 426.567 257.207 426.791 257.058 427.006C256.909 427.221 256.708 427.417 256.456 427.594C256.213 427.762 255.933 427.897 255.616 428C255.308 428.093 254.981 428.14 254.636 428.14ZM255.084 426.488C255.457 426.488 255.784 426.395 256.064 426.208C256.344 426.021 256.563 425.765 256.722 425.438C256.881 425.111 256.96 424.729 256.96 424.29C256.96 423.861 256.881 423.483 256.722 423.156C256.563 422.829 256.344 422.573 256.064 422.386C255.784 422.199 255.457 422.106 255.084 422.106C254.711 422.106 254.384 422.199 254.104 422.386C253.833 422.573 253.619 422.829 253.46 423.156C253.311 423.483 253.236 423.861 253.236 424.29C253.236 424.729 253.311 425.111 253.46 425.438C253.619 425.765 253.833 426.021 254.104 426.208C254.384 426.395 254.711 426.488 255.084 426.488Z" fill="white"/>
<path d="M103.91 185.1C103.417 185.1 102.96 185.01 102.54 184.83C102.127 184.65 101.763 184.4 101.45 184.08C101.143 183.753 100.903 183.373 100.73 182.94C100.563 182.5 100.48 182.02 100.48 181.5C100.48 180.98 100.563 180.503 100.73 180.07C100.903 179.63 101.143 179.25 101.45 178.93C101.763 178.603 102.127 178.35 102.54 178.17C102.96 177.99 103.417 177.9 103.91 177.9C104.403 177.9 104.857 177.99 105.27 178.17C105.69 178.35 106.053 178.603 106.36 178.93C106.673 179.257 106.913 179.64 107.08 180.08C107.253 180.513 107.34 180.987 107.34 181.5C107.34 182.013 107.253 182.49 107.08 182.93C106.913 183.363 106.673 183.743 106.36 184.07C106.053 184.397 105.69 184.65 105.27 184.83C104.857 185.01 104.403 185.1 103.91 185.1ZM103.91 184.05C104.25 184.05 104.56 183.987 104.84 183.86C105.127 183.733 105.373 183.557 105.58 183.33C105.787 183.097 105.947 182.827 106.06 182.52C106.18 182.207 106.24 181.867 106.24 181.5C106.24 181.133 106.18 180.797 106.06 180.49C105.947 180.177 105.787 179.907 105.58 179.68C105.373 179.447 105.127 179.267 104.84 179.14C104.56 179.013 104.25 178.95 103.91 178.95C103.57 178.95 103.257 179.013 102.97 179.14C102.69 179.267 102.443 179.443 102.23 179.67C102.023 179.897 101.863 180.167 101.75 180.48C101.637 180.787 101.58 181.127 101.58 181.5C101.58 181.867 101.637 182.207 101.75 182.52C101.863 182.833 102.023 183.103 102.23 183.33C102.443 183.557 102.69 183.733 102.97 183.86C103.257 183.987 103.57 184.05 103.91 184.05ZM109.112 185V179.16C109.112 178.86 109.179 178.593 109.312 178.36C109.446 178.127 109.629 177.943 109.862 177.81C110.096 177.677 110.366 177.61 110.672 177.61C110.886 177.61 111.086 177.65 111.272 177.73C111.459 177.81 111.609 177.917 111.722 178.05L111.372 178.84C111.286 178.76 111.189 178.697 111.082 178.65C110.982 178.597 110.886 178.57 110.792 178.57C110.652 178.57 110.532 178.593 110.432 178.64C110.339 178.68 110.269 178.747 110.222 178.84C110.176 178.927 110.152 179.033 110.152 179.16V185H109.632C109.546 185 109.459 185 109.372 185C109.286 185 109.199 185 109.112 185ZM108.272 180.79V179.84H111.392V180.79H108.272ZM113.042 185V179.16C113.042 178.86 113.109 178.593 113.242 178.36C113.376 178.127 113.559 177.943 113.792 177.81C114.026 177.677 114.296 177.61 114.602 177.61C114.816 177.61 115.016 177.65 115.202 177.73C115.389 177.81 115.539 177.917 115.652 178.05L115.302 178.84C115.216 178.76 115.119 178.697 115.012 178.65C114.912 178.597 114.816 178.57 114.722 178.57C114.582 178.57 114.462 178.593 114.362 178.64C114.269 178.68 114.199 178.747 114.152 178.84C114.106 178.927 114.082 179.033 114.082 179.16V185H113.562C113.476 185 113.389 185 113.302 185C113.216 185 113.129 185 113.042 185ZM112.202 180.79V179.84H115.322V180.79H112.202ZM118.658 185.1C118.118 185.1 117.638 184.987 117.218 184.76C116.805 184.527 116.478 184.21 116.238 183.81C116.005 183.41 115.888 182.95 115.888 182.43C115.888 182.017 115.955 181.64 116.088 181.3C116.222 180.96 116.405 180.667 116.638 180.42C116.878 180.167 117.162 179.973 117.488 179.84C117.822 179.7 118.182 179.63 118.568 179.63C118.908 179.63 119.225 179.697 119.518 179.83C119.812 179.957 120.065 180.133 120.278 180.36C120.498 180.587 120.665 180.857 120.778 181.17C120.898 181.477 120.955 181.813 120.948 182.18L120.938 182.62H116.648L116.418 181.8H120.048L119.898 181.97V181.73C119.878 181.51 119.805 181.313 119.678 181.14C119.552 180.967 119.392 180.83 119.198 180.73C119.005 180.63 118.795 180.58 118.568 180.58C118.208 180.58 117.905 180.65 117.658 180.79C117.412 180.923 117.225 181.123 117.098 181.39C116.972 181.65 116.908 181.973 116.908 182.36C116.908 182.727 116.985 183.047 117.138 183.32C117.292 183.587 117.508 183.793 117.788 183.94C118.068 184.087 118.392 184.16 118.758 184.16C119.018 184.16 119.258 184.117 119.478 184.03C119.705 183.943 119.948 183.787 120.208 183.56L120.728 184.29C120.568 184.45 120.372 184.59 120.138 184.71C119.912 184.83 119.668 184.927 119.408 185C119.155 185.067 118.905 185.1 118.658 185.1ZM122.068 185V179.75H123.108V181.4L123.008 181C123.081 180.747 123.204 180.517 123.378 180.31C123.558 180.103 123.761 179.94 123.988 179.82C124.221 179.7 124.461 179.64 124.708 179.64C124.821 179.64 124.928 179.65 125.028 179.67C125.134 179.69 125.218 179.713 125.278 179.74L125.008 180.86C124.928 180.827 124.838 180.8 124.738 180.78C124.644 180.753 124.551 180.74 124.458 180.74C124.278 180.74 124.104 180.777 123.938 180.85C123.778 180.917 123.634 181.013 123.508 181.14C123.388 181.26 123.291 181.403 123.218 181.57C123.144 181.73 123.108 181.907 123.108 182.1V185H122.068ZM130.354 184.51V178.83L130.724 179.11L129.344 179.84L129.054 178.9L130.924 177.9H131.444V184.51H130.354ZM129.244 185V183.96H132.584V185H129.244Z" fill="#7A7A7A"/>
<path d="M358.7 206V200.75H359.74V201.87L359.55 201.99C359.603 201.817 359.687 201.65 359.8 201.49C359.92 201.33 360.063 201.19 360.23 201.07C360.403 200.943 360.587 200.843 360.78 200.77C360.98 200.697 361.183 200.66 361.39 200.66C361.69 200.66 361.953 200.71 362.18 200.81C362.407 200.91 362.593 201.06 362.74 201.26C362.887 201.46 362.993 201.71 363.06 202.01L362.9 201.97L362.97 201.8C363.043 201.647 363.143 201.503 363.27 201.37C363.403 201.23 363.553 201.107 363.72 201C363.887 200.893 364.063 200.81 364.25 200.75C364.437 200.69 364.62 200.66 364.8 200.66C365.193 200.66 365.517 200.74 365.77 200.9C366.03 201.06 366.223 201.303 366.35 201.63C366.483 201.957 366.55 202.363 366.55 202.85V206H365.51V202.91C365.51 202.61 365.47 202.367 365.39 202.18C365.317 201.987 365.203 201.843 365.05 201.75C364.897 201.657 364.7 201.61 364.46 201.61C364.273 201.61 364.097 201.643 363.93 201.71C363.77 201.77 363.63 201.857 363.51 201.97C363.39 202.083 363.297 202.217 363.23 202.37C363.163 202.517 363.13 202.68 363.13 202.86V206H362.09V202.89C362.09 202.617 362.05 202.387 361.97 202.2C361.89 202.007 361.773 201.86 361.62 201.76C361.467 201.66 361.28 201.61 361.06 201.61C360.873 201.61 360.7 201.643 360.54 201.71C360.38 201.77 360.24 201.857 360.12 201.97C360 202.077 359.907 202.207 359.84 202.36C359.773 202.507 359.74 202.667 359.74 202.84V206H358.7ZM370.289 206.1C369.776 206.1 369.316 205.983 368.909 205.75C368.509 205.51 368.192 205.187 367.959 204.78C367.726 204.367 367.609 203.897 367.609 203.37C367.609 202.843 367.726 202.377 367.959 201.97C368.192 201.557 368.509 201.233 368.909 201C369.316 200.76 369.776 200.64 370.289 200.64C370.796 200.64 371.249 200.76 371.649 201C372.056 201.233 372.376 201.557 372.609 201.97C372.842 202.377 372.959 202.843 372.959 203.37C372.959 203.897 372.842 204.367 372.609 204.78C372.376 205.187 372.056 205.51 371.649 205.75C371.249 205.983 370.796 206.1 370.289 206.1ZM370.289 205.16C370.602 205.16 370.882 205.083 371.129 204.93C371.376 204.77 371.569 204.557 371.709 204.29C371.849 204.017 371.916 203.71 371.909 203.37C371.916 203.023 371.849 202.717 371.709 202.45C371.569 202.177 371.376 201.963 371.129 201.81C370.882 201.657 370.602 201.58 370.289 201.58C369.976 201.58 369.692 201.66 369.439 201.82C369.192 201.973 368.999 202.187 368.859 202.46C368.719 202.727 368.652 203.03 368.659 203.37C368.652 203.71 368.719 204.017 368.859 204.29C368.999 204.557 369.192 204.77 369.439 204.93C369.692 205.083 369.976 205.16 370.289 205.16ZM374.081 206V200.75H375.111V201.83L374.931 201.95C374.998 201.717 375.128 201.503 375.321 201.31C375.515 201.11 375.745 200.95 376.011 200.83C376.278 200.703 376.551 200.64 376.831 200.64C377.231 200.64 377.565 200.72 377.831 200.88C378.098 201.033 378.298 201.27 378.431 201.59C378.565 201.91 378.631 202.313 378.631 202.8V206H377.601V202.87C377.601 202.57 377.561 202.323 377.481 202.13C377.401 201.93 377.278 201.787 377.111 201.7C376.945 201.607 376.738 201.567 376.491 201.58C376.291 201.58 376.108 201.613 375.941 201.68C375.775 201.74 375.628 201.827 375.501 201.94C375.381 202.053 375.285 202.187 375.211 202.34C375.145 202.487 375.111 202.647 375.111 202.82V206H374.601C374.515 206 374.428 206 374.341 206C374.255 206 374.168 206 374.081 206ZM380.679 206V199.41H381.709V206H380.679ZM379.589 201.75V200.75H382.929V201.75H379.589ZM383.866 206V198.6H384.896V201.83L384.716 201.95C384.783 201.717 384.913 201.503 385.106 201.31C385.3 201.11 385.53 200.95 385.796 200.83C386.063 200.703 386.336 200.64 386.616 200.64C387.016 200.64 387.35 200.72 387.616 200.88C387.883 201.033 388.083 201.27 388.216 201.59C388.35 201.91 388.416 202.313 388.416 202.8V206H387.386V202.87C387.386 202.57 387.346 202.323 387.266 202.13C387.186 201.93 387.063 201.787 386.896 201.7C386.73 201.607 386.523 201.567 386.276 201.58C386.076 201.58 385.893 201.613 385.726 201.68C385.56 201.74 385.413 201.827 385.286 201.94C385.166 202.053 385.07 202.187 384.996 202.34C384.93 202.487 384.896 202.647 384.896 202.82V206H384.386C384.3 206 384.213 206 384.126 206C384.04 206 383.953 206 383.866 206Z" fill="#7A7A7A"/>
<path d="M358.7 278V272.75H359.74V273.87L359.55 273.99C359.603 273.817 359.687 273.65 359.8 273.49C359.92 273.33 360.063 273.19 360.23 273.07C360.403 272.943 360.587 272.843 360.78 272.77C360.98 272.697 361.183 272.66 361.39 272.66C361.69 272.66 361.953 272.71 362.18 272.81C362.407 272.91 362.593 273.06 362.74 273.26C362.887 273.46 362.993 273.71 363.06 274.01L362.9 273.97L362.97 273.8C363.043 273.647 363.143 273.503 363.27 273.37C363.403 273.23 363.553 273.107 363.72 273C363.887 272.893 364.063 272.81 364.25 272.75C364.437 272.69 364.62 272.66 364.8 272.66C365.193 272.66 365.517 272.74 365.77 272.9C366.03 273.06 366.223 273.303 366.35 273.63C366.483 273.957 366.55 274.363 366.55 274.85V278H365.51V274.91C365.51 274.61 365.47 274.367 365.39 274.18C365.317 273.987 365.203 273.843 365.05 273.75C364.897 273.657 364.7 273.61 364.46 273.61C364.273 273.61 364.097 273.643 363.93 273.71C363.77 273.77 363.63 273.857 363.51 273.97C363.39 274.083 363.297 274.217 363.23 274.37C363.163 274.517 363.13 274.68 363.13 274.86V278H362.09V274.89C362.09 274.617 362.05 274.387 361.97 274.2C361.89 274.007 361.773 273.86 361.62 273.76C361.467 273.66 361.28 273.61 361.06 273.61C360.873 273.61 360.7 273.643 360.54 273.71C360.38 273.77 360.24 273.857 360.12 273.97C360 274.077 359.907 274.207 359.84 274.36C359.773 274.507 359.74 274.667 359.74 274.84V278H358.7ZM370.289 278.1C369.776 278.1 369.316 277.983 368.909 277.75C368.509 277.51 368.192 277.187 367.959 276.78C367.726 276.367 367.609 275.897 367.609 275.37C367.609 274.843 367.726 274.377 367.959 273.97C368.192 273.557 368.509 273.233 368.909 273C369.316 272.76 369.776 272.64 370.289 272.64C370.796 272.64 371.249 272.76 371.649 273C372.056 273.233 372.376 273.557 372.609 273.97C372.842 274.377 372.959 274.843 372.959 275.37C372.959 275.897 372.842 276.367 372.609 276.78C372.376 277.187 372.056 277.51 371.649 277.75C371.249 277.983 370.796 278.1 370.289 278.1ZM370.289 277.16C370.602 277.16 370.882 277.083 371.129 276.93C371.376 276.77 371.569 276.557 371.709 276.29C371.849 276.017 371.916 275.71 371.909 275.37C371.916 275.023 371.849 274.717 371.709 274.45C371.569 274.177 371.376 273.963 371.129 273.81C370.882 273.657 370.602 273.58 370.289 273.58C369.976 273.58 369.692 273.66 369.439 273.82C369.192 273.973 368.999 274.187 368.859 274.46C368.719 274.727 368.652 275.03 368.659 275.37C368.652 275.71 368.719 276.017 368.859 276.29C368.999 276.557 369.192 276.77 369.439 276.93C369.692 277.083 369.976 277.16 370.289 277.16ZM374.081 278V272.75H375.111V273.83L374.931 273.95C374.998 273.717 375.128 273.503 375.321 273.31C375.515 273.11 375.745 272.95 376.011 272.83C376.278 272.703 376.551 272.64 376.831 272.64C377.231 272.64 377.565 272.72 377.831 272.88C378.098 273.033 378.298 273.27 378.431 273.59C378.565 273.91 378.631 274.313 378.631 274.8V278H377.601V274.87C377.601 274.57 377.561 274.323 377.481 274.13C377.401 273.93 377.278 273.787 377.111 273.7C376.945 273.607 376.738 273.567 376.491 273.58C376.291 273.58 376.108 273.613 375.941 273.68C375.775 273.74 375.628 273.827 375.501 273.94C375.381 274.053 375.285 274.187 375.211 274.34C375.145 274.487 375.111 274.647 375.111 274.82V278H374.601C374.515 278 374.428 278 374.341 278C374.255 278 374.168 278 374.081 278ZM380.679 278V271.41H381.709V278H380.679ZM379.589 273.75V272.75H382.929V273.75H379.589ZM383.866 278V270.6H384.896V273.83L384.716 273.95C384.783 273.717 384.913 273.503 385.106 273.31C385.3 273.11 385.53 272.95 385.796 272.83C386.063 272.703 386.336 272.64 386.616 272.64C387.016 272.64 387.35 272.72 387.616 272.88C387.883 273.033 388.083 273.27 388.216 273.59C388.35 273.91 388.416 274.313 388.416 274.8V278H387.386V274.87C387.386 274.57 387.346 274.323 387.266 274.13C387.186 273.93 387.063 273.787 386.896 273.7C386.73 273.607 386.523 273.567 386.276 273.58C386.076 273.58 385.893 273.613 385.726 273.68C385.56 273.74 385.413 273.827 385.286 273.94C385.166 274.053 385.07 274.187 384.996 274.34C384.93 274.487 384.896 274.647 384.896 274.82V278H384.386C384.3 278 384.213 278 384.126 278C384.04 278 383.953 278 383.866 278Z" fill="#7A7A7A"/>
<path d="M358.7 350V344.75H359.74V345.87L359.55 345.99C359.603 345.817 359.687 345.65 359.8 345.49C359.92 345.33 360.063 345.19 360.23 345.07C360.403 344.943 360.587 344.843 360.78 344.77C360.98 344.697 361.183 344.66 361.39 344.66C361.69 344.66 361.953 344.71 362.18 344.81C362.407 344.91 362.593 345.06 362.74 345.26C362.887 345.46 362.993 345.71 363.06 346.01L362.9 345.97L362.97 345.8C363.043 345.647 363.143 345.503 363.27 345.37C363.403 345.23 363.553 345.107 363.72 345C363.887 344.893 364.063 344.81 364.25 344.75C364.437 344.69 364.62 344.66 364.8 344.66C365.193 344.66 365.517 344.74 365.77 344.9C366.03 345.06 366.223 345.303 366.35 345.63C366.483 345.957 366.55 346.363 366.55 346.85V350H365.51V346.91C365.51 346.61 365.47 346.367 365.39 346.18C365.317 345.987 365.203 345.843 365.05 345.75C364.897 345.657 364.7 345.61 364.46 345.61C364.273 345.61 364.097 345.643 363.93 345.71C363.77 345.77 363.63 345.857 363.51 345.97C363.39 346.083 363.297 346.217 363.23 346.37C363.163 346.517 363.13 346.68 363.13 346.86V350H362.09V346.89C362.09 346.617 362.05 346.387 361.97 346.2C361.89 346.007 361.773 345.86 361.62 345.76C361.467 345.66 361.28 345.61 361.06 345.61C360.873 345.61 360.7 345.643 360.54 345.71C360.38 345.77 360.24 345.857 360.12 345.97C360 346.077 359.907 346.207 359.84 346.36C359.773 346.507 359.74 346.667 359.74 346.84V350H358.7ZM370.289 350.1C369.776 350.1 369.316 349.983 368.909 349.75C368.509 349.51 368.192 349.187 367.959 348.78C367.726 348.367 367.609 347.897 367.609 347.37C367.609 346.843 367.726 346.377 367.959 345.97C368.192 345.557 368.509 345.233 368.909 345C369.316 344.76 369.776 344.64 370.289 344.64C370.796 344.64 371.249 344.76 371.649 345C372.056 345.233 372.376 345.557 372.609 345.97C372.842 346.377 372.959 346.843 372.959 347.37C372.959 347.897 372.842 348.367 372.609 348.78C372.376 349.187 372.056 349.51 371.649 349.75C371.249 349.983 370.796 350.1 370.289 350.1ZM370.289 349.16C370.602 349.16 370.882 349.083 371.129 348.93C371.376 348.77 371.569 348.557 371.709 348.29C371.849 348.017 371.916 347.71 371.909 347.37C371.916 347.023 371.849 346.717 371.709 346.45C371.569 346.177 371.376 345.963 371.129 345.81C370.882 345.657 370.602 345.58 370.289 345.58C369.976 345.58 369.692 345.66 369.439 345.82C369.192 345.973 368.999 346.187 368.859 346.46C368.719 346.727 368.652 347.03 368.659 347.37C368.652 347.71 368.719 348.017 368.859 348.29C368.999 348.557 369.192 348.77 369.439 348.93C369.692 349.083 369.976 349.16 370.289 349.16ZM374.081 350V344.75H375.111V345.83L374.931 345.95C374.998 345.717 375.128 345.503 375.321 345.31C375.515 345.11 375.745 344.95 376.011 344.83C376.278 344.703 376.551 344.64 376.831 344.64C377.231 344.64 377.565 344.72 377.831 344.88C378.098 345.033 378.298 345.27 378.431 345.59C378.565 345.91 378.631 346.313 378.631 346.8V350H377.601V346.87C377.601 346.57 377.561 346.323 377.481 346.13C377.401 345.93 377.278 345.787 377.111 345.7C376.945 345.607 376.738 345.567 376.491 345.58C376.291 345.58 376.108 345.613 375.941 345.68C375.775 345.74 375.628 345.827 375.501 345.94C375.381 346.053 375.285 346.187 375.211 346.34C375.145 346.487 375.111 346.647 375.111 346.82V350H374.601C374.515 350 374.428 350 374.341 350C374.255 350 374.168 350 374.081 350ZM380.679 350V343.41H381.709V350H380.679ZM379.589 345.75V344.75H382.929V345.75H379.589ZM383.866 350V342.6H384.896V345.83L384.716 345.95C384.783 345.717 384.913 345.503 385.106 345.31C385.3 345.11 385.53 344.95 385.796 344.83C386.063 344.703 386.336 344.64 386.616 344.64C387.016 344.64 387.35 344.72 387.616 344.88C387.883 345.033 388.083 345.27 388.216 345.59C388.35 345.91 388.416 346.313 388.416 346.8V350H387.386V346.87C387.386 346.57 387.346 346.323 387.266 346.13C387.186 345.93 387.063 345.787 386.896 345.7C386.73 345.607 386.523 345.567 386.276 345.58C386.076 345.58 385.893 345.613 385.726 345.68C385.56 345.74 385.413 345.827 385.286 345.94C385.166 346.053 385.07 346.187 384.996 346.34C384.93 346.487 384.896 346.647 384.896 346.82V350H384.386C384.3 350 384.213 350 384.126 350C384.04 350 383.953 350 383.866 350Z" fill="#7A7A7A"/>
<path d="M103.91 257.1C103.417 257.1 102.96 257.01 102.54 256.83C102.127 256.65 101.763 256.4 101.45 256.08C101.143 255.753 100.903 255.373 100.73 254.94C100.563 254.5 100.48 254.02 100.48 253.5C100.48 252.98 100.563 252.503 100.73 252.07C100.903 251.63 101.143 251.25 101.45 250.93C101.763 250.603 102.127 250.35 102.54 250.17C102.96 249.99 103.417 249.9 103.91 249.9C104.403 249.9 104.857 249.99 105.27 250.17C105.69 250.35 106.053 250.603 106.36 250.93C106.673 251.257 106.913 251.64 107.08 252.08C107.253 252.513 107.34 252.987 107.34 253.5C107.34 254.013 107.253 254.49 107.08 254.93C106.913 255.363 106.673 255.743 106.36 256.07C106.053 256.397 105.69 256.65 105.27 256.83C104.857 257.01 104.403 257.1 103.91 257.1ZM103.91 256.05C104.25 256.05 104.56 255.987 104.84 255.86C105.127 255.733 105.373 255.557 105.58 255.33C105.787 255.097 105.947 254.827 106.06 254.52C106.18 254.207 106.24 253.867 106.24 253.5C106.24 253.133 106.18 252.797 106.06 252.49C105.947 252.177 105.787 251.907 105.58 251.68C105.373 251.447 105.127 251.267 104.84 251.14C104.56 251.013 104.25 250.95 103.91 250.95C103.57 250.95 103.257 251.013 102.97 251.14C102.69 251.267 102.443 251.443 102.23 251.67C102.023 251.897 101.863 252.167 101.75 252.48C101.637 252.787 101.58 253.127 101.58 253.5C101.58 253.867 101.637 254.207 101.75 254.52C101.863 254.833 102.023 255.103 102.23 255.33C102.443 255.557 102.69 255.733 102.97 255.86C103.257 255.987 103.57 256.05 103.91 256.05ZM109.112 257V251.16C109.112 250.86 109.179 250.593 109.312 250.36C109.446 250.127 109.629 249.943 109.862 249.81C110.096 249.677 110.366 249.61 110.672 249.61C110.886 249.61 111.086 249.65 111.272 249.73C111.459 249.81 111.609 249.917 111.722 250.05L111.372 250.84C111.286 250.76 111.189 250.697 111.082 250.65C110.982 250.597 110.886 250.57 110.792 250.57C110.652 250.57 110.532 250.593 110.432 250.64C110.339 250.68 110.269 250.747 110.222 250.84C110.176 250.927 110.152 251.033 110.152 251.16V257H109.632C109.546 257 109.459 257 109.372 257C109.286 257 109.199 257 109.112 257ZM108.272 252.79V251.84H111.392V252.79H108.272ZM113.042 257V251.16C113.042 250.86 113.109 250.593 113.242 250.36C113.376 250.127 113.559 249.943 113.792 249.81C114.026 249.677 114.296 249.61 114.602 249.61C114.816 249.61 115.016 249.65 115.202 249.73C115.389 249.81 115.539 249.917 115.652 250.05L115.302 250.84C115.216 250.76 115.119 250.697 115.012 250.65C114.912 250.597 114.816 250.57 114.722 250.57C114.582 250.57 114.462 250.593 114.362 250.64C114.269 250.68 114.199 250.747 114.152 250.84C114.106 250.927 114.082 251.033 114.082 251.16V257H113.562C113.476 257 113.389 257 113.302 257C113.216 257 113.129 257 113.042 257ZM112.202 252.79V251.84H115.322V252.79H112.202ZM118.658 257.1C118.118 257.1 117.638 256.987 117.218 256.76C116.805 256.527 116.478 256.21 116.238 255.81C116.005 255.41 115.888 254.95 115.888 254.43C115.888 254.017 115.955 253.64 116.088 253.3C116.222 252.96 116.405 252.667 116.638 252.42C116.878 252.167 117.162 251.973 117.488 251.84C117.822 251.7 118.182 251.63 118.568 251.63C118.908 251.63 119.225 251.697 119.518 251.83C119.812 251.957 120.065 252.133 120.278 252.36C120.498 252.587 120.665 252.857 120.778 253.17C120.898 253.477 120.955 253.813 120.948 254.18L120.938 254.62H116.648L116.418 253.8H120.048L119.898 253.97V253.73C119.878 253.51 119.805 253.313 119.678 253.14C119.552 252.967 119.392 252.83 119.198 252.73C119.005 252.63 118.795 252.58 118.568 252.58C118.208 252.58 117.905 252.65 117.658 252.79C117.412 252.923 117.225 253.123 117.098 253.39C116.972 253.65 116.908 253.973 116.908 254.36C116.908 254.727 116.985 255.047 117.138 255.32C117.292 255.587 117.508 255.793 117.788 255.94C118.068 256.087 118.392 256.16 118.758 256.16C119.018 256.16 119.258 256.117 119.478 256.03C119.705 255.943 119.948 255.787 120.208 255.56L120.728 256.29C120.568 256.45 120.372 256.59 120.138 256.71C119.912 256.83 119.668 256.927 119.408 257C119.155 257.067 118.905 257.1 118.658 257.1ZM122.068 257V251.75H123.108V253.4L123.008 253C123.081 252.747 123.204 252.517 123.378 252.31C123.558 252.103 123.761 251.94 123.988 251.82C124.221 251.7 124.461 251.64 124.708 251.64C124.821 251.64 124.928 251.65 125.028 251.67C125.134 251.69 125.218 251.713 125.278 251.74L125.008 252.86C124.928 252.827 124.838 252.8 124.738 252.78C124.644 252.753 124.551 252.74 124.458 252.74C124.278 252.74 124.104 252.777 123.938 252.85C123.778 252.917 123.634 253.013 123.508 253.14C123.388 253.26 123.291 253.403 123.218 253.57C123.144 253.73 123.108 253.907 123.108 254.1V257H122.068ZM129.114 257L128.784 256.18L130.924 253.77C131.037 253.65 131.154 253.513 131.274 253.36C131.4 253.2 131.52 253.037 131.634 252.87C131.747 252.703 131.837 252.54 131.904 252.38C131.977 252.213 132.014 252.057 132.014 251.91C132.014 251.697 131.97 251.517 131.884 251.37C131.804 251.217 131.684 251.1 131.524 251.02C131.37 250.94 131.184 250.9 130.964 250.9C130.77 250.9 130.58 250.957 130.394 251.07C130.207 251.183 130.037 251.343 129.884 251.55C129.73 251.757 129.61 251.997 129.524 252.27L128.694 251.75C128.807 251.363 128.977 251.033 129.204 250.76C129.437 250.48 129.714 250.267 130.034 250.12C130.36 249.973 130.714 249.9 131.094 249.9C131.487 249.9 131.837 249.983 132.144 250.15C132.45 250.31 132.69 250.537 132.864 250.83C133.037 251.117 133.124 251.45 133.124 251.83C133.124 251.983 133.107 252.14 133.074 252.3C133.04 252.46 132.987 252.627 132.914 252.8C132.84 252.967 132.747 253.143 132.634 253.33C132.52 253.51 132.384 253.7 132.224 253.9C132.07 254.1 131.894 254.31 131.694 254.53L130.104 256.26L129.904 255.96H133.344V257H129.114Z" fill="#7A7A7A"/>
<path d="M103.91 329.1C103.417 329.1 102.96 329.01 102.54 328.83C102.127 328.65 101.763 328.4 101.45 328.08C101.143 327.753 100.903 327.373 100.73 326.94C100.563 326.5 100.48 326.02 100.48 325.5C100.48 324.98 100.563 324.503 100.73 324.07C100.903 323.63 101.143 323.25 101.45 322.93C101.763 322.603 102.127 322.35 102.54 322.17C102.96 321.99 103.417 321.9 103.91 321.9C104.403 321.9 104.857 321.99 105.27 322.17C105.69 322.35 106.053 322.603 106.36 322.93C106.673 323.257 106.913 323.64 107.08 324.08C107.253 324.513 107.34 324.987 107.34 325.5C107.34 326.013 107.253 326.49 107.08 326.93C106.913 327.363 106.673 327.743 106.36 328.07C106.053 328.397 105.69 328.65 105.27 328.83C104.857 329.01 104.403 329.1 103.91 329.1ZM103.91 328.05C104.25 328.05 104.56 327.987 104.84 327.86C105.127 327.733 105.373 327.557 105.58 327.33C105.787 327.097 105.947 326.827 106.06 326.52C106.18 326.207 106.24 325.867 106.24 325.5C106.24 325.133 106.18 324.797 106.06 324.49C105.947 324.177 105.787 323.907 105.58 323.68C105.373 323.447 105.127 323.267 104.84 323.14C104.56 323.013 104.25 322.95 103.91 322.95C103.57 322.95 103.257 323.013 102.97 323.14C102.69 323.267 102.443 323.443 102.23 323.67C102.023 323.897 101.863 324.167 101.75 324.48C101.637 324.787 101.58 325.127 101.58 325.5C101.58 325.867 101.637 326.207 101.75 326.52C101.863 326.833 102.023 327.103 102.23 327.33C102.443 327.557 102.69 327.733 102.97 327.86C103.257 327.987 103.57 328.05 103.91 328.05ZM109.112 329V323.16C109.112 322.86 109.179 322.593 109.312 322.36C109.446 322.127 109.629 321.943 109.862 321.81C110.096 321.677 110.366 321.61 110.672 321.61C110.886 321.61 111.086 321.65 111.272 321.73C111.459 321.81 111.609 321.917 111.722 322.05L111.372 322.84C111.286 322.76 111.189 322.697 111.082 322.65C110.982 322.597 110.886 322.57 110.792 322.57C110.652 322.57 110.532 322.593 110.432 322.64C110.339 322.68 110.269 322.747 110.222 322.84C110.176 322.927 110.152 323.033 110.152 323.16V329H109.632C109.546 329 109.459 329 109.372 329C109.286 329 109.199 329 109.112 329ZM108.272 324.79V323.84H111.392V324.79H108.272ZM113.042 329V323.16C113.042 322.86 113.109 322.593 113.242 322.36C113.376 322.127 113.559 321.943 113.792 321.81C114.026 321.677 114.296 321.61 114.602 321.61C114.816 321.61 115.016 321.65 115.202 321.73C115.389 321.81 115.539 321.917 115.652 322.05L115.302 322.84C115.216 322.76 115.119 322.697 115.012 322.65C114.912 322.597 114.816 322.57 114.722 322.57C114.582 322.57 114.462 322.593 114.362 322.64C114.269 322.68 114.199 322.747 114.152 322.84C114.106 322.927 114.082 323.033 114.082 323.16V329H113.562C113.476 329 113.389 329 113.302 329C113.216 329 113.129 329 113.042 329ZM112.202 324.79V323.84H115.322V324.79H112.202ZM118.658 329.1C118.118 329.1 117.638 328.987 117.218 328.76C116.805 328.527 116.478 328.21 116.238 327.81C116.005 327.41 115.888 326.95 115.888 326.43C115.888 326.017 115.955 325.64 116.088 325.3C116.222 324.96 116.405 324.667 116.638 324.42C116.878 324.167 117.162 323.973 117.488 323.84C117.822 323.7 118.182 323.63 118.568 323.63C118.908 323.63 119.225 323.697 119.518 323.83C119.812 323.957 120.065 324.133 120.278 324.36C120.498 324.587 120.665 324.857 120.778 325.17C120.898 325.477 120.955 325.813 120.948 326.18L120.938 326.62H116.648L116.418 325.8H120.048L119.898 325.97V325.73C119.878 325.51 119.805 325.313 119.678 325.14C119.552 324.967 119.392 324.83 119.198 324.73C119.005 324.63 118.795 324.58 118.568 324.58C118.208 324.58 117.905 324.65 117.658 324.79C117.412 324.923 117.225 325.123 117.098 325.39C116.972 325.65 116.908 325.973 116.908 326.36C116.908 326.727 116.985 327.047 117.138 327.32C117.292 327.587 117.508 327.793 117.788 327.94C118.068 328.087 118.392 328.16 118.758 328.16C119.018 328.16 119.258 328.117 119.478 328.03C119.705 327.943 119.948 327.787 120.208 327.56L120.728 328.29C120.568 328.45 120.372 328.59 120.138 328.71C119.912 328.83 119.668 328.927 119.408 329C119.155 329.067 118.905 329.1 118.658 329.1ZM122.068 329V323.75H123.108V325.4L123.008 325C123.081 324.747 123.204 324.517 123.378 324.31C123.558 324.103 123.761 323.94 123.988 323.82C124.221 323.7 124.461 323.64 124.708 323.64C124.821 323.64 124.928 323.65 125.028 323.67C125.134 323.69 125.218 323.713 125.278 323.74L125.008 324.86C124.928 324.827 124.838 324.8 124.738 324.78C124.644 324.753 124.551 324.74 124.458 324.74C124.278 324.74 124.104 324.777 123.938 324.85C123.778 324.917 123.634 325.013 123.508 325.14C123.388 325.26 123.291 325.403 123.218 325.57C123.144 325.73 123.108 325.907 123.108 326.1V329H122.068ZM130.694 329.1C130.2 329.1 129.77 328.987 129.404 328.76C129.044 328.533 128.704 328.153 128.384 327.62L129.224 327.09C129.39 327.337 129.554 327.54 129.714 327.7C129.88 327.853 130.05 327.967 130.224 328.04C130.397 328.113 130.58 328.15 130.774 328.15C131.007 328.15 131.224 328.093 131.424 327.98C131.624 327.86 131.784 327.697 131.904 327.49C132.024 327.283 132.084 327.05 132.084 326.79C132.084 326.53 132.037 326.31 131.944 326.13C131.85 325.943 131.714 325.803 131.534 325.71C131.354 325.61 131.14 325.56 130.894 325.56C130.78 325.56 130.66 325.573 130.534 325.6C130.414 325.62 130.284 325.653 130.144 325.7C130.004 325.74 129.85 325.793 129.684 325.86L129.384 325.07L131.544 322.69L131.754 323H128.774V322H132.784L132.984 322.4L130.694 324.94L130.444 324.68C130.497 324.653 130.584 324.63 130.704 324.61C130.83 324.583 130.934 324.57 131.014 324.57C131.307 324.57 131.58 324.627 131.834 324.74C132.094 324.847 132.317 325 132.504 325.2C132.697 325.393 132.847 325.623 132.954 325.89C133.067 326.15 133.124 326.43 133.124 326.73C133.124 327.183 133.014 327.59 132.794 327.95C132.58 328.303 132.29 328.583 131.924 328.79C131.557 328.997 131.147 329.1 130.694 329.1Z" fill="#7A7A7A"/>
</svg>
