<svg width="480" height="540" viewBox="0 0 480 540" fill="none" xmlns="http://www.w3.org/2000/svg">
<rect x="70" y="75" width="345" height="388" rx="16" fill="#F1F5F7"/>
<rect x="85" y="161" width="315" height="206" rx="11" fill="white"/>
<path d="M86.911 123V108.3H90.061V120.165H96.718V123H86.911ZM104.087 123.21C102.883 123.21 101.826 122.965 100.916 122.475C100.02 121.985 99.3202 121.313 98.8162 120.459C98.3262 119.605 98.0812 118.625 98.0812 117.519C98.0812 116.651 98.2212 115.86 98.5012 115.146C98.7812 114.432 99.1732 113.816 99.6772 113.298C100.181 112.766 100.776 112.36 101.462 112.08C102.162 111.786 102.918 111.639 103.73 111.639C104.486 111.639 105.186 111.779 105.83 112.059C106.474 112.339 107.027 112.731 107.489 113.235C107.965 113.725 108.329 114.313 108.581 114.999C108.833 115.671 108.945 116.399 108.917 117.183L108.896 118.107H99.9712L99.4882 116.28H106.439L106.103 116.658V116.196C106.075 115.818 105.949 115.482 105.725 115.188C105.515 114.88 105.242 114.642 104.906 114.474C104.57 114.292 104.192 114.201 103.772 114.201C103.156 114.201 102.631 114.32 102.197 114.558C101.777 114.796 101.455 115.146 101.231 115.608C101.007 116.07 100.895 116.63 100.895 117.288C100.895 117.96 101.035 118.541 101.315 119.031C101.609 119.521 102.015 119.906 102.533 120.186C103.065 120.452 103.688 120.585 104.402 120.585C104.892 120.585 105.34 120.508 105.746 120.354C106.152 120.2 106.586 119.934 107.048 119.556L108.476 121.551C108.07 121.915 107.622 122.223 107.132 122.475C106.642 122.713 106.138 122.895 105.62 123.021C105.102 123.147 104.591 123.21 104.087 123.21ZM115.279 123.21C114.355 123.21 113.522 122.958 112.78 122.454C112.038 121.95 111.45 121.264 111.016 120.396C110.582 119.528 110.365 118.534 110.365 117.414C110.365 116.294 110.582 115.3 111.016 114.432C111.464 113.564 112.066 112.885 112.822 112.395C113.578 111.905 114.439 111.66 115.405 111.66C115.951 111.66 116.448 111.744 116.896 111.912C117.358 112.066 117.757 112.283 118.093 112.563C118.443 112.843 118.737 113.165 118.975 113.529C119.213 113.893 119.381 114.285 119.479 114.705L118.849 114.6V111.891H121.81V123H118.807V120.333L119.479 120.27C119.367 120.662 119.185 121.033 118.933 121.383C118.681 121.733 118.366 122.048 117.988 122.328C117.624 122.594 117.211 122.811 116.749 122.979C116.287 123.133 115.797 123.21 115.279 123.21ZM116.098 120.627C116.658 120.627 117.148 120.494 117.568 120.228C117.988 119.962 118.31 119.591 118.534 119.115C118.772 118.625 118.891 118.058 118.891 117.414C118.891 116.784 118.772 116.231 118.534 115.755C118.31 115.279 117.988 114.908 117.568 114.642C117.148 114.362 116.658 114.222 116.098 114.222C115.552 114.222 115.069 114.362 114.649 114.642C114.243 114.908 113.921 115.279 113.683 115.755C113.445 116.231 113.326 116.784 113.326 117.414C113.326 118.058 113.445 118.625 113.683 119.115C113.921 119.591 114.243 119.962 114.649 120.228C115.069 120.494 115.552 120.627 116.098 120.627ZM128.538 123.21C127.502 123.21 126.578 123.042 125.766 122.706C124.968 122.356 124.324 121.88 123.834 121.278L125.703 119.682C126.123 120.144 126.599 120.48 127.131 120.69C127.663 120.886 128.195 120.984 128.727 120.984C128.937 120.984 129.126 120.963 129.294 120.921C129.476 120.865 129.63 120.795 129.756 120.711C129.882 120.613 129.973 120.501 130.029 120.375C130.099 120.235 130.134 120.088 130.134 119.934C130.134 119.626 130.008 119.388 129.756 119.22C129.616 119.136 129.399 119.045 129.105 118.947C128.811 118.835 128.433 118.716 127.971 118.59C127.257 118.408 126.648 118.198 126.144 117.96C125.654 117.708 125.262 117.428 124.968 117.12C124.716 116.826 124.52 116.511 124.38 116.175C124.254 115.825 124.191 115.44 124.191 115.02C124.191 114.516 124.303 114.061 124.527 113.655C124.751 113.235 125.059 112.878 125.451 112.584C125.857 112.29 126.319 112.066 126.837 111.912C127.355 111.744 127.901 111.66 128.475 111.66C129.049 111.66 129.609 111.73 130.155 111.87C130.701 112.01 131.205 112.213 131.667 112.479C132.143 112.731 132.556 113.032 132.906 113.382L131.31 115.146C131.058 114.908 130.771 114.691 130.449 114.495C130.141 114.299 129.819 114.145 129.483 114.033C129.147 113.921 128.846 113.865 128.58 113.865C128.342 113.865 128.125 113.886 127.929 113.928C127.747 113.97 127.593 114.04 127.467 114.138C127.341 114.222 127.243 114.327 127.173 114.453C127.117 114.579 127.089 114.719 127.089 114.873C127.089 115.027 127.124 115.174 127.194 115.314C127.278 115.454 127.39 115.573 127.53 115.671C127.684 115.755 127.908 115.853 128.202 115.965C128.51 116.077 128.923 116.203 129.441 116.343C130.113 116.525 130.68 116.728 131.142 116.952C131.618 117.176 131.996 117.435 132.276 117.729C132.514 117.981 132.689 118.268 132.801 118.59C132.913 118.912 132.969 119.269 132.969 119.661C132.969 120.347 132.773 120.956 132.381 121.488C132.003 122.02 131.478 122.44 130.806 122.748C130.134 123.056 129.378 123.21 128.538 123.21ZM140.366 123.21C139.162 123.21 138.105 122.965 137.195 122.475C136.299 121.985 135.599 121.313 135.095 120.459C134.605 119.605 134.36 118.625 134.36 117.519C134.36 116.651 134.5 115.86 134.78 115.146C135.06 114.432 135.452 113.816 135.956 113.298C136.46 112.766 137.055 112.36 137.741 112.08C138.441 111.786 139.197 111.639 140.009 111.639C140.765 111.639 141.465 111.779 142.109 112.059C142.753 112.339 143.306 112.731 143.768 113.235C144.244 113.725 144.608 114.313 144.86 114.999C145.112 115.671 145.224 116.399 145.196 117.183L145.175 118.107H136.25L135.767 116.28H142.718L142.382 116.658V116.196C142.354 115.818 142.228 115.482 142.004 115.188C141.794 114.88 141.521 114.642 141.185 114.474C140.849 114.292 140.471 114.201 140.051 114.201C139.435 114.201 138.91 114.32 138.476 114.558C138.056 114.796 137.734 115.146 137.51 115.608C137.286 116.07 137.174 116.63 137.174 117.288C137.174 117.96 137.314 118.541 137.594 119.031C137.888 119.521 138.294 119.906 138.812 120.186C139.344 120.452 139.967 120.585 140.681 120.585C141.171 120.585 141.619 120.508 142.025 120.354C142.431 120.2 142.865 119.934 143.327 119.556L144.755 121.551C144.349 121.915 143.901 122.223 143.411 122.475C142.921 122.713 142.417 122.895 141.899 123.021C141.381 123.147 140.87 123.21 140.366 123.21ZM154.259 123V108.3H160.769C161.679 108.3 162.505 108.51 163.247 108.93C163.989 109.336 164.57 109.889 164.99 110.589C165.424 111.289 165.641 112.087 165.641 112.983C165.641 113.865 165.424 114.67 164.99 115.398C164.57 116.112 163.989 116.679 163.247 117.099C162.505 117.519 161.679 117.729 160.769 117.729H157.304V123H154.259ZM162.596 123L158.858 116.364L162.092 115.839L166.25 123.021L162.596 123ZM157.304 115.167H160.622C161 115.167 161.329 115.083 161.609 114.915C161.903 114.733 162.127 114.488 162.281 114.18C162.435 113.858 162.512 113.501 162.512 113.109C162.512 112.689 162.421 112.325 162.239 112.017C162.057 111.709 161.791 111.471 161.441 111.303C161.091 111.121 160.685 111.03 160.223 111.03H157.304V115.167ZM173.404 123.21C172.2 123.21 171.143 122.965 170.233 122.475C169.337 121.985 168.637 121.313 168.133 120.459C167.643 119.605 167.398 118.625 167.398 117.519C167.398 116.651 167.538 115.86 167.818 115.146C168.098 114.432 168.49 113.816 168.994 113.298C169.498 112.766 170.093 112.36 170.779 112.08C171.479 111.786 172.235 111.639 173.047 111.639C173.803 111.639 174.503 111.779 175.147 112.059C175.791 112.339 176.344 112.731 176.806 113.235C177.282 113.725 177.646 114.313 177.898 114.999C178.15 115.671 178.262 116.399 178.234 117.183L178.213 118.107H169.288L168.805 116.28H175.756L175.42 116.658V116.196C175.392 115.818 175.266 115.482 175.042 115.188C174.832 114.88 174.559 114.642 174.223 114.474C173.887 114.292 173.509 114.201 173.089 114.201C172.473 114.201 171.948 114.32 171.514 114.558C171.094 114.796 170.772 115.146 170.548 115.608C170.324 116.07 170.212 116.63 170.212 117.288C170.212 117.96 170.352 118.541 170.632 119.031C170.926 119.521 171.332 119.906 171.85 120.186C172.382 120.452 173.005 120.585 173.719 120.585C174.209 120.585 174.657 120.508 175.063 120.354C175.469 120.2 175.903 119.934 176.365 119.556L177.793 121.551C177.387 121.915 176.939 122.223 176.449 122.475C175.959 122.713 175.455 122.895 174.937 123.021C174.419 123.147 173.908 123.21 173.404 123.21ZM180.437 123V111.891H183.293L183.377 114.159L182.789 114.411C182.943 113.907 183.216 113.452 183.608 113.046C184.014 112.626 184.497 112.29 185.057 112.038C185.617 111.786 186.205 111.66 186.821 111.66C187.661 111.66 188.361 111.828 188.921 112.164C189.495 112.5 189.922 113.011 190.202 113.697C190.496 114.369 190.643 115.202 190.643 116.196V123H187.661V116.427C187.661 115.923 187.591 115.503 187.451 115.167C187.311 114.831 187.094 114.586 186.8 114.432C186.52 114.278 186.17 114.208 185.75 114.222C185.414 114.222 185.099 114.278 184.805 114.39C184.525 114.488 184.28 114.635 184.07 114.831C183.874 115.027 183.713 115.251 183.587 115.503C183.475 115.755 183.419 116.028 183.419 116.322V123H181.949C181.627 123 181.34 123 181.088 123C180.836 123 180.619 123 180.437 123ZM198.772 123.21C197.568 123.21 196.511 122.965 195.601 122.475C194.705 121.985 194.005 121.313 193.501 120.459C193.011 119.605 192.766 118.625 192.766 117.519C192.766 116.651 192.906 115.86 193.186 115.146C193.466 114.432 193.858 113.816 194.362 113.298C194.866 112.766 195.461 112.36 196.147 112.08C196.847 111.786 197.603 111.639 198.415 111.639C199.171 111.639 199.871 111.779 200.515 112.059C201.159 112.339 201.712 112.731 202.174 113.235C202.65 113.725 203.014 114.313 203.266 114.999C203.518 115.671 203.63 116.399 203.602 117.183L203.581 118.107H194.656L194.173 116.28H201.124L200.788 116.658V116.196C200.76 115.818 200.634 115.482 200.41 115.188C200.2 114.88 199.927 114.642 199.591 114.474C199.255 114.292 198.877 114.201 198.457 114.201C197.841 114.201 197.316 114.32 196.882 114.558C196.462 114.796 196.14 115.146 195.916 115.608C195.692 116.07 195.58 116.63 195.58 117.288C195.58 117.96 195.72 118.541 196 119.031C196.294 119.521 196.7 119.906 197.218 120.186C197.75 120.452 198.373 120.585 199.087 120.585C199.577 120.585 200.025 120.508 200.431 120.354C200.837 120.2 201.271 119.934 201.733 119.556L203.161 121.551C202.755 121.915 202.307 122.223 201.817 122.475C201.327 122.713 200.823 122.895 200.305 123.021C199.787 123.147 199.276 123.21 198.772 123.21ZM208.141 123L204.424 111.891L207.532 111.87L209.8 119.451L209.338 119.388L211.837 113.487H213.601L216.205 119.409L215.701 119.451L217.969 111.891H221.077L217.297 123H215.134L212.509 116.679L212.845 116.721L210.283 123H208.141ZM226.739 123.21C225.815 123.21 224.982 122.958 224.24 122.454C223.498 121.95 222.91 121.264 222.476 120.396C222.042 119.528 221.825 118.534 221.825 117.414C221.825 116.294 222.042 115.3 222.476 114.432C222.924 113.564 223.526 112.885 224.282 112.395C225.038 111.905 225.899 111.66 226.865 111.66C227.411 111.66 227.908 111.744 228.356 111.912C228.818 112.066 229.217 112.283 229.553 112.563C229.903 112.843 230.197 113.165 230.435 113.529C230.673 113.893 230.841 114.285 230.939 114.705L230.309 114.6V111.891H233.27V123H230.267V120.333L230.939 120.27C230.827 120.662 230.645 121.033 230.393 121.383C230.141 121.733 229.826 122.048 229.448 122.328C229.084 122.594 228.671 122.811 228.209 122.979C227.747 123.133 227.257 123.21 226.739 123.21ZM227.558 120.627C228.118 120.627 228.608 120.494 229.028 120.228C229.448 119.962 229.77 119.591 229.994 119.115C230.232 118.625 230.351 118.058 230.351 117.414C230.351 116.784 230.232 116.231 229.994 115.755C229.77 115.279 229.448 114.908 229.028 114.642C228.608 114.362 228.118 114.222 227.558 114.222C227.012 114.222 226.529 114.362 226.109 114.642C225.703 114.908 225.381 115.279 225.143 115.755C224.905 116.231 224.786 116.784 224.786 117.414C224.786 118.058 224.905 118.625 225.143 119.115C225.381 119.591 225.703 119.962 226.109 120.228C226.529 120.494 227.012 120.627 227.558 120.627ZM236.281 123V107.46H239.263V123H236.281Z" fill="black"/>
<path d="M86.176 142V133.6H87.472V140.752H91.408V142H86.176ZM95.7532 142.12C95.1052 142.12 94.5292 141.984 94.0252 141.712C93.5292 141.432 93.1372 141.052 92.8492 140.572C92.5692 140.092 92.4292 139.54 92.4292 138.916C92.4292 138.42 92.5092 137.968 92.6692 137.56C92.8292 137.152 93.0492 136.8 93.3292 136.504C93.6172 136.2 93.9572 135.968 94.3492 135.808C94.7492 135.64 95.1812 135.556 95.6452 135.556C96.0532 135.556 96.4332 135.636 96.7852 135.796C97.1372 135.948 97.4412 136.16 97.6972 136.432C97.9612 136.704 98.1612 137.028 98.2972 137.404C98.4412 137.772 98.5092 138.176 98.5012 138.616L98.4892 139.144H93.3412L93.0652 138.16H97.4212L97.2412 138.364V138.076C97.2172 137.812 97.1292 137.576 96.9772 137.368C96.8252 137.16 96.6332 136.996 96.4012 136.876C96.1692 136.756 95.9172 136.696 95.6452 136.696C95.2132 136.696 94.8492 136.78 94.5532 136.948C94.2572 137.108 94.0332 137.348 93.8812 137.668C93.7292 137.98 93.6532 138.368 93.6532 138.832C93.6532 139.272 93.7452 139.656 93.9292 139.984C94.1132 140.304 94.3732 140.552 94.7092 140.728C95.0452 140.904 95.4332 140.992 95.8732 140.992C96.1852 140.992 96.4732 140.94 96.7372 140.836C97.0092 140.732 97.3012 140.544 97.6132 140.272L98.2372 141.148C98.0452 141.34 97.8092 141.508 97.5292 141.652C97.2572 141.796 96.9652 141.912 96.6532 142C96.3492 142.08 96.0492 142.12 95.7532 142.12ZM102.268 142.12C101.748 142.12 101.272 141.976 100.84 141.688C100.416 141.4 100.076 141.008 99.8205 140.512C99.5645 140.016 99.4365 139.456 99.4365 138.832C99.4365 138.2 99.5645 137.64 99.8205 137.152C100.084 136.656 100.436 136.268 100.876 135.988C101.324 135.708 101.824 135.568 102.376 135.568C102.704 135.568 103.004 135.616 103.276 135.712C103.548 135.808 103.784 135.944 103.984 136.12C104.192 136.288 104.36 136.484 104.488 136.708C104.624 136.932 104.708 137.172 104.74 137.428L104.464 137.332V135.7H105.712V142H104.464V140.5L104.752 140.416C104.704 140.632 104.604 140.844 104.452 141.052C104.308 141.252 104.12 141.432 103.888 141.592C103.664 141.752 103.412 141.88 103.132 141.976C102.86 142.072 102.572 142.12 102.268 142.12ZM102.592 140.98C102.968 140.98 103.3 140.888 103.588 140.704C103.876 140.52 104.1 140.268 104.26 139.948C104.428 139.62 104.512 139.248 104.512 138.832C104.512 138.424 104.428 138.06 104.26 137.74C104.1 137.42 103.876 137.168 103.588 136.984C103.3 136.8 102.968 136.708 102.592 136.708C102.224 136.708 101.896 136.8 101.608 136.984C101.328 137.168 101.104 137.42 100.936 137.74C100.776 138.06 100.696 138.424 100.696 138.832C100.696 139.248 100.776 139.62 100.936 139.948C101.104 140.268 101.328 140.52 101.608 140.704C101.896 140.888 102.224 140.98 102.592 140.98ZM109.538 142.12C109.01 142.12 108.534 142.028 108.11 141.844C107.686 141.66 107.334 141.388 107.054 141.028L107.894 140.308C108.134 140.588 108.394 140.792 108.674 140.92C108.962 141.04 109.286 141.1 109.646 141.1C109.79 141.1 109.922 141.084 110.042 141.052C110.17 141.012 110.278 140.956 110.366 140.884C110.462 140.812 110.534 140.728 110.582 140.632C110.63 140.528 110.654 140.416 110.654 140.296C110.654 140.088 110.578 139.92 110.426 139.792C110.346 139.736 110.218 139.676 110.042 139.612C109.874 139.54 109.654 139.468 109.382 139.396C108.918 139.276 108.538 139.14 108.242 138.988C107.946 138.836 107.718 138.664 107.558 138.472C107.438 138.32 107.35 138.156 107.294 137.98C107.238 137.796 107.21 137.596 107.21 137.38C107.21 137.116 107.266 136.876 107.378 136.66C107.498 136.436 107.658 136.244 107.858 136.084C108.066 135.916 108.306 135.788 108.578 135.7C108.858 135.612 109.154 135.568 109.466 135.568C109.762 135.568 110.054 135.608 110.342 135.688C110.638 135.768 110.91 135.884 111.158 136.036C111.406 136.188 111.614 136.368 111.782 136.576L111.074 137.356C110.922 137.204 110.754 137.072 110.57 136.96C110.394 136.84 110.214 136.748 110.03 136.684C109.846 136.62 109.678 136.588 109.526 136.588C109.358 136.588 109.206 136.604 109.07 136.636C108.934 136.668 108.818 136.716 108.722 136.78C108.634 136.844 108.566 136.924 108.518 137.02C108.47 137.116 108.446 137.224 108.446 137.344C108.454 137.448 108.478 137.548 108.518 137.644C108.566 137.732 108.63 137.808 108.71 137.872C108.798 137.936 108.93 138.004 109.106 138.076C109.282 138.148 109.506 138.216 109.778 138.28C110.178 138.384 110.506 138.5 110.762 138.628C111.026 138.748 111.234 138.888 111.386 139.048C111.546 139.2 111.658 139.376 111.722 139.576C111.786 139.776 111.818 140 111.818 140.248C111.818 140.608 111.714 140.932 111.506 141.22C111.306 141.5 111.034 141.72 110.69 141.88C110.346 142.04 109.962 142.12 109.538 142.12ZM116.12 142.12C115.472 142.12 114.896 141.984 114.392 141.712C113.896 141.432 113.504 141.052 113.216 140.572C112.936 140.092 112.796 139.54 112.796 138.916C112.796 138.42 112.876 137.968 113.036 137.56C113.196 137.152 113.416 136.8 113.696 136.504C113.984 136.2 114.324 135.968 114.716 135.808C115.116 135.64 115.548 135.556 116.012 135.556C116.42 135.556 116.8 135.636 117.152 135.796C117.504 135.948 117.808 136.16 118.064 136.432C118.328 136.704 118.528 137.028 118.664 137.404C118.808 137.772 118.876 138.176 118.868 138.616L118.856 139.144H113.708L113.432 138.16H117.788L117.608 138.364V138.076C117.584 137.812 117.496 137.576 117.344 137.368C117.192 137.16 117 136.996 116.768 136.876C116.536 136.756 116.284 136.696 116.012 136.696C115.58 136.696 115.216 136.78 114.92 136.948C114.624 137.108 114.4 137.348 114.248 137.668C114.096 137.98 114.02 138.368 114.02 138.832C114.02 139.272 114.112 139.656 114.296 139.984C114.48 140.304 114.74 140.552 115.076 140.728C115.412 140.904 115.8 140.992 116.24 140.992C116.552 140.992 116.84 140.94 117.104 140.836C117.376 140.732 117.668 140.544 117.98 140.272L118.604 141.148C118.412 141.34 118.176 141.508 117.896 141.652C117.624 141.796 117.332 141.912 117.02 142C116.716 142.08 116.416 142.12 116.12 142.12ZM123.887 142V133.6H127.463C127.943 133.6 128.383 133.72 128.783 133.96C129.191 134.192 129.515 134.512 129.755 134.92C129.995 135.32 130.115 135.772 130.115 136.276C130.115 136.732 129.995 137.156 129.755 137.548C129.515 137.94 129.195 138.256 128.795 138.496C128.395 138.728 127.951 138.844 127.463 138.844H125.183V142H123.887ZM128.879 142L126.743 138.208L128.075 137.908L130.451 142.012L128.879 142ZM125.183 137.596H127.583C127.815 137.596 128.023 137.54 128.207 137.428C128.391 137.308 128.535 137.148 128.639 136.948C128.743 136.74 128.795 136.512 128.795 136.264C128.795 135.984 128.727 135.74 128.591 135.532C128.463 135.316 128.279 135.148 128.039 135.028C127.807 134.908 127.543 134.848 127.247 134.848H125.183V137.596ZM134.624 142.12C133.976 142.12 133.4 141.984 132.896 141.712C132.4 141.432 132.008 141.052 131.72 140.572C131.44 140.092 131.3 139.54 131.3 138.916C131.3 138.42 131.38 137.968 131.54 137.56C131.7 137.152 131.92 136.8 132.2 136.504C132.488 136.2 132.828 135.968 133.22 135.808C133.62 135.64 134.052 135.556 134.516 135.556C134.924 135.556 135.304 135.636 135.656 135.796C136.008 135.948 136.312 136.16 136.568 136.432C136.832 136.704 137.032 137.028 137.168 137.404C137.312 137.772 137.38 138.176 137.372 138.616L137.36 139.144H132.212L131.936 138.16H136.292L136.112 138.364V138.076C136.088 137.812 136 137.576 135.848 137.368C135.696 137.16 135.504 136.996 135.272 136.876C135.04 136.756 134.788 136.696 134.516 136.696C134.084 136.696 133.72 136.78 133.424 136.948C133.128 137.108 132.904 137.348 132.752 137.668C132.6 137.98 132.524 138.368 132.524 138.832C132.524 139.272 132.616 139.656 132.8 139.984C132.984 140.304 133.244 140.552 133.58 140.728C133.916 140.904 134.304 140.992 134.744 140.992C135.056 140.992 135.344 140.94 135.608 140.836C135.88 140.732 136.172 140.544 136.484 140.272L137.108 141.148C136.916 141.34 136.68 141.508 136.4 141.652C136.128 141.796 135.836 141.912 135.524 142C135.22 142.08 134.92 142.12 134.624 142.12ZM138.716 142V135.7H139.952V136.996L139.736 137.14C139.816 136.86 139.972 136.604 140.204 136.372C140.436 136.132 140.712 135.94 141.032 135.796C141.352 135.644 141.68 135.568 142.016 135.568C142.496 135.568 142.896 135.664 143.216 135.856C143.536 136.04 143.776 136.324 143.936 136.708C144.096 137.092 144.176 137.576 144.176 138.16V142H142.94V138.244C142.94 137.884 142.892 137.588 142.796 137.356C142.7 137.116 142.552 136.944 142.352 136.84C142.152 136.728 141.904 136.68 141.608 136.696C141.368 136.696 141.148 136.736 140.948 136.816C140.748 136.888 140.572 136.992 140.42 137.128C140.276 137.264 140.16 137.424 140.072 137.608C139.992 137.784 139.952 137.976 139.952 138.184V142H139.34C139.236 142 139.132 142 139.028 142C138.924 142 138.82 142 138.716 142ZM148.792 142.12C148.144 142.12 147.568 141.984 147.064 141.712C146.568 141.432 146.176 141.052 145.888 140.572C145.608 140.092 145.468 139.54 145.468 138.916C145.468 138.42 145.548 137.968 145.708 137.56C145.868 137.152 146.088 136.8 146.368 136.504C146.656 136.2 146.996 135.968 147.388 135.808C147.788 135.64 148.22 135.556 148.684 135.556C149.092 135.556 149.472 135.636 149.824 135.796C150.176 135.948 150.48 136.16 150.736 136.432C151 136.704 151.2 137.028 151.336 137.404C151.48 137.772 151.548 138.176 151.54 138.616L151.528 139.144H146.38L146.104 138.16H150.46L150.28 138.364V138.076C150.256 137.812 150.168 137.576 150.016 137.368C149.864 137.16 149.672 136.996 149.44 136.876C149.208 136.756 148.956 136.696 148.684 136.696C148.252 136.696 147.888 136.78 147.592 136.948C147.296 137.108 147.072 137.348 146.92 137.668C146.768 137.98 146.692 138.368 146.692 138.832C146.692 139.272 146.784 139.656 146.968 139.984C147.152 140.304 147.412 140.552 147.748 140.728C148.084 140.904 148.472 140.992 148.912 140.992C149.224 140.992 149.512 140.94 149.776 140.836C150.048 140.732 150.34 140.544 150.652 140.272L151.276 141.148C151.084 141.34 150.848 141.508 150.568 141.652C150.296 141.796 150.004 141.912 149.692 142C149.388 142.08 149.088 142.12 148.792 142.12ZM154.314 142L152.166 135.7L153.414 135.688L154.95 140.404L154.674 140.38L156.342 136.696H157.086L158.766 140.392L158.442 140.416L159.99 135.7H161.238L159.114 142H158.262L156.51 137.992L156.786 138.028L155.154 142H154.314ZM164.612 142.12C164.092 142.12 163.616 141.976 163.184 141.688C162.76 141.4 162.42 141.008 162.164 140.512C161.908 140.016 161.78 139.456 161.78 138.832C161.78 138.2 161.908 137.64 162.164 137.152C162.428 136.656 162.78 136.268 163.22 135.988C163.668 135.708 164.168 135.568 164.72 135.568C165.048 135.568 165.348 135.616 165.62 135.712C165.892 135.808 166.128 135.944 166.328 136.12C166.536 136.288 166.704 136.484 166.832 136.708C166.968 136.932 167.052 137.172 167.084 137.428L166.808 137.332V135.7H168.056V142H166.808V140.5L167.096 140.416C167.048 140.632 166.948 140.844 166.796 141.052C166.652 141.252 166.464 141.432 166.232 141.592C166.008 141.752 165.756 141.88 165.476 141.976C165.204 142.072 164.916 142.12 164.612 142.12ZM164.936 140.98C165.312 140.98 165.644 140.888 165.932 140.704C166.22 140.52 166.444 140.268 166.604 139.948C166.772 139.62 166.856 139.248 166.856 138.832C166.856 138.424 166.772 138.06 166.604 137.74C166.444 137.42 166.22 137.168 165.932 136.984C165.644 136.8 165.312 136.708 164.936 136.708C164.568 136.708 164.24 136.8 163.952 136.984C163.672 137.168 163.448 137.42 163.28 137.74C163.12 138.06 163.04 138.424 163.04 138.832C163.04 139.248 163.12 139.62 163.28 139.948C163.448 140.268 163.672 140.52 163.952 140.704C164.24 140.888 164.568 140.98 164.936 140.98ZM169.806 142V133.12H171.042V142H169.806ZM178.833 142.12C178.249 142.12 177.725 141.976 177.261 141.688C176.805 141.4 176.441 141.008 176.169 140.512C175.905 140.016 175.773 139.46 175.773 138.844C175.773 138.228 175.905 137.672 176.169 137.176C176.441 136.68 176.805 136.288 177.261 136C177.725 135.712 178.249 135.568 178.833 135.568C179.393 135.568 179.901 135.684 180.357 135.916C180.821 136.14 181.173 136.448 181.413 136.84L180.729 137.68C180.601 137.496 180.437 137.328 180.237 137.176C180.037 137.024 179.825 136.904 179.601 136.816C179.377 136.728 179.161 136.684 178.953 136.684C178.569 136.684 178.225 136.78 177.921 136.972C177.625 137.156 177.389 137.412 177.213 137.74C177.037 138.068 176.949 138.436 176.949 138.844C176.949 139.252 177.041 139.62 177.225 139.948C177.409 140.268 177.653 140.524 177.957 140.716C178.261 140.908 178.597 141.004 178.965 141.004C179.181 141.004 179.389 140.968 179.589 140.896C179.797 140.824 179.997 140.716 180.189 140.572C180.381 140.428 180.561 140.252 180.729 140.044L181.413 140.884C181.157 141.244 180.789 141.54 180.309 141.772C179.837 142.004 179.345 142.12 178.833 142.12ZM182.579 142V133.12H183.815V136.996L183.599 137.14C183.679 136.86 183.835 136.604 184.067 136.372C184.299 136.132 184.575 135.94 184.895 135.796C185.215 135.644 185.543 135.568 185.879 135.568C186.359 135.568 186.759 135.664 187.079 135.856C187.399 136.04 187.639 136.324 187.799 136.708C187.959 137.092 188.039 137.576 188.039 138.16V142H186.803V138.244C186.803 137.884 186.755 137.588 186.659 137.356C186.563 137.116 186.415 136.944 186.215 136.84C186.015 136.728 185.767 136.68 185.471 136.696C185.231 136.696 185.011 136.736 184.811 136.816C184.611 136.888 184.435 136.992 184.283 137.128C184.139 137.264 184.023 137.424 183.935 137.608C183.855 137.784 183.815 137.976 183.815 138.184V142H183.203C183.099 142 182.995 142 182.891 142C182.787 142 182.683 142 182.579 142ZM192.656 142.12C192.008 142.12 191.432 141.984 190.928 141.712C190.432 141.432 190.04 141.052 189.752 140.572C189.472 140.092 189.332 139.54 189.332 138.916C189.332 138.42 189.412 137.968 189.572 137.56C189.732 137.152 189.952 136.8 190.232 136.504C190.52 136.2 190.86 135.968 191.252 135.808C191.652 135.64 192.084 135.556 192.548 135.556C192.956 135.556 193.336 135.636 193.688 135.796C194.04 135.948 194.344 136.16 194.6 136.432C194.864 136.704 195.064 137.028 195.2 137.404C195.344 137.772 195.412 138.176 195.404 138.616L195.392 139.144H190.244L189.968 138.16H194.324L194.144 138.364V138.076C194.12 137.812 194.032 137.576 193.88 137.368C193.728 137.16 193.536 136.996 193.304 136.876C193.072 136.756 192.82 136.696 192.548 136.696C192.116 136.696 191.752 136.78 191.456 136.948C191.16 137.108 190.936 137.348 190.784 137.668C190.632 137.98 190.556 138.368 190.556 138.832C190.556 139.272 190.648 139.656 190.832 139.984C191.016 140.304 191.276 140.552 191.612 140.728C191.948 140.904 192.336 140.992 192.776 140.992C193.088 140.992 193.376 140.94 193.64 140.836C193.912 140.732 194.204 140.544 194.516 140.272L195.14 141.148C194.948 141.34 194.712 141.508 194.432 141.652C194.16 141.796 193.868 141.912 193.556 142C193.252 142.08 192.952 142.12 192.656 142.12ZM199.423 142.12C198.839 142.12 198.315 141.976 197.851 141.688C197.395 141.4 197.031 141.008 196.759 140.512C196.495 140.016 196.363 139.46 196.363 138.844C196.363 138.228 196.495 137.672 196.759 137.176C197.031 136.68 197.395 136.288 197.851 136C198.315 135.712 198.839 135.568 199.423 135.568C199.983 135.568 200.491 135.684 200.947 135.916C201.411 136.14 201.763 136.448 202.003 136.84L201.319 137.68C201.191 137.496 201.027 137.328 200.827 137.176C200.627 137.024 200.415 136.904 200.191 136.816C199.967 136.728 199.751 136.684 199.543 136.684C199.159 136.684 198.815 136.78 198.511 136.972C198.215 137.156 197.979 137.412 197.803 137.74C197.627 138.068 197.539 138.436 197.539 138.844C197.539 139.252 197.631 139.62 197.815 139.948C197.999 140.268 198.243 140.524 198.547 140.716C198.851 140.908 199.187 141.004 199.555 141.004C199.771 141.004 199.979 140.968 200.179 140.896C200.387 140.824 200.587 140.716 200.779 140.572C200.971 140.428 201.151 140.252 201.319 140.044L202.003 140.884C201.747 141.244 201.379 141.54 200.899 141.772C200.427 142.004 199.935 142.12 199.423 142.12ZM204.297 140.032L204.237 138.688L207.249 135.7H208.917L204.297 140.032ZM203.169 142V133.12H204.405V142H203.169ZM207.417 142L205.041 139.228L205.917 138.424L209.001 142H207.417ZM209.954 142V133.12H211.19V142H209.954ZM213.146 142V135.7H214.382V142H213.146ZM213.746 134.308C213.482 134.308 213.278 134.24 213.134 134.104C212.99 133.968 212.918 133.776 212.918 133.528C212.918 133.296 212.99 133.108 213.134 132.964C213.286 132.82 213.49 132.748 213.746 132.748C214.01 132.748 214.214 132.816 214.358 132.952C214.502 133.088 214.574 133.28 214.574 133.528C214.574 133.76 214.498 133.948 214.346 134.092C214.202 134.236 214.002 134.308 213.746 134.308ZM218.382 142.12C217.854 142.12 217.378 142.028 216.954 141.844C216.53 141.66 216.178 141.388 215.898 141.028L216.738 140.308C216.978 140.588 217.238 140.792 217.518 140.92C217.806 141.04 218.13 141.1 218.49 141.1C218.634 141.1 218.766 141.084 218.886 141.052C219.014 141.012 219.122 140.956 219.21 140.884C219.306 140.812 219.378 140.728 219.426 140.632C219.474 140.528 219.498 140.416 219.498 140.296C219.498 140.088 219.422 139.92 219.27 139.792C219.19 139.736 219.062 139.676 218.886 139.612C218.718 139.54 218.498 139.468 218.226 139.396C217.762 139.276 217.382 139.14 217.086 138.988C216.79 138.836 216.562 138.664 216.402 138.472C216.282 138.32 216.194 138.156 216.138 137.98C216.082 137.796 216.054 137.596 216.054 137.38C216.054 137.116 216.11 136.876 216.222 136.66C216.342 136.436 216.502 136.244 216.702 136.084C216.91 135.916 217.15 135.788 217.422 135.7C217.702 135.612 217.998 135.568 218.31 135.568C218.606 135.568 218.898 135.608 219.186 135.688C219.482 135.768 219.754 135.884 220.002 136.036C220.25 136.188 220.458 136.368 220.626 136.576L219.918 137.356C219.766 137.204 219.598 137.072 219.414 136.96C219.238 136.84 219.058 136.748 218.874 136.684C218.69 136.62 218.522 136.588 218.37 136.588C218.202 136.588 218.05 136.604 217.914 136.636C217.778 136.668 217.662 136.716 217.566 136.78C217.478 136.844 217.41 136.924 217.362 137.02C217.314 137.116 217.29 137.224 217.29 137.344C217.298 137.448 217.322 137.548 217.362 137.644C217.41 137.732 217.474 137.808 217.554 137.872C217.642 137.936 217.774 138.004 217.95 138.076C218.126 138.148 218.35 138.216 218.622 138.28C219.022 138.384 219.35 138.5 219.606 138.628C219.87 138.748 220.078 138.888 220.23 139.048C220.39 139.2 220.502 139.376 220.566 139.576C220.63 139.776 220.662 140 220.662 140.248C220.662 140.608 220.558 140.932 220.35 141.22C220.15 141.5 219.878 141.72 219.534 141.88C219.19 142.04 218.806 142.12 218.382 142.12ZM222.804 142V134.092H224.04V142H222.804ZM221.496 136.9V135.7H225.504V136.9H221.496Z" fill="#A5A5A5"/>
<path d="M103.816 180V175.488L104.016 175.536L102.176 177.784L102.144 177.688H105.624V178.48H101.608L101.24 177.76L103.984 174.4H104.648V180H103.816ZM108.385 180.08C107.958 180.08 107.59 179.963 107.281 179.728C106.977 179.493 106.742 179.163 106.577 178.736C106.412 178.304 106.329 177.792 106.329 177.2C106.329 176.608 106.412 176.099 106.577 175.672C106.742 175.24 106.977 174.907 107.281 174.672C107.59 174.437 107.958 174.32 108.385 174.32C108.812 174.32 109.18 174.437 109.489 174.672C109.798 174.907 110.036 175.24 110.201 175.672C110.366 176.099 110.449 176.608 110.449 177.2C110.449 177.792 110.366 178.304 110.201 178.736C110.036 179.163 109.798 179.493 109.489 179.728C109.18 179.963 108.812 180.08 108.385 180.08ZM108.385 179.296C108.774 179.296 109.076 179.115 109.289 178.752C109.502 178.384 109.609 177.867 109.609 177.2C109.609 176.533 109.502 176.019 109.289 175.656C109.076 175.288 108.774 175.104 108.385 175.104C107.996 175.104 107.694 175.288 107.481 175.656C107.268 176.019 107.161 176.533 107.161 177.2C107.161 177.867 107.268 178.384 107.481 178.752C107.694 179.115 107.996 179.296 108.385 179.296ZM111.852 180L115.556 174.4H116.38L112.636 180H111.852ZM112.364 177.368C112.124 177.368 111.911 177.304 111.724 177.176C111.543 177.043 111.399 176.864 111.292 176.64C111.191 176.411 111.14 176.149 111.14 175.856C111.14 175.563 111.191 175.301 111.292 175.072C111.399 174.837 111.546 174.656 111.732 174.528C111.919 174.395 112.132 174.328 112.372 174.328C112.612 174.328 112.823 174.395 113.004 174.528C113.191 174.656 113.335 174.837 113.436 175.072C113.543 175.301 113.596 175.563 113.596 175.856C113.596 176.139 113.543 176.395 113.436 176.624C113.33 176.853 113.183 177.035 112.996 177.168C112.81 177.301 112.599 177.368 112.364 177.368ZM112.372 176.768C112.484 176.768 112.58 176.731 112.66 176.656C112.746 176.581 112.81 176.477 112.852 176.344C112.9 176.205 112.924 176.043 112.924 175.856C112.924 175.669 112.9 175.507 112.852 175.368C112.81 175.229 112.746 175.123 112.66 175.048C112.58 174.973 112.482 174.936 112.364 174.936C112.252 174.936 112.154 174.976 112.068 175.056C111.983 175.131 111.916 175.237 111.868 175.376C111.826 175.509 111.804 175.669 111.804 175.856C111.804 176.043 111.826 176.205 111.868 176.344C111.916 176.477 111.983 176.581 112.068 176.656C112.154 176.731 112.255 176.768 112.372 176.768ZM115.908 180.072C115.668 180.072 115.455 180.005 115.268 179.872C115.087 179.739 114.943 179.56 114.836 179.336C114.73 179.107 114.676 178.848 114.676 178.56C114.676 178.267 114.727 178.005 114.828 177.776C114.935 177.541 115.082 177.36 115.268 177.232C115.455 177.099 115.668 177.032 115.908 177.032C116.148 177.032 116.359 177.099 116.54 177.232C116.727 177.36 116.871 177.541 116.972 177.776C117.079 178.005 117.132 178.267 117.132 178.56C117.132 178.843 117.079 179.099 116.972 179.328C116.866 179.557 116.719 179.739 116.532 179.872C116.351 180.005 116.143 180.072 115.908 180.072ZM115.908 179.48C116.02 179.48 116.119 179.443 116.204 179.368C116.29 179.288 116.354 179.181 116.396 179.048C116.444 178.909 116.468 178.747 116.468 178.56C116.468 178.373 116.444 178.213 116.396 178.08C116.354 177.941 116.29 177.835 116.204 177.76C116.119 177.68 116.02 177.64 115.908 177.64C115.791 177.64 115.69 177.677 115.604 177.752C115.519 177.827 115.452 177.933 115.404 178.072C115.362 178.211 115.34 178.373 115.34 178.56C115.34 178.747 115.362 178.909 115.404 179.048C115.452 179.181 115.519 179.288 115.604 179.368C115.69 179.443 115.791 179.48 115.908 179.48ZM122.829 180.08C122.44 180.08 122.083 180.011 121.757 179.872C121.432 179.733 121.149 179.536 120.909 179.28C120.669 179.019 120.483 178.712 120.349 178.36C120.221 178.008 120.157 177.621 120.157 177.2C120.157 176.8 120.227 176.429 120.365 176.088C120.509 175.741 120.707 175.437 120.957 175.176C121.208 174.915 121.499 174.712 121.829 174.568C122.16 174.424 122.517 174.352 122.901 174.352C123.173 174.352 123.437 174.395 123.693 174.48C123.955 174.56 124.189 174.675 124.397 174.824C124.611 174.968 124.784 175.133 124.917 175.32L124.341 175.92C124.187 175.765 124.029 175.637 123.869 175.536C123.715 175.429 123.555 175.349 123.389 175.296C123.229 175.243 123.067 175.216 122.901 175.216C122.64 175.216 122.395 175.267 122.165 175.368C121.941 175.464 121.744 175.6 121.573 175.776C121.408 175.952 121.277 176.163 121.181 176.408C121.085 176.648 121.037 176.912 121.037 177.2C121.037 177.504 121.083 177.781 121.173 178.032C121.269 178.277 121.403 178.488 121.573 178.664C121.744 178.84 121.947 178.976 122.181 179.072C122.421 179.163 122.685 179.208 122.973 179.208C123.149 179.208 123.323 179.184 123.493 179.136C123.664 179.088 123.824 179.019 123.973 178.928C124.123 178.837 124.259 178.731 124.381 178.608L124.813 179.312C124.691 179.456 124.523 179.587 124.309 179.704C124.101 179.821 123.867 179.915 123.605 179.984C123.349 180.048 123.091 180.08 122.829 180.08ZM127.667 180.08C127.256 180.08 126.888 179.987 126.563 179.8C126.243 179.608 125.99 179.349 125.803 179.024C125.616 178.693 125.523 178.317 125.523 177.896C125.523 177.475 125.616 177.101 125.803 176.776C125.99 176.445 126.243 176.187 126.563 176C126.888 175.808 127.256 175.712 127.667 175.712C128.072 175.712 128.435 175.808 128.755 176C129.08 176.187 129.336 176.445 129.523 176.776C129.71 177.101 129.803 177.475 129.803 177.896C129.803 178.317 129.71 178.693 129.523 179.024C129.336 179.349 129.08 179.608 128.755 179.8C128.435 179.987 128.072 180.08 127.667 180.08ZM127.667 179.328C127.918 179.328 128.142 179.267 128.339 179.144C128.536 179.016 128.691 178.845 128.803 178.632C128.915 178.413 128.968 178.168 128.963 177.896C128.968 177.619 128.915 177.373 128.803 177.16C128.691 176.941 128.536 176.771 128.339 176.648C128.142 176.525 127.918 176.464 127.667 176.464C127.416 176.464 127.19 176.528 126.987 176.656C126.79 176.779 126.635 176.949 126.523 177.168C126.411 177.381 126.358 177.624 126.363 177.896C126.358 178.168 126.411 178.413 126.523 178.632C126.635 178.845 126.79 179.016 126.987 179.144C127.19 179.267 127.416 179.328 127.667 179.328ZM130.685 180V175.8H131.517V176.696L131.365 176.792C131.408 176.653 131.474 176.52 131.565 176.392C131.661 176.264 131.776 176.152 131.909 176.056C132.048 175.955 132.194 175.875 132.349 175.816C132.509 175.757 132.672 175.728 132.837 175.728C133.077 175.728 133.288 175.768 133.469 175.848C133.65 175.928 133.8 176.048 133.917 176.208C134.034 176.368 134.12 176.568 134.173 176.808L134.045 176.776L134.101 176.64C134.16 176.517 134.24 176.403 134.341 176.296C134.448 176.184 134.568 176.085 134.701 176C134.834 175.915 134.976 175.848 135.125 175.8C135.274 175.752 135.421 175.728 135.565 175.728C135.88 175.728 136.138 175.792 136.341 175.92C136.549 176.048 136.704 176.243 136.805 176.504C136.912 176.765 136.965 177.091 136.965 177.48V180H136.133V177.528C136.133 177.288 136.101 177.093 136.037 176.944C135.978 176.789 135.888 176.675 135.765 176.6C135.642 176.525 135.485 176.488 135.293 176.488C135.144 176.488 135.002 176.515 134.869 176.568C134.741 176.616 134.629 176.685 134.533 176.776C134.437 176.867 134.362 176.973 134.309 177.096C134.256 177.213 134.229 177.344 134.229 177.488V180H133.397V177.512C133.397 177.293 133.365 177.109 133.301 176.96C133.237 176.805 133.144 176.688 133.021 176.608C132.898 176.528 132.749 176.488 132.573 176.488C132.424 176.488 132.285 176.515 132.157 176.568C132.029 176.616 131.917 176.685 131.821 176.776C131.725 176.861 131.65 176.965 131.597 177.088C131.544 177.205 131.517 177.333 131.517 177.472V180H130.685ZM138.068 181.76V175.8H138.9V176.76L138.772 176.688C138.804 176.528 138.895 176.376 139.044 176.232C139.194 176.083 139.375 175.963 139.588 175.872C139.807 175.776 140.031 175.728 140.26 175.728C140.639 175.728 140.975 175.821 141.268 176.008C141.562 176.195 141.794 176.451 141.964 176.776C142.135 177.101 142.22 177.475 142.22 177.896C142.22 178.312 142.135 178.685 141.964 179.016C141.799 179.341 141.57 179.6 141.276 179.792C140.983 179.979 140.652 180.072 140.284 180.072C140.039 180.072 139.802 180.024 139.572 179.928C139.343 179.827 139.148 179.699 138.988 179.544C138.828 179.389 138.73 179.229 138.692 179.064L138.9 178.952V181.76H138.068ZM140.148 179.312C140.394 179.312 140.612 179.251 140.804 179.128C140.996 179.005 141.148 178.837 141.26 178.624C141.372 178.411 141.428 178.168 141.428 177.896C141.428 177.624 141.372 177.384 141.26 177.176C141.154 176.963 141.004 176.795 140.812 176.672C140.62 176.549 140.399 176.488 140.148 176.488C139.898 176.488 139.676 176.549 139.484 176.672C139.292 176.789 139.14 176.955 139.028 177.168C138.916 177.381 138.86 177.624 138.86 177.896C138.86 178.168 138.916 178.411 139.028 178.624C139.14 178.837 139.292 179.005 139.484 179.128C139.676 179.251 139.898 179.312 140.148 179.312ZM143.131 180V174.08H143.955V180H143.131ZM147.005 180.08C146.573 180.08 146.189 179.989 145.853 179.808C145.522 179.621 145.261 179.368 145.069 179.048C144.882 178.728 144.789 178.36 144.789 177.944C144.789 177.613 144.842 177.312 144.949 177.04C145.055 176.768 145.202 176.533 145.389 176.336C145.581 176.133 145.807 175.979 146.069 175.872C146.335 175.76 146.623 175.704 146.933 175.704C147.205 175.704 147.458 175.757 147.693 175.864C147.927 175.965 148.13 176.107 148.301 176.288C148.477 176.469 148.61 176.685 148.701 176.936C148.797 177.181 148.842 177.451 148.837 177.744L148.829 178.096H145.397L145.213 177.44H148.117L147.997 177.576V177.384C147.981 177.208 147.922 177.051 147.821 176.912C147.719 176.773 147.591 176.664 147.437 176.584C147.282 176.504 147.114 176.464 146.933 176.464C146.645 176.464 146.402 176.52 146.205 176.632C146.007 176.739 145.858 176.899 145.757 177.112C145.655 177.32 145.605 177.579 145.605 177.888C145.605 178.181 145.666 178.437 145.789 178.656C145.911 178.869 146.085 179.035 146.309 179.152C146.533 179.269 146.791 179.328 147.085 179.328C147.293 179.328 147.485 179.293 147.661 179.224C147.842 179.155 148.037 179.029 148.245 178.848L148.661 179.432C148.533 179.56 148.375 179.672 148.189 179.768C148.007 179.864 147.813 179.941 147.605 180C147.402 180.053 147.202 180.08 147.005 180.08ZM150.252 180V174.728H151.076V180H150.252ZM149.38 176.6V175.8H152.052V176.6H149.38ZM154.724 180.08C154.292 180.08 153.908 179.989 153.572 179.808C153.241 179.621 152.98 179.368 152.788 179.048C152.601 178.728 152.508 178.36 152.508 177.944C152.508 177.613 152.561 177.312 152.668 177.04C152.774 176.768 152.921 176.533 153.108 176.336C153.3 176.133 153.526 175.979 153.788 175.872C154.054 175.76 154.342 175.704 154.652 175.704C154.924 175.704 155.177 175.757 155.412 175.864C155.646 175.965 155.849 176.107 156.02 176.288C156.196 176.469 156.329 176.685 156.42 176.936C156.516 177.181 156.561 177.451 156.556 177.744L156.548 178.096H153.116L152.932 177.44H155.836L155.716 177.576V177.384C155.7 177.208 155.641 177.051 155.54 176.912C155.438 176.773 155.31 176.664 155.156 176.584C155.001 176.504 154.833 176.464 154.652 176.464C154.364 176.464 154.121 176.52 153.924 176.632C153.726 176.739 153.577 176.899 153.476 177.112C153.374 177.32 153.324 177.579 153.324 177.888C153.324 178.181 153.385 178.437 153.508 178.656C153.63 178.869 153.804 179.035 154.028 179.152C154.252 179.269 154.51 179.328 154.804 179.328C155.012 179.328 155.204 179.293 155.38 179.224C155.561 179.155 155.756 179.029 155.964 178.848L156.38 179.432C156.252 179.56 156.094 179.672 155.908 179.768C155.726 179.864 155.532 179.941 155.324 180C155.121 180.053 154.921 180.08 154.724 180.08ZM159.203 180.08C158.819 180.08 158.475 179.987 158.171 179.8C157.872 179.608 157.635 179.349 157.459 179.024C157.283 178.693 157.195 178.317 157.195 177.896C157.195 177.475 157.28 177.101 157.451 176.776C157.627 176.445 157.864 176.187 158.163 176C158.462 175.808 158.8 175.712 159.179 175.712C159.387 175.712 159.587 175.747 159.779 175.816C159.976 175.88 160.152 175.971 160.307 176.088C160.462 176.2 160.582 176.325 160.667 176.464C160.758 176.597 160.803 176.733 160.803 176.872L160.563 176.888V174.08H161.387V180H160.563V179H160.723C160.723 179.128 160.68 179.256 160.595 179.384C160.51 179.507 160.395 179.621 160.251 179.728C160.112 179.835 159.95 179.92 159.763 179.984C159.582 180.048 159.395 180.08 159.203 180.08ZM159.315 179.368C159.566 179.368 159.787 179.304 159.979 179.176C160.171 179.048 160.32 178.875 160.427 178.656C160.539 178.432 160.595 178.179 160.595 177.896C160.595 177.613 160.539 177.363 160.427 177.144C160.32 176.92 160.171 176.744 159.979 176.616C159.787 176.488 159.566 176.424 159.315 176.424C159.064 176.424 158.843 176.488 158.651 176.616C158.459 176.744 158.307 176.92 158.195 177.144C158.088 177.363 158.035 177.613 158.035 177.896C158.035 178.179 158.088 178.432 158.195 178.656C158.307 178.875 158.459 179.048 158.651 179.176C158.843 179.304 159.064 179.368 159.315 179.368Z" fill="#A5A5A5"/>
<circle cx="387" cy="116" r="13" fill="black"/>
<path d="M388.273 116L392.136 112.136C392.305 111.968 392.4 111.739 392.4 111.5C392.4 111.261 392.305 111.032 392.136 110.864C391.968 110.695 391.739 110.6 391.5 110.6C391.261 110.6 391.032 110.695 390.864 110.864L387 114.727L383.136 110.864C383.053 110.78 382.954 110.714 382.844 110.669C382.735 110.623 382.618 110.6 382.5 110.6C382.382 110.6 382.265 110.623 382.156 110.669C382.046 110.714 381.947 110.78 381.864 110.864C381.78 110.947 381.714 111.046 381.669 111.156C381.623 111.265 381.6 111.382 381.6 111.5C381.6 111.618 381.623 111.735 381.669 111.844C381.714 111.954 381.78 112.053 381.864 112.136L385.727 116L381.864 119.864C381.695 120.032 381.6 120.261 381.6 120.5C381.6 120.739 381.695 120.968 381.864 121.136C382.032 121.305 382.261 121.4 382.5 121.4C382.739 121.4 382.968 121.305 383.136 121.136L387 117.273L390.864 121.136C390.947 121.22 391.046 121.287 391.155 121.332C391.265 121.378 391.382 121.401 391.5 121.401C391.618 121.401 391.735 121.378 391.845 121.332C391.954 121.287 392.053 121.22 392.136 121.136C392.22 121.053 392.286 120.954 392.332 120.844C392.377 120.735 392.4 120.618 392.4 120.5C392.4 120.382 392.377 120.265 392.332 120.156C392.286 120.046 392.22 119.947 392.136 119.864L388.273 116Z" fill="white"/>
<rect x="85.5" y="382.5" width="207" height="61" rx="8.5" stroke="#C4C4C4" stroke-dasharray="7 7"/>
<rect x="302" y="382" width="98" height="62" rx="9" fill="#0900FF"/>
<circle cx="118.171" cy="345.096" r="14.135" fill="#E4E6EA" stroke="#CBCBCB" stroke-width="1.77"/>
<path d="M155.53 350.886V339.686H160.298C160.938 339.686 161.525 339.846 162.058 340.166C162.602 340.476 163.034 340.902 163.354 341.446C163.674 341.98 163.834 342.582 163.834 343.254C163.834 343.862 163.674 344.428 163.354 344.95C163.034 345.473 162.607 345.894 162.074 346.214C161.541 346.524 160.949 346.678 160.298 346.678H157.258V350.886H155.53ZM162.186 350.886L159.338 345.83L161.114 345.43L164.282 350.902L162.186 350.886ZM157.258 345.014H160.458C160.767 345.014 161.045 344.94 161.29 344.79C161.535 344.63 161.727 344.417 161.866 344.15C162.005 343.873 162.074 343.569 162.074 343.238C162.074 342.865 161.983 342.54 161.802 342.262C161.631 341.974 161.386 341.75 161.066 341.59C160.757 341.43 160.405 341.35 160.01 341.35H157.258V345.014ZM169.847 351.046C168.983 351.046 168.215 350.865 167.543 350.502C166.881 350.129 166.359 349.622 165.975 348.982C165.601 348.342 165.415 347.606 165.415 346.774C165.415 346.113 165.521 345.51 165.735 344.966C165.948 344.422 166.241 343.953 166.615 343.558C166.999 343.153 167.452 342.844 167.975 342.63C168.508 342.406 169.084 342.294 169.703 342.294C170.247 342.294 170.753 342.401 171.223 342.614C171.692 342.817 172.097 343.1 172.439 343.462C172.791 343.825 173.057 344.257 173.239 344.758C173.431 345.249 173.521 345.788 173.511 346.374L173.495 347.078H166.631L166.263 345.766H172.071L171.831 346.038V345.654C171.799 345.302 171.681 344.988 171.479 344.71C171.276 344.433 171.02 344.214 170.711 344.054C170.401 343.894 170.065 343.814 169.703 343.814C169.127 343.814 168.641 343.926 168.247 344.15C167.852 344.364 167.553 344.684 167.351 345.11C167.148 345.526 167.047 346.044 167.047 346.662C167.047 347.249 167.169 347.761 167.415 348.198C167.66 348.625 168.007 348.956 168.455 349.19C168.903 349.425 169.42 349.542 170.007 349.542C170.423 349.542 170.807 349.473 171.159 349.334C171.521 349.196 171.911 348.945 172.327 348.582L173.159 349.75C172.903 350.006 172.588 350.23 172.215 350.422C171.852 350.614 171.463 350.769 171.047 350.886C170.641 350.993 170.241 351.046 169.847 351.046ZM175.302 354.406V342.486H176.966V344.406L176.71 344.262C176.774 343.942 176.955 343.638 177.254 343.35C177.552 343.052 177.915 342.812 178.342 342.63C178.779 342.438 179.227 342.342 179.686 342.342C180.443 342.342 181.115 342.529 181.702 342.902C182.288 343.276 182.752 343.788 183.094 344.438C183.435 345.089 183.606 345.836 183.606 346.678C183.606 347.51 183.435 348.257 183.094 348.918C182.763 349.569 182.304 350.086 181.718 350.47C181.131 350.844 180.47 351.03 179.734 351.03C179.243 351.03 178.768 350.934 178.31 350.742C177.851 350.54 177.462 350.284 177.142 349.974C176.822 349.665 176.624 349.345 176.55 349.014L176.966 348.79V354.406H175.302ZM179.462 349.51C179.952 349.51 180.39 349.388 180.774 349.142C181.158 348.897 181.462 348.561 181.686 348.134C181.91 347.708 182.022 347.222 182.022 346.678C182.022 346.134 181.91 345.654 181.686 345.238C181.472 344.812 181.174 344.476 180.79 344.23C180.406 343.985 179.963 343.862 179.462 343.862C178.96 343.862 178.518 343.985 178.134 344.23C177.75 344.465 177.446 344.796 177.222 345.222C176.998 345.649 176.886 346.134 176.886 346.678C176.886 347.222 176.998 347.708 177.222 348.134C177.446 348.561 177.75 348.897 178.134 349.142C178.518 349.388 178.96 349.51 179.462 349.51ZM188.627 351.046C187.934 351.046 187.299 350.854 186.723 350.47C186.158 350.086 185.705 349.564 185.363 348.902C185.022 348.241 184.851 347.494 184.851 346.662C184.851 345.82 185.022 345.073 185.363 344.422C185.715 343.761 186.185 343.244 186.771 342.87C187.369 342.497 188.035 342.31 188.771 342.31C189.209 342.31 189.609 342.374 189.971 342.502C190.334 342.63 190.649 342.812 190.915 343.046C191.193 343.27 191.417 343.532 191.587 343.83C191.769 344.129 191.881 344.449 191.923 344.79L191.555 344.662V342.486H193.219V350.886H191.555V348.886L191.939 348.774C191.875 349.062 191.742 349.345 191.539 349.622C191.347 349.889 191.097 350.129 190.787 350.342C190.489 350.556 190.153 350.726 189.779 350.854C189.417 350.982 189.033 351.046 188.627 351.046ZM189.059 349.526C189.561 349.526 190.003 349.404 190.387 349.158C190.771 348.913 191.07 348.577 191.283 348.15C191.507 347.713 191.619 347.217 191.619 346.662C191.619 346.118 191.507 345.633 191.283 345.206C191.07 344.78 190.771 344.444 190.387 344.198C190.003 343.953 189.561 343.83 189.059 343.83C188.569 343.83 188.131 343.953 187.747 344.198C187.374 344.444 187.075 344.78 186.851 345.206C186.638 345.633 186.531 346.118 186.531 346.662C186.531 347.217 186.638 347.713 186.851 348.15C187.075 348.577 187.374 348.913 187.747 349.158C188.131 349.404 188.569 349.526 189.059 349.526ZM195.792 350.886V342.486H197.44V350.886H195.792ZM196.592 340.63C196.24 340.63 195.968 340.54 195.776 340.358C195.584 340.177 195.488 339.921 195.488 339.59C195.488 339.281 195.584 339.03 195.776 338.838C195.979 338.646 196.251 338.55 196.592 338.55C196.944 338.55 197.216 338.641 197.408 338.822C197.6 339.004 197.696 339.26 197.696 339.59C197.696 339.9 197.595 340.15 197.392 340.342C197.2 340.534 196.934 340.63 196.592 340.63ZM199.974 350.886V342.486H201.638V345.126L201.478 344.486C201.595 344.081 201.792 343.713 202.07 343.382C202.358 343.052 202.683 342.79 203.046 342.598C203.419 342.406 203.803 342.31 204.198 342.31C204.379 342.31 204.55 342.326 204.71 342.358C204.88 342.39 205.014 342.428 205.11 342.47L204.678 344.262C204.55 344.209 204.406 344.166 204.246 344.134C204.096 344.092 203.947 344.07 203.798 344.07C203.51 344.07 203.232 344.129 202.966 344.246C202.71 344.353 202.48 344.508 202.278 344.71C202.086 344.902 201.931 345.132 201.814 345.398C201.696 345.654 201.638 345.937 201.638 346.246V350.886H199.974ZM209.227 351.046C208.523 351.046 207.888 350.924 207.323 350.678C206.757 350.433 206.288 350.07 205.915 349.59L207.035 348.63C207.355 349.004 207.701 349.276 208.075 349.446C208.459 349.606 208.891 349.686 209.371 349.686C209.563 349.686 209.739 349.665 209.899 349.622C210.069 349.569 210.213 349.494 210.331 349.398C210.459 349.302 210.555 349.19 210.619 349.062C210.683 348.924 210.715 348.774 210.715 348.614C210.715 348.337 210.613 348.113 210.411 347.942C210.304 347.868 210.133 347.788 209.899 347.702C209.675 347.606 209.381 347.51 209.019 347.414C208.4 347.254 207.893 347.073 207.499 346.87C207.104 346.668 206.8 346.438 206.587 346.182C206.427 345.98 206.309 345.761 206.235 345.526C206.16 345.281 206.123 345.014 206.123 344.726C206.123 344.374 206.197 344.054 206.347 343.766C206.507 343.468 206.72 343.212 206.987 342.998C207.264 342.774 207.584 342.604 207.947 342.486C208.32 342.369 208.715 342.31 209.131 342.31C209.525 342.31 209.915 342.364 210.299 342.47C210.693 342.577 211.056 342.732 211.387 342.934C211.717 343.137 211.995 343.377 212.219 343.654L211.275 344.694C211.072 344.492 210.848 344.316 210.603 344.166C210.368 344.006 210.128 343.884 209.883 343.798C209.637 343.713 209.413 343.67 209.211 343.67C208.987 343.67 208.784 343.692 208.603 343.734C208.421 343.777 208.267 343.841 208.139 343.926C208.021 344.012 207.931 344.118 207.867 344.246C207.803 344.374 207.771 344.518 207.771 344.678C207.781 344.817 207.813 344.95 207.867 345.078C207.931 345.196 208.016 345.297 208.123 345.382C208.24 345.468 208.416 345.558 208.651 345.654C208.885 345.75 209.184 345.841 209.547 345.926C210.08 346.065 210.517 346.22 210.859 346.39C211.211 346.55 211.488 346.737 211.691 346.95C211.904 347.153 212.053 347.388 212.139 347.654C212.224 347.921 212.267 348.22 212.267 348.55C212.267 349.03 212.128 349.462 211.851 349.846C211.584 350.22 211.221 350.513 210.763 350.726C210.304 350.94 209.792 351.046 209.227 351.046Z" fill="#3B3B3B"/>
<path d="M118.359 350.981C117.569 350.981 116.881 350.8 116.295 350.437C115.719 350.074 115.175 349.466 114.663 348.613L116.007 347.765C116.273 348.16 116.535 348.485 116.791 348.741C117.057 348.986 117.329 349.168 117.607 349.285C117.884 349.402 118.177 349.461 118.487 349.461C118.86 349.461 119.207 349.37 119.527 349.189C119.847 348.997 120.103 348.736 120.295 348.405C120.487 348.074 120.583 347.701 120.583 347.285C120.583 346.869 120.508 346.517 120.359 346.229C120.209 345.93 119.991 345.706 119.703 345.557C119.415 345.397 119.073 345.317 118.679 345.317C118.497 345.317 118.305 345.338 118.103 345.381C117.911 345.413 117.703 345.466 117.479 345.541C117.255 345.605 117.009 345.69 116.743 345.797L116.263 344.533L119.719 340.725L120.055 341.221H115.287V339.621H121.703L122.023 340.261L118.359 344.325L117.959 343.909C118.044 343.866 118.183 343.829 118.375 343.797C118.577 343.754 118.743 343.733 118.871 343.733C119.34 343.733 119.777 343.824 120.183 344.005C120.599 344.176 120.956 344.421 121.255 344.741C121.564 345.05 121.804 345.418 121.975 345.845C122.156 346.261 122.247 346.709 122.247 347.189C122.247 347.914 122.071 348.565 121.719 349.141C121.377 349.706 120.913 350.154 120.327 350.485C119.74 350.816 119.084 350.981 118.359 350.981Z" fill="#3B3B3B"/>
<path d="M101.375 419L105.44 408.5H107.09L111.125 419H109.4L107 412.67C106.97 412.6 106.91 412.43 106.82 412.16C106.74 411.89 106.645 411.59 106.535 411.26C106.425 410.93 106.325 410.63 106.235 410.36C106.145 410.08 106.085 409.9 106.055 409.82L106.4 409.805C106.34 409.975 106.265 410.19 106.175 410.45C106.095 410.71 106.005 410.985 105.905 411.275C105.815 411.565 105.725 411.84 105.635 412.1C105.545 412.35 105.47 412.56 105.41 412.73L103.025 419H101.375ZM103.175 416.39L103.775 414.83H108.545L109.235 416.39H103.175ZM115.575 419.15C114.855 419.15 114.21 418.975 113.64 418.625C113.08 418.265 112.635 417.78 112.305 417.17C111.975 416.55 111.81 415.845 111.81 415.055C111.81 414.265 111.97 413.565 112.29 412.955C112.62 412.335 113.065 411.85 113.625 411.5C114.185 411.14 114.82 410.96 115.53 410.96C115.92 410.96 116.295 411.025 116.655 411.155C117.025 411.275 117.355 411.445 117.645 411.665C117.935 411.875 118.16 412.11 118.32 412.37C118.49 412.62 118.575 412.875 118.575 413.135L118.125 413.165V407.9H119.67V419H118.125V417.125H118.425C118.425 417.365 118.345 417.605 118.185 417.845C118.025 418.075 117.81 418.29 117.54 418.49C117.28 418.69 116.975 418.85 116.625 418.97C116.285 419.09 115.935 419.15 115.575 419.15ZM115.785 417.815C116.255 417.815 116.67 417.695 117.03 417.455C117.39 417.215 117.67 416.89 117.87 416.48C118.08 416.06 118.185 415.585 118.185 415.055C118.185 414.525 118.08 414.055 117.87 413.645C117.67 413.225 117.39 412.895 117.03 412.655C116.67 412.415 116.255 412.295 115.785 412.295C115.315 412.295 114.9 412.415 114.54 412.655C114.18 412.895 113.895 413.225 113.685 413.645C113.485 414.055 113.385 414.525 113.385 415.055C113.385 415.585 113.485 416.06 113.685 416.48C113.895 416.89 114.18 417.215 114.54 417.455C114.9 417.695 115.315 417.815 115.785 417.815ZM125.082 419.15C124.362 419.15 123.717 418.975 123.147 418.625C122.587 418.265 122.142 417.78 121.812 417.17C121.482 416.55 121.317 415.845 121.317 415.055C121.317 414.265 121.477 413.565 121.797 412.955C122.127 412.335 122.572 411.85 123.132 411.5C123.692 411.14 124.327 410.96 125.037 410.96C125.427 410.96 125.802 411.025 126.162 411.155C126.532 411.275 126.862 411.445 127.152 411.665C127.442 411.875 127.667 412.11 127.827 412.37C127.997 412.62 128.082 412.875 128.082 413.135L127.632 413.165V407.9H129.177V419H127.632V417.125H127.932C127.932 417.365 127.852 417.605 127.692 417.845C127.532 418.075 127.317 418.29 127.047 418.49C126.787 418.69 126.482 418.85 126.132 418.97C125.792 419.09 125.442 419.15 125.082 419.15ZM125.292 417.815C125.762 417.815 126.177 417.695 126.537 417.455C126.897 417.215 127.177 416.89 127.377 416.48C127.587 416.06 127.692 415.585 127.692 415.055C127.692 414.525 127.587 414.055 127.377 413.645C127.177 413.225 126.897 412.895 126.537 412.655C126.177 412.415 125.762 412.295 125.292 412.295C124.822 412.295 124.407 412.415 124.047 412.655C123.687 412.895 123.402 413.225 123.192 413.645C122.992 414.055 122.892 414.525 122.892 415.055C122.892 415.585 122.992 416.06 123.192 416.48C123.402 416.89 123.687 417.215 124.047 417.455C124.407 417.695 124.822 417.815 125.292 417.815ZM136.363 419V410.24C136.363 409.79 136.463 409.39 136.663 409.04C136.863 408.69 137.138 408.415 137.488 408.215C137.838 408.015 138.243 407.915 138.703 407.915C139.023 407.915 139.323 407.975 139.603 408.095C139.883 408.215 140.108 408.375 140.278 408.575L139.753 409.76C139.623 409.64 139.478 409.545 139.318 409.475C139.168 409.395 139.023 409.355 138.883 409.355C138.673 409.355 138.493 409.39 138.343 409.46C138.203 409.52 138.098 409.62 138.028 409.76C137.958 409.89 137.923 410.05 137.923 410.24V419H137.143C137.013 419 136.883 419 136.753 419C136.623 419 136.493 419 136.363 419ZM135.103 412.685V411.26H139.783V412.685H135.103ZM141.658 419V411.125H143.203V419H141.658ZM142.408 409.385C142.078 409.385 141.823 409.3 141.643 409.13C141.463 408.96 141.373 408.72 141.373 408.41C141.373 408.12 141.463 407.885 141.643 407.705C141.833 407.525 142.088 407.435 142.408 407.435C142.738 407.435 142.993 407.52 143.173 407.69C143.353 407.86 143.443 408.1 143.443 408.41C143.443 408.7 143.348 408.935 143.158 409.115C142.978 409.295 142.728 409.385 142.408 409.385ZM145.601 419V407.9H147.146V419H145.601ZM152.864 419.15C152.054 419.15 151.334 418.98 150.704 418.64C150.084 418.29 149.594 417.815 149.234 417.215C148.884 416.615 148.709 415.925 148.709 415.145C148.709 414.525 148.809 413.96 149.009 413.45C149.209 412.94 149.484 412.5 149.834 412.13C150.194 411.75 150.619 411.46 151.109 411.26C151.609 411.05 152.149 410.945 152.729 410.945C153.239 410.945 153.714 411.045 154.154 411.245C154.594 411.435 154.974 411.7 155.294 412.04C155.624 412.38 155.874 412.785 156.044 413.255C156.224 413.715 156.309 414.22 156.299 414.77L156.284 415.43H149.849L149.504 414.2H154.949L154.724 414.455V414.095C154.694 413.765 154.584 413.47 154.394 413.21C154.204 412.95 153.964 412.745 153.674 412.595C153.384 412.445 153.069 412.37 152.729 412.37C152.189 412.37 151.734 412.475 151.364 412.685C150.994 412.885 150.714 413.185 150.524 413.585C150.334 413.975 150.239 414.46 150.239 415.04C150.239 415.59 150.354 416.07 150.584 416.48C150.814 416.88 151.139 417.19 151.559 417.41C151.979 417.63 152.464 417.74 153.014 417.74C153.404 417.74 153.764 417.675 154.094 417.545C154.434 417.415 154.799 417.18 155.189 416.84L155.969 417.935C155.729 418.175 155.434 418.385 155.084 418.565C154.744 418.745 154.379 418.89 153.989 419C153.609 419.1 153.234 419.15 152.864 419.15ZM160.603 419.15C159.943 419.15 159.348 419.035 158.818 418.805C158.288 418.575 157.848 418.235 157.498 417.785L158.548 416.885C158.848 417.235 159.173 417.49 159.523 417.65C159.883 417.8 160.288 417.875 160.738 417.875C160.918 417.875 161.083 417.855 161.233 417.815C161.393 417.765 161.528 417.695 161.638 417.605C161.758 417.515 161.848 417.41 161.908 417.29C161.968 417.16 161.998 417.02 161.998 416.87C161.998 416.61 161.903 416.4 161.713 416.24C161.613 416.17 161.453 416.095 161.233 416.015C161.023 415.925 160.748 415.835 160.408 415.745C159.828 415.595 159.353 415.425 158.983 415.235C158.613 415.045 158.328 414.83 158.128 414.59C157.978 414.4 157.868 414.195 157.798 413.975C157.728 413.745 157.693 413.495 157.693 413.225C157.693 412.895 157.763 412.595 157.903 412.325C158.053 412.045 158.253 411.805 158.503 411.605C158.763 411.395 159.063 411.235 159.403 411.125C159.753 411.015 160.123 410.96 160.513 410.96C160.883 410.96 161.248 411.01 161.608 411.11C161.978 411.21 162.318 411.355 162.628 411.545C162.938 411.735 163.198 411.96 163.408 412.22L162.523 413.195C162.333 413.005 162.123 412.84 161.893 412.7C161.673 412.55 161.448 412.435 161.218 412.355C160.988 412.275 160.778 412.235 160.588 412.235C160.378 412.235 160.188 412.255 160.018 412.295C159.848 412.335 159.703 412.395 159.583 412.475C159.473 412.555 159.388 412.655 159.328 412.775C159.268 412.895 159.238 413.03 159.238 413.18C159.248 413.31 159.278 413.435 159.328 413.555C159.388 413.665 159.468 413.76 159.568 413.84C159.678 413.92 159.843 414.005 160.063 414.095C160.283 414.185 160.563 414.27 160.903 414.35C161.403 414.48 161.813 414.625 162.133 414.785C162.463 414.935 162.723 415.11 162.913 415.31C163.113 415.5 163.253 415.72 163.333 415.97C163.413 416.22 163.453 416.5 163.453 416.81C163.453 417.26 163.323 417.665 163.063 418.025C162.813 418.375 162.473 418.65 162.043 418.85C161.613 419.05 161.133 419.15 160.603 419.15Z" fill="#C4C4C4"/>
<circle cx="118.019" cy="231.019" r="14.1355" stroke="#35CA00" stroke-width="1.76693"/>
<path d="M154.362 237L158.698 225.8H160.458L164.762 237H162.922L160.362 230.248C160.33 230.173 160.266 229.992 160.17 229.704C160.085 229.416 159.983 229.096 159.866 228.744C159.749 228.392 159.642 228.072 159.546 227.784C159.45 227.485 159.386 227.293 159.354 227.208L159.722 227.192C159.658 227.373 159.578 227.603 159.482 227.88C159.397 228.157 159.301 228.451 159.194 228.76C159.098 229.069 159.002 229.363 158.906 229.64C158.81 229.907 158.73 230.131 158.666 230.312L156.122 237H154.362ZM156.282 234.216L156.922 232.552H162.01L162.746 234.216H156.282ZM166.317 240.52V228.6H167.981V230.52L167.725 230.376C167.789 230.056 167.971 229.752 168.269 229.464C168.568 229.165 168.931 228.925 169.357 228.744C169.795 228.552 170.243 228.456 170.701 228.456C171.459 228.456 172.131 228.643 172.717 229.016C173.304 229.389 173.768 229.901 174.109 230.552C174.451 231.203 174.621 231.949 174.621 232.792C174.621 233.624 174.451 234.371 174.109 235.032C173.779 235.683 173.32 236.2 172.733 236.584C172.147 236.957 171.485 237.144 170.749 237.144C170.259 237.144 169.784 237.048 169.325 236.856C168.867 236.653 168.477 236.397 168.157 236.088C167.837 235.779 167.64 235.459 167.565 235.128L167.981 234.904V240.52H166.317ZM170.477 235.624C170.968 235.624 171.405 235.501 171.789 235.256C172.173 235.011 172.477 234.675 172.701 234.248C172.925 233.821 173.037 233.336 173.037 232.792C173.037 232.248 172.925 231.768 172.701 231.352C172.488 230.925 172.189 230.589 171.805 230.344C171.421 230.099 170.979 229.976 170.477 229.976C169.976 229.976 169.533 230.099 169.149 230.344C168.765 230.579 168.461 230.909 168.237 231.336C168.013 231.763 167.901 232.248 167.901 232.792C167.901 233.336 168.013 233.821 168.237 234.248C168.461 234.675 168.765 235.011 169.149 235.256C169.533 235.501 169.976 235.624 170.477 235.624ZM176.411 240.52V228.6H178.075V230.52L177.819 230.376C177.883 230.056 178.064 229.752 178.363 229.464C178.662 229.165 179.024 228.925 179.451 228.744C179.888 228.552 180.336 228.456 180.795 228.456C181.552 228.456 182.224 228.643 182.811 229.016C183.398 229.389 183.862 229.901 184.203 230.552C184.544 231.203 184.715 231.949 184.715 232.792C184.715 233.624 184.544 234.371 184.203 235.032C183.872 235.683 183.414 236.2 182.827 236.584C182.24 236.957 181.579 237.144 180.843 237.144C180.352 237.144 179.878 237.048 179.419 236.856C178.96 236.653 178.571 236.397 178.251 236.088C177.931 235.779 177.734 235.459 177.659 235.128L178.075 234.904V240.52H176.411ZM180.571 235.624C181.062 235.624 181.499 235.501 181.883 235.256C182.267 235.011 182.571 234.675 182.795 234.248C183.019 233.821 183.131 233.336 183.131 232.792C183.131 232.248 183.019 231.768 182.795 231.352C182.582 230.925 182.283 230.589 181.899 230.344C181.515 230.099 181.072 229.976 180.571 229.976C180.07 229.976 179.627 230.099 179.243 230.344C178.859 230.579 178.555 230.909 178.331 231.336C178.107 231.763 177.995 232.248 177.995 232.792C177.995 233.336 178.107 233.821 178.331 234.248C178.555 234.675 178.859 235.011 179.243 235.256C179.627 235.501 180.07 235.624 180.571 235.624ZM186.537 237V225.16H188.185V237H186.537ZM190.792 237V228.6H192.44V237H190.792ZM191.592 226.744C191.24 226.744 190.968 226.653 190.776 226.472C190.584 226.291 190.488 226.035 190.488 225.704C190.488 225.395 190.584 225.144 190.776 224.952C190.979 224.76 191.251 224.664 191.592 224.664C191.944 224.664 192.216 224.755 192.408 224.936C192.6 225.117 192.696 225.373 192.696 225.704C192.696 226.013 192.595 226.264 192.392 226.456C192.2 226.648 191.934 226.744 191.592 226.744ZM198.206 237.16C197.512 237.16 196.878 236.968 196.302 236.584C195.736 236.2 195.283 235.677 194.942 235.016C194.6 234.355 194.43 233.608 194.43 232.776C194.43 231.933 194.6 231.187 194.942 230.536C195.294 229.875 195.763 229.357 196.35 228.984C196.947 228.611 197.614 228.424 198.35 228.424C198.787 228.424 199.187 228.488 199.55 228.616C199.912 228.744 200.227 228.925 200.494 229.16C200.771 229.384 200.995 229.645 201.166 229.944C201.347 230.243 201.459 230.563 201.502 230.904L201.134 230.776V228.6H202.798V237H201.134V235L201.518 234.888C201.454 235.176 201.32 235.459 201.118 235.736C200.926 236.003 200.675 236.243 200.366 236.456C200.067 236.669 199.731 236.84 199.358 236.968C198.995 237.096 198.611 237.16 198.206 237.16ZM198.638 235.64C199.139 235.64 199.582 235.517 199.966 235.272C200.35 235.027 200.648 234.691 200.862 234.264C201.086 233.827 201.198 233.331 201.198 232.776C201.198 232.232 201.086 231.747 200.862 231.32C200.648 230.893 200.35 230.557 199.966 230.312C199.582 230.067 199.139 229.944 198.638 229.944C198.147 229.944 197.71 230.067 197.326 230.312C196.952 230.557 196.654 230.893 196.43 231.32C196.216 231.747 196.11 232.232 196.11 232.776C196.11 233.331 196.216 233.827 196.43 234.264C196.654 234.691 196.952 235.027 197.326 235.272C197.71 235.517 198.147 235.64 198.638 235.64ZM205.099 237V228.6H206.747V230.328L206.459 230.52C206.565 230.147 206.773 229.805 207.083 229.496C207.392 229.176 207.76 228.92 208.187 228.728C208.613 228.525 209.051 228.424 209.499 228.424C210.139 228.424 210.672 228.552 211.099 228.808C211.525 229.053 211.845 229.432 212.059 229.944C212.272 230.456 212.379 231.101 212.379 231.88V237H210.731V231.992C210.731 231.512 210.667 231.117 210.539 230.808C210.411 230.488 210.213 230.259 209.947 230.12C209.68 229.971 209.349 229.907 208.955 229.928C208.635 229.928 208.341 229.981 208.075 230.088C207.808 230.184 207.573 230.323 207.371 230.504C207.179 230.685 207.024 230.899 206.907 231.144C206.8 231.379 206.747 231.635 206.747 231.912V237H205.931C205.792 237 205.653 237 205.515 237C205.376 237 205.237 237 205.099 237ZM218.182 237.16C217.403 237.16 216.705 236.968 216.086 236.584C215.478 236.2 214.993 235.677 214.63 235.016C214.278 234.355 214.102 233.613 214.102 232.792C214.102 231.971 214.278 231.229 214.63 230.568C214.993 229.907 215.478 229.384 216.086 229C216.705 228.616 217.403 228.424 218.182 228.424C218.929 228.424 219.606 228.579 220.214 228.888C220.833 229.187 221.302 229.597 221.622 230.12L220.71 231.24C220.539 230.995 220.321 230.771 220.054 230.568C219.787 230.365 219.505 230.205 219.206 230.088C218.907 229.971 218.619 229.912 218.342 229.912C217.83 229.912 217.371 230.04 216.966 230.296C216.571 230.541 216.257 230.883 216.022 231.32C215.787 231.757 215.67 232.248 215.67 232.792C215.67 233.336 215.793 233.827 216.038 234.264C216.283 234.691 216.609 235.032 217.014 235.288C217.419 235.544 217.867 235.672 218.358 235.672C218.646 235.672 218.923 235.624 219.19 235.528C219.467 235.432 219.734 235.288 219.99 235.096C220.246 234.904 220.486 234.669 220.71 234.392L221.622 235.512C221.281 235.992 220.79 236.387 220.15 236.696C219.521 237.005 218.865 237.16 218.182 237.16ZM227.097 237.16C226.233 237.16 225.465 236.979 224.793 236.616C224.131 236.243 223.609 235.736 223.225 235.096C222.851 234.456 222.665 233.72 222.665 232.888C222.665 232.227 222.771 231.624 222.985 231.08C223.198 230.536 223.491 230.067 223.865 229.672C224.249 229.267 224.702 228.957 225.225 228.744C225.758 228.52 226.334 228.408 226.953 228.408C227.497 228.408 228.003 228.515 228.473 228.728C228.942 228.931 229.347 229.213 229.689 229.576C230.041 229.939 230.307 230.371 230.489 230.872C230.681 231.363 230.771 231.901 230.761 232.488L230.745 233.192H223.881L223.513 231.88H229.321L229.081 232.152V231.768C229.049 231.416 228.931 231.101 228.729 230.824C228.526 230.547 228.27 230.328 227.961 230.168C227.651 230.008 227.315 229.928 226.953 229.928C226.377 229.928 225.891 230.04 225.497 230.264C225.102 230.477 224.803 230.797 224.601 231.224C224.398 231.64 224.297 232.157 224.297 232.776C224.297 233.363 224.419 233.875 224.665 234.312C224.91 234.739 225.257 235.069 225.705 235.304C226.153 235.539 226.67 235.656 227.257 235.656C227.673 235.656 228.057 235.587 228.409 235.448C228.771 235.309 229.161 235.059 229.577 234.696L230.409 235.864C230.153 236.12 229.838 236.344 229.465 236.536C229.102 236.728 228.713 236.883 228.297 237C227.891 237.107 227.491 237.16 227.097 237.16ZM235.352 237.16C234.648 237.16 234.013 237.037 233.448 236.792C232.882 236.547 232.413 236.184 232.04 235.704L233.16 234.744C233.48 235.117 233.826 235.389 234.2 235.56C234.584 235.72 235.016 235.8 235.496 235.8C235.688 235.8 235.864 235.779 236.024 235.736C236.194 235.683 236.338 235.608 236.456 235.512C236.584 235.416 236.68 235.304 236.744 235.176C236.808 235.037 236.84 234.888 236.84 234.728C236.84 234.451 236.738 234.227 236.536 234.056C236.429 233.981 236.258 233.901 236.024 233.816C235.8 233.72 235.506 233.624 235.144 233.528C234.525 233.368 234.018 233.187 233.624 232.984C233.229 232.781 232.925 232.552 232.712 232.296C232.552 232.093 232.434 231.875 232.36 231.64C232.285 231.395 232.248 231.128 232.248 230.84C232.248 230.488 232.322 230.168 232.472 229.88C232.632 229.581 232.845 229.325 233.112 229.112C233.389 228.888 233.709 228.717 234.072 228.6C234.445 228.483 234.84 228.424 235.256 228.424C235.65 228.424 236.04 228.477 236.424 228.584C236.818 228.691 237.181 228.845 237.512 229.048C237.842 229.251 238.12 229.491 238.344 229.768L237.4 230.808C237.197 230.605 236.973 230.429 236.728 230.28C236.493 230.12 236.253 229.997 236.008 229.912C235.762 229.827 235.538 229.784 235.336 229.784C235.112 229.784 234.909 229.805 234.728 229.848C234.546 229.891 234.392 229.955 234.264 230.04C234.146 230.125 234.056 230.232 233.992 230.36C233.928 230.488 233.896 230.632 233.896 230.792C233.906 230.931 233.938 231.064 233.992 231.192C234.056 231.309 234.141 231.411 234.248 231.496C234.365 231.581 234.541 231.672 234.776 231.768C235.01 231.864 235.309 231.955 235.672 232.04C236.205 232.179 236.642 232.333 236.984 232.504C237.336 232.664 237.613 232.851 237.816 233.064C238.029 233.267 238.178 233.501 238.264 233.768C238.349 234.035 238.392 234.333 238.392 234.664C238.392 235.144 238.253 235.576 237.976 235.96C237.709 236.333 237.346 236.627 236.888 236.84C236.429 237.053 235.917 237.16 235.352 237.16ZM248.468 237.16C247.647 237.16 246.911 236.973 246.26 236.6C245.62 236.216 245.114 235.699 244.74 235.048C244.367 234.387 244.18 233.635 244.18 232.792C244.18 231.949 244.367 231.203 244.74 230.552C245.114 229.891 245.62 229.373 246.26 229C246.911 228.616 247.647 228.424 248.468 228.424C249.279 228.424 250.004 228.616 250.644 229C251.295 229.373 251.807 229.891 252.18 230.552C252.554 231.203 252.74 231.949 252.74 232.792C252.74 233.635 252.554 234.387 252.18 235.048C251.807 235.699 251.295 236.216 250.644 236.6C250.004 236.973 249.279 237.16 248.468 237.16ZM248.468 235.656C248.97 235.656 249.418 235.533 249.812 235.288C250.207 235.032 250.516 234.691 250.74 234.264C250.964 233.827 251.071 233.336 251.06 232.792C251.071 232.237 250.964 231.747 250.74 231.32C250.516 230.883 250.207 230.541 249.812 230.296C249.418 230.051 248.97 229.928 248.468 229.928C247.967 229.928 247.514 230.056 247.108 230.312C246.714 230.557 246.404 230.899 246.18 231.336C245.956 231.763 245.85 232.248 245.86 232.792C245.85 233.336 245.956 233.827 246.18 234.264C246.404 234.691 246.714 235.032 247.108 235.288C247.514 235.533 247.967 235.656 248.468 235.656ZM256.04 234.376L255.96 232.584L259.976 228.6H262.2L256.04 234.376ZM254.536 237V225.16H256.184V237H254.536ZM260.2 237L257.032 233.304L258.2 232.232L262.312 237H260.2ZM266.502 237.16C265.809 237.16 265.174 236.968 264.598 236.584C264.033 236.2 263.58 235.677 263.238 235.016C262.897 234.355 262.726 233.608 262.726 232.776C262.726 231.933 262.897 231.187 263.238 230.536C263.59 229.875 264.06 229.357 264.646 228.984C265.244 228.611 265.91 228.424 266.646 228.424C267.084 228.424 267.484 228.488 267.846 228.616C268.209 228.744 268.524 228.925 268.79 229.16C269.068 229.384 269.292 229.645 269.462 229.944C269.644 230.243 269.756 230.563 269.798 230.904L269.43 230.776V228.6H271.094V237H269.43V235L269.814 234.888C269.75 235.176 269.617 235.459 269.414 235.736C269.222 236.003 268.972 236.243 268.662 236.456C268.364 236.669 268.028 236.84 267.654 236.968C267.292 237.096 266.908 237.16 266.502 237.16ZM266.934 235.64C267.436 235.64 267.878 235.517 268.262 235.272C268.646 235.027 268.945 234.691 269.158 234.264C269.382 233.827 269.494 233.331 269.494 232.776C269.494 232.232 269.382 231.747 269.158 231.32C268.945 230.893 268.646 230.557 268.262 230.312C267.878 230.067 267.436 229.944 266.934 229.944C266.444 229.944 266.006 230.067 265.622 230.312C265.249 230.557 264.95 230.893 264.726 231.32C264.513 231.747 264.406 232.232 264.406 232.776C264.406 233.331 264.513 233.827 264.726 234.264C264.95 234.691 265.249 235.027 265.622 235.272C266.006 235.517 266.444 235.64 266.934 235.64ZM274.616 240.68L276.312 236.76L276.328 238.072L272.136 228.6H274.056L276.68 234.776C276.733 234.883 276.797 235.048 276.872 235.272C276.947 235.485 277.011 235.699 277.064 235.912L276.648 236.008C276.733 235.784 276.813 235.56 276.888 235.336C276.973 235.112 277.053 234.888 277.128 234.664L279.32 228.6H281.272L277.816 237L276.392 240.68H274.616Z" fill="#3B3B3B"/>
<path d="M115.627 235.178L112.977 232.527C112.895 232.445 112.83 232.348 112.786 232.241C112.741 232.133 112.718 232.019 112.718 231.903C112.718 231.787 112.741 231.672 112.786 231.565C112.83 231.457 112.895 231.36 112.977 231.278C113.059 231.196 113.156 231.131 113.264 231.087C113.371 231.042 113.486 231.019 113.602 231.019C113.718 231.019 113.832 231.042 113.94 231.087C114.047 231.131 114.144 231.196 114.226 231.278L116.202 233.253L121.766 226.91C121.841 226.822 121.933 226.75 122.037 226.697C122.14 226.645 122.253 226.613 122.368 226.604C122.484 226.595 122.6 226.609 122.71 226.645C122.82 226.681 122.922 226.738 123.011 226.814C123.099 226.889 123.171 226.981 123.223 227.085C123.276 227.188 123.308 227.301 123.316 227.416C123.325 227.532 123.311 227.648 123.276 227.758C123.24 227.869 123.182 227.971 123.107 228.059L116.923 235.126C116.844 235.219 116.746 235.294 116.637 235.347C116.527 235.401 116.408 235.431 116.286 235.436C116.165 235.439 116.044 235.419 115.93 235.374C115.817 235.33 115.714 235.263 115.627 235.178Z" fill="#35CA00"/>
<circle cx="118.019" cy="288.057" r="14.1355" stroke="#35CA00" stroke-width="1.76693"/>
<path d="M155.53 294.038V282.838H160.298C160.938 282.838 161.525 282.998 162.058 283.318C162.602 283.627 163.034 284.054 163.354 284.598C163.674 285.131 163.834 285.734 163.834 286.406C163.834 287.014 163.674 287.579 163.354 288.102C163.034 288.625 162.607 289.046 162.074 289.366C161.541 289.675 160.949 289.83 160.298 289.83H157.258V294.038H155.53ZM162.186 294.038L159.338 288.982L161.114 288.582L164.282 294.054L162.186 294.038ZM157.258 288.166H160.458C160.767 288.166 161.045 288.091 161.29 287.942C161.535 287.782 161.727 287.569 161.866 287.302C162.005 287.025 162.074 286.721 162.074 286.39C162.074 286.017 161.983 285.691 161.802 285.414C161.631 285.126 161.386 284.902 161.066 284.742C160.757 284.582 160.405 284.502 160.01 284.502H157.258V288.166ZM169.847 294.198C168.983 294.198 168.215 294.017 167.543 293.654C166.881 293.281 166.359 292.774 165.975 292.134C165.601 291.494 165.415 290.758 165.415 289.926C165.415 289.265 165.521 288.662 165.735 288.118C165.948 287.574 166.241 287.105 166.615 286.71C166.999 286.305 167.452 285.995 167.975 285.782C168.508 285.558 169.084 285.446 169.703 285.446C170.247 285.446 170.753 285.553 171.223 285.766C171.692 285.969 172.097 286.251 172.439 286.614C172.791 286.977 173.057 287.409 173.239 287.91C173.431 288.401 173.521 288.939 173.511 289.526L173.495 290.23H166.631L166.263 288.918H172.071L171.831 289.19V288.806C171.799 288.454 171.681 288.139 171.479 287.862C171.276 287.585 171.02 287.366 170.711 287.206C170.401 287.046 170.065 286.966 169.703 286.966C169.127 286.966 168.641 287.078 168.247 287.302C167.852 287.515 167.553 287.835 167.351 288.262C167.148 288.678 167.047 289.195 167.047 289.814C167.047 290.401 167.169 290.913 167.415 291.35C167.66 291.777 168.007 292.107 168.455 292.342C168.903 292.577 169.42 292.694 170.007 292.694C170.423 292.694 170.807 292.625 171.159 292.486C171.521 292.347 171.911 292.097 172.327 291.734L173.159 292.902C172.903 293.158 172.588 293.382 172.215 293.574C171.852 293.766 171.463 293.921 171.047 294.038C170.641 294.145 170.241 294.198 169.847 294.198ZM175.302 294.038V285.638H176.95V287.366L176.662 287.558C176.768 287.185 176.976 286.843 177.286 286.534C177.595 286.214 177.963 285.958 178.39 285.766C178.816 285.563 179.254 285.462 179.702 285.462C180.342 285.462 180.875 285.59 181.302 285.846C181.728 286.091 182.048 286.47 182.262 286.982C182.475 287.494 182.582 288.139 182.582 288.918V294.038H180.934V289.03C180.934 288.55 180.87 288.155 180.742 287.846C180.614 287.526 180.416 287.297 180.15 287.158C179.883 287.009 179.552 286.945 179.158 286.966C178.838 286.966 178.544 287.019 178.278 287.126C178.011 287.222 177.776 287.361 177.574 287.542C177.382 287.723 177.227 287.937 177.11 288.182C177.003 288.417 176.95 288.673 176.95 288.95V294.038H176.134C175.995 294.038 175.856 294.038 175.718 294.038C175.579 294.038 175.44 294.038 175.302 294.038ZM185.857 294.038V283.494H187.505V294.038H185.857ZM184.113 287.238V285.638H189.457V287.238H184.113ZM196.354 294.038V284.694C196.354 284.214 196.461 283.787 196.674 283.414C196.888 283.041 197.181 282.747 197.554 282.534C197.928 282.321 198.36 282.214 198.85 282.214C199.192 282.214 199.512 282.278 199.81 282.406C200.109 282.534 200.349 282.705 200.53 282.918L199.97 284.182C199.832 284.054 199.677 283.953 199.506 283.878C199.346 283.793 199.192 283.75 199.042 283.75C198.818 283.75 198.626 283.787 198.466 283.862C198.317 283.926 198.205 284.033 198.13 284.182C198.056 284.321 198.018 284.491 198.018 284.694V294.038H197.186C197.048 294.038 196.909 294.038 196.77 294.038C196.632 294.038 196.493 294.038 196.354 294.038ZM195.01 287.302V285.782H200.002V287.302H195.01ZM204.668 294.198C204.07 294.198 203.548 294.059 203.1 293.782C202.662 293.505 202.321 293.115 202.076 292.614C201.841 292.113 201.724 291.515 201.724 290.822V285.638H203.372V290.374C203.372 290.865 203.446 291.291 203.596 291.654C203.756 292.006 203.98 292.278 204.268 292.47C204.566 292.662 204.924 292.758 205.34 292.758C205.649 292.758 205.932 292.71 206.188 292.614C206.444 292.507 206.662 292.363 206.844 292.182C207.036 292.001 207.185 291.782 207.292 291.526C207.398 291.27 207.452 290.993 207.452 290.694V285.638H209.1V294.038H207.452V292.278L207.74 292.086C207.612 292.481 207.393 292.838 207.084 293.158C206.785 293.478 206.428 293.734 206.012 293.926C205.596 294.107 205.148 294.198 204.668 294.198ZM211.443 294.038V282.198H213.091V294.038H211.443ZM215.459 294.038V282.198H217.107V294.038H215.459ZM220.616 297.718L222.312 293.798L222.328 295.11L218.136 285.638H220.056L222.68 291.814C222.733 291.921 222.797 292.086 222.872 292.31C222.947 292.523 223.011 292.737 223.064 292.95L222.648 293.046C222.733 292.822 222.813 292.598 222.888 292.374C222.973 292.15 223.053 291.926 223.128 291.702L225.32 285.638H227.272L223.816 294.038L222.392 297.718H220.616ZM232.989 297.558V285.638H234.653V287.558L234.397 287.414C234.461 287.094 234.642 286.79 234.941 286.502C235.24 286.203 235.602 285.963 236.029 285.782C236.466 285.59 236.914 285.494 237.373 285.494C238.13 285.494 238.802 285.681 239.389 286.054C239.976 286.427 240.44 286.939 240.781 287.59C241.122 288.241 241.293 288.987 241.293 289.83C241.293 290.662 241.122 291.409 240.781 292.07C240.45 292.721 239.992 293.238 239.405 293.622C238.818 293.995 238.157 294.182 237.421 294.182C236.93 294.182 236.456 294.086 235.997 293.894C235.538 293.691 235.149 293.435 234.829 293.126C234.509 292.817 234.312 292.497 234.237 292.166L234.653 291.942V297.558H232.989ZM237.149 292.662C237.64 292.662 238.077 292.539 238.461 292.294C238.845 292.049 239.149 291.713 239.373 291.286C239.597 290.859 239.709 290.374 239.709 289.83C239.709 289.286 239.597 288.806 239.373 288.39C239.16 287.963 238.861 287.627 238.477 287.382C238.093 287.137 237.65 287.014 237.149 287.014C236.648 287.014 236.205 287.137 235.821 287.382C235.437 287.617 235.133 287.947 234.909 288.374C234.685 288.801 234.573 289.286 234.573 289.83C234.573 290.374 234.685 290.859 234.909 291.286C235.133 291.713 235.437 292.049 235.821 292.294C236.205 292.539 236.648 292.662 237.149 292.662ZM246.315 294.198C245.622 294.198 244.987 294.006 244.411 293.622C243.846 293.238 243.392 292.715 243.051 292.054C242.71 291.393 242.539 290.646 242.539 289.814C242.539 288.971 242.71 288.225 243.051 287.574C243.403 286.913 243.872 286.395 244.459 286.022C245.056 285.649 245.723 285.462 246.459 285.462C246.896 285.462 247.296 285.526 247.659 285.654C248.022 285.782 248.336 285.963 248.603 286.198C248.88 286.422 249.104 286.683 249.275 286.982C249.456 287.281 249.568 287.601 249.611 287.942L249.243 287.814V285.638H250.907V294.038H249.243V292.038L249.627 291.926C249.563 292.214 249.43 292.497 249.227 292.774C249.035 293.041 248.784 293.281 248.475 293.494C248.176 293.707 247.84 293.878 247.467 294.006C247.104 294.134 246.72 294.198 246.315 294.198ZM246.747 292.678C247.248 292.678 247.691 292.555 248.075 292.31C248.459 292.065 248.758 291.729 248.971 291.302C249.195 290.865 249.307 290.369 249.307 289.814C249.307 289.27 249.195 288.785 248.971 288.358C248.758 287.931 248.459 287.595 248.075 287.35C247.691 287.105 247.248 286.982 246.747 286.982C246.256 286.982 245.819 287.105 245.435 287.35C245.062 287.595 244.763 287.931 244.539 288.358C244.326 288.785 244.219 289.27 244.219 289.814C244.219 290.369 244.326 290.865 244.539 291.302C244.763 291.729 245.062 292.065 245.435 292.31C245.819 292.555 246.256 292.678 246.747 292.678ZM253.48 294.038V285.638H255.128V294.038H253.48ZM254.28 283.782C253.928 283.782 253.656 283.691 253.464 283.51C253.272 283.329 253.176 283.073 253.176 282.742C253.176 282.433 253.272 282.182 253.464 281.99C253.667 281.798 253.939 281.702 254.28 281.702C254.632 281.702 254.904 281.793 255.096 281.974C255.288 282.155 255.384 282.411 255.384 282.742C255.384 283.051 255.283 283.302 255.08 283.494C254.888 283.686 254.621 283.782 254.28 283.782ZM261.165 294.198C260.397 294.198 259.709 294.011 259.101 293.638C258.504 293.254 258.029 292.737 257.677 292.086C257.325 291.425 257.149 290.673 257.149 289.83C257.149 288.987 257.32 288.241 257.661 287.59C258.013 286.929 258.488 286.411 259.085 286.038C259.682 285.654 260.36 285.462 261.117 285.462C261.533 285.462 261.933 285.531 262.317 285.67C262.712 285.798 263.064 285.979 263.373 286.214C263.682 286.438 263.922 286.689 264.093 286.966C264.274 287.233 264.365 287.505 264.365 287.782L263.885 287.814V282.198H265.533V294.038H263.885V292.038H264.205C264.205 292.294 264.12 292.55 263.949 292.806C263.778 293.051 263.549 293.281 263.261 293.494C262.984 293.707 262.658 293.878 262.285 294.006C261.922 294.134 261.549 294.198 261.165 294.198ZM261.389 292.774C261.89 292.774 262.333 292.646 262.717 292.39C263.101 292.134 263.4 291.787 263.613 291.35C263.837 290.902 263.949 290.395 263.949 289.83C263.949 289.265 263.837 288.763 263.613 288.326C263.4 287.878 263.101 287.526 262.717 287.27C262.333 287.014 261.89 286.886 261.389 286.886C260.888 286.886 260.445 287.014 260.061 287.27C259.677 287.526 259.373 287.878 259.149 288.326C258.936 288.763 258.829 289.265 258.829 289.83C258.829 290.395 258.936 290.902 259.149 291.35C259.373 291.787 259.677 292.134 260.061 292.39C260.445 292.646 260.888 292.774 261.389 292.774Z" fill="#3B3B3B"/>
<path d="M115.627 292.215L112.977 289.565C112.895 289.483 112.83 289.386 112.786 289.278C112.741 289.171 112.718 289.056 112.718 288.94C112.718 288.824 112.741 288.71 112.786 288.602C112.83 288.495 112.895 288.398 112.977 288.316C113.059 288.234 113.156 288.169 113.264 288.124C113.371 288.08 113.486 288.057 113.602 288.057C113.718 288.057 113.832 288.08 113.94 288.124C114.047 288.169 114.144 288.234 114.226 288.316L116.202 290.291L121.766 283.948C121.841 283.86 121.933 283.788 122.037 283.735C122.14 283.683 122.253 283.651 122.368 283.642C122.484 283.633 122.6 283.647 122.71 283.683C122.82 283.719 122.922 283.776 123.011 283.852C123.099 283.927 123.171 284.019 123.223 284.122C123.276 284.226 123.308 284.339 123.316 284.454C123.325 284.57 123.311 284.686 123.276 284.796C123.24 284.906 123.182 285.008 123.107 285.096L116.923 292.164C116.844 292.257 116.746 292.332 116.637 292.385C116.527 292.438 116.408 292.468 116.286 292.473C116.165 292.477 116.044 292.456 115.93 292.412C115.817 292.368 115.714 292.301 115.627 292.215Z" fill="#35CA00"/>
<path d="M338.47 419V408.5H345.085V410.06H340.09V417.44H345.085V419H338.47ZM339.205 414.395V412.835H344.26V414.395H339.205ZM347.294 419V411.125H348.839V412.745L348.569 412.925C348.669 412.575 348.864 412.255 349.154 411.965C349.444 411.665 349.789 411.425 350.189 411.245C350.589 411.055 350.999 410.96 351.419 410.96C352.019 410.96 352.519 411.08 352.919 411.32C353.319 411.55 353.619 411.905 353.819 412.385C354.019 412.865 354.119 413.47 354.119 414.2V419H352.574V414.305C352.574 413.855 352.514 413.485 352.394 413.195C352.274 412.895 352.089 412.68 351.839 412.55C351.589 412.41 351.279 412.35 350.909 412.37C350.609 412.37 350.334 412.42 350.084 412.52C349.834 412.61 349.614 412.74 349.424 412.91C349.244 413.08 349.099 413.28 348.989 413.51C348.889 413.73 348.839 413.97 348.839 414.23V419H348.074C347.944 419 347.814 419 347.684 419C347.554 419 347.424 419 347.294 419ZM359.5 419.15C358.78 419.15 358.135 418.975 357.565 418.625C357.005 418.265 356.56 417.78 356.23 417.17C355.9 416.55 355.735 415.845 355.735 415.055C355.735 414.265 355.895 413.565 356.215 412.955C356.545 412.335 356.99 411.85 357.55 411.5C358.11 411.14 358.745 410.96 359.455 410.96C359.845 410.96 360.22 411.025 360.58 411.155C360.95 411.275 361.28 411.445 361.57 411.665C361.86 411.875 362.085 412.11 362.245 412.37C362.415 412.62 362.5 412.875 362.5 413.135L362.05 413.165V407.9H363.595V419H362.05V417.125H362.35C362.35 417.365 362.27 417.605 362.11 417.845C361.95 418.075 361.735 418.29 361.465 418.49C361.205 418.69 360.9 418.85 360.55 418.97C360.21 419.09 359.86 419.15 359.5 419.15ZM359.71 417.815C360.18 417.815 360.595 417.695 360.955 417.455C361.315 417.215 361.595 416.89 361.795 416.48C362.005 416.06 362.11 415.585 362.11 415.055C362.11 414.525 362.005 414.055 361.795 413.645C361.595 413.225 361.315 412.895 360.955 412.655C360.595 412.415 360.18 412.295 359.71 412.295C359.24 412.295 358.825 412.415 358.465 412.655C358.105 412.895 357.82 413.225 357.61 413.645C357.41 414.055 357.31 414.525 357.31 415.055C357.31 415.585 357.41 416.06 357.61 416.48C357.82 416.89 358.105 417.215 358.465 417.455C358.825 417.695 359.24 417.815 359.71 417.815Z" fill="white"/>
<rect x="101" y="187" width="281" height="7" rx="3.5" fill="#E4E6EA"/>
<rect x="101" y="187" width="130" height="7" rx="3.5" fill="#1A89FA"/>
</svg>
