<svg width="480" height="540" viewBox="0 0 480 540" fill="none" xmlns="http://www.w3.org/2000/svg">
<path d="M396 76H85C75.6112 76 68 83.6112 68 93V447C68 456.389 75.6112 464 85 464H396C405.389 464 413 456.389 413 447V93C413 83.6112 405.389 76 396 76Z" fill="#F1F5F7"/>
<path d="M84.911 121V106.3H91.421C92.331 106.3 93.157 106.51 93.899 106.93C94.641 107.336 95.222 107.889 95.642 108.589C96.076 109.289 96.293 110.087 96.293 110.983C96.293 111.865 96.076 112.67 95.642 113.398C95.222 114.112 94.641 114.679 93.899 115.099C93.157 115.519 92.331 115.729 91.421 115.729H87.956V121H84.911ZM93.248 121L89.51 114.364L92.744 113.839L96.902 121.021L93.248 121ZM87.956 113.167H91.274C91.652 113.167 91.981 113.083 92.261 112.915C92.555 112.733 92.779 112.488 92.933 112.18C93.087 111.858 93.164 111.501 93.164 111.109C93.164 110.689 93.073 110.325 92.891 110.017C92.709 109.709 92.443 109.471 92.093 109.303C91.743 109.121 91.337 109.03 90.875 109.03H87.956V113.167ZM104.056 121.21C102.852 121.21 101.795 120.965 100.885 120.475C99.9889 119.985 99.2889 119.313 98.7849 118.459C98.2949 117.605 98.0499 116.625 98.0499 115.519C98.0499 114.651 98.1899 113.86 98.4699 113.146C98.7499 112.432 99.1419 111.816 99.6459 111.298C100.15 110.766 100.745 110.36 101.431 110.08C102.131 109.786 102.887 109.639 103.699 109.639C104.455 109.639 105.155 109.779 105.799 110.059C106.443 110.339 106.996 110.731 107.458 111.235C107.934 111.725 108.298 112.313 108.55 112.999C108.802 113.671 108.914 114.399 108.886 115.183L108.865 116.107H99.9399L99.4569 114.28H106.408L106.072 114.658V114.196C106.044 113.818 105.918 113.482 105.694 113.188C105.484 112.88 105.211 112.642 104.875 112.474C104.539 112.292 104.161 112.201 103.741 112.201C103.125 112.201 102.6 112.32 102.166 112.558C101.746 112.796 101.424 113.146 101.2 113.608C100.976 114.07 100.864 114.63 100.864 115.288C100.864 115.96 101.004 116.541 101.284 117.031C101.578 117.521 101.984 117.906 102.502 118.186C103.034 118.452 103.657 118.585 104.371 118.585C104.861 118.585 105.309 118.508 105.715 118.354C106.121 118.2 106.555 117.934 107.017 117.556L108.445 119.551C108.039 119.915 107.591 120.223 107.101 120.475C106.611 120.713 106.107 120.895 105.589 121.021C105.071 121.147 104.56 121.21 104.056 121.21ZM111.09 125.62V109.891H113.967L114.051 112.39L113.505 112.201C113.603 111.753 113.841 111.34 114.219 110.962C114.611 110.584 115.094 110.276 115.668 110.038C116.242 109.8 116.844 109.681 117.474 109.681C118.44 109.681 119.301 109.933 120.057 110.437C120.813 110.927 121.408 111.606 121.842 112.474C122.276 113.328 122.493 114.315 122.493 115.435C122.493 116.541 122.276 117.528 121.842 118.396C121.408 119.264 120.813 119.95 120.057 120.454C119.301 120.944 118.44 121.189 117.474 121.189C116.83 121.189 116.214 121.07 115.626 120.832C115.052 120.58 114.562 120.251 114.156 119.845C113.764 119.439 113.512 119.005 113.4 118.543L114.093 118.249V125.62H111.09ZM116.802 118.627C117.348 118.627 117.831 118.494 118.251 118.228C118.671 117.962 119 117.591 119.238 117.115C119.476 116.625 119.595 116.065 119.595 115.435C119.595 114.805 119.476 114.252 119.238 113.776C119 113.3 118.671 112.929 118.251 112.663C117.845 112.397 117.362 112.264 116.802 112.264C116.242 112.264 115.752 112.397 115.332 112.663C114.912 112.915 114.583 113.286 114.345 113.776C114.107 114.252 113.988 114.805 113.988 115.435C113.988 116.065 114.107 116.625 114.345 117.115C114.583 117.591 114.912 117.962 115.332 118.228C115.752 118.494 116.242 118.627 116.802 118.627ZM124.769 121V105.46H127.751V121H124.769ZM134.73 121.21C133.806 121.21 132.973 120.958 132.231 120.454C131.489 119.95 130.901 119.264 130.467 118.396C130.033 117.528 129.816 116.534 129.816 115.414C129.816 114.294 130.033 113.3 130.467 112.432C130.915 111.564 131.517 110.885 132.273 110.395C133.029 109.905 133.89 109.66 134.856 109.66C135.402 109.66 135.899 109.744 136.347 109.912C136.809 110.066 137.208 110.283 137.544 110.563C137.894 110.843 138.188 111.165 138.426 111.529C138.664 111.893 138.832 112.285 138.93 112.705L138.3 112.6V109.891H141.261V121H138.258V118.333L138.93 118.27C138.818 118.662 138.636 119.033 138.384 119.383C138.132 119.733 137.817 120.048 137.439 120.328C137.075 120.594 136.662 120.811 136.2 120.979C135.738 121.133 135.248 121.21 134.73 121.21ZM135.549 118.627C136.109 118.627 136.599 118.494 137.019 118.228C137.439 117.962 137.761 117.591 137.985 117.115C138.223 116.625 138.342 116.058 138.342 115.414C138.342 114.784 138.223 114.231 137.985 113.755C137.761 113.279 137.439 112.908 137.019 112.642C136.599 112.362 136.109 112.222 135.549 112.222C135.003 112.222 134.52 112.362 134.1 112.642C133.694 112.908 133.372 113.279 133.134 113.755C132.896 114.231 132.777 114.784 132.777 115.414C132.777 116.058 132.896 116.625 133.134 117.115C133.372 117.591 133.694 117.962 134.1 118.228C134.52 118.494 135.003 118.627 135.549 118.627ZM149.081 121.21C148.017 121.21 147.065 120.958 146.225 120.454C145.385 119.95 144.72 119.264 144.23 118.396C143.754 117.528 143.516 116.541 143.516 115.435C143.516 114.329 143.754 113.342 144.23 112.474C144.72 111.606 145.385 110.92 146.225 110.416C147.065 109.912 148.017 109.66 149.081 109.66C150.075 109.66 150.985 109.842 151.811 110.206C152.637 110.57 153.281 111.074 153.743 111.718L152.105 113.692C151.909 113.426 151.664 113.188 151.37 112.978C151.076 112.754 150.754 112.579 150.404 112.453C150.068 112.327 149.718 112.264 149.354 112.264C148.78 112.264 148.269 112.404 147.821 112.684C147.387 112.95 147.044 113.321 146.792 113.797C146.54 114.273 146.414 114.819 146.414 115.435C146.414 116.023 146.54 116.555 146.792 117.031C147.058 117.507 147.415 117.885 147.863 118.165C148.311 118.445 148.815 118.585 149.375 118.585C149.739 118.585 150.082 118.536 150.404 118.438C150.726 118.34 151.027 118.186 151.307 117.976C151.601 117.766 151.867 117.514 152.105 117.22L153.722 119.194C153.26 119.796 152.602 120.286 151.748 120.664C150.908 121.028 150.019 121.21 149.081 121.21ZM160.904 121.21C159.7 121.21 158.643 120.965 157.733 120.475C156.837 119.985 156.137 119.313 155.633 118.459C155.143 117.605 154.898 116.625 154.898 115.519C154.898 114.651 155.038 113.86 155.318 113.146C155.598 112.432 155.99 111.816 156.494 111.298C156.998 110.766 157.593 110.36 158.279 110.08C158.979 109.786 159.735 109.639 160.547 109.639C161.303 109.639 162.003 109.779 162.647 110.059C163.291 110.339 163.844 110.731 164.306 111.235C164.782 111.725 165.146 112.313 165.398 112.999C165.65 113.671 165.762 114.399 165.734 115.183L165.713 116.107H156.788L156.305 114.28H163.256L162.92 114.658V114.196C162.892 113.818 162.766 113.482 162.542 113.188C162.332 112.88 162.059 112.642 161.723 112.474C161.387 112.292 161.009 112.201 160.589 112.201C159.973 112.201 159.448 112.32 159.014 112.558C158.594 112.796 158.272 113.146 158.048 113.608C157.824 114.07 157.712 114.63 157.712 115.288C157.712 115.96 157.852 116.541 158.132 117.031C158.426 117.521 158.832 117.906 159.35 118.186C159.882 118.452 160.505 118.585 161.219 118.585C161.709 118.585 162.157 118.508 162.563 118.354C162.969 118.2 163.403 117.934 163.865 117.556L165.293 119.551C164.887 119.915 164.439 120.223 163.949 120.475C163.459 120.713 162.955 120.895 162.437 121.021C161.919 121.147 161.408 121.21 160.904 121.21ZM167.916 121V109.891H170.793L170.856 112.012L170.415 112.096C170.569 111.732 170.772 111.403 171.024 111.109C171.29 110.815 171.591 110.563 171.927 110.353C172.263 110.143 172.62 109.982 172.998 109.87C173.376 109.744 173.754 109.681 174.132 109.681C174.706 109.681 175.224 109.772 175.686 109.954C176.148 110.136 176.54 110.423 176.862 110.815C177.184 111.193 177.436 111.697 177.618 112.327L177.156 112.285L177.303 111.949C177.485 111.613 177.716 111.305 177.996 111.025C178.276 110.745 178.591 110.507 178.941 110.311C179.291 110.115 179.655 109.961 180.033 109.849C180.411 109.737 180.782 109.681 181.146 109.681C182.014 109.681 182.735 109.856 183.309 110.206C183.883 110.542 184.31 111.053 184.59 111.739C184.884 112.425 185.031 113.265 185.031 114.259V121H182.049V114.469C182.049 113.965 181.979 113.552 181.839 113.23C181.699 112.908 181.496 112.67 181.23 112.516C180.964 112.348 180.621 112.264 180.201 112.264C179.879 112.264 179.578 112.32 179.298 112.432C179.032 112.53 178.794 112.677 178.584 112.873C178.388 113.055 178.234 113.279 178.122 113.545C178.01 113.797 177.954 114.07 177.954 114.364V121H174.951V114.448C174.951 113.986 174.881 113.594 174.741 113.272C174.601 112.936 174.398 112.684 174.132 112.516C173.866 112.348 173.537 112.264 173.145 112.264C172.823 112.264 172.522 112.32 172.242 112.432C171.976 112.53 171.745 112.677 171.549 112.873C171.353 113.055 171.199 113.272 171.087 113.524C170.975 113.776 170.919 114.049 170.919 114.343V121H167.916ZM193.142 121.21C191.938 121.21 190.881 120.965 189.971 120.475C189.075 119.985 188.375 119.313 187.871 118.459C187.381 117.605 187.136 116.625 187.136 115.519C187.136 114.651 187.276 113.86 187.556 113.146C187.836 112.432 188.228 111.816 188.732 111.298C189.236 110.766 189.831 110.36 190.517 110.08C191.217 109.786 191.973 109.639 192.785 109.639C193.541 109.639 194.241 109.779 194.885 110.059C195.529 110.339 196.082 110.731 196.544 111.235C197.02 111.725 197.384 112.313 197.636 112.999C197.888 113.671 198 114.399 197.972 115.183L197.951 116.107H189.026L188.543 114.28H195.494L195.158 114.658V114.196C195.13 113.818 195.004 113.482 194.78 113.188C194.57 112.88 194.297 112.642 193.961 112.474C193.625 112.292 193.247 112.201 192.827 112.201C192.211 112.201 191.686 112.32 191.252 112.558C190.832 112.796 190.51 113.146 190.286 113.608C190.062 114.07 189.95 114.63 189.95 115.288C189.95 115.96 190.09 116.541 190.37 117.031C190.664 117.521 191.07 117.906 191.588 118.186C192.12 118.452 192.743 118.585 193.457 118.585C193.947 118.585 194.395 118.508 194.801 118.354C195.207 118.2 195.641 117.934 196.103 117.556L197.531 119.551C197.125 119.915 196.677 120.223 196.187 120.475C195.697 120.713 195.193 120.895 194.675 121.021C194.157 121.147 193.646 121.21 193.142 121.21ZM200.176 121V109.891H203.032L203.116 112.159L202.528 112.411C202.682 111.907 202.955 111.452 203.347 111.046C203.753 110.626 204.236 110.29 204.796 110.038C205.356 109.786 205.944 109.66 206.56 109.66C207.4 109.66 208.1 109.828 208.66 110.164C209.234 110.5 209.661 111.011 209.941 111.697C210.235 112.369 210.382 113.202 210.382 114.196V121H207.4V114.427C207.4 113.923 207.33 113.503 207.19 113.167C207.05 112.831 206.833 112.586 206.539 112.432C206.259 112.278 205.909 112.208 205.489 112.222C205.153 112.222 204.838 112.278 204.544 112.39C204.264 112.488 204.019 112.635 203.809 112.831C203.613 113.027 203.452 113.251 203.326 113.503C203.214 113.755 203.158 114.028 203.158 114.322V121H201.688C201.366 121 201.079 121 200.827 121C200.575 121 200.358 121 200.176 121ZM214.31 121V107.077H217.292V121H214.31ZM212.231 112.558V109.891H219.581V112.558H212.231ZM234.81 121.21C233.732 121.21 232.738 121.028 231.828 120.664C230.932 120.286 230.148 119.761 229.476 119.089C228.818 118.403 228.307 117.598 227.943 116.674C227.579 115.736 227.397 114.714 227.397 113.608C227.397 112.53 227.586 111.536 227.964 110.626C228.342 109.702 228.874 108.904 229.56 108.232C230.246 107.546 231.051 107.014 231.975 106.636C232.899 106.258 233.9 106.069 234.978 106.069C235.678 106.069 236.364 106.167 237.036 106.363C237.722 106.545 238.345 106.818 238.905 107.182C239.479 107.546 239.969 107.98 240.375 108.484L238.401 110.668C238.079 110.332 237.736 110.045 237.372 109.807C237.008 109.555 236.623 109.366 236.217 109.24C235.825 109.1 235.405 109.03 234.957 109.03C234.355 109.03 233.788 109.142 233.256 109.366C232.738 109.59 232.283 109.905 231.891 110.311C231.499 110.703 231.184 111.186 230.946 111.76C230.722 112.32 230.61 112.943 230.61 113.629C230.61 114.329 230.722 114.966 230.946 115.54C231.17 116.1 231.485 116.583 231.891 116.989C232.297 117.381 232.78 117.689 233.34 117.913C233.914 118.123 234.544 118.228 235.23 118.228C235.678 118.228 236.112 118.165 236.532 118.039C236.952 117.913 237.337 117.738 237.687 117.514C238.051 117.29 238.373 117.031 238.653 116.737L240.207 119.194C239.857 119.572 239.395 119.915 238.821 120.223C238.261 120.531 237.631 120.776 236.931 120.958C236.231 121.126 235.524 121.21 234.81 121.21ZM242.422 121V105.46H245.362V112.159L244.774 112.411C244.928 111.907 245.201 111.452 245.593 111.046C245.999 110.626 246.482 110.29 247.042 110.038C247.602 109.786 248.19 109.66 248.806 109.66C249.646 109.66 250.346 109.828 250.906 110.164C251.48 110.5 251.907 111.011 252.187 111.697C252.481 112.369 252.628 113.202 252.628 114.196V121H249.646V114.427C249.646 113.923 249.576 113.503 249.436 113.167C249.296 112.831 249.079 112.586 248.785 112.432C248.505 112.278 248.155 112.208 247.735 112.222C247.399 112.222 247.084 112.278 246.79 112.39C246.51 112.488 246.265 112.635 246.055 112.831C245.859 113.027 245.698 113.251 245.572 113.503C245.46 113.755 245.404 114.028 245.404 114.322V121H243.934C243.612 121 243.325 121 243.073 121C242.821 121 242.604 121 242.422 121ZM260.756 121.21C259.552 121.21 258.495 120.965 257.585 120.475C256.689 119.985 255.989 119.313 255.485 118.459C254.995 117.605 254.75 116.625 254.75 115.519C254.75 114.651 254.89 113.86 255.17 113.146C255.45 112.432 255.842 111.816 256.346 111.298C256.85 110.766 257.445 110.36 258.131 110.08C258.831 109.786 259.587 109.639 260.399 109.639C261.155 109.639 261.855 109.779 262.499 110.059C263.143 110.339 263.696 110.731 264.158 111.235C264.634 111.725 264.998 112.313 265.25 112.999C265.502 113.671 265.614 114.399 265.586 115.183L265.565 116.107H256.64L256.157 114.28H263.108L262.772 114.658V114.196C262.744 113.818 262.618 113.482 262.394 113.188C262.184 112.88 261.911 112.642 261.575 112.474C261.239 112.292 260.861 112.201 260.441 112.201C259.825 112.201 259.3 112.32 258.866 112.558C258.446 112.796 258.124 113.146 257.9 113.608C257.676 114.07 257.564 114.63 257.564 115.288C257.564 115.96 257.704 116.541 257.984 117.031C258.278 117.521 258.684 117.906 259.202 118.186C259.734 118.452 260.357 118.585 261.071 118.585C261.561 118.585 262.009 118.508 262.415 118.354C262.821 118.2 263.255 117.934 263.717 117.556L265.145 119.551C264.739 119.915 264.291 120.223 263.801 120.475C263.311 120.713 262.807 120.895 262.289 121.021C261.771 121.147 261.26 121.21 260.756 121.21ZM275.455 125.62V118.333L276.064 118.438C276.036 118.788 275.903 119.131 275.665 119.467C275.441 119.789 275.14 120.083 274.762 120.349C274.398 120.615 273.992 120.825 273.544 120.979C273.096 121.133 272.627 121.21 272.137 121.21C271.157 121.21 270.282 120.965 269.512 120.475C268.756 119.971 268.154 119.285 267.706 118.417C267.272 117.549 267.055 116.555 267.055 115.435C267.055 114.315 267.272 113.321 267.706 112.453C268.14 111.585 268.735 110.906 269.491 110.416C270.247 109.912 271.101 109.66 272.053 109.66C272.599 109.66 273.11 109.744 273.586 109.912C274.076 110.066 274.51 110.276 274.888 110.542C275.266 110.808 275.574 111.109 275.812 111.445C276.05 111.781 276.183 112.131 276.211 112.495L275.476 112.6L275.581 109.87H278.437V125.62H275.455ZM272.746 118.627C273.306 118.627 273.796 118.494 274.216 118.228C274.636 117.962 274.958 117.591 275.182 117.115C275.42 116.639 275.539 116.079 275.539 115.435C275.539 114.791 275.42 114.231 275.182 113.755C274.958 113.265 274.636 112.887 274.216 112.621C273.796 112.355 273.306 112.222 272.746 112.222C272.186 112.222 271.696 112.362 271.276 112.642C270.856 112.908 270.527 113.286 270.289 113.776C270.065 114.252 269.953 114.805 269.953 115.435C269.953 116.065 270.065 116.625 270.289 117.115C270.527 117.591 270.856 117.962 271.276 118.228C271.696 118.494 272.186 118.627 272.746 118.627ZM285.25 121.21C284.438 121.21 283.738 121.035 283.15 120.685C282.576 120.321 282.128 119.81 281.806 119.152C281.498 118.48 281.344 117.675 281.344 116.737V109.891H284.326V116.254C284.326 116.758 284.41 117.199 284.578 117.577C284.746 117.941 284.984 118.221 285.292 118.417C285.6 118.613 285.978 118.711 286.426 118.711C286.748 118.711 287.042 118.662 287.308 118.564C287.588 118.452 287.826 118.298 288.022 118.102C288.232 117.906 288.393 117.675 288.505 117.409C288.617 117.143 288.673 116.856 288.673 116.548V109.891H291.655V121H288.82L288.715 118.711L289.261 118.459C289.093 118.977 288.813 119.446 288.421 119.866C288.029 120.286 287.56 120.615 287.014 120.853C286.468 121.091 285.88 121.21 285.25 121.21ZM299.926 121.21C298.722 121.21 297.665 120.965 296.755 120.475C295.859 119.985 295.159 119.313 294.655 118.459C294.165 117.605 293.92 116.625 293.92 115.519C293.92 114.651 294.06 113.86 294.34 113.146C294.62 112.432 295.012 111.816 295.516 111.298C296.02 110.766 296.615 110.36 297.301 110.08C298.001 109.786 298.757 109.639 299.569 109.639C300.325 109.639 301.025 109.779 301.669 110.059C302.313 110.339 302.866 110.731 303.328 111.235C303.804 111.725 304.168 112.313 304.42 112.999C304.672 113.671 304.784 114.399 304.756 115.183L304.735 116.107H295.81L295.327 114.28H302.278L301.942 114.658V114.196C301.914 113.818 301.788 113.482 301.564 113.188C301.354 112.88 301.081 112.642 300.745 112.474C300.409 112.292 300.031 112.201 299.611 112.201C298.995 112.201 298.47 112.32 298.036 112.558C297.616 112.796 297.294 113.146 297.07 113.608C296.846 114.07 296.734 114.63 296.734 115.288C296.734 115.96 296.874 116.541 297.154 117.031C297.448 117.521 297.854 117.906 298.372 118.186C298.904 118.452 299.527 118.585 300.241 118.585C300.731 118.585 301.179 118.508 301.585 118.354C301.991 118.2 302.425 117.934 302.887 117.556L304.315 119.551C303.909 119.915 303.461 120.223 302.971 120.475C302.481 120.713 301.977 120.895 301.459 121.021C300.941 121.147 300.43 121.21 299.926 121.21Z" fill="black"/>
<rect x="83.5" y="285.5" width="314" height="61" rx="8.5" stroke="#C4C4C4" stroke-dasharray="7 7"/>
<path d="M104.55 322.09C103.74 322.09 103.015 321.915 102.375 321.565C101.735 321.205 101.23 320.715 100.86 320.095C100.5 319.465 100.32 318.755 100.32 317.965V311.485H101.94V317.83C101.94 318.34 102.06 318.8 102.3 319.21C102.54 319.61 102.855 319.93 103.245 320.17C103.645 320.41 104.08 320.53 104.55 320.53C105.05 320.53 105.5 320.41 105.9 320.17C106.31 319.93 106.635 319.61 106.875 319.21C107.115 318.8 107.235 318.34 107.235 317.83V311.485H108.78V317.965C108.78 318.755 108.595 319.465 108.225 320.095C107.865 320.715 107.365 321.205 106.725 321.565C106.085 321.915 105.36 322.09 104.55 322.09ZM111.184 325.3V314.125H112.744V315.925L112.504 315.79C112.564 315.49 112.734 315.205 113.014 314.935C113.294 314.655 113.634 314.43 114.034 314.26C114.444 314.08 114.864 313.99 115.294 313.99C116.004 313.99 116.634 314.165 117.184 314.515C117.734 314.865 118.169 315.345 118.489 315.955C118.809 316.565 118.969 317.265 118.969 318.055C118.969 318.835 118.809 319.535 118.489 320.155C118.179 320.765 117.749 321.25 117.199 321.61C116.649 321.96 116.029 322.135 115.339 322.135C114.879 322.135 114.434 322.045 114.004 321.865C113.574 321.675 113.209 321.435 112.909 321.145C112.609 320.855 112.424 320.555 112.354 320.245L112.744 320.035V325.3H111.184ZM115.084 320.71C115.544 320.71 115.954 320.595 116.314 320.365C116.674 320.135 116.959 319.82 117.169 319.42C117.379 319.02 117.484 318.565 117.484 318.055C117.484 317.545 117.379 317.095 117.169 316.705C116.969 316.305 116.689 315.99 116.329 315.76C115.969 315.53 115.554 315.415 115.084 315.415C114.614 315.415 114.199 315.53 113.839 315.76C113.479 315.98 113.194 316.29 112.984 316.69C112.774 317.09 112.669 317.545 112.669 318.055C112.669 318.565 112.774 319.02 112.984 319.42C113.194 319.82 113.479 320.135 113.839 320.365C114.199 320.595 114.614 320.71 115.084 320.71ZM120.676 322V310.9H122.221V322H120.676ZM127.805 322.15C127.035 322.15 126.345 321.975 125.735 321.625C125.135 321.265 124.66 320.78 124.31 320.17C123.96 319.55 123.785 318.845 123.785 318.055C123.785 317.265 123.96 316.565 124.31 315.955C124.66 315.335 125.135 314.85 125.735 314.5C126.345 314.14 127.035 313.96 127.805 313.96C128.565 313.96 129.245 314.14 129.845 314.5C130.455 314.85 130.935 315.335 131.285 315.955C131.635 316.565 131.81 317.265 131.81 318.055C131.81 318.845 131.635 319.55 131.285 320.17C130.935 320.78 130.455 321.265 129.845 321.625C129.245 321.975 128.565 322.15 127.805 322.15ZM127.805 320.74C128.275 320.74 128.695 320.625 129.065 320.395C129.435 320.155 129.725 319.835 129.935 319.435C130.145 319.025 130.245 318.565 130.235 318.055C130.245 317.535 130.145 317.075 129.935 316.675C129.725 316.265 129.435 315.945 129.065 315.715C128.695 315.485 128.275 315.37 127.805 315.37C127.335 315.37 126.91 315.49 126.53 315.73C126.16 315.96 125.87 316.28 125.66 316.69C125.45 317.09 125.35 317.545 125.36 318.055C125.35 318.565 125.45 319.025 125.66 319.435C125.87 319.835 126.16 320.155 126.53 320.395C126.91 320.625 127.335 320.74 127.805 320.74ZM136.523 322.15C135.873 322.15 135.278 321.97 134.738 321.61C134.208 321.25 133.783 320.76 133.463 320.14C133.143 319.52 132.983 318.82 132.983 318.04C132.983 317.25 133.143 316.55 133.463 315.94C133.793 315.32 134.233 314.835 134.783 314.485C135.343 314.135 135.968 313.96 136.658 313.96C137.068 313.96 137.443 314.02 137.783 314.14C138.123 314.26 138.418 314.43 138.668 314.65C138.928 314.86 139.138 315.105 139.298 315.385C139.468 315.665 139.573 315.965 139.613 316.285L139.268 316.165V314.125H140.828V322H139.268V320.125L139.628 320.02C139.568 320.29 139.443 320.555 139.253 320.815C139.073 321.065 138.838 321.29 138.548 321.49C138.268 321.69 137.953 321.85 137.603 321.97C137.263 322.09 136.903 322.15 136.523 322.15ZM136.928 320.725C137.398 320.725 137.813 320.61 138.173 320.38C138.533 320.15 138.813 319.835 139.013 319.435C139.223 319.025 139.328 318.56 139.328 318.04C139.328 317.53 139.223 317.075 139.013 316.675C138.813 316.275 138.533 315.96 138.173 315.73C137.813 315.5 137.398 315.385 136.928 315.385C136.468 315.385 136.058 315.5 135.698 315.73C135.348 315.96 135.068 316.275 134.858 316.675C134.658 317.075 134.558 317.53 134.558 318.04C134.558 318.56 134.658 319.025 134.858 319.435C135.068 319.835 135.348 320.15 135.698 320.38C136.058 320.61 136.468 320.725 136.928 320.725ZM146.27 322.15C145.55 322.15 144.905 321.975 144.335 321.625C143.775 321.265 143.33 320.78 143 320.17C142.67 319.55 142.505 318.845 142.505 318.055C142.505 317.265 142.665 316.565 142.985 315.955C143.315 315.335 143.76 314.85 144.32 314.5C144.88 314.14 145.515 313.96 146.225 313.96C146.615 313.96 146.99 314.025 147.35 314.155C147.72 314.275 148.05 314.445 148.34 314.665C148.63 314.875 148.855 315.11 149.015 315.37C149.185 315.62 149.27 315.875 149.27 316.135L148.82 316.165V310.9H150.365V322H148.82V320.125H149.12C149.12 320.365 149.04 320.605 148.88 320.845C148.72 321.075 148.505 321.29 148.235 321.49C147.975 321.69 147.67 321.85 147.32 321.97C146.98 322.09 146.63 322.15 146.27 322.15ZM146.48 320.815C146.95 320.815 147.365 320.695 147.725 320.455C148.085 320.215 148.365 319.89 148.565 319.48C148.775 319.06 148.88 318.585 148.88 318.055C148.88 317.525 148.775 317.055 148.565 316.645C148.365 316.225 148.085 315.895 147.725 315.655C147.365 315.415 146.95 315.295 146.48 315.295C146.01 315.295 145.595 315.415 145.235 315.655C144.875 315.895 144.59 316.225 144.38 316.645C144.18 317.055 144.08 317.525 144.08 318.055C144.08 318.585 144.18 319.06 144.38 319.48C144.59 319.89 144.875 320.215 145.235 320.455C145.595 320.695 146.01 320.815 146.48 320.815ZM161.346 322.15C160.616 322.15 159.946 322.02 159.336 321.76C158.726 321.5 158.196 321.13 157.746 320.65C157.296 320.16 156.946 319.585 156.696 318.925C156.456 318.265 156.336 317.54 156.336 316.75C156.336 316 156.466 315.305 156.726 314.665C156.996 314.015 157.366 313.445 157.836 312.955C158.306 312.465 158.851 312.085 159.471 311.815C160.091 311.545 160.761 311.41 161.481 311.41C161.991 311.41 162.486 311.49 162.966 311.65C163.456 311.8 163.896 312.015 164.286 312.295C164.686 312.565 165.011 312.875 165.261 313.225L164.181 314.35C163.891 314.06 163.596 313.82 163.296 313.63C163.006 313.43 162.706 313.28 162.396 313.18C162.096 313.08 161.791 313.03 161.481 313.03C160.991 313.03 160.531 313.125 160.101 313.315C159.681 313.495 159.311 313.75 158.991 314.08C158.681 314.41 158.436 314.805 158.256 315.265C158.076 315.715 157.986 316.21 157.986 316.75C157.986 317.32 158.071 317.84 158.241 318.31C158.421 318.77 158.671 319.165 158.991 319.495C159.311 319.825 159.691 320.08 160.131 320.26C160.581 320.43 161.076 320.515 161.616 320.515C161.946 320.515 162.271 320.47 162.591 320.38C162.911 320.29 163.211 320.16 163.491 319.99C163.771 319.82 164.026 319.62 164.256 319.39L165.066 320.71C164.836 320.98 164.521 321.225 164.121 321.445C163.731 321.665 163.291 321.84 162.801 321.97C162.321 322.09 161.836 322.15 161.346 322.15ZM166.877 322V310.9H168.422V315.745L168.152 315.925C168.252 315.575 168.447 315.255 168.737 314.965C169.027 314.665 169.372 314.425 169.772 314.245C170.172 314.055 170.582 313.96 171.002 313.96C171.602 313.96 172.102 314.08 172.502 314.32C172.902 314.55 173.202 314.905 173.402 315.385C173.602 315.865 173.702 316.47 173.702 317.2V322H172.157V317.305C172.157 316.855 172.097 316.485 171.977 316.195C171.857 315.895 171.672 315.68 171.422 315.55C171.172 315.41 170.862 315.35 170.492 315.37C170.192 315.37 169.917 315.42 169.667 315.52C169.417 315.61 169.197 315.74 169.007 315.91C168.827 316.08 168.682 316.28 168.572 316.51C168.472 316.73 168.422 316.97 168.422 317.23V322H167.657C167.527 322 167.397 322 167.267 322C167.137 322 167.007 322 166.877 322ZM179.473 322.15C178.663 322.15 177.943 321.98 177.313 321.64C176.693 321.29 176.203 320.815 175.843 320.215C175.493 319.615 175.318 318.925 175.318 318.145C175.318 317.525 175.418 316.96 175.618 316.45C175.818 315.94 176.093 315.5 176.443 315.13C176.803 314.75 177.228 314.46 177.718 314.26C178.218 314.05 178.758 313.945 179.338 313.945C179.848 313.945 180.323 314.045 180.763 314.245C181.203 314.435 181.583 314.7 181.903 315.04C182.233 315.38 182.483 315.785 182.653 316.255C182.833 316.715 182.918 317.22 182.908 317.77L182.893 318.43H176.458L176.113 317.2H181.558L181.333 317.455V317.095C181.303 316.765 181.193 316.47 181.003 316.21C180.813 315.95 180.573 315.745 180.283 315.595C179.993 315.445 179.678 315.37 179.338 315.37C178.798 315.37 178.343 315.475 177.973 315.685C177.603 315.885 177.323 316.185 177.133 316.585C176.943 316.975 176.848 317.46 176.848 318.04C176.848 318.59 176.963 319.07 177.193 319.48C177.423 319.88 177.748 320.19 178.168 320.41C178.588 320.63 179.073 320.74 179.623 320.74C180.013 320.74 180.373 320.675 180.703 320.545C181.043 320.415 181.408 320.18 181.798 319.84L182.578 320.935C182.338 321.175 182.043 321.385 181.693 321.565C181.353 321.745 180.988 321.89 180.598 322C180.218 322.1 179.843 322.15 179.473 322.15ZM190.332 325.3V320.125H190.632C190.632 320.365 190.552 320.605 190.392 320.845C190.232 321.075 190.017 321.29 189.747 321.49C189.477 321.69 189.177 321.85 188.847 321.97C188.517 322.09 188.177 322.15 187.827 322.15C187.117 322.15 186.482 321.975 185.922 321.625C185.362 321.265 184.917 320.78 184.587 320.17C184.267 319.55 184.107 318.845 184.107 318.055C184.107 317.265 184.267 316.565 184.587 315.955C184.907 315.335 185.342 314.85 185.892 314.5C186.452 314.14 187.082 313.96 187.782 313.96C188.172 313.96 188.542 314.025 188.892 314.155C189.252 314.285 189.572 314.455 189.852 314.665C190.142 314.875 190.367 315.11 190.527 315.37C190.697 315.62 190.782 315.875 190.782 316.135L190.332 316.165V314.11H191.877V325.3H190.332ZM187.992 320.725C188.462 320.725 188.877 320.61 189.237 320.38C189.597 320.15 189.877 319.835 190.077 319.435C190.287 319.035 190.392 318.575 190.392 318.055C190.392 317.535 190.287 317.075 190.077 316.675C189.877 316.265 189.597 315.945 189.237 315.715C188.877 315.485 188.462 315.37 187.992 315.37C187.522 315.37 187.107 315.49 186.747 315.73C186.387 315.96 186.102 316.28 185.892 316.69C185.692 317.09 185.592 317.545 185.592 318.055C185.592 318.565 185.692 319.025 185.892 319.435C186.102 319.835 186.387 320.15 186.747 320.38C187.107 320.61 187.522 320.725 187.992 320.725ZM196.795 322.15C196.235 322.15 195.745 322.02 195.325 321.76C194.915 321.5 194.595 321.135 194.365 320.665C194.145 320.195 194.035 319.635 194.035 318.985V314.125H195.58V318.565C195.58 319.025 195.65 319.425 195.79 319.765C195.94 320.095 196.15 320.35 196.42 320.53C196.7 320.71 197.035 320.8 197.425 320.8C197.715 320.8 197.98 320.755 198.22 320.665C198.46 320.565 198.665 320.43 198.835 320.26C199.015 320.09 199.155 319.885 199.255 319.645C199.355 319.405 199.405 319.145 199.405 318.865V314.125H200.95V322H199.405V320.35L199.675 320.17C199.555 320.54 199.35 320.875 199.06 321.175C198.78 321.475 198.445 321.715 198.055 321.895C197.665 322.065 197.245 322.15 196.795 322.15ZM206.792 322.15C205.982 322.15 205.262 321.98 204.632 321.64C204.012 321.29 203.522 320.815 203.162 320.215C202.812 319.615 202.637 318.925 202.637 318.145C202.637 317.525 202.737 316.96 202.937 316.45C203.137 315.94 203.412 315.5 203.762 315.13C204.122 314.75 204.547 314.46 205.037 314.26C205.537 314.05 206.077 313.945 206.657 313.945C207.167 313.945 207.642 314.045 208.082 314.245C208.522 314.435 208.902 314.7 209.222 315.04C209.552 315.38 209.802 315.785 209.972 316.255C210.152 316.715 210.237 317.22 210.227 317.77L210.212 318.43H203.777L203.432 317.2H208.877L208.652 317.455V317.095C208.622 316.765 208.512 316.47 208.322 316.21C208.132 315.95 207.892 315.745 207.602 315.595C207.312 315.445 206.997 315.37 206.657 315.37C206.117 315.37 205.662 315.475 205.292 315.685C204.922 315.885 204.642 316.185 204.452 316.585C204.262 316.975 204.167 317.46 204.167 318.04C204.167 318.59 204.282 319.07 204.512 319.48C204.742 319.88 205.067 320.19 205.487 320.41C205.907 320.63 206.392 320.74 206.942 320.74C207.332 320.74 207.692 320.675 208.022 320.545C208.362 320.415 208.727 320.18 209.117 319.84L209.897 320.935C209.657 321.175 209.362 321.385 209.012 321.565C208.672 321.745 208.307 321.89 207.917 322C207.537 322.1 207.162 322.15 206.792 322.15Z" fill="#C4C4C4"/>
<path d="M375.55 312.756L379.906 308.916V320.656C379.906 320.985 380.172 321.25 380.5 321.25C380.828 321.25 381.094 320.985 381.094 320.656V308.916L385.45 312.787C385.562 312.89 385.703 312.938 385.844 312.938C386.007 312.938 386.171 312.871 386.288 312.738C386.506 312.494 386.483 312.118 386.238 311.9L380.894 307.15C380.669 306.95 380.331 306.95 380.106 307.15L374.762 311.9C374.517 312.118 374.494 312.492 374.711 312.737C374.928 312.982 375.308 313.005 375.55 312.756ZM387.625 318.875H383.469C383.141 318.875 382.875 319.141 382.875 319.469C382.875 319.797 383.141 320.063 383.469 320.063H387.625C388.281 320.063 388.812 320.594 388.812 321.25V323.625C388.812 324.281 388.281 324.813 387.625 324.813H373.375C372.719 324.813 372.188 324.281 372.188 323.625V321.25C372.188 320.594 372.719 320.063 373.375 320.063H377.531C377.858 320.063 378.125 319.795 378.125 319.469C378.125 319.142 377.858 318.875 377.531 318.875H373.375C372.063 318.875 371 319.938 371 321.25V323.625C371 324.937 372.063 326 373.375 326H387.625C388.937 326 390 324.937 390 323.625V321.25C390 319.94 388.935 318.875 387.625 318.875ZM387.328 322.438C387.328 321.946 386.929 321.547 386.438 321.547C385.946 321.547 385.547 321.946 385.547 322.438C385.547 322.929 385.946 323.328 386.438 323.328C386.929 323.328 387.328 322.931 387.328 322.438Z" fill="black"/>
<rect x="83" y="136" width="154" height="62" rx="9" fill="white"/>
<rect x="83" y="208" width="154" height="62" rx="9" fill="white"/>
<rect x="244" y="136" width="154" height="62" rx="9" fill="white"/>
<path d="M96.82 156.1C96.3333 156.1 95.8867 156.013 95.48 155.84C95.0733 155.667 94.72 155.42 94.42 155.1C94.12 154.773 93.8867 154.39 93.72 153.95C93.56 153.51 93.48 153.027 93.48 152.5C93.48 152 93.5667 151.537 93.74 151.11C93.92 150.677 94.1667 150.297 94.48 149.97C94.7933 149.643 95.1567 149.39 95.57 149.21C95.9833 149.03 96.43 148.94 96.91 148.94C97.25 148.94 97.58 148.993 97.9 149.1C98.2267 149.2 98.52 149.343 98.78 149.53C99.0467 149.71 99.2633 149.917 99.43 150.15L98.71 150.9C98.5167 150.707 98.32 150.547 98.12 150.42C97.9267 150.287 97.7267 150.187 97.52 150.12C97.32 150.053 97.1167 150.02 96.91 150.02C96.5833 150.02 96.2767 150.083 95.99 150.21C95.71 150.33 95.4633 150.5 95.25 150.72C95.0433 150.94 94.88 151.203 94.76 151.51C94.64 151.81 94.58 152.14 94.58 152.5C94.58 152.88 94.6367 153.227 94.75 153.54C94.87 153.847 95.0367 154.11 95.25 154.33C95.4633 154.55 95.7167 154.72 96.01 154.84C96.31 154.953 96.64 155.01 97 155.01C97.22 155.01 97.4367 154.98 97.65 154.92C97.8633 154.86 98.0633 154.773 98.25 154.66C98.4367 154.547 98.6067 154.413 98.76 154.26L99.3 155.14C99.1467 155.32 98.9367 155.483 98.67 155.63C98.41 155.777 98.1167 155.893 97.79 155.98C97.47 156.06 97.1467 156.1 96.82 156.1ZM100.507 156V148.6H101.537V151.83L101.357 151.95C101.424 151.717 101.554 151.503 101.747 151.31C101.94 151.11 102.17 150.95 102.437 150.83C102.704 150.703 102.977 150.64 103.257 150.64C103.657 150.64 103.99 150.72 104.257 150.88C104.524 151.033 104.724 151.27 104.857 151.59C104.99 151.91 105.057 152.313 105.057 152.8V156H104.027V152.87C104.027 152.57 103.987 152.323 103.907 152.13C103.827 151.93 103.704 151.787 103.537 151.7C103.37 151.607 103.164 151.567 102.917 151.58C102.717 151.58 102.534 151.613 102.367 151.68C102.2 151.74 102.054 151.827 101.927 151.94C101.807 152.053 101.71 152.187 101.637 152.34C101.57 152.487 101.537 152.647 101.537 152.82V156H101.027C100.94 156 100.854 156 100.767 156C100.68 156 100.594 156 100.507 156ZM108.904 156.1C108.364 156.1 107.884 155.987 107.464 155.76C107.051 155.527 106.724 155.21 106.484 154.81C106.251 154.41 106.134 153.95 106.134 153.43C106.134 153.017 106.201 152.64 106.334 152.3C106.468 151.96 106.651 151.667 106.884 151.42C107.124 151.167 107.408 150.973 107.734 150.84C108.068 150.7 108.428 150.63 108.814 150.63C109.154 150.63 109.471 150.697 109.764 150.83C110.058 150.957 110.311 151.133 110.524 151.36C110.744 151.587 110.911 151.857 111.024 152.17C111.144 152.477 111.201 152.813 111.194 153.18L111.184 153.62H106.894L106.664 152.8H110.294L110.144 152.97V152.73C110.124 152.51 110.051 152.313 109.924 152.14C109.798 151.967 109.638 151.83 109.444 151.73C109.251 151.63 109.041 151.58 108.814 151.58C108.454 151.58 108.151 151.65 107.904 151.79C107.658 151.923 107.471 152.123 107.344 152.39C107.218 152.65 107.154 152.973 107.154 153.36C107.154 153.727 107.231 154.047 107.384 154.32C107.538 154.587 107.754 154.793 108.034 154.94C108.314 155.087 108.638 155.16 109.004 155.16C109.264 155.16 109.504 155.117 109.724 155.03C109.951 154.943 110.194 154.787 110.454 154.56L110.974 155.29C110.814 155.45 110.618 155.59 110.384 155.71C110.158 155.83 109.914 155.927 109.654 156C109.401 156.067 109.151 156.1 108.904 156.1ZM116.144 158.2V154.75H116.344C116.344 154.91 116.29 155.07 116.184 155.23C116.077 155.383 115.934 155.527 115.754 155.66C115.574 155.793 115.374 155.9 115.154 155.98C114.934 156.06 114.707 156.1 114.474 156.1C114 156.1 113.577 155.983 113.204 155.75C112.83 155.51 112.534 155.187 112.314 154.78C112.1 154.367 111.994 153.897 111.994 153.37C111.994 152.843 112.1 152.377 112.314 151.97C112.527 151.557 112.817 151.233 113.184 151C113.557 150.76 113.977 150.64 114.444 150.64C114.704 150.64 114.95 150.683 115.184 150.77C115.424 150.857 115.637 150.97 115.824 151.11C116.017 151.25 116.167 151.407 116.274 151.58C116.387 151.747 116.444 151.917 116.444 152.09L116.144 152.11V150.74H117.174V158.2H116.144ZM114.584 155.15C114.897 155.15 115.174 155.073 115.414 154.92C115.654 154.767 115.84 154.557 115.974 154.29C116.114 154.023 116.184 153.717 116.184 153.37C116.184 153.023 116.114 152.717 115.974 152.45C115.84 152.177 115.654 151.963 115.414 151.81C115.174 151.657 114.897 151.58 114.584 151.58C114.27 151.58 113.994 151.66 113.754 151.82C113.514 151.973 113.324 152.187 113.184 152.46C113.05 152.727 112.984 153.03 112.984 153.37C112.984 153.71 113.05 154.017 113.184 154.29C113.324 154.557 113.514 154.767 113.754 154.92C113.994 155.073 114.27 155.15 114.584 155.15ZM120.453 156.1C120.079 156.1 119.753 156.013 119.473 155.84C119.199 155.667 118.986 155.423 118.833 155.11C118.686 154.797 118.613 154.423 118.613 153.99V150.75H119.643V153.71C119.643 154.017 119.689 154.283 119.783 154.51C119.883 154.73 120.023 154.9 120.203 155.02C120.389 155.14 120.613 155.2 120.873 155.2C121.066 155.2 121.243 155.17 121.403 155.11C121.563 155.043 121.699 154.953 121.813 154.84C121.933 154.727 122.026 154.59 122.093 154.43C122.159 154.27 122.193 154.097 122.193 153.91V150.75H123.223V156H122.193V154.9L122.373 154.78C122.293 155.027 122.156 155.25 121.963 155.45C121.776 155.65 121.553 155.81 121.293 155.93C121.033 156.043 120.753 156.1 120.453 156.1ZM127.117 156.1C126.577 156.1 126.097 155.987 125.677 155.76C125.264 155.527 124.937 155.21 124.697 154.81C124.464 154.41 124.347 153.95 124.347 153.43C124.347 153.017 124.414 152.64 124.547 152.3C124.681 151.96 124.864 151.667 125.097 151.42C125.337 151.167 125.621 150.973 125.947 150.84C126.281 150.7 126.641 150.63 127.027 150.63C127.367 150.63 127.684 150.697 127.977 150.83C128.271 150.957 128.524 151.133 128.737 151.36C128.957 151.587 129.124 151.857 129.237 152.17C129.357 152.477 129.414 152.813 129.407 153.18L129.397 153.62H125.107L124.877 152.8H128.507L128.357 152.97V152.73C128.337 152.51 128.264 152.313 128.137 152.14C128.011 151.967 127.851 151.83 127.657 151.73C127.464 151.63 127.254 151.58 127.027 151.58C126.667 151.58 126.364 151.65 126.117 151.79C125.871 151.923 125.684 152.123 125.557 152.39C125.431 152.65 125.367 152.973 125.367 153.36C125.367 153.727 125.444 154.047 125.597 154.32C125.751 154.587 125.967 154.793 126.247 154.94C126.527 155.087 126.851 155.16 127.217 155.16C127.477 155.16 127.717 155.117 127.937 155.03C128.164 154.943 128.407 154.787 128.667 154.56L129.187 155.29C129.027 155.45 128.831 155.59 128.597 155.71C128.371 155.83 128.127 155.927 127.867 156C127.614 156.067 127.364 156.1 127.117 156.1ZM133.589 156V149H134.559L138.839 154.73L138.679 154.82C138.653 154.653 138.629 154.473 138.609 154.28C138.589 154.08 138.569 153.87 138.549 153.65C138.536 153.423 138.523 153.187 138.509 152.94C138.503 152.687 138.496 152.423 138.489 152.15C138.483 151.877 138.479 151.593 138.479 151.3V149H139.559V156H138.569L134.359 150.48L134.469 150.34C134.503 150.747 134.529 151.093 134.549 151.38C134.576 151.66 134.596 151.9 134.609 152.1C134.629 152.293 134.643 152.453 134.649 152.58C134.656 152.7 134.659 152.8 134.659 152.88C134.666 152.96 134.669 153.03 134.669 153.09V156H133.589ZM143.619 156.1C143.106 156.1 142.646 155.983 142.239 155.75C141.839 155.51 141.522 155.187 141.289 154.78C141.056 154.367 140.939 153.897 140.939 153.37C140.939 152.843 141.056 152.377 141.289 151.97C141.522 151.557 141.839 151.233 142.239 151C142.646 150.76 143.106 150.64 143.619 150.64C144.126 150.64 144.579 150.76 144.979 151C145.386 151.233 145.706 151.557 145.939 151.97C146.172 152.377 146.289 152.843 146.289 153.37C146.289 153.897 146.172 154.367 145.939 154.78C145.706 155.187 145.386 155.51 144.979 155.75C144.579 155.983 144.126 156.1 143.619 156.1ZM143.619 155.16C143.932 155.16 144.212 155.083 144.459 154.93C144.706 154.77 144.899 154.557 145.039 154.29C145.179 154.017 145.246 153.71 145.239 153.37C145.246 153.023 145.179 152.717 145.039 152.45C144.899 152.177 144.706 151.963 144.459 151.81C144.212 151.657 143.932 151.58 143.619 151.58C143.306 151.58 143.022 151.66 142.769 151.82C142.522 151.973 142.329 152.187 142.189 152.46C142.049 152.727 141.982 153.03 141.989 153.37C141.982 153.71 142.049 154.017 142.189 154.29C142.329 154.557 142.522 154.77 142.769 154.93C143.022 155.083 143.306 155.16 143.619 155.16Z" fill="#3B3B3B"/>
<rect x="244" y="208" width="154" height="62" rx="9" fill="white"/>
<path d="M96.82 228.1C96.3333 228.1 95.8867 228.013 95.48 227.84C95.0733 227.667 94.72 227.42 94.42 227.1C94.12 226.773 93.8867 226.39 93.72 225.95C93.56 225.51 93.48 225.027 93.48 224.5C93.48 224 93.5667 223.537 93.74 223.11C93.92 222.677 94.1667 222.297 94.48 221.97C94.7933 221.643 95.1567 221.39 95.57 221.21C95.9833 221.03 96.43 220.94 96.91 220.94C97.25 220.94 97.58 220.993 97.9 221.1C98.2267 221.2 98.52 221.343 98.78 221.53C99.0467 221.71 99.2633 221.917 99.43 222.15L98.71 222.9C98.5167 222.707 98.32 222.547 98.12 222.42C97.9267 222.287 97.7267 222.187 97.52 222.12C97.32 222.053 97.1167 222.02 96.91 222.02C96.5833 222.02 96.2767 222.083 95.99 222.21C95.71 222.33 95.4633 222.5 95.25 222.72C95.0433 222.94 94.88 223.203 94.76 223.51C94.64 223.81 94.58 224.14 94.58 224.5C94.58 224.88 94.6367 225.227 94.75 225.54C94.87 225.847 95.0367 226.11 95.25 226.33C95.4633 226.55 95.7167 226.72 96.01 226.84C96.31 226.953 96.64 227.01 97 227.01C97.22 227.01 97.4367 226.98 97.65 226.92C97.8633 226.86 98.0633 226.773 98.25 226.66C98.4367 226.547 98.6067 226.413 98.76 226.26L99.3 227.14C99.1467 227.32 98.9367 227.483 98.67 227.63C98.41 227.777 98.1167 227.893 97.79 227.98C97.47 228.06 97.1467 228.1 96.82 228.1ZM100.507 228V220.6H101.537V223.83L101.357 223.95C101.424 223.717 101.554 223.503 101.747 223.31C101.94 223.11 102.17 222.95 102.437 222.83C102.704 222.703 102.977 222.64 103.257 222.64C103.657 222.64 103.99 222.72 104.257 222.88C104.524 223.033 104.724 223.27 104.857 223.59C104.99 223.91 105.057 224.313 105.057 224.8V228H104.027V224.87C104.027 224.57 103.987 224.323 103.907 224.13C103.827 223.93 103.704 223.787 103.537 223.7C103.37 223.607 103.164 223.567 102.917 223.58C102.717 223.58 102.534 223.613 102.367 223.68C102.2 223.74 102.054 223.827 101.927 223.94C101.807 224.053 101.71 224.187 101.637 224.34C101.57 224.487 101.537 224.647 101.537 224.82V228H101.027C100.94 228 100.854 228 100.767 228C100.68 228 100.594 228 100.507 228ZM108.904 228.1C108.364 228.1 107.884 227.987 107.464 227.76C107.051 227.527 106.724 227.21 106.484 226.81C106.251 226.41 106.134 225.95 106.134 225.43C106.134 225.017 106.201 224.64 106.334 224.3C106.468 223.96 106.651 223.667 106.884 223.42C107.124 223.167 107.408 222.973 107.734 222.84C108.068 222.7 108.428 222.63 108.814 222.63C109.154 222.63 109.471 222.697 109.764 222.83C110.058 222.957 110.311 223.133 110.524 223.36C110.744 223.587 110.911 223.857 111.024 224.17C111.144 224.477 111.201 224.813 111.194 225.18L111.184 225.62H106.894L106.664 224.8H110.294L110.144 224.97V224.73C110.124 224.51 110.051 224.313 109.924 224.14C109.798 223.967 109.638 223.83 109.444 223.73C109.251 223.63 109.041 223.58 108.814 223.58C108.454 223.58 108.151 223.65 107.904 223.79C107.658 223.923 107.471 224.123 107.344 224.39C107.218 224.65 107.154 224.973 107.154 225.36C107.154 225.727 107.231 226.047 107.384 226.32C107.538 226.587 107.754 226.793 108.034 226.94C108.314 227.087 108.638 227.16 109.004 227.16C109.264 227.16 109.504 227.117 109.724 227.03C109.951 226.943 110.194 226.787 110.454 226.56L110.974 227.29C110.814 227.45 110.618 227.59 110.384 227.71C110.158 227.83 109.914 227.927 109.654 228C109.401 228.067 109.151 228.1 108.904 228.1ZM116.144 230.2V226.75H116.344C116.344 226.91 116.29 227.07 116.184 227.23C116.077 227.383 115.934 227.527 115.754 227.66C115.574 227.793 115.374 227.9 115.154 227.98C114.934 228.06 114.707 228.1 114.474 228.1C114 228.1 113.577 227.983 113.204 227.75C112.83 227.51 112.534 227.187 112.314 226.78C112.1 226.367 111.994 225.897 111.994 225.37C111.994 224.843 112.1 224.377 112.314 223.97C112.527 223.557 112.817 223.233 113.184 223C113.557 222.76 113.977 222.64 114.444 222.64C114.704 222.64 114.95 222.683 115.184 222.77C115.424 222.857 115.637 222.97 115.824 223.11C116.017 223.25 116.167 223.407 116.274 223.58C116.387 223.747 116.444 223.917 116.444 224.09L116.144 224.11V222.74H117.174V230.2H116.144ZM114.584 227.15C114.897 227.15 115.174 227.073 115.414 226.92C115.654 226.767 115.84 226.557 115.974 226.29C116.114 226.023 116.184 225.717 116.184 225.37C116.184 225.023 116.114 224.717 115.974 224.45C115.84 224.177 115.654 223.963 115.414 223.81C115.174 223.657 114.897 223.58 114.584 223.58C114.27 223.58 113.994 223.66 113.754 223.82C113.514 223.973 113.324 224.187 113.184 224.46C113.05 224.727 112.984 225.03 112.984 225.37C112.984 225.71 113.05 226.017 113.184 226.29C113.324 226.557 113.514 226.767 113.754 226.92C113.994 227.073 114.27 227.15 114.584 227.15ZM120.453 228.1C120.079 228.1 119.753 228.013 119.473 227.84C119.199 227.667 118.986 227.423 118.833 227.11C118.686 226.797 118.613 226.423 118.613 225.99V222.75H119.643V225.71C119.643 226.017 119.689 226.283 119.783 226.51C119.883 226.73 120.023 226.9 120.203 227.02C120.389 227.14 120.613 227.2 120.873 227.2C121.066 227.2 121.243 227.17 121.403 227.11C121.563 227.043 121.699 226.953 121.813 226.84C121.933 226.727 122.026 226.59 122.093 226.43C122.159 226.27 122.193 226.097 122.193 225.91V222.75H123.223V228H122.193V226.9L122.373 226.78C122.293 227.027 122.156 227.25 121.963 227.45C121.776 227.65 121.553 227.81 121.293 227.93C121.033 228.043 120.753 228.1 120.453 228.1ZM127.117 228.1C126.577 228.1 126.097 227.987 125.677 227.76C125.264 227.527 124.937 227.21 124.697 226.81C124.464 226.41 124.347 225.95 124.347 225.43C124.347 225.017 124.414 224.64 124.547 224.3C124.681 223.96 124.864 223.667 125.097 223.42C125.337 223.167 125.621 222.973 125.947 222.84C126.281 222.7 126.641 222.63 127.027 222.63C127.367 222.63 127.684 222.697 127.977 222.83C128.271 222.957 128.524 223.133 128.737 223.36C128.957 223.587 129.124 223.857 129.237 224.17C129.357 224.477 129.414 224.813 129.407 225.18L129.397 225.62H125.107L124.877 224.8H128.507L128.357 224.97V224.73C128.337 224.51 128.264 224.313 128.137 224.14C128.011 223.967 127.851 223.83 127.657 223.73C127.464 223.63 127.254 223.58 127.027 223.58C126.667 223.58 126.364 223.65 126.117 223.79C125.871 223.923 125.684 224.123 125.557 224.39C125.431 224.65 125.367 224.973 125.367 225.36C125.367 225.727 125.444 226.047 125.597 226.32C125.751 226.587 125.967 226.793 126.247 226.94C126.527 227.087 126.851 227.16 127.217 227.16C127.477 227.16 127.717 227.117 127.937 227.03C128.164 226.943 128.407 226.787 128.667 226.56L129.187 227.29C129.027 227.45 128.831 227.59 128.597 227.71C128.371 227.83 128.127 227.927 127.867 228C127.614 228.067 127.364 228.1 127.117 228.1ZM133.589 228V221H136.329C136.829 221 137.279 221.083 137.679 221.25C138.086 221.417 138.433 221.657 138.719 221.97C139.006 222.283 139.226 222.653 139.379 223.08C139.533 223.507 139.609 223.98 139.609 224.5C139.609 225.02 139.533 225.497 139.379 225.93C139.226 226.357 139.006 226.727 138.719 227.04C138.439 227.347 138.096 227.583 137.689 227.75C137.283 227.917 136.829 228 136.329 228H133.589ZM134.669 227.07L134.639 226.96H136.279C136.633 226.96 136.946 226.903 137.219 226.79C137.499 226.677 137.733 226.517 137.919 226.31C138.113 226.097 138.259 225.837 138.359 225.53C138.459 225.223 138.509 224.88 138.509 224.5C138.509 224.12 138.459 223.78 138.359 223.48C138.259 223.173 138.113 222.913 137.919 222.7C137.726 222.487 137.493 222.323 137.219 222.21C136.946 222.097 136.633 222.04 136.279 222.04H134.609L134.669 221.95V227.07ZM142.83 228.1C142.397 228.1 142 227.98 141.64 227.74C141.287 227.5 141.003 227.173 140.79 226.76C140.577 226.347 140.47 225.88 140.47 225.36C140.47 224.833 140.577 224.367 140.79 223.96C141.01 223.547 141.303 223.223 141.67 222.99C142.043 222.757 142.46 222.64 142.92 222.64C143.193 222.64 143.443 222.68 143.67 222.76C143.897 222.84 144.093 222.953 144.26 223.1C144.433 223.24 144.573 223.403 144.68 223.59C144.793 223.777 144.863 223.977 144.89 224.19L144.66 224.11V222.75H145.7V228H144.66V226.75L144.9 226.68C144.86 226.86 144.777 227.037 144.65 227.21C144.53 227.377 144.373 227.527 144.18 227.66C143.993 227.793 143.783 227.9 143.55 227.98C143.323 228.06 143.083 228.1 142.83 228.1ZM143.1 227.15C143.413 227.15 143.69 227.073 143.93 226.92C144.17 226.767 144.357 226.557 144.49 226.29C144.63 226.017 144.7 225.707 144.7 225.36C144.7 225.02 144.63 224.717 144.49 224.45C144.357 224.183 144.17 223.973 143.93 223.82C143.69 223.667 143.413 223.59 143.1 223.59C142.793 223.59 142.52 223.667 142.28 223.82C142.047 223.973 141.86 224.183 141.72 224.45C141.587 224.717 141.52 225.02 141.52 225.36C141.52 225.707 141.587 226.017 141.72 226.29C141.86 226.557 142.047 226.767 142.28 226.92C142.52 227.073 142.793 227.15 143.1 227.15ZM147.788 228V221.41H148.818V228H147.788ZM146.698 223.75V222.75H150.038V223.75H146.698ZM153.377 228.1C152.837 228.1 152.357 227.987 151.937 227.76C151.524 227.527 151.197 227.21 150.957 226.81C150.724 226.41 150.607 225.95 150.607 225.43C150.607 225.017 150.674 224.64 150.807 224.3C150.94 223.96 151.124 223.667 151.357 223.42C151.597 223.167 151.88 222.973 152.207 222.84C152.54 222.7 152.9 222.63 153.287 222.63C153.627 222.63 153.944 222.697 154.237 222.83C154.53 222.957 154.784 223.133 154.997 223.36C155.217 223.587 155.384 223.857 155.497 224.17C155.617 224.477 155.674 224.813 155.667 225.18L155.657 225.62H151.367L151.137 224.8H154.767L154.617 224.97V224.73C154.597 224.51 154.524 224.313 154.397 224.14C154.27 223.967 154.11 223.83 153.917 223.73C153.724 223.63 153.514 223.58 153.287 223.58C152.927 223.58 152.624 223.65 152.377 223.79C152.13 223.923 151.944 224.123 151.817 224.39C151.69 224.65 151.627 224.973 151.627 225.36C151.627 225.727 151.704 226.047 151.857 226.32C152.01 226.587 152.227 226.793 152.507 226.94C152.787 227.087 153.11 227.16 153.477 227.16C153.737 227.16 153.977 227.117 154.197 227.03C154.424 226.943 154.667 226.787 154.927 226.56L155.447 227.29C155.287 227.45 155.09 227.59 154.857 227.71C154.63 227.83 154.387 227.927 154.127 228C153.874 228.067 153.624 228.1 153.377 228.1Z" fill="#3B3B3B"/>
<rect x="104" y="175" width="98" height="7" rx="3.5" fill="#E4E6EA"/>
<path d="M254.98 156V149H257.9C258.347 149 258.723 149.067 259.03 149.2C259.337 149.333 259.567 149.533 259.72 149.8C259.88 150.06 259.96 150.38 259.96 150.76C259.96 151.14 259.853 151.463 259.64 151.73C259.433 151.997 259.143 152.18 258.77 152.28V152.08C259.083 152.147 259.357 152.267 259.59 152.44C259.823 152.607 260.003 152.817 260.13 153.07C260.263 153.323 260.33 153.613 260.33 153.94C260.33 154.273 260.277 154.57 260.17 154.83C260.07 155.083 259.917 155.297 259.71 155.47C259.51 155.643 259.267 155.777 258.98 155.87C258.693 155.957 258.367 156 258 156H254.98ZM256.06 154.96H257.94C258.213 154.96 258.443 154.92 258.63 154.84C258.823 154.76 258.97 154.643 259.07 154.49C259.177 154.33 259.23 154.14 259.23 153.92C259.23 153.713 259.173 153.537 259.06 153.39C258.953 153.243 258.8 153.133 258.6 153.06C258.4 152.98 258.163 152.94 257.89 152.94H256.06V154.96ZM256.06 151.9H257.84C258.04 151.9 258.217 151.86 258.37 151.78C258.53 151.7 258.653 151.59 258.74 151.45C258.833 151.31 258.88 151.15 258.88 150.97C258.88 150.67 258.78 150.44 258.58 150.28C258.38 150.12 258.093 150.04 257.72 150.04H256.06V151.9ZM263.537 156.1C263.104 156.1 262.707 155.98 262.347 155.74C261.994 155.5 261.71 155.173 261.497 154.76C261.284 154.347 261.177 153.88 261.177 153.36C261.177 152.833 261.284 152.367 261.497 151.96C261.717 151.547 262.01 151.223 262.377 150.99C262.75 150.757 263.167 150.64 263.627 150.64C263.9 150.64 264.15 150.68 264.377 150.76C264.604 150.84 264.8 150.953 264.967 151.1C265.14 151.24 265.28 151.403 265.387 151.59C265.5 151.777 265.57 151.977 265.597 152.19L265.367 152.11V150.75H266.407V156H265.367V154.75L265.607 154.68C265.567 154.86 265.484 155.037 265.357 155.21C265.237 155.377 265.08 155.527 264.887 155.66C264.7 155.793 264.49 155.9 264.257 155.98C264.03 156.06 263.79 156.1 263.537 156.1ZM263.807 155.15C264.12 155.15 264.397 155.073 264.637 154.92C264.877 154.767 265.064 154.557 265.197 154.29C265.337 154.017 265.407 153.707 265.407 153.36C265.407 153.02 265.337 152.717 265.197 152.45C265.064 152.183 264.877 151.973 264.637 151.82C264.397 151.667 264.12 151.59 263.807 151.59C263.5 151.59 263.227 151.667 262.987 151.82C262.754 151.973 262.567 152.183 262.427 152.45C262.294 152.717 262.227 153.02 262.227 153.36C262.227 153.707 262.294 154.017 262.427 154.29C262.567 154.557 262.754 154.767 262.987 154.92C263.227 155.073 263.5 155.15 263.807 155.15ZM267.845 156V150.75H268.875V151.83L268.695 151.95C268.762 151.717 268.892 151.503 269.085 151.31C269.278 151.11 269.508 150.95 269.775 150.83C270.042 150.703 270.315 150.64 270.595 150.64C270.995 150.64 271.328 150.72 271.595 150.88C271.862 151.033 272.062 151.27 272.195 151.59C272.328 151.91 272.395 152.313 272.395 152.8V156H271.365V152.87C271.365 152.57 271.325 152.323 271.245 152.13C271.165 151.93 271.042 151.787 270.875 151.7C270.708 151.607 270.502 151.567 270.255 151.58C270.055 151.58 269.872 151.613 269.705 151.68C269.538 151.74 269.392 151.827 269.265 151.94C269.145 152.053 269.048 152.187 268.975 152.34C268.908 152.487 268.875 152.647 268.875 152.82V156H268.365C268.278 156 268.192 156 268.105 156C268.018 156 267.932 156 267.845 156ZM274.732 154.36L274.682 153.24L277.192 150.75H278.582L274.732 154.36ZM273.792 156V148.6H274.822V156H273.792ZM277.332 156L275.352 153.69L276.082 153.02L278.652 156H277.332Z" fill="#3B3B3B"/>
<path d="M254.25 228L256.96 221H258.06L260.75 228H259.6L258 223.78C257.98 223.733 257.94 223.62 257.88 223.44C257.827 223.26 257.763 223.06 257.69 222.84C257.617 222.62 257.55 222.42 257.49 222.24C257.43 222.053 257.39 221.933 257.37 221.88L257.6 221.87C257.56 221.983 257.51 222.127 257.45 222.3C257.397 222.473 257.337 222.657 257.27 222.85C257.21 223.043 257.15 223.227 257.09 223.4C257.03 223.567 256.98 223.707 256.94 223.82L255.35 228H254.25ZM255.45 226.26L255.85 225.22H259.03L259.49 226.26H255.45ZM261.702 228V222.75H262.742V223.87L262.552 223.99C262.605 223.817 262.689 223.65 262.802 223.49C262.922 223.33 263.065 223.19 263.232 223.07C263.405 222.943 263.589 222.843 263.782 222.77C263.982 222.697 264.185 222.66 264.392 222.66C264.692 222.66 264.955 222.71 265.182 222.81C265.409 222.91 265.595 223.06 265.742 223.26C265.889 223.46 265.995 223.71 266.062 224.01L265.902 223.97L265.972 223.8C266.045 223.647 266.145 223.503 266.272 223.37C266.405 223.23 266.555 223.107 266.722 223C266.889 222.893 267.065 222.81 267.252 222.75C267.439 222.69 267.622 222.66 267.802 222.66C268.195 222.66 268.519 222.74 268.772 222.9C269.032 223.06 269.225 223.303 269.352 223.63C269.485 223.957 269.552 224.363 269.552 224.85V228H268.512V224.91C268.512 224.61 268.472 224.367 268.392 224.18C268.319 223.987 268.205 223.843 268.052 223.75C267.899 223.657 267.702 223.61 267.462 223.61C267.275 223.61 267.099 223.643 266.932 223.71C266.772 223.77 266.632 223.857 266.512 223.97C266.392 224.083 266.299 224.217 266.232 224.37C266.165 224.517 266.132 224.68 266.132 224.86V228H265.092V224.89C265.092 224.617 265.052 224.387 264.972 224.2C264.892 224.007 264.775 223.86 264.622 223.76C264.469 223.66 264.282 223.61 264.062 223.61C263.875 223.61 263.702 223.643 263.542 223.71C263.382 223.77 263.242 223.857 263.122 223.97C263.002 224.077 262.909 224.207 262.842 224.36C262.775 224.507 262.742 224.667 262.742 224.84V228H261.702ZM273.291 228.1C272.778 228.1 272.318 227.983 271.911 227.75C271.511 227.51 271.194 227.187 270.961 226.78C270.728 226.367 270.611 225.897 270.611 225.37C270.611 224.843 270.728 224.377 270.961 223.97C271.194 223.557 271.511 223.233 271.911 223C272.318 222.76 272.778 222.64 273.291 222.64C273.798 222.64 274.251 222.76 274.651 223C275.058 223.233 275.378 223.557 275.611 223.97C275.844 224.377 275.961 224.843 275.961 225.37C275.961 225.897 275.844 226.367 275.611 226.78C275.378 227.187 275.058 227.51 274.651 227.75C274.251 227.983 273.798 228.1 273.291 228.1ZM273.291 227.16C273.604 227.16 273.884 227.083 274.131 226.93C274.378 226.77 274.571 226.557 274.711 226.29C274.851 226.017 274.918 225.71 274.911 225.37C274.918 225.023 274.851 224.717 274.711 224.45C274.571 224.177 274.378 223.963 274.131 223.81C273.884 223.657 273.604 223.58 273.291 223.58C272.978 223.58 272.694 223.66 272.441 223.82C272.194 223.973 272.001 224.187 271.861 224.46C271.721 224.727 271.654 225.03 271.661 225.37C271.654 225.71 271.721 226.017 271.861 226.29C272.001 226.557 272.194 226.77 272.441 226.93C272.694 227.083 272.978 227.16 273.291 227.16ZM278.923 228.1C278.55 228.1 278.223 228.013 277.943 227.84C277.67 227.667 277.457 227.423 277.303 227.11C277.157 226.797 277.083 226.423 277.083 225.99V222.75H278.113V225.71C278.113 226.017 278.16 226.283 278.253 226.51C278.353 226.73 278.493 226.9 278.673 227.02C278.86 227.14 279.083 227.2 279.343 227.2C279.537 227.2 279.713 227.17 279.873 227.11C280.033 227.043 280.17 226.953 280.283 226.84C280.403 226.727 280.497 226.59 280.563 226.43C280.63 226.27 280.663 226.097 280.663 225.91V222.75H281.693V228H280.663V226.9L280.843 226.78C280.763 227.027 280.627 227.25 280.433 227.45C280.247 227.65 280.023 227.81 279.763 227.93C279.503 228.043 279.223 228.1 278.923 228.1ZM283.138 228V222.75H284.168V223.83L283.988 223.95C284.055 223.717 284.185 223.503 284.378 223.31C284.571 223.11 284.801 222.95 285.068 222.83C285.335 222.703 285.608 222.64 285.888 222.64C286.288 222.64 286.621 222.72 286.888 222.88C287.155 223.033 287.355 223.27 287.488 223.59C287.621 223.91 287.688 224.313 287.688 224.8V228H286.658V224.87C286.658 224.57 286.618 224.323 286.538 224.13C286.458 223.93 286.335 223.787 286.168 223.7C286.001 223.607 285.795 223.567 285.548 223.58C285.348 223.58 285.165 223.613 284.998 223.68C284.831 223.74 284.685 223.827 284.558 223.94C284.438 224.053 284.341 224.187 284.268 224.34C284.201 224.487 284.168 224.647 284.168 224.82V228H283.658C283.571 228 283.485 228 283.398 228C283.311 228 283.225 228 283.138 228ZM289.735 228V221.41H290.765V228H289.735ZM288.645 223.75V222.75H291.985V223.75H288.645Z" fill="#3B3B3B"/>
<rect x="93.25" y="165.25" width="133.5" height="26.5" rx="3.75" stroke="#E4E6EA" stroke-width="0.5"/>
<rect x="104" y="247" width="112" height="7" rx="3.5" fill="#E4E6EA"/>
<rect x="265" y="175" width="111" height="7" rx="3.5" fill="#E4E6EA"/>
<rect x="265" y="247" width="112" height="7" rx="3.5" fill="#E4E6EA"/>
<rect x="93.25" y="237.25" width="133.5" height="26.5" rx="3.75" stroke="#E4E6EA" stroke-width="0.5"/>
<rect x="254.25" y="165.25" width="133.5" height="26.5" rx="3.75" stroke="#E4E6EA" stroke-width="0.5"/>
<rect x="254.25" y="237.25" width="133.5" height="26.5" rx="3.75" stroke="#E4E6EA" stroke-width="0.5"/>
<rect x="82" y="402" width="315" height="41" rx="6" fill="#0900FF"/>
<path d="M226.452 427.14C225.845 427.14 225.29 427.065 224.786 426.916C224.291 426.767 223.848 426.547 223.456 426.258C223.073 425.969 222.728 425.619 222.42 425.208L223.736 423.71C224.193 424.345 224.646 424.779 225.094 425.012C225.551 425.236 226.046 425.348 226.578 425.348C226.867 425.348 227.124 425.306 227.348 425.222C227.581 425.138 227.763 425.026 227.894 424.886C228.025 424.737 228.09 424.559 228.09 424.354C228.09 424.205 228.057 424.069 227.992 423.948C227.927 423.817 227.833 423.705 227.712 423.612C227.591 423.509 227.446 423.421 227.278 423.346C227.11 423.262 226.923 423.192 226.718 423.136C226.513 423.071 226.289 423.019 226.046 422.982C225.523 422.861 225.066 422.716 224.674 422.548C224.282 422.371 223.955 422.156 223.694 421.904C223.433 421.643 223.237 421.349 223.106 421.022C222.985 420.695 222.924 420.327 222.924 419.916C222.924 419.496 223.017 419.109 223.204 418.754C223.391 418.39 223.647 418.077 223.974 417.816C224.31 417.555 224.693 417.354 225.122 417.214C225.561 417.074 226.023 417.004 226.508 417.004C227.105 417.004 227.628 417.069 228.076 417.2C228.524 417.331 228.911 417.527 229.238 417.788C229.574 418.04 229.854 418.348 230.078 418.712L228.748 420C228.552 419.739 228.337 419.519 228.104 419.342C227.88 419.165 227.633 419.034 227.362 418.95C227.101 418.857 226.83 418.81 226.55 418.81C226.242 418.81 225.976 418.852 225.752 418.936C225.528 419.011 225.351 419.127 225.22 419.286C225.099 419.435 225.038 419.613 225.038 419.818C225.038 419.986 225.08 420.135 225.164 420.266C225.248 420.397 225.369 420.513 225.528 420.616C225.687 420.709 225.878 420.793 226.102 420.868C226.326 420.943 226.573 421.008 226.844 421.064C227.357 421.167 227.819 421.302 228.23 421.47C228.641 421.638 228.991 421.843 229.28 422.086C229.579 422.319 229.807 422.599 229.966 422.926C230.125 423.243 230.204 423.603 230.204 424.004C230.204 424.667 230.045 425.231 229.728 425.698C229.411 426.165 228.972 426.524 228.412 426.776C227.852 427.019 227.199 427.14 226.452 427.14ZM234.598 427.14C233.982 427.14 233.427 426.972 232.932 426.636C232.437 426.3 232.045 425.843 231.756 425.264C231.467 424.685 231.322 424.023 231.322 423.276C231.322 422.529 231.467 421.867 231.756 421.288C232.055 420.709 232.456 420.257 232.96 419.93C233.464 419.603 234.038 419.44 234.682 419.44C235.046 419.44 235.377 419.496 235.676 419.608C235.984 419.711 236.25 419.855 236.474 420.042C236.707 420.229 236.903 420.443 237.062 420.686C237.221 420.929 237.333 421.19 237.398 421.47L236.978 421.4V419.594H238.952V427H236.95V425.222L237.398 425.18C237.323 425.441 237.202 425.689 237.034 425.922C236.866 426.155 236.656 426.365 236.404 426.552C236.161 426.729 235.886 426.874 235.578 426.986C235.27 427.089 234.943 427.14 234.598 427.14ZM235.144 425.418C235.517 425.418 235.844 425.329 236.124 425.152C236.404 424.975 236.619 424.727 236.768 424.41C236.927 424.083 237.006 423.705 237.006 423.276C237.006 422.856 236.927 422.487 236.768 422.17C236.619 421.853 236.404 421.605 236.124 421.428C235.844 421.241 235.517 421.148 235.144 421.148C234.78 421.148 234.458 421.241 234.178 421.428C233.907 421.605 233.693 421.853 233.534 422.17C233.375 422.487 233.296 422.856 233.296 423.276C233.296 423.705 233.375 424.083 233.534 424.41C233.693 424.727 233.907 424.975 234.178 425.152C234.458 425.329 234.78 425.418 235.144 425.418ZM243.105 427L239.997 419.594H242.181L244.155 425.124L243.693 425.208L245.765 419.594H247.893L244.631 427H243.105ZM252.416 427.14C251.614 427.14 250.909 426.977 250.302 426.65C249.705 426.323 249.238 425.875 248.902 425.306C248.576 424.737 248.412 424.083 248.412 423.346C248.412 422.767 248.506 422.24 248.692 421.764C248.879 421.288 249.14 420.877 249.476 420.532C249.812 420.177 250.209 419.907 250.666 419.72C251.133 419.524 251.637 419.426 252.178 419.426C252.682 419.426 253.149 419.519 253.578 419.706C254.008 419.893 254.376 420.154 254.684 420.49C255.002 420.817 255.244 421.209 255.412 421.666C255.58 422.114 255.655 422.599 255.636 423.122L255.622 423.738H249.672L249.35 422.52H253.984L253.76 422.772V422.464C253.742 422.212 253.658 421.988 253.508 421.792C253.368 421.587 253.186 421.428 252.962 421.316C252.738 421.195 252.486 421.134 252.206 421.134C251.796 421.134 251.446 421.213 251.156 421.372C250.876 421.531 250.662 421.764 250.512 422.072C250.363 422.38 250.288 422.753 250.288 423.192C250.288 423.64 250.382 424.027 250.568 424.354C250.764 424.681 251.035 424.937 251.38 425.124C251.735 425.301 252.15 425.39 252.626 425.39C252.953 425.39 253.252 425.339 253.522 425.236C253.793 425.133 254.082 424.956 254.39 424.704L255.342 426.034C255.072 426.277 254.773 426.482 254.446 426.65C254.12 426.809 253.784 426.93 253.438 427.014C253.093 427.098 252.752 427.14 252.416 427.14Z" fill="white"/>
</svg>
