<svg width="480" height="540" viewBox="0 0 480 540" fill="none" xmlns="http://www.w3.org/2000/svg">
<g clip-path="url(#clip0_721_683)">
<path d="M85 76H396C405.389 76 413 83.6112 413 93V447C413 456.389 405.389 464 396 464H85C75.6111 464 68 456.389 68 447V93C68 83.6112 75.6111 76 85 76Z" fill="#F1F5F7"/>
<rect x="83" y="127" width="315" height="138" rx="9" fill="white"/>
<rect x="83" y="275" width="315" height="138" rx="9" fill="white"/>
<path d="M99.504 158V146.8H104.16C104.8 146.8 105.376 146.955 105.888 147.264C106.411 147.573 106.827 147.995 107.136 148.528C107.445 149.061 107.6 149.659 107.6 150.32C107.6 150.992 107.445 151.6 107.136 152.144C106.827 152.677 106.411 153.104 105.888 153.424C105.376 153.744 104.8 153.904 104.16 153.904H101.584V158H99.504ZM101.584 151.984H104.016C104.283 151.984 104.523 151.909 104.736 151.76C104.96 151.611 105.136 151.413 105.264 151.168C105.403 150.923 105.472 150.645 105.472 150.336C105.472 150.027 105.403 149.755 105.264 149.52C105.136 149.275 104.96 149.083 104.736 148.944C104.523 148.795 104.283 148.72 104.016 148.72H101.584V151.984ZM112.477 158.16C111.783 158.16 111.154 157.968 110.589 157.584C110.023 157.2 109.57 156.677 109.229 156.016C108.887 155.355 108.717 154.603 108.717 153.76C108.717 152.917 108.887 152.165 109.229 151.504C109.57 150.843 110.034 150.325 110.621 149.952C111.207 149.579 111.869 149.392 112.605 149.392C113.031 149.392 113.421 149.456 113.773 149.584C114.125 149.701 114.434 149.872 114.701 150.096C114.967 150.32 115.186 150.576 115.357 150.864C115.538 151.152 115.661 151.461 115.725 151.792L115.293 151.68V149.568H117.277V158H115.277V155.984L115.741 155.904C115.666 156.192 115.527 156.475 115.325 156.752C115.133 157.019 114.887 157.259 114.589 157.472C114.301 157.675 113.975 157.84 113.613 157.968C113.261 158.096 112.882 158.16 112.477 158.16ZM113.021 156.416C113.479 156.416 113.885 156.304 114.237 156.08C114.589 155.856 114.861 155.547 115.053 155.152C115.255 154.747 115.357 154.283 115.357 153.76C115.357 153.248 115.255 152.795 115.053 152.4C114.861 152.005 114.589 151.696 114.237 151.472C113.885 151.248 113.479 151.136 113.021 151.136C112.562 151.136 112.157 151.248 111.805 151.472C111.463 151.696 111.197 152.005 111.005 152.4C110.813 152.795 110.717 153.248 110.717 153.76C110.717 154.283 110.813 154.747 111.005 155.152C111.197 155.547 111.463 155.856 111.805 156.08C112.157 156.304 112.562 156.416 113.021 156.416ZM120.651 161.68L122.443 157.536L122.459 158.848L118.299 149.568H120.571L122.891 155.072C122.965 155.211 123.04 155.397 123.115 155.632C123.189 155.856 123.253 156.08 123.307 156.304L122.907 156.432C122.981 156.229 123.061 156.016 123.147 155.792C123.232 155.557 123.312 155.317 123.387 155.072L125.371 149.568H127.659L124.139 158L122.699 161.68H120.651ZM128.854 158V149.568H130.79L130.822 151.264L130.502 151.392C130.598 151.115 130.742 150.859 130.934 150.624C131.126 150.379 131.356 150.171 131.622 150C131.889 149.819 132.172 149.68 132.47 149.584C132.769 149.477 133.073 149.424 133.382 149.424C133.841 149.424 134.246 149.499 134.598 149.648C134.961 149.787 135.26 150.011 135.494 150.32C135.74 150.629 135.921 151.024 136.038 151.504L135.734 151.44L135.862 151.184C135.98 150.928 136.145 150.699 136.358 150.496C136.572 150.283 136.812 150.096 137.078 149.936C137.345 149.765 137.622 149.637 137.91 149.552C138.209 149.467 138.502 149.424 138.79 149.424C139.43 149.424 139.964 149.552 140.39 149.808C140.817 150.064 141.137 150.453 141.35 150.976C141.564 151.499 141.67 152.144 141.67 152.912V158H139.686V153.04C139.686 152.613 139.628 152.261 139.51 151.984C139.404 151.707 139.233 151.504 138.998 151.376C138.774 151.237 138.492 151.168 138.15 151.168C137.884 151.168 137.628 151.216 137.382 151.312C137.148 151.397 136.945 151.525 136.774 151.696C136.604 151.856 136.47 152.043 136.374 152.256C136.278 152.469 136.23 152.704 136.23 152.96V158H134.246V153.024C134.246 152.619 134.188 152.283 134.07 152.016C133.953 151.739 133.782 151.531 133.558 151.392C133.334 151.243 133.062 151.168 132.742 151.168C132.476 151.168 132.225 151.216 131.99 151.312C131.756 151.397 131.553 151.52 131.382 151.68C131.212 151.84 131.078 152.027 130.982 152.24C130.886 152.453 130.838 152.688 130.838 152.944V158H128.854ZM147.807 158.16C146.922 158.16 146.138 157.973 145.455 157.6C144.783 157.227 144.255 156.72 143.871 156.08C143.498 155.429 143.311 154.688 143.311 153.856C143.311 153.195 143.418 152.592 143.631 152.048C143.844 151.504 144.138 151.035 144.511 150.64C144.895 150.235 145.348 149.925 145.871 149.712C146.404 149.488 146.986 149.376 147.615 149.376C148.17 149.376 148.687 149.483 149.167 149.696C149.647 149.909 150.063 150.203 150.415 150.576C150.767 150.939 151.034 151.376 151.215 151.888C151.407 152.389 151.498 152.939 151.487 153.536L151.471 154.224H144.639L144.271 152.88H149.823L149.567 153.152V152.8C149.535 152.469 149.428 152.181 149.247 151.936C149.066 151.68 148.831 151.483 148.543 151.344C148.266 151.195 147.956 151.12 147.615 151.12C147.092 151.12 146.65 151.221 146.287 151.424C145.935 151.627 145.668 151.92 145.487 152.304C145.306 152.677 145.215 153.147 145.215 153.712C145.215 154.256 145.327 154.731 145.551 155.136C145.786 155.541 146.111 155.856 146.527 156.08C146.954 156.293 147.45 156.4 148.015 156.4C148.41 156.4 148.772 156.336 149.103 156.208C149.434 156.08 149.791 155.851 150.175 155.52L151.151 156.88C150.863 157.147 150.532 157.376 150.159 157.568C149.796 157.749 149.412 157.893 149.007 158C148.602 158.107 148.202 158.16 147.807 158.16ZM153.23 158V149.568H155.15L155.182 151.296L154.814 151.488C154.921 151.104 155.129 150.757 155.438 150.448C155.747 150.128 156.115 149.872 156.542 149.68C156.969 149.488 157.406 149.392 157.854 149.392C158.494 149.392 159.027 149.52 159.454 149.776C159.891 150.032 160.217 150.416 160.43 150.928C160.654 151.44 160.766 152.08 160.766 152.848V158H158.798V152.992C158.798 152.565 158.739 152.213 158.622 151.936C158.505 151.648 158.323 151.44 158.078 151.312C157.833 151.173 157.534 151.109 157.182 151.12C156.894 151.12 156.627 151.168 156.382 151.264C156.147 151.349 155.939 151.477 155.758 151.648C155.587 151.808 155.449 151.995 155.342 152.208C155.246 152.421 155.198 152.656 155.198 152.912V158H154.222C154.03 158 153.849 158 153.678 158C153.518 158 153.369 158 153.23 158ZM163.892 158V147.424H165.86V158H163.892ZM162.228 151.392V149.568H167.7V151.392H162.228ZM174.254 158V146.8H179.118C179.79 146.8 180.403 146.96 180.958 147.28C181.513 147.589 181.95 148.016 182.27 148.56C182.601 149.093 182.766 149.696 182.766 150.368C182.766 151.008 182.601 151.6 182.27 152.144C181.95 152.677 181.513 153.104 180.958 153.424C180.414 153.733 179.801 153.888 179.118 153.888H176.286V158H174.254ZM180.75 158L177.902 152.944L180.046 152.544L183.214 158.016L180.75 158ZM176.286 152.08H179.134C179.443 152.08 179.71 152.011 179.934 151.872C180.169 151.723 180.35 151.52 180.478 151.264C180.606 151.008 180.67 150.725 180.67 150.416C180.67 150.064 180.59 149.76 180.43 149.504C180.27 149.248 180.046 149.045 179.758 148.896C179.47 148.747 179.139 148.672 178.766 148.672H176.286V152.08ZM188.698 158.16C187.812 158.16 187.028 157.973 186.346 157.6C185.674 157.227 185.146 156.72 184.762 156.08C184.388 155.429 184.202 154.688 184.202 153.856C184.202 153.195 184.308 152.592 184.522 152.048C184.735 151.504 185.028 151.035 185.402 150.64C185.786 150.235 186.239 149.925 186.762 149.712C187.295 149.488 187.876 149.376 188.506 149.376C189.06 149.376 189.578 149.483 190.058 149.696C190.538 149.909 190.954 150.203 191.306 150.576C191.658 150.939 191.924 151.376 192.106 151.888C192.298 152.389 192.388 152.939 192.378 153.536L192.362 154.224H185.53L185.162 152.88H190.714L190.458 153.152V152.8C190.426 152.469 190.319 152.181 190.138 151.936C189.956 151.68 189.722 151.483 189.434 151.344C189.156 151.195 188.847 151.12 188.506 151.12C187.983 151.12 187.54 151.221 187.178 151.424C186.826 151.627 186.559 151.92 186.378 152.304C186.196 152.677 186.106 153.147 186.106 153.712C186.106 154.256 186.218 154.731 186.442 155.136C186.676 155.541 187.002 155.856 187.418 156.08C187.844 156.293 188.34 156.4 188.906 156.4C189.3 156.4 189.663 156.336 189.994 156.208C190.324 156.08 190.682 155.851 191.066 155.52L192.042 156.88C191.754 157.147 191.423 157.376 191.05 157.568C190.687 157.749 190.303 157.893 189.898 158C189.492 158.107 189.092 158.16 188.698 158.16ZM194.121 161.52V149.568H196.057L196.089 151.488L195.753 151.344C195.817 151.013 195.998 150.704 196.297 150.416C196.595 150.117 196.958 149.877 197.385 149.696C197.822 149.515 198.275 149.424 198.745 149.424C199.491 149.424 200.153 149.611 200.729 149.984C201.315 150.357 201.774 150.869 202.105 151.52C202.446 152.171 202.617 152.923 202.617 153.776C202.617 154.619 202.446 155.371 202.105 156.032C201.774 156.683 201.315 157.2 200.729 157.584C200.153 157.957 199.502 158.144 198.777 158.144C198.286 158.144 197.811 158.048 197.353 157.856C196.905 157.664 196.521 157.413 196.201 157.104C195.891 156.795 195.699 156.469 195.625 156.128L196.105 155.904V161.52H194.121ZM198.377 156.4C198.825 156.4 199.225 156.288 199.577 156.064C199.929 155.84 200.201 155.531 200.393 155.136C200.595 154.741 200.697 154.288 200.697 153.776C200.697 153.264 200.601 152.816 200.409 152.432C200.217 152.037 199.945 151.728 199.593 151.504C199.241 151.28 198.835 151.168 198.377 151.168C197.907 151.168 197.497 151.28 197.145 151.504C196.803 151.717 196.531 152.021 196.329 152.416C196.126 152.811 196.025 153.264 196.025 153.776C196.025 154.288 196.126 154.741 196.329 155.136C196.531 155.531 196.803 155.84 197.145 156.064C197.497 156.288 197.907 156.4 198.377 156.4ZM208.227 158.16C207.384 158.16 206.632 157.973 205.971 157.6C205.309 157.216 204.787 156.693 204.403 156.032C204.019 155.371 203.827 154.619 203.827 153.776C203.827 152.933 204.019 152.181 204.403 151.52C204.787 150.859 205.309 150.341 205.971 149.968C206.632 149.584 207.384 149.392 208.227 149.392C209.059 149.392 209.805 149.584 210.467 149.968C211.128 150.341 211.645 150.859 212.019 151.52C212.403 152.181 212.595 152.933 212.595 153.776C212.595 154.619 212.403 155.371 212.019 156.032C211.645 156.693 211.128 157.216 210.467 157.6C209.805 157.973 209.059 158.16 208.227 158.16ZM208.227 156.416C208.685 156.416 209.091 156.299 209.443 156.064C209.805 155.829 210.088 155.515 210.291 155.12C210.504 154.725 210.605 154.277 210.595 153.776C210.605 153.264 210.504 152.811 210.291 152.416C210.088 152.021 209.805 151.712 209.443 151.488C209.091 151.253 208.685 151.136 208.227 151.136C207.768 151.136 207.352 151.253 206.979 151.488C206.616 151.712 206.333 152.027 206.131 152.432C205.928 152.827 205.827 153.275 205.827 153.776C205.827 154.277 205.928 154.725 206.131 155.12C206.333 155.515 206.616 155.829 206.979 156.064C207.352 156.299 207.768 156.416 208.227 156.416ZM214.355 158V149.568H216.291L216.323 152.256L216.051 151.648C216.168 151.221 216.371 150.837 216.659 150.496C216.947 150.155 217.278 149.888 217.651 149.696C218.035 149.493 218.435 149.392 218.851 149.392C219.032 149.392 219.203 149.408 219.363 149.44C219.534 149.472 219.672 149.509 219.779 149.552L219.251 151.712C219.134 151.648 218.99 151.595 218.819 151.552C218.648 151.509 218.478 151.488 218.307 151.488C218.04 151.488 217.784 151.541 217.539 151.648C217.304 151.744 217.096 151.883 216.915 152.064C216.734 152.245 216.59 152.459 216.483 152.704C216.387 152.939 216.339 153.205 216.339 153.504V158H214.355ZM222.314 158V147.424H224.282V158H222.314ZM220.65 151.392V149.568H226.122V151.392H220.65ZM230.749 158.16C230.003 158.16 229.331 158.037 228.733 157.792C228.147 157.536 227.667 157.173 227.293 156.704L228.573 155.6C228.893 155.963 229.251 156.224 229.645 156.384C230.04 156.544 230.456 156.624 230.893 156.624C231.075 156.624 231.235 156.603 231.373 156.56C231.523 156.517 231.651 156.453 231.757 156.368C231.864 156.283 231.944 156.187 231.997 156.08C232.061 155.963 232.093 155.835 232.093 155.696C232.093 155.44 231.997 155.237 231.805 155.088C231.699 155.013 231.528 154.933 231.293 154.848C231.069 154.763 230.776 154.677 230.413 154.592C229.837 154.443 229.357 154.272 228.973 154.08C228.589 153.877 228.291 153.653 228.077 153.408C227.896 153.205 227.757 152.976 227.661 152.72C227.576 152.464 227.533 152.187 227.533 151.888C227.533 151.515 227.613 151.179 227.773 150.88C227.944 150.571 228.173 150.304 228.461 150.08C228.749 149.856 229.085 149.685 229.469 149.568C229.853 149.451 230.253 149.392 230.669 149.392C231.096 149.392 231.507 149.445 231.901 149.552C232.307 149.659 232.68 149.813 233.021 150.016C233.373 150.208 233.672 150.443 233.917 150.72L232.829 151.92C232.627 151.728 232.403 151.557 232.157 151.408C231.923 151.259 231.683 151.141 231.437 151.056C231.192 150.96 230.963 150.912 230.749 150.912C230.547 150.912 230.365 150.933 230.205 150.976C230.045 151.008 229.912 151.061 229.805 151.136C229.699 151.211 229.613 151.307 229.549 151.424C229.496 151.531 229.469 151.659 229.469 151.808C229.48 151.936 229.512 152.059 229.565 152.176C229.629 152.283 229.715 152.373 229.821 152.448C229.939 152.523 230.115 152.608 230.349 152.704C230.584 152.8 230.888 152.891 231.261 152.976C231.784 153.115 232.221 153.269 232.573 153.44C232.925 153.611 233.203 153.808 233.405 154.032C233.608 154.224 233.752 154.448 233.837 154.704C233.923 154.96 233.965 155.243 233.965 155.552C233.965 156.053 233.821 156.501 233.533 156.896C233.256 157.291 232.872 157.6 232.381 157.824C231.901 158.048 231.357 158.16 230.749 158.16Z" fill="black"/>
<path d="M103.984 306.096C103.099 306.096 102.309 305.909 101.616 305.536C100.923 305.152 100.373 304.629 99.968 303.968C99.5733 303.296 99.376 302.539 99.376 301.696V294.784H101.472V301.552C101.472 302.053 101.584 302.501 101.808 302.896C102.043 303.28 102.352 303.589 102.736 303.824C103.12 304.059 103.536 304.176 103.984 304.176C104.475 304.176 104.917 304.059 105.312 303.824C105.707 303.589 106.016 303.28 106.24 302.896C106.475 302.501 106.592 302.053 106.592 301.552V294.784H108.608V301.696C108.608 302.539 108.405 303.296 108 303.968C107.605 304.629 107.061 305.152 106.368 305.536C105.675 305.909 104.88 306.096 103.984 306.096ZM111.136 309.52V297.568H113.072L113.104 299.488L112.768 299.344C112.832 299.013 113.014 298.704 113.312 298.416C113.611 298.117 113.974 297.877 114.4 297.696C114.838 297.515 115.291 297.424 115.76 297.424C116.507 297.424 117.168 297.611 117.744 297.984C118.331 298.357 118.79 298.869 119.12 299.52C119.462 300.171 119.632 300.923 119.632 301.776C119.632 302.619 119.462 303.371 119.12 304.032C118.79 304.683 118.331 305.2 117.744 305.584C117.168 305.957 116.518 306.144 115.792 306.144C115.302 306.144 114.827 306.048 114.368 305.856C113.92 305.664 113.536 305.413 113.216 305.104C112.907 304.795 112.715 304.469 112.64 304.128L113.12 303.904V309.52H111.136ZM115.392 304.4C115.84 304.4 116.24 304.288 116.592 304.064C116.944 303.84 117.216 303.531 117.408 303.136C117.611 302.741 117.712 302.288 117.712 301.776C117.712 301.264 117.616 300.816 117.424 300.432C117.232 300.037 116.96 299.728 116.608 299.504C116.256 299.28 115.851 299.168 115.392 299.168C114.923 299.168 114.512 299.28 114.16 299.504C113.819 299.717 113.547 300.021 113.344 300.416C113.142 300.811 113.04 301.264 113.04 301.776C113.04 302.288 113.142 302.741 113.344 303.136C113.547 303.531 113.819 303.84 114.16 304.064C114.512 304.288 114.923 304.4 115.392 304.4ZM125.002 306.16C124.213 306.16 123.504 305.968 122.874 305.584C122.245 305.2 121.749 304.677 121.386 304.016C121.024 303.355 120.842 302.608 120.842 301.776C120.842 300.944 121.024 300.197 121.386 299.536C121.749 298.875 122.245 298.352 122.874 297.968C123.504 297.584 124.213 297.392 125.002 297.392C125.76 297.392 126.448 297.536 127.066 297.824C127.685 298.112 128.165 298.512 128.506 299.024L127.418 300.336C127.258 300.112 127.056 299.909 126.81 299.728C126.565 299.547 126.304 299.403 126.026 299.296C125.749 299.189 125.472 299.136 125.194 299.136C124.725 299.136 124.304 299.253 123.93 299.488C123.568 299.712 123.28 300.027 123.066 300.432C122.853 300.827 122.746 301.275 122.746 301.776C122.746 302.277 122.853 302.725 123.066 303.12C123.29 303.515 123.589 303.829 123.962 304.064C124.336 304.299 124.752 304.416 125.21 304.416C125.488 304.416 125.754 304.373 126.01 304.288C126.277 304.192 126.528 304.059 126.762 303.888C126.997 303.717 127.216 303.504 127.418 303.248L128.506 304.576C128.144 305.045 127.642 305.429 127.002 305.728C126.373 306.016 125.706 306.16 125.002 306.16ZM133.867 306.16C133.025 306.16 132.273 305.973 131.611 305.6C130.95 305.216 130.427 304.693 130.043 304.032C129.659 303.371 129.467 302.619 129.467 301.776C129.467 300.933 129.659 300.181 130.043 299.52C130.427 298.859 130.95 298.341 131.611 297.968C132.273 297.584 133.025 297.392 133.867 297.392C134.699 297.392 135.446 297.584 136.107 297.968C136.769 298.341 137.286 298.859 137.659 299.52C138.043 300.181 138.235 300.933 138.235 301.776C138.235 302.619 138.043 303.371 137.659 304.032C137.286 304.693 136.769 305.216 136.107 305.6C135.446 305.973 134.699 306.16 133.867 306.16ZM133.867 304.416C134.326 304.416 134.731 304.299 135.083 304.064C135.446 303.829 135.729 303.515 135.931 303.12C136.145 302.725 136.246 302.277 136.235 301.776C136.246 301.264 136.145 300.811 135.931 300.416C135.729 300.021 135.446 299.712 135.083 299.488C134.731 299.253 134.326 299.136 133.867 299.136C133.409 299.136 132.993 299.253 132.619 299.488C132.257 299.712 131.974 300.027 131.771 300.432C131.569 300.827 131.467 301.275 131.467 301.776C131.467 302.277 131.569 302.725 131.771 303.12C131.974 303.515 132.257 303.829 132.619 304.064C132.993 304.299 133.409 304.416 133.867 304.416ZM139.964 306V297.568H141.9L141.932 299.264L141.612 299.392C141.708 299.115 141.852 298.859 142.044 298.624C142.236 298.379 142.465 298.171 142.732 298C142.998 297.819 143.281 297.68 143.58 297.584C143.878 297.477 144.182 297.424 144.492 297.424C144.95 297.424 145.356 297.499 145.708 297.648C146.07 297.787 146.369 298.011 146.604 298.32C146.849 298.629 147.03 299.024 147.148 299.504L146.844 299.44L146.972 299.184C147.089 298.928 147.254 298.699 147.468 298.496C147.681 298.283 147.921 298.096 148.188 297.936C148.454 297.765 148.732 297.637 149.02 297.552C149.318 297.467 149.612 297.424 149.9 297.424C150.54 297.424 151.073 297.552 151.5 297.808C151.926 298.064 152.246 298.453 152.46 298.976C152.673 299.499 152.78 300.144 152.78 300.912V306H150.796V301.04C150.796 300.613 150.737 300.261 150.62 299.984C150.513 299.707 150.342 299.504 150.108 299.376C149.884 299.237 149.601 299.168 149.26 299.168C148.993 299.168 148.737 299.216 148.492 299.312C148.257 299.397 148.054 299.525 147.884 299.696C147.713 299.856 147.58 300.043 147.484 300.256C147.388 300.469 147.34 300.704 147.34 300.96V306H145.356V301.024C145.356 300.619 145.297 300.283 145.18 300.016C145.062 299.739 144.892 299.531 144.668 299.392C144.444 299.243 144.172 299.168 143.852 299.168C143.585 299.168 143.334 299.216 143.1 299.312C142.865 299.397 142.662 299.52 142.492 299.68C142.321 299.84 142.188 300.027 142.092 300.24C141.996 300.453 141.948 300.688 141.948 300.944V306H139.964ZM155.189 306V297.568H157.157V306H155.189ZM156.149 295.776C155.754 295.776 155.445 295.68 155.221 295.488C155.007 295.285 154.901 295.003 154.901 294.64C154.901 294.299 155.013 294.021 155.237 293.808C155.461 293.595 155.765 293.488 156.149 293.488C156.554 293.488 156.863 293.589 157.077 293.792C157.301 293.984 157.413 294.267 157.413 294.64C157.413 294.971 157.301 295.243 157.077 295.456C156.853 295.669 156.543 295.776 156.149 295.776ZM159.652 306V297.568H161.572L161.604 299.296L161.236 299.488C161.343 299.104 161.551 298.757 161.86 298.448C162.169 298.128 162.537 297.872 162.964 297.68C163.391 297.488 163.828 297.392 164.276 297.392C164.916 297.392 165.449 297.52 165.876 297.776C166.313 298.032 166.639 298.416 166.852 298.928C167.076 299.44 167.188 300.08 167.188 300.848V306H165.22V300.992C165.22 300.565 165.161 300.213 165.044 299.936C164.927 299.648 164.745 299.44 164.5 299.312C164.255 299.173 163.956 299.109 163.604 299.12C163.316 299.12 163.049 299.168 162.804 299.264C162.569 299.349 162.361 299.477 162.18 299.648C162.009 299.808 161.871 299.995 161.764 300.208C161.668 300.421 161.62 300.656 161.62 300.912V306H160.644C160.452 306 160.271 306 160.1 306C159.94 306 159.791 306 159.652 306ZM173.194 309.68C172.565 309.68 171.935 309.584 171.306 309.392C170.687 309.2 170.186 308.949 169.802 308.64L170.506 307.184C170.73 307.344 170.981 307.483 171.258 307.6C171.535 307.717 171.829 307.808 172.138 307.872C172.458 307.936 172.773 307.968 173.082 307.968C173.647 307.968 174.117 307.877 174.49 307.696C174.874 307.525 175.162 307.259 175.354 306.896C175.546 306.544 175.642 306.101 175.642 305.568V304.016L175.93 304.128C175.866 304.459 175.69 304.773 175.402 305.072C175.114 305.371 174.751 305.616 174.314 305.808C173.877 305.989 173.429 306.08 172.97 306.08C172.17 306.08 171.461 305.893 170.842 305.52C170.234 305.147 169.749 304.64 169.386 304C169.034 303.349 168.858 302.603 168.858 301.76C168.858 300.917 169.034 300.171 169.386 299.52C169.738 298.859 170.218 298.341 170.826 297.968C171.445 297.584 172.138 297.392 172.906 297.392C173.226 297.392 173.535 297.429 173.834 297.504C174.133 297.579 174.405 297.685 174.65 297.824C174.906 297.963 175.135 298.117 175.338 298.288C175.541 298.459 175.706 298.64 175.834 298.832C175.962 299.024 176.042 299.211 176.074 299.392L175.658 299.52L175.69 297.568H177.626V305.424C177.626 306.107 177.525 306.709 177.322 307.232C177.119 307.755 176.826 308.197 176.442 308.56C176.058 308.933 175.594 309.211 175.05 309.392C174.506 309.584 173.887 309.68 173.194 309.68ZM173.274 304.4C173.754 304.4 174.175 304.288 174.538 304.064C174.911 303.84 175.199 303.531 175.402 303.136C175.605 302.741 175.706 302.288 175.706 301.776C175.706 301.253 175.599 300.795 175.386 300.4C175.183 299.995 174.901 299.68 174.538 299.456C174.175 299.232 173.754 299.12 173.274 299.12C172.794 299.12 172.373 299.237 172.01 299.472C171.647 299.696 171.359 300.011 171.146 300.416C170.943 300.811 170.842 301.264 170.842 301.776C170.842 302.277 170.943 302.731 171.146 303.136C171.359 303.531 171.647 303.84 172.01 304.064C172.373 304.288 172.794 304.4 173.274 304.4ZM184.957 306V294.8H189.613C190.253 294.8 190.829 294.955 191.341 295.264C191.864 295.573 192.28 295.995 192.589 296.528C192.898 297.061 193.053 297.659 193.053 298.32C193.053 298.992 192.898 299.6 192.589 300.144C192.28 300.677 191.864 301.104 191.341 301.424C190.829 301.744 190.253 301.904 189.613 301.904H187.037V306H184.957ZM187.037 299.984H189.469C189.736 299.984 189.976 299.909 190.189 299.76C190.413 299.611 190.589 299.413 190.717 299.168C190.856 298.923 190.925 298.645 190.925 298.336C190.925 298.027 190.856 297.755 190.717 297.52C190.589 297.275 190.413 297.083 190.189 296.944C189.976 296.795 189.736 296.72 189.469 296.72H187.037V299.984ZM197.93 306.16C197.236 306.16 196.607 305.968 196.042 305.584C195.476 305.2 195.023 304.677 194.682 304.016C194.34 303.355 194.17 302.603 194.17 301.76C194.17 300.917 194.34 300.165 194.682 299.504C195.023 298.843 195.487 298.325 196.074 297.952C196.66 297.579 197.322 297.392 198.058 297.392C198.484 297.392 198.874 297.456 199.226 297.584C199.578 297.701 199.887 297.872 200.154 298.096C200.42 298.32 200.639 298.576 200.81 298.864C200.991 299.152 201.114 299.461 201.178 299.792L200.746 299.68V297.568H202.73V306H200.73V303.984L201.194 303.904C201.119 304.192 200.98 304.475 200.778 304.752C200.586 305.019 200.34 305.259 200.042 305.472C199.754 305.675 199.428 305.84 199.066 305.968C198.714 306.096 198.335 306.16 197.93 306.16ZM198.474 304.416C198.932 304.416 199.338 304.304 199.69 304.08C200.042 303.856 200.314 303.547 200.506 303.152C200.708 302.747 200.81 302.283 200.81 301.76C200.81 301.248 200.708 300.795 200.506 300.4C200.314 300.005 200.042 299.696 199.69 299.472C199.338 299.248 198.932 299.136 198.474 299.136C198.015 299.136 197.61 299.248 197.258 299.472C196.916 299.696 196.65 300.005 196.458 300.4C196.266 300.795 196.17 301.248 196.17 301.76C196.17 302.283 196.266 302.747 196.458 303.152C196.65 303.547 196.916 303.856 197.258 304.08C197.61 304.304 198.015 304.416 198.474 304.416ZM206.104 309.68L207.896 305.536L207.912 306.848L203.752 297.568H206.024L208.344 303.072C208.419 303.211 208.493 303.397 208.568 303.632C208.643 303.856 208.707 304.08 208.76 304.304L208.36 304.432C208.435 304.229 208.515 304.016 208.6 303.792C208.685 303.557 208.765 303.317 208.84 303.072L210.824 297.568H213.112L209.592 306L208.152 309.68H206.104ZM214.308 306V297.568H216.244L216.276 299.264L215.956 299.392C216.052 299.115 216.196 298.859 216.388 298.624C216.58 298.379 216.809 298.171 217.076 298C217.342 297.819 217.625 297.68 217.924 297.584C218.222 297.477 218.526 297.424 218.836 297.424C219.294 297.424 219.7 297.499 220.052 297.648C220.414 297.787 220.713 298.011 220.948 298.32C221.193 298.629 221.374 299.024 221.492 299.504L221.188 299.44L221.316 299.184C221.433 298.928 221.598 298.699 221.812 298.496C222.025 298.283 222.265 298.096 222.532 297.936C222.798 297.765 223.076 297.637 223.364 297.552C223.662 297.467 223.956 297.424 224.244 297.424C224.884 297.424 225.417 297.552 225.844 297.808C226.27 298.064 226.59 298.453 226.804 298.976C227.017 299.499 227.124 300.144 227.124 300.912V306H225.14V301.04C225.14 300.613 225.081 300.261 224.964 299.984C224.857 299.707 224.686 299.504 224.452 299.376C224.228 299.237 223.945 299.168 223.604 299.168C223.337 299.168 223.081 299.216 222.836 299.312C222.601 299.397 222.398 299.525 222.227 299.696C222.057 299.856 221.924 300.043 221.828 300.256C221.732 300.469 221.684 300.704 221.684 300.96V306H219.7V301.024C219.7 300.619 219.641 300.283 219.524 300.016C219.406 299.739 219.236 299.531 219.012 299.392C218.788 299.243 218.516 299.168 218.196 299.168C217.929 299.168 217.678 299.216 217.444 299.312C217.209 299.397 217.006 299.52 216.836 299.68C216.665 299.84 216.532 300.027 216.436 300.24C216.34 300.453 216.292 300.688 216.292 300.944V306H214.308ZM233.26 306.16C232.375 306.16 231.591 305.973 230.908 305.6C230.236 305.227 229.708 304.72 229.324 304.08C228.951 303.429 228.764 302.688 228.764 301.856C228.764 301.195 228.871 300.592 229.084 300.048C229.298 299.504 229.591 299.035 229.964 298.64C230.348 298.235 230.802 297.925 231.324 297.712C231.858 297.488 232.439 297.376 233.068 297.376C233.623 297.376 234.14 297.483 234.62 297.696C235.1 297.909 235.516 298.203 235.868 298.576C236.22 298.939 236.487 299.376 236.668 299.888C236.86 300.389 236.951 300.939 236.94 301.536L236.924 302.224H230.092L229.724 300.88H235.276L235.02 301.152V300.8C234.988 300.469 234.882 300.181 234.7 299.936C234.519 299.68 234.284 299.483 233.996 299.344C233.719 299.195 233.41 299.12 233.068 299.12C232.546 299.12 232.103 299.221 231.74 299.424C231.388 299.627 231.122 299.92 230.94 300.304C230.759 300.677 230.668 301.147 230.668 301.712C230.668 302.256 230.78 302.731 231.004 303.136C231.239 303.541 231.564 303.856 231.98 304.08C232.407 304.293 232.903 304.4 233.468 304.4C233.863 304.4 234.226 304.336 234.556 304.208C234.887 304.08 235.244 303.851 235.628 303.52L236.604 304.88C236.316 305.147 235.986 305.376 235.612 305.568C235.25 305.749 234.866 305.893 234.46 306C234.055 306.107 233.655 306.16 233.26 306.16ZM238.683 306V297.568H240.603L240.635 299.296L240.267 299.488C240.374 299.104 240.582 298.757 240.891 298.448C241.201 298.128 241.569 297.872 241.995 297.68C242.422 297.488 242.859 297.392 243.307 297.392C243.947 297.392 244.481 297.52 244.907 297.776C245.345 298.032 245.67 298.416 245.883 298.928C246.107 299.44 246.219 300.08 246.219 300.848V306H244.251V300.992C244.251 300.565 244.193 300.213 244.075 299.936C243.958 299.648 243.777 299.44 243.531 299.312C243.286 299.173 242.987 299.109 242.635 299.12C242.347 299.12 242.081 299.168 241.835 299.264C241.601 299.349 241.393 299.477 241.211 299.648C241.041 299.808 240.902 299.995 240.795 300.208C240.699 300.421 240.651 300.656 240.651 300.912V306H239.675C239.483 306 239.302 306 239.131 306C238.971 306 238.822 306 238.683 306ZM249.345 306V295.424H251.313V306H249.345ZM247.681 299.392V297.568H253.153V299.392H247.681ZM257.781 306.16C257.034 306.16 256.362 306.037 255.765 305.792C255.178 305.536 254.698 305.173 254.325 304.704L255.605 303.6C255.925 303.963 256.282 304.224 256.677 304.384C257.071 304.544 257.487 304.624 257.924 304.624C258.106 304.624 258.266 304.603 258.405 304.56C258.554 304.517 258.682 304.453 258.789 304.368C258.895 304.283 258.975 304.187 259.029 304.08C259.093 303.963 259.125 303.835 259.125 303.696C259.125 303.44 259.029 303.237 258.837 303.088C258.73 303.013 258.559 302.933 258.325 302.848C258.101 302.763 257.807 302.677 257.445 302.592C256.869 302.443 256.389 302.272 256.005 302.08C255.621 301.877 255.322 301.653 255.109 301.408C254.927 301.205 254.789 300.976 254.693 300.72C254.607 300.464 254.565 300.187 254.565 299.888C254.565 299.515 254.645 299.179 254.805 298.88C254.975 298.571 255.205 298.304 255.493 298.08C255.781 297.856 256.117 297.685 256.501 297.568C256.885 297.451 257.285 297.392 257.701 297.392C258.127 297.392 258.538 297.445 258.933 297.552C259.338 297.659 259.711 297.813 260.053 298.016C260.405 298.208 260.703 298.443 260.949 298.72L259.861 299.92C259.658 299.728 259.434 299.557 259.189 299.408C258.954 299.259 258.714 299.141 258.469 299.056C258.223 298.96 257.994 298.912 257.781 298.912C257.578 298.912 257.397 298.933 257.237 298.976C257.077 299.008 256.943 299.061 256.837 299.136C256.73 299.211 256.645 299.307 256.581 299.424C256.527 299.531 256.501 299.659 256.501 299.808C256.511 299.936 256.543 300.059 256.597 300.176C256.661 300.283 256.746 300.373 256.853 300.448C256.97 300.523 257.146 300.608 257.381 300.704C257.615 300.8 257.919 300.891 258.293 300.976C258.815 301.115 259.253 301.269 259.605 301.44C259.957 301.611 260.234 301.808 260.437 302.032C260.639 302.224 260.783 302.448 260.869 302.704C260.954 302.96 260.997 303.243 260.997 303.552C260.997 304.053 260.853 304.501 260.565 304.896C260.287 305.291 259.903 305.6 259.413 305.824C258.933 306.048 258.389 306.16 257.781 306.16Z" fill="black"/>
<path d="M107.34 197V191.2H105.34V190H110.7V191.2H108.64V197H107.34ZM113.169 197.1C112.642 197.1 112.172 196.983 111.759 196.75C111.346 196.51 111.019 196.183 110.779 195.77C110.539 195.357 110.419 194.887 110.419 194.36C110.419 193.833 110.539 193.363 110.779 192.95C111.019 192.537 111.346 192.213 111.759 191.98C112.172 191.74 112.642 191.62 113.169 191.62C113.689 191.62 114.156 191.74 114.569 191.98C114.982 192.213 115.306 192.537 115.539 192.95C115.779 193.363 115.899 193.833 115.899 194.36C115.899 194.887 115.779 195.357 115.539 195.77C115.306 196.183 114.982 196.51 114.569 196.75C114.156 196.983 113.689 197.1 113.169 197.1ZM113.169 196.01C113.456 196.01 113.709 195.937 113.929 195.79C114.156 195.643 114.332 195.447 114.459 195.2C114.592 194.953 114.656 194.673 114.649 194.36C114.656 194.04 114.592 193.757 114.459 193.51C114.332 193.263 114.156 193.07 113.929 192.93C113.709 192.783 113.456 192.71 113.169 192.71C112.882 192.71 112.622 192.783 112.389 192.93C112.162 193.07 111.986 193.267 111.859 193.52C111.732 193.767 111.669 194.047 111.669 194.36C111.669 194.673 111.732 194.953 111.859 195.2C111.986 195.447 112.162 195.643 112.389 195.79C112.622 195.937 112.882 196.01 113.169 196.01ZM117.569 197V190.39H118.799V197H117.569ZM116.529 192.87V191.73H119.949V192.87H116.529ZM122.827 197.1C122.394 197.1 122.001 196.98 121.647 196.74C121.294 196.5 121.011 196.173 120.797 195.76C120.584 195.347 120.477 194.877 120.477 194.35C120.477 193.823 120.584 193.353 120.797 192.94C121.011 192.527 121.301 192.203 121.667 191.97C122.034 191.737 122.447 191.62 122.907 191.62C123.174 191.62 123.417 191.66 123.637 191.74C123.857 191.813 124.051 191.92 124.217 192.06C124.384 192.2 124.521 192.36 124.627 192.54C124.741 192.72 124.817 192.913 124.857 193.12L124.587 193.05V191.73H125.827V197H124.577V195.74L124.867 195.69C124.821 195.87 124.734 196.047 124.607 196.22C124.487 196.387 124.334 196.537 124.147 196.67C123.967 196.797 123.764 196.9 123.537 196.98C123.317 197.06 123.081 197.1 122.827 197.1ZM123.167 196.01C123.454 196.01 123.707 195.94 123.927 195.8C124.147 195.66 124.317 195.467 124.437 195.22C124.564 194.967 124.627 194.677 124.627 194.35C124.627 194.03 124.564 193.747 124.437 193.5C124.317 193.253 124.147 193.06 123.927 192.92C123.707 192.78 123.454 192.71 123.167 192.71C122.881 192.71 122.627 192.78 122.407 192.92C122.194 193.06 122.027 193.253 121.907 193.5C121.787 193.747 121.727 194.03 121.727 194.35C121.727 194.677 121.787 194.967 121.907 195.22C122.027 195.467 122.194 195.66 122.407 195.8C122.627 195.94 122.881 196.01 123.167 196.01ZM127.263 197V189.6H128.503V197H127.263Z" fill="black"/>
<path d="M204.94 197V190H207.85C208.25 190 208.61 190.097 208.93 190.29C209.257 190.483 209.517 190.747 209.71 191.08C209.903 191.413 210 191.787 210 192.2C210 192.62 209.903 193 209.71 193.34C209.517 193.673 209.257 193.94 208.93 194.14C208.61 194.34 208.25 194.44 207.85 194.44H206.24V197H204.94ZM206.24 193.24H207.76C207.927 193.24 208.077 193.193 208.21 193.1C208.35 193.007 208.46 192.883 208.54 192.73C208.627 192.577 208.67 192.403 208.67 192.21C208.67 192.017 208.627 191.847 208.54 191.7C208.46 191.547 208.35 191.427 208.21 191.34C208.077 191.247 207.927 191.2 207.76 191.2H206.24V193.24ZM213.048 197.1C212.615 197.1 212.221 196.98 211.868 196.74C211.515 196.5 211.231 196.173 211.018 195.76C210.805 195.347 210.698 194.877 210.698 194.35C210.698 193.823 210.805 193.353 211.018 192.94C211.231 192.527 211.521 192.203 211.888 191.97C212.255 191.737 212.668 191.62 213.128 191.62C213.395 191.62 213.638 191.66 213.858 191.74C214.078 191.813 214.271 191.92 214.438 192.06C214.605 192.2 214.741 192.36 214.848 192.54C214.961 192.72 215.038 192.913 215.078 193.12L214.808 193.05V191.73H216.048V197H214.798V195.74L215.088 195.69C215.041 195.87 214.955 196.047 214.828 196.22C214.708 196.387 214.555 196.537 214.368 196.67C214.188 196.797 213.985 196.9 213.758 196.98C213.538 197.06 213.301 197.1 213.048 197.1ZM213.388 196.01C213.675 196.01 213.928 195.94 214.148 195.8C214.368 195.66 214.538 195.467 214.658 195.22C214.785 194.967 214.848 194.677 214.848 194.35C214.848 194.03 214.785 193.747 214.658 193.5C214.538 193.253 214.368 193.06 214.148 192.92C213.928 192.78 213.675 192.71 213.388 192.71C213.101 192.71 212.848 192.78 212.628 192.92C212.415 193.06 212.248 193.253 212.128 193.5C212.008 193.747 211.948 194.03 211.948 194.35C211.948 194.677 212.008 194.967 212.128 195.22C212.248 195.467 212.415 195.66 212.628 195.8C212.848 195.94 213.101 196.01 213.388 196.01ZM217.614 197V191.73H218.844V197H217.614ZM218.214 190.61C217.967 190.61 217.774 190.55 217.634 190.43C217.501 190.303 217.434 190.127 217.434 189.9C217.434 189.687 217.504 189.513 217.644 189.38C217.784 189.247 217.974 189.18 218.214 189.18C218.467 189.18 218.661 189.243 218.794 189.37C218.934 189.49 219.004 189.667 219.004 189.9C219.004 190.107 218.934 190.277 218.794 190.41C218.654 190.543 218.461 190.61 218.214 190.61ZM222.524 197.1C222.057 197.1 221.637 196.983 221.264 196.75C220.897 196.51 220.604 196.187 220.384 195.78C220.17 195.367 220.064 194.893 220.064 194.36C220.064 193.833 220.17 193.363 220.384 192.95C220.597 192.537 220.887 192.213 221.254 191.98C221.627 191.74 222.047 191.62 222.514 191.62C222.767 191.62 223.01 191.66 223.244 191.74C223.484 191.82 223.697 191.93 223.884 192.07C224.07 192.203 224.217 192.353 224.324 192.52C224.437 192.687 224.5 192.86 224.514 193.04L224.184 193.08V189.6H225.414V197H224.224L224.194 195.76L224.434 195.78C224.427 195.947 224.367 196.107 224.254 196.26C224.147 196.413 224.007 196.553 223.834 196.68C223.66 196.807 223.457 196.91 223.224 196.99C222.997 197.063 222.764 197.1 222.524 197.1ZM222.764 196.06C223.05 196.06 223.304 195.987 223.524 195.84C223.744 195.693 223.914 195.493 224.034 195.24C224.16 194.987 224.224 194.693 224.224 194.36C224.224 194.033 224.16 193.743 224.034 193.49C223.914 193.23 223.744 193.03 223.524 192.89C223.304 192.743 223.05 192.67 222.764 192.67C222.477 192.67 222.224 192.743 222.004 192.89C221.784 193.03 221.61 193.23 221.484 193.49C221.364 193.743 221.304 194.033 221.304 194.36C221.304 194.693 221.364 194.987 221.484 195.24C221.61 195.493 221.784 195.693 222.004 195.84C222.224 195.987 222.477 196.06 222.764 196.06Z" fill="black"/>
<path d="M103.375 235.775V221.575L104.3 222.775L100.75 224.575L100.025 221.725L104.8 219.25H106.6V235.775H103.375ZM100.45 237V234H109.6V237H100.45ZM117.712 237.175C116.495 237.175 115.395 236.917 114.412 236.4C113.428 235.867 112.612 235.1 111.962 234.1L113.762 232.15C114.495 232.967 115.153 233.533 115.737 233.85C116.32 234.15 116.962 234.3 117.662 234.3C118.295 234.3 118.862 234.167 119.362 233.9C119.862 233.617 120.262 233.242 120.562 232.775C120.862 232.292 121.012 231.767 121.012 231.2C121.012 230.583 120.87 230.042 120.587 229.575C120.303 229.092 119.92 228.708 119.437 228.425C118.953 228.142 118.403 228 117.787 228C117.453 228 117.137 228.025 116.837 228.075C116.537 228.125 116.187 228.225 115.787 228.375C115.403 228.525 114.912 228.758 114.312 229.075L112.762 226.975L113.787 219.45H123.462V222.325H115.612L116.337 221.525L115.512 227.075L114.587 226.425C114.803 226.225 115.12 226.033 115.537 225.85C115.97 225.667 116.437 225.517 116.937 225.4C117.437 225.283 117.928 225.225 118.412 225.225C119.495 225.225 120.462 225.475 121.312 225.975C122.162 226.475 122.837 227.167 123.337 228.05C123.837 228.917 124.087 229.917 124.087 231.05C124.087 232.2 123.803 233.242 123.237 234.175C122.687 235.092 121.928 235.825 120.962 236.375C119.995 236.908 118.912 237.175 117.712 237.175Z" fill="black"/>
<path d="M202.375 235.775V221.575L203.3 222.775L199.75 224.575L199.025 221.725L203.8 219.25H205.6V235.775H202.375ZM199.45 237V234H208.6V237H199.45ZM212.087 237L211.262 234.95L216.512 229.075C216.812 228.775 217.12 228.433 217.437 228.05C217.753 227.65 218.053 227.242 218.337 226.825C218.637 226.392 218.878 225.975 219.062 225.575C219.245 225.158 219.337 224.775 219.337 224.425C219.337 223.975 219.237 223.583 219.037 223.25C218.853 222.917 218.587 222.658 218.237 222.475C217.887 222.292 217.453 222.2 216.937 222.2C216.487 222.2 216.045 222.333 215.612 222.6C215.195 222.85 214.803 223.217 214.437 223.7C214.087 224.167 213.795 224.725 213.562 225.375L211.112 223.925C211.412 222.958 211.862 222.125 212.462 221.425C213.078 220.708 213.795 220.158 214.612 219.775C215.445 219.392 216.345 219.2 217.312 219.2C218.312 219.2 219.203 219.408 219.987 219.825C220.77 220.242 221.387 220.817 221.837 221.55C222.303 222.283 222.537 223.142 222.537 224.125C222.537 224.492 222.495 224.875 222.412 225.275C222.328 225.658 222.195 226.067 222.012 226.5C221.845 226.917 221.62 227.358 221.337 227.825C221.053 228.275 220.712 228.75 220.312 229.25C219.928 229.75 219.487 230.275 218.987 230.825L215.012 235.15L214.512 234H223.162V237H212.087Z" fill="black"/>
<path d="M311.875 237.25C310.458 237.25 309.242 236.892 308.225 236.175C307.225 235.442 306.45 234.408 305.9 233.075C305.367 231.725 305.1 230.117 305.1 228.25C305.1 226.383 305.367 224.783 305.9 223.45C306.45 222.1 307.225 221.067 308.225 220.35C309.242 219.617 310.458 219.25 311.875 219.25C313.292 219.25 314.508 219.617 315.525 220.35C316.542 221.067 317.317 222.1 317.85 223.45C318.4 224.783 318.675 226.383 318.675 228.25C318.675 230.117 318.4 231.725 317.85 233.075C317.317 234.408 316.542 235.442 315.525 236.175C314.508 236.892 313.292 237.25 311.875 237.25ZM311.875 234.4C313.042 234.4 313.942 233.867 314.575 232.8C315.225 231.717 315.55 230.2 315.55 228.25C315.55 226.283 315.225 224.758 314.575 223.675C313.942 222.592 313.042 222.05 311.875 222.05C310.708 222.05 309.8 222.592 309.15 223.675C308.517 224.758 308.2 226.283 308.2 228.25C308.2 230.2 308.517 231.717 309.15 232.8C309.8 233.867 310.708 234.4 311.875 234.4ZM326.371 237.25C325.071 237.25 323.938 236.967 322.971 236.4C322.005 235.817 321.113 234.833 320.296 233.45L322.746 231.9C323.13 232.517 323.521 233.017 323.921 233.4C324.338 233.767 324.755 234.042 325.171 234.225C325.605 234.392 326.063 234.475 326.546 234.475C327.096 234.475 327.596 234.342 328.046 234.075C328.513 233.808 328.88 233.442 329.146 232.975C329.43 232.508 329.571 231.975 329.571 231.375C329.571 230.775 329.455 230.267 329.221 229.85C329.005 229.433 328.68 229.117 328.246 228.9C327.83 228.667 327.321 228.55 326.721 228.55C326.455 228.55 326.171 228.583 325.871 228.65C325.571 228.7 325.255 228.783 324.921 228.9C324.588 229 324.221 229.125 323.821 229.275L323.021 227.15L327.996 221.65L328.746 222.375L321.371 222.325V219.45H331.646L332.246 220.65L326.496 226.925L325.746 226.1C325.88 226.033 326.096 225.975 326.396 225.925C326.713 225.858 326.988 225.825 327.221 225.825C327.955 225.825 328.655 225.967 329.321 226.25C329.988 226.517 330.563 226.9 331.046 227.4C331.546 227.9 331.938 228.483 332.221 229.15C332.505 229.8 332.646 230.508 332.646 231.275C332.646 232.425 332.363 233.45 331.796 234.35C331.246 235.233 330.496 235.942 329.546 236.475C328.596 236.992 327.538 237.25 326.371 237.25Z" fill="black"/>
<path d="M314.96 197.1C314.46 197.1 313.997 197.01 313.57 196.83C313.143 196.65 312.77 196.4 312.45 196.08C312.137 195.753 311.893 195.37 311.72 194.93C311.547 194.49 311.46 194.01 311.46 193.49C311.46 192.97 311.547 192.49 311.72 192.05C311.893 191.61 312.137 191.23 312.45 190.91C312.77 190.583 313.143 190.33 313.57 190.15C313.997 189.97 314.46 189.88 314.96 189.88C315.467 189.88 315.933 189.97 316.36 190.15C316.787 190.33 317.157 190.583 317.47 190.91C317.783 191.237 318.027 191.62 318.2 192.06C318.373 192.493 318.46 192.97 318.46 193.49C318.46 194.003 318.373 194.48 318.2 194.92C318.027 195.36 317.783 195.743 317.47 196.07C317.157 196.397 316.787 196.65 316.36 196.83C315.933 197.01 315.467 197.1 314.96 197.1ZM314.96 195.86C315.28 195.86 315.57 195.803 315.83 195.69C316.097 195.57 316.327 195.403 316.52 195.19C316.713 194.97 316.863 194.717 316.97 194.43C317.083 194.143 317.14 193.83 317.14 193.49C317.14 193.15 317.083 192.837 316.97 192.55C316.863 192.263 316.713 192.013 316.52 191.8C316.327 191.58 316.097 191.413 315.83 191.3C315.57 191.18 315.28 191.12 314.96 191.12C314.647 191.12 314.357 191.18 314.09 191.3C313.823 191.413 313.593 191.577 313.4 191.79C313.207 192.003 313.057 192.253 312.95 192.54C312.843 192.827 312.79 193.143 312.79 193.49C312.79 193.83 312.843 194.147 312.95 194.44C313.057 194.727 313.207 194.977 313.4 195.19C313.593 195.403 313.823 195.57 314.09 195.69C314.357 195.803 314.647 195.86 314.96 195.86ZM321.48 197.1C321.1 197.1 320.77 197.017 320.49 196.85C320.21 196.677 319.996 196.433 319.85 196.12C319.703 195.8 319.63 195.42 319.63 194.98V191.73H320.86V194.72C320.86 195 320.903 195.24 320.99 195.44C321.076 195.633 321.203 195.783 321.37 195.89C321.536 195.997 321.736 196.05 321.97 196.05C322.143 196.05 322.3 196.023 322.44 195.97C322.586 195.91 322.713 195.83 322.82 195.73C322.926 195.623 323.01 195.5 323.07 195.36C323.13 195.213 323.16 195.057 323.16 194.89V191.73H324.39V197H323.19L323.17 195.9L323.39 195.78C323.31 196.033 323.173 196.26 322.98 196.46C322.793 196.653 322.57 196.81 322.31 196.93C322.05 197.043 321.773 197.1 321.48 197.1ZM326.401 197V190.39H327.631V197H326.401ZM325.361 192.87V191.73H328.781V192.87H325.361ZM331.673 197.1C331.207 197.1 330.787 197.023 330.413 196.87C330.047 196.71 329.747 196.483 329.513 196.19L330.313 195.5C330.513 195.727 330.737 195.89 330.983 195.99C331.23 196.09 331.49 196.14 331.763 196.14C331.877 196.14 331.977 196.127 332.063 196.1C332.157 196.073 332.237 196.033 332.303 195.98C332.37 195.927 332.42 195.867 332.453 195.8C332.493 195.727 332.513 195.647 332.513 195.56C332.513 195.4 332.453 195.273 332.333 195.18C332.267 195.133 332.16 195.083 332.013 195.03C331.873 194.977 331.69 194.923 331.463 194.87C331.103 194.777 330.803 194.67 330.563 194.55C330.323 194.423 330.137 194.283 330.003 194.13C329.89 194.003 329.803 193.86 329.743 193.7C329.69 193.54 329.663 193.367 329.663 193.18C329.663 192.947 329.713 192.737 329.813 192.55C329.92 192.357 330.063 192.19 330.243 192.05C330.423 191.91 330.633 191.803 330.873 191.73C331.113 191.657 331.363 191.62 331.623 191.62C331.89 191.62 332.147 191.653 332.393 191.72C332.647 191.787 332.88 191.883 333.093 192.01C333.313 192.13 333.5 192.277 333.653 192.45L332.973 193.2C332.847 193.08 332.707 192.973 332.553 192.88C332.407 192.787 332.257 192.713 332.103 192.66C331.95 192.6 331.807 192.57 331.673 192.57C331.547 192.57 331.433 192.583 331.333 192.61C331.233 192.63 331.15 192.663 331.083 192.71C331.017 192.757 330.963 192.817 330.923 192.89C330.89 192.957 330.873 193.037 330.873 193.13C330.88 193.21 330.9 193.287 330.933 193.36C330.973 193.427 331.027 193.483 331.093 193.53C331.167 193.577 331.277 193.63 331.423 193.69C331.57 193.75 331.76 193.807 331.993 193.86C332.32 193.947 332.593 194.043 332.813 194.15C333.033 194.257 333.207 194.38 333.333 194.52C333.46 194.64 333.55 194.78 333.603 194.94C333.657 195.1 333.683 195.277 333.683 195.47C333.683 195.783 333.593 196.063 333.413 196.31C333.24 196.557 333 196.75 332.693 196.89C332.393 197.03 332.053 197.1 331.673 197.1ZM335.337 197V190.39H336.567V197H335.337ZM334.297 192.87V191.73H337.717V192.87H334.297ZM340.595 197.1C340.161 197.1 339.768 196.98 339.415 196.74C339.061 196.5 338.778 196.173 338.565 195.76C338.351 195.347 338.245 194.877 338.245 194.35C338.245 193.823 338.351 193.353 338.565 192.94C338.778 192.527 339.068 192.203 339.435 191.97C339.801 191.737 340.215 191.62 340.675 191.62C340.941 191.62 341.185 191.66 341.405 191.74C341.625 191.813 341.818 191.92 341.985 192.06C342.151 192.2 342.288 192.36 342.395 192.54C342.508 192.72 342.585 192.913 342.625 193.12L342.355 193.05V191.73H343.595V197H342.345V195.74L342.635 195.69C342.588 195.87 342.501 196.047 342.375 196.22C342.255 196.387 342.101 196.537 341.915 196.67C341.735 196.797 341.531 196.9 341.305 196.98C341.085 197.06 340.848 197.1 340.595 197.1ZM340.935 196.01C341.221 196.01 341.475 195.94 341.695 195.8C341.915 195.66 342.085 195.467 342.205 195.22C342.331 194.967 342.395 194.677 342.395 194.35C342.395 194.03 342.331 193.747 342.205 193.5C342.085 193.253 341.915 193.06 341.695 192.92C341.475 192.78 341.221 192.71 340.935 192.71C340.648 192.71 340.395 192.78 340.175 192.92C339.961 193.06 339.795 193.253 339.675 193.5C339.555 193.747 339.495 194.03 339.495 194.35C339.495 194.677 339.555 194.967 339.675 195.22C339.795 195.467 339.961 195.66 340.175 195.8C340.395 195.94 340.648 196.01 340.935 196.01ZM345.021 197V191.73H346.221L346.241 192.81L346.011 192.93C346.077 192.69 346.207 192.473 346.401 192.28C346.594 192.08 346.824 191.92 347.091 191.8C347.357 191.68 347.631 191.62 347.911 191.62C348.311 191.62 348.644 191.7 348.911 191.86C349.184 192.02 349.387 192.26 349.521 192.58C349.661 192.9 349.731 193.3 349.731 193.78V197H348.501V193.87C348.501 193.603 348.464 193.383 348.391 193.21C348.317 193.03 348.204 192.9 348.051 192.82C347.897 192.733 347.711 192.693 347.491 192.7C347.311 192.7 347.144 192.73 346.991 192.79C346.844 192.843 346.714 192.923 346.601 193.03C346.494 193.13 346.407 193.247 346.341 193.38C346.281 193.513 346.251 193.66 346.251 193.82V197H345.641C345.521 197 345.407 197 345.301 197C345.201 197 345.107 197 345.021 197ZM353.235 197.1C352.768 197.1 352.348 196.983 351.975 196.75C351.608 196.51 351.315 196.187 351.095 195.78C350.881 195.367 350.775 194.893 350.775 194.36C350.775 193.833 350.881 193.363 351.095 192.95C351.308 192.537 351.598 192.213 351.965 191.98C352.338 191.74 352.758 191.62 353.225 191.62C353.478 191.62 353.721 191.66 353.955 191.74C354.195 191.82 354.408 191.93 354.595 192.07C354.781 192.203 354.928 192.353 355.035 192.52C355.148 192.687 355.211 192.86 355.225 193.04L354.895 193.08V189.6H356.125V197H354.935L354.905 195.76L355.145 195.78C355.138 195.947 355.078 196.107 354.965 196.26C354.858 196.413 354.718 196.553 354.545 196.68C354.371 196.807 354.168 196.91 353.935 196.99C353.708 197.063 353.475 197.1 353.235 197.1ZM353.475 196.06C353.761 196.06 354.015 195.987 354.235 195.84C354.455 195.693 354.625 195.493 354.745 195.24C354.871 194.987 354.935 194.693 354.935 194.36C354.935 194.033 354.871 193.743 354.745 193.49C354.625 193.23 354.455 193.03 354.235 192.89C354.015 192.743 353.761 192.67 353.475 192.67C353.188 192.67 352.935 192.743 352.715 192.89C352.495 193.03 352.321 193.23 352.195 193.49C352.075 193.743 352.015 194.033 352.015 194.36C352.015 194.693 352.075 194.987 352.195 195.24C352.321 195.493 352.495 195.693 352.715 195.84C352.935 195.987 353.188 196.06 353.475 196.06ZM357.661 197V191.73H358.891V197H357.661ZM358.261 190.61C358.014 190.61 357.821 190.55 357.681 190.43C357.547 190.303 357.481 190.127 357.481 189.9C357.481 189.687 357.551 189.513 357.691 189.38C357.831 189.247 358.021 189.18 358.261 189.18C358.514 189.18 358.707 189.243 358.841 189.37C358.981 189.49 359.051 189.667 359.051 189.9C359.051 190.107 358.981 190.277 358.841 190.41C358.701 190.543 358.507 190.61 358.261 190.61ZM360.45 197V191.73H361.65L361.67 192.81L361.44 192.93C361.507 192.69 361.637 192.473 361.83 192.28C362.024 192.08 362.254 191.92 362.52 191.8C362.787 191.68 363.06 191.62 363.34 191.62C363.74 191.62 364.074 191.7 364.34 191.86C364.614 192.02 364.817 192.26 364.95 192.58C365.09 192.9 365.16 193.3 365.16 193.78V197H363.93V193.87C363.93 193.603 363.894 193.383 363.82 193.21C363.747 193.03 363.634 192.9 363.48 192.82C363.327 192.733 363.14 192.693 362.92 192.7C362.74 192.7 362.574 192.73 362.42 192.79C362.274 192.843 362.144 192.923 362.03 193.03C361.924 193.13 361.837 193.247 361.77 193.38C361.71 193.513 361.68 193.66 361.68 193.82V197H361.07C360.95 197 360.837 197 360.73 197C360.63 197 360.537 197 360.45 197ZM368.914 199.3C368.521 199.3 368.128 199.24 367.734 199.12C367.348 199 367.034 198.843 366.794 198.65L367.234 197.74C367.374 197.84 367.531 197.927 367.704 198C367.878 198.073 368.061 198.13 368.254 198.17C368.454 198.21 368.651 198.23 368.844 198.23C369.198 198.23 369.491 198.173 369.724 198.06C369.964 197.953 370.144 197.787 370.264 197.56C370.384 197.34 370.444 197.063 370.444 196.73V195.76L370.624 195.83C370.584 196.037 370.474 196.233 370.294 196.42C370.114 196.607 369.888 196.76 369.614 196.88C369.341 196.993 369.061 197.05 368.774 197.05C368.274 197.05 367.831 196.933 367.444 196.7C367.064 196.467 366.761 196.15 366.534 195.75C366.314 195.343 366.204 194.877 366.204 194.35C366.204 193.823 366.314 193.357 366.534 192.95C366.754 192.537 367.054 192.213 367.434 191.98C367.821 191.74 368.254 191.62 368.734 191.62C368.934 191.62 369.128 191.643 369.314 191.69C369.501 191.737 369.671 191.803 369.824 191.89C369.984 191.977 370.128 192.073 370.254 192.18C370.381 192.287 370.484 192.4 370.564 192.52C370.644 192.64 370.694 192.757 370.714 192.87L370.454 192.95L370.474 191.73H371.684V196.64C371.684 197.067 371.621 197.443 371.494 197.77C371.368 198.097 371.184 198.373 370.944 198.6C370.704 198.833 370.414 199.007 370.074 199.12C369.734 199.24 369.348 199.3 368.914 199.3ZM368.964 196C369.264 196 369.528 195.93 369.754 195.79C369.988 195.65 370.168 195.457 370.294 195.21C370.421 194.963 370.484 194.68 370.484 194.36C370.484 194.033 370.418 193.747 370.284 193.5C370.158 193.247 369.981 193.05 369.754 192.91C369.528 192.77 369.264 192.7 368.964 192.7C368.664 192.7 368.401 192.773 368.174 192.92C367.948 193.06 367.768 193.257 367.634 193.51C367.508 193.757 367.444 194.04 367.444 194.36C367.444 194.673 367.508 194.957 367.634 195.21C367.768 195.457 367.948 195.65 368.174 195.79C368.401 195.93 368.664 196 368.964 196Z" fill="black"/>
<rect x="98" y="186" width="2" height="23" rx="1" fill="#1A89FA"/>
<rect x="197" y="186" width="2" height="23" rx="1" fill="#9CE582"/>
<rect x="304" y="186" width="2" height="23" rx="1" fill="#DF6E61"/>
<line x1="98" y1="171.5" x2="378" y2="171.5" stroke="#E4E6EA"/>
<rect x="98" y="250" width="122" height="5" rx="2.5" fill="#1A89FA"/>
<rect x="222" y="250" width="107" height="5" rx="2.5" fill="#35CA00" fill-opacity="0.49"/>
<rect x="331" y="250" width="47" height="5" rx="2.5" fill="#DF6E61"/>
<rect x="98" y="321" width="198" height="7" rx="3.5" fill="#E4E6EA"/>
<rect x="313" y="316" width="70" height="16" rx="8" fill="#AEE9D1"/>
<path d="M329.953 327.119C329.31 327.119 328.755 326.979 328.286 326.698C327.824 326.411 327.465 326.014 327.209 325.508C326.96 324.996 326.835 324.403 326.835 323.729C326.835 323.061 326.96 322.471 327.209 321.959C327.465 321.447 327.824 321.05 328.286 320.769C328.755 320.482 329.31 320.339 329.953 320.339C330.721 320.339 331.343 320.523 331.817 320.891C332.298 321.26 332.604 321.778 332.735 322.446H331.705C331.611 322.059 331.418 321.75 331.124 321.519C330.837 321.288 330.447 321.172 329.953 321.172C329.51 321.172 329.126 321.275 328.802 321.481C328.477 321.687 328.227 321.981 328.052 322.362C327.877 322.742 327.79 323.198 327.79 323.729C327.79 324.26 327.877 324.719 328.052 325.106C328.227 325.487 328.477 325.78 328.802 325.986C329.126 326.186 329.51 326.286 329.953 326.286C330.447 326.286 330.837 326.177 331.124 325.958C331.418 325.733 331.611 325.43 331.705 325.05H332.735C332.604 325.699 332.298 326.208 331.817 326.576C331.343 326.938 330.721 327.119 329.953 327.119ZM335.963 327.119C335.519 327.119 335.12 327.016 334.764 326.81C334.414 326.604 334.136 326.317 333.93 325.949C333.731 325.574 333.631 325.143 333.631 324.656C333.631 324.157 333.734 323.723 333.94 323.354C334.146 322.98 334.427 322.689 334.783 322.483C335.139 322.277 335.538 322.174 335.982 322.174C336.431 322.174 336.831 322.277 337.18 322.483C337.53 322.689 337.805 322.977 338.005 323.345C338.211 323.713 338.314 324.147 338.314 324.647C338.314 325.146 338.211 325.58 338.005 325.949C337.805 326.317 337.527 326.604 337.171 326.81C336.815 327.016 336.412 327.119 335.963 327.119ZM335.963 326.314C336.219 326.314 336.45 326.251 336.656 326.127C336.868 326.002 337.037 325.818 337.162 325.574C337.293 325.324 337.358 325.015 337.358 324.647C337.358 324.278 337.296 323.972 337.171 323.729C337.046 323.479 336.878 323.292 336.665 323.167C336.459 323.042 336.231 322.98 335.982 322.98C335.732 322.98 335.501 323.042 335.288 323.167C335.076 323.292 334.904 323.479 334.773 323.729C334.648 323.972 334.586 324.278 334.586 324.647C334.586 325.015 334.648 325.324 334.773 325.574C334.904 325.818 335.073 326.002 335.279 326.127C335.491 326.251 335.719 326.314 335.963 326.314ZM339.415 327.007V322.287H340.258L340.314 323.092C340.464 322.811 340.677 322.589 340.951 322.427C341.226 322.259 341.541 322.174 341.897 322.174C342.272 322.174 342.593 322.249 342.862 322.399C343.13 322.549 343.339 322.777 343.489 323.083C343.639 323.382 343.714 323.76 343.714 324.216V327.007H342.778V324.31C342.778 323.873 342.681 323.542 342.487 323.317C342.294 323.092 342.013 322.98 341.644 322.98C341.401 322.98 341.182 323.039 340.989 323.158C340.795 323.27 340.639 323.439 340.52 323.663C340.408 323.888 340.352 324.163 340.352 324.488V327.007H339.415ZM345.165 327.007V323.083H344.472V322.287H345.165V321.65C345.165 321.325 345.218 321.06 345.324 320.854C345.437 320.648 345.599 320.498 345.811 320.404C346.024 320.311 346.28 320.264 346.579 320.264H347.066V321.06H346.729C346.504 321.06 346.342 321.107 346.242 321.2C346.148 321.288 346.102 321.444 346.102 321.669V322.287H348.977V327.007H348.04V323.083H346.102V327.007H345.165ZM348.518 321.472C348.343 321.472 348.196 321.416 348.078 321.303C347.959 321.191 347.9 321.047 347.9 320.872C347.9 320.704 347.959 320.567 348.078 320.46C348.196 320.348 348.343 320.292 348.518 320.292C348.699 320.292 348.846 320.348 348.958 320.46C349.077 320.567 349.136 320.704 349.136 320.872C349.136 321.047 349.077 321.191 348.958 321.303C348.846 321.416 348.699 321.472 348.518 321.472ZM350.327 327.007V322.287H351.17L351.254 323.176C351.36 322.964 351.497 322.786 351.666 322.643C351.835 322.493 352.031 322.377 352.256 322.296C352.487 322.215 352.749 322.174 353.043 322.174V323.167H352.706C352.512 323.167 352.328 323.192 352.153 323.242C351.978 323.286 351.822 323.364 351.685 323.476C351.554 323.588 351.451 323.741 351.376 323.935C351.301 324.129 351.263 324.369 351.263 324.656V327.007H350.327ZM353.903 327.007V322.287H354.746L354.811 322.952C354.961 322.708 355.161 322.518 355.411 322.38C355.66 322.243 355.941 322.174 356.254 322.174C356.491 322.174 356.706 322.209 356.9 322.277C357.093 322.34 357.265 322.437 357.415 322.568C357.565 322.699 357.687 322.861 357.78 323.055C357.949 322.78 358.174 322.565 358.455 322.408C358.742 322.252 359.045 322.174 359.363 322.174C359.744 322.174 360.072 322.252 360.346 322.408C360.621 322.558 360.83 322.786 360.974 323.092C361.117 323.392 361.189 323.766 361.189 324.216V327.007H360.262V324.31C360.262 323.873 360.172 323.542 359.99 323.317C359.816 323.092 359.557 322.98 359.213 322.98C358.982 322.98 358.776 323.039 358.595 323.158C358.414 323.276 358.27 323.448 358.164 323.673C358.064 323.898 358.014 324.172 358.014 324.497V327.007H357.078V324.31C357.078 323.873 356.987 323.542 356.806 323.317C356.631 323.092 356.372 322.98 356.029 322.98C355.81 322.98 355.61 323.039 355.429 323.158C355.248 323.276 355.105 323.448 354.999 323.673C354.892 323.898 354.839 324.172 354.839 324.497V327.007H353.903ZM364.535 327.119C364.085 327.119 363.686 327.016 363.336 326.81C362.986 326.604 362.712 326.317 362.512 325.949C362.318 325.58 362.222 325.153 362.222 324.666C362.222 324.166 362.318 323.732 362.512 323.364C362.712 322.989 362.986 322.699 363.336 322.493C363.686 322.28 364.092 322.174 364.554 322.174C365.016 322.174 365.412 322.277 365.743 322.483C366.074 322.689 366.33 322.964 366.511 323.308C366.692 323.645 366.783 324.019 366.783 324.431C366.783 324.494 366.78 324.563 366.773 324.637C366.773 324.706 366.77 324.784 366.764 324.872H362.905V324.207H365.846C365.827 323.813 365.696 323.507 365.453 323.289C365.209 323.064 364.906 322.952 364.544 322.952C364.288 322.952 364.054 323.011 363.842 323.13C363.63 323.242 363.458 323.411 363.327 323.635C363.202 323.854 363.139 324.132 363.139 324.469V324.731C363.139 325.081 363.202 325.377 363.327 325.621C363.458 325.858 363.63 326.039 363.842 326.164C364.054 326.283 364.285 326.342 364.535 326.342C364.835 326.342 365.081 326.276 365.275 326.145C365.468 326.014 365.612 325.836 365.706 325.611H366.642C366.561 325.899 366.424 326.158 366.23 326.389C366.037 326.614 365.796 326.792 365.509 326.923C365.228 327.054 364.903 327.119 364.535 327.119ZM369.921 327.119C369.472 327.119 369.075 327.013 368.732 326.801C368.388 326.582 368.12 326.289 367.926 325.921C367.739 325.546 367.645 325.121 367.645 324.647C367.645 324.166 367.739 323.741 367.926 323.373C368.12 323.005 368.388 322.714 368.732 322.502C369.081 322.284 369.481 322.174 369.931 322.174C370.299 322.174 370.624 322.249 370.905 322.399C371.186 322.543 371.404 322.749 371.56 323.017V320.264H372.497V327.007H371.663L371.56 326.276C371.466 326.42 371.345 326.557 371.195 326.689C371.045 326.813 370.864 326.916 370.652 326.998C370.439 327.079 370.196 327.119 369.921 327.119ZM370.071 326.305C370.364 326.305 370.624 326.236 370.848 326.098C371.073 325.961 371.245 325.768 371.363 325.518C371.488 325.268 371.551 324.978 371.551 324.647C371.551 324.316 371.488 324.029 371.363 323.785C371.245 323.535 371.073 323.342 370.848 323.204C370.624 323.061 370.364 322.989 370.071 322.989C369.79 322.989 369.537 323.061 369.312 323.204C369.088 323.342 368.913 323.535 368.788 323.785C368.663 324.029 368.601 324.316 368.601 324.647C368.601 324.978 368.663 325.268 368.788 325.518C368.913 325.768 369.088 325.961 369.312 326.098C369.537 326.236 369.79 326.305 370.071 326.305Z" fill="black"/>
<path d="M381.527 373H351.473C350.66 373 350 374.567 350 376.5C350 378.433 350.66 380 351.473 380H381.527C382.34 380 383 378.433 383 376.5C383 374.567 382.34 373 381.527 373Z" fill="#E4E6EA"/>
<path d="M378.714 352H291.286C288.919 352 287 353.567 287 355.5C287 357.433 288.919 359 291.286 359H378.714C381.081 359 383 357.433 383 355.5C383 353.567 381.081 352 378.714 352Z" fill="#E4E6EA"/>
<path d="M380.143 394H321.857C320.279 394 319 395.567 319 397.5C319 399.433 320.279 401 321.857 401H380.143C381.721 401 383 399.433 383 397.5C383 395.567 381.721 394 380.143 394Z" fill="#E4E6EA"/>
<path d="M98.98 380V373H101.72C102.22 373 102.67 373.083 103.07 373.25C103.477 373.417 103.823 373.657 104.11 373.97C104.397 374.283 104.617 374.653 104.77 375.08C104.923 375.507 105 375.98 105 376.5C105 377.02 104.923 377.497 104.77 377.93C104.617 378.357 104.397 378.727 104.11 379.04C103.83 379.347 103.487 379.583 103.08 379.75C102.673 379.917 102.22 380 101.72 380H98.98ZM100.06 379.07L100.03 378.96H101.67C102.023 378.96 102.337 378.903 102.61 378.79C102.89 378.677 103.123 378.517 103.31 378.31C103.503 378.097 103.65 377.837 103.75 377.53C103.85 377.223 103.9 376.88 103.9 376.5C103.9 376.12 103.85 375.78 103.75 375.48C103.65 375.173 103.503 374.913 103.31 374.7C103.117 374.487 102.883 374.323 102.61 374.21C102.337 374.097 102.023 374.04 101.67 374.04H100L100.06 373.95V379.07ZM108.22 380.1C107.787 380.1 107.39 379.98 107.03 379.74C106.677 379.5 106.394 379.173 106.18 378.76C105.967 378.347 105.86 377.88 105.86 377.36C105.86 376.833 105.967 376.367 106.18 375.96C106.4 375.547 106.694 375.223 107.06 374.99C107.434 374.757 107.85 374.64 108.31 374.64C108.584 374.64 108.834 374.68 109.06 374.76C109.287 374.84 109.484 374.953 109.65 375.1C109.824 375.24 109.964 375.403 110.07 375.59C110.184 375.777 110.254 375.977 110.28 376.19L110.05 376.11V374.75H111.09V380H110.05V378.75L110.29 378.68C110.25 378.86 110.167 379.037 110.04 379.21C109.92 379.377 109.764 379.527 109.57 379.66C109.384 379.793 109.174 379.9 108.94 379.98C108.714 380.06 108.474 380.1 108.22 380.1ZM108.49 379.15C108.804 379.15 109.08 379.073 109.32 378.92C109.56 378.767 109.747 378.557 109.88 378.29C110.02 378.017 110.09 377.707 110.09 377.36C110.09 377.02 110.02 376.717 109.88 376.45C109.747 376.183 109.56 375.973 109.32 375.82C109.08 375.667 108.804 375.59 108.49 375.59C108.184 375.59 107.91 375.667 107.67 375.82C107.437 375.973 107.25 376.183 107.11 376.45C106.977 376.717 106.91 377.02 106.91 377.36C106.91 377.707 106.977 378.017 107.11 378.29C107.25 378.557 107.437 378.767 107.67 378.92C107.91 379.073 108.184 379.15 108.49 379.15ZM113.179 380V373.41H114.209V380H113.179ZM112.089 375.75V374.75H115.429V375.75H112.089ZM118.768 380.1C118.228 380.1 117.748 379.987 117.328 379.76C116.914 379.527 116.588 379.21 116.348 378.81C116.114 378.41 115.998 377.95 115.998 377.43C115.998 377.017 116.064 376.64 116.198 376.3C116.331 375.96 116.514 375.667 116.748 375.42C116.988 375.167 117.271 374.973 117.598 374.84C117.931 374.7 118.291 374.63 118.678 374.63C119.018 374.63 119.334 374.697 119.628 374.83C119.921 374.957 120.174 375.133 120.388 375.36C120.608 375.587 120.774 375.857 120.888 376.17C121.008 376.477 121.064 376.813 121.058 377.18L121.048 377.62H116.758L116.528 376.8H120.158L120.008 376.97V376.73C119.988 376.51 119.914 376.313 119.788 376.14C119.661 375.967 119.501 375.83 119.308 375.73C119.114 375.63 118.904 375.58 118.678 375.58C118.318 375.58 118.014 375.65 117.768 375.79C117.521 375.923 117.334 376.123 117.208 376.39C117.081 376.65 117.018 376.973 117.018 377.36C117.018 377.727 117.094 378.047 117.248 378.32C117.401 378.587 117.618 378.793 117.898 378.94C118.178 379.087 118.501 379.16 118.868 379.16C119.128 379.16 119.368 379.117 119.588 379.03C119.814 378.943 120.058 378.787 120.318 378.56L120.838 379.29C120.678 379.45 120.481 379.59 120.248 379.71C120.021 379.83 119.778 379.927 119.518 380C119.264 380.067 119.014 380.1 118.768 380.1Z" fill="#3B3B3B"/>
<path d="M98.72 359V358H99.85V353H98.72V352H102.06V353H100.93V358H102.06V359H98.72ZM103.495 359V353.75H104.525V354.83L104.345 354.95C104.412 354.717 104.542 354.503 104.735 354.31C104.929 354.11 105.159 353.95 105.425 353.83C105.692 353.703 105.965 353.64 106.245 353.64C106.645 353.64 106.979 353.72 107.245 353.88C107.512 354.033 107.712 354.27 107.845 354.59C107.979 354.91 108.045 355.313 108.045 355.8V359H107.015V355.87C107.015 355.57 106.975 355.323 106.895 355.13C106.815 354.93 106.692 354.787 106.525 354.7C106.359 354.607 106.152 354.567 105.905 354.58C105.705 354.58 105.522 354.613 105.355 354.68C105.189 354.74 105.042 354.827 104.915 354.94C104.795 355.053 104.699 355.187 104.625 355.34C104.559 355.487 104.525 355.647 104.525 355.82V359H104.015C103.929 359 103.842 359 103.755 359C103.669 359 103.582 359 103.495 359ZM111.163 359L108.943 353.75H110.053L111.653 357.68L111.463 357.77L113.173 353.75H114.233L111.903 359H111.163ZM117.389 359.1C116.875 359.1 116.415 358.983 116.009 358.75C115.609 358.51 115.292 358.187 115.059 357.78C114.825 357.367 114.709 356.897 114.709 356.37C114.709 355.843 114.825 355.377 115.059 354.97C115.292 354.557 115.609 354.233 116.009 354C116.415 353.76 116.875 353.64 117.389 353.64C117.895 353.64 118.349 353.76 118.749 354C119.155 354.233 119.475 354.557 119.709 354.97C119.942 355.377 120.059 355.843 120.059 356.37C120.059 356.897 119.942 357.367 119.709 357.78C119.475 358.187 119.155 358.51 118.749 358.75C118.349 358.983 117.895 359.1 117.389 359.1ZM117.389 358.16C117.702 358.16 117.982 358.083 118.229 357.93C118.475 357.77 118.669 357.557 118.809 357.29C118.949 357.017 119.015 356.71 119.009 356.37C119.015 356.023 118.949 355.717 118.809 355.45C118.669 355.177 118.475 354.963 118.229 354.81C117.982 354.657 117.702 354.58 117.389 354.58C117.075 354.58 116.792 354.66 116.539 354.82C116.292 354.973 116.099 355.187 115.959 355.46C115.819 355.727 115.752 356.03 115.759 356.37C115.752 356.71 115.819 357.017 115.959 357.29C116.099 357.557 116.292 357.77 116.539 357.93C116.792 358.083 117.075 358.16 117.389 358.16ZM121.351 359V353.75H122.381V359H121.351ZM121.851 352.59C121.631 352.59 121.461 352.533 121.341 352.42C121.221 352.307 121.161 352.147 121.161 351.94C121.161 351.747 121.221 351.59 121.341 351.47C121.468 351.35 121.638 351.29 121.851 351.29C122.071 351.29 122.241 351.347 122.361 351.46C122.481 351.573 122.541 351.733 122.541 351.94C122.541 352.133 122.478 352.29 122.351 352.41C122.231 352.53 122.064 352.59 121.851 352.59ZM126.194 359.1C125.707 359.1 125.271 358.98 124.884 358.74C124.504 358.5 124.201 358.173 123.974 357.76C123.754 357.347 123.644 356.883 123.644 356.37C123.644 355.857 123.754 355.393 123.974 354.98C124.201 354.567 124.504 354.24 124.884 354C125.271 353.76 125.707 353.64 126.194 353.64C126.661 353.64 127.084 353.737 127.464 353.93C127.851 354.117 128.144 354.373 128.344 354.7L127.774 355.4C127.667 355.247 127.531 355.107 127.364 354.98C127.197 354.853 127.021 354.753 126.834 354.68C126.647 354.607 126.467 354.57 126.294 354.57C125.974 354.57 125.687 354.65 125.434 354.81C125.187 354.963 124.991 355.177 124.844 355.45C124.697 355.723 124.624 356.03 124.624 356.37C124.624 356.71 124.701 357.017 124.854 357.29C125.007 357.557 125.211 357.77 125.464 357.93C125.717 358.09 125.997 358.17 126.304 358.17C126.484 358.17 126.657 358.14 126.824 358.08C126.997 358.02 127.164 357.93 127.324 357.81C127.484 357.69 127.634 357.543 127.774 357.37L128.344 358.07C128.131 358.37 127.824 358.617 127.424 358.81C127.031 359.003 126.621 359.1 126.194 359.1ZM131.766 359.1C131.226 359.1 130.746 358.987 130.326 358.76C129.912 358.527 129.586 358.21 129.346 357.81C129.112 357.41 128.996 356.95 128.996 356.43C128.996 356.017 129.062 355.64 129.196 355.3C129.329 354.96 129.512 354.667 129.746 354.42C129.986 354.167 130.269 353.973 130.596 353.84C130.929 353.7 131.289 353.63 131.676 353.63C132.016 353.63 132.332 353.697 132.626 353.83C132.919 353.957 133.172 354.133 133.386 354.36C133.606 354.587 133.772 354.857 133.886 355.17C134.006 355.477 134.062 355.813 134.056 356.18L134.046 356.62H129.756L129.526 355.8H133.156L133.006 355.97V355.73C132.986 355.51 132.912 355.313 132.786 355.14C132.659 354.967 132.499 354.83 132.306 354.73C132.112 354.63 131.902 354.58 131.676 354.58C131.316 354.58 131.012 354.65 130.766 354.79C130.519 354.923 130.332 355.123 130.206 355.39C130.079 355.65 130.016 355.973 130.016 356.36C130.016 356.727 130.092 357.047 130.246 357.32C130.399 357.587 130.616 357.793 130.896 357.94C131.176 358.087 131.499 358.16 131.866 358.16C132.126 358.16 132.366 358.117 132.586 358.03C132.812 357.943 133.056 357.787 133.316 357.56L133.836 358.29C133.676 358.45 133.479 358.59 133.246 358.71C133.019 358.83 132.776 358.927 132.516 359C132.262 359.067 132.012 359.1 131.766 359.1Z" fill="#3B3B3B"/>
<path d="M100.31 401V395.04H98.35V394H103.41V395.04H101.39V401H100.31ZM104.652 401V395.75H105.682V401H104.652ZM105.152 394.59C104.932 394.59 104.762 394.533 104.642 394.42C104.522 394.307 104.462 394.147 104.462 393.94C104.462 393.747 104.522 393.59 104.642 393.47C104.768 393.35 104.938 393.29 105.152 393.29C105.372 393.29 105.542 393.347 105.662 393.46C105.782 393.573 105.842 393.733 105.842 393.94C105.842 394.133 105.778 394.29 105.652 394.41C105.532 394.53 105.365 394.59 105.152 394.59ZM107.245 401V395.75H108.285V396.87L108.095 396.99C108.148 396.817 108.232 396.65 108.345 396.49C108.465 396.33 108.608 396.19 108.775 396.07C108.948 395.943 109.132 395.843 109.325 395.77C109.525 395.697 109.728 395.66 109.935 395.66C110.235 395.66 110.498 395.71 110.725 395.81C110.952 395.91 111.138 396.06 111.285 396.26C111.432 396.46 111.538 396.71 111.605 397.01L111.445 396.97L111.515 396.8C111.588 396.647 111.688 396.503 111.815 396.37C111.948 396.23 112.098 396.107 112.265 396C112.432 395.893 112.608 395.81 112.795 395.75C112.982 395.69 113.165 395.66 113.345 395.66C113.738 395.66 114.062 395.74 114.315 395.9C114.575 396.06 114.768 396.303 114.895 396.63C115.028 396.957 115.095 397.363 115.095 397.85V401H114.055V397.91C114.055 397.61 114.015 397.367 113.935 397.18C113.862 396.987 113.748 396.843 113.595 396.75C113.442 396.657 113.245 396.61 113.005 396.61C112.818 396.61 112.642 396.643 112.475 396.71C112.315 396.77 112.175 396.857 112.055 396.97C111.935 397.083 111.842 397.217 111.775 397.37C111.708 397.517 111.675 397.68 111.675 397.86V401H110.635V397.89C110.635 397.617 110.595 397.387 110.515 397.2C110.435 397.007 110.318 396.86 110.165 396.76C110.012 396.66 109.825 396.61 109.605 396.61C109.418 396.61 109.245 396.643 109.085 396.71C108.925 396.77 108.785 396.857 108.665 396.97C108.545 397.077 108.452 397.207 108.385 397.36C108.318 397.507 108.285 397.667 108.285 397.84V401H107.245ZM118.924 401.1C118.384 401.1 117.904 400.987 117.484 400.76C117.071 400.527 116.744 400.21 116.504 399.81C116.271 399.41 116.154 398.95 116.154 398.43C116.154 398.017 116.221 397.64 116.354 397.3C116.487 396.96 116.671 396.667 116.904 396.42C117.144 396.167 117.427 395.973 117.754 395.84C118.087 395.7 118.447 395.63 118.834 395.63C119.174 395.63 119.491 395.697 119.784 395.83C120.077 395.957 120.331 396.133 120.544 396.36C120.764 396.587 120.931 396.857 121.044 397.17C121.164 397.477 121.221 397.813 121.214 398.18L121.204 398.62H116.914L116.684 397.8H120.314L120.164 397.97V397.73C120.144 397.51 120.071 397.313 119.944 397.14C119.817 396.967 119.657 396.83 119.464 396.73C119.271 396.63 119.061 396.58 118.834 396.58C118.474 396.58 118.171 396.65 117.924 396.79C117.677 396.923 117.491 397.123 117.364 397.39C117.237 397.65 117.174 397.973 117.174 398.36C117.174 398.727 117.251 399.047 117.404 399.32C117.557 399.587 117.774 399.793 118.054 399.94C118.334 400.087 118.657 400.16 119.024 400.16C119.284 400.16 119.524 400.117 119.744 400.03C119.971 399.943 120.214 399.787 120.474 399.56L120.994 400.29C120.834 400.45 120.637 400.59 120.404 400.71C120.177 400.83 119.934 400.927 119.674 401C119.421 401.067 119.171 401.1 118.924 401.1Z" fill="#3B3B3B"/>
</g>
<defs>
<clipPath id="clip0_721_683">
<rect width="480" height="540" fill="white"/>
</clipPath>
</defs>
</svg>
