<svg width="480" height="540" viewBox="0 0 480 540" fill="none" xmlns="http://www.w3.org/2000/svg">
<g clip-path="url(#clip0_183_94)">
<path d="M85 76H396C405.389 76 413 83.6112 413 93V447C413 456.389 405.389 464 396 464H85C75.6111 464 68 456.389 68 447V93C68 83.6112 75.6111 76 85 76Z" fill="#F1F5F7"/>
<path d="M83.147 121L88.922 106.3H91.736L97.469 121H94.235L91.274 113.083C91.19 112.859 91.085 112.572 90.959 112.222C90.847 111.872 90.728 111.501 90.602 111.109C90.476 110.717 90.357 110.346 90.245 109.996C90.133 109.632 90.049 109.331 89.993 109.093H90.56C90.476 109.401 90.378 109.73 90.266 110.08C90.168 110.416 90.063 110.766 89.951 111.13C89.839 111.48 89.72 111.823 89.594 112.159C89.468 112.495 89.349 112.824 89.237 113.146L86.276 121H83.147ZM85.835 117.913L86.864 115.393H93.605L94.655 117.913H85.835ZM99.1131 121V109.891H101.969L102.053 112.159L101.465 112.411C101.619 111.907 101.892 111.452 102.284 111.046C102.69 110.626 103.173 110.29 103.733 110.038C104.293 109.786 104.881 109.66 105.497 109.66C106.337 109.66 107.037 109.828 107.597 110.164C108.171 110.5 108.598 111.011 108.878 111.697C109.172 112.369 109.319 113.202 109.319 114.196V121H106.337V114.427C106.337 113.923 106.267 113.503 106.127 113.167C105.987 112.831 105.77 112.586 105.476 112.432C105.196 112.278 104.846 112.208 104.426 112.222C104.09 112.222 103.775 112.278 103.481 112.39C103.201 112.488 102.956 112.635 102.746 112.831C102.55 113.027 102.389 113.251 102.263 113.503C102.151 113.755 102.095 114.028 102.095 114.322V121H100.625C100.303 121 100.016 121 99.7641 121C99.5121 121 99.2951 121 99.1131 121ZM116.335 121.21C115.411 121.21 114.578 120.958 113.836 120.454C113.094 119.95 112.506 119.264 112.072 118.396C111.638 117.528 111.421 116.534 111.421 115.414C111.421 114.294 111.638 113.3 112.072 112.432C112.52 111.564 113.122 110.885 113.878 110.395C114.634 109.905 115.495 109.66 116.461 109.66C117.007 109.66 117.504 109.744 117.952 109.912C118.414 110.066 118.813 110.283 119.149 110.563C119.499 110.843 119.793 111.165 120.031 111.529C120.269 111.893 120.437 112.285 120.535 112.705L119.905 112.6V109.891H122.866V121H119.863V118.333L120.535 118.27C120.423 118.662 120.241 119.033 119.989 119.383C119.737 119.733 119.422 120.048 119.044 120.328C118.68 120.594 118.267 120.811 117.805 120.979C117.343 121.133 116.853 121.21 116.335 121.21ZM117.154 118.627C117.714 118.627 118.204 118.494 118.624 118.228C119.044 117.962 119.366 117.591 119.59 117.115C119.828 116.625 119.947 116.058 119.947 115.414C119.947 114.784 119.828 114.231 119.59 113.755C119.366 113.279 119.044 112.908 118.624 112.642C118.204 112.362 117.714 112.222 117.154 112.222C116.608 112.222 116.125 112.362 115.705 112.642C115.299 112.908 114.977 113.279 114.739 113.755C114.501 114.231 114.382 114.784 114.382 115.414C114.382 116.058 114.501 116.625 114.739 117.115C114.977 117.591 115.299 117.962 115.705 118.228C116.125 118.494 116.608 118.627 117.154 118.627ZM125.876 121V105.46H128.858V121H125.876ZM133.131 125.83L135.567 120.118L135.609 121.84L130.191 109.891H133.572L136.281 116.296C136.393 116.534 136.498 116.814 136.596 117.136C136.708 117.444 136.799 117.738 136.869 118.018L136.365 118.249C136.463 118.011 136.561 117.738 136.659 117.43C136.771 117.122 136.883 116.793 136.995 116.443L139.326 109.891H142.728L138.066 121L136.155 125.83H133.131ZM145.404 121V107.077H148.386V121H145.404ZM143.325 112.558V109.891H150.675V112.558H143.325ZM152.849 121V109.891H155.831V121H152.849ZM154.319 107.623C153.745 107.623 153.297 107.483 152.975 107.203C152.653 106.909 152.492 106.503 152.492 105.985C152.492 105.509 152.653 105.124 152.975 104.83C153.311 104.522 153.759 104.368 154.319 104.368C154.893 104.368 155.341 104.515 155.663 104.809C155.985 105.089 156.146 105.481 156.146 105.985C156.146 106.461 155.978 106.853 155.642 107.161C155.32 107.469 154.879 107.623 154.319 107.623ZM163.846 121.21C162.782 121.21 161.83 120.958 160.99 120.454C160.15 119.95 159.485 119.264 158.995 118.396C158.519 117.528 158.281 116.541 158.281 115.435C158.281 114.329 158.519 113.342 158.995 112.474C159.485 111.606 160.15 110.92 160.99 110.416C161.83 109.912 162.782 109.66 163.846 109.66C164.84 109.66 165.75 109.842 166.576 110.206C167.402 110.57 168.046 111.074 168.508 111.718L166.87 113.692C166.674 113.426 166.429 113.188 166.135 112.978C165.841 112.754 165.519 112.579 165.169 112.453C164.833 112.327 164.483 112.264 164.119 112.264C163.545 112.264 163.034 112.404 162.586 112.684C162.152 112.95 161.809 113.321 161.557 113.797C161.305 114.273 161.179 114.819 161.179 115.435C161.179 116.023 161.305 116.555 161.557 117.031C161.823 117.507 162.18 117.885 162.628 118.165C163.076 118.445 163.58 118.585 164.14 118.585C164.504 118.585 164.847 118.536 165.169 118.438C165.491 118.34 165.792 118.186 166.072 117.976C166.366 117.766 166.632 117.514 166.87 117.22L168.487 119.194C168.025 119.796 167.367 120.286 166.513 120.664C165.673 121.028 164.784 121.21 163.846 121.21ZM174.136 121.21C173.1 121.21 172.176 121.042 171.364 120.706C170.566 120.356 169.922 119.88 169.432 119.278L171.301 117.682C171.721 118.144 172.197 118.48 172.729 118.69C173.261 118.886 173.793 118.984 174.325 118.984C174.535 118.984 174.724 118.963 174.892 118.921C175.074 118.865 175.228 118.795 175.354 118.711C175.48 118.613 175.571 118.501 175.627 118.375C175.697 118.235 175.732 118.088 175.732 117.934C175.732 117.626 175.606 117.388 175.354 117.22C175.214 117.136 174.997 117.045 174.703 116.947C174.409 116.835 174.031 116.716 173.569 116.59C172.855 116.408 172.246 116.198 171.742 115.96C171.252 115.708 170.86 115.428 170.566 115.12C170.314 114.826 170.118 114.511 169.978 114.175C169.852 113.825 169.789 113.44 169.789 113.02C169.789 112.516 169.901 112.061 170.125 111.655C170.349 111.235 170.657 110.878 171.049 110.584C171.455 110.29 171.917 110.066 172.435 109.912C172.953 109.744 173.499 109.66 174.073 109.66C174.647 109.66 175.207 109.73 175.753 109.87C176.299 110.01 176.803 110.213 177.265 110.479C177.741 110.731 178.154 111.032 178.504 111.382L176.908 113.146C176.656 112.908 176.369 112.691 176.047 112.495C175.739 112.299 175.417 112.145 175.081 112.033C174.745 111.921 174.444 111.865 174.178 111.865C173.94 111.865 173.723 111.886 173.527 111.928C173.345 111.97 173.191 112.04 173.065 112.138C172.939 112.222 172.841 112.327 172.771 112.453C172.715 112.579 172.687 112.719 172.687 112.873C172.687 113.027 172.722 113.174 172.792 113.314C172.876 113.454 172.988 113.573 173.128 113.671C173.282 113.755 173.506 113.853 173.8 113.965C174.108 114.077 174.521 114.203 175.039 114.343C175.711 114.525 176.278 114.728 176.74 114.952C177.216 115.176 177.594 115.435 177.874 115.729C178.112 115.981 178.287 116.268 178.399 116.59C178.511 116.912 178.567 117.269 178.567 117.661C178.567 118.347 178.371 118.956 177.979 119.488C177.601 120.02 177.076 120.44 176.404 120.748C175.732 121.056 174.976 121.21 174.136 121.21Z" fill="black"/>
<rect x="83" y="141" width="315" height="138" rx="9" fill="white"/>
<rect x="83" y="289" width="315" height="138" rx="9" fill="white"/>
<path d="M99.504 172V160.8H104.272C105.008 160.8 105.627 160.907 106.128 161.12C106.64 161.333 107.024 161.653 107.28 162.08C107.547 162.496 107.68 163.003 107.68 163.6C107.68 164.219 107.515 164.741 107.184 165.168C106.853 165.595 106.389 165.888 105.792 166.048L105.776 165.728C106.277 165.835 106.715 166.027 107.088 166.304C107.461 166.571 107.749 166.907 107.952 167.312C108.165 167.707 108.272 168.16 108.272 168.672C108.272 169.216 108.181 169.696 108 170.112C107.829 170.528 107.573 170.875 107.232 171.152C106.891 171.429 106.485 171.643 106.016 171.792C105.547 171.931 105.019 172 104.432 172H99.504ZM101.536 170.128H104.336C104.731 170.128 105.061 170.069 105.328 169.952C105.605 169.835 105.813 169.664 105.952 169.44C106.101 169.205 106.176 168.928 106.176 168.608C106.176 168.309 106.096 168.053 105.936 167.84C105.787 167.627 105.568 167.467 105.28 167.36C104.992 167.243 104.651 167.184 104.256 167.184H101.536V170.128ZM101.536 165.392H104.08C104.389 165.392 104.656 165.333 104.88 165.216C105.115 165.099 105.296 164.939 105.424 164.736C105.552 164.533 105.616 164.299 105.616 164.032C105.616 163.605 105.472 163.275 105.184 163.04C104.896 162.795 104.475 162.672 103.92 162.672H101.536V165.392ZM114.008 172.16C113.165 172.16 112.413 171.973 111.752 171.6C111.091 171.216 110.568 170.693 110.184 170.032C109.8 169.371 109.608 168.619 109.608 167.776C109.608 166.933 109.8 166.181 110.184 165.52C110.568 164.859 111.091 164.341 111.752 163.968C112.413 163.584 113.165 163.392 114.008 163.392C114.84 163.392 115.587 163.584 116.248 163.968C116.909 164.341 117.427 164.859 117.8 165.52C118.184 166.181 118.376 166.933 118.376 167.776C118.376 168.619 118.184 169.371 117.8 170.032C117.427 170.693 116.909 171.216 116.248 171.6C115.587 171.973 114.84 172.16 114.008 172.16ZM114.008 170.416C114.467 170.416 114.872 170.299 115.224 170.064C115.587 169.829 115.869 169.515 116.072 169.12C116.285 168.725 116.387 168.277 116.376 167.776C116.387 167.264 116.285 166.811 116.072 166.416C115.869 166.021 115.587 165.712 115.224 165.488C114.872 165.253 114.467 165.136 114.008 165.136C113.549 165.136 113.133 165.253 112.76 165.488C112.397 165.712 112.115 166.027 111.912 166.432C111.709 166.827 111.608 167.275 111.608 167.776C111.608 168.277 111.709 168.725 111.912 169.12C112.115 169.515 112.397 169.829 112.76 170.064C113.133 170.299 113.549 170.416 114.008 170.416ZM123.992 172.16C123.15 172.16 122.398 171.973 121.736 171.6C121.075 171.216 120.552 170.693 120.168 170.032C119.784 169.371 119.592 168.619 119.592 167.776C119.592 166.933 119.784 166.181 120.168 165.52C120.552 164.859 121.075 164.341 121.736 163.968C122.398 163.584 123.15 163.392 123.992 163.392C124.824 163.392 125.571 163.584 126.232 163.968C126.894 164.341 127.411 164.859 127.784 165.52C128.168 166.181 128.36 166.933 128.36 167.776C128.36 168.619 128.168 169.371 127.784 170.032C127.411 170.693 126.894 171.216 126.232 171.6C125.571 171.973 124.824 172.16 123.992 172.16ZM123.992 170.416C124.451 170.416 124.856 170.299 125.208 170.064C125.571 169.829 125.854 169.515 126.056 169.12C126.27 168.725 126.371 168.277 126.36 167.776C126.371 167.264 126.27 166.811 126.056 166.416C125.854 166.021 125.571 165.712 125.208 165.488C124.856 165.253 124.451 165.136 123.992 165.136C123.534 165.136 123.118 165.253 122.744 165.488C122.382 165.712 122.099 166.027 121.896 166.432C121.694 166.827 121.592 167.275 121.592 167.776C121.592 168.277 121.694 168.725 121.896 169.12C122.099 169.515 122.382 169.829 122.744 170.064C123.118 170.299 123.534 170.416 123.992 170.416ZM131.961 169.424L131.577 167.584L135.577 163.568H138.201L131.961 169.424ZM130.121 172V160.16H132.089V172H130.121ZM135.817 172L132.713 168.24L134.105 167.056L138.249 172H135.817ZM139.767 172V163.568H141.735V172H139.767ZM140.727 161.776C140.332 161.776 140.023 161.68 139.799 161.488C139.585 161.285 139.479 161.003 139.479 160.64C139.479 160.299 139.591 160.021 139.815 159.808C140.039 159.595 140.343 159.488 140.727 159.488C141.132 159.488 141.441 159.589 141.655 159.792C141.879 159.984 141.991 160.267 141.991 160.64C141.991 160.971 141.879 161.243 141.655 161.456C141.431 161.669 141.121 161.776 140.727 161.776ZM144.23 172V163.568H146.15L146.182 165.296L145.814 165.488C145.921 165.104 146.129 164.757 146.438 164.448C146.747 164.128 147.115 163.872 147.542 163.68C147.969 163.488 148.406 163.392 148.854 163.392C149.494 163.392 150.027 163.52 150.454 163.776C150.891 164.032 151.217 164.416 151.43 164.928C151.654 165.44 151.766 166.08 151.766 166.848V172H149.798V166.992C149.798 166.565 149.739 166.213 149.622 165.936C149.505 165.648 149.323 165.44 149.078 165.312C148.833 165.173 148.534 165.109 148.182 165.12C147.894 165.12 147.627 165.168 147.382 165.264C147.147 165.349 146.939 165.477 146.758 165.648C146.587 165.808 146.449 165.995 146.342 166.208C146.246 166.421 146.198 166.656 146.198 166.912V172H145.222C145.03 172 144.849 172 144.678 172C144.518 172 144.369 172 144.23 172ZM157.772 175.68C157.143 175.68 156.513 175.584 155.884 175.392C155.265 175.2 154.764 174.949 154.38 174.64L155.084 173.184C155.308 173.344 155.559 173.483 155.836 173.6C156.113 173.717 156.407 173.808 156.716 173.872C157.036 173.936 157.351 173.968 157.66 173.968C158.225 173.968 158.695 173.877 159.068 173.696C159.452 173.525 159.74 173.259 159.932 172.896C160.124 172.544 160.22 172.101 160.22 171.568V170.016L160.508 170.128C160.444 170.459 160.268 170.773 159.98 171.072C159.692 171.371 159.329 171.616 158.892 171.808C158.455 171.989 158.007 172.08 157.548 172.08C156.748 172.08 156.039 171.893 155.42 171.52C154.812 171.147 154.327 170.64 153.964 170C153.612 169.349 153.436 168.603 153.436 167.76C153.436 166.917 153.612 166.171 153.964 165.52C154.316 164.859 154.796 164.341 155.404 163.968C156.023 163.584 156.716 163.392 157.484 163.392C157.804 163.392 158.113 163.429 158.412 163.504C158.711 163.579 158.983 163.685 159.228 163.824C159.484 163.963 159.713 164.117 159.916 164.288C160.119 164.459 160.284 164.64 160.412 164.832C160.54 165.024 160.62 165.211 160.652 165.392L160.236 165.52L160.268 163.568H162.204V171.424C162.204 172.107 162.103 172.709 161.9 173.232C161.697 173.755 161.404 174.197 161.02 174.56C160.636 174.933 160.172 175.211 159.628 175.392C159.084 175.584 158.465 175.68 157.772 175.68ZM157.852 170.4C158.332 170.4 158.753 170.288 159.116 170.064C159.489 169.84 159.777 169.531 159.98 169.136C160.183 168.741 160.284 168.288 160.284 167.776C160.284 167.253 160.177 166.795 159.964 166.4C159.761 165.995 159.479 165.68 159.116 165.456C158.753 165.232 158.332 165.12 157.852 165.12C157.372 165.12 156.951 165.237 156.588 165.472C156.225 165.696 155.937 166.011 155.724 166.416C155.521 166.811 155.42 167.264 155.42 167.776C155.42 168.277 155.521 168.731 155.724 169.136C155.937 169.531 156.225 169.84 156.588 170.064C156.951 170.288 157.372 170.4 157.852 170.4ZM169.535 172V160.8H174.399C175.071 160.8 175.685 160.96 176.239 161.28C176.794 161.589 177.231 162.016 177.551 162.56C177.882 163.093 178.047 163.696 178.047 164.368C178.047 165.008 177.882 165.6 177.551 166.144C177.231 166.677 176.794 167.104 176.239 167.424C175.695 167.733 175.082 167.888 174.399 167.888H171.567V172H169.535ZM176.031 172L173.183 166.944L175.327 166.544L178.495 172.016L176.031 172ZM171.567 166.08H174.415C174.725 166.08 174.991 166.011 175.215 165.872C175.45 165.723 175.631 165.52 175.759 165.264C175.887 165.008 175.951 164.725 175.951 164.416C175.951 164.064 175.871 163.76 175.711 163.504C175.551 163.248 175.327 163.045 175.039 162.896C174.751 162.747 174.421 162.672 174.047 162.672H171.567V166.08ZM183.979 172.16C183.094 172.16 182.31 171.973 181.627 171.6C180.955 171.227 180.427 170.72 180.043 170.08C179.67 169.429 179.483 168.688 179.483 167.856C179.483 167.195 179.59 166.592 179.803 166.048C180.016 165.504 180.31 165.035 180.683 164.64C181.067 164.235 181.52 163.925 182.043 163.712C182.576 163.488 183.158 163.376 183.787 163.376C184.342 163.376 184.859 163.483 185.339 163.696C185.819 163.909 186.235 164.203 186.587 164.576C186.939 164.939 187.206 165.376 187.387 165.888C187.579 166.389 187.67 166.939 187.659 167.536L187.643 168.224H180.811L180.443 166.88H185.995L185.739 167.152V166.8C185.707 166.469 185.6 166.181 185.419 165.936C185.238 165.68 185.003 165.483 184.715 165.344C184.438 165.195 184.128 165.12 183.787 165.12C183.264 165.12 182.822 165.221 182.459 165.424C182.107 165.627 181.84 165.92 181.659 166.304C181.478 166.677 181.387 167.147 181.387 167.712C181.387 168.256 181.499 168.731 181.723 169.136C181.958 169.541 182.283 169.856 182.699 170.08C183.126 170.293 183.622 170.4 184.187 170.4C184.582 170.4 184.944 170.336 185.275 170.208C185.606 170.08 185.963 169.851 186.347 169.52L187.323 170.88C187.035 171.147 186.704 171.376 186.331 171.568C185.968 171.749 185.584 171.893 185.179 172C184.774 172.107 184.374 172.16 183.979 172.16ZM189.402 175.52V163.568H191.338L191.37 165.488L191.034 165.344C191.098 165.013 191.279 164.704 191.578 164.416C191.877 164.117 192.239 163.877 192.666 163.696C193.103 163.515 193.557 163.424 194.026 163.424C194.773 163.424 195.434 163.611 196.01 163.984C196.597 164.357 197.055 164.869 197.386 165.52C197.727 166.171 197.898 166.923 197.898 167.776C197.898 168.619 197.727 169.371 197.386 170.032C197.055 170.683 196.597 171.2 196.01 171.584C195.434 171.957 194.783 172.144 194.058 172.144C193.567 172.144 193.093 172.048 192.634 171.856C192.186 171.664 191.802 171.413 191.482 171.104C191.173 170.795 190.981 170.469 190.906 170.128L191.386 169.904V175.52H189.402ZM193.658 170.4C194.106 170.4 194.506 170.288 194.858 170.064C195.21 169.84 195.482 169.531 195.674 169.136C195.877 168.741 195.978 168.288 195.978 167.776C195.978 167.264 195.882 166.816 195.69 166.432C195.498 166.037 195.226 165.728 194.874 165.504C194.522 165.28 194.117 165.168 193.658 165.168C193.189 165.168 192.778 165.28 192.426 165.504C192.085 165.717 191.813 166.021 191.61 166.416C191.407 166.811 191.306 167.264 191.306 167.776C191.306 168.288 191.407 168.741 191.61 169.136C191.813 169.531 192.085 169.84 192.426 170.064C192.778 170.288 193.189 170.4 193.658 170.4ZM203.508 172.16C202.665 172.16 201.913 171.973 201.252 171.6C200.591 171.216 200.068 170.693 199.684 170.032C199.3 169.371 199.108 168.619 199.108 167.776C199.108 166.933 199.3 166.181 199.684 165.52C200.068 164.859 200.591 164.341 201.252 163.968C201.913 163.584 202.665 163.392 203.508 163.392C204.34 163.392 205.087 163.584 205.748 163.968C206.409 164.341 206.927 164.859 207.3 165.52C207.684 166.181 207.876 166.933 207.876 167.776C207.876 168.619 207.684 169.371 207.3 170.032C206.927 170.693 206.409 171.216 205.748 171.6C205.087 171.973 204.34 172.16 203.508 172.16ZM203.508 170.416C203.967 170.416 204.372 170.299 204.724 170.064C205.087 169.829 205.369 169.515 205.572 169.12C205.785 168.725 205.887 168.277 205.876 167.776C205.887 167.264 205.785 166.811 205.572 166.416C205.369 166.021 205.087 165.712 204.724 165.488C204.372 165.253 203.967 165.136 203.508 165.136C203.049 165.136 202.633 165.253 202.26 165.488C201.897 165.712 201.615 166.027 201.412 166.432C201.209 166.827 201.108 167.275 201.108 167.776C201.108 168.277 201.209 168.725 201.412 169.12C201.615 169.515 201.897 169.829 202.26 170.064C202.633 170.299 203.049 170.416 203.508 170.416ZM209.636 172V163.568H211.572L211.604 166.256L211.332 165.648C211.45 165.221 211.652 164.837 211.94 164.496C212.228 164.155 212.559 163.888 212.932 163.696C213.316 163.493 213.716 163.392 214.132 163.392C214.314 163.392 214.484 163.408 214.644 163.44C214.815 163.472 214.954 163.509 215.06 163.552L214.532 165.712C214.415 165.648 214.271 165.595 214.1 165.552C213.93 165.509 213.759 165.488 213.588 165.488C213.322 165.488 213.066 165.541 212.82 165.648C212.586 165.744 212.378 165.883 212.196 166.064C212.015 166.245 211.871 166.459 211.764 166.704C211.668 166.939 211.62 167.205 211.62 167.504V172H209.636ZM217.595 172V161.424H219.563V172H217.595ZM215.931 165.392V163.568H221.403V165.392H215.931ZM226.031 172.16C225.284 172.16 224.612 172.037 224.015 171.792C223.428 171.536 222.948 171.173 222.575 170.704L223.855 169.6C224.175 169.963 224.532 170.224 224.927 170.384C225.321 170.544 225.737 170.624 226.174 170.624C226.356 170.624 226.516 170.603 226.655 170.56C226.804 170.517 226.932 170.453 227.039 170.368C227.145 170.283 227.225 170.187 227.279 170.08C227.343 169.963 227.375 169.835 227.375 169.696C227.375 169.44 227.279 169.237 227.087 169.088C226.98 169.013 226.809 168.933 226.575 168.848C226.351 168.763 226.057 168.677 225.695 168.592C225.119 168.443 224.639 168.272 224.255 168.08C223.871 167.877 223.572 167.653 223.359 167.408C223.177 167.205 223.039 166.976 222.943 166.72C222.857 166.464 222.815 166.187 222.815 165.888C222.815 165.515 222.895 165.179 223.055 164.88C223.225 164.571 223.455 164.304 223.743 164.08C224.031 163.856 224.367 163.685 224.751 163.568C225.135 163.451 225.535 163.392 225.951 163.392C226.377 163.392 226.788 163.445 227.183 163.552C227.588 163.659 227.961 163.813 228.303 164.016C228.655 164.208 228.953 164.443 229.199 164.72L228.111 165.92C227.908 165.728 227.684 165.557 227.439 165.408C227.204 165.259 226.964 165.141 226.719 165.056C226.473 164.96 226.244 164.912 226.031 164.912C225.828 164.912 225.647 164.933 225.487 164.976C225.327 165.008 225.193 165.061 225.087 165.136C224.98 165.211 224.895 165.307 224.831 165.424C224.777 165.531 224.751 165.659 224.751 165.808C224.761 165.936 224.793 166.059 224.847 166.176C224.911 166.283 224.996 166.373 225.103 166.448C225.22 166.523 225.396 166.608 225.631 166.704C225.865 166.8 226.169 166.891 226.543 166.976C227.065 167.115 227.503 167.269 227.855 167.44C228.207 167.611 228.484 167.808 228.687 168.032C228.889 168.224 229.033 168.448 229.119 168.704C229.204 168.96 229.247 169.243 229.247 169.552C229.247 170.053 229.103 170.501 228.815 170.896C228.537 171.291 228.153 171.6 227.663 171.824C227.183 172.048 226.639 172.16 226.031 172.16Z" fill="black"/>
<path d="M103.984 320.096C103.099 320.096 102.309 319.909 101.616 319.536C100.923 319.152 100.373 318.629 99.968 317.968C99.5733 317.296 99.376 316.539 99.376 315.696V308.784H101.472V315.552C101.472 316.053 101.584 316.501 101.808 316.896C102.043 317.28 102.352 317.589 102.736 317.824C103.12 318.059 103.536 318.176 103.984 318.176C104.475 318.176 104.917 318.059 105.312 317.824C105.707 317.589 106.016 317.28 106.24 316.896C106.475 316.501 106.592 316.053 106.592 315.552V308.784H108.608V315.696C108.608 316.539 108.405 317.296 108 317.968C107.605 318.629 107.061 319.152 106.368 319.536C105.675 319.909 104.88 320.096 103.984 320.096ZM111.136 323.52V311.568H113.072L113.104 313.488L112.768 313.344C112.832 313.013 113.014 312.704 113.312 312.416C113.611 312.117 113.974 311.877 114.4 311.696C114.838 311.515 115.291 311.424 115.76 311.424C116.507 311.424 117.168 311.611 117.744 311.984C118.331 312.357 118.79 312.869 119.12 313.52C119.462 314.171 119.632 314.923 119.632 315.776C119.632 316.619 119.462 317.371 119.12 318.032C118.79 318.683 118.331 319.2 117.744 319.584C117.168 319.957 116.518 320.144 115.792 320.144C115.302 320.144 114.827 320.048 114.368 319.856C113.92 319.664 113.536 319.413 113.216 319.104C112.907 318.795 112.715 318.469 112.64 318.128L113.12 317.904V323.52H111.136ZM115.392 318.4C115.84 318.4 116.24 318.288 116.592 318.064C116.944 317.84 117.216 317.531 117.408 317.136C117.611 316.741 117.712 316.288 117.712 315.776C117.712 315.264 117.616 314.816 117.424 314.432C117.232 314.037 116.96 313.728 116.608 313.504C116.256 313.28 115.851 313.168 115.392 313.168C114.923 313.168 114.512 313.28 114.16 313.504C113.819 313.717 113.547 314.021 113.344 314.416C113.142 314.811 113.04 315.264 113.04 315.776C113.04 316.288 113.142 316.741 113.344 317.136C113.547 317.531 113.819 317.84 114.16 318.064C114.512 318.288 114.923 318.4 115.392 318.4ZM125.002 320.16C124.213 320.16 123.504 319.968 122.874 319.584C122.245 319.2 121.749 318.677 121.386 318.016C121.024 317.355 120.842 316.608 120.842 315.776C120.842 314.944 121.024 314.197 121.386 313.536C121.749 312.875 122.245 312.352 122.874 311.968C123.504 311.584 124.213 311.392 125.002 311.392C125.76 311.392 126.448 311.536 127.066 311.824C127.685 312.112 128.165 312.512 128.506 313.024L127.418 314.336C127.258 314.112 127.056 313.909 126.81 313.728C126.565 313.547 126.304 313.403 126.026 313.296C125.749 313.189 125.472 313.136 125.194 313.136C124.725 313.136 124.304 313.253 123.93 313.488C123.568 313.712 123.28 314.027 123.066 314.432C122.853 314.827 122.746 315.275 122.746 315.776C122.746 316.277 122.853 316.725 123.066 317.12C123.29 317.515 123.589 317.829 123.962 318.064C124.336 318.299 124.752 318.416 125.21 318.416C125.488 318.416 125.754 318.373 126.01 318.288C126.277 318.192 126.528 318.059 126.762 317.888C126.997 317.717 127.216 317.504 127.418 317.248L128.506 318.576C128.144 319.045 127.642 319.429 127.002 319.728C126.373 320.016 125.706 320.16 125.002 320.16ZM133.867 320.16C133.025 320.16 132.273 319.973 131.611 319.6C130.95 319.216 130.427 318.693 130.043 318.032C129.659 317.371 129.467 316.619 129.467 315.776C129.467 314.933 129.659 314.181 130.043 313.52C130.427 312.859 130.95 312.341 131.611 311.968C132.273 311.584 133.025 311.392 133.867 311.392C134.699 311.392 135.446 311.584 136.107 311.968C136.769 312.341 137.286 312.859 137.659 313.52C138.043 314.181 138.235 314.933 138.235 315.776C138.235 316.619 138.043 317.371 137.659 318.032C137.286 318.693 136.769 319.216 136.107 319.6C135.446 319.973 134.699 320.16 133.867 320.16ZM133.867 318.416C134.326 318.416 134.731 318.299 135.083 318.064C135.446 317.829 135.729 317.515 135.931 317.12C136.145 316.725 136.246 316.277 136.235 315.776C136.246 315.264 136.145 314.811 135.931 314.416C135.729 314.021 135.446 313.712 135.083 313.488C134.731 313.253 134.326 313.136 133.867 313.136C133.409 313.136 132.993 313.253 132.619 313.488C132.257 313.712 131.974 314.027 131.771 314.432C131.569 314.827 131.467 315.275 131.467 315.776C131.467 316.277 131.569 316.725 131.771 317.12C131.974 317.515 132.257 317.829 132.619 318.064C132.993 318.299 133.409 318.416 133.867 318.416ZM139.964 320V311.568H141.9L141.932 313.264L141.612 313.392C141.708 313.115 141.852 312.859 142.044 312.624C142.236 312.379 142.465 312.171 142.732 312C142.998 311.819 143.281 311.68 143.58 311.584C143.878 311.477 144.182 311.424 144.492 311.424C144.95 311.424 145.356 311.499 145.708 311.648C146.07 311.787 146.369 312.011 146.604 312.32C146.849 312.629 147.03 313.024 147.148 313.504L146.844 313.44L146.972 313.184C147.089 312.928 147.254 312.699 147.468 312.496C147.681 312.283 147.921 312.096 148.188 311.936C148.454 311.765 148.732 311.637 149.02 311.552C149.318 311.467 149.612 311.424 149.9 311.424C150.54 311.424 151.073 311.552 151.5 311.808C151.926 312.064 152.246 312.453 152.46 312.976C152.673 313.499 152.78 314.144 152.78 314.912V320H150.796V315.04C150.796 314.613 150.737 314.261 150.62 313.984C150.513 313.707 150.342 313.504 150.108 313.376C149.884 313.237 149.601 313.168 149.26 313.168C148.993 313.168 148.737 313.216 148.492 313.312C148.257 313.397 148.054 313.525 147.884 313.696C147.713 313.856 147.58 314.043 147.484 314.256C147.388 314.469 147.34 314.704 147.34 314.96V320H145.356V315.024C145.356 314.619 145.297 314.283 145.18 314.016C145.062 313.739 144.892 313.531 144.668 313.392C144.444 313.243 144.172 313.168 143.852 313.168C143.585 313.168 143.334 313.216 143.1 313.312C142.865 313.397 142.662 313.52 142.492 313.68C142.321 313.84 142.188 314.027 142.092 314.24C141.996 314.453 141.948 314.688 141.948 314.944V320H139.964ZM155.189 320V311.568H157.157V320H155.189ZM156.149 309.776C155.754 309.776 155.445 309.68 155.221 309.488C155.007 309.285 154.901 309.003 154.901 308.64C154.901 308.299 155.013 308.021 155.237 307.808C155.461 307.595 155.765 307.488 156.149 307.488C156.554 307.488 156.863 307.589 157.077 307.792C157.301 307.984 157.413 308.267 157.413 308.64C157.413 308.971 157.301 309.243 157.077 309.456C156.853 309.669 156.543 309.776 156.149 309.776ZM159.652 320V311.568H161.572L161.604 313.296L161.236 313.488C161.343 313.104 161.551 312.757 161.86 312.448C162.169 312.128 162.537 311.872 162.964 311.68C163.391 311.488 163.828 311.392 164.276 311.392C164.916 311.392 165.449 311.52 165.876 311.776C166.313 312.032 166.639 312.416 166.852 312.928C167.076 313.44 167.188 314.08 167.188 314.848V320H165.22V314.992C165.22 314.565 165.161 314.213 165.044 313.936C164.927 313.648 164.745 313.44 164.5 313.312C164.255 313.173 163.956 313.109 163.604 313.12C163.316 313.12 163.049 313.168 162.804 313.264C162.569 313.349 162.361 313.477 162.18 313.648C162.009 313.808 161.871 313.995 161.764 314.208C161.668 314.421 161.62 314.656 161.62 314.912V320H160.644C160.452 320 160.271 320 160.1 320C159.94 320 159.791 320 159.652 320ZM173.194 323.68C172.565 323.68 171.935 323.584 171.306 323.392C170.687 323.2 170.186 322.949 169.802 322.64L170.506 321.184C170.73 321.344 170.981 321.483 171.258 321.6C171.535 321.717 171.829 321.808 172.138 321.872C172.458 321.936 172.773 321.968 173.082 321.968C173.647 321.968 174.117 321.877 174.49 321.696C174.874 321.525 175.162 321.259 175.354 320.896C175.546 320.544 175.642 320.101 175.642 319.568V318.016L175.93 318.128C175.866 318.459 175.69 318.773 175.402 319.072C175.114 319.371 174.751 319.616 174.314 319.808C173.877 319.989 173.429 320.08 172.97 320.08C172.17 320.08 171.461 319.893 170.842 319.52C170.234 319.147 169.749 318.64 169.386 318C169.034 317.349 168.858 316.603 168.858 315.76C168.858 314.917 169.034 314.171 169.386 313.52C169.738 312.859 170.218 312.341 170.826 311.968C171.445 311.584 172.138 311.392 172.906 311.392C173.226 311.392 173.535 311.429 173.834 311.504C174.133 311.579 174.405 311.685 174.65 311.824C174.906 311.963 175.135 312.117 175.338 312.288C175.541 312.459 175.706 312.64 175.834 312.832C175.962 313.024 176.042 313.211 176.074 313.392L175.658 313.52L175.69 311.568H177.626V319.424C177.626 320.107 177.525 320.709 177.322 321.232C177.119 321.755 176.826 322.197 176.442 322.56C176.058 322.933 175.594 323.211 175.05 323.392C174.506 323.584 173.887 323.68 173.194 323.68ZM173.274 318.4C173.754 318.4 174.175 318.288 174.538 318.064C174.911 317.84 175.199 317.531 175.402 317.136C175.605 316.741 175.706 316.288 175.706 315.776C175.706 315.253 175.599 314.795 175.386 314.4C175.183 313.995 174.901 313.68 174.538 313.456C174.175 313.232 173.754 313.12 173.274 313.12C172.794 313.12 172.373 313.237 172.01 313.472C171.647 313.696 171.359 314.011 171.146 314.416C170.943 314.811 170.842 315.264 170.842 315.776C170.842 316.277 170.943 316.731 171.146 317.136C171.359 317.531 171.647 317.84 172.01 318.064C172.373 318.288 172.794 318.4 173.274 318.4ZM184.957 320V308.8H189.725C190.461 308.8 191.08 308.907 191.581 309.12C192.093 309.333 192.477 309.653 192.733 310.08C193 310.496 193.133 311.003 193.133 311.6C193.133 312.219 192.968 312.741 192.637 313.168C192.306 313.595 191.842 313.888 191.245 314.048L191.229 313.728C191.73 313.835 192.168 314.027 192.541 314.304C192.914 314.571 193.202 314.907 193.405 315.312C193.618 315.707 193.725 316.16 193.725 316.672C193.725 317.216 193.634 317.696 193.453 318.112C193.282 318.528 193.026 318.875 192.685 319.152C192.344 319.429 191.938 319.643 191.469 319.792C191 319.931 190.472 320 189.885 320H184.957ZM186.989 318.128H189.789C190.184 318.128 190.514 318.069 190.781 317.952C191.058 317.835 191.266 317.664 191.405 317.44C191.554 317.205 191.629 316.928 191.629 316.608C191.629 316.309 191.549 316.053 191.389 315.84C191.24 315.627 191.021 315.467 190.733 315.36C190.445 315.243 190.104 315.184 189.709 315.184H186.989V318.128ZM186.989 313.392H189.533C189.842 313.392 190.109 313.333 190.333 313.216C190.568 313.099 190.749 312.939 190.877 312.736C191.005 312.533 191.069 312.299 191.069 312.032C191.069 311.605 190.925 311.275 190.637 311.04C190.349 310.795 189.928 310.672 189.373 310.672H186.989V313.392ZM199.461 320.16C198.618 320.16 197.866 319.973 197.205 319.6C196.544 319.216 196.021 318.693 195.637 318.032C195.253 317.371 195.061 316.619 195.061 315.776C195.061 314.933 195.253 314.181 195.637 313.52C196.021 312.859 196.544 312.341 197.205 311.968C197.866 311.584 198.618 311.392 199.461 311.392C200.293 311.392 201.04 311.584 201.701 311.968C202.362 312.341 202.88 312.859 203.253 313.52C203.637 314.181 203.829 314.933 203.829 315.776C203.829 316.619 203.637 317.371 203.253 318.032C202.88 318.693 202.362 319.216 201.701 319.6C201.04 319.973 200.293 320.16 199.461 320.16ZM199.461 318.416C199.92 318.416 200.325 318.299 200.677 318.064C201.04 317.829 201.322 317.515 201.525 317.12C201.738 316.725 201.84 316.277 201.829 315.776C201.84 315.264 201.738 314.811 201.525 314.416C201.322 314.021 201.04 313.712 200.677 313.488C200.325 313.253 199.92 313.136 199.461 313.136C199.002 313.136 198.586 313.253 198.213 313.488C197.85 313.712 197.568 314.027 197.365 314.432C197.162 314.827 197.061 315.275 197.061 315.776C197.061 316.277 197.162 316.725 197.365 317.12C197.568 317.515 197.85 317.829 198.213 318.064C198.586 318.299 199.002 318.416 199.461 318.416ZM209.446 320.16C208.603 320.16 207.851 319.973 207.19 319.6C206.528 319.216 206.006 318.693 205.622 318.032C205.238 317.371 205.046 316.619 205.046 315.776C205.046 314.933 205.238 314.181 205.622 313.52C206.006 312.859 206.528 312.341 207.19 311.968C207.851 311.584 208.603 311.392 209.446 311.392C210.278 311.392 211.024 311.584 211.686 311.968C212.347 312.341 212.864 312.859 213.238 313.52C213.622 314.181 213.814 314.933 213.814 315.776C213.814 316.619 213.622 317.371 213.238 318.032C212.864 318.693 212.347 319.216 211.686 319.6C211.024 319.973 210.278 320.16 209.446 320.16ZM209.446 318.416C209.904 318.416 210.31 318.299 210.662 318.064C211.024 317.829 211.307 317.515 211.51 317.12C211.723 316.725 211.824 316.277 211.814 315.776C211.824 315.264 211.723 314.811 211.51 314.416C211.307 314.021 211.024 313.712 210.662 313.488C210.31 313.253 209.904 313.136 209.446 313.136C208.987 313.136 208.571 313.253 208.198 313.488C207.835 313.712 207.552 314.027 207.35 314.432C207.147 314.827 207.046 315.275 207.046 315.776C207.046 316.277 207.147 316.725 207.35 317.12C207.552 317.515 207.835 317.829 208.198 318.064C208.571 318.299 208.987 318.416 209.446 318.416ZM217.414 317.424L217.03 315.584L221.03 311.568H223.654L217.414 317.424ZM215.574 320V308.16H217.542V320H215.574ZM221.27 320L218.166 316.24L219.558 315.056L223.702 320H221.27ZM225.22 320V311.568H227.188V320H225.22ZM226.18 309.776C225.785 309.776 225.476 309.68 225.252 309.488C225.038 309.285 224.932 309.003 224.932 308.64C224.932 308.299 225.044 308.021 225.268 307.808C225.492 307.595 225.796 307.488 226.18 307.488C226.585 307.488 226.894 307.589 227.108 307.792C227.332 307.984 227.444 308.267 227.444 308.64C227.444 308.971 227.332 309.243 227.108 309.456C226.884 309.669 226.574 309.776 226.18 309.776ZM229.683 320V311.568H231.603L231.635 313.296L231.267 313.488C231.374 313.104 231.582 312.757 231.891 312.448C232.201 312.128 232.569 311.872 232.995 311.68C233.422 311.488 233.859 311.392 234.307 311.392C234.947 311.392 235.481 311.52 235.907 311.776C236.345 312.032 236.67 312.416 236.883 312.928C237.107 313.44 237.219 314.08 237.219 314.848V320H235.251V314.992C235.251 314.565 235.193 314.213 235.075 313.936C234.958 313.648 234.777 313.44 234.531 313.312C234.286 313.173 233.987 313.109 233.635 313.12C233.347 313.12 233.081 313.168 232.835 313.264C232.601 313.349 232.393 313.477 232.211 313.648C232.041 313.808 231.902 313.995 231.795 314.208C231.699 314.421 231.651 314.656 231.651 314.912V320H230.675C230.483 320 230.302 320 230.131 320C229.971 320 229.822 320 229.683 320ZM243.225 323.68C242.596 323.68 241.967 323.584 241.337 323.392C240.719 323.2 240.217 322.949 239.833 322.64L240.537 321.184C240.761 321.344 241.012 321.483 241.289 321.6C241.567 321.717 241.86 321.808 242.169 321.872C242.489 321.936 242.804 321.968 243.113 321.968C243.679 321.968 244.148 321.877 244.521 321.696C244.905 321.525 245.193 321.259 245.385 320.896C245.577 320.544 245.673 320.101 245.673 319.568V318.016L245.961 318.128C245.897 318.459 245.721 318.773 245.433 319.072C245.145 319.371 244.783 319.616 244.345 319.808C243.908 319.989 243.46 320.08 243.001 320.08C242.201 320.08 241.492 319.893 240.873 319.52C240.265 319.147 239.78 318.64 239.417 318C239.065 317.349 238.889 316.603 238.889 315.76C238.889 314.917 239.065 314.171 239.417 313.52C239.769 312.859 240.249 312.341 240.857 311.968C241.476 311.584 242.169 311.392 242.937 311.392C243.257 311.392 243.567 311.429 243.865 311.504C244.164 311.579 244.436 311.685 244.681 311.824C244.937 311.963 245.167 312.117 245.369 312.288C245.572 312.459 245.737 312.64 245.865 312.832C245.993 313.024 246.073 313.211 246.105 313.392L245.689 313.52L245.721 311.568H247.657V319.424C247.657 320.107 247.556 320.709 247.353 321.232C247.151 321.755 246.857 322.197 246.473 322.56C246.089 322.933 245.625 323.211 245.081 323.392C244.537 323.584 243.919 323.68 243.225 323.68ZM243.305 318.4C243.785 318.4 244.207 318.288 244.569 318.064C244.943 317.84 245.231 317.531 245.433 317.136C245.636 316.741 245.737 316.288 245.737 315.776C245.737 315.253 245.631 314.795 245.417 314.4C245.215 313.995 244.932 313.68 244.569 313.456C244.207 313.232 243.785 313.12 243.305 313.12C242.825 313.12 242.404 313.237 242.041 313.472C241.679 313.696 241.391 314.011 241.177 314.416C240.975 314.811 240.873 315.264 240.873 315.776C240.873 316.277 240.975 316.731 241.177 317.136C241.391 317.531 241.679 317.84 242.041 318.064C242.404 318.288 242.825 318.4 243.305 318.4ZM252.593 320.16C251.846 320.16 251.174 320.037 250.577 319.792C249.99 319.536 249.51 319.173 249.137 318.704L250.417 317.6C250.737 317.963 251.094 318.224 251.489 318.384C251.884 318.544 252.3 318.624 252.737 318.624C252.918 318.624 253.078 318.603 253.217 318.56C253.366 318.517 253.494 318.453 253.601 318.368C253.708 318.283 253.788 318.187 253.841 318.08C253.905 317.963 253.937 317.835 253.937 317.696C253.937 317.44 253.841 317.237 253.649 317.088C253.542 317.013 253.372 316.933 253.137 316.848C252.913 316.763 252.62 316.677 252.257 316.592C251.681 316.443 251.201 316.272 250.817 316.08C250.433 315.877 250.134 315.653 249.921 315.408C249.74 315.205 249.601 314.976 249.505 314.72C249.42 314.464 249.377 314.187 249.377 313.888C249.377 313.515 249.457 313.179 249.617 312.88C249.788 312.571 250.017 312.304 250.305 312.08C250.593 311.856 250.929 311.685 251.313 311.568C251.697 311.451 252.097 311.392 252.513 311.392C252.94 311.392 253.35 311.445 253.745 311.552C254.15 311.659 254.524 311.813 254.865 312.016C255.217 312.208 255.516 312.443 255.761 312.72L254.673 313.92C254.47 313.728 254.246 313.557 254.001 313.408C253.766 313.259 253.526 313.141 253.281 313.056C253.036 312.96 252.806 312.912 252.593 312.912C252.39 312.912 252.209 312.933 252.049 312.976C251.889 313.008 251.756 313.061 251.649 313.136C251.542 313.211 251.457 313.307 251.393 313.424C251.34 313.531 251.313 313.659 251.313 313.808C251.324 313.936 251.356 314.059 251.409 314.176C251.473 314.283 251.558 314.373 251.665 314.448C251.782 314.523 251.958 314.608 252.193 314.704C252.428 314.8 252.732 314.891 253.105 314.976C253.628 315.115 254.065 315.269 254.417 315.44C254.769 315.611 255.046 315.808 255.249 316.032C255.452 316.224 255.596 316.448 255.681 316.704C255.766 316.96 255.809 317.243 255.809 317.552C255.809 318.053 255.665 318.501 255.377 318.896C255.1 319.291 254.716 319.6 254.225 319.824C253.745 320.048 253.201 320.16 252.593 320.16Z" fill="black"/>
<path d="M107.34 211V205.2H105.34V204H110.7V205.2H108.64V211H107.34ZM113.169 211.1C112.642 211.1 112.172 210.983 111.759 210.75C111.346 210.51 111.019 210.183 110.779 209.77C110.539 209.357 110.419 208.887 110.419 208.36C110.419 207.833 110.539 207.363 110.779 206.95C111.019 206.537 111.346 206.213 111.759 205.98C112.172 205.74 112.642 205.62 113.169 205.62C113.689 205.62 114.156 205.74 114.569 205.98C114.982 206.213 115.306 206.537 115.539 206.95C115.779 207.363 115.899 207.833 115.899 208.36C115.899 208.887 115.779 209.357 115.539 209.77C115.306 210.183 114.982 210.51 114.569 210.75C114.156 210.983 113.689 211.1 113.169 211.1ZM113.169 210.01C113.456 210.01 113.709 209.937 113.929 209.79C114.156 209.643 114.332 209.447 114.459 209.2C114.592 208.953 114.656 208.673 114.649 208.36C114.656 208.04 114.592 207.757 114.459 207.51C114.332 207.263 114.156 207.07 113.929 206.93C113.709 206.783 113.456 206.71 113.169 206.71C112.882 206.71 112.622 206.783 112.389 206.93C112.162 207.07 111.986 207.267 111.859 207.52C111.732 207.767 111.669 208.047 111.669 208.36C111.669 208.673 111.732 208.953 111.859 209.2C111.986 209.447 112.162 209.643 112.389 209.79C112.622 209.937 112.882 210.01 113.169 210.01ZM117.569 211V204.39H118.799V211H117.569ZM116.529 206.87V205.73H119.949V206.87H116.529ZM122.827 211.1C122.394 211.1 122.001 210.98 121.647 210.74C121.294 210.5 121.011 210.173 120.797 209.76C120.584 209.347 120.477 208.877 120.477 208.35C120.477 207.823 120.584 207.353 120.797 206.94C121.011 206.527 121.301 206.203 121.667 205.97C122.034 205.737 122.447 205.62 122.907 205.62C123.174 205.62 123.417 205.66 123.637 205.74C123.857 205.813 124.051 205.92 124.217 206.06C124.384 206.2 124.521 206.36 124.627 206.54C124.741 206.72 124.817 206.913 124.857 207.12L124.587 207.05V205.73H125.827V211H124.577V209.74L124.867 209.69C124.821 209.87 124.734 210.047 124.607 210.22C124.487 210.387 124.334 210.537 124.147 210.67C123.967 210.797 123.764 210.9 123.537 210.98C123.317 211.06 123.081 211.1 122.827 211.1ZM123.167 210.01C123.454 210.01 123.707 209.94 123.927 209.8C124.147 209.66 124.317 209.467 124.437 209.22C124.564 208.967 124.627 208.677 124.627 208.35C124.627 208.03 124.564 207.747 124.437 207.5C124.317 207.253 124.147 207.06 123.927 206.92C123.707 206.78 123.454 206.71 123.167 206.71C122.881 206.71 122.627 206.78 122.407 206.92C122.194 207.06 122.027 207.253 121.907 207.5C121.787 207.747 121.727 208.03 121.727 208.35C121.727 208.677 121.787 208.967 121.907 209.22C122.027 209.467 122.194 209.66 122.407 209.8C122.627 209.94 122.881 210.01 123.167 210.01ZM127.263 211V203.6H128.503V211H127.263Z" fill="black"/>
<path d="M207.91 211.1C207.403 211.1 206.94 211.013 206.52 210.84C206.1 210.667 205.737 210.42 205.43 210.1C205.123 209.773 204.883 209.39 204.71 208.95C204.543 208.503 204.46 208.017 204.46 207.49C204.46 206.983 204.55 206.513 204.73 206.08C204.91 205.647 205.16 205.267 205.48 204.94C205.8 204.613 206.173 204.36 206.6 204.18C207.027 204 207.49 203.91 207.99 203.91C208.33 203.91 208.66 203.96 208.98 204.06C209.3 204.16 209.593 204.3 209.86 204.48C210.127 204.653 210.35 204.857 210.53 205.09L209.7 206C209.527 205.82 209.347 205.67 209.16 205.55C208.98 205.423 208.79 205.33 208.59 205.27C208.397 205.203 208.197 205.17 207.99 205.17C207.683 205.17 207.393 205.227 207.12 205.34C206.853 205.453 206.62 205.613 206.42 205.82C206.227 206.027 206.073 206.273 205.96 206.56C205.847 206.84 205.79 207.153 205.79 207.5C205.79 207.853 205.843 208.173 205.95 208.46C206.063 208.747 206.22 208.993 206.42 209.2C206.627 209.407 206.87 209.567 207.15 209.68C207.437 209.787 207.75 209.84 208.09 209.84C208.31 209.84 208.523 209.81 208.73 209.75C208.937 209.69 209.127 209.607 209.3 209.5C209.48 209.387 209.643 209.257 209.79 209.11L210.43 210.14C210.27 210.32 210.057 210.483 209.79 210.63C209.523 210.777 209.223 210.893 208.89 210.98C208.563 211.06 208.237 211.1 207.91 211.1ZM213.966 211.1C213.439 211.1 212.969 210.983 212.556 210.75C212.143 210.51 211.816 210.183 211.576 209.77C211.336 209.357 211.216 208.887 211.216 208.36C211.216 207.833 211.336 207.363 211.576 206.95C211.816 206.537 212.143 206.213 212.556 205.98C212.969 205.74 213.439 205.62 213.966 205.62C214.486 205.62 214.953 205.74 215.366 205.98C215.779 206.213 216.103 206.537 216.336 206.95C216.576 207.363 216.696 207.833 216.696 208.36C216.696 208.887 216.576 209.357 216.336 209.77C216.103 210.183 215.779 210.51 215.366 210.75C214.953 210.983 214.486 211.1 213.966 211.1ZM213.966 210.01C214.253 210.01 214.506 209.937 214.726 209.79C214.953 209.643 215.129 209.447 215.256 209.2C215.389 208.953 215.453 208.673 215.446 208.36C215.453 208.04 215.389 207.757 215.256 207.51C215.129 207.263 214.953 207.07 214.726 206.93C214.506 206.783 214.253 206.71 213.966 206.71C213.679 206.71 213.419 206.783 213.186 206.93C212.959 207.07 212.783 207.267 212.656 207.52C212.529 207.767 212.466 208.047 212.466 208.36C212.466 208.673 212.529 208.953 212.656 209.2C212.783 209.447 212.959 209.643 213.186 209.79C213.419 209.937 213.679 210.01 213.966 210.01ZM217.776 211V205.73H218.986L219.006 206.79L218.806 206.87C218.866 206.697 218.956 206.537 219.076 206.39C219.196 206.237 219.34 206.107 219.506 206C219.673 205.887 219.85 205.8 220.036 205.74C220.223 205.673 220.413 205.64 220.606 205.64C220.893 205.64 221.146 205.687 221.366 205.78C221.593 205.867 221.78 206.007 221.926 206.2C222.08 206.393 222.193 206.64 222.266 206.94L222.076 206.9L222.156 206.74C222.23 206.58 222.333 206.437 222.466 206.31C222.6 206.177 222.75 206.06 222.916 205.96C223.083 205.853 223.256 205.773 223.436 205.72C223.623 205.667 223.806 205.64 223.986 205.64C224.386 205.64 224.72 205.72 224.986 205.88C225.253 206.04 225.453 206.283 225.586 206.61C225.72 206.937 225.786 207.34 225.786 207.82V211H224.546V207.9C224.546 207.633 224.51 207.413 224.436 207.24C224.37 207.067 224.263 206.94 224.116 206.86C223.976 206.773 223.8 206.73 223.586 206.73C223.42 206.73 223.26 206.76 223.106 206.82C222.96 206.873 222.833 206.953 222.726 207.06C222.62 207.16 222.536 207.277 222.476 207.41C222.416 207.543 222.386 207.69 222.386 207.85V211H221.146V207.89C221.146 207.637 221.11 207.427 221.036 207.26C220.963 207.087 220.856 206.957 220.716 206.87C220.576 206.777 220.406 206.73 220.206 206.73C220.04 206.73 219.883 206.76 219.736 206.82C219.59 206.873 219.463 206.95 219.356 207.05C219.25 207.15 219.166 207.267 219.106 207.4C219.046 207.533 219.016 207.68 219.016 207.84V211H217.776ZM227.152 213.2V205.73H228.362L228.382 206.93L228.172 206.84C228.212 206.633 228.325 206.44 228.512 206.26C228.698 206.073 228.925 205.923 229.192 205.81C229.465 205.697 229.748 205.64 230.042 205.64C230.508 205.64 230.922 205.757 231.282 205.99C231.648 206.223 231.935 206.543 232.142 206.95C232.355 207.357 232.462 207.827 232.462 208.36C232.462 208.887 232.355 209.357 232.142 209.77C231.935 210.177 231.648 210.5 231.282 210.74C230.922 210.973 230.515 211.09 230.062 211.09C229.755 211.09 229.458 211.03 229.172 210.91C228.892 210.79 228.652 210.633 228.452 210.44C228.258 210.247 228.138 210.043 228.092 209.83L228.392 209.69V213.2H227.152ZM229.812 210C230.092 210 230.342 209.93 230.562 209.79C230.782 209.65 230.952 209.457 231.072 209.21C231.198 208.963 231.262 208.68 231.262 208.36C231.262 208.04 231.202 207.76 231.082 207.52C230.962 207.273 230.792 207.08 230.572 206.94C230.352 206.8 230.098 206.73 229.812 206.73C229.518 206.73 229.262 206.8 229.042 206.94C228.828 207.073 228.658 207.263 228.532 207.51C228.405 207.757 228.342 208.04 228.342 208.36C228.342 208.68 228.405 208.963 228.532 209.21C228.658 209.457 228.828 209.65 229.042 209.79C229.262 209.93 229.518 210 229.812 210ZM233.568 211V203.6H234.808V211H233.568ZM238.626 211.1C238.072 211.1 237.582 210.983 237.156 210.75C236.736 210.517 236.406 210.2 236.166 209.8C235.932 209.393 235.816 208.93 235.816 208.41C235.816 207.997 235.882 207.62 236.016 207.28C236.149 206.94 236.332 206.647 236.566 206.4C236.806 206.147 237.089 205.953 237.416 205.82C237.749 205.68 238.112 205.61 238.506 205.61C238.852 205.61 239.176 205.677 239.476 205.81C239.776 205.943 240.036 206.127 240.256 206.36C240.476 206.587 240.642 206.86 240.756 207.18C240.876 207.493 240.932 207.837 240.926 208.21L240.916 208.64H236.646L236.416 207.8H239.886L239.726 207.97V207.75C239.706 207.543 239.639 207.363 239.526 207.21C239.412 207.05 239.266 206.927 239.086 206.84C238.912 206.747 238.719 206.7 238.506 206.7C238.179 206.7 237.902 206.763 237.676 206.89C237.456 207.017 237.289 207.2 237.176 207.44C237.062 207.673 237.006 207.967 237.006 208.32C237.006 208.66 237.076 208.957 237.216 209.21C237.362 209.463 237.566 209.66 237.826 209.8C238.092 209.933 238.402 210 238.756 210C239.002 210 239.229 209.96 239.436 209.88C239.642 209.8 239.866 209.657 240.106 209.45L240.716 210.3C240.536 210.467 240.329 210.61 240.096 210.73C239.869 210.843 239.629 210.933 239.376 211C239.122 211.067 238.872 211.1 238.626 211.1ZM242.585 211V204.39H243.815V211H242.585ZM241.545 206.87V205.73H244.965V206.87H241.545ZM248.323 211.1C247.769 211.1 247.279 210.983 246.853 210.75C246.433 210.517 246.103 210.2 245.863 209.8C245.629 209.393 245.513 208.93 245.513 208.41C245.513 207.997 245.579 207.62 245.713 207.28C245.846 206.94 246.029 206.647 246.263 206.4C246.503 206.147 246.786 205.953 247.113 205.82C247.446 205.68 247.809 205.61 248.203 205.61C248.549 205.61 248.873 205.677 249.173 205.81C249.473 205.943 249.733 206.127 249.953 206.36C250.173 206.587 250.339 206.86 250.453 207.18C250.573 207.493 250.629 207.837 250.623 208.21L250.613 208.64H246.343L246.113 207.8H249.583L249.423 207.97V207.75C249.403 207.543 249.336 207.363 249.223 207.21C249.109 207.05 248.963 206.927 248.783 206.84C248.609 206.747 248.416 206.7 248.203 206.7C247.876 206.7 247.599 206.763 247.373 206.89C247.153 207.017 246.986 207.2 246.873 207.44C246.759 207.673 246.703 207.967 246.703 208.32C246.703 208.66 246.773 208.957 246.913 209.21C247.059 209.463 247.263 209.66 247.523 209.8C247.789 209.933 248.099 210 248.453 210C248.699 210 248.926 209.96 249.133 209.88C249.339 209.8 249.563 209.657 249.803 209.45L250.413 210.3C250.233 210.467 250.026 210.61 249.793 210.73C249.566 210.843 249.326 210.933 249.073 211C248.819 211.067 248.569 211.1 248.323 211.1ZM253.832 211.1C253.366 211.1 252.946 210.983 252.572 210.75C252.206 210.51 251.912 210.187 251.692 209.78C251.479 209.367 251.372 208.893 251.372 208.36C251.372 207.833 251.479 207.363 251.692 206.95C251.906 206.537 252.196 206.213 252.562 205.98C252.936 205.74 253.356 205.62 253.822 205.62C254.076 205.62 254.319 205.66 254.552 205.74C254.792 205.82 255.006 205.93 255.192 206.07C255.379 206.203 255.526 206.353 255.632 206.52C255.746 206.687 255.809 206.86 255.822 207.04L255.492 207.08V203.6H256.722V211H255.532L255.502 209.76L255.742 209.78C255.736 209.947 255.676 210.107 255.562 210.26C255.456 210.413 255.316 210.553 255.142 210.68C254.969 210.807 254.766 210.91 254.532 210.99C254.306 211.063 254.072 211.1 253.832 211.1ZM254.072 210.06C254.359 210.06 254.612 209.987 254.832 209.84C255.052 209.693 255.222 209.493 255.342 209.24C255.469 208.987 255.532 208.693 255.532 208.36C255.532 208.033 255.469 207.743 255.342 207.49C255.222 207.23 255.052 207.03 254.832 206.89C254.612 206.743 254.359 206.67 254.072 206.67C253.786 206.67 253.532 206.743 253.312 206.89C253.092 207.03 252.919 207.23 252.792 207.49C252.672 207.743 252.612 208.033 252.612 208.36C252.612 208.693 252.672 208.987 252.792 209.24C252.919 209.493 253.092 209.693 253.312 209.84C253.532 209.987 253.786 210.06 254.072 210.06Z" fill="black"/>
<path d="M103.375 249.775V235.575L104.3 236.775L100.75 238.575L100.025 235.725L104.8 233.25H106.6V249.775H103.375ZM100.45 251V248H109.6V251H100.45ZM117.712 251.175C116.495 251.175 115.395 250.917 114.412 250.4C113.428 249.867 112.612 249.1 111.962 248.1L113.762 246.15C114.495 246.967 115.153 247.533 115.737 247.85C116.32 248.15 116.962 248.3 117.662 248.3C118.295 248.3 118.862 248.167 119.362 247.9C119.862 247.617 120.262 247.242 120.562 246.775C120.862 246.292 121.012 245.767 121.012 245.2C121.012 244.583 120.87 244.042 120.587 243.575C120.303 243.092 119.92 242.708 119.437 242.425C118.953 242.142 118.403 242 117.787 242C117.453 242 117.137 242.025 116.837 242.075C116.537 242.125 116.187 242.225 115.787 242.375C115.403 242.525 114.912 242.758 114.312 243.075L112.762 240.975L113.787 233.45H123.462V236.325H115.612L116.337 235.525L115.512 241.075L114.587 240.425C114.803 240.225 115.12 240.033 115.537 239.85C115.97 239.667 116.437 239.517 116.937 239.4C117.437 239.283 117.928 239.225 118.412 239.225C119.495 239.225 120.462 239.475 121.312 239.975C122.162 240.475 122.837 241.167 123.337 242.05C123.837 242.917 124.087 243.917 124.087 245.05C124.087 246.2 123.803 247.242 123.237 248.175C122.687 249.092 121.928 249.825 120.962 250.375C119.995 250.908 118.912 251.175 117.712 251.175Z" fill="black"/>
<path d="M202.375 249.775V235.575L203.3 236.775L199.75 238.575L199.025 235.725L203.8 233.25H205.6V249.775H202.375ZM199.45 251V248H208.6V251H199.45ZM212.087 251L211.262 248.95L216.512 243.075C216.812 242.775 217.12 242.433 217.437 242.05C217.753 241.65 218.053 241.242 218.337 240.825C218.637 240.392 218.878 239.975 219.062 239.575C219.245 239.158 219.337 238.775 219.337 238.425C219.337 237.975 219.237 237.583 219.037 237.25C218.853 236.917 218.587 236.658 218.237 236.475C217.887 236.292 217.453 236.2 216.937 236.2C216.487 236.2 216.045 236.333 215.612 236.6C215.195 236.85 214.803 237.217 214.437 237.7C214.087 238.167 213.795 238.725 213.562 239.375L211.112 237.925C211.412 236.958 211.862 236.125 212.462 235.425C213.078 234.708 213.795 234.158 214.612 233.775C215.445 233.392 216.345 233.2 217.312 233.2C218.312 233.2 219.203 233.408 219.987 233.825C220.77 234.242 221.387 234.817 221.837 235.55C222.303 236.283 222.537 237.142 222.537 238.125C222.537 238.492 222.495 238.875 222.412 239.275C222.328 239.658 222.195 240.067 222.012 240.5C221.845 240.917 221.62 241.358 221.337 241.825C221.053 242.275 220.712 242.75 220.312 243.25C219.928 243.75 219.487 244.275 218.987 244.825L215.012 249.15L214.512 248H223.162V251H212.087Z" fill="black"/>
<path d="M311.875 251.25C310.458 251.25 309.242 250.892 308.225 250.175C307.225 249.442 306.45 248.408 305.9 247.075C305.367 245.725 305.1 244.117 305.1 242.25C305.1 240.383 305.367 238.783 305.9 237.45C306.45 236.1 307.225 235.067 308.225 234.35C309.242 233.617 310.458 233.25 311.875 233.25C313.292 233.25 314.508 233.617 315.525 234.35C316.542 235.067 317.317 236.1 317.85 237.45C318.4 238.783 318.675 240.383 318.675 242.25C318.675 244.117 318.4 245.725 317.85 247.075C317.317 248.408 316.542 249.442 315.525 250.175C314.508 250.892 313.292 251.25 311.875 251.25ZM311.875 248.4C313.042 248.4 313.942 247.867 314.575 246.8C315.225 245.717 315.55 244.2 315.55 242.25C315.55 240.283 315.225 238.758 314.575 237.675C313.942 236.592 313.042 236.05 311.875 236.05C310.708 236.05 309.8 236.592 309.15 237.675C308.517 238.758 308.2 240.283 308.2 242.25C308.2 244.2 308.517 245.717 309.15 246.8C309.8 247.867 310.708 248.4 311.875 248.4ZM326.371 251.25C325.071 251.25 323.938 250.967 322.971 250.4C322.005 249.817 321.113 248.833 320.296 247.45L322.746 245.9C323.13 246.517 323.521 247.017 323.921 247.4C324.338 247.767 324.755 248.042 325.171 248.225C325.605 248.392 326.063 248.475 326.546 248.475C327.096 248.475 327.596 248.342 328.046 248.075C328.513 247.808 328.88 247.442 329.146 246.975C329.43 246.508 329.571 245.975 329.571 245.375C329.571 244.775 329.455 244.267 329.221 243.85C329.005 243.433 328.68 243.117 328.246 242.9C327.83 242.667 327.321 242.55 326.721 242.55C326.455 242.55 326.171 242.583 325.871 242.65C325.571 242.7 325.255 242.783 324.921 242.9C324.588 243 324.221 243.125 323.821 243.275L323.021 241.15L327.996 235.65L328.746 236.375L321.371 236.325V233.45H331.646L332.246 234.65L326.496 240.925L325.746 240.1C325.88 240.033 326.096 239.975 326.396 239.925C326.713 239.858 326.988 239.825 327.221 239.825C327.955 239.825 328.655 239.967 329.321 240.25C329.988 240.517 330.563 240.9 331.046 241.4C331.546 241.9 331.938 242.483 332.221 243.15C332.505 243.8 332.646 244.508 332.646 245.275C332.646 246.425 332.363 247.45 331.796 248.35C331.246 249.233 330.496 249.942 329.546 250.475C328.596 250.992 327.538 251.25 326.371 251.25Z" fill="black"/>
<path d="M311.94 211V204H313.11L317.17 209.47L316.95 209.51C316.923 209.323 316.9 209.133 316.88 208.94C316.86 208.74 316.84 208.533 316.82 208.32C316.807 208.107 316.793 207.883 316.78 207.65C316.773 207.417 316.767 207.173 316.76 206.92C316.753 206.66 316.75 206.387 316.75 206.1V204H318.04V211H316.85L312.77 205.61L313.03 205.54C313.063 205.913 313.09 206.233 313.11 206.5C313.137 206.76 313.157 206.987 313.17 207.18C313.183 207.367 313.193 207.523 313.2 207.65C313.213 207.777 313.22 207.893 313.22 208C313.227 208.1 313.23 208.197 313.23 208.29V211H311.94ZM322.109 211.1C321.582 211.1 321.112 210.983 320.699 210.75C320.285 210.51 319.959 210.183 319.719 209.77C319.479 209.357 319.359 208.887 319.359 208.36C319.359 207.833 319.479 207.363 319.719 206.95C319.959 206.537 320.285 206.213 320.699 205.98C321.112 205.74 321.582 205.62 322.109 205.62C322.629 205.62 323.095 205.74 323.509 205.98C323.922 206.213 324.245 206.537 324.479 206.95C324.719 207.363 324.839 207.833 324.839 208.36C324.839 208.887 324.719 209.357 324.479 209.77C324.245 210.183 323.922 210.51 323.509 210.75C323.095 210.983 322.629 211.1 322.109 211.1ZM322.109 210.01C322.395 210.01 322.649 209.937 322.869 209.79C323.095 209.643 323.272 209.447 323.399 209.2C323.532 208.953 323.595 208.673 323.589 208.36C323.595 208.04 323.532 207.757 323.399 207.51C323.272 207.263 323.095 207.07 322.869 206.93C322.649 206.783 322.395 206.71 322.109 206.71C321.822 206.71 321.562 206.783 321.329 206.93C321.102 207.07 320.925 207.267 320.799 207.52C320.672 207.767 320.609 208.047 320.609 208.36C320.609 208.673 320.672 208.953 320.799 209.2C320.925 209.447 321.102 209.643 321.329 209.79C321.562 209.937 321.822 210.01 322.109 210.01ZM326.509 211V204.39H327.739V211H326.509ZM325.469 206.87V205.73H328.889V206.87H325.469ZM332.205 211L334.935 204H336.155L338.865 211H337.515L336.015 207.02C335.982 206.94 335.935 206.813 335.875 206.64C335.822 206.467 335.762 206.28 335.695 206.08C335.628 205.873 335.568 205.683 335.515 205.51C335.462 205.33 335.422 205.2 335.395 205.12L335.645 205.11C335.605 205.243 335.558 205.393 335.505 205.56C335.452 205.727 335.395 205.9 335.335 206.08C335.275 206.26 335.215 206.433 335.155 206.6C335.102 206.767 335.052 206.917 335.005 207.05L333.505 211H332.205ZM333.445 209.4L333.895 208.27H337.085L337.565 209.4H333.445ZM340.269 211V204.39H341.499V211H340.269ZM339.229 206.87V205.73H342.649V206.87H339.229ZM344.155 211V204.39H345.385V211H344.155ZM343.115 206.87V205.73H346.535V206.87H343.115ZM349.893 211.1C349.34 211.1 348.85 210.983 348.423 210.75C348.003 210.517 347.673 210.2 347.433 209.8C347.2 209.393 347.083 208.93 347.083 208.41C347.083 207.997 347.15 207.62 347.283 207.28C347.416 206.94 347.6 206.647 347.833 206.4C348.073 206.147 348.356 205.953 348.683 205.82C349.016 205.68 349.38 205.61 349.773 205.61C350.12 205.61 350.443 205.677 350.743 205.81C351.043 205.943 351.303 206.127 351.523 206.36C351.743 206.587 351.91 206.86 352.023 207.18C352.143 207.493 352.2 207.837 352.193 208.21L352.183 208.64H347.913L347.683 207.8H351.153L350.993 207.97V207.75C350.973 207.543 350.906 207.363 350.793 207.21C350.68 207.05 350.533 206.927 350.353 206.84C350.18 206.747 349.986 206.7 349.773 206.7C349.446 206.7 349.17 206.763 348.943 206.89C348.723 207.017 348.556 207.2 348.443 207.44C348.33 207.673 348.273 207.967 348.273 208.32C348.273 208.66 348.343 208.957 348.483 209.21C348.63 209.463 348.833 209.66 349.093 209.8C349.36 209.933 349.67 210 350.023 210C350.27 210 350.496 209.96 350.703 209.88C350.91 209.8 351.133 209.657 351.373 209.45L351.983 210.3C351.803 210.467 351.596 210.61 351.363 210.73C351.136 210.843 350.896 210.933 350.643 211C350.39 211.067 350.14 211.1 349.893 211.1ZM353.283 211V205.73H354.483L354.503 206.81L354.273 206.93C354.339 206.69 354.469 206.473 354.663 206.28C354.856 206.08 355.086 205.92 355.353 205.8C355.619 205.68 355.893 205.62 356.173 205.62C356.573 205.62 356.906 205.7 357.173 205.86C357.446 206.02 357.649 206.26 357.783 206.58C357.923 206.9 357.993 207.3 357.993 207.78V211H356.763V207.87C356.763 207.603 356.726 207.383 356.653 207.21C356.579 207.03 356.466 206.9 356.313 206.82C356.159 206.733 355.973 206.693 355.753 206.7C355.573 206.7 355.406 206.73 355.253 206.79C355.106 206.843 354.976 206.923 354.863 207.03C354.756 207.13 354.669 207.247 354.603 207.38C354.543 207.513 354.513 207.66 354.513 207.82V211H353.903C353.783 211 353.669 211 353.563 211C353.463 211 353.369 211 353.283 211ZM361.496 211.1C361.03 211.1 360.61 210.983 360.236 210.75C359.87 210.51 359.576 210.187 359.356 209.78C359.143 209.367 359.036 208.893 359.036 208.36C359.036 207.833 359.143 207.363 359.356 206.95C359.57 206.537 359.86 206.213 360.226 205.98C360.6 205.74 361.02 205.62 361.486 205.62C361.74 205.62 361.983 205.66 362.216 205.74C362.456 205.82 362.67 205.93 362.856 206.07C363.043 206.203 363.19 206.353 363.296 206.52C363.41 206.687 363.473 206.86 363.486 207.04L363.156 207.08V203.6H364.386V211H363.196L363.166 209.76L363.406 209.78C363.4 209.947 363.34 210.107 363.226 210.26C363.12 210.413 362.98 210.553 362.806 210.68C362.633 210.807 362.43 210.91 362.196 210.99C361.97 211.063 361.736 211.1 361.496 211.1ZM361.736 210.06C362.023 210.06 362.276 209.987 362.496 209.84C362.716 209.693 362.886 209.493 363.006 209.24C363.133 208.987 363.196 208.693 363.196 208.36C363.196 208.033 363.133 207.743 363.006 207.49C362.886 207.23 362.716 207.03 362.496 206.89C362.276 206.743 362.023 206.67 361.736 206.67C361.45 206.67 361.196 206.743 360.976 206.89C360.756 207.03 360.583 207.23 360.456 207.49C360.336 207.743 360.276 208.033 360.276 208.36C360.276 208.693 360.336 208.987 360.456 209.24C360.583 209.493 360.756 209.693 360.976 209.84C361.196 209.987 361.45 210.06 361.736 210.06ZM368.253 211.1C367.699 211.1 367.209 210.983 366.783 210.75C366.363 210.517 366.033 210.2 365.793 209.8C365.559 209.393 365.443 208.93 365.443 208.41C365.443 207.997 365.509 207.62 365.643 207.28C365.776 206.94 365.959 206.647 366.193 206.4C366.433 206.147 366.716 205.953 367.043 205.82C367.376 205.68 367.739 205.61 368.133 205.61C368.479 205.61 368.803 205.677 369.103 205.81C369.403 205.943 369.663 206.127 369.883 206.36C370.103 206.587 370.269 206.86 370.383 207.18C370.503 207.493 370.559 207.837 370.553 208.21L370.543 208.64H366.273L366.043 207.8H369.513L369.353 207.97V207.75C369.333 207.543 369.266 207.363 369.153 207.21C369.039 207.05 368.893 206.927 368.713 206.84C368.539 206.747 368.346 206.7 368.133 206.7C367.806 206.7 367.529 206.763 367.303 206.89C367.083 207.017 366.916 207.2 366.803 207.44C366.689 207.673 366.633 207.967 366.633 208.32C366.633 208.66 366.703 208.957 366.843 209.21C366.989 209.463 367.193 209.66 367.453 209.8C367.719 209.933 368.029 210 368.383 210C368.629 210 368.856 209.96 369.063 209.88C369.269 209.8 369.493 209.657 369.733 209.45L370.342 210.3C370.163 210.467 369.956 210.61 369.723 210.73C369.496 210.843 369.256 210.933 369.003 211C368.749 211.067 368.499 211.1 368.253 211.1ZM373.762 211.1C373.295 211.1 372.875 210.983 372.502 210.75C372.135 210.51 371.842 210.187 371.622 209.78C371.409 209.367 371.302 208.893 371.302 208.36C371.302 207.833 371.409 207.363 371.622 206.95C371.835 206.537 372.125 206.213 372.492 205.98C372.865 205.74 373.285 205.62 373.752 205.62C374.005 205.62 374.249 205.66 374.482 205.74C374.722 205.82 374.935 205.93 375.122 206.07C375.309 206.203 375.455 206.353 375.562 206.52C375.675 206.687 375.739 206.86 375.752 207.04L375.422 207.08V203.6H376.652V211H375.462L375.432 209.76L375.672 209.78C375.665 209.947 375.605 210.107 375.492 210.26C375.385 210.413 375.245 210.553 375.072 210.68C374.899 210.807 374.695 210.91 374.462 210.99C374.235 211.063 374.002 211.1 373.762 211.1ZM374.002 210.06C374.289 210.06 374.542 209.987 374.762 209.84C374.982 209.693 375.152 209.493 375.272 209.24C375.399 208.987 375.462 208.693 375.462 208.36C375.462 208.033 375.399 207.743 375.272 207.49C375.152 207.23 374.982 207.03 374.762 206.89C374.542 206.743 374.289 206.67 374.002 206.67C373.715 206.67 373.462 206.743 373.242 206.89C373.022 207.03 372.849 207.23 372.722 207.49C372.602 207.743 372.542 208.033 372.542 208.36C372.542 208.693 372.602 208.987 372.722 209.24C372.849 209.493 373.022 209.693 373.242 209.84C373.462 209.987 373.715 210.06 374.002 210.06Z" fill="black"/>
<rect x="98" y="200" width="2" height="23" rx="1" fill="#1A89FA"/>
<rect x="197" y="200" width="2" height="23" rx="1" fill="#9CE582"/>
<rect x="304" y="200" width="2" height="23" rx="1" fill="#DF6E61"/>
<line x1="98" y1="185.5" x2="378" y2="185.5" stroke="#E4E6EA"/>
<rect x="98" y="264" width="122" height="5" rx="2.5" fill="#1A89FA"/>
<rect x="222" y="264" width="107" height="5" rx="2.5" fill="#35CA00" fill-opacity="0.49"/>
<rect x="331" y="264" width="47" height="5" rx="2.5" fill="#DF6E61"/>
<rect x="98" y="335" width="198" height="7" rx="3.5" fill="#E4E6EA"/>
<rect x="313" y="330" width="70" height="16" rx="8" fill="#AEE9D1"/>
<path d="M329.953 341.119C329.31 341.119 328.755 340.979 328.286 340.698C327.824 340.411 327.465 340.014 327.209 339.508C326.96 338.996 326.835 338.403 326.835 337.729C326.835 337.061 326.96 336.471 327.209 335.959C327.465 335.447 327.824 335.05 328.286 334.769C328.755 334.482 329.31 334.339 329.953 334.339C330.721 334.339 331.343 334.523 331.817 334.891C332.298 335.26 332.604 335.778 332.735 336.446H331.705C331.611 336.059 331.418 335.75 331.124 335.519C330.837 335.288 330.447 335.172 329.953 335.172C329.51 335.172 329.126 335.275 328.802 335.481C328.477 335.687 328.227 335.981 328.052 336.362C327.877 336.742 327.79 337.198 327.79 337.729C327.79 338.26 327.877 338.719 328.052 339.106C328.227 339.487 328.477 339.78 328.802 339.986C329.126 340.186 329.51 340.286 329.953 340.286C330.447 340.286 330.837 340.177 331.124 339.958C331.418 339.733 331.611 339.43 331.705 339.05H332.735C332.604 339.699 332.298 340.208 331.817 340.576C331.343 340.938 330.721 341.119 329.953 341.119ZM335.963 341.119C335.519 341.119 335.12 341.016 334.764 340.81C334.414 340.604 334.136 340.317 333.93 339.949C333.731 339.574 333.631 339.143 333.631 338.656C333.631 338.157 333.734 337.723 333.94 337.354C334.146 336.98 334.427 336.689 334.783 336.483C335.139 336.277 335.538 336.174 335.982 336.174C336.431 336.174 336.831 336.277 337.18 336.483C337.53 336.689 337.805 336.977 338.005 337.345C338.211 337.713 338.314 338.147 338.314 338.647C338.314 339.146 338.211 339.58 338.005 339.949C337.805 340.317 337.527 340.604 337.171 340.81C336.815 341.016 336.412 341.119 335.963 341.119ZM335.963 340.314C336.219 340.314 336.45 340.251 336.656 340.127C336.868 340.002 337.037 339.818 337.162 339.574C337.293 339.324 337.358 339.015 337.358 338.647C337.358 338.278 337.296 337.972 337.171 337.729C337.046 337.479 336.878 337.292 336.665 337.167C336.459 337.042 336.231 336.98 335.982 336.98C335.732 336.98 335.501 337.042 335.288 337.167C335.076 337.292 334.904 337.479 334.773 337.729C334.648 337.972 334.586 338.278 334.586 338.647C334.586 339.015 334.648 339.324 334.773 339.574C334.904 339.818 335.073 340.002 335.279 340.127C335.491 340.251 335.719 340.314 335.963 340.314ZM339.415 341.007V336.287H340.258L340.314 337.092C340.464 336.811 340.677 336.589 340.951 336.427C341.226 336.259 341.541 336.174 341.897 336.174C342.272 336.174 342.593 336.249 342.862 336.399C343.13 336.549 343.339 336.777 343.489 337.083C343.639 337.382 343.714 337.76 343.714 338.216V341.007H342.778V338.31C342.778 337.873 342.681 337.542 342.487 337.317C342.294 337.092 342.013 336.98 341.644 336.98C341.401 336.98 341.182 337.039 340.989 337.158C340.795 337.27 340.639 337.439 340.52 337.663C340.408 337.888 340.352 338.163 340.352 338.488V341.007H339.415ZM345.165 341.007V337.083H344.472V336.287H345.165V335.65C345.165 335.325 345.218 335.06 345.324 334.854C345.437 334.648 345.599 334.498 345.811 334.404C346.024 334.311 346.28 334.264 346.579 334.264H347.066V335.06H346.729C346.504 335.06 346.342 335.107 346.242 335.2C346.148 335.288 346.102 335.444 346.102 335.669V336.287H348.977V341.007H348.04V337.083H346.102V341.007H345.165ZM348.518 335.472C348.343 335.472 348.196 335.416 348.078 335.303C347.959 335.191 347.9 335.047 347.9 334.872C347.9 334.704 347.959 334.567 348.078 334.46C348.196 334.348 348.343 334.292 348.518 334.292C348.699 334.292 348.846 334.348 348.958 334.46C349.077 334.567 349.136 334.704 349.136 334.872C349.136 335.047 349.077 335.191 348.958 335.303C348.846 335.416 348.699 335.472 348.518 335.472ZM350.327 341.007V336.287H351.17L351.254 337.176C351.36 336.964 351.497 336.786 351.666 336.643C351.835 336.493 352.031 336.377 352.256 336.296C352.487 336.215 352.749 336.174 353.043 336.174V337.167H352.706C352.512 337.167 352.328 337.192 352.153 337.242C351.978 337.286 351.822 337.364 351.685 337.476C351.554 337.588 351.451 337.741 351.376 337.935C351.301 338.129 351.263 338.369 351.263 338.656V341.007H350.327ZM353.903 341.007V336.287H354.746L354.811 336.952C354.961 336.708 355.161 336.518 355.411 336.38C355.66 336.243 355.941 336.174 356.254 336.174C356.491 336.174 356.706 336.209 356.9 336.277C357.093 336.34 357.265 336.437 357.415 336.568C357.565 336.699 357.687 336.861 357.78 337.055C357.949 336.78 358.174 336.565 358.455 336.408C358.742 336.252 359.045 336.174 359.363 336.174C359.744 336.174 360.072 336.252 360.346 336.408C360.621 336.558 360.83 336.786 360.974 337.092C361.117 337.392 361.189 337.766 361.189 338.216V341.007H360.262V338.31C360.262 337.873 360.172 337.542 359.99 337.317C359.816 337.092 359.557 336.98 359.213 336.98C358.982 336.98 358.776 337.039 358.595 337.158C358.414 337.276 358.27 337.448 358.164 337.673C358.064 337.898 358.014 338.172 358.014 338.497V341.007H357.078V338.31C357.078 337.873 356.987 337.542 356.806 337.317C356.631 337.092 356.372 336.98 356.029 336.98C355.81 336.98 355.61 337.039 355.429 337.158C355.248 337.276 355.105 337.448 354.999 337.673C354.892 337.898 354.839 338.172 354.839 338.497V341.007H353.903ZM364.535 341.119C364.085 341.119 363.686 341.016 363.336 340.81C362.986 340.604 362.712 340.317 362.512 339.949C362.318 339.58 362.222 339.153 362.222 338.666C362.222 338.166 362.318 337.732 362.512 337.364C362.712 336.989 362.986 336.699 363.336 336.493C363.686 336.28 364.092 336.174 364.554 336.174C365.016 336.174 365.412 336.277 365.743 336.483C366.074 336.689 366.33 336.964 366.511 337.308C366.692 337.645 366.783 338.019 366.783 338.431C366.783 338.494 366.78 338.563 366.773 338.637C366.773 338.706 366.77 338.784 366.764 338.872H362.905V338.207H365.846C365.827 337.813 365.696 337.507 365.453 337.289C365.209 337.064 364.906 336.952 364.544 336.952C364.288 336.952 364.054 337.011 363.842 337.13C363.63 337.242 363.458 337.411 363.327 337.635C363.202 337.854 363.139 338.132 363.139 338.469V338.731C363.139 339.081 363.202 339.377 363.327 339.621C363.458 339.858 363.63 340.039 363.842 340.164C364.054 340.283 364.285 340.342 364.535 340.342C364.835 340.342 365.081 340.276 365.275 340.145C365.468 340.014 365.612 339.836 365.706 339.611H366.642C366.561 339.899 366.424 340.158 366.23 340.389C366.037 340.614 365.796 340.792 365.509 340.923C365.228 341.054 364.903 341.119 364.535 341.119ZM369.921 341.119C369.472 341.119 369.075 341.013 368.732 340.801C368.388 340.582 368.12 340.289 367.926 339.921C367.739 339.546 367.645 339.121 367.645 338.647C367.645 338.166 367.739 337.741 367.926 337.373C368.12 337.005 368.388 336.714 368.732 336.502C369.081 336.284 369.481 336.174 369.931 336.174C370.299 336.174 370.624 336.249 370.905 336.399C371.186 336.543 371.404 336.749 371.56 337.017V334.264H372.497V341.007H371.663L371.56 340.276C371.466 340.42 371.345 340.557 371.195 340.689C371.045 340.813 370.864 340.916 370.652 340.998C370.439 341.079 370.196 341.119 369.921 341.119ZM370.071 340.305C370.364 340.305 370.624 340.236 370.848 340.098C371.073 339.961 371.245 339.768 371.363 339.518C371.488 339.268 371.551 338.978 371.551 338.647C371.551 338.316 371.488 338.029 371.363 337.785C371.245 337.535 371.073 337.342 370.848 337.204C370.624 337.061 370.364 336.989 370.071 336.989C369.79 336.989 369.537 337.061 369.312 337.204C369.088 337.342 368.913 337.535 368.788 337.785C368.663 338.029 368.601 338.316 368.601 338.647C368.601 338.978 368.663 339.268 368.788 339.518C368.913 339.768 369.088 339.961 369.312 340.098C369.537 340.236 369.79 340.305 370.071 340.305Z" fill="black"/>
<path d="M381.527 387H351.473C350.66 387 350 388.567 350 390.5C350 392.433 350.66 394 351.473 394H381.527C382.34 394 383 392.433 383 390.5C383 388.567 382.34 387 381.527 387Z" fill="#E4E6EA"/>
<path d="M378.714 366H291.286C288.919 366 287 367.567 287 369.5C287 371.433 288.919 373 291.286 373H378.714C381.081 373 383 371.433 383 369.5C383 367.567 381.081 366 378.714 366Z" fill="#E4E6EA"/>
<path d="M380.143 408H321.857C320.279 408 319 409.567 319 411.5C319 413.433 320.279 415 321.857 415H380.143C381.721 415 383 413.433 383 411.5C383 409.567 381.721 408 380.143 408Z" fill="#E4E6EA"/>
<path d="M98.98 394V387H101.72C102.22 387 102.67 387.083 103.07 387.25C103.477 387.417 103.823 387.657 104.11 387.97C104.397 388.283 104.617 388.653 104.77 389.08C104.923 389.507 105 389.98 105 390.5C105 391.02 104.923 391.497 104.77 391.93C104.617 392.357 104.397 392.727 104.11 393.04C103.83 393.347 103.487 393.583 103.08 393.75C102.673 393.917 102.22 394 101.72 394H98.98ZM100.06 393.07L100.03 392.96H101.67C102.023 392.96 102.337 392.903 102.61 392.79C102.89 392.677 103.123 392.517 103.31 392.31C103.503 392.097 103.65 391.837 103.75 391.53C103.85 391.223 103.9 390.88 103.9 390.5C103.9 390.12 103.85 389.78 103.75 389.48C103.65 389.173 103.503 388.913 103.31 388.7C103.117 388.487 102.883 388.323 102.61 388.21C102.337 388.097 102.023 388.04 101.67 388.04H100L100.06 387.95V393.07ZM108.22 394.1C107.787 394.1 107.39 393.98 107.03 393.74C106.677 393.5 106.394 393.173 106.18 392.76C105.967 392.347 105.86 391.88 105.86 391.36C105.86 390.833 105.967 390.367 106.18 389.96C106.4 389.547 106.694 389.223 107.06 388.99C107.434 388.757 107.85 388.64 108.31 388.64C108.584 388.64 108.834 388.68 109.06 388.76C109.287 388.84 109.484 388.953 109.65 389.1C109.824 389.24 109.964 389.403 110.07 389.59C110.184 389.777 110.254 389.977 110.28 390.19L110.05 390.11V388.75H111.09V394H110.05V392.75L110.29 392.68C110.25 392.86 110.167 393.037 110.04 393.21C109.92 393.377 109.764 393.527 109.57 393.66C109.384 393.793 109.174 393.9 108.94 393.98C108.714 394.06 108.474 394.1 108.22 394.1ZM108.49 393.15C108.804 393.15 109.08 393.073 109.32 392.92C109.56 392.767 109.747 392.557 109.88 392.29C110.02 392.017 110.09 391.707 110.09 391.36C110.09 391.02 110.02 390.717 109.88 390.45C109.747 390.183 109.56 389.973 109.32 389.82C109.08 389.667 108.804 389.59 108.49 389.59C108.184 389.59 107.91 389.667 107.67 389.82C107.437 389.973 107.25 390.183 107.11 390.45C106.977 390.717 106.91 391.02 106.91 391.36C106.91 391.707 106.977 392.017 107.11 392.29C107.25 392.557 107.437 392.767 107.67 392.92C107.91 393.073 108.184 393.15 108.49 393.15ZM113.179 394V387.41H114.209V394H113.179ZM112.089 389.75V388.75H115.429V389.75H112.089ZM118.768 394.1C118.228 394.1 117.748 393.987 117.328 393.76C116.914 393.527 116.588 393.21 116.348 392.81C116.114 392.41 115.998 391.95 115.998 391.43C115.998 391.017 116.064 390.64 116.198 390.3C116.331 389.96 116.514 389.667 116.748 389.42C116.988 389.167 117.271 388.973 117.598 388.84C117.931 388.7 118.291 388.63 118.678 388.63C119.018 388.63 119.334 388.697 119.628 388.83C119.921 388.957 120.174 389.133 120.388 389.36C120.608 389.587 120.774 389.857 120.888 390.17C121.008 390.477 121.064 390.813 121.058 391.18L121.048 391.62H116.758L116.528 390.8H120.158L120.008 390.97V390.73C119.988 390.51 119.914 390.313 119.788 390.14C119.661 389.967 119.501 389.83 119.308 389.73C119.114 389.63 118.904 389.58 118.678 389.58C118.318 389.58 118.014 389.65 117.768 389.79C117.521 389.923 117.334 390.123 117.208 390.39C117.081 390.65 117.018 390.973 117.018 391.36C117.018 391.727 117.094 392.047 117.248 392.32C117.401 392.587 117.618 392.793 117.898 392.94C118.178 393.087 118.501 393.16 118.868 393.16C119.128 393.16 119.368 393.117 119.588 393.03C119.814 392.943 120.058 392.787 120.318 392.56L120.838 393.29C120.678 393.45 120.481 393.59 120.248 393.71C120.021 393.83 119.778 393.927 119.518 394C119.264 394.067 119.014 394.1 118.768 394.1Z" fill="#3B3B3B"/>
<path d="M101.14 373.1C100.76 373.1 100.407 373.05 100.08 372.95C99.76 372.85 99.4667 372.7 99.2 372.5C98.94 372.293 98.7067 372.04 98.5 371.74L99.24 370.89C99.5667 371.357 99.88 371.68 100.18 371.86C100.48 372.04 100.837 372.13 101.25 372.13C101.503 372.13 101.733 372.09 101.94 372.01C102.147 371.93 102.31 371.82 102.43 371.68C102.55 371.54 102.61 371.38 102.61 371.2C102.61 371.08 102.59 370.967 102.55 370.86C102.51 370.753 102.447 370.657 102.36 370.57C102.28 370.483 102.173 370.403 102.04 370.33C101.913 370.257 101.763 370.193 101.59 370.14C101.417 370.08 101.217 370.03 100.99 369.99C100.63 369.917 100.317 369.82 100.05 369.7C99.7833 369.58 99.56 369.43 99.38 369.25C99.2 369.07 99.0667 368.867 98.98 368.64C98.8933 368.407 98.85 368.147 98.85 367.86C98.85 367.58 98.91 367.32 99.03 367.08C99.1567 366.84 99.3267 366.633 99.54 366.46C99.76 366.28 100.017 366.143 100.31 366.05C100.603 365.95 100.92 365.9 101.26 365.9C101.62 365.9 101.95 365.947 102.25 366.04C102.55 366.133 102.817 366.273 103.05 366.46C103.283 366.64 103.477 366.863 103.63 367.13L102.87 367.88C102.737 367.66 102.587 367.477 102.42 367.33C102.253 367.177 102.07 367.063 101.87 366.99C101.67 366.91 101.457 366.87 101.23 366.87C100.97 366.87 100.743 366.91 100.55 366.99C100.357 367.07 100.203 367.183 100.09 367.33C99.9833 367.47 99.93 367.637 99.93 367.83C99.93 367.97 99.9567 368.1 100.01 368.22C100.063 368.333 100.143 368.437 100.25 368.53C100.363 368.617 100.513 368.697 100.7 368.77C100.887 368.837 101.11 368.897 101.37 368.95C101.737 369.03 102.063 369.133 102.35 369.26C102.637 369.38 102.88 369.523 103.08 369.69C103.28 369.857 103.43 370.043 103.53 370.25C103.637 370.457 103.69 370.68 103.69 370.92C103.69 371.367 103.587 371.753 103.38 372.08C103.173 372.407 102.88 372.66 102.5 372.84C102.12 373.013 101.667 373.1 101.14 373.1ZM104.96 375.2V367.75H106V368.95L105.84 368.86C105.88 368.66 105.994 368.47 106.18 368.29C106.367 368.103 106.594 367.953 106.86 367.84C107.134 367.72 107.414 367.66 107.7 367.66C108.174 367.66 108.594 367.777 108.96 368.01C109.327 368.243 109.617 368.563 109.83 368.97C110.044 369.377 110.15 369.843 110.15 370.37C110.15 370.89 110.044 371.357 109.83 371.77C109.624 372.177 109.337 372.5 108.97 372.74C108.604 372.973 108.19 373.09 107.73 373.09C107.424 373.09 107.127 373.03 106.84 372.91C106.554 372.783 106.31 372.623 106.11 372.43C105.91 372.237 105.787 372.037 105.74 371.83L106 371.69V375.2H104.96ZM107.56 372.14C107.867 372.14 108.14 372.063 108.38 371.91C108.62 371.757 108.81 371.547 108.95 371.28C109.09 371.013 109.16 370.71 109.16 370.37C109.16 370.03 109.09 369.73 108.95 369.47C108.817 369.203 108.63 368.993 108.39 368.84C108.15 368.687 107.874 368.61 107.56 368.61C107.247 368.61 106.97 368.687 106.73 368.84C106.49 368.987 106.3 369.193 106.16 369.46C106.02 369.727 105.95 370.03 105.95 370.37C105.95 370.71 106.02 371.013 106.16 371.28C106.3 371.547 106.49 371.757 106.73 371.91C106.97 372.063 107.247 372.14 107.56 372.14ZM113.289 373.1C112.855 373.1 112.459 372.98 112.099 372.74C111.745 372.5 111.462 372.173 111.249 371.76C111.035 371.347 110.929 370.88 110.929 370.36C110.929 369.833 111.035 369.367 111.249 368.96C111.469 368.547 111.762 368.223 112.129 367.99C112.502 367.757 112.919 367.64 113.379 367.64C113.652 367.64 113.902 367.68 114.129 367.76C114.355 367.84 114.552 367.953 114.719 368.1C114.892 368.24 115.032 368.403 115.139 368.59C115.252 368.777 115.322 368.977 115.349 369.19L115.119 369.11V367.75H116.159V373H115.119V371.75L115.359 371.68C115.319 371.86 115.235 372.037 115.109 372.21C114.989 372.377 114.832 372.527 114.639 372.66C114.452 372.793 114.242 372.9 114.009 372.98C113.782 373.06 113.542 373.1 113.289 373.1ZM113.559 372.15C113.872 372.15 114.149 372.073 114.389 371.92C114.629 371.767 114.815 371.557 114.949 371.29C115.089 371.017 115.159 370.707 115.159 370.36C115.159 370.02 115.089 369.717 114.949 369.45C114.815 369.183 114.629 368.973 114.389 368.82C114.149 368.667 113.872 368.59 113.559 368.59C113.252 368.59 112.979 368.667 112.739 368.82C112.505 368.973 112.319 369.183 112.179 369.45C112.045 369.717 111.979 370.02 111.979 370.36C111.979 370.707 112.045 371.017 112.179 371.29C112.319 371.557 112.505 371.767 112.739 371.92C112.979 372.073 113.252 372.15 113.559 372.15ZM119.827 373.1C119.34 373.1 118.904 372.98 118.517 372.74C118.137 372.5 117.834 372.173 117.607 371.76C117.387 371.347 117.277 370.883 117.277 370.37C117.277 369.857 117.387 369.393 117.607 368.98C117.834 368.567 118.137 368.24 118.517 368C118.904 367.76 119.34 367.64 119.827 367.64C120.294 367.64 120.717 367.737 121.097 367.93C121.484 368.117 121.777 368.373 121.977 368.7L121.407 369.4C121.3 369.247 121.164 369.107 120.997 368.98C120.83 368.853 120.654 368.753 120.467 368.68C120.28 368.607 120.1 368.57 119.927 368.57C119.607 368.57 119.32 368.65 119.067 368.81C118.82 368.963 118.624 369.177 118.477 369.45C118.33 369.723 118.257 370.03 118.257 370.37C118.257 370.71 118.334 371.017 118.487 371.29C118.64 371.557 118.844 371.77 119.097 371.93C119.35 372.09 119.63 372.17 119.937 372.17C120.117 372.17 120.29 372.14 120.457 372.08C120.63 372.02 120.797 371.93 120.957 371.81C121.117 371.69 121.267 371.543 121.407 371.37L121.977 372.07C121.764 372.37 121.457 372.617 121.057 372.81C120.664 373.003 120.254 373.1 119.827 373.1ZM125.399 373.1C124.859 373.1 124.379 372.987 123.959 372.76C123.545 372.527 123.219 372.21 122.979 371.81C122.745 371.41 122.629 370.95 122.629 370.43C122.629 370.017 122.695 369.64 122.829 369.3C122.962 368.96 123.145 368.667 123.379 368.42C123.619 368.167 123.902 367.973 124.229 367.84C124.562 367.7 124.922 367.63 125.309 367.63C125.649 367.63 125.965 367.697 126.259 367.83C126.552 367.957 126.805 368.133 127.019 368.36C127.239 368.587 127.405 368.857 127.519 369.17C127.639 369.477 127.695 369.813 127.689 370.18L127.679 370.62H123.389L123.159 369.8H126.789L126.639 369.97V369.73C126.619 369.51 126.545 369.313 126.419 369.14C126.292 368.967 126.132 368.83 125.939 368.73C125.745 368.63 125.535 368.58 125.309 368.58C124.949 368.58 124.645 368.65 124.399 368.79C124.152 368.923 123.965 369.123 123.839 369.39C123.712 369.65 123.649 369.973 123.649 370.36C123.649 370.727 123.725 371.047 123.879 371.32C124.032 371.587 124.249 371.793 124.529 371.94C124.809 372.087 125.132 372.16 125.499 372.16C125.759 372.16 125.999 372.117 126.219 372.03C126.445 371.943 126.689 371.787 126.949 371.56L127.469 372.29C127.309 372.45 127.112 372.59 126.879 372.71C126.652 372.83 126.409 372.927 126.149 373C125.895 373.067 125.645 373.1 125.399 373.1ZM131.871 373V366H132.841L137.121 371.73L136.961 371.82C136.934 371.653 136.911 371.473 136.891 371.28C136.871 371.08 136.851 370.87 136.831 370.65C136.817 370.423 136.804 370.187 136.791 369.94C136.784 369.687 136.777 369.423 136.771 369.15C136.764 368.877 136.761 368.593 136.761 368.3V366H137.841V373H136.851L132.641 367.48L132.751 367.34C132.784 367.747 132.811 368.093 132.831 368.38C132.857 368.66 132.877 368.9 132.891 369.1C132.911 369.293 132.924 369.453 132.931 369.58C132.937 369.7 132.941 369.8 132.941 369.88C132.947 369.96 132.951 370.03 132.951 370.09V373H131.871ZM141.56 373.1C141.127 373.1 140.73 372.98 140.37 372.74C140.017 372.5 139.734 372.173 139.52 371.76C139.307 371.347 139.2 370.88 139.2 370.36C139.2 369.833 139.307 369.367 139.52 368.96C139.74 368.547 140.034 368.223 140.4 367.99C140.774 367.757 141.19 367.64 141.65 367.64C141.924 367.64 142.174 367.68 142.4 367.76C142.627 367.84 142.824 367.953 142.99 368.1C143.164 368.24 143.304 368.403 143.41 368.59C143.524 368.777 143.594 368.977 143.62 369.19L143.39 369.11V367.75H144.43V373H143.39V371.75L143.63 371.68C143.59 371.86 143.507 372.037 143.38 372.21C143.26 372.377 143.104 372.527 142.91 372.66C142.724 372.793 142.514 372.9 142.28 372.98C142.054 373.06 141.814 373.1 141.56 373.1ZM141.83 372.15C142.144 372.15 142.42 372.073 142.66 371.92C142.9 371.767 143.087 371.557 143.22 371.29C143.36 371.017 143.43 370.707 143.43 370.36C143.43 370.02 143.36 369.717 143.22 369.45C143.087 369.183 142.9 368.973 142.66 368.82C142.42 368.667 142.144 368.59 141.83 368.59C141.524 368.59 141.25 368.667 141.01 368.82C140.777 368.973 140.59 369.183 140.45 369.45C140.317 369.717 140.25 370.02 140.25 370.36C140.25 370.707 140.317 371.017 140.45 371.29C140.59 371.557 140.777 371.767 141.01 371.92C141.25 372.073 141.524 372.15 141.83 372.15ZM145.848 373V367.75H146.888V368.87L146.698 368.99C146.752 368.817 146.835 368.65 146.948 368.49C147.068 368.33 147.212 368.19 147.378 368.07C147.552 367.943 147.735 367.843 147.928 367.77C148.128 367.697 148.332 367.66 148.538 367.66C148.838 367.66 149.102 367.71 149.328 367.81C149.555 367.91 149.742 368.06 149.888 368.26C150.035 368.46 150.142 368.71 150.208 369.01L150.048 368.97L150.118 368.8C150.192 368.647 150.292 368.503 150.418 368.37C150.552 368.23 150.702 368.107 150.868 368C151.035 367.893 151.212 367.81 151.398 367.75C151.585 367.69 151.768 367.66 151.948 367.66C152.342 367.66 152.665 367.74 152.918 367.9C153.178 368.06 153.372 368.303 153.498 368.63C153.632 368.957 153.698 369.363 153.698 369.85V373H152.658V369.91C152.658 369.61 152.618 369.367 152.538 369.18C152.465 368.987 152.352 368.843 152.198 368.75C152.045 368.657 151.848 368.61 151.608 368.61C151.422 368.61 151.245 368.643 151.078 368.71C150.918 368.77 150.778 368.857 150.658 368.97C150.538 369.083 150.445 369.217 150.378 369.37C150.312 369.517 150.278 369.68 150.278 369.86V373H149.238V369.89C149.238 369.617 149.198 369.387 149.118 369.2C149.038 369.007 148.922 368.86 148.768 368.76C148.615 368.66 148.428 368.61 148.208 368.61C148.022 368.61 147.848 368.643 147.688 368.71C147.528 368.77 147.388 368.857 147.268 368.97C147.148 369.077 147.055 369.207 146.988 369.36C146.922 369.507 146.888 369.667 146.888 369.84V373H145.848ZM157.527 373.1C156.987 373.1 156.507 372.987 156.087 372.76C155.674 372.527 155.347 372.21 155.107 371.81C154.874 371.41 154.757 370.95 154.757 370.43C154.757 370.017 154.824 369.64 154.957 369.3C155.091 368.96 155.274 368.667 155.507 368.42C155.747 368.167 156.031 367.973 156.357 367.84C156.691 367.7 157.051 367.63 157.437 367.63C157.777 367.63 158.094 367.697 158.387 367.83C158.681 367.957 158.934 368.133 159.147 368.36C159.367 368.587 159.534 368.857 159.647 369.17C159.767 369.477 159.824 369.813 159.817 370.18L159.807 370.62H155.517L155.287 369.8H158.917L158.767 369.97V369.73C158.747 369.51 158.674 369.313 158.547 369.14C158.421 368.967 158.261 368.83 158.067 368.73C157.874 368.63 157.664 368.58 157.437 368.58C157.077 368.58 156.774 368.65 156.527 368.79C156.281 368.923 156.094 369.123 155.967 369.39C155.841 369.65 155.777 369.973 155.777 370.36C155.777 370.727 155.854 371.047 156.007 371.32C156.161 371.587 156.377 371.793 156.657 371.94C156.937 372.087 157.261 372.16 157.627 372.16C157.887 372.16 158.127 372.117 158.347 372.03C158.574 371.943 158.817 371.787 159.077 371.56L159.597 372.29C159.437 372.45 159.241 372.59 159.007 372.71C158.781 372.83 158.537 372.927 158.277 373C158.024 373.067 157.774 373.1 157.527 373.1Z" fill="#3B3B3B"/>
<path d="M100.31 415V409.04H98.35V408H103.41V409.04H101.39V415H100.31ZM104.652 415V409.75H105.682V415H104.652ZM105.152 408.59C104.932 408.59 104.762 408.533 104.642 408.42C104.522 408.307 104.462 408.147 104.462 407.94C104.462 407.747 104.522 407.59 104.642 407.47C104.768 407.35 104.938 407.29 105.152 407.29C105.372 407.29 105.542 407.347 105.662 407.46C105.782 407.573 105.842 407.733 105.842 407.94C105.842 408.133 105.778 408.29 105.652 408.41C105.532 408.53 105.365 408.59 105.152 408.59ZM107.245 415V409.75H108.285V410.87L108.095 410.99C108.148 410.817 108.232 410.65 108.345 410.49C108.465 410.33 108.608 410.19 108.775 410.07C108.948 409.943 109.132 409.843 109.325 409.77C109.525 409.697 109.728 409.66 109.935 409.66C110.235 409.66 110.498 409.71 110.725 409.81C110.952 409.91 111.138 410.06 111.285 410.26C111.432 410.46 111.538 410.71 111.605 411.01L111.445 410.97L111.515 410.8C111.588 410.647 111.688 410.503 111.815 410.37C111.948 410.23 112.098 410.107 112.265 410C112.432 409.893 112.608 409.81 112.795 409.75C112.982 409.69 113.165 409.66 113.345 409.66C113.738 409.66 114.062 409.74 114.315 409.9C114.575 410.06 114.768 410.303 114.895 410.63C115.028 410.957 115.095 411.363 115.095 411.85V415H114.055V411.91C114.055 411.61 114.015 411.367 113.935 411.18C113.862 410.987 113.748 410.843 113.595 410.75C113.442 410.657 113.245 410.61 113.005 410.61C112.818 410.61 112.642 410.643 112.475 410.71C112.315 410.77 112.175 410.857 112.055 410.97C111.935 411.083 111.842 411.217 111.775 411.37C111.708 411.517 111.675 411.68 111.675 411.86V415H110.635V411.89C110.635 411.617 110.595 411.387 110.515 411.2C110.435 411.007 110.318 410.86 110.165 410.76C110.012 410.66 109.825 410.61 109.605 410.61C109.418 410.61 109.245 410.643 109.085 410.71C108.925 410.77 108.785 410.857 108.665 410.97C108.545 411.077 108.452 411.207 108.385 411.36C108.318 411.507 108.285 411.667 108.285 411.84V415H107.245ZM118.924 415.1C118.384 415.1 117.904 414.987 117.484 414.76C117.071 414.527 116.744 414.21 116.504 413.81C116.271 413.41 116.154 412.95 116.154 412.43C116.154 412.017 116.221 411.64 116.354 411.3C116.487 410.96 116.671 410.667 116.904 410.42C117.144 410.167 117.427 409.973 117.754 409.84C118.087 409.7 118.447 409.63 118.834 409.63C119.174 409.63 119.491 409.697 119.784 409.83C120.077 409.957 120.331 410.133 120.544 410.36C120.764 410.587 120.931 410.857 121.044 411.17C121.164 411.477 121.221 411.813 121.214 412.18L121.204 412.62H116.914L116.684 411.8H120.314L120.164 411.97V411.73C120.144 411.51 120.071 411.313 119.944 411.14C119.817 410.967 119.657 410.83 119.464 410.73C119.271 410.63 119.061 410.58 118.834 410.58C118.474 410.58 118.171 410.65 117.924 410.79C117.677 410.923 117.491 411.123 117.364 411.39C117.237 411.65 117.174 411.973 117.174 412.36C117.174 412.727 117.251 413.047 117.404 413.32C117.557 413.587 117.774 413.793 118.054 413.94C118.334 414.087 118.657 414.16 119.024 414.16C119.284 414.16 119.524 414.117 119.744 414.03C119.971 413.943 120.214 413.787 120.474 413.56L120.994 414.29C120.834 414.45 120.637 414.59 120.404 414.71C120.177 414.83 119.934 414.927 119.674 415C119.421 415.067 119.171 415.1 118.924 415.1Z" fill="#3B3B3B"/>
</g>
<defs>
<clipPath id="clip0_183_94">
<rect width="480" height="540" fill="white"/>
</clipPath>
</defs>
</svg>
