<svg width="480" height="540" viewBox="0 0 480 540" fill="none" xmlns="http://www.w3.org/2000/svg">
<path d="M85 76H396C405.389 76 413 83.6112 413 93V447C413 456.389 405.389 464 396 464H85C75.6111 464 68 456.389 68 447V93C68 83.6112 75.6111 76 85 76Z" fill="#F1F5F7"/>
<path d="M84.911 121V106.3H91.421C92.331 106.3 93.157 106.51 93.899 106.93C94.641 107.336 95.222 107.889 95.642 108.589C96.076 109.289 96.293 110.087 96.293 110.983C96.293 111.865 96.076 112.67 95.642 113.398C95.222 114.112 94.641 114.679 93.899 115.099C93.157 115.519 92.331 115.729 91.421 115.729H87.956V121H84.911ZM93.248 121L89.51 114.364L92.744 113.839L96.902 121.021L93.248 121ZM87.956 113.167H91.274C91.652 113.167 91.981 113.083 92.261 112.915C92.555 112.733 92.779 112.488 92.933 112.18C93.087 111.858 93.164 111.501 93.164 111.109C93.164 110.689 93.073 110.325 92.891 110.017C92.709 109.709 92.443 109.471 92.093 109.303C91.743 109.121 91.337 109.03 90.875 109.03H87.956V113.167ZM104.056 121.21C102.852 121.21 101.795 120.965 100.885 120.475C99.9889 119.985 99.2889 119.313 98.7849 118.459C98.2949 117.605 98.0499 116.625 98.0499 115.519C98.0499 114.651 98.1899 113.86 98.4699 113.146C98.7499 112.432 99.1419 111.816 99.6459 111.298C100.15 110.766 100.745 110.36 101.431 110.08C102.131 109.786 102.887 109.639 103.699 109.639C104.455 109.639 105.155 109.779 105.799 110.059C106.443 110.339 106.996 110.731 107.458 111.235C107.934 111.725 108.298 112.313 108.55 112.999C108.802 113.671 108.914 114.399 108.886 115.183L108.865 116.107H99.9399L99.4569 114.28H106.408L106.072 114.658V114.196C106.044 113.818 105.918 113.482 105.694 113.188C105.484 112.88 105.211 112.642 104.875 112.474C104.539 112.292 104.161 112.201 103.741 112.201C103.125 112.201 102.6 112.32 102.166 112.558C101.746 112.796 101.424 113.146 101.2 113.608C100.976 114.07 100.864 114.63 100.864 115.288C100.864 115.96 101.004 116.541 101.284 117.031C101.578 117.521 101.984 117.906 102.502 118.186C103.034 118.452 103.657 118.585 104.371 118.585C104.861 118.585 105.309 118.508 105.715 118.354C106.121 118.2 106.555 117.934 107.017 117.556L108.445 119.551C108.039 119.915 107.591 120.223 107.101 120.475C106.611 120.713 106.107 120.895 105.589 121.021C105.071 121.147 104.56 121.21 104.056 121.21ZM111.09 125.62V109.891H113.967L114.051 112.39L113.505 112.201C113.603 111.753 113.841 111.34 114.219 110.962C114.611 110.584 115.094 110.276 115.668 110.038C116.242 109.8 116.844 109.681 117.474 109.681C118.44 109.681 119.301 109.933 120.057 110.437C120.813 110.927 121.408 111.606 121.842 112.474C122.276 113.328 122.493 114.315 122.493 115.435C122.493 116.541 122.276 117.528 121.842 118.396C121.408 119.264 120.813 119.95 120.057 120.454C119.301 120.944 118.44 121.189 117.474 121.189C116.83 121.189 116.214 121.07 115.626 120.832C115.052 120.58 114.562 120.251 114.156 119.845C113.764 119.439 113.512 119.005 113.4 118.543L114.093 118.249V125.62H111.09ZM116.802 118.627C117.348 118.627 117.831 118.494 118.251 118.228C118.671 117.962 119 117.591 119.238 117.115C119.476 116.625 119.595 116.065 119.595 115.435C119.595 114.805 119.476 114.252 119.238 113.776C119 113.3 118.671 112.929 118.251 112.663C117.845 112.397 117.362 112.264 116.802 112.264C116.242 112.264 115.752 112.397 115.332 112.663C114.912 112.915 114.583 113.286 114.345 113.776C114.107 114.252 113.988 114.805 113.988 115.435C113.988 116.065 114.107 116.625 114.345 117.115C114.583 117.591 114.912 117.962 115.332 118.228C115.752 118.494 116.242 118.627 116.802 118.627ZM129.914 121.21C128.78 121.21 127.765 120.965 126.869 120.475C125.987 119.971 125.287 119.285 124.769 118.417C124.265 117.549 124.013 116.555 124.013 115.435C124.013 114.315 124.265 113.321 124.769 112.453C125.287 111.585 125.987 110.906 126.869 110.416C127.765 109.912 128.78 109.66 129.914 109.66C131.034 109.66 132.035 109.912 132.917 110.416C133.813 110.906 134.513 111.585 135.017 112.453C135.521 113.321 135.773 114.315 135.773 115.435C135.773 116.555 135.521 117.549 135.017 118.417C134.513 119.285 133.813 119.971 132.917 120.475C132.035 120.965 131.034 121.21 129.914 121.21ZM129.914 118.606C130.46 118.606 130.95 118.473 131.384 118.207C131.818 117.927 132.154 117.549 132.392 117.073C132.644 116.583 132.763 116.037 132.749 115.435C132.763 114.819 132.644 114.273 132.392 113.797C132.154 113.307 131.818 112.929 131.384 112.663C130.95 112.383 130.46 112.243 129.914 112.243C129.354 112.243 128.857 112.383 128.423 112.663C127.989 112.943 127.646 113.321 127.394 113.797C127.142 114.273 127.023 114.819 127.037 115.435C127.023 116.037 127.142 116.583 127.394 117.073C127.646 117.549 127.989 117.927 128.423 118.207C128.857 118.473 129.354 118.606 129.914 118.606ZM138.037 121V109.891H140.914L141.019 113.461L140.515 112.726C140.683 112.152 140.956 111.634 141.334 111.172C141.712 110.696 142.153 110.325 142.657 110.059C143.175 109.793 143.714 109.66 144.274 109.66C144.512 109.66 144.743 109.681 144.967 109.723C145.191 109.765 145.38 109.814 145.534 109.87L144.736 113.146C144.582 113.062 144.379 112.992 144.127 112.936C143.889 112.866 143.644 112.831 143.392 112.831C143.056 112.831 142.741 112.894 142.447 113.02C142.167 113.132 141.922 113.3 141.712 113.524C141.502 113.734 141.334 113.986 141.208 114.28C141.096 114.574 141.04 114.896 141.04 115.246V121H138.037ZM148.726 121V107.077H151.708V121H148.726ZM146.647 112.558V109.891H153.997V112.558H146.647ZM156.172 121V109.891H159.154V121H156.172ZM157.642 107.623C157.068 107.623 156.62 107.483 156.298 107.203C155.976 106.909 155.815 106.503 155.815 105.985C155.815 105.509 155.976 105.124 156.298 104.83C156.634 104.522 157.082 104.368 157.642 104.368C158.216 104.368 158.664 104.515 158.986 104.809C159.308 105.089 159.469 105.481 159.469 105.985C159.469 106.461 159.301 106.853 158.965 107.161C158.643 107.469 158.202 107.623 157.642 107.623ZM162.339 121V109.891H165.195L165.279 112.159L164.691 112.411C164.845 111.907 165.118 111.452 165.51 111.046C165.916 110.626 166.399 110.29 166.959 110.038C167.519 109.786 168.107 109.66 168.723 109.66C169.563 109.66 170.263 109.828 170.823 110.164C171.397 110.5 171.824 111.011 172.104 111.697C172.398 112.369 172.545 113.202 172.545 114.196V121H169.563V114.427C169.563 113.923 169.493 113.503 169.353 113.167C169.213 112.831 168.996 112.586 168.702 112.432C168.422 112.278 168.072 112.208 167.652 112.222C167.316 112.222 167.001 112.278 166.707 112.39C166.427 112.488 166.182 112.635 165.972 112.831C165.776 113.027 165.615 113.251 165.489 113.503C165.377 113.755 165.321 114.028 165.321 114.322V121H163.851C163.529 121 163.242 121 162.99 121C162.738 121 162.521 121 162.339 121ZM180.463 125.83C179.581 125.83 178.713 125.697 177.859 125.431C177.005 125.179 176.305 124.843 175.759 124.423L176.83 122.302C177.11 122.498 177.432 122.673 177.796 122.827C178.16 122.981 178.538 123.1 178.93 123.184C179.336 123.268 179.749 123.31 180.169 123.31C180.897 123.31 181.492 123.198 181.954 122.974C182.43 122.75 182.787 122.414 183.025 121.966C183.263 121.518 183.382 120.958 183.382 120.286V118.354L183.886 118.459C183.802 118.921 183.564 119.348 183.172 119.74C182.794 120.118 182.318 120.426 181.744 120.664C181.184 120.888 180.596 121 179.98 121C178.958 121 178.048 120.762 177.25 120.286C176.452 119.81 175.822 119.152 175.36 118.312C174.898 117.472 174.667 116.499 174.667 115.393C174.667 114.287 174.891 113.307 175.339 112.453C175.801 111.585 176.424 110.906 177.208 110.416C178.006 109.912 178.909 109.66 179.917 109.66C180.337 109.66 180.736 109.709 181.114 109.807C181.506 109.905 181.863 110.045 182.185 110.227C182.521 110.395 182.815 110.591 183.067 110.815C183.333 111.025 183.55 111.256 183.718 111.508C183.886 111.76 183.991 112.012 184.033 112.264L183.424 112.432L183.508 109.891H186.364V120.16C186.364 121.07 186.231 121.875 185.965 122.575C185.699 123.275 185.307 123.863 184.789 124.339C184.285 124.829 183.662 125.2 182.92 125.452C182.192 125.704 181.373 125.83 180.463 125.83ZM180.547 118.606C181.135 118.606 181.646 118.473 182.08 118.207C182.528 117.941 182.871 117.57 183.109 117.094C183.347 116.618 183.466 116.058 183.466 115.414C183.466 114.784 183.347 114.231 183.109 113.755C182.871 113.265 182.528 112.887 182.08 112.621C181.646 112.355 181.135 112.222 180.547 112.222C179.973 112.222 179.469 112.362 179.035 112.642C178.601 112.908 178.258 113.286 178.006 113.776C177.768 114.252 177.649 114.798 177.649 115.414C177.649 116.044 177.768 116.604 178.006 117.094C178.258 117.57 178.601 117.941 179.035 118.207C179.469 118.473 179.973 118.606 180.547 118.606ZM199.924 121.21C199 121.21 198.167 120.958 197.425 120.454C196.683 119.95 196.095 119.264 195.661 118.396C195.227 117.528 195.01 116.534 195.01 115.414C195.01 114.294 195.227 113.3 195.661 112.432C196.109 111.564 196.711 110.885 197.467 110.395C198.223 109.905 199.084 109.66 200.05 109.66C200.596 109.66 201.093 109.744 201.541 109.912C202.003 110.066 202.402 110.283 202.738 110.563C203.088 110.843 203.382 111.165 203.62 111.529C203.858 111.893 204.026 112.285 204.124 112.705L203.494 112.6V109.891H206.455V121H203.452V118.333L204.124 118.27C204.012 118.662 203.83 119.033 203.578 119.383C203.326 119.733 203.011 120.048 202.633 120.328C202.269 120.594 201.856 120.811 201.394 120.979C200.932 121.133 200.442 121.21 199.924 121.21ZM200.743 118.627C201.303 118.627 201.793 118.494 202.213 118.228C202.633 117.962 202.955 117.591 203.179 117.115C203.417 116.625 203.536 116.058 203.536 115.414C203.536 114.784 203.417 114.231 203.179 113.755C202.955 113.279 202.633 112.908 202.213 112.642C201.793 112.362 201.303 112.222 200.743 112.222C200.197 112.222 199.714 112.362 199.294 112.642C198.888 112.908 198.566 113.279 198.328 113.755C198.09 114.231 197.971 114.784 197.971 115.414C197.971 116.058 198.09 116.625 198.328 117.115C198.566 117.591 198.888 117.962 199.294 118.228C199.714 118.494 200.197 118.627 200.743 118.627ZM209.445 121V109.891H212.301L212.385 112.159L211.797 112.411C211.951 111.907 212.224 111.452 212.616 111.046C213.022 110.626 213.505 110.29 214.065 110.038C214.625 109.786 215.213 109.66 215.829 109.66C216.669 109.66 217.369 109.828 217.929 110.164C218.503 110.5 218.93 111.011 219.21 111.697C219.504 112.369 219.651 113.202 219.651 114.196V121H216.669V114.427C216.669 113.923 216.599 113.503 216.459 113.167C216.319 112.831 216.102 112.586 215.808 112.432C215.528 112.278 215.178 112.208 214.758 112.222C214.422 112.222 214.107 112.278 213.813 112.39C213.533 112.488 213.288 112.635 213.078 112.831C212.882 113.027 212.721 113.251 212.595 113.503C212.483 113.755 212.427 114.028 212.427 114.322V121H210.957C210.635 121 210.348 121 210.096 121C209.844 121 209.627 121 209.445 121ZM226.856 121.21C225.876 121.21 225.001 120.965 224.231 120.475C223.475 119.971 222.873 119.292 222.425 118.438C221.991 117.57 221.774 116.569 221.774 115.435C221.774 114.329 221.991 113.342 222.425 112.474C222.873 111.592 223.475 110.906 224.231 110.416C225.001 109.912 225.876 109.66 226.856 109.66C227.374 109.66 227.871 109.744 228.347 109.912C228.837 110.066 229.271 110.283 229.649 110.563C230.041 110.843 230.356 111.158 230.594 111.508C230.832 111.844 230.965 112.194 230.993 112.558L230.237 112.705V105.46H233.24V121H230.405L230.279 118.438L230.867 118.501C230.839 118.851 230.713 119.187 230.489 119.509C230.265 119.831 229.964 120.125 229.586 120.391C229.222 120.643 228.802 120.846 228.326 121C227.864 121.14 227.374 121.21 226.856 121.21ZM227.528 118.732C228.088 118.732 228.578 118.592 228.998 118.312C229.418 118.032 229.747 117.647 229.985 117.157C230.223 116.667 230.342 116.093 230.342 115.435C230.342 114.791 230.223 114.224 229.985 113.734C229.747 113.244 229.418 112.859 228.998 112.579C228.578 112.299 228.088 112.159 227.528 112.159C226.968 112.159 226.478 112.299 226.058 112.579C225.652 112.859 225.33 113.244 225.092 113.734C224.868 114.224 224.756 114.791 224.756 115.435C224.756 116.093 224.868 116.667 225.092 117.157C225.33 117.647 225.652 118.032 226.058 118.312C226.478 118.592 226.968 118.732 227.528 118.732ZM245.358 116.653L244.686 113.797L252.12 106.3H255.942L245.358 116.653ZM242.985 121V106.3H246.135V121H242.985ZM252.519 121L247.017 113.713L249.18 111.823L256.257 121H252.519ZM258.469 121V106.3H264.706C265.588 106.3 266.379 106.51 267.079 106.93C267.779 107.336 268.332 107.896 268.738 108.61C269.158 109.324 269.368 110.129 269.368 111.025C269.368 111.935 269.158 112.754 268.738 113.482C268.332 114.21 267.779 114.791 267.079 115.225C266.379 115.645 265.588 115.855 264.706 115.855H261.619V121H258.469ZM261.577 113.02H264.349C264.685 113.02 264.986 112.936 265.252 112.768C265.518 112.586 265.728 112.348 265.882 112.054C266.05 111.76 266.134 111.424 266.134 111.046C266.134 110.668 266.05 110.339 265.882 110.059C265.728 109.779 265.518 109.555 265.252 109.387C264.986 109.219 264.685 109.135 264.349 109.135H261.577V113.02ZM271.81 121V118.291H274.267V109.009H271.81V106.3H279.874V109.009H277.417V118.291H279.874V121H271.81ZM286.642 121.21C285.606 121.21 284.682 121.042 283.87 120.706C283.072 120.356 282.428 119.88 281.938 119.278L283.807 117.682C284.227 118.144 284.703 118.48 285.235 118.69C285.767 118.886 286.299 118.984 286.831 118.984C287.041 118.984 287.23 118.963 287.398 118.921C287.58 118.865 287.734 118.795 287.86 118.711C287.986 118.613 288.077 118.501 288.133 118.375C288.203 118.235 288.238 118.088 288.238 117.934C288.238 117.626 288.112 117.388 287.86 117.22C287.72 117.136 287.503 117.045 287.209 116.947C286.915 116.835 286.537 116.716 286.075 116.59C285.361 116.408 284.752 116.198 284.248 115.96C283.758 115.708 283.366 115.428 283.072 115.12C282.82 114.826 282.624 114.511 282.484 114.175C282.358 113.825 282.295 113.44 282.295 113.02C282.295 112.516 282.407 112.061 282.631 111.655C282.855 111.235 283.163 110.878 283.555 110.584C283.961 110.29 284.423 110.066 284.941 109.912C285.459 109.744 286.005 109.66 286.579 109.66C287.153 109.66 287.713 109.73 288.259 109.87C288.805 110.01 289.309 110.213 289.771 110.479C290.247 110.731 290.66 111.032 291.01 111.382L289.414 113.146C289.162 112.908 288.875 112.691 288.553 112.495C288.245 112.299 287.923 112.145 287.587 112.033C287.251 111.921 286.95 111.865 286.684 111.865C286.446 111.865 286.229 111.886 286.033 111.928C285.851 111.97 285.697 112.04 285.571 112.138C285.445 112.222 285.347 112.327 285.277 112.453C285.221 112.579 285.193 112.719 285.193 112.873C285.193 113.027 285.228 113.174 285.298 113.314C285.382 113.454 285.494 113.573 285.634 113.671C285.788 113.755 286.012 113.853 286.306 113.965C286.614 114.077 287.027 114.203 287.545 114.343C288.217 114.525 288.784 114.728 289.246 114.952C289.722 115.176 290.1 115.435 290.38 115.729C290.618 115.981 290.793 116.268 290.905 116.59C291.017 116.912 291.073 117.269 291.073 117.661C291.073 118.347 290.877 118.956 290.485 119.488C290.107 120.02 289.582 120.44 288.91 120.748C288.238 121.056 287.482 121.21 286.642 121.21Z" fill="black"/>
<rect x="83.5" y="270.5" width="314" height="162" rx="8.5" fill="white" stroke="#EAF37E"/>
<path d="M121 340.5C121 339.119 122.119 338 123.5 338H133.5C134.881 338 136 339.119 136 340.5V428H121V340.5Z" fill="#1A89FA"/>
<path d="M144 356.5C144 355.119 145.119 354 146.5 354H156.5C157.881 354 159 355.119 159 356.5V428H144V356.5Z" fill="#1A89FA"/>
<path d="M167 378.5C167 377.119 168.119 376 169.5 376H179.5C180.881 376 182 377.119 182 378.5V428H167V378.5Z" fill="#1A89FA"/>
<path d="M190 346.5C190 345.119 191.119 344 192.5 344H202.5C203.881 344 205 345.119 205 346.5V428H190V346.5Z" fill="#1A89FA"/>
<path d="M213 356.5C213 355.119 214.119 354 215.5 354H225.5C226.881 354 228 355.119 228 356.5V428H213V356.5Z" fill="#1A89FA"/>
<path d="M236 327.5C236 326.119 237.119 325 238.5 325H248.5C249.881 325 251 326.119 251 327.5V428H236V327.5Z" fill="#1A89FA"/>
<path d="M259 368.5C259 367.119 260.119 366 261.5 366H271.5C272.881 366 274 367.119 274 368.5V428H259V368.5Z" fill="#1A89FA"/>
<path d="M282 407.5C282 406.119 283.119 405 284.5 405H294.5C295.881 405 297 406.119 297 407.5V428H282V407.5Z" fill="#1A89FA"/>
<path d="M305 342.5C305 341.119 306.119 340 307.5 340H317.5C318.881 340 320 341.119 320 342.5V428H305V342.5Z" fill="#1A89FA"/>
<path d="M328 390.5C328 389.119 329.119 388 330.5 388H340.5C341.881 388 343 389.119 343 390.5V428H328V390.5Z" fill="#1A89FA"/>
<path d="M351 358.5C351 357.119 352.119 356 353.5 356H363.5C364.881 356 366 357.119 366 358.5V428H351V358.5Z" fill="#1A89FA"/>
<path d="M374 334.5C374 333.119 375.119 332 376.5 332H386.5C387.881 332 389 333.119 389 334.5V428H374V334.5Z" fill="#1A89FA"/>
<rect x="87" y="145" width="95" height="48" rx="7" fill="#64D53E"/>
<rect x="87" y="204" width="95" height="48" rx="7" fill="white"/>
<rect x="192" y="145" width="95" height="48" rx="7" fill="white"/>
<rect x="192" y="204" width="95" height="48" rx="7" fill="white"/>
<rect x="298" y="145" width="95" height="48" rx="7" fill="white"/>
<rect x="298" y="204" width="95" height="48" rx="7" fill="white"/>
<path d="M94.98 162V155H95.95L100.23 160.73L100.07 160.82C100.043 160.653 100.02 160.473 100 160.28C99.98 160.08 99.96 159.87 99.94 159.65C99.9267 159.423 99.9133 159.187 99.9 158.94C99.8933 158.687 99.8867 158.423 99.88 158.15C99.8733 157.877 99.87 157.593 99.87 157.3V155H100.95V162H99.96L95.75 156.48L95.86 156.34C95.8933 156.747 95.92 157.093 95.94 157.38C95.9667 157.66 95.9867 157.9 96 158.1C96.02 158.293 96.0333 158.453 96.04 158.58C96.0467 158.7 96.05 158.8 96.05 158.88C96.0567 158.96 96.06 159.03 96.06 159.09V162H94.98ZM105.1 162.1C104.56 162.1 104.08 161.987 103.66 161.76C103.246 161.527 102.92 161.21 102.68 160.81C102.446 160.41 102.33 159.95 102.33 159.43C102.33 159.017 102.396 158.64 102.53 158.3C102.663 157.96 102.846 157.667 103.08 157.42C103.32 157.167 103.603 156.973 103.93 156.84C104.263 156.7 104.623 156.63 105.01 156.63C105.35 156.63 105.666 156.697 105.96 156.83C106.253 156.957 106.506 157.133 106.72 157.36C106.94 157.587 107.106 157.857 107.22 158.17C107.34 158.477 107.396 158.813 107.39 159.18L107.38 159.62H103.09L102.86 158.8H106.49L106.34 158.97V158.73C106.32 158.51 106.246 158.313 106.12 158.14C105.993 157.967 105.833 157.83 105.64 157.73C105.446 157.63 105.236 157.58 105.01 157.58C104.65 157.58 104.346 157.65 104.1 157.79C103.853 157.923 103.666 158.123 103.54 158.39C103.413 158.65 103.35 158.973 103.35 159.36C103.35 159.727 103.426 160.047 103.58 160.32C103.733 160.587 103.95 160.793 104.23 160.94C104.51 161.087 104.833 161.16 105.2 161.16C105.46 161.16 105.7 161.117 105.92 161.03C106.146 160.943 106.39 160.787 106.65 160.56L107.17 161.29C107.01 161.45 106.813 161.59 106.58 161.71C106.353 161.83 106.11 161.927 105.85 162C105.596 162.067 105.346 162.1 105.1 162.1ZM109.701 162L107.911 156.75L108.951 156.74L110.231 160.67L110.001 160.65L111.391 157.58H112.011L113.411 160.66L113.141 160.68L114.431 156.75H115.471L113.701 162H112.991L111.531 158.66L111.761 158.69L110.401 162H109.701Z" fill="white"/>
<path d="M97.82 221.1C97.3333 221.1 96.8867 221.013 96.48 220.84C96.0733 220.667 95.72 220.42 95.42 220.1C95.12 219.773 94.8867 219.39 94.72 218.95C94.56 218.51 94.48 218.027 94.48 217.5C94.48 217 94.5667 216.537 94.74 216.11C94.92 215.677 95.1667 215.297 95.48 214.97C95.7933 214.643 96.1567 214.39 96.57 214.21C96.9833 214.03 97.43 213.94 97.91 213.94C98.25 213.94 98.58 213.993 98.9 214.1C99.2267 214.2 99.52 214.343 99.78 214.53C100.047 214.71 100.263 214.917 100.43 215.15L99.71 215.9C99.5167 215.707 99.32 215.547 99.12 215.42C98.9267 215.287 98.7267 215.187 98.52 215.12C98.32 215.053 98.1167 215.02 97.91 215.02C97.5833 215.02 97.2767 215.083 96.99 215.21C96.71 215.33 96.4633 215.5 96.25 215.72C96.0433 215.94 95.88 216.203 95.76 216.51C95.64 216.81 95.58 217.14 95.58 217.5C95.58 217.88 95.6367 218.227 95.75 218.54C95.87 218.847 96.0367 219.11 96.25 219.33C96.4633 219.55 96.7167 219.72 97.01 219.84C97.31 219.953 97.64 220.01 98 220.01C98.22 220.01 98.4367 219.98 98.65 219.92C98.8633 219.86 99.0633 219.773 99.25 219.66C99.4367 219.547 99.6067 219.413 99.76 219.26L100.3 220.14C100.147 220.32 99.9367 220.483 99.67 220.63C99.41 220.777 99.1167 220.893 98.79 220.98C98.47 221.06 98.1467 221.1 97.82 221.1ZM103.867 221.1C103.354 221.1 102.894 220.983 102.487 220.75C102.087 220.51 101.77 220.187 101.537 219.78C101.304 219.367 101.187 218.897 101.187 218.37C101.187 217.843 101.304 217.377 101.537 216.97C101.77 216.557 102.087 216.233 102.487 216C102.894 215.76 103.354 215.64 103.867 215.64C104.374 215.64 104.827 215.76 105.227 216C105.634 216.233 105.954 216.557 106.187 216.97C106.42 217.377 106.537 217.843 106.537 218.37C106.537 218.897 106.42 219.367 106.187 219.78C105.954 220.187 105.634 220.51 105.227 220.75C104.827 220.983 104.374 221.1 103.867 221.1ZM103.867 220.16C104.18 220.16 104.46 220.083 104.707 219.93C104.954 219.77 105.147 219.557 105.287 219.29C105.427 219.017 105.494 218.71 105.487 218.37C105.494 218.023 105.427 217.717 105.287 217.45C105.147 217.177 104.954 216.963 104.707 216.81C104.46 216.657 104.18 216.58 103.867 216.58C103.554 216.58 103.27 216.66 103.017 216.82C102.77 216.973 102.577 217.187 102.437 217.46C102.297 217.727 102.23 218.03 102.237 218.37C102.23 218.71 102.297 219.017 102.437 219.29C102.577 219.557 102.77 219.77 103.017 219.93C103.27 220.083 103.554 220.16 103.867 220.16ZM107.639 221V215.75H108.679V216.87L108.489 216.99C108.543 216.817 108.626 216.65 108.739 216.49C108.859 216.33 109.003 216.19 109.169 216.07C109.343 215.943 109.526 215.843 109.719 215.77C109.919 215.697 110.123 215.66 110.329 215.66C110.629 215.66 110.893 215.71 111.119 215.81C111.346 215.91 111.533 216.06 111.679 216.26C111.826 216.46 111.933 216.71 111.999 217.01L111.839 216.97L111.909 216.8C111.983 216.647 112.083 216.503 112.209 216.37C112.343 216.23 112.493 216.107 112.659 216C112.826 215.893 113.003 215.81 113.189 215.75C113.376 215.69 113.559 215.66 113.739 215.66C114.133 215.66 114.456 215.74 114.709 215.9C114.969 216.06 115.163 216.303 115.289 216.63C115.423 216.957 115.489 217.363 115.489 217.85V221H114.449V217.91C114.449 217.61 114.409 217.367 114.329 217.18C114.256 216.987 114.143 216.843 113.989 216.75C113.836 216.657 113.639 216.61 113.399 216.61C113.213 216.61 113.036 216.643 112.869 216.71C112.709 216.77 112.569 216.857 112.449 216.97C112.329 217.083 112.236 217.217 112.169 217.37C112.103 217.517 112.069 217.68 112.069 217.86V221H111.029V217.89C111.029 217.617 110.989 217.387 110.909 217.2C110.829 217.007 110.713 216.86 110.559 216.76C110.406 216.66 110.219 216.61 109.999 216.61C109.813 216.61 109.639 216.643 109.479 216.71C109.319 216.77 109.179 216.857 109.059 216.97C108.939 217.077 108.846 217.207 108.779 217.36C108.713 217.507 108.679 217.667 108.679 217.84V221H107.639ZM116.868 223.2V215.75H117.908V216.95L117.748 216.86C117.788 216.66 117.902 216.47 118.088 216.29C118.275 216.103 118.502 215.953 118.768 215.84C119.042 215.72 119.322 215.66 119.608 215.66C120.082 215.66 120.502 215.777 120.868 216.01C121.235 216.243 121.525 216.563 121.738 216.97C121.952 217.377 122.058 217.843 122.058 218.37C122.058 218.89 121.952 219.357 121.738 219.77C121.532 220.177 121.245 220.5 120.878 220.74C120.512 220.973 120.098 221.09 119.638 221.09C119.332 221.09 119.035 221.03 118.748 220.91C118.462 220.783 118.218 220.623 118.018 220.43C117.818 220.237 117.695 220.037 117.648 219.83L117.908 219.69V223.2H116.868ZM119.468 220.14C119.775 220.14 120.048 220.063 120.288 219.91C120.528 219.757 120.718 219.547 120.858 219.28C120.998 219.013 121.068 218.71 121.068 218.37C121.068 218.03 120.998 217.73 120.858 217.47C120.725 217.203 120.538 216.993 120.298 216.84C120.058 216.687 119.782 216.61 119.468 216.61C119.155 216.61 118.878 216.687 118.638 216.84C118.398 216.987 118.208 217.193 118.068 217.46C117.928 217.727 117.858 218.03 117.858 218.37C117.858 218.71 117.928 219.013 118.068 219.28C118.208 219.547 118.398 219.757 118.638 219.91C118.878 220.063 119.155 220.14 119.468 220.14ZM123.197 221V213.6H124.227V221H123.197ZM128.039 221.1C127.499 221.1 127.019 220.987 126.599 220.76C126.186 220.527 125.859 220.21 125.619 219.81C125.386 219.41 125.269 218.95 125.269 218.43C125.269 218.017 125.336 217.64 125.469 217.3C125.602 216.96 125.786 216.667 126.019 216.42C126.259 216.167 126.542 215.973 126.869 215.84C127.202 215.7 127.562 215.63 127.949 215.63C128.289 215.63 128.606 215.697 128.899 215.83C129.192 215.957 129.446 216.133 129.659 216.36C129.879 216.587 130.046 216.857 130.159 217.17C130.279 217.477 130.336 217.813 130.329 218.18L130.319 218.62H126.029L125.799 217.8H129.429L129.279 217.97V217.73C129.259 217.51 129.186 217.313 129.059 217.14C128.932 216.967 128.772 216.83 128.579 216.73C128.386 216.63 128.176 216.58 127.949 216.58C127.589 216.58 127.286 216.65 127.039 216.79C126.792 216.923 126.606 217.123 126.479 217.39C126.352 217.65 126.289 217.973 126.289 218.36C126.289 218.727 126.366 219.047 126.519 219.32C126.672 219.587 126.889 219.793 127.169 219.94C127.449 220.087 127.772 220.16 128.139 220.16C128.399 220.16 128.639 220.117 128.859 220.03C129.086 219.943 129.329 219.787 129.589 219.56L130.109 220.29C129.949 220.45 129.752 220.59 129.519 220.71C129.292 220.83 129.049 220.927 128.789 221C128.536 221.067 128.286 221.1 128.039 221.1ZM132.099 221V214.41H133.129V221H132.099ZM131.009 216.75V215.75H134.349V216.75H131.009ZM137.688 221.1C137.148 221.1 136.668 220.987 136.248 220.76C135.834 220.527 135.508 220.21 135.268 219.81C135.034 219.41 134.918 218.95 134.918 218.43C134.918 218.017 134.984 217.64 135.118 217.3C135.251 216.96 135.434 216.667 135.668 216.42C135.908 216.167 136.191 215.973 136.518 215.84C136.851 215.7 137.211 215.63 137.598 215.63C137.938 215.63 138.254 215.697 138.548 215.83C138.841 215.957 139.094 216.133 139.308 216.36C139.528 216.587 139.694 216.857 139.808 217.17C139.928 217.477 139.984 217.813 139.978 218.18L139.968 218.62H135.678L135.448 217.8H139.078L138.928 217.97V217.73C138.908 217.51 138.834 217.313 138.708 217.14C138.581 216.967 138.421 216.83 138.228 216.73C138.034 216.63 137.824 216.58 137.598 216.58C137.238 216.58 136.934 216.65 136.688 216.79C136.441 216.923 136.254 217.123 136.128 217.39C136.001 217.65 135.938 217.973 135.938 218.36C135.938 218.727 136.014 219.047 136.168 219.32C136.321 219.587 136.538 219.793 136.818 219.94C137.098 220.087 137.421 220.16 137.788 220.16C138.048 220.16 138.288 220.117 138.508 220.03C138.734 219.943 138.978 219.787 139.238 219.56L139.758 220.29C139.598 220.45 139.401 220.59 139.168 220.71C138.941 220.83 138.698 220.927 138.438 221C138.184 221.067 137.934 221.1 137.688 221.1ZM143.287 221.1C142.807 221.1 142.377 220.983 141.997 220.75C141.624 220.51 141.327 220.187 141.107 219.78C140.887 219.367 140.777 218.897 140.777 218.37C140.777 217.843 140.884 217.377 141.097 216.97C141.317 216.557 141.614 216.233 141.987 216C142.36 215.76 142.784 215.64 143.257 215.64C143.517 215.64 143.767 215.683 144.007 215.77C144.254 215.85 144.474 215.963 144.667 216.11C144.86 216.25 145.01 216.407 145.117 216.58C145.23 216.747 145.287 216.917 145.287 217.09L144.987 217.11V213.6H146.017V221H144.987V219.75H145.187C145.187 219.91 145.134 220.07 145.027 220.23C144.92 220.383 144.777 220.527 144.597 220.66C144.424 220.793 144.22 220.9 143.987 220.98C143.76 221.06 143.527 221.1 143.287 221.1ZM143.427 220.21C143.74 220.21 144.017 220.13 144.257 219.97C144.497 219.81 144.684 219.593 144.817 219.32C144.957 219.04 145.027 218.723 145.027 218.37C145.027 218.017 144.957 217.703 144.817 217.43C144.684 217.15 144.497 216.93 144.257 216.77C144.017 216.61 143.74 216.53 143.427 216.53C143.114 216.53 142.837 216.61 142.597 216.77C142.357 216.93 142.167 217.15 142.027 217.43C141.894 217.703 141.827 218.017 141.827 218.37C141.827 218.723 141.894 219.04 142.027 219.32C142.167 219.593 142.357 219.81 142.597 219.97C142.837 220.13 143.114 220.21 143.427 220.21Z" fill="#0D0D0D"/>
<path d="M108.525 295L105.255 284.5H107.295L109.155 290.695C109.215 290.885 109.27 291.095 109.32 291.325C109.37 291.555 109.415 291.785 109.455 292.015C109.495 292.235 109.53 292.44 109.56 292.63C109.59 292.82 109.62 292.98 109.65 293.11L109.245 293.095C109.365 292.625 109.46 292.245 109.53 291.955C109.6 291.665 109.66 291.425 109.71 291.235C109.77 291.035 109.83 290.85 109.89 290.68L111.66 286.15H113.325L115.05 290.68C115.15 290.96 115.24 291.23 115.32 291.49C115.4 291.74 115.465 291.99 115.515 292.24C115.575 292.48 115.63 292.73 115.68 292.99L115.32 293.065C115.36 292.825 115.39 292.63 115.41 292.48C115.43 292.33 115.45 292.195 115.47 292.075C115.49 291.955 115.51 291.84 115.53 291.73C115.55 291.61 115.58 291.47 115.62 291.31C115.67 291.14 115.73 290.925 115.8 290.665L117.645 284.5H119.67L116.385 295H114.975L112.305 288.61L112.485 288.67L109.95 295H108.525ZM124.241 295.15C123.451 295.15 122.746 294.975 122.126 294.625C121.506 294.265 121.016 293.775 120.656 293.155C120.296 292.535 120.116 291.83 120.116 291.04C120.116 290.25 120.296 289.545 120.656 288.925C121.016 288.305 121.506 287.82 122.126 287.47C122.746 287.11 123.451 286.93 124.241 286.93C125.021 286.93 125.721 287.11 126.341 287.47C126.961 287.82 127.446 288.305 127.796 288.925C128.156 289.545 128.336 290.25 128.336 291.04C128.336 291.83 128.156 292.535 127.796 293.155C127.446 293.775 126.961 294.265 126.341 294.625C125.721 294.975 125.021 295.15 124.241 295.15ZM124.241 293.515C124.671 293.515 125.051 293.405 125.381 293.185C125.721 292.965 125.986 292.67 126.176 292.3C126.376 291.93 126.471 291.51 126.461 291.04C126.471 290.56 126.376 290.135 126.176 289.765C125.986 289.395 125.721 289.105 125.381 288.895C125.051 288.675 124.671 288.565 124.241 288.565C123.811 288.565 123.421 288.675 123.071 288.895C122.731 289.105 122.466 289.4 122.276 289.78C122.086 290.15 121.991 290.57 121.991 291.04C121.991 291.51 122.086 291.93 122.276 292.3C122.466 292.67 122.731 292.965 123.071 293.185C123.421 293.405 123.811 293.515 124.241 293.515ZM129.986 295V287.095H131.801L131.831 289.615L131.576 289.045C131.686 288.645 131.876 288.285 132.146 287.965C132.416 287.645 132.726 287.395 133.076 287.215C133.436 287.025 133.811 286.93 134.201 286.93C134.371 286.93 134.531 286.945 134.681 286.975C134.841 287.005 134.971 287.04 135.071 287.08L134.576 289.105C134.466 289.045 134.331 288.995 134.171 288.955C134.011 288.915 133.851 288.895 133.691 288.895C133.441 288.895 133.201 288.945 132.971 289.045C132.751 289.135 132.556 289.265 132.386 289.435C132.216 289.605 132.081 289.805 131.981 290.035C131.891 290.255 131.846 290.505 131.846 290.785V295H129.986ZM138.025 292.585L137.665 290.86L141.415 287.095H143.875L138.025 292.585ZM136.3 295V283.9H138.145V295H136.3ZM141.64 295L138.73 291.475L140.035 290.365L143.92 295H141.64ZM154.402 295.15C153.652 295.15 152.957 295.015 152.317 294.745C151.677 294.475 151.117 294.1 150.637 293.62C150.167 293.13 149.802 292.555 149.542 291.895C149.282 291.235 149.152 290.515 149.152 289.735C149.152 288.955 149.282 288.235 149.542 287.575C149.802 286.915 150.167 286.345 150.637 285.865C151.117 285.375 151.677 284.995 152.317 284.725C152.957 284.455 153.652 284.32 154.402 284.32C155.162 284.32 155.862 284.455 156.502 284.725C157.142 284.995 157.697 285.375 158.167 285.865C158.637 286.355 159.002 286.93 159.262 287.59C159.522 288.24 159.652 288.955 159.652 289.735C159.652 290.505 159.522 291.22 159.262 291.88C159.002 292.54 158.637 293.115 158.167 293.605C157.697 294.095 157.142 294.475 156.502 294.745C155.862 295.015 155.162 295.15 154.402 295.15ZM154.402 293.29C154.882 293.29 155.317 293.205 155.707 293.035C156.107 292.855 156.452 292.605 156.742 292.285C157.032 291.955 157.257 291.575 157.417 291.145C157.587 290.715 157.672 290.245 157.672 289.735C157.672 289.225 157.587 288.755 157.417 288.325C157.257 287.895 157.032 287.52 156.742 287.2C156.452 286.87 156.107 286.62 155.707 286.45C155.317 286.27 154.882 286.18 154.402 286.18C153.932 286.18 153.497 286.27 153.097 286.45C152.697 286.62 152.352 286.865 152.062 287.185C151.772 287.505 151.547 287.88 151.387 288.31C151.227 288.74 151.147 289.215 151.147 289.735C151.147 290.245 151.227 290.72 151.387 291.16C151.547 291.59 151.772 291.965 152.062 292.285C152.352 292.605 152.697 292.855 153.097 293.035C153.497 293.205 153.932 293.29 154.402 293.29ZM161.436 295V287.095H163.251L163.281 289.615L163.026 289.045C163.136 288.645 163.326 288.285 163.596 287.965C163.866 287.645 164.176 287.395 164.526 287.215C164.886 287.025 165.261 286.93 165.651 286.93C165.821 286.93 165.981 286.945 166.131 286.975C166.291 287.005 166.421 287.04 166.521 287.08L166.026 289.105C165.916 289.045 165.781 288.995 165.621 288.955C165.461 288.915 165.301 288.895 165.141 288.895C164.891 288.895 164.651 288.945 164.421 289.045C164.201 289.135 164.006 289.265 163.836 289.435C163.666 289.605 163.531 289.805 163.431 290.035C163.341 290.255 163.296 290.505 163.296 290.785V295H161.436ZM170.593 295.15C169.893 295.15 169.263 294.975 168.703 294.625C168.153 294.265 167.713 293.78 167.383 293.17C167.063 292.55 166.903 291.84 166.903 291.04C166.903 290.25 167.063 289.545 167.383 288.925C167.703 288.305 168.138 287.82 168.688 287.47C169.248 287.11 169.878 286.93 170.578 286.93C170.958 286.93 171.323 286.99 171.673 287.11C172.033 287.23 172.353 287.395 172.633 287.605C172.913 287.805 173.133 288.03 173.293 288.28C173.463 288.53 173.558 288.79 173.578 289.06L173.083 289.12V283.9H174.928V295H173.143L173.098 293.14L173.458 293.17C173.448 293.42 173.358 293.66 173.188 293.89C173.028 294.12 172.818 294.33 172.558 294.52C172.298 294.71 171.993 294.865 171.643 294.985C171.303 295.095 170.953 295.15 170.593 295.15ZM170.953 293.59C171.383 293.59 171.763 293.48 172.093 293.26C172.423 293.04 172.678 292.74 172.858 292.36C173.048 291.98 173.143 291.54 173.143 291.04C173.143 290.55 173.048 290.115 172.858 289.735C172.678 289.345 172.423 289.045 172.093 288.835C171.763 288.615 171.383 288.505 170.953 288.505C170.523 288.505 170.143 288.615 169.813 288.835C169.483 289.045 169.223 289.345 169.033 289.735C168.853 290.115 168.763 290.55 168.763 291.04C168.763 291.54 168.853 291.98 169.033 292.36C169.223 292.74 169.483 293.04 169.813 293.26C170.143 293.48 170.523 293.59 170.953 293.59ZM180.727 295.15C179.897 295.15 179.162 294.975 178.522 294.625C177.892 294.275 177.397 293.8 177.037 293.2C176.687 292.59 176.512 291.895 176.512 291.115C176.512 290.495 176.612 289.93 176.812 289.42C177.012 288.91 177.287 288.47 177.637 288.1C177.997 287.72 178.422 287.43 178.912 287.23C179.412 287.02 179.957 286.915 180.547 286.915C181.067 286.915 181.552 287.015 182.002 287.215C182.452 287.415 182.842 287.69 183.172 288.04C183.502 288.38 183.752 288.79 183.922 289.27C184.102 289.74 184.187 290.255 184.177 290.815L184.162 291.46H177.757L177.412 290.2H182.617L182.377 290.455V290.125C182.347 289.815 182.247 289.545 182.077 289.315C181.907 289.075 181.687 288.89 181.417 288.76C181.157 288.62 180.867 288.55 180.547 288.55C180.057 288.55 179.642 288.645 179.302 288.835C178.972 289.025 178.722 289.3 178.552 289.66C178.382 290.01 178.297 290.45 178.297 290.98C178.297 291.49 178.402 291.935 178.612 292.315C178.832 292.695 179.137 292.99 179.527 293.2C179.927 293.4 180.392 293.5 180.922 293.5C181.292 293.5 181.632 293.44 181.942 293.32C182.252 293.2 182.587 292.985 182.947 292.675L183.862 293.95C183.592 294.2 183.282 294.415 182.932 294.595C182.592 294.765 182.232 294.9 181.852 295C181.472 295.1 181.097 295.15 180.727 295.15ZM185.811 295V287.095H187.626L187.656 289.615L187.401 289.045C187.511 288.645 187.701 288.285 187.971 287.965C188.241 287.645 188.551 287.395 188.901 287.215C189.261 287.025 189.636 286.93 190.026 286.93C190.196 286.93 190.356 286.945 190.506 286.975C190.666 287.005 190.796 287.04 190.896 287.08L190.401 289.105C190.291 289.045 190.156 288.995 189.996 288.955C189.836 288.915 189.676 288.895 189.516 288.895C189.266 288.895 189.026 288.945 188.796 289.045C188.576 289.135 188.381 289.265 188.211 289.435C188.041 289.605 187.906 289.805 187.806 290.035C187.716 290.255 187.671 290.505 187.671 290.785V295H185.811ZM194.765 295.15C194.065 295.15 193.435 295.035 192.875 294.805C192.325 294.565 191.875 294.225 191.525 293.785L192.725 292.75C193.025 293.09 193.36 293.335 193.73 293.485C194.1 293.635 194.49 293.71 194.9 293.71C195.07 293.71 195.22 293.69 195.35 293.65C195.49 293.61 195.61 293.55 195.71 293.47C195.81 293.39 195.885 293.3 195.935 293.2C195.995 293.09 196.025 292.97 196.025 292.84C196.025 292.6 195.935 292.41 195.755 292.27C195.655 292.2 195.495 292.125 195.275 292.045C195.065 291.965 194.79 291.885 194.45 291.805C193.91 291.665 193.46 291.505 193.1 291.325C192.74 291.135 192.46 290.925 192.26 290.695C192.09 290.505 191.96 290.29 191.87 290.05C191.79 289.81 191.75 289.55 191.75 289.27C191.75 288.92 191.825 288.605 191.975 288.325C192.135 288.035 192.35 287.785 192.62 287.575C192.89 287.365 193.205 287.205 193.565 287.095C193.925 286.985 194.3 286.93 194.69 286.93C195.09 286.93 195.475 286.98 195.845 287.08C196.225 287.18 196.575 287.325 196.895 287.515C197.225 287.695 197.505 287.915 197.735 288.175L196.715 289.3C196.525 289.12 196.315 288.96 196.085 288.82C195.865 288.68 195.64 288.57 195.41 288.49C195.18 288.4 194.965 288.355 194.765 288.355C194.575 288.355 194.405 288.375 194.255 288.415C194.105 288.445 193.98 288.495 193.88 288.565C193.78 288.635 193.7 288.725 193.64 288.835C193.59 288.935 193.565 289.055 193.565 289.195C193.575 289.315 193.605 289.43 193.655 289.54C193.715 289.64 193.795 289.725 193.895 289.795C194.005 289.865 194.17 289.945 194.39 290.035C194.61 290.125 194.895 290.21 195.245 290.29C195.735 290.42 196.145 290.565 196.475 290.725C196.805 290.885 197.065 291.07 197.255 291.28C197.445 291.46 197.58 291.67 197.66 291.91C197.74 292.15 197.78 292.415 197.78 292.705C197.78 293.175 197.645 293.595 197.375 293.965C197.115 294.335 196.755 294.625 196.295 294.835C195.845 295.045 195.335 295.15 194.765 295.15Z" fill="#3833E3"/>
<path d="M96.86 313V309.51L96.93 310L94.1 306H95.4L97.56 309.1L97.31 309.07L99.26 306H100.5L97.79 310.11L97.94 309.43V313H96.86ZM102.971 313.1C102.431 313.1 101.951 312.987 101.531 312.76C101.117 312.527 100.791 312.21 100.551 311.81C100.317 311.41 100.201 310.95 100.201 310.43C100.201 310.017 100.267 309.64 100.401 309.3C100.534 308.96 100.717 308.667 100.951 308.42C101.191 308.167 101.474 307.973 101.801 307.84C102.134 307.7 102.494 307.63 102.881 307.63C103.221 307.63 103.537 307.697 103.831 307.83C104.124 307.957 104.377 308.133 104.591 308.36C104.811 308.587 104.977 308.857 105.091 309.17C105.211 309.477 105.267 309.813 105.261 310.18L105.251 310.62H100.961L100.731 309.8H104.361L104.211 309.97V309.73C104.191 309.51 104.117 309.313 103.991 309.14C103.864 308.967 103.704 308.83 103.511 308.73C103.317 308.63 103.107 308.58 102.881 308.58C102.521 308.58 102.217 308.65 101.971 308.79C101.724 308.923 101.537 309.123 101.411 309.39C101.284 309.65 101.221 309.973 101.221 310.36C101.221 310.727 101.297 311.047 101.451 311.32C101.604 311.587 101.821 311.793 102.101 311.94C102.381 312.087 102.704 312.16 103.071 312.16C103.331 312.16 103.571 312.117 103.791 312.03C104.017 311.943 104.261 311.787 104.521 311.56L105.041 312.29C104.881 312.45 104.684 312.59 104.451 312.71C104.224 312.83 103.981 312.927 103.721 313C103.467 313.067 103.217 313.1 102.971 313.1ZM108.4 313.1C107.967 313.1 107.57 312.98 107.21 312.74C106.857 312.5 106.573 312.173 106.36 311.76C106.147 311.347 106.04 310.88 106.04 310.36C106.04 309.833 106.147 309.367 106.36 308.96C106.58 308.547 106.873 308.223 107.24 307.99C107.613 307.757 108.03 307.64 108.49 307.64C108.763 307.64 109.013 307.68 109.24 307.76C109.467 307.84 109.663 307.953 109.83 308.1C110.003 308.24 110.143 308.403 110.25 308.59C110.363 308.777 110.433 308.977 110.46 309.19L110.23 309.11V307.75H111.27V313H110.23V311.75L110.47 311.68C110.43 311.86 110.347 312.037 110.22 312.21C110.1 312.377 109.943 312.527 109.75 312.66C109.563 312.793 109.353 312.9 109.12 312.98C108.893 313.06 108.653 313.1 108.4 313.1ZM108.67 312.15C108.983 312.15 109.26 312.073 109.5 311.92C109.74 311.767 109.927 311.557 110.06 311.29C110.2 311.017 110.27 310.707 110.27 310.36C110.27 310.02 110.2 309.717 110.06 309.45C109.927 309.183 109.74 308.973 109.5 308.82C109.26 308.667 108.983 308.59 108.67 308.59C108.363 308.59 108.09 308.667 107.85 308.82C107.617 308.973 107.43 309.183 107.29 309.45C107.157 309.717 107.09 310.02 107.09 310.36C107.09 310.707 107.157 311.017 107.29 311.29C107.43 311.557 107.617 311.767 107.85 311.92C108.09 312.073 108.363 312.15 108.67 312.15ZM112.708 313V307.75H113.748V309.4L113.648 309C113.722 308.747 113.845 308.517 114.018 308.31C114.198 308.103 114.402 307.94 114.628 307.82C114.862 307.7 115.102 307.64 115.348 307.64C115.462 307.64 115.568 307.65 115.668 307.67C115.775 307.69 115.858 307.713 115.918 307.74L115.648 308.86C115.568 308.827 115.478 308.8 115.378 308.78C115.285 308.753 115.192 308.74 115.098 308.74C114.918 308.74 114.745 308.777 114.578 308.85C114.418 308.917 114.275 309.013 114.148 309.14C114.028 309.26 113.932 309.403 113.858 309.57C113.785 309.73 113.748 309.907 113.748 310.1V313H112.708ZM120.194 313V306.41H121.224V313H120.194ZM119.104 308.75V307.75H122.444V308.75H119.104ZM125.693 313.1C125.18 313.1 124.72 312.983 124.313 312.75C123.913 312.51 123.597 312.187 123.363 311.78C123.13 311.367 123.013 310.897 123.013 310.37C123.013 309.843 123.13 309.377 123.363 308.97C123.597 308.557 123.913 308.233 124.313 308C124.72 307.76 125.18 307.64 125.693 307.64C126.2 307.64 126.653 307.76 127.053 308C127.46 308.233 127.78 308.557 128.013 308.97C128.247 309.377 128.363 309.843 128.363 310.37C128.363 310.897 128.247 311.367 128.013 311.78C127.78 312.187 127.46 312.51 127.053 312.75C126.653 312.983 126.2 313.1 125.693 313.1ZM125.693 312.16C126.007 312.16 126.287 312.083 126.533 311.93C126.78 311.77 126.973 311.557 127.113 311.29C127.253 311.017 127.32 310.71 127.313 310.37C127.32 310.023 127.253 309.717 127.113 309.45C126.973 309.177 126.78 308.963 126.533 308.81C126.287 308.657 126.007 308.58 125.693 308.58C125.38 308.58 125.097 308.66 124.843 308.82C124.597 308.973 124.403 309.187 124.263 309.46C124.123 309.727 124.057 310.03 124.063 310.37C124.057 310.71 124.123 311.017 124.263 311.29C124.403 311.557 124.597 311.77 124.843 311.93C125.097 312.083 125.38 312.16 125.693 312.16ZM134.478 313.1C133.998 313.1 133.568 312.983 133.188 312.75C132.815 312.51 132.518 312.187 132.298 311.78C132.078 311.367 131.968 310.897 131.968 310.37C131.968 309.843 132.075 309.377 132.288 308.97C132.508 308.557 132.805 308.233 133.178 308C133.552 307.76 133.975 307.64 134.448 307.64C134.708 307.64 134.958 307.683 135.198 307.77C135.445 307.85 135.665 307.963 135.858 308.11C136.052 308.25 136.202 308.407 136.308 308.58C136.422 308.747 136.478 308.917 136.478 309.09L136.178 309.11V305.6H137.208V313H136.178V311.75H136.378C136.378 311.91 136.325 312.07 136.218 312.23C136.112 312.383 135.968 312.527 135.788 312.66C135.615 312.793 135.412 312.9 135.178 312.98C134.952 313.06 134.718 313.1 134.478 313.1ZM134.618 312.21C134.932 312.21 135.208 312.13 135.448 311.97C135.688 311.81 135.875 311.593 136.008 311.32C136.148 311.04 136.218 310.723 136.218 310.37C136.218 310.017 136.148 309.703 136.008 309.43C135.875 309.15 135.688 308.93 135.448 308.77C135.208 308.61 134.932 308.53 134.618 308.53C134.305 308.53 134.028 308.61 133.788 308.77C133.548 308.93 133.358 309.15 133.218 309.43C133.085 309.703 133.018 310.017 133.018 310.37C133.018 310.723 133.085 311.04 133.218 311.32C133.358 311.593 133.548 311.81 133.788 311.97C134.028 312.13 134.305 312.21 134.618 312.21ZM140.646 313.1C140.213 313.1 139.816 312.98 139.456 312.74C139.103 312.5 138.82 312.173 138.606 311.76C138.393 311.347 138.286 310.88 138.286 310.36C138.286 309.833 138.393 309.367 138.606 308.96C138.826 308.547 139.12 308.223 139.486 307.99C139.86 307.757 140.276 307.64 140.736 307.64C141.01 307.64 141.26 307.68 141.486 307.76C141.713 307.84 141.91 307.953 142.076 308.1C142.25 308.24 142.39 308.403 142.496 308.59C142.61 308.777 142.68 308.977 142.706 309.19L142.476 309.11V307.75H143.516V313H142.476V311.75L142.716 311.68C142.676 311.86 142.593 312.037 142.466 312.21C142.346 312.377 142.19 312.527 141.996 312.66C141.81 312.793 141.6 312.9 141.366 312.98C141.14 313.06 140.9 313.1 140.646 313.1ZM140.916 312.15C141.23 312.15 141.506 312.073 141.746 311.92C141.986 311.767 142.173 311.557 142.306 311.29C142.446 311.017 142.516 310.707 142.516 310.36C142.516 310.02 142.446 309.717 142.306 309.45C142.173 309.183 141.986 308.973 141.746 308.82C141.506 308.667 141.23 308.59 140.916 308.59C140.61 308.59 140.336 308.667 140.096 308.82C139.863 308.973 139.676 309.183 139.536 309.45C139.403 309.717 139.336 310.02 139.336 310.36C139.336 310.707 139.403 311.017 139.536 311.29C139.676 311.557 139.863 311.767 140.096 311.92C140.336 312.073 140.61 312.15 140.916 312.15ZM145.604 313V306.41H146.634V313H145.604ZM144.514 308.75V307.75H147.854V308.75H144.514ZM151.193 313.1C150.653 313.1 150.173 312.987 149.753 312.76C149.34 312.527 149.013 312.21 148.773 311.81C148.54 311.41 148.423 310.95 148.423 310.43C148.423 310.017 148.49 309.64 148.623 309.3C148.757 308.96 148.94 308.667 149.173 308.42C149.413 308.167 149.697 307.973 150.023 307.84C150.357 307.7 150.717 307.63 151.103 307.63C151.443 307.63 151.76 307.697 152.053 307.83C152.347 307.957 152.6 308.133 152.813 308.36C153.033 308.587 153.2 308.857 153.313 309.17C153.433 309.477 153.49 309.813 153.483 310.18L153.473 310.62H149.183L148.953 309.8H152.583L152.433 309.97V309.73C152.413 309.51 152.34 309.313 152.213 309.14C152.087 308.967 151.927 308.83 151.733 308.73C151.54 308.63 151.33 308.58 151.103 308.58C150.743 308.58 150.44 308.65 150.193 308.79C149.947 308.923 149.76 309.123 149.633 309.39C149.507 309.65 149.443 309.973 149.443 310.36C149.443 310.727 149.52 311.047 149.673 311.32C149.827 311.587 150.043 311.793 150.323 311.94C150.603 312.087 150.927 312.16 151.293 312.16C151.553 312.16 151.793 312.117 152.013 312.03C152.24 311.943 152.483 311.787 152.743 311.56L153.263 312.29C153.103 312.45 152.907 312.59 152.673 312.71C152.447 312.83 152.203 312.927 151.943 313C151.69 313.067 151.44 313.1 151.193 313.1Z" fill="#3B3B3B"/>
<path d="M202.91 162.1C202.417 162.1 201.96 162.01 201.54 161.83C201.127 161.65 200.763 161.4 200.45 161.08C200.143 160.753 199.903 160.373 199.73 159.94C199.563 159.5 199.48 159.02 199.48 158.5C199.48 157.98 199.563 157.503 199.73 157.07C199.903 156.63 200.143 156.25 200.45 155.93C200.763 155.603 201.127 155.35 201.54 155.17C201.96 154.99 202.417 154.9 202.91 154.9C203.403 154.9 203.857 154.99 204.27 155.17C204.69 155.35 205.053 155.603 205.36 155.93C205.673 156.257 205.913 156.64 206.08 157.08C206.253 157.513 206.34 157.987 206.34 158.5C206.34 159.013 206.253 159.49 206.08 159.93C205.913 160.363 205.673 160.743 205.36 161.07C205.053 161.397 204.69 161.65 204.27 161.83C203.857 162.01 203.403 162.1 202.91 162.1ZM202.91 161.05C203.25 161.05 203.56 160.987 203.84 160.86C204.127 160.733 204.373 160.557 204.58 160.33C204.787 160.097 204.947 159.827 205.06 159.52C205.18 159.207 205.24 158.867 205.24 158.5C205.24 158.133 205.18 157.797 205.06 157.49C204.947 157.177 204.787 156.907 204.58 156.68C204.373 156.447 204.127 156.267 203.84 156.14C203.56 156.013 203.25 155.95 202.91 155.95C202.57 155.95 202.257 156.013 201.97 156.14C201.69 156.267 201.443 156.443 201.23 156.67C201.023 156.897 200.863 157.167 200.75 157.48C200.637 157.787 200.58 158.127 200.58 158.5C200.58 158.867 200.637 159.207 200.75 159.52C200.863 159.833 201.023 160.103 201.23 160.33C201.443 160.557 201.69 160.733 201.97 160.86C202.257 160.987 202.57 161.05 202.91 161.05ZM207.542 164.2V156.75H208.582V157.95L208.422 157.86C208.462 157.66 208.576 157.47 208.762 157.29C208.949 157.103 209.176 156.953 209.442 156.84C209.716 156.72 209.996 156.66 210.282 156.66C210.756 156.66 211.176 156.777 211.542 157.01C211.909 157.243 212.199 157.563 212.412 157.97C212.626 158.377 212.732 158.843 212.732 159.37C212.732 159.89 212.626 160.357 212.412 160.77C212.206 161.177 211.919 161.5 211.552 161.74C211.186 161.973 210.772 162.09 210.312 162.09C210.006 162.09 209.709 162.03 209.422 161.91C209.136 161.783 208.892 161.623 208.692 161.43C208.492 161.237 208.369 161.037 208.322 160.83L208.582 160.69V164.2H207.542ZM210.142 161.14C210.449 161.14 210.722 161.063 210.962 160.91C211.202 160.757 211.392 160.547 211.532 160.28C211.672 160.013 211.742 159.71 211.742 159.37C211.742 159.03 211.672 158.73 211.532 158.47C211.399 158.203 211.212 157.993 210.972 157.84C210.732 157.687 210.456 157.61 210.142 157.61C209.829 157.61 209.552 157.687 209.312 157.84C209.072 157.987 208.882 158.193 208.742 158.46C208.602 158.727 208.532 159.03 208.532 159.37C208.532 159.71 208.602 160.013 208.742 160.28C208.882 160.547 209.072 160.757 209.312 160.91C209.552 161.063 209.829 161.14 210.142 161.14ZM216.301 162.1C215.761 162.1 215.281 161.987 214.861 161.76C214.448 161.527 214.121 161.21 213.881 160.81C213.648 160.41 213.531 159.95 213.531 159.43C213.531 159.017 213.598 158.64 213.731 158.3C213.864 157.96 214.048 157.667 214.281 157.42C214.521 157.167 214.804 156.973 215.131 156.84C215.464 156.7 215.824 156.63 216.211 156.63C216.551 156.63 216.868 156.697 217.161 156.83C217.454 156.957 217.708 157.133 217.921 157.36C218.141 157.587 218.308 157.857 218.421 158.17C218.541 158.477 218.598 158.813 218.591 159.18L218.581 159.62H214.291L214.061 158.8H217.691L217.541 158.97V158.73C217.521 158.51 217.448 158.313 217.321 158.14C217.194 157.967 217.034 157.83 216.841 157.73C216.648 157.63 216.438 157.58 216.211 157.58C215.851 157.58 215.548 157.65 215.301 157.79C215.054 157.923 214.868 158.123 214.741 158.39C214.614 158.65 214.551 158.973 214.551 159.36C214.551 159.727 214.628 160.047 214.781 160.32C214.934 160.587 215.151 160.793 215.431 160.94C215.711 161.087 216.034 161.16 216.401 161.16C216.661 161.16 216.901 161.117 217.121 161.03C217.348 160.943 217.591 160.787 217.851 160.56L218.371 161.29C218.211 161.45 218.014 161.59 217.781 161.71C217.554 161.83 217.311 161.927 217.051 162C216.798 162.067 216.548 162.1 216.301 162.1ZM219.71 162V156.75H220.74V157.83L220.56 157.95C220.627 157.717 220.757 157.503 220.95 157.31C221.144 157.11 221.374 156.95 221.64 156.83C221.907 156.703 222.18 156.64 222.46 156.64C222.86 156.64 223.194 156.72 223.46 156.88C223.727 157.033 223.927 157.27 224.06 157.59C224.194 157.91 224.26 158.313 224.26 158.8V162H223.23V158.87C223.23 158.57 223.19 158.323 223.11 158.13C223.03 157.93 222.907 157.787 222.74 157.7C222.574 157.607 222.367 157.567 222.12 157.58C221.92 157.58 221.737 157.613 221.57 157.68C221.404 157.74 221.257 157.827 221.13 157.94C221.01 158.053 220.914 158.187 220.84 158.34C220.774 158.487 220.74 158.647 220.74 158.82V162H220.23C220.144 162 220.057 162 219.97 162C219.884 162 219.797 162 219.71 162Z" fill="#0D0D0D"/>
<path d="M202.91 221.1C202.417 221.1 201.96 221.01 201.54 220.83C201.127 220.65 200.763 220.4 200.45 220.08C200.143 219.753 199.903 219.373 199.73 218.94C199.563 218.5 199.48 218.02 199.48 217.5C199.48 216.98 199.563 216.503 199.73 216.07C199.903 215.63 200.143 215.25 200.45 214.93C200.763 214.603 201.127 214.35 201.54 214.17C201.96 213.99 202.417 213.9 202.91 213.9C203.403 213.9 203.857 213.99 204.27 214.17C204.69 214.35 205.053 214.603 205.36 214.93C205.673 215.257 205.913 215.64 206.08 216.08C206.253 216.513 206.34 216.987 206.34 217.5C206.34 218.013 206.253 218.49 206.08 218.93C205.913 219.363 205.673 219.743 205.36 220.07C205.053 220.397 204.69 220.65 204.27 220.83C203.857 221.01 203.403 221.1 202.91 221.1ZM202.91 220.05C203.25 220.05 203.56 219.987 203.84 219.86C204.127 219.733 204.373 219.557 204.58 219.33C204.787 219.097 204.947 218.827 205.06 218.52C205.18 218.207 205.24 217.867 205.24 217.5C205.24 217.133 205.18 216.797 205.06 216.49C204.947 216.177 204.787 215.907 204.58 215.68C204.373 215.447 204.127 215.267 203.84 215.14C203.56 215.013 203.25 214.95 202.91 214.95C202.57 214.95 202.257 215.013 201.97 215.14C201.69 215.267 201.443 215.443 201.23 215.67C201.023 215.897 200.863 216.167 200.75 216.48C200.637 216.787 200.58 217.127 200.58 217.5C200.58 217.867 200.637 218.207 200.75 218.52C200.863 218.833 201.023 219.103 201.23 219.33C201.443 219.557 201.69 219.733 201.97 219.86C202.257 219.987 202.57 220.05 202.91 220.05ZM207.542 221V215.75H208.572V216.83L208.392 216.95C208.459 216.717 208.589 216.503 208.782 216.31C208.976 216.11 209.206 215.95 209.472 215.83C209.739 215.703 210.012 215.64 210.292 215.64C210.692 215.64 211.026 215.72 211.292 215.88C211.559 216.033 211.759 216.27 211.892 216.59C212.026 216.91 212.092 217.313 212.092 217.8V221H211.062V217.87C211.062 217.57 211.022 217.323 210.942 217.13C210.862 216.93 210.739 216.787 210.572 216.7C210.406 216.607 210.199 216.567 209.952 216.58C209.752 216.58 209.569 216.613 209.402 216.68C209.236 216.74 209.089 216.827 208.962 216.94C208.842 217.053 208.746 217.187 208.672 217.34C208.606 217.487 208.572 217.647 208.572 217.82V221H208.062C207.976 221 207.889 221 207.802 221C207.716 221 207.629 221 207.542 221ZM221.122 221V214H222.202V221H221.122ZM216.552 221V214H217.632V221H216.552ZM217.022 218.03V216.99H221.602V218.03H217.022ZM226.26 221.1C225.746 221.1 225.286 220.983 224.88 220.75C224.48 220.51 224.163 220.187 223.93 219.78C223.696 219.367 223.58 218.897 223.58 218.37C223.58 217.843 223.696 217.377 223.93 216.97C224.163 216.557 224.48 216.233 224.88 216C225.286 215.76 225.746 215.64 226.26 215.64C226.766 215.64 227.22 215.76 227.62 216C228.026 216.233 228.346 216.557 228.58 216.97C228.813 217.377 228.93 217.843 228.93 218.37C228.93 218.897 228.813 219.367 228.58 219.78C228.346 220.187 228.026 220.51 227.62 220.75C227.22 220.983 226.766 221.1 226.26 221.1ZM226.26 220.16C226.573 220.16 226.853 220.083 227.1 219.93C227.346 219.77 227.54 219.557 227.68 219.29C227.82 219.017 227.886 218.71 227.88 218.37C227.886 218.023 227.82 217.717 227.68 217.45C227.54 217.177 227.346 216.963 227.1 216.81C226.853 216.657 226.573 216.58 226.26 216.58C225.946 216.58 225.663 216.66 225.41 216.82C225.163 216.973 224.97 217.187 224.83 217.46C224.69 217.727 224.623 218.03 224.63 218.37C224.623 218.71 224.69 219.017 224.83 219.29C224.97 219.557 225.163 219.77 225.41 219.93C225.663 220.083 225.946 220.16 226.26 220.16ZM230.072 221V213.6H231.102V221H230.072ZM234.654 221.1C234.174 221.1 233.744 220.983 233.364 220.75C232.991 220.51 232.694 220.187 232.474 219.78C232.254 219.367 232.144 218.897 232.144 218.37C232.144 217.843 232.251 217.377 232.464 216.97C232.684 216.557 232.981 216.233 233.354 216C233.727 215.76 234.151 215.64 234.624 215.64C234.884 215.64 235.134 215.683 235.374 215.77C235.621 215.85 235.841 215.963 236.034 216.11C236.227 216.25 236.377 216.407 236.484 216.58C236.597 216.747 236.654 216.917 236.654 217.09L236.354 217.11V213.6H237.384V221H236.354V219.75H236.554C236.554 219.91 236.501 220.07 236.394 220.23C236.287 220.383 236.144 220.527 235.964 220.66C235.791 220.793 235.587 220.9 235.354 220.98C235.127 221.06 234.894 221.1 234.654 221.1ZM234.794 220.21C235.107 220.21 235.384 220.13 235.624 219.97C235.864 219.81 236.051 219.593 236.184 219.32C236.324 219.04 236.394 218.723 236.394 218.37C236.394 218.017 236.324 217.703 236.184 217.43C236.051 217.15 235.864 216.93 235.624 216.77C235.384 216.61 235.107 216.53 234.794 216.53C234.481 216.53 234.204 216.61 233.964 216.77C233.724 216.93 233.534 217.15 233.394 217.43C233.261 217.703 233.194 218.017 233.194 218.37C233.194 218.723 233.261 219.04 233.394 219.32C233.534 219.593 233.724 219.81 233.964 219.97C234.204 220.13 234.481 220.21 234.794 220.21Z" fill="#0D0D0D"/>
<path d="M305.72 162V161H306.85V156H305.72V155H309.06V156H307.93V161H309.06V162H305.72ZM310.495 162V156.75H311.525V157.83L311.345 157.95C311.412 157.717 311.542 157.503 311.735 157.31C311.929 157.11 312.159 156.95 312.425 156.83C312.692 156.703 312.965 156.64 313.245 156.64C313.645 156.64 313.979 156.72 314.245 156.88C314.512 157.033 314.712 157.27 314.845 157.59C314.979 157.91 315.045 158.313 315.045 158.8V162H314.015V158.87C314.015 158.57 313.975 158.323 313.895 158.13C313.815 157.93 313.692 157.787 313.525 157.7C313.359 157.607 313.152 157.567 312.905 157.58C312.705 157.58 312.522 157.613 312.355 157.68C312.189 157.74 312.042 157.827 311.915 157.94C311.795 158.053 311.699 158.187 311.625 158.34C311.559 158.487 311.525 158.647 311.525 158.82V162H311.015C310.929 162 310.842 162 310.755 162C310.669 162 310.582 162 310.495 162ZM319.505 162V155H322.355C322.735 155 323.079 155.097 323.385 155.29C323.699 155.477 323.949 155.733 324.135 156.06C324.322 156.387 324.415 156.75 324.415 157.15C324.415 157.55 324.322 157.913 324.135 158.24C323.949 158.567 323.699 158.83 323.385 159.03C323.079 159.223 322.735 159.32 322.355 159.32H320.585V162H319.505ZM320.585 158.28H322.335C322.515 158.28 322.679 158.23 322.825 158.13C322.972 158.023 323.089 157.887 323.175 157.72C323.269 157.547 323.315 157.357 323.315 157.15C323.315 156.943 323.269 156.757 323.175 156.59C323.089 156.423 322.972 156.29 322.825 156.19C322.679 156.09 322.515 156.04 322.335 156.04H320.585V158.28ZM325.583 162V156.75H326.623V158.4L326.523 158C326.597 157.747 326.72 157.517 326.893 157.31C327.073 157.103 327.277 156.94 327.503 156.82C327.737 156.7 327.977 156.64 328.223 156.64C328.337 156.64 328.443 156.65 328.543 156.67C328.65 156.69 328.733 156.713 328.793 156.74L328.523 157.86C328.443 157.827 328.353 157.8 328.253 157.78C328.16 157.753 328.067 157.74 327.973 157.74C327.793 157.74 327.62 157.777 327.453 157.85C327.293 157.917 327.15 158.013 327.023 158.14C326.903 158.26 326.807 158.403 326.733 158.57C326.66 158.73 326.623 158.907 326.623 159.1V162H325.583ZM331.752 162.1C331.239 162.1 330.779 161.983 330.372 161.75C329.972 161.51 329.655 161.187 329.422 160.78C329.189 160.367 329.072 159.897 329.072 159.37C329.072 158.843 329.189 158.377 329.422 157.97C329.655 157.557 329.972 157.233 330.372 157C330.779 156.76 331.239 156.64 331.752 156.64C332.259 156.64 332.712 156.76 333.112 157C333.519 157.233 333.839 157.557 334.072 157.97C334.305 158.377 334.422 158.843 334.422 159.37C334.422 159.897 334.305 160.367 334.072 160.78C333.839 161.187 333.519 161.51 333.112 161.75C332.712 161.983 332.259 162.1 331.752 162.1ZM331.752 161.16C332.065 161.16 332.345 161.083 332.592 160.93C332.839 160.77 333.032 160.557 333.172 160.29C333.312 160.017 333.379 159.71 333.372 159.37C333.379 159.023 333.312 158.717 333.172 158.45C333.032 158.177 332.839 157.963 332.592 157.81C332.345 157.657 332.065 157.58 331.752 157.58C331.439 157.58 331.155 157.66 330.902 157.82C330.655 157.973 330.462 158.187 330.322 158.46C330.182 158.727 330.115 159.03 330.122 159.37C330.115 159.71 330.182 160.017 330.322 160.29C330.462 160.557 330.655 160.77 330.902 160.93C331.155 161.083 331.439 161.16 331.752 161.16ZM337.894 164.3C337.521 164.3 337.148 164.24 336.774 164.12C336.408 164.007 336.111 163.857 335.884 163.67L336.264 162.87C336.398 162.97 336.554 163.057 336.734 163.13C336.914 163.21 337.104 163.27 337.304 163.31C337.504 163.357 337.701 163.38 337.894 163.38C338.261 163.38 338.568 163.32 338.814 163.2C339.061 163.08 339.248 162.903 339.374 162.67C339.501 162.437 339.564 162.147 339.564 161.8V160.79L339.674 160.86C339.641 161.067 339.531 161.267 339.344 161.46C339.164 161.647 338.938 161.8 338.664 161.92C338.391 162.04 338.111 162.1 337.824 162.1C337.324 162.1 336.878 161.983 336.484 161.75C336.098 161.51 335.791 161.187 335.564 160.78C335.338 160.367 335.224 159.897 335.224 159.37C335.224 158.843 335.334 158.377 335.554 157.97C335.781 157.557 336.088 157.233 336.474 157C336.868 156.76 337.308 156.64 337.794 156.64C337.994 156.64 338.188 156.667 338.374 156.72C338.561 156.767 338.734 156.837 338.894 156.93C339.054 157.017 339.198 157.113 339.324 157.22C339.451 157.327 339.554 157.44 339.634 157.56C339.714 157.68 339.764 157.793 339.784 157.9L339.564 157.98V156.75H340.594V161.68C340.594 162.1 340.531 162.47 340.404 162.79C340.284 163.117 340.108 163.39 339.874 163.61C339.641 163.837 339.358 164.007 339.024 164.12C338.691 164.24 338.314 164.3 337.894 164.3ZM337.934 161.15C338.261 161.15 338.551 161.073 338.804 160.92C339.058 160.767 339.254 160.557 339.394 160.29C339.534 160.023 339.604 159.717 339.604 159.37C339.604 159.023 339.531 158.717 339.384 158.45C339.244 158.177 339.048 157.963 338.794 157.81C338.548 157.657 338.261 157.58 337.934 157.58C337.614 157.58 337.328 157.66 337.074 157.82C336.828 157.973 336.631 158.187 336.484 158.46C336.344 158.727 336.274 159.03 336.274 159.37C336.274 159.71 336.344 160.017 336.484 160.29C336.631 160.557 336.828 160.767 337.074 160.92C337.328 161.073 337.614 161.15 337.934 161.15ZM342.038 162V156.75H343.078V158.4L342.978 158C343.052 157.747 343.175 157.517 343.348 157.31C343.528 157.103 343.732 156.94 343.958 156.82C344.192 156.7 344.432 156.64 344.678 156.64C344.792 156.64 344.898 156.65 344.998 156.67C345.105 156.69 345.188 156.713 345.248 156.74L344.978 157.86C344.898 157.827 344.808 157.8 344.708 157.78C344.615 157.753 344.522 157.74 344.428 157.74C344.248 157.74 344.075 157.777 343.908 157.85C343.748 157.917 343.605 158.013 343.478 158.14C343.358 158.26 343.262 158.403 343.188 158.57C343.115 158.73 343.078 158.907 343.078 159.1V162H342.038ZM348.297 162.1C347.757 162.1 347.277 161.987 346.857 161.76C346.444 161.527 346.117 161.21 345.877 160.81C345.644 160.41 345.527 159.95 345.527 159.43C345.527 159.017 345.594 158.64 345.727 158.3C345.86 157.96 346.044 157.667 346.277 157.42C346.517 157.167 346.8 156.973 347.127 156.84C347.46 156.7 347.82 156.63 348.207 156.63C348.547 156.63 348.864 156.697 349.157 156.83C349.45 156.957 349.704 157.133 349.917 157.36C350.137 157.587 350.304 157.857 350.417 158.17C350.537 158.477 350.594 158.813 350.587 159.18L350.577 159.62H346.287L346.057 158.8H349.687L349.537 158.97V158.73C349.517 158.51 349.444 158.313 349.317 158.14C349.19 157.967 349.03 157.83 348.837 157.73C348.644 157.63 348.434 157.58 348.207 157.58C347.847 157.58 347.544 157.65 347.297 157.79C347.05 157.923 346.864 158.123 346.737 158.39C346.61 158.65 346.547 158.973 346.547 159.36C346.547 159.727 346.624 160.047 346.777 160.32C346.93 160.587 347.147 160.793 347.427 160.94C347.707 161.087 348.03 161.16 348.397 161.16C348.657 161.16 348.897 161.117 349.117 161.03C349.344 160.943 349.587 160.787 349.847 160.56L350.367 161.29C350.207 161.45 350.01 161.59 349.777 161.71C349.55 161.83 349.307 161.927 349.047 162C348.794 162.067 348.544 162.1 348.297 162.1ZM353.456 162.1C353.016 162.1 352.62 162.023 352.266 161.87C351.913 161.717 351.62 161.49 351.386 161.19L352.086 160.59C352.286 160.823 352.503 160.993 352.736 161.1C352.976 161.2 353.246 161.25 353.546 161.25C353.666 161.25 353.776 161.237 353.876 161.21C353.983 161.177 354.073 161.13 354.146 161.07C354.226 161.01 354.286 160.94 354.326 160.86C354.366 160.773 354.386 160.68 354.386 160.58C354.386 160.407 354.323 160.267 354.196 160.16C354.13 160.113 354.023 160.063 353.876 160.01C353.736 159.95 353.553 159.89 353.326 159.83C352.94 159.73 352.623 159.617 352.376 159.49C352.13 159.363 351.94 159.22 351.806 159.06C351.706 158.933 351.633 158.797 351.586 158.65C351.54 158.497 351.516 158.33 351.516 158.15C351.516 157.93 351.563 157.73 351.656 157.55C351.756 157.363 351.89 157.203 352.056 157.07C352.23 156.93 352.43 156.823 352.656 156.75C352.89 156.677 353.136 156.64 353.396 156.64C353.643 156.64 353.886 156.673 354.126 156.74C354.373 156.807 354.6 156.903 354.806 157.03C355.013 157.157 355.186 157.307 355.326 157.48L354.736 158.13C354.61 158.003 354.47 157.893 354.316 157.8C354.17 157.7 354.02 157.623 353.866 157.57C353.713 157.517 353.573 157.49 353.446 157.49C353.306 157.49 353.18 157.503 353.066 157.53C352.953 157.557 352.856 157.597 352.776 157.65C352.703 157.703 352.646 157.77 352.606 157.85C352.566 157.93 352.546 158.02 352.546 158.12C352.553 158.207 352.573 158.29 352.606 158.37C352.646 158.443 352.7 158.507 352.766 158.56C352.84 158.613 352.95 158.67 353.096 158.73C353.243 158.79 353.43 158.847 353.656 158.9C353.99 158.987 354.263 159.083 354.476 159.19C354.696 159.29 354.87 159.407 354.996 159.54C355.13 159.667 355.223 159.813 355.276 159.98C355.33 160.147 355.356 160.333 355.356 160.54C355.356 160.84 355.27 161.11 355.096 161.35C354.93 161.583 354.703 161.767 354.416 161.9C354.13 162.033 353.81 162.1 353.456 162.1ZM358.241 162.1C357.801 162.1 357.405 162.023 357.051 161.87C356.698 161.717 356.405 161.49 356.171 161.19L356.871 160.59C357.071 160.823 357.288 160.993 357.521 161.1C357.761 161.2 358.031 161.25 358.331 161.25C358.451 161.25 358.561 161.237 358.661 161.21C358.768 161.177 358.858 161.13 358.931 161.07C359.011 161.01 359.071 160.94 359.111 160.86C359.151 160.773 359.171 160.68 359.171 160.58C359.171 160.407 359.108 160.267 358.981 160.16C358.915 160.113 358.808 160.063 358.661 160.01C358.521 159.95 358.338 159.89 358.111 159.83C357.725 159.73 357.408 159.617 357.161 159.49C356.915 159.363 356.725 159.22 356.591 159.06C356.491 158.933 356.418 158.797 356.371 158.65C356.325 158.497 356.301 158.33 356.301 158.15C356.301 157.93 356.348 157.73 356.441 157.55C356.541 157.363 356.675 157.203 356.841 157.07C357.015 156.93 357.215 156.823 357.441 156.75C357.675 156.677 357.921 156.64 358.181 156.64C358.428 156.64 358.671 156.673 358.911 156.74C359.158 156.807 359.385 156.903 359.591 157.03C359.798 157.157 359.971 157.307 360.111 157.48L359.521 158.13C359.395 158.003 359.255 157.893 359.101 157.8C358.955 157.7 358.805 157.623 358.651 157.57C358.498 157.517 358.358 157.49 358.231 157.49C358.091 157.49 357.965 157.503 357.851 157.53C357.738 157.557 357.641 157.597 357.561 157.65C357.488 157.703 357.431 157.77 357.391 157.85C357.351 157.93 357.331 158.02 357.331 158.12C357.338 158.207 357.358 158.29 357.391 158.37C357.431 158.443 357.485 158.507 357.551 158.56C357.625 158.613 357.735 158.67 357.881 158.73C358.028 158.79 358.215 158.847 358.441 158.9C358.775 158.987 359.048 159.083 359.261 159.19C359.481 159.29 359.655 159.407 359.781 159.54C359.915 159.667 360.008 159.813 360.061 159.98C360.115 160.147 360.141 160.333 360.141 160.54C360.141 160.84 360.055 161.11 359.881 161.35C359.715 161.583 359.488 161.767 359.201 161.9C358.915 162.033 358.595 162.1 358.241 162.1Z" fill="#0D0D0D"/>
<path d="M305.98 221V214H308.96C309.36 214 309.727 214.1 310.06 214.3C310.4 214.493 310.67 214.76 310.87 215.1C311.07 215.433 311.17 215.81 311.17 216.23C311.17 216.61 311.07 216.963 310.87 217.29C310.67 217.617 310.403 217.88 310.07 218.08C309.737 218.273 309.367 218.37 308.96 218.37H307.06V221H305.98ZM310.14 221L308.36 217.84L309.47 217.59L311.45 221.01L310.14 221ZM307.06 217.33H309.06C309.253 217.33 309.427 217.283 309.58 217.19C309.733 217.09 309.853 216.957 309.94 216.79C310.027 216.617 310.07 216.427 310.07 216.22C310.07 215.987 310.013 215.783 309.9 215.61C309.793 215.43 309.64 215.29 309.44 215.19C309.247 215.09 309.027 215.04 308.78 215.04H307.06V217.33ZM314.928 221.1C314.388 221.1 313.908 220.987 313.488 220.76C313.074 220.527 312.748 220.21 312.508 219.81C312.274 219.41 312.158 218.95 312.158 218.43C312.158 218.017 312.224 217.64 312.358 217.3C312.491 216.96 312.674 216.667 312.908 216.42C313.148 216.167 313.431 215.973 313.758 215.84C314.091 215.7 314.451 215.63 314.838 215.63C315.178 215.63 315.494 215.697 315.788 215.83C316.081 215.957 316.334 216.133 316.548 216.36C316.768 216.587 316.934 216.857 317.048 217.17C317.168 217.477 317.224 217.813 317.218 218.18L317.208 218.62H312.918L312.688 217.8H316.318L316.168 217.97V217.73C316.148 217.51 316.074 217.313 315.948 217.14C315.821 216.967 315.661 216.83 315.468 216.73C315.274 216.63 315.064 216.58 314.838 216.58C314.478 216.58 314.174 216.65 313.928 216.79C313.681 216.923 313.494 217.123 313.368 217.39C313.241 217.65 313.178 217.973 313.178 218.36C313.178 218.727 313.254 219.047 313.408 219.32C313.561 219.587 313.778 219.793 314.058 219.94C314.338 220.087 314.661 220.16 315.028 220.16C315.288 220.16 315.528 220.117 315.748 220.03C315.974 219.943 316.218 219.787 316.478 219.56L316.998 220.29C316.838 220.45 316.641 220.59 316.408 220.71C316.181 220.83 315.938 220.927 315.678 221C315.424 221.067 315.174 221.1 314.928 221.1ZM317.707 222.97L317.317 222.18C317.577 222.18 317.791 222.133 317.957 222.04C318.131 221.953 318.261 221.82 318.347 221.64C318.434 221.467 318.477 221.25 318.477 220.99V215.75H319.507V221.24C319.507 221.58 319.431 221.88 319.277 222.14C319.131 222.4 318.921 222.603 318.647 222.75C318.381 222.897 318.067 222.97 317.707 222.97ZM319.017 214.59C318.797 214.59 318.627 214.533 318.507 214.42C318.387 214.307 318.327 214.147 318.327 213.94C318.327 213.747 318.387 213.59 318.507 213.47C318.634 213.35 318.804 213.29 319.017 213.29C319.237 213.29 319.407 213.347 319.527 213.46C319.647 213.573 319.707 213.733 319.707 213.94C319.707 214.133 319.644 214.29 319.517 214.41C319.397 214.53 319.231 214.59 319.017 214.59ZM323.434 221.1C322.894 221.1 322.414 220.987 321.994 220.76C321.58 220.527 321.254 220.21 321.014 219.81C320.78 219.41 320.664 218.95 320.664 218.43C320.664 218.017 320.73 217.64 320.864 217.3C320.997 216.96 321.18 216.667 321.414 216.42C321.654 216.167 321.937 215.973 322.264 215.84C322.597 215.7 322.957 215.63 323.344 215.63C323.684 215.63 324 215.697 324.294 215.83C324.587 215.957 324.84 216.133 325.054 216.36C325.274 216.587 325.44 216.857 325.554 217.17C325.674 217.477 325.73 217.813 325.724 218.18L325.714 218.62H321.424L321.194 217.8H324.824L324.674 217.97V217.73C324.654 217.51 324.58 217.313 324.454 217.14C324.327 216.967 324.167 216.83 323.974 216.73C323.78 216.63 323.57 216.58 323.344 216.58C322.984 216.58 322.68 216.65 322.434 216.79C322.187 216.923 322 217.123 321.874 217.39C321.747 217.65 321.684 217.973 321.684 218.36C321.684 218.727 321.76 219.047 321.914 219.32C322.067 219.587 322.284 219.793 322.564 219.94C322.844 220.087 323.167 220.16 323.534 220.16C323.794 220.16 324.034 220.117 324.254 220.03C324.48 219.943 324.724 219.787 324.984 219.56L325.504 220.29C325.344 220.45 325.147 220.59 324.914 220.71C324.687 220.83 324.444 220.927 324.184 221C323.93 221.067 323.68 221.1 323.434 221.1ZM329.073 221.1C328.586 221.1 328.15 220.98 327.763 220.74C327.383 220.5 327.08 220.173 326.853 219.76C326.633 219.347 326.523 218.883 326.523 218.37C326.523 217.857 326.633 217.393 326.853 216.98C327.08 216.567 327.383 216.24 327.763 216C328.15 215.76 328.586 215.64 329.073 215.64C329.54 215.64 329.963 215.737 330.343 215.93C330.73 216.117 331.023 216.373 331.223 216.7L330.653 217.4C330.546 217.247 330.41 217.107 330.243 216.98C330.076 216.853 329.9 216.753 329.713 216.68C329.526 216.607 329.346 216.57 329.173 216.57C328.853 216.57 328.566 216.65 328.313 216.81C328.066 216.963 327.87 217.177 327.723 217.45C327.576 217.723 327.503 218.03 327.503 218.37C327.503 218.71 327.58 219.017 327.733 219.29C327.886 219.557 328.09 219.77 328.343 219.93C328.596 220.09 328.876 220.17 329.183 220.17C329.363 220.17 329.536 220.14 329.703 220.08C329.876 220.02 330.043 219.93 330.203 219.81C330.363 219.69 330.513 219.543 330.653 219.37L331.223 220.07C331.01 220.37 330.703 220.617 330.303 220.81C329.91 221.003 329.5 221.1 329.073 221.1ZM332.845 221V214.41H333.875V221H332.845ZM331.755 216.75V215.75H335.095V216.75H331.755ZM338.434 221.1C337.894 221.1 337.414 220.987 336.994 220.76C336.58 220.527 336.254 220.21 336.014 219.81C335.78 219.41 335.664 218.95 335.664 218.43C335.664 218.017 335.73 217.64 335.864 217.3C335.997 216.96 336.18 216.667 336.414 216.42C336.654 216.167 336.937 215.973 337.264 215.84C337.597 215.7 337.957 215.63 338.344 215.63C338.684 215.63 339 215.697 339.294 215.83C339.587 215.957 339.84 216.133 340.054 216.36C340.274 216.587 340.44 216.857 340.554 217.17C340.674 217.477 340.73 217.813 340.724 218.18L340.714 218.62H336.424L336.194 217.8H339.824L339.674 217.97V217.73C339.654 217.51 339.58 217.313 339.454 217.14C339.327 216.967 339.167 216.83 338.974 216.73C338.78 216.63 338.57 216.58 338.344 216.58C337.984 216.58 337.68 216.65 337.434 216.79C337.187 216.923 337 217.123 336.874 217.39C336.747 217.65 336.684 217.973 336.684 218.36C336.684 218.727 336.76 219.047 336.914 219.32C337.067 219.587 337.284 219.793 337.564 219.94C337.844 220.087 338.167 220.16 338.534 220.16C338.794 220.16 339.034 220.117 339.254 220.03C339.48 219.943 339.724 219.787 339.984 219.56L340.504 220.29C340.344 220.45 340.147 220.59 339.914 220.71C339.687 220.83 339.444 220.927 339.184 221C338.93 221.067 338.68 221.1 338.434 221.1ZM344.033 221.1C343.553 221.1 343.123 220.983 342.743 220.75C342.37 220.51 342.073 220.187 341.853 219.78C341.633 219.367 341.523 218.897 341.523 218.37C341.523 217.843 341.63 217.377 341.843 216.97C342.063 216.557 342.36 216.233 342.733 216C343.106 215.76 343.53 215.64 344.003 215.64C344.263 215.64 344.513 215.683 344.753 215.77C345 215.85 345.22 215.963 345.413 216.11C345.606 216.25 345.756 216.407 345.863 216.58C345.976 216.747 346.033 216.917 346.033 217.09L345.733 217.11V213.6H346.763V221H345.733V219.75H345.933C345.933 219.91 345.88 220.07 345.773 220.23C345.666 220.383 345.523 220.527 345.343 220.66C345.17 220.793 344.966 220.9 344.733 220.98C344.506 221.06 344.273 221.1 344.033 221.1ZM344.173 220.21C344.486 220.21 344.763 220.13 345.003 219.97C345.243 219.81 345.43 219.593 345.563 219.32C345.703 219.04 345.773 218.723 345.773 218.37C345.773 218.017 345.703 217.703 345.563 217.43C345.43 217.15 345.243 216.93 345.003 216.77C344.763 216.61 344.486 216.53 344.173 216.53C343.86 216.53 343.583 216.61 343.343 216.77C343.103 216.93 342.913 217.15 342.773 217.43C342.64 217.703 342.573 218.017 342.573 218.37C342.573 218.723 342.64 219.04 342.773 219.32C342.913 219.593 343.103 219.81 343.343 219.97C343.583 220.13 343.86 220.21 344.173 220.21Z" fill="#0D0D0D"/>
<path d="M147.325 188L146.5 185.95L151.85 179.925C152.133 179.625 152.425 179.283 152.725 178.9C153.042 178.5 153.342 178.092 153.625 177.675C153.908 177.258 154.133 176.85 154.3 176.45C154.483 176.033 154.575 175.642 154.575 175.275C154.575 174.742 154.467 174.292 154.25 173.925C154.05 173.542 153.75 173.25 153.35 173.05C152.967 172.85 152.5 172.75 151.95 172.75C151.467 172.75 150.992 172.892 150.525 173.175C150.058 173.458 149.633 173.858 149.25 174.375C148.867 174.892 148.567 175.492 148.35 176.175L146.275 174.875C146.558 173.908 146.983 173.083 147.55 172.4C148.133 171.7 148.825 171.167 149.625 170.8C150.442 170.433 151.325 170.25 152.275 170.25C153.258 170.25 154.133 170.458 154.9 170.875C155.667 171.275 156.267 171.842 156.7 172.575C157.133 173.292 157.35 174.125 157.35 175.075C157.35 175.458 157.308 175.85 157.225 176.25C157.142 176.65 157.008 177.067 156.825 177.5C156.642 177.917 156.408 178.358 156.125 178.825C155.842 179.275 155.5 179.75 155.1 180.25C154.717 180.75 154.275 181.275 153.775 181.825L149.8 186.15L149.3 185.4H157.9V188H147.325ZM165.121 188.175C163.971 188.175 162.93 187.917 161.996 187.4C161.063 186.867 160.288 186.108 159.671 185.125L161.171 183.45C161.955 184.317 162.638 184.908 163.221 185.225C163.805 185.542 164.438 185.7 165.121 185.7C165.805 185.7 166.421 185.55 166.971 185.25C167.521 184.95 167.955 184.542 168.271 184.025C168.605 183.508 168.771 182.933 168.771 182.3C168.771 181.633 168.613 181.042 168.296 180.525C167.996 179.992 167.588 179.575 167.071 179.275C166.555 178.958 165.971 178.8 165.321 178.8C165.005 178.8 164.705 178.825 164.421 178.875C164.138 178.908 163.796 179 163.396 179.15C162.996 179.3 162.471 179.533 161.821 179.85L160.396 177.925L161.421 170.5H170.871V173H163.121L163.646 172.525L162.821 178.075L162.196 177.35C162.363 177.183 162.646 177.025 163.046 176.875C163.446 176.708 163.888 176.575 164.371 176.475C164.871 176.358 165.346 176.3 165.796 176.3C166.863 176.3 167.813 176.55 168.646 177.05C169.496 177.533 170.163 178.208 170.646 179.075C171.146 179.942 171.396 180.933 171.396 182.05C171.396 183.2 171.121 184.242 170.571 185.175C170.021 186.092 169.271 186.825 168.321 187.375C167.371 187.908 166.305 188.175 165.121 188.175Z" fill="white"/>
<path d="M152.157 247.25C150.824 247.25 149.674 246.883 148.707 246.15C147.757 245.417 147.024 244.383 146.507 243.05C145.99 241.7 145.732 240.1 145.732 238.25C145.732 236.4 145.99 234.808 146.507 233.475C147.024 232.125 147.757 231.083 148.707 230.35C149.674 229.617 150.824 229.25 152.157 229.25C153.49 229.25 154.64 229.617 155.607 230.35C156.574 231.083 157.315 232.125 157.832 233.475C158.349 234.808 158.607 236.4 158.607 238.25C158.607 240.1 158.349 241.7 157.832 243.05C157.315 244.383 156.574 245.417 155.607 246.15C154.64 246.883 153.49 247.25 152.157 247.25ZM152.157 244.8C153.374 244.8 154.315 244.233 154.982 243.1C155.649 241.95 155.982 240.333 155.982 238.25C155.982 236.167 155.649 234.558 154.982 233.425C154.315 232.275 153.374 231.7 152.157 231.7C150.94 231.7 149.999 232.275 149.332 233.425C148.665 234.558 148.332 236.167 148.332 238.25C148.332 240.333 148.665 241.95 149.332 243.1C149.999 244.233 150.94 244.8 152.157 244.8ZM166.043 247.25C164.809 247.25 163.734 246.967 162.818 246.4C161.918 245.833 161.068 244.883 160.268 243.55L162.368 242.225C162.784 242.842 163.193 243.35 163.593 243.75C164.009 244.133 164.434 244.417 164.868 244.6C165.301 244.783 165.759 244.875 166.243 244.875C166.826 244.875 167.368 244.733 167.868 244.45C168.368 244.15 168.768 243.742 169.068 243.225C169.368 242.708 169.518 242.125 169.518 241.475C169.518 240.825 169.401 240.275 169.168 239.825C168.934 239.358 168.593 239.008 168.143 238.775C167.693 238.525 167.159 238.4 166.543 238.4C166.259 238.4 165.959 238.433 165.643 238.5C165.343 238.55 165.018 238.633 164.668 238.75C164.318 238.85 163.934 238.983 163.518 239.15L162.768 237.175L168.168 231.225L168.693 232H161.243V229.5H171.268L171.768 230.5L166.043 236.85L165.418 236.2C165.551 236.133 165.768 236.075 166.068 236.025C166.384 235.958 166.643 235.925 166.843 235.925C167.576 235.925 168.259 236.067 168.893 236.35C169.543 236.617 170.101 237 170.568 237.5C171.051 237.983 171.426 238.558 171.693 239.225C171.976 239.875 172.118 240.575 172.118 241.325C172.118 242.458 171.843 243.475 171.293 244.375C170.759 245.258 170.034 245.958 169.118 246.475C168.201 246.992 167.176 247.25 166.043 247.25Z" fill="#0D0D0D"/>
<path d="M257.375 186.775V172.575L258.3 173.275L254.85 175.1L254.125 172.75L258.8 170.25H260.1V186.775H257.375ZM254.6 188V185.4H262.95V188H254.6ZM267.25 188L274.5 172.2L274.8 173H265.95V170.5H276.775L277.125 172.225L270.15 188H267.25Z" fill="#0D0D0D"/>
<path d="M257.575 247.25C256.242 247.25 255.092 246.883 254.125 246.15C253.175 245.417 252.442 244.383 251.925 243.05C251.408 241.7 251.15 240.1 251.15 238.25C251.15 236.4 251.408 234.808 251.925 233.475C252.442 232.125 253.175 231.083 254.125 230.35C255.092 229.617 256.242 229.25 257.575 229.25C258.908 229.25 260.058 229.617 261.025 230.35C261.992 231.083 262.733 232.125 263.25 233.475C263.767 234.808 264.025 236.4 264.025 238.25C264.025 240.1 263.767 241.7 263.25 243.05C262.733 244.383 261.992 245.417 261.025 246.15C260.058 246.883 258.908 247.25 257.575 247.25ZM257.575 244.8C258.792 244.8 259.733 244.233 260.4 243.1C261.067 241.95 261.4 240.333 261.4 238.25C261.4 236.167 261.067 234.558 260.4 233.425C259.733 232.275 258.792 231.7 257.575 231.7C256.358 231.7 255.417 232.275 254.75 233.425C254.083 234.558 253.75 236.167 253.75 238.25C253.75 240.333 254.083 241.95 254.75 243.1C255.417 244.233 256.358 244.8 257.575 244.8ZM271.461 247.25C270.227 247.25 269.152 246.967 268.236 246.4C267.336 245.833 266.486 244.883 265.686 243.55L267.786 242.225C268.202 242.842 268.611 243.35 269.011 243.75C269.427 244.133 269.852 244.417 270.286 244.6C270.719 244.783 271.177 244.875 271.661 244.875C272.244 244.875 272.786 244.733 273.286 244.45C273.786 244.15 274.186 243.742 274.486 243.225C274.786 242.708 274.936 242.125 274.936 241.475C274.936 240.825 274.819 240.275 274.586 239.825C274.352 239.358 274.011 239.008 273.561 238.775C273.111 238.525 272.577 238.4 271.961 238.4C271.677 238.4 271.377 238.433 271.061 238.5C270.761 238.55 270.436 238.633 270.086 238.75C269.736 238.85 269.352 238.983 268.936 239.15L268.186 237.175L273.586 231.225L274.111 232H266.661V229.5H276.686L277.186 230.5L271.461 236.85L270.836 236.2C270.969 236.133 271.186 236.075 271.486 236.025C271.802 235.958 272.061 235.925 272.261 235.925C272.994 235.925 273.677 236.067 274.311 236.35C274.961 236.617 275.519 237 275.986 237.5C276.469 237.983 276.844 238.558 277.111 239.225C277.394 239.875 277.536 240.575 277.536 241.325C277.536 242.458 277.261 243.475 276.711 244.375C276.177 245.258 275.452 245.958 274.536 246.475C273.619 246.992 272.594 247.25 271.461 247.25Z" fill="#0D0D0D"/>
<path d="M362.716 186.775V172.575L363.641 173.275L360.191 175.1L359.466 172.75L364.141 170.25H365.441V186.775H362.716ZM359.941 188V185.4H368.291V188H359.941ZM376.216 188.175C375.066 188.175 374.024 187.917 373.091 187.4C372.158 186.867 371.383 186.108 370.766 185.125L372.266 183.45C373.049 184.317 373.733 184.908 374.316 185.225C374.899 185.542 375.533 185.7 376.216 185.7C376.899 185.7 377.516 185.55 378.066 185.25C378.616 184.95 379.049 184.542 379.366 184.025C379.699 183.508 379.866 182.933 379.866 182.3C379.866 181.633 379.708 181.042 379.391 180.525C379.091 179.992 378.683 179.575 378.166 179.275C377.649 178.958 377.066 178.8 376.416 178.8C376.099 178.8 375.799 178.825 375.516 178.875C375.233 178.908 374.891 179 374.491 179.15C374.091 179.3 373.566 179.533 372.916 179.85L371.491 177.925L372.516 170.5H381.966V173H374.216L374.741 172.525L373.916 178.075L373.291 177.35C373.458 177.183 373.741 177.025 374.141 176.875C374.541 176.708 374.983 176.575 375.466 176.475C375.966 176.358 376.441 176.3 376.891 176.3C377.958 176.3 378.908 176.55 379.741 177.05C380.591 177.533 381.258 178.208 381.741 179.075C382.241 179.942 382.491 180.933 382.491 182.05C382.491 183.2 382.216 184.242 381.666 185.175C381.116 186.092 380.366 186.825 379.416 187.375C378.466 187.908 377.399 188.175 376.216 188.175Z" fill="#0D0D0D"/>
<path d="M376.389 247.25C375.056 247.25 373.906 246.883 372.939 246.15C371.989 245.417 371.256 244.383 370.739 243.05C370.223 241.7 369.964 240.1 369.964 238.25C369.964 236.4 370.223 234.808 370.739 233.475C371.256 232.125 371.989 231.083 372.939 230.35C373.906 229.617 375.056 229.25 376.389 229.25C377.723 229.25 378.873 229.617 379.839 230.35C380.806 231.083 381.548 232.125 382.064 233.475C382.581 234.808 382.839 236.4 382.839 238.25C382.839 240.1 382.581 241.7 382.064 243.05C381.548 244.383 380.806 245.417 379.839 246.15C378.873 246.883 377.723 247.25 376.389 247.25ZM376.389 244.8C377.606 244.8 378.548 244.233 379.214 243.1C379.881 241.95 380.214 240.333 380.214 238.25C380.214 236.167 379.881 234.558 379.214 233.425C378.548 232.275 377.606 231.7 376.389 231.7C375.173 231.7 374.231 232.275 373.564 233.425C372.898 234.558 372.564 236.167 372.564 238.25C372.564 240.333 372.898 241.95 373.564 243.1C374.231 244.233 375.173 244.8 376.389 244.8Z" fill="#0D0D0D"/>
<rect x="94" y="170" width="36" height="3" rx="1.5" fill="#E8EBEE"/>
<rect x="94" y="229" width="36" height="3" rx="1.5" fill="#E8EBEE"/>
<rect x="94" y="417" width="11" height="3" rx="1.5" fill="#E8EBEE"/>
<rect x="94" y="403" width="11" height="3" rx="1.5" fill="#E8EBEE"/>
<rect x="94" y="389" width="11" height="3" rx="1.5" fill="#E8EBEE"/>
<rect x="94" y="375" width="11" height="3" rx="1.5" fill="#E8EBEE"/>
<rect x="94" y="361" width="11" height="3" rx="1.5" fill="#E8EBEE"/>
<rect x="94" y="347" width="11" height="3" rx="1.5" fill="#E8EBEE"/>
<rect x="94" y="333" width="11" height="3" rx="1.5" fill="#E8EBEE"/>
<rect x="199" y="170" width="36" height="3" rx="1.5" fill="#E8EBEE"/>
<rect x="199" y="229" width="36" height="3" rx="1.5" fill="#E8EBEE"/>
<rect x="305" y="170" width="36" height="3" rx="1.5" fill="#E8EBEE"/>
<rect x="305" y="229" width="36" height="3" rx="1.5" fill="#E8EBEE"/>
<path d="M100.443 284.15C100.54 284.062 100.663 284.01 100.793 284.001C100.924 283.993 101.053 284.028 101.161 284.101C101.269 284.174 101.349 284.282 101.389 284.406C101.428 284.53 101.425 284.664 101.38 284.787L99.7838 289.249H102.348C102.478 289.246 102.606 289.282 102.715 289.354C102.823 289.426 102.907 289.529 102.955 289.65C103.003 289.771 103.013 289.903 102.983 290.03C102.953 290.157 102.885 290.271 102.788 290.358L96.5575 295.855C96.4604 295.94 96.3376 295.991 96.2084 295.999C96.0793 296.007 95.9511 295.972 95.844 295.899C95.737 295.826 95.6572 295.72 95.6171 295.597C95.577 295.474 95.579 295.341 95.6228 295.22L97.2196 290.749H94.6061C94.4833 290.749 94.3633 290.712 94.2622 290.643C94.161 290.573 94.0834 290.475 94.0397 290.36C93.9959 290.245 93.9882 290.12 94.0174 290.001C94.0466 289.881 94.1114 289.774 94.2032 289.692L100.443 284.15Z" fill="#3833E3"/>
</svg>
