<svg width="480" height="540" viewBox="0 0 480 540" fill="none" xmlns="http://www.w3.org/2000/svg">
<path d="M85 76H396C405.389 76 413 83.6112 413 93V447C413 456.389 405.389 464 396 464H85C75.6111 464 68 456.389 68 447V93C68 83.6112 75.6111 76 85 76Z" fill="#F1F5F7"/>
<path d="M84.911 121V106.3H91.421C92.331 106.3 93.157 106.51 93.899 106.93C94.641 107.336 95.222 107.889 95.642 108.589C96.076 109.289 96.293 110.087 96.293 110.983C96.293 111.865 96.076 112.67 95.642 113.398C95.222 114.112 94.641 114.679 93.899 115.099C93.157 115.519 92.331 115.729 91.421 115.729H87.956V121H84.911ZM93.248 121L89.51 114.364L92.744 113.839L96.902 121.021L93.248 121ZM87.956 113.167H91.274C91.652 113.167 91.981 113.083 92.261 112.915C92.555 112.733 92.779 112.488 92.933 112.18C93.087 111.858 93.164 111.501 93.164 111.109C93.164 110.689 93.073 110.325 92.891 110.017C92.709 109.709 92.443 109.471 92.093 109.303C91.743 109.121 91.337 109.03 90.875 109.03H87.956V113.167ZM104.056 121.21C102.852 121.21 101.795 120.965 100.885 120.475C99.9889 119.985 99.2889 119.313 98.7849 118.459C98.2949 117.605 98.0499 116.625 98.0499 115.519C98.0499 114.651 98.1899 113.86 98.4699 113.146C98.7499 112.432 99.1419 111.816 99.6459 111.298C100.15 110.766 100.745 110.36 101.431 110.08C102.131 109.786 102.887 109.639 103.699 109.639C104.455 109.639 105.155 109.779 105.799 110.059C106.443 110.339 106.996 110.731 107.458 111.235C107.934 111.725 108.298 112.313 108.55 112.999C108.802 113.671 108.914 114.399 108.886 115.183L108.865 116.107H99.9399L99.4569 114.28H106.408L106.072 114.658V114.196C106.044 113.818 105.918 113.482 105.694 113.188C105.484 112.88 105.211 112.642 104.875 112.474C104.539 112.292 104.161 112.201 103.741 112.201C103.125 112.201 102.6 112.32 102.166 112.558C101.746 112.796 101.424 113.146 101.2 113.608C100.976 114.07 100.864 114.63 100.864 115.288C100.864 115.96 101.004 116.541 101.284 117.031C101.578 117.521 101.984 117.906 102.502 118.186C103.034 118.452 103.657 118.585 104.371 118.585C104.861 118.585 105.309 118.508 105.715 118.354C106.121 118.2 106.555 117.934 107.017 117.556L108.445 119.551C108.039 119.915 107.591 120.223 107.101 120.475C106.611 120.713 106.107 120.895 105.589 121.021C105.071 121.147 104.56 121.21 104.056 121.21ZM118.755 125.62V118.333L119.364 118.438C119.336 118.788 119.203 119.131 118.965 119.467C118.741 119.789 118.44 120.083 118.062 120.349C117.698 120.615 117.292 120.825 116.844 120.979C116.396 121.133 115.927 121.21 115.437 121.21C114.457 121.21 113.582 120.965 112.812 120.475C112.056 119.971 111.454 119.285 111.006 118.417C110.572 117.549 110.355 116.555 110.355 115.435C110.355 114.315 110.572 113.321 111.006 112.453C111.44 111.585 112.035 110.906 112.791 110.416C113.547 109.912 114.401 109.66 115.353 109.66C115.899 109.66 116.41 109.744 116.886 109.912C117.376 110.066 117.81 110.276 118.188 110.542C118.566 110.808 118.874 111.109 119.112 111.445C119.35 111.781 119.483 112.131 119.511 112.495L118.776 112.6L118.881 109.87H121.737V125.62H118.755ZM116.046 118.627C116.606 118.627 117.096 118.494 117.516 118.228C117.936 117.962 118.258 117.591 118.482 117.115C118.72 116.639 118.839 116.079 118.839 115.435C118.839 114.791 118.72 114.231 118.482 113.755C118.258 113.265 117.936 112.887 117.516 112.621C117.096 112.355 116.606 112.222 116.046 112.222C115.486 112.222 114.996 112.362 114.576 112.642C114.156 112.908 113.827 113.286 113.589 113.776C113.365 114.252 113.253 114.805 113.253 115.435C113.253 116.065 113.365 116.625 113.589 117.115C113.827 117.591 114.156 117.962 114.576 118.228C114.996 118.494 115.486 118.627 116.046 118.627ZM128.549 121.21C127.737 121.21 127.037 121.035 126.449 120.685C125.875 120.321 125.427 119.81 125.105 119.152C124.797 118.48 124.643 117.675 124.643 116.737V109.891H127.625V116.254C127.625 116.758 127.709 117.199 127.877 117.577C128.045 117.941 128.283 118.221 128.591 118.417C128.899 118.613 129.277 118.711 129.725 118.711C130.047 118.711 130.341 118.662 130.607 118.564C130.887 118.452 131.125 118.298 131.321 118.102C131.531 117.906 131.692 117.675 131.804 117.409C131.916 117.143 131.972 116.856 131.972 116.548V109.891H134.954V121H132.119L132.014 118.711L132.56 118.459C132.392 118.977 132.112 119.446 131.72 119.866C131.328 120.286 130.859 120.615 130.313 120.853C129.767 121.091 129.179 121.21 128.549 121.21ZM143.226 121.21C142.022 121.21 140.965 120.965 140.055 120.475C139.159 119.985 138.459 119.313 137.955 118.459C137.465 117.605 137.22 116.625 137.22 115.519C137.22 114.651 137.36 113.86 137.64 113.146C137.92 112.432 138.312 111.816 138.816 111.298C139.32 110.766 139.915 110.36 140.601 110.08C141.301 109.786 142.057 109.639 142.869 109.639C143.625 109.639 144.325 109.779 144.969 110.059C145.613 110.339 146.166 110.731 146.628 111.235C147.104 111.725 147.468 112.313 147.72 112.999C147.972 113.671 148.084 114.399 148.056 115.183L148.035 116.107H139.11L138.627 114.28H145.578L145.242 114.658V114.196C145.214 113.818 145.088 113.482 144.864 113.188C144.654 112.88 144.381 112.642 144.045 112.474C143.709 112.292 143.331 112.201 142.911 112.201C142.295 112.201 141.77 112.32 141.336 112.558C140.916 112.796 140.594 113.146 140.37 113.608C140.146 114.07 140.034 114.63 140.034 115.288C140.034 115.96 140.174 116.541 140.454 117.031C140.748 117.521 141.154 117.906 141.672 118.186C142.204 118.452 142.827 118.585 143.541 118.585C144.031 118.585 144.479 118.508 144.885 118.354C145.291 118.2 145.725 117.934 146.187 117.556L147.615 119.551C147.209 119.915 146.761 120.223 146.271 120.475C145.781 120.713 145.277 120.895 144.759 121.021C144.241 121.147 143.73 121.21 143.226 121.21ZM153.998 121.21C152.962 121.21 152.038 121.042 151.226 120.706C150.428 120.356 149.784 119.88 149.294 119.278L151.163 117.682C151.583 118.144 152.059 118.48 152.591 118.69C153.123 118.886 153.655 118.984 154.187 118.984C154.397 118.984 154.586 118.963 154.754 118.921C154.936 118.865 155.09 118.795 155.216 118.711C155.342 118.613 155.433 118.501 155.489 118.375C155.559 118.235 155.594 118.088 155.594 117.934C155.594 117.626 155.468 117.388 155.216 117.22C155.076 117.136 154.859 117.045 154.565 116.947C154.271 116.835 153.893 116.716 153.431 116.59C152.717 116.408 152.108 116.198 151.604 115.96C151.114 115.708 150.722 115.428 150.428 115.12C150.176 114.826 149.98 114.511 149.84 114.175C149.714 113.825 149.651 113.44 149.651 113.02C149.651 112.516 149.763 112.061 149.987 111.655C150.211 111.235 150.519 110.878 150.911 110.584C151.317 110.29 151.779 110.066 152.297 109.912C152.815 109.744 153.361 109.66 153.935 109.66C154.509 109.66 155.069 109.73 155.615 109.87C156.161 110.01 156.665 110.213 157.127 110.479C157.603 110.731 158.016 111.032 158.366 111.382L156.77 113.146C156.518 112.908 156.231 112.691 155.909 112.495C155.601 112.299 155.279 112.145 154.943 112.033C154.607 111.921 154.306 111.865 154.04 111.865C153.802 111.865 153.585 111.886 153.389 111.928C153.207 111.97 153.053 112.04 152.927 112.138C152.801 112.222 152.703 112.327 152.633 112.453C152.577 112.579 152.549 112.719 152.549 112.873C152.549 113.027 152.584 113.174 152.654 113.314C152.738 113.454 152.85 113.573 152.99 113.671C153.144 113.755 153.368 113.853 153.662 113.965C153.97 114.077 154.383 114.203 154.901 114.343C155.573 114.525 156.14 114.728 156.602 114.952C157.078 115.176 157.456 115.435 157.736 115.729C157.974 115.981 158.149 116.268 158.261 116.59C158.373 116.912 158.429 117.269 158.429 117.661C158.429 118.347 158.233 118.956 157.841 119.488C157.463 120.02 156.938 120.44 156.266 120.748C155.594 121.056 154.838 121.21 153.998 121.21ZM161.625 121V107.077H164.607V121H161.625ZM159.546 112.558V109.891H166.896V112.558H159.546ZM176.12 121V109.114C176.12 108.428 176.274 107.805 176.582 107.245C176.89 106.685 177.31 106.244 177.842 105.922C178.388 105.6 179.025 105.439 179.753 105.439C180.243 105.439 180.705 105.523 181.139 105.691C181.573 105.845 181.944 106.055 182.252 106.321L181.37 108.526C181.188 108.414 180.999 108.323 180.803 108.253C180.621 108.169 180.453 108.127 180.299 108.127C180.033 108.127 179.809 108.176 179.627 108.274C179.459 108.358 179.333 108.491 179.249 108.673C179.165 108.841 179.123 109.058 179.123 109.324V121H177.632C177.31 121 177.023 121 176.771 121C176.519 121 176.302 121 176.12 121ZM174.461 112.684V110.164H181.517V112.684H174.461ZM188.259 121.21C187.125 121.21 186.11 120.965 185.214 120.475C184.332 119.971 183.632 119.285 183.114 118.417C182.61 117.549 182.358 116.555 182.358 115.435C182.358 114.315 182.61 113.321 183.114 112.453C183.632 111.585 184.332 110.906 185.214 110.416C186.11 109.912 187.125 109.66 188.259 109.66C189.379 109.66 190.38 109.912 191.262 110.416C192.158 110.906 192.858 111.585 193.362 112.453C193.866 113.321 194.118 114.315 194.118 115.435C194.118 116.555 193.866 117.549 193.362 118.417C192.858 119.285 192.158 119.971 191.262 120.475C190.38 120.965 189.379 121.21 188.259 121.21ZM188.259 118.606C188.805 118.606 189.295 118.473 189.729 118.207C190.163 117.927 190.499 117.549 190.737 117.073C190.989 116.583 191.108 116.037 191.094 115.435C191.108 114.819 190.989 114.273 190.737 113.797C190.499 113.307 190.163 112.929 189.729 112.663C189.295 112.383 188.805 112.243 188.259 112.243C187.699 112.243 187.202 112.383 186.768 112.663C186.334 112.943 185.991 113.321 185.739 113.797C185.487 114.273 185.368 114.819 185.382 115.435C185.368 116.037 185.487 116.583 185.739 117.073C185.991 117.549 186.334 117.927 186.768 118.207C187.202 118.473 187.699 118.606 188.259 118.606ZM196.382 121V109.891H199.259L199.364 113.461L198.86 112.726C199.028 112.152 199.301 111.634 199.679 111.172C200.057 110.696 200.498 110.325 201.002 110.059C201.52 109.793 202.059 109.66 202.619 109.66C202.857 109.66 203.088 109.681 203.312 109.723C203.536 109.765 203.725 109.814 203.879 109.87L203.081 113.146C202.927 113.062 202.724 112.992 202.472 112.936C202.234 112.866 201.989 112.831 201.737 112.831C201.401 112.831 201.086 112.894 200.792 113.02C200.512 113.132 200.267 113.3 200.057 113.524C199.847 113.734 199.679 113.986 199.553 114.28C199.441 114.574 199.385 114.896 199.385 115.246V121H196.382ZM210.685 121L216.46 106.3H219.274L225.007 121H221.773L218.812 113.083C218.728 112.859 218.623 112.572 218.497 112.222C218.385 111.872 218.266 111.501 218.14 111.109C218.014 110.717 217.895 110.346 217.783 109.996C217.671 109.632 217.587 109.331 217.531 109.093H218.098C218.014 109.401 217.916 109.73 217.804 110.08C217.706 110.416 217.601 110.766 217.489 111.13C217.377 111.48 217.258 111.823 217.132 112.159C217.006 112.495 216.887 112.824 216.775 113.146L213.814 121H210.685ZM213.373 117.913L214.402 115.393H221.143L222.193 117.913H213.373ZM226.651 125.62V109.891H229.528L229.612 112.39L229.066 112.201C229.164 111.753 229.402 111.34 229.78 110.962C230.172 110.584 230.655 110.276 231.229 110.038C231.803 109.8 232.405 109.681 233.035 109.681C234.001 109.681 234.862 109.933 235.618 110.437C236.374 110.927 236.969 111.606 237.403 112.474C237.837 113.328 238.054 114.315 238.054 115.435C238.054 116.541 237.837 117.528 237.403 118.396C236.969 119.264 236.374 119.95 235.618 120.454C234.862 120.944 234.001 121.189 233.035 121.189C232.391 121.189 231.775 121.07 231.187 120.832C230.613 120.58 230.123 120.251 229.717 119.845C229.325 119.439 229.073 119.005 228.961 118.543L229.654 118.249V125.62H226.651ZM232.363 118.627C232.909 118.627 233.392 118.494 233.812 118.228C234.232 117.962 234.561 117.591 234.799 117.115C235.037 116.625 235.156 116.065 235.156 115.435C235.156 114.805 235.037 114.252 234.799 113.776C234.561 113.3 234.232 112.929 233.812 112.663C233.406 112.397 232.923 112.264 232.363 112.264C231.803 112.264 231.313 112.397 230.893 112.663C230.473 112.915 230.144 113.286 229.906 113.776C229.668 114.252 229.549 114.805 229.549 115.435C229.549 116.065 229.668 116.625 229.906 117.115C230.144 117.591 230.473 117.962 230.893 118.228C231.313 118.494 231.803 118.627 232.363 118.627ZM240.309 125.62V109.891H243.186L243.27 112.39L242.724 112.201C242.822 111.753 243.06 111.34 243.438 110.962C243.83 110.584 244.313 110.276 244.887 110.038C245.461 109.8 246.063 109.681 246.693 109.681C247.659 109.681 248.52 109.933 249.276 110.437C250.032 110.927 250.627 111.606 251.061 112.474C251.495 113.328 251.712 114.315 251.712 115.435C251.712 116.541 251.495 117.528 251.061 118.396C250.627 119.264 250.032 119.95 249.276 120.454C248.52 120.944 247.659 121.189 246.693 121.189C246.049 121.189 245.433 121.07 244.845 120.832C244.271 120.58 243.781 120.251 243.375 119.845C242.983 119.439 242.731 119.005 242.619 118.543L243.312 118.249V125.62H240.309ZM246.021 118.627C246.567 118.627 247.05 118.494 247.47 118.228C247.89 117.962 248.219 117.591 248.457 117.115C248.695 116.625 248.814 116.065 248.814 115.435C248.814 114.805 248.695 114.252 248.457 113.776C248.219 113.3 247.89 112.929 247.47 112.663C247.064 112.397 246.581 112.264 246.021 112.264C245.461 112.264 244.971 112.397 244.551 112.663C244.131 112.915 243.802 113.286 243.564 113.776C243.326 114.252 243.207 114.805 243.207 115.435C243.207 116.065 243.326 116.625 243.564 117.115C243.802 117.591 244.131 117.962 244.551 118.228C244.971 118.494 245.461 118.627 246.021 118.627ZM253.968 121V109.891H256.845L256.95 113.461L256.446 112.726C256.614 112.152 256.887 111.634 257.265 111.172C257.643 110.696 258.084 110.325 258.588 110.059C259.106 109.793 259.645 109.66 260.205 109.66C260.443 109.66 260.674 109.681 260.898 109.723C261.122 109.765 261.311 109.814 261.465 109.87L260.667 113.146C260.513 113.062 260.31 112.992 260.058 112.936C259.82 112.866 259.575 112.831 259.323 112.831C258.987 112.831 258.672 112.894 258.378 113.02C258.098 113.132 257.853 113.3 257.643 113.524C257.433 113.734 257.265 113.986 257.139 114.28C257.027 114.574 256.971 114.896 256.971 115.246V121H253.968ZM267.87 121.21C266.736 121.21 265.721 120.965 264.825 120.475C263.943 119.971 263.243 119.285 262.725 118.417C262.221 117.549 261.969 116.555 261.969 115.435C261.969 114.315 262.221 113.321 262.725 112.453C263.243 111.585 263.943 110.906 264.825 110.416C265.721 109.912 266.736 109.66 267.87 109.66C268.99 109.66 269.991 109.912 270.873 110.416C271.769 110.906 272.469 111.585 272.973 112.453C273.477 113.321 273.729 114.315 273.729 115.435C273.729 116.555 273.477 117.549 272.973 118.417C272.469 119.285 271.769 119.971 270.873 120.475C269.991 120.965 268.99 121.21 267.87 121.21ZM267.87 118.606C268.416 118.606 268.906 118.473 269.34 118.207C269.774 117.927 270.11 117.549 270.348 117.073C270.6 116.583 270.719 116.037 270.705 115.435C270.719 114.819 270.6 114.273 270.348 113.797C270.11 113.307 269.774 112.929 269.34 112.663C268.906 112.383 268.416 112.243 267.87 112.243C267.31 112.243 266.813 112.383 266.379 112.663C265.945 112.943 265.602 113.321 265.35 113.797C265.098 114.273 264.979 114.819 264.993 115.435C264.979 116.037 265.098 116.583 265.35 117.073C265.602 117.549 265.945 117.927 266.379 118.207C266.813 118.473 267.31 118.606 267.87 118.606ZM279.171 121L274.509 109.891H277.785L280.746 118.186L280.053 118.312L283.161 109.891H286.353L281.46 121H279.171ZM292.025 121.21C291.101 121.21 290.268 120.958 289.526 120.454C288.784 119.95 288.196 119.264 287.762 118.396C287.328 117.528 287.111 116.534 287.111 115.414C287.111 114.294 287.328 113.3 287.762 112.432C288.21 111.564 288.812 110.885 289.568 110.395C290.324 109.905 291.185 109.66 292.151 109.66C292.697 109.66 293.194 109.744 293.642 109.912C294.104 110.066 294.503 110.283 294.839 110.563C295.189 110.843 295.483 111.165 295.721 111.529C295.959 111.893 296.127 112.285 296.225 112.705L295.595 112.6V109.891H298.556V121H295.553V118.333L296.225 118.27C296.113 118.662 295.931 119.033 295.679 119.383C295.427 119.733 295.112 120.048 294.734 120.328C294.37 120.594 293.957 120.811 293.495 120.979C293.033 121.133 292.543 121.21 292.025 121.21ZM292.844 118.627C293.404 118.627 293.894 118.494 294.314 118.228C294.734 117.962 295.056 117.591 295.28 117.115C295.518 116.625 295.637 116.058 295.637 115.414C295.637 114.784 295.518 114.231 295.28 113.755C295.056 113.279 294.734 112.908 294.314 112.642C293.894 112.362 293.404 112.222 292.844 112.222C292.298 112.222 291.815 112.362 291.395 112.642C290.989 112.908 290.667 113.279 290.429 113.755C290.191 114.231 290.072 114.784 290.072 115.414C290.072 116.058 290.191 116.625 290.429 117.115C290.667 117.591 290.989 117.962 291.395 118.228C291.815 118.494 292.298 118.627 292.844 118.627ZM301.567 121V105.46H304.549V121H301.567ZM311.313 121.21C310.277 121.21 309.353 121.042 308.541 120.706C307.743 120.356 307.099 119.88 306.609 119.278L308.478 117.682C308.898 118.144 309.374 118.48 309.906 118.69C310.438 118.886 310.97 118.984 311.502 118.984C311.712 118.984 311.901 118.963 312.069 118.921C312.251 118.865 312.405 118.795 312.531 118.711C312.657 118.613 312.748 118.501 312.804 118.375C312.874 118.235 312.909 118.088 312.909 117.934C312.909 117.626 312.783 117.388 312.531 117.22C312.391 117.136 312.174 117.045 311.88 116.947C311.586 116.835 311.208 116.716 310.746 116.59C310.032 116.408 309.423 116.198 308.919 115.96C308.429 115.708 308.037 115.428 307.743 115.12C307.491 114.826 307.295 114.511 307.155 114.175C307.029 113.825 306.966 113.44 306.966 113.02C306.966 112.516 307.078 112.061 307.302 111.655C307.526 111.235 307.834 110.878 308.226 110.584C308.632 110.29 309.094 110.066 309.612 109.912C310.13 109.744 310.676 109.66 311.25 109.66C311.824 109.66 312.384 109.73 312.93 109.87C313.476 110.01 313.98 110.213 314.442 110.479C314.918 110.731 315.331 111.032 315.681 111.382L314.085 113.146C313.833 112.908 313.546 112.691 313.224 112.495C312.916 112.299 312.594 112.145 312.258 112.033C311.922 111.921 311.621 111.865 311.355 111.865C311.117 111.865 310.9 111.886 310.704 111.928C310.522 111.97 310.368 112.04 310.242 112.138C310.116 112.222 310.018 112.327 309.948 112.453C309.892 112.579 309.864 112.719 309.864 112.873C309.864 113.027 309.899 113.174 309.969 113.314C310.053 113.454 310.165 113.573 310.305 113.671C310.459 113.755 310.683 113.853 310.977 113.965C311.285 114.077 311.698 114.203 312.216 114.343C312.888 114.525 313.455 114.728 313.917 114.952C314.393 115.176 314.771 115.435 315.051 115.729C315.289 115.981 315.464 116.268 315.576 116.59C315.688 116.912 315.744 117.269 315.744 117.661C315.744 118.347 315.548 118.956 315.156 119.488C314.778 120.02 314.253 120.44 313.581 120.748C312.909 121.056 312.153 121.21 311.313 121.21Z" fill="black"/>
<rect x="157.136" y="150.136" width="147.727" height="294.318" rx="11.3636" fill="#F1F5F7" stroke="black" stroke-width="2.27272"/>
<g clip-path="url(#clip0_599_3016)">
<path d="M292.324 156.264H285.661C285.405 156.265 285.161 156.367 284.98 156.547C284.8 156.728 284.698 156.972 284.697 157.228V159.796C284.698 160.052 284.8 160.296 284.98 160.477C285.161 160.657 285.405 160.759 285.661 160.76H292.324C292.579 160.759 292.824 160.657 293.004 160.477C293.185 160.296 293.286 160.052 293.287 159.796V157.228C293.286 156.972 293.185 156.728 293.004 156.547C292.824 156.367 292.579 156.265 292.324 156.264ZM292.725 159.796C292.725 159.903 292.683 160.005 292.608 160.081C292.532 160.156 292.43 160.199 292.324 160.199H285.661C285.554 160.199 285.452 160.156 285.377 160.081C285.302 160.006 285.26 159.904 285.259 159.798V157.228C285.26 157.121 285.302 157.019 285.377 156.944C285.452 156.869 285.554 156.827 285.661 156.826H292.324C292.43 156.827 292.532 156.869 292.607 156.944C292.682 157.019 292.725 157.121 292.725 157.228V159.796Z" fill="black"/>
<path d="M293.688 157.48V159.544C294.009 159.544 294.33 158.988 294.33 158.512C294.33 158.037 294.009 157.48 293.688 157.48Z" fill="black"/>
<path d="M292.083 157.228H285.901C285.837 157.228 285.776 157.253 285.731 157.298C285.686 157.344 285.66 157.405 285.66 157.468V159.556C285.66 159.62 285.686 159.681 285.731 159.726C285.776 159.771 285.837 159.796 285.901 159.796H292.083C292.147 159.796 292.208 159.771 292.253 159.726C292.298 159.681 292.323 159.62 292.324 159.556V157.468C292.323 157.405 292.298 157.344 292.253 157.298C292.208 157.253 292.147 157.228 292.083 157.228Z" fill="black"/>
<path d="M283.055 157.497C282.193 156.704 281.066 156.264 279.895 156.264C278.724 156.264 277.596 156.704 276.735 157.497C276.719 157.512 276.706 157.53 276.697 157.549C276.689 157.569 276.684 157.59 276.684 157.612C276.683 157.633 276.687 157.655 276.696 157.675C276.704 157.695 276.716 157.713 276.731 157.728L277.075 158.069C277.105 158.098 277.145 158.115 277.186 158.116C277.228 158.116 277.269 158.101 277.3 158.072C278.009 157.425 278.935 157.066 279.895 157.066C280.855 157.066 281.781 157.425 282.49 158.072C282.521 158.101 282.561 158.116 282.603 158.116C282.645 158.115 282.685 158.098 282.715 158.069L283.059 157.728C283.074 157.713 283.086 157.695 283.094 157.675C283.103 157.655 283.107 157.633 283.106 157.612C283.106 157.59 283.101 157.569 283.092 157.549C283.083 157.53 283.071 157.512 283.055 157.497ZM279.895 159.475C279.768 159.475 279.644 159.513 279.538 159.584C279.433 159.654 279.35 159.754 279.302 159.872C279.253 159.989 279.24 160.118 279.265 160.243C279.29 160.367 279.351 160.482 279.441 160.572C279.531 160.662 279.645 160.723 279.77 160.747C279.894 160.772 280.023 160.76 280.141 160.711C280.258 160.662 280.358 160.58 280.429 160.474C280.5 160.369 280.537 160.245 280.537 160.118C280.537 159.947 280.47 159.784 280.349 159.663C280.229 159.543 280.065 159.475 279.895 159.475ZM281.93 158.637C281.368 158.142 280.645 157.87 279.896 157.87C279.148 157.87 278.425 158.142 277.862 158.637C277.846 158.651 277.833 158.669 277.824 158.688C277.814 158.708 277.809 158.73 277.809 158.752C277.808 158.773 277.812 158.795 277.821 158.815C277.829 158.835 277.841 158.854 277.857 158.869L278.202 159.21C278.231 159.239 278.271 159.256 278.312 159.258C278.353 159.259 278.394 159.245 278.425 159.218C278.835 158.866 279.357 158.672 279.897 158.672C280.438 158.672 280.96 158.866 281.37 159.218C281.401 159.245 281.442 159.259 281.483 159.258C281.524 159.256 281.563 159.239 281.593 159.21L281.938 158.869C281.954 158.854 281.966 158.835 281.974 158.815C281.982 158.794 281.985 158.773 281.985 158.751C281.984 158.729 281.979 158.708 281.969 158.688C281.96 158.668 281.946 158.651 281.93 158.637Z" fill="black"/>
<path d="M271.583 158.793H271.161C271.124 158.793 271.088 158.808 271.062 158.834C271.035 158.861 271.02 158.896 271.02 158.934V160.619C271.02 160.637 271.024 160.655 271.031 160.673C271.038 160.69 271.049 160.705 271.062 160.718C271.075 160.731 271.09 160.742 271.107 160.749C271.124 160.756 271.143 160.759 271.161 160.759H271.583C271.601 160.759 271.619 160.756 271.636 160.749C271.653 160.742 271.669 160.731 271.682 160.718C271.695 160.705 271.705 160.69 271.712 160.673C271.719 160.655 271.723 160.637 271.723 160.619V158.935C271.723 158.917 271.72 158.898 271.713 158.881C271.706 158.864 271.696 158.848 271.683 158.835C271.669 158.822 271.654 158.811 271.637 158.804C271.62 158.797 271.601 158.793 271.583 158.793ZM270.459 159.635H270.037C270 159.635 269.964 159.649 269.938 159.676C269.911 159.702 269.896 159.738 269.896 159.775V160.62C269.896 160.658 269.911 160.693 269.938 160.72C269.964 160.746 270 160.761 270.037 160.761H270.459C270.477 160.761 270.496 160.757 270.513 160.75C270.53 160.743 270.545 160.733 270.559 160.72C270.572 160.707 270.582 160.691 270.589 160.674C270.596 160.657 270.6 160.639 270.6 160.62V159.776C270.6 159.758 270.597 159.739 270.59 159.722C270.583 159.705 270.572 159.689 270.559 159.676C270.546 159.663 270.53 159.652 270.513 159.645C270.496 159.638 270.477 159.635 270.459 159.635ZM272.707 157.95H272.285C272.248 157.95 272.212 157.964 272.186 157.991C272.16 158.017 272.145 158.053 272.145 158.09V160.62C272.145 160.658 272.16 160.693 272.186 160.72C272.212 160.746 272.248 160.761 272.285 160.761H272.707C272.744 160.761 272.78 160.746 272.806 160.72C272.833 160.693 272.847 160.658 272.847 160.62V158.091C272.847 158.072 272.844 158.054 272.837 158.037C272.83 158.019 272.819 158.004 272.806 157.991C272.793 157.978 272.778 157.967 272.76 157.96C272.743 157.953 272.725 157.949 272.707 157.95ZM273.831 157.107H273.409C273.372 157.107 273.336 157.121 273.31 157.148C273.283 157.174 273.268 157.21 273.268 157.247V160.62C273.268 160.658 273.283 160.693 273.31 160.72C273.336 160.746 273.372 160.761 273.409 160.761H273.831C273.868 160.761 273.903 160.746 273.929 160.719C273.956 160.693 273.97 160.658 273.97 160.62V157.248C273.97 157.211 273.956 157.175 273.929 157.149C273.903 157.122 273.867 157.107 273.83 157.107L273.831 157.107ZM274.954 156.264H274.533C274.495 156.264 274.46 156.279 274.433 156.306C274.407 156.332 274.392 156.368 274.392 156.405V160.62C274.392 160.658 274.407 160.693 274.433 160.72C274.46 160.746 274.495 160.761 274.533 160.761H274.954C274.991 160.761 275.027 160.746 275.054 160.72C275.08 160.693 275.095 160.658 275.095 160.62V156.405C275.095 156.368 275.08 156.332 275.054 156.306C275.027 156.279 274.991 156.264 274.954 156.264Z" fill="black"/>
<path d="M169.274 159.026H169.255C169.15 159.077 169.026 159.102 168.883 159.102C168.762 159.102 168.64 159.082 168.516 159.04C168.392 158.999 168.279 158.935 168.177 158.85C168.079 158.76 167.998 158.649 167.934 158.516C167.871 158.379 167.839 158.218 167.839 158.034C167.839 157.85 167.869 157.687 167.929 157.547C167.993 157.404 168.077 157.285 168.182 157.19C168.287 157.094 168.41 157.023 168.549 156.975C168.689 156.924 168.839 156.899 168.998 156.899C169.157 156.899 169.306 156.924 169.446 156.975C169.586 157.026 169.708 157.099 169.813 157.195C169.918 157.29 170.001 157.404 170.061 157.538C170.125 157.671 170.157 157.821 170.157 157.986C170.157 158.091 170.149 158.187 170.133 158.272C170.117 158.358 170.093 158.441 170.061 158.52C170.033 158.597 169.998 158.673 169.956 158.749C169.915 158.826 169.869 158.904 169.818 158.983L168.964 160.333H168.425L169.274 159.026ZM169.699 158.001C169.699 157.899 169.681 157.805 169.646 157.719C169.615 157.633 169.567 157.56 169.503 157.5C169.443 157.436 169.37 157.387 169.284 157.352C169.198 157.317 169.103 157.299 168.998 157.299C168.893 157.299 168.797 157.317 168.712 157.352C168.626 157.387 168.551 157.436 168.487 157.5C168.427 157.56 168.379 157.633 168.344 157.719C168.313 157.805 168.297 157.899 168.297 158.001C168.297 158.102 168.313 158.196 168.344 158.282C168.379 158.368 168.427 158.443 168.487 158.506C168.551 158.567 168.626 158.614 168.712 158.649C168.797 158.684 168.893 158.702 168.998 158.702C169.103 158.702 169.198 158.684 169.284 158.649C169.37 158.614 169.443 158.567 169.503 158.506C169.567 158.443 169.615 158.368 169.646 158.282C169.681 158.196 169.699 158.102 169.699 158.001ZM170.985 158.673C170.899 158.673 170.824 158.643 170.761 158.582C170.7 158.519 170.67 158.444 170.67 158.358C170.67 158.272 170.7 158.199 170.761 158.139C170.824 158.075 170.899 158.043 170.985 158.043C171.071 158.043 171.144 158.075 171.204 158.139C171.268 158.199 171.3 158.272 171.3 158.358C171.3 158.444 171.268 158.519 171.204 158.582C171.144 158.643 171.071 158.673 170.985 158.673ZM170.67 160.047C170.67 159.961 170.7 159.888 170.761 159.827C170.824 159.764 170.899 159.732 170.985 159.732C171.071 159.732 171.144 159.764 171.204 159.827C171.268 159.888 171.3 159.961 171.3 160.047C171.3 160.132 171.268 160.207 171.204 160.271C171.144 160.331 171.071 160.361 170.985 160.361C170.899 160.361 170.824 160.331 170.761 160.271C170.7 160.207 170.67 160.132 170.67 160.047ZM173.252 159.589H171.812V159.121L173.157 156.956H173.71V159.188H174.187V159.589H173.71V160.333H173.252V159.589ZM173.252 157.5H173.242L172.212 159.188H173.252V157.5ZM175.587 157.481L174.967 158.053L174.7 157.733L175.64 156.956H176.045V160.333H175.587V157.481Z" fill="black"/>
</g>
<path d="M202.577 188.271H198.963L198.365 190H196.454L199.717 180.913H201.836L205.099 190H203.175L202.577 188.271ZM202.083 186.815L200.77 183.019L199.457 186.815H202.083ZM208.139 183.838C208.373 183.509 208.694 183.236 209.101 183.019C209.517 182.794 209.989 182.681 210.518 182.681C211.133 182.681 211.688 182.833 212.182 183.136C212.685 183.439 213.079 183.873 213.365 184.436C213.66 184.991 213.807 185.636 213.807 186.373C213.807 187.11 213.66 187.764 213.365 188.336C213.079 188.899 212.685 189.337 212.182 189.649C211.688 189.961 211.133 190.117 210.518 190.117C209.989 190.117 209.521 190.009 209.114 189.792C208.715 189.575 208.39 189.302 208.139 188.973V193.432H206.319V182.798H208.139V183.838ZM211.948 186.373C211.948 185.94 211.857 185.567 211.675 185.255C211.502 184.934 211.268 184.692 210.973 184.527C210.687 184.362 210.375 184.28 210.037 184.28C209.708 184.28 209.396 184.367 209.101 184.54C208.815 184.705 208.581 184.947 208.399 185.268C208.226 185.589 208.139 185.966 208.139 186.399C208.139 186.832 208.226 187.209 208.399 187.53C208.581 187.851 208.815 188.098 209.101 188.271C209.396 188.436 209.708 188.518 210.037 188.518C210.375 188.518 210.687 188.431 210.973 188.258C211.268 188.085 211.502 187.838 211.675 187.517C211.857 187.196 211.948 186.815 211.948 186.373ZM216.949 183.838C217.183 183.509 217.504 183.236 217.911 183.019C218.327 182.794 218.8 182.681 219.328 182.681C219.944 182.681 220.498 182.833 220.992 183.136C221.495 183.439 221.889 183.873 222.175 184.436C222.47 184.991 222.617 185.636 222.617 186.373C222.617 187.11 222.47 187.764 222.175 188.336C221.889 188.899 221.495 189.337 220.992 189.649C220.498 189.961 219.944 190.117 219.328 190.117C218.8 190.117 218.332 190.009 217.924 189.792C217.526 189.575 217.201 189.302 216.949 188.973V193.432H215.129V182.798H216.949V183.838ZM220.758 186.373C220.758 185.94 220.667 185.567 220.485 185.255C220.312 184.934 220.078 184.692 219.783 184.527C219.497 184.362 219.185 184.28 218.847 184.28C218.518 184.28 218.206 184.367 217.911 184.54C217.625 184.705 217.391 184.947 217.209 185.268C217.036 185.589 216.949 185.966 216.949 186.399C216.949 186.832 217.036 187.209 217.209 187.53C217.391 187.851 217.625 188.098 217.911 188.271C218.206 188.436 218.518 188.518 218.847 188.518C219.185 188.518 219.497 188.431 219.783 188.258C220.078 188.085 220.312 187.838 220.485 187.517C220.667 187.196 220.758 186.815 220.758 186.373ZM225.76 183.916C225.994 183.535 226.297 183.236 226.67 183.019C227.051 182.802 227.485 182.694 227.97 182.694V184.605H227.489C226.917 184.605 226.484 184.739 226.189 185.008C225.903 185.277 225.76 185.745 225.76 186.412V190H223.94V182.798H225.76V183.916ZM232.394 190.117C231.7 190.117 231.076 189.965 230.522 189.662C229.967 189.35 229.529 188.912 229.209 188.349C228.897 187.786 228.741 187.136 228.741 186.399C228.741 185.662 228.901 185.012 229.222 184.449C229.551 183.886 229.997 183.452 230.561 183.149C231.124 182.837 231.752 182.681 232.446 182.681C233.139 182.681 233.767 182.837 234.331 183.149C234.894 183.452 235.336 183.886 235.657 184.449C235.986 185.012 236.151 185.662 236.151 186.399C236.151 187.136 235.982 187.786 235.644 188.349C235.314 188.912 234.864 189.35 234.292 189.662C233.728 189.965 233.096 190.117 232.394 190.117ZM232.394 188.531C232.723 188.531 233.031 188.453 233.317 188.297C233.611 188.132 233.845 187.89 234.019 187.569C234.192 187.248 234.279 186.858 234.279 186.399C234.279 185.714 234.097 185.19 233.733 184.826C233.377 184.453 232.94 184.267 232.42 184.267C231.9 184.267 231.462 184.453 231.107 184.826C230.76 185.19 230.587 185.714 230.587 186.399C230.587 187.084 230.756 187.612 231.094 187.985C231.44 188.349 231.874 188.531 232.394 188.531ZM240.489 188.323L242.309 182.798H244.246L241.581 190H239.371L236.719 182.798H238.669L240.489 188.323ZM244.8 186.373C244.8 185.645 244.943 184.999 245.229 184.436C245.524 183.873 245.918 183.439 246.412 183.136C246.915 182.833 247.474 182.681 248.089 182.681C248.626 182.681 249.094 182.789 249.493 183.006C249.9 183.223 250.225 183.496 250.468 183.825V182.798H252.301V190H250.468V188.947C250.234 189.285 249.909 189.567 249.493 189.792C249.086 190.009 248.613 190.117 248.076 190.117C247.469 190.117 246.915 189.961 246.412 189.649C245.918 189.337 245.524 188.899 245.229 188.336C244.943 187.764 244.8 187.11 244.8 186.373ZM250.468 186.399C250.468 185.957 250.381 185.58 250.208 185.268C250.035 184.947 249.801 184.705 249.506 184.54C249.211 184.367 248.895 184.28 248.557 184.28C248.219 184.28 247.907 184.362 247.621 184.527C247.335 184.692 247.101 184.934 246.919 185.255C246.746 185.567 246.659 185.94 246.659 186.373C246.659 186.806 246.746 187.188 246.919 187.517C247.101 187.838 247.335 188.085 247.621 188.258C247.916 188.431 248.228 188.518 248.557 188.518C248.895 188.518 249.211 188.436 249.506 188.271C249.801 188.098 250.035 187.855 250.208 187.543C250.381 187.222 250.468 186.841 250.468 186.399ZM255.899 180.38V190H254.079V180.38H255.899ZM260.453 190.117C259.863 190.117 259.335 190.013 258.867 189.805C258.399 189.588 258.026 189.298 257.749 188.934C257.48 188.57 257.333 188.167 257.307 187.725H259.14C259.174 188.002 259.309 188.232 259.543 188.414C259.785 188.596 260.084 188.687 260.44 188.687C260.786 188.687 261.055 188.618 261.246 188.479C261.445 188.34 261.545 188.163 261.545 187.946C261.545 187.712 261.423 187.539 261.181 187.426C260.947 187.305 260.57 187.175 260.05 187.036C259.512 186.906 259.07 186.772 258.724 186.633C258.386 186.494 258.091 186.282 257.84 185.996C257.597 185.71 257.476 185.324 257.476 184.839C257.476 184.44 257.588 184.076 257.814 183.747C258.048 183.418 258.377 183.158 258.802 182.967C259.235 182.776 259.742 182.681 260.323 182.681C261.181 182.681 261.865 182.898 262.377 183.331C262.888 183.756 263.17 184.332 263.222 185.06H261.48C261.454 184.774 261.332 184.549 261.116 184.384C260.908 184.211 260.626 184.124 260.271 184.124C259.941 184.124 259.686 184.185 259.504 184.306C259.33 184.427 259.244 184.596 259.244 184.813C259.244 185.056 259.365 185.242 259.608 185.372C259.85 185.493 260.227 185.619 260.739 185.749C261.259 185.879 261.688 186.013 262.026 186.152C262.364 186.291 262.654 186.507 262.897 186.802C263.148 187.088 263.278 187.469 263.287 187.946C263.287 188.362 263.17 188.735 262.936 189.064C262.71 189.393 262.381 189.653 261.948 189.844C261.523 190.026 261.025 190.117 260.453 190.117Z" fill="#2C2C2C"/>
<path d="M168.809 184.992L172.781 181.218C172.922 181.084 173 180.902 173 180.713C173 180.524 172.92 180.342 172.779 180.208C172.639 180.075 172.448 180 172.249 180C172.05 180 171.859 180.076 171.719 180.21L167.218 184.492C167.082 184.622 167.004 184.797 167 184.98C166.996 185.164 167.067 185.341 167.197 185.477L171.715 189.79C171.856 189.924 172.047 190 172.245 190C172.444 190 172.635 189.925 172.776 189.792C172.917 189.658 172.996 189.476 172.997 189.287C172.997 189.098 172.918 188.916 172.778 188.782L168.809 184.992Z" fill="#2C2C2C"/>
<rect x="166" y="204" width="129" height="22" rx="4" fill="white"/>
<path d="M176.466 217.06C176.162 217.06 175.878 217.006 175.614 216.898C175.35 216.786 175.118 216.632 174.918 216.436C174.718 216.24 174.562 216.012 174.45 215.752C174.342 215.488 174.288 215.204 174.288 214.9C174.288 214.6 174.342 214.32 174.45 214.06C174.562 213.8 174.716 213.574 174.912 213.382C175.112 213.186 175.344 213.034 175.608 212.926C175.872 212.818 176.156 212.764 176.46 212.764C176.672 212.764 176.878 212.794 177.078 212.854C177.282 212.914 177.466 212.998 177.63 213.106C177.794 213.214 177.928 213.338 178.032 213.478L177.612 213.916C177.492 213.8 177.368 213.704 177.24 213.628C177.116 213.552 176.988 213.494 176.856 213.454C176.724 213.414 176.592 213.394 176.46 213.394C176.244 213.394 176.044 213.432 175.86 213.508C175.68 213.584 175.52 213.69 175.38 213.826C175.244 213.962 175.138 214.122 175.062 214.306C174.986 214.486 174.948 214.684 174.948 214.9C174.948 215.108 174.988 215.306 175.068 215.494C175.148 215.678 175.258 215.84 175.398 215.98C175.542 216.12 175.706 216.23 175.89 216.31C176.078 216.39 176.276 216.43 176.484 216.43C176.64 216.43 176.788 216.408 176.928 216.364C177.068 216.316 177.192 216.25 177.3 216.166C177.408 216.082 177.492 215.986 177.552 215.878C177.612 215.766 177.642 215.648 177.642 215.524V215.404L177.732 215.488H176.448V214.846H178.308C178.316 214.89 178.322 214.934 178.326 214.978C178.33 215.018 178.332 215.058 178.332 215.098C178.336 215.134 178.338 215.17 178.338 215.206C178.338 215.482 178.29 215.734 178.194 215.962C178.098 216.186 177.964 216.38 177.792 216.544C177.624 216.708 177.426 216.836 177.198 216.928C176.974 217.016 176.73 217.06 176.466 217.06ZM180.496 217.06C180.172 217.06 179.884 216.992 179.632 216.856C179.384 216.716 179.188 216.526 179.044 216.286C178.904 216.046 178.834 215.77 178.834 215.458C178.834 215.21 178.874 214.984 178.954 214.78C179.034 214.576 179.144 214.4 179.284 214.252C179.428 214.1 179.598 213.984 179.794 213.904C179.994 213.82 180.21 213.778 180.442 213.778C180.646 213.778 180.836 213.818 181.012 213.898C181.188 213.974 181.34 214.08 181.468 214.216C181.6 214.352 181.7 214.514 181.768 214.702C181.84 214.886 181.874 215.088 181.87 215.308L181.864 215.572H179.29L179.152 215.08H181.33L181.24 215.182V215.038C181.228 214.906 181.184 214.788 181.108 214.684C181.032 214.58 180.936 214.498 180.82 214.438C180.704 214.378 180.578 214.348 180.442 214.348C180.226 214.348 180.044 214.39 179.896 214.474C179.748 214.554 179.636 214.674 179.56 214.834C179.484 214.99 179.446 215.184 179.446 215.416C179.446 215.636 179.492 215.828 179.584 215.992C179.676 216.152 179.806 216.276 179.974 216.364C180.142 216.452 180.336 216.496 180.556 216.496C180.712 216.496 180.856 216.47 180.988 216.418C181.124 216.366 181.27 216.272 181.426 216.136L181.738 216.574C181.642 216.67 181.524 216.754 181.384 216.826C181.248 216.898 181.102 216.956 180.946 217C180.794 217.04 180.644 217.06 180.496 217.06ZM182.541 217V213.85H183.159V214.498L183.051 214.57C183.091 214.43 183.169 214.302 183.285 214.186C183.401 214.066 183.539 213.97 183.699 213.898C183.859 213.822 184.023 213.784 184.191 213.784C184.431 213.784 184.631 213.832 184.791 213.928C184.951 214.02 185.071 214.162 185.151 214.354C185.231 214.546 185.271 214.788 185.271 215.08V217H184.653V215.122C184.653 214.942 184.629 214.794 184.581 214.678C184.533 214.558 184.459 214.472 184.359 214.42C184.259 214.364 184.135 214.34 183.987 214.348C183.867 214.348 183.757 214.368 183.657 214.408C183.557 214.444 183.469 214.496 183.393 214.564C183.321 214.632 183.263 214.712 183.219 214.804C183.179 214.892 183.159 214.988 183.159 215.092V217H182.853C182.801 217 182.749 217 182.697 217C182.645 217 182.593 217 182.541 217ZM187.58 217.06C187.256 217.06 186.968 216.992 186.716 216.856C186.468 216.716 186.272 216.526 186.128 216.286C185.988 216.046 185.918 215.77 185.918 215.458C185.918 215.21 185.958 214.984 186.038 214.78C186.118 214.576 186.228 214.4 186.368 214.252C186.512 214.1 186.682 213.984 186.878 213.904C187.078 213.82 187.294 213.778 187.526 213.778C187.73 213.778 187.92 213.818 188.096 213.898C188.272 213.974 188.424 214.08 188.552 214.216C188.684 214.352 188.784 214.514 188.852 214.702C188.924 214.886 188.958 215.088 188.954 215.308L188.948 215.572H186.374L186.236 215.08H188.414L188.324 215.182V215.038C188.312 214.906 188.268 214.788 188.192 214.684C188.116 214.58 188.02 214.498 187.904 214.438C187.788 214.378 187.662 214.348 187.526 214.348C187.31 214.348 187.128 214.39 186.98 214.474C186.832 214.554 186.72 214.674 186.644 214.834C186.568 214.99 186.53 215.184 186.53 215.416C186.53 215.636 186.576 215.828 186.668 215.992C186.76 216.152 186.89 216.276 187.058 216.364C187.226 216.452 187.42 216.496 187.64 216.496C187.796 216.496 187.94 216.47 188.072 216.418C188.208 216.366 188.354 216.272 188.51 216.136L188.822 216.574C188.726 216.67 188.608 216.754 188.468 216.826C188.332 216.898 188.186 216.956 188.03 217C187.878 217.04 187.728 217.06 187.58 217.06ZM189.625 217V213.85H190.249V214.84L190.189 214.6C190.233 214.448 190.307 214.31 190.411 214.186C190.519 214.062 190.641 213.964 190.777 213.892C190.917 213.82 191.061 213.784 191.209 213.784C191.277 213.784 191.341 213.79 191.401 213.802C191.465 213.814 191.515 213.828 191.551 213.844L191.389 214.516C191.341 214.496 191.287 214.48 191.227 214.468C191.171 214.452 191.115 214.444 191.059 214.444C190.951 214.444 190.847 214.466 190.747 214.51C190.651 214.55 190.565 214.608 190.489 214.684C190.417 214.756 190.359 214.842 190.315 214.942C190.271 215.038 190.249 215.144 190.249 215.26V217H189.625ZM193.123 217.06C192.863 217.06 192.625 216.988 192.409 216.844C192.197 216.7 192.027 216.504 191.899 216.256C191.771 216.008 191.707 215.728 191.707 215.416C191.707 215.1 191.771 214.82 191.899 214.576C192.031 214.328 192.207 214.134 192.427 213.994C192.651 213.854 192.901 213.784 193.177 213.784C193.341 213.784 193.491 213.808 193.627 213.856C193.763 213.904 193.881 213.972 193.981 214.06C194.085 214.144 194.169 214.242 194.233 214.354C194.301 214.466 194.343 214.586 194.359 214.714L194.221 214.666V213.85H194.845V217H194.221V216.25L194.365 216.208C194.341 216.316 194.291 216.422 194.215 216.526C194.143 216.626 194.049 216.716 193.933 216.796C193.821 216.876 193.695 216.94 193.555 216.988C193.419 217.036 193.275 217.06 193.123 217.06ZM193.285 216.49C193.473 216.49 193.639 216.444 193.783 216.352C193.927 216.26 194.039 216.134 194.119 215.974C194.203 215.81 194.245 215.624 194.245 215.416C194.245 215.212 194.203 215.03 194.119 214.87C194.039 214.71 193.927 214.584 193.783 214.492C193.639 214.4 193.473 214.354 193.285 214.354C193.101 214.354 192.937 214.4 192.793 214.492C192.653 214.584 192.541 214.71 192.457 214.87C192.377 215.03 192.337 215.212 192.337 215.416C192.337 215.624 192.377 215.81 192.457 215.974C192.541 216.134 192.653 216.26 192.793 216.352C192.937 216.444 193.101 216.49 193.285 216.49ZM195.719 217V212.56H196.337V217H195.719ZM199.051 217V212.8H200.839C201.079 212.8 201.299 212.86 201.499 212.98C201.703 213.096 201.865 213.256 201.985 213.46C202.105 213.66 202.165 213.886 202.165 214.138C202.165 214.366 202.105 214.578 201.985 214.774C201.865 214.97 201.705 215.128 201.505 215.248C201.305 215.364 201.083 215.422 200.839 215.422H199.699V217H199.051ZM201.547 217L200.479 215.104L201.145 214.954L202.333 217.006L201.547 217ZM199.699 214.798H200.899C201.015 214.798 201.119 214.77 201.211 214.714C201.303 214.654 201.375 214.574 201.427 214.474C201.479 214.37 201.505 214.256 201.505 214.132C201.505 213.992 201.471 213.87 201.403 213.766C201.339 213.658 201.247 213.574 201.127 213.514C201.011 213.454 200.879 213.424 200.731 213.424H199.699V214.798ZM204.42 217.06C204.096 217.06 203.808 216.992 203.556 216.856C203.308 216.716 203.112 216.526 202.968 216.286C202.828 216.046 202.758 215.77 202.758 215.458C202.758 215.21 202.798 214.984 202.878 214.78C202.958 214.576 203.068 214.4 203.208 214.252C203.352 214.1 203.522 213.984 203.718 213.904C203.918 213.82 204.134 213.778 204.366 213.778C204.57 213.778 204.76 213.818 204.936 213.898C205.112 213.974 205.264 214.08 205.392 214.216C205.524 214.352 205.624 214.514 205.692 214.702C205.764 214.886 205.798 215.088 205.794 215.308L205.788 215.572H203.214L203.076 215.08H205.254L205.164 215.182V215.038C205.152 214.906 205.108 214.788 205.032 214.684C204.956 214.58 204.86 214.498 204.744 214.438C204.628 214.378 204.502 214.348 204.366 214.348C204.15 214.348 203.968 214.39 203.82 214.474C203.672 214.554 203.56 214.674 203.484 214.834C203.408 214.99 203.37 215.184 203.37 215.416C203.37 215.636 203.416 215.828 203.508 215.992C203.6 216.152 203.73 216.276 203.898 216.364C204.066 216.452 204.26 216.496 204.48 216.496C204.636 216.496 204.78 216.47 204.912 216.418C205.048 216.366 205.194 216.272 205.35 216.136L205.662 216.574C205.566 216.67 205.448 216.754 205.308 216.826C205.172 216.898 205.026 216.956 204.87 217C204.718 217.04 204.568 217.06 204.42 217.06ZM208.763 218.32V216.25H208.883C208.883 216.346 208.851 216.442 208.787 216.538C208.723 216.63 208.637 216.716 208.529 216.796C208.421 216.876 208.301 216.94 208.169 216.988C208.037 217.036 207.901 217.06 207.761 217.06C207.477 217.06 207.223 216.99 206.999 216.85C206.775 216.706 206.597 216.512 206.465 216.268C206.337 216.02 206.273 215.738 206.273 215.422C206.273 215.106 206.337 214.826 206.465 214.582C206.593 214.334 206.767 214.14 206.987 214C207.211 213.856 207.463 213.784 207.743 213.784C207.899 213.784 208.047 213.81 208.187 213.862C208.331 213.914 208.459 213.982 208.571 214.066C208.687 214.15 208.777 214.244 208.841 214.348C208.909 214.448 208.943 214.55 208.943 214.654L208.763 214.666V213.844H209.381V218.32H208.763ZM207.827 216.49C208.015 216.49 208.181 216.444 208.325 216.352C208.469 216.26 208.581 216.134 208.661 215.974C208.745 215.814 208.787 215.63 208.787 215.422C208.787 215.214 208.745 215.03 208.661 214.87C208.581 214.706 208.469 214.578 208.325 214.486C208.181 214.394 208.015 214.348 207.827 214.348C207.639 214.348 207.473 214.396 207.329 214.492C207.185 214.584 207.071 214.712 206.987 214.876C206.907 215.036 206.867 215.218 206.867 215.422C206.867 215.626 206.907 215.81 206.987 215.974C207.071 216.134 207.185 216.26 207.329 216.352C207.473 216.444 207.639 216.49 207.827 216.49ZM211.349 217.06C211.125 217.06 210.929 217.008 210.761 216.904C210.597 216.8 210.469 216.654 210.377 216.466C210.289 216.278 210.245 216.054 210.245 215.794V213.85H210.863V215.626C210.863 215.81 210.891 215.97 210.947 216.106C211.007 216.238 211.091 216.34 211.199 216.412C211.311 216.484 211.445 216.52 211.601 216.52C211.717 216.52 211.823 216.502 211.919 216.466C212.015 216.426 212.097 216.372 212.165 216.304C212.237 216.236 212.293 216.154 212.333 216.058C212.373 215.962 212.393 215.858 212.393 215.746V213.85H213.011V217H212.393V216.34L212.501 216.268C212.453 216.416 212.371 216.55 212.255 216.67C212.143 216.79 212.009 216.886 211.853 216.958C211.697 217.026 211.529 217.06 211.349 217.06ZM215.347 217.06C215.023 217.06 214.735 216.992 214.483 216.856C214.235 216.716 214.039 216.526 213.895 216.286C213.755 216.046 213.685 215.77 213.685 215.458C213.685 215.21 213.725 214.984 213.805 214.78C213.885 214.576 213.995 214.4 214.135 214.252C214.279 214.1 214.449 213.984 214.645 213.904C214.845 213.82 215.061 213.778 215.293 213.778C215.497 213.778 215.687 213.818 215.863 213.898C216.039 213.974 216.191 214.08 216.319 214.216C216.451 214.352 216.551 214.514 216.619 214.702C216.691 214.886 216.725 215.088 216.721 215.308L216.715 215.572H214.141L214.003 215.08H216.181L216.091 215.182V215.038C216.079 214.906 216.035 214.788 215.959 214.684C215.883 214.58 215.787 214.498 215.671 214.438C215.555 214.378 215.429 214.348 215.293 214.348C215.077 214.348 214.895 214.39 214.747 214.474C214.599 214.554 214.487 214.674 214.411 214.834C214.335 214.99 214.297 215.184 214.297 215.416C214.297 215.636 214.343 215.828 214.435 215.992C214.527 216.152 214.657 216.276 214.825 216.364C214.993 216.452 215.187 216.496 215.407 216.496C215.563 216.496 215.707 216.47 215.839 216.418C215.975 216.366 216.121 216.272 216.277 216.136L216.589 216.574C216.493 216.67 216.375 216.754 216.235 216.826C216.099 216.898 215.953 216.956 215.797 217C215.645 217.04 215.495 217.06 215.347 217.06ZM218.443 217.06C218.179 217.06 217.941 217.014 217.729 216.922C217.517 216.83 217.341 216.694 217.201 216.514L217.621 216.154C217.741 216.294 217.871 216.396 218.011 216.46C218.155 216.52 218.317 216.55 218.497 216.55C218.569 216.55 218.635 216.542 218.695 216.526C218.759 216.506 218.813 216.478 218.857 216.442C218.905 216.406 218.941 216.364 218.965 216.316C218.989 216.264 219.001 216.208 219.001 216.148C219.001 216.044 218.963 215.96 218.887 215.896C218.847 215.868 218.783 215.838 218.695 215.806C218.611 215.77 218.501 215.734 218.365 215.698C218.133 215.638 217.943 215.57 217.795 215.494C217.647 215.418 217.533 215.332 217.453 215.236C217.393 215.16 217.349 215.078 217.321 214.99C217.293 214.898 217.279 214.798 217.279 214.69C217.279 214.558 217.307 214.438 217.363 214.33C217.423 214.218 217.503 214.122 217.603 214.042C217.707 213.958 217.827 213.894 217.963 213.85C218.103 213.806 218.251 213.784 218.407 213.784C218.555 213.784 218.701 213.804 218.845 213.844C218.993 213.884 219.129 213.942 219.253 214.018C219.377 214.094 219.481 214.184 219.565 214.288L219.211 214.678C219.135 214.602 219.051 214.536 218.959 214.48C218.871 214.42 218.781 214.374 218.689 214.342C218.597 214.31 218.513 214.294 218.437 214.294C218.353 214.294 218.277 214.302 218.209 214.318C218.141 214.334 218.083 214.358 218.035 214.39C217.991 214.422 217.957 214.462 217.933 214.51C217.909 214.558 217.897 214.612 217.897 214.672C217.901 214.724 217.913 214.774 217.933 214.822C217.957 214.866 217.989 214.904 218.029 214.936C218.073 214.968 218.139 215.002 218.227 215.038C218.315 215.074 218.427 215.108 218.563 215.14C218.763 215.192 218.927 215.25 219.055 215.314C219.187 215.374 219.291 215.444 219.367 215.524C219.447 215.6 219.503 215.688 219.535 215.788C219.567 215.888 219.583 216 219.583 216.124C219.583 216.304 219.531 216.466 219.427 216.61C219.327 216.75 219.191 216.86 219.019 216.94C218.847 217.02 218.655 217.06 218.443 217.06ZM220.654 217V213.046H221.272V217H220.654ZM220 214.45V213.85H222.004V214.45H220ZM223.734 217.06C223.47 217.06 223.232 217.014 223.02 216.922C222.808 216.83 222.632 216.694 222.492 216.514L222.912 216.154C223.032 216.294 223.162 216.396 223.302 216.46C223.446 216.52 223.608 216.55 223.788 216.55C223.86 216.55 223.926 216.542 223.986 216.526C224.05 216.506 224.104 216.478 224.148 216.442C224.196 216.406 224.232 216.364 224.256 216.316C224.28 216.264 224.292 216.208 224.292 216.148C224.292 216.044 224.254 215.96 224.178 215.896C224.138 215.868 224.074 215.838 223.986 215.806C223.902 215.77 223.792 215.734 223.656 215.698C223.424 215.638 223.234 215.57 223.086 215.494C222.938 215.418 222.824 215.332 222.744 215.236C222.684 215.16 222.64 215.078 222.612 214.99C222.584 214.898 222.57 214.798 222.57 214.69C222.57 214.558 222.598 214.438 222.654 214.33C222.714 214.218 222.794 214.122 222.894 214.042C222.998 213.958 223.118 213.894 223.254 213.85C223.394 213.806 223.542 213.784 223.698 213.784C223.846 213.784 223.992 213.804 224.136 213.844C224.284 213.884 224.42 213.942 224.544 214.018C224.668 214.094 224.772 214.184 224.856 214.288L224.502 214.678C224.426 214.602 224.342 214.536 224.25 214.48C224.162 214.42 224.072 214.374 223.98 214.342C223.888 214.31 223.804 214.294 223.728 214.294C223.644 214.294 223.568 214.302 223.5 214.318C223.432 214.334 223.374 214.358 223.326 214.39C223.282 214.422 223.248 214.462 223.224 214.51C223.2 214.558 223.188 214.612 223.188 214.672C223.192 214.724 223.204 214.774 223.224 214.822C223.248 214.866 223.28 214.904 223.32 214.936C223.364 214.968 223.43 215.002 223.518 215.038C223.606 215.074 223.718 215.108 223.854 215.14C224.054 215.192 224.218 215.25 224.346 215.314C224.478 215.374 224.582 215.444 224.658 215.524C224.738 215.6 224.794 215.688 224.826 215.788C224.858 215.888 224.874 216 224.874 216.124C224.874 216.304 224.822 216.466 224.718 216.61C224.618 216.75 224.482 216.86 224.31 216.94C224.138 217.02 223.946 217.06 223.734 217.06Z" fill="#7A7A7A"/>
<path d="M234.678 217.66L233.088 215.578L233.622 215.224L235.194 217.288L234.678 217.66ZM233.346 217.06C233.05 217.06 232.776 217.006 232.524 216.898C232.276 216.79 232.058 216.64 231.87 216.448C231.686 216.252 231.542 216.024 231.438 215.764C231.338 215.5 231.288 215.212 231.288 214.9C231.288 214.588 231.338 214.302 231.438 214.042C231.542 213.778 231.686 213.55 231.87 213.358C232.058 213.162 232.276 213.01 232.524 212.902C232.776 212.794 233.05 212.74 233.346 212.74C233.642 212.74 233.914 212.794 234.162 212.902C234.414 213.01 234.632 213.162 234.816 213.358C235.004 213.554 235.148 213.784 235.248 214.048C235.352 214.308 235.404 214.592 235.404 214.9C235.404 215.208 235.352 215.494 235.248 215.758C235.148 216.018 235.004 216.246 234.816 216.442C234.632 216.638 234.414 216.79 234.162 216.898C233.914 217.006 233.642 217.06 233.346 217.06ZM233.346 216.43C233.55 216.43 233.736 216.392 233.904 216.316C234.076 216.24 234.224 216.134 234.348 215.998C234.472 215.858 234.568 215.696 234.636 215.512C234.708 215.324 234.744 215.12 234.744 214.9C234.744 214.68 234.708 214.478 234.636 214.294C234.568 214.106 234.472 213.944 234.348 213.808C234.224 213.668 234.076 213.56 233.904 213.484C233.736 213.408 233.55 213.37 233.346 213.37C233.142 213.37 232.954 213.408 232.782 213.484C232.614 213.56 232.466 213.666 232.338 213.802C232.214 213.938 232.118 214.1 232.05 214.288C231.982 214.472 231.948 214.676 231.948 214.9C231.948 215.12 231.982 215.324 232.05 215.512C232.118 215.7 232.214 215.862 232.338 215.998C232.466 216.134 232.614 216.24 232.782 216.316C232.954 216.392 233.142 216.43 233.346 216.43ZM237.229 217.06C237.005 217.06 236.809 217.008 236.641 216.904C236.477 216.8 236.349 216.654 236.257 216.466C236.169 216.278 236.125 216.054 236.125 215.794V213.85H236.743V215.626C236.743 215.81 236.771 215.97 236.827 216.106C236.887 216.238 236.971 216.34 237.079 216.412C237.191 216.484 237.325 216.52 237.481 216.52C237.597 216.52 237.703 216.502 237.799 216.466C237.895 216.426 237.977 216.372 238.045 216.304C238.117 216.236 238.173 216.154 238.213 216.058C238.253 215.962 238.273 215.858 238.273 215.746V213.85H238.891V217H238.273V216.34L238.381 216.268C238.333 216.416 238.251 216.55 238.135 216.67C238.023 216.79 237.889 216.886 237.733 216.958C237.577 217.026 237.409 217.06 237.229 217.06ZM241.174 217.06C240.866 217.06 240.59 216.99 240.346 216.85C240.106 216.706 239.916 216.512 239.776 216.268C239.636 216.02 239.566 215.738 239.566 215.422C239.566 215.106 239.636 214.826 239.776 214.582C239.916 214.334 240.106 214.14 240.346 214C240.59 213.856 240.866 213.784 241.174 213.784C241.478 213.784 241.75 213.856 241.99 214C242.234 214.14 242.426 214.334 242.566 214.582C242.706 214.826 242.776 215.106 242.776 215.422C242.776 215.738 242.706 216.02 242.566 216.268C242.426 216.512 242.234 216.706 241.99 216.85C241.75 216.99 241.478 217.06 241.174 217.06ZM241.174 216.496C241.362 216.496 241.53 216.45 241.678 216.358C241.826 216.262 241.942 216.134 242.026 215.974C242.11 215.81 242.15 215.626 242.146 215.422C242.15 215.214 242.11 215.03 242.026 214.87C241.942 214.706 241.826 214.578 241.678 214.486C241.53 214.394 241.362 214.348 241.174 214.348C240.986 214.348 240.816 214.396 240.664 214.492C240.516 214.584 240.4 214.712 240.316 214.876C240.232 215.036 240.192 215.218 240.196 215.422C240.192 215.626 240.232 215.81 240.316 215.974C240.4 216.134 240.516 216.262 240.664 216.358C240.816 216.45 240.986 216.496 241.174 216.496ZM243.84 217V213.046H244.458V217H243.84ZM243.186 214.45V213.85H245.19V214.45H243.186ZM246.935 217.06C246.675 217.06 246.437 216.988 246.221 216.844C246.009 216.7 245.839 216.504 245.711 216.256C245.583 216.008 245.519 215.728 245.519 215.416C245.519 215.1 245.583 214.82 245.711 214.576C245.843 214.328 246.019 214.134 246.239 213.994C246.463 213.854 246.713 213.784 246.989 213.784C247.153 213.784 247.303 213.808 247.439 213.856C247.575 213.904 247.693 213.972 247.793 214.06C247.897 214.144 247.981 214.242 248.045 214.354C248.113 214.466 248.155 214.586 248.171 214.714L248.033 214.666V213.85H248.657V217H248.033V216.25L248.177 216.208C248.153 216.316 248.103 216.422 248.027 216.526C247.955 216.626 247.861 216.716 247.745 216.796C247.633 216.876 247.507 216.94 247.367 216.988C247.231 217.036 247.087 217.06 246.935 217.06ZM247.097 216.49C247.285 216.49 247.451 216.444 247.595 216.352C247.739 216.26 247.851 216.134 247.931 215.974C248.015 215.81 248.057 215.624 248.057 215.416C248.057 215.212 248.015 215.03 247.931 214.87C247.851 214.71 247.739 214.584 247.595 214.492C247.451 214.4 247.285 214.354 247.097 214.354C246.913 214.354 246.749 214.4 246.605 214.492C246.465 214.584 246.353 214.71 246.269 214.87C246.189 215.03 246.149 215.212 246.149 215.416C246.149 215.624 246.189 215.81 246.269 215.974C246.353 216.134 246.465 216.26 246.605 216.352C246.749 216.444 246.913 216.49 247.097 216.49ZM249.91 217V213.046H250.528V217H249.91ZM249.256 214.45V213.85H251.26V214.45H249.256ZM251.925 217V213.85H252.543V217H251.925ZM252.225 213.154C252.093 213.154 251.991 213.12 251.919 213.052C251.847 212.984 251.811 212.888 251.811 212.764C251.811 212.648 251.847 212.554 251.919 212.482C251.995 212.41 252.097 212.374 252.225 212.374C252.357 212.374 252.459 212.408 252.531 212.476C252.603 212.544 252.639 212.64 252.639 212.764C252.639 212.88 252.601 212.974 252.525 213.046C252.453 213.118 252.353 213.154 252.225 213.154ZM254.909 217.06C254.601 217.06 254.325 216.99 254.081 216.85C253.841 216.706 253.651 216.512 253.511 216.268C253.371 216.02 253.301 215.738 253.301 215.422C253.301 215.106 253.371 214.826 253.511 214.582C253.651 214.334 253.841 214.14 254.081 214C254.325 213.856 254.601 213.784 254.909 213.784C255.213 213.784 255.485 213.856 255.725 214C255.969 214.14 256.161 214.334 256.301 214.582C256.441 214.826 256.511 215.106 256.511 215.422C256.511 215.738 256.441 216.02 256.301 216.268C256.161 216.512 255.969 216.706 255.725 216.85C255.485 216.99 255.213 217.06 254.909 217.06ZM254.909 216.496C255.097 216.496 255.265 216.45 255.413 216.358C255.561 216.262 255.677 216.134 255.761 215.974C255.845 215.81 255.885 215.626 255.881 215.422C255.885 215.214 255.845 215.03 255.761 214.87C255.677 214.706 255.561 214.578 255.413 214.486C255.265 214.394 255.097 214.348 254.909 214.348C254.721 214.348 254.551 214.396 254.399 214.492C254.251 214.584 254.135 214.712 254.051 214.876C253.967 215.036 253.927 215.218 253.931 215.422C253.927 215.626 253.967 215.81 254.051 215.974C254.135 216.134 254.251 216.262 254.399 216.358C254.551 216.45 254.721 216.496 254.909 216.496ZM257.184 217V213.85H257.802V214.498L257.694 214.57C257.734 214.43 257.812 214.302 257.928 214.186C258.044 214.066 258.182 213.97 258.342 213.898C258.502 213.822 258.666 213.784 258.834 213.784C259.074 213.784 259.274 213.832 259.434 213.928C259.594 214.02 259.714 214.162 259.794 214.354C259.874 214.546 259.914 214.788 259.914 215.08V217H259.296V215.122C259.296 214.942 259.272 214.794 259.224 214.678C259.176 214.558 259.102 214.472 259.002 214.42C258.902 214.364 258.778 214.34 258.63 214.348C258.51 214.348 258.4 214.368 258.3 214.408C258.2 214.444 258.112 214.496 258.036 214.564C257.964 214.632 257.906 214.712 257.862 214.804C257.822 214.892 257.802 214.988 257.802 215.092V217H257.496C257.444 217 257.392 217 257.34 217C257.288 217 257.236 217 257.184 217ZM261.802 217.06C261.538 217.06 261.3 217.014 261.088 216.922C260.876 216.83 260.7 216.694 260.56 216.514L260.98 216.154C261.1 216.294 261.23 216.396 261.37 216.46C261.514 216.52 261.676 216.55 261.856 216.55C261.928 216.55 261.994 216.542 262.054 216.526C262.118 216.506 262.172 216.478 262.216 216.442C262.264 216.406 262.3 216.364 262.324 216.316C262.348 216.264 262.36 216.208 262.36 216.148C262.36 216.044 262.322 215.96 262.246 215.896C262.206 215.868 262.142 215.838 262.054 215.806C261.97 215.77 261.86 215.734 261.724 215.698C261.492 215.638 261.302 215.57 261.154 215.494C261.006 215.418 260.892 215.332 260.812 215.236C260.752 215.16 260.708 215.078 260.68 214.99C260.652 214.898 260.638 214.798 260.638 214.69C260.638 214.558 260.666 214.438 260.722 214.33C260.782 214.218 260.862 214.122 260.962 214.042C261.066 213.958 261.186 213.894 261.322 213.85C261.462 213.806 261.61 213.784 261.766 213.784C261.914 213.784 262.06 213.804 262.204 213.844C262.352 213.884 262.488 213.942 262.612 214.018C262.736 214.094 262.84 214.184 262.924 214.288L262.57 214.678C262.494 214.602 262.41 214.536 262.318 214.48C262.23 214.42 262.14 214.374 262.048 214.342C261.956 214.31 261.872 214.294 261.796 214.294C261.712 214.294 261.636 214.302 261.568 214.318C261.5 214.334 261.442 214.358 261.394 214.39C261.35 214.422 261.316 214.462 261.292 214.51C261.268 214.558 261.256 214.612 261.256 214.672C261.26 214.724 261.272 214.774 261.292 214.822C261.316 214.866 261.348 214.904 261.388 214.936C261.432 214.968 261.498 215.002 261.586 215.038C261.674 215.074 261.786 215.108 261.922 215.14C262.122 215.192 262.286 215.25 262.414 215.314C262.546 215.374 262.65 215.444 262.726 215.524C262.806 215.6 262.862 215.688 262.894 215.788C262.926 215.888 262.942 216 262.942 216.124C262.942 216.304 262.89 216.466 262.786 216.61C262.686 216.75 262.55 216.86 262.378 216.94C262.206 217.02 262.014 217.06 261.802 217.06ZM265.461 217V212.8H267.249C267.489 212.8 267.709 212.86 267.909 212.98C268.113 213.096 268.275 213.256 268.395 213.46C268.515 213.66 268.575 213.886 268.575 214.138C268.575 214.366 268.515 214.578 268.395 214.774C268.275 214.97 268.115 215.128 267.915 215.248C267.715 215.364 267.493 215.422 267.249 215.422H266.109V217H265.461ZM267.957 217L266.889 215.104L267.555 214.954L268.743 217.006L267.957 217ZM266.109 214.798H267.309C267.425 214.798 267.529 214.77 267.621 214.714C267.713 214.654 267.785 214.574 267.837 214.474C267.889 214.37 267.915 214.256 267.915 214.132C267.915 213.992 267.881 213.87 267.813 213.766C267.749 213.658 267.657 213.574 267.537 213.514C267.421 213.454 267.289 213.424 267.141 213.424H266.109V214.798ZM270.83 217.06C270.506 217.06 270.218 216.992 269.966 216.856C269.718 216.716 269.522 216.526 269.378 216.286C269.238 216.046 269.168 215.77 269.168 215.458C269.168 215.21 269.208 214.984 269.288 214.78C269.368 214.576 269.478 214.4 269.618 214.252C269.762 214.1 269.932 213.984 270.128 213.904C270.328 213.82 270.544 213.778 270.776 213.778C270.98 213.778 271.17 213.818 271.346 213.898C271.522 213.974 271.674 214.08 271.802 214.216C271.934 214.352 272.034 214.514 272.102 214.702C272.174 214.886 272.208 215.088 272.204 215.308L272.198 215.572H269.624L269.486 215.08H271.664L271.574 215.182V215.038C271.562 214.906 271.518 214.788 271.442 214.684C271.366 214.58 271.27 214.498 271.154 214.438C271.038 214.378 270.912 214.348 270.776 214.348C270.56 214.348 270.378 214.39 270.23 214.474C270.082 214.554 269.97 214.674 269.894 214.834C269.818 214.99 269.78 215.184 269.78 215.416C269.78 215.636 269.826 215.828 269.918 215.992C270.01 216.152 270.14 216.276 270.308 216.364C270.476 216.452 270.67 216.496 270.89 216.496C271.046 216.496 271.19 216.47 271.322 216.418C271.458 216.366 271.604 216.272 271.76 216.136L272.072 216.574C271.976 216.67 271.858 216.754 271.718 216.826C271.582 216.898 271.436 216.956 271.28 217C271.128 217.04 270.978 217.06 270.83 217.06ZM275.173 218.32V216.25H275.293C275.293 216.346 275.261 216.442 275.197 216.538C275.133 216.63 275.047 216.716 274.939 216.796C274.831 216.876 274.711 216.94 274.579 216.988C274.447 217.036 274.311 217.06 274.171 217.06C273.887 217.06 273.633 216.99 273.409 216.85C273.185 216.706 273.007 216.512 272.875 216.268C272.747 216.02 272.683 215.738 272.683 215.422C272.683 215.106 272.747 214.826 272.875 214.582C273.003 214.334 273.177 214.14 273.397 214C273.621 213.856 273.873 213.784 274.153 213.784C274.309 213.784 274.457 213.81 274.597 213.862C274.741 213.914 274.869 213.982 274.981 214.066C275.097 214.15 275.187 214.244 275.251 214.348C275.319 214.448 275.353 214.55 275.353 214.654L275.173 214.666V213.844H275.791V218.32H275.173ZM274.237 216.49C274.425 216.49 274.591 216.444 274.735 216.352C274.879 216.26 274.991 216.134 275.071 215.974C275.155 215.814 275.197 215.63 275.197 215.422C275.197 215.214 275.155 215.03 275.071 214.87C274.991 214.706 274.879 214.578 274.735 214.486C274.591 214.394 274.425 214.348 274.237 214.348C274.049 214.348 273.883 214.396 273.739 214.492C273.595 214.584 273.481 214.712 273.397 214.876C273.317 215.036 273.277 215.218 273.277 215.422C273.277 215.626 273.317 215.81 273.397 215.974C273.481 216.134 273.595 216.26 273.739 216.352C273.883 216.444 274.049 216.49 274.237 216.49ZM277.759 217.06C277.535 217.06 277.339 217.008 277.171 216.904C277.007 216.8 276.879 216.654 276.787 216.466C276.699 216.278 276.655 216.054 276.655 215.794V213.85H277.273V215.626C277.273 215.81 277.301 215.97 277.357 216.106C277.417 216.238 277.501 216.34 277.609 216.412C277.721 216.484 277.855 216.52 278.011 216.52C278.127 216.52 278.233 216.502 278.329 216.466C278.425 216.426 278.507 216.372 278.575 216.304C278.647 216.236 278.703 216.154 278.743 216.058C278.783 215.962 278.803 215.858 278.803 215.746V213.85H279.421V217H278.803V216.34L278.911 216.268C278.863 216.416 278.781 216.55 278.665 216.67C278.553 216.79 278.419 216.886 278.263 216.958C278.107 217.026 277.939 217.06 277.759 217.06ZM281.757 217.06C281.433 217.06 281.145 216.992 280.893 216.856C280.645 216.716 280.449 216.526 280.305 216.286C280.165 216.046 280.095 215.77 280.095 215.458C280.095 215.21 280.135 214.984 280.215 214.78C280.295 214.576 280.405 214.4 280.545 214.252C280.689 214.1 280.859 213.984 281.055 213.904C281.255 213.82 281.471 213.778 281.703 213.778C281.907 213.778 282.097 213.818 282.273 213.898C282.449 213.974 282.601 214.08 282.729 214.216C282.861 214.352 282.961 214.514 283.029 214.702C283.101 214.886 283.135 215.088 283.131 215.308L283.125 215.572H280.551L280.413 215.08H282.591L282.501 215.182V215.038C282.489 214.906 282.445 214.788 282.369 214.684C282.293 214.58 282.197 214.498 282.081 214.438C281.965 214.378 281.839 214.348 281.703 214.348C281.487 214.348 281.305 214.39 281.157 214.474C281.009 214.554 280.897 214.674 280.821 214.834C280.745 214.99 280.707 215.184 280.707 215.416C280.707 215.636 280.753 215.828 280.845 215.992C280.937 216.152 281.067 216.276 281.235 216.364C281.403 216.452 281.597 216.496 281.817 216.496C281.973 216.496 282.117 216.47 282.249 216.418C282.385 216.366 282.531 216.272 282.687 216.136L282.999 216.574C282.903 216.67 282.785 216.754 282.645 216.826C282.509 216.898 282.363 216.956 282.207 217C282.055 217.04 281.905 217.06 281.757 217.06ZM284.853 217.06C284.589 217.06 284.351 217.014 284.139 216.922C283.927 216.83 283.751 216.694 283.611 216.514L284.031 216.154C284.151 216.294 284.281 216.396 284.421 216.46C284.565 216.52 284.727 216.55 284.907 216.55C284.979 216.55 285.045 216.542 285.105 216.526C285.169 216.506 285.223 216.478 285.267 216.442C285.315 216.406 285.351 216.364 285.375 216.316C285.399 216.264 285.411 216.208 285.411 216.148C285.411 216.044 285.373 215.96 285.297 215.896C285.257 215.868 285.193 215.838 285.105 215.806C285.021 215.77 284.911 215.734 284.775 215.698C284.543 215.638 284.353 215.57 284.205 215.494C284.057 215.418 283.943 215.332 283.863 215.236C283.803 215.16 283.759 215.078 283.731 214.99C283.703 214.898 283.689 214.798 283.689 214.69C283.689 214.558 283.717 214.438 283.773 214.33C283.833 214.218 283.913 214.122 284.013 214.042C284.117 213.958 284.237 213.894 284.373 213.85C284.513 213.806 284.661 213.784 284.817 213.784C284.965 213.784 285.111 213.804 285.255 213.844C285.403 213.884 285.539 213.942 285.663 214.018C285.787 214.094 285.891 214.184 285.975 214.288L285.621 214.678C285.545 214.602 285.461 214.536 285.369 214.48C285.281 214.42 285.191 214.374 285.099 214.342C285.007 214.31 284.923 214.294 284.847 214.294C284.763 214.294 284.687 214.302 284.619 214.318C284.551 214.334 284.493 214.358 284.445 214.39C284.401 214.422 284.367 214.462 284.343 214.51C284.319 214.558 284.307 214.612 284.307 214.672C284.311 214.724 284.323 214.774 284.343 214.822C284.367 214.866 284.399 214.904 284.439 214.936C284.483 214.968 284.549 215.002 284.637 215.038C284.725 215.074 284.837 215.108 284.973 215.14C285.173 215.192 285.337 215.25 285.465 215.314C285.597 215.374 285.701 215.444 285.777 215.524C285.857 215.6 285.913 215.688 285.945 215.788C285.977 215.888 285.993 216 285.993 216.124C285.993 216.304 285.941 216.466 285.837 216.61C285.737 216.75 285.601 216.86 285.429 216.94C285.257 217.02 285.065 217.06 284.853 217.06ZM287.064 217V213.046H287.682V217H287.064ZM286.41 214.45V213.85H288.414V214.45H286.41ZM290.144 217.06C289.88 217.06 289.642 217.014 289.43 216.922C289.218 216.83 289.042 216.694 288.902 216.514L289.322 216.154C289.442 216.294 289.572 216.396 289.712 216.46C289.856 216.52 290.018 216.55 290.198 216.55C290.27 216.55 290.336 216.542 290.396 216.526C290.46 216.506 290.514 216.478 290.558 216.442C290.606 216.406 290.642 216.364 290.666 216.316C290.69 216.264 290.702 216.208 290.702 216.148C290.702 216.044 290.664 215.96 290.588 215.896C290.548 215.868 290.484 215.838 290.396 215.806C290.312 215.77 290.202 215.734 290.066 215.698C289.834 215.638 289.644 215.57 289.496 215.494C289.348 215.418 289.234 215.332 289.154 215.236C289.094 215.16 289.05 215.078 289.022 214.99C288.994 214.898 288.98 214.798 288.98 214.69C288.98 214.558 289.008 214.438 289.064 214.33C289.124 214.218 289.204 214.122 289.304 214.042C289.408 213.958 289.528 213.894 289.664 213.85C289.804 213.806 289.952 213.784 290.108 213.784C290.256 213.784 290.402 213.804 290.546 213.844C290.694 213.884 290.83 213.942 290.954 214.018C291.078 214.094 291.182 214.184 291.266 214.288L290.912 214.678C290.836 214.602 290.752 214.536 290.66 214.48C290.572 214.42 290.482 214.374 290.39 214.342C290.298 214.31 290.214 214.294 290.138 214.294C290.054 214.294 289.978 214.302 289.91 214.318C289.842 214.334 289.784 214.358 289.736 214.39C289.692 214.422 289.658 214.462 289.634 214.51C289.61 214.558 289.598 214.612 289.598 214.672C289.602 214.724 289.614 214.774 289.634 214.822C289.658 214.866 289.69 214.904 289.73 214.936C289.774 214.968 289.84 215.002 289.928 215.038C290.016 215.074 290.128 215.108 290.264 215.14C290.464 215.192 290.628 215.25 290.756 215.314C290.888 215.374 290.992 215.444 291.068 215.524C291.148 215.6 291.204 215.688 291.236 215.788C291.268 215.888 291.284 216 291.284 216.124C291.284 216.304 291.232 216.466 291.128 216.61C291.028 216.75 290.892 216.86 290.72 216.94C290.548 217.02 290.356 217.06 290.144 217.06Z" fill="black"/>
<path d="M232 226C232 224.895 232.895 224 234 224H288C289.105 224 290 224.895 290 226H232Z" fill="#1A89FA"/>
<rect x="167" y="241" width="128" height="57" rx="5" fill="white"/>
<rect x="241" y="249" width="24" height="7" rx="3.5" fill="#1A89FA" fill-opacity="0.32"/>
<rect x="261" y="277" width="30" height="7" rx="3.5" fill="#A4E8F2"/>
<rect x="267" y="249" width="24" height="7" rx="3.5" fill="#AEE9D1"/>
<rect x="170" y="266" width="83.3831" height="3.16645" rx="1.58322" fill="#E4E6EA"/>
<rect x="170" y="279" width="83.3831" height="3.16645" rx="1.58322" fill="#E4E6EA"/>
<rect x="170" y="272.333" width="68.6063" height="3.16645" rx="1.58322" fill="#E4E6EA"/>
<rect x="245" y="251" width="17" height="2" rx="1" fill="#E8EBEE"/>
<rect x="170" y="285.333" width="68.6063" height="3.16645" rx="1.58322" fill="#E4E6EA"/>
<rect x="267" y="279" width="21" height="2" rx="1" fill="#E8EBEE"/>
<rect x="271" y="251" width="17" height="2" rx="1" fill="#E8EBEE"/>
<path d="M175.088 255.88L172.968 253.104L173.68 252.632L175.776 255.384L175.088 255.88ZM173.312 255.08C172.917 255.08 172.552 255.008 172.216 254.864C171.885 254.72 171.594 254.52 171.344 254.264C171.098 254.003 170.906 253.699 170.768 253.352C170.634 253 170.568 252.616 170.568 252.2C170.568 251.784 170.634 251.403 170.768 251.056C170.906 250.704 171.098 250.4 171.344 250.144C171.594 249.883 171.885 249.68 172.216 249.536C172.552 249.392 172.917 249.32 173.312 249.32C173.706 249.32 174.069 249.392 174.4 249.536C174.736 249.68 175.026 249.883 175.272 250.144C175.522 250.405 175.714 250.712 175.848 251.064C175.986 251.411 176.056 251.789 176.056 252.2C176.056 252.611 175.986 252.992 175.848 253.344C175.714 253.691 175.522 253.995 175.272 254.256C175.026 254.517 174.736 254.72 174.4 254.864C174.069 255.008 173.706 255.08 173.312 255.08ZM173.312 254.24C173.584 254.24 173.832 254.189 174.056 254.088C174.285 253.987 174.482 253.845 174.648 253.664C174.813 253.477 174.941 253.261 175.032 253.016C175.128 252.765 175.176 252.493 175.176 252.2C175.176 251.907 175.128 251.637 175.032 251.392C174.941 251.141 174.813 250.925 174.648 250.744C174.482 250.557 174.285 250.413 174.056 250.312C173.832 250.211 173.584 250.16 173.312 250.16C173.04 250.16 172.789 250.211 172.56 250.312C172.336 250.413 172.138 250.555 171.968 250.736C171.802 250.917 171.674 251.133 171.584 251.384C171.493 251.629 171.448 251.901 171.448 252.2C171.448 252.493 171.493 252.765 171.584 253.016C171.674 253.267 171.802 253.483 171.968 253.664C172.138 253.845 172.336 253.987 172.56 254.088C172.789 254.189 173.04 254.24 173.312 254.24ZM178.489 255.08C178.191 255.08 177.929 255.011 177.705 254.872C177.487 254.733 177.316 254.539 177.193 254.288C177.076 254.037 177.017 253.739 177.017 253.392V250.8H177.841V253.168C177.841 253.413 177.879 253.627 177.953 253.808C178.033 253.984 178.145 254.12 178.289 254.216C178.439 254.312 178.617 254.36 178.825 254.36C178.98 254.36 179.121 254.336 179.249 254.288C179.377 254.235 179.487 254.163 179.577 254.072C179.673 253.981 179.748 253.872 179.801 253.744C179.855 253.616 179.881 253.477 179.881 253.328V250.8H180.705V255H179.881V254.12L180.025 254.024C179.961 254.221 179.852 254.4 179.697 254.56C179.548 254.72 179.369 254.848 179.161 254.944C178.953 255.035 178.729 255.08 178.489 255.08ZM183.749 255.08C183.338 255.08 182.97 254.987 182.645 254.8C182.325 254.608 182.072 254.349 181.885 254.024C181.698 253.693 181.605 253.317 181.605 252.896C181.605 252.475 181.698 252.101 181.885 251.776C182.072 251.445 182.325 251.187 182.645 251C182.97 250.808 183.338 250.712 183.749 250.712C184.154 250.712 184.517 250.808 184.837 251C185.162 251.187 185.418 251.445 185.605 251.776C185.792 252.101 185.885 252.475 185.885 252.896C185.885 253.317 185.792 253.693 185.605 254.024C185.418 254.349 185.162 254.608 184.837 254.8C184.517 254.987 184.154 255.08 183.749 255.08ZM183.749 254.328C184 254.328 184.224 254.267 184.421 254.144C184.618 254.016 184.773 253.845 184.885 253.632C184.997 253.413 185.05 253.168 185.045 252.896C185.05 252.619 184.997 252.373 184.885 252.16C184.773 251.941 184.618 251.771 184.421 251.648C184.224 251.525 184 251.464 183.749 251.464C183.498 251.464 183.272 251.528 183.069 251.656C182.872 251.779 182.717 251.949 182.605 252.168C182.493 252.381 182.44 252.624 182.445 252.896C182.44 253.168 182.493 253.413 182.605 253.632C182.717 253.845 182.872 254.016 183.069 254.144C183.272 254.267 183.498 254.328 183.749 254.328ZM187.303 255V249.728H188.127V255H187.303ZM186.431 251.6V250.8H189.103V251.6H186.431ZM191.774 255.08C191.342 255.08 190.958 254.989 190.622 254.808C190.292 254.621 190.03 254.368 189.838 254.048C189.652 253.728 189.558 253.36 189.558 252.944C189.558 252.613 189.612 252.312 189.718 252.04C189.825 251.768 189.972 251.533 190.158 251.336C190.35 251.133 190.577 250.979 190.838 250.872C191.105 250.76 191.393 250.704 191.702 250.704C191.974 250.704 192.228 250.757 192.462 250.864C192.697 250.965 192.9 251.107 193.07 251.288C193.246 251.469 193.38 251.685 193.47 251.936C193.566 252.181 193.612 252.451 193.606 252.744L193.598 253.096H190.166L189.982 252.44H192.886L192.766 252.576V252.384C192.75 252.208 192.692 252.051 192.59 251.912C192.489 251.773 192.361 251.664 192.206 251.584C192.052 251.504 191.884 251.464 191.702 251.464C191.414 251.464 191.172 251.52 190.974 251.632C190.777 251.739 190.628 251.899 190.526 252.112C190.425 252.32 190.374 252.579 190.374 252.888C190.374 253.181 190.436 253.437 190.558 253.656C190.681 253.869 190.854 254.035 191.078 254.152C191.302 254.269 191.561 254.328 191.854 254.328C192.062 254.328 192.254 254.293 192.43 254.224C192.612 254.155 192.806 254.029 193.014 253.848L193.43 254.432C193.302 254.56 193.145 254.672 192.958 254.768C192.777 254.864 192.582 254.941 192.374 255C192.172 255.053 191.972 255.08 191.774 255.08ZM196.254 255.08C195.87 255.08 195.526 254.987 195.222 254.8C194.923 254.608 194.686 254.349 194.51 254.024C194.334 253.693 194.246 253.317 194.246 252.896C194.246 252.475 194.331 252.101 194.502 251.776C194.678 251.445 194.915 251.187 195.214 251C195.512 250.808 195.851 250.712 196.23 250.712C196.438 250.712 196.638 250.747 196.83 250.816C197.027 250.88 197.203 250.971 197.358 251.088C197.512 251.2 197.632 251.325 197.718 251.464C197.808 251.597 197.854 251.733 197.854 251.872L197.614 251.888V249.08H198.438V255H197.614V254H197.774C197.774 254.128 197.731 254.256 197.646 254.384C197.56 254.507 197.446 254.621 197.302 254.728C197.163 254.835 197 254.92 196.814 254.984C196.632 255.048 196.446 255.08 196.254 255.08ZM196.366 254.368C196.616 254.368 196.838 254.304 197.03 254.176C197.222 254.048 197.371 253.875 197.478 253.656C197.59 253.432 197.646 253.179 197.646 252.896C197.646 252.613 197.59 252.363 197.478 252.144C197.371 251.92 197.222 251.744 197.03 251.616C196.838 251.488 196.616 251.424 196.366 251.424C196.115 251.424 195.894 251.488 195.702 251.616C195.51 251.744 195.358 251.92 195.246 252.144C195.139 252.363 195.086 252.613 195.086 252.896C195.086 253.179 195.139 253.432 195.246 253.656C195.358 253.875 195.51 254.048 195.702 254.176C195.894 254.304 196.115 254.368 196.366 254.368ZM204.022 255.08C203.841 255.08 203.66 255.051 203.478 254.992C203.302 254.933 203.14 254.856 202.99 254.76C202.846 254.659 202.724 254.549 202.622 254.432C202.526 254.309 202.462 254.187 202.43 254.064L202.638 253.952V254.976H201.814V249.08H202.638V251.76L202.51 251.688C202.537 251.565 202.596 251.448 202.686 251.336C202.777 251.219 202.892 251.115 203.03 251.024C203.174 250.928 203.329 250.853 203.494 250.8C203.66 250.741 203.828 250.712 203.998 250.712C204.377 250.712 204.713 250.805 205.006 250.992C205.3 251.179 205.532 251.437 205.702 251.768C205.873 252.093 205.958 252.467 205.958 252.888C205.958 253.309 205.873 253.685 205.702 254.016C205.537 254.347 205.308 254.608 205.014 254.8C204.721 254.987 204.39 255.08 204.022 255.08ZM203.886 254.328C204.132 254.328 204.35 254.267 204.542 254.144C204.734 254.016 204.886 253.845 204.998 253.632C205.11 253.413 205.166 253.165 205.166 252.888C205.166 252.616 205.11 252.373 204.998 252.16C204.892 251.941 204.742 251.771 204.55 251.648C204.358 251.525 204.137 251.464 203.886 251.464C203.636 251.464 203.414 251.525 203.222 251.648C203.03 251.771 202.878 251.941 202.766 252.16C202.654 252.373 202.598 252.616 202.598 252.888C202.598 253.165 202.654 253.413 202.766 253.632C202.878 253.845 203.03 254.016 203.222 254.144C203.414 254.267 203.636 254.328 203.886 254.328ZM207.401 256.84L208.249 254.88L208.257 255.536L206.161 250.8H207.121L208.433 253.888C208.46 253.941 208.492 254.024 208.529 254.136C208.566 254.243 208.598 254.349 208.625 254.456L208.417 254.504C208.46 254.392 208.5 254.28 208.537 254.168C208.58 254.056 208.62 253.944 208.657 253.832L209.753 250.8H210.729L209.001 255L208.289 256.84H207.401ZM213.796 255V249.4H215.988C216.388 249.4 216.748 249.467 217.068 249.6C217.393 249.733 217.67 249.925 217.9 250.176C218.129 250.427 218.305 250.723 218.428 251.064C218.55 251.405 218.612 251.784 218.612 252.2C218.612 252.616 218.55 252.997 218.428 253.344C218.305 253.685 218.129 253.981 217.9 254.232C217.676 254.477 217.401 254.667 217.076 254.8C216.75 254.933 216.388 255 215.988 255H213.796ZM214.66 254.256L214.636 254.168H215.948C216.23 254.168 216.481 254.123 216.7 254.032C216.924 253.941 217.11 253.813 217.26 253.648C217.414 253.477 217.532 253.269 217.612 253.024C217.692 252.779 217.732 252.504 217.732 252.2C217.732 251.896 217.692 251.624 217.612 251.384C217.532 251.139 217.414 250.931 217.26 250.76C217.105 250.589 216.918 250.459 216.7 250.368C216.481 250.277 216.23 250.232 215.948 250.232H214.612L214.66 250.16V254.256ZM221.188 255.08C220.841 255.08 220.524 254.984 220.236 254.792C219.953 254.6 219.727 254.339 219.556 254.008C219.385 253.677 219.3 253.304 219.3 252.888C219.3 252.467 219.385 252.093 219.556 251.768C219.732 251.437 219.967 251.179 220.26 250.992C220.559 250.805 220.892 250.712 221.26 250.712C221.479 250.712 221.679 250.744 221.86 250.808C222.041 250.872 222.199 250.963 222.332 251.08C222.471 251.192 222.583 251.323 222.668 251.472C222.759 251.621 222.815 251.781 222.836 251.952L222.652 251.888V250.8H223.484V255H222.652V254L222.844 253.944C222.812 254.088 222.745 254.229 222.644 254.368C222.548 254.501 222.423 254.621 222.268 254.728C222.119 254.835 221.951 254.92 221.764 254.984C221.583 255.048 221.391 255.08 221.188 255.08ZM221.404 254.32C221.655 254.32 221.876 254.259 222.068 254.136C222.26 254.013 222.409 253.845 222.516 253.632C222.628 253.413 222.684 253.165 222.684 252.888C222.684 252.616 222.628 252.373 222.516 252.16C222.409 251.947 222.26 251.779 222.068 251.656C221.876 251.533 221.655 251.472 221.404 251.472C221.159 251.472 220.94 251.533 220.748 251.656C220.561 251.779 220.412 251.947 220.3 252.16C220.193 252.373 220.14 252.616 220.14 252.888C220.14 253.165 220.193 253.413 220.3 253.632C220.412 253.845 220.561 254.013 220.748 254.136C220.94 254.259 221.159 254.32 221.404 254.32ZM224.635 255V250.8H225.459V251.664L225.315 251.76C225.368 251.573 225.472 251.403 225.627 251.248C225.781 251.088 225.965 250.96 226.179 250.864C226.392 250.763 226.611 250.712 226.835 250.712C227.155 250.712 227.421 250.776 227.635 250.904C227.848 251.027 228.008 251.216 228.115 251.472C228.221 251.728 228.275 252.051 228.275 252.44V255H227.451V252.496C227.451 252.256 227.419 252.059 227.355 251.904C227.291 251.744 227.192 251.629 227.059 251.56C226.925 251.485 226.76 251.453 226.563 251.464C226.403 251.464 226.256 251.491 226.123 251.544C225.989 251.592 225.872 251.661 225.771 251.752C225.675 251.843 225.597 251.949 225.539 252.072C225.485 252.189 225.459 252.317 225.459 252.456V255H225.051C224.981 255 224.912 255 224.843 255C224.773 255 224.704 255 224.635 255Z" fill="#1A89FA"/>
<defs>
<clipPath id="clip0_599_3016">
<rect width="126.658" height="6.35908" fill="white" transform="translate(167.672 155.333)"/>
</clipPath>
</defs>
</svg>
