<svg width="480" height="540" viewBox="0 0 480 540" fill="none" xmlns="http://www.w3.org/2000/svg">
<path d="M85 76H396C405.389 76 413 83.6112 413 93V447C413 456.389 405.389 464 396 464H85C75.6111 464 68 456.389 68 447V93C68 83.6112 75.6111 76 85 76Z" fill="#F1F5F7"/>
<path d="M95.915 120.31L90.308 112.792L92.681 111.154L98.225 118.609L95.915 120.31ZM91.421 118.21C90.343 118.21 89.349 118.021 88.439 117.643C87.529 117.265 86.731 116.74 86.045 116.068C85.373 115.382 84.855 114.577 84.491 113.653C84.127 112.715 83.945 111.7 83.945 110.608C83.945 109.502 84.127 108.487 84.491 107.563C84.855 106.639 85.373 105.841 86.045 105.169C86.731 104.483 87.529 103.951 88.439 103.573C89.349 103.195 90.343 103.006 91.421 103.006C92.513 103.006 93.507 103.195 94.403 103.573C95.313 103.951 96.104 104.483 96.776 105.169C97.462 105.855 97.987 106.66 98.351 107.584C98.715 108.508 98.897 109.516 98.897 110.608C98.897 111.7 98.715 112.708 98.351 113.632C97.987 114.556 97.462 115.361 96.776 116.047C96.104 116.733 95.313 117.265 94.403 117.643C93.507 118.021 92.513 118.21 91.421 118.21ZM91.421 115.228C92.051 115.228 92.625 115.116 93.143 114.892C93.661 114.654 94.109 114.332 94.487 113.926C94.865 113.506 95.159 113.016 95.369 112.456C95.593 111.896 95.705 111.28 95.705 110.608C95.705 109.936 95.593 109.32 95.369 108.76C95.159 108.2 94.865 107.717 94.487 107.311C94.109 106.891 93.661 106.569 93.143 106.345C92.625 106.107 92.051 105.988 91.421 105.988C90.805 105.988 90.238 106.107 89.72 106.345C89.202 106.569 88.747 106.891 88.355 107.311C87.963 107.717 87.662 108.2 87.452 108.76C87.256 109.32 87.158 109.936 87.158 110.608C87.158 111.28 87.256 111.896 87.452 112.456C87.662 113.016 87.963 113.506 88.355 113.926C88.747 114.332 89.202 114.654 89.72 114.892C90.238 115.116 90.805 115.228 91.421 115.228ZM105.15 118.21C104.338 118.21 103.638 118.035 103.05 117.685C102.476 117.321 102.028 116.81 101.706 116.152C101.398 115.48 101.244 114.675 101.244 113.737V106.891H104.226V113.254C104.226 113.758 104.31 114.199 104.478 114.577C104.646 114.941 104.884 115.221 105.192 115.417C105.5 115.613 105.878 115.711 106.326 115.711C106.648 115.711 106.942 115.662 107.208 115.564C107.488 115.452 107.726 115.298 107.922 115.102C108.132 114.906 108.293 114.675 108.405 114.409C108.517 114.143 108.573 113.856 108.573 113.548V106.891H111.555V118H108.72L108.615 115.711L109.161 115.459C108.993 115.977 108.713 116.446 108.321 116.866C107.929 117.286 107.46 117.615 106.914 117.853C106.368 118.091 105.78 118.21 105.15 118.21ZM119.721 118.21C118.587 118.21 117.572 117.965 116.676 117.475C115.794 116.971 115.094 116.285 114.576 115.417C114.072 114.549 113.82 113.555 113.82 112.435C113.82 111.315 114.072 110.321 114.576 109.453C115.094 108.585 115.794 107.906 116.676 107.416C117.572 106.912 118.587 106.66 119.721 106.66C120.841 106.66 121.842 106.912 122.724 107.416C123.62 107.906 124.32 108.585 124.824 109.453C125.328 110.321 125.58 111.315 125.58 112.435C125.58 113.555 125.328 114.549 124.824 115.417C124.32 116.285 123.62 116.971 122.724 117.475C121.842 117.965 120.841 118.21 119.721 118.21ZM119.721 115.606C120.267 115.606 120.757 115.473 121.191 115.207C121.625 114.927 121.961 114.549 122.199 114.073C122.451 113.583 122.57 113.037 122.556 112.435C122.57 111.819 122.451 111.273 122.199 110.797C121.961 110.307 121.625 109.929 121.191 109.663C120.757 109.383 120.267 109.243 119.721 109.243C119.161 109.243 118.664 109.383 118.23 109.663C117.796 109.943 117.453 110.321 117.201 110.797C116.949 111.273 116.83 111.819 116.844 112.435C116.83 113.037 116.949 113.583 117.201 114.073C117.453 114.549 117.796 114.927 118.23 115.207C118.664 115.473 119.161 115.606 119.721 115.606ZM128.916 118V104.077H131.898V118H128.916ZM126.837 109.558V106.891H134.187V109.558H126.837ZM140.165 118.21C139.241 118.21 138.408 117.958 137.666 117.454C136.924 116.95 136.336 116.264 135.902 115.396C135.468 114.528 135.251 113.534 135.251 112.414C135.251 111.294 135.468 110.3 135.902 109.432C136.35 108.564 136.952 107.885 137.708 107.395C138.464 106.905 139.325 106.66 140.291 106.66C140.837 106.66 141.334 106.744 141.782 106.912C142.244 107.066 142.643 107.283 142.979 107.563C143.329 107.843 143.623 108.165 143.861 108.529C144.099 108.893 144.267 109.285 144.365 109.705L143.735 109.6V106.891H146.696V118H143.693V115.333L144.365 115.27C144.253 115.662 144.071 116.033 143.819 116.383C143.567 116.733 143.252 117.048 142.874 117.328C142.51 117.594 142.097 117.811 141.635 117.979C141.173 118.133 140.683 118.21 140.165 118.21ZM140.984 115.627C141.544 115.627 142.034 115.494 142.454 115.228C142.874 114.962 143.196 114.591 143.42 114.115C143.658 113.625 143.777 113.058 143.777 112.414C143.777 111.784 143.658 111.231 143.42 110.755C143.196 110.279 142.874 109.908 142.454 109.642C142.034 109.362 141.544 109.222 140.984 109.222C140.438 109.222 139.955 109.362 139.535 109.642C139.129 109.908 138.807 110.279 138.569 110.755C138.331 111.231 138.212 111.784 138.212 112.414C138.212 113.058 138.331 113.625 138.569 114.115C138.807 114.591 139.129 114.962 139.535 115.228C139.955 115.494 140.438 115.627 140.984 115.627ZM150.756 118V104.077H153.738V118H150.756ZM148.677 109.558V106.891H156.027V109.558H148.677ZM158.202 118V106.891H161.184V118H158.202ZM159.672 104.623C159.098 104.623 158.65 104.483 158.328 104.203C158.006 103.909 157.845 103.503 157.845 102.985C157.845 102.509 158.006 102.124 158.328 101.83C158.664 101.522 159.112 101.368 159.672 101.368C160.246 101.368 160.694 101.515 161.016 101.809C161.338 102.089 161.499 102.481 161.499 102.985C161.499 103.461 161.331 103.853 160.995 104.161C160.673 104.469 160.232 104.623 159.672 104.623ZM169.535 118.21C168.401 118.21 167.386 117.965 166.49 117.475C165.608 116.971 164.908 116.285 164.39 115.417C163.886 114.549 163.634 113.555 163.634 112.435C163.634 111.315 163.886 110.321 164.39 109.453C164.908 108.585 165.608 107.906 166.49 107.416C167.386 106.912 168.401 106.66 169.535 106.66C170.655 106.66 171.656 106.912 172.538 107.416C173.434 107.906 174.134 108.585 174.638 109.453C175.142 110.321 175.394 111.315 175.394 112.435C175.394 113.555 175.142 114.549 174.638 115.417C174.134 116.285 173.434 116.971 172.538 117.475C171.656 117.965 170.655 118.21 169.535 118.21ZM169.535 115.606C170.081 115.606 170.571 115.473 171.005 115.207C171.439 114.927 171.775 114.549 172.013 114.073C172.265 113.583 172.384 113.037 172.37 112.435C172.384 111.819 172.265 111.273 172.013 110.797C171.775 110.307 171.439 109.929 171.005 109.663C170.571 109.383 170.081 109.243 169.535 109.243C168.975 109.243 168.478 109.383 168.044 109.663C167.61 109.943 167.267 110.321 167.015 110.797C166.763 111.273 166.644 111.819 166.658 112.435C166.644 113.037 166.763 113.583 167.015 114.073C167.267 114.549 167.61 114.927 168.044 115.207C168.478 115.473 168.975 115.606 169.535 115.606ZM177.658 118V106.891H180.514L180.598 109.159L180.01 109.411C180.164 108.907 180.437 108.452 180.829 108.046C181.235 107.626 181.718 107.29 182.278 107.038C182.838 106.786 183.426 106.66 184.042 106.66C184.882 106.66 185.582 106.828 186.142 107.164C186.716 107.5 187.143 108.011 187.423 108.697C187.717 109.369 187.864 110.202 187.864 111.196V118H184.882V111.427C184.882 110.923 184.812 110.503 184.672 110.167C184.532 109.831 184.315 109.586 184.021 109.432C183.741 109.278 183.391 109.208 182.971 109.222C182.635 109.222 182.32 109.278 182.026 109.39C181.746 109.488 181.501 109.635 181.291 109.831C181.095 110.027 180.934 110.251 180.808 110.503C180.696 110.755 180.64 111.028 180.64 111.322V118H179.17C178.848 118 178.561 118 178.309 118C178.057 118 177.84 118 177.658 118Z" fill="black"/>
<rect x="83" y="149" width="315" height="170" rx="9" fill="white"/>
<rect x="83" y="329" width="315" height="55" rx="9" fill="white"/>
<path d="M95.31 169V163.04H93.35V162H98.41V163.04H96.39V169H95.31ZM99.6517 169V163.75H100.682V169H99.6517ZM100.152 162.59C99.9317 162.59 99.7617 162.533 99.6417 162.42C99.5217 162.307 99.4617 162.147 99.4617 161.94C99.4617 161.747 99.5217 161.59 99.6417 161.47C99.7684 161.35 99.9384 161.29 100.152 161.29C100.372 161.29 100.542 161.347 100.662 161.46C100.782 161.573 100.842 161.733 100.842 161.94C100.842 162.133 100.778 162.29 100.652 162.41C100.532 162.53 100.365 162.59 100.152 162.59ZM102.915 169V162.41H103.945V169H102.915ZM101.825 164.75V163.75H105.165V164.75H101.825ZM106.123 169V161.6H107.153V169H106.123ZM110.965 169.1C110.425 169.1 109.945 168.987 109.525 168.76C109.112 168.527 108.785 168.21 108.545 167.81C108.312 167.41 108.195 166.95 108.195 166.43C108.195 166.017 108.262 165.64 108.395 165.3C108.528 164.96 108.712 164.667 108.945 164.42C109.185 164.167 109.468 163.973 109.795 163.84C110.128 163.7 110.488 163.63 110.875 163.63C111.215 163.63 111.532 163.697 111.825 163.83C112.118 163.957 112.372 164.133 112.585 164.36C112.805 164.587 112.972 164.857 113.085 165.17C113.205 165.477 113.262 165.813 113.255 166.18L113.245 166.62H108.955L108.725 165.8H112.355L112.205 165.97V165.73C112.185 165.51 112.112 165.313 111.985 165.14C111.858 164.967 111.698 164.83 111.505 164.73C111.312 164.63 111.102 164.58 110.875 164.58C110.515 164.58 110.212 164.65 109.965 164.79C109.718 164.923 109.532 165.123 109.405 165.39C109.278 165.65 109.215 165.973 109.215 166.36C109.215 166.727 109.292 167.047 109.445 167.32C109.598 167.587 109.815 167.793 110.095 167.94C110.375 168.087 110.698 168.16 111.065 168.16C111.325 168.16 111.565 168.117 111.785 168.03C112.012 167.943 112.255 167.787 112.515 167.56L113.035 168.29C112.875 168.45 112.678 168.59 112.445 168.71C112.218 168.83 111.975 168.927 111.715 169C111.462 169.067 111.212 169.1 110.965 169.1Z" fill="#3B3B3B"/>
<rect x="194" y="162" width="180" height="7" rx="3.5" fill="#E4E6EA"/>
<path d="M96.82 192.1C96.3333 192.1 95.8867 192.013 95.48 191.84C95.0733 191.667 94.72 191.42 94.42 191.1C94.12 190.773 93.8867 190.39 93.72 189.95C93.56 189.51 93.48 189.027 93.48 188.5C93.48 188 93.5667 187.537 93.74 187.11C93.92 186.677 94.1667 186.297 94.48 185.97C94.7933 185.643 95.1567 185.39 95.57 185.21C95.9833 185.03 96.43 184.94 96.91 184.94C97.25 184.94 97.58 184.993 97.9 185.1C98.2267 185.2 98.52 185.343 98.78 185.53C99.0467 185.71 99.2633 185.917 99.43 186.15L98.71 186.9C98.5167 186.707 98.32 186.547 98.12 186.42C97.9267 186.287 97.7267 186.187 97.52 186.12C97.32 186.053 97.1167 186.02 96.91 186.02C96.5833 186.02 96.2767 186.083 95.99 186.21C95.71 186.33 95.4633 186.5 95.25 186.72C95.0433 186.94 94.88 187.203 94.76 187.51C94.64 187.81 94.58 188.14 94.58 188.5C94.58 188.88 94.6367 189.227 94.75 189.54C94.87 189.847 95.0367 190.11 95.25 190.33C95.4633 190.55 95.7167 190.72 96.01 190.84C96.31 190.953 96.64 191.01 97 191.01C97.22 191.01 97.4367 190.98 97.65 190.92C97.8633 190.86 98.0633 190.773 98.25 190.66C98.4367 190.547 98.6067 190.413 98.76 190.26L99.3 191.14C99.1467 191.32 98.9367 191.483 98.67 191.63C98.41 191.777 98.1167 191.893 97.79 191.98C97.47 192.06 97.1467 192.1 96.82 192.1ZM102.527 192.1C102.094 192.1 101.697 191.98 101.337 191.74C100.984 191.5 100.7 191.173 100.487 190.76C100.274 190.347 100.167 189.88 100.167 189.36C100.167 188.833 100.274 188.367 100.487 187.96C100.707 187.547 101 187.223 101.367 186.99C101.74 186.757 102.157 186.64 102.617 186.64C102.89 186.64 103.14 186.68 103.367 186.76C103.594 186.84 103.79 186.953 103.957 187.1C104.13 187.24 104.27 187.403 104.377 187.59C104.49 187.777 104.56 187.977 104.587 188.19L104.357 188.11V186.75H105.397V192H104.357V190.75L104.597 190.68C104.557 190.86 104.474 191.037 104.347 191.21C104.227 191.377 104.07 191.527 103.877 191.66C103.69 191.793 103.48 191.9 103.247 191.98C103.02 192.06 102.78 192.1 102.527 192.1ZM102.797 191.15C103.11 191.15 103.387 191.073 103.627 190.92C103.867 190.767 104.054 190.557 104.187 190.29C104.327 190.017 104.397 189.707 104.397 189.36C104.397 189.02 104.327 188.717 104.187 188.45C104.054 188.183 103.867 187.973 103.627 187.82C103.387 187.667 103.11 187.59 102.797 187.59C102.49 187.59 102.217 187.667 101.977 187.82C101.744 187.973 101.557 188.183 101.417 188.45C101.284 188.717 101.217 189.02 101.217 189.36C101.217 189.707 101.284 190.017 101.417 190.29C101.557 190.557 101.744 190.767 101.977 190.92C102.217 191.073 102.49 191.15 102.797 191.15ZM107.485 192V185.41H108.515V192H107.485ZM106.395 187.75V186.75H109.735V187.75H106.395ZM113.074 192.1C112.534 192.1 112.054 191.987 111.634 191.76C111.221 191.527 110.894 191.21 110.654 190.81C110.421 190.41 110.304 189.95 110.304 189.43C110.304 189.017 110.371 188.64 110.504 188.3C110.638 187.96 110.821 187.667 111.054 187.42C111.294 187.167 111.578 186.973 111.904 186.84C112.238 186.7 112.598 186.63 112.984 186.63C113.324 186.63 113.641 186.697 113.934 186.83C114.228 186.957 114.481 187.133 114.694 187.36C114.914 187.587 115.081 187.857 115.194 188.17C115.314 188.477 115.371 188.813 115.364 189.18L115.354 189.62H111.064L110.834 188.8H114.464L114.314 188.97V188.73C114.294 188.51 114.221 188.313 114.094 188.14C113.968 187.967 113.808 187.83 113.614 187.73C113.421 187.63 113.211 187.58 112.984 187.58C112.624 187.58 112.321 187.65 112.074 187.79C111.828 187.923 111.641 188.123 111.514 188.39C111.388 188.65 111.324 188.973 111.324 189.36C111.324 189.727 111.401 190.047 111.554 190.32C111.708 190.587 111.924 190.793 112.204 190.94C112.484 191.087 112.808 191.16 113.174 191.16C113.434 191.16 113.674 191.117 113.894 191.03C114.121 190.943 114.364 190.787 114.624 190.56L115.144 191.29C114.984 191.45 114.788 191.59 114.554 191.71C114.328 191.83 114.084 191.927 113.824 192C113.571 192.067 113.321 192.1 113.074 192.1ZM118.785 194.3C118.412 194.3 118.038 194.24 117.665 194.12C117.298 194.007 117.002 193.857 116.775 193.67L117.155 192.87C117.288 192.97 117.445 193.057 117.625 193.13C117.805 193.21 117.995 193.27 118.195 193.31C118.395 193.357 118.592 193.38 118.785 193.38C119.152 193.38 119.458 193.32 119.705 193.2C119.952 193.08 120.138 192.903 120.265 192.67C120.392 192.437 120.455 192.147 120.455 191.8V190.79L120.565 190.86C120.532 191.067 120.422 191.267 120.235 191.46C120.055 191.647 119.828 191.8 119.555 191.92C119.282 192.04 119.002 192.1 118.715 192.1C118.215 192.1 117.768 191.983 117.375 191.75C116.988 191.51 116.682 191.187 116.455 190.78C116.228 190.367 116.115 189.897 116.115 189.37C116.115 188.843 116.225 188.377 116.445 187.97C116.672 187.557 116.978 187.233 117.365 187C117.758 186.76 118.198 186.64 118.685 186.64C118.885 186.64 119.078 186.667 119.265 186.72C119.452 186.767 119.625 186.837 119.785 186.93C119.945 187.017 120.088 187.113 120.215 187.22C120.342 187.327 120.445 187.44 120.525 187.56C120.605 187.68 120.655 187.793 120.675 187.9L120.455 187.98V186.75H121.485V191.68C121.485 192.1 121.422 192.47 121.295 192.79C121.175 193.117 120.998 193.39 120.765 193.61C120.532 193.837 120.248 194.007 119.915 194.12C119.582 194.24 119.205 194.3 118.785 194.3ZM118.825 191.15C119.152 191.15 119.442 191.073 119.695 190.92C119.948 190.767 120.145 190.557 120.285 190.29C120.425 190.023 120.495 189.717 120.495 189.37C120.495 189.023 120.422 188.717 120.275 188.45C120.135 188.177 119.938 187.963 119.685 187.81C119.438 187.657 119.152 187.58 118.825 187.58C118.505 187.58 118.218 187.66 117.965 187.82C117.718 187.973 117.522 188.187 117.375 188.46C117.235 188.727 117.165 189.03 117.165 189.37C117.165 189.71 117.235 190.017 117.375 190.29C117.522 190.557 117.718 190.767 117.965 190.92C118.218 191.073 118.505 191.15 118.825 191.15ZM125.289 192.1C124.776 192.1 124.316 191.983 123.909 191.75C123.509 191.51 123.192 191.187 122.959 190.78C122.726 190.367 122.609 189.897 122.609 189.37C122.609 188.843 122.726 188.377 122.959 187.97C123.192 187.557 123.509 187.233 123.909 187C124.316 186.76 124.776 186.64 125.289 186.64C125.796 186.64 126.249 186.76 126.649 187C127.056 187.233 127.376 187.557 127.609 187.97C127.842 188.377 127.959 188.843 127.959 189.37C127.959 189.897 127.842 190.367 127.609 190.78C127.376 191.187 127.056 191.51 126.649 191.75C126.249 191.983 125.796 192.1 125.289 192.1ZM125.289 191.16C125.602 191.16 125.882 191.083 126.129 190.93C126.376 190.77 126.569 190.557 126.709 190.29C126.849 190.017 126.916 189.71 126.909 189.37C126.916 189.023 126.849 188.717 126.709 188.45C126.569 188.177 126.376 187.963 126.129 187.81C125.882 187.657 125.602 187.58 125.289 187.58C124.976 187.58 124.692 187.66 124.439 187.82C124.192 187.973 123.999 188.187 123.859 188.46C123.719 188.727 123.652 189.03 123.659 189.37C123.652 189.71 123.719 190.017 123.859 190.29C123.999 190.557 124.192 190.77 124.439 190.93C124.692 191.083 124.976 191.16 125.289 191.16ZM129.081 192V186.75H130.121V188.4L130.021 188C130.095 187.747 130.218 187.517 130.391 187.31C130.571 187.103 130.775 186.94 131.001 186.82C131.235 186.7 131.475 186.64 131.721 186.64C131.835 186.64 131.941 186.65 132.041 186.67C132.148 186.69 132.231 186.713 132.291 186.74L132.021 187.86C131.941 187.827 131.851 187.8 131.751 187.78C131.658 187.753 131.565 187.74 131.471 187.74C131.291 187.74 131.118 187.777 130.951 187.85C130.791 187.917 130.648 188.013 130.521 188.14C130.401 188.26 130.305 188.403 130.231 188.57C130.158 188.73 130.121 188.907 130.121 189.1V192H129.081ZM133.995 194.3L135.055 191.85L135.065 192.67L132.445 186.75H133.645L135.285 190.61C135.318 190.677 135.358 190.78 135.405 190.92C135.451 191.053 135.491 191.187 135.525 191.32L135.265 191.38C135.318 191.24 135.368 191.1 135.415 190.96C135.468 190.82 135.518 190.68 135.565 190.54L136.935 186.75H138.155L135.995 192L135.105 194.3H133.995Z" fill="#3B3B3B"/>
<path d="M93.98 215V208H96.72C97.22 208 97.67 208.083 98.07 208.25C98.4767 208.417 98.8233 208.657 99.11 208.97C99.3967 209.283 99.6167 209.653 99.77 210.08C99.9233 210.507 100 210.98 100 211.5C100 212.02 99.9233 212.497 99.77 212.93C99.6167 213.357 99.3967 213.727 99.11 214.04C98.83 214.347 98.4867 214.583 98.08 214.75C97.6733 214.917 97.22 215 96.72 215H93.98ZM95.06 214.07L95.03 213.96H96.67C97.0233 213.96 97.3367 213.903 97.61 213.79C97.89 213.677 98.1233 213.517 98.31 213.31C98.5033 213.097 98.65 212.837 98.75 212.53C98.85 212.223 98.9 211.88 98.9 211.5C98.9 211.12 98.85 210.78 98.75 210.48C98.65 210.173 98.5033 209.913 98.31 209.7C98.1167 209.487 97.8833 209.323 97.61 209.21C97.3367 209.097 97.0233 209.04 96.67 209.04H95L95.06 208.95V214.07ZM103.22 215.1C102.787 215.1 102.39 214.98 102.03 214.74C101.677 214.5 101.394 214.173 101.18 213.76C100.967 213.347 100.86 212.88 100.86 212.36C100.86 211.833 100.967 211.367 101.18 210.96C101.4 210.547 101.694 210.223 102.06 209.99C102.434 209.757 102.85 209.64 103.31 209.64C103.584 209.64 103.834 209.68 104.06 209.76C104.287 209.84 104.484 209.953 104.65 210.1C104.824 210.24 104.964 210.403 105.07 210.59C105.184 210.777 105.254 210.977 105.28 211.19L105.05 211.11V209.75H106.09V215H105.05V213.75L105.29 213.68C105.25 213.86 105.167 214.037 105.04 214.21C104.92 214.377 104.764 214.527 104.57 214.66C104.384 214.793 104.174 214.9 103.94 214.98C103.714 215.06 103.474 215.1 103.22 215.1ZM103.49 214.15C103.804 214.15 104.08 214.073 104.32 213.92C104.56 213.767 104.747 213.557 104.88 213.29C105.02 213.017 105.09 212.707 105.09 212.36C105.09 212.02 105.02 211.717 104.88 211.45C104.747 211.183 104.56 210.973 104.32 210.82C104.08 210.667 103.804 210.59 103.49 210.59C103.184 210.59 102.91 210.667 102.67 210.82C102.437 210.973 102.25 211.183 102.11 211.45C101.977 211.717 101.91 212.02 101.91 212.36C101.91 212.707 101.977 213.017 102.11 213.29C102.25 213.557 102.437 213.767 102.67 213.92C102.91 214.073 103.184 214.15 103.49 214.15ZM108.179 215V208.41H109.209V215H108.179ZM107.089 210.75V209.75H110.429V210.75H107.089ZM113.768 215.1C113.228 215.1 112.748 214.987 112.328 214.76C111.914 214.527 111.588 214.21 111.348 213.81C111.114 213.41 110.998 212.95 110.998 212.43C110.998 212.017 111.064 211.64 111.198 211.3C111.331 210.96 111.514 210.667 111.748 210.42C111.988 210.167 112.271 209.973 112.598 209.84C112.931 209.7 113.291 209.63 113.678 209.63C114.018 209.63 114.334 209.697 114.628 209.83C114.921 209.957 115.174 210.133 115.388 210.36C115.608 210.587 115.774 210.857 115.888 211.17C116.008 211.477 116.064 211.813 116.058 212.18L116.048 212.62H111.758L111.528 211.8H115.158L115.008 211.97V211.73C114.988 211.51 114.914 211.313 114.788 211.14C114.661 210.967 114.501 210.83 114.308 210.73C114.114 210.63 113.904 210.58 113.678 210.58C113.318 210.58 113.014 210.65 112.768 210.79C112.521 210.923 112.334 211.123 112.208 211.39C112.081 211.65 112.018 211.973 112.018 212.36C112.018 212.727 112.094 213.047 112.248 213.32C112.401 213.587 112.618 213.793 112.898 213.94C113.178 214.087 113.501 214.16 113.868 214.16C114.128 214.16 114.368 214.117 114.588 214.03C114.814 213.943 115.058 213.787 115.318 213.56L115.838 214.29C115.678 214.45 115.481 214.59 115.248 214.71C115.021 214.83 114.778 214.927 114.518 215C114.264 215.067 114.014 215.1 113.768 215.1ZM123.08 215.1C122.593 215.1 122.146 215.013 121.74 214.84C121.333 214.667 120.98 214.42 120.68 214.1C120.38 213.773 120.146 213.39 119.98 212.95C119.82 212.51 119.74 212.027 119.74 211.5C119.74 211 119.826 210.537 120 210.11C120.18 209.677 120.426 209.297 120.74 208.97C121.053 208.643 121.416 208.39 121.83 208.21C122.243 208.03 122.69 207.94 123.17 207.94C123.51 207.94 123.84 207.993 124.16 208.1C124.486 208.2 124.78 208.343 125.04 208.53C125.306 208.71 125.523 208.917 125.69 209.15L124.97 209.9C124.776 209.707 124.58 209.547 124.38 209.42C124.186 209.287 123.986 209.187 123.78 209.12C123.58 209.053 123.376 209.02 123.17 209.02C122.843 209.02 122.536 209.083 122.25 209.21C121.97 209.33 121.723 209.5 121.51 209.72C121.303 209.94 121.14 210.203 121.02 210.51C120.9 210.81 120.84 211.14 120.84 211.5C120.84 211.88 120.896 212.227 121.01 212.54C121.13 212.847 121.296 213.11 121.51 213.33C121.723 213.55 121.976 213.72 122.27 213.84C122.57 213.953 122.9 214.01 123.26 214.01C123.48 214.01 123.696 213.98 123.91 213.92C124.123 213.86 124.323 213.773 124.51 213.66C124.696 213.547 124.866 213.413 125.02 213.26L125.56 214.14C125.406 214.32 125.196 214.483 124.93 214.63C124.67 214.777 124.376 214.893 124.05 214.98C123.73 215.06 123.406 215.1 123.08 215.1ZM126.767 215V209.75H127.807V211.4L127.707 211C127.78 210.747 127.904 210.517 128.077 210.31C128.257 210.103 128.46 209.94 128.687 209.82C128.92 209.7 129.16 209.64 129.407 209.64C129.52 209.64 129.627 209.65 129.727 209.67C129.834 209.69 129.917 209.713 129.977 209.74L129.707 210.86C129.627 210.827 129.537 210.8 129.437 210.78C129.344 210.753 129.25 210.74 129.157 210.74C128.977 210.74 128.804 210.777 128.637 210.85C128.477 210.917 128.334 211.013 128.207 211.14C128.087 211.26 127.99 211.403 127.917 211.57C127.844 211.73 127.807 211.907 127.807 212.1V215H126.767ZM133.025 215.1C132.485 215.1 132.005 214.987 131.585 214.76C131.172 214.527 130.845 214.21 130.605 213.81C130.372 213.41 130.255 212.95 130.255 212.43C130.255 212.017 130.322 211.64 130.455 211.3C130.589 210.96 130.772 210.667 131.005 210.42C131.245 210.167 131.529 209.973 131.855 209.84C132.189 209.7 132.549 209.63 132.935 209.63C133.275 209.63 133.592 209.697 133.885 209.83C134.179 209.957 134.432 210.133 134.645 210.36C134.865 210.587 135.032 210.857 135.145 211.17C135.265 211.477 135.322 211.813 135.315 212.18L135.305 212.62H131.015L130.785 211.8H134.415L134.265 211.97V211.73C134.245 211.51 134.172 211.313 134.045 211.14C133.919 210.967 133.759 210.83 133.565 210.73C133.372 210.63 133.162 210.58 132.935 210.58C132.575 210.58 132.272 210.65 132.025 210.79C131.779 210.923 131.592 211.123 131.465 211.39C131.339 211.65 131.275 211.973 131.275 212.36C131.275 212.727 131.352 213.047 131.505 213.32C131.659 213.587 131.875 213.793 132.155 213.94C132.435 214.087 132.759 214.16 133.125 214.16C133.385 214.16 133.625 214.117 133.845 214.03C134.072 213.943 134.315 213.787 134.575 213.56L135.095 214.29C134.935 214.45 134.739 214.59 134.505 214.71C134.279 214.83 134.035 214.927 133.775 215C133.522 215.067 133.272 215.1 133.025 215.1ZM138.455 215.1C138.022 215.1 137.625 214.98 137.265 214.74C136.912 214.5 136.628 214.173 136.415 213.76C136.202 213.347 136.095 212.88 136.095 212.36C136.095 211.833 136.202 211.367 136.415 210.96C136.635 210.547 136.928 210.223 137.295 209.99C137.668 209.757 138.085 209.64 138.545 209.64C138.818 209.64 139.068 209.68 139.295 209.76C139.522 209.84 139.718 209.953 139.885 210.1C140.058 210.24 140.198 210.403 140.305 210.59C140.418 210.777 140.488 210.977 140.515 211.19L140.285 211.11V209.75H141.325V215H140.285V213.75L140.525 213.68C140.485 213.86 140.402 214.037 140.275 214.21C140.155 214.377 139.998 214.527 139.805 214.66C139.618 214.793 139.408 214.9 139.175 214.98C138.948 215.06 138.708 215.1 138.455 215.1ZM138.725 214.15C139.038 214.15 139.315 214.073 139.555 213.92C139.795 213.767 139.982 213.557 140.115 213.29C140.255 213.017 140.325 212.707 140.325 212.36C140.325 212.02 140.255 211.717 140.115 211.45C139.982 211.183 139.795 210.973 139.555 210.82C139.315 210.667 139.038 210.59 138.725 210.59C138.418 210.59 138.145 210.667 137.905 210.82C137.672 210.973 137.485 211.183 137.345 211.45C137.212 211.717 137.145 212.02 137.145 212.36C137.145 212.707 137.212 213.017 137.345 213.29C137.485 213.557 137.672 213.767 137.905 213.92C138.145 214.073 138.418 214.15 138.725 214.15ZM143.413 215V208.41H144.443V215H143.413ZM142.323 210.75V209.75H145.663V210.75H142.323ZM149.002 215.1C148.462 215.1 147.982 214.987 147.562 214.76C147.149 214.527 146.822 214.21 146.582 213.81C146.349 213.41 146.232 212.95 146.232 212.43C146.232 212.017 146.299 211.64 146.432 211.3C146.565 210.96 146.749 210.667 146.982 210.42C147.222 210.167 147.505 209.973 147.832 209.84C148.165 209.7 148.525 209.63 148.912 209.63C149.252 209.63 149.569 209.697 149.862 209.83C150.155 209.957 150.409 210.133 150.622 210.36C150.842 210.587 151.009 210.857 151.122 211.17C151.242 211.477 151.299 211.813 151.292 212.18L151.282 212.62H146.992L146.762 211.8H150.392L150.242 211.97V211.73C150.222 211.51 150.149 211.313 150.022 211.14C149.895 210.967 149.735 210.83 149.542 210.73C149.349 210.63 149.139 210.58 148.912 210.58C148.552 210.58 148.249 210.65 148.002 210.79C147.755 210.923 147.569 211.123 147.442 211.39C147.315 211.65 147.252 211.973 147.252 212.36C147.252 212.727 147.329 213.047 147.482 213.32C147.635 213.587 147.852 213.793 148.132 213.94C148.412 214.087 148.735 214.16 149.102 214.16C149.362 214.16 149.602 214.117 149.822 214.03C150.049 213.943 150.292 213.787 150.552 213.56L151.072 214.29C150.912 214.45 150.715 214.59 150.482 214.71C150.255 214.83 150.012 214.927 149.752 215C149.499 215.067 149.249 215.1 149.002 215.1ZM154.601 215.1C154.121 215.1 153.691 214.983 153.311 214.75C152.938 214.51 152.641 214.187 152.421 213.78C152.201 213.367 152.091 212.897 152.091 212.37C152.091 211.843 152.198 211.377 152.411 210.97C152.631 210.557 152.928 210.233 153.301 210C153.675 209.76 154.098 209.64 154.571 209.64C154.831 209.64 155.081 209.683 155.321 209.77C155.568 209.85 155.788 209.963 155.981 210.11C156.175 210.25 156.325 210.407 156.431 210.58C156.545 210.747 156.601 210.917 156.601 211.09L156.301 211.11V207.6H157.331V215H156.301V213.75H156.501C156.501 213.91 156.448 214.07 156.341 214.23C156.235 214.383 156.091 214.527 155.911 214.66C155.738 214.793 155.535 214.9 155.301 214.98C155.075 215.06 154.841 215.1 154.601 215.1ZM154.741 214.21C155.055 214.21 155.331 214.13 155.571 213.97C155.811 213.81 155.998 213.593 156.131 213.32C156.271 213.04 156.341 212.723 156.341 212.37C156.341 212.017 156.271 211.703 156.131 211.43C155.998 211.15 155.811 210.93 155.571 210.77C155.331 210.61 155.055 210.53 154.741 210.53C154.428 210.53 154.151 210.61 153.911 210.77C153.671 210.93 153.481 211.15 153.341 211.43C153.208 211.703 153.141 212.017 153.141 212.37C153.141 212.723 153.208 213.04 153.341 213.32C153.481 213.593 153.671 213.81 153.911 213.97C154.151 214.13 154.428 214.21 154.741 214.21Z" fill="#3B3B3B"/>
<path d="M93.98 350V343H96.96C97.36 343 97.7267 343.1 98.06 343.3C98.4 343.493 98.67 343.76 98.87 344.1C99.07 344.433 99.17 344.81 99.17 345.23C99.17 345.61 99.07 345.963 98.87 346.29C98.67 346.617 98.4033 346.88 98.07 347.08C97.7367 347.273 97.3667 347.37 96.96 347.37H95.06V350H93.98ZM98.14 350L96.36 346.84L97.47 346.59L99.45 350.01L98.14 350ZM95.06 346.33H97.06C97.2533 346.33 97.4267 346.283 97.58 346.19C97.7333 346.09 97.8533 345.957 97.94 345.79C98.0267 345.617 98.07 345.427 98.07 345.22C98.07 344.987 98.0133 344.783 97.9 344.61C97.7933 344.43 97.64 344.29 97.44 344.19C97.2467 344.09 97.0267 344.04 96.78 344.04H95.06V346.33ZM102.498 350.1C102.064 350.1 101.668 349.98 101.308 349.74C100.954 349.5 100.671 349.173 100.458 348.76C100.244 348.347 100.138 347.88 100.138 347.36C100.138 346.833 100.244 346.367 100.458 345.96C100.678 345.547 100.971 345.223 101.338 344.99C101.711 344.757 102.128 344.64 102.588 344.64C102.861 344.64 103.111 344.68 103.338 344.76C103.564 344.84 103.761 344.953 103.928 345.1C104.101 345.24 104.241 345.403 104.348 345.59C104.461 345.777 104.531 345.977 104.558 346.19L104.328 346.11V344.75H105.368V350H104.328V348.75L104.568 348.68C104.528 348.86 104.444 349.037 104.318 349.21C104.198 349.377 104.041 349.527 103.848 349.66C103.661 349.793 103.451 349.9 103.218 349.98C102.991 350.06 102.751 350.1 102.498 350.1ZM102.768 349.15C103.081 349.15 103.358 349.073 103.598 348.92C103.838 348.767 104.024 348.557 104.158 348.29C104.298 348.017 104.368 347.707 104.368 347.36C104.368 347.02 104.298 346.717 104.158 346.45C104.024 346.183 103.838 345.973 103.598 345.82C103.358 345.667 103.081 345.59 102.768 345.59C102.461 345.59 102.188 345.667 101.948 345.82C101.714 345.973 101.528 346.183 101.388 346.45C101.254 346.717 101.188 347.02 101.188 347.36C101.188 347.707 101.254 348.017 101.388 348.29C101.528 348.557 101.714 348.767 101.948 348.92C102.188 349.073 102.461 349.15 102.768 349.15ZM106.976 350V344.75H108.006V350H106.976ZM107.476 343.59C107.256 343.59 107.086 343.533 106.966 343.42C106.846 343.307 106.786 343.147 106.786 342.94C106.786 342.747 106.846 342.59 106.966 342.47C107.093 342.35 107.263 342.29 107.476 342.29C107.696 342.29 107.866 342.347 107.986 342.46C108.106 342.573 108.166 342.733 108.166 342.94C108.166 343.133 108.103 343.29 107.976 343.41C107.856 343.53 107.689 343.59 107.476 343.59ZM111.339 350.1C110.899 350.1 110.502 350.023 110.149 349.87C109.796 349.717 109.502 349.49 109.269 349.19L109.969 348.59C110.169 348.823 110.386 348.993 110.619 349.1C110.859 349.2 111.129 349.25 111.429 349.25C111.549 349.25 111.659 349.237 111.759 349.21C111.866 349.177 111.956 349.13 112.029 349.07C112.109 349.01 112.169 348.94 112.209 348.86C112.249 348.773 112.269 348.68 112.269 348.58C112.269 348.407 112.206 348.267 112.079 348.16C112.012 348.113 111.906 348.063 111.759 348.01C111.619 347.95 111.436 347.89 111.209 347.83C110.822 347.73 110.506 347.617 110.259 347.49C110.012 347.363 109.822 347.22 109.689 347.06C109.589 346.933 109.516 346.797 109.469 346.65C109.422 346.497 109.399 346.33 109.399 346.15C109.399 345.93 109.446 345.73 109.539 345.55C109.639 345.363 109.772 345.203 109.939 345.07C110.112 344.93 110.312 344.823 110.539 344.75C110.772 344.677 111.019 344.64 111.279 344.64C111.526 344.64 111.769 344.673 112.009 344.74C112.256 344.807 112.482 344.903 112.689 345.03C112.896 345.157 113.069 345.307 113.209 345.48L112.619 346.13C112.492 346.003 112.352 345.893 112.199 345.8C112.052 345.7 111.902 345.623 111.749 345.57C111.596 345.517 111.456 345.49 111.329 345.49C111.189 345.49 111.062 345.503 110.949 345.53C110.836 345.557 110.739 345.597 110.659 345.65C110.586 345.703 110.529 345.77 110.489 345.85C110.449 345.93 110.429 346.02 110.429 346.12C110.436 346.207 110.456 346.29 110.489 346.37C110.529 346.443 110.582 346.507 110.649 346.56C110.722 346.613 110.832 346.67 110.979 346.73C111.126 346.79 111.312 346.847 111.539 346.9C111.872 346.987 112.146 347.083 112.359 347.19C112.579 347.29 112.752 347.407 112.879 347.54C113.012 347.667 113.106 347.813 113.159 347.98C113.212 348.147 113.239 348.333 113.239 348.54C113.239 348.84 113.152 349.11 112.979 349.35C112.812 349.583 112.586 349.767 112.299 349.9C112.012 350.033 111.692 350.1 111.339 350.1ZM116.824 350.1C116.284 350.1 115.804 349.987 115.384 349.76C114.971 349.527 114.644 349.21 114.404 348.81C114.171 348.41 114.054 347.95 114.054 347.43C114.054 347.017 114.121 346.64 114.254 346.3C114.388 345.96 114.571 345.667 114.804 345.42C115.044 345.167 115.328 344.973 115.654 344.84C115.988 344.7 116.348 344.63 116.734 344.63C117.074 344.63 117.391 344.697 117.684 344.83C117.978 344.957 118.231 345.133 118.444 345.36C118.664 345.587 118.831 345.857 118.944 346.17C119.064 346.477 119.121 346.813 119.114 347.18L119.104 347.62H114.814L114.584 346.8H118.214L118.064 346.97V346.73C118.044 346.51 117.971 346.313 117.844 346.14C117.718 345.967 117.558 345.83 117.364 345.73C117.171 345.63 116.961 345.58 116.734 345.58C116.374 345.58 116.071 345.65 115.824 345.79C115.578 345.923 115.391 346.123 115.264 346.39C115.138 346.65 115.074 346.973 115.074 347.36C115.074 347.727 115.151 348.047 115.304 348.32C115.458 348.587 115.674 348.793 115.954 348.94C116.234 349.087 116.558 349.16 116.924 349.16C117.184 349.16 117.424 349.117 117.644 349.03C117.871 348.943 118.114 348.787 118.374 348.56L118.894 349.29C118.734 349.45 118.538 349.59 118.304 349.71C118.078 349.83 117.834 349.927 117.574 350C117.321 350.067 117.071 350.1 116.824 350.1ZM122.424 350.1C121.944 350.1 121.514 349.983 121.134 349.75C120.76 349.51 120.464 349.187 120.244 348.78C120.024 348.367 119.914 347.897 119.914 347.37C119.914 346.843 120.02 346.377 120.234 345.97C120.454 345.557 120.75 345.233 121.124 345C121.497 344.76 121.92 344.64 122.394 344.64C122.654 344.64 122.904 344.683 123.144 344.77C123.39 344.85 123.61 344.963 123.804 345.11C123.997 345.25 124.147 345.407 124.254 345.58C124.367 345.747 124.424 345.917 124.424 346.09L124.124 346.11V342.6H125.154V350H124.124V348.75H124.324C124.324 348.91 124.27 349.07 124.164 349.23C124.057 349.383 123.914 349.527 123.734 349.66C123.56 349.793 123.357 349.9 123.124 349.98C122.897 350.06 122.664 350.1 122.424 350.1ZM122.564 349.21C122.877 349.21 123.154 349.13 123.394 348.97C123.634 348.81 123.82 348.593 123.954 348.32C124.094 348.04 124.164 347.723 124.164 347.37C124.164 347.017 124.094 346.703 123.954 346.43C123.82 346.15 123.634 345.93 123.394 345.77C123.154 345.61 122.877 345.53 122.564 345.53C122.25 345.53 121.974 345.61 121.734 345.77C121.494 345.93 121.304 346.15 121.164 346.43C121.03 346.703 120.964 347.017 120.964 347.37C120.964 347.723 121.03 348.04 121.164 348.32C121.304 348.593 121.494 348.81 121.734 348.97C121.974 349.13 122.25 349.21 122.564 349.21ZM132.134 350.1C131.908 350.1 131.681 350.063 131.454 349.99C131.234 349.917 131.031 349.82 130.844 349.7C130.664 349.573 130.511 349.437 130.384 349.29C130.264 349.137 130.184 348.983 130.144 348.83L130.404 348.69V349.97H129.374V342.6H130.404V345.95L130.244 345.86C130.278 345.707 130.351 345.56 130.464 345.42C130.578 345.273 130.721 345.143 130.894 345.03C131.074 344.91 131.268 344.817 131.474 344.75C131.681 344.677 131.891 344.64 132.104 344.64C132.578 344.64 132.998 344.757 133.364 344.99C133.731 345.223 134.021 345.547 134.234 345.96C134.448 346.367 134.554 346.833 134.554 347.36C134.554 347.887 134.448 348.357 134.234 348.77C134.028 349.183 133.741 349.51 133.374 349.75C133.008 349.983 132.594 350.1 132.134 350.1ZM131.964 349.16C132.271 349.16 132.544 349.083 132.784 348.93C133.024 348.77 133.214 348.557 133.354 348.29C133.494 348.017 133.564 347.707 133.564 347.36C133.564 347.02 133.494 346.717 133.354 346.45C133.221 346.177 133.034 345.963 132.794 345.81C132.554 345.657 132.278 345.58 131.964 345.58C131.651 345.58 131.374 345.657 131.134 345.81C130.894 345.963 130.704 346.177 130.564 346.45C130.424 346.717 130.354 347.02 130.354 347.36C130.354 347.707 130.424 348.017 130.564 348.29C130.704 348.557 130.894 348.77 131.134 348.93C131.374 349.083 131.651 349.16 131.964 349.16ZM136.358 352.3L137.418 349.85L137.428 350.67L134.808 344.75H136.008L137.648 348.61C137.681 348.677 137.721 348.78 137.768 348.92C137.814 349.053 137.854 349.187 137.888 349.32L137.628 349.38C137.681 349.24 137.731 349.1 137.778 348.96C137.831 348.82 137.881 348.68 137.928 348.54L139.298 344.75H140.518L138.358 350L137.468 352.3H136.358Z" fill="#3B3B3B"/>
<path d="M93.98 370V363H96.96C97.36 363 97.7267 363.1 98.06 363.3C98.4 363.493 98.67 363.76 98.87 364.1C99.07 364.433 99.17 364.81 99.17 365.23C99.17 365.61 99.07 365.963 98.87 366.29C98.67 366.617 98.4033 366.88 98.07 367.08C97.7367 367.273 97.3667 367.37 96.96 367.37H95.06V370H93.98ZM98.14 370L96.36 366.84L97.47 366.59L99.45 370.01L98.14 370ZM95.06 366.33H97.06C97.2533 366.33 97.4267 366.283 97.58 366.19C97.7333 366.09 97.8533 365.957 97.94 365.79C98.0267 365.617 98.07 365.427 98.07 365.22C98.07 364.987 98.0133 364.783 97.9 364.61C97.7933 364.43 97.64 364.29 97.44 364.19C97.2467 364.09 97.0267 364.04 96.78 364.04H95.06V366.33ZM102.928 370.1C102.388 370.1 101.908 369.987 101.488 369.76C101.074 369.527 100.748 369.21 100.508 368.81C100.274 368.41 100.158 367.95 100.158 367.43C100.158 367.017 100.224 366.64 100.358 366.3C100.491 365.96 100.674 365.667 100.908 365.42C101.148 365.167 101.431 364.973 101.758 364.84C102.091 364.7 102.451 364.63 102.838 364.63C103.178 364.63 103.494 364.697 103.788 364.83C104.081 364.957 104.334 365.133 104.548 365.36C104.768 365.587 104.934 365.857 105.048 366.17C105.168 366.477 105.224 366.813 105.218 367.18L105.208 367.62H100.918L100.688 366.8H104.318L104.168 366.97V366.73C104.148 366.51 104.074 366.313 103.948 366.14C103.821 365.967 103.661 365.83 103.468 365.73C103.274 365.63 103.064 365.58 102.838 365.58C102.478 365.58 102.174 365.65 101.928 365.79C101.681 365.923 101.494 366.123 101.368 366.39C101.241 366.65 101.178 366.973 101.178 367.36C101.178 367.727 101.254 368.047 101.408 368.32C101.561 368.587 101.778 368.793 102.058 368.94C102.338 369.087 102.661 369.16 103.028 369.16C103.288 369.16 103.528 369.117 103.748 369.03C103.974 368.943 104.218 368.787 104.478 368.56L104.998 369.29C104.838 369.45 104.641 369.59 104.408 369.71C104.181 369.83 103.938 369.927 103.678 370C103.424 370.067 103.174 370.1 102.928 370.1ZM108.087 370.1C107.647 370.1 107.251 370.023 106.897 369.87C106.544 369.717 106.251 369.49 106.017 369.19L106.717 368.59C106.917 368.823 107.134 368.993 107.367 369.1C107.607 369.2 107.877 369.25 108.177 369.25C108.297 369.25 108.407 369.237 108.507 369.21C108.614 369.177 108.704 369.13 108.777 369.07C108.857 369.01 108.917 368.94 108.957 368.86C108.997 368.773 109.017 368.68 109.017 368.58C109.017 368.407 108.954 368.267 108.827 368.16C108.761 368.113 108.654 368.063 108.507 368.01C108.367 367.95 108.184 367.89 107.957 367.83C107.571 367.73 107.254 367.617 107.007 367.49C106.761 367.363 106.571 367.22 106.437 367.06C106.337 366.933 106.264 366.797 106.217 366.65C106.171 366.497 106.147 366.33 106.147 366.15C106.147 365.93 106.194 365.73 106.287 365.55C106.387 365.363 106.521 365.203 106.687 365.07C106.861 364.93 107.061 364.823 107.287 364.75C107.521 364.677 107.767 364.64 108.027 364.64C108.274 364.64 108.517 364.673 108.757 364.74C109.004 364.807 109.231 364.903 109.437 365.03C109.644 365.157 109.817 365.307 109.957 365.48L109.367 366.13C109.241 366.003 109.101 365.893 108.947 365.8C108.801 365.7 108.651 365.623 108.497 365.57C108.344 365.517 108.204 365.49 108.077 365.49C107.937 365.49 107.811 365.503 107.697 365.53C107.584 365.557 107.487 365.597 107.407 365.65C107.334 365.703 107.277 365.77 107.237 365.85C107.197 365.93 107.177 366.02 107.177 366.12C107.184 366.207 107.204 366.29 107.237 366.37C107.277 366.443 107.331 366.507 107.397 366.56C107.471 366.613 107.581 366.67 107.727 366.73C107.874 366.79 108.061 366.847 108.287 366.9C108.621 366.987 108.894 367.083 109.107 367.19C109.327 367.29 109.501 367.407 109.627 367.54C109.761 367.667 109.854 367.813 109.907 367.98C109.961 368.147 109.987 368.333 109.987 368.54C109.987 368.84 109.901 369.11 109.727 369.35C109.561 369.583 109.334 369.767 109.047 369.9C108.761 370.033 108.441 370.1 108.087 370.1ZM111.122 372.2V364.75H112.162V365.95L112.002 365.86C112.042 365.66 112.156 365.47 112.342 365.29C112.529 365.103 112.756 364.953 113.022 364.84C113.296 364.72 113.576 364.66 113.862 364.66C114.336 364.66 114.756 364.777 115.122 365.01C115.489 365.243 115.779 365.563 115.992 365.97C116.206 366.377 116.312 366.843 116.312 367.37C116.312 367.89 116.206 368.357 115.992 368.77C115.786 369.177 115.499 369.5 115.132 369.74C114.766 369.973 114.352 370.09 113.892 370.09C113.586 370.09 113.289 370.03 113.002 369.91C112.716 369.783 112.472 369.623 112.272 369.43C112.072 369.237 111.949 369.037 111.902 368.83L112.162 368.69V372.2H111.122ZM113.722 369.14C114.029 369.14 114.302 369.063 114.542 368.91C114.782 368.757 114.972 368.547 115.112 368.28C115.252 368.013 115.322 367.71 115.322 367.37C115.322 367.03 115.252 366.73 115.112 366.47C114.979 366.203 114.792 365.993 114.552 365.84C114.312 365.687 114.036 365.61 113.722 365.61C113.409 365.61 113.132 365.687 112.892 365.84C112.652 365.987 112.462 366.193 112.322 366.46C112.182 366.727 112.112 367.03 112.112 367.37C112.112 367.71 112.182 368.013 112.322 368.28C112.462 368.547 112.652 368.757 112.892 368.91C113.132 369.063 113.409 369.14 113.722 369.14ZM119.791 370.1C119.278 370.1 118.818 369.983 118.411 369.75C118.011 369.51 117.694 369.187 117.461 368.78C117.228 368.367 117.111 367.897 117.111 367.37C117.111 366.843 117.228 366.377 117.461 365.97C117.694 365.557 118.011 365.233 118.411 365C118.818 364.76 119.278 364.64 119.791 364.64C120.298 364.64 120.751 364.76 121.151 365C121.558 365.233 121.878 365.557 122.111 365.97C122.344 366.377 122.461 366.843 122.461 367.37C122.461 367.897 122.344 368.367 122.111 368.78C121.878 369.187 121.558 369.51 121.151 369.75C120.751 369.983 120.298 370.1 119.791 370.1ZM119.791 369.16C120.104 369.16 120.384 369.083 120.631 368.93C120.878 368.77 121.071 368.557 121.211 368.29C121.351 368.017 121.418 367.71 121.411 367.37C121.418 367.023 121.351 366.717 121.211 366.45C121.071 366.177 120.878 365.963 120.631 365.81C120.384 365.657 120.104 365.58 119.791 365.58C119.478 365.58 119.194 365.66 118.941 365.82C118.694 365.973 118.501 366.187 118.361 366.46C118.221 366.727 118.154 367.03 118.161 367.37C118.154 367.71 118.221 368.017 118.361 368.29C118.501 368.557 118.694 368.77 118.941 368.93C119.194 369.083 119.478 369.16 119.791 369.16ZM123.583 370V364.75H124.613V365.83L124.433 365.95C124.5 365.717 124.63 365.503 124.823 365.31C125.017 365.11 125.247 364.95 125.513 364.83C125.78 364.703 126.053 364.64 126.333 364.64C126.733 364.64 127.067 364.72 127.333 364.88C127.6 365.033 127.8 365.27 127.933 365.59C128.067 365.91 128.133 366.313 128.133 366.8V370H127.103V366.87C127.103 366.57 127.063 366.323 126.983 366.13C126.903 365.93 126.78 365.787 126.613 365.7C126.447 365.607 126.24 365.567 125.993 365.58C125.793 365.58 125.61 365.613 125.443 365.68C125.277 365.74 125.13 365.827 125.003 365.94C124.883 366.053 124.787 366.187 124.713 366.34C124.647 366.487 124.613 366.647 124.613 366.82V370H124.103C124.017 370 123.93 370 123.843 370C123.757 370 123.67 370 123.583 370ZM131.281 370.1C130.841 370.1 130.444 370.023 130.091 369.87C129.737 369.717 129.444 369.49 129.211 369.19L129.911 368.59C130.111 368.823 130.327 368.993 130.561 369.1C130.801 369.2 131.071 369.25 131.371 369.25C131.491 369.25 131.601 369.237 131.701 369.21C131.807 369.177 131.897 369.13 131.971 369.07C132.051 369.01 132.111 368.94 132.151 368.86C132.191 368.773 132.211 368.68 132.211 368.58C132.211 368.407 132.147 368.267 132.021 368.16C131.954 368.113 131.847 368.063 131.701 368.01C131.561 367.95 131.377 367.89 131.151 367.83C130.764 367.73 130.447 367.617 130.201 367.49C129.954 367.363 129.764 367.22 129.631 367.06C129.531 366.933 129.457 366.797 129.411 366.65C129.364 366.497 129.341 366.33 129.341 366.15C129.341 365.93 129.387 365.73 129.481 365.55C129.581 365.363 129.714 365.203 129.881 365.07C130.054 364.93 130.254 364.823 130.481 364.75C130.714 364.677 130.961 364.64 131.221 364.64C131.467 364.64 131.711 364.673 131.951 364.74C132.197 364.807 132.424 364.903 132.631 365.03C132.837 365.157 133.011 365.307 133.151 365.48L132.561 366.13C132.434 366.003 132.294 365.893 132.141 365.8C131.994 365.7 131.844 365.623 131.691 365.57C131.537 365.517 131.397 365.49 131.271 365.49C131.131 365.49 131.004 365.503 130.891 365.53C130.777 365.557 130.681 365.597 130.601 365.65C130.527 365.703 130.471 365.77 130.431 365.85C130.391 365.93 130.371 366.02 130.371 366.12C130.377 366.207 130.397 366.29 130.431 366.37C130.471 366.443 130.524 366.507 130.591 366.56C130.664 366.613 130.774 366.67 130.921 366.73C131.067 366.79 131.254 366.847 131.481 366.9C131.814 366.987 132.087 367.083 132.301 367.19C132.521 367.29 132.694 367.407 132.821 367.54C132.954 367.667 133.047 367.813 133.101 367.98C133.154 368.147 133.181 368.333 133.181 368.54C133.181 368.84 133.094 369.11 132.921 369.35C132.754 369.583 132.527 369.767 132.241 369.9C131.954 370.033 131.634 370.1 131.281 370.1ZM134.486 370V364.75H135.516V370H134.486ZM134.986 363.59C134.766 363.59 134.596 363.533 134.476 363.42C134.356 363.307 134.296 363.147 134.296 362.94C134.296 362.747 134.356 362.59 134.476 362.47C134.602 362.35 134.772 362.29 134.986 362.29C135.206 362.29 135.376 362.347 135.496 362.46C135.616 362.573 135.676 362.733 135.676 362.94C135.676 363.133 135.612 363.29 135.486 363.41C135.366 363.53 135.199 363.59 134.986 363.59ZM139.859 370.1C139.632 370.1 139.406 370.063 139.179 369.99C138.959 369.917 138.756 369.82 138.569 369.7C138.389 369.573 138.236 369.437 138.109 369.29C137.989 369.137 137.909 368.983 137.869 368.83L138.129 368.69V369.97H137.099V362.6H138.129V365.95L137.969 365.86C138.002 365.707 138.076 365.56 138.189 365.42C138.302 365.273 138.446 365.143 138.619 365.03C138.799 364.91 138.992 364.817 139.199 364.75C139.406 364.677 139.616 364.64 139.829 364.64C140.302 364.64 140.722 364.757 141.089 364.99C141.456 365.223 141.746 365.547 141.959 365.96C142.172 366.367 142.279 366.833 142.279 367.36C142.279 367.887 142.172 368.357 141.959 368.77C141.752 369.183 141.466 369.51 141.099 369.75C140.732 369.983 140.319 370.1 139.859 370.1ZM139.689 369.16C139.996 369.16 140.269 369.083 140.509 368.93C140.749 368.77 140.939 368.557 141.079 368.29C141.219 368.017 141.289 367.707 141.289 367.36C141.289 367.02 141.219 366.717 141.079 366.45C140.946 366.177 140.759 365.963 140.519 365.81C140.279 365.657 140.002 365.58 139.689 365.58C139.376 365.58 139.099 365.657 138.859 365.81C138.619 365.963 138.429 366.177 138.289 366.45C138.149 366.717 138.079 367.02 138.079 367.36C138.079 367.707 138.149 368.017 138.289 368.29C138.429 368.557 138.619 368.77 138.859 368.93C139.099 369.083 139.376 369.16 139.689 369.16ZM143.418 370V362.6H144.448V370H143.418ZM148.26 370.1C147.72 370.1 147.24 369.987 146.82 369.76C146.407 369.527 146.08 369.21 145.84 368.81C145.607 368.41 145.49 367.95 145.49 367.43C145.49 367.017 145.557 366.64 145.69 366.3C145.823 365.96 146.007 365.667 146.24 365.42C146.48 365.167 146.763 364.973 147.09 364.84C147.423 364.7 147.783 364.63 148.17 364.63C148.51 364.63 148.827 364.697 149.12 364.83C149.413 364.957 149.667 365.133 149.88 365.36C150.1 365.587 150.267 365.857 150.38 366.17C150.5 366.477 150.557 366.813 150.55 367.18L150.54 367.62H146.25L146.02 366.8H149.65L149.5 366.97V366.73C149.48 366.51 149.407 366.313 149.28 366.14C149.153 365.967 148.993 365.83 148.8 365.73C148.607 365.63 148.397 365.58 148.17 365.58C147.81 365.58 147.507 365.65 147.26 365.79C147.013 365.923 146.827 366.123 146.7 366.39C146.573 366.65 146.51 366.973 146.51 367.36C146.51 367.727 146.587 368.047 146.74 368.32C146.893 368.587 147.11 368.793 147.39 368.94C147.67 369.087 147.993 369.16 148.36 369.16C148.62 369.16 148.86 369.117 149.08 369.03C149.307 368.943 149.55 368.787 149.81 368.56L150.33 369.29C150.17 369.45 149.973 369.59 149.74 369.71C149.513 369.83 149.27 369.927 149.01 370C148.757 370.067 148.507 370.1 148.26 370.1ZM154.732 370V363H157.582C157.962 363 158.305 363.097 158.612 363.29C158.925 363.477 159.175 363.733 159.362 364.06C159.549 364.387 159.642 364.75 159.642 365.15C159.642 365.55 159.549 365.913 159.362 366.24C159.175 366.567 158.925 366.83 158.612 367.03C158.305 367.223 157.962 367.32 157.582 367.32H155.812V370H154.732ZM155.812 366.28H157.562C157.742 366.28 157.905 366.23 158.052 366.13C158.199 366.023 158.315 365.887 158.402 365.72C158.495 365.547 158.542 365.357 158.542 365.15C158.542 364.943 158.495 364.757 158.402 364.59C158.315 364.423 158.199 364.29 158.052 364.19C157.905 364.09 157.742 364.04 157.562 364.04H155.812V366.28ZM163.162 370.1C162.622 370.1 162.142 369.987 161.722 369.76C161.309 369.527 160.982 369.21 160.742 368.81C160.509 368.41 160.392 367.95 160.392 367.43C160.392 367.017 160.459 366.64 160.592 366.3C160.726 365.96 160.909 365.667 161.142 365.42C161.382 365.167 161.666 364.973 161.992 364.84C162.326 364.7 162.686 364.63 163.072 364.63C163.412 364.63 163.729 364.697 164.022 364.83C164.316 364.957 164.569 365.133 164.782 365.36C165.002 365.587 165.169 365.857 165.282 366.17C165.402 366.477 165.459 366.813 165.452 367.18L165.442 367.62H161.152L160.922 366.8H164.552L164.402 366.97V366.73C164.382 366.51 164.309 366.313 164.182 366.14C164.056 365.967 163.896 365.83 163.702 365.73C163.509 365.63 163.299 365.58 163.072 365.58C162.712 365.58 162.409 365.65 162.162 365.79C161.916 365.923 161.729 366.123 161.602 366.39C161.476 366.65 161.412 366.973 161.412 367.36C161.412 367.727 161.489 368.047 161.642 368.32C161.796 368.587 162.012 368.793 162.292 368.94C162.572 369.087 162.896 369.16 163.262 369.16C163.522 369.16 163.762 369.117 163.982 369.03C164.209 368.943 164.452 368.787 164.712 368.56L165.232 369.29C165.072 369.45 164.876 369.59 164.642 369.71C164.416 369.83 164.172 369.927 163.912 370C163.659 370.067 163.409 370.1 163.162 370.1ZM166.572 370V364.75H167.612V366.4L167.512 366C167.585 365.747 167.708 365.517 167.882 365.31C168.062 365.103 168.265 364.94 168.492 364.82C168.725 364.7 168.965 364.64 169.212 364.64C169.325 364.64 169.432 364.65 169.532 364.67C169.638 364.69 169.722 364.713 169.782 364.74L169.512 365.86C169.432 365.827 169.342 365.8 169.242 365.78C169.148 365.753 169.055 365.74 168.962 365.74C168.782 365.74 168.608 365.777 168.442 365.85C168.282 365.917 168.138 366.013 168.012 366.14C167.892 366.26 167.795 366.403 167.722 366.57C167.648 366.73 167.612 366.907 167.612 367.1V370H166.572ZM172.355 370.1C171.915 370.1 171.518 370.023 171.165 369.87C170.811 369.717 170.518 369.49 170.285 369.19L170.985 368.59C171.185 368.823 171.401 368.993 171.635 369.1C171.875 369.2 172.145 369.25 172.445 369.25C172.565 369.25 172.675 369.237 172.775 369.21C172.881 369.177 172.971 369.13 173.045 369.07C173.125 369.01 173.185 368.94 173.225 368.86C173.265 368.773 173.285 368.68 173.285 368.58C173.285 368.407 173.221 368.267 173.095 368.16C173.028 368.113 172.921 368.063 172.775 368.01C172.635 367.95 172.451 367.89 172.225 367.83C171.838 367.73 171.521 367.617 171.275 367.49C171.028 367.363 170.838 367.22 170.705 367.06C170.605 366.933 170.531 366.797 170.485 366.65C170.438 366.497 170.415 366.33 170.415 366.15C170.415 365.93 170.461 365.73 170.555 365.55C170.655 365.363 170.788 365.203 170.955 365.07C171.128 364.93 171.328 364.823 171.555 364.75C171.788 364.677 172.035 364.64 172.295 364.64C172.541 364.64 172.785 364.673 173.025 364.74C173.271 364.807 173.498 364.903 173.705 365.03C173.911 365.157 174.085 365.307 174.225 365.48L173.635 366.13C173.508 366.003 173.368 365.893 173.215 365.8C173.068 365.7 172.918 365.623 172.765 365.57C172.611 365.517 172.471 365.49 172.345 365.49C172.205 365.49 172.078 365.503 171.965 365.53C171.851 365.557 171.755 365.597 171.675 365.65C171.601 365.703 171.545 365.77 171.505 365.85C171.465 365.93 171.445 366.02 171.445 366.12C171.451 366.207 171.471 366.29 171.505 366.37C171.545 366.443 171.598 366.507 171.665 366.56C171.738 366.613 171.848 366.67 171.995 366.73C172.141 366.79 172.328 366.847 172.555 366.9C172.888 366.987 173.161 367.083 173.375 367.19C173.595 367.29 173.768 367.407 173.895 367.54C174.028 367.667 174.121 367.813 174.175 367.98C174.228 368.147 174.255 368.333 174.255 368.54C174.255 368.84 174.168 369.11 173.995 369.35C173.828 369.583 173.601 369.767 173.315 369.9C173.028 370.033 172.708 370.1 172.355 370.1ZM177.75 370.1C177.237 370.1 176.777 369.983 176.37 369.75C175.97 369.51 175.653 369.187 175.42 368.78C175.187 368.367 175.07 367.897 175.07 367.37C175.07 366.843 175.187 366.377 175.42 365.97C175.653 365.557 175.97 365.233 176.37 365C176.777 364.76 177.237 364.64 177.75 364.64C178.257 364.64 178.71 364.76 179.11 365C179.517 365.233 179.837 365.557 180.07 365.97C180.303 366.377 180.42 366.843 180.42 367.37C180.42 367.897 180.303 368.367 180.07 368.78C179.837 369.187 179.517 369.51 179.11 369.75C178.71 369.983 178.257 370.1 177.75 370.1ZM177.75 369.16C178.063 369.16 178.343 369.083 178.59 368.93C178.837 368.77 179.03 368.557 179.17 368.29C179.31 368.017 179.377 367.71 179.37 367.37C179.377 367.023 179.31 366.717 179.17 366.45C179.03 366.177 178.837 365.963 178.59 365.81C178.343 365.657 178.063 365.58 177.75 365.58C177.437 365.58 177.153 365.66 176.9 365.82C176.653 365.973 176.46 366.187 176.32 366.46C176.18 366.727 176.113 367.03 176.12 367.37C176.113 367.71 176.18 368.017 176.32 368.29C176.46 368.557 176.653 368.77 176.9 368.93C177.153 369.083 177.437 369.16 177.75 369.16ZM181.542 370V364.75H182.572V365.83L182.392 365.95C182.459 365.717 182.589 365.503 182.782 365.31C182.976 365.11 183.206 364.95 183.472 364.83C183.739 364.703 184.012 364.64 184.292 364.64C184.692 364.64 185.026 364.72 185.292 364.88C185.559 365.033 185.759 365.27 185.892 365.59C186.026 365.91 186.092 366.313 186.092 366.8V370H185.062V366.87C185.062 366.57 185.022 366.323 184.942 366.13C184.862 365.93 184.739 365.787 184.572 365.7C184.406 365.607 184.199 365.567 183.952 365.58C183.752 365.58 183.569 365.613 183.402 365.68C183.236 365.74 183.089 365.827 182.962 365.94C182.842 366.053 182.746 366.187 182.672 366.34C182.606 366.487 182.572 366.647 182.572 366.82V370H182.062C181.976 370 181.889 370 181.802 370C181.716 370 181.629 370 181.542 370Z" fill="#3B3B3B"/>
<path d="M96.82 238.1C96.3333 238.1 95.8867 238.013 95.48 237.84C95.0733 237.667 94.72 237.42 94.42 237.1C94.12 236.773 93.8867 236.39 93.72 235.95C93.56 235.51 93.48 235.027 93.48 234.5C93.48 234 93.5667 233.537 93.74 233.11C93.92 232.677 94.1667 232.297 94.48 231.97C94.7933 231.643 95.1567 231.39 95.57 231.21C95.9833 231.03 96.43 230.94 96.91 230.94C97.25 230.94 97.58 230.993 97.9 231.1C98.2267 231.2 98.52 231.343 98.78 231.53C99.0467 231.71 99.2633 231.917 99.43 232.15L98.71 232.9C98.5167 232.707 98.32 232.547 98.12 232.42C97.9267 232.287 97.7267 232.187 97.52 232.12C97.32 232.053 97.1167 232.02 96.91 232.02C96.5833 232.02 96.2767 232.083 95.99 232.21C95.71 232.33 95.4633 232.5 95.25 232.72C95.0433 232.94 94.88 233.203 94.76 233.51C94.64 233.81 94.58 234.14 94.58 234.5C94.58 234.88 94.6367 235.227 94.75 235.54C94.87 235.847 95.0367 236.11 95.25 236.33C95.4633 236.55 95.7167 236.72 96.01 236.84C96.31 236.953 96.64 237.01 97 237.01C97.22 237.01 97.4367 236.98 97.65 236.92C97.8633 236.86 98.0633 236.773 98.25 236.66C98.4367 236.547 98.6067 236.413 98.76 236.26L99.3 237.14C99.1467 237.32 98.9367 237.483 98.67 237.63C98.41 237.777 98.1167 237.893 97.79 237.98C97.47 238.06 97.1467 238.1 96.82 238.1ZM102.867 238.1C102.354 238.1 101.894 237.983 101.487 237.75C101.087 237.51 100.77 237.187 100.537 236.78C100.304 236.367 100.187 235.897 100.187 235.37C100.187 234.843 100.304 234.377 100.537 233.97C100.77 233.557 101.087 233.233 101.487 233C101.894 232.76 102.354 232.64 102.867 232.64C103.374 232.64 103.827 232.76 104.227 233C104.634 233.233 104.954 233.557 105.187 233.97C105.42 234.377 105.537 234.843 105.537 235.37C105.537 235.897 105.42 236.367 105.187 236.78C104.954 237.187 104.634 237.51 104.227 237.75C103.827 237.983 103.374 238.1 102.867 238.1ZM102.867 237.16C103.18 237.16 103.46 237.083 103.707 236.93C103.954 236.77 104.147 236.557 104.287 236.29C104.427 236.017 104.494 235.71 104.487 235.37C104.494 235.023 104.427 234.717 104.287 234.45C104.147 234.177 103.954 233.963 103.707 233.81C103.46 233.657 103.18 233.58 102.867 233.58C102.554 233.58 102.27 233.66 102.017 233.82C101.77 233.973 101.577 234.187 101.437 234.46C101.297 234.727 101.23 235.03 101.237 235.37C101.23 235.71 101.297 236.017 101.437 236.29C101.577 236.557 101.77 236.77 102.017 236.93C102.27 237.083 102.554 237.16 102.867 237.16ZM106.639 238V232.75H107.679V233.87L107.489 233.99C107.543 233.817 107.626 233.65 107.739 233.49C107.859 233.33 108.003 233.19 108.169 233.07C108.343 232.943 108.526 232.843 108.719 232.77C108.919 232.697 109.123 232.66 109.329 232.66C109.629 232.66 109.893 232.71 110.119 232.81C110.346 232.91 110.533 233.06 110.679 233.26C110.826 233.46 110.933 233.71 110.999 234.01L110.839 233.97L110.909 233.8C110.983 233.647 111.083 233.503 111.209 233.37C111.343 233.23 111.493 233.107 111.659 233C111.826 232.893 112.003 232.81 112.189 232.75C112.376 232.69 112.559 232.66 112.739 232.66C113.133 232.66 113.456 232.74 113.709 232.9C113.969 233.06 114.163 233.303 114.289 233.63C114.423 233.957 114.489 234.363 114.489 234.85V238H113.449V234.91C113.449 234.61 113.409 234.367 113.329 234.18C113.256 233.987 113.143 233.843 112.989 233.75C112.836 233.657 112.639 233.61 112.399 233.61C112.213 233.61 112.036 233.643 111.869 233.71C111.709 233.77 111.569 233.857 111.449 233.97C111.329 234.083 111.236 234.217 111.169 234.37C111.103 234.517 111.069 234.68 111.069 234.86V238H110.029V234.89C110.029 234.617 109.989 234.387 109.909 234.2C109.829 234.007 109.713 233.86 109.559 233.76C109.406 233.66 109.219 233.61 108.999 233.61C108.813 233.61 108.639 233.643 108.479 233.71C108.319 233.77 108.179 233.857 108.059 233.97C107.939 234.077 107.846 234.207 107.779 234.36C107.713 234.507 107.679 234.667 107.679 234.84V238H106.639ZM115.868 240.2V232.75H116.908V233.95L116.748 233.86C116.788 233.66 116.902 233.47 117.088 233.29C117.275 233.103 117.502 232.953 117.768 232.84C118.042 232.72 118.322 232.66 118.608 232.66C119.082 232.66 119.502 232.777 119.868 233.01C120.235 233.243 120.525 233.563 120.738 233.97C120.952 234.377 121.058 234.843 121.058 235.37C121.058 235.89 120.952 236.357 120.738 236.77C120.532 237.177 120.245 237.5 119.878 237.74C119.512 237.973 119.098 238.09 118.638 238.09C118.332 238.09 118.035 238.03 117.748 237.91C117.462 237.783 117.218 237.623 117.018 237.43C116.818 237.237 116.695 237.037 116.648 236.83L116.908 236.69V240.2H115.868ZM118.468 237.14C118.775 237.14 119.048 237.063 119.288 236.91C119.528 236.757 119.718 236.547 119.858 236.28C119.998 236.013 120.068 235.71 120.068 235.37C120.068 235.03 119.998 234.73 119.858 234.47C119.725 234.203 119.538 233.993 119.298 233.84C119.058 233.687 118.782 233.61 118.468 233.61C118.155 233.61 117.878 233.687 117.638 233.84C117.398 233.987 117.208 234.193 117.068 234.46C116.928 234.727 116.858 235.03 116.858 235.37C116.858 235.71 116.928 236.013 117.068 236.28C117.208 236.547 117.398 236.757 117.638 236.91C117.878 237.063 118.155 237.14 118.468 237.14ZM122.197 238V230.6H123.227V238H122.197ZM127.039 238.1C126.499 238.1 126.019 237.987 125.599 237.76C125.186 237.527 124.859 237.21 124.619 236.81C124.386 236.41 124.269 235.95 124.269 235.43C124.269 235.017 124.336 234.64 124.469 234.3C124.602 233.96 124.786 233.667 125.019 233.42C125.259 233.167 125.542 232.973 125.869 232.84C126.202 232.7 126.562 232.63 126.949 232.63C127.289 232.63 127.606 232.697 127.899 232.83C128.192 232.957 128.446 233.133 128.659 233.36C128.879 233.587 129.046 233.857 129.159 234.17C129.279 234.477 129.336 234.813 129.329 235.18L129.319 235.62H125.029L124.799 234.8H128.429L128.279 234.97V234.73C128.259 234.51 128.186 234.313 128.059 234.14C127.932 233.967 127.772 233.83 127.579 233.73C127.386 233.63 127.176 233.58 126.949 233.58C126.589 233.58 126.286 233.65 126.039 233.79C125.792 233.923 125.606 234.123 125.479 234.39C125.352 234.65 125.289 234.973 125.289 235.36C125.289 235.727 125.366 236.047 125.519 236.32C125.672 236.587 125.889 236.793 126.169 236.94C126.449 237.087 126.772 237.16 127.139 237.16C127.399 237.16 127.639 237.117 127.859 237.03C128.086 236.943 128.329 236.787 128.589 236.56L129.109 237.29C128.949 237.45 128.752 237.59 128.519 237.71C128.292 237.83 128.049 237.927 127.789 238C127.536 238.067 127.286 238.1 127.039 238.1ZM131.099 238V231.41H132.129V238H131.099ZM130.009 233.75V232.75H133.349V233.75H130.009ZM134.456 238V232.75H135.486V238H134.456ZM134.956 231.59C134.736 231.59 134.566 231.533 134.446 231.42C134.326 231.307 134.266 231.147 134.266 230.94C134.266 230.747 134.326 230.59 134.446 230.47C134.573 230.35 134.743 230.29 134.956 230.29C135.176 230.29 135.346 230.347 135.466 230.46C135.586 230.573 135.646 230.733 135.646 230.94C135.646 231.133 135.583 231.29 135.456 231.41C135.336 231.53 135.17 231.59 134.956 231.59ZM139.43 238.1C138.916 238.1 138.456 237.983 138.05 237.75C137.65 237.51 137.333 237.187 137.1 236.78C136.866 236.367 136.75 235.897 136.75 235.37C136.75 234.843 136.866 234.377 137.1 233.97C137.333 233.557 137.65 233.233 138.05 233C138.456 232.76 138.916 232.64 139.43 232.64C139.936 232.64 140.39 232.76 140.79 233C141.196 233.233 141.516 233.557 141.75 233.97C141.983 234.377 142.1 234.843 142.1 235.37C142.1 235.897 141.983 236.367 141.75 236.78C141.516 237.187 141.196 237.51 140.79 237.75C140.39 237.983 139.936 238.1 139.43 238.1ZM139.43 237.16C139.743 237.16 140.023 237.083 140.27 236.93C140.516 236.77 140.71 236.557 140.85 236.29C140.99 236.017 141.056 235.71 141.05 235.37C141.056 235.023 140.99 234.717 140.85 234.45C140.71 234.177 140.516 233.963 140.27 233.81C140.023 233.657 139.743 233.58 139.43 233.58C139.116 233.58 138.833 233.66 138.58 233.82C138.333 233.973 138.14 234.187 138 234.46C137.86 234.727 137.793 235.03 137.8 235.37C137.793 235.71 137.86 236.017 138 236.29C138.14 236.557 138.333 236.77 138.58 236.93C138.833 237.083 139.116 237.16 139.43 237.16ZM143.222 238V232.75H144.252V233.83L144.072 233.95C144.139 233.717 144.269 233.503 144.462 233.31C144.655 233.11 144.885 232.95 145.152 232.83C145.419 232.703 145.692 232.64 145.972 232.64C146.372 232.64 146.705 232.72 146.972 232.88C147.239 233.033 147.439 233.27 147.572 233.59C147.705 233.91 147.772 234.313 147.772 234.8V238H146.742V234.87C146.742 234.57 146.702 234.323 146.622 234.13C146.542 233.93 146.419 233.787 146.252 233.7C146.085 233.607 145.879 233.567 145.632 233.58C145.432 233.58 145.249 233.613 145.082 233.68C144.915 233.74 144.769 233.827 144.642 233.94C144.522 234.053 144.425 234.187 144.352 234.34C144.285 234.487 144.252 234.647 144.252 234.82V238H143.742C143.655 238 143.569 238 143.482 238C143.395 238 143.309 238 143.222 238ZM152.232 238V231H154.972C155.472 231 155.922 231.083 156.322 231.25C156.729 231.417 157.075 231.657 157.362 231.97C157.649 232.283 157.869 232.653 158.022 233.08C158.175 233.507 158.252 233.98 158.252 234.5C158.252 235.02 158.175 235.497 158.022 235.93C157.869 236.357 157.649 236.727 157.362 237.04C157.082 237.347 156.739 237.583 156.332 237.75C155.925 237.917 155.472 238 154.972 238H152.232ZM153.312 237.07L153.282 236.96H154.922C155.275 236.96 155.589 236.903 155.862 236.79C156.142 236.677 156.375 236.517 156.562 236.31C156.755 236.097 156.902 235.837 157.002 235.53C157.102 235.223 157.152 234.88 157.152 234.5C157.152 234.12 157.102 233.78 157.002 233.48C156.902 233.173 156.755 232.913 156.562 232.7C156.369 232.487 156.135 232.323 155.862 232.21C155.589 232.097 155.275 232.04 154.922 232.04H153.252L153.312 231.95V237.07ZM161.472 238.1C161.039 238.1 160.642 237.98 160.282 237.74C159.929 237.5 159.646 237.173 159.432 236.76C159.219 236.347 159.112 235.88 159.112 235.36C159.112 234.833 159.219 234.367 159.432 233.96C159.652 233.547 159.946 233.223 160.312 232.99C160.686 232.757 161.102 232.64 161.562 232.64C161.836 232.64 162.086 232.68 162.312 232.76C162.539 232.84 162.736 232.953 162.902 233.1C163.076 233.24 163.216 233.403 163.322 233.59C163.436 233.777 163.506 233.977 163.532 234.19L163.302 234.11V232.75H164.342V238H163.302V236.75L163.542 236.68C163.502 236.86 163.419 237.037 163.292 237.21C163.172 237.377 163.016 237.527 162.822 237.66C162.636 237.793 162.426 237.9 162.192 237.98C161.966 238.06 161.726 238.1 161.472 238.1ZM161.742 237.15C162.056 237.15 162.332 237.073 162.572 236.92C162.812 236.767 162.999 236.557 163.132 236.29C163.272 236.017 163.342 235.707 163.342 235.36C163.342 235.02 163.272 234.717 163.132 234.45C162.999 234.183 162.812 233.973 162.572 233.82C162.332 233.667 162.056 233.59 161.742 233.59C161.436 233.59 161.162 233.667 160.922 233.82C160.689 233.973 160.502 234.183 160.362 234.45C160.229 234.717 160.162 235.02 160.162 235.36C160.162 235.707 160.229 236.017 160.362 236.29C160.502 236.557 160.689 236.767 160.922 236.92C161.162 237.073 161.436 237.15 161.742 237.15ZM166.431 238V231.41H167.461V238H166.431ZM165.341 233.75V232.75H168.681V233.75H165.341ZM172.02 238.1C171.48 238.1 171 237.987 170.58 237.76C170.166 237.527 169.84 237.21 169.6 236.81C169.366 236.41 169.25 235.95 169.25 235.43C169.25 235.017 169.316 234.64 169.45 234.3C169.583 233.96 169.766 233.667 170 233.42C170.24 233.167 170.523 232.973 170.85 232.84C171.183 232.7 171.543 232.63 171.93 232.63C172.27 232.63 172.586 232.697 172.88 232.83C173.173 232.957 173.426 233.133 173.64 233.36C173.86 233.587 174.026 233.857 174.14 234.17C174.26 234.477 174.316 234.813 174.31 235.18L174.3 235.62H170.01L169.78 234.8H173.41L173.26 234.97V234.73C173.24 234.51 173.166 234.313 173.04 234.14C172.913 233.967 172.753 233.83 172.56 233.73C172.366 233.63 172.156 233.58 171.93 233.58C171.57 233.58 171.266 233.65 171.02 233.79C170.773 233.923 170.586 234.123 170.46 234.39C170.333 234.65 170.27 234.973 170.27 235.36C170.27 235.727 170.346 236.047 170.5 236.32C170.653 236.587 170.87 236.793 171.15 236.94C171.43 237.087 171.753 237.16 172.12 237.16C172.38 237.16 172.62 237.117 172.84 237.03C173.066 236.943 173.31 236.787 173.57 236.56L174.09 237.29C173.93 237.45 173.733 237.59 173.5 237.71C173.273 237.83 173.03 237.927 172.77 238C172.516 238.067 172.266 238.1 172.02 238.1Z" fill="#3B3B3B"/>
<path d="M93.98 261V254H94.95L99.23 259.73L99.07 259.82C99.0433 259.653 99.02 259.473 99 259.28C98.98 259.08 98.96 258.87 98.94 258.65C98.9267 258.423 98.9133 258.187 98.9 257.94C98.8933 257.687 98.8867 257.423 98.88 257.15C98.8733 256.877 98.87 256.593 98.87 256.3V254H99.95V261H98.96L94.75 255.48L94.86 255.34C94.8933 255.747 94.92 256.093 94.94 256.38C94.9667 256.66 94.9867 256.9 95 257.1C95.02 257.293 95.0333 257.453 95.04 257.58C95.0467 257.7 95.05 257.8 95.05 257.88C95.0567 257.96 95.06 258.03 95.06 258.09V261H93.98ZM104.01 261.1C103.496 261.1 103.036 260.983 102.63 260.75C102.23 260.51 101.913 260.187 101.68 259.78C101.446 259.367 101.33 258.897 101.33 258.37C101.33 257.843 101.446 257.377 101.68 256.97C101.913 256.557 102.23 256.233 102.63 256C103.036 255.76 103.496 255.64 104.01 255.64C104.516 255.64 104.97 255.76 105.37 256C105.776 256.233 106.096 256.557 106.33 256.97C106.563 257.377 106.68 257.843 106.68 258.37C106.68 258.897 106.563 259.367 106.33 259.78C106.096 260.187 105.776 260.51 105.37 260.75C104.97 260.983 104.516 261.1 104.01 261.1ZM104.01 260.16C104.323 260.16 104.603 260.083 104.85 259.93C105.096 259.77 105.29 259.557 105.43 259.29C105.57 259.017 105.636 258.71 105.63 258.37C105.636 258.023 105.57 257.717 105.43 257.45C105.29 257.177 105.096 256.963 104.85 256.81C104.603 256.657 104.323 256.58 104.01 256.58C103.696 256.58 103.413 256.66 103.16 256.82C102.913 256.973 102.72 257.187 102.58 257.46C102.44 257.727 102.373 258.03 102.38 258.37C102.373 258.71 102.44 259.017 102.58 259.29C102.72 259.557 102.913 259.77 103.16 259.93C103.413 260.083 103.696 260.16 104.01 260.16ZM108.452 261V254.41H109.482V261H108.452ZM107.362 256.75V255.75H110.702V256.75H107.362ZM114.041 261.1C113.501 261.1 113.021 260.987 112.601 260.76C112.188 260.527 111.861 260.21 111.621 259.81C111.388 259.41 111.271 258.95 111.271 258.43C111.271 258.017 111.338 257.64 111.471 257.3C111.604 256.96 111.788 256.667 112.021 256.42C112.261 256.167 112.544 255.973 112.871 255.84C113.204 255.7 113.564 255.63 113.951 255.63C114.291 255.63 114.608 255.697 114.901 255.83C115.194 255.957 115.448 256.133 115.661 256.36C115.881 256.587 116.048 256.857 116.161 257.17C116.281 257.477 116.338 257.813 116.331 258.18L116.321 258.62H112.031L111.801 257.8H115.431L115.281 257.97V257.73C115.261 257.51 115.188 257.313 115.061 257.14C114.934 256.967 114.774 256.83 114.581 256.73C114.388 256.63 114.178 256.58 113.951 256.58C113.591 256.58 113.288 256.65 113.041 256.79C112.794 256.923 112.608 257.123 112.481 257.39C112.354 257.65 112.291 257.973 112.291 258.36C112.291 258.727 112.368 259.047 112.521 259.32C112.674 259.587 112.891 259.793 113.171 259.94C113.451 260.087 113.774 260.16 114.141 260.16C114.401 260.16 114.641 260.117 114.861 260.03C115.088 259.943 115.331 259.787 115.591 259.56L116.111 260.29C115.951 260.45 115.754 260.59 115.521 260.71C115.294 260.83 115.051 260.927 114.791 261C114.538 261.067 114.288 261.1 114.041 261.1Z" fill="#3B3B3B"/>
<rect x="194" y="185" width="121" height="7" rx="3.5" fill="#E4E6EA"/>
<rect x="194" y="343" width="77" height="7" rx="3.5" fill="#E4E6EA"/>
<rect x="194" y="208" width="77" height="7" rx="3.5" fill="#E4E6EA"/>
<rect x="194" y="363" width="77" height="7" rx="3.5" fill="#E4E6EA"/>
<rect x="194" y="231" width="77" height="7" rx="3.5" fill="#E4E6EA"/>
<rect x="194" y="254" width="199" height="7" rx="3.5" fill="#E4E6EA"/>
<rect x="83" y="131" width="182" height="7" rx="3.5" fill="#E4E6EA"/>
<rect x="194" y="266" width="196" height="7" rx="3.5" fill="#E4E6EA"/>
<rect x="194" y="290" width="196" height="7" rx="3.5" fill="#E4E6EA"/>
<rect x="194" y="278" width="152" height="7" rx="3.5" fill="#E4E6EA"/>
<rect x="194" y="302" width="77" height="7" rx="3.5" fill="#E4E6EA"/>
<rect x="83" y="402" width="152" height="41" rx="6" fill="#0900FF"/>
<rect x="246.5" y="402.5" width="151" height="40" rx="5.5" stroke="#DF6E61"/>
<path d="M135.098 428L138.948 418.2H140.824L144.646 428H142.49L140.516 422.722C140.46 422.573 140.39 422.381 140.306 422.148C140.231 421.915 140.152 421.667 140.068 421.406C139.984 421.145 139.905 420.897 139.83 420.664C139.755 420.421 139.699 420.221 139.662 420.062H140.04C139.984 420.267 139.919 420.487 139.844 420.72C139.779 420.944 139.709 421.177 139.634 421.42C139.559 421.653 139.48 421.882 139.396 422.106C139.312 422.33 139.233 422.549 139.158 422.764L137.184 428H135.098ZM136.89 425.942L137.576 424.262H142.07L142.77 425.942H136.89ZM148.689 428.14C147.979 428.14 147.345 427.972 146.785 427.636C146.225 427.3 145.781 426.843 145.455 426.264C145.137 425.685 144.979 425.027 144.979 424.29C144.979 423.553 145.137 422.895 145.455 422.316C145.781 421.737 146.225 421.28 146.785 420.944C147.345 420.608 147.979 420.44 148.689 420.44C149.351 420.44 149.958 420.561 150.509 420.804C151.059 421.047 151.489 421.383 151.797 421.812L150.705 423.128C150.574 422.951 150.411 422.792 150.215 422.652C150.019 422.503 149.804 422.386 149.571 422.302C149.347 422.218 149.113 422.176 148.871 422.176C148.488 422.176 148.147 422.269 147.849 422.456C147.559 422.633 147.331 422.881 147.163 423.198C146.995 423.515 146.911 423.879 146.911 424.29C146.911 424.682 146.995 425.037 147.163 425.354C147.34 425.671 147.578 425.923 147.877 426.11C148.175 426.297 148.511 426.39 148.885 426.39C149.127 426.39 149.356 426.357 149.571 426.292C149.785 426.227 149.986 426.124 150.173 425.984C150.369 425.844 150.546 425.676 150.705 425.48L151.783 426.796C151.475 427.197 151.036 427.524 150.467 427.776C149.907 428.019 149.314 428.14 148.689 428.14ZM156.277 428.14C155.567 428.14 154.933 427.972 154.373 427.636C153.813 427.3 153.369 426.843 153.043 426.264C152.725 425.685 152.567 425.027 152.567 424.29C152.567 423.553 152.725 422.895 153.043 422.316C153.369 421.737 153.813 421.28 154.373 420.944C154.933 420.608 155.567 420.44 156.277 420.44C156.939 420.44 157.546 420.561 158.097 420.804C158.647 421.047 159.077 421.383 159.385 421.812L158.293 423.128C158.162 422.951 157.999 422.792 157.803 422.652C157.607 422.503 157.392 422.386 157.159 422.302C156.935 422.218 156.701 422.176 156.459 422.176C156.076 422.176 155.735 422.269 155.437 422.456C155.147 422.633 154.919 422.881 154.751 423.198C154.583 423.515 154.499 423.879 154.499 424.29C154.499 424.682 154.583 425.037 154.751 425.354C154.928 425.671 155.166 425.923 155.465 426.11C155.763 426.297 156.099 426.39 156.473 426.39C156.715 426.39 156.944 426.357 157.159 426.292C157.373 426.227 157.574 426.124 157.761 425.984C157.957 425.844 158.134 425.676 158.293 425.48L159.371 426.796C159.063 427.197 158.624 427.524 158.055 427.776C157.495 428.019 156.902 428.14 156.277 428.14ZM164.158 428.14C163.356 428.14 162.651 427.977 162.044 427.65C161.447 427.323 160.98 426.875 160.644 426.306C160.318 425.737 160.154 425.083 160.154 424.346C160.154 423.767 160.248 423.24 160.434 422.764C160.621 422.288 160.882 421.877 161.218 421.532C161.554 421.177 161.951 420.907 162.408 420.72C162.875 420.524 163.379 420.426 163.92 420.426C164.424 420.426 164.891 420.519 165.32 420.706C165.75 420.893 166.118 421.154 166.426 421.49C166.744 421.817 166.986 422.209 167.154 422.666C167.322 423.114 167.397 423.599 167.378 424.122L167.364 424.738H161.414L161.092 423.52H165.726L165.502 423.772V423.464C165.484 423.212 165.4 422.988 165.25 422.792C165.11 422.587 164.928 422.428 164.704 422.316C164.48 422.195 164.228 422.134 163.948 422.134C163.538 422.134 163.188 422.213 162.898 422.372C162.618 422.531 162.404 422.764 162.254 423.072C162.105 423.38 162.03 423.753 162.03 424.192C162.03 424.64 162.124 425.027 162.31 425.354C162.506 425.681 162.777 425.937 163.122 426.124C163.477 426.301 163.892 426.39 164.368 426.39C164.695 426.39 164.994 426.339 165.264 426.236C165.535 426.133 165.824 425.956 166.132 425.704L167.084 427.034C166.814 427.277 166.515 427.482 166.188 427.65C165.862 427.809 165.526 427.93 165.18 428.014C164.835 428.098 164.494 428.14 164.158 428.14ZM168.848 431.08V420.594H170.766L170.822 422.26L170.458 422.134C170.523 421.835 170.682 421.56 170.934 421.308C171.195 421.056 171.517 420.851 171.9 420.692C172.282 420.533 172.684 420.454 173.104 420.454C173.748 420.454 174.322 420.622 174.826 420.958C175.33 421.285 175.726 421.737 176.016 422.316C176.305 422.885 176.45 423.543 176.45 424.29C176.45 425.027 176.305 425.685 176.016 426.264C175.726 426.843 175.33 427.3 174.826 427.636C174.322 427.963 173.748 428.126 173.104 428.126C172.674 428.126 172.264 428.047 171.872 427.888C171.489 427.72 171.162 427.501 170.892 427.23C170.63 426.959 170.462 426.67 170.388 426.362L170.85 426.166V431.08H168.848ZM172.656 426.418C173.02 426.418 173.342 426.329 173.622 426.152C173.902 425.975 174.121 425.727 174.28 425.41C174.438 425.083 174.518 424.71 174.518 424.29C174.518 423.87 174.438 423.501 174.28 423.184C174.121 422.867 173.902 422.619 173.622 422.442C173.351 422.265 173.029 422.176 172.656 422.176C172.282 422.176 171.956 422.265 171.676 422.442C171.396 422.61 171.176 422.857 171.018 423.184C170.859 423.501 170.78 423.87 170.78 424.29C170.78 424.71 170.859 425.083 171.018 425.41C171.176 425.727 171.396 425.975 171.676 426.152C171.956 426.329 172.282 426.418 172.656 426.418ZM178.667 428V418.718H180.655V428H178.667ZM177.281 422.372V420.594H182.181V422.372H177.281Z" fill="white"/>
<path d="M299.274 428V418.2H303.614C304.221 418.2 304.771 418.34 305.266 418.62C305.761 418.891 306.148 419.259 306.428 419.726C306.717 420.193 306.862 420.725 306.862 421.322C306.862 421.91 306.717 422.447 306.428 422.932C306.148 423.408 305.761 423.786 305.266 424.066C304.771 424.346 304.221 424.486 303.614 424.486H301.304V428H299.274ZM304.832 428L302.34 423.576L304.496 423.226L307.268 428.014L304.832 428ZM301.304 422.778H303.516C303.768 422.778 303.987 422.722 304.174 422.61C304.37 422.489 304.519 422.325 304.622 422.12C304.725 421.905 304.776 421.667 304.776 421.406C304.776 421.126 304.715 420.883 304.594 420.678C304.473 420.473 304.295 420.314 304.062 420.202C303.829 420.081 303.558 420.02 303.25 420.02H301.304V422.778ZM312.037 428.14C311.235 428.14 310.53 427.977 309.923 427.65C309.326 427.323 308.859 426.875 308.523 426.306C308.197 425.737 308.033 425.083 308.033 424.346C308.033 423.767 308.127 423.24 308.313 422.764C308.5 422.288 308.761 421.877 309.097 421.532C309.433 421.177 309.83 420.907 310.287 420.72C310.754 420.524 311.258 420.426 311.799 420.426C312.303 420.426 312.77 420.519 313.199 420.706C313.629 420.893 313.997 421.154 314.305 421.49C314.623 421.817 314.865 422.209 315.033 422.666C315.201 423.114 315.276 423.599 315.257 424.122L315.243 424.738H309.293L308.971 423.52H313.605L313.381 423.772V423.464C313.363 423.212 313.279 422.988 313.129 422.792C312.989 422.587 312.807 422.428 312.583 422.316C312.359 422.195 312.107 422.134 311.827 422.134C311.417 422.134 311.067 422.213 310.777 422.372C310.497 422.531 310.283 422.764 310.133 423.072C309.984 423.38 309.909 423.753 309.909 424.192C309.909 424.64 310.003 425.027 310.189 425.354C310.385 425.681 310.656 425.937 311.001 426.124C311.356 426.301 311.771 426.39 312.247 426.39C312.574 426.39 312.873 426.339 313.143 426.236C313.414 426.133 313.703 425.956 314.011 425.704L314.963 427.034C314.693 427.277 314.394 427.482 314.067 427.65C313.741 427.809 313.405 427.93 313.059 428.014C312.714 428.098 312.373 428.14 312.037 428.14ZM315.984 430.884L315.242 429.344C315.644 429.344 315.966 429.288 316.208 429.176C316.451 429.064 316.624 428.877 316.726 428.616C316.838 428.364 316.894 428.028 316.894 427.608V420.594H318.882V428.084C318.882 428.691 318.766 429.199 318.532 429.61C318.308 430.03 317.982 430.347 317.552 430.562C317.123 430.777 316.6 430.884 315.984 430.884ZM317.93 419.082C317.548 419.082 317.249 418.989 317.034 418.802C316.82 418.606 316.712 418.335 316.712 417.99C316.712 417.673 316.82 417.416 317.034 417.22C317.258 417.015 317.557 416.912 317.93 416.912C318.313 416.912 318.612 417.01 318.826 417.206C319.041 417.393 319.148 417.654 319.148 417.99C319.148 418.307 319.036 418.569 318.812 418.774C318.598 418.979 318.304 419.082 317.93 419.082ZM324.424 428.14C323.621 428.14 322.917 427.977 322.31 427.65C321.713 427.323 321.246 426.875 320.91 426.306C320.583 425.737 320.42 425.083 320.42 424.346C320.42 423.767 320.513 423.24 320.7 422.764C320.887 422.288 321.148 421.877 321.484 421.532C321.82 421.177 322.217 420.907 322.674 420.72C323.141 420.524 323.645 420.426 324.186 420.426C324.69 420.426 325.157 420.519 325.586 420.706C326.015 420.893 326.384 421.154 326.692 421.49C327.009 421.817 327.252 422.209 327.42 422.666C327.588 423.114 327.663 423.599 327.644 424.122L327.63 424.738H321.68L321.358 423.52H325.992L325.768 423.772V423.464C325.749 423.212 325.665 422.988 325.516 422.792C325.376 422.587 325.194 422.428 324.97 422.316C324.746 422.195 324.494 422.134 324.214 422.134C323.803 422.134 323.453 422.213 323.164 422.372C322.884 422.531 322.669 422.764 322.52 423.072C322.371 423.38 322.296 423.753 322.296 424.192C322.296 424.64 322.389 425.027 322.576 425.354C322.772 425.681 323.043 425.937 323.388 426.124C323.743 426.301 324.158 426.39 324.634 426.39C324.961 426.39 325.259 426.339 325.53 426.236C325.801 426.133 326.09 425.956 326.398 425.704L327.35 427.034C327.079 427.277 326.781 427.482 326.454 427.65C326.127 427.809 325.791 427.93 325.446 428.014C325.101 428.098 324.76 428.14 324.424 428.14ZM332.333 428.14C331.624 428.14 330.989 427.972 330.429 427.636C329.869 427.3 329.426 426.843 329.099 426.264C328.782 425.685 328.623 425.027 328.623 424.29C328.623 423.553 328.782 422.895 329.099 422.316C329.426 421.737 329.869 421.28 330.429 420.944C330.989 420.608 331.624 420.44 332.333 420.44C332.996 420.44 333.602 420.561 334.153 420.804C334.704 421.047 335.133 421.383 335.441 421.812L334.349 423.128C334.218 422.951 334.055 422.792 333.859 422.652C333.663 422.503 333.448 422.386 333.215 422.302C332.991 422.218 332.758 422.176 332.515 422.176C332.132 422.176 331.792 422.269 331.493 422.456C331.204 422.633 330.975 422.881 330.807 423.198C330.639 423.515 330.555 423.879 330.555 424.29C330.555 424.682 330.639 425.037 330.807 425.354C330.984 425.671 331.222 425.923 331.521 426.11C331.82 426.297 332.156 426.39 332.529 426.39C332.772 426.39 333 426.357 333.215 426.292C333.43 426.227 333.63 426.124 333.817 425.984C334.013 425.844 334.19 425.676 334.349 425.48L335.427 426.796C335.119 427.197 334.68 427.524 334.111 427.776C333.551 428.019 332.958 428.14 332.333 428.14ZM337.415 428V418.718H339.403V428H337.415ZM336.029 422.372V420.594H340.929V422.372H336.029Z" fill="#DF6E61"/>
</svg>
