<svg xmlns="http://www.w3.org/2000/svg" width="40" height="46.972" viewBox="0 0 40 46.972">
  <g id="ico-orange-shield" transform="translate(-0.5 0)">
    <path id="Path_5278" data-name="Path 5278" d="M38.387,31.368a23.7,23.7,0,0,1-5.676,8.842,29.709,29.709,0,0,1-11.092,6.572,3.392,3.392,0,0,1-1.078.19H20.5a3.444,3.444,0,0,1-.662-.065,3.574,3.574,0,0,1-.455-.124A29.707,29.707,0,0,1,8.279,40.214,23.653,23.653,0,0,1,2.6,31.374C.312,25.153.442,18.3.547,12.792l0-.085c.021-.455.035-.932.042-1.46A4.978,4.978,0,0,1,5.279,6.371,19.318,19.318,0,0,0,18.427.828L18.458.8a3.009,3.009,0,0,1,4.085,0l.03.029A19.321,19.321,0,0,0,35.722,6.371a4.978,4.978,0,0,1,4.688,4.877c.008.531.021,1.008.042,1.46v.036C40.558,18.261,40.688,25.128,38.387,31.368Zm0,0" transform="translate(0 0)" fill="rgba(255,152,0,0.6)"/>
    <path id="Path_5280" data-name="Path 5280" d="M114.308,140.1a11.721,11.721,0,0,1-11.665,11.707H102.6a11.707,11.707,0,1,1,0-23.413h.041A11.721,11.721,0,0,1,114.308,140.1Zm0,0" transform="translate(-82.101 -116.619)" fill="#ff9800"/>
    <path id="Path_5282" data-name="Path 5282" d="M165.392,214.332l-5.272,5.273-1.139,1.139a1.379,1.379,0,0,1-1.95,0l-2.449-2.45a1.378,1.378,0,0,1,1.949-1.949l1.476,1.476,5.437-5.437a1.378,1.378,0,0,1,1.949,1.949Zm0,0" transform="translate(-139.579 -192.532)" fill="#fff"/>
  </g>
</svg>
