<svg width="480" height="540" viewBox="0 0 480 540" fill="none" xmlns="http://www.w3.org/2000/svg">
<g clip-path="url(#clip0_193_1448)">
<path d="M85 76H396C405.389 76 413 83.6112 413 93V447C413 456.389 405.389 464 396 464H85C75.6111 464 68 456.389 68 447V93C68 83.6112 75.6111 76 85 76Z" fill="#F1F5F7"/>
<rect x="83" y="101" width="315" height="300" rx="9" fill="white"/>
<path d="M123.452 131.14C122.845 131.14 122.29 131.065 121.786 130.916C121.291 130.767 120.848 130.547 120.456 130.258C120.073 129.969 119.728 129.619 119.42 129.208L120.736 127.71C121.193 128.345 121.646 128.779 122.094 129.012C122.551 129.236 123.046 129.348 123.578 129.348C123.867 129.348 124.124 129.306 124.348 129.222C124.581 129.138 124.763 129.026 124.894 128.886C125.025 128.737 125.09 128.559 125.09 128.354C125.09 128.205 125.057 128.069 124.992 127.948C124.927 127.817 124.833 127.705 124.712 127.612C124.591 127.509 124.446 127.421 124.278 127.346C124.11 127.262 123.923 127.192 123.718 127.136C123.513 127.071 123.289 127.019 123.046 126.982C122.523 126.861 122.066 126.716 121.674 126.548C121.282 126.371 120.955 126.156 120.694 125.904C120.433 125.643 120.237 125.349 120.106 125.022C119.985 124.695 119.924 124.327 119.924 123.916C119.924 123.496 120.017 123.109 120.204 122.754C120.391 122.39 120.647 122.077 120.974 121.816C121.31 121.555 121.693 121.354 122.122 121.214C122.561 121.074 123.023 121.004 123.508 121.004C124.105 121.004 124.628 121.069 125.076 121.2C125.524 121.331 125.911 121.527 126.238 121.788C126.574 122.04 126.854 122.348 127.078 122.712L125.748 124C125.552 123.739 125.337 123.519 125.104 123.342C124.88 123.165 124.633 123.034 124.362 122.95C124.101 122.857 123.83 122.81 123.55 122.81C123.242 122.81 122.976 122.852 122.752 122.936C122.528 123.011 122.351 123.127 122.22 123.286C122.099 123.435 122.038 123.613 122.038 123.818C122.038 123.986 122.08 124.135 122.164 124.266C122.248 124.397 122.369 124.513 122.528 124.616C122.687 124.709 122.878 124.793 123.102 124.868C123.326 124.943 123.573 125.008 123.844 125.064C124.357 125.167 124.819 125.302 125.23 125.47C125.641 125.638 125.991 125.843 126.28 126.086C126.579 126.319 126.807 126.599 126.966 126.926C127.125 127.243 127.204 127.603 127.204 128.004C127.204 128.667 127.045 129.231 126.728 129.698C126.411 130.165 125.972 130.524 125.412 130.776C124.852 131.019 124.199 131.14 123.452 131.14ZM132.046 131.14C131.337 131.14 130.702 130.972 130.142 130.636C129.582 130.3 129.139 129.843 128.812 129.264C128.495 128.685 128.336 128.027 128.336 127.29C128.336 126.553 128.495 125.895 128.812 125.316C129.139 124.737 129.582 124.28 130.142 123.944C130.702 123.608 131.337 123.44 132.046 123.44C132.709 123.44 133.315 123.561 133.866 123.804C134.417 124.047 134.846 124.383 135.154 124.812L134.062 126.128C133.931 125.951 133.768 125.792 133.572 125.652C133.376 125.503 133.161 125.386 132.928 125.302C132.704 125.218 132.471 125.176 132.228 125.176C131.845 125.176 131.505 125.269 131.206 125.456C130.917 125.633 130.688 125.881 130.52 126.198C130.352 126.515 130.268 126.879 130.268 127.29C130.268 127.682 130.352 128.037 130.52 128.354C130.697 128.671 130.935 128.923 131.234 129.11C131.533 129.297 131.869 129.39 132.242 129.39C132.485 129.39 132.713 129.357 132.928 129.292C133.143 129.227 133.343 129.124 133.53 128.984C133.726 128.844 133.903 128.676 134.062 128.48L135.14 129.796C134.832 130.197 134.393 130.524 133.824 130.776C133.264 131.019 132.671 131.14 132.046 131.14ZM136.414 131V120.64H138.374V125.106L137.982 125.274C138.085 124.938 138.267 124.635 138.528 124.364C138.799 124.084 139.121 123.86 139.494 123.692C139.867 123.524 140.259 123.44 140.67 123.44C141.23 123.44 141.697 123.552 142.07 123.776C142.453 124 142.737 124.341 142.924 124.798C143.12 125.246 143.218 125.801 143.218 126.464V131H141.23V126.618C141.23 126.282 141.183 126.002 141.09 125.778C140.997 125.554 140.852 125.391 140.656 125.288C140.469 125.185 140.236 125.139 139.956 125.148C139.732 125.148 139.522 125.185 139.326 125.26C139.139 125.325 138.976 125.423 138.836 125.554C138.705 125.685 138.598 125.834 138.514 126.002C138.439 126.17 138.402 126.352 138.402 126.548V131H137.422C137.207 131 137.016 131 136.848 131C136.68 131 136.535 131 136.414 131ZM148.637 131.14C147.834 131.14 147.13 130.977 146.523 130.65C145.926 130.323 145.459 129.875 145.123 129.306C144.796 128.737 144.633 128.083 144.633 127.346C144.633 126.767 144.726 126.24 144.913 125.764C145.1 125.288 145.361 124.877 145.697 124.532C146.033 124.177 146.43 123.907 146.887 123.72C147.354 123.524 147.858 123.426 148.399 123.426C148.903 123.426 149.37 123.519 149.799 123.706C150.228 123.893 150.597 124.154 150.905 124.49C151.222 124.817 151.465 125.209 151.633 125.666C151.801 126.114 151.876 126.599 151.857 127.122L151.843 127.738H145.893L145.571 126.52H150.205L149.981 126.772V126.464C149.962 126.212 149.878 125.988 149.729 125.792C149.589 125.587 149.407 125.428 149.183 125.316C148.959 125.195 148.707 125.134 148.427 125.134C148.016 125.134 147.666 125.213 147.377 125.372C147.097 125.531 146.882 125.764 146.733 126.072C146.584 126.38 146.509 126.753 146.509 127.192C146.509 127.64 146.602 128.027 146.789 128.354C146.985 128.681 147.256 128.937 147.601 129.124C147.956 129.301 148.371 129.39 148.847 129.39C149.174 129.39 149.472 129.339 149.743 129.236C150.014 129.133 150.303 128.956 150.611 128.704L151.563 130.034C151.292 130.277 150.994 130.482 150.667 130.65C150.34 130.809 150.004 130.93 149.659 131.014C149.314 131.098 148.973 131.14 148.637 131.14ZM156.224 131.14C155.571 131.14 154.987 130.977 154.474 130.65C153.97 130.314 153.569 129.861 153.27 129.292C152.981 128.713 152.836 128.046 152.836 127.29C152.836 126.553 152.981 125.895 153.27 125.316C153.569 124.728 153.97 124.271 154.474 123.944C154.987 123.608 155.571 123.44 156.224 123.44C156.569 123.44 156.901 123.496 157.218 123.608C157.545 123.711 157.834 123.855 158.086 124.042C158.347 124.229 158.557 124.439 158.716 124.672C158.875 124.896 158.963 125.129 158.982 125.372L158.478 125.47V120.64H160.48V131H158.59L158.506 129.292L158.898 129.334C158.879 129.567 158.795 129.791 158.646 130.006C158.497 130.221 158.296 130.417 158.044 130.594C157.801 130.762 157.521 130.897 157.204 131C156.896 131.093 156.569 131.14 156.224 131.14ZM156.672 129.488C157.045 129.488 157.372 129.395 157.652 129.208C157.932 129.021 158.151 128.765 158.31 128.438C158.469 128.111 158.548 127.729 158.548 127.29C158.548 126.861 158.469 126.483 158.31 126.156C158.151 125.829 157.932 125.573 157.652 125.386C157.372 125.199 157.045 125.106 156.672 125.106C156.299 125.106 155.972 125.199 155.692 125.386C155.421 125.573 155.207 125.829 155.048 126.156C154.899 126.483 154.824 126.861 154.824 127.29C154.824 127.729 154.899 128.111 155.048 128.438C155.207 128.765 155.421 129.021 155.692 129.208C155.972 129.395 156.299 129.488 156.672 129.488ZM165.171 131.14C164.63 131.14 164.163 131.023 163.771 130.79C163.388 130.547 163.09 130.207 162.875 129.768C162.67 129.32 162.567 128.783 162.567 128.158V123.594H164.555V127.836C164.555 128.172 164.611 128.466 164.723 128.718C164.835 128.961 164.994 129.147 165.199 129.278C165.404 129.409 165.656 129.474 165.955 129.474C166.17 129.474 166.366 129.441 166.543 129.376C166.73 129.301 166.888 129.199 167.019 129.068C167.159 128.937 167.266 128.783 167.341 128.606C167.416 128.429 167.453 128.237 167.453 128.032V123.594H169.441V131H167.551L167.481 129.474L167.845 129.306C167.733 129.651 167.546 129.964 167.285 130.244C167.024 130.524 166.711 130.743 166.347 130.902C165.983 131.061 165.591 131.14 165.171 131.14ZM171.455 131V120.64H173.443V131H171.455ZM178.838 131.14C178.035 131.14 177.331 130.977 176.724 130.65C176.127 130.323 175.66 129.875 175.324 129.306C174.997 128.737 174.834 128.083 174.834 127.346C174.834 126.767 174.927 126.24 175.114 125.764C175.301 125.288 175.562 124.877 175.898 124.532C176.234 124.177 176.631 123.907 177.088 123.72C177.555 123.524 178.059 123.426 178.6 123.426C179.104 123.426 179.571 123.519 180 123.706C180.429 123.893 180.798 124.154 181.106 124.49C181.423 124.817 181.666 125.209 181.834 125.666C182.002 126.114 182.077 126.599 182.058 127.122L182.044 127.738H176.094L175.772 126.52H180.406L180.182 126.772V126.464C180.163 126.212 180.079 125.988 179.93 125.792C179.79 125.587 179.608 125.428 179.384 125.316C179.16 125.195 178.908 125.134 178.628 125.134C178.217 125.134 177.867 125.213 177.578 125.372C177.298 125.531 177.083 125.764 176.934 126.072C176.785 126.38 176.71 126.753 176.71 127.192C176.71 127.64 176.803 128.027 176.99 128.354C177.186 128.681 177.457 128.937 177.802 129.124C178.157 129.301 178.572 129.39 179.048 129.39C179.375 129.39 179.673 129.339 179.944 129.236C180.215 129.133 180.504 128.956 180.812 128.704L181.764 130.034C181.493 130.277 181.195 130.482 180.868 130.65C180.541 130.809 180.205 130.93 179.86 131.014C179.515 131.098 179.174 131.14 178.838 131.14ZM188.394 131V123.076C188.394 122.619 188.497 122.203 188.702 121.83C188.908 121.457 189.188 121.163 189.542 120.948C189.906 120.733 190.331 120.626 190.816 120.626C191.143 120.626 191.451 120.682 191.74 120.794C192.03 120.897 192.277 121.037 192.482 121.214L191.894 122.684C191.773 122.609 191.647 122.549 191.516 122.502C191.395 122.446 191.283 122.418 191.18 122.418C191.003 122.418 190.854 122.451 190.732 122.516C190.62 122.572 190.536 122.661 190.48 122.782C190.424 122.894 190.396 123.039 190.396 123.216V131H189.402C189.188 131 188.996 131 188.828 131C188.66 131 188.516 131 188.394 131ZM187.288 125.456V123.776H191.992V125.456H187.288ZM196.487 131.14C195.731 131.14 195.054 130.977 194.457 130.65C193.869 130.314 193.402 129.857 193.057 129.278C192.721 128.699 192.553 128.037 192.553 127.29C192.553 126.543 192.721 125.881 193.057 125.302C193.402 124.723 193.869 124.271 194.457 123.944C195.054 123.608 195.731 123.44 196.487 123.44C197.233 123.44 197.901 123.608 198.489 123.944C199.086 124.271 199.553 124.723 199.889 125.302C200.225 125.881 200.393 126.543 200.393 127.29C200.393 128.037 200.225 128.699 199.889 129.278C199.553 129.857 199.086 130.314 198.489 130.65C197.901 130.977 197.233 131.14 196.487 131.14ZM196.487 129.404C196.851 129.404 197.177 129.315 197.467 129.138C197.756 128.951 197.98 128.699 198.139 128.382C198.307 128.055 198.386 127.691 198.377 127.29C198.386 126.879 198.307 126.515 198.139 126.198C197.98 125.871 197.756 125.619 197.467 125.442C197.177 125.255 196.851 125.162 196.487 125.162C196.113 125.162 195.782 125.255 195.493 125.442C195.203 125.629 194.975 125.881 194.807 126.198C194.639 126.515 194.559 126.879 194.569 127.29C194.559 127.691 194.639 128.055 194.807 128.382C194.975 128.699 195.203 128.951 195.493 129.138C195.782 129.315 196.113 129.404 196.487 129.404ZM201.902 131V123.594H203.82L203.89 125.974L203.554 125.484C203.666 125.101 203.848 124.756 204.1 124.448C204.352 124.131 204.646 123.883 204.982 123.706C205.328 123.529 205.687 123.44 206.06 123.44C206.219 123.44 206.373 123.454 206.522 123.482C206.672 123.51 206.798 123.543 206.9 123.58L206.368 125.764C206.266 125.708 206.13 125.661 205.962 125.624C205.804 125.577 205.64 125.554 205.472 125.554C205.248 125.554 205.038 125.596 204.842 125.68C204.656 125.755 204.492 125.867 204.352 126.016C204.212 126.156 204.1 126.324 204.016 126.52C203.942 126.716 203.904 126.931 203.904 127.164V131H201.902ZM212.348 131V120.64H214.336V131H212.348ZM218.989 131.14C218.373 131.14 217.817 130.972 217.323 130.636C216.828 130.3 216.436 129.843 216.147 129.264C215.857 128.685 215.713 128.023 215.713 127.276C215.713 126.529 215.857 125.867 216.147 125.288C216.445 124.709 216.847 124.257 217.351 123.93C217.855 123.603 218.429 123.44 219.073 123.44C219.437 123.44 219.768 123.496 220.067 123.608C220.375 123.711 220.641 123.855 220.865 124.042C221.098 124.229 221.294 124.443 221.453 124.686C221.611 124.929 221.723 125.19 221.789 125.47L221.369 125.4V123.594H223.343V131H221.341V129.222L221.789 129.18C221.714 129.441 221.593 129.689 221.425 129.922C221.257 130.155 221.047 130.365 220.795 130.552C220.552 130.729 220.277 130.874 219.969 130.986C219.661 131.089 219.334 131.14 218.989 131.14ZM219.535 129.418C219.908 129.418 220.235 129.329 220.515 129.152C220.795 128.975 221.009 128.727 221.159 128.41C221.317 128.083 221.397 127.705 221.397 127.276C221.397 126.856 221.317 126.487 221.159 126.17C221.009 125.853 220.795 125.605 220.515 125.428C220.235 125.241 219.908 125.148 219.535 125.148C219.171 125.148 218.849 125.241 218.569 125.428C218.298 125.605 218.083 125.853 217.925 126.17C217.766 126.487 217.687 126.856 217.687 127.276C217.687 127.705 217.766 128.083 217.925 128.41C218.083 128.727 218.298 128.975 218.569 129.152C218.849 129.329 219.171 129.418 219.535 129.418ZM226.05 131V121.718H228.038V131H226.05ZM224.664 125.372V123.594H229.564V125.372H224.664ZM234.291 131.14C233.489 131.14 232.784 130.977 232.177 130.65C231.58 130.323 231.113 129.875 230.777 129.306C230.451 128.737 230.287 128.083 230.287 127.346C230.287 126.767 230.381 126.24 230.567 125.764C230.754 125.288 231.015 124.877 231.351 124.532C231.687 124.177 232.084 123.907 232.541 123.72C233.008 123.524 233.512 123.426 234.053 123.426C234.557 123.426 235.024 123.519 235.453 123.706C235.883 123.893 236.251 124.154 236.559 124.49C236.877 124.817 237.119 125.209 237.287 125.666C237.455 126.114 237.53 126.599 237.511 127.122L237.497 127.738H231.547L231.225 126.52H235.859L235.635 126.772V126.464C235.617 126.212 235.533 125.988 235.383 125.792C235.243 125.587 235.061 125.428 234.837 125.316C234.613 125.195 234.361 125.134 234.081 125.134C233.671 125.134 233.321 125.213 233.031 125.372C232.751 125.531 232.537 125.764 232.387 126.072C232.238 126.38 232.163 126.753 232.163 127.192C232.163 127.64 232.257 128.027 232.443 128.354C232.639 128.681 232.91 128.937 233.255 129.124C233.61 129.301 234.025 129.39 234.501 129.39C234.828 129.39 235.127 129.339 235.397 129.236C235.668 129.133 235.957 128.956 236.265 128.704L237.217 130.034C236.947 130.277 236.648 130.482 236.321 130.65C235.995 130.809 235.659 130.93 235.313 131.014C234.968 131.098 234.627 131.14 234.291 131.14ZM238.98 131V123.594H240.898L240.968 125.974L240.632 125.484C240.744 125.101 240.926 124.756 241.178 124.448C241.43 124.131 241.724 123.883 242.06 123.706C242.406 123.529 242.765 123.44 243.138 123.44C243.297 123.44 243.451 123.454 243.6 123.482C243.75 123.51 243.876 123.543 243.978 123.58L243.446 125.764C243.344 125.708 243.208 125.661 243.04 125.624C242.882 125.577 242.718 125.554 242.55 125.554C242.326 125.554 242.116 125.596 241.92 125.68C241.734 125.755 241.57 125.867 241.43 126.016C241.29 126.156 241.178 126.324 241.094 126.52C241.02 126.716 240.982 126.931 240.982 127.164V131H238.98Z" fill="black"/>
<path d="M120.274 252V242.2H126.896V244.048H122.332V250.152H126.994V252H120.274ZM121.254 247.898V246.106H126.224V247.898H121.254ZM128.881 252V244.594H130.785L130.841 246.106L130.449 246.274C130.551 245.938 130.733 245.635 130.995 245.364C131.265 245.084 131.587 244.86 131.961 244.692C132.334 244.524 132.726 244.44 133.137 244.44C133.697 244.44 134.163 244.552 134.537 244.776C134.919 245 135.204 245.341 135.391 245.798C135.587 246.246 135.685 246.801 135.685 247.464V252H133.697V247.618C133.697 247.282 133.65 247.002 133.557 246.778C133.463 246.554 133.319 246.391 133.123 246.288C132.936 246.185 132.703 246.139 132.423 246.148C132.199 246.148 131.989 246.185 131.793 246.26C131.606 246.325 131.443 246.423 131.303 246.554C131.172 246.685 131.065 246.834 130.981 247.002C130.906 247.17 130.869 247.352 130.869 247.548V252H129.889C129.674 252 129.483 252 129.315 252C129.147 252 129.002 252 128.881 252ZM140.362 252.14C139.746 252.14 139.19 251.972 138.696 251.636C138.201 251.3 137.809 250.843 137.52 250.264C137.23 249.685 137.086 249.023 137.086 248.276C137.086 247.529 137.23 246.867 137.52 246.288C137.818 245.709 138.22 245.257 138.724 244.93C139.228 244.603 139.802 244.44 140.446 244.44C140.81 244.44 141.141 244.496 141.44 244.608C141.748 244.711 142.014 244.855 142.238 245.042C142.471 245.229 142.667 245.443 142.826 245.686C142.984 245.929 143.096 246.19 143.162 246.47L142.742 246.4V244.594H144.716V252H142.714V250.222L143.162 250.18C143.087 250.441 142.966 250.689 142.798 250.922C142.63 251.155 142.42 251.365 142.168 251.552C141.925 251.729 141.65 251.874 141.342 251.986C141.034 252.089 140.707 252.14 140.362 252.14ZM140.908 250.418C141.281 250.418 141.608 250.329 141.888 250.152C142.168 249.975 142.382 249.727 142.532 249.41C142.69 249.083 142.77 248.705 142.77 248.276C142.77 247.856 142.69 247.487 142.532 247.17C142.382 246.853 142.168 246.605 141.888 246.428C141.608 246.241 141.281 246.148 140.908 246.148C140.544 246.148 140.222 246.241 139.942 246.428C139.671 246.605 139.456 246.853 139.298 247.17C139.139 247.487 139.06 247.856 139.06 248.276C139.06 248.705 139.139 249.083 139.298 249.41C139.456 249.727 139.671 249.975 139.942 250.152C140.222 250.329 140.544 250.418 140.908 250.418ZM150.979 252.14C150.652 252.14 150.335 252.093 150.027 252C149.719 251.907 149.439 251.781 149.187 251.622C148.935 251.454 148.725 251.267 148.557 251.062C148.389 250.847 148.282 250.628 148.235 250.404L148.683 250.236L148.585 251.972H146.709V241.64H148.711V246.33L148.319 246.176C148.375 245.952 148.482 245.737 148.641 245.532C148.8 245.317 149 245.131 149.243 244.972C149.486 244.804 149.752 244.673 150.041 244.58C150.33 244.487 150.629 244.44 150.937 244.44C151.581 244.44 152.155 244.608 152.659 244.944C153.172 245.271 153.574 245.723 153.863 246.302C154.152 246.881 154.297 247.543 154.297 248.29C154.297 249.037 154.152 249.699 153.863 250.278C153.583 250.857 153.191 251.314 152.687 251.65C152.183 251.977 151.614 252.14 150.979 252.14ZM150.503 250.446C150.876 250.446 151.198 250.357 151.469 250.18C151.749 249.993 151.968 249.741 152.127 249.424C152.286 249.097 152.365 248.719 152.365 248.29C152.365 247.87 152.286 247.497 152.127 247.17C151.978 246.843 151.763 246.591 151.483 246.414C151.203 246.237 150.876 246.148 150.503 246.148C150.13 246.148 149.803 246.237 149.523 246.414C149.243 246.591 149.024 246.843 148.865 247.17C148.716 247.497 148.641 247.87 148.641 248.29C148.641 248.719 148.716 249.097 148.865 249.424C149.024 249.741 149.243 249.993 149.523 250.18C149.803 250.357 150.13 250.446 150.503 250.446ZM155.815 252V241.64H157.803V252H155.815ZM163.197 252.14C162.395 252.14 161.69 251.977 161.083 251.65C160.486 251.323 160.019 250.875 159.683 250.306C159.357 249.737 159.193 249.083 159.193 248.346C159.193 247.767 159.287 247.24 159.473 246.764C159.66 246.288 159.921 245.877 160.257 245.532C160.593 245.177 160.99 244.907 161.447 244.72C161.914 244.524 162.418 244.426 162.959 244.426C163.463 244.426 163.93 244.519 164.359 244.706C164.789 244.893 165.157 245.154 165.465 245.49C165.783 245.817 166.025 246.209 166.193 246.666C166.361 247.114 166.436 247.599 166.417 248.122L166.403 248.738H160.453L160.131 247.52H164.765L164.541 247.772V247.464C164.523 247.212 164.439 246.988 164.289 246.792C164.149 246.587 163.967 246.428 163.743 246.316C163.519 246.195 163.267 246.134 162.987 246.134C162.577 246.134 162.227 246.213 161.937 246.372C161.657 246.531 161.443 246.764 161.293 247.072C161.144 247.38 161.069 247.753 161.069 248.192C161.069 248.64 161.163 249.027 161.349 249.354C161.545 249.681 161.816 249.937 162.161 250.124C162.516 250.301 162.931 250.39 163.407 250.39C163.734 250.39 164.033 250.339 164.303 250.236C164.574 250.133 164.863 249.956 165.171 249.704L166.123 251.034C165.853 251.277 165.554 251.482 165.227 251.65C164.901 251.809 164.565 251.93 164.219 252.014C163.874 252.098 163.533 252.14 163.197 252.14ZM172.46 252V242.2H176.8C177.406 242.2 177.957 242.34 178.452 242.62C178.946 242.891 179.334 243.259 179.614 243.726C179.903 244.193 180.048 244.725 180.048 245.322C180.048 245.91 179.903 246.447 179.614 246.932C179.334 247.408 178.946 247.786 178.452 248.066C177.957 248.346 177.406 248.486 176.8 248.486H174.49V252H172.46ZM178.018 252L175.526 247.576L177.682 247.226L180.454 252.014L178.018 252ZM174.49 246.778H176.702C176.954 246.778 177.173 246.722 177.36 246.61C177.556 246.489 177.705 246.325 177.808 246.12C177.91 245.905 177.962 245.667 177.962 245.406C177.962 245.126 177.901 244.883 177.78 244.678C177.658 244.473 177.481 244.314 177.248 244.202C177.014 244.081 176.744 244.02 176.436 244.02H174.49V246.778ZM185.223 252.14C184.42 252.14 183.716 251.977 183.109 251.65C182.512 251.323 182.045 250.875 181.709 250.306C181.382 249.737 181.219 249.083 181.219 248.346C181.219 247.767 181.312 247.24 181.499 246.764C181.686 246.288 181.947 245.877 182.283 245.532C182.619 245.177 183.016 244.907 183.473 244.72C183.94 244.524 184.444 244.426 184.985 244.426C185.489 244.426 185.956 244.519 186.385 244.706C186.814 244.893 187.183 245.154 187.491 245.49C187.808 245.817 188.051 246.209 188.219 246.666C188.387 247.114 188.462 247.599 188.443 248.122L188.429 248.738H182.479L182.157 247.52H186.791L186.567 247.772V247.464C186.548 247.212 186.464 246.988 186.315 246.792C186.175 246.587 185.993 246.428 185.769 246.316C185.545 246.195 185.293 246.134 185.013 246.134C184.602 246.134 184.252 246.213 183.963 246.372C183.683 246.531 183.468 246.764 183.319 247.072C183.17 247.38 183.095 247.753 183.095 248.192C183.095 248.64 183.188 249.027 183.375 249.354C183.571 249.681 183.842 249.937 184.187 250.124C184.542 250.301 184.957 250.39 185.433 250.39C185.76 250.39 186.058 250.339 186.329 250.236C186.6 250.133 186.889 249.956 187.197 249.704L188.149 251.034C187.878 251.277 187.58 251.482 187.253 251.65C186.926 251.809 186.59 251.93 186.245 252.014C185.9 252.098 185.559 252.14 185.223 252.14ZM193.132 252.14C192.423 252.14 191.788 251.972 191.228 251.636C190.668 251.3 190.225 250.843 189.898 250.264C189.581 249.685 189.422 249.027 189.422 248.29C189.422 247.553 189.581 246.895 189.898 246.316C190.225 245.737 190.668 245.28 191.228 244.944C191.788 244.608 192.423 244.44 193.132 244.44C193.795 244.44 194.401 244.561 194.952 244.804C195.503 245.047 195.932 245.383 196.24 245.812L195.148 247.128C195.017 246.951 194.854 246.792 194.658 246.652C194.462 246.503 194.247 246.386 194.014 246.302C193.79 246.218 193.557 246.176 193.314 246.176C192.931 246.176 192.591 246.269 192.292 246.456C192.003 246.633 191.774 246.881 191.606 247.198C191.438 247.515 191.354 247.879 191.354 248.29C191.354 248.682 191.438 249.037 191.606 249.354C191.783 249.671 192.021 249.923 192.32 250.11C192.619 250.297 192.955 250.39 193.328 250.39C193.571 250.39 193.799 250.357 194.014 250.292C194.229 250.227 194.429 250.124 194.616 249.984C194.812 249.844 194.989 249.676 195.148 249.48L196.226 250.796C195.918 251.197 195.479 251.524 194.91 251.776C194.35 252.019 193.757 252.14 193.132 252.14ZM200.048 252.14C199.507 252.14 199.04 252.023 198.648 251.79C198.265 251.547 197.967 251.207 197.752 250.768C197.547 250.32 197.444 249.783 197.444 249.158V244.594H199.432V248.836C199.432 249.172 199.488 249.466 199.6 249.718C199.712 249.961 199.871 250.147 200.076 250.278C200.281 250.409 200.533 250.474 200.832 250.474C201.047 250.474 201.243 250.441 201.42 250.376C201.607 250.301 201.765 250.199 201.896 250.068C202.036 249.937 202.143 249.783 202.218 249.606C202.293 249.429 202.33 249.237 202.33 249.032V244.594H204.318V252H202.428L202.358 250.474L202.722 250.306C202.61 250.651 202.423 250.964 202.162 251.244C201.901 251.524 201.588 251.743 201.224 251.902C200.86 252.061 200.468 252.14 200.048 252.14ZM206.318 252V244.594H208.236L208.306 246.974L207.97 246.484C208.082 246.101 208.264 245.756 208.516 245.448C208.768 245.131 209.062 244.883 209.398 244.706C209.744 244.529 210.103 244.44 210.476 244.44C210.635 244.44 210.789 244.454 210.938 244.482C211.088 244.51 211.214 244.543 211.316 244.58L210.784 246.764C210.682 246.708 210.546 246.661 210.378 246.624C210.22 246.577 210.056 246.554 209.888 246.554C209.664 246.554 209.454 246.596 209.258 246.68C209.072 246.755 208.908 246.867 208.768 247.016C208.628 247.156 208.516 247.324 208.432 247.52C208.358 247.716 208.32 247.931 208.32 248.164V252H206.318ZM212.457 252V244.594H214.375L214.445 246.974L214.109 246.484C214.221 246.101 214.403 245.756 214.655 245.448C214.907 245.131 215.201 244.883 215.537 244.706C215.882 244.529 216.242 244.44 216.615 244.44C216.774 244.44 216.928 244.454 217.077 244.482C217.226 244.51 217.352 244.543 217.455 244.58L216.923 246.764C216.82 246.708 216.685 246.661 216.517 246.624C216.358 246.577 216.195 246.554 216.027 246.554C215.803 246.554 215.593 246.596 215.397 246.68C215.21 246.755 215.047 246.867 214.907 247.016C214.767 247.156 214.655 247.324 214.571 247.52C214.496 247.716 214.459 247.931 214.459 248.164V252H212.457ZM221.795 252.14C220.992 252.14 220.288 251.977 219.681 251.65C219.084 251.323 218.617 250.875 218.281 250.306C217.954 249.737 217.791 249.083 217.791 248.346C217.791 247.767 217.884 247.24 218.071 246.764C218.258 246.288 218.519 245.877 218.855 245.532C219.191 245.177 219.588 244.907 220.045 244.72C220.512 244.524 221.016 244.426 221.557 244.426C222.061 244.426 222.528 244.519 222.957 244.706C223.386 244.893 223.755 245.154 224.063 245.49C224.38 245.817 224.623 246.209 224.791 246.666C224.959 247.114 225.034 247.599 225.015 248.122L225.001 248.738H219.051L218.729 247.52H223.363L223.139 247.772V247.464C223.12 247.212 223.036 246.988 222.887 246.792C222.747 246.587 222.565 246.428 222.341 246.316C222.117 246.195 221.865 246.134 221.585 246.134C221.174 246.134 220.824 246.213 220.535 246.372C220.255 246.531 220.04 246.764 219.891 247.072C219.742 247.38 219.667 247.753 219.667 248.192C219.667 248.64 219.76 249.027 219.947 249.354C220.143 249.681 220.414 249.937 220.759 250.124C221.114 250.301 221.529 250.39 222.005 250.39C222.332 250.39 222.63 250.339 222.901 250.236C223.172 250.133 223.461 249.956 223.769 249.704L224.721 251.034C224.45 251.277 224.152 251.482 223.825 251.65C223.498 251.809 223.162 251.93 222.817 252.014C222.472 252.098 222.131 252.14 221.795 252.14ZM226.484 252V244.594H228.388L228.444 246.106L228.052 246.274C228.155 245.938 228.337 245.635 228.598 245.364C228.869 245.084 229.191 244.86 229.564 244.692C229.938 244.524 230.33 244.44 230.74 244.44C231.3 244.44 231.767 244.552 232.14 244.776C232.523 245 232.808 245.341 232.994 245.798C233.19 246.246 233.288 246.801 233.288 247.464V252H231.3V247.618C231.3 247.282 231.254 247.002 231.16 246.778C231.067 246.554 230.922 246.391 230.726 246.288C230.54 246.185 230.306 246.139 230.026 246.148C229.802 246.148 229.592 246.185 229.396 246.26C229.21 246.325 229.046 246.423 228.906 246.554C228.776 246.685 228.668 246.834 228.584 247.002C228.51 247.17 228.472 247.352 228.472 247.548V252H227.492C227.278 252 227.086 252 226.918 252C226.75 252 226.606 252 226.484 252ZM238.413 252.14C237.704 252.14 237.069 251.972 236.509 251.636C235.949 251.3 235.506 250.843 235.179 250.264C234.862 249.685 234.703 249.027 234.703 248.29C234.703 247.553 234.862 246.895 235.179 246.316C235.506 245.737 235.949 245.28 236.509 244.944C237.069 244.608 237.704 244.44 238.413 244.44C239.076 244.44 239.683 244.561 240.233 244.804C240.784 245.047 241.213 245.383 241.521 245.812L240.429 247.128C240.299 246.951 240.135 246.792 239.939 246.652C239.743 246.503 239.529 246.386 239.295 246.302C239.071 246.218 238.838 246.176 238.595 246.176C238.213 246.176 237.872 246.269 237.573 246.456C237.284 246.633 237.055 246.881 236.887 247.198C236.719 247.515 236.635 247.879 236.635 248.29C236.635 248.682 236.719 249.037 236.887 249.354C237.065 249.671 237.303 249.923 237.601 250.11C237.9 250.297 238.236 250.39 238.609 250.39C238.852 250.39 239.081 250.357 239.295 250.292C239.51 250.227 239.711 250.124 239.897 249.984C240.093 249.844 240.271 249.676 240.429 249.48L241.507 250.796C241.199 251.197 240.761 251.524 240.191 251.776C239.631 252.019 239.039 252.14 238.413 252.14ZM246.295 252.14C245.492 252.14 244.788 251.977 244.181 251.65C243.584 251.323 243.117 250.875 242.781 250.306C242.454 249.737 242.291 249.083 242.291 248.346C242.291 247.767 242.384 247.24 242.571 246.764C242.758 246.288 243.019 245.877 243.355 245.532C243.691 245.177 244.088 244.907 244.545 244.72C245.012 244.524 245.516 244.426 246.057 244.426C246.561 244.426 247.028 244.519 247.457 244.706C247.886 244.893 248.255 245.154 248.563 245.49C248.88 245.817 249.123 246.209 249.291 246.666C249.459 247.114 249.534 247.599 249.515 248.122L249.501 248.738H243.551L243.229 247.52H247.863L247.639 247.772V247.464C247.62 247.212 247.536 246.988 247.387 246.792C247.247 246.587 247.065 246.428 246.841 246.316C246.617 246.195 246.365 246.134 246.085 246.134C245.674 246.134 245.324 246.213 245.035 246.372C244.755 246.531 244.54 246.764 244.391 247.072C244.242 247.38 244.167 247.753 244.167 248.192C244.167 248.64 244.26 249.027 244.447 249.354C244.643 249.681 244.914 249.937 245.259 250.124C245.614 250.301 246.029 250.39 246.505 250.39C246.832 250.39 247.13 250.339 247.401 250.236C247.672 250.133 247.961 249.956 248.269 249.704L249.221 251.034C248.95 251.277 248.652 251.482 248.325 251.65C247.998 251.809 247.662 251.93 247.317 252.014C246.972 252.098 246.631 252.14 246.295 252.14Z" fill="black"/>
<rect x="98" y="145" width="262" height="7" rx="3.5" fill="#E4E6EA"/>
<rect x="98" y="266" width="262" height="7" rx="3.5" fill="#E4E6EA"/>
<path d="M100.31 177V171.04H98.35V170H103.41V171.04H101.39V177H100.31ZM104.652 177V171.75H105.682V177H104.652ZM105.152 170.59C104.932 170.59 104.762 170.533 104.642 170.42C104.522 170.307 104.462 170.147 104.462 169.94C104.462 169.747 104.522 169.59 104.642 169.47C104.768 169.35 104.938 169.29 105.152 169.29C105.372 169.29 105.542 169.347 105.662 169.46C105.782 169.573 105.842 169.733 105.842 169.94C105.842 170.133 105.778 170.29 105.652 170.41C105.532 170.53 105.365 170.59 105.152 170.59ZM107.245 177V171.75H108.285V172.87L108.095 172.99C108.148 172.817 108.232 172.65 108.345 172.49C108.465 172.33 108.608 172.19 108.775 172.07C108.948 171.943 109.132 171.843 109.325 171.77C109.525 171.697 109.728 171.66 109.935 171.66C110.235 171.66 110.498 171.71 110.725 171.81C110.952 171.91 111.138 172.06 111.285 172.26C111.432 172.46 111.538 172.71 111.605 173.01L111.445 172.97L111.515 172.8C111.588 172.647 111.688 172.503 111.815 172.37C111.948 172.23 112.098 172.107 112.265 172C112.432 171.893 112.608 171.81 112.795 171.75C112.982 171.69 113.165 171.66 113.345 171.66C113.738 171.66 114.062 171.74 114.315 171.9C114.575 172.06 114.768 172.303 114.895 172.63C115.028 172.957 115.095 173.363 115.095 173.85V177H114.055V173.91C114.055 173.61 114.015 173.367 113.935 173.18C113.862 172.987 113.748 172.843 113.595 172.75C113.442 172.657 113.245 172.61 113.005 172.61C112.818 172.61 112.642 172.643 112.475 172.71C112.315 172.77 112.175 172.857 112.055 172.97C111.935 173.083 111.842 173.217 111.775 173.37C111.708 173.517 111.675 173.68 111.675 173.86V177H110.635V173.89C110.635 173.617 110.595 173.387 110.515 173.2C110.435 173.007 110.318 172.86 110.165 172.76C110.012 172.66 109.825 172.61 109.605 172.61C109.418 172.61 109.245 172.643 109.085 172.71C108.925 172.77 108.785 172.857 108.665 172.97C108.545 173.077 108.452 173.207 108.385 173.36C108.318 173.507 108.285 173.667 108.285 173.84V177H107.245ZM118.924 177.1C118.384 177.1 117.904 176.987 117.484 176.76C117.071 176.527 116.744 176.21 116.504 175.81C116.271 175.41 116.154 174.95 116.154 174.43C116.154 174.017 116.221 173.64 116.354 173.3C116.487 172.96 116.671 172.667 116.904 172.42C117.144 172.167 117.427 171.973 117.754 171.84C118.087 171.7 118.447 171.63 118.834 171.63C119.174 171.63 119.491 171.697 119.784 171.83C120.077 171.957 120.331 172.133 120.544 172.36C120.764 172.587 120.931 172.857 121.044 173.17C121.164 173.477 121.221 173.813 121.214 174.18L121.204 174.62H116.914L116.684 173.8H120.314L120.164 173.97V173.73C120.144 173.51 120.071 173.313 119.944 173.14C119.817 172.967 119.657 172.83 119.464 172.73C119.271 172.63 119.061 172.58 118.834 172.58C118.474 172.58 118.171 172.65 117.924 172.79C117.677 172.923 117.491 173.123 117.364 173.39C117.237 173.65 117.174 173.973 117.174 174.36C117.174 174.727 117.251 175.047 117.404 175.32C117.557 175.587 117.774 175.793 118.054 175.94C118.334 176.087 118.657 176.16 119.024 176.16C119.284 176.16 119.524 176.117 119.744 176.03C119.971 175.943 120.214 175.787 120.474 175.56L120.994 176.29C120.834 176.45 120.637 176.59 120.404 176.71C120.177 176.83 119.934 176.927 119.674 177C119.421 177.067 119.171 177.1 118.924 177.1Z" fill="#3B3B3B"/>
<path d="M98.98 298V291H103.39V292.04H100.06V296.96H103.39V298H98.98ZM99.47 294.93V293.89H102.84V294.93H99.47ZM106.436 298L104.216 292.75H105.326L106.926 296.68L106.736 296.77L108.446 292.75H109.506L107.176 298H106.436ZM112.752 298.1C112.212 298.1 111.732 297.987 111.312 297.76C110.899 297.527 110.572 297.21 110.332 296.81C110.099 296.41 109.982 295.95 109.982 295.43C109.982 295.017 110.049 294.64 110.182 294.3C110.315 293.96 110.499 293.667 110.732 293.42C110.972 293.167 111.255 292.973 111.582 292.84C111.915 292.7 112.275 292.63 112.662 292.63C113.002 292.63 113.319 292.697 113.612 292.83C113.905 292.957 114.159 293.133 114.372 293.36C114.592 293.587 114.759 293.857 114.872 294.17C114.992 294.477 115.049 294.813 115.042 295.18L115.032 295.62H110.742L110.512 294.8H114.142L113.992 294.97V294.73C113.972 294.51 113.899 294.313 113.772 294.14C113.645 293.967 113.485 293.83 113.292 293.73C113.099 293.63 112.889 293.58 112.662 293.58C112.302 293.58 111.999 293.65 111.752 293.79C111.505 293.923 111.319 294.123 111.192 294.39C111.065 294.65 111.002 294.973 111.002 295.36C111.002 295.727 111.079 296.047 111.232 296.32C111.385 296.587 111.602 296.793 111.882 296.94C112.162 297.087 112.485 297.16 112.852 297.16C113.112 297.16 113.352 297.117 113.572 297.03C113.799 296.943 114.042 296.787 114.302 296.56L114.822 297.29C114.662 297.45 114.465 297.59 114.232 297.71C114.005 297.83 113.762 297.927 113.502 298C113.249 298.067 112.999 298.1 112.752 298.1ZM116.161 298V292.75H117.201V294.4L117.101 294C117.175 293.747 117.298 293.517 117.471 293.31C117.651 293.103 117.855 292.94 118.081 292.82C118.315 292.7 118.555 292.64 118.801 292.64C118.915 292.64 119.021 292.65 119.121 292.67C119.228 292.69 119.311 292.713 119.371 292.74L119.101 293.86C119.021 293.827 118.931 293.8 118.831 293.78C118.738 293.753 118.645 293.74 118.551 293.74C118.371 293.74 118.198 293.777 118.031 293.85C117.871 293.917 117.728 294.013 117.601 294.14C117.481 294.26 117.385 294.403 117.311 294.57C117.238 294.73 117.201 294.907 117.201 295.1V298H116.161ZM121.075 300.3L122.135 297.85L122.145 298.67L119.525 292.75H120.725L122.365 296.61C122.398 296.677 122.438 296.78 122.485 296.92C122.531 297.053 122.571 297.187 122.605 297.32L122.345 297.38C122.398 297.24 122.448 297.1 122.495 296.96C122.548 296.82 122.598 296.68 122.645 296.54L124.015 292.75H125.235L123.075 298L122.185 300.3H121.075Z" fill="#3B3B3B"/>
<path d="M98.98 354V347H103.39V348.04H100.06V352.96H103.39V354H98.98ZM99.47 350.93V349.89H102.84V350.93H99.47ZM104.863 354V348.75H105.893V349.83L105.713 349.95C105.779 349.717 105.909 349.503 106.103 349.31C106.296 349.11 106.526 348.95 106.793 348.83C107.059 348.703 107.333 348.64 107.613 348.64C108.013 348.64 108.346 348.72 108.613 348.88C108.879 349.033 109.079 349.27 109.213 349.59C109.346 349.91 109.413 350.313 109.413 350.8V354H108.383V350.87C108.383 350.57 108.343 350.323 108.263 350.13C108.183 349.93 108.059 349.787 107.893 349.7C107.726 349.607 107.519 349.567 107.273 349.58C107.073 349.58 106.889 349.613 106.723 349.68C106.556 349.74 106.409 349.827 106.283 349.94C106.163 350.053 106.066 350.187 105.993 350.34C105.926 350.487 105.893 350.647 105.893 350.82V354H105.383C105.296 354 105.209 354 105.123 354C105.036 354 104.949 354 104.863 354ZM113 354.1C112.52 354.1 112.09 353.983 111.71 353.75C111.337 353.51 111.04 353.187 110.82 352.78C110.6 352.367 110.49 351.897 110.49 351.37C110.49 350.843 110.597 350.377 110.81 349.97C111.03 349.557 111.327 349.233 111.7 349C112.073 348.76 112.497 348.64 112.97 348.64C113.23 348.64 113.48 348.683 113.72 348.77C113.967 348.85 114.187 348.963 114.38 349.11C114.573 349.25 114.723 349.407 114.83 349.58C114.943 349.747 115 349.917 115 350.09L114.7 350.11V346.6H115.73V354H114.7V352.75H114.9C114.9 352.91 114.847 353.07 114.74 353.23C114.633 353.383 114.49 353.527 114.31 353.66C114.137 353.793 113.933 353.9 113.7 353.98C113.473 354.06 113.24 354.1 113 354.1ZM113.14 353.21C113.453 353.21 113.73 353.13 113.97 352.97C114.21 352.81 114.397 352.593 114.53 352.32C114.67 352.04 114.74 351.723 114.74 351.37C114.74 351.017 114.67 350.703 114.53 350.43C114.397 350.15 114.21 349.93 113.97 349.77C113.73 349.61 113.453 349.53 113.14 349.53C112.827 349.53 112.55 349.61 112.31 349.77C112.07 349.93 111.88 350.15 111.74 350.43C111.607 350.703 111.54 351.017 111.54 351.37C111.54 351.723 111.607 352.04 111.74 352.32C111.88 352.593 112.07 352.81 112.31 352.97C112.55 353.13 112.827 353.21 113.14 353.21ZM120.21 354V347H122.95C123.45 347 123.9 347.083 124.3 347.25C124.707 347.417 125.054 347.657 125.34 347.97C125.627 348.283 125.847 348.653 126 349.08C126.154 349.507 126.23 349.98 126.23 350.5C126.23 351.02 126.154 351.497 126 351.93C125.847 352.357 125.627 352.727 125.34 353.04C125.06 353.347 124.717 353.583 124.31 353.75C123.904 353.917 123.45 354 122.95 354H120.21ZM121.29 353.07L121.26 352.96H122.9C123.254 352.96 123.567 352.903 123.84 352.79C124.12 352.677 124.354 352.517 124.54 352.31C124.734 352.097 124.88 351.837 124.98 351.53C125.08 351.223 125.13 350.88 125.13 350.5C125.13 350.12 125.08 349.78 124.98 349.48C124.88 349.173 124.734 348.913 124.54 348.7C124.347 348.487 124.114 348.323 123.84 348.21C123.567 348.097 123.254 348.04 122.9 348.04H121.23L121.29 347.95V353.07ZM129.451 354.1C129.018 354.1 128.621 353.98 128.261 353.74C127.908 353.5 127.624 353.173 127.411 352.76C127.198 352.347 127.091 351.88 127.091 351.36C127.091 350.833 127.198 350.367 127.411 349.96C127.631 349.547 127.924 349.223 128.291 348.99C128.664 348.757 129.081 348.64 129.541 348.64C129.814 348.64 130.064 348.68 130.291 348.76C130.518 348.84 130.714 348.953 130.881 349.1C131.054 349.24 131.194 349.403 131.301 349.59C131.414 349.777 131.484 349.977 131.511 350.19L131.281 350.11V348.75H132.321V354H131.281V352.75L131.521 352.68C131.481 352.86 131.398 353.037 131.271 353.21C131.151 353.377 130.994 353.527 130.801 353.66C130.614 353.793 130.404 353.9 130.171 353.98C129.944 354.06 129.704 354.1 129.451 354.1ZM129.721 353.15C130.034 353.15 130.311 353.073 130.551 352.92C130.791 352.767 130.978 352.557 131.111 352.29C131.251 352.017 131.321 351.707 131.321 351.36C131.321 351.02 131.251 350.717 131.111 350.45C130.978 350.183 130.791 349.973 130.551 349.82C130.311 349.667 130.034 349.59 129.721 349.59C129.414 349.59 129.141 349.667 128.901 349.82C128.668 349.973 128.481 350.183 128.341 350.45C128.208 350.717 128.141 351.02 128.141 351.36C128.141 351.707 128.208 352.017 128.341 352.29C128.481 352.557 128.668 352.767 128.901 352.92C129.141 353.073 129.414 353.15 129.721 353.15ZM134.409 354V347.41H135.439V354H134.409ZM133.319 349.75V348.75H136.659V349.75H133.319ZM139.998 354.1C139.458 354.1 138.978 353.987 138.558 353.76C138.145 353.527 137.818 353.21 137.578 352.81C137.345 352.41 137.228 351.95 137.228 351.43C137.228 351.017 137.295 350.64 137.428 350.3C137.561 349.96 137.745 349.667 137.978 349.42C138.218 349.167 138.501 348.973 138.828 348.84C139.161 348.7 139.521 348.63 139.908 348.63C140.248 348.63 140.565 348.697 140.858 348.83C141.151 348.957 141.405 349.133 141.618 349.36C141.838 349.587 142.005 349.857 142.118 350.17C142.238 350.477 142.295 350.813 142.288 351.18L142.278 351.62H137.988L137.758 350.8H141.388L141.238 350.97V350.73C141.218 350.51 141.145 350.313 141.018 350.14C140.891 349.967 140.731 349.83 140.538 349.73C140.345 349.63 140.135 349.58 139.908 349.58C139.548 349.58 139.245 349.65 138.998 349.79C138.751 349.923 138.565 350.123 138.438 350.39C138.311 350.65 138.248 350.973 138.248 351.36C138.248 351.727 138.325 352.047 138.478 352.32C138.631 352.587 138.848 352.793 139.128 352.94C139.408 353.087 139.731 353.16 140.098 353.16C140.358 353.16 140.598 353.117 140.818 353.03C141.045 352.943 141.288 352.787 141.548 352.56L142.068 353.29C141.908 353.45 141.711 353.59 141.478 353.71C141.251 353.83 141.008 353.927 140.748 354C140.495 354.067 140.245 354.1 139.998 354.1Z" fill="#3B3B3B"/>
<path d="M245.98 177V170H248.72C249.22 170 249.67 170.083 250.07 170.25C250.477 170.417 250.823 170.657 251.11 170.97C251.397 171.283 251.617 171.653 251.77 172.08C251.923 172.507 252 172.98 252 173.5C252 174.02 251.923 174.497 251.77 174.93C251.617 175.357 251.397 175.727 251.11 176.04C250.83 176.347 250.487 176.583 250.08 176.75C249.673 176.917 249.22 177 248.72 177H245.98ZM247.06 176.07L247.03 175.96H248.67C249.023 175.96 249.337 175.903 249.61 175.79C249.89 175.677 250.123 175.517 250.31 175.31C250.503 175.097 250.65 174.837 250.75 174.53C250.85 174.223 250.9 173.88 250.9 173.5C250.9 173.12 250.85 172.78 250.75 172.48C250.65 172.173 250.503 171.913 250.31 171.7C250.117 171.487 249.883 171.323 249.61 171.21C249.337 171.097 249.023 171.04 248.67 171.04H247L247.06 170.95V176.07ZM255.22 177.1C254.787 177.1 254.39 176.98 254.03 176.74C253.677 176.5 253.394 176.173 253.18 175.76C252.967 175.347 252.86 174.88 252.86 174.36C252.86 173.833 252.967 173.367 253.18 172.96C253.4 172.547 253.694 172.223 254.06 171.99C254.434 171.757 254.85 171.64 255.31 171.64C255.584 171.64 255.834 171.68 256.06 171.76C256.287 171.84 256.484 171.953 256.65 172.1C256.824 172.24 256.964 172.403 257.07 172.59C257.184 172.777 257.254 172.977 257.28 173.19L257.05 173.11V171.75H258.09V177H257.05V175.75L257.29 175.68C257.25 175.86 257.167 176.037 257.04 176.21C256.92 176.377 256.764 176.527 256.57 176.66C256.384 176.793 256.174 176.9 255.94 176.98C255.714 177.06 255.474 177.1 255.22 177.1ZM255.49 176.15C255.804 176.15 256.08 176.073 256.32 175.92C256.56 175.767 256.747 175.557 256.88 175.29C257.02 175.017 257.09 174.707 257.09 174.36C257.09 174.02 257.02 173.717 256.88 173.45C256.747 173.183 256.56 172.973 256.32 172.82C256.08 172.667 255.804 172.59 255.49 172.59C255.184 172.59 254.91 172.667 254.67 172.82C254.437 172.973 254.25 173.183 254.11 173.45C253.977 173.717 253.91 174.02 253.91 174.36C253.91 174.707 253.977 175.017 254.11 175.29C254.25 175.557 254.437 175.767 254.67 175.92C254.91 176.073 255.184 176.15 255.49 176.15ZM260.179 177V170.41H261.209V177H260.179ZM259.089 172.75V171.75H262.429V172.75H259.089ZM265.768 177.1C265.228 177.1 264.748 176.987 264.328 176.76C263.914 176.527 263.588 176.21 263.348 175.81C263.114 175.41 262.998 174.95 262.998 174.43C262.998 174.017 263.064 173.64 263.198 173.3C263.331 172.96 263.514 172.667 263.748 172.42C263.988 172.167 264.271 171.973 264.598 171.84C264.931 171.7 265.291 171.63 265.678 171.63C266.018 171.63 266.334 171.697 266.628 171.83C266.921 171.957 267.174 172.133 267.388 172.36C267.608 172.587 267.774 172.857 267.888 173.17C268.008 173.477 268.064 173.813 268.058 174.18L268.048 174.62H263.758L263.528 173.8H267.158L267.008 173.97V173.73C266.988 173.51 266.914 173.313 266.788 173.14C266.661 172.967 266.501 172.83 266.308 172.73C266.114 172.63 265.904 172.58 265.678 172.58C265.318 172.58 265.014 172.65 264.768 172.79C264.521 172.923 264.334 173.123 264.208 173.39C264.081 173.65 264.018 173.973 264.018 174.36C264.018 174.727 264.094 175.047 264.248 175.32C264.401 175.587 264.618 175.793 264.898 175.94C265.178 176.087 265.501 176.16 265.868 176.16C266.128 176.16 266.368 176.117 266.588 176.03C266.814 175.943 267.058 175.787 267.318 175.56L267.838 176.29C267.678 176.45 267.481 176.59 267.248 176.71C267.021 176.83 266.778 176.927 266.518 177C266.264 177.067 266.014 177.1 265.768 177.1Z" fill="#3B3B3B"/>
<path d="M248.82 298.1C248.333 298.1 247.887 298.013 247.48 297.84C247.073 297.667 246.72 297.42 246.42 297.1C246.12 296.773 245.887 296.39 245.72 295.95C245.56 295.51 245.48 295.027 245.48 294.5C245.48 294 245.567 293.537 245.74 293.11C245.92 292.677 246.167 292.297 246.48 291.97C246.793 291.643 247.157 291.39 247.57 291.21C247.983 291.03 248.43 290.94 248.91 290.94C249.25 290.94 249.58 290.993 249.9 291.1C250.227 291.2 250.52 291.343 250.78 291.53C251.047 291.71 251.263 291.917 251.43 292.15L250.71 292.9C250.517 292.707 250.32 292.547 250.12 292.42C249.927 292.287 249.727 292.187 249.52 292.12C249.32 292.053 249.117 292.02 248.91 292.02C248.583 292.02 248.277 292.083 247.99 292.21C247.71 292.33 247.463 292.5 247.25 292.72C247.043 292.94 246.88 293.203 246.76 293.51C246.64 293.81 246.58 294.14 246.58 294.5C246.58 294.88 246.637 295.227 246.75 295.54C246.87 295.847 247.037 296.11 247.25 296.33C247.463 296.55 247.717 296.72 248.01 296.84C248.31 296.953 248.64 297.01 249 297.01C249.22 297.01 249.437 296.98 249.65 296.92C249.863 296.86 250.063 296.773 250.25 296.66C250.437 296.547 250.607 296.413 250.76 296.26L251.3 297.14C251.147 297.32 250.937 297.483 250.67 297.63C250.41 297.777 250.117 297.893 249.79 297.98C249.47 298.06 249.147 298.1 248.82 298.1ZM252.507 298V290.6H253.537V293.83L253.357 293.95C253.424 293.717 253.554 293.503 253.747 293.31C253.94 293.11 254.17 292.95 254.437 292.83C254.704 292.703 254.977 292.64 255.257 292.64C255.657 292.64 255.99 292.72 256.257 292.88C256.524 293.033 256.724 293.27 256.857 293.59C256.99 293.91 257.057 294.313 257.057 294.8V298H256.027V294.87C256.027 294.57 255.987 294.323 255.907 294.13C255.827 293.93 255.704 293.787 255.537 293.7C255.37 293.607 255.164 293.567 254.917 293.58C254.717 293.58 254.534 293.613 254.367 293.68C254.2 293.74 254.054 293.827 253.927 293.94C253.807 294.053 253.71 294.187 253.637 294.34C253.57 294.487 253.537 294.647 253.537 294.82V298H253.027C252.94 298 252.854 298 252.767 298C252.68 298 252.594 298 252.507 298ZM260.814 298.1C260.301 298.1 259.841 297.983 259.434 297.75C259.034 297.51 258.718 297.187 258.484 296.78C258.251 296.367 258.134 295.897 258.134 295.37C258.134 294.843 258.251 294.377 258.484 293.97C258.718 293.557 259.034 293.233 259.434 293C259.841 292.76 260.301 292.64 260.814 292.64C261.321 292.64 261.774 292.76 262.174 293C262.581 293.233 262.901 293.557 263.134 293.97C263.368 294.377 263.484 294.843 263.484 295.37C263.484 295.897 263.368 296.367 263.134 296.78C262.901 297.187 262.581 297.51 262.174 297.75C261.774 297.983 261.321 298.1 260.814 298.1ZM260.814 297.16C261.128 297.16 261.408 297.083 261.654 296.93C261.901 296.77 262.094 296.557 262.234 296.29C262.374 296.017 262.441 295.71 262.434 295.37C262.441 295.023 262.374 294.717 262.234 294.45C262.094 294.177 261.901 293.963 261.654 293.81C261.408 293.657 261.128 293.58 260.814 293.58C260.501 293.58 260.218 293.66 259.964 293.82C259.718 293.973 259.524 294.187 259.384 294.46C259.244 294.727 259.178 295.03 259.184 295.37C259.178 295.71 259.244 296.017 259.384 296.29C259.524 296.557 259.718 296.77 259.964 296.93C260.218 297.083 260.501 297.16 260.814 297.16ZM266.967 298.1C266.453 298.1 265.993 297.983 265.587 297.75C265.187 297.51 264.87 297.187 264.637 296.78C264.403 296.367 264.287 295.897 264.287 295.37C264.287 294.843 264.403 294.377 264.637 293.97C264.87 293.557 265.187 293.233 265.587 293C265.993 292.76 266.453 292.64 266.967 292.64C267.473 292.64 267.927 292.76 268.327 293C268.733 293.233 269.053 293.557 269.287 293.97C269.52 294.377 269.637 294.843 269.637 295.37C269.637 295.897 269.52 296.367 269.287 296.78C269.053 297.187 268.733 297.51 268.327 297.75C267.927 297.983 267.473 298.1 266.967 298.1ZM266.967 297.16C267.28 297.16 267.56 297.083 267.807 296.93C268.053 296.77 268.247 296.557 268.387 296.29C268.527 296.017 268.593 295.71 268.587 295.37C268.593 295.023 268.527 294.717 268.387 294.45C268.247 294.177 268.053 293.963 267.807 293.81C267.56 293.657 267.28 293.58 266.967 293.58C266.653 293.58 266.37 293.66 266.117 293.82C265.87 293.973 265.677 294.187 265.537 294.46C265.397 294.727 265.33 295.03 265.337 295.37C265.33 295.71 265.397 296.017 265.537 296.29C265.677 296.557 265.87 296.77 266.117 296.93C266.37 297.083 266.653 297.16 266.967 297.16ZM272.509 298.1C272.069 298.1 271.672 298.023 271.319 297.87C270.966 297.717 270.672 297.49 270.439 297.19L271.139 296.59C271.339 296.823 271.556 296.993 271.789 297.1C272.029 297.2 272.299 297.25 272.599 297.25C272.719 297.25 272.829 297.237 272.929 297.21C273.036 297.177 273.126 297.13 273.199 297.07C273.279 297.01 273.339 296.94 273.379 296.86C273.419 296.773 273.439 296.68 273.439 296.58C273.439 296.407 273.376 296.267 273.249 296.16C273.182 296.113 273.076 296.063 272.929 296.01C272.789 295.95 272.606 295.89 272.379 295.83C271.992 295.73 271.676 295.617 271.429 295.49C271.182 295.363 270.992 295.22 270.859 295.06C270.759 294.933 270.686 294.797 270.639 294.65C270.592 294.497 270.569 294.33 270.569 294.15C270.569 293.93 270.616 293.73 270.709 293.55C270.809 293.363 270.942 293.203 271.109 293.07C271.282 292.93 271.482 292.823 271.709 292.75C271.942 292.677 272.189 292.64 272.449 292.64C272.696 292.64 272.939 292.673 273.179 292.74C273.426 292.807 273.652 292.903 273.859 293.03C274.066 293.157 274.239 293.307 274.379 293.48L273.789 294.13C273.662 294.003 273.522 293.893 273.369 293.8C273.222 293.7 273.072 293.623 272.919 293.57C272.766 293.517 272.626 293.49 272.499 293.49C272.359 293.49 272.232 293.503 272.119 293.53C272.006 293.557 271.909 293.597 271.829 293.65C271.756 293.703 271.699 293.77 271.659 293.85C271.619 293.93 271.599 294.02 271.599 294.12C271.606 294.207 271.626 294.29 271.659 294.37C271.699 294.443 271.752 294.507 271.819 294.56C271.892 294.613 272.002 294.67 272.149 294.73C272.296 294.79 272.482 294.847 272.709 294.9C273.042 294.987 273.316 295.083 273.529 295.19C273.749 295.29 273.922 295.407 274.049 295.54C274.182 295.667 274.276 295.813 274.329 295.98C274.382 296.147 274.409 296.333 274.409 296.54C274.409 296.84 274.322 297.11 274.149 297.35C273.982 297.583 273.756 297.767 273.469 297.9C273.182 298.033 272.862 298.1 272.509 298.1ZM277.994 298.1C277.454 298.1 276.974 297.987 276.554 297.76C276.141 297.527 275.814 297.21 275.574 296.81C275.341 296.41 275.224 295.95 275.224 295.43C275.224 295.017 275.291 294.64 275.424 294.3C275.558 293.96 275.741 293.667 275.974 293.42C276.214 293.167 276.498 292.973 276.824 292.84C277.158 292.7 277.518 292.63 277.904 292.63C278.244 292.63 278.561 292.697 278.854 292.83C279.148 292.957 279.401 293.133 279.614 293.36C279.834 293.587 280.001 293.857 280.114 294.17C280.234 294.477 280.291 294.813 280.284 295.18L280.274 295.62H275.984L275.754 294.8H279.384L279.234 294.97V294.73C279.214 294.51 279.141 294.313 279.014 294.14C278.888 293.967 278.728 293.83 278.534 293.73C278.341 293.63 278.131 293.58 277.904 293.58C277.544 293.58 277.241 293.65 276.994 293.79C276.748 293.923 276.561 294.123 276.434 294.39C276.308 294.65 276.244 294.973 276.244 295.36C276.244 295.727 276.321 296.047 276.474 296.32C276.628 296.587 276.844 296.793 277.124 296.94C277.404 297.087 277.728 297.16 278.094 297.16C278.354 297.16 278.594 297.117 278.814 297.03C279.041 296.943 279.284 296.787 279.544 296.56L280.064 297.29C279.904 297.45 279.708 297.59 279.474 297.71C279.248 297.83 279.004 297.927 278.744 298C278.491 298.067 278.241 298.1 277.994 298.1ZM284.466 298V291H287.446C287.846 291 288.213 291.1 288.546 291.3C288.886 291.493 289.156 291.76 289.356 292.1C289.556 292.433 289.656 292.81 289.656 293.23C289.656 293.61 289.556 293.963 289.356 294.29C289.156 294.617 288.89 294.88 288.556 295.08C288.223 295.273 287.853 295.37 287.446 295.37H285.546V298H284.466ZM288.626 298L286.846 294.84L287.956 294.59L289.936 298.01L288.626 298ZM285.546 294.33H287.546C287.74 294.33 287.913 294.283 288.066 294.19C288.22 294.09 288.34 293.957 288.426 293.79C288.513 293.617 288.556 293.427 288.556 293.22C288.556 292.987 288.5 292.783 288.386 292.61C288.28 292.43 288.126 292.29 287.926 292.19C287.733 292.09 287.513 292.04 287.266 292.04H285.546V294.33ZM293.414 298.1C292.874 298.1 292.394 297.987 291.974 297.76C291.561 297.527 291.234 297.21 290.994 296.81C290.761 296.41 290.644 295.95 290.644 295.43C290.644 295.017 290.711 294.64 290.844 294.3C290.977 293.96 291.161 293.667 291.394 293.42C291.634 293.167 291.917 292.973 292.244 292.84C292.577 292.7 292.937 292.63 293.324 292.63C293.664 292.63 293.981 292.697 294.274 292.83C294.567 292.957 294.821 293.133 295.034 293.36C295.254 293.587 295.421 293.857 295.534 294.17C295.654 294.477 295.711 294.813 295.704 295.18L295.694 295.62H291.404L291.174 294.8H294.804L294.654 294.97V294.73C294.634 294.51 294.561 294.313 294.434 294.14C294.307 293.967 294.147 293.83 293.954 293.73C293.761 293.63 293.551 293.58 293.324 293.58C292.964 293.58 292.661 293.65 292.414 293.79C292.167 293.923 291.981 294.123 291.854 294.39C291.727 294.65 291.664 294.973 291.664 295.36C291.664 295.727 291.741 296.047 291.894 296.32C292.047 296.587 292.264 296.793 292.544 296.94C292.824 297.087 293.147 297.16 293.514 297.16C293.774 297.16 294.014 297.117 294.234 297.03C294.461 296.943 294.704 296.787 294.964 296.56L295.484 297.29C295.324 297.45 295.127 297.59 294.894 297.71C294.667 297.83 294.424 297.927 294.164 298C293.911 298.067 293.661 298.1 293.414 298.1ZM299.054 298.1C298.567 298.1 298.13 297.98 297.744 297.74C297.364 297.5 297.06 297.173 296.834 296.76C296.614 296.347 296.504 295.883 296.504 295.37C296.504 294.857 296.614 294.393 296.834 293.98C297.06 293.567 297.364 293.24 297.744 293C298.13 292.76 298.567 292.64 299.054 292.64C299.52 292.64 299.944 292.737 300.324 292.93C300.71 293.117 301.004 293.373 301.204 293.7L300.634 294.4C300.527 294.247 300.39 294.107 300.224 293.98C300.057 293.853 299.88 293.753 299.694 293.68C299.507 293.607 299.327 293.57 299.154 293.57C298.834 293.57 298.547 293.65 298.294 293.81C298.047 293.963 297.85 294.177 297.704 294.45C297.557 294.723 297.484 295.03 297.484 295.37C297.484 295.71 297.56 296.017 297.714 296.29C297.867 296.557 298.07 296.77 298.324 296.93C298.577 297.09 298.857 297.17 299.164 297.17C299.344 297.17 299.517 297.14 299.684 297.08C299.857 297.02 300.024 296.93 300.184 296.81C300.344 296.69 300.494 296.543 300.634 296.37L301.204 297.07C300.99 297.37 300.684 297.617 300.284 297.81C299.89 298.003 299.48 298.1 299.054 298.1ZM304.015 298.1C303.642 298.1 303.315 298.013 303.035 297.84C302.762 297.667 302.548 297.423 302.395 297.11C302.248 296.797 302.175 296.423 302.175 295.99V292.75H303.205V295.71C303.205 296.017 303.252 296.283 303.345 296.51C303.445 296.73 303.585 296.9 303.765 297.02C303.952 297.14 304.175 297.2 304.435 297.2C304.628 297.2 304.805 297.17 304.965 297.11C305.125 297.043 305.262 296.953 305.375 296.84C305.495 296.727 305.588 296.59 305.655 296.43C305.722 296.27 305.755 296.097 305.755 295.91V292.75H306.785V298H305.755V296.9L305.935 296.78C305.855 297.027 305.718 297.25 305.525 297.45C305.338 297.65 305.115 297.81 304.855 297.93C304.595 298.043 304.315 298.1 304.015 298.1ZM308.23 298V292.75H309.27V294.4L309.17 294C309.243 293.747 309.366 293.517 309.54 293.31C309.72 293.103 309.923 292.94 310.15 292.82C310.383 292.7 310.623 292.64 310.87 292.64C310.983 292.64 311.09 292.65 311.19 292.67C311.296 292.69 311.38 292.713 311.44 292.74L311.17 293.86C311.09 293.827 311 293.8 310.9 293.78C310.806 293.753 310.713 293.74 310.62 293.74C310.44 293.74 310.266 293.777 310.1 293.85C309.94 293.917 309.796 294.013 309.67 294.14C309.55 294.26 309.453 294.403 309.38 294.57C309.306 294.73 309.27 294.907 309.27 295.1V298H308.23ZM312.263 298V292.75H313.303V294.4L313.203 294C313.276 293.747 313.4 293.517 313.573 293.31C313.753 293.103 313.956 292.94 314.183 292.82C314.416 292.7 314.656 292.64 314.903 292.64C315.016 292.64 315.123 292.65 315.223 292.67C315.33 292.69 315.413 292.713 315.473 292.74L315.203 293.86C315.123 293.827 315.033 293.8 314.933 293.78C314.84 293.753 314.746 293.74 314.653 293.74C314.473 293.74 314.3 293.777 314.133 293.85C313.973 293.917 313.83 294.013 313.703 294.14C313.583 294.26 313.486 294.403 313.413 294.57C313.34 294.73 313.303 294.907 313.303 295.1V298H312.263ZM318.522 298.1C317.982 298.1 317.502 297.987 317.082 297.76C316.668 297.527 316.342 297.21 316.102 296.81C315.868 296.41 315.752 295.95 315.752 295.43C315.752 295.017 315.818 294.64 315.952 294.3C316.085 293.96 316.268 293.667 316.502 293.42C316.742 293.167 317.025 292.973 317.352 292.84C317.685 292.7 318.045 292.63 318.432 292.63C318.772 292.63 319.088 292.697 319.382 292.83C319.675 292.957 319.928 293.133 320.142 293.36C320.362 293.587 320.528 293.857 320.642 294.17C320.762 294.477 320.818 294.813 320.812 295.18L320.802 295.62H316.512L316.282 294.8H319.912L319.762 294.97V294.73C319.742 294.51 319.668 294.313 319.542 294.14C319.415 293.967 319.255 293.83 319.062 293.73C318.868 293.63 318.658 293.58 318.432 293.58C318.072 293.58 317.768 293.65 317.522 293.79C317.275 293.923 317.088 294.123 316.962 294.39C316.835 294.65 316.772 294.973 316.772 295.36C316.772 295.727 316.848 296.047 317.002 296.32C317.155 296.587 317.372 296.793 317.652 296.94C317.932 297.087 318.255 297.16 318.622 297.16C318.882 297.16 319.122 297.117 319.342 297.03C319.568 296.943 319.812 296.787 320.072 296.56L320.592 297.29C320.432 297.45 320.235 297.59 320.002 297.71C319.775 297.83 319.532 297.927 319.272 298C319.018 298.067 318.768 298.1 318.522 298.1ZM321.931 298V292.75H322.961V293.83L322.781 293.95C322.848 293.717 322.978 293.503 323.171 293.31C323.364 293.11 323.594 292.95 323.861 292.83C324.128 292.703 324.401 292.64 324.681 292.64C325.081 292.64 325.414 292.72 325.681 292.88C325.948 293.033 326.148 293.27 326.281 293.59C326.414 293.91 326.481 294.313 326.481 294.8V298H325.451V294.87C325.451 294.57 325.411 294.323 325.331 294.13C325.251 293.93 325.128 293.787 324.961 293.7C324.794 293.607 324.588 293.567 324.341 293.58C324.141 293.58 323.958 293.613 323.791 293.68C323.624 293.74 323.478 293.827 323.351 293.94C323.231 294.053 323.134 294.187 323.061 294.34C322.994 294.487 322.961 294.647 322.961 294.82V298H322.451C322.364 298 322.278 298 322.191 298C322.104 298 322.018 298 321.931 298ZM330.108 298.1C329.622 298.1 329.185 297.98 328.798 297.74C328.418 297.5 328.115 297.173 327.888 296.76C327.668 296.347 327.558 295.883 327.558 295.37C327.558 294.857 327.668 294.393 327.888 293.98C328.115 293.567 328.418 293.24 328.798 293C329.185 292.76 329.622 292.64 330.108 292.64C330.575 292.64 330.998 292.737 331.378 292.93C331.765 293.117 332.058 293.373 332.258 293.7L331.688 294.4C331.582 294.247 331.445 294.107 331.278 293.98C331.112 293.853 330.935 293.753 330.748 293.68C330.562 293.607 330.382 293.57 330.208 293.57C329.888 293.57 329.602 293.65 329.348 293.81C329.102 293.963 328.905 294.177 328.758 294.45C328.612 294.723 328.538 295.03 328.538 295.37C328.538 295.71 328.615 296.017 328.768 296.29C328.922 296.557 329.125 296.77 329.378 296.93C329.632 297.09 329.912 297.17 330.218 297.17C330.398 297.17 330.572 297.14 330.738 297.08C330.912 297.02 331.078 296.93 331.238 296.81C331.398 296.69 331.548 296.543 331.688 296.37L332.258 297.07C332.045 297.37 331.738 297.617 331.338 297.81C330.945 298.003 330.535 298.1 330.108 298.1ZM335.68 298.1C335.14 298.1 334.66 297.987 334.24 297.76C333.826 297.527 333.5 297.21 333.26 296.81C333.026 296.41 332.91 295.95 332.91 295.43C332.91 295.017 332.976 294.64 333.11 294.3C333.243 293.96 333.426 293.667 333.66 293.42C333.9 293.167 334.183 292.973 334.51 292.84C334.843 292.7 335.203 292.63 335.59 292.63C335.93 292.63 336.246 292.697 336.54 292.83C336.833 292.957 337.086 293.133 337.3 293.36C337.52 293.587 337.686 293.857 337.8 294.17C337.92 294.477 337.976 294.813 337.97 295.18L337.96 295.62H333.67L333.44 294.8H337.07L336.92 294.97V294.73C336.9 294.51 336.826 294.313 336.7 294.14C336.573 293.967 336.413 293.83 336.22 293.73C336.026 293.63 335.816 293.58 335.59 293.58C335.23 293.58 334.926 293.65 334.68 293.79C334.433 293.923 334.246 294.123 334.12 294.39C333.993 294.65 333.93 294.973 333.93 295.36C333.93 295.727 334.006 296.047 334.16 296.32C334.313 296.587 334.53 296.793 334.81 296.94C335.09 297.087 335.413 297.16 335.78 297.16C336.04 297.16 336.28 297.117 336.5 297.03C336.726 296.943 336.97 296.787 337.23 296.56L337.75 297.29C337.59 297.45 337.393 297.59 337.16 297.71C336.933 297.83 336.69 297.927 336.43 298C336.176 298.067 335.926 298.1 335.68 298.1Z" fill="#3B3B3B"/>
<rect x="98.25" y="186.25" width="137.5" height="26.5" rx="3.75" stroke="#E4E6EA" stroke-width="0.5"/>
<rect x="98.25" y="307.25" width="137.5" height="26.5" rx="3.75" stroke="#E4E6EA" stroke-width="0.5"/>
<rect x="98.25" y="363.25" width="137.5" height="26.5" rx="3.75" stroke="#E4E6EA" stroke-width="0.5"/>
<rect x="245.25" y="186.25" width="137.5" height="26.5" rx="3.75" stroke="#E4E6EA" stroke-width="0.5"/>
<rect x="245.25" y="307.25" width="137.5" height="26.5" rx="3.75" stroke="#E4E6EA" stroke-width="0.5"/>
<rect x="106" y="196" width="92" height="7" rx="3.5" fill="#E4E6EA"/>
<rect x="106" y="317" width="92" height="7" rx="3.5" fill="#E4E6EA"/>
<rect x="106" y="373" width="92" height="7" rx="3.5" fill="#E4E6EA"/>
<rect x="253" y="196" width="92" height="7" rx="3.5" fill="#E4E6EA"/>
<rect x="253" y="317" width="92" height="7" rx="3.5" fill="#E4E6EA"/>
<path d="M365 318L370.5 323.5L376 318" stroke="#999999" stroke-linecap="round"/>
<rect x="98" y="118" width="16" height="16" rx="2" fill="#35CA00" fill-opacity="0.3"/>
<rect x="98" y="239" width="16" height="16" rx="2" fill="#35CA00" fill-opacity="0.3"/>
<path d="M104.47 128.795L102.22 126.695C102.15 126.63 102.095 126.553 102.057 126.468C102.019 126.383 102 126.292 102 126.2C102 126.108 102.019 126.017 102.057 125.932C102.095 125.848 102.15 125.77 102.22 125.705C102.289 125.64 102.372 125.589 102.463 125.554C102.554 125.518 102.651 125.5 102.75 125.5C102.848 125.5 102.946 125.518 103.037 125.554C103.128 125.589 103.211 125.64 103.28 125.705L104.957 127.271L109.681 122.245C109.745 122.175 109.823 122.117 109.911 122.076C109.999 122.034 110.095 122.009 110.193 122.002C110.291 121.995 110.389 122.006 110.483 122.035C110.577 122.063 110.663 122.108 110.738 122.168C110.813 122.228 110.874 122.301 110.919 122.383C110.963 122.465 110.99 122.554 110.998 122.646C111.005 122.737 110.994 122.829 110.963 122.917C110.932 123.004 110.884 123.085 110.82 123.155L105.569 128.755C105.502 128.828 105.42 128.888 105.327 128.93C105.234 128.972 105.133 128.996 105.029 129C104.926 129.003 104.823 128.986 104.727 128.951C104.631 128.916 104.543 128.863 104.47 128.795Z" fill="#35CA00"/>
<path d="M104.47 249.795L102.22 247.695C102.15 247.63 102.095 247.553 102.057 247.468C102.019 247.383 102 247.292 102 247.2C102 247.108 102.019 247.017 102.057 246.932C102.095 246.848 102.15 246.77 102.22 246.705C102.289 246.64 102.372 246.589 102.463 246.554C102.554 246.518 102.651 246.5 102.75 246.5C102.848 246.5 102.946 246.518 103.037 246.554C103.128 246.589 103.211 246.64 103.28 246.705L104.957 248.271L109.681 243.245C109.745 243.175 109.823 243.117 109.911 243.076C109.999 243.034 110.095 243.009 110.193 243.002C110.291 242.995 110.389 243.006 110.483 243.035C110.577 243.063 110.663 243.108 110.738 243.168C110.813 243.228 110.874 243.301 110.919 243.383C110.963 243.465 110.99 243.554 110.998 243.646C111.005 243.737 110.994 243.829 110.963 243.917C110.932 244.004 110.884 244.085 110.82 244.155L105.569 249.755C105.502 249.828 105.42 249.888 105.327 249.93C105.234 249.972 105.133 249.996 105.029 250C104.926 250.003 104.823 249.986 104.727 249.951C104.631 249.916 104.543 249.863 104.47 249.795Z" fill="#35CA00"/>
<rect x="93" y="404" width="295" height="41" rx="6" fill="#0900FF"/>
<path d="M218.572 430.14C217.853 430.14 217.191 430.019 216.584 429.776C215.987 429.524 215.464 429.174 215.016 428.726C214.577 428.269 214.237 427.732 213.994 427.116C213.751 426.491 213.63 425.809 213.63 425.072C213.63 424.353 213.756 423.691 214.008 423.084C214.26 422.468 214.615 421.936 215.072 421.488C215.529 421.031 216.066 420.676 216.682 420.424C217.298 420.172 217.965 420.046 218.684 420.046C219.151 420.046 219.608 420.111 220.056 420.242C220.513 420.363 220.929 420.545 221.302 420.788C221.685 421.031 222.011 421.32 222.282 421.656L220.966 423.112C220.751 422.888 220.523 422.697 220.28 422.538C220.037 422.37 219.781 422.244 219.51 422.16C219.249 422.067 218.969 422.02 218.67 422.02C218.269 422.02 217.891 422.095 217.536 422.244C217.191 422.393 216.887 422.603 216.626 422.874C216.365 423.135 216.155 423.457 215.996 423.84C215.847 424.213 215.772 424.629 215.772 425.086C215.772 425.553 215.847 425.977 215.996 426.36C216.145 426.733 216.355 427.055 216.626 427.326C216.897 427.587 217.219 427.793 217.592 427.942C217.975 428.082 218.395 428.152 218.852 428.152C219.151 428.152 219.44 428.11 219.72 428.026C220 427.942 220.257 427.825 220.49 427.676C220.733 427.527 220.947 427.354 221.134 427.158L222.17 428.796C221.937 429.048 221.629 429.277 221.246 429.482C220.873 429.687 220.453 429.851 219.986 429.972C219.519 430.084 219.048 430.14 218.572 430.14ZM227.09 430.14C226.334 430.14 225.658 429.977 225.06 429.65C224.472 429.314 224.006 428.857 223.66 428.278C223.324 427.699 223.156 427.037 223.156 426.29C223.156 425.543 223.324 424.881 223.66 424.302C224.006 423.723 224.472 423.271 225.06 422.944C225.658 422.608 226.334 422.44 227.09 422.44C227.837 422.44 228.504 422.608 229.092 422.944C229.69 423.271 230.156 423.723 230.492 424.302C230.828 424.881 230.996 425.543 230.996 426.29C230.996 427.037 230.828 427.699 230.492 428.278C230.156 428.857 229.69 429.314 229.092 429.65C228.504 429.977 227.837 430.14 227.09 430.14ZM227.09 428.404C227.454 428.404 227.781 428.315 228.07 428.138C228.36 427.951 228.584 427.699 228.742 427.382C228.91 427.055 228.99 426.691 228.98 426.29C228.99 425.879 228.91 425.515 228.742 425.198C228.584 424.871 228.36 424.619 228.07 424.442C227.781 424.255 227.454 424.162 227.09 424.162C226.717 424.162 226.386 424.255 226.096 424.442C225.807 424.629 225.578 424.881 225.41 425.198C225.242 425.515 225.163 425.879 225.172 426.29C225.163 426.691 225.242 427.055 225.41 427.382C225.578 427.699 225.807 427.951 226.096 428.138C226.386 428.315 226.717 428.404 227.09 428.404ZM232.506 430V422.594H234.41L234.466 424.106L234.074 424.274C234.176 423.938 234.358 423.635 234.62 423.364C234.89 423.084 235.212 422.86 235.586 422.692C235.959 422.524 236.351 422.44 236.762 422.44C237.322 422.44 237.788 422.552 238.162 422.776C238.544 423 238.829 423.341 239.016 423.798C239.212 424.246 239.31 424.801 239.31 425.464V430H237.322V425.618C237.322 425.282 237.275 425.002 237.182 424.778C237.088 424.554 236.944 424.391 236.748 424.288C236.561 424.185 236.328 424.139 236.048 424.148C235.824 424.148 235.614 424.185 235.418 424.26C235.231 424.325 235.068 424.423 234.928 424.554C234.797 424.685 234.69 424.834 234.606 425.002C234.531 425.17 234.494 425.352 234.494 425.548V430H233.514C233.299 430 233.108 430 232.94 430C232.772 430 232.627 430 232.506 430ZM241.789 430V422.076C241.789 421.619 241.891 421.203 242.097 420.83C242.302 420.457 242.582 420.163 242.937 419.948C243.301 419.733 243.725 419.626 244.211 419.626C244.537 419.626 244.845 419.682 245.135 419.794C245.424 419.897 245.671 420.037 245.877 420.214L245.289 421.684C245.167 421.609 245.041 421.549 244.911 421.502C244.789 421.446 244.677 421.418 244.575 421.418C244.397 421.418 244.248 421.451 244.127 421.516C244.015 421.572 243.931 421.661 243.875 421.782C243.819 421.894 243.791 422.039 243.791 422.216V430H242.797C242.582 430 242.391 430 242.223 430C242.055 430 241.91 430 241.789 430ZM240.683 424.456V422.776H245.387V424.456H240.683ZM246.885 430V422.594H248.873V430H246.885ZM247.865 421.082C247.482 421.082 247.183 420.989 246.969 420.802C246.754 420.606 246.647 420.335 246.647 419.99C246.647 419.673 246.754 419.416 246.969 419.22C247.193 419.015 247.491 418.912 247.865 418.912C248.247 418.912 248.546 419.01 248.761 419.206C248.975 419.393 249.083 419.654 249.083 419.99C249.083 420.307 248.971 420.569 248.747 420.774C248.532 420.979 248.238 421.082 247.865 421.082ZM251.004 430V422.594H252.922L252.992 424.974L252.656 424.484C252.768 424.101 252.95 423.756 253.202 423.448C253.454 423.131 253.748 422.883 254.084 422.706C254.429 422.529 254.788 422.44 255.162 422.44C255.32 422.44 255.474 422.454 255.624 422.482C255.773 422.51 255.899 422.543 256.002 422.58L255.47 424.764C255.367 424.708 255.232 424.661 255.064 424.624C254.905 424.577 254.742 424.554 254.574 424.554C254.35 424.554 254.14 424.596 253.944 424.68C253.757 424.755 253.594 424.867 253.454 425.016C253.314 425.156 253.202 425.324 253.118 425.52C253.043 425.716 253.006 425.931 253.006 426.164V430H251.004ZM257.128 430V422.594H259.046L259.088 424.008L258.794 424.064C258.897 423.821 259.032 423.602 259.2 423.406C259.378 423.21 259.578 423.042 259.802 422.902C260.026 422.762 260.264 422.655 260.516 422.58C260.768 422.496 261.02 422.454 261.272 422.454C261.655 422.454 262 422.515 262.308 422.636C262.616 422.757 262.878 422.949 263.092 423.21C263.307 423.462 263.475 423.798 263.596 424.218L263.288 424.19L263.386 423.966C263.508 423.742 263.662 423.537 263.848 423.35C264.035 423.163 264.245 423.005 264.478 422.874C264.712 422.743 264.954 422.641 265.206 422.566C265.458 422.491 265.706 422.454 265.948 422.454C266.527 422.454 267.008 422.571 267.39 422.804C267.773 423.028 268.058 423.369 268.244 423.826C268.44 424.283 268.538 424.843 268.538 425.506V430H266.55V425.646C266.55 425.31 266.504 425.035 266.41 424.82C266.317 424.605 266.182 424.447 266.004 424.344C265.827 424.232 265.598 424.176 265.318 424.176C265.104 424.176 264.903 424.213 264.716 424.288C264.539 424.353 264.38 424.451 264.24 424.582C264.11 424.703 264.007 424.853 263.932 425.03C263.858 425.198 263.82 425.38 263.82 425.576V430H261.818V425.632C261.818 425.324 261.772 425.063 261.678 424.848C261.585 424.624 261.45 424.456 261.272 424.344C261.095 424.232 260.876 424.176 260.614 424.176C260.4 424.176 260.199 424.213 260.012 424.288C259.835 424.353 259.681 424.451 259.55 424.582C259.42 424.703 259.317 424.848 259.242 425.016C259.168 425.184 259.13 425.366 259.13 425.562V430H257.128Z" fill="white"/>
</g>
<defs>
<clipPath id="clip0_193_1448">
<rect width="480" height="540" fill="white"/>
</clipPath>
</defs>
</svg>
