<svg width="480" height="540" viewBox="0 0 480 540" fill="none" xmlns="http://www.w3.org/2000/svg">
<path d="M85 76H396C405.389 76 413 83.6112 413 93V447C413 456.389 405.389 464 396 464H85C75.6111 464 68 456.389 68 447V93C68 83.6112 75.6111 76 85 76Z" fill="#F1F5F7"/>
<path d="M89.678 121.21C88.768 121.21 87.935 121.098 87.179 120.874C86.437 120.65 85.772 120.321 85.184 119.887C84.61 119.453 84.092 118.928 83.63 118.312L85.604 116.065C86.29 117.017 86.969 117.668 87.641 118.018C88.327 118.354 89.069 118.522 89.867 118.522C90.301 118.522 90.686 118.459 91.022 118.333C91.372 118.207 91.645 118.039 91.841 117.829C92.037 117.605 92.135 117.339 92.135 117.031C92.135 116.807 92.086 116.604 91.988 116.422C91.89 116.226 91.75 116.058 91.568 115.918C91.386 115.764 91.169 115.631 90.917 115.519C90.665 115.393 90.385 115.288 90.077 115.204C89.769 115.106 89.433 115.029 89.069 114.973C88.285 114.791 87.599 114.574 87.011 114.322C86.423 114.056 85.933 113.734 85.541 113.356C85.149 112.964 84.855 112.523 84.659 112.033C84.477 111.543 84.386 110.99 84.386 110.374C84.386 109.744 84.526 109.163 84.806 108.631C85.086 108.085 85.471 107.616 85.961 107.224C86.465 106.832 87.039 106.531 87.683 106.321C88.341 106.111 89.034 106.006 89.762 106.006C90.658 106.006 91.442 106.104 92.114 106.3C92.786 106.496 93.367 106.79 93.857 107.182C94.361 107.56 94.781 108.022 95.117 108.568L93.122 110.5C92.828 110.108 92.506 109.779 92.156 109.513C91.82 109.247 91.449 109.051 91.043 108.925C90.651 108.785 90.245 108.715 89.825 108.715C89.363 108.715 88.964 108.778 88.628 108.904C88.292 109.016 88.026 109.191 87.83 109.429C87.648 109.653 87.557 109.919 87.557 110.227C87.557 110.479 87.62 110.703 87.746 110.899C87.872 111.095 88.054 111.27 88.292 111.424C88.53 111.564 88.817 111.69 89.153 111.802C89.489 111.914 89.86 112.012 90.266 112.096C91.036 112.25 91.729 112.453 92.345 112.705C92.961 112.957 93.486 113.265 93.92 113.629C94.368 113.979 94.711 114.399 94.949 114.889C95.187 115.365 95.306 115.904 95.306 116.506C95.306 117.5 95.068 118.347 94.592 119.047C94.116 119.747 93.458 120.286 92.618 120.664C91.778 121.028 90.798 121.21 89.678 121.21ZM103.01 121.21C101.806 121.21 100.749 120.965 99.839 120.475C98.943 119.985 98.243 119.313 97.739 118.459C97.249 117.605 97.004 116.625 97.004 115.519C97.004 114.651 97.144 113.86 97.424 113.146C97.704 112.432 98.096 111.816 98.6 111.298C99.104 110.766 99.699 110.36 100.385 110.08C101.085 109.786 101.841 109.639 102.653 109.639C103.409 109.639 104.109 109.779 104.753 110.059C105.397 110.339 105.95 110.731 106.412 111.235C106.888 111.725 107.252 112.313 107.504 112.999C107.756 113.671 107.868 114.399 107.84 115.183L107.819 116.107H98.894L98.411 114.28H105.362L105.026 114.658V114.196C104.998 113.818 104.872 113.482 104.648 113.188C104.438 112.88 104.165 112.642 103.829 112.474C103.493 112.292 103.115 112.201 102.695 112.201C102.079 112.201 101.554 112.32 101.12 112.558C100.7 112.796 100.378 113.146 100.154 113.608C99.93 114.07 99.818 114.63 99.818 115.288C99.818 115.96 99.958 116.541 100.238 117.031C100.532 117.521 100.938 117.906 101.456 118.186C101.988 118.452 102.611 118.585 103.325 118.585C103.815 118.585 104.263 118.508 104.669 118.354C105.075 118.2 105.509 117.934 105.971 117.556L107.399 119.551C106.993 119.915 106.545 120.223 106.055 120.475C105.565 120.713 105.061 120.895 104.543 121.021C104.025 121.147 103.514 121.21 103.01 121.21ZM110.044 121V109.891H112.921L113.026 113.461L112.522 112.726C112.69 112.152 112.963 111.634 113.341 111.172C113.719 110.696 114.16 110.325 114.664 110.059C115.182 109.793 115.721 109.66 116.281 109.66C116.519 109.66 116.75 109.681 116.974 109.723C117.198 109.765 117.387 109.814 117.541 109.87L116.743 113.146C116.589 113.062 116.386 112.992 116.134 112.936C115.896 112.866 115.651 112.831 115.399 112.831C115.063 112.831 114.748 112.894 114.454 113.02C114.174 113.132 113.929 113.3 113.719 113.524C113.509 113.734 113.341 113.986 113.215 114.28C113.103 114.574 113.047 114.896 113.047 115.246V121H110.044ZM123.784 121L119.122 109.891H122.398L125.359 118.186L124.666 118.312L127.774 109.891H130.966L126.073 121H123.784ZM133.039 121V109.891H136.021V121H133.039ZM134.509 107.623C133.935 107.623 133.487 107.483 133.165 107.203C132.843 106.909 132.682 106.503 132.682 105.985C132.682 105.509 132.843 105.124 133.165 104.83C133.501 104.522 133.949 104.368 134.509 104.368C135.083 104.368 135.531 104.515 135.853 104.809C136.175 105.089 136.336 105.481 136.336 105.985C136.336 106.461 136.168 106.853 135.832 107.161C135.51 107.469 135.069 107.623 134.509 107.623ZM144.036 121.21C142.972 121.21 142.02 120.958 141.18 120.454C140.34 119.95 139.675 119.264 139.185 118.396C138.709 117.528 138.471 116.541 138.471 115.435C138.471 114.329 138.709 113.342 139.185 112.474C139.675 111.606 140.34 110.92 141.18 110.416C142.02 109.912 142.972 109.66 144.036 109.66C145.03 109.66 145.94 109.842 146.766 110.206C147.592 110.57 148.236 111.074 148.698 111.718L147.06 113.692C146.864 113.426 146.619 113.188 146.325 112.978C146.031 112.754 145.709 112.579 145.359 112.453C145.023 112.327 144.673 112.264 144.309 112.264C143.735 112.264 143.224 112.404 142.776 112.684C142.342 112.95 141.999 113.321 141.747 113.797C141.495 114.273 141.369 114.819 141.369 115.435C141.369 116.023 141.495 116.555 141.747 117.031C142.013 117.507 142.37 117.885 142.818 118.165C143.266 118.445 143.77 118.585 144.33 118.585C144.694 118.585 145.037 118.536 145.359 118.438C145.681 118.34 145.982 118.186 146.262 117.976C146.556 117.766 146.822 117.514 147.06 117.22L148.677 119.194C148.215 119.796 147.557 120.286 146.703 120.664C145.863 121.028 144.974 121.21 144.036 121.21ZM155.859 121.21C154.655 121.21 153.598 120.965 152.688 120.475C151.792 119.985 151.092 119.313 150.588 118.459C150.098 117.605 149.853 116.625 149.853 115.519C149.853 114.651 149.993 113.86 150.273 113.146C150.553 112.432 150.945 111.816 151.449 111.298C151.953 110.766 152.548 110.36 153.234 110.08C153.934 109.786 154.69 109.639 155.502 109.639C156.258 109.639 156.958 109.779 157.602 110.059C158.246 110.339 158.799 110.731 159.261 111.235C159.737 111.725 160.101 112.313 160.353 112.999C160.605 113.671 160.717 114.399 160.689 115.183L160.668 116.107H151.743L151.26 114.28H158.211L157.875 114.658V114.196C157.847 113.818 157.721 113.482 157.497 113.188C157.287 112.88 157.014 112.642 156.678 112.474C156.342 112.292 155.964 112.201 155.544 112.201C154.928 112.201 154.403 112.32 153.969 112.558C153.549 112.796 153.227 113.146 153.003 113.608C152.779 114.07 152.667 114.63 152.667 115.288C152.667 115.96 152.807 116.541 153.087 117.031C153.381 117.521 153.787 117.906 154.305 118.186C154.837 118.452 155.46 118.585 156.174 118.585C156.664 118.585 157.112 118.508 157.518 118.354C157.924 118.2 158.358 117.934 158.82 117.556L160.248 119.551C159.842 119.915 159.394 120.223 158.904 120.475C158.414 120.713 157.91 120.895 157.392 121.021C156.874 121.147 156.363 121.21 155.859 121.21ZM169.752 121V106.3H176.262C177.172 106.3 177.998 106.51 178.74 106.93C179.482 107.336 180.063 107.889 180.483 108.589C180.917 109.289 181.134 110.087 181.134 110.983C181.134 111.865 180.917 112.67 180.483 113.398C180.063 114.112 179.482 114.679 178.74 115.099C177.998 115.519 177.172 115.729 176.262 115.729H172.797V121H169.752ZM178.089 121L174.351 114.364L177.585 113.839L181.743 121.021L178.089 121ZM172.797 113.167H176.115C176.493 113.167 176.822 113.083 177.102 112.915C177.396 112.733 177.62 112.488 177.774 112.18C177.928 111.858 178.005 111.501 178.005 111.109C178.005 110.689 177.914 110.325 177.732 110.017C177.55 109.709 177.284 109.471 176.934 109.303C176.584 109.121 176.178 109.03 175.716 109.03H172.797V113.167ZM188.897 121.21C187.693 121.21 186.636 120.965 185.726 120.475C184.83 119.985 184.13 119.313 183.626 118.459C183.136 117.605 182.891 116.625 182.891 115.519C182.891 114.651 183.031 113.86 183.311 113.146C183.591 112.432 183.983 111.816 184.487 111.298C184.991 110.766 185.586 110.36 186.272 110.08C186.972 109.786 187.728 109.639 188.54 109.639C189.296 109.639 189.996 109.779 190.64 110.059C191.284 110.339 191.837 110.731 192.299 111.235C192.775 111.725 193.139 112.313 193.391 112.999C193.643 113.671 193.755 114.399 193.727 115.183L193.706 116.107H184.781L184.298 114.28H191.249L190.913 114.658V114.196C190.885 113.818 190.759 113.482 190.535 113.188C190.325 112.88 190.052 112.642 189.716 112.474C189.38 112.292 189.002 112.201 188.582 112.201C187.966 112.201 187.441 112.32 187.007 112.558C186.587 112.796 186.265 113.146 186.041 113.608C185.817 114.07 185.705 114.63 185.705 115.288C185.705 115.96 185.845 116.541 186.125 117.031C186.419 117.521 186.825 117.906 187.343 118.186C187.875 118.452 188.498 118.585 189.212 118.585C189.702 118.585 190.15 118.508 190.556 118.354C190.962 118.2 191.396 117.934 191.858 117.556L193.286 119.551C192.88 119.915 192.432 120.223 191.942 120.475C191.452 120.713 190.948 120.895 190.43 121.021C189.912 121.147 189.401 121.21 188.897 121.21ZM203.595 125.62V118.333L204.204 118.438C204.176 118.788 204.043 119.131 203.805 119.467C203.581 119.789 203.28 120.083 202.902 120.349C202.538 120.615 202.132 120.825 201.684 120.979C201.236 121.133 200.767 121.21 200.277 121.21C199.297 121.21 198.422 120.965 197.652 120.475C196.896 119.971 196.294 119.285 195.846 118.417C195.412 117.549 195.195 116.555 195.195 115.435C195.195 114.315 195.412 113.321 195.846 112.453C196.28 111.585 196.875 110.906 197.631 110.416C198.387 109.912 199.241 109.66 200.193 109.66C200.739 109.66 201.25 109.744 201.726 109.912C202.216 110.066 202.65 110.276 203.028 110.542C203.406 110.808 203.714 111.109 203.952 111.445C204.19 111.781 204.323 112.131 204.351 112.495L203.616 112.6L203.721 109.87H206.577V125.62H203.595ZM200.886 118.627C201.446 118.627 201.936 118.494 202.356 118.228C202.776 117.962 203.098 117.591 203.322 117.115C203.56 116.639 203.679 116.079 203.679 115.435C203.679 114.791 203.56 114.231 203.322 113.755C203.098 113.265 202.776 112.887 202.356 112.621C201.936 112.355 201.446 112.222 200.886 112.222C200.326 112.222 199.836 112.362 199.416 112.642C198.996 112.908 198.667 113.286 198.429 113.776C198.205 114.252 198.093 114.805 198.093 115.435C198.093 116.065 198.205 116.625 198.429 117.115C198.667 117.591 198.996 117.962 199.416 118.228C199.836 118.494 200.326 118.627 200.886 118.627ZM213.39 121.21C212.578 121.21 211.878 121.035 211.29 120.685C210.716 120.321 210.268 119.81 209.946 119.152C209.638 118.48 209.484 117.675 209.484 116.737V109.891H212.466V116.254C212.466 116.758 212.55 117.199 212.718 117.577C212.886 117.941 213.124 118.221 213.432 118.417C213.74 118.613 214.118 118.711 214.566 118.711C214.888 118.711 215.182 118.662 215.448 118.564C215.728 118.452 215.966 118.298 216.162 118.102C216.372 117.906 216.533 117.675 216.645 117.409C216.757 117.143 216.813 116.856 216.813 116.548V109.891H219.795V121H216.96L216.855 118.711L217.401 118.459C217.233 118.977 216.953 119.446 216.561 119.866C216.169 120.286 215.7 120.615 215.154 120.853C214.608 121.091 214.02 121.21 213.39 121.21ZM228.067 121.21C226.863 121.21 225.806 120.965 224.896 120.475C224 119.985 223.3 119.313 222.796 118.459C222.306 117.605 222.061 116.625 222.061 115.519C222.061 114.651 222.201 113.86 222.481 113.146C222.761 112.432 223.153 111.816 223.657 111.298C224.161 110.766 224.756 110.36 225.442 110.08C226.142 109.786 226.898 109.639 227.71 109.639C228.466 109.639 229.166 109.779 229.81 110.059C230.454 110.339 231.007 110.731 231.469 111.235C231.945 111.725 232.309 112.313 232.561 112.999C232.813 113.671 232.925 114.399 232.897 115.183L232.876 116.107H223.951L223.468 114.28H230.419L230.083 114.658V114.196C230.055 113.818 229.929 113.482 229.705 113.188C229.495 112.88 229.222 112.642 228.886 112.474C228.55 112.292 228.172 112.201 227.752 112.201C227.136 112.201 226.611 112.32 226.177 112.558C225.757 112.796 225.435 113.146 225.211 113.608C224.987 114.07 224.875 114.63 224.875 115.288C224.875 115.96 225.015 116.541 225.295 117.031C225.589 117.521 225.995 117.906 226.513 118.186C227.045 118.452 227.668 118.585 228.382 118.585C228.872 118.585 229.32 118.508 229.726 118.354C230.132 118.2 230.566 117.934 231.028 117.556L232.456 119.551C232.05 119.915 231.602 120.223 231.112 120.475C230.622 120.713 230.118 120.895 229.6 121.021C229.082 121.147 228.571 121.21 228.067 121.21ZM238.838 121.21C237.802 121.21 236.878 121.042 236.066 120.706C235.268 120.356 234.624 119.88 234.134 119.278L236.003 117.682C236.423 118.144 236.899 118.48 237.431 118.69C237.963 118.886 238.495 118.984 239.027 118.984C239.237 118.984 239.426 118.963 239.594 118.921C239.776 118.865 239.93 118.795 240.056 118.711C240.182 118.613 240.273 118.501 240.329 118.375C240.399 118.235 240.434 118.088 240.434 117.934C240.434 117.626 240.308 117.388 240.056 117.22C239.916 117.136 239.699 117.045 239.405 116.947C239.111 116.835 238.733 116.716 238.271 116.59C237.557 116.408 236.948 116.198 236.444 115.96C235.954 115.708 235.562 115.428 235.268 115.12C235.016 114.826 234.82 114.511 234.68 114.175C234.554 113.825 234.491 113.44 234.491 113.02C234.491 112.516 234.603 112.061 234.827 111.655C235.051 111.235 235.359 110.878 235.751 110.584C236.157 110.29 236.619 110.066 237.137 109.912C237.655 109.744 238.201 109.66 238.775 109.66C239.349 109.66 239.909 109.73 240.455 109.87C241.001 110.01 241.505 110.213 241.967 110.479C242.443 110.731 242.856 111.032 243.206 111.382L241.61 113.146C241.358 112.908 241.071 112.691 240.749 112.495C240.441 112.299 240.119 112.145 239.783 112.033C239.447 111.921 239.146 111.865 238.88 111.865C238.642 111.865 238.425 111.886 238.229 111.928C238.047 111.97 237.893 112.04 237.767 112.138C237.641 112.222 237.543 112.327 237.473 112.453C237.417 112.579 237.389 112.719 237.389 112.873C237.389 113.027 237.424 113.174 237.494 113.314C237.578 113.454 237.69 113.573 237.83 113.671C237.984 113.755 238.208 113.853 238.502 113.965C238.81 114.077 239.223 114.203 239.741 114.343C240.413 114.525 240.98 114.728 241.442 114.952C241.918 115.176 242.296 115.435 242.576 115.729C242.814 115.981 242.989 116.268 243.101 116.59C243.213 116.912 243.269 117.269 243.269 117.661C243.269 118.347 243.073 118.956 242.681 119.488C242.303 120.02 241.778 120.44 241.106 120.748C240.434 121.056 239.678 121.21 238.838 121.21ZM246.466 121V107.077H249.448V121H246.466ZM244.387 112.558V109.891H251.737V112.558H244.387ZM257.808 121.21C256.772 121.21 255.848 121.042 255.036 120.706C254.238 120.356 253.594 119.88 253.104 119.278L254.973 117.682C255.393 118.144 255.869 118.48 256.401 118.69C256.933 118.886 257.465 118.984 257.997 118.984C258.207 118.984 258.396 118.963 258.564 118.921C258.746 118.865 258.9 118.795 259.026 118.711C259.152 118.613 259.243 118.501 259.299 118.375C259.369 118.235 259.404 118.088 259.404 117.934C259.404 117.626 259.278 117.388 259.026 117.22C258.886 117.136 258.669 117.045 258.375 116.947C258.081 116.835 257.703 116.716 257.241 116.59C256.527 116.408 255.918 116.198 255.414 115.96C254.924 115.708 254.532 115.428 254.238 115.12C253.986 114.826 253.79 114.511 253.65 114.175C253.524 113.825 253.461 113.44 253.461 113.02C253.461 112.516 253.573 112.061 253.797 111.655C254.021 111.235 254.329 110.878 254.721 110.584C255.127 110.29 255.589 110.066 256.107 109.912C256.625 109.744 257.171 109.66 257.745 109.66C258.319 109.66 258.879 109.73 259.425 109.87C259.971 110.01 260.475 110.213 260.937 110.479C261.413 110.731 261.826 111.032 262.176 111.382L260.58 113.146C260.328 112.908 260.041 112.691 259.719 112.495C259.411 112.299 259.089 112.145 258.753 112.033C258.417 111.921 258.116 111.865 257.85 111.865C257.612 111.865 257.395 111.886 257.199 111.928C257.017 111.97 256.863 112.04 256.737 112.138C256.611 112.222 256.513 112.327 256.443 112.453C256.387 112.579 256.359 112.719 256.359 112.873C256.359 113.027 256.394 113.174 256.464 113.314C256.548 113.454 256.66 113.573 256.8 113.671C256.954 113.755 257.178 113.853 257.472 113.965C257.78 114.077 258.193 114.203 258.711 114.343C259.383 114.525 259.95 114.728 260.412 114.952C260.888 115.176 261.266 115.435 261.546 115.729C261.784 115.981 261.959 116.268 262.071 116.59C262.183 116.912 262.239 117.269 262.239 117.661C262.239 118.347 262.043 118.956 261.651 119.488C261.273 120.02 260.748 120.44 260.076 120.748C259.404 121.056 258.648 121.21 257.808 121.21Z" fill="black"/>
<rect x="157.136" y="150.136" width="147.727" height="294.318" rx="11.3636" fill="#F1F5F7" stroke="black" stroke-width="2.27272"/>
<g clip-path="url(#clip0_598_2455)">
<path d="M292.324 156.264H285.661C285.405 156.265 285.161 156.367 284.98 156.547C284.8 156.728 284.698 156.972 284.697 157.228V159.796C284.698 160.052 284.8 160.296 284.98 160.477C285.161 160.657 285.405 160.759 285.661 160.76H292.324C292.579 160.759 292.824 160.657 293.004 160.477C293.185 160.296 293.286 160.052 293.287 159.796V157.228C293.286 156.972 293.185 156.728 293.004 156.547C292.824 156.367 292.579 156.265 292.324 156.264ZM292.725 159.796C292.725 159.903 292.683 160.005 292.608 160.08C292.532 160.156 292.43 160.199 292.324 160.199H285.661C285.554 160.199 285.452 160.156 285.377 160.081C285.302 160.006 285.26 159.904 285.259 159.798V157.228C285.26 157.121 285.302 157.019 285.377 156.944C285.452 156.869 285.554 156.827 285.661 156.826H292.324C292.43 156.827 292.532 156.869 292.607 156.944C292.682 157.019 292.725 157.121 292.725 157.228V159.796Z" fill="black"/>
<path d="M293.688 157.48V159.544C294.009 159.544 294.33 158.988 294.33 158.512C294.33 158.036 294.009 157.48 293.688 157.48Z" fill="black"/>
<path d="M292.083 157.228H285.901C285.837 157.228 285.776 157.253 285.731 157.298C285.686 157.343 285.66 157.404 285.66 157.468V159.556C285.66 159.619 285.686 159.68 285.731 159.726C285.776 159.771 285.837 159.796 285.901 159.796H292.083C292.147 159.796 292.208 159.771 292.253 159.726C292.298 159.68 292.323 159.619 292.324 159.556V157.468C292.323 157.404 292.298 157.343 292.253 157.298C292.208 157.253 292.147 157.228 292.083 157.228Z" fill="black"/>
<path d="M283.055 157.497C282.193 156.704 281.066 156.264 279.895 156.264C278.724 156.264 277.596 156.704 276.735 157.497C276.719 157.512 276.706 157.53 276.697 157.549C276.689 157.569 276.684 157.59 276.684 157.612C276.683 157.633 276.687 157.655 276.696 157.675C276.704 157.695 276.716 157.713 276.731 157.728L277.075 158.069C277.105 158.098 277.145 158.115 277.186 158.116C277.228 158.116 277.269 158.101 277.3 158.072C278.009 157.425 278.935 157.066 279.895 157.066C280.855 157.066 281.781 157.425 282.49 158.072C282.521 158.101 282.561 158.116 282.603 158.115C282.645 158.115 282.685 158.098 282.715 158.069L283.059 157.728C283.074 157.713 283.086 157.695 283.094 157.675C283.103 157.655 283.107 157.633 283.106 157.612C283.106 157.59 283.101 157.569 283.092 157.549C283.083 157.529 283.071 157.512 283.055 157.497ZM279.895 159.475C279.768 159.475 279.644 159.513 279.538 159.583C279.433 159.654 279.35 159.754 279.302 159.872C279.253 159.989 279.24 160.118 279.265 160.243C279.29 160.367 279.351 160.482 279.441 160.572C279.531 160.661 279.645 160.723 279.77 160.747C279.894 160.772 280.023 160.759 280.141 160.711C280.258 160.662 280.358 160.58 280.429 160.474C280.5 160.369 280.537 160.244 280.537 160.117C280.537 159.947 280.47 159.784 280.349 159.663C280.229 159.543 280.065 159.475 279.895 159.475ZM281.93 158.636C281.368 158.142 280.645 157.87 279.896 157.87C279.148 157.87 278.425 158.142 277.862 158.636C277.846 158.651 277.833 158.669 277.824 158.688C277.814 158.708 277.809 158.73 277.809 158.751C277.808 158.773 277.812 158.795 277.821 158.815C277.829 158.835 277.841 158.854 277.857 158.869L278.202 159.21C278.231 159.239 278.271 159.256 278.312 159.258C278.353 159.259 278.394 159.245 278.425 159.218C278.835 158.866 279.357 158.672 279.897 158.672C280.438 158.672 280.96 158.866 281.37 159.218C281.401 159.245 281.442 159.259 281.483 159.258C281.524 159.256 281.563 159.239 281.593 159.21L281.938 158.869C281.954 158.853 281.966 158.835 281.974 158.815C281.982 158.794 281.985 158.773 281.985 158.751C281.984 158.729 281.979 158.708 281.969 158.688C281.96 158.668 281.946 158.651 281.93 158.636Z" fill="black"/>
<path d="M271.583 158.793H271.161C271.124 158.793 271.088 158.808 271.062 158.834C271.035 158.86 271.02 158.896 271.02 158.934V160.619C271.02 160.637 271.024 160.655 271.031 160.672C271.038 160.689 271.049 160.705 271.062 160.718C271.075 160.731 271.09 160.741 271.107 160.748C271.124 160.756 271.143 160.759 271.161 160.759H271.583C271.601 160.759 271.619 160.756 271.636 160.748C271.653 160.741 271.669 160.731 271.682 160.718C271.695 160.705 271.705 160.689 271.712 160.672C271.719 160.655 271.723 160.637 271.723 160.619V158.935C271.723 158.917 271.72 158.898 271.713 158.881C271.706 158.864 271.696 158.848 271.683 158.835C271.669 158.821 271.654 158.811 271.637 158.804C271.62 158.797 271.601 158.793 271.583 158.793ZM270.459 159.635H270.037C270 159.635 269.964 159.649 269.938 159.676C269.911 159.702 269.896 159.738 269.896 159.775V160.62C269.896 160.658 269.911 160.693 269.938 160.72C269.964 160.746 270 160.761 270.037 160.761H270.459C270.477 160.761 270.496 160.757 270.513 160.75C270.53 160.743 270.545 160.733 270.559 160.72C270.572 160.707 270.582 160.691 270.589 160.674C270.596 160.657 270.6 160.639 270.6 160.62V159.776C270.6 159.758 270.597 159.739 270.59 159.722C270.583 159.705 270.572 159.689 270.559 159.676C270.546 159.663 270.53 159.652 270.513 159.645C270.496 159.638 270.477 159.634 270.459 159.635ZM272.707 157.949H272.285C272.248 157.949 272.212 157.964 272.186 157.991C272.16 158.017 272.145 158.053 272.145 158.09V160.62C272.145 160.658 272.16 160.693 272.186 160.72C272.212 160.746 272.248 160.761 272.285 160.761H272.707C272.744 160.761 272.78 160.746 272.806 160.72C272.833 160.693 272.847 160.658 272.847 160.62V158.091C272.847 158.072 272.844 158.054 272.837 158.036C272.83 158.019 272.819 158.004 272.806 157.991C272.793 157.977 272.778 157.967 272.76 157.96C272.743 157.953 272.725 157.949 272.707 157.949ZM273.831 157.107H273.409C273.372 157.107 273.336 157.121 273.31 157.148C273.283 157.174 273.268 157.21 273.268 157.247V160.62C273.268 160.658 273.283 160.693 273.31 160.72C273.336 160.746 273.372 160.761 273.409 160.761H273.831C273.868 160.761 273.903 160.746 273.929 160.719C273.956 160.693 273.97 160.657 273.97 160.62V157.248C273.97 157.21 273.956 157.175 273.929 157.148C273.903 157.122 273.867 157.107 273.83 157.107L273.831 157.107ZM274.954 156.264H274.533C274.495 156.264 274.46 156.279 274.433 156.305C274.407 156.332 274.392 156.368 274.392 156.405V160.62C274.392 160.658 274.407 160.693 274.433 160.72C274.46 160.746 274.495 160.761 274.533 160.761H274.954C274.991 160.761 275.027 160.746 275.054 160.72C275.08 160.693 275.095 160.658 275.095 160.62V156.405C275.095 156.368 275.08 156.332 275.054 156.305C275.027 156.279 274.991 156.264 274.954 156.264Z" fill="black"/>
<path d="M169.274 159.026H169.255C169.15 159.077 169.026 159.102 168.883 159.102C168.762 159.102 168.64 159.082 168.516 159.04C168.392 158.999 168.279 158.935 168.177 158.85C168.079 158.76 167.998 158.649 167.934 158.516C167.871 158.379 167.839 158.218 167.839 158.034C167.839 157.85 167.869 157.687 167.929 157.547C167.993 157.404 168.077 157.285 168.182 157.19C168.287 157.094 168.41 157.023 168.549 156.975C168.689 156.924 168.839 156.899 168.998 156.899C169.157 156.899 169.306 156.924 169.446 156.975C169.586 157.026 169.708 157.099 169.813 157.195C169.918 157.29 170.001 157.404 170.061 157.538C170.125 157.671 170.157 157.821 170.157 157.986C170.157 158.091 170.149 158.187 170.133 158.272C170.117 158.358 170.093 158.441 170.061 158.52C170.033 158.597 169.998 158.673 169.956 158.749C169.915 158.826 169.869 158.904 169.818 158.983L168.964 160.333H168.425L169.274 159.026ZM169.699 158.001C169.699 157.899 169.681 157.805 169.646 157.719C169.615 157.633 169.567 157.56 169.503 157.5C169.443 157.436 169.37 157.387 169.284 157.352C169.198 157.317 169.103 157.299 168.998 157.299C168.893 157.299 168.797 157.317 168.712 157.352C168.626 157.387 168.551 157.436 168.487 157.5C168.427 157.56 168.379 157.633 168.344 157.719C168.313 157.805 168.297 157.899 168.297 158.001C168.297 158.102 168.313 158.196 168.344 158.282C168.379 158.368 168.427 158.443 168.487 158.506C168.551 158.567 168.626 158.614 168.712 158.649C168.797 158.684 168.893 158.702 168.998 158.702C169.103 158.702 169.198 158.684 169.284 158.649C169.37 158.614 169.443 158.567 169.503 158.506C169.567 158.443 169.615 158.368 169.646 158.282C169.681 158.196 169.699 158.102 169.699 158.001ZM170.985 158.673C170.899 158.673 170.824 158.643 170.761 158.582C170.7 158.519 170.67 158.444 170.67 158.358C170.67 158.272 170.7 158.199 170.761 158.139C170.824 158.075 170.899 158.043 170.985 158.043C171.071 158.043 171.144 158.075 171.204 158.139C171.268 158.199 171.3 158.272 171.3 158.358C171.3 158.444 171.268 158.519 171.204 158.582C171.144 158.643 171.071 158.673 170.985 158.673ZM170.67 160.047C170.67 159.961 170.7 159.888 170.761 159.827C170.824 159.764 170.899 159.732 170.985 159.732C171.071 159.732 171.144 159.764 171.204 159.827C171.268 159.888 171.3 159.961 171.3 160.047C171.3 160.132 171.268 160.207 171.204 160.271C171.144 160.331 171.071 160.361 170.985 160.361C170.899 160.361 170.824 160.331 170.761 160.271C170.7 160.207 170.67 160.132 170.67 160.047ZM173.252 159.589H171.812V159.121L173.157 156.956H173.71V159.188H174.187V159.589H173.71V160.333H173.252V159.589ZM173.252 157.5H173.242L172.212 159.188H173.252V157.5ZM175.587 157.481L174.967 158.053L174.7 157.733L175.64 156.956H176.045V160.333H175.587V157.481Z" fill="black"/>
</g>
<path d="M196.51 180.926V182.395H194.092V190H192.272V182.395H189.854V180.926H196.51ZM198.761 181.94C198.441 181.94 198.172 181.84 197.955 181.641C197.747 181.433 197.643 181.177 197.643 180.874C197.643 180.571 197.747 180.319 197.955 180.12C198.172 179.912 198.441 179.808 198.761 179.808C199.082 179.808 199.346 179.912 199.554 180.12C199.771 180.319 199.879 180.571 199.879 180.874C199.879 181.177 199.771 181.433 199.554 181.641C199.346 181.84 199.082 181.94 198.761 181.94ZM199.658 182.798V190H197.838V182.798H199.658ZM200.989 186.399C200.989 185.654 201.14 185.004 201.444 184.449C201.747 183.886 202.167 183.452 202.705 183.149C203.242 182.837 203.857 182.681 204.551 182.681C205.443 182.681 206.18 182.906 206.761 183.357C207.35 183.799 207.744 184.423 207.944 185.229H205.981C205.877 184.917 205.699 184.674 205.448 184.501C205.205 184.319 204.902 184.228 204.538 184.228C204.018 184.228 203.606 184.419 203.303 184.8C202.999 185.173 202.848 185.706 202.848 186.399C202.848 187.084 202.999 187.617 203.303 187.998C203.606 188.371 204.018 188.557 204.538 188.557C205.274 188.557 205.755 188.228 205.981 187.569H207.944C207.744 188.349 207.35 188.969 206.761 189.428C206.171 189.887 205.435 190.117 204.551 190.117C203.857 190.117 203.242 189.965 202.705 189.662C202.167 189.35 201.747 188.917 201.444 188.362C201.14 187.799 200.989 187.144 200.989 186.399ZM213.541 190L211.097 186.932V190H209.277V180.38H211.097V185.853L213.515 182.798H215.881L212.709 186.412L215.907 190H213.541ZM223.564 186.243C223.564 186.503 223.546 186.737 223.512 186.945H218.247C218.29 187.465 218.472 187.872 218.793 188.167C219.113 188.462 219.508 188.609 219.976 188.609C220.652 188.609 221.133 188.319 221.419 187.738H223.382C223.174 188.431 222.775 189.003 222.186 189.454C221.596 189.896 220.873 190.117 220.015 190.117C219.321 190.117 218.697 189.965 218.143 189.662C217.597 189.35 217.168 188.912 216.856 188.349C216.552 187.786 216.401 187.136 216.401 186.399C216.401 185.654 216.552 184.999 216.856 184.436C217.159 183.873 217.584 183.439 218.13 183.136C218.676 182.833 219.304 182.681 220.015 182.681C220.699 182.681 221.31 182.828 221.848 183.123C222.394 183.418 222.814 183.838 223.109 184.384C223.412 184.921 223.564 185.541 223.564 186.243ZM221.679 185.723C221.67 185.255 221.501 184.882 221.172 184.605C220.842 184.319 220.439 184.176 219.963 184.176C219.512 184.176 219.131 184.315 218.819 184.592C218.515 184.861 218.329 185.238 218.26 185.723H221.679ZM227.011 184.293V187.777C227.011 188.02 227.067 188.197 227.18 188.31C227.301 188.414 227.501 188.466 227.778 188.466H228.623V190H227.479C225.945 190 225.178 189.255 225.178 187.764V184.293H224.32V182.798H225.178V181.017H227.011V182.798H228.623V184.293H227.011ZM236.202 180.926C237.155 180.926 237.991 181.112 238.711 181.485C239.439 181.858 239.998 182.391 240.388 183.084C240.786 183.769 240.986 184.566 240.986 185.476C240.986 186.386 240.786 187.183 240.388 187.868C239.998 188.544 239.439 189.068 238.711 189.441C237.991 189.814 237.155 190 236.202 190H233.03V180.926H236.202ZM236.137 188.453C237.09 188.453 237.827 188.193 238.347 187.673C238.867 187.153 239.127 186.421 239.127 185.476C239.127 184.531 238.867 183.795 238.347 183.266C237.827 182.729 237.09 182.46 236.137 182.46H234.85V188.453H236.137ZM249.043 186.243C249.043 186.503 249.026 186.737 248.991 186.945H243.726C243.77 187.465 243.952 187.872 244.272 188.167C244.593 188.462 244.987 188.609 245.455 188.609C246.131 188.609 246.612 188.319 246.898 187.738H248.861C248.653 188.431 248.255 189.003 247.665 189.454C247.076 189.896 246.352 190.117 245.494 190.117C244.801 190.117 244.177 189.965 243.622 189.662C243.076 189.35 242.647 188.912 242.335 188.349C242.032 187.786 241.88 187.136 241.88 186.399C241.88 185.654 242.032 184.999 242.335 184.436C242.639 183.873 243.063 183.439 243.609 183.136C244.155 182.833 244.784 182.681 245.494 182.681C246.179 182.681 246.79 182.828 247.327 183.123C247.873 183.418 248.294 183.838 248.588 184.384C248.892 184.921 249.043 185.541 249.043 186.243ZM247.158 185.723C247.15 185.255 246.981 184.882 246.651 184.605C246.322 184.319 245.919 184.176 245.442 184.176C244.992 184.176 244.61 184.315 244.298 184.592C243.995 184.861 243.809 185.238 243.739 185.723H247.158ZM252.491 184.293V187.777C252.491 188.02 252.547 188.197 252.66 188.31C252.781 188.414 252.98 188.466 253.258 188.466H254.103V190H252.959C251.425 190 250.658 189.255 250.658 187.764V184.293H249.8V182.798H250.658V181.017H252.491V182.798H254.103V184.293H252.491ZM254.944 186.373C254.944 185.645 255.087 184.999 255.373 184.436C255.667 183.873 256.062 183.439 256.556 183.136C257.058 182.833 257.617 182.681 258.233 182.681C258.77 182.681 259.238 182.789 259.637 183.006C260.044 183.223 260.369 183.496 260.612 183.825V182.798H262.445V190H260.612V188.947C260.378 189.285 260.053 189.567 259.637 189.792C259.229 190.009 258.757 190.117 258.22 190.117C257.613 190.117 257.058 189.961 256.556 189.649C256.062 189.337 255.667 188.899 255.373 188.336C255.087 187.764 254.944 187.11 254.944 186.373ZM260.612 186.399C260.612 185.957 260.525 185.58 260.352 185.268C260.178 184.947 259.944 184.705 259.65 184.54C259.355 184.367 259.039 184.28 258.701 184.28C258.363 184.28 258.051 184.362 257.765 184.527C257.479 184.692 257.245 184.934 257.063 185.255C256.889 185.567 256.803 185.94 256.803 186.373C256.803 186.806 256.889 187.188 257.063 187.517C257.245 187.838 257.479 188.085 257.765 188.258C258.059 188.431 258.371 188.518 258.701 188.518C259.039 188.518 259.355 188.436 259.65 188.271C259.944 188.098 260.178 187.855 260.352 187.543C260.525 187.222 260.612 186.841 260.612 186.399ZM265.145 181.94C264.825 181.94 264.556 181.84 264.339 181.641C264.131 181.433 264.027 181.177 264.027 180.874C264.027 180.571 264.131 180.319 264.339 180.12C264.556 179.912 264.825 179.808 265.145 179.808C265.466 179.808 265.73 179.912 265.938 180.12C266.155 180.319 266.263 180.571 266.263 180.874C266.263 181.177 266.155 181.433 265.938 181.641C265.73 181.84 265.466 181.94 265.145 181.94ZM266.042 182.798V190H264.222V182.798H266.042ZM269.66 180.38V190H267.84V180.38H269.66Z" fill="#2C2C2C"/>
<path d="M168.809 184.992L172.781 181.218C172.922 181.084 173 180.902 173 180.713C173 180.524 172.92 180.342 172.779 180.208C172.639 180.075 172.448 180 172.249 180C172.05 180 171.859 180.076 171.719 180.21L167.218 184.492C167.082 184.622 167.004 184.797 167 184.98C166.996 185.164 167.067 185.341 167.197 185.477L171.715 189.79C171.856 189.924 172.047 190 172.245 190C172.444 190 172.635 189.925 172.776 189.792C172.917 189.658 172.996 189.476 172.997 189.287C172.997 189.098 172.918 188.916 172.778 188.782L168.809 184.992Z" fill="#2C2C2C"/>
<rect x="166" y="204" width="129" height="22" rx="4" fill="white"/>
<path d="M178.67 217V213.424H177.494V212.8H180.53V213.424H179.318V217H178.67ZM181.275 217V213.85H181.893V217H181.275ZM181.575 213.154C181.443 213.154 181.341 213.12 181.269 213.052C181.197 212.984 181.161 212.888 181.161 212.764C181.161 212.648 181.197 212.554 181.269 212.482C181.345 212.41 181.447 212.374 181.575 212.374C181.707 212.374 181.809 212.408 181.881 212.476C181.953 212.544 181.989 212.64 181.989 212.764C181.989 212.88 181.951 212.974 181.875 213.046C181.803 213.118 181.703 213.154 181.575 213.154ZM184.181 217.06C183.889 217.06 183.627 216.988 183.395 216.844C183.167 216.7 182.985 216.504 182.849 216.256C182.717 216.008 182.651 215.73 182.651 215.422C182.651 215.114 182.717 214.836 182.849 214.588C182.985 214.34 183.167 214.144 183.395 214C183.627 213.856 183.889 213.784 184.181 213.784C184.461 213.784 184.715 213.842 184.943 213.958C185.175 214.07 185.351 214.224 185.471 214.42L185.129 214.84C185.065 214.748 184.983 214.664 184.883 214.588C184.783 214.512 184.677 214.452 184.565 214.408C184.453 214.364 184.345 214.342 184.241 214.342C184.049 214.342 183.877 214.39 183.725 214.486C183.577 214.578 183.459 214.706 183.371 214.87C183.283 215.034 183.239 215.218 183.239 215.422C183.239 215.626 183.285 215.81 183.377 215.974C183.469 216.134 183.591 216.262 183.743 216.358C183.895 216.454 184.063 216.502 184.247 216.502C184.355 216.502 184.459 216.484 184.559 216.448C184.663 216.412 184.763 216.358 184.859 216.286C184.955 216.214 185.045 216.126 185.129 216.022L185.471 216.442C185.343 216.622 185.159 216.77 184.919 216.886C184.683 217.002 184.437 217.06 184.181 217.06ZM186.618 216.016L186.588 215.344L188.094 213.85H188.928L186.618 216.016ZM186.054 217V212.56H186.672V217H186.054ZM188.178 217L186.99 215.614L187.428 215.212L188.97 217H188.178ZM190.799 217.06C190.475 217.06 190.187 216.992 189.935 216.856C189.687 216.716 189.491 216.526 189.347 216.286C189.207 216.046 189.137 215.77 189.137 215.458C189.137 215.21 189.177 214.984 189.257 214.78C189.337 214.576 189.447 214.4 189.587 214.252C189.731 214.1 189.901 213.984 190.097 213.904C190.297 213.82 190.513 213.778 190.745 213.778C190.949 213.778 191.139 213.818 191.315 213.898C191.491 213.974 191.643 214.08 191.771 214.216C191.903 214.352 192.003 214.514 192.071 214.702C192.143 214.886 192.177 215.088 192.173 215.308L192.167 215.572H189.593L189.455 215.08H191.633L191.543 215.182V215.038C191.531 214.906 191.487 214.788 191.411 214.684C191.335 214.58 191.239 214.498 191.123 214.438C191.007 214.378 190.881 214.348 190.745 214.348C190.529 214.348 190.347 214.39 190.199 214.474C190.051 214.554 189.939 214.674 189.863 214.834C189.787 214.99 189.749 215.184 189.749 215.416C189.749 215.636 189.795 215.828 189.887 215.992C189.979 216.152 190.109 216.276 190.277 216.364C190.445 216.452 190.639 216.496 190.859 216.496C191.015 216.496 191.159 216.47 191.291 216.418C191.427 216.366 191.573 216.272 191.729 216.136L192.041 216.574C191.945 216.67 191.827 216.754 191.687 216.826C191.551 216.898 191.405 216.956 191.249 217C191.097 217.04 190.947 217.06 190.799 217.06ZM193.235 217V213.046H193.853V217H193.235ZM192.581 214.45V213.85H194.585V214.45H192.581Z" fill="black"/>
<path d="M214.519 217L213.181 212.8H213.871L214.681 215.428C214.705 215.492 214.727 215.568 214.747 215.656C214.767 215.74 214.785 215.826 214.801 215.914C214.817 216.002 214.831 216.084 214.843 216.16C214.859 216.236 214.873 216.298 214.885 216.346L214.711 216.34C214.771 216.128 214.817 215.964 214.849 215.848C214.885 215.732 214.913 215.644 214.933 215.584C214.953 215.52 214.971 215.466 214.987 215.422L215.743 213.526H216.325L217.057 215.422C217.097 215.518 217.131 215.614 217.159 215.71C217.191 215.802 217.219 215.896 217.243 215.992C217.267 216.084 217.293 216.182 217.321 216.286L217.165 216.328C217.185 216.22 217.199 216.136 217.207 216.076C217.219 216.012 217.229 215.96 217.237 215.92C217.245 215.88 217.253 215.842 217.261 215.806C217.269 215.766 217.281 215.716 217.297 215.656C217.317 215.596 217.343 215.514 217.375 215.41L218.173 212.8H218.869L217.531 217H217.081L215.971 214.372L216.025 214.396L214.957 217H214.519ZM220.709 217.06C220.401 217.06 220.125 216.99 219.881 216.85C219.641 216.706 219.451 216.512 219.311 216.268C219.171 216.02 219.101 215.738 219.101 215.422C219.101 215.106 219.171 214.826 219.311 214.582C219.451 214.334 219.641 214.14 219.881 214C220.125 213.856 220.401 213.784 220.709 213.784C221.013 213.784 221.285 213.856 221.525 214C221.769 214.14 221.961 214.334 222.101 214.582C222.241 214.826 222.311 215.106 222.311 215.422C222.311 215.738 222.241 216.02 222.101 216.268C221.961 216.512 221.769 216.706 221.525 216.85C221.285 216.99 221.013 217.06 220.709 217.06ZM220.709 216.496C220.897 216.496 221.065 216.45 221.213 216.358C221.361 216.262 221.477 216.134 221.561 215.974C221.645 215.81 221.685 215.626 221.681 215.422C221.685 215.214 221.645 215.03 221.561 214.87C221.477 214.706 221.361 214.578 221.213 214.486C221.065 214.394 220.897 214.348 220.709 214.348C220.521 214.348 220.351 214.396 220.199 214.492C220.051 214.584 219.935 214.712 219.851 214.876C219.767 215.036 219.727 215.218 219.731 215.422C219.727 215.626 219.767 215.81 219.851 215.974C219.935 216.134 220.051 216.262 220.199 216.358C220.351 216.45 220.521 216.496 220.709 216.496ZM222.985 217V213.85H223.609V214.84L223.549 214.6C223.593 214.448 223.667 214.31 223.771 214.186C223.879 214.062 224.001 213.964 224.137 213.892C224.277 213.82 224.421 213.784 224.569 213.784C224.637 213.784 224.701 213.79 224.761 213.802C224.825 213.814 224.875 213.828 224.911 213.844L224.749 214.516C224.701 214.496 224.647 214.48 224.587 214.468C224.531 214.452 224.475 214.444 224.419 214.444C224.311 214.444 224.207 214.466 224.107 214.51C224.011 214.55 223.925 214.608 223.849 214.684C223.777 214.756 223.719 214.842 223.675 214.942C223.631 215.038 223.609 215.144 223.609 215.26V217H222.985ZM225.969 216.016L225.939 215.344L227.445 213.85H228.279L225.969 216.016ZM225.405 217V212.56H226.023V217H225.405ZM227.529 217L226.341 215.614L226.779 215.212L228.321 217H227.529ZM230.096 217.06C229.788 217.06 229.512 216.99 229.268 216.85C229.028 216.706 228.838 216.512 228.698 216.268C228.558 216.02 228.488 215.738 228.488 215.422C228.488 215.106 228.558 214.826 228.698 214.582C228.838 214.334 229.028 214.14 229.268 214C229.512 213.856 229.788 213.784 230.096 213.784C230.4 213.784 230.672 213.856 230.912 214C231.156 214.14 231.348 214.334 231.488 214.582C231.628 214.826 231.698 215.106 231.698 215.422C231.698 215.738 231.628 216.02 231.488 216.268C231.348 216.512 231.156 216.706 230.912 216.85C230.672 216.99 230.4 217.06 230.096 217.06ZM230.096 216.496C230.284 216.496 230.452 216.45 230.6 216.358C230.748 216.262 230.864 216.134 230.948 215.974C231.032 215.81 231.072 215.626 231.068 215.422C231.072 215.214 231.032 215.03 230.948 214.87C230.864 214.706 230.748 214.578 230.6 214.486C230.452 214.394 230.284 214.348 230.096 214.348C229.908 214.348 229.738 214.396 229.586 214.492C229.438 214.584 229.322 214.712 229.238 214.876C229.154 215.036 229.114 215.218 229.118 215.422C229.114 215.626 229.154 215.81 229.238 215.974C229.322 216.134 229.438 216.262 229.586 216.358C229.738 216.45 229.908 216.496 230.096 216.496ZM232.371 217V213.85H232.995V214.84L232.935 214.6C232.979 214.448 233.053 214.31 233.157 214.186C233.265 214.062 233.387 213.964 233.523 213.892C233.663 213.82 233.807 213.784 233.955 213.784C234.023 213.784 234.087 213.79 234.147 213.802C234.211 213.814 234.261 213.828 234.297 213.844L234.135 214.516C234.087 214.496 234.033 214.48 233.973 214.468C233.917 214.452 233.861 214.444 233.805 214.444C233.697 214.444 233.593 214.466 233.493 214.51C233.397 214.55 233.311 214.608 233.235 214.684C233.163 214.756 233.105 214.842 233.061 214.942C233.017 215.038 232.995 215.144 232.995 215.26V217H232.371ZM235.971 217.06C235.683 217.06 235.425 216.99 235.197 216.85C234.973 216.706 234.795 216.512 234.663 216.268C234.531 216.02 234.465 215.738 234.465 215.422C234.465 215.106 234.529 214.826 234.657 214.582C234.789 214.334 234.967 214.14 235.191 214C235.415 213.856 235.669 213.784 235.953 213.784C236.109 213.784 236.259 213.81 236.403 213.862C236.551 213.91 236.683 213.978 236.799 214.066C236.915 214.15 237.005 214.244 237.069 214.348C237.137 214.448 237.171 214.55 237.171 214.654L236.991 214.666V212.56H237.609V217H236.991V216.25H237.111C237.111 216.346 237.079 216.442 237.015 216.538C236.951 216.63 236.865 216.716 236.757 216.796C236.653 216.876 236.531 216.94 236.391 216.988C236.255 217.036 236.115 217.06 235.971 217.06ZM236.055 216.526C236.243 216.526 236.409 216.478 236.553 216.382C236.697 216.286 236.809 216.156 236.889 215.992C236.973 215.824 237.015 215.634 237.015 215.422C237.015 215.21 236.973 215.022 236.889 214.858C236.809 214.69 236.697 214.558 236.553 214.462C236.409 214.366 236.243 214.318 236.055 214.318C235.867 214.318 235.701 214.366 235.557 214.462C235.413 214.558 235.299 214.69 235.215 214.858C235.135 215.022 235.095 215.21 235.095 215.422C235.095 215.634 235.135 215.824 235.215 215.992C235.299 216.156 235.413 216.286 235.557 216.382C235.701 216.478 235.867 216.526 236.055 216.526ZM239.929 217.06C239.605 217.06 239.317 216.992 239.065 216.856C238.817 216.716 238.621 216.526 238.477 216.286C238.337 216.046 238.267 215.77 238.267 215.458C238.267 215.21 238.307 214.984 238.387 214.78C238.467 214.576 238.577 214.4 238.717 214.252C238.861 214.1 239.031 213.984 239.227 213.904C239.427 213.82 239.643 213.778 239.875 213.778C240.079 213.778 240.269 213.818 240.445 213.898C240.621 213.974 240.773 214.08 240.901 214.216C241.033 214.352 241.133 214.514 241.201 214.702C241.273 214.886 241.307 215.088 241.303 215.308L241.297 215.572H238.723L238.585 215.08H240.763L240.673 215.182V215.038C240.661 214.906 240.617 214.788 240.541 214.684C240.465 214.58 240.369 214.498 240.253 214.438C240.137 214.378 240.011 214.348 239.875 214.348C239.659 214.348 239.477 214.39 239.329 214.474C239.181 214.554 239.069 214.674 238.993 214.834C238.917 214.99 238.879 215.184 238.879 215.416C238.879 215.636 238.925 215.828 239.017 215.992C239.109 216.152 239.239 216.276 239.407 216.364C239.575 216.452 239.769 216.496 239.989 216.496C240.145 216.496 240.289 216.47 240.421 216.418C240.557 216.366 240.703 216.272 240.859 216.136L241.171 216.574C241.075 216.67 240.957 216.754 240.817 216.826C240.681 216.898 240.535 216.956 240.379 217C240.227 217.04 240.077 217.06 239.929 217.06ZM241.975 217V213.85H242.599V214.84L242.539 214.6C242.583 214.448 242.657 214.31 242.761 214.186C242.869 214.062 242.991 213.964 243.127 213.892C243.267 213.82 243.411 213.784 243.559 213.784C243.627 213.784 243.691 213.79 243.751 213.802C243.815 213.814 243.865 213.828 243.901 213.844L243.739 214.516C243.691 214.496 243.637 214.48 243.577 214.468C243.521 214.452 243.465 214.444 243.409 214.444C243.301 214.444 243.197 214.466 243.097 214.51C243.001 214.55 242.915 214.608 242.839 214.684C242.767 214.756 242.709 214.842 242.665 214.942C242.621 215.038 242.599 215.144 242.599 215.26V217H241.975Z" fill="#7A7A7A"/>
<path d="M259.477 217.036C259.153 217.036 258.863 216.966 258.607 216.826C258.351 216.682 258.149 216.486 258.001 216.238C257.857 215.986 257.785 215.702 257.785 215.386V212.794H258.433V215.332C258.433 215.536 258.481 215.72 258.577 215.884C258.673 216.044 258.799 216.172 258.955 216.268C259.115 216.364 259.289 216.412 259.477 216.412C259.677 216.412 259.857 216.364 260.017 216.268C260.181 216.172 260.311 216.044 260.407 215.884C260.503 215.72 260.551 215.536 260.551 215.332V212.794H261.169V215.386C261.169 215.702 261.095 215.986 260.947 216.238C260.803 216.486 260.603 216.682 260.347 216.826C260.091 216.966 259.801 217.036 259.477 217.036ZM262.13 218.32V213.85H262.754V214.57L262.658 214.516C262.682 214.396 262.75 214.282 262.862 214.174C262.974 214.062 263.11 213.972 263.27 213.904C263.434 213.832 263.602 213.796 263.774 213.796C264.058 213.796 264.31 213.866 264.53 214.006C264.75 214.146 264.924 214.338 265.052 214.582C265.18 214.826 265.244 215.106 265.244 215.422C265.244 215.734 265.18 216.014 265.052 216.262C264.928 216.506 264.756 216.7 264.536 216.844C264.316 216.984 264.068 217.054 263.792 217.054C263.608 217.054 263.43 217.018 263.258 216.946C263.086 216.87 262.94 216.774 262.82 216.658C262.7 216.542 262.626 216.422 262.598 216.298L262.754 216.214V218.32H262.13ZM263.69 216.484C263.874 216.484 264.038 216.438 264.182 216.346C264.326 216.254 264.44 216.128 264.524 215.968C264.608 215.808 264.65 215.626 264.65 215.422C264.65 215.218 264.608 215.038 264.524 214.882C264.444 214.722 264.332 214.596 264.188 214.504C264.044 214.412 263.878 214.366 263.69 214.366C263.502 214.366 263.336 214.412 263.192 214.504C263.048 214.592 262.934 214.716 262.85 214.876C262.766 215.036 262.724 215.218 262.724 215.422C262.724 215.626 262.766 215.808 262.85 215.968C262.934 216.128 263.048 216.254 263.192 216.346C263.336 216.438 263.502 216.484 263.69 216.484ZM267.229 217.06C266.941 217.06 266.683 216.99 266.455 216.85C266.231 216.706 266.053 216.512 265.921 216.268C265.789 216.02 265.723 215.738 265.723 215.422C265.723 215.106 265.787 214.826 265.915 214.582C266.047 214.334 266.225 214.14 266.449 214C266.673 213.856 266.927 213.784 267.211 213.784C267.367 213.784 267.517 213.81 267.661 213.862C267.809 213.91 267.941 213.978 268.057 214.066C268.173 214.15 268.263 214.244 268.327 214.348C268.395 214.448 268.429 214.55 268.429 214.654L268.249 214.666V212.56H268.867V217H268.249V216.25H268.369C268.369 216.346 268.337 216.442 268.273 216.538C268.209 216.63 268.123 216.716 268.015 216.796C267.911 216.876 267.789 216.94 267.649 216.988C267.513 217.036 267.373 217.06 267.229 217.06ZM267.313 216.526C267.501 216.526 267.667 216.478 267.811 216.382C267.955 216.286 268.067 216.156 268.147 215.992C268.231 215.824 268.273 215.634 268.273 215.422C268.273 215.21 268.231 215.022 268.147 214.858C268.067 214.69 267.955 214.558 267.811 214.462C267.667 214.366 267.501 214.318 267.313 214.318C267.125 214.318 266.959 214.366 266.815 214.462C266.671 214.558 266.557 214.69 266.473 214.858C266.393 215.022 266.353 215.21 266.353 215.422C266.353 215.634 266.393 215.824 266.473 215.992C266.557 216.156 266.671 216.286 266.815 216.382C266.959 216.478 267.125 216.526 267.313 216.526ZM270.93 217.06C270.67 217.06 270.432 216.988 270.216 216.844C270.004 216.7 269.834 216.504 269.706 216.256C269.578 216.008 269.514 215.728 269.514 215.416C269.514 215.1 269.578 214.82 269.706 214.576C269.838 214.328 270.014 214.134 270.234 213.994C270.458 213.854 270.708 213.784 270.984 213.784C271.148 213.784 271.298 213.808 271.434 213.856C271.57 213.904 271.688 213.972 271.788 214.06C271.892 214.144 271.976 214.242 272.04 214.354C272.108 214.466 272.15 214.586 272.166 214.714L272.028 214.666V213.85H272.652V217H272.028V216.25L272.172 216.208C272.148 216.316 272.098 216.422 272.022 216.526C271.95 216.626 271.856 216.716 271.74 216.796C271.628 216.876 271.502 216.94 271.362 216.988C271.226 217.036 271.082 217.06 270.93 217.06ZM271.092 216.49C271.28 216.49 271.446 216.444 271.59 216.352C271.734 216.26 271.846 216.134 271.926 215.974C272.01 215.81 272.052 215.624 272.052 215.416C272.052 215.212 272.01 215.03 271.926 214.87C271.846 214.71 271.734 214.584 271.59 214.492C271.446 214.4 271.28 214.354 271.092 214.354C270.908 214.354 270.744 214.4 270.6 214.492C270.46 214.584 270.348 214.71 270.264 214.87C270.184 215.03 270.144 215.212 270.144 215.416C270.144 215.624 270.184 215.81 270.264 215.974C270.348 216.134 270.46 216.26 270.6 216.352C270.744 216.444 270.908 216.49 271.092 216.49ZM273.905 217V213.046H274.523V217H273.905ZM273.251 214.45V213.85H275.255V214.45H273.251ZM277.258 217.06C276.934 217.06 276.646 216.992 276.394 216.856C276.146 216.716 275.95 216.526 275.806 216.286C275.666 216.046 275.596 215.77 275.596 215.458C275.596 215.21 275.636 214.984 275.716 214.78C275.796 214.576 275.906 214.4 276.046 214.252C276.19 214.1 276.36 213.984 276.556 213.904C276.756 213.82 276.972 213.778 277.204 213.778C277.408 213.778 277.598 213.818 277.774 213.898C277.95 213.974 278.102 214.08 278.23 214.216C278.362 214.352 278.462 214.514 278.53 214.702C278.602 214.886 278.636 215.088 278.632 215.308L278.626 215.572H276.052L275.914 215.08H278.092L278.002 215.182V215.038C277.99 214.906 277.946 214.788 277.87 214.684C277.794 214.58 277.698 214.498 277.582 214.438C277.466 214.378 277.34 214.348 277.204 214.348C276.988 214.348 276.806 214.39 276.658 214.474C276.51 214.554 276.398 214.674 276.322 214.834C276.246 214.99 276.208 215.184 276.208 215.416C276.208 215.636 276.254 215.828 276.346 215.992C276.438 216.152 276.568 216.276 276.736 216.364C276.904 216.452 277.098 216.496 277.318 216.496C277.474 216.496 277.618 216.47 277.75 216.418C277.886 216.366 278.032 216.272 278.188 216.136L278.5 216.574C278.404 216.67 278.286 216.754 278.146 216.826C278.01 216.898 277.864 216.956 277.708 217C277.556 217.04 277.406 217.06 277.258 217.06ZM280.354 217.06C280.09 217.06 279.852 217.014 279.64 216.922C279.428 216.83 279.252 216.694 279.112 216.514L279.532 216.154C279.652 216.294 279.782 216.396 279.922 216.46C280.066 216.52 280.228 216.55 280.408 216.55C280.48 216.55 280.546 216.542 280.606 216.526C280.67 216.506 280.724 216.478 280.768 216.442C280.816 216.406 280.852 216.364 280.876 216.316C280.9 216.264 280.912 216.208 280.912 216.148C280.912 216.044 280.874 215.96 280.798 215.896C280.758 215.868 280.694 215.838 280.606 215.806C280.522 215.77 280.412 215.734 280.276 215.698C280.044 215.638 279.854 215.57 279.706 215.494C279.558 215.418 279.444 215.332 279.364 215.236C279.304 215.16 279.26 215.078 279.232 214.99C279.204 214.898 279.19 214.798 279.19 214.69C279.19 214.558 279.218 214.438 279.274 214.33C279.334 214.218 279.414 214.122 279.514 214.042C279.618 213.958 279.738 213.894 279.874 213.85C280.014 213.806 280.162 213.784 280.318 213.784C280.466 213.784 280.612 213.804 280.756 213.844C280.904 213.884 281.04 213.942 281.164 214.018C281.288 214.094 281.392 214.184 281.476 214.288L281.122 214.678C281.046 214.602 280.962 214.536 280.87 214.48C280.782 214.42 280.692 214.374 280.6 214.342C280.508 214.31 280.424 214.294 280.348 214.294C280.264 214.294 280.188 214.302 280.12 214.318C280.052 214.334 279.994 214.358 279.946 214.39C279.902 214.422 279.868 214.462 279.844 214.51C279.82 214.558 279.808 214.612 279.808 214.672C279.812 214.724 279.824 214.774 279.844 214.822C279.868 214.866 279.9 214.904 279.94 214.936C279.984 214.968 280.05 215.002 280.138 215.038C280.226 215.074 280.338 215.108 280.474 215.14C280.674 215.192 280.838 215.25 280.966 215.314C281.098 215.374 281.202 215.444 281.278 215.524C281.358 215.6 281.414 215.688 281.446 215.788C281.478 215.888 281.494 216 281.494 216.124C281.494 216.304 281.442 216.466 281.338 216.61C281.238 216.75 281.102 216.86 280.93 216.94C280.758 217.02 280.566 217.06 280.354 217.06Z" fill="#7A7A7A"/>
<path d="M172 226C172 224.895 172.895 224 174 224H200C201.105 224 202 224.895 202 226H172Z" fill="#1A89FA"/>
<rect x="167" y="241" width="128" height="175" rx="5" fill="white"/>
<rect x="170" y="250" width="21" height="7" rx="3.5" fill="#C8C8C8"/>
<rect x="195" y="250" width="58" height="7" rx="3.5" fill="#1A89FA" fill-opacity="0.32"/>
<rect x="198" y="252" width="52" height="2" rx="1" fill="#ADADAD"/>
<path d="M177.771 255L178.251 252.2H178.611L178.131 255H177.771ZM176.427 254.308V253.976H178.743V254.308H176.427ZM176.707 255L177.187 252.2H177.547L177.067 255H176.707ZM176.579 253.188V252.856H178.891V253.188H176.579ZM179.882 254.804V252.532L180.03 252.644L179.478 252.936L179.362 252.56L180.11 252.16H180.318V254.804H179.882ZM179.438 255V254.584H180.774V255H179.438ZM181.926 255L181.91 254.96L182.742 253.192L182.754 253.524C182.706 253.604 182.652 253.675 182.594 253.736C182.538 253.797 182.475 253.851 182.406 253.896C182.339 253.939 182.27 253.972 182.198 253.996C182.126 254.017 182.052 254.028 181.978 254.028C181.826 254.028 181.686 253.988 181.558 253.908C181.43 253.828 181.327 253.721 181.25 253.588C181.172 253.455 181.134 253.309 181.134 253.152C181.134 252.963 181.176 252.793 181.262 252.644C181.347 252.492 181.463 252.372 181.61 252.284C181.759 252.196 181.926 252.152 182.11 252.152C182.243 252.152 182.368 252.176 182.486 252.224C182.603 252.272 182.706 252.34 182.794 252.428C182.882 252.513 182.951 252.613 183.002 252.728C183.052 252.84 183.078 252.96 183.078 253.088C183.078 253.155 183.071 253.227 183.058 253.304C183.044 253.379 183.022 253.464 182.99 253.56C182.96 253.653 182.92 253.761 182.87 253.884C182.819 254.004 182.756 254.144 182.682 254.304L182.35 255H181.926ZM182.07 253.628C182.174 253.628 182.267 253.605 182.35 253.56C182.432 253.512 182.496 253.449 182.542 253.372C182.59 253.292 182.614 253.203 182.614 253.104C182.614 253 182.591 252.907 182.546 252.824C182.5 252.739 182.436 252.672 182.354 252.624C182.274 252.576 182.182 252.552 182.078 252.552C181.982 252.552 181.896 252.576 181.822 252.624C181.747 252.669 181.687 252.733 181.642 252.816C181.599 252.896 181.578 252.991 181.578 253.1C181.578 253.193 181.599 253.28 181.642 253.36C181.687 253.44 181.747 253.505 181.822 253.556C181.896 253.604 181.979 253.628 182.07 253.628ZM184.625 255V252.744L184.725 252.768L183.805 253.892L183.789 253.844H185.529V254.24H183.521L183.337 253.88L184.709 252.2H185.041V255H184.625Z" fill="black"/>
<line x1="170" y1="269.5" x2="291" y2="269.5" stroke="#F1F1F1"/>
<line x1="170" y1="293.5" x2="291" y2="293.5" stroke="#F1F1F1"/>
<line x1="170" y1="317.5" x2="291" y2="317.5" stroke="#F1F1F1"/>
<line x1="170" y1="341.5" x2="291" y2="341.5" stroke="#F1F1F1"/>
<line x1="170" y1="365.5" x2="291" y2="365.5" stroke="#F1F1F1"/>
<rect x="170" y="279" width="83.3831" height="3.16645" rx="1.58322" fill="#E4E6EA"/>
<rect x="170" y="303" width="83.3831" height="3.16645" rx="1.58322" fill="#E4E6EA"/>
<rect x="170" y="327" width="83.3831" height="3.16645" rx="1.58322" fill="#E4E6EA"/>
<rect x="170" y="351" width="83.3831" height="3.16645" rx="1.58322" fill="#E4E6EA"/>
<rect x="170" y="375" width="83.3831" height="3.16645" rx="1.58322" fill="#E4E6EA"/>
<rect x="170" y="285.333" width="68.6063" height="3.16645" rx="1.58322" fill="#E4E6EA"/>
<rect x="170" y="309.333" width="68.6063" height="3.16645" rx="1.58322" fill="#E4E6EA"/>
<rect x="170" y="333.333" width="68.6063" height="3.16645" rx="1.58322" fill="#E4E6EA"/>
<rect x="170" y="357.333" width="68.6063" height="3.16645" rx="1.58322" fill="#E4E6EA"/>
<rect x="170" y="381.333" width="68.6063" height="3.16645" rx="1.58322" fill="#E4E6EA"/>
<defs>
<clipPath id="clip0_598_2455">
<rect width="126.658" height="6.35908" fill="white" transform="translate(167.672 155.333)"/>
</clipPath>
</defs>
</svg>
