<svg width="480" height="540" viewBox="0 0 480 540" fill="none" xmlns="http://www.w3.org/2000/svg">
<path d="M85 76H396C405.389 76 413 83.6112 413 93V447C413 456.389 405.389 464 396 464H85C75.6111 464 68 456.389 68 447V93C68 83.6112 75.6111 76 85 76Z" fill="#F1F5F7"/>
<path d="M89.678 121.21C88.768 121.21 87.935 121.098 87.179 120.874C86.437 120.65 85.772 120.321 85.184 119.887C84.61 119.453 84.092 118.928 83.63 118.312L85.604 116.065C86.29 117.017 86.969 117.668 87.641 118.018C88.327 118.354 89.069 118.522 89.867 118.522C90.301 118.522 90.686 118.459 91.022 118.333C91.372 118.207 91.645 118.039 91.841 117.829C92.037 117.605 92.135 117.339 92.135 117.031C92.135 116.807 92.086 116.604 91.988 116.422C91.89 116.226 91.75 116.058 91.568 115.918C91.386 115.764 91.169 115.631 90.917 115.519C90.665 115.393 90.385 115.288 90.077 115.204C89.769 115.106 89.433 115.029 89.069 114.973C88.285 114.791 87.599 114.574 87.011 114.322C86.423 114.056 85.933 113.734 85.541 113.356C85.149 112.964 84.855 112.523 84.659 112.033C84.477 111.543 84.386 110.99 84.386 110.374C84.386 109.744 84.526 109.163 84.806 108.631C85.086 108.085 85.471 107.616 85.961 107.224C86.465 106.832 87.039 106.531 87.683 106.321C88.341 106.111 89.034 106.006 89.762 106.006C90.658 106.006 91.442 106.104 92.114 106.3C92.786 106.496 93.367 106.79 93.857 107.182C94.361 107.56 94.781 108.022 95.117 108.568L93.122 110.5C92.828 110.108 92.506 109.779 92.156 109.513C91.82 109.247 91.449 109.051 91.043 108.925C90.651 108.785 90.245 108.715 89.825 108.715C89.363 108.715 88.964 108.778 88.628 108.904C88.292 109.016 88.026 109.191 87.83 109.429C87.648 109.653 87.557 109.919 87.557 110.227C87.557 110.479 87.62 110.703 87.746 110.899C87.872 111.095 88.054 111.27 88.292 111.424C88.53 111.564 88.817 111.69 89.153 111.802C89.489 111.914 89.86 112.012 90.266 112.096C91.036 112.25 91.729 112.453 92.345 112.705C92.961 112.957 93.486 113.265 93.92 113.629C94.368 113.979 94.711 114.399 94.949 114.889C95.187 115.365 95.306 115.904 95.306 116.506C95.306 117.5 95.068 118.347 94.592 119.047C94.116 119.747 93.458 120.286 92.618 120.664C91.778 121.028 90.798 121.21 89.678 121.21ZM100.532 116.653L99.86 113.797L107.294 106.3H111.116L100.532 116.653ZM98.159 121V106.3H101.309V121H98.159ZM107.693 121L102.191 113.713L104.354 111.823L111.431 121H107.693ZM119.383 121.126C118.193 121.126 117.129 120.881 116.191 120.391C115.267 119.887 114.539 119.201 114.007 118.333C113.475 117.451 113.209 116.457 113.209 115.351V106.279H116.38V115.162C116.38 115.75 116.513 116.282 116.779 116.758C117.045 117.22 117.402 117.591 117.85 117.871C118.312 118.151 118.823 118.291 119.383 118.291C119.957 118.291 120.475 118.151 120.937 117.871C121.413 117.591 121.784 117.22 122.05 116.758C122.33 116.282 122.47 115.75 122.47 115.162V106.279H125.536V115.351C125.536 116.457 125.27 117.451 124.738 118.333C124.22 119.201 123.492 119.887 122.554 120.391C121.616 120.881 120.559 121.126 119.383 121.126ZM135.668 121V106.3H138.545L143.9 115.015L142.01 114.994L147.428 106.3H150.179V121H147.092V115.96C147.092 114.7 147.12 113.566 147.176 112.558C147.246 111.55 147.358 110.549 147.512 109.555L147.89 110.542L143.585 117.22H142.199L137.978 110.584L138.335 109.555C138.489 110.493 138.594 111.459 138.65 112.453C138.72 113.433 138.755 114.602 138.755 115.96V121H135.668ZM157.74 121.21C156.816 121.21 155.983 120.958 155.241 120.454C154.499 119.95 153.911 119.264 153.477 118.396C153.043 117.528 152.826 116.534 152.826 115.414C152.826 114.294 153.043 113.3 153.477 112.432C153.925 111.564 154.527 110.885 155.283 110.395C156.039 109.905 156.9 109.66 157.866 109.66C158.412 109.66 158.909 109.744 159.357 109.912C159.819 110.066 160.218 110.283 160.554 110.563C160.904 110.843 161.198 111.165 161.436 111.529C161.674 111.893 161.842 112.285 161.94 112.705L161.31 112.6V109.891H164.271V121H161.268V118.333L161.94 118.27C161.828 118.662 161.646 119.033 161.394 119.383C161.142 119.733 160.827 120.048 160.449 120.328C160.085 120.594 159.672 120.811 159.21 120.979C158.748 121.133 158.258 121.21 157.74 121.21ZM158.559 118.627C159.119 118.627 159.609 118.494 160.029 118.228C160.449 117.962 160.771 117.591 160.995 117.115C161.233 116.625 161.352 116.058 161.352 115.414C161.352 114.784 161.233 114.231 160.995 113.755C160.771 113.279 160.449 112.908 160.029 112.642C159.609 112.362 159.119 112.222 158.559 112.222C158.013 112.222 157.53 112.362 157.11 112.642C156.704 112.908 156.382 113.279 156.144 113.755C155.906 114.231 155.787 114.784 155.787 115.414C155.787 116.058 155.906 116.625 156.144 117.115C156.382 117.591 156.704 117.962 157.11 118.228C157.53 118.494 158.013 118.627 158.559 118.627ZM167.261 121V109.891H170.117L170.201 112.159L169.613 112.411C169.767 111.907 170.04 111.452 170.432 111.046C170.838 110.626 171.321 110.29 171.881 110.038C172.441 109.786 173.029 109.66 173.645 109.66C174.485 109.66 175.185 109.828 175.745 110.164C176.319 110.5 176.746 111.011 177.026 111.697C177.32 112.369 177.467 113.202 177.467 114.196V121H174.485V114.427C174.485 113.923 174.415 113.503 174.275 113.167C174.135 112.831 173.918 112.586 173.624 112.432C173.344 112.278 172.994 112.208 172.574 112.222C172.238 112.222 171.923 112.278 171.629 112.39C171.349 112.488 171.104 112.635 170.894 112.831C170.698 113.027 170.537 113.251 170.411 113.503C170.299 113.755 170.243 114.028 170.243 114.322V121H168.773C168.451 121 168.164 121 167.912 121C167.66 121 167.443 121 167.261 121ZM184.482 121.21C183.558 121.21 182.725 120.958 181.983 120.454C181.241 119.95 180.653 119.264 180.219 118.396C179.785 117.528 179.568 116.534 179.568 115.414C179.568 114.294 179.785 113.3 180.219 112.432C180.667 111.564 181.269 110.885 182.025 110.395C182.781 109.905 183.642 109.66 184.608 109.66C185.154 109.66 185.651 109.744 186.099 109.912C186.561 110.066 186.96 110.283 187.296 110.563C187.646 110.843 187.94 111.165 188.178 111.529C188.416 111.893 188.584 112.285 188.682 112.705L188.052 112.6V109.891H191.013V121H188.01V118.333L188.682 118.27C188.57 118.662 188.388 119.033 188.136 119.383C187.884 119.733 187.569 120.048 187.191 120.328C186.827 120.594 186.414 120.811 185.952 120.979C185.49 121.133 185 121.21 184.482 121.21ZM185.301 118.627C185.861 118.627 186.351 118.494 186.771 118.228C187.191 117.962 187.513 117.591 187.737 117.115C187.975 116.625 188.094 116.058 188.094 115.414C188.094 114.784 187.975 114.231 187.737 113.755C187.513 113.279 187.191 112.908 186.771 112.642C186.351 112.362 185.861 112.222 185.301 112.222C184.755 112.222 184.272 112.362 183.852 112.642C183.446 112.908 183.124 113.279 182.886 113.755C182.648 114.231 182.529 114.784 182.529 115.414C182.529 116.058 182.648 116.625 182.886 117.115C183.124 117.591 183.446 117.962 183.852 118.228C184.272 118.494 184.755 118.627 185.301 118.627ZM199.064 125.83C198.182 125.83 197.314 125.697 196.46 125.431C195.606 125.179 194.906 124.843 194.36 124.423L195.431 122.302C195.711 122.498 196.033 122.673 196.397 122.827C196.761 122.981 197.139 123.1 197.531 123.184C197.937 123.268 198.35 123.31 198.77 123.31C199.498 123.31 200.093 123.198 200.555 122.974C201.031 122.75 201.388 122.414 201.626 121.966C201.864 121.518 201.983 120.958 201.983 120.286V118.354L202.487 118.459C202.403 118.921 202.165 119.348 201.773 119.74C201.395 120.118 200.919 120.426 200.345 120.664C199.785 120.888 199.197 121 198.581 121C197.559 121 196.649 120.762 195.851 120.286C195.053 119.81 194.423 119.152 193.961 118.312C193.499 117.472 193.268 116.499 193.268 115.393C193.268 114.287 193.492 113.307 193.94 112.453C194.402 111.585 195.025 110.906 195.809 110.416C196.607 109.912 197.51 109.66 198.518 109.66C198.938 109.66 199.337 109.709 199.715 109.807C200.107 109.905 200.464 110.045 200.786 110.227C201.122 110.395 201.416 110.591 201.668 110.815C201.934 111.025 202.151 111.256 202.319 111.508C202.487 111.76 202.592 112.012 202.634 112.264L202.025 112.432L202.109 109.891H204.965V120.16C204.965 121.07 204.832 121.875 204.566 122.575C204.3 123.275 203.908 123.863 203.39 124.339C202.886 124.829 202.263 125.2 201.521 125.452C200.793 125.704 199.974 125.83 199.064 125.83ZM199.148 118.606C199.736 118.606 200.247 118.473 200.681 118.207C201.129 117.941 201.472 117.57 201.71 117.094C201.948 116.618 202.067 116.058 202.067 115.414C202.067 114.784 201.948 114.231 201.71 113.755C201.472 113.265 201.129 112.887 200.681 112.621C200.247 112.355 199.736 112.222 199.148 112.222C198.574 112.222 198.07 112.362 197.636 112.642C197.202 112.908 196.859 113.286 196.607 113.776C196.369 114.252 196.25 114.798 196.25 115.414C196.25 116.044 196.369 116.604 196.607 117.094C196.859 117.57 197.202 117.941 197.636 118.207C198.07 118.473 198.574 118.606 199.148 118.606ZM213.199 121.21C211.995 121.21 210.938 120.965 210.028 120.475C209.132 119.985 208.432 119.313 207.928 118.459C207.438 117.605 207.193 116.625 207.193 115.519C207.193 114.651 207.333 113.86 207.613 113.146C207.893 112.432 208.285 111.816 208.789 111.298C209.293 110.766 209.888 110.36 210.574 110.08C211.274 109.786 212.03 109.639 212.842 109.639C213.598 109.639 214.298 109.779 214.942 110.059C215.586 110.339 216.139 110.731 216.601 111.235C217.077 111.725 217.441 112.313 217.693 112.999C217.945 113.671 218.057 114.399 218.029 115.183L218.008 116.107H209.083L208.6 114.28H215.551L215.215 114.658V114.196C215.187 113.818 215.061 113.482 214.837 113.188C214.627 112.88 214.354 112.642 214.018 112.474C213.682 112.292 213.304 112.201 212.884 112.201C212.268 112.201 211.743 112.32 211.309 112.558C210.889 112.796 210.567 113.146 210.343 113.608C210.119 114.07 210.007 114.63 210.007 115.288C210.007 115.96 210.147 116.541 210.427 117.031C210.721 117.521 211.127 117.906 211.645 118.186C212.177 118.452 212.8 118.585 213.514 118.585C214.004 118.585 214.452 118.508 214.858 118.354C215.264 118.2 215.698 117.934 216.16 117.556L217.588 119.551C217.182 119.915 216.734 120.223 216.244 120.475C215.754 120.713 215.25 120.895 214.732 121.021C214.214 121.147 213.703 121.21 213.199 121.21ZM220.211 121V109.891H223.088L223.151 112.012L222.71 112.096C222.864 111.732 223.067 111.403 223.319 111.109C223.585 110.815 223.886 110.563 224.222 110.353C224.558 110.143 224.915 109.982 225.293 109.87C225.671 109.744 226.049 109.681 226.427 109.681C227.001 109.681 227.519 109.772 227.981 109.954C228.443 110.136 228.835 110.423 229.157 110.815C229.479 111.193 229.731 111.697 229.913 112.327L229.451 112.285L229.598 111.949C229.78 111.613 230.011 111.305 230.291 111.025C230.571 110.745 230.886 110.507 231.236 110.311C231.586 110.115 231.95 109.961 232.328 109.849C232.706 109.737 233.077 109.681 233.441 109.681C234.309 109.681 235.03 109.856 235.604 110.206C236.178 110.542 236.605 111.053 236.885 111.739C237.179 112.425 237.326 113.265 237.326 114.259V121H234.344V114.469C234.344 113.965 234.274 113.552 234.134 113.23C233.994 112.908 233.791 112.67 233.525 112.516C233.259 112.348 232.916 112.264 232.496 112.264C232.174 112.264 231.873 112.32 231.593 112.432C231.327 112.53 231.089 112.677 230.879 112.873C230.683 113.055 230.529 113.279 230.417 113.545C230.305 113.797 230.249 114.07 230.249 114.364V121H227.246V114.448C227.246 113.986 227.176 113.594 227.036 113.272C226.896 112.936 226.693 112.684 226.427 112.516C226.161 112.348 225.832 112.264 225.44 112.264C225.118 112.264 224.817 112.32 224.537 112.432C224.271 112.53 224.04 112.677 223.844 112.873C223.648 113.055 223.494 113.272 223.382 113.524C223.27 113.776 223.214 114.049 223.214 114.343V121H220.211ZM245.437 121.21C244.233 121.21 243.176 120.965 242.266 120.475C241.37 119.985 240.67 119.313 240.166 118.459C239.676 117.605 239.431 116.625 239.431 115.519C239.431 114.651 239.571 113.86 239.851 113.146C240.131 112.432 240.523 111.816 241.027 111.298C241.531 110.766 242.126 110.36 242.812 110.08C243.512 109.786 244.268 109.639 245.08 109.639C245.836 109.639 246.536 109.779 247.18 110.059C247.824 110.339 248.377 110.731 248.839 111.235C249.315 111.725 249.679 112.313 249.931 112.999C250.183 113.671 250.295 114.399 250.267 115.183L250.246 116.107H241.321L240.838 114.28H247.789L247.453 114.658V114.196C247.425 113.818 247.299 113.482 247.075 113.188C246.865 112.88 246.592 112.642 246.256 112.474C245.92 112.292 245.542 112.201 245.122 112.201C244.506 112.201 243.981 112.32 243.547 112.558C243.127 112.796 242.805 113.146 242.581 113.608C242.357 114.07 242.245 114.63 242.245 115.288C242.245 115.96 242.385 116.541 242.665 117.031C242.959 117.521 243.365 117.906 243.883 118.186C244.415 118.452 245.038 118.585 245.752 118.585C246.242 118.585 246.69 118.508 247.096 118.354C247.502 118.2 247.936 117.934 248.398 117.556L249.826 119.551C249.42 119.915 248.972 120.223 248.482 120.475C247.992 120.713 247.488 120.895 246.97 121.021C246.452 121.147 245.941 121.21 245.437 121.21ZM252.47 121V109.891H255.326L255.41 112.159L254.822 112.411C254.976 111.907 255.249 111.452 255.641 111.046C256.047 110.626 256.53 110.29 257.09 110.038C257.65 109.786 258.238 109.66 258.854 109.66C259.694 109.66 260.394 109.828 260.954 110.164C261.528 110.5 261.955 111.011 262.235 111.697C262.529 112.369 262.676 113.202 262.676 114.196V121H259.694V114.427C259.694 113.923 259.624 113.503 259.484 113.167C259.344 112.831 259.127 112.586 258.833 112.432C258.553 112.278 258.203 112.208 257.783 112.222C257.447 112.222 257.132 112.278 256.838 112.39C256.558 112.488 256.313 112.635 256.103 112.831C255.907 113.027 255.746 113.251 255.62 113.503C255.508 113.755 255.452 114.028 255.452 114.322V121H253.982C253.66 121 253.373 121 253.121 121C252.869 121 252.652 121 252.47 121ZM266.605 121V107.077H269.587V121H266.605ZM264.526 112.558V109.891H271.876V112.558H264.526Z" fill="black"/>
<rect x="83" y="141" width="288" height="7" rx="3.5" fill="#E4E6EA"/>
<rect x="83" y="153" width="225" height="7" rx="3.5" fill="#E4E6EA"/>
<rect x="83" y="179" width="315" height="195" rx="9" fill="white"/>
<path d="M97.03 222.1C96.4967 222.1 96.0367 221.953 95.65 221.66C95.27 221.367 94.9767 220.953 94.77 220.42C94.5633 219.88 94.46 219.24 94.46 218.5C94.46 217.76 94.5633 217.123 94.77 216.59C94.9767 216.05 95.27 215.633 95.65 215.34C96.0367 215.047 96.4967 214.9 97.03 214.9C97.5633 214.9 98.0233 215.047 98.41 215.34C98.7967 215.633 99.0933 216.05 99.3 216.59C99.5067 217.123 99.61 217.76 99.61 218.5C99.61 219.24 99.5067 219.88 99.3 220.42C99.0933 220.953 98.7967 221.367 98.41 221.66C98.0233 221.953 97.5633 222.1 97.03 222.1ZM97.03 221.12C97.5167 221.12 97.8933 220.893 98.16 220.44C98.4267 219.98 98.56 219.333 98.56 218.5C98.56 217.667 98.4267 217.023 98.16 216.57C97.8933 216.11 97.5167 215.88 97.03 215.88C96.5433 215.88 96.1667 216.11 95.9 216.57C95.6333 217.023 95.5 217.667 95.5 218.5C95.5 219.333 95.6333 219.98 95.9 220.44C96.1667 220.893 96.5433 221.12 97.03 221.12ZM103.594 222V216.36L103.844 216.42L101.544 219.23L101.504 219.11H105.854V220.1H100.834L100.374 219.2L103.804 215H104.634V222H103.594Z" fill="black"/>
<path d="M94.93 245L94.6 244.18L96.74 241.77C96.8533 241.65 96.97 241.513 97.09 241.36C97.2167 241.2 97.3367 241.037 97.45 240.87C97.5633 240.703 97.6533 240.54 97.72 240.38C97.7933 240.213 97.83 240.057 97.83 239.91C97.83 239.697 97.7867 239.517 97.7 239.37C97.62 239.217 97.5 239.1 97.34 239.02C97.1867 238.94 97 238.9 96.78 238.9C96.5867 238.9 96.3967 238.957 96.21 239.07C96.0233 239.183 95.8533 239.343 95.7 239.55C95.5467 239.757 95.4267 239.997 95.34 240.27L94.51 239.75C94.6233 239.363 94.7933 239.033 95.02 238.76C95.2533 238.48 95.53 238.267 95.85 238.12C96.1767 237.973 96.53 237.9 96.91 237.9C97.3033 237.9 97.6533 237.983 97.96 238.15C98.2667 238.31 98.5067 238.537 98.68 238.83C98.8533 239.117 98.94 239.45 98.94 239.83C98.94 239.983 98.9233 240.14 98.89 240.3C98.8567 240.46 98.8033 240.627 98.73 240.8C98.6567 240.967 98.5633 241.143 98.45 241.33C98.3367 241.51 98.2 241.7 98.04 241.9C97.8867 242.1 97.71 242.31 97.51 242.53L95.92 244.26L95.72 243.96H99.16V245H94.93ZM101.989 245.1C101.495 245.1 101.065 244.987 100.699 244.76C100.339 244.533 99.9985 244.153 99.6785 243.62L100.519 243.09C100.685 243.337 100.849 243.54 101.009 243.7C101.175 243.853 101.345 243.967 101.519 244.04C101.692 244.113 101.875 244.15 102.069 244.15C102.302 244.15 102.519 244.093 102.719 243.98C102.919 243.86 103.079 243.697 103.199 243.49C103.319 243.283 103.379 243.05 103.379 242.79C103.379 242.53 103.332 242.31 103.239 242.13C103.145 241.943 103.009 241.803 102.829 241.71C102.649 241.61 102.435 241.56 102.189 241.56C102.075 241.56 101.955 241.573 101.829 241.6C101.709 241.62 101.579 241.653 101.439 241.7C101.299 241.74 101.145 241.793 100.979 241.86L100.679 241.07L102.839 238.69L103.049 239H100.069V238H104.079L104.279 238.4L101.989 240.94L101.739 240.68C101.792 240.653 101.879 240.63 101.999 240.61C102.125 240.583 102.229 240.57 102.309 240.57C102.602 240.57 102.875 240.627 103.129 240.74C103.389 240.847 103.612 241 103.799 241.2C103.992 241.393 104.142 241.623 104.249 241.89C104.362 242.15 104.419 242.43 104.419 242.73C104.419 243.183 104.309 243.59 104.089 243.95C103.875 244.303 103.585 244.583 103.219 244.79C102.852 244.997 102.442 245.1 101.989 245.1Z" fill="black"/>
<path d="M97.52 268V262.36L97.77 262.42L95.47 265.23L95.43 265.11H99.78V266.1H94.76L94.3 265.2L97.73 261H98.56V268H97.52ZM102.771 268.07C102.311 268.07 101.895 267.967 101.521 267.76C101.148 267.547 100.838 267.243 100.591 266.85L101.191 266.18C101.505 266.527 101.778 266.763 102.011 266.89C102.245 267.017 102.498 267.08 102.771 267.08C103.045 267.08 103.291 267.02 103.511 266.9C103.731 266.78 103.905 266.617 104.031 266.41C104.165 266.203 104.231 265.973 104.231 265.72C104.231 265.453 104.168 265.217 104.041 265.01C103.921 264.797 103.758 264.63 103.551 264.51C103.345 264.383 103.111 264.32 102.851 264.32C102.725 264.32 102.605 264.33 102.491 264.35C102.378 264.363 102.241 264.4 102.081 264.46C101.921 264.52 101.711 264.613 101.451 264.74L100.881 263.97L101.291 261H105.071V262H101.971L102.181 261.81L101.851 264.03L101.601 263.74C101.668 263.673 101.781 263.61 101.941 263.55C102.101 263.483 102.278 263.43 102.471 263.39C102.671 263.343 102.861 263.32 103.041 263.32C103.468 263.32 103.848 263.42 104.181 263.62C104.521 263.813 104.788 264.083 104.981 264.43C105.181 264.777 105.281 265.173 105.281 265.62C105.281 266.08 105.171 266.497 104.951 266.87C104.731 267.237 104.431 267.53 104.051 267.75C103.671 267.963 103.245 268.07 102.771 268.07Z" fill="black"/>
<path d="M94.93 291L94.6 290.18L96.74 287.77C96.8533 287.65 96.97 287.513 97.09 287.36C97.2167 287.2 97.3367 287.037 97.45 286.87C97.5633 286.703 97.6533 286.54 97.72 286.38C97.7933 286.213 97.83 286.057 97.83 285.91C97.83 285.697 97.7867 285.517 97.7 285.37C97.62 285.217 97.5 285.1 97.34 285.02C97.1867 284.94 97 284.9 96.78 284.9C96.5867 284.9 96.3967 284.957 96.21 285.07C96.0233 285.183 95.8533 285.343 95.7 285.55C95.5467 285.757 95.4267 285.997 95.34 286.27L94.51 285.75C94.6233 285.363 94.7933 285.033 95.02 284.76C95.2533 284.48 95.53 284.267 95.85 284.12C96.1767 283.973 96.53 283.9 96.91 283.9C97.3033 283.9 97.6533 283.983 97.96 284.15C98.2667 284.31 98.5067 284.537 98.68 284.83C98.8533 285.117 98.94 285.45 98.94 285.83C98.94 285.983 98.9233 286.14 98.89 286.3C98.8567 286.46 98.8033 286.627 98.73 286.8C98.6567 286.967 98.5633 287.143 98.45 287.33C98.3367 287.51 98.2 287.7 98.04 287.9C97.8867 288.1 97.71 288.31 97.51 288.53L95.92 290.26L95.72 289.96H99.16V291H94.93ZM102.049 291.07C101.589 291.07 101.172 290.967 100.799 290.76C100.425 290.547 100.115 290.243 99.8685 289.85L100.469 289.18C100.782 289.527 101.055 289.763 101.289 289.89C101.522 290.017 101.775 290.08 102.049 290.08C102.322 290.08 102.569 290.02 102.789 289.9C103.009 289.78 103.182 289.617 103.309 289.41C103.442 289.203 103.509 288.973 103.509 288.72C103.509 288.453 103.445 288.217 103.319 288.01C103.199 287.797 103.035 287.63 102.829 287.51C102.622 287.383 102.389 287.32 102.129 287.32C102.002 287.32 101.882 287.33 101.769 287.35C101.655 287.363 101.519 287.4 101.359 287.46C101.199 287.52 100.989 287.613 100.729 287.74L100.159 286.97L100.569 284H104.349V285H101.249L101.459 284.81L101.129 287.03L100.879 286.74C100.945 286.673 101.059 286.61 101.219 286.55C101.379 286.483 101.555 286.43 101.749 286.39C101.949 286.343 102.139 286.32 102.319 286.32C102.745 286.32 103.125 286.42 103.459 286.62C103.799 286.813 104.065 287.083 104.259 287.43C104.459 287.777 104.559 288.173 104.559 288.62C104.559 289.08 104.449 289.497 104.229 289.87C104.009 290.237 103.709 290.53 103.329 290.75C102.949 290.963 102.522 291.07 102.049 291.07Z" fill="black"/>
<path d="M96.28 314L96.24 313.9L98.32 309.48L98.35 310.31C98.23 310.51 98.0967 310.687 97.95 310.84C97.81 310.993 97.6533 311.127 97.48 311.24C97.3133 311.347 97.14 311.43 96.96 311.49C96.78 311.543 96.5967 311.57 96.41 311.57C96.03 311.57 95.68 311.47 95.36 311.27C95.04 311.07 94.7833 310.803 94.59 310.47C94.3967 310.137 94.3 309.773 94.3 309.38C94.3 308.907 94.4067 308.483 94.62 308.11C94.8333 307.73 95.1233 307.43 95.49 307.21C95.8633 306.99 96.28 306.88 96.74 306.88C97.0733 306.88 97.3867 306.94 97.68 307.06C97.9733 307.18 98.23 307.35 98.45 307.57C98.67 307.783 98.8433 308.033 98.97 308.32C99.0967 308.6 99.16 308.9 99.16 309.22C99.16 309.387 99.1433 309.567 99.11 309.76C99.0767 309.947 99.02 310.16 98.94 310.4C98.8667 310.633 98.7667 310.903 98.64 311.21C98.5133 311.51 98.3567 311.86 98.17 312.26L97.34 314H96.28ZM96.64 310.57C96.9 310.57 97.1333 310.513 97.34 310.4C97.5467 310.28 97.7067 310.123 97.82 309.93C97.94 309.73 98 309.507 98 309.26C98 309 97.9433 308.767 97.83 308.56C97.7167 308.347 97.5567 308.18 97.35 308.06C97.15 307.94 96.92 307.88 96.66 307.88C96.42 307.88 96.2067 307.94 96.02 308.06C95.8333 308.173 95.6833 308.333 95.57 308.54C95.4633 308.74 95.41 308.977 95.41 309.25C95.41 309.483 95.4633 309.7 95.57 309.9C95.6833 310.1 95.8333 310.263 96.02 310.39C96.2067 310.51 96.4133 310.57 96.64 310.57ZM103.028 314V308.36L103.278 308.42L100.978 311.23L100.938 311.11H105.288V312.1H100.268L99.8078 311.2L103.238 307H104.068V314H103.028Z" fill="black"/>
<path d="M97.52 337V331.36L97.77 331.42L95.47 334.23L95.43 334.11H99.78V335.1H94.76L94.3 334.2L97.73 330H98.56V337H97.52ZM103.091 337.03C102.658 337.03 102.261 336.94 101.901 336.76C101.548 336.573 101.265 336.327 101.051 336.02C100.838 335.713 100.731 335.373 100.731 335C100.731 334.793 100.758 334.6 100.811 334.42C100.871 334.233 100.958 334.063 101.071 333.91C101.191 333.757 101.335 333.617 101.501 333.49C101.668 333.363 101.861 333.25 102.081 333.15L102.021 333.36C101.848 333.293 101.691 333.213 101.551 333.12C101.418 333.02 101.301 332.907 101.201 332.78C101.101 332.653 101.025 332.517 100.971 332.37C100.925 332.223 100.901 332.07 100.901 331.91C100.901 331.557 100.998 331.237 101.191 330.95C101.391 330.663 101.655 330.433 101.981 330.26C102.315 330.087 102.685 330 103.091 330C103.498 330 103.865 330.087 104.191 330.26C104.525 330.433 104.788 330.663 104.981 330.95C105.181 331.237 105.281 331.557 105.281 331.91C105.281 332.07 105.255 332.223 105.201 332.37C105.155 332.517 105.085 332.65 104.991 332.77C104.898 332.89 104.778 333 104.631 333.1C104.491 333.2 104.331 333.287 104.151 333.36L104.121 333.19C104.321 333.27 104.501 333.373 104.661 333.5C104.828 333.627 104.971 333.77 105.091 333.93C105.211 334.09 105.301 334.26 105.361 334.44C105.428 334.62 105.461 334.807 105.461 335C105.461 335.38 105.355 335.723 105.141 336.03C104.928 336.337 104.641 336.58 104.281 336.76C103.928 336.94 103.531 337.03 103.091 337.03ZM103.091 336.03C103.338 336.03 103.558 335.983 103.751 335.89C103.951 335.797 104.108 335.67 104.221 335.51C104.335 335.35 104.391 335.167 104.391 334.96C104.391 334.74 104.335 334.547 104.221 334.38C104.108 334.207 103.951 334.07 103.751 333.97C103.558 333.87 103.338 333.82 103.091 333.82C102.845 333.82 102.625 333.87 102.431 333.97C102.238 334.07 102.085 334.207 101.971 334.38C101.858 334.547 101.801 334.74 101.801 334.96C101.801 335.16 101.858 335.34 101.971 335.5C102.085 335.66 102.238 335.79 102.431 335.89C102.625 335.983 102.845 336.03 103.091 336.03ZM103.091 332.86C103.305 332.86 103.495 332.82 103.661 332.74C103.835 332.66 103.968 332.553 104.061 332.42C104.161 332.28 104.211 332.12 104.211 331.94C104.211 331.76 104.161 331.6 104.061 331.46C103.968 331.32 103.835 331.21 103.661 331.13C103.495 331.043 103.305 331 103.091 331C102.878 331 102.685 331.043 102.511 331.13C102.345 331.21 102.211 331.32 102.111 331.46C102.018 331.6 101.971 331.76 101.971 331.94C101.971 332.12 102.018 332.28 102.111 332.42C102.211 332.553 102.345 332.66 102.511 332.74C102.685 332.82 102.878 332.86 103.091 332.86Z" fill="black"/>
<path d="M96.51 360.1C96.0167 360.1 95.5867 359.987 95.22 359.76C94.86 359.533 94.52 359.153 94.2 358.62L95.04 358.09C95.2067 358.337 95.37 358.54 95.53 358.7C95.6967 358.853 95.8667 358.967 96.04 359.04C96.2133 359.113 96.3967 359.15 96.59 359.15C96.8233 359.15 97.04 359.093 97.24 358.98C97.44 358.86 97.6 358.697 97.72 358.49C97.84 358.283 97.9 358.05 97.9 357.79C97.9 357.53 97.8533 357.31 97.76 357.13C97.6667 356.943 97.53 356.803 97.35 356.71C97.17 356.61 96.9567 356.56 96.71 356.56C96.5967 356.56 96.4767 356.573 96.35 356.6C96.23 356.62 96.1 356.653 95.96 356.7C95.82 356.74 95.6667 356.793 95.5 356.86L95.2 356.07L97.36 353.69L97.57 354H94.59V353H98.6L98.8 353.4L96.51 355.94L96.26 355.68C96.3133 355.653 96.4 355.63 96.52 355.61C96.6467 355.583 96.75 355.57 96.83 355.57C97.1233 355.57 97.3967 355.627 97.65 355.74C97.91 355.847 98.1333 356 98.32 356.2C98.5133 356.393 98.6633 356.623 98.77 356.89C98.8833 357.15 98.94 357.43 98.94 357.73C98.94 358.183 98.83 358.59 98.61 358.95C98.3967 359.303 98.1067 359.583 97.74 359.79C97.3733 359.997 96.9633 360.1 96.51 360.1ZM101.863 360.07C101.403 360.07 100.986 359.967 100.613 359.76C100.24 359.547 99.9296 359.243 99.683 358.85L100.283 358.18C100.596 358.527 100.87 358.763 101.103 358.89C101.336 359.017 101.59 359.08 101.863 359.08C102.136 359.08 102.383 359.02 102.603 358.9C102.823 358.78 102.996 358.617 103.123 358.41C103.256 358.203 103.323 357.973 103.323 357.72C103.323 357.453 103.26 357.217 103.133 357.01C103.013 356.797 102.85 356.63 102.643 356.51C102.436 356.383 102.203 356.32 101.943 356.32C101.816 356.32 101.696 356.33 101.583 356.35C101.47 356.363 101.333 356.4 101.173 356.46C101.013 356.52 100.803 356.613 100.543 356.74L99.973 355.97L100.383 353H104.163V354H101.063L101.273 353.81L100.943 356.03L100.693 355.74C100.76 355.673 100.873 355.61 101.033 355.55C101.193 355.483 101.37 355.43 101.563 355.39C101.763 355.343 101.953 355.32 102.133 355.32C102.56 355.32 102.94 355.42 103.273 355.62C103.613 355.813 103.88 356.083 104.073 356.43C104.273 356.777 104.373 357.173 104.373 357.62C104.373 358.08 104.263 358.497 104.043 358.87C103.823 359.237 103.523 359.53 103.143 359.75C102.763 359.963 102.336 360.07 101.863 360.07Z" fill="black"/>
<path d="M94.864 199V197.8H96.22V191.8H94.864V190.6H98.872V191.8H97.516V197.8H98.872V199H94.864ZM100.906 199V190.6H104.194C104.794 190.6 105.334 190.7 105.814 190.9C106.302 191.1 106.718 191.388 107.062 191.764C107.406 192.14 107.67 192.584 107.854 193.096C108.038 193.608 108.13 194.176 108.13 194.8C108.13 195.424 108.038 195.996 107.854 196.516C107.67 197.028 107.406 197.472 107.062 197.848C106.726 198.216 106.314 198.5 105.826 198.7C105.338 198.9 104.794 199 104.194 199H100.906ZM102.202 197.884L102.166 197.752H104.134C104.558 197.752 104.934 197.684 105.262 197.548C105.598 197.412 105.878 197.22 106.102 196.972C106.334 196.716 106.51 196.404 106.63 196.036C106.75 195.668 106.81 195.256 106.81 194.8C106.81 194.344 106.75 193.936 106.63 193.576C106.51 193.208 106.334 192.896 106.102 192.64C105.87 192.384 105.59 192.188 105.262 192.052C104.934 191.916 104.558 191.848 104.134 191.848H102.13L102.202 191.74V197.884Z" fill="#7A7A7A"/>
<path d="M129.176 199V190.6H130.34L135.476 197.476L135.284 197.584C135.252 197.384 135.224 197.168 135.2 196.936C135.176 196.696 135.152 196.444 135.128 196.18C135.112 195.908 135.096 195.624 135.08 195.328C135.072 195.024 135.064 194.708 135.056 194.38C135.048 194.052 135.044 193.712 135.044 193.36V190.6H136.34V199H135.152L130.1 192.376L130.232 192.208C130.272 192.696 130.304 193.112 130.328 193.456C130.36 193.792 130.384 194.08 130.4 194.32C130.424 194.552 130.44 194.744 130.448 194.896C130.456 195.04 130.46 195.16 130.46 195.256C130.468 195.352 130.472 195.436 130.472 195.508V199H129.176ZM140.804 199.12C140.284 199.12 139.808 198.976 139.376 198.688C138.952 198.4 138.612 198.008 138.356 197.512C138.1 197.016 137.972 196.456 137.972 195.832C137.972 195.2 138.1 194.64 138.356 194.152C138.62 193.656 138.972 193.268 139.412 192.988C139.86 192.708 140.36 192.568 140.912 192.568C141.24 192.568 141.54 192.616 141.812 192.712C142.084 192.808 142.32 192.944 142.52 193.12C142.728 193.288 142.896 193.484 143.024 193.708C143.16 193.932 143.244 194.172 143.276 194.428L143 194.332V192.7H144.248V199H143V197.5L143.288 197.416C143.24 197.632 143.14 197.844 142.988 198.052C142.844 198.252 142.656 198.432 142.424 198.592C142.2 198.752 141.948 198.88 141.668 198.976C141.396 199.072 141.108 199.12 140.804 199.12ZM141.128 197.98C141.504 197.98 141.836 197.888 142.124 197.704C142.412 197.52 142.636 197.268 142.796 196.948C142.964 196.62 143.048 196.248 143.048 195.832C143.048 195.424 142.964 195.06 142.796 194.74C142.636 194.42 142.412 194.168 142.124 193.984C141.836 193.8 141.504 193.708 141.128 193.708C140.76 193.708 140.432 193.8 140.144 193.984C139.864 194.168 139.64 194.42 139.472 194.74C139.312 195.06 139.232 195.424 139.232 195.832C139.232 196.248 139.312 196.62 139.472 196.948C139.64 197.268 139.864 197.52 140.144 197.704C140.432 197.888 140.76 197.98 141.128 197.98ZM145.949 199V192.7H147.197V194.044L146.969 194.188C147.033 193.98 147.133 193.78 147.269 193.588C147.413 193.396 147.585 193.228 147.785 193.084C147.993 192.932 148.213 192.812 148.445 192.724C148.685 192.636 148.929 192.592 149.177 192.592C149.537 192.592 149.853 192.652 150.125 192.772C150.397 192.892 150.621 193.072 150.797 193.312C150.973 193.552 151.101 193.852 151.181 194.212L150.989 194.164L151.073 193.96C151.161 193.776 151.281 193.604 151.433 193.444C151.593 193.276 151.773 193.128 151.973 193C152.173 192.872 152.385 192.772 152.609 192.7C152.833 192.628 153.053 192.592 153.269 192.592C153.741 192.592 154.129 192.688 154.433 192.88C154.745 193.072 154.977 193.364 155.129 193.756C155.289 194.148 155.369 194.636 155.369 195.22V199H154.121V195.292C154.121 194.932 154.073 194.64 153.977 194.416C153.889 194.184 153.753 194.012 153.569 193.9C153.385 193.788 153.149 193.732 152.861 193.732C152.637 193.732 152.425 193.772 152.225 193.852C152.033 193.924 151.865 194.028 151.721 194.164C151.577 194.3 151.465 194.46 151.385 194.644C151.305 194.82 151.265 195.016 151.265 195.232V199H150.017V195.268C150.017 194.94 149.969 194.664 149.873 194.44C149.777 194.208 149.637 194.032 149.453 193.912C149.269 193.792 149.045 193.732 148.781 193.732C148.557 193.732 148.349 193.772 148.157 193.852C147.965 193.924 147.797 194.028 147.653 194.164C147.509 194.292 147.397 194.448 147.317 194.632C147.237 194.808 147.197 195 147.197 195.208V199H145.949ZM159.964 199.12C159.316 199.12 158.74 198.984 158.236 198.712C157.74 198.432 157.348 198.052 157.06 197.572C156.78 197.092 156.64 196.54 156.64 195.916C156.64 195.42 156.72 194.968 156.88 194.56C157.04 194.152 157.26 193.8 157.54 193.504C157.828 193.2 158.168 192.968 158.56 192.808C158.96 192.64 159.392 192.556 159.856 192.556C160.264 192.556 160.644 192.636 160.996 192.796C161.348 192.948 161.652 193.16 161.908 193.432C162.172 193.704 162.372 194.028 162.508 194.404C162.652 194.772 162.72 195.176 162.712 195.616L162.7 196.144H157.552L157.276 195.16H161.632L161.452 195.364V195.076C161.428 194.812 161.34 194.576 161.188 194.368C161.036 194.16 160.844 193.996 160.612 193.876C160.38 193.756 160.128 193.696 159.856 193.696C159.424 193.696 159.06 193.78 158.764 193.948C158.468 194.108 158.244 194.348 158.092 194.668C157.94 194.98 157.864 195.368 157.864 195.832C157.864 196.272 157.956 196.656 158.14 196.984C158.324 197.304 158.584 197.552 158.92 197.728C159.256 197.904 159.644 197.992 160.084 197.992C160.396 197.992 160.684 197.94 160.948 197.836C161.22 197.732 161.512 197.544 161.824 197.272L162.448 198.148C162.256 198.34 162.02 198.508 161.74 198.652C161.468 198.796 161.176 198.912 160.864 199C160.56 199.08 160.26 199.12 159.964 199.12Z" fill="#7A7A7A"/>
<path d="M201.584 199.12C201 199.12 200.464 199.016 199.976 198.808C199.488 198.6 199.064 198.304 198.704 197.92C198.344 197.528 198.064 197.068 197.864 196.54C197.672 196.012 197.576 195.432 197.576 194.8C197.576 194.2 197.68 193.644 197.888 193.132C198.104 192.612 198.4 192.156 198.776 191.764C199.152 191.372 199.588 191.068 200.084 190.852C200.58 190.636 201.116 190.528 201.692 190.528C202.1 190.528 202.496 190.592 202.88 190.72C203.272 190.84 203.624 191.012 203.936 191.236C204.256 191.452 204.516 191.7 204.716 191.98L203.852 192.88C203.62 192.648 203.384 192.456 203.144 192.304C202.912 192.144 202.672 192.024 202.424 191.944C202.184 191.864 201.94 191.824 201.692 191.824C201.3 191.824 200.932 191.9 200.588 192.052C200.252 192.196 199.956 192.4 199.7 192.664C199.452 192.928 199.256 193.244 199.112 193.612C198.968 193.972 198.896 194.368 198.896 194.8C198.896 195.256 198.964 195.672 199.1 196.048C199.244 196.416 199.444 196.732 199.7 196.996C199.956 197.26 200.26 197.464 200.612 197.608C200.972 197.744 201.368 197.812 201.8 197.812C202.064 197.812 202.324 197.776 202.58 197.704C202.836 197.632 203.076 197.528 203.3 197.392C203.524 197.256 203.728 197.096 203.912 196.912L204.56 197.968C204.376 198.184 204.124 198.38 203.804 198.556C203.492 198.732 203.14 198.872 202.748 198.976C202.364 199.072 201.976 199.12 201.584 199.12ZM208.433 199.12C207.913 199.12 207.437 198.976 207.005 198.688C206.581 198.4 206.241 198.008 205.985 197.512C205.729 197.016 205.601 196.456 205.601 195.832C205.601 195.2 205.729 194.64 205.985 194.152C206.249 193.656 206.601 193.268 207.041 192.988C207.489 192.708 207.989 192.568 208.541 192.568C208.869 192.568 209.169 192.616 209.441 192.712C209.713 192.808 209.949 192.944 210.149 193.12C210.357 193.288 210.525 193.484 210.653 193.708C210.789 193.932 210.873 194.172 210.905 194.428L210.629 194.332V192.7H211.877V199H210.629V197.5L210.917 197.416C210.869 197.632 210.769 197.844 210.617 198.052C210.473 198.252 210.285 198.432 210.053 198.592C209.829 198.752 209.577 198.88 209.297 198.976C209.025 199.072 208.737 199.12 208.433 199.12ZM208.757 197.98C209.133 197.98 209.465 197.888 209.753 197.704C210.041 197.52 210.265 197.268 210.425 196.948C210.593 196.62 210.677 196.248 210.677 195.832C210.677 195.424 210.593 195.06 210.425 194.74C210.265 194.42 210.041 194.168 209.753 193.984C209.465 193.8 209.133 193.708 208.757 193.708C208.389 193.708 208.061 193.8 207.773 193.984C207.493 194.168 207.269 194.42 207.101 194.74C206.941 195.06 206.861 195.424 206.861 195.832C206.861 196.248 206.941 196.62 207.101 196.948C207.269 197.268 207.493 197.52 207.773 197.704C208.061 197.888 208.389 197.98 208.757 197.98ZM214.382 199V191.092H215.618V199H214.382ZM213.074 193.9V192.7H217.082V193.9H213.074ZM221.089 199.12C220.441 199.12 219.865 198.984 219.361 198.712C218.865 198.432 218.473 198.052 218.185 197.572C217.905 197.092 217.765 196.54 217.765 195.916C217.765 195.42 217.845 194.968 218.005 194.56C218.165 194.152 218.385 193.8 218.665 193.504C218.953 193.2 219.293 192.968 219.685 192.808C220.085 192.64 220.517 192.556 220.981 192.556C221.389 192.556 221.769 192.636 222.121 192.796C222.473 192.948 222.777 193.16 223.033 193.432C223.297 193.704 223.497 194.028 223.633 194.404C223.777 194.772 223.845 195.176 223.837 195.616L223.825 196.144H218.677L218.401 195.16H222.757L222.577 195.364V195.076C222.553 194.812 222.465 194.576 222.313 194.368C222.161 194.16 221.969 193.996 221.737 193.876C221.505 193.756 221.253 193.696 220.981 193.696C220.549 193.696 220.185 193.78 219.889 193.948C219.593 194.108 219.369 194.348 219.217 194.668C219.065 194.98 218.989 195.368 218.989 195.832C218.989 196.272 219.081 196.656 219.265 196.984C219.449 197.304 219.709 197.552 220.045 197.728C220.381 197.904 220.769 197.992 221.209 197.992C221.521 197.992 221.809 197.94 222.073 197.836C222.345 197.732 222.637 197.544 222.949 197.272L223.573 198.148C223.381 198.34 223.145 198.508 222.865 198.652C222.593 198.796 222.301 198.912 221.989 199C221.685 199.08 221.385 199.12 221.089 199.12ZM227.942 201.76C227.494 201.76 227.046 201.688 226.598 201.544C226.158 201.408 225.802 201.228 225.53 201.004L225.986 200.044C226.146 200.164 226.334 200.268 226.55 200.356C226.766 200.452 226.994 200.524 227.234 200.572C227.474 200.628 227.71 200.656 227.942 200.656C228.382 200.656 228.75 200.584 229.046 200.44C229.342 200.296 229.566 200.084 229.718 199.804C229.87 199.524 229.946 199.176 229.946 198.76V197.548L230.078 197.632C230.038 197.88 229.906 198.12 229.682 198.352C229.466 198.576 229.194 198.76 228.866 198.904C228.538 199.048 228.202 199.12 227.858 199.12C227.258 199.12 226.722 198.98 226.25 198.7C225.786 198.412 225.418 198.024 225.146 197.536C224.874 197.04 224.738 196.476 224.738 195.844C224.738 195.212 224.87 194.652 225.134 194.164C225.406 193.668 225.774 193.28 226.238 193C226.71 192.712 227.238 192.568 227.822 192.568C228.062 192.568 228.294 192.6 228.518 192.664C228.742 192.72 228.95 192.804 229.142 192.916C229.334 193.02 229.506 193.136 229.658 193.264C229.81 193.392 229.934 193.528 230.03 193.672C230.126 193.816 230.186 193.952 230.21 194.08L229.946 194.176V192.7H231.182V198.616C231.182 199.12 231.106 199.564 230.954 199.948C230.81 200.34 230.598 200.668 230.318 200.932C230.038 201.204 229.698 201.408 229.298 201.544C228.898 201.688 228.446 201.76 227.942 201.76ZM227.99 197.98C228.382 197.98 228.73 197.888 229.034 197.704C229.338 197.52 229.574 197.268 229.742 196.948C229.91 196.628 229.994 196.26 229.994 195.844C229.994 195.428 229.906 195.06 229.73 194.74C229.562 194.412 229.326 194.156 229.022 193.972C228.726 193.788 228.382 193.696 227.99 193.696C227.606 193.696 227.262 193.792 226.958 193.984C226.662 194.168 226.426 194.424 226.25 194.752C226.082 195.072 225.998 195.436 225.998 195.844C225.998 196.252 226.082 196.62 226.25 196.948C226.426 197.268 226.662 197.52 226.958 197.704C227.262 197.888 227.606 197.98 227.99 197.98ZM235.747 199.12C235.131 199.12 234.579 198.98 234.091 198.7C233.611 198.412 233.231 198.024 232.951 197.536C232.671 197.04 232.531 196.476 232.531 195.844C232.531 195.212 232.671 194.652 232.951 194.164C233.231 193.668 233.611 193.28 234.091 193C234.579 192.712 235.131 192.568 235.747 192.568C236.355 192.568 236.899 192.712 237.379 193C237.867 193.28 238.251 193.668 238.531 194.164C238.811 194.652 238.951 195.212 238.951 195.844C238.951 196.476 238.811 197.04 238.531 197.536C238.251 198.024 237.867 198.412 237.379 198.7C236.899 198.98 236.355 199.12 235.747 199.12ZM235.747 197.992C236.123 197.992 236.459 197.9 236.755 197.716C237.051 197.524 237.283 197.268 237.451 196.948C237.619 196.62 237.699 196.252 237.691 195.844C237.699 195.428 237.619 195.06 237.451 194.74C237.283 194.412 237.051 194.156 236.755 193.972C236.459 193.788 236.123 193.696 235.747 193.696C235.371 193.696 235.031 193.792 234.727 193.984C234.431 194.168 234.199 194.424 234.031 194.752C233.863 195.072 233.783 195.436 233.791 195.844C233.783 196.252 233.863 196.62 234.031 196.948C234.199 197.268 234.431 197.524 234.727 197.716C235.031 197.9 235.371 197.992 235.747 197.992ZM240.298 199V192.7H241.546V194.68L241.426 194.2C241.514 193.896 241.662 193.62 241.87 193.372C242.086 193.124 242.33 192.928 242.602 192.784C242.882 192.64 243.17 192.568 243.466 192.568C243.602 192.568 243.73 192.58 243.85 192.604C243.978 192.628 244.078 192.656 244.15 192.688L243.826 194.032C243.73 193.992 243.622 193.96 243.502 193.936C243.39 193.904 243.278 193.888 243.166 193.888C242.95 193.888 242.742 193.932 242.542 194.02C242.35 194.1 242.178 194.216 242.026 194.368C241.882 194.512 241.766 194.684 241.678 194.884C241.59 195.076 241.546 195.288 241.546 195.52V199H240.298ZM246.193 201.76L247.465 198.82L247.477 199.804L244.333 192.7H245.773L247.741 197.332C247.781 197.412 247.829 197.536 247.885 197.704C247.941 197.864 247.989 198.024 248.029 198.184L247.717 198.256C247.781 198.088 247.841 197.92 247.897 197.752C247.961 197.584 248.021 197.416 248.077 197.248L249.721 192.7H251.185L248.593 199L247.525 201.76H246.193Z" fill="#7A7A7A"/>
<path d="M289.584 199.12C289 199.12 288.464 199.016 287.976 198.808C287.488 198.6 287.064 198.304 286.704 197.92C286.344 197.528 286.064 197.068 285.864 196.54C285.672 196.012 285.576 195.432 285.576 194.8C285.576 194.2 285.68 193.644 285.888 193.132C286.104 192.612 286.4 192.156 286.776 191.764C287.152 191.372 287.588 191.068 288.084 190.852C288.58 190.636 289.116 190.528 289.692 190.528C290.1 190.528 290.496 190.592 290.88 190.72C291.272 190.84 291.624 191.012 291.936 191.236C292.256 191.452 292.516 191.7 292.716 191.98L291.852 192.88C291.62 192.648 291.384 192.456 291.144 192.304C290.912 192.144 290.672 192.024 290.424 191.944C290.184 191.864 289.94 191.824 289.692 191.824C289.3 191.824 288.932 191.9 288.588 192.052C288.252 192.196 287.956 192.4 287.7 192.664C287.452 192.928 287.256 193.244 287.112 193.612C286.968 193.972 286.896 194.368 286.896 194.8C286.896 195.256 286.964 195.672 287.1 196.048C287.244 196.416 287.444 196.732 287.7 196.996C287.956 197.26 288.26 197.464 288.612 197.608C288.972 197.744 289.368 197.812 289.8 197.812C290.064 197.812 290.324 197.776 290.58 197.704C290.836 197.632 291.076 197.528 291.3 197.392C291.524 197.256 291.728 197.096 291.912 196.912L292.56 197.968C292.376 198.184 292.124 198.38 291.804 198.556C291.492 198.732 291.14 198.872 290.748 198.976C290.364 199.072 289.976 199.12 289.584 199.12ZM296.841 199.12C296.225 199.12 295.673 198.98 295.185 198.7C294.705 198.412 294.325 198.024 294.045 197.536C293.765 197.04 293.625 196.476 293.625 195.844C293.625 195.212 293.765 194.652 294.045 194.164C294.325 193.668 294.705 193.28 295.185 193C295.673 192.712 296.225 192.568 296.841 192.568C297.449 192.568 297.993 192.712 298.473 193C298.961 193.28 299.345 193.668 299.625 194.164C299.905 194.652 300.045 195.212 300.045 195.844C300.045 196.476 299.905 197.04 299.625 197.536C299.345 198.024 298.961 198.412 298.473 198.7C297.993 198.98 297.449 199.12 296.841 199.12ZM296.841 197.992C297.217 197.992 297.553 197.9 297.849 197.716C298.145 197.524 298.377 197.268 298.545 196.948C298.713 196.62 298.793 196.252 298.785 195.844C298.793 195.428 298.713 195.06 298.545 194.74C298.377 194.412 298.145 194.156 297.849 193.972C297.553 193.788 297.217 193.696 296.841 193.696C296.465 193.696 296.125 193.792 295.821 193.984C295.525 194.168 295.293 194.424 295.125 194.752C294.957 195.072 294.877 195.436 294.885 195.844C294.877 196.252 294.957 196.62 295.125 196.948C295.293 197.268 295.525 197.524 295.821 197.716C296.125 197.9 296.465 197.992 296.841 197.992ZM303.491 199.12C302.963 199.12 302.487 199.028 302.063 198.844C301.639 198.66 301.287 198.388 301.007 198.028L301.847 197.308C302.087 197.588 302.347 197.792 302.627 197.92C302.915 198.04 303.239 198.1 303.599 198.1C303.743 198.1 303.875 198.084 303.995 198.052C304.123 198.012 304.231 197.956 304.319 197.884C304.415 197.812 304.487 197.728 304.535 197.632C304.583 197.528 304.607 197.416 304.607 197.296C304.607 197.088 304.531 196.92 304.379 196.792C304.299 196.736 304.171 196.676 303.995 196.612C303.827 196.54 303.607 196.468 303.335 196.396C302.871 196.276 302.491 196.14 302.195 195.988C301.899 195.836 301.671 195.664 301.511 195.472C301.391 195.32 301.303 195.156 301.247 194.98C301.191 194.796 301.163 194.596 301.163 194.38C301.163 194.116 301.219 193.876 301.331 193.66C301.451 193.436 301.611 193.244 301.811 193.084C302.019 192.916 302.259 192.788 302.531 192.7C302.811 192.612 303.107 192.568 303.419 192.568C303.715 192.568 304.007 192.608 304.295 192.688C304.591 192.768 304.863 192.884 305.111 193.036C305.359 193.188 305.567 193.368 305.735 193.576L305.027 194.356C304.875 194.204 304.707 194.072 304.523 193.96C304.347 193.84 304.167 193.748 303.983 193.684C303.799 193.62 303.631 193.588 303.479 193.588C303.311 193.588 303.159 193.604 303.023 193.636C302.887 193.668 302.771 193.716 302.675 193.78C302.587 193.844 302.519 193.924 302.471 194.02C302.423 194.116 302.399 194.224 302.399 194.344C302.407 194.448 302.431 194.548 302.471 194.644C302.519 194.732 302.583 194.808 302.663 194.872C302.751 194.936 302.883 195.004 303.059 195.076C303.235 195.148 303.459 195.216 303.731 195.28C304.131 195.384 304.459 195.5 304.715 195.628C304.979 195.748 305.187 195.888 305.339 196.048C305.499 196.2 305.611 196.376 305.675 196.576C305.739 196.776 305.771 197 305.771 197.248C305.771 197.608 305.667 197.932 305.459 198.22C305.259 198.5 304.987 198.72 304.643 198.88C304.299 199.04 303.915 199.12 303.491 199.12ZM307.914 199V191.092H309.15V199H307.914ZM306.606 193.9V192.7H310.614V193.9H306.606Z" fill="#7A7A7A"/>
<path d="M336.964 199L334.288 190.6H335.668L337.288 195.856C337.336 195.984 337.38 196.136 337.42 196.312C337.46 196.48 337.496 196.652 337.528 196.828C337.56 197.004 337.588 197.168 337.612 197.32C337.644 197.472 337.672 197.596 337.696 197.692L337.348 197.68C337.468 197.256 337.56 196.928 337.624 196.696C337.696 196.464 337.752 196.288 337.792 196.168C337.832 196.04 337.868 195.932 337.9 195.844L339.412 192.052H340.576L342.04 195.844C342.12 196.036 342.188 196.228 342.244 196.42C342.308 196.604 342.364 196.792 342.412 196.984C342.46 197.168 342.512 197.364 342.568 197.572L342.256 197.656C342.296 197.44 342.324 197.272 342.34 197.152C342.364 197.024 342.384 196.92 342.4 196.84C342.416 196.76 342.432 196.684 342.448 196.612C342.464 196.532 342.488 196.432 342.52 196.312C342.56 196.192 342.612 196.028 342.676 195.82L344.272 190.6H345.664L342.988 199H342.088L339.868 193.744L339.976 193.792L337.84 199H336.964ZM348.936 199.12C348.416 199.12 347.94 198.976 347.508 198.688C347.084 198.4 346.744 198.008 346.488 197.512C346.232 197.016 346.104 196.456 346.104 195.832C346.104 195.2 346.232 194.64 346.488 194.152C346.752 193.656 347.104 193.268 347.544 192.988C347.992 192.708 348.492 192.568 349.044 192.568C349.372 192.568 349.672 192.616 349.944 192.712C350.216 192.808 350.452 192.944 350.652 193.12C350.86 193.288 351.028 193.484 351.156 193.708C351.292 193.932 351.376 194.172 351.408 194.428L351.132 194.332V192.7H352.38V199H351.132V197.5L351.42 197.416C351.372 197.632 351.272 197.844 351.12 198.052C350.976 198.252 350.788 198.432 350.556 198.592C350.332 198.752 350.08 198.88 349.8 198.976C349.528 199.072 349.24 199.12 348.936 199.12ZM349.26 197.98C349.636 197.98 349.968 197.888 350.256 197.704C350.544 197.52 350.768 197.268 350.928 196.948C351.096 196.62 351.18 196.248 351.18 195.832C351.18 195.424 351.096 195.06 350.928 194.74C350.768 194.42 350.544 194.168 350.256 193.984C349.968 193.8 349.636 193.708 349.26 193.708C348.892 193.708 348.564 193.8 348.276 193.984C347.996 194.168 347.772 194.42 347.604 194.74C347.444 195.06 347.364 195.424 347.364 195.832C347.364 196.248 347.444 196.62 347.604 196.948C347.772 197.268 347.996 197.52 348.276 197.704C348.564 197.888 348.892 197.98 349.26 197.98ZM354.106 199V192.7H355.354V194.68L355.234 194.2C355.322 193.896 355.47 193.62 355.678 193.372C355.894 193.124 356.138 192.928 356.41 192.784C356.69 192.64 356.978 192.568 357.274 192.568C357.41 192.568 357.538 192.58 357.658 192.604C357.786 192.628 357.886 192.656 357.958 192.688L357.634 194.032C357.538 193.992 357.43 193.96 357.31 193.936C357.198 193.904 357.086 193.888 356.974 193.888C356.758 193.888 356.55 193.932 356.35 194.02C356.158 194.1 355.986 194.216 355.834 194.368C355.69 194.512 355.574 194.684 355.486 194.884C355.398 195.076 355.354 195.288 355.354 195.52V199H354.106ZM358.946 199V192.7H360.194V194.68L360.074 194.2C360.162 193.896 360.31 193.62 360.518 193.372C360.734 193.124 360.978 192.928 361.25 192.784C361.53 192.64 361.818 192.568 362.114 192.568C362.25 192.568 362.378 192.58 362.498 192.604C362.626 192.628 362.726 192.656 362.798 192.688L362.474 194.032C362.378 193.992 362.27 193.96 362.15 193.936C362.038 193.904 361.926 193.888 361.814 193.888C361.598 193.888 361.39 193.932 361.19 194.02C360.998 194.1 360.826 194.216 360.674 194.368C360.53 194.512 360.414 194.684 360.326 194.884C360.238 195.076 360.194 195.288 360.194 195.52V199H358.946ZM366.456 199.12C365.808 199.12 365.232 198.984 364.728 198.712C364.232 198.432 363.84 198.052 363.552 197.572C363.272 197.092 363.132 196.54 363.132 195.916C363.132 195.42 363.212 194.968 363.372 194.56C363.532 194.152 363.752 193.8 364.032 193.504C364.32 193.2 364.66 192.968 365.052 192.808C365.452 192.64 365.884 192.556 366.348 192.556C366.756 192.556 367.136 192.636 367.488 192.796C367.84 192.948 368.144 193.16 368.4 193.432C368.664 193.704 368.864 194.028 369 194.404C369.144 194.772 369.212 195.176 369.204 195.616L369.192 196.144H364.044L363.768 195.16H368.124L367.944 195.364V195.076C367.92 194.812 367.832 194.576 367.68 194.368C367.528 194.16 367.336 193.996 367.104 193.876C366.872 193.756 366.62 193.696 366.348 193.696C365.916 193.696 365.552 193.78 365.256 193.948C364.96 194.108 364.736 194.348 364.584 194.668C364.432 194.98 364.356 195.368 364.356 195.832C364.356 196.272 364.448 196.656 364.632 196.984C364.816 197.304 365.076 197.552 365.412 197.728C365.748 197.904 366.136 197.992 366.576 197.992C366.888 197.992 367.176 197.94 367.44 197.836C367.712 197.732 368.004 197.544 368.316 197.272L368.94 198.148C368.748 198.34 368.512 198.508 368.232 198.652C367.96 198.796 367.668 198.912 367.356 199C367.052 199.08 366.752 199.12 366.456 199.12ZM370.548 199V192.7H371.784V193.996L371.568 194.14C371.648 193.86 371.804 193.604 372.036 193.372C372.268 193.132 372.544 192.94 372.864 192.796C373.184 192.644 373.512 192.568 373.848 192.568C374.328 192.568 374.728 192.664 375.048 192.856C375.368 193.04 375.608 193.324 375.768 193.708C375.928 194.092 376.008 194.576 376.008 195.16V199H374.772V195.244C374.772 194.884 374.724 194.588 374.628 194.356C374.532 194.116 374.384 193.944 374.184 193.84C373.984 193.728 373.736 193.68 373.44 193.696C373.2 193.696 372.98 193.736 372.78 193.816C372.58 193.888 372.404 193.992 372.252 194.128C372.108 194.264 371.992 194.424 371.904 194.608C371.824 194.784 371.784 194.976 371.784 195.184V199H371.172C371.068 199 370.964 199 370.86 199C370.756 199 370.652 199 370.548 199ZM378.464 199V191.092H379.7V199H378.464ZM377.156 193.9V192.7H381.164V193.9H377.156ZM383.346 201.76L384.618 198.82L384.63 199.804L381.486 192.7H382.926L384.894 197.332C384.934 197.412 384.982 197.536 385.038 197.704C385.094 197.864 385.142 198.024 385.182 198.184L384.87 198.256C384.934 198.088 384.994 197.92 385.05 197.752C385.114 197.584 385.174 197.416 385.23 197.248L386.874 192.7H388.338L385.746 199L384.678 201.76H383.346Z" fill="#7A7A7A"/>
<rect x="121" y="216" width="49" height="5" rx="2.5" fill="#E4E6EA"/>
<rect x="121" y="239" width="49" height="5" rx="2.5" fill="#E4E6EA"/>
<rect x="121" y="262" width="49" height="5" rx="2.5" fill="#E4E6EA"/>
<rect x="121" y="285" width="49" height="5" rx="2.5" fill="#E4E6EA"/>
<rect x="121" y="308" width="49" height="5" rx="2.5" fill="#E4E6EA"/>
<rect x="121" y="331" width="49" height="5" rx="2.5" fill="#E4E6EA"/>
<rect x="121" y="354" width="49" height="5" rx="2.5" fill="#E4E6EA"/>
<rect x="192" y="216" width="65" height="5" rx="2.5" fill="#E4E6EA"/>
<rect x="192" y="239" width="65" height="5" rx="2.5" fill="#E4E6EA"/>
<rect x="192" y="262" width="65" height="5" rx="2.5" fill="#E4E6EA"/>
<rect x="192" y="285" width="65" height="5" rx="2.5" fill="#E4E6EA"/>
<rect x="192" y="308" width="65" height="5" rx="2.5" fill="#E4E6EA"/>
<rect x="192" y="331" width="65" height="5" rx="2.5" fill="#E4E6EA"/>
<rect x="192" y="354" width="65" height="5" rx="2.5" fill="#E4E6EA"/>
<rect x="283" y="216" width="31" height="5" rx="2.5" fill="#E4E6EA"/>
<rect x="283" y="239" width="31" height="5" rx="2.5" fill="#E4E6EA"/>
<rect x="283" y="262" width="31" height="5" rx="2.5" fill="#E4E6EA"/>
<rect x="283" y="285" width="31" height="5" rx="2.5" fill="#E4E6EA"/>
<rect x="283" y="308" width="31" height="5" rx="2.5" fill="#E4E6EA"/>
<rect x="283" y="331" width="31" height="5" rx="2.5" fill="#E4E6EA"/>
<rect x="283" y="354" width="31" height="5" rx="2.5" fill="#E4E6EA"/>
<rect x="334" y="216" width="55" height="5" rx="2.5" fill="#E4E6EA"/>
<rect x="334" y="239" width="55" height="5" rx="2.5" fill="#E4E6EA"/>
<rect x="334" y="262" width="55" height="5" rx="2.5" fill="#E4E6EA"/>
<rect x="334" y="285" width="55" height="5" rx="2.5" fill="#E4E6EA"/>
<rect x="334" y="308" width="55" height="5" rx="2.5" fill="#E4E6EA"/>
<rect x="334" y="331" width="55" height="5" rx="2.5" fill="#E4E6EA"/>
<rect x="334" y="354" width="55" height="5" rx="2.5" fill="#E4E6EA"/>
<rect x="83" y="398" width="315" height="41" rx="6" fill="#0900FF"/>
<path d="M206.098 424L209.948 414.2H211.824L215.646 424H213.49L211.516 418.722C211.46 418.573 211.39 418.381 211.306 418.148C211.231 417.915 211.152 417.667 211.068 417.406C210.984 417.145 210.905 416.897 210.83 416.664C210.755 416.421 210.699 416.221 210.662 416.062H211.04C210.984 416.267 210.919 416.487 210.844 416.72C210.779 416.944 210.709 417.177 210.634 417.42C210.559 417.653 210.48 417.882 210.396 418.106C210.312 418.33 210.233 418.549 210.158 418.764L208.184 424H206.098ZM207.89 421.942L208.576 420.262H213.07L213.77 421.942H207.89ZM219.367 424.14C218.713 424.14 218.13 423.977 217.617 423.65C217.113 423.314 216.711 422.861 216.413 422.292C216.123 421.713 215.979 421.046 215.979 420.29C215.979 419.553 216.123 418.895 216.413 418.316C216.711 417.728 217.113 417.271 217.617 416.944C218.13 416.608 218.713 416.44 219.367 416.44C219.712 416.44 220.043 416.496 220.361 416.608C220.687 416.711 220.977 416.855 221.229 417.042C221.49 417.229 221.7 417.439 221.859 417.672C222.017 417.896 222.106 418.129 222.125 418.372L221.621 418.47V413.64H223.623V424H221.733L221.649 422.292L222.041 422.334C222.022 422.567 221.938 422.791 221.789 423.006C221.639 423.221 221.439 423.417 221.187 423.594C220.944 423.762 220.664 423.897 220.347 424C220.039 424.093 219.712 424.14 219.367 424.14ZM219.815 422.488C220.188 422.488 220.515 422.395 220.795 422.208C221.075 422.021 221.294 421.765 221.453 421.438C221.611 421.111 221.691 420.729 221.691 420.29C221.691 419.861 221.611 419.483 221.453 419.156C221.294 418.829 221.075 418.573 220.795 418.386C220.515 418.199 220.188 418.106 219.815 418.106C219.441 418.106 219.115 418.199 218.835 418.386C218.564 418.573 218.349 418.829 218.191 419.156C218.041 419.483 217.967 419.861 217.967 420.29C217.967 420.729 218.041 421.111 218.191 421.438C218.349 421.765 218.564 422.021 218.835 422.208C219.115 422.395 219.441 422.488 219.815 422.488ZM228.445 424.14C227.791 424.14 227.208 423.977 226.695 423.65C226.191 423.314 225.789 422.861 225.491 422.292C225.201 421.713 225.057 421.046 225.057 420.29C225.057 419.553 225.201 418.895 225.491 418.316C225.789 417.728 226.191 417.271 226.695 416.944C227.208 416.608 227.791 416.44 228.445 416.44C228.79 416.44 229.121 416.496 229.439 416.608C229.765 416.711 230.055 416.855 230.307 417.042C230.568 417.229 230.778 417.439 230.937 417.672C231.095 417.896 231.184 418.129 231.203 418.372L230.699 418.47V413.64H232.701V424H230.811L230.727 422.292L231.119 422.334C231.1 422.567 231.016 422.791 230.867 423.006C230.717 423.221 230.517 423.417 230.265 423.594C230.022 423.762 229.742 423.897 229.425 424C229.117 424.093 228.79 424.14 228.445 424.14ZM228.893 422.488C229.266 422.488 229.593 422.395 229.873 422.208C230.153 422.021 230.372 421.765 230.531 421.438C230.689 421.111 230.769 420.729 230.769 420.29C230.769 419.861 230.689 419.483 230.531 419.156C230.372 418.829 230.153 418.573 229.873 418.386C229.593 418.199 229.266 418.106 228.893 418.106C228.519 418.106 228.193 418.199 227.913 418.386C227.642 418.573 227.427 418.829 227.269 419.156C227.119 419.483 227.045 419.861 227.045 420.29C227.045 420.729 227.119 421.111 227.269 421.438C227.427 421.765 227.642 422.021 227.913 422.208C228.193 422.395 228.519 422.488 228.893 422.488ZM238.022 424L241.872 414.2H243.748L247.57 424H245.414L243.44 418.722C243.384 418.573 243.314 418.381 243.23 418.148C243.155 417.915 243.076 417.667 242.992 417.406C242.908 417.145 242.828 416.897 242.754 416.664C242.679 416.421 242.623 416.221 242.586 416.062H242.964C242.908 416.267 242.842 416.487 242.768 416.72C242.702 416.944 242.632 417.177 242.558 417.42C242.483 417.653 242.404 417.882 242.32 418.106C242.236 418.33 242.156 418.549 242.082 418.764L240.108 424H238.022ZM239.814 421.942L240.5 420.262H244.994L245.694 421.942H239.814ZM251.158 424.14C250.467 424.14 249.851 424.028 249.31 423.804C248.778 423.571 248.349 423.253 248.022 422.852L249.268 421.788C249.548 422.096 249.865 422.32 250.22 422.46C250.575 422.591 250.929 422.656 251.284 422.656C251.424 422.656 251.55 422.642 251.662 422.614C251.783 422.577 251.886 422.53 251.97 422.474C252.054 422.409 252.115 422.334 252.152 422.25C252.199 422.157 252.222 422.059 252.222 421.956C252.222 421.751 252.138 421.592 251.97 421.48C251.877 421.424 251.732 421.363 251.536 421.298C251.34 421.223 251.088 421.144 250.78 421.06C250.304 420.939 249.898 420.799 249.562 420.64C249.235 420.472 248.974 420.285 248.778 420.08C248.61 419.884 248.479 419.674 248.386 419.45C248.302 419.217 248.26 418.96 248.26 418.68C248.26 418.344 248.335 418.041 248.484 417.77C248.633 417.49 248.839 417.252 249.1 417.056C249.371 416.86 249.679 416.711 250.024 416.608C250.369 416.496 250.733 416.44 251.116 416.44C251.499 416.44 251.872 416.487 252.236 416.58C252.6 416.673 252.936 416.809 253.244 416.986C253.561 417.154 253.837 417.355 254.07 417.588L253.006 418.764C252.838 418.605 252.647 418.461 252.432 418.33C252.227 418.199 252.012 418.097 251.788 418.022C251.564 417.947 251.363 417.91 251.186 417.91C251.027 417.91 250.883 417.924 250.752 417.952C250.631 417.98 250.528 418.027 250.444 418.092C250.36 418.148 250.295 418.218 250.248 418.302C250.211 418.386 250.192 418.479 250.192 418.582C250.192 418.685 250.215 418.783 250.262 418.876C250.318 418.969 250.393 419.049 250.486 419.114C250.589 419.17 250.738 419.235 250.934 419.31C251.139 419.385 251.415 419.469 251.76 419.562C252.208 419.683 252.586 419.819 252.894 419.968C253.211 420.117 253.463 420.29 253.65 420.486C253.809 420.654 253.925 420.845 254 421.06C254.075 421.275 254.112 421.513 254.112 421.774C254.112 422.231 253.981 422.637 253.72 422.992C253.468 423.347 253.118 423.627 252.67 423.832C252.222 424.037 251.718 424.14 251.158 424.14ZM258.021 424.14C257.33 424.14 256.714 424.028 256.173 423.804C255.641 423.571 255.212 423.253 254.885 422.852L256.131 421.788C256.411 422.096 256.728 422.32 257.083 422.46C257.438 422.591 257.792 422.656 258.147 422.656C258.287 422.656 258.413 422.642 258.525 422.614C258.646 422.577 258.749 422.53 258.833 422.474C258.917 422.409 258.978 422.334 259.015 422.25C259.062 422.157 259.085 422.059 259.085 421.956C259.085 421.751 259.001 421.592 258.833 421.48C258.74 421.424 258.595 421.363 258.399 421.298C258.203 421.223 257.951 421.144 257.643 421.06C257.167 420.939 256.761 420.799 256.425 420.64C256.098 420.472 255.837 420.285 255.641 420.08C255.473 419.884 255.342 419.674 255.249 419.45C255.165 419.217 255.123 418.96 255.123 418.68C255.123 418.344 255.198 418.041 255.347 417.77C255.496 417.49 255.702 417.252 255.963 417.056C256.234 416.86 256.542 416.711 256.887 416.608C257.232 416.496 257.596 416.44 257.979 416.44C258.362 416.44 258.735 416.487 259.099 416.58C259.463 416.673 259.799 416.809 260.107 416.986C260.424 417.154 260.7 417.355 260.933 417.588L259.869 418.764C259.701 418.605 259.51 418.461 259.295 418.33C259.09 418.199 258.875 418.097 258.651 418.022C258.427 417.947 258.226 417.91 258.049 417.91C257.89 417.91 257.746 417.924 257.615 417.952C257.494 417.98 257.391 418.027 257.307 418.092C257.223 418.148 257.158 418.218 257.111 418.302C257.074 418.386 257.055 418.479 257.055 418.582C257.055 418.685 257.078 418.783 257.125 418.876C257.181 418.969 257.256 419.049 257.349 419.114C257.452 419.17 257.601 419.235 257.797 419.31C258.002 419.385 258.278 419.469 258.623 419.562C259.071 419.683 259.449 419.819 259.757 419.968C260.074 420.117 260.326 420.29 260.513 420.486C260.672 420.654 260.788 420.845 260.863 421.06C260.938 421.275 260.975 421.513 260.975 421.774C260.975 422.231 260.844 422.637 260.583 422.992C260.331 423.347 259.981 423.627 259.533 423.832C259.085 424.037 258.581 424.14 258.021 424.14ZM265.906 424.14C265.104 424.14 264.399 423.977 263.792 423.65C263.195 423.323 262.728 422.875 262.392 422.306C262.066 421.737 261.902 421.083 261.902 420.346C261.902 419.767 261.996 419.24 262.182 418.764C262.369 418.288 262.63 417.877 262.966 417.532C263.302 417.177 263.699 416.907 264.156 416.72C264.623 416.524 265.127 416.426 265.668 416.426C266.172 416.426 266.639 416.519 267.068 416.706C267.498 416.893 267.866 417.154 268.174 417.49C268.492 417.817 268.734 418.209 268.902 418.666C269.07 419.114 269.145 419.599 269.126 420.122L269.112 420.738H263.162L262.84 419.52H267.474L267.25 419.772V419.464C267.232 419.212 267.148 418.988 266.998 418.792C266.858 418.587 266.676 418.428 266.452 418.316C266.228 418.195 265.976 418.134 265.696 418.134C265.286 418.134 264.936 418.213 264.646 418.372C264.366 418.531 264.152 418.764 264.002 419.072C263.853 419.38 263.778 419.753 263.778 420.192C263.778 420.64 263.872 421.027 264.058 421.354C264.254 421.681 264.525 421.937 264.87 422.124C265.225 422.301 265.64 422.39 266.116 422.39C266.443 422.39 266.742 422.339 267.012 422.236C267.283 422.133 267.572 421.956 267.88 421.704L268.832 423.034C268.562 423.277 268.263 423.482 267.936 423.65C267.61 423.809 267.274 423.93 266.928 424.014C266.583 424.098 266.242 424.14 265.906 424.14ZM271.31 424V414.718H273.298V424H271.31ZM269.924 418.372V416.594H274.824V418.372H269.924Z" fill="white"/>
</svg>
