<svg width="480" height="540" viewBox="0 0 480 540" fill="none" xmlns="http://www.w3.org/2000/svg">
<g clip-path="url(#clip0_193_1470)">
<path d="M85 76H396C405.389 76 413 83.6112 413 93V447C413 456.389 405.389 464 396 464H85C75.6111 464 68 456.389 68 447V93C68 83.6112 75.6111 76 85 76Z" fill="#F1F5F7"/>
<path d="M91.3457 269.41C91.3457 262.619 96.8504 257.115 103.641 257.115H375.362C382.152 257.115 387.657 262.619 387.657 269.41V356.705C387.657 363.495 382.152 369 375.362 369H103.641C96.8504 369 91.3457 363.495 91.3457 356.705V269.41Z" fill="white"/>
<circle cx="334.787" cy="163.672" r="19.6721" fill="#1A89FA"/>
<mask id="mask0_193_1470" style="mask-type:luminance" maskUnits="userSpaceOnUse" x="323" y="149" width="25" height="29">
<path d="M347.083 149.522H323.021V177.02H347.083V149.522Z" fill="white"/>
</mask>
<g mask="url(#mask0_193_1470)">
<path d="M332.332 173.636C332.438 173.593 332.552 173.573 332.667 173.577C332.781 173.581 332.893 173.608 332.996 173.658C333.1 173.707 333.191 173.778 333.266 173.865C333.34 173.952 333.396 174.053 333.429 174.163C333.553 174.504 333.781 174.798 334.08 175.003C334.38 175.208 334.736 175.315 335.099 175.307C335.446 175.299 335.783 175.185 336.064 174.981C336.346 174.776 336.558 174.491 336.672 174.163C336.705 174.053 336.761 173.952 336.835 173.865C336.91 173.778 337.001 173.707 337.105 173.658C337.208 173.608 337.32 173.581 337.434 173.577C337.549 173.573 337.663 173.593 337.769 173.636C337.983 173.713 338.158 173.871 338.257 174.076C338.356 174.281 338.369 174.517 338.295 174.733C338.058 175.403 337.618 175.984 337.037 176.394C336.456 176.805 335.763 177.026 335.051 177.026C334.34 177.026 333.646 176.805 333.065 176.394C332.484 175.984 332.044 175.403 331.807 174.733C331.733 174.517 331.746 174.282 331.845 174.077C331.943 173.871 332.118 173.713 332.332 173.636Z" fill="white"/>
<path d="M323.022 169.485C323.021 169.798 323.083 170.107 323.202 170.396C323.322 170.685 323.497 170.947 323.718 171.168C323.939 171.389 324.201 171.564 324.49 171.684C324.779 171.803 325.088 171.864 325.401 171.864H344.704C345.016 171.864 345.326 171.803 345.614 171.683C345.903 171.563 346.165 171.388 346.386 171.167C346.607 170.946 346.782 170.684 346.901 170.395C347.021 170.107 347.082 169.797 347.082 169.485C347.086 169.172 347.027 168.862 346.907 168.573C346.787 168.284 346.609 168.022 346.385 167.804L346.238 167.66C344.579 165.998 343.647 163.746 343.646 161.397V159.835C343.644 157.705 342.852 155.652 341.423 154.073C339.994 152.495 338.03 151.502 335.911 151.289L335.96 150.382C335.952 150.157 335.859 149.943 335.699 149.783C335.54 149.624 335.326 149.531 335.101 149.522C334.984 149.518 334.868 149.536 334.759 149.577C334.65 149.618 334.551 149.681 334.466 149.761C334.382 149.841 334.314 149.937 334.267 150.044C334.22 150.151 334.195 150.265 334.194 150.382V151.289C332.074 151.503 330.11 152.496 328.681 154.075C327.252 155.655 326.46 157.709 326.46 159.839V161.401C326.457 163.748 325.524 165.999 323.865 167.66L323.72 167.804C323.496 168.022 323.318 168.284 323.198 168.573C323.078 168.862 323.018 169.172 323.022 169.485Z" fill="white"/>
</g>
<path d="M367.973 278.017L371.667 274.322C371.829 274.161 371.919 273.942 371.919 273.714C371.919 273.485 371.829 273.266 371.667 273.105C371.506 272.944 371.287 272.853 371.059 272.853C370.831 272.853 370.612 272.944 370.45 273.105L366.756 276.8L363.061 273.105C362.981 273.025 362.886 272.962 362.782 272.919C362.677 272.875 362.565 272.853 362.452 272.853C362.339 272.853 362.227 272.875 362.123 272.919C362.019 272.962 361.924 273.025 361.844 273.105C361.764 273.185 361.701 273.28 361.657 273.384C361.614 273.489 361.592 273.601 361.592 273.714C361.592 273.827 361.614 273.938 361.657 274.043C361.701 274.147 361.764 274.242 361.844 274.322L365.539 278.017L361.844 281.712C361.682 281.873 361.592 282.092 361.592 282.32C361.592 282.548 361.682 282.767 361.844 282.929C362.005 283.09 362.224 283.181 362.452 283.181C362.681 283.181 362.899 283.09 363.061 282.929L366.756 279.234L370.45 282.929C370.53 283.009 370.625 283.072 370.729 283.116C370.834 283.159 370.946 283.182 371.059 283.182C371.172 283.182 371.284 283.159 371.388 283.116C371.493 283.072 371.588 283.009 371.667 282.929C371.747 282.849 371.811 282.754 371.854 282.649C371.897 282.545 371.92 282.433 371.92 282.32C371.92 282.207 371.897 282.095 371.854 281.991C371.811 281.886 371.747 281.791 371.667 281.712L367.973 278.017Z" fill="#7A7A7A"/>
<path fill-rule="evenodd" clip-rule="evenodd" d="M336.918 188.262C335.971 186.623 333.605 186.623 332.659 188.262L322.011 206.705L103.641 206.705C96.8504 206.705 91.3457 212.21 91.3457 219V236.213C91.3457 243.003 96.8504 248.508 103.641 248.508H375.362C382.152 248.508 387.657 243.003 387.657 236.213V219C387.657 212.21 382.152 206.705 375.362 206.705H347.566L336.918 188.262Z" fill="#1A89FA"/>
<path d="M110.992 233.459V224.852H112.185L117.447 231.898L117.25 232.008C117.217 231.803 117.189 231.582 117.164 231.344C117.14 231.098 117.115 230.84 117.09 230.57C117.074 230.291 117.058 230 117.041 229.697C117.033 229.385 117.025 229.061 117.017 228.725C117.008 228.389 117.004 228.041 117.004 227.68V224.852H118.332V233.459H117.115L111.939 226.672L112.074 226.5C112.115 227 112.148 227.426 112.172 227.779C112.205 228.123 112.23 228.418 112.246 228.664C112.271 228.902 112.287 229.098 112.295 229.254C112.304 229.402 112.308 229.525 112.308 229.623C112.316 229.721 112.32 229.807 112.32 229.881V233.459H110.992ZM123.324 233.582C122.692 233.582 122.127 233.438 121.627 233.152C121.135 232.857 120.746 232.459 120.459 231.959C120.172 231.451 120.029 230.873 120.029 230.225C120.029 229.578 120.172 229.004 120.459 228.504C120.746 227.996 121.135 227.598 121.627 227.311C122.127 227.016 122.692 226.869 123.324 226.869C123.947 226.869 124.504 227.016 124.996 227.311C125.496 227.598 125.889 227.996 126.176 228.504C126.463 229.004 126.606 229.578 126.606 230.225C126.606 230.873 126.463 231.451 126.176 231.959C125.889 232.459 125.496 232.857 124.996 233.152C124.504 233.438 123.947 233.582 123.324 233.582ZM123.324 232.426C123.709 232.426 124.053 232.332 124.356 232.143C124.66 231.947 124.897 231.684 125.07 231.357C125.242 231.02 125.324 230.643 125.315 230.225C125.324 229.799 125.242 229.422 125.07 229.094C124.897 228.758 124.66 228.496 124.356 228.307C124.053 228.119 123.709 228.025 123.324 228.025C122.938 228.025 122.59 228.123 122.279 228.32C121.975 228.508 121.738 228.77 121.565 229.107C121.393 229.434 121.311 229.807 121.32 230.225C121.311 230.643 121.393 231.02 121.565 231.357C121.738 231.684 121.975 231.947 122.279 232.143C122.59 232.332 122.938 232.426 123.324 232.426ZM128.786 233.459V225.357H130.052V233.459H128.786ZM127.445 228.234V227.004H131.552V228.234H127.445ZM132.914 233.459V227.004H134.18V233.459H132.914ZM133.529 225.578C133.258 225.578 133.049 225.508 132.902 225.369C132.754 225.229 132.68 225.033 132.68 224.779C132.68 224.541 132.754 224.348 132.902 224.201C133.058 224.053 133.267 223.979 133.529 223.979C133.799 223.979 134.008 224.049 134.156 224.188C134.303 224.328 134.377 224.525 134.377 224.779C134.377 225.016 134.299 225.209 134.144 225.357C133.996 225.504 133.791 225.578 133.529 225.578ZM136.828 233.459V226.279C136.828 225.91 136.91 225.582 137.074 225.295C137.238 225.008 137.463 224.783 137.75 224.619C138.037 224.455 138.369 224.373 138.746 224.373C139.008 224.373 139.254 224.422 139.484 224.52C139.713 224.619 139.898 224.75 140.037 224.914L139.607 225.885C139.5 225.787 139.381 225.709 139.25 225.652C139.127 225.586 139.008 225.553 138.893 225.553C138.721 225.553 138.574 225.582 138.451 225.639C138.336 225.688 138.25 225.77 138.193 225.885C138.135 225.992 138.107 226.123 138.107 226.279V233.459H137.467C137.361 233.459 137.254 233.459 137.148 233.459C137.041 233.459 136.934 233.459 136.828 233.459ZM135.795 228.283V227.115H139.631V228.283H135.795ZM141.168 233.459V227.004H142.434V233.459H141.168ZM141.783 225.578C141.512 225.578 141.303 225.508 141.156 225.369C141.008 225.229 140.934 225.033 140.934 224.779C140.934 224.541 141.008 224.348 141.156 224.201C141.311 224.053 141.52 223.979 141.783 223.979C142.053 223.979 142.262 224.049 142.41 224.188C142.557 224.328 142.631 224.525 142.631 224.779C142.631 225.016 142.553 225.209 142.398 225.357C142.25 225.504 142.045 225.578 141.783 225.578ZM147.118 233.582C146.519 233.582 145.982 233.434 145.507 233.139C145.04 232.844 144.667 232.443 144.388 231.934C144.118 231.426 143.982 230.857 143.982 230.225C143.982 229.594 144.118 229.025 144.388 228.516C144.667 228.008 145.04 227.607 145.507 227.311C145.982 227.016 146.519 226.869 147.118 226.869C147.691 226.869 148.212 226.988 148.679 227.225C149.154 227.455 149.515 227.77 149.761 228.172L149.06 229.033C148.929 228.844 148.761 228.672 148.556 228.516C148.351 228.361 148.134 228.238 147.904 228.148C147.675 228.057 147.454 228.012 147.241 228.012C146.847 228.012 146.495 228.111 146.183 228.307C145.88 228.496 145.638 228.758 145.458 229.094C145.277 229.43 145.187 229.807 145.187 230.225C145.187 230.643 145.282 231.02 145.47 231.357C145.659 231.684 145.909 231.947 146.22 232.143C146.532 232.34 146.876 232.438 147.253 232.438C147.474 232.438 147.687 232.402 147.892 232.328C148.105 232.254 148.31 232.143 148.507 231.996C148.704 231.848 148.888 231.668 149.06 231.455L149.761 232.316C149.499 232.684 149.122 232.988 148.63 233.225C148.146 233.463 147.642 233.582 147.118 233.582ZM153.439 233.582C152.906 233.582 152.419 233.434 151.976 233.139C151.542 232.844 151.193 232.443 150.931 231.934C150.669 231.426 150.538 230.852 150.538 230.213C150.538 229.566 150.669 228.992 150.931 228.492C151.201 227.984 151.562 227.586 152.013 227.299C152.472 227.012 152.984 226.869 153.55 226.869C153.886 226.869 154.193 226.918 154.472 227.016C154.751 227.115 154.992 227.254 155.197 227.434C155.41 227.607 155.583 227.807 155.714 228.037C155.853 228.266 155.939 228.512 155.972 228.775L155.689 228.676V227.004H156.968V233.459H155.689V231.922L155.984 231.836C155.935 232.057 155.833 232.275 155.677 232.488C155.529 232.693 155.337 232.877 155.099 233.041C154.869 233.205 154.611 233.336 154.324 233.434C154.046 233.533 153.751 233.582 153.439 233.582ZM153.771 232.414C154.156 232.414 154.497 232.32 154.792 232.131C155.087 231.943 155.316 231.684 155.48 231.357C155.652 231.02 155.738 230.639 155.738 230.213C155.738 229.795 155.652 229.422 155.48 229.094C155.316 228.766 155.087 228.508 154.792 228.32C154.497 228.131 154.156 228.037 153.771 228.037C153.394 228.037 153.058 228.131 152.763 228.32C152.476 228.508 152.247 228.766 152.074 229.094C151.91 229.422 151.829 229.795 151.829 230.213C151.829 230.639 151.91 231.02 152.074 231.357C152.247 231.684 152.476 231.943 152.763 232.131C153.058 232.32 153.394 232.414 153.771 232.414ZM159.535 233.459V225.357H160.802V233.459H159.535ZM158.195 228.234V227.004H162.302V228.234H158.195ZM163.664 233.459V227.004H164.93V233.459H163.664ZM164.279 225.578C164.008 225.578 163.799 225.508 163.651 225.369C163.504 225.229 163.43 225.033 163.43 224.779C163.43 224.541 163.504 224.348 163.651 224.201C163.807 224.053 164.016 223.979 164.279 223.979C164.549 223.979 164.758 224.049 164.906 224.188C165.053 224.328 165.127 224.525 165.127 224.779C165.127 225.016 165.049 225.209 164.893 225.357C164.746 225.504 164.541 225.578 164.279 225.578ZM169.778 233.582C169.147 233.582 168.582 233.438 168.082 233.152C167.59 232.857 167.201 232.459 166.914 231.959C166.627 231.451 166.483 230.873 166.483 230.225C166.483 229.578 166.627 229.004 166.914 228.504C167.201 227.996 167.59 227.598 168.082 227.311C168.582 227.016 169.147 226.869 169.778 226.869C170.401 226.869 170.959 227.016 171.451 227.311C171.951 227.598 172.344 227.996 172.631 228.504C172.918 229.004 173.061 229.578 173.061 230.225C173.061 230.873 172.918 231.451 172.631 231.959C172.344 232.459 171.951 232.857 171.451 233.152C170.959 233.438 170.401 233.582 169.778 233.582ZM169.778 232.426C170.164 232.426 170.508 232.332 170.811 232.143C171.114 231.947 171.352 231.684 171.524 231.357C171.696 231.02 171.778 230.643 171.77 230.225C171.778 229.799 171.696 229.422 171.524 229.094C171.352 228.758 171.114 228.496 170.811 228.307C170.508 228.119 170.164 228.025 169.778 228.025C169.393 228.025 169.045 228.123 168.733 228.32C168.43 228.508 168.192 228.77 168.02 229.107C167.848 229.434 167.766 229.807 167.774 230.225C167.766 230.643 167.848 231.02 168.02 231.357C168.192 231.684 168.43 231.947 168.733 232.143C169.045 232.332 169.393 232.426 169.778 232.426ZM174.441 233.459V227.004H175.707V228.332L175.486 228.479C175.568 228.193 175.728 227.93 175.966 227.693C176.203 227.447 176.486 227.25 176.814 227.102C177.142 226.947 177.478 226.869 177.822 226.869C178.314 226.869 178.724 226.967 179.052 227.164C179.38 227.352 179.626 227.643 179.789 228.037C179.953 228.43 180.035 228.926 180.035 229.525V233.459H178.769V229.611C178.769 229.242 178.72 228.938 178.621 228.701C178.523 228.455 178.371 228.279 178.166 228.172C177.962 228.057 177.707 228.008 177.404 228.025C177.158 228.025 176.933 228.066 176.728 228.148C176.523 228.221 176.343 228.328 176.187 228.467C176.039 228.607 175.921 228.77 175.83 228.959C175.748 229.139 175.707 229.336 175.707 229.549V233.459H175.08C174.974 233.459 174.867 233.459 174.761 233.459C174.654 233.459 174.548 233.459 174.441 233.459ZM183.905 233.582C183.364 233.582 182.876 233.488 182.442 233.299C182.007 233.111 181.647 232.832 181.36 232.463L182.221 231.725C182.466 232.012 182.733 232.221 183.02 232.352C183.315 232.475 183.647 232.537 184.016 232.537C184.163 232.537 184.298 232.52 184.421 232.488C184.552 232.447 184.663 232.389 184.753 232.316C184.852 232.242 184.925 232.156 184.975 232.057C185.024 231.951 185.048 231.836 185.048 231.713C185.048 231.5 184.971 231.328 184.815 231.197C184.733 231.139 184.602 231.078 184.421 231.012C184.249 230.938 184.024 230.865 183.745 230.791C183.27 230.668 182.88 230.529 182.577 230.373C182.274 230.217 182.04 230.041 181.876 229.844C181.753 229.688 181.663 229.52 181.606 229.34C181.548 229.152 181.52 228.947 181.52 228.725C181.52 228.455 181.577 228.209 181.692 227.988C181.815 227.758 181.979 227.561 182.184 227.398C182.397 227.225 182.643 227.094 182.921 227.004C183.208 226.914 183.512 226.869 183.831 226.869C184.134 226.869 184.434 226.91 184.729 226.992C185.032 227.074 185.311 227.193 185.565 227.348C185.819 227.504 186.032 227.688 186.204 227.902L185.479 228.701C185.323 228.545 185.151 228.41 184.962 228.295C184.782 228.172 184.598 228.078 184.409 228.012C184.221 227.947 184.048 227.914 183.893 227.914C183.721 227.914 183.565 227.93 183.425 227.963C183.286 227.996 183.167 228.045 183.069 228.111C182.979 228.176 182.909 228.258 182.86 228.357C182.811 228.455 182.786 228.566 182.786 228.688C182.794 228.795 182.819 228.898 182.86 228.996C182.909 229.086 182.975 229.164 183.057 229.229C183.147 229.295 183.282 229.365 183.462 229.438C183.643 229.512 183.872 229.582 184.151 229.648C184.561 229.754 184.897 229.873 185.159 230.004C185.43 230.127 185.643 230.27 185.798 230.434C185.962 230.59 186.077 230.77 186.143 230.975C186.208 231.18 186.241 231.41 186.241 231.664C186.241 232.033 186.134 232.365 185.921 232.66C185.716 232.947 185.438 233.172 185.085 233.336C184.733 233.5 184.339 233.582 183.905 233.582Z" fill="white"/>
<path d="M274.515 233.459V224.852H275.819L278.954 229.955L278.327 229.943L281.499 224.852H282.729V233.459H281.401V229.93C281.401 229.193 281.417 228.529 281.45 227.938C281.491 227.348 281.556 226.762 281.647 226.18L281.819 226.635L279.003 230.988H278.192L275.462 226.684L275.597 226.18C275.688 226.729 275.749 227.295 275.782 227.877C275.823 228.451 275.843 229.135 275.843 229.93V233.459H274.515ZM287.306 233.582C286.773 233.582 286.285 233.434 285.842 233.139C285.408 232.844 285.06 232.443 284.797 231.934C284.535 231.426 284.404 230.852 284.404 230.213C284.404 229.566 284.535 228.992 284.797 228.492C285.068 227.984 285.428 227.586 285.879 227.299C286.338 227.012 286.851 226.869 287.416 226.869C287.752 226.869 288.06 226.918 288.338 227.016C288.617 227.115 288.859 227.254 289.064 227.434C289.277 227.607 289.449 227.807 289.58 228.037C289.719 228.266 289.806 228.512 289.838 228.775L289.556 228.676V227.004H290.834V233.459H289.556V231.922L289.851 231.836C289.801 232.057 289.699 232.275 289.543 232.488C289.396 232.693 289.203 232.877 288.965 233.041C288.736 233.205 288.478 233.336 288.191 233.434C287.912 233.533 287.617 233.582 287.306 233.582ZM287.637 232.414C288.023 232.414 288.363 232.32 288.658 232.131C288.953 231.943 289.183 231.684 289.347 231.357C289.519 231.02 289.605 230.639 289.605 230.213C289.605 229.795 289.519 229.422 289.347 229.094C289.183 228.766 288.953 228.508 288.658 228.32C288.363 228.131 288.023 228.037 287.637 228.037C287.26 228.037 286.924 228.131 286.629 228.32C286.342 228.508 286.113 228.766 285.941 229.094C285.777 229.422 285.695 229.795 285.695 230.213C285.695 230.639 285.777 231.02 285.941 231.357C286.113 231.684 286.342 231.943 286.629 232.131C286.924 232.32 287.26 232.414 287.637 232.414ZM292.602 233.459V227.004H293.881V229.033L293.758 228.541C293.848 228.229 294 227.947 294.213 227.693C294.434 227.438 294.684 227.238 294.963 227.09C295.25 226.943 295.545 226.869 295.848 226.869C295.988 226.869 296.119 226.881 296.242 226.906C296.373 226.93 296.475 226.959 296.549 226.992L296.217 228.369C296.119 228.328 296.008 228.295 295.885 228.27C295.77 228.238 295.656 228.221 295.541 228.221C295.32 228.221 295.106 228.266 294.902 228.357C294.705 228.438 294.529 228.557 294.373 228.713C294.225 228.861 294.106 229.037 294.016 229.242C293.926 229.438 293.881 229.656 293.881 229.893V233.459H292.602ZM298.717 231.443L298.656 230.066L301.742 227.004H303.451L298.717 231.443ZM297.561 233.459V224.361H298.828V233.459H297.561ZM301.914 233.459L299.479 230.619L300.377 229.795L303.537 233.459H301.914ZM310.479 233.582C309.946 233.582 309.458 233.434 309.016 233.139C308.581 232.844 308.233 232.443 307.971 231.934C307.708 231.426 307.577 230.852 307.577 230.213C307.577 229.566 307.708 228.992 307.971 228.492C308.241 227.984 308.602 227.586 309.053 227.299C309.512 227.012 310.024 226.869 310.59 226.869C310.926 226.869 311.233 226.918 311.512 227.016C311.79 227.115 312.032 227.254 312.237 227.434C312.45 227.607 312.622 227.807 312.753 228.037C312.893 228.266 312.979 228.512 313.012 228.775L312.729 228.676V227.004H314.008V233.459H312.729V231.922L313.024 231.836C312.975 232.057 312.872 232.275 312.717 232.488C312.569 232.693 312.376 232.877 312.139 233.041C311.909 233.205 311.651 233.336 311.364 233.434C311.085 233.533 310.79 233.582 310.479 233.582ZM310.811 232.414C311.196 232.414 311.536 232.32 311.831 232.131C312.126 231.943 312.356 231.684 312.52 231.357C312.692 231.02 312.778 230.639 312.778 230.213C312.778 229.795 312.692 229.422 312.52 229.094C312.356 228.766 312.126 228.508 311.831 228.32C311.536 228.131 311.196 228.037 310.811 228.037C310.434 228.037 310.098 228.131 309.803 228.32C309.516 228.508 309.286 228.766 309.114 229.094C308.95 229.422 308.868 229.795 308.868 230.213C308.868 230.639 308.95 231.02 309.114 231.357C309.286 231.684 309.516 231.943 309.803 232.131C310.098 232.32 310.434 232.414 310.811 232.414ZM315.8 233.459V224.361H317.067V233.459H315.8ZM318.886 233.459V224.361H320.153V233.459H318.886ZM327.877 233.582C327.344 233.582 326.856 233.434 326.414 233.139C325.979 232.844 325.631 232.443 325.369 231.934C325.106 231.426 324.975 230.852 324.975 230.213C324.975 229.566 325.106 228.992 325.369 228.492C325.639 227.984 326 227.586 326.451 227.299C326.91 227.012 327.422 226.869 327.988 226.869C328.324 226.869 328.631 226.918 328.91 227.016C329.188 227.115 329.43 227.254 329.635 227.434C329.848 227.607 330.02 227.807 330.151 228.037C330.291 228.266 330.377 228.512 330.41 228.775L330.127 228.676V227.004H331.406V233.459H330.127V231.922L330.422 231.836C330.373 232.057 330.27 232.275 330.115 232.488C329.967 232.693 329.774 232.877 329.537 233.041C329.307 233.205 329.049 233.336 328.762 233.434C328.483 233.533 328.188 233.582 327.877 233.582ZM328.209 232.414C328.594 232.414 328.934 232.32 329.229 232.131C329.524 231.943 329.754 231.684 329.918 231.357C330.09 231.02 330.176 230.639 330.176 230.213C330.176 229.795 330.09 229.422 329.918 229.094C329.754 228.766 329.524 228.508 329.229 228.32C328.934 228.131 328.594 228.037 328.209 228.037C327.832 228.037 327.496 228.131 327.201 228.32C326.914 228.508 326.684 228.766 326.512 229.094C326.348 229.422 326.266 229.795 326.266 230.213C326.266 230.639 326.348 231.02 326.512 231.357C326.684 231.684 326.914 231.943 327.201 232.131C327.496 232.32 327.832 232.414 328.209 232.414ZM335.325 233.582C334.784 233.582 334.297 233.488 333.862 233.299C333.428 233.111 333.067 232.832 332.78 232.463L333.641 231.725C333.887 232.012 334.153 232.221 334.44 232.352C334.735 232.475 335.067 232.537 335.436 232.537C335.584 232.537 335.719 232.52 335.842 232.488C335.973 232.447 336.084 232.389 336.174 232.316C336.272 232.242 336.346 232.156 336.395 232.057C336.444 231.951 336.469 231.836 336.469 231.713C336.469 231.5 336.391 231.328 336.235 231.197C336.153 231.139 336.022 231.078 335.842 231.012C335.67 230.938 335.444 230.865 335.166 230.791C334.69 230.668 334.301 230.529 333.998 230.373C333.694 230.217 333.461 230.041 333.297 229.844C333.174 229.688 333.084 229.52 333.026 229.34C332.969 229.152 332.94 228.947 332.94 228.725C332.94 228.455 332.998 228.209 333.112 227.988C333.235 227.758 333.399 227.561 333.604 227.398C333.817 227.225 334.063 227.094 334.342 227.004C334.629 226.914 334.932 226.869 335.252 226.869C335.555 226.869 335.854 226.91 336.149 226.992C336.452 227.074 336.731 227.193 336.985 227.348C337.239 227.504 337.452 227.688 337.625 227.902L336.899 228.701C336.743 228.545 336.571 228.41 336.383 228.295C336.202 228.172 336.018 228.078 335.83 228.012C335.641 227.947 335.469 227.914 335.313 227.914C335.141 227.914 334.985 227.93 334.846 227.963C334.707 227.996 334.588 228.045 334.489 228.111C334.399 228.176 334.33 228.258 334.28 228.357C334.231 228.455 334.207 228.566 334.207 228.688C334.215 228.795 334.239 228.898 334.28 228.996C334.33 229.086 334.395 229.164 334.477 229.229C334.567 229.295 334.702 229.365 334.883 229.438C335.063 229.512 335.293 229.582 335.571 229.648C335.981 229.754 336.317 229.873 336.58 230.004C336.85 230.127 337.063 230.27 337.219 230.434C337.383 230.59 337.498 230.77 337.563 230.975C337.629 231.18 337.661 231.41 337.661 231.664C337.661 232.033 337.555 232.365 337.342 232.66C337.137 232.947 336.858 233.172 336.506 233.336C336.153 233.5 335.76 233.582 335.325 233.582ZM342.503 233.459V227.004H343.782V229.033L343.659 228.541C343.749 228.229 343.901 227.947 344.114 227.693C344.335 227.438 344.585 227.238 344.864 227.09C345.151 226.943 345.446 226.869 345.749 226.869C345.888 226.869 346.02 226.881 346.142 226.906C346.274 226.93 346.376 226.959 346.45 226.992L346.118 228.369C346.02 228.328 345.909 228.295 345.786 228.27C345.671 228.238 345.556 228.221 345.442 228.221C345.22 228.221 345.007 228.266 344.802 228.357C344.606 228.438 344.429 228.557 344.274 228.713C344.126 228.861 344.007 229.037 343.917 229.242C343.827 229.438 343.782 229.656 343.782 229.893V233.459H342.503ZM350.198 233.582C349.534 233.582 348.944 233.443 348.428 233.164C347.919 232.877 347.518 232.488 347.223 231.996C346.936 231.504 346.792 230.938 346.792 230.299C346.792 229.791 346.874 229.328 347.038 228.91C347.202 228.492 347.428 228.131 347.715 227.828C348.01 227.516 348.358 227.279 348.76 227.115C349.169 226.943 349.612 226.857 350.087 226.857C350.506 226.857 350.895 226.938 351.256 227.102C351.616 227.258 351.928 227.475 352.19 227.754C352.46 228.033 352.665 228.365 352.805 228.75C352.952 229.127 353.022 229.541 353.014 229.992L353.001 230.533H347.727L347.444 229.525H351.907L351.723 229.734V229.438C351.698 229.168 351.608 228.926 351.452 228.713C351.296 228.5 351.1 228.332 350.862 228.209C350.624 228.086 350.366 228.025 350.087 228.025C349.645 228.025 349.272 228.111 348.969 228.283C348.665 228.447 348.436 228.693 348.28 229.02C348.124 229.34 348.046 229.738 348.046 230.213C348.046 230.664 348.141 231.057 348.329 231.393C348.518 231.721 348.784 231.975 349.128 232.156C349.473 232.336 349.87 232.426 350.321 232.426C350.641 232.426 350.936 232.373 351.206 232.266C351.485 232.16 351.784 231.967 352.104 231.688L352.743 232.586C352.546 232.783 352.305 232.955 352.018 233.102C351.739 233.25 351.44 233.369 351.12 233.459C350.809 233.541 350.501 233.582 350.198 233.582ZM356.874 233.582C356.341 233.582 355.853 233.434 355.41 233.139C354.976 232.844 354.628 232.443 354.365 231.934C354.103 231.426 353.972 230.852 353.972 230.213C353.972 229.566 354.103 228.992 354.365 228.492C354.636 227.984 354.997 227.586 355.447 227.299C355.906 227.012 356.419 226.869 356.984 226.869C357.32 226.869 357.628 226.918 357.906 227.016C358.185 227.115 358.427 227.254 358.632 227.434C358.845 227.607 359.017 227.807 359.148 228.037C359.288 228.266 359.374 228.512 359.406 228.775L359.124 228.676V227.004H360.402V233.459H359.124V231.922L359.419 231.836C359.369 232.057 359.267 232.275 359.111 232.488C358.964 232.693 358.771 232.877 358.533 233.041C358.304 233.205 358.046 233.336 357.759 233.434C357.48 233.533 357.185 233.582 356.874 233.582ZM357.206 232.414C357.591 232.414 357.931 232.32 358.226 232.131C358.521 231.943 358.751 231.684 358.915 231.357C359.087 231.02 359.173 230.639 359.173 230.213C359.173 229.795 359.087 229.422 358.915 229.094C358.751 228.766 358.521 228.508 358.226 228.32C357.931 228.131 357.591 228.037 357.206 228.037C356.829 228.037 356.492 228.131 356.197 228.32C355.91 228.508 355.681 228.766 355.509 229.094C355.345 229.422 355.263 229.795 355.263 230.213C355.263 230.639 355.345 231.02 355.509 231.357C355.681 231.684 355.91 231.943 356.197 232.131C356.492 232.32 356.829 232.414 357.206 232.414ZM364.863 233.582C364.273 233.582 363.744 233.438 363.277 233.152C362.818 232.857 362.453 232.459 362.183 231.959C361.912 231.451 361.777 230.873 361.777 230.225C361.777 229.578 361.908 229.004 362.17 228.504C362.441 227.996 362.806 227.598 363.265 227.311C363.724 227.016 364.244 226.869 364.826 226.869C365.146 226.869 365.453 226.922 365.748 227.029C366.052 227.127 366.322 227.266 366.56 227.447C366.798 227.619 366.982 227.811 367.113 228.025C367.252 228.229 367.322 228.438 367.322 228.652L366.953 228.676V224.361H368.22V233.459H366.953V231.922H367.199C367.199 232.119 367.134 232.316 367.002 232.512C366.871 232.701 366.695 232.877 366.474 233.041C366.261 233.205 366.011 233.336 365.724 233.434C365.445 233.533 365.158 233.582 364.863 233.582ZM365.035 232.488C365.42 232.488 365.761 232.389 366.056 232.193C366.351 231.996 366.58 231.729 366.744 231.393C366.916 231.049 367.002 230.66 367.002 230.225C367.002 229.791 366.916 229.406 366.744 229.07C366.58 228.725 366.351 228.455 366.056 228.258C365.761 228.061 365.42 227.963 365.035 227.963C364.65 227.963 364.31 228.061 364.015 228.258C363.72 228.455 363.486 228.725 363.314 229.07C363.15 229.406 363.068 229.791 363.068 230.225C363.068 230.66 363.15 231.049 363.314 231.393C363.486 231.729 363.72 231.996 364.015 232.193C364.31 232.389 364.65 232.488 365.035 232.488Z" fill="white" fill-opacity="0.72"/>
<path d="M111.29 289.098V277.91H116.053C116.788 277.91 117.406 278.016 117.907 278.229C118.418 278.442 118.802 278.762 119.058 279.188C119.324 279.604 119.457 280.11 119.457 280.707C119.457 281.325 119.292 281.847 118.962 282.273C118.631 282.699 118.168 282.992 117.571 283.152L117.555 282.833C118.056 282.939 118.493 283.131 118.866 283.408C119.239 283.674 119.526 284.01 119.729 284.415C119.942 284.809 120.049 285.262 120.049 285.774C120.049 286.317 119.958 286.797 119.777 287.212C119.606 287.628 119.351 287.974 119.01 288.251C118.669 288.528 118.264 288.741 117.795 288.89C117.326 289.029 116.799 289.098 116.213 289.098H111.29ZM113.319 287.228H116.117C116.511 287.228 116.841 287.169 117.108 287.052C117.385 286.935 117.592 286.765 117.731 286.541C117.88 286.306 117.955 286.029 117.955 285.71C117.955 285.411 117.875 285.156 117.715 284.942C117.566 284.729 117.347 284.569 117.06 284.463C116.772 284.346 116.431 284.287 116.037 284.287H113.319V287.228ZM113.319 282.497H115.861C116.17 282.497 116.436 282.438 116.66 282.321C116.894 282.204 117.076 282.044 117.204 281.842C117.331 281.639 117.395 281.405 117.395 281.138C117.395 280.712 117.251 280.382 116.964 280.147C116.676 279.902 116.255 279.78 115.701 279.78H113.319V282.497ZM121.942 289.098V280.675H123.876L123.908 283.36L123.637 282.753C123.754 282.326 123.956 281.943 124.244 281.602C124.532 281.261 124.862 280.994 125.235 280.803C125.618 280.6 126.018 280.499 126.434 280.499C126.615 280.499 126.785 280.515 126.945 280.547C127.116 280.579 127.254 280.616 127.361 280.659L126.833 282.817C126.716 282.753 126.572 282.699 126.402 282.657C126.231 282.614 126.061 282.593 125.89 282.593C125.624 282.593 125.368 282.646 125.123 282.753C124.889 282.849 124.681 282.987 124.5 283.168C124.318 283.349 124.175 283.562 124.068 283.808C123.972 284.042 123.924 284.308 123.924 284.607V289.098H121.942ZM132.163 289.258C131.321 289.258 130.57 289.072 129.909 288.699C129.248 288.315 128.726 287.793 128.343 287.132C127.959 286.472 127.767 285.72 127.767 284.878C127.767 284.037 127.959 283.285 128.343 282.625C128.726 281.964 129.248 281.447 129.909 281.074C130.57 280.691 131.321 280.499 132.163 280.499C132.994 280.499 133.74 280.691 134.4 281.074C135.061 281.447 135.578 281.964 135.951 282.625C136.335 283.285 136.526 284.037 136.526 284.878C136.526 285.72 136.335 286.472 135.951 287.132C135.578 287.793 135.061 288.315 134.4 288.699C133.74 289.072 132.994 289.258 132.163 289.258ZM132.163 287.516C132.621 287.516 133.026 287.399 133.378 287.164C133.74 286.93 134.022 286.615 134.225 286.221C134.438 285.827 134.539 285.379 134.528 284.878C134.539 284.367 134.438 283.914 134.225 283.52C134.022 283.126 133.74 282.817 133.378 282.593C133.026 282.358 132.621 282.241 132.163 282.241C131.705 282.241 131.289 282.358 130.916 282.593C130.554 282.817 130.271 283.131 130.069 283.536C129.866 283.93 129.765 284.378 129.765 284.878C129.765 285.379 129.866 285.827 130.069 286.221C130.271 286.615 130.554 286.93 130.916 287.164C131.289 287.399 131.705 287.516 132.163 287.516ZM141.466 289.258C140.773 289.258 140.144 289.066 139.58 288.683C139.015 288.299 138.562 287.777 138.221 287.116C137.88 286.456 137.709 285.704 137.709 284.862C137.709 284.021 137.88 283.269 138.221 282.609C138.562 281.948 139.025 281.431 139.612 281.058C140.198 280.685 140.858 280.499 141.593 280.499C142.02 280.499 142.409 280.563 142.76 280.691C143.112 280.808 143.421 280.978 143.687 281.202C143.954 281.426 144.172 281.682 144.343 281.969C144.524 282.257 144.646 282.566 144.71 282.897L144.279 282.785V280.675H146.261V289.098H144.263V287.084L144.726 287.004C144.652 287.292 144.513 287.574 144.311 287.851C144.119 288.118 143.874 288.358 143.575 288.571C143.288 288.773 142.963 288.938 142.6 289.066C142.249 289.194 141.871 289.258 141.466 289.258ZM142.009 287.516C142.467 287.516 142.872 287.404 143.224 287.18C143.575 286.956 143.847 286.647 144.039 286.253C144.241 285.848 144.343 285.385 144.343 284.862C144.343 284.351 144.241 283.898 144.039 283.504C143.847 283.11 143.575 282.801 143.224 282.577C142.872 282.353 142.467 282.241 142.009 282.241C141.551 282.241 141.146 282.353 140.794 282.577C140.453 282.801 140.187 283.11 139.995 283.504C139.803 283.898 139.707 284.351 139.707 284.862C139.707 285.385 139.803 285.848 139.995 286.253C140.187 286.647 140.453 286.956 140.794 287.18C141.146 287.404 141.551 287.516 142.009 287.516ZM151.929 289.258C151.183 289.258 150.511 289.072 149.915 288.699C149.329 288.315 148.86 287.798 148.508 287.148C148.167 286.487 147.997 285.731 147.997 284.878C147.997 284.037 148.167 283.285 148.508 282.625C148.849 281.964 149.313 281.447 149.899 281.074C150.495 280.691 151.167 280.499 151.913 280.499C152.317 280.499 152.706 280.563 153.079 280.691C153.463 280.819 153.804 280.994 154.102 281.218C154.401 281.431 154.635 281.671 154.806 281.937C154.987 282.204 155.088 282.481 155.109 282.769L154.582 282.833V277.27H156.548V289.098H154.646L154.598 287.116L154.981 287.148C154.971 287.415 154.875 287.67 154.694 287.915C154.523 288.16 154.299 288.384 154.022 288.587C153.745 288.789 153.42 288.954 153.047 289.082C152.685 289.199 152.312 289.258 151.929 289.258ZM152.312 287.596C152.77 287.596 153.175 287.478 153.527 287.244C153.879 287.01 154.15 286.69 154.342 286.285C154.544 285.88 154.646 285.411 154.646 284.878C154.646 284.356 154.544 283.893 154.342 283.488C154.15 283.072 153.879 282.753 153.527 282.529C153.175 282.294 152.77 282.177 152.312 282.177C151.854 282.177 151.449 282.294 151.097 282.529C150.746 282.753 150.469 283.072 150.266 283.488C150.074 283.893 149.979 284.356 149.979 284.878C149.979 285.411 150.074 285.88 150.266 286.285C150.469 286.69 150.746 287.01 151.097 287.244C151.449 287.478 151.854 287.596 152.312 287.596ZM162.392 289.258C161.603 289.258 160.895 289.066 160.266 288.683C159.637 288.299 159.142 287.777 158.779 287.116C158.417 286.456 158.236 285.71 158.236 284.878C158.236 284.047 158.417 283.301 158.779 282.641C159.142 281.98 159.637 281.458 160.266 281.074C160.895 280.691 161.603 280.499 162.392 280.499C163.148 280.499 163.836 280.643 164.454 280.931C165.072 281.218 165.551 281.618 165.892 282.129L164.805 283.44C164.645 283.216 164.443 283.014 164.198 282.833C163.953 282.651 163.692 282.508 163.415 282.401C163.138 282.294 162.861 282.241 162.584 282.241C162.115 282.241 161.694 282.358 161.321 282.593C160.959 282.817 160.671 283.131 160.458 283.536C160.245 283.93 160.138 284.378 160.138 284.878C160.138 285.379 160.245 285.827 160.458 286.221C160.682 286.615 160.98 286.93 161.353 287.164C161.726 287.399 162.141 287.516 162.6 287.516C162.877 287.516 163.143 287.473 163.399 287.388C163.665 287.292 163.916 287.159 164.15 286.988C164.384 286.818 164.603 286.605 164.805 286.349L165.892 287.676C165.53 288.144 165.029 288.528 164.39 288.826C163.761 289.114 163.095 289.258 162.392 289.258ZM170.576 289.258C169.884 289.258 169.255 289.066 168.69 288.683C168.126 288.299 167.673 287.777 167.332 287.116C166.991 286.456 166.82 285.704 166.82 284.862C166.82 284.021 166.991 283.269 167.332 282.609C167.673 281.948 168.136 281.431 168.722 281.058C169.308 280.685 169.969 280.499 170.704 280.499C171.13 280.499 171.519 280.563 171.871 280.691C172.223 280.808 172.532 280.978 172.798 281.202C173.064 281.426 173.283 281.682 173.453 281.969C173.635 282.257 173.757 282.566 173.821 282.897L173.389 282.785V280.675H175.371V289.098H173.374V287.084L173.837 287.004C173.762 287.292 173.624 287.574 173.421 287.851C173.23 288.118 172.985 288.358 172.686 288.571C172.399 288.773 172.074 288.938 171.711 289.066C171.36 289.194 170.981 289.258 170.576 289.258ZM171.12 287.516C171.578 287.516 171.983 287.404 172.335 287.18C172.686 286.956 172.958 286.647 173.15 286.253C173.352 285.848 173.453 285.385 173.453 284.862C173.453 284.351 173.352 283.898 173.15 283.504C172.958 283.11 172.686 282.801 172.335 282.577C171.983 282.353 171.578 282.241 171.12 282.241C170.662 282.241 170.257 282.353 169.905 282.577C169.564 282.801 169.298 283.11 169.106 283.504C168.914 283.898 168.818 284.351 168.818 284.862C168.818 285.385 168.914 285.848 169.106 286.253C169.298 286.647 169.564 286.956 169.905 287.18C170.257 287.404 170.662 287.516 171.12 287.516ZM180.464 289.258C179.718 289.258 179.047 289.135 178.45 288.89C177.864 288.635 177.384 288.272 177.011 287.803L178.29 286.701C178.61 287.063 178.967 287.324 179.361 287.484C179.755 287.644 180.171 287.724 180.608 287.724C180.789 287.724 180.949 287.702 181.087 287.66C181.236 287.617 181.364 287.553 181.471 287.468C181.577 287.383 181.657 287.287 181.711 287.18C181.775 287.063 181.806 286.935 181.806 286.797C181.806 286.541 181.711 286.338 181.519 286.189C181.412 286.115 181.242 286.035 181.007 285.949C180.784 285.864 180.491 285.779 180.128 285.694C179.553 285.544 179.073 285.374 178.69 285.182C178.306 284.98 178.008 284.756 177.795 284.511C177.613 284.308 177.475 284.079 177.379 283.824C177.294 283.568 177.251 283.291 177.251 282.992C177.251 282.619 177.331 282.284 177.491 281.985C177.661 281.676 177.891 281.41 178.178 281.186C178.466 280.962 178.802 280.792 179.185 280.675C179.569 280.558 179.968 280.499 180.384 280.499C180.81 280.499 181.22 280.552 181.615 280.659C182.02 280.765 182.393 280.92 182.734 281.122C183.085 281.314 183.384 281.549 183.629 281.826L182.542 283.024C182.339 282.833 182.116 282.662 181.87 282.513C181.636 282.364 181.396 282.247 181.151 282.161C180.906 282.065 180.677 282.017 180.464 282.017C180.261 282.017 180.08 282.039 179.92 282.081C179.761 282.113 179.627 282.167 179.521 282.241C179.414 282.316 179.329 282.412 179.265 282.529C179.212 282.635 179.185 282.763 179.185 282.912C179.196 283.04 179.228 283.163 179.281 283.28C179.345 283.387 179.43 283.477 179.537 283.552C179.654 283.626 179.83 283.712 180.064 283.808C180.299 283.903 180.602 283.994 180.975 284.079C181.497 284.218 181.934 284.372 182.286 284.543C182.638 284.713 182.915 284.91 183.117 285.134C183.32 285.326 183.463 285.55 183.549 285.806C183.634 286.061 183.677 286.344 183.677 286.653C183.677 287.153 183.533 287.601 183.245 287.995C182.968 288.39 182.584 288.699 182.094 288.922C181.615 289.146 181.071 289.258 180.464 289.258ZM186.319 289.098V278.533H188.285V289.098H186.319ZM184.657 282.497V280.675H190.124V282.497H184.657Z" fill="#3B3B3B"/>
<rect x="109.787" y="308.754" width="248.361" height="8.60656" rx="4.30328" fill="#E4E6EA"/>
<rect x="109.787" y="327.197" width="221.311" height="8.60656" rx="4.30328" fill="#E4E6EA"/>
<rect x="109.787" y="345.639" width="194.262" height="8.60656" rx="4.30328" fill="#E4E6EA"/>
</g>
<defs>
<clipPath id="clip0_193_1470">
<rect width="480" height="540" fill="white"/>
</clipPath>
</defs>
</svg>
