<svg width="480" height="540" viewBox="0 0 480 540" fill="none" xmlns="http://www.w3.org/2000/svg">
<path d="M396 76H85C75.6112 76 68 83.6112 68 93V447C68 456.389 75.6112 464 85 464H396C405.389 464 413 456.389 413 447V93C413 83.6112 405.389 76 396 76Z" fill="#F1F5F7"/>
<path d="M91.358 121.21C90.28 121.21 89.286 121.028 88.376 120.664C87.48 120.286 86.696 119.761 86.024 119.089C85.366 118.403 84.855 117.598 84.491 116.674C84.127 115.736 83.945 114.714 83.945 113.608C83.945 112.53 84.134 111.536 84.512 110.626C84.89 109.702 85.422 108.904 86.108 108.232C86.794 107.546 87.599 107.014 88.523 106.636C89.447 106.258 90.448 106.069 91.526 106.069C92.226 106.069 92.912 106.167 93.584 106.363C94.27 106.545 94.893 106.818 95.453 107.182C96.027 107.546 96.517 107.98 96.923 108.484L94.949 110.668C94.627 110.332 94.284 110.045 93.92 109.807C93.556 109.555 93.171 109.366 92.765 109.24C92.373 109.1 91.953 109.03 91.505 109.03C90.903 109.03 90.336 109.142 89.804 109.366C89.286 109.59 88.831 109.905 88.439 110.311C88.047 110.703 87.732 111.186 87.494 111.76C87.27 112.32 87.158 112.943 87.158 113.629C87.158 114.329 87.27 114.966 87.494 115.54C87.718 116.1 88.033 116.583 88.439 116.989C88.845 117.381 89.328 117.689 89.888 117.913C90.462 118.123 91.092 118.228 91.778 118.228C92.226 118.228 92.66 118.165 93.08 118.039C93.5 117.913 93.885 117.738 94.235 117.514C94.599 117.29 94.921 117.031 95.201 116.737L96.755 119.194C96.405 119.572 95.943 119.915 95.369 120.223C94.809 120.531 94.179 120.776 93.479 120.958C92.779 121.126 92.072 121.21 91.358 121.21ZM98.9695 121V109.891H101.847L101.952 113.461L101.448 112.726C101.616 112.152 101.889 111.634 102.267 111.172C102.645 110.696 103.086 110.325 103.59 110.059C104.108 109.793 104.647 109.66 105.207 109.66C105.445 109.66 105.676 109.681 105.9 109.723C106.124 109.765 106.313 109.814 106.467 109.87L105.669 113.146C105.515 113.062 105.312 112.992 105.06 112.936C104.822 112.866 104.577 112.831 104.325 112.831C103.989 112.831 103.674 112.894 103.38 113.02C103.1 113.132 102.855 113.3 102.645 113.524C102.435 113.734 102.267 113.986 102.141 114.28C102.029 114.574 101.973 114.896 101.973 115.246V121H98.9695ZM112.977 121.21C111.773 121.21 110.716 120.965 109.806 120.475C108.91 119.985 108.21 119.313 107.706 118.459C107.216 117.605 106.971 116.625 106.971 115.519C106.971 114.651 107.111 113.86 107.391 113.146C107.671 112.432 108.063 111.816 108.567 111.298C109.071 110.766 109.666 110.36 110.352 110.08C111.052 109.786 111.808 109.639 112.62 109.639C113.376 109.639 114.076 109.779 114.72 110.059C115.364 110.339 115.917 110.731 116.379 111.235C116.855 111.725 117.219 112.313 117.471 112.999C117.723 113.671 117.835 114.399 117.807 115.183L117.786 116.107H108.861L108.378 114.28H115.329L114.993 114.658V114.196C114.965 113.818 114.839 113.482 114.615 113.188C114.405 112.88 114.132 112.642 113.796 112.474C113.46 112.292 113.082 112.201 112.662 112.201C112.046 112.201 111.521 112.32 111.087 112.558C110.667 112.796 110.345 113.146 110.121 113.608C109.897 114.07 109.785 114.63 109.785 115.288C109.785 115.96 109.925 116.541 110.205 117.031C110.499 117.521 110.905 117.906 111.423 118.186C111.955 118.452 112.578 118.585 113.292 118.585C113.782 118.585 114.23 118.508 114.636 118.354C115.042 118.2 115.476 117.934 115.938 117.556L117.366 119.551C116.96 119.915 116.512 120.223 116.022 120.475C115.532 120.713 115.028 120.895 114.51 121.021C113.992 121.147 113.481 121.21 112.977 121.21ZM124.169 121.21C123.245 121.21 122.412 120.958 121.67 120.454C120.928 119.95 120.34 119.264 119.906 118.396C119.472 117.528 119.255 116.534 119.255 115.414C119.255 114.294 119.472 113.3 119.906 112.432C120.354 111.564 120.956 110.885 121.712 110.395C122.468 109.905 123.329 109.66 124.295 109.66C124.841 109.66 125.338 109.744 125.786 109.912C126.248 110.066 126.647 110.283 126.983 110.563C127.333 110.843 127.627 111.165 127.865 111.529C128.103 111.893 128.271 112.285 128.369 112.705L127.739 112.6V109.891H130.7V121H127.697V118.333L128.369 118.27C128.257 118.662 128.075 119.033 127.823 119.383C127.571 119.733 127.256 120.048 126.878 120.328C126.514 120.594 126.101 120.811 125.639 120.979C125.177 121.133 124.687 121.21 124.169 121.21ZM124.988 118.627C125.548 118.627 126.038 118.494 126.458 118.228C126.878 117.962 127.2 117.591 127.424 117.115C127.662 116.625 127.781 116.058 127.781 115.414C127.781 114.784 127.662 114.231 127.424 113.755C127.2 113.279 126.878 112.908 126.458 112.642C126.038 112.362 125.548 112.222 124.988 112.222C124.442 112.222 123.959 112.362 123.539 112.642C123.133 112.908 122.811 113.279 122.573 113.755C122.335 114.231 122.216 114.784 122.216 115.414C122.216 116.058 122.335 116.625 122.573 117.115C122.811 117.591 123.133 117.962 123.539 118.228C123.959 118.494 124.442 118.627 124.988 118.627ZM134.76 121V107.077H137.742V121H134.76ZM132.681 112.558V109.891H140.031V112.558H132.681ZM147.122 121.21C145.918 121.21 144.861 120.965 143.951 120.475C143.055 119.985 142.355 119.313 141.851 118.459C141.361 117.605 141.116 116.625 141.116 115.519C141.116 114.651 141.256 113.86 141.536 113.146C141.816 112.432 142.208 111.816 142.712 111.298C143.216 110.766 143.811 110.36 144.497 110.08C145.197 109.786 145.953 109.639 146.765 109.639C147.521 109.639 148.221 109.779 148.865 110.059C149.509 110.339 150.062 110.731 150.524 111.235C151 111.725 151.364 112.313 151.616 112.999C151.868 113.671 151.98 114.399 151.952 115.183L151.931 116.107H143.006L142.523 114.28H149.474L149.138 114.658V114.196C149.11 113.818 148.984 113.482 148.76 113.188C148.55 112.88 148.277 112.642 147.941 112.474C147.605 112.292 147.227 112.201 146.807 112.201C146.191 112.201 145.666 112.32 145.232 112.558C144.812 112.796 144.49 113.146 144.266 113.608C144.042 114.07 143.93 114.63 143.93 115.288C143.93 115.96 144.07 116.541 144.35 117.031C144.644 117.521 145.05 117.906 145.568 118.186C146.1 118.452 146.723 118.585 147.437 118.585C147.927 118.585 148.375 118.508 148.781 118.354C149.187 118.2 149.621 117.934 150.083 117.556L151.511 119.551C151.105 119.915 150.657 120.223 150.167 120.475C149.677 120.713 149.173 120.895 148.655 121.021C148.137 121.147 147.626 121.21 147.122 121.21ZM161.015 121V106.3H163.829L171.956 117.283H171.368C171.312 116.849 171.263 116.429 171.221 116.023C171.179 115.603 171.137 115.183 171.095 114.763C171.067 114.329 171.039 113.888 171.011 113.44C170.997 112.978 170.983 112.495 170.969 111.991C170.955 111.473 170.948 110.913 170.948 110.311V106.3H174.035V121H171.179L162.884 109.912L163.682 109.933C163.752 110.661 163.808 111.284 163.85 111.802C163.906 112.306 163.948 112.747 163.976 113.125C164.018 113.503 164.046 113.832 164.06 114.112C164.074 114.392 164.081 114.658 164.081 114.91C164.095 115.162 164.102 115.428 164.102 115.708V121H161.015ZM182.703 121.21C181.499 121.21 180.442 120.965 179.532 120.475C178.636 119.985 177.936 119.313 177.432 118.459C176.942 117.605 176.697 116.625 176.697 115.519C176.697 114.651 176.837 113.86 177.117 113.146C177.397 112.432 177.789 111.816 178.293 111.298C178.797 110.766 179.392 110.36 180.078 110.08C180.778 109.786 181.534 109.639 182.346 109.639C183.102 109.639 183.802 109.779 184.446 110.059C185.09 110.339 185.643 110.731 186.105 111.235C186.581 111.725 186.945 112.313 187.197 112.999C187.449 113.671 187.561 114.399 187.533 115.183L187.512 116.107H178.587L178.104 114.28H185.055L184.719 114.658V114.196C184.691 113.818 184.565 113.482 184.341 113.188C184.131 112.88 183.858 112.642 183.522 112.474C183.186 112.292 182.808 112.201 182.388 112.201C181.772 112.201 181.247 112.32 180.813 112.558C180.393 112.796 180.071 113.146 179.847 113.608C179.623 114.07 179.511 114.63 179.511 115.288C179.511 115.96 179.651 116.541 179.931 117.031C180.225 117.521 180.631 117.906 181.149 118.186C181.681 118.452 182.304 118.585 183.018 118.585C183.508 118.585 183.956 118.508 184.362 118.354C184.768 118.2 185.202 117.934 185.664 117.556L187.092 119.551C186.686 119.915 186.238 120.223 185.748 120.475C185.258 120.713 184.754 120.895 184.236 121.021C183.718 121.147 183.207 121.21 182.703 121.21ZM192.073 121L188.356 109.891L191.464 109.87L193.732 117.451L193.27 117.388L195.769 111.487H197.533L200.137 117.409L199.633 117.451L201.901 109.891H205.009L201.229 121H199.066L196.441 114.679L196.777 114.721L194.215 121H192.073ZM213.68 121V106.3H220.19C221.1 106.3 221.926 106.51 222.668 106.93C223.41 107.336 223.991 107.889 224.411 108.589C224.845 109.289 225.062 110.087 225.062 110.983C225.062 111.865 224.845 112.67 224.411 113.398C223.991 114.112 223.41 114.679 222.668 115.099C221.926 115.519 221.1 115.729 220.19 115.729H216.725V121H213.68ZM222.017 121L218.279 114.364L221.513 113.839L225.671 121.021L222.017 121ZM216.725 113.167H220.043C220.421 113.167 220.75 113.083 221.03 112.915C221.324 112.733 221.548 112.488 221.702 112.18C221.856 111.858 221.933 111.501 221.933 111.109C221.933 110.689 221.842 110.325 221.66 110.017C221.478 109.709 221.212 109.471 220.862 109.303C220.512 109.121 220.106 109.03 219.644 109.03H216.725V113.167ZM232.825 121.21C231.621 121.21 230.564 120.965 229.654 120.475C228.758 119.985 228.058 119.313 227.554 118.459C227.064 117.605 226.819 116.625 226.819 115.519C226.819 114.651 226.959 113.86 227.239 113.146C227.519 112.432 227.911 111.816 228.415 111.298C228.919 110.766 229.514 110.36 230.2 110.08C230.9 109.786 231.656 109.639 232.468 109.639C233.224 109.639 233.924 109.779 234.568 110.059C235.212 110.339 235.765 110.731 236.227 111.235C236.703 111.725 237.067 112.313 237.319 112.999C237.571 113.671 237.683 114.399 237.655 115.183L237.633 116.107H228.709L228.226 114.28H235.177L234.841 114.658V114.196C234.813 113.818 234.687 113.482 234.463 113.188C234.253 112.88 233.98 112.642 233.644 112.474C233.308 112.292 232.93 112.201 232.51 112.201C231.894 112.201 231.369 112.32 230.935 112.558C230.515 112.796 230.193 113.146 229.969 113.608C229.745 114.07 229.633 114.63 229.633 115.288C229.633 115.96 229.773 116.541 230.053 117.031C230.347 117.521 230.753 117.906 231.271 118.186C231.803 118.452 232.426 118.585 233.14 118.585C233.63 118.585 234.078 118.508 234.484 118.354C234.89 118.2 235.324 117.934 235.786 117.556L237.214 119.551C236.808 119.915 236.36 120.223 235.87 120.475C235.38 120.713 234.876 120.895 234.358 121.021C233.84 121.147 233.329 121.21 232.825 121.21ZM247.523 125.62V118.333L248.132 118.438C248.104 118.788 247.971 119.131 247.733 119.467C247.509 119.789 247.208 120.083 246.83 120.349C246.466 120.615 246.06 120.825 245.612 120.979C245.164 121.133 244.695 121.21 244.205 121.21C243.225 121.21 242.35 120.965 241.58 120.475C240.824 119.971 240.222 119.285 239.774 118.417C239.34 117.549 239.123 116.555 239.123 115.435C239.123 114.315 239.34 113.321 239.774 112.453C240.208 111.585 240.803 110.906 241.559 110.416C242.315 109.912 243.169 109.66 244.121 109.66C244.667 109.66 245.178 109.744 245.654 109.912C246.144 110.066 246.578 110.276 246.956 110.542C247.334 110.808 247.642 111.109 247.88 111.445C248.118 111.781 248.251 112.131 248.279 112.495L247.544 112.6L247.649 109.87H250.505V125.62H247.523ZM244.814 118.627C245.374 118.627 245.864 118.494 246.284 118.228C246.704 117.962 247.026 117.591 247.25 117.115C247.488 116.639 247.607 116.079 247.607 115.435C247.607 114.791 247.488 114.231 247.25 113.755C247.026 113.265 246.704 112.887 246.284 112.621C245.864 112.355 245.374 112.222 244.814 112.222C244.254 112.222 243.764 112.362 243.344 112.642C242.924 112.908 242.595 113.286 242.357 113.776C242.133 114.252 242.021 114.805 242.021 115.435C242.021 116.065 242.133 116.625 242.357 117.115C242.595 117.591 242.924 117.962 243.344 118.228C243.764 118.494 244.254 118.627 244.814 118.627ZM257.318 121.21C256.506 121.21 255.806 121.035 255.218 120.685C254.644 120.321 254.196 119.81 253.874 119.152C253.566 118.48 253.412 117.675 253.412 116.737V109.891H256.394V116.254C256.394 116.758 256.478 117.199 256.646 117.577C256.814 117.941 257.052 118.221 257.36 118.417C257.668 118.613 258.046 118.711 258.494 118.711C258.816 118.711 259.11 118.662 259.376 118.564C259.656 118.452 259.894 118.298 260.09 118.102C260.3 117.906 260.461 117.675 260.573 117.409C260.685 117.143 260.741 116.856 260.741 116.548V109.891H263.723V121H260.888L260.783 118.711L261.329 118.459C261.161 118.977 260.881 119.446 260.489 119.866C260.097 120.286 259.628 120.615 259.082 120.853C258.536 121.091 257.948 121.21 257.318 121.21ZM271.994 121.21C270.79 121.21 269.733 120.965 268.823 120.475C267.927 119.985 267.227 119.313 266.723 118.459C266.233 117.605 265.988 116.625 265.988 115.519C265.988 114.651 266.128 113.86 266.408 113.146C266.688 112.432 267.08 111.816 267.584 111.298C268.088 110.766 268.683 110.36 269.369 110.08C270.069 109.786 270.825 109.639 271.637 109.639C272.393 109.639 273.093 109.779 273.737 110.059C274.381 110.339 274.934 110.731 275.396 111.235C275.872 111.725 276.236 112.313 276.488 112.999C276.74 113.671 276.852 114.399 276.824 115.183L276.803 116.107H267.878L267.395 114.28H274.346L274.01 114.658V114.196C273.982 113.818 273.856 113.482 273.632 113.188C273.422 112.88 273.149 112.642 272.813 112.474C272.477 112.292 272.099 112.201 271.679 112.201C271.063 112.201 270.538 112.32 270.104 112.558C269.684 112.796 269.362 113.146 269.138 113.608C268.914 114.07 268.802 114.63 268.802 115.288C268.802 115.96 268.942 116.541 269.222 117.031C269.516 117.521 269.922 117.906 270.44 118.186C270.972 118.452 271.595 118.585 272.309 118.585C272.799 118.585 273.247 118.508 273.653 118.354C274.059 118.2 274.493 117.934 274.955 117.556L276.383 119.551C275.977 119.915 275.529 120.223 275.039 120.475C274.549 120.713 274.045 120.895 273.527 121.021C273.009 121.147 272.498 121.21 271.994 121.21ZM282.766 121.21C281.73 121.21 280.806 121.042 279.994 120.706C279.196 120.356 278.552 119.88 278.062 119.278L279.931 117.682C280.351 118.144 280.827 118.48 281.359 118.69C281.891 118.886 282.423 118.984 282.955 118.984C283.165 118.984 283.354 118.963 283.522 118.921C283.704 118.865 283.858 118.795 283.984 118.711C284.11 118.613 284.201 118.501 284.257 118.375C284.327 118.235 284.362 118.088 284.362 117.934C284.362 117.626 284.236 117.388 283.984 117.22C283.844 117.136 283.627 117.045 283.333 116.947C283.039 116.835 282.661 116.716 282.199 116.59C281.485 116.408 280.876 116.198 280.372 115.96C279.882 115.708 279.49 115.428 279.196 115.12C278.944 114.826 278.748 114.511 278.608 114.175C278.482 113.825 278.419 113.44 278.419 113.02C278.419 112.516 278.531 112.061 278.755 111.655C278.979 111.235 279.287 110.878 279.679 110.584C280.085 110.29 280.547 110.066 281.065 109.912C281.583 109.744 282.129 109.66 282.703 109.66C283.277 109.66 283.837 109.73 284.383 109.87C284.929 110.01 285.433 110.213 285.895 110.479C286.371 110.731 286.784 111.032 287.134 111.382L285.538 113.146C285.286 112.908 284.999 112.691 284.677 112.495C284.369 112.299 284.047 112.145 283.711 112.033C283.375 111.921 283.074 111.865 282.808 111.865C282.57 111.865 282.353 111.886 282.157 111.928C281.975 111.97 281.821 112.04 281.695 112.138C281.569 112.222 281.471 112.327 281.401 112.453C281.345 112.579 281.317 112.719 281.317 112.873C281.317 113.027 281.352 113.174 281.422 113.314C281.506 113.454 281.618 113.573 281.758 113.671C281.912 113.755 282.136 113.853 282.43 113.965C282.738 114.077 283.151 114.203 283.669 114.343C284.341 114.525 284.908 114.728 285.37 114.952C285.846 115.176 286.224 115.435 286.504 115.729C286.742 115.981 286.917 116.268 287.029 116.59C287.141 116.912 287.197 117.269 287.197 117.661C287.197 118.347 287.001 118.956 286.609 119.488C286.231 120.02 285.706 120.44 285.034 120.748C284.362 121.056 283.606 121.21 282.766 121.21ZM290.394 121V107.077H293.376V121H290.394ZM288.315 112.558V109.891H295.665V112.558H288.315Z" fill="black"/>
<rect x="82" y="137" width="146" height="37" rx="7" fill="#EAF37E"/>
<path d="M96.315 161.136C95.727 161.136 95.1888 161.063 94.7003 160.919C94.2208 160.774 93.7911 160.561 93.4112 160.281C93.0403 160 92.7056 159.661 92.4071 159.263L93.6826 157.811C94.1258 158.426 94.5646 158.847 94.9988 159.073C95.4421 159.29 95.9215 159.399 96.4371 159.399C96.7176 159.399 96.9663 159.358 97.1834 159.277C97.4096 159.195 97.586 159.087 97.7126 158.951C97.8393 158.806 97.9026 158.634 97.9026 158.435C97.9026 158.291 97.871 158.16 97.8076 158.042C97.7443 157.915 97.6538 157.807 97.5362 157.716C97.4186 157.617 97.2784 157.531 97.1156 157.458C96.9528 157.377 96.7718 157.309 96.5728 157.255C96.3738 157.192 96.1567 157.142 95.9215 157.106C95.4149 156.988 94.9717 156.848 94.5917 156.685C94.2118 156.513 93.8952 156.305 93.6419 156.061C93.3886 155.808 93.1986 155.523 93.072 155.206C92.9544 154.889 92.8956 154.532 92.8956 154.134C92.8956 153.727 92.986 153.351 93.167 153.008C93.3479 152.655 93.5966 152.352 93.9133 152.099C94.2389 151.845 94.6098 151.651 95.0259 151.515C95.4511 151.379 95.8989 151.312 96.3693 151.312C96.9482 151.312 97.4548 151.375 97.889 151.502C98.3233 151.628 98.6987 151.818 99.0153 152.071C99.341 152.316 99.6123 152.614 99.8294 152.967L98.5404 154.215C98.3504 153.962 98.1423 153.75 97.9162 153.578C97.6991 153.406 97.4594 153.279 97.197 153.198C96.9437 153.107 96.6814 153.062 96.41 153.062C96.1115 153.062 95.8537 153.103 95.6366 153.184C95.4194 153.256 95.2476 153.37 95.1209 153.523C95.0033 153.668 94.9445 153.84 94.9445 154.039C94.9445 154.202 94.9852 154.347 95.0666 154.473C95.1481 154.6 95.2657 154.713 95.4194 154.812C95.5732 154.903 95.7587 154.984 95.9758 155.057C96.1929 155.129 96.4326 155.192 96.695 155.247C97.1925 155.346 97.6403 155.477 98.0383 155.64C98.4363 155.803 98.7756 156.002 99.056 156.237C99.3455 156.463 99.5671 156.735 99.7209 157.051C99.8747 157.359 99.9516 157.707 99.9516 158.096C99.9516 158.738 99.7978 159.286 99.4902 159.738C99.1826 160.19 98.7575 160.539 98.2147 160.783C97.6719 161.018 97.0387 161.136 96.315 161.136ZM101.51 161V153.822H103.369L103.41 155.192L103.125 155.247C103.224 155.011 103.356 154.799 103.518 154.609C103.69 154.419 103.885 154.256 104.102 154.12C104.319 153.985 104.55 153.881 104.794 153.808C105.038 153.727 105.282 153.686 105.527 153.686C105.898 153.686 106.232 153.745 106.531 153.863C106.829 153.98 107.083 154.166 107.291 154.419C107.499 154.663 107.662 154.989 107.779 155.396L107.481 155.369L107.576 155.152C107.693 154.935 107.842 154.736 108.023 154.555C108.204 154.374 108.408 154.22 108.634 154.093C108.86 153.967 109.095 153.867 109.34 153.795C109.584 153.722 109.824 153.686 110.059 153.686C110.62 153.686 111.085 153.799 111.456 154.025C111.827 154.243 112.103 154.573 112.284 155.016C112.474 155.459 112.569 156.002 112.569 156.644V161H110.642V156.78C110.642 156.454 110.597 156.187 110.507 155.979C110.416 155.771 110.285 155.618 110.113 155.518C109.941 155.409 109.72 155.355 109.448 155.355C109.24 155.355 109.046 155.391 108.865 155.464C108.693 155.527 108.539 155.622 108.403 155.749C108.277 155.866 108.177 156.011 108.105 156.183C108.032 156.346 107.996 156.522 107.996 156.712V161H106.056V156.766C106.056 156.468 106.011 156.215 105.92 156.007C105.83 155.789 105.698 155.627 105.527 155.518C105.355 155.409 105.142 155.355 104.889 155.355C104.681 155.355 104.486 155.391 104.305 155.464C104.134 155.527 103.984 155.622 103.858 155.749C103.731 155.866 103.631 156.007 103.559 156.169C103.487 156.332 103.451 156.509 103.451 156.699V161H101.51ZM117.091 161.136C116.494 161.136 115.955 160.973 115.476 160.647C114.996 160.322 114.616 159.878 114.336 159.317C114.056 158.757 113.915 158.114 113.915 157.391C113.915 156.667 114.056 156.025 114.336 155.464C114.625 154.903 115.014 154.464 115.503 154.148C115.991 153.831 116.548 153.673 117.172 153.673C117.525 153.673 117.846 153.727 118.135 153.835C118.434 153.935 118.692 154.075 118.909 154.256C119.135 154.437 119.325 154.645 119.479 154.88C119.633 155.115 119.741 155.369 119.804 155.64L119.397 155.572V153.822H121.311V161H119.37V159.277L119.804 159.236C119.732 159.489 119.614 159.729 119.452 159.955C119.289 160.181 119.085 160.385 118.841 160.566C118.606 160.738 118.339 160.878 118.04 160.986C117.742 161.086 117.425 161.136 117.091 161.136ZM117.62 159.467C117.982 159.467 118.298 159.381 118.57 159.209C118.841 159.037 119.049 158.797 119.194 158.49C119.348 158.173 119.424 157.807 119.424 157.391C119.424 156.984 119.348 156.626 119.194 156.319C119.049 156.011 118.841 155.771 118.57 155.599C118.298 155.419 117.982 155.328 117.62 155.328C117.267 155.328 116.955 155.419 116.683 155.599C116.421 155.771 116.213 156.011 116.059 156.319C115.906 156.626 115.829 156.984 115.829 157.391C115.829 157.807 115.906 158.173 116.059 158.49C116.213 158.797 116.421 159.037 116.683 159.209C116.955 159.381 117.267 159.467 117.62 159.467ZM123.242 161V153.822H125.101L125.169 156.129L124.844 155.654C124.952 155.283 125.129 154.948 125.373 154.65C125.617 154.342 125.902 154.102 126.228 153.93C126.562 153.759 126.911 153.673 127.272 153.673C127.426 153.673 127.576 153.686 127.72 153.713C127.865 153.74 127.987 153.772 128.087 153.808L127.571 155.925C127.471 155.871 127.34 155.826 127.177 155.789C127.024 155.744 126.865 155.722 126.703 155.722C126.485 155.722 126.282 155.762 126.092 155.844C125.911 155.916 125.753 156.025 125.617 156.169C125.481 156.305 125.373 156.468 125.291 156.658C125.219 156.848 125.183 157.056 125.183 157.282V161H123.242ZM130.149 161V152.004H132.076V161H130.149ZM128.806 155.545V153.822H133.555V155.545H128.806ZM139.23 161V151.502H141.265V161H139.23ZM140.166 157.228V155.477H145.078V157.228H140.166ZM140.166 153.333V151.502H145.648V153.333H140.166ZM150.419 161.136C149.687 161.136 149.031 160.977 148.452 160.661C147.882 160.335 147.43 159.892 147.095 159.331C146.769 158.77 146.606 158.128 146.606 157.404C146.606 156.68 146.769 156.038 147.095 155.477C147.43 154.916 147.882 154.478 148.452 154.161C149.031 153.835 149.687 153.673 150.419 153.673C151.143 153.673 151.79 153.835 152.36 154.161C152.939 154.478 153.391 154.916 153.717 155.477C154.042 156.038 154.205 156.68 154.205 157.404C154.205 158.128 154.042 158.77 153.717 159.331C153.391 159.892 152.939 160.335 152.36 160.661C151.79 160.977 151.143 161.136 150.419 161.136ZM150.419 159.453C150.772 159.453 151.089 159.367 151.369 159.195C151.65 159.014 151.867 158.77 152.021 158.463C152.183 158.146 152.26 157.793 152.251 157.404C152.26 157.006 152.183 156.653 152.021 156.346C151.867 156.029 151.65 155.785 151.369 155.613C151.089 155.432 150.772 155.342 150.419 155.342C150.058 155.342 149.736 155.432 149.456 155.613C149.176 155.794 148.954 156.038 148.791 156.346C148.628 156.653 148.551 157.006 148.56 157.404C148.551 157.793 148.628 158.146 148.791 158.463C148.954 158.77 149.176 159.014 149.456 159.195C149.736 159.367 150.058 159.453 150.419 159.453ZM155.668 161V153.822H157.527L157.595 156.129L157.269 155.654C157.378 155.283 157.554 154.948 157.798 154.65C158.043 154.342 158.328 154.102 158.653 153.93C158.988 153.759 159.336 153.673 159.698 153.673C159.852 153.673 160.001 153.686 160.146 153.713C160.291 153.74 160.413 153.772 160.512 153.808L159.997 155.925C159.897 155.871 159.766 155.826 159.603 155.789C159.449 155.744 159.291 155.722 159.128 155.722C158.911 155.722 158.708 155.762 158.518 155.844C158.337 155.916 158.178 156.025 158.043 156.169C157.907 156.305 157.798 156.468 157.717 156.658C157.645 156.848 157.609 157.056 157.609 157.282V161H155.668ZM161.604 161V153.822H163.463L163.504 155.192L163.219 155.247C163.319 155.011 163.45 154.799 163.613 154.609C163.784 154.419 163.979 154.256 164.196 154.12C164.413 153.985 164.644 153.881 164.888 153.808C165.132 153.727 165.377 153.686 165.621 153.686C165.992 153.686 166.326 153.745 166.625 153.863C166.923 153.98 167.177 154.166 167.385 154.419C167.593 154.663 167.756 154.989 167.873 155.396L167.575 155.369L167.67 155.152C167.787 154.935 167.937 154.736 168.118 154.555C168.298 154.374 168.502 154.22 168.728 154.093C168.954 153.967 169.19 153.867 169.434 153.795C169.678 153.722 169.918 153.686 170.153 153.686C170.714 153.686 171.18 153.799 171.551 154.025C171.921 154.243 172.197 154.573 172.378 155.016C172.568 155.459 172.663 156.002 172.663 156.644V161H170.736V156.78C170.736 156.454 170.691 156.187 170.601 155.979C170.51 155.771 170.379 155.618 170.207 155.518C170.035 155.409 169.814 155.355 169.542 155.355C169.334 155.355 169.14 155.391 168.959 155.464C168.787 155.527 168.633 155.622 168.497 155.749C168.371 155.866 168.271 156.011 168.199 156.183C168.127 156.346 168.09 156.522 168.09 156.712V161H166.15V156.766C166.15 156.468 166.105 156.215 166.014 156.007C165.924 155.789 165.793 155.627 165.621 155.518C165.449 155.409 165.236 155.355 164.983 155.355C164.775 155.355 164.581 155.391 164.4 155.464C164.228 155.527 164.078 155.622 163.952 155.749C163.825 155.866 163.726 156.007 163.653 156.169C163.581 156.332 163.545 156.509 163.545 156.699V161H161.604ZM178.93 161V151.502H180.966V161H178.93ZM179.867 157.228V155.477H184.779V157.228H179.867ZM179.867 153.333V151.502H185.349V153.333H179.867ZM187.144 161V153.822H189.07V161H187.144ZM188.093 152.356C187.722 152.356 187.433 152.266 187.225 152.085C187.017 151.895 186.913 151.633 186.913 151.298C186.913 150.99 187.017 150.742 187.225 150.552C187.442 150.353 187.732 150.253 188.093 150.253C188.464 150.253 188.754 150.348 188.962 150.538C189.17 150.719 189.274 150.972 189.274 151.298C189.274 151.606 189.165 151.859 188.948 152.058C188.74 152.257 188.455 152.356 188.093 152.356ZM194.534 161.136C193.756 161.136 193.073 160.977 192.485 160.661C191.906 160.344 191.454 159.91 191.128 159.358C190.812 158.806 190.653 158.173 190.653 157.458C190.653 156.898 190.744 156.386 190.925 155.925C191.106 155.464 191.359 155.066 191.685 154.731C192.01 154.387 192.395 154.125 192.838 153.944C193.29 153.754 193.779 153.659 194.304 153.659C194.792 153.659 195.244 153.75 195.66 153.93C196.077 154.111 196.434 154.365 196.732 154.69C197.04 155.007 197.275 155.387 197.438 155.83C197.601 156.264 197.673 156.735 197.655 157.241L197.642 157.838H191.875L191.563 156.658H196.054L195.837 156.902V156.604C195.819 156.359 195.737 156.142 195.593 155.952C195.457 155.753 195.281 155.599 195.063 155.491C194.846 155.373 194.602 155.314 194.331 155.314C193.933 155.314 193.593 155.391 193.313 155.545C193.042 155.699 192.834 155.925 192.689 156.224C192.544 156.522 192.472 156.884 192.472 157.309C192.472 157.743 192.562 158.119 192.743 158.435C192.933 158.752 193.195 159.001 193.53 159.182C193.874 159.354 194.276 159.44 194.738 159.44C195.054 159.44 195.344 159.39 195.606 159.29C195.869 159.191 196.149 159.019 196.447 158.775L197.37 160.064C197.108 160.299 196.818 160.498 196.502 160.661C196.185 160.815 195.859 160.932 195.525 161.014C195.19 161.095 194.86 161.136 194.534 161.136ZM199.093 161V150.959H201.019V161H199.093ZM205.651 161.136C205.018 161.136 204.453 160.977 203.955 160.661C203.467 160.335 203.078 159.896 202.788 159.345C202.508 158.784 202.367 158.137 202.367 157.404C202.367 156.69 202.508 156.052 202.788 155.491C203.078 154.921 203.467 154.478 203.955 154.161C204.453 153.835 205.018 153.673 205.651 153.673C205.986 153.673 206.307 153.727 206.615 153.835C206.931 153.935 207.212 154.075 207.456 154.256C207.709 154.437 207.913 154.641 208.067 154.867C208.22 155.084 208.306 155.31 208.324 155.545L207.836 155.64V150.959H209.776V161H207.944L207.863 159.345L208.243 159.385C208.225 159.611 208.143 159.829 207.999 160.037C207.854 160.245 207.659 160.435 207.415 160.606C207.18 160.769 206.909 160.9 206.601 161C206.303 161.09 205.986 161.136 205.651 161.136ZM206.085 159.535C206.447 159.535 206.764 159.444 207.035 159.263C207.307 159.082 207.519 158.833 207.673 158.517C207.827 158.2 207.904 157.829 207.904 157.404C207.904 156.988 207.827 156.622 207.673 156.305C207.519 155.988 207.307 155.74 207.035 155.559C206.764 155.378 206.447 155.287 206.085 155.287C205.724 155.287 205.407 155.378 205.136 155.559C204.873 155.74 204.665 155.988 204.511 156.305C204.367 156.622 204.294 156.988 204.294 157.404C204.294 157.829 204.367 158.2 204.511 158.517C204.665 158.833 204.873 159.082 205.136 159.263C205.407 159.444 205.724 159.535 206.085 159.535ZM214.057 161.136C213.387 161.136 212.79 161.027 212.265 160.81C211.75 160.584 211.334 160.276 211.017 159.887L212.225 158.856C212.496 159.155 212.804 159.372 213.147 159.507C213.491 159.634 213.835 159.697 214.179 159.697C214.314 159.697 214.436 159.684 214.545 159.657C214.663 159.62 214.762 159.575 214.844 159.521C214.925 159.458 214.984 159.385 215.02 159.304C215.065 159.213 215.088 159.118 215.088 159.019C215.088 158.82 215.006 158.666 214.844 158.558C214.753 158.503 214.613 158.444 214.423 158.381C214.233 158.309 213.989 158.232 213.69 158.15C213.229 158.033 212.835 157.897 212.51 157.743C212.193 157.581 211.94 157.4 211.75 157.201C211.587 157.011 211.46 156.807 211.37 156.59C211.288 156.364 211.248 156.115 211.248 155.844C211.248 155.518 211.32 155.224 211.465 154.962C211.61 154.69 211.809 154.46 212.062 154.27C212.324 154.08 212.623 153.935 212.957 153.835C213.292 153.727 213.645 153.673 214.016 153.673C214.387 153.673 214.749 153.718 215.101 153.808C215.454 153.899 215.78 154.03 216.078 154.202C216.386 154.365 216.653 154.559 216.879 154.785L215.848 155.925C215.685 155.771 215.499 155.631 215.291 155.504C215.092 155.378 214.884 155.278 214.667 155.206C214.45 155.134 214.256 155.097 214.084 155.097C213.93 155.097 213.79 155.111 213.663 155.138C213.545 155.165 213.446 155.21 213.364 155.274C213.283 155.328 213.22 155.396 213.175 155.477C213.138 155.559 213.12 155.649 213.12 155.749C213.12 155.848 213.143 155.943 213.188 156.034C213.242 156.124 213.315 156.201 213.405 156.264C213.505 156.319 213.649 156.382 213.839 156.454C214.038 156.527 214.305 156.608 214.64 156.699C215.074 156.816 215.441 156.947 215.739 157.092C216.047 157.237 216.291 157.404 216.472 157.594C216.626 157.757 216.739 157.942 216.811 158.15C216.883 158.359 216.92 158.589 216.92 158.842C216.92 159.286 216.793 159.679 216.54 160.023C216.295 160.367 215.956 160.638 215.522 160.837C215.088 161.036 214.599 161.136 214.057 161.136Z" fill="#3833E3"/>
<rect x="82" y="189" width="315" height="90" rx="9" fill="white"/>
<path d="M92.98 209V202H95.96C96.36 202 96.7267 202.1 97.06 202.3C97.4 202.493 97.67 202.76 97.87 203.1C98.07 203.433 98.17 203.81 98.17 204.23C98.17 204.61 98.07 204.963 97.87 205.29C97.67 205.617 97.4033 205.88 97.07 206.08C96.7367 206.273 96.3667 206.37 95.96 206.37H94.06V209H92.98ZM97.14 209L95.36 205.84L96.47 205.59L98.45 209.01L97.14 209ZM94.06 205.33H96.06C96.2533 205.33 96.4267 205.283 96.58 205.19C96.7333 205.09 96.8533 204.957 96.94 204.79C97.0267 204.617 97.07 204.427 97.07 204.22C97.07 203.987 97.0133 203.783 96.9 203.61C96.7933 203.43 96.64 203.29 96.44 203.19C96.2467 203.09 96.0267 203.04 95.78 203.04H94.06V205.33ZM101.928 209.1C101.388 209.1 100.908 208.987 100.488 208.76C100.074 208.527 99.7478 208.21 99.5078 207.81C99.2745 207.41 99.1578 206.95 99.1578 206.43C99.1578 206.017 99.2245 205.64 99.3578 205.3C99.4911 204.96 99.6745 204.667 99.9078 204.42C100.148 204.167 100.431 203.973 100.758 203.84C101.091 203.7 101.451 203.63 101.838 203.63C102.178 203.63 102.494 203.697 102.788 203.83C103.081 203.957 103.334 204.133 103.548 204.36C103.768 204.587 103.934 204.857 104.048 205.17C104.168 205.477 104.224 205.813 104.218 206.18L104.208 206.62H99.9178L99.6878 205.8H103.318L103.168 205.97V205.73C103.148 205.51 103.074 205.313 102.948 205.14C102.821 204.967 102.661 204.83 102.468 204.73C102.274 204.63 102.064 204.58 101.838 204.58C101.478 204.58 101.174 204.65 100.928 204.79C100.681 204.923 100.494 205.123 100.368 205.39C100.241 205.65 100.178 205.973 100.178 206.36C100.178 206.727 100.254 207.047 100.408 207.32C100.561 207.587 100.778 207.793 101.058 207.94C101.338 208.087 101.661 208.16 102.028 208.16C102.288 208.16 102.528 208.117 102.748 208.03C102.974 207.943 103.218 207.787 103.478 207.56L103.998 208.29C103.838 208.45 103.641 208.59 103.408 208.71C103.181 208.83 102.938 208.927 102.678 209C102.424 209.067 102.174 209.1 101.928 209.1ZM109.167 211.2V207.75H109.367C109.367 207.91 109.314 208.07 109.207 208.23C109.101 208.383 108.957 208.527 108.777 208.66C108.597 208.793 108.397 208.9 108.177 208.98C107.957 209.06 107.731 209.1 107.497 209.1C107.024 209.1 106.601 208.983 106.227 208.75C105.854 208.51 105.557 208.187 105.337 207.78C105.124 207.367 105.017 206.897 105.017 206.37C105.017 205.843 105.124 205.377 105.337 204.97C105.551 204.557 105.841 204.233 106.207 204C106.581 203.76 107.001 203.64 107.467 203.64C107.727 203.64 107.974 203.683 108.207 203.77C108.447 203.857 108.661 203.97 108.847 204.11C109.041 204.25 109.191 204.407 109.297 204.58C109.411 204.747 109.467 204.917 109.467 205.09L109.167 205.11V203.74H110.197V211.2H109.167ZM107.607 208.15C107.921 208.15 108.197 208.073 108.437 207.92C108.677 207.767 108.864 207.557 108.997 207.29C109.137 207.023 109.207 206.717 109.207 206.37C109.207 206.023 109.137 205.717 108.997 205.45C108.864 205.177 108.677 204.963 108.437 204.81C108.197 204.657 107.921 204.58 107.607 204.58C107.294 204.58 107.017 204.66 106.777 204.82C106.537 204.973 106.347 205.187 106.207 205.46C106.074 205.727 106.007 206.03 106.007 206.37C106.007 206.71 106.074 207.017 106.207 207.29C106.347 207.557 106.537 207.767 106.777 207.92C107.017 208.073 107.294 208.15 107.607 208.15ZM113.476 209.1C113.103 209.1 112.776 209.013 112.496 208.84C112.223 208.667 112.009 208.423 111.856 208.11C111.709 207.797 111.636 207.423 111.636 206.99V203.75H112.666V206.71C112.666 207.017 112.713 207.283 112.806 207.51C112.906 207.73 113.046 207.9 113.226 208.02C113.413 208.14 113.636 208.2 113.896 208.2C114.089 208.2 114.266 208.17 114.426 208.11C114.586 208.043 114.723 207.953 114.836 207.84C114.956 207.727 115.049 207.59 115.116 207.43C115.183 207.27 115.216 207.097 115.216 206.91V203.75H116.246V209H115.216V207.9L115.396 207.78C115.316 208.027 115.179 208.25 114.986 208.45C114.799 208.65 114.576 208.81 114.316 208.93C114.056 209.043 113.776 209.1 113.476 209.1ZM120.141 209.1C119.601 209.1 119.121 208.987 118.701 208.76C118.287 208.527 117.961 208.21 117.721 207.81C117.487 207.41 117.371 206.95 117.371 206.43C117.371 206.017 117.437 205.64 117.571 205.3C117.704 204.96 117.887 204.667 118.121 204.42C118.361 204.167 118.644 203.973 118.971 203.84C119.304 203.7 119.664 203.63 120.051 203.63C120.391 203.63 120.707 203.697 121.001 203.83C121.294 203.957 121.547 204.133 121.761 204.36C121.981 204.587 122.147 204.857 122.261 205.17C122.381 205.477 122.437 205.813 122.431 206.18L122.421 206.62H118.131L117.901 205.8H121.531L121.381 205.97V205.73C121.361 205.51 121.287 205.313 121.161 205.14C121.034 204.967 120.874 204.83 120.681 204.73C120.487 204.63 120.277 204.58 120.051 204.58C119.691 204.58 119.387 204.65 119.141 204.79C118.894 204.923 118.707 205.123 118.581 205.39C118.454 205.65 118.391 205.973 118.391 206.36C118.391 206.727 118.467 207.047 118.621 207.32C118.774 207.587 118.991 207.793 119.271 207.94C119.551 208.087 119.874 208.16 120.241 208.16C120.501 208.16 120.741 208.117 120.961 208.03C121.187 207.943 121.431 207.787 121.691 207.56L122.211 208.29C122.051 208.45 121.854 208.59 121.621 208.71C121.394 208.83 121.151 208.927 120.891 209C120.637 209.067 120.387 209.1 120.141 209.1ZM125.3 209.1C124.86 209.1 124.463 209.023 124.11 208.87C123.757 208.717 123.463 208.49 123.23 208.19L123.93 207.59C124.13 207.823 124.347 207.993 124.58 208.1C124.82 208.2 125.09 208.25 125.39 208.25C125.51 208.25 125.62 208.237 125.72 208.21C125.827 208.177 125.917 208.13 125.99 208.07C126.07 208.01 126.13 207.94 126.17 207.86C126.21 207.773 126.23 207.68 126.23 207.58C126.23 207.407 126.167 207.267 126.04 207.16C125.973 207.113 125.867 207.063 125.72 207.01C125.58 206.95 125.397 206.89 125.17 206.83C124.783 206.73 124.467 206.617 124.22 206.49C123.973 206.363 123.783 206.22 123.65 206.06C123.55 205.933 123.477 205.797 123.43 205.65C123.383 205.497 123.36 205.33 123.36 205.15C123.36 204.93 123.407 204.73 123.5 204.55C123.6 204.363 123.733 204.203 123.9 204.07C124.073 203.93 124.273 203.823 124.5 203.75C124.733 203.677 124.98 203.64 125.24 203.64C125.487 203.64 125.73 203.673 125.97 203.74C126.217 203.807 126.443 203.903 126.65 204.03C126.857 204.157 127.03 204.307 127.17 204.48L126.58 205.13C126.453 205.003 126.313 204.893 126.16 204.8C126.013 204.7 125.863 204.623 125.71 204.57C125.557 204.517 125.417 204.49 125.29 204.49C125.15 204.49 125.023 204.503 124.91 204.53C124.797 204.557 124.7 204.597 124.62 204.65C124.547 204.703 124.49 204.77 124.45 204.85C124.41 204.93 124.39 205.02 124.39 205.12C124.397 205.207 124.417 205.29 124.45 205.37C124.49 205.443 124.543 205.507 124.61 205.56C124.683 205.613 124.793 205.67 124.94 205.73C125.087 205.79 125.273 205.847 125.5 205.9C125.833 205.987 126.107 206.083 126.32 206.19C126.54 206.29 126.713 206.407 126.84 206.54C126.973 206.667 127.067 206.813 127.12 206.98C127.173 207.147 127.2 207.333 127.2 207.54C127.2 207.84 127.113 208.11 126.94 208.35C126.773 208.583 126.547 208.767 126.26 208.9C125.973 209.033 125.653 209.1 125.3 209.1ZM128.985 209V202.41H130.015V209H128.985ZM127.895 204.75V203.75H131.235V204.75H127.895ZM135.236 209V202H137.976C138.476 202 138.926 202.083 139.326 202.25C139.733 202.417 140.079 202.657 140.366 202.97C140.653 203.283 140.873 203.653 141.026 204.08C141.179 204.507 141.256 204.98 141.256 205.5C141.256 206.02 141.179 206.497 141.026 206.93C140.873 207.357 140.653 207.727 140.366 208.04C140.086 208.347 139.743 208.583 139.336 208.75C138.929 208.917 138.476 209 137.976 209H135.236ZM136.316 208.07L136.286 207.96H137.926C138.279 207.96 138.593 207.903 138.866 207.79C139.146 207.677 139.379 207.517 139.566 207.31C139.759 207.097 139.906 206.837 140.006 206.53C140.106 206.223 140.156 205.88 140.156 205.5C140.156 205.12 140.106 204.78 140.006 204.48C139.906 204.173 139.759 203.913 139.566 203.7C139.373 203.487 139.139 203.323 138.866 203.21C138.593 203.097 138.279 203.04 137.926 203.04H136.256L136.316 202.95V208.07ZM144.906 209.1C144.366 209.1 143.886 208.987 143.466 208.76C143.053 208.527 142.726 208.21 142.486 207.81C142.253 207.41 142.136 206.95 142.136 206.43C142.136 206.017 142.203 205.64 142.336 205.3C142.47 204.96 142.653 204.667 142.886 204.42C143.126 204.167 143.41 203.973 143.736 203.84C144.07 203.7 144.43 203.63 144.816 203.63C145.156 203.63 145.473 203.697 145.766 203.83C146.06 203.957 146.313 204.133 146.526 204.36C146.746 204.587 146.913 204.857 147.026 205.17C147.146 205.477 147.203 205.813 147.196 206.18L147.186 206.62H142.896L142.666 205.8H146.296L146.146 205.97V205.73C146.126 205.51 146.053 205.313 145.926 205.14C145.8 204.967 145.64 204.83 145.446 204.73C145.253 204.63 145.043 204.58 144.816 204.58C144.456 204.58 144.153 204.65 143.906 204.79C143.66 204.923 143.473 205.123 143.346 205.39C143.22 205.65 143.156 205.973 143.156 206.36C143.156 206.727 143.233 207.047 143.386 207.32C143.54 207.587 143.756 207.793 144.036 207.94C144.316 208.087 144.64 208.16 145.006 208.16C145.266 208.16 145.506 208.117 145.726 208.03C145.953 207.943 146.196 207.787 146.456 207.56L146.976 208.29C146.816 208.45 146.62 208.59 146.386 208.71C146.16 208.83 145.916 208.927 145.656 209C145.403 209.067 145.153 209.1 144.906 209.1ZM150.066 209.1C149.626 209.1 149.229 209.023 148.876 208.87C148.522 208.717 148.229 208.49 147.996 208.19L148.696 207.59C148.896 207.823 149.112 207.993 149.346 208.1C149.586 208.2 149.856 208.25 150.156 208.25C150.276 208.25 150.386 208.237 150.486 208.21C150.592 208.177 150.682 208.13 150.756 208.07C150.836 208.01 150.896 207.94 150.936 207.86C150.976 207.773 150.996 207.68 150.996 207.58C150.996 207.407 150.932 207.267 150.806 207.16C150.739 207.113 150.632 207.063 150.486 207.01C150.346 206.95 150.162 206.89 149.936 206.83C149.549 206.73 149.232 206.617 148.986 206.49C148.739 206.363 148.549 206.22 148.416 206.06C148.316 205.933 148.242 205.797 148.196 205.65C148.149 205.497 148.126 205.33 148.126 205.15C148.126 204.93 148.172 204.73 148.266 204.55C148.366 204.363 148.499 204.203 148.666 204.07C148.839 203.93 149.039 203.823 149.266 203.75C149.499 203.677 149.746 203.64 150.006 203.64C150.252 203.64 150.496 203.673 150.736 203.74C150.982 203.807 151.209 203.903 151.416 204.03C151.622 204.157 151.796 204.307 151.936 204.48L151.346 205.13C151.219 205.003 151.079 204.893 150.926 204.8C150.779 204.7 150.629 204.623 150.476 204.57C150.322 204.517 150.182 204.49 150.056 204.49C149.916 204.49 149.789 204.503 149.676 204.53C149.562 204.557 149.466 204.597 149.386 204.65C149.312 204.703 149.256 204.77 149.216 204.85C149.176 204.93 149.156 205.02 149.156 205.12C149.162 205.207 149.182 205.29 149.216 205.37C149.256 205.443 149.309 205.507 149.376 205.56C149.449 205.613 149.559 205.67 149.706 205.73C149.852 205.79 150.039 205.847 150.266 205.9C150.599 205.987 150.872 206.083 151.086 206.19C151.306 206.29 151.479 206.407 151.606 206.54C151.739 206.667 151.832 206.813 151.886 206.98C151.939 207.147 151.966 207.333 151.966 207.54C151.966 207.84 151.879 208.11 151.706 208.35C151.539 208.583 151.312 208.767 151.026 208.9C150.739 209.033 150.419 209.1 150.066 209.1ZM155.331 209.1C154.844 209.1 154.408 208.98 154.021 208.74C153.641 208.5 153.338 208.173 153.111 207.76C152.891 207.347 152.781 206.883 152.781 206.37C152.781 205.857 152.891 205.393 153.111 204.98C153.338 204.567 153.641 204.24 154.021 204C154.408 203.76 154.844 203.64 155.331 203.64C155.798 203.64 156.221 203.737 156.601 203.93C156.988 204.117 157.281 204.373 157.481 204.7L156.911 205.4C156.804 205.247 156.668 205.107 156.501 204.98C156.334 204.853 156.158 204.753 155.971 204.68C155.784 204.607 155.604 204.57 155.431 204.57C155.111 204.57 154.824 204.65 154.571 204.81C154.324 204.963 154.128 205.177 153.981 205.45C153.834 205.723 153.761 206.03 153.761 206.37C153.761 206.71 153.838 207.017 153.991 207.29C154.144 207.557 154.348 207.77 154.601 207.93C154.854 208.09 155.134 208.17 155.441 208.17C155.621 208.17 155.794 208.14 155.961 208.08C156.134 208.02 156.301 207.93 156.461 207.81C156.621 207.69 156.771 207.543 156.911 207.37L157.481 208.07C157.268 208.37 156.961 208.617 156.561 208.81C156.168 209.003 155.758 209.1 155.331 209.1ZM158.452 209V203.75H159.492V205.4L159.392 205C159.466 204.747 159.589 204.517 159.762 204.31C159.942 204.103 160.146 203.94 160.372 203.82C160.606 203.7 160.846 203.64 161.092 203.64C161.206 203.64 161.312 203.65 161.412 203.67C161.519 203.69 161.602 203.713 161.662 203.74L161.392 204.86C161.312 204.827 161.222 204.8 161.122 204.78C161.029 204.753 160.936 204.74 160.842 204.74C160.662 204.74 160.489 204.777 160.322 204.85C160.162 204.917 160.019 205.013 159.892 205.14C159.772 205.26 159.676 205.403 159.602 205.57C159.529 205.73 159.492 205.907 159.492 206.1V209H158.452ZM162.656 209V203.75H163.686V209H162.656ZM163.156 202.59C162.936 202.59 162.766 202.533 162.646 202.42C162.526 202.307 162.466 202.147 162.466 201.94C162.466 201.747 162.526 201.59 162.646 201.47C162.772 201.35 162.942 201.29 163.156 201.29C163.376 201.29 163.546 201.347 163.666 201.46C163.786 201.573 163.846 201.733 163.846 201.94C163.846 202.133 163.782 202.29 163.656 202.41C163.536 202.53 163.369 202.59 163.156 202.59ZM165.269 211.2V203.75H166.309V204.95L166.149 204.86C166.189 204.66 166.302 204.47 166.489 204.29C166.675 204.103 166.902 203.953 167.169 203.84C167.442 203.72 167.722 203.66 168.009 203.66C168.482 203.66 168.902 203.777 169.269 204.01C169.635 204.243 169.925 204.563 170.139 204.97C170.352 205.377 170.459 205.843 170.459 206.37C170.459 206.89 170.352 207.357 170.139 207.77C169.932 208.177 169.645 208.5 169.279 208.74C168.912 208.973 168.499 209.09 168.039 209.09C167.732 209.09 167.435 209.03 167.149 208.91C166.862 208.783 166.619 208.623 166.419 208.43C166.219 208.237 166.095 208.037 166.049 207.83L166.309 207.69V211.2H165.269ZM167.869 208.14C168.175 208.14 168.449 208.063 168.689 207.91C168.929 207.757 169.119 207.547 169.259 207.28C169.399 207.013 169.469 206.71 169.469 206.37C169.469 206.03 169.399 205.73 169.259 205.47C169.125 205.203 168.939 204.993 168.699 204.84C168.459 204.687 168.182 204.61 167.869 204.61C167.555 204.61 167.279 204.687 167.039 204.84C166.799 204.987 166.609 205.193 166.469 205.46C166.329 205.727 166.259 206.03 166.259 206.37C166.259 206.71 166.329 207.013 166.469 207.28C166.609 207.547 166.799 207.757 167.039 207.91C167.279 208.063 167.555 208.14 167.869 208.14ZM172.227 209V202.41H173.257V209H172.227ZM171.137 204.75V203.75H174.477V204.75H171.137ZM175.585 209V203.75H176.615V209H175.585ZM176.085 202.59C175.865 202.59 175.695 202.533 175.575 202.42C175.455 202.307 175.395 202.147 175.395 201.94C175.395 201.747 175.455 201.59 175.575 201.47C175.702 201.35 175.872 201.29 176.085 201.29C176.305 201.29 176.475 201.347 176.595 201.46C176.715 201.573 176.775 201.733 176.775 201.94C176.775 202.133 176.712 202.29 176.585 202.41C176.465 202.53 176.299 202.59 176.085 202.59ZM180.559 209.1C180.045 209.1 179.585 208.983 179.179 208.75C178.779 208.51 178.462 208.187 178.229 207.78C177.995 207.367 177.879 206.897 177.879 206.37C177.879 205.843 177.995 205.377 178.229 204.97C178.462 204.557 178.779 204.233 179.179 204C179.585 203.76 180.045 203.64 180.559 203.64C181.065 203.64 181.519 203.76 181.919 204C182.325 204.233 182.645 204.557 182.879 204.97C183.112 205.377 183.229 205.843 183.229 206.37C183.229 206.897 183.112 207.367 182.879 207.78C182.645 208.187 182.325 208.51 181.919 208.75C181.519 208.983 181.065 209.1 180.559 209.1ZM180.559 208.16C180.872 208.16 181.152 208.083 181.399 207.93C181.645 207.77 181.839 207.557 181.979 207.29C182.119 207.017 182.185 206.71 182.179 206.37C182.185 206.023 182.119 205.717 181.979 205.45C181.839 205.177 181.645 204.963 181.399 204.81C181.152 204.657 180.872 204.58 180.559 204.58C180.245 204.58 179.962 204.66 179.709 204.82C179.462 204.973 179.269 205.187 179.129 205.46C178.989 205.727 178.922 206.03 178.929 206.37C178.922 206.71 178.989 207.017 179.129 207.29C179.269 207.557 179.462 207.77 179.709 207.93C179.962 208.083 180.245 208.16 180.559 208.16ZM184.351 209V203.75H185.381V204.83L185.201 204.95C185.268 204.717 185.398 204.503 185.591 204.31C185.784 204.11 186.014 203.95 186.281 203.83C186.548 203.703 186.821 203.64 187.101 203.64C187.501 203.64 187.834 203.72 188.101 203.88C188.368 204.033 188.568 204.27 188.701 204.59C188.834 204.91 188.901 205.313 188.901 205.8V209H187.871V205.87C187.871 205.57 187.831 205.323 187.751 205.13C187.671 204.93 187.548 204.787 187.381 204.7C187.214 204.607 187.008 204.567 186.761 204.58C186.561 204.58 186.378 204.613 186.211 204.68C186.044 204.74 185.898 204.827 185.771 204.94C185.651 205.053 185.554 205.187 185.481 205.34C185.414 205.487 185.381 205.647 185.381 205.82V209H184.871C184.784 209 184.698 209 184.611 209C184.524 209 184.438 209 184.351 209Z" fill="black"/>
<rect x="103" y="228" width="270" height="7" rx="3.5" fill="#E4E6EA"/>
<rect x="103" y="243" width="246" height="7" rx="3.5" fill="#E4E6EA"/>
<rect x="103" y="258" width="235" height="7" rx="3.5" fill="#E4E6EA"/>
<rect x="92.25" y="218.25" width="294.5" height="53.5" rx="3.75" stroke="#E4E6EA" stroke-width="0.5"/>
<rect x="82" y="290" width="154" height="62" rx="9" fill="white"/>
<rect x="243" y="290" width="154" height="62" rx="9" fill="white"/>
<path d="M92.98 310V303H95.83C96.21 303 96.5533 303.097 96.86 303.29C97.1733 303.477 97.4233 303.733 97.61 304.06C97.7967 304.387 97.89 304.75 97.89 305.15C97.89 305.55 97.7967 305.913 97.61 306.24C97.4233 306.567 97.1733 306.83 96.86 307.03C96.5533 307.223 96.21 307.32 95.83 307.32H94.06V310H92.98ZM94.06 306.28H95.81C95.99 306.28 96.1533 306.23 96.3 306.13C96.4467 306.023 96.5633 305.887 96.65 305.72C96.7433 305.547 96.79 305.357 96.79 305.15C96.79 304.943 96.7433 304.757 96.65 304.59C96.5633 304.423 96.4467 304.29 96.3 304.19C96.1533 304.09 95.99 304.04 95.81 304.04H94.06V306.28ZM99.0579 310V304.75H100.098V306.4L99.9979 306C100.071 305.747 100.195 305.517 100.368 305.31C100.548 305.103 100.751 304.94 100.978 304.82C101.211 304.7 101.451 304.64 101.698 304.64C101.811 304.64 101.918 304.65 102.018 304.67C102.125 304.69 102.208 304.713 102.268 304.74L101.998 305.86C101.918 305.827 101.828 305.8 101.728 305.78C101.635 305.753 101.541 305.74 101.448 305.74C101.268 305.74 101.095 305.777 100.928 305.85C100.768 305.917 100.625 306.013 100.498 306.14C100.378 306.26 100.281 306.403 100.208 306.57C100.135 306.73 100.098 306.907 100.098 307.1V310H99.0579ZM103.261 310V304.75H104.291V310H103.261ZM103.761 303.59C103.541 303.59 103.371 303.533 103.251 303.42C103.131 303.307 103.071 303.147 103.071 302.94C103.071 302.747 103.131 302.59 103.251 302.47C103.378 302.35 103.548 302.29 103.761 302.29C103.981 302.29 104.151 302.347 104.271 302.46C104.391 302.573 104.451 302.733 104.451 302.94C104.451 303.133 104.388 303.29 104.261 303.41C104.141 303.53 103.974 303.59 103.761 303.59ZM108.234 310.1C107.721 310.1 107.261 309.983 106.854 309.75C106.454 309.51 106.138 309.187 105.904 308.78C105.671 308.367 105.554 307.897 105.554 307.37C105.554 306.843 105.671 306.377 105.904 305.97C106.138 305.557 106.454 305.233 106.854 305C107.261 304.76 107.721 304.64 108.234 304.64C108.741 304.64 109.194 304.76 109.594 305C110.001 305.233 110.321 305.557 110.554 305.97C110.788 306.377 110.904 306.843 110.904 307.37C110.904 307.897 110.788 308.367 110.554 308.78C110.321 309.187 110.001 309.51 109.594 309.75C109.194 309.983 108.741 310.1 108.234 310.1ZM108.234 309.16C108.548 309.16 108.828 309.083 109.074 308.93C109.321 308.77 109.514 308.557 109.654 308.29C109.794 308.017 109.861 307.71 109.854 307.37C109.861 307.023 109.794 306.717 109.654 306.45C109.514 306.177 109.321 305.963 109.074 305.81C108.828 305.657 108.548 305.58 108.234 305.58C107.921 305.58 107.638 305.66 107.384 305.82C107.138 305.973 106.944 306.187 106.804 306.46C106.664 306.727 106.598 307.03 106.604 307.37C106.598 307.71 106.664 308.017 106.804 308.29C106.944 308.557 107.138 308.77 107.384 308.93C107.638 309.083 107.921 309.16 108.234 309.16ZM112.027 310V304.75H113.067V306.4L112.967 306C113.04 305.747 113.163 305.517 113.337 305.31C113.517 305.103 113.72 304.94 113.947 304.82C114.18 304.7 114.42 304.64 114.667 304.64C114.78 304.64 114.887 304.65 114.987 304.67C115.093 304.69 115.177 304.713 115.237 304.74L114.967 305.86C114.887 305.827 114.797 305.8 114.697 305.78C114.603 305.753 114.51 305.74 114.417 305.74C114.237 305.74 114.063 305.777 113.897 305.85C113.737 305.917 113.593 306.013 113.467 306.14C113.347 306.26 113.25 306.403 113.177 306.57C113.103 306.73 113.067 306.907 113.067 307.1V310H112.027ZM116.23 310V304.75H117.26V310H116.23ZM116.73 303.59C116.51 303.59 116.34 303.533 116.22 303.42C116.1 303.307 116.04 303.147 116.04 302.94C116.04 302.747 116.1 302.59 116.22 302.47C116.347 302.35 116.517 302.29 116.73 302.29C116.95 302.29 117.12 302.347 117.24 302.46C117.36 302.573 117.42 302.733 117.42 302.94C117.42 303.133 117.357 303.29 117.23 303.41C117.11 303.53 116.943 303.59 116.73 303.59ZM119.493 310V303.41H120.523V310H119.493ZM118.403 305.75V304.75H121.743V305.75H118.403ZM123.561 312.3L124.621 309.85L124.631 310.67L122.011 304.75H123.211L124.851 308.61C124.884 308.677 124.924 308.78 124.971 308.92C125.018 309.053 125.058 309.187 125.091 309.32L124.831 309.38C124.884 309.24 124.934 309.1 124.981 308.96C125.034 308.82 125.084 308.68 125.131 308.54L126.501 304.75H127.721L125.561 310L124.671 312.3H123.561Z" fill="#3B3B3B"/>
<path d="M256.14 310.1C255.76 310.1 255.407 310.05 255.08 309.95C254.76 309.85 254.467 309.7 254.2 309.5C253.94 309.293 253.707 309.04 253.5 308.74L254.24 307.89C254.567 308.357 254.88 308.68 255.18 308.86C255.48 309.04 255.837 309.13 256.25 309.13C256.503 309.13 256.733 309.09 256.94 309.01C257.147 308.93 257.31 308.82 257.43 308.68C257.55 308.54 257.61 308.38 257.61 308.2C257.61 308.08 257.59 307.967 257.55 307.86C257.51 307.753 257.447 307.657 257.36 307.57C257.28 307.483 257.173 307.403 257.04 307.33C256.913 307.257 256.763 307.193 256.59 307.14C256.417 307.08 256.217 307.03 255.99 306.99C255.63 306.917 255.317 306.82 255.05 306.7C254.783 306.58 254.56 306.43 254.38 306.25C254.2 306.07 254.067 305.867 253.98 305.64C253.893 305.407 253.85 305.147 253.85 304.86C253.85 304.58 253.91 304.32 254.03 304.08C254.157 303.84 254.327 303.633 254.54 303.46C254.76 303.28 255.017 303.143 255.31 303.05C255.603 302.95 255.92 302.9 256.26 302.9C256.62 302.9 256.95 302.947 257.25 303.04C257.55 303.133 257.817 303.273 258.05 303.46C258.283 303.64 258.477 303.863 258.63 304.13L257.87 304.88C257.737 304.66 257.587 304.477 257.42 304.33C257.253 304.177 257.07 304.063 256.87 303.99C256.67 303.91 256.457 303.87 256.23 303.87C255.97 303.87 255.743 303.91 255.55 303.99C255.357 304.07 255.203 304.183 255.09 304.33C254.983 304.47 254.93 304.637 254.93 304.83C254.93 304.97 254.957 305.1 255.01 305.22C255.063 305.333 255.143 305.437 255.25 305.53C255.363 305.617 255.513 305.697 255.7 305.77C255.887 305.837 256.11 305.897 256.37 305.95C256.737 306.03 257.063 306.133 257.35 306.26C257.637 306.38 257.88 306.523 258.08 306.69C258.28 306.857 258.43 307.043 258.53 307.25C258.637 307.457 258.69 307.68 258.69 307.92C258.69 308.367 258.587 308.753 258.38 309.08C258.173 309.407 257.88 309.66 257.5 309.84C257.12 310.013 256.667 310.1 256.14 310.1ZM259.94 310V304.75H260.98V305.87L260.79 305.99C260.844 305.817 260.927 305.65 261.04 305.49C261.16 305.33 261.304 305.19 261.47 305.07C261.644 304.943 261.827 304.843 262.02 304.77C262.22 304.697 262.424 304.66 262.63 304.66C262.93 304.66 263.194 304.71 263.42 304.81C263.647 304.91 263.834 305.06 263.98 305.26C264.127 305.46 264.234 305.71 264.3 306.01L264.14 305.97L264.21 305.8C264.284 305.647 264.384 305.503 264.51 305.37C264.644 305.23 264.794 305.107 264.96 305C265.127 304.893 265.304 304.81 265.49 304.75C265.677 304.69 265.86 304.66 266.04 304.66C266.434 304.66 266.757 304.74 267.01 304.9C267.27 305.06 267.464 305.303 267.59 305.63C267.724 305.957 267.79 306.363 267.79 306.85V310H266.75V306.91C266.75 306.61 266.71 306.367 266.63 306.18C266.557 305.987 266.444 305.843 266.29 305.75C266.137 305.657 265.94 305.61 265.7 305.61C265.514 305.61 265.337 305.643 265.17 305.71C265.01 305.77 264.87 305.857 264.75 305.97C264.63 306.083 264.537 306.217 264.47 306.37C264.404 306.517 264.37 306.68 264.37 306.86V310H263.33V306.89C263.33 306.617 263.29 306.387 263.21 306.2C263.13 306.007 263.014 305.86 262.86 305.76C262.707 305.66 262.52 305.61 262.3 305.61C262.114 305.61 261.94 305.643 261.78 305.71C261.62 305.77 261.48 305.857 261.36 305.97C261.24 306.077 261.147 306.207 261.08 306.36C261.014 306.507 260.98 306.667 260.98 306.84V310H259.94ZM271.189 310.1C270.756 310.1 270.359 309.98 269.999 309.74C269.646 309.5 269.363 309.173 269.149 308.76C268.936 308.347 268.829 307.88 268.829 307.36C268.829 306.833 268.936 306.367 269.149 305.96C269.369 305.547 269.663 305.223 270.029 304.99C270.403 304.757 270.819 304.64 271.279 304.64C271.553 304.64 271.803 304.68 272.029 304.76C272.256 304.84 272.453 304.953 272.619 305.1C272.793 305.24 272.933 305.403 273.039 305.59C273.153 305.777 273.223 305.977 273.249 306.19L273.019 306.11V304.75H274.059V310H273.019V308.75L273.259 308.68C273.219 308.86 273.136 309.037 273.009 309.21C272.889 309.377 272.733 309.527 272.539 309.66C272.353 309.793 272.143 309.9 271.909 309.98C271.683 310.06 271.443 310.1 271.189 310.1ZM271.459 309.15C271.773 309.15 272.049 309.073 272.289 308.92C272.529 308.767 272.716 308.557 272.849 308.29C272.989 308.017 273.059 307.707 273.059 307.36C273.059 307.02 272.989 306.717 272.849 306.45C272.716 306.183 272.529 305.973 272.289 305.82C272.049 305.667 271.773 305.59 271.459 305.59C271.153 305.59 270.879 305.667 270.639 305.82C270.406 305.973 270.219 306.183 270.079 306.45C269.946 306.717 269.879 307.02 269.879 307.36C269.879 307.707 269.946 308.017 270.079 308.29C270.219 308.557 270.406 308.767 270.639 308.92C270.879 309.073 271.153 309.15 271.459 309.15ZM275.497 310V304.75H276.537V306.4L276.437 306C276.511 305.747 276.634 305.517 276.807 305.31C276.987 305.103 277.191 304.94 277.417 304.82C277.651 304.7 277.891 304.64 278.137 304.64C278.251 304.64 278.357 304.65 278.457 304.67C278.564 304.69 278.647 304.713 278.707 304.74L278.437 305.86C278.357 305.827 278.267 305.8 278.167 305.78C278.074 305.753 277.981 305.74 277.887 305.74C277.707 305.74 277.534 305.777 277.367 305.85C277.207 305.917 277.064 306.013 276.937 306.14C276.817 306.26 276.721 306.403 276.647 306.57C276.574 306.73 276.537 306.907 276.537 307.1V310H275.497ZM280.376 310V303.41H281.406V310H280.376ZM279.286 305.75V304.75H282.626V305.75H279.286ZM289.466 310.1C288.98 310.1 288.533 310.013 288.126 309.84C287.72 309.667 287.366 309.42 287.066 309.1C286.766 308.773 286.533 308.39 286.366 307.95C286.206 307.51 286.126 307.027 286.126 306.5C286.126 306 286.213 305.537 286.386 305.11C286.566 304.677 286.813 304.297 287.126 303.97C287.44 303.643 287.803 303.39 288.216 303.21C288.63 303.03 289.076 302.94 289.556 302.94C289.896 302.94 290.226 302.993 290.546 303.1C290.873 303.2 291.166 303.343 291.426 303.53C291.693 303.71 291.91 303.917 292.076 304.15L291.356 304.9C291.163 304.707 290.966 304.547 290.766 304.42C290.573 304.287 290.373 304.187 290.166 304.12C289.966 304.053 289.763 304.02 289.556 304.02C289.23 304.02 288.923 304.083 288.636 304.21C288.356 304.33 288.11 304.5 287.896 304.72C287.69 304.94 287.526 305.203 287.406 305.51C287.286 305.81 287.226 306.14 287.226 306.5C287.226 306.88 287.283 307.227 287.396 307.54C287.516 307.847 287.683 308.11 287.896 308.33C288.11 308.55 288.363 308.72 288.656 308.84C288.956 308.953 289.286 309.01 289.646 309.01C289.866 309.01 290.083 308.98 290.296 308.92C290.51 308.86 290.71 308.773 290.896 308.66C291.083 308.547 291.253 308.413 291.406 308.26L291.946 309.14C291.793 309.32 291.583 309.483 291.316 309.63C291.056 309.777 290.763 309.893 290.436 309.98C290.116 310.06 289.793 310.1 289.466 310.1ZM295.174 310.1C294.74 310.1 294.344 309.98 293.984 309.74C293.63 309.5 293.347 309.173 293.134 308.76C292.92 308.347 292.814 307.88 292.814 307.36C292.814 306.833 292.92 306.367 293.134 305.96C293.354 305.547 293.647 305.223 294.014 304.99C294.387 304.757 294.804 304.64 295.264 304.64C295.537 304.64 295.787 304.68 296.014 304.76C296.24 304.84 296.437 304.953 296.604 305.1C296.777 305.24 296.917 305.403 297.024 305.59C297.137 305.777 297.207 305.977 297.234 306.19L297.004 306.11V304.75H298.044V310H297.004V308.75L297.244 308.68C297.204 308.86 297.12 309.037 296.994 309.21C296.874 309.377 296.717 309.527 296.524 309.66C296.337 309.793 296.127 309.9 295.894 309.98C295.667 310.06 295.427 310.1 295.174 310.1ZM295.444 309.15C295.757 309.15 296.034 309.073 296.274 308.92C296.514 308.767 296.7 308.557 296.834 308.29C296.974 308.017 297.044 307.707 297.044 307.36C297.044 307.02 296.974 306.717 296.834 306.45C296.7 306.183 296.514 305.973 296.274 305.82C296.034 305.667 295.757 305.59 295.444 305.59C295.137 305.59 294.864 305.667 294.624 305.82C294.39 305.973 294.204 306.183 294.064 306.45C293.93 306.717 293.864 307.02 293.864 307.36C293.864 307.707 293.93 308.017 294.064 308.29C294.204 308.557 294.39 308.767 294.624 308.92C294.864 309.073 295.137 309.15 295.444 309.15ZM300.132 310V303.41H301.162V310H300.132ZM299.042 305.75V304.75H302.382V305.75H299.042ZM305.721 310.1C305.181 310.1 304.701 309.987 304.281 309.76C303.867 309.527 303.541 309.21 303.301 308.81C303.067 308.41 302.951 307.95 302.951 307.43C302.951 307.017 303.017 306.64 303.151 306.3C303.284 305.96 303.467 305.667 303.701 305.42C303.941 305.167 304.224 304.973 304.551 304.84C304.884 304.7 305.244 304.63 305.631 304.63C305.971 304.63 306.287 304.697 306.581 304.83C306.874 304.957 307.127 305.133 307.341 305.36C307.561 305.587 307.727 305.857 307.841 306.17C307.961 306.477 308.017 306.813 308.011 307.18L308.001 307.62H303.711L303.481 306.8H307.111L306.961 306.97V306.73C306.941 306.51 306.867 306.313 306.741 306.14C306.614 305.967 306.454 305.83 306.261 305.73C306.067 305.63 305.857 305.58 305.631 305.58C305.271 305.58 304.967 305.65 304.721 305.79C304.474 305.923 304.287 306.123 304.161 306.39C304.034 306.65 303.971 306.973 303.971 307.36C303.971 307.727 304.047 308.047 304.201 308.32C304.354 308.587 304.571 308.793 304.851 308.94C305.131 309.087 305.454 309.16 305.821 309.16C306.081 309.16 306.321 309.117 306.541 309.03C306.767 308.943 307.011 308.787 307.271 308.56L307.791 309.29C307.631 309.45 307.434 309.59 307.201 309.71C306.974 309.83 306.731 309.927 306.471 310C306.217 310.067 305.967 310.1 305.721 310.1ZM311.431 312.3C311.058 312.3 310.685 312.24 310.311 312.12C309.945 312.007 309.648 311.857 309.421 311.67L309.801 310.87C309.935 310.97 310.091 311.057 310.271 311.13C310.451 311.21 310.641 311.27 310.841 311.31C311.041 311.357 311.238 311.38 311.431 311.38C311.798 311.38 312.105 311.32 312.351 311.2C312.598 311.08 312.785 310.903 312.911 310.67C313.038 310.437 313.101 310.147 313.101 309.8V308.79L313.211 308.86C313.178 309.067 313.068 309.267 312.881 309.46C312.701 309.647 312.475 309.8 312.201 309.92C311.928 310.04 311.648 310.1 311.361 310.1C310.861 310.1 310.415 309.983 310.021 309.75C309.635 309.51 309.328 309.187 309.101 308.78C308.875 308.367 308.761 307.897 308.761 307.37C308.761 306.843 308.871 306.377 309.091 305.97C309.318 305.557 309.625 305.233 310.011 305C310.405 304.76 310.845 304.64 311.331 304.64C311.531 304.64 311.725 304.667 311.911 304.72C312.098 304.767 312.271 304.837 312.431 304.93C312.591 305.017 312.735 305.113 312.861 305.22C312.988 305.327 313.091 305.44 313.171 305.56C313.251 305.68 313.301 305.793 313.321 305.9L313.101 305.98V304.75H314.131V309.68C314.131 310.1 314.068 310.47 313.941 310.79C313.821 311.117 313.645 311.39 313.411 311.61C313.178 311.837 312.895 312.007 312.561 312.12C312.228 312.24 311.851 312.3 311.431 312.3ZM311.471 309.15C311.798 309.15 312.088 309.073 312.341 308.92C312.595 308.767 312.791 308.557 312.931 308.29C313.071 308.023 313.141 307.717 313.141 307.37C313.141 307.023 313.068 306.717 312.921 306.45C312.781 306.177 312.585 305.963 312.331 305.81C312.085 305.657 311.798 305.58 311.471 305.58C311.151 305.58 310.865 305.66 310.611 305.82C310.365 305.973 310.168 306.187 310.021 306.46C309.881 306.727 309.811 307.03 309.811 307.37C309.811 307.71 309.881 308.017 310.021 308.29C310.168 308.557 310.365 308.767 310.611 308.92C310.865 309.073 311.151 309.15 311.471 309.15ZM317.935 310.1C317.422 310.1 316.962 309.983 316.555 309.75C316.155 309.51 315.839 309.187 315.605 308.78C315.372 308.367 315.255 307.897 315.255 307.37C315.255 306.843 315.372 306.377 315.605 305.97C315.839 305.557 316.155 305.233 316.555 305C316.962 304.76 317.422 304.64 317.935 304.64C318.442 304.64 318.895 304.76 319.295 305C319.702 305.233 320.022 305.557 320.255 305.97C320.489 306.377 320.605 306.843 320.605 307.37C320.605 307.897 320.489 308.367 320.255 308.78C320.022 309.187 319.702 309.51 319.295 309.75C318.895 309.983 318.442 310.1 317.935 310.1ZM317.935 309.16C318.249 309.16 318.529 309.083 318.775 308.93C319.022 308.77 319.215 308.557 319.355 308.29C319.495 308.017 319.562 307.71 319.555 307.37C319.562 307.023 319.495 306.717 319.355 306.45C319.215 306.177 319.022 305.963 318.775 305.81C318.529 305.657 318.249 305.58 317.935 305.58C317.622 305.58 317.339 305.66 317.085 305.82C316.839 305.973 316.645 306.187 316.505 306.46C316.365 306.727 316.299 307.03 316.305 307.37C316.299 307.71 316.365 308.017 316.505 308.29C316.645 308.557 316.839 308.77 317.085 308.93C317.339 309.083 317.622 309.16 317.935 309.16ZM321.728 310V304.75H322.768V306.4L322.668 306C322.741 305.747 322.864 305.517 323.038 305.31C323.218 305.103 323.421 304.94 323.648 304.82C323.881 304.7 324.121 304.64 324.368 304.64C324.481 304.64 324.588 304.65 324.688 304.67C324.794 304.69 324.878 304.713 324.938 304.74L324.668 305.86C324.588 305.827 324.498 305.8 324.398 305.78C324.304 305.753 324.211 305.74 324.118 305.74C323.938 305.74 323.764 305.777 323.598 305.85C323.438 305.917 323.294 306.013 323.168 306.14C323.048 306.26 322.951 306.403 322.878 306.57C322.804 306.73 322.768 306.907 322.768 307.1V310H321.728ZM326.641 312.3L327.701 309.85L327.711 310.67L325.091 304.75H326.291L327.931 308.61C327.964 308.677 328.004 308.78 328.051 308.92C328.098 309.053 328.138 309.187 328.171 309.32L327.911 309.38C327.964 309.24 328.014 309.1 328.061 308.96C328.114 308.82 328.164 308.68 328.211 308.54L329.581 304.75H330.801L328.641 310L327.751 312.3H326.641ZM336.794 310.1C336.414 310.1 336.061 310.05 335.734 309.95C335.414 309.85 335.121 309.7 334.854 309.5C334.594 309.293 334.361 309.04 334.154 308.74L334.894 307.89C335.221 308.357 335.534 308.68 335.834 308.86C336.134 309.04 336.491 309.13 336.904 309.13C337.158 309.13 337.388 309.09 337.594 309.01C337.801 308.93 337.964 308.82 338.084 308.68C338.204 308.54 338.264 308.38 338.264 308.2C338.264 308.08 338.244 307.967 338.204 307.86C338.164 307.753 338.101 307.657 338.014 307.57C337.934 307.483 337.828 307.403 337.694 307.33C337.568 307.257 337.418 307.193 337.244 307.14C337.071 307.08 336.871 307.03 336.644 306.99C336.284 306.917 335.971 306.82 335.704 306.7C335.438 306.58 335.214 306.43 335.034 306.25C334.854 306.07 334.721 305.867 334.634 305.64C334.548 305.407 334.504 305.147 334.504 304.86C334.504 304.58 334.564 304.32 334.684 304.08C334.811 303.84 334.981 303.633 335.194 303.46C335.414 303.28 335.671 303.143 335.964 303.05C336.258 302.95 336.574 302.9 336.914 302.9C337.274 302.9 337.604 302.947 337.904 303.04C338.204 303.133 338.471 303.273 338.704 303.46C338.938 303.64 339.131 303.863 339.284 304.13L338.524 304.88C338.391 304.66 338.241 304.477 338.074 304.33C337.908 304.177 337.724 304.063 337.524 303.99C337.324 303.91 337.111 303.87 336.884 303.87C336.624 303.87 336.398 303.91 336.204 303.99C336.011 304.07 335.858 304.183 335.744 304.33C335.638 304.47 335.584 304.637 335.584 304.83C335.584 304.97 335.611 305.1 335.664 305.22C335.718 305.333 335.798 305.437 335.904 305.53C336.018 305.617 336.168 305.697 336.354 305.77C336.541 305.837 336.764 305.897 337.024 305.95C337.391 306.03 337.718 306.133 338.004 306.26C338.291 306.38 338.534 306.523 338.734 306.69C338.934 306.857 339.084 307.043 339.184 307.25C339.291 307.457 339.344 307.68 339.344 307.92C339.344 308.367 339.241 308.753 339.034 309.08C338.828 309.407 338.534 309.66 338.154 309.84C337.774 310.013 337.321 310.1 336.794 310.1ZM342.455 310.1C342.081 310.1 341.755 310.013 341.475 309.84C341.201 309.667 340.988 309.423 340.835 309.11C340.688 308.797 340.615 308.423 340.615 307.99V304.75H341.645V307.71C341.645 308.017 341.691 308.283 341.785 308.51C341.885 308.73 342.025 308.9 342.205 309.02C342.391 309.14 342.615 309.2 342.875 309.2C343.068 309.2 343.245 309.17 343.405 309.11C343.565 309.043 343.701 308.953 343.815 308.84C343.935 308.727 344.028 308.59 344.095 308.43C344.161 308.27 344.195 308.097 344.195 307.91V304.75H345.225V310H344.195V308.9L344.375 308.78C344.295 309.027 344.158 309.25 343.965 309.45C343.778 309.65 343.555 309.81 343.295 309.93C343.035 310.043 342.755 310.1 342.455 310.1ZM348.922 312.3C348.548 312.3 348.175 312.24 347.802 312.12C347.435 312.007 347.138 311.857 346.912 311.67L347.292 310.87C347.425 310.97 347.582 311.057 347.762 311.13C347.942 311.21 348.132 311.27 348.332 311.31C348.532 311.357 348.728 311.38 348.922 311.38C349.288 311.38 349.595 311.32 349.842 311.2C350.088 311.08 350.275 310.903 350.402 310.67C350.528 310.437 350.592 310.147 350.592 309.8V308.79L350.702 308.86C350.668 309.067 350.558 309.267 350.372 309.46C350.192 309.647 349.965 309.8 349.692 309.92C349.418 310.04 349.138 310.1 348.852 310.1C348.352 310.1 347.905 309.983 347.512 309.75C347.125 309.51 346.818 309.187 346.592 308.78C346.365 308.367 346.252 307.897 346.252 307.37C346.252 306.843 346.362 306.377 346.582 305.97C346.808 305.557 347.115 305.233 347.502 305C347.895 304.76 348.335 304.64 348.822 304.64C349.022 304.64 349.215 304.667 349.402 304.72C349.588 304.767 349.762 304.837 349.922 304.93C350.082 305.017 350.225 305.113 350.352 305.22C350.478 305.327 350.582 305.44 350.662 305.56C350.742 305.68 350.792 305.793 350.812 305.9L350.592 305.98V304.75H351.622V309.68C351.622 310.1 351.558 310.47 351.432 310.79C351.312 311.117 351.135 311.39 350.902 311.61C350.668 311.837 350.385 312.007 350.052 312.12C349.718 312.24 349.342 312.3 348.922 312.3ZM348.962 309.15C349.288 309.15 349.578 309.073 349.832 308.92C350.085 308.767 350.282 308.557 350.422 308.29C350.562 308.023 350.632 307.717 350.632 307.37C350.632 307.023 350.558 306.717 350.412 306.45C350.272 306.177 350.075 305.963 349.822 305.81C349.575 305.657 349.288 305.58 348.962 305.58C348.642 305.58 348.355 305.66 348.102 305.82C347.855 305.973 347.658 306.187 347.512 306.46C347.372 306.727 347.302 307.03 347.302 307.37C347.302 307.71 347.372 308.017 347.512 308.29C347.658 308.557 347.855 308.767 348.102 308.92C348.355 309.073 348.642 309.15 348.962 309.15ZM355.416 312.3C355.042 312.3 354.669 312.24 354.296 312.12C353.929 312.007 353.632 311.857 353.406 311.67L353.786 310.87C353.919 310.97 354.076 311.057 354.256 311.13C354.436 311.21 354.626 311.27 354.826 311.31C355.026 311.357 355.222 311.38 355.416 311.38C355.782 311.38 356.089 311.32 356.336 311.2C356.582 311.08 356.769 310.903 356.896 310.67C357.022 310.437 357.086 310.147 357.086 309.8V308.79L357.196 308.86C357.162 309.067 357.052 309.267 356.866 309.46C356.686 309.647 356.459 309.8 356.186 309.92C355.912 310.04 355.632 310.1 355.346 310.1C354.846 310.1 354.399 309.983 354.006 309.75C353.619 309.51 353.312 309.187 353.086 308.78C352.859 308.367 352.746 307.897 352.746 307.37C352.746 306.843 352.856 306.377 353.076 305.97C353.302 305.557 353.609 305.233 353.996 305C354.389 304.76 354.829 304.64 355.316 304.64C355.516 304.64 355.709 304.667 355.896 304.72C356.082 304.767 356.256 304.837 356.416 304.93C356.576 305.017 356.719 305.113 356.846 305.22C356.972 305.327 357.076 305.44 357.156 305.56C357.236 305.68 357.286 305.793 357.306 305.9L357.086 305.98V304.75H358.116V309.68C358.116 310.1 358.052 310.47 357.926 310.79C357.806 311.117 357.629 311.39 357.396 311.61C357.162 311.837 356.879 312.007 356.546 312.12C356.212 312.24 355.836 312.3 355.416 312.3ZM355.456 309.15C355.782 309.15 356.072 309.073 356.326 308.92C356.579 308.767 356.776 308.557 356.916 308.29C357.056 308.023 357.126 307.717 357.126 307.37C357.126 307.023 357.052 306.717 356.906 306.45C356.766 306.177 356.569 305.963 356.316 305.81C356.069 305.657 355.782 305.58 355.456 305.58C355.136 305.58 354.849 305.66 354.596 305.82C354.349 305.973 354.152 306.187 354.006 306.46C353.866 306.727 353.796 307.03 353.796 307.37C353.796 307.71 353.866 308.017 354.006 308.29C354.152 308.557 354.349 308.767 354.596 308.92C354.849 309.073 355.136 309.15 355.456 309.15ZM362.01 310.1C361.47 310.1 360.99 309.987 360.57 309.76C360.157 309.527 359.83 309.21 359.59 308.81C359.357 308.41 359.24 307.95 359.24 307.43C359.24 307.017 359.307 306.64 359.44 306.3C359.573 305.96 359.757 305.667 359.99 305.42C360.23 305.167 360.513 304.973 360.84 304.84C361.173 304.7 361.533 304.63 361.92 304.63C362.26 304.63 362.577 304.697 362.87 304.83C363.163 304.957 363.417 305.133 363.63 305.36C363.85 305.587 364.017 305.857 364.13 306.17C364.25 306.477 364.307 306.813 364.3 307.18L364.29 307.62H360L359.77 306.8H363.4L363.25 306.97V306.73C363.23 306.51 363.157 306.313 363.03 306.14C362.903 305.967 362.743 305.83 362.55 305.73C362.357 305.63 362.147 305.58 361.92 305.58C361.56 305.58 361.257 305.65 361.01 305.79C360.763 305.923 360.577 306.123 360.45 306.39C360.323 306.65 360.26 306.973 360.26 307.36C360.26 307.727 360.337 308.047 360.49 308.32C360.643 308.587 360.86 308.793 361.14 308.94C361.42 309.087 361.743 309.16 362.11 309.16C362.37 309.16 362.61 309.117 362.83 309.03C363.057 308.943 363.3 308.787 363.56 308.56L364.08 309.29C363.92 309.45 363.723 309.59 363.49 309.71C363.263 309.83 363.02 309.927 362.76 310C362.507 310.067 362.257 310.1 362.01 310.1ZM367.169 310.1C366.729 310.1 366.333 310.023 365.979 309.87C365.626 309.717 365.333 309.49 365.099 309.19L365.799 308.59C365.999 308.823 366.216 308.993 366.449 309.1C366.689 309.2 366.959 309.25 367.259 309.25C367.379 309.25 367.489 309.237 367.589 309.21C367.696 309.177 367.786 309.13 367.859 309.07C367.939 309.01 367.999 308.94 368.039 308.86C368.079 308.773 368.099 308.68 368.099 308.58C368.099 308.407 368.036 308.267 367.909 308.16C367.843 308.113 367.736 308.063 367.589 308.01C367.449 307.95 367.266 307.89 367.039 307.83C366.653 307.73 366.336 307.617 366.089 307.49C365.843 307.363 365.653 307.22 365.519 307.06C365.419 306.933 365.346 306.797 365.299 306.65C365.253 306.497 365.229 306.33 365.229 306.15C365.229 305.93 365.276 305.73 365.369 305.55C365.469 305.363 365.603 305.203 365.769 305.07C365.943 304.93 366.143 304.823 366.369 304.75C366.603 304.677 366.849 304.64 367.109 304.64C367.356 304.64 367.599 304.673 367.839 304.74C368.086 304.807 368.313 304.903 368.519 305.03C368.726 305.157 368.899 305.307 369.039 305.48L368.449 306.13C368.323 306.003 368.183 305.893 368.029 305.8C367.883 305.7 367.733 305.623 367.579 305.57C367.426 305.517 367.286 305.49 367.159 305.49C367.019 305.49 366.893 305.503 366.779 305.53C366.666 305.557 366.569 305.597 366.489 305.65C366.416 305.703 366.359 305.77 366.319 305.85C366.279 305.93 366.259 306.02 366.259 306.12C366.266 306.207 366.286 306.29 366.319 306.37C366.359 306.443 366.413 306.507 366.479 306.56C366.553 306.613 366.663 306.67 366.809 306.73C366.956 306.79 367.143 306.847 367.369 306.9C367.703 306.987 367.976 307.083 368.189 307.19C368.409 307.29 368.583 307.407 368.709 307.54C368.843 307.667 368.936 307.813 368.989 307.98C369.043 308.147 369.069 308.333 369.069 308.54C369.069 308.84 368.983 309.11 368.809 309.35C368.643 309.583 368.416 309.767 368.129 309.9C367.843 310.033 367.523 310.1 367.169 310.1ZM370.854 310V303.41H371.884V310H370.854ZM369.764 305.75V304.75H373.104V305.75H369.764ZM374.212 310V304.75H375.242V310H374.212ZM374.712 303.59C374.492 303.59 374.322 303.533 374.202 303.42C374.082 303.307 374.022 303.147 374.022 302.94C374.022 302.747 374.082 302.59 374.202 302.47C374.329 302.35 374.499 302.29 374.712 302.29C374.932 302.29 375.102 302.347 375.222 302.46C375.342 302.573 375.402 302.733 375.402 302.94C375.402 303.133 375.339 303.29 375.212 303.41C375.092 303.53 374.926 303.59 374.712 303.59ZM379.185 310.1C378.672 310.1 378.212 309.983 377.805 309.75C377.405 309.51 377.089 309.187 376.855 308.78C376.622 308.367 376.505 307.897 376.505 307.37C376.505 306.843 376.622 306.377 376.855 305.97C377.089 305.557 377.405 305.233 377.805 305C378.212 304.76 378.672 304.64 379.185 304.64C379.692 304.64 380.145 304.76 380.545 305C380.952 305.233 381.272 305.557 381.505 305.97C381.739 306.377 381.855 306.843 381.855 307.37C381.855 307.897 381.739 308.367 381.505 308.78C381.272 309.187 380.952 309.51 380.545 309.75C380.145 309.983 379.692 310.1 379.185 310.1ZM379.185 309.16C379.499 309.16 379.779 309.083 380.025 308.93C380.272 308.77 380.465 308.557 380.605 308.29C380.745 308.017 380.812 307.71 380.805 307.37C380.812 307.023 380.745 306.717 380.605 306.45C380.465 306.177 380.272 305.963 380.025 305.81C379.779 305.657 379.499 305.58 379.185 305.58C378.872 305.58 378.589 305.66 378.335 305.82C378.089 305.973 377.895 306.187 377.755 306.46C377.615 306.727 377.549 307.03 377.555 307.37C377.549 307.71 377.615 308.017 377.755 308.29C377.895 308.557 378.089 308.77 378.335 308.93C378.589 309.083 378.872 309.16 379.185 309.16ZM382.978 310V304.75H384.008V305.83L383.828 305.95C383.894 305.717 384.024 305.503 384.218 305.31C384.411 305.11 384.641 304.95 384.908 304.83C385.174 304.703 385.448 304.64 385.728 304.64C386.128 304.64 386.461 304.72 386.728 304.88C386.994 305.033 387.194 305.27 387.328 305.59C387.461 305.91 387.528 306.313 387.528 306.8V310H386.498V306.87C386.498 306.57 386.458 306.323 386.378 306.13C386.298 305.93 386.174 305.787 386.008 305.7C385.841 305.607 385.634 305.567 385.388 305.58C385.188 305.58 385.004 305.613 384.838 305.68C384.671 305.74 384.524 305.827 384.398 305.94C384.278 306.053 384.181 306.187 384.108 306.34C384.041 306.487 384.008 306.647 384.008 306.82V310H383.498C383.411 310 383.324 310 383.238 310C383.151 310 383.064 310 382.978 310Z" fill="#3B3B3B"/>
<rect x="103" y="329" width="77" height="7" rx="3.5" fill="#E4E6EA"/>
<rect x="264" y="329" width="77" height="7" rx="3.5" fill="#E4E6EA"/>
<rect x="92.25" y="319.25" width="133.5" height="26.5" rx="3.75" stroke="#E4E6EA" stroke-width="0.5"/>
<rect x="253.25" y="319.25" width="133.5" height="26.5" rx="3.75" stroke="#E4E6EA" stroke-width="0.5"/>
<path d="M206 330L211.5 335.5L217 330" stroke="#999999" stroke-linecap="round"/>
<path d="M367 330L372.5 335.5L378 330" stroke="#999999" stroke-linecap="round"/>
<rect x="82.5" y="377.5" width="164" height="61" rx="8.5" stroke="#C4C4C4" stroke-dasharray="7 7"/>
<rect x="259" y="377" width="138" height="62" rx="9" fill="#0900FF"/>
<path d="M98.375 414L102.44 403.5H104.09L108.125 414H106.4L104 407.67C103.97 407.6 103.91 407.43 103.82 407.16C103.74 406.89 103.645 406.59 103.535 406.26C103.425 405.93 103.325 405.63 103.235 405.36C103.145 405.08 103.085 404.9 103.055 404.82L103.4 404.805C103.34 404.975 103.265 405.19 103.175 405.45C103.095 405.71 103.005 405.985 102.905 406.275C102.815 406.565 102.725 406.84 102.635 407.1C102.545 407.35 102.47 407.56 102.41 407.73L100.025 414H98.375ZM100.175 411.39L100.775 409.83H105.545L106.235 411.39H100.175ZM110.485 414V404.115H112.03V414H110.485ZM108.85 407.625V406.125H113.86V407.625H108.85ZM116.242 414V404.115H117.787V414H116.242ZM114.607 407.625V406.125H119.617V407.625H114.607ZM123.98 414.15C123.33 414.15 122.735 413.97 122.195 413.61C121.665 413.25 121.24 412.76 120.92 412.14C120.6 411.52 120.44 410.82 120.44 410.04C120.44 409.25 120.6 408.55 120.92 407.94C121.25 407.32 121.69 406.835 122.24 406.485C122.8 406.135 123.425 405.96 124.115 405.96C124.525 405.96 124.9 406.02 125.24 406.14C125.58 406.26 125.875 406.43 126.125 406.65C126.385 406.86 126.595 407.105 126.755 407.385C126.925 407.665 127.03 407.965 127.07 408.285L126.725 408.165V406.125H128.285V414H126.725V412.125L127.085 412.02C127.025 412.29 126.9 412.555 126.71 412.815C126.53 413.065 126.295 413.29 126.005 413.49C125.725 413.69 125.41 413.85 125.06 413.97C124.72 414.09 124.36 414.15 123.98 414.15ZM124.385 412.725C124.855 412.725 125.27 412.61 125.63 412.38C125.99 412.15 126.27 411.835 126.47 411.435C126.68 411.025 126.785 410.56 126.785 410.04C126.785 409.53 126.68 409.075 126.47 408.675C126.27 408.275 125.99 407.96 125.63 407.73C125.27 407.5 124.855 407.385 124.385 407.385C123.925 407.385 123.515 407.5 123.155 407.73C122.805 407.96 122.525 408.275 122.315 408.675C122.115 409.075 122.015 409.53 122.015 410.04C122.015 410.56 122.115 411.025 122.315 411.435C122.525 411.835 122.805 412.15 123.155 412.38C123.515 412.61 123.925 412.725 124.385 412.725ZM133.787 414.15C133.057 414.15 132.402 413.97 131.822 413.61C131.252 413.25 130.797 412.76 130.457 412.14C130.127 411.52 129.962 410.825 129.962 410.055C129.962 409.285 130.127 408.59 130.457 407.97C130.797 407.35 131.252 406.86 131.822 406.5C132.402 406.14 133.057 405.96 133.787 405.96C134.487 405.96 135.122 406.105 135.692 406.395C136.272 406.675 136.712 407.06 137.012 407.55L136.157 408.6C135.997 408.37 135.792 408.16 135.542 407.97C135.292 407.78 135.027 407.63 134.747 407.52C134.467 407.41 134.197 407.355 133.937 407.355C133.457 407.355 133.027 407.475 132.647 407.715C132.277 407.945 131.982 408.265 131.762 408.675C131.542 409.085 131.432 409.545 131.432 410.055C131.432 410.565 131.547 411.025 131.777 411.435C132.007 411.835 132.312 412.155 132.692 412.395C133.072 412.635 133.492 412.755 133.952 412.755C134.222 412.755 134.482 412.71 134.732 412.62C134.992 412.53 135.242 412.395 135.482 412.215C135.722 412.035 135.947 411.815 136.157 411.555L137.012 412.605C136.692 413.055 136.232 413.425 135.632 413.715C135.042 414.005 134.427 414.15 133.787 414.15ZM138.47 414V402.9H140.015V407.745L139.745 407.925C139.845 407.575 140.04 407.255 140.33 406.965C140.62 406.665 140.965 406.425 141.365 406.245C141.765 406.055 142.175 405.96 142.595 405.96C143.195 405.96 143.695 406.08 144.095 406.32C144.495 406.55 144.795 406.905 144.995 407.385C145.195 407.865 145.295 408.47 145.295 409.2V414H143.75V409.305C143.75 408.855 143.69 408.485 143.57 408.195C143.45 407.895 143.265 407.68 143.015 407.55C142.765 407.41 142.455 407.35 142.085 407.37C141.785 407.37 141.51 407.42 141.26 407.52C141.01 407.61 140.79 407.74 140.6 407.91C140.42 408.08 140.275 408.28 140.165 408.51C140.065 408.73 140.015 408.97 140.015 409.23V414H139.25C139.12 414 138.99 414 138.86 414C138.73 414 138.6 414 138.47 414ZM147.361 414V406.125H148.921V407.805L148.636 407.985C148.716 407.725 148.841 407.475 149.011 407.235C149.191 406.995 149.406 406.785 149.656 406.605C149.916 406.415 150.191 406.265 150.481 406.155C150.781 406.045 151.086 405.99 151.396 405.99C151.846 405.99 152.241 406.065 152.581 406.215C152.921 406.365 153.201 406.59 153.421 406.89C153.641 407.19 153.801 407.565 153.901 408.015L153.661 407.955L153.766 407.7C153.876 407.47 154.026 407.255 154.216 407.055C154.416 406.845 154.641 406.66 154.891 406.5C155.141 406.34 155.406 406.215 155.686 406.125C155.966 406.035 156.241 405.99 156.511 405.99C157.101 405.99 157.586 406.11 157.966 406.35C158.356 406.59 158.646 406.955 158.836 407.445C159.036 407.935 159.136 408.545 159.136 409.275V414H157.576V409.365C157.576 408.915 157.516 408.55 157.396 408.27C157.286 407.98 157.116 407.765 156.886 407.625C156.656 407.485 156.361 407.415 156.001 407.415C155.721 407.415 155.456 407.465 155.206 407.565C154.966 407.655 154.756 407.785 154.576 407.955C154.396 408.125 154.256 408.325 154.156 408.555C154.056 408.775 154.006 409.02 154.006 409.29V414H152.446V409.335C152.446 408.925 152.386 408.58 152.266 408.3C152.146 408.01 151.971 407.79 151.741 407.64C151.511 407.49 151.231 407.415 150.901 407.415C150.621 407.415 150.361 407.465 150.121 407.565C149.881 407.655 149.671 407.785 149.491 407.955C149.311 408.115 149.171 408.31 149.071 408.54C148.971 408.76 148.921 409 148.921 409.26V414H147.361ZM164.879 414.15C164.069 414.15 163.349 413.98 162.719 413.64C162.099 413.29 161.609 412.815 161.249 412.215C160.899 411.615 160.724 410.925 160.724 410.145C160.724 409.525 160.824 408.96 161.024 408.45C161.224 407.94 161.499 407.5 161.849 407.13C162.209 406.75 162.634 406.46 163.124 406.26C163.624 406.05 164.164 405.945 164.744 405.945C165.254 405.945 165.729 406.045 166.169 406.245C166.609 406.435 166.989 406.7 167.309 407.04C167.639 407.38 167.889 407.785 168.059 408.255C168.239 408.715 168.324 409.22 168.314 409.77L168.299 410.43H161.864L161.519 409.2H166.964L166.739 409.455V409.095C166.709 408.765 166.599 408.47 166.409 408.21C166.219 407.95 165.979 407.745 165.689 407.595C165.399 407.445 165.084 407.37 164.744 407.37C164.204 407.37 163.749 407.475 163.379 407.685C163.009 407.885 162.729 408.185 162.539 408.585C162.349 408.975 162.254 409.46 162.254 410.04C162.254 410.59 162.369 411.07 162.599 411.48C162.829 411.88 163.154 412.19 163.574 412.41C163.994 412.63 164.479 412.74 165.029 412.74C165.419 412.74 165.779 412.675 166.109 412.545C166.449 412.415 166.814 412.18 167.204 411.84L167.984 412.935C167.744 413.175 167.449 413.385 167.099 413.565C166.759 413.745 166.394 413.89 166.004 414C165.624 414.1 165.249 414.15 164.879 414.15ZM169.993 414V406.125H171.538V407.745L171.268 407.925C171.368 407.575 171.563 407.255 171.853 406.965C172.143 406.665 172.488 406.425 172.888 406.245C173.288 406.055 173.698 405.96 174.118 405.96C174.718 405.96 175.218 406.08 175.618 406.32C176.018 406.55 176.318 406.905 176.518 407.385C176.718 407.865 176.818 408.47 176.818 409.2V414H175.273V409.305C175.273 408.855 175.213 408.485 175.093 408.195C174.973 407.895 174.788 407.68 174.538 407.55C174.288 407.41 173.978 407.35 173.608 407.37C173.308 407.37 173.033 407.42 172.783 407.52C172.533 407.61 172.313 407.74 172.123 407.91C171.943 408.08 171.798 408.28 171.688 408.51C171.588 408.73 171.538 408.97 171.538 409.23V414H170.773C170.643 414 170.513 414 170.383 414C170.253 414 170.123 414 169.993 414ZM179.889 414V404.115H181.434V414H179.889ZM178.254 407.625V406.125H183.264V407.625H178.254ZM187.589 414.15C186.929 414.15 186.334 414.035 185.804 413.805C185.274 413.575 184.834 413.235 184.484 412.785L185.534 411.885C185.834 412.235 186.159 412.49 186.509 412.65C186.869 412.8 187.274 412.875 187.724 412.875C187.904 412.875 188.069 412.855 188.219 412.815C188.379 412.765 188.514 412.695 188.624 412.605C188.744 412.515 188.834 412.41 188.894 412.29C188.954 412.16 188.984 412.02 188.984 411.87C188.984 411.61 188.889 411.4 188.699 411.24C188.599 411.17 188.439 411.095 188.219 411.015C188.009 410.925 187.734 410.835 187.394 410.745C186.814 410.595 186.339 410.425 185.969 410.235C185.599 410.045 185.314 409.83 185.114 409.59C184.964 409.4 184.854 409.195 184.784 408.975C184.714 408.745 184.679 408.495 184.679 408.225C184.679 407.895 184.749 407.595 184.889 407.325C185.039 407.045 185.239 406.805 185.489 406.605C185.749 406.395 186.049 406.235 186.389 406.125C186.739 406.015 187.109 405.96 187.499 405.96C187.869 405.96 188.234 406.01 188.594 406.11C188.964 406.21 189.304 406.355 189.614 406.545C189.924 406.735 190.184 406.96 190.394 407.22L189.509 408.195C189.319 408.005 189.109 407.84 188.879 407.7C188.659 407.55 188.434 407.435 188.204 407.355C187.974 407.275 187.764 407.235 187.574 407.235C187.364 407.235 187.174 407.255 187.004 407.295C186.834 407.335 186.689 407.395 186.569 407.475C186.459 407.555 186.374 407.655 186.314 407.775C186.254 407.895 186.224 408.03 186.224 408.18C186.234 408.31 186.264 408.435 186.314 408.555C186.374 408.665 186.454 408.76 186.554 408.84C186.664 408.92 186.829 409.005 187.049 409.095C187.269 409.185 187.549 409.27 187.889 409.35C188.389 409.48 188.799 409.625 189.119 409.785C189.449 409.935 189.709 410.11 189.899 410.31C190.099 410.5 190.239 410.72 190.319 410.97C190.399 411.22 190.439 411.5 190.439 411.81C190.439 412.26 190.309 412.665 190.049 413.025C189.799 413.375 189.459 413.65 189.029 413.85C188.599 414.05 188.119 414.15 187.589 414.15Z" fill="#C4C4C4"/>
<path d="M276.73 413.15C276 413.15 275.33 413.02 274.72 412.76C274.11 412.5 273.58 412.13 273.13 411.65C272.68 411.16 272.33 410.585 272.08 409.925C271.84 409.265 271.72 408.54 271.72 407.75C271.72 407 271.85 406.305 272.11 405.665C272.38 405.015 272.75 404.445 273.22 403.955C273.69 403.465 274.235 403.085 274.855 402.815C275.475 402.545 276.145 402.41 276.865 402.41C277.375 402.41 277.87 402.49 278.35 402.65C278.84 402.8 279.28 403.015 279.67 403.295C280.07 403.565 280.395 403.875 280.645 404.225L279.565 405.35C279.275 405.06 278.98 404.82 278.68 404.63C278.39 404.43 278.09 404.28 277.78 404.18C277.48 404.08 277.175 404.03 276.865 404.03C276.375 404.03 275.915 404.125 275.485 404.315C275.065 404.495 274.695 404.75 274.375 405.08C274.065 405.41 273.82 405.805 273.64 406.265C273.46 406.715 273.37 407.21 273.37 407.75C273.37 408.32 273.455 408.84 273.625 409.31C273.805 409.77 274.055 410.165 274.375 410.495C274.695 410.825 275.075 411.08 275.515 411.26C275.965 411.43 276.46 411.515 277 411.515C277.33 411.515 277.655 411.47 277.975 411.38C278.295 411.29 278.595 411.16 278.875 410.99C279.155 410.82 279.41 410.62 279.64 410.39L280.45 411.71C280.22 411.98 279.905 412.225 279.505 412.445C279.115 412.665 278.675 412.84 278.185 412.97C277.705 413.09 277.22 413.15 276.73 413.15ZM282.261 413V405.125H283.821V407.6L283.671 407C283.781 406.62 283.966 406.275 284.226 405.965C284.496 405.655 284.801 405.41 285.141 405.23C285.491 405.05 285.851 404.96 286.221 404.96C286.391 404.96 286.551 404.975 286.701 405.005C286.861 405.035 286.986 405.07 287.076 405.11L286.671 406.79C286.551 406.74 286.416 406.7 286.266 406.67C286.126 406.63 285.986 406.61 285.846 406.61C285.576 406.61 285.316 406.665 285.066 406.775C284.826 406.875 284.611 407.02 284.421 407.21C284.241 407.39 284.096 407.605 283.986 407.855C283.876 408.095 283.821 408.36 283.821 408.65V413H282.261ZM291.649 413.15C290.839 413.15 290.119 412.98 289.489 412.64C288.869 412.29 288.379 411.815 288.019 411.215C287.669 410.615 287.494 409.925 287.494 409.145C287.494 408.525 287.594 407.96 287.794 407.45C287.994 406.94 288.269 406.5 288.619 406.13C288.979 405.75 289.404 405.46 289.894 405.26C290.394 405.05 290.934 404.945 291.514 404.945C292.024 404.945 292.499 405.045 292.939 405.245C293.379 405.435 293.759 405.7 294.079 406.04C294.409 406.38 294.659 406.785 294.829 407.255C295.009 407.715 295.094 408.22 295.084 408.77L295.069 409.43H288.634L288.289 408.2H293.734L293.509 408.455V408.095C293.479 407.765 293.369 407.47 293.179 407.21C292.989 406.95 292.749 406.745 292.459 406.595C292.169 406.445 291.854 406.37 291.514 406.37C290.974 406.37 290.519 406.475 290.149 406.685C289.779 406.885 289.499 407.185 289.309 407.585C289.119 407.975 289.024 408.46 289.024 409.04C289.024 409.59 289.139 410.07 289.369 410.48C289.599 410.88 289.924 411.19 290.344 411.41C290.764 411.63 291.249 411.74 291.799 411.74C292.189 411.74 292.549 411.675 292.879 411.545C293.219 411.415 293.584 411.18 293.974 410.84L294.754 411.935C294.514 412.175 294.219 412.385 293.869 412.565C293.529 412.745 293.164 412.89 292.774 413C292.394 413.1 292.019 413.15 291.649 413.15ZM299.793 413.15C299.143 413.15 298.548 412.97 298.008 412.61C297.478 412.25 297.053 411.76 296.733 411.14C296.413 410.52 296.253 409.82 296.253 409.04C296.253 408.25 296.413 407.55 296.733 406.94C297.063 406.32 297.503 405.835 298.053 405.485C298.613 405.135 299.238 404.96 299.928 404.96C300.338 404.96 300.713 405.02 301.053 405.14C301.393 405.26 301.688 405.43 301.938 405.65C302.198 405.86 302.408 406.105 302.568 406.385C302.738 406.665 302.843 406.965 302.883 407.285L302.538 407.165V405.125H304.098V413H302.538V411.125L302.898 411.02C302.838 411.29 302.713 411.555 302.523 411.815C302.343 412.065 302.108 412.29 301.818 412.49C301.538 412.69 301.223 412.85 300.873 412.97C300.533 413.09 300.173 413.15 299.793 413.15ZM300.198 411.725C300.668 411.725 301.083 411.61 301.443 411.38C301.803 411.15 302.083 410.835 302.283 410.435C302.493 410.025 302.598 409.56 302.598 409.04C302.598 408.53 302.493 408.075 302.283 407.675C302.083 407.275 301.803 406.96 301.443 406.73C301.083 406.5 300.668 406.385 300.198 406.385C299.738 406.385 299.328 406.5 298.968 406.73C298.618 406.96 298.338 407.275 298.128 407.675C297.928 408.075 297.828 408.53 297.828 409.04C297.828 409.56 297.928 410.025 298.128 410.435C298.338 410.835 298.618 411.15 298.968 411.38C299.328 411.61 299.738 411.725 300.198 411.725ZM307.23 413V403.115H308.775V413H307.23ZM305.595 406.625V405.125H310.605V406.625H305.595ZM315.613 413.15C314.803 413.15 314.083 412.98 313.453 412.64C312.833 412.29 312.343 411.815 311.983 411.215C311.633 410.615 311.458 409.925 311.458 409.145C311.458 408.525 311.558 407.96 311.758 407.45C311.958 406.94 312.233 406.5 312.583 406.13C312.943 405.75 313.368 405.46 313.858 405.26C314.358 405.05 314.898 404.945 315.478 404.945C315.988 404.945 316.463 405.045 316.903 405.245C317.343 405.435 317.723 405.7 318.043 406.04C318.373 406.38 318.623 406.785 318.793 407.255C318.973 407.715 319.058 408.22 319.048 408.77L319.033 409.43H312.598L312.253 408.2H317.698L317.473 408.455V408.095C317.443 407.765 317.333 407.47 317.143 407.21C316.953 406.95 316.713 406.745 316.423 406.595C316.133 406.445 315.818 406.37 315.478 406.37C314.938 406.37 314.483 406.475 314.113 406.685C313.743 406.885 313.463 407.185 313.273 407.585C313.083 407.975 312.988 408.46 312.988 409.04C312.988 409.59 313.103 410.07 313.333 410.48C313.563 410.88 313.888 411.19 314.308 411.41C314.728 411.63 315.213 411.74 315.763 411.74C316.153 411.74 316.513 411.675 316.843 411.545C317.183 411.415 317.548 411.18 317.938 410.84L318.718 411.935C318.478 412.175 318.183 412.385 317.833 412.565C317.493 412.745 317.128 412.89 316.738 413C316.358 413.1 315.983 413.15 315.613 413.15ZM325.322 413V402.5H329.792C330.392 402.5 330.942 402.65 331.442 402.95C331.952 403.24 332.357 403.64 332.657 404.15C332.957 404.65 333.107 405.215 333.107 405.845C333.107 406.415 332.957 406.945 332.657 407.435C332.357 407.925 331.957 408.32 331.457 408.62C330.957 408.91 330.402 409.055 329.792 409.055H326.942V413H325.322ZM331.562 413L328.892 408.26L330.557 407.885L333.527 413.015L331.562 413ZM326.942 407.495H329.942C330.232 407.495 330.492 407.425 330.722 407.285C330.952 407.135 331.132 406.935 331.262 406.685C331.392 406.425 331.457 406.14 331.457 405.83C331.457 405.48 331.372 405.175 331.202 404.915C331.042 404.645 330.812 404.435 330.512 404.285C330.222 404.135 329.892 404.06 329.522 404.06H326.942V407.495ZM338.743 413.15C337.933 413.15 337.213 412.98 336.583 412.64C335.963 412.29 335.473 411.815 335.113 411.215C334.763 410.615 334.588 409.925 334.588 409.145C334.588 408.525 334.688 407.96 334.888 407.45C335.088 406.94 335.363 406.5 335.713 406.13C336.073 405.75 336.498 405.46 336.988 405.26C337.488 405.05 338.028 404.945 338.608 404.945C339.118 404.945 339.593 405.045 340.033 405.245C340.473 405.435 340.853 405.7 341.173 406.04C341.503 406.38 341.753 406.785 341.923 407.255C342.103 407.715 342.188 408.22 342.178 408.77L342.163 409.43H335.728L335.383 408.2H340.828L340.603 408.455V408.095C340.573 407.765 340.463 407.47 340.273 407.21C340.083 406.95 339.843 406.745 339.553 406.595C339.263 406.445 338.948 406.37 338.608 406.37C338.068 406.37 337.613 406.475 337.243 406.685C336.873 406.885 336.593 407.185 336.403 407.585C336.213 407.975 336.118 408.46 336.118 409.04C336.118 409.59 336.233 410.07 336.463 410.48C336.693 410.88 337.018 411.19 337.438 411.41C337.858 411.63 338.343 411.74 338.893 411.74C339.283 411.74 339.643 411.675 339.973 411.545C340.313 411.415 340.678 411.18 341.068 410.84L341.848 411.935C341.608 412.175 341.313 412.385 340.963 412.565C340.623 412.745 340.258 412.89 339.868 413C339.488 413.1 339.113 413.15 338.743 413.15ZM349.602 416.3V411.125H349.902C349.902 411.365 349.822 411.605 349.662 411.845C349.502 412.075 349.287 412.29 349.017 412.49C348.747 412.69 348.447 412.85 348.117 412.97C347.787 413.09 347.447 413.15 347.097 413.15C346.387 413.15 345.752 412.975 345.192 412.625C344.632 412.265 344.187 411.78 343.857 411.17C343.537 410.55 343.377 409.845 343.377 409.055C343.377 408.265 343.537 407.565 343.857 406.955C344.177 406.335 344.612 405.85 345.162 405.5C345.722 405.14 346.352 404.96 347.052 404.96C347.442 404.96 347.812 405.025 348.162 405.155C348.522 405.285 348.842 405.455 349.122 405.665C349.412 405.875 349.637 406.11 349.797 406.37C349.967 406.62 350.052 406.875 350.052 407.135L349.602 407.165V405.11H351.147V416.3H349.602ZM347.262 411.725C347.732 411.725 348.147 411.61 348.507 411.38C348.867 411.15 349.147 410.835 349.347 410.435C349.557 410.035 349.662 409.575 349.662 409.055C349.662 408.535 349.557 408.075 349.347 407.675C349.147 407.265 348.867 406.945 348.507 406.715C348.147 406.485 347.732 406.37 347.262 406.37C346.792 406.37 346.377 406.49 346.017 406.73C345.657 406.96 345.372 407.28 345.162 407.69C344.962 408.09 344.862 408.545 344.862 409.055C344.862 409.565 344.962 410.025 345.162 410.435C345.372 410.835 345.657 411.15 346.017 411.38C346.377 411.61 346.792 411.725 347.262 411.725ZM356.066 413.15C355.506 413.15 355.016 413.02 354.596 412.76C354.186 412.5 353.866 412.135 353.636 411.665C353.416 411.195 353.306 410.635 353.306 409.985V405.125H354.851V409.565C354.851 410.025 354.921 410.425 355.061 410.765C355.211 411.095 355.421 411.35 355.691 411.53C355.971 411.71 356.306 411.8 356.696 411.8C356.986 411.8 357.251 411.755 357.491 411.665C357.731 411.565 357.936 411.43 358.106 411.26C358.286 411.09 358.426 410.885 358.526 410.645C358.626 410.405 358.676 410.145 358.676 409.865V405.125H360.221V413H358.676V411.35L358.946 411.17C358.826 411.54 358.621 411.875 358.331 412.175C358.051 412.475 357.716 412.715 357.326 412.895C356.936 413.065 356.516 413.15 356.066 413.15ZM366.063 413.15C365.253 413.15 364.533 412.98 363.903 412.64C363.283 412.29 362.793 411.815 362.433 411.215C362.083 410.615 361.908 409.925 361.908 409.145C361.908 408.525 362.008 407.96 362.208 407.45C362.408 406.94 362.683 406.5 363.033 406.13C363.393 405.75 363.818 405.46 364.308 405.26C364.808 405.05 365.348 404.945 365.928 404.945C366.438 404.945 366.913 405.045 367.353 405.245C367.793 405.435 368.173 405.7 368.493 406.04C368.823 406.38 369.073 406.785 369.243 407.255C369.423 407.715 369.508 408.22 369.498 408.77L369.483 409.43H363.048L362.703 408.2H368.148L367.923 408.455V408.095C367.893 407.765 367.783 407.47 367.593 407.21C367.403 406.95 367.163 406.745 366.873 406.595C366.583 406.445 366.268 406.37 365.928 406.37C365.388 406.37 364.933 406.475 364.563 406.685C364.193 406.885 363.913 407.185 363.723 407.585C363.533 407.975 363.438 408.46 363.438 409.04C363.438 409.59 363.553 410.07 363.783 410.48C364.013 410.88 364.338 411.19 364.758 411.41C365.178 411.63 365.663 411.74 366.213 411.74C366.603 411.74 366.963 411.675 367.293 411.545C367.633 411.415 367.998 411.18 368.388 410.84L369.168 411.935C368.928 412.175 368.633 412.385 368.283 412.565C367.943 412.745 367.578 412.89 367.188 413C366.808 413.1 366.433 413.15 366.063 413.15ZM373.802 413.15C373.142 413.15 372.547 413.035 372.017 412.805C371.487 412.575 371.047 412.235 370.697 411.785L371.747 410.885C372.047 411.235 372.372 411.49 372.722 411.65C373.082 411.8 373.487 411.875 373.937 411.875C374.117 411.875 374.282 411.855 374.432 411.815C374.592 411.765 374.727 411.695 374.837 411.605C374.957 411.515 375.047 411.41 375.107 411.29C375.167 411.16 375.197 411.02 375.197 410.87C375.197 410.61 375.102 410.4 374.912 410.24C374.812 410.17 374.652 410.095 374.432 410.015C374.222 409.925 373.947 409.835 373.607 409.745C373.027 409.595 372.552 409.425 372.182 409.235C371.812 409.045 371.527 408.83 371.327 408.59C371.177 408.4 371.067 408.195 370.997 407.975C370.927 407.745 370.892 407.495 370.892 407.225C370.892 406.895 370.962 406.595 371.102 406.325C371.252 406.045 371.452 405.805 371.702 405.605C371.962 405.395 372.262 405.235 372.602 405.125C372.952 405.015 373.322 404.96 373.712 404.96C374.082 404.96 374.447 405.01 374.807 405.11C375.177 405.21 375.517 405.355 375.827 405.545C376.137 405.735 376.397 405.96 376.607 406.22L375.722 407.195C375.532 407.005 375.322 406.84 375.092 406.7C374.872 406.55 374.647 406.435 374.417 406.355C374.187 406.275 373.977 406.235 373.787 406.235C373.577 406.235 373.387 406.255 373.217 406.295C373.047 406.335 372.902 406.395 372.782 406.475C372.672 406.555 372.587 406.655 372.527 406.775C372.467 406.895 372.437 407.03 372.437 407.18C372.447 407.31 372.477 407.435 372.527 407.555C372.587 407.665 372.667 407.76 372.767 407.84C372.877 407.92 373.042 408.005 373.262 408.095C373.482 408.185 373.762 408.27 374.102 408.35C374.602 408.48 375.012 408.625 375.332 408.785C375.662 408.935 375.922 409.11 376.112 409.31C376.312 409.5 376.452 409.72 376.532 409.97C376.612 410.22 376.652 410.5 376.652 410.81C376.652 411.26 376.522 411.665 376.262 412.025C376.012 412.375 375.672 412.65 375.242 412.85C374.812 413.05 374.332 413.15 373.802 413.15ZM379.329 413V403.115H380.874V413H379.329ZM377.694 406.625V405.125H382.704V406.625H377.694Z" fill="white"/>
<path d="M216.55 404.756L220.906 400.916V412.656C220.906 412.985 221.172 413.25 221.5 413.25C221.828 413.25 222.094 412.985 222.094 412.656V400.916L226.45 404.787C226.562 404.89 226.703 404.938 226.844 404.938C227.007 404.938 227.171 404.871 227.288 404.738C227.506 404.494 227.483 404.118 227.238 403.9L221.894 399.15C221.669 398.95 221.331 398.95 221.106 399.15L215.762 403.9C215.517 404.118 215.494 404.492 215.711 404.737C215.928 404.982 216.308 405.005 216.55 404.756ZM228.625 410.875H224.469C224.141 410.875 223.875 411.141 223.875 411.469C223.875 411.797 224.141 412.063 224.469 412.063H228.625C229.281 412.063 229.812 412.594 229.812 413.25V415.625C229.812 416.281 229.281 416.813 228.625 416.813H214.375C213.719 416.813 213.188 416.281 213.188 415.625V413.25C213.188 412.594 213.719 412.063 214.375 412.063H218.531C218.858 412.063 219.125 411.795 219.125 411.469C219.125 411.142 218.858 410.875 218.531 410.875H214.375C213.063 410.875 212 411.938 212 413.25V415.625C212 416.937 213.063 418 214.375 418H228.625C229.937 418 231 416.937 231 415.625V413.25C231 411.94 229.935 410.875 228.625 410.875ZM228.328 414.438C228.328 413.946 227.929 413.547 227.438 413.547C226.946 413.547 226.547 413.946 226.547 414.438C226.547 414.929 226.946 415.328 227.438 415.328C227.929 415.328 228.328 414.931 228.328 414.438Z" fill="black"/>
</svg>
