<svg width="480" height="540" viewBox="0 0 480 540" fill="none" xmlns="http://www.w3.org/2000/svg">
<path d="M85 76H396C405.389 76 413 83.6112 413 93V447C413 456.389 405.389 464 396 464H85C75.6111 464 68 456.389 68 447V93C68 83.6112 75.6111 76 85 76Z" fill="#F1F5F7"/>
<path d="M116.729 372V358.7H122.619C123.442 358.7 124.19 358.89 124.861 359.27C125.532 359.637 126.058 360.138 126.438 360.771C126.831 361.404 127.027 362.126 127.027 362.937C127.027 363.735 126.831 364.463 126.438 365.122C126.058 365.768 125.532 366.281 124.861 366.661C124.19 367.041 123.442 367.231 122.619 367.231H119.484V372H116.729ZM124.272 372L120.89 365.996L123.816 365.521L127.578 372.019L124.272 372ZM119.484 364.913H122.486C122.828 364.913 123.126 364.837 123.379 364.685C123.645 364.52 123.848 364.299 123.987 364.02C124.126 363.729 124.196 363.406 124.196 363.051C124.196 362.671 124.114 362.342 123.949 362.063C123.784 361.784 123.544 361.569 123.227 361.417C122.91 361.252 122.543 361.17 122.125 361.17H119.484V364.913ZM134.051 372.19C132.961 372.19 132.005 371.968 131.182 371.525C130.371 371.082 129.738 370.474 129.282 369.701C128.838 368.928 128.617 368.042 128.617 367.041C128.617 366.256 128.743 365.54 128.997 364.894C129.25 364.248 129.605 363.691 130.061 363.222C130.517 362.741 131.055 362.373 131.676 362.12C132.309 361.854 132.993 361.721 133.728 361.721C134.412 361.721 135.045 361.848 135.628 362.101C136.21 362.354 136.711 362.709 137.129 363.165C137.559 363.608 137.889 364.14 138.117 364.761C138.345 365.369 138.446 366.028 138.421 366.737L138.402 367.573H130.327L129.89 365.92H136.179L135.875 366.262V365.844C135.849 365.502 135.735 365.198 135.533 364.932C135.343 364.653 135.096 364.438 134.792 364.286C134.488 364.121 134.146 364.039 133.766 364.039C133.208 364.039 132.733 364.147 132.341 364.362C131.961 364.577 131.669 364.894 131.467 365.312C131.264 365.73 131.163 366.237 131.163 366.832C131.163 367.44 131.289 367.966 131.543 368.409C131.809 368.852 132.176 369.201 132.645 369.454C133.126 369.695 133.69 369.815 134.336 369.815C134.779 369.815 135.184 369.745 135.552 369.606C135.919 369.467 136.312 369.226 136.73 368.884L138.022 370.689C137.654 371.018 137.249 371.297 136.806 371.525C136.362 371.74 135.906 371.905 135.438 372.019C134.969 372.133 134.507 372.19 134.051 372.19ZM140.395 372V361.949H142.998L143.055 363.868L142.656 363.944C142.796 363.615 142.979 363.317 143.207 363.051C143.448 362.785 143.72 362.557 144.024 362.367C144.328 362.177 144.651 362.031 144.993 361.93C145.335 361.816 145.677 361.759 146.019 361.759C146.539 361.759 147.007 361.841 147.425 362.006C147.843 362.171 148.198 362.43 148.489 362.785C148.781 363.127 149.009 363.583 149.173 364.153L148.755 364.115L148.888 363.811C149.053 363.507 149.262 363.228 149.515 362.975C149.769 362.722 150.054 362.506 150.37 362.329C150.687 362.152 151.016 362.012 151.358 361.911C151.7 361.81 152.036 361.759 152.365 361.759C153.151 361.759 153.803 361.917 154.322 362.234C154.842 362.538 155.228 363 155.481 363.621C155.747 364.242 155.88 365.002 155.88 365.901V372H153.182V366.091C153.182 365.635 153.119 365.261 152.992 364.97C152.866 364.679 152.682 364.463 152.441 364.324C152.201 364.172 151.89 364.096 151.51 364.096C151.219 364.096 150.947 364.147 150.693 364.248C150.453 364.337 150.237 364.47 150.047 364.647C149.87 364.812 149.731 365.014 149.629 365.255C149.528 365.483 149.477 365.73 149.477 365.996V372H146.76V366.072C146.76 365.654 146.697 365.299 146.57 365.008C146.444 364.704 146.26 364.476 146.019 364.324C145.779 364.172 145.481 364.096 145.126 364.096C144.835 364.096 144.563 364.147 144.309 364.248C144.069 364.337 143.86 364.47 143.682 364.647C143.505 364.812 143.366 365.008 143.264 365.236C143.163 365.464 143.112 365.711 143.112 365.977V372H140.395ZM158.678 372V361.949H161.376V372H158.678ZM160.008 359.897C159.488 359.897 159.083 359.77 158.792 359.517C158.5 359.251 158.355 358.884 158.355 358.415C158.355 357.984 158.5 357.636 158.792 357.37C159.096 357.091 159.501 356.952 160.008 356.952C160.527 356.952 160.932 357.085 161.224 357.351C161.515 357.604 161.661 357.959 161.661 358.415C161.661 358.846 161.509 359.2 161.205 359.479C160.913 359.758 160.514 359.897 160.008 359.897ZM164.257 372V361.949H166.841L166.917 364.001L166.385 364.229C166.525 363.773 166.772 363.361 167.126 362.994C167.494 362.614 167.931 362.31 168.437 362.082C168.944 361.854 169.476 361.74 170.033 361.74C170.793 361.74 171.427 361.892 171.933 362.196C172.453 362.5 172.839 362.962 173.092 363.583C173.358 364.191 173.491 364.945 173.491 365.844V372H170.793V366.053C170.793 365.597 170.73 365.217 170.603 364.913C170.477 364.609 170.28 364.387 170.014 364.248C169.761 364.109 169.444 364.045 169.064 364.058C168.76 364.058 168.475 364.109 168.209 364.21C167.956 364.299 167.734 364.432 167.544 364.609C167.367 364.786 167.221 364.989 167.107 365.217C167.006 365.445 166.955 365.692 166.955 365.958V372H165.625C165.334 372 165.074 372 164.846 372C164.618 372 164.422 372 164.257 372ZM180.01 372.19C179.123 372.19 178.331 371.968 177.635 371.525C176.951 371.069 176.406 370.455 176.001 369.682C175.608 368.897 175.412 367.991 175.412 366.965C175.412 365.964 175.608 365.071 176.001 364.286C176.406 363.488 176.951 362.867 177.635 362.424C178.331 361.968 179.123 361.74 180.01 361.74C180.478 361.74 180.928 361.816 181.359 361.968C181.802 362.107 182.195 362.304 182.537 362.557C182.891 362.81 183.176 363.095 183.392 363.412C183.607 363.716 183.727 364.033 183.753 364.362L183.069 364.495V357.94H185.786V372H183.221L183.107 369.682L183.639 369.739C183.613 370.056 183.499 370.36 183.297 370.651C183.094 370.942 182.822 371.208 182.48 371.449C182.15 371.677 181.77 371.861 181.34 372C180.922 372.127 180.478 372.19 180.01 372.19ZM180.618 369.948C181.124 369.948 181.568 369.821 181.948 369.568C182.328 369.315 182.625 368.966 182.841 368.523C183.056 368.08 183.164 367.56 183.164 366.965C183.164 366.382 183.056 365.869 182.841 365.426C182.625 364.983 182.328 364.634 181.948 364.381C181.568 364.128 181.124 364.001 180.618 364.001C180.111 364.001 179.668 364.128 179.288 364.381C178.92 364.634 178.629 364.983 178.414 365.426C178.211 365.869 178.11 366.382 178.11 366.965C178.11 367.56 178.211 368.08 178.414 368.523C178.629 368.966 178.92 369.315 179.288 369.568C179.668 369.821 180.111 369.948 180.618 369.948ZM193.166 372.19C192.077 372.19 191.12 371.968 190.297 371.525C189.486 371.082 188.853 370.474 188.397 369.701C187.954 368.928 187.732 368.042 187.732 367.041C187.732 366.256 187.859 365.54 188.112 364.894C188.365 364.248 188.72 363.691 189.176 363.222C189.632 362.741 190.17 362.373 190.791 362.12C191.424 361.854 192.108 361.721 192.843 361.721C193.527 361.721 194.16 361.848 194.743 362.101C195.326 362.354 195.826 362.709 196.244 363.165C196.675 363.608 197.004 364.14 197.232 364.761C197.46 365.369 197.561 366.028 197.536 366.737L197.517 367.573H189.442L189.005 365.92H195.294L194.99 366.262V365.844C194.965 365.502 194.851 365.198 194.648 364.932C194.458 364.653 194.211 364.438 193.907 364.286C193.603 364.121 193.261 364.039 192.881 364.039C192.324 364.039 191.849 364.147 191.456 364.362C191.076 364.577 190.785 364.894 190.582 365.312C190.379 365.73 190.278 366.237 190.278 366.832C190.278 367.44 190.405 367.966 190.658 368.409C190.924 368.852 191.291 369.201 191.76 369.454C192.241 369.695 192.805 369.815 193.451 369.815C193.894 369.815 194.3 369.745 194.667 369.606C195.034 369.467 195.427 369.226 195.845 368.884L197.137 370.689C196.77 371.018 196.364 371.297 195.921 371.525C195.478 371.74 195.022 371.905 194.553 372.019C194.084 372.133 193.622 372.19 193.166 372.19ZM199.53 372V361.949H202.133L202.228 365.179L201.772 364.514C201.924 363.995 202.171 363.526 202.513 363.108C202.855 362.677 203.254 362.342 203.71 362.101C204.178 361.86 204.666 361.74 205.173 361.74C205.388 361.74 205.597 361.759 205.8 361.797C206.002 361.835 206.173 361.879 206.313 361.93L205.591 364.894C205.451 364.818 205.268 364.755 205.04 364.704C204.824 364.641 204.603 364.609 204.375 364.609C204.071 364.609 203.786 364.666 203.52 364.78C203.266 364.881 203.045 365.033 202.855 365.236C202.665 365.426 202.513 365.654 202.399 365.92C202.297 366.186 202.247 366.477 202.247 366.794V372H199.53ZM211.243 372.19C210.305 372.19 209.469 372.038 208.735 371.734C208.013 371.417 207.43 370.987 206.987 370.442L208.678 368.998C209.058 369.416 209.488 369.72 209.97 369.91C210.451 370.087 210.932 370.176 211.414 370.176C211.604 370.176 211.775 370.157 211.927 370.119C212.091 370.068 212.231 370.005 212.345 369.929C212.459 369.84 212.541 369.739 212.592 369.625C212.655 369.498 212.687 369.365 212.687 369.226C212.687 368.947 212.573 368.732 212.345 368.58C212.218 368.504 212.022 368.422 211.756 368.333C211.49 368.232 211.148 368.124 210.73 368.01C210.084 367.845 209.533 367.655 209.077 367.44C208.633 367.212 208.279 366.959 208.013 366.68C207.785 366.414 207.607 366.129 207.481 365.825C207.367 365.508 207.31 365.16 207.31 364.78C207.31 364.324 207.411 363.912 207.614 363.545C207.816 363.165 208.095 362.842 208.45 362.576C208.817 362.31 209.235 362.107 209.704 361.968C210.172 361.816 210.666 361.74 211.186 361.74C211.705 361.74 212.212 361.803 212.706 361.93C213.2 362.057 213.656 362.24 214.074 362.481C214.504 362.709 214.878 362.981 215.195 363.298L213.751 364.894C213.523 364.679 213.263 364.482 212.972 364.305C212.693 364.128 212.402 363.988 212.098 363.887C211.794 363.786 211.521 363.735 211.281 363.735C211.065 363.735 210.869 363.754 210.692 363.792C210.527 363.83 210.388 363.893 210.274 363.982C210.16 364.058 210.071 364.153 210.008 364.267C209.957 364.381 209.932 364.508 209.932 364.647C209.932 364.786 209.963 364.919 210.027 365.046C210.103 365.173 210.204 365.28 210.331 365.369C210.47 365.445 210.673 365.534 210.939 365.635C211.217 365.736 211.591 365.85 212.06 365.977C212.668 366.142 213.181 366.325 213.599 366.528C214.029 366.731 214.371 366.965 214.625 367.231C214.84 367.459 214.998 367.719 215.1 368.01C215.201 368.301 215.252 368.624 215.252 368.979C215.252 369.6 215.074 370.151 214.72 370.632C214.378 371.113 213.903 371.493 213.295 371.772C212.687 372.051 212.003 372.19 211.243 372.19ZM232.634 372L231.19 370.48L230.316 369.644L227.352 366.452C226.922 365.983 226.542 365.54 226.212 365.122C225.896 364.704 225.63 364.311 225.414 363.944C225.212 363.564 225.06 363.209 224.958 362.88C224.857 362.551 224.806 362.24 224.806 361.949C224.806 361.278 224.984 360.676 225.338 360.144C225.693 359.612 226.181 359.194 226.801 358.89C227.422 358.586 228.144 358.434 228.967 358.434C229.575 358.434 230.145 358.542 230.677 358.757C231.222 358.96 231.691 359.251 232.083 359.631C232.476 359.998 232.755 360.435 232.919 360.942L230.81 362.215C230.595 361.683 230.342 361.309 230.05 361.094C229.772 360.879 229.43 360.771 229.024 360.771C228.72 360.771 228.461 360.822 228.245 360.923C228.03 361.024 227.865 361.17 227.751 361.36C227.637 361.537 227.58 361.765 227.58 362.044C227.58 362.31 227.669 362.614 227.846 362.956C228.036 363.298 228.271 363.653 228.549 364.02C228.841 364.375 229.132 364.717 229.423 365.046C229.727 365.363 229.993 365.641 230.221 365.882L232.026 367.858L233.09 368.865L236.016 372H232.634ZM227.732 372.19C226.77 372.19 225.902 372 225.129 371.62C224.357 371.227 223.742 370.708 223.286 370.062C222.83 369.403 222.602 368.681 222.602 367.896C222.602 366.946 222.868 366.104 223.4 365.369C223.945 364.634 224.749 364.071 225.813 363.678L227.485 365.407C226.751 365.559 226.2 365.825 225.832 366.205C225.465 366.572 225.281 367.054 225.281 367.649C225.281 368.118 225.389 368.523 225.604 368.865C225.82 369.207 226.136 369.473 226.554 369.663C226.985 369.853 227.492 369.948 228.074 369.948C228.594 369.948 229.075 369.84 229.518 369.625C229.974 369.41 230.38 369.112 230.734 368.732C231.089 368.339 231.38 367.877 231.608 367.345C231.836 366.8 231.995 366.192 232.083 365.521H234.572C234.458 366.319 234.262 367.06 233.983 367.744C233.717 368.428 233.375 369.042 232.957 369.587C232.552 370.132 232.083 370.6 231.551 370.993C231.019 371.386 230.43 371.683 229.784 371.886C229.151 372.089 228.467 372.19 227.732 372.19ZM243.717 372V358.7H246.263L253.616 368.637H253.084C253.034 368.244 252.989 367.864 252.951 367.497C252.913 367.117 252.875 366.737 252.837 366.357C252.812 365.964 252.787 365.565 252.761 365.16C252.749 364.742 252.736 364.305 252.723 363.849C252.711 363.38 252.704 362.874 252.704 362.329V358.7H255.497V372H252.913L245.408 361.968L246.13 361.987C246.194 362.646 246.244 363.209 246.282 363.678C246.333 364.134 246.371 364.533 246.396 364.875C246.434 365.217 246.46 365.515 246.472 365.768C246.485 366.021 246.491 366.262 246.491 366.49C246.504 366.718 246.51 366.959 246.51 367.212V372H243.717ZM263.245 372.19C262.219 372.19 261.3 371.968 260.49 371.525C259.692 371.069 259.058 370.448 258.59 369.663C258.134 368.878 257.906 367.978 257.906 366.965C257.906 365.952 258.134 365.052 258.59 364.267C259.058 363.482 259.692 362.867 260.49 362.424C261.3 361.968 262.219 361.74 263.245 361.74C264.258 361.74 265.164 361.968 265.962 362.424C266.772 362.867 267.406 363.482 267.862 364.267C268.318 365.052 268.546 365.952 268.546 366.965C268.546 367.978 268.318 368.878 267.862 369.663C267.406 370.448 266.772 371.069 265.962 371.525C265.164 371.968 264.258 372.19 263.245 372.19ZM263.245 369.834C263.739 369.834 264.182 369.714 264.575 369.473C264.967 369.22 265.271 368.878 265.487 368.447C265.715 368.004 265.822 367.51 265.81 366.965C265.822 366.408 265.715 365.914 265.487 365.483C265.271 365.04 264.967 364.698 264.575 364.457C264.182 364.204 263.739 364.077 263.245 364.077C262.738 364.077 262.288 364.204 261.896 364.457C261.503 364.71 261.193 365.052 260.965 365.483C260.737 365.914 260.629 366.408 260.642 366.965C260.629 367.51 260.737 368.004 260.965 368.447C261.193 368.878 261.503 369.22 261.896 369.473C262.288 369.714 262.738 369.834 263.245 369.834ZM271.563 372V359.403H274.261V372H271.563ZM269.682 364.362V361.949H276.332V364.362H269.682ZM278.3 372V361.949H280.998V372H278.3ZM279.63 359.897C279.11 359.897 278.705 359.77 278.414 359.517C278.122 359.251 277.977 358.884 277.977 358.415C277.977 357.984 278.122 357.636 278.414 357.37C278.718 357.091 279.123 356.952 279.63 356.952C280.149 356.952 280.554 357.085 280.846 357.351C281.137 357.604 281.283 357.959 281.283 358.415C281.283 358.846 281.131 359.2 280.827 359.479C280.535 359.758 280.136 359.897 279.63 359.897ZM284.658 372V361.246C284.658 360.625 284.798 360.062 285.076 359.555C285.355 359.048 285.735 358.649 286.216 358.358C286.71 358.067 287.287 357.921 287.945 357.921C288.389 357.921 288.807 357.997 289.199 358.149C289.592 358.288 289.928 358.478 290.206 358.719L289.408 360.714C289.244 360.613 289.073 360.53 288.895 360.467C288.731 360.391 288.579 360.353 288.439 360.353C288.199 360.353 287.996 360.397 287.831 360.486C287.679 360.562 287.565 360.682 287.489 360.847C287.413 360.999 287.375 361.195 287.375 361.436V372H286.026C285.735 372 285.475 372 285.247 372C285.019 372 284.823 372 284.658 372ZM283.157 364.476V362.196H289.541V364.476H283.157ZM291.574 372V361.949H294.272V372H291.574ZM292.904 359.897C292.385 359.897 291.98 359.77 291.688 359.517C291.397 359.251 291.251 358.884 291.251 358.415C291.251 357.984 291.397 357.636 291.688 357.37C291.992 357.091 292.398 356.952 292.904 356.952C293.424 356.952 293.829 357.085 294.12 357.351C294.412 357.604 294.557 357.959 294.557 358.415C294.557 358.846 294.405 359.2 294.101 359.479C293.81 359.758 293.411 359.897 292.904 359.897ZM301.534 372.19C300.572 372.19 299.71 371.962 298.95 371.506C298.19 371.05 297.589 370.429 297.145 369.644C296.715 368.859 296.499 367.966 296.499 366.965C296.499 365.964 296.715 365.071 297.145 364.286C297.589 363.501 298.19 362.88 298.95 362.424C299.71 361.968 300.572 361.74 301.534 361.74C302.434 361.74 303.257 361.905 304.004 362.234C304.752 362.563 305.334 363.019 305.752 363.602L304.27 365.388C304.093 365.147 303.871 364.932 303.605 364.742C303.339 364.539 303.048 364.381 302.731 364.267C302.427 364.153 302.111 364.096 301.781 364.096C301.262 364.096 300.8 364.223 300.394 364.476C300.002 364.717 299.691 365.052 299.463 365.483C299.235 365.914 299.121 366.408 299.121 366.965C299.121 367.497 299.235 367.978 299.463 368.409C299.704 368.84 300.027 369.182 300.432 369.435C300.838 369.688 301.294 369.815 301.8 369.815C302.13 369.815 302.44 369.771 302.731 369.682C303.023 369.593 303.295 369.454 303.548 369.264C303.814 369.074 304.055 368.846 304.27 368.58L305.733 370.366C305.315 370.911 304.72 371.354 303.947 371.696C303.187 372.025 302.383 372.19 301.534 372.19ZM311.224 372.19C310.388 372.19 309.635 371.962 308.963 371.506C308.292 371.05 307.76 370.429 307.367 369.644C306.975 368.859 306.778 367.959 306.778 366.946C306.778 365.933 306.975 365.033 307.367 364.248C307.773 363.463 308.317 362.848 309.001 362.405C309.685 361.962 310.464 361.74 311.338 361.74C311.832 361.74 312.282 361.816 312.687 361.968C313.105 362.107 313.466 362.304 313.77 362.557C314.087 362.81 314.353 363.102 314.568 363.431C314.784 363.76 314.936 364.115 315.024 364.495L314.454 364.4V361.949H317.133V372H314.416V369.587L315.024 369.53C314.923 369.885 314.758 370.22 314.53 370.537C314.302 370.854 314.017 371.139 313.675 371.392C313.346 371.633 312.972 371.829 312.554 371.981C312.136 372.12 311.693 372.19 311.224 372.19ZM311.965 369.853C312.472 369.853 312.915 369.733 313.295 369.492C313.675 369.251 313.967 368.916 314.169 368.485C314.385 368.042 314.492 367.529 314.492 366.946C314.492 366.376 314.385 365.876 314.169 365.445C313.967 365.014 313.675 364.679 313.295 364.438C312.915 364.185 312.472 364.058 311.965 364.058C311.471 364.058 311.034 364.185 310.654 364.438C310.287 364.679 309.996 365.014 309.78 365.445C309.565 365.876 309.457 366.376 309.457 366.946C309.457 367.529 309.565 368.042 309.78 368.485C309.996 368.916 310.287 369.251 310.654 369.492C311.034 369.733 311.471 369.853 311.965 369.853ZM320.807 372V359.403H323.505V372H320.807ZM318.926 364.362V361.949H325.576V364.362H318.926ZM327.544 372V361.949H330.242V372H327.544ZM328.874 359.897C328.354 359.897 327.949 359.77 327.658 359.517C327.366 359.251 327.221 358.884 327.221 358.415C327.221 357.984 327.366 357.636 327.658 357.37C327.962 357.091 328.367 356.952 328.874 356.952C329.393 356.952 329.798 357.085 330.09 357.351C330.381 357.604 330.527 357.959 330.527 358.415C330.527 358.846 330.375 359.2 330.071 359.479C329.779 359.758 329.38 359.897 328.874 359.897ZM337.797 372.19C336.771 372.19 335.853 371.968 335.042 371.525C334.244 371.069 333.611 370.448 333.142 369.663C332.686 368.878 332.458 367.978 332.458 366.965C332.458 365.952 332.686 365.052 333.142 364.267C333.611 363.482 334.244 362.867 335.042 362.424C335.853 361.968 336.771 361.74 337.797 361.74C338.811 361.74 339.716 361.968 340.514 362.424C341.325 362.867 341.958 363.482 342.414 364.267C342.87 365.052 343.098 365.952 343.098 366.965C343.098 367.978 342.87 368.878 342.414 369.663C341.958 370.448 341.325 371.069 340.514 371.525C339.716 371.968 338.811 372.19 337.797 372.19ZM337.797 369.834C338.291 369.834 338.735 369.714 339.127 369.473C339.52 369.22 339.824 368.878 340.039 368.447C340.267 368.004 340.375 367.51 340.362 366.965C340.375 366.408 340.267 365.914 340.039 365.483C339.824 365.04 339.52 364.698 339.127 364.457C338.735 364.204 338.291 364.077 337.797 364.077C337.291 364.077 336.841 364.204 336.448 364.457C336.056 364.71 335.745 365.052 335.517 365.483C335.289 365.914 335.182 366.408 335.194 366.965C335.182 367.51 335.289 368.004 335.517 368.447C335.745 368.878 336.056 369.22 336.448 369.473C336.841 369.714 337.291 369.834 337.797 369.834ZM345.147 372V361.949H347.731L347.807 364.001L347.275 364.229C347.414 363.773 347.661 363.361 348.016 362.994C348.383 362.614 348.82 362.31 349.327 362.082C349.834 361.854 350.366 361.74 350.923 361.74C351.683 361.74 352.316 361.892 352.823 362.196C353.342 362.5 353.729 362.962 353.982 363.583C354.248 364.191 354.381 364.945 354.381 365.844V372H351.683V366.053C351.683 365.597 351.62 365.217 351.493 364.913C351.366 364.609 351.17 364.387 350.904 364.248C350.651 364.109 350.334 364.045 349.954 364.058C349.65 364.058 349.365 364.109 349.099 364.21C348.846 364.299 348.624 364.432 348.434 364.609C348.257 364.786 348.111 364.989 347.997 365.217C347.896 365.445 347.845 365.692 347.845 365.958V372H346.515C346.224 372 345.964 372 345.736 372C345.508 372 345.312 372 345.147 372ZM360.348 372.19C359.411 372.19 358.575 372.038 357.84 371.734C357.118 371.417 356.536 370.987 356.092 370.442L357.783 368.998C358.163 369.416 358.594 369.72 359.075 369.91C359.557 370.087 360.038 370.176 360.519 370.176C360.709 370.176 360.88 370.157 361.032 370.119C361.197 370.068 361.336 370.005 361.45 369.929C361.564 369.84 361.647 369.739 361.697 369.625C361.761 369.498 361.792 369.365 361.792 369.226C361.792 368.947 361.678 368.732 361.45 368.58C361.324 368.504 361.127 368.422 360.861 368.333C360.595 368.232 360.253 368.124 359.835 368.01C359.189 367.845 358.638 367.655 358.182 367.44C357.739 367.212 357.384 366.959 357.118 366.68C356.89 366.414 356.713 366.129 356.586 365.825C356.472 365.508 356.415 365.16 356.415 364.78C356.415 364.324 356.517 363.912 356.719 363.545C356.922 363.165 357.201 362.842 357.555 362.576C357.923 362.31 358.341 362.107 358.809 361.968C359.278 361.816 359.772 361.74 360.291 361.74C360.811 361.74 361.317 361.803 361.811 361.93C362.305 362.057 362.761 362.24 363.179 362.481C363.61 362.709 363.984 362.981 364.3 363.298L362.856 364.894C362.628 364.679 362.369 364.482 362.077 364.305C361.799 364.128 361.507 363.988 361.203 363.887C360.899 363.786 360.627 363.735 360.386 363.735C360.171 363.735 359.975 363.754 359.797 363.792C359.633 363.83 359.493 363.893 359.379 363.982C359.265 364.058 359.177 364.153 359.113 364.267C359.063 364.381 359.037 364.508 359.037 364.647C359.037 364.786 359.069 364.919 359.132 365.046C359.208 365.173 359.31 365.28 359.436 365.369C359.576 365.445 359.778 365.534 360.044 365.635C360.323 365.736 360.697 365.85 361.165 365.977C361.773 366.142 362.286 366.325 362.704 366.528C363.135 366.731 363.477 366.965 363.73 367.231C363.946 367.459 364.104 367.719 364.205 368.01C364.307 368.301 364.357 368.624 364.357 368.979C364.357 369.6 364.18 370.151 363.825 370.632C363.483 371.113 363.008 371.493 362.4 371.772C361.792 372.051 361.108 372.19 360.348 372.19Z" fill="black"/>
<rect x="158" y="167" width="207" height="102" rx="12" fill="#DDE0E3"/>
<g filter="url(#filter0_d_599_3163)">
<rect x="115" y="218" width="207" height="102" rx="12" fill="white"/>
</g>
<rect x="127" y="280" width="121" height="7" rx="3.5" fill="#E4E6EA"/>
<rect x="127" y="261" width="85" height="7" rx="3.5" fill="#C8C8C8"/>
<rect x="177" y="199" width="85" height="7" rx="3.5" fill="#C8C8C8"/>
<circle cx="99" cy="185" r="5" fill="#1A89FA"/>
<circle cx="352" cy="292" r="5" fill="#DF6E61"/>
<circle cx="137" cy="147" r="5.75" stroke="#D9D9D9" stroke-width="1.5"/>
<circle cx="300" cy="129" r="5.75" stroke="#D9D9D9" stroke-width="1.5"/>
<rect x="351.273" y="148" width="30.5486" height="30.5486" rx="6" transform="rotate(30 351.273 148)" fill="#35CA00"/>
<rect x="310.613" y="211" width="23.2281" height="23.2281" rx="6" transform="rotate(30 310.613 211)" fill="#35CA00"/>
<g clip-path="url(#clip0_599_3163)">
<path d="M360.874 162.16C361.018 161.911 361.374 161.847 361.607 161.981C361.893 162.147 361.989 162.471 361.846 162.721L361.572 163.194C363.83 164.799 364.584 167.796 363.233 170.136L362.76 170.956C362.049 172.188 361.881 173.665 362.289 175.066L362.325 175.188C362.435 175.563 362.404 175.936 362.199 176.292C361.8 176.982 360.894 177.203 360.17 176.785L349.558 170.658C348.836 170.241 348.572 169.345 348.971 168.654C349.176 168.299 349.483 168.086 349.863 167.993L349.989 167.964C351.406 167.617 352.6 166.732 353.311 165.501L353.785 164.681C355.136 162.341 358.108 161.495 360.627 162.648L360.874 162.16ZM360.565 163.785C358.505 162.595 355.854 163.218 354.703 165.211L354.23 166.031C353.38 167.502 351.979 168.576 350.289 168.987L350.164 169.016C350.058 169.042 349.941 169.094 349.889 169.185C349.779 169.376 349.878 169.64 350.078 169.756L360.691 175.883C360.892 175.999 361.144 175.938 361.254 175.746C361.306 175.656 361.32 175.543 361.289 175.439L361.254 175.317C360.762 173.647 360.966 171.882 361.815 170.41L362.289 169.59C363.439 167.598 362.68 165.006 360.565 163.785ZM353.796 175.51C354.233 175.762 354.729 175.714 355.061 175.44C355.283 175.253 355.64 175.263 355.823 175.511C356.019 175.737 356.001 176.069 355.78 176.253C355.115 176.805 354.126 176.903 353.275 176.412C352.478 175.952 352.068 175.046 352.213 174.194C352.263 173.911 352.541 173.729 352.835 173.786C353.142 173.821 353.329 174.124 353.278 174.41C353.206 174.835 353.412 175.288 353.796 175.51Z" fill="black"/>
</g>
<g clip-path="url(#clip1_599_3163)">
<path d="M317.913 221.767C318.022 221.577 318.292 221.529 318.47 221.631C318.688 221.757 318.761 222.004 318.651 222.193L318.443 222.553C320.16 223.774 320.733 226.053 319.707 227.831L319.346 228.455C318.806 229.391 318.678 230.515 318.988 231.58L319.015 231.673C319.099 231.958 319.076 232.242 318.92 232.512C318.617 233.037 317.927 233.205 317.377 232.887L309.308 228.228C308.759 227.911 308.559 227.23 308.862 226.705C309.018 226.435 309.251 226.273 309.54 226.202L309.636 226.18C310.713 225.916 311.621 225.244 312.162 224.307L312.522 223.683C313.549 221.905 315.809 221.262 317.725 222.138L317.913 221.767ZM317.678 223.003C316.111 222.098 314.095 222.571 313.22 224.087L312.86 224.71C312.215 225.829 311.149 226.645 309.864 226.958L309.769 226.98C309.689 226.999 309.6 227.04 309.56 227.108C309.476 227.254 309.552 227.455 309.704 227.543L317.773 232.201C317.926 232.29 318.117 232.243 318.202 232.097C318.241 232.029 318.252 231.943 318.228 231.864L318.201 231.771C317.827 230.501 317.982 229.159 318.628 228.04L318.988 227.417C319.863 225.901 319.285 223.931 317.678 223.003ZM312.531 231.918C312.863 232.11 313.24 232.073 313.493 231.864C313.662 231.722 313.932 231.73 314.072 231.919C314.221 232.091 314.207 232.343 314.039 232.483C313.534 232.903 312.781 232.977 312.135 232.604C311.529 232.254 311.217 231.565 311.327 230.917C311.365 230.702 311.576 230.564 311.8 230.607C312.033 230.633 312.175 230.864 312.136 231.081C312.082 231.404 312.239 231.749 312.531 231.918Z" fill="black"/>
</g>
<defs>
<filter id="filter0_d_599_3163" x="80.4" y="187.4" width="276.2" height="171.2" filterUnits="userSpaceOnUse" color-interpolation-filters="sRGB">
<feFlood flood-opacity="0" result="BackgroundImageFix"/>
<feColorMatrix in="SourceAlpha" type="matrix" values="0 0 0 0 0 0 0 0 0 0 0 0 0 0 0 0 0 0 127 0" result="hardAlpha"/>
<feMorphology radius="4" operator="dilate" in="SourceAlpha" result="effect1_dropShadow_599_3163"/>
<feOffset dy="4"/>
<feGaussianBlur stdDeviation="15.3"/>
<feComposite in2="hardAlpha" operator="out"/>
<feColorMatrix type="matrix" values="0 0 0 0 0 0 0 0 0 0 0 0 0 0 0 0 0 0 0.1 0"/>
<feBlend mode="normal" in2="BackgroundImageFix" result="effect1_dropShadow_599_3163"/>
<feBlend mode="normal" in="SourceGraphic" in2="effect1_dropShadow_599_3163" result="shape"/>
</filter>
<clipPath id="clip0_599_3163">
<rect width="15.2743" height="16.6629" fill="white" transform="translate(355.02 158.178) rotate(30)"/>
</clipPath>
<clipPath id="clip1_599_3163">
<rect width="11.614" height="12.6699" fill="white" transform="translate(313.461 218.739) rotate(30)"/>
</clipPath>
</defs>
</svg>
