<svg width="480" height="540" viewBox="0 0 480 540" fill="none" xmlns="http://www.w3.org/2000/svg">
<g clip-path="url(#clip0_154_1515)">
<path d="M85 76H396C405.389 76 413 83.6112 413 93V447C413 456.389 405.389 464 396 464H85C75.6111 464 68 456.389 68 447V93C68 83.6112 75.6111 76 85 76Z" fill="#F1F5F7"/>
<path d="M89.678 121.21C88.768 121.21 87.935 121.098 87.179 120.874C86.437 120.65 85.772 120.321 85.184 119.887C84.61 119.453 84.092 118.928 83.63 118.312L85.604 116.065C86.29 117.017 86.969 117.668 87.641 118.018C88.327 118.354 89.069 118.522 89.867 118.522C90.301 118.522 90.686 118.459 91.022 118.333C91.372 118.207 91.645 118.039 91.841 117.829C92.037 117.605 92.135 117.339 92.135 117.031C92.135 116.807 92.086 116.604 91.988 116.422C91.89 116.226 91.75 116.058 91.568 115.918C91.386 115.764 91.169 115.631 90.917 115.519C90.665 115.393 90.385 115.288 90.077 115.204C89.769 115.106 89.433 115.029 89.069 114.973C88.285 114.791 87.599 114.574 87.011 114.322C86.423 114.056 85.933 113.734 85.541 113.356C85.149 112.964 84.855 112.523 84.659 112.033C84.477 111.543 84.386 110.99 84.386 110.374C84.386 109.744 84.526 109.163 84.806 108.631C85.086 108.085 85.471 107.616 85.961 107.224C86.465 106.832 87.039 106.531 87.683 106.321C88.341 106.111 89.034 106.006 89.762 106.006C90.658 106.006 91.442 106.104 92.114 106.3C92.786 106.496 93.367 106.79 93.857 107.182C94.361 107.56 94.781 108.022 95.117 108.568L93.122 110.5C92.828 110.108 92.506 109.779 92.156 109.513C91.82 109.247 91.449 109.051 91.043 108.925C90.651 108.785 90.245 108.715 89.825 108.715C89.363 108.715 88.964 108.778 88.628 108.904C88.292 109.016 88.026 109.191 87.83 109.429C87.648 109.653 87.557 109.919 87.557 110.227C87.557 110.479 87.62 110.703 87.746 110.899C87.872 111.095 88.054 111.27 88.292 111.424C88.53 111.564 88.817 111.69 89.153 111.802C89.489 111.914 89.86 112.012 90.266 112.096C91.036 112.25 91.729 112.453 92.345 112.705C92.961 112.957 93.486 113.265 93.92 113.629C94.368 113.979 94.711 114.399 94.949 114.889C95.187 115.365 95.306 115.904 95.306 116.506C95.306 117.5 95.068 118.347 94.592 119.047C94.116 119.747 93.458 120.286 92.618 120.664C91.778 121.028 90.798 121.21 89.678 121.21ZM97.739 125.62V109.891H100.616L100.7 112.39L100.154 112.201C100.252 111.753 100.49 111.34 100.868 110.962C101.26 110.584 101.743 110.276 102.317 110.038C102.891 109.8 103.493 109.681 104.123 109.681C105.089 109.681 105.95 109.933 106.706 110.437C107.462 110.927 108.057 111.606 108.491 112.474C108.925 113.328 109.142 114.315 109.142 115.435C109.142 116.541 108.925 117.528 108.491 118.396C108.057 119.264 107.462 119.95 106.706 120.454C105.95 120.944 105.089 121.189 104.123 121.189C103.479 121.189 102.863 121.07 102.275 120.832C101.701 120.58 101.211 120.251 100.805 119.845C100.413 119.439 100.161 119.005 100.049 118.543L100.742 118.249V125.62H97.739ZM103.451 118.627C103.997 118.627 104.48 118.494 104.9 118.228C105.32 117.962 105.649 117.591 105.887 117.115C106.125 116.625 106.244 116.065 106.244 115.435C106.244 114.805 106.125 114.252 105.887 113.776C105.649 113.3 105.32 112.929 104.9 112.663C104.494 112.397 104.011 112.264 103.451 112.264C102.891 112.264 102.401 112.397 101.981 112.663C101.561 112.915 101.232 113.286 100.994 113.776C100.756 114.252 100.637 114.805 100.637 115.435C100.637 116.065 100.756 116.625 100.994 117.115C101.232 117.591 101.561 117.962 101.981 118.228C102.401 118.494 102.891 118.627 103.451 118.627ZM115.555 121.21C114.631 121.21 113.798 120.958 113.056 120.454C112.314 119.95 111.726 119.264 111.292 118.396C110.858 117.528 110.641 116.534 110.641 115.414C110.641 114.294 110.858 113.3 111.292 112.432C111.74 111.564 112.342 110.885 113.098 110.395C113.854 109.905 114.715 109.66 115.681 109.66C116.227 109.66 116.724 109.744 117.172 109.912C117.634 110.066 118.033 110.283 118.369 110.563C118.719 110.843 119.013 111.165 119.251 111.529C119.489 111.893 119.657 112.285 119.755 112.705L119.125 112.6V109.891H122.086V121H119.083V118.333L119.755 118.27C119.643 118.662 119.461 119.033 119.209 119.383C118.957 119.733 118.642 120.048 118.264 120.328C117.9 120.594 117.487 120.811 117.025 120.979C116.563 121.133 116.073 121.21 115.555 121.21ZM116.374 118.627C116.934 118.627 117.424 118.494 117.844 118.228C118.264 117.962 118.586 117.591 118.81 117.115C119.048 116.625 119.167 116.058 119.167 115.414C119.167 114.784 119.048 114.231 118.81 113.755C118.586 113.279 118.264 112.908 117.844 112.642C117.424 112.362 116.934 112.222 116.374 112.222C115.828 112.222 115.345 112.362 114.925 112.642C114.519 112.908 114.197 113.279 113.959 113.755C113.721 114.231 113.602 114.784 113.602 115.414C113.602 116.058 113.721 116.625 113.959 117.115C114.197 117.591 114.519 117.962 114.925 118.228C115.345 118.494 115.828 118.627 116.374 118.627ZM129.906 121.21C128.842 121.21 127.89 120.958 127.05 120.454C126.21 119.95 125.545 119.264 125.055 118.396C124.579 117.528 124.341 116.541 124.341 115.435C124.341 114.329 124.579 113.342 125.055 112.474C125.545 111.606 126.21 110.92 127.05 110.416C127.89 109.912 128.842 109.66 129.906 109.66C130.9 109.66 131.81 109.842 132.636 110.206C133.462 110.57 134.106 111.074 134.568 111.718L132.93 113.692C132.734 113.426 132.489 113.188 132.195 112.978C131.901 112.754 131.579 112.579 131.229 112.453C130.893 112.327 130.543 112.264 130.179 112.264C129.605 112.264 129.094 112.404 128.646 112.684C128.212 112.95 127.869 113.321 127.617 113.797C127.365 114.273 127.239 114.819 127.239 115.435C127.239 116.023 127.365 116.555 127.617 117.031C127.883 117.507 128.24 117.885 128.688 118.165C129.136 118.445 129.64 118.585 130.2 118.585C130.564 118.585 130.907 118.536 131.229 118.438C131.551 118.34 131.852 118.186 132.132 117.976C132.426 117.766 132.692 117.514 132.93 117.22L134.547 119.194C134.085 119.796 133.427 120.286 132.573 120.664C131.733 121.028 130.844 121.21 129.906 121.21ZM141.729 121.21C140.525 121.21 139.468 120.965 138.558 120.475C137.662 119.985 136.962 119.313 136.458 118.459C135.968 117.605 135.723 116.625 135.723 115.519C135.723 114.651 135.863 113.86 136.143 113.146C136.423 112.432 136.815 111.816 137.319 111.298C137.823 110.766 138.418 110.36 139.104 110.08C139.804 109.786 140.56 109.639 141.372 109.639C142.128 109.639 142.828 109.779 143.472 110.059C144.116 110.339 144.669 110.731 145.131 111.235C145.607 111.725 145.971 112.313 146.223 112.999C146.475 113.671 146.587 114.399 146.559 115.183L146.538 116.107H137.613L137.13 114.28H144.081L143.745 114.658V114.196C143.717 113.818 143.591 113.482 143.367 113.188C143.157 112.88 142.884 112.642 142.548 112.474C142.212 112.292 141.834 112.201 141.414 112.201C140.798 112.201 140.273 112.32 139.839 112.558C139.419 112.796 139.097 113.146 138.873 113.608C138.649 114.07 138.537 114.63 138.537 115.288C138.537 115.96 138.677 116.541 138.957 117.031C139.251 117.521 139.657 117.906 140.175 118.186C140.707 118.452 141.33 118.585 142.044 118.585C142.534 118.585 142.982 118.508 143.388 118.354C143.794 118.2 144.228 117.934 144.69 117.556L146.118 119.551C145.712 119.915 145.264 120.223 144.774 120.475C144.284 120.713 143.78 120.895 143.262 121.021C142.744 121.147 142.233 121.21 141.729 121.21ZM155.244 121V118.291H157.701V109.009H155.244V106.3H163.308V109.009H160.851V118.291H163.308V121H155.244ZM166.338 121V109.891H169.194L169.278 112.159L168.69 112.411C168.844 111.907 169.117 111.452 169.509 111.046C169.915 110.626 170.398 110.29 170.958 110.038C171.518 109.786 172.106 109.66 172.722 109.66C173.562 109.66 174.262 109.828 174.822 110.164C175.396 110.5 175.823 111.011 176.103 111.697C176.397 112.369 176.544 113.202 176.544 114.196V121H173.562V114.427C173.562 113.923 173.492 113.503 173.352 113.167C173.212 112.831 172.995 112.586 172.701 112.432C172.421 112.278 172.071 112.208 171.651 112.222C171.315 112.222 171 112.278 170.706 112.39C170.426 112.488 170.181 112.635 169.971 112.831C169.775 113.027 169.614 113.251 169.488 113.503C169.376 113.755 169.32 114.028 169.32 114.322V121H167.85C167.528 121 167.241 121 166.989 121C166.737 121 166.52 121 166.338 121ZM180.262 121V109.114C180.262 108.428 180.416 107.805 180.724 107.245C181.032 106.685 181.452 106.244 181.984 105.922C182.53 105.6 183.167 105.439 183.895 105.439C184.385 105.439 184.847 105.523 185.281 105.691C185.715 105.845 186.086 106.055 186.394 106.321L185.512 108.526C185.33 108.414 185.141 108.323 184.945 108.253C184.763 108.169 184.595 108.127 184.441 108.127C184.175 108.127 183.951 108.176 183.769 108.274C183.601 108.358 183.475 108.491 183.391 108.673C183.307 108.841 183.265 109.058 183.265 109.324V121H181.774C181.452 121 181.165 121 180.913 121C180.661 121 180.444 121 180.262 121ZM178.603 112.684V110.164H185.659V112.684H178.603ZM192.401 121.21C191.267 121.21 190.252 120.965 189.356 120.475C188.474 119.971 187.774 119.285 187.256 118.417C186.752 117.549 186.5 116.555 186.5 115.435C186.5 114.315 186.752 113.321 187.256 112.453C187.774 111.585 188.474 110.906 189.356 110.416C190.252 109.912 191.267 109.66 192.401 109.66C193.521 109.66 194.522 109.912 195.404 110.416C196.3 110.906 197 111.585 197.504 112.453C198.008 113.321 198.26 114.315 198.26 115.435C198.26 116.555 198.008 117.549 197.504 118.417C197 119.285 196.3 119.971 195.404 120.475C194.522 120.965 193.521 121.21 192.401 121.21ZM192.401 118.606C192.947 118.606 193.437 118.473 193.871 118.207C194.305 117.927 194.641 117.549 194.879 117.073C195.131 116.583 195.25 116.037 195.236 115.435C195.25 114.819 195.131 114.273 194.879 113.797C194.641 113.307 194.305 112.929 193.871 112.663C193.437 112.383 192.947 112.243 192.401 112.243C191.841 112.243 191.344 112.383 190.91 112.663C190.476 112.943 190.133 113.321 189.881 113.797C189.629 114.273 189.51 114.819 189.524 115.435C189.51 116.037 189.629 116.583 189.881 117.073C190.133 117.549 190.476 117.927 190.91 118.207C191.344 118.473 191.841 118.606 192.401 118.606ZM200.524 121V109.891H203.401L203.506 113.461L203.002 112.726C203.17 112.152 203.443 111.634 203.821 111.172C204.199 110.696 204.64 110.325 205.144 110.059C205.662 109.793 206.201 109.66 206.761 109.66C206.999 109.66 207.23 109.681 207.454 109.723C207.678 109.765 207.867 109.814 208.021 109.87L207.223 113.146C207.069 113.062 206.866 112.992 206.614 112.936C206.376 112.866 206.131 112.831 205.879 112.831C205.543 112.831 205.228 112.894 204.934 113.02C204.654 113.132 204.409 113.3 204.199 113.524C203.989 113.734 203.821 113.986 203.695 114.28C203.583 114.574 203.527 114.896 203.527 115.246V121H200.524ZM209.711 121V109.891H212.588L212.651 112.012L212.21 112.096C212.364 111.732 212.567 111.403 212.819 111.109C213.085 110.815 213.386 110.563 213.722 110.353C214.058 110.143 214.415 109.982 214.793 109.87C215.171 109.744 215.549 109.681 215.927 109.681C216.501 109.681 217.019 109.772 217.481 109.954C217.943 110.136 218.335 110.423 218.657 110.815C218.979 111.193 219.231 111.697 219.413 112.327L218.951 112.285L219.098 111.949C219.28 111.613 219.511 111.305 219.791 111.025C220.071 110.745 220.386 110.507 220.736 110.311C221.086 110.115 221.45 109.961 221.828 109.849C222.206 109.737 222.577 109.681 222.941 109.681C223.809 109.681 224.53 109.856 225.104 110.206C225.678 110.542 226.105 111.053 226.385 111.739C226.679 112.425 226.826 113.265 226.826 114.259V121H223.844V114.469C223.844 113.965 223.774 113.552 223.634 113.23C223.494 112.908 223.291 112.67 223.025 112.516C222.759 112.348 222.416 112.264 221.996 112.264C221.674 112.264 221.373 112.32 221.093 112.432C220.827 112.53 220.589 112.677 220.379 112.873C220.183 113.055 220.029 113.279 219.917 113.545C219.805 113.797 219.749 114.07 219.749 114.364V121H216.746V114.448C216.746 113.986 216.676 113.594 216.536 113.272C216.396 112.936 216.193 112.684 215.927 112.516C215.661 112.348 215.332 112.264 214.94 112.264C214.618 112.264 214.317 112.32 214.037 112.432C213.771 112.53 213.54 112.677 213.344 112.873C213.148 113.055 212.994 113.272 212.882 113.524C212.77 113.776 212.714 114.049 212.714 114.343V121H209.711ZM233.824 121.21C232.9 121.21 232.067 120.958 231.325 120.454C230.583 119.95 229.995 119.264 229.561 118.396C229.127 117.528 228.91 116.534 228.91 115.414C228.91 114.294 229.127 113.3 229.561 112.432C230.009 111.564 230.611 110.885 231.367 110.395C232.123 109.905 232.984 109.66 233.95 109.66C234.496 109.66 234.993 109.744 235.441 109.912C235.903 110.066 236.302 110.283 236.638 110.563C236.988 110.843 237.282 111.165 237.52 111.529C237.758 111.893 237.926 112.285 238.024 112.705L237.394 112.6V109.891H240.355V121H237.352V118.333L238.024 118.27C237.912 118.662 237.73 119.033 237.478 119.383C237.226 119.733 236.911 120.048 236.533 120.328C236.169 120.594 235.756 120.811 235.294 120.979C234.832 121.133 234.342 121.21 233.824 121.21ZM234.643 118.627C235.203 118.627 235.693 118.494 236.113 118.228C236.533 117.962 236.855 117.591 237.079 117.115C237.317 116.625 237.436 116.058 237.436 115.414C237.436 114.784 237.317 114.231 237.079 113.755C236.855 113.279 236.533 112.908 236.113 112.642C235.693 112.362 235.203 112.222 234.643 112.222C234.097 112.222 233.614 112.362 233.194 112.642C232.788 112.908 232.466 113.279 232.228 113.755C231.99 114.231 231.871 114.784 231.871 115.414C231.871 116.058 231.99 116.625 232.228 117.115C232.466 117.591 232.788 117.962 233.194 118.228C233.614 118.494 234.097 118.627 234.643 118.627ZM244.416 121V107.077H247.398V121H244.416ZM242.337 112.558V109.891H249.687V112.558H242.337ZM251.861 121V109.891H254.843V121H251.861ZM253.331 107.623C252.757 107.623 252.309 107.483 251.987 107.203C251.665 106.909 251.504 106.503 251.504 105.985C251.504 105.509 251.665 105.124 251.987 104.83C252.323 104.522 252.771 104.368 253.331 104.368C253.905 104.368 254.353 104.515 254.675 104.809C254.997 105.089 255.158 105.481 255.158 105.985C255.158 106.461 254.99 106.853 254.654 107.161C254.332 107.469 253.891 107.623 253.331 107.623ZM263.194 121.21C262.06 121.21 261.045 120.965 260.149 120.475C259.267 119.971 258.567 119.285 258.049 118.417C257.545 117.549 257.293 116.555 257.293 115.435C257.293 114.315 257.545 113.321 258.049 112.453C258.567 111.585 259.267 110.906 260.149 110.416C261.045 109.912 262.06 109.66 263.194 109.66C264.314 109.66 265.315 109.912 266.197 110.416C267.093 110.906 267.793 111.585 268.297 112.453C268.801 113.321 269.053 114.315 269.053 115.435C269.053 116.555 268.801 117.549 268.297 118.417C267.793 119.285 267.093 119.971 266.197 120.475C265.315 120.965 264.314 121.21 263.194 121.21ZM263.194 118.606C263.74 118.606 264.23 118.473 264.664 118.207C265.098 117.927 265.434 117.549 265.672 117.073C265.924 116.583 266.043 116.037 266.029 115.435C266.043 114.819 265.924 114.273 265.672 113.797C265.434 113.307 265.098 112.929 264.664 112.663C264.23 112.383 263.74 112.243 263.194 112.243C262.634 112.243 262.137 112.383 261.703 112.663C261.269 112.943 260.926 113.321 260.674 113.797C260.422 114.273 260.303 114.819 260.317 115.435C260.303 116.037 260.422 116.583 260.674 117.073C260.926 117.549 261.269 117.927 261.703 118.207C262.137 118.473 262.634 118.606 263.194 118.606ZM271.317 121V109.891H274.173L274.257 112.159L273.669 112.411C273.823 111.907 274.096 111.452 274.488 111.046C274.894 110.626 275.377 110.29 275.937 110.038C276.497 109.786 277.085 109.66 277.701 109.66C278.541 109.66 279.241 109.828 279.801 110.164C280.375 110.5 280.802 111.011 281.082 111.697C281.376 112.369 281.523 113.202 281.523 114.196V121H278.541V114.427C278.541 113.923 278.471 113.503 278.331 113.167C278.191 112.831 277.974 112.586 277.68 112.432C277.4 112.278 277.05 112.208 276.63 112.222C276.294 112.222 275.979 112.278 275.685 112.39C275.405 112.488 275.16 112.635 274.95 112.831C274.754 113.027 274.593 113.251 274.467 113.503C274.355 113.755 274.299 114.028 274.299 114.322V121H272.829C272.507 121 272.22 121 271.968 121C271.716 121 271.499 121 271.317 121Z" fill="black"/>
<rect x="83" y="141" width="154" height="62" rx="9" fill="white"/>
<rect x="83" y="213" width="315" height="86" rx="9" fill="white"/>
<rect x="244" y="141" width="154" height="62" rx="9" fill="white"/>
<path d="M96.14 161.1C95.76 161.1 95.4067 161.05 95.08 160.95C94.76 160.85 94.4667 160.7 94.2 160.5C93.94 160.293 93.7067 160.04 93.5 159.74L94.24 158.89C94.5667 159.357 94.88 159.68 95.18 159.86C95.48 160.04 95.8367 160.13 96.25 160.13C96.5033 160.13 96.7333 160.09 96.94 160.01C97.1467 159.93 97.31 159.82 97.43 159.68C97.55 159.54 97.61 159.38 97.61 159.2C97.61 159.08 97.59 158.967 97.55 158.86C97.51 158.753 97.4467 158.657 97.36 158.57C97.28 158.483 97.1733 158.403 97.04 158.33C96.9133 158.257 96.7633 158.193 96.59 158.14C96.4167 158.08 96.2167 158.03 95.99 157.99C95.63 157.917 95.3167 157.82 95.05 157.7C94.7833 157.58 94.56 157.43 94.38 157.25C94.2 157.07 94.0667 156.867 93.98 156.64C93.8933 156.407 93.85 156.147 93.85 155.86C93.85 155.58 93.91 155.32 94.03 155.08C94.1567 154.84 94.3267 154.633 94.54 154.46C94.76 154.28 95.0167 154.143 95.31 154.05C95.6033 153.95 95.92 153.9 96.26 153.9C96.62 153.9 96.95 153.947 97.25 154.04C97.55 154.133 97.8167 154.273 98.05 154.46C98.2833 154.64 98.4767 154.863 98.63 155.13L97.87 155.88C97.7367 155.66 97.5867 155.477 97.42 155.33C97.2533 155.177 97.07 155.063 96.87 154.99C96.67 154.91 96.4567 154.87 96.23 154.87C95.97 154.87 95.7433 154.91 95.55 154.99C95.3567 155.07 95.2033 155.183 95.09 155.33C94.9833 155.47 94.93 155.637 94.93 155.83C94.93 155.97 94.9567 156.1 95.01 156.22C95.0633 156.333 95.1433 156.437 95.25 156.53C95.3633 156.617 95.5133 156.697 95.7 156.77C95.8867 156.837 96.11 156.897 96.37 156.95C96.7367 157.03 97.0633 157.133 97.35 157.26C97.6367 157.38 97.88 157.523 98.08 157.69C98.28 157.857 98.43 158.043 98.53 158.25C98.6367 158.457 98.69 158.68 98.69 158.92C98.69 159.367 98.5867 159.753 98.38 160.08C98.1733 160.407 97.88 160.66 97.5 160.84C97.12 161.013 96.6667 161.1 96.14 161.1ZM99.9602 163.2V155.75H101V156.95L100.84 156.86C100.88 156.66 100.994 156.47 101.18 156.29C101.367 156.103 101.594 155.953 101.86 155.84C102.134 155.72 102.414 155.66 102.7 155.66C103.174 155.66 103.594 155.777 103.96 156.01C104.327 156.243 104.617 156.563 104.83 156.97C105.044 157.377 105.15 157.843 105.15 158.37C105.15 158.89 105.044 159.357 104.83 159.77C104.624 160.177 104.337 160.5 103.97 160.74C103.604 160.973 103.19 161.09 102.73 161.09C102.424 161.09 102.127 161.03 101.84 160.91C101.554 160.783 101.31 160.623 101.11 160.43C100.91 160.237 100.787 160.037 100.74 159.83L101 159.69V163.2H99.9602ZM102.56 160.14C102.867 160.14 103.14 160.063 103.38 159.91C103.62 159.757 103.81 159.547 103.95 159.28C104.09 159.013 104.16 158.71 104.16 158.37C104.16 158.03 104.09 157.73 103.95 157.47C103.817 157.203 103.63 156.993 103.39 156.84C103.15 156.687 102.874 156.61 102.56 156.61C102.247 156.61 101.97 156.687 101.73 156.84C101.49 156.987 101.3 157.193 101.16 157.46C101.02 157.727 100.95 158.03 100.95 158.37C100.95 158.71 101.02 159.013 101.16 159.28C101.3 159.547 101.49 159.757 101.73 159.91C101.97 160.063 102.247 160.14 102.56 160.14ZM108.289 161.1C107.855 161.1 107.459 160.98 107.099 160.74C106.745 160.5 106.462 160.173 106.249 159.76C106.035 159.347 105.929 158.88 105.929 158.36C105.929 157.833 106.035 157.367 106.249 156.96C106.469 156.547 106.762 156.223 107.129 155.99C107.502 155.757 107.919 155.64 108.379 155.64C108.652 155.64 108.902 155.68 109.129 155.76C109.355 155.84 109.552 155.953 109.719 156.1C109.892 156.24 110.032 156.403 110.139 156.59C110.252 156.777 110.322 156.977 110.349 157.19L110.119 157.11V155.75H111.159V161H110.119V159.75L110.359 159.68C110.319 159.86 110.235 160.037 110.109 160.21C109.989 160.377 109.832 160.527 109.639 160.66C109.452 160.793 109.242 160.9 109.009 160.98C108.782 161.06 108.542 161.1 108.289 161.1ZM108.559 160.15C108.872 160.15 109.149 160.073 109.389 159.92C109.629 159.767 109.815 159.557 109.949 159.29C110.089 159.017 110.159 158.707 110.159 158.36C110.159 158.02 110.089 157.717 109.949 157.45C109.815 157.183 109.629 156.973 109.389 156.82C109.149 156.667 108.872 156.59 108.559 156.59C108.252 156.59 107.979 156.667 107.739 156.82C107.505 156.973 107.319 157.183 107.179 157.45C107.045 157.717 106.979 158.02 106.979 158.36C106.979 158.707 107.045 159.017 107.179 159.29C107.319 159.557 107.505 159.767 107.739 159.92C107.979 160.073 108.252 160.15 108.559 160.15ZM114.827 161.1C114.34 161.1 113.904 160.98 113.517 160.74C113.137 160.5 112.834 160.173 112.607 159.76C112.387 159.347 112.277 158.883 112.277 158.37C112.277 157.857 112.387 157.393 112.607 156.98C112.834 156.567 113.137 156.24 113.517 156C113.904 155.76 114.34 155.64 114.827 155.64C115.294 155.64 115.717 155.737 116.097 155.93C116.484 156.117 116.777 156.373 116.977 156.7L116.407 157.4C116.3 157.247 116.164 157.107 115.997 156.98C115.83 156.853 115.654 156.753 115.467 156.68C115.28 156.607 115.1 156.57 114.927 156.57C114.607 156.57 114.32 156.65 114.067 156.81C113.82 156.963 113.624 157.177 113.477 157.45C113.33 157.723 113.257 158.03 113.257 158.37C113.257 158.71 113.334 159.017 113.487 159.29C113.64 159.557 113.844 159.77 114.097 159.93C114.35 160.09 114.63 160.17 114.937 160.17C115.117 160.17 115.29 160.14 115.457 160.08C115.63 160.02 115.797 159.93 115.957 159.81C116.117 159.69 116.267 159.543 116.407 159.37L116.977 160.07C116.764 160.37 116.457 160.617 116.057 160.81C115.664 161.003 115.254 161.1 114.827 161.1ZM120.399 161.1C119.859 161.1 119.379 160.987 118.959 160.76C118.545 160.527 118.219 160.21 117.979 159.81C117.745 159.41 117.629 158.95 117.629 158.43C117.629 158.017 117.695 157.64 117.829 157.3C117.962 156.96 118.145 156.667 118.379 156.42C118.619 156.167 118.902 155.973 119.229 155.84C119.562 155.7 119.922 155.63 120.309 155.63C120.649 155.63 120.965 155.697 121.259 155.83C121.552 155.957 121.805 156.133 122.019 156.36C122.239 156.587 122.405 156.857 122.519 157.17C122.639 157.477 122.695 157.813 122.689 158.18L122.679 158.62H118.389L118.159 157.8H121.789L121.639 157.97V157.73C121.619 157.51 121.545 157.313 121.419 157.14C121.292 156.967 121.132 156.83 120.939 156.73C120.745 156.63 120.535 156.58 120.309 156.58C119.949 156.58 119.645 156.65 119.399 156.79C119.152 156.923 118.965 157.123 118.839 157.39C118.712 157.65 118.649 157.973 118.649 158.36C118.649 158.727 118.725 159.047 118.879 159.32C119.032 159.587 119.249 159.793 119.529 159.94C119.809 160.087 120.132 160.16 120.499 160.16C120.759 160.16 120.999 160.117 121.219 160.03C121.445 159.943 121.689 159.787 121.949 159.56L122.469 160.29C122.309 160.45 122.112 160.59 121.879 160.71C121.652 160.83 121.409 160.927 121.149 161C120.895 161.067 120.645 161.1 120.399 161.1ZM126.871 161V154H127.841L132.121 159.73L131.961 159.82C131.934 159.653 131.911 159.473 131.891 159.28C131.871 159.08 131.851 158.87 131.831 158.65C131.817 158.423 131.804 158.187 131.791 157.94C131.784 157.687 131.777 157.423 131.771 157.15C131.764 156.877 131.761 156.593 131.761 156.3V154H132.841V161H131.851L127.641 155.48L127.751 155.34C127.784 155.747 127.811 156.093 127.831 156.38C127.857 156.66 127.877 156.9 127.891 157.1C127.911 157.293 127.924 157.453 127.931 157.58C127.937 157.7 127.941 157.8 127.941 157.88C127.947 157.96 127.951 158.03 127.951 158.09V161H126.871ZM136.56 161.1C136.127 161.1 135.73 160.98 135.37 160.74C135.017 160.5 134.734 160.173 134.52 159.76C134.307 159.347 134.2 158.88 134.2 158.36C134.2 157.833 134.307 157.367 134.52 156.96C134.74 156.547 135.034 156.223 135.4 155.99C135.774 155.757 136.19 155.64 136.65 155.64C136.924 155.64 137.174 155.68 137.4 155.76C137.627 155.84 137.824 155.953 137.99 156.1C138.164 156.24 138.304 156.403 138.41 156.59C138.524 156.777 138.594 156.977 138.62 157.19L138.39 157.11V155.75H139.43V161H138.39V159.75L138.63 159.68C138.59 159.86 138.507 160.037 138.38 160.21C138.26 160.377 138.104 160.527 137.91 160.66C137.724 160.793 137.514 160.9 137.28 160.98C137.054 161.06 136.814 161.1 136.56 161.1ZM136.83 160.15C137.144 160.15 137.42 160.073 137.66 159.92C137.9 159.767 138.087 159.557 138.22 159.29C138.36 159.017 138.43 158.707 138.43 158.36C138.43 158.02 138.36 157.717 138.22 157.45C138.087 157.183 137.9 156.973 137.66 156.82C137.42 156.667 137.144 156.59 136.83 156.59C136.524 156.59 136.25 156.667 136.01 156.82C135.777 156.973 135.59 157.183 135.45 157.45C135.317 157.717 135.25 158.02 135.25 158.36C135.25 158.707 135.317 159.017 135.45 159.29C135.59 159.557 135.777 159.767 136.01 159.92C136.25 160.073 136.524 160.15 136.83 160.15ZM140.848 161V155.75H141.888V156.87L141.698 156.99C141.752 156.817 141.835 156.65 141.948 156.49C142.068 156.33 142.212 156.19 142.378 156.07C142.552 155.943 142.735 155.843 142.928 155.77C143.128 155.697 143.332 155.66 143.538 155.66C143.838 155.66 144.102 155.71 144.328 155.81C144.555 155.91 144.742 156.06 144.888 156.26C145.035 156.46 145.142 156.71 145.208 157.01L145.048 156.97L145.118 156.8C145.192 156.647 145.292 156.503 145.418 156.37C145.552 156.23 145.702 156.107 145.868 156C146.035 155.893 146.212 155.81 146.398 155.75C146.585 155.69 146.768 155.66 146.948 155.66C147.342 155.66 147.665 155.74 147.918 155.9C148.178 156.06 148.372 156.303 148.498 156.63C148.632 156.957 148.698 157.363 148.698 157.85V161H147.658V157.91C147.658 157.61 147.618 157.367 147.538 157.18C147.465 156.987 147.352 156.843 147.198 156.75C147.045 156.657 146.848 156.61 146.608 156.61C146.422 156.61 146.245 156.643 146.078 156.71C145.918 156.77 145.778 156.857 145.658 156.97C145.538 157.083 145.445 157.217 145.378 157.37C145.312 157.517 145.278 157.68 145.278 157.86V161H144.238V157.89C144.238 157.617 144.198 157.387 144.118 157.2C144.038 157.007 143.922 156.86 143.768 156.76C143.615 156.66 143.428 156.61 143.208 156.61C143.022 156.61 142.848 156.643 142.688 156.71C142.528 156.77 142.388 156.857 142.268 156.97C142.148 157.077 142.055 157.207 141.988 157.36C141.922 157.507 141.888 157.667 141.888 157.84V161H140.848ZM152.527 161.1C151.987 161.1 151.507 160.987 151.087 160.76C150.674 160.527 150.347 160.21 150.107 159.81C149.874 159.41 149.757 158.95 149.757 158.43C149.757 158.017 149.824 157.64 149.957 157.3C150.091 156.96 150.274 156.667 150.507 156.42C150.747 156.167 151.031 155.973 151.357 155.84C151.691 155.7 152.051 155.63 152.437 155.63C152.777 155.63 153.094 155.697 153.387 155.83C153.681 155.957 153.934 156.133 154.147 156.36C154.367 156.587 154.534 156.857 154.647 157.17C154.767 157.477 154.824 157.813 154.817 158.18L154.807 158.62H150.517L150.287 157.8H153.917L153.767 157.97V157.73C153.747 157.51 153.674 157.313 153.547 157.14C153.421 156.967 153.261 156.83 153.067 156.73C152.874 156.63 152.664 156.58 152.437 156.58C152.077 156.58 151.774 156.65 151.527 156.79C151.281 156.923 151.094 157.123 150.967 157.39C150.841 157.65 150.777 157.973 150.777 158.36C150.777 158.727 150.854 159.047 151.007 159.32C151.161 159.587 151.377 159.793 151.657 159.94C151.937 160.087 152.261 160.16 152.627 160.16C152.887 160.16 153.127 160.117 153.347 160.03C153.574 159.943 153.817 159.787 154.077 159.56L154.597 160.29C154.437 160.45 154.241 160.59 154.007 160.71C153.781 160.83 153.537 160.927 153.277 161C153.024 161.067 152.774 161.1 152.527 161.1Z" fill="#3B3B3B"/>
<path d="M93.98 233V226H96.72C97.22 226 97.67 226.083 98.07 226.25C98.4767 226.417 98.8233 226.657 99.11 226.97C99.3967 227.283 99.6167 227.653 99.77 228.08C99.9233 228.507 100 228.98 100 229.5C100 230.02 99.9233 230.497 99.77 230.93C99.6167 231.357 99.3967 231.727 99.11 232.04C98.83 232.347 98.4867 232.583 98.08 232.75C97.6733 232.917 97.22 233 96.72 233H93.98ZM95.06 232.07L95.03 231.96H96.67C97.0233 231.96 97.3367 231.903 97.61 231.79C97.89 231.677 98.1233 231.517 98.31 231.31C98.5033 231.097 98.65 230.837 98.75 230.53C98.85 230.223 98.9 229.88 98.9 229.5C98.9 229.12 98.85 228.78 98.75 228.48C98.65 228.173 98.5033 227.913 98.31 227.7C98.1167 227.487 97.8833 227.323 97.61 227.21C97.3367 227.097 97.0233 227.04 96.67 227.04H95L95.06 226.95V232.07ZM103.65 233.1C103.11 233.1 102.63 232.987 102.21 232.76C101.797 232.527 101.47 232.21 101.23 231.81C100.997 231.41 100.88 230.95 100.88 230.43C100.88 230.017 100.947 229.64 101.08 229.3C101.214 228.96 101.397 228.667 101.63 228.42C101.87 228.167 102.154 227.973 102.48 227.84C102.814 227.7 103.174 227.63 103.56 227.63C103.9 227.63 104.217 227.697 104.51 227.83C104.804 227.957 105.057 228.133 105.27 228.36C105.49 228.587 105.657 228.857 105.77 229.17C105.89 229.477 105.947 229.813 105.94 230.18L105.93 230.62H101.64L101.41 229.8H105.04L104.89 229.97V229.73C104.87 229.51 104.797 229.313 104.67 229.14C104.544 228.967 104.384 228.83 104.19 228.73C103.997 228.63 103.787 228.58 103.56 228.58C103.2 228.58 102.897 228.65 102.65 228.79C102.404 228.923 102.217 229.123 102.09 229.39C101.964 229.65 101.9 229.973 101.9 230.36C101.9 230.727 101.977 231.047 102.13 231.32C102.284 231.587 102.5 231.793 102.78 231.94C103.06 232.087 103.384 232.16 103.75 232.16C104.01 232.16 104.25 232.117 104.47 232.03C104.697 231.943 104.94 231.787 105.2 231.56L105.72 232.29C105.56 232.45 105.364 232.59 105.13 232.71C104.904 232.83 104.66 232.927 104.4 233C104.147 233.067 103.897 233.1 103.65 233.1ZM108.81 233.1C108.37 233.1 107.973 233.023 107.62 232.87C107.267 232.717 106.973 232.49 106.74 232.19L107.44 231.59C107.64 231.823 107.857 231.993 108.09 232.1C108.33 232.2 108.6 232.25 108.9 232.25C109.02 232.25 109.13 232.237 109.23 232.21C109.337 232.177 109.427 232.13 109.5 232.07C109.58 232.01 109.64 231.94 109.68 231.86C109.72 231.773 109.74 231.68 109.74 231.58C109.74 231.407 109.677 231.267 109.55 231.16C109.483 231.113 109.377 231.063 109.23 231.01C109.09 230.95 108.907 230.89 108.68 230.83C108.293 230.73 107.977 230.617 107.73 230.49C107.483 230.363 107.293 230.22 107.16 230.06C107.06 229.933 106.987 229.797 106.94 229.65C106.893 229.497 106.87 229.33 106.87 229.15C106.87 228.93 106.917 228.73 107.01 228.55C107.11 228.363 107.243 228.203 107.41 228.07C107.583 227.93 107.783 227.823 108.01 227.75C108.243 227.677 108.49 227.64 108.75 227.64C108.997 227.64 109.24 227.673 109.48 227.74C109.727 227.807 109.953 227.903 110.16 228.03C110.367 228.157 110.54 228.307 110.68 228.48L110.09 229.13C109.963 229.003 109.823 228.893 109.67 228.8C109.523 228.7 109.373 228.623 109.22 228.57C109.067 228.517 108.927 228.49 108.8 228.49C108.66 228.49 108.533 228.503 108.42 228.53C108.307 228.557 108.21 228.597 108.13 228.65C108.057 228.703 108 228.77 107.96 228.85C107.92 228.93 107.9 229.02 107.9 229.12C107.907 229.207 107.927 229.29 107.96 229.37C108 229.443 108.053 229.507 108.12 229.56C108.193 229.613 108.303 229.67 108.45 229.73C108.597 229.79 108.783 229.847 109.01 229.9C109.343 229.987 109.617 230.083 109.83 230.19C110.05 230.29 110.223 230.407 110.35 230.54C110.483 230.667 110.577 230.813 110.63 230.98C110.683 231.147 110.71 231.333 110.71 231.54C110.71 231.84 110.623 232.11 110.45 232.35C110.283 232.583 110.057 232.767 109.77 232.9C109.483 233.033 109.163 233.1 108.81 233.1ZM114.075 233.1C113.588 233.1 113.152 232.98 112.765 232.74C112.385 232.5 112.082 232.173 111.855 231.76C111.635 231.347 111.525 230.883 111.525 230.37C111.525 229.857 111.635 229.393 111.855 228.98C112.082 228.567 112.385 228.24 112.765 228C113.152 227.76 113.588 227.64 114.075 227.64C114.542 227.64 114.965 227.737 115.345 227.93C115.732 228.117 116.025 228.373 116.225 228.7L115.655 229.4C115.548 229.247 115.412 229.107 115.245 228.98C115.078 228.853 114.902 228.753 114.715 228.68C114.528 228.607 114.348 228.57 114.175 228.57C113.855 228.57 113.568 228.65 113.315 228.81C113.068 228.963 112.872 229.177 112.725 229.45C112.578 229.723 112.505 230.03 112.505 230.37C112.505 230.71 112.582 231.017 112.735 231.29C112.888 231.557 113.092 231.77 113.345 231.93C113.598 232.09 113.878 232.17 114.185 232.17C114.365 232.17 114.538 232.14 114.705 232.08C114.878 232.02 115.045 231.93 115.205 231.81C115.365 231.69 115.515 231.543 115.655 231.37L116.225 232.07C116.012 232.37 115.705 232.617 115.305 232.81C114.912 233.003 114.502 233.1 114.075 233.1ZM117.197 233V227.75H118.237V229.4L118.137 229C118.21 228.747 118.333 228.517 118.507 228.31C118.687 228.103 118.89 227.94 119.117 227.82C119.35 227.7 119.59 227.64 119.837 227.64C119.95 227.64 120.057 227.65 120.157 227.67C120.263 227.69 120.347 227.713 120.407 227.74L120.137 228.86C120.057 228.827 119.967 228.8 119.867 228.78C119.773 228.753 119.68 228.74 119.587 228.74C119.407 228.74 119.233 228.777 119.067 228.85C118.907 228.917 118.763 229.013 118.637 229.14C118.517 229.26 118.42 229.403 118.347 229.57C118.273 229.73 118.237 229.907 118.237 230.1V233H117.197ZM121.4 233V227.75H122.43V233H121.4ZM121.9 226.59C121.68 226.59 121.51 226.533 121.39 226.42C121.27 226.307 121.21 226.147 121.21 225.94C121.21 225.747 121.27 225.59 121.39 225.47C121.516 225.35 121.686 225.29 121.9 225.29C122.12 225.29 122.29 225.347 122.41 225.46C122.53 225.573 122.59 225.733 122.59 225.94C122.59 226.133 122.526 226.29 122.4 226.41C122.28 226.53 122.113 226.59 121.9 226.59ZM124.013 235.2V227.75H125.053V228.95L124.893 228.86C124.933 228.66 125.046 228.47 125.233 228.29C125.42 228.103 125.646 227.953 125.913 227.84C126.186 227.72 126.466 227.66 126.753 227.66C127.226 227.66 127.646 227.777 128.013 228.01C128.38 228.243 128.67 228.563 128.883 228.97C129.096 229.377 129.203 229.843 129.203 230.37C129.203 230.89 129.096 231.357 128.883 231.77C128.676 232.177 128.39 232.5 128.023 232.74C127.656 232.973 127.243 233.09 126.783 233.09C126.476 233.09 126.18 233.03 125.893 232.91C125.606 232.783 125.363 232.623 125.163 232.43C124.963 232.237 124.84 232.037 124.793 231.83L125.053 231.69V235.2H124.013ZM126.613 232.14C126.92 232.14 127.193 232.063 127.433 231.91C127.673 231.757 127.863 231.547 128.003 231.28C128.143 231.013 128.213 230.71 128.213 230.37C128.213 230.03 128.143 229.73 128.003 229.47C127.87 229.203 127.683 228.993 127.443 228.84C127.203 228.687 126.926 228.61 126.613 228.61C126.3 228.61 126.023 228.687 125.783 228.84C125.543 228.987 125.353 229.193 125.213 229.46C125.073 229.727 125.003 230.03 125.003 230.37C125.003 230.71 125.073 231.013 125.213 231.28C125.353 231.547 125.543 231.757 125.783 231.91C126.023 232.063 126.3 232.14 126.613 232.14ZM130.972 233V226.41H132.002V233H130.972ZM129.882 228.75V227.75H133.222V228.75H129.882ZM134.329 233V227.75H135.359V233H134.329ZM134.829 226.59C134.609 226.59 134.439 226.533 134.319 226.42C134.199 226.307 134.139 226.147 134.139 225.94C134.139 225.747 134.199 225.59 134.319 225.47C134.446 225.35 134.616 225.29 134.829 225.29C135.049 225.29 135.219 225.347 135.339 225.46C135.459 225.573 135.519 225.733 135.519 225.94C135.519 226.133 135.456 226.29 135.329 226.41C135.209 226.53 135.043 226.59 134.829 226.59ZM139.303 233.1C138.789 233.1 138.329 232.983 137.923 232.75C137.523 232.51 137.206 232.187 136.973 231.78C136.739 231.367 136.623 230.897 136.623 230.37C136.623 229.843 136.739 229.377 136.973 228.97C137.206 228.557 137.523 228.233 137.923 228C138.329 227.76 138.789 227.64 139.303 227.64C139.809 227.64 140.263 227.76 140.663 228C141.069 228.233 141.389 228.557 141.623 228.97C141.856 229.377 141.973 229.843 141.973 230.37C141.973 230.897 141.856 231.367 141.623 231.78C141.389 232.187 141.069 232.51 140.663 232.75C140.263 232.983 139.809 233.1 139.303 233.1ZM139.303 232.16C139.616 232.16 139.896 232.083 140.143 231.93C140.389 231.77 140.583 231.557 140.723 231.29C140.863 231.017 140.929 230.71 140.923 230.37C140.929 230.023 140.863 229.717 140.723 229.45C140.583 229.177 140.389 228.963 140.143 228.81C139.896 228.657 139.616 228.58 139.303 228.58C138.989 228.58 138.706 228.66 138.453 228.82C138.206 228.973 138.013 229.187 137.873 229.46C137.733 229.727 137.666 230.03 137.673 230.37C137.666 230.71 137.733 231.017 137.873 231.29C138.013 231.557 138.206 231.77 138.453 231.93C138.706 232.083 138.989 232.16 139.303 232.16ZM143.095 233V227.75H144.125V228.83L143.945 228.95C144.012 228.717 144.142 228.503 144.335 228.31C144.528 228.11 144.758 227.95 145.025 227.83C145.292 227.703 145.565 227.64 145.845 227.64C146.245 227.64 146.578 227.72 146.845 227.88C147.112 228.033 147.312 228.27 147.445 228.59C147.578 228.91 147.645 229.313 147.645 229.8V233H146.615V229.87C146.615 229.57 146.575 229.323 146.495 229.13C146.415 228.93 146.292 228.787 146.125 228.7C145.958 228.607 145.752 228.567 145.505 228.58C145.305 228.58 145.122 228.613 144.955 228.68C144.788 228.74 144.642 228.827 144.515 228.94C144.395 229.053 144.298 229.187 144.225 229.34C144.158 229.487 144.125 229.647 144.125 229.82V233H143.615C143.528 233 143.442 233 143.355 233C143.268 233 143.182 233 143.095 233Z" fill="#3B3B3B"/>
<path d="M254.98 161V154H256.06V159.96H259.34V161H254.98ZM262.871 161.1C262.358 161.1 261.898 160.983 261.491 160.75C261.091 160.51 260.774 160.187 260.541 159.78C260.308 159.367 260.191 158.897 260.191 158.37C260.191 157.843 260.308 157.377 260.541 156.97C260.774 156.557 261.091 156.233 261.491 156C261.898 155.76 262.358 155.64 262.871 155.64C263.378 155.64 263.831 155.76 264.231 156C264.638 156.233 264.958 156.557 265.191 156.97C265.424 157.377 265.541 157.843 265.541 158.37C265.541 158.897 265.424 159.367 265.191 159.78C264.958 160.187 264.638 160.51 264.231 160.75C263.831 160.983 263.378 161.1 262.871 161.1ZM262.871 160.16C263.184 160.16 263.464 160.083 263.711 159.93C263.958 159.77 264.151 159.557 264.291 159.29C264.431 159.017 264.498 158.71 264.491 158.37C264.498 158.023 264.431 157.717 264.291 157.45C264.151 157.177 263.958 156.963 263.711 156.81C263.464 156.657 263.184 156.58 262.871 156.58C262.558 156.58 262.274 156.66 262.021 156.82C261.774 156.973 261.581 157.187 261.441 157.46C261.301 157.727 261.234 158.03 261.241 158.37C261.234 158.71 261.301 159.017 261.441 159.29C261.581 159.557 261.774 159.77 262.021 159.93C262.274 160.083 262.558 160.16 262.871 160.16ZM268.893 161.1C268.407 161.1 267.97 160.98 267.583 160.74C267.203 160.5 266.9 160.173 266.673 159.76C266.453 159.347 266.343 158.883 266.343 158.37C266.343 157.857 266.453 157.393 266.673 156.98C266.9 156.567 267.203 156.24 267.583 156C267.97 155.76 268.407 155.64 268.893 155.64C269.36 155.64 269.783 155.737 270.163 155.93C270.55 156.117 270.843 156.373 271.043 156.7L270.473 157.4C270.367 157.247 270.23 157.107 270.063 156.98C269.897 156.853 269.72 156.753 269.533 156.68C269.347 156.607 269.167 156.57 268.993 156.57C268.673 156.57 268.387 156.65 268.133 156.81C267.887 156.963 267.69 157.177 267.543 157.45C267.397 157.723 267.323 158.03 267.323 158.37C267.323 158.71 267.4 159.017 267.553 159.29C267.707 159.557 267.91 159.77 268.163 159.93C268.417 160.09 268.697 160.17 269.003 160.17C269.183 160.17 269.357 160.14 269.523 160.08C269.697 160.02 269.863 159.93 270.023 159.81C270.183 159.69 270.333 159.543 270.473 159.37L271.043 160.07C270.83 160.37 270.523 160.617 270.123 160.81C269.73 161.003 269.32 161.1 268.893 161.1ZM274.035 161.1C273.602 161.1 273.205 160.98 272.845 160.74C272.492 160.5 272.208 160.173 271.995 159.76C271.782 159.347 271.675 158.88 271.675 158.36C271.675 157.833 271.782 157.367 271.995 156.96C272.215 156.547 272.508 156.223 272.875 155.99C273.248 155.757 273.665 155.64 274.125 155.64C274.398 155.64 274.648 155.68 274.875 155.76C275.102 155.84 275.298 155.953 275.465 156.1C275.638 156.24 275.778 156.403 275.885 156.59C275.998 156.777 276.068 156.977 276.095 157.19L275.865 157.11V155.75H276.905V161H275.865V159.75L276.105 159.68C276.065 159.86 275.982 160.037 275.855 160.21C275.735 160.377 275.578 160.527 275.385 160.66C275.198 160.793 274.988 160.9 274.755 160.98C274.528 161.06 274.288 161.1 274.035 161.1ZM274.305 160.15C274.618 160.15 274.895 160.073 275.135 159.92C275.375 159.767 275.562 159.557 275.695 159.29C275.835 159.017 275.905 158.707 275.905 158.36C275.905 158.02 275.835 157.717 275.695 157.45C275.562 157.183 275.375 156.973 275.135 156.82C274.895 156.667 274.618 156.59 274.305 156.59C273.998 156.59 273.725 156.667 273.485 156.82C273.252 156.973 273.065 157.183 272.925 157.45C272.792 157.717 272.725 158.02 272.725 158.36C272.725 158.707 272.792 159.017 272.925 159.29C273.065 159.557 273.252 159.767 273.485 159.92C273.725 160.073 273.998 160.15 274.305 160.15ZM278.993 161V154.41H280.023V161H278.993ZM277.903 156.75V155.75H281.243V156.75H277.903ZM282.351 161V155.75H283.381V161H282.351ZM282.851 154.59C282.631 154.59 282.461 154.533 282.341 154.42C282.221 154.307 282.161 154.147 282.161 153.94C282.161 153.747 282.221 153.59 282.341 153.47C282.468 153.35 282.638 153.29 282.851 153.29C283.071 153.29 283.241 153.347 283.361 153.46C283.481 153.573 283.541 153.733 283.541 153.94C283.541 154.133 283.478 154.29 283.351 154.41C283.231 154.53 283.064 154.59 282.851 154.59ZM287.324 161.1C286.811 161.1 286.351 160.983 285.944 160.75C285.544 160.51 285.227 160.187 284.994 159.78C284.761 159.367 284.644 158.897 284.644 158.37C284.644 157.843 284.761 157.377 284.994 156.97C285.227 156.557 285.544 156.233 285.944 156C286.351 155.76 286.811 155.64 287.324 155.64C287.831 155.64 288.284 155.76 288.684 156C289.091 156.233 289.411 156.557 289.644 156.97C289.877 157.377 289.994 157.843 289.994 158.37C289.994 158.897 289.877 159.367 289.644 159.78C289.411 160.187 289.091 160.51 288.684 160.75C288.284 160.983 287.831 161.1 287.324 161.1ZM287.324 160.16C287.637 160.16 287.917 160.083 288.164 159.93C288.411 159.77 288.604 159.557 288.744 159.29C288.884 159.017 288.951 158.71 288.944 158.37C288.951 158.023 288.884 157.717 288.744 157.45C288.604 157.177 288.411 156.963 288.164 156.81C287.917 156.657 287.637 156.58 287.324 156.58C287.011 156.58 286.727 156.66 286.474 156.82C286.227 156.973 286.034 157.187 285.894 157.46C285.754 157.727 285.687 158.03 285.694 158.37C285.687 158.71 285.754 159.017 285.894 159.29C286.034 159.557 286.227 159.77 286.474 159.93C286.727 160.083 287.011 160.16 287.324 160.16ZM291.116 161V155.75H292.146V156.83L291.966 156.95C292.033 156.717 292.163 156.503 292.356 156.31C292.55 156.11 292.78 155.95 293.046 155.83C293.313 155.703 293.586 155.64 293.866 155.64C294.266 155.64 294.6 155.72 294.866 155.88C295.133 156.033 295.333 156.27 295.466 156.59C295.6 156.91 295.666 157.313 295.666 157.8V161H294.636V157.87C294.636 157.57 294.596 157.323 294.516 157.13C294.436 156.93 294.313 156.787 294.146 156.7C293.98 156.607 293.773 156.567 293.526 156.58C293.326 156.58 293.143 156.613 292.976 156.68C292.81 156.74 292.663 156.827 292.536 156.94C292.416 157.053 292.32 157.187 292.246 157.34C292.18 157.487 292.146 157.647 292.146 157.82V161H291.636C291.55 161 291.463 161 291.376 161C291.29 161 291.203 161 291.116 161Z" fill="#3B3B3B"/>
<rect x="104" y="180" width="98" height="7" rx="3.5" fill="#E4E6EA"/>
<rect x="104" y="252" width="274" height="7" rx="3.5" fill="#E4E6EA"/>
<rect x="104" y="264" width="213" height="7" rx="3.5" fill="#E4E6EA"/>
<rect x="104" y="276" width="255" height="7" rx="3.5" fill="#E4E6EA"/>
<rect x="265" y="180" width="111" height="7" rx="3.5" fill="#E4E6EA"/>
<rect x="93.25" y="170.25" width="133.5" height="26.5" rx="3.75" stroke="#E4E6EA" stroke-width="0.5"/>
<rect x="93.25" y="242.25" width="294.5" height="50.5" rx="3.75" stroke="#E4E6EA" stroke-width="0.5"/>
<rect x="93.25" y="242.25" width="294.5" height="50.5" rx="3.75" stroke="#E4E6EA" stroke-width="0.5"/>
<rect x="254.25" y="170.25" width="133.5" height="26.5" rx="3.75" stroke="#E4E6EA" stroke-width="0.5"/>
<rect x="83.5" y="309.5" width="314" height="61" rx="8.5" stroke="#C4C4C4" stroke-dasharray="7 7"/>
<path d="M100.47 346V335.5H104.745C105.315 335.5 105.83 335.645 106.29 335.935C106.76 336.215 107.135 336.6 107.415 337.09C107.695 337.58 107.835 338.125 107.835 338.725C107.835 339.325 107.695 339.87 107.415 340.36C107.135 340.85 106.76 341.245 106.29 341.545C105.83 341.835 105.315 341.98 104.745 341.98H102.09V346H100.47ZM102.09 340.42H104.715C104.985 340.42 105.23 340.345 105.45 340.195C105.67 340.035 105.845 339.83 105.975 339.58C106.115 339.32 106.185 339.035 106.185 338.725C106.185 338.415 106.115 338.135 105.975 337.885C105.845 337.635 105.67 337.435 105.45 337.285C105.23 337.135 104.985 337.06 104.715 337.06H102.09V340.42ZM109.587 346V338.125H111.147V340.6L110.997 340C111.107 339.62 111.292 339.275 111.552 338.965C111.822 338.655 112.127 338.41 112.467 338.23C112.817 338.05 113.177 337.96 113.547 337.96C113.717 337.96 113.877 337.975 114.027 338.005C114.187 338.035 114.312 338.07 114.402 338.11L113.997 339.79C113.877 339.74 113.742 339.7 113.592 339.67C113.452 339.63 113.312 339.61 113.172 339.61C112.902 339.61 112.642 339.665 112.392 339.775C112.152 339.875 111.937 340.02 111.747 340.21C111.567 340.39 111.422 340.605 111.312 340.855C111.202 341.095 111.147 341.36 111.147 341.65V346H109.587ZM115.892 346V338.125H117.437V346H115.892ZM116.642 336.385C116.312 336.385 116.057 336.3 115.877 336.13C115.697 335.96 115.607 335.72 115.607 335.41C115.607 335.12 115.697 334.885 115.877 334.705C116.067 334.525 116.322 334.435 116.642 334.435C116.972 334.435 117.227 334.52 117.407 334.69C117.587 334.86 117.677 335.1 117.677 335.41C117.677 335.7 117.582 335.935 117.392 336.115C117.212 336.295 116.962 336.385 116.642 336.385ZM119.781 346V338.125H121.341V339.805L121.056 339.985C121.136 339.725 121.261 339.475 121.431 339.235C121.611 338.995 121.826 338.785 122.076 338.605C122.336 338.415 122.611 338.265 122.901 338.155C123.201 338.045 123.506 337.99 123.816 337.99C124.266 337.99 124.661 338.065 125.001 338.215C125.341 338.365 125.621 338.59 125.841 338.89C126.061 339.19 126.221 339.565 126.321 340.015L126.081 339.955L126.186 339.7C126.296 339.47 126.446 339.255 126.636 339.055C126.836 338.845 127.061 338.66 127.311 338.5C127.561 338.34 127.826 338.215 128.106 338.125C128.386 338.035 128.661 337.99 128.931 337.99C129.521 337.99 130.006 338.11 130.386 338.35C130.776 338.59 131.066 338.955 131.256 339.445C131.456 339.935 131.556 340.545 131.556 341.275V346H129.996V341.365C129.996 340.915 129.936 340.55 129.816 340.27C129.706 339.98 129.536 339.765 129.306 339.625C129.076 339.485 128.781 339.415 128.421 339.415C128.141 339.415 127.876 339.465 127.626 339.565C127.386 339.655 127.176 339.785 126.996 339.955C126.816 340.125 126.676 340.325 126.576 340.555C126.476 340.775 126.426 341.02 126.426 341.29V346H124.866V341.335C124.866 340.925 124.806 340.58 124.686 340.3C124.566 340.01 124.391 339.79 124.161 339.64C123.931 339.49 123.651 339.415 123.321 339.415C123.041 339.415 122.781 339.465 122.541 339.565C122.301 339.655 122.091 339.785 121.911 339.955C121.731 340.115 121.591 340.31 121.491 340.54C121.391 340.76 121.341 341 121.341 341.26V346H119.781ZM136.655 346.15C136.005 346.15 135.41 345.97 134.87 345.61C134.34 345.25 133.915 344.76 133.595 344.14C133.275 343.52 133.115 342.82 133.115 342.04C133.115 341.25 133.275 340.55 133.595 339.94C133.925 339.32 134.365 338.835 134.915 338.485C135.475 338.135 136.1 337.96 136.79 337.96C137.2 337.96 137.575 338.02 137.915 338.14C138.255 338.26 138.55 338.43 138.8 338.65C139.06 338.86 139.27 339.105 139.43 339.385C139.6 339.665 139.705 339.965 139.745 340.285L139.4 340.165V338.125H140.96V346H139.4V344.125L139.76 344.02C139.7 344.29 139.575 344.555 139.385 344.815C139.205 345.065 138.97 345.29 138.68 345.49C138.4 345.69 138.085 345.85 137.735 345.97C137.395 346.09 137.035 346.15 136.655 346.15ZM137.06 344.725C137.53 344.725 137.945 344.61 138.305 344.38C138.665 344.15 138.945 343.835 139.145 343.435C139.355 343.025 139.46 342.56 139.46 342.04C139.46 341.53 139.355 341.075 139.145 340.675C138.945 340.275 138.665 339.96 138.305 339.73C137.945 339.5 137.53 339.385 137.06 339.385C136.6 339.385 136.19 339.5 135.83 339.73C135.48 339.96 135.2 340.275 134.99 340.675C134.79 341.075 134.69 341.53 134.69 342.04C134.69 342.56 134.79 343.025 134.99 343.435C135.2 343.835 135.48 344.15 135.83 344.38C136.19 344.61 136.6 344.725 137.06 344.725ZM143.117 346V338.125H144.677V340.6L144.527 340C144.637 339.62 144.822 339.275 145.082 338.965C145.352 338.655 145.657 338.41 145.997 338.23C146.347 338.05 146.707 337.96 147.077 337.96C147.247 337.96 147.407 337.975 147.557 338.005C147.717 338.035 147.842 338.07 147.932 338.11L147.527 339.79C147.407 339.74 147.272 339.7 147.122 339.67C146.982 339.63 146.842 339.61 146.702 339.61C146.432 339.61 146.172 339.665 145.922 339.775C145.682 339.875 145.467 340.02 145.277 340.21C145.097 340.39 144.952 340.605 144.842 340.855C144.732 341.095 144.677 341.36 144.677 341.65V346H143.117ZM150.487 349.45L152.077 345.775L152.092 347.005L148.162 338.125H149.962L152.422 343.915C152.472 344.015 152.532 344.17 152.602 344.38C152.672 344.58 152.732 344.78 152.782 344.98L152.392 345.07C152.472 344.86 152.547 344.65 152.617 344.44C152.697 344.23 152.772 344.02 152.842 343.81L154.897 338.125H156.727L153.487 346L152.152 349.45H150.487ZM162.087 346V344.5H163.782V337H162.087V335.5H167.097V337H165.402V344.5H167.097V346H162.087ZM169.22 346V338.125H170.78V339.805L170.495 339.985C170.575 339.725 170.7 339.475 170.87 339.235C171.05 338.995 171.265 338.785 171.515 338.605C171.775 338.415 172.05 338.265 172.34 338.155C172.64 338.045 172.945 337.99 173.255 337.99C173.705 337.99 174.1 338.065 174.44 338.215C174.78 338.365 175.06 338.59 175.28 338.89C175.5 339.19 175.66 339.565 175.76 340.015L175.52 339.955L175.625 339.7C175.735 339.47 175.885 339.255 176.075 339.055C176.275 338.845 176.5 338.66 176.75 338.5C177 338.34 177.265 338.215 177.545 338.125C177.825 338.035 178.1 337.99 178.37 337.99C178.96 337.99 179.445 338.11 179.825 338.35C180.215 338.59 180.505 338.955 180.695 339.445C180.895 339.935 180.995 340.545 180.995 341.275V346H179.435V341.365C179.435 340.915 179.375 340.55 179.255 340.27C179.145 339.98 178.975 339.765 178.745 339.625C178.515 339.485 178.22 339.415 177.86 339.415C177.58 339.415 177.315 339.465 177.065 339.565C176.825 339.655 176.615 339.785 176.435 339.955C176.255 340.125 176.115 340.325 176.015 340.555C175.915 340.775 175.865 341.02 175.865 341.29V346H174.305V341.335C174.305 340.925 174.245 340.58 174.125 340.3C174.005 340.01 173.83 339.79 173.6 339.64C173.37 339.49 173.09 339.415 172.76 339.415C172.48 339.415 172.22 339.465 171.98 339.565C171.74 339.655 171.53 339.785 171.35 339.955C171.17 340.115 171.03 340.31 170.93 340.54C170.83 340.76 170.78 341 170.78 341.26V346H169.22ZM186.093 346.15C185.443 346.15 184.848 345.97 184.308 345.61C183.778 345.25 183.353 344.76 183.033 344.14C182.713 343.52 182.553 342.82 182.553 342.04C182.553 341.25 182.713 340.55 183.033 339.94C183.363 339.32 183.803 338.835 184.353 338.485C184.913 338.135 185.538 337.96 186.228 337.96C186.638 337.96 187.013 338.02 187.353 338.14C187.693 338.26 187.988 338.43 188.238 338.65C188.498 338.86 188.708 339.105 188.868 339.385C189.038 339.665 189.143 339.965 189.183 340.285L188.838 340.165V338.125H190.398V346H188.838V344.125L189.198 344.02C189.138 344.29 189.013 344.555 188.823 344.815C188.643 345.065 188.408 345.29 188.118 345.49C187.838 345.69 187.523 345.85 187.173 345.97C186.833 346.09 186.473 346.15 186.093 346.15ZM186.498 344.725C186.968 344.725 187.383 344.61 187.743 344.38C188.103 344.15 188.383 343.835 188.583 343.435C188.793 343.025 188.898 342.56 188.898 342.04C188.898 341.53 188.793 341.075 188.583 340.675C188.383 340.275 188.103 339.96 187.743 339.73C187.383 339.5 186.968 339.385 186.498 339.385C186.038 339.385 185.628 339.5 185.268 339.73C184.918 339.96 184.638 340.275 184.428 340.675C184.228 341.075 184.128 341.53 184.128 342.04C184.128 342.56 184.228 343.025 184.428 343.435C184.638 343.835 184.918 344.15 185.268 344.38C185.628 344.61 186.038 344.725 186.498 344.725ZM196.081 349.45C195.521 349.45 194.961 349.36 194.401 349.18C193.851 349.01 193.406 348.785 193.066 348.505L193.636 347.305C193.836 347.455 194.071 347.585 194.341 347.695C194.611 347.815 194.896 347.905 195.196 347.965C195.496 348.035 195.791 348.07 196.081 348.07C196.631 348.07 197.091 347.98 197.461 347.8C197.831 347.62 198.111 347.355 198.301 347.005C198.491 346.655 198.586 346.22 198.586 345.7V344.185L198.751 344.29C198.701 344.6 198.536 344.9 198.256 345.19C197.986 345.47 197.646 345.7 197.236 345.88C196.826 346.06 196.406 346.15 195.976 346.15C195.226 346.15 194.556 345.975 193.966 345.625C193.386 345.265 192.926 344.78 192.586 344.17C192.246 343.55 192.076 342.845 192.076 342.055C192.076 341.265 192.241 340.565 192.571 339.955C192.911 339.335 193.371 338.85 193.951 338.5C194.541 338.14 195.201 337.96 195.931 337.96C196.231 337.96 196.521 338 196.801 338.08C197.081 338.15 197.341 338.255 197.581 338.395C197.821 338.525 198.036 338.67 198.226 338.83C198.416 338.99 198.571 339.16 198.691 339.34C198.811 339.52 198.886 339.69 198.916 339.85L198.586 339.97V338.125H200.131V345.52C200.131 346.15 200.036 346.705 199.846 347.185C199.666 347.675 199.401 348.085 199.051 348.415C198.701 348.755 198.276 349.01 197.776 349.18C197.276 349.36 196.711 349.45 196.081 349.45ZM196.141 344.725C196.631 344.725 197.066 344.61 197.446 344.38C197.826 344.15 198.121 343.835 198.331 343.435C198.541 343.035 198.646 342.575 198.646 342.055C198.646 341.535 198.536 341.075 198.316 340.675C198.106 340.265 197.811 339.945 197.431 339.715C197.061 339.485 196.631 339.37 196.141 339.37C195.661 339.37 195.231 339.49 194.851 339.73C194.481 339.96 194.186 340.28 193.966 340.69C193.756 341.09 193.651 341.545 193.651 342.055C193.651 342.565 193.756 343.025 193.966 343.435C194.186 343.835 194.481 344.15 194.851 344.38C195.231 344.61 195.661 344.725 196.141 344.725ZM205.972 346.15C205.162 346.15 204.442 345.98 203.812 345.64C203.192 345.29 202.702 344.815 202.342 344.215C201.992 343.615 201.817 342.925 201.817 342.145C201.817 341.525 201.917 340.96 202.117 340.45C202.317 339.94 202.592 339.5 202.942 339.13C203.302 338.75 203.727 338.46 204.217 338.26C204.717 338.05 205.257 337.945 205.837 337.945C206.347 337.945 206.822 338.045 207.262 338.245C207.702 338.435 208.082 338.7 208.402 339.04C208.732 339.38 208.982 339.785 209.152 340.255C209.332 340.715 209.417 341.22 209.407 341.77L209.392 342.43H202.957L202.612 341.2H208.057L207.832 341.455V341.095C207.802 340.765 207.692 340.47 207.502 340.21C207.312 339.95 207.072 339.745 206.782 339.595C206.492 339.445 206.177 339.37 205.837 339.37C205.297 339.37 204.842 339.475 204.472 339.685C204.102 339.885 203.822 340.185 203.632 340.585C203.442 340.975 203.347 341.46 203.347 342.04C203.347 342.59 203.462 343.07 203.692 343.48C203.922 343.88 204.247 344.19 204.667 344.41C205.087 344.63 205.572 344.74 206.122 344.74C206.512 344.74 206.872 344.675 207.202 344.545C207.542 344.415 207.907 344.18 208.297 343.84L209.077 344.935C208.837 345.175 208.542 345.385 208.192 345.565C207.852 345.745 207.487 345.89 207.097 346C206.717 346.1 206.342 346.15 205.972 346.15Z" fill="#C4C4C4"/>
<path d="M370.55 336.756L374.906 332.916V344.656C374.906 344.985 375.172 345.25 375.5 345.25C375.828 345.25 376.094 344.985 376.094 344.656V332.916L380.45 336.787C380.562 336.89 380.703 336.938 380.844 336.938C381.007 336.938 381.171 336.871 381.288 336.738C381.506 336.494 381.483 336.118 381.238 335.9L375.894 331.15C375.669 330.95 375.331 330.95 375.106 331.15L369.762 335.9C369.517 336.118 369.494 336.492 369.711 336.737C369.928 336.982 370.308 337.005 370.55 336.756ZM382.625 342.875H378.469C378.141 342.875 377.875 343.141 377.875 343.469C377.875 343.797 378.141 344.063 378.469 344.063H382.625C383.281 344.063 383.812 344.594 383.812 345.25V347.625C383.812 348.281 383.281 348.813 382.625 348.813H368.375C367.719 348.813 367.188 348.281 367.188 347.625V345.25C367.188 344.594 367.719 344.063 368.375 344.063H372.531C372.858 344.063 373.125 343.795 373.125 343.469C373.125 343.142 372.858 342.875 372.531 342.875H368.375C367.063 342.875 366 343.938 366 345.25V347.625C366 348.937 367.063 350 368.375 350H382.625C383.937 350 385 348.937 385 347.625V345.25C385 343.94 383.935 342.875 382.625 342.875ZM382.328 346.438C382.328 345.946 381.929 345.547 381.438 345.547C380.946 345.547 380.547 345.946 380.547 346.438C380.547 346.929 380.946 347.328 381.438 347.328C381.929 347.328 382.328 346.931 382.328 346.438Z" fill="black"/>
<rect x="82" y="386" width="316" height="54" rx="9" fill="#1989FA"/>
<circle cx="106" cy="413" r="11" fill="#35CA00"/>
<path d="M136.701 417.474V409.074H141.993V410.322H137.997V416.226H141.993V417.474H136.701ZM137.289 413.79V412.542H141.333V413.79H137.289ZM143.76 417.474V411.174H144.996V412.47L144.78 412.614C144.86 412.334 145.016 412.078 145.248 411.846C145.48 411.606 145.756 411.414 146.076 411.27C146.396 411.118 146.724 411.042 147.06 411.042C147.54 411.042 147.94 411.138 148.26 411.33C148.58 411.514 148.82 411.798 148.98 412.182C149.14 412.566 149.22 413.05 149.22 413.634V417.474H147.984V413.718C147.984 413.358 147.936 413.062 147.84 412.83C147.744 412.59 147.596 412.418 147.396 412.314C147.196 412.202 146.948 412.154 146.652 412.17C146.412 412.17 146.192 412.21 145.992 412.29C145.792 412.362 145.616 412.466 145.464 412.602C145.32 412.738 145.204 412.898 145.116 413.082C145.036 413.258 144.996 413.45 144.996 413.658V417.474H144.384C144.28 417.474 144.176 417.474 144.072 417.474C143.968 417.474 143.864 417.474 143.76 417.474ZM153.321 417.594C152.801 417.594 152.325 417.45 151.893 417.162C151.469 416.874 151.129 416.482 150.873 415.986C150.617 415.49 150.489 414.93 150.489 414.306C150.489 413.674 150.617 413.114 150.873 412.626C151.137 412.13 151.489 411.742 151.929 411.462C152.377 411.182 152.877 411.042 153.429 411.042C153.757 411.042 154.057 411.09 154.329 411.186C154.601 411.282 154.837 411.418 155.037 411.594C155.245 411.762 155.413 411.958 155.541 412.182C155.677 412.406 155.761 412.646 155.793 412.902L155.517 412.806V411.174H156.765V417.474H155.517V415.974L155.805 415.89C155.757 416.106 155.657 416.318 155.505 416.526C155.361 416.726 155.173 416.906 154.941 417.066C154.717 417.226 154.465 417.354 154.185 417.45C153.913 417.546 153.625 417.594 153.321 417.594ZM153.645 416.454C154.021 416.454 154.353 416.362 154.641 416.178C154.929 415.994 155.153 415.742 155.313 415.422C155.481 415.094 155.565 414.722 155.565 414.306C155.565 413.898 155.481 413.534 155.313 413.214C155.153 412.894 154.929 412.642 154.641 412.458C154.353 412.274 154.021 412.182 153.645 412.182C153.277 412.182 152.949 412.274 152.661 412.458C152.381 412.642 152.157 412.894 151.989 413.214C151.829 413.534 151.749 413.898 151.749 414.306C151.749 414.722 151.829 415.094 151.989 415.422C152.157 415.742 152.381 415.994 152.661 416.178C152.949 416.362 153.277 416.454 153.645 416.454ZM161.803 417.594C161.531 417.594 161.259 417.55 160.987 417.462C160.723 417.374 160.479 417.258 160.255 417.114C160.039 416.962 159.855 416.798 159.703 416.622C159.559 416.438 159.463 416.254 159.415 416.07L159.727 415.902V417.438H158.491V408.594H159.727V412.614L159.535 412.506C159.575 412.322 159.663 412.146 159.799 411.978C159.935 411.802 160.107 411.646 160.315 411.51C160.531 411.366 160.763 411.254 161.011 411.174C161.259 411.086 161.511 411.042 161.767 411.042C162.335 411.042 162.839 411.182 163.279 411.462C163.719 411.742 164.067 412.13 164.323 412.626C164.579 413.114 164.707 413.674 164.707 414.306C164.707 414.938 164.579 415.502 164.323 415.998C164.075 416.494 163.731 416.886 163.291 417.174C162.851 417.454 162.355 417.594 161.803 417.594ZM161.599 416.466C161.967 416.466 162.295 416.374 162.583 416.19C162.871 415.998 163.099 415.742 163.267 415.422C163.435 415.094 163.519 414.722 163.519 414.306C163.519 413.898 163.435 413.534 163.267 413.214C163.107 412.886 162.883 412.63 162.595 412.446C162.307 412.262 161.975 412.17 161.599 412.17C161.223 412.17 160.891 412.262 160.603 412.446C160.315 412.63 160.087 412.886 159.919 413.214C159.751 413.534 159.667 413.898 159.667 414.306C159.667 414.722 159.751 415.094 159.919 415.422C160.087 415.742 160.315 415.998 160.603 416.19C160.891 416.374 161.223 416.466 161.599 416.466ZM166.074 417.474V408.594H167.31V417.474H166.074ZM171.884 417.594C171.236 417.594 170.66 417.458 170.156 417.186C169.66 416.906 169.268 416.526 168.98 416.046C168.7 415.566 168.56 415.014 168.56 414.39C168.56 413.894 168.64 413.442 168.8 413.034C168.96 412.626 169.18 412.274 169.46 411.978C169.748 411.674 170.088 411.442 170.48 411.282C170.88 411.114 171.312 411.03 171.776 411.03C172.184 411.03 172.564 411.11 172.916 411.27C173.268 411.422 173.572 411.634 173.828 411.906C174.092 412.178 174.292 412.502 174.428 412.878C174.572 413.246 174.64 413.65 174.632 414.09L174.62 414.618H169.472L169.196 413.634H173.552L173.372 413.838V413.55C173.348 413.286 173.26 413.05 173.108 412.842C172.956 412.634 172.764 412.47 172.532 412.35C172.3 412.23 172.048 412.17 171.776 412.17C171.344 412.17 170.98 412.254 170.684 412.422C170.388 412.582 170.164 412.822 170.012 413.142C169.86 413.454 169.784 413.842 169.784 414.306C169.784 414.746 169.876 415.13 170.06 415.458C170.244 415.778 170.504 416.026 170.84 416.202C171.176 416.378 171.564 416.466 172.004 416.466C172.316 416.466 172.604 416.414 172.868 416.31C173.14 416.206 173.432 416.018 173.744 415.746L174.368 416.622C174.176 416.814 173.94 416.982 173.66 417.126C173.388 417.27 173.096 417.386 172.784 417.474C172.48 417.554 172.18 417.594 171.884 417.594ZM179.651 417.474V409.074H183.071C183.527 409.074 183.939 409.19 184.307 409.422C184.683 409.646 184.983 409.954 185.207 410.346C185.431 410.738 185.543 411.174 185.543 411.654C185.543 412.134 185.431 412.57 185.207 412.962C184.983 413.354 184.683 413.67 184.307 413.91C183.939 414.142 183.527 414.258 183.071 414.258H180.947V417.474H179.651ZM180.947 413.01H183.047C183.263 413.01 183.459 412.95 183.635 412.83C183.811 412.702 183.951 412.538 184.055 412.338C184.167 412.13 184.223 411.902 184.223 411.654C184.223 411.406 184.167 411.182 184.055 410.982C183.951 410.782 183.811 410.622 183.635 410.502C183.459 410.382 183.263 410.322 183.047 410.322H180.947V413.01ZM189.251 417.594C188.731 417.594 188.255 417.45 187.823 417.162C187.399 416.874 187.059 416.482 186.803 415.986C186.547 415.49 186.419 414.93 186.419 414.306C186.419 413.674 186.547 413.114 186.803 412.626C187.067 412.13 187.419 411.742 187.859 411.462C188.307 411.182 188.807 411.042 189.359 411.042C189.687 411.042 189.987 411.09 190.259 411.186C190.531 411.282 190.767 411.418 190.967 411.594C191.175 411.762 191.343 411.958 191.471 412.182C191.607 412.406 191.691 412.646 191.723 412.902L191.447 412.806V411.174H192.695V417.474H191.447V415.974L191.735 415.89C191.687 416.106 191.587 416.318 191.435 416.526C191.291 416.726 191.103 416.906 190.871 417.066C190.647 417.226 190.395 417.354 190.115 417.45C189.843 417.546 189.555 417.594 189.251 417.594ZM189.575 416.454C189.951 416.454 190.283 416.362 190.571 416.178C190.859 415.994 191.083 415.742 191.243 415.422C191.411 415.094 191.495 414.722 191.495 414.306C191.495 413.898 191.411 413.534 191.243 413.214C191.083 412.894 190.859 412.642 190.571 412.458C190.283 412.274 189.951 412.182 189.575 412.182C189.207 412.182 188.879 412.274 188.591 412.458C188.311 412.642 188.087 412.894 187.919 413.214C187.759 413.534 187.679 413.898 187.679 414.306C187.679 414.722 187.759 415.094 187.919 415.422C188.087 415.742 188.311 415.994 188.591 416.178C188.879 416.362 189.207 416.454 189.575 416.454ZM195.336 420.234L196.608 417.294L196.62 418.278L193.476 411.174H194.916L196.884 415.806C196.924 415.886 196.972 416.01 197.028 416.178C197.084 416.338 197.132 416.498 197.172 416.658L196.86 416.73C196.924 416.562 196.984 416.394 197.04 416.226C197.104 416.058 197.164 415.89 197.22 415.722L198.864 411.174H200.328L197.736 417.474L196.668 420.234H195.336ZM201.229 417.474V411.174H202.477V412.518L202.249 412.662C202.313 412.454 202.413 412.254 202.549 412.062C202.693 411.87 202.865 411.702 203.065 411.558C203.273 411.406 203.493 411.286 203.725 411.198C203.965 411.11 204.209 411.066 204.457 411.066C204.817 411.066 205.133 411.126 205.405 411.246C205.677 411.366 205.901 411.546 206.077 411.786C206.253 412.026 206.381 412.326 206.461 412.686L206.269 412.638L206.353 412.434C206.441 412.25 206.561 412.078 206.713 411.918C206.873 411.75 207.053 411.602 207.253 411.474C207.453 411.346 207.665 411.246 207.889 411.174C208.113 411.102 208.333 411.066 208.549 411.066C209.021 411.066 209.409 411.162 209.713 411.354C210.025 411.546 210.257 411.838 210.409 412.23C210.569 412.622 210.649 413.11 210.649 413.694V417.474H209.401V413.766C209.401 413.406 209.353 413.114 209.257 412.89C209.169 412.658 209.033 412.486 208.849 412.374C208.665 412.262 208.429 412.206 208.141 412.206C207.917 412.206 207.705 412.246 207.505 412.326C207.313 412.398 207.145 412.502 207.001 412.638C206.857 412.774 206.745 412.934 206.665 413.118C206.585 413.294 206.545 413.49 206.545 413.706V417.474H205.297V413.742C205.297 413.414 205.249 413.138 205.153 412.914C205.057 412.682 204.917 412.506 204.733 412.386C204.549 412.266 204.325 412.206 204.061 412.206C203.837 412.206 203.629 412.246 203.437 412.326C203.245 412.398 203.077 412.502 202.933 412.638C202.789 412.766 202.677 412.922 202.597 413.106C202.517 413.282 202.477 413.474 202.477 413.682V417.474H201.229ZM215.243 417.594C214.595 417.594 214.019 417.458 213.515 417.186C213.019 416.906 212.627 416.526 212.339 416.046C212.059 415.566 211.919 415.014 211.919 414.39C211.919 413.894 211.999 413.442 212.159 413.034C212.319 412.626 212.539 412.274 212.819 411.978C213.107 411.674 213.447 411.442 213.839 411.282C214.239 411.114 214.671 411.03 215.135 411.03C215.543 411.03 215.923 411.11 216.275 411.27C216.627 411.422 216.931 411.634 217.187 411.906C217.451 412.178 217.651 412.502 217.787 412.878C217.931 413.246 217.999 413.65 217.991 414.09L217.979 414.618H212.831L212.555 413.634H216.911L216.731 413.838V413.55C216.707 413.286 216.619 413.05 216.467 412.842C216.315 412.634 216.123 412.47 215.891 412.35C215.659 412.23 215.407 412.17 215.135 412.17C214.703 412.17 214.339 412.254 214.043 412.422C213.747 412.582 213.523 412.822 213.371 413.142C213.219 413.454 213.143 413.842 213.143 414.306C213.143 414.746 213.235 415.13 213.419 415.458C213.603 415.778 213.863 416.026 214.199 416.202C214.535 416.378 214.923 416.466 215.363 416.466C215.675 416.466 215.963 416.414 216.227 416.31C216.499 416.206 216.791 416.018 217.103 415.746L217.727 416.622C217.535 416.814 217.299 416.982 217.019 417.126C216.747 417.27 216.455 417.386 216.143 417.474C215.839 417.554 215.539 417.594 215.243 417.594ZM219.335 417.474V411.174H220.571V412.47L220.355 412.614C220.435 412.334 220.591 412.078 220.823 411.846C221.055 411.606 221.331 411.414 221.651 411.27C221.971 411.118 222.299 411.042 222.635 411.042C223.115 411.042 223.515 411.138 223.835 411.33C224.155 411.514 224.395 411.798 224.555 412.182C224.715 412.566 224.795 413.05 224.795 413.634V417.474H223.559V413.718C223.559 413.358 223.511 413.062 223.415 412.83C223.319 412.59 223.171 412.418 222.971 412.314C222.771 412.202 222.523 412.154 222.227 412.17C221.987 412.17 221.767 412.21 221.567 412.29C221.367 412.362 221.191 412.466 221.039 412.602C220.895 412.738 220.779 412.898 220.691 413.082C220.611 413.258 220.571 413.45 220.571 413.658V417.474H219.959C219.855 417.474 219.751 417.474 219.647 417.474C219.543 417.474 219.439 417.474 219.335 417.474ZM227.251 417.474V409.566H228.487V417.474H227.251ZM225.943 412.374V411.174H229.951V412.374H225.943ZM233.411 417.594C232.883 417.594 232.407 417.502 231.983 417.318C231.559 417.134 231.207 416.862 230.927 416.502L231.767 415.782C232.007 416.062 232.267 416.266 232.547 416.394C232.835 416.514 233.159 416.574 233.519 416.574C233.663 416.574 233.795 416.558 233.915 416.526C234.043 416.486 234.151 416.43 234.239 416.358C234.335 416.286 234.407 416.202 234.455 416.106C234.503 416.002 234.527 415.89 234.527 415.77C234.527 415.562 234.451 415.394 234.299 415.266C234.219 415.21 234.091 415.15 233.915 415.086C233.747 415.014 233.527 414.942 233.255 414.87C232.791 414.75 232.411 414.614 232.115 414.462C231.819 414.31 231.591 414.138 231.431 413.946C231.311 413.794 231.223 413.63 231.167 413.454C231.111 413.27 231.083 413.07 231.083 412.854C231.083 412.59 231.139 412.35 231.251 412.134C231.371 411.91 231.531 411.718 231.731 411.558C231.939 411.39 232.179 411.262 232.451 411.174C232.731 411.086 233.027 411.042 233.339 411.042C233.635 411.042 233.927 411.082 234.215 411.162C234.511 411.242 234.783 411.358 235.031 411.51C235.279 411.662 235.487 411.842 235.655 412.05L234.947 412.83C234.795 412.678 234.627 412.546 234.443 412.434C234.267 412.314 234.087 412.222 233.903 412.158C233.719 412.094 233.551 412.062 233.399 412.062C233.231 412.062 233.079 412.078 232.943 412.11C232.807 412.142 232.691 412.19 232.595 412.254C232.507 412.318 232.439 412.398 232.391 412.494C232.343 412.59 232.319 412.698 232.319 412.818C232.327 412.922 232.351 413.022 232.391 413.118C232.439 413.206 232.503 413.282 232.583 413.346C232.671 413.41 232.803 413.478 232.979 413.55C233.155 413.622 233.379 413.69 233.651 413.754C234.051 413.858 234.379 413.974 234.635 414.102C234.899 414.222 235.107 414.362 235.259 414.522C235.419 414.674 235.531 414.85 235.595 415.05C235.659 415.25 235.691 415.474 235.691 415.722C235.691 416.082 235.587 416.406 235.379 416.694C235.179 416.974 234.907 417.194 234.563 417.354C234.219 417.514 233.835 417.594 233.411 417.594ZM241.101 417.474V410.466C241.101 410.106 241.181 409.786 241.341 409.506C241.501 409.226 241.721 409.006 242.001 408.846C242.281 408.686 242.605 408.606 242.973 408.606C243.229 408.606 243.469 408.654 243.693 408.75C243.917 408.846 244.097 408.974 244.233 409.134L243.813 410.082C243.709 409.986 243.593 409.91 243.465 409.854C243.345 409.79 243.229 409.758 243.117 409.758C242.949 409.758 242.805 409.786 242.685 409.842C242.573 409.89 242.489 409.97 242.433 410.082C242.377 410.186 242.349 410.314 242.349 410.466V417.474H241.725C241.621 417.474 241.517 417.474 241.413 417.474C241.309 417.474 241.205 417.474 241.101 417.474ZM240.093 412.422V411.282H243.837V412.422H240.093ZM247.725 417.594C247.109 417.594 246.557 417.454 246.069 417.174C245.589 416.886 245.209 416.498 244.929 416.01C244.649 415.514 244.509 414.95 244.509 414.318C244.509 413.686 244.649 413.126 244.929 412.638C245.209 412.142 245.589 411.754 246.069 411.474C246.557 411.186 247.109 411.042 247.725 411.042C248.333 411.042 248.877 411.186 249.357 411.474C249.845 411.754 250.229 412.142 250.509 412.638C250.789 413.126 250.929 413.686 250.929 414.318C250.929 414.95 250.789 415.514 250.509 416.01C250.229 416.498 249.845 416.886 249.357 417.174C248.877 417.454 248.333 417.594 247.725 417.594ZM247.725 416.466C248.101 416.466 248.437 416.374 248.733 416.19C249.029 415.998 249.261 415.742 249.429 415.422C249.597 415.094 249.677 414.726 249.669 414.318C249.677 413.902 249.597 413.534 249.429 413.214C249.261 412.886 249.029 412.63 248.733 412.446C248.437 412.262 248.101 412.17 247.725 412.17C247.349 412.17 247.009 412.266 246.705 412.458C246.409 412.642 246.177 412.898 246.009 413.226C245.841 413.546 245.761 413.91 245.769 414.318C245.761 414.726 245.841 415.094 246.009 415.422C246.177 415.742 246.409 415.998 246.705 416.19C247.009 416.374 247.349 416.466 247.725 416.466ZM252.276 417.474V411.174H253.524V413.154L253.404 412.674C253.492 412.37 253.64 412.094 253.848 411.846C254.064 411.598 254.308 411.402 254.58 411.258C254.86 411.114 255.148 411.042 255.444 411.042C255.58 411.042 255.708 411.054 255.828 411.078C255.956 411.102 256.056 411.13 256.128 411.162L255.804 412.506C255.708 412.466 255.6 412.434 255.48 412.41C255.368 412.378 255.256 412.362 255.144 412.362C254.928 412.362 254.72 412.406 254.52 412.494C254.328 412.574 254.156 412.69 254.004 412.842C253.86 412.986 253.744 413.158 253.656 413.358C253.568 413.55 253.524 413.762 253.524 413.994V417.474H252.276ZM261.259 417.474V409.566H262.495V417.474H261.259ZM259.951 412.374V411.174H263.959V412.374H259.951ZM265.085 417.474V408.594H266.321V412.47L266.105 412.614C266.185 412.334 266.341 412.078 266.573 411.846C266.805 411.606 267.081 411.414 267.401 411.27C267.721 411.118 268.049 411.042 268.385 411.042C268.865 411.042 269.265 411.138 269.585 411.33C269.905 411.514 270.145 411.798 270.305 412.182C270.465 412.566 270.545 413.05 270.545 413.634V417.474H269.309V413.718C269.309 413.358 269.261 413.062 269.165 412.83C269.069 412.59 268.921 412.418 268.721 412.314C268.521 412.202 268.273 412.154 267.977 412.17C267.737 412.17 267.517 412.21 267.317 412.29C267.117 412.362 266.941 412.466 266.789 412.602C266.645 412.738 266.529 412.898 266.441 413.082C266.361 413.258 266.321 413.45 266.321 413.658V417.474H265.709C265.605 417.474 265.501 417.474 265.397 417.474C265.293 417.474 265.189 417.474 265.085 417.474ZM272.425 417.474V411.174H273.661V417.474H272.425ZM273.025 409.782C272.761 409.782 272.557 409.714 272.413 409.578C272.269 409.442 272.197 409.25 272.197 409.002C272.197 408.77 272.269 408.582 272.413 408.438C272.565 408.294 272.769 408.222 273.025 408.222C273.289 408.222 273.493 408.29 273.637 408.426C273.781 408.562 273.853 408.754 273.853 409.002C273.853 409.234 273.777 409.422 273.625 409.566C273.481 409.71 273.281 409.782 273.025 409.782ZM277.661 417.594C277.133 417.594 276.657 417.502 276.233 417.318C275.809 417.134 275.457 416.862 275.177 416.502L276.017 415.782C276.257 416.062 276.517 416.266 276.797 416.394C277.085 416.514 277.409 416.574 277.769 416.574C277.913 416.574 278.045 416.558 278.165 416.526C278.293 416.486 278.401 416.43 278.489 416.358C278.585 416.286 278.657 416.202 278.705 416.106C278.753 416.002 278.777 415.89 278.777 415.77C278.777 415.562 278.701 415.394 278.549 415.266C278.469 415.21 278.341 415.15 278.165 415.086C277.997 415.014 277.777 414.942 277.505 414.87C277.041 414.75 276.661 414.614 276.365 414.462C276.069 414.31 275.841 414.138 275.681 413.946C275.561 413.794 275.473 413.63 275.417 413.454C275.361 413.27 275.333 413.07 275.333 412.854C275.333 412.59 275.389 412.35 275.501 412.134C275.621 411.91 275.781 411.718 275.981 411.558C276.189 411.39 276.429 411.262 276.701 411.174C276.981 411.086 277.277 411.042 277.589 411.042C277.885 411.042 278.177 411.082 278.465 411.162C278.761 411.242 279.033 411.358 279.281 411.51C279.529 411.662 279.737 411.842 279.905 412.05L279.197 412.83C279.045 412.678 278.877 412.546 278.693 412.434C278.517 412.314 278.337 412.222 278.153 412.158C277.969 412.094 277.801 412.062 277.649 412.062C277.481 412.062 277.329 412.078 277.193 412.11C277.057 412.142 276.941 412.19 276.845 412.254C276.757 412.318 276.689 412.398 276.641 412.494C276.593 412.59 276.569 412.698 276.569 412.818C276.577 412.922 276.601 413.022 276.641 413.118C276.689 413.206 276.753 413.282 276.833 413.346C276.921 413.41 277.053 413.478 277.229 413.55C277.405 413.622 277.629 413.69 277.901 413.754C278.301 413.858 278.629 413.974 278.885 414.102C279.149 414.222 279.357 414.362 279.509 414.522C279.669 414.674 279.781 414.85 279.845 415.05C279.909 415.25 279.941 415.474 279.941 415.722C279.941 416.082 279.837 416.406 279.629 416.694C279.429 416.974 279.157 417.194 278.813 417.354C278.469 417.514 278.085 417.594 277.661 417.594ZM284.979 417.474V409.074H288.399C288.855 409.074 289.267 409.19 289.635 409.422C290.011 409.646 290.311 409.954 290.535 410.346C290.759 410.738 290.871 411.174 290.871 411.654C290.871 412.134 290.759 412.57 290.535 412.962C290.311 413.354 290.011 413.67 289.635 413.91C289.267 414.142 288.855 414.258 288.399 414.258H286.275V417.474H284.979ZM286.275 413.01H288.375C288.591 413.01 288.787 412.95 288.963 412.83C289.139 412.702 289.279 412.538 289.383 412.338C289.495 412.13 289.551 411.902 289.551 411.654C289.551 411.406 289.495 411.182 289.383 410.982C289.279 410.782 289.139 410.622 288.963 410.502C288.787 410.382 288.591 410.322 288.375 410.322H286.275V413.01ZM292.296 417.474V408.594H293.532V417.474H292.296ZM297.591 417.594C297.071 417.594 296.595 417.45 296.163 417.162C295.739 416.874 295.399 416.482 295.143 415.986C294.887 415.49 294.759 414.93 294.759 414.306C294.759 413.674 294.887 413.114 295.143 412.626C295.407 412.13 295.759 411.742 296.199 411.462C296.647 411.182 297.147 411.042 297.699 411.042C298.027 411.042 298.327 411.09 298.599 411.186C298.871 411.282 299.107 411.418 299.307 411.594C299.515 411.762 299.683 411.958 299.811 412.182C299.947 412.406 300.031 412.646 300.063 412.902L299.787 412.806V411.174H301.035V417.474H299.787V415.974L300.075 415.89C300.027 416.106 299.927 416.318 299.775 416.526C299.631 416.726 299.443 416.906 299.211 417.066C298.987 417.226 298.735 417.354 298.455 417.45C298.183 417.546 297.895 417.594 297.591 417.594ZM297.915 416.454C298.291 416.454 298.623 416.362 298.911 416.178C299.199 415.994 299.423 415.742 299.583 415.422C299.751 415.094 299.835 414.722 299.835 414.306C299.835 413.898 299.751 413.534 299.583 413.214C299.423 412.894 299.199 412.642 298.911 412.458C298.623 412.274 298.291 412.182 297.915 412.182C297.547 412.182 297.219 412.274 296.931 412.458C296.651 412.642 296.427 412.894 296.259 413.214C296.099 413.534 296.019 413.898 296.019 414.306C296.019 414.722 296.099 415.094 296.259 415.422C296.427 415.742 296.651 415.994 296.931 416.178C297.219 416.362 297.547 416.454 297.915 416.454ZM305.436 417.594C304.852 417.594 304.328 417.45 303.864 417.162C303.408 416.874 303.044 416.482 302.772 415.986C302.508 415.49 302.376 414.934 302.376 414.318C302.376 413.702 302.508 413.146 302.772 412.65C303.044 412.154 303.408 411.762 303.864 411.474C304.328 411.186 304.852 411.042 305.436 411.042C305.996 411.042 306.504 411.158 306.96 411.39C307.424 411.614 307.776 411.922 308.016 412.314L307.332 413.154C307.204 412.97 307.04 412.802 306.84 412.65C306.64 412.498 306.428 412.378 306.204 412.29C305.98 412.202 305.764 412.158 305.556 412.158C305.172 412.158 304.828 412.254 304.524 412.446C304.228 412.63 303.992 412.886 303.816 413.214C303.64 413.542 303.552 413.91 303.552 414.318C303.552 414.726 303.644 415.094 303.828 415.422C304.012 415.742 304.256 415.998 304.56 416.19C304.864 416.382 305.2 416.478 305.568 416.478C305.784 416.478 305.992 416.442 306.192 416.37C306.4 416.298 306.6 416.19 306.792 416.046C306.984 415.902 307.164 415.726 307.332 415.518L308.016 416.358C307.76 416.718 307.392 417.014 306.912 417.246C306.44 417.478 305.948 417.594 305.436 417.594ZM312.122 417.594C311.474 417.594 310.898 417.458 310.394 417.186C309.898 416.906 309.506 416.526 309.218 416.046C308.938 415.566 308.798 415.014 308.798 414.39C308.798 413.894 308.878 413.442 309.038 413.034C309.198 412.626 309.418 412.274 309.698 411.978C309.986 411.674 310.326 411.442 310.718 411.282C311.118 411.114 311.55 411.03 312.014 411.03C312.422 411.03 312.802 411.11 313.154 411.27C313.506 411.422 313.81 411.634 314.066 411.906C314.33 412.178 314.53 412.502 314.666 412.878C314.81 413.246 314.878 413.65 314.87 414.09L314.858 414.618H309.71L309.434 413.634H313.79L313.61 413.838V413.55C313.586 413.286 313.498 413.05 313.346 412.842C313.194 412.634 313.002 412.47 312.77 412.35C312.538 412.23 312.286 412.17 312.014 412.17C311.582 412.17 311.218 412.254 310.922 412.422C310.626 412.582 310.402 412.822 310.25 413.142C310.098 413.454 310.022 413.842 310.022 414.306C310.022 414.746 310.114 415.13 310.298 415.458C310.482 415.778 310.742 416.026 311.078 416.202C311.414 416.378 311.802 416.466 312.242 416.466C312.554 416.466 312.842 416.414 313.106 416.31C313.378 416.206 313.67 416.018 313.982 415.746L314.606 416.622C314.414 416.814 314.178 416.982 313.898 417.126C313.626 417.27 313.334 417.386 313.022 417.474C312.718 417.554 312.418 417.594 312.122 417.594Z" fill="white"/>
<path d="M104.172 415.725L102.145 413.988C102.082 413.935 102.033 413.871 101.999 413.801C101.965 413.73 101.947 413.655 101.947 413.579C101.947 413.503 101.965 413.428 101.999 413.358C102.033 413.287 102.082 413.224 102.145 413.17C102.208 413.116 102.282 413.073 102.364 413.044C102.446 413.015 102.534 413 102.623 413C102.711 413 102.799 413.015 102.881 413.044C102.963 413.073 103.038 413.116 103.1 413.17L104.611 414.464L108.865 410.307C108.922 410.25 108.993 410.202 109.072 410.168C109.151 410.134 109.237 410.113 109.325 410.107C109.414 410.101 109.503 410.11 109.587 410.134C109.671 410.157 109.749 410.195 109.817 410.244C109.884 410.294 109.939 410.354 109.979 410.422C110.02 410.49 110.044 410.563 110.051 410.639C110.057 410.715 110.047 410.791 110.019 410.863C109.992 410.936 109.948 411.002 109.89 411.06L105.162 415.692C105.101 415.752 105.027 415.802 104.943 415.837C104.86 415.871 104.768 415.891 104.675 415.894C104.582 415.897 104.49 415.883 104.403 415.854C104.317 415.825 104.238 415.781 104.172 415.725Z" fill="white"/>
</g>
<defs>
<clipPath id="clip0_154_1515">
<rect width="480" height="540" fill="white"/>
</clipPath>
</defs>
</svg>
