<svg width="480" height="540" viewBox="0 0 480 540" fill="none" xmlns="http://www.w3.org/2000/svg">
<rect x="68.5" y="76.5" width="344" height="387" rx="23.5" fill="white" stroke="#DFDFDF"/>
<path fill-rule="evenodd" clip-rule="evenodd" d="M333.843 271.121C333.843 257.774 327.378 247.243 315.022 247.243C302.613 247.243 295.105 257.774 295.105 271.017C295.105 286.709 303.969 294.634 316.69 294.634C322.894 294.634 327.587 293.226 331.132 291.245V280.818C327.587 282.591 323.52 283.685 318.358 283.685C313.301 283.685 308.817 281.913 308.244 275.761H333.739C333.739 275.083 333.843 272.372 333.843 271.121ZM308.088 266.168C308.088 260.277 311.685 257.827 314.97 257.827C318.15 257.827 321.539 260.277 321.539 266.168H308.088Z" fill="#635BFF"/>
<path fill-rule="evenodd" clip-rule="evenodd" d="M274.984 247.243C269.874 247.243 266.59 249.641 264.765 251.31L264.087 248.077H252.617V308.867L265.651 306.103L265.703 291.349C267.58 292.705 270.344 294.634 274.932 294.634C284.264 294.634 292.762 287.126 292.762 270.6C292.71 255.48 284.108 247.243 274.984 247.243ZM271.856 283.164C268.78 283.164 266.955 282.069 265.703 280.714L265.651 261.372C267.007 259.86 268.884 258.817 271.856 258.817C276.6 258.817 279.885 264.135 279.885 270.965C279.885 277.951 276.652 283.164 271.856 283.164Z" fill="#635BFF"/>
<path fill-rule="evenodd" clip-rule="evenodd" d="M234.68 244.167L247.766 241.352V230.769L234.68 233.532V244.167Z" fill="#635BFF"/>
<path d="M247.766 248.129H234.68V293.747H247.766V248.129Z" fill="#635BFF"/>
<path fill-rule="evenodd" clip-rule="evenodd" d="M220.654 251.987L219.82 248.129H208.559V293.747H221.593V262.831C224.669 258.817 229.883 259.547 231.499 260.12V248.129C229.83 247.504 223.73 246.357 220.654 251.987Z" fill="#635BFF"/>
<path fill-rule="evenodd" clip-rule="evenodd" d="M194.586 236.816L181.865 239.527L181.812 281.287C181.812 289.003 187.6 294.686 195.316 294.686C199.591 294.686 202.719 293.904 204.44 292.965V282.382C202.771 283.06 194.534 285.458 194.534 277.742V259.234H204.44V248.129H194.534L194.586 236.816Z" fill="#635BFF"/>
<path fill-rule="evenodd" clip-rule="evenodd" d="M159.343 261.372C159.343 259.338 161.011 258.556 163.775 258.556C167.737 258.556 172.742 259.756 176.704 261.893V249.641C172.377 247.921 168.102 247.243 163.775 247.243C153.191 247.243 146.152 252.769 146.152 261.997C146.152 276.387 165.964 274.093 165.964 280.297C165.964 282.695 163.879 283.477 160.959 283.477C156.632 283.477 151.105 281.704 146.726 279.306V291.714C151.575 293.8 156.475 294.686 160.959 294.686C171.804 294.686 179.259 289.316 179.259 279.984C179.207 264.448 159.343 267.211 159.343 261.372Z" fill="#635BFF"/>
</svg>
