<svg width="480" height="540" viewBox="0 0 480 540" fill="none" xmlns="http://www.w3.org/2000/svg">
<g clip-path="url(#clip0_111_1092)">
<path d="M396 76H85C75.6112 76 68 83.6112 68 93V447C68 456.389 75.6112 464 85 464H396C405.389 464 413 456.389 413 447V93C413 83.6112 405.389 76 396 76Z" fill="#F1F5F7"/>
<path d="M84.911 121V106.3H87.725L95.852 117.283H95.264C95.208 116.849 95.159 116.429 95.117 116.023C95.075 115.603 95.033 115.183 94.991 114.763C94.963 114.329 94.935 113.888 94.907 113.44C94.893 112.978 94.879 112.495 94.865 111.991C94.851 111.473 94.844 110.913 94.844 110.311V106.3H97.931V121H95.075L86.78 109.912L87.578 109.933C87.648 110.661 87.704 111.284 87.746 111.802C87.802 112.306 87.844 112.747 87.872 113.125C87.914 113.503 87.942 113.832 87.956 114.112C87.97 114.392 87.977 114.658 87.977 114.91C87.991 115.162 87.998 115.428 87.998 115.708V121H84.911ZM106.599 121.21C105.395 121.21 104.338 120.965 103.428 120.475C102.532 119.985 101.832 119.313 101.328 118.459C100.838 117.605 100.593 116.625 100.593 115.519C100.593 114.651 100.733 113.86 101.013 113.146C101.293 112.432 101.685 111.816 102.189 111.298C102.693 110.766 103.288 110.36 103.974 110.08C104.674 109.786 105.43 109.639 106.242 109.639C106.998 109.639 107.698 109.779 108.342 110.059C108.986 110.339 109.539 110.731 110.001 111.235C110.477 111.725 110.841 112.313 111.093 112.999C111.345 113.671 111.457 114.399 111.429 115.183L111.408 116.107H102.483L102 114.28H108.951L108.615 114.658V114.196C108.587 113.818 108.461 113.482 108.237 113.188C108.027 112.88 107.754 112.642 107.418 112.474C107.082 112.292 106.704 112.201 106.284 112.201C105.668 112.201 105.143 112.32 104.709 112.558C104.289 112.796 103.967 113.146 103.743 113.608C103.519 114.07 103.407 114.63 103.407 115.288C103.407 115.96 103.547 116.541 103.827 117.031C104.121 117.521 104.527 117.906 105.045 118.186C105.577 118.452 106.2 118.585 106.914 118.585C107.404 118.585 107.852 118.508 108.258 118.354C108.664 118.2 109.098 117.934 109.56 117.556L110.988 119.551C110.582 119.915 110.134 120.223 109.644 120.475C109.154 120.713 108.65 120.895 108.132 121.021C107.614 121.147 107.103 121.21 106.599 121.21ZM115.969 121L112.252 109.891L115.36 109.87L117.628 117.451L117.166 117.388L119.665 111.487H121.429L124.033 117.409L123.529 117.451L125.797 109.891H128.905L125.125 121H122.962L120.337 114.679L120.673 114.721L118.111 121H115.969ZM140.641 121V109.135H136.357V106.3H148.201V109.135H143.791V121H140.641ZM152.449 121.21C151.525 121.21 150.692 120.958 149.95 120.454C149.208 119.95 148.62 119.264 148.186 118.396C147.752 117.528 147.535 116.534 147.535 115.414C147.535 114.294 147.752 113.3 148.186 112.432C148.634 111.564 149.236 110.885 149.992 110.395C150.748 109.905 151.609 109.66 152.575 109.66C153.121 109.66 153.618 109.744 154.066 109.912C154.528 110.066 154.927 110.283 155.263 110.563C155.613 110.843 155.907 111.165 156.145 111.529C156.383 111.893 156.551 112.285 156.649 112.705L156.019 112.6V109.891H158.98V121H155.977V118.333L156.649 118.27C156.537 118.662 156.355 119.033 156.103 119.383C155.851 119.733 155.536 120.048 155.158 120.328C154.794 120.594 154.381 120.811 153.919 120.979C153.457 121.133 152.967 121.21 152.449 121.21ZM153.268 118.627C153.828 118.627 154.318 118.494 154.738 118.228C155.158 117.962 155.48 117.591 155.704 117.115C155.942 116.625 156.061 116.058 156.061 115.414C156.061 114.784 155.942 114.231 155.704 113.755C155.48 113.279 155.158 112.908 154.738 112.642C154.318 112.362 153.828 112.222 153.268 112.222C152.722 112.222 152.239 112.362 151.819 112.642C151.413 112.908 151.091 113.279 150.853 113.755C150.615 114.231 150.496 114.784 150.496 115.414C150.496 116.058 150.615 116.625 150.853 117.115C151.091 117.591 151.413 117.962 151.819 118.228C152.239 118.494 152.722 118.627 153.268 118.627ZM168.984 121L166.233 117.073L165.393 115.897L160.899 109.891H164.511L167.199 113.692L168.123 114.931L172.554 121H168.984ZM160.857 121L165.288 114.931L166.926 116.884L164.364 121H160.857ZM167.997 116.002L166.401 114.049L168.774 109.891H172.281L167.997 116.002ZM181.257 121V106.3H187.494C188.376 106.3 189.167 106.51 189.867 106.93C190.567 107.336 191.12 107.896 191.526 108.61C191.946 109.324 192.156 110.129 192.156 111.025C192.156 111.935 191.946 112.754 191.526 113.482C191.12 114.21 190.567 114.791 189.867 115.225C189.167 115.645 188.376 115.855 187.494 115.855H184.407V121H181.257ZM184.365 113.02H187.137C187.473 113.02 187.774 112.936 188.04 112.768C188.306 112.586 188.516 112.348 188.67 112.054C188.838 111.76 188.922 111.424 188.922 111.046C188.922 110.668 188.838 110.339 188.67 110.059C188.516 109.779 188.306 109.555 188.04 109.387C187.774 109.219 187.473 109.135 187.137 109.135H184.365V113.02ZM194.556 121V109.891H197.433L197.538 113.461L197.034 112.726C197.202 112.152 197.475 111.634 197.853 111.172C198.231 110.696 198.672 110.325 199.176 110.059C199.694 109.793 200.233 109.66 200.793 109.66C201.031 109.66 201.262 109.681 201.486 109.723C201.71 109.765 201.899 109.814 202.053 109.87L201.255 113.146C201.101 113.062 200.898 112.992 200.646 112.936C200.408 112.866 200.163 112.831 199.911 112.831C199.575 112.831 199.26 112.894 198.966 113.02C198.686 113.132 198.441 113.3 198.231 113.524C198.021 113.734 197.853 113.986 197.727 114.28C197.615 114.574 197.559 114.896 197.559 115.246V121H194.556ZM208.459 121.21C207.325 121.21 206.31 120.965 205.414 120.475C204.532 119.971 203.832 119.285 203.314 118.417C202.81 117.549 202.558 116.555 202.558 115.435C202.558 114.315 202.81 113.321 203.314 112.453C203.832 111.585 204.532 110.906 205.414 110.416C206.31 109.912 207.325 109.66 208.459 109.66C209.579 109.66 210.58 109.912 211.462 110.416C212.358 110.906 213.058 111.585 213.562 112.453C214.066 113.321 214.318 114.315 214.318 115.435C214.318 116.555 214.066 117.549 213.562 118.417C213.058 119.285 212.358 119.971 211.462 120.475C210.58 120.965 209.579 121.21 208.459 121.21ZM208.459 118.606C209.005 118.606 209.495 118.473 209.929 118.207C210.363 117.927 210.699 117.549 210.937 117.073C211.189 116.583 211.308 116.037 211.294 115.435C211.308 114.819 211.189 114.273 210.937 113.797C210.699 113.307 210.363 112.929 209.929 112.663C209.495 112.383 209.005 112.243 208.459 112.243C207.899 112.243 207.402 112.383 206.968 112.663C206.534 112.943 206.191 113.321 205.939 113.797C205.687 114.273 205.568 114.819 205.582 115.435C205.568 116.037 205.687 116.583 205.939 117.073C206.191 117.549 206.534 117.927 206.968 118.207C207.402 118.473 207.899 118.606 208.459 118.606ZM217.033 121V109.114C217.033 108.428 217.187 107.805 217.495 107.245C217.803 106.685 218.223 106.244 218.755 105.922C219.301 105.6 219.938 105.439 220.666 105.439C221.156 105.439 221.618 105.523 222.052 105.691C222.486 105.845 222.857 106.055 223.165 106.321L222.283 108.526C222.101 108.414 221.912 108.323 221.716 108.253C221.534 108.169 221.366 108.127 221.212 108.127C220.946 108.127 220.722 108.176 220.54 108.274C220.372 108.358 220.246 108.491 220.162 108.673C220.078 108.841 220.036 109.058 220.036 109.324V121H218.545C218.223 121 217.936 121 217.684 121C217.432 121 217.215 121 217.033 121ZM215.374 112.684V110.164H222.43V112.684H215.374ZM224.677 121V109.891H227.659V121H224.677ZM226.147 107.623C225.573 107.623 225.125 107.483 224.803 107.203C224.481 106.909 224.32 106.503 224.32 105.985C224.32 105.509 224.481 105.124 224.803 104.83C225.139 104.522 225.587 104.368 226.147 104.368C226.721 104.368 227.169 104.515 227.491 104.809C227.813 105.089 227.974 105.481 227.974 105.985C227.974 106.461 227.806 106.853 227.47 107.161C227.148 107.469 226.707 107.623 226.147 107.623ZM230.876 121V105.46H233.858V121H230.876ZM241.95 121.21C240.746 121.21 239.689 120.965 238.779 120.475C237.883 119.985 237.183 119.313 236.679 118.459C236.189 117.605 235.944 116.625 235.944 115.519C235.944 114.651 236.084 113.86 236.364 113.146C236.644 112.432 237.036 111.816 237.54 111.298C238.044 110.766 238.639 110.36 239.325 110.08C240.025 109.786 240.781 109.639 241.593 109.639C242.349 109.639 243.049 109.779 243.693 110.059C244.337 110.339 244.89 110.731 245.352 111.235C245.828 111.725 246.192 112.313 246.444 112.999C246.696 113.671 246.808 114.399 246.78 115.183L246.759 116.107H237.834L237.351 114.28H244.302L243.966 114.658V114.196C243.938 113.818 243.812 113.482 243.588 113.188C243.378 112.88 243.105 112.642 242.769 112.474C242.433 112.292 242.055 112.201 241.635 112.201C241.019 112.201 240.494 112.32 240.06 112.558C239.64 112.796 239.318 113.146 239.094 113.608C238.87 114.07 238.758 114.63 238.758 115.288C238.758 115.96 238.898 116.541 239.178 117.031C239.472 117.521 239.878 117.906 240.396 118.186C240.928 118.452 241.551 118.585 242.265 118.585C242.755 118.585 243.203 118.508 243.609 118.354C244.015 118.2 244.449 117.934 244.911 117.556L246.339 119.551C245.933 119.915 245.485 120.223 244.995 120.475C244.505 120.713 244.001 120.895 243.483 121.021C242.965 121.147 242.454 121.21 241.95 121.21Z" fill="black"/>
<rect x="83" y="147" width="154" height="62" rx="9" fill="white"/>
<rect x="244" y="147" width="154" height="62" rx="9" fill="white"/>
<path d="M93.98 167V160H94.95L99.23 165.73L99.07 165.82C99.0433 165.653 99.02 165.473 99 165.28C98.98 165.08 98.96 164.87 98.94 164.65C98.9267 164.423 98.9133 164.187 98.9 163.94C98.8933 163.687 98.8867 163.423 98.88 163.15C98.8733 162.877 98.87 162.593 98.87 162.3V160H99.95V167H98.96L94.75 161.48L94.86 161.34C94.8933 161.747 94.92 162.093 94.94 162.38C94.9667 162.66 94.9867 162.9 95 163.1C95.02 163.293 95.0333 163.453 95.04 163.58C95.0467 163.7 95.05 163.8 95.05 163.88C95.0567 163.96 95.06 164.03 95.06 164.09V167H93.98ZM103.67 167.1C103.236 167.1 102.84 166.98 102.48 166.74C102.126 166.5 101.843 166.173 101.63 165.76C101.416 165.347 101.31 164.88 101.31 164.36C101.31 163.833 101.416 163.367 101.63 162.96C101.85 162.547 102.143 162.223 102.51 161.99C102.883 161.757 103.3 161.64 103.76 161.64C104.033 161.64 104.283 161.68 104.51 161.76C104.736 161.84 104.933 161.953 105.1 162.1C105.273 162.24 105.413 162.403 105.52 162.59C105.633 162.777 105.703 162.977 105.73 163.19L105.5 163.11V161.75H106.54V167H105.5V165.75L105.74 165.68C105.7 165.86 105.616 166.037 105.49 166.21C105.37 166.377 105.213 166.527 105.02 166.66C104.833 166.793 104.623 166.9 104.39 166.98C104.163 167.06 103.923 167.1 103.67 167.1ZM103.94 166.15C104.253 166.15 104.53 166.073 104.77 165.92C105.01 165.767 105.196 165.557 105.33 165.29C105.47 165.017 105.54 164.707 105.54 164.36C105.54 164.02 105.47 163.717 105.33 163.45C105.196 163.183 105.01 162.973 104.77 162.82C104.53 162.667 104.253 162.59 103.94 162.59C103.633 162.59 103.36 162.667 103.12 162.82C102.886 162.973 102.7 163.183 102.56 163.45C102.426 163.717 102.36 164.02 102.36 164.36C102.36 164.707 102.426 165.017 102.56 165.29C102.7 165.557 102.886 165.767 103.12 165.92C103.36 166.073 103.633 166.15 103.94 166.15ZM107.958 167V161.75H108.998V162.87L108.808 162.99C108.861 162.817 108.944 162.65 109.058 162.49C109.178 162.33 109.321 162.19 109.488 162.07C109.661 161.943 109.844 161.843 110.038 161.77C110.238 161.697 110.441 161.66 110.648 161.66C110.948 161.66 111.211 161.71 111.438 161.81C111.664 161.91 111.851 162.06 111.998 162.26C112.144 162.46 112.251 162.71 112.318 163.01L112.158 162.97L112.228 162.8C112.301 162.647 112.401 162.503 112.528 162.37C112.661 162.23 112.811 162.107 112.978 162C113.144 161.893 113.321 161.81 113.508 161.75C113.694 161.69 113.878 161.66 114.058 161.66C114.451 161.66 114.774 161.74 115.028 161.9C115.288 162.06 115.481 162.303 115.608 162.63C115.741 162.957 115.808 163.363 115.808 163.85V167H114.768V163.91C114.768 163.61 114.728 163.367 114.648 163.18C114.574 162.987 114.461 162.843 114.308 162.75C114.154 162.657 113.958 162.61 113.718 162.61C113.531 162.61 113.354 162.643 113.188 162.71C113.028 162.77 112.888 162.857 112.768 162.97C112.648 163.083 112.554 163.217 112.488 163.37C112.421 163.517 112.388 163.68 112.388 163.86V167H111.348V163.89C111.348 163.617 111.308 163.387 111.228 163.2C111.148 163.007 111.031 162.86 110.878 162.76C110.724 162.66 110.538 162.61 110.318 162.61C110.131 162.61 109.958 162.643 109.798 162.71C109.638 162.77 109.498 162.857 109.378 162.97C109.258 163.077 109.164 163.207 109.098 163.36C109.031 163.507 108.998 163.667 108.998 163.84V167H107.958ZM119.637 167.1C119.097 167.1 118.617 166.987 118.197 166.76C117.783 166.527 117.457 166.21 117.217 165.81C116.983 165.41 116.867 164.95 116.867 164.43C116.867 164.017 116.933 163.64 117.067 163.3C117.2 162.96 117.383 162.667 117.617 162.42C117.857 162.167 118.14 161.973 118.467 161.84C118.8 161.7 119.16 161.63 119.547 161.63C119.887 161.63 120.203 161.697 120.497 161.83C120.79 161.957 121.043 162.133 121.257 162.36C121.477 162.587 121.643 162.857 121.757 163.17C121.877 163.477 121.933 163.813 121.927 164.18L121.917 164.62H117.627L117.397 163.8H121.027L120.877 163.97V163.73C120.857 163.51 120.783 163.313 120.657 163.14C120.53 162.967 120.37 162.83 120.177 162.73C119.983 162.63 119.773 162.58 119.547 162.58C119.187 162.58 118.883 162.65 118.637 162.79C118.39 162.923 118.203 163.123 118.077 163.39C117.95 163.65 117.887 163.973 117.887 164.36C117.887 164.727 117.963 165.047 118.117 165.32C118.27 165.587 118.487 165.793 118.767 165.94C119.047 166.087 119.37 166.16 119.737 166.16C119.997 166.16 120.237 166.117 120.457 166.03C120.683 165.943 120.927 165.787 121.187 165.56L121.707 166.29C121.547 166.45 121.35 166.59 121.117 166.71C120.89 166.83 120.647 166.927 120.387 167C120.133 167.067 119.883 167.1 119.637 167.1Z" fill="#3B3B3B"/>
<path d="M254.98 167V160H257.83C258.21 160 258.553 160.097 258.86 160.29C259.173 160.477 259.423 160.733 259.61 161.06C259.797 161.387 259.89 161.75 259.89 162.15C259.89 162.55 259.797 162.913 259.61 163.24C259.423 163.567 259.173 163.83 258.86 164.03C258.553 164.223 258.21 164.32 257.83 164.32H256.06V167H254.98ZM256.06 163.28H257.81C257.99 163.28 258.153 163.23 258.3 163.13C258.447 163.023 258.563 162.887 258.65 162.72C258.743 162.547 258.79 162.357 258.79 162.15C258.79 161.943 258.743 161.757 258.65 161.59C258.563 161.423 258.447 161.29 258.3 161.19C258.153 161.09 257.99 161.04 257.81 161.04H256.06V163.28ZM263.41 167.1C262.87 167.1 262.39 166.987 261.97 166.76C261.557 166.527 261.23 166.21 260.99 165.81C260.757 165.41 260.64 164.95 260.64 164.43C260.64 164.017 260.707 163.64 260.84 163.3C260.974 162.96 261.157 162.667 261.39 162.42C261.63 162.167 261.914 161.973 262.24 161.84C262.574 161.7 262.934 161.63 263.32 161.63C263.66 161.63 263.977 161.697 264.27 161.83C264.564 161.957 264.817 162.133 265.03 162.36C265.25 162.587 265.417 162.857 265.53 163.17C265.65 163.477 265.707 163.813 265.7 164.18L265.69 164.62H261.4L261.17 163.8H264.8L264.65 163.97V163.73C264.63 163.51 264.557 163.313 264.43 163.14C264.304 162.967 264.144 162.83 263.95 162.73C263.757 162.63 263.547 162.58 263.32 162.58C262.96 162.58 262.657 162.65 262.41 162.79C262.164 162.923 261.977 163.123 261.85 163.39C261.724 163.65 261.66 163.973 261.66 164.36C261.66 164.727 261.737 165.047 261.89 165.32C262.044 165.587 262.26 165.793 262.54 165.94C262.82 166.087 263.144 166.16 263.51 166.16C263.77 166.16 264.01 166.117 264.23 166.03C264.457 165.943 264.7 165.787 264.96 165.56L265.48 166.29C265.32 166.45 265.124 166.59 264.89 166.71C264.664 166.83 264.42 166.927 264.16 167C263.907 167.067 263.657 167.1 263.41 167.1ZM266.82 167V161.75H267.86V163.4L267.76 163C267.833 162.747 267.956 162.517 268.13 162.31C268.31 162.103 268.513 161.94 268.74 161.82C268.973 161.7 269.213 161.64 269.46 161.64C269.573 161.64 269.68 161.65 269.78 161.67C269.886 161.69 269.97 161.713 270.03 161.74L269.76 162.86C269.68 162.827 269.59 162.8 269.49 162.78C269.396 162.753 269.303 162.74 269.21 162.74C269.03 162.74 268.856 162.777 268.69 162.85C268.53 162.917 268.386 163.013 268.26 163.14C268.14 163.26 268.043 163.403 267.97 163.57C267.896 163.73 267.86 163.907 267.86 164.1V167H266.82ZM272.858 167.1C272.372 167.1 271.935 166.98 271.548 166.74C271.168 166.5 270.865 166.173 270.638 165.76C270.418 165.347 270.308 164.883 270.308 164.37C270.308 163.857 270.418 163.393 270.638 162.98C270.865 162.567 271.168 162.24 271.548 162C271.935 161.76 272.372 161.64 272.858 161.64C273.325 161.64 273.748 161.737 274.128 161.93C274.515 162.117 274.808 162.373 275.008 162.7L274.438 163.4C274.332 163.247 274.195 163.107 274.028 162.98C273.862 162.853 273.685 162.753 273.498 162.68C273.312 162.607 273.132 162.57 272.958 162.57C272.638 162.57 272.352 162.65 272.098 162.81C271.852 162.963 271.655 163.177 271.508 163.45C271.362 163.723 271.288 164.03 271.288 164.37C271.288 164.71 271.365 165.017 271.518 165.29C271.672 165.557 271.875 165.77 272.128 165.93C272.382 166.09 272.662 166.17 272.968 166.17C273.148 166.17 273.322 166.14 273.488 166.08C273.662 166.02 273.828 165.93 273.988 165.81C274.148 165.69 274.298 165.543 274.438 165.37L275.008 166.07C274.795 166.37 274.488 166.617 274.088 166.81C273.695 167.003 273.285 167.1 272.858 167.1ZM278.43 167.1C277.89 167.1 277.41 166.987 276.99 166.76C276.576 166.527 276.25 166.21 276.01 165.81C275.776 165.41 275.66 164.95 275.66 164.43C275.66 164.017 275.726 163.64 275.86 163.3C275.993 162.96 276.176 162.667 276.41 162.42C276.65 162.167 276.933 161.973 277.26 161.84C277.593 161.7 277.953 161.63 278.34 161.63C278.68 161.63 278.996 161.697 279.29 161.83C279.583 161.957 279.836 162.133 280.05 162.36C280.27 162.587 280.436 162.857 280.55 163.17C280.67 163.477 280.726 163.813 280.72 164.18L280.71 164.62H276.42L276.19 163.8H279.82L279.67 163.97V163.73C279.65 163.51 279.576 163.313 279.45 163.14C279.323 162.967 279.163 162.83 278.97 162.73C278.776 162.63 278.566 162.58 278.34 162.58C277.98 162.58 277.676 162.65 277.43 162.79C277.183 162.923 276.996 163.123 276.87 163.39C276.743 163.65 276.68 163.973 276.68 164.36C276.68 164.727 276.756 165.047 276.91 165.32C277.063 165.587 277.28 165.793 277.56 165.94C277.84 166.087 278.163 166.16 278.53 166.16C278.79 166.16 279.03 166.117 279.25 166.03C279.476 165.943 279.72 165.787 279.98 165.56L280.5 166.29C280.34 166.45 280.143 166.59 279.91 166.71C279.683 166.83 279.44 166.927 279.18 167C278.926 167.067 278.676 167.1 278.43 167.1ZM281.839 167V161.75H282.869V162.83L282.689 162.95C282.756 162.717 282.886 162.503 283.079 162.31C283.272 162.11 283.502 161.95 283.769 161.83C284.036 161.703 284.309 161.64 284.589 161.64C284.989 161.64 285.322 161.72 285.589 161.88C285.856 162.033 286.056 162.27 286.189 162.59C286.322 162.91 286.389 163.313 286.389 163.8V167H285.359V163.87C285.359 163.57 285.319 163.323 285.239 163.13C285.159 162.93 285.036 162.787 284.869 162.7C284.702 162.607 284.496 162.567 284.249 162.58C284.049 162.58 283.866 162.613 283.699 162.68C283.532 162.74 283.386 162.827 283.259 162.94C283.139 163.053 283.042 163.187 282.969 163.34C282.902 163.487 282.869 163.647 282.869 163.82V167H282.359C282.272 167 282.186 167 282.099 167C282.012 167 281.926 167 281.839 167ZM288.436 167V160.41H289.466V167H288.436ZM287.346 162.75V161.75H290.686V162.75H287.346ZM293.595 167.1C293.162 167.1 292.765 166.98 292.405 166.74C292.052 166.5 291.769 166.173 291.555 165.76C291.342 165.347 291.235 164.88 291.235 164.36C291.235 163.833 291.342 163.367 291.555 162.96C291.775 162.547 292.069 162.223 292.435 161.99C292.809 161.757 293.225 161.64 293.685 161.64C293.959 161.64 294.209 161.68 294.435 161.76C294.662 161.84 294.859 161.953 295.025 162.1C295.199 162.24 295.339 162.403 295.445 162.59C295.559 162.777 295.629 162.977 295.655 163.19L295.425 163.11V161.75H296.465V167H295.425V165.75L295.665 165.68C295.625 165.86 295.542 166.037 295.415 166.21C295.295 166.377 295.139 166.527 294.945 166.66C294.759 166.793 294.549 166.9 294.315 166.98C294.089 167.06 293.849 167.1 293.595 167.1ZM293.865 166.15C294.179 166.15 294.455 166.073 294.695 165.92C294.935 165.767 295.122 165.557 295.255 165.29C295.395 165.017 295.465 164.707 295.465 164.36C295.465 164.02 295.395 163.717 295.255 163.45C295.122 163.183 294.935 162.973 294.695 162.82C294.455 162.667 294.179 162.59 293.865 162.59C293.559 162.59 293.285 162.667 293.045 162.82C292.812 162.973 292.625 163.183 292.485 163.45C292.352 163.717 292.285 164.02 292.285 164.36C292.285 164.707 292.352 165.017 292.485 165.29C292.625 165.557 292.812 165.767 293.045 165.92C293.285 166.073 293.559 166.15 293.865 166.15ZM300.254 169.3C299.88 169.3 299.507 169.24 299.134 169.12C298.767 169.007 298.47 168.857 298.244 168.67L298.624 167.87C298.757 167.97 298.914 168.057 299.094 168.13C299.274 168.21 299.464 168.27 299.664 168.31C299.864 168.357 300.06 168.38 300.254 168.38C300.62 168.38 300.927 168.32 301.174 168.2C301.42 168.08 301.607 167.903 301.734 167.67C301.86 167.437 301.924 167.147 301.924 166.8V165.79L302.034 165.86C302 166.067 301.89 166.267 301.704 166.46C301.524 166.647 301.297 166.8 301.024 166.92C300.75 167.04 300.47 167.1 300.184 167.1C299.684 167.1 299.237 166.983 298.844 166.75C298.457 166.51 298.15 166.187 297.924 165.78C297.697 165.367 297.584 164.897 297.584 164.37C297.584 163.843 297.694 163.377 297.914 162.97C298.14 162.557 298.447 162.233 298.834 162C299.227 161.76 299.667 161.64 300.154 161.64C300.354 161.64 300.547 161.667 300.734 161.72C300.92 161.767 301.094 161.837 301.254 161.93C301.414 162.017 301.557 162.113 301.684 162.22C301.81 162.327 301.914 162.44 301.994 162.56C302.074 162.68 302.124 162.793 302.144 162.9L301.924 162.98V161.75H302.954V166.68C302.954 167.1 302.89 167.47 302.764 167.79C302.644 168.117 302.467 168.39 302.234 168.61C302 168.837 301.717 169.007 301.384 169.12C301.05 169.24 300.674 169.3 300.254 169.3ZM300.294 166.15C300.62 166.15 300.91 166.073 301.164 165.92C301.417 165.767 301.614 165.557 301.754 165.29C301.894 165.023 301.964 164.717 301.964 164.37C301.964 164.023 301.89 163.717 301.744 163.45C301.604 163.177 301.407 162.963 301.154 162.81C300.907 162.657 300.62 162.58 300.294 162.58C299.974 162.58 299.687 162.66 299.434 162.82C299.187 162.973 298.99 163.187 298.844 163.46C298.704 163.727 298.634 164.03 298.634 164.37C298.634 164.71 298.704 165.017 298.844 165.29C298.99 165.557 299.187 165.767 299.434 165.92C299.687 166.073 299.974 166.15 300.294 166.15ZM306.848 167.1C306.308 167.1 305.828 166.987 305.408 166.76C304.994 166.527 304.668 166.21 304.428 165.81C304.194 165.41 304.078 164.95 304.078 164.43C304.078 164.017 304.144 163.64 304.278 163.3C304.411 162.96 304.594 162.667 304.828 162.42C305.068 162.167 305.351 161.973 305.678 161.84C306.011 161.7 306.371 161.63 306.758 161.63C307.098 161.63 307.414 161.697 307.708 161.83C308.001 161.957 308.254 162.133 308.468 162.36C308.688 162.587 308.854 162.857 308.968 163.17C309.088 163.477 309.144 163.813 309.138 164.18L309.128 164.62H304.838L304.608 163.8H308.238L308.088 163.97V163.73C308.068 163.51 307.994 163.313 307.868 163.14C307.741 162.967 307.581 162.83 307.388 162.73C307.194 162.63 306.984 162.58 306.758 162.58C306.398 162.58 306.094 162.65 305.848 162.79C305.601 162.923 305.414 163.123 305.288 163.39C305.161 163.65 305.098 163.973 305.098 164.36C305.098 164.727 305.174 165.047 305.328 165.32C305.481 165.587 305.698 165.793 305.978 165.94C306.258 166.087 306.581 166.16 306.948 166.16C307.208 166.16 307.448 166.117 307.668 166.03C307.894 165.943 308.138 165.787 308.398 165.56L308.918 166.29C308.758 166.45 308.561 166.59 308.328 166.71C308.101 166.83 307.858 166.927 307.598 167C307.344 167.067 307.094 167.1 306.848 167.1Z" fill="#3B3B3B"/>
<rect x="104" y="186" width="77" height="7" rx="3.5" fill="#E4E6EA"/>
<rect x="265" y="186" width="77" height="7" rx="3.5" fill="#E4E6EA"/>
<rect x="93.25" y="176.25" width="133.5" height="26.5" rx="3.75" stroke="#E4E6EA" stroke-width="0.5"/>
<rect x="254.25" y="176.25" width="133.5" height="26.5" rx="3.75" stroke="#E4E6EA" stroke-width="0.5"/>
<rect x="83" y="224" width="315" height="62" rx="9" fill="white"/>
<rect x="83" y="296" width="315" height="62" rx="9" fill="white"/>
<rect x="83" y="368" width="315" height="62" rx="9" fill="white"/>
<circle cx="113" cy="255" r="17" fill="#E4E6EA"/>
<circle cx="113" cy="327" r="17" fill="#E4E6EA"/>
<circle cx="113" cy="399" r="17" fill="#E4E6EA"/>
<path d="M150.568 261V249.8H157.624V251.464H152.296V259.336H157.624V261H150.568ZM151.352 256.088V254.424H156.744V256.088H151.352ZM165.564 261L162.844 257.464L162.604 257.16L159.068 252.6H161.148L163.82 256.088L164.092 256.44L167.58 261H165.564ZM159.084 261L162.396 256.68L163.372 257.848L161.036 261H159.084ZM164.188 256.936L163.276 255.784L165.34 252.6H167.292L164.188 256.936ZM168.965 264.52V252.6H170.629V254.52L170.373 254.376C170.437 254.056 170.618 253.752 170.917 253.464C171.215 253.165 171.578 252.925 172.005 252.744C172.442 252.552 172.89 252.456 173.349 252.456C174.106 252.456 174.778 252.643 175.365 253.016C175.951 253.389 176.415 253.901 176.757 254.552C177.098 255.203 177.269 255.949 177.269 256.792C177.269 257.624 177.098 258.371 176.757 259.032C176.426 259.683 175.967 260.2 175.381 260.584C174.794 260.957 174.133 261.144 173.397 261.144C172.906 261.144 172.431 261.048 171.973 260.856C171.514 260.653 171.125 260.397 170.805 260.088C170.485 259.779 170.287 259.459 170.213 259.128L170.629 258.904V264.52H168.965ZM173.125 259.624C173.615 259.624 174.053 259.501 174.437 259.256C174.821 259.011 175.125 258.675 175.349 258.248C175.573 257.821 175.685 257.336 175.685 256.792C175.685 256.248 175.573 255.768 175.349 255.352C175.135 254.925 174.837 254.589 174.453 254.344C174.069 254.099 173.626 253.976 173.125 253.976C172.623 253.976 172.181 254.099 171.797 254.344C171.413 254.579 171.109 254.909 170.885 255.336C170.661 255.763 170.549 256.248 170.549 256.792C170.549 257.336 170.661 257.821 170.885 258.248C171.109 258.675 171.413 259.011 171.797 259.256C172.181 259.501 172.623 259.624 173.125 259.624ZM182.978 261.16C182.114 261.16 181.346 260.979 180.674 260.616C180.013 260.243 179.49 259.736 179.106 259.096C178.733 258.456 178.546 257.72 178.546 256.888C178.546 256.227 178.653 255.624 178.866 255.08C179.08 254.536 179.373 254.067 179.746 253.672C180.13 253.267 180.584 252.957 181.106 252.744C181.64 252.52 182.216 252.408 182.834 252.408C183.378 252.408 183.885 252.515 184.354 252.728C184.824 252.931 185.229 253.213 185.57 253.576C185.922 253.939 186.189 254.371 186.37 254.872C186.562 255.363 186.653 255.901 186.642 256.488L186.626 257.192H179.762L179.394 255.88H185.202L184.962 256.152V255.768C184.93 255.416 184.813 255.101 184.61 254.824C184.408 254.547 184.152 254.328 183.842 254.168C183.533 254.008 183.197 253.928 182.834 253.928C182.258 253.928 181.773 254.04 181.378 254.264C180.984 254.477 180.685 254.797 180.482 255.224C180.28 255.64 180.178 256.157 180.178 256.776C180.178 257.363 180.301 257.875 180.546 258.312C180.792 258.739 181.138 259.069 181.586 259.304C182.034 259.539 182.552 259.656 183.138 259.656C183.554 259.656 183.938 259.587 184.29 259.448C184.653 259.309 185.042 259.059 185.458 258.696L186.29 259.864C186.034 260.12 185.72 260.344 185.346 260.536C184.984 260.728 184.594 260.883 184.178 261C183.773 261.107 183.373 261.16 182.978 261.16ZM188.433 261V252.6H190.081V254.328L189.793 254.52C189.9 254.147 190.108 253.805 190.417 253.496C190.727 253.176 191.095 252.92 191.521 252.728C191.948 252.525 192.385 252.424 192.833 252.424C193.473 252.424 194.007 252.552 194.433 252.808C194.86 253.053 195.18 253.432 195.393 253.944C195.607 254.456 195.713 255.101 195.713 255.88V261H194.065V255.992C194.065 255.512 194.001 255.117 193.873 254.808C193.745 254.488 193.548 254.259 193.281 254.12C193.015 253.971 192.684 253.907 192.289 253.928C191.969 253.928 191.676 253.981 191.409 254.088C191.143 254.184 190.908 254.323 190.705 254.504C190.513 254.685 190.359 254.899 190.241 255.144C190.135 255.379 190.081 255.635 190.081 255.912V261H189.265C189.127 261 188.988 261 188.849 261C188.711 261 188.572 261 188.433 261ZM200.749 261.16C200.045 261.16 199.41 261.037 198.845 260.792C198.28 260.547 197.81 260.184 197.437 259.704L198.557 258.744C198.877 259.117 199.224 259.389 199.597 259.56C199.981 259.72 200.413 259.8 200.893 259.8C201.085 259.8 201.261 259.779 201.421 259.736C201.592 259.683 201.736 259.608 201.853 259.512C201.981 259.416 202.077 259.304 202.141 259.176C202.205 259.037 202.237 258.888 202.237 258.728C202.237 258.451 202.136 258.227 201.933 258.056C201.826 257.981 201.656 257.901 201.421 257.816C201.197 257.72 200.904 257.624 200.541 257.528C199.922 257.368 199.416 257.187 199.021 256.984C198.626 256.781 198.322 256.552 198.109 256.296C197.949 256.093 197.832 255.875 197.757 255.64C197.682 255.395 197.645 255.128 197.645 254.84C197.645 254.488 197.72 254.168 197.869 253.88C198.029 253.581 198.242 253.325 198.509 253.112C198.786 252.888 199.106 252.717 199.469 252.6C199.842 252.483 200.237 252.424 200.653 252.424C201.048 252.424 201.437 252.477 201.821 252.584C202.216 252.691 202.578 252.845 202.909 253.048C203.24 253.251 203.517 253.491 203.741 253.768L202.797 254.808C202.594 254.605 202.37 254.429 202.125 254.28C201.89 254.12 201.65 253.997 201.405 253.912C201.16 253.827 200.936 253.784 200.733 253.784C200.509 253.784 200.306 253.805 200.125 253.848C199.944 253.891 199.789 253.955 199.661 254.04C199.544 254.125 199.453 254.232 199.389 254.36C199.325 254.488 199.293 254.632 199.293 254.792C199.304 254.931 199.336 255.064 199.389 255.192C199.453 255.309 199.538 255.411 199.645 255.496C199.762 255.581 199.938 255.672 200.173 255.768C200.408 255.864 200.706 255.955 201.069 256.04C201.602 256.179 202.04 256.333 202.381 256.504C202.733 256.664 203.01 256.851 203.213 257.064C203.426 257.267 203.576 257.501 203.661 257.768C203.746 258.035 203.789 258.333 203.789 258.664C203.789 259.144 203.65 259.576 203.373 259.96C203.106 260.333 202.744 260.627 202.285 260.84C201.826 261.053 201.314 261.16 200.749 261.16ZM209.525 261.16C208.661 261.16 207.893 260.979 207.221 260.616C206.56 260.243 206.037 259.736 205.653 259.096C205.28 258.456 205.093 257.72 205.093 256.888C205.093 256.227 205.2 255.624 205.413 255.08C205.626 254.536 205.92 254.067 206.293 253.672C206.677 253.267 207.13 252.957 207.653 252.744C208.186 252.52 208.762 252.408 209.381 252.408C209.925 252.408 210.432 252.515 210.901 252.728C211.37 252.931 211.776 253.213 212.117 253.576C212.469 253.939 212.736 254.371 212.917 254.872C213.109 255.363 213.2 255.901 213.189 256.488L213.173 257.192H206.309L205.941 255.88H211.749L211.509 256.152V255.768C211.477 255.416 211.36 255.101 211.157 254.824C210.954 254.547 210.698 254.328 210.389 254.168C210.08 254.008 209.744 253.928 209.381 253.928C208.805 253.928 208.32 254.04 207.925 254.264C207.53 254.477 207.232 254.797 207.029 255.224C206.826 255.64 206.725 256.157 206.725 256.776C206.725 257.363 206.848 257.875 207.093 258.312C207.338 258.739 207.685 259.069 208.133 259.304C208.581 259.539 209.098 259.656 209.685 259.656C210.101 259.656 210.485 259.587 210.837 259.448C211.2 259.309 211.589 259.059 212.005 258.696L212.837 259.864C212.581 260.12 212.266 260.344 211.893 260.536C211.53 260.728 211.141 260.883 210.725 261C210.32 261.107 209.92 261.16 209.525 261.16ZM219.881 261V249.8H224.441C225.049 249.8 225.598 249.955 226.089 250.264C226.59 250.563 226.99 250.973 227.289 251.496C227.587 252.019 227.737 252.6 227.737 253.24C227.737 253.88 227.587 254.461 227.289 254.984C226.99 255.507 226.59 255.928 226.089 256.248C225.598 256.557 225.049 256.712 224.441 256.712H221.609V261H219.881ZM221.609 255.048H224.409C224.697 255.048 224.958 254.968 225.193 254.808C225.427 254.637 225.614 254.419 225.753 254.152C225.902 253.875 225.977 253.571 225.977 253.24C225.977 252.909 225.902 252.611 225.753 252.344C225.614 252.077 225.427 251.864 225.193 251.704C224.958 251.544 224.697 251.464 224.409 251.464H221.609V255.048ZM229.605 261V252.6H231.269V255.24L231.109 254.6C231.226 254.195 231.424 253.827 231.701 253.496C231.989 253.165 232.314 252.904 232.677 252.712C233.05 252.52 233.434 252.424 233.829 252.424C234.01 252.424 234.181 252.44 234.341 252.472C234.512 252.504 234.645 252.541 234.741 252.584L234.309 254.376C234.181 254.323 234.037 254.28 233.877 254.248C233.728 254.205 233.578 254.184 233.429 254.184C233.141 254.184 232.864 254.243 232.597 254.36C232.341 254.467 232.112 254.621 231.909 254.824C231.717 255.016 231.562 255.245 231.445 255.512C231.328 255.768 231.269 256.051 231.269 256.36V261H229.605ZM239.475 261.16C238.654 261.16 237.918 260.973 237.267 260.6C236.627 260.216 236.12 259.699 235.747 259.048C235.374 258.387 235.187 257.635 235.187 256.792C235.187 255.949 235.374 255.203 235.747 254.552C236.12 253.891 236.627 253.373 237.267 253C237.918 252.616 238.654 252.424 239.475 252.424C240.286 252.424 241.011 252.616 241.651 253C242.302 253.373 242.814 253.891 243.187 254.552C243.56 255.203 243.747 255.949 243.747 256.792C243.747 257.635 243.56 258.387 243.187 259.048C242.814 259.699 242.302 260.216 241.651 260.6C241.011 260.973 240.286 261.16 239.475 261.16ZM239.475 259.656C239.976 259.656 240.424 259.533 240.819 259.288C241.214 259.032 241.523 258.691 241.747 258.264C241.971 257.827 242.078 257.336 242.067 256.792C242.078 256.237 241.971 255.747 241.747 255.32C241.523 254.883 241.214 254.541 240.819 254.296C240.424 254.051 239.976 253.928 239.475 253.928C238.974 253.928 238.52 254.056 238.115 254.312C237.72 254.557 237.411 254.899 237.187 255.336C236.963 255.763 236.856 256.248 236.867 256.792C236.856 257.336 236.963 257.827 237.187 258.264C237.411 258.691 237.72 259.032 238.115 259.288C238.52 259.533 238.974 259.656 239.475 259.656ZM246.142 261V251.656C246.142 251.176 246.249 250.749 246.462 250.376C246.675 250.003 246.969 249.709 247.342 249.496C247.715 249.283 248.147 249.176 248.638 249.176C248.979 249.176 249.299 249.24 249.598 249.368C249.897 249.496 250.137 249.667 250.318 249.88L249.758 251.144C249.619 251.016 249.465 250.915 249.294 250.84C249.134 250.755 248.979 250.712 248.83 250.712C248.606 250.712 248.414 250.749 248.254 250.824C248.105 250.888 247.993 250.995 247.918 251.144C247.843 251.283 247.806 251.453 247.806 251.656V261H246.974C246.835 261 246.697 261 246.558 261C246.419 261 246.281 261 246.142 261ZM244.798 254.264V252.744H249.79V254.264H244.798ZM251.79 261V252.6H253.438V261H251.79ZM252.59 250.744C252.238 250.744 251.966 250.653 251.774 250.472C251.582 250.291 251.486 250.035 251.486 249.704C251.486 249.395 251.582 249.144 251.774 248.952C251.977 248.76 252.249 248.664 252.59 248.664C252.942 248.664 253.214 248.755 253.406 248.936C253.598 249.117 253.694 249.373 253.694 249.704C253.694 250.013 253.593 250.264 253.39 250.456C253.198 250.648 252.931 250.744 252.59 250.744ZM255.997 261V249.16H257.645V261H255.997ZM263.744 261.16C262.88 261.16 262.112 260.979 261.44 260.616C260.779 260.243 260.256 259.736 259.872 259.096C259.499 258.456 259.312 257.72 259.312 256.888C259.312 256.227 259.419 255.624 259.632 255.08C259.845 254.536 260.139 254.067 260.512 253.672C260.896 253.267 261.349 252.957 261.872 252.744C262.405 252.52 262.981 252.408 263.6 252.408C264.144 252.408 264.651 252.515 265.12 252.728C265.589 252.931 265.995 253.213 266.336 253.576C266.688 253.939 266.955 254.371 267.136 254.872C267.328 255.363 267.419 255.901 267.408 256.488L267.392 257.192H260.528L260.16 255.88H265.968L265.728 256.152V255.768C265.696 255.416 265.579 255.101 265.376 254.824C265.173 254.547 264.917 254.328 264.608 254.168C264.299 254.008 263.963 253.928 263.6 253.928C263.024 253.928 262.539 254.04 262.144 254.264C261.749 254.477 261.451 254.797 261.248 255.224C261.045 255.64 260.944 256.157 260.944 256.776C260.944 257.363 261.067 257.875 261.312 258.312C261.557 258.739 261.904 259.069 262.352 259.304C262.8 259.539 263.317 259.656 263.904 259.656C264.32 259.656 264.704 259.587 265.056 259.448C265.419 259.309 265.808 259.059 266.224 258.696L267.056 259.864C266.8 260.12 266.485 260.344 266.112 260.536C265.749 260.728 265.36 260.883 264.944 261C264.539 261.107 264.139 261.16 263.744 261.16Z" fill="#3B3B3B"/>
<path d="M150.568 333V321.8H154.952C155.752 321.8 156.472 321.933 157.112 322.2C157.763 322.467 158.317 322.851 158.776 323.352C159.235 323.853 159.587 324.445 159.832 325.128C160.077 325.811 160.2 326.568 160.2 327.4C160.2 328.232 160.077 328.995 159.832 329.688C159.587 330.371 159.235 330.963 158.776 331.464C158.328 331.955 157.779 332.333 157.128 332.6C156.477 332.867 155.752 333 154.952 333H150.568ZM152.296 331.512L152.248 331.336H154.872C155.437 331.336 155.939 331.245 156.376 331.064C156.824 330.883 157.197 330.627 157.496 330.296C157.805 329.955 158.04 329.539 158.2 329.048C158.36 328.557 158.44 328.008 158.44 327.4C158.44 326.792 158.36 326.248 158.2 325.768C158.04 325.277 157.805 324.861 157.496 324.52C157.187 324.179 156.813 323.917 156.376 323.736C155.939 323.555 155.437 323.464 154.872 323.464H152.2L152.296 323.32V331.512ZM166.041 333.16C165.177 333.16 164.409 332.979 163.737 332.616C163.075 332.243 162.553 331.736 162.169 331.096C161.795 330.456 161.609 329.72 161.609 328.888C161.609 328.227 161.715 327.624 161.929 327.08C162.142 326.536 162.435 326.067 162.809 325.672C163.193 325.267 163.646 324.957 164.169 324.744C164.702 324.52 165.278 324.408 165.897 324.408C166.441 324.408 166.947 324.515 167.417 324.728C167.886 324.931 168.291 325.213 168.633 325.576C168.985 325.939 169.251 326.371 169.433 326.872C169.625 327.363 169.715 327.901 169.705 328.488L169.689 329.192H162.825L162.457 327.88H168.265L168.025 328.152V327.768C167.993 327.416 167.875 327.101 167.673 326.824C167.47 326.547 167.214 326.328 166.905 326.168C166.595 326.008 166.259 325.928 165.897 325.928C165.321 325.928 164.835 326.04 164.441 326.264C164.046 326.477 163.747 326.797 163.545 327.224C163.342 327.64 163.241 328.157 163.241 328.776C163.241 329.363 163.363 329.875 163.609 330.312C163.854 330.739 164.201 331.069 164.649 331.304C165.097 331.539 165.614 331.656 166.201 331.656C166.617 331.656 167.001 331.587 167.353 331.448C167.715 331.309 168.105 331.059 168.521 330.696L169.353 331.864C169.097 332.12 168.782 332.344 168.409 332.536C168.046 332.728 167.657 332.883 167.241 333C166.835 333.107 166.435 333.16 166.041 333.16ZM172.408 333V323.656C172.408 323.176 172.514 322.749 172.728 322.376C172.941 322.003 173.234 321.709 173.608 321.496C173.981 321.283 174.413 321.176 174.904 321.176C175.245 321.176 175.565 321.24 175.864 321.368C176.162 321.496 176.402 321.667 176.584 321.88L176.024 323.144C175.885 323.016 175.73 322.915 175.56 322.84C175.4 322.755 175.245 322.712 175.096 322.712C174.872 322.712 174.68 322.749 174.52 322.824C174.37 322.888 174.258 322.995 174.184 323.144C174.109 323.283 174.072 323.453 174.072 323.656V333H173.24C173.101 333 172.962 333 172.824 333C172.685 333 172.546 333 172.408 333ZM171.064 326.264V324.744H176.056V326.264H171.064ZM180.697 333.16C180.003 333.16 179.369 332.968 178.793 332.584C178.227 332.2 177.774 331.677 177.433 331.016C177.091 330.355 176.921 329.608 176.921 328.776C176.921 327.933 177.091 327.187 177.433 326.536C177.785 325.875 178.254 325.357 178.841 324.984C179.438 324.611 180.105 324.424 180.841 324.424C181.278 324.424 181.678 324.488 182.041 324.616C182.403 324.744 182.718 324.925 182.985 325.16C183.262 325.384 183.486 325.645 183.657 325.944C183.838 326.243 183.95 326.563 183.993 326.904L183.625 326.776V324.6H185.289V333H183.625V331L184.009 330.888C183.945 331.176 183.811 331.459 183.609 331.736C183.417 332.003 183.166 332.243 182.857 332.456C182.558 332.669 182.222 332.84 181.849 332.968C181.486 333.096 181.102 333.16 180.697 333.16ZM181.129 331.64C181.63 331.64 182.073 331.517 182.457 331.272C182.841 331.027 183.139 330.691 183.353 330.264C183.577 329.827 183.689 329.331 183.689 328.776C183.689 328.232 183.577 327.747 183.353 327.32C183.139 326.893 182.841 326.557 182.457 326.312C182.073 326.067 181.63 325.944 181.129 325.944C180.638 325.944 180.201 326.067 179.817 326.312C179.443 326.557 179.145 326.893 178.921 327.32C178.707 327.747 178.601 328.232 178.601 328.776C178.601 329.331 178.707 329.827 178.921 330.264C179.145 330.691 179.443 331.027 179.817 331.272C180.201 331.517 180.638 331.64 181.129 331.64ZM190.377 333.16C189.78 333.16 189.257 333.021 188.809 332.744C188.372 332.467 188.031 332.077 187.785 331.576C187.551 331.075 187.433 330.477 187.433 329.784V324.6H189.081V329.336C189.081 329.827 189.156 330.253 189.305 330.616C189.465 330.968 189.689 331.24 189.977 331.432C190.276 331.624 190.633 331.72 191.049 331.72C191.359 331.72 191.641 331.672 191.897 331.576C192.153 331.469 192.372 331.325 192.553 331.144C192.745 330.963 192.895 330.744 193.001 330.488C193.108 330.232 193.161 329.955 193.161 329.656V324.6H194.809V333H193.161V331.24L193.449 331.048C193.321 331.443 193.103 331.8 192.793 332.12C192.495 332.44 192.137 332.696 191.721 332.888C191.305 333.069 190.857 333.16 190.377 333.16ZM197.153 333V321.16H198.801V333H197.153ZM202.13 333V322.456H203.778V333H202.13ZM200.386 326.2V324.6H205.73V326.2H200.386ZM212.627 333V323.656C212.627 323.176 212.733 322.749 212.947 322.376C213.16 322.003 213.453 321.709 213.827 321.496C214.2 321.283 214.632 321.176 215.123 321.176C215.464 321.176 215.784 321.24 216.083 321.368C216.381 321.496 216.621 321.667 216.803 321.88L216.243 323.144C216.104 323.016 215.949 322.915 215.779 322.84C215.619 322.755 215.464 322.712 215.315 322.712C215.091 322.712 214.899 322.749 214.739 322.824C214.589 322.888 214.477 322.995 214.403 323.144C214.328 323.283 214.291 323.453 214.291 323.656V333H213.459C213.32 333 213.181 333 213.043 333C212.904 333 212.765 333 212.627 333ZM211.283 326.264V324.744H216.275V326.264H211.283ZM221.459 333.16C220.638 333.16 219.902 332.973 219.251 332.6C218.611 332.216 218.105 331.699 217.731 331.048C217.358 330.387 217.171 329.635 217.171 328.792C217.171 327.949 217.358 327.203 217.731 326.552C218.105 325.891 218.611 325.373 219.251 325C219.902 324.616 220.638 324.424 221.459 324.424C222.27 324.424 222.995 324.616 223.635 325C224.286 325.373 224.798 325.891 225.171 326.552C225.545 327.203 225.731 327.949 225.731 328.792C225.731 329.635 225.545 330.387 225.171 331.048C224.798 331.699 224.286 332.216 223.635 332.6C222.995 332.973 222.27 333.16 221.459 333.16ZM221.459 331.656C221.961 331.656 222.409 331.533 222.803 331.288C223.198 331.032 223.507 330.691 223.731 330.264C223.955 329.827 224.062 329.336 224.051 328.792C224.062 328.237 223.955 327.747 223.731 327.32C223.507 326.883 223.198 326.541 222.803 326.296C222.409 326.051 221.961 325.928 221.459 325.928C220.958 325.928 220.505 326.056 220.099 326.312C219.705 326.557 219.395 326.899 219.171 327.336C218.947 327.763 218.841 328.248 218.851 328.792C218.841 329.336 218.947 329.827 219.171 330.264C219.395 330.691 219.705 331.032 220.099 331.288C220.505 331.533 220.958 331.656 221.459 331.656ZM227.527 333V324.6H229.191V327.24L229.031 326.6C229.148 326.195 229.346 325.827 229.623 325.496C229.911 325.165 230.236 324.904 230.599 324.712C230.972 324.52 231.356 324.424 231.751 324.424C231.932 324.424 232.103 324.44 232.263 324.472C232.434 324.504 232.567 324.541 232.663 324.584L232.231 326.376C232.103 326.323 231.959 326.28 231.799 326.248C231.65 326.205 231.5 326.184 231.351 326.184C231.063 326.184 230.786 326.243 230.519 326.36C230.263 326.467 230.034 326.621 229.831 326.824C229.639 327.016 229.484 327.245 229.367 327.512C229.25 327.768 229.191 328.051 229.191 328.36V333H227.527ZM243.425 333.16C242.646 333.16 241.931 333.021 241.281 332.744C240.63 332.467 240.065 332.072 239.585 331.56C239.105 331.037 238.731 330.424 238.465 329.72C238.209 329.016 238.081 328.243 238.081 327.4C238.081 326.6 238.219 325.859 238.497 325.176C238.785 324.483 239.179 323.875 239.681 323.352C240.182 322.829 240.763 322.424 241.424 322.136C242.086 321.848 242.801 321.704 243.569 321.704C244.113 321.704 244.641 321.789 245.153 321.96C245.675 322.12 246.145 322.349 246.561 322.648C246.987 322.936 247.334 323.267 247.601 323.64L246.449 324.84C246.139 324.531 245.825 324.275 245.505 324.072C245.195 323.859 244.875 323.699 244.545 323.592C244.225 323.485 243.899 323.432 243.569 323.432C243.046 323.432 242.555 323.533 242.097 323.736C241.649 323.928 241.254 324.2 240.913 324.552C240.582 324.904 240.321 325.325 240.129 325.816C239.937 326.296 239.841 326.824 239.841 327.4C239.841 328.008 239.931 328.563 240.113 329.064C240.305 329.555 240.571 329.976 240.913 330.328C241.254 330.68 241.659 330.952 242.129 331.144C242.609 331.325 243.137 331.416 243.713 331.416C244.065 331.416 244.411 331.368 244.753 331.272C245.094 331.176 245.414 331.037 245.713 330.856C246.011 330.675 246.283 330.461 246.529 330.216L247.393 331.624C247.147 331.912 246.811 332.173 246.385 332.408C245.969 332.643 245.499 332.829 244.977 332.968C244.465 333.096 243.947 333.16 243.425 333.16ZM253.1 333.16C252.279 333.16 251.543 332.973 250.892 332.6C250.252 332.216 249.745 331.699 249.372 331.048C248.999 330.387 248.812 329.635 248.812 328.792C248.812 327.949 248.999 327.203 249.372 326.552C249.745 325.891 250.252 325.373 250.892 325C251.543 324.616 252.279 324.424 253.1 324.424C253.911 324.424 254.636 324.616 255.276 325C255.927 325.373 256.439 325.891 256.812 326.552C257.185 327.203 257.372 327.949 257.372 328.792C257.372 329.635 257.185 330.387 256.812 331.048C256.439 331.699 255.927 332.216 255.276 332.6C254.636 332.973 253.911 333.16 253.1 333.16ZM253.1 331.656C253.601 331.656 254.049 331.533 254.444 331.288C254.839 331.032 255.148 330.691 255.372 330.264C255.596 329.827 255.703 329.336 255.692 328.792C255.703 328.237 255.596 327.747 255.372 327.32C255.148 326.883 254.839 326.541 254.444 326.296C254.049 326.051 253.601 325.928 253.1 325.928C252.599 325.928 252.145 326.056 251.74 326.312C251.345 326.557 251.036 326.899 250.812 327.336C250.588 327.763 250.481 328.248 250.492 328.792C250.481 329.336 250.588 329.827 250.812 330.264C251.036 330.691 251.345 331.032 251.74 331.288C252.145 331.533 252.599 331.656 253.1 331.656ZM259.136 333V324.6H260.8V326.392L260.496 326.584C260.581 326.307 260.714 326.04 260.896 325.784C261.088 325.528 261.317 325.304 261.584 325.112C261.861 324.909 262.154 324.749 262.464 324.632C262.784 324.515 263.109 324.456 263.44 324.456C263.92 324.456 264.341 324.536 264.704 324.696C265.066 324.856 265.365 325.096 265.6 325.416C265.834 325.736 266.005 326.136 266.112 326.616L265.856 326.552L265.968 326.28C266.085 326.035 266.245 325.805 266.448 325.592C266.661 325.368 266.901 325.171 267.168 325C267.434 324.829 267.717 324.696 268.016 324.6C268.314 324.504 268.608 324.456 268.896 324.456C269.525 324.456 270.042 324.584 270.448 324.84C270.864 325.096 271.173 325.485 271.376 326.008C271.589 326.531 271.696 327.181 271.696 327.96V333H270.032V328.056C270.032 327.576 269.968 327.187 269.84 326.888C269.722 326.579 269.541 326.349 269.296 326.2C269.05 326.051 268.736 325.976 268.352 325.976C268.053 325.976 267.77 326.029 267.504 326.136C267.248 326.232 267.024 326.371 266.832 326.552C266.64 326.733 266.49 326.947 266.384 327.192C266.277 327.427 266.224 327.688 266.224 327.976V333H264.56V328.024C264.56 327.587 264.496 327.219 264.368 326.92C264.24 326.611 264.053 326.376 263.808 326.216C263.562 326.056 263.264 325.976 262.912 325.976C262.613 325.976 262.336 326.029 262.08 326.136C261.824 326.232 261.6 326.371 261.408 326.552C261.216 326.723 261.066 326.931 260.96 327.176C260.853 327.411 260.8 327.667 260.8 327.944V333H259.136ZM273.87 333V324.6H275.534V326.392L275.23 326.584C275.315 326.307 275.449 326.04 275.63 325.784C275.822 325.528 276.051 325.304 276.318 325.112C276.595 324.909 276.889 324.749 277.198 324.632C277.518 324.515 277.843 324.456 278.174 324.456C278.654 324.456 279.075 324.536 279.438 324.696C279.801 324.856 280.099 325.096 280.334 325.416C280.569 325.736 280.739 326.136 280.846 326.616L280.59 326.552L280.702 326.28C280.819 326.035 280.979 325.805 281.182 325.592C281.395 325.368 281.635 325.171 281.902 325C282.169 324.829 282.451 324.696 282.75 324.6C283.049 324.504 283.342 324.456 283.63 324.456C284.259 324.456 284.777 324.584 285.182 324.84C285.598 325.096 285.907 325.485 286.11 326.008C286.323 326.531 286.43 327.181 286.43 327.96V333H284.766V328.056C284.766 327.576 284.702 327.187 284.574 326.888C284.457 326.579 284.275 326.349 284.03 326.2C283.785 326.051 283.47 325.976 283.086 325.976C282.787 325.976 282.505 326.029 282.238 326.136C281.982 326.232 281.758 326.371 281.566 326.552C281.374 326.733 281.225 326.947 281.118 327.192C281.011 327.427 280.958 327.688 280.958 327.976V333H279.294V328.024C279.294 327.587 279.23 327.219 279.102 326.92C278.974 326.611 278.787 326.376 278.542 326.216C278.297 326.056 277.998 325.976 277.646 325.976C277.347 325.976 277.07 326.029 276.814 326.136C276.558 326.232 276.334 326.371 276.142 326.552C275.95 326.723 275.801 326.931 275.694 327.176C275.587 327.411 275.534 327.667 275.534 327.944V333H273.87ZM292.556 333.16C291.692 333.16 290.924 332.979 290.252 332.616C289.591 332.243 289.068 331.736 288.684 331.096C288.311 330.456 288.124 329.72 288.124 328.888C288.124 328.227 288.231 327.624 288.444 327.08C288.658 326.536 288.951 326.067 289.324 325.672C289.708 325.267 290.162 324.957 290.684 324.744C291.218 324.52 291.794 324.408 292.412 324.408C292.956 324.408 293.463 324.515 293.932 324.728C294.402 324.931 294.807 325.213 295.148 325.576C295.5 325.939 295.767 326.371 295.948 326.872C296.14 327.363 296.231 327.901 296.22 328.488L296.204 329.192H289.34L288.972 327.88H294.78L294.54 328.152V327.768C294.508 327.416 294.391 327.101 294.188 326.824C293.986 326.547 293.73 326.328 293.42 326.168C293.111 326.008 292.775 325.928 292.412 325.928C291.836 325.928 291.351 326.04 290.956 326.264C290.562 326.477 290.263 326.797 290.06 327.224C289.858 327.64 289.756 328.157 289.756 328.776C289.756 329.363 289.879 329.875 290.124 330.312C290.37 330.739 290.716 331.069 291.164 331.304C291.612 331.539 292.13 331.656 292.716 331.656C293.132 331.656 293.516 331.587 293.868 331.448C294.231 331.309 294.62 331.059 295.036 330.696L295.868 331.864C295.612 332.12 295.298 332.344 294.924 332.536C294.562 332.728 294.172 332.883 293.756 333C293.351 333.107 292.951 333.16 292.556 333.16ZM298.011 333V324.6H299.675V327.24L299.515 326.6C299.633 326.195 299.83 325.827 300.107 325.496C300.395 325.165 300.721 324.904 301.083 324.712C301.457 324.52 301.841 324.424 302.235 324.424C302.417 324.424 302.587 324.44 302.747 324.472C302.918 324.504 303.051 324.541 303.147 324.584L302.715 326.376C302.587 326.323 302.443 326.28 302.283 326.248C302.134 326.205 301.985 326.184 301.835 326.184C301.547 326.184 301.27 326.243 301.003 326.36C300.747 326.467 300.518 326.621 300.315 326.824C300.123 327.016 299.969 327.245 299.851 327.512C299.734 327.768 299.675 328.051 299.675 328.36V333H298.011ZM307.673 333.16C306.894 333.16 306.196 332.968 305.577 332.584C304.969 332.2 304.484 331.677 304.121 331.016C303.769 330.355 303.593 329.613 303.593 328.792C303.593 327.971 303.769 327.229 304.121 326.568C304.484 325.907 304.969 325.384 305.577 325C306.196 324.616 306.894 324.424 307.673 324.424C308.42 324.424 309.097 324.579 309.705 324.888C310.324 325.187 310.793 325.597 311.113 326.12L310.201 327.24C310.03 326.995 309.812 326.771 309.545 326.568C309.278 326.365 308.996 326.205 308.697 326.088C308.398 325.971 308.11 325.912 307.833 325.912C307.321 325.912 306.862 326.04 306.457 326.296C306.062 326.541 305.748 326.883 305.513 327.32C305.278 327.757 305.161 328.248 305.161 328.792C305.161 329.336 305.284 329.827 305.529 330.264C305.774 330.691 306.1 331.032 306.505 331.288C306.91 331.544 307.358 331.672 307.849 331.672C308.137 331.672 308.414 331.624 308.681 331.528C308.958 331.432 309.225 331.288 309.481 331.096C309.737 330.904 309.977 330.669 310.201 330.392L311.113 331.512C310.772 331.992 310.281 332.387 309.641 332.696C309.012 333.005 308.356 333.16 307.673 333.16ZM312.94 333V324.6H314.588V333H312.94ZM313.74 322.744C313.388 322.744 313.116 322.653 312.924 322.472C312.732 322.291 312.636 322.035 312.636 321.704C312.636 321.395 312.732 321.144 312.924 320.952C313.126 320.76 313.398 320.664 313.74 320.664C314.092 320.664 314.364 320.755 314.556 320.936C314.748 321.117 314.844 321.373 314.844 321.704C314.844 322.013 314.742 322.264 314.54 322.456C314.348 322.648 314.081 322.744 313.74 322.744ZM320.353 333.16C319.659 333.16 319.025 332.968 318.449 332.584C317.883 332.2 317.43 331.677 317.089 331.016C316.747 330.355 316.577 329.608 316.577 328.776C316.577 327.933 316.747 327.187 317.089 326.536C317.441 325.875 317.91 325.357 318.497 324.984C319.094 324.611 319.761 324.424 320.497 324.424C320.934 324.424 321.334 324.488 321.697 324.616C322.059 324.744 322.374 324.925 322.641 325.16C322.918 325.384 323.142 325.645 323.313 325.944C323.494 326.243 323.606 326.563 323.649 326.904L323.281 326.776V324.6H324.945V333H323.281V331L323.665 330.888C323.601 331.176 323.467 331.459 323.265 331.736C323.073 332.003 322.822 332.243 322.513 332.456C322.214 332.669 321.878 332.84 321.505 332.968C321.142 333.096 320.758 333.16 320.353 333.16ZM320.785 331.64C321.286 331.64 321.729 331.517 322.113 331.272C322.497 331.027 322.795 330.691 323.009 330.264C323.233 329.827 323.345 329.331 323.345 328.776C323.345 328.232 323.233 327.747 323.009 327.32C322.795 326.893 322.497 326.557 322.113 326.312C321.729 326.067 321.286 325.944 320.785 325.944C320.294 325.944 319.857 326.067 319.473 326.312C319.099 326.557 318.801 326.893 318.577 327.32C318.363 327.747 318.257 328.232 318.257 328.776C318.257 329.331 318.363 329.827 318.577 330.264C318.801 330.691 319.099 331.027 319.473 331.272C319.857 331.517 320.294 331.64 320.785 331.64ZM327.278 333V321.16H328.926V333H327.278Z" fill="#3B3B3B"/>
<path d="M150.568 405V393.8H154.952C155.752 393.8 156.472 393.933 157.112 394.2C157.763 394.467 158.317 394.851 158.776 395.352C159.235 395.853 159.587 396.445 159.832 397.128C160.077 397.811 160.2 398.568 160.2 399.4C160.2 400.232 160.077 400.995 159.832 401.688C159.587 402.371 159.235 402.963 158.776 403.464C158.328 403.955 157.779 404.333 157.128 404.6C156.477 404.867 155.752 405 154.952 405H150.568ZM152.296 403.512L152.248 403.336H154.872C155.437 403.336 155.939 403.245 156.376 403.064C156.824 402.883 157.197 402.627 157.496 402.296C157.805 401.955 158.04 401.539 158.2 401.048C158.36 400.557 158.44 400.008 158.44 399.4C158.44 398.792 158.36 398.248 158.2 397.768C158.04 397.277 157.805 396.861 157.496 396.52C157.187 396.179 156.813 395.917 156.376 395.736C155.939 395.555 155.437 395.464 154.872 395.464H152.2L152.296 395.32V403.512ZM166.041 405.16C165.177 405.16 164.409 404.979 163.737 404.616C163.075 404.243 162.553 403.736 162.169 403.096C161.795 402.456 161.609 401.72 161.609 400.888C161.609 400.227 161.715 399.624 161.929 399.08C162.142 398.536 162.435 398.067 162.809 397.672C163.193 397.267 163.646 396.957 164.169 396.744C164.702 396.52 165.278 396.408 165.897 396.408C166.441 396.408 166.947 396.515 167.417 396.728C167.886 396.931 168.291 397.213 168.633 397.576C168.985 397.939 169.251 398.371 169.433 398.872C169.625 399.363 169.715 399.901 169.705 400.488L169.689 401.192H162.825L162.457 399.88H168.265L168.025 400.152V399.768C167.993 399.416 167.875 399.101 167.673 398.824C167.47 398.547 167.214 398.328 166.905 398.168C166.595 398.008 166.259 397.928 165.897 397.928C165.321 397.928 164.835 398.04 164.441 398.264C164.046 398.477 163.747 398.797 163.545 399.224C163.342 399.64 163.241 400.157 163.241 400.776C163.241 401.363 163.363 401.875 163.609 402.312C163.854 402.739 164.201 403.069 164.649 403.304C165.097 403.539 165.614 403.656 166.201 403.656C166.617 403.656 167.001 403.587 167.353 403.448C167.715 403.309 168.105 403.059 168.521 402.696L169.353 403.864C169.097 404.12 168.782 404.344 168.409 404.536C168.046 404.728 167.657 404.883 167.241 405C166.835 405.107 166.435 405.16 166.041 405.16ZM172.408 405V395.656C172.408 395.176 172.514 394.749 172.728 394.376C172.941 394.003 173.234 393.709 173.608 393.496C173.981 393.283 174.413 393.176 174.904 393.176C175.245 393.176 175.565 393.24 175.864 393.368C176.162 393.496 176.402 393.667 176.584 393.88L176.024 395.144C175.885 395.016 175.73 394.915 175.56 394.84C175.4 394.755 175.245 394.712 175.096 394.712C174.872 394.712 174.68 394.749 174.52 394.824C174.37 394.888 174.258 394.995 174.184 395.144C174.109 395.283 174.072 395.453 174.072 395.656V405H173.24C173.101 405 172.962 405 172.824 405C172.685 405 172.546 405 172.408 405ZM171.064 398.264V396.744H176.056V398.264H171.064ZM180.697 405.16C180.003 405.16 179.369 404.968 178.793 404.584C178.227 404.2 177.774 403.677 177.433 403.016C177.091 402.355 176.921 401.608 176.921 400.776C176.921 399.933 177.091 399.187 177.433 398.536C177.785 397.875 178.254 397.357 178.841 396.984C179.438 396.611 180.105 396.424 180.841 396.424C181.278 396.424 181.678 396.488 182.041 396.616C182.403 396.744 182.718 396.925 182.985 397.16C183.262 397.384 183.486 397.645 183.657 397.944C183.838 398.243 183.95 398.563 183.993 398.904L183.625 398.776V396.6H185.289V405H183.625V403L184.009 402.888C183.945 403.176 183.811 403.459 183.609 403.736C183.417 404.003 183.166 404.243 182.857 404.456C182.558 404.669 182.222 404.84 181.849 404.968C181.486 405.096 181.102 405.16 180.697 405.16ZM181.129 403.64C181.63 403.64 182.073 403.517 182.457 403.272C182.841 403.027 183.139 402.691 183.353 402.264C183.577 401.827 183.689 401.331 183.689 400.776C183.689 400.232 183.577 399.747 183.353 399.32C183.139 398.893 182.841 398.557 182.457 398.312C182.073 398.067 181.63 397.944 181.129 397.944C180.638 397.944 180.201 398.067 179.817 398.312C179.443 398.557 179.145 398.893 178.921 399.32C178.707 399.747 178.601 400.232 178.601 400.776C178.601 401.331 178.707 401.827 178.921 402.264C179.145 402.691 179.443 403.027 179.817 403.272C180.201 403.517 180.638 403.64 181.129 403.64ZM190.377 405.16C189.78 405.16 189.257 405.021 188.809 404.744C188.372 404.467 188.031 404.077 187.785 403.576C187.551 403.075 187.433 402.477 187.433 401.784V396.6H189.081V401.336C189.081 401.827 189.156 402.253 189.305 402.616C189.465 402.968 189.689 403.24 189.977 403.432C190.276 403.624 190.633 403.72 191.049 403.72C191.359 403.72 191.641 403.672 191.897 403.576C192.153 403.469 192.372 403.325 192.553 403.144C192.745 402.963 192.895 402.744 193.001 402.488C193.108 402.232 193.161 401.955 193.161 401.656V396.6H194.809V405H193.161V403.24L193.449 403.048C193.321 403.443 193.103 403.8 192.793 404.12C192.495 404.44 192.137 404.696 191.721 404.888C191.305 405.069 190.857 405.16 190.377 405.16ZM197.153 405V393.16H198.801V405H197.153ZM202.13 405V394.456H203.778V405H202.13ZM200.386 398.2V396.6H205.73V398.2H200.386ZM212.627 405V395.656C212.627 395.176 212.733 394.749 212.947 394.376C213.16 394.003 213.453 393.709 213.827 393.496C214.2 393.283 214.632 393.176 215.123 393.176C215.464 393.176 215.784 393.24 216.083 393.368C216.381 393.496 216.621 393.667 216.803 393.88L216.243 395.144C216.104 395.016 215.949 394.915 215.779 394.84C215.619 394.755 215.464 394.712 215.315 394.712C215.091 394.712 214.899 394.749 214.739 394.824C214.589 394.888 214.477 394.995 214.403 395.144C214.328 395.283 214.291 395.453 214.291 395.656V405H213.459C213.32 405 213.181 405 213.043 405C212.904 405 212.765 405 212.627 405ZM211.283 398.264V396.744H216.275V398.264H211.283ZM221.459 405.16C220.638 405.16 219.902 404.973 219.251 404.6C218.611 404.216 218.105 403.699 217.731 403.048C217.358 402.387 217.171 401.635 217.171 400.792C217.171 399.949 217.358 399.203 217.731 398.552C218.105 397.891 218.611 397.373 219.251 397C219.902 396.616 220.638 396.424 221.459 396.424C222.27 396.424 222.995 396.616 223.635 397C224.286 397.373 224.798 397.891 225.171 398.552C225.545 399.203 225.731 399.949 225.731 400.792C225.731 401.635 225.545 402.387 225.171 403.048C224.798 403.699 224.286 404.216 223.635 404.6C222.995 404.973 222.27 405.16 221.459 405.16ZM221.459 403.656C221.961 403.656 222.409 403.533 222.803 403.288C223.198 403.032 223.507 402.691 223.731 402.264C223.955 401.827 224.062 401.336 224.051 400.792C224.062 400.237 223.955 399.747 223.731 399.32C223.507 398.883 223.198 398.541 222.803 398.296C222.409 398.051 221.961 397.928 221.459 397.928C220.958 397.928 220.505 398.056 220.099 398.312C219.705 398.557 219.395 398.899 219.171 399.336C218.947 399.763 218.841 400.248 218.851 400.792C218.841 401.336 218.947 401.827 219.171 402.264C219.395 402.691 219.705 403.032 220.099 403.288C220.505 403.533 220.958 403.656 221.459 403.656ZM227.527 405V396.6H229.191V399.24L229.031 398.6C229.148 398.195 229.346 397.827 229.623 397.496C229.911 397.165 230.236 396.904 230.599 396.712C230.972 396.52 231.356 396.424 231.751 396.424C231.932 396.424 232.103 396.44 232.263 396.472C232.434 396.504 232.567 396.541 232.663 396.584L232.231 398.376C232.103 398.323 231.959 398.28 231.799 398.248C231.65 398.205 231.5 398.184 231.351 398.184C231.063 398.184 230.786 398.243 230.519 398.36C230.263 398.467 230.034 398.621 229.831 398.824C229.639 399.016 229.484 399.245 229.367 399.512C229.25 399.768 229.191 400.051 229.191 400.36V405H227.527ZM238.881 405V393.8H243.649C244.289 393.8 244.875 393.96 245.409 394.28C245.953 394.589 246.385 395.016 246.705 395.56C247.025 396.093 247.185 396.696 247.185 397.368C247.185 397.976 247.025 398.541 246.705 399.064C246.385 399.587 245.958 400.008 245.425 400.328C244.891 400.637 244.299 400.792 243.649 400.792H240.609V405H238.881ZM245.536 405L242.689 399.944L244.465 399.544L247.633 405.016L245.536 405ZM240.609 399.128H243.809C244.118 399.128 244.395 399.053 244.641 398.904C244.886 398.744 245.078 398.531 245.217 398.264C245.355 397.987 245.425 397.683 245.425 397.352C245.425 396.979 245.334 396.653 245.153 396.376C244.982 396.088 244.737 395.864 244.417 395.704C244.107 395.544 243.755 395.464 243.361 395.464H240.609V399.128ZM253.197 405.16C252.333 405.16 251.565 404.979 250.893 404.616C250.232 404.243 249.709 403.736 249.325 403.096C248.952 402.456 248.765 401.72 248.765 400.888C248.765 400.227 248.872 399.624 249.085 399.08C249.298 398.536 249.592 398.067 249.965 397.672C250.349 397.267 250.802 396.957 251.325 396.744C251.858 396.52 252.434 396.408 253.053 396.408C253.597 396.408 254.104 396.515 254.573 396.728C255.042 396.931 255.448 397.213 255.789 397.576C256.141 397.939 256.408 398.371 256.589 398.872C256.781 399.363 256.872 399.901 256.861 400.488L256.845 401.192H249.981L249.613 399.88H255.421L255.181 400.152V399.768C255.149 399.416 255.032 399.101 254.829 398.824C254.626 398.547 254.37 398.328 254.061 398.168C253.752 398.008 253.416 397.928 253.053 397.928C252.477 397.928 251.992 398.04 251.597 398.264C251.202 398.477 250.904 398.797 250.701 399.224C250.498 399.64 250.397 400.157 250.397 400.776C250.397 401.363 250.52 401.875 250.765 402.312C251.01 402.739 251.357 403.069 251.805 403.304C252.253 403.539 252.77 403.656 253.357 403.656C253.773 403.656 254.157 403.587 254.509 403.448C254.872 403.309 255.261 403.059 255.677 402.696L256.509 403.864C256.253 404.12 255.938 404.344 255.565 404.536C255.202 404.728 254.813 404.883 254.397 405C253.992 405.107 253.592 405.16 253.197 405.16ZM261.452 405.16C260.748 405.16 260.113 405.037 259.548 404.792C258.983 404.547 258.513 404.184 258.14 403.704L259.26 402.744C259.58 403.117 259.927 403.389 260.3 403.56C260.684 403.72 261.116 403.8 261.596 403.8C261.788 403.8 261.964 403.779 262.124 403.736C262.295 403.683 262.439 403.608 262.556 403.512C262.684 403.416 262.78 403.304 262.844 403.176C262.908 403.037 262.94 402.888 262.94 402.728C262.94 402.451 262.839 402.227 262.636 402.056C262.529 401.981 262.359 401.901 262.124 401.816C261.9 401.72 261.607 401.624 261.244 401.528C260.625 401.368 260.119 401.187 259.724 400.984C259.329 400.781 259.025 400.552 258.812 400.296C258.652 400.093 258.535 399.875 258.46 399.64C258.385 399.395 258.348 399.128 258.348 398.84C258.348 398.488 258.423 398.168 258.572 397.88C258.732 397.581 258.945 397.325 259.212 397.112C259.489 396.888 259.809 396.717 260.172 396.6C260.545 396.483 260.94 396.424 261.356 396.424C261.751 396.424 262.14 396.477 262.524 396.584C262.919 396.691 263.281 396.845 263.612 397.048C263.943 397.251 264.22 397.491 264.444 397.768L263.5 398.808C263.297 398.605 263.073 398.429 262.828 398.28C262.593 398.12 262.353 397.997 262.108 397.912C261.863 397.827 261.639 397.784 261.436 397.784C261.212 397.784 261.009 397.805 260.828 397.848C260.647 397.891 260.492 397.955 260.364 398.04C260.247 398.125 260.156 398.232 260.092 398.36C260.028 398.488 259.996 398.632 259.996 398.792C260.007 398.931 260.039 399.064 260.092 399.192C260.156 399.309 260.241 399.411 260.348 399.496C260.465 399.581 260.641 399.672 260.876 399.768C261.111 399.864 261.409 399.955 261.772 400.04C262.305 400.179 262.743 400.333 263.084 400.504C263.436 400.664 263.713 400.851 263.916 401.064C264.129 401.267 264.279 401.501 264.364 401.768C264.449 402.035 264.492 402.333 264.492 402.664C264.492 403.144 264.353 403.576 264.076 403.96C263.809 404.333 263.447 404.627 262.988 404.84C262.529 405.053 262.017 405.16 261.452 405.16ZM266.58 405V396.6H268.228V405H266.58ZM267.38 394.744C267.028 394.744 266.756 394.653 266.564 394.472C266.372 394.291 266.276 394.035 266.276 393.704C266.276 393.395 266.372 393.144 266.564 392.952C266.767 392.76 267.039 392.664 267.38 392.664C267.732 392.664 268.004 392.755 268.196 392.936C268.388 393.117 268.484 393.373 268.484 393.704C268.484 394.013 268.383 394.264 268.18 394.456C267.988 394.648 267.722 394.744 267.38 394.744ZM274.265 405.16C273.497 405.16 272.809 404.973 272.201 404.6C271.604 404.216 271.129 403.699 270.777 403.048C270.425 402.387 270.249 401.635 270.249 400.792C270.249 399.949 270.42 399.203 270.761 398.552C271.113 397.891 271.588 397.373 272.185 397C272.783 396.616 273.46 396.424 274.217 396.424C274.633 396.424 275.033 396.493 275.417 396.632C275.812 396.76 276.164 396.941 276.473 397.176C276.783 397.4 277.023 397.651 277.193 397.928C277.375 398.195 277.465 398.467 277.465 398.744L276.985 398.776V393.16H278.633V405H276.985V403H277.305C277.305 403.256 277.22 403.512 277.049 403.768C276.879 404.013 276.649 404.243 276.361 404.456C276.084 404.669 275.759 404.84 275.385 404.968C275.023 405.096 274.649 405.16 274.265 405.16ZM274.489 403.736C274.991 403.736 275.433 403.608 275.817 403.352C276.201 403.096 276.5 402.749 276.713 402.312C276.937 401.864 277.049 401.357 277.049 400.792C277.049 400.227 276.937 399.725 276.713 399.288C276.5 398.84 276.201 398.488 275.817 398.232C275.433 397.976 274.991 397.848 274.489 397.848C273.988 397.848 273.545 397.976 273.161 398.232C272.777 398.488 272.473 398.84 272.249 399.288C272.036 399.725 271.929 400.227 271.929 400.792C271.929 401.357 272.036 401.864 272.249 402.312C272.473 402.749 272.777 403.096 273.161 403.352C273.545 403.608 273.988 403.736 274.489 403.736ZM284.822 405.16C283.958 405.16 283.19 404.979 282.518 404.616C281.857 404.243 281.334 403.736 280.95 403.096C280.577 402.456 280.39 401.72 280.39 400.888C280.39 400.227 280.497 399.624 280.71 399.08C280.923 398.536 281.217 398.067 281.59 397.672C281.974 397.267 282.427 396.957 282.95 396.744C283.483 396.52 284.059 396.408 284.678 396.408C285.222 396.408 285.729 396.515 286.198 396.728C286.667 396.931 287.073 397.213 287.414 397.576C287.766 397.939 288.033 398.371 288.214 398.872C288.406 399.363 288.497 399.901 288.486 400.488L288.47 401.192H281.606L281.238 399.88H287.046L286.806 400.152V399.768C286.774 399.416 286.657 399.101 286.454 398.824C286.251 398.547 285.995 398.328 285.686 398.168C285.377 398.008 285.041 397.928 284.678 397.928C284.102 397.928 283.617 398.04 283.222 398.264C282.827 398.477 282.529 398.797 282.326 399.224C282.123 399.64 282.022 400.157 282.022 400.776C282.022 401.363 282.145 401.875 282.39 402.312C282.635 402.739 282.982 403.069 283.43 403.304C283.878 403.539 284.395 403.656 284.982 403.656C285.398 403.656 285.782 403.587 286.134 403.448C286.497 403.309 286.886 403.059 287.302 402.696L288.134 403.864C287.878 404.12 287.563 404.344 287.19 404.536C286.827 404.728 286.438 404.883 286.022 405C285.617 405.107 285.217 405.16 284.822 405.16ZM290.277 405V396.6H291.925V398.328L291.637 398.52C291.744 398.147 291.952 397.805 292.261 397.496C292.57 397.176 292.938 396.92 293.365 396.728C293.792 396.525 294.229 396.424 294.677 396.424C295.317 396.424 295.85 396.552 296.277 396.808C296.704 397.053 297.024 397.432 297.237 397.944C297.45 398.456 297.557 399.101 297.557 399.88V405H295.909V399.992C295.909 399.512 295.845 399.117 295.717 398.808C295.589 398.488 295.392 398.259 295.125 398.12C294.858 397.971 294.528 397.907 294.133 397.928C293.813 397.928 293.52 397.981 293.253 398.088C292.986 398.184 292.752 398.323 292.549 398.504C292.357 398.685 292.202 398.899 292.085 399.144C291.978 399.379 291.925 399.635 291.925 399.912V405H291.109C290.97 405 290.832 405 290.693 405C290.554 405 290.416 405 290.277 405ZM300.833 405V394.456H302.481V405H300.833ZM299.089 398.2V396.6H304.433V398.2H299.089ZM306.205 405V396.6H307.853V405H306.205ZM307.005 394.744C306.653 394.744 306.381 394.653 306.189 394.472C305.997 394.291 305.901 394.035 305.901 393.704C305.901 393.395 305.997 393.144 306.189 392.952C306.392 392.76 306.664 392.664 307.005 392.664C307.357 392.664 307.629 392.755 307.821 392.936C308.013 393.117 308.109 393.373 308.109 393.704C308.109 394.013 308.008 394.264 307.805 394.456C307.613 394.648 307.347 394.744 307.005 394.744ZM313.618 405.16C312.925 405.16 312.29 404.968 311.714 404.584C311.149 404.2 310.696 403.677 310.354 403.016C310.013 402.355 309.842 401.608 309.842 400.776C309.842 399.933 310.013 399.187 310.354 398.536C310.706 397.875 311.176 397.357 311.762 396.984C312.36 396.611 313.026 396.424 313.762 396.424C314.2 396.424 314.6 396.488 314.962 396.616C315.325 396.744 315.64 396.925 315.906 397.16C316.184 397.384 316.408 397.645 316.578 397.944C316.76 398.243 316.872 398.563 316.914 398.904L316.546 398.776V396.6H318.21V405H316.546V403L316.93 402.888C316.866 403.176 316.733 403.459 316.53 403.736C316.338 404.003 316.088 404.243 315.778 404.456C315.48 404.669 315.144 404.84 314.77 404.968C314.408 405.096 314.024 405.16 313.618 405.16ZM314.05 403.64C314.552 403.64 314.994 403.517 315.378 403.272C315.762 403.027 316.061 402.691 316.274 402.264C316.498 401.827 316.61 401.331 316.61 400.776C316.61 400.232 316.498 399.747 316.274 399.32C316.061 398.893 315.762 398.557 315.378 398.312C314.994 398.067 314.552 397.944 314.05 397.944C313.56 397.944 313.122 398.067 312.738 398.312C312.365 398.557 312.066 398.893 311.842 399.32C311.629 399.747 311.522 400.232 311.522 400.776C311.522 401.331 311.629 401.827 311.842 402.264C312.066 402.691 312.365 403.027 312.738 403.272C313.122 403.517 313.56 403.64 314.05 403.64ZM320.543 405V393.16H322.191V405H320.543Z" fill="#3B3B3B"/>
<path d="M110.293 259.707L107.293 256.707C107.2 256.614 107.126 256.504 107.076 256.383C107.026 256.262 107 256.132 107 256C107 255.869 107.026 255.739 107.076 255.618C107.126 255.496 107.2 255.386 107.293 255.293C107.386 255.2 107.496 255.127 107.617 255.077C107.739 255.026 107.869 255 108 255C108.131 255 108.261 255.026 108.382 255.077C108.504 255.127 108.614 255.2 108.707 255.293L110.943 257.529L117.241 250.349C117.326 250.25 117.43 250.168 117.547 250.108C117.664 250.049 117.792 250.013 117.923 250.003C118.054 249.993 118.185 250.009 118.31 250.049C118.435 250.09 118.55 250.155 118.65 250.24C118.75 250.326 118.831 250.43 118.891 250.547C118.95 250.664 118.986 250.791 118.996 250.922C119.006 251.053 118.991 251.185 118.95 251.309C118.909 251.434 118.844 251.55 118.759 251.649L111.759 259.649C111.669 259.754 111.559 259.839 111.435 259.899C111.312 259.96 111.176 259.994 111.039 259.999C110.901 260.004 110.764 259.98 110.636 259.93C110.508 259.88 110.391 259.804 110.293 259.707Z" fill="black"/>
<path d="M110.293 331.707L107.293 328.707C107.2 328.614 107.126 328.504 107.076 328.383C107.026 328.262 107 328.132 107 328C107 327.869 107.026 327.739 107.076 327.618C107.126 327.496 107.2 327.386 107.293 327.293C107.386 327.2 107.496 327.127 107.617 327.077C107.739 327.026 107.869 327 108 327C108.131 327 108.261 327.026 108.382 327.077C108.504 327.127 108.614 327.2 108.707 327.293L110.943 329.529L117.241 322.349C117.326 322.25 117.43 322.168 117.547 322.108C117.664 322.049 117.792 322.013 117.923 322.003C118.054 321.993 118.185 322.009 118.31 322.049C118.435 322.09 118.55 322.155 118.65 322.24C118.75 322.326 118.831 322.43 118.891 322.547C118.95 322.664 118.986 322.791 118.996 322.922C119.006 323.053 118.991 323.185 118.95 323.309C118.909 323.434 118.844 323.55 118.759 323.649L111.759 331.649C111.669 331.754 111.559 331.839 111.435 331.899C111.312 331.96 111.176 331.994 111.039 331.999C110.901 332.004 110.764 331.98 110.636 331.93C110.508 331.88 110.391 331.804 110.293 331.707Z" fill="black"/>
<path d="M110.293 403.707L107.293 400.707C107.2 400.614 107.126 400.504 107.076 400.383C107.026 400.262 107 400.132 107 400C107 399.869 107.026 399.739 107.076 399.618C107.126 399.496 107.2 399.386 107.293 399.293C107.386 399.2 107.496 399.127 107.617 399.077C107.739 399.026 107.869 399 108 399C108.131 399 108.261 399.026 108.382 399.077C108.504 399.127 108.614 399.2 108.707 399.293L110.943 401.529L117.241 394.349C117.326 394.25 117.43 394.168 117.547 394.108C117.664 394.049 117.792 394.013 117.923 394.003C118.054 393.993 118.185 394.009 118.31 394.049C118.435 394.09 118.55 394.155 118.65 394.24C118.75 394.326 118.831 394.43 118.891 394.547C118.95 394.664 118.986 394.791 118.996 394.922C119.006 395.053 118.991 395.185 118.95 395.309C118.909 395.434 118.844 395.55 118.759 395.649L111.759 403.649C111.669 403.754 111.559 403.839 111.435 403.899C111.312 403.96 111.176 403.994 111.039 403.999C110.901 404.004 110.764 403.98 110.636 403.93C110.508 403.88 110.391 403.804 110.293 403.707Z" fill="black"/>
</g>
<defs>
<clipPath id="clip0_111_1092">
<rect width="480" height="540" fill="white"/>
</clipPath>
</defs>
</svg>
