<svg xmlns="http://www.w3.org/2000/svg" width="43.061" height="43.061" viewBox="0 0 43.061 43.061">
  <g id="ico-hm-quick-turnaround" transform="translate(-255 -1508.939)">
    <rect id="Rectangle_1964" data-name="Rectangle 1964" width="21" height="30" transform="translate(269 1516)" fill="#f56c6c"/>
    <path id="clock" d="M21.53,0a21.53,21.53,0,1,0,21.53,21.53A21.554,21.554,0,0,0,21.53,0ZM31.77,32.667a1.792,1.792,0,0,1-2.537,0L20.262,23.7a1.786,1.786,0,0,1-.526-1.268V10.765a1.794,1.794,0,1,1,3.588,0v10.92L31.77,30.13A1.792,1.792,0,0,1,31.77,32.667Zm0,0" transform="translate(255 1508.939)" fill="#f9a7a7"/>
  </g>
</svg>
