<svg xmlns="http://www.w3.org/2000/svg" xmlns:xlink="http://www.w3.org/1999/xlink" width="258.432" height="249" viewBox="0 0 258.432 249">
  <defs>
    <filter id="Rectangle_2000" x="0" y="0" width="258.432" height="249" filterUnits="userSpaceOnUse">
      <feOffset dy="3" input="SourceAlpha"/>
      <feGaussianBlur stdDeviation="3" result="blur"/>
      <feFlood flood-opacity="0.161"/>
      <feComposite operator="in" in2="blur"/>
      <feComposite in="SourceGraphic"/>
    </filter>
  </defs>
  <g id="Group_5935" data-name="Group 5935" transform="translate(-1132.784 -2345)">
    <g transform="matrix(1, 0, 0, 1, 1132.78, 2345)" filter="url(#Rectangle_2000)">
      <rect id="Rectangle_2000-2" data-name="Rectangle 2000" width="240.432" height="231" rx="26" transform="translate(9 6)" fill="#fff"/>
    </g>
    <g id="ae-03" transform="translate(1104.17 2356.892)">
      <g id="United_Arab_Emirates" transform="translate(57.195 30)">
        <path id="Path_23632" data-name="Path 23632" d="M253.711,50.741l.887.522.957.386.7.151.333.531.917,3.117-.258,4.273.051.466.139,1.241-.058.344-.323.575.041.423.408.737.2.466.187.3.139.359.021.257.027.361-.041.518-.177.905-.132,1.378-.387,2.008-.156,6.5-.01.506.89,3.64-2.266.254-.19.219-.216.249-.135,1.5-.074.826-.028.317-.22.455-1.169.837-.235.231-1.378,1.357-.75.366-1.561.195-.622.284-.008,0-.681,1.714-.9,1.1-.254.787-.375.473-.8.226-.884.035-.07-.01-.59-.083-1.277-1.028-1.229-3.165L240.6,86.427l-.3-.681.134-.579.733-.223.582.143.539.277,1,.727-.168-.984-.345-2.027-.474-1.36L241.166,81l-.106-.016-1.688-.258-1.6.42-1.453.928-.18.166-1.187,1.09-1.263,1.613-.436,1.421L233.6,89.9v.864l-.181,1.712.086.844.218.49.623,1.4.138.888-1.169,1.079-.259,1.539-.587.639-.423.637.056.967.522,1.935-.095,2.483.134.7.267.322.836.568.315.4.095.385-.147,2.219-.267.665-1.621,2.9-.332.8.065.693.5.249,2.613.577.7.039,2.337-.953,1.25.527.66,1.642.492,1.939,1.548,2.8-.461.726-2.639.65-4.86,1.995-.776-.1-1.087-.848-.75.131-.686.26-.643.016-1.358-.23-1.384-.034-1.19.223L225,125.1l-1.225.675-.811.447-1.772.677-1.794.34-.168.667.367.822.7.638,1.514.911.668,1,.19,1.313.134,3.458-.177.606-1.949,2.895-.379.77-1.376,5.651-.578.88-1.557,1.713-.008,0L216,149.746l-.466,1.516-.871,4.534-.923,2.78-3.972,6.984-1.3,4.362-.147,1.342v0l.263,6.61-.449,6.6-2.773,3.624-.629.112-5.705-.759-5.8-.776-5.8-.771-5.8-.771-5.8-.776-5.8-.774-5.8-.771-5.8-.775-5.809-.775-5.8-.774-5.8-.773-5.8-.774-5.8-.774-5.8-.773-5.8-.774-5.8-.775-5.8-.775-6.706-.9-1.026-.338-.834-.733-2.238-2.882-2.177-2.813L91.041,164.6l-2.178-2.816-2.171-2.814-2.178-2.817-2.173-2.821-2.178-2.821-2.173-2.819-2.178-2.822-2.173-2.826-2.178-2.823-2.178-2.827L67.1,133.569l-2.173-2.831-2.178-2.832-2.173-2.832L58.2,121.98l-.625-1.075-.224-1.188.086-2.932.013-1.18-.258-1.759.89-1.292.041-2.023-.737-1.642.825-.938.36.779.893,1.308.173.9v2.641l.272,1.609.594.38.594-.652.4-2.071.282.563.414,1.423.278.473.2.112.38.037.353-.091.224-.214.051-.22-.166-.1.8-1.961.781-.594.863,1.3.115.991-.428,2.93.061,1.057.51,2.262.047.491-.047,1.54.088.491.391.929.085.45.428.808,1,.262,2.027.048.489.16.374.216.716.7.377.256h.319l.115-.2-.241-.362-.081-.5.9-.134,2.384.139.289-.083.292.083.519.49,1.294.624.346-.017,1.762-.323.737.2.414-.249.418.249.649-.312.716-.041.754.052.754-.041.693-.256,1.589-.992.7-.108,1.331-.006.553-.167.479-.4.509-.528.557-.461.594-.2.689-.134.8-.338.672-.459.282-.485.234-.519,1.27-.547.618-.5.55-.564.73-.549.733-.422.567-.168.455-.337.129-.774.013-.843.115-.545.815-.465.757.268.655.631,1.5,2.066.468.179.17-.121.136-.234.367-.164.944.03,1.708.5.907.125.53-.091.9-.432.448-.13.482.007.36.11.289.134.3.089,3.552.313.4-.08,1.481-.573.2-.171.058-.249.061-.2.255-.007.214.139.16.2.115.186.081.1,1.222,1.016.767.368,1.667-.731.856.329.784.428.706-.16-.574-.339-.163-.435-.017-.517-.122-.584.954-.2,1.1.5,1,.817.676.765.577.945.34.246,2.309.138,5.338-1.1h.367l.367.247.57.644.438.3.594.139.618-.041.479-.243.757.575.448.253.384.108.173.175.536.831.289.268.346.067.479-.006.459-.082.713-.368.428.1.4.2.336.084,1.287-.619.282-.2.343-.184.4.076.418.171.4.108,5.076.033,1.049-.13.455-.387,2.56-1.391,2.635-.435.829-.433.876-.168,1.1-.525,1.273-.179.438-.134.536-.335.761-.6.686-.724.292-.691.414-.339,2.744-.8,2.217-1.633.377-.067.336-.568.791.041,1.694.695.316-.516,1.548-1.2.781-1.1,1.654-3.306-.234-1.149.132-.537.672-.347-.387-.261-.183-.052v-.341l.649.062,1.025.477.608.116-.265-.576-.713-.785-.143-.546.621.291.666.2.6.269.4.493h.261l-.129-1.209-.784-.381-1.1-.056-1.117-.233L177,101.58l-.974-.231v-.282l.5-.146.513-.342.428-.5.071.291.143.381.336.312-.112-.47.143-.413.54-.713h.285l.329,1.266.808,1.239,1.025.773,1-.146-.255-.136-.621-.517.479.024.9.291.357.024.139-.161.36-.636.214-.144,1.565-3.158-.693-.3-.319-.409.156-.364.713-.153.435-.278.122-.628.241-.65.771-.353V94.77l-.363-.267-.173-.471-.122-.579-.194-.591.224-.333-.3-.194L185.341,92l.119-.738.384-.428,1.633-1.111.2-.309.2-.432.238-.258,1.284.6.068.06.615-.129.6-.415.211-.612-.567-.726,4.54-2.672,2.041-1.483,1.267-1.176.835-.562,1.032-.339.088-.03.183-.06.166-.054.105-.035.2-.124.136-.081.075-.045.092-.054.177-.107,1.158-.671-.224-.944,1.379-.292.194.157,3.114-3.681,4.262-5.464.214-.734-.034-.634.795-.726.665.1.625.9.211.629-.173.61-.547.848,1.158-.36.224-.818-.323-1.013-.839-1.562-.112-.368.231-.4,1.256-1.371.367-.154.632.034-.194-.579.03-.554.255-.462.479-.3.421.364.842-.723,1.324-1.849h.258l.183.562.241.034.244-.346.187-.566.285.316.567-1.716.4-.748.459-.4-.52-.275.265-.564.536-.734.289-.779.183-.783.459-.915.642-.749.713-.28-.357.757-.459.621-.265.57.248.6.649.265.818-.143.91-.282.883-.156.261-.363.649-1.8.367-.674,1.107-1.194.669-.518,1.436-.559,1.07-1.522.459-.347.377-.058.53-.168.469-.249.2-.313.187-.109,1.236-.337,1.487-1.216,2.268-2.9,1.138-.979-.248.421-.265.95-.428.807.17.277.3.081.16-.147.088-.694.387-1.311.1-.873.265-.4,1.756-1.67.367-.481.316-.54.255-.661.173-.855h-.285l-.149.43-.248.362-.323.277-.391.166,1.09-1.835.9-1.964.747-2.951.173-.406.967-.084L248.382,30l.474.058.655,1.79.211.95-.091.849-.276,1.379-.173,4.162-.28.666-.806,1.138-.2.692.185.791.97,1.308.194.577-.3.606-.539.419-.449.483-.035.795.2,2.07.237.555.07.041.163.1.979.177.375.309.414.933.293.347.655.182.668-.127Zm-.769,13.7-1.127.856.085.749.134.463.251.381-.407.485-1.116.558-.094,1.143.063.45.514.257.66.188.686-.3,1.233-.889.475-.412.971-.346,1.166-.608.2-1.269-1.659-.337L254.2,64.6Zm.1,3.778-.144-1.235.229-.24.365-.005.606.432-.223.759ZM144.3,118.32l-.73-.095-.472-.171-.017-.354.649-.655.472-.29.061-.037v0l1.025-.381.438-.223.795-.713.234-.154.292-.192.18-.058.492-.162.391.011.611.263.092.021.214.047.285-.121,1-.817,1.151-.49.459-.27.357-.49.224.566-.051.134-.173.238.428.7.194.207,1.066.674.156.1,1.43.3.306.125.863.35.428,1.3-.577,1.046-1.277.452-1.494-.062-1.236-.5.088-.424-.323-.584-.5-.147-.435.871.312.285-1.134.74-1.362.268-1.385-.154-1.246-.514-.72-.406-.007,0-.414-.142Zm22.272-3.149-.414-.815-.9-.4-1.053-.3-.9-.516-.459-1.19v0l.57-.95.907-.384.214.192.346.307,1.063,1.183.519.579.442,1.115,0,0Zm-67.441-5.342.53-.759,1-.583.975.3.455.728.229,1.183-.087.7-.9,1.187-.774.7-.689.682-.546-.59-.456-.772-.5-1.091.089-.91Zm31.223,3.72-.588-.729-.591-.048-.772-.412-.412.68-1.592-.233-.591-.093-.881.18-.149.052-.109,0-.1-.242.02-.265.129-.332.149-.28L125,111.7l1.562.339.421-.1,1.073-.479.214-.2.224-.164,1.375-.554.774-.36h.364l.406.729.408.229.37-.187.092-.5-.051-.492-.255-.451,1.565-2.323.737-.522.038.265.187.453.061.248.968.541.01.006-.275,1.767-.534.572-1.64.765-.775.5-1,.132-.593.452,0,.5Zm44.222-8.1-1.993-.627V104.1l1.691-1.589.587-.875h.285l-.285.967.3.832.737.59,1.548.8.764.766.034.524-.577.194-1.1-.2Zm-4.849,6.643-.377.309-.4.209-.357.091-.459-.009-.255-.142-.713-.844-.53-.374-.387-.179-.153-.294.214-.715.306-.418.5-.347.594-.194.6.019.367.77.414.65.931,1.082Zm2.482-3.6.394.414.034.626-.445,1.33-.689.339-1.141-2-.105-.319.3-.05.462.123.4.257.187.089.054-.209-.115-.244-.615-.46-.132-.425.536-.065Zm-84.124-7.63.952.646.278,1.094-.543.959-.5.229-.608-.332-.217-.28-.2-.12-.265-.248-.037-.614.363-.5.317-.548Z" transform="translate(-57.195 -30)" fill="#83e0f4"/>
      </g>
    </g>
  </g>
</svg>
