<svg width="480" height="540" viewBox="0 0 480 540" fill="none" xmlns="http://www.w3.org/2000/svg">
<path d="M85 76H396C405.389 76 413 83.6112 413 93V447C413 456.389 405.389 464 396 464H85C75.6111 464 68 456.389 68 447V93C68 83.6112 75.6111 76 85 76Z" fill="#F1F5F7"/>
<rect x="92.5" y="105.5" width="294" height="328" rx="16.5" fill="white" stroke="#EAF37E"/>
<g filter="url(#filter0_d_110_608)">
<rect x="107" y="196" width="265" height="68" rx="9" fill="white"/>
</g>
<path d="M169.859 134V132.482H171.236V127.28H169.859V125.761H174.379V127.28H173.002V132.482H174.379V134H169.859ZM176.077 134V127.774H177.677L177.724 129.045L177.395 129.186C177.481 128.904 177.634 128.649 177.854 128.421C178.081 128.186 178.352 127.998 178.666 127.856C178.98 127.715 179.309 127.644 179.655 127.644C180.125 127.644 180.518 127.739 180.832 127.927C181.153 128.115 181.393 128.402 181.55 128.786C181.714 129.163 181.797 129.63 181.797 130.187V134H180.125V130.316C180.125 130.034 180.086 129.798 180.008 129.61C179.929 129.422 179.808 129.284 179.643 129.198C179.486 129.112 179.29 129.072 179.054 129.08C178.866 129.08 178.69 129.112 178.525 129.174C178.368 129.229 178.231 129.312 178.113 129.422C178.003 129.532 177.913 129.657 177.842 129.798C177.779 129.94 177.748 130.093 177.748 130.257V134H176.924C176.744 134 176.583 134 176.442 134C176.3 134 176.179 134 176.077 134ZM185.352 134L182.739 127.774H184.575L186.235 132.423L185.846 132.493L187.588 127.774H189.377L186.635 134H185.352ZM193.18 134.118C192.505 134.118 191.912 133.98 191.402 133.706C190.9 133.431 190.508 133.055 190.225 132.576C189.951 132.097 189.813 131.548 189.813 130.928C189.813 130.442 189.892 129.998 190.049 129.598C190.206 129.198 190.426 128.853 190.708 128.562C190.99 128.264 191.324 128.037 191.708 127.88C192.101 127.715 192.524 127.633 192.98 127.633C193.403 127.633 193.796 127.711 194.156 127.868C194.517 128.025 194.827 128.245 195.086 128.527C195.353 128.802 195.557 129.131 195.698 129.516C195.839 129.892 195.902 130.3 195.887 130.74L195.875 131.258H190.873L190.602 130.234H194.498L194.309 130.446V130.187C194.294 129.975 194.223 129.787 194.098 129.622C193.98 129.449 193.827 129.316 193.639 129.222C193.45 129.12 193.238 129.069 193.003 129.069C192.658 129.069 192.364 129.135 192.12 129.269C191.885 129.402 191.704 129.598 191.579 129.857C191.453 130.116 191.391 130.43 191.391 130.799C191.391 131.175 191.469 131.501 191.626 131.776C191.791 132.05 192.018 132.266 192.309 132.423C192.607 132.572 192.956 132.647 193.356 132.647C193.631 132.647 193.882 132.603 194.109 132.517C194.337 132.431 194.58 132.282 194.839 132.07L195.639 133.188C195.412 133.392 195.161 133.565 194.886 133.706C194.612 133.839 194.329 133.941 194.039 134.012C193.748 134.082 193.462 134.118 193.18 134.118ZM197.122 134V127.774H198.722L198.769 129.045L198.44 129.186C198.526 128.904 198.679 128.649 198.899 128.421C199.126 128.186 199.397 127.998 199.711 127.856C200.025 127.715 200.354 127.644 200.7 127.644C201.17 127.644 201.563 127.739 201.877 127.927C202.198 128.115 202.438 128.402 202.594 128.786C202.759 129.163 202.842 129.63 202.842 130.187V134H201.17V130.316C201.17 130.034 201.131 129.798 201.053 129.61C200.974 129.422 200.853 129.284 200.688 129.198C200.531 129.112 200.335 129.072 200.099 129.08C199.911 129.08 199.734 129.112 199.57 129.174C199.413 129.229 199.275 129.312 199.158 129.422C199.048 129.532 198.958 129.657 198.887 129.798C198.824 129.94 198.793 130.093 198.793 130.257V134H197.969C197.789 134 197.628 134 197.486 134C197.345 134 197.224 134 197.122 134ZM205.043 134V126.197H206.715V134H205.043ZM203.878 129.269V127.774H207.998V129.269H203.878ZM211.913 134.118C211.277 134.118 210.708 133.98 210.206 133.706C209.712 133.423 209.32 133.039 209.029 132.552C208.747 132.066 208.606 131.509 208.606 130.881C208.606 130.253 208.747 129.696 209.029 129.21C209.32 128.723 209.712 128.343 210.206 128.068C210.708 127.786 211.277 127.644 211.913 127.644C212.541 127.644 213.102 127.786 213.596 128.068C214.098 128.343 214.49 128.723 214.773 129.21C215.055 129.696 215.197 130.253 215.197 130.881C215.197 131.509 215.055 132.066 214.773 132.552C214.49 133.039 214.098 133.423 213.596 133.706C213.102 133.98 212.541 134.118 211.913 134.118ZM211.913 132.658C212.219 132.658 212.494 132.584 212.737 132.435C212.98 132.278 213.168 132.066 213.302 131.799C213.443 131.524 213.51 131.218 213.502 130.881C213.51 130.536 213.443 130.23 213.302 129.963C213.168 129.688 212.98 129.477 212.737 129.327C212.494 129.171 212.219 129.092 211.913 129.092C211.599 129.092 211.321 129.171 211.077 129.327C210.834 129.484 210.642 129.696 210.501 129.963C210.359 130.23 210.293 130.536 210.3 130.881C210.293 131.218 210.359 131.524 210.501 131.799C210.642 132.066 210.834 132.278 211.077 132.435C211.321 132.584 211.599 132.658 211.913 132.658ZM216.466 134V127.774H218.078L218.137 129.775L217.854 129.363C217.948 129.041 218.101 128.751 218.313 128.492C218.525 128.225 218.772 128.017 219.055 127.868C219.345 127.719 219.647 127.644 219.961 127.644C220.094 127.644 220.224 127.656 220.349 127.68C220.475 127.703 220.581 127.731 220.667 127.762L220.22 129.598C220.134 129.551 220.02 129.512 219.879 129.48C219.745 129.441 219.608 129.422 219.467 129.422C219.278 129.422 219.102 129.457 218.937 129.528C218.78 129.59 218.643 129.685 218.525 129.81C218.407 129.928 218.313 130.069 218.243 130.234C218.18 130.399 218.149 130.579 218.149 130.775V134H216.466ZM222.497 136.707L223.862 133.506L223.886 134.471L220.849 127.774H222.744L224.263 131.364C224.325 131.497 224.384 131.654 224.439 131.834C224.502 132.007 224.553 132.172 224.592 132.329L224.31 132.458C224.365 132.325 224.419 132.172 224.474 131.999C224.537 131.827 224.6 131.642 224.663 131.446L225.969 127.774H227.876L225.263 134L224.192 136.707H222.497ZM232.62 134V125.761H234.232L237.233 130.646L236.174 130.634L239.211 125.761H240.752V134H239.022V131.175C239.022 130.469 239.038 129.834 239.069 129.269C239.109 128.704 239.171 128.143 239.258 127.586L239.47 128.139L237.057 131.881H236.28L233.914 128.162L234.114 127.586C234.201 128.111 234.26 128.653 234.291 129.21C234.33 129.759 234.35 130.414 234.35 131.175V134H232.62ZM244.99 134.118C244.472 134.118 244.005 133.976 243.589 133.694C243.174 133.412 242.844 133.027 242.601 132.541C242.358 132.054 242.236 131.497 242.236 130.869C242.236 130.242 242.358 129.685 242.601 129.198C242.852 128.712 243.189 128.331 243.613 128.056C244.037 127.782 244.519 127.644 245.061 127.644C245.367 127.644 245.645 127.692 245.896 127.786C246.155 127.872 246.379 127.994 246.567 128.151C246.763 128.307 246.928 128.488 247.061 128.692C247.195 128.896 247.289 129.116 247.344 129.351L246.991 129.292V127.774H248.65V134H246.967V132.505L247.344 132.47C247.281 132.69 247.179 132.898 247.038 133.094C246.897 133.29 246.72 133.466 246.508 133.623C246.304 133.772 246.073 133.894 245.814 133.988C245.555 134.075 245.28 134.118 244.99 134.118ZM245.449 132.67C245.763 132.67 246.037 132.596 246.273 132.446C246.508 132.297 246.689 132.089 246.814 131.823C246.948 131.548 247.014 131.23 247.014 130.869C247.014 130.516 246.948 130.206 246.814 129.94C246.689 129.673 246.508 129.465 246.273 129.316C246.037 129.159 245.763 129.08 245.449 129.08C245.143 129.08 244.872 129.159 244.637 129.316C244.409 129.465 244.229 129.673 244.095 129.94C243.962 130.206 243.895 130.516 243.895 130.869C243.895 131.23 243.962 131.548 244.095 131.823C244.229 132.089 244.409 132.297 244.637 132.446C244.872 132.596 245.143 132.67 245.449 132.67ZM250.326 134V127.774H251.927L251.974 129.045L251.644 129.186C251.73 128.904 251.883 128.649 252.103 128.421C252.331 128.186 252.601 127.998 252.915 127.856C253.229 127.715 253.559 127.644 253.904 127.644C254.375 127.644 254.767 127.739 255.081 127.927C255.402 128.115 255.642 128.402 255.799 128.786C255.964 129.163 256.046 129.63 256.046 130.187V134H254.375V130.316C254.375 130.034 254.335 129.798 254.257 129.61C254.178 129.422 254.057 129.284 253.892 129.198C253.735 129.112 253.539 129.072 253.304 129.08C253.115 129.08 252.939 129.112 252.774 129.174C252.617 129.229 252.48 129.312 252.362 129.422C252.252 129.532 252.162 129.657 252.091 129.798C252.029 129.94 251.997 130.093 251.997 130.257V134H251.173C250.993 134 250.832 134 250.691 134C250.55 134 250.428 134 250.326 134ZM259.978 134.118C259.46 134.118 258.993 133.976 258.577 133.694C258.161 133.412 257.832 133.027 257.589 132.541C257.345 132.054 257.224 131.497 257.224 130.869C257.224 130.242 257.345 129.685 257.589 129.198C257.84 128.712 258.177 128.331 258.601 128.056C259.024 127.782 259.507 127.644 260.048 127.644C260.354 127.644 260.633 127.692 260.884 127.786C261.143 127.872 261.367 127.994 261.555 128.151C261.751 128.307 261.916 128.488 262.049 128.692C262.183 128.896 262.277 129.116 262.332 129.351L261.979 129.292V127.774H263.638V134H261.955V132.505L262.332 132.47C262.269 132.69 262.167 132.898 262.026 133.094C261.884 133.29 261.708 133.466 261.496 133.623C261.292 133.772 261.061 133.894 260.802 133.988C260.543 134.075 260.268 134.118 259.978 134.118ZM260.437 132.67C260.751 132.67 261.025 132.596 261.261 132.446C261.496 132.297 261.676 132.089 261.802 131.823C261.935 131.548 262.002 131.23 262.002 130.869C262.002 130.516 261.935 130.206 261.802 129.94C261.676 129.673 261.496 129.465 261.261 129.316C261.025 129.159 260.751 129.08 260.437 129.08C260.131 129.08 259.86 129.159 259.625 129.316C259.397 129.465 259.217 129.673 259.083 129.94C258.95 130.206 258.883 130.516 258.883 130.869C258.883 131.23 258.95 131.548 259.083 131.823C259.217 132.089 259.397 132.297 259.625 132.446C259.86 132.596 260.131 132.67 260.437 132.67ZM268.15 136.707C267.656 136.707 267.169 136.632 266.691 136.483C266.212 136.342 265.82 136.154 265.514 135.918L266.114 134.73C266.271 134.84 266.451 134.938 266.655 135.024C266.859 135.11 267.071 135.177 267.291 135.224C267.518 135.271 267.75 135.295 267.985 135.295C268.393 135.295 268.727 135.232 268.986 135.106C269.253 134.981 269.453 134.792 269.586 134.541C269.719 134.29 269.786 133.976 269.786 133.6V132.517L270.069 132.576C270.021 132.835 269.888 133.074 269.668 133.294C269.457 133.506 269.19 133.678 268.868 133.812C268.554 133.937 268.225 134 267.879 134C267.307 134 266.797 133.867 266.349 133.6C265.902 133.333 265.549 132.964 265.29 132.493C265.031 132.023 264.902 131.477 264.902 130.858C264.902 130.238 265.027 129.688 265.278 129.21C265.537 128.723 265.886 128.343 266.326 128.068C266.773 127.786 267.279 127.644 267.844 127.644C268.08 127.644 268.303 127.672 268.515 127.727C268.735 127.782 268.935 127.86 269.115 127.962C269.304 128.056 269.468 128.166 269.61 128.292C269.759 128.409 269.88 128.539 269.974 128.68C270.069 128.821 270.127 128.963 270.151 129.104L269.81 129.198L269.857 127.774H271.457V133.529C271.457 134.039 271.383 134.49 271.234 134.883C271.085 135.275 270.865 135.605 270.575 135.871C270.292 136.146 269.943 136.354 269.527 136.495C269.119 136.636 268.66 136.707 268.15 136.707ZM268.197 132.658C268.527 132.658 268.813 132.584 269.056 132.435C269.307 132.286 269.5 132.078 269.633 131.811C269.766 131.544 269.833 131.23 269.833 130.869C269.833 130.516 269.766 130.206 269.633 129.94C269.5 129.665 269.307 129.453 269.056 129.304C268.813 129.155 268.527 129.08 268.197 129.08C267.875 129.08 267.593 129.159 267.35 129.316C267.107 129.465 266.914 129.677 266.773 129.951C266.64 130.218 266.573 130.524 266.573 130.869C266.573 131.222 266.64 131.536 266.773 131.811C266.914 132.078 267.107 132.286 267.35 132.435C267.593 132.584 267.875 132.658 268.197 132.658ZM276.072 134.118C275.397 134.118 274.805 133.98 274.295 133.706C273.793 133.431 273.4 133.055 273.118 132.576C272.843 132.097 272.706 131.548 272.706 130.928C272.706 130.442 272.784 129.998 272.941 129.598C273.098 129.198 273.318 128.853 273.6 128.562C273.883 128.264 274.216 128.037 274.601 127.88C274.993 127.715 275.417 127.633 275.872 127.633C276.296 127.633 276.688 127.711 277.049 127.868C277.41 128.025 277.72 128.245 277.979 128.527C278.245 128.802 278.449 129.131 278.591 129.516C278.732 129.892 278.795 130.3 278.779 130.74L278.767 131.258H273.765L273.494 130.234H277.39L277.202 130.446V130.187C277.186 129.975 277.116 129.787 276.99 129.622C276.872 129.449 276.719 129.316 276.531 129.222C276.343 129.12 276.131 129.069 275.895 129.069C275.55 129.069 275.256 129.135 275.013 129.269C274.777 129.402 274.597 129.598 274.471 129.857C274.346 130.116 274.283 130.43 274.283 130.799C274.283 131.175 274.362 131.501 274.518 131.776C274.683 132.05 274.911 132.266 275.201 132.423C275.499 132.572 275.848 132.647 276.249 132.647C276.523 132.647 276.774 132.603 277.002 132.517C277.229 132.431 277.473 132.282 277.732 132.07L278.532 133.188C278.304 133.392 278.053 133.565 277.779 133.706C277.504 133.839 277.222 133.941 276.931 134.012C276.641 134.082 276.354 134.118 276.072 134.118ZM280.002 134V127.774H281.615L281.65 128.963L281.403 129.01C281.489 128.806 281.603 128.621 281.744 128.457C281.893 128.292 282.062 128.151 282.25 128.033C282.439 127.915 282.639 127.825 282.851 127.762C283.062 127.692 283.274 127.656 283.486 127.656C283.808 127.656 284.098 127.707 284.357 127.809C284.616 127.911 284.836 128.072 285.016 128.292C285.197 128.504 285.338 128.786 285.44 129.139L285.181 129.116L285.263 128.927C285.365 128.739 285.495 128.566 285.652 128.409C285.809 128.253 285.985 128.119 286.181 128.009C286.377 127.899 286.581 127.813 286.793 127.75C287.005 127.688 287.213 127.656 287.417 127.656C287.904 127.656 288.308 127.754 288.629 127.95C288.951 128.139 289.19 128.425 289.347 128.81C289.512 129.194 289.594 129.665 289.594 130.222V134H287.923V130.34C287.923 130.057 287.884 129.826 287.806 129.645C287.727 129.465 287.613 129.331 287.464 129.245C287.315 129.151 287.123 129.104 286.887 129.104C286.707 129.104 286.538 129.135 286.381 129.198C286.232 129.253 286.099 129.335 285.981 129.445C285.871 129.547 285.785 129.673 285.722 129.822C285.66 129.963 285.628 130.116 285.628 130.281V134H283.945V130.328C283.945 130.069 283.906 129.849 283.827 129.669C283.749 129.48 283.635 129.339 283.486 129.245C283.337 129.151 283.153 129.104 282.933 129.104C282.752 129.104 282.584 129.135 282.427 129.198C282.278 129.253 282.148 129.335 282.038 129.445C281.929 129.547 281.842 129.669 281.78 129.81C281.717 129.951 281.685 130.104 281.685 130.269V134H280.002ZM294.14 134.118C293.465 134.118 292.873 133.98 292.363 133.706C291.861 133.431 291.468 133.055 291.186 132.576C290.911 132.097 290.774 131.548 290.774 130.928C290.774 130.442 290.852 129.998 291.009 129.598C291.166 129.198 291.386 128.853 291.668 128.562C291.951 128.264 292.284 128.037 292.669 127.88C293.061 127.715 293.485 127.633 293.94 127.633C294.364 127.633 294.756 127.711 295.117 127.868C295.478 128.025 295.788 128.245 296.047 128.527C296.314 128.802 296.518 129.131 296.659 129.516C296.8 129.892 296.863 130.3 296.847 130.74L296.835 131.258H291.833L291.563 130.234H295.458L295.27 130.446V130.187C295.254 129.975 295.184 129.787 295.058 129.622C294.94 129.449 294.787 129.316 294.599 129.222C294.411 129.12 294.199 129.069 293.964 129.069C293.618 129.069 293.324 129.135 293.081 129.269C292.845 129.402 292.665 129.598 292.539 129.857C292.414 130.116 292.351 130.43 292.351 130.799C292.351 131.175 292.43 131.501 292.587 131.776C292.751 132.05 292.979 132.266 293.269 132.423C293.567 132.572 293.916 132.647 294.317 132.647C294.591 132.647 294.842 132.603 295.07 132.517C295.297 132.431 295.541 132.282 295.8 132.07L296.6 133.188C296.372 133.392 296.121 133.565 295.847 133.706C295.572 133.839 295.29 133.941 294.999 134.012C294.709 134.082 294.423 134.118 294.14 134.118ZM298.082 134V127.774H299.683L299.73 129.045L299.4 129.186C299.487 128.904 299.64 128.649 299.859 128.421C300.087 128.186 300.358 127.998 300.671 127.856C300.985 127.715 301.315 127.644 301.66 127.644C302.131 127.644 302.523 127.739 302.837 127.927C303.159 128.115 303.398 128.402 303.555 128.786C303.72 129.163 303.802 129.63 303.802 130.187V134H302.131V130.316C302.131 130.034 302.092 129.798 302.013 129.61C301.935 129.422 301.813 129.284 301.648 129.198C301.491 129.112 301.295 129.072 301.06 129.08C300.872 129.08 300.695 129.112 300.53 129.174C300.373 129.229 300.236 129.312 300.118 129.422C300.008 129.532 299.918 129.657 299.848 129.798C299.785 129.94 299.753 130.093 299.753 130.257V134H298.93C298.749 134 298.588 134 298.447 134C298.306 134 298.184 134 298.082 134ZM306.004 134V126.197H307.675V134H306.004ZM304.839 129.269V127.774H308.958V129.269H304.839Z" fill="#3833E3"/>
<path d="M125.438 170.09C125 170.09 124.598 170.012 124.232 169.856C123.866 169.7 123.548 169.478 123.278 169.19C123.008 168.896 122.798 168.551 122.648 168.155C122.504 167.759 122.432 167.324 122.432 166.85C122.432 166.4 122.51 165.983 122.666 165.599C122.828 165.209 123.05 164.867 123.332 164.573C123.614 164.279 123.941 164.051 124.313 163.889C124.685 163.727 125.087 163.646 125.519 163.646C125.825 163.646 126.122 163.694 126.41 163.79C126.704 163.88 126.968 164.009 127.202 164.177C127.442 164.339 127.637 164.525 127.787 164.735L127.139 165.41C126.965 165.236 126.788 165.092 126.608 164.978C126.434 164.858 126.254 164.768 126.068 164.708C125.888 164.648 125.705 164.618 125.519 164.618C125.225 164.618 124.949 164.675 124.691 164.789C124.439 164.897 124.217 165.05 124.025 165.248C123.839 165.446 123.692 165.683 123.584 165.959C123.476 166.229 123.422 166.526 123.422 166.85C123.422 167.192 123.473 167.504 123.575 167.786C123.683 168.062 123.833 168.299 124.025 168.497C124.217 168.695 124.445 168.848 124.709 168.956C124.979 169.058 125.276 169.109 125.6 169.109C125.798 169.109 125.993 169.082 126.185 169.028C126.377 168.974 126.557 168.896 126.725 168.794C126.893 168.692 127.046 168.572 127.184 168.434L127.67 169.226C127.532 169.388 127.343 169.535 127.103 169.667C126.869 169.799 126.605 169.904 126.311 169.982C126.023 170.054 125.732 170.09 125.438 170.09ZM128.756 170V163.34H129.683V166.247L129.521 166.355C129.581 166.145 129.698 165.953 129.872 165.779C130.046 165.599 130.253 165.455 130.493 165.347C130.733 165.233 130.979 165.176 131.231 165.176C131.591 165.176 131.891 165.248 132.131 165.392C132.371 165.53 132.551 165.743 132.671 166.031C132.791 166.319 132.851 166.682 132.851 167.12V170H131.924V167.183C131.924 166.913 131.888 166.691 131.816 166.517C131.744 166.337 131.633 166.208 131.483 166.13C131.333 166.046 131.147 166.01 130.925 166.022C130.745 166.022 130.58 166.052 130.43 166.112C130.28 166.166 130.148 166.244 130.034 166.346C129.926 166.448 129.839 166.568 129.773 166.706C129.713 166.838 129.683 166.982 129.683 167.138V170H129.224C129.146 170 129.068 170 128.99 170C128.912 170 128.834 170 128.756 170ZM136.233 170.09C135.771 170.09 135.357 169.985 134.991 169.775C134.631 169.559 134.346 169.268 134.136 168.902C133.926 168.53 133.821 168.107 133.821 167.633C133.821 167.159 133.926 166.739 134.136 166.373C134.346 166.001 134.631 165.71 134.991 165.5C135.357 165.284 135.771 165.176 136.233 165.176C136.689 165.176 137.097 165.284 137.457 165.5C137.823 165.71 138.111 166.001 138.321 166.373C138.531 166.739 138.636 167.159 138.636 167.633C138.636 168.107 138.531 168.53 138.321 168.902C138.111 169.268 137.823 169.559 137.457 169.775C137.097 169.985 136.689 170.09 136.233 170.09ZM136.233 169.244C136.515 169.244 136.767 169.175 136.989 169.037C137.211 168.893 137.385 168.701 137.511 168.461C137.637 168.215 137.697 167.939 137.691 167.633C137.697 167.321 137.637 167.045 137.511 166.805C137.385 166.559 137.211 166.367 136.989 166.229C136.767 166.091 136.515 166.022 136.233 166.022C135.951 166.022 135.696 166.094 135.468 166.238C135.246 166.376 135.072 166.568 134.946 166.814C134.82 167.054 134.76 167.327 134.766 167.633C134.76 167.939 134.82 168.215 134.946 168.461C135.072 168.701 135.246 168.893 135.468 169.037C135.696 169.175 135.951 169.244 136.233 169.244ZM141.77 170.09C141.308 170.09 140.894 169.985 140.528 169.775C140.168 169.559 139.883 169.268 139.673 168.902C139.463 168.53 139.358 168.107 139.358 167.633C139.358 167.159 139.463 166.739 139.673 166.373C139.883 166.001 140.168 165.71 140.528 165.5C140.894 165.284 141.308 165.176 141.77 165.176C142.226 165.176 142.634 165.284 142.994 165.5C143.36 165.71 143.648 166.001 143.858 166.373C144.068 166.739 144.173 167.159 144.173 167.633C144.173 168.107 144.068 168.53 143.858 168.902C143.648 169.268 143.36 169.559 142.994 169.775C142.634 169.985 142.226 170.09 141.77 170.09ZM141.77 169.244C142.052 169.244 142.304 169.175 142.526 169.037C142.748 168.893 142.922 168.701 143.048 168.461C143.174 168.215 143.234 167.939 143.228 167.633C143.234 167.321 143.174 167.045 143.048 166.805C142.922 166.559 142.748 166.367 142.526 166.229C142.304 166.091 142.052 166.022 141.77 166.022C141.488 166.022 141.233 166.094 141.005 166.238C140.783 166.376 140.609 166.568 140.483 166.814C140.357 167.054 140.297 167.327 140.303 167.633C140.297 167.939 140.357 168.215 140.483 168.461C140.609 168.701 140.783 168.893 141.005 169.037C141.233 169.175 141.488 169.244 141.77 169.244ZM146.758 170.09C146.362 170.09 146.005 170.021 145.687 169.883C145.369 169.745 145.105 169.541 144.895 169.271L145.525 168.731C145.705 168.941 145.9 169.094 146.11 169.19C146.326 169.28 146.569 169.325 146.839 169.325C146.947 169.325 147.046 169.313 147.136 169.289C147.232 169.259 147.313 169.217 147.379 169.163C147.451 169.109 147.505 169.046 147.541 168.974C147.577 168.896 147.595 168.812 147.595 168.722C147.595 168.566 147.538 168.44 147.424 168.344C147.364 168.302 147.268 168.257 147.136 168.209C147.01 168.155 146.845 168.101 146.641 168.047C146.293 167.957 146.008 167.855 145.786 167.741C145.564 167.627 145.393 167.498 145.273 167.354C145.183 167.24 145.117 167.117 145.075 166.985C145.033 166.847 145.012 166.697 145.012 166.535C145.012 166.337 145.054 166.157 145.138 165.995C145.228 165.827 145.348 165.683 145.498 165.563C145.654 165.437 145.834 165.341 146.038 165.275C146.248 165.209 146.47 165.176 146.704 165.176C146.926 165.176 147.145 165.206 147.361 165.266C147.583 165.326 147.787 165.413 147.973 165.527C148.159 165.641 148.315 165.776 148.441 165.932L147.91 166.517C147.796 166.403 147.67 166.304 147.532 166.22C147.4 166.13 147.265 166.061 147.127 166.013C146.989 165.965 146.863 165.941 146.749 165.941C146.623 165.941 146.509 165.953 146.407 165.977C146.305 166.001 146.218 166.037 146.146 166.085C146.08 166.133 146.029 166.193 145.993 166.265C145.957 166.337 145.939 166.418 145.939 166.508C145.945 166.586 145.963 166.661 145.993 166.733C146.029 166.799 146.077 166.856 146.137 166.904C146.203 166.952 146.302 167.003 146.434 167.057C146.566 167.111 146.734 167.162 146.938 167.21C147.238 167.288 147.484 167.375 147.676 167.471C147.874 167.561 148.03 167.666 148.144 167.786C148.264 167.9 148.348 168.032 148.396 168.182C148.444 168.332 148.468 168.5 148.468 168.686C148.468 168.956 148.39 169.199 148.234 169.415C148.084 169.625 147.88 169.79 147.622 169.91C147.364 170.03 147.076 170.09 146.758 170.09ZM151.695 170.09C151.209 170.09 150.777 169.988 150.399 169.784C150.027 169.574 149.733 169.289 149.517 168.929C149.307 168.569 149.202 168.155 149.202 167.687C149.202 167.315 149.262 166.976 149.382 166.67C149.502 166.364 149.667 166.1 149.877 165.878C150.093 165.65 150.348 165.476 150.642 165.356C150.942 165.23 151.266 165.167 151.614 165.167C151.92 165.167 152.205 165.227 152.469 165.347C152.733 165.461 152.961 165.62 153.153 165.824C153.351 166.028 153.501 166.271 153.603 166.553C153.711 166.829 153.762 167.132 153.756 167.462L153.747 167.858H149.886L149.679 167.12H152.946L152.811 167.273V167.057C152.793 166.859 152.727 166.682 152.613 166.526C152.499 166.37 152.355 166.247 152.181 166.157C152.007 166.067 151.818 166.022 151.614 166.022C151.29 166.022 151.017 166.085 150.795 166.211C150.573 166.331 150.405 166.511 150.291 166.751C150.177 166.985 150.12 167.276 150.12 167.624C150.12 167.954 150.189 168.242 150.327 168.488C150.465 168.728 150.66 168.914 150.912 169.046C151.164 169.178 151.455 169.244 151.785 169.244C152.019 169.244 152.235 169.205 152.433 169.127C152.637 169.049 152.856 168.908 153.09 168.704L153.558 169.361C153.414 169.505 153.237 169.631 153.027 169.739C152.823 169.847 152.604 169.934 152.37 170C152.142 170.06 151.917 170.09 151.695 170.09ZM160.076 170.09C159.638 170.09 159.236 170.012 158.87 169.856C158.504 169.7 158.186 169.478 157.916 169.19C157.646 168.896 157.436 168.551 157.286 168.155C157.142 167.759 157.07 167.324 157.07 166.85C157.07 166.4 157.148 165.983 157.304 165.599C157.466 165.209 157.688 164.867 157.97 164.573C158.252 164.279 158.579 164.051 158.951 163.889C159.323 163.727 159.725 163.646 160.157 163.646C160.463 163.646 160.76 163.694 161.048 163.79C161.342 163.88 161.606 164.009 161.84 164.177C162.08 164.339 162.275 164.525 162.425 164.735L161.777 165.41C161.603 165.236 161.426 165.092 161.246 164.978C161.072 164.858 160.892 164.768 160.706 164.708C160.526 164.648 160.343 164.618 160.157 164.618C159.863 164.618 159.587 164.675 159.329 164.789C159.077 164.897 158.855 165.05 158.663 165.248C158.477 165.446 158.33 165.683 158.222 165.959C158.114 166.229 158.06 166.526 158.06 166.85C158.06 167.192 158.111 167.504 158.213 167.786C158.321 168.062 158.471 168.299 158.663 168.497C158.855 168.695 159.083 168.848 159.347 168.956C159.617 169.058 159.914 169.109 160.238 169.109C160.436 169.109 160.631 169.082 160.823 169.028C161.015 168.974 161.195 168.896 161.363 168.794C161.531 168.692 161.684 168.572 161.822 168.434L162.308 169.226C162.17 169.388 161.981 169.535 161.741 169.667C161.507 169.799 161.243 169.904 160.949 169.982C160.661 170.054 160.37 170.09 160.076 170.09ZM165.212 170.09C164.822 170.09 164.465 169.982 164.141 169.766C163.823 169.55 163.568 169.256 163.376 168.884C163.184 168.512 163.088 168.092 163.088 167.624C163.088 167.15 163.184 166.73 163.376 166.364C163.574 165.992 163.838 165.701 164.168 165.491C164.504 165.281 164.879 165.176 165.293 165.176C165.539 165.176 165.764 165.212 165.968 165.284C166.172 165.356 166.349 165.458 166.499 165.59C166.655 165.716 166.781 165.863 166.877 166.031C166.979 166.199 167.042 166.379 167.066 166.571L166.859 166.499V165.275H167.795V170H166.859V168.875L167.075 168.812C167.039 168.974 166.964 169.133 166.85 169.289C166.742 169.439 166.601 169.574 166.427 169.694C166.259 169.814 166.07 169.91 165.86 169.982C165.656 170.054 165.44 170.09 165.212 170.09ZM165.455 169.235C165.737 169.235 165.986 169.166 166.202 169.028C166.418 168.89 166.586 168.701 166.706 168.461C166.832 168.215 166.895 167.936 166.895 167.624C166.895 167.318 166.832 167.045 166.706 166.805C166.586 166.565 166.418 166.376 166.202 166.238C165.986 166.1 165.737 166.031 165.455 166.031C165.179 166.031 164.933 166.1 164.717 166.238C164.507 166.376 164.339 166.565 164.213 166.805C164.093 167.045 164.033 167.318 164.033 167.624C164.033 167.936 164.093 168.215 164.213 168.461C164.339 168.701 164.507 168.89 164.717 169.028C164.933 169.166 165.179 169.235 165.455 169.235ZM169.674 170V164.069H170.601V170H169.674ZM168.693 166.175V165.275H171.699V166.175H168.693ZM174.705 170.09C174.219 170.09 173.787 169.988 173.409 169.784C173.037 169.574 172.743 169.289 172.527 168.929C172.317 168.569 172.212 168.155 172.212 167.687C172.212 167.315 172.272 166.976 172.392 166.67C172.512 166.364 172.677 166.1 172.887 165.878C173.103 165.65 173.358 165.476 173.652 165.356C173.952 165.23 174.276 165.167 174.624 165.167C174.93 165.167 175.215 165.227 175.479 165.347C175.743 165.461 175.971 165.62 176.163 165.824C176.361 166.028 176.511 166.271 176.613 166.553C176.721 166.829 176.772 167.132 176.766 167.462L176.757 167.858H172.896L172.689 167.12H175.956L175.821 167.273V167.057C175.803 166.859 175.737 166.682 175.623 166.526C175.509 166.37 175.365 166.247 175.191 166.157C175.017 166.067 174.828 166.022 174.624 166.022C174.3 166.022 174.027 166.085 173.805 166.211C173.583 166.331 173.415 166.511 173.301 166.751C173.187 166.985 173.13 167.276 173.13 167.624C173.13 167.954 173.199 168.242 173.337 168.488C173.475 168.728 173.67 168.914 173.922 169.046C174.174 169.178 174.465 169.244 174.795 169.244C175.029 169.244 175.245 169.205 175.443 169.127C175.647 169.049 175.866 168.908 176.1 168.704L176.568 169.361C176.424 169.505 176.247 169.631 176.037 169.739C175.833 169.847 175.614 169.934 175.38 170C175.152 170.06 174.927 170.09 174.705 170.09ZM179.844 172.07C179.508 172.07 179.172 172.016 178.836 171.908C178.506 171.806 178.239 171.671 178.035 171.503L178.377 170.783C178.497 170.873 178.638 170.951 178.8 171.017C178.962 171.089 179.133 171.143 179.313 171.179C179.493 171.221 179.67 171.242 179.844 171.242C180.174 171.242 180.45 171.188 180.672 171.08C180.894 170.972 181.062 170.813 181.176 170.603C181.29 170.393 181.347 170.132 181.347 169.82V168.911L181.446 168.974C181.416 169.16 181.317 169.34 181.149 169.514C180.987 169.682 180.783 169.82 180.537 169.928C180.291 170.036 180.039 170.09 179.781 170.09C179.331 170.09 178.929 169.985 178.575 169.775C178.227 169.559 177.951 169.268 177.747 168.902C177.543 168.53 177.441 168.107 177.441 167.633C177.441 167.159 177.54 166.739 177.738 166.373C177.942 166.001 178.218 165.71 178.566 165.5C178.92 165.284 179.316 165.176 179.754 165.176C179.934 165.176 180.108 165.2 180.276 165.248C180.444 165.29 180.6 165.353 180.744 165.437C180.888 165.515 181.017 165.602 181.131 165.698C181.245 165.794 181.338 165.896 181.41 166.004C181.482 166.112 181.527 166.214 181.545 166.31L181.347 166.382V165.275H182.274V169.712C182.274 170.09 182.217 170.423 182.103 170.711C181.995 171.005 181.836 171.251 181.626 171.449C181.416 171.653 181.161 171.806 180.861 171.908C180.561 172.016 180.222 172.07 179.844 172.07ZM179.88 169.235C180.174 169.235 180.435 169.166 180.663 169.028C180.891 168.89 181.068 168.701 181.194 168.461C181.32 168.221 181.383 167.945 181.383 167.633C181.383 167.321 181.317 167.045 181.185 166.805C181.059 166.559 180.882 166.367 180.654 166.229C180.432 166.091 180.174 166.022 179.88 166.022C179.592 166.022 179.334 166.094 179.106 166.238C178.884 166.376 178.707 166.568 178.575 166.814C178.449 167.054 178.386 167.327 178.386 167.633C178.386 167.939 178.449 168.215 178.575 168.461C178.707 168.701 178.884 168.89 179.106 169.028C179.334 169.166 179.592 169.235 179.88 169.235ZM185.698 170.09C185.236 170.09 184.822 169.985 184.456 169.775C184.096 169.559 183.811 169.268 183.601 168.902C183.391 168.53 183.286 168.107 183.286 167.633C183.286 167.159 183.391 166.739 183.601 166.373C183.811 166.001 184.096 165.71 184.456 165.5C184.822 165.284 185.236 165.176 185.698 165.176C186.154 165.176 186.562 165.284 186.922 165.5C187.288 165.71 187.576 166.001 187.786 166.373C187.996 166.739 188.101 167.159 188.101 167.633C188.101 168.107 187.996 168.53 187.786 168.902C187.576 169.268 187.288 169.559 186.922 169.775C186.562 169.985 186.154 170.09 185.698 170.09ZM185.698 169.244C185.98 169.244 186.232 169.175 186.454 169.037C186.676 168.893 186.85 168.701 186.976 168.461C187.102 168.215 187.162 167.939 187.156 167.633C187.162 167.321 187.102 167.045 186.976 166.805C186.85 166.559 186.676 166.367 186.454 166.229C186.232 166.091 185.98 166.022 185.698 166.022C185.416 166.022 185.161 166.094 184.933 166.238C184.711 166.376 184.537 166.568 184.411 166.814C184.285 167.054 184.225 167.327 184.231 167.633C184.225 167.939 184.285 168.215 184.411 168.461C184.537 168.701 184.711 168.893 184.933 169.037C185.161 169.175 185.416 169.244 185.698 169.244ZM189.111 170V165.275H190.047V166.76L189.957 166.4C190.023 166.172 190.134 165.965 190.29 165.779C190.452 165.593 190.635 165.446 190.839 165.338C191.049 165.23 191.265 165.176 191.487 165.176C191.589 165.176 191.685 165.185 191.775 165.203C191.871 165.221 191.946 165.242 192 165.266L191.757 166.274C191.685 166.244 191.604 166.22 191.514 166.202C191.43 166.178 191.346 166.166 191.262 166.166C191.1 166.166 190.944 166.199 190.794 166.265C190.65 166.325 190.521 166.412 190.407 166.526C190.299 166.634 190.212 166.763 190.146 166.913C190.08 167.057 190.047 167.216 190.047 167.39V170H189.111ZM193.533 172.07L194.487 169.865L194.496 170.603L192.138 165.275H193.218L194.694 168.749C194.724 168.809 194.76 168.902 194.802 169.028C194.844 169.148 194.88 169.268 194.91 169.388L194.676 169.442C194.724 169.316 194.769 169.19 194.811 169.064C194.859 168.938 194.904 168.812 194.946 168.686L196.179 165.275H197.277L195.333 170L194.532 172.07H193.533Z" fill="black"/>
<path d="M124.61 217V208.662H125.897V217H124.61ZM119.167 217V208.662H120.454V217H119.167ZM119.727 213.463V212.224H125.182V213.463H119.727ZM130.325 217.119C129.808 217.119 129.336 216.976 128.907 216.69C128.486 216.404 128.149 216.015 127.895 215.523C127.641 215.031 127.514 214.475 127.514 213.856C127.514 213.228 127.641 212.672 127.895 212.188C128.157 211.696 128.506 211.311 128.943 211.033C129.388 210.755 129.884 210.616 130.432 210.616C130.757 210.616 131.055 210.663 131.325 210.759C131.595 210.854 131.829 210.989 132.028 211.164C132.234 211.33 132.401 211.525 132.528 211.747C132.663 211.97 132.746 212.208 132.778 212.462L132.504 212.367V210.747H133.743V217H132.504V215.511L132.79 215.428C132.742 215.642 132.643 215.853 132.492 216.059C132.349 216.258 132.163 216.436 131.932 216.595C131.71 216.754 131.46 216.881 131.182 216.976C130.912 217.071 130.626 217.119 130.325 217.119ZM130.646 215.988C131.019 215.988 131.349 215.896 131.635 215.714C131.921 215.531 132.143 215.281 132.302 214.963C132.468 214.638 132.552 214.268 132.552 213.856C132.552 213.451 132.468 213.089 132.302 212.772C132.143 212.454 131.921 212.204 131.635 212.021C131.349 211.839 131.019 211.747 130.646 211.747C130.281 211.747 129.955 211.839 129.669 212.021C129.392 212.204 129.169 212.454 129.002 212.772C128.844 213.089 128.764 213.451 128.764 213.856C128.764 214.268 128.844 214.638 129.002 214.963C129.169 215.281 129.392 215.531 129.669 215.714C129.955 215.896 130.281 215.988 130.646 215.988ZM135.456 217V210.747H136.695V212.712L136.575 212.236C136.663 211.934 136.81 211.66 137.016 211.414C137.231 211.168 137.473 210.973 137.743 210.83C138.021 210.687 138.306 210.616 138.6 210.616C138.735 210.616 138.862 210.628 138.981 210.652C139.108 210.675 139.208 210.703 139.279 210.735L138.958 212.069C138.862 212.029 138.755 211.997 138.636 211.974C138.525 211.942 138.414 211.926 138.302 211.926C138.088 211.926 137.882 211.97 137.683 212.057C137.493 212.136 137.322 212.252 137.171 212.402C137.028 212.545 136.913 212.716 136.826 212.915C136.738 213.105 136.695 213.316 136.695 213.546V217H135.456ZM142.389 217L140.257 210.747L141.496 210.735L143.021 215.416L142.747 215.392L144.402 211.735H145.141L146.808 215.404L146.487 215.428L148.023 210.747H149.262L147.154 217H146.308L144.569 213.022L144.843 213.058L143.223 217H142.389ZM152.611 217.119C152.094 217.119 151.622 216.976 151.193 216.69C150.772 216.404 150.435 216.015 150.181 215.523C149.927 215.031 149.8 214.475 149.8 213.856C149.8 213.228 149.927 212.672 150.181 212.188C150.443 211.696 150.792 211.311 151.229 211.033C151.674 210.755 152.17 210.616 152.718 210.616C153.043 210.616 153.341 210.663 153.611 210.759C153.881 210.854 154.115 210.989 154.314 211.164C154.52 211.33 154.687 211.525 154.814 211.747C154.949 211.97 155.032 212.208 155.064 212.462L154.79 212.367V210.747H156.029V217H154.79V215.511L155.076 215.428C155.028 215.642 154.929 215.853 154.778 216.059C154.635 216.258 154.449 216.436 154.219 216.595C153.996 216.754 153.746 216.881 153.468 216.976C153.198 217.071 152.912 217.119 152.611 217.119ZM152.932 215.988C153.305 215.988 153.635 215.896 153.921 215.714C154.207 215.531 154.429 215.281 154.588 214.963C154.755 214.638 154.838 214.268 154.838 213.856C154.838 213.451 154.755 213.089 154.588 212.772C154.429 212.454 154.207 212.204 153.921 212.021C153.635 211.839 153.305 211.747 152.932 211.747C152.567 211.747 152.241 211.839 151.955 212.021C151.678 212.204 151.455 212.454 151.288 212.772C151.13 213.089 151.05 213.451 151.05 213.856C151.05 214.268 151.13 214.638 151.288 214.963C151.455 215.281 151.678 215.531 151.955 215.714C152.241 215.896 152.567 215.988 152.932 215.988ZM157.742 217V210.747H158.981V212.712L158.861 212.236C158.949 211.934 159.096 211.66 159.302 211.414C159.517 211.168 159.759 210.973 160.029 210.83C160.307 210.687 160.592 210.616 160.886 210.616C161.021 210.616 161.148 210.628 161.267 210.652C161.394 210.675 161.494 210.703 161.565 210.735L161.244 212.069C161.148 212.029 161.041 211.997 160.922 211.974C160.811 211.942 160.7 211.926 160.589 211.926C160.374 211.926 160.168 211.97 159.969 212.057C159.779 212.136 159.608 212.252 159.457 212.402C159.314 212.545 159.199 212.716 159.112 212.915C159.024 213.105 158.981 213.316 158.981 213.546V217H157.742ZM165.196 217.119C164.553 217.119 163.981 216.984 163.481 216.714C162.989 216.436 162.6 216.059 162.314 215.583C162.036 215.106 161.897 214.558 161.897 213.939C161.897 213.447 161.976 212.998 162.135 212.593C162.294 212.188 162.512 211.839 162.79 211.545C163.076 211.243 163.414 211.013 163.803 210.854C164.2 210.687 164.629 210.604 165.089 210.604C165.494 210.604 165.871 210.683 166.221 210.842C166.57 210.993 166.872 211.203 167.126 211.473C167.388 211.743 167.586 212.065 167.721 212.438C167.864 212.803 167.932 213.204 167.924 213.641L167.912 214.165H162.802L162.528 213.189H166.852L166.673 213.391V213.105C166.649 212.843 166.562 212.609 166.411 212.402C166.26 212.196 166.07 212.033 165.839 211.914C165.609 211.795 165.359 211.735 165.089 211.735C164.66 211.735 164.299 211.819 164.005 211.986C163.711 212.144 163.489 212.383 163.338 212.7C163.187 213.01 163.112 213.395 163.112 213.856C163.112 214.292 163.203 214.673 163.386 214.999C163.568 215.317 163.827 215.563 164.16 215.737C164.494 215.912 164.879 215.999 165.315 215.999C165.625 215.999 165.911 215.948 166.173 215.845C166.443 215.741 166.733 215.555 167.042 215.285L167.662 216.154C167.471 216.345 167.237 216.512 166.959 216.655C166.689 216.798 166.399 216.913 166.09 217C165.788 217.079 165.49 217.119 165.196 217.119Z" fill="black"/>
<rect x="113" y="228" width="251" height="24" rx="3" fill="#EAF37E"/>
<path d="M119.167 244V235.662H124.42V236.901H120.454V242.761H124.42V244H119.167ZM119.751 240.343V239.105H123.765V240.343H119.751ZM126.198 244V235.186H127.424V244H126.198ZM131.965 244.119C131.322 244.119 130.75 243.984 130.25 243.714C129.757 243.436 129.368 243.059 129.083 242.583C128.805 242.106 128.666 241.558 128.666 240.939C128.666 240.447 128.745 239.998 128.904 239.593C129.063 239.188 129.281 238.839 129.559 238.545C129.845 238.243 130.182 238.013 130.571 237.854C130.968 237.687 131.397 237.604 131.858 237.604C132.263 237.604 132.64 237.683 132.989 237.842C133.339 237.993 133.64 238.203 133.894 238.473C134.157 238.743 134.355 239.065 134.49 239.438C134.633 239.803 134.7 240.204 134.692 240.641L134.681 241.165H129.571L129.297 240.189H133.621L133.442 240.391V240.105C133.418 239.843 133.331 239.609 133.18 239.402C133.029 239.196 132.838 239.033 132.608 238.914C132.378 238.795 132.128 238.735 131.858 238.735C131.429 238.735 131.068 238.819 130.774 238.986C130.48 239.144 130.258 239.383 130.107 239.7C129.956 240.01 129.881 240.395 129.881 240.856C129.881 241.292 129.972 241.673 130.155 241.999C130.337 242.317 130.595 242.563 130.929 242.737C131.262 242.912 131.647 242.999 132.084 242.999C132.394 242.999 132.68 242.948 132.942 242.845C133.212 242.741 133.501 242.555 133.811 242.285L134.43 243.154C134.24 243.345 134.006 243.512 133.728 243.655C133.458 243.798 133.168 243.913 132.858 244C132.557 244.079 132.259 244.119 131.965 244.119ZM138.682 244.119C138.102 244.119 137.582 243.976 137.122 243.69C136.669 243.404 136.308 243.015 136.038 242.523C135.776 242.031 135.645 241.479 135.645 240.867C135.645 240.256 135.776 239.704 136.038 239.212C136.308 238.72 136.669 238.33 137.122 238.045C137.582 237.759 138.102 237.616 138.682 237.616C139.238 237.616 139.742 237.731 140.195 237.961C140.655 238.184 141.004 238.489 141.243 238.878L140.564 239.712C140.437 239.53 140.274 239.363 140.075 239.212C139.877 239.061 139.666 238.942 139.444 238.855C139.222 238.767 139.007 238.724 138.801 238.724C138.42 238.724 138.078 238.819 137.777 239.009C137.483 239.192 137.249 239.446 137.074 239.772C136.899 240.097 136.812 240.463 136.812 240.867C136.812 241.272 136.903 241.638 137.086 241.963C137.268 242.281 137.511 242.535 137.812 242.726C138.114 242.916 138.448 243.011 138.813 243.011C139.027 243.011 139.234 242.976 139.432 242.904C139.639 242.833 139.837 242.726 140.028 242.583C140.218 242.44 140.397 242.265 140.564 242.059L141.243 242.892C140.989 243.25 140.623 243.543 140.147 243.774C139.678 244.004 139.19 244.119 138.682 244.119ZM143.174 244V236.151H144.401V244H143.174ZM141.876 238.938V237.747H145.854V238.938H141.876ZM146.971 244V237.747H148.21V239.712L148.091 239.236C148.178 238.934 148.325 238.66 148.531 238.414C148.746 238.168 148.988 237.973 149.258 237.83C149.536 237.687 149.822 237.616 150.115 237.616C150.25 237.616 150.378 237.628 150.497 237.652C150.624 237.675 150.723 237.703 150.794 237.735L150.473 239.069C150.378 239.029 150.27 238.997 150.151 238.974C150.04 238.942 149.929 238.926 149.818 238.926C149.603 238.926 149.397 238.97 149.198 239.057C149.008 239.136 148.837 239.252 148.686 239.402C148.543 239.545 148.428 239.716 148.341 239.915C148.253 240.105 148.21 240.316 148.21 240.546V244H146.971ZM151.977 244V237.747H153.204V244H151.977ZM152.573 236.365C152.311 236.365 152.108 236.298 151.965 236.163C151.823 236.028 151.751 235.837 151.751 235.591C151.751 235.361 151.823 235.174 151.965 235.031C152.116 234.888 152.319 234.817 152.573 234.817C152.835 234.817 153.037 234.884 153.18 235.019C153.323 235.154 153.395 235.345 153.395 235.591C153.395 235.821 153.319 236.008 153.168 236.151C153.026 236.294 152.827 236.365 152.573 236.365ZM157.746 244.119C157.166 244.119 156.646 243.976 156.186 243.69C155.733 243.404 155.372 243.015 155.102 242.523C154.84 242.031 154.709 241.479 154.709 240.867C154.709 240.256 154.84 239.704 155.102 239.212C155.372 238.72 155.733 238.33 156.186 238.045C156.646 237.759 157.166 237.616 157.746 237.616C158.302 237.616 158.806 237.731 159.259 237.961C159.719 238.184 160.069 238.489 160.307 238.878L159.628 239.712C159.501 239.53 159.338 239.363 159.14 239.212C158.941 239.061 158.731 238.942 158.508 238.855C158.286 238.767 158.072 238.724 157.865 238.724C157.484 238.724 157.142 238.819 156.841 239.009C156.547 239.192 156.313 239.446 156.138 239.772C155.963 240.097 155.876 240.463 155.876 240.867C155.876 241.272 155.967 241.638 156.15 241.963C156.333 242.281 156.575 242.535 156.876 242.726C157.178 242.916 157.512 243.011 157.877 243.011C158.091 243.011 158.298 242.976 158.496 242.904C158.703 242.833 158.901 242.726 159.092 242.583C159.282 242.44 159.461 242.265 159.628 242.059L160.307 242.892C160.053 243.25 159.687 243.543 159.211 243.774C158.742 244.004 158.254 244.119 157.746 244.119ZM163.87 244.119C163.354 244.119 162.881 243.976 162.453 243.69C162.032 243.404 161.694 243.015 161.44 242.523C161.186 242.031 161.059 241.475 161.059 240.856C161.059 240.228 161.186 239.672 161.44 239.188C161.702 238.696 162.052 238.311 162.488 238.033C162.933 237.755 163.429 237.616 163.977 237.616C164.303 237.616 164.6 237.663 164.87 237.759C165.14 237.854 165.375 237.989 165.573 238.164C165.78 238.33 165.946 238.525 166.073 238.747C166.208 238.97 166.292 239.208 166.324 239.462L166.05 239.367V237.747H167.288V244H166.05V242.511L166.335 242.428C166.288 242.642 166.189 242.853 166.038 243.059C165.895 243.258 165.708 243.436 165.478 243.595C165.256 243.754 165.005 243.881 164.727 243.976C164.458 244.071 164.172 244.119 163.87 244.119ZM164.192 242.988C164.565 242.988 164.894 242.896 165.18 242.714C165.466 242.531 165.688 242.281 165.847 241.963C166.014 241.638 166.097 241.268 166.097 240.856C166.097 240.451 166.014 240.089 165.847 239.772C165.688 239.454 165.466 239.204 165.18 239.021C164.894 238.839 164.565 238.747 164.192 238.747C163.826 238.747 163.501 238.839 163.215 239.021C162.937 239.204 162.715 239.454 162.548 239.772C162.389 240.089 162.31 240.451 162.31 240.856C162.31 241.268 162.389 241.638 162.548 241.963C162.715 242.281 162.937 242.531 163.215 242.714C163.501 242.896 163.826 242.988 164.192 242.988ZM169.025 244V235.186H170.252V244H169.025Z" fill="black"/>
<rect x="107" y="387" width="265" height="29" rx="5" fill="#0900FF"/>
<path d="M225.514 406.071C224.839 406.071 224.236 405.933 223.704 405.655C223.18 405.369 222.767 404.98 222.465 404.487C222.163 403.987 222.012 403.423 222.012 402.796V397.651H223.811V402.689C223.811 403.022 223.886 403.324 224.037 403.594C224.188 403.856 224.391 404.066 224.645 404.225C224.907 404.384 225.197 404.464 225.514 404.464C225.84 404.464 226.134 404.384 226.396 404.225C226.666 404.066 226.876 403.856 227.027 403.594C227.186 403.324 227.265 403.022 227.265 402.689V397.651H229.004V402.796C229.004 403.423 228.853 403.987 228.551 404.487C228.258 404.98 227.845 405.369 227.313 405.655C226.781 405.933 226.181 406.071 225.514 406.071ZM230.86 408.62V399.699H232.492L232.54 401.117L232.23 401.009C232.285 400.755 232.42 400.521 232.635 400.307C232.857 400.092 233.131 399.918 233.457 399.783C233.782 399.648 234.124 399.58 234.481 399.58C235.029 399.58 235.517 399.723 235.946 400.009C236.375 400.287 236.712 400.672 236.958 401.164C237.205 401.649 237.328 402.208 237.328 402.844C237.328 403.471 237.205 404.031 236.958 404.523C236.712 405.015 236.375 405.404 235.946 405.69C235.517 405.968 235.029 406.107 234.481 406.107C234.116 406.107 233.766 406.04 233.433 405.905C233.107 405.762 232.829 405.575 232.599 405.345C232.377 405.115 232.234 404.868 232.17 404.606L232.563 404.44V408.62H230.86ZM234.1 404.654C234.41 404.654 234.683 404.579 234.922 404.428C235.16 404.277 235.346 404.066 235.481 403.797C235.616 403.519 235.684 403.201 235.684 402.844C235.684 402.486 235.616 402.173 235.481 401.903C235.346 401.633 235.16 401.422 234.922 401.271C234.691 401.121 234.417 401.045 234.1 401.045C233.782 401.045 233.504 401.121 233.266 401.271C233.028 401.414 232.841 401.625 232.706 401.903C232.571 402.173 232.504 402.486 232.504 402.844C232.504 403.201 232.571 403.519 232.706 403.797C232.841 404.066 233.028 404.277 233.266 404.428C233.504 404.579 233.782 404.654 234.1 404.654ZM241.072 406.119C240.516 406.119 240.02 405.98 239.583 405.702C239.155 405.416 238.813 405.031 238.559 404.547C238.313 404.055 238.19 403.487 238.19 402.844C238.19 402.216 238.313 401.657 238.559 401.164C238.813 400.664 239.155 400.275 239.583 399.997C240.02 399.711 240.516 399.568 241.072 399.568C241.366 399.568 241.648 399.616 241.918 399.711C242.196 399.798 242.442 399.922 242.656 400.08C242.879 400.239 243.057 400.418 243.192 400.616C243.327 400.807 243.403 401.005 243.419 401.212L242.99 401.295V397.186H244.693V406H243.085L243.014 404.547L243.347 404.583C243.331 404.781 243.26 404.972 243.133 405.154C243.006 405.337 242.835 405.504 242.621 405.655C242.414 405.798 242.176 405.913 241.906 406C241.644 406.079 241.366 406.119 241.072 406.119ZM241.453 404.714C241.771 404.714 242.049 404.634 242.287 404.475C242.525 404.317 242.712 404.098 242.847 403.82C242.982 403.542 243.049 403.217 243.049 402.844C243.049 402.478 242.982 402.157 242.847 401.879C242.712 401.601 242.525 401.383 242.287 401.224C242.049 401.065 241.771 400.986 241.453 400.986C241.136 400.986 240.858 401.065 240.62 401.224C240.389 401.383 240.207 401.601 240.072 401.879C239.945 402.157 239.881 402.478 239.881 402.844C239.881 403.217 239.945 403.542 240.072 403.82C240.207 404.098 240.389 404.317 240.62 404.475C240.858 404.634 241.136 404.714 241.453 404.714ZM248.688 406.119C248.164 406.119 247.692 405.976 247.271 405.69C246.85 405.404 246.517 405.015 246.271 404.523C246.024 404.031 245.901 403.467 245.901 402.832C245.901 402.197 246.024 401.633 246.271 401.14C246.525 400.648 246.866 400.263 247.295 399.985C247.724 399.707 248.212 399.568 248.76 399.568C249.07 399.568 249.351 399.616 249.606 399.711C249.868 399.798 250.094 399.922 250.284 400.08C250.483 400.239 250.65 400.422 250.785 400.628C250.92 400.835 251.015 401.057 251.071 401.295L250.713 401.236V399.699H252.393V406H250.689V404.487L251.071 404.452C251.007 404.674 250.904 404.884 250.761 405.083C250.618 405.281 250.439 405.46 250.225 405.619C250.018 405.77 249.784 405.893 249.522 405.988C249.26 406.075 248.982 406.119 248.688 406.119ZM249.153 404.654C249.471 404.654 249.748 404.579 249.987 404.428C250.225 404.277 250.408 404.066 250.535 403.797C250.67 403.519 250.737 403.197 250.737 402.832C250.737 402.474 250.67 402.161 250.535 401.891C250.408 401.621 250.225 401.41 249.987 401.26C249.748 401.101 249.471 401.021 249.153 401.021C248.843 401.021 248.569 401.101 248.331 401.26C248.101 401.41 247.918 401.621 247.783 401.891C247.648 402.161 247.581 402.474 247.581 402.832C247.581 403.197 247.648 403.519 247.783 403.797C247.918 404.066 248.101 404.277 248.331 404.428C248.569 404.579 248.843 404.654 249.153 404.654ZM254.696 406V398.103H256.387V406H254.696ZM253.517 401.212V399.699H257.685V401.212H253.517ZM261.707 406.119C261.024 406.119 260.425 405.98 259.909 405.702C259.401 405.424 259.004 405.043 258.718 404.559C258.44 404.074 258.301 403.519 258.301 402.891C258.301 402.399 258.38 401.95 258.539 401.545C258.698 401.14 258.92 400.791 259.206 400.497C259.492 400.196 259.829 399.965 260.218 399.806C260.615 399.64 261.044 399.556 261.505 399.556C261.934 399.556 262.331 399.636 262.696 399.795C263.061 399.953 263.375 400.176 263.637 400.462C263.907 400.739 264.113 401.073 264.256 401.462C264.399 401.843 264.463 402.256 264.447 402.701L264.435 403.225H259.373L259.099 402.189H263.041L262.851 402.403V402.141C262.835 401.927 262.763 401.736 262.636 401.569C262.517 401.395 262.362 401.26 262.172 401.164C261.981 401.061 261.767 401.009 261.529 401.009C261.179 401.009 260.881 401.077 260.635 401.212C260.397 401.347 260.214 401.545 260.087 401.807C259.96 402.069 259.897 402.387 259.897 402.76C259.897 403.141 259.976 403.471 260.135 403.749C260.302 404.027 260.532 404.245 260.826 404.404C261.128 404.555 261.481 404.63 261.886 404.63C262.164 404.63 262.418 404.587 262.648 404.499C262.879 404.412 263.125 404.261 263.387 404.047L264.197 405.178C263.966 405.385 263.712 405.559 263.434 405.702C263.156 405.837 262.871 405.94 262.577 406.012C262.283 406.083 261.993 406.119 261.707 406.119Z" fill="white"/>
<rect x="107.15" y="152.15" width="264.7" height="28.7" rx="4.85" stroke="black" stroke-opacity="0.4" stroke-width="0.3"/>
<path d="M346 165L351.5 170.5L357 165" stroke="#999999" stroke-linecap="round"/>
<path d="M163.443 124.15C163.54 124.062 163.663 124.01 163.793 124.001C163.924 123.993 164.053 124.028 164.161 124.101C164.269 124.174 164.349 124.282 164.389 124.406C164.428 124.53 164.425 124.664 164.38 124.787L162.784 129.249H165.348C165.478 129.246 165.606 129.282 165.715 129.354C165.823 129.426 165.907 129.529 165.955 129.65C166.003 129.771 166.013 129.903 165.983 130.03C165.953 130.157 165.885 130.271 165.788 130.358L159.558 135.855C159.46 135.94 159.338 135.991 159.208 135.999C159.079 136.007 158.951 135.972 158.844 135.899C158.737 135.826 158.657 135.72 158.617 135.597C158.577 135.474 158.579 135.341 158.623 135.22L160.22 130.749H157.606C157.483 130.749 157.363 130.712 157.262 130.643C157.161 130.573 157.083 130.475 157.04 130.36C156.996 130.245 156.988 130.12 157.017 130.001C157.047 129.881 157.111 129.774 157.203 129.692L163.443 124.15Z" fill="#3833E3"/>
<rect x="98" y="290" width="134" height="62" rx="9" fill="#F5F6FA"/>
<rect x="238" y="290" width="134" height="62" rx="9" fill="#F5F6FA"/>
<path d="M107.72 310V309H108.85V304H107.72V303H111.06V304H109.93V309H111.06V310H107.72ZM113.145 310V303.41H114.175V310H113.145ZM112.055 305.75V304.75H115.395V305.75H112.055ZM118.734 310.1C118.194 310.1 117.714 309.987 117.294 309.76C116.881 309.527 116.554 309.21 116.314 308.81C116.081 308.41 115.964 307.95 115.964 307.43C115.964 307.017 116.031 306.64 116.164 306.3C116.298 305.96 116.481 305.667 116.714 305.42C116.954 305.167 117.238 304.973 117.564 304.84C117.898 304.7 118.258 304.63 118.644 304.63C118.984 304.63 119.301 304.697 119.594 304.83C119.888 304.957 120.141 305.133 120.354 305.36C120.574 305.587 120.741 305.857 120.854 306.17C120.974 306.477 121.031 306.813 121.024 307.18L121.014 307.62H116.724L116.494 306.8H120.124L119.974 306.97V306.73C119.954 306.51 119.881 306.313 119.754 306.14C119.628 305.967 119.468 305.83 119.274 305.73C119.081 305.63 118.871 305.58 118.644 305.58C118.284 305.58 117.981 305.65 117.734 305.79C117.488 305.923 117.301 306.123 117.174 306.39C117.048 306.65 116.984 306.973 116.984 307.36C116.984 307.727 117.061 308.047 117.214 308.32C117.368 308.587 117.584 308.793 117.864 308.94C118.144 309.087 118.468 309.16 118.834 309.16C119.094 309.16 119.334 309.117 119.554 309.03C119.781 308.943 120.024 308.787 120.284 308.56L120.804 309.29C120.644 309.45 120.448 309.59 120.214 309.71C119.988 309.83 119.744 309.927 119.484 310C119.231 310.067 118.981 310.1 118.734 310.1ZM122.124 310V304.75H123.164V305.87L122.974 305.99C123.027 305.817 123.11 305.65 123.224 305.49C123.344 305.33 123.487 305.19 123.654 305.07C123.827 304.943 124.01 304.843 124.204 304.77C124.404 304.697 124.607 304.66 124.814 304.66C125.114 304.66 125.377 304.71 125.604 304.81C125.83 304.91 126.017 305.06 126.164 305.26C126.31 305.46 126.417 305.71 126.484 306.01L126.324 305.97L126.394 305.8C126.467 305.647 126.567 305.503 126.694 305.37C126.827 305.23 126.977 305.107 127.144 305C127.31 304.893 127.487 304.81 127.674 304.75C127.86 304.69 128.044 304.66 128.224 304.66C128.617 304.66 128.94 304.74 129.194 304.9C129.454 305.06 129.647 305.303 129.774 305.63C129.907 305.957 129.974 306.363 129.974 306.85V310H128.934V306.91C128.934 306.61 128.894 306.367 128.814 306.18C128.74 305.987 128.627 305.843 128.474 305.75C128.32 305.657 128.124 305.61 127.884 305.61C127.697 305.61 127.52 305.643 127.354 305.71C127.194 305.77 127.054 305.857 126.934 305.97C126.814 306.083 126.72 306.217 126.654 306.37C126.587 306.517 126.554 306.68 126.554 306.86V310H125.514V306.89C125.514 306.617 125.474 306.387 125.394 306.2C125.314 306.007 125.197 305.86 125.044 305.76C124.89 305.66 124.704 305.61 124.484 305.61C124.297 305.61 124.124 305.643 123.964 305.71C123.804 305.77 123.664 305.857 123.544 305.97C123.424 306.077 123.33 306.207 123.264 306.36C123.197 306.507 123.164 306.667 123.164 306.84V310H122.124ZM134.416 310V303H135.386L139.666 308.73L139.506 308.82C139.479 308.653 139.456 308.473 139.436 308.28C139.416 308.08 139.396 307.87 139.376 307.65C139.362 307.423 139.349 307.187 139.336 306.94C139.329 306.687 139.322 306.423 139.316 306.15C139.309 305.877 139.306 305.593 139.306 305.3V303H140.386V310H139.396L135.186 304.48L135.296 304.34C135.329 304.747 135.356 305.093 135.376 305.38C135.402 305.66 135.422 305.9 135.436 306.1C135.456 306.293 135.469 306.453 135.476 306.58C135.482 306.7 135.486 306.8 135.486 306.88C135.492 306.96 135.496 307.03 135.496 307.09V310H134.416ZM144.105 310.1C143.672 310.1 143.275 309.98 142.915 309.74C142.562 309.5 142.279 309.173 142.065 308.76C141.852 308.347 141.745 307.88 141.745 307.36C141.745 306.833 141.852 306.367 142.065 305.96C142.285 305.547 142.579 305.223 142.945 304.99C143.319 304.757 143.735 304.64 144.195 304.64C144.469 304.64 144.719 304.68 144.945 304.76C145.172 304.84 145.369 304.953 145.535 305.1C145.709 305.24 145.849 305.403 145.955 305.59C146.069 305.777 146.139 305.977 146.165 306.19L145.935 306.11V304.75H146.975V310H145.935V308.75L146.175 308.68C146.135 308.86 146.052 309.037 145.925 309.21C145.805 309.377 145.649 309.527 145.455 309.66C145.269 309.793 145.059 309.9 144.825 309.98C144.599 310.06 144.359 310.1 144.105 310.1ZM144.375 309.15C144.689 309.15 144.965 309.073 145.205 308.92C145.445 308.767 145.632 308.557 145.765 308.29C145.905 308.017 145.975 307.707 145.975 307.36C145.975 307.02 145.905 306.717 145.765 306.45C145.632 306.183 145.445 305.973 145.205 305.82C144.965 305.667 144.689 305.59 144.375 305.59C144.069 305.59 143.795 305.667 143.555 305.82C143.322 305.973 143.135 306.183 142.995 306.45C142.862 306.717 142.795 307.02 142.795 307.36C142.795 307.707 142.862 308.017 142.995 308.29C143.135 308.557 143.322 308.767 143.555 308.92C143.795 309.073 144.069 309.15 144.375 309.15ZM148.393 310V304.75H149.433V305.87L149.243 305.99C149.297 305.817 149.38 305.65 149.493 305.49C149.613 305.33 149.757 305.19 149.923 305.07C150.097 304.943 150.28 304.843 150.473 304.77C150.673 304.697 150.877 304.66 151.083 304.66C151.383 304.66 151.647 304.71 151.873 304.81C152.1 304.91 152.287 305.06 152.433 305.26C152.58 305.46 152.687 305.71 152.753 306.01L152.593 305.97L152.663 305.8C152.737 305.647 152.837 305.503 152.963 305.37C153.097 305.23 153.247 305.107 153.413 305C153.58 304.893 153.757 304.81 153.943 304.75C154.13 304.69 154.313 304.66 154.493 304.66C154.887 304.66 155.21 304.74 155.463 304.9C155.723 305.06 155.917 305.303 156.043 305.63C156.177 305.957 156.243 306.363 156.243 306.85V310H155.203V306.91C155.203 306.61 155.163 306.367 155.083 306.18C155.01 305.987 154.897 305.843 154.743 305.75C154.59 305.657 154.393 305.61 154.153 305.61C153.967 305.61 153.79 305.643 153.623 305.71C153.463 305.77 153.323 305.857 153.203 305.97C153.083 306.083 152.99 306.217 152.923 306.37C152.857 306.517 152.823 306.68 152.823 306.86V310H151.783V306.89C151.783 306.617 151.743 306.387 151.663 306.2C151.583 306.007 151.467 305.86 151.313 305.76C151.16 305.66 150.973 305.61 150.753 305.61C150.567 305.61 150.393 305.643 150.233 305.71C150.073 305.77 149.933 305.857 149.813 305.97C149.693 306.077 149.6 306.207 149.533 306.36C149.467 306.507 149.433 306.667 149.433 306.84V310H148.393ZM160.072 310.1C159.532 310.1 159.052 309.987 158.632 309.76C158.219 309.527 157.892 309.21 157.652 308.81C157.419 308.41 157.302 307.95 157.302 307.43C157.302 307.017 157.369 306.64 157.502 306.3C157.636 305.96 157.819 305.667 158.052 305.42C158.292 305.167 158.576 304.973 158.902 304.84C159.236 304.7 159.596 304.63 159.982 304.63C160.322 304.63 160.639 304.697 160.932 304.83C161.226 304.957 161.479 305.133 161.692 305.36C161.912 305.587 162.079 305.857 162.192 306.17C162.312 306.477 162.369 306.813 162.362 307.18L162.352 307.62H158.062L157.832 306.8H161.462L161.312 306.97V306.73C161.292 306.51 161.219 306.313 161.092 306.14C160.966 305.967 160.806 305.83 160.612 305.73C160.419 305.63 160.209 305.58 159.982 305.58C159.622 305.58 159.319 305.65 159.072 305.79C158.826 305.923 158.639 306.123 158.512 306.39C158.386 306.65 158.322 306.973 158.322 307.36C158.322 307.727 158.399 308.047 158.552 308.32C158.706 308.587 158.922 308.793 159.202 308.94C159.482 309.087 159.806 309.16 160.172 309.16C160.432 309.16 160.672 309.117 160.892 309.03C161.119 308.943 161.362 308.787 161.622 308.56L162.142 309.29C161.982 309.45 161.786 309.59 161.552 309.71C161.326 309.83 161.082 309.927 160.822 310C160.569 310.067 160.319 310.1 160.072 310.1Z" fill="black"/>
<path d="M250.14 310.1C249.76 310.1 249.407 310.05 249.08 309.95C248.76 309.85 248.467 309.7 248.2 309.5C247.94 309.293 247.707 309.04 247.5 308.74L248.24 307.89C248.567 308.357 248.88 308.68 249.18 308.86C249.48 309.04 249.837 309.13 250.25 309.13C250.503 309.13 250.733 309.09 250.94 309.01C251.147 308.93 251.31 308.82 251.43 308.68C251.55 308.54 251.61 308.38 251.61 308.2C251.61 308.08 251.59 307.967 251.55 307.86C251.51 307.753 251.447 307.657 251.36 307.57C251.28 307.483 251.173 307.403 251.04 307.33C250.913 307.257 250.763 307.193 250.59 307.14C250.417 307.08 250.217 307.03 249.99 306.99C249.63 306.917 249.317 306.82 249.05 306.7C248.783 306.58 248.56 306.43 248.38 306.25C248.2 306.07 248.067 305.867 247.98 305.64C247.893 305.407 247.85 305.147 247.85 304.86C247.85 304.58 247.91 304.32 248.03 304.08C248.157 303.84 248.327 303.633 248.54 303.46C248.76 303.28 249.017 303.143 249.31 303.05C249.603 302.95 249.92 302.9 250.26 302.9C250.62 302.9 250.95 302.947 251.25 303.04C251.55 303.133 251.817 303.273 252.05 303.46C252.283 303.64 252.477 303.863 252.63 304.13L251.87 304.88C251.737 304.66 251.587 304.477 251.42 304.33C251.253 304.177 251.07 304.063 250.87 303.99C250.67 303.91 250.457 303.87 250.23 303.87C249.97 303.87 249.743 303.91 249.55 303.99C249.357 304.07 249.203 304.183 249.09 304.33C248.983 304.47 248.93 304.637 248.93 304.83C248.93 304.97 248.957 305.1 249.01 305.22C249.063 305.333 249.143 305.437 249.25 305.53C249.363 305.617 249.513 305.697 249.7 305.77C249.887 305.837 250.11 305.897 250.37 305.95C250.737 306.03 251.063 306.133 251.35 306.26C251.637 306.38 251.88 306.523 252.08 306.69C252.28 306.857 252.43 307.043 252.53 307.25C252.637 307.457 252.69 307.68 252.69 307.92C252.69 308.367 252.587 308.753 252.38 309.08C252.173 309.407 251.88 309.66 251.5 309.84C251.12 310.013 250.667 310.1 250.14 310.1ZM256.41 310.1C255.87 310.1 255.39 309.987 254.97 309.76C254.557 309.527 254.23 309.21 253.99 308.81C253.757 308.41 253.64 307.95 253.64 307.43C253.64 307.017 253.707 306.64 253.84 306.3C253.974 305.96 254.157 305.667 254.39 305.42C254.63 305.167 254.914 304.973 255.24 304.84C255.574 304.7 255.934 304.63 256.32 304.63C256.66 304.63 256.977 304.697 257.27 304.83C257.564 304.957 257.817 305.133 258.03 305.36C258.25 305.587 258.417 305.857 258.53 306.17C258.65 306.477 258.707 306.813 258.7 307.18L258.69 307.62H254.4L254.17 306.8H257.8L257.65 306.97V306.73C257.63 306.51 257.557 306.313 257.43 306.14C257.304 305.967 257.144 305.83 256.95 305.73C256.757 305.63 256.547 305.58 256.32 305.58C255.96 305.58 255.657 305.65 255.41 305.79C255.164 305.923 254.977 306.123 254.85 306.39C254.724 306.65 254.66 306.973 254.66 307.36C254.66 307.727 254.737 308.047 254.89 308.32C255.044 308.587 255.26 308.793 255.54 308.94C255.82 309.087 256.144 309.16 256.51 309.16C256.77 309.16 257.01 309.117 257.23 309.03C257.457 308.943 257.7 308.787 257.96 308.56L258.48 309.29C258.32 309.45 258.124 309.59 257.89 309.71C257.664 309.83 257.42 309.927 257.16 310C256.907 310.067 256.657 310.1 256.41 310.1ZM259.82 310V304.75H260.86V306.4L260.76 306C260.833 305.747 260.956 305.517 261.13 305.31C261.31 305.103 261.513 304.94 261.74 304.82C261.973 304.7 262.213 304.64 262.46 304.64C262.573 304.64 262.68 304.65 262.78 304.67C262.886 304.69 262.97 304.713 263.03 304.74L262.76 305.86C262.68 305.827 262.59 305.8 262.49 305.78C262.396 305.753 262.303 305.74 262.21 305.74C262.03 305.74 261.856 305.777 261.69 305.85C261.53 305.917 261.386 306.013 261.26 306.14C261.14 306.26 261.043 306.403 260.97 306.57C260.896 306.73 260.86 306.907 260.86 307.1V310H259.82ZM264.023 310V304.75H265.053V310H264.023ZM264.523 303.59C264.303 303.59 264.133 303.533 264.013 303.42C263.893 303.307 263.833 303.147 263.833 302.94C263.833 302.747 263.893 302.59 264.013 302.47C264.139 302.35 264.309 302.29 264.523 302.29C264.743 302.29 264.913 302.347 265.033 302.46C265.153 302.573 265.213 302.733 265.213 302.94C265.213 303.133 265.149 303.29 265.023 303.41C264.903 303.53 264.736 303.59 264.523 303.59ZM268.656 310.1C268.223 310.1 267.826 309.98 267.466 309.74C267.113 309.5 266.829 309.173 266.616 308.76C266.403 308.347 266.296 307.88 266.296 307.36C266.296 306.833 266.403 306.367 266.616 305.96C266.836 305.547 267.129 305.223 267.496 304.99C267.869 304.757 268.286 304.64 268.746 304.64C269.019 304.64 269.269 304.68 269.496 304.76C269.723 304.84 269.919 304.953 270.086 305.1C270.259 305.24 270.399 305.403 270.506 305.59C270.619 305.777 270.689 305.977 270.716 306.19L270.486 306.11V304.75H271.526V310H270.486V308.75L270.726 308.68C270.686 308.86 270.603 309.037 270.476 309.21C270.356 309.377 270.199 309.527 270.006 309.66C269.819 309.793 269.609 309.9 269.376 309.98C269.149 310.06 268.909 310.1 268.656 310.1ZM268.926 309.15C269.239 309.15 269.516 309.073 269.756 308.92C269.996 308.767 270.183 308.557 270.316 308.29C270.456 308.017 270.526 307.707 270.526 307.36C270.526 307.02 270.456 306.717 270.316 306.45C270.183 306.183 269.996 305.973 269.756 305.82C269.516 305.667 269.239 305.59 268.926 305.59C268.619 305.59 268.346 305.667 268.106 305.82C267.873 305.973 267.686 306.183 267.546 306.45C267.413 306.717 267.346 307.02 267.346 307.36C267.346 307.707 267.413 308.017 267.546 308.29C267.686 308.557 267.873 308.767 268.106 308.92C268.346 309.073 268.619 309.15 268.926 309.15ZM272.984 310V302.6H274.014V310H272.984ZM278.537 310V303H279.507L283.787 308.73L283.627 308.82C283.6 308.653 283.577 308.473 283.557 308.28C283.537 308.08 283.517 307.87 283.497 307.65C283.483 307.423 283.47 307.187 283.457 306.94C283.45 306.687 283.443 306.423 283.437 306.15C283.43 305.877 283.427 305.593 283.427 305.3V303H284.507V310H283.517L279.307 304.48L279.417 304.34C279.45 304.747 279.477 305.093 279.497 305.38C279.523 305.66 279.543 305.9 279.557 306.1C279.577 306.293 279.59 306.453 279.597 306.58C279.603 306.7 279.607 306.8 279.607 306.88C279.613 306.96 279.617 307.03 279.617 307.09V310H278.537ZM288.046 310.1C287.673 310.1 287.346 310.013 287.066 309.84C286.793 309.667 286.58 309.423 286.426 309.11C286.28 308.797 286.206 308.423 286.206 307.99V304.75H287.236V307.71C287.236 308.017 287.283 308.283 287.376 308.51C287.476 308.73 287.616 308.9 287.796 309.02C287.983 309.14 288.206 309.2 288.466 309.2C288.66 309.2 288.836 309.17 288.996 309.11C289.156 309.043 289.293 308.953 289.406 308.84C289.526 308.727 289.62 308.59 289.686 308.43C289.753 308.27 289.786 308.097 289.786 307.91V304.75H290.816V310H289.786V308.9L289.966 308.78C289.886 309.027 289.75 309.25 289.556 309.45C289.37 309.65 289.146 309.81 288.886 309.93C288.626 310.043 288.346 310.1 288.046 310.1ZM292.241 310V304.75H293.281V305.87L293.091 305.99C293.144 305.817 293.228 305.65 293.341 305.49C293.461 305.33 293.604 305.19 293.771 305.07C293.944 304.943 294.128 304.843 294.321 304.77C294.521 304.697 294.724 304.66 294.931 304.66C295.231 304.66 295.494 304.71 295.721 304.81C295.948 304.91 296.134 305.06 296.281 305.26C296.428 305.46 296.534 305.71 296.601 306.01L296.441 305.97L296.511 305.8C296.584 305.647 296.684 305.503 296.811 305.37C296.944 305.23 297.094 305.107 297.261 305C297.428 304.893 297.604 304.81 297.791 304.75C297.978 304.69 298.161 304.66 298.341 304.66C298.734 304.66 299.058 304.74 299.311 304.9C299.571 305.06 299.764 305.303 299.891 305.63C300.024 305.957 300.091 306.363 300.091 306.85V310H299.051V306.91C299.051 306.61 299.011 306.367 298.931 306.18C298.858 305.987 298.744 305.843 298.591 305.75C298.438 305.657 298.241 305.61 298.001 305.61C297.814 305.61 297.638 305.643 297.471 305.71C297.311 305.77 297.171 305.857 297.051 305.97C296.931 306.083 296.838 306.217 296.771 306.37C296.704 306.517 296.671 306.68 296.671 306.86V310H295.631V306.89C295.631 306.617 295.591 306.387 295.511 306.2C295.431 306.007 295.314 305.86 295.161 305.76C295.008 305.66 294.821 305.61 294.601 305.61C294.414 305.61 294.241 305.643 294.081 305.71C293.921 305.77 293.781 305.857 293.661 305.97C293.541 306.077 293.448 306.207 293.381 306.36C293.314 306.507 293.281 306.667 293.281 306.84V310H292.241ZM304.23 310.1C304.003 310.1 303.777 310.063 303.55 309.99C303.33 309.917 303.127 309.82 302.94 309.7C302.76 309.573 302.607 309.437 302.48 309.29C302.36 309.137 302.28 308.983 302.24 308.83L302.5 308.69V309.97H301.47V302.6H302.5V305.95L302.34 305.86C302.373 305.707 302.447 305.56 302.56 305.42C302.673 305.273 302.817 305.143 302.99 305.03C303.17 304.91 303.363 304.817 303.57 304.75C303.777 304.677 303.987 304.64 304.2 304.64C304.673 304.64 305.093 304.757 305.46 304.99C305.827 305.223 306.117 305.547 306.33 305.96C306.543 306.367 306.65 306.833 306.65 307.36C306.65 307.887 306.543 308.357 306.33 308.77C306.123 309.183 305.837 309.51 305.47 309.75C305.103 309.983 304.69 310.1 304.23 310.1ZM304.06 309.16C304.367 309.16 304.64 309.083 304.88 308.93C305.12 308.77 305.31 308.557 305.45 308.29C305.59 308.017 305.66 307.707 305.66 307.36C305.66 307.02 305.59 306.717 305.45 306.45C305.317 306.177 305.13 305.963 304.89 305.81C304.65 305.657 304.373 305.58 304.06 305.58C303.747 305.58 303.47 305.657 303.23 305.81C302.99 305.963 302.8 306.177 302.66 306.45C302.52 306.717 302.45 307.02 302.45 307.36C302.45 307.707 302.52 308.017 302.66 308.29C302.8 308.557 302.99 308.77 303.23 308.93C303.47 309.083 303.747 309.16 304.06 309.16ZM310.219 310.1C309.679 310.1 309.199 309.987 308.779 309.76C308.365 309.527 308.039 309.21 307.799 308.81C307.565 308.41 307.449 307.95 307.449 307.43C307.449 307.017 307.515 306.64 307.649 306.3C307.782 305.96 307.965 305.667 308.199 305.42C308.439 305.167 308.722 304.973 309.049 304.84C309.382 304.7 309.742 304.63 310.129 304.63C310.469 304.63 310.785 304.697 311.079 304.83C311.372 304.957 311.625 305.133 311.839 305.36C312.059 305.587 312.225 305.857 312.339 306.17C312.459 306.477 312.515 306.813 312.509 307.18L312.499 307.62H308.209L307.979 306.8H311.609L311.459 306.97V306.73C311.439 306.51 311.365 306.313 311.239 306.14C311.112 305.967 310.952 305.83 310.759 305.73C310.565 305.63 310.355 305.58 310.129 305.58C309.769 305.58 309.465 305.65 309.219 305.79C308.972 305.923 308.785 306.123 308.659 306.39C308.532 306.65 308.469 306.973 308.469 307.36C308.469 307.727 308.545 308.047 308.699 308.32C308.852 308.587 309.069 308.793 309.349 308.94C309.629 309.087 309.952 309.16 310.319 309.16C310.579 309.16 310.819 309.117 311.039 309.03C311.265 308.943 311.509 308.787 311.769 308.56L312.289 309.29C312.129 309.45 311.932 309.59 311.699 309.71C311.472 309.83 311.229 309.927 310.969 310C310.715 310.067 310.465 310.1 310.219 310.1ZM313.628 310V304.75H314.668V306.4L314.568 306C314.642 305.747 314.765 305.517 314.938 305.31C315.118 305.103 315.322 304.94 315.548 304.82C315.782 304.7 316.022 304.64 316.268 304.64C316.382 304.64 316.488 304.65 316.588 304.67C316.695 304.69 316.778 304.713 316.838 304.74L316.568 305.86C316.488 305.827 316.398 305.8 316.298 305.78C316.205 305.753 316.112 305.74 316.018 305.74C315.838 305.74 315.665 305.777 315.498 305.85C315.338 305.917 315.195 306.013 315.068 306.14C314.948 306.26 314.852 306.403 314.778 306.57C314.705 306.73 314.668 306.907 314.668 307.1V310H313.628Z" fill="#3B3B3B"/>
<rect x="116" y="329" width="67" height="7" rx="3.5" fill="#E4E6EA"/>
<rect x="256" y="329" width="67" height="7" rx="3.5" fill="#E4E6EA"/>
<rect x="107.25" y="319.25" width="115.5" height="26.5" rx="3.75" stroke="#999999" stroke-opacity="0.27" stroke-width="0.5"/>
<rect x="247.25" y="319.25" width="115.5" height="26.5" rx="3.75" stroke="#999999" stroke-opacity="0.27" stroke-width="0.5"/>
<defs>
<filter id="filter0_d_110_608" x="91.9" y="184.9" width="295.2" height="98.2" filterUnits="userSpaceOnUse" color-interpolation-filters="sRGB">
<feFlood flood-opacity="0" result="BackgroundImageFix"/>
<feColorMatrix in="SourceAlpha" type="matrix" values="0 0 0 0 0 0 0 0 0 0 0 0 0 0 0 0 0 0 127 0" result="hardAlpha"/>
<feMorphology radius="5" operator="dilate" in="SourceAlpha" result="effect1_dropShadow_110_608"/>
<feOffset dy="4"/>
<feGaussianBlur stdDeviation="5.05"/>
<feComposite in2="hardAlpha" operator="out"/>
<feColorMatrix type="matrix" values="0 0 0 0 0 0 0 0 0 0 0 0 0 0 0 0 0 0 0.06 0"/>
<feBlend mode="normal" in2="BackgroundImageFix" result="effect1_dropShadow_110_608"/>
<feBlend mode="normal" in="SourceGraphic" in2="effect1_dropShadow_110_608" result="shape"/>
</filter>
</defs>
</svg>
