<svg width="480" height="540" viewBox="0 0 480 540" fill="none" xmlns="http://www.w3.org/2000/svg">
<path d="M85 76H396C405.389 76 413 83.6112 413 93V447C413 456.389 405.389 464 396 464H85C75.6111 464 68 456.389 68 447V93C68 83.6112 75.6111 76 85 76Z" fill="#F1F5F7"/>
<path d="M89.09 121L83.231 106.3H86.57L89.636 114.259C89.804 114.693 89.944 115.078 90.056 115.414C90.182 115.736 90.287 116.044 90.371 116.338C90.469 116.618 90.56 116.898 90.644 117.178C90.728 117.444 90.812 117.738 90.896 118.06L90.287 118.081C90.399 117.647 90.504 117.248 90.602 116.884C90.714 116.506 90.84 116.114 90.98 115.708C91.134 115.288 91.316 114.805 91.526 114.259L94.424 106.3H97.742L91.841 121H89.09ZM99.7137 121V109.891H102.696V121H99.7137ZM101.184 107.623C100.61 107.623 100.162 107.483 99.8397 107.203C99.5177 106.909 99.3567 106.503 99.3567 105.985C99.3567 105.509 99.5177 105.124 99.8397 104.83C100.176 104.522 100.624 104.368 101.184 104.368C101.758 104.368 102.206 104.515 102.528 104.809C102.85 105.089 103.011 105.481 103.011 105.985C103.011 106.461 102.843 106.853 102.507 107.161C102.185 107.469 101.744 107.623 101.184 107.623ZM109.619 121.21C108.583 121.21 107.659 121.042 106.847 120.706C106.049 120.356 105.405 119.88 104.915 119.278L106.784 117.682C107.204 118.144 107.68 118.48 108.212 118.69C108.744 118.886 109.276 118.984 109.808 118.984C110.018 118.984 110.207 118.963 110.375 118.921C110.557 118.865 110.711 118.795 110.837 118.711C110.963 118.613 111.054 118.501 111.11 118.375C111.18 118.235 111.215 118.088 111.215 117.934C111.215 117.626 111.089 117.388 110.837 117.22C110.697 117.136 110.48 117.045 110.186 116.947C109.892 116.835 109.514 116.716 109.052 116.59C108.338 116.408 107.729 116.198 107.225 115.96C106.735 115.708 106.343 115.428 106.049 115.12C105.797 114.826 105.601 114.511 105.461 114.175C105.335 113.825 105.272 113.44 105.272 113.02C105.272 112.516 105.384 112.061 105.608 111.655C105.832 111.235 106.14 110.878 106.532 110.584C106.938 110.29 107.4 110.066 107.918 109.912C108.436 109.744 108.982 109.66 109.556 109.66C110.13 109.66 110.69 109.73 111.236 109.87C111.782 110.01 112.286 110.213 112.748 110.479C113.224 110.731 113.637 111.032 113.987 111.382L112.391 113.146C112.139 112.908 111.852 112.691 111.53 112.495C111.222 112.299 110.9 112.145 110.564 112.033C110.228 111.921 109.927 111.865 109.661 111.865C109.423 111.865 109.206 111.886 109.01 111.928C108.828 111.97 108.674 112.04 108.548 112.138C108.422 112.222 108.324 112.327 108.254 112.453C108.198 112.579 108.17 112.719 108.17 112.873C108.17 113.027 108.205 113.174 108.275 113.314C108.359 113.454 108.471 113.573 108.611 113.671C108.765 113.755 108.989 113.853 109.283 113.965C109.591 114.077 110.004 114.203 110.522 114.343C111.194 114.525 111.761 114.728 112.223 114.952C112.699 115.176 113.077 115.435 113.357 115.729C113.595 115.981 113.77 116.268 113.882 116.59C113.994 116.912 114.05 117.269 114.05 117.661C114.05 118.347 113.854 118.956 113.462 119.488C113.084 120.02 112.559 120.44 111.887 120.748C111.215 121.056 110.459 121.21 109.619 121.21ZM116.428 121V109.891H119.41V121H116.428ZM117.898 107.623C117.324 107.623 116.876 107.483 116.554 107.203C116.232 106.909 116.071 106.503 116.071 105.985C116.071 105.509 116.232 105.124 116.554 104.83C116.89 104.522 117.338 104.368 117.898 104.368C118.472 104.368 118.92 104.515 119.242 104.809C119.564 105.089 119.725 105.481 119.725 105.985C119.725 106.461 119.557 106.853 119.221 107.161C118.899 107.469 118.458 107.623 117.898 107.623ZM123.666 121V107.077H126.648V121H123.666ZM121.587 112.558V109.891H128.937V112.558H121.587ZM135.923 121.21C134.789 121.21 133.774 120.965 132.878 120.475C131.996 119.971 131.296 119.285 130.778 118.417C130.274 117.549 130.022 116.555 130.022 115.435C130.022 114.315 130.274 113.321 130.778 112.453C131.296 111.585 131.996 110.906 132.878 110.416C133.774 109.912 134.789 109.66 135.923 109.66C137.043 109.66 138.044 109.912 138.926 110.416C139.822 110.906 140.522 111.585 141.026 112.453C141.53 113.321 141.782 114.315 141.782 115.435C141.782 116.555 141.53 117.549 141.026 118.417C140.522 119.285 139.822 119.971 138.926 120.475C138.044 120.965 137.043 121.21 135.923 121.21ZM135.923 118.606C136.469 118.606 136.959 118.473 137.393 118.207C137.827 117.927 138.163 117.549 138.401 117.073C138.653 116.583 138.772 116.037 138.758 115.435C138.772 114.819 138.653 114.273 138.401 113.797C138.163 113.307 137.827 112.929 137.393 112.663C136.959 112.383 136.469 112.243 135.923 112.243C135.363 112.243 134.866 112.383 134.432 112.663C133.998 112.943 133.655 113.321 133.403 113.797C133.151 114.273 133.032 114.819 133.046 115.435C133.032 116.037 133.151 116.583 133.403 117.073C133.655 117.549 133.998 117.927 134.432 118.207C134.866 118.473 135.363 118.606 135.923 118.606ZM144.046 121V109.891H146.923L147.028 113.461L146.524 112.726C146.692 112.152 146.965 111.634 147.343 111.172C147.721 110.696 148.162 110.325 148.666 110.059C149.184 109.793 149.723 109.66 150.283 109.66C150.521 109.66 150.752 109.681 150.976 109.723C151.2 109.765 151.389 109.814 151.543 109.87L150.745 113.146C150.591 113.062 150.388 112.992 150.136 112.936C149.898 112.866 149.653 112.831 149.401 112.831C149.065 112.831 148.75 112.894 148.456 113.02C148.176 113.132 147.931 113.3 147.721 113.524C147.511 113.734 147.343 113.986 147.217 114.28C147.105 114.574 147.049 114.896 147.049 115.246V121H144.046ZM156.992 121.21C155.956 121.21 155.032 121.042 154.22 120.706C153.422 120.356 152.778 119.88 152.288 119.278L154.157 117.682C154.577 118.144 155.053 118.48 155.585 118.69C156.117 118.886 156.649 118.984 157.181 118.984C157.391 118.984 157.58 118.963 157.748 118.921C157.93 118.865 158.084 118.795 158.21 118.711C158.336 118.613 158.427 118.501 158.483 118.375C158.553 118.235 158.588 118.088 158.588 117.934C158.588 117.626 158.462 117.388 158.21 117.22C158.07 117.136 157.853 117.045 157.559 116.947C157.265 116.835 156.887 116.716 156.425 116.59C155.711 116.408 155.102 116.198 154.598 115.96C154.108 115.708 153.716 115.428 153.422 115.12C153.17 114.826 152.974 114.511 152.834 114.175C152.708 113.825 152.645 113.44 152.645 113.02C152.645 112.516 152.757 112.061 152.981 111.655C153.205 111.235 153.513 110.878 153.905 110.584C154.311 110.29 154.773 110.066 155.291 109.912C155.809 109.744 156.355 109.66 156.929 109.66C157.503 109.66 158.063 109.73 158.609 109.87C159.155 110.01 159.659 110.213 160.121 110.479C160.597 110.731 161.01 111.032 161.36 111.382L159.764 113.146C159.512 112.908 159.225 112.691 158.903 112.495C158.595 112.299 158.273 112.145 157.937 112.033C157.601 111.921 157.3 111.865 157.034 111.865C156.796 111.865 156.579 111.886 156.383 111.928C156.201 111.97 156.047 112.04 155.921 112.138C155.795 112.222 155.697 112.327 155.627 112.453C155.571 112.579 155.543 112.719 155.543 112.873C155.543 113.027 155.578 113.174 155.648 113.314C155.732 113.454 155.844 113.573 155.984 113.671C156.138 113.755 156.362 113.853 156.656 113.965C156.964 114.077 157.377 114.203 157.895 114.343C158.567 114.525 159.134 114.728 159.596 114.952C160.072 115.176 160.45 115.435 160.73 115.729C160.968 115.981 161.143 116.268 161.255 116.59C161.367 116.912 161.423 117.269 161.423 117.661C161.423 118.347 161.227 118.956 160.835 119.488C160.457 120.02 159.932 120.44 159.26 120.748C158.588 121.056 157.832 121.21 156.992 121.21Z" fill="black"/>
<rect x="157.136" y="150.136" width="147.727" height="294.318" rx="11.3636" fill="#F1F5F7" stroke="black" stroke-width="2.27272"/>
<g clip-path="url(#clip0_598_2515)">
<path d="M292.324 156.264H285.661C285.405 156.265 285.161 156.367 284.98 156.547C284.8 156.728 284.698 156.972 284.697 157.228V159.796C284.698 160.052 284.8 160.296 284.98 160.477C285.161 160.657 285.405 160.759 285.661 160.76H292.324C292.579 160.759 292.824 160.657 293.004 160.477C293.185 160.296 293.286 160.052 293.287 159.796V157.228C293.286 156.972 293.185 156.728 293.004 156.547C292.824 156.367 292.579 156.265 292.324 156.264ZM292.725 159.796C292.725 159.903 292.683 160.005 292.608 160.08C292.532 160.156 292.43 160.199 292.324 160.199H285.661C285.554 160.199 285.452 160.156 285.377 160.081C285.302 160.006 285.26 159.904 285.259 159.798V157.228C285.26 157.121 285.302 157.019 285.377 156.944C285.452 156.869 285.554 156.827 285.661 156.826H292.324C292.43 156.827 292.532 156.869 292.607 156.944C292.682 157.019 292.725 157.121 292.725 157.228V159.796Z" fill="black"/>
<path d="M293.688 157.48V159.544C294.009 159.544 294.33 158.988 294.33 158.512C294.33 158.036 294.009 157.48 293.688 157.48Z" fill="black"/>
<path d="M292.083 157.228H285.901C285.837 157.228 285.776 157.253 285.731 157.298C285.686 157.343 285.66 157.404 285.66 157.468V159.556C285.66 159.619 285.686 159.68 285.731 159.726C285.776 159.771 285.837 159.796 285.901 159.796H292.083C292.147 159.796 292.208 159.771 292.253 159.726C292.298 159.68 292.323 159.619 292.324 159.556V157.468C292.323 157.404 292.298 157.343 292.253 157.298C292.208 157.253 292.147 157.228 292.083 157.228Z" fill="black"/>
<path d="M283.055 157.497C282.193 156.704 281.066 156.264 279.895 156.264C278.724 156.264 277.596 156.704 276.735 157.497C276.719 157.512 276.706 157.53 276.697 157.549C276.689 157.569 276.684 157.59 276.684 157.612C276.683 157.633 276.687 157.655 276.696 157.675C276.704 157.695 276.716 157.713 276.731 157.728L277.075 158.069C277.105 158.098 277.145 158.115 277.186 158.116C277.228 158.116 277.269 158.101 277.3 158.072C278.009 157.425 278.935 157.066 279.895 157.066C280.855 157.066 281.781 157.425 282.49 158.072C282.521 158.101 282.561 158.116 282.603 158.115C282.645 158.115 282.685 158.098 282.715 158.069L283.059 157.728C283.074 157.713 283.086 157.695 283.094 157.675C283.103 157.655 283.107 157.633 283.106 157.612C283.106 157.59 283.101 157.569 283.092 157.549C283.083 157.529 283.071 157.512 283.055 157.497ZM279.895 159.475C279.768 159.475 279.644 159.513 279.538 159.583C279.433 159.654 279.35 159.754 279.302 159.872C279.253 159.989 279.24 160.118 279.265 160.243C279.29 160.367 279.351 160.482 279.441 160.572C279.531 160.661 279.645 160.723 279.77 160.747C279.894 160.772 280.023 160.759 280.141 160.711C280.258 160.662 280.358 160.58 280.429 160.474C280.5 160.369 280.537 160.244 280.537 160.117C280.537 159.947 280.47 159.784 280.349 159.663C280.229 159.543 280.065 159.475 279.895 159.475ZM281.93 158.636C281.368 158.142 280.645 157.87 279.896 157.87C279.148 157.87 278.425 158.142 277.862 158.636C277.846 158.651 277.833 158.669 277.824 158.688C277.814 158.708 277.809 158.73 277.809 158.751C277.808 158.773 277.812 158.795 277.821 158.815C277.829 158.835 277.841 158.854 277.857 158.869L278.202 159.21C278.231 159.239 278.271 159.256 278.312 159.258C278.353 159.259 278.394 159.245 278.425 159.218C278.835 158.866 279.357 158.672 279.897 158.672C280.438 158.672 280.96 158.866 281.37 159.218C281.401 159.245 281.442 159.259 281.483 159.258C281.524 159.256 281.563 159.239 281.593 159.21L281.938 158.869C281.954 158.853 281.966 158.835 281.974 158.815C281.982 158.794 281.985 158.773 281.985 158.751C281.984 158.729 281.979 158.708 281.969 158.688C281.96 158.668 281.946 158.651 281.93 158.636Z" fill="black"/>
<path d="M271.583 158.793H271.161C271.124 158.793 271.088 158.808 271.062 158.834C271.035 158.86 271.02 158.896 271.02 158.934V160.619C271.02 160.637 271.024 160.655 271.031 160.672C271.038 160.689 271.049 160.705 271.062 160.718C271.075 160.731 271.09 160.741 271.107 160.748C271.124 160.756 271.143 160.759 271.161 160.759H271.583C271.601 160.759 271.619 160.756 271.636 160.748C271.653 160.741 271.669 160.731 271.682 160.718C271.695 160.705 271.705 160.689 271.712 160.672C271.719 160.655 271.723 160.637 271.723 160.619V158.935C271.723 158.917 271.72 158.898 271.713 158.881C271.706 158.864 271.696 158.848 271.683 158.835C271.669 158.821 271.654 158.811 271.637 158.804C271.62 158.797 271.601 158.793 271.583 158.793ZM270.459 159.635H270.037C270 159.635 269.964 159.649 269.938 159.676C269.911 159.702 269.896 159.738 269.896 159.775V160.62C269.896 160.658 269.911 160.693 269.938 160.72C269.964 160.746 270 160.761 270.037 160.761H270.459C270.477 160.761 270.496 160.757 270.513 160.75C270.53 160.743 270.545 160.733 270.559 160.72C270.572 160.707 270.582 160.691 270.589 160.674C270.596 160.657 270.6 160.639 270.6 160.62V159.776C270.6 159.758 270.597 159.739 270.59 159.722C270.583 159.705 270.572 159.689 270.559 159.676C270.546 159.663 270.53 159.652 270.513 159.645C270.496 159.638 270.477 159.634 270.459 159.635ZM272.707 157.949H272.285C272.248 157.949 272.212 157.964 272.186 157.991C272.16 158.017 272.145 158.053 272.145 158.09V160.62C272.145 160.658 272.16 160.693 272.186 160.72C272.212 160.746 272.248 160.761 272.285 160.761H272.707C272.744 160.761 272.78 160.746 272.806 160.72C272.833 160.693 272.847 160.658 272.847 160.62V158.091C272.847 158.072 272.844 158.054 272.837 158.036C272.83 158.019 272.819 158.004 272.806 157.991C272.793 157.977 272.778 157.967 272.76 157.96C272.743 157.953 272.725 157.949 272.707 157.949ZM273.831 157.107H273.409C273.372 157.107 273.336 157.121 273.31 157.148C273.283 157.174 273.268 157.21 273.268 157.247V160.62C273.268 160.658 273.283 160.693 273.31 160.72C273.336 160.746 273.372 160.761 273.409 160.761H273.831C273.868 160.761 273.903 160.746 273.929 160.719C273.956 160.693 273.97 160.657 273.97 160.62V157.248C273.97 157.21 273.956 157.175 273.929 157.148C273.903 157.122 273.867 157.107 273.83 157.107L273.831 157.107ZM274.954 156.264H274.533C274.495 156.264 274.46 156.279 274.433 156.305C274.407 156.332 274.392 156.368 274.392 156.405V160.62C274.392 160.658 274.407 160.693 274.433 160.72C274.46 160.746 274.495 160.761 274.533 160.761H274.954C274.991 160.761 275.027 160.746 275.054 160.72C275.08 160.693 275.095 160.658 275.095 160.62V156.405C275.095 156.368 275.08 156.332 275.054 156.305C275.027 156.279 274.991 156.264 274.954 156.264Z" fill="black"/>
<path d="M169.274 159.026H169.255C169.15 159.077 169.026 159.102 168.883 159.102C168.762 159.102 168.64 159.082 168.516 159.04C168.392 158.999 168.279 158.935 168.177 158.85C168.079 158.76 167.998 158.649 167.934 158.516C167.871 158.379 167.839 158.218 167.839 158.034C167.839 157.85 167.869 157.687 167.929 157.547C167.993 157.404 168.077 157.285 168.182 157.19C168.287 157.094 168.41 157.023 168.549 156.975C168.689 156.924 168.839 156.899 168.998 156.899C169.157 156.899 169.306 156.924 169.446 156.975C169.586 157.026 169.708 157.099 169.813 157.195C169.918 157.29 170.001 157.404 170.061 157.538C170.125 157.671 170.157 157.821 170.157 157.986C170.157 158.091 170.149 158.187 170.133 158.272C170.117 158.358 170.093 158.441 170.061 158.52C170.033 158.597 169.998 158.673 169.956 158.749C169.915 158.826 169.869 158.904 169.818 158.983L168.964 160.333H168.425L169.274 159.026ZM169.699 158.001C169.699 157.899 169.681 157.805 169.646 157.719C169.615 157.633 169.567 157.56 169.503 157.5C169.443 157.436 169.37 157.387 169.284 157.352C169.198 157.317 169.103 157.299 168.998 157.299C168.893 157.299 168.797 157.317 168.712 157.352C168.626 157.387 168.551 157.436 168.487 157.5C168.427 157.56 168.379 157.633 168.344 157.719C168.313 157.805 168.297 157.899 168.297 158.001C168.297 158.102 168.313 158.196 168.344 158.282C168.379 158.368 168.427 158.443 168.487 158.506C168.551 158.567 168.626 158.614 168.712 158.649C168.797 158.684 168.893 158.702 168.998 158.702C169.103 158.702 169.198 158.684 169.284 158.649C169.37 158.614 169.443 158.567 169.503 158.506C169.567 158.443 169.615 158.368 169.646 158.282C169.681 158.196 169.699 158.102 169.699 158.001ZM170.985 158.673C170.899 158.673 170.824 158.643 170.761 158.582C170.7 158.519 170.67 158.444 170.67 158.358C170.67 158.272 170.7 158.199 170.761 158.139C170.824 158.075 170.899 158.043 170.985 158.043C171.071 158.043 171.144 158.075 171.204 158.139C171.268 158.199 171.3 158.272 171.3 158.358C171.3 158.444 171.268 158.519 171.204 158.582C171.144 158.643 171.071 158.673 170.985 158.673ZM170.67 160.047C170.67 159.961 170.7 159.888 170.761 159.827C170.824 159.764 170.899 159.732 170.985 159.732C171.071 159.732 171.144 159.764 171.204 159.827C171.268 159.888 171.3 159.961 171.3 160.047C171.3 160.132 171.268 160.207 171.204 160.271C171.144 160.331 171.071 160.361 170.985 160.361C170.899 160.361 170.824 160.331 170.761 160.271C170.7 160.207 170.67 160.132 170.67 160.047ZM173.252 159.589H171.812V159.121L173.157 156.956H173.71V159.188H174.187V159.589H173.71V160.333H173.252V159.589ZM173.252 157.5H173.242L172.212 159.188H173.252V157.5ZM175.587 157.481L174.967 158.053L174.7 157.733L175.64 156.956H176.045V160.333H175.587V157.481Z" fill="black"/>
</g>
<path d="M214.432 180.926L211.104 190H208.894L205.566 180.926H207.516L210.012 188.141L212.495 180.926H214.432ZM216.446 181.94C216.125 181.94 215.857 181.84 215.64 181.641C215.432 181.433 215.328 181.177 215.328 180.874C215.328 180.571 215.432 180.319 215.64 180.12C215.857 179.912 216.125 179.808 216.446 179.808C216.767 179.808 217.031 179.912 217.239 180.12C217.456 180.319 217.564 180.571 217.564 180.874C217.564 181.177 217.456 181.433 217.239 181.641C217.031 181.84 216.767 181.94 216.446 181.94ZM217.343 182.798V190H215.523V182.798H217.343ZM221.897 190.117C221.308 190.117 220.779 190.013 220.311 189.805C219.843 189.588 219.47 189.298 219.193 188.934C218.924 188.57 218.777 188.167 218.751 187.725H220.584C220.619 188.002 220.753 188.232 220.987 188.414C221.23 188.596 221.529 188.687 221.884 188.687C222.231 188.687 222.499 188.618 222.69 188.479C222.889 188.34 222.989 188.163 222.989 187.946C222.989 187.712 222.868 187.539 222.625 187.426C222.391 187.305 222.014 187.175 221.494 187.036C220.957 186.906 220.515 186.772 220.168 186.633C219.83 186.494 219.535 186.282 219.284 185.996C219.041 185.71 218.92 185.324 218.92 184.839C218.92 184.44 219.033 184.076 219.258 183.747C219.492 183.418 219.821 183.158 220.246 182.967C220.679 182.776 221.186 182.681 221.767 182.681C222.625 182.681 223.31 182.898 223.821 183.331C224.332 183.756 224.614 184.332 224.666 185.06H222.924C222.898 184.774 222.777 184.549 222.56 184.384C222.352 184.211 222.07 184.124 221.715 184.124C221.386 184.124 221.13 184.185 220.948 184.306C220.775 184.427 220.688 184.596 220.688 184.813C220.688 185.056 220.809 185.242 221.052 185.372C221.295 185.493 221.672 185.619 222.183 185.749C222.703 185.879 223.132 186.013 223.47 186.152C223.808 186.291 224.098 186.507 224.341 186.802C224.592 187.088 224.722 187.469 224.731 187.946C224.731 188.362 224.614 188.735 224.38 189.064C224.155 189.393 223.825 189.653 223.392 189.844C222.967 190.026 222.469 190.117 221.897 190.117ZM227.148 181.94C226.827 181.94 226.559 181.84 226.342 181.641C226.134 181.433 226.03 181.177 226.03 180.874C226.03 180.571 226.134 180.319 226.342 180.12C226.559 179.912 226.827 179.808 227.148 179.808C227.469 179.808 227.733 179.912 227.941 180.12C228.158 180.319 228.266 180.571 228.266 180.874C228.266 181.177 228.158 181.433 227.941 181.641C227.733 181.84 227.469 181.94 227.148 181.94ZM228.045 182.798V190H226.225V182.798H228.045ZM231.962 184.293V187.777C231.962 188.02 232.019 188.197 232.131 188.31C232.253 188.414 232.452 188.466 232.729 188.466H233.574V190H232.43C230.896 190 230.129 189.255 230.129 187.764V184.293H229.271V182.798H230.129V181.017H231.962V182.798H233.574V184.293H231.962ZM238.081 190.117C237.388 190.117 236.764 189.965 236.209 189.662C235.655 189.35 235.217 188.912 234.896 188.349C234.584 187.786 234.428 187.136 234.428 186.399C234.428 185.662 234.589 185.012 234.909 184.449C235.239 183.886 235.685 183.452 236.248 183.149C236.812 182.837 237.44 182.681 238.133 182.681C238.827 182.681 239.455 182.837 240.018 183.149C240.582 183.452 241.024 183.886 241.344 184.449C241.674 185.012 241.838 185.662 241.838 186.399C241.838 187.136 241.669 187.786 241.331 188.349C241.002 188.912 240.551 189.35 239.979 189.662C239.416 189.965 238.783 190.117 238.081 190.117ZM238.081 188.531C238.411 188.531 238.718 188.453 239.004 188.297C239.299 188.132 239.533 187.89 239.706 187.569C239.88 187.248 239.966 186.858 239.966 186.399C239.966 185.714 239.784 185.19 239.42 184.826C239.065 184.453 238.627 184.267 238.107 184.267C237.587 184.267 237.15 184.453 236.794 184.826C236.448 185.19 236.274 185.714 236.274 186.399C236.274 187.084 236.443 187.612 236.781 187.985C237.128 188.349 237.561 188.531 238.081 188.531ZM244.993 183.916C245.227 183.535 245.531 183.236 245.903 183.019C246.285 182.802 246.718 182.694 247.203 182.694V184.605H246.722C246.15 184.605 245.717 184.739 245.422 185.008C245.136 185.277 244.993 185.745 244.993 186.412V190H243.173V182.798H244.993V183.916ZM251.185 190.117C250.596 190.117 250.067 190.013 249.599 189.805C249.131 189.588 248.759 189.298 248.481 188.934C248.213 188.57 248.065 188.167 248.039 187.725H249.872C249.907 188.002 250.041 188.232 250.275 188.414C250.518 188.596 250.817 188.687 251.172 188.687C251.519 188.687 251.788 188.618 251.978 188.479C252.178 188.34 252.277 188.163 252.277 187.946C252.277 187.712 252.156 187.539 251.913 187.426C251.679 187.305 251.302 187.175 250.782 187.036C250.245 186.906 249.803 186.772 249.456 186.633C249.118 186.494 248.824 186.282 248.572 185.996C248.33 185.71 248.208 185.324 248.208 184.839C248.208 184.44 248.321 184.076 248.546 183.747C248.78 183.418 249.11 183.158 249.534 182.967C249.968 182.776 250.475 182.681 251.055 182.681C251.913 182.681 252.598 182.898 253.109 183.331C253.621 183.756 253.902 184.332 253.954 185.06H252.212C252.186 184.774 252.065 184.549 251.848 184.384C251.64 184.211 251.359 184.124 251.003 184.124C250.674 184.124 250.418 184.185 250.236 184.306C250.063 184.427 249.976 184.596 249.976 184.813C249.976 185.056 250.098 185.242 250.34 185.372C250.583 185.493 250.96 185.619 251.471 185.749C251.991 185.879 252.42 186.013 252.758 186.152C253.096 186.291 253.387 186.507 253.629 186.802C253.881 187.088 254.011 187.469 254.019 187.946C254.019 188.362 253.902 188.735 253.668 189.064C253.443 189.393 253.114 189.653 252.68 189.844C252.256 190.026 251.757 190.117 251.185 190.117Z" fill="#2C2C2C"/>
<path d="M168.809 184.992L172.781 181.218C172.922 181.084 173 180.902 173 180.713C173 180.524 172.92 180.342 172.779 180.208C172.639 180.075 172.448 180 172.249 180C172.05 180 171.859 180.076 171.719 180.21L167.218 184.492C167.082 184.622 167.004 184.797 167 184.98C166.996 185.164 167.067 185.341 167.197 185.477L171.715 189.79C171.856 189.924 172.047 190 172.245 190C172.444 190 172.635 189.925 172.776 189.792C172.917 189.658 172.996 189.476 172.997 189.287C172.997 189.098 172.918 188.916 172.778 188.782L168.809 184.992Z" fill="#2C2C2C"/>
<rect x="167" y="205" width="128" height="71" rx="5" fill="white"/>
<rect x="170" y="263" width="32" height="7" rx="3.5" fill="#1A89FA" fill-opacity="0.32"/>
<rect x="233" y="263" width="58" height="7" rx="3.5" fill="#FFD79D"/>
<rect x="170" y="230" width="83.3831" height="3.16645" rx="1.58322" fill="#E4E6EA"/>
<rect x="170" y="243" width="83.3831" height="3.16645" rx="1.58322" fill="#E4E6EA"/>
<rect x="170" y="236.333" width="68.6063" height="3.16645" rx="1.58322" fill="#E4E6EA"/>
<rect x="170" y="249.333" width="68.6063" height="3.16645" rx="1.58322" fill="#E4E6EA"/>
<rect x="174" y="265" width="17" height="2" rx="1" fill="#E8EBEE"/>
<rect x="239" y="265" width="48" height="2" rx="1" fill="#E8EBEE"/>
<path d="M172.544 219.08C172.363 219.08 172.189 219.056 172.024 219.008C171.859 218.96 171.704 218.891 171.56 218.8C171.421 218.709 171.296 218.603 171.184 218.48C171.072 218.352 170.976 218.213 170.896 218.064L171.44 217.496C171.552 217.656 171.653 217.784 171.744 217.88C171.84 217.976 171.931 218.051 172.016 218.104C172.101 218.157 172.187 218.195 172.272 218.216C172.357 218.232 172.448 218.24 172.544 218.24C172.736 218.24 172.904 218.197 173.048 218.112C173.192 218.021 173.304 217.899 173.384 217.744C173.464 217.589 173.504 217.413 173.504 217.216V214.2H172.48V213.4H175.232V214.2H174.368V217.296C174.368 217.552 174.323 217.789 174.232 218.008C174.147 218.221 174.021 218.408 173.856 218.568C173.696 218.728 173.504 218.853 173.28 218.944C173.061 219.035 172.816 219.08 172.544 219.08ZM177.694 219.08C177.284 219.08 176.916 218.987 176.59 218.8C176.27 218.608 176.017 218.349 175.83 218.024C175.644 217.693 175.55 217.317 175.55 216.896C175.55 216.475 175.644 216.101 175.83 215.776C176.017 215.445 176.27 215.187 176.59 215C176.916 214.808 177.284 214.712 177.694 214.712C178.1 214.712 178.462 214.808 178.782 215C179.108 215.187 179.364 215.445 179.55 215.776C179.737 216.101 179.83 216.475 179.83 216.896C179.83 217.317 179.737 217.693 179.55 218.024C179.364 218.349 179.108 218.608 178.782 218.8C178.462 218.987 178.1 219.08 177.694 219.08ZM177.694 218.328C177.945 218.328 178.169 218.267 178.366 218.144C178.564 218.016 178.718 217.845 178.83 217.632C178.942 217.413 178.996 217.168 178.99 216.896C178.996 216.619 178.942 216.373 178.83 216.16C178.718 215.941 178.564 215.771 178.366 215.648C178.169 215.525 177.945 215.464 177.694 215.464C177.444 215.464 177.217 215.528 177.014 215.656C176.817 215.779 176.662 215.949 176.55 216.168C176.438 216.381 176.385 216.624 176.39 216.896C176.385 217.168 176.438 217.413 176.55 217.632C176.662 217.845 176.817 218.016 177.014 218.144C177.217 218.267 177.444 218.328 177.694 218.328ZM180.728 219V213.08H181.552V215.664L181.408 215.76C181.462 215.573 181.566 215.403 181.72 215.248C181.875 215.088 182.059 214.96 182.272 214.864C182.486 214.763 182.704 214.712 182.928 214.712C183.248 214.712 183.515 214.776 183.728 214.904C183.942 215.027 184.102 215.216 184.208 215.472C184.315 215.728 184.368 216.051 184.368 216.44V219H183.544V216.496C183.544 216.256 183.512 216.059 183.448 215.904C183.384 215.744 183.286 215.629 183.152 215.56C183.019 215.485 182.854 215.453 182.656 215.464C182.496 215.464 182.35 215.491 182.216 215.544C182.083 215.592 181.966 215.661 181.864 215.752C181.768 215.843 181.691 215.949 181.632 216.072C181.579 216.189 181.552 216.317 181.552 216.456V219H181.144C181.075 219 181.006 219 180.936 219C180.867 219 180.798 219 180.728 219ZM185.486 219V214.8H186.31V215.664L186.166 215.76C186.219 215.573 186.323 215.403 186.478 215.248C186.633 215.088 186.817 214.96 187.03 214.864C187.243 214.763 187.462 214.712 187.686 214.712C188.006 214.712 188.273 214.776 188.486 214.904C188.699 215.027 188.859 215.216 188.966 215.472C189.073 215.728 189.126 216.051 189.126 216.44V219H188.302V216.496C188.302 216.256 188.27 216.059 188.206 215.904C188.142 215.744 188.043 215.629 187.91 215.56C187.777 215.485 187.611 215.453 187.414 215.464C187.254 215.464 187.107 215.491 186.974 215.544C186.841 215.592 186.723 215.661 186.622 215.752C186.526 215.843 186.449 215.949 186.39 216.072C186.337 216.189 186.31 216.317 186.31 216.456V219H185.902C185.833 219 185.763 219 185.694 219C185.625 219 185.555 219 185.486 219ZM192.694 219V213.4H194.886C195.286 213.4 195.646 213.467 195.966 213.6C196.291 213.733 196.569 213.925 196.798 214.176C197.027 214.427 197.203 214.723 197.326 215.064C197.449 215.405 197.51 215.784 197.51 216.2C197.51 216.616 197.449 216.997 197.326 217.344C197.203 217.685 197.027 217.981 196.798 218.232C196.574 218.477 196.299 218.667 195.974 218.8C195.649 218.933 195.286 219 194.886 219H192.694ZM193.558 218.256L193.534 218.168H194.846C195.129 218.168 195.379 218.123 195.598 218.032C195.822 217.941 196.009 217.813 196.158 217.648C196.313 217.477 196.43 217.269 196.51 217.024C196.59 216.779 196.63 216.504 196.63 216.2C196.63 215.896 196.59 215.624 196.51 215.384C196.43 215.139 196.313 214.931 196.158 214.76C196.003 214.589 195.817 214.459 195.598 214.368C195.379 214.277 195.129 214.232 194.846 214.232H193.51L193.558 214.16V218.256ZM200.359 219.08C199.948 219.08 199.58 218.987 199.255 218.8C198.935 218.608 198.681 218.349 198.495 218.024C198.308 217.693 198.215 217.317 198.215 216.896C198.215 216.475 198.308 216.101 198.495 215.776C198.681 215.445 198.935 215.187 199.255 215C199.58 214.808 199.948 214.712 200.359 214.712C200.764 214.712 201.127 214.808 201.447 215C201.772 215.187 202.028 215.445 202.215 215.776C202.401 216.101 202.495 216.475 202.495 216.896C202.495 217.317 202.401 217.693 202.215 218.024C202.028 218.349 201.772 218.608 201.447 218.8C201.127 218.987 200.764 219.08 200.359 219.08ZM200.359 218.328C200.609 218.328 200.833 218.267 201.031 218.144C201.228 218.016 201.383 217.845 201.495 217.632C201.607 217.413 201.66 217.168 201.655 216.896C201.66 216.619 201.607 216.373 201.495 216.16C201.383 215.941 201.228 215.771 201.031 215.648C200.833 215.525 200.609 215.464 200.359 215.464C200.108 215.464 199.881 215.528 199.679 215.656C199.481 215.779 199.327 215.949 199.215 216.168C199.103 216.381 199.049 216.624 199.055 216.896C199.049 217.168 199.103 217.413 199.215 217.632C199.327 217.845 199.481 218.016 199.679 218.144C199.881 218.267 200.108 218.328 200.359 218.328ZM205.352 219.08C204.92 219.08 204.536 218.989 204.2 218.808C203.87 218.621 203.608 218.368 203.416 218.048C203.23 217.728 203.136 217.36 203.136 216.944C203.136 216.613 203.19 216.312 203.296 216.04C203.403 215.768 203.55 215.533 203.736 215.336C203.928 215.133 204.155 214.979 204.416 214.872C204.683 214.76 204.971 214.704 205.28 214.704C205.552 214.704 205.806 214.757 206.04 214.864C206.275 214.965 206.478 215.107 206.648 215.288C206.824 215.469 206.958 215.685 207.048 215.936C207.144 216.181 207.19 216.451 207.184 216.744L207.176 217.096H203.744L203.56 216.44H206.464L206.344 216.576V216.384C206.328 216.208 206.27 216.051 206.168 215.912C206.067 215.773 205.939 215.664 205.784 215.584C205.63 215.504 205.462 215.464 205.28 215.464C204.992 215.464 204.75 215.52 204.552 215.632C204.355 215.739 204.206 215.899 204.104 216.112C204.003 216.32 203.952 216.579 203.952 216.888C203.952 217.181 204.014 217.437 204.136 217.656C204.259 217.869 204.432 218.035 204.656 218.152C204.88 218.269 205.139 218.328 205.432 218.328C205.64 218.328 205.832 218.293 206.008 218.224C206.19 218.155 206.384 218.029 206.592 217.848L207.008 218.432C206.88 218.56 206.723 218.672 206.536 218.768C206.355 218.864 206.16 218.941 205.952 219C205.75 219.053 205.55 219.08 205.352 219.08Z" fill="#1A89FA"/>
<defs>
<clipPath id="clip0_598_2515">
<rect width="126.658" height="6.35908" fill="white" transform="translate(167.672 155.333)"/>
</clipPath>
</defs>
</svg>
