<svg width="480" height="540" viewBox="0 0 480 540" fill="none" xmlns="http://www.w3.org/2000/svg">
<path d="M85 76H396C405.389 76 413 83.6112 413 93V447C413 456.389 405.389 464 396 464H85C75.6111 464 68 456.389 68 447V93C68 83.6112 75.6111 76 85 76Z" fill="#F1F5F7"/>
<path d="M87.704 121L83.231 106.3H86.465L88.859 114.511C88.957 114.805 89.041 115.127 89.111 115.477C89.195 115.813 89.258 116.142 89.3 116.464C89.356 116.772 89.398 117.066 89.426 117.346C89.468 117.612 89.503 117.836 89.531 118.018L89.027 117.997C89.153 117.409 89.258 116.919 89.342 116.527C89.426 116.121 89.503 115.764 89.573 115.456C89.657 115.134 89.755 114.812 89.867 114.49L92.177 108.421H94.781L97.049 114.49C97.217 114.91 97.35 115.316 97.448 115.708C97.56 116.086 97.651 116.457 97.721 116.821C97.791 117.171 97.854 117.528 97.91 117.892L97.469 117.976C97.511 117.682 97.539 117.43 97.553 117.22C97.581 116.996 97.602 116.793 97.616 116.611C97.644 116.429 97.672 116.247 97.7 116.065C97.728 115.869 97.77 115.645 97.826 115.393C97.882 115.127 97.966 114.819 98.078 114.469L100.451 106.3H103.643L99.128 121H96.776L93.164 112.306L93.5 112.348L90.119 121H87.704ZM108.993 121.21C108.069 121.21 107.236 120.958 106.494 120.454C105.752 119.95 105.164 119.264 104.73 118.396C104.296 117.528 104.079 116.534 104.079 115.414C104.079 114.294 104.296 113.3 104.73 112.432C105.178 111.564 105.78 110.885 106.536 110.395C107.292 109.905 108.153 109.66 109.119 109.66C109.665 109.66 110.162 109.744 110.61 109.912C111.072 110.066 111.471 110.283 111.807 110.563C112.157 110.843 112.451 111.165 112.689 111.529C112.927 111.893 113.095 112.285 113.193 112.705L112.563 112.6V109.891H115.524V121H112.521V118.333L113.193 118.27C113.081 118.662 112.899 119.033 112.647 119.383C112.395 119.733 112.08 120.048 111.702 120.328C111.338 120.594 110.925 120.811 110.463 120.979C110.001 121.133 109.511 121.21 108.993 121.21ZM109.812 118.627C110.372 118.627 110.862 118.494 111.282 118.228C111.702 117.962 112.024 117.591 112.248 117.115C112.486 116.625 112.605 116.058 112.605 115.414C112.605 114.784 112.486 114.231 112.248 113.755C112.024 113.279 111.702 112.908 111.282 112.642C110.862 112.362 110.372 112.222 109.812 112.222C109.266 112.222 108.783 112.362 108.363 112.642C107.957 112.908 107.635 113.279 107.397 113.755C107.159 114.231 107.04 114.784 107.04 115.414C107.04 116.058 107.159 116.625 107.397 117.115C107.635 117.591 107.957 117.962 108.363 118.228C108.783 118.494 109.266 118.627 109.812 118.627ZM118.534 121V105.46H121.516V121H118.534ZM124.564 121V105.46H127.546V121H124.564ZM135.638 121.21C134.434 121.21 133.377 120.965 132.467 120.475C131.571 119.985 130.871 119.313 130.367 118.459C129.877 117.605 129.632 116.625 129.632 115.519C129.632 114.651 129.772 113.86 130.052 113.146C130.332 112.432 130.724 111.816 131.228 111.298C131.732 110.766 132.327 110.36 133.013 110.08C133.713 109.786 134.469 109.639 135.281 109.639C136.037 109.639 136.737 109.779 137.381 110.059C138.025 110.339 138.578 110.731 139.04 111.235C139.516 111.725 139.88 112.313 140.132 112.999C140.384 113.671 140.496 114.399 140.468 115.183L140.447 116.107H131.522L131.039 114.28H137.99L137.654 114.658V114.196C137.626 113.818 137.5 113.482 137.276 113.188C137.066 112.88 136.793 112.642 136.457 112.474C136.121 112.292 135.743 112.201 135.323 112.201C134.707 112.201 134.182 112.32 133.748 112.558C133.328 112.796 133.006 113.146 132.782 113.608C132.558 114.07 132.446 114.63 132.446 115.288C132.446 115.96 132.586 116.541 132.866 117.031C133.16 117.521 133.566 117.906 134.084 118.186C134.616 118.452 135.239 118.585 135.953 118.585C136.443 118.585 136.891 118.508 137.297 118.354C137.703 118.2 138.137 117.934 138.599 117.556L140.027 119.551C139.621 119.915 139.173 120.223 138.683 120.475C138.193 120.713 137.689 120.895 137.171 121.021C136.653 121.147 136.142 121.21 135.638 121.21ZM143.743 121V107.077H146.725V121H143.743ZM141.664 112.558V109.891H149.014V112.558H141.664ZM157.796 121V106.3H160.673L166.028 115.015L164.138 114.994L169.556 106.3H172.307V121H169.22V115.96C169.22 114.7 169.248 113.566 169.304 112.558C169.374 111.55 169.486 110.549 169.64 109.555L170.018 110.542L165.713 117.22H164.327L160.106 110.584L160.463 109.555C160.617 110.493 160.722 111.459 160.778 112.453C160.848 113.433 160.883 114.602 160.883 115.96V121H157.796ZM179.868 121.21C178.944 121.21 178.111 120.958 177.369 120.454C176.627 119.95 176.039 119.264 175.605 118.396C175.171 117.528 174.954 116.534 174.954 115.414C174.954 114.294 175.171 113.3 175.605 112.432C176.053 111.564 176.655 110.885 177.411 110.395C178.167 109.905 179.028 109.66 179.994 109.66C180.54 109.66 181.037 109.744 181.485 109.912C181.947 110.066 182.346 110.283 182.682 110.563C183.032 110.843 183.326 111.165 183.564 111.529C183.802 111.893 183.97 112.285 184.068 112.705L183.438 112.6V109.891H186.399V121H183.396V118.333L184.068 118.27C183.956 118.662 183.774 119.033 183.522 119.383C183.27 119.733 182.955 120.048 182.577 120.328C182.213 120.594 181.8 120.811 181.338 120.979C180.876 121.133 180.386 121.21 179.868 121.21ZM180.687 118.627C181.247 118.627 181.737 118.494 182.157 118.228C182.577 117.962 182.899 117.591 183.123 117.115C183.361 116.625 183.48 116.058 183.48 115.414C183.48 114.784 183.361 114.231 183.123 113.755C182.899 113.279 182.577 112.908 182.157 112.642C181.737 112.362 181.247 112.222 180.687 112.222C180.141 112.222 179.658 112.362 179.238 112.642C178.832 112.908 178.51 113.279 178.272 113.755C178.034 114.231 177.915 114.784 177.915 115.414C177.915 116.058 178.034 116.625 178.272 117.115C178.51 117.591 178.832 117.962 179.238 118.228C179.658 118.494 180.141 118.627 180.687 118.627ZM189.388 121V109.891H192.244L192.328 112.159L191.74 112.411C191.894 111.907 192.167 111.452 192.559 111.046C192.965 110.626 193.448 110.29 194.008 110.038C194.568 109.786 195.156 109.66 195.772 109.66C196.612 109.66 197.312 109.828 197.872 110.164C198.446 110.5 198.873 111.011 199.153 111.697C199.447 112.369 199.594 113.202 199.594 114.196V121H196.612V114.427C196.612 113.923 196.542 113.503 196.402 113.167C196.262 112.831 196.045 112.586 195.751 112.432C195.471 112.278 195.121 112.208 194.701 112.222C194.365 112.222 194.05 112.278 193.756 112.39C193.476 112.488 193.231 112.635 193.021 112.831C192.825 113.027 192.664 113.251 192.538 113.503C192.426 113.755 192.37 114.028 192.37 114.322V121H190.9C190.578 121 190.291 121 190.039 121C189.787 121 189.57 121 189.388 121ZM206.61 121.21C205.686 121.21 204.853 120.958 204.111 120.454C203.369 119.95 202.781 119.264 202.347 118.396C201.913 117.528 201.696 116.534 201.696 115.414C201.696 114.294 201.913 113.3 202.347 112.432C202.795 111.564 203.397 110.885 204.153 110.395C204.909 109.905 205.77 109.66 206.736 109.66C207.282 109.66 207.779 109.744 208.227 109.912C208.689 110.066 209.088 110.283 209.424 110.563C209.774 110.843 210.068 111.165 210.306 111.529C210.544 111.893 210.712 112.285 210.81 112.705L210.18 112.6V109.891H213.141V121H210.138V118.333L210.81 118.27C210.698 118.662 210.516 119.033 210.264 119.383C210.012 119.733 209.697 120.048 209.319 120.328C208.955 120.594 208.542 120.811 208.08 120.979C207.618 121.133 207.128 121.21 206.61 121.21ZM207.429 118.627C207.989 118.627 208.479 118.494 208.899 118.228C209.319 117.962 209.641 117.591 209.865 117.115C210.103 116.625 210.222 116.058 210.222 115.414C210.222 114.784 210.103 114.231 209.865 113.755C209.641 113.279 209.319 112.908 208.899 112.642C208.479 112.362 207.989 112.222 207.429 112.222C206.883 112.222 206.4 112.362 205.98 112.642C205.574 112.908 205.252 113.279 205.014 113.755C204.776 114.231 204.657 114.784 204.657 115.414C204.657 116.058 204.776 116.625 205.014 117.115C205.252 117.591 205.574 117.962 205.98 118.228C206.4 118.494 206.883 118.627 207.429 118.627ZM221.192 125.83C220.31 125.83 219.442 125.697 218.588 125.431C217.734 125.179 217.034 124.843 216.488 124.423L217.559 122.302C217.839 122.498 218.161 122.673 218.525 122.827C218.889 122.981 219.267 123.1 219.659 123.184C220.065 123.268 220.478 123.31 220.898 123.31C221.626 123.31 222.221 123.198 222.683 122.974C223.159 122.75 223.516 122.414 223.754 121.966C223.992 121.518 224.111 120.958 224.111 120.286V118.354L224.615 118.459C224.531 118.921 224.293 119.348 223.901 119.74C223.523 120.118 223.047 120.426 222.473 120.664C221.913 120.888 221.325 121 220.709 121C219.687 121 218.777 120.762 217.979 120.286C217.181 119.81 216.551 119.152 216.089 118.312C215.627 117.472 215.396 116.499 215.396 115.393C215.396 114.287 215.62 113.307 216.068 112.453C216.53 111.585 217.153 110.906 217.937 110.416C218.735 109.912 219.638 109.66 220.646 109.66C221.066 109.66 221.465 109.709 221.843 109.807C222.235 109.905 222.592 110.045 222.914 110.227C223.25 110.395 223.544 110.591 223.796 110.815C224.062 111.025 224.279 111.256 224.447 111.508C224.615 111.76 224.72 112.012 224.762 112.264L224.153 112.432L224.237 109.891H227.093V120.16C227.093 121.07 226.96 121.875 226.694 122.575C226.428 123.275 226.036 123.863 225.518 124.339C225.014 124.829 224.391 125.2 223.649 125.452C222.921 125.704 222.102 125.83 221.192 125.83ZM221.276 118.606C221.864 118.606 222.375 118.473 222.809 118.207C223.257 117.941 223.6 117.57 223.838 117.094C224.076 116.618 224.195 116.058 224.195 115.414C224.195 114.784 224.076 114.231 223.838 113.755C223.6 113.265 223.257 112.887 222.809 112.621C222.375 112.355 221.864 112.222 221.276 112.222C220.702 112.222 220.198 112.362 219.764 112.642C219.33 112.908 218.987 113.286 218.735 113.776C218.497 114.252 218.378 114.798 218.378 115.414C218.378 116.044 218.497 116.604 218.735 117.094C218.987 117.57 219.33 117.941 219.764 118.207C220.198 118.473 220.702 118.606 221.276 118.606ZM235.326 121.21C234.122 121.21 233.065 120.965 232.155 120.475C231.259 119.985 230.559 119.313 230.055 118.459C229.565 117.605 229.32 116.625 229.32 115.519C229.32 114.651 229.46 113.86 229.74 113.146C230.02 112.432 230.412 111.816 230.916 111.298C231.42 110.766 232.015 110.36 232.701 110.08C233.401 109.786 234.157 109.639 234.969 109.639C235.725 109.639 236.425 109.779 237.069 110.059C237.713 110.339 238.266 110.731 238.728 111.235C239.204 111.725 239.568 112.313 239.82 112.999C240.072 113.671 240.184 114.399 240.156 115.183L240.135 116.107H231.21L230.727 114.28H237.678L237.342 114.658V114.196C237.314 113.818 237.188 113.482 236.964 113.188C236.754 112.88 236.481 112.642 236.145 112.474C235.809 112.292 235.431 112.201 235.011 112.201C234.395 112.201 233.87 112.32 233.436 112.558C233.016 112.796 232.694 113.146 232.47 113.608C232.246 114.07 232.134 114.63 232.134 115.288C232.134 115.96 232.274 116.541 232.554 117.031C232.848 117.521 233.254 117.906 233.772 118.186C234.304 118.452 234.927 118.585 235.641 118.585C236.131 118.585 236.579 118.508 236.985 118.354C237.391 118.2 237.825 117.934 238.287 117.556L239.715 119.551C239.309 119.915 238.861 120.223 238.371 120.475C237.881 120.713 237.377 120.895 236.859 121.021C236.341 121.147 235.83 121.21 235.326 121.21ZM242.339 121V109.891H245.216L245.279 112.012L244.838 112.096C244.992 111.732 245.195 111.403 245.447 111.109C245.713 110.815 246.014 110.563 246.35 110.353C246.686 110.143 247.043 109.982 247.421 109.87C247.799 109.744 248.177 109.681 248.555 109.681C249.129 109.681 249.647 109.772 250.109 109.954C250.571 110.136 250.963 110.423 251.285 110.815C251.607 111.193 251.859 111.697 252.041 112.327L251.579 112.285L251.726 111.949C251.908 111.613 252.139 111.305 252.419 111.025C252.699 110.745 253.014 110.507 253.364 110.311C253.714 110.115 254.078 109.961 254.456 109.849C254.834 109.737 255.205 109.681 255.569 109.681C256.437 109.681 257.158 109.856 257.732 110.206C258.306 110.542 258.733 111.053 259.013 111.739C259.307 112.425 259.454 113.265 259.454 114.259V121H256.472V114.469C256.472 113.965 256.402 113.552 256.262 113.23C256.122 112.908 255.919 112.67 255.653 112.516C255.387 112.348 255.044 112.264 254.624 112.264C254.302 112.264 254.001 112.32 253.721 112.432C253.455 112.53 253.217 112.677 253.007 112.873C252.811 113.055 252.657 113.279 252.545 113.545C252.433 113.797 252.377 114.07 252.377 114.364V121H249.374V114.448C249.374 113.986 249.304 113.594 249.164 113.272C249.024 112.936 248.821 112.684 248.555 112.516C248.289 112.348 247.96 112.264 247.568 112.264C247.246 112.264 246.945 112.32 246.665 112.432C246.399 112.53 246.168 112.677 245.972 112.873C245.776 113.055 245.622 113.272 245.51 113.524C245.398 113.776 245.342 114.049 245.342 114.343V121H242.339ZM267.565 121.21C266.361 121.21 265.304 120.965 264.394 120.475C263.498 119.985 262.798 119.313 262.294 118.459C261.804 117.605 261.559 116.625 261.559 115.519C261.559 114.651 261.699 113.86 261.979 113.146C262.259 112.432 262.651 111.816 263.155 111.298C263.659 110.766 264.254 110.36 264.94 110.08C265.64 109.786 266.396 109.639 267.208 109.639C267.964 109.639 268.664 109.779 269.308 110.059C269.952 110.339 270.505 110.731 270.967 111.235C271.443 111.725 271.807 112.313 272.059 112.999C272.311 113.671 272.423 114.399 272.395 115.183L272.374 116.107H263.449L262.966 114.28H269.917L269.581 114.658V114.196C269.553 113.818 269.427 113.482 269.203 113.188C268.993 112.88 268.72 112.642 268.384 112.474C268.048 112.292 267.67 112.201 267.25 112.201C266.634 112.201 266.109 112.32 265.675 112.558C265.255 112.796 264.933 113.146 264.709 113.608C264.485 114.07 264.373 114.63 264.373 115.288C264.373 115.96 264.513 116.541 264.793 117.031C265.087 117.521 265.493 117.906 266.011 118.186C266.543 118.452 267.166 118.585 267.88 118.585C268.37 118.585 268.818 118.508 269.224 118.354C269.63 118.2 270.064 117.934 270.526 117.556L271.954 119.551C271.548 119.915 271.1 120.223 270.61 120.475C270.12 120.713 269.616 120.895 269.098 121.021C268.58 121.147 268.069 121.21 267.565 121.21ZM274.598 121V109.891H277.454L277.538 112.159L276.95 112.411C277.104 111.907 277.377 111.452 277.769 111.046C278.175 110.626 278.658 110.29 279.218 110.038C279.778 109.786 280.366 109.66 280.982 109.66C281.822 109.66 282.522 109.828 283.082 110.164C283.656 110.5 284.083 111.011 284.363 111.697C284.657 112.369 284.804 113.202 284.804 114.196V121H281.822V114.427C281.822 113.923 281.752 113.503 281.612 113.167C281.472 112.831 281.255 112.586 280.961 112.432C280.681 112.278 280.331 112.208 279.911 112.222C279.575 112.222 279.26 112.278 278.966 112.39C278.686 112.488 278.441 112.635 278.231 112.831C278.035 113.027 277.874 113.251 277.748 113.503C277.636 113.755 277.58 114.028 277.58 114.322V121H276.11C275.788 121 275.501 121 275.249 121C274.997 121 274.78 121 274.598 121ZM288.733 121V107.077H291.715V121H288.733ZM286.654 112.558V109.891H294.004V112.558H286.654Z" fill="black"/>
<rect x="157.136" y="150.136" width="147.727" height="294.318" rx="11.3636" fill="#F1F5F7" stroke="black" stroke-width="2.27272"/>
<g clip-path="url(#clip0_599_3058)">
<path d="M292.324 156.264H285.661C285.405 156.265 285.161 156.367 284.98 156.547C284.8 156.728 284.698 156.972 284.697 157.228V159.796C284.698 160.052 284.8 160.296 284.98 160.477C285.161 160.657 285.405 160.759 285.661 160.76H292.324C292.579 160.759 292.824 160.657 293.004 160.477C293.185 160.296 293.286 160.052 293.287 159.796V157.228C293.286 156.972 293.185 156.728 293.004 156.547C292.824 156.367 292.579 156.265 292.324 156.264ZM292.725 159.796C292.725 159.903 292.683 160.005 292.608 160.081C292.532 160.156 292.43 160.199 292.324 160.199H285.661C285.554 160.199 285.452 160.156 285.377 160.081C285.302 160.006 285.26 159.904 285.259 159.798V157.228C285.26 157.121 285.302 157.019 285.377 156.944C285.452 156.869 285.554 156.827 285.661 156.826H292.324C292.43 156.827 292.532 156.869 292.607 156.944C292.682 157.019 292.725 157.121 292.725 157.228V159.796Z" fill="black"/>
<path d="M293.688 157.48V159.544C294.009 159.544 294.33 158.988 294.33 158.512C294.33 158.037 294.009 157.48 293.688 157.48Z" fill="black"/>
<path d="M292.083 157.228H285.901C285.837 157.228 285.776 157.253 285.731 157.298C285.686 157.344 285.66 157.405 285.66 157.468V159.556C285.66 159.62 285.686 159.681 285.731 159.726C285.776 159.771 285.837 159.796 285.901 159.796H292.083C292.147 159.796 292.208 159.771 292.253 159.726C292.298 159.681 292.323 159.62 292.324 159.556V157.468C292.323 157.405 292.298 157.344 292.253 157.298C292.208 157.253 292.147 157.228 292.083 157.228Z" fill="black"/>
<path d="M283.055 157.497C282.193 156.704 281.066 156.264 279.895 156.264C278.724 156.264 277.596 156.704 276.735 157.497C276.719 157.512 276.706 157.53 276.697 157.549C276.689 157.569 276.684 157.59 276.684 157.612C276.683 157.633 276.687 157.655 276.696 157.675C276.704 157.695 276.716 157.713 276.731 157.728L277.075 158.069C277.105 158.098 277.145 158.115 277.186 158.116C277.228 158.116 277.269 158.101 277.3 158.072C278.009 157.425 278.935 157.066 279.895 157.066C280.855 157.066 281.781 157.425 282.49 158.072C282.521 158.101 282.561 158.116 282.603 158.116C282.645 158.115 282.685 158.098 282.715 158.069L283.059 157.728C283.074 157.713 283.086 157.695 283.094 157.675C283.103 157.655 283.107 157.633 283.106 157.612C283.106 157.59 283.101 157.569 283.092 157.549C283.083 157.53 283.071 157.512 283.055 157.497ZM279.895 159.475C279.768 159.475 279.644 159.513 279.538 159.584C279.433 159.654 279.35 159.754 279.302 159.872C279.253 159.989 279.24 160.118 279.265 160.243C279.29 160.367 279.351 160.482 279.441 160.572C279.531 160.662 279.645 160.723 279.77 160.747C279.894 160.772 280.023 160.76 280.141 160.711C280.258 160.662 280.358 160.58 280.429 160.474C280.5 160.369 280.537 160.245 280.537 160.118C280.537 159.947 280.47 159.784 280.349 159.663C280.229 159.543 280.065 159.475 279.895 159.475ZM281.93 158.637C281.368 158.142 280.645 157.87 279.896 157.87C279.148 157.87 278.425 158.142 277.862 158.637C277.846 158.651 277.833 158.669 277.824 158.688C277.814 158.708 277.809 158.73 277.809 158.752C277.808 158.773 277.812 158.795 277.821 158.815C277.829 158.835 277.841 158.854 277.857 158.869L278.202 159.21C278.231 159.239 278.271 159.256 278.312 159.258C278.353 159.259 278.394 159.245 278.425 159.218C278.835 158.866 279.357 158.672 279.897 158.672C280.438 158.672 280.96 158.866 281.37 159.218C281.401 159.245 281.442 159.259 281.483 159.258C281.524 159.256 281.563 159.239 281.593 159.21L281.938 158.869C281.954 158.854 281.966 158.835 281.974 158.815C281.982 158.794 281.985 158.773 281.985 158.751C281.984 158.729 281.979 158.708 281.969 158.688C281.96 158.668 281.946 158.651 281.93 158.637Z" fill="black"/>
<path d="M271.583 158.793H271.161C271.124 158.793 271.088 158.808 271.062 158.834C271.035 158.861 271.02 158.896 271.02 158.934V160.619C271.02 160.637 271.024 160.655 271.031 160.673C271.038 160.69 271.049 160.705 271.062 160.718C271.075 160.731 271.09 160.742 271.107 160.749C271.124 160.756 271.143 160.759 271.161 160.759H271.583C271.601 160.759 271.619 160.756 271.636 160.749C271.653 160.742 271.669 160.731 271.682 160.718C271.695 160.705 271.705 160.69 271.712 160.673C271.719 160.655 271.723 160.637 271.723 160.619V158.935C271.723 158.917 271.72 158.898 271.713 158.881C271.706 158.864 271.696 158.848 271.683 158.835C271.669 158.822 271.654 158.811 271.637 158.804C271.62 158.797 271.601 158.793 271.583 158.793ZM270.459 159.635H270.037C270 159.635 269.964 159.649 269.938 159.676C269.911 159.702 269.896 159.738 269.896 159.775V160.62C269.896 160.658 269.911 160.693 269.938 160.72C269.964 160.746 270 160.761 270.037 160.761H270.459C270.477 160.761 270.496 160.757 270.513 160.75C270.53 160.743 270.545 160.733 270.559 160.72C270.572 160.707 270.582 160.691 270.589 160.674C270.596 160.657 270.6 160.639 270.6 160.62V159.776C270.6 159.758 270.597 159.739 270.59 159.722C270.583 159.705 270.572 159.689 270.559 159.676C270.546 159.663 270.53 159.652 270.513 159.645C270.496 159.638 270.477 159.635 270.459 159.635ZM272.707 157.95H272.285C272.248 157.95 272.212 157.964 272.186 157.991C272.16 158.017 272.145 158.053 272.145 158.09V160.62C272.145 160.658 272.16 160.693 272.186 160.72C272.212 160.746 272.248 160.761 272.285 160.761H272.707C272.744 160.761 272.78 160.746 272.806 160.72C272.833 160.693 272.847 160.658 272.847 160.62V158.091C272.847 158.072 272.844 158.054 272.837 158.037C272.83 158.019 272.819 158.004 272.806 157.991C272.793 157.978 272.778 157.967 272.76 157.96C272.743 157.953 272.725 157.949 272.707 157.95ZM273.831 157.107H273.409C273.372 157.107 273.336 157.121 273.31 157.148C273.283 157.174 273.268 157.21 273.268 157.247V160.62C273.268 160.658 273.283 160.693 273.31 160.72C273.336 160.746 273.372 160.761 273.409 160.761H273.831C273.868 160.761 273.903 160.746 273.929 160.719C273.956 160.693 273.97 160.658 273.97 160.62V157.248C273.97 157.211 273.956 157.175 273.929 157.149C273.903 157.122 273.867 157.107 273.83 157.107L273.831 157.107ZM274.954 156.264H274.533C274.495 156.264 274.46 156.279 274.433 156.306C274.407 156.332 274.392 156.368 274.392 156.405V160.62C274.392 160.658 274.407 160.693 274.433 160.72C274.46 160.746 274.495 160.761 274.533 160.761H274.954C274.991 160.761 275.027 160.746 275.054 160.72C275.08 160.693 275.095 160.658 275.095 160.62V156.405C275.095 156.368 275.08 156.332 275.054 156.306C275.027 156.279 274.991 156.264 274.954 156.264Z" fill="black"/>
<path d="M169.274 159.026H169.255C169.15 159.077 169.026 159.102 168.883 159.102C168.762 159.102 168.64 159.082 168.516 159.04C168.392 158.999 168.279 158.935 168.177 158.85C168.079 158.76 167.998 158.649 167.934 158.516C167.871 158.379 167.839 158.218 167.839 158.034C167.839 157.85 167.869 157.687 167.929 157.547C167.993 157.404 168.077 157.285 168.182 157.19C168.287 157.094 168.41 157.023 168.549 156.975C168.689 156.924 168.839 156.899 168.998 156.899C169.157 156.899 169.306 156.924 169.446 156.975C169.586 157.026 169.708 157.099 169.813 157.195C169.918 157.29 170.001 157.404 170.061 157.538C170.125 157.671 170.157 157.821 170.157 157.986C170.157 158.091 170.149 158.187 170.133 158.272C170.117 158.358 170.093 158.441 170.061 158.52C170.033 158.597 169.998 158.673 169.956 158.749C169.915 158.826 169.869 158.904 169.818 158.983L168.964 160.333H168.425L169.274 159.026ZM169.699 158.001C169.699 157.899 169.681 157.805 169.646 157.719C169.615 157.633 169.567 157.56 169.503 157.5C169.443 157.436 169.37 157.387 169.284 157.352C169.198 157.317 169.103 157.299 168.998 157.299C168.893 157.299 168.797 157.317 168.712 157.352C168.626 157.387 168.551 157.436 168.487 157.5C168.427 157.56 168.379 157.633 168.344 157.719C168.313 157.805 168.297 157.899 168.297 158.001C168.297 158.102 168.313 158.196 168.344 158.282C168.379 158.368 168.427 158.443 168.487 158.506C168.551 158.567 168.626 158.614 168.712 158.649C168.797 158.684 168.893 158.702 168.998 158.702C169.103 158.702 169.198 158.684 169.284 158.649C169.37 158.614 169.443 158.567 169.503 158.506C169.567 158.443 169.615 158.368 169.646 158.282C169.681 158.196 169.699 158.102 169.699 158.001ZM170.985 158.673C170.899 158.673 170.824 158.643 170.761 158.582C170.7 158.519 170.67 158.444 170.67 158.358C170.67 158.272 170.7 158.199 170.761 158.139C170.824 158.075 170.899 158.043 170.985 158.043C171.071 158.043 171.144 158.075 171.204 158.139C171.268 158.199 171.3 158.272 171.3 158.358C171.3 158.444 171.268 158.519 171.204 158.582C171.144 158.643 171.071 158.673 170.985 158.673ZM170.67 160.047C170.67 159.961 170.7 159.888 170.761 159.827C170.824 159.764 170.899 159.732 170.985 159.732C171.071 159.732 171.144 159.764 171.204 159.827C171.268 159.888 171.3 159.961 171.3 160.047C171.3 160.132 171.268 160.207 171.204 160.271C171.144 160.331 171.071 160.361 170.985 160.361C170.899 160.361 170.824 160.331 170.761 160.271C170.7 160.207 170.67 160.132 170.67 160.047ZM173.252 159.589H171.812V159.121L173.157 156.956H173.71V159.188H174.187V159.589H173.71V160.333H173.252V159.589ZM173.252 157.5H173.242L172.212 159.188H173.252V157.5ZM175.587 157.481L174.967 158.053L174.7 157.733L175.64 156.956H176.045V160.333H175.587V157.481Z" fill="black"/>
</g>
<rect x="167" y="214" width="128" height="107" rx="5" fill="#1A89FA"/>
<rect x="173" y="250" width="116" height="63" rx="5" fill="white"/>
<path d="M173.132 244L174.563 240.304H175.144L176.564 244H175.957L175.112 241.772C175.101 241.747 175.08 241.687 175.049 241.592C175.02 241.497 174.987 241.392 174.948 241.276C174.91 241.159 174.874 241.054 174.843 240.959C174.811 240.86 174.79 240.797 174.779 240.769L174.901 240.763C174.88 240.823 174.853 240.899 174.822 240.99C174.793 241.082 174.762 241.179 174.727 241.281C174.695 241.383 174.663 241.48 174.632 241.571C174.6 241.659 174.573 241.733 174.552 241.793L173.713 244H173.132ZM173.766 243.081L173.977 242.532H175.656L175.899 243.081H173.766ZM177.722 244L176.55 241.228H177.136L177.981 243.303L177.881 243.351L178.784 241.228H179.343L178.113 244H177.722ZM180.83 244.053C180.601 244.053 180.392 243.989 180.202 243.863C180.015 243.736 179.866 243.564 179.753 243.345C179.64 243.127 179.584 242.881 179.584 242.606C179.584 242.328 179.64 242.082 179.753 241.867C179.869 241.649 180.024 241.478 180.218 241.355C180.415 241.232 180.635 241.17 180.878 241.17C181.022 241.17 181.154 241.191 181.274 241.233C181.393 241.276 181.497 241.335 181.585 241.413C181.677 241.487 181.751 241.573 181.807 241.672C181.867 241.77 181.904 241.876 181.918 241.988L181.796 241.946V241.228H182.346V244H181.796V243.34L181.923 243.303C181.902 243.398 181.858 243.491 181.791 243.583C181.728 243.671 181.645 243.75 181.543 243.82C181.444 243.891 181.334 243.947 181.21 243.989C181.091 244.032 180.964 244.053 180.83 244.053ZM180.973 243.551C181.138 243.551 181.284 243.511 181.411 243.43C181.538 243.349 181.636 243.238 181.707 243.097C181.781 242.953 181.818 242.789 181.818 242.606C181.818 242.427 181.781 242.266 181.707 242.126C181.636 241.985 181.538 241.874 181.411 241.793C181.284 241.712 181.138 241.672 180.973 241.672C180.811 241.672 180.666 241.712 180.54 241.793C180.417 241.874 180.318 241.985 180.244 242.126C180.174 242.266 180.138 242.427 180.138 242.606C180.138 242.789 180.174 242.953 180.244 243.097C180.318 243.238 180.417 243.349 180.54 243.43C180.666 243.511 180.811 243.551 180.973 243.551ZM183.195 244V241.228H183.738V244H183.195ZM183.459 240.616C183.342 240.616 183.253 240.586 183.189 240.526C183.126 240.466 183.094 240.381 183.094 240.272C183.094 240.17 183.126 240.088 183.189 240.024C183.256 239.961 183.346 239.929 183.459 239.929C183.575 239.929 183.665 239.959 183.728 240.019C183.791 240.079 183.823 240.163 183.823 240.272C183.823 240.374 183.789 240.457 183.723 240.52C183.659 240.584 183.571 240.616 183.459 240.616ZM184.585 244V240.093H185.129V244H184.585ZM186.915 244.053C186.686 244.053 186.476 243.989 186.286 243.863C186.1 243.736 185.95 243.564 185.837 243.345C185.725 243.127 185.668 242.881 185.668 242.606C185.668 242.328 185.725 242.082 185.837 241.867C185.954 241.649 186.108 241.478 186.302 241.355C186.499 241.232 186.719 241.17 186.962 241.17C187.106 241.17 187.238 241.191 187.358 241.233C187.478 241.276 187.582 241.335 187.67 241.413C187.761 241.487 187.835 241.573 187.891 241.672C187.951 241.77 187.988 241.876 188.002 241.988L187.881 241.946V241.228H188.43V244H187.881V243.34L188.007 243.303C187.986 243.398 187.942 243.491 187.875 243.583C187.812 243.671 187.729 243.75 187.627 243.82C187.529 243.891 187.418 243.947 187.295 243.989C187.175 244.032 187.048 244.053 186.915 244.053ZM187.057 243.551C187.223 243.551 187.369 243.511 187.495 243.43C187.622 243.349 187.721 243.238 187.791 243.097C187.865 242.953 187.902 242.789 187.902 242.606C187.902 242.427 187.865 242.266 187.791 242.126C187.721 241.985 187.622 241.874 187.495 241.793C187.369 241.712 187.223 241.672 187.057 241.672C186.895 241.672 186.751 241.712 186.624 241.793C186.501 241.874 186.402 241.985 186.328 242.126C186.258 242.266 186.223 242.427 186.223 242.606C186.223 242.789 186.258 242.953 186.328 243.097C186.402 243.238 186.501 243.349 186.624 243.43C186.751 243.511 186.895 243.551 187.057 243.551ZM190.647 244.053C190.527 244.053 190.407 244.033 190.287 243.995C190.171 243.956 190.064 243.905 189.965 243.842C189.87 243.775 189.789 243.703 189.723 243.625C189.659 243.544 189.617 243.463 189.596 243.382L189.733 243.308V243.984H189.189V240.093H189.733V241.862L189.649 241.814C189.666 241.733 189.705 241.656 189.765 241.582C189.825 241.504 189.9 241.436 189.992 241.376C190.087 241.312 190.189 241.263 190.298 241.228C190.407 241.189 190.518 241.17 190.631 241.17C190.881 241.17 191.102 241.232 191.296 241.355C191.49 241.478 191.643 241.649 191.755 241.867C191.868 242.082 191.924 242.328 191.924 242.606C191.924 242.884 191.868 243.132 191.755 243.351C191.646 243.569 191.495 243.741 191.301 243.868C191.108 243.991 190.889 244.053 190.647 244.053ZM190.557 243.556C190.719 243.556 190.863 243.516 190.99 243.435C191.116 243.351 191.217 243.238 191.291 243.097C191.365 242.953 191.402 242.789 191.402 242.606C191.402 242.427 191.365 242.266 191.291 242.126C191.22 241.981 191.122 241.869 190.995 241.788C190.868 241.707 190.722 241.666 190.557 241.666C190.391 241.666 190.245 241.707 190.119 241.788C189.992 241.869 189.891 241.981 189.818 242.126C189.744 242.266 189.707 242.427 189.707 242.606C189.707 242.789 189.744 242.953 189.818 243.097C189.891 243.238 189.992 243.351 190.119 243.435C190.245 243.516 190.391 243.556 190.557 243.556ZM192.526 244V240.093H193.069V244H192.526ZM195.082 244.053C194.797 244.053 194.544 243.993 194.322 243.873C194.104 243.75 193.931 243.583 193.804 243.372C193.681 243.16 193.62 242.918 193.62 242.643C193.62 242.425 193.655 242.226 193.725 242.046C193.796 241.867 193.892 241.712 194.016 241.582C194.142 241.448 194.292 241.346 194.464 241.276C194.64 241.202 194.831 241.165 195.035 241.165C195.214 241.165 195.381 241.2 195.536 241.27C195.691 241.337 195.825 241.43 195.938 241.55C196.054 241.67 196.142 241.812 196.202 241.978C196.265 242.14 196.295 242.317 196.291 242.511L196.286 242.743H194.021L193.899 242.31H195.816L195.737 242.4V242.273C195.726 242.157 195.688 242.053 195.621 241.962C195.554 241.87 195.469 241.798 195.367 241.745C195.265 241.693 195.154 241.666 195.035 241.666C194.845 241.666 194.684 241.703 194.554 241.777C194.424 241.848 194.325 241.953 194.259 242.094C194.192 242.231 194.158 242.402 194.158 242.606C194.158 242.8 194.199 242.969 194.28 243.113C194.361 243.254 194.475 243.363 194.623 243.44C194.771 243.518 194.941 243.556 195.135 243.556C195.272 243.556 195.399 243.534 195.515 243.488C195.635 243.442 195.763 243.359 195.901 243.24L196.175 243.625C196.091 243.71 195.987 243.784 195.864 243.847C195.744 243.91 195.615 243.961 195.478 244C195.344 244.035 195.212 244.053 195.082 244.053ZM198.499 244V240.304H200.041C200.277 240.304 200.476 240.339 200.638 240.41C200.8 240.48 200.921 240.586 201.002 240.726C201.087 240.864 201.129 241.033 201.129 241.233C201.129 241.434 201.073 241.605 200.96 241.745C200.851 241.886 200.698 241.983 200.501 242.036V241.93C200.666 241.965 200.81 242.029 200.934 242.12C201.057 242.208 201.152 242.319 201.219 242.453C201.289 242.587 201.324 242.74 201.324 242.912C201.324 243.088 201.296 243.245 201.24 243.382C201.187 243.516 201.106 243.629 200.997 243.72C200.891 243.812 200.763 243.882 200.611 243.931C200.46 243.977 200.288 244 200.094 244H198.499ZM199.07 243.451H200.062C200.207 243.451 200.328 243.43 200.427 243.388C200.529 243.345 200.606 243.284 200.659 243.203C200.715 243.118 200.743 243.018 200.743 242.902C200.743 242.793 200.714 242.699 200.654 242.622C200.597 242.544 200.516 242.486 200.411 242.448C200.305 242.405 200.18 242.384 200.036 242.384H199.07V243.451ZM199.07 241.835H200.01C200.115 241.835 200.208 241.814 200.289 241.772C200.374 241.73 200.439 241.672 200.485 241.598C200.534 241.524 200.559 241.439 200.559 241.344C200.559 241.186 200.506 241.064 200.4 240.98C200.295 240.895 200.143 240.853 199.946 240.853H199.07V241.835ZM203.018 244.053C202.789 244.053 202.579 243.989 202.389 243.863C202.203 243.736 202.053 243.564 201.94 243.345C201.828 243.127 201.771 242.881 201.771 242.606C201.771 242.328 201.828 242.082 201.94 241.867C202.057 241.649 202.211 241.478 202.405 241.355C202.602 241.232 202.822 241.17 203.065 241.17C203.209 241.17 203.341 241.191 203.461 241.233C203.581 241.276 203.685 241.335 203.773 241.413C203.864 241.487 203.938 241.573 203.994 241.672C204.054 241.77 204.091 241.876 204.105 241.988L203.984 241.946V241.228H204.533V244H203.984V243.34L204.11 243.303C204.089 243.398 204.045 243.491 203.978 243.583C203.915 243.671 203.832 243.75 203.73 243.82C203.632 243.891 203.521 243.947 203.398 243.989C203.278 244.032 203.151 244.053 203.018 244.053ZM203.16 243.551C203.326 243.551 203.472 243.511 203.598 243.43C203.725 243.349 203.824 243.238 203.894 243.097C203.968 242.953 204.005 242.789 204.005 242.606C204.005 242.427 203.968 242.266 203.894 242.126C203.824 241.985 203.725 241.874 203.598 241.793C203.472 241.712 203.326 241.672 203.16 241.672C202.998 241.672 202.854 241.712 202.727 241.793C202.604 241.874 202.505 241.985 202.431 242.126C202.361 242.266 202.326 242.427 202.326 242.606C202.326 242.789 202.361 242.953 202.431 243.097C202.505 243.238 202.604 243.349 202.727 243.43C202.854 243.511 202.998 243.551 203.16 243.551ZM205.303 244V240.093H205.847V244H205.303ZM207.632 244.053C207.404 244.053 207.194 243.989 207.004 243.863C206.817 243.736 206.668 243.564 206.555 243.345C206.443 243.127 206.386 242.881 206.386 242.606C206.386 242.328 206.443 242.082 206.555 241.867C206.671 241.649 206.826 241.478 207.02 241.355C207.217 241.232 207.437 241.17 207.68 241.17C207.824 241.17 207.956 241.191 208.076 241.233C208.196 241.276 208.299 241.335 208.387 241.413C208.479 241.487 208.553 241.573 208.609 241.672C208.669 241.77 208.706 241.876 208.72 241.988L208.599 241.946V241.228H209.148V244H208.599V243.34L208.725 243.303C208.704 243.398 208.66 243.491 208.593 243.583C208.53 243.671 208.447 243.75 208.345 243.82C208.247 243.891 208.136 243.947 208.013 243.989C207.893 244.032 207.766 244.053 207.632 244.053ZM207.775 243.551C207.94 243.551 208.086 243.511 208.213 243.43C208.34 243.349 208.438 243.238 208.509 243.097C208.583 242.953 208.62 242.789 208.62 242.606C208.62 242.427 208.583 242.266 208.509 242.126C208.438 241.985 208.34 241.874 208.213 241.793C208.086 241.712 207.94 241.672 207.775 241.672C207.613 241.672 207.469 241.712 207.342 241.793C207.219 241.874 207.12 241.985 207.046 242.126C206.976 242.266 206.941 242.427 206.941 242.606C206.941 242.789 206.976 242.953 207.046 243.097C207.12 243.238 207.219 243.349 207.342 243.43C207.469 243.511 207.613 243.551 207.775 243.551ZM209.907 244V241.228H210.451V241.798L210.356 241.862C210.391 241.738 210.46 241.626 210.562 241.524C210.664 241.418 210.785 241.334 210.926 241.27C211.067 241.203 211.211 241.17 211.359 241.17C211.57 241.17 211.746 241.212 211.887 241.297C212.028 241.378 212.133 241.503 212.204 241.672C212.274 241.84 212.309 242.053 212.309 242.31V244H211.766V242.347C211.766 242.189 211.744 242.059 211.702 241.957C211.66 241.851 211.595 241.775 211.507 241.73C211.419 241.68 211.31 241.659 211.18 241.666C211.074 241.666 210.977 241.684 210.889 241.719C210.801 241.751 210.724 241.796 210.657 241.856C210.593 241.916 210.542 241.987 210.504 242.068C210.468 242.145 210.451 242.229 210.451 242.321V244H210.182C210.136 244 210.09 244 210.044 244C209.999 244 209.953 244 209.907 244ZM214.225 244.053C213.968 244.053 213.737 243.989 213.533 243.863C213.332 243.736 213.172 243.564 213.052 243.345C212.936 243.127 212.878 242.882 212.878 242.611C212.878 242.34 212.936 242.096 213.052 241.877C213.172 241.659 213.332 241.487 213.533 241.36C213.737 241.233 213.968 241.17 214.225 241.17C214.471 241.17 214.695 241.221 214.895 241.323C215.099 241.422 215.254 241.557 215.36 241.73L215.059 242.099C215.003 242.018 214.93 241.944 214.842 241.877C214.754 241.811 214.661 241.758 214.563 241.719C214.464 241.68 214.369 241.661 214.277 241.661C214.108 241.661 213.957 241.703 213.823 241.788C213.693 241.869 213.589 241.981 213.512 242.126C213.434 242.27 213.396 242.432 213.396 242.611C213.396 242.791 213.436 242.953 213.517 243.097C213.598 243.238 213.705 243.351 213.839 243.435C213.973 243.52 214.121 243.562 214.283 243.562C214.378 243.562 214.469 243.546 214.557 243.514C214.649 243.483 214.737 243.435 214.821 243.372C214.906 243.308 214.985 243.231 215.059 243.139L215.36 243.509C215.247 243.667 215.085 243.798 214.874 243.9C214.666 244.002 214.45 244.053 214.225 244.053ZM217.166 244.053C216.881 244.053 216.628 243.993 216.406 243.873C216.188 243.75 216.015 243.583 215.889 243.372C215.765 243.16 215.704 242.918 215.704 242.643C215.704 242.425 215.739 242.226 215.809 242.046C215.88 241.867 215.977 241.712 216.1 241.582C216.227 241.448 216.376 241.346 216.549 241.276C216.725 241.202 216.915 241.165 217.119 241.165C217.298 241.165 217.466 241.2 217.62 241.27C217.775 241.337 217.909 241.43 218.022 241.55C218.138 241.67 218.226 241.812 218.286 241.978C218.349 242.14 218.379 242.317 218.376 242.511L218.37 242.743H216.105L215.984 242.31H217.9L217.821 242.4V242.273C217.811 242.157 217.772 242.053 217.705 241.962C217.638 241.87 217.554 241.798 217.452 241.745C217.349 241.693 217.239 241.666 217.119 241.666C216.929 241.666 216.769 241.703 216.638 241.777C216.508 241.848 216.41 241.953 216.343 242.094C216.276 242.231 216.242 242.402 216.242 242.606C216.242 242.8 216.283 242.969 216.364 243.113C216.445 243.254 216.559 243.363 216.707 243.44C216.855 243.518 217.026 243.556 217.219 243.556C217.356 243.556 217.483 243.534 217.599 243.488C217.719 243.442 217.848 243.359 217.985 243.24L218.259 243.625C218.175 243.71 218.071 243.784 217.948 243.847C217.828 243.91 217.7 243.961 217.562 244C217.429 244.035 217.297 244.053 217.166 244.053Z" fill="white"/>
<path d="M176.228 235.103C175.639 235.103 175.118 234.986 174.665 234.753C174.22 234.52 173.836 234.171 173.514 233.705L174.275 232.831C174.611 233.311 174.933 233.643 175.241 233.828C175.549 234.013 175.916 234.106 176.341 234.106C176.601 234.106 176.838 234.065 177.05 233.982C177.263 233.9 177.431 233.787 177.554 233.643C177.677 233.499 177.739 233.335 177.739 233.15C177.739 233.026 177.719 232.91 177.677 232.8C177.636 232.69 177.571 232.591 177.482 232.502C177.4 232.413 177.29 232.331 177.153 232.255C177.023 232.18 176.869 232.115 176.691 232.06C176.512 231.998 176.307 231.947 176.074 231.906C175.58 231.81 175.169 231.666 174.84 231.474C174.518 231.282 174.275 231.039 174.11 230.744C173.953 230.449 173.874 230.107 173.874 229.716C173.874 229.428 173.935 229.161 174.059 228.914C174.189 228.668 174.364 228.455 174.583 228.277C174.809 228.092 175.073 227.951 175.375 227.855C175.676 227.753 176.002 227.701 176.351 227.701C176.906 227.701 177.39 227.811 177.801 228.03C178.219 228.243 178.548 228.554 178.788 228.966L178.006 229.737C177.801 229.401 177.554 229.144 177.266 228.966C176.985 228.787 176.67 228.698 176.32 228.698C176.053 228.698 175.82 228.739 175.621 228.822C175.423 228.904 175.265 229.02 175.149 229.171C175.039 229.315 174.984 229.486 174.984 229.685C174.984 229.829 175.011 229.963 175.066 230.086C175.121 230.203 175.203 230.309 175.313 230.405C175.43 230.494 175.584 230.576 175.776 230.652C175.967 230.72 176.197 230.782 176.464 230.837C176.841 230.919 177.177 231.025 177.472 231.155C177.766 231.279 178.017 231.426 178.222 231.597C178.428 231.769 178.582 231.961 178.685 232.173C178.794 232.385 178.849 232.615 178.849 232.862C178.849 233.321 178.743 233.718 178.531 234.054C178.318 234.39 178.017 234.65 177.626 234.836C177.235 235.014 176.769 235.103 176.228 235.103ZM175.611 235.935V231.268L176.608 231.608V235.935H175.611ZM177.019 231.608L176.022 231.268V226.961H177.019V231.608ZM185.915 235V229.202L186.172 229.264L183.807 232.152L183.766 232.029H188.238V233.047H183.077L182.605 232.122L186.131 227.804H186.984V235H185.915ZM191.313 235.072C190.84 235.072 190.412 234.966 190.028 234.753C189.644 234.534 189.325 234.222 189.072 233.818L189.689 233.129C190.011 233.485 190.292 233.729 190.532 233.859C190.772 233.989 191.032 234.054 191.313 234.054C191.594 234.054 191.847 233.993 192.074 233.869C192.3 233.746 192.478 233.578 192.608 233.365C192.745 233.153 192.814 232.917 192.814 232.656C192.814 232.382 192.749 232.139 192.618 231.926C192.495 231.707 192.327 231.536 192.115 231.412C191.902 231.282 191.662 231.217 191.395 231.217C191.265 231.217 191.142 231.227 191.025 231.248C190.909 231.262 190.768 231.299 190.604 231.361C190.439 231.423 190.223 231.519 189.956 231.649L189.37 230.857L189.791 227.804H193.677V228.832H190.491L190.706 228.637L190.367 230.919L190.11 230.621C190.179 230.552 190.295 230.487 190.46 230.425C190.624 230.357 190.806 230.302 191.005 230.261C191.21 230.213 191.405 230.189 191.59 230.189C192.029 230.189 192.42 230.292 192.762 230.497C193.112 230.696 193.386 230.974 193.585 231.33C193.79 231.686 193.893 232.094 193.893 232.553C193.893 233.026 193.78 233.455 193.554 233.838C193.328 234.215 193.019 234.517 192.629 234.743C192.238 234.962 191.8 235.072 191.313 235.072ZM195.418 236.84L195.028 236.367C195.268 236.23 195.463 236.073 195.614 235.894C195.764 235.716 195.84 235.562 195.84 235.432C195.84 235.363 195.823 235.295 195.788 235.226C195.754 235.164 195.682 235.075 195.573 234.959C195.435 234.829 195.346 234.719 195.305 234.63C195.264 234.541 195.244 234.445 195.244 234.342C195.244 234.178 195.302 234.047 195.418 233.951C195.535 233.849 195.686 233.797 195.871 233.797C196.042 233.797 196.196 233.849 196.333 233.951C196.477 234.047 196.587 234.184 196.662 234.363C196.744 234.534 196.786 234.733 196.786 234.959C196.786 235.164 196.751 235.363 196.683 235.555C196.614 235.747 196.518 235.925 196.395 236.09C196.272 236.254 196.128 236.402 195.963 236.532C195.799 236.662 195.617 236.765 195.418 236.84ZM200.369 235.103C199.821 235.103 199.348 234.952 198.951 234.65C198.56 234.349 198.258 233.924 198.046 233.376C197.833 232.821 197.727 232.163 197.727 231.402C197.727 230.641 197.833 229.987 198.046 229.439C198.258 228.883 198.56 228.455 198.951 228.154C199.348 227.852 199.821 227.701 200.369 227.701C200.917 227.701 201.39 227.852 201.788 228.154C202.185 228.455 202.49 228.883 202.703 229.439C202.915 229.987 203.021 230.641 203.021 231.402C203.021 232.163 202.915 232.821 202.703 233.376C202.49 233.924 202.185 234.349 201.788 234.65C201.39 234.952 200.917 235.103 200.369 235.103ZM200.369 234.095C200.87 234.095 201.257 233.862 201.531 233.396C201.805 232.923 201.942 232.259 201.942 231.402C201.942 230.545 201.805 229.884 201.531 229.418C201.257 228.945 200.87 228.709 200.369 228.709C199.869 228.709 199.482 228.945 199.208 229.418C198.933 229.884 198.796 230.545 198.796 231.402C198.796 232.259 198.933 232.923 199.208 233.396C199.482 233.862 199.869 234.095 200.369 234.095ZM206.614 235.103C206.065 235.103 205.592 234.952 205.195 234.65C204.804 234.349 204.503 233.924 204.29 233.376C204.078 232.821 203.972 232.163 203.972 231.402C203.972 230.641 204.078 229.987 204.29 229.439C204.503 228.883 204.804 228.455 205.195 228.154C205.592 227.852 206.065 227.701 206.614 227.701C207.162 227.701 207.635 227.852 208.032 228.154C208.43 228.455 208.735 228.883 208.947 229.439C209.16 229.987 209.266 230.641 209.266 231.402C209.266 232.163 209.16 232.821 208.947 233.376C208.735 233.924 208.43 234.349 208.032 234.65C207.635 234.952 207.162 235.103 206.614 235.103ZM206.614 234.095C207.114 234.095 207.501 233.862 207.775 233.396C208.049 232.923 208.186 232.259 208.186 231.402C208.186 230.545 208.049 229.884 207.775 229.418C207.501 228.945 207.114 228.709 206.614 228.709C206.113 228.709 205.726 228.945 205.452 229.418C205.178 229.884 205.041 230.545 205.041 231.402C205.041 232.259 205.178 232.923 205.452 233.396C205.726 233.862 206.113 234.095 206.614 234.095ZM212.858 235.103C212.31 235.103 211.837 234.952 211.439 234.65C211.049 234.349 210.747 233.924 210.535 233.376C210.322 232.821 210.216 232.163 210.216 231.402C210.216 230.641 210.322 229.987 210.535 229.439C210.747 228.883 211.049 228.455 211.439 228.154C211.837 227.852 212.31 227.701 212.858 227.701C213.406 227.701 213.879 227.852 214.276 228.154C214.674 228.455 214.979 228.883 215.191 229.439C215.404 229.987 215.51 230.641 215.51 231.402C215.51 232.163 215.404 232.821 215.191 233.376C214.979 233.924 214.674 234.349 214.276 234.65C213.879 234.952 213.406 235.103 212.858 235.103ZM212.858 234.095C213.358 234.095 213.745 233.862 214.019 233.396C214.294 232.923 214.431 232.259 214.431 231.402C214.431 230.545 214.294 229.884 214.019 229.418C213.745 228.945 213.358 228.709 212.858 228.709C212.358 228.709 211.97 228.945 211.696 229.418C211.422 229.884 211.285 230.545 211.285 231.402C211.285 232.259 211.422 232.923 211.696 233.396C211.97 233.862 212.358 234.095 212.858 234.095ZM217.159 235.113C216.933 235.113 216.758 235.048 216.635 234.918C216.512 234.781 216.45 234.589 216.45 234.342C216.45 234.116 216.515 233.931 216.645 233.787C216.775 233.643 216.947 233.571 217.159 233.571C217.385 233.571 217.56 233.64 217.683 233.777C217.807 233.907 217.869 234.095 217.869 234.342C217.869 234.568 217.803 234.753 217.673 234.897C217.543 235.041 217.372 235.113 217.159 235.113ZM221.441 235.103C220.893 235.103 220.42 234.952 220.023 234.65C219.632 234.349 219.33 233.924 219.118 233.376C218.905 232.821 218.799 232.163 218.799 231.402C218.799 230.641 218.905 229.987 219.118 229.439C219.33 228.883 219.632 228.455 220.023 228.154C220.42 227.852 220.893 227.701 221.441 227.701C221.989 227.701 222.462 227.852 222.86 228.154C223.257 228.455 223.562 228.883 223.775 229.439C223.987 229.987 224.093 230.641 224.093 231.402C224.093 232.163 223.987 232.821 223.775 233.376C223.562 233.924 223.257 234.349 222.86 234.65C222.462 234.952 221.989 235.103 221.441 235.103ZM221.441 234.095C221.941 234.095 222.329 233.862 222.603 233.396C222.877 232.923 223.014 232.259 223.014 231.402C223.014 230.545 222.877 229.884 222.603 229.418C222.329 228.945 221.941 228.709 221.441 228.709C220.941 228.709 220.554 228.945 220.28 229.418C220.005 229.884 219.868 230.545 219.868 231.402C219.868 232.259 220.005 232.923 220.28 233.396C220.554 233.862 220.941 234.095 221.441 234.095ZM227.686 235.103C227.137 235.103 226.664 234.952 226.267 234.65C225.876 234.349 225.575 233.924 225.362 233.376C225.15 232.821 225.044 232.163 225.044 231.402C225.044 230.641 225.15 229.987 225.362 229.439C225.575 228.883 225.876 228.455 226.267 228.154C226.664 227.852 227.137 227.701 227.686 227.701C228.234 227.701 228.707 227.852 229.104 228.154C229.502 228.455 229.807 228.883 230.019 229.439C230.232 229.987 230.338 230.641 230.338 231.402C230.338 232.163 230.232 232.821 230.019 233.376C229.807 233.924 229.502 234.349 229.104 234.65C228.707 234.952 228.234 235.103 227.686 235.103ZM227.686 234.095C228.186 234.095 228.573 233.862 228.847 233.396C229.121 232.923 229.258 232.259 229.258 231.402C229.258 230.545 229.121 229.884 228.847 229.418C228.573 228.945 228.186 228.709 227.686 228.709C227.185 228.709 226.798 228.945 226.524 229.418C226.25 229.884 226.113 230.545 226.113 231.402C226.113 232.259 226.25 232.923 226.524 233.396C226.798 233.862 227.185 234.095 227.686 234.095ZM233.93 235.103C233.382 235.103 232.909 234.952 232.511 234.65C232.121 234.349 231.819 233.924 231.607 233.376C231.394 232.821 231.288 232.163 231.288 231.402C231.288 230.641 231.394 229.987 231.607 229.439C231.819 228.883 232.121 228.455 232.511 228.154C232.909 227.852 233.382 227.701 233.93 227.701C234.478 227.701 234.951 227.852 235.348 228.154C235.746 228.455 236.051 228.883 236.263 229.439C236.476 229.987 236.582 230.641 236.582 231.402C236.582 232.163 236.476 232.821 236.263 233.376C236.051 233.924 235.746 234.349 235.348 234.65C234.951 234.952 234.478 235.103 233.93 235.103ZM233.93 234.095C234.43 234.095 234.817 233.862 235.091 233.396C235.366 232.923 235.503 232.259 235.503 231.402C235.503 230.545 235.366 229.884 235.091 229.418C234.817 228.945 234.43 228.709 233.93 228.709C233.43 228.709 233.042 228.945 232.768 229.418C232.494 229.884 232.357 230.545 232.357 231.402C232.357 232.259 232.494 232.923 232.768 233.396C233.042 233.862 233.43 234.095 233.93 234.095Z" fill="white"/>
<path d="M222.312 181.313L219.777 190.387H217.632L215.929 183.926L214.148 190.387L212.016 190.4L209.572 181.313H211.522L213.121 188.359L214.967 181.313H216.995L218.737 188.32L220.349 181.313H222.312ZM223.033 186.76C223.033 186.032 223.176 185.386 223.462 184.823C223.756 184.26 224.151 183.826 224.645 183.523C225.147 183.22 225.706 183.068 226.322 183.068C226.859 183.068 227.327 183.176 227.726 183.393C228.133 183.61 228.458 183.883 228.701 184.212V183.185H230.534V190.387H228.701V189.334C228.467 189.672 228.142 189.954 227.726 190.179C227.318 190.396 226.846 190.504 226.309 190.504C225.702 190.504 225.147 190.348 224.645 190.036C224.151 189.724 223.756 189.286 223.462 188.723C223.176 188.151 223.033 187.497 223.033 186.76ZM228.701 186.786C228.701 186.344 228.614 185.967 228.441 185.655C228.267 185.334 228.033 185.092 227.739 184.927C227.444 184.754 227.128 184.667 226.79 184.667C226.452 184.667 226.14 184.749 225.854 184.914C225.568 185.079 225.334 185.321 225.152 185.642C224.978 185.954 224.892 186.327 224.892 186.76C224.892 187.193 224.978 187.575 225.152 187.904C225.334 188.225 225.568 188.472 225.854 188.645C226.148 188.818 226.46 188.905 226.79 188.905C227.128 188.905 227.444 188.823 227.739 188.658C228.033 188.485 228.267 188.242 228.441 187.93C228.614 187.609 228.701 187.228 228.701 186.786ZM234.131 180.767V190.387H232.311V180.767H234.131ZM237.749 180.767V190.387H235.929V180.767H237.749ZM246.242 186.63C246.242 186.89 246.225 187.124 246.19 187.332H240.925C240.969 187.852 241.151 188.259 241.471 188.554C241.792 188.849 242.186 188.996 242.654 188.996C243.33 188.996 243.811 188.706 244.097 188.125H246.06C245.852 188.818 245.454 189.39 244.864 189.841C244.275 190.283 243.551 190.504 242.693 190.504C242 190.504 241.376 190.352 240.821 190.049C240.275 189.737 239.846 189.299 239.534 188.736C239.231 188.173 239.079 187.523 239.079 186.786C239.079 186.041 239.231 185.386 239.534 184.823C239.838 184.26 240.262 183.826 240.808 183.523C241.354 183.22 241.983 183.068 242.693 183.068C243.378 183.068 243.989 183.215 244.526 183.51C245.072 183.805 245.493 184.225 245.787 184.771C246.091 185.308 246.242 185.928 246.242 186.63ZM244.357 186.11C244.349 185.642 244.18 185.269 243.85 184.992C243.521 184.706 243.118 184.563 242.641 184.563C242.191 184.563 241.809 184.702 241.497 184.979C241.194 185.248 241.008 185.625 240.938 186.11H244.357ZM249.69 184.68V188.164C249.69 188.407 249.746 188.584 249.859 188.697C249.98 188.801 250.179 188.853 250.457 188.853H251.302V190.387H250.158C248.624 190.387 247.857 189.642 247.857 188.151V184.68H246.999V183.185H247.857V181.404H249.69V183.185H251.302V184.68H249.69Z" fill="#2C2C2C"/>
<path d="M168.809 184.992L172.781 181.218C172.922 181.084 173 180.902 173 180.713C173 180.524 172.92 180.342 172.779 180.208C172.639 180.075 172.448 180 172.249 180C172.05 180 171.859 180.076 171.719 180.21L167.218 184.492C167.082 184.622 167.004 184.797 167 184.98C166.996 185.164 167.067 185.341 167.197 185.477L171.715 189.79C171.856 189.924 172.047 190 172.245 190C172.444 190 172.635 189.925 172.776 189.792C172.917 189.658 172.996 189.476 172.997 189.287C172.997 189.098 172.918 188.916 172.778 188.782L168.809 184.992Z" fill="#2C2C2C"/>
<rect x="179" y="256" width="22" height="3" rx="1.5" fill="#3B3B3B"/>
<rect x="179" y="266" width="39" height="3" rx="1.5" fill="#3B3B3B"/>
<rect x="179" y="276" width="22" height="3" rx="1.5" fill="#3B3B3B"/>
<rect x="179" y="286" width="44" height="3" rx="1.5" fill="#3B3B3B"/>
<rect x="179" y="296" width="25" height="3" rx="1.5" fill="#3B3B3B"/>
<rect x="254" y="256" width="30" height="3" rx="1.5" fill="#21BFFD"/>
<rect x="259" y="266" width="25" height="3" rx="1.5" fill="#21BFFD"/>
<rect x="251" y="276" width="33" height="3" rx="1.5" fill="#21BFFD"/>
<rect x="266" y="286" width="18" height="3" rx="1.5" fill="#21BFFD"/>
<rect x="242" y="296" width="42" height="3" rx="1.5" fill="#21BFFD"/>
<rect x="167" y="328" width="128" height="26" rx="5" fill="white"/>
<path d="M267.655 343.053C267.352 343.053 267.085 342.993 266.853 342.873C266.624 342.754 266.427 342.574 266.262 342.335L266.652 341.886C266.825 342.133 266.99 342.303 267.148 342.398C267.307 342.493 267.495 342.541 267.713 342.541C267.847 342.541 267.968 342.52 268.077 342.478C268.186 342.435 268.272 342.377 268.336 342.303C268.399 342.229 268.431 342.145 268.431 342.05C268.431 341.987 268.42 341.927 268.399 341.871C268.378 341.814 268.345 341.763 268.299 341.718C268.257 341.672 268.2 341.63 268.13 341.591C268.063 341.552 267.984 341.519 267.892 341.491C267.801 341.459 267.695 341.433 267.576 341.411C267.323 341.362 267.111 341.288 266.943 341.19C266.777 341.091 266.652 340.966 266.568 340.815C266.487 340.664 266.446 340.488 266.446 340.287C266.446 340.14 266.478 340.002 266.541 339.876C266.608 339.749 266.698 339.64 266.811 339.549C266.927 339.454 267.062 339.381 267.217 339.332C267.372 339.279 267.539 339.253 267.718 339.253C268.003 339.253 268.251 339.309 268.462 339.422C268.677 339.531 268.846 339.691 268.969 339.902L268.568 340.298C268.462 340.126 268.336 339.994 268.188 339.902C268.044 339.811 267.882 339.765 267.702 339.765C267.565 339.765 267.446 339.786 267.344 339.828C267.242 339.87 267.161 339.93 267.101 340.008C267.045 340.082 267.016 340.17 267.016 340.272C267.016 340.345 267.03 340.414 267.059 340.477C267.087 340.537 267.129 340.592 267.185 340.641C267.245 340.687 267.324 340.729 267.423 340.768C267.521 340.803 267.639 340.835 267.776 340.863C267.97 340.905 268.142 340.959 268.294 341.026C268.445 341.09 268.573 341.165 268.679 341.253C268.784 341.341 268.864 341.44 268.916 341.549C268.973 341.658 269.001 341.776 269.001 341.902C269.001 342.138 268.946 342.342 268.837 342.514C268.728 342.687 268.573 342.821 268.373 342.916C268.172 343.007 267.933 343.053 267.655 343.053ZM267.338 343.48V341.084L267.85 341.258V343.48H267.338ZM268.061 341.258L267.549 341.084V338.873H268.061V341.258ZM269.782 343L269.608 342.567L270.737 341.295C270.797 341.232 270.858 341.16 270.922 341.079C270.989 340.995 271.052 340.908 271.112 340.82C271.172 340.732 271.219 340.646 271.254 340.562C271.293 340.474 271.312 340.391 271.312 340.314C271.312 340.201 271.289 340.106 271.244 340.029C271.202 339.948 271.138 339.886 271.054 339.844C270.973 339.802 270.874 339.781 270.758 339.781C270.656 339.781 270.556 339.811 270.457 339.87C270.359 339.93 270.269 340.015 270.188 340.124C270.107 340.233 270.044 340.36 269.998 340.504L269.56 340.229C269.62 340.025 269.71 339.851 269.829 339.707C269.953 339.559 270.099 339.447 270.267 339.369C270.44 339.292 270.626 339.253 270.827 339.253C271.034 339.253 271.219 339.297 271.381 339.385C271.543 339.469 271.669 339.589 271.761 339.744C271.852 339.895 271.898 340.071 271.898 340.272C271.898 340.352 271.889 340.435 271.872 340.52C271.854 340.604 271.826 340.692 271.787 340.783C271.749 340.871 271.699 340.965 271.64 341.063C271.58 341.158 271.508 341.258 271.423 341.364C271.342 341.47 271.249 341.58 271.143 341.696L270.304 342.609L270.199 342.451H272.014V343H269.782ZM272.647 343.945L272.446 343.702C272.569 343.632 272.67 343.551 272.747 343.459C272.824 343.368 272.863 343.288 272.863 343.222C272.863 343.186 272.854 343.151 272.837 343.116C272.819 343.084 272.782 343.039 272.726 342.979C272.656 342.912 272.61 342.856 272.589 342.81C272.568 342.764 272.557 342.715 272.557 342.662C272.557 342.578 272.587 342.511 272.647 342.462C272.707 342.409 272.784 342.383 272.879 342.383C272.967 342.383 273.046 342.409 273.116 342.462C273.19 342.511 273.247 342.581 273.285 342.673C273.328 342.761 273.349 342.863 273.349 342.979C273.349 343.084 273.331 343.186 273.296 343.285C273.261 343.383 273.211 343.475 273.148 343.559C273.085 343.644 273.011 343.719 272.926 343.786C272.842 343.853 272.749 343.906 272.647 343.945ZM274.946 343.037C274.703 343.037 274.483 342.982 274.286 342.873C274.089 342.761 273.925 342.601 273.795 342.393L274.112 342.04C274.277 342.222 274.421 342.347 274.545 342.414C274.668 342.481 274.801 342.514 274.946 342.514C275.09 342.514 275.22 342.483 275.336 342.419C275.452 342.356 275.544 342.27 275.611 342.161C275.681 342.052 275.716 341.93 275.716 341.797C275.716 341.656 275.683 341.531 275.616 341.422C275.553 341.309 275.466 341.222 275.357 341.158C275.248 341.091 275.125 341.058 274.988 341.058C274.921 341.058 274.858 341.063 274.798 341.074C274.738 341.081 274.666 341.1 274.581 341.132C274.497 341.163 274.386 341.213 274.249 341.28L273.948 340.873L274.165 339.306H276.159V339.834H274.523L274.634 339.733L274.46 340.905L274.328 340.752C274.363 340.717 274.423 340.683 274.508 340.652C274.592 340.616 274.685 340.588 274.787 340.567C274.893 340.542 274.993 340.53 275.088 340.53C275.313 340.53 275.514 340.583 275.69 340.688C275.869 340.791 276.01 340.933 276.112 341.116C276.217 341.299 276.27 341.508 276.27 341.744C276.27 341.987 276.212 342.207 276.096 342.404C275.98 342.597 275.822 342.752 275.621 342.868C275.421 342.981 275.195 343.037 274.946 343.037ZM278.188 343.053C277.906 343.053 277.664 342.975 277.46 342.821C277.259 342.666 277.104 342.448 276.995 342.166C276.886 341.881 276.832 341.543 276.832 341.153C276.832 340.762 276.886 340.426 276.995 340.145C277.104 339.86 277.259 339.64 277.46 339.485C277.664 339.33 277.906 339.253 278.188 339.253C278.469 339.253 278.712 339.33 278.916 339.485C279.12 339.64 279.277 339.86 279.386 340.145C279.495 340.426 279.549 340.762 279.549 341.153C279.549 341.543 279.495 341.881 279.386 342.166C279.277 342.448 279.12 342.666 278.916 342.821C278.712 342.975 278.469 343.053 278.188 343.053ZM278.188 342.536C278.445 342.536 278.643 342.416 278.784 342.177C278.925 341.934 278.995 341.593 278.995 341.153C278.995 340.713 278.925 340.374 278.784 340.134C278.643 339.892 278.445 339.77 278.188 339.77C277.931 339.77 277.732 339.892 277.591 340.134C277.451 340.374 277.38 340.713 277.38 341.153C277.38 341.593 277.451 341.934 277.591 342.177C277.732 342.416 277.931 342.536 278.188 342.536ZM281.393 343.053C281.112 343.053 280.869 342.975 280.665 342.821C280.465 342.666 280.31 342.448 280.201 342.166C280.092 341.881 280.037 341.543 280.037 341.153C280.037 340.762 280.092 340.426 280.201 340.145C280.31 339.86 280.465 339.64 280.665 339.485C280.869 339.33 281.112 339.253 281.393 339.253C281.675 339.253 281.918 339.33 282.122 339.485C282.326 339.64 282.482 339.86 282.591 340.145C282.7 340.426 282.755 340.762 282.755 341.153C282.755 341.543 282.7 341.881 282.591 342.166C282.482 342.448 282.326 342.666 282.122 342.821C281.918 342.975 281.675 343.053 281.393 343.053ZM281.393 342.536C281.65 342.536 281.849 342.416 281.99 342.177C282.131 341.934 282.201 341.593 282.201 341.153C282.201 340.713 282.131 340.374 281.99 340.134C281.849 339.892 281.65 339.77 281.393 339.77C281.137 339.77 280.938 339.892 280.797 340.134C280.656 340.374 280.586 340.713 280.586 341.153C280.586 341.593 280.656 341.934 280.797 342.177C280.938 342.416 281.137 342.536 281.393 342.536Z" fill="#35CA00"/>
<rect x="169" y="338" width="45.3857" height="3.16645" rx="1.58322" fill="#E4E6EA"/>
<rect x="169" y="343" width="35" height="3" rx="1.5" fill="#E4E6EA"/>
<defs>
<clipPath id="clip0_599_3058">
<rect width="126.658" height="6.35908" fill="white" transform="translate(167.672 155.333)"/>
</clipPath>
</defs>
</svg>
