<svg width="144" height="45" viewBox="0 0 144 45" fill="none" xmlns="http://www.w3.org/2000/svg">
<path d="M75.0703 3.91301C75.06 3.69645 75.0949 3.48013 75.1727 3.2778C75.2505 3.07548 75.3696 2.89158 75.5223 2.73781C75.8874 2.47054 76.3355 2.34154 76.7867 2.37375C77.154 2.38978 77.5179 2.45046 77.8706 2.55444C78.2316 2.64479 78.4128 2.73514 78.5031 2.73514V18.6498H75.0703V11.6896H68.0234V18.6498H64.5906V3.91301C64.5804 3.69645 64.6152 3.48013 64.6931 3.2778C64.7709 3.07548 64.8899 2.89158 65.0426 2.73781C65.4083 2.47134 65.8566 2.34328 66.3077 2.37642C66.675 2.39246 67.0389 2.45314 67.3916 2.55712C67.7526 2.64747 67.9338 2.73781 68.0241 2.73781V8.70547H75.0703V3.91301Z" fill="white"/>
<path d="M93.0479 18.4683C92.8722 18.5237 92.6897 18.5541 92.5056 18.5587C92.2348 18.649 91.7828 18.649 91.3314 18.7394C90.763 18.8195 90.1887 18.8498 89.615 18.8297C88.9825 18.8297 88.1694 18.9201 87.3563 18.9201C86.3855 18.9373 85.4158 18.8464 84.4651 18.649C83.8131 18.507 83.1981 18.2298 82.6598 17.8352C82.2572 17.5333 81.9448 17.1269 81.7564 16.66C81.5713 16.1683 81.4794 15.6462 81.4856 15.1208C81.4805 14.5079 81.5718 13.8981 81.7564 13.3138C81.9523 12.801 82.2987 12.3596 82.7501 12.0476C83.271 11.6993 83.8536 11.4538 84.4665 11.3241C85.3259 11.1302 86.2053 11.0393 87.0862 11.0531C87.6895 11.0334 88.2933 11.0636 88.8916 11.1434C89.1646 11.1512 89.4365 11.1815 89.7046 11.2338V10.8757C89.7097 10.5549 89.6481 10.2365 89.5236 9.94073C89.3992 9.64498 89.2147 9.37836 88.9818 9.15779C88.2821 8.71086 87.4622 8.48986 86.6329 8.52468C86.2091 8.50636 85.7847 8.53668 85.3678 8.61503C85.0067 8.70538 84.7353 8.79573 84.4645 8.88608C84.2429 8.98666 84.0311 9.10765 83.8319 9.24747C83.6698 9.31721 83.5178 9.40837 83.3799 9.51851C83.1258 9.35571 82.91 9.13971 82.7474 8.88541C82.564 8.62019 82.4692 8.30369 82.4766 7.98126C82.4678 7.81337 82.4955 7.64558 82.5578 7.48947C82.6202 7.33337 82.7157 7.19267 82.8376 7.07711C83.0832 6.79604 83.3931 6.57879 83.741 6.444C84.1456 6.2702 84.5707 6.14876 85.0061 6.08261C85.4844 6.00676 85.9689 5.97584 86.453 5.99026C87.3337 5.9814 88.2125 6.07233 89.0728 6.2613C89.8039 6.42162 90.5052 6.69626 91.1509 7.0751C91.7375 7.48923 92.2049 8.05056 92.5062 8.7027C92.8194 9.50933 92.9729 10.3692 92.9583 11.2345V18.4683H93.0479ZM89.7956 13.3151C89.7466 13.321 89.6969 13.316 89.65 13.3003C89.6032 13.2847 89.5604 13.2589 89.5248 13.2248C89.3397 13.2324 89.1551 13.2017 88.9825 13.1344H87.6278C87.1406 13.1384 86.6554 13.199 86.1822 13.3151C85.884 13.3613 85.6034 13.4861 85.3691 13.6765C85.2688 13.7517 85.185 13.8466 85.1229 13.9555C85.0608 14.0644 85.0217 14.185 85.0081 14.3096C84.9337 14.5432 84.9031 14.7884 84.9178 15.0331C84.9033 15.2481 84.934 15.4638 85.0081 15.6662C85.0961 15.8667 85.2183 16.0503 85.3691 16.209C85.6034 16.3994 85.884 16.5241 86.1822 16.5703C86.6247 16.6871 87.08 16.7478 87.5375 16.751C88.0213 16.7755 88.5062 16.7452 88.9832 16.6607C89.249 16.5949 89.5224 16.5645 89.7962 16.5703L89.7956 13.3151Z" fill="white"/>
<path d="M96.5713 7.34697C96.7313 7.21993 96.916 7.12762 97.1136 7.07593C97.4652 6.92818 97.8275 6.80737 98.1974 6.71454C98.6494 6.62419 99.191 6.44349 99.9138 6.35315C100.662 6.24069 101.416 6.18032 102.173 6.17245C103.124 6.16821 104.071 6.32106 104.973 6.62486C105.758 6.9681 106.488 7.42421 107.141 7.97874C107.773 8.53592 108.242 9.25502 108.497 10.0588C108.793 10.9325 108.946 11.8485 108.949 12.7712C108.955 13.6357 108.801 14.494 108.497 15.303C108.235 15.9804 107.835 16.5958 107.322 17.1099C106.812 17.6061 106.194 17.9774 105.517 18.1948C104.826 18.4609 104.088 18.5839 103.349 18.5561C102.862 18.5463 102.377 18.4857 101.903 18.3755C101.522 18.3244 101.154 18.2018 100.819 18.0141C100.587 17.9347 100.373 17.812 100.187 17.6527C100.006 17.5634 99.9158 17.4731 99.9158 17.3816V23.1706H96.5726L96.5713 7.34697ZM105.515 12.5002C105.505 12.0427 105.445 11.5877 105.335 11.1436C105.179 10.7247 104.966 10.3292 104.702 9.9684C104.424 9.60119 104.048 9.31928 103.618 9.1546C103.159 8.96949 102.668 8.87737 102.173 8.88356C101.625 8.87737 101.079 8.93805 100.546 9.06425C100.316 9.1002 100.099 9.1934 99.9138 9.3353V14.7609C100.024 14.8989 100.115 15.051 100.185 15.2133C100.299 15.4299 100.494 15.5925 100.727 15.6657C100.961 15.8561 101.242 15.9809 101.54 16.0271C101.92 16.1453 102.316 16.2062 102.714 16.2078C103.12 16.2319 103.527 16.163 103.903 16.0064C104.278 15.8497 104.614 15.6094 104.883 15.3036C105.292 14.426 105.508 13.4702 105.515 12.5015V12.5002Z" fill="white"/>
<path d="M111.839 7.34697C111.999 7.21993 112.184 7.12762 112.381 7.07593C112.733 6.92818 113.095 6.80737 113.465 6.71454C113.917 6.62419 114.459 6.44349 115.181 6.35315C115.929 6.2407 116.684 6.18032 117.44 6.17245C118.392 6.1682 119.338 6.32105 120.24 6.62486C121.025 6.96808 121.756 7.42419 122.409 7.97874C123.041 8.53592 123.51 9.25502 123.764 10.0588C124.06 10.9325 124.213 11.8485 124.216 12.7712C124.222 13.6357 124.069 14.494 123.764 15.303C123.503 15.9804 123.103 16.5958 122.59 17.1099C122.08 17.6061 121.462 17.9774 120.785 18.1948C120.094 18.461 119.356 18.5839 118.616 18.5562C118.129 18.5463 117.645 18.4857 117.171 18.3755C116.79 18.3244 116.422 18.2018 116.087 18.0141C115.855 17.9347 115.64 17.812 115.454 17.6527C115.274 17.5634 115.183 17.4731 115.183 17.3816V23.1706H111.84L111.839 7.34697ZM120.783 12.5002C120.773 12.0427 120.712 11.5877 120.602 11.1436C120.446 10.7247 120.233 10.3292 119.97 9.9684C119.691 9.60119 119.316 9.31929 118.886 9.1546C118.426 8.96949 117.935 8.87737 117.44 8.88356C116.893 8.87737 116.347 8.93805 115.814 9.06425C115.584 9.1002 115.366 9.1934 115.181 9.3353V14.7609C115.291 14.8989 115.383 15.051 115.452 15.2133C115.566 15.4299 115.761 15.5925 115.994 15.6657C116.229 15.8562 116.509 15.9809 116.808 16.0271C117.188 16.1453 117.584 16.2062 117.982 16.2078C118.388 16.2319 118.795 16.163 119.17 16.0064C119.546 15.8497 119.881 15.6094 120.15 15.3036C120.56 14.426 120.776 13.4702 120.783 12.5015V12.5002Z" fill="white"/>
<path d="M134.786 7.98009C134.921 7.60591 135.137 7.26628 135.419 6.98559C135.593 6.84094 135.795 6.73412 136.013 6.67191C136.231 6.6097 136.459 6.59345 136.684 6.6242C137.093 6.59478 137.502 6.68921 137.858 6.89524C138.129 7.07594 138.31 7.25664 138.4 7.25664C138.31 7.61803 138.129 8.07044 137.948 8.61319C137.767 9.15595 137.496 9.69804 137.225 10.3311C136.946 10.9173 136.704 11.5208 136.502 12.1381C136.232 12.7712 135.96 13.3133 135.78 13.7657C135.352 14.786 134.87 15.7823 134.334 16.7499C133.862 17.7814 133.319 18.7786 132.708 19.734L131.893 21.0913C131.611 21.5226 131.278 21.9174 130.899 22.2665C130.517 22.6405 130.053 22.9193 129.544 23.0803C128.992 23.2724 128.411 23.3642 127.827 23.3513C127.464 23.3672 127.1 23.338 126.744 23.2643C126.383 23.1739 126.112 23.1739 125.841 23.0836C125.64 22.9933 125.427 22.9325 125.208 22.9029C125.028 22.8126 124.938 22.8126 124.938 22.7222L125.841 20.3712C125.931 20.4615 126.112 20.4615 126.473 20.5518C126.795 20.6556 127.129 20.7163 127.467 20.7325C127.926 20.7202 128.369 20.5618 128.732 20.2801C129.175 19.9212 129.517 19.4539 129.726 18.9236L130.448 17.567C130.178 17.1146 129.906 16.6629 129.545 16.1201C129.184 15.5774 128.913 15.0353 128.552 14.4925C128.19 13.9498 127.919 13.4077 127.558 12.7746C127.287 12.2318 126.925 11.6897 126.745 11.2353C126.474 10.7829 126.293 10.4215 126.112 10.0601C125.932 9.78906 125.842 9.51734 125.751 9.427C125.661 9.15595 125.48 8.97459 125.48 8.70354C125.4 8.47132 125.37 8.2249 125.39 7.98009C125.376 7.79452 125.407 7.60824 125.48 7.43733C125.55 7.2751 125.641 7.12294 125.751 6.98492C125.813 6.89118 125.892 6.81084 125.985 6.74873C126.079 6.68662 126.183 6.64404 126.294 6.62353C126.555 6.53783 126.832 6.50708 127.107 6.53318C127.475 6.53365 127.841 6.59469 128.19 6.71388C128.322 6.74855 128.445 6.81007 128.552 6.89457C128.642 6.98492 128.733 7.34698 129.004 7.88907C129.276 8.43116 129.546 9.06427 129.908 9.69603C130.269 10.4195 130.63 11.1429 130.991 11.9567C131.352 12.7705 131.804 13.496 132.166 14.2174C132.429 13.5379 132.731 12.8739 133.069 12.2285C133.34 11.5953 133.611 10.9622 133.792 10.4215C134.062 9.87874 134.244 9.33665 134.424 8.97459C134.525 8.63628 134.646 8.30421 134.786 7.98009Z" fill="white"/>
<path d="M75.7929 25.8308C76.0172 25.8 76.2456 25.8163 76.4633 25.8785C76.6811 25.9407 76.8836 26.0475 77.0579 26.1922C77.1889 26.3388 77.2885 26.5107 77.3506 26.6973C77.4127 26.8838 77.436 27.0812 77.419 27.2771C77.411 27.616 77.3501 27.9515 77.2385 28.2716C77.1868 28.4693 77.0946 28.6542 76.9677 28.8143H71.7275V42.0165H68.2947V28.815H64.5904C64.366 28.8457 64.1377 28.8295 63.9199 28.7673C63.7021 28.7051 63.4997 28.5983 63.3253 28.4536C63.1945 28.3071 63.0951 28.1355 63.033 27.9492C62.9709 27.7628 62.9475 27.5658 62.9642 27.3701C62.9722 27.0312 63.0332 26.6956 63.1448 26.3756C63.1964 26.1778 63.2886 25.993 63.4156 25.8328H75.7922L75.7929 25.8308Z" fill="white"/>
<path d="M87.8077 34.2425C87.7921 34.6995 87.7316 35.1539 87.6272 35.5991C87.5045 35.9791 87.2867 36.3215 86.9946 36.5936C86.6586 36.8944 86.2563 37.1113 85.8205 37.2267C85.2336 37.3903 84.6228 37.4515 84.0151 37.4074H79.3159C79.5034 38.0715 79.9192 38.6479 80.4901 39.035C81.217 39.4962 82.0708 39.7161 82.9299 39.6634C83.7165 39.6668 84.5021 39.6063 85.2789 39.4827C85.6223 39.399 85.9555 39.2778 86.2725 39.1213L87.1758 41.4724L86.8148 41.653C86.4903 41.7666 86.1583 41.8572 85.8212 41.9241C85.4601 42.0144 84.9178 42.1048 84.3755 42.1951C83.7771 42.2725 83.1734 42.3028 82.5702 42.2855C81.6833 42.305 80.799 42.183 79.9505 41.9241C79.184 41.6788 78.4757 41.2794 77.869 40.7502C77.2397 40.2276 76.7701 39.5384 76.5136 38.7612C76.1667 37.8695 76.0126 36.9142 76.0616 35.9584C76.0646 35.0358 76.2173 34.1197 76.5136 33.246C76.7922 32.4741 77.2228 31.7661 77.78 31.164C78.3676 30.6108 79.0382 30.153 79.7672 29.8074C80.609 29.5106 81.4946 29.3577 82.387 29.355C83.1861 29.3206 83.9841 29.4434 84.7359 29.7164C85.3744 29.9169 85.9606 30.2566 86.4524 30.7109C86.8907 31.1302 87.2569 31.6191 87.5362 32.1578C87.6991 32.8413 87.79 33.54 87.8077 34.2425ZM84.7359 33.9715C84.7454 33.727 84.7149 33.4826 84.6457 33.248C84.5632 32.9703 84.407 32.7203 84.1937 32.5246C83.9696 32.3222 83.7276 32.1406 83.4709 31.9818C83.0906 31.8636 82.6949 31.8027 82.2967 31.8011C81.8187 31.7808 81.3459 31.9069 80.9414 32.1625C80.5634 32.3308 80.2477 32.6136 80.0387 32.9709C79.7873 33.2927 79.603 33.6615 79.4964 34.0558C79.3924 34.4395 79.3318 34.8337 79.3159 35.231H83.5618C84.1041 35.231 84.3749 35.1406 84.5554 34.8696C84.6984 34.5921 84.7612 34.2801 84.7366 33.9688L84.7359 33.9715Z" fill="white"/>
<path d="M99.0106 42.1062V35.3247C99.0106 33.3358 98.1073 32.4309 96.3006 32.4309C95.7826 32.4295 95.2663 32.4901 94.7627 32.6116C94.4832 32.674 94.2108 32.7648 93.9497 32.8827V42.1062H90.6064V30.8033C90.8048 30.7538 90.99 30.6613 91.1487 30.5323C91.5318 30.3863 91.924 30.2655 92.3229 30.1709C92.7749 30.0805 93.4067 29.8999 94.0393 29.8095C94.7567 29.6968 95.4815 29.6364 96.2077 29.6288C97.0358 29.6022 97.862 29.7246 98.6469 29.9902C99.3462 30.1739 99.9948 30.5139 100.544 30.9847C101.058 31.3907 101.462 31.9202 101.718 32.524C102.015 33.2089 102.169 33.9476 102.17 34.6943V42.1062H99.0106Z" fill="white"/>
<path d="M116.537 42.0157C116.361 42.071 116.179 42.1014 115.995 42.106C115.724 42.1964 115.272 42.1964 114.82 42.2867C114.251 42.3669 113.677 42.3971 113.103 42.3771C112.471 42.3771 111.658 42.4674 110.845 42.4674C109.874 42.4846 108.904 42.3937 107.953 42.1964C107.301 42.0544 106.686 41.7772 106.148 41.3826C105.745 41.0807 105.433 40.6743 105.245 40.2074C105.06 39.7156 104.968 39.1936 104.974 38.6681C104.969 38.0553 105.06 37.4455 105.245 36.8612C105.441 36.3484 105.787 35.9069 106.238 35.5949C106.759 35.2467 107.342 35.0012 107.955 34.8715C108.814 34.6776 109.694 34.5866 110.574 34.6004C111.178 34.5807 111.782 34.6109 112.38 34.6908C112.653 34.6986 112.925 34.7288 113.193 34.7811V34.4231C113.198 34.1022 113.136 33.7838 113.012 33.4881C112.887 33.1923 112.703 32.9257 112.47 32.7051C111.77 32.2582 110.95 32.0372 110.121 32.072C109.697 32.0537 109.273 32.084 108.856 32.1624C108.495 32.2527 108.224 32.3431 107.953 32.4334C107.731 32.534 107.519 32.655 107.32 32.7948C107.158 32.8646 107.006 32.9557 106.868 33.0659C106.614 32.903 106.398 32.6871 106.236 32.4328C106.052 32.1675 105.958 31.851 105.965 31.5286C105.956 31.3607 105.984 31.1929 106.046 31.0368C106.108 30.8807 106.204 30.74 106.326 30.6245C106.571 30.3434 106.881 30.1262 107.229 29.9914C107.634 29.8176 108.059 29.6961 108.494 29.63C108.972 29.5549 109.456 29.5246 109.94 29.5396C110.821 29.5308 111.699 29.6217 112.56 29.8107C113.291 29.971 113.992 30.2456 114.638 30.6245C115.224 31.0386 115.692 31.5999 115.993 32.2521C116.306 33.0587 116.459 33.9186 116.445 34.7838V42.0157H116.537ZM113.285 36.7715C113.236 36.7774 113.186 36.7723 113.139 36.7567C113.092 36.7411 113.049 36.7153 113.014 36.6811C112.829 36.6888 112.644 36.658 112.471 36.5908H111.116C110.629 36.5947 110.144 36.6554 109.67 36.7715C109.372 36.8177 109.092 36.9424 108.857 37.1329C108.757 37.208 108.673 37.303 108.611 37.4119C108.549 37.5208 108.51 37.6413 108.496 37.766C108.422 37.9995 108.391 38.2448 108.406 38.4894C108.392 38.7045 108.422 38.9201 108.496 39.1225C108.584 39.323 108.707 39.5066 108.857 39.6653C109.092 39.8558 109.372 39.9805 109.67 40.0267C110.113 40.1434 110.568 40.2041 111.026 40.2074C111.51 40.2319 111.995 40.2016 112.471 40.117C112.737 40.0512 113.011 40.0209 113.285 40.0267V36.7715Z" fill="white"/>
<path d="M128.372 42.1062V35.3247C128.372 33.3358 127.469 32.4309 125.662 32.4309C125.144 32.4295 124.628 32.4901 124.124 32.6116C123.845 32.674 123.572 32.7648 123.311 32.8827V42.1062H119.968V30.8033C120.166 30.7538 120.351 30.6613 120.51 30.5323C120.893 30.3863 121.285 30.2655 121.684 30.1709C122.136 30.0805 122.768 29.8999 123.401 29.8095C124.118 29.6968 124.843 29.6364 125.569 29.6288C126.397 29.6022 127.223 29.7246 128.008 29.9902C128.708 30.1739 129.356 30.5139 129.905 30.9847C130.42 31.3907 130.824 31.9201 131.08 32.524C131.377 33.2089 131.531 33.9476 131.532 34.6943V42.1062H128.372Z" fill="white"/>
<path d="M139.213 32.7032V37.9474C139.189 38.2065 139.216 38.4679 139.294 38.7163C139.372 38.9647 139.498 39.1951 139.665 39.3943C140.031 39.6608 140.479 39.7888 140.93 39.7557C141.145 39.7703 141.36 39.7395 141.563 39.6654C141.743 39.575 141.924 39.575 142.105 39.4847C142.286 39.3943 142.376 39.304 142.557 39.304C142.604 39.2524 142.668 39.2202 142.737 39.2136L144.003 41.2026L143.732 41.4737C143.504 41.6446 143.262 41.796 143.009 41.9261C142.648 42.1068 142.286 42.1971 141.835 42.3785C141.329 42.4886 140.814 42.5491 140.297 42.5592C138.759 42.5592 137.677 42.1978 137.045 41.384C136.384 40.5314 136.033 39.4787 136.051 38.3998V32.8839H135.238C134.696 32.8839 134.335 32.7936 134.154 32.5225C133.928 32.2399 133.801 31.8903 133.793 31.528C133.8 31.2185 133.862 30.9125 133.974 30.6239C134.064 30.3528 134.154 30.2625 134.154 30.1715H136.051V27.9108C136.03 27.7066 136.061 27.5004 136.14 27.311C136.218 27.1215 136.343 26.9548 136.503 26.8259C136.892 26.621 137.33 26.5272 137.768 26.5549C138.102 26.5357 138.437 26.5662 138.762 26.6452C139.032 26.7356 139.304 26.7356 139.304 26.8259V29.9908H141.833C142.376 29.9908 142.737 30.0811 142.917 30.3522C143.144 30.6348 143.271 30.9844 143.278 31.3467C143.271 31.6562 143.21 31.9621 143.098 32.2508C143.008 32.5218 142.917 32.6122 142.917 32.7032H139.213Z" fill="white"/>
<path d="M54.353 30.308C53.9415 29.8837 53.3809 29.6369 52.7903 29.62C52.1998 29.6031 51.626 29.8176 51.191 30.2176C49.3549 31.9257 47.3919 33.4918 45.319 34.9024V14.6242C45.3186 14.2965 45.2457 13.973 45.1055 13.6768C44.9652 13.3807 44.7611 13.1194 44.5079 12.9117L29.1478 0.473072C28.7454 0.166197 28.2535 0 27.7476 0C27.2418 0 26.7499 0.166197 26.3475 0.473072L10.4471 12.822C10.1935 13.0295 9.98906 13.2908 9.84846 13.5869C9.70786 13.883 9.63464 14.2067 9.63406 14.5346V27.874C9.63406 28.4735 9.87203 29.0486 10.2956 29.4725C10.7192 29.8965 11.2937 30.1347 11.8927 30.1347C12.4918 30.1347 13.0663 29.8965 13.4899 29.4725C13.9135 29.0486 14.1514 28.4735 14.1514 27.874V15.6161L27.7918 4.97977L40.9828 15.6161V37.4274C20.8379 47.3436 4.57509 31.1191 3.85429 30.308C3.4428 29.8837 2.88215 29.6369 2.29162 29.62C1.70108 29.6031 1.12727 29.8176 0.692271 30.2176C0.267302 30.6268 0.0197572 31.1866 0.00287651 31.7766C-0.0140041 32.3666 0.201128 32.9396 0.602004 33.3725C0.782538 33.5525 12.1655 44.9999 27.9757 44.9999C35.9258 44.9999 44.9592 42.1155 54.2648 33.4628C54.6895 33.0534 54.9366 32.4934 54.9531 31.9035C54.9696 31.3135 54.7542 30.7406 54.353 30.308Z" fill="white"/>
</svg>
