<svg width="480" height="540" viewBox="0 0 480 540" fill="none" xmlns="http://www.w3.org/2000/svg">
<path d="M85 76.5H396C405.113 76.5 412.5 83.8873 412.5 93V447C412.5 456.113 405.113 463.5 396 463.5H85C75.8873 463.5 68.5 456.113 68.5 447V93C68.5 83.8873 75.8873 76.5 85 76.5Z" fill="white" stroke="#DFDFDF"/>
<path fill-rule="evenodd" clip-rule="evenodd" d="M354 269.878C354 332.574 303.26 383.404 240.671 383.404C178.076 383.404 127.336 332.574 127.336 269.878C127.336 207.172 178.076 156.351 240.671 156.351C303.265 156.351 354 207.172 354 269.878ZM181.597 269.567L200.928 250.145C201.508 249.479 201.811 248.617 201.778 247.735C201.744 246.853 201.376 246.017 200.748 245.396C200.12 244.776 199.279 244.418 198.397 244.396C197.515 244.373 196.657 244.688 195.998 245.275L176.669 264.619L157.264 245.24C156.609 244.593 155.724 244.233 154.803 244.24C153.883 244.246 153.003 244.617 152.356 245.272C151.71 245.928 151.35 246.813 151.356 247.733C151.362 248.654 151.734 249.534 152.389 250.18L171.728 269.545L152.399 288.924C152.058 289.24 151.783 289.621 151.592 290.044C151.401 290.468 151.297 290.926 151.286 291.39C151.275 291.855 151.357 292.317 151.528 292.749C151.699 293.182 151.955 293.575 152.28 293.907C152.606 294.238 152.995 294.501 153.424 294.679C153.853 294.858 154.314 294.948 154.779 294.945C155.244 294.942 155.703 294.846 156.13 294.662C156.557 294.478 156.942 294.211 157.264 293.875L176.644 274.486L195.947 293.799C196.423 294.305 197.04 294.656 197.718 294.806C198.396 294.956 199.103 294.899 199.748 294.641C200.393 294.384 200.945 293.938 201.333 293.362C201.721 292.786 201.926 292.107 201.923 291.412C201.925 290.958 201.837 290.507 201.664 290.087C201.49 289.667 201.235 289.285 200.913 288.965L181.597 269.567ZM302.868 275.878C299.385 275.878 296.559 273.052 296.559 269.57H296.574C296.574 266.088 299.395 263.262 302.863 263.262C304.536 263.261 306.14 263.925 307.324 265.107C308.508 266.29 309.173 267.894 309.173 269.567C309.174 271.241 308.51 272.845 307.328 274.029C306.145 275.212 304.541 275.878 302.868 275.878ZM302.863 251.301C292.799 251.301 284.624 259.502 284.624 269.57C284.624 274.41 286.544 279.052 289.964 282.478C293.383 285.903 298.022 287.831 302.863 287.839C312.911 287.839 321.096 279.638 321.096 269.57C321.096 259.502 312.906 251.301 302.863 251.301ZM302.863 295.026C288.853 295.026 277.447 283.6 277.447 269.57C277.45 262.826 280.127 256.364 284.892 251.592C289.656 246.82 296.119 244.133 302.863 244.119C316.872 244.119 328.278 255.545 328.278 269.575C328.278 283.61 316.872 295.026 302.863 295.026ZM274.586 244.553H275.645L275.625 244.558C276.547 244.558 277.431 244.924 278.084 245.575C278.737 246.226 279.105 247.109 279.108 248.03C279.108 249.943 277.644 251.361 275.595 251.437C275.585 251.437 274.838 251.422 274.131 251.508C266.622 252.446 265.814 255.999 265.814 264.781V291.145C265.768 292.031 265.383 292.865 264.74 293.476C264.097 294.087 263.244 294.429 262.357 294.43C261.47 294.431 260.616 294.092 259.971 293.483C259.326 292.874 258.939 292.041 258.89 291.155L258.88 248.283C258.878 247.83 258.964 247.382 259.136 246.963C259.307 246.545 259.559 246.164 259.878 245.843C260.197 245.522 260.576 245.268 260.994 245.094C261.412 244.92 261.86 244.831 262.312 244.831C263.103 244.836 263.869 245.107 264.487 245.602C265.104 246.097 265.536 246.785 265.713 247.556C268.292 245.563 271.381 244.553 274.586 244.553ZM209.099 265.371H244.769C243.823 261.373 241.563 257.808 238.351 255.247C235.138 252.685 231.159 251.276 227.051 251.244C222.942 251.212 218.942 252.559 215.69 255.07C212.438 257.581 210.123 261.111 209.114 265.094C209.113 265.121 209.111 265.149 209.109 265.178C209.104 265.24 209.1 265.306 209.099 265.371ZM240.606 248.096C246.495 251.831 250.366 257.65 251.86 264.73L251.85 264.72C252.587 268.722 249.922 272.23 244.966 272.341H208.781L208.832 272.871C209.01 273.865 209.268 274.844 209.604 275.798C211.527 280.824 216.916 287.875 227 287.991C230.078 287.97 232.975 287.198 235.529 285.836C237.527 284.715 239.198 283.277 240.545 281.788C240.984 281.258 241.393 280.723 241.757 280.198C243.442 278.028 245.592 278.427 246.874 279.411C248.388 280.572 248.645 283.025 247.263 284.74C247.248 284.759 247.233 284.775 247.219 284.791C247.194 284.819 247.171 284.845 247.152 284.877C245.153 287.375 243.099 289.464 240.641 291.044C238.305 292.541 235.737 293.639 233.041 294.294C229.962 295.101 226.975 295.273 223.906 294.9C218.823 294.25 214.05 292.091 210.205 288.702C206.361 285.314 203.62 280.85 202.336 275.889C201.109 270.903 201.401 265.664 203.176 260.846C204.95 256.028 208.126 251.852 212.294 248.853C216.413 245.95 221.298 244.329 226.335 244.194C231.373 244.059 236.338 245.417 240.606 248.096Z" fill="#13B5EA"/>
</svg>
