<svg xmlns="http://www.w3.org/2000/svg" width="317" height="317" viewBox="0 0 317 317">
  <g id="Group_6358" data-name="Group 6358" transform="translate(-4403 -13281)">
    <path id="Path_25812" data-name="Path 25812" d="M53,0H264a53,53,0,0,1,53,53V264a53,53,0,0,1-53,53H53A53,53,0,0,1,0,264V53A53,53,0,0,1,53,0Z" transform="translate(4403 13281)" fill="#fff"/>
    <g id="Checkout.com" transform="translate(4423.587 13139.388)">
      <path id="Path_25723" data-name="Path 25723" d="M162.767,300.359l37.048-65.912a4.054,4.054,0,0,0,0-4.464,5.275,5.275,0,0,0-3.72-2.083H119.768a5.275,5.275,0,0,0-3.72,2.083l-39.428,68a4.054,4.054,0,0,0,0,4.464l39.28,68a4.242,4.242,0,0,0,3.72,2.083h76.327a4.806,4.806,0,0,0,3.72-2.083,4.054,4.054,0,0,0,0-4.464Zm-4.91-8.927-30.65-54.753h61.6Zm-38.387-50.29,33.179,59.068L119.47,359.278,85.4,300.21Zm7.737,122.451,30.65-54.753,30.65,54.753Z" transform="translate(0 0)" fill="#11172a"/>
    </g>
  </g>
</svg>
