<svg xmlns="http://www.w3.org/2000/svg" width="317" height="317" viewBox="0 0 317 317">
  <g id="Group_6363" data-name="Group 6363" transform="translate(-11010 -13281)">
    <path id="Path_25817" data-name="Path 25817" d="M53,0H264a53,53,0,0,1,53,53V264a53,53,0,0,1-53,53H53A53,53,0,0,1,0,264V53A53,53,0,0,1,53,0Z" transform="translate(11010 13281)" fill="#fff"/>
    <g id="Group_6355" data-name="Group 6355" transform="translate(-1321.299 1088.777)">
      <path id="Path_25788" data-name="Path 25788" d="M66.477,365.784H93V301.37L55.11,272.95v81.467a11.368,11.368,0,0,0,11.367,11.367" transform="translate(12350.891 12047.404)" fill="#4285f4"/>
      <path id="Path_25789" data-name="Path 25789" d="M232.04,365.784h26.527a11.368,11.368,0,0,0,11.367-11.367V272.95L232.04,301.37v64.414Z" transform="translate(12302.796 12047.404)" fill="#34a853"/>
      <path id="Path_25790" data-name="Path 25790" d="M232.04,240.077v49.261l37.894-28.42V245.764a17.052,17.052,0,0,0-27.284-13.639Z" transform="translate(12302.796 12059.438)" fill="#fbbc04"/>
      <path id="Path_25791" data-name="Path 25791" d="M107.15,293.583V244.33l45.474,34.1,45.467-34.1v49.253l-45.467,34.107Z" transform="translate(12336.745 12055.185)" fill="#ea4335"/>
      <path id="Path_25792" data-name="Path 25792" d="M55.11,245.754v15.153L93,289.327V240.067l-10.609-7.952A17.053,17.053,0,0,0,55.11,245.754" transform="translate(12350.891 12059.44)" fill="#c5221f"/>
    </g>
  </g>
</svg>
