<svg xmlns="http://www.w3.org/2000/svg" width="317" height="317" viewBox="0 0 317 317">
  <g id="Group_6361" data-name="Group 6361" transform="translate(-8673 -13281)">
    <path id="Path_25815" data-name="Path 25815" d="M53,0H264a53,53,0,0,1,53,53V264a53,53,0,0,1-53,53H53A53,53,0,0,1,0,264V53A53,53,0,0,1,53,0Z" transform="translate(8673 13281)" fill="#fff"/>
    <g id="Intuit_Quickbooks" data-name="Intuit Quickbooks" transform="translate(8705.753 13218.753)">
      <circle id="Ellipse_33" data-name="Ellipse 33" cx="84.747" cy="84.747" r="84.747" transform="translate(41 136)" fill="#2ca01c"/>
      <path id="Path_25786" data-name="Path 25786" d="M53.5,207.056a32.873,32.873,0,0,0,32.957,32.957h4.708V227.772H86.457a20.716,20.716,0,0,1,0-41.432h11.3v64.031A12.217,12.217,0,0,0,110,262.613h0V174.1H86.457A32.873,32.873,0,0,0,53.5,207.056ZM142.955,174.1h-4.708V186.34h4.708a20.716,20.716,0,0,1,0,41.432h-11.3V163.741A12.217,12.217,0,0,0,119.414,151.5v88.514h23.541a32.957,32.957,0,0,0,0-65.914Z" transform="translate(11.041 13.691)" fill="#fff"/>
    </g>
  </g>
</svg>
