<svg xmlns="http://www.w3.org/2000/svg" width="317" height="317" viewBox="0 0 317 317">
  <g id="Group_6362" data-name="Group 6362" transform="translate(-10034 -13281)">
    <path id="Path_25816" data-name="Path 25816" d="M53,0H264a53,53,0,0,1,53,53V264a53,53,0,0,1-53,53H53A53,53,0,0,1,0,264V53A53,53,0,0,1,53,0Z" transform="translate(10034 13281)" fill="#fff"/>
    <g id="stripe" transform="translate(10103.991 13350.92)">
      <g id="Group_6357" data-name="Group 6357">
        <path id="Path_25811" data-name="Path 25811" d="M39.732,0h97.553a39.732,39.732,0,0,1,39.732,39.732v97.553a39.732,39.732,0,0,1-39.732,39.732H39.732A39.732,39.732,0,0,1,0,137.285V39.732A39.732,39.732,0,0,1,39.732,0Z" fill="#6772e5"/>
        <path id="Path_25810" data-name="Path 25810" d="M36.084,35.63c0-4.231,3.495-6.132,9.136-6.132a60.334,60.334,0,0,1,26.795,6.929V11.349A71.126,71.126,0,0,0,45.281,6.443C23.453,6.443,8.86,17.848,8.86,37.1c0,29.8,40.959,24.955,40.959,37.832,0,4.967-4.353,6.561-10.3,6.561a67.815,67.815,0,0,1-29.8-8.768V98.417a74.744,74.744,0,0,0,29.431,6.132c22.38,0,37.832-11.037,37.832-30.658.184-31.945-40.9-26.182-40.9-38.261Z" transform="translate(45.465 33.044)" fill="#fff" fill-rule="evenodd"/>
      </g>
    </g>
  </g>
</svg>
